<svg id="_107" data-name="107" xmlns="http://www.w3.org/2000/svg" viewBox="0 0 264.05 335.78"><defs><style>.cls-1{isolation:isolate;font-size:8px;fill:#969696;font-family:PTSans-Regular, PT Sans;letter-spacing:-0.01em;}.cls-2{letter-spacing:0em;}.cls-11,.cls-12,.cls-13,.cls-3,.cls-6{fill:none;}.cls-3{stroke:#969696;}.cls-11,.cls-12,.cls-13,.cls-3{stroke-linecap:round;stroke-linejoin:round;}.cls-13,.cls-3{stroke-width:0.5px;}.cls-4{font-size:22px;}.cls-4,.cls-7{fill:#231f20;font-family:BigCityGrotesquePro-Regular, BigCity Grotesque Pro;}.cls-5{letter-spacing:-0.02em;}.cls-11,.cls-12,.cls-13,.cls-6{stroke:#000;}.cls-6{stroke-miterlimit:10;stroke-width:0.32px;}.cls-7{font-size:24px;}.cls-8{letter-spacing:-0.01em;}.cls-9{letter-spacing:-0.02em;}.cls-10{letter-spacing:-0.02em;}.cls-11{stroke-width:0.35px;}</style></defs><title>13floor_107flat</title><text class="cls-1" transform="translate(127.51 6.8)">у<tspan class="cls-2" x="3.62" y="0">лица</tspan></text><line class="cls-3" x1="119.01" y1="0.82" x2="119.01" y2="7.94"/><polyline class="cls-3" points="116.17 3.65 119.01 0.82 121.84 3.65"/><text class="cls-4" transform="translate(105.34 278.34)">5.20</text><text class="cls-4" transform="translate(23.16 278.34)">3.20</text><text class="cls-4" transform="translate(184.51 278.34)">3<tspan class="cls-5" x="11" y="0">.</tspan><tspan x="15.6" y="0">70</tspan></text><text class="cls-4" transform="translate(168.12 93.05)">12.90</text><text class="cls-4" transform="translate(49.94 93.05)">11<tspan class="cls-5" x="15.49" y="0">.</tspan><tspan x="20.09" y="0">70</tspan></text><rect class="cls-6" x="28.18" y="106" width="80" height="31.31"/><rect class="cls-6" x="28.18" y="137.32" width="80" height="31.31"/><rect class="cls-6" x="28.18" y="168.63" width="80" height="31.31"/><text class="cls-7" transform="translate(38.65 129.38)">№1<tspan class="cls-8" x="34.63" y="0">0</tspan><tspan x="48.19" y="0">7</tspan><tspan x="18.68" y="30.86">1</tspan><tspan class="cls-9" x="27.13" y="30.86">К</tspan><tspan x="1.94" y="61.72">36</tspan><tspan class="cls-10" x="27.36" y="61.72">.</tspan><tspan x="32.38" y="61.72">70</tspan></text><line class="cls-11" x1="245.79" y1="263.63" x2="231.06" y2="263.63"/><polyline class="cls-11" points="246.67 264.3 252.24 264.3 252.24 248.38"/><line class="cls-11" x1="243.22" y1="256.34" x2="243.22" y2="250.46"/><polyline class="cls-11" points="231.06 263.63 243.22 262.22 243.22 256.34"/><line class="cls-11" x1="231.06" y1="249.04" x2="243.22" y2="250.46"/><line class="cls-11" x1="231.06" y1="263.28" x2="243.22" y2="261.87"/><line class="cls-11" x1="231.06" y1="249.39" x2="243.22" y2="250.81"/><line class="cls-11" x1="245.79" y1="249.04" x2="231.06" y2="249.04"/><line class="cls-11" x1="252.24" y1="248.38" x2="246.67" y2="248.38"/><polyline class="cls-11" points="231.06 263.63 229.42 263.46 227.87 262.84 226.55 261.82 225.44 260.5 224.69 258.95 224.29 257.22 224.29 255.45 224.69 253.73 225.44 252.18 226.55 250.85 227.87 249.84 229.42 249.22 231.06 249.04"/><polyline class="cls-11" points="231.06 263.28 229.51 263.06 228.05 262.49 226.77 261.51 225.75 260.27 225.04 258.81 224.65 257.18 224.65 255.5 225.04 253.86 225.75 252.4 226.77 251.16 228.05 250.19 229.51 249.62 231.06 249.39"/><path class="cls-11" d="M245.77,277.6a66.37,66.37,0,0,0,0,14.23" transform="translate(0 -28.35)"/><path class="cls-11" d="M245.7,291.84a.94.94,0,0,0,1,.81" transform="translate(0 -28.35)"/><path class="cls-11" d="M246.65,276.77a.94.94,0,0,0-1,.82" transform="translate(0 -28.35)"/><path class="cls-11" d="M248,284.71a.78.78,0,0,0,.78.78.77.77,0,0,0,.77-.78.76.76,0,0,0-.77-.77.77.77,0,0,0-.78.77" transform="translate(0 -28.35)"/><line class="cls-11" x1="249.8" y1="299.58" x2="249.8" y2="320.06"/><line class="cls-11" x1="247.36" y1="322.48" x2="194.23" y2="322.48"/><line class="cls-11" x1="247.36" y1="297.2" x2="194.23" y2="297.2"/><line class="cls-11" x1="179.23" y1="324.9" x2="252.24" y2="324.9"/><polyline class="cls-11" points="179.23 324.9 179.23 294.78 252.24 294.78 252.24 324.9"/><line class="cls-11" x1="202.75" y1="301.36" x2="244.32" y2="301.36"/><line class="cls-11" x1="245.56" y1="302.59" x2="245.56" y2="317.08"/><line class="cls-11" x1="202.75" y1="318.27" x2="244.32" y2="318.27"/><line class="cls-11" x1="236.99" y1="309.09" x2="236.99" y2="307.61"/><line class="cls-11" x1="237.74" y1="309.82" x2="239.28" y2="309.82"/><line class="cls-11" x1="236.99" y1="310.58" x2="236.99" y2="312.07"/><line class="cls-11" x1="236.24" y1="309.82" x2="234.75" y2="309.82"/><path class="cls-11" d="M194.21,325.55a12.64,12.64,0,1,0,0,25.28" transform="translate(0 -28.35)"/><path class="cls-11" d="M247.33,350.83a2.4,2.4,0,0,0,2.42-2.4" transform="translate(0 -28.35)"/><path class="cls-11" d="M249.75,328a2.4,2.4,0,0,0-2.42-2.4" transform="translate(0 -28.35)"/><path class="cls-11" d="M237,339.44a1.25,1.25,0,1,0-1.27-1.25,1.26,1.26,0,0,0,1.27,1.25" transform="translate(0 -28.35)"/><path class="cls-11" d="M202.73,329.71a8.48,8.48,0,1,0,0,17" transform="translate(0 -28.35)"/><path class="cls-11" d="M245.52,331a1.22,1.22,0,0,0-1.23-1.21" transform="translate(0 -28.35)"/><path class="cls-11" d="M244.29,346.67a1.23,1.23,0,0,0,1.23-1.21" transform="translate(0 -28.35)"/><path class="cls-11" d="M237,339.87a1.68,1.68,0,1,0-1.72-1.68,1.7,1.7,0,0,0,1.72,1.68" transform="translate(0 -28.35)"/><polyline class="cls-11" points="242.58 290.51 252.13 290.51 252.13 267.95 242.58 267.95"/><line class="cls-11" x1="252.13" y1="275.65" x2="252.13" y2="282.77"/><line class="cls-11" x1="244.44" y1="277.33" x2="244.44" y2="278.53"/><line class="cls-11" x1="246.34" y1="279.23" x2="245.15" y2="279.23"/><line class="cls-11" x1="244.44" y1="279.94" x2="244.44" y2="281.13"/><line class="cls-11" x1="243.77" y1="279.23" x2="242.54" y2="279.23"/><path class="cls-11" d="M242,317.5a10.1,10.1,0,0,0,4.75-3.91" transform="translate(0 -28.35)"/><path class="cls-11" d="M246.71,313.59a10,10,0,0,0,1.41-6" transform="translate(0 -28.35)"/><path class="cls-11" d="M246.72,301.62a10,10,0,0,0-4.75-3.9" transform="translate(0 -28.35)"/><path class="cls-11" d="M248.12,307.62a10,10,0,0,0-1.41-6" transform="translate(0 -28.35)"/><path class="cls-11" d="M242.54,296.31a5.73,5.73,0,0,0-4.71,2.14" transform="translate(0 -28.35)"/><path class="cls-11" d="M246.34,313.92a41.08,41.08,0,0,0,0-12.62" transform="translate(0 -28.35)"/><path class="cls-11" d="M250.29,300.13a14.1,14.1,0,0,0-9.21-3.2" transform="translate(0 -28.35)"/><path class="cls-11" d="M251.65,307.6a28.67,28.67,0,0,0-.7-6.46" transform="translate(0 -28.35)"/><path class="cls-11" d="M250.94,301.13a1.86,1.86,0,0,0-.65-1" transform="translate(0 -28.35)"/><path class="cls-11" d="M250.76,307.6a46.57,46.57,0,0,0-.46-6.36" transform="translate(0 -28.35)"/><path class="cls-11" d="M249.67,300.07a12.77,12.77,0,0,0-8.6-3.19" transform="translate(0 -28.35)"/><path class="cls-11" d="M250.3,301.25a1.87,1.87,0,0,0-.62-1.16" transform="translate(0 -28.35)"/><path class="cls-11" d="M241.08,318.33a12.71,12.71,0,0,0,8.6-3.2" transform="translate(0 -28.35)"/><path class="cls-11" d="M241.1,318.29a14.24,14.24,0,0,0,9.21-3.21" transform="translate(0 -28.35)"/><path class="cls-11" d="M250.31,314a48.2,48.2,0,0,0,.45-6.36" transform="translate(0 -28.35)"/><path class="cls-11" d="M251,314a28,28,0,0,0,.69-6.45" transform="translate(0 -28.35)"/><path class="cls-11" d="M249.69,315.12a1.91,1.91,0,0,0,.61-1.15" transform="translate(0 -28.35)"/><path class="cls-11" d="M250.3,315.08a1.92,1.92,0,0,0,.64-1.05" transform="translate(0 -28.35)"/><path class="cls-11" d="M237.83,316.72a5.73,5.73,0,0,0,4.71,2.14" transform="translate(0 -28.35)"/><path class="cls-11" d="M236.84,315.26a9.85,9.85,0,0,0,1,1.5" transform="translate(0 -28.35)"/><path class="cls-11" d="M237.81,298.45a10,10,0,0,0-1,1.51" transform="translate(0 -28.35)"/><path class="cls-11" d="M236.85,300a18.65,18.65,0,0,0-1.87,6.85v1.57a18.6,18.6,0,0,0,1.87,6.85" transform="translate(0 -28.35)"/><path class="cls-11" d="M236.58,304.5a13.3,13.3,0,0,0,0,6.21" transform="translate(0 -28.35)"/><path class="cls-11" d="M239.16,316.32a3.37,3.37,0,0,0,2.79,1.16" transform="translate(0 -28.35)"/><path class="cls-11" d="M236.62,310.7a12.12,12.12,0,0,0,2.58,5.62" transform="translate(0 -28.35)"/><path class="cls-11" d="M242,297.69a3.34,3.34,0,0,0-2.79,1.16" transform="translate(0 -28.35)"/><path class="cls-11" d="M239.2,298.89a12.17,12.17,0,0,0-2.58,5.62" transform="translate(0 -28.35)"/><path class="cls-11" d="M242.94,307.61a1.48,1.48,0,1,0,1.48-1.48,1.48,1.48,0,0,0-1.48,1.48" transform="translate(0 -28.35)"/><path class="cls-11" d="M243.38,307.61a1,1,0,1,0,1-1,1,1,0,0,0-1,1" transform="translate(0 -28.35)"/><polyline class="cls-12" points="253.45 230.28 253.45 242.71 229.45 242.71 229.45 230.28 253.45 230.28"/><polyline class="cls-12" points="229.45 242.71 253.45 242.71 253.45 230.28 229.45 230.28 229.45 242.71"/><polyline class="cls-12" points="253.45 230.28 229.45 230.28 229.45 242.71"/><line class="cls-12" x1="263.55" y1="72.23" x2="263.55" y2="82.32"/><line class="cls-12" x1="0.5" y1="54.14" x2="10.59" y2="54.14"/><line class="cls-12" x1="32.63" y1="54.14" x2="32.63" y2="48.1"/><polyline class="cls-12" points="32.63 48.1 32.63 47.98 0.5 47.98"/><line class="cls-12" x1="159.16" y1="54.14" x2="159.16" y2="48.1"/><polyline class="cls-12" points="159.16 48.1 159.16 47.98 104.88 47.98 104.88 48.1"/><line class="cls-12" x1="104.88" y1="48.1" x2="104.88" y2="54.14"/><line class="cls-12" x1="253.45" y1="54.14" x2="263.55" y2="54.14"/><polyline class="cls-12" points="263.55 47.98 231.42 47.98 231.42 48.1"/><line class="cls-12" x1="231.42" y1="48.1" x2="231.42" y2="54.14"/><line class="cls-12" x1="10.59" y1="54.14" x2="32.63" y2="54.14"/><polyline class="cls-12" points="32.63 48.1 0.5 48.1 0.5 76.42"/><line class="cls-12" x1="104.88" y1="54.14" x2="159.16" y2="54.14"/><line class="cls-12" x1="159.16" y1="48.1" x2="104.88" y2="48.1"/><line class="cls-12" x1="231.42" y1="54.14" x2="253.45" y2="54.14"/><polyline class="cls-12" points="231.42 48.1 263.55 48.1 263.55 67.25"/><line class="cls-13" x1="32.63" y1="47.98" x2="104.88" y2="47.98"/><line class="cls-13" x1="159.16" y1="47.98" x2="231.42" y2="47.98"/><line class="cls-12" x1="32.63" y1="56.72" x2="32.63" y2="54.14"/><line class="cls-12" x1="10.59" y1="54.14" x2="10.59" y2="64.23"/><line class="cls-12" x1="159.16" y1="56.72" x2="159.16" y2="54.14"/><line class="cls-12" x1="104.88" y1="54.14" x2="104.88" y2="56.72"/><line class="cls-12" x1="253.45" y1="64.23" x2="253.45" y2="54.14"/><line class="cls-12" x1="231.42" y1="54.14" x2="231.42" y2="56.72"/><line class="cls-12" x1="32.63" y1="64.23" x2="10.59" y2="64.23"/><line class="cls-12" x1="159.16" y1="64.23" x2="104.88" y2="64.23"/><line class="cls-12" x1="253.45" y1="64.23" x2="231.42" y2="64.23"/><line class="cls-12" x1="0.5" y1="64.23" x2="0.5" y2="54.14"/><line class="cls-13" x1="80.02" y1="46.38" x2="80.02" y2="47.98"/><line class="cls-13" x1="80.88" y1="46.38" x2="80.88" y2="47.98"/><line class="cls-13" x1="57.49" y1="46.38" x2="57.49" y2="47.98"/><line class="cls-13" x1="56.75" y1="46.38" x2="56.75" y2="47.98"/><polyline class="cls-13" points="52.69 30.26 84.82 30.26 84.82 46.38 52.69 46.38 52.69 30.26"/><polyline class="cls-13" points="68.82 25.46 70.78 25.46 73 25.46 75.09 25.46 77.19 25.46 79.4 25.46 81.49 25.46 83.59 25.46 85.68 25.46 88.76 25.46 88.76 25.58 85.68 25.58 83.59 25.58 81.49 25.58 79.4 25.58 77.19 25.58 75.09 25.58 73 25.58 70.78 25.58 68.82 25.58 68.82 25.46"/><line class="cls-13" x1="70.79" y1="25.58" x2="70.79" y2="25.46"/><line class="cls-13" x1="73" y1="25.58" x2="73" y2="25.46"/><line class="cls-13" x1="75.09" y1="25.58" x2="75.09" y2="25.46"/><line class="cls-13" x1="77.19" y1="25.58" x2="77.19" y2="25.46"/><line class="cls-13" x1="79.4" y1="25.58" x2="79.4" y2="25.46"/><line class="cls-13" x1="81.49" y1="25.58" x2="81.49" y2="25.46"/><line class="cls-13" x1="83.59" y1="25.58" x2="83.59" y2="25.46"/><line class="cls-13" x1="85.68" y1="25.58" x2="85.68" y2="25.46"/><polyline class="cls-13" points="48.75 25.58 68.82 25.58 68.82 25.7 48.75 25.7 48.75 25.58"/><polyline class="cls-13" points="88.88 47.98 88.88 25.7 48.75 25.7 48.75 47.98"/><polyline class="cls-13" points="51.34 47.98 51.34 28.29 86.3 28.29 86.3 47.98"/><line class="cls-13" x1="51.34" y1="28.53" x2="86.29" y2="28.53"/><line class="cls-12" x1="0.5" y1="62.26" x2="8.62" y2="54.14"/><line class="cls-12" x1="0.5" y1="71.37" x2="10.59" y2="61.4"/><line class="cls-12" x1="0.5" y1="80.6" x2="10.59" y2="70.51"/><line class="cls-12" x1="0.5" y1="89.71" x2="10.59" y2="79.74"/><line class="cls-12" x1="0.5" y1="98.94" x2="10.59" y2="88.85"/><line class="cls-12" x1="0.5" y1="108.05" x2="10.59" y2="98.08"/><line class="cls-12" x1="0.5" y1="117.16" x2="10.59" y2="107.19"/><line class="cls-12" x1="0.5" y1="126.39" x2="10.59" y2="116.3"/><line class="cls-12" x1="0.5" y1="135.5" x2="10.59" y2="125.53"/><line class="cls-12" x1="0.5" y1="144.73" x2="10.59" y2="134.64"/><line class="cls-12" x1="0.5" y1="153.84" x2="10.59" y2="143.87"/><line class="cls-12" x1="0.5" y1="162.95" x2="10.59" y2="152.98"/><line class="cls-12" x1="0.5" y1="172.18" x2="10.59" y2="162.09"/><line class="cls-12" x1="0.5" y1="181.29" x2="10.59" y2="171.32"/><line class="cls-12" x1="0.5" y1="190.52" x2="10.59" y2="180.43"/><line class="cls-12" x1="0.5" y1="199.63" x2="10.59" y2="189.66"/><line class="cls-12" x1="0.5" y1="208.86" x2="10.59" y2="198.77"/><line class="cls-12" x1="0.5" y1="217.97" x2="10.59" y2="207.88"/><line class="cls-12" x1="0.5" y1="227.08" x2="10.59" y2="217.11"/><line class="cls-12" x1="0.5" y1="236.31" x2="10.59" y2="226.22"/><line class="cls-12" x1="0.5" y1="245.42" x2="10.59" y2="235.45"/><line class="cls-12" x1="0.5" y1="254.65" x2="10.59" y2="244.56"/><line class="cls-12" x1="0.5" y1="263.76" x2="10.59" y2="253.67"/><line class="cls-12" x1="0.5" y1="272.87" x2="10.59" y2="262.9"/><line class="cls-12" x1="0.5" y1="282.1" x2="10.59" y2="272.01"/><line class="cls-12" x1="0.5" y1="291.21" x2="10.59" y2="281.24"/><line class="cls-12" x1="0.5" y1="300.44" x2="10.59" y2="290.35"/><line class="cls-12" x1="0.5" y1="309.55" x2="10.59" y2="299.46"/><line class="cls-12" x1="0.5" y1="318.66" x2="10.59" y2="308.69"/><line class="cls-12" x1="0.5" y1="327.89" x2="10.59" y2="317.8"/><line class="cls-12" x1="2.35" y1="335.28" x2="10.59" y2="327.03"/><line class="cls-12" x1="1.12" y1="57.09" x2="1.24" y2="56.97"/><line class="cls-12" x1="2.22" y1="55.98" x2="4.07" y2="54.14"/><line class="cls-12" x1="0.5" y1="66.81" x2="4.56" y2="62.88"/><line class="cls-12" x1="5.67" y1="61.64" x2="5.79" y2="61.52"/><line class="cls-12" x1="6.9" y1="60.54" x2="10.59" y2="56.84"/><line class="cls-12" x1="0.5" y1="76.05" x2="1.12" y2="75.43"/><line class="cls-12" x1="2.22" y1="74.32" x2="2.35" y2="74.2"/><line class="cls-12" x1="3.45" y1="73.09" x2="9.12" y2="67.43"/><line class="cls-12" x1="10.35" y1="66.2" x2="10.35" y2="66.2"/><line class="cls-12" x1="0.5" y1="85.15" x2="5.67" y2="79.99"/><line class="cls-12" x1="6.9" y1="78.88" x2="6.9" y2="78.75"/><line class="cls-12" x1="8.01" y1="77.65" x2="10.59" y2="75.18"/><line class="cls-12" x1="0.5" y1="94.26" x2="2.22" y2="92.54"/><line class="cls-12" x1="3.45" y1="91.43" x2="3.58" y2="91.31"/><line class="cls-12" x1="4.56" y1="90.32" x2="10.35" y2="84.54"/><line class="cls-12" x1="1.12" y1="102.88" x2="6.9" y2="97.22"/><line class="cls-12" x1="8.01" y1="95.99" x2="8.13" y2="95.86"/><line class="cls-12" x1="9.12" y1="94.88" x2="10.59" y2="93.4"/><line class="cls-12" x1="0.5" y1="112.6" x2="3.45" y2="109.77"/><line class="cls-12" x1="4.56" y1="108.67" x2="4.69" y2="108.54"/><line class="cls-12" x1="5.67" y1="107.43" x2="10.59" y2="102.63"/><line class="cls-12" x1="1.12" y1="121.22" x2="1.24" y2="121.1"/><line class="cls-12" x1="2.22" y1="120.11" x2="8.01" y2="114.33"/><line class="cls-12" x1="9.12" y1="113.22" x2="9.24" y2="113.1"/><line class="cls-12" x1="10.35" y1="111.99" x2="10.59" y2="111.74"/><line class="cls-12" x1="0.5" y1="130.94" x2="4.56" y2="126.88"/><line class="cls-12" x1="5.67" y1="125.78" x2="5.79" y2="125.65"/><line class="cls-12" x1="6.9" y1="124.67" x2="10.59" y2="120.97"/><line class="cls-12" x1="0.5" y1="140.05" x2="1.12" y2="139.56"/><line class="cls-12" x1="2.22" y1="138.33" x2="2.35" y2="138.33"/><line class="cls-12" x1="3.45" y1="137.22" x2="9.12" y2="131.56"/><line class="cls-12" x1="10.35" y1="130.33" x2="10.35" y2="130.21"/><line class="cls-12" x1="0.5" y1="149.29" x2="5.67" y2="144.12"/><line class="cls-12" x1="6.9" y1="143.01" x2="6.9" y2="142.88"/><line class="cls-12" x1="8.01" y1="141.78" x2="10.59" y2="139.19"/><line class="cls-12" x1="0.5" y1="158.39" x2="2.22" y2="156.67"/><line class="cls-12" x1="3.45" y1="155.56" x2="3.58" y2="155.44"/><line class="cls-12" x1="4.56" y1="154.46" x2="10.35" y2="148.67"/><line class="cls-12" x1="1.12" y1="167.01" x2="6.9" y2="161.23"/><line class="cls-12" x1="8.01" y1="160.12" x2="8.13" y2="159.99"/><line class="cls-12" x1="9.12" y1="159.01" x2="10.59" y2="157.53"/><line class="cls-12" x1="0.5" y1="176.73" x2="3.45" y2="173.9"/><line class="cls-12" x1="4.56" y1="172.67" x2="4.69" y2="172.67"/><line class="cls-12" x1="5.67" y1="171.57" x2="10.59" y2="166.76"/><line class="cls-12" x1="1.12" y1="185.35" x2="1.24" y2="185.23"/><line class="cls-12" x1="2.22" y1="184.12" x2="8.01" y2="178.46"/><line class="cls-12" x1="9.12" y1="177.35" x2="9.24" y2="177.23"/><line class="cls-12" x1="10.35" y1="176.12" x2="10.59" y2="175.87"/><line class="cls-12" x1="0.5" y1="195.08" x2="4.56" y2="191.01"/><line class="cls-12" x1="5.67" y1="189.91" x2="5.79" y2="189.78"/><line class="cls-12" x1="6.9" y1="188.8" x2="10.59" y2="184.98"/><line class="cls-12" x1="0.5" y1="204.18" x2="1.12" y2="203.57"/><line class="cls-12" x1="2.22" y1="202.46" x2="2.35" y2="202.34"/><line class="cls-12" x1="3.45" y1="201.35" x2="9.12" y2="195.57"/><line class="cls-12" x1="10.35" y1="194.46" x2="10.35" y2="194.34"/><line class="cls-12" x1="0.5" y1="213.42" x2="5.67" y2="208.25"/><line class="cls-12" x1="6.9" y1="207.02" x2="6.9" y2="207.02"/><line class="cls-12" x1="8.01" y1="205.91" x2="10.59" y2="203.32"/><line class="cls-12" x1="0.5" y1="222.52" x2="2.22" y2="220.8"/><line class="cls-12" x1="3.45" y1="219.69" x2="3.58" y2="219.57"/><line class="cls-12" x1="4.56" y1="218.46" x2="10.35" y2="212.8"/><line class="cls-12" x1="1.12" y1="231.14" x2="6.9" y2="225.36"/><line class="cls-12" x1="8.01" y1="224.25" x2="8.13" y2="224.12"/><line class="cls-12" x1="9.12" y1="223.14" x2="10.59" y2="221.66"/><line class="cls-12" x1="0.5" y1="240.87" x2="3.45" y2="237.91"/><line class="cls-12" x1="4.56" y1="236.8" x2="4.69" y2="236.68"/><line class="cls-12" x1="5.67" y1="235.7" x2="10.59" y2="230.77"/><line class="cls-12" x1="1.12" y1="249.36" x2="1.24" y2="249.36"/><line class="cls-12" x1="2.22" y1="248.25" x2="8.01" y2="242.59"/><line class="cls-12" x1="9.12" y1="241.36" x2="9.24" y2="241.36"/><line class="cls-12" x1="10.35" y1="240.25" x2="10.59" y2="240"/><line class="cls-12" x1="0.5" y1="259.21" x2="4.56" y2="255.14"/><line class="cls-12" x1="5.67" y1="254.04" x2="5.79" y2="253.91"/><line class="cls-12" x1="6.9" y1="252.81" x2="10.59" y2="249.11"/><line class="cls-12" x1="0.5" y1="268.31" x2="1.12" y2="267.7"/><line class="cls-12" x1="2.22" y1="266.59" x2="2.35" y2="266.47"/><line class="cls-12" x1="3.45" y1="265.48" x2="9.12" y2="259.7"/><line class="cls-12" x1="10.35" y1="258.59" x2="10.35" y2="258.47"/><line class="cls-12" x1="0.5" y1="277.55" x2="5.67" y2="272.38"/><line class="cls-12" x1="6.9" y1="271.15" x2="6.9" y2="271.02"/><line class="cls-12" x1="8.01" y1="270.04" x2="10.59" y2="267.45"/><line class="cls-12" x1="0.5" y1="286.66" x2="2.22" y2="284.93"/><line class="cls-12" x1="3.45" y1="283.82" x2="3.58" y2="283.7"/><line class="cls-12" x1="4.56" y1="282.59" x2="10.35" y2="276.93"/><line class="cls-12" x1="1.12" y1="295.27" x2="6.9" y2="289.49"/><line class="cls-12" x1="8.01" y1="288.38" x2="8.13" y2="288.26"/><line class="cls-12" x1="9.12" y1="287.15" x2="10.59" y2="285.79"/><line class="cls-12" x1="0.5" y1="305" x2="3.45" y2="302.04"/><line class="cls-12" x1="4.56" y1="300.93" x2="4.69" y2="300.81"/><line class="cls-12" x1="5.67" y1="299.83" x2="10.59" y2="294.9"/><line class="cls-12" x1="1.12" y1="313.49" x2="1.24" y2="313.49"/><line class="cls-12" x1="2.22" y1="312.38" x2="8.01" y2="306.72"/><line class="cls-12" x1="9.12" y1="305.49" x2="9.24" y2="305.37"/><line class="cls-12" x1="10.35" y1="304.38" x2="10.59" y2="304.13"/><line class="cls-12" x1="0.5" y1="323.34" x2="4.56" y2="319.27"/><line class="cls-12" x1="5.67" y1="318.17" x2="5.79" y2="318.04"/><line class="cls-12" x1="6.9" y1="316.94" x2="10.59" y2="313.24"/><line class="cls-12" x1="0.5" y1="332.45" x2="1.12" y2="331.83"/><line class="cls-12" x1="2.22" y1="330.72" x2="2.35" y2="330.6"/><line class="cls-12" x1="3.45" y1="329.61" x2="9.12" y2="323.83"/><line class="cls-12" x1="10.35" y1="322.72" x2="10.35" y2="322.6"/><line class="cls-12" x1="6.9" y1="335.28" x2="6.9" y2="335.15"/><line class="cls-12" x1="8.01" y1="334.17" x2="10.59" y2="331.58"/><polyline class="cls-12" points="10.59 335.28 10.59 325.18 10.59 324.44"/><polyline class="cls-12" points="10.59 324.44 10.59 54.14 0.5 54.14 0.5 324.44"/><polyline class="cls-12" points="0.5 324.44 0.5 325.18 0.5 335.28 10.59 335.28"/><line class="cls-12" x1="253.45" y1="56.6" x2="255.91" y2="54.14"/><line class="cls-12" x1="253.45" y1="65.71" x2="263.55" y2="55.74"/><line class="cls-12" x1="253.45" y1="74.94" x2="263.55" y2="64.84"/><line class="cls-12" x1="253.45" y1="84.05" x2="263.55" y2="74.08"/><line class="cls-12" x1="253.45" y1="93.28" x2="263.55" y2="83.19"/><line class="cls-12" x1="253.45" y1="102.39" x2="263.55" y2="92.29"/><line class="cls-12" x1="253.45" y1="111.5" x2="263.55" y2="101.53"/><line class="cls-12" x1="253.45" y1="120.73" x2="263.55" y2="110.63"/><line class="cls-12" x1="253.45" y1="129.84" x2="263.55" y2="119.87"/><line class="cls-12" x1="253.45" y1="139.07" x2="263.55" y2="128.98"/><line class="cls-12" x1="253.45" y1="148.18" x2="263.55" y2="138.08"/><line class="cls-12" x1="253.45" y1="157.29" x2="263.55" y2="147.32"/><line class="cls-12" x1="253.45" y1="166.52" x2="263.55" y2="156.42"/><line class="cls-12" x1="253.45" y1="175.63" x2="263.55" y2="165.66"/><line class="cls-12" x1="253.45" y1="184.86" x2="263.55" y2="174.77"/><line class="cls-12" x1="253.45" y1="193.97" x2="263.55" y2="183.87"/><line class="cls-12" x1="253.45" y1="203.08" x2="263.55" y2="193.11"/><line class="cls-12" x1="253.45" y1="212.31" x2="263.55" y2="202.21"/><line class="cls-12" x1="253.45" y1="221.42" x2="263.55" y2="211.45"/><line class="cls-12" x1="253.45" y1="230.65" x2="263.55" y2="220.56"/><line class="cls-12" x1="253.45" y1="239.76" x2="263.55" y2="229.66"/><line class="cls-12" x1="253.45" y1="248.87" x2="263.55" y2="238.9"/><line class="cls-12" x1="253.45" y1="258.1" x2="263.55" y2="248"/><line class="cls-12" x1="253.45" y1="267.21" x2="263.55" y2="257.24"/><line class="cls-12" x1="253.45" y1="276.44" x2="263.55" y2="266.35"/><line class="cls-12" x1="253.45" y1="285.55" x2="263.55" y2="275.58"/><line class="cls-12" x1="253.45" y1="294.66" x2="263.55" y2="284.69"/><line class="cls-12" x1="253.45" y1="303.89" x2="263.55" y2="293.79"/><line class="cls-12" x1="253.45" y1="313" x2="263.55" y2="303.03"/><line class="cls-12" x1="253.45" y1="322.23" x2="263.55" y2="312.14"/><line class="cls-12" x1="253.45" y1="331.34" x2="263.55" y2="321.37"/><line class="cls-12" x1="258.75" y1="335.28" x2="263.55" y2="330.48"/><line class="cls-12" x1="253.45" y1="61.15" x2="256.41" y2="58.2"/><line class="cls-12" x1="257.51" y1="57.09" x2="257.64" y2="56.97"/><line class="cls-12" x1="258.75" y1="55.98" x2="260.47" y2="54.14"/><line class="cls-12" x1="254.19" y1="69.65" x2="254.19" y2="69.65"/><line class="cls-12" x1="255.3" y1="68.54" x2="260.96" y2="62.88"/><line class="cls-12" x1="262.19" y1="61.64" x2="262.19" y2="61.52"/><line class="cls-12" x1="263.3" y1="60.54" x2="263.55" y2="60.29"/><line class="cls-12" x1="253.45" y1="79.49" x2="257.51" y2="75.43"/><line class="cls-12" x1="258.75" y1="74.32" x2="258.75" y2="74.2"/><line class="cls-12" x1="259.85" y1="73.09" x2="263.55" y2="69.4"/><line class="cls-12" x1="253.45" y1="88.6" x2="254.19" y2="87.99"/><line class="cls-12" x1="255.3" y1="86.88" x2="255.42" y2="86.76"/><line class="cls-12" x1="256.41" y1="85.77" x2="262.19" y2="79.99"/><line class="cls-12" x1="263.3" y1="78.88" x2="263.42" y2="78.75"/><line class="cls-12" x1="253.45" y1="97.83" x2="258.75" y2="92.54"/><line class="cls-12" x1="259.85" y1="91.43" x2="259.98" y2="91.31"/><line class="cls-12" x1="260.96" y1="90.32" x2="263.55" y2="87.74"/><line class="cls-12" x1="253.45" y1="106.94" x2="255.3" y2="105.22"/><line class="cls-12" x1="256.41" y1="103.99" x2="256.53" y2="103.99"/><line class="cls-12" x1="257.51" y1="102.88" x2="263.3" y2="97.22"/><line class="cls-12" x1="254.19" y1="115.44" x2="259.85" y2="109.77"/><line class="cls-12" x1="260.96" y1="108.67" x2="261.08" y2="108.54"/><line class="cls-12" x1="262.19" y1="107.43" x2="263.55" y2="106.08"/><line class="cls-12" x1="253.45" y1="125.28" x2="256.41" y2="122.33"/><line class="cls-12" x1="257.51" y1="121.22" x2="257.64" y2="121.1"/><line class="cls-12" x1="258.75" y1="120.11" x2="263.55" y2="115.19"/><line class="cls-12" x1="254.19" y1="133.78" x2="254.19" y2="133.65"/><line class="cls-12" x1="255.3" y1="132.67" x2="260.96" y2="126.88"/><line class="cls-12" x1="262.19" y1="125.78" x2="262.19" y2="125.65"/><line class="cls-12" x1="263.3" y1="124.67" x2="263.55" y2="124.42"/><line class="cls-12" x1="253.45" y1="143.62" x2="257.51" y2="139.56"/><line class="cls-12" x1="258.75" y1="138.33" x2="258.75" y2="138.33"/><line class="cls-12" x1="259.85" y1="137.22" x2="263.55" y2="133.53"/><line class="cls-12" x1="253.45" y1="152.73" x2="254.19" y2="152.12"/><line class="cls-12" x1="255.3" y1="151.01" x2="255.42" y2="150.89"/><line class="cls-12" x1="256.41" y1="149.78" x2="262.19" y2="144.12"/><line class="cls-12" x1="263.3" y1="143.01" x2="263.42" y2="142.88"/><line class="cls-12" x1="253.45" y1="161.96" x2="258.75" y2="156.67"/><line class="cls-12" x1="259.85" y1="155.56" x2="259.98" y2="155.44"/><line class="cls-12" x1="260.96" y1="154.46" x2="263.55" y2="151.87"/><line class="cls-12" x1="253.45" y1="171.07" x2="255.3" y2="169.23"/><line class="cls-12" x1="256.41" y1="168.12" x2="256.53" y2="168"/><line class="cls-12" x1="257.51" y1="167.01" x2="263.3" y2="161.23"/><line class="cls-12" x1="254.19" y1="179.57" x2="259.85" y2="173.9"/><line class="cls-12" x1="260.96" y1="172.67" x2="261.08" y2="172.67"/><line class="cls-12" x1="262.19" y1="171.57" x2="263.55" y2="170.21"/><line class="cls-12" x1="253.45" y1="189.41" x2="256.41" y2="186.46"/><line class="cls-12" x1="257.51" y1="185.35" x2="257.64" y2="185.23"/><line class="cls-12" x1="258.75" y1="184.12" x2="263.55" y2="179.32"/><line class="cls-12" x1="254.19" y1="197.91" x2="254.19" y2="197.78"/><line class="cls-12" x1="255.3" y1="196.8" x2="260.96" y2="191.01"/><line class="cls-12" x1="262.19" y1="189.91" x2="262.19" y2="189.78"/><line class="cls-12" x1="263.3" y1="188.8" x2="263.55" y2="188.55"/><line class="cls-12" x1="253.45" y1="207.75" x2="257.51" y2="203.57"/><line class="cls-12" x1="258.75" y1="202.46" x2="258.75" y2="202.34"/><line class="cls-12" x1="259.85" y1="201.35" x2="263.55" y2="197.66"/><line class="cls-12" x1="253.45" y1="216.86" x2="254.19" y2="216.25"/><line class="cls-12" x1="255.3" y1="215.02" x2="255.42" y2="215.02"/><line class="cls-12" x1="256.41" y1="213.91" x2="262.19" y2="208.25"/><line class="cls-12" x1="263.3" y1="207.02" x2="263.42" y2="207.02"/><line class="cls-12" x1="253.45" y1="225.97" x2="258.75" y2="220.8"/><line class="cls-12" x1="259.85" y1="219.69" x2="259.98" y2="219.57"/><line class="cls-12" x1="260.96" y1="218.46" x2="263.55" y2="216"/><line class="cls-12" x1="253.45" y1="235.2" x2="255.3" y2="233.36"/><line class="cls-12" x1="256.41" y1="232.25" x2="256.53" y2="232.13"/><line class="cls-12" x1="257.51" y1="231.14" x2="263.3" y2="225.36"/><line class="cls-12" x1="254.19" y1="243.7" x2="259.85" y2="237.91"/><line class="cls-12" x1="260.96" y1="236.8" x2="261.08" y2="236.68"/><line class="cls-12" x1="262.19" y1="235.7" x2="263.55" y2="234.34"/><line class="cls-12" x1="253.45" y1="253.54" x2="256.41" y2="250.59"/><line class="cls-12" x1="257.51" y1="249.36" x2="257.64" y2="249.36"/><line class="cls-12" x1="258.75" y1="248.25" x2="263.55" y2="243.45"/><line class="cls-12" x1="254.19" y1="262.04" x2="254.19" y2="261.91"/><line class="cls-12" x1="255.3" y1="260.93" x2="260.96" y2="255.14"/><line class="cls-12" x1="262.19" y1="254.04" x2="262.19" y2="253.91"/><line class="cls-12" x1="263.3" y1="252.81" x2="263.55" y2="252.56"/><line class="cls-12" x1="253.45" y1="271.76" x2="257.51" y2="267.7"/><line class="cls-12" x1="258.75" y1="266.59" x2="258.75" y2="266.47"/><line class="cls-12" x1="259.85" y1="265.48" x2="263.55" y2="261.79"/><line class="cls-12" x1="253.45" y1="280.99" x2="254.19" y2="280.38"/><line class="cls-12" x1="255.3" y1="279.15" x2="255.42" y2="279.15"/><line class="cls-12" x1="256.41" y1="278.04" x2="262.19" y2="272.38"/><line class="cls-12" x1="263.3" y1="271.15" x2="263.42" y2="271.02"/><line class="cls-12" x1="253.45" y1="290.1" x2="258.75" y2="284.93"/><line class="cls-12" x1="259.85" y1="283.82" x2="259.98" y2="283.7"/><line class="cls-12" x1="260.96" y1="282.59" x2="263.55" y2="280.13"/><line class="cls-12" x1="253.45" y1="299.33" x2="255.3" y2="297.49"/><line class="cls-12" x1="256.41" y1="296.38" x2="256.53" y2="296.26"/><line class="cls-12" x1="257.51" y1="295.27" x2="263.3" y2="289.49"/><line class="cls-12" x1="254.19" y1="307.83" x2="259.85" y2="302.04"/><line class="cls-12" x1="260.96" y1="300.93" x2="261.08" y2="300.81"/><line class="cls-12" x1="262.19" y1="299.83" x2="263.55" y2="298.47"/><line class="cls-12" x1="253.45" y1="317.55" x2="256.41" y2="314.72"/><line class="cls-12" x1="257.51" y1="313.49" x2="257.64" y2="313.49"/><line class="cls-12" x1="258.75" y1="312.38" x2="263.55" y2="307.58"/><line class="cls-12" x1="254.19" y1="326.17" x2="254.19" y2="326.04"/><line class="cls-12" x1="255.3" y1="324.94" x2="260.96" y2="319.27"/><line class="cls-12" x1="262.19" y1="318.17" x2="262.19" y2="318.04"/><line class="cls-12" x1="263.3" y1="316.94" x2="263.55" y2="316.69"/><line class="cls-12" x1="254.19" y1="335.28" x2="257.51" y2="331.83"/><line class="cls-12" x1="258.75" y1="330.72" x2="258.75" y2="330.6"/><line class="cls-12" x1="259.85" y1="329.61" x2="263.55" y2="325.92"/><line class="cls-12" x1="263.3" y1="335.28" x2="263.42" y2="335.15"/><polyline class="cls-12" points="263.55 335.28 263.55 325.18 263.55 324.44"/><line class="cls-12" x1="263.55" y1="324.44" x2="263.55" y2="242.71"/><polyline class="cls-12" points="263.55 273.88 263.55 54.14 253.45 54.14 253.45 230.28"/><line class="cls-12" x1="253.45" y1="242.71" x2="253.45" y2="324.44"/><polyline class="cls-12" points="253.45 324.44 253.45 325.18 253.45 335.28 263.55 335.28"/><line class="cls-12" x1="229.45" y1="222.65" x2="229.45" y2="230.28"/><polyline class="cls-12" points="193.26 242.71 229.45 242.71 193.26 242.71 193.26 222.65 229.45 222.65 229.45 230.28"/><polyline class="cls-12" points="229.45 222.65 193.26 222.65 193.26 242.71"/><polyline class="cls-12" points="229.45 222.65 193.26 222.65 193.26 242.71"/><line class="cls-12" x1="82.85" y1="335.28" x2="82.85" y2="332.08"/><line class="cls-12" x1="82.85" y1="329.24" x2="82.85" y2="325.18"/><line class="cls-12" x1="124.95" y1="325.18" x2="124.95" y2="329.24"/><line class="cls-12" x1="124.95" y1="332.08" x2="124.95" y2="335.28"/><line class="cls-12" x1="82.85" y1="335.28" x2="10.59" y2="335.28"/><line class="cls-12" x1="10.59" y1="335.28" x2="0.5" y2="335.28"/><line class="cls-12" x1="263.55" y1="335.28" x2="253.45" y2="335.28"/><line class="cls-12" x1="253.45" y1="335.28" x2="124.95" y2="335.28"/><line class="cls-12" x1="253.45" y1="335.28" x2="253.45" y2="324.44"/><line class="cls-12" x1="253.45" y1="325.18" x2="124.95" y2="325.18"/><line class="cls-12" x1="0.5" y1="335.28" x2="0.5" y2="324.44"/><line class="cls-12" x1="82.85" y1="325.18" x2="10.59" y2="325.18"/><line class="cls-12" x1="10.59" y1="324.44" x2="10.59" y2="335.28"/><line class="cls-12" x1="263.55" y1="324.44" x2="263.55" y2="335.28"/><line class="cls-12" x1="163.1" y1="235.08" x2="163.1" y2="238.28"/><line class="cls-12" x1="118.18" y1="235.08" x2="118.18" y2="238.28"/><line class="cls-12" x1="130.98" y1="238.28" x2="130.98" y2="235.08"/><line class="cls-12" x1="64.38" y1="235.08" x2="64.38" y2="238.28"/><line class="cls-12" x1="86.05" y1="238.28" x2="86.05" y2="235.08"/><line class="cls-12" x1="10.59" y1="235.08" x2="10.59" y2="238.28"/><line class="cls-12" x1="32.26" y1="238.28" x2="32.26" y2="235.08"/><line class="cls-12" x1="163.1" y1="235.08" x2="193.26" y2="235.08"/><line class="cls-12" x1="126.18" y1="235.08" x2="130.98" y2="235.08"/><line class="cls-12" x1="10.59" y1="235.08" x2="32.26" y2="235.08"/><line class="cls-12" x1="64.38" y1="235.08" x2="86.05" y2="235.08"/><line class="cls-12" x1="118.18" y1="235.08" x2="122.98" y2="235.08"/><line class="cls-12" x1="163.1" y1="238.28" x2="174.43" y2="238.28"/><line class="cls-12" x1="118.18" y1="238.28" x2="130.98" y2="238.28"/><line class="cls-12" x1="64.38" y1="238.28" x2="71.65" y2="238.28"/><line class="cls-12" x1="74.85" y1="238.28" x2="86.05" y2="238.28"/><line class="cls-12" x1="10.59" y1="238.28" x2="32.26" y2="238.28"/><line class="cls-12" x1="71.65" y1="325.18" x2="74.85" y2="325.18"/><line class="cls-12" x1="71.65" y1="325.18" x2="71.65" y2="238.28"/><line class="cls-12" x1="74.85" y1="325.18" x2="74.85" y2="238.28"/><line class="cls-12" x1="122.98" y1="64.23" x2="122.98" y2="235.08"/><line class="cls-12" x1="126.18" y1="235.08" x2="126.18" y2="64.23"/><line class="cls-12" x1="0.5" y1="238.28" x2="0.5" y2="235.08"/><line class="cls-12" x1="174.43" y1="262.16" x2="179.23" y2="262.16"/><line class="cls-12" x1="174.43" y1="325.18" x2="179.23" y2="325.18"/><line class="cls-12" x1="179.23" y1="294.29" x2="174.43" y2="294.29"/><line class="cls-12" x1="174.43" y1="262.16" x2="174.43" y2="235.08"/><line class="cls-12" x1="174.43" y1="325.18" x2="174.43" y2="294.29"/><line class="cls-12" x1="179.23" y1="262.16" x2="179.23" y2="239.88"/><line class="cls-12" x1="179.23" y1="325.18" x2="179.23" y2="294.29"/><line class="cls-12" x1="253.45" y1="230.28" x2="253.45" y2="225.48"/><line class="cls-12" x1="229.45" y1="225.48" x2="253.45" y2="225.48"/><line class="cls-12" x1="179.23" y1="239.88" x2="193.26" y2="239.88"/><polyline class="cls-12" points="32.63 56.72 32.63 66.2 104.88 66.2 104.88 56.72"/><line class="cls-13" x1="33.61" y1="52.78" x2="32.63" y2="52.78"/><polyline class="cls-13" points="32.63 55.86 33.61 55.86 33.61 52.78"/><polyline class="cls-13" points="104.88 52.78 103.9 52.78 103.9 55.86 104.88 55.86"/><polyline class="cls-13" points="57.62 55.86 57.62 53.27 58.11 53.27 58.11 52.78 55.4 52.78 55.4 53.27 56.14 53.27 56.14 55.86 57.62 55.86"/><line class="cls-13" x1="55.89" y1="53.27" x2="55.89" y2="53.4"/><line class="cls-13" x1="56.01" y1="55.86" x2="56.14" y2="55.86"/><polyline class="cls-13" points="99.71 54.26 100.57 54.26 100.57 55.12 99.71 55.12 99.71 56.6 102.54 56.6 102.54 55.98 101.8 55.98 101.8 53.4 99.71 53.4 99.71 54.26"/><polyline class="cls-13" points="58.72 54.26 59.46 54.26 59.46 53.4 57.49 53.4 57.49 55.98 56.75 55.98 56.75 56.6 59.46 56.6 59.46 55.12 58.72 55.12 58.72 54.26"/><line class="cls-13" x1="59.46" y1="54.26" x2="99.71" y2="54.26"/><line class="cls-13" x1="99.71" y1="53.4" x2="59.46" y2="53.4"/><line class="cls-13" x1="99.71" y1="55.12" x2="59.46" y2="55.12"/><line class="cls-13" x1="59.46" y1="56.6" x2="99.71" y2="56.6"/><polyline class="cls-13" points="103.9 52.78 101.07 52.78 101.07 53.27 101.93 53.27 101.93 55.86 103.9 55.86 103.9 52.78"/><polyline class="cls-13" points="33.61 52.78 33.61 55.86 35.7 55.86 35.7 53.27 36.44 53.27 36.44 52.78 33.61 52.78"/><line class="cls-13" x1="101.07" y1="52.78" x2="58.11" y2="52.78"/><line class="cls-13" x1="55.4" y1="52.78" x2="36.44" y2="52.78"/><line class="cls-13" x1="35.7" y1="55.86" x2="35.83" y2="55.86"/><line class="cls-13" x1="101.8" y1="55.86" x2="101.93" y2="55.86"/><line class="cls-13" x1="36.44" y1="53.27" x2="55.4" y2="53.27"/><line class="cls-13" x1="58.11" y1="53.27" x2="101.07" y2="53.27"/><polyline class="cls-13" points="37.06 55.12 37.06 54.26 37.8 54.26 37.8 53.4 35.83 53.4 35.83 55.98 35.09 55.98 35.09 56.6 37.8 56.6 37.8 55.12 37.06 55.12"/><polyline class="cls-13" points="54.78 54.26 54.78 55.12 53.92 55.12 53.92 56.6 56.75 56.6 56.75 55.98 56.01 55.98 56.01 53.4 53.92 53.4 53.92 54.26 54.78 54.26"/><line class="cls-13" x1="37.8" y1="54.26" x2="53.92" y2="54.26"/><line class="cls-13" x1="53.92" y1="55.12" x2="37.8" y2="55.12"/><line class="cls-13" x1="37.8" y1="56.6" x2="53.92" y2="56.6"/><line class="cls-13" x1="53.92" y1="53.4" x2="37.8" y2="53.4"/><polyline class="cls-12" points="159.16 56.72 159.16 66.2 231.42 66.2 231.42 56.72"/><line class="cls-13" x1="160.15" y1="52.78" x2="159.16" y2="52.78"/><polyline class="cls-13" points="159.16 55.86 160.15 55.86 160.15 52.78"/><polyline class="cls-13" points="231.42 52.78 230.44 52.78 230.44 55.86 231.42 55.86"/><polyline class="cls-13" points="208.16 55.86 208.16 53.27 208.77 53.27 208.77 52.78 205.94 52.78 205.94 53.27 206.68 53.27 206.68 55.86 208.16 55.86"/><line class="cls-13" x1="206.43" y1="53.27" x2="206.43" y2="53.4"/><line class="cls-13" x1="206.55" y1="55.86" x2="206.68" y2="55.86"/><polyline class="cls-13" points="226.25 54.26 226.99 54.26 226.99 55.12 226.25 55.12 226.25 56.6 229.08 56.6 229.08 55.98 228.22 55.98 228.22 53.4 226.25 53.4 226.25 54.26"/><polyline class="cls-13" points="209.26 54.26 210.12 54.26 210.12 53.4 208.03 53.4 208.03 55.98 207.29 55.98 207.29 56.6 210.12 56.6 210.12 55.12 209.26 55.12 209.26 54.26"/><line class="cls-13" x1="210.12" y1="54.26" x2="226.25" y2="54.26"/><line class="cls-13" x1="226.25" y1="53.4" x2="210.12" y2="53.4"/><line class="cls-13" x1="226.25" y1="55.12" x2="210.12" y2="55.12"/><line class="cls-13" x1="210.12" y1="56.6" x2="226.25" y2="56.6"/><polyline class="cls-13" points="160.15 52.78 160.15 55.86 162.12 55.86 162.12 53.27 162.98 53.27 162.98 52.78 160.15 52.78"/><polyline class="cls-13" points="230.44 52.78 227.6 52.78 227.6 53.27 228.34 53.27 228.34 55.86 230.44 55.86 230.44 52.78"/><line class="cls-13" x1="227.6" y1="52.78" x2="208.77" y2="52.78"/><line class="cls-13" x1="205.94" y1="52.78" x2="162.98" y2="52.78"/><line class="cls-13" x1="162.12" y1="55.86" x2="162.37" y2="55.86"/><line class="cls-13" x1="228.22" y1="55.86" x2="228.34" y2="55.86"/><line class="cls-13" x1="162.98" y1="53.27" x2="205.94" y2="53.27"/><line class="cls-13" x1="208.77" y1="53.27" x2="227.6" y2="53.27"/><polyline class="cls-13" points="163.47 55.12 163.47 54.26 164.33 54.26 164.33 53.4 162.37 53.4 162.37 55.98 161.5 55.98 161.5 56.6 164.33 56.6 164.33 55.12 163.47 55.12"/><polyline class="cls-13" points="205.32 54.26 205.32 55.12 204.59 55.12 204.59 56.6 207.29 56.6 207.29 55.98 206.56 55.98 206.56 53.4 204.59 53.4 204.59 54.26 205.32 54.26"/><line class="cls-13" x1="164.33" y1="54.26" x2="204.59" y2="54.26"/><line class="cls-13" x1="204.59" y1="55.12" x2="164.33" y2="55.12"/><line class="cls-13" x1="164.33" y1="56.6" x2="204.59" y2="56.6"/><line class="cls-13" x1="204.59" y1="53.4" x2="164.33" y2="53.4"/><polyline class="cls-13" points="118.55 311.77 85.8 330.6 85.06 329.25 117.68 310.29 118.55 311.77"/><polyline class="cls-12" points="83.71 329.25 85.06 329.25 85.06 330.85 85.43 330.85 85.43 332.08 83.71 332.08 83.71 329.25"/><polyline class="cls-12" points="122.36 332.08 122.36 330.85 122.85 330.85 122.85 329.25 124.21 329.25 124.21 332.08 122.36 332.08"/></svg>