<svg id="_35_1" data-name="35_1" xmlns="http://www.w3.org/2000/svg" xmlns:xlink="http://www.w3.org/1999/xlink" viewBox="0 0 310.1 742.9"><defs><style>.cls-1,.cls-2,.cls-4,.cls-46,.cls-5,.cls-50,.cls-6{fill:none;stroke-linecap:round;stroke-linejoin:round;}.cls-1,.cls-46,.cls-5,.cls-50,.cls-6{stroke:#000;}.cls-1,.cls-5,.cls-6{stroke-width:0.7px;}.cls-1{clip-rule:evenodd;}.cls-2{stroke:#999;stroke-width:0.75px;}.cls-3{isolation:isolate;font-size:12px;fill:#999;}.cls-3,.cls-45,.cls-47,.cls-49{font-family:PTSans-Regular, PT Sans;}.cls-4{stroke:#969696;stroke-width:0.5px;stroke-dasharray:10 10;}.cls-36,.cls-6{fill-rule:evenodd;}.cls-7{clip-path:url(#clip-path);}.cls-8{clip-path:url(#clip-path-2);}.cls-9{clip-path:url(#clip-path-3);}.cls-10{clip-path:url(#clip-path-4);}.cls-11{clip-path:url(#clip-path-5);}.cls-12{clip-path:url(#clip-path-6);}.cls-13{clip-path:url(#clip-path-7);}.cls-14{clip-path:url(#clip-path-8);}.cls-15{clip-path:url(#clip-path-9);}.cls-16{clip-path:url(#clip-path-10);}.cls-17{clip-path:url(#clip-path-11);}.cls-18{clip-path:url(#clip-path-12);}.cls-19{clip-path:url(#clip-path-13);}.cls-20{clip-path:url(#clip-path-14);}.cls-21{clip-path:url(#clip-path-15);}.cls-22{clip-path:url(#clip-path-16);}.cls-23{clip-path:url(#clip-path-17);}.cls-24{clip-path:url(#clip-path-18);}.cls-25{clip-path:url(#clip-path-19);}.cls-26{clip-path:url(#clip-path-20);}.cls-27{clip-path:url(#clip-path-21);}.cls-28{clip-path:url(#clip-path-22);}.cls-29{clip-path:url(#clip-path-23);}.cls-30{clip-path:url(#clip-path-24);}.cls-31{clip-path:url(#clip-path-25);}.cls-32{clip-path:url(#clip-path-26);}.cls-33{clip-path:url(#clip-path-27);}.cls-34{clip-path:url(#clip-path-28);}.cls-35{clip-path:url(#clip-path-29);}.cls-37{clip-path:url(#clip-path-30);}.cls-38{clip-path:url(#clip-path-31);}.cls-39{clip-path:url(#clip-path-32);}.cls-40{clip-path:url(#clip-path-33);}.cls-41{clip-path:url(#clip-path-34);}.cls-42{clip-path:url(#clip-path-35);}.cls-43{clip-path:url(#clip-path-36);}.cls-44{clip-path:url(#clip-path-37);}.cls-45{font-size:22px;}.cls-47{font-size:16px;}.cls-48{fill:#fff;}.cls-49{font-size:24px;}.cls-50{stroke-width:0.74px;}</style><clipPath id="clip-path" transform="translate(0 -28.34)"><polyline class="cls-1" points="14.1 124.58 14.1 138.33 27.85 138.33 27.85 128.01 27.85 124.58 14.1 124.58"/></clipPath><clipPath id="clip-path-2" transform="translate(0 -28.34)"><polyline class="cls-1" points="158.49 128.01 158.49 138.33 220.23 138.33 220.23 128.01 220.23 124.58 158.49 124.58 158.49 128.01"/></clipPath><clipPath id="clip-path-3" transform="translate(0 -28.34)"><polyline class="cls-1" points="282.11 124.58 282.11 128.01 282.11 138.33 296 138.33 296 124.58 282.11 124.58"/></clipPath><clipPath id="clip-path-4" transform="translate(0 -28.34)"><polyline class="cls-1" points="14.1 124.58 27.85 124.58 31.29 124.58 31.29 114.26 14.1 114.26 14.1 124.58"/></clipPath><clipPath id="clip-path-5" transform="translate(0 -28.34)"><polyline class="cls-1" points="155.05 114.26 155.05 124.58 158.49 124.58 220.23 124.58 223.67 124.58 223.67 114.26 155.05 114.26"/></clipPath><clipPath id="clip-path-6" transform="translate(0 -28.34)"><polyline class="cls-1" points="296 114.26 278.67 114.26 278.67 124.58 282.11 124.58 296 124.58 296 114.26"/></clipPath><clipPath id="clip-path-7" transform="translate(0 -28.34)"><polyline class="cls-1" points="309.75 114.26 296 114.26 296 124.58 309.75 124.58 309.75 114.26"/></clipPath><clipPath id="clip-path-8" transform="translate(0 -28.34)"><polyline class="cls-1" points="14.1 114.26 0.35 114.26 0.35 124.58 14.1 124.58 14.1 114.26"/></clipPath><clipPath id="clip-path-9" transform="translate(0 -28.34)"><polyline class="cls-1" points="179.12 739.94 162.34 739.94 176.09 753.69 179.12 753.69 179.12 739.94"/></clipPath><clipPath id="clip-path-10" transform="translate(0 -28.34)"><polyline class="cls-1" points="184.62 739.94 179.12 739.94 179.12 753.69 184.62 753.69 184.62 739.94"/></clipPath><clipPath id="clip-path-11" transform="translate(0 -28.34)"><polyline class="cls-1" points="184.62 753.69 296 753.69 296 739.94 184.62 739.94 184.62 753.69"/></clipPath><clipPath id="clip-path-12" transform="translate(0 -28.34)"><polyline class="cls-1" points="93.58 757.13 93.58 743.38 79.83 757.13 79.83 770.88 93.58 757.13"/></clipPath><clipPath id="clip-path-13" transform="translate(0 -28.34)"><polyline class="cls-1" points="14.1 757.13 79.83 757.13 93.58 743.38 14.1 743.38 14.1 757.13"/></clipPath><clipPath id="clip-path-14" transform="translate(0 -28.34)"><polyline class="cls-1" points="79.83 770.88 93.58 770.88 93.58 765.04 93.58 757.13 79.83 770.88"/></clipPath><clipPath id="clip-path-15" transform="translate(0 -28.34)"><polyline class="cls-1" points="176.09 770.88 176.09 753.69 162.34 739.94 162.34 770.88 176.09 770.88"/></clipPath><clipPath id="clip-path-16" transform="translate(0 -28.34)"><polyline class="cls-1" points="14.1 158.95 0.35 158.95 0.35 323.97 14.1 323.97 14.1 158.95"/></clipPath><clipPath id="clip-path-17" transform="translate(0 -28.34)"><polyline class="cls-1" points="14.1 358.35 0.35 358.35 0.35 537.11 14.1 537.11 14.1 358.35"/></clipPath><clipPath id="clip-path-18" transform="translate(0 -28.34)"><polyline class="cls-1" points="14.1 571.49 0.35 571.49 0.35 722.75 14.1 722.75 14.1 571.49"/></clipPath><clipPath id="clip-path-19" transform="translate(0 -28.34)"><polyline class="cls-1" points="296 590.07 296 722.75 309.75 722.75 309.75 590.07 296 590.07"/></clipPath><clipPath id="clip-path-20" transform="translate(0 -28.34)"><polyline class="cls-1" points="296 584.57 296 590.07 309.75 590.07 309.75 584.57 296 584.57"/></clipPath><clipPath id="clip-path-21" transform="translate(0 -28.34)"><polyline class="cls-1" points="309.75 584.57 309.75 571.49 296 571.49 296 584.57 309.75 584.57"/></clipPath><clipPath id="clip-path-22" transform="translate(0 -28.34)"><polyline class="cls-1" points="309.75 537.11 309.75 358.35 296 358.35 296 537.11 309.75 537.11"/></clipPath><clipPath id="clip-path-23" transform="translate(0 -28.34)"><polyline class="cls-1" points="309.75 323.97 309.75 158.95 296 158.95 296 323.97 309.75 323.97"/></clipPath><clipPath id="clip-path-24" transform="translate(0 -28.34)"><polyline class="cls-1" points="213.01 560.53 271.25 560.53 276.75 555.03 207.51 555.03 213.01 560.53"/></clipPath><clipPath id="clip-path-25" transform="translate(0 -28.34)"><polyline class="cls-1" points="207.51 590.07 276.75 590.07 271.25 584.57 213.01 584.57 207.51 590.07"/></clipPath><clipPath id="clip-path-26" transform="translate(0 -28.34)"><polyline class="cls-1" points="276.75 590.07 276.75 555.03 271.25 560.53 271.25 584.57 276.75 590.07"/></clipPath><clipPath id="clip-path-27" transform="translate(0 -28.34)"><polyline class="cls-1" points="213.01 584.57 213.01 560.53 207.51 555.03 207.51 590.07 213.01 584.57"/></clipPath><clipPath id="clip-path-28" transform="translate(0 -28.34)"><polyline class="cls-1" points="296 584.57 276.75 584.57 276.75 590.07 296 590.07 296 584.57"/></clipPath><clipPath id="clip-path-29" transform="translate(0 -28.34)"><polyline class="cls-1" points="184.62 590.07 207.51 590.07 207.51 584.57 179.12 584.57 184.62 590.07"/></clipPath><clipPath id="clip-path-30" transform="translate(0 -28.34)"><polyline class="cls-1" points="296 158.95 309.75 158.95 309.75 124.58 296 124.58 296 158.95"/></clipPath><clipPath id="clip-path-31" transform="translate(0 -28.34)"><polyline class="cls-1" points="296 358.35 309.75 358.35 309.75 323.97 296 323.97 296 358.35"/></clipPath><clipPath id="clip-path-32" transform="translate(0 -28.34)"><polyline class="cls-1" points="296 757.13 309.75 757.13 309.75 722.75 296 722.75 296 757.13"/></clipPath><clipPath id="clip-path-33" transform="translate(0 -28.34)"><polyline class="cls-1" points="296 571.49 309.75 571.49 309.75 537.11 296 537.11 296 571.49"/></clipPath><clipPath id="clip-path-34" transform="translate(0 -28.34)"><polyline class="cls-1" points="0.35 757.13 14.1 757.13 14.1 722.75 0.35 722.75 0.35 757.13"/></clipPath><clipPath id="clip-path-35" transform="translate(0 -28.34)"><polyline class="cls-1" points="0.35 571.49 14.1 571.49 14.1 537.11 0.35 537.11 0.35 571.49"/></clipPath><clipPath id="clip-path-36" transform="translate(0 -28.34)"><polyline class="cls-1" points="0.35 358.35 14.1 358.35 14.1 323.97 0.35 323.97 0.35 358.35"/></clipPath><clipPath id="clip-path-37" transform="translate(0 -28.34)"><polyline class="cls-1" points="0.35 158.95 14.1 158.95 14.1 124.58 0.35 124.58 0.35 158.95"/></clipPath></defs><title>4floor_35_1flat</title><line class="cls-2" x1="139.34" y1="10.8" x2="139.34" y2="2"/><polyline class="cls-2" points="142.94 5.3 139.44 1.8 135.94 5.3"/><text class="cls-3" transform="translate(148.76 10.2)">двор</text><line class="cls-4" x1="14.1" y1="557.61" x2="296" y2="109.99"/><line class="cls-4" x1="296" y1="526.69" x2="14.1" y2="109.99"/><line class="cls-4" x1="296" y1="711.61" x2="184.62" y2="561.73"/><line class="cls-4" x1="179.12" y1="561.73" x2="14.1" y2="715.04"/><line class="cls-4" x1="14.1" y1="564.48" x2="179.12" y2="711.61"/><line class="cls-4" x1="184.62" y1="711.61" x2="296" y2="564.48"/><line class="cls-5" x1="1.36" y1="96.24" x2="305.83" y2="96.24"/><polyline class="cls-6" points="155.05 40.54 154.78 40.81 31.57 40.81 31.29 40.54 155.05 40.54"/><line class="cls-5" x1="155.05" y1="40.54" x2="31.29" y2="40.54"/><line class="cls-5" x1="31.57" y1="40.81" x2="154.78" y2="40.81"/><polyline class="cls-6" points="31.57 85.24 31.29 85.24 31.29 40.54 31.57 40.81 31.57 85.24"/><line class="cls-5" x1="31.57" y1="85.24" x2="31.57" y2="40.81"/><line class="cls-5" x1="31.29" y1="40.54" x2="31.29" y2="85.23"/><line class="cls-5" x1="31.29" y1="85.24" x2="31.57" y2="85.24"/><polyline class="cls-6" points="155.05 85.24 154.78 85.24 154.78 40.81 155.05 40.54 155.05 85.24"/><line class="cls-5" x1="155.05" y1="85.24" x2="155.05" y2="40.54"/><line class="cls-5" x1="154.78" y1="40.81" x2="154.78" y2="85.23"/><line class="cls-5" x1="154.78" y1="85.24" x2="155.05" y2="85.24"/><polyline class="cls-6" points="0.35 96.24 0.35 96.24 0.35 109.99 0.35 109.99"/><line class="cls-5" x1="0.35" y1="107.5" x2="0.35" y2="107.5"/><line class="cls-5" x1="0.35" y1="99.25" x2="0.35" y2="99.25"/><line class="cls-5" x1="0.35" y1="105.51" x2="0.35" y2="105.51"/><line class="cls-5" x1="0.35" y1="101.14" x2="0.35" y2="101.14"/><polyline class="cls-6" points="0.35 109.99 0.35 109.99 0.35 96.24 0.35 96.24"/><polyline class="cls-6" points="0.35 85.24 0.35 85.24 0.35 85.92 0.35 85.92"/><line class="cls-5" x1="0.35" y1="85.92" x2="0.35" y2="85.92"/><polyline class="cls-6" points="0.35 85.92 0.35 96.24 0.35 96.24"/><line class="cls-5" x1="0.35" y1="95.12" x2="0.35" y2="91.68"/><line class="cls-5" x1="0.35" y1="89.97" x2="0.35" y2="86.53"/><line class="cls-5" x1="0.35" y1="89.97" x2="0.35" y2="86.53"/><line class="cls-5" x1="0.35" y1="86.53" x2="0.35" y2="85.92"/><line class="cls-5" x1="0.35" y1="91.68" x2="0.35" y2="89.97"/><line class="cls-5" x1="0.35" y1="96.24" x2="0.35" y2="95.12"/><line class="cls-5" x1="0.35" y1="90.39" x2="0.35" y2="89.97"/><line class="cls-5" x1="0.35" y1="86.53" x2="0.35" y2="85.92"/><line class="cls-5" x1="0.35" y1="96.24" x2="0.35" y2="95.12"/><line class="cls-5" x1="0.35" y1="86.1" x2="0.35" y2="86.53"/><line class="cls-5" x1="0.35" y1="89.97" x2="0.35" y2="91.68"/><line class="cls-5" x1="0.35" y1="95.12" x2="0.35" y2="96.24"/><line class="cls-5" x1="0.35" y1="85.92" x2="0.35" y2="86.53"/><line class="cls-5" x1="0.35" y1="89.97" x2="0.35" y2="91.68"/><polyline class="cls-6" points="0.35 96.24 0.35 96.24 0.35 85.93"/><line class="cls-5" x1="0.35" y1="85.93" x2="0.35" y2="85.93"/><polyline class="cls-6" points="14.1 96.24 27.85 96.24 27.85 99.67 27.85 109.99 14.1 109.99 14.1 96.24"/><g class="cls-7"><line class="cls-5" x1="17.06" y1="107.5" x2="17.06" y2="107.5"/><line class="cls-5" x1="25.31" y1="107.5" x2="25.31" y2="107.5"/><line class="cls-5" x1="17.06" y1="99.25" x2="17.06" y2="99.25"/><line class="cls-5" x1="25.31" y1="99.25" x2="25.31" y2="99.25"/><line class="cls-5" x1="24.7" y1="106.97" x2="24.7" y2="106.97"/><line class="cls-5" x1="14.49" y1="105.51" x2="14.49" y2="105.51"/><line class="cls-5" x1="18.86" y1="101.14" x2="18.86" y2="101.14"/></g><polyline class="cls-6" points="14.1 96.24 14.1 109.99 27.85 109.99 27.85 99.68 27.85 96.24 14.1 96.24"/><polyline class="cls-6" points="158.49 99.67 158.49 96.24 220.23 96.24 220.23 99.67 220.23 109.99 158.49 109.99 158.49 99.67"/><g class="cls-8"><line class="cls-5" x1="177.95" y1="108.22" x2="182.07" y2="108.22"/><line class="cls-5" x1="202.7" y1="108.22" x2="206.82" y2="108.22"/><line class="cls-5" x1="202.7" y1="108.22" x2="204.76" y2="104.64"/><line class="cls-5" x1="177.95" y1="108.22" x2="180.01" y2="104.64"/><line class="cls-5" x1="182.07" y1="108.22" x2="180.01" y2="104.64"/><line class="cls-5" x1="206.82" y1="108.22" x2="204.76" y2="104.64"/><line class="cls-5" x1="161.45" y1="107.5" x2="161.45" y2="107.5"/><line class="cls-5" x1="169.7" y1="107.5" x2="169.7" y2="107.5"/><line class="cls-5" x1="182.07" y1="107.5" x2="182.07" y2="107.5"/><line class="cls-5" x1="190.32" y1="107.5" x2="190.32" y2="107.5"/><line class="cls-5" x1="202.7" y1="107.5" x2="202.7" y2="107.5"/><line class="cls-5" x1="210.95" y1="107.5" x2="210.95" y2="107.5"/><line class="cls-5" x1="161.45" y1="99.25" x2="161.45" y2="99.25"/><line class="cls-5" x1="169.7" y1="99.25" x2="169.7" y2="99.25"/><line class="cls-5" x1="182.07" y1="99.25" x2="182.07" y2="99.25"/><line class="cls-5" x1="190.32" y1="99.25" x2="190.32" y2="99.25"/><line class="cls-5" x1="202.7" y1="99.25" x2="202.7" y2="99.25"/><line class="cls-5" x1="210.95" y1="99.25" x2="210.95" y2="99.25"/><line class="cls-5" x1="211.39" y1="106.97" x2="211.39" y2="106.97"/><line class="cls-5" x1="218.68" y1="99.68" x2="218.68" y2="99.68"/><line class="cls-5" x1="201.18" y1="105.51" x2="201.18" y2="105.51"/><line class="cls-5" x1="205.55" y1="101.14" x2="205.55" y2="101.14"/><line class="cls-5" x1="188.05" y1="106.97" x2="188.05" y2="106.97"/><line class="cls-5" x1="195.34" y1="99.68" x2="195.34" y2="99.68"/><line class="cls-5" x1="177.84" y1="105.51" x2="177.84" y2="105.51"/><line class="cls-5" x1="182.22" y1="101.14" x2="182.22" y2="101.14"/><line class="cls-5" x1="164.71" y1="106.97" x2="164.71" y2="106.97"/><line class="cls-5" x1="172.01" y1="99.68" x2="172.01" y2="99.68"/><line class="cls-5" x1="158.88" y1="101.14" x2="158.88" y2="101.14"/></g><polyline class="cls-6" points="158.49 99.68 158.49 109.99 220.23 109.99 220.23 99.68 220.23 96.24 158.49 96.24 158.49 99.68"/><polyline class="cls-6" points="282.11 96.24 296 96.24 296 109.99 282.11 109.99 282.11 99.67 282.11 96.24"/><g class="cls-9"><line class="cls-5" x1="285.21" y1="107.5" x2="285.21" y2="107.5"/><line class="cls-5" x1="293.46" y1="107.5" x2="293.46" y2="107.5"/><line class="cls-5" x1="285.21" y1="99.25" x2="285.21" y2="99.25"/><line class="cls-5" x1="293.46" y1="99.25" x2="293.46" y2="99.25"/><line class="cls-5" x1="294.52" y1="105.51" x2="294.52" y2="105.51"/><line class="cls-5" x1="288.69" y1="99.68" x2="288.69" y2="99.68"/></g><polyline class="cls-6" points="282.11 96.24 282.11 99.68 282.11 109.99 296 109.99 296 96.24 282.11 96.24"/><polyline class="cls-6" points="14.1 85.92 14.1 85.24 31.29 85.24 31.29 85.92 14.1 85.92"/><polyline class="cls-6" points="223.67 85.24 223.67 85.92 155.05 85.92 155.05 85.24 223.67 85.24"/><polyline class="cls-6" points="278.67 85.24 296 85.24 296 85.92 278.67 85.92 278.67 85.24"/><polyline class="cls-6" points="14.1 96.24 14.1 85.92 31.29 85.92 31.29 96.24 27.85 96.24 14.1 96.24"/><g class="cls-10"><line class="cls-5" x1="26.41" y1="95.12" x2="26.41" y2="91.68"/><line class="cls-5" x1="20.45" y1="95.12" x2="20.45" y2="91.68"/><line class="cls-5" x1="14.5" y1="95.12" x2="14.5" y2="91.68"/><line class="cls-5" x1="29.39" y1="89.97" x2="29.39" y2="86.53"/><line class="cls-5" x1="23.43" y1="89.97" x2="23.43" y2="86.53"/><line class="cls-5" x1="17.48" y1="89.97" x2="17.48" y2="86.53"/><line class="cls-5" x1="31.29" y1="91.07" x2="29.39" y2="89.97"/><line class="cls-5" x1="23.43" y1="86.53" x2="22.39" y2="85.92"/><line class="cls-5" x1="28.34" y1="96.24" x2="26.41" y2="95.12"/><line class="cls-5" x1="20.45" y1="91.68" x2="17.48" y2="89.97"/><line class="cls-5" x1="16.43" y1="96.24" x2="14.5" y2="95.12"/><line class="cls-5" x1="29.39" y1="86.53" x2="28.34" y2="85.92"/><line class="cls-5" x1="26.41" y1="91.68" x2="23.43" y2="89.97"/><line class="cls-5" x1="17.48" y1="86.53" x2="16.43" y2="85.92"/><line class="cls-5" x1="22.39" y1="96.24" x2="20.45" y2="95.12"/><line class="cls-5" x1="14.5" y1="91.68" x2="14.1" y2="91.46"/><line class="cls-5" x1="24.48" y1="85.92" x2="23.43" y2="86.53"/><line class="cls-5" x1="17.48" y1="89.97" x2="14.5" y2="91.68"/><line class="cls-5" x1="29.39" y1="89.97" x2="26.41" y2="91.68"/><line class="cls-5" x1="20.45" y1="95.12" x2="18.52" y2="96.24"/><line class="cls-5" x1="31.29" y1="95.74" x2="30.43" y2="96.24"/><line class="cls-5" x1="18.52" y1="85.92" x2="17.48" y2="86.53"/><line class="cls-5" x1="30.43" y1="85.92" x2="29.39" y2="86.53"/><line class="cls-5" x1="23.43" y1="89.97" x2="20.45" y2="91.68"/><line class="cls-5" x1="14.5" y1="95.12" x2="14.1" y2="95.35"/><line class="cls-5" x1="26.41" y1="95.12" x2="24.48" y2="96.24"/></g><polyline class="cls-6" points="14.1 96.24 27.85 96.24 31.29 96.24 31.29 85.93 14.1 85.93 14.1 96.24"/><polyline class="cls-6" points="155.05 85.92 223.67 85.92 223.67 96.24 220.23 96.24 158.49 96.24 155.05 96.24 155.05 85.92"/><g class="cls-11"><line class="cls-5" x1="222.91" y1="95.12" x2="222.91" y2="91.68"/><line class="cls-5" x1="216.95" y1="95.12" x2="216.95" y2="91.68"/><line class="cls-5" x1="211" y1="95.12" x2="211" y2="91.68"/><line class="cls-5" x1="205.04" y1="95.12" x2="205.04" y2="91.68"/><line class="cls-5" x1="199.09" y1="95.12" x2="199.09" y2="91.68"/><line class="cls-5" x1="193.13" y1="95.12" x2="193.13" y2="91.68"/><line class="cls-5" x1="187.18" y1="95.12" x2="187.18" y2="91.68"/><line class="cls-5" x1="181.23" y1="95.12" x2="181.23" y2="91.68"/><line class="cls-5" x1="175.27" y1="95.12" x2="175.27" y2="91.68"/><line class="cls-5" x1="169.32" y1="95.12" x2="169.32" y2="91.68"/><line class="cls-5" x1="163.36" y1="95.12" x2="163.36" y2="91.68"/><line class="cls-5" x1="157.41" y1="95.12" x2="157.41" y2="91.68"/><line class="cls-5" x1="219.93" y1="89.97" x2="219.93" y2="86.53"/><line class="cls-5" x1="213.97" y1="89.97" x2="213.97" y2="86.53"/><line class="cls-5" x1="208.02" y1="89.97" x2="208.02" y2="86.53"/><line class="cls-5" x1="202.07" y1="89.97" x2="202.07" y2="86.53"/><line class="cls-5" x1="196.11" y1="89.97" x2="196.11" y2="86.53"/><line class="cls-5" x1="190.16" y1="89.97" x2="190.16" y2="86.53"/><line class="cls-5" x1="184.2" y1="89.97" x2="184.2" y2="86.53"/><line class="cls-5" x1="178.25" y1="89.97" x2="178.25" y2="86.53"/><line class="cls-5" x1="172.29" y1="89.97" x2="172.29" y2="86.53"/><line class="cls-5" x1="166.34" y1="89.97" x2="166.34" y2="86.53"/><line class="cls-5" x1="160.39" y1="89.97" x2="160.39" y2="86.53"/><line class="cls-5" x1="222.91" y1="91.68" x2="219.93" y2="89.97"/><line class="cls-5" x1="213.97" y1="86.53" x2="212.93" y2="85.92"/><line class="cls-5" x1="218.88" y1="96.24" x2="216.95" y2="95.12"/><line class="cls-5" x1="211" y1="91.68" x2="208.02" y2="89.97"/><line class="cls-5" x1="202.07" y1="86.53" x2="201.02" y2="85.92"/><line class="cls-5" x1="206.98" y1="96.24" x2="205.04" y2="95.12"/><line class="cls-5" x1="199.09" y1="91.68" x2="196.11" y2="89.97"/><line class="cls-5" x1="190.16" y1="86.53" x2="189.11" y2="85.92"/><line class="cls-5" x1="195.07" y1="96.24" x2="193.13" y2="95.12"/><line class="cls-5" x1="187.18" y1="91.68" x2="184.2" y2="89.97"/><line class="cls-5" x1="178.25" y1="86.53" x2="177.2" y2="85.92"/><line class="cls-5" x1="183.16" y1="96.24" x2="181.23" y2="95.12"/><line class="cls-5" x1="175.27" y1="91.68" x2="172.29" y2="89.97"/><line class="cls-5" x1="166.34" y1="86.53" x2="165.3" y2="85.92"/><line class="cls-5" x1="171.25" y1="96.24" x2="169.32" y2="95.12"/><line class="cls-5" x1="163.36" y1="91.68" x2="160.39" y2="89.97"/><line class="cls-5" x1="159.34" y1="96.24" x2="157.41" y2="95.12"/><line class="cls-5" x1="219.93" y1="86.53" x2="218.88" y2="85.92"/><line class="cls-5" x1="223.67" y1="95.56" x2="222.91" y2="95.12"/><line class="cls-5" x1="216.95" y1="91.68" x2="213.97" y2="89.97"/><line class="cls-5" x1="208.02" y1="86.53" x2="206.98" y2="85.92"/><line class="cls-5" x1="212.93" y1="96.24" x2="211" y2="95.12"/><line class="cls-5" x1="205.04" y1="91.68" x2="202.07" y2="89.97"/><line class="cls-5" x1="196.11" y1="86.53" x2="195.07" y2="85.92"/><line class="cls-5" x1="201.02" y1="96.24" x2="199.09" y2="95.12"/><line class="cls-5" x1="193.13" y1="91.68" x2="190.16" y2="89.97"/><line class="cls-5" x1="184.2" y1="86.53" x2="183.16" y2="85.92"/><line class="cls-5" x1="189.11" y1="96.24" x2="187.18" y2="95.12"/><line class="cls-5" x1="181.23" y1="91.68" x2="178.25" y2="89.97"/><line class="cls-5" x1="172.29" y1="86.53" x2="171.25" y2="85.92"/><line class="cls-5" x1="177.2" y1="96.24" x2="175.27" y2="95.12"/><line class="cls-5" x1="169.32" y1="91.68" x2="166.34" y2="89.97"/><line class="cls-5" x1="160.39" y1="86.53" x2="159.34" y2="85.92"/><line class="cls-5" x1="165.3" y1="96.24" x2="163.36" y2="95.12"/><line class="cls-5" x1="157.41" y1="91.68" x2="155.05" y2="90.32"/><line class="cls-5" x1="155.48" y1="85.92" x2="155.05" y2="86.16"/><line class="cls-5" x1="167.39" y1="85.92" x2="166.34" y2="86.53"/><line class="cls-5" x1="160.39" y1="89.97" x2="157.41" y2="91.68"/><line class="cls-5" x1="179.29" y1="85.92" x2="178.25" y2="86.53"/><line class="cls-5" x1="172.29" y1="89.97" x2="169.32" y2="91.68"/><line class="cls-5" x1="163.36" y1="95.12" x2="161.43" y2="96.24"/><line class="cls-5" x1="191.2" y1="85.92" x2="190.16" y2="86.53"/><line class="cls-5" x1="184.2" y1="89.97" x2="181.23" y2="91.68"/><line class="cls-5" x1="175.27" y1="95.12" x2="173.34" y2="96.24"/><line class="cls-5" x1="203.11" y1="85.92" x2="202.07" y2="86.53"/><line class="cls-5" x1="196.11" y1="89.97" x2="193.13" y2="91.68"/><line class="cls-5" x1="187.18" y1="95.12" x2="185.25" y2="96.24"/><line class="cls-5" x1="215.02" y1="85.92" x2="213.97" y2="86.53"/><line class="cls-5" x1="208.02" y1="89.97" x2="205.04" y2="91.68"/><line class="cls-5" x1="199.09" y1="95.12" x2="197.16" y2="96.24"/><line class="cls-5" x1="219.93" y1="89.97" x2="216.95" y2="91.68"/><line class="cls-5" x1="211" y1="95.12" x2="209.07" y2="96.24"/><line class="cls-5" x1="222.91" y1="95.12" x2="220.97" y2="96.24"/><line class="cls-5" x1="161.43" y1="85.92" x2="160.39" y2="86.53"/><line class="cls-5" x1="173.34" y1="85.92" x2="172.29" y2="86.53"/><line class="cls-5" x1="166.34" y1="89.97" x2="163.36" y2="91.68"/><line class="cls-5" x1="157.41" y1="95.12" x2="155.48" y2="96.24"/><line class="cls-5" x1="185.25" y1="85.92" x2="184.2" y2="86.53"/><line class="cls-5" x1="178.25" y1="89.97" x2="175.27" y2="91.68"/><line class="cls-5" x1="169.32" y1="95.12" x2="167.39" y2="96.24"/><line class="cls-5" x1="197.16" y1="85.92" x2="196.11" y2="86.53"/><line class="cls-5" x1="190.16" y1="89.97" x2="187.18" y2="91.68"/><line class="cls-5" x1="181.23" y1="95.12" x2="179.29" y2="96.24"/><line class="cls-5" x1="209.07" y1="85.92" x2="208.02" y2="86.53"/><line class="cls-5" x1="202.07" y1="89.97" x2="199.09" y2="91.68"/><line class="cls-5" x1="193.13" y1="95.12" x2="191.2" y2="96.24"/><line class="cls-5" x1="220.97" y1="85.92" x2="219.93" y2="86.53"/><line class="cls-5" x1="213.97" y1="89.97" x2="211" y2="91.68"/><line class="cls-5" x1="205.04" y1="95.12" x2="203.11" y2="96.24"/><line class="cls-5" x1="223.67" y1="91.24" x2="222.91" y2="91.68"/><line class="cls-5" x1="216.95" y1="95.12" x2="215.02" y2="96.24"/></g><polyline class="cls-6" points="155.05 85.93 155.05 96.24 158.49 96.24 220.23 96.24 223.67 96.24 223.67 85.93 155.05 85.93"/><polyline class="cls-6" points="296 85.92 296 96.24 282.11 96.24 278.67 96.24 278.67 85.92 296 85.92"/><g class="cls-12"><line class="cls-5" x1="294.36" y1="95.12" x2="294.36" y2="91.68"/><line class="cls-5" x1="288.4" y1="95.12" x2="288.4" y2="91.68"/><line class="cls-5" x1="282.45" y1="95.12" x2="282.45" y2="91.68"/><line class="cls-5" x1="291.38" y1="89.97" x2="291.38" y2="86.53"/><line class="cls-5" x1="285.43" y1="89.97" x2="285.43" y2="86.53"/><line class="cls-5" x1="279.47" y1="89.97" x2="279.47" y2="86.53"/><line class="cls-5" x1="294.36" y1="91.68" x2="291.38" y2="89.97"/><line class="cls-5" x1="285.43" y1="86.53" x2="284.38" y2="85.92"/><line class="cls-5" x1="290.33" y1="96.24" x2="288.4" y2="95.12"/><line class="cls-5" x1="282.45" y1="91.68" x2="279.47" y2="89.97"/><line class="cls-5" x1="291.38" y1="86.53" x2="290.33" y2="85.92"/><line class="cls-5" x1="296" y1="96.07" x2="294.36" y2="95.12"/><line class="cls-5" x1="288.4" y1="91.68" x2="285.43" y2="89.97"/><line class="cls-5" x1="279.47" y1="86.53" x2="278.67" y2="86.07"/><line class="cls-5" x1="284.38" y1="96.24" x2="282.45" y2="95.12"/><line class="cls-5" x1="286.47" y1="85.92" x2="285.43" y2="86.53"/><line class="cls-5" x1="279.47" y1="89.97" x2="278.67" y2="90.43"/><line class="cls-5" x1="291.38" y1="89.97" x2="288.4" y2="91.68"/><line class="cls-5" x1="282.45" y1="95.12" x2="280.52" y2="96.24"/><line class="cls-5" x1="294.36" y1="95.12" x2="292.42" y2="96.24"/><line class="cls-5" x1="280.52" y1="85.92" x2="279.47" y2="86.53"/><line class="cls-5" x1="292.42" y1="85.92" x2="291.38" y2="86.53"/><line class="cls-5" x1="285.43" y1="89.97" x2="282.45" y2="91.68"/><line class="cls-5" x1="296" y1="90.73" x2="294.36" y2="91.68"/><line class="cls-5" x1="288.4" y1="95.12" x2="286.47" y2="96.24"/></g><polyline class="cls-6" points="296 85.93 278.67 85.93 278.67 96.24 282.11 96.24 296 96.24 296 85.93"/><polyline class="cls-6" points="309.75 109.99 309.75 109.99 309.75 96.24"/><line class="cls-5" x1="309.75" y1="96.24" x2="309.75" y2="96.24"/><line class="cls-5" x1="309.75" y1="107.5" x2="309.75" y2="107.5"/><line class="cls-5" x1="309.75" y1="99.25" x2="309.75" y2="99.25"/><line class="cls-5" x1="309.75" y1="99.68" x2="309.75" y2="99.68"/><line class="cls-5" x1="309.75" y1="96.24" x2="309.75" y2="96.24"/><polyline class="cls-6" points="309.75 96.24 309.75 109.99 309.75 109.99"/><line class="cls-5" x1="309.75" y1="85.92" x2="309.75" y2="85.92"/><polyline class="cls-6" points="309.75 85.92 309.75 85.24 309.75 85.24"/><line class="cls-5" x1="309.75" y1="96.24" x2="309.75" y2="96.24"/><polyline class="cls-6" points="309.75 96.24 309.75 85.92 309.75 85.92"/><line class="cls-5" x1="309.75" y1="95.12" x2="309.75" y2="91.68"/><line class="cls-5" x1="309.75" y1="89.97" x2="309.75" y2="86.53"/><line class="cls-5" x1="309.75" y1="91.68" x2="309.75" y2="89.97"/><line class="cls-5" x1="309.75" y1="96.24" x2="309.75" y2="95.12"/><line class="cls-5" x1="309.75" y1="86.53" x2="309.75" y2="85.92"/><line class="cls-5" x1="309.75" y1="91.68" x2="309.75" y2="90.26"/><line class="cls-5" x1="309.75" y1="85.92" x2="309.75" y2="86.23"/><line class="cls-5" x1="309.75" y1="89.97" x2="309.75" y2="91.68"/><line class="cls-5" x1="309.75" y1="85.92" x2="309.75" y2="86.53"/><line class="cls-5" x1="309.75" y1="95.12" x2="309.75" y2="96.24"/><polyline class="cls-6" points="309.75 85.93 309.75 85.93 309.75 96.24"/><line class="cls-5" x1="309.75" y1="96.24" x2="309.75" y2="96.24"/><polyline class="cls-6" points="309.75 85.24 309.75 85.92 296 85.92 296 85.24 309.75 85.24"/><polyline class="cls-6" points="309.75 85.92 309.75 96.24 296 96.24 296 85.92 309.75 85.92"/><g class="cls-13"><line class="cls-5" x1="306.27" y1="95.12" x2="306.27" y2="91.68"/><line class="cls-5" x1="300.31" y1="95.12" x2="300.31" y2="91.68"/><line class="cls-5" x1="309.24" y1="89.97" x2="309.24" y2="86.53"/><line class="cls-5" x1="303.29" y1="89.97" x2="303.29" y2="86.53"/><line class="cls-5" x1="297.33" y1="89.97" x2="297.33" y2="86.53"/><line class="cls-5" x1="309.24" y1="86.53" x2="308.2" y2="85.92"/><line class="cls-5" x1="306.27" y1="91.68" x2="303.29" y2="89.97"/><line class="cls-5" x1="297.33" y1="86.53" x2="296.29" y2="85.92"/><line class="cls-5" x1="302.24" y1="96.24" x2="300.31" y2="95.12"/><line class="cls-5" x1="309.75" y1="90.26" x2="309.24" y2="89.96"/><line class="cls-5" x1="303.29" y1="86.53" x2="302.24" y2="85.92"/><line class="cls-5" x1="308.2" y1="96.24" x2="306.27" y2="95.12"/><line class="cls-5" x1="300.31" y1="91.68" x2="297.33" y2="89.97"/><line class="cls-5" x1="296.29" y1="96.24" x2="296" y2="96.07"/><line class="cls-5" x1="298.38" y1="85.92" x2="297.33" y2="86.53"/><line class="cls-5" x1="309.75" y1="86.23" x2="309.24" y2="86.53"/><line class="cls-5" x1="303.29" y1="89.97" x2="300.31" y2="91.68"/><line class="cls-5" x1="306.27" y1="95.12" x2="304.33" y2="96.24"/><line class="cls-5" x1="304.33" y1="85.92" x2="303.29" y2="86.53"/><line class="cls-5" x1="297.33" y1="89.97" x2="296" y2="90.74"/><line class="cls-5" x1="309.24" y1="89.97" x2="306.27" y2="91.68"/><line class="cls-5" x1="300.31" y1="95.12" x2="298.38" y2="96.24"/></g><polyline class="cls-6" points="309.75 85.93 296 85.93 296 96.24 309.75 96.24 309.75 85.93"/><polyline class="cls-6" points="14.1 85.24 14.1 85.92 0.35 85.92 0.35 85.24 14.1 85.24"/><polyline class="cls-6" points="14.1 85.92 14.1 96.24 0.35 96.24 0.35 85.92 14.1 85.92"/><g class="cls-14"><line class="cls-5" x1="8.55" y1="95.12" x2="8.55" y2="91.68"/><line class="cls-5" x1="2.59" y1="95.12" x2="2.59" y2="91.68"/><line class="cls-5" x1="11.52" y1="89.97" x2="11.52" y2="86.53"/><line class="cls-5" x1="5.57" y1="89.97" x2="5.57" y2="86.53"/><line class="cls-5" x1="11.52" y1="86.53" x2="10.48" y2="85.92"/><line class="cls-5" x1="8.55" y1="91.68" x2="5.57" y2="89.97"/><line class="cls-5" x1="4.52" y1="96.24" x2="2.59" y2="95.12"/><line class="cls-5" x1="14.1" y1="91.46" x2="11.52" y2="89.96"/><line class="cls-5" x1="5.57" y1="86.53" x2="4.52" y2="85.92"/><line class="cls-5" x1="10.48" y1="96.24" x2="8.55" y2="95.12"/><line class="cls-5" x1="2.59" y1="91.68" x2="0.35" y2="90.39"/><line class="cls-5" x1="0.66" y1="85.92" x2="0.35" y2="86.1"/><line class="cls-5" x1="12.57" y1="85.92" x2="11.52" y2="86.53"/><line class="cls-5" x1="5.57" y1="89.97" x2="2.59" y2="91.68"/><line class="cls-5" x1="8.55" y1="95.12" x2="6.61" y2="96.24"/><line class="cls-5" x1="6.61" y1="85.92" x2="5.57" y2="86.53"/><line class="cls-5" x1="11.52" y1="89.97" x2="8.55" y2="91.68"/><line class="cls-5" x1="2.59" y1="95.12" x2="0.66" y2="96.24"/><line class="cls-5" x1="14.1" y1="95.35" x2="12.57" y2="96.24"/></g><polyline class="cls-6" points="14.1 85.93 0.35 85.93 0.35 96.24 14.1 96.24 14.1 85.93"/><polyline class="cls-6" points="155.05 85.24 155.05 96.24 158.49 96.24 158.49 99.67 158.49 109.99 27.85 109.99 27.85 99.67 27.85 96.24 31.29 96.24 31.29 85.24 155.05 85.24"/><polyline class="cls-6" points="224.36 85.24 277.99 85.24 277.99 96.24 282.11 96.24 282.11 99.67 282.11 109.99 220.23 109.99 220.23 99.67 220.23 96.24 224.36 96.24 224.36 85.24"/><polyline class="cls-6" points="278.67 85.24 278.67 85.92 278.67 96.24 277.99 96.24 277.99 85.24 278.67 85.24"/><polyline class="cls-6" points="224.36 85.24 224.36 96.24 223.67 96.24 223.67 85.92 223.67 85.24 224.36 85.24"/><line class="cls-5" x1="0.35" y1="96.24" x2="0.35" y2="96.24"/><line class="cls-5" x1="0.35" y1="85.92" x2="0.35" y2="85.92"/><line class="cls-5" x1="158.49" y1="96.24" x2="220.23" y2="96.24"/><line class="cls-5" x1="282.11" y1="96.24" x2="296" y2="96.24"/><line class="cls-5" x1="14.1" y1="96.24" x2="27.85" y2="96.24"/><line class="cls-5" x1="223.67" y1="85.92" x2="155.05" y2="85.92"/><line class="cls-5" x1="296" y1="85.92" x2="278.67" y2="85.92"/><line class="cls-5" x1="31.29" y1="85.92" x2="14.1" y2="85.92"/><line class="cls-5" x1="309.75" y1="96.24" x2="309.75" y2="96.24"/><line class="cls-5" x1="309.75" y1="85.92" x2="309.75" y2="85.92"/><line class="cls-5" x1="309.75" y1="85.92" x2="296" y2="85.92"/><line class="cls-5" x1="14.1" y1="85.92" x2="0.35" y2="85.92"/><line class="cls-5" x1="158.49" y1="99.68" x2="158.49" y2="109.99"/><line class="cls-5" x1="155.05" y1="85.24" x2="171.9" y2="85.24"/><line class="cls-5" x1="155.05" y1="85.92" x2="155.05" y2="96.24"/><line class="cls-5" x1="155.05" y1="85.24" x2="155.05" y2="85.92"/><line class="cls-5" x1="155.05" y1="85.92" x2="155.05" y2="96.24"/><line class="cls-5" x1="155.05" y1="85.24" x2="155.05" y2="85.92"/><line class="cls-5" x1="155.05" y1="96.24" x2="158.49" y2="96.24"/><line class="cls-5" x1="158.49" y1="96.24" x2="158.49" y2="99.68"/><line class="cls-5" x1="27.85" y1="99.68" x2="27.85" y2="109.99"/><line class="cls-5" x1="31.29" y1="85.24" x2="14.44" y2="85.24"/><line class="cls-5" x1="31.29" y1="85.92" x2="31.29" y2="96.24"/><line class="cls-5" x1="31.29" y1="85.24" x2="31.29" y2="85.92"/><line class="cls-5" x1="31.29" y1="85.92" x2="31.29" y2="96.24"/><line class="cls-5" x1="31.29" y1="85.24" x2="31.29" y2="85.92"/><line class="cls-5" x1="31.29" y1="96.24" x2="27.85" y2="96.24"/><line class="cls-5" x1="27.85" y1="96.24" x2="27.85" y2="99.68"/><line class="cls-5" x1="309.75" y1="85.24" x2="306.66" y2="85.24"/><line class="cls-5" x1="224.36" y1="96.24" x2="224.36" y2="85.24"/><line class="cls-5" x1="223.67" y1="85.24" x2="224.36" y2="85.24"/><line class="cls-5" x1="223.67" y1="96.24" x2="224.36" y2="96.24"/><line class="cls-5" x1="223.67" y1="85.92" x2="223.67" y2="96.24"/><line class="cls-5" x1="277.99" y1="96.24" x2="277.99" y2="85.24"/><line class="cls-5" x1="278.67" y1="85.24" x2="277.99" y2="85.24"/><line class="cls-5" x1="278.67" y1="96.24" x2="277.99" y2="96.24"/><line class="cls-5" x1="278.67" y1="85.92" x2="278.67" y2="96.24"/><line class="cls-5" x1="220.23" y1="99.68" x2="220.23" y2="109.99"/><line class="cls-5" x1="223.67" y1="96.24" x2="220.23" y2="96.24"/><line class="cls-5" x1="220.23" y1="96.24" x2="220.23" y2="99.68"/><line class="cls-5" x1="282.11" y1="99.68" x2="282.11" y2="109.99"/><line class="cls-5" x1="278.67" y1="96.24" x2="282.11" y2="96.24"/><line class="cls-5" x1="282.11" y1="96.24" x2="282.11" y2="99.68"/><line class="cls-5" x1="0.35" y1="109.99" x2="0.35" y2="109.99"/><line class="cls-5" x1="14.1" y1="109.99" x2="27.85" y2="109.99"/><line class="cls-5" x1="158.49" y1="109.99" x2="220.23" y2="109.99"/><line class="cls-5" x1="282.11" y1="109.99" x2="296" y2="109.99"/><line class="cls-5" x1="309.75" y1="109.99" x2="309.75" y2="109.99"/><line class="cls-5" x1="309.75" y1="85.24" x2="278.67" y2="85.24"/><line class="cls-5" x1="223.67" y1="85.24" x2="155.05" y2="85.24"/><line class="cls-5" x1="31.29" y1="85.24" x2="0.35" y2="85.24"/><line class="cls-5" x1="31.29" y1="85.24" x2="155.05" y2="85.24"/><line class="cls-5" x1="27.85" y1="109.99" x2="158.49" y2="109.99"/><polyline class="cls-6" points="27.85 99.67 36.1 99.67 36.1 96.24 27.85 96.24 27.85 99.67"/><polyline class="cls-6" points="69.11 96.24 63.6 96.24 63.6 99.67 69.11 99.67 69.11 96.24"/><polyline class="cls-6" points="36.1 99.67 63.6 99.67 63.6 96.24 36.1 96.24 36.1 99.67"/><polyline class="cls-6" points="69.11 99.67 71.86 99.67 71.86 96.24 69.11 96.24 69.11 99.67"/><polyline class="cls-6" points="117.23 96.24 114.48 96.24 114.48 99.67 117.23 99.67 117.23 96.24"/><polyline class="cls-6" points="71.86 99.67 114.48 99.67 114.48 96.24 71.86 96.24 71.86 99.67"/><polyline class="cls-6" points="117.23 99.67 122.73 99.67 122.73 96.24 117.23 96.24 117.23 99.67"/><polyline class="cls-6" points="158.49 96.24 150.24 96.24 150.24 99.67 158.49 99.67 158.49 96.24"/><polyline class="cls-6" points="122.73 99.67 150.24 99.67 150.24 96.24 122.73 96.24 122.73 99.67"/><line class="cls-5" x1="27.85" y1="99.68" x2="36.1" y2="99.68"/><line class="cls-5" x1="36.1" y1="99.68" x2="36.1" y2="96.24"/><line class="cls-5" x1="36.1" y1="96.24" x2="27.85" y2="96.24"/><line class="cls-5" x1="69.11" y1="96.24" x2="63.61" y2="96.24"/><line class="cls-5" x1="63.61" y1="96.24" x2="63.61" y2="99.68"/><line class="cls-5" x1="63.61" y1="99.68" x2="69.11" y2="99.68"/><line class="cls-5" x1="36.1" y1="99.68" x2="63.61" y2="99.68"/><line class="cls-5" x1="63.61" y1="96.24" x2="36.1" y2="96.24"/><line class="cls-5" x1="69.11" y1="99.68" x2="71.86" y2="99.68"/><line class="cls-5" x1="71.86" y1="99.68" x2="71.86" y2="96.24"/><line class="cls-5" x1="71.86" y1="96.24" x2="69.11" y2="96.24"/><line class="cls-5" x1="117.24" y1="96.24" x2="114.48" y2="96.24"/><line class="cls-5" x1="114.48" y1="96.24" x2="114.48" y2="99.68"/><line class="cls-5" x1="114.48" y1="99.68" x2="117.24" y2="99.68"/><line class="cls-5" x1="71.86" y1="99.68" x2="114.48" y2="99.68"/><line class="cls-5" x1="114.48" y1="96.24" x2="71.86" y2="96.24"/><line class="cls-5" x1="117.24" y1="99.68" x2="122.74" y2="99.68"/><line class="cls-5" x1="122.74" y1="99.68" x2="122.74" y2="96.24"/><line class="cls-5" x1="122.74" y1="96.24" x2="117.23" y2="96.24"/><line class="cls-5" x1="158.49" y1="96.24" x2="150.24" y2="96.24"/><line class="cls-5" x1="150.24" y1="96.24" x2="150.24" y2="99.68"/><line class="cls-5" x1="150.24" y1="99.68" x2="158.49" y2="99.68"/><line class="cls-5" x1="122.74" y1="99.68" x2="150.24" y2="99.68"/><line class="cls-5" x1="150.24" y1="96.24" x2="122.74" y2="96.24"/><line class="cls-5" x1="27.85" y1="96.24" x2="27.85" y2="99.68"/><line class="cls-5" x1="31.29" y1="96.24" x2="27.85" y2="96.24"/><line class="cls-5" x1="31.29" y1="85.24" x2="31.29" y2="85.92"/><line class="cls-5" x1="31.29" y1="85.92" x2="31.29" y2="96.24"/><line class="cls-5" x1="31.29" y1="85.24" x2="14.44" y2="85.24"/><line class="cls-5" x1="158.49" y1="96.24" x2="158.49" y2="99.68"/><line class="cls-5" x1="155.05" y1="96.24" x2="158.49" y2="96.24"/><line class="cls-5" x1="155.05" y1="85.24" x2="155.05" y2="85.92"/><line class="cls-5" x1="155.05" y1="85.92" x2="155.05" y2="96.24"/><line class="cls-5" x1="155.05" y1="85.24" x2="171.9" y2="85.24"/><line class="cls-5" x1="309.75" y1="85.24" x2="306.66" y2="85.24"/><line class="cls-5" x1="277.99" y1="85.24" x2="224.36" y2="85.24"/><line class="cls-5" x1="282.11" y1="109.99" x2="220.23" y2="109.99"/><polyline class="cls-6" points="282.11 99.67 282.11 96.24 273.86 96.24 273.86 99.67 282.11 99.67"/><polyline class="cls-6" points="220.23 96.24 220.23 99.67 228.48 99.67 228.48 96.24 220.23 96.24"/><polyline class="cls-6" points="273.86 99.67 273.86 96.24 228.48 96.24 228.48 99.67 273.86 99.67"/><line class="cls-5" x1="282.11" y1="99.68" x2="273.86" y2="99.68"/><line class="cls-5" x1="273.86" y1="99.68" x2="273.86" y2="96.24"/><line class="cls-5" x1="273.86" y1="96.24" x2="282.11" y2="96.24"/><line class="cls-5" x1="220.23" y1="96.24" x2="228.48" y2="96.24"/><line class="cls-5" x1="228.48" y1="96.24" x2="228.48" y2="99.68"/><line class="cls-5" x1="228.48" y1="99.68" x2="220.23" y2="99.68"/><line class="cls-5" x1="273.86" y1="99.68" x2="228.48" y2="99.68"/><line class="cls-5" x1="228.48" y1="96.24" x2="273.86" y2="96.24"/><line class="cls-5" x1="282.11" y1="96.24" x2="282.11" y2="99.68"/><line class="cls-5" x1="278.67" y1="96.24" x2="282.11" y2="96.24"/><line class="cls-5" x1="220.23" y1="96.24" x2="220.23" y2="99.68"/><line class="cls-5" x1="223.67" y1="96.24" x2="220.23" y2="96.24"/><polyline class="cls-6" points="179.12 711.61 179.12 725.36 176.09 725.36 162.34 711.61 179.12 711.61"/><g class="cls-15"><line class="cls-5" x1="169.7" y1="718.05" x2="169.7" y2="718.05"/><line class="cls-5" x1="170.55" y1="719.55" x2="170.55" y2="719.55"/><line class="cls-5" x1="177.84" y1="712.26" x2="177.84" y2="712.26"/><line class="cls-5" x1="164.71" y1="713.72" x2="164.71" y2="713.72"/></g><polyline class="cls-6" points="179.12 711.61 162.34 711.61 176.09 725.36 179.12 725.36 179.12 711.61"/><g class="cls-16"><line class="cls-5" x1="182.07" y1="718.05" x2="182.07" y2="718.05"/><line class="cls-5" x1="183.67" y1="718.1" x2="183.67" y2="718.1"/></g><polyline class="cls-6" points="184.62 711.61 179.12 711.61 179.12 725.36 184.62 725.36 184.62 711.61"/><polyline class="cls-6" points="184.62 725.36 184.62 711.61 296 711.61 296 725.36 184.62 725.36"/><g class="cls-17"><line class="cls-5" x1="190.32" y1="718.05" x2="190.32" y2="718.05"/><line class="cls-5" x1="202.7" y1="718.05" x2="202.7" y2="718.05"/><line class="cls-5" x1="210.95" y1="718.05" x2="210.95" y2="718.05"/><line class="cls-5" x1="223.33" y1="718.05" x2="223.33" y2="718.05"/><line class="cls-5" x1="231.58" y1="718.05" x2="231.58" y2="718.05"/><line class="cls-5" x1="243.95" y1="718.05" x2="243.95" y2="718.05"/><line class="cls-5" x1="252.2" y1="718.05" x2="252.2" y2="718.05"/><line class="cls-5" x1="264.58" y1="718.05" x2="264.58" y2="718.05"/><line class="cls-5" x1="272.83" y1="718.05" x2="272.83" y2="718.05"/><line class="cls-5" x1="285.21" y1="718.05" x2="285.21" y2="718.05"/><line class="cls-5" x1="293.46" y1="718.05" x2="293.46" y2="718.05"/><line class="cls-5" x1="282.85" y1="723.93" x2="282.85" y2="723.93"/><line class="cls-5" x1="287.23" y1="719.55" x2="287.23" y2="719.55"/><line class="cls-5" x1="294.52" y1="712.26" x2="294.52" y2="712.26"/><line class="cls-5" x1="277.02" y1="718.1" x2="277.02" y2="718.1"/><line class="cls-5" x1="281.4" y1="713.72" x2="281.4" y2="713.72"/><line class="cls-5" x1="259.52" y1="723.93" x2="259.52" y2="723.93"/><line class="cls-5" x1="263.89" y1="719.55" x2="263.89" y2="719.55"/><line class="cls-5" x1="271.19" y1="712.26" x2="271.19" y2="712.26"/><line class="cls-5" x1="253.69" y1="718.1" x2="253.69" y2="718.1"/><line class="cls-5" x1="258.06" y1="713.72" x2="258.06" y2="713.72"/><line class="cls-5" x1="236.18" y1="723.93" x2="236.18" y2="723.93"/><line class="cls-5" x1="240.56" y1="719.55" x2="240.56" y2="719.55"/><line class="cls-5" x1="247.85" y1="712.26" x2="247.85" y2="712.26"/><line class="cls-5" x1="230.35" y1="718.1" x2="230.35" y2="718.1"/><line class="cls-5" x1="234.72" y1="713.72" x2="234.72" y2="713.72"/><line class="cls-5" x1="212.85" y1="723.93" x2="212.85" y2="723.93"/><line class="cls-5" x1="217.22" y1="719.55" x2="217.22" y2="719.55"/><line class="cls-5" x1="224.51" y1="712.26" x2="224.51" y2="712.26"/><line class="cls-5" x1="207.01" y1="718.1" x2="207.01" y2="718.1"/><line class="cls-5" x1="211.39" y1="713.72" x2="211.39" y2="713.72"/><line class="cls-5" x1="189.51" y1="723.93" x2="189.51" y2="723.93"/><line class="cls-5" x1="193.88" y1="719.55" x2="193.88" y2="719.55"/><line class="cls-5" x1="201.18" y1="712.26" x2="201.18" y2="712.26"/><line class="cls-5" x1="188.05" y1="713.72" x2="188.05" y2="713.72"/></g><polyline class="cls-6" points="184.62 725.36 296 725.36 296 711.61 184.62 711.61 184.62 725.36"/><line class="cls-5" x1="176.09" y1="725.36" x2="296" y2="725.36"/><line class="cls-5" x1="309.75" y1="725.36" x2="309.75" y2="711.61"/><line class="cls-5" x1="296" y1="711.61" x2="184.62" y2="711.61"/><line class="cls-5" x1="179.12" y1="711.61" x2="162.34" y2="711.61"/><polyline class="cls-6" points="93.58 728.79 79.83 742.55 79.83 728.79 93.58 715.04 93.58 728.79"/><g class="cls-18"><line class="cls-5" x1="91.31" y1="729.86" x2="92.52" y2="729.86"/><line class="cls-5" x1="91.31" y1="729.86" x2="93.38" y2="726.28"/><line class="cls-5" x1="93.58" y1="726.64" x2="93.38" y2="726.28"/><line class="cls-5" x1="87.19" y1="734.55" x2="87.19" y2="734.55"/><line class="cls-5" x1="87.19" y1="726.3" x2="87.19" y2="726.3"/><line class="cls-5" x1="84.49" y1="735.6" x2="84.49" y2="735.6"/><line class="cls-5" x1="88.87" y1="731.22" x2="88.87" y2="731.22"/></g><polyline class="cls-6" points="93.58 728.79 93.58 715.04 79.83 728.79 79.83 742.55 93.58 728.79"/><line class="cls-5" x1="93.58" y1="728.79" x2="93.58" y2="715.04"/><line class="cls-5" x1="79.83" y1="728.79" x2="79.83" y2="742.55"/><polyline class="cls-6" points="14.1 728.79 14.1 715.04 93.58 715.04 79.83 728.79 14.1 728.79"/><g class="cls-19"><line class="cls-5" x1="42.43" y1="728.79" x2="43.87" y2="726.28"/><line class="cls-5" x1="67.18" y1="728.79" x2="68.62" y2="726.28"/><line class="cls-5" x1="17.68" y1="728.79" x2="19.12" y2="726.28"/><line class="cls-5" x1="45.32" y1="728.79" x2="43.87" y2="726.28"/><line class="cls-5" x1="70.08" y1="728.79" x2="68.62" y2="726.28"/><line class="cls-5" x1="20.57" y1="728.79" x2="19.12" y2="726.28"/><line class="cls-5" x1="17.06" y1="726.3" x2="17.06" y2="726.3"/><line class="cls-5" x1="25.31" y1="726.3" x2="25.31" y2="726.3"/><line class="cls-5" x1="37.68" y1="726.3" x2="37.68" y2="726.3"/><line class="cls-5" x1="45.94" y1="726.3" x2="45.94" y2="726.3"/><line class="cls-5" x1="58.31" y1="726.3" x2="58.31" y2="726.3"/><line class="cls-5" x1="66.56" y1="726.3" x2="66.56" y2="726.3"/><line class="cls-5" x1="78.94" y1="726.3" x2="78.94" y2="726.3"/><line class="cls-5" x1="17.06" y1="718.05" x2="17.06" y2="718.05"/><line class="cls-5" x1="25.31" y1="718.05" x2="25.31" y2="718.05"/><line class="cls-5" x1="37.68" y1="718.05" x2="37.68" y2="718.05"/><line class="cls-5" x1="45.94" y1="718.05" x2="45.94" y2="718.05"/><line class="cls-5" x1="58.31" y1="718.05" x2="58.31" y2="718.05"/><line class="cls-5" x1="66.56" y1="718.05" x2="66.56" y2="718.05"/><line class="cls-5" x1="78.94" y1="718.05" x2="78.94" y2="718.05"/><line class="cls-5" x1="87.19" y1="718.05" x2="87.19" y2="718.05"/><line class="cls-5" x1="83.04" y1="725.39" x2="83.04" y2="725.39"/><line class="cls-5" x1="90.33" y1="718.1" x2="90.33" y2="718.1"/><line class="cls-5" x1="72.83" y1="723.93" x2="72.83" y2="723.93"/><line class="cls-5" x1="77.21" y1="719.55" x2="77.21" y2="719.55"/><line class="cls-5" x1="59.7" y1="725.39" x2="59.7" y2="725.39"/><line class="cls-5" x1="67" y1="718.1" x2="67" y2="718.1"/><line class="cls-5" x1="49.49" y1="723.93" x2="49.49" y2="723.93"/><line class="cls-5" x1="53.86" y1="719.55" x2="53.86" y2="719.55"/><line class="cls-5" x1="36.36" y1="725.39" x2="36.36" y2="725.39"/><line class="cls-5" x1="43.66" y1="718.1" x2="43.66" y2="718.1"/><line class="cls-5" x1="26.15" y1="723.93" x2="26.15" y2="723.93"/><line class="cls-5" x1="30.53" y1="719.55" x2="30.53" y2="719.55"/><line class="cls-5" x1="20.32" y1="718.1" x2="20.32" y2="718.1"/></g><polyline class="cls-6" points="14.1 728.79 79.83 728.79 93.58 715.04 14.1 715.04 14.1 728.79"/><line class="cls-5" x1="14.1" y1="728.79" x2="79.83" y2="728.79"/><line class="cls-5" x1="93.58" y1="715.04" x2="14.1" y2="715.04"/><polyline class="cls-6" points="79.83 742.55 93.58 728.79 93.58 736.7 93.58 742.55 79.83 742.55"/><g class="cls-20"><line class="cls-5" x1="92.52" y1="729.86" x2="93.58" y2="729.86"/><line class="cls-5" x1="90.33" y1="741.43" x2="90.33" y2="741.43"/></g><polyline class="cls-6" points="79.83 742.55 93.58 742.55 93.58 736.7 93.58 728.79 79.83 742.55"/><line class="cls-5" x1="162.34" y1="736.7" x2="162.34" y2="742.55"/><line class="cls-5" x1="162.34" y1="728.79" x2="162.34" y2="736.7"/><line class="cls-5" x1="93.58" y1="736.7" x2="93.58" y2="742.55"/><line class="cls-5" x1="93.58" y1="728.79" x2="93.58" y2="736.7"/><line class="cls-5" x1="79.83" y1="742.55" x2="93.58" y2="742.55"/><path class="cls-5" d="M96.33,757.13A63.26,63.26,0,0,1,128,702.35" transform="translate(0 -28.34)"/><line class="cls-5" x1="93.58" y1="736.7" x2="96.33" y2="736.7"/><line class="cls-5" x1="96.33" y1="736.7" x2="96.33" y2="728.79"/><line class="cls-5" x1="96.33" y1="728.79" x2="93.58" y2="728.79"/><line class="cls-5" x1="93.58" y1="728.79" x2="93.58" y2="736.7"/><line class="cls-5" x1="162.34" y1="728.79" x2="159.59" y2="728.79"/><line class="cls-5" x1="159.59" y1="728.79" x2="159.59" y2="736.7"/><line class="cls-5" x1="159.59" y1="736.7" x2="162.34" y2="736.7"/><line class="cls-5" x1="162.34" y1="736.7" x2="162.34" y2="728.79"/><line class="cls-5" x1="159.59" y1="728.79" x2="127.96" y2="674.02"/><line class="cls-5" x1="93.58" y1="728.79" x2="93.58" y2="736.7"/><line class="cls-5" x1="162.34" y1="728.79" x2="162.34" y2="736.7"/><polyline class="cls-6" points="176.09 742.55 162.34 742.55 162.34 711.61 176.09 725.36 176.09 742.55"/><g class="cls-21"><line class="cls-5" x1="165.57" y1="729.86" x2="169.7" y2="729.86"/><line class="cls-5" x1="165.57" y1="729.86" x2="167.63" y2="726.28"/><line class="cls-5" x1="169.7" y1="729.86" x2="167.63" y2="726.28"/><line class="cls-5" x1="169.7" y1="734.55" x2="169.7" y2="734.55"/><line class="cls-5" x1="169.7" y1="726.3" x2="169.7" y2="726.3"/><line class="cls-5" x1="164.71" y1="737.06" x2="164.71" y2="737.06"/><line class="cls-5" x1="172.01" y1="729.76" x2="172.01" y2="729.76"/><line class="cls-5" x1="166.18" y1="723.93" x2="166.18" y2="723.93"/></g><polyline class="cls-6" points="176.09 742.55 176.09 725.36 162.34 711.61 162.34 742.55 176.09 742.55"/><line class="cls-5" x1="176.09" y1="742.55" x2="176.09" y2="725.36"/><line class="cls-5" x1="162.34" y1="711.61" x2="162.34" y2="728.79"/><line class="cls-5" x1="162.34" y1="742.55" x2="176.09" y2="742.55"/><polyline class="cls-6" points="14.1 130.62 14.1 295.63 0.35 295.63 0.35 130.62 14.1 130.62"/><g class="cls-22"><line class="cls-5" x1="4.68" y1="279.7" x2="8.81" y2="279.7"/><line class="cls-5" x1="4.68" y1="236.83" x2="8.81" y2="236.83"/><line class="cls-5" x1="4.68" y1="193.96" x2="8.81" y2="193.96"/><line class="cls-5" x1="4.68" y1="151.09" x2="8.81" y2="151.09"/><line class="cls-5" x1="4.68" y1="279.7" x2="6.74" y2="276.13"/><line class="cls-5" x1="4.68" y1="193.96" x2="6.74" y2="190.38"/><line class="cls-5" x1="4.68" y1="236.83" x2="6.74" y2="233.26"/><line class="cls-5" x1="4.68" y1="151.09" x2="6.74" y2="147.51"/><line class="cls-5" x1="8.81" y1="151.09" x2="6.74" y2="147.51"/><line class="cls-5" x1="8.81" y1="236.83" x2="6.74" y2="233.26"/><line class="cls-5" x1="8.81" y1="193.96" x2="6.74" y2="190.38"/><line class="cls-5" x1="8.81" y1="279.7" x2="6.74" y2="276.13"/><line class="cls-5" x1="4.68" y1="289.01" x2="4.68" y2="289.01"/><line class="cls-5" x1="4.68" y1="280.76" x2="4.68" y2="280.76"/><line class="cls-5" x1="4.68" y1="272.51" x2="4.68" y2="272.51"/><line class="cls-5" x1="4.68" y1="264.26" x2="4.68" y2="264.26"/><line class="cls-5" x1="4.68" y1="256.01" x2="4.68" y2="256.01"/><line class="cls-5" x1="4.68" y1="247.76" x2="4.68" y2="247.76"/><line class="cls-5" x1="4.68" y1="239.51" x2="4.68" y2="239.51"/><line class="cls-5" x1="4.68" y1="231.26" x2="4.68" y2="231.26"/><line class="cls-5" x1="4.68" y1="223.01" x2="4.68" y2="223.01"/><line class="cls-5" x1="4.68" y1="214.76" x2="4.68" y2="214.76"/><line class="cls-5" x1="4.68" y1="206.51" x2="4.68" y2="206.51"/><line class="cls-5" x1="4.68" y1="198.26" x2="4.68" y2="198.26"/><line class="cls-5" x1="4.68" y1="190" x2="4.68" y2="190"/><line class="cls-5" x1="4.68" y1="181.75" x2="4.68" y2="181.75"/><line class="cls-5" x1="4.68" y1="173.5" x2="4.68" y2="173.5"/><line class="cls-5" x1="4.68" y1="165.25" x2="4.68" y2="165.25"/><line class="cls-5" x1="4.68" y1="157" x2="4.68" y2="157"/><line class="cls-5" x1="4.68" y1="148.75" x2="4.68" y2="148.75"/><line class="cls-5" x1="4.68" y1="140.5" x2="4.68" y2="140.5"/><line class="cls-5" x1="4.68" y1="132.25" x2="4.68" y2="132.25"/><line class="cls-5" x1="1.36" y1="293.66" x2="1.36" y2="293.66"/><line class="cls-5" x1="8.65" y1="286.37" x2="8.65" y2="286.37"/><line class="cls-5" x1="13.03" y1="281.99" x2="13.03" y2="281.99"/><line class="cls-5" x1="2.82" y1="280.54" x2="2.82" y2="280.54"/><line class="cls-5" x1="7.19" y1="276.16" x2="7.19" y2="276.16"/><line class="cls-5" x1="1.36" y1="270.33" x2="1.36" y2="270.33"/><line class="cls-5" x1="8.65" y1="263.03" x2="8.65" y2="263.03"/><line class="cls-5" x1="13.03" y1="258.66" x2="13.03" y2="258.66"/><line class="cls-5" x1="2.82" y1="257.2" x2="2.82" y2="257.2"/><line class="cls-5" x1="7.19" y1="252.82" x2="7.19" y2="252.82"/><line class="cls-5" x1="1.36" y1="246.99" x2="1.36" y2="246.99"/><line class="cls-5" x1="8.65" y1="239.7" x2="8.65" y2="239.7"/><line class="cls-5" x1="13.03" y1="235.32" x2="13.03" y2="235.32"/><line class="cls-5" x1="2.82" y1="233.86" x2="2.82" y2="233.86"/><line class="cls-5" x1="7.19" y1="229.49" x2="7.19" y2="229.49"/><line class="cls-5" x1="1.36" y1="223.65" x2="1.36" y2="223.65"/><line class="cls-5" x1="8.65" y1="216.36" x2="8.65" y2="216.36"/><line class="cls-5" x1="13.03" y1="211.98" x2="13.03" y2="211.98"/><line class="cls-5" x1="2.82" y1="210.53" x2="2.82" y2="210.53"/><line class="cls-5" x1="7.19" y1="206.15" x2="7.19" y2="206.15"/><line class="cls-5" x1="1.36" y1="200.32" x2="1.36" y2="200.32"/><line class="cls-5" x1="8.65" y1="193.02" x2="8.65" y2="193.02"/><line class="cls-5" x1="13.03" y1="188.65" x2="13.03" y2="188.65"/><line class="cls-5" x1="2.82" y1="187.19" x2="2.82" y2="187.19"/><line class="cls-5" x1="7.19" y1="182.81" x2="7.19" y2="182.81"/><line class="cls-5" x1="1.36" y1="176.98" x2="1.36" y2="176.98"/><line class="cls-5" x1="8.65" y1="169.69" x2="8.65" y2="169.69"/><line class="cls-5" x1="13.03" y1="165.31" x2="13.03" y2="165.31"/><line class="cls-5" x1="2.82" y1="163.85" x2="2.82" y2="163.85"/><line class="cls-5" x1="7.19" y1="159.48" x2="7.19" y2="159.48"/><line class="cls-5" x1="1.36" y1="153.64" x2="1.36" y2="153.64"/><line class="cls-5" x1="8.65" y1="146.35" x2="8.65" y2="146.35"/><line class="cls-5" x1="13.03" y1="141.98" x2="13.03" y2="141.98"/><line class="cls-5" x1="2.82" y1="140.52" x2="2.82" y2="140.52"/><line class="cls-5" x1="7.19" y1="136.14" x2="7.19" y2="136.14"/></g><polyline class="cls-6" points="14.1 130.62 0.35 130.62 0.35 295.63 14.1 295.63 14.1 130.62"/><polyline class="cls-6" points="14.1 330.01 14.1 508.77 0.35 508.77 0.35 330.01 14.1 330.01"/><g class="cls-23"><line class="cls-5" x1="4.68" y1="494.06" x2="8.81" y2="494.06"/><line class="cls-5" x1="4.68" y1="451.19" x2="8.81" y2="451.19"/><line class="cls-5" x1="4.68" y1="408.32" x2="8.81" y2="408.32"/><line class="cls-5" x1="4.68" y1="365.45" x2="8.81" y2="365.45"/><line class="cls-5" x1="4.68" y1="451.19" x2="6.74" y2="447.62"/><line class="cls-5" x1="4.68" y1="365.45" x2="6.74" y2="361.87"/><line class="cls-5" x1="4.68" y1="494.06" x2="6.74" y2="490.49"/><line class="cls-5" x1="4.68" y1="408.32" x2="6.74" y2="404.74"/><line class="cls-5" x1="8.81" y1="408.32" x2="6.74" y2="404.74"/><line class="cls-5" x1="8.81" y1="494.06" x2="6.74" y2="490.49"/><line class="cls-5" x1="8.81" y1="365.45" x2="6.74" y2="361.87"/><line class="cls-5" x1="8.81" y1="451.19" x2="6.74" y2="447.62"/><line class="cls-5" x1="4.68" y1="503.53" x2="4.68" y2="503.53"/><line class="cls-5" x1="4.68" y1="495.28" x2="4.68" y2="495.28"/><line class="cls-5" x1="4.68" y1="487.03" x2="4.68" y2="487.03"/><line class="cls-5" x1="4.68" y1="478.78" x2="4.68" y2="478.78"/><line class="cls-5" x1="4.68" y1="470.53" x2="4.68" y2="470.53"/><line class="cls-5" x1="4.68" y1="462.28" x2="4.68" y2="462.28"/><line class="cls-5" x1="4.68" y1="454.03" x2="4.68" y2="454.03"/><line class="cls-5" x1="4.68" y1="445.77" x2="4.68" y2="445.77"/><line class="cls-5" x1="4.68" y1="437.53" x2="4.68" y2="437.53"/><line class="cls-5" x1="4.68" y1="429.28" x2="4.68" y2="429.28"/><line class="cls-5" x1="4.68" y1="421.02" x2="4.68" y2="421.02"/><line class="cls-5" x1="4.68" y1="412.77" x2="4.68" y2="412.77"/><line class="cls-5" x1="4.68" y1="404.52" x2="4.68" y2="404.52"/><line class="cls-5" x1="4.68" y1="396.27" x2="4.68" y2="396.27"/><line class="cls-5" x1="4.68" y1="388.02" x2="4.68" y2="388.02"/><line class="cls-5" x1="4.68" y1="379.77" x2="4.68" y2="379.77"/><line class="cls-5" x1="4.68" y1="371.52" x2="4.68" y2="371.52"/><line class="cls-5" x1="4.68" y1="363.27" x2="4.68" y2="363.27"/><line class="cls-5" x1="4.68" y1="355.02" x2="4.68" y2="355.02"/><line class="cls-5" x1="4.68" y1="346.77" x2="4.68" y2="346.77"/><line class="cls-5" x1="4.68" y1="338.52" x2="4.68" y2="338.52"/><line class="cls-5" x1="4.68" y1="330.27" x2="4.68" y2="330.27"/><line class="cls-5" x1="1.36" y1="503.69" x2="1.36" y2="503.69"/><line class="cls-5" x1="8.65" y1="496.4" x2="8.65" y2="496.4"/><line class="cls-5" x1="13.03" y1="492.02" x2="13.03" y2="492.02"/><line class="cls-5" x1="2.82" y1="490.56" x2="2.82" y2="490.56"/><line class="cls-5" x1="7.19" y1="486.19" x2="7.19" y2="486.19"/><line class="cls-5" x1="1.36" y1="480.35" x2="1.36" y2="480.35"/><line class="cls-5" x1="8.65" y1="473.06" x2="8.65" y2="473.06"/><line class="cls-5" x1="13.03" y1="468.68" x2="13.03" y2="468.68"/><line class="cls-5" x1="2.82" y1="467.23" x2="2.82" y2="467.23"/><line class="cls-5" x1="7.19" y1="462.85" x2="7.19" y2="462.85"/><line class="cls-5" x1="1.36" y1="457.02" x2="1.36" y2="457.02"/><line class="cls-5" x1="8.65" y1="449.73" x2="8.65" y2="449.73"/><line class="cls-5" x1="13.03" y1="445.35" x2="13.03" y2="445.35"/><line class="cls-5" x1="2.82" y1="443.89" x2="2.82" y2="443.89"/><line class="cls-5" x1="7.19" y1="439.52" x2="7.19" y2="439.52"/><line class="cls-5" x1="1.36" y1="433.68" x2="1.36" y2="433.68"/><line class="cls-5" x1="8.65" y1="426.39" x2="8.65" y2="426.39"/><line class="cls-5" x1="13.03" y1="422.01" x2="13.03" y2="422.01"/><line class="cls-5" x1="2.82" y1="420.56" x2="2.82" y2="420.56"/><line class="cls-5" x1="7.19" y1="416.18" x2="7.19" y2="416.18"/><line class="cls-5" x1="1.36" y1="410.35" x2="1.36" y2="410.35"/><line class="cls-5" x1="8.65" y1="403.05" x2="8.65" y2="403.05"/><line class="cls-5" x1="13.03" y1="398.68" x2="13.03" y2="398.68"/><line class="cls-5" x1="2.82" y1="397.22" x2="2.82" y2="397.22"/><line class="cls-5" x1="7.19" y1="392.84" x2="7.19" y2="392.84"/><line class="cls-5" x1="1.36" y1="387.01" x2="1.36" y2="387.01"/><line class="cls-5" x1="8.65" y1="379.72" x2="8.65" y2="379.72"/><line class="cls-5" x1="13.03" y1="375.34" x2="13.03" y2="375.34"/><line class="cls-5" x1="2.82" y1="373.88" x2="2.82" y2="373.88"/><line class="cls-5" x1="7.19" y1="369.51" x2="7.19" y2="369.51"/><line class="cls-5" x1="1.36" y1="363.67" x2="1.36" y2="363.67"/><line class="cls-5" x1="8.65" y1="356.38" x2="8.65" y2="356.38"/><line class="cls-5" x1="13.03" y1="352" x2="13.03" y2="352"/><line class="cls-5" x1="2.82" y1="350.55" x2="2.82" y2="350.55"/><line class="cls-5" x1="7.19" y1="346.17" x2="7.19" y2="346.17"/><line class="cls-5" x1="1.36" y1="340.34" x2="1.36" y2="340.34"/><line class="cls-5" x1="8.65" y1="333.04" x2="8.65" y2="333.04"/></g><polyline class="cls-6" points="14.1 330.01 0.35 330.01 0.35 508.78 14.1 508.78 14.1 330.01"/><polyline class="cls-6" points="14.1 543.15 14.1 694.42 0.35 694.42 0.35 543.15 14.1 543.15"/><g class="cls-24"><line class="cls-5" x1="4.68" y1="665.55" x2="8.81" y2="665.55"/><line class="cls-5" x1="4.68" y1="622.68" x2="8.81" y2="622.68"/><line class="cls-5" x1="4.68" y1="579.81" x2="8.81" y2="579.81"/><line class="cls-5" x1="4.68" y1="622.68" x2="6.74" y2="619.11"/><line class="cls-5" x1="4.68" y1="665.55" x2="6.74" y2="661.98"/><line class="cls-5" x1="4.68" y1="579.81" x2="6.74" y2="576.23"/><line class="cls-5" x1="8.81" y1="579.81" x2="6.74" y2="576.23"/><line class="cls-5" x1="8.81" y1="665.55" x2="6.74" y2="661.98"/><line class="cls-5" x1="8.81" y1="622.68" x2="6.74" y2="619.11"/><line class="cls-5" x1="4.68" y1="693.3" x2="4.68" y2="693.3"/><line class="cls-5" x1="4.68" y1="685.04" x2="4.68" y2="685.04"/><line class="cls-5" x1="4.68" y1="676.79" x2="4.68" y2="676.79"/><line class="cls-5" x1="4.68" y1="668.54" x2="4.68" y2="668.54"/><line class="cls-5" x1="4.68" y1="660.29" x2="4.68" y2="660.29"/><line class="cls-5" x1="4.68" y1="652.04" x2="4.68" y2="652.04"/><line class="cls-5" x1="4.68" y1="643.79" x2="4.68" y2="643.79"/><line class="cls-5" x1="4.68" y1="635.54" x2="4.68" y2="635.54"/><line class="cls-5" x1="4.68" y1="627.29" x2="4.68" y2="627.29"/><line class="cls-5" x1="4.68" y1="619.04" x2="4.68" y2="619.04"/><line class="cls-5" x1="4.68" y1="610.79" x2="4.68" y2="610.79"/><line class="cls-5" x1="4.68" y1="602.54" x2="4.68" y2="602.54"/><line class="cls-5" x1="4.68" y1="594.29" x2="4.68" y2="594.29"/><line class="cls-5" x1="4.68" y1="586.04" x2="4.68" y2="586.04"/><line class="cls-5" x1="4.68" y1="577.79" x2="4.68" y2="577.79"/><line class="cls-5" x1="4.68" y1="569.54" x2="4.68" y2="569.54"/><line class="cls-5" x1="4.68" y1="561.28" x2="4.68" y2="561.28"/><line class="cls-5" x1="4.68" y1="553.03" x2="4.68" y2="553.03"/><line class="cls-5" x1="4.68" y1="544.78" x2="4.68" y2="544.78"/><line class="cls-5" x1="1.36" y1="690.38" x2="1.36" y2="690.38"/><line class="cls-5" x1="8.65" y1="683.09" x2="8.65" y2="683.09"/><line class="cls-5" x1="13.03" y1="678.71" x2="13.03" y2="678.71"/><line class="cls-5" x1="2.82" y1="677.25" x2="2.82" y2="677.25"/><line class="cls-5" x1="7.19" y1="672.88" x2="7.19" y2="672.88"/><line class="cls-5" x1="1.36" y1="667.04" x2="1.36" y2="667.04"/><line class="cls-5" x1="8.65" y1="659.76" x2="8.65" y2="659.76"/><line class="cls-5" x1="13.03" y1="655.38" x2="13.03" y2="655.38"/><line class="cls-5" x1="2.82" y1="653.92" x2="2.82" y2="653.92"/><line class="cls-5" x1="7.19" y1="649.55" x2="7.19" y2="649.55"/><line class="cls-5" x1="1.36" y1="643.71" x2="1.36" y2="643.71"/><line class="cls-5" x1="8.65" y1="636.42" x2="8.65" y2="636.42"/><line class="cls-5" x1="13.03" y1="632.04" x2="13.03" y2="632.04"/><line class="cls-5" x1="2.82" y1="630.58" x2="2.82" y2="630.58"/><line class="cls-5" x1="7.19" y1="626.21" x2="7.19" y2="626.21"/><line class="cls-5" x1="1.36" y1="620.37" x2="1.36" y2="620.37"/><line class="cls-5" x1="8.65" y1="613.08" x2="8.65" y2="613.08"/><line class="cls-5" x1="13.03" y1="608.71" x2="13.03" y2="608.71"/><line class="cls-5" x1="2.82" y1="607.25" x2="2.82" y2="607.25"/><line class="cls-5" x1="7.19" y1="602.87" x2="7.19" y2="602.87"/><line class="cls-5" x1="1.36" y1="597.04" x2="1.36" y2="597.04"/><line class="cls-5" x1="8.65" y1="589.74" x2="8.65" y2="589.74"/><line class="cls-5" x1="13.03" y1="585.37" x2="13.03" y2="585.37"/><line class="cls-5" x1="2.82" y1="583.91" x2="2.82" y2="583.91"/><line class="cls-5" x1="7.19" y1="579.53" x2="7.19" y2="579.53"/><line class="cls-5" x1="1.36" y1="573.7" x2="1.36" y2="573.7"/><line class="cls-5" x1="8.65" y1="566.41" x2="8.65" y2="566.41"/><line class="cls-5" x1="13.03" y1="562.03" x2="13.03" y2="562.03"/><line class="cls-5" x1="2.82" y1="560.58" x2="2.82" y2="560.58"/><line class="cls-5" x1="7.19" y1="556.2" x2="7.19" y2="556.2"/><line class="cls-5" x1="1.36" y1="550.37" x2="1.36" y2="550.37"/></g><polyline class="cls-6" points="14.1 543.15 0.35 543.15 0.35 694.42 14.1 694.42 14.1 543.15"/><line class="cls-5" x1="14.1" y1="715.04" x2="14.1" y2="109.99"/><line class="cls-5" x1="0.35" y1="109.99" x2="0.35" y2="715.04"/><line class="cls-5" x1="0.35" y1="728.79" x2="14.1" y2="728.79"/><polyline class="cls-6" points="296 561.73 309.75 561.73 309.75 694.42 296 694.42 296 561.73"/><g class="cls-25"><line class="cls-5" x1="301.71" y1="665.55" x2="305.83" y2="665.55"/><line class="cls-5" x1="301.71" y1="622.68" x2="305.83" y2="622.68"/><line class="cls-5" x1="301.71" y1="579.81" x2="305.83" y2="579.81"/><line class="cls-5" x1="301.71" y1="622.68" x2="303.77" y2="619.11"/><line class="cls-5" x1="301.71" y1="665.55" x2="303.77" y2="661.98"/><line class="cls-5" x1="301.71" y1="579.81" x2="303.77" y2="576.23"/><line class="cls-5" x1="305.83" y1="579.81" x2="303.77" y2="576.23"/><line class="cls-5" x1="305.83" y1="665.55" x2="303.77" y2="661.98"/><line class="cls-5" x1="305.83" y1="622.68" x2="303.77" y2="619.11"/><line class="cls-5" x1="305.83" y1="693.3" x2="305.83" y2="693.3"/><line class="cls-5" x1="305.83" y1="685.04" x2="305.83" y2="685.04"/><line class="cls-5" x1="305.83" y1="676.79" x2="305.83" y2="676.79"/><line class="cls-5" x1="305.83" y1="668.54" x2="305.83" y2="668.54"/><line class="cls-5" x1="305.83" y1="660.29" x2="305.83" y2="660.29"/><line class="cls-5" x1="305.83" y1="652.04" x2="305.83" y2="652.04"/><line class="cls-5" x1="305.83" y1="643.79" x2="305.83" y2="643.79"/><line class="cls-5" x1="305.83" y1="635.54" x2="305.83" y2="635.54"/><line class="cls-5" x1="305.83" y1="627.29" x2="305.83" y2="627.29"/><line class="cls-5" x1="305.83" y1="619.04" x2="305.83" y2="619.04"/><line class="cls-5" x1="305.83" y1="610.79" x2="305.83" y2="610.79"/><line class="cls-5" x1="305.83" y1="602.54" x2="305.83" y2="602.54"/><line class="cls-5" x1="305.83" y1="594.29" x2="305.83" y2="594.29"/><line class="cls-5" x1="305.83" y1="586.04" x2="305.83" y2="586.04"/><line class="cls-5" x1="305.83" y1="577.79" x2="305.83" y2="577.79"/><line class="cls-5" x1="305.83" y1="569.54" x2="305.83" y2="569.54"/><line class="cls-5" x1="304.73" y1="690.38" x2="304.73" y2="690.38"/><line class="cls-5" x1="298.9" y1="684.55" x2="298.9" y2="684.55"/><line class="cls-5" x1="306.19" y1="677.25" x2="306.19" y2="677.25"/><line class="cls-5" x1="300.36" y1="671.42" x2="300.36" y2="671.42"/><line class="cls-5" x1="304.73" y1="667.04" x2="304.73" y2="667.04"/><line class="cls-5" x1="298.9" y1="661.21" x2="298.9" y2="661.21"/><line class="cls-5" x1="306.19" y1="653.92" x2="306.19" y2="653.92"/><line class="cls-5" x1="300.36" y1="648.09" x2="300.36" y2="648.09"/><line class="cls-5" x1="304.73" y1="643.71" x2="304.73" y2="643.71"/><line class="cls-5" x1="298.9" y1="637.88" x2="298.9" y2="637.88"/><line class="cls-5" x1="306.19" y1="630.58" x2="306.19" y2="630.58"/><line class="cls-5" x1="300.36" y1="624.75" x2="300.36" y2="624.75"/><line class="cls-5" x1="304.73" y1="620.37" x2="304.73" y2="620.37"/><line class="cls-5" x1="298.9" y1="614.54" x2="298.9" y2="614.54"/><line class="cls-5" x1="306.19" y1="607.25" x2="306.19" y2="607.25"/><line class="cls-5" x1="300.36" y1="601.41" x2="300.36" y2="601.41"/><line class="cls-5" x1="304.73" y1="597.04" x2="304.73" y2="597.04"/><line class="cls-5" x1="298.9" y1="591.2" x2="298.9" y2="591.2"/><line class="cls-5" x1="306.19" y1="583.91" x2="306.19" y2="583.91"/><line class="cls-5" x1="300.36" y1="578.07" x2="300.36" y2="578.07"/><line class="cls-5" x1="304.73" y1="573.7" x2="304.73" y2="573.7"/><line class="cls-5" x1="298.9" y1="567.86" x2="298.9" y2="567.86"/></g><polyline class="cls-6" points="296 561.73 296 694.42 309.75 694.42 309.75 561.73 296 561.73"/><g class="cls-26"><line class="cls-5" x1="305.83" y1="561.28" x2="305.83" y2="561.28"/><line class="cls-5" x1="306.19" y1="560.58" x2="306.19" y2="560.58"/></g><polyline class="cls-6" points="296 556.23 296 561.73 309.75 561.73 309.75 556.23 296 556.23"/><polyline class="cls-6" points="309.75 556.23 296 556.23 296 543.15 309.75 543.15 309.75 556.23"/><g class="cls-27"><line class="cls-5" x1="305.83" y1="553.03" x2="305.83" y2="553.03"/><line class="cls-5" x1="305.83" y1="544.78" x2="305.83" y2="544.78"/><line class="cls-5" x1="300.36" y1="554.74" x2="300.36" y2="554.74"/><line class="cls-5" x1="304.73" y1="550.37" x2="304.73" y2="550.37"/><line class="cls-5" x1="298.9" y1="544.53" x2="298.9" y2="544.53"/></g><polyline class="cls-6" points="309.75 556.23 309.75 543.15 296 543.15 296 556.23 309.75 556.23"/><polyline class="cls-6" points="309.75 508.78 296 508.78 296 330.01 309.75 330.01 309.75 508.78"/><g class="cls-28"><line class="cls-5" x1="301.71" y1="494.06" x2="305.83" y2="494.06"/><line class="cls-5" x1="301.71" y1="451.19" x2="305.83" y2="451.19"/><line class="cls-5" x1="301.71" y1="408.32" x2="305.83" y2="408.32"/><line class="cls-5" x1="301.71" y1="365.45" x2="305.83" y2="365.45"/><line class="cls-5" x1="301.71" y1="451.19" x2="303.77" y2="447.62"/><line class="cls-5" x1="301.71" y1="365.45" x2="303.77" y2="361.87"/><line class="cls-5" x1="301.71" y1="494.06" x2="303.77" y2="490.49"/><line class="cls-5" x1="301.71" y1="408.32" x2="303.77" y2="404.74"/><line class="cls-5" x1="305.83" y1="408.32" x2="303.77" y2="404.74"/><line class="cls-5" x1="305.83" y1="494.06" x2="303.77" y2="490.49"/><line class="cls-5" x1="305.83" y1="365.45" x2="303.77" y2="361.87"/><line class="cls-5" x1="305.83" y1="451.19" x2="303.77" y2="447.62"/><line class="cls-5" x1="305.83" y1="503.53" x2="305.83" y2="503.53"/><line class="cls-5" x1="305.83" y1="495.28" x2="305.83" y2="495.28"/><line class="cls-5" x1="305.83" y1="487.03" x2="305.83" y2="487.03"/><line class="cls-5" x1="305.83" y1="478.78" x2="305.83" y2="478.78"/><line class="cls-5" x1="305.83" y1="470.53" x2="305.83" y2="470.53"/><line class="cls-5" x1="305.83" y1="462.28" x2="305.83" y2="462.28"/><line class="cls-5" x1="305.83" y1="454.03" x2="305.83" y2="454.03"/><line class="cls-5" x1="305.83" y1="445.77" x2="305.83" y2="445.77"/><line class="cls-5" x1="305.83" y1="437.53" x2="305.83" y2="437.53"/><line class="cls-5" x1="305.83" y1="429.28" x2="305.83" y2="429.28"/><line class="cls-5" x1="305.83" y1="421.02" x2="305.83" y2="421.02"/><line class="cls-5" x1="305.83" y1="412.77" x2="305.83" y2="412.77"/><line class="cls-5" x1="305.83" y1="404.52" x2="305.83" y2="404.52"/><line class="cls-5" x1="305.83" y1="396.27" x2="305.83" y2="396.27"/><line class="cls-5" x1="305.83" y1="388.02" x2="305.83" y2="388.02"/><line class="cls-5" x1="305.83" y1="379.77" x2="305.83" y2="379.77"/><line class="cls-5" x1="305.83" y1="371.52" x2="305.83" y2="371.52"/><line class="cls-5" x1="305.83" y1="363.27" x2="305.83" y2="363.27"/><line class="cls-5" x1="305.83" y1="355.02" x2="305.83" y2="355.02"/><line class="cls-5" x1="305.83" y1="346.77" x2="305.83" y2="346.77"/><line class="cls-5" x1="305.83" y1="338.52" x2="305.83" y2="338.52"/><line class="cls-5" x1="305.83" y1="330.27" x2="305.83" y2="330.27"/><line class="cls-5" x1="300.36" y1="508.07" x2="300.36" y2="508.07"/><line class="cls-5" x1="304.73" y1="503.69" x2="304.73" y2="503.69"/><line class="cls-5" x1="298.9" y1="497.86" x2="298.9" y2="497.86"/><line class="cls-5" x1="306.19" y1="490.56" x2="306.19" y2="490.56"/><line class="cls-5" x1="300.36" y1="484.73" x2="300.36" y2="484.73"/><line class="cls-5" x1="304.73" y1="480.35" x2="304.73" y2="480.35"/><line class="cls-5" x1="298.9" y1="474.52" x2="298.9" y2="474.52"/><line class="cls-5" x1="306.19" y1="467.23" x2="306.19" y2="467.23"/><line class="cls-5" x1="300.36" y1="461.4" x2="300.36" y2="461.4"/><line class="cls-5" x1="304.73" y1="457.02" x2="304.73" y2="457.02"/><line class="cls-5" x1="298.9" y1="451.19" x2="298.9" y2="451.19"/><line class="cls-5" x1="306.19" y1="443.89" x2="306.19" y2="443.89"/><line class="cls-5" x1="300.36" y1="438.06" x2="300.36" y2="438.06"/><line class="cls-5" x1="304.73" y1="433.68" x2="304.73" y2="433.68"/><line class="cls-5" x1="298.9" y1="427.85" x2="298.9" y2="427.85"/><line class="cls-5" x1="306.19" y1="420.56" x2="306.19" y2="420.56"/><line class="cls-5" x1="300.36" y1="414.72" x2="300.36" y2="414.72"/><line class="cls-5" x1="304.73" y1="410.35" x2="304.73" y2="410.35"/><line class="cls-5" x1="298.9" y1="404.51" x2="298.9" y2="404.51"/><line class="cls-5" x1="306.19" y1="397.22" x2="306.19" y2="397.22"/><line class="cls-5" x1="300.36" y1="391.38" x2="300.36" y2="391.38"/><line class="cls-5" x1="304.73" y1="387.01" x2="304.73" y2="387.01"/><line class="cls-5" x1="298.9" y1="381.17" x2="298.9" y2="381.17"/><line class="cls-5" x1="306.19" y1="373.88" x2="306.19" y2="373.88"/><line class="cls-5" x1="300.36" y1="368.05" x2="300.36" y2="368.05"/><line class="cls-5" x1="304.73" y1="363.67" x2="304.73" y2="363.67"/><line class="cls-5" x1="298.9" y1="357.84" x2="298.9" y2="357.84"/><line class="cls-5" x1="306.19" y1="350.55" x2="306.19" y2="350.55"/><line class="cls-5" x1="300.36" y1="344.71" x2="300.36" y2="344.71"/><line class="cls-5" x1="304.73" y1="340.34" x2="304.73" y2="340.34"/><line class="cls-5" x1="298.9" y1="334.5" x2="298.9" y2="334.5"/></g><polyline class="cls-6" points="309.75 508.78 309.75 330.01 296 330.01 296 508.78 309.75 508.78"/><polyline class="cls-6" points="309.75 295.63 296 295.63 296 130.62 309.75 130.62 309.75 295.63"/><g class="cls-29"><line class="cls-5" x1="301.71" y1="279.7" x2="305.83" y2="279.7"/><line class="cls-5" x1="301.71" y1="236.83" x2="305.83" y2="236.83"/><line class="cls-5" x1="301.71" y1="193.96" x2="305.83" y2="193.96"/><line class="cls-5" x1="301.71" y1="151.09" x2="305.83" y2="151.09"/><line class="cls-5" x1="301.71" y1="279.7" x2="303.77" y2="276.13"/><line class="cls-5" x1="301.71" y1="193.96" x2="303.77" y2="190.38"/><line class="cls-5" x1="301.71" y1="236.83" x2="303.77" y2="233.26"/><line class="cls-5" x1="301.71" y1="151.09" x2="303.77" y2="147.51"/><line class="cls-5" x1="305.83" y1="151.09" x2="303.77" y2="147.51"/><line class="cls-5" x1="305.83" y1="236.83" x2="303.77" y2="233.26"/><line class="cls-5" x1="305.83" y1="193.96" x2="303.77" y2="190.38"/><line class="cls-5" x1="305.83" y1="279.7" x2="303.77" y2="276.13"/><line class="cls-5" x1="305.83" y1="289.01" x2="305.83" y2="289.01"/><line class="cls-5" x1="305.83" y1="280.76" x2="305.83" y2="280.76"/><line class="cls-5" x1="305.83" y1="272.51" x2="305.83" y2="272.51"/><line class="cls-5" x1="305.83" y1="264.26" x2="305.83" y2="264.26"/><line class="cls-5" x1="305.83" y1="256.01" x2="305.83" y2="256.01"/><line class="cls-5" x1="305.83" y1="247.76" x2="305.83" y2="247.76"/><line class="cls-5" x1="305.83" y1="239.51" x2="305.83" y2="239.51"/><line class="cls-5" x1="305.83" y1="231.26" x2="305.83" y2="231.26"/><line class="cls-5" x1="305.83" y1="223.01" x2="305.83" y2="223.01"/><line class="cls-5" x1="305.83" y1="214.76" x2="305.83" y2="214.76"/><line class="cls-5" x1="305.83" y1="206.51" x2="305.83" y2="206.51"/><line class="cls-5" x1="305.83" y1="198.26" x2="305.83" y2="198.26"/><line class="cls-5" x1="305.83" y1="190" x2="305.83" y2="190"/><line class="cls-5" x1="305.83" y1="181.75" x2="305.83" y2="181.75"/><line class="cls-5" x1="305.83" y1="173.5" x2="305.83" y2="173.5"/><line class="cls-5" x1="305.83" y1="165.25" x2="305.83" y2="165.25"/><line class="cls-5" x1="305.83" y1="157" x2="305.83" y2="157"/><line class="cls-5" x1="305.83" y1="148.75" x2="305.83" y2="148.75"/><line class="cls-5" x1="305.83" y1="140.5" x2="305.83" y2="140.5"/><line class="cls-5" x1="305.83" y1="132.25" x2="305.83" y2="132.25"/><line class="cls-5" x1="304.73" y1="293.66" x2="304.73" y2="293.66"/><line class="cls-5" x1="298.9" y1="287.83" x2="298.9" y2="287.83"/><line class="cls-5" x1="306.19" y1="280.54" x2="306.19" y2="280.54"/><line class="cls-5" x1="300.36" y1="274.7" x2="300.36" y2="274.7"/><line class="cls-5" x1="304.73" y1="270.33" x2="304.73" y2="270.33"/><line class="cls-5" x1="298.9" y1="264.49" x2="298.9" y2="264.49"/><line class="cls-5" x1="306.19" y1="257.2" x2="306.19" y2="257.2"/><line class="cls-5" x1="300.36" y1="251.37" x2="300.36" y2="251.37"/><line class="cls-5" x1="304.73" y1="246.99" x2="304.73" y2="246.99"/><line class="cls-5" x1="298.9" y1="241.16" x2="298.9" y2="241.16"/><line class="cls-5" x1="306.19" y1="233.86" x2="306.19" y2="233.86"/><line class="cls-5" x1="300.36" y1="228.03" x2="300.36" y2="228.03"/><line class="cls-5" x1="304.73" y1="223.65" x2="304.73" y2="223.65"/><line class="cls-5" x1="298.9" y1="217.82" x2="298.9" y2="217.82"/><line class="cls-5" x1="306.19" y1="210.53" x2="306.19" y2="210.53"/><line class="cls-5" x1="300.36" y1="204.69" x2="300.36" y2="204.69"/><line class="cls-5" x1="304.73" y1="200.32" x2="304.73" y2="200.32"/><line class="cls-5" x1="298.9" y1="194.48" x2="298.9" y2="194.48"/><line class="cls-5" x1="306.19" y1="187.19" x2="306.19" y2="187.19"/><line class="cls-5" x1="300.36" y1="181.36" x2="300.36" y2="181.36"/><line class="cls-5" x1="304.73" y1="176.98" x2="304.73" y2="176.98"/><line class="cls-5" x1="298.9" y1="171.15" x2="298.9" y2="171.15"/><line class="cls-5" x1="306.19" y1="163.85" x2="306.19" y2="163.85"/><line class="cls-5" x1="300.36" y1="158.02" x2="300.36" y2="158.02"/><line class="cls-5" x1="304.73" y1="153.64" x2="304.73" y2="153.64"/><line class="cls-5" x1="298.9" y1="147.81" x2="298.9" y2="147.81"/><line class="cls-5" x1="306.19" y1="140.52" x2="306.19" y2="140.52"/><line class="cls-5" x1="300.36" y1="134.68" x2="300.36" y2="134.68"/></g><polyline class="cls-6" points="309.75 295.63 309.75 130.62 296 130.62 296 295.63 309.75 295.63"/><line class="cls-5" x1="309.75" y1="721.92" x2="309.75" y2="561.73"/><line class="cls-5" x1="309.75" y1="556.23" x2="309.75" y2="109.99"/><line class="cls-5" x1="296" y1="109.99" x2="296" y2="556.23"/><line class="cls-5" x1="296" y1="561.73" x2="296" y2="721.92"/><line class="cls-5" x1="176.09" y1="742.2" x2="176.09" y2="742.55"/><line class="cls-5" x1="93.58" y1="742.55" x2="93.58" y2="742.2"/><polyline class="cls-6" points="213.01 532.19 207.51 526.69 276.75 526.69 271.25 532.19 213.01 532.19"/><g class="cls-30"><line class="cls-5" x1="210.95" y1="528.28" x2="210.95" y2="528.28"/><line class="cls-5" x1="223.33" y1="528.28" x2="223.33" y2="528.28"/><line class="cls-5" x1="231.58" y1="528.28" x2="231.58" y2="528.28"/><line class="cls-5" x1="243.95" y1="528.28" x2="243.95" y2="528.28"/><line class="cls-5" x1="252.2" y1="528.28" x2="252.2" y2="528.28"/><line class="cls-5" x1="264.58" y1="528.28" x2="264.58" y2="528.28"/><line class="cls-5" x1="272.83" y1="528.28" x2="272.83" y2="528.28"/><line class="cls-5" x1="253.69" y1="531.4" x2="253.69" y2="531.4"/><line class="cls-5" x1="258.06" y1="527.03" x2="258.06" y2="527.03"/><line class="cls-5" x1="230.35" y1="531.4" x2="230.35" y2="531.4"/><line class="cls-5" x1="234.72" y1="527.03" x2="234.72" y2="527.03"/><line class="cls-5" x1="211.39" y1="527.03" x2="211.39" y2="527.03"/></g><polyline class="cls-6" points="213.01 532.19 271.25 532.19 276.75 526.69 207.51 526.69 213.01 532.19"/><line class="cls-5" x1="213.01" y1="532.19" x2="271.25" y2="532.19"/><line class="cls-5" x1="276.75" y1="526.69" x2="207.51" y2="526.69"/><polyline class="cls-6" points="207.51 561.73 213.01 556.23 271.25 556.23 276.75 561.73 207.51 561.73"/><g class="cls-31"><line class="cls-5" x1="215.07" y1="558.37" x2="219.2" y2="558.37"/><line class="cls-5" x1="239.83" y1="558.37" x2="243.95" y2="558.37"/><line class="cls-5" x1="264.58" y1="558.37" x2="268.7" y2="558.37"/><line class="cls-5" x1="239.83" y1="558.37" x2="241.06" y2="556.23"/><line class="cls-5" x1="264.58" y1="558.37" x2="265.82" y2="556.23"/><line class="cls-5" x1="215.07" y1="558.37" x2="216.31" y2="556.23"/><line class="cls-5" x1="243.95" y1="558.37" x2="242.72" y2="556.23"/><line class="cls-5" x1="268.7" y1="558.37" x2="267.47" y2="556.23"/><line class="cls-5" x1="219.2" y1="558.37" x2="217.97" y2="556.23"/><line class="cls-5" x1="210.95" y1="561.28" x2="210.95" y2="561.28"/><line class="cls-5" x1="223.33" y1="561.28" x2="223.33" y2="561.28"/><line class="cls-5" x1="231.58" y1="561.28" x2="231.58" y2="561.28"/><line class="cls-5" x1="243.95" y1="561.28" x2="243.95" y2="561.28"/><line class="cls-5" x1="252.2" y1="561.28" x2="252.2" y2="561.28"/><line class="cls-5" x1="264.58" y1="561.28" x2="264.58" y2="561.28"/><line class="cls-5" x1="272.83" y1="561.28" x2="272.83" y2="561.28"/><line class="cls-5" x1="259.52" y1="560.58" x2="259.52" y2="560.58"/><line class="cls-5" x1="236.18" y1="560.58" x2="236.18" y2="560.58"/><line class="cls-5" x1="212.85" y1="560.58" x2="212.85" y2="560.58"/></g><polyline class="cls-6" points="207.51 561.73 276.75 561.73 271.25 556.23 213.01 556.23 207.51 561.73"/><line class="cls-5" x1="207.51" y1="561.73" x2="276.75" y2="561.73"/><line class="cls-5" x1="271.25" y1="556.23" x2="213.01" y2="556.23"/><line class="cls-5" x1="296" y1="526.69" x2="276.75" y2="526.69"/><line class="cls-5" x1="276.75" y1="532.19" x2="296" y2="532.19"/><line class="cls-5" x1="309.75" y1="556.23" x2="309.75" y2="561.73"/><line class="cls-5" x1="165.36" y1="556.23" x2="165.36" y2="561.73"/><line class="cls-5" x1="103.48" y1="556.23" x2="103.48" y2="561.73"/><line class="cls-5" x1="14.1" y1="561.73" x2="97.78" y2="561.73"/><line class="cls-5" x1="41.01" y1="561.73" x2="60.41" y2="561.73"/><line class="cls-5" x1="67.9" y1="561.73" x2="87.31" y2="561.73"/><line class="cls-5" x1="94.8" y1="561.73" x2="103.48" y2="561.73"/><line class="cls-5" x1="165.36" y1="561.73" x2="179.12" y2="561.73"/><line class="cls-5" x1="184.62" y1="556.23" x2="165.36" y2="556.23"/><line class="cls-5" x1="103.48" y1="556.23" x2="84.08" y2="556.23"/><line class="cls-5" x1="76.59" y1="556.23" x2="57.18" y2="556.23"/><line class="cls-5" x1="49.69" y1="556.23" x2="30.29" y2="556.23"/><line class="cls-5" x1="94.81" y1="556.23" x2="14.1" y2="556.23"/><line class="cls-5" x1="14.1" y1="556.23" x2="14.1" y2="561.73"/><path class="cls-5" d="M134.42,638.9a56.4,56.4,0,0,1-28.19-48.83" transform="translate(0 -28.34)"/><line class="cls-5" x1="103.48" y1="556.23" x2="106.23" y2="556.23"/><line class="cls-5" x1="106.23" y1="556.23" x2="106.23" y2="561.73"/><line class="cls-5" x1="106.23" y1="561.73" x2="103.48" y2="561.73"/><line class="cls-5" x1="103.48" y1="561.73" x2="103.48" y2="556.23"/><line class="cls-5" x1="165.36" y1="561.73" x2="162.61" y2="561.73"/><line class="cls-5" x1="162.61" y1="561.73" x2="162.61" y2="556.23"/><line class="cls-5" x1="162.61" y1="556.23" x2="165.36" y2="556.23"/><line class="cls-5" x1="165.36" y1="556.23" x2="165.36" y2="561.73"/><line class="cls-5" x1="162.61" y1="561.73" x2="134.42" y2="610.56"/><line class="cls-5" x1="103.48" y1="556.23" x2="103.48" y2="561.73"/><line class="cls-5" x1="165.36" y1="556.23" x2="165.36" y2="561.73"/><polyline class="cls-6" points="276.75 561.73 271.25 556.23 271.25 532.19 276.75 526.69 276.75 561.73"/><g class="cls-32"><line class="cls-5" x1="272.83" y1="553.03" x2="272.83" y2="553.03"/><line class="cls-5" x1="272.83" y1="544.78" x2="272.83" y2="544.78"/><line class="cls-5" x1="272.83" y1="536.53" x2="272.83" y2="536.53"/><line class="cls-5" x1="275.57" y1="544.53" x2="275.57" y2="544.53"/></g><polyline class="cls-6" points="276.75 561.73 276.75 526.69 271.25 532.19 271.25 556.23 276.75 561.73"/><line class="cls-5" x1="276.75" y1="561.73" x2="276.75" y2="526.69"/><line class="cls-5" x1="271.25" y1="532.19" x2="271.25" y2="556.23"/><line class="cls-5" x1="296" y1="556.23" x2="276.75" y2="556.23"/><line class="cls-5" x1="276.75" y1="561.73" x2="296" y2="561.73"/><line class="cls-5" x1="296" y1="561.73" x2="296" y2="556.23"/><polyline class="cls-6" points="213.01 556.23 207.51 561.73 207.51 526.69 213.01 532.19 213.01 556.23"/><g class="cls-33"><line class="cls-5" x1="210.95" y1="553.03" x2="210.95" y2="553.03"/><line class="cls-5" x1="210.95" y1="544.78" x2="210.95" y2="544.78"/><line class="cls-5" x1="210.95" y1="536.53" x2="210.95" y2="536.53"/><line class="cls-5" x1="211.39" y1="550.37" x2="211.39" y2="550.37"/><line class="cls-5" x1="212.85" y1="537.24" x2="212.85" y2="537.24"/></g><polyline class="cls-6" points="213.01 556.23 213.01 532.19 207.51 526.69 207.51 561.73 213.01 556.23"/><line class="cls-5" x1="213.01" y1="556.23" x2="213.01" y2="532.19"/><line class="cls-5" x1="207.51" y1="526.69" x2="207.51" y2="561.73"/><line class="cls-5" x1="0.35" y1="561.73" x2="0.35" y2="556.23"/><line class="cls-5" x1="296" y1="526.69" x2="276.75" y2="526.69"/><line class="cls-5" x1="276.75" y1="532.19" x2="296" y2="532.19"/><g class="cls-34"><line class="cls-5" x1="289.33" y1="558.37" x2="293.46" y2="558.37"/><line class="cls-5" x1="289.33" y1="558.37" x2="290.57" y2="556.23"/><line class="cls-5" x1="293.46" y1="558.37" x2="292.23" y2="556.23"/><line class="cls-5" x1="285.21" y1="561.28" x2="285.21" y2="561.28"/><line class="cls-5" x1="293.46" y1="561.28" x2="293.46" y2="561.28"/><line class="cls-5" x1="282.85" y1="560.58" x2="282.85" y2="560.58"/></g><polyline class="cls-6" points="296 556.23 276.75 556.23 276.75 561.73 296 561.73 296 556.23"/><line class="cls-5" x1="296" y1="556.23" x2="276.75" y2="556.23"/><line class="cls-5" x1="276.75" y1="561.73" x2="296" y2="561.73"/><line class="cls-5" x1="184.62" y1="662.25" x2="179.12" y2="662.25"/><line class="cls-5" x1="184.62" y1="614.12" x2="179.12" y2="614.12"/><line class="cls-5" x1="179.12" y1="561.73" x2="179.12" y2="614.12"/><line class="cls-5" x1="179.12" y1="662.25" x2="179.12" y2="711.61"/><line class="cls-5" x1="179.12" y1="711.61" x2="184.62" y2="711.61"/><line class="cls-5" x1="184.62" y1="711.61" x2="184.62" y2="662.25"/><line class="cls-5" x1="184.62" y1="614.12" x2="184.62" y2="556.23"/><path class="cls-5" d="M184.62,645.21a42.65,42.65,0,0,1,36.92,21.31" transform="translate(0 -28.34)"/><line class="cls-5" x1="179.12" y1="614.12" x2="179.12" y2="616.87"/><line class="cls-5" x1="179.12" y1="616.87" x2="184.62" y2="616.87"/><line class="cls-5" x1="184.62" y1="616.87" x2="184.62" y2="614.12"/><line class="cls-5" x1="184.62" y1="614.12" x2="179.12" y2="614.12"/><line class="cls-5" x1="184.62" y1="662.25" x2="184.62" y2="659.5"/><line class="cls-5" x1="184.62" y1="659.5" x2="179.12" y2="659.5"/><line class="cls-5" x1="179.12" y1="659.5" x2="179.12" y2="662.25"/><line class="cls-5" x1="179.12" y1="662.25" x2="184.62" y2="662.25"/><line class="cls-5" x1="184.62" y1="659.5" x2="221.54" y2="638.19"/><line class="cls-5" x1="184.62" y1="614.12" x2="179.12" y2="614.12"/><line class="cls-5" x1="184.62" y1="662.25" x2="179.12" y2="662.25"/><line class="cls-5" x1="0.35" y1="561.73" x2="0.35" y2="556.23"/><g class="cls-35"><line class="cls-5" x1="190.32" y1="558.37" x2="194.45" y2="558.37"/><line class="cls-5" x1="190.32" y1="558.37" x2="191.56" y2="556.23"/><line class="cls-5" x1="194.45" y1="558.37" x2="193.22" y2="556.23"/><line class="cls-5" x1="190.32" y1="561.28" x2="190.32" y2="561.28"/><line class="cls-5" x1="202.7" y1="561.28" x2="202.7" y2="561.28"/><line class="cls-5" x1="189.51" y1="560.58" x2="189.51" y2="560.58"/></g><polyline class="cls-6" points="184.62 561.73 207.51 561.73 207.51 556.23 179.12 556.23 184.62 561.73"/><line class="cls-5" x1="184.62" y1="561.73" x2="207.51" y2="561.73"/><line class="cls-5" x1="207.51" y1="561.73" x2="207.51" y2="556.23"/><line class="cls-5" x1="207.51" y1="556.23" x2="179.12" y2="556.23"/><line class="cls-5" x1="179.12" y1="708.42" x2="182.07" y2="708.42"/><line class="cls-5" x1="179.12" y1="665.55" x2="182.07" y2="665.55"/><line class="cls-5" x1="179.12" y1="579.81" x2="182.07" y2="579.81"/><line class="cls-5" x1="179.12" y1="663.52" x2="180.01" y2="661.98"/><line class="cls-5" x1="179.12" y1="577.78" x2="180.01" y2="576.23"/><line class="cls-5" x1="179.12" y1="706.4" x2="180.01" y2="704.85"/><line class="cls-5" x1="182.07" y1="708.42" x2="180.01" y2="704.85"/><line class="cls-5" x1="182.07" y1="579.81" x2="180.01" y2="576.23"/><line class="cls-5" x1="182.07" y1="665.55" x2="180.01" y2="661.98"/><line class="cls-5" x1="182.07" y1="709.8" x2="182.07" y2="709.8"/><line class="cls-5" x1="182.07" y1="701.55" x2="182.07" y2="701.55"/><line class="cls-5" x1="182.07" y1="693.3" x2="182.07" y2="693.3"/><line class="cls-5" x1="182.07" y1="685.04" x2="182.07" y2="685.04"/><line class="cls-5" x1="182.07" y1="676.79" x2="182.07" y2="676.79"/><line class="cls-5" x1="182.07" y1="668.54" x2="182.07" y2="668.54"/><line class="cls-5" x1="182.07" y1="660.29" x2="182.07" y2="660.29"/><line class="cls-5" x1="182.07" y1="610.79" x2="182.07" y2="610.79"/><line class="cls-5" x1="182.07" y1="602.54" x2="182.07" y2="602.54"/><line class="cls-5" x1="182.07" y1="594.29" x2="182.07" y2="594.29"/><line class="cls-5" x1="182.07" y1="586.04" x2="182.07" y2="586.04"/><line class="cls-5" x1="182.07" y1="577.79" x2="182.07" y2="577.79"/><line class="cls-5" x1="182.07" y1="569.54" x2="182.07" y2="569.54"/><line class="cls-5" x1="182.07" y1="561.28" x2="182.07" y2="561.28"/><line class="cls-5" x1="182.22" y1="707.89" x2="182.22" y2="707.89"/><line class="cls-5" x1="183.67" y1="694.76" x2="183.67" y2="694.76"/><line class="cls-5" x1="182.22" y1="684.55" x2="182.22" y2="684.55"/><line class="cls-5" x1="183.67" y1="671.42" x2="183.67" y2="671.42"/><line class="cls-5" x1="182.22" y1="661.21" x2="182.22" y2="661.21"/><line class="cls-5" x1="182.22" y1="614.54" x2="182.22" y2="614.54"/><line class="cls-5" x1="183.67" y1="601.41" x2="183.67" y2="601.41"/><line class="cls-5" x1="182.22" y1="591.2" x2="182.22" y2="591.2"/><line class="cls-5" x1="183.67" y1="578.07" x2="183.67" y2="578.07"/><line class="cls-5" x1="182.22" y1="567.86" x2="182.22" y2="567.86"/><line class="cls-5" x1="179.12" y1="556.23" x2="179.12" y2="575.63"/><line class="cls-5" x1="179.12" y1="583.13" x2="179.12" y2="602.54"/><line class="cls-5" x1="179.12" y1="663.83" x2="179.12" y2="683.23"/><line class="cls-5" x1="179.12" y1="690.72" x2="179.12" y2="710.13"/><line class="cls-5" x1="184.62" y1="711.61" x2="184.62" y2="692.2"/><line class="cls-5" x1="184.62" y1="684.7" x2="184.62" y2="665.3"/><line class="cls-5" x1="184.62" y1="604.01" x2="184.62" y2="584.61"/><line class="cls-5" x1="184.62" y1="577.11" x2="184.62" y2="561.73"/><line class="cls-5" x1="296" y1="725.36" x2="268.5" y2="725.36"/><line class="cls-5" x1="38.58" y1="728.79" x2="17.95" y2="728.79"/><line class="cls-5" x1="59.21" y1="728.79" x2="38.58" y2="728.79"/><line class="cls-5" x1="79.83" y1="739.11" x2="79.83" y2="728.79"/><line class="cls-5" x1="79.83" y1="728.79" x2="59.21" y2="728.79"/><line class="cls-5" x1="268.5" y1="725.36" x2="176.09" y2="725.36"/><line class="cls-5" x1="176.09" y1="725.36" x2="176.09" y2="742.55"/><line class="cls-5" x1="176.09" y1="725.36" x2="176.09" y2="742.55"/><line class="cls-5" x1="289.12" y1="103.61" x2="288.79" y2="102.33"/><line class="cls-5" x1="289.12" y1="103.61" x2="289.48" y2="102.33"/><line class="cls-5" x1="288.79" y1="102.33" x2="289.48" y2="102.33"/><polyline class="cls-36" points="289.13 103.61 288.79 102.33 289.48 102.33 289.13 103.61"/><line class="cls-5" x1="289.13" y1="102.33" x2="289.13" y2="102.33"/><line class="cls-5" x1="0.35" y1="103.61" x2="0.35" y2="102.33"/><line class="cls-5" x1="0.35" y1="103.61" x2="0.35" y2="102.33"/><line class="cls-5" x1="0.35" y1="102.33" x2="0.35" y2="102.33"/><polyline class="cls-36" points="0.35 103.61 0.35 102.33 0.35 102.33 0.35 103.61"/><line class="cls-5" x1="0.35" y1="102.33" x2="0.35" y2="102.33"/><polyline class="cls-6" points="296 130.62 296 96.24 309.75 96.24 309.75 130.62 296 130.62"/><g class="cls-37"><line class="cls-5" x1="296" y1="125.42" x2="309.75" y2="111.67"/><line class="cls-5" x1="296" y1="100.14" x2="299.91" y2="96.24"/><line class="cls-5" x1="306.44" y1="127.63" x2="309.75" y2="124.31"/><line class="cls-5" x1="296" y1="112.78" x2="303.28" y2="105.5"/><line class="cls-5" x1="306.44" y1="102.35" x2="306.44" y2="102.35"/><line class="cls-5" x1="309.6" y1="99.19" x2="309.75" y2="99.03"/></g><polyline class="cls-6" points="296 130.62 309.75 130.62 309.75 96.24 296 96.24 296 130.62"/><line class="cls-5" x1="296" y1="130.62" x2="309.75" y2="130.62"/><line class="cls-5" x1="309.75" y1="130.62" x2="309.75" y2="96.24"/><line class="cls-5" x1="309.75" y1="96.24" x2="296" y2="96.24"/><polyline class="cls-6" points="296 330.01 296 295.63 309.75 295.63 309.75 330.01 296 330.01"/><g class="cls-38"><line class="cls-5" x1="296" y1="327.67" x2="309.75" y2="313.92"/><line class="cls-5" x1="296" y1="302.39" x2="302.77" y2="295.63"/><line class="cls-5" x1="306.31" y1="330.01" x2="306.44" y2="329.88"/><line class="cls-5" x1="309.6" y1="326.72" x2="309.6" y2="326.72"/><line class="cls-5" x1="296.96" y1="314.08" x2="296.96" y2="314.08"/><line class="cls-5" x1="300.12" y1="310.92" x2="309.6" y2="301.43"/></g><polyline class="cls-6" points="296 330.01 309.75 330.01 309.75 295.63 296 295.63 296 330.01"/><line class="cls-5" x1="296" y1="295.63" x2="296" y2="330.01"/><line class="cls-5" x1="296" y1="330.01" x2="309.75" y2="330.01"/><line class="cls-5" x1="309.75" y1="330.01" x2="309.75" y2="295.63"/><line class="cls-5" x1="309.75" y1="295.63" x2="296" y2="295.63"/><polyline class="cls-6" points="296 728.79 296 694.42 309.75 694.42 309.75 728.79 296 728.79"/><g class="cls-39"><line class="cls-5" x1="299.38" y1="728.79" x2="309.75" y2="718.43"/><line class="cls-5" x1="296" y1="706.9" x2="308.48" y2="694.42"/><line class="cls-5" x1="296.96" y1="718.58" x2="306.44" y2="709.1"/><line class="cls-5" x1="309.6" y1="705.93" x2="309.6" y2="705.93"/></g><polyline class="cls-6" points="296 728.79 309.75 728.79 309.75 694.42 296 694.42 296 728.79"/><line class="cls-5" x1="296" y1="694.42" x2="296" y2="728.79"/><line class="cls-5" x1="296" y1="728.79" x2="309.75" y2="728.79"/><line class="cls-5" x1="309.75" y1="728.79" x2="309.75" y2="694.42"/><line class="cls-5" x1="309.75" y1="694.42" x2="296" y2="694.42"/><polyline class="cls-6" points="296 543.15 296 508.78 309.75 508.78 309.75 543.15 296 543.15"/><g class="cls-40"><line class="cls-5" x1="308.06" y1="543.15" x2="309.75" y2="541.46"/><line class="cls-5" x1="296" y1="529.92" x2="309.75" y2="516.17"/><line class="cls-5" x1="296" y1="542.56" x2="296.96" y2="541.61"/><line class="cls-5" x1="300.12" y1="538.44" x2="300.12" y2="538.44"/><line class="cls-5" x1="303.28" y1="535.29" x2="309.75" y2="528.81"/><line class="cls-5" x1="296" y1="517.28" x2="300.12" y2="513.17"/><line class="cls-5" x1="303.28" y1="510.01" x2="303.28" y2="510.01"/></g><polyline class="cls-6" points="296 543.15 309.75 543.15 309.75 508.78 296 508.78 296 543.15"/><line class="cls-5" x1="296" y1="508.78" x2="296" y2="543.15"/><line class="cls-5" x1="296" y1="543.15" x2="309.75" y2="543.15"/><line class="cls-5" x1="309.75" y1="543.15" x2="309.75" y2="508.78"/><line class="cls-5" x1="309.75" y1="508.78" x2="296" y2="508.78"/><polyline class="cls-6" points="0.35 728.79 0.35 694.42 14.1 694.42 14.1 728.79 0.35 728.79"/><g class="cls-41"><line class="cls-5" x1="0.35" y1="724.45" x2="14.1" y2="710.7"/><line class="cls-5" x1="0.35" y1="699.17" x2="5.11" y2="694.42"/><line class="cls-5" x1="8.65" y1="728.79" x2="9.38" y2="728.06"/><line class="cls-5" x1="12.55" y1="724.9" x2="12.55" y2="724.9"/><line class="cls-5" x1="3.07" y1="709.1" x2="12.55" y2="699.61"/></g><polyline class="cls-6" points="0.35 728.79 14.1 728.79 14.1 694.42 0.35 694.42 0.35 728.79"/><line class="cls-5" x1="0.35" y1="694.42" x2="0.35" y2="728.79"/><line class="cls-5" x1="0.35" y1="728.79" x2="14.1" y2="728.79"/><line class="cls-5" x1="14.1" y1="728.79" x2="14.1" y2="694.42"/><line class="cls-5" x1="14.1" y1="694.42" x2="0.35" y2="694.42"/><polyline class="cls-6" points="0.35 543.15 0.35 508.78 14.1 508.78 14.1 543.15 0.35 543.15"/><g class="cls-42"><line class="cls-5" x1="4.68" y1="543.15" x2="14.1" y2="533.73"/><line class="cls-5" x1="0.35" y1="522.2" x2="13.78" y2="508.78"/><line class="cls-5" x1="0.35" y1="534.84" x2="3.07" y2="532.13"/><line class="cls-5" x1="6.23" y1="528.97" x2="6.23" y2="528.97"/><line class="cls-5" x1="9.38" y1="525.81" x2="14.1" y2="521.09"/><line class="cls-5" x1="0.35" y1="509.56" x2="1.14" y2="508.78"/></g><polyline class="cls-6" points="0.35 543.15 14.1 543.15 14.1 508.78 0.35 508.78 0.35 543.15"/><line class="cls-5" x1="0.35" y1="508.78" x2="0.35" y2="543.15"/><line class="cls-5" x1="0.35" y1="543.15" x2="14.1" y2="543.15"/><line class="cls-5" x1="14.1" y1="543.15" x2="14.1" y2="508.78"/><line class="cls-5" x1="14.1" y1="508.78" x2="0.35" y2="508.78"/><polyline class="cls-6" points="0.35 330.01 0.35 295.63 14.1 295.63 14.1 330.01 0.35 330.01"/><g class="cls-43"><line class="cls-5" x1="0.35" y1="319.95" x2="14.1" y2="306.2"/><line class="cls-5" x1="3.07" y1="329.88" x2="12.55" y2="320.4"/><line class="cls-5" x1="3.07" y1="304.6" x2="3.07" y2="304.6"/><line class="cls-5" x1="6.23" y1="301.44" x2="12.03" y2="295.63"/></g><polyline class="cls-6" points="0.35 330.01 14.1 330.01 14.1 295.63 0.35 295.63 0.35 330.01"/><line class="cls-5" x1="0.35" y1="295.63" x2="0.35" y2="330.01"/><line class="cls-5" x1="0.35" y1="330.01" x2="14.1" y2="330.01"/><line class="cls-5" x1="14.1" y1="330.01" x2="14.1" y2="295.63"/><line class="cls-5" x1="14.1" y1="295.63" x2="0.35" y2="295.63"/><polyline class="cls-6" points="0.35 130.62 0.35 96.24 14.1 96.24 14.1 130.62 0.35 130.62"/><g class="cls-44"><line class="cls-5" x1="12.72" y1="130.62" x2="14.1" y2="129.23"/><line class="cls-5" x1="0.35" y1="117.7" x2="14.1" y2="103.95"/><line class="cls-5" x1="0.35" y1="130.34" x2="6.23" y2="124.47"/><line class="cls-5" x1="9.38" y1="121.31" x2="9.38" y2="121.31"/><line class="cls-5" x1="12.55" y1="118.15" x2="14.1" y2="116.59"/><line class="cls-5" x1="0.35" y1="105.06" x2="9.17" y2="96.24"/></g><polyline class="cls-6" points="0.35 130.62 14.1 130.62 14.1 96.24 0.35 96.24 0.35 130.62"/><line class="cls-5" x1="0.35" y1="96.24" x2="0.35" y2="130.62"/><line class="cls-5" x1="0.35" y1="130.62" x2="14.1" y2="130.62"/><line class="cls-5" x1="14.1" y1="130.62" x2="14.1" y2="96.24"/><line class="cls-5" x1="14.1" y1="96.24" x2="0.35" y2="96.24"/><text class="cls-45" transform="translate(83.18 647.38)">5.54</text><text class="cls-45" transform="translate(226.29 647.38)">3.53</text><text class="cls-45" transform="translate(131.44 149.45)">26.06</text><path class="cls-46" d="M88,724.05a11.34,11.34,0,1,0-11.33,11.34A11.34,11.34,0,0,0,88,724.05" transform="translate(0 -28.34)"/><text class="cls-47" transform="translate(72.34 701.59)">1</text><path class="cls-46" d="M231.62,724.05a11.34,11.34,0,1,0-11.34,11.34,11.34,11.34,0,0,0,11.34-11.34" transform="translate(0 -28.34)"/><text class="cls-47" transform="translate(215.92 701.59)">3</text><path class="cls-46" d="M65.37,566.82A11.34,11.34,0,1,0,54,578.15a11.34,11.34,0,0,0,11.34-11.33" transform="translate(0 -28.34)"/><text class="cls-47" transform="translate(49.67 544.36)">2</text><rect class="cls-48" x="115.02" y="217.34" width="81.06" height="97.2"/><text class="cls-49" transform="translate(142.04 273.14)">CT</text><text class="cls-49" transform="translate(126.83 306.18)">35.13</text><text class="cls-49" transform="translate(130.2 240.6)">№35</text><polyline class="cls-50" points="115.02 314.54 115.02 217.34 196.09 217.34 196.09 314.54"/><line class="cls-50" x1="115.02" y1="249.8" x2="196.08" y2="249.8"/><line class="cls-50" x1="115.02" y1="314.54" x2="196.08" y2="314.54"/><line class="cls-50" x1="115.02" y1="282.27" x2="196.08" y2="282.27"/></svg>