<svg id="_824" data-name="824" xmlns="http://www.w3.org/2000/svg" viewBox="0 0 535.31 625.09"><defs><style>.cls-1,.cls-6{fill:none;stroke-linecap:round;stroke-linejoin:round;stroke-width:0.5px;}.cls-1{stroke:#999;}.cls-2{isolation:isolate;font-size:12px;fill:#999;}.cls-2,.cls-4,.cls-5{font-family:PTSans-Regular, PT Sans;}.cls-3{letter-spacing:-0.01em;}.cls-4{font-size:20px;}.cls-5{font-size:24px;}.cls-6{stroke:#000;}</style></defs><title>1floor_824flat</title><line class="cls-1" x1="249.57" y1="613.75" x2="249.57" y2="622.55"/><polyline class="cls-1" points="245.97 619.25 249.47 622.75 252.97 619.25"/><text class="cls-2" transform="translate(258.8 622.15)"><tspan class="cls-3">у</tspan><tspan x="5.42" y="0">лица</tspan></text><text class="cls-4" transform="translate(205.97 144.44)">6.97</text><text class="cls-4" transform="translate(60.57 63.71)">2.67</text><text class="cls-4" transform="translate(378.44 144.44)">12.13</text><text class="cls-4" transform="translate(90.52 172.59)">3.91</text><text class="cls-4" transform="translate(360.1 495.75)">16.89</text><text class="cls-4" transform="translate(102.95 495.75)">14.33</text><text class="cls-5" transform="translate(371.99 413.61)">1Е</text><text class="cls-5" transform="translate(356.23 446.65)">56.90</text><text class="cls-5" transform="translate(353.07 381.06)">№824</text><polyline class="cls-6" points="344.43 455.02 344.43 357.82 425.49 357.82 425.49 455.02"/><line class="cls-6" x1="344.43" y1="390.28" x2="425.49" y2="390.28"/><line class="cls-6" x1="344.43" y1="455.02" x2="425.49" y2="455.02"/><line class="cls-6" x1="344.43" y1="422.74" x2="425.49" y2="422.74"/><polyline class="cls-6" points="154.38 13.61 154.38 239.53 239.53 239.53 252.58 239.53 286.76 239.53 286.76 13.61 249.16 13.61 154.38 13.61"/><line class="cls-6" x1="249.16" y1="0.25" x2="154.38" y2="0.25"/><polyline class="cls-6" points="13.3 305.1 13.3 462.34 13.3 511.44 239.53 511.44 239.53 462.34 247.3 462.34 247.3 305.1 239.53 305.1 239.53 244.81 13.3 244.81 13.3 305.1"/><polyline class="cls-6" points="149.1 239.53 149.1 103.42 38.47 103.42 38.47 190.43 13.3 190.43 13.3 239.53 149.1 239.53"/><polyline class="cls-6" points="252.58 305.1 252.58 462.34 252.58 511.44 524.49 511.44 524.49 244.81 252.58 244.81 252.58 305.1"/><polyline class="cls-6" points="13.3 98.14 149.1 98.14 149.1 13.61 65.82 13.61 13.3 13.61 13.3 98.14"/><polyline class="cls-6" points="291.74 239.53 489.07 239.53 524.49 239.53 524.49 205.35 493.11 205.35 493.11 162.15 524.49 162.15 524.49 114.92 524.49 13.61 314.73 13.61 291.74 13.61 291.74 239.53"/><line class="cls-6" x1="17.03" y1="201" x2="17.03" y2="232.07"/><line class="cls-6" x1="20.45" y1="235.8" x2="96.89" y2="235.8"/><line class="cls-6" x1="20.45" y1="197.27" x2="96.89" y2="197.27"/><line class="cls-6" x1="118.34" y1="239.53" x2="13.3" y2="239.53"/><polyline class="cls-6" points="118.34 239.53 118.34 193.54 13.3 193.54 13.3 239.53"/><line class="cls-6" x1="84.46" y1="203.79" x2="24.8" y2="203.79"/><line class="cls-6" x1="22.94" y1="205.66" x2="22.94" y2="227.72"/><line class="cls-6" x1="84.46" y1="229.59" x2="24.8" y2="229.59"/><line class="cls-6" x1="35.37" y1="215.6" x2="35.37" y2="213.12"/><line class="cls-6" x1="34.12" y1="216.53" x2="31.95" y2="216.53"/><line class="cls-6" x1="35.37" y1="217.78" x2="35.37" y2="219.95"/><line class="cls-6" x1="36.3" y1="216.53" x2="38.47" y2="216.53"/><polyline class="cls-6" points="96.89 235.8 100 235.49 103.42 234.56 106.53 233 109.01 230.83 111.5 228.34 113.05 225.24 114.3 221.82 114.92 218.4 114.92 214.98 114.3 211.25 113.05 208.14 111.5 205.04 109.01 202.24 106.53 200.38 103.42 198.51 100 197.58 96.89 197.27"/><polyline class="cls-6" points="17.03 232.07 17.03 232.69 17.03 233.31 17.34 233.94 17.65 234.56 18.27 234.87 18.59 235.49 19.21 235.8 19.83 235.8 20.45 235.8"/><polyline class="cls-6" points="20.45 197.27 19.83 197.27 19.21 197.58 18.59 197.89 18.27 198.2 17.65 198.51 17.34 199.13 17.03 199.75 17.03 200.38 17.03 201"/><polyline class="cls-6" points="35.37 214.67 35.05 214.67 34.74 214.98 34.43 214.98 34.12 215.29 33.81 215.6 33.5 215.91 33.5 216.22 33.5 216.53 33.5 216.84 33.5 217.16 33.81 217.47 33.81 217.78 34.12 218.09 34.43 218.4 34.74 218.4 35.05 218.4 35.37 218.4 35.68 218.4 35.99 218.4 36.3 218.09 36.61 217.78 36.92 217.47 36.92 217.16 37.23 216.84 37.23 216.53 36.92 216.22 36.92 215.91 36.61 215.6 36.61 215.29 36.3 214.98 35.99 214.98 35.68 214.67 35.37 214.67"/><polyline class="cls-6" points="84.46 229.59 86.64 229.28 88.81 228.65 90.99 227.72 92.86 226.17 94.41 224.3 95.34 222.44 96.27 220.26 96.58 217.78 96.58 215.29 96.27 213.12 95.34 210.94 94.41 208.77 92.86 207.21 90.99 205.66 88.81 204.73 86.64 204.1 84.46 203.79"/><polyline class="cls-6" points="24.8 203.79 24.49 203.79 24.18 203.79 23.87 204.1 23.56 204.1 23.56 204.41 23.25 204.73 23.25 205.04 22.93 205.35 22.93 205.66"/><polyline class="cls-6" points="22.93 227.72 22.93 228.03 23.25 228.34 23.25 228.65 23.56 228.97 23.87 229.28 24.18 229.28 24.49 229.59 24.8 229.59"/><polyline class="cls-6" points="35.37 214.05 34.74 214.05 34.43 214.36 33.81 214.36 33.5 214.67 33.19 214.98 33.19 215.6 32.88 215.91 32.88 216.53 32.88 216.84 32.88 217.47 33.19 217.78 33.5 218.4 33.81 218.71 34.12 219.02 34.74 219.02 35.05 219.02 35.37 219.02 35.99 219.02 36.3 219.02 36.92 218.71 37.23 218.4 37.54 217.78 37.54 217.47 37.54 216.84 37.85 216.53 37.54 215.91 37.54 215.6 37.23 214.98 36.92 214.67 36.61 214.36 36.3 214.36 35.68 214.05 35.37 214.05"/><line class="cls-6" x1="50.28" y1="140.71" x2="72.97" y2="140.71"/><polyline class="cls-6" points="49.04 141.64 40.34 141.64 40.34 117.4"/><line class="cls-6" x1="54.32" y1="129.52" x2="54.32" y2="120.51"/><polyline class="cls-6" points="72.97 140.71 54.32 138.54 54.32 129.52"/><line class="cls-6" x1="72.97" y1="118.34" x2="54.32" y2="120.51"/><line class="cls-6" x1="72.97" y1="140.09" x2="54.32" y2="137.91"/><line class="cls-6" x1="72.97" y1="118.96" x2="54.32" y2="121.13"/><line class="cls-6" x1="50.28" y1="118.34" x2="72.97" y2="118.34"/><line class="cls-6" x1="40.34" y1="117.4" x2="49.04" y2="117.4"/><polyline class="cls-6" points="72.97 140.71 75.76 140.4 77.94 139.47 80.11 137.91 81.67 135.74 82.91 133.56 83.53 130.77 83.53 128.28 82.91 125.48 81.67 123.31 80.11 121.13 77.94 119.58 75.76 118.65 72.97 118.34"/><polyline class="cls-6" points="72.97 140.09 75.45 139.78 77.63 138.85 79.8 137.29 81.36 135.43 82.29 133.25 82.91 130.77 82.91 128.28 82.29 125.8 81.36 123.62 79.8 121.44 77.63 120.2 75.45 119.27 72.97 118.96"/><polyline class="cls-6" points="49.04 141.64 49.35 141.64 49.66 141.33 49.97 141.33 49.97 141.02 50.28 141.02 50.28 140.71 50.28 140.4 50.9 129.52 50.28 118.65 50.28 118.34 50.28 118.03 49.97 118.03 49.97 117.72 49.66 117.72 49.35 117.4 49.04 117.4"/><polyline class="cls-6" points="46.86 129.52 46.86 129.21 46.86 128.9 46.55 128.59 46.24 128.59 46.24 128.28 45.93 128.28 45.62 128.28 45.31 128.28 45.31 128.59 45 128.59 45 128.9 44.69 128.9 44.69 129.21 44.69 129.52 44.69 129.83 44.69 130.15 45 130.15 45 130.46 45.31 130.46 45.31 130.77 45.62 130.77 45.93 130.77 46.24 130.77 46.24 130.46 46.55 130.46 46.86 130.15 46.86 129.83 46.86 129.52"/><path d="M314.73.25,531,13.61H314.73ZM531,.25H314.73L531,13.61Z"/><path class="cls-6" d="M314.73.25,531,13.61H314.73ZM531,.25H314.73L531,13.61Z"/><polyline class="cls-6" points="531.02 0.25 314.73 0.25 314.73 13.61 531.02 13.61 531.02 0.25"/><path d="M65.82.25,183.91,13.61H65.82Zm118.09,0H65.82L183.91,13.61Z"/><path class="cls-6" d="M65.82.25,183.91,13.61H65.82Zm118.09,0H65.82L183.91,13.61Z"/><line class="cls-6" x1="249.16" y1="13.61" x2="249.16" y2="0.25"/><polyline class="cls-6" points="183.91 13.61 183.91 0.25 65.82 0.25 65.82 13.61 183.91 13.61"/><path class="cls-6" d="M186.39,13.46a60.13,60.13,0,0,0,60.13,60.13"/><path d="M183.91.25l2.48,13.36h-2.48Zm2.48,0h-2.48l2.48,13.36Z"/><path class="cls-6" d="M183.91.25l2.48,13.36h-2.48Zm2.48,0h-2.48l2.48,13.36Z"/><path d="M246.68.25l2.48,13.36h-2.48Zm2.48,0h-2.48l2.48,13.36Z"/><path class="cls-6" d="M246.68.25l2.48,13.36h-2.48Zm2.48,0h-2.48l2.48,13.36Z"/><polyline class="cls-6" points="183.91 0.25 186.39 0.25 186.39 13.61 183.91 13.61 183.91 0.25"/><polyline class="cls-6" points="249.16 13.61 246.68 13.61 246.68 0.25 249.16 0.25 249.16 13.61"/><line class="cls-6" x1="246.68" y1="13.61" x2="246.68" y2="73.9"/><line class="cls-6" x1="183.91" y1="13.61" x2="183.91" y2="0.25"/><line class="cls-6" x1="249.16" y1="13.61" x2="249.16" y2="0.25"/><path d="M249.16.25l65.57,13.36H249.16Zm65.57,0H249.16l65.57,13.36Z"/><path class="cls-6" d="M249.16.25l65.57,13.36H249.16Zm65.57,0H249.16l65.57,13.36Z"/><polyline class="cls-6" points="249.16 13.61 314.73 13.61 314.73 0.25 249.16 0.25 249.16 13.61"/><path d="M.25.25,65.82,13.61H.25Zm65.57,0H.25L65.82,13.61Z"/><path class="cls-6" d="M.25.25,65.82,13.61H.25Zm65.57,0H.25L65.82,13.61Z"/><polyline class="cls-6" points="65.82 0.25 0.25 0.25 0.25 13.61 65.82 13.61 65.82 0.25"/><path d="M534.44,114.92h0Zm.62,0h0Z"/><path class="cls-6" d="M534.44,114.92h0Zm.62,0h0Z"/><path d="M535.06,511.44H524.49V114.92Zm0,0Z"/><path class="cls-6" d="M535.06,511.44H524.49V114.92Zm0,0Z"/><polygon points="524.49 114.92 535.06 114.92 535.06 511.44 524.49 114.92"/><polygon class="cls-6" points="524.49 114.92 535.06 114.92 535.06 511.44 524.49 114.92"/><polyline class="cls-6" points="535.06 546.25 535.06 114.92 524.49 114.92 524.49 511.44"/><path d="M498.39,200.38h0Z"/><path class="cls-6" d="M498.39,200.38h0Z"/><path d="M524.49,205.35H493.11l5.28-5Zm0,0Z"/><path class="cls-6" d="M524.49,205.35H493.11l5.28-5Zm0,0Z"/><polygon points="498.39 200.38 524.49 200.38 524.49 205.35 498.39 200.38"/><polygon class="cls-6" points="498.39 200.38 524.49 200.38 524.49 205.35 498.39 200.38"/><polyline class="cls-6" points="493.11 205.35 524.49 205.35 524.49 200.38 498.39 200.38"/><polygon points="493.11 162.15 498.39 167.44 493.11 167.44 493.11 162.15"/><polygon class="cls-6" points="493.11 162.15 498.39 167.44 493.11 167.44 493.11 162.15"/><path d="M493.11,200.38h5.28l-5.28,5Zm0-32.94v32.94h5.28Z"/><path class="cls-6" d="M493.11,200.38h5.28l-5.28,5Zm0-32.94v32.94h5.28Z"/><polygon points="493.11 167.44 498.39 167.44 498.39 200.38 493.11 167.44"/><polygon class="cls-6" points="493.11 167.44 498.39 167.44 498.39 200.38 493.11 167.44"/><line class="cls-6" x1="493.11" y1="162.15" x2="493.11" y2="205.35"/><line class="cls-6" x1="498.39" y1="200.38" x2="498.39" y2="167.44"/><path d="M524.49,162.15h0Z"/><path class="cls-6" d="M524.49,162.15h0Z"/><path d="M524.49,167.44h-26.1l-5.28-5.29Zm0,0Z"/><path class="cls-6" d="M524.49,167.44h-26.1l-5.28-5.29Zm0,0Z"/><polygon points="493.11 162.15 524.49 162.15 524.49 167.44 493.11 162.15"/><polygon class="cls-6" points="493.11 162.15 524.49 162.15 524.49 167.44 493.11 162.15"/><polyline class="cls-6" points="498.39 167.44 524.49 167.44 524.49 162.15 493.11 162.15"/><line class="cls-6" x1="535.06" y1="114.92" x2="535.06" y2="118.34"/><line class="cls-6" x1="535.06" y1="114.92" x2="535.06" y2="118.34"/><path d="M.25,462.34h0Z"/><path class="cls-6" d="M.25,462.34h0Z"/><path d="M13.3,511.44H.25v-49.1Zm0,0Z"/><path class="cls-6" d="M13.3,511.44H.25v-49.1Zm0,0Z"/><polygon points="0.25 462.34 13.3 462.34 13.3 511.44 0.25 462.34"/><polygon class="cls-6" points="0.25 462.34 13.3 462.34 13.3 511.44 0.25 462.34"/><polyline class="cls-6" points="13.3 511.44 13.3 462.34 0.25 462.34 0.25 546.25"/><path d="M524.49.25l.62,114.67h-.62Zm.62,0h-.62l.62,114.67Z"/><path class="cls-6" d="M524.49.25l.62,114.67h-.62Zm.62,0h-.62l.62,114.67Z"/><path d="M525.11.25h0Z"/><path class="cls-6" d="M525.11.25h0Z"/><path d="M535.06,114.92h-9.95V.25Zm0,0Z"/><path class="cls-6" d="M535.06,114.92h-9.95V.25Zm0,0Z"/><polygon points="525.11 0.25 535.06 0.25 535.06 114.92 525.11 0.25"/><polygon class="cls-6" points="525.11 0.25 535.06 0.25 535.06 114.92 525.11 0.25"/><line class="cls-6" x1="525.11" y1="0.25" x2="525.11" y2="114.92"/><line class="cls-6" x1="524.49" y1="0.25" x2="524.49" y2="114.92"/><line class="cls-6" x1="535.06" y1="114.92" x2="525.11" y2="114.92"/><line class="cls-6" x1="525.11" y1="114.92" x2="524.49" y2="114.92"/><polyline class="cls-6" points="535.06 114.92 535.06 0.25 525.11 0.25"/><line class="cls-6" x1="525.11" y1="0.25" x2="524.49" y2="0.25"/><path d="M.25,239.53h0Z"/><path class="cls-6" d="M.25,239.53h0Z"/><path d="M13.3,305.1H.25V239.53Zm0,0Z"/><path class="cls-6" d="M13.3,305.1H.25V239.53Zm0,0Z"/><polygon points="0.25 239.53 13.3 239.53 13.3 305.1 0.25 239.53"/><polygon class="cls-6" points="0.25 239.53 13.3 239.53 13.3 305.1 0.25 239.53"/><polyline class="cls-6" points="13.3 305.1 13.3 239.53 0.25 239.53 0.25 305.1 13.3 305.1"/><path d="M13.3,239.53H.25V13.61Zm0,0Z"/><path class="cls-6" d="M13.3,239.53H.25V13.61Zm0,0Z"/><polygon points="0.25 13.61 13.3 13.61 13.3 239.53 0.25 13.61"/><polygon class="cls-6" points="0.25 13.61 13.3 13.61 13.3 239.53 0.25 13.61"/><polyline class="cls-6" points="13.3 239.53 13.3 13.61 0.25 13.61 0.25 239.53 13.3 239.53"/><path d="M.25,305.1h0Z"/><path class="cls-6" d="M.25,305.1h0Z"/><path d="M13.3,462.34H.25V305.1Zm0,0Z"/><path class="cls-6" d="M13.3,462.34H.25V305.1Zm0,0Z"/><polygon points="0.25 305.1 13.3 305.1 13.3 462.34 0.25 305.1"/><polygon class="cls-6" points="0.25 305.1 13.3 305.1 13.3 462.34 0.25 305.1"/><polyline class="cls-6" points="13.3 462.34 13.3 305.1 0.25 305.1 0.25 462.34 13.3 462.34"/><polyline class="cls-6" points="100.62 583.85 100.62 546.25 102.18 546.25 102.18 585.4 100.62 583.85"/><polyline class="cls-6" points="38.78 585.4 38.78 546.25 40.34 546.25 40.34 583.85 100.62 583.85 102.18 585.4 38.78 585.4 40.34 583.85 38.78 585.4"/><polyline class="cls-6" points="39.41 584.78 101.25 584.78 101.25 546.25"/><polyline class="cls-6" points="41.89 573.59 99.07 573.59 99.07 552.77 41.89 552.77 41.89 573.59"/><polyline class="cls-6" points="41.89 571.73 99.07 571.73 99.07 552.77 41.89 552.77 41.89 571.73"/><line class="cls-6" x1="39.4" y1="584.78" x2="39.4" y2="546.24"/><polyline class="cls-6" points="524.49 162.15 524.49 123 485.03 123 485.03 162.15 504.92 162.15 524.49 162.15"/><polyline class="cls-6" points="521.7 159.67 521.7 125.48 487.82 125.48 487.82 159.67 504.92 159.67 521.7 159.67"/><path d="M33.19,185.15h5.28v5.28Zm0-81.73v81.73h5.28Z"/><path class="cls-6" d="M33.19,185.15h5.28v5.28Zm0-81.73v81.73h5.28Z"/><polygon points="33.19 103.42 38.47 103.42 38.47 185.15 33.19 103.42"/><polygon class="cls-6" points="33.19 103.42 38.47 103.42 38.47 185.15 33.19 103.42"/><line class="cls-6" x1="38.47" y1="190.43" x2="38.47" y2="103.42"/><line class="cls-6" x1="33.19" y1="103.42" x2="33.19" y2="185.15"/><path d="M286.77,227.72l5,11.81h-5Zm5,0h-5l5,11.81Z"/><path class="cls-6" d="M286.77,227.72l5,11.81h-5Zm5,0h-5l5,11.81Z"/><path d="M286.77,13.61l5,155.07h-5Zm5,0h-5l5,155.07Z"/><path class="cls-6" d="M286.77,13.61l5,155.07h-5Zm5,0h-5l5,155.07Z"/><line class="cls-6" x1="291.74" y1="227.72" x2="286.77" y2="227.72"/><line class="cls-6" x1="291.74" y1="168.68" x2="286.77" y2="168.68"/><line class="cls-6" x1="291.74" y1="239.53" x2="291.74" y2="227.72"/><polyline class="cls-6" points="291.74 168.68 291.74 13.61 286.76 13.61 286.76 168.68"/><line class="cls-6" x1="286.77" y1="227.72" x2="286.77" y2="239.53"/><path class="cls-6" d="M345.19,225.08a53.61,53.61,0,0,0-53.61-53.6"/><path d="M286.77,168.68h0Z"/><path class="cls-6" d="M286.77,168.68h0Z"/><path d="M291.74,171.48h-5v-2.8Zm0,0Z"/><path class="cls-6" d="M291.74,171.48h-5v-2.8Zm0,0Z"/><polygon points="286.76 168.68 291.74 168.68 291.74 171.47 286.76 168.68"/><polygon class="cls-6" points="286.76 168.68 291.74 168.68 291.74 171.47 286.76 168.68"/><path d="M286.77,225.24h0Z"/><path class="cls-6" d="M286.77,225.24h0Z"/><path d="M291.74,227.72h-5v-2.48Zm0,0Z"/><path class="cls-6" d="M291.74,227.72h-5v-2.48Zm0,0Z"/><polygon points="286.76 225.24 291.74 225.24 291.74 227.72 286.76 225.24"/><polygon class="cls-6" points="286.76 225.24 291.74 225.24 291.74 227.72 286.76 225.24"/><polyline class="cls-6" points="286.76 168.68 286.76 171.47 291.74 171.47 291.74 168.68 286.76 168.68"/><polyline class="cls-6" points="291.74 227.72 291.74 225.24 286.76 225.24 286.76 227.72 291.74 227.72"/><line class="cls-6" x1="291.74" y1="225.24" x2="345.5" y2="225.24"/><line class="cls-6" x1="291.74" y1="168.68" x2="286.77" y2="168.68"/><line class="cls-6" x1="291.74" y1="227.72" x2="286.77" y2="227.72"/><path d="M247.3,305.1h0Z"/><path class="cls-6" d="M247.3,305.1h0Z"/><path d="M252.58,464.83H247.3V305.1Zm0,0Z"/><path class="cls-6" d="M252.58,464.83H247.3V305.1Zm0,0Z"/><polygon points="247.3 305.1 252.58 305.1 252.58 464.83 247.3 305.1"/><polygon class="cls-6" points="247.3 305.1 252.58 305.1 252.58 464.83 247.3 305.1"/><polyline class="cls-6" points="247.3 305.1 247.3 464.83 252.58 464.83 252.58 305.1 247.3 305.1"/><path d="M252.58,239.53,339,244.81H252.58Zm86.39,0H252.58L339,244.81Z"/><path class="cls-6" d="M252.58,239.53,339,244.81H252.58Zm86.39,0H252.58L339,244.81Z"/><path d="M485,239.53h0Z"/><path class="cls-6" d="M485,239.53h0Z"/><path d="M527,244.81H485v-5.28Zm0,0Z"/><path class="cls-6" d="M527,244.81H485v-5.28Zm0,0Z"/><polygon points="485.03 239.53 526.98 239.53 526.98 244.81 485.03 239.53"/><polygon class="cls-6" points="485.03 239.53 526.98 239.53 526.98 244.81 485.03 239.53"/><line class="cls-6" x1="485.03" y1="244.81" x2="485.03" y2="239.53"/><polyline class="cls-6" points="252.58 244.81 338.97 244.81 338.97 239.53"/><polyline class="cls-6" points="485.03 244.81 526.98 244.81 526.98 239.53 485.03 239.53"/><line class="cls-6" x1="338.97" y1="239.53" x2="291.74" y2="239.53"/><polyline class="cls-6" points="286.76 239.53 252.58 239.53 252.58 244.81"/><polyline class="cls-6" points="338.97 239.53 338.97 244.81 372.22 260.35 405.47 244.81 438.72 260.35 471.98 244.81"/><line class="cls-6" x1="485.03" y1="244.81" x2="485.03" y2="239.53"/><path d="M13.3,239.53h0Z"/><path class="cls-6" d="M13.3,239.53h0Z"/><path d="M180.49,244.81H13.3v-5.28Zm0,0Z"/><path class="cls-6" d="M180.49,244.81H13.3v-5.28Zm0,0Z"/><polygon points="13.3 239.53 180.49 239.53 180.49 244.81 13.3 239.53"/><polygon class="cls-6" points="13.3 239.53 180.49 239.53 180.49 244.81 13.3 239.53"/><line class="cls-6" x1="239.53" y1="244.81" x2="239.53" y2="239.53"/><polyline class="cls-6" points="13.3 244.81 180.49 244.81 180.49 239.53 154.38 239.53"/><polyline class="cls-6" points="149.1 239.53 13.3 239.53 13.3 244.81"/><path class="cls-6" d="M183,244.66a53.61,53.61,0,0,0,53.61,53.6"/><path d="M180.49,239.53h0Z"/><path class="cls-6" d="M180.49,239.53h0Z"/><path d="M183,244.81h-2.48v-5.28Zm0,0Z"/><path class="cls-6" d="M183,244.81h-2.48v-5.28Zm0,0Z"/><polygon points="180.49 239.53 182.97 239.53 182.97 244.81 180.49 239.53"/><polygon class="cls-6" points="180.49 239.53 182.97 239.53 182.97 244.81 180.49 239.53"/><path d="M236.73,239.53h0Z"/><path class="cls-6" d="M236.73,239.53h0Z"/><path d="M239.53,244.81h-2.8v-5.28Zm0,0Z"/><path class="cls-6" d="M239.53,244.81h-2.8v-5.28Zm0,0Z"/><polygon points="236.73 239.53 239.53 239.53 239.53 244.81 236.73 239.53"/><polygon class="cls-6" points="236.73 239.53 239.53 239.53 239.53 244.81 236.73 239.53"/><polyline class="cls-6" points="180.49 239.53 182.97 239.53 182.97 244.81 180.49 244.81 180.49 239.53"/><polyline class="cls-6" points="239.53 244.81 236.73 244.81 236.73 239.53 239.53 239.53 239.53 244.81"/><line class="cls-6" x1="236.73" y1="244.81" x2="236.73" y2="298.57"/><line class="cls-6" x1="180.49" y1="244.81" x2="180.49" y2="239.53"/><line class="cls-6" x1="239.53" y1="244.81" x2="239.53" y2="239.53"/><path d="M149.1,190.43l5.28,49.1H149.1Zm5.28,0H149.1l5.28,49.1Z"/><path class="cls-6" d="M149.1,190.43l5.28,49.1H149.1Zm5.28,0H149.1l5.28,49.1Z"/><path d="M149.1,87.26l5.28,50.65H149.1Zm5.28,0H149.1l5.28,50.65Z"/><path class="cls-6" d="M149.1,87.26l5.28,50.65H149.1Zm5.28,0H149.1l5.28,50.65Z"/><path d="M149.1,10.19l5.28,24.86H149.1Zm5.28,0H149.1l5.28,24.86Z"/><path class="cls-6" d="M149.1,10.19l5.28,24.86H149.1Zm5.28,0H149.1l5.28,24.86Z"/><line class="cls-6" x1="154.38" y1="137.91" x2="149.1" y2="137.91"/><line class="cls-6" x1="154.38" y1="190.43" x2="149.1" y2="190.43"/><line class="cls-6" x1="149.1" y1="35.05" x2="154.38" y2="35.05"/><line class="cls-6" x1="149.1" y1="87.26" x2="154.38" y2="87.26"/><line class="cls-6" x1="149.1" y1="10.19" x2="149.1" y2="35.05"/><line class="cls-6" x1="149.1" y1="87.26" x2="149.1" y2="98.14"/><line class="cls-6" x1="149.1" y1="103.42" x2="149.1" y2="137.91"/><line class="cls-6" x1="149.1" y1="190.43" x2="149.1" y2="239.53"/><line class="cls-6" x1="154.38" y1="239.53" x2="154.38" y2="190.43"/><line class="cls-6" x1="154.38" y1="137.91" x2="154.38" y2="87.26"/><polyline class="cls-6" points="154.38 35.05 154.38 10.19 149.1 10.19"/><path class="cls-6" d="M154.23,187.63a47.11,47.11,0,0,0,23.54-6.3"/><path d="M149.1,187.63h0Z"/><path class="cls-6" d="M149.1,187.63h0Z"/><path d="M154.38,190.43H149.1v-2.8Zm0,0Z"/><path class="cls-6" d="M154.38,190.43H149.1v-2.8Zm0,0Z"/><polygon points="149.1 187.63 154.38 187.63 154.38 190.43 149.1 187.63"/><polygon class="cls-6" points="149.1 187.63 154.38 187.63 154.38 190.43 149.1 187.63"/><path d="M149.1,137.91h0Z"/><path class="cls-6" d="M149.1,137.91h0Z"/><path d="M154.38,140.71H149.1v-2.8Zm0,0Z"/><path class="cls-6" d="M154.38,140.71H149.1v-2.8Zm0,0Z"/><polygon points="149.1 137.91 154.38 137.91 154.38 140.71 149.1 137.91"/><polygon class="cls-6" points="149.1 137.91 154.38 137.91 154.38 140.71 149.1 137.91"/><polyline class="cls-6" points="149.1 190.43 149.1 187.63 154.38 187.63 154.38 190.43 149.1 190.43"/><polyline class="cls-6" points="154.38 137.91 154.38 140.71 149.1 140.71 149.1 137.91 154.38 137.91"/><line class="cls-6" x1="154.38" y1="140.71" x2="178" y2="181.42"/><line class="cls-6" x1="154.38" y1="190.43" x2="149.1" y2="190.43"/><line class="cls-6" x1="154.38" y1="137.91" x2="149.1" y2="137.91"/><path class="cls-6" d="M125.41,78.16A47.06,47.06,0,0,0,149,84.46"/><path d="M149.1,84.78h0Z"/><path class="cls-6" d="M149.1,84.78h0Z"/><path d="M154.38,87.26H149.1V84.78Zm0,0Z"/><path class="cls-6" d="M154.38,87.26H149.1V84.78Zm0,0Z"/><polygon points="149.1 84.78 154.38 84.78 154.38 87.26 149.1 84.78"/><polygon class="cls-6" points="149.1 84.78 154.38 84.78 154.38 87.26 149.1 84.78"/><path d="M149.1,35.05h0Z"/><path class="cls-6" d="M149.1,35.05h0Z"/><path d="M154.38,37.54H149.1V35.05Zm0,0Z"/><path class="cls-6" d="M154.38,37.54H149.1V35.05Zm0,0Z"/><polygon points="149.1 35.05 154.38 35.05 154.38 37.54 149.1 35.05"/><polygon class="cls-6" points="149.1 35.05 154.38 35.05 154.38 37.54 149.1 35.05"/><polyline class="cls-6" points="154.38 87.26 154.38 84.78 149.1 84.78 149.1 87.26 154.38 87.26"/><polyline class="cls-6" points="149.1 35.05 149.1 37.54 154.38 37.54 154.38 35.05 149.1 35.05"/><line class="cls-6" x1="149.1" y1="37.54" x2="125.48" y2="78.25"/><line class="cls-6" x1="149.1" y1="87.26" x2="154.38" y2="87.26"/><line class="cls-6" x1="149.1" y1="35.05" x2="154.38" y2="35.05"/><path d="M13.3,98.14l135.8,5.28H13.3Zm135.8,0H13.3l135.8,5.28Z"/><path class="cls-6" d="M13.3,98.14l135.8,5.28H13.3Zm135.8,0H13.3l135.8,5.28Z"/><polyline class="cls-6" points="149.1 98.14 13.3 98.14 13.3 103.42 33.19 103.42"/><line class="cls-6" x1="38.47" y1="103.42" x2="149.1" y2="103.42"/><path d="M13.3,185.15l25.17,5.28H13.3Zm19.89,0H13.3l25.17,5.28Z"/><path class="cls-6" d="M13.3,185.15l25.17,5.28H13.3Zm19.89,0H13.3l25.17,5.28Z"/><polyline class="cls-6" points="33.19 185.15 13.3 185.15 13.3 190.43 38.47 190.43"/><line class="cls-6" x1="274.34" y1="546.24" x2="328.41" y2="546.24"/><line class="cls-6" x1="356.06" y1="546.24" x2="374.71" y2="546.24"/><line class="cls-6" x1="402.37" y1="546.24" x2="421.01" y2="546.24"/><line class="cls-6" x1="448.67" y1="546.24" x2="502.74" y2="546.24"/><polyline class="cls-6" points="485.03 162.15 485.03 52.77 291.74 52.77"/><polyline points="535.06 546.25 532.26 546.25 532.26 538.48 535.06 546.25"/><polyline points="535.06 538.48 532.26 538.48 535.06 546.25"/><polyline class="cls-6" points="535.06 546.25 532.26 546.25 532.26 538.48 535.06 546.25"/><polyline class="cls-6" points="535.06 538.48 532.26 538.48 535.06 546.25"/><polyline points="535.06 537.54 532.26 537.54 535.06 537.54"/><polyline class="cls-6" points="535.06 537.54 532.26 537.54 535.06 537.54"/><polyline points="535.06 538.48 532.26 538.48 532.26 537.54 535.06 538.48"/><polyline points="535.06 537.54 532.26 537.54 535.06 538.48"/><polyline class="cls-6" points="535.06 538.48 532.26 538.48 532.26 537.54 535.06 538.48"/><polyline class="cls-6" points="535.06 537.54 532.26 537.54 535.06 538.48"/><polyline points="535.06 527.91 532.26 527.91 535.06 527.91"/><polyline class="cls-6" points="535.06 527.91 532.26 527.91 535.06 527.91"/><polyline points="535.06 535.06 532.26 535.06 532.26 527.91 535.06 535.06"/><polyline points="535.06 527.91 532.26 527.91 535.06 535.06"/><polyline class="cls-6" points="535.06 535.06 532.26 535.06 532.26 527.91 535.06 535.06"/><polyline class="cls-6" points="535.06 527.91 532.26 527.91 535.06 535.06"/><polyline points="535.06 537.54 532.26 537.54 532.26 535.06 535.06 537.54"/><polyline points="535.06 535.06 532.26 535.06 535.06 537.54"/><polyline class="cls-6" points="535.06 537.54 532.26 537.54 532.26 535.06 535.06 537.54"/><polyline class="cls-6" points="535.06 535.06 532.26 535.06 535.06 537.54"/><polyline points="535.06 527.91 532.26 527.91 532.26 511.44 535.06 527.91"/><polyline points="535.06 511.44 532.26 511.44 535.06 527.91"/><polyline class="cls-6" points="535.06 527.91 532.26 527.91 532.26 511.44 535.06 527.91"/><polyline class="cls-6" points="535.06 511.44 532.26 511.44 535.06 527.91"/><line class="cls-6" x1="532.26" y1="538.48" x2="535.06" y2="538.48"/><line class="cls-6" x1="532.26" y1="537.54" x2="535.06" y2="537.54"/><line class="cls-6" x1="532.26" y1="546.24" x2="535.06" y2="546.24"/><line class="cls-6" x1="535.06" y1="511.44" x2="532.26" y2="511.44"/><path d="M246.06,538.48l24.24,7.76H246.06Zm24.24,0H246.06l24.24,7.76Z"/><path class="cls-6" d="M246.06,538.48l24.24,7.76H246.06Zm24.24,0H246.06l24.24,7.76Z"/><path d="M532.26,538.48h0Zm0,0Z"/><path class="cls-6" d="M532.26,538.48h0Zm0,0Z"/><path d="M532.26,546.24H500.87v-7.76Zm0,0Z"/><path class="cls-6" d="M532.26,546.24H500.87v-7.76Zm0,0Z"/><polygon points="500.88 538.48 532.26 538.48 532.26 546.25 500.88 538.48"/><polygon class="cls-6" points="500.88 538.48 532.26 538.48 532.26 546.25 500.88 538.48"/><path d="M246.06,537.54l21.44.94H246.06Zm21.44,0H246.06l21.44.94Z"/><path class="cls-6" d="M246.06,537.54l21.44.94H246.06Zm21.44,0H246.06l21.44.94Z"/><path d="M503.36,537.54h0Z"/><path class="cls-6" d="M503.36,537.54h0Z"/><path d="M532.26,538.48h-28.9v-.94Zm0,0Z"/><path class="cls-6" d="M532.26,538.48h-28.9v-.94Zm0,0Z"/><polygon points="503.36 537.54 532.26 537.54 532.26 538.48 503.36 537.54"/><polygon class="cls-6" points="503.36 537.54 532.26 537.54 532.26 538.48 503.36 537.54"/><path d="M246.06,527.91l21.44,7.15H246.06Zm21.44,0H246.06l21.44,7.15Z"/><path class="cls-6" d="M246.06,527.91l21.44,7.15H246.06Zm21.44,0H246.06l21.44,7.15Z"/><path d="M246.06,535.06l21.44,2.48H246.06Zm21.44,0H246.06l21.44,2.48Z"/><path class="cls-6" d="M246.06,535.06l21.44,2.48H246.06Zm21.44,0H246.06l21.44,2.48Z"/><path d="M503.36,527.91h0Z"/><path class="cls-6" d="M503.36,527.91h0Z"/><path d="M503.36,527.91l28.9,7.15h-28.9Zm28.9,0h-28.9l28.9,7.15Z"/><path class="cls-6" d="M503.36,527.91l28.9,7.15h-28.9Zm28.9,0h-28.9l28.9,7.15Z"/><path d="M532.26,537.54h-28.9v-2.48Zm0,0Z"/><path class="cls-6" d="M532.26,537.54h-28.9v-2.48Zm0,0Z"/><polygon points="503.36 535.06 532.26 535.06 532.26 537.54 503.36 535.06"/><polygon class="cls-6" points="503.36 535.06 532.26 535.06 532.26 537.54 503.36 535.06"/><path d="M524.49,511.44h0Z"/><path class="cls-6" d="M524.49,511.44h0Z"/><path d="M532.26,527.91h-7.77V511.44Zm0,0Z"/><path class="cls-6" d="M532.26,527.91h-7.77V511.44Zm0,0Z"/><polygon points="524.49 511.44 532.26 511.44 532.26 527.91 524.49 511.44"/><polygon class="cls-6" points="524.49 511.44 532.26 511.44 532.26 527.91 524.49 511.44"/><path d="M252.58,511.44l14.92,16.47H252.58Zm14.92,0H252.58l14.92,16.47Z"/><path class="cls-6" d="M252.58,511.44l14.92,16.47H252.58Zm14.92,0H252.58l14.92,16.47Z"/><path d="M503.36,511.44h0Z"/><path class="cls-6" d="M503.36,511.44h0Z"/><path d="M524.49,527.91H503.36V511.44Zm0,0Z"/><path class="cls-6" d="M524.49,527.91H503.36V511.44Zm0,0Z"/><polygon points="503.36 511.44 524.49 511.44 524.49 527.91 503.36 511.44"/><polygon class="cls-6" points="503.36 511.44 524.49 511.44 524.49 527.91 503.36 511.44"/><path d="M246.06,511.44h0Z"/><path class="cls-6" d="M246.06,511.44h0Z"/><path d="M252.58,527.91h-6.52V511.44Zm0,0Z"/><path class="cls-6" d="M252.58,527.91h-6.52V511.44Zm0,0Z"/><polygon points="246.06 511.44 252.58 511.44 252.58 527.91 246.06 511.44"/><polygon class="cls-6" points="246.06 511.44 252.58 511.44 252.58 527.91 246.06 511.44"/><line class="cls-6" x1="503.36" y1="538.48" x2="532.26" y2="538.48"/><line class="cls-6" x1="246.06" y1="538.48" x2="267.5" y2="538.48"/><line class="cls-6" x1="503.36" y1="537.54" x2="532.26" y2="537.54"/><line class="cls-6" x1="246.06" y1="537.54" x2="267.5" y2="537.54"/><line class="cls-6" x1="524.49" y1="511.44" x2="524.49" y2="527.91"/><line class="cls-6" x1="252.58" y1="527.91" x2="252.58" y2="511.44"/><polyline class="cls-6" points="267.5 535.06 267.5 527.91 267.5 511.44"/><polyline class="cls-6" points="270.3 546.25 270.3 538.48 267.5 538.48"/><polyline class="cls-6" points="267.5 538.48 267.5 537.54 267.5 535.06"/><polyline class="cls-6" points="503.36 535.06 503.36 527.91 503.36 511.44"/><polyline class="cls-6" points="500.88 546.25 500.88 538.48 503.36 538.48"/><polyline class="cls-6" points="503.36 538.48 503.36 537.54 503.36 535.06"/><line class="cls-6" x1="246.06" y1="546.24" x2="270.3" y2="546.24"/><line class="cls-6" x1="500.87" y1="546.24" x2="532.26" y2="546.24"/><line class="cls-6" x1="524.49" y1="511.44" x2="503.36" y2="511.44"/><line class="cls-6" x1="267.5" y1="511.44" x2="252.58" y2="511.44"/><line class="cls-6" x1="270.3" y1="546.24" x2="330.58" y2="546.24"/><line class="cls-6" x1="267.5" y1="511.44" x2="333.07" y2="511.44"/><path d="M267.5,535.06h0Z"/><path class="cls-6" d="M267.5,535.06h0Z"/><path d="M275.58,538.48H267.5v-3.42Zm0,0Z"/><path class="cls-6" d="M275.58,538.48H267.5v-3.42Zm0,0Z"/><polygon points="267.5 535.06 275.58 535.06 275.58 538.48 267.5 535.06"/><polygon class="cls-6" points="267.5 535.06 275.58 535.06 275.58 538.48 267.5 535.06"/><path d="M325.3,535.06h0Z"/><path class="cls-6" d="M325.3,535.06h0Z"/><path d="M333.07,538.48H325.3v-3.42Zm0,0Z"/><path class="cls-6" d="M333.07,538.48H325.3v-3.42Zm0,0Z"/><polygon points="325.3 535.06 333.07 535.06 333.07 538.48 325.3 535.06"/><polygon class="cls-6" points="325.3 535.06 333.07 535.06 333.07 538.48 325.3 535.06"/><polyline class="cls-6" points="267.5 538.48 275.58 538.48 275.58 535.06 267.5 535.06"/><polyline class="cls-6" points="333.07 535.06 325.3 535.06 325.3 538.48 333.07 538.48"/><line class="cls-6" x1="275.58" y1="538.48" x2="325.3" y2="538.48"/><line class="cls-6" x1="325.3" y1="535.06" x2="275.58" y2="535.06"/><polyline class="cls-6" points="270.3 538.48 267.5 538.48 267.5 537.54 267.5 535.06"/><polyline class="cls-6" points="330.58 538.48 333.07 538.48 333.07 537.54 333.07 535.06"/><line class="cls-6" x1="389.62" y1="546.24" x2="500.87" y2="546.24"/><line class="cls-6" x1="386.83" y1="511.44" x2="503.36" y2="511.44"/><path d="M386.83,535.06h0Z"/><path class="cls-6" d="M386.83,535.06h0Z"/><path d="M394.6,538.48h-7.77v-3.42Zm0,0Z"/><path class="cls-6" d="M394.6,538.48h-7.77v-3.42Zm0,0Z"/><polygon points="386.83 535.06 394.6 535.06 394.6 538.48 386.83 535.06"/><polygon class="cls-6" points="386.83 535.06 394.6 535.06 394.6 538.48 386.83 535.06"/><path d="M442.45,535.06h0Z"/><path class="cls-6" d="M442.45,535.06h0Z"/><path d="M445.25,538.48h-2.8v-3.42Zm0,0Z"/><path class="cls-6" d="M445.25,538.48h-2.8v-3.42Zm0,0Z"/><polygon points="442.45 535.06 445.25 535.06 445.25 538.48 442.45 535.06"/><polygon class="cls-6" points="442.45 535.06 445.25 535.06 445.25 538.48 442.45 535.06"/><path d="M445.25,535.06h0Z"/><path class="cls-6" d="M445.25,535.06h0Z"/><path d="M447.74,538.48h-2.49v-3.42Zm0,0Z"/><path class="cls-6" d="M447.74,538.48h-2.49v-3.42Zm0,0Z"/><polygon points="445.25 535.06 447.74 535.06 447.74 538.48 445.25 535.06"/><polygon class="cls-6" points="445.25 535.06 447.74 535.06 447.74 538.48 445.25 535.06"/><path d="M495.59,535.06h0Z"/><path class="cls-6" d="M495.59,535.06h0Z"/><path d="M503.36,538.48h-7.77v-3.42Zm0,0Z"/><path class="cls-6" d="M503.36,538.48h-7.77v-3.42Zm0,0Z"/><polygon points="495.59 535.06 503.36 535.06 503.36 538.48 495.59 535.06"/><polygon class="cls-6" points="495.59 535.06 503.36 535.06 503.36 538.48 495.59 535.06"/><polyline class="cls-6" points="386.83 538.48 394.6 538.48 394.6 535.06 386.83 535.06"/><polyline class="cls-6" points="445.25 535.06 442.45 535.06 442.45 538.48 445.25 538.48"/><line class="cls-6" x1="394.6" y1="538.48" x2="442.45" y2="538.48"/><line class="cls-6" x1="442.45" y1="535.06" x2="394.6" y2="535.06"/><polyline class="cls-6" points="445.25 538.48 447.74 538.48 447.74 535.06 445.25 535.06"/><polyline class="cls-6" points="503.36 535.06 495.59 535.06 495.59 538.48 503.36 538.48"/><line class="cls-6" x1="447.74" y1="538.48" x2="495.59" y2="538.48"/><line class="cls-6" x1="495.59" y1="535.06" x2="447.74" y2="535.06"/><polyline class="cls-6" points="389.63 538.48 386.83 538.48 386.83 537.54 386.83 535.06"/><polyline class="cls-6" points="500.88 538.48 503.36 538.48 503.36 537.54 503.36 535.06"/><line class="cls-6" x1="329.96" y1="546.24" x2="390.25" y2="546.24"/><line class="cls-6" x1="327.16" y1="511.44" x2="392.73" y2="511.44"/><path d="M327.16,535.06h0Z"/><path class="cls-6" d="M327.16,535.06h0Z"/><path d="M335.24,538.48h-8.08v-3.42Zm0,0Z"/><path class="cls-6" d="M335.24,538.48h-8.08v-3.42Zm0,0Z"/><polygon points="327.16 535.06 335.24 535.06 335.24 538.48 327.16 535.06"/><polygon class="cls-6" points="327.16 535.06 335.24 535.06 335.24 538.48 327.16 535.06"/><path d="M385,535.06h0Z"/><path class="cls-6" d="M385,535.06h0Z"/><path d="M392.73,538.48H385v-3.42Zm0,0Z"/><path class="cls-6" d="M392.73,538.48H385v-3.42Zm0,0Z"/><polygon points="384.96 535.06 392.73 535.06 392.73 538.48 384.96 535.06"/><polygon class="cls-6" points="384.96 535.06 392.73 535.06 392.73 538.48 384.96 535.06"/><polyline class="cls-6" points="327.16 538.48 335.24 538.48 335.24 535.06 327.16 535.06"/><polyline class="cls-6" points="392.73 535.06 384.96 535.06 384.96 538.48 392.73 538.48"/><line class="cls-6" x1="335.24" y1="538.48" x2="384.96" y2="538.48"/><line class="cls-6" x1="384.96" y1="535.06" x2="335.24" y2="535.06"/><polyline class="cls-6" points="329.96 538.48 327.16 538.48 327.16 537.54 327.16 535.06"/><polyline class="cls-6" points="390.25 538.48 392.73 538.48 392.73 537.54 392.73 535.06"/><polyline points="0.25 538.48 40.34 546.25 0.25 546.25"/><polyline points="0.25 546.25 40.34 546.25 40.34 546.25 0.25 546.25"/><polyline class="cls-6" points="0.25 538.48 40.34 546.25 0.25 546.25"/><polyline class="cls-6" points="0.25 546.25 40.34 546.25 40.34 546.25 0.25 546.25"/><polyline points="0.25 538.48 40.34 538.48 40.34 546.25 0.25 538.48"/><polyline class="cls-6" points="0.25 538.48 40.34 538.48 40.34 546.25 0.25 538.48"/><path d="M246.06,538.48h0Zm0,0Z"/><path class="cls-6" d="M246.06,538.48h0Zm0,0Z"/><path d="M246.06,546.24H211.25v-7.76Zm0,0Z"/><path class="cls-6" d="M246.06,546.24H211.25v-7.76Zm0,0Z"/><polygon points="211.25 538.48 246.06 538.48 246.06 546.25 211.25 538.48"/><polygon class="cls-6" points="211.25 538.48 246.06 538.48 246.06 546.25 211.25 538.48"/><polyline points="0.25 537.54 37.54 537.54 0.25 537.54"/><polyline class="cls-6" points="0.25 537.54 37.54 537.54 0.25 537.54"/><polyline points="0.25 537.54 37.54 538.48 0.25 538.48"/><polyline points="0.25 538.48 37.54 538.48 37.54 538.48 0.25 538.48"/><polyline class="cls-6" points="0.25 537.54 37.54 538.48 0.25 538.48"/><polyline class="cls-6" points="0.25 538.48 37.54 538.48 37.54 538.48 0.25 538.48"/><polyline points="0.25 537.54 37.54 537.54 37.54 538.48 0.25 537.54"/><polyline class="cls-6" points="0.25 537.54 37.54 537.54 37.54 538.48 0.25 537.54"/><path d="M214.05,537.54h0Z"/><path class="cls-6" d="M214.05,537.54h0Z"/><path d="M246.06,538.48h-32v-.94Zm0,0Z"/><path class="cls-6" d="M246.06,538.48h-32v-.94Zm0,0Z"/><polygon points="214.05 537.54 246.06 537.54 246.06 538.48 214.05 537.54"/><polygon class="cls-6" points="214.05 537.54 246.06 537.54 246.06 538.48 214.05 537.54"/><polyline points="0.25 527.91 37.54 527.91 0.25 527.91"/><polyline class="cls-6" points="0.25 527.91 37.54 527.91 0.25 527.91"/><polyline points="0.25 527.91 37.54 535.06 0.25 535.06"/><polyline points="0.25 527.91 37.54 535.06 37.54 527.91 0.25 527.91"/><polyline class="cls-6" points="0.25 527.91 37.54 535.06 0.25 535.06"/><polyline class="cls-6" points="0.25 527.91 37.54 535.06 37.54 527.91 0.25 527.91"/><polyline points="0.25 535.06 37.54 537.54 0.25 537.54"/><polyline points="0.25 537.54 37.54 537.54 37.54 537.54 0.25 537.54"/><polyline class="cls-6" points="0.25 535.06 37.54 537.54 0.25 537.54"/><polyline class="cls-6" points="0.25 537.54 37.54 537.54 37.54 537.54 0.25 537.54"/><polyline points="0.25 535.06 37.54 535.06 37.54 537.54 0.25 535.06"/><polyline class="cls-6" points="0.25 535.06 37.54 535.06 37.54 537.54 0.25 535.06"/><path d="M214.05,527.91h0Z"/><path class="cls-6" d="M214.05,527.91h0Z"/><path d="M214.05,527.91l32,7.15h-32Zm32,0h-32l32,7.15Z"/><path class="cls-6" d="M214.05,527.91l32,7.15h-32Zm32,0h-32l32,7.15Z"/><path d="M246.06,537.54h-32v-2.48Zm0,0Z"/><path class="cls-6" d="M246.06,537.54h-32v-2.48Zm0,0Z"/><polygon points="214.05 535.06 246.06 535.06 246.06 537.54 214.05 535.06"/><polygon class="cls-6" points="214.05 535.06 246.06 535.06 246.06 537.54 214.05 535.06"/><path d="M239.53,511.44h0Z"/><path class="cls-6" d="M239.53,511.44h0Z"/><path d="M246.06,527.91h-6.53V511.44Zm0,0Z"/><path class="cls-6" d="M246.06,527.91h-6.53V511.44Zm0,0Z"/><polygon points="239.53 511.44 246.06 511.44 246.06 527.91 239.53 511.44"/><polygon class="cls-6" points="239.53 511.44 246.06 511.44 246.06 527.91 239.53 511.44"/><path d="M37.54,511.44h0Z"/><path class="cls-6" d="M37.54,511.44h0Z"/><path d="M13.3,511.44l24.24,16.47H13.3Zm24.24,0H13.3l24.24,16.47Z"/><path class="cls-6" d="M13.3,511.44l24.24,16.47H13.3Zm24.24,0H13.3l24.24,16.47Z"/><path d="M214.05,511.44h0Z"/><path class="cls-6" d="M214.05,511.44h0Z"/><path d="M239.53,527.91H214.05V511.44Zm0,0Z"/><path class="cls-6" d="M239.53,527.91H214.05V511.44Zm0,0Z"/><polygon points="214.05 511.44 239.53 511.44 239.53 527.91 214.05 511.44"/><polygon class="cls-6" points="214.05 511.44 239.53 511.44 239.53 527.91 214.05 511.44"/><path d="M.25,511.44h0Z"/><path class="cls-6" d="M.25,511.44h0Z"/><path d="M13.3,527.91H.25V511.44Zm0,0Z"/><path class="cls-6" d="M13.3,527.91H.25V511.44Zm0,0Z"/><polygon points="0.25 511.44 13.3 511.44 13.3 527.91 0.25 511.44"/><polygon class="cls-6" points="0.25 511.44 13.3 511.44 13.3 527.91 0.25 511.44"/><polyline points="0.25 511.44 0.25 511.44 0.25 511.44"/><polyline class="cls-6" points="0.25 511.44 0.25 511.44 0.25 511.44"/><polyline points="0.25 511.44 0.25 527.91 0.25 527.91"/><polyline points="0.25 527.91 0.25 527.91 0.25 527.91 0.25 527.91"/><polyline class="cls-6" points="0.25 511.44 0.25 527.91 0.25 527.91"/><polyline class="cls-6" points="0.25 527.91 0.25 527.91 0.25 527.91 0.25 527.91"/><polyline points="0.25 511.44 0.25 511.44 0.25 527.91 0.25 511.44"/><polyline class="cls-6" points="0.25 511.44 0.25 511.44 0.25 527.91 0.25 511.44"/><line class="cls-6" x1="214.05" y1="538.48" x2="246.06" y2="538.48"/><line class="cls-6" x1="0.25" y1="538.48" x2="37.54" y2="538.48"/><line class="cls-6" x1="214.05" y1="537.54" x2="246.06" y2="537.54"/><line class="cls-6" x1="0.25" y1="537.54" x2="37.54" y2="537.54"/><line class="cls-6" x1="239.53" y1="511.44" x2="239.53" y2="527.91"/><line class="cls-6" x1="0.25" y1="511.44" x2="0.25" y2="527.91"/><line class="cls-6" x1="13.3" y1="527.91" x2="13.3" y2="511.44"/><polyline class="cls-6" points="214.05 535.06 214.05 527.91 214.05 511.44"/><polyline class="cls-6" points="211.25 546.25 211.25 538.48 214.05 538.48"/><polyline class="cls-6" points="214.05 538.48 214.05 537.54 214.05 535.06"/><polyline class="cls-6" points="37.54 535.06 37.54 527.91 37.54 511.44"/><polyline class="cls-6" points="40.34 546.25 40.34 538.48 37.54 538.48"/><polyline class="cls-6" points="37.54 538.48 37.54 537.54 37.54 535.06"/><line class="cls-6" x1="0.25" y1="546.24" x2="40.34" y2="546.24"/><line class="cls-6" x1="211.25" y1="546.24" x2="246.06" y2="546.24"/><line class="cls-6" x1="239.53" y1="511.44" x2="214.05" y2="511.44"/><line class="cls-6" x1="37.54" y1="511.44" x2="13.3" y2="511.44"/><line class="cls-6" x1="0.25" y1="511.44" x2="0.25" y2="511.44"/><line class="cls-6" x1="40.34" y1="546.24" x2="211.25" y2="546.24"/><line class="cls-6" x1="37.54" y1="511.44" x2="214.05" y2="511.44"/><path d="M37.54,535.06h0Z"/><path class="cls-6" d="M37.54,535.06h0Z"/><path d="M45.62,538.48H37.54v-3.42Zm0,0Z"/><path class="cls-6" d="M45.62,538.48H37.54v-3.42Zm0,0Z"/><polygon points="37.54 535.06 45.62 535.06 45.62 538.48 37.54 535.06"/><polygon class="cls-6" points="37.54 535.06 45.62 535.06 45.62 538.48 37.54 535.06"/><path d="M95.65,535.06h0Z"/><path class="cls-6" d="M95.65,535.06h0Z"/><path d="M98.14,538.48H95.65v-3.42Zm0,0Z"/><path class="cls-6" d="M98.14,538.48H95.65v-3.42Zm0,0Z"/><polygon points="95.65 535.06 98.14 535.06 98.14 538.48 95.65 535.06"/><polygon class="cls-6" points="95.65 535.06 98.14 535.06 98.14 538.48 95.65 535.06"/><path d="M98.14,535.06h0Z"/><path class="cls-6" d="M98.14,535.06h0Z"/><path d="M100.93,538.48H98.14v-3.42Zm0,0Z"/><path class="cls-6" d="M100.93,538.48H98.14v-3.42Zm0,0Z"/><polygon points="98.14 535.06 100.93 535.06 100.93 538.48 98.14 535.06"/><polygon class="cls-6" points="98.14 535.06 100.93 535.06 100.93 538.48 98.14 535.06"/><path d="M150.65,535.06h0Z"/><path class="cls-6" d="M150.65,535.06h0Z"/><path d="M153.45,538.48h-2.8v-3.42Zm0,0Z"/><path class="cls-6" d="M153.45,538.48h-2.8v-3.42Zm0,0Z"/><polygon points="150.66 535.06 153.45 535.06 153.45 538.48 150.66 535.06"/><polygon class="cls-6" points="150.66 535.06 153.45 535.06 153.45 538.48 150.66 535.06"/><path d="M153.45,535.06h0Z"/><path class="cls-6" d="M153.45,535.06h0Z"/><path d="M155.94,538.48h-2.49v-3.42Zm0,0Z"/><path class="cls-6" d="M155.94,538.48h-2.49v-3.42Zm0,0Z"/><polygon points="153.45 535.06 155.94 535.06 155.94 538.48 153.45 535.06"/><polygon class="cls-6" points="153.45 535.06 155.94 535.06 155.94 538.48 153.45 535.06"/><path d="M206,535.06h0Z"/><path class="cls-6" d="M206,535.06h0Z"/><path d="M214.05,538.48H206v-3.42Zm0,0Z"/><path class="cls-6" d="M214.05,538.48H206v-3.42Zm0,0Z"/><polygon points="205.97 535.06 214.05 535.06 214.05 538.48 205.97 535.06"/><polygon class="cls-6" points="205.97 535.06 214.05 535.06 214.05 538.48 205.97 535.06"/><polyline class="cls-6" points="37.54 538.48 45.62 538.48 45.62 535.06 37.54 535.06"/><polyline class="cls-6" points="98.14 535.06 95.65 535.06 95.65 538.48 98.14 538.48"/><line class="cls-6" x1="45.62" y1="538.48" x2="95.65" y2="538.48"/><line class="cls-6" x1="95.65" y1="535.06" x2="45.62" y2="535.06"/><polyline class="cls-6" points="98.14 538.48 100.93 538.48 100.93 535.06 98.14 535.06"/><polyline class="cls-6" points="153.45 535.06 150.66 535.06 150.66 538.48 153.45 538.48"/><line class="cls-6" x1="100.93" y1="538.48" x2="150.65" y2="538.48"/><line class="cls-6" x1="150.65" y1="535.06" x2="100.93" y2="535.06"/><polyline class="cls-6" points="153.45 538.48 155.94 538.48 155.94 535.06 153.45 535.06"/><polyline class="cls-6" points="214.05 535.06 205.97 535.06 205.97 538.48 214.05 538.48"/><line class="cls-6" x1="155.94" y1="538.48" x2="205.97" y2="538.48"/><line class="cls-6" x1="205.97" y1="535.06" x2="155.94" y2="535.06"/><polyline class="cls-6" points="40.34 538.48 37.54 538.48 37.54 537.54 37.54 535.06"/><polyline class="cls-6" points="211.25 538.48 214.05 538.48 214.05 537.54 214.05 535.06"/><path d="M239.53,462.34h0Z"/><path class="cls-6" d="M239.53,462.34h0Z"/><path d="M252.58,511.44H239.53v-49.1Zm0,0Z"/><path class="cls-6" d="M252.58,511.44H239.53v-49.1Zm0,0Z"/><polygon points="239.53 462.34 252.58 462.34 252.58 511.44 239.53 462.34"/><polygon class="cls-6" points="239.53 462.34 252.58 462.34 252.58 511.44 239.53 462.34"/><polyline class="cls-6" points="252.58 511.44 252.58 462.34 239.53 462.34 239.53 511.44"/><path d="M239.53,239.53h0Z"/><path class="cls-6" d="M239.53,239.53h0Z"/><path d="M252.58,305.1H239.53V239.53Zm0,0Z"/><path class="cls-6" d="M252.58,305.1H239.53V239.53Zm0,0Z"/><polygon points="239.53 239.53 252.58 239.53 252.58 305.1 239.53 239.53"/><polygon class="cls-6" points="239.53 239.53 252.58 239.53 252.58 305.1 239.53 239.53"/><polyline class="cls-6" points="252.58 305.1 252.58 239.53 239.53 239.53 239.53 305.1 252.58 305.1"/><polyline class="cls-6" points="149.1 132.94 109.64 132.94 109.64 103.42 149.1 103.42 149.1 132.94"/><polyline class="cls-6" points="55.25 190.43 40.34 190.43 40.34 155 55.25 155"/><line class="cls-6" x1="40.34" y1="167.12" x2="40.34" y2="178.31"/><line class="cls-6" x1="52.46" y1="169.61" x2="52.46" y2="171.79"/><line class="cls-6" x1="49.35" y1="172.72" x2="51.21" y2="172.72"/><line class="cls-6" x1="52.46" y1="173.96" x2="52.46" y2="175.83"/><line class="cls-6" x1="53.39" y1="172.72" x2="55.25" y2="172.72"/><path class="cls-6" d="M48.75,182a15.68,15.68,0,0,0,7.42,6.08"/><path class="cls-6" d="M46.6,172.55a15.73,15.73,0,0,0,2.2,9.35"/><path class="cls-6" d="M56.17,157a15.76,15.76,0,0,0-7.42,6.09"/><path class="cls-6" d="M48.8,163.22a15.77,15.77,0,0,0-2.2,9.36"/><path class="cls-6" d="M64.06,184.49A28.93,28.93,0,0,0,67,173.76"/><path class="cls-6" d="M62.63,158.32A8.87,8.87,0,0,0,55.34,155"/><path class="cls-6" d="M67,173.79a16.7,16.7,0,0,0,0-2.45"/><path class="cls-6" d="M49.18,162.67a64.38,64.38,0,0,0,0,19.79"/><path class="cls-6" d="M57.65,155.94a22.26,22.26,0,0,0-14.44,5"/><path class="cls-6" d="M42.05,162.46A44.22,44.22,0,0,0,41,172.59"/><path class="cls-6" d="M43,161a3,3,0,0,0-1,1.64"/><path class="cls-6" d="M42.92,162.46a75.91,75.91,0,0,0-.72,10"/><path class="cls-6" d="M57.54,155.63a20.06,20.06,0,0,0-13.52,5"/><path class="cls-6" d="M44.13,160.72a2.92,2.92,0,0,0-1,1.8"/><path class="cls-6" d="M44,184.47a20,20,0,0,0,13.51,5"/><path class="cls-6" d="M43.19,184.15a22.18,22.18,0,0,0,14.43,5"/><path class="cls-6" d="M42.2,172.58a75.74,75.74,0,0,0,.71,10"/><path class="cls-6" d="M41,172.48A44.33,44.33,0,0,0,42,182.61"/><path class="cls-6" d="M43.16,182.6a3,3,0,0,0,1,1.81"/><path class="cls-6" d="M42,182.53a3,3,0,0,0,1,1.64"/><path class="cls-6" d="M55.34,190.11a8.86,8.86,0,0,0,7.29-3.3"/><path class="cls-6" d="M62.47,186.8A13.66,13.66,0,0,0,64,184.47"/><path class="cls-6" d="M64,160.66a13.28,13.28,0,0,0-1.51-2.33"/><path class="cls-6" d="M67,171.36a28.83,28.83,0,0,0-2.92-10.72"/><path class="cls-6" d="M64.62,177.41a20.65,20.65,0,0,0,0-9.7"/><path class="cls-6" d="M56.28,188.24a5.42,5.42,0,0,0,4.49-1.87"/><path class="cls-6" d="M60.57,186.22a19.19,19.19,0,0,0,4-8.79"/><path class="cls-6" d="M60.77,158.75a5.48,5.48,0,0,0-4.49-1.87"/><path class="cls-6" d="M64.6,167.69a19.15,19.15,0,0,0-4-8.78"/><path class="cls-6" d="M54.63,172.56a2.33,2.33,0,1,0-2.33,2.33,2.33,2.33,0,0,0,2.33-2.33"/><path class="cls-6" d="M54,172.56a1.71,1.71,0,1,0-1.71,1.71A1.71,1.71,0,0,0,54,172.56"/><line class="cls-6" x1="535.06" y1="204.42" x2="535.06" y2="217.47"/><line class="cls-6" x1="535.06" y1="222.75" x2="535.06" y2="235.8"/><line class="cls-6" x1="535.06" y1="241.08" x2="535.06" y2="254.45"/><line class="cls-6" x1="535.06" y1="259.42" x2="535.06" y2="272.78"/><line class="cls-6" x1="535.06" y1="277.75" x2="535.06" y2="291.12"/><line class="cls-6" x1="535.06" y1="296.09" x2="535.06" y2="309.45"/><line class="cls-6" x1="535.06" y1="314.42" x2="535.06" y2="327.78"/><line class="cls-6" x1="535.06" y1="333.07" x2="535.06" y2="346.12"/><line class="cls-6" x1="535.06" y1="351.4" x2="535.06" y2="364.45"/><line class="cls-6" x1="535.06" y1="369.74" x2="535.06" y2="382.79"/><line class="cls-6" x1="535.06" y1="388.07" x2="535.06" y2="401.12"/><line class="cls-6" x1="535.06" y1="406.41" x2="535.06" y2="419.15"/></svg>