<svg id="_643" data-name="643" xmlns="http://www.w3.org/2000/svg" viewBox="0 0 380.21 258.67"><defs><style>.cls-1{font-size:8px;}.cls-1,.cls-4{fill:#808184;}.cls-1,.cls-5{font-family:BigCityGrotesquePro-Regular, BigCity Grotesque Pro;}.cls-2{letter-spacing:-0.03em;}.cls-10,.cls-3,.cls-7{fill:none;}.cls-3{stroke:#808184;}.cls-10,.cls-3{stroke-linecap:round;stroke-linejoin:round;}.cls-3,.cls-7{stroke-width:0.75px;}.cls-5{font-size:14.73px;fill:#231f20;}.cls-6{letter-spacing:-0.02em;}.cls-10,.cls-7{stroke:#000;}.cls-7{stroke-miterlimit:10;}.cls-8{letter-spacing:-0.02em;}.cls-9{letter-spacing:-0.02em;}.cls-10{stroke-width:0.5px;}</style></defs><title>10floor_643flat</title><text class="cls-1" transform="translate(373.35 121.5) rotate(90)"><tspan class="cls-2">у</tspan><tspan x="3.72" y="0">лица</tspan></text><line class="cls-3" x1="379.12" y1="116.08" x2="372.09" y2="116.08"/><path class="cls-4" d="M375,113.2a.3.3,0,0,0,.09.41l3.87,2.47-3.87,2.47a.3.3,0,1,0,.32.51l4.27-2.72a.3.3,0,0,0,0-.51l-4.27-2.72a.3.3,0,0,0-.41.09Z"/><rect x="122.42" y="5.56" width="3.37" height="86.06" transform="translate(248.21 97.19) rotate(180)"/><rect x="105.09" y="70.93" width="4.85" height="36.55" transform="translate(196.72 -18.31) rotate(90)"/><rect x="39.53" y="70.12" width="4.85" height="38.17" transform="translate(131.16 47.25) rotate(90)"/><polyline points="29.71 0.67 29.71 111.12 21.39 111.12 21.39 0.67"/><rect x="21.36" width="272.49" height="9.29"/><rect x="164.95" y="129.78" width="7.94" height="249.85" transform="translate(-85.78 423.63) rotate(-90)"/><rect x="21.77" y="153.37" width="7.94" height="20.37"/><rect x="105.25" y="86.78" width="3.33" height="12.55"/><rect x="56.7" y="184.42" width="3.33" height="17.9" transform="translate(-135.01 251.74) rotate(-90)"/><rect x="102.17" y="188.63" width="3.33" height="9.48" transform="translate(-89.54 297.21) rotate(-90)"/><rect x="131.13" y="107.79" width="7.94" height="59.71" transform="translate(-2.54 272.74) rotate(-90)"/><rect x="261.82" y="110.09" width="7.94" height="55.11" transform="translate(128.16 403.44) rotate(-90)"/><rect x="201" y="100.18" width="2.82" height="74.91" transform="translate(64.77 340.05) rotate(-90)"/><rect x="105.25" y="131.49" width="3.33" height="18.06"/><polyline points="105.25 255.05 105.25 181.72 108.58 181.72 108.58 255.05"/><rect x="33.08" y="154.3" width="8.33" height="30.55" transform="translate(-132.34 206.82) rotate(-90)"/><rect x="44" y="165.41" width="8.51" height="89.33"/><polyline points="293.85 0.68 293.85 34.5 275.4 34.5 275.4 0.68"/><rect x="275.4" y="97.95" width="18.45" height="49.3"/><rect x="275.4" y="245.54" width="19.12" height="13.14"/><rect x="300.16" y="122.56" width="18.45" height="68.17" transform="translate(19.03 346.26) rotate(-60)"/><rect x="277.41" y="229.45" width="26.05" height="19.71" transform="translate(-62.03 371.18) rotate(-60)"/><text class="cls-5" transform="translate(241.11 74.47)">12.4</text><text class="cls-5" transform="translate(257.83 199.1)">13<tspan class="cls-6" x="12.55" y="0">.</tspan><tspan x="15.64" y="0">0</tspan></text><text class="cls-5" transform="translate(69.68 228.06)">1.8</text><text class="cls-5" transform="translate(65.54 52.76)">4.2</text><text class="cls-5" transform="translate(58.04 139.82)">4.3</text><rect class="cls-7" x="166.52" y="167.4" width="54.27" height="19.89"/><rect class="cls-7" x="166.52" y="187.28" width="54.27" height="19.89"/><rect class="cls-7" x="166.52" y="207.17" width="54.27" height="19.89"/><text class="cls-5" transform="translate(173.79 181.55)">№643<tspan x="13.21" y="20.62">1</tspan><tspan class="cls-8" x="18.39" y="20.62">К</tspan><tspan x="7.68" y="41.24">35</tspan><tspan class="cls-9" x="22.31" y="41.24">.</tspan><tspan x="25.38" y="41.24">7</tspan></text><path d="M105.29,141.59l59.44-7.94v7.94Zm0-7.94v7.94l59.44-7.94Z"/><path class="cls-10" d="M105.29,141.59l59.44-7.94v7.94Zm0-7.94v7.94l59.44-7.94Z"/><path d="M105.29,8.62,164.73.67V8.62Zm0-7.94V8.62L164.73.67Z"/><path class="cls-10" d="M105.29,8.62,164.73.67V8.62Zm0-7.94V8.62L164.73.67Z"/><path d="M238.26,8.62,285.92.67V8.62Zm0-7.94V8.62L285.92.67Z"/><path class="cls-10" d="M238.26,8.62,285.92.67V8.62Zm0-7.94V8.62L285.92.67Z"/><path d="M238.26,141.59l47.65-7.94v7.94Zm0-7.94v7.94l47.65-7.94Z"/><path class="cls-10" d="M238.26,141.59l47.65-7.94v7.94Zm0-7.94v7.94l47.65-7.94Z"/><line class="cls-10" x1="29.71" y1="34.49" x2="29.71" y2="0.67"/><line class="cls-10" x1="164.73" y1="133.64" x2="108.37" y2="133.64"/><line class="cls-10" x1="108.37" y1="133.64" x2="105.29" y2="133.64"/><line class="cls-10" x1="105.29" y1="133.64" x2="105.29" y2="141.59"/><line class="cls-10" x1="105.29" y1="141.59" x2="108.37" y2="141.59"/><polyline class="cls-10" points="108.37 141.59 164.73 141.59 164.73 139.28"/><line class="cls-10" x1="164.73" y1="139.28" x2="164.73" y2="135.95"/><line class="cls-10" x1="164.73" y1="135.95" x2="164.73" y2="133.64"/><line class="cls-10" x1="164.73" y1="0.67" x2="124.77" y2="0.67"/><polyline class="cls-10" points="124.77 0.68 105.29 0.68 105.29 8.62 125.79 8.62"/><polyline class="cls-10" points="125.79 8.62 164.73 8.62 164.73 0.68"/><polyline class="cls-10" points="285.92 0.68 275.93 0.68 275.16 0.68 238.26 0.68 238.26 8.62 275.16 8.62 275.93 8.62 285.92 8.62 285.92 0.68"/><polyline class="cls-10" points="285.92 133.65 275.93 133.65 275.16 133.65"/><polyline class="cls-10" points="275.16 133.65 238.26 133.65 238.26 141.59 275.16 141.59"/><polyline class="cls-10" points="275.16 141.59 275.93 141.59 285.92 141.59 285.92 133.65"/><line class="cls-10" x1="285.92" y1="250.73" x2="283.1" y2="250.73"/><line class="cls-10" x1="285.92" y1="252.27" x2="285.92" y2="250.73"/><path class="cls-10" d="M45,17.33a.9.9,0,0,0,0-1.79"/><path class="cls-10" d="M45,15.53a.9.9,0,1,0,0,1.79"/><path class="cls-10" d="M57.13,16.69a5,5,0,0,0-5-5"/><path class="cls-10" d="M38,11.69a5,5,0,0,0-5,5"/><path class="cls-10" d="M52.13,73.18a5,5,0,0,0,5-5"/><path class="cls-10" d="M33,68.18a5,5,0,0,0,5,5"/><line class="cls-10" x1="37.91" y1="72.92" x2="52" y2="72.92"/><line class="cls-10" x1="57.13" y1="68.06" x2="57.13" y2="16.56"/><line class="cls-10" x1="52" y1="11.69" x2="37.91" y2="11.69"/><line class="cls-10" x1="32.79" y1="16.56" x2="32.79" y2="68.06"/><polyline class="cls-10" points="30.74 76 59.95 76 59.95 9.38"/><line class="cls-10" x1="145.26" y1="42.44" x2="145.26" y2="28.6"/><path class="cls-10" d="M130.91,33.85a1.41,1.41,0,1,0,1.41-1.41,1.41,1.41,0,0,0-1.41,1.41"/><path class="cls-10" d="M131.43,33.85a.9.9,0,1,0,.9-.9.9.9,0,0,0-.9.9"/><path class="cls-10" d="M131.43,24.12a.9.9,0,1,0,.9-.9.9.9,0,0,0-.9.9"/><path class="cls-10" d="M130.91,24.12a1.41,1.41,0,1,0,1.41-1.41,1.41,1.41,0,0,0-1.41,1.41"/><path class="cls-10" d="M128.61,28.73a.64.64,0,1,0,.64-.64.64.64,0,0,0-.64.64"/><path class="cls-10" d="M128.36,23.53a1.92,1.92,0,0,0,.49,1.11"/><line class="cls-10" x1="131.43" y1="27.58" x2="128.61" y2="24.5"/><path class="cls-10" d="M131.67,27.61a1.67,1.67,0,0,0,1.17.48"/><line class="cls-10" x1="142.96" y1="28.09" x2="132.71" y2="28.09"/><path class="cls-10" d="M143.08,28.34a1.67,1.67,0,0,0,1.66-1.67"/><line class="cls-10" x1="144.49" y1="12.46" x2="144.49" y2="26.55"/><path class="cls-10" d="M144.49,12.72a1.41,1.41,0,0,0-1.4-1.54"/><line class="cls-10" x1="129.89" y1="10.92" x2="142.96" y2="10.92"/><path class="cls-10" d="M130,10.92a1.67,1.67,0,0,0-1.68,1.67"/><line class="cls-10" x1="128.35" y1="23.48" x2="128.35" y2="12.46"/><path class="cls-10" d="M141.55,34.49a1.41,1.41,0,0,0-1.39,1.63"/><path class="cls-10" d="M143.09,41.41a1.67,1.67,0,0,0,1.66-1.67"/><line class="cls-10" x1="144.49" y1="36.03" x2="144.49" y2="39.62"/><path class="cls-10" d="M144.73,36.1a1.41,1.41,0,0,0-1.39-1.61"/><line class="cls-10" x1="141.42" y1="34.49" x2="143.21" y2="34.49"/><path class="cls-10" d="M145.5,42.56a1.67,1.67,0,0,0-1.65-1.41"/><polyline class="cls-10" points="141.68 41.16 142.7 41.16 143.72 41.16"/><path class="cls-10" d="M140.14,39.75a1.67,1.67,0,0,0,1.66,1.67"/><path class="cls-10" d="M143.85,29.88a1.67,1.67,0,0,0,1.6-1.2"/><line class="cls-10" x1="141.67" y1="29.63" x2="143.72" y2="29.63"/><path class="cls-10" d="M141.81,29.63a1.67,1.67,0,0,0-1.67,1.67"/><line class="cls-10" x1="140.14" y1="39.62" x2="140.14" y2="31.16"/><line class="cls-10" x1="144.24" y1="45.51" x2="144.24" y2="41.92"/><line class="cls-10" x1="142.7" y1="45.51" x2="142.7" y2="41.92"/><line class="cls-10" x1="140.91" y1="45.51" x2="140.91" y2="41.92"/><line class="cls-10" x1="139.37" y1="45.51" x2="139.37" y2="41.92"/><line class="cls-10" x1="137.83" y1="45.51" x2="137.83" y2="41.92"/><line class="cls-10" x1="136.29" y1="45.51" x2="136.29" y2="41.92"/><line class="cls-10" x1="134.5" y1="45.51" x2="134.5" y2="41.92"/><line class="cls-10" x1="132.96" y1="45.51" x2="132.96" y2="41.92"/><line class="cls-10" x1="131.43" y1="45.51" x2="131.43" y2="41.92"/><line class="cls-10" x1="129.89" y1="45.51" x2="129.89" y2="41.92"/><line class="cls-10" x1="128.35" y1="45.51" x2="128.35" y2="41.92"/><path class="cls-10" d="M128.36,39.56a1.41,1.41,0,0,0,1.4,1.6"/><line class="cls-10" x1="137.83" y1="41.15" x2="129.63" y2="41.15"/><path class="cls-10" d="M138,41.41a1.67,1.67,0,0,0,1.66-1.67"/><line class="cls-10" x1="139.37" y1="31.42" x2="139.37" y2="39.62"/><path class="cls-10" d="M139.62,31.32A1.67,1.67,0,0,0,138,29.63"/><line class="cls-10" x1="132.45" y1="29.63" x2="137.83" y2="29.63"/><path class="cls-10" d="M132.58,29.88a1.66,1.66,0,0,0-1.23.54"/><line class="cls-10" x1="128.61" y1="32.96" x2="131.17" y2="30.14"/><path class="cls-10" d="M128.79,33.24a1.67,1.67,0,0,0-.44,1.12"/><line class="cls-10" x1="128.35" y1="39.62" x2="128.35" y2="34.24"/><path class="cls-10" d="M126.83,46a.9.9,0,0,0,.88,1.06"/><line class="cls-10" x1="145.01" y1="47.05" x2="127.58" y2="47.05"/><path class="cls-10" d="M145.13,47a1.15,1.15,0,0,0,1.15-1.15"/><line class="cls-10" x1="146.03" y1="10.67" x2="146.03" y2="45.77"/><path class="cls-10" d="M146.29,10.78a1.15,1.15,0,0,0-1.15-1.14"/><path class="cls-10" d="M127.87,9.39a1.41,1.41,0,0,0-1.31,1.41"/><line class="cls-10" x1="126.56" y1="45.77" x2="126.56" y2="10.67"/><line class="cls-10" x1="105.29" y1="8.62" x2="105.29" y2="0.67"/><line class="cls-10" x1="105.29" y1="8.62" x2="29.71" y2="8.62"/><line class="cls-10" x1="105.29" y1="0.67" x2="49.7" y2="0.67"/><line class="cls-10" x1="52.52" y1="191.55" x2="52.52" y2="165.41"/><line class="cls-10" x1="21" y1="111.87" x2="0.25" y2="147.99"/><line class="cls-10" x1="41.76" y1="173.36" x2="44.57" y2="173.36"/><line class="cls-10" x1="29.71" y1="165.41" x2="52.52" y2="165.41"/><line class="cls-10" x1="21.77" y1="111.87" x2="29.71" y2="111.87"/><line class="cls-10" x1="29.71" y1="153.37" x2="21.77" y2="153.37"/><line class="cls-10" x1="21.77" y1="173.36" x2="21.77" y2="153.37"/><line class="cls-10" x1="21.77" y1="111.87" x2="21.77" y2="34.49"/><line class="cls-10" x1="29.71" y1="165.41" x2="29.71" y2="153.37"/><line class="cls-10" x1="29.71" y1="111.87" x2="29.71" y2="91.63"/><line class="cls-10" x1="29.71" y1="87.02" x2="29.71" y2="34.49"/><line class="cls-10" x1="238.26" y1="8.62" x2="164.73" y2="8.62"/><line class="cls-10" x1="238.26" y1="0.67" x2="164.73" y2="0.67"/><line class="cls-10" x1="105.81" y1="65.49" x2="106.06" y2="65.49"/><polyline class="cls-10" points="105.81 65.49 105.81 71.39 106.06 71.39"/><line class="cls-10" x1="94.02" y1="87.53" x2="93.76" y2="87.53"/><polyline class="cls-10" points="94.02 81.64 93.77 81.64 93.77 87.53"/><line class="cls-10" x1="297.19" y1="228.44" x2="288.48" y2="223.32"/><line class="cls-10" x1="283.1" y1="250.73" x2="283.87" y2="251.24"/><line class="cls-10" x1="318.46" y1="171.82" x2="326.91" y2="176.69"/><polyline class="cls-10" points="288.48 223.32 275.41 246.38 275.93 246.63"/><line class="cls-10" x1="297.19" y1="228.44" x2="283.87" y2="251.24"/><line class="cls-10" x1="332.03" y1="168.23" x2="326.91" y2="176.69"/><line class="cls-10" x1="285.92" y1="97.78" x2="275.93" y2="97.78"/><line class="cls-10" x1="275.93" y1="34.49" x2="285.92" y2="34.49"/><line class="cls-10" x1="275.93" y1="141.59" x2="275.93" y2="147.22"/><line class="cls-10" x1="275.93" y1="8.62" x2="275.93" y2="34.49"/><line class="cls-10" x1="275.93" y1="97.78" x2="275.93" y2="133.64"/><line class="cls-10" x1="285.92" y1="97.78" x2="285.92" y2="133.64"/><line class="cls-10" x1="285.92" y1="8.62" x2="285.92" y2="34.49"/><polyline class="cls-10" points="288.74 36.29 290.02 36.29 290.02 65.24 288.74 65.24 288.74 36.29"/><polyline class="cls-10" points="288.74 67.03 290.02 67.03 290.02 95.98 288.74 95.98 288.74 67.03"/><polyline class="cls-10" points="287.71 93.93 291.04 93.93 291.04 97.78 287.71 97.78 287.71 93.93"/><polyline class="cls-10" points="287.71 34.49 291.04 34.49 291.04 38.34 287.71 38.34 287.71 34.49"/><line class="cls-10" x1="287.71" y1="38.34" x2="287.71" y2="64.73"/><line class="cls-10" x1="287.71" y1="67.54" x2="287.71" y2="93.93"/><line class="cls-10" x1="291.04" y1="93.93" x2="291.04" y2="67.54"/><line class="cls-10" x1="291.04" y1="64.73" x2="291.04" y2="38.34"/><polyline class="cls-10" points="287.71 64.73 291.04 64.73 291.04 67.54 287.71 67.54 287.71 64.73"/><line class="cls-10" x1="273.11" y1="34.49" x2="273.11" y2="97.78"/><polyline class="cls-10" points="275.16 97.78 273.88 97.78 273.11 97.78"/><polyline class="cls-10" points="273.11 34.49 273.88 34.49 275.16 34.49"/><line class="cls-10" x1="296.68" y1="97.78" x2="294.12" y2="97.78"/><polyline class="cls-10" points="294.12 34.49 296.68 34.49 296.68 97.78"/><line class="cls-10" x1="317.69" y1="171.31" x2="275.93" y2="147.22"/><line class="cls-10" x1="332.03" y1="168.23" x2="285.92" y2="141.59"/><line class="cls-10" x1="275.93" y1="250.73" x2="275.93" y2="246.63"/><polyline class="cls-10" points="300.52 230.23 301.55 228.7 298.22 226.65 297.19 228.44 300.52 230.23"/><polyline class="cls-10" points="300.26 227.93 313.84 204.61 312.82 204.1 299.5 227.41 300.26 227.93"/><polyline class="cls-10" points="329.47 180.53 330.5 178.74 326.91 176.69 325.89 178.48 329.47 180.53"/><line class="cls-10" x1="315.13" y1="205.38" x2="301.55" y2="228.7"/><line class="cls-10" x1="298.22" y1="226.65" x2="311.54" y2="203.33"/><polyline class="cls-10" points="314.61 202.82 328.19 179.76 327.17 179.25 313.84 202.56 314.61 202.82"/><line class="cls-10" x1="329.47" y1="180.53" x2="315.89" y2="203.59"/><line class="cls-10" x1="312.56" y1="201.79" x2="325.89" y2="178.48"/><polyline class="cls-10" points="315.13 205.38 315.89 203.59 312.56 201.79 311.54 203.33 315.13 205.38"/><line class="cls-10" x1="238.26" y1="135.95" x2="164.73" y2="135.95"/><polyline class="cls-10" points="164.73 139.28 238.26 139.28 238.26 135.95"/><polyline class="cls-10" points="108.37 250.73 108.37 181.56 105.29 181.56 105.29 191.55"/><line class="cls-10" x1="105.29" y1="194.62" x2="105.29" y2="250.73"/><line class="cls-10" x1="108.37" y1="149.53" x2="108.37" y2="141.59"/><polyline class="cls-10" points="105.29 141.59 105.29 149.53 108.37 149.53"/><polyline class="cls-10" points="108.37 133.65 108.37 131.34 105.29 131.34 105.29 133.65"/><line class="cls-10" x1="108.37" y1="99.31" x2="108.37" y2="91.63"/><polyline class="cls-10" points="105.29 91.63 105.29 99.31 108.37 99.31"/><line class="cls-10" x1="108.37" y1="131.34" x2="126.3" y2="102.9"/><line class="cls-10" x1="108.37" y1="149.53" x2="126.3" y2="177.97"/><polyline class="cls-10" points="52.52 194.62 67.38 194.62 67.38 191.55 52.52 191.55"/><line class="cls-10" x1="99.14" y1="194.62" x2="105.29" y2="194.62"/><polyline class="cls-10" points="105.29 191.55 99.14 191.55 99.14 194.62"/><line class="cls-10" x1="60.71" y1="91.63" x2="60.71" y2="87.02"/><line class="cls-10" x1="88.9" y1="87.02" x2="88.9" y2="91.63"/><line class="cls-10" x1="60.71" y1="91.63" x2="29.71" y2="91.63"/><line class="cls-10" x1="94.02" y1="91.63" x2="88.9" y2="91.63"/><line class="cls-10" x1="93.76" y1="87.02" x2="88.9" y2="87.02"/><line class="cls-10" x1="60.71" y1="87.02" x2="29.71" y2="87.02"/><line class="cls-10" x1="60.71" y1="92.4" x2="85.82" y2="104.18"/><polyline class="cls-10" points="125.79 61.4 125.79 8.62 122.72 8.62 122.72 61.4"/><polyline class="cls-10" points="77.62 22.2 75.83 23.48 74.81 24.5 74.29 25.27 73.78 26.81 73.78 27.83 74.29 29.11 74.81 30.14 75.83 30.91 77.62 32.44"/><polyline class="cls-10" points="90.95 32.44 91.46 31.16 91.72 28.34 91.72 26.3 91.46 23.48 90.95 21.94"/><polyline class="cls-10" points="77.62 32.44 79.67 33.47 81.72 33.98 83.77 34.75 85.82 34.75 86.85 34.75 87.87 34.49 88.9 34.24 89.92 33.73 90.95 32.44"/><polyline class="cls-10" points="90.95 21.94 89.92 20.91 88.9 20.15 87.87 19.89 86.85 19.89 85.82 19.63 83.77 19.89 81.72 20.4 79.67 21.17 77.62 22.2"/><line class="cls-10" x1="93.76" y1="32.19" x2="90.95" y2="32.44"/><line class="cls-10" x1="93.76" y1="22.45" x2="90.95" y2="21.94"/><path class="cls-10" d="M94,33.6a3.72,3.72,0,0,0,3.71,3.72"/><polyline class="cls-10" points="97.61 17.07 105.29 17.07 105.29 37.31 97.61 37.31"/><path class="cls-10" d="M97.74,17.33A3.71,3.71,0,0,0,94,21"/><line class="cls-10" x1="93.76" y1="33.47" x2="93.76" y2="20.91"/><line class="cls-10" x1="101.96" y1="57.04" x2="101.96" y2="49.61"/><path class="cls-10" d="M102.19,57.06a1.92,1.92,0,0,0-1.89-1.56"/><polyline class="cls-10" points="100.17 57.04 100.17 57.81 102.48 57.81 102.48 57.04 100.17 57.04"/><path class="cls-10" d="M104.78,47.43a.9.9,0,0,0-.9-.9"/><path class="cls-10" d="M102.6,60.63a.9.9,0,1,0,0,1.79"/><path class="cls-10" d="M103.88,68.57a.9.9,0,0,0,.9-.9"/><line class="cls-10" x1="104.78" y1="67.54" x2="104.78" y2="47.3"/><path class="cls-10" d="M102.6,62.42a.9.9,0,0,0,0-1.79"/><path class="cls-10" d="M102.6,52.68a.9.9,0,1,0,0,1.79"/><path class="cls-10" d="M102.6,54.48a.9.9,0,0,0,0-1.79"/><path class="cls-10" d="M100.3,59.35a1.92,1.92,0,0,0,1.89-1.56"/><path class="cls-10" d="M100.3,55.5a1.92,1.92,0,1,0,0,3.84"/><path class="cls-10" d="M102.22,49.74a1.92,1.92,0,0,0-1.92-1.92"/><line class="cls-10" x1="101.96" y1="65.24" x2="101.96" y2="57.81"/><path class="cls-10" d="M100.3,67.29a1.92,1.92,0,0,0,1.92-1.92"/><line class="cls-10" x1="99.66" y1="67.29" x2="100.17" y2="67.29"/><path class="cls-10" d="M92,59.47a7.81,7.81,0,0,0,7.81,7.81"/><line class="cls-10" x1="91.71" y1="55.5" x2="91.71" y2="59.35"/><line class="cls-10" x1="100.17" y1="47.56" x2="99.66" y2="47.56"/><path class="cls-10" d="M100.55,46.54a9.86,9.86,0,0,0-9.86,9.86"/><line class="cls-10" x1="103.76" y1="46.28" x2="100.43" y2="46.28"/><path class="cls-10" d="M99.79,47.82A7.81,7.81,0,0,0,92,55.63"/><line class="cls-10" x1="90.69" y1="56.27" x2="90.69" y2="58.58"/><path class="cls-10" d="M90.69,58.7a9.86,9.86,0,0,0,9.86,9.86"/><line class="cls-10" x1="100.43" y1="68.57" x2="103.76" y2="68.57"/><line class="cls-10" x1="105.29" y1="68.57" x2="105.29" y2="40.13"/><polyline class="cls-10" points="293.6 136.97 342.8 165.41 333.83 180.79 334.08 181.04 343.31 165.16 294.12 136.72"/><polyline class="cls-10" points="294.12 136.72 294.12 97.78 293.6 97.78 293.6 136.97"/><line class="cls-10" x1="320.76" y1="147.99" x2="319.74" y2="149.79"/><line class="cls-10" x1="322.04" y1="148.76" x2="321.02" y2="150.55"/><line class="cls-10" x1="303.85" y1="138.51" x2="302.83" y2="140.05"/><line class="cls-10" x1="302.57" y1="137.74" x2="301.8" y2="139.54"/><polyline class="cls-10" points="298.47 135.44 326.14 151.07 334.08 137.49 306.41 121.6 298.47 135.44"/><polyline class="cls-10" points="354.32 139.54 351.25 144.66 294.12 111.61 297.19 106.49 354.32 139.54 354.58 139.03"/><polyline class="cls-10" points="297.19 106.49 297.45 105.97 354.58 139.03"/><line class="cls-10" x1="294.12" y1="112.64" x2="353.3" y2="146.71"/><polyline class="cls-10" points="351.76 149.02 344.08 162.6 344.85 163.11 354.32 146.46 351.25 144.66"/><polyline class="cls-10" points="343.31 165.16 343.31 165.41 344.85 163.11"/><polyline class="cls-10" points="293.6 136.72 296.17 138 297.45 135.69 295.14 134.16 293.6 136.72"/><polyline class="cls-10" points="353.3 146.71 350.74 145.43 349.46 147.74 351.76 149.02 353.3 146.71"/><polyline class="cls-10" points="340.23 163.62 342.8 164.9 344.08 162.6 341.77 161.06 340.23 163.62"/><polyline class="cls-10" points="296.42 113.92 293.6 113.92 293.6 116.73 296.42 116.73 296.42 113.92"/><line class="cls-10" x1="293.86" y1="254.06" x2="293.86" y2="250.22"/><line class="cls-10" x1="294.12" y1="250.22" x2="294.12" y2="253.8"/><polyline class="cls-10" points="293.86 250.22 304.11 232.28 304.37 232.54 294.12 250.22"/><polyline class="cls-10" points="106.06 61.4 125.79 61.4 125.79 75.74 123.74 63.45 106.06 61.4 106.06 75.74"/><polyline class="cls-10" points="94.02 75.74 125.79 75.74 125.79 91.63 123.48 78.05 94.02 75.74 94.02 91.63 125.79 91.63"/></svg>