<svg id="_413" data-name="413" xmlns="http://www.w3.org/2000/svg" viewBox="0 0 353.72 477.33"><defs><style>.cls-1,.cls-6{fill:none;stroke-linecap:round;stroke-linejoin:round;}.cls-1{stroke:#999;}.cls-2{isolation:isolate;font-size:12px;fill:#999;}.cls-2,.cls-4,.cls-5{font-family:PTSans-Regular, PT Sans;}.cls-3{letter-spacing:-0.01em;}.cls-4{font-size:20px;}.cls-5{font-size:24px;}.cls-6{stroke:#000;stroke-width:0.5px;}</style></defs><title>4floor_413flat</title><line class="cls-1" x1="158.2" y1="474.82" x2="158.2" y2="466.02"/><polyline class="cls-1" points="154.7 471.52 158.2 475.02 161.7 471.52"/><text class="cls-2" transform="translate(167.46 474.39)"><tspan class="cls-3">у</tspan><tspan x="5.42" y="0">лица</tspan></text><text class="cls-4" transform="translate(268.24 85.26)">3.53</text><text class="cls-4" transform="translate(249.34 391.63)">2.41</text><text class="cls-4" transform="translate(168.65 75.6)">4.91</text><text class="cls-4" transform="translate(39.45 75.6)">2.93</text><text class="cls-4" transform="translate(75.4 372.37)">16.97</text><text class="cls-4" transform="translate(229.81 319.13)">9.21</text><text class="cls-5" transform="translate(66.42 254.1)">№413</text><text class="cls-5" transform="translate(84.46 286.77)">К1</text><text class="cls-5" transform="translate(69.59 319.13)">39.96</text><polyline class="cls-6" points="57.79 327.45 57.79 230.06 138.85 230.06 138.85 327.45"/><line class="cls-6" x1="57.79" y1="262.42" x2="138.85" y2="262.42"/><line class="cls-6" x1="57.79" y1="294.78" x2="138.85" y2="294.78"/><line class="cls-6" x1="57.79" y1="327.45" x2="138.85" y2="327.45"/><polyline class="cls-6" points="349.92 10.9 349.92 10.9 349.92 126.27"/><polyline class="cls-6" points="10.9 200.82 10.9 343.71 10.9 388.08 185.74 388.08 185.74 341.93 185.74 106.75 10.9 106.75 10.9 146.69 10.9 200.82"/><polyline class="cls-6" points="120.06 102.31 190.17 102.31 190.17 152.01 246.09 152.01 246.09 10.9 126.27 10.9 126.27 21.55 120.06 21.55 120.06 102.31"/><polyline class="cls-6" points="10.9 102.31 115.62 102.31 115.62 21.55 10.9 21.55 10.9 102.31"/><polyline class="cls-6" points="250.52 126.27 339.27 126.27 339.27 10.9 250.52 10.9 250.52 126.27"/><polyline class="cls-6" points="205.26 410.27 349.03 410.27 349.03 404.95 335.72 404.95 335.72 357.02 205.26 357.02 205.26 410.27"/><polyline class="cls-6" points="339.27 337.5 339.27 234.55 339.27 180.41 339.27 156.45 190.17 156.45 190.17 180.41 196.38 180.41 196.38 234.55 190.17 234.55 190.17 337.5 339.27 337.5"/><line class="cls-6" x1="0.25" y1="0.25" x2="32.2" y2="0.25"/><polyline class="cls-6" points="32.2 0.25 339.27 0.25 349.92 0.25"/><path d="M275.37,357h0Zm63.9,0h0Zm0,0Zm-63.9,0h0Z"/><path class="cls-6" d="M275.37,357h0Zm63.9,0h0Zm0,0Zm-63.9,0h0Z"/><path d="M204.37,357h0Z"/><path class="cls-6" d="M204.37,357h0Z"/><path d="M205.26,349h0Z"/><path class="cls-6" d="M205.26,349h0Z"/><path d="M205.26,357h-.89v-8Zm0,0Z"/><path class="cls-6" d="M205.26,357h-.89v-8Zm0,0Z"/><polygon points="204.37 349.03 205.26 349.03 205.26 357.02 204.37 349.03"/><polygon class="cls-6" points="204.37 349.03 205.26 349.03 205.26 357.02 204.37 349.03"/><path d="M275.37,349h0Z"/><path class="cls-6" d="M275.37,349h0Z"/><path d="M339.27,357h-63.9v-8Zm0,0Z"/><path class="cls-6" d="M339.27,357h-63.9v-8Zm0,0Z"/><polygon points="275.37 349.03 339.27 349.03 339.27 357.02 275.37 349.03"/><polygon class="cls-6" points="275.37 349.03 339.27 349.03 339.27 357.02 275.37 349.03"/><path d="M204.37,349h-8l8,8Zm0,0Z"/><path class="cls-6" d="M204.37,349h-8l8,8Zm0,0Z"/><path d="M196.39,337.5l8.87,8.87h-8.87Zm8.87,0h-8.87l8.87,8.87Z"/><path class="cls-6" d="M196.39,337.5l8.87,8.87h-8.87Zm8.87,0h-8.87l8.87,8.87Z"/><path d="M196.39,346.37l8.87,2.66h-8.87Zm8.87,0h-8.87l8.87,2.66Z"/><path class="cls-6" d="M196.39,346.37l8.87,2.66h-8.87Zm8.87,0h-8.87l8.87,2.66Z"/><path d="M275.37,337.5h0Z"/><path class="cls-6" d="M275.37,337.5h0Z"/><path d="M275.37,337.5l63.9,8.87h-63.9Zm63.9,0h-63.9l63.9,8.87Z"/><path class="cls-6" d="M275.37,337.5l63.9,8.87h-63.9Zm63.9,0h-63.9l63.9,8.87Z"/><path d="M339.27,349h-63.9v-2.66Zm0,0Z"/><path class="cls-6" d="M339.27,349h-63.9v-2.66Zm0,0Z"/><polygon points="275.37 346.37 339.27 346.37 339.27 349.03 275.37 346.37"/><polygon class="cls-6" points="275.37 346.37 339.27 346.37 339.27 349.03 275.37 346.37"/><path d="M196.39,337.5H185.74L196.39,349Zm0,0Z"/><path class="cls-6" d="M196.39,337.5H185.74L196.39,349Zm0,0Z"/><path d="M205.26,357h0v0Zm0-8v0Z"/><path class="cls-6" d="M205.26,357h0v0Zm0-8v0Z"/><path d="M205.26,357Zm0,0Z"/><path class="cls-6" d="M205.26,357Zm0,0Z"/><path d="M274.48,357h0Zm.89,0h0Zm-.89-8,.89,8h-.89Zm.89,0h-.89l.89,8Z"/><path class="cls-6" d="M274.48,357h0Zm.89,0h0Zm-.89-8,.89,8h-.89Zm.89,0h-.89l.89,8Z"/><line class="cls-6" x1="275.37" y1="357.02" x2="339.27" y2="357.02"/><line class="cls-6" x1="204.37" y1="357.02" x2="205.26" y2="357.02"/><line class="cls-6" x1="275.37" y1="349.03" x2="339.27" y2="349.03"/><polyline class="cls-6" points="196.38 337.5 196.38 349.03 205.26 349.03"/><polyline class="cls-6" points="275.37 349.03 274.48 349.03 274.48 357.02 275.37 357.02 275.37 349.03"/><polyline class="cls-6" points="205.26 349.03 205.26 349.03 205.26 357.02 205.26 349.03"/><polyline class="cls-6" points="275.37 349.03 275.37 346.37 275.37 337.5"/><polyline class="cls-6" points="205.26 349.03 205.26 346.37 205.26 337.5"/><line class="cls-6" x1="275.37" y1="357.02" x2="339.27" y2="357.02"/><polyline class="cls-6" points="275.37 337.5 339.27 337.5 339.27 349.03 339.27 357.02"/><polyline class="cls-6" points="185.74 337.5 196.38 337.5 205.26 337.5"/><line class="cls-6" x1="205.26" y1="357.02" x2="274.48" y2="357.02"/><line class="cls-6" x1="205.26" y1="337.5" x2="275.37" y2="337.5"/><path d="M205.26,346.37h0Z"/><path class="cls-6" d="M205.26,346.37h0Z"/><path d="M209.7,349h-4.44v-2.66Zm0,0Z"/><path class="cls-6" d="M209.7,349h-4.44v-2.66Zm0,0Z"/><polygon points="205.26 346.37 209.7 346.37 209.7 349.03 205.26 346.37"/><polygon class="cls-6" points="205.26 346.37 209.7 346.37 209.7 349.03 205.26 346.37"/><path d="M229.22,346.37h0Z"/><path class="cls-6" d="M229.22,346.37h0Z"/><path d="M231.88,349h-2.66v-2.66Zm0,0Z"/><path class="cls-6" d="M231.88,349h-2.66v-2.66Zm0,0Z"/><polygon points="229.22 346.37 231.88 346.37 231.88 349.03 229.22 346.37"/><polygon class="cls-6" points="229.22 346.37 231.88 346.37 231.88 349.03 229.22 346.37"/><path d="M231.88,346.37h0Z"/><path class="cls-6" d="M231.88,346.37h0Z"/><path d="M234.55,349h-2.67v-2.66Zm0,0Z"/><path class="cls-6" d="M234.55,349h-2.67v-2.66Zm0,0Z"/><polygon points="231.88 346.37 234.55 346.37 234.55 349.03 231.88 346.37"/><polygon class="cls-6" points="231.88 346.37 234.55 346.37 234.55 349.03 231.88 346.37"/><path d="M270.93,346.37h0Z"/><path class="cls-6" d="M270.93,346.37h0Z"/><path d="M275.37,349h-4.44v-2.66Zm0,0Z"/><path class="cls-6" d="M275.37,349h-4.44v-2.66Zm0,0Z"/><polygon points="270.94 346.37 275.37 346.37 275.37 349.03 270.94 346.37"/><polygon class="cls-6" points="270.94 346.37 275.37 346.37 275.37 349.03 270.94 346.37"/><polyline class="cls-6" points="205.26 346.37 209.7 346.37 209.7 349.03 205.26 349.03"/><polyline class="cls-6" points="231.88 349.03 229.22 349.03 229.22 346.37 231.88 346.37"/><line class="cls-6" x1="209.7" y1="346.37" x2="229.22" y2="346.37"/><line class="cls-6" x1="229.22" y1="349.03" x2="209.7" y2="349.03"/><polyline class="cls-6" points="231.88 346.37 234.55 346.37 234.55 349.03 231.88 349.03"/><polyline class="cls-6" points="275.37 349.03 270.94 349.03 270.94 346.37 275.37 346.37"/><line class="cls-6" x1="234.55" y1="346.37" x2="270.93" y2="346.37"/><line class="cls-6" x1="270.93" y1="349.03" x2="234.55" y2="349.03"/><line class="cls-6" x1="205.26" y1="349.03" x2="205.26" y2="346.37"/><line class="cls-6" x1="275.37" y1="349.03" x2="275.37" y2="346.37"/><polyline points="0.25 410.27 26.88 416.48 0.25 416.48"/><polyline points="0.25 416.48 26.88 416.48 26.88 416.48 0.25 416.48"/><polyline class="cls-6" points="0.25 410.27 26.88 416.48 0.25 416.48"/><polyline class="cls-6" points="0.25 416.48 26.88 416.48 26.88 416.48 0.25 416.48"/><polyline points="0.25 410.27 26.88 410.27 26.88 416.48 0.25 410.27"/><polyline class="cls-6" points="0.25 410.27 26.88 410.27 26.88 416.48 0.25 410.27"/><path d="M117.4,416.48H76.57v-6.21Zm0,0Z"/><path class="cls-6" d="M117.4,416.48H76.57v-6.21Zm0,0Z"/><polygon points="76.57 410.27 117.4 410.27 117.4 416.48 76.57 410.27"/><polygon class="cls-6" points="76.57 410.27 117.4 410.27 117.4 416.48 76.57 410.27"/><path d="M200.82,410.27h0Zm0,0Z"/><path class="cls-6" d="M200.82,410.27h0Zm0,0Z"/><path d="M205.26,416.48H167.1v-6.21Zm0,0Z"/><path class="cls-6" d="M205.26,416.48H167.1v-6.21Zm0,0Z"/><polygon points="167.1 410.27 200.82 410.27 205.26 416.48 167.1 410.27"/><polygon class="cls-6" points="167.1 410.27 200.82 410.27 205.26 416.48 167.1 410.27"/><polyline points="0.25 409.38 24.21 409.38 0.25 409.38"/><polyline class="cls-6" points="0.25 409.38 24.21 409.38 0.25 409.38"/><polyline points="0.25 409.38 24.21 410.27 0.25 410.27"/><polyline points="0.25 410.27 24.21 410.27 24.21 410.27 0.25 410.27"/><polyline class="cls-6" points="0.25 409.38 24.21 410.27 0.25 410.27"/><polyline class="cls-6" points="0.25 410.27 24.21 410.27 24.21 410.27 0.25 410.27"/><polyline points="0.25 409.38 24.21 409.38 24.21 410.27 0.25 409.38"/><polyline class="cls-6" points="0.25 409.38 24.21 409.38 24.21 410.27 0.25 409.38"/><path d="M78.35,409.38h0Z"/><path class="cls-6" d="M78.35,409.38h0Z"/><path d="M115.62,410.27H78.35v-.89Zm0,0Z"/><path class="cls-6" d="M115.62,410.27H78.35v-.89Zm0,0Z"/><polygon points="78.35 409.38 115.62 409.38 115.62 410.27 78.35 409.38"/><polygon class="cls-6" points="78.35 409.38 115.62 409.38 115.62 410.27 78.35 409.38"/><path d="M169.76,409.38h0Z"/><path class="cls-6" d="M169.76,409.38h0Z"/><path d="M200.82,410.27H169.76v-.89Zm0,0Z"/><path class="cls-6" d="M200.82,410.27H169.76v-.89Zm0,0Z"/><polygon points="169.76 409.38 199.94 409.38 200.82 410.27 169.76 409.38"/><polygon class="cls-6" points="169.76 409.38 199.94 409.38 200.82 410.27 169.76 409.38"/><polyline points="0.25 401.4 24.21 401.4 0.25 401.4"/><polyline class="cls-6" points="0.25 401.4 24.21 401.4 0.25 401.4"/><polyline points="0.25 407.61 24.21 407.61 0.25 407.61"/><polyline points="0.25 407.61 24.21 407.61 0.25 407.61"/><polyline points="0.25 401.4 24.21 407.61 0.25 407.61"/><polyline points="0.25 401.4 24.21 407.61 24.21 401.4 0.25 401.4"/><polyline class="cls-6" points="0.25 407.61 24.21 407.61 0.25 407.61"/><polyline class="cls-6" points="0.25 407.61 24.21 407.61 0.25 407.61"/><polyline class="cls-6" points="0.25 401.4 24.21 407.61 0.25 407.61"/><polyline class="cls-6" points="0.25 401.4 24.21 407.61 24.21 401.4 0.25 401.4"/><polyline points="0.25 407.61 24.21 409.38 0.25 409.38"/><polyline points="0.25 409.38 24.21 409.38 24.21 409.38 0.25 409.38"/><polyline class="cls-6" points="0.25 407.61 24.21 409.38 0.25 409.38"/><polyline class="cls-6" points="0.25 409.38 24.21 409.38 24.21 409.38 0.25 409.38"/><polyline points="0.25 407.61 24.21 407.61 24.21 409.38 0.25 407.61"/><polyline class="cls-6" points="0.25 407.61 24.21 407.61 24.21 409.38 0.25 407.61"/><path d="M78.35,401.4h0Z"/><path class="cls-6" d="M78.35,401.4h0Z"/><path d="M78.35,407.61h0Zm37.27,0h0ZM78.35,401.4l37.27,6.21H78.35Zm37.27,0H78.35l37.27,6.21Z"/><path class="cls-6" d="M78.35,407.61h0Zm37.27,0h0ZM78.35,401.4l37.27,6.21H78.35Zm37.27,0H78.35l37.27,6.21Z"/><path d="M115.62,409.38H78.35v-1.77Zm0,0Z"/><path class="cls-6" d="M115.62,409.38H78.35v-1.77Zm0,0Z"/><polygon points="78.35 407.61 115.62 407.61 115.62 409.38 78.35 407.61"/><polygon class="cls-6" points="78.35 407.61 115.62 407.61 115.62 409.38 78.35 407.61"/><path d="M169.76,401.4h0Z"/><path class="cls-6" d="M169.76,401.4h0Z"/><path d="M169.76,401.4l29.29,6.21H169.76Zm24.85,0H169.76l29.29,6.21Z"/><path class="cls-6" d="M169.76,401.4l29.29,6.21H169.76Zm24.85,0H169.76l29.29,6.21Z"/><path d="M199.94,409.38H169.76v-1.77Zm0,0Z"/><path class="cls-6" d="M199.94,409.38H169.76v-1.77Zm0,0Z"/><polygon points="169.76 407.61 199.05 407.61 199.94 409.38 169.76 407.61"/><polygon class="cls-6" points="169.76 407.61 199.05 407.61 199.94 409.38 169.76 407.61"/><path d="M194.61,401.4h0Zm-8.87-13.32,8.87,13.32h-8.87Z"/><path class="cls-6" d="M194.61,401.4h0Zm-8.87-13.32,8.87,13.32h-8.87Z"/><path d="M24.21,388.08h0Z"/><path class="cls-6" d="M24.21,388.08h0Z"/><path d="M10.9,388.08,24.21,401.4H10.9Zm13.31,0H10.9L24.21,401.4Z"/><path class="cls-6" d="M10.9,388.08,24.21,401.4H10.9Zm13.31,0H10.9L24.21,401.4Z"/><path d="M115.62,388.08h0Z"/><path class="cls-6" d="M115.62,388.08h0Z"/><path d="M115.62,401.4H78.35V388.08Zm0,0Z"/><path class="cls-6" d="M115.62,401.4H78.35V388.08Zm0,0Z"/><polygon points="78.35 388.08 115.62 388.08 115.62 401.4 78.35 388.08"/><polygon class="cls-6" points="78.35 388.08 115.62 388.08 115.62 401.4 78.35 388.08"/><path d="M169.76,388.08h0Z"/><path class="cls-6" d="M169.76,388.08h0Z"/><path d="M185.74,401.4h-16V388.08Zm0,0Z"/><path class="cls-6" d="M185.74,401.4h-16V388.08Zm0,0Z"/><polygon points="169.76 388.08 185.74 388.08 185.74 401.4 169.76 388.08"/><polygon class="cls-6" points="169.76 388.08 185.74 388.08 185.74 401.4 169.76 388.08"/><path d="M.25,388.08h0Z"/><path class="cls-6" d="M.25,388.08h0Z"/><path d="M10.9,401.4H.25V388.08Zm0,0Z"/><path class="cls-6" d="M10.9,401.4H.25V388.08Zm0,0Z"/><polygon points="0.25 388.08 10.9 388.08 10.9 401.4 0.25 388.08"/><polygon class="cls-6" points="0.25 388.08 10.9 388.08 10.9 401.4 0.25 388.08"/><polyline points="0.25 401.4 0.25 401.4 0.25 401.4 0.25 401.4"/><polyline class="cls-6" points="0.25 401.4 0.25 401.4 0.25 401.4 0.25 401.4"/><line class="cls-6" x1="169.76" y1="410.27" x2="200.82" y2="410.27"/><line class="cls-6" x1="78.35" y1="410.27" x2="115.62" y2="410.27"/><line class="cls-6" x1="0.25" y1="410.27" x2="24.21" y2="410.27"/><line class="cls-6" x1="169.76" y1="409.38" x2="199.94" y2="409.38"/><line class="cls-6" x1="78.35" y1="409.38" x2="115.62" y2="409.38"/><line class="cls-6" x1="0.25" y1="409.38" x2="24.21" y2="409.38"/><line class="cls-6" x1="185.74" y1="388.08" x2="185.74" y2="401.4"/><line class="cls-6" x1="0.25" y1="388.08" x2="0.25" y2="401.4"/><line class="cls-6" x1="10.9" y1="401.4" x2="10.9" y2="388.08"/><polyline class="cls-6" points="78.35 407.61 78.35 401.4 78.35 388.08"/><polyline class="cls-6" points="76.57 416.48 76.57 410.27 78.35 410.27"/><polyline class="cls-6" points="78.35 410.27 78.35 409.38 78.35 407.61"/><polyline class="cls-6" points="24.21 407.61 24.21 401.4 24.21 388.08"/><polyline class="cls-6" points="26.88 416.48 26.88 410.27 24.21 410.27"/><polyline class="cls-6" points="24.21 410.27 24.21 409.38 24.21 407.61"/><polyline class="cls-6" points="169.76 407.61 169.76 401.4 169.76 388.08"/><polyline class="cls-6" points="167.1 416.48 167.1 410.27 169.76 410.27"/><polyline class="cls-6" points="169.76 410.27 169.76 409.38 169.76 407.61"/><polyline class="cls-6" points="115.62 407.61 115.62 401.4 115.62 388.08"/><polyline class="cls-6" points="117.4 416.48 117.4 410.27 115.62 410.27"/><polyline class="cls-6" points="115.62 410.27 115.62 409.38 115.62 407.61"/><line class="cls-6" x1="0.25" y1="416.48" x2="26.87" y2="416.48"/><line class="cls-6" x1="76.57" y1="416.48" x2="117.4" y2="416.48"/><line class="cls-6" x1="167.1" y1="416.48" x2="205.26" y2="416.48"/><line class="cls-6" x1="185.74" y1="388.08" x2="169.76" y2="388.08"/><line class="cls-6" x1="115.62" y1="388.08" x2="78.35" y2="388.08"/><line class="cls-6" x1="24.21" y1="388.08" x2="10.9" y2="388.08"/><line class="cls-6" x1="26.87" y1="416.48" x2="76.57" y2="416.48"/><line class="cls-6" x1="24.21" y1="388.08" x2="78.35" y2="388.08"/><path d="M24.21,407.61h0Z"/><path class="cls-6" d="M24.21,407.61h0Z"/><path d="M31.31,410.27h-7.1v-2.66Zm0,0Z"/><path class="cls-6" d="M31.31,410.27h-7.1v-2.66Zm0,0Z"/><polygon points="24.21 407.61 31.31 407.61 31.31 410.27 24.21 407.61"/><polygon class="cls-6" points="24.21 407.61 31.31 407.61 31.31 410.27 24.21 407.61"/><path d="M72.14,407.61h0Z"/><path class="cls-6" d="M72.14,407.61h0Z"/><path d="M78.35,410.27H72.14v-2.66Zm0,0Z"/><path class="cls-6" d="M78.35,410.27H72.14v-2.66Zm0,0Z"/><polygon points="72.14 407.61 78.35 407.61 78.35 410.27 72.14 407.61"/><polygon class="cls-6" points="72.14 407.61 78.35 407.61 78.35 410.27 72.14 407.61"/><polyline class="cls-6" points="24.21 407.61 31.31 407.61 31.31 410.27 24.21 410.27"/><polyline class="cls-6" points="78.35 410.27 72.14 410.27 72.14 407.61 78.35 407.61"/><line class="cls-6" x1="31.31" y1="407.61" x2="72.14" y2="407.61"/><line class="cls-6" x1="72.14" y1="410.27" x2="31.31" y2="410.27"/><polyline class="cls-6" points="26.88 410.27 24.21 410.27 24.21 409.38 24.21 407.61"/><polyline class="cls-6" points="76.57 410.27 78.35 410.27 78.35 409.38 78.35 407.61"/><line class="cls-6" x1="117.4" y1="416.48" x2="167.1" y2="416.48"/><line class="cls-6" x1="115.62" y1="388.08" x2="169.76" y2="388.08"/><path d="M115.62,407.61h0Z"/><path class="cls-6" d="M115.62,407.61h0Z"/><path d="M121.84,410.27h-6.22v-2.66Zm0,0Z"/><path class="cls-6" d="M121.84,410.27h-6.22v-2.66Zm0,0Z"/><polygon points="115.62 407.61 121.84 407.61 121.84 410.27 115.62 407.61"/><polygon class="cls-6" points="115.62 407.61 121.84 407.61 121.84 410.27 115.62 407.61"/><path d="M162.66,407.61h0Z"/><path class="cls-6" d="M162.66,407.61h0Z"/><path d="M169.76,410.27h-7.1v-2.66Zm0,0Z"/><path class="cls-6" d="M169.76,410.27h-7.1v-2.66Zm0,0Z"/><polygon points="162.66 407.61 169.76 407.61 169.76 410.27 162.66 407.61"/><polygon class="cls-6" points="162.66 407.61 169.76 407.61 169.76 410.27 162.66 407.61"/><polyline class="cls-6" points="115.62 407.61 121.84 407.61 121.84 410.27 115.62 410.27"/><polyline class="cls-6" points="169.76 410.27 162.66 410.27 162.66 407.61 169.76 407.61"/><line class="cls-6" x1="121.84" y1="407.61" x2="162.66" y2="407.61"/><line class="cls-6" x1="162.66" y1="410.27" x2="121.84" y2="410.27"/><polyline class="cls-6" points="117.4 410.27 115.62 410.27 115.62 409.38 115.62 407.61"/><polyline class="cls-6" points="167.1 410.27 169.76 410.27 169.76 409.38 169.76 407.61"/><line class="cls-6" x1="335.72" y1="18" x2="335.72" y2="43.74"/><line class="cls-6" x1="332.17" y1="46.4" x2="270.05" y2="46.4"/><line class="cls-6" x1="332.17" y1="15.34" x2="270.05" y2="15.34"/><line class="cls-6" x1="252.3" y1="49.95" x2="338.38" y2="49.95"/><polyline class="cls-6" points="252.3 49.95 252.3 11.79 338.38 11.79 338.38 49.95"/><line class="cls-6" x1="279.81" y1="19.77" x2="328.62" y2="19.77"/><line class="cls-6" x1="330.4" y1="21.55" x2="330.4" y2="40.19"/><line class="cls-6" x1="279.81" y1="41.07" x2="328.62" y2="41.07"/><line class="cls-6" x1="320.63" y1="29.54" x2="320.63" y2="27.76"/><line class="cls-6" x1="321.52" y1="30.42" x2="323.3" y2="30.42"/><line class="cls-6" x1="320.63" y1="31.31" x2="320.63" y2="33.97"/><line class="cls-6" x1="319.75" y1="30.42" x2="317.97" y2="30.42"/><polyline class="cls-6" points="270.05 15.34 266.5 15.34 263.83 16.23 262.06 17.11 259.4 18.89 257.62 21.55 255.85 23.32 254.96 26.88 254.96 29.54 254.96 32.2 254.96 34.86 255.85 37.52 257.62 40.19 259.4 42.85 262.06 44.63 263.83 45.51 266.5 46.4 270.05 46.4"/><polyline class="cls-6" points="332.17 46.4 333.06 46.4 333.95 46.4 333.95 45.51 334.83 45.51 334.83 44.63 335.72 43.74"/><polyline class="cls-6" points="335.72 18 335.72 17.11 334.83 17.11 334.83 16.23 333.95 15.34 333.06 15.34 332.17 15.34"/><polyline class="cls-6" points="320.63 29.54 319.75 29.54 318.86 29.54 318.86 30.43 318.86 31.31 318.86 32.2 319.75 32.2 320.63 32.2 321.52 32.2 321.52 31.31 321.52 30.43 321.52 29.54 320.63 29.54"/><polyline class="cls-6" points="279.81 19.77 278.04 20.66 276.26 20.66 274.48 21.55 272.71 23.32 271.82 24.21 270.94 25.99 270.05 27.76 270.05 29.54 270.05 32.2 270.05 33.98 270.94 35.75 271.82 37.52 272.71 38.41 274.48 40.19 276.26 41.08 278.04 41.08 279.81 41.08"/><polyline class="cls-6" points="328.62 19.77 329.51 20.66 330.4 20.66 330.4 21.55"/><polyline class="cls-6" points="328.62 41.08 329.51 41.08 330.4 41.08 330.4 40.19"/><polyline class="cls-6" points="320.63 28.65 319.75 28.65 318.86 28.65 318.86 29.54 317.97 30.43 317.97 31.31 318.86 32.2 319.75 33.09 320.63 33.09 321.52 33.09 321.52 32.2 322.41 32.2 322.41 31.31 322.41 30.43 322.41 29.54 321.52 29.54 321.52 28.65 320.63 28.65"/><polyline class="cls-6" points="325.96 81.01 338.38 81.01 338.38 52.61 325.96 52.61"/><line class="cls-6" x1="338.38" y1="62.37" x2="338.38" y2="71.25"/><line class="cls-6" x1="328.62" y1="64.15" x2="328.62" y2="65.92"/><line class="cls-6" x1="330.4" y1="66.81" x2="329.51" y2="66.81"/><line class="cls-6" x1="328.62" y1="67.7" x2="328.62" y2="69.47"/><line class="cls-6" x1="327.73" y1="66.81" x2="325.96" y2="66.81"/><path class="cls-6" d="M325.8,79.22a12.88,12.88,0,0,0,6.09-5"/><path class="cls-6" d="M331.21,73.89A12.88,12.88,0,0,0,333,66.22"/><path class="cls-6" d="M331.89,58.5a12.9,12.9,0,0,0-6.09-5"/><path class="cls-6" d="M333,66.51a12.91,12.91,0,0,0-1.81-7.67"/><path class="cls-6" d="M317.15,67.21a23.53,23.53,0,0,0,2.36,8.68"/><path class="cls-6" d="M326.73,51.73a7.54,7.54,0,0,0-6.21,2.82"/><path class="cls-6" d="M316.23,65.34a14,14,0,0,0,0,2"/><path class="cls-6" d="M330.66,74.47a53,53,0,0,0,0-16.2"/><path class="cls-6" d="M336.14,56.72a18.23,18.23,0,0,0-11.82-4.11"/><path class="cls-6" d="M338.38,66.65a36.63,36.63,0,0,0-.91-8.42"/><path class="cls-6" d="M336.55,57.89a2.22,2.22,0,0,0-.76-1.23"/><path class="cls-6" d="M337.5,66a63.21,63.21,0,0,0-.6-8.25"/><path class="cls-6" d="M335.48,56.71a16.44,16.44,0,0,0-11.07-4.1"/><path class="cls-6" d="M335.7,58.08a2.18,2.18,0,0,0-.73-1.36"/><path class="cls-6" d="M324.43,80.12A16.43,16.43,0,0,0,335.5,76"/><path class="cls-6" d="M324.34,80.12A18.18,18.18,0,0,0,336.16,76"/><path class="cls-6" d="M336.91,74.89a63.32,63.32,0,0,0,.59-8.25"/><path class="cls-6" d="M337.48,74.46a36.14,36.14,0,0,0,.9-8.42"/><path class="cls-6" d="M335,76a2.21,2.21,0,0,0,.73-1.36"/><path class="cls-6" d="M335.8,76.07a2.14,2.14,0,0,0,.75-1.23"/><path class="cls-6" d="M320.52,78.19A7.53,7.53,0,0,0,326.73,81"/><path class="cls-6" d="M319.19,75.87a10.92,10.92,0,0,0,1.22,1.87"/><path class="cls-6" d="M320.41,55a10.54,10.54,0,0,0-1.22,1.87"/><path class="cls-6" d="M319.51,56.85a23.43,23.43,0,0,0-2.36,8.68"/><path class="cls-6" d="M318.45,62.31a17.41,17.41,0,0,0,0,8.12"/><path class="cls-6" d="M322.49,77.85a4,4,0,0,0,3.3,1.38"/><path class="cls-6" d="M319.09,70.84A15.58,15.58,0,0,0,322.37,78"/><path class="cls-6" d="M325.79,54.4a4,4,0,0,0-3.3,1.37"/><path class="cls-6" d="M322.37,55.65a15.55,15.55,0,0,0-3.28,7.13"/><path class="cls-6" d="M331.28,66.37a2.22,2.22,0,1,0-2.21,2.22,2.21,2.21,0,0,0,2.21-2.22"/><path class="cls-6" d="M330.4,66.37a1.34,1.34,0,1,0-1.33,1.33,1.33,1.33,0,0,0,1.33-1.33"/><line class="cls-6" x1="330.4" y1="95.21" x2="311.76" y2="95.21"/><polyline class="cls-6" points="331.28 94.32 338.38 94.32 338.38 114.74"/><line class="cls-6" x1="326.85" y1="104.97" x2="326.85" y2="112.07"/><polyline class="cls-6" points="311.76 95.21 326.85 96.99 326.85 104.97"/><line class="cls-6" x1="311.76" y1="113.85" x2="326.85" y2="112.07"/><line class="cls-6" x1="311.76" y1="96.1" x2="326.85" y2="97.87"/><line class="cls-6" x1="311.76" y1="112.96" x2="326.85" y2="111.19"/><line class="cls-6" x1="330.4" y1="113.85" x2="311.76" y2="113.85"/><line class="cls-6" x1="338.38" y1="114.74" x2="331.28" y2="114.74"/><polyline class="cls-6" points="311.76 95.21 309.1 96.1 307.32 96.1 305.55 97.87 303.77 99.65 302.88 101.42 302.88 103.2 302.88 105.86 302.88 107.64 303.77 109.41 305.55 111.19 307.32 112.96 309.1 113.85 311.76 113.85"/><polyline class="cls-6" points="311.76 96.1 309.1 96.1 307.32 96.99 305.55 97.87 304.66 99.65 303.77 101.42 302.88 103.2 302.88 105.86 303.77 107.64 304.66 109.41 305.55 111.19 307.32 112.07 309.1 112.96 311.76 112.96"/><polyline class="cls-6" points="330.4 96.1 329.51 104.97 330.4 113.85"/><polyline class="cls-6" points="330.4 96.1 330.4 95.21 330.4 94.32 331.28 94.32"/><polyline class="cls-6" points="331.28 114.74 330.4 114.74 330.4 113.85"/><polyline class="cls-6" points="334.83 104.97 334.83 104.09 333.95 104.09 333.06 104.09 333.06 104.97 333.06 105.86 333.95 105.86 333.95 104.97 334.83 104.97"/><polyline class="cls-6" points="282.47 126.27 250.52 126.27 250.52 102.31"/><path d="M.25,21.55h0Z"/><path class="cls-6" d="M.25,21.55h0Z"/><path d="M10.9,146.69H.25V21.55Zm0,0Z"/><path class="cls-6" d="M10.9,146.69H.25V21.55Zm0,0Z"/><polygon points="0.25 21.55 10.9 21.55 10.9 146.69 0.25 21.55"/><polygon class="cls-6" points="0.25 21.55 10.9 21.55 10.9 146.69 0.25 21.55"/><line class="cls-6" x1="0.25" y1="0.25" x2="0.25" y2="102.31"/><polyline class="cls-6" points="0.25 106.75 0.25 146.69 10.9 146.69 10.9 106.75"/><line class="cls-6" x1="10.9" y1="102.31" x2="10.9" y2="21.55"/><path d="M208.81,410.27h0Z"/><path class="cls-6" d="M208.81,410.27h0Z"/><path d="M205.26,410.27l3.55,2.66h-3.55Zm3.55,0h-3.55l3.55,2.66Z"/><path class="cls-6" d="M205.26,410.27l3.55,2.66h-3.55Zm3.55,0h-3.55l3.55,2.66Z"/><path d="M205.26,412.93l3.55,3.55h-3.55Zm3.55,0h-3.55l3.55,3.55Z"/><path class="cls-6" d="M205.26,412.93l3.55,3.55h-3.55Zm3.55,0h-3.55l3.55,3.55Z"/><polyline points="353.47 410.27 349.92 410.27 353.47 410.27"/><polyline class="cls-6" points="353.47 410.27 349.92 410.27 353.47 410.27"/><polyline points="353.47 412.93 349.92 412.93 353.47 412.93"/><polyline points="353.47 412.93 349.92 412.93 353.47 412.93"/><polyline points="353.47 412.93 349.92 412.93 349.92 410.27 353.47 412.93"/><polyline points="353.47 410.27 349.92 410.27 353.47 412.93"/><polyline class="cls-6" points="353.47 412.93 349.92 412.93 353.47 412.93"/><polyline class="cls-6" points="353.47 412.93 349.92 412.93 353.47 412.93"/><polyline class="cls-6" points="353.47 412.93 349.92 412.93 349.92 410.27 353.47 412.93"/><polyline class="cls-6" points="353.47 410.27 349.92 410.27 353.47 412.93"/><polyline points="353.47 416.48 349.92 416.48 349.92 412.93 353.47 416.48"/><polyline points="353.47 412.93 349.92 412.93 353.47 416.48"/><polyline class="cls-6" points="353.47 416.48 349.92 416.48 349.92 412.93 353.47 416.48"/><polyline class="cls-6" points="353.47 412.93 349.92 412.93 353.47 416.48"/><polyline class="cls-6" points="349.92 416.48 349.92 412.93 349.92 410.27"/><polyline class="cls-6" points="208.81 416.48 208.81 412.93 208.81 410.27"/><line class="cls-6" x1="353.47" y1="410.27" x2="349.92" y2="410.27"/><polyline class="cls-6" points="208.81 410.27 205.26 410.27 205.26 416.48 208.81 416.48"/><line class="cls-6" x1="349.92" y1="416.48" x2="353.47" y2="416.48"/><line class="cls-6" x1="208.81" y1="416.48" x2="349.92" y2="416.48"/><line class="cls-6" x1="208.81" y1="410.27" x2="349.92" y2="410.27"/><path d="M208.81,410.27l3.55,2.66h-3.55Zm3.55,0h-3.55l3.55,2.66Z"/><path class="cls-6" d="M208.81,410.27l3.55,2.66h-3.55Zm3.55,0h-3.55l3.55,2.66Z"/><path d="M254.07,410.27l1.78,2.66h-1.78Zm1.78,0h-1.78l1.78,2.66Z"/><path class="cls-6" d="M254.07,410.27l1.78,2.66h-1.78Zm1.78,0h-1.78l1.78,2.66Z"/><path d="M255.85,410.27l2.66,2.66h-2.66Zm2.66,0h-2.66l2.66,2.66Z"/><path class="cls-6" d="M255.85,410.27l2.66,2.66h-2.66Zm2.66,0h-2.66l2.66,2.66Z"/><path d="M300.22,410.27l1.78,2.66h-1.78Zm1.78,0h-1.78l1.78,2.66Z"/><path class="cls-6" d="M300.22,410.27l1.78,2.66h-1.78Zm1.78,0h-1.78l1.78,2.66Z"/><path d="M302,410.27l2.66,2.66H302Zm2.66,0H302l2.66,2.66Z"/><path class="cls-6" d="M302,410.27l2.66,2.66H302Zm2.66,0H302l2.66,2.66Z"/><path d="M346.37,410.27l3.55,2.66h-3.55Zm3.55,0h-3.55l3.55,2.66Z"/><path class="cls-6" d="M346.37,410.27l3.55,2.66h-3.55Zm3.55,0h-3.55l3.55,2.66Z"/><polyline class="cls-6" points="208.81 410.27 212.36 410.27 212.36 412.93 208.81 412.93"/><polyline class="cls-6" points="255.85 412.93 254.07 412.93 254.07 410.27 255.85 410.27"/><line class="cls-6" x1="212.36" y1="410.27" x2="254.07" y2="410.27"/><line class="cls-6" x1="254.07" y1="412.93" x2="212.36" y2="412.93"/><polyline class="cls-6" points="255.85 410.27 258.51 410.27 258.51 412.93 255.85 412.93"/><polyline class="cls-6" points="302 412.93 300.22 412.93 300.22 410.27 302 410.27"/><line class="cls-6" x1="258.51" y1="410.27" x2="300.22" y2="410.27"/><line class="cls-6" x1="300.22" y1="412.93" x2="258.51" y2="412.93"/><polyline class="cls-6" points="302 410.27 304.66 410.27 304.66 412.93 302 412.93"/><polyline class="cls-6" points="349.92 412.93 346.37 412.93 346.37 410.27 349.92 410.27"/><line class="cls-6" x1="304.66" y1="410.27" x2="346.37" y2="410.27"/><line class="cls-6" x1="346.37" y1="412.93" x2="304.66" y2="412.93"/><line class="cls-6" x1="208.81" y1="412.93" x2="208.81" y2="410.27"/><line class="cls-6" x1="349.92" y1="412.93" x2="349.92" y2="410.27"/><path d="M204.37,357Z"/><path class="cls-6" d="M204.37,357Z"/><path d="M205.26,357Zm-.89,0h0Z"/><path class="cls-6" d="M205.26,357Zm-.89,0h0Z"/><path d="M204.37,357l.89,52.36h-.89Zm.89,0h-.89l.89,52.36Z"/><path class="cls-6" d="M204.37,357l.89,52.36h-.89Zm.89,0h-.89l.89,52.36Z"/><path d="M204.37,409.38l.89.89h-.89Zm.89,0h-.89l.89.89Z"/><path class="cls-6" d="M204.37,409.38l.89.89h-.89Zm.89,0h-.89l.89.89Z"/><path d="M204.37,415.6h.89v.88Zm0-5.33v5.33h.89Z"/><path class="cls-6" d="M204.37,415.6h.89v.88Zm0-5.33v5.33h.89Z"/><polygon points="204.37 410.27 205.26 410.27 205.26 415.6 204.37 410.27"/><polygon class="cls-6" points="204.37 410.27 205.26 410.27 205.26 415.6 204.37 410.27"/><path d="M196.39,349Z"/><path class="cls-6" d="M196.39,349Z"/><path d="M204.37,357h-8v-8Zm0,0Zm-8-8,8,8Z"/><path class="cls-6" d="M204.37,357h-8v-8Zm0,0Zm-8-8,8,8Z"/><path d="M196.39,357h0Z"/><path class="cls-6" d="M196.39,357h0Z"/><path d="M204.37,401.4h-8V357Zm0,0Z"/><path class="cls-6" d="M204.37,401.4h-8V357Zm0,0Z"/><polygon points="196.38 357.02 204.37 357.02 204.37 401.4 196.38 357.02"/><polygon class="cls-6" points="196.38 357.02 204.37 357.02 204.37 401.4 196.38 357.02"/><path d="M196.39,401.4h0Z"/><path class="cls-6" d="M196.39,401.4h0Z"/><path d="M196.39,401.4l8,2.66h-8Zm8,0h-8l8,2.66Z"/><path class="cls-6" d="M196.39,401.4l8,2.66h-8Zm8,0h-8l8,2.66Z"/><path d="M204.37,409.38h-4.43l-3.55-5.32Zm0,0Z"/><path class="cls-6" d="M204.37,409.38h-4.43l-3.55-5.32Zm0,0Z"/><polygon points="196.38 404.06 204.37 404.06 204.37 409.38 196.38 404.06"/><polygon class="cls-6" points="196.38 404.06 204.37 404.06 204.37 409.38 196.38 404.06"/><path d="M199.94,409.38h0Z"/><path class="cls-6" d="M199.94,409.38h0Z"/><path d="M204.37,410.27h-3.55l-.88-.89Zm0,0Z"/><path class="cls-6" d="M204.37,410.27h-3.55l-.88-.89Zm0,0Z"/><polygon points="199.94 409.38 204.37 409.38 204.37 410.27 199.94 409.38"/><polygon class="cls-6" points="199.94 409.38 204.37 409.38 204.37 410.27 199.94 409.38"/><path d="M204.37,410.27h-3.55l3.55,5.33Zm0,0Z"/><path class="cls-6" d="M204.37,410.27h-3.55l3.55,5.33Zm0,0Z"/><polygon points="185.74 337.5 196.38 349.03 185.74 349.03 185.74 337.5"/><polygon class="cls-6" points="185.74 337.5 196.38 349.03 185.74 349.03 185.74 337.5"/><path d="M185.74,349l10.65,39.05H185.74Zm10.65,0H185.74l10.65,39.05Z"/><path class="cls-6" d="M185.74,349l10.65,39.05H185.74Zm10.65,0H185.74l10.65,39.05Z"/><path d="M196.39,401.4h-1.78l-8.87-13.32Zm0,0Z"/><path class="cls-6" d="M196.39,401.4h-1.78l-8.87-13.32Zm0,0Z"/><polygon points="185.74 388.08 196.38 388.08 196.38 401.4 185.74 388.08"/><polygon class="cls-6" points="185.74 388.08 196.38 388.08 196.38 401.4 185.74 388.08"/><path d="M196.39,401.4h-1.78l1.78,2.66Zm0,0Z"/><path class="cls-6" d="M196.39,401.4h-1.78l1.78,2.66Zm0,0Z"/><line class="cls-6" x1="204.37" y1="410.27" x2="205.26" y2="410.27"/><polyline class="cls-6" points="199.94 409.38 204.37 409.38 204.37 401.4 204.37 357.02"/><line class="cls-6" x1="200.82" y1="410.27" x2="204.37" y2="410.27"/><line class="cls-6" x1="196.39" y1="401.4" x2="196.39" y2="349.03"/><polyline class="cls-6" points="205.26 416.48 205.26 410.27 205.26 409.38 205.26 357.02"/><line class="cls-6" x1="185.74" y1="337.5" x2="185.74" y2="388.08"/><path d="M.25,146.69h0Z"/><path class="cls-6" d="M.25,146.69h0Z"/><path d="M10.9,200.82H.25V146.69Zm0,0Z"/><path class="cls-6" d="M10.9,200.82H.25V146.69Zm0,0Z"/><polygon points="0.25 146.69 10.9 146.69 10.9 200.82 0.25 146.69"/><polygon class="cls-6" points="0.25 146.69 10.9 146.69 10.9 200.82 0.25 146.69"/><polyline class="cls-6" points="10.9 200.82 10.9 146.69 0.25 146.69 0.25 200.82 10.9 200.82"/><polyline points="349.92 10.9 339.27 10.9 339.27 0.25 349.92 10.9"/><polyline points="349.92 0.25 339.27 0.25 349.92 10.9"/><polyline class="cls-6" points="349.92 10.9 339.27 10.9 339.27 0.25 349.92 10.9"/><polyline class="cls-6" points="349.92 0.25 339.27 0.25 349.92 10.9"/><polyline class="cls-6" points="349.92 0.25 339.27 0.25 339.27 10.9 349.92 10.9"/><path d="M.25,343.71h0Z"/><path class="cls-6" d="M.25,343.71h0Z"/><path d="M10.9,388.08H.25V343.71Zm0,0Z"/><path class="cls-6" d="M10.9,388.08H.25V343.71Zm0,0Z"/><polygon points="0.25 343.71 10.9 343.71 10.9 388.08 0.25 343.71"/><polygon class="cls-6" points="0.25 343.71 10.9 343.71 10.9 388.08 0.25 343.71"/><polyline class="cls-6" points="10.9 388.08 10.9 343.71 0.25 343.71 0.25 388.08"/><path d="M339.27,343.71h0Z"/><path class="cls-6" d="M339.27,343.71h0Z"/><path d="M339.27,343.71l10.65,57.69H339.27Zm10.65,0H339.27l10.65,57.69Z"/><path class="cls-6" d="M339.27,343.71l10.65,57.69H339.27Zm10.65,0H339.27l10.65,57.69Z"/><polyline class="cls-6" points="339.27 343.71 339.27 401.4 349.92 401.4 349.92 343.71 339.27 343.71"/><path d="M339.27,180.41h0Z"/><path class="cls-6" d="M339.27,180.41h0Z"/><path d="M349.92,234.55H339.27V180.41Zm0,0Z"/><path class="cls-6" d="M349.92,234.55H339.27V180.41Zm0,0Z"/><polygon points="339.27 180.41 349.92 180.41 349.92 234.55 339.27 180.41"/><polygon class="cls-6" points="339.27 180.41 349.92 180.41 349.92 234.55 339.27 180.41"/><polyline class="cls-6" points="349.92 234.55 349.92 180.41 339.27 180.41 339.27 234.55 349.92 234.55"/><polyline points="0.25 0.25 32.2 10.9 0.25 10.9"/><polyline points="0.25 0.25 32.2 10.9 32.2 0.25 0.25 0.25"/><polyline class="cls-6" points="0.25 0.25 32.2 10.9 0.25 10.9"/><polyline class="cls-6" points="0.25 0.25 32.2 10.9 32.2 0.25 0.25 0.25"/><polyline class="cls-6" points="0.25 10.9 32.2 10.9 32.2 0.25 0.25 0.25"/><path d="M.25,200.82h0Z"/><path class="cls-6" d="M.25,200.82h0Z"/><path d="M10.9,343.71H.25V200.82Zm0,0Z"/><path class="cls-6" d="M10.9,343.71H.25V200.82Zm0,0Z"/><polygon points="0.25 200.82 10.9 200.82 10.9 343.71 0.25 200.82"/><polygon class="cls-6" points="0.25 200.82 10.9 200.82 10.9 343.71 0.25 200.82"/><polyline class="cls-6" points="0.25 200.82 0.25 343.71 10.9 343.71 10.9 200.82 0.25 200.82"/><path d="M115.62.25,181.3,10.9h-55Zm65.68,0H115.62L181.3,10.9Z"/><path class="cls-6" d="M115.62.25,181.3,10.9h-55Zm65.68,0H115.62L181.3,10.9Z"/><path d="M235.43.25h0Z"/><path class="cls-6" d="M235.43.25h0Z"/><path d="M339.27,10.9H235.43V.25Zm0,0Z"/><path class="cls-6" d="M339.27,10.9H235.43V.25Zm0,0Z"/><polygon points="235.44 0.25 339.27 0.25 339.27 10.9 235.44 0.25"/><polygon class="cls-6" points="235.44 0.25 339.27 0.25 339.27 10.9 235.44 0.25"/><line class="cls-6" x1="235.43" y1="0.25" x2="235.43" y2="10.9"/><polyline class="cls-6" points="181.3 0.25 181.3 10.9 126.27 10.9"/><polyline class="cls-6" points="235.44 10.9 339.27 10.9 339.27 0.25 235.44 0.25"/><line class="cls-6" x1="181.3" y1="0.25" x2="115.62" y2="0.25"/><path class="cls-6" d="M184,10.46a49.25,49.25,0,0,0,49.26,49.25"/><path d="M181.3.25h0Z"/><path class="cls-6" d="M181.3.25h0Z"/><path d="M184,10.9H181.3V.25Zm0,0Z"/><path class="cls-6" d="M184,10.9H181.3V.25Zm0,0Z"/><polygon points="181.3 0.25 183.96 0.25 183.96 10.9 181.3 0.25"/><polygon class="cls-6" points="181.3 0.25 183.96 0.25 183.96 10.9 181.3 0.25"/><path d="M232.77.25h0Z"/><path class="cls-6" d="M232.77.25h0Z"/><path d="M235.43,10.9h-2.66V.25Zm0,0Z"/><path class="cls-6" d="M235.43,10.9h-2.66V.25Zm0,0Z"/><polygon points="232.77 0.25 235.44 0.25 235.44 10.9 232.77 0.25"/><polygon class="cls-6" points="232.77 0.25 235.44 0.25 235.44 10.9 232.77 0.25"/><polyline class="cls-6" points="181.3 0.25 183.96 0.25 183.96 10.9 181.3 10.9 181.3 0.25"/><polyline class="cls-6" points="235.44 10.9 232.77 10.9 232.77 0.25 235.44 0.25 235.44 10.9"/><line class="cls-6" x1="232.77" y1="10.9" x2="232.77" y2="60.6"/><line class="cls-6" x1="181.3" y1="0.25" x2="181.3" y2="10.9"/><line class="cls-6" x1="235.43" y1="0.25" x2="235.43" y2="10.9"/><path d="M352.58,404.06h.89V405Zm0-47v47h.89Z"/><path class="cls-6" d="M352.58,404.06h.89V405Zm0-47v47h.89Z"/><polygon points="352.58 357.02 353.47 357.02 353.47 404.06 352.58 357.02"/><polygon class="cls-6" points="352.58 357.02 353.47 357.02 353.47 404.06 352.58 357.02"/><path d="M349.92,401.4h2.66v2.66Zm0-44.38V401.4h2.66Z"/><path class="cls-6" d="M349.92,401.4h2.66v2.66Zm0-44.38V401.4h2.66Z"/><polygon points="349.92 357.02 352.58 357.02 352.58 401.4 349.92 357.02"/><polygon class="cls-6" points="349.92 357.02 352.58 357.02 352.58 401.4 349.92 357.02"/><line class="cls-6" x1="352.58" y1="404.06" x2="352.58" y2="357.02"/><line class="cls-6" x1="353.47" y1="404.95" x2="353.47" y2="357.02"/><polyline class="cls-6" points="349.92 401.4 349.92 357.02 352.58 357.02 353.47 357.02"/><path d="M335.72,404.06h.89l-.89.89Zm0-47v47h.89Z"/><path class="cls-6" d="M335.72,404.06h.89l-.89.89Zm0-47v47h.89Z"/><polygon points="335.72 357.02 336.61 357.02 336.61 404.06 335.72 357.02"/><polygon class="cls-6" points="335.72 357.02 336.61 357.02 336.61 404.06 335.72 357.02"/><path d="M336.61,401.4h2.66l-2.66,2.66Zm0-44.38V401.4h2.66Z"/><path class="cls-6" d="M336.61,401.4h2.66l-2.66,2.66Zm0-44.38V401.4h2.66Z"/><polygon points="336.61 357.02 339.27 357.02 339.27 401.4 336.61 357.02"/><polygon class="cls-6" points="336.61 357.02 339.27 357.02 339.27 401.4 336.61 357.02"/><line class="cls-6" x1="336.61" y1="357.02" x2="336.61" y2="404.06"/><polyline class="cls-6" points="339.27 401.4 339.27 357.02 336.61 357.02 335.72 357.02 335.72 404.95"/><path d="M336.61,404.06l16.86.89H335.72Zm16,0h-16l16.86.89Z"/><path class="cls-6" d="M336.61,404.06l16.86.89H335.72Zm16,0h-16l16.86.89Z"/><path d="M339.27,401.4l13.31,2.66h-16Zm10.65,0H339.27l13.31,2.66Z"/><path class="cls-6" d="M339.27,401.4l13.31,2.66h-16Zm10.65,0H339.27l13.31,2.66Z"/><line class="cls-6" x1="336.61" y1="404.06" x2="352.58" y2="404.06"/><line class="cls-6" x1="335.72" y1="404.95" x2="353.47" y2="404.95"/><line class="cls-6" x1="349.92" y1="401.4" x2="339.27" y2="401.4"/><path d="M349,405l4.44,5.32H349Zm4.44,0H349l4.44,5.32Z"/><path class="cls-6" d="M349,405l4.44,5.32H349Zm4.44,0H349l4.44,5.32Z"/><polyline class="cls-6" points="353.47 416.48 353.47 404.95 349.03 404.95 349.03 410.27 353.47 410.27"/><path d="M126.27,10.9H115.62l10.65,10.65ZM115.62.25,126.27,10.9H115.62Z"/><path class="cls-6" d="M126.27,10.9H115.62l10.65,10.65ZM115.62.25,126.27,10.9H115.62Z"/><path d="M126.27,10.9Zm-10.65,0h0Z"/><path class="cls-6" d="M126.27,10.9Zm-10.65,0h0Z"/><line class="cls-6" x1="126.27" y1="21.55" x2="126.27" y2="10.9"/><line class="cls-6" x1="115.62" y1="0.25" x2="115.62" y2="10.9"/><path d="M115.62,10.9h0Z"/><path class="cls-6" d="M115.62,10.9h0Z"/><path d="M120.06,55.27h-4.44V10.9Zm0,0Z"/><path class="cls-6" d="M120.06,55.27h-4.44V10.9Zm0,0Z"/><polygon points="115.62 10.9 120.06 10.9 120.06 55.27 115.62 10.9"/><polygon class="cls-6" points="115.62 10.9 120.06 10.9 120.06 55.27 115.62 10.9"/><path d="M115.62,97.87h0Z"/><path class="cls-6" d="M115.62,97.87h0Z"/><path d="M120.06,102.31h-4.44V97.87Zm0,0Z"/><path class="cls-6" d="M120.06,102.31h-4.44V97.87Zm0,0Z"/><polygon points="115.62 97.87 120.06 97.87 120.06 102.31 115.62 97.87"/><polygon class="cls-6" points="115.62 97.87 120.06 97.87 120.06 102.31 115.62 97.87"/><line class="cls-6" x1="115.62" y1="55.27" x2="120.06" y2="55.27"/><polyline class="cls-6" points="115.62 97.87 120.06 97.87 120.06 102.31"/><line class="cls-6" x1="120.06" y1="55.27" x2="120.06" y2="21.55"/><line class="cls-6" x1="120.06" y1="10.9" x2="115.62" y2="10.9"/><line class="cls-6" x1="115.62" y1="21.55" x2="115.62" y2="55.27"/><line class="cls-6" x1="115.62" y1="97.87" x2="115.62" y2="102.31"/><line class="cls-6" x1="115.62" y1="55.27" x2="115.62" y2="57.94"/><line class="cls-6" x1="120.06" y1="55.27" x2="120.06" y2="57.94"/><line class="cls-6" x1="115.62" y1="97.87" x2="115.62" y2="95.21"/><line class="cls-6" x1="120.06" y1="97.87" x2="120.06" y2="95.21"/><line class="cls-6" x1="120.06" y1="57.94" x2="115.62" y2="57.94"/><polyline class="cls-6" points="120.06 95.21 115.62 95.21 96.99 62.37"/><path class="cls-6" d="M116.07,57.05A37.71,37.71,0,0,0,97.21,62.1"/><path d="M190.17,152h0Z"/><path class="cls-6" d="M190.17,152h0Z"/><path d="M199.94,156.45h-9.77V152Zm0,0Z"/><path class="cls-6" d="M199.94,156.45h-9.77V152Zm0,0Z"/><polygon points="190.17 152.01 199.94 152.01 199.94 156.45 190.17 152.01"/><polygon class="cls-6" points="190.17 152.01 199.94 152.01 199.94 156.45 190.17 152.01"/><path d="M243.42,152h0Z"/><path class="cls-6" d="M243.42,152h0Z"/><path d="M339.27,156.45H243.42V152Zm0,0Z"/><path class="cls-6" d="M339.27,156.45H243.42V152Zm0,0Z"/><polygon points="243.42 152.01 339.27 152.01 339.27 156.45 243.42 152.01"/><polygon class="cls-6" points="243.42 152.01 339.27 152.01 339.27 156.45 243.42 152.01"/><line class="cls-6" x1="199.94" y1="156.45" x2="199.94" y2="152.01"/><line class="cls-6" x1="243.42" y1="156.45" x2="243.42" y2="152.01"/><line class="cls-6" x1="190.17" y1="156.45" x2="199.94" y2="156.45"/><polyline class="cls-6" points="243.42 156.45 339.27 156.45 339.27 152.01 312.65 152.01"/><line class="cls-6" x1="308.21" y1="152.01" x2="250.52" y2="152.01"/><line class="cls-6" x1="246.08" y1="152.01" x2="243.42" y2="152.01"/><line class="cls-6" x1="199.94" y1="152.01" x2="190.17" y2="152.01"/><line class="cls-6" x1="243.42" y1="152.01" x2="240.76" y2="152.01"/><line class="cls-6" x1="243.42" y1="156.45" x2="240.76" y2="156.45"/><line class="cls-6" x1="199.94" y1="152.01" x2="202.6" y2="152.01"/><line class="cls-6" x1="199.94" y1="156.45" x2="202.6" y2="156.45"/><line class="cls-6" x1="240.76" y1="156.45" x2="240.76" y2="152.01"/><polyline class="cls-6" points="202.6 156.45 202.6 152.01 202.6 114.74"/><path class="cls-6" d="M240.76,151.57A37.72,37.72,0,0,0,203,113.85"/><path d="M10.9,102.31h0Z"/><path class="cls-6" d="M10.9,102.31h0Z"/><path d="M131.6,106.75H10.9v-4.44Zm0,0Z"/><path class="cls-6" d="M131.6,106.75H10.9v-4.44Zm0,0Z"/><polygon points="10.9 102.31 131.6 102.31 131.6 106.75 10.9 102.31"/><polygon class="cls-6" points="10.9 102.31 131.6 102.31 131.6 106.75 10.9 102.31"/><path d="M180.41,102.31h0Z"/><path class="cls-6" d="M180.41,102.31h0Z"/><path d="M185.74,106.75h-5.33v-4.44Zm0,0Z"/><path class="cls-6" d="M185.74,106.75h-5.33v-4.44Zm0,0Z"/><polygon points="180.41 102.31 190.17 102.31 185.74 106.75 180.41 102.31"/><polygon class="cls-6" points="180.41 102.31 190.17 102.31 185.74 106.75 180.41 102.31"/><line class="cls-6" x1="131.6" y1="106.75" x2="131.6" y2="102.31"/><polyline class="cls-6" points="180.41 106.75 180.41 102.31 190.17 102.31"/><line class="cls-6" x1="131.6" y1="102.31" x2="120.06" y2="102.31"/><line class="cls-6" x1="115.62" y1="102.31" x2="10.9" y2="102.31"/><line class="cls-6" x1="10.9" y1="106.75" x2="131.6" y2="106.75"/><line class="cls-6" x1="180.41" y1="106.75" x2="185.74" y2="106.75"/><line class="cls-6" x1="131.6" y1="106.75" x2="134.26" y2="106.75"/><line class="cls-6" x1="131.6" y1="102.31" x2="134.26" y2="102.31"/><line class="cls-6" x1="180.41" y1="106.75" x2="177.75" y2="106.75"/><line class="cls-6" x1="180.41" y1="102.31" x2="177.75" y2="102.31"/><line class="cls-6" x1="134.26" y1="102.31" x2="134.26" y2="106.75"/><polyline class="cls-6" points="177.75 102.31 177.75 106.75 177.75 150.24"/><path class="cls-6" d="M135.15,106.31a43,43,0,0,0,43,43"/><polygon points="190.17 102.31 190.17 106.75 185.74 106.75 190.17 102.31"/><polygon class="cls-6" points="190.17 102.31 190.17 106.75 185.74 106.75 190.17 102.31"/><path d="M190.17,341.93h-4.43V106.75Zm0,0Z"/><path class="cls-6" d="M190.17,341.93h-4.43V106.75Zm0,0Z"/><polygon points="185.74 106.75 190.17 106.75 190.17 341.93 185.74 106.75"/><polygon class="cls-6" points="185.74 106.75 190.17 106.75 190.17 341.93 185.74 106.75"/><polyline class="cls-6" points="185.74 106.75 185.74 341.93 190.17 341.93 190.17 156.45"/><line class="cls-6" x1="190.17" y1="152.01" x2="190.17" y2="102.31"/><path d="M246.08,10.9h0Z"/><path class="cls-6" d="M246.08,10.9h0Z"/><path d="M250.52,50.84h-4.44V10.9Zm0,0Z"/><path class="cls-6" d="M250.52,50.84h-4.44V10.9Zm0,0Z"/><polygon points="246.09 10.9 250.52 10.9 250.52 50.84 246.09 10.9"/><polygon class="cls-6" points="246.09 10.9 250.52 10.9 250.52 50.84 246.09 10.9"/><path d="M246.08,93.44h0Z"/><path class="cls-6" d="M246.08,93.44h0Z"/><path d="M250.52,152h-4.44V93.44Zm0,0Z"/><path class="cls-6" d="M250.52,152h-4.44V93.44Zm0,0Z"/><polygon points="246.09 93.44 250.52 93.44 250.52 152.01 246.09 93.44"/><polygon class="cls-6" points="246.09 93.44 250.52 93.44 250.52 152.01 246.09 93.44"/><line class="cls-6" x1="246.08" y1="50.84" x2="250.52" y2="50.84"/><line class="cls-6" x1="246.08" y1="93.44" x2="250.52" y2="93.44"/><line class="cls-6" x1="250.52" y1="152.01" x2="250.52" y2="130.71"/><line class="cls-6" x1="250.52" y1="126.27" x2="250.52" y2="93.44"/><polyline class="cls-6" points="250.52 50.84 250.52 10.9 246.09 10.9 246.09 50.84"/><line class="cls-6" x1="246.08" y1="93.44" x2="246.08" y2="152.01"/><line class="cls-6" x1="246.08" y1="93.44" x2="246.08" y2="90.77"/><line class="cls-6" x1="250.52" y1="93.44" x2="250.52" y2="90.77"/><line class="cls-6" x1="246.08" y1="50.84" x2="246.08" y2="53.5"/><line class="cls-6" x1="250.52" y1="50.84" x2="250.52" y2="53.5"/><line class="cls-6" x1="250.52" y1="90.77" x2="246.08" y2="90.77"/><polyline class="cls-6" points="250.52 53.5 246.09 53.5 227.45 86.34"/><path class="cls-6" d="M227.67,85.72a37.71,37.71,0,0,0,18.86,5"/><path d="M312.65,130.71h0Z"/><path class="cls-6" d="M312.65,130.71h0Z"/><path d="M312.65,152h-4.44v-21.3Zm0,0Z"/><path class="cls-6" d="M312.65,152h-4.44v-21.3Zm0,0Z"/><polygon points="308.21 130.71 312.65 130.71 312.65 152.01 308.21 130.71"/><polygon class="cls-6" points="308.21 130.71 312.65 130.71 312.65 152.01 308.21 130.71"/><line class="cls-6" x1="308.21" y1="130.71" x2="308.21" y2="152.01"/><line class="cls-6" x1="312.65" y1="152.01" x2="312.65" y2="130.71"/><path d="M339.27,126.27h0Z"/><path class="cls-6" d="M339.27,126.27h0Z"/><path d="M339.27,130.71H250.52v-4.44Zm0,0Z"/><path class="cls-6" d="M339.27,130.71H250.52v-4.44Zm0,0Z"/><polygon points="250.52 126.27 339.27 126.27 339.27 130.71 250.52 126.27"/><polygon class="cls-6" points="250.52 126.27 339.27 126.27 339.27 130.71 250.52 126.27"/><line class="cls-6" x1="339.27" y1="126.27" x2="250.52" y2="126.27"/><line class="cls-6" x1="250.52" y1="130.71" x2="308.21" y2="130.71"/><polyline class="cls-6" points="312.65 130.71 339.27 130.71 339.27 126.27"/><polyline class="cls-6" points="25.1 449.32 26.88 447.55 26.88 416.48 25.1 416.48 25.1 449.32"/><polyline class="cls-6" points="76.57 447.55 77.46 449.32 76.57 447.55 26.88 447.55 25.1 449.32 77.46 449.32 77.46 416.48 76.57 416.48 76.57 447.55"/><polyline class="cls-6" points="77.46 448.43 25.99 448.43 25.99 416.48"/><polyline class="cls-6" points="74.8 439.56 27.76 439.56 27.76 421.81 74.8 421.81 74.8 439.56"/><polyline class="cls-6" points="74.8 437.78 27.76 437.78 27.76 421.81 74.8 421.81 74.8 437.78"/><line class="cls-6" x1="77.46" y1="448.43" x2="77.46" y2="416.48"/><polyline class="cls-6" points="307.32 156.45 336.61 156.45 336.61 199.05 307.32 199.05 307.32 156.45"/><polyline class="cls-6" points="309.98 196.38 309.98 173.31 331.28 173.31 331.28 196.38 309.98 196.38"/><line class="cls-6" x1="309.98" y1="169.76" x2="309.98" y2="160.89"/><line class="cls-6" x1="313.53" y1="169.76" x2="313.53" y2="160.89"/><line class="cls-6" x1="317.08" y1="169.76" x2="317.08" y2="160.89"/><line class="cls-6" x1="320.63" y1="169.76" x2="320.63" y2="160.89"/><line class="cls-6" x1="324.18" y1="169.76" x2="324.18" y2="160.89"/><line class="cls-6" x1="327.73" y1="169.76" x2="327.73" y2="160.89"/><line class="cls-6" x1="307.32" y1="341.93" x2="307.32" y2="188.4"/><path d="M349.92,180.41H339.27V10.9Zm0,0Z"/><path class="cls-6" d="M349.92,180.41H339.27V10.9Zm0,0Z"/><polygon points="339.27 10.9 349.92 10.9 349.92 180.41 339.27 10.9"/><polygon class="cls-6" points="339.27 10.9 349.92 10.9 349.92 180.41 339.27 10.9"/><polyline class="cls-6" points="339.27 10.9 339.27 180.41 349.92 180.41 349.92 0.25 339.27 10.9"/><path d="M339.27,234.55h0Z"/><path class="cls-6" d="M339.27,234.55h0Z"/><path d="M349.92,343.71H339.27V234.55Zm0,0Z"/><path class="cls-6" d="M349.92,343.71H339.27V234.55Zm0,0Z"/><polygon points="339.27 234.55 349.92 234.55 349.92 343.71 339.27 234.55"/><polygon class="cls-6" points="339.27 234.55 349.92 234.55 349.92 343.71 339.27 234.55"/><polyline class="cls-6" points="339.27 234.55 339.27 343.71 349.92 343.71 349.92 234.55 339.27 234.55"/><path d="M185.74,180.41l10.65,54.14H185.74Zm10.65,0H185.74l10.65,54.14Z"/><path class="cls-6" d="M185.74,180.41l10.65,54.14H185.74Zm10.65,0H185.74l10.65,54.14Z"/><polyline class="cls-6" points="196.38 234.55 196.38 180.41 185.74 180.41 185.74 234.55 196.38 234.55"/><polyline points="0.25 10.9 115.62 10.9 0.25 10.9"/><polyline class="cls-6" points="0.25 10.9 115.62 10.9 0.25 10.9"/><polyline points="0.25 10.9 115.62 21.55 0.25 21.55"/><polyline points="0.25 21.55 115.62 21.55 115.62 21.55 0.25 21.55"/><polyline class="cls-6" points="0.25 10.9 115.62 21.55 0.25 21.55"/><polyline class="cls-6" points="0.25 21.55 115.62 21.55 115.62 21.55 0.25 21.55"/><polyline points="0.25 10.9 115.62 10.9 115.62 21.55 0.25 10.9"/><polyline class="cls-6" points="0.25 10.9 115.62 10.9 115.62 21.55 0.25 10.9"/><path d="M126.27,21.55h0Zm-6.21-6.21,6.21,6.21h-6.21Z"/><path class="cls-6" d="M126.27,21.55h0Zm-6.21-6.21,6.21,6.21h-6.21Z"/><line class="cls-6" x1="0.25" y1="21.55" x2="0.25" y2="21.55"/><line class="cls-6" x1="10.9" y1="21.55" x2="115.62" y2="21.55"/><line class="cls-6" x1="120.06" y1="21.55" x2="126.27" y2="21.55"/><line class="cls-6" x1="115.62" y1="10.9" x2="0.25" y2="10.9"/></svg>