<svg id="_329" data-name="329" xmlns="http://www.w3.org/2000/svg" viewBox="0 0 402.98 362.48"><defs><style>.cls-1{isolation:isolate;font-size:8px;fill:#969696;font-family:PTSans-Regular, PT Sans;letter-spacing:-0.01em;}.cls-2{letter-spacing:0em;}.cls-10,.cls-11,.cls-12,.cls-3,.cls-7{fill:none;}.cls-3{stroke:#969696;}.cls-10,.cls-11,.cls-12,.cls-3{stroke-linecap:round;stroke-linejoin:round;}.cls-12,.cls-3{stroke-width:0.5px;}.cls-4{font-size:22px;}.cls-4,.cls-8{fill:#231f20;font-family:BigCityGrotesquePro-Regular, BigCity Grotesque Pro;}.cls-5{letter-spacing:-0.06em;}.cls-6{letter-spacing:-0.02em;}.cls-10,.cls-11,.cls-12,.cls-7{stroke:#000;}.cls-7{stroke-miterlimit:10;stroke-width:0.32px;}.cls-8{font-size:24px;}.cls-9{letter-spacing:-0.02em;}.cls-10{stroke-width:0.35px;}.cls-11{stroke-width:0.75px;}</style></defs><text class="cls-1" transform="translate(196.98 6.8)">у<tspan class="cls-2" x="3.62" y="0">лица</tspan></text><line class="cls-3" x1="188.48" y1="0.82" x2="188.48" y2="7.94"/><polyline class="cls-3" points="191.31 3.65 188.48 0.82 185.64 3.65"/><text class="cls-4" transform="translate(53.38 295.65)">3.30</text><text class="cls-4" transform="translate(54.24 340.81)">1.50</text><text class="cls-4" transform="translate(203.73 340.81)">1.90</text><text class="cls-4" transform="translate(112.83 307.79)"><tspan class="cls-5">7</tspan><tspan x="8.62" y="0">.40</tspan></text><text class="cls-4" transform="translate(48.83 106.65)">12<tspan class="cls-6" x="18.33" y="0">.</tspan><tspan x="22.92" y="0">70</tspan></text><text class="cls-4" transform="translate(173.8 106.65)">12.20</text><text class="cls-4" transform="translate(297.3 106.65)">16.80</text><rect class="cls-7" x="282.59" y="156.53" width="80" height="31.31"/><rect class="cls-7" x="282.59" y="187.85" width="80" height="31.31"/><rect class="cls-7" x="282.59" y="219.16" width="80" height="31.31"/><text class="cls-8" transform="translate(291.02 179.91)">№329<tspan x="19.18" y="30.86">2</tspan><tspan class="cls-9" x="30.72" y="30.86">К</tspan><tspan x="3.32" y="61.72">55.80</tspan></text><line class="cls-10" x1="28.74" y1="322.14" x2="43.47" y2="322.14"/><polyline class="cls-10" points="27.86 321.47 22.29 321.47 22.29 337.39"/><line class="cls-10" x1="31.31" y1="329.43" x2="31.31" y2="335.32"/><polyline class="cls-10" points="43.47 322.14 31.31 323.55 31.31 329.43"/><line class="cls-10" x1="43.47" y1="336.73" x2="31.31" y2="335.32"/><line class="cls-10" x1="43.47" y1="322.49" x2="31.31" y2="323.91"/><line class="cls-10" x1="43.47" y1="336.38" x2="31.31" y2="334.96"/><line class="cls-10" x1="28.74" y1="336.73" x2="43.47" y2="336.73"/><line class="cls-10" x1="22.28" y1="337.39" x2="27.86" y2="337.39"/><polyline class="cls-10" points="43.47 322.14 45.1 322.31 46.65 322.93 47.98 323.95 49.09 325.28 49.84 326.82 50.23 328.55 50.23 330.32 49.84 332.04 49.09 333.59 47.98 334.92 46.65 335.93 45.1 336.55 43.47 336.73"/><polyline class="cls-10" points="43.47 322.49 45.02 322.71 46.48 323.29 47.76 324.26 48.78 325.5 49.48 326.96 49.88 328.59 49.88 330.27 49.48 331.91 48.78 333.37 47.76 334.61 46.48 335.58 45.02 336.16 43.47 336.38"/><path class="cls-10" d="M28.76,364.87a66.37,66.37,0,0,0,0-14.23" transform="translate(0 -28.35)"/><path class="cls-10" d="M28.82,350.63a.93.93,0,0,0-.94-.81" transform="translate(0 -28.35)"/><path class="cls-10" d="M27.88,365.7a.94.94,0,0,0,.95-.82" transform="translate(0 -28.35)"/><path class="cls-10" d="M26.57,357.76a.77.77,0,1,0-1.54,0,.77.77,0,0,0,1.54,0" transform="translate(0 -28.35)"/><line class="cls-10" x1="13.4" y1="259.69" x2="13.4" y2="239.21"/><line class="cls-10" x1="15.85" y1="236.79" x2="68.97" y2="236.79"/><line class="cls-10" x1="15.85" y1="262.07" x2="68.97" y2="262.07"/><line class="cls-10" x1="83.98" y1="234.36" x2="10.96" y2="234.36"/><polyline class="cls-10" points="83.98 234.36 83.98 264.49 10.96 264.49 10.96 234.36"/><line class="cls-10" x1="60.45" y1="257.9" x2="18.89" y2="257.9"/><line class="cls-10" x1="17.64" y1="256.67" x2="17.64" y2="242.18"/><line class="cls-10" x1="60.45" y1="240.99" x2="18.89" y2="240.99"/><line class="cls-10" x1="26.21" y1="250.17" x2="26.21" y2="251.66"/><line class="cls-10" x1="25.47" y1="249.45" x2="23.92" y2="249.45"/><line class="cls-10" x1="26.21" y1="248.68" x2="26.21" y2="247.2"/><line class="cls-10" x1="26.96" y1="249.45" x2="28.46" y2="249.45"/><path class="cls-10" d="M69,290.42a12.65,12.65,0,1,0,0-25.29" transform="translate(0 -28.35)"/><path class="cls-10" d="M15.87,265.13a2.42,2.42,0,0,0-2.42,2.4" transform="translate(0 -28.35)"/><path class="cls-10" d="M13.45,288a2.42,2.42,0,0,0,2.42,2.41" transform="translate(0 -28.35)"/><path class="cls-10" d="M26.24,276.52a1.26,1.26,0,1,0,1.27,1.25,1.26,1.26,0,0,0-1.27-1.25" transform="translate(0 -28.35)"/><path class="cls-10" d="M60.48,286.25a8.48,8.48,0,1,0,0-16.95" transform="translate(0 -28.35)"/><path class="cls-10" d="M17.69,285a1.22,1.22,0,0,0,1.22,1.21" transform="translate(0 -28.35)"/><path class="cls-10" d="M18.91,269.3a1.22,1.22,0,0,0-1.22,1.21" transform="translate(0 -28.35)"/><path class="cls-10" d="M26.24,276.1A1.68,1.68,0,1,0,28,277.77a1.7,1.7,0,0,0-1.72-1.67" transform="translate(0 -28.35)"/><polyline class="cls-10" points="44.56 278.27 35 278.27 35 300.83 44.56 300.83"/><line class="cls-10" x1="35" y1="293.13" x2="35" y2="286.01"/><line class="cls-10" x1="42.7" y1="291.45" x2="42.7" y2="290.26"/><line class="cls-10" x1="40.8" y1="289.55" x2="41.99" y2="289.55"/><line class="cls-10" x1="42.7" y1="288.84" x2="42.7" y2="287.65"/><line class="cls-10" x1="43.36" y1="289.55" x2="44.6" y2="289.55"/><path class="cls-10" d="M45.17,308a10,10,0,0,0-4.76,3.9" transform="translate(0 -28.35)"/><path class="cls-10" d="M40.43,311.89a10,10,0,0,0-1.41,6" transform="translate(0 -28.35)"/><path class="cls-10" d="M40.41,323.86a10,10,0,0,0,4.76,3.9" transform="translate(0 -28.35)"/><path class="cls-10" d="M39,317.86a10,10,0,0,0,1.41,6" transform="translate(0 -28.35)"/><path class="cls-10" d="M44.6,329.17A5.73,5.73,0,0,0,49.31,327" transform="translate(0 -28.35)"/><path class="cls-10" d="M40.8,311.56a41.15,41.15,0,0,0,0,12.63" transform="translate(0 -28.35)"/><path class="cls-10" d="M36.85,325.35a14.1,14.1,0,0,0,9.21,3.2" transform="translate(0 -28.35)"/><path class="cls-10" d="M35.49,317.88a28.1,28.1,0,0,0,.7,6.46" transform="translate(0 -28.35)"/><path class="cls-10" d="M36.2,324.35a1.9,1.9,0,0,0,.64,1" transform="translate(0 -28.35)"/><path class="cls-10" d="M36.37,317.88a50.27,50.27,0,0,0,.46,6.37" transform="translate(0 -28.35)"/><path class="cls-10" d="M37.47,325.41a12.77,12.77,0,0,0,8.6,3.19" transform="translate(0 -28.35)"/><path class="cls-10" d="M36.83,324.24a2,2,0,0,0,.62,1.15" transform="translate(0 -28.35)"/><path class="cls-10" d="M46.06,307.15a12.76,12.76,0,0,0-8.61,3.2" transform="translate(0 -28.35)"/><path class="cls-10" d="M46,307.2a14.16,14.16,0,0,0-9.21,3.2" transform="translate(0 -28.35)"/><path class="cls-10" d="M36.82,311.53a48.2,48.2,0,0,0-.45,6.36" transform="translate(0 -28.35)"/><path class="cls-10" d="M36.18,311.45a28,28,0,0,0-.69,6.45" transform="translate(0 -28.35)"/><path class="cls-10" d="M37.45,310.36a1.93,1.93,0,0,0-.62,1.15" transform="translate(0 -28.35)"/><path class="cls-10" d="M36.84,310.41a1.86,1.86,0,0,0-.64,1" transform="translate(0 -28.35)"/><path class="cls-10" d="M49.31,308.76a5.75,5.75,0,0,0-4.71-2.14" transform="translate(0 -28.35)"/><path class="cls-10" d="M50.3,310.22a9.2,9.2,0,0,0-1-1.5" transform="translate(0 -28.35)"/><path class="cls-10" d="M49.32,327a8.88,8.88,0,0,0,1-1.51" transform="translate(0 -28.35)"/><path class="cls-10" d="M50.29,325.51a18.6,18.6,0,0,0,1.87-6.85v-1.57a18.6,18.6,0,0,0-1.87-6.85" transform="translate(0 -28.35)"/><path class="cls-10" d="M50.55,321a13,13,0,0,0,0-6.21" transform="translate(0 -28.35)"/><path class="cls-10" d="M48,309.16A3.38,3.38,0,0,0,45.19,308" transform="translate(0 -28.35)"/><path class="cls-10" d="M50.52,314.78a12.22,12.22,0,0,0-2.58-5.62" transform="translate(0 -28.35)"/><path class="cls-10" d="M45.19,327.79A3.35,3.35,0,0,0,48,326.63" transform="translate(0 -28.35)"/><path class="cls-10" d="M47.94,326.59A12.27,12.27,0,0,0,50.52,321" transform="translate(0 -28.35)"/><path class="cls-10" d="M44.2,317.87a1.48,1.48,0,1,0-1.48,1.49,1.48,1.48,0,0,0,1.48-1.49" transform="translate(0 -28.35)"/><path class="cls-10" d="M43.76,317.87a1,1,0,1,0-1,1,1,1,0,0,0,1-1" transform="translate(0 -28.35)"/><polyline class="cls-11" points="32.32 69.02 32.32 58.49 0.38 58.49"/><polyline class="cls-11" points="158.06 68.39 158.06 58.49 104.19 58.49 104.19 70.16"/><polyline class="cls-11" points="283.84 71.73 283.84 58.49 229.93 58.49 229.93 71.83"/><polyline class="cls-11" points="402.61 58.49 355.71 58.49 355.71 70.48"/><line class="cls-11" x1="10.35" y1="64.7" x2="32.32" y2="64.7"/><line class="cls-11" x1="229.93" y1="64.7" x2="251.9" y2="64.7"/><line class="cls-11" x1="261.87" y1="64.7" x2="283.84" y2="64.7"/><line class="cls-11" x1="355.71" y1="64.7" x2="402.61" y2="64.7"/><line class="cls-11" x1="104.19" y1="64.7" x2="158.06" y2="64.7"/><line class="cls-12" x1="32.32" y1="58.49" x2="104.19" y2="58.49"/><line class="cls-12" x1="158.06" y1="58.49" x2="229.93" y2="58.49"/><line class="cls-12" x1="283.84" y1="58.49" x2="355.71" y2="58.49"/><line class="cls-11" x1="283.84" y1="67.2" x2="283.84" y2="64.7"/><line class="cls-11" x1="355.71" y1="64.7" x2="355.71" y2="67.2"/><line class="cls-11" x1="283.84" y1="74.68" x2="261.87" y2="74.68"/><polyline class="cls-12" points="355.71 74.67 402.61 74.67 402.61 58.49 402.61 36.35 362.68 36.35 362.68 58.49"/><line class="cls-11" x1="32.32" y1="67.2" x2="32.32" y2="64.7"/><line class="cls-11" x1="158.06" y1="67.2" x2="158.06" y2="64.7"/><line class="cls-11" x1="104.19" y1="64.7" x2="104.19" y2="67.2"/><line class="cls-11" x1="229.93" y1="64.7" x2="229.93" y2="67.2"/><line class="cls-11" x1="32.32" y1="74.68" x2="10.35" y2="74.68"/><line class="cls-11" x1="158.06" y1="74.68" x2="104.19" y2="74.68"/><line class="cls-11" x1="251.9" y1="74.68" x2="229.93" y2="74.68"/><line class="cls-11" x1="0.38" y1="92.63" x2="0.38" y2="92.63"/><line class="cls-11" x1="0.38" y1="82.66" x2="0.38" y2="82.66"/><line class="cls-11" x1="10.35" y1="315" x2="14.36" y2="315"/><line class="cls-11" x1="20.32" y1="315" x2="20.32" y2="315.42"/><polyline class="cls-11" points="20.36 339.38 10.35 339.38 10.35 315.42 20.36 315.42 20.36 339.38"/><polyline class="cls-11" points="10.35 339.38 10.35 315.42 20.36 315.42 10.35 315.42 10.35 339.38 20.36 339.38 20.36 315.42"/><line class="cls-11" x1="0.38" y1="76.45" x2="0.38" y2="76.45"/><line class="cls-11" x1="0.38" y1="58.49" x2="0.38" y2="76.45"/><line class="cls-12" x1="268.08" y1="56.89" x2="268.08" y2="58.49"/><line class="cls-12" x1="268.84" y1="56.89" x2="268.84" y2="58.49"/><line class="cls-12" x1="245.69" y1="56.89" x2="245.69" y2="58.49"/><line class="cls-12" x1="244.92" y1="56.89" x2="244.92" y2="58.49"/><polyline class="cls-12" points="240.91 40.92 272.85 40.92 272.85 56.89 240.91 56.89 240.91 40.92"/><polyline class="cls-12" points="256.84 36.1 258.91 36.1 261.02 36.1 263.13 36.1 265.25 36.1 267.36 36.1 269.51 36.1 271.63 36.1 273.74 36.1 276.74 36.1 276.74 36.23 273.74 36.23 271.63 36.23 269.51 36.23 267.36 36.23 265.25 36.23 263.13 36.23 261.02 36.23 258.91 36.23 256.84 36.23 256.84 36.1"/><line class="cls-12" x1="258.91" y1="36.23" x2="258.91" y2="36.1"/><line class="cls-12" x1="261.02" y1="36.23" x2="261.02" y2="36.1"/><line class="cls-12" x1="263.13" y1="36.23" x2="263.13" y2="36.1"/><line class="cls-12" x1="265.25" y1="36.23" x2="265.25" y2="36.1"/><line class="cls-12" x1="267.36" y1="36.23" x2="267.36" y2="36.1"/><line class="cls-12" x1="269.51" y1="36.23" x2="269.51" y2="36.1"/><line class="cls-12" x1="271.63" y1="36.23" x2="271.63" y2="36.1"/><line class="cls-12" x1="273.74" y1="36.23" x2="273.74" y2="36.1"/><polyline class="cls-12" points="236.94 36.23 256.84 36.23 256.84 36.35 236.94 36.35 236.94 36.23"/><polyline class="cls-12" points="276.82 58.49 276.82 36.35 236.94 36.35 236.94 58.49"/><polyline class="cls-12" points="239.52 58.49 239.52 38.93 274.25 38.93 274.25 58.49"/><line class="cls-12" x1="239.52" y1="39.14" x2="274.25" y2="39.14"/><line class="cls-12" x1="393.82" y1="56.89" x2="393.82" y2="58.49"/><line class="cls-12" x1="394.62" y1="56.89" x2="394.62" y2="58.49"/><line class="cls-12" x1="371.47" y1="56.89" x2="371.47" y2="58.49"/><line class="cls-12" x1="370.66" y1="56.89" x2="370.66" y2="58.49"/><polyline class="cls-12" points="366.65 40.92 398.59 40.92 398.59 56.89 366.65 56.89 366.65 40.92"/><polyline class="cls-12" points="382.62 36.1 384.65 36.1 386.76 36.1 388.92 36.1 391.03 36.1 393.14 36.1 395.25 36.1 397.37 36.1 399.48 36.1 402.48 36.1 402.48 36.23 399.48 36.23 397.37 36.23 395.25 36.23 393.14 36.23 391.03 36.23 388.92 36.23 386.76 36.23 384.65 36.23 382.62 36.23 382.62 36.1"/><line class="cls-12" x1="384.65" y1="36.23" x2="384.65" y2="36.1"/><line class="cls-12" x1="386.76" y1="36.23" x2="386.76" y2="36.1"/><line class="cls-12" x1="388.92" y1="36.23" x2="388.92" y2="36.1"/><line class="cls-12" x1="391.03" y1="36.23" x2="391.03" y2="36.1"/><line class="cls-12" x1="393.14" y1="36.23" x2="393.14" y2="36.1"/><line class="cls-12" x1="395.25" y1="36.23" x2="395.25" y2="36.1"/><line class="cls-12" x1="397.37" y1="36.23" x2="397.37" y2="36.1"/><line class="cls-12" x1="399.48" y1="36.23" x2="399.48" y2="36.1"/><polyline class="cls-12" points="362.68 36.23 382.58 36.23 382.58 36.35 362.68 36.35 362.68 36.23"/><polyline class="cls-12" points="365.26 58.49 365.26 38.93 399.99 38.93 399.99 58.49"/><line class="cls-12" x1="365.26" y1="39.14" x2="399.99" y2="39.14"/><polyline class="cls-11" points="391.24 215.79 381.23 215.79 381.23 311.62 391.24 311.62 391.24 215.79"/><polyline class="cls-11" points="261.87 257.33 261.87 64.7 251.9 64.7 251.9 257.33 261.87 257.33"/><line class="cls-11" x1="10.35" y1="351.34" x2="10.35" y2="339.38"/><polyline class="cls-11" points="10.35 315.42 10.35 64.7 0.38 64.7 0.38 351.34"/><polyline class="cls-11" points="34.3 273.09 34.3 315 14.36 315 14.36 273.09 34.3 273.09"/><polyline class="cls-11" points="14.36 315 34.3 315 34.3 273.09 14.36 273.09 14.36 315"/><polyline class="cls-11" points="34.3 273.09 14.36 273.09 14.36 315"/><line class="cls-11" x1="391.24" y1="74.68" x2="381.23" y2="74.68"/><line class="cls-11" x1="381.23" y1="215.79" x2="381.23" y2="74.68"/><line class="cls-11" x1="391.24" y1="215.79" x2="391.24" y2="74.68"/><line class="cls-11" x1="261.87" y1="362.11" x2="261.87" y2="311.62"/><line class="cls-11" x1="180.03" y1="301.65" x2="381.23" y2="301.65"/><line class="cls-11" x1="261.87" y1="311.62" x2="381.23" y2="311.62"/><line class="cls-11" x1="118.93" y1="362.11" x2="118.93" y2="358.94"/><line class="cls-11" x1="118.93" y1="356.11" x2="118.93" y2="352.14"/><line class="cls-11" x1="160.89" y1="352.14" x2="160.89" y2="356.11"/><line class="cls-11" x1="160.89" y1="358.94" x2="160.89" y2="362.11"/><line class="cls-11" x1="118.93" y1="362.11" x2="10.35" y2="362.11"/><line class="cls-11" x1="10.35" y1="362.11" x2="0.38" y2="362.11"/><line class="cls-11" x1="251.9" y1="362.11" x2="160.89" y2="362.11"/><line class="cls-11" x1="118.93" y1="352.14" x2="10.35" y2="352.14"/><line class="cls-11" x1="10.35" y1="351.34" x2="10.35" y2="362.11"/><line class="cls-11" x1="251.9" y1="352.14" x2="160.89" y2="352.14"/><line class="cls-11" x1="0.38" y1="362.11" x2="0.38" y2="351.34"/><line class="cls-11" x1="251.9" y1="362.11" x2="255.06" y2="362.11"/><line class="cls-11" x1="257.9" y1="362.11" x2="261.87" y2="362.11"/><line class="cls-11" x1="251.9" y1="362.11" x2="251.9" y2="362.11"/><line class="cls-11" x1="97.17" y1="256.52" x2="97.17" y2="253.31"/><line class="cls-11" x1="191.22" y1="256.52" x2="191.22" y2="253.31"/><line class="cls-11" x1="129.11" y1="253.31" x2="129.11" y2="256.52"/><line class="cls-11" x1="223.17" y1="253.31" x2="223.17" y2="256.52"/><line class="cls-11" x1="97.17" y1="256.52" x2="89.4" y2="256.52"/><line class="cls-11" x1="180.03" y1="256.52" x2="129.11" y2="256.52"/><line class="cls-11" x1="251.9" y1="256.52" x2="223.17" y2="256.52"/><line class="cls-11" x1="191.22" y1="256.52" x2="183.24" y2="256.52"/><line class="cls-11" x1="97.17" y1="253.31" x2="89.4" y2="253.31"/><line class="cls-11" x1="89.4" y1="253.31" x2="89.4" y2="256.52"/><line class="cls-11" x1="191.22" y1="253.31" x2="140.1" y2="253.31"/><line class="cls-11" x1="136.93" y1="253.31" x2="129.11" y2="253.31"/><line class="cls-11" x1="251.9" y1="253.31" x2="223.17" y2="253.31"/><line class="cls-11" x1="257.9" y1="269.71" x2="261.06" y2="269.71"/><line class="cls-11" x1="257.9" y1="269.71" x2="257.9" y2="257.33"/><line class="cls-11" x1="261.06" y1="269.71" x2="261.06" y2="257.33"/><line class="cls-11" x1="84.62" y1="273.47" x2="89.4" y2="273.47"/><line class="cls-11" x1="84.62" y1="232.19" x2="84.62" y2="273.47"/><line class="cls-11" x1="89.4" y1="273.47" x2="89.4" y2="256.52"/><line class="cls-11" x1="89.4" y1="253.31" x2="89.4" y2="227.37"/><line class="cls-11" x1="84.62" y1="315.42" x2="89.4" y2="315.42"/><line class="cls-11" x1="89.4" y1="305.41" x2="84.62" y2="305.41"/><line class="cls-11" x1="84.62" y1="352.14" x2="89.4" y2="352.14"/><line class="cls-11" x1="89.4" y1="347.36" x2="84.62" y2="347.36"/><line class="cls-11" x1="84.62" y1="352.14" x2="84.62" y2="347.36"/><line class="cls-11" x1="84.62" y1="307.44" x2="84.62" y2="305.41"/><line class="cls-11" x1="84.62" y1="315.42" x2="84.62" y2="312.21"/><line class="cls-11" x1="89.4" y1="315.42" x2="89.4" y2="305.41"/><line class="cls-11" x1="89.4" y1="352.14" x2="89.4" y2="347.36"/><line class="cls-11" x1="251.9" y1="352.14" x2="251.9" y2="301.65"/><line class="cls-11" x1="180.03" y1="259.69" x2="183.24" y2="259.69"/><line class="cls-11" x1="180.03" y1="259.69" x2="180.03" y2="256.52"/><line class="cls-11" x1="251.9" y1="304.82" x2="183.24" y2="304.82"/><line class="cls-11" x1="183.24" y1="259.69" x2="183.24" y2="256.52"/><line class="cls-11" x1="140.1" y1="74.68" x2="136.93" y2="74.68"/><line class="cls-11" x1="136.93" y1="253.31" x2="136.93" y2="74.68"/><line class="cls-11" x1="140.1" y1="253.31" x2="140.1" y2="74.68"/><line class="cls-11" x1="180.03" y1="320.2" x2="183.24" y2="320.2"/><line class="cls-11" x1="180.03" y1="320.2" x2="180.03" y2="301.65"/><line class="cls-11" x1="183.24" y1="320.2" x2="183.24" y2="304.82"/><line class="cls-11" x1="84.62" y1="312.21" x2="34.3" y2="312.21"/><line class="cls-11" x1="84.62" y1="307.44" x2="34.3" y2="307.44"/><line class="cls-11" x1="84.62" y1="232.19" x2="10.35" y2="232.19"/><line class="cls-11" x1="89.4" y1="227.37" x2="10.35" y2="227.37"/><path class="cls-11" d="M391.24,340" transform="translate(0 -28.35)"/><path class="cls-11" d="M391.24,336.76" transform="translate(0 -28.35)"/><polyline class="cls-11" points="32.32 67.2 32.32 76.66 104.19 76.66 104.19 67.2"/><polyline class="cls-12" points="57.12 66.39 57.12 63.86 57.67 63.86 57.67 63.31 54.88 63.31 54.88 63.86 55.68 63.86 55.68 66.39 57.12 66.39"/><line class="cls-12" x1="55.43" y1="63.86" x2="55.43" y2="63.94"/><line class="cls-12" x1="55.51" y1="66.39" x2="55.68" y2="66.39"/><polyline class="cls-12" points="99.03 64.75 99.83 64.75 99.83 65.68 99.03 65.68 99.03 67.03 101.82 67.03 101.82 66.48 101.02 66.48 101.02 63.94 99.03 63.94 99.03 64.75"/><polyline class="cls-12" points="58.22 64.75 59.02 64.75 59.02 63.94 57.03 63.94 57.03 66.48 56.23 66.48 56.23 67.03 59.02 67.03 59.02 65.68 58.22 65.68 58.22 64.75"/><line class="cls-12" x1="59.02" y1="64.75" x2="99.03" y2="64.75"/><line class="cls-12" x1="99.03" y1="63.94" x2="59.02" y2="63.94"/><line class="cls-12" x1="99.03" y1="65.68" x2="59.02" y2="65.68"/><line class="cls-12" x1="59.02" y1="67.03" x2="99.03" y2="67.03"/><polyline class="cls-12" points="103.17 63.31 100.38 63.31 100.38 63.86 101.19 63.86 101.19 66.39 103.17 66.39 103.17 63.31"/><polyline class="cls-12" points="33.33 63.31 33.33 66.39 35.32 66.39 35.32 63.86 36.12 63.86 36.12 63.31 33.33 63.31"/><line class="cls-12" x1="100.38" y1="63.31" x2="57.67" y2="63.31"/><line class="cls-12" x1="54.88" y1="63.31" x2="36.12" y2="63.31"/><line class="cls-12" x1="35.32" y1="66.39" x2="35.49" y2="66.39"/><line class="cls-12" x1="101.02" y1="66.39" x2="101.19" y2="66.39"/><line class="cls-12" x1="36.12" y1="63.86" x2="54.88" y2="63.86"/><line class="cls-12" x1="57.67" y1="63.86" x2="100.38" y2="63.86"/><polyline class="cls-12" points="36.67 65.68 36.67 64.75 37.47 64.75 37.47 63.94 35.49 63.94 35.49 66.48 34.68 66.48 34.68 67.03 37.47 67.03 37.47 65.68 36.67 65.68"/><polyline class="cls-12" points="54.33 64.75 54.33 65.68 53.53 65.68 53.53 67.03 56.31 67.03 56.31 66.48 55.51 66.48 55.51 63.94 53.53 63.94 53.53 64.75 54.33 64.75"/><line class="cls-12" x1="37.47" y1="64.75" x2="53.53" y2="64.75"/><line class="cls-12" x1="53.53" y1="65.68" x2="37.47" y2="65.68"/><line class="cls-12" x1="37.47" y1="67.03" x2="53.53" y2="67.03"/><line class="cls-12" x1="53.53" y1="63.94" x2="37.47" y2="63.94"/><polyline class="cls-11" points="283.84 67.2 283.84 76.66 355.71 76.66 355.71 67.2"/><polyline class="cls-12" points="308.64 66.39 308.64 63.86 309.19 63.86 309.19 63.31 306.4 63.31 306.4 63.86 307.2 63.86 307.2 66.39 308.64 66.39"/><line class="cls-12" x1="306.91" y1="63.86" x2="306.91" y2="63.94"/><line class="cls-12" x1="307.03" y1="66.39" x2="307.2" y2="66.39"/><polyline class="cls-12" points="350.55 64.75 351.36 64.75 351.36 65.68 350.55 65.68 350.55 67.03 353.34 67.03 353.34 66.48 352.54 66.48 352.54 63.94 350.55 63.94 350.55 64.75"/><polyline class="cls-12" points="309.74 64.75 310.54 64.75 310.54 63.94 308.56 63.94 308.56 66.48 307.75 66.48 307.75 67.03 310.54 67.03 310.54 65.68 309.74 65.68 309.74 64.75"/><line class="cls-12" x1="310.54" y1="64.75" x2="350.55" y2="64.75"/><line class="cls-12" x1="350.55" y1="63.94" x2="310.54" y2="63.94"/><line class="cls-12" x1="350.55" y1="65.68" x2="310.54" y2="65.68"/><line class="cls-12" x1="310.54" y1="67.03" x2="350.55" y2="67.03"/><polyline class="cls-12" points="354.69 63.31 351.9 63.31 351.9 63.86 352.71 63.86 352.71 66.39 354.69 66.39 354.69 63.31"/><polyline class="cls-12" points="284.81 63.31 284.81 66.39 286.84 66.39 286.84 63.86 287.64 63.86 287.64 63.31 284.81 63.31"/><line class="cls-12" x1="351.9" y1="63.31" x2="309.19" y2="63.31"/><line class="cls-12" x1="306.4" y1="63.31" x2="287.64" y2="63.31"/><line class="cls-12" x1="286.84" y1="66.39" x2="286.96" y2="66.39"/><line class="cls-12" x1="352.54" y1="66.39" x2="352.71" y2="66.39"/><line class="cls-12" x1="287.64" y1="63.86" x2="306.4" y2="63.86"/><line class="cls-12" x1="309.19" y1="63.86" x2="351.9" y2="63.86"/><polyline class="cls-12" points="288.19 65.68 288.19 64.75 288.99 64.75 288.99 63.94 286.96 63.94 286.96 66.48 286.2 66.48 286.2 67.03 288.99 67.03 288.99 65.68 288.19 65.68"/><polyline class="cls-12" points="305.81 64.75 305.81 65.68 305.05 65.68 305.05 67.03 307.84 67.03 307.84 66.48 307.03 66.48 307.03 63.94 305.05 63.94 305.05 64.75 305.81 64.75"/><line class="cls-12" x1="288.99" y1="64.75" x2="305.05" y2="64.75"/><line class="cls-12" x1="305.05" y1="65.68" x2="288.99" y2="65.68"/><line class="cls-12" x1="288.99" y1="67.03" x2="305.05" y2="67.03"/><line class="cls-12" x1="305.05" y1="63.94" x2="288.99" y2="63.94"/><polyline class="cls-11" points="158.06 67.2 158.06 76.66 229.93 76.66 229.93 67.2"/><polyline class="cls-12" points="206.86 66.39 206.86 63.86 207.36 63.86 207.36 63.31 204.57 63.31 204.57 63.86 205.38 63.86 205.38 66.39 206.86 66.39"/><line class="cls-12" x1="205.12" y1="63.86" x2="205.12" y2="63.94"/><line class="cls-12" x1="205.21" y1="66.39" x2="205.38" y2="66.39"/><polyline class="cls-12" points="224.77 64.75 225.57 64.75 225.57 65.68 224.77 65.68 224.77 67.03 227.56 67.03 227.56 66.48 226.8 66.48 226.8 63.94 224.77 63.94 224.77 64.75"/><polyline class="cls-12" points="207.96 64.75 208.72 64.75 208.72 63.94 206.73 63.94 206.73 66.48 205.93 66.48 205.93 67.03 208.72 67.03 208.72 65.68 207.96 65.68 207.96 64.75"/><line class="cls-12" x1="208.72" y1="64.75" x2="224.77" y2="64.75"/><line class="cls-12" x1="224.77" y1="63.94" x2="208.72" y2="63.94"/><line class="cls-12" x1="224.77" y1="65.68" x2="208.72" y2="65.68"/><line class="cls-12" x1="208.72" y1="67.03" x2="224.77" y2="67.03"/><polyline class="cls-12" points="159.07 63.31 159.07 66.39 161.06 66.39 161.06 63.86 161.86 63.86 161.86 63.31 159.07 63.31"/><polyline class="cls-12" points="228.95 63.31 226.12 63.31 226.12 63.86 226.93 63.86 226.93 66.39 228.95 66.39 228.95 63.31"/><line class="cls-12" x1="226.12" y1="63.31" x2="207.36" y2="63.31"/><line class="cls-12" x1="204.57" y1="63.31" x2="161.86" y2="63.31"/><line class="cls-12" x1="161.06" y1="66.39" x2="161.23" y2="66.39"/><line class="cls-12" x1="226.8" y1="66.39" x2="226.93" y2="66.39"/><line class="cls-12" x1="161.86" y1="63.86" x2="204.57" y2="63.86"/><line class="cls-12" x1="207.36" y1="63.86" x2="226.12" y2="63.86"/><polyline class="cls-12" points="162.41 65.68 162.41 64.75 163.21 64.75 163.21 63.94 161.22 63.94 161.22 66.48 160.42 66.48 160.42 67.03 163.21 67.03 163.21 65.68 162.41 65.68"/><polyline class="cls-12" points="204.03 64.75 204.03 65.68 203.22 65.68 203.22 67.03 206.01 67.03 206.01 66.48 205.21 66.48 205.21 63.94 203.22 63.94 203.22 64.75 204.03 64.75"/><line class="cls-12" x1="163.21" y1="64.75" x2="203.22" y2="64.75"/><line class="cls-12" x1="203.22" y1="65.68" x2="163.21" y2="65.68"/><line class="cls-12" x1="163.21" y1="67.03" x2="203.22" y2="67.03"/><line class="cls-12" x1="203.22" y1="63.94" x2="163.21" y2="63.94"/><polyline class="cls-11" points="255.06 362.11 255.06 362.11 256.29 362.11 256.29 362.11 257.9 362.11 257.9 362.11 255.06 362.11"/><polyline class="cls-12" points="126.16 337.35 125.35 338.75 157.89 357.5 158.69 356.11 126.16 337.35"/><polyline class="cls-11" points="160.08 358.94 160.08 356.11 158.69 356.11 158.69 357.72 158.27 357.72 158.27 358.94 160.08 358.94"/><polyline class="cls-11" points="119.73 358.94 121.55 358.94 121.55 357.72 121.13 357.72 121.13 356.11 119.73 356.11 119.73 358.94"/></svg>