<svg id="_293" data-name="293" xmlns="http://www.w3.org/2000/svg" viewBox="0 0 164.41 364.35"><defs><style>.cls-1{font-size:8px;}.cls-1,.cls-3{fill:#808184;}.cls-1,.cls-5{font-family:BigCityGrotesquePro-Regular, BigCity Grotesque Pro;}.cls-2,.cls-4,.cls-9{fill:none;}.cls-2{stroke:#808184;}.cls-2,.cls-4{stroke-linecap:round;stroke-linejoin:round;}.cls-2,.cls-9{stroke-width:0.75px;}.cls-4,.cls-9{stroke:#000;}.cls-4{stroke-width:0.5px;}.cls-5{font-size:14.63px;fill:#231f20;}.cls-6{letter-spacing:-0.02em;}.cls-7{letter-spacing:0em;}.cls-8{letter-spacing:-0.04em;}.cls-9{stroke-miterlimit:10;}.cls-10{letter-spacing:-0.03em;}.cls-11{letter-spacing:-0.02em;}</style></defs><title>2floor_293flat</title><text class="cls-1" transform="translate(76.01 362.05)">двор</text><line class="cls-2" x1="70.59" y1="355.56" x2="70.59" y2="362.59"/><path class="cls-3" d="M67.71,358.49a.3.3,0,0,1,.41.09l2.47,3.87,2.47-3.87a.3.3,0,1,1,.51.32l-2.72,4.27a.3.3,0,0,1-.51,0l-2.72-4.27a.3.3,0,0,1,.09-.41Z"/><path class="cls-4" d="M146.92,100.87a1,1,0,1,0,1-1,1,1,0,0,0-1,1"/><path class="cls-4" d="M147.55,112.85a5,5,0,0,0,5-5"/><path class="cls-4" d="M152.51,94a5,5,0,0,0-5-5"/><path class="cls-4" d="M91.76,107.9a5,5,0,0,0,5,5"/><path class="cls-4" d="M96.72,89.06a5,5,0,0,0-5,5"/><line class="cls-4" x1="91.58" y1="93.92" x2="91.58" y2="107.81"/><line class="cls-4" x1="96.63" y1="112.85" x2="147.46" y2="112.85"/><line class="cls-4" x1="152.51" y1="107.81" x2="152.51" y2="93.92"/><line class="cls-4" x1="147.46" y1="88.88" x2="96.63" y2="88.88"/><line class="cls-4" x1="154.49" y1="85.81" x2="88.51" y2="85.81"/><line class="cls-4" x1="121.86" y1="140.25" x2="135.75" y2="140.25"/><path class="cls-4" d="M130.79,125.83a1.35,1.35,0,1,0,1.35,1.35,1.35,1.35,0,0,0-1.35-1.35"/><path class="cls-4" d="M130.61,126.19a1,1,0,1,0,1,1,1,1,0,0,0-1-1"/><path class="cls-4" d="M140.34,126.19a1,1,0,1,0,1,1,1,1,0,0,0-1-1"/><path class="cls-4" d="M140.34,125.83a1.35,1.35,0,1,0,1.35,1.35,1.35,1.35,0,0,0-1.35-1.35"/><path class="cls-4" d="M135.66,123.67a.63.63,0,1,0,.63.63.63.63,0,0,0-.63-.63"/><path class="cls-4" d="M140.89,123.32a1.89,1.89,0,0,0-1.09.48"/><line class="cls-4" x1="136.65" y1="126.37" x2="139.71" y2="123.85"/><path class="cls-4" d="M136.78,126.52a1.71,1.71,0,0,0-.49,1.2"/><line class="cls-4" x1="136.29" y1="137.91" x2="136.29" y2="127.64"/><path class="cls-4" d="M136.29,138a1.53,1.53,0,0,0,1.53,1.53"/><line class="cls-4" x1="151.61" y1="139.53" x2="137.73" y2="139.53"/><path class="cls-4" d="M151.75,139.53a1.35,1.35,0,0,0,1.48-1.35"/><line class="cls-4" x1="153.23" y1="124.93" x2="153.23" y2="138.09"/><path class="cls-4" d="M153.23,125a1.53,1.53,0,0,0-1.53-1.54"/><line class="cls-4" x1="140.79" y1="123.31" x2="151.61" y2="123.31"/><path class="cls-4" d="M130,136.56a1.35,1.35,0,0,0-1.57-1.33"/><path class="cls-4" d="M123.31,138a1.53,1.53,0,0,0,1.53,1.53"/><line class="cls-4" x1="128.35" y1="139.53" x2="124.75" y2="139.53"/><path class="cls-4" d="M128.43,139.52a1.35,1.35,0,0,0,1.55-1.34"/><line class="cls-4" x1="129.98" y1="136.47" x2="129.98" y2="138.09"/><path class="cls-4" d="M122,140.24a1.53,1.53,0,0,0,1.29-1.51"/><polyline class="cls-4" points="123.31 136.83 123.31 137.73 123.31 138.63"/><path class="cls-4" d="M124.84,135.39a1.53,1.53,0,0,0-1.53,1.53"/><path class="cls-4" d="M134.66,138.72a1.71,1.71,0,0,0,1.24,1.65"/><line class="cls-4" x1="134.48" y1="136.83" x2="134.48" y2="138.63"/><path class="cls-4" d="M134.66,136.75a1.53,1.53,0,0,0-1.53-1.54"/><line class="cls-4" x1="124.75" y1="135.21" x2="133.04" y2="135.21"/><line class="cls-4" x1="118.98" y1="139.17" x2="122.41" y2="139.17"/><line class="cls-4" x1="118.98" y1="137.55" x2="122.41" y2="137.55"/><line class="cls-4" x1="118.98" y1="135.93" x2="122.41" y2="135.93"/><line class="cls-4" x1="118.98" y1="134.31" x2="122.41" y2="134.31"/><line class="cls-4" x1="118.98" y1="132.86" x2="122.41" y2="132.86"/><line class="cls-4" x1="118.98" y1="131.24" x2="122.41" y2="131.24"/><line class="cls-4" x1="118.98" y1="129.62" x2="122.41" y2="129.62"/><line class="cls-4" x1="118.98" y1="128.18" x2="122.41" y2="128.18"/><line class="cls-4" x1="118.98" y1="126.55" x2="122.41" y2="126.55"/><line class="cls-4" x1="118.98" y1="124.93" x2="122.41" y2="124.93"/><line class="cls-4" x1="118.98" y1="123.31" x2="122.41" y2="123.31"/><path class="cls-4" d="M124.84,123.5a1.35,1.35,0,0,0-1.53,1.34"/><line class="cls-4" x1="123.31" y1="132.86" x2="123.31" y2="124.75"/><path class="cls-4" d="M123.31,133a1.53,1.53,0,0,0,1.53,1.53"/><line class="cls-4" x1="133.04" y1="134.31" x2="124.75" y2="134.31"/><path class="cls-4" d="M133.11,134.49a1.53,1.53,0,0,0,1.56-1.53"/><line class="cls-4" x1="134.48" y1="127.46" x2="134.48" y2="132.86"/><path class="cls-4" d="M134.66,127.54a1.53,1.53,0,0,0-.5-1.13"/><line class="cls-4" x1="131.24" y1="123.67" x2="134.12" y2="126.37"/><path class="cls-4" d="M131.28,123.89a1.53,1.53,0,0,0-1-.4"/><line class="cls-4" x1="124.75" y1="123.31" x2="130.16" y2="123.31"/><path class="cls-4" d="M118.71,121.88a1,1,0,0,0-1.17,1"/><line class="cls-4" x1="117.36" y1="139.89" x2="117.36" y2="122.77"/><path class="cls-4" d="M117.54,140a1.17,1.17,0,0,0,1.17,1.17"/><line class="cls-4" x1="153.59" y1="140.98" x2="118.62" y2="140.98"/><path class="cls-4" d="M153.69,141.16a1.17,1.17,0,0,0,1-.66"/><path class="cls-4" d="M154.73,122.46a1.35,1.35,0,0,0-1.22-.78"/><path class="cls-4" d="M144.94,38.49a1.17,1.17,0,1,0-1.17,1.17,1.17,1.17,0,0,0,1.17-1.17"/><polyline class="cls-4" points="139.89 40.56 139.71 39.66 139.53 38.76 139.53 38.04 139.89 37.32 140.25 36.6 140.97 35.88 141.51 35.34 142.24 34.98 143.14 34.98 143.86 34.98 144.58 35.34 145.3 35.7 145.66 36.24 146.2 36.96 146.38 37.68 146.38 38.22 146.38 38.76 146.38 39.12 146.02 39.66 145.48 40.38 144.76 40.56 144.04 40.74 143.32 40.56 142.6 40.2 142.24 39.84 142.06 39.3 142.06 38.76 142.24 38.04 142.6 37.68 143.32 37.5 143.68 37.5"/><path class="cls-4" d="M140.15,40.7a3.52,3.52,0,0,0,.32.61"/><path class="cls-4" d="M140.46,41.31a3.51,3.51,0,0,0,.91.95"/><path class="cls-4" d="M141.37,42.21a4.78,4.78,0,0,0,1.79.78"/><path class="cls-4" d="M143,43a3.7,3.7,0,0,0,1.35,0"/><path class="cls-4" d="M144.5,43a6.76,6.76,0,0,0,1.52-.43"/><path class="cls-4" d="M145.84,42.46A3.52,3.52,0,0,0,147,41.7"/><polyline class="cls-4" points="138.81 34.62 139.53 34.07 140.25 33.53 141.33 33.17 142.42 32.81 143.14 32.81 144.58 32.99 145.66 33.35 146.56 33.89 147.28 34.62 148 35.34 148.54 36.42 148.54 37.14 148.54 37.86 148.54 38.58 148.54 39.48 147.82 40.92 146.92 41.65"/><path class="cls-4" d="M138.81,34.77a3.33,3.33,0,0,0-.73,1"/><path class="cls-4" d="M138.3,35.66q-.28.58-.54,1.17"/><path class="cls-4" d="M137.6,37a3,3,0,0,0-.23.9"/><line class="cls-4" x1="137.37" y1="38.58" x2="137.37" y2="37.68"/><line class="cls-4" x1="132.32" y1="30.29" x2="132.32" y2="30.83"/><line class="cls-4" x1="132.32" y1="29.03" x2="132.32" y2="29.57"/><line class="cls-4" x1="132.32" y1="27.76" x2="132.32" y2="28.49"/><line class="cls-4" x1="131.78" y1="44.89" x2="133.04" y2="44.89"/><line class="cls-4" x1="131.6" y1="43.81" x2="131.78" y2="43.81"/><path class="cls-4" d="M131.24,43.54a.45.45,0,0,0,.45.45"/><line class="cls-4" x1="131.24" y1="33.53" x2="131.24" y2="43.45"/><path class="cls-4" d="M131.69,33.17a.45.45,0,0,0-.45.45"/><line class="cls-4" x1="131.78" y1="33.17" x2="131.6" y2="33.17"/><polyline class="cls-4" points="154.68 26.68 133.04 26.68 133.04 50.3 131.78 50.3 131.78 26.68 133.04 26.68 133.04 50.3 154.68 50.3"/><polyline class="cls-4" points="154.49 317.1 113.75 317.1 113.75 318"/><line class="cls-4" x1="113.75" y1="318" x2="113.75" y2="327.74"/><line class="cls-4" x1="50.84" y1="317.1" x2="9.92" y2="317.1"/><line class="cls-4" x1="50.84" y1="327.74" x2="50.84" y2="318"/><line class="cls-4" x1="50.84" y1="318" x2="50.84" y2="317.1"/><line class="cls-4" x1="113.75" y1="318" x2="154.49" y2="318"/><line class="cls-4" x1="9.92" y1="318" x2="50.84" y2="318"/><line class="cls-4" x1="113.75" y1="327.74" x2="154.49" y2="327.74"/><line class="cls-4" x1="9.92" y1="327.74" x2="50.84" y2="327.74"/><polyline class="cls-4" points="81.3 330.8 52.82 330.8 52.82 331.89 81.3 331.89 81.3 330.8"/><polyline class="cls-4" points="111.77 330.8 83.29 330.8 83.29 331.89 111.77 331.89 111.77 330.8"/><line class="cls-4" x1="54.8" y1="329.72" x2="50.84" y2="329.72"/><polyline class="cls-4" points="50.84 332.97 54.8 332.97 54.8 329.72"/><polyline class="cls-4" points="113.75 329.72 109.79 329.72 109.79 332.97 113.75 332.97"/><line class="cls-4" x1="54.8" y1="329.72" x2="80.76" y2="329.72"/><line class="cls-4" x1="83.83" y1="329.72" x2="109.79" y2="329.72"/><line class="cls-4" x1="109.79" y1="332.97" x2="83.83" y2="332.97"/><line class="cls-4" x1="80.76" y1="332.97" x2="54.8" y2="332.97"/><polyline class="cls-4" points="83.83 329.72 80.76 329.72 80.76 332.97 83.83 332.97 83.83 329.72"/><polyline class="cls-4" points="113.75 317.1 113.75 316.02 113.75 315.12 50.84 315.12"/><polyline class="cls-4" points="50.84 317.1 50.84 316.02 50.84 315.12"/><polyline class="cls-4" points="113.75 336.03 113.75 338.56 50.84 338.56 50.84 336.03"/><polyline class="cls-4" points="9.73 9.38 36.6 9.38 36.6 8.65"/><line class="cls-4" x1="36.6" y1="8.66" x2="36.6" y2="0.72"/><line class="cls-4" x1="77.88" y1="9.38" x2="82.75" y2="9.38"/><line class="cls-4" x1="77.88" y1="8.66" x2="77.88" y2="9.38"/><line class="cls-4" x1="83.29" y1="8.66" x2="77.88" y2="8.66"/><line class="cls-4" x1="36.6" y1="8.66" x2="8.83" y2="8.66"/><polyline class="cls-4" points="155.58 26.32 154.68 26.32 154.68 81.85"/><line class="cls-4" x1="155.58" y1="8.66" x2="155.58" y2="81.85"/><line class="cls-4" x1="151.43" y1="69.77" x2="151.43" y2="77.16"/><path class="cls-4" d="M149.72,71.57a2.07,2.07,0,0,0,2-1.68"/><polyline class="cls-4" points="149.63 69.77 149.63 69.05 151.97 69.05 151.97 69.77 149.63 69.77"/><path class="cls-4" d="M153.32,80.58a1,1,0,0,0,1-1"/><path class="cls-4" d="M151.88,64.54a1,1,0,0,0,0,2"/><path class="cls-4" d="M154.31,59.4a1,1,0,0,0-1-1"/><line class="cls-4" x1="154.13" y1="59.31" x2="154.13" y2="79.5"/><path class="cls-4" d="M151.88,66.52a1,1,0,0,0,0-2"/><path class="cls-4" d="M151.88,72.47a1,1,0,0,0,0,2"/><path class="cls-4" d="M151.88,74.46a1,1,0,0,0,0-2"/><path class="cls-4" d="M151.75,69.11a2.07,2.07,0,0,0-2-1.68"/><path class="cls-4" d="M149.72,67.42a2.07,2.07,0,1,0,0,4.15"/><path class="cls-4" d="M149.54,79.32a2.07,2.07,0,0,0,2.07-2.07"/><line class="cls-4" x1="151.43" y1="61.66" x2="151.43" y2="69.05"/><path class="cls-4" d="M151.61,61.75a2.07,2.07,0,0,0-2.07-2.07"/><line class="cls-4" x1="149.09" y1="59.67" x2="149.45" y2="59.67"/><path class="cls-4" d="M149.18,59.67a7.84,7.84,0,0,0-7.84,7.84"/><line class="cls-4" x1="141.15" y1="71.21" x2="141.15" y2="67.42"/><line class="cls-4" x1="149.45" y1="79.14" x2="149.09" y2="79.14"/><path class="cls-4" d="M140.07,70.76a9.82,9.82,0,0,0,9.82,9.82"/><line class="cls-4" x1="153.23" y1="80.4" x2="149.81" y2="80.4"/><path class="cls-4" d="M141.33,71.3a7.84,7.84,0,0,0,7.84,7.84"/><line class="cls-4" x1="140.07" y1="70.67" x2="140.07" y2="68.15"/><path class="cls-4" d="M149.9,58.41a9.82,9.82,0,0,0-9.82,9.82"/><line class="cls-4" x1="149.81" y1="58.41" x2="153.23" y2="58.41"/><polyline class="cls-4" points="112.85 36.06 111.41 38.04 110.51 39.12 109.61 39.48 108.16 40.02 107.26 40.02 105.82 39.48 104.92 39.12 104.02 38.04 102.58 36.06"/><polyline class="cls-4" points="102.39 23.08 103.84 22.54 106.72 22 108.7 22 111.59 22.54 112.85 23.08"/><polyline class="cls-4" points="102.58 36.06 101.67 34.07 100.95 32.09 100.41 30.11 100.23 28.13 100.23 27.04 100.41 26.14 100.77 25.06 101.31 23.98 102.39 23.08"/><polyline class="cls-4" points="112.85 23.08 114.11 23.98 114.65 25.06 114.83 26.14 115.01 27.04 115.19 28.13 115.01 30.11 114.47 32.09 113.75 34.07 112.85 36.06"/><line class="cls-4" x1="102.76" y1="20.01" x2="102.4" y2="23.08"/><line class="cls-4" x1="112.49" y1="20.01" x2="112.85" y2="23.08"/><path class="cls-4" d="M97.89,16.5a3.7,3.7,0,0,0,3.7,3.7"/><line class="cls-4" x1="97.71" y1="8.66" x2="97.71" y2="16.41"/><line class="cls-4" x1="117.72" y1="16.41" x2="117.72" y2="8.66"/><path class="cls-4" d="M114,20.19a3.7,3.7,0,0,0,3.7-3.7"/><line class="cls-4" x1="101.49" y1="20.01" x2="113.93" y2="20.01"/><line class="cls-4" x1="77.88" y1="9.38" x2="42.18" y2="30.11"/><line class="cls-4" x1="87.97" y1="8.66" x2="155.58" y2="8.66"/><polyline class="cls-4" points="88.51 115.92 88.51 84.01 87.97 84.01"/><line class="cls-4" x1="87.97" y1="84.01" x2="83.29" y2="84.01"/><polyline class="cls-4" points="83.29 84.01 82.75 84.01 82.75 118.08"/><line class="cls-4" x1="82.75" y1="121.15" x2="82.75" y2="121.69"/><line class="cls-4" x1="88.51" y1="56.07" x2="88.51" y2="8.66"/><polyline class="cls-4" points="82.75 9.38 82.75 56.07 83.29 56.07"/><line class="cls-4" x1="83.29" y1="56.07" x2="87.97" y2="56.07"/><line class="cls-4" x1="87.97" y1="56.07" x2="88.51" y2="56.07"/><line class="cls-4" x1="87.97" y1="8.66" x2="87.97" y2="56.07"/><line class="cls-4" x1="87.97" y1="84.01" x2="87.97" y2="116.46"/><line class="cls-4" x1="83.29" y1="8.66" x2="83.29" y2="56.07"/><line class="cls-4" x1="83.29" y1="84.01" x2="83.29" y2="118.08"/><line class="cls-4" x1="82.75" y1="56.07" x2="70.85" y2="80.94"/><polyline class="cls-4" points="9.91 121.15 32.45 121.15 32.45 118.08 9.91 118.08"/><polyline class="cls-4" points="83.29 118.08 64.36 118.08 64.36 121.15"/><line class="cls-4" x1="64.36" y1="121.15" x2="36.05" y2="138.81"/><line class="cls-4" x1="154.49" y1="115.92" x2="88.51" y2="115.92"/><line class="cls-4" x1="82.75" y1="121.69" x2="154.49" y2="121.69"/><line class="cls-4" x1="87.97" y1="116.46" x2="154.49" y2="116.46"/><line class="cls-4" x1="64.36" y1="121.15" x2="154.49" y2="121.15"/><line class="cls-4" x1="154.49" y1="81.85" x2="154.49" y2="327.74"/><rect width="9.73" height="335.67"/><rect y="118.08" width="32.45" height="3.07"/><rect x="64.36" y="118.08" width="32.45" height="3.07"/><polyline points="161.82 116.46 82.75 116.46 82.75 121.15 161.82 121.15"/><rect x="82.75" y="83.92" width="5.77" height="37.23"/><polyline points="0.18 8.65 36.59 8.65 36.59 0 0.18 0"/><polyline points="163.33 0.33 77.88 0.33 77.88 9.03 163.33 9.03"/><rect x="154.49" y="0.36" width="9.85" height="322.51"/><rect x="82.88" y="7.41" width="5.5" height="48.65"/><polyline points="164.41 316.72 113.75 316.72 113.75 335.67 164.41 335.67"/><polyline points="0 335.67 50.84 335.67 50.84 316.72 0 316.72"/><text class="cls-5" transform="translate(99.78 68.15)">4<tspan class="cls-6" x="8.02" y="0">.</tspan><tspan class="cls-7" x="11.12" y="0">6</tspan></text><text class="cls-5" transform="translate(34.63 56.43)">5<tspan class="cls-8" x="7.21" y="0">.</tspan><tspan x="9.97" y="0">1</tspan></text><text class="cls-5" transform="translate(69.29 304.85)">18.3</text><rect class="cls-9" x="58.49" y="197.04" width="53.93" height="19.76"/><rect class="cls-9" x="58.49" y="216.8" width="53.93" height="19.76"/><rect class="cls-9" x="58.49" y="236.56" width="53.93" height="19.76"/><text class="cls-5" transform="translate(66.2 211.1)">№293<tspan x="11.57" y="20.49">С</tspan><tspan class="cls-10" x="19.73" y="20.49">Т</tspan><tspan x="5.87" y="40.97">28</tspan><tspan class="cls-11" x="21.1" y="40.97">.</tspan><tspan x="24.17" y="40.97">0</tspan></text></svg>