<svg id="_705" data-name="705" xmlns="http://www.w3.org/2000/svg" viewBox="0 0 430.56 627.63"><defs><style>.cls-1,.cls-4,.cls-5,.cls-6{fill:none;stroke-linecap:round;stroke-linejoin:round;stroke-width:0.5px;}.cls-1{stroke:#999;}.cls-2{isolation:isolate;font-size:12px;fill:#999;}.cls-2,.cls-3,.cls-7{font-family:PTSans-Regular, PT Sans;}.cls-3{font-size:24px;}.cls-4,.cls-5,.cls-6{stroke:#000;}.cls-5{stroke-dasharray:3.03 3.03;}.cls-6{stroke-dasharray:3.02 3.02;}.cls-7{font-size:20px;}</style></defs><title>8floor_705flat</title><line class="cls-1" x1="199.56" y1="10.8" x2="199.56" y2="2"/><polyline class="cls-1" points="203.16 5.3 199.66 1.8 196.16 5.3"/><text class="cls-2" transform="translate(208.99 10.2)">двор</text><text class="cls-3" transform="translate(307.92 271.18)">1Е</text><text class="cls-3" transform="translate(292.17 304.22)">40.71</text><text class="cls-3" transform="translate(289 238.64)">№705</text><polyline class="cls-4" points="280.37 312.59 280.37 215.39 361.43 215.39 361.43 312.59"/><line class="cls-4" x1="280.37" y1="247.85" x2="361.43" y2="247.85"/><line class="cls-4" x1="280.37" y1="312.59" x2="361.43" y2="312.59"/><line class="cls-4" x1="280.37" y1="280.31" x2="361.43" y2="280.31"/><polyline class="cls-4" points="228.44 200.46 228.44 435.72 228.44 449.07 416.95 449.07 416.95 435.72 416.95 200.86 416.95 151.37 228.44 151.37 228.44 200.46"/><polyline class="cls-4" points="393.78 128.2 390.64 128.2 385.93 128.2"/><line class="cls-4" x1="393.78" y1="78.71" x2="393.78" y2="128.2"/><line class="cls-4" x1="385.93" y1="85.39" x2="385.93" y2="128.2"/><polyline class="cls-4" points="393.78 78.71 393.78 85.39 390.64 85.39 390.64 81.46"/><polyline class="cls-4" points="390.64 128.2 390.64 124.27 393.78 124.27 393.78 128.2"/><line class="cls-4" x1="393.78" y1="85.39" x2="393.78" y2="124.27"/><line class="cls-4" x1="390.64" y1="124.27" x2="390.64" y2="85.39"/><line class="cls-4" x1="390.64" y1="81.46" x2="393.78" y2="81.46"/><line class="cls-4" x1="393.78" y1="128.2" x2="390.64" y2="128.2"/><line class="cls-4" x1="165.6" y1="39.05" x2="393.78" y2="78.71"/><line class="cls-4" x1="173.84" y1="48.47" x2="385.93" y2="85.39"/><polyline class="cls-4" points="169.13 42.97 173.06 43.76 173.45 40.22 165.59 39.05"/><polyline class="cls-4" points="393.78 78.71 387.1 77.53 386.71 80.68 390.64 81.46"/><line class="cls-4" x1="173.06" y1="43.76" x2="386.71" y2="80.68"/><line class="cls-4" x1="387.1" y1="77.53" x2="173.45" y2="40.22"/><line class="cls-4" x1="169.52" y1="39.44" x2="169.13" y2="42.97"/><line class="cls-4" x1="391.03" y1="78.32" x2="390.64" y2="81.46"/><polyline class="cls-4" points="165.59 128.2 169.13 128.2 173.84 128.2"/><line class="cls-4" x1="165.6" y1="39.05" x2="165.6" y2="128.2"/><line class="cls-4" x1="173.84" y1="48.47" x2="173.84" y2="128.2"/><polyline class="cls-4" points="165.59 39.05 165.59 46.9 169.13 46.9 169.13 42.97"/><polyline class="cls-4" points="169.13 128.2 169.13 124.27 165.59 124.27 165.59 128.2"/><line class="cls-4" x1="165.6" y1="46.9" x2="165.6" y2="124.27"/><line class="cls-4" x1="169.13" y1="124.27" x2="169.13" y2="46.9"/><line class="cls-4" x1="169.13" y1="42.97" x2="165.6" y2="42.97"/><line class="cls-4" x1="165.6" y1="128.2" x2="169.13" y2="128.2"/><line class="cls-4" x1="430.31" y1="627.38" x2="13.6" y2="627.38"/><polyline class="cls-4" points="385.93 85.39 173.84 48.47 173.84 128.2 385.93 128.2 385.93 85.39"/><polyline class="cls-4" points="307.77 454.18 307.77 589.28 416.95 589.28 416.95 501.7 416.95 454.18 307.77 454.18"/><polyline class="cls-4" points="13.6 402.73 13.6 435.72 13.6 501.7 13.6 536.26 147.14 536.26 147.14 496.59"/><polyline class="cls-4" points="147.14 496.59 215.47 496.59 215.47 435.72 223.33 435.72 223.33 200.86 215.47 200.86 215.47 151.37 13.6 151.37 13.6 200.86 13.6 402.73"/><polyline class="cls-4" points="228.44 501.7 152.63 501.7 152.63 601.06 165.59 601.06 165.59 614.42 241.79 614.42 302.66 614.42 302.66 454.18 228.44 454.18 228.44 501.7"/><polyline class="cls-4" points="45.42 601.06 147.14 601.06 147.14 541.37 45.42 541.37 45.42 601.06"/><path d="M.25,156.54l44,6.67H.25Zm44,0H.25l44,6.67Z" transform="translate(0 -28.34)"/><path class="cls-4" d="M.25,156.54l44,6.67H.25Zm44,0H.25l44,6.67Z" transform="translate(0 -28.34)"/><path d="M165.2,156.54l111.15,6.67H165.2Zm111.15,0H165.2l111.15,6.67Z" transform="translate(0 -28.34)"/><path class="cls-4" d="M165.2,156.54l111.15,6.67H165.2Zm111.15,0H165.2l111.15,6.67Z" transform="translate(0 -28.34)"/><polyline points="430.31 134.88 380.03 134.88 380.03 128.2 430.31 134.88"/><polyline points="430.31 128.2 380.03 128.2 430.31 134.88"/><polyline class="cls-4" points="430.31 134.88 380.03 134.88 380.03 128.2 430.31 134.88"/><polyline class="cls-4" points="430.31 128.2 380.03 128.2 430.31 134.88"/><polyline points="430.31 134.88 382.78 134.88 380.03 134.88 430.31 134.88"/><polygon points="382.78 134.88 382.78 134.88 380.03 134.88 382.78 134.88"/><polyline class="cls-4" points="430.31 134.88 382.78 134.88 380.03 134.88 430.31 134.88"/><polygon class="cls-4" points="382.78 134.88 382.78 134.88 380.03 134.88 382.78 134.88"/><path d="M.25,163.21Z" transform="translate(0 -28.34)"/><path class="cls-4" d="M.25,163.21Z" transform="translate(0 -28.34)"/><path d="M.25,163.21v3.15h0Zm0,0h0v0Z" transform="translate(0 -28.34)"/><path class="cls-4" d="M.25,163.21v3.15h0Zm0,0h0v0Z" transform="translate(0 -28.34)"/><path d="M.25,179.71h0v0Zm0,0Z" transform="translate(0 -28.34)"/><path class="cls-4" d="M.25,179.71h0v0Zm0,0Z" transform="translate(0 -28.34)"/><polygon points="0.25 138.02 0.25 138.02 0.25 151.37 0.25 138.02"/><polygon class="cls-4" points="0.25 138.02 0.25 138.02 0.25 151.37 0.25 138.02"/><path d="M.25,163.21h0Z" transform="translate(0 -28.34)"/><path class="cls-4" d="M.25,163.21h0Z" transform="translate(0 -28.34)"/><path d="M13.6,179.71H.25v-16.5Zm0,0Z" transform="translate(0 -28.34)"/><path class="cls-4" d="M13.6,179.71H.25v-16.5Zm0,0Z" transform="translate(0 -28.34)"/><polygon points="0.25 134.88 13.6 134.88 13.6 151.37 0.25 134.88"/><polygon class="cls-4" points="0.25 134.88 13.6 134.88 13.6 151.37 0.25 134.88"/><path d="M13.6,163.21h0Z" transform="translate(0 -28.34)"/><path class="cls-4" d="M13.6,163.21h0Z" transform="translate(0 -28.34)"/><path d="M13.6,163.21l27.89,3.15H13.6Zm27.89,0H13.6l27.89,3.15Z" transform="translate(0 -28.34)"/><path class="cls-4" d="M13.6,163.21l27.89,3.15H13.6Zm27.89,0H13.6l27.89,3.15Z" transform="translate(0 -28.34)"/><path d="M41.49,179.71H13.6V166.36Zm0,0Z" transform="translate(0 -28.34)"/><path class="cls-4" d="M41.49,179.71H13.6V166.36Zm0,0Z" transform="translate(0 -28.34)"/><polygon points="13.6 138.02 41.49 138.02 41.49 151.37 13.6 138.02"/><polygon class="cls-4" points="13.6 138.02 41.49 138.02 41.49 151.37 13.6 138.02"/><path d="M215.47,163.21h0Z" transform="translate(0 -28.34)"/><path class="cls-4" d="M215.47,163.21h0Z" transform="translate(0 -28.34)"/><path d="M167.56,163.21l47.91,3.15H167.56Zm47.91,0H167.56l47.91,3.15Z" transform="translate(0 -28.34)"/><path class="cls-4" d="M167.56,163.21l47.91,3.15H167.56Zm47.91,0H167.56l47.91,3.15Z" transform="translate(0 -28.34)"/><path d="M215.47,179.71H167.56V166.36Zm0,0Z" transform="translate(0 -28.34)"/><path class="cls-4" d="M215.47,179.71H167.56V166.36Zm0,0Z" transform="translate(0 -28.34)"/><polygon points="167.56 138.02 215.47 138.02 215.47 151.37 167.56 138.02"/><polygon class="cls-4" points="167.56 138.02 215.47 138.02 215.47 151.37 167.56 138.02"/><path d="M215.47,163.21h0Z" transform="translate(0 -28.34)"/><path class="cls-4" d="M215.47,163.21h0Z" transform="translate(0 -28.34)"/><path d="M228.43,179.71h-13v-16.5Zm0,0Z" transform="translate(0 -28.34)"/><path class="cls-4" d="M228.43,179.71h-13v-16.5Zm0,0Z" transform="translate(0 -28.34)"/><polygon points="215.47 134.88 228.44 134.88 228.44 151.37 215.47 134.88"/><polygon class="cls-4" points="215.47 134.88 228.44 134.88 228.44 151.37 215.47 134.88"/><path d="M228.43,163.21h0Z" transform="translate(0 -28.34)"/><path class="cls-4" d="M228.43,163.21h0Z" transform="translate(0 -28.34)"/><path d="M228.43,163.21l45.17,3.15H228.43Zm45.17,0H228.43l45.17,3.15Z" transform="translate(0 -28.34)"/><path class="cls-4" d="M228.43,163.21l45.17,3.15H228.43Zm45.17,0H228.43l45.17,3.15Z" transform="translate(0 -28.34)"/><path d="M273.6,179.71H228.43V166.36Zm0,0Z" transform="translate(0 -28.34)"/><path class="cls-4" d="M273.6,179.71H228.43V166.36Zm0,0Z" transform="translate(0 -28.34)"/><polygon points="228.44 138.02 273.6 138.02 273.6 151.37 228.44 138.02"/><polygon class="cls-4" points="228.44 138.02 273.6 138.02 273.6 151.37 228.44 138.02"/><path d="M393.78,163.21h0Zm0,0Z" transform="translate(0 -28.34)"/><path class="cls-4" d="M393.78,163.21h0Zm0,0Z" transform="translate(0 -28.34)"/><path d="M393.78,163.21h0Z" transform="translate(0 -28.34)"/><path class="cls-4" d="M393.78,163.21h0Z" transform="translate(0 -28.34)"/><path d="M382.78,163.21,417,166.36H382.78Zm34.17,0H382.78L417,166.36Z" transform="translate(0 -28.34)"/><path class="cls-4" d="M382.78,163.21,417,166.36H382.78Zm34.17,0H382.78L417,166.36Z" transform="translate(0 -28.34)"/><path d="M417,179.71H382.78V166.36Zm0,0Z" transform="translate(0 -28.34)"/><path class="cls-4" d="M417,179.71H382.78V166.36Zm0,0Z" transform="translate(0 -28.34)"/><polygon points="382.78 138.02 416.95 138.02 416.95 151.37 382.78 138.02"/><polygon class="cls-4" points="382.78 138.02 416.95 138.02 416.95 151.37 382.78 138.02"/><path d="M417,163.21h0Z" transform="translate(0 -28.34)"/><path class="cls-4" d="M417,163.21h0Z" transform="translate(0 -28.34)"/><path d="M430.31,179.71H417v-16.5Zm0,0Z" transform="translate(0 -28.34)"/><path class="cls-4" d="M430.31,179.71H417v-16.5Zm0,0Z" transform="translate(0 -28.34)"/><polygon points="416.95 134.88 430.31 134.88 430.31 151.37 416.95 134.88"/><polygon class="cls-4" points="416.95 134.88 430.31 134.88 430.31 151.37 416.95 134.88"/><polyline points="430.31 134.88 430.31 134.88 430.31 134.88"/><polyline class="cls-4" points="430.31 134.88 430.31 134.88 430.31 134.88"/><polyline points="430.31 138.02 430.31 138.02 430.31 134.88 430.31 138.02"/><polyline points="430.31 134.88 430.31 134.88 430.31 138.02"/><polyline class="cls-4" points="430.31 138.02 430.31 138.02 430.31 134.88 430.31 138.02"/><polyline class="cls-4" points="430.31 134.88 430.31 134.88 430.31 138.02"/><polyline points="430.31 151.37 430.31 151.37 430.31 138.02 430.31 151.37"/><polyline points="430.31 151.37 430.31 151.37 430.31 151.37"/><polyline class="cls-4" points="430.31 151.37 430.31 151.37 430.31 138.02 430.31 151.37"/><polyline class="cls-4" points="430.31 151.37 430.31 151.37 430.31 151.37"/><polyline points="430.31 151.37 430.31 138.02 430.31 138.02"/><polyline class="cls-4" points="430.31 151.37 430.31 138.02 430.31 138.02"/><line class="cls-4" x1="0.25" y1="134.88" x2="0.25" y2="134.88"/><line class="cls-4" x1="13.6" y1="151.37" x2="13.6" y2="134.88"/><polyline class="cls-4" points="13.6 134.88 0.25 134.88 0.25 151.37"/><line class="cls-4" x1="215.47" y1="134.88" x2="167.56" y2="134.88"/><line class="cls-4" x1="41.49" y1="134.88" x2="13.6" y2="134.88"/><line class="cls-4" x1="228.43" y1="151.37" x2="228.43" y2="134.88"/><polyline class="cls-4" points="273.6 134.88 228.44 134.88 215.47 134.88 215.47 151.37"/><line class="cls-4" x1="416.95" y1="134.88" x2="382.78" y2="134.88"/><line class="cls-4" x1="430.31" y1="151.37" x2="430.31" y2="128.2"/><polyline class="cls-4" points="430.31 134.88 416.95 134.88 416.95 151.37"/><line class="cls-4" x1="430.31" y1="134.88" x2="430.31" y2="134.88"/><line class="cls-4" x1="0.25" y1="138.02" x2="0.25" y2="151.37"/><polyline class="cls-4" points="0.25 128.2 0.25 134.88 0.25 134.88 0.25 138.02"/><line class="cls-4" x1="167.56" y1="138.02" x2="167.56" y2="151.37"/><polyline class="cls-4" points="165.2 128.2 165.2 134.88 167.56 134.88 167.56 138.02"/><line class="cls-4" x1="41.49" y1="138.02" x2="41.49" y2="151.37"/><polyline class="cls-4" points="44.24 128.2 44.24 134.88 41.49 134.88 41.49 138.02"/><line class="cls-4" x1="382.78" y1="138.02" x2="382.78" y2="151.37"/><polyline class="cls-4" points="380.03 128.2 380.03 134.88 382.78 134.88 382.78 138.02"/><line class="cls-4" x1="273.6" y1="138.02" x2="273.6" y2="151.37"/><polyline class="cls-4" points="276.35 128.2 276.35 134.88 273.6 134.88 273.6 138.02"/><line class="cls-4" x1="430.31" y1="128.2" x2="380.03" y2="128.2"/><line class="cls-4" x1="276.35" y1="128.2" x2="165.2" y2="128.2"/><line class="cls-4" x1="44.24" y1="128.2" x2="0.25" y2="128.2"/><line class="cls-4" x1="0.25" y1="151.37" x2="0.25" y2="151.37"/><line class="cls-4" x1="13.6" y1="151.37" x2="41.49" y2="151.37"/><line class="cls-4" x1="167.56" y1="151.37" x2="215.47" y2="151.37"/><line class="cls-4" x1="228.43" y1="151.37" x2="273.6" y2="151.37"/><line class="cls-4" x1="382.78" y1="151.37" x2="416.95" y2="151.37"/><line class="cls-4" x1="430.31" y1="151.37" x2="430.31" y2="151.37"/><path d="M.25,163.21Z" transform="translate(0 -28.34)"/><path class="cls-4" d="M.25,163.21Z" transform="translate(0 -28.34)"/><path d="M.25,166.36h0v0Zm0,0Z" transform="translate(0 -28.34)"/><path class="cls-4" d="M.25,166.36h0v0Zm0,0Z" transform="translate(0 -28.34)"/><polygon points="0.25 134.88 0.25 134.88 0.25 138.02 0.25 134.88"/><polygon class="cls-4" points="0.25 134.88 0.25 134.88 0.25 138.02 0.25 134.88"/><polyline class="cls-4" points="0.25 138.02 0.25 138.02 0.25 134.88 0.25 134.88"/><polyline class="cls-4" points="0.25 134.88 0.25 134.88 0.25 138.02"/><line class="cls-4" x1="44.24" y1="128.2" x2="165.2" y2="128.2"/><line class="cls-4" x1="41.49" y1="151.37" x2="167.56" y2="151.37"/><path d="M41.49,163.21h0Z" transform="translate(0 -28.34)"/><path class="cls-4" d="M41.49,163.21h0Z" transform="translate(0 -28.34)"/><path d="M46.59,166.36h-5.1v-3.15Zm0,0Z" transform="translate(0 -28.34)"/><path class="cls-4" d="M46.59,166.36h-5.1v-3.15Zm0,0Z" transform="translate(0 -28.34)"/><polygon points="41.49 134.88 46.59 134.88 46.59 138.02 41.49 134.88"/><polygon class="cls-4" points="41.49 134.88 46.59 134.88 46.59 138.02 41.49 134.88"/><path d="M86.26,163.21h0Z" transform="translate(0 -28.34)"/><path class="cls-4" d="M86.26,163.21h0Z" transform="translate(0 -28.34)"/><path d="M89.8,166.36H86.26v-3.15Zm0,0Z" transform="translate(0 -28.34)"/><path class="cls-4" d="M89.8,166.36H86.26v-3.15Zm0,0Z" transform="translate(0 -28.34)"/><polygon points="86.26 134.88 89.8 134.88 89.8 138.02 86.26 134.88"/><polygon class="cls-4" points="86.26 134.88 89.8 134.88 89.8 138.02 86.26 134.88"/><path d="M89.8,163.21h0Z" transform="translate(0 -28.34)"/><path class="cls-4" d="M89.8,163.21h0Z" transform="translate(0 -28.34)"/><path d="M92.94,166.36H89.8v-3.15Zm0,0Z" transform="translate(0 -28.34)"/><path class="cls-4" d="M92.94,166.36H89.8v-3.15Zm0,0Z" transform="translate(0 -28.34)"/><polygon points="89.8 134.88 92.94 134.88 92.94 138.02 89.8 134.88"/><polygon class="cls-4" points="89.8 134.88 92.94 134.88 92.94 138.02 89.8 134.88"/><path d="M162.45,163.21h0Z" transform="translate(0 -28.34)"/><path class="cls-4" d="M162.45,163.21h0Z" transform="translate(0 -28.34)"/><path d="M167.56,166.36h-5.11v-3.15Zm0,0Z" transform="translate(0 -28.34)"/><path class="cls-4" d="M167.56,166.36h-5.11v-3.15Zm0,0Z" transform="translate(0 -28.34)"/><polygon points="162.45 134.88 167.56 134.88 167.56 138.02 162.45 134.88"/><polygon class="cls-4" points="162.45 134.88 167.56 134.88 167.56 138.02 162.45 134.88"/><polyline class="cls-4" points="41.49 134.88 46.59 134.88 46.59 138.02 41.49 138.02"/><polyline class="cls-4" points="89.8 138.02 86.26 138.02 86.26 134.88 89.8 134.88"/><line class="cls-4" x1="46.59" y1="134.88" x2="86.26" y2="134.88"/><line class="cls-4" x1="86.26" y1="138.02" x2="46.59" y2="138.02"/><polyline class="cls-4" points="89.8 134.88 92.94 134.88 92.94 138.02 89.8 138.02"/><polyline class="cls-4" points="167.56 138.02 162.45 138.02 162.45 134.88 167.56 134.88"/><line class="cls-4" x1="92.94" y1="134.88" x2="162.45" y2="134.88"/><line class="cls-4" x1="162.45" y1="138.02" x2="92.94" y2="138.02"/><polyline class="cls-4" points="44.24 134.88 41.49 134.88 41.49 138.02"/><polyline class="cls-4" points="165.2 134.88 167.56 134.88 167.56 138.02"/><line class="cls-4" x1="276.35" y1="128.2" x2="380.03" y2="128.2"/><line class="cls-4" x1="273.6" y1="151.37" x2="382.78" y2="151.37"/><path d="M273.6,163.21h0Z" transform="translate(0 -28.34)"/><path class="cls-4" d="M273.6,163.21h0Z" transform="translate(0 -28.34)"/><path d="M278.71,166.36H273.6v-3.15Zm0,0Z" transform="translate(0 -28.34)"/><path class="cls-4" d="M278.71,166.36H273.6v-3.15Zm0,0Z" transform="translate(0 -28.34)"/><polygon points="273.6 134.88 278.71 134.88 278.71 138.02 273.6 134.88"/><polygon class="cls-4" points="273.6 134.88 278.71 134.88 278.71 138.02 273.6 134.88"/><path d="M324.66,163.21h0Z" transform="translate(0 -28.34)"/><path class="cls-4" d="M324.66,163.21h0Z" transform="translate(0 -28.34)"/><path d="M328.19,166.36h-3.53v-3.15Zm0,0Z" transform="translate(0 -28.34)"/><path class="cls-4" d="M328.19,166.36h-3.53v-3.15Zm0,0Z" transform="translate(0 -28.34)"/><polygon points="324.66 134.88 328.19 134.88 328.19 138.02 324.66 134.88"/><polygon class="cls-4" points="324.66 134.88 328.19 134.88 328.19 138.02 324.66 134.88"/><path d="M328.19,163.21h0Z" transform="translate(0 -28.34)"/><path class="cls-4" d="M328.19,163.21h0Z" transform="translate(0 -28.34)"/><path d="M331.33,166.36h-3.14v-3.15Zm0,0Z" transform="translate(0 -28.34)"/><path class="cls-4" d="M331.33,166.36h-3.14v-3.15Zm0,0Z" transform="translate(0 -28.34)"/><polygon points="328.19 134.88 331.33 134.88 331.33 138.02 328.19 134.88"/><polygon class="cls-4" points="328.19 134.88 331.33 134.88 331.33 138.02 328.19 134.88"/><path d="M377.28,163.21h0Z" transform="translate(0 -28.34)"/><path class="cls-4" d="M377.28,163.21h0Z" transform="translate(0 -28.34)"/><path d="M382.78,166.36h-5.5v-3.15Zm0,0Z" transform="translate(0 -28.34)"/><path class="cls-4" d="M382.78,166.36h-5.5v-3.15Zm0,0Z" transform="translate(0 -28.34)"/><polygon points="377.29 134.88 382.78 134.88 382.78 138.02 377.29 134.88"/><polygon class="cls-4" points="377.29 134.88 382.78 134.88 382.78 138.02 377.29 134.88"/><polyline class="cls-4" points="273.6 134.88 278.71 134.88 278.71 138.02 273.6 138.02"/><polyline class="cls-4" points="328.19 138.02 324.66 138.02 324.66 134.88 328.19 134.88"/><line class="cls-4" x1="278.71" y1="134.88" x2="324.66" y2="134.88"/><line class="cls-4" x1="324.66" y1="138.02" x2="278.71" y2="138.02"/><polyline class="cls-4" points="328.19 134.88 331.33 134.88 331.33 138.02 328.19 138.02"/><polyline class="cls-4" points="382.78 138.02 377.29 138.02 377.29 134.88 382.78 134.88"/><line class="cls-4" x1="331.33" y1="134.88" x2="377.28" y2="134.88"/><line class="cls-4" x1="377.28" y1="138.02" x2="331.33" y2="138.02"/><polyline class="cls-4" points="276.35 134.88 273.6 134.88 273.6 138.02"/><polyline class="cls-4" points="380.03 134.88 382.78 134.88 382.78 138.02"/><line class="cls-4" x1="412.24" y1="462.82" x2="412.24" y2="494.24"/><line class="cls-4" x1="408.7" y1="498.16" x2="331.73" y2="498.16"/><line class="cls-4" x1="408.7" y1="459.28" x2="331.73" y2="459.28"/><line class="cls-4" x1="309.73" y1="501.7" x2="415.77" y2="501.7"/><polyline class="cls-4" points="309.73 501.7 309.73 455.36 415.77 455.36 415.77 501.7"/><line class="cls-4" x1="343.9" y1="465.57" x2="404.38" y2="465.57"/><line class="cls-4" x1="405.96" y1="467.53" x2="405.96" y2="489.92"/><line class="cls-4" x1="343.9" y1="491.88" x2="404.38" y2="491.88"/><line class="cls-4" x1="393.78" y1="477.74" x2="393.78" y2="475.39"/><line class="cls-4" x1="394.57" y1="478.53" x2="396.92" y2="478.53"/><line class="cls-4" x1="393.78" y1="479.71" x2="393.78" y2="482.06"/><line class="cls-4" x1="392.6" y1="478.53" x2="390.25" y2="478.53"/><polyline class="cls-4" points="331.73 459.28 328.19 459.68 325.05 460.46 321.91 462.03 319.16 464.39 316.8 467.14 315.23 469.89 313.66 473.42 313.27 476.96 313.27 480.49 313.66 484.03 315.23 487.17 316.8 490.31 319.16 493.06 321.91 495.02 325.05 496.99 328.19 497.77 331.73 498.16"/><polyline class="cls-4" points="408.7 498.16 409.1 498.16 409.88 497.77 410.27 497.77 411.06 497.38 411.45 496.99 411.85 496.2 411.85 495.81 412.24 495.02 412.24 494.24"/><polyline class="cls-4" points="412.24 462.82 412.24 462.43 411.85 461.64 411.85 461.25 411.45 460.46 411.06 460.07 410.27 459.68 409.88 459.28 409.1 459.28 408.7 459.28"/><polyline class="cls-4" points="393.78 476.56 393.39 476.96 393 476.96 392.6 476.96 392.21 477.35 392.21 477.74 391.82 477.74 391.82 478.13 391.82 478.53 391.82 478.92 391.82 479.31 392.21 479.7 392.21 480.1 392.6 480.1 393 480.49 393.39 480.49 393.78 480.49 394.17 480.49 394.57 480.49 394.96 480.1 395.35 479.7 395.35 479.31 395.35 478.92 395.35 478.53 395.35 478.13 395.35 477.74 394.96 477.74 394.96 477.35 394.57 476.96 394.17 476.96 393.78 476.56"/><polyline class="cls-4" points="343.9 465.57 341.55 465.96 339.58 466.75 337.62 467.53 335.65 469.1 334.08 470.67 332.9 473.03 332.12 474.99 331.73 477.35 331.73 479.7 332.12 482.06 332.9 484.42 334.08 486.38 335.65 488.35 337.62 489.92 339.58 490.7 341.55 491.49 343.9 491.88"/><polyline class="cls-4" points="405.95 467.53 405.95 467.14 405.95 466.75 405.56 466.35 405.56 465.96 405.17 465.96 404.78 465.96 404.38 465.57"/><polyline class="cls-4" points="404.38 491.88 404.38 491.49 404.78 491.49 405.17 491.49 405.56 491.1 405.95 490.7 405.95 490.31 405.95 489.92"/><polyline class="cls-4" points="393.78 476.17 393 476.17 392.6 476.17 392.21 476.56 391.82 476.96 391.82 477.35 391.42 477.74 391.42 478.13 391.03 478.53 391.03 478.92 391.42 479.7 391.42 480.1 391.82 480.49 392.21 480.88 392.6 480.88 393 481.28 393.39 481.28 393.78 481.28 394.17 481.28 394.96 480.88 395.35 480.88 395.35 480.49 395.74 480.1 396.14 479.7 396.14 478.92 396.14 478.53 396.14 478.13 395.74 477.74 395.74 477.35 395.35 476.96 394.96 476.56 394.57 476.17 394.17 476.17 393.78 476.17"/><polyline class="cls-4" points="400.46 540.97 415.77 540.97 415.77 505.23 400.46 505.23"/><line class="cls-4" x1="415.77" y1="517.41" x2="415.77" y2="528.8"/><line class="cls-4" x1="403.6" y1="520.16" x2="403.6" y2="521.73"/><line class="cls-4" x1="406.74" y1="522.91" x2="404.78" y2="522.91"/><line class="cls-4" x1="403.6" y1="524.09" x2="403.6" y2="526.05"/><line class="cls-4" x1="402.42" y1="522.91" x2="400.46" y2="522.91"/><path class="cls-4" d="M399.43,566.63a15.9,15.9,0,0,0,7.52-6.17" transform="translate(0 -28.34)"/><path class="cls-4" d="M406.82,560.43a16,16,0,0,0,2.23-9.48" transform="translate(0 -28.34)"/><path class="cls-4" d="M407,541.64a15.9,15.9,0,0,0-7.52-6.17" transform="translate(0 -28.34)"/><path class="cls-4" d="M409.05,551.15a16,16,0,0,0-2.23-9.49" transform="translate(0 -28.34)"/><path class="cls-4" d="M388.36,552.41a29.44,29.44,0,0,0,2.94,10.8" transform="translate(0 -28.34)"/><path class="cls-4" d="M400.26,533.19a9.22,9.22,0,0,0-7.59,3.44" transform="translate(0 -28.34)"/><path class="cls-4" d="M388.33,549.8a17.38,17.38,0,0,0,0,2.5" transform="translate(0 -28.34)"/><path class="cls-4" d="M406.36,561a64.72,64.72,0,0,0,0-19.94" transform="translate(0 -28.34)"/><path class="cls-4" d="M412.59,539.06A22.61,22.61,0,0,0,397.91,534" transform="translate(0 -28.34)"/><path class="cls-4" d="M414.59,551a44.31,44.31,0,0,0-1.1-10.19" transform="translate(0 -28.34)"/><path class="cls-4" d="M413.74,541a3,3,0,0,0-1-1.63" transform="translate(0 -28.34)"/><path class="cls-4" d="M413.42,551a77.28,77.28,0,0,0-.73-10.08" transform="translate(0 -28.34)"/><path class="cls-4" d="M411.67,539A20.18,20.18,0,0,0,398,534" transform="translate(0 -28.34)"/><path class="cls-4" d="M412.6,541.22a2.92,2.92,0,0,0-1-1.81" transform="translate(0 -28.34)"/><path class="cls-4" d="M398.06,568.13a20.24,20.24,0,0,0,13.63-5.07" transform="translate(0 -28.34)"/><path class="cls-4" d="M397.94,568.13A22.63,22.63,0,0,0,412.61,563" transform="translate(0 -28.34)"/><path class="cls-4" d="M412.71,561.06a78.89,78.89,0,0,0,.71-10.07" transform="translate(0 -28.34)"/><path class="cls-4" d="M413.51,561.24a44.87,44.87,0,0,0,1.08-10.2" transform="translate(0 -28.34)"/><path class="cls-4" d="M411.64,563.07a2.86,2.86,0,0,0,1-1.8" transform="translate(0 -28.34)"/><path class="cls-4" d="M412.73,563.15a3,3,0,0,0,1-1.64" transform="translate(0 -28.34)"/><path class="cls-4" d="M392.67,565.86a9.22,9.22,0,0,0,7.59,3.44" transform="translate(0 -28.34)"/><path class="cls-4" d="M391.39,563.3a14.1,14.1,0,0,0,1.52,2.35" transform="translate(0 -28.34)"/><path class="cls-4" d="M392.91,536.84a14.1,14.1,0,0,0-1.52,2.35" transform="translate(0 -28.34)"/><path class="cls-4" d="M391.3,539.28a29.5,29.5,0,0,0-2.94,10.8" transform="translate(0 -28.34)"/><path class="cls-4" d="M390.83,546.12a21.07,21.07,0,0,0,0,9.86" transform="translate(0 -28.34)"/><path class="cls-4" d="M395.07,564.72a5.3,5.3,0,0,0,4.38,1.83" transform="translate(0 -28.34)"/><path class="cls-4" d="M390.93,556a19.43,19.43,0,0,0,4.1,8.94" transform="translate(0 -28.34)"/><path class="cls-4" d="M399.45,535.55a5.29,5.29,0,0,0-4.38,1.82" transform="translate(0 -28.34)"/><path class="cls-4" d="M395,537.17a19.44,19.44,0,0,0-4.1,8.93" transform="translate(0 -28.34)"/><path class="cls-4" d="M405.56,551.05a2.16,2.16,0,1,0-2.16,2.16,2.16,2.16,0,0,0,2.16-2.16" transform="translate(0 -28.34)"/><path class="cls-4" d="M405.17,551.05a1.77,1.77,0,1,0-1.77,1.77,1.77,1.77,0,0,0,1.77-1.77" transform="translate(0 -28.34)"/><line class="cls-4" x1="405.56" y1="551.58" x2="382.78" y2="551.58"/><polyline class="cls-4" points="407.13 550.4 415.77 550.4 415.77 574.75"/><line class="cls-4" x1="401.64" y1="562.57" x2="401.64" y2="571.61"/><polyline class="cls-4" points="382.78 551.58 401.63 553.54 401.63 562.58"/><line class="cls-4" x1="382.78" y1="573.96" x2="401.64" y2="571.61"/><line class="cls-4" x1="382.78" y1="551.97" x2="401.64" y2="554.33"/><line class="cls-4" x1="382.78" y1="573.18" x2="401.64" y2="571.21"/><line class="cls-4" x1="405.56" y1="573.96" x2="382.78" y2="573.96"/><line class="cls-4" x1="415.77" y1="574.75" x2="407.13" y2="574.75"/><polyline class="cls-4" points="382.78 551.58 380.03 551.58 377.68 552.76 375.71 554.33 373.75 556.29 372.57 558.65 372.18 561.4 372.18 564.14 372.57 566.5 373.75 569.25 375.71 571.22 377.68 572.79 380.03 573.57 382.78 573.96"/><polyline class="cls-4" points="382.78 551.97 380.43 552.36 378.07 553.15 376.11 554.72 374.54 556.68 373.36 559.04 372.57 561.4 372.57 564.14 373.36 566.5 374.54 568.86 376.11 570.82 378.07 572 380.43 573.18 382.78 573.18"/><polyline class="cls-4" points="407.13 550.4 406.74 550.4 406.35 550.4 406.35 550.79 405.95 550.79 405.95 551.18 405.56 551.58 405.17 562.58 405.56 573.57 405.56 573.96 405.95 573.96 405.95 574.36 406.35 574.75 406.74 574.75 407.13 574.75"/><polyline class="cls-4" points="411.45 562.58 411.45 562.97 411.45 563.36 411.06 563.36 411.06 563.75 410.67 563.75 410.27 563.75 409.88 563.75 409.49 563.75 409.1 563.36 409.1 562.97 409.1 562.58 409.1 562.18 409.1 561.79 409.49 561.79 409.88 561.4 410.27 561.4 410.67 561.4 411.06 561.79 411.45 562.18 411.45 562.58"/><polyline class="cls-4" points="307.77 559.43 347.44 559.43 347.44 589.28 307.77 589.28 307.77 559.43"/><path d="M165.6,642.75h-13v13Zm0-13.35v13.35h-13Z" transform="translate(0 -28.34)"/><path class="cls-4" d="M165.6,642.75h-13v13Zm0-13.35v13.35h-13Z" transform="translate(0 -28.34)"/><line class="cls-4" x1="165.6" y1="614.42" x2="165.6" y2="601.06"/><line class="cls-4" x1="152.63" y1="614.42" x2="152.63" y2="627.38"/><path d="M39.92,629.4l112.71,13.35H53.27Zm125.68,0H39.92l112.71,13.35Z" transform="translate(0 -28.34)"/><path class="cls-4" d="M39.92,629.4l112.71,13.35H53.27Zm125.68,0H39.92l112.71,13.35Z" transform="translate(0 -28.34)"/><line class="cls-4" x1="165.6" y1="601.06" x2="152.63" y2="601.06"/><line class="cls-4" x1="147.14" y1="601.06" x2="45.42" y2="601.06"/><line class="cls-4" x1="53.27" y1="614.42" x2="152.63" y2="614.42"/><path d="M53.27,642.75H39.92l13.35,13ZM39.92,629.4l13.35,13.35H39.92Z" transform="translate(0 -28.34)"/><path class="cls-4" d="M53.27,642.75H39.92l13.35,13ZM39.92,629.4l13.35,13.35H39.92Z" transform="translate(0 -28.34)"/><line class="cls-4" x1="39.92" y1="601.06" x2="39.92" y2="614.42"/><line class="cls-4" x1="53.27" y1="627.38" x2="53.27" y2="614.42"/><polyline points="0.25 614.42 53.27 627.38 0.25 627.38"/><polyline points="0.25 614.42 53.27 627.38 39.92 614.42 0.25 614.42"/><polyline class="cls-4" points="0.25 614.42 53.27 627.38 0.25 627.38"/><polyline class="cls-4" points="0.25 614.42 53.27 627.38 39.92 614.42 0.25 614.42"/><line class="cls-4" x1="39.92" y1="614.42" x2="13.6" y2="614.42"/><line class="cls-4" x1="0.25" y1="614.42" x2="0.25" y2="614.42"/><line class="cls-4" x1="0.25" y1="627.38" x2="53.27" y2="627.38"/><polygon points="147.14 496.59 152.63 501.7 147.14 501.7 147.14 496.59"/><polygon class="cls-4" points="147.14 496.59 152.63 501.7 147.14 501.7 147.14 496.59"/><path d="M152.63,576.38h-5.49V530Zm0,0Z" transform="translate(0 -28.34)"/><path class="cls-4" d="M152.63,576.38h-5.49V530Zm0,0Z" transform="translate(0 -28.34)"/><polygon points="147.14 501.7 152.63 501.7 152.63 548.04 147.14 501.7"/><polygon class="cls-4" points="147.14 501.7 152.63 501.7 152.63 548.04 147.14 501.7"/><line class="cls-4" x1="147.14" y1="548.04" x2="152.63" y2="548.04"/><line class="cls-4" x1="147.14" y1="496.59" x2="147.14" y2="536.26"/><line class="cls-4" x1="147.14" y1="541.37" x2="147.14" y2="548.04"/><line class="cls-4" x1="147.14" y1="601.06" x2="152.63" y2="601.06"/><line class="cls-4" x1="152.63" y1="548.04" x2="152.63" y2="501.7"/><line class="cls-4" x1="147.14" y1="548.04" x2="147.14" y2="551.58"/><line class="cls-4" x1="152.63" y1="548.04" x2="152.63" y2="551.58"/><line class="cls-4" x1="147.14" y1="601.06" x2="147.14" y2="597.53"/><line class="cls-4" x1="152.63" y1="601.06" x2="152.63" y2="597.53"/><line class="cls-4" x1="152.63" y1="551.58" x2="147.14" y2="551.58"/><polyline class="cls-4" points="152.63 597.53 147.14 597.53 123.97 557.47"/><path class="cls-4" d="M146.94,579.52a46.12,46.12,0,0,0-23.07,6.18" transform="translate(0 -28.34)"/><path d="M419.7,477.41h0Z" transform="translate(0 -28.34)"/><path class="cls-4" d="M419.7,477.41h0Z" transform="translate(0 -28.34)"/><path d="M419.7,482.51H298v-5.1Zm0,0Z" transform="translate(0 -28.34)"/><path class="cls-4" d="M419.7,482.51H298v-5.1Zm0,0Z" transform="translate(0 -28.34)"/><polygon points="297.95 449.07 419.7 449.07 419.7 454.18 297.95 449.07"/><polygon class="cls-4" points="297.95 449.07 419.7 449.07 419.7 454.18 297.95 449.07"/><path d="M238.65,477.41h0Z" transform="translate(0 -28.34)"/><path class="cls-4" d="M238.65,477.41h0Z" transform="translate(0 -28.34)"/><path d="M238.65,482.51H228.43v-5.1Zm0,0Z" transform="translate(0 -28.34)"/><path class="cls-4" d="M238.65,482.51H228.43v-5.1Zm0,0Z" transform="translate(0 -28.34)"/><polygon points="228.44 449.07 238.65 449.07 238.65 454.18 228.44 449.07"/><polygon class="cls-4" points="228.44 449.07 238.65 449.07 238.65 454.18 228.44 449.07"/><line class="cls-4" x1="297.95" y1="449.07" x2="297.95" y2="454.18"/><line class="cls-4" x1="238.65" y1="449.07" x2="238.65" y2="454.18"/><line class="cls-4" x1="419.7" y1="449.07" x2="297.95" y2="449.07"/><line class="cls-4" x1="238.65" y1="449.07" x2="228.43" y2="449.07"/><line class="cls-4" x1="228.43" y1="454.18" x2="238.65" y2="454.18"/><line class="cls-4" x1="297.95" y1="454.18" x2="302.66" y2="454.18"/><polyline class="cls-4" points="307.77 454.18 419.7 454.18 419.7 449.07"/><line class="cls-4" x1="297.95" y1="449.07" x2="294.81" y2="449.07"/><line class="cls-4" x1="297.95" y1="454.18" x2="294.81" y2="454.18"/><line class="cls-4" x1="238.65" y1="449.07" x2="241.79" y2="449.07"/><line class="cls-4" x1="238.65" y1="454.18" x2="241.79" y2="454.18"/><line class="cls-4" x1="294.81" y1="454.18" x2="294.81" y2="449.07"/><polyline class="cls-4" points="241.79 454.18 241.79 449.07 241.79 396.05"/><path class="cls-4" d="M294.42,477.21a52.82,52.82,0,0,0-52.83-52.82" transform="translate(0 -28.34)"/><path d="M228.43,228.8h0Z" transform="translate(0 -28.34)"/><path class="cls-4" d="M228.43,228.8h0Z" transform="translate(0 -28.34)"/><path d="M223.33,524.93h5.1V530Zm0-296.13V524.93h5.1Z" transform="translate(0 -28.34)"/><path class="cls-4" d="M223.33,524.93h5.1V530Zm0-296.13V524.93h5.1Z" transform="translate(0 -28.34)"/><polygon points="223.33 200.46 228.44 200.46 228.44 496.59 223.33 200.46"/><polygon class="cls-4" points="223.33 200.46 228.44 200.46 228.44 496.59 223.33 200.46"/><line class="cls-4" x1="228.43" y1="501.7" x2="228.43" y2="454.18"/><polyline class="cls-4" points="228.44 449.07 228.44 200.46 223.33 200.46 223.33 496.59"/><path d="M307.77,482.51h0Z" transform="translate(0 -28.34)"/><path class="cls-4" d="M307.77,482.51h0Z" transform="translate(0 -28.34)"/><path d="M307.77,533.57h-5.11V482.51Zm0,0Z" transform="translate(0 -28.34)"/><path class="cls-4" d="M307.77,533.57h-5.11V482.51Zm0,0Z" transform="translate(0 -28.34)"/><polygon points="302.66 454.18 307.77 454.18 307.77 505.23 302.66 454.18"/><polygon class="cls-4" points="302.66 454.18 307.77 454.18 307.77 505.23 302.66 454.18"/><path d="M307.77,586.2h0Z" transform="translate(0 -28.34)"/><path class="cls-4" d="M307.77,586.2h0Z" transform="translate(0 -28.34)"/><path d="M307.77,642.75h-5.11V586.2Zm0,0Z" transform="translate(0 -28.34)"/><path class="cls-4" d="M307.77,642.75h-5.11V586.2Zm0,0Z" transform="translate(0 -28.34)"/><polygon points="302.66 557.86 307.77 557.86 307.77 614.42 302.66 557.86"/><polygon class="cls-4" points="302.66 557.86 307.77 557.86 307.77 614.42 302.66 557.86"/><line class="cls-4" x1="302.66" y1="505.23" x2="307.77" y2="505.23"/><line class="cls-4" x1="302.66" y1="557.86" x2="307.77" y2="557.86"/><line class="cls-4" x1="302.66" y1="454.18" x2="302.66" y2="505.23"/><polyline class="cls-4" points="302.66 557.86 302.66 614.42 307.77 614.42 307.77 594.39"/><line class="cls-4" x1="307.77" y1="589.28" x2="307.77" y2="557.86"/><line class="cls-4" x1="307.77" y1="505.23" x2="307.77" y2="454.18"/><line class="cls-4" x1="302.66" y1="505.23" x2="302.66" y2="508.38"/><line class="cls-4" x1="307.77" y1="505.23" x2="307.77" y2="508.38"/><line class="cls-4" x1="302.66" y1="557.86" x2="302.66" y2="554.72"/><line class="cls-4" x1="307.77" y1="557.86" x2="307.77" y2="554.72"/><line class="cls-4" x1="307.77" y1="508.38" x2="302.66" y2="508.38"/><polyline class="cls-4" points="307.77 554.72 302.66 554.72 279.49 514.66"/><path class="cls-4" d="M302.47,536.71a46.2,46.2,0,0,0-23.08,6.19" transform="translate(0 -28.34)"/><path d="M377.28,622.72h0Z" transform="translate(0 -28.34)"/><path class="cls-4" d="M377.28,622.72h0Z" transform="translate(0 -28.34)"/><path d="M377.28,642.75h-5.1v-20Zm0,0Z" transform="translate(0 -28.34)"/><path class="cls-4" d="M377.28,642.75h-5.1v-20Zm0,0Z" transform="translate(0 -28.34)"/><polygon points="372.18 594.39 377.29 594.39 377.29 614.42 372.18 594.39"/><polygon class="cls-4" points="372.18 594.39 377.29 594.39 377.29 614.42 372.18 594.39"/><polyline class="cls-4" points="372.18 594.39 372.18 614.42 377.29 614.42 377.29 594.39"/><path d="M419.7,617.62h0Z" transform="translate(0 -28.34)"/><path class="cls-4" d="M419.7,617.62h0Z" transform="translate(0 -28.34)"/><path d="M419.7,622.72H307.77v-5.1Zm0,0Z" transform="translate(0 -28.34)"/><path class="cls-4" d="M419.7,622.72H307.77v-5.1Zm0,0Z" transform="translate(0 -28.34)"/><polygon points="307.77 589.28 419.7 589.28 419.7 594.39 307.77 589.28"/><polygon class="cls-4" points="307.77 589.28 419.7 589.28 419.7 594.39 307.77 589.28"/><line class="cls-4" x1="419.7" y1="589.28" x2="307.77" y2="589.28"/><line class="cls-4" x1="307.77" y1="594.39" x2="372.18" y2="594.39"/><polyline class="cls-4" points="377.29 594.39 419.7 594.39 419.7 589.28"/><path d="M147.14,564.6h0Z" transform="translate(0 -28.34)"/><path class="cls-4" d="M147.14,564.6h0Z" transform="translate(0 -28.34)"/><path d="M147.14,569.7H13.6v-5.1Zm0,0Z" transform="translate(0 -28.34)"/><path class="cls-4" d="M147.14,569.7H13.6v-5.1Zm0,0Z" transform="translate(0 -28.34)"/><polygon points="13.6 536.26 147.14 536.26 147.14 541.37 13.6 536.26"/><polygon class="cls-4" points="13.6 536.26 147.14 536.26 147.14 541.37 13.6 536.26"/><line class="cls-4" x1="147.14" y1="536.26" x2="13.6" y2="536.26"/><line class="cls-4" x1="13.6" y1="541.37" x2="39.92" y2="541.37"/><line class="cls-4" x1="45.42" y1="541.37" x2="147.14" y2="541.37"/><path d="M45.42,569.7h0Z" transform="translate(0 -28.34)"/><path class="cls-4" d="M45.42,569.7h0Z" transform="translate(0 -28.34)"/><path d="M39.92,569.7l5.5,59.7h-5.5Zm5.5,0h-5.5l5.5,59.7Z" transform="translate(0 -28.34)"/><path class="cls-4" d="M39.92,569.7l5.5,59.7h-5.5Zm5.5,0h-5.5l5.5,59.7Z" transform="translate(0 -28.34)"/><line class="cls-4" x1="45.42" y1="601.06" x2="45.42" y2="541.37"/><line class="cls-4" x1="39.92" y1="541.37" x2="39.92" y2="574.75"/><line class="cls-4" x1="39.92" y1="579.86" x2="39.92" y2="601.06"/><path d="M13.6,603.09h0Z" transform="translate(0 -28.34)"/><path class="cls-4" d="M13.6,603.09h0Z" transform="translate(0 -28.34)"/><path d="M39.92,608.19H13.6v-5.1Zm0,0Z" transform="translate(0 -28.34)"/><path class="cls-4" d="M39.92,608.19H13.6v-5.1Zm0,0Z" transform="translate(0 -28.34)"/><polygon points="13.6 574.75 39.92 574.75 39.92 579.86 13.6 574.75"/><polygon class="cls-4" points="13.6 574.75 39.92 574.75 39.92 579.86 13.6 574.75"/><line class="cls-4" x1="39.92" y1="574.75" x2="13.6" y2="574.75"/><line class="cls-4" x1="13.6" y1="579.86" x2="39.92" y2="579.86"/><path d="M223.33,524.93h0Z" transform="translate(0 -28.34)"/><path class="cls-4" d="M223.33,524.93h0Z" transform="translate(0 -28.34)"/><path d="M228.43,530h-13v-5.11Zm0,0Z" transform="translate(0 -28.34)"/><path class="cls-4" d="M228.43,530h-13v-5.11Zm0,0Z" transform="translate(0 -28.34)"/><polygon points="215.47 496.59 223.33 496.59 228.44 501.7 215.47 496.59"/><polygon class="cls-4" points="215.47 496.59 223.33 496.59 228.44 501.7 215.47 496.59"/><path d="M155.78,524.93h0Z" transform="translate(0 -28.34)"/><path class="cls-4" d="M155.78,524.93h0Z" transform="translate(0 -28.34)"/><path d="M155.78,530h-3.15l-5.49-5.11Zm0,0Z" transform="translate(0 -28.34)"/><path class="cls-4" d="M155.78,530h-3.15l-5.49-5.11Zm0,0Z" transform="translate(0 -28.34)"/><polygon points="147.14 496.59 155.78 496.59 155.78 501.7 147.14 496.59"/><polygon class="cls-4" points="147.14 496.59 155.78 496.59 155.78 501.7 147.14 496.59"/><line class="cls-4" x1="228.43" y1="501.7" x2="228.43" y2="501.7"/><polyline class="cls-4" points="215.47 501.7 215.47 496.59 215.47 501.7"/><polyline class="cls-4" points="147.14 496.59 155.78 496.59 155.78 501.7 152.63 501.7"/><line class="cls-4" x1="155.78" y1="496.59" x2="159.31" y2="496.59"/><line class="cls-4" x1="155.78" y1="501.7" x2="159.31" y2="501.7"/><line class="cls-4" x1="215.47" y1="496.59" x2="211.94" y2="496.59"/><line class="cls-4" x1="215.47" y1="501.7" x2="211.94" y2="501.7"/><line class="cls-4" x1="159.31" y1="501.7" x2="159.31" y2="496.59"/><polyline class="cls-4" points="211.94 501.7 211.94 496.59 211.94 443.57"/><path class="cls-4" d="M211.74,471.91a52.82,52.82,0,0,0-52.82,52.83" transform="translate(0 -28.34)"/><path d="M.25,530h0Z" transform="translate(0 -28.34)"/><path class="cls-4" d="M.25,530h0Z" transform="translate(0 -28.34)"/><path d="M.25,530,13.6,642.75l-13.35,13Zm13.35,0H.25L13.6,642.75Z" transform="translate(0 -28.34)"/><path class="cls-4" d="M.25,530,13.6,642.75H.25Zm13.35,0H.25L13.6,642.75Z" transform="translate(0 -28.34)"/><line class="cls-4" x1="13.6" y1="614.42" x2="13.6" y2="579.86"/><line class="cls-4" x1="13.6" y1="574.75" x2="13.6" y2="541.37"/><polyline class="cls-4" points="13.6 536.26 13.6 501.7 0.25 501.7 0.25 614.42"/><path d="M417,229.19h0Z" transform="translate(0 -28.34)"/><path class="cls-4" d="M417,229.19h0Z" transform="translate(0 -28.34)"/><path d="M430.31,464.06H417V229.19Zm0,0Z" transform="translate(0 -28.34)"/><path class="cls-4" d="M430.31,464.06H417V229.19Zm0,0Z" transform="translate(0 -28.34)"/><polygon points="416.95 200.86 430.31 200.86 430.31 435.72 416.95 200.86"/><polygon class="cls-4" points="416.95 200.86 430.31 200.86 430.31 435.72 416.95 200.86"/><polyline class="cls-4" points="416.95 200.86 416.95 435.72 430.31 435.72 430.31 200.86 416.95 200.86"/><path d="M417,530h0Z" transform="translate(0 -28.34)"/><path class="cls-4" d="M417,530h0Z" transform="translate(0 -28.34)"/><path d="M430.31,642.75H417V530Zm0,0Z" transform="translate(0 -28.34)"/><path class="cls-4" d="M430.31,642.75H417V530Zm0,0Z" transform="translate(0 -28.34)"/><polygon points="416.95 501.7 430.31 501.7 430.31 614.42 416.95 501.7"/><polygon class="cls-4" points="416.95 501.7 430.31 501.7 430.31 627.38 416.95 501.7"/><line class="cls-4" x1="416.95" y1="501.7" x2="416.95" y2="614.42"/><polyline points="430.31 614.42 307.77 614.42 430.31 614.42"/><polyline class="cls-4" points="430.31 614.42 307.77 614.42 430.31 614.42"/><polyline points="430.31 627.38 307.77 627.38 307.77 614.42 430.31 627.38"/><polyline points="430.31 627.38 307.77 627.38 430.31 627.38"/><polyline class="cls-4" points="430.31 627.38 307.77 627.38 307.77 614.42 430.31 627.38"/><polyline class="cls-4" points="430.31 627.38 307.77 627.38 430.31 627.38"/><polyline points="430.31 627.38 307.77 614.42 430.31 614.42"/><polyline class="cls-4" points="430.31 627.38 307.77 614.42 430.31 614.42"/><line class="cls-4" x1="430.31" y1="614.42" x2="430.31" y2="614.42"/><polyline class="cls-4" points="416.95 614.42 307.77 614.42 307.77 627.38 430.31 627.38"/><path d="M165.6,642.75h0Z" transform="translate(0 -28.34)"/><path class="cls-4" d="M165.6,642.75h0Z" transform="translate(0 -28.34)"/><path d="M170.31,655.72H152.63l13-13Zm0,0Z" transform="translate(0 -28.34)"/><path class="cls-4" d="M170.31,655.72H152.63l13-13Zm0,0Z" transform="translate(0 -28.34)"/><polygon points="165.59 614.42 170.31 614.42 170.31 627.38 165.59 614.42"/><polygon class="cls-4" points="165.59 614.42 170.31 614.42 170.31 627.38 165.59 614.42"/><path d="M236.68,642.75h0Z" transform="translate(0 -28.34)"/><path class="cls-4" d="M236.68,642.75h0Z" transform="translate(0 -28.34)"/><path d="M241.79,655.72h-5.11v-13Zm0,0Z" transform="translate(0 -28.34)"/><path class="cls-4" d="M241.79,655.72h-5.11v-13Zm0,0Z" transform="translate(0 -28.34)"/><polygon points="236.68 614.42 241.79 614.42 241.79 627.38 236.68 614.42"/><polygon class="cls-4" points="236.68 614.42 241.79 614.42 241.79 627.38 236.68 614.42"/><line class="cls-4" x1="170.31" y1="614.42" x2="170.31" y2="627.38"/><polyline class="cls-4" points="241.79 614.42 236.68 614.42 236.68 627.38"/><line class="cls-4" x1="170.31" y1="614.42" x2="165.6" y2="614.42"/><line class="cls-4" x1="152.63" y1="627.38" x2="170.31" y2="627.38"/><polyline class="cls-4" points="236.68 627.38 241.79 627.38 241.79 614.42"/><path class="cls-4" d="M233.54,642.56a60.68,60.68,0,0,0-60.68-60.68" transform="translate(0 -28.34)"/><path d="M233.93,642.75h0Z" transform="translate(0 -28.34)"/><path class="cls-4" d="M233.93,642.75h0Z" transform="translate(0 -28.34)"/><path d="M236.68,655.72h-2.75v-13Zm0,0Z" transform="translate(0 -28.34)"/><path class="cls-4" d="M236.68,655.72h-2.75v-13Zm0,0Z" transform="translate(0 -28.34)"/><polygon points="233.93 614.42 236.68 614.42 236.68 627.38 233.93 614.42"/><polygon class="cls-4" points="233.93 614.42 236.68 614.42 236.68 627.38 233.93 614.42"/><path d="M170.31,642.75h0Z" transform="translate(0 -28.34)"/><path class="cls-4" d="M170.31,642.75h0Z" transform="translate(0 -28.34)"/><path d="M173.06,655.72h-2.75v-13Zm0,0Z" transform="translate(0 -28.34)"/><path class="cls-4" d="M173.06,655.72h-2.75v-13Zm0,0Z" transform="translate(0 -28.34)"/><polygon points="170.31 614.42 173.06 614.42 173.06 627.38 170.31 614.42"/><polygon class="cls-4" points="170.31 614.42 173.06 614.42 173.06 627.38 170.31 614.42"/><polyline class="cls-4" points="236.68 627.38 233.93 627.38 233.93 614.42 236.68 614.42 236.68 627.38"/><polyline class="cls-4" points="170.31 614.42 173.06 614.42 173.06 627.38 170.31 627.38 170.31 614.42"/><line class="cls-4" x1="173.06" y1="614.42" x2="173.06" y2="553.54"/><line class="cls-4" x1="236.68" y1="614.42" x2="236.68" y2="627.38"/><line class="cls-4" x1="170.31" y1="614.42" x2="170.31" y2="627.38"/><path d="M.25,229.19h0Z" transform="translate(0 -28.34)"/><path class="cls-4" d="M.25,229.19h0Z" transform="translate(0 -28.34)"/><path d="M13.6,464.06H.25V229.19Zm0,0Z" transform="translate(0 -28.34)"/><path class="cls-4" d="M13.6,464.06H.25V229.19Zm0,0Z" transform="translate(0 -28.34)"/><polygon points="0.25 200.86 13.6 200.86 13.6 435.72 0.25 200.86"/><polygon class="cls-4" points="0.25 200.86 13.6 200.86 13.6 435.72 0.25 200.86"/><polyline class="cls-4" points="13.6 435.72 13.6 200.86 0.25 200.86 0.25 435.72 13.6 435.72"/><line x1="53.27" y1="623.06" x2="53.27" y2="614.42"/><line class="cls-4" x1="53.27" y1="623.06" x2="53.27" y2="614.42"/><polyline class="cls-4" points="13.6 496.59 13.6 536.26 53.27 536.26 53.27 496.59 33.63 496.59 13.6 496.59"/><polyline class="cls-4" points="16.35 499.34 16.35 533.51 50.52 533.51 50.52 499.34 33.63 499.34 16.35 499.34"/><line class="cls-4" x1="146.94" y1="402.73" x2="145.44" y2="402.73"/><line class="cls-5" x1="142.41" y1="402.73" x2="16.62" y2="402.73"/><line class="cls-4" x1="15.1" y1="402.73" x2="13.6" y2="402.73"/><line class="cls-4" x1="6.93" y1="402.73" x2="6.93" y2="402.73"/><line class="cls-4" x1="147.14" y1="496.59" x2="147.14" y2="496.59"/><line class="cls-4" x1="147.14" y1="499.34" x2="147.14" y2="497.84"/><line class="cls-6" x1="147.14" y1="494.82" x2="147.14" y2="405.74"/><line class="cls-4" x1="147.14" y1="404.23" x2="147.14" y2="402.73"/><line class="cls-4" x1="149.1" y1="496.59" x2="13.6" y2="496.59"/><line class="cls-4" x1="0.25" y1="402.73" x2="0.25" y2="402.73"/><line class="cls-4" x1="0.25" y1="627.38" x2="152.63" y2="627.38"/><path d="M417,179.71h0Z" transform="translate(0 -28.34)"/><path class="cls-4" d="M417,179.71h0Z" transform="translate(0 -28.34)"/><path d="M430.31,229.19H417V179.71Zm0,0Z" transform="translate(0 -28.34)"/><path class="cls-4" d="M430.31,229.19H417V179.71Zm0,0Z" transform="translate(0 -28.34)"/><polygon points="416.95 151.37 430.31 151.37 430.31 200.86 416.95 151.37"/><polygon class="cls-4" points="416.95 151.37 430.31 151.37 430.31 200.86 416.95 151.37"/><polyline class="cls-4" points="416.95 151.37 416.95 200.86 430.31 200.86 430.31 151.37"/><path d="M417,464.06h0Z" transform="translate(0 -28.34)"/><path class="cls-4" d="M417,464.06h0Z" transform="translate(0 -28.34)"/><path d="M430.31,530H417v-66Zm0,0Z" transform="translate(0 -28.34)"/><path class="cls-4" d="M430.31,530H417v-66Zm0,0Z" transform="translate(0 -28.34)"/><polygon points="416.95 435.72 430.31 435.72 430.31 501.7 416.95 435.72"/><polygon class="cls-4" points="416.95 435.72 430.31 435.72 430.31 501.7 416.95 435.72"/><polyline class="cls-4" points="416.95 435.72 416.95 501.7 430.31 501.7 430.31 435.72 416.95 435.72"/><path d="M241.79,642.75h0Z" transform="translate(0 -28.34)"/><path class="cls-4" d="M241.79,642.75h0Z" transform="translate(0 -28.34)"/><path d="M307.77,655.72h-66v-13Zm0,0Z" transform="translate(0 -28.34)"/><path class="cls-4" d="M307.77,655.72h-66v-13Zm0,0Z" transform="translate(0 -28.34)"/><polygon points="241.79 614.42 307.77 614.42 307.77 627.38 241.79 614.42"/><polygon class="cls-4" points="241.79 614.42 307.77 614.42 307.77 627.38 241.79 614.42"/><polyline class="cls-4" points="307.77 614.42 241.79 614.42 241.79 627.38 307.77 627.38 307.77 614.42"/><path d="M.25,179.71h0Z" transform="translate(0 -28.34)"/><path class="cls-4" d="M.25,179.71h0Z" transform="translate(0 -28.34)"/><path d="M13.6,229.19H.25V179.71Zm0,0Z" transform="translate(0 -28.34)"/><path class="cls-4" d="M13.6,229.19H.25V179.71Zm0,0Z" transform="translate(0 -28.34)"/><polygon points="0.25 151.37 13.6 151.37 13.6 200.86 0.25 151.37"/><polygon class="cls-4" points="0.25 151.37 13.6 151.37 13.6 200.86 0.25 151.37"/><line class="cls-4" x1="13.6" y1="200.86" x2="13.6" y2="151.37"/><polyline class="cls-4" points="0.25 151.37 0.25 200.86 13.6 200.86"/><path d="M.25,464.06h0Z" transform="translate(0 -28.34)"/><path class="cls-4" d="M.25,464.06h0Z" transform="translate(0 -28.34)"/><path d="M13.6,530H.25v-66Zm0,0Z" transform="translate(0 -28.34)"/><path class="cls-4" d="M13.6,530H.25v-66Zm0,0Z" transform="translate(0 -28.34)"/><polygon points="0.25 435.72 13.6 435.72 13.6 501.7 0.25 435.72"/><polygon class="cls-4" points="0.25 435.72 13.6 435.72 13.6 501.7 0.25 435.72"/><polyline class="cls-4" points="13.6 501.7 13.6 435.72 0.25 435.72 0.25 501.7 13.6 501.7"/><path d="M228.43,524.93h-13V464.06Zm0,0Z" transform="translate(0 -28.34)"/><path class="cls-4" d="M228.43,524.93h-13V464.06Zm0,0Z" transform="translate(0 -28.34)"/><polygon points="215.47 435.72 228.44 435.72 228.44 496.59 215.47 435.72"/><polygon class="cls-4" points="215.47 435.72 228.44 435.72 228.44 496.59 215.47 435.72"/><line class="cls-4" x1="215.47" y1="435.72" x2="215.47" y2="496.59"/><polyline class="cls-4" points="228.44 496.59 228.44 435.72 215.47 435.72"/><path d="M215.47,179.71h0Z" transform="translate(0 -28.34)"/><path class="cls-4" d="M215.47,179.71h0Z" transform="translate(0 -28.34)"/><path d="M215.47,179.71l13,49.48h-13Zm13,0h-13l13,49.48Z" transform="translate(0 -28.34)"/><path class="cls-4" d="M215.47,179.71l13,49.48h-13Zm13,0h-13l13,49.48Z" transform="translate(0 -28.34)"/><polyline class="cls-4" points="215.47 151.37 215.47 200.86 228.44 200.86 228.44 151.37"/><text class="cls-7" transform="translate(92.54 184.71)">13.48</text><text class="cls-7" transform="translate(296.63 184.71)">12.54</text><text class="cls-7" transform="translate(204.46 105.89)">0.89</text><text class="cls-7" transform="translate(222.27 558.37)">4.78</text><text class="cls-7" transform="translate(331.48 540.8)">3.59</text><text class="cls-7" transform="translate(62.91 578.75)">1.49</text><text class="cls-7" transform="translate(62.91 458.7)">3.94</text></svg>