<svg id="_30" data-name="30" xmlns="http://www.w3.org/2000/svg" viewBox="0 0 1263.7 513.57"><defs><style>.cls-1{font-size:12px;}.cls-1,.cls-3{fill:#808184;}.cls-1,.cls-6,.cls-7{font-family:PTSans-Regular, PT Sans;}.cls-2,.cls-5{fill:none;stroke-linecap:round;stroke-linejoin:round;stroke-width:0.75px;}.cls-2{stroke:#808184;}.cls-4{letter-spacing:-0.01em;}.cls-5{stroke:#000;}.cls-6,.cls-7{isolation:isolate;}.cls-6{font-size:24px;}.cls-7{font-size:22px;}</style></defs><title>1floor_30flat</title><text class="cls-1" transform="translate(10.2 265.4) rotate(-90)">двор</text><line class="cls-2" x1="1.8" y1="273.57" x2="12.24" y2="273.57"/><path class="cls-3" d="M35.27,277.17a.38.38,0,0,0-.12-.52l-4.84-3.08,4.84-3.08a.37.37,0,0,0,.12-.52.38.38,0,0,0-.52-.11l-5.34,3.4a.37.37,0,0,0-.17.31.4.4,0,0,0,.17.32l5.34,3.4a.36.36,0,0,0,.2.06A.38.38,0,0,0,35.27,277.17Z" transform="translate(-28.34)"/><text class="cls-1" transform="translate(1260.76 265) rotate(-90)"><tspan class="cls-4">у</tspan><tspan x="5.42" y="0">лица | парк</tspan></text><line class="cls-2" x1="1251.46" y1="273.17" x2="1261.89" y2="273.17"/><path class="cls-3" d="M1285.11,276.77a.38.38,0,0,1,.11-.52l4.84-3.08-4.84-3.08a.38.38,0,0,1,.41-.63l5.33,3.4a.35.35,0,0,1,.18.31.38.38,0,0,1-.18.32l-5.33,3.4a.39.39,0,0,1-.2.05A.37.37,0,0,1,1285.11,276.77Z" transform="translate(-28.34)"/><polygon class="cls-5" points="654.96 71.43 559.31 71.43 559.31 49.58 327.95 49.58 327.95 57.77 262.38 57.77 262.38 152.95 196.79 152.95 196.79 311.44 262.38 311.44 262.38 496.81 1069.38 496.81 1069.38 137.02 654.96 137.02 654.96 71.43"/><rect class="cls-5" x="1088.52" y="132" width="136.63" height="356.14"/><polygon class="cls-5" points="177.67 330.57 177.67 162.07 64.71 162.07 64.71 250.87 56.52 250.87 56.52 490.42 208.63 490.42 208.63 420.75 243.24 420.75 243.24 330.57 177.67 330.57"/><line class="cls-5" x1="356.65" y1="98.76" x2="386.24" y2="98.76"/><line class="cls-5" x1="386.24" y1="98.76" x2="386.24" y2="71.89"/><line class="cls-5" x1="386.24" y1="71.89" x2="356.65" y2="71.89"/><line class="cls-5" x1="356.65" y1="71.89" x2="356.65" y2="98.76"/><line class="cls-5" x1="355.28" y1="102.86" x2="387.61" y2="102.86"/><line class="cls-5" x1="355.28" y1="70.52" x2="387.61" y2="70.52"/><line class="cls-5" x1="359.37" y1="96.03" x2="383.51" y2="96.03"/><line class="cls-5" x1="383.51" y1="96.03" x2="383.51" y2="77.35"/><line class="cls-5" x1="383.51" y1="77.35" x2="359.37" y2="77.35"/><line class="cls-5" x1="359.37" y1="77.35" x2="359.37" y2="96.03"/><path class="cls-5" d="M399.1,84.65c0,.46,0,.46.46.46s.44,0,.44-.46" transform="translate(-28.34)"/><line class="cls-5" x1="372.13" y1="84.65" x2="372.13" y2="73.71"/><path class="cls-5" d="M400.47,73.71c0-.46,0-.46-.45-.46s-.46,0-.46.46" transform="translate(-28.34)"/><line class="cls-5" x1="370.76" y1="73.71" x2="370.76" y2="84.65"/><line class="cls-5" x1="370.31" y1="76.44" x2="370.76" y2="76.44"/><line class="cls-5" x1="370.76" y1="76.44" x2="370.76" y2="73.71"/><path class="cls-5" d="M400.47,73.71c0-.46,0-.46-.45-.46s-.46,0-.46.46" transform="translate(-28.34)"/><line class="cls-5" x1="372.13" y1="73.71" x2="372.13" y2="76.44"/><line class="cls-5" x1="372.13" y1="76.44" x2="372.59" y2="76.44"/><line class="cls-5" x1="372.59" y1="76.44" x2="372.59" y2="73.25"/><line class="cls-5" x1="372.59" y1="73.25" x2="370.31" y2="73.25"/><line class="cls-5" x1="370.31" y1="73.25" x2="370.31" y2="76.44"/><line class="cls-5" x1="370.31" y1="78.72" x2="370.76" y2="78.72"/><line class="cls-5" x1="370.76" y1="78.72" x2="370.76" y2="76.9"/><line class="cls-5" x1="370.76" y1="76.9" x2="370.31" y2="76.9"/><line class="cls-5" x1="370.31" y1="76.9" x2="370.31" y2="78.72"/><line class="cls-5" x1="372.59" y1="78.72" x2="372.59" y2="76.9"/><line class="cls-5" x1="372.59" y1="76.9" x2="372.13" y2="76.9"/><line class="cls-5" x1="372.13" y1="76.9" x2="372.13" y2="78.72"/><line class="cls-5" x1="372.13" y1="78.72" x2="372.59" y2="78.72"/><line class="cls-5" x1="433.61" y1="73.25" x2="401.73" y2="73.25"/><line class="cls-5" x1="401.73" y1="73.25" x2="401.73" y2="100.11"/><line class="cls-5" x1="401.73" y1="100.11" x2="433.61" y2="100.11"/><line class="cls-5" x1="433.61" y1="100.11" x2="433.61" y2="73.25"/><path class="cls-5" d="M450.56,94.2a4.11,4.11,0,1,0,4.1-4.1,4.09,4.09,0,0,0-4.1,4.1" transform="translate(-28.34)"/><path class="cls-5" d="M446.93,81.44a5.92,5.92,0,1,0,5.91-5.91,6,6,0,0,0-5.91,5.91" transform="translate(-28.34)"/><path class="cls-5" d="M433.26,92.84a5,5,0,1,0,5-5c-2.73.46-5,2.28-5,5" transform="translate(-28.34)"/><path class="cls-5" d="M432.8,80.55a4.11,4.11,0,1,0,4.11-4.11,4.09,4.09,0,0,0-4.11,4.11" transform="translate(-28.34)"/><line class="cls-5" x1="434.07" y1="70.52" x2="401.27" y2="70.52"/><line class="cls-5" x1="434.07" y1="102.86" x2="401.27" y2="102.86"/><line class="cls-5" x1="188.59" y1="142.49" x2="107.98" y2="142.49"/><rect class="cls-5" x="559.31" y="71.43" width="84.71" height="76.51"/><line class="cls-5" x1="644.02" y1="147.94" x2="644.02" y2="71.43"/><line class="cls-5" x1="559.31" y1="147.94" x2="559.31" y2="71.43"/><line class="cls-5" x1="644.02" y1="147.94" x2="559.31" y2="147.94"/><line class="cls-5" x1="644.02" y1="71.43" x2="559.31" y2="71.43"/><line class="cls-5" x1="644.02" y1="147.94" x2="559.31" y2="147.94"/><line class="cls-5" x1="644.02" y1="132.46" x2="559.31" y2="132.46"/><line class="cls-5" x1="644.02" y1="116.98" x2="559.31" y2="116.98"/><line class="cls-5" x1="644.02" y1="101.94" x2="559.31" y2="101.94"/><line class="cls-5" x1="644.02" y1="86.46" x2="559.31" y2="86.46"/><line class="cls-5" x1="644.02" y1="71.43" x2="559.31" y2="71.43"/><line class="cls-5" x1="601.66" y1="147.94" x2="601.66" y2="71.43"/><line class="cls-5" x1="601.66" y1="71.43" x2="612.6" y2="82.37"/><line class="cls-5" x1="601.66" y1="71.43" x2="590.74" y2="82.37"/><line class="cls-5" x1="40.59" y1="423.02" x2="40.59" y2="142.49"/><rect class="cls-5" x="747.4" y="147.94" width="32.78" height="92.46"/><rect class="cls-5" x="654.96" y="316.91" width="54.65" height="65.57"/><line class="cls-5" x1="313.84" y1="102.86" x2="313.84" y2="68.69"/><line class="cls-5" x1="262.38" y1="102.86" x2="346.62" y2="102.86"/><line class="cls-5" x1="346.62" y1="102.86" x2="346.62" y2="68.69"/><line class="cls-5" x1="346.62" y1="102.86" x2="383.97" y2="102.86"/><line class="cls-5" x1="387.61" y1="102.86" x2="535.18" y2="102.86"/><line class="cls-5" x1="780.19" y1="147.94" x2="747.4" y2="240.4"/><line class="cls-5" x1="780.19" y1="240.4" x2="747.4" y2="147.94"/><line class="cls-5" x1="709.6" y1="382.03" x2="654.96" y2="316.91"/><line class="cls-5" x1="709.6" y1="316.91" x2="654.96" y2="382.03"/><line class="cls-5" x1="535.18" y1="102.86" x2="535.18" y2="142.49"/><line class="cls-5" x1="502.38" y1="513.2" x2="532.44" y2="513.2"/><line class="cls-5" x1="572.98" y1="512.74" x2="611.23" y2="512.74"/><line class="cls-5" x1="726" y1="513.2" x2="687.74" y2="513.2"/><line class="cls-5" x1="774.72" y1="485.87" x2="684.55" y2="485.87"/><line class="cls-5" x1="684.55" y1="485.87" x2="684.55" y2="447.61"/><line class="cls-5" x1="684.55" y1="447.61" x2="774.72" y2="447.61"/><line class="cls-5" x1="774.72" y1="447.61" x2="774.72" y2="485.87"/><line class="cls-5" x1="764.25" y1="450.81" x2="765.62" y2="450.81"/><line class="cls-5" x1="765.62" y1="450.81" x2="766.98" y2="451.26"/><line class="cls-5" x1="766.98" y1="451.26" x2="767.9" y2="451.71"/><line class="cls-5" x1="767.9" y1="451.71" x2="769.26" y2="452.63"/><line class="cls-5" x1="769.26" y1="452.63" x2="770.18" y2="453.54"/><line class="cls-5" x1="770.18" y1="453.54" x2="770.63" y2="454.45"/><line class="cls-5" x1="770.63" y1="454.45" x2="771.54" y2="455.82"/><line class="cls-5" x1="771.54" y1="455.82" x2="771.54" y2="456.73"/><line class="cls-5" x1="771.54" y1="456.73" x2="771.99" y2="458.08"/><line class="cls-5" x1="771.99" y1="458.08" x2="771.99" y2="474.93"/><line class="cls-5" x1="771.99" y1="474.93" x2="771.54" y2="476.31"/><line class="cls-5" x1="771.54" y1="476.31" x2="771.54" y2="477.68"/><line class="cls-5" x1="771.54" y1="477.68" x2="770.63" y2="479.05"/><line class="cls-5" x1="770.63" y1="479.05" x2="770.18" y2="479.94"/><line class="cls-5" x1="770.18" y1="479.94" x2="769.26" y2="480.85"/><line class="cls-5" x1="769.26" y1="480.85" x2="767.9" y2="481.76"/><line class="cls-5" x1="767.9" y1="481.76" x2="766.98" y2="482.22"/><line class="cls-5" x1="766.98" y1="482.22" x2="765.62" y2="482.68"/><line class="cls-5" x1="765.62" y1="482.68" x2="764.25" y2="482.68"/><line class="cls-5" x1="764.25" y1="482.68" x2="703.22" y2="482.68"/><line class="cls-5" x1="703.22" y1="482.68" x2="700.49" y2="482.22"/><line class="cls-5" x1="700.49" y1="482.22" x2="697.77" y2="481.76"/><line class="cls-5" x1="697.77" y1="481.76" x2="695.49" y2="480.4"/><line class="cls-5" x1="695.49" y1="480.4" x2="693.21" y2="479.05"/><line class="cls-5" x1="693.21" y1="479.05" x2="690.93" y2="476.77"/><line class="cls-5" x1="690.93" y1="476.77" x2="689.56" y2="474.49"/><line class="cls-5" x1="689.56" y1="474.49" x2="688.2" y2="472.21"/><line class="cls-5" x1="688.2" y1="472.21" x2="687.74" y2="469.48"/><line class="cls-5" x1="687.74" y1="469.48" x2="687.28" y2="466.74"/><line class="cls-5" x1="687.28" y1="466.74" x2="687.74" y2="464"/><line class="cls-5" x1="687.74" y1="464" x2="688.2" y2="461.29"/><line class="cls-5" x1="688.2" y1="461.29" x2="689.56" y2="458.54"/><line class="cls-5" x1="689.56" y1="458.54" x2="690.93" y2="456.27"/><line class="cls-5" x1="690.93" y1="456.27" x2="693.21" y2="454.45"/><line class="cls-5" x1="693.21" y1="454.45" x2="695.49" y2="452.63"/><line class="cls-5" x1="695.49" y1="452.63" x2="697.77" y2="451.71"/><line class="cls-5" x1="697.77" y1="451.71" x2="700.49" y2="450.81"/><line class="cls-5" x1="700.49" y1="450.81" x2="703.22" y2="450.81"/><line class="cls-5" x1="703.22" y1="450.81" x2="764.25" y2="450.81"/><line class="cls-5" x1="772.44" y1="468.11" x2="770.18" y2="467.65"/><line class="cls-5" x1="770.18" y1="467.65" x2="769.72" y2="467.65"/><line class="cls-5" x1="769.72" y1="467.65" x2="769.72" y2="467.65"/><line class="cls-5" x1="769.72" y1="467.65" x2="766.98" y2="467.2"/><path class="cls-5" d="M795.33,467.2a.45.45,0,0,1-.46-.46c0-.46,0-.46.46-.46" transform="translate(-28.34)"/><line class="cls-5" x1="766.98" y1="465.83" x2="766.98" y2="465.83"/><line class="cls-5" x1="766.98" y1="465.83" x2="769.72" y2="465.83"/><line class="cls-5" x1="769.72" y1="465.83" x2="770.18" y2="465.83"/><line class="cls-5" x1="770.18" y1="465.37" x2="770.18" y2="465.37"/><line class="cls-5" x1="770.18" y1="465.37" x2="772.44" y2="465.37"/><path class="cls-5" d="M800.78,465.37a1.37,1.37,0,1,1,0,2.74" transform="translate(-28.34)"/><line class="cls-5" x1="772.44" y1="468.11" x2="772.44" y2="468.11"/><line class="cls-5" x1="771.54" y1="465.83" x2="770.63" y2="465.83"/><line class="cls-5" x1="770.63" y1="467.2" x2="771.54" y2="467.2"/><line class="cls-5" x1="771.54" y1="467.2" x2="771.54" y2="465.83"/><path class="cls-5" d="M799,467.2a.92.92,0,0,1,0-1.83" transform="translate(-28.34)"/><path class="cls-5" d="M798.06,467.65h0c-.45-.91-.45-1.37,0-1.82" transform="translate(-28.34)"/><line class="cls-5" x1="556.11" y1="485.87" x2="649.03" y2="485.87"/><line class="cls-5" x1="649.03" y1="485.87" x2="649.03" y2="447.61"/><line class="cls-5" x1="649.03" y1="447.61" x2="556.11" y2="447.61"/><line class="cls-5" x1="556.11" y1="447.61" x2="556.11" y2="485.87"/><line class="cls-5" x1="567.05" y1="450.81" x2="565.69" y2="450.81"/><line class="cls-5" x1="565.69" y1="450.81" x2="564.32" y2="451.26"/><line class="cls-5" x1="564.32" y1="451.26" x2="562.95" y2="451.71"/><line class="cls-5" x1="562.95" y1="451.71" x2="562.04" y2="452.63"/><line class="cls-5" x1="562.04" y1="452.63" x2="561.13" y2="453.54"/><line class="cls-5" x1="561.13" y1="453.54" x2="560.21" y2="454.45"/><line class="cls-5" x1="560.21" y1="454.45" x2="559.76" y2="455.82"/><line class="cls-5" x1="559.76" y1="455.82" x2="559.31" y2="457.19"/><line class="cls-5" x1="559.31" y1="457.19" x2="559.31" y2="458.08"/><line class="cls-5" x1="559.31" y1="458.08" x2="559.31" y2="474.93"/><line class="cls-5" x1="559.31" y1="474.93" x2="559.31" y2="476.31"/><line class="cls-5" x1="559.31" y1="476.31" x2="559.76" y2="477.68"/><line class="cls-5" x1="559.76" y1="477.68" x2="560.21" y2="479.05"/><line class="cls-5" x1="560.21" y1="479.05" x2="561.13" y2="479.94"/><line class="cls-5" x1="561.13" y1="479.94" x2="562.04" y2="480.85"/><line class="cls-5" x1="562.04" y1="480.85" x2="562.95" y2="481.76"/><line class="cls-5" x1="562.95" y1="481.76" x2="564.32" y2="482.22"/><line class="cls-5" x1="564.32" y1="482.22" x2="565.69" y2="482.68"/><line class="cls-5" x1="565.69" y1="482.68" x2="567.05" y2="482.68"/><line class="cls-5" x1="567.05" y1="482.68" x2="629.45" y2="482.68"/><line class="cls-5" x1="629.45" y1="482.68" x2="632.64" y2="482.68"/><line class="cls-5" x1="632.64" y1="482.68" x2="635.37" y2="481.76"/><line class="cls-5" x1="635.37" y1="481.76" x2="637.63" y2="480.4"/><line class="cls-5" x1="637.63" y1="480.4" x2="639.91" y2="479.05"/><line class="cls-5" x1="639.91" y1="479.05" x2="642.19" y2="476.77"/><line class="cls-5" x1="642.19" y1="476.77" x2="643.56" y2="474.49"/><line class="cls-5" x1="643.56" y1="474.49" x2="644.93" y2="472.21"/><line class="cls-5" x1="644.93" y1="472.21" x2="645.39" y2="469.48"/><line class="cls-5" x1="645.39" y1="469.48" x2="645.84" y2="466.74"/><line class="cls-5" x1="645.84" y1="466.74" x2="645.39" y2="464"/><line class="cls-5" x1="645.39" y1="464" x2="644.93" y2="461.29"/><line class="cls-5" x1="644.93" y1="461.29" x2="643.56" y2="458.54"/><line class="cls-5" x1="643.56" y1="458.54" x2="642.19" y2="456.27"/><line class="cls-5" x1="642.19" y1="456.27" x2="639.91" y2="454.45"/><line class="cls-5" x1="639.91" y1="454.45" x2="637.63" y2="452.63"/><line class="cls-5" x1="637.63" y1="452.63" x2="635.37" y2="451.71"/><line class="cls-5" x1="635.37" y1="451.71" x2="632.64" y2="450.81"/><line class="cls-5" x1="632.64" y1="450.81" x2="629.45" y2="450.81"/><line class="cls-5" x1="629.45" y1="450.81" x2="567.05" y2="450.81"/><line class="cls-5" x1="558.39" y1="468.11" x2="560.67" y2="467.65"/><line class="cls-5" x1="560.67" y1="467.65" x2="561.13" y2="467.65"/><line class="cls-5" x1="561.13" y1="467.65" x2="561.13" y2="467.65"/><line class="cls-5" x1="561.13" y1="467.65" x2="564.32" y2="467.2"/><path class="cls-5" d="M592.66,467.2a.46.46,0,0,0,0-.92" transform="translate(-28.34)"/><line class="cls-5" x1="564.32" y1="466.28" x2="564.32" y2="466.28"/><line class="cls-5" x1="564.32" y1="466.28" x2="561.13" y2="465.83"/><line class="cls-5" x1="561.13" y1="465.83" x2="560.69" y2="465.83"/><line class="cls-5" x1="560.67" y1="465.37" x2="560.67" y2="465.37"/><line class="cls-5" x1="560.67" y1="465.37" x2="558.39" y2="465.37"/><path class="cls-5" d="M586.73,465.37a1.37,1.37,0,0,0,0,2.74" transform="translate(-28.34)"/><line class="cls-5" x1="558.39" y1="468.11" x2="558.39" y2="468.11"/><line class="cls-5" x1="559.76" y1="465.83" x2="560.67" y2="465.83"/><line class="cls-5" x1="560.67" y1="467.2" x2="559.76" y2="467.2"/><line class="cls-5" x1="559.76" y1="467.2" x2="559.76" y2="465.83"/><path class="cls-5" d="M589,467.2a.92.92,0,0,0,0-1.83" transform="translate(-28.34)"/><path class="cls-5" d="M589.47,467.65a1.68,1.68,0,0,0,.45-1.37.44.44,0,0,0-.45-.45" transform="translate(-28.34)"/><rect class="cls-5" x="238.24" y="496.81" width="850.28" height="5.46"/><path class="cls-5" d="M1110.48,502.26l5.46-5.45m-13.21,5.45,5.46-5.45m-13.2,5.45,5.46-5.45m-12.74,5.45,5.47-5.45M1080,502.26l5.47-5.45m-13.2,5.45,5.45-5.45m-13.2,5.45,5.47-5.45m-13.2,5.45,5.45-5.45m-13.2,5.45,5.45-5.45m-13.2,5.45,5.47-5.45m-13.2,5.45,5.45-5.45m-13.2,5.45,5.47-5.45m-13.2,5.45,5.45-5.45m-13.2,5.45,5.45-5.45m-13.2,5.45,5.47-5.45m-13.2,5.45,5.47-5.45m-12.77,5.45,5.47-5.45m-13.22,5.45,5.48-5.45M972,502.26l5.47-5.45m-13.2,5.45,5.45-5.45m-13.2,5.45,5.46-5.45m-13.21,5.45,5.47-5.45m-13.2,5.45,5.45-5.45m-13.2,5.45,5.45-5.45m-13.2,5.45,5.47-5.45m-13.2,5.45,5.45-5.45m-13.2,5.45,5.45-5.45m-13.2,5.45,5.47-5.45m-13.2,5.45,5.47-5.45m-13.22,5.45,5.47-5.45m-12.76,5.45,5.47-5.45m-13.2,5.45,5.47-5.45m-13.22,5.45,5.47-5.45m-13.2,5.45,5.45-5.45m-13.2,5.45,5.47-5.45m-13.22,5.45,5.47-5.45m-13.2,5.45,5.45-5.45m-13.2,5.45,5.47-5.45m-13.2,5.45,5.45-5.45m-13.2,5.45,5.47-5.45m-13.21,5.45,5.46-5.45m-13.2,5.45,5.46-5.45m-13.21,5.45,5.47-5.45m-13.2,5.45,5.46-5.45m-13.22,5.45,5.48-5.45m-12.75,5.45,5.45-5.45m-13.2,5.45,5.47-5.45m-13.22,5.45,5.47-5.45m-13.2,5.45,5.45-5.45m-13.2,5.45,5.47-5.45m-13.22,5.45,5.47-5.45m-13.2,5.45,5.46-5.45m-13.21,5.45,5.47-5.45M702,502.26l5.47-5.45m-13.2,5.45,5.47-5.45m-13.22,5.45,5.47-5.45m-13.22,5.45,5.48-5.45M671,502.26l5.47-5.45m-13.2,5.45,5.45-5.45M656,502.26l5.45-5.45m-13.2,5.45,5.47-5.45m-13.21,5.45,5.46-5.45m-13.2,5.45,5.45-5.45M625,502.26l5.47-5.45m-13.2,5.45,5.45-5.45m-13.2,5.45,5.47-5.45m-13.21,5.45,5.46-5.45M594,502.26l5.46-5.45m-13.21,5.45,5.47-5.45m-13.2,5.45,5.46-5.45m-13.2,5.45,5.46-5.45m-13.21,5.45,5.46-5.45m-12.75,5.45,5.47-5.45M548,502.26l5.45-5.45m-13.2,5.45,5.45-5.45m-13.2,5.45,5.47-5.45m-13.2,5.45,5.45-5.45m-13.2,5.45,5.46-5.45m-13.21,5.45,5.47-5.45m-13.2,5.45,5.45-5.45m-13.2,5.45,5.47-5.45m-13.22,5.45,5.47-5.45m-13.2,5.45,5.47-5.45m-13.22,5.45,5.47-5.45m-13.2,5.45,5.45-5.45m-13.2,5.45,5.47-5.45m-12.76,5.45,5.47-5.45m-13.21,5.45,5.46-5.45m-13.2,5.45,5.46-5.45m-13.2,5.45,5.46-5.45m-13.2,5.45,5.47-5.45m-13.22,5.45,5.47-5.45m-13.21,5.45,5.46-5.45m-13.2,5.45,5.46-5.45m-13.2,5.45,5.46-5.45m-13.21,5.45,5.47-5.45m-13.2,5.45,5.46-5.45m-13.21,5.45,5.47-5.45m-13.21,5.45,5.46-5.45m-13.2,5.45,5.46-5.45m-13.21,5.45,5.47-5.45m-12.76,5.45,5.47-5.45m-13.2,5.45,5.45-5.45m-13.2,5.45,5.47-5.45m-13.22,5.45,5.47-5.45m-13.2,5.45,5.45-5.45m-13.2,5.45,5.47-5.45m-13.22,5.45,5.47-5.45M278,502.26l5.47-5.45m-13.2,5.45,5.45-5.45m-9.56,1.82,1.83-1.82m-1.37,0,5.45,5.45m2.28-5.45,5.47,5.45m2.28-5.45,5.47,5.45m1.82-5.45,5.46,5.45m2.28-5.45,5.47,5.45m2.27-5.45,5.46,5.45m2.28-5.45,5.47,5.45m2.28-5.45,5.45,5.45m2.29-5.45,5.46,5.45m2.28-5.45,5.47,5.45m2.28-5.45,5.45,5.45m2.28-5.45,5.47,5.45m2.28-5.45,5.45,5.45m2.28-5.45,5.47,5.45m2.28-5.45,5.47,5.45m2.28-5.45,5.45,5.45m2.28-5.45,5.47,5.45m1.82-5.45,5.47,5.45m2.28-5.45,5.45,5.45m2.28-5.45,5.47,5.45m2.28-5.45,5.47,5.45m2.27-5.45,5.46,5.45m2.28-5.45,5.47,5.45m2.28-5.45,5.47,5.45m2.26-5.45,5.47,5.45m2.28-5.45,5.46,5.45m2.29-5.45,5.45,5.45m2.28-5.45,5.47,5.45m2.28-5.45,5.46,5.45m2.28-5.45,5.46,5.45m2.28-5.45,5.46,5.45m1.84-5.45,5.45,5.45m2.28-5.45,5.47,5.45m2.28-5.45,5.45,5.45m2.28-5.45,5.47,5.45m2.28-5.45,5.47,5.45m2.26-5.45,5.47,5.45m2.28-5.45,5.47,5.45m2.28-5.45,5.45,5.45m2.28-5.45,5.47,5.45m2.28-5.45,5.45,5.45m2.3-5.45,5.45,5.45m2.28-5.45,5.47,5.45m2.28-5.45,5.45,5.45m2.3-5.45,5.45,5.45m1.82-5.45,5.47,5.45m2.28-5.45,5.46,5.45m2.27-5.45,5.47,5.45m2.28-5.45,5.47,5.45m2.26-5.45,5.48,5.45m2.28-5.45,5.46,5.45m2.28-5.45,5.46,5.45m2.28-5.45,5.46,5.45m2.28-5.45,5.47,5.45m2.28-5.45,5.46,5.45m2.28-5.45,5.46,5.45m2.28-5.45,5.46,5.45m2.28-5.45,5.46,5.45m2.28-5.45,5.46,5.45m2.29-5.45,5.46,5.45m1.82-5.45,5.47,5.45m2.28-5.45,5.45,5.45m2.28-5.45,5.47,5.45m2.28-5.45,5.45,5.45m2.28-5.45,5.47,5.45m2.28-5.45,5.47,5.45m2.28-5.45,5.45,5.45m2.28-5.45,5.47,5.45m2.28-5.45,5.47,5.45m2.28-5.45,5.45,5.45m2.28-5.45,5.47,5.45m2.28-5.45,5.47,5.45m2.28-5.45,5.45,5.45m1.82-5.45,5.47,5.45m2.28-5.45,5.47,5.45m2.26-5.45,5.48,5.45m2.28-5.45,5.45,5.45m2.29-5.45,5.46,5.45m2.27-5.45,5.47,5.45m2.28-5.45,5.46,5.45m2.29-5.45,5.46,5.45m2.28-5.45,5.46,5.45m2.28-5.45,5.46,5.45m2.28-5.45,5.47,5.45m2.27-5.45,5.46,5.45m2.27-5.45,5.48,5.45m2.28-5.45,5.46,5.45m1.83-5.45,5.45,5.45m2.28-5.45,5.47,5.45m2.28-5.45,5.45,5.45m2.28-5.45,5.47,5.45m2.28-5.45,5.45,5.45m2.3-5.45,5.45,5.45m2.28-5.45,5.47,5.45m2.28-5.45,5.45,5.45m2.3-5.45,5.45,5.45m2.28-5.45,5.47,5.45m2.28-5.45,5.45,5.45m2.3-5.45,5.45,5.45m2.28-5.45,5.47,5.45m2.26-5.45,5.47,5.45m2.28-5.45,5.47,5.45m1.83-5.45,5.45,5.45m2.28-5.45,5.47,5.45m2.27-5.45,5.46,5.45m2.29-5.45,5.46,5.45m2.27-5.45,5.48,5.45m2.28-5.45,5.46,5.45m2.28-5.45,5.46,5.45m2.27-5.45,5.48,5.45m2.28-5.45,2.27,2.27" transform="translate(-28.34)"/><line class="cls-5" x1="262.38" y1="496.81" x2="1069.38" y2="496.81"/><line class="cls-5" x1="1069.38" y1="485.87" x2="262.38" y2="485.87"/><line class="cls-5" x1="251.44" y1="57.77" x2="251.44" y2="142.49"/><line class="cls-5" x1="262.38" y1="152.95" x2="262.38" y2="68.69"/><line class="cls-5" x1="496.92" y1="507.73" x2="491.45" y2="507.73"/><line class="cls-5" x1="654.96" y1="36.36" x2="654.96" y2="41.84"/><line class="cls-5" x1="1069.38" y1="137.02" x2="654.96" y2="137.02"/><line class="cls-5" x1="644.02" y1="147.94" x2="1069.38" y2="147.94"/><line class="cls-5" x1="237.78" y1="513.2" x2="1069.38" y2="513.2"/><line class="cls-5" x1="1069.38" y1="502.26" x2="660.41" y2="502.26"/><line class="cls-5" x1="633.1" y1="502.26" x2="237.78" y2="502.26"/><line class="cls-5" x1="196.79" y1="152.95" x2="262.38" y2="152.95"/><line class="cls-5" x1="251.44" y1="142.49" x2="196.79" y2="142.49"/><line class="cls-5" x1="731.01" y1="513.2" x2="726" y2="513.2"/><line class="cls-5" x1="644.02" y1="11.31" x2="644.02" y2="71.43"/><line class="cls-5" x1="654.96" y1="71.43" x2="654.96" y2="0.38"/><line class="cls-5" x1="811.62" y1="137.02" x2="812.98" y2="137.02"/><line class="cls-5" x1="752.86" y1="316.91" x2="752.86" y2="311.44"/><line class="cls-5" x1="709.6" y1="316.91" x2="709.6" y2="311.44"/><line class="cls-5" x1="1069.38" y1="311.44" x2="802.05" y2="311.44"/><line class="cls-5" x1="774.72" y1="311.44" x2="752.86" y2="311.44"/><line class="cls-5" x1="709.6" y1="311.44" x2="594.82" y2="311.44"/><line class="cls-5" x1="600.29" y1="316.91" x2="649.49" y2="316.91"/><line class="cls-5" x1="654.96" y1="316.91" x2="709.6" y2="316.91"/><line class="cls-5" x1="752.86" y1="316.91" x2="1069.38" y2="316.91"/><line class="cls-5" x1="709.6" y1="310.53" x2="711.43" y2="310.53"/><line class="cls-5" x1="711.43" y1="310.53" x2="711.43" y2="316.91"/><line class="cls-5" x1="711.43" y1="316.91" x2="709.6" y2="316.91"/><line class="cls-5" x1="709.6" y1="316.91" x2="709.6" y2="310.53"/><line class="cls-5" x1="752.86" y1="316.91" x2="751.05" y2="316.91"/><line class="cls-5" x1="751.05" y1="316.91" x2="751.05" y2="310.53"/><line class="cls-5" x1="751.05" y1="310.53" x2="752.86" y2="310.53"/><line class="cls-5" x1="752.86" y1="310.53" x2="752.86" y2="316.91"/><line class="cls-5" x1="751.05" y1="316.91" x2="731.01" y2="350.61"/><path class="cls-5" d="M759.35,350.61a38.84,38.84,0,0,1-19.58-34.16" transform="translate(-28.34)"/><line class="cls-5" x1="709.6" y1="316.91" x2="709.6" y2="311.44"/><line class="cls-5" x1="752.86" y1="316.91" x2="752.86" y2="311.44"/><line class="cls-5" x1="338.89" y1="60.51" x2="436.35" y2="60.51"/><line class="cls-5" x1="436.35" y1="49.58" x2="395.82" y2="49.58"/><line class="cls-5" x1="368.48" y1="49.58" x2="327.95" y2="49.58"/><line class="cls-5" x1="780.19" y1="485.87" x2="780.19" y2="382.03"/><line class="cls-5" x1="774.72" y1="387.5" x2="774.72" y2="485.87"/><line class="cls-5" x1="774.72" y1="485.87" x2="780.19" y2="485.87"/><line class="cls-5" x1="540.63" y1="392.97" x2="540.63" y2="387.5"/><line class="cls-5" x1="578.45" y1="392.97" x2="578.45" y2="387.5"/><line class="cls-5" x1="578.45" y1="392.97" x2="649.49" y2="392.97"/><line class="cls-5" x1="649.49" y1="387.5" x2="600.29" y2="387.5"/><line class="cls-5" x1="594.82" y1="387.5" x2="578.45" y2="387.5"/><line class="cls-5" x1="578.45" y1="386.58" x2="576.61" y2="386.58"/><line class="cls-5" x1="576.61" y1="386.58" x2="576.61" y2="392.97"/><line class="cls-5" x1="576.61" y1="392.97" x2="578.45" y2="392.97"/><line class="cls-5" x1="578.45" y1="392.97" x2="578.45" y2="386.58"/><line class="cls-5" x1="540.63" y1="392.97" x2="542.47" y2="392.97"/><line class="cls-5" x1="542.47" y1="392.97" x2="542.47" y2="386.58"/><line class="cls-5" x1="542.47" y1="386.58" x2="540.63" y2="386.58"/><line class="cls-5" x1="540.63" y1="386.58" x2="540.63" y2="392.97"/><line class="cls-5" x1="542.47" y1="392.97" x2="559.31" y2="422.12"/><path class="cls-5" d="M587.65,422.12A33.66,33.66,0,0,0,604.51,393" transform="translate(-28.34)"/><line class="cls-5" x1="578.45" y1="392.97" x2="578.45" y2="387.5"/><line class="cls-5" x1="540.63" y1="392.97" x2="540.63" y2="387.5"/><line class="cls-5" x1="654.96" y1="468.11" x2="654.96" y2="387.5"/><line class="cls-5" x1="654.96" y1="382.03" x2="654.96" y2="316.91"/><line class="cls-5" x1="649.49" y1="316.91" x2="649.49" y2="387.5"/><line class="cls-5" x1="649.49" y1="392.97" x2="649.49" y2="468.11"/><line class="cls-5" x1="513.32" y1="311.44" x2="262.38" y2="311.44"/><line class="cls-5" x1="262.38" y1="316.91" x2="535.18" y2="316.91"/><line class="cls-5" x1="535.18" y1="202.15" x2="540.63" y2="202.15"/><line class="cls-5" x1="535.18" y1="158.42" x2="540.63" y2="158.42"/><line class="cls-5" x1="535.18" y1="316.91" x2="540.63" y2="316.91"/><line class="cls-5" x1="535.18" y1="360.18" x2="540.63" y2="360.18"/><line class="cls-5" x1="540.63" y1="485.87" x2="540.63" y2="392.97"/><line class="cls-5" x1="540.63" y1="387.5" x2="540.63" y2="360.18"/><line class="cls-5" x1="540.63" y1="316.91" x2="540.63" y2="202.15"/><line class="cls-5" x1="540.63" y1="158.42" x2="540.63" y2="147.94"/><line class="cls-5" x1="535.18" y1="142.49" x2="535.18" y2="158.42"/><line class="cls-5" x1="535.18" y1="202.15" x2="535.18" y2="305.97"/><line class="cls-5" x1="535.18" y1="360.18" x2="535.18" y2="485.87"/><line class="cls-5" x1="535.18" y1="485.87" x2="540.63" y2="485.87"/><line class="cls-5" x1="541.09" y1="158.42" x2="541.09" y2="160.7"/><line class="cls-5" x1="541.09" y1="160.7" x2="535.18" y2="160.7"/><line class="cls-5" x1="535.18" y1="160.7" x2="535.18" y2="158.42"/><line class="cls-5" x1="535.18" y1="158.42" x2="541.09" y2="158.42"/><line class="cls-5" x1="535.18" y1="202.15" x2="535.18" y2="199.87"/><line class="cls-5" x1="535.18" y1="199.87" x2="541.09" y2="199.87"/><line class="cls-5" x1="541.09" y1="199.87" x2="541.09" y2="202.15"/><line class="cls-5" x1="541.09" y1="202.15" x2="535.18" y2="202.15"/><line class="cls-5" x1="535.18" y1="199.87" x2="501.01" y2="180.27"/><path class="cls-5" d="M529.35,180.27c6.84-12.29,20.06-19.57,34.17-19.57" transform="translate(-28.34)"/><line class="cls-5" x1="535.18" y1="158.42" x2="540.63" y2="158.42"/><line class="cls-5" x1="535.18" y1="202.15" x2="540.63" y2="202.15"/><line class="cls-5" x1="541.09" y1="360.18" x2="541.09" y2="358.34"/><line class="cls-5" x1="541.09" y1="358.34" x2="535.18" y2="358.34"/><line class="cls-5" x1="535.18" y1="358.34" x2="535.18" y2="360.18"/><line class="cls-5" x1="535.18" y1="360.18" x2="541.09" y2="360.18"/><line class="cls-5" x1="535.18" y1="316.91" x2="535.18" y2="318.73"/><line class="cls-5" x1="535.18" y1="318.73" x2="541.09" y2="318.73"/><line class="cls-5" x1="541.09" y1="318.73" x2="541.09" y2="316.91"/><line class="cls-5" x1="541.09" y1="316.91" x2="535.18" y2="316.91"/><line class="cls-5" x1="535.18" y1="318.73" x2="501.01" y2="338.3"/><path class="cls-5" d="M529.35,338.3c6.84,12.31,20.06,19.59,34.17,19.59" transform="translate(-28.34)"/><line class="cls-5" x1="535.18" y1="360.18" x2="540.63" y2="360.18"/><line class="cls-5" x1="535.18" y1="316.91" x2="540.63" y2="316.91"/><line class="cls-5" x1="644.02" y1="245.86" x2="774.72" y2="245.86"/><line class="cls-5" x1="780.19" y1="240.4" x2="747.4" y2="240.4"/><line class="cls-5" x1="741.93" y1="240.4" x2="649.49" y2="240.4"/><line class="cls-5" x1="774.72" y1="305.97" x2="780.19" y2="305.97"/><line class="cls-5" x1="774.72" y1="256.8" x2="780.19" y2="256.8"/><line class="cls-5" x1="774.72" y1="245.86" x2="774.72" y2="256.8"/><line class="cls-5" x1="774.72" y1="305.97" x2="774.72" y2="311.44"/><line class="cls-5" x1="780.19" y1="256.8" x2="780.19" y2="240.4"/><line class="cls-5" x1="781.1" y1="256.8" x2="781.1" y2="259.06"/><line class="cls-5" x1="781.1" y1="259.06" x2="774.72" y2="259.06"/><line class="cls-5" x1="774.72" y1="259.06" x2="774.72" y2="256.8"/><line class="cls-5" x1="774.72" y1="256.8" x2="781.1" y2="256.8"/><line class="cls-5" x1="774.72" y1="305.97" x2="774.72" y2="303.69"/><line class="cls-5" x1="774.72" y1="303.69" x2="781.1" y2="303.69"/><line class="cls-5" x1="781.1" y1="303.69" x2="781.1" y2="305.97"/><line class="cls-5" x1="781.1" y1="305.97" x2="774.72" y2="305.97"/><line class="cls-5" x1="774.72" y1="303.69" x2="736.01" y2="281.39"/><path class="cls-5" d="M764.35,281.39a45.34,45.34,0,0,1,38.71-22.33" transform="translate(-28.34)"/><line class="cls-5" x1="774.72" y1="256.8" x2="780.19" y2="256.8"/><line class="cls-5" x1="774.72" y1="305.97" x2="780.19" y2="305.97"/><line class="cls-5" x1="649.49" y1="240.4" x2="644.02" y2="240.4"/><line class="cls-5" x1="649.49" y1="202.15" x2="644.02" y2="202.15"/><line class="cls-5" x1="644.02" y1="147.94" x2="644.02" y2="202.15"/><line class="cls-5" x1="644.02" y1="240.4" x2="644.02" y2="245.86"/><line class="cls-5" x1="649.49" y1="202.15" x2="649.49" y2="147.94"/><line class="cls-5" x1="649.49" y1="147.94" x2="644.02" y2="147.94"/><line class="cls-5" x1="643.11" y1="202.15" x2="643.11" y2="204.42"/><line class="cls-5" x1="643.11" y1="204.42" x2="649.49" y2="204.42"/><line class="cls-5" x1="649.49" y1="204.42" x2="649.49" y2="202.15"/><line class="cls-5" x1="649.49" y1="202.15" x2="643.11" y2="202.15"/><line class="cls-5" x1="649.49" y1="240.4" x2="649.49" y2="238.12"/><line class="cls-5" x1="649.49" y1="238.12" x2="643.11" y2="238.12"/><line class="cls-5" x1="643.11" y1="238.12" x2="643.11" y2="240.4"/><line class="cls-5" x1="643.11" y1="240.4" x2="649.49" y2="240.4"/><line class="cls-5" x1="649.49" y1="238.12" x2="678.62" y2="221.27"/><path class="cls-5" d="M707,221.27a33.66,33.66,0,0,0-29.14-16.85" transform="translate(-28.34)"/><line class="cls-5" x1="649.49" y1="202.15" x2="644.02" y2="202.15"/><line class="cls-5" x1="649.49" y1="240.4" x2="644.02" y2="240.4"/><line class="cls-5" x1="516.04" y1="60.51" x2="516.04" y2="86.46"/><line class="cls-5" x1="517.42" y1="85.11" x2="517.42" y2="60.51"/><line class="cls-5" x1="517.42" y1="60.51" x2="516.04" y2="60.51"/><line class="cls-5" x1="533.81" y1="85.11" x2="517.42" y2="85.11"/><line class="cls-5" x1="516.04" y1="86.46" x2="535.18" y2="86.46"/><line class="cls-5" x1="327.95" y1="57.77" x2="251.44" y2="57.77"/><line class="cls-5" x1="262.38" y1="57.77" x2="262.38" y2="68.69"/><line class="cls-5" x1="262.38" y1="68.69" x2="338.89" y2="68.69"/><line class="cls-5" x1="338.89" y1="68.69" x2="338.89" y2="60.51"/><line class="cls-5" x1="327.95" y1="49.58" x2="327.95" y2="57.77"/><line class="cls-5" x1="443.17" y1="60.51" x2="443.17" y2="91.47"/><line class="cls-5" x1="450.01" y1="85.11" x2="450.01" y2="60.51"/><line class="cls-5" x1="450.01" y1="60.51" x2="443.17" y2="60.51"/><line class="cls-5" x1="684.55" y1="485.87" x2="684.55" y2="468.11"/><line class="cls-5" x1="683.18" y1="469.48" x2="683.18" y2="485.87"/><line class="cls-5" x1="683.18" y1="485.87" x2="684.55" y2="485.87"/><line class="cls-5" x1="650.84" y1="485.87" x2="650.84" y2="469.48"/><line class="cls-5" x1="649.49" y1="468.11" x2="649.49" y2="485.87"/><line class="cls-5" x1="649.49" y1="485.87" x2="650.84" y2="485.87"/><line class="cls-5" x1="650.84" y1="469.48" x2="683.18" y2="469.48"/><line class="cls-5" x1="684.55" y1="468.11" x2="654.96" y2="468.11"/><line class="cls-5" x1="747.4" y1="387.5" x2="747.4" y2="382.03"/><line class="cls-5" x1="709.6" y1="387.5" x2="709.6" y2="382.03"/><line class="cls-5" x1="654.96" y1="387.5" x2="709.6" y2="387.5"/><line class="cls-5" x1="747.4" y1="387.5" x2="774.72" y2="387.5"/><line class="cls-5" x1="780.19" y1="382.03" x2="747.4" y2="382.03"/><line class="cls-5" x1="709.6" y1="382.03" x2="654.96" y2="382.03"/><line class="cls-5" x1="709.6" y1="381.12" x2="711.43" y2="381.12"/><line class="cls-5" x1="711.43" y1="381.12" x2="711.43" y2="387.5"/><line class="cls-5" x1="711.43" y1="387.5" x2="709.6" y2="387.5"/><line class="cls-5" x1="709.6" y1="387.5" x2="709.6" y2="381.12"/><line class="cls-5" x1="747.4" y1="387.5" x2="745.58" y2="387.5"/><line class="cls-5" x1="745.58" y1="387.5" x2="745.58" y2="381.12"/><line class="cls-5" x1="745.58" y1="381.12" x2="747.4" y2="381.12"/><line class="cls-5" x1="747.4" y1="381.12" x2="747.4" y2="387.5"/><line class="cls-5" x1="745.58" y1="387.5" x2="728.73" y2="416.63"/><path class="cls-5" d="M757.07,416.63a33.59,33.59,0,0,1-16.84-29.13" transform="translate(-28.34)"/><line class="cls-5" x1="709.6" y1="387.5" x2="709.6" y2="382.03"/><line class="cls-5" x1="747.4" y1="387.5" x2="747.4" y2="382.03"/><line class="cls-5" x1="594.82" y1="322.82" x2="600.29" y2="322.82"/><line class="cls-5" x1="594.82" y1="361.07" x2="600.29" y2="361.07"/><line class="cls-5" x1="600.29" y1="387.5" x2="600.29" y2="361.07"/><line class="cls-5" x1="600.29" y1="322.82" x2="600.29" y2="316.91"/><line class="cls-5" x1="594.82" y1="311.44" x2="594.82" y2="322.82"/><line class="cls-5" x1="594.82" y1="361.07" x2="594.82" y2="387.5"/><line class="cls-5" x1="601.2" y1="361.07" x2="601.2" y2="358.79"/><line class="cls-5" x1="601.2" y1="358.79" x2="594.82" y2="358.79"/><line class="cls-5" x1="594.82" y1="358.79" x2="594.82" y2="361.07"/><line class="cls-5" x1="594.82" y1="361.07" x2="601.2" y2="361.07"/><line class="cls-5" x1="594.82" y1="322.82" x2="594.82" y2="325.1"/><line class="cls-5" x1="594.82" y1="325.1" x2="601.2" y2="325.1"/><line class="cls-5" x1="601.2" y1="325.1" x2="601.2" y2="322.82"/><line class="cls-5" x1="601.2" y1="322.82" x2="594.82" y2="322.82"/><line class="cls-5" x1="594.82" y1="325.1" x2="565.69" y2="341.96"/><path class="cls-5" d="M594,342a33.64,33.64,0,0,0,29.15,16.83" transform="translate(-28.34)"/><line class="cls-5" x1="594.82" y1="361.07" x2="600.29" y2="361.07"/><line class="cls-5" x1="594.82" y1="322.82" x2="600.29" y2="322.82"/><line class="cls-5" x1="436.35" y1="60.51" x2="548.38" y2="60.51"/><line class="cls-5" x1="548.38" y1="49.58" x2="436.35" y2="49.58"/><line class="cls-5" x1="559.31" y1="5.41" x2="559.31" y2="0.38"/><line class="cls-5" x1="559.31" y1="11.31" x2="559.31" y2="5.41"/><line class="cls-5" x1="613.97" y1="5.41" x2="613.97" y2="0.38"/><line class="cls-5" x1="613.97" y1="11.31" x2="613.97" y2="5.41"/><line class="cls-5" x1="613.97" y1="11.31" x2="644.02" y2="11.31"/><line class="cls-5" x1="654.96" y1="0.38" x2="613.97" y2="0.38"/><line class="cls-5" x1="559.31" y1="0.38" x2="548.38" y2="0.38"/><line class="cls-5" x1="613.97" y1="5.41" x2="611.69" y2="5.41"/><line class="cls-5" x1="611.69" y1="5.41" x2="611.69" y2="9.03"/><line class="cls-5" x1="611.69" y1="9.03" x2="612.6" y2="9.03"/><line class="cls-5" x1="612.6" y1="9.03" x2="612.6" y2="11.31"/><line class="cls-5" x1="612.6" y1="11.31" x2="613.97" y2="11.31"/><line class="cls-5" x1="613.97" y1="11.31" x2="613.97" y2="5.41"/><line class="cls-5" x1="559.31" y1="11.31" x2="561.13" y2="11.31"/><line class="cls-5" x1="561.13" y1="11.31" x2="561.13" y2="9.03"/><line class="cls-5" x1="561.13" y1="9.03" x2="561.58" y2="9.03"/><line class="cls-5" x1="561.58" y1="9.03" x2="561.58" y2="5.41"/><line class="cls-5" x1="561.58" y1="5.41" x2="559.31" y2="5.41"/><line class="cls-5" x1="559.31" y1="5.41" x2="559.31" y2="11.31"/><line class="cls-5" x1="561.13" y1="11.31" x2="586.64" y2="55.95"/><line class="cls-5" x1="586.64" y1="55.95" x2="588.46" y2="55.04"/><line class="cls-5" x1="588.46" y1="55.04" x2="562.95" y2="10.4"/><line class="cls-5" x1="562.95" y1="10.4" x2="561.13" y2="11.31"/><path class="cls-5" d="M616.8,55a51.19,51.19,0,0,0,23.68-43.27" transform="translate(-28.34)"/><line class="cls-5" x1="613.97" y1="11.31" x2="613.97" y2="5.41"/><line class="cls-5" x1="559.31" y1="11.31" x2="559.31" y2="5.41"/><line class="cls-5" x1="747.4" y1="240.4" x2="747.4" y2="147.94"/><line class="cls-5" x1="747.4" y1="147.94" x2="741.93" y2="147.94"/><line class="cls-5" x1="741.93" y1="147.94" x2="741.93" y2="240.4"/><line class="cls-5" x1="548.38" y1="0.38" x2="548.38" y2="49.58"/><line class="cls-5" x1="559.31" y1="60.51" x2="559.31" y2="11.31"/><line class="cls-5" x1="540.63" y1="147.94" x2="559.31" y2="147.94"/><line class="cls-5" x1="553.83" y1="142.49" x2="535.18" y2="142.49"/><line class="cls-5" x1="559.31" y1="147.94" x2="559.31" y2="60.51"/><line class="cls-5" x1="553.83" y1="60.51" x2="553.83" y2="142.49"/><line class="cls-5" x1="644.02" y1="71.43" x2="644.02" y2="147.94"/><line class="cls-5" x1="654.96" y1="137.02" x2="654.96" y2="71.43"/><line class="cls-5" x1="477.34" y1="60.51" x2="477.34" y2="85.11"/><line class="cls-5" x1="483.71" y1="91.47" x2="483.71" y2="60.51"/><line class="cls-5" x1="483.71" y1="60.51" x2="477.34" y2="60.51"/><line class="cls-5" x1="477.34" y1="85.11" x2="450.01" y2="85.11"/><line class="cls-5" x1="443.17" y1="91.47" x2="483.71" y2="91.47"/><line class="cls-5" x1="612.6" y1="513.2" x2="611.23" y2="513.2"/><line class="cls-5" x1="646.3" y1="513.2" x2="644.93" y2="513.2"/><line class="cls-5" x1="535.18" y1="86.46" x2="535.18" y2="60.51"/><line class="cls-5" x1="533.81" y1="60.51" x2="533.81" y2="85.11"/><line class="cls-5" x1="563.86" y1="512.74" x2="542.91" y2="512.74"/><path class="cls-5" d="M683.3,136.11a.43.43,0,0,0,.44.45" transform="translate(-28.34)"/><line class="cls-5" x1="630.82" y1="380.2" x2="630.82" y2="362.9"/><line class="cls-5" x1="631.73" y1="387.5" x2="610.78" y2="387.5"/><line class="cls-5" x1="631.73" y1="387.5" x2="631.73" y2="381.12"/><line class="cls-5" x1="621.26" y1="377.03" x2="613.51" y2="377.03"/><line class="cls-5" x1="630.82" y1="362.9" x2="628.99" y2="377.03"/><line class="cls-5" x1="621.26" y1="377.03" x2="628.99" y2="377.03"/><line class="cls-5" x1="611.69" y1="362.9" x2="613.51" y2="377.03"/><line class="cls-5" x1="630.36" y1="362.9" x2="628.54" y2="377.03"/><line class="cls-5" x1="612.14" y1="362.9" x2="613.97" y2="377.03"/><line class="cls-5" x1="611.69" y1="380.2" x2="611.69" y2="362.9"/><line class="cls-5" x1="610.78" y1="387.5" x2="610.78" y2="381.12"/><path class="cls-5" d="M658.7,380.2a129.27,129.27,0,0,0-18.67,0" transform="translate(-28.34)"/><path class="cls-5" d="M658.7,362.9c0-4.11-4.1-7.73-9.1-7.73s-9.12,3.17-9.12,7.73" transform="translate(-28.34)"/><path class="cls-5" d="M660.07,381.12a1,1,0,0,0-.91-.9" transform="translate(-28.34)"/><path class="cls-5" d="M659.16,362.9c0-4.56-4.11-8.19-9.56-8.19S640,358.34,640,362.9" transform="translate(-28.34)"/><path class="cls-5" d="M640.48,380.2a1,1,0,0,0-.91.92" transform="translate(-28.34)"/><path class="cls-5" d="M648.67,383.39a.92.92,0,0,0,1.83,0,1,1,0,0,0-.91-.89,1,1,0,0,0-.92.89" transform="translate(-28.34)"/><line class="cls-5" x1="662.23" y1="428.49" x2="679.54" y2="428.49"/><line class="cls-5" x1="654.96" y1="428.94" x2="654.96" y2="408.44"/><line class="cls-5" x1="654.96" y1="428.94" x2="661.32" y2="428.94"/><line class="cls-5" x1="665.42" y1="418.91" x2="665.42" y2="411.18"/><line class="cls-5" x1="679.54" y1="428.49" x2="665.42" y2="426.66"/><line class="cls-5" x1="665.42" y1="418.91" x2="665.42" y2="426.66"/><line class="cls-5" x1="679.54" y1="409.36" x2="665.42" y2="411.18"/><line class="cls-5" x1="679.54" y1="428.03" x2="665.42" y2="426.21"/><line class="cls-5" x1="679.54" y1="409.82" x2="665.42" y2="411.64"/><line class="cls-5" x1="662.23" y1="409.36" x2="679.54" y2="409.36"/><line class="cls-5" x1="654.96" y1="408.44" x2="661.32" y2="408.44"/><path class="cls-5" d="M690.58,428a129.27,129.27,0,0,0,0-18.67" transform="translate(-28.34)"/><path class="cls-5" d="M707.88,428c4.1,0,7.75-4.1,7.75-9.12s-3.19-9.09-7.75-9.09" transform="translate(-28.34)"/><path class="cls-5" d="M689.66,428.94a1,1,0,0,0,.92-.91" transform="translate(-28.34)"/><path class="cls-5" d="M707.88,428.49c4.56,0,8.2-4.11,8.2-9.58s-3.64-9.55-8.2-9.55" transform="translate(-28.34)"/><path class="cls-5" d="M691,409.36a1,1,0,0,0-.9-.92" transform="translate(-28.34)"/><path class="cls-5" d="M687.38,419.84a.91.91,0,1,0-.91-.91,1,1,0,0,0,.91.91" transform="translate(-28.34)"/><line class="cls-5" x1="653.12" y1="513.2" x2="677.72" y2="513.2"/><line class="cls-5" x1="669.07" y1="513.2" x2="661.32" y2="513.2"/><line class="cls-5" x1="649.49" y1="412.55" x2="649.49" y2="437.13"/><line class="cls-5" x1="649.49" y1="437.13" x2="637.18" y2="437.13"/><line class="cls-5" x1="649.49" y1="412.55" x2="637.18" y2="412.55"/><line class="cls-5" x1="649.49" y1="428.49" x2="649.49" y2="420.75"/><line class="cls-5" x1="639.46" y1="426.66" x2="639.46" y2="425.29"/><line class="cls-5" x1="641.74" y1="424.84" x2="640.37" y2="424.84"/><line class="cls-5" x1="639.46" y1="423.93" x2="639.46" y2="422.56"/><line class="cls-5" x1="638.55" y1="424.84" x2="637.18" y2="424.84"/><path class="cls-5" d="M671,418a13,13,0,0,0-6.38-4.1" transform="translate(-28.34)"/><path class="cls-5" d="M672.81,424.84a10.37,10.37,0,0,0-1.82-6.36" transform="translate(-28.34)"/><path class="cls-5" d="M664.61,435.32a15.41,15.41,0,0,0,6.38-4.1" transform="translate(-28.34)"/><path class="cls-5" d="M671,431.22a10.43,10.43,0,0,0,1.82-6.38" transform="translate(-28.34)"/><path class="cls-5" d="M657.79,416.2a15,15,0,0,0-2.28,7.27" transform="translate(-28.34)"/><path class="cls-5" d="M659.16,434.41a8.61,8.61,0,0,0,5.92,2.26" transform="translate(-28.34)"/><path class="cls-5" d="M655.51,423.93v1.82" transform="translate(-28.34)"/><path class="cls-5" d="M670.08,431.68a34.52,34.52,0,0,0,0-13.66" transform="translate(-28.34)"/><path class="cls-5" d="M663.26,436.23a20.28,20.28,0,0,0,11.83-3.64" transform="translate(-28.34)"/><path class="cls-5" d="M676.46,431.68a35.66,35.66,0,0,0,.91-6.84" transform="translate(-28.34)"/><path class="cls-5" d="M675.55,432.59c.46-.46.91-.46.91-.91" transform="translate(-28.34)"/><path class="cls-5" d="M675.55,431.68a34.22,34.22,0,0,0,.46-6.84" transform="translate(-28.34)"/><path class="cls-5" d="M663.26,436.23a19.86,19.86,0,0,0,11.38-3.64" transform="translate(-28.34)"/><path class="cls-5" d="M674.64,433c.45-.45.91-.91.91-1.36" transform="translate(-28.34)"/><path class="cls-5" d="M674.64,416.63a20.07,20.07,0,0,0-11.4-3.63" transform="translate(-28.34)"/><path class="cls-5" d="M675.55,416.63A21.54,21.54,0,0,0,663.71,413" transform="translate(-28.34)"/><path class="cls-5" d="M676,424.84a34,34,0,0,0-.46-6.82" transform="translate(-28.34)"/><path class="cls-5" d="M677.37,424.84a35.46,35.46,0,0,0-.91-6.82" transform="translate(-28.34)"/><path class="cls-5" d="M675.55,417.56c0-.45-.46-.91-.91-1.36" transform="translate(-28.34)"/><path class="cls-5" d="M676.46,417.56a1,1,0,0,0-.91-.91" transform="translate(-28.34)"/><path class="cls-5" d="M665.52,412.55a10.85,10.85,0,0,0-6.36,2.28" transform="translate(-28.34)"/><path class="cls-5" d="M659.16,414.83a6,6,0,0,0-1.37,1.8" transform="translate(-28.34)"/><path class="cls-5" d="M657.79,433a6.81,6.81,0,0,1,1.37,1.83" transform="translate(-28.34)"/><path class="cls-5" d="M655.51,425.29a13.76,13.76,0,0,0,2.28,7.3" transform="translate(-28.34)"/><path class="cls-5" d="M657.79,421.19a17.12,17.12,0,0,0,0,6.84" transform="translate(-28.34)"/><path class="cls-5" d="M664.61,413.92a5.21,5.21,0,0,0-3.65,1.36" transform="translate(-28.34)"/><path class="cls-5" d="M661,415.28a12.78,12.78,0,0,0-3.19,5.93" transform="translate(-28.34)"/><path class="cls-5" d="M661,434a5.18,5.18,0,0,0,3.65,1.36" transform="translate(-28.34)"/><path class="cls-5" d="M657.79,428A12.62,12.62,0,0,0,661,434" transform="translate(-28.34)"/><path class="cls-5" d="M666,424.84c0,.91.91,1.37,1.82,1.37a2,2,0,0,0,1.84-1.37c0-.91-.91-1.37-1.84-1.37-.91-.45-1.82.46-1.82,1.37" transform="translate(-28.34)"/><path class="cls-5" d="M666.43,424.84c0,.45.46.91,1.37.91s1.38-.46,1.38-.91a1.45,1.45,0,0,0-1.38-1.37,1.21,1.21,0,0,0-1.37,1.37" transform="translate(-28.34)"/><line class="cls-5" x1="649.49" y1="316.91" x2="649.49" y2="341.05"/><line class="cls-5" x1="649.49" y1="341.05" x2="637.18" y2="341.05"/><line class="cls-5" x1="649.49" y1="316.91" x2="637.18" y2="316.91"/><line class="cls-5" x1="649.49" y1="332.85" x2="649.49" y2="325.1"/><line class="cls-5" x1="639.46" y1="331.02" x2="639.46" y2="329.66"/><line class="cls-5" x1="641.74" y1="329.2" x2="640.37" y2="329.2"/><line class="cls-5" x1="639.46" y1="328.29" x2="639.46" y2="326.92"/><line class="cls-5" x1="638.55" y1="329.2" x2="637.18" y2="329.2"/><path class="cls-5" d="M671,322.36a13.07,13.07,0,0,0-6.38-4.08" transform="translate(-28.34)"/><path class="cls-5" d="M672.81,329.2a10.43,10.43,0,0,0-1.82-6.38" transform="translate(-28.34)"/><path class="cls-5" d="M664.61,339.68a15.31,15.31,0,0,0,6.38-4.1" transform="translate(-28.34)"/><path class="cls-5" d="M671,335.58a10.43,10.43,0,0,0,1.82-6.38" transform="translate(-28.34)"/><path class="cls-5" d="M657.79,320.56a15,15,0,0,0-2.28,7.28" transform="translate(-28.34)"/><path class="cls-5" d="M659.16,338.77a8.62,8.62,0,0,0,5.92,2.28" transform="translate(-28.34)"/><path class="cls-5" d="M655.51,328.29v1.83" transform="translate(-28.34)"/><path class="cls-5" d="M670.08,336a34.62,34.62,0,0,0,0-13.68" transform="translate(-28.34)"/><path class="cls-5" d="M663.26,340.58a20.28,20.28,0,0,0,11.83-3.65" transform="translate(-28.34)"/><path class="cls-5" d="M676.46,336a35.66,35.66,0,0,0,.91-6.84" transform="translate(-28.34)"/><path class="cls-5" d="M675.55,337c.46-.45.91-.45.91-.91" transform="translate(-28.34)"/><path class="cls-5" d="M675.55,336a34.22,34.22,0,0,0,.46-6.84" transform="translate(-28.34)"/><path class="cls-5" d="M663.26,340.58a19.87,19.87,0,0,0,11.38-3.65" transform="translate(-28.34)"/><path class="cls-5" d="M674.64,337c.45-.45.91-.91.91-1.37" transform="translate(-28.34)"/><path class="cls-5" d="M674.64,321a19.94,19.94,0,0,0-11.4-3.66" transform="translate(-28.34)"/><path class="cls-5" d="M675.55,321a21.4,21.4,0,0,0-11.84-3.66" transform="translate(-28.34)"/><path class="cls-5" d="M676,329.2a34.22,34.22,0,0,0-.46-6.84" transform="translate(-28.34)"/><path class="cls-5" d="M677.37,329.2a35.66,35.66,0,0,0-.91-6.84" transform="translate(-28.34)"/><path class="cls-5" d="M675.55,321.93c0-.46-.46-.92-.91-1.39" transform="translate(-28.34)"/><path class="cls-5" d="M676.46,321.93a1,1,0,0,0-.91-.92" transform="translate(-28.34)"/><path class="cls-5" d="M665.52,316.91a10.78,10.78,0,0,0-6.36,2.28" transform="translate(-28.34)"/><path class="cls-5" d="M659.16,319.19a6.08,6.08,0,0,0-1.37,1.82" transform="translate(-28.34)"/><path class="cls-5" d="M657.79,337.41a6.15,6.15,0,0,1,1.37,1.82" transform="translate(-28.34)"/><path class="cls-5" d="M655.51,329.66a13.76,13.76,0,0,0,2.28,7.29" transform="translate(-28.34)"/><path class="cls-5" d="M657.79,325.56a17.07,17.07,0,0,0,0,6.83" transform="translate(-28.34)"/><path class="cls-5" d="M664.61,318.28a5.18,5.18,0,0,0-3.65,1.37" transform="translate(-28.34)"/><path class="cls-5" d="M661,319.65a12.68,12.68,0,0,0-3.19,5.91" transform="translate(-28.34)"/><path class="cls-5" d="M661,338.3a5.19,5.19,0,0,0,3.65,1.38" transform="translate(-28.34)"/><path class="cls-5" d="M657.79,332.39a12.62,12.62,0,0,0,3.17,5.93" transform="translate(-28.34)"/><path class="cls-5" d="M666,329.2c0,.92.91,1.37,1.82,1.37a2,2,0,0,0,1.84-1.37c0-.91-.91-1.36-1.84-1.36-.91-.46-1.82.45-1.82,1.36" transform="translate(-28.34)"/><path class="cls-5" d="M666.43,329.2a1.46,1.46,0,0,0,1.37,1.37,1.21,1.21,0,0,0,1.38-1.37c0-.46-.45-.91-1.38-.91-.91-.45-1.37,0-1.37.91" transform="translate(-28.34)"/><line class="cls-5" x1="774.72" y1="404.34" x2="774.72" y2="428.94"/><line class="cls-5" x1="774.72" y1="428.94" x2="762.43" y2="428.94"/><line class="cls-5" x1="774.72" y1="404.34" x2="762.43" y2="404.34"/><line class="cls-5" x1="774.72" y1="420.75" x2="774.72" y2="413"/><line class="cls-5" x1="764.71" y1="418.91" x2="764.71" y2="417.56"/><line class="cls-5" x1="767.44" y1="416.63" x2="765.62" y2="416.63"/><line class="cls-5" x1="764.71" y1="415.74" x2="764.71" y2="414.83"/><line class="cls-5" x1="763.8" y1="416.63" x2="762.43" y2="416.63"/><path class="cls-5" d="M796.24,410.27a12.94,12.94,0,0,0-6.38-4.1" transform="translate(-28.34)"/><path class="cls-5" d="M798.06,416.63a10.41,10.41,0,0,0-1.82-6.36" transform="translate(-28.34)"/><path class="cls-5" d="M789.86,427.57a15.47,15.47,0,0,0,6.38-4.1" transform="translate(-28.34)"/><path class="cls-5" d="M796.24,423a8.17,8.17,0,0,0,1.82-6.39" transform="translate(-28.34)"/><path class="cls-5" d="M783.48,408.44a15.13,15.13,0,0,0-2.28,7.3" transform="translate(-28.34)"/><path class="cls-5" d="M784.4,426.66a9,9,0,0,0,6.37,2.28" transform="translate(-28.34)"/><path class="cls-5" d="M780.74,415.74v1.82" transform="translate(-28.34)"/><path class="cls-5" d="M795.78,423.47a34.1,34.1,0,0,0,0-13.65" transform="translate(-28.34)"/><path class="cls-5" d="M789,428.49a20.22,20.22,0,0,0,11.83-3.65" transform="translate(-28.34)"/><path class="cls-5" d="M801.69,423.93a34.91,34.91,0,0,0,.92-6.84" transform="translate(-28.34)"/><path class="cls-5" d="M800.78,424.84c.45-.46.91-.46.91-.91" transform="translate(-28.34)"/><path class="cls-5" d="M800.78,423.47a35,35,0,0,0,.45-6.84" transform="translate(-28.34)"/><path class="cls-5" d="M789,428.49a19.87,19.87,0,0,0,11.38-3.65" transform="translate(-28.34)"/><path class="cls-5" d="M799.88,424.84c.45-.46.9-.91.9-1.37" transform="translate(-28.34)"/><path class="cls-5" d="M799.88,408.44a20,20,0,0,0-11.39-3.64" transform="translate(-28.34)"/><path class="cls-5" d="M800.78,408.44A21.36,21.36,0,0,0,789,404.8" transform="translate(-28.34)"/><path class="cls-5" d="M801.23,416.63a34.71,34.71,0,0,0-.45-6.81" transform="translate(-28.34)"/><path class="cls-5" d="M802.61,416.63a35.44,35.44,0,0,0-.9-6.81" transform="translate(-28.34)"/><path class="cls-5" d="M800.78,409.82c0-.46-.45-.92-.9-1.38" transform="translate(-28.34)"/><path class="cls-5" d="M801.69,409.82a1,1,0,0,0-.91-.92" transform="translate(-28.34)"/><path class="cls-5" d="M790.77,404.34a10.87,10.87,0,0,0-6.37,2.28" transform="translate(-28.34)"/><path class="cls-5" d="M784.4,406.62a6.91,6.91,0,0,0-1.38,1.82" transform="translate(-28.34)"/><path class="cls-5" d="M783.48,424.84a6.21,6.21,0,0,1,1.36,1.82" transform="translate(-28.34)"/><path class="cls-5" d="M780.74,417.56a13.7,13.7,0,0,0,2.28,7.28" transform="translate(-28.34)"/><path class="cls-5" d="M783,413.46a17.5,17.5,0,0,0,0,6.84" transform="translate(-28.34)"/><path class="cls-5" d="M789.86,406.17a5.11,5.11,0,0,0-3.65,1.38" transform="translate(-28.34)"/><path class="cls-5" d="M786.21,407.08A12.7,12.7,0,0,0,783,413" transform="translate(-28.34)"/><path class="cls-5" d="M786.21,426.21a5.18,5.18,0,0,0,3.65,1.36" transform="translate(-28.34)"/><path class="cls-5" d="M783,419.84a12.4,12.4,0,0,0,3.19,5.91" transform="translate(-28.34)"/><path class="cls-5" d="M791.23,416.63c0,.92.91,1.39,1.82,1.39a2,2,0,0,0,1.82-1.39c0-.89-.91-1.36-1.82-1.36s-1.82.47-1.82,1.36" transform="translate(-28.34)"/><path class="cls-5" d="M791.68,416.63c0,.46.46.92,1.37.92s1.37-.46,1.37-.92a1.47,1.47,0,0,0-1.37-1.36c-.46.47-1.37.93-1.37,1.36" transform="translate(-28.34)"/><line class="cls-5" x1="262.38" y1="420.75" x2="208.63" y2="420.75"/><line class="cls-5" x1="218.66" y1="431.22" x2="262.38" y2="431.22"/><line class="cls-5" x1="262.38" y1="431.22" x2="262.38" y2="420.75"/><line class="cls-5" x1="208.63" y1="420.75" x2="208.63" y2="488.6"/><line class="cls-5" x1="208.63" y1="488.6" x2="218.66" y2="488.6"/><line class="cls-5" x1="218.66" y1="488.6" x2="218.66" y2="431.22"/><line class="cls-5" x1="1225.15" y1="132" x2="1225.15" y2="487.69"/><line class="cls-5" x1="1225.15" y1="487.69" x2="1093.97" y2="487.69"/><line class="cls-5" x1="1093.97" y1="487.69" x2="1093.97" y2="503.63"/><line class="cls-5" x1="1093.97" y1="132" x2="1225.15" y2="132"/><line class="cls-5" x1="40.59" y1="506.36" x2="185.85" y2="506.36"/><line class="cls-5" x1="172.65" y1="506.36" x2="172.65" y2="490.42"/><line class="cls-5" x1="172.65" y1="490.42" x2="56.52" y2="490.42"/><line class="cls-5" x1="56.52" y1="490.42" x2="56.52" y2="251.78"/><line class="cls-5" x1="56.52" y1="251.78" x2="40.59" y2="251.78"/><line class="cls-5" x1="40.59" y1="251.78" x2="40.59" y2="506.36"/><rect class="cls-5" x="1221.96" y="131.55" width="2.26" height="90.19"/><rect class="cls-5" x="1221.96" y="131.55" width="2.26" height="90.19"/><line class="cls-5" x1="1221.96" y1="221.27" x2="1224.22" y2="221.27"/><line class="cls-5" x1="1224.22" y1="221.27" x2="1224.22" y2="131.55"/><line class="cls-5" x1="1224.22" y1="131.55" x2="1221.96" y2="131.55"/><line class="cls-5" x1="1221.96" y1="131.55" x2="1221.96" y2="221.27"/><line class="cls-5" x1="1222.87" y1="221.27" x2="1222.87" y2="131.55"/><rect class="cls-5" x="1221.96" y="221.27" width="2.26" height="65.57"/><rect class="cls-5" x="1221.96" y="221.27" width="2.26" height="65.57"/><line class="cls-5" x1="1221.96" y1="286.85" x2="1224.22" y2="286.85"/><line class="cls-5" x1="1224.22" y1="286.85" x2="1224.22" y2="221.27"/><line class="cls-5" x1="1224.22" y1="221.27" x2="1221.96" y2="221.27"/><line class="cls-5" x1="1221.96" y1="221.27" x2="1221.96" y2="286.85"/><line class="cls-5" x1="1222.87" y1="286.85" x2="1222.87" y2="221.27"/><rect class="cls-5" x="1221.96" y="286.85" width="2.26" height="65.59"/><rect class="cls-5" x="1221.96" y="286.85" width="2.26" height="65.59"/><line class="cls-5" x1="1221.96" y1="351.98" x2="1224.22" y2="351.98"/><line class="cls-5" x1="1224.22" y1="351.98" x2="1224.22" y2="286.85"/><line class="cls-5" x1="1224.22" y1="286.85" x2="1221.96" y2="286.85"/><line class="cls-5" x1="1221.96" y1="286.85" x2="1221.96" y2="351.98"/><line class="cls-5" x1="1222.87" y1="351.98" x2="1222.87" y2="286.85"/><rect class="cls-5" x="1221.96" y="351.98" width="2.26" height="65.57"/><rect class="cls-5" x="1221.96" y="351.98" width="2.26" height="65.57"/><line class="cls-5" x1="1221.96" y1="417.56" x2="1224.22" y2="417.56"/><line class="cls-5" x1="1224.22" y1="417.56" x2="1224.22" y2="351.98"/><line class="cls-5" x1="1224.22" y1="351.98" x2="1221.96" y2="351.98"/><line class="cls-5" x1="1221.96" y1="351.98" x2="1221.96" y2="417.56"/><line class="cls-5" x1="1222.87" y1="417.56" x2="1222.87" y2="351.98"/><rect class="cls-5" x="1221.96" y="417.56" width="2.26" height="69.22"/><rect class="cls-5" x="1221.96" y="417.56" width="2.26" height="69.22"/><line class="cls-5" x1="1221.96" y1="486.78" x2="1224.22" y2="486.78"/><line class="cls-5" x1="1224.22" y1="486.78" x2="1224.22" y2="417.56"/><line class="cls-5" x1="1224.22" y1="417.56" x2="1221.96" y2="417.56"/><line class="cls-5" x1="1221.96" y1="417.56" x2="1221.96" y2="486.78"/><line class="cls-5" x1="1222.87" y1="486.78" x2="1222.87" y2="417.56"/><rect class="cls-5" x="1093.54" y="484.5" width="129.33" height="2.28"/><rect class="cls-5" x="1093.54" y="484.5" width="129.33" height="2.28"/><line class="cls-5" x1="1222.87" y1="484.5" x2="1222.87" y2="486.78"/><line class="cls-5" x1="1222.87" y1="486.78" x2="1093.97" y2="486.78"/><line class="cls-5" x1="1093.97" y1="486.78" x2="1093.97" y2="484.5"/><line class="cls-5" x1="1093.97" y1="484.5" x2="1222.87" y2="484.5"/><line class="cls-5" x1="1222.87" y1="485.87" x2="1093.97" y2="485.87"/><rect class="cls-5" x="57.43" y="437.59" width="2.28" height="51.93"/><rect class="cls-5" x="57.43" y="437.59" width="2.28" height="51.93"/><line class="cls-5" x1="59.71" y1="437.59" x2="57.43" y2="437.59"/><line class="cls-5" x1="57.43" y1="437.59" x2="57.43" y2="489.52"/><line class="cls-5" x1="57.43" y1="489.52" x2="59.71" y2="489.52"/><line class="cls-5" x1="59.71" y1="489.52" x2="59.71" y2="437.59"/><line class="cls-5" x1="58.35" y1="437.59" x2="58.35" y2="489.52"/><rect class="cls-5" x="59.26" y="487.24" width="65.57" height="2.28"/><rect class="cls-5" x="59.26" y="487.24" width="65.57" height="2.28"/><line class="cls-5" x1="124.83" y1="489.52" x2="124.83" y2="487.24"/><line class="cls-5" x1="124.83" y1="487.24" x2="59.71" y2="487.24"/><line class="cls-5" x1="59.71" y1="487.24" x2="59.71" y2="489.52"/><line class="cls-5" x1="59.71" y1="489.52" x2="124.83" y2="489.52"/><line class="cls-5" x1="124.83" y1="488.6" x2="59.71" y2="488.6"/><rect class="cls-5" x="125.29" y="487.24" width="46.46" height="2.28"/><rect class="cls-5" x="125.29" y="487.24" width="46.46" height="2.28"/><line class="cls-5" x1="171.74" y1="489.52" x2="171.74" y2="487.24"/><line class="cls-5" x1="171.74" y1="487.24" x2="124.83" y2="487.24"/><line class="cls-5" x1="124.83" y1="487.24" x2="124.83" y2="489.52"/><line class="cls-5" x1="124.83" y1="489.52" x2="171.74" y2="489.52"/><line class="cls-5" x1="171.74" y1="488.6" x2="124.83" y2="488.6"/><rect class="cls-5" x="57.43" y="372.47" width="2.28" height="65.57"/><rect class="cls-5" x="57.43" y="372.47" width="2.28" height="65.57"/><line class="cls-5" x1="59.71" y1="372.47" x2="57.43" y2="372.47"/><line class="cls-5" x1="57.43" y1="372.47" x2="57.43" y2="437.59"/><line class="cls-5" x1="57.43" y1="437.59" x2="59.71" y2="437.59"/><line class="cls-5" x1="59.71" y1="437.59" x2="59.71" y2="372.47"/><line class="cls-5" x1="58.35" y1="372.47" x2="58.35" y2="437.59"/><rect class="cls-5" x="57.43" y="306.88" width="2.28" height="65.59"/><rect class="cls-5" x="57.43" y="306.88" width="2.28" height="65.59"/><line class="cls-5" x1="59.71" y1="306.88" x2="57.43" y2="306.88"/><line class="cls-5" x1="57.43" y1="306.88" x2="57.43" y2="372.47"/><line class="cls-5" x1="57.43" y1="372.47" x2="59.71" y2="372.47"/><line class="cls-5" x1="59.71" y1="372.47" x2="59.71" y2="306.88"/><line class="cls-5" x1="58.35" y1="306.88" x2="58.35" y2="372.47"/><rect class="cls-5" x="57.43" y="251.78" width="2.28" height="55.1"/><rect class="cls-5" x="57.43" y="251.78" width="2.28" height="55.1"/><line class="cls-5" x1="59.71" y1="251.78" x2="57.43" y2="251.78"/><line class="cls-5" x1="57.43" y1="251.78" x2="57.43" y2="306.88"/><line class="cls-5" x1="57.43" y1="306.88" x2="59.71" y2="306.88"/><line class="cls-5" x1="59.71" y1="306.88" x2="59.71" y2="251.78"/><line class="cls-5" x1="58.35" y1="251.78" x2="58.35" y2="306.88"/><line class="cls-5" x1="1096.71" y1="325.56" x2="1096.71" y2="346.05"/><line class="cls-5" x1="1097.62" y1="325.56" x2="1097.62" y2="346.05"/><line class="cls-5" x1="1096.71" y1="325.56" x2="1097.62" y2="325.56"/><line class="cls-5" x1="1096.71" y1="346.05" x2="1097.62" y2="346.05"/><line class="cls-5" x1="1093.97" y1="348.78" x2="1093.97" y2="346.05"/><line class="cls-5" x1="1093.97" y1="325.56" x2="1093.97" y2="322.82"/><line class="cls-5" x1="1093.97" y1="325.56" x2="1093.97" y2="346.05"/><line class="cls-5" x1="1098.08" y1="348.78" x2="1098.08" y2="346.05"/><line class="cls-5" x1="1098.08" y1="325.56" x2="1098.08" y2="322.82"/><line class="cls-5" x1="1098.08" y1="325.56" x2="1098.08" y2="346.05"/><line class="cls-5" x1="1093.97" y1="322.82" x2="1098.08" y2="322.82"/><line class="cls-5" x1="1093.97" y1="348.78" x2="1098.08" y2="348.78"/><line class="cls-5" x1="1093.97" y1="325.56" x2="1096.71" y2="325.56"/><line class="cls-5" x1="1097.62" y1="325.56" x2="1098.08" y2="325.56"/><line class="cls-5" x1="1093.97" y1="346.05" x2="1096.71" y2="346.05"/><line class="cls-5" x1="1097.62" y1="346.05" x2="1098.08" y2="346.05"/><line class="cls-5" x1="1096.71" y1="455.82" x2="1096.71" y2="476.31"/><line class="cls-5" x1="1097.62" y1="455.82" x2="1097.62" y2="476.31"/><line class="cls-5" x1="1096.71" y1="455.82" x2="1097.62" y2="455.82"/><line class="cls-5" x1="1096.71" y1="476.31" x2="1097.62" y2="476.31"/><line class="cls-5" x1="1093.97" y1="479.05" x2="1093.97" y2="476.31"/><line class="cls-5" x1="1093.97" y1="455.82" x2="1093.97" y2="453.08"/><line class="cls-5" x1="1093.97" y1="455.82" x2="1093.97" y2="476.31"/><line class="cls-5" x1="1098.08" y1="479.05" x2="1098.08" y2="476.31"/><line class="cls-5" x1="1098.08" y1="455.82" x2="1098.08" y2="453.08"/><line class="cls-5" x1="1098.08" y1="455.82" x2="1098.08" y2="476.31"/><line class="cls-5" x1="1093.97" y1="453.08" x2="1098.08" y2="453.08"/><line class="cls-5" x1="1093.97" y1="479.05" x2="1098.08" y2="479.05"/><line class="cls-5" x1="1093.97" y1="455.82" x2="1096.71" y2="455.82"/><line class="cls-5" x1="1097.62" y1="455.82" x2="1098.08" y2="455.82"/><line class="cls-5" x1="1093.97" y1="476.31" x2="1096.71" y2="476.31"/><line class="cls-5" x1="1097.62" y1="476.31" x2="1098.08" y2="476.31"/><polyline class="cls-5" points="237.78 431.22 218.66 431.22 218.66 488.6"/><line class="cls-5" x1="40.59" y1="147.94" x2="40.59" y2="142.49"/><line class="cls-5" x1="40.59" y1="152.95" x2="40.59" y2="147.94"/><line class="cls-5" x1="51.96" y1="142.49" x2="40.59" y2="142.49"/><line class="cls-5" x1="42.86" y1="162.07" x2="51.96" y2="162.07"/><line class="cls-5" x1="40.59" y1="147.94" x2="40.59" y2="152.95"/><line class="cls-5" x1="40.59" y1="152.95" x2="40.59" y2="147.94"/><line class="cls-5" x1="196.79" y1="142.49" x2="51.96" y2="142.49"/><line class="cls-5" x1="51.96" y1="162.07" x2="61.08" y2="162.07"/><line class="cls-5" x1="64.71" y1="162.07" x2="177.21" y2="162.07"/><line class="cls-5" x1="185.85" y1="162.07" x2="196.79" y2="162.07"/><line class="cls-5" x1="196.79" y1="152.95" x2="196.79" y2="152.95"/><line class="cls-5" x1="196.79" y1="152.95" x2="196.79" y2="161.16"/><line class="cls-5" x1="196.79" y1="161.16" x2="196.79" y2="162.07"/><line class="cls-5" x1="254.63" y1="464" x2="262.38" y2="464"/><line class="cls-5" x1="243.24" y1="461.29" x2="251.44" y2="461.29"/><line class="cls-5" x1="239.13" y1="461.29" x2="243.24" y2="461.29"/><line class="cls-5" x1="237.78" y1="461.29" x2="239.13" y2="461.29"/><line class="cls-5" x1="251.44" y1="461.29" x2="251.44" y2="464"/><line class="cls-5" x1="251.44" y1="464" x2="254.63" y2="464"/><line class="cls-5" x1="254.63" y1="354.26" x2="262.38" y2="354.26"/><line class="cls-5" x1="243.24" y1="356.99" x2="251.44" y2="356.99"/><line class="cls-5" x1="239.13" y1="356.99" x2="243.24" y2="356.99"/><line class="cls-5" x1="237.78" y1="356.99" x2="239.13" y2="356.99"/><line class="cls-5" x1="251.44" y1="356.99" x2="251.44" y2="354.26"/><line class="cls-5" x1="251.44" y1="354.26" x2="254.63" y2="354.26"/><line class="cls-5" x1="262.38" y1="485.87" x2="262.38" y2="464"/><line class="cls-5" x1="262.38" y1="354.26" x2="262.38" y2="311.44"/><line class="cls-5" x1="237.78" y1="336.04" x2="237.78" y2="356.99"/><line class="cls-5" x1="237.78" y1="461.29" x2="237.78" y2="496.81"/><line class="cls-5" x1="262.38" y1="496.81" x2="251.44" y2="496.81"/><line class="cls-5" x1="251.44" y1="496.81" x2="243.24" y2="496.81"/><line class="cls-5" x1="243.24" y1="496.81" x2="239.13" y2="496.81"/><line class="cls-5" x1="239.13" y1="496.81" x2="237.78" y2="496.81"/><rect class="cls-5" x="234.6" y="331.02" width="2.73" height="25.96"/><rect class="cls-5" x="234.6" y="331.02" width="2.73" height="25.96"/><rect class="cls-5" x="234.6" y="331.02" width="2.73" height="25.96"/><line class="cls-5" x1="237.33" y1="331.02" x2="234.6" y2="331.02"/><line class="cls-5" x1="234.6" y1="331.02" x2="234.6" y2="356.99"/><line class="cls-5" x1="234.6" y1="356.99" x2="237.33" y2="356.99"/><line class="cls-5" x1="237.33" y1="356.99" x2="237.33" y2="331.02"/><rect class="cls-5" x="231.86" y="331.02" width="2.73" height="25.96"/><rect class="cls-5" x="231.86" y="331.02" width="2.73" height="25.96"/><rect class="cls-5" x="231.86" y="331.02" width="2.73" height="25.96"/><line class="cls-5" x1="234.6" y1="331.02" x2="231.86" y2="331.02"/><line class="cls-5" x1="231.86" y1="331.02" x2="231.86" y2="356.99"/><line class="cls-5" x1="231.86" y1="356.99" x2="234.6" y2="356.99"/><line class="cls-5" x1="234.6" y1="356.99" x2="234.6" y2="331.02"/><rect class="cls-5" x="234.6" y="461.29" width="2.73" height="25.95"/><rect class="cls-5" x="234.6" y="461.29" width="2.73" height="25.95"/><rect class="cls-5" x="234.6" y="461.29" width="2.73" height="25.95"/><line class="cls-5" x1="237.33" y1="461.29" x2="234.6" y2="461.29"/><line class="cls-5" x1="234.6" y1="461.29" x2="234.6" y2="487.24"/><line class="cls-5" x1="234.6" y1="487.24" x2="237.33" y2="487.24"/><line class="cls-5" x1="237.33" y1="487.24" x2="237.33" y2="461.29"/><rect class="cls-5" x="231.86" y="461.29" width="2.73" height="25.95"/><rect class="cls-5" x="231.86" y="461.29" width="2.73" height="25.95"/><rect class="cls-5" x="231.86" y="461.29" width="2.73" height="25.95"/><line class="cls-5" x1="234.6" y1="461.29" x2="231.86" y2="461.29"/><line class="cls-5" x1="231.86" y1="461.29" x2="231.86" y2="487.24"/><line class="cls-5" x1="231.86" y1="487.24" x2="234.6" y2="487.24"/><line class="cls-5" x1="234.6" y1="487.24" x2="234.6" y2="461.29"/><line class="cls-5" x1="237.78" y1="356.99" x2="237.78" y2="461.29"/><line class="cls-5" x1="262.38" y1="354.26" x2="262.38" y2="464"/><line class="cls-5" x1="254.63" y1="354.26" x2="254.63" y2="357.44"/><line class="cls-5" x1="254.63" y1="357.44" x2="253.72" y2="357.44"/><line class="cls-5" x1="253.72" y1="357.44" x2="253.72" y2="359.25"/><line class="cls-5" x1="253.72" y1="359.25" x2="251.44" y2="359.25"/><line class="cls-5" x1="251.44" y1="359.25" x2="251.44" y2="354.26"/><line class="cls-5" x1="251.44" y1="409.36" x2="251.44" y2="359.25"/><line class="cls-5" x1="256.91" y1="361.53" x2="256.91" y2="405.26"/><line class="cls-5" x1="253.72" y1="361.53" x2="253.72" y2="405.26"/><line class="cls-5" x1="256.91" y1="361.53" x2="256.91" y2="405.26"/><line class="cls-5" x1="255.09" y1="361.53" x2="255.09" y2="405.26"/><line class="cls-5" x1="256.91" y1="357.44" x2="256.91" y2="361.53"/><line class="cls-5" x1="256.91" y1="361.53" x2="253.72" y2="361.53"/><line class="cls-5" x1="253.72" y1="361.53" x2="253.72" y2="357.44"/><line class="cls-5" x1="253.72" y1="357.44" x2="256.91" y2="357.44"/><line class="cls-5" x1="253.72" y1="409.36" x2="253.72" y2="405.26"/><line class="cls-5" x1="253.72" y1="405.26" x2="256.91" y2="405.26"/><line class="cls-5" x1="256.91" y1="405.26" x2="256.91" y2="409.36"/><line class="cls-5" x1="256.91" y1="409.36" x2="253.72" y2="409.36"/><line class="cls-5" x1="251.44" y1="355.62" x2="254.63" y2="355.62"/><line class="cls-5" x1="251.44" y1="464" x2="251.44" y2="459.45"/><line class="cls-5" x1="251.44" y1="459.45" x2="253.72" y2="459.45"/><line class="cls-5" x1="253.72" y1="459.45" x2="253.72" y2="460.82"/><line class="cls-5" x1="253.72" y1="460.82" x2="254.63" y2="460.82"/><line class="cls-5" x1="254.63" y1="460.82" x2="254.63" y2="464"/><line class="cls-5" x1="251.44" y1="459.45" x2="251.44" y2="409.36"/><line class="cls-5" x1="256.91" y1="413.46" x2="256.91" y2="456.73"/><line class="cls-5" x1="253.72" y1="413.46" x2="253.72" y2="456.73"/><line class="cls-5" x1="256.91" y1="413.46" x2="256.91" y2="456.73"/><line class="cls-5" x1="255.09" y1="413.46" x2="255.09" y2="456.73"/><line class="cls-5" x1="256.91" y1="409.36" x2="256.91" y2="413.46"/><line class="cls-5" x1="256.91" y1="413.46" x2="253.72" y2="413.46"/><line class="cls-5" x1="253.72" y1="413.46" x2="253.72" y2="409.36"/><line class="cls-5" x1="253.72" y1="409.36" x2="256.91" y2="409.36"/><line class="cls-5" x1="253.72" y1="460.82" x2="253.72" y2="456.73"/><line class="cls-5" x1="253.72" y1="456.73" x2="256.91" y2="456.73"/><line class="cls-5" x1="256.91" y1="456.73" x2="256.91" y2="460.82"/><line class="cls-5" x1="256.91" y1="460.82" x2="253.72" y2="460.82"/><line class="cls-5" x1="251.44" y1="462.64" x2="254.63" y2="462.64"/><line class="cls-5" x1="251.44" y1="354.26" x2="254.63" y2="354.26"/><line class="cls-5" x1="251.44" y1="356.99" x2="251.44" y2="354.26"/><line class="cls-5" x1="251.44" y1="464" x2="254.63" y2="464"/><line class="cls-5" x1="251.44" y1="461.29" x2="251.44" y2="464"/><line class="cls-5" x1="1069.38" y1="502.26" x2="1080.32" y2="502.26"/><line class="cls-5" x1="1080.32" y1="502.26" x2="1088.52" y2="502.26"/><line class="cls-5" x1="1088.52" y1="502.26" x2="1092.61" y2="502.26"/><line class="cls-5" x1="1092.61" y1="502.26" x2="1093.97" y2="502.26"/><line class="cls-5" x1="196.79" y1="513.2" x2="237.78" y2="513.2"/><line class="cls-5" x1="237.78" y1="502.26" x2="237.78" y2="502.26"/><line class="cls-5" x1="237.78" y1="502.26" x2="237.78" y2="494.07"/><line class="cls-5" x1="237.78" y1="494.07" x2="237.78" y2="489.52"/><line class="cls-5" x1="237.78" y1="489.52" x2="237.78" y2="488.6"/><line class="cls-5" x1="237.78" y1="488.6" x2="172.65" y2="488.6"/><line class="cls-5" x1="1076.67" y1="267.72" x2="1069.38" y2="267.72"/><line class="cls-5" x1="1088.52" y1="264.98" x2="1080.32" y2="264.98"/><line class="cls-5" x1="1092.61" y1="264.98" x2="1088.52" y2="264.98"/><line class="cls-5" x1="1093.97" y1="264.98" x2="1092.61" y2="264.98"/><line class="cls-5" x1="1080.32" y1="264.98" x2="1080.32" y2="267.72"/><line class="cls-5" x1="1080.32" y1="267.72" x2="1076.67" y2="267.72"/><line class="cls-5" x1="1076.67" y1="157.95" x2="1069.38" y2="157.95"/><line class="cls-5" x1="1088.52" y1="160.7" x2="1080.32" y2="160.7"/><line class="cls-5" x1="1092.61" y1="160.7" x2="1088.52" y2="160.7"/><line class="cls-5" x1="1093.97" y1="160.7" x2="1092.61" y2="160.7"/><line class="cls-5" x1="1080.32" y1="160.7" x2="1080.32" y2="157.95"/><line class="cls-5" x1="1080.32" y1="157.95" x2="1076.67" y2="157.95"/><line class="cls-5" x1="1076.22" y1="455.82" x2="1069.38" y2="455.82"/><line class="cls-5" x1="1080.32" y1="453.08" x2="1079.41" y2="453.08"/><line class="cls-5" x1="1088.52" y1="453.08" x2="1080.32" y2="453.08"/><line class="cls-5" x1="1092.61" y1="453.08" x2="1088.52" y2="453.08"/><line class="cls-5" x1="1093.97" y1="453.08" x2="1092.61" y2="453.08"/><line class="cls-5" x1="1079.41" y1="453.08" x2="1079.41" y2="455.82"/><line class="cls-5" x1="1079.41" y1="455.82" x2="1076.22" y2="455.82"/><line class="cls-5" x1="1076.22" y1="346.05" x2="1069.38" y2="346.05"/><line class="cls-5" x1="1080.32" y1="348.78" x2="1079.41" y2="348.78"/><line class="cls-5" x1="1088.52" y1="348.78" x2="1080.32" y2="348.78"/><line class="cls-5" x1="1092.61" y1="348.78" x2="1088.52" y2="348.78"/><line class="cls-5" x1="1093.97" y1="348.78" x2="1092.61" y2="348.78"/><line class="cls-5" x1="1079.41" y1="348.78" x2="1079.41" y2="346.05"/><line class="cls-5" x1="1079.41" y1="346.05" x2="1076.22" y2="346.05"/><line class="cls-5" x1="1069.38" y1="147.94" x2="1069.38" y2="157.95"/><line class="cls-5" x1="1069.38" y1="267.72" x2="1069.38" y2="346.05"/><line class="cls-5" x1="1069.38" y1="455.82" x2="1069.38" y2="485.87"/><line class="cls-5" x1="1069.38" y1="496.81" x2="1080.32" y2="496.81"/><line class="cls-5" x1="1080.32" y1="496.81" x2="1088.52" y2="496.81"/><line class="cls-5" x1="1088.52" y1="496.81" x2="1092.61" y2="496.81"/><line class="cls-5" x1="1092.61" y1="496.81" x2="1093.97" y2="496.81"/><line class="cls-5" x1="1093.97" y1="496.81" x2="1093.97" y2="453.08"/><line class="cls-5" x1="1093.97" y1="348.78" x2="1093.97" y2="264.98"/><line class="cls-5" x1="1093.97" y1="160.7" x2="1093.97" y2="132.91"/><rect class="cls-5" x="1093.98" y="134.74" width="2.73" height="25.95"/><rect class="cls-5" x="1093.98" y="134.74" width="2.73" height="25.95"/><rect class="cls-5" x="1093.98" y="134.74" width="2.73" height="25.96"/><line class="cls-5" x1="1093.97" y1="134.74" x2="1096.71" y2="134.74"/><line class="cls-5" x1="1096.71" y1="134.74" x2="1096.71" y2="160.7"/><line class="cls-5" x1="1096.71" y1="160.7" x2="1093.97" y2="160.7"/><line class="cls-5" x1="1093.97" y1="160.7" x2="1093.97" y2="134.74"/><rect class="cls-5" x="1096.71" y="134.74" width="2.73" height="25.95"/><rect class="cls-5" x="1096.71" y="134.74" width="2.73" height="25.95"/><rect class="cls-5" x="1096.71" y="134.74" width="2.73" height="25.96"/><line class="cls-5" x1="1096.71" y1="134.74" x2="1099.45" y2="134.74"/><line class="cls-5" x1="1099.45" y1="134.74" x2="1099.45" y2="160.7"/><line class="cls-5" x1="1099.45" y1="160.7" x2="1096.71" y2="160.7"/><line class="cls-5" x1="1096.71" y1="160.7" x2="1096.71" y2="134.74"/><rect class="cls-5" x="1093.98" y="264.98" width="2.73" height="25.96"/><rect class="cls-5" x="1093.98" y="264.98" width="2.73" height="25.96"/><rect class="cls-5" x="1093.98" y="264.98" width="2.73" height="25.96"/><line class="cls-5" x1="1093.97" y1="264.98" x2="1096.71" y2="264.98"/><line class="cls-5" x1="1096.71" y1="264.98" x2="1096.71" y2="290.95"/><line class="cls-5" x1="1096.71" y1="290.95" x2="1093.97" y2="290.95"/><line class="cls-5" x1="1093.97" y1="290.95" x2="1093.97" y2="264.98"/><rect class="cls-5" x="1096.71" y="264.98" width="2.73" height="25.96"/><rect class="cls-5" x="1096.71" y="264.98" width="2.73" height="25.96"/><rect class="cls-5" x="1096.71" y="264.98" width="2.73" height="25.96"/><line class="cls-5" x1="1096.71" y1="264.98" x2="1099.45" y2="264.98"/><line class="cls-5" x1="1099.45" y1="264.98" x2="1099.45" y2="290.95"/><line class="cls-5" x1="1099.45" y1="290.95" x2="1096.71" y2="290.95"/><line class="cls-5" x1="1096.71" y1="290.95" x2="1096.71" y2="264.98"/><line class="cls-5" x1="1093.97" y1="160.7" x2="1093.97" y2="264.98"/><line class="cls-5" x1="1069.38" y1="157.95" x2="1069.38" y2="267.72"/><line class="cls-5" x1="1076.67" y1="157.95" x2="1076.67" y2="161.16"/><line class="cls-5" x1="1076.67" y1="161.16" x2="1078.04" y2="161.16"/><line class="cls-5" x1="1078.04" y1="161.16" x2="1078.04" y2="162.98"/><line class="cls-5" x1="1078.04" y1="162.98" x2="1080.32" y2="162.98"/><line class="cls-5" x1="1080.32" y1="162.98" x2="1080.32" y2="157.95"/><line class="cls-5" x1="1080.32" y1="213.07" x2="1080.32" y2="162.98"/><line class="cls-5" x1="1074.85" y1="165.24" x2="1074.85" y2="208.97"/><line class="cls-5" x1="1078.04" y1="165.24" x2="1078.04" y2="208.97"/><line class="cls-5" x1="1074.85" y1="165.24" x2="1074.85" y2="208.97"/><line class="cls-5" x1="1076.22" y1="165.24" x2="1076.22" y2="208.97"/><line class="cls-5" x1="1074.85" y1="161.16" x2="1074.85" y2="165.24"/><line class="cls-5" x1="1074.85" y1="165.24" x2="1078.04" y2="165.24"/><line class="cls-5" x1="1078.04" y1="165.24" x2="1078.04" y2="161.16"/><line class="cls-5" x1="1078.04" y1="161.16" x2="1074.85" y2="161.16"/><line class="cls-5" x1="1078.04" y1="213.07" x2="1078.04" y2="208.97"/><line class="cls-5" x1="1078.04" y1="208.97" x2="1074.85" y2="208.97"/><line class="cls-5" x1="1074.85" y1="208.97" x2="1074.85" y2="213.07"/><line class="cls-5" x1="1074.85" y1="213.07" x2="1078.04" y2="213.07"/><line class="cls-5" x1="1080.32" y1="159.33" x2="1076.67" y2="159.33"/><line class="cls-5" x1="1080.32" y1="267.72" x2="1080.32" y2="263.18"/><line class="cls-5" x1="1080.32" y1="263.18" x2="1078.04" y2="263.18"/><line class="cls-5" x1="1078.04" y1="263.18" x2="1078.04" y2="264.53"/><line class="cls-5" x1="1078.04" y1="264.53" x2="1076.67" y2="264.53"/><line class="cls-5" x1="1076.67" y1="264.53" x2="1076.67" y2="267.72"/><line class="cls-5" x1="1080.32" y1="263.18" x2="1080.32" y2="213.07"/><line class="cls-5" x1="1074.85" y1="217.17" x2="1074.85" y2="260.44"/><line class="cls-5" x1="1078.04" y1="217.17" x2="1078.04" y2="260.44"/><line class="cls-5" x1="1074.85" y1="217.17" x2="1074.85" y2="260.44"/><line class="cls-5" x1="1076.22" y1="217.17" x2="1076.22" y2="260.44"/><line class="cls-5" x1="1074.85" y1="213.07" x2="1074.85" y2="217.17"/><line class="cls-5" x1="1074.85" y1="217.17" x2="1078.04" y2="217.17"/><line class="cls-5" x1="1078.04" y1="217.17" x2="1078.04" y2="213.07"/><line class="cls-5" x1="1078.04" y1="213.07" x2="1074.85" y2="213.07"/><line class="cls-5" x1="1078.04" y1="264.53" x2="1078.04" y2="260.44"/><line class="cls-5" x1="1078.04" y1="260.44" x2="1074.85" y2="260.44"/><line class="cls-5" x1="1074.85" y1="260.44" x2="1074.85" y2="264.53"/><line class="cls-5" x1="1074.85" y1="264.53" x2="1078.04" y2="264.53"/><line class="cls-5" x1="1080.32" y1="266.35" x2="1076.67" y2="266.35"/><line class="cls-5" x1="1080.32" y1="157.95" x2="1076.67" y2="157.95"/><line class="cls-5" x1="1080.32" y1="160.7" x2="1080.32" y2="157.95"/><line class="cls-5" x1="1080.32" y1="267.72" x2="1076.67" y2="267.72"/><line class="cls-5" x1="1080.32" y1="264.98" x2="1080.32" y2="267.72"/><line class="cls-5" x1="1079.41" y1="346.05" x2="1079.41" y2="349.7"/><line class="cls-5" x1="1079.41" y1="349.7" x2="1076.22" y2="349.7"/><line class="cls-5" x1="1076.22" y1="349.7" x2="1076.22" y2="346.05"/><line class="cls-5" x1="1076.22" y1="346.05" x2="1079.41" y2="346.05"/><line class="cls-5" x1="1079.41" y1="403.43" x2="1078.04" y2="403.43"/><line class="cls-5" x1="1078.04" y1="403.43" x2="1078.04" y2="402.52"/><line class="cls-5" x1="1078.04" y1="402.52" x2="1076.22" y2="402.52"/><line class="cls-5" x1="1076.22" y1="402.52" x2="1076.22" y2="399.8"/><line class="cls-5" x1="1076.22" y1="399.8" x2="1079.41" y2="399.8"/><line class="cls-5" x1="1079.41" y1="399.8" x2="1079.41" y2="403.43"/><line class="cls-5" x1="1076.22" y1="455.82" x2="1076.22" y2="453.08"/><line class="cls-5" x1="1076.22" y1="453.08" x2="1078.04" y2="453.08"/><line class="cls-5" x1="1078.04" y1="453.08" x2="1078.04" y2="452.17"/><line class="cls-5" x1="1078.04" y1="452.17" x2="1079.41" y2="452.17"/><line class="cls-5" x1="1079.41" y1="452.17" x2="1079.41" y2="455.82"/><line class="cls-5" x1="1079.41" y1="455.82" x2="1076.22" y2="455.82"/><line class="cls-5" x1="1078.04" y1="352.43" x2="1078.04" y2="397.07"/><line class="cls-5" x1="1078.04" y1="397.07" x2="1076.22" y2="397.07"/><line class="cls-5" x1="1076.22" y1="397.07" x2="1076.22" y2="352.43"/><line class="cls-5" x1="1076.22" y1="352.43" x2="1078.04" y2="352.43"/><line class="cls-5" x1="1078.04" y1="349.7" x2="1078.04" y2="352.43"/><line class="cls-5" x1="1078.04" y1="352.43" x2="1076.22" y2="352.43"/><line class="cls-5" x1="1076.22" y1="352.43" x2="1076.22" y2="349.7"/><line class="cls-5" x1="1076.22" y1="349.7" x2="1078.04" y2="349.7"/><line class="cls-5" x1="1078.04" y1="397.07" x2="1078.04" y2="399.8"/><line class="cls-5" x1="1078.04" y1="399.8" x2="1076.22" y2="399.8"/><line class="cls-5" x1="1076.22" y1="399.8" x2="1076.22" y2="397.07"/><line class="cls-5" x1="1076.22" y1="397.07" x2="1078.04" y2="397.07"/><line class="cls-5" x1="1077.13" y1="352.43" x2="1077.13" y2="397.07"/><line class="cls-5" x1="1079.41" y1="349.7" x2="1079.41" y2="399.8"/><line class="cls-5" x1="1079.41" y1="399.8" x2="1078.04" y2="399.8"/><line class="cls-5" x1="1078.04" y1="399.8" x2="1078.04" y2="349.7"/><line class="cls-5" x1="1078.04" y1="349.7" x2="1079.41" y2="349.7"/><line class="cls-5" x1="1079.41" y1="349.7" x2="1079.41" y2="399.8"/><line class="cls-5" x1="1076.22" y1="453.08" x2="1032.49" y2="428.03"/><line class="cls-5" x1="1032.49" y1="428.03" x2="1033.86" y2="425.75"/><line class="cls-5" x1="1033.86" y1="425.75" x2="1077.13" y2="450.81"/><line class="cls-5" x1="1077.13" y1="450.81" x2="1076.22" y2="453.08"/><path class="cls-5" d="M1062.2,425.75a49.68,49.68,0,0,1,42.36-23.23" transform="translate(-28.34)"/><line class="cls-5" x1="1079.41" y1="346.05" x2="1076.22" y2="346.05"/><line class="cls-5" x1="1079.41" y1="348.78" x2="1079.41" y2="346.05"/><line class="cls-5" x1="1079.41" y1="455.82" x2="1076.22" y2="455.82"/><line class="cls-5" x1="1079.41" y1="453.08" x2="1079.41" y2="455.82"/><line class="cls-5" x1="189.5" y1="234.93" x2="196.79" y2="234.93"/><line class="cls-5" x1="177.67" y1="234.93" x2="185.85" y2="234.93"/><line class="cls-5" x1="173.56" y1="234.93" x2="177.67" y2="234.93"/><line class="cls-5" x1="172.65" y1="234.93" x2="173.56" y2="234.93"/><line class="cls-5" x1="185.85" y1="234.93" x2="189.5" y2="234.93"/><line class="cls-5" x1="172.65" y1="234.93" x2="172.65" y2="336.04"/><line class="cls-5" x1="196.79" y1="234.93" x2="196.79" y2="311.44"/><line class="cls-5" x1="189.5" y1="234.93" x2="189.5" y2="238.12"/><line class="cls-5" x1="189.5" y1="238.12" x2="188.13" y2="238.12"/><line class="cls-5" x1="188.13" y1="238.12" x2="188.13" y2="239.95"/><line class="cls-5" x1="188.13" y1="239.95" x2="185.85" y2="239.95"/><line class="cls-5" x1="185.85" y1="239.95" x2="185.85" y2="234.93"/><line class="cls-5" x1="185.85" y1="277.29" x2="185.85" y2="239.95"/><line class="cls-5" x1="191.33" y1="242.23" x2="191.33" y2="273.19"/><line class="cls-5" x1="188.13" y1="242.23" x2="188.13" y2="273.19"/><line class="cls-5" x1="191.33" y1="242.23" x2="191.33" y2="273.19"/><line class="cls-5" x1="189.96" y1="242.23" x2="189.96" y2="273.19"/><line class="cls-5" x1="191.33" y1="238.12" x2="191.33" y2="242.23"/><line class="cls-5" x1="191.33" y1="242.23" x2="188.13" y2="242.23"/><line class="cls-5" x1="188.13" y1="242.23" x2="188.13" y2="238.12"/><line class="cls-5" x1="188.13" y1="238.12" x2="191.33" y2="238.12"/><line class="cls-5" x1="188.13" y1="277.29" x2="188.13" y2="273.19"/><line class="cls-5" x1="188.13" y1="273.19" x2="191.33" y2="273.19"/><line class="cls-5" x1="191.33" y1="273.19" x2="191.33" y2="277.29"/><line class="cls-5" x1="191.33" y1="277.29" x2="188.13" y2="277.29"/><line class="cls-5" x1="185.85" y1="236.3" x2="189.5" y2="236.3"/><line class="cls-5" x1="185.85" y1="322.36" x2="185.85" y2="314.18"/><line class="cls-5" x1="185.85" y1="314.18" x2="188.13" y2="314.18"/><line class="cls-5" x1="188.13" y1="314.18" x2="188.13" y2="316"/><line class="cls-5" x1="188.13" y1="316" x2="189.5" y2="316"/><line class="cls-5" x1="189.5" y1="316" x2="189.5" y2="318.73"/><line class="cls-5" x1="185.85" y1="314.18" x2="185.85" y2="277.29"/><line class="cls-5" x1="191.33" y1="281.39" x2="191.33" y2="311.9"/><line class="cls-5" x1="188.13" y1="281.39" x2="188.13" y2="311.9"/><line class="cls-5" x1="191.33" y1="281.39" x2="191.33" y2="311.9"/><line class="cls-5" x1="189.96" y1="281.39" x2="189.96" y2="311.9"/><line class="cls-5" x1="191.33" y1="277.29" x2="191.33" y2="281.39"/><line class="cls-5" x1="191.33" y1="281.39" x2="188.13" y2="281.39"/><line class="cls-5" x1="188.13" y1="281.39" x2="188.13" y2="277.29"/><line class="cls-5" x1="188.13" y1="277.29" x2="191.33" y2="277.29"/><line class="cls-5" x1="188.13" y1="316" x2="188.13" y2="311.9"/><line class="cls-5" x1="188.13" y1="311.9" x2="191.33" y2="311.9"/><line class="cls-5" x1="191.33" y1="311.9" x2="191.33" y2="316"/><line class="cls-5" x1="191.33" y1="316" x2="188.13" y2="316"/><line class="cls-5" x1="185.85" y1="317.82" x2="189.5" y2="317.82"/><line class="cls-5" x1="185.85" y1="234.93" x2="189.5" y2="234.93"/><line class="cls-5" x1="240.52" y1="318.73" x2="240.52" y2="311.44"/><line class="cls-5" x1="237.78" y1="330.57" x2="237.78" y2="322.36"/><line class="cls-5" x1="237.78" y1="334.67" x2="237.78" y2="330.57"/><line class="cls-5" x1="237.78" y1="336.04" x2="237.78" y2="334.67"/><line class="cls-5" x1="237.78" y1="322.36" x2="240.52" y2="322.36"/><line class="cls-5" x1="240.52" y1="322.36" x2="240.52" y2="318.73"/><line class="cls-5" x1="262.38" y1="311.44" x2="240.52" y2="311.44"/><line class="cls-5" x1="172.65" y1="336.04" x2="237.78" y2="336.04"/><line class="cls-5" x1="196.79" y1="311.44" x2="240.52" y2="311.44"/><line class="cls-5" x1="189.5" y1="318.73" x2="192.69" y2="318.73"/><line class="cls-5" x1="192.69" y1="318.73" x2="192.69" y2="320.1"/><line class="cls-5" x1="192.69" y1="320.1" x2="194.06" y2="320.1"/><line class="cls-5" x1="194.06" y1="320.1" x2="194.06" y2="322.36"/><line class="cls-5" x1="194.06" y1="322.36" x2="185.85" y2="322.36"/><line class="cls-5" x1="240.52" y1="322.36" x2="235.96" y2="322.36"/><line class="cls-5" x1="235.96" y1="322.36" x2="235.96" y2="320.1"/><line class="cls-5" x1="235.96" y1="320.1" x2="237.78" y2="320.1"/><line class="cls-5" x1="237.78" y1="320.1" x2="237.78" y2="318.73"/><line class="cls-5" x1="237.78" y1="318.73" x2="240.52" y2="318.73"/><line class="cls-5" x1="235.96" y1="322.36" x2="194.06" y2="322.36"/><line class="cls-5" x1="196.79" y1="316.91" x2="233.68" y2="316.91"/><line class="cls-5" x1="196.79" y1="320.1" x2="233.68" y2="320.1"/><line class="cls-5" x1="196.79" y1="316.91" x2="233.68" y2="316.91"/><line class="cls-5" x1="196.79" y1="318.28" x2="233.68" y2="318.28"/><line class="cls-5" x1="192.69" y1="316.91" x2="196.79" y2="316.91"/><line class="cls-5" x1="196.79" y1="316.91" x2="196.79" y2="320.1"/><line class="cls-5" x1="196.79" y1="320.1" x2="192.69" y2="320.1"/><line class="cls-5" x1="192.69" y1="320.1" x2="192.69" y2="316.91"/><line class="cls-5" x1="237.78" y1="320.1" x2="233.68" y2="320.1"/><line class="cls-5" x1="233.68" y1="320.1" x2="233.68" y2="316.91"/><line class="cls-5" x1="233.68" y1="316.91" x2="237.78" y2="316.91"/><line class="cls-5" x1="237.78" y1="316.91" x2="237.78" y2="320.1"/><line class="cls-5" x1="190.87" y1="322.36" x2="190.87" y2="318.73"/><line class="cls-5" x1="239.61" y1="322.36" x2="239.61" y2="318.73"/><line class="cls-5" x1="240.52" y1="322.36" x2="240.52" y2="318.73"/><line class="cls-5" x1="237.78" y1="322.36" x2="240.52" y2="322.36"/><line class="cls-5" x1="51.96" y1="239.49" x2="51.96" y2="238.12"/><line class="cls-5" x1="51.96" y1="210.79" x2="51.96" y2="162.07"/><line class="cls-5" x1="51.96" y1="162.07" x2="45.6" y2="162.07"/><line class="cls-5" x1="45.6" y1="162.07" x2="42.86" y2="162.07"/><line class="cls-5" x1="42.86" y1="162.07" x2="42.86" y2="162.07"/><line class="cls-5" x1="64.71" y1="251.78" x2="64.71" y2="162.07"/><line class="cls-5" x1="51.96" y1="162.07" x2="58.35" y2="162.07"/><line class="cls-5" x1="58.35" y1="162.07" x2="61.08" y2="162.07"/><line class="cls-5" x1="61.08" y1="162.07" x2="61.08" y2="162.07"/><line class="cls-5" x1="51.96" y1="162.07" x2="51.96" y2="210.79"/><line class="cls-5" x1="51.96" y1="238.12" x2="51.96" y2="239.49"/><line class="cls-5" x1="40.59" y1="251.78" x2="64.71" y2="251.78"/><line class="cls-5" x1="51.96" y1="239.49" x2="51.96" y2="239.49"/><line class="cls-5" x1="192.24" y1="191.21" x2="196.79" y2="191.21"/><line class="cls-5" x1="177.67" y1="193.94" x2="185.85" y2="193.94"/><line class="cls-5" x1="177.21" y1="193.94" x2="177.67" y2="193.94"/><line class="cls-5" x1="185.85" y1="193.94" x2="185.85" y2="191.21"/><line class="cls-5" x1="185.85" y1="191.21" x2="192.24" y2="191.21"/><line class="cls-5" x1="192.24" y1="234.93" x2="196.79" y2="234.93"/><line class="cls-5" x1="177.67" y1="234.93" x2="185.85" y2="234.93"/><line class="cls-5" x1="177.21" y1="234.93" x2="177.67" y2="234.93"/><line class="cls-5" x1="185.85" y1="234.93" x2="192.24" y2="234.93"/><line class="cls-5" x1="196.79" y1="191.21" x2="196.79" y2="152.95"/><line class="cls-5" x1="177.21" y1="162.07" x2="177.21" y2="193.94"/><line class="cls-5" x1="185.85" y1="234.93" x2="185.85" y2="232.65"/><line class="cls-5" x1="185.85" y1="232.65" x2="189.96" y2="232.65"/><line class="cls-5" x1="189.96" y1="232.65" x2="189.96" y2="233.57"/><line class="cls-5" x1="189.96" y1="233.57" x2="192.24" y2="233.57"/><line class="cls-5" x1="192.24" y1="233.57" x2="192.24" y2="234.93"/><line class="cls-5" x1="192.24" y1="234.93" x2="185.85" y2="234.93"/><line class="cls-5" x1="192.24" y1="191.21" x2="192.24" y2="193.03"/><line class="cls-5" x1="192.24" y1="193.03" x2="189.96" y2="193.03"/><line class="cls-5" x1="189.96" y1="193.03" x2="189.96" y2="193.48"/><line class="cls-5" x1="189.96" y1="193.48" x2="185.85" y2="193.48"/><line class="cls-5" x1="185.85" y1="193.48" x2="185.85" y2="191.21"/><line class="cls-5" x1="185.85" y1="191.21" x2="192.24" y2="191.21"/><line class="cls-5" x1="192.24" y1="193.03" x2="227.3" y2="213.07"/><line class="cls-5" x1="227.3" y1="213.07" x2="226.39" y2="214.89"/><line class="cls-5" x1="226.39" y1="214.89" x2="191.33" y2="194.86"/><line class="cls-5" x1="191.33" y1="194.86" x2="192.24" y2="193.03"/><path class="cls-5" d="M254.73,214.89c-7.28,11.38-20.49,18.22-34.15,18.22" transform="translate(-28.34)"/><line class="cls-5" x1="185.85" y1="234.93" x2="192.24" y2="234.93"/><line class="cls-5" x1="185.85" y1="191.21" x2="192.24" y2="191.21"/><line class="cls-5" x1="185.85" y1="193.94" x2="185.85" y2="191.21"/><rect class="cls-5" x="1069.38" y="137.02" width="19.14" height="10.92"/><rect class="cls-5" x="1069.38" y="295.05" width="10.94" height="27.32"/><rect class="cls-5" x="1052.98" y="485.87" width="27.33" height="10.94"/><rect class="cls-5" x="910.9" y="485.87" width="27.32" height="10.94"/><rect class="cls-5" x="736.46" y="485.87" width="27.33" height="10.94"/><rect class="cls-5" x="556.57" y="485.87" width="27.33" height="10.94"/><rect class="cls-5" x="393.08" y="485.87" width="27.33" height="10.94"/><rect class="cls-5" x="251.44" y="485.87" width="27.33" height="10.94"/><rect class="cls-5" x="251.44" y="311.44" width="10.94" height="27.33"/><rect class="cls-5" x="752.85" y="137.02" width="27.33" height="10.92"/><rect class="cls-5" x="774.72" y="305.97" width="27.33" height="10.94"/><rect class="cls-5" x="513.32" y="305.97" width="27.32" height="10.94"/><rect class="cls-5" x="531.99" y="49.58" width="27.32" height="10.92"/><rect class="cls-5" x="368.48" y="49.58" width="27.33" height="10.92"/><rect class="cls-5" x="644.02" y="74.17" width="10.94" height="27.33"/><rect class="cls-5" x="856.69" y="502.26" width="27.33" height="10.94"/><rect class="cls-5" x="1052.98" y="502.26" width="27.33" height="10.94"/><rect class="cls-5" x="633.09" y="502.26" width="27.32" height="10.94"/><rect class="cls-5" x="409.47" y="502.26" width="27.33" height="10.94"/><rect class="cls-5" x="185.85" y="502.26" width="27.33" height="10.94"/><rect class="cls-5" x="45.6" y="210.79" width="10.92" height="27.33"/><text class="cls-6" transform="translate(909.95 235.5)">3К</text><text class="cls-6" transform="translate(898.76 204.18)">№30</text><text class="cls-6" transform="translate(895.38 265.68)">113.1</text><polyline class="cls-5" points="881.59 274.23 881.59 181.96 966.63 181.96 966.63 274.23"/><line class="cls-5" x1="881.59" y1="212.44" x2="966.63" y2="212.44"/><line class="cls-5" x1="881.59" y1="243.33" x2="966.63" y2="243.33"/><line class="cls-5" x1="881.59" y1="274.23" x2="966.63" y2="274.23"/><text class="cls-7" transform="translate(1015.66 228.1)">16.9</text><text class="cls-7" transform="translate(1139.66 316)">5.5</text><text class="cls-7" transform="translate(114.59 399.8)">4.6</text><text class="cls-7" transform="translate(572.3 232.2)">13.9</text><text class="cls-7" transform="translate(578.89 432.13)">3.4</text><text class="cls-7" transform="translate(696.84 432.13)">3.8</text><text class="cls-7" transform="translate(594.37 348.09)">1.2</text><text class="cls-7" transform="translate(215.24 285.49)">26.2</text><text class="cls-7" transform="translate(281.51 415.28)">15.5</text><text class="cls-7" transform="translate(1014.73 390.23)">19.2</text><text class="cls-7" transform="translate(674.54 199.87)">2.8</text></svg>