<svg id="_330" data-name="330" xmlns="http://www.w3.org/2000/svg" viewBox="0 0 605.06 422.06"><defs><style>.cls-1{isolation:isolate;font-size:12px;fill:#969696;}.cls-1,.cls-4,.cls-6{font-family:PTSans-Regular, PT Sans;}.cls-2{letter-spacing:-0.01em;}.cls-10,.cls-11,.cls-3,.cls-5,.cls-7,.cls-8,.cls-9{fill:none;stroke-linecap:round;stroke-linejoin:round;}.cls-3{stroke:#969696;}.cls-3,.cls-7{stroke-width:0.75px;}.cls-4{font-size:24px;}.cls-10,.cls-11,.cls-5,.cls-7,.cls-8,.cls-9{stroke:#000;}.cls-5,.cls-8,.cls-9{stroke-width:0.5px;}.cls-6{font-size:20px;}.cls-8{stroke-dasharray:2.97 2.97;}.cls-9{stroke-dasharray:3.08 3.08;}.cls-10{stroke-width:1.3px;}.cls-11{stroke-width:0.35px;}</style></defs><text class="cls-1" transform="translate(10.2 218.97) rotate(-90)"><tspan class="cls-2">у</tspan><tspan x="5.42" y="0">лица</tspan></text><line class="cls-3" x1="4.22" y1="229.73" x2="13.02" y2="229.73"/><polyline class="cls-3" points="7.72 226.23 4.22 229.73 7.72 233.23"/><text class="cls-4" transform="translate(228.99 313.39)">1K</text><text class="cls-4" transform="translate(214.12 343.68)">43.70</text><text class="cls-4" transform="translate(210.95 283.26)">№330</text><polyline class="cls-5" points="205.31 350.2 205.31 260.2 280.37 260.2 280.37 350.2"/><line class="cls-5" x1="205.31" y1="290.26" x2="280.37" y2="290.26"/><line class="cls-5" x1="205.31" y1="350.21" x2="280.37" y2="350.21"/><line class="cls-5" x1="205.31" y1="320.32" x2="280.37" y2="320.32"/><text class="cls-6" transform="translate(68.87 138.96) rotate(-90)">0.30</text><text class="cls-6" transform="translate(118.71 114.29)">16.00</text><text class="cls-6" transform="translate(118.71 313.39)">16.10</text><text class="cls-6" transform="translate(470.23 374.37)">1.80</text><text class="cls-6" transform="translate(489.61 238.58)">5.70</text><text class="cls-6" transform="translate(489.61 93.48)">3.80</text><line class="cls-5" x1="459.25" y1="421.41" x2="467.47" y2="421.41"/><polyline class="cls-7" points="400.23 123.84 425.57 123.84 425.57 101.93"/><line class="cls-7" x1="425.57" y1="79.88" x2="425.57" y2="57.83"/><polyline class="cls-7" points="425.57 35.92 425.57 13.88 400.23 13.88"/><line class="cls-7" x1="378.32" y1="13.88" x2="356.27" y2="13.88"/><polyline class="cls-7" points="334.23 13.88 309.03 13.88 309.03 35.92"/><line class="cls-5" x1="309.03" y1="52.63" x2="309.03" y2="54.13"/><line class="cls-8" x1="309.03" y1="57.1" x2="309.03" y2="120.86"/><polyline class="cls-5" points="309.03 122.34 309.03 123.84 310.53 123.84"/><line class="cls-9" x1="313.61" y1="123.84" x2="386.03" y2="123.84"/><line class="cls-5" x1="387.57" y1="123.84" x2="389.07" y2="123.84"/><line class="cls-7" x1="425.57" y1="1" x2="400.23" y2="1"/><line class="cls-7" x1="378.32" y1="1" x2="356.27" y2="1"/><line class="cls-7" x1="334.23" y1="1" x2="309.03" y2="1"/><line class="cls-7" x1="282.19" y1="421.41" x2="313.96" y2="421.41"/><line class="cls-7" x1="335.87" y1="421.41" x2="357.92" y2="421.41"/><line class="cls-7" x1="379.83" y1="421.41" x2="411.6" y2="421.41"/><line class="cls-10" x1="93.35" y1="421.41" x2="411.6" y2="421.41"/><line class="cls-10" x1="416.8" y1="421.41" x2="542.92" y2="421.41"/><path class="cls-10" d="M571.27,421.41" transform="translate(-28.35)"/><line class="cls-10" x1="529.91" y1="408.54" x2="451.45" y2="408.54"/><polyline class="cls-10" points="446.24 408.54 93.35 408.54 93.35 421.41"/><polyline class="cls-10" points="93.35 13.88 365.04 13.88 365.04 1 93.35 1 93.35 13.88"/><polyline class="cls-10" points="446.24 212.44 93.35 212.44 93.35 217.64 446.24 217.64"/><line class="cls-10" x1="451.45" y1="220.93" x2="446.24" y2="220.93"/><line class="cls-10" x1="451.45" y1="279.13" x2="446.24" y2="279.13"/><line class="cls-10" x1="451.45" y1="408.54" x2="451.45" y2="311.86"/><line class="cls-10" x1="451.45" y1="306.65" x2="451.45" y2="279.13"/><line class="cls-10" x1="451.45" y1="220.93" x2="451.45" y2="217.64"/><line class="cls-10" x1="446.24" y1="217.64" x2="446.24" y2="220.93"/><line class="cls-10" x1="446.24" y1="279.13" x2="446.24" y2="408.54"/><path class="cls-7" d="M421.59,223.46a53.07,53.07,0,0,0,53.07,53.07" transform="translate(-28.35)"/><polyline class="cls-7" points="451.45 279.13 451.45 276.53 446.24 276.53 446.24 279.13 451.45 279.13"/><polyline class="cls-7" points="446.24 220.93 446.24 223.53 451.45 223.53 451.45 220.93 446.24 220.93"/><line class="cls-7" x1="446.24" y1="223.53" x2="393.11" y2="223.53"/><polyline class="cls-7" points="446.24 279.13 451.45 279.13 446.24 279.13"/><polyline class="cls-7" points="446.24 220.93 451.45 220.93 446.24 220.93"/><line class="cls-10" x1="446.24" y1="200.25" x2="451.45" y2="200.25"/><line class="cls-10" x1="446.24" y1="141.92" x2="451.45" y2="141.92"/><line class="cls-10" x1="451.45" y1="217.64" x2="451.45" y2="200.25"/><line class="cls-10" x1="451.45" y1="141.92" x2="451.45" y2="135.48"/><line class="cls-10" x1="446.24" y1="135.48" x2="446.24" y2="141.92"/><line class="cls-10" x1="446.24" y1="200.25" x2="446.24" y2="212.44"/><path class="cls-7" d="M474.66,144.52a53.06,53.06,0,0,0-53.07,53.06" transform="translate(-28.35)"/><polyline class="cls-7" points="451.45 141.91 451.45 144.52 446.24 144.52 446.24 141.91 451.45 141.91"/><polyline class="cls-7" points="446.24 200.25 446.24 197.65 451.45 197.65 451.45 200.25 446.24 200.25"/><line class="cls-7" x1="446.24" y1="197.65" x2="393.11" y2="197.65"/><polyline class="cls-7" points="451.45 141.91 446.24 141.91 451.45 141.91"/><polyline class="cls-7" points="451.45 200.25 446.24 200.25 451.45 200.25"/><line class="cls-10" x1="458.16" y1="311.86" x2="458.16" y2="306.65"/><line class="cls-10" x1="506.64" y1="311.86" x2="506.64" y2="306.65"/><line class="cls-10" x1="451.45" y1="311.86" x2="458.16" y2="311.86"/><line class="cls-10" x1="506.64" y1="311.86" x2="529.91" y2="311.86"/><line class="cls-10" x1="542.92" y1="306.65" x2="506.64" y2="306.65"/><line class="cls-10" x1="458.16" y1="306.65" x2="451.45" y2="306.65"/><path class="cls-7" d="M526.71,333.46a43.38,43.38,0,0,0,5.81-21.67" transform="translate(-28.35)"/><polyline class="cls-7" points="506.63 306.65 504.17 306.65 504.17 311.86 506.63 311.86 506.63 306.65"/><polyline class="cls-7" points="458.16 311.86 460.76 311.86 460.76 306.65 458.16 306.65 458.16 311.86"/><line class="cls-7" x1="460.76" y1="311.86" x2="498.28" y2="333.5"/><polyline class="cls-7" points="506.63 306.65 506.63 311.86 506.63 306.65"/><polyline class="cls-7" points="458.16 306.65 458.16 311.86 458.16 306.65"/><line class="cls-10" x1="591.4" y1="154.92" x2="604.41" y2="154.92"/><line class="cls-10" x1="591.4" y1="219.56" x2="604.41" y2="219.56"/><line class="cls-10" x1="591.4" y1="135.48" x2="591.4" y2="154.92"/><line class="cls-10" x1="591.4" y1="219.56" x2="591.4" y2="306.65"/><line class="cls-10" x1="604.41" y1="306.65" x2="604.41" y2="219.56"/><polyline class="cls-10" points="604.41 154.93 604.41 52.63 591.4 52.63"/><path class="cls-7" d="M560.32,157.46a59.5,59.5,0,0,0,59.5,59.5" transform="translate(-28.35)"/><polyline class="cls-7" points="604.41 219.56 604.41 216.96 591.4 216.96 591.4 219.56 604.41 219.56"/><polyline class="cls-7" points="591.4 154.93 591.4 157.53 604.41 157.53 604.41 154.93 591.4 154.93"/><line class="cls-7" x1="591.4" y1="157.53" x2="531.97" y2="157.53"/><polyline class="cls-7" points="604.41 219.56 591.4 219.56 604.41 219.56"/><polyline class="cls-7" points="604.41 154.93 591.4 154.93 604.41 154.93"/><line class="cls-10" x1="604.41" y1="1" x2="365.04" y2="1"/><line class="cls-5" x1="365.04" y1="13.88" x2="365.04" y2="1"/><line class="cls-10" x1="365.04" y1="13.88" x2="591.4" y2="13.88"/><polyline class="cls-10" points="430.63 130.28 430.63 13.88 425.57 13.88 425.57 135.48"/><line class="cls-10" x1="604.41" y1="1" x2="599.21" y2="1"/><polyline class="cls-7" points="599.21 1 604.41 1 599.21 1"/><line class="cls-10" x1="591.4" y1="306.65" x2="542.92" y2="306.65"/><line class="cls-10" x1="542.92" y1="319.53" x2="604.41" y2="319.53"/><line class="cls-10" x1="604.41" y1="52.63" x2="604.41" y2="1"/><line class="cls-10" x1="591.4" y1="13.88" x2="591.4" y2="52.63"/><line class="cls-5" x1="591.4" y1="52.63" x2="604.41" y2="52.63"/><line class="cls-10" x1="529.91" y1="311.86" x2="529.91" y2="408.54"/><line class="cls-10" x1="542.92" y1="421.41" x2="542.92" y2="319.53"/><line class="cls-10" x1="604.41" y1="319.53" x2="604.41" y2="306.65"/><path class="cls-10" d="M632.76,319.53" transform="translate(-28.35)"/><line class="cls-10" x1="70.62" y1="363.9" x2="77.05" y2="363.9"/><line class="cls-10" x1="70.62" y1="262.29" x2="77.05" y2="262.29"/><line class="cls-10" x1="77.05" y1="364.58" x2="77.05" y2="363.9"/><line class="cls-10" x1="69.93" y1="363.9" x2="70.62" y2="363.9"/><line class="cls-10" x1="77.05" y1="261.6" x2="77.05" y2="262.29"/><line class="cls-10" x1="69.93" y1="262.29" x2="70.62" y2="262.29"/><line class="cls-10" x1="77.05" y1="364.58" x2="77.05" y2="366.5"/><line class="cls-10" x1="77.05" y1="259.68" x2="77.05" y2="261.6"/><line class="cls-10" x1="69.93" y1="364.58" x2="69.93" y2="363.9"/><line class="cls-10" x1="69.93" y1="261.6" x2="69.93" y2="262.29"/><polyline class="cls-10" points="77.05 366.5 80.34 366.5 93.35 366.5"/><polyline class="cls-10" points="77.05 259.68 80.34 259.68 93.35 259.68"/><line class="cls-10" x1="70.62" y1="160.13" x2="77.05" y2="160.13"/><line class="cls-10" x1="70.62" y1="58.52" x2="77.05" y2="58.52"/><line class="cls-10" x1="77.05" y1="160.68" x2="77.05" y2="160.13"/><line class="cls-10" x1="69.93" y1="160.13" x2="70.62" y2="160.13"/><line class="cls-10" x1="77.05" y1="57.83" x2="77.05" y2="58.52"/><line class="cls-10" x1="69.93" y1="58.52" x2="70.62" y2="58.52"/><line class="cls-10" x1="77.05" y1="160.68" x2="77.05" y2="162.73"/><line class="cls-10" x1="77.05" y1="55.92" x2="77.05" y2="57.83"/><line class="cls-10" x1="69.93" y1="160.68" x2="69.93" y2="160.13"/><line class="cls-10" x1="69.93" y1="57.83" x2="69.93" y2="58.52"/><polyline class="cls-10" points="77.05 162.73 80.34 162.73 93.35 162.73"/><polyline class="cls-10" points="77.05 55.92 80.34 55.92 93.35 55.92"/><line class="cls-10" x1="70.62" y1="1" x2="77.05" y2="1"/><line class="cls-10" x1="77.05" y1="1" x2="77.05" y2="1"/><line class="cls-10" x1="69.93" y1="1" x2="70.62" y2="1"/><line class="cls-10" x1="77.05" y1="1" x2="77.05" y2="1"/><line class="cls-10" x1="69.93" y1="1" x2="69.93" y2="1"/><polyline class="cls-10" points="77.05 1 80.34 1 93.35 1"/><line class="cls-10" x1="93.35" y1="421.41" x2="93.35" y2="366.5"/><line class="cls-10" x1="93.35" y1="259.68" x2="93.35" y2="162.73"/><line class="cls-10" x1="93.35" y1="55.92" x2="93.35" y2="1"/><line class="cls-10" x1="69.93" y1="1" x2="69.93" y2="57.83"/><line class="cls-10" x1="69.93" y1="160.68" x2="69.93" y2="261.6"/><line class="cls-10" x1="69.93" y1="364.58" x2="69.93" y2="421.41"/><line class="cls-7" x1="93.35" y1="366.5" x2="93.35" y2="259.68"/><polyline class="cls-7" points="69.93 363.9 69.93 262.29 69.93 363.9"/><line class="cls-7" x1="93.35" y1="259.68" x2="93.35" y2="366.5"/><polyline class="cls-7" points="80.34 259.68 80.34 265.85 77.05 265.85 77.05 259.68"/><polyline class="cls-7" points="77.05 313.09 77.05 308.85 80.34 308.85 80.34 313.09"/><line class="cls-7" x1="80.34" y1="265.85" x2="80.34" y2="308.85"/><line class="cls-7" x1="77.05" y1="308.85" x2="77.05" y2="265.85"/><polyline class="cls-7" points="80.34 313.09 80.34 317.34 77.05 317.34 77.05 313.09"/><polyline class="cls-7" points="77.05 366.5 77.05 360.34 80.34 360.34 80.34 366.5"/><line class="cls-7" x1="80.34" y1="317.34" x2="80.34" y2="360.34"/><line class="cls-7" x1="77.05" y1="360.34" x2="77.05" y2="317.34"/><polyline class="cls-7" points="93.35 259.68 80.34 259.68 77.05 259.68 80.34 259.68"/><polyline class="cls-7" points="93.35 366.5 80.34 366.5 77.05 366.5 80.34 366.5"/><polyline class="cls-7" points="77.05 261.6 77.05 259.68 77.05 261.6"/><polyline class="cls-7" points="77.05 366.5 77.05 364.58 77.05 366.5"/><line class="cls-7" x1="69.93" y1="262.29" x2="70.62" y2="262.29"/><polyline class="cls-7" points="77.05 262.29 77.05 261.6 77.05 262.29"/><line class="cls-7" x1="69.93" y1="363.9" x2="70.62" y2="363.9"/><polyline class="cls-7" points="77.05 363.9 77.05 364.58 77.05 363.9"/><line class="cls-7" x1="70.62" y1="262.29" x2="77.05" y2="262.29"/><line class="cls-7" x1="70.62" y1="363.9" x2="77.05" y2="363.9"/><line class="cls-11" x1="93.35" y1="162.73" x2="93.35" y2="55.92"/><polyline class="cls-11" points="69.93 160.13 69.93 58.52 69.93 160.13"/><line class="cls-11" x1="93.35" y1="55.92" x2="93.35" y2="162.73"/><polyline class="cls-7" points="80.34 55.92 80.34 62.08 77.05 62.08 77.05 55.92"/><polyline class="cls-7" points="77.05 109.32 77.05 105.08 80.34 105.08 80.34 109.32"/><line class="cls-7" x1="80.34" y1="62.08" x2="123.34" y2="62.08"/><polyline class="cls-7" points="80.34 109.32 80.34 113.57 77.05 113.57 77.05 109.32"/><polyline class="cls-7" points="77.05 162.73 77.05 156.57 80.34 156.57 80.34 162.73"/><line class="cls-7" x1="80.34" y1="156.57" x2="123.34" y2="156.57"/><path class="cls-7" d="M108.75,105.08A43.07,43.07,0,0,0,151.82,62" transform="translate(-28.35)"/><path class="cls-7" d="M151.82,156.5a43.07,43.07,0,0,0-43.07-43.07" transform="translate(-28.35)"/><polyline class="cls-7" points="93.35 55.92 80.34 55.92 77.05 55.92 80.34 55.92"/><polyline class="cls-7" points="93.35 162.73 80.34 162.73 77.05 162.73 80.34 162.73"/><polyline class="cls-7" points="77.05 57.83 77.05 55.92 77.05 57.83"/><polyline class="cls-7" points="77.05 162.73 77.05 160.68 77.05 162.73"/><line class="cls-7" x1="69.93" y1="58.52" x2="70.62" y2="58.52"/><polyline class="cls-7" points="77.05 58.52 77.05 57.83 77.05 58.52"/><line class="cls-7" x1="69.93" y1="160.13" x2="70.62" y2="160.13"/><polyline class="cls-7" points="77.05 160.13 77.05 160.68 77.05 160.13"/><line class="cls-7" x1="70.62" y1="58.52" x2="77.05" y2="58.52"/><line class="cls-7" x1="70.62" y1="160.13" x2="77.05" y2="160.13"/><line class="cls-7" x1="93.35" y1="1" x2="93.35" y2="1"/><line class="cls-7" x1="69.93" y1="1" x2="69.93" y2="1"/><line class="cls-7" x1="69.93" y1="1" x2="69.93" y2="1"/><line class="cls-7" x1="93.35" y1="1" x2="93.35" y2="1"/><polyline class="cls-7" points="77.05 1 77.05 1 80.34 1 80.34 1"/><line class="cls-7" x1="80.34" y1="1" x2="80.34" y2="1"/><line class="cls-7" x1="77.05" y1="1" x2="77.05" y2="1"/><polyline class="cls-7" points="93.35 1 80.34 1 77.05 1 80.34 1"/><polyline class="cls-7" points="77.05 1 77.05 1 77.05 1"/><line class="cls-7" x1="69.93" y1="1" x2="70.62" y2="1"/><polyline class="cls-7" points="77.05 1 77.05 1 77.05 1"/><line class="cls-7" x1="70.62" y1="1" x2="77.05" y2="1"/><line class="cls-10" x1="542.92" y1="421.41" x2="542.92" y2="421.41"/><polyline class="cls-7" points="591.4 52.63 565.52 52.63 565.52 91.52 591.4 91.52 591.4 52.63"/><polyline class="cls-7" points="584.28 55.92 585.51 56.05 586.61 56.74 587.43 57.56 587.98 58.66 588.25 59.75 588.25 74.68 587.98 75.91 587.43 77 586.61 77.83 585.51 78.38 584.28 78.51 572.64 78.51 571.54 78.38 570.45 77.83 569.49 77 568.94 75.91 568.81 74.68 568.81 59.75 568.94 58.66 569.49 57.56 570.45 56.74 571.54 56.05 572.64 55.92 584.28 55.92"/><polyline class="cls-7" points="570.45 81.8 586.61 81.8 587.43 82.07 587.98 82.62 588.25 83.44 588.25 84.4 587.98 85.63 587.43 86.73 586.61 87.55 585.51 88.1 584.28 88.23 572.64 88.23 571.54 88.1 570.45 87.55 569.49 86.73 568.94 85.63 568.81 84.4 568.81 83.44 569.08 82.62 569.63 82.07 570.45 81.8"/><polyline class="cls-7" points="591.4 130.28 565.52 130.28 565.52 91.52 591.4 91.52 591.4 130.28"/><polyline class="cls-7" points="584.28 127.13 585.51 126.85 586.61 126.3 587.43 125.48 587.98 124.39 588.25 123.16 588.25 108.36 587.98 107.13 587.43 106.04 586.61 105.22 585.51 104.67 584.28 104.39 572.64 104.39 571.54 104.67 570.45 105.22 569.49 106.04 568.94 107.13 568.81 108.36 568.81 123.16 568.94 124.39 569.49 125.48 570.45 126.3 571.54 126.85 572.64 127.13 584.28 127.13"/><polyline class="cls-7" points="570.45 101.24 586.61 101.24 587.43 100.97 587.98 100.42 588.25 99.6 588.25 98.64 587.98 97.41 587.43 96.31 586.61 95.49 585.51 94.94 584.28 94.81 572.64 94.81 571.54 94.94 570.45 95.49 569.49 96.31 568.94 97.41 568.81 98.64 568.81 99.6 569.08 100.42 569.63 100.97 570.45 101.24"/><line class="cls-11" x1="66.78" y1="178.89" x2="40.9" y2="178.89"/><line class="cls-11" x1="37.61" y1="182.04" x2="66.78" y2="182.04"/><line class="cls-11" x1="40.9" y1="178.89" x2="40.9" y2="61.8"/><line class="cls-11" x1="37.61" y1="58.52" x2="37.61" y2="182.04"/><line class="cls-11" x1="40.9" y1="61.8" x2="66.78" y2="61.8"/><line class="cls-11" x1="66.78" y1="58.52" x2="37.61" y2="58.52"/><polyline class="cls-11" points="66.78 182.04 68.42 182.04 68.42 178.89 66.78 178.89"/><polyline class="cls-11" points="66.78 61.8 68.42 61.8 68.42 58.52 66.78 58.52"/><line class="cls-11" x1="66.78" y1="179.71" x2="40.08" y2="179.71"/><polyline class="cls-11" points="38.44 181.22 66.78 181.22 66.78 179.71"/><line class="cls-11" x1="40.08" y1="179.71" x2="40.08" y2="60.98"/><line class="cls-11" x1="38.43" y1="59.34" x2="38.43" y2="181.22"/><polyline class="cls-11" points="40.08 60.98 66.78 60.98 66.78 59.34 38.44 59.34"/><polyline class="cls-11" points="67.6 181.22 67.6 179.71 65.96 179.71 65.96 181.22 67.6 181.22"/><polyline class="cls-11" points="40.08 181.22 40.08 179.71 38.44 179.71 38.44 181.22 40.08 181.22"/><polyline class="cls-11" points="38.44 60.98 40.08 60.98 40.08 59.34 38.44 59.34 38.44 60.98"/><polyline class="cls-11" points="65.96 59.34 65.96 60.98 67.6 60.98 67.6 59.34 65.96 59.34"/><polyline class="cls-11" points="58.43 181.22 58.43 179.71 56.78 179.71 56.78 181.22 58.43 181.22"/><polyline class="cls-11" points="49.25 181.22 49.25 179.71 47.61 179.71 47.61 181.22 49.25 181.22"/><polyline class="cls-11" points="38.44 172.04 40.08 172.04 40.08 170.4 38.44 170.4 38.44 172.04"/><polyline class="cls-11" points="38.44 162.73 40.08 162.73 40.08 161.09 38.44 161.09 38.44 162.73"/><polyline class="cls-11" points="38.44 153.56 40.08 153.56 40.08 151.91 38.44 151.91 38.44 153.56"/><polyline class="cls-11" points="38.44 144.24 40.08 144.24 40.08 142.6 38.44 142.6 38.44 144.24"/><polyline class="cls-11" points="38.44 134.93 40.08 134.93 40.08 133.43 38.44 133.43 38.44 134.93"/><polyline class="cls-11" points="38.44 125.76 40.08 125.76 40.08 124.11 38.44 124.11 38.44 125.76"/><polyline class="cls-11" points="38.44 116.44 40.08 116.44 40.08 114.8 38.44 114.8 38.44 116.44"/><polyline class="cls-11" points="38.44 107.27 40.08 107.27 40.08 105.63 38.44 105.63 38.44 107.27"/><polyline class="cls-11" points="38.44 97.96 40.08 97.96 40.08 96.31 38.44 96.31 38.44 97.96"/><polyline class="cls-11" points="38.44 88.64 40.08 88.64 40.08 87.14 38.44 87.14 38.44 88.64"/><polyline class="cls-11" points="38.44 79.47 40.08 79.47 40.08 77.83 38.44 77.83 38.44 79.47"/><polyline class="cls-11" points="38.44 70.16 40.08 70.16 40.08 68.52 38.44 68.52 38.44 70.16"/><polyline class="cls-11" points="47.61 59.34 47.61 60.98 49.25 60.98 49.25 59.34 47.61 59.34"/><polyline class="cls-11" points="56.78 59.34 56.78 60.98 58.43 60.98 58.43 59.34 56.78 59.34"/><line class="cls-5" x1="438.16" y1="17.71" x2="471.17" y2="17.71"/><line class="cls-5" x1="475" y1="21.41" x2="475" y2="103.85"/><line class="cls-5" x1="434.19" y1="21.41" x2="434.19" y2="103.85"/><line class="cls-5" x1="478.84" y1="127.13" x2="478.84" y2="13.88"/><polyline class="cls-5" points="478.84 127.13 430.36 127.13 430.36 13.88 478.84 13.88"/><line class="cls-5" x1="441.04" y1="90.56" x2="441.04" y2="26.06"/><line class="cls-5" x1="442.96" y1="24.28" x2="466.24" y2="24.28"/><line class="cls-5" x1="468.29" y1="90.56" x2="468.29" y2="26.06"/><line class="cls-5" x1="453.37" y1="37.43" x2="451.04" y2="37.43"/><line class="cls-5" x1="454.6" y1="36.33" x2="454.6" y2="34.01"/><line class="cls-5" x1="455.83" y1="37.43" x2="458.16" y2="37.43"/><line class="cls-5" x1="454.6" y1="38.66" x2="454.6" y2="40.99"/><path class="cls-5" d="M462.68,103.78c0,10.93,9.1,19.79,20.33,19.79s20.34-8.86,20.34-19.79" transform="translate(-28.35)"/><path class="cls-5" d="M503.49,21.34a3.84,3.84,0,0,0-3.91-3.77" transform="translate(-28.35)"/><path class="cls-5" d="M466.58,17.57a3.83,3.83,0,0,0-3.9,3.77" transform="translate(-28.35)"/><path class="cls-5" d="M485,37.36a2,2,0,1,0-2,2,2,2,0,0,0,2-2" transform="translate(-28.35)"/><path class="cls-5" d="M469.39,90.49a13.63,13.63,0,0,0,27.25,0" transform="translate(-28.35)"/><path class="cls-5" d="M471.37,24.15a1.91,1.91,0,0,0-2,1.84" transform="translate(-28.35)"/><path class="cls-5" d="M496.64,26a1.92,1.92,0,0,0-2-1.84" transform="translate(-28.35)"/><path class="cls-5" d="M485.68,37.36A2.67,2.67,0,1,0,483,40a2.67,2.67,0,0,0,2.67-2.67" transform="translate(-28.35)"/><line class="cls-5" x1="532.24" y1="90.29" x2="532.24" y2="129.18"/><line class="cls-5" x1="532.24" y1="129.18" x2="564.7" y2="129.18"/><line class="cls-5" x1="564.7" y1="129.18" x2="564.7" y2="90.29"/><line class="cls-5" x1="564.7" y1="90.29" x2="532.24" y2="90.29"/><polyline class="cls-5" points="540.46 113.7 540.46 105.9 543.06 111.1 545.66 105.9 545.66 113.7"/><polyline class="cls-5" points="553.33 112.47 552.1 113.7 549.5 113.7 548.13 112.47 548.13 107.27 549.5 105.9 552.1 105.9 553.33 107.27"/><polyline class="cls-7" points="425.57 123.84 425.57 13.88 309.03 13.88"/><polyline class="cls-7" points="386.68 123.84 386.68 52.63 309.03 52.63 309.03 13.88"/><path class="cls-7" d="M420,104.33a1.3,1.3,0,0,0,1.3,1.3" transform="translate(-28.35)"/><line class="cls-7" x1="422.55" y1="105.76" x2="392.84" y2="105.76"/><path class="cls-7" d="M451,105.63a1.3,1.3,0,0,0,1.3-1.3" transform="translate(-28.35)"/><line class="cls-7" x1="423.92" y1="55.23" x2="423.92" y2="104.39"/><path class="cls-7" d="M452.27,55.16a1.3,1.3,0,0,0-1.3-1.3" transform="translate(-28.35)"/><line class="cls-7" x1="392.84" y1="54" x2="422.55" y2="54"/><path class="cls-7" d="M421.25,53.86a1.3,1.3,0,0,0-1.3,1.3" transform="translate(-28.35)"/><line class="cls-7" x1="391.47" y1="104.39" x2="391.47" y2="55.23"/><line class="cls-7" x1="386.67" y1="123.84" x2="386.67" y2="52.63"/><polyline class="cls-7" points="386.68 123.84 425.57 123.84 425.57 35.92"/><line class="cls-7" x1="394.75" y1="101.24" x2="394.75" y2="82.07"/><line class="cls-7" x1="396.12" y1="80.84" x2="416.12" y2="80.84"/><line class="cls-7" x1="417.35" y1="82.07" x2="417.35" y2="101.24"/><line class="cls-7" x1="416.12" y1="102.48" x2="396.12" y2="102.48"/><line class="cls-7" x1="394.75" y1="101.24" x2="394.75" y2="101.24"/><line class="cls-7" x1="394.75" y1="77.55" x2="394.75" y2="58.52"/><line class="cls-7" x1="396.12" y1="57.29" x2="416.12" y2="57.29"/><line class="cls-7" x1="417.35" y1="58.52" x2="417.35" y2="77.55"/><line class="cls-7" x1="416.12" y1="78.92" x2="396.12" y2="78.92"/><line class="cls-7" x1="394.75" y1="77.55" x2="394.75" y2="77.55"/><path class="cls-7" d="M424.54,80.7a1.3,1.3,0,0,0-1.3,1.3" transform="translate(-28.35)"/><path class="cls-7" d="M445.83,82a1.3,1.3,0,0,0-1.3-1.3" transform="translate(-28.35)"/><path class="cls-7" d="M444.53,102.48a1.3,1.3,0,0,0,1.3-1.3" transform="translate(-28.35)"/><path class="cls-7" d="M423.24,101.18a1.3,1.3,0,0,0,1.3,1.3" transform="translate(-28.35)"/><path class="cls-7" d="M424.54,57.15a1.3,1.3,0,0,0-1.3,1.3" transform="translate(-28.35)"/><path class="cls-7" d="M445.83,58.45a1.3,1.3,0,0,0-1.3-1.3" transform="translate(-28.35)"/><path class="cls-7" d="M444.53,78.79a1.31,1.31,0,0,0,1.3-1.31" transform="translate(-28.35)"/><path class="cls-7" d="M423.24,77.48a1.31,1.31,0,0,0,1.3,1.31" transform="translate(-28.35)"/><line class="cls-7" x1="306.84" y1="421.41" x2="403.79" y2="421.41"/><line class="cls-5" x1="431.04" y1="1" x2="487.87" y2="1"/><path class="cls-5" d="M516.29.87a.62.62,0,0,0,.62-.62" transform="translate(-28.35)"/><path class="cls-5" d="M458.84.25a.62.62,0,0,0,.62.62" transform="translate(-28.35)"/><path class="cls-7" d="M564.83,421.41" transform="translate(-28.35)"/><polyline class="cls-7" points="536.49 421.41 542.92 421.41 542.92 421.41"/><line class="cls-7" x1="536.49" y1="421.41" x2="536.49" y2="421.41"/><polyline class="cls-7" points="591.4 13.88 570.72 13.88 570.72 46.19"/><path class="cls-7" d="M599.07,46.19" transform="translate(-28.35)"/><polyline class="cls-7" points="570.72 46.19 591.4 46.19 591.4 13.88"/><line class="cls-5" x1="591.4" y1="224.35" x2="552.65" y2="224.35"/><line class="cls-5" x1="552.65" y1="224.35" x2="552.65" y2="306.65"/><polyline class="cls-5" points="542.92 421.41 542.92 421.41 536.49 421.41 536.49 421.41"/><polyline class="cls-5" points="591.4 52.63 570.72 52.63 570.72 13.88 591.4 13.88 591.4 52.63"/><path class="cls-5" d="M632.76,319.53" transform="translate(-28.35)"/><polyline class="cls-5" points="604.41 319.53 542.92 319.53 542.92 421.41"/><line class="cls-5" x1="550.73" y1="26.88" x2="550.73" y2="49.34"/><polyline class="cls-5" points="551.69 25.52 551.69 17.16 527.72 17.16"/><line class="cls-5" x1="539.64" y1="30.86" x2="530.87" y2="30.86"/><polyline class="cls-5" points="550.73 49.34 548.54 30.86 539.64 30.86"/><line class="cls-5" x1="528.68" y1="49.34" x2="530.87" y2="30.86"/><line class="cls-5" x1="550.18" y1="49.34" x2="547.99" y2="30.86"/><line class="cls-5" x1="529.23" y1="49.34" x2="531.42" y2="30.86"/><line class="cls-5" x1="528.68" y1="26.88" x2="528.68" y2="49.34"/><line class="cls-5" x1="527.72" y1="17.16" x2="527.72" y2="25.52"/><polyline class="cls-5" points="550.73 49.34 550.46 51.81 549.5 54.27 547.99 56.33 545.94 57.97 543.61 59.07 541.01 59.75 538.4 59.75 535.8 59.07 533.48 57.97 531.42 56.33 529.91 54.27 528.96 51.81 528.68 49.34"/><polyline class="cls-5" points="550.18 49.34 549.91 51.67 548.95 54 547.58 55.92 545.66 57.56 543.34 58.66 541.01 59.2 538.4 59.2 535.94 58.66 533.75 57.56 531.83 55.92 530.46 54 529.5 51.67 529.23 49.34"/><path class="cls-5" d="M557.34,26.86a100.43,100.43,0,0,0,21.44,0" transform="translate(-28.35)"/><path class="cls-5" d="M578.89,26.88a1.44,1.44,0,0,0,1.28-1.43" transform="translate(-28.35)"/><path class="cls-5" d="M556.07,25.45a1.44,1.44,0,0,0,1.29,1.43" transform="translate(-28.35)"/><path class="cls-5" d="M568.05,21.27a1.17,1.17,0,1,0,1.17,1.16,1.16,1.16,0,0,0-1.17-1.16" transform="translate(-28.35)"/><line class="cls-10" x1="531.01" y1="130.28" x2="531.01" y2="135.48"/><line class="cls-10" x1="482.4" y1="130.28" x2="482.4" y2="135.48"/><line class="cls-10" x1="425.57" y1="135.48" x2="446.24" y2="135.48"/><line class="cls-10" x1="451.45" y1="135.48" x2="482.4" y2="135.48"/><line class="cls-10" x1="531.01" y1="135.48" x2="591.4" y2="135.48"/><line class="cls-10" x1="565.52" y1="130.28" x2="531.01" y2="130.28"/><line class="cls-10" x1="482.4" y1="130.28" x2="430.63" y2="130.28"/><path class="cls-7" d="M513.48,135.41a43.28,43.28,0,0,0,5.81,21.67" transform="translate(-28.35)"/><polyline class="cls-7" points="482.4 130.28 485 130.28 485 135.48 482.4 135.48 482.4 130.28"/><polyline class="cls-7" points="531.01 135.48 528.41 135.48 528.41 130.28 531.01 130.28 531.01 135.48"/><line class="cls-7" x1="528.41" y1="135.48" x2="490.89" y2="157.12"/><polyline class="cls-7" points="482.4 135.48 482.4 130.28 482.4 135.48"/><polyline class="cls-7" points="531.01 135.48 531.01 130.28 531.01 135.48"/><polyline class="cls-10" points="80.34 26.75 93.35 26.75 93.35 1 80.34 1 80.34 26.75"/><polyline class="cls-10" points="80.34 256.54 93.35 256.54 93.35 217.64 80.34 217.64 80.34 256.54"/><polyline class="cls-10" points="93.35 421.41 93.35 421.41 69.93 421.41 80.34 421.41"/><polyline class="cls-10" points="365.04 408.54 365.04 421.41 416.8 421.41 416.8 408.54 365.04 408.54"/><polyline class="cls-10" points="365.04 204.77 365.04 217.64 416.8 217.64 416.8 204.77 365.04 204.77"/><polyline class="cls-10" points="604.41 257.77 591.4 257.77 591.4 296.66 604.41 296.66 604.41 257.77"/><polyline class="cls-5" points="478.84 28.66 478.84 13.88 513.76 13.88 513.76 28.66"/><line class="cls-5" x1="501.84" y1="13.88" x2="490.89" y2="13.88"/><line class="cls-5" x1="499.24" y1="25.79" x2="497.46" y2="25.79"/><line class="cls-5" x1="496.36" y1="22.78" x2="496.36" y2="24.69"/><line class="cls-5" x1="495.27" y1="25.79" x2="493.35" y2="25.79"/><line class="cls-5" x1="496.36" y1="26.75" x2="496.36" y2="28.67"/><path class="cls-5" d="M515.53,22.11a15.51,15.51,0,0,0-6,7.35" transform="translate(-28.35)"/><path class="cls-5" d="M524.8,20a15.52,15.52,0,0,0-9.27,2.18" transform="translate(-28.35)"/><path class="cls-5" d="M540.06,29.46a15.51,15.51,0,0,0-6-7.35" transform="translate(-28.35)"/><path class="cls-5" d="M534,22.13A15.52,15.52,0,0,0,524.76,20" transform="translate(-28.35)"/><path class="cls-5" d="M512.91,37.34a28.52,28.52,0,0,0,10.59,2.89" transform="translate(-28.35)"/><path class="cls-5" d="M538.93,35.9a8.82,8.82,0,0,0,3.3-7.27" transform="translate(-28.35)"/><path class="cls-5" d="M523.56,40.26a16.56,16.56,0,0,0,2.44,0" transform="translate(-28.35)"/><path class="cls-5" d="M534.56,22.71a63.51,63.51,0,0,0-19.56,0" transform="translate(-28.35)"/><path class="cls-5" d="M541.28,30.89a22,22,0,0,0-5-14.29" transform="translate(-28.35)"/><path class="cls-5" d="M534.73,15.51a43.8,43.8,0,0,0-10-1.09" transform="translate(-28.35)"/><path class="cls-5" d="M536.37,16.6a3,3,0,0,0-1.63-1" transform="translate(-28.35)"/><path class="cls-5" d="M534.65,16.5a75.65,75.65,0,0,0-9.86-.71" transform="translate(-28.35)"/><path class="cls-5" d="M541.42,30.91a19.77,19.77,0,0,0-4.95-13.34" transform="translate(-28.35)"/><path class="cls-5" d="M536.44,17.47a3,3,0,0,0-1.81-1" transform="translate(-28.35)"/><path class="cls-5" d="M513.1,17.55a19.76,19.76,0,0,0-5,13.33" transform="translate(-28.35)"/><path class="cls-5" d="M513.12,16.58a22,22,0,0,0-5,14.28" transform="translate(-28.35)"/><path class="cls-5" d="M524.73,15.79a75.49,75.49,0,0,0-9.85.7" transform="translate(-28.35)"/><path class="cls-5" d="M524.76,14.42a43.78,43.78,0,0,0-10,1.07" transform="translate(-28.35)"/><path class="cls-5" d="M514.93,16.5a3,3,0,0,0-1.81,1" transform="translate(-28.35)"/><path class="cls-5" d="M514.82,15.59a2.93,2.93,0,0,0-1.63,1" transform="translate(-28.35)"/><path class="cls-5" d="M507.33,28.63a8.84,8.84,0,0,0,3.29,7.27" transform="translate(-28.35)"/><path class="cls-5" d="M510.56,35.92a14.15,14.15,0,0,0,2.32,1.5" transform="translate(-28.35)"/><path class="cls-5" d="M536.54,37.42a14.15,14.15,0,0,0,2.32-1.5" transform="translate(-28.35)"/><path class="cls-5" d="M525.92,40.23a28.52,28.52,0,0,0,10.59-2.89" transform="translate(-28.35)"/><path class="cls-5" d="M520,37.82a20.5,20.5,0,0,0,9.6,0" transform="translate(-28.35)"/><path class="cls-5" d="M509.39,29.47a5.24,5.24,0,0,0,1.81,4.35" transform="translate(-28.35)"/><path class="cls-5" d="M511.26,33.83a19.14,19.14,0,0,0,8.72,4" transform="translate(-28.35)"/><path class="cls-5" d="M538.36,33.82a5.26,5.26,0,0,0,1.81-4.35" transform="translate(-28.35)"/><path class="cls-5" d="M529.58,37.83a19.14,19.14,0,0,0,8.72-4" transform="translate(-28.35)"/><path class="cls-5" d="M527,25.72A2.26,2.26,0,1,0,524.78,28,2.26,2.26,0,0,0,527,25.72" transform="translate(-28.35)"/><path class="cls-5" d="M526.35,25.72a1.58,1.58,0,0,0-3.15,0,1.58,1.58,0,1,0,3.15,0" transform="translate(-28.35)"/></svg>