<svg id="_210" data-name="210" xmlns="http://www.w3.org/2000/svg" viewBox="0 0 193.68 270.63"><defs><style>.cls-1{isolation:isolate;font-size:6px;fill:#969696;font-family:PTSans-Regular, PT Sans;}.cls-10,.cls-11,.cls-12,.cls-13,.cls-2,.cls-6{fill:none;}.cls-2{stroke:#969696;stroke-width:0.37px;}.cls-10,.cls-11,.cls-12,.cls-13,.cls-2{stroke-linecap:round;stroke-linejoin:round;}.cls-3{font-size:14px;}.cls-3,.cls-7{fill:#231f20;font-family:BigCityGrotesquePro-Regular, BigCity Grotesque Pro;}.cls-4{letter-spacing:-0.04em;}.cls-5{letter-spacing:-0.02em;}.cls-10,.cls-11,.cls-12,.cls-13,.cls-6{stroke:#000;}.cls-6{stroke-miterlimit:10;}.cls-13,.cls-6{stroke-width:0.5px;}.cls-7{font-size:18px;}.cls-8{letter-spacing:-0.02em;}.cls-9{letter-spacing:-0.02em;}.cls-11{stroke-width:0.2px;}.cls-12{stroke-width:0.54px;}</style></defs><title>2floor_210flat</title><text class="cls-1" transform="translate(94.55 269.03)">двор</text><line class="cls-2" x1="89.17" y1="270.44" x2="89.17" y2="266.04"/><polyline class="cls-2" points="87.42 268.69 89.17 270.44 90.92 268.69"/><text class="cls-3" transform="translate(89.77 43.27)">5<tspan class="cls-4" x="6.9" y="0">.</tspan><tspan x="9.53" y="0">10</tspan></text><text class="cls-3" transform="translate(22.68 43.27)">4<tspan class="cls-5" x="7.67" y="0">.</tspan><tspan x="10.61" y="0">00</tspan></text><text class="cls-3" transform="translate(129.36 189.37)">12<tspan class="cls-4" x="11.66" y="0">.</tspan><tspan x="14.29" y="0">10</tspan></text><text class="cls-3" transform="translate(35.06 170.87)">11.40</text><rect class="cls-6" x="111" y="81.65" width="62.22" height="24.35"/><rect class="cls-6" x="111" y="106" width="62.22" height="24.35"/><rect class="cls-6" x="111" y="130.36" width="62.22" height="24.35"/><text class="cls-7" transform="translate(119.59 99.31)">№210<tspan x="14.38" y="24">1</tspan><tspan class="cls-8" x="20.72" y="24">К</tspan><tspan x="1.55" y="48">32</tspan><tspan class="cls-9" x="19.21" y="48">.</tspan><tspan x="23.02" y="48">60</tspan></text><line class="cls-10" x1="0.5" y1="189.19" x2="0.5" y2="181.99"/><line class="cls-10" x1="0.5" y1="181.99" x2="0.5" y2="181.99"/><line class="cls-10" x1="0.5" y1="189.19" x2="0.5" y2="189.19"/><line class="cls-10" x1="23.55" y1="189.19" x2="23.55" y2="187.66"/><line class="cls-10" x1="7.69" y1="181.99" x2="7.69" y2="189.19"/><line class="cls-10" x1="75.41" y1="187.66" x2="75.41" y2="189.19"/><line class="cls-10" x1="7.69" y1="189.19" x2="23.55" y2="189.19"/><line class="cls-10" x1="23.55" y1="181.99" x2="7.69" y2="181.99"/><line class="cls-10" x1="101.41" y1="181.99" x2="101.32" y2="181.99"/><line class="cls-10" x1="101.32" y1="181.99" x2="99.01" y2="181.99"/><line class="cls-10" x1="99.01" y1="181.99" x2="75.41" y2="181.99"/><line class="cls-10" x1="181.99" y1="189.19" x2="181.99" y2="181.99"/><line class="cls-10" x1="181.99" y1="181.99" x2="179.01" y2="181.99"/><line class="cls-10" x1="98.43" y1="189.19" x2="103.18" y2="193.94"/><line class="cls-10" x1="107.73" y1="198.49" x2="112.82" y2="193.4"/><line class="cls-10" x1="103.18" y1="193.94" x2="107.73" y2="198.49"/><line class="cls-10" x1="112.82" y1="193.4" x2="101.41" y2="181.99"/><line class="cls-11" x1="139.86" y1="229.28" x2="140.23" y2="228.91"/><line class="cls-12" x1="113.21" y1="192.97" x2="140.23" y2="219.95"/><line class="cls-10" x1="152.94" y1="208.06" x2="158.03" y2="213.15"/><line class="cls-10" x1="181.99" y1="189.19" x2="181.99" y2="189.19"/><line class="cls-10" x1="152.94" y1="208.06" x2="179.01" y2="181.99"/><line class="cls-12" x1="140.23" y1="219.95" x2="152.54" y2="207.63"/><line class="cls-11" x1="140.23" y1="228.91" x2="140.56" y2="229.28"/><line class="cls-10" x1="73.52" y1="72.39" x2="73.52" y2="70.07"/><line class="cls-10" x1="106.93" y1="72.39" x2="106.93" y2="70.07"/><line class="cls-10" x1="96.57" y1="70.07" x2="96.57" y2="72.39"/><line class="cls-10" x1="129.98" y1="70.07" x2="129.98" y2="72.39"/><line class="cls-10" x1="134.74" y1="72.94" x2="134.74" y2="72.39"/><line class="cls-10" x1="134.74" y1="70.07" x2="129.98" y2="70.07"/><line class="cls-10" x1="96.57" y1="72.39" x2="99.01" y2="72.39"/><line class="cls-10" x1="101.32" y1="72.39" x2="106.93" y2="72.39"/><line class="cls-10" x1="106.93" y1="70.07" x2="96.57" y2="70.07"/><line class="cls-10" x1="64.46" y1="70.07" x2="64.46" y2="72.39"/><line class="cls-12" x1="0.5" y1="7.05" x2="7.05" y2="0.5"/><line class="cls-12" x1="0.5" y1="13.61" x2="7.69" y2="6.41"/><line class="cls-12" x1="0.5" y1="20.2" x2="7.69" y2="13"/><line class="cls-12" x1="0.5" y1="26.75" x2="7.69" y2="19.55"/><line class="cls-12" x1="0.5" y1="33.34" x2="7.69" y2="26.14"/><line class="cls-12" x1="0.5" y1="39.92" x2="7.69" y2="32.69"/><line class="cls-12" x1="0.5" y1="46.48" x2="7.69" y2="39.28"/><line class="cls-12" x1="0.5" y1="53.06" x2="7.69" y2="45.84"/><line class="cls-12" x1="0.5" y1="59.62" x2="7.69" y2="52.42"/><line class="cls-12" x1="0.5" y1="66.2" x2="7.69" y2="58.98"/><line class="cls-12" x1="0.5" y1="72.76" x2="7.69" y2="65.56"/><line class="cls-12" x1="0.5" y1="79.34" x2="7.69" y2="72.12"/><line class="cls-12" x1="0.5" y1="85.9" x2="7.69" y2="78.7"/><line class="cls-12" x1="0.5" y1="92.48" x2="7.69" y2="85.29"/><line class="cls-12" x1="0.5" y1="99.04" x2="7.69" y2="91.84"/><line class="cls-12" x1="0.5" y1="105.62" x2="7.69" y2="98.43"/><line class="cls-12" x1="0.5" y1="112.18" x2="7.69" y2="104.98"/><line class="cls-12" x1="0.5" y1="118.76" x2="7.69" y2="111.57"/><line class="cls-12" x1="0.5" y1="125.32" x2="7.69" y2="118.12"/><line class="cls-12" x1="0.5" y1="131.9" x2="7.69" y2="124.71"/><line class="cls-12" x1="0.5" y1="138.46" x2="7.69" y2="131.26"/><line class="cls-12" x1="0.5" y1="145.04" x2="7.69" y2="137.85"/><line class="cls-12" x1="0.5" y1="151.63" x2="7.69" y2="144.4"/><line class="cls-12" x1="0.5" y1="158.18" x2="7.69" y2="150.99"/><line class="cls-12" x1="0.5" y1="164.77" x2="7.69" y2="157.54"/><line class="cls-12" x1="0.5" y1="171.32" x2="7.69" y2="164.13"/><line class="cls-12" x1="0.5" y1="177.91" x2="7.69" y2="170.68"/><line class="cls-12" x1="0.5" y1="184.46" x2="7.69" y2="177.27"/><line class="cls-12" x1="2.33" y1="189.19" x2="7.69" y2="183.82"/><line class="cls-12" x1="1.2" y1="3.06" x2="1.26" y2="3"/><line class="cls-12" x1="2.02" y1="2.24" x2="3.76" y2="0.5"/><line class="cls-12" x1="0.5" y1="10.35" x2="3.67" y2="7.18"/><line class="cls-12" x1="4.49" y1="6.35" x2="4.55" y2="6.26"/><line class="cls-12" x1="5.32" y1="5.53" x2="7.69" y2="3.12"/><line class="cls-12" x1="0.5" y1="16.9" x2="1.2" y2="16.2"/><line class="cls-12" x1="2.02" y1="15.38" x2="2.09" y2="15.32"/><line class="cls-12" x1="2.85" y1="14.55" x2="6.96" y2="10.44"/><line class="cls-12" x1="0.5" y1="23.49" x2="4.49" y2="19.49"/><line class="cls-12" x1="5.32" y1="18.67" x2="5.38" y2="18.61"/><line class="cls-12" x1="6.14" y1="17.85" x2="7.69" y2="16.26"/><line class="cls-12" x1="0.5" y1="30.04" x2="2.02" y2="28.52"/><line class="cls-12" x1="2.85" y1="27.7" x2="2.91" y2="27.63"/><line class="cls-12" x1="3.67" y1="26.87" x2="7.69" y2="22.85"/><line class="cls-12" x1="1.2" y1="35.93" x2="5.32" y2="31.81"/><line class="cls-12" x1="6.14" y1="30.99" x2="6.2" y2="30.93"/><line class="cls-12" x1="6.96" y1="30.16" x2="7.69" y2="29.43"/><line class="cls-12" x1="0.5" y1="43.18" x2="2.85" y2="40.84"/><line class="cls-12" x1="3.67" y1="40.01" x2="3.73" y2="39.95"/><line class="cls-12" x1="4.49" y1="39.19" x2="7.69" y2="35.99"/><line class="cls-12" x1="1.2" y1="49.07" x2="1.26" y2="48.98"/><line class="cls-12" x1="2.02" y1="48.24" x2="6.14" y2="44.13"/><line class="cls-12" x1="6.96" y1="43.3" x2="7.02" y2="43.24"/><line class="cls-12" x1="0.5" y1="56.32" x2="3.67" y2="53.15"/><line class="cls-12" x1="4.49" y1="52.33" x2="4.55" y2="52.27"/><line class="cls-12" x1="5.32" y1="51.51" x2="7.69" y2="49.13"/><line class="cls-12" x1="0.5" y1="62.91" x2="1.2" y2="62.21"/><line class="cls-12" x1="2.02" y1="61.38" x2="2.09" y2="61.32"/><line class="cls-12" x1="2.85" y1="60.56" x2="6.96" y2="56.44"/><line class="cls-12" x1="0.5" y1="69.46" x2="4.49" y2="65.47"/><line class="cls-12" x1="5.32" y1="64.68" x2="5.38" y2="64.59"/><line class="cls-12" x1="6.14" y1="63.85" x2="7.69" y2="62.27"/><line class="cls-12" x1="0.5" y1="76.05" x2="2.02" y2="74.52"/><line class="cls-12" x1="2.85" y1="73.7" x2="2.91" y2="73.64"/><line class="cls-12" x1="3.67" y1="72.88" x2="7.69" y2="68.85"/><line class="cls-12" x1="1.2" y1="81.9" x2="5.32" y2="77.82"/><line class="cls-12" x1="6.14" y1="76.99" x2="6.2" y2="76.9"/><line class="cls-12" x1="6.96" y1="76.17" x2="7.69" y2="75.41"/><line class="cls-12" x1="0.5" y1="89.19" x2="2.85" y2="86.84"/><line class="cls-12" x1="3.67" y1="86.02" x2="3.73" y2="85.96"/><line class="cls-12" x1="4.49" y1="85.19" x2="7.69" y2="81.99"/><line class="cls-12" x1="1.2" y1="95.04" x2="1.26" y2="94.98"/><line class="cls-12" x1="2.02" y1="94.22" x2="6.14" y2="90.13"/><line class="cls-12" x1="6.96" y1="89.31" x2="7.02" y2="89.25"/><line class="cls-12" x1="0.5" y1="102.33" x2="3.67" y2="99.16"/><line class="cls-12" x1="4.49" y1="98.34" x2="4.55" y2="98.27"/><line class="cls-12" x1="5.32" y1="97.51" x2="7.69" y2="95.13"/><line class="cls-12" x1="0.5" y1="108.91" x2="1.2" y2="108.18"/><line class="cls-12" x1="2.02" y1="107.36" x2="2.09" y2="107.3"/><line class="cls-12" x1="2.85" y1="106.57" x2="6.96" y2="102.45"/><line class="cls-12" x1="0.5" y1="115.47" x2="4.49" y2="111.48"/><line class="cls-12" x1="5.32" y1="110.65" x2="5.38" y2="110.59"/><line class="cls-12" x1="6.14" y1="109.83" x2="7.69" y2="108.27"/><line class="cls-12" x1="0.5" y1="122.05" x2="2.02" y2="120.53"/><line class="cls-12" x1="2.85" y1="119.71" x2="2.91" y2="119.62"/><line class="cls-12" x1="3.67" y1="118.88" x2="7.69" y2="114.83"/><line class="cls-12" x1="1.2" y1="127.91" x2="5.32" y2="123.79"/><line class="cls-12" x1="6.14" y1="122.97" x2="6.2" y2="122.91"/><line class="cls-12" x1="6.96" y1="122.15" x2="7.69" y2="121.41"/><line class="cls-12" x1="0.5" y1="135.19" x2="2.85" y2="132.85"/><line class="cls-12" x1="3.67" y1="132.02" x2="3.73" y2="131.93"/><line class="cls-12" x1="4.49" y1="131.2" x2="7.69" y2="127.97"/><line class="cls-12" x1="1.2" y1="141.05" x2="1.26" y2="140.99"/><line class="cls-12" x1="2.02" y1="140.23" x2="6.14" y2="136.11"/><line class="cls-12" x1="6.96" y1="135.29" x2="7.02" y2="135.23"/><line class="cls-12" x1="0.5" y1="148.33" x2="3.67" y2="145.16"/><line class="cls-12" x1="4.49" y1="144.34" x2="4.55" y2="144.28"/><line class="cls-12" x1="5.32" y1="143.52" x2="7.69" y2="141.14"/><line class="cls-12" x1="0.5" y1="154.89" x2="1.2" y2="154.19"/><line class="cls-12" x1="2.02" y1="153.37" x2="2.09" y2="153.3"/><line class="cls-12" x1="2.85" y1="152.54" x2="6.96" y2="148.46"/><line class="cls-12" x1="0.5" y1="161.48" x2="4.49" y2="157.48"/><line class="cls-12" x1="5.32" y1="156.66" x2="5.38" y2="156.6"/><line class="cls-12" x1="6.14" y1="155.83" x2="7.69" y2="154.28"/><line class="cls-12" x1="0.5" y1="168.03" x2="2.02" y2="166.51"/><line class="cls-12" x1="2.85" y1="165.68" x2="2.91" y2="165.62"/><line class="cls-12" x1="3.67" y1="164.86" x2="7.69" y2="160.83"/><line class="cls-12" x1="1.2" y1="173.91" x2="5.32" y2="169.8"/><line class="cls-12" x1="6.14" y1="168.97" x2="6.2" y2="168.91"/><line class="cls-12" x1="6.96" y1="168.15" x2="7.69" y2="167.42"/><line class="cls-12" x1="0.5" y1="181.17" x2="2.85" y2="178.82"/><line class="cls-12" x1="3.67" y1="178" x2="3.73" y2="177.94"/><line class="cls-12" x1="4.49" y1="177.18" x2="7.69" y2="173.97"/><line class="cls-12" x1="1.2" y1="187.05" x2="1.26" y2="186.96"/><line class="cls-12" x1="2.02" y1="186.23" x2="6.14" y2="182.12"/><line class="cls-12" x1="6.96" y1="181.29" x2="7.02" y2="181.23"/><line class="cls-12" x1="5.62" y1="189.19" x2="7.69" y2="187.12"/><polyline class="cls-10" points="7.7 189.19 7.7 75.83 7.7 68.64 7.7 0.5 0.5 0.5 0.5 61.72 0.5 68.91 0.5 189.19 7.7 189.19"/><line class="cls-10" x1="60.99" y1="29.89" x2="64.46" y2="29.89"/><line class="cls-10" x1="64.46" y1="52.94" x2="60.99" y2="52.94"/><line class="cls-10" x1="60.99" y1="29.89" x2="60.99" y2="7.7"/><line class="cls-10" x1="60.99" y1="75.84" x2="60.99" y2="52.94"/><line class="cls-10" x1="73.52" y1="72.39" x2="64.46" y2="72.39"/><line class="cls-10" x1="64.46" y1="70.07" x2="73.52" y2="70.07"/><line class="cls-10" x1="64.46" y1="29.89" x2="64.46" y2="7.7"/><line class="cls-10" x1="64.46" y1="79.28" x2="64.46" y2="72.39"/><line class="cls-10" x1="64.46" y1="70.07" x2="64.46" y2="52.94"/><polyline class="cls-10" points="24.98 75.83 7.7 75.83 7.7 79.28"/><line class="cls-10" x1="28.43" y1="75.84" x2="60.99" y2="75.84"/><line class="cls-10" x1="7.69" y1="79.28" x2="64.46" y2="79.28"/><line class="cls-13" x1="166.96" y1="212.54" x2="166.17" y2="211.75"/><line class="cls-13" x1="166.57" y1="212.97" x2="165.74" y2="212.15"/><line class="cls-13" x1="178.4" y1="201.14" x2="177.57" y2="200.32"/><line class="cls-13" x1="178.79" y1="200.74" x2="177.97" y2="199.92"/><polyline class="cls-13" points="188.97 206.84 172.69 223.15 164.52 214.98 180.84 198.7 188.97 206.84"/><polyline class="cls-13" points="183.3 217.45 182.27 218.49 181.17 219.59 180.1 220.65 179 221.72 177.94 222.82 176.87 223.88 175.77 224.98 174.71 226.05 173.18 227.57 173.12 227.51 174.65 225.99 175.71 224.92 176.81 223.82 177.88 222.75 178.94 221.66 180.04 220.59 181.11 219.52 182.21 218.43 183.24 217.39 183.3 217.45"/><line class="cls-13" x1="182.21" y1="218.43" x2="182.27" y2="218.49"/><line class="cls-13" x1="181.11" y1="219.52" x2="181.17" y2="219.58"/><line class="cls-13" x1="180.04" y1="220.59" x2="180.1" y2="220.65"/><line class="cls-13" x1="178.94" y1="221.66" x2="179.01" y2="221.72"/><line class="cls-13" x1="177.88" y1="222.76" x2="177.94" y2="222.82"/><line class="cls-13" x1="176.81" y1="223.82" x2="176.87" y2="223.88"/><line class="cls-13" x1="175.71" y1="224.92" x2="175.77" y2="224.98"/><line class="cls-13" x1="174.65" y1="225.99" x2="174.71" y2="226.05"/><polyline class="cls-13" points="193.43 207.21 183.24 217.39 183.18 217.33 193.37 207.15 193.43 207.21"/><polyline class="cls-13" points="161.69 216.23 173 227.51 193.37 207.15 182.05 195.84"/><polyline class="cls-13" points="180.71 197.18 190.71 207.15 173 224.86 163 214.89"/><line class="cls-13" x1="190.62" y1="207.05" x2="172.88" y2="224.77"/><line class="cls-12" x1="181.99" y1="94.98" x2="187.15" y2="89.8"/><line class="cls-12" x1="181.99" y1="101.54" x2="189.19" y2="94.34"/><line class="cls-12" x1="181.99" y1="108.12" x2="189.19" y2="100.93"/><line class="cls-12" x1="181.99" y1="114.68" x2="189.19" y2="107.48"/><line class="cls-12" x1="181.99" y1="121.26" x2="189.19" y2="114.07"/><line class="cls-12" x1="181.99" y1="127.82" x2="189.19" y2="120.62"/><line class="cls-12" x1="181.99" y1="134.4" x2="189.19" y2="127.21"/><line class="cls-12" x1="181.99" y1="140.96" x2="189.19" y2="133.76"/><line class="cls-12" x1="181.99" y1="147.54" x2="189.19" y2="140.35"/><line class="cls-12" x1="181.99" y1="154.13" x2="189.19" y2="146.9"/><line class="cls-12" x1="181.99" y1="160.68" x2="189.19" y2="153.49"/><line class="cls-12" x1="181.99" y1="167.27" x2="189.19" y2="160.04"/><line class="cls-12" x1="181.99" y1="173.82" x2="189.19" y2="166.63"/><line class="cls-12" x1="181.99" y1="180.41" x2="189.19" y2="173.18"/><line class="cls-12" x1="181.99" y1="186.96" x2="189.19" y2="179.77"/><line class="cls-12" x1="186.32" y1="189.19" x2="189.19" y2="186.32"/><line class="cls-12" x1="182.72" y1="90.96" x2="183.85" y2="89.8"/><line class="cls-12" x1="181.99" y1="98.27" x2="184.37" y2="95.87"/><line class="cls-12" x1="185.19" y1="95.04" x2="185.26" y2="94.98"/><line class="cls-12" x1="186.02" y1="94.22" x2="189.19" y2="91.05"/><line class="cls-12" x1="182.72" y1="104.1" x2="182.79" y2="104.01"/><line class="cls-12" x1="183.55" y1="103.27" x2="187.66" y2="99.16"/><line class="cls-12" x1="188.49" y1="98.34" x2="188.55" y2="98.27"/><line class="cls-12" x1="181.99" y1="111.41" x2="185.19" y2="108.18"/><line class="cls-12" x1="186.02" y1="107.36" x2="186.08" y2="107.3"/><line class="cls-12" x1="186.84" y1="106.57" x2="189.19" y2="104.19"/><line class="cls-12" x1="181.99" y1="117.97" x2="182.72" y2="117.24"/><line class="cls-12" x1="183.55" y1="116.41" x2="183.61" y2="116.35"/><line class="cls-12" x1="184.37" y1="115.59" x2="188.49" y2="111.48"/><line class="cls-12" x1="181.99" y1="124.55" x2="186.02" y2="120.53"/><line class="cls-12" x1="186.84" y1="119.71" x2="186.9" y2="119.62"/><line class="cls-12" x1="187.66" y1="118.88" x2="189.19" y2="117.33"/><line class="cls-12" x1="181.99" y1="131.11" x2="183.55" y2="129.55"/><line class="cls-12" x1="184.37" y1="128.73" x2="184.43" y2="128.67"/><line class="cls-12" x1="185.19" y1="127.91" x2="189.19" y2="123.91"/><line class="cls-12" x1="182.72" y1="136.93" x2="186.84" y2="132.85"/><line class="cls-12" x1="187.66" y1="132.02" x2="187.72" y2="131.93"/><line class="cls-12" x1="188.49" y1="131.2" x2="189.19" y2="130.47"/><line class="cls-12" x1="181.99" y1="144.25" x2="184.37" y2="141.87"/><line class="cls-12" x1="185.19" y1="141.05" x2="185.26" y2="140.99"/><line class="cls-12" x1="186.02" y1="140.23" x2="189.19" y2="137.05"/><line class="cls-12" x1="182.72" y1="150.07" x2="182.79" y2="150.01"/><line class="cls-12" x1="183.55" y1="149.25" x2="187.66" y2="145.16"/><line class="cls-12" x1="188.49" y1="144.34" x2="188.55" y2="144.28"/><line class="cls-12" x1="181.99" y1="157.39" x2="185.19" y2="154.19"/><line class="cls-12" x1="186.02" y1="153.37" x2="186.08" y2="153.3"/><line class="cls-12" x1="186.84" y1="152.54" x2="189.19" y2="150.19"/><line class="cls-12" x1="181.99" y1="163.98" x2="182.72" y2="163.21"/><line class="cls-12" x1="183.55" y1="162.42" x2="183.61" y2="162.33"/><line class="cls-12" x1="184.37" y1="161.6" x2="188.49" y2="157.48"/><line class="cls-12" x1="181.99" y1="170.53" x2="186.02" y2="166.51"/><line class="cls-12" x1="186.84" y1="165.68" x2="186.9" y2="165.62"/><line class="cls-12" x1="187.66" y1="164.86" x2="189.19" y2="163.33"/><line class="cls-12" x1="181.99" y1="177.12" x2="183.55" y2="175.56"/><line class="cls-12" x1="184.37" y1="174.74" x2="184.43" y2="174.65"/><line class="cls-12" x1="185.19" y1="173.91" x2="189.19" y2="169.92"/><line class="cls-12" x1="182.72" y1="182.94" x2="186.84" y2="178.82"/><line class="cls-12" x1="187.66" y1="178" x2="187.72" y2="177.94"/><line class="cls-12" x1="188.49" y1="177.18" x2="189.19" y2="176.47"/><line class="cls-12" x1="183.03" y1="189.19" x2="184.37" y2="187.88"/><line class="cls-12" x1="185.19" y1="187.05" x2="185.26" y2="186.96"/><line class="cls-12" x1="186.02" y1="186.23" x2="189.19" y2="183.06"/><polyline class="cls-10" points="189.19 189.19 189.19 89.8 181.99 89.8 181.99 189.19 189.19 189.19"/><polyline class="cls-10" points="28.43 75.83 28.43 64.58 24.98 64.58 24.98 75.83"/><line class="cls-12" x1="75.41" y1="193.94" x2="23.55" y2="193.94"/><line class="cls-10" x1="75.41" y1="189.19" x2="75.41" y2="193.52"/><line class="cls-10" x1="75.41" y1="193.52" x2="75.41" y2="193.67"/><polyline class="cls-12" points="75.41 193.67 75.41 193.94 96.47 193.94"/><line class="cls-10" x1="102.76" y1="193.52" x2="98.43" y2="189.19"/><line class="cls-10" x1="7.69" y1="189.19" x2="0.5" y2="189.19"/><polyline class="cls-12" points="0.5 193.94 23.55 193.94 23.55 193.67"/><line class="cls-10" x1="23.55" y1="193.67" x2="23.55" y2="193.52"/><line class="cls-10" x1="23.55" y1="193.52" x2="23.55" y2="189.19"/><line class="cls-10" x1="75.41" y1="193.67" x2="96.6" y2="193.67"/><line class="cls-10" x1="0.5" y1="193.67" x2="23.55" y2="193.67"/><line class="cls-10" x1="75.41" y1="193.52" x2="96.66" y2="193.52"/><line class="cls-10" x1="98.43" y1="189.19" x2="75.41" y2="189.19"/><polyline class="cls-10" points="23.55 193.52 0.5 193.52 0.5 172.61"/><polyline class="cls-10" points="189.19 189.19 181.99 189.19 177.24 193.94"/><polyline class="cls-12" points="183.94 193.94 189.19 193.94 189.19 183.06"/><line class="cls-10" x1="183.82" y1="193.67" x2="189.19" y2="193.67"/><line class="cls-10" x1="183.76" y1="193.52" x2="189.19" y2="193.52"/><line class="cls-10" x1="189.19" y1="189.19" x2="189.19" y2="189.19"/><line class="cls-10" x1="0.5" y1="7.7" x2="0.5" y2="0.5"/><line class="cls-10" x1="69.65" y1="7.7" x2="69.65" y2="4.83"/><line class="cls-10" x1="69.65" y1="2.82" x2="69.65" y2="0.5"/><line class="cls-10" x1="7.69" y1="0.5" x2="7.69" y2="7.7"/><line class="cls-10" x1="141.93" y1="7.7" x2="141.93" y2="4.83"/><line class="cls-10" x1="141.93" y1="2.82" x2="141.93" y2="0.5"/><line class="cls-10" x1="99.89" y1="0.5" x2="99.89" y2="2.82"/><line class="cls-10" x1="99.89" y1="4.83" x2="99.89" y2="7.7"/><line class="cls-10" x1="69.65" y1="7.7" x2="7.69" y2="7.7"/><line class="cls-10" x1="134.74" y1="7.7" x2="99.89" y2="7.7"/><line class="cls-10" x1="141.93" y1="7.7" x2="141.93" y2="7.7"/><line class="cls-10" x1="69.65" y1="0.5" x2="7.69" y2="0.5"/><line class="cls-10" x1="141.93" y1="0.5" x2="99.89" y2="0.5"/><line class="cls-10" x1="134.74" y1="72.39" x2="134.74" y2="7.7"/><line class="cls-10" x1="181.99" y1="89.8" x2="189.19" y2="89.8"/><polyline class="cls-10" points="189.19 89.8 189.19 65.16 141.93 65.16 141.93 7.7"/><line class="cls-10" x1="181.99" y1="72.39" x2="181.99" y2="89.8"/><line class="cls-10" x1="181.99" y1="72.39" x2="129.98" y2="72.39"/><line class="cls-12" x1="0.5" y1="0.5" x2="7.69" y2="0.5"/><line class="cls-10" x1="98.43" y1="181.41" x2="99.01" y2="181.41"/><line class="cls-10" x1="99.01" y1="181.99" x2="99.01" y2="72.39"/><polyline class="cls-10" points="101.32 181.41 101.66 181.41 101.9 181.66"/><line class="cls-10" x1="101.32" y1="181.99" x2="101.32" y2="72.39"/><polyline class="cls-10" points="75.41 187.66 75.41 180.84 23.55 180.84 23.55 187.66"/><line class="cls-11" x1="41.84" y1="189.8" x2="72.69" y2="189.8"/><line class="cls-11" x1="72.69" y1="189.34" x2="41.84" y2="189.34"/><polyline class="cls-11" points="41.81 189.8 41.81 189.34 41.38 189.34 41.38 189.8 41.81 189.8"/><polyline class="cls-11" points="72.69 189.34 72.69 189.8 73.12 189.8 73.12 189.34 72.69 189.34"/><line class="cls-11" x1="27.12" y1="189.34" x2="38.98" y2="189.34"/><line class="cls-11" x1="38.98" y1="188.88" x2="27.12" y2="188.88"/><polyline class="cls-11" points="27.12 189.34 27.12 188.88 26.69 188.88 26.69 189.34 27.12 189.34"/><polyline class="cls-11" points="38.98 188.88 38.98 189.34 39.4 189.34 39.4 188.88 38.98 188.88"/><polyline class="cls-11" points="74.68 188.24 72.66 188.24 72.66 189.22 73.24 189.22 73.24 189.92 72.66 189.92 72.66 190.5 74.68 190.5 74.68 188.24"/><line class="cls-11" x1="41.84" y1="188.24" x2="72.66" y2="188.24"/><line class="cls-11" x1="72.66" y1="189.22" x2="41.84" y2="189.22"/><line class="cls-11" x1="41.84" y1="189.92" x2="72.66" y2="189.92"/><line class="cls-11" x1="72.66" y1="190.5" x2="41.84" y2="190.5"/><polyline class="cls-11" points="39.83 190.07 39.83 190.5 41.84 190.5 41.84 188.24 40.41 188.24 40.41 190.07 39.83 190.07"/><polyline class="cls-11" points="39.83 190.5 26.29 190.5 26.29 190.07 25.71 190.07 25.71 188.24 24.25 188.24 24.25 190.5 26.29 190.5"/><line class="cls-11" x1="39.83" y1="190.07" x2="26.29" y2="190.07"/><line class="cls-11" x1="40.41" y1="188.24" x2="40.29" y2="188.24"/><line class="cls-11" x1="25.8" y1="188.24" x2="25.71" y2="188.24"/><line class="cls-11" x1="26.69" y1="189.46" x2="26.69" y2="189.34"/><polyline class="cls-11" points="26.69 188.88 26.69 188.76 27.27 188.76 27.27 187.79 25.26 187.79 25.26 188.18 25.8 188.18 25.8 190.04 27.27 190.04 27.27 189.46 26.69 189.46"/><line class="cls-11" x1="39.4" y1="188.76" x2="39.4" y2="188.88"/><polyline class="cls-11" points="39.4 189.34 39.4 189.46 38.82 189.46 38.82 190.04 40.29 190.04 40.29 188.18 40.87 188.18 40.87 187.79 38.82 187.79 38.82 188.76 39.4 188.76"/><line class="cls-11" x1="38.82" y1="189.46" x2="27.27" y2="189.46"/><line class="cls-11" x1="27.27" y1="188.76" x2="38.82" y2="188.76"/><line class="cls-11" x1="38.82" y1="187.79" x2="27.27" y2="187.79"/><line class="cls-11" x1="27.27" y1="190.04" x2="38.82" y2="190.04"/><polyline class="cls-10" points="94.68 18.37 95.26 17.36 71.78 3.82 71.23 4.83 94.68 18.37"/><polyline class="cls-10" points="70.19 2.82 70.19 4.83 71.23 4.83 71.23 3.67 71.51 3.67 71.51 2.82 70.19 2.82"/><polyline class="cls-10" points="99.31 2.82 98 2.82 98 3.67 98.31 3.67 98.31 4.83 99.31 4.83 99.31 2.82"/><polyline class="cls-10" points="141.93 2.82 141.93 3.67 141.93 3.67 141.93 4.83 141.93 4.83 141.93 2.82 141.93 2.82"/><line class="cls-11" x1="143.37" y1="227.63" x2="154.89" y2="216.14"/><line class="cls-11" x1="143.15" y1="227.45" x2="154.68" y2="215.93"/><line class="cls-11" x1="155.01" y1="216.26" x2="143.49" y2="227.76"/><line class="cls-11" x1="154.8" y1="216.05" x2="143.27" y2="227.57"/><polyline class="cls-11" points="142.85 227.75 143.15 227.45 143.27 227.57 142.97 227.88 142.85 227.75"/><polyline class="cls-11" points="143.06 227.94 143.37 227.63 143.49 227.75 143.18 228.06 143.06 227.94"/><polyline class="cls-11" points="155.1 215.74 154.8 216.05 154.68 215.93 154.98 215.62 155.1 215.74"/><polyline class="cls-11" points="155.32 215.96 155.01 216.26 154.89 216.14 155.19 215.84 155.32 215.96"/><line class="cls-11" x1="110.87" y1="201.47" x2="122.24" y2="212.85"/><line class="cls-11" x1="111.08" y1="201.26" x2="122.45" y2="212.63"/><line class="cls-11" x1="122.12" y1="212.97" x2="110.74" y2="201.6"/><line class="cls-11" x1="122.33" y1="212.76" x2="110.96" y2="201.38"/><polyline class="cls-11" points="122.63 213.06 122.33 212.75 122.45 212.63 122.75 212.94 122.63 213.06"/><polyline class="cls-11" points="122.42 213.27 122.11 212.97 122.24 212.85 122.54 213.15 122.42 213.27"/><polyline class="cls-11" points="110.77 200.96 111.08 201.26 110.96 201.38 110.65 201.08 110.77 200.96"/><polyline class="cls-11" points="110.56 201.17 110.86 201.47 110.74 201.6 110.44 201.29 110.56 201.17"/><polyline class="cls-11" points="141.51 228.33 142.79 229.65 143.21 229.22 143.49 229.52 140.22 232.79 136.93 229.52 137.33 229.1 137.75 229.52 138.24 229.04 137.82 228.61 138.52 227.94 140.22 229.62 141.51 228.33"/><polyline class="cls-11" points="123.82 216.41 122.11 214.71 122.42 214.43 122.82 214.83 124.13 213.52 125.41 214.8 123.82 216.41"/><polyline class="cls-11" points="156.84 212.97 158.46 214.55 156.75 216.26 156.47 215.96 156.87 215.56 155.56 214.25 156.84 212.97"/><polyline class="cls-11" points="108.91 198.3 110.19 199.59 108.88 200.9 109.28 201.29 109.01 201.6 107.33 199.89 108.91 198.3"/><line class="cls-11" x1="143.49" y1="229.52" x2="156.75" y2="216.26"/><line class="cls-11" x1="124.13" y1="213.52" x2="124.01" y2="213.43"/><line class="cls-11" x1="110.29" y1="199.71" x2="110.19" y2="199.58"/><line class="cls-11" x1="136.93" y1="229.52" x2="123.82" y2="216.41"/><line class="cls-11" x1="109.01" y1="201.6" x2="122.12" y2="214.71"/><line class="cls-11" x1="122.42" y1="214.43" x2="109.28" y2="201.29"/><line class="cls-11" x1="156.48" y1="215.96" x2="143.21" y2="229.22"/><line class="cls-11" x1="155.56" y1="214.25" x2="155.47" y2="214.37"/><line class="cls-11" x1="141.6" y1="228.24" x2="141.51" y2="228.33"/><line class="cls-11" x1="138.52" y1="227.94" x2="125.41" y2="214.8"/><line class="cls-11" x1="137.82" y1="228.61" x2="124.71" y2="215.5"/><line class="cls-11" x1="137.33" y1="229.1" x2="124.22" y2="215.99"/><polyline class="cls-11" points="143.27 228.15 143.67 227.75 144.1 228.15 142.79 229.43 141.51 228.12 141.08 228.55 140.8 228.24 142.48 226.57 143.18 227.27 142.79 227.66 142.85 227.75"/><line class="cls-11" x1="142.97" y1="227.88" x2="143.06" y2="227.94"/><line class="cls-11" x1="143.18" y1="228.06" x2="143.27" y2="228.15"/><polyline class="cls-11" points="154.89 215.53 154.49 215.96 153.79 215.25 155.5 213.58 155.77 213.85 155.38 214.25 156.66 215.56 155.38 216.84 154.98 216.44 155.38 216.05 155.32 215.96"/><line class="cls-11" x1="155.19" y1="215.83" x2="155.1" y2="215.74"/><line class="cls-11" x1="154.98" y1="215.62" x2="154.89" y2="215.53"/><line class="cls-11" x1="143.67" y1="227.76" x2="154.98" y2="216.44"/><line class="cls-11" x1="154.49" y1="215.96" x2="143.18" y2="227.27"/><line class="cls-11" x1="142.48" y1="226.57" x2="153.79" y2="215.26"/><line class="cls-11" x1="155.38" y1="216.84" x2="144.1" y2="228.15"/><polyline class="cls-11" points="122.85 212.85 122.42 212.45 123.12 211.75 124.8 213.46 124.52 213.73 124.13 213.34 122.82 214.62 121.54 213.34 121.93 212.94 122.36 213.34 122.42 213.27"/><line class="cls-11" x1="122.54" y1="213.15" x2="122.63" y2="213.06"/><line class="cls-11" x1="122.76" y1="212.94" x2="122.85" y2="212.85"/><polyline class="cls-11" points="110.38 201.35 110.77 201.78 110.38 202.18 109.1 200.9 110.38 199.59 109.98 199.19 110.26 198.91 111.96 200.59 111.26 201.29 110.86 200.87 110.77 200.96"/><line class="cls-11" x1="110.65" y1="201.08" x2="110.56" y2="201.17"/><line class="cls-11" x1="110.44" y1="201.29" x2="110.38" y2="201.35"/><line class="cls-11" x1="110.77" y1="201.78" x2="121.93" y2="212.94"/><line class="cls-11" x1="122.42" y1="212.45" x2="111.26" y2="201.29"/><line class="cls-11" x1="111.96" y1="200.59" x2="123.12" y2="211.75"/><line class="cls-11" x1="121.54" y1="213.33" x2="110.38" y2="202.18"/><polyline class="cls-11" points="140.56 229.28 140.22 228.91 139.86 229.28"/><line class="cls-10" x1="189.19" y1="181.99" x2="189.19" y2="189.19"/><line class="cls-10" x1="189.19" y1="189.19" x2="189.19" y2="189.19"/><line class="cls-10" x1="189.19" y1="181.99" x2="189.19" y2="181.99"/><line class="cls-12" x1="161.38" y1="216.51" x2="140.23" y2="237.69"/><line class="cls-12" x1="161.38" y1="216.51" x2="183.94" y2="193.94"/><line class="cls-10" x1="158.03" y1="213.15" x2="161.08" y2="216.2"/><line class="cls-10" x1="161.08" y1="216.2" x2="161.2" y2="216.29"/><line class="cls-12" x1="161.2" y1="216.29" x2="161.38" y2="216.51"/><line class="cls-10" x1="161.2" y1="216.29" x2="183.82" y2="193.67"/><line class="cls-10" x1="161.08" y1="216.2" x2="183.76" y2="193.52"/><line class="cls-10" x1="177.24" y1="193.94" x2="158.03" y2="213.15"/><line class="cls-12" x1="140.23" y1="237.69" x2="104.37" y2="201.84"/><polyline class="cls-12" points="96.47 193.94 104.37 201.84 104.55 201.63"/><line class="cls-10" x1="104.55" y1="201.63" x2="104.68" y2="201.54"/><line class="cls-10" x1="104.68" y1="201.54" x2="107.73" y2="198.49"/><line class="cls-10" x1="96.6" y1="193.67" x2="104.55" y2="201.63"/><line class="cls-10" x1="107.73" y1="198.49" x2="102.76" y2="193.52"/><line class="cls-10" x1="96.66" y1="193.52" x2="104.68" y2="201.54"/><line class="cls-10" x1="96.6" y1="193.67" x2="103.12" y2="200.19"/><line class="cls-13" x1="168.12" y1="209.37" x2="174.25" y2="203.24"/><line class="cls-10" x1="177.3" y1="200.19" x2="183.82" y2="193.67"/></svg>