<svg id="_282" data-name="282" xmlns="http://www.w3.org/2000/svg" viewBox="0 0 262.67 344.91"><defs><style>.cls-1{isolation:isolate;font-size:8px;fill:#969696;font-family:PTSans-Regular, PT Sans;letter-spacing:-0.01em;}.cls-2{letter-spacing:0em;}.cls-12,.cls-13,.cls-14,.cls-3,.cls-8{fill:none;}.cls-3{stroke:#969696;}.cls-12,.cls-13,.cls-14,.cls-3{stroke-linecap:round;stroke-linejoin:round;}.cls-14,.cls-3{stroke-width:0.5px;}.cls-4{font-size:22px;}.cls-4,.cls-9{fill:#231f20;font-family:BigCityGrotesquePro-Regular, BigCity Grotesque Pro;}.cls-5{letter-spacing:-0.02em;}.cls-6{letter-spacing:-0.02em;}.cls-7{letter-spacing:0em;}.cls-12,.cls-13,.cls-14,.cls-8{stroke:#000;}.cls-8{stroke-miterlimit:10;stroke-width:0.32px;}.cls-9{font-size:24px;}.cls-10{letter-spacing:-0.02em;}.cls-11{letter-spacing:-0.02em;}.cls-12{stroke-width:0.35px;}.cls-13{stroke-width:0.75px;}</style></defs><text class="cls-1" transform="translate(126.82 6.8)">у<tspan class="cls-2" x="3.62" y="0">лица</tspan></text><line class="cls-3" x1="118.32" y1="0.82" x2="118.32" y2="7.94"/><polyline class="cls-3" points="121.15 3.65 118.32 0.82 115.48 3.65"/><text class="cls-4" transform="translate(46.83 292.03)">3<tspan class="cls-5" x="11" y="0">.</tspan><tspan x="15.6" y="0">70</tspan></text><text class="cls-4" transform="translate(119.88 292.03)">5.20</text><text class="cls-4" transform="translate(202.9 292.03)">3.20</text><text class="cls-4" transform="translate(46.33 101.49)">12.90</text><text class="cls-4" transform="translate(172.79 101.49)">11<tspan class="cls-6" x="15.49" y="0">.</tspan><tspan class="cls-7" x="20.09" y="0">70</tspan></text><rect class="cls-8" x="156.07" y="131" width="80" height="31.31"/><rect class="cls-8" x="156.07" y="162.32" width="80" height="31.31"/><rect class="cls-8" x="156.07" y="193.63" width="80" height="31.31"/><text class="cls-9" transform="translate(164.71 154.38)">№282<tspan x="20.51" y="30.86">1</tspan><tspan class="cls-10" x="28.96" y="30.86">К</tspan><tspan x="3.77" y="61.72">36</tspan><tspan class="cls-11" x="29.18" y="61.72">.</tspan><tspan x="34.2" y="61.72">70</tspan></text><line class="cls-12" x1="17.52" y1="273.69" x2="32.25" y2="273.69"/><polyline class="cls-12" points="16.64 274.35 11.07 274.35 11.07 258.43"/><line class="cls-12" x1="20.09" y1="266.39" x2="20.09" y2="260.51"/><polyline class="cls-12" points="32.25 273.69 20.09 272.27 20.09 266.39"/><line class="cls-12" x1="32.25" y1="259.1" x2="20.09" y2="260.51"/><line class="cls-12" x1="32.25" y1="273.34" x2="20.09" y2="271.92"/><line class="cls-12" x1="32.25" y1="259.45" x2="20.09" y2="260.86"/><line class="cls-12" x1="17.52" y1="259.1" x2="32.25" y2="259.1"/><line class="cls-12" x1="11.07" y1="258.43" x2="16.64" y2="258.43"/><polyline class="cls-12" points="32.25 273.69 33.89 273.51 35.44 272.89 36.76 271.88 37.87 270.55 38.62 269 39.02 267.28 39.02 265.51 38.62 263.78 37.87 262.24 36.76 260.91 35.44 259.89 33.89 259.27 32.25 259.1"/><polyline class="cls-12" points="32.25 273.34 33.8 273.12 35.26 272.54 36.54 271.57 37.56 270.33 38.27 268.87 38.66 267.23 38.66 265.55 38.27 263.92 37.56 262.46 36.54 261.22 35.26 260.25 33.8 259.67 32.25 259.45"/><path class="cls-12" d="M17.54,287.65a66.37,66.37,0,0,1,0,14.23" transform="translate(0 -28.35)"/><path class="cls-12" d="M17.61,301.89a.94.94,0,0,1-.95.81" transform="translate(0 -28.35)"/><path class="cls-12" d="M16.66,286.82a.94.94,0,0,1,.95.82" transform="translate(0 -28.35)"/><path class="cls-12" d="M15.36,294.76a.78.78,0,1,1-.78-.77.78.78,0,0,1,.78.77" transform="translate(0 -28.35)"/><line class="cls-12" x1="13.51" y1="307.85" x2="13.51" y2="328.33"/><line class="cls-12" x1="15.95" y1="330.75" x2="69.08" y2="330.75"/><line class="cls-12" x1="15.95" y1="305.47" x2="69.08" y2="305.47"/><line class="cls-12" x1="84.08" y1="333.17" x2="11.07" y2="333.17"/><polyline class="cls-12" points="84.08 333.18 84.08 303.05 11.07 303.05 11.07 333.18"/><line class="cls-12" x1="60.56" y1="309.64" x2="18.99" y2="309.64"/><line class="cls-12" x1="17.75" y1="310.87" x2="17.75" y2="325.36"/><line class="cls-12" x1="60.56" y1="326.55" x2="18.99" y2="326.55"/><line class="cls-12" x1="26.32" y1="317.37" x2="26.32" y2="315.88"/><line class="cls-12" x1="25.57" y1="318.09" x2="24.02" y2="318.09"/><line class="cls-12" x1="26.32" y1="318.86" x2="26.32" y2="320.34"/><line class="cls-12" x1="27.06" y1="318.09" x2="28.56" y2="318.09"/><path class="cls-12" d="M69.1,333.82a12.64,12.64,0,1,1,0,25.28" transform="translate(0 -28.35)"/><path class="cls-12" d="M16,359.1a2.4,2.4,0,0,1-2.42-2.4" transform="translate(0 -28.35)"/><path class="cls-12" d="M13.56,336.22a2.4,2.4,0,0,1,2.42-2.4" transform="translate(0 -28.35)"/><path class="cls-12" d="M26.34,347.71a1.25,1.25,0,1,1,1.27-1.25,1.26,1.26,0,0,1-1.27,1.25" transform="translate(0 -28.35)"/><path class="cls-12" d="M60.58,338a8.48,8.48,0,1,1,0,17" transform="translate(0 -28.35)"/><path class="cls-12" d="M17.8,339.24A1.21,1.21,0,0,1,19,338" transform="translate(0 -28.35)"/><path class="cls-12" d="M19,354.94a1.22,1.22,0,0,1-1.22-1.21" transform="translate(0 -28.35)"/><path class="cls-12" d="M26.34,348.14a1.68,1.68,0,1,1,1.72-1.68,1.7,1.7,0,0,1-1.72,1.68" transform="translate(0 -28.35)"/><polyline class="cls-12" points="20.95 299.69 11.39 299.69 11.39 277.13 20.95 277.13"/><line class="cls-12" x1="11.39" y1="284.83" x2="11.39" y2="291.95"/><line class="cls-12" x1="19.09" y1="286.51" x2="19.09" y2="287.7"/><line class="cls-12" x1="17.19" y1="288.41" x2="18.38" y2="288.41"/><line class="cls-12" x1="19.09" y1="289.12" x2="19.09" y2="290.31"/><line class="cls-12" x1="19.75" y1="288.41" x2="20.99" y2="288.41"/><path class="cls-12" d="M21.56,326.67a10.08,10.08,0,0,1-4.75-3.9" transform="translate(0 -28.35)"/><path class="cls-12" d="M16.82,322.77a10,10,0,0,1-1.41-6" transform="translate(0 -28.35)"/><path class="cls-12" d="M16.81,310.79a10.08,10.08,0,0,1,4.75-3.9" transform="translate(0 -28.35)"/><path class="cls-12" d="M15.41,316.79a10,10,0,0,1,1.41-6" transform="translate(0 -28.35)"/><path class="cls-12" d="M21,305.48a5.75,5.75,0,0,1,4.71,2.14" transform="translate(0 -28.35)"/><path class="cls-12" d="M17.19,323.09a41.08,41.08,0,0,1,0-12.62" transform="translate(0 -28.35)"/><path class="cls-12" d="M13.24,309.3a14.16,14.16,0,0,1,9.21-3.2" transform="translate(0 -28.35)"/><path class="cls-12" d="M11.88,316.77a28.52,28.52,0,0,1,.7-6.45" transform="translate(0 -28.35)"/><path class="cls-12" d="M12.59,310.3a1.87,1.87,0,0,1,.64-1" transform="translate(0 -28.35)"/><path class="cls-12" d="M12.77,316.77a48.33,48.33,0,0,1,.45-6.36" transform="translate(0 -28.35)"/><path class="cls-12" d="M13.86,309.24a12.71,12.71,0,0,1,8.6-3.18" transform="translate(0 -28.35)"/><path class="cls-12" d="M13.23,310.42a1.86,1.86,0,0,1,.61-1.15" transform="translate(0 -28.35)"/><path class="cls-12" d="M22.45,327.5a12.71,12.71,0,0,1-8.6-3.2" transform="translate(0 -28.35)"/><path class="cls-12" d="M22.43,327.46a14.24,14.24,0,0,1-9.21-3.21" transform="translate(0 -28.35)"/><path class="cls-12" d="M13.21,323.13a50.22,50.22,0,0,1-.44-6.36" transform="translate(0 -28.35)"/><path class="cls-12" d="M12.57,323.21a28.09,28.09,0,0,1-.69-6.46" transform="translate(0 -28.35)"/><path class="cls-12" d="M13.84,324.29a1.91,1.91,0,0,1-.61-1.15" transform="translate(0 -28.35)"/><path class="cls-12" d="M13.23,324.25a1.9,1.9,0,0,1-.64-1" transform="translate(0 -28.35)"/><path class="cls-12" d="M25.7,325.89A5.73,5.73,0,0,1,21,328" transform="translate(0 -28.35)"/><path class="cls-12" d="M26.69,324.43a9.2,9.2,0,0,1-1,1.5" transform="translate(0 -28.35)"/><path class="cls-12" d="M25.71,307.63a8.79,8.79,0,0,1,1,1.5" transform="translate(0 -28.35)"/><path class="cls-12" d="M26.68,309.15A18.55,18.55,0,0,1,28.55,316v1.58a18.55,18.55,0,0,1-1.87,6.84" transform="translate(0 -28.35)"/><path class="cls-12" d="M27,313.67a13.34,13.34,0,0,1,0,6.22" transform="translate(0 -28.35)"/><path class="cls-12" d="M24.37,325.49a3.39,3.39,0,0,1-2.79,1.17" transform="translate(0 -28.35)"/><path class="cls-12" d="M26.91,319.88a12.21,12.21,0,0,1-2.58,5.62" transform="translate(0 -28.35)"/><path class="cls-12" d="M21.58,306.86A3.41,3.41,0,0,1,24.37,308" transform="translate(0 -28.35)"/><path class="cls-12" d="M24.33,308.06a12.17,12.17,0,0,1,2.58,5.62" transform="translate(0 -28.35)"/><path class="cls-12" d="M20.59,316.78a1.48,1.48,0,1,1-1.48-1.48,1.48,1.48,0,0,1,1.48,1.48" transform="translate(0 -28.35)"/><path class="cls-12" d="M20.15,316.78a1,1,0,1,1-1-1,1,1,0,0,1,1,1" transform="translate(0 -28.35)"/><line class="cls-13" x1="70.36" y1="232.39" x2="70.36" y2="243.91"/><line class="cls-13" x1="70.36" y1="250.41" x2="70.36" y2="252.37"/><polyline class="cls-13" points="34.33 239.99 34.33 252.37 10.43 252.37 10.43 239.99 34.33 239.99"/><polyline class="cls-13" points="10.43 252.37 34.33 252.37 34.33 239.99 10.43 239.99 10.43 252.37"/><polyline class="cls-13" points="34.33 239.99 10.43 239.99 10.43 252.37"/><line class="cls-13" x1="32.36" y1="67.18" x2="32.36" y2="64.6"/><line class="cls-13" x1="158.36" y1="67.18" x2="158.36" y2="64.6"/><line class="cls-13" x1="104.31" y1="64.6" x2="104.31" y2="67.18"/><line class="cls-13" x1="230.3" y1="64.6" x2="230.3" y2="67.18"/><line class="cls-13" x1="32.36" y1="74.65" x2="10.43" y2="74.65"/><line class="cls-13" x1="158.36" y1="74.65" x2="104.31" y2="74.65"/><line class="cls-13" x1="252.24" y1="74.65" x2="230.3" y2="74.65"/><line class="cls-13" x1="32.36" y1="64.6" x2="10.43" y2="64.6"/><line class="cls-13" x1="158.36" y1="64.6" x2="104.31" y2="64.6"/><line class="cls-13" x1="252.24" y1="64.6" x2="230.3" y2="64.6"/><line class="cls-13" x1="0.38" y1="92.67" x2="0.38" y2="92.67"/><line class="cls-13" x1="0.38" y1="82.62" x2="0.38" y2="82.62"/><line class="cls-13" x1="262.29" y1="74.65" x2="262.29" y2="74.65"/><line class="cls-13" x1="262.29" y1="64.6" x2="262.29" y2="64.6"/><line class="cls-13" x1="0.38" y1="76.49" x2="0.38" y2="76.49"/><line class="cls-13" x1="0.38" y1="76.61" x2="0.38" y2="76.61"/><line class="cls-13" x1="0.38" y1="58.47" x2="0.38" y2="76.49"/><line class="cls-13" x1="0.38" y1="58.6" x2="0.38" y2="76.61"/><line class="cls-13" x1="32.36" y1="64.6" x2="32.36" y2="58.6"/><polyline class="cls-13" points="32.36 58.6 32.36 58.47 0.38 58.47"/><line class="cls-13" x1="158.36" y1="64.6" x2="158.36" y2="58.6"/><polyline class="cls-13" points="158.36 58.6 158.36 58.47 104.31 58.47 104.31 58.6"/><line class="cls-13" x1="104.31" y1="58.6" x2="104.31" y2="64.6"/><polyline class="cls-13" points="262.29 58.47 230.3 58.47 230.3 58.6"/><line class="cls-13" x1="230.3" y1="58.6" x2="230.3" y2="64.6"/><line class="cls-13" x1="32.36" y1="58.6" x2="0.38" y2="58.6"/><line class="cls-13" x1="158.36" y1="58.6" x2="104.31" y2="58.6"/><polyline class="cls-13" points="230.3 58.6 262.29 58.6 262.29 95.72"/><line class="cls-14" x1="32.36" y1="58.47" x2="104.31" y2="58.47"/><line class="cls-14" x1="158.36" y1="58.47" x2="230.3" y2="58.47"/><polyline class="cls-13" points="262.29 333.75 262.29 64.6 252.24 64.6 252.24 333.75"/><line class="cls-13" x1="10.43" y1="333.75" x2="10.43" y2="252.37"/><polyline class="cls-13" points="10.43 239.99 10.43 64.6 0.38 64.6 0.38 239.99"/><polyline class="cls-13" points="70.36 232.39 70.36 252.37 34.33 252.37"/><polyline class="cls-13" points="34.33 239.99 34.33 232.39 70.36 232.39"/><polyline class="cls-13" points="34.33 252.37 70.36 252.37 70.36 232.39 34.33 232.39 34.33 239.99"/><polyline class="cls-13" points="70.36 232.39 34.33 232.39 34.33 239.99"/><line class="cls-13" x1="129.56" y1="344.53" x2="129.56" y2="341.35"/><line class="cls-13" x1="129.56" y1="338.53" x2="129.56" y2="334.48"/><line class="cls-13" x1="171.47" y1="334.48" x2="171.47" y2="338.53"/><line class="cls-13" x1="171.47" y1="341.35" x2="171.47" y2="344.53"/><line class="cls-13" x1="262.29" y1="344.53" x2="252.24" y2="344.53"/><line class="cls-13" x1="252.24" y1="344.53" x2="171.47" y2="344.53"/><line class="cls-13" x1="129.56" y1="344.53" x2="10.43" y2="344.53"/><line class="cls-13" x1="10.43" y1="344.53" x2="0.38" y2="344.53"/><line class="cls-13" x1="252.24" y1="344.53" x2="252.24" y2="333.75"/><line class="cls-13" x1="252.24" y1="334.48" x2="171.47" y2="334.48"/><line class="cls-13" x1="0.38" y1="344.53" x2="0.38" y2="239.99"/><line class="cls-13" x1="129.56" y1="334.48" x2="10.43" y2="334.48"/><line class="cls-13" x1="10.43" y1="333.75" x2="10.43" y2="344.53"/><line class="cls-13" x1="262.29" y1="333.75" x2="262.29" y2="344.53"/><line class="cls-13" x1="100.39" y1="247.96" x2="100.39" y2="244.77"/><line class="cls-13" x1="145.12" y1="247.96" x2="145.12" y2="244.77"/><line class="cls-13" x1="132.37" y1="244.77" x2="132.37" y2="247.96"/><line class="cls-13" x1="198.68" y1="247.96" x2="198.68" y2="244.77"/><line class="cls-13" x1="177.11" y1="244.77" x2="177.11" y2="247.96"/><line class="cls-13" x1="230.67" y1="244.77" x2="230.67" y2="247.96"/><line class="cls-13" x1="252.24" y1="247.96" x2="230.67" y2="247.96"/><line class="cls-13" x1="188.26" y1="247.96" x2="177.11" y2="247.96"/><line class="cls-13" x1="100.39" y1="247.96" x2="89.11" y2="247.96"/><line class="cls-13" x1="145.12" y1="247.96" x2="132.37" y2="247.96"/><line class="cls-13" x1="198.68" y1="247.96" x2="191.45" y2="247.96"/><line class="cls-13" x1="100.39" y1="244.77" x2="70.36" y2="244.77"/><line class="cls-13" x1="145.12" y1="244.77" x2="140.34" y2="244.77"/><line class="cls-13" x1="137.15" y1="244.77" x2="132.37" y2="244.77"/><line class="cls-13" x1="198.68" y1="244.77" x2="177.11" y2="244.77"/><line class="cls-13" x1="252.24" y1="244.77" x2="230.67" y2="244.77"/><line class="cls-13" x1="188.26" y1="334.48" x2="191.45" y2="334.48"/><line class="cls-13" x1="188.26" y1="334.48" x2="188.26" y2="247.96"/><line class="cls-13" x1="191.45" y1="334.48" x2="191.45" y2="247.96"/><line class="cls-13" x1="137.15" y1="74.65" x2="137.15" y2="244.77"/><line class="cls-13" x1="140.34" y1="244.77" x2="140.34" y2="74.65"/><line class="cls-13" x1="84.33" y1="271.73" x2="89.11" y2="271.73"/><line class="cls-13" x1="84.33" y1="334.48" x2="89.11" y2="334.48"/><line class="cls-13" x1="89.11" y1="303.72" x2="84.33" y2="303.72"/><line class="cls-13" x1="84.33" y1="271.73" x2="84.33" y2="249.55"/><line class="cls-13" x1="84.33" y1="334.48" x2="84.33" y2="303.72"/><line class="cls-13" x1="89.11" y1="271.73" x2="89.11" y2="244.77"/><line class="cls-13" x1="89.11" y1="334.48" x2="89.11" y2="303.72"/><polyline class="cls-13" points="34.33 235.21 10.43 235.21 10.43 239.99"/><line class="cls-13" x1="84.33" y1="249.55" x2="70.36" y2="249.55"/><polyline class="cls-13" points="158.36 67.18 158.36 76.61 230.3 76.61 230.3 67.18"/><line class="cls-14" x1="159.34" y1="63.25" x2="158.36" y2="63.25"/><polyline class="cls-14" points="158.36 66.32 159.34 66.32 159.34 63.25"/><polyline class="cls-14" points="230.3 63.25 229.32 63.25 229.32 66.32 230.3 66.32"/><polyline class="cls-14" points="207.14 66.32 207.14 63.74 207.63 63.74 207.63 63.25 204.93 63.25 204.93 63.74 205.67 63.74 205.67 66.32 207.14 66.32"/><line class="cls-14" x1="205.42" y1="63.74" x2="205.42" y2="63.87"/><line class="cls-14" x1="205.54" y1="66.32" x2="205.67" y2="66.32"/><polyline class="cls-14" points="225.16 64.72 225.89 64.72 225.89 65.58 225.16 65.58 225.16 67.05 227.85 67.05 227.85 66.44 227.12 66.44 227.12 63.87 225.16 63.87 225.16 64.72"/><polyline class="cls-14" points="208.24 64.72 208.98 64.72 208.98 63.87 207.01 63.87 207.01 66.44 206.28 66.44 206.28 67.05 208.98 67.05 208.98 65.58 208.24 65.58 208.24 64.72"/><line class="cls-14" x1="208.98" y1="64.72" x2="225.15" y2="64.72"/><line class="cls-14" x1="225.15" y1="63.87" x2="208.98" y2="63.87"/><line class="cls-14" x1="225.15" y1="65.58" x2="208.98" y2="65.58"/><line class="cls-14" x1="208.98" y1="67.05" x2="225.15" y2="67.05"/><polyline class="cls-14" points="159.34 63.25 159.34 66.32 161.3 66.32 161.3 63.74 162.16 63.74 162.16 63.25 159.34 63.25"/><polyline class="cls-14" points="229.32 63.25 226.5 63.25 226.5 63.74 227.24 63.74 227.24 66.32 229.32 66.32 229.32 63.25"/><line class="cls-14" x1="226.5" y1="63.25" x2="207.63" y2="63.25"/><line class="cls-14" x1="204.93" y1="63.25" x2="162.16" y2="63.25"/><line class="cls-14" x1="161.3" y1="66.32" x2="161.42" y2="66.32"/><line class="cls-14" x1="227.12" y1="66.32" x2="227.24" y2="66.32"/><line class="cls-14" x1="162.16" y1="63.74" x2="204.93" y2="63.74"/><line class="cls-14" x1="207.63" y1="63.74" x2="226.5" y2="63.74"/><polyline class="cls-14" points="162.65 65.58 162.65 64.72 163.51 64.72 163.51 63.87 161.42 63.87 161.42 66.44 160.69 66.44 160.69 67.05 163.51 67.05 163.51 65.58 162.65 65.58"/><polyline class="cls-14" points="204.32 64.72 204.32 65.58 203.46 65.58 203.46 67.05 206.28 67.05 206.28 66.44 205.54 66.44 205.54 63.87 203.46 63.87 203.46 64.72 204.32 64.72"/><line class="cls-14" x1="163.51" y1="64.72" x2="203.46" y2="64.72"/><line class="cls-14" x1="203.46" y1="65.58" x2="163.51" y2="65.58"/><line class="cls-14" x1="163.51" y1="67.05" x2="203.46" y2="67.05"/><line class="cls-14" x1="203.46" y1="63.87" x2="163.51" y2="63.87"/><polyline class="cls-13" points="32.36 67.18 32.36 76.61 104.31 76.61 104.31 67.18"/><line class="cls-14" x1="33.34" y1="63.25" x2="32.36" y2="63.25"/><polyline class="cls-14" points="32.36 66.32 33.34 66.32 33.34 63.25"/><polyline class="cls-14" points="104.31 63.25 103.33 63.25 103.33 66.32 104.31 66.32"/><polyline class="cls-14" points="57.24 66.32 57.24 63.74 57.73 63.74 57.73 63.25 54.91 63.25 54.91 63.74 55.77 63.74 55.77 66.32 57.24 66.32"/><line class="cls-14" x1="55.53" y1="63.74" x2="55.53" y2="63.87"/><line class="cls-14" x1="55.65" y1="66.32" x2="55.77" y2="66.32"/><polyline class="cls-14" points="99.16 64.72 100.02 64.72 100.02 65.58 99.16 65.58 99.16 67.05 101.98 67.05 101.98 66.44 101.12 66.44 101.12 63.87 99.16 63.87 99.16 64.72"/><polyline class="cls-14" points="58.35 64.72 59.08 64.72 59.08 63.87 57.12 63.87 57.12 66.44 56.26 66.44 56.26 67.05 59.08 67.05 59.08 65.58 58.35 65.58 58.35 64.72"/><line class="cls-14" x1="59.08" y1="64.72" x2="99.16" y2="64.72"/><line class="cls-14" x1="99.16" y1="63.87" x2="59.08" y2="63.87"/><line class="cls-14" x1="99.16" y1="65.58" x2="59.08" y2="65.58"/><line class="cls-14" x1="59.08" y1="67.05" x2="99.16" y2="67.05"/><polyline class="cls-14" points="103.33 63.25 100.51 63.25 100.51 63.74 101.37 63.74 101.37 66.32 103.33 66.32 103.33 63.25"/><polyline class="cls-14" points="33.34 63.25 33.34 66.32 35.43 66.32 35.43 63.74 36.16 63.74 36.16 63.25 33.34 63.25"/><line class="cls-14" x1="100.51" y1="63.25" x2="57.73" y2="63.25"/><line class="cls-14" x1="54.92" y1="63.25" x2="36.16" y2="63.25"/><line class="cls-14" x1="35.43" y1="66.32" x2="35.55" y2="66.32"/><line class="cls-14" x1="101.12" y1="66.32" x2="101.37" y2="66.32"/><line class="cls-14" x1="36.16" y1="63.74" x2="54.92" y2="63.74"/><line class="cls-14" x1="57.73" y1="63.74" x2="100.51" y2="63.74"/><polyline class="cls-14" points="36.78 65.58 36.78 64.72 37.51 64.72 37.51 63.87 35.55 63.87 35.55 66.44 34.69 66.44 34.69 67.05 37.51 67.05 37.51 65.58 36.78 65.58"/><polyline class="cls-14" points="54.42 64.72 54.42 65.58 53.57 65.58 53.57 67.05 56.39 67.05 56.39 66.44 55.65 66.44 55.65 63.87 53.57 63.87 53.57 64.72 54.42 64.72"/><line class="cls-14" x1="37.51" y1="64.72" x2="53.57" y2="64.72"/><line class="cls-14" x1="53.57" y1="65.58" x2="37.51" y2="65.58"/><line class="cls-14" x1="37.51" y1="67.05" x2="53.57" y2="67.05"/><line class="cls-14" x1="53.57" y1="63.87" x2="37.51" y2="63.87"/><polyline class="cls-14" points="136.79 319.65 135.93 321.13 168.53 339.88 169.27 338.53 136.79 319.65"/><polyline class="cls-13" points="170.74 341.35 170.74 338.53 169.27 338.53 169.27 340.12 168.9 340.12 168.9 341.35 170.74 341.35"/><polyline class="cls-13" points="130.29 341.35 132.13 341.35 132.13 340.12 131.76 340.12 131.76 338.53 130.29 338.53 130.29 341.35"/><line class="cls-14" x1="205.42" y1="56.88" x2="205.42" y2="58.47"/><line class="cls-14" x1="206.28" y1="56.88" x2="206.28" y2="58.47"/><line class="cls-14" x1="183.12" y1="56.88" x2="183.12" y2="58.47"/><line class="cls-14" x1="182.26" y1="56.88" x2="182.26" y2="58.47"/><polyline class="cls-14" points="178.34 40.83 210.32 40.83 210.32 56.88 178.34 56.88 178.34 40.83"/><polyline class="cls-14" points="194.27 36.05 196.35 36.05 198.44 36.05 200.52 36.05 202.73 36.05 204.81 36.05 206.89 36.05 208.98 36.05 211.18 36.05 214.12 36.05 214.12 36.17 211.18 36.17 208.98 36.17 206.89 36.17 204.81 36.17 202.73 36.17 200.52 36.17 198.44 36.17 196.35 36.17 194.27 36.17 194.27 36.05"/><line class="cls-14" x1="196.35" y1="36.17" x2="196.35" y2="36.05"/><line class="cls-14" x1="198.44" y1="36.17" x2="198.44" y2="36.05"/><line class="cls-14" x1="200.52" y1="36.17" x2="200.52" y2="36.05"/><line class="cls-14" x1="202.73" y1="36.17" x2="202.73" y2="36.05"/><line class="cls-14" x1="204.81" y1="36.17" x2="204.81" y2="36.05"/><line class="cls-14" x1="206.89" y1="36.17" x2="206.89" y2="36.05"/><line class="cls-14" x1="208.98" y1="36.17" x2="208.98" y2="36.05"/><line class="cls-14" x1="211.18" y1="36.17" x2="211.18" y2="36.05"/><polyline class="cls-14" points="174.29 36.17 194.27 36.17 194.27 36.29 174.29 36.29 174.29 36.17"/><polyline class="cls-14" points="214.25 58.47 214.25 36.29 174.29 36.29 174.29 58.47"/><polyline class="cls-14" points="176.87 58.47 176.87 38.86 211.67 38.86 211.67 58.47"/><line class="cls-14" x1="176.86" y1="39.11" x2="211.67" y2="39.11"/><line class="cls-14" x1="176.86" y1="40.46" x2="211.67" y2="40.46"/></svg>