<svg id="_7" data-name="7" xmlns="http://www.w3.org/2000/svg" viewBox="0 0 156.02 327.46"><defs><style>.cls-1{font-size:8px;}.cls-1,.cls-3{fill:#808285;}.cls-1,.cls-5{font-family:BigCityGrotesquePro-Regular, BigCity Grotesque Pro;}.cls-2,.cls-4,.cls-7{fill:none;}.cls-2{stroke:#808285;}.cls-2,.cls-4{stroke-linecap:round;stroke-linejoin:round;}.cls-2,.cls-7{stroke-width:0.75px;}.cls-4,.cls-7{stroke:#000;}.cls-4{stroke-width:0.5px;}.cls-5{font-size:14.61px;fill:#231f20;}.cls-6{letter-spacing:-0.02em;}.cls-7{stroke-miterlimit:10;}.cls-8{letter-spacing:-0.03em;}.cls-9{letter-spacing:-0.02em;}</style></defs><title>2floor_7flat</title><text class="cls-1" transform="translate(70.17 325.16)">двор</text><line class="cls-2" x1="64.75" y1="318.67" x2="64.75" y2="325.7"/><path class="cls-3" d="M61.87,321.6a.3.3,0,0,1,.41.09l2.47,3.87,2.47-3.87a.3.3,0,1,1,.51.32L65,326.28a.3.3,0,0,1-.51,0L61.78,322a.3.3,0,0,1,.09-.41Z"/><line class="cls-4" x1="49.86" y1="292.02" x2="49.86" y2="283.25"/><line class="cls-4" x1="49.86" y1="283.25" x2="9.18" y2="283.25"/><path class="cls-4" d="M142.79,97.65a1,1,0,1,0-1,1,1,1,0,0,0,1-1"/><path class="cls-4" d="M145.95,91.52A4.47,4.47,0,0,0,141.48,87"/><path class="cls-4" d="M141.48,108.44a4.47,4.47,0,0,0,4.47-4.47"/><path class="cls-4" d="M96.06,87a4.47,4.47,0,0,0-4.47,4.47"/><path class="cls-4" d="M91.59,104a4.47,4.47,0,0,0,4.47,4.47"/><line class="cls-4" x1="91.59" y1="103.88" x2="91.59" y2="91.43"/><line class="cls-4" x1="95.98" y1="86.87" x2="141.39" y2="86.87"/><line class="cls-4" x1="145.95" y1="91.43" x2="145.95" y2="103.88"/><line class="cls-4" x1="141.39" y1="108.26" x2="95.98" y2="108.26"/><polyline class="cls-4" points="88.96 110.89 88.96 84.24 147 84.24"/><line class="cls-4" x1="106.15" y1="283.25" x2="106.15" y2="292.02"/><line class="cls-4" x1="147" y1="283.25" x2="106.15" y2="283.25"/><line class="cls-4" x1="49.86" y1="292.02" x2="9.18" y2="292.02"/><line class="cls-4" x1="9.18" y1="292.02" x2="0.41" y2="292.02"/><line class="cls-4" x1="147" y1="292.02" x2="106.15" y2="292.02"/><line class="cls-4" x1="133.85" y1="10.07" x2="109.3" y2="10.07"/><line class="cls-4" x1="83.35" y1="17.08" x2="147.88" y2="17.08"/><polyline class="cls-4" points="106.15 293.77 102.64 293.77 102.64 296.58 106.15 296.58"/><line class="cls-4" x1="53.37" y1="293.78" x2="49.86" y2="293.78"/><polyline class="cls-4" points="49.86 296.58 53.37 296.58 53.37 293.77 76.69 293.77"/><line class="cls-4" x1="79.32" y1="293.78" x2="102.64" y2="293.78"/><line class="cls-4" x1="102.64" y1="296.58" x2="79.32" y2="296.58"/><line class="cls-4" x1="76.69" y1="296.58" x2="53.37" y2="296.58"/><polyline class="cls-4" points="79.32 293.77 76.69 293.77 76.69 296.58 79.32 296.58 79.32 293.77"/><polyline class="cls-4" points="106.15 282.55 106.15 281.5 106.15 280.8 49.86 280.8"/><polyline class="cls-4" points="49.86 282.55 49.86 281.5 49.86 280.8"/><polyline class="cls-4" points="106.15 299.04 106.15 301.67 49.86 301.67 49.86 299.04"/><polyline class="cls-4" points="110.18 41.63 108.95 43.38 108.08 44.26 107.2 44.61 105.97 45.14 105.09 45.14 103.87 44.61 103.17 44.26 102.29 43.38 101.06 41.63"/><polyline class="cls-4" points="100.89 29.88 102.11 29.53 104.74 29.01 106.5 29.01 108.95 29.53 110.18 29.88"/><polyline class="cls-4" points="101.06 41.63 100.19 39.7 99.48 37.95 98.96 36.2 98.96 34.44 98.96 33.56 99.13 32.69 99.31 31.81 99.83 30.93 100.89 29.88"/><polyline class="cls-4" points="110.18 29.88 111.23 30.93 111.76 31.81 111.93 32.69 112.11 33.56 112.28 34.44 112.11 36.2 111.58 37.95 110.88 39.7 110.18 41.63"/><line class="cls-4" x1="101.24" y1="27.25" x2="100.89" y2="29.88"/><line class="cls-4" x1="109.83" y1="27.25" x2="110.18" y2="29.88"/><path class="cls-4" d="M96.85,24a3.24,3.24,0,0,0,3.24,3.24"/><line class="cls-4" x1="96.68" y1="17.08" x2="96.68" y2="23.92"/><line class="cls-4" x1="114.39" y1="23.92" x2="114.39" y2="17.08"/><path class="cls-4" d="M111.14,27.25A3.24,3.24,0,0,0,114.39,24"/><line class="cls-4" x1="100.01" y1="27.25" x2="111.06" y2="27.25"/><line class="cls-4" x1="0.41" y1="72.49" x2="9.18" y2="72.49"/><line class="cls-4" x1="102.29" y1="10.07" x2="90.37" y2="10.07"/><line class="cls-4" x1="90.37" y1="10.07" x2="90.37" y2="0.25"/><line class="cls-4" x1="66.17" y1="7.97" x2="34.26" y2="26.38"/><line class="cls-4" x1="66.17" y1="0.25" x2="66.17" y2="7.26"/><line class="cls-4" x1="83.35" y1="7.26" x2="66.17" y2="7.26"/><line class="cls-4" x1="90.37" y1="0.25" x2="66.17" y2="0.25"/><line class="cls-4" x1="147" y1="72.49" x2="155.77" y2="72.49"/><line class="cls-4" x1="144.2" y1="70.04" x2="144.2" y2="76.52"/><path class="cls-4" d="M142.71,71.61a1.84,1.84,0,0,0,1.81-1.5"/><polyline class="cls-4" points="142.62 70.04 142.62 69.33 144.72 69.33 144.72 70.04 142.62 70.04"/><path class="cls-4" d="M145.86,79.68a1,1,0,0,0,1-1"/><path class="cls-4" d="M144.63,65.3a1,1,0,1,0,0,1.93"/><path class="cls-4" d="M146.83,60.83a1,1,0,0,0-1-1"/><line class="cls-4" x1="146.65" y1="60.74" x2="146.65" y2="78.63"/><path class="cls-4" d="M144.63,67.23a1,1,0,0,0,0-1.93"/><path class="cls-4" d="M144.63,72.32a1,1,0,1,0,0,1.93"/><path class="cls-4" d="M144.63,74.25a1,1,0,0,0,0-1.93"/><path class="cls-4" d="M144.51,69.43a1.84,1.84,0,0,0-1.81-1.5"/><path class="cls-4" d="M142.71,67.93a1.84,1.84,0,1,0,0,3.68"/><path class="cls-4" d="M142.53,78.45a1.84,1.84,0,0,0,1.84-1.84"/><line class="cls-4" x1="144.2" y1="62.67" x2="144.2" y2="69.34"/><path class="cls-4" d="M144.37,62.76a1.84,1.84,0,0,0-1.84-1.84"/><line class="cls-4" x1="142.09" y1="60.92" x2="142.44" y2="60.92"/><path class="cls-4" d="M142.18,60.92a7.1,7.1,0,0,0-7.1,7.1"/><line class="cls-4" x1="135.08" y1="71.26" x2="135.08" y2="67.93"/><line class="cls-4" x1="142.44" y1="78.28" x2="142.09" y2="78.28"/><path class="cls-4" d="M134,70.83a8.85,8.85,0,0,0,8.85,8.85"/><line class="cls-4" x1="145.77" y1="79.51" x2="142.79" y2="79.51"/><path class="cls-4" d="M135.08,71.35a7.1,7.1,0,0,0,7.1,7.1"/><line class="cls-4" x1="134.03" y1="70.74" x2="134.03" y2="68.63"/><path class="cls-4" d="M142.88,59.87A8.85,8.85,0,0,0,134,68.72"/><line class="cls-4" x1="142.79" y1="59.87" x2="145.77" y2="59.87"/><line class="cls-4" x1="117.89" y1="132.81" x2="130.17" y2="132.81"/><path class="cls-4" d="M125.87,120a1.14,1.14,0,1,0,1.14,1.14,1.14,1.14,0,0,0-1.14-1.14"/><path class="cls-4" d="M125.7,120.36a.79.79,0,1,0,.79.79.79.79,0,0,0-.79-.79"/><path class="cls-4" d="M134.29,120.36a.79.79,0,1,0,.79.79.79.79,0,0,0-.79-.79"/><path class="cls-4" d="M134.29,120a1.14,1.14,0,1,0,1.14,1.14,1.14,1.14,0,0,0-1.14-1.14"/><path class="cls-4" d="M130.08,117.91a.61.61,0,1,0,.61.61.61.61,0,0,0-.61-.61"/><path class="cls-4" d="M134.84,117.74a1.67,1.67,0,0,0-1,.42"/><line class="cls-4" x1="131.05" y1="120.36" x2="133.68" y2="118.08"/><path class="cls-4" d="M131.3,120.45a1.49,1.49,0,0,0-.43,1"/><line class="cls-4" x1="130.69" y1="130.71" x2="130.69" y2="121.41"/><path class="cls-4" d="M130.69,130.79a1.49,1.49,0,0,0,1.49,1.49"/><line class="cls-4" x1="144.37" y1="132.11" x2="132.1" y2="132.11"/><path class="cls-4" d="M144.51,132.1a1.32,1.32,0,0,0,1.44-1.31"/><line class="cls-4" x1="145.77" y1="118.96" x2="145.77" y2="130.71"/><path class="cls-4" d="M145.77,119.05a1.31,1.31,0,0,0-1.32-1.32"/><line class="cls-4" x1="134.73" y1="117.55" x2="144.37" y2="117.55"/><path class="cls-4" d="M125.08,129.39a1.14,1.14,0,0,0-1.32-1.13"/><path class="cls-4" d="M119.12,130.8a1.49,1.49,0,0,0,1.49,1.49"/><line class="cls-4" x1="123.68" y1="132.11" x2="120.52" y2="132.11"/><path class="cls-4" d="M123.78,132.1a1.14,1.14,0,0,0,1.3-1.13"/><line class="cls-4" x1="125.08" y1="129.3" x2="125.08" y2="130.88"/><path class="cls-4" d="M118,133a1.49,1.49,0,0,0,1.26-1.47"/><polyline class="cls-4" points="119.12 129.65 119.12 130.53 119.12 131.41"/><path class="cls-4" d="M120.61,128.25a1.49,1.49,0,0,0-1.49,1.49"/><path class="cls-4" d="M129.29,131.49a1.49,1.49,0,0,0,1.08,1.43"/><line class="cls-4" x1="129.12" y1="129.65" x2="129.12" y2="131.41"/><path class="cls-4" d="M129.12,129.75a1.32,1.32,0,0,0-1.32-1.32"/><line class="cls-4" x1="120.52" y1="128.25" x2="127.71" y2="128.25"/><line class="cls-4" x1="115.26" y1="131.76" x2="118.25" y2="131.76"/><line class="cls-4" x1="115.26" y1="130.35" x2="118.25" y2="130.35"/><line class="cls-4" x1="115.26" y1="128.95" x2="118.25" y2="128.95"/><line class="cls-4" x1="115.26" y1="127.55" x2="118.25" y2="127.55"/><line class="cls-4" x1="115.26" y1="126.15" x2="118.25" y2="126.15"/><line class="cls-4" x1="115.26" y1="124.74" x2="118.25" y2="124.74"/><line class="cls-4" x1="115.26" y1="123.34" x2="118.25" y2="123.34"/><line class="cls-4" x1="115.26" y1="121.94" x2="118.25" y2="121.94"/><line class="cls-4" x1="115.26" y1="120.54" x2="118.25" y2="120.54"/><line class="cls-4" x1="115.26" y1="118.96" x2="118.25" y2="118.96"/><line class="cls-4" x1="115.26" y1="117.55" x2="118.25" y2="117.55"/><path class="cls-4" d="M120.61,117.57a1.32,1.32,0,0,0-1.49,1.3"/><line class="cls-4" x1="119.12" y1="126.15" x2="119.12" y2="118.78"/><path class="cls-4" d="M119.12,126.24a1.49,1.49,0,0,0,1.49,1.49"/><line class="cls-4" x1="127.71" y1="127.55" x2="120.52" y2="127.55"/><path class="cls-4" d="M128,127.55a1.32,1.32,0,0,0,1.34-1.31"/><line class="cls-4" x1="129.12" y1="121.41" x2="129.12" y2="126.15"/><path class="cls-4" d="M129.29,121.5a1.49,1.49,0,0,0-.48-1.1"/><line class="cls-4" x1="126.14" y1="118.08" x2="128.77" y2="120.36"/><path class="cls-4" d="M126.35,117.95a1.49,1.49,0,0,0-1-.39"/><line class="cls-4" x1="120.52" y1="117.55" x2="125.26" y2="117.55"/><path class="cls-4" d="M115,116.17a1,1,0,0,0-1.14.95"/><line class="cls-4" x1="113.86" y1="132.46" x2="113.86" y2="117.03"/><path class="cls-4" d="M113.86,132.55a1.14,1.14,0,0,0,1.14,1.14"/><line class="cls-4" x1="146.12" y1="133.51" x2="114.91" y2="133.51"/><path class="cls-4" d="M146.22,133.69a1.14,1.14,0,0,0,1-.65"/><path class="cls-4" d="M147.07,117a1.14,1.14,0,0,0-1-.66"/><line class="cls-4" x1="82.83" y1="59.17" x2="72.13" y2="81.43"/><line class="cls-4" x1="87.56" y1="84.24" x2="83.35" y2="84.24"/><line class="cls-4" x1="87.56" y1="17.08" x2="83.35" y2="17.08"/><line class="cls-4" x1="83.35" y1="59.17" x2="87.56" y2="59.17"/><line class="cls-4" x1="87.56" y1="84.24" x2="87.56" y2="111.42"/><line class="cls-4" x1="87.56" y1="17.08" x2="87.56" y2="59.17"/><line class="cls-4" x1="83.35" y1="7.26" x2="83.35" y2="59.17"/><line class="cls-4" x1="83.35" y1="84.24" x2="83.35" y2="112.82"/><line class="cls-4" x1="87.56" y1="111.42" x2="147" y2="111.42"/><line class="cls-4" x1="83.35" y1="115.63" x2="147" y2="115.63"/><line class="cls-4" x1="9.18" y1="292.02" x2="9.18" y2="72.49"/><line class="cls-4" x1="0.41" y1="72.49" x2="0.41" y2="292.02"/><line class="cls-4" x1="33.73" y1="112.82" x2="9.18" y2="112.82"/><line class="cls-4" x1="33.73" y1="115.63" x2="33.73" y2="112.82"/><line class="cls-4" x1="82.83" y1="112.82" x2="62.14" y2="112.82"/><line class="cls-4" x1="9.18" y1="115.63" x2="33.73" y2="115.63"/><polyline class="cls-4" points="62.13 112.82 62.13 115.63 82.83 115.63"/><line class="cls-4" x1="33.73" y1="115.63" x2="58.98" y2="131.58"/><text class="cls-5" transform="translate(36.48 48.21)">6.3</text><text class="cls-5" transform="translate(107.47 60.57)">4.5</text><text class="cls-5" transform="translate(67.02 269.14)">18<tspan class="cls-6" x="13.33" y="0">.</tspan><tspan x="16.42" y="0">6</tspan></text><rect class="cls-7" x="49.77" y="161.7" width="53.85" height="19.73"/><rect class="cls-7" x="49.77" y="181.43" width="53.85" height="19.73"/><rect class="cls-7" x="49.77" y="201.15" width="53.85" height="19.73"/><text class="cls-5" transform="translate(65.41 175.73)">№7<tspan x="3.61" y="20.46">С</tspan><tspan class="cls-8" x="11.76" y="20.46">Т</tspan><tspan x="-1.83" y="40.91">2</tspan><tspan class="cls-9" x="5.19" y="40.91">9</tspan><tspan x="13.03" y="40.91">.4</tspan></text><rect x="83.35" y="0.25" width="4.21" height="58.92"/><rect x="5.29" y="112.5" width="28.44" height="3.45"/><rect x="62.14" y="112.5" width="28.44" height="3.45"/><polyline points="151.38 115.95 83.35 115.95 83.35 111.42 151.38 111.42"/><rect x="83.35" y="84.24" width="4.21" height="31.39"/><rect x="0.41" y="72.14" width="9.04" height="226.89"/><rect x="146.87" y="72.14" width="9.04" height="226.89"/><rect x="1.43" y="0.32" width="7.01" height="72.18"/><rect x="147.7" y="10.09" width="7.01" height="62.41"/><polyline points="1.43 0.32 29.35 0.32 29.35 7.26 1.43 7.26"/><rect x="74.79" y="-8.31" width="6.95" height="24.2" transform="translate(82.06 -74.48) rotate(90)"/><rect x="79.89" y="6.61" width="13.99" height="6.95" transform="translate(96.98 -76.81) rotate(90)"/><polyline points="154.72 17.03 88.29 17.03 88.29 9.6 154.72 9.6"/><polyline points="0 283.04 49.86 283.04 49.86 299.04 0 299.04"/><polyline points="155.91 299.04 106.15 299.04 106.15 283.04 155.91 283.04"/></svg>