<svg id="_299" data-name="299" xmlns="http://www.w3.org/2000/svg" viewBox="0 0 410.42 554.51"><defs><style>.cls-1,.cls-5,.cls-6,.cls-7{fill:none;stroke-linecap:round;stroke-linejoin:round;stroke-width:0.5px;}.cls-1{stroke:#999;}.cls-2{isolation:isolate;font-size:12px;fill:#999;}.cls-2,.cls-3,.cls-4{font-family:PTSans-Regular, PT Sans;}.cls-3{font-size:20px;}.cls-4{font-size:24px;}.cls-5,.cls-6,.cls-7{stroke:#000;}.cls-6{stroke-dasharray:3.04 3.04;}.cls-7{stroke-dasharray:2.98 2.98;}</style></defs><title>4floor_299flat</title><line class="cls-1" x1="187.13" y1="543.17" x2="187.13" y2="551.97"/><polyline class="cls-1" points="183.53 548.67 187.03 552.17 190.53 548.67"/><text class="cls-2" transform="translate(196.35 551.57)">двор</text><text class="cls-3" transform="translate(199.45 96.85)">4.78</text><text class="cls-3" transform="translate(312.49 96.85)">3.62</text><text class="cls-3" transform="translate(66.83 55.45)">1.72</text><text class="cls-3" transform="translate(57.19 175.69)">4.04</text><text class="cls-3" transform="translate(86.29 430.93)">13.48</text><text class="cls-3" transform="translate(286.15 430.93)">12.54</text><text class="cls-4" transform="translate(293.24 351.13)">1Е</text><text class="cls-4" transform="translate(277.49 384.17)">40.18</text><text class="cls-4" transform="translate(274.32 318.58)">№299</text><polyline class="cls-5" points="265.69 392.53 265.69 295.33 346.75 295.33 346.75 392.53"/><line class="cls-5" x1="265.69" y1="327.79" x2="346.75" y2="327.79"/><line class="cls-5" x1="265.69" y1="392.53" x2="346.75" y2="392.53"/><line class="cls-5" x1="265.69" y1="360.25" x2="346.75" y2="360.25"/><polyline class="cls-5" points="217.69 170.65 217.69 454.57 397.69 454.57 397.69 170.65 282.25 170.65 217.69 170.65"/><polyline class="cls-5" points="12.73 214.81 12.73 407.29 12.73 454.57 205.21 454.57 205.21 407.29 212.65 407.29 212.65 183.37 205.21 183.37 205.21 125.29 140.17 125.29"/><polyline class="cls-5" points="145.21 120.25 217.69 120.25 217.69 165.61 288.49 165.61 288.49 12.97 145.21 12.97 145.21 120.25"/><polyline class="cls-5" points="293.53 36.97 293.53 165.61 397.69 165.61 397.69 120.25 397.69 36.97 293.53 36.97"/><polyline class="cls-5" points="140.17 125.29 140.17 87.37 12.73 87.37 12.73 120.25 12.73 183.37 12.73 214.81"/><polyline class="cls-5" points="42.97 82.33 140.17 82.33 140.17 12.97 42.97 12.97 42.97 82.33"/><line class="cls-5" x1="135.44" y1="0.25" x2="410.17" y2="0.25"/><path d="M6.5,470.41h0Z" transform="translate(-0.01)"/><path class="cls-5" d="M6.5,470.41h0Z" transform="translate(-0.01)"/><path d="M44.65,476.65H6.5v-6.24Zm0,0Z" transform="translate(-0.01)"/><path class="cls-5" d="M44.65,476.65H6.5v-6.24Zm0,0Z" transform="translate(-0.01)"/><polygon points="6.49 470.41 44.65 470.41 44.65 476.65 6.49 470.41"/><polygon class="cls-5" points="6.49 470.41 44.65 470.41 44.65 476.65 6.49 470.41"/><path d="M239.05,470.41h0Zm0,0Z" transform="translate(-0.01)"/><path class="cls-5" d="M239.05,470.41h0Zm0,0Z" transform="translate(-0.01)"/><path d="M160.09,470.41l81.36,6.24H160.09Zm81.36,0H160.09l81.36,6.24Z" transform="translate(-0.01)"/><path class="cls-5" d="M160.09,470.41l81.36,6.24H160.09Zm81.36,0H160.09l81.36,6.24Z" transform="translate(-0.01)"/><polyline points="410.17 470.41 392.17 470.41 410.17 470.41"/><polyline class="cls-5" points="410.17 470.41 392.17 470.41 410.17 470.41"/><polyline points="410.17 476.65 389.77 476.65 389.77 470.41 410.17 476.65"/><polyline points="410.17 470.41 389.77 470.41 410.17 476.65"/><polyline class="cls-5" points="410.17 476.65 389.77 476.65 389.77 470.41 410.17 476.65"/><polyline class="cls-5" points="410.17 470.41 389.77 470.41 410.17 476.65"/><polyline points="410.17 454.57 410.17 454.57 410.17 454.57"/><polyline class="cls-5" points="410.17 454.57 410.17 454.57 410.17 454.57"/><polyline points="410.17 467.29 410.17 467.29 410.17 454.57 410.17 467.29"/><polyline points="410.17 454.57 410.17 454.57 410.17 467.29"/><polyline class="cls-5" points="410.17 467.29 410.17 467.29 410.17 454.57 410.17 467.29"/><polyline class="cls-5" points="410.17 454.57 410.17 454.57 410.17 467.29"/><polyline points="410.17 470.41 410.17 470.41 410.17 467.29 410.17 470.41"/><polyline points="410.17 470.41 410.17 470.41 410.17 470.41"/><polyline class="cls-5" points="410.17 470.41 410.17 470.41 410.17 467.29 410.17 470.41"/><polyline class="cls-5" points="410.17 470.41 410.17 470.41 410.17 470.41"/><polyline points="410.17 470.41 410.17 467.29 410.17 467.29"/><polyline class="cls-5" points="410.17 470.41 410.17 467.29 410.17 467.29"/><path d="M397.69,454.57h0Z" transform="translate(-0.01)"/><path class="cls-5" d="M397.69,454.57h0Z" transform="translate(-0.01)"/><path d="M410.17,470.41H397.69V454.57Zm0,0Z" transform="translate(-0.01)"/><path class="cls-5" d="M410.17,470.41H397.69V454.57Zm0,0Z" transform="translate(-0.01)"/><polygon points="397.69 454.57 410.17 454.57 410.17 470.41 397.69 454.57"/><polygon class="cls-5" points="397.69 454.57 410.17 454.57 410.17 470.41 397.69 454.57"/><path d="M12.74,454.57h0Z" transform="translate(-0.01)"/><path class="cls-5" d="M12.74,454.57h0Z" transform="translate(-0.01)"/><path d="M12.74,454.57,42,467.29H12.74Zm29.27,0H12.74L42,467.29Z" transform="translate(-0.01)"/><path class="cls-5" d="M12.74,454.57,42,467.29H12.74Zm29.27,0H12.74L42,467.29Z" transform="translate(-0.01)"/><path d="M42,470.41H12.74v-3.12Zm0,0Z" transform="translate(-0.01)"/><path class="cls-5" d="M42,470.41H12.74v-3.12Zm0,0Z" transform="translate(-0.01)"/><polygon points="12.73 467.29 42.01 467.29 42.01 470.41 12.73 467.29"/><polygon class="cls-5" points="12.73 467.29 42.01 467.29 42.01 470.41 12.73 467.29"/><path d="M162.49,467.29h0Zm76.56,0h0Zm-76.56-12.72,76.56,12.72H162.49Zm76.56,0H162.49l76.56,12.72Z" transform="translate(-0.01)"/><path class="cls-5" d="M162.49,467.29h0Zm76.56,0h0Zm-76.56-12.72,76.56,12.72H162.49Zm76.56,0H162.49l76.56,12.72Z" transform="translate(-0.01)"/><path d="M162.49,467.29l76.56,3.12H162.49Zm76.56,0H162.49l76.56,3.12Z" transform="translate(-0.01)"/><path class="cls-5" d="M162.49,467.29l76.56,3.12H162.49Zm76.56,0H162.49l76.56,3.12Z" transform="translate(-0.01)"/><path d="M397.69,454.57h0Z" transform="translate(-0.01)"/><path class="cls-5" d="M397.69,454.57h0Z" transform="translate(-0.01)"/><path d="M392.17,454.57l5.52,12.72h-5.52Zm5.52,0h-5.52l5.52,12.72Z" transform="translate(-0.01)"/><path class="cls-5" d="M392.17,454.57l5.52,12.72h-5.52Zm5.52,0h-5.52l5.52,12.72Z" transform="translate(-0.01)"/><path d="M397.69,470.41h-5.52v-3.12Zm0,0Z" transform="translate(-0.01)"/><path class="cls-5" d="M397.69,470.41h-5.52v-3.12Zm0,0Z" transform="translate(-0.01)"/><polygon points="392.17 467.29 397.69 467.29 397.69 470.41 392.17 467.29"/><polygon class="cls-5" points="392.17 467.29 397.69 467.29 397.69 470.41 392.17 467.29"/><path d="M6.5,454.57h0Z" transform="translate(-0.01)"/><path class="cls-5" d="M6.5,454.57h0Z" transform="translate(-0.01)"/><path d="M12.74,470.41H6.5V454.57Zm0,0Z" transform="translate(-0.01)"/><path class="cls-5" d="M12.74,470.41H6.5V454.57Zm0,0Z" transform="translate(-0.01)"/><polygon points="6.49 454.57 12.73 454.57 12.73 470.41 6.49 454.57"/><polygon class="cls-5" points="6.49 454.57 12.73 454.57 12.73 470.41 6.49 454.57"/><line class="cls-5" x1="410.17" y1="470.41" x2="410.17" y2="470.41"/><line class="cls-5" x1="397.69" y1="454.57" x2="397.69" y2="470.41"/><polyline class="cls-5" points="397.69 470.41 410.17 470.41 410.17 454.57"/><line class="cls-5" x1="162.49" y1="470.41" x2="239.05" y2="470.41"/><line class="cls-5" x1="12.73" y1="470.41" x2="42.01" y2="470.41"/><line class="cls-5" x1="392.17" y1="470.41" x2="397.69" y2="470.41"/><polyline class="cls-5" points="6.49 470.41 12.73 470.41 12.73 454.57"/><line class="cls-5" x1="392.17" y1="467.29" x2="392.17" y2="454.57"/><polyline class="cls-5" points="389.77 476.65 389.77 470.41 392.17 470.41 392.17 467.29"/><line class="cls-5" x1="239.05" y1="467.29" x2="239.05" y2="454.57"/><polyline class="cls-5" points="241.45 476.65 241.45 470.41 239.05 470.41 239.05 467.29"/><line class="cls-5" x1="162.49" y1="467.29" x2="162.49" y2="454.57"/><polyline class="cls-5" points="160.09 476.65 160.09 470.41 162.49 470.41 162.49 467.29"/><line class="cls-5" x1="42.01" y1="467.29" x2="42.01" y2="454.57"/><polyline class="cls-5" points="44.65 476.65 44.65 470.41 42.01 470.41 42.01 467.29"/><line class="cls-5" x1="410.17" y1="454.57" x2="410.17" y2="454.57"/><line class="cls-5" x1="397.69" y1="454.57" x2="392.17" y2="454.57"/><line class="cls-5" x1="239.05" y1="454.57" x2="12.73" y2="454.57"/><line class="cls-5" x1="6.49" y1="476.65" x2="44.65" y2="476.65"/><line class="cls-5" x1="160.09" y1="476.65" x2="241.45" y2="476.65"/><line class="cls-5" x1="389.77" y1="476.65" x2="410.17" y2="476.65"/><line class="cls-5" x1="241.45" y1="476.65" x2="389.77" y2="476.65"/><line class="cls-5" x1="239.05" y1="454.57" x2="392.17" y2="454.57"/><path d="M239.05,467.29h0Z" transform="translate(-0.01)"/><path class="cls-5" d="M239.05,467.29h0Z" transform="translate(-0.01)"/><path d="M244.09,470.41h-5v-3.12Zm0,0Z" transform="translate(-0.01)"/><path class="cls-5" d="M244.09,470.41h-5v-3.12Zm0,0Z" transform="translate(-0.01)"/><polygon points="239.05 467.29 244.09 467.29 244.09 470.41 239.05 467.29"/><polygon class="cls-5" points="239.05 467.29 244.09 467.29 244.09 470.41 239.05 467.29"/><path d="M276.73,467.29h0Z" transform="translate(-0.01)"/><path class="cls-5" d="M276.73,467.29h0Z" transform="translate(-0.01)"/><path d="M279.85,470.41h-3.12v-3.12Zm0,0Z" transform="translate(-0.01)"/><path class="cls-5" d="M279.85,470.41h-3.12v-3.12Zm0,0Z" transform="translate(-0.01)"/><polygon points="276.73 467.29 279.85 467.29 279.85 470.41 276.73 467.29"/><polygon class="cls-5" points="276.73 467.29 279.85 467.29 279.85 470.41 276.73 467.29"/><path d="M279.85,467.29h0Z" transform="translate(-0.01)"/><path class="cls-5" d="M279.85,467.29h0Z" transform="translate(-0.01)"/><path d="M283.21,470.41h-3.36v-3.12Zm0,0Z" transform="translate(-0.01)"/><path class="cls-5" d="M283.21,470.41h-3.36v-3.12Zm0,0Z" transform="translate(-0.01)"/><polygon points="279.85 467.29 283.21 467.29 283.21 470.41 279.85 467.29"/><polygon class="cls-5" points="279.85 467.29 283.21 467.29 283.21 470.41 279.85 467.29"/><path d="M348,467.29h0Z" transform="translate(-0.01)"/><path class="cls-5" d="M348,467.29h0Z" transform="translate(-0.01)"/><path d="M351.13,470.41H348v-3.12Zm0,0Z" transform="translate(-0.01)"/><path class="cls-5" d="M351.13,470.41H348v-3.12Zm0,0Z" transform="translate(-0.01)"/><polygon points="348.01 467.29 351.13 467.29 351.13 470.41 348.01 467.29"/><polygon class="cls-5" points="348.01 467.29 351.13 467.29 351.13 470.41 348.01 467.29"/><path d="M351.13,467.29h0Z" transform="translate(-0.01)"/><path class="cls-5" d="M351.13,467.29h0Z" transform="translate(-0.01)"/><path d="M354.49,470.41h-3.36v-3.12Zm0,0Z" transform="translate(-0.01)"/><path class="cls-5" d="M354.49,470.41h-3.36v-3.12Zm0,0Z" transform="translate(-0.01)"/><polygon points="351.13 467.29 354.49 467.29 354.49 470.41 351.13 467.29"/><polygon class="cls-5" points="351.13 467.29 354.49 467.29 354.49 470.41 351.13 467.29"/><path d="M387.13,467.29h0Z" transform="translate(-0.01)"/><path class="cls-5" d="M387.13,467.29h0Z" transform="translate(-0.01)"/><path d="M392.17,470.41h-5v-3.12Zm0,0Z" transform="translate(-0.01)"/><path class="cls-5" d="M392.17,470.41h-5v-3.12Zm0,0Z" transform="translate(-0.01)"/><polygon points="387.13 467.29 392.17 467.29 392.17 470.41 387.13 467.29"/><polygon class="cls-5" points="387.13 467.29 392.17 467.29 392.17 470.41 387.13 467.29"/><polyline class="cls-5" points="239.05 470.41 244.09 470.41 244.09 467.29 239.05 467.29"/><polyline class="cls-5" points="279.85 467.29 276.73 467.29 276.73 470.41 279.85 470.41"/><line class="cls-5" x1="244.09" y1="470.41" x2="276.73" y2="470.41"/><line class="cls-5" x1="276.73" y1="467.29" x2="244.09" y2="467.29"/><polyline class="cls-5" points="279.85 470.41 283.21 470.41 283.21 467.29 279.85 467.29"/><polyline class="cls-5" points="351.13 467.29 348.01 467.29 348.01 470.41 351.13 470.41"/><line class="cls-5" x1="283.21" y1="470.41" x2="348.01" y2="470.41"/><line class="cls-5" x1="348.01" y1="467.29" x2="283.21" y2="467.29"/><polyline class="cls-5" points="351.13 470.41 354.49 470.41 354.49 467.29 351.13 467.29"/><polyline class="cls-5" points="392.17 467.29 387.13 467.29 387.13 470.41 392.17 470.41"/><line class="cls-5" x1="354.49" y1="470.41" x2="387.13" y2="470.41"/><line class="cls-5" x1="387.13" y1="467.29" x2="354.49" y2="467.29"/><polyline class="cls-5" points="241.45 470.41 239.05 470.41 239.05 467.29"/><polyline class="cls-5" points="389.77 470.41 392.17 470.41 392.17 467.29"/><line class="cls-5" x1="44.65" y1="476.65" x2="160.09" y2="476.65"/><line class="cls-5" x1="42.01" y1="454.57" x2="162.49" y2="454.57"/><path d="M42,467.29h0Z" transform="translate(-0.01)"/><path class="cls-5" d="M42,467.29h0Z" transform="translate(-0.01)"/><path d="M47.05,470.41H42v-3.12Zm0,0Z" transform="translate(-0.01)"/><path class="cls-5" d="M47.05,470.41H42v-3.12Zm0,0Z" transform="translate(-0.01)"/><polygon points="42.01 467.29 47.05 467.29 47.05 470.41 42.01 467.29"/><polygon class="cls-5" points="42.01 467.29 47.05 467.29 47.05 470.41 42.01 467.29"/><path d="M118.33,467.29h0Z" transform="translate(-0.01)"/><path class="cls-5" d="M118.33,467.29h0Z" transform="translate(-0.01)"/><path d="M121.69,470.41h-3.36v-3.12Zm0,0Z" transform="translate(-0.01)"/><path class="cls-5" d="M121.69,470.41h-3.36v-3.12Zm0,0Z" transform="translate(-0.01)"/><polygon points="118.33 467.29 121.69 467.29 121.69 470.41 118.33 467.29"/><polygon class="cls-5" points="118.33 467.29 121.69 467.29 121.69 470.41 118.33 467.29"/><path d="M121.69,467.29h0Z" transform="translate(-0.01)"/><path class="cls-5" d="M121.69,467.29h0Z" transform="translate(-0.01)"/><path d="M124.81,470.41h-3.12v-3.12Zm0,0Z" transform="translate(-0.01)"/><path class="cls-5" d="M124.81,470.41h-3.12v-3.12Zm0,0Z" transform="translate(-0.01)"/><polygon points="121.69 467.29 124.81 467.29 124.81 470.41 121.69 467.29"/><polygon class="cls-5" points="121.69 467.29 124.81 467.29 124.81 470.41 121.69 467.29"/><path d="M157.45,467.29h0Z" transform="translate(-0.01)"/><path class="cls-5" d="M157.45,467.29h0Z" transform="translate(-0.01)"/><path d="M162.49,470.41h-5v-3.12Zm0,0Z" transform="translate(-0.01)"/><path class="cls-5" d="M162.49,470.41h-5v-3.12Zm0,0Z" transform="translate(-0.01)"/><polygon points="157.45 467.29 162.49 467.29 162.49 470.41 157.45 467.29"/><polygon class="cls-5" points="157.45 467.29 162.49 467.29 162.49 470.41 157.45 467.29"/><polyline class="cls-5" points="42.01 470.41 47.05 470.41 47.05 467.29 42.01 467.29"/><polyline class="cls-5" points="121.69 467.29 118.33 467.29 118.33 470.41 121.69 470.41"/><line class="cls-5" x1="47.05" y1="470.41" x2="118.33" y2="470.41"/><line class="cls-5" x1="118.33" y1="467.29" x2="47.05" y2="467.29"/><polyline class="cls-5" points="121.69 470.41 124.81 470.41 124.81 467.29 121.69 467.29"/><polyline class="cls-5" points="162.49 467.29 157.45 467.29 157.45 470.41 162.49 470.41"/><line class="cls-5" x1="124.81" y1="470.41" x2="157.45" y2="470.41"/><line class="cls-5" x1="157.45" y1="467.29" x2="124.81" y2="467.29"/><polyline class="cls-5" points="44.65 470.41 42.01 470.41 42.01 467.29"/><polyline class="cls-5" points="160.09 470.41 162.49 470.41 162.49 467.29"/><polyline points="0.25 470.41 6.49 476.65 0.25 476.65"/><polyline points="0.25 470.41 6.49 476.65 6.49 470.41 0.25 470.41"/><polyline class="cls-5" points="0.25 470.41 6.49 476.65 0.25 476.65"/><polyline class="cls-5" points="0.25 470.41 6.49 476.65 6.49 470.41 0.25 470.41"/><path d="M.26,454.57h0Z" transform="translate(-0.01)"/><path class="cls-5" d="M.26,454.57h0Z" transform="translate(-0.01)"/><path d="M6.5,470.41H.26V454.57Zm0,0Z" transform="translate(-0.01)"/><path class="cls-5" d="M6.5,470.41H.26V454.57Zm0,0Z" transform="translate(-0.01)"/><polygon points="0.25 454.57 6.49 454.57 6.49 470.41 0.25 454.57"/><polygon class="cls-5" points="0.25 454.57 6.49 454.57 6.49 470.41 0.25 454.57"/><polyline points="0.25 454.57 0.25 467.29 0.25 467.29"/><polyline points="0.25 454.57 0.25 467.29 0.25 454.57 0.25 454.57"/><polyline class="cls-5" points="0.25 454.57 0.25 467.29 0.25 467.29"/><polyline class="cls-5" points="0.25 454.57 0.25 467.29 0.25 454.57 0.25 454.57"/><polyline points="0.25 467.29 0.25 470.41 0.25 470.41"/><polyline points="0.25 467.29 0.25 470.41 0.25 467.29 0.25 467.29"/><polyline class="cls-5" points="0.25 467.29 0.25 470.41 0.25 470.41"/><polyline class="cls-5" points="0.25 467.29 0.25 470.41 0.25 467.29 0.25 467.29"/><polyline class="cls-5" points="0.25 454.57 0.25 470.41 6.49 470.41"/><line class="cls-5" x1="0.25" y1="470.41" x2="0.25" y2="470.41"/><line class="cls-5" x1="0.25" y1="454.57" x2="0.25" y2="454.57"/><line class="cls-5" x1="0.25" y1="476.65" x2="6.49" y2="476.65"/><line class="cls-5" x1="392.89" y1="157.21" x2="392.89" y2="127.21"/><line class="cls-5" x1="389.53" y1="123.85" x2="316.09" y2="123.85"/><line class="cls-5" x1="389.53" y1="160.81" x2="316.09" y2="160.81"/><line class="cls-5" x1="295.45" y1="120.25" x2="396.25" y2="120.25"/><polyline class="cls-5" points="295.45 120.25 295.45 164.41 396.25 164.41 396.25 120.25"/><line class="cls-5" x1="327.85" y1="154.81" x2="385.45" y2="154.81"/><line class="cls-5" x1="387.13" y1="152.89" x2="387.13" y2="131.77"/><line class="cls-5" x1="327.85" y1="129.85" x2="385.45" y2="129.85"/><line class="cls-5" x1="375.37" y1="143.29" x2="375.37" y2="145.69"/><line class="cls-5" x1="376.33" y1="142.33" x2="378.49" y2="142.33"/><line class="cls-5" x1="375.37" y1="141.13" x2="375.37" y2="138.97"/><line class="cls-5" x1="374.41" y1="142.33" x2="372.25" y2="142.33"/><polyline class="cls-5" points="316.09 123.85 312.97 124.09 309.85 125.05 306.73 126.49 304.33 128.65 301.93 131.05 300.25 133.93 299.05 137.29 298.57 140.65 298.57 144.01 299.05 147.37 300.25 150.49 301.93 153.37 304.33 156.01 306.73 158.17 309.85 159.61 312.97 160.57 316.09 160.81"/><polyline class="cls-5" points="392.89 127.21 392.89 126.73 392.89 126.01 392.65 125.53 392.17 125.05 391.69 124.57 391.21 124.33 390.73 124.09 390.25 123.85 389.53 123.85"/><polyline class="cls-5" points="389.53 160.81 390.25 160.81 390.73 160.57 391.21 160.33 391.69 160.09 392.17 159.61 392.65 159.13 392.89 158.65 392.89 157.93 392.89 157.21"/><polyline class="cls-5" points="375.37 140.41 374.89 140.41 374.65 140.65 374.41 140.65 374.17 140.89 373.93 141.13 373.69 141.61 373.69 141.85 373.69 142.33 373.69 142.57 373.69 142.81 373.69 143.29 373.93 143.53 374.17 143.77 374.41 144.01 374.89 144.01 375.13 144.25 375.61 144.25 375.85 144.01 376.09 144.01 376.33 143.77 376.57 143.53 376.81 143.29 377.05 142.81 377.05 142.57 377.05 142.33 377.05 141.85 376.81 141.61 376.81 141.13 376.57 140.89 376.33 140.65 376.09 140.65 375.61 140.41 375.37 140.41"/><polyline class="cls-5" points="327.85 129.85 325.69 130.09 323.77 130.81 321.85 131.77 319.93 133.21 318.49 134.89 317.29 136.81 316.57 138.97 316.09 141.13 316.09 143.53 316.57 145.69 317.29 147.85 318.49 149.77 319.93 151.45 321.85 152.89 323.77 153.85 325.69 154.57 327.85 154.81"/><polyline class="cls-5" points="385.45 154.81 385.69 154.57 385.93 154.57 386.41 154.57 386.65 154.33 386.65 154.09 386.89 153.85 387.13 153.61 387.13 153.37 387.13 152.89"/><polyline class="cls-5" points="387.13 131.77 387.13 131.29 387.13 131.05 386.89 130.81 386.65 130.57 386.65 130.33 386.41 130.09 385.93 130.09 385.69 129.85 385.45 129.85"/><polyline class="cls-5" points="375.37 139.93 374.89 139.93 374.41 139.93 374.17 140.17 373.69 140.41 373.45 140.89 373.21 141.37 372.97 141.61 372.97 142.09 372.97 142.57 373.21 143.05 373.21 143.53 373.45 144.01 373.93 144.25 374.17 144.49 374.65 144.73 375.13 144.73 375.61 144.73 376.09 144.73 376.33 144.49 376.81 144.25 377.05 144.01 377.29 143.53 377.53 143.05 377.77 142.57 377.77 142.09 377.53 141.61 377.53 141.37 377.29 140.89 377.05 140.41 376.57 140.17 376.09 139.93 375.85 139.93 375.37 139.93"/><polyline class="cls-5" points="381.85 83.05 396.25 83.05 396.25 117.13 381.85 117.13"/><line class="cls-5" x1="396.25" y1="105.37" x2="396.25" y2="94.57"/><line class="cls-5" x1="384.73" y1="102.97" x2="384.73" y2="101.05"/><line class="cls-5" x1="387.61" y1="100.09" x2="385.93" y2="100.09"/><line class="cls-5" x1="384.73" y1="98.89" x2="384.73" y2="97.21"/><line class="cls-5" x1="383.77" y1="100.09" x2="381.85" y2="100.09"/><path class="cls-5" d="M388.3,90.74a15.3,15.3,0,0,0-7.21-5.91" transform="translate(-0.01)"/><path class="cls-5" d="M390.44,100a15.23,15.23,0,0,0-2.13-9.08" transform="translate(-0.01)"/><path class="cls-5" d="M381.09,114.86A15.18,15.18,0,0,0,388.3,109" transform="translate(-0.01)"/><path class="cls-5" d="M388.31,109a15.23,15.23,0,0,0,2.13-9.08" transform="translate(-0.01)"/><path class="cls-5" d="M373.46,88.32a27.93,27.93,0,0,0-2.81,10.32" transform="translate(-0.01)"/><path class="cls-5" d="M374.9,113.85a8.75,8.75,0,0,0,7.21,3.27" transform="translate(-0.01)"/><path class="cls-5" d="M370.85,98.79a18.58,18.58,0,0,0,0,2.36" transform="translate(-0.01)"/><path class="cls-5" d="M387.6,109.48a62,62,0,0,0,0-19" transform="translate(-0.01)"/><path class="cls-5" d="M379.92,116.17a21.51,21.51,0,0,0,14-4.85" transform="translate(-0.01)"/><path class="cls-5" d="M394.72,109.63a42.61,42.61,0,0,0,1-9.74" transform="translate(-0.01)"/><path class="cls-5" d="M393.8,111.23a2.78,2.78,0,0,0,.95-1.53" transform="translate(-0.01)"/><path class="cls-5" d="M393.88,109.51a73.44,73.44,0,0,0,.69-9.61" transform="translate(-0.01)"/><path class="cls-5" d="M379.8,116.17a19.35,19.35,0,0,0,13-4.83" transform="translate(-0.01)"/><path class="cls-5" d="M392.68,111.16a2.8,2.8,0,0,0,.91-1.69" transform="translate(-0.01)"/><path class="cls-5" d="M392.85,88.61a19.31,19.31,0,0,0-13-4.84" transform="translate(-0.01)"/><path class="cls-5" d="M393.91,88.64a21.51,21.51,0,0,0-14-4.87" transform="translate(-0.01)"/><path class="cls-5" d="M394.57,99.9a71.74,71.74,0,0,0-.68-9.61" transform="translate(-0.01)"/><path class="cls-5" d="M395.77,99.87a42.49,42.49,0,0,0-1-9.74" transform="translate(-0.01)"/><path class="cls-5" d="M393.59,90.23a2.75,2.75,0,0,0-.91-1.69" transform="translate(-0.01)"/><path class="cls-5" d="M394.75,90.24a2.82,2.82,0,0,0-.95-1.53" transform="translate(-0.01)"/><path class="cls-5" d="M382.11,82.82a8.75,8.75,0,0,0-7.21,3.27" transform="translate(-0.01)"/><path class="cls-5" d="M374.94,86.12a13.34,13.34,0,0,0-1.46,2.25" transform="translate(-0.01)"/><path class="cls-5" d="M373.48,111.33a13.25,13.25,0,0,0,1.46,2.24" transform="translate(-0.01)"/><path class="cls-5" d="M370.65,101.06a27.93,27.93,0,0,0,2.81,10.32" transform="translate(-0.01)"/><path class="cls-5" d="M373.05,95.27a20.18,20.18,0,0,0,0,9.4" transform="translate(-0.01)"/><path class="cls-5" d="M381.13,85a5.16,5.16,0,0,0-4.26,1.78" transform="translate(-0.01)"/><path class="cls-5" d="M376.94,86.75A18.56,18.56,0,0,0,373,95.3" transform="translate(-0.01)"/><path class="cls-5" d="M376.87,113.18a5.16,5.16,0,0,0,4.26,1.78" transform="translate(-0.01)"/><path class="cls-5" d="M373,104.64a18.56,18.56,0,0,0,3.92,8.55" transform="translate(-0.01)"/><path class="cls-5" d="M387.13,100a2.28,2.28,0,1,0-2.28,2.28,2.28,2.28,0,0,0,2.28-2.28" transform="translate(-0.01)"/><path class="cls-5" d="M386.41,100a1.56,1.56,0,1,0-1.56,1.56,1.56,1.56,0,0,0,1.56-1.56" transform="translate(-0.01)"/><line class="cls-5" x1="386.89" y1="72.97" x2="364.81" y2="72.97"/><polyline class="cls-5" points="388.09 73.93 396.25 73.93 396.25 50.41"/><line class="cls-5" x1="383.05" y1="62.17" x2="383.05" y2="53.53"/><polyline class="cls-5" points="364.81 72.97 383.05 70.81 383.05 62.17"/><line class="cls-5" x1="364.81" y1="51.37" x2="383.05" y2="53.53"/><line class="cls-5" x1="364.81" y1="72.49" x2="383.05" y2="70.33"/><line class="cls-5" x1="364.81" y1="52.09" x2="383.05" y2="54.01"/><line class="cls-5" x1="386.89" y1="51.37" x2="364.81" y2="51.37"/><line class="cls-5" x1="396.25" y1="50.41" x2="388.09" y2="50.41"/><polyline class="cls-5" points="364.81 72.97 362.41 72.73 360.25 71.77 358.09 70.33 356.41 68.41 355.45 66.01 354.73 63.37 354.73 60.97 355.45 58.33 356.41 56.17 358.09 54.25 360.25 52.57 362.41 51.85 364.81 51.37"/><polyline class="cls-5" points="364.81 72.49 362.65 72.01 360.49 71.29 358.57 69.85 356.89 67.93 355.93 65.77 355.45 63.37 355.45 60.97 355.93 58.57 356.89 56.41 358.57 54.49 360.49 53.05 362.65 52.33 364.81 52.09"/><polyline class="cls-5" points="388.09 50.41 387.85 50.65 387.61 50.65 387.37 50.65 387.13 50.89 387.13 51.13 386.89 51.37 386.89 51.61 386.65 51.85 386.17 58.81 386.17 65.77 386.65 72.73 386.89 72.97 386.89 73.21 387.13 73.45 387.37 73.69 387.61 73.69 387.85 73.93 388.09 73.93"/><polyline class="cls-5" points="392.41 62.17 392.41 61.93 392.17 61.69 391.93 61.45 391.93 61.21 391.69 61.21 391.45 60.97 391.21 60.97 390.97 60.97 390.73 61.21 390.49 61.21 390.49 61.45 390.25 61.45 390.25 61.69 390.01 61.93 390.01 62.17 390.01 62.41 390.25 62.65 390.25 62.89 390.49 63.13 390.73 63.37 390.97 63.37 391.21 63.37 391.45 63.37 391.69 63.13 391.93 63.13 391.93 62.89 392.17 62.89 392.17 62.65 392.41 62.41 392.41 62.17"/><polyline class="cls-5" points="293.53 36.97 293.53 65.29 331.45 65.29 331.45 36.97 293.53 36.97"/><path d="M12.74,120.25H.26V6.73Zm0,0Z" transform="translate(-0.01)"/><path class="cls-5" d="M12.74,120.25H.26V6.73Zm0,0Z" transform="translate(-0.01)"/><polygon points="0.25 6.73 12.73 6.73 12.73 120.25 0.25 6.73"/><polygon class="cls-5" points="0.25 6.73 12.73 6.73 12.73 120.25 0.25 6.73"/><line class="cls-5" x1="12.73" y1="120.25" x2="12.73" y2="87.37"/><line class="cls-5" x1="12.73" y1="82.33" x2="12.73" y2="50.89"/><polyline class="cls-5" points="12.73 45.85 12.73 6.73 0.25 0.25 0.25 120.25 12.73 120.25"/><path d="M140.17,13h0Z" transform="translate(-0.01)"/><path class="cls-5" d="M140.17,13h0Z" transform="translate(-0.01)"/><path d="M145.21,25.69h-5V13Zm0,0Z" transform="translate(-0.01)"/><path class="cls-5" d="M145.21,25.69h-5V13Zm0,0Z" transform="translate(-0.01)"/><polygon points="140.17 12.97 145.21 12.97 145.21 25.69 140.17 12.97"/><polygon class="cls-5" points="140.17 12.97 145.21 12.97 145.21 25.69 140.17 12.97"/><path d="M140.17,76.09h0Z" transform="translate(-0.01)"/><path class="cls-5" d="M140.17,76.09h0Z" transform="translate(-0.01)"/><path d="M140.17,120.25h5l-5,5Zm0-44.16v44.16h5Z" transform="translate(-0.01)"/><path class="cls-5" d="M140.17,120.25h5l-5,5Zm0-44.16v44.16h5Z" transform="translate(-0.01)"/><polygon points="140.17 76.09 145.21 76.09 145.21 120.25 140.17 76.09"/><polygon class="cls-5" points="140.17 76.09 145.21 76.09 145.21 120.25 140.17 76.09"/><line class="cls-5" x1="140.17" y1="25.69" x2="145.21" y2="25.69"/><polyline class="cls-5" points="140.17 76.09 145.21 76.09 145.21 120.25"/><polyline class="cls-5" points="145.21 25.69 145.21 12.97 140.17 12.97 140.17 25.69"/><line class="cls-5" x1="140.17" y1="76.09" x2="140.17" y2="82.33"/><line class="cls-5" x1="140.17" y1="87.37" x2="140.17" y2="125.29"/><line class="cls-5" x1="140.17" y1="76.09" x2="140.17" y2="72.97"/><line class="cls-5" x1="145.21" y1="76.09" x2="145.21" y2="72.97"/><line class="cls-5" x1="140.17" y1="25.69" x2="140.17" y2="28.81"/><line class="cls-5" x1="145.21" y1="25.69" x2="145.21" y2="28.81"/><line class="cls-5" x1="145.21" y1="72.97" x2="140.17" y2="72.97"/><polyline class="cls-5" points="145.21 28.81 140.17 28.81 118.09 66.97"/><path class="cls-5" d="M118.16,67A44.31,44.31,0,0,0,140.29,73" transform="translate(-0.01)"/><path d="M217.69,165.61h0Z" transform="translate(-0.01)"/><path class="cls-5" d="M217.69,165.61h0Z" transform="translate(-0.01)"/><path d="M227.29,170.65h-9.6v-5Zm0,0Z" transform="translate(-0.01)"/><path class="cls-5" d="M227.29,170.65h-9.6v-5Zm0,0Z" transform="translate(-0.01)"/><polygon points="217.69 165.61 227.29 165.61 227.29 170.65 217.69 165.61"/><polygon class="cls-5" points="217.69 165.61 227.29 165.61 227.29 170.65 217.69 165.61"/><path d="M284.17,165.61h0Z" transform="translate(-0.01)"/><path class="cls-5" d="M284.17,165.61h0Z" transform="translate(-0.01)"/><path d="M400.09,170.65H284.17v-5Zm0,0Z" transform="translate(-0.01)"/><path class="cls-5" d="M400.09,170.65H284.17v-5Zm0,0Z" transform="translate(-0.01)"/><polygon points="284.17 165.61 400.09 165.61 400.09 170.65 284.17 165.61"/><polygon class="cls-5" points="284.17 165.61 400.09 165.61 400.09 170.65 284.17 165.61"/><line class="cls-5" x1="227.29" y1="170.65" x2="227.29" y2="165.61"/><line class="cls-5" x1="284.17" y1="170.65" x2="284.17" y2="165.61"/><line class="cls-5" x1="400.09" y1="165.61" x2="293.53" y2="165.61"/><line class="cls-5" x1="288.49" y1="165.61" x2="284.17" y2="165.61"/><line class="cls-5" x1="227.29" y1="165.61" x2="217.69" y2="165.61"/><line class="cls-5" x1="217.69" y1="170.65" x2="227.29" y2="170.65"/><polyline class="cls-5" points="284.17 170.65 400.09 170.65 400.09 165.61"/><line class="cls-5" x1="284.17" y1="170.65" x2="280.81" y2="170.65"/><line class="cls-5" x1="284.17" y1="165.61" x2="280.81" y2="165.61"/><line class="cls-5" x1="227.29" y1="170.65" x2="230.41" y2="170.65"/><line class="cls-5" x1="227.29" y1="165.61" x2="230.41" y2="165.61"/><line class="cls-5" x1="280.81" y1="165.61" x2="280.81" y2="170.65"/><polyline class="cls-5" points="230.41 165.61 230.41 170.65 230.41 221.29"/><path class="cls-5" d="M230.53,221.05a50.52,50.52,0,0,0,50.52-50.52" transform="translate(-0.01)"/><path d="M217.69,120.25v5h-5Zm0,5v0Z" transform="translate(-0.01)"/><path class="cls-5" d="M217.69,120.25v5h-5Zm0,5v0Z" transform="translate(-0.01)"/><path d="M217.69,408h-5V125.29Zm0,0Z" transform="translate(-0.01)"/><path class="cls-5" d="M217.69,408h-5V125.29Zm0,0Z" transform="translate(-0.01)"/><polygon points="212.65 125.29 217.69 125.29 217.69 408.01 212.65 125.29"/><polygon class="cls-5" points="212.65 125.29 217.69 125.29 217.69 408.01 212.65 125.29"/><polyline class="cls-5" points="212.65 125.29 212.65 408.01 217.69 408.01 217.69 170.65"/><line class="cls-5" x1="217.69" y1="165.61" x2="217.69" y2="120.25"/><path d="M288.49,13h0Z" transform="translate(-0.01)"/><path class="cls-5" d="M288.49,13h0Z" transform="translate(-0.01)"/><path d="M293.53,66.49h-5V13Zm0,0Z" transform="translate(-0.01)"/><path class="cls-5" d="M293.53,66.49h-5V13Zm0,0Z" transform="translate(-0.01)"/><polygon points="288.49 12.97 293.53 12.97 293.53 66.49 288.49 12.97"/><polygon class="cls-5" points="288.49 12.97 293.53 12.97 293.53 66.49 288.49 12.97"/><path d="M288.49,117.13h0Z" transform="translate(-0.01)"/><path class="cls-5" d="M288.49,117.13h0Z" transform="translate(-0.01)"/><path d="M293.53,165.61h-5V117.13Zm0,0Z" transform="translate(-0.01)"/><path class="cls-5" d="M293.53,165.61h-5V117.13Zm0,0Z" transform="translate(-0.01)"/><polygon points="288.49 117.13 293.53 117.13 293.53 165.61 288.49 117.13"/><polygon class="cls-5" points="288.49 117.13 293.53 117.13 293.53 165.61 288.49 117.13"/><line class="cls-5" x1="288.49" y1="66.49" x2="293.53" y2="66.49"/><polyline class="cls-5" points="288.49 117.13 293.53 117.13 293.53 165.61"/><line class="cls-5" x1="293.53" y1="66.49" x2="293.53" y2="36.97"/><polyline class="cls-5" points="293.53 31.93 293.53 12.97 288.49 12.97 288.49 66.49"/><line class="cls-5" x1="288.49" y1="117.13" x2="288.49" y2="165.61"/><line class="cls-5" x1="288.49" y1="117.13" x2="288.49" y2="114.01"/><line class="cls-5" x1="293.53" y1="117.13" x2="293.53" y2="114.01"/><line class="cls-5" x1="288.49" y1="66.49" x2="288.49" y2="69.85"/><line class="cls-5" x1="293.53" y1="66.49" x2="293.53" y2="69.85"/><line class="cls-5" x1="293.53" y1="114.01" x2="288.49" y2="114.01"/><polyline class="cls-5" points="293.53 69.85 288.49 69.85 266.41 108.01"/><path class="cls-5" d="M266.48,108.08A44.31,44.31,0,0,0,288.61,114" transform="translate(-0.01)"/><path d="M354.73,13h0Z" transform="translate(-0.01)"/><path class="cls-5" d="M354.73,13h0Z" transform="translate(-0.01)"/><path d="M359.77,31.93h-5V13Zm0,0Z" transform="translate(-0.01)"/><path class="cls-5" d="M359.77,31.93h-5V13Zm0,0Z" transform="translate(-0.01)"/><polygon points="354.73 12.97 359.77 12.97 359.77 31.93 354.73 12.97"/><polygon class="cls-5" points="354.73 12.97 359.77 12.97 359.77 31.93 354.73 12.97"/><polyline class="cls-5" points="359.77 31.93 359.77 12.97 354.73 12.97 354.73 31.93"/><path d="M293.53,31.93h0Z" transform="translate(-0.01)"/><path class="cls-5" d="M293.53,31.93h0Z" transform="translate(-0.01)"/><path d="M400.09,37H293.53v-5Zm0,0Z" transform="translate(-0.01)"/><path class="cls-5" d="M400.09,37H293.53v-5Zm0,0Z" transform="translate(-0.01)"/><polygon points="293.53 31.93 400.09 31.93 400.09 36.97 293.53 31.93"/><polygon class="cls-5" points="293.53 31.93 400.09 31.93 400.09 36.97 293.53 31.93"/><line class="cls-5" x1="400.09" y1="31.93" x2="359.77" y2="31.93"/><line class="cls-5" x1="354.73" y1="31.93" x2="293.53" y2="31.93"/><polyline class="cls-5" points="293.53 36.97 400.09 36.97 400.09 31.93"/><path d="M12.74,82.33h0Z" transform="translate(-0.01)"/><path class="cls-5" d="M12.74,82.33h0Z" transform="translate(-0.01)"/><path d="M140.17,87.37H12.74v-5Zm0,0Z" transform="translate(-0.01)"/><path class="cls-5" d="M140.17,87.37H12.74v-5Zm0,0Z" transform="translate(-0.01)"/><polygon points="12.73 82.33 140.17 82.33 140.17 87.37 12.73 82.33"/><polygon class="cls-5" points="12.73 82.33 140.17 82.33 140.17 87.37 12.73 82.33"/><line class="cls-5" x1="140.17" y1="82.33" x2="42.97" y2="82.33"/><line class="cls-5" x1="37.93" y1="82.33" x2="12.73" y2="82.33"/><line class="cls-5" x1="12.73" y1="87.37" x2="140.17" y2="87.37"/><path d="M37.93,13h0Z" transform="translate(-0.01)"/><path class="cls-5" d="M37.93,13h0Z" transform="translate(-0.01)"/><path d="M43,82.33h-5V13Zm0,0Z" transform="translate(-0.01)"/><path class="cls-5" d="M43,82.33h-5V13Zm0,0Z" transform="translate(-0.01)"/><polygon points="37.93 12.97 42.97 12.97 42.97 82.33 37.93 12.97"/><polygon class="cls-5" points="37.93 12.97 42.97 12.97 42.97 82.33 37.93 12.97"/><line class="cls-5" x1="37.93" y1="12.97" x2="37.93" y2="45.85"/><line class="cls-5" x1="37.93" y1="50.89" x2="37.93" y2="82.33"/><polyline class="cls-5" points="42.97 82.33 42.97 12.97 37.93 12.97"/><path d="M37.93,45.85h0Z" transform="translate(-0.01)"/><path class="cls-5" d="M37.93,45.85h0Z" transform="translate(-0.01)"/><path d="M37.93,50.89H12.74v-5Zm0,0Z" transform="translate(-0.01)"/><path class="cls-5" d="M37.93,50.89H12.74v-5Zm0,0Z" transform="translate(-0.01)"/><polygon points="12.73 45.85 37.93 45.85 37.93 50.89 12.73 45.85"/><polygon class="cls-5" points="12.73 45.85 37.93 45.85 37.93 50.89 12.73 45.85"/><line class="cls-5" x1="37.93" y1="45.85" x2="12.73" y2="45.85"/><line class="cls-5" x1="12.73" y1="50.89" x2="37.93" y2="50.89"/><path d="M145.21,120.25h0Z" transform="translate(-0.01)"/><path class="cls-5" d="M145.21,120.25h0Z" transform="translate(-0.01)"/><path d="M148.33,125.29h-8.16l5-5Zm0,0Z" transform="translate(-0.01)"/><path class="cls-5" d="M148.33,125.29h-8.16l5-5Zm0,0Z" transform="translate(-0.01)"/><polygon points="145.21 120.25 148.33 120.25 148.33 125.29 145.21 120.25"/><polygon class="cls-5" points="145.21 120.25 148.33 120.25 148.33 125.29 145.21 120.25"/><path d="M205.21,120.25h0Z" transform="translate(-0.01)"/><path class="cls-5" d="M205.21,120.25h0Z" transform="translate(-0.01)"/><path d="M212.65,125.29h-7.44v-5Zm0,0Z" transform="translate(-0.01)"/><path class="cls-5" d="M212.65,125.29h-7.44v-5Zm0,0Z" transform="translate(-0.01)"/><polygon points="205.21 120.25 217.69 120.25 212.65 125.29 205.21 120.25"/><polygon class="cls-5" points="205.21 120.25 217.69 120.25 212.65 125.29 205.21 120.25"/><line class="cls-5" x1="148.33" y1="125.29" x2="148.33" y2="120.25"/><polyline class="cls-5" points="205.21 120.25 205.21 125.29 205.21 120.25"/><line class="cls-5" x1="148.33" y1="120.25" x2="145.21" y2="120.25"/><line class="cls-5" x1="140.17" y1="125.29" x2="148.33" y2="125.29"/><line class="cls-5" x1="148.33" y1="125.29" x2="151.45" y2="125.29"/><line class="cls-5" x1="148.33" y1="120.25" x2="151.45" y2="120.25"/><line class="cls-5" x1="205.21" y1="125.29" x2="202.09" y2="125.29"/><line class="cls-5" x1="205.21" y1="120.25" x2="202.09" y2="120.25"/><line class="cls-5" x1="151.45" y1="120.25" x2="151.45" y2="125.29"/><polyline class="cls-5" points="202.09 120.25 202.09 125.29 202.09 175.69"/><path class="cls-5" d="M151.69,125.17a50.52,50.52,0,0,0,50.52,50.52" transform="translate(-0.01)"/><path d="M5.3.25,157.21,13H5.3Zm151.91,0H5.3L157.21,13Z" transform="translate(-0.01)"/><path class="cls-5" d="M10.34.25,162.25,13H10.34Zm151.91,0H10.34L162.25,13Z" transform="translate(-0.01)"/><line class="cls-5" x1="225.37" y1="12.97" x2="225.37" y2="0.25"/><polyline class="cls-5" points="10.33 12.97 162.25 12.97 162.25 0.25 5.29 0.25 5.29 12.97"/><path class="cls-5" d="M165.13,12.85a58,58,0,0,0,58,58" transform="translate(-0.01)"/><path d="M162.25.25h0Z" transform="translate(-0.01)"/><path class="cls-5" d="M162.25.25h0Z" transform="translate(-0.01)"/><path d="M164.89,13h-2.64V.25Zm0,0Z" transform="translate(-0.01)"/><path class="cls-5" d="M164.89,13h-2.64V.25Zm0,0Z" transform="translate(-0.01)"/><polygon points="162.25 0.25 164.89 0.25 164.89 12.97 162.25 0.25"/><polygon class="cls-5" points="162.25 0.25 164.89 0.25 164.89 12.97 162.25 0.25"/><path d="M223,.25h0Z" transform="translate(-0.01)"/><path class="cls-5" d="M223,.25h0Z" transform="translate(-0.01)"/><path d="M225.37,13H223V.25Zm0,0Z" transform="translate(-0.01)"/><path class="cls-5" d="M225.37,13H223V.25Zm0,0Z" transform="translate(-0.01)"/><polygon points="222.97 0.25 225.37 0.25 225.37 12.97 222.97 0.25"/><polygon class="cls-5" points="222.97 0.25 225.37 0.25 225.37 12.97 222.97 0.25"/><polyline class="cls-5" points="162.25 0.25 164.89 0.25 164.89 12.97 162.25 12.97 162.25 0.25"/><polyline class="cls-5" points="225.37 12.97 222.97 12.97 222.97 0.25 225.37 0.25 225.37 12.97"/><line class="cls-5" x1="222.97" y1="12.97" x2="222.97" y2="71.05"/><line class="cls-5" x1="162.25" y1="12.97" x2="162.25" y2="0.25"/><line class="cls-5" x1="225.37" y1="12.97" x2="225.37" y2="0.25"/><polyline points="410.17 12.97 288.49 12.97 288.49 0.25 410.17 12.97"/><polyline points="410.17 0.25 288.49 0.25 410.17 12.97"/><polyline class="cls-5" points="410.17 12.97 288.49 12.97 288.49 0.25 410.17 12.97"/><polyline class="cls-5" points="410.17 0.25 288.49 0.25 410.17 12.97"/><line class="cls-5" x1="288.49" y1="12.97" x2="397.69" y2="12.97"/><line class="cls-5" x1="410.17" y1="12.97" x2="410.17" y2="12.97"/><polyline class="cls-5" points="410.17 0.25 288.49 0.25 288.49 12.97"/><polyline class="cls-5" points="160.09 514.57 161.77 512.89 161.77 476.65 160.09 476.65 160.09 514.57"/><line class="cls-5" x1="160.81" y1="513.85" x2="160.81" y2="476.65"/><polyline class="cls-5" points="241.45 514.57 239.77 512.89 161.77 512.89 160.09 514.57 241.45 514.57"/><line class="cls-5" x1="240.73" y1="513.85" x2="160.81" y2="513.85"/><polyline class="cls-5" points="239.77 512.89 239.77 476.65 241.45 476.65 241.45 514.57 239.77 512.89"/><line class="cls-5" x1="240.73" y1="513.85" x2="240.73" y2="476.65"/><polyline class="cls-5" points="12.73 87.37 50.65 87.37 50.65 125.29 31.69 125.29 12.73 125.29 12.73 87.37"/><polyline class="cls-5" points="15.37 122.65 15.37 90.01 48.01 90.01 48.01 122.65 31.69 122.65 15.37 122.65"/><line class="cls-5" x1="140.17" y1="214.81" x2="138.67" y2="214.81"/><line class="cls-6" x1="135.63" y1="214.81" x2="15.75" y2="214.81"/><line class="cls-5" x1="14.23" y1="214.81" x2="12.73" y2="214.81"/><line class="cls-5" x1="6.49" y1="214.81" x2="6.49" y2="214.81"/><line class="cls-5" x1="140.17" y1="125.29" x2="140.17" y2="125.29"/><line class="cls-5" x1="140.17" y1="125.29" x2="140.17" y2="126.79"/><line class="cls-7" x1="140.17" y1="129.77" x2="140.17" y2="211.82"/><line class="cls-5" x1="140.17" y1="213.31" x2="140.17" y2="214.81"/><line class="cls-5" x1="142.09" y1="125.29" x2="12.73" y2="125.29"/><line class="cls-5" x1="0.25" y1="214.81" x2="0.25" y2="214.81"/><path d="M205.21,125.29h0Z" transform="translate(-0.01)"/><path class="cls-5" d="M205.21,125.29h0Z" transform="translate(-0.01)"/><path d="M205.21,125.29l12.48,58.08H205.21Zm12.48,0H205.21l12.48,58.08Z" transform="translate(-0.01)"/><path class="cls-5" d="M205.21,125.29l12.48,58.08H205.21Zm12.48,0H205.21l12.48,58.08Z" transform="translate(-0.01)"/><polyline class="cls-5" points="205.21 125.29 205.21 183.37 217.69 183.37 217.69 125.29"/><path d="M205.21,407.29l12.48,63.12H205.21Zm12.48,0H205.21l12.48,63.12Z" transform="translate(-0.01)"/><path class="cls-5" d="M205.21,407.29l12.48,63.12H205.21Zm12.48,0H205.21l12.48,63.12Z" transform="translate(-0.01)"/><polyline class="cls-5" points="205.21 407.29 205.21 470.41 217.69 470.41 217.69 407.29 205.21 407.29"/><path d="M.26,407.29h0Z" transform="translate(-0.01)"/><path class="cls-5" d="M.26,407.29h0Z" transform="translate(-0.01)"/><path d="M12.74,454.57H.26V407.29Zm0,0Z" transform="translate(-0.01)"/><path class="cls-5" d="M12.74,454.57H.26V407.29Zm0,0Z" transform="translate(-0.01)"/><polygon points="0.25 407.29 12.73 407.29 12.73 454.57 0.25 407.29"/><polygon class="cls-5" points="0.25 407.29 12.73 407.29 12.73 454.57 0.25 407.29"/><polyline class="cls-5" points="12.73 454.57 12.73 407.29 0.25 407.29 0.25 476.65"/><path d="M.26,120.25h0Z" transform="translate(-0.01)"/><path class="cls-5" d="M.26,120.25h0Z" transform="translate(-0.01)"/><path d="M12.74,183.37H.26V120.25Zm0,0Z" transform="translate(-0.01)"/><path class="cls-5" d="M12.74,183.37H.26V120.25Zm0,0Z" transform="translate(-0.01)"/><polygon points="0.25 120.25 12.73 120.25 12.73 183.37 0.25 120.25"/><polygon class="cls-5" points="0.25 120.25 12.73 120.25 12.73 183.37 0.25 120.25"/><polyline class="cls-5" points="12.73 183.37 12.73 120.25 0.25 120.25 0.25 183.37 12.73 183.37"/><path d="M225.37.25h0Z" transform="translate(-0.01)"/><path class="cls-5" d="M225.37.25h0Z" transform="translate(-0.01)"/><path d="M288.49,13H225.37V.25Zm0,0Z" transform="translate(-0.01)"/><path class="cls-5" d="M288.49,13H225.37V.25Zm0,0Z" transform="translate(-0.01)"/><polygon points="225.37 0.25 288.49 0.25 288.49 12.97 225.37 0.25"/><polygon class="cls-5" points="225.37 0.25 288.49 0.25 288.49 12.97 225.37 0.25"/><polyline class="cls-5" points="225.37 12.97 288.49 12.97 288.49 0.25 225.37 0.25 225.37 12.97"/><path d="M397.69,407.29h0Z" transform="translate(-0.01)"/><path class="cls-5" d="M397.69,407.29h0Z" transform="translate(-0.01)"/><path d="M410.17,454.57H397.69V407.29Zm0,0Z" transform="translate(-0.01)"/><path class="cls-5" d="M410.17,454.57H397.69V407.29Zm0,0Z" transform="translate(-0.01)"/><polygon points="397.69 407.29 410.17 407.29 410.17 454.57 397.69 407.29"/><polygon class="cls-5" points="397.69 407.29 410.17 407.29 410.17 454.57 397.69 407.29"/><line class="cls-5" x1="397.69" y1="407.29" x2="397.69" y2="454.57"/><polyline class="cls-5" points="410.17 476.65 410.17 407.29 397.69 407.29"/><path d="M397.69,120.25h0Z" transform="translate(-0.01)"/><path class="cls-5" d="M397.69,120.25h0Z" transform="translate(-0.01)"/><path d="M410.17,183.37H397.69V120.25Zm0,0Z" transform="translate(-0.01)"/><path class="cls-5" d="M410.17,183.37H397.69V120.25Zm0,0Z" transform="translate(-0.01)"/><polygon points="397.69 120.25 410.17 120.25 410.17 183.37 397.69 120.25"/><polygon class="cls-5" points="397.69 120.25 410.17 120.25 410.17 183.37 397.69 120.25"/><polyline class="cls-5" points="397.69 120.25 397.69 183.37 410.17 183.37 410.17 120.25 397.69 120.25"/><path d="M397.69,13h0Z" transform="translate(-0.01)"/><path class="cls-5" d="M397.69,13h0Z" transform="translate(-0.01)"/><path d="M410.17,120.25H397.69V13Zm0,0Z" transform="translate(-0.01)"/><path class="cls-5" d="M410.17,120.25H397.69V13Zm0,0Z" transform="translate(-0.01)"/><polygon points="397.69 12.97 410.17 12.97 410.17 120.25 397.69 12.97"/><polygon class="cls-5" points="397.69 12.97 410.17 12.97 410.17 120.25 397.69 12.97"/><polyline class="cls-5" points="397.69 12.97 397.69 120.25 410.17 120.25 410.17 0.25"/><path d="M.26,183.37h0Z" transform="translate(-0.01)"/><path class="cls-5" d="M.26,183.37h0Z" transform="translate(-0.01)"/><path d="M12.74,407.29H.26V183.37Zm0,0Z" transform="translate(-0.01)"/><path class="cls-5" d="M12.74,407.29H.26V183.37Zm0,0Z" transform="translate(-0.01)"/><polygon points="0.25 183.37 12.73 183.37 12.73 407.29 0.25 183.37"/><polygon class="cls-5" points="0.25 183.37 12.73 183.37 12.73 407.29 0.25 183.37"/><polyline class="cls-5" points="12.73 407.29 12.73 183.37 0.25 183.37 0.25 407.29 12.73 407.29"/><path d="M397.69,183.37h0Z" transform="translate(-0.01)"/><path class="cls-5" d="M397.69,183.37h0Z" transform="translate(-0.01)"/><path d="M410.17,407.29H397.69V183.37Zm0,0Z" transform="translate(-0.01)"/><path class="cls-5" d="M410.17,407.29H397.69V183.37Zm0,0Z" transform="translate(-0.01)"/><polygon points="397.69 183.37 410.17 183.37 410.17 407.29 397.69 183.37"/><polygon class="cls-5" points="397.69 183.37 410.17 183.37 410.17 407.29 397.69 183.37"/><polyline class="cls-5" points="397.69 183.37 397.69 407.29 410.17 407.29 410.17 183.37 397.69 183.37"/><polyline points="0.25 0.25 5.29 0.25 0.25 0.25"/><polyline class="cls-5" points="0.25 0.25 5.29 0.25 0.25 0.25"/><polyline points="0.25 0.25 5.29 12.97 0.25 12.97"/><polyline points="0.25 12.97 5.29 12.97 5.29 12.97 0.25 12.97"/><polyline class="cls-5" points="0.25 0.25 5.29 12.97 0.25 12.97"/><polyline class="cls-5" points="0.25 12.97 5.29 12.97 5.29 12.97 0.25 12.97"/><polyline points="0.25 0.25 5.29 0.25 5.29 12.97 0.25 0.25"/><polyline class="cls-5" points="0.25 0.25 5.29 0.25 5.29 12.97 0.25 0.25"/><polyline class="cls-5" points="0.25 12.97 5.29 12.97 5.29 0.25 0.25 0.25"/></svg>