<svg id="_47" data-name="47" xmlns="http://www.w3.org/2000/svg" viewBox="0 0 317.56 431.48"><defs><style>.cls-1,.cls-3,.cls-5{fill:none;}.cls-1{stroke:#969696;stroke-miterlimit:10;}.cls-2{isolation:isolate;font-size:12px;fill:#969696;}.cls-2,.cls-4{font-family:PTSans-Regular, PT Sans;}.cls-3,.cls-5{stroke:#000;stroke-linecap:round;stroke-linejoin:round;}.cls-3{stroke-width:1px;}.cls-4{font-size:17px;}.cls-5{stroke-width:0.77px;}</style></defs><title>7floor_47flat</title><line class="cls-1" x1="140.49" y1="428.94" x2="140.49" y2="420.14"/><polyline class="cls-1" points="137.09 425.63 140.59 429.13 144.09 425.63"/><text class="cls-2" transform="translate(149.93 428.54)">двор</text><polyline class="cls-3" points="144.98 305.78 144.98 141.62 10.1 141.62 10.1 305.78 144.98 305.78"/><polyline class="cls-3" points="131.54 323.3 12.98 323.3 12.98 360.74 131.54 360.74 131.54 323.3"/><polyline class="cls-3" points="307.22 351.14 307.22 96.98 149.06 96.98 149.06 298.58 149.06 351.14 307.22 351.14"/><polyline class="cls-3" points="99.38 10.1 94.34 10.1 94.34 137.78 139.22 137.78 139.22 132.98 139.22 92.9 155.78 92.9 208.34 92.9 208.34 10.1 99.38 10.1"/><polyline class="cls-3" points="212.42 92.9 307.22 92.9 307.22 19.94 212.42 19.94 212.42 92.9"/><polyline class="cls-3" points="10.1 114.5 90.5 114.5 90.5 10.1 29.54 10.1 10.1 10.1 10.1 92.9 10.1 114.5"/><polyline class="cls-3" points="0.5 0.5 29.54 0.5 287.78 0.5 317.06 0.5"/><path d="M139.22,363.38h0Z"/><path class="cls-3" d="M139.22,363.38h0Z"/><path d="M159.62,368.18h-20.4v-4.8Zm0,0Z"/><path class="cls-3" d="M159.62,368.18h-20.4v-4.8Zm0,0Z"/><polygon points="139.22 363.38 159.62 363.38 159.62 368.18 139.22 363.38"/><polygon class="cls-3" points="139.22 363.38 159.62 363.38 159.62 368.18 139.22 363.38"/><polyline points="317.06 368.18 274.1 368.18 274.1 363.38 317.06 368.18"/><polyline points="317.06 363.38 274.1 363.38 317.06 368.18"/><polyline class="cls-3" points="317.06 368.18 274.1 368.18 274.1 363.38 317.06 368.18"/><polyline class="cls-3" points="317.06 363.38 274.1 363.38 317.06 368.18"/><path d="M136.58,363.38h0Z"/><path class="cls-3" d="M136.58,363.38h0Z"/><path d="M136.58,363.38l2.64,4.32H132Zm2.64,0h-2.64l2.64,4.32Z"/><path class="cls-3" d="M136.58,363.38l2.64,4.32H132Zm2.64,0h-2.64l2.64,4.32Z"/><path d="M139.22,368.18H132v-.48Zm0,0Z"/><path class="cls-3" d="M139.22,368.18H132v-.48Zm0,0Z"/><polygon points="132.02 367.7 139.22 367.7 139.22 368.18 132.02 367.7"/><polygon class="cls-3" points="132.02 367.7 139.22 367.7 139.22 368.18 132.02 367.7"/><polygon points="132.02 367.7 132.02 368.18 131.54 368.18 132.02 367.7"/><polygon class="cls-3" points="132.02 367.7 132.02 368.18 131.54 368.18 132.02 367.7"/><path d="M149.06,351.14h0Z"/><path class="cls-3" d="M149.06,351.14h0Z"/><path d="M149.06,351.14l8.64,9.6h-8.64Zm8.64,0h-8.64l8.64,9.6Z"/><path class="cls-3" d="M149.06,351.14l8.64,9.6h-8.64Zm8.64,0h-8.64l8.64,9.6Z"/><path d="M157.7,363.38h-8.64v-2.64Zm0,0Z"/><path class="cls-3" d="M157.7,363.38h-8.64v-2.64Zm0,0Z"/><polygon points="149.06 360.74 157.7 360.74 157.7 363.38 149.06 360.74"/><polygon class="cls-3" points="149.06 360.74 157.7 360.74 157.7 363.38 149.06 360.74"/><polyline points="317.06 360.74 276.02 360.74 276.02 351.14 317.06 360.74"/><polyline points="317.06 351.14 276.02 351.14 317.06 360.74"/><polyline class="cls-3" points="317.06 360.74 276.02 360.74 276.02 351.14 317.06 360.74"/><polyline class="cls-3" points="317.06 351.14 276.02 351.14 317.06 360.74"/><polyline points="317.06 363.38 276.02 363.38 276.02 360.74 317.06 363.38"/><polyline points="317.06 363.38 276.02 363.38 317.06 363.38"/><polyline class="cls-3" points="317.06 363.38 276.02 363.38 276.02 360.74 317.06 363.38"/><polyline class="cls-3" points="317.06 363.38 276.02 363.38 317.06 363.38"/><polyline points="317.06 363.38 276.02 360.74 317.06 360.74"/><polyline class="cls-3" points="317.06 363.38 276.02 360.74 317.06 360.74"/><polygon points="149.06 351.14 149.06 360.5 139.22 360.5 149.06 351.14"/><polygon class="cls-3" points="149.06 351.14 149.06 360.5 139.22 360.5 149.06 351.14"/><path d="M149.06,363.38h-9.84V360.5Zm0,0Z"/><path class="cls-3" d="M149.06,363.38h-9.84V360.5Zm0,0Z"/><polygon points="139.22 360.5 149.06 360.5 149.06 363.38 139.22 360.5"/><polygon class="cls-3" points="139.22 360.5 149.06 360.5 149.06 363.38 139.22 360.5"/><path d="M139.22,363.38h0Zm0-2.88v2.88h-2.64Z"/><path class="cls-3" d="M139.22,363.38h0Zm0-2.88v2.88h-2.64Z"/><line class="cls-3" x1="132.02" y1="367.7" x2="132.02" y2="368.18"/><line class="cls-3" x1="276.02" y1="363.38" x2="317.06" y2="363.38"/><line class="cls-3" x1="149.06" y1="363.38" x2="157.7" y2="363.38"/><polyline class="cls-3" points="149.06 351.14 149.06 363.38 139.22 363.38 139.22 360.5"/><line class="cls-3" x1="276.02" y1="360.74" x2="276.02" y2="351.14"/><polyline class="cls-3" points="274.1 368.18 274.1 363.38 276.02 363.38 276.02 360.74"/><line class="cls-3" x1="157.7" y1="360.74" x2="157.7" y2="351.14"/><polyline class="cls-3" points="159.62 368.18 159.62 363.38 157.7 363.38 157.7 360.74"/><line class="cls-3" x1="317.06" y1="351.14" x2="276.02" y2="351.14"/><line class="cls-3" x1="157.7" y1="351.14" x2="149.06" y2="351.14"/><polyline class="cls-3" points="131.54 368.18 132.02 368.18 139.22 368.18 159.62 368.18"/><line class="cls-3" x1="274.1" y1="368.18" x2="317.06" y2="368.18"/><line class="cls-3" x1="159.62" y1="368.18" x2="274.1" y2="368.18"/><line class="cls-3" x1="157.7" y1="351.14" x2="276.02" y2="351.14"/><path d="M157.7,360.74h0Z"/><path class="cls-3" d="M157.7,360.74h0Z"/><path d="M161.54,363.38H157.7v-2.64Zm0,0Z"/><path class="cls-3" d="M161.54,363.38H157.7v-2.64Zm0,0Z"/><polygon points="157.7 360.74 161.54 360.74 161.54 363.38 157.7 360.74"/><polygon class="cls-3" points="157.7 360.74 161.54 360.74 161.54 363.38 157.7 360.74"/><path d="M187,360.74h0Z"/><path class="cls-3" d="M187,360.74h0Z"/><path d="M189.38,363.38H187v-2.64Zm0,0Z"/><path class="cls-3" d="M189.38,363.38H187v-2.64Zm0,0Z"/><polygon points="186.98 360.74 189.38 360.74 189.38 363.38 186.98 360.74"/><polygon class="cls-3" points="186.98 360.74 189.38 360.74 189.38 363.38 186.98 360.74"/><path d="M189.38,360.74h0Z"/><path class="cls-3" d="M189.38,360.74h0Z"/><path d="M191.78,363.38h-2.4v-2.64Zm0,0Z"/><path class="cls-3" d="M191.78,363.38h-2.4v-2.64Zm0,0Z"/><polygon points="189.38 360.74 191.78 360.74 191.78 363.38 189.38 360.74"/><polygon class="cls-3" points="189.38 360.74 191.78 360.74 191.78 363.38 189.38 360.74"/><path d="M241.94,360.74h0Z"/><path class="cls-3" d="M241.94,360.74h0Z"/><path d="M244.58,363.38h-2.64v-2.64Zm0,0Z"/><path class="cls-3" d="M244.58,363.38h-2.64v-2.64Zm0,0Z"/><polygon points="241.94 360.74 244.58 360.74 244.58 363.38 241.94 360.74"/><polygon class="cls-3" points="241.94 360.74 244.58 360.74 244.58 363.38 241.94 360.74"/><path d="M244.58,360.74h0Z"/><path class="cls-3" d="M244.58,360.74h0Z"/><path d="M247,363.38h-2.4v-2.64Zm0,0Z"/><path class="cls-3" d="M247,363.38h-2.4v-2.64Zm0,0Z"/><polygon points="244.58 360.74 246.98 360.74 246.98 363.38 244.58 360.74"/><polygon class="cls-3" points="244.58 360.74 246.98 360.74 246.98 363.38 244.58 360.74"/><path d="M272.18,360.74h0Z"/><path class="cls-3" d="M272.18,360.74h0Z"/><path d="M276,363.38h-3.84v-2.64Zm0,0Z"/><path class="cls-3" d="M276,363.38h-3.84v-2.64Zm0,0Z"/><polygon points="272.18 360.74 276.02 360.74 276.02 363.38 272.18 360.74"/><polygon class="cls-3" points="272.18 360.74 276.02 360.74 276.02 363.38 272.18 360.74"/><polyline class="cls-3" points="157.7 360.74 161.54 360.74 161.54 363.38 157.7 363.38"/><polyline class="cls-3" points="189.38 363.38 186.98 363.38 186.98 360.74 189.38 360.74"/><line class="cls-3" x1="161.54" y1="360.74" x2="186.98" y2="360.74"/><line class="cls-3" x1="186.98" y1="363.38" x2="161.54" y2="363.38"/><polyline class="cls-3" points="189.38 360.74 191.78 360.74 191.78 363.38 189.38 363.38"/><polyline class="cls-3" points="244.58 363.38 241.94 363.38 241.94 360.74 244.58 360.74"/><line class="cls-3" x1="191.78" y1="360.74" x2="241.94" y2="360.74"/><line class="cls-3" x1="241.94" y1="363.38" x2="191.78" y2="363.38"/><polyline class="cls-3" points="244.58 360.74 246.98 360.74 246.98 363.38 244.58 363.38"/><polyline class="cls-3" points="276.02 363.38 272.18 363.38 272.18 360.74 276.02 360.74"/><line class="cls-3" x1="246.98" y1="360.74" x2="272.18" y2="360.74"/><line class="cls-3" x1="272.18" y1="363.38" x2="246.98" y2="363.38"/><polyline class="cls-3" points="159.62 363.38 157.7 363.38 157.7 360.74"/><polyline class="cls-3" points="274.1 363.38 276.02 363.38 276.02 360.74"/><polygon points="131.54 322.82 132.02 322.82 131.54 323.3 131.54 322.82"/><polygon class="cls-3" points="131.54 322.82 132.02 322.82 131.54 323.3 131.54 322.82"/><path d="M73,323.3H10.1v-.48Zm0,0Z"/><path class="cls-3" d="M73,323.3H10.1v-.48Zm0,0Z"/><polygon points="10.1 322.82 72.98 322.82 72.98 323.3 10.1 322.82"/><polygon class="cls-3" points="10.1 322.82 72.98 322.82 72.98 323.3 10.1 322.82"/><path d="M139.22,315.62H132v7.2Zm0,0Z"/><path class="cls-3" d="M139.22,315.62H132v7.2Zm0,0Z"/><path d="M73,322.82H10.1v-7.2Zm0,0Z"/><path class="cls-3" d="M73,322.82H10.1v-7.2Zm0,0Z"/><polygon points="10.1 315.62 72.98 315.62 72.98 322.82 10.1 315.62"/><polygon class="cls-3" points="10.1 315.62 72.98 315.62 72.98 322.82 10.1 315.62"/><path d="M131.54,315.62h0Z"/><path class="cls-3" d="M131.54,315.62h0Z"/><path d="M132,322.82h-.48v-7.2Zm0,0Z"/><path class="cls-3" d="M132,322.82h-.48v-7.2Zm0,0Z"/><polygon points="131.54 315.62 132.02 315.62 132.02 322.82 131.54 315.62"/><polygon class="cls-3" points="131.54 315.62 132.02 315.62 132.02 322.82 131.54 315.62"/><path d="M139.22,305.78h0Z"/><path class="cls-3" d="M139.22,305.78h0Z"/><path d="M139.22,305.78h9.84l-9.84,9.84Zm9.84,0h0Zm-5.52,0h0Z"/><path class="cls-3" d="M139.22,305.78h9.84l-9.84,9.84Zm9.84,0h0Zm-5.52,0h0Z"/><path d="M10.1,305.78,73,313.22H10.1Zm62.88,0H10.1L73,313.22Z"/><path class="cls-3" d="M10.1,305.78,73,313.22H10.1Zm62.88,0H10.1L73,313.22Z"/><path d="M10.1,313.22,73,315.62H10.1Zm62.88,0H10.1L73,315.62Z"/><path class="cls-3" d="M10.1,313.22,73,315.62H10.1Zm62.88,0H10.1L73,315.62Z"/><path d="M131.54,305.78h0Z"/><path class="cls-3" d="M131.54,305.78h0Z"/><path d="M131.54,305.78l7.68,7.44h-7.68Zm7.68,0h-7.68l7.68,7.44Z"/><path class="cls-3" d="M131.54,305.78l7.68,7.44h-7.68Zm7.68,0h-7.68l7.68,7.44Z"/><path d="M139.22,315.62h-7.68v-2.4Zm0,0Z"/><path class="cls-3" d="M139.22,315.62h-7.68v-2.4Zm0,0Z"/><polygon points="131.54 313.22 139.22 313.22 139.22 315.62 131.54 313.22"/><polygon class="cls-3" points="131.54 313.22 139.22 313.22 139.22 315.62 131.54 313.22"/><path d="M73,315.62l.48,7.2H73Zm.48,0H73l.48,7.2Z"/><path class="cls-3" d="M73,315.62l.48,7.2H73Zm.48,0H73l.48,7.2Z"/><path d="M73,322.82l.48.48H73Zm.48,0H73l.48.48Z"/><path class="cls-3" d="M73,322.82l.48.48H73Zm.48,0H73l.48.48Z"/><path d="M131.06,315.62l.48,7.2h-.48Zm.48,0h-.48l.48,7.2Z"/><path class="cls-3" d="M131.06,315.62l.48,7.2h-.48Zm.48,0h-.48l.48,7.2Z"/><path d="M131.06,322.82l.48.48h-.48Zm.48,0h-.48l.48.48Z"/><path class="cls-3" d="M131.06,322.82l.48.48h-.48Zm.48,0h-.48l.48.48Z"/><line class="cls-3" x1="131.54" y1="322.82" x2="132.02" y2="322.82"/><line class="cls-3" x1="10.1" y1="322.82" x2="72.98" y2="322.82"/><polyline class="cls-3" points="139.22 305.78 139.22 315.62 131.54 315.62"/><line class="cls-3" x1="10.1" y1="315.62" x2="72.98" y2="315.62"/><polyline class="cls-3" points="131.54 322.82 131.54 315.62 131.06 315.62 131.06 323.3 131.54 323.3"/><polyline class="cls-3" points="72.98 322.82 72.98 315.62 73.46 315.62 73.46 323.3 72.98 323.3"/><polyline class="cls-3" points="131.54 315.62 131.54 313.22 131.54 305.78"/><polyline class="cls-3" points="72.98 315.62 72.98 313.22 72.98 305.78"/><line class="cls-3" x1="10.1" y1="323.3" x2="72.98" y2="323.3"/><polyline class="cls-3" points="149.06 305.78 139.22 305.78 131.54 305.78"/><polyline class="cls-3" points="72.98 305.78 10.1 305.78 10.1 315.62 10.1 322.82 10.1 323.3"/><line class="cls-3" x1="73.46" y1="323.3" x2="131.06" y2="323.3"/><line class="cls-3" x1="72.98" y1="305.78" x2="131.54" y2="305.78"/><path d="M73,313.22h0Z"/><path class="cls-3" d="M73,313.22h0Z"/><path d="M77.06,315.62H73v-2.4Zm0,0Z"/><path class="cls-3" d="M77.06,315.62H73v-2.4Zm0,0Z"/><polygon points="72.98 313.22 77.06 313.22 77.06 315.62 72.98 313.22"/><polygon class="cls-3" points="72.98 313.22 77.06 313.22 77.06 315.62 72.98 313.22"/><path d="M90,313.22h0Z"/><path class="cls-3" d="M90,313.22h0Z"/><path d="M92.42,315.62H90v-2.4Zm0,0Z"/><path class="cls-3" d="M92.42,315.62H90v-2.4Zm0,0Z"/><polygon points="90.02 313.22 92.42 313.22 92.42 315.62 90.02 313.22"/><polygon class="cls-3" points="90.02 313.22 92.42 313.22 92.42 315.62 90.02 313.22"/><path d="M92.42,313.22h0Z"/><path class="cls-3" d="M92.42,313.22h0Z"/><path d="M94.82,315.62h-2.4v-2.4Zm0,0Z"/><path class="cls-3" d="M94.82,315.62h-2.4v-2.4Zm0,0Z"/><polygon points="92.42 313.22 94.82 313.22 94.82 315.62 92.42 313.22"/><polygon class="cls-3" points="92.42 313.22 94.82 313.22 94.82 315.62 92.42 313.22"/><path d="M127.22,313.22h0Z"/><path class="cls-3" d="M127.22,313.22h0Z"/><path d="M131.54,315.62h-4.32v-2.4Zm0,0Z"/><path class="cls-3" d="M131.54,315.62h-4.32v-2.4Zm0,0Z"/><polygon points="127.22 313.22 131.54 313.22 131.54 315.62 127.22 313.22"/><polygon class="cls-3" points="127.22 313.22 131.54 313.22 131.54 315.62 127.22 313.22"/><polyline class="cls-3" points="72.98 313.22 77.06 313.22 77.06 315.62 72.98 315.62"/><polyline class="cls-3" points="92.42 315.62 90.02 315.62 90.02 313.22 92.42 313.22"/><line class="cls-3" x1="77.06" y1="313.22" x2="90.02" y2="313.22"/><line class="cls-3" x1="90.02" y1="315.62" x2="77.06" y2="315.62"/><polyline class="cls-3" points="92.42 313.22 94.82 313.22 94.82 315.62 92.42 315.62"/><polyline class="cls-3" points="131.54 315.62 127.22 315.62 127.22 313.22 131.54 313.22"/><line class="cls-3" x1="94.82" y1="313.22" x2="127.22" y2="313.22"/><line class="cls-3" x1="127.22" y1="315.62" x2="94.82" y2="315.62"/><line class="cls-3" x1="72.98" y1="315.62" x2="72.98" y2="313.22"/><line class="cls-3" x1="131.54" y1="315.62" x2="131.54" y2="313.22"/><polyline class="cls-3" points="0.5 305.78 0.5 315.62 0.5 322.82 0.5 323.3"/><line class="cls-3" x1="13.7" y1="16.58" x2="13.7" y2="39.86"/><line class="cls-3" x1="16.34" y1="42.5" x2="72.98" y2="42.5"/><line class="cls-3" x1="16.34" y1="13.94" x2="72.98" y2="13.94"/><line class="cls-3" x1="89.06" y1="45.14" x2="11.06" y2="45.14"/><polyline class="cls-3" points="89.06 45.14 89.06 11.06 11.06 11.06 11.06 45.14"/><line class="cls-3" x1="63.86" y1="18.5" x2="19.46" y2="18.5"/><line class="cls-3" x1="18.26" y1="19.94" x2="18.26" y2="36.5"/><line class="cls-3" x1="63.86" y1="37.7" x2="19.46" y2="37.7"/><line class="cls-3" x1="27.38" y1="27.38" x2="27.38" y2="25.7"/><line class="cls-3" x1="26.66" y1="28.1" x2="24.98" y2="28.1"/><line class="cls-3" x1="27.38" y1="29.06" x2="27.38" y2="30.74"/><line class="cls-3" x1="28.1" y1="28.1" x2="29.78" y2="28.1"/><polyline class="cls-3" points="72.98 42.5 75.62 42.26 78.02 41.54 80.18 40.34 82.34 38.66 84.02 36.74 85.22 34.58 86.18 32.18 86.66 29.54 86.66 26.9 86.18 24.26 85.22 21.86 84.02 19.46 82.34 17.54 80.18 16.1 78.02 14.9 75.62 14.18 72.98 13.94"/><polyline class="cls-3" points="13.7 39.86 13.7 40.34 13.94 40.82 14.18 41.06 14.42 41.54 14.66 41.78 15.14 42.26 15.38 42.26 15.86 42.5 16.34 42.5"/><polyline class="cls-3" points="16.34 13.94 15.86 13.94 15.38 13.94 15.14 14.18 14.66 14.42 14.42 14.9 14.18 15.14 13.94 15.62 13.7 16.1 13.7 16.58"/><polyline class="cls-3" points="27.38 26.66 27.14 26.9 26.9 26.9 26.66 26.9 26.42 27.14 26.18 27.38 26.18 27.62 25.94 27.86 25.94 28.1 25.94 28.34 26.18 28.58 26.18 28.82 26.42 29.06 26.42 29.3 26.66 29.54 26.9 29.54 27.14 29.54 27.62 29.54 27.86 29.54 28.1 29.54 28.1 29.3 28.34 29.06 28.58 28.82 28.58 28.58 28.82 28.34 28.82 28.1 28.58 27.86 28.58 27.62 28.58 27.38 28.34 27.14 28.1 26.9 27.86 26.9 27.62 26.9 27.38 26.66"/><polyline class="cls-3" points="63.86 37.7 65.54 37.7 67.22 37.22 68.66 36.26 70.1 35.3 71.3 33.86 72.02 32.42 72.74 30.74 72.98 29.06 72.98 27.38 72.74 25.46 72.02 24.02 71.3 22.34 70.1 21.14 68.66 19.94 67.22 19.22 65.54 18.74 63.86 18.5"/><polyline class="cls-3" points="19.46 18.5 19.22 18.74 18.98 18.74 18.74 18.98 18.5 19.22 18.26 19.46 18.26 19.7 18.26 19.94"/><polyline class="cls-3" points="18.26 36.5 18.26 36.74 18.26 36.98 18.5 36.98 18.5 37.22 18.74 37.46 18.98 37.7 19.22 37.7 19.46 37.7"/><polyline class="cls-3" points="27.38 26.18 27.14 26.42 26.66 26.42 26.42 26.66 26.18 26.9 25.94 27.14 25.7 27.38 25.7 27.86 25.46 28.1 25.46 28.58 25.7 28.82 25.7 29.06 25.94 29.54 26.18 29.78 26.66 29.78 26.9 30.02 27.14 30.02 27.62 30.02 27.86 30.02 28.1 29.78 28.58 29.78 28.82 29.54 29.06 29.06 29.06 28.82 29.06 28.58 29.3 28.1 29.06 27.86 29.06 27.38 28.82 27.14 28.58 26.9 28.34 26.66 28.1 26.42 27.62 26.42 27.38 26.18"/><polyline class="cls-3" points="22.34 73.94 11.06 73.94 11.06 47.78 22.34 47.78"/><line class="cls-3" x1="11.06" y1="56.66" x2="11.06" y2="65.06"/><line class="cls-3" x1="20.18" y1="58.58" x2="20.18" y2="60.02"/><line class="cls-3" x1="17.78" y1="60.74" x2="19.22" y2="60.74"/><line class="cls-3" x1="20.18" y1="61.7" x2="20.18" y2="63.14"/><line class="cls-3" x1="20.9" y1="60.74" x2="22.34" y2="60.74"/><path class="cls-3" d="M17.24,67.65a11.71,11.71,0,0,0,5.5,4.52"/><path class="cls-3" d="M15.66,60.65a11.55,11.55,0,0,0,1.63,6.93"/><path class="cls-3" d="M22.74,49.31a11.65,11.65,0,0,0-5.5,4.52"/><path class="cls-3" d="M17.29,53.65a11.6,11.6,0,0,0-1.63,6.94"/><path class="cls-3" d="M28.74,69.75a21.58,21.58,0,0,0,2.18-8"/><path class="cls-3" d="M27.61,50a6.6,6.6,0,0,0-5.43-2.46"/><path class="cls-3" d="M31,61.53a14,14,0,0,0,0-1.83"/><path class="cls-3" d="M17.87,53.28a47.61,47.61,0,0,0,0,14.69"/><path class="cls-3" d="M23.94,48.26A16.46,16.46,0,0,0,13.26,52"/><path class="cls-3" d="M12.36,53.08a33.08,33.08,0,0,0-.82,7.55"/><path class="cls-3" d="M13.1,51.89a2.27,2.27,0,0,0-.78,1.27"/><path class="cls-3" d="M13,53.35a54.5,54.5,0,0,0-.54,7.43"/><path class="cls-3" d="M23.85,48.26A14.75,14.75,0,0,0,13.9,52"/><path class="cls-3" d="M13.75,52a2.31,2.31,0,0,0-.75,1.4"/><path class="cls-3" d="M13.88,69.28A14.81,14.81,0,0,0,23.83,73"/><path class="cls-3" d="M13.24,69.25A16.43,16.43,0,0,0,23.92,73"/><path class="cls-3" d="M12.5,60.62A57.46,57.46,0,0,0,13,68"/><path class="cls-3" d="M11.54,60.81a33,33,0,0,0,.81,7.54"/><path class="cls-3" d="M13,68.13a2.31,2.31,0,0,0,.75,1.4"/><path class="cls-3" d="M12.32,68.32a2.25,2.25,0,0,0,.77,1.26"/><path class="cls-3" d="M22.18,73.69a6.6,6.6,0,0,0,5.43-2.46"/><path class="cls-3" d="M27.73,71.46a9.82,9.82,0,0,0,1.14-1.76"/><path class="cls-3" d="M28.87,51.77A10.59,10.59,0,0,0,27.73,50"/><path class="cls-3" d="M30.92,59.75a21.58,21.58,0,0,0-2.18-8"/><path class="cls-3" d="M29.11,64.25a15.63,15.63,0,0,0,0-7.26"/><path class="cls-3" d="M22.91,72.25a4,4,0,0,0,3.27-1.36"/><path class="cls-3" d="M26.07,70.86a14.19,14.19,0,0,0,3-6.56"/><path class="cls-3" d="M26.18,50.59a4,4,0,0,0-3.27-1.36"/><path class="cls-3" d="M29.08,57.18a14.19,14.19,0,0,0-3-6.56"/><path class="cls-3" d="M21.86,60.62a1.8,1.8,0,1,0-1.8,1.8,1.81,1.81,0,0,0,1.8-1.8"/><path class="cls-3" d="M21.38,60.62a1.32,1.32,0,1,0-1.32,1.32,1.32,1.32,0,0,0,1.32-1.32"/><line class="cls-3" x1="18.5" y1="86.66" x2="35.54" y2="86.66"/><polyline class="cls-3" points="17.54 85.94 11.06 85.94 11.06 103.94"/><line class="cls-3" x1="21.38" y1="94.82" x2="21.38" y2="101.54"/><polyline class="cls-3" points="35.54 86.66 21.38 88.34 21.38 94.82"/><line class="cls-3" x1="35.54" y1="103.22" x2="21.38" y2="101.54"/><line class="cls-3" x1="35.54" y1="87.14" x2="21.38" y2="88.58"/><line class="cls-3" x1="35.54" y1="102.74" x2="21.38" y2="101.06"/><line class="cls-3" x1="18.5" y1="103.22" x2="35.54" y2="103.22"/><line class="cls-3" x1="11.06" y1="103.94" x2="17.54" y2="103.94"/><polyline class="cls-3" points="35.54 86.66 37.22 86.9 39.14 87.62 40.58 88.58 41.78 90.26 42.74 91.94 43.22 93.86 43.22 96.02 42.74 97.94 41.78 99.62 40.58 101.06 39.14 102.26 37.22 102.98 35.54 103.22"/><polyline class="cls-3" points="35.54 87.14 37.22 87.38 38.9 87.86 40.34 89.06 41.54 90.5 42.26 92.18 42.74 93.86 42.74 95.78 42.26 97.7 41.54 99.38 40.34 100.82 38.9 101.78 37.22 102.5 35.54 102.74"/><polyline class="cls-3" points="17.54 103.94 17.78 103.94 18.02 103.7 18.26 103.7 18.26 103.46 18.5 103.46 18.5 103.22 18.5 102.98 18.98 94.82 18.5 86.9 18.5 86.66 18.5 86.42 18.26 86.42 18.26 86.18 18.02 85.94 17.78 85.94 17.54 85.94"/><polyline class="cls-3" points="16.1 94.82 16.1 95.06 15.86 95.3 15.86 95.54 15.62 95.54 15.62 95.78 15.38 95.78 15.14 95.78 14.9 95.78 14.66 95.78 14.66 95.54 14.42 95.54 14.42 95.3 14.18 95.06 14.18 94.82 14.18 94.58 14.42 94.58 14.42 94.34 14.66 94.34 14.66 94.1 14.9 94.1 15.14 94.1 15.38 94.1 15.62 94.1 15.86 94.34 15.86 94.58 16.1 94.82"/><polyline class="cls-3" points="90.5 114.5 90.5 92.42 61.22 92.42 61.22 114.5 90.5 114.5"/><path d="M26.66,366.74h0Z"/><path class="cls-3" d="M26.66,366.74h0Z"/><path d="M.5,366.74l26.16,1.44H.5Zm26.16,0H.5l26.16,1.44Z"/><path class="cls-3" d="M.5,366.74l26.16,1.44H.5Zm26.16,0H.5l26.16,1.44Z"/><path d="M131.54,366.74h0Z"/><path class="cls-3" d="M131.54,366.74h0Z"/><path d="M115.94,366.74l15.6,1.44h-15.6Zm15.6,0h-15.6l15.6,1.44Z"/><path class="cls-3" d="M115.94,366.74l15.6,1.44h-15.6Zm15.6,0h-15.6l15.6,1.44Z"/><path d="M.5,360.74l26.16,1.68H.5Zm26.16,0H.5l26.16,1.68Z"/><path class="cls-3" d="M.5,360.74l26.16,1.68H.5Zm26.16,0H.5l26.16,1.68Z"/><path d="M.5,362.42l26.16,2.4H.5Zm26.16,0H.5l26.16,2.4Z"/><path class="cls-3" d="M.5,362.42l26.16,2.4H.5Zm26.16,0H.5l26.16,2.4Z"/><path d="M26.66,366.74H.5v-1.92Zm0,0Z"/><path class="cls-3" d="M26.66,366.74H.5v-1.92Zm0,0Z"/><polygon points="0.5 364.82 26.66 364.82 26.66 366.74 0.5 364.82"/><polygon class="cls-3" points="0.5 364.82 26.66 364.82 26.66 366.74 0.5 364.82"/><path d="M115.94,360.74l15.6,1.68h-15.6Zm15.6,0h-15.6l15.6,1.68Z"/><path class="cls-3" d="M115.94,360.74l15.6,1.68h-15.6Zm15.6,0h-15.6l15.6,1.68Z"/><path d="M115.94,362.42l15.6,2.4h-15.6Zm15.6,0h-15.6l15.6,2.4Z"/><path class="cls-3" d="M115.94,362.42l15.6,2.4h-15.6Zm15.6,0h-15.6l15.6,2.4Z"/><path d="M131.54,366.74h-15.6v-1.92Zm0,0Z"/><path class="cls-3" d="M131.54,366.74h-15.6v-1.92Zm0,0Z"/><polygon points="115.94 364.82 131.54 364.82 131.54 366.74 115.94 364.82"/><polygon class="cls-3" points="115.94 364.82 131.54 364.82 131.54 366.74 115.94 364.82"/><path d="M114.5,364.82l1.44,1.92H114.5Zm1.44,0H114.5l1.44,1.92Z"/><path class="cls-3" d="M114.5,364.82l1.44,1.92H114.5Zm1.44,0H114.5l1.44,1.92Z"/><path d="M114.5,366.74l1.44,1.44H114.5Zm1.44,0H114.5l1.44,1.44Z"/><path class="cls-3" d="M114.5,366.74l1.44,1.44H114.5Zm1.44,0H114.5l1.44,1.44Z"/><path d="M26.66,364.82l1.44,1.92H26.66Zm1.44,0H26.66l1.44,1.92Z"/><path class="cls-3" d="M26.66,364.82l1.44,1.92H26.66Zm1.44,0H26.66l1.44,1.92Z"/><path d="M26.66,366.74l1.44,1.44H26.66Zm1.44,0H26.66l1.44,1.44Z"/><path class="cls-3" d="M26.66,366.74l1.44,1.44H26.66Zm1.44,0H26.66l1.44,1.44Z"/><line class="cls-3" x1="0.5" y1="366.74" x2="26.66" y2="366.74"/><line class="cls-3" x1="115.94" y1="366.74" x2="131.54" y2="366.74"/><polyline class="cls-3" points="26.66 366.74 26.66 364.82 28.1 364.82 28.1 368.18 26.66 368.18"/><polyline class="cls-3" points="115.94 366.74 115.94 364.82 114.5 364.82 114.5 368.18 115.94 368.18"/><polyline class="cls-3" points="26.66 364.82 26.66 362.42 26.66 360.74"/><polyline class="cls-3" points="115.94 364.82 115.94 362.42 115.94 360.74"/><polyline class="cls-3" points="0.5 364.82 0.5 362.42 0.5 360.74"/><line class="cls-3" x1="131.54" y1="360.74" x2="115.94" y2="360.74"/><line class="cls-3" x1="26.66" y1="360.74" x2="0.5" y2="360.74"/><line class="cls-3" x1="0.5" y1="368.18" x2="26.66" y2="368.18"/><polyline class="cls-3" points="115.94 368.18 131.54 368.18 131.54 360.74"/><line class="cls-3" x1="114.5" y1="368.18" x2="28.1" y2="368.18"/><line class="cls-3" x1="115.94" y1="360.74" x2="26.66" y2="360.74"/><path d="M111.86,362.42l4.08,2.4h-4.08Zm4.08,0h-4.08l4.08,2.4Z"/><path class="cls-3" d="M111.86,362.42l4.08,2.4h-4.08Zm4.08,0h-4.08l4.08,2.4Z"/><path d="M85.22,362.42l2.4,2.4h-2.4Zm2.4,0h-2.4l2.4,2.4Z"/><path class="cls-3" d="M85.22,362.42l2.4,2.4h-2.4Zm2.4,0h-2.4l2.4,2.4Z"/><path d="M82.82,362.42l2.4,2.4h-2.4Zm2.4,0h-2.4l2.4,2.4Z"/><path class="cls-3" d="M82.82,362.42l2.4,2.4h-2.4Zm2.4,0h-2.4l2.4,2.4Z"/><path d="M26.66,362.42l3.84,2.4H26.66Zm3.84,0H26.66l3.84,2.4Z"/><path class="cls-3" d="M26.66,362.42l3.84,2.4H26.66Zm3.84,0H26.66l3.84,2.4Z"/><polyline class="cls-3" points="115.94 362.42 111.86 362.42 111.86 364.82 115.94 364.82"/><polyline class="cls-3" points="85.22 364.82 87.62 364.82 87.62 362.42 85.22 362.42"/><line class="cls-3" x1="111.86" y1="362.42" x2="87.62" y2="362.42"/><line class="cls-3" x1="87.62" y1="364.82" x2="111.86" y2="364.82"/><polyline class="cls-3" points="85.22 362.42 82.82 362.42 82.82 364.82 85.22 364.82"/><polyline class="cls-3" points="26.66 364.82 30.5 364.82 30.5 362.42 26.66 362.42"/><line class="cls-3" x1="82.82" y1="362.42" x2="30.5" y2="362.42"/><line class="cls-3" x1="30.5" y1="364.82" x2="82.82" y2="364.82"/><line class="cls-3" x1="115.94" y1="364.82" x2="115.94" y2="362.42"/><line class="cls-3" x1="26.66" y1="364.82" x2="26.66" y2="362.42"/><line class="cls-3" x1="0.5" y1="364.82" x2="0.5" y2="362.42"/><path d="M.5,314.66l9.6,48.72H.5Zm9.6,0H.5l9.6,48.72Z"/><path class="cls-3" d="M.5,314.66l9.6,48.72H.5Zm9.6,0H.5l9.6,48.72Z"/><line class="cls-3" x1="10.1" y1="363.38" x2="10.1" y2="314.66"/><line class="cls-3" x1="0.5" y1="314.66" x2="0.5" y2="363.38"/><path d="M10.1,323.3l.48,37.44H10.1Zm.48,0H10.1l.48,37.44Z"/><path class="cls-3" d="M10.1,323.3l.48,37.44H10.1Zm.48,0H10.1l.48,37.44Z"/><path d="M10.58,323.3,13,360.74h-2.4Zm2.4,0h-2.4L13,360.74Z"/><path class="cls-3" d="M10.58,323.3,13,360.74h-2.4Zm2.4,0h-2.4L13,360.74Z"/><line class="cls-3" x1="10.58" y1="323.3" x2="10.58" y2="360.74"/><line class="cls-3" x1="10.1" y1="323.3" x2="10.1" y2="360.74"/><line class="cls-3" x1="12.98" y1="360.74" x2="12.98" y2="323.3"/><line class="cls-3" x1="0.5" y1="360.74" x2="0.5" y2="323.3"/><path d="M.5,314.66l9.6,48.72H.5Zm9.6,0H.5l9.6,48.72Z"/><path class="cls-3" d="M.5,314.66l9.6,48.72H.5Zm9.6,0H.5l9.6,48.72Z"/><line class="cls-3" x1="10.1" y1="363.38" x2="10.1" y2="314.66"/><line class="cls-3" x1="0.5" y1="314.66" x2="0.5" y2="363.38"/><path d="M12.5,327.14l.48,33.6H12.5Zm.48,0H12.5l.48,33.6Z"/><path class="cls-3" d="M12.5,327.14l.48,33.6H12.5Zm.48,0H12.5l.48,33.6Z"/><path d="M10.1,327.14l2.4,33.6H10.1Zm2.4,0H10.1l2.4,33.6Z"/><path class="cls-3" d="M10.1,327.14l2.4,33.6H10.1Zm2.4,0H10.1l2.4,33.6Z"/><line class="cls-3" x1="12.5" y1="360.74" x2="12.5" y2="327.14"/><line class="cls-3" x1="10.1" y1="327.14" x2="10.1" y2="360.74"/><line class="cls-3" x1="12.98" y1="360.74" x2="12.98" y2="327.14"/><polyline class="cls-3" points="10.1 327.14 12.5 327.14 12.98 327.14"/><path d="M307.22,92.9h0Z"/><path class="cls-3" d="M307.22,92.9h0Z"/><path d="M317.06,141.62h-9.84V92.9Zm0,0Z"/><path class="cls-3" d="M317.06,141.62h-9.84V92.9Zm0,0Z"/><polygon points="307.22 92.9 317.06 92.9 317.06 141.62 307.22 92.9"/><polygon class="cls-3" points="307.22 92.9 317.06 92.9 317.06 141.62 307.22 92.9"/><polyline class="cls-3" points="317.06 141.62 317.06 92.9 307.22 92.9 307.22 141.62 317.06 141.62"/><path d="M317.06,314.66h0Z"/><path class="cls-3" d="M317.06,314.66h0Z"/><path d="M307.22,314.66l9.84,48.72h-9.84Zm9.84,0h-9.84l9.84,48.72Z"/><path class="cls-3" d="M307.22,314.66l9.84,48.72h-9.84Zm9.84,0h-9.84l9.84,48.72Z"/><polyline class="cls-3" points="317.06 368.18 317.06 314.66 307.22 314.66 307.22 363.38 317.06 363.38"/><path d="M10.1,141.62H.5V92.9Zm0,0Z"/><path class="cls-3" d="M10.1,141.62H.5V92.9Zm0,0Z"/><polygon points="0.5 92.9 10.1 92.9 10.1 141.62 0.5 92.9"/><polygon class="cls-3" points="0.5 92.9 10.1 92.9 10.1 141.62 0.5 92.9"/><polyline class="cls-3" points="10.1 141.62 10.1 92.9 0.5 92.9 0.5 141.62 10.1 141.62"/><path d="M.5,314.66l9.6,48.72H.5Zm9.6,0H.5l9.6,48.72Z"/><path class="cls-3" d="M.5,314.66l9.6,48.72H.5Zm9.6,0H.5l9.6,48.72Z"/><line class="cls-3" x1="10.1" y1="363.38" x2="10.1" y2="314.66"/><line class="cls-3" x1="0.5" y1="314.66" x2="0.5" y2="363.38"/><polyline points="0.5 0.5 29.54 0.5 0.5 0.5"/><polyline class="cls-3" points="0.5 0.5 29.54 0.5 0.5 0.5"/><polyline points="0.5 0.5 29.54 10.1 0.5 10.1"/><polyline points="0.5 10.1 29.54 10.1 29.54 10.1 0.5 10.1"/><polyline class="cls-3" points="0.5 0.5 29.54 10.1 0.5 10.1"/><polyline class="cls-3" points="0.5 10.1 29.54 10.1 29.54 10.1 0.5 10.1"/><polyline points="0.5 0.5 29.54 0.5 29.54 10.1 0.5 0.5"/><polyline class="cls-3" points="0.5 0.5 29.54 0.5 29.54 10.1 0.5 0.5"/><polyline class="cls-3" points="0.5 10.1 29.54 10.1 29.54 0.5"/><line class="cls-3" x1="29.54" y1="0.5" x2="0.5" y2="0.5"/><path d="M12.5,323.3,13,360.74H12.5Zm.48,0H12.5L13,360.74Z"/><path class="cls-3" d="M12.5,323.3,13,360.74H12.5Zm.48,0H12.5L13,360.74Z"/><path d="M10.1,323.3l2.4,37.44H10.1Zm2.4,0H10.1l2.4,37.44Z"/><path class="cls-3" d="M10.1,323.3l2.4,37.44H10.1Zm2.4,0H10.1l2.4,37.44Z"/><line class="cls-3" x1="12.5" y1="360.74" x2="12.5" y2="323.3"/><line class="cls-3" x1="10.1" y1="323.3" x2="10.1" y2="360.74"/><line class="cls-3" x1="12.98" y1="360.74" x2="12.98" y2="323.3"/><line class="cls-3" x1="0.5" y1="360.74" x2="0.5" y2="323.3"/><path d="M297.62,10.1h0ZM287.78.5l9.84,9.6h-9.84Z"/><path class="cls-3" d="M297.62,10.1h0ZM287.78.5l9.84,9.6h-9.84Z"/><polyline class="cls-3" points="297.62 10.1 287.78 10.1 287.78 0.5"/><path d="M218.18,10.1h-9.84v9.84Zm0-9.6v9.6h-9.84Z"/><path class="cls-3" d="M218.18,10.1h-9.84v9.84Zm0-9.6v9.6h-9.84Z"/><path d="M218.18,10.1Zm-9.84,0h0Z"/><path class="cls-3" d="M218.18,10.1Zm-9.84,0h0Z"/><line class="cls-3" x1="208.34" y1="10.1" x2="208.34" y2="19.94"/><line class="cls-3" x1="218.18" y1="10.1" x2="218.18" y2="0.5"/><path d="M212.42,89.06h0Z"/><path class="cls-3" d="M212.42,89.06h0Z"/><path d="M212.42,92.9h-4.08V89.06Zm0,0Z"/><path class="cls-3" d="M212.42,92.9h-4.08V89.06Zm0,0Z"/><polygon points="208.34 89.06 212.42 89.06 212.42 92.9 208.34 89.06"/><polygon class="cls-3" points="208.34 89.06 212.42 89.06 212.42 92.9 208.34 89.06"/><path d="M212.42,10.1h0Z"/><path class="cls-3" d="M212.42,10.1h0Z"/><path d="M212.42,50.18h-4.08V10.1Zm0,0Z"/><path class="cls-3" d="M212.42,50.18h-4.08V10.1Zm0,0Z"/><polygon points="208.34 10.1 212.42 10.1 212.42 50.18 208.34 10.1"/><polygon class="cls-3" points="208.34 10.1 212.42 10.1 212.42 50.18 208.34 10.1"/><line class="cls-3" x1="212.42" y1="89.06" x2="208.34" y2="89.06"/><line class="cls-3" x1="212.42" y1="50.18" x2="208.34" y2="50.18"/><line class="cls-3" x1="212.42" y1="92.9" x2="212.42" y2="89.06"/><polyline class="cls-3" points="212.42 50.18 212.42 10.1 208.34 10.1 208.34 50.18"/><line class="cls-3" x1="208.34" y1="89.06" x2="208.34" y2="92.9"/><line class="cls-3" x1="212.42" y1="50.18" x2="212.42" y2="52.58"/><line class="cls-3" x1="208.34" y1="50.18" x2="208.34" y2="52.58"/><line class="cls-3" x1="212.42" y1="89.06" x2="212.42" y2="86.66"/><line class="cls-3" x1="208.34" y1="89.06" x2="208.34" y2="86.66"/><line class="cls-3" x1="208.34" y1="52.58" x2="212.42" y2="52.58"/><polyline class="cls-3" points="208.34 86.66 212.42 86.66 229.46 57.14"/><path class="cls-3" d="M229.4,56.92a34.23,34.23,0,0,0-17.1-4.58"/><path d="M97,137.78h0Z"/><path class="cls-3" d="M97,137.78h0Z"/><path d="M97,141.62H10.1v-3.84Zm0,0Z"/><path class="cls-3" d="M97,141.62H10.1v-3.84Zm0,0Z"/><polygon points="10.1 137.78 96.98 137.78 96.98 141.62 10.1 137.78"/><polygon class="cls-3" points="10.1 137.78 96.98 137.78 96.98 141.62 10.1 137.78"/><path d="M139.22,137.78h0Z"/><path class="cls-3" d="M139.22,137.78h0Z"/><path d="M139.22,141.62h-3.36v-3.84Zm0,0Z"/><path class="cls-3" d="M139.22,141.62h-3.36v-3.84Zm0,0Z"/><polygon points="135.86 137.78 139.22 137.78 139.22 141.62 135.86 137.78"/><polygon class="cls-3" points="135.86 137.78 139.22 137.78 139.22 141.62 135.86 137.78"/><path d="M145,137.78h0Z"/><path class="cls-3" d="M145,137.78h0Z"/><path d="M145,141.62h-5.76v-3.84Zm0,0Z"/><path class="cls-3" d="M145,141.62h-5.76v-3.84Zm0,0Z"/><polygon points="139.22 137.78 144.98 137.78 144.98 141.62 139.22 137.78"/><polygon class="cls-3" points="139.22 137.78 144.98 137.78 144.98 141.62 139.22 137.78"/><line class="cls-3" x1="96.98" y1="141.62" x2="96.98" y2="137.78"/><line class="cls-3" x1="139.22" y1="137.78" x2="139.22" y2="141.62"/><polyline class="cls-3" points="135.86 141.62 135.86 137.78 139.22 137.78"/><line class="cls-3" x1="96.98" y1="137.78" x2="94.34" y2="137.78"/><line class="cls-3" x1="90.5" y1="137.78" x2="38.42" y2="137.78"/><polyline class="cls-3" points="34.58 137.78 10.1 137.78 10.1 141.62 96.98 141.62"/><line class="cls-3" x1="135.86" y1="141.62" x2="144.98" y2="141.62"/><line class="cls-3" x1="96.98" y1="137.78" x2="99.38" y2="137.78"/><line class="cls-3" x1="96.98" y1="141.62" x2="99.38" y2="141.62"/><line class="cls-3" x1="135.86" y1="137.78" x2="133.46" y2="137.78"/><line class="cls-3" x1="135.86" y1="141.62" x2="133.46" y2="141.62"/><line class="cls-3" x1="99.38" y1="141.62" x2="99.38" y2="137.78"/><polyline class="cls-3" points="133.46 141.62 133.46 137.78 133.46 103.7"/><path class="cls-3" d="M133.34,103.46a34.2,34.2,0,0,0-34.2,34.2"/><path d="M153.86,92.9h0Z"/><path class="cls-3" d="M153.86,92.9h0Z"/><path d="M153.86,97h-4.8L145,92.9Zm0,0Z"/><path class="cls-3" d="M153.86,97h-4.8L145,92.9Zm0,0Z"/><polygon points="144.98 92.9 153.86 92.9 153.86 96.98 144.98 92.9"/><polygon class="cls-3" points="144.98 92.9 153.86 92.9 153.86 96.98 144.98 92.9"/><path d="M307.22,92.9h0Z"/><path class="cls-3" d="M307.22,92.9h0Z"/><path d="M307.22,97H197.78V92.9Zm0,0Z"/><path class="cls-3" d="M307.22,97H197.78V92.9Zm0,0Z"/><polygon points="197.78 92.9 307.22 92.9 307.22 96.98 197.78 92.9"/><polygon class="cls-3" points="197.78 92.9 307.22 92.9 307.22 96.98 197.78 92.9"/><line class="cls-3" x1="153.86" y1="96.98" x2="153.86" y2="92.9"/><line class="cls-3" x1="197.78" y1="96.98" x2="197.78" y2="92.9"/><line class="cls-3" x1="149.06" y1="96.98" x2="153.86" y2="96.98"/><polyline class="cls-3" points="197.78 96.98 307.22 96.98 307.22 92.9 212.42 92.9"/><line class="cls-3" x1="208.34" y1="92.9" x2="197.78" y2="92.9"/><line class="cls-3" x1="153.86" y1="92.9" x2="144.98" y2="92.9"/><line class="cls-3" x1="197.78" y1="96.98" x2="195.38" y2="96.98"/><line class="cls-3" x1="197.78" y1="92.9" x2="195.38" y2="92.9"/><line class="cls-3" x1="153.86" y1="96.98" x2="156.26" y2="96.98"/><line class="cls-3" x1="153.86" y1="92.9" x2="156.26" y2="92.9"/><line class="cls-3" x1="195.38" y1="92.9" x2="195.38" y2="96.98"/><polyline class="cls-3" points="156.26 92.9 156.26 96.98 156.26 135.86"/><path class="cls-3" d="M156.14,135.86a39,39,0,0,0,39-39"/><path d="M145,92.9Z"/><path class="cls-3" d="M145,92.9Z"/><path d="M145,92.9,149.06,97H145ZM149.06,97,145,92.9Z"/><path class="cls-3" d="M145,92.9,149.06,97H145ZM149.06,97,145,92.9Z"/><path d="M149.06,309.62H145V97Zm0,0Z"/><path class="cls-3" d="M149.06,309.62H145V97Zm0,0Z"/><polygon points="144.98 96.98 149.06 96.98 149.06 309.62 144.98 96.98"/><polygon class="cls-3" points="144.98 96.98 149.06 96.98 149.06 309.62 144.98 96.98"/><line class="cls-3" x1="144.98" y1="92.9" x2="144.98" y2="137.78"/><polyline class="cls-3" points="144.98 141.62 144.98 309.62 149.06 309.62 149.06 96.98"/><path d="M91.46,85.22h0Zm0,0Z"/><path class="cls-3" d="M91.46,85.22h0Zm0,0Z"/><path d="M91.46,85.22h0Z"/><path class="cls-3" d="M91.46,85.22h0Z"/><path d="M94.34,137.78H90.5V85.22Zm0,0Z"/><path class="cls-3" d="M94.34,137.78H90.5V85.22Zm0,0Z"/><polygon points="90.5 85.22 94.34 85.22 94.34 137.78 90.5 85.22"/><polygon class="cls-3" points="90.5 85.22 94.34 85.22 94.34 137.78 90.5 85.22"/><path d="M94.34,10.1h0Z"/><path class="cls-3" d="M94.34,10.1h0Z"/><path d="M94.34,46.1H90.5v-36Zm0,0Z"/><path class="cls-3" d="M94.34,46.1H90.5v-36Zm0,0Z"/><polygon points="90.5 10.1 94.34 10.1 94.34 46.1 90.5 10.1"/><polygon class="cls-3" points="90.5 10.1 94.34 10.1 94.34 46.1 90.5 10.1"/><line class="cls-3" x1="94.34" y1="85.22" x2="90.5" y2="85.22"/><line class="cls-3" x1="94.34" y1="46.1" x2="90.5" y2="46.1"/><line class="cls-3" x1="94.34" y1="137.78" x2="94.34" y2="85.22"/><polyline class="cls-3" points="94.34 46.1 94.34 10.1 90.5 10.1 90.5 46.1"/><line class="cls-3" x1="90.5" y1="85.22" x2="90.5" y2="114.5"/><line class="cls-3" x1="90.5" y1="118.34" x2="90.5" y2="137.78"/><line class="cls-3" x1="94.34" y1="85.22" x2="94.34" y2="82.82"/><line class="cls-3" x1="90.5" y1="85.22" x2="90.5" y2="82.82"/><line class="cls-3" x1="94.34" y1="46.1" x2="94.34" y2="48.74"/><line class="cls-3" x1="90.5" y1="46.1" x2="90.5" y2="48.74"/><line class="cls-3" x1="90.5" y1="82.82" x2="94.34" y2="82.82"/><polyline class="cls-3" points="90.5 48.74 94.34 48.74 111.38 78.26"/><path class="cls-3" d="M94.22,82.82a34.23,34.23,0,0,0,17.1-4.58"/><path d="M34.58,118.34h0Z"/><path class="cls-3" d="M34.58,118.34h0Z"/><path d="M38.42,137.78H34.58V118.34Zm0,0Z"/><path class="cls-3" d="M38.42,137.78H34.58V118.34Zm0,0Z"/><polygon points="34.58 118.34 38.42 118.34 38.42 137.78 34.58 118.34"/><polygon class="cls-3" points="34.58 118.34 38.42 118.34 38.42 137.78 34.58 118.34"/><line class="cls-3" x1="34.58" y1="118.34" x2="34.58" y2="137.78"/><line class="cls-3" x1="38.42" y1="137.78" x2="38.42" y2="118.34"/><path d="M10.1,114.5h0Z"/><path class="cls-3" d="M10.1,114.5h0Z"/><path d="M90.5,118.34H10.1V114.5Zm0,0Z"/><path class="cls-3" d="M90.5,118.34H10.1V114.5Zm0,0Z"/><polygon points="10.1 114.5 90.5 114.5 90.5 118.34 10.1 114.5"/><polygon class="cls-3" points="10.1 114.5 90.5 114.5 90.5 118.34 10.1 114.5"/><line class="cls-3" x1="10.1" y1="118.34" x2="34.58" y2="118.34"/><line class="cls-3" x1="38.42" y1="118.34" x2="90.5" y2="118.34"/><polyline class="cls-3" points="90.5 114.5 10.1 114.5 10.1 118.34"/><path d="M131.54,323.3l.48,44.4h-.48Zm.48,0h-.48l.48,44.4Z"/><path class="cls-3" d="M131.54,323.3l.48,44.4h-.48Zm.48,0h-.48l.48,44.4Z"/><path d="M131.54,368.18Zm0-.48v0Zm.48,0h-.48v.48Z"/><path class="cls-3" d="M131.54,368.18Zm0-.48v0Zm.48,0h-.48v.48Z"/><polygon points="132.02 322.82 132.02 323.3 131.54 323.3 132.02 322.82"/><polygon class="cls-3" points="132.02 322.82 132.02 323.3 131.54 323.3 132.02 322.82"/><path d="M132,363.38h0Z"/><path class="cls-3" d="M132,363.38h0Z"/><path d="M132,367.7Zm0-4.32v0Zm4.56,0H132v4.32Z"/><path class="cls-3" d="M132,367.7Zm0-4.32v0Zm4.56,0H132v4.32Z"/><path d="M132,322.82h0Z"/><path class="cls-3" d="M132,322.82h0Z"/><path d="M132,322.82l7.2,37.68H132Zm7.2,0H132l7.2,37.68Z"/><path class="cls-3" d="M132,322.82l7.2,37.68H132Zm7.2,0H132l7.2,37.68Z"/><path d="M136.58,363.38H132V360.5Zm0,0Z"/><path class="cls-3" d="M136.58,363.38H132V360.5Zm0,0Z"/><polygon points="132.02 360.5 139.22 360.5 136.58 363.38 132.02 360.5"/><polygon class="cls-3" points="132.02 360.5 139.22 360.5 136.58 363.38 132.02 360.5"/><path d="M139.22,322.82h0Zm0-7.2v7.2H132Z"/><path class="cls-3" d="M139.22,322.82h0Zm0-7.2v7.2H132Z"/><polygon points="149.06 305.78 149.06 315.62 139.22 315.62 149.06 305.78"/><polygon class="cls-3" points="149.06 305.78 149.06 315.62 139.22 315.62 149.06 305.78"/><path d="M139.22,315.62l9.84,35.52h-9.84Zm9.84,0h-9.84l9.84,35.52Z"/><path class="cls-3" d="M139.22,315.62l9.84,35.52h-9.84Zm9.84,0h-9.84l9.84,35.52Z"/><path d="M139.22,360.5Zm0-9.36v0Zm9.84,0h-9.84v9.36Z"/><path class="cls-3" d="M139.22,360.5Zm0-9.36v0Zm9.84,0h-9.84v9.36Z"/><polyline class="cls-3" points="132.02 322.82 132.02 363.38 132.02 367.7"/><line class="cls-3" x1="139.22" y1="315.62" x2="139.22" y2="360.5"/><line class="cls-3" x1="149.06" y1="351.14" x2="149.06" y2="305.78"/><line class="cls-3" x1="131.54" y1="323.3" x2="131.54" y2="368.18"/><polyline class="cls-3" points="272.9 396.26 272.9 368.18 274.1 368.18 274.1 397.46 272.9 396.26"/><line class="cls-3" x1="273.62" y1="396.74" x2="273.62" y2="368.18"/><polyline class="cls-3" points="274.1 397.46 272.9 396.26 216.26 396.26 215.06 397.46 274.1 397.46"/><line class="cls-3" x1="273.62" y1="396.74" x2="215.78" y2="396.74"/><polyline class="cls-3" points="215.06 397.46 216.26 396.26 216.26 368.18 215.06 368.18 215.06 397.46"/><line class="cls-3" x1="215.78" y1="396.74" x2="215.78" y2="368.18"/><polyline class="cls-3" points="39.38 180.74 39.38 141.62 12.5 141.62 12.5 180.74 39.38 180.74"/><polyline class="cls-3" points="36.98 178.1 36.98 157.22 17.54 157.22 17.54 178.1 36.98 178.1"/><line class="cls-3" x1="36.74" y1="153.86" x2="36.74" y2="145.94"/><line class="cls-3" x1="33.38" y1="153.86" x2="33.38" y2="145.94"/><line class="cls-3" x1="30.26" y1="153.86" x2="30.26" y2="145.94"/><line class="cls-3" x1="27.14" y1="153.86" x2="27.14" y2="145.94"/><line class="cls-3" x1="23.78" y1="153.86" x2="23.78" y2="145.94"/><line class="cls-3" x1="20.66" y1="153.86" x2="20.66" y2="145.94"/><line class="cls-3" x1="312.26" y1="166.1" x2="312.26" y2="166.1"/><line class="cls-3" x1="39.38" y1="309.62" x2="39.38" y2="170.9"/><line class="cls-3" x1="218.18" y1="0.5" x2="287.78" y2="0.5"/><path d="M307.22,10.1h0Z"/><path class="cls-3" d="M307.22,10.1h0Z"/><path d="M317.06,92.9h-9.84V10.1Zm0,0Z"/><path class="cls-3" d="M317.06,92.9h-9.84V10.1Zm0,0Z"/><polygon points="307.22 10.1 317.06 10.1 317.06 92.9 307.22 10.1"/><polygon class="cls-3" points="307.22 10.1 317.06 10.1 317.06 92.9 307.22 10.1"/><polyline class="cls-3" points="307.22 19.94 307.22 92.9 317.06 92.9 317.06 67.7"/><line class="cls-3" x1="317.06" y1="63.86" x2="317.06" y2="39.38"/><polyline class="cls-3" points="317.06 35.54 317.06 0.5 307.22 10.1"/><path d="M.5,10.1h0Z"/><path class="cls-3" d="M.5,10.1h0Z"/><path d="M.5,10.1l9.6,82.8H.5Zm9.6,0H.5l9.6,82.8Z"/><path class="cls-3" d="M.5,10.1l9.6,82.8H.5Zm9.6,0H.5l9.6,82.8Z"/><polyline class="cls-3" points="0.5 0.5 0.5 92.04 10.1 92.9 10.1 10.1 0.5 10.1"/><path d="M149.06,137.78h-9.84V92.9Zm0,0Z"/><path class="cls-3" d="M149.06,137.78h-9.84V92.9Zm0,0Z"/><polygon points="139.22 92.9 149.06 92.9 149.06 137.78 139.22 92.9"/><polygon class="cls-3" points="139.22 92.9 149.06 92.9 149.06 137.78 139.22 92.9"/><polyline class="cls-3" points="144.98 137.78 149.06 137.78 149.06 92.9 139.22 92.9 139.22 137.78"/><path d="M317.06,141.62h0Z"/><path class="cls-3" d="M317.06,141.62h0Z"/><path d="M317.06,314.66h-9.84v-173Zm0,0Z"/><path class="cls-3" d="M317.06,314.66h-9.84v-173Zm0,0Z"/><polygon points="307.22 141.62 317.06 141.62 317.06 314.66 307.22 141.62"/><polygon class="cls-3" points="307.22 141.62 317.06 141.62 317.06 314.66 307.22 141.62"/><polyline class="cls-3" points="307.22 141.62 307.22 314.66 317.06 314.66 317.06 141.62 307.22 141.62"/><path d="M.5,141.62h0Z"/><path class="cls-3" d="M.5,141.62h0Z"/><path d="M10.1,314.66H.5v-173Zm0,0Z"/><path class="cls-3" d="M10.1,314.66H.5v-173Zm0,0Z"/><polygon points="0.5 141.62 10.1 141.62 10.1 314.66 0.5 141.62"/><polygon class="cls-3" points="0.5 141.62 10.1 141.62 10.1 314.66 0.5 141.62"/><line class="cls-3" x1="0.5" y1="141.62" x2="0.5" y2="314.66"/><polyline class="cls-3" points="10.1 314.66 10.1 141.62 0.5 141.62"/><polyline points="317.06 0.5 287.78 0.5 317.06 0.5"/><polyline class="cls-3" points="317.06 0.5 287.78 0.5 317.06 0.5"/><polyline points="317.06 10.1 297.62 10.1 287.78 0.5 317.06 10.1"/><polyline points="317.06 10.1 297.62 10.1 317.06 10.1"/><polyline class="cls-3" points="317.06 10.1 297.62 10.1 287.78 0.5 317.06 10.1"/><polyline class="cls-3" points="317.06 10.1 297.62 10.1 317.06 10.1"/><polyline points="317.06 10.1 287.78 0.5 317.06 0.5"/><polyline class="cls-3" points="317.06 10.1 287.78 0.5 317.06 0.5"/><line class="cls-3" x1="317.06" y1="0.5" x2="287.78" y2="0.5"/><line class="cls-3" x1="297.62" y1="10.1" x2="317.06" y2="10.1"/><path d="M29.54.5l69.84,9.6H29.54ZM99.38.5H29.54l69.84,9.6Z"/><path class="cls-3" d="M29.54.5l69.84,9.6H29.54ZM99.38.5H29.54l69.84,9.6Z"/><path d="M148.1.5h0Z"/><path class="cls-3" d="M148.1.5h0Z"/><path d="M208.34,10.1H148.1V.5Zm0,0Z"/><path class="cls-3" d="M208.34,10.1H148.1V.5Zm0,0Z"/><polygon points="148.1 0.5 218.18 0.5 208.34 10.1 148.1 0.5"/><polygon class="cls-3" points="148.1 0.5 218.18 0.5 208.34 10.1 148.1 0.5"/><line class="cls-3" x1="99.38" y1="0.5" x2="99.38" y2="10.1"/><line class="cls-3" x1="148.1" y1="0.5" x2="148.1" y2="10.1"/><line class="cls-3" x1="29.54" y1="10.1" x2="99.38" y2="10.1"/><line class="cls-3" x1="148.1" y1="10.1" x2="208.34" y2="10.1"/><line class="cls-3" x1="218.18" y1="0.5" x2="148.1" y2="0.5"/><polyline class="cls-3" points="99.38 0.5 29.54 0.5 29.54 10.1"/><path class="cls-3" d="M101.18,54.74A44.76,44.76,0,0,0,145.94,10"/><path d="M146.18.5h0Z"/><path class="cls-3" d="M146.18.5h0Z"/><path d="M148.1,10.1h-1.92V.5Zm0,0Z"/><path class="cls-3" d="M148.1,10.1h-1.92V.5Zm0,0Z"/><polygon points="146.18 0.5 148.1 0.5 148.1 10.1 146.18 0.5"/><polygon class="cls-3" points="146.18 0.5 148.1 0.5 148.1 10.1 146.18 0.5"/><path d="M99.38.5h0Z"/><path class="cls-3" d="M99.38.5h0Z"/><path d="M101.3,10.1H99.38V.5Zm0,0Z"/><path class="cls-3" d="M101.3,10.1H99.38V.5Zm0,0Z"/><polygon points="99.38 0.5 101.3 0.5 101.3 10.1 99.38 0.5"/><polygon class="cls-3" points="99.38 0.5 101.3 0.5 101.3 10.1 99.38 0.5"/><polyline class="cls-3" points="148.1 0.5 146.18 0.5 146.18 10.1 148.1 10.1 148.1 0.5"/><polyline class="cls-3" points="99.38 10.1 101.3 10.1 101.3 0.5 99.38 0.5 99.38 10.1"/><line class="cls-3" x1="101.3" y1="10.1" x2="101.3" y2="54.98"/><line class="cls-3" x1="148.1" y1="0.5" x2="148.1" y2="10.1"/><line class="cls-3" x1="99.38" y1="0.5" x2="99.38" y2="10.1"/><path d="M218.18,10.1h0Z"/><path class="cls-3" d="M218.18,10.1h0Z"/><path d="M307.22,19.94H208.34l9.84-9.84Zm0,0Z"/><path class="cls-3" d="M307.22,19.94H208.34l9.84-9.84Zm0,0Z"/><polygon points="218.18 10.1 307.22 10.1 307.22 19.94 218.18 10.1"/><polygon class="cls-3" points="218.18 10.1 307.22 10.1 307.22 19.94 218.18 10.1"/><line class="cls-3" x1="208.34" y1="19.94" x2="307.22" y2="19.94"/><line class="cls-3" x1="307.22" y1="10.1" x2="297.62" y2="10.1"/><line class="cls-3" x1="287.78" y1="10.1" x2="218.18" y2="10.1"/><text class="cls-4" transform="translate(249.14 62.18)">2.92</text><text class="cls-4" transform="translate(77.54 298.58)">9.33</text><text class="cls-4" transform="translate(149.06 64.34)">4.82</text><text class="cls-4" transform="translate(206.18 338.98)">16.97</text><text class="cls-4" transform="translate(40.82 72.74)">3.53</text><text class="cls-4" transform="translate(50.9 350.9)">1.87</text><text class="cls-4" transform="translate(215.56 252.26)">1К</text><text class="cls-4" transform="translate(205.03 277.59)">39.44</text><text class="cls-4" transform="translate(207.42 227.31)">№47</text><polyline class="cls-5" points="194.3 284 194.3 209.48 256.45 209.48 256.45 284"/><line class="cls-5" x1="194.3" y1="234.37" x2="256.45" y2="234.37"/><line class="cls-5" x1="194.3" y1="284" x2="256.45" y2="284"/><line class="cls-5" x1="194.3" y1="259.25" x2="256.45" y2="259.25"/></svg>