<svg id="_241" data-name="241" xmlns="http://www.w3.org/2000/svg" viewBox="0 0 213.74 363.22"><defs><style>.cls-1{isolation:isolate;font-size:8px;fill:#969696;font-family:PTSans-Regular, PT Sans;}.cls-12,.cls-13,.cls-14,.cls-15,.cls-16,.cls-2,.cls-7{fill:none;}.cls-2{stroke:#969696;}.cls-12,.cls-13,.cls-14,.cls-15,.cls-16,.cls-2{stroke-linecap:round;stroke-linejoin:round;}.cls-14,.cls-15,.cls-16,.cls-2{stroke-width:0.5px;}.cls-3{font-size:22px;}.cls-3,.cls-8{fill:#231f20;font-family:BigCityGrotesquePro-Regular, BigCity Grotesque Pro;}.cls-4{letter-spacing:-0.02em;}.cls-5{letter-spacing:0em;}.cls-6{letter-spacing:-0.04em;}.cls-12,.cls-13,.cls-14,.cls-15,.cls-16,.cls-7{stroke:#000;}.cls-7{stroke-miterlimit:10;stroke-width:0.32px;}.cls-8{font-size:24px;}.cls-9{letter-spacing:-0.01em;}.cls-10{letter-spacing:-0.03em;}.cls-11{letter-spacing:-0.02em;}.cls-12{stroke-width:0.35px;}.cls-13{stroke-width:0.75px;}.cls-15{stroke-dasharray:1.98 1.98;}.cls-16{stroke-dasharray:1.97 1.97;}</style></defs><title>8floor_241flat</title><text class="cls-1" transform="translate(104.07 361.26)">двор</text><line class="cls-2" x1="95.57" y1="362.4" x2="95.57" y2="355.27"/><polyline class="cls-2" points="92.73 359.57 95.57 362.4 98.4 359.57"/><text class="cls-3" transform="translate(103.93 267.84)">18.30</text><text class="cls-3" transform="translate(34.83 74.82)">4<tspan class="cls-4" x="12.06" y="0">.</tspan><tspan class="cls-5" x="16.68" y="0">00</tspan></text><text class="cls-3" transform="translate(177.59 75.16) rotate(-90)">1.90</text><text class="cls-3" transform="translate(29.73 168.88)">5<tspan class="cls-6" x="10.85" y="0">.</tspan><tspan x="14.98" y="0">10</tspan></text><rect class="cls-7" x="95.78" y="137.81" width="80" height="31.31"/><rect class="cls-7" x="95.78" y="169.12" width="80" height="31.31"/><rect class="cls-7" x="95.78" y="200.44" width="80" height="31.31"/><text class="cls-8" transform="translate(106.27 161.18)">№2<tspan class="cls-9" x="37.73" y="0">4</tspan><tspan x="50.57" y="0">1</tspan><tspan x="16.91" y="30.86">C</tspan><tspan class="cls-10" x="30.3" y="30.86">T</tspan><tspan x="1.61" y="61.72">2</tspan><tspan class="cls-11" x="13.15" y="61.72">9</tspan><tspan x="26.02" y="61.72">.30</tspan></text><line class="cls-12" x1="17.03" y1="78.39" x2="31.76" y2="78.39"/><polyline class="cls-12" points="16.15 77.73 10.57 77.73 10.57 93.65"/><line class="cls-12" x1="19.6" y1="85.69" x2="19.6" y2="91.57"/><polyline class="cls-12" points="31.76 78.39 19.6 79.81 19.6 85.69"/><line class="cls-12" x1="31.76" y1="92.99" x2="19.6" y2="91.57"/><line class="cls-12" x1="31.76" y1="78.74" x2="19.6" y2="80.16"/><line class="cls-12" x1="31.76" y1="92.63" x2="19.6" y2="91.22"/><line class="cls-12" x1="17.03" y1="92.99" x2="31.76" y2="92.99"/><line class="cls-12" x1="10.58" y1="93.65" x2="16.15" y2="93.65"/><polyline class="cls-12" points="31.76 78.39 33.4 78.57 34.94 79.19 36.27 80.2 37.38 81.53 38.13 83.08 38.53 84.8 38.53 86.57 38.13 88.3 37.38 89.84 36.27 91.17 34.94 92.19 33.4 92.81 31.76 92.98"/><polyline class="cls-12" points="31.76 78.75 33.31 78.97 34.77 79.54 36.05 80.51 37.07 81.75 37.77 83.21 38.17 84.85 38.17 86.53 37.77 88.17 37.07 89.62 36.05 90.86 34.77 91.83 33.31 92.41 31.76 92.63"/><path class="cls-12" d="M17.05,92.78a66.37,66.37,0,0,0,0-14.23"/><path class="cls-12" d="M17.11,78.54a.93.93,0,0,0-.94-.81"/><path class="cls-12" d="M16.17,93.6a.94.94,0,0,0,.95-.81"/><path class="cls-12" d="M14.87,85.67a.78.78,0,0,0-.78-.78.78.78,0,1,0,.78.78"/><line class="cls-12" x1="13.02" y1="40.65" x2="13.02" y2="20.17"/><line class="cls-12" x1="15.46" y1="17.75" x2="68.59" y2="17.75"/><line class="cls-12" x1="15.46" y1="43.03" x2="68.59" y2="43.03"/><line class="cls-12" x1="83.59" y1="15.33" x2="10.58" y2="15.33"/><polyline class="cls-12" points="83.59 15.33 83.59 45.45 10.57 45.45 10.57 15.33"/><line class="cls-12" x1="60.06" y1="38.87" x2="18.5" y2="38.87"/><line class="cls-12" x1="17.25" y1="37.64" x2="17.25" y2="23.15"/><line class="cls-12" x1="60.06" y1="21.96" x2="18.5" y2="21.96"/><line class="cls-12" x1="25.83" y1="31.14" x2="25.83" y2="32.62"/><line class="cls-12" x1="25.08" y1="30.41" x2="23.53" y2="30.41"/><line class="cls-12" x1="25.83" y1="29.65" x2="25.83" y2="28.16"/><line class="cls-12" x1="26.57" y1="30.41" x2="28.07" y2="30.41"/><path class="cls-12" d="M68.61,43a12.64,12.64,0,1,0,0-25.28"/><path class="cls-12" d="M15.48,17.75a2.41,2.41,0,0,0-2.41,2.4"/><path class="cls-12" d="M13.07,40.63A2.4,2.4,0,0,0,15.48,43"/><path class="cls-12" d="M25.85,29.14a1.26,1.26,0,1,0,1.27,1.25,1.26,1.26,0,0,0-1.27-1.25"/><path class="cls-12" d="M60.09,38.87a8.48,8.48,0,1,0,0-16.95"/><path class="cls-12" d="M17.3,37.62a1.22,1.22,0,0,0,1.22,1.21"/><path class="cls-12" d="M18.52,21.92a1.22,1.22,0,0,0-1.22,1.21"/><path class="cls-12" d="M25.85,28.71a1.68,1.68,0,1,0,1.72,1.68,1.71,1.71,0,0,0-1.72-1.68"/><polyline class="cls-12" points="20.45 49.62 10.9 49.62 10.9 72.18 20.45 72.18"/><line class="cls-12" x1="10.9" y1="64.48" x2="10.9" y2="57.36"/><line class="cls-12" x1="18.6" y1="62.8" x2="18.6" y2="61.61"/><line class="cls-12" x1="16.7" y1="60.9" x2="17.89" y2="60.9"/><line class="cls-12" x1="18.6" y1="60.19" x2="18.6" y2="59"/><line class="cls-12" x1="19.26" y1="60.9" x2="20.5" y2="60.9"/><path class="cls-12" d="M21.07,51a10,10,0,0,0-4.76,3.9"/><path class="cls-12" d="M16.33,54.89a10,10,0,0,0-1.41,6"/><path class="cls-12" d="M16.31,66.86a10,10,0,0,0,4.76,3.9"/><path class="cls-12" d="M14.92,60.86a10,10,0,0,0,1.41,6"/><path class="cls-12" d="M20.5,72.17A5.73,5.73,0,0,0,25.21,70"/><path class="cls-12" d="M16.7,54.56a41.15,41.15,0,0,0,0,12.63"/><path class="cls-12" d="M12.75,68.36A14.15,14.15,0,0,0,22,71.55"/><path class="cls-12" d="M11.39,60.88a28,28,0,0,0,.7,6.46"/><path class="cls-12" d="M12.1,67.35a1.86,1.86,0,0,0,.64,1"/><path class="cls-12" d="M12.27,60.88a50.27,50.27,0,0,0,.46,6.37"/><path class="cls-12" d="M13.37,68.41A12.72,12.72,0,0,0,22,71.6"/><path class="cls-12" d="M12.73,67.24a2,2,0,0,0,.62,1.15"/><path class="cls-12" d="M22,50.15a12.85,12.85,0,0,0-8.6,3.2"/><path class="cls-12" d="M21.94,50.2a14.11,14.11,0,0,0-9.21,3.21"/><path class="cls-12" d="M12.72,54.53a48.33,48.33,0,0,0-.45,6.36"/><path class="cls-12" d="M12.08,54.45a28.09,28.09,0,0,0-.69,6.46"/><path class="cls-12" d="M13.35,53.36a1.87,1.87,0,0,0-.62,1.16"/><path class="cls-12" d="M12.74,53.41a1.86,1.86,0,0,0-.64,1"/><path class="cls-12" d="M25.21,51.76a5.72,5.72,0,0,0-4.71-2.13"/><path class="cls-12" d="M26.2,53.23a8.88,8.88,0,0,0-1-1.51"/><path class="cls-12" d="M25.22,70a9.2,9.2,0,0,0,1-1.5"/><path class="cls-12" d="M26.19,68.51a18.6,18.6,0,0,0,1.87-6.85V60.09a18.6,18.6,0,0,0-1.87-6.85"/><path class="cls-12" d="M26.45,64a13,13,0,0,0,0-6.21"/><path class="cls-12" d="M23.88,52.16A3.41,3.41,0,0,0,21.09,51"/><path class="cls-12" d="M26.42,57.78a12.27,12.27,0,0,0-2.58-5.62"/><path class="cls-12" d="M21.09,70.8a3.39,3.39,0,0,0,2.79-1.17"/><path class="cls-12" d="M23.84,69.59A12.22,12.22,0,0,0,26.42,64"/><path class="cls-12" d="M20.1,60.88a1.48,1.48,0,1,0-1.48,1.48,1.49,1.49,0,0,0,1.48-1.48"/><path class="cls-12" d="M19.66,60.88a1,1,0,1,0-1,1,1,1,0,0,0,1-1"/><polyline class="cls-13" points="0.38 5.37 0.38 72.01 0.38 70.34"/><polyline class="cls-13" points="0.38 75.34 0.38 95.23 0.38 0.38"/><polyline class="cls-13" points="34.36 98.15 34.36 110.55 10.36 110.55 10.36 98.15 34.36 98.15"/><polyline class="cls-13" points="10.36 110.55 34.36 110.55 34.36 98.15 10.36 98.15 10.36 110.55"/><polyline class="cls-13" points="34.36 98.15 10.36 98.15 10.36 110.55"/><line class="cls-13" x1="0.38" y1="78.67" x2="0.38" y2="77"/><polyline class="cls-13" points="10.36 98.15 10.36 0.38 0.38 0.38"/><polyline class="cls-13" points="170.4 304.54 170.4 304.49 166.34 304.49 166.34 304.54"/><polyline class="cls-13" points="182.34 304.54 182.34 304.49 174.38 304.49 174.38 304.54"/><polyline class="cls-13" points="194.36 304.54 194.36 304.49 186.36 304.49 186.36 304.54"/><polyline class="cls-13" points="206.38 304.54 206.38 304.49 198.34 304.49 198.34 304.54"/><polyline class="cls-13" points="213.37 304.54 213.37 304.49 210.32 304.49 210.32 304.54"/><polyline class="cls-13" points="213.37 304.49 213.37 304.54 166.34 304.54"/><line class="cls-13" x1="213.36" y1="304.49" x2="213.36" y2="304.54"/><line class="cls-13" x1="208.37" y1="304.49" x2="208.37" y2="304.54"/><line class="cls-13" x1="202.36" y1="304.49" x2="202.36" y2="304.54"/><line class="cls-13" x1="196.35" y1="304.49" x2="196.35" y2="304.54"/><line class="cls-13" x1="190.34" y1="304.49" x2="190.34" y2="304.54"/><line class="cls-13" x1="184.37" y1="304.49" x2="184.37" y2="304.54"/><line class="cls-13" x1="178.36" y1="304.49" x2="178.36" y2="304.54"/><line class="cls-13" x1="172.39" y1="304.49" x2="172.39" y2="304.54"/><line class="cls-13" x1="198.34" y1="298.31" x2="198.34" y2="40.33"/><polyline class="cls-13" points="198.34 65.9 198.34 0.38 194.36 0.38"/><polyline class="cls-13" points="191.57 0.38 188.35 0.38 188.35 298.31 198.34 298.31"/><line class="cls-13" x1="0.38" y1="250.32" x2="0.38" y2="130.36"/><polyline class="cls-13" points="34.36 98.15 70.34 98.15 70.34 118.13 34.36 118.13 34.36 110.55 34.36 118.13 70.34 118.13 70.34 98.15 34.36 98.15"/><line class="cls-13" x1="70.34" y1="98.15" x2="34.36" y2="98.15"/><line class="cls-13" x1="34.36" y1="110.55" x2="34.36" y2="118.13"/><line class="cls-13" x1="0.38" y1="80.33" x2="0.38" y2="288.33"/><line class="cls-13" x1="10.36" y1="298.31" x2="10.36" y2="110.55"/><line class="cls-13" x1="98.36" y1="10.36" x2="98.36" y2="6.34"/><line class="cls-13" x1="98.36" y1="3.55" x2="98.36" y2="0.38"/><line class="cls-13" x1="10.36" y1="0.38" x2="10.36" y2="0.38"/><line class="cls-13" x1="140.35" y1="0.38" x2="140.35" y2="3.55"/><line class="cls-13" x1="140.35" y1="6.34" x2="140.35" y2="10.36"/><line class="cls-13" x1="98.36" y1="10.36" x2="10.36" y2="10.36"/><line class="cls-13" x1="188.35" y1="10.36" x2="140.35" y2="10.36"/><line class="cls-13" x1="98.36" y1="0.38" x2="10.36" y2="0.38"/><line class="cls-13" x1="196.35" y1="0.38" x2="140.35" y2="0.38"/><line class="cls-13" x1="188.35" y1="0.38" x2="187.55" y2="0.38"/><line class="cls-13" x1="188.35" y1="105.73" x2="151.36" y2="105.73"/><line class="cls-13" x1="188.35" y1="102.55" x2="154.57" y2="102.55"/><line class="cls-13" x1="154.57" y1="73.14" x2="151.36" y2="73.14"/><line class="cls-13" x1="151.36" y1="41.14" x2="154.57" y2="41.14"/><line class="cls-13" x1="154.57" y1="73.14" x2="154.57" y2="102.55"/><line class="cls-13" x1="154.57" y1="10.36" x2="154.57" y2="41.14"/><line class="cls-13" x1="151.36" y1="10.36" x2="151.36" y2="41.14"/><line class="cls-13" x1="151.36" y1="73.14" x2="151.36" y2="105.73"/><line class="cls-13" x1="84.35" y1="41.14" x2="89.18" y2="41.14"/><line class="cls-13" x1="89.18" y1="73.14" x2="84.35" y2="73.14"/><line class="cls-13" x1="84.35" y1="41.14" x2="84.35" y2="10.36"/><line class="cls-13" x1="84.35" y1="100.94" x2="84.35" y2="73.14"/><line class="cls-13" x1="89.18" y1="41.14" x2="89.18" y2="10.36"/><line class="cls-13" x1="89.18" y1="105.73" x2="89.18" y2="73.14"/><line class="cls-13" x1="10.36" y1="115.34" x2="34.36" y2="115.34"/><line class="cls-13" x1="70.34" y1="100.94" x2="84.35" y2="100.94"/><line class="cls-13" x1="70.34" y1="105.73" x2="89.18" y2="105.73"/><line class="cls-13" x1="0.38" y1="304.49" x2="0.38" y2="288.33"/><line class="cls-13" x1="0.38" y1="298.31" x2="10.36" y2="298.31"/><line class="cls-13" x1="198.34" y1="288.33" x2="198.34" y2="298.31"/><line class="cls-13" x1="213.36" y1="298.31" x2="213.36" y2="295.78"/><line class="cls-13" x1="198.34" y1="288.33" x2="213.36" y2="288.33"/><line class="cls-13" x1="198.34" y1="298.31" x2="213.36" y2="298.31"/><line class="cls-13" x1="166.34" y1="295.78" x2="166.34" y2="298.31"/><line class="cls-13" x1="188.35" y1="298.31" x2="188.35" y2="288.33"/><line class="cls-13" x1="94.38" y1="298.31" x2="94.38" y2="295.78"/><line class="cls-13" x1="166.34" y1="288.33" x2="188.35" y2="288.33"/><line class="cls-13" x1="10.36" y1="288.33" x2="94.38" y2="288.33"/><line class="cls-13" x1="166.34" y1="298.31" x2="188.35" y2="298.31"/><line class="cls-13" x1="10.36" y1="298.31" x2="94.38" y2="298.31"/><line class="cls-13" x1="0.38" y1="304.49" x2="10.36" y2="304.49"/><polyline class="cls-13" points="166.34 295.04 166.34 304.49 213.37 304.49 213.37 288.33"/><polyline class="cls-13" points="10.36 304.49 94.38 304.49 94.38 294.3"/><line class="cls-13" x1="213.36" y1="298.31" x2="198.34" y2="298.31"/><line class="cls-13" x1="188.35" y1="298.31" x2="166.34" y2="298.31"/><line class="cls-13" x1="94.38" y1="298.31" x2="10.36" y2="298.31"/><line class="cls-14" x1="166.34" y1="304.49" x2="94.38" y2="304.49"/><polyline class="cls-13" points="166.34 295.77 166.34 286.29 94.38 286.29 94.38 295.77"/><polyline class="cls-14" points="141.49 296.58 141.49 299.16 140.94 299.16 140.94 299.71 143.78 299.71 143.78 299.16 142.97 299.16 142.97 296.58 141.49 296.58"/><line class="cls-14" x1="143.23" y1="299.16" x2="143.23" y2="299.08"/><line class="cls-14" x1="143.1" y1="296.58" x2="142.97" y2="296.58"/><polyline class="cls-14" points="140.39 298.27 139.59 298.27 139.59 299.08 141.62 299.08 141.62 296.5 142.38 296.5 142.38 295.94 139.59 295.94 139.59 297.3 140.39 297.3 140.39 298.27"/><polyline class="cls-14" points="99.55 298.27 98.74 298.27 98.74 297.3 99.55 297.3 99.55 295.94 96.71 295.94 96.71 296.5 97.52 296.5 97.52 299.08 99.55 299.08 99.55 298.27 139.59 298.27"/><line class="cls-14" x1="99.55" y1="299.08" x2="139.59" y2="299.08"/><line class="cls-14" x1="99.55" y1="297.3" x2="139.59" y2="297.3"/><line class="cls-14" x1="139.59" y1="295.94" x2="99.55" y2="295.94"/><polyline class="cls-14" points="95.36 299.71 98.15 299.71 98.15 299.16 97.35 299.16 97.35 296.58 95.36 296.58 95.36 299.71"/><polyline class="cls-14" points="165.37 299.71 165.37 296.58 163.38 296.58 163.38 299.16 162.57 299.16 162.57 299.71 165.37 299.71"/><line class="cls-14" x1="98.15" y1="299.71" x2="140.94" y2="299.71"/><line class="cls-14" x1="143.78" y1="299.71" x2="162.57" y2="299.71"/><line class="cls-14" x1="163.38" y1="296.58" x2="163.21" y2="296.58"/><line class="cls-14" x1="97.52" y1="296.58" x2="97.35" y2="296.58"/><line class="cls-14" x1="162.57" y1="299.16" x2="143.78" y2="299.16"/><line class="cls-14" x1="140.94" y1="299.16" x2="98.15" y2="299.16"/><polyline class="cls-14" points="161.98 297.3 161.98 298.27 161.22 298.27 161.22 299.08 163.21 299.08 163.21 296.5 164.01 296.5 164.01 295.94 161.22 295.94 161.22 297.3 161.98 297.3"/><polyline class="cls-14" points="144.33 298.27 144.33 297.3 145.13 297.3 145.13 295.94 142.34 295.94 142.34 296.5 143.1 296.5 143.1 299.08 145.13 299.08 145.13 298.27 144.33 298.27"/><line class="cls-14" x1="161.22" y1="298.27" x2="145.13" y2="298.27"/><line class="cls-14" x1="145.13" y1="297.3" x2="161.22" y2="297.3"/><line class="cls-14" x1="161.22" y1="295.94" x2="145.13" y2="295.94"/><line class="cls-14" x1="145.13" y1="299.08" x2="161.22" y2="299.08"/><polyline class="cls-14" points="213.37 299.71 213.37 299.71 213.37 299.16 213.37 299.16 213.37 296.58 213.37 296.58 213.37 299.71"/><line class="cls-14" x1="213.36" y1="296.58" x2="213.36" y2="296.58"/><polyline class="cls-14" points="104.8 23.78 137.34 4.99 138.15 6.34 105.6 25.14 104.8 23.78"/><polyline class="cls-13" points="139.55 6.34 138.15 6.34 138.15 4.78 137.77 4.78 137.77 3.55 139.55 3.55 139.55 6.34"/><polyline class="cls-13" points="100.99 3.55 100.99 4.78 100.56 4.78 100.56 6.34 99.17 6.34 99.17 3.55 100.99 3.55"/><line class="cls-14" x1="182.17" y1="306.1" x2="182.17" y2="304.49"/><line class="cls-14" x1="181.37" y1="306.1" x2="181.37" y2="304.49"/><line class="cls-14" x1="204.56" y1="306.1" x2="204.56" y2="304.49"/><line class="cls-14" x1="205.36" y1="306.1" x2="205.36" y2="304.49"/><polyline class="cls-14" points="209.34 322.1 177.34 322.1 177.34 306.1 209.34 306.1 209.34 322.1"/><polyline class="cls-14" points="193.39 326.93 191.31 326.93 189.2 326.93 187.08 326.93 184.96 326.93 182.85 326.93 180.73 326.93 178.61 326.93 176.46 326.93 173.49 326.93 173.49 326.84 176.46 326.84 178.61 326.84 180.73 326.84 182.85 326.84 184.96 326.84 187.08 326.84 189.2 326.84 191.31 326.84 193.39 326.84 193.39 326.93"/><line class="cls-14" x1="191.31" y1="326.84" x2="191.31" y2="326.93"/><line class="cls-14" x1="189.2" y1="326.84" x2="189.2" y2="326.93"/><line class="cls-14" x1="187.08" y1="326.84" x2="187.08" y2="326.93"/><line class="cls-14" x1="184.96" y1="326.84" x2="184.96" y2="326.93"/><line class="cls-14" x1="182.85" y1="326.84" x2="182.85" y2="326.93"/><line class="cls-14" x1="180.73" y1="326.84" x2="180.73" y2="326.93"/><line class="cls-14" x1="178.61" y1="326.84" x2="178.61" y2="326.93"/><line class="cls-14" x1="176.46" y1="326.84" x2="176.46" y2="326.93"/><polyline class="cls-14" points="213.37 326.84 193.39 326.84 193.39 326.72 213.37 326.72 213.37 326.84"/><polyline class="cls-14" points="173.37 304.49 173.37 326.72 213.37 326.72 213.37 304.49"/><polyline class="cls-14" points="210.74 304.49 210.74 324.09 175.95 324.09 175.95 304.49"/><line class="cls-14" x1="210.74" y1="323.92" x2="175.95" y2="323.92"/><line class="cls-14" x1="89.18" y1="104.65" x2="89.18" y2="105.65"/><line class="cls-15" x1="89.18" y1="107.63" x2="89.18" y2="213.32"/><polyline class="cls-14" points="89.18 214.31 89.18 215.31 88.18 215.31"/><line class="cls-16" x1="86.21" y1="215.31" x2="12.47" y2="215.31"/><line class="cls-14" x1="11.49" y1="215.31" x2="10.49" y2="215.31"/></svg>