<svg id="_108" data-name="108" xmlns="http://www.w3.org/2000/svg" viewBox="0 0 508.3 545.8"><defs><style>.cls-1{font-size:8px;}.cls-1,.cls-4{fill:#808184;}.cls-1,.cls-5{font-family:BigCityGrotesquePro-Regular, BigCity Grotesque Pro;}.cls-2{letter-spacing:-0.03em;}.cls-3,.cls-8{fill:none;}.cls-3{stroke:#808184;stroke-width:0.75px;}.cls-11,.cls-3,.cls-8{stroke-linecap:round;stroke-linejoin:round;}.cls-5{font-size:20px;fill:#212121;}.cls-6{letter-spacing:-0.02em;}.cls-7{letter-spacing:-0.02em;}.cls-8{stroke:#000;}.cls-11,.cls-8{stroke-width:0.5px;}.cls-9{letter-spacing:-0.02em;}.cls-10{letter-spacing:-0.02em;}.cls-11{fill:#1d1d1b;stroke:#1d1d1b;}</style></defs><title>14floor_108flat</title><text class="cls-1" transform="translate(6.86 250.68) rotate(-90)"><tspan class="cls-2">у</tspan><tspan x="3.72" y="0">лица</tspan></text><line class="cls-3" x1="8.12" y1="256.1" x2="1.09" y2="256.1"/><path class="cls-4" d="M33.55,253.22a.31.31,0,0,1-.1.42l-3.87,2.46,3.87,2.47a.3.3,0,0,1,.1.41.32.32,0,0,1-.42.1l-4.27-2.72a.32.32,0,0,1-.13-.26.31.31,0,0,1,.13-.25l4.27-2.72a.32.32,0,0,1,.16,0A.3.3,0,0,1,33.55,253.22Z" transform="translate(-28.35 -0.01)"/><text class="cls-5" transform="translate(120.51 453.03)">13<tspan class="cls-6" x="17.04" y="0">.</tspan><tspan x="21.24" y="0">0</tspan></text><text class="cls-5" transform="translate(120.1 282.06)">1<tspan class="cls-6" x="7.04" y="0">0</tspan><tspan class="cls-7" x="18.2" y="0">.</tspan><tspan x="22.44" y="0">6</tspan></text><text class="cls-5" transform="translate(391.13 268.24)">8.9</text><text class="cls-5" transform="translate(444.86 432.91)">5.2</text><text class="cls-5" transform="translate(120.02 106.76)">14.9</text><rect class="cls-8" x="184.76" y="234.29" width="73.7" height="27"/><rect class="cls-8" x="184.76" y="261.29" width="73.7" height="27"/><rect class="cls-8" x="184.76" y="288.29" width="73.7" height="27"/><text class="cls-5" transform="translate(195.8 253.5)">№108<tspan x="15.48" y="28">2</tspan><tspan class="cls-9" x="25.1" y="28">K</tspan><tspan x="8.36" y="56">52</tspan><tspan class="cls-10" x="27.84" y="56">.</tspan><tspan x="32.08" y="56">6</tspan></text><path d="M536.29,175l-11,370.57V175Zm0,370.57V175l-11,370.57Z" transform="translate(-28.35 -0.01)"/><path class="cls-8" d="M536.29,175l-11,370.57V175Zm0,370.57V175l-11,370.57Z" transform="translate(-28.35 -0.01)"/><polyline points="507.94 530.83 507.94 545.55 507.94 530.83 507.94 530.83"/><polyline points="507.94 530.83 507.94 545.55 507.94 545.55"/><polyline class="cls-8" points="507.94 530.83 507.94 545.55 507.94 530.83 507.94 530.83"/><polyline class="cls-8" points="507.94 530.83 507.94 545.55 507.94 545.55"/><path d="M472.24,530.83,107.56,545.56V530.83Zm0,14.73V530.83L107.56,545.56Z" transform="translate(-28.35 -0.01)"/><path class="cls-8" d="M472.24,530.83,107.56,545.56V530.83Zm0,14.73V530.83L107.56,545.56Z" transform="translate(-28.35 -0.01)"/><path d="M525.25,530.83l-53,14.73V530.83Zm0,14.73V530.83l-53,14.73Z" transform="translate(-28.35 -0.01)"/><path class="cls-8" d="M525.25,530.83l-53,14.73V530.83Zm0,14.73V530.83l-53,14.73Z" transform="translate(-28.35 -0.01)"/><path d="M536.29,175v0Z" transform="translate(-28.35 -0.01)"/><path class="cls-8" d="M536.29,175v0Z" transform="translate(-28.35 -0.01)"/><polyline points="507.94 174.98 507.94 189.71 507.94 174.98 507.94 174.98"/><polyline points="507.94 174.98 507.94 189.71 507.94 189.71"/><polyline class="cls-8" points="507.94 174.98 507.94 189.71 507.94 174.98 507.94 174.98"/><polyline class="cls-8" points="507.94 174.98 507.94 189.71 507.94 189.71"/><polyline points="93.93 0.25 79.21 42.71 79.21 0.25"/><polyline points="93.93 0.25 79.21 42.71 93.93 42.71 93.93 0.25"/><polyline class="cls-8" points="93.93 0.25 79.21 42.71 79.21 0.25"/><polyline class="cls-8" points="93.93 0.25 79.21 42.71 93.93 42.71 93.93 0.25"/><polyline points="93.93 0.25 93.93 13.26 93.93 42.71 93.93 0.25"/><polygon points="93.93 13.26 93.93 13.26 93.93 42.71 93.93 13.26"/><polyline class="cls-8" points="93.93 0.25 93.93 13.26 93.93 42.71 93.93 0.25"/><polygon class="cls-8" points="93.93 13.26 93.93 13.26 93.93 42.71 93.93 13.26"/><path d="M122.28,148.48v70.68H107.56Zm0,0h0v0Z" transform="translate(-28.35 -0.01)"/><path class="cls-8" d="M122.28,148.48v70.68H107.56Zm0,0h0v0Z" transform="translate(-28.35 -0.01)"/><polygon points="79.21 219.16 79.21 148.48 93.93 148.48 79.21 219.16"/><polygon class="cls-8" points="79.21 219.16 79.21 148.48 93.93 148.48 79.21 219.16"/><path d="M122.28,327.88l-14.72,70.68V327.88Zm0,70.68V327.88l-14.72,70.68Z" transform="translate(-28.35 -0.01)"/><path class="cls-8" d="M122.28,327.88l-14.72,70.68V327.88Zm0,70.68V327.88l-14.72,70.68Z" transform="translate(-28.35 -0.01)"/><path d="M304.87,357.33l-35.34,11.78V357.33Zm0,11.78V357.33l-35.34,11.78Z" transform="translate(-28.35 -0.01)"/><path class="cls-8" d="M304.87,357.33l-35.34,11.78V357.33Zm0,11.78V357.33l-35.34,11.78Z" transform="translate(-28.35 -0.01)"/><path d="M340,357.33l-35.09,11.78V357.33Zm0,11.78V357.33l-35.09,11.78Z" transform="translate(-28.35 -0.01)"/><path class="cls-8" d="M340,357.33l-35.09,11.78V357.33Zm0,11.78V357.33l-35.09,11.78Z" transform="translate(-28.35 -0.01)"/><path d="M340,177.93l-70.43,11.78V177.93Zm0,11.78V177.93l-70.43,11.78Z" transform="translate(-28.35 -0.01)"/><path class="cls-8" d="M340,177.93l-70.43,11.78V177.93Zm0,11.78V177.93l-70.43,11.78Z" transform="translate(-28.35 -0.01)"/><path d="M344.38,1.48,260.69,13.26V1.48Zm0,11.78V1.48L260.69,13.26Z" transform="translate(-28.35 -0.01)"/><path class="cls-8" d="M344.38,1.48,260.69,13.26V1.48Zm0,11.78V1.48L260.69,13.26Z" transform="translate(-28.35 -0.01)"/><path d="M348.8,1.48l-4.42,11.78V1.48Zm0,11.78V1.48l-4.42,11.78Z" transform="translate(-28.35 -0.01)"/><path class="cls-8" d="M348.8,1.48l-4.42,11.78V1.48Zm0,11.78V1.48l-4.42,11.78Z" transform="translate(-28.35 -0.01)"/><line class="cls-8" x1="101.05" y1="186.27" x2="96.39" y2="181.61"/><line class="cls-8" x1="127.55" y1="186.27" x2="122.89" y2="181.61"/><line class="cls-8" x1="154.06" y1="186.27" x2="149.39" y2="181.61"/><line class="cls-8" x1="180.32" y1="186.27" x2="175.65" y2="181.61"/><line class="cls-8" x1="206.82" y1="186.27" x2="202.16" y2="181.61"/><line class="cls-8" x1="233.32" y1="186.27" x2="228.42" y2="181.61"/><line class="cls-8" x1="105.71" y1="186.27" x2="101.05" y2="181.61"/><line class="cls-8" x1="132.21" y1="186.27" x2="127.55" y2="181.61"/><line class="cls-8" x1="158.72" y1="186.27" x2="154.06" y2="181.61"/><line class="cls-8" x1="184.98" y1="186.27" x2="180.32" y2="181.61"/><line class="cls-8" x1="211.48" y1="186.27" x2="206.82" y2="181.61"/><line class="cls-8" x1="237.99" y1="186.27" x2="233.08" y2="181.61"/><line class="cls-8" x1="96.39" y1="186.27" x2="93.93" y2="183.57"/><line class="cls-8" x1="122.89" y1="186.27" x2="118.23" y2="181.61"/><line class="cls-8" x1="149.39" y1="186.27" x2="144.49" y2="181.61"/><line class="cls-8" x1="175.65" y1="186.27" x2="170.99" y2="181.61"/><line class="cls-8" x1="202.16" y1="186.27" x2="197.49" y2="181.61"/><line class="cls-8" x1="228.66" y1="186.27" x2="223.75" y2="181.61"/><line class="cls-8" x1="241.18" y1="181.61" x2="95.16" y2="181.61"/><polyline class="cls-8" points="93.93 181.61 93.93 186.27 241.18 186.27 241.18 181.61"/><line class="cls-8" x1="311.61" y1="343.82" x2="306.95" y2="339.16"/><line class="cls-8" x1="311.61" y1="317.56" x2="306.95" y2="312.66"/><line class="cls-8" x1="311.61" y1="238.3" x2="306.95" y2="233.63"/><line class="cls-8" x1="311.61" y1="211.79" x2="306.95" y2="207.13"/><line class="cls-8" x1="311.61" y1="339.16" x2="306.95" y2="334.5"/><line class="cls-8" x1="311.61" y1="312.9" x2="306.95" y2="307.99"/><line class="cls-8" x1="311.61" y1="233.63" x2="306.95" y2="228.73"/><line class="cls-8" x1="311.61" y1="207.13" x2="306.95" y2="202.47"/><line class="cls-8" x1="311.61" y1="348.49" x2="306.95" y2="343.82"/><line class="cls-8" x1="311.61" y1="322.23" x2="306.95" y2="317.32"/><line class="cls-8" x1="311.61" y1="242.96" x2="306.95" y2="238.3"/><line class="cls-8" x1="311.61" y1="216.46" x2="306.95" y2="211.79"/><line class="cls-8" x1="311.61" y1="189.95" x2="311.36" y2="189.71"/><polyline class="cls-8" points="306.95 189.71 306.95 248.36 311.61 248.36 311.61 189.71 306.95 189.71"/><polyline class="cls-8" points="306.95 295.97 306.95 357.32 311.61 357.32 311.61 346.77"/><polyline class="cls-8" points="311.61 342.11 311.61 295.97 306.95 295.97"/><line class="cls-8" x1="264.49" y1="1.48" x2="265.47" y2="1.48"/><line class="cls-8" x1="265.47" y1="1.48" x2="272.59" y2="1.48"/><line class="cls-8" x1="272.59" y1="1.48" x2="273.33" y2="1.48"/><line class="cls-8" x1="312.35" y1="186.27" x2="311.61" y2="185.29"/><line class="cls-8" x1="391.61" y1="186.27" x2="386.95" y2="181.61"/><line class="cls-8" x1="317.01" y1="186.27" x2="312.35" y2="181.61"/><line class="cls-8" x1="396.28" y1="186.27" x2="391.61" y2="181.61"/><line class="cls-8" x1="386.95" y1="186.27" x2="382.29" y2="181.61"/><polyline class="cls-8" points="404.62 181.61 373.94 181.61 373.94 186.27 409.28 186.27"/><polyline class="cls-8" points="326.33 181.61 311.61 181.61 311.61 186.27 326.33 186.27 326.33 181.61"/><line class="cls-8" x1="417.38" y1="1.48" x2="417.38" y2="0.25"/><line class="cls-8" x1="417.38" y1="1.48" x2="417.38" y2="1.48"/><line class="cls-8" x1="306.95" y1="248.36" x2="280.44" y2="290.57"/><line class="cls-8" x1="326.33" y1="186.27" x2="368.54" y2="212.77"/><polyline class="cls-8" points="73.56 102.34 73.56 66.27 72.09 66.27 72.09 102.34 73.56 102.34"/><polyline class="cls-8" points="73.56 142.59 73.56 106.76 72.09 106.76 72.09 142.59 73.56 142.59"/><polyline class="cls-8" points="75.28 106.76 75.28 102.34 70.37 102.34 70.37 106.76 75.28 106.76"/><polyline class="cls-8" points="75.28 148.48 75.28 142.59 70.37 142.59 70.37 148.48"/><line class="cls-8" x1="75.28" y1="66.27" x2="75.28" y2="60.38"/><polyline class="cls-8" points="70.37 60.38 70.37 66.27 75.28 66.27 75.28 102.34"/><line class="cls-8" x1="75.28" y1="106.76" x2="75.28" y2="142.59"/><line class="cls-8" x1="70.37" y1="142.59" x2="70.37" y2="106.76"/><line class="cls-8" x1="70.37" y1="102.34" x2="70.37" y2="66.27"/><polyline class="cls-8" points="95.16 148.48 95.65 148.48 96.88 148.48 96.88 60.38"/><polyline class="cls-8" points="95.16 60.38 95.65 60.38 96.88 60.38"/><line class="cls-8" x1="64.48" y1="148.48" x2="63.01" y2="148.48"/><polyline class="cls-8" points="63.01 148.48 63.01 60.38 66.94 60.38"/><line class="cls-8" x1="496.89" y1="174.98" x2="496.89" y2="504.32"/><line class="cls-8" x1="507.94" y1="545.55" x2="507.94" y2="189.71"/><polyline class="cls-8" points="79.21 530.83 79.21 545.55 507.94 545.55"/><line class="cls-8" x1="507.94" y1="154.37" x2="507.94" y2="149.7"/><line class="cls-8" x1="507.94" y1="154.37" x2="507.94" y2="149.7"/><line class="cls-8" x1="507.94" y1="154.37" x2="507.94" y2="149.7"/><line class="cls-8" x1="507.94" y1="154.37" x2="507.94" y2="154.37"/><line class="cls-8" x1="507.94" y1="149.7" x2="498.12" y2="149.7"/><polyline class="cls-8" points="73.56 271.43 73.56 235.35 72.09 235.35 72.09 271.43 73.56 271.43"/><polyline class="cls-8" points="73.56 311.68 73.56 275.85 72.09 275.85 72.09 311.68 73.56 311.68"/><polyline class="cls-8" points="75.28 275.85 75.28 271.43 70.37 271.43 70.37 275.85 75.28 275.85"/><polyline class="cls-8" points="75.28 317.56 75.28 311.68 70.37 311.68 70.37 317.56"/><line class="cls-8" x1="75.28" y1="235.35" x2="75.28" y2="229.46"/><polyline class="cls-8" points="70.37 229.46 70.37 235.35 75.28 235.35 75.28 271.43"/><line class="cls-8" x1="75.28" y1="275.85" x2="75.28" y2="311.68"/><line class="cls-8" x1="70.37" y1="311.68" x2="70.37" y2="275.85"/><line class="cls-8" x1="70.37" y1="271.43" x2="70.37" y2="235.35"/><polyline class="cls-8" points="95.16 317.56 95.65 317.56 96.88 317.56 96.88 229.46"/><polyline class="cls-8" points="95.16 229.46 95.65 229.46 96.88 229.46"/><line class="cls-8" x1="64.48" y1="317.56" x2="63.01" y2="317.56"/><polyline class="cls-8" points="63.01 317.56 63.01 229.46 64.48 229.46"/><polyline class="cls-8" points="73.56 440.51 73.56 404.44 72.09 404.44 72.09 440.51 73.56 440.51"/><polyline class="cls-8" points="73.56 480.76 73.56 444.93 72.09 444.93 72.09 480.76 73.56 480.76"/><polyline class="cls-8" points="75.28 444.93 75.28 440.51 70.37 440.51 70.37 444.93 75.28 444.93"/><polyline class="cls-8" points="75.28 486.65 75.28 480.76 70.37 480.76 70.37 486.65"/><line class="cls-8" x1="75.28" y1="404.44" x2="75.28" y2="398.55"/><polyline class="cls-8" points="70.37 398.55 70.37 404.44 75.28 404.44 75.28 440.51"/><line class="cls-8" x1="75.28" y1="444.93" x2="75.28" y2="480.76"/><line class="cls-8" x1="70.37" y1="480.76" x2="70.37" y2="444.93"/><line class="cls-8" x1="70.37" y1="440.52" x2="70.37" y2="404.44"/><polyline class="cls-8" points="95.16 486.65 95.65 486.65 96.88 486.65 96.88 398.55"/><polyline class="cls-8" points="95.16 398.55 95.65 398.55 96.88 398.55"/><line class="cls-8" x1="66.94" y1="486.65" x2="63.01" y2="486.65"/><polyline class="cls-8" points="63.01 486.65 63.01 398.55 64.48 398.55"/><line class="cls-8" x1="93.93" y1="522.24" x2="79.21" y2="507.76"/><line class="cls-8" x1="93.93" y1="495.98" x2="84.85" y2="486.65"/><line class="cls-8" x1="84.36" y1="327.87" x2="79.21" y2="322.72"/><line class="cls-8" x1="91.48" y1="229.46" x2="81.17" y2="219.16"/><line class="cls-8" x1="80.92" y1="60.38" x2="79.21" y2="58.66"/><line class="cls-8" x1="93.93" y1="46.88" x2="89.76" y2="42.71"/><line class="cls-8" x1="80.68" y1="530.83" x2="79.21" y2="529.35"/><line class="cls-8" x1="93.93" y1="517.57" x2="79.21" y2="503.09"/><line class="cls-8" x1="93.93" y1="491.32" x2="89.51" y2="486.65"/><line class="cls-8" x1="89.02" y1="327.87" x2="79.21" y2="318.06"/><line class="cls-8" x1="93.93" y1="227.25" x2="85.83" y2="219.16"/><line class="cls-8" x1="85.59" y1="60.38" x2="79.21" y2="53.99"/><line class="cls-8" x1="93.93" y1="526.9" x2="79.21" y2="512.42"/><line class="cls-8" x1="93.93" y1="500.64" x2="80.19" y2="486.65"/><line class="cls-8" x1="79.7" y1="327.87" x2="79.21" y2="327.38"/><line class="cls-8" x1="86.81" y1="229.46" x2="79.21" y2="221.86"/><line class="cls-8" x1="93.93" y1="51.54" x2="85.1" y2="42.71"/><line class="cls-8" x1="79.21" y1="541.87" x2="70.37" y2="533.03"/><line class="cls-8" x1="79.21" y1="510.7" x2="70.37" y2="501.87"/><line class="cls-8" x1="79.21" y1="386.03" x2="70.37" y2="377.2"/><line class="cls-8" x1="79.21" y1="354.87" x2="70.37" y2="346.03"/><line class="cls-8" x1="79.21" y1="323.7" x2="73.32" y2="317.56"/><line class="cls-8" x1="78.72" y1="229.46" x2="70.37" y2="221.12"/><line class="cls-8" x1="79.21" y1="198.79" x2="70.37" y2="189.95"/><line class="cls-8" x1="79.21" y1="167.62" x2="70.37" y2="158.78"/><line class="cls-8" x1="79.21" y1="42.95" x2="70.37" y2="34.12"/><line class="cls-8" x1="79.21" y1="11.78" x2="70.37" y2="2.95"/><line class="cls-8" x1="79.21" y1="535" x2="70.37" y2="543.83"/><line class="cls-8" x1="79.21" y1="503.59" x2="70.37" y2="512.42"/><line class="cls-8" x1="79.21" y1="378.92" x2="70.37" y2="387.75"/><line class="cls-8" x1="79.21" y1="347.75" x2="70.37" y2="356.59"/><line class="cls-8" x1="78.22" y1="317.56" x2="70.37" y2="325.42"/><line class="cls-8" x1="79.21" y1="223.08" x2="72.83" y2="229.46"/><line class="cls-8" x1="79.21" y1="191.67" x2="70.37" y2="200.5"/><line class="cls-8" x1="79.21" y1="160.5" x2="70.37" y2="169.34"/><line class="cls-8" x1="79.21" y1="35.83" x2="70.37" y2="44.67"/><line class="cls-8" x1="79.21" y1="4.67" x2="70.37" y2="13.5"/><line class="cls-8" x1="79.21" y1="0.25" x2="70.37" y2="0.25"/><line class="cls-8" x1="93.93" y1="317.56" x2="79.21" y2="317.56"/><polyline class="cls-8" points="79.21 317.56 67.43 317.56 67.43 398.55 79.21 398.55"/><polyline class="cls-8" points="79.21 148.48 67.43 148.48 67.43 229.46 79.21 229.46"/><line class="cls-8" x1="79.21" y1="229.46" x2="93.93" y2="229.46"/><line class="cls-8" x1="67.43" y1="60.38" x2="79.21" y2="60.38"/><line class="cls-8" x1="79.21" y1="60.38" x2="93.93" y2="60.38"/><line class="cls-8" x1="67.43" y1="545.55" x2="79.21" y2="545.55"/><line class="cls-8" x1="93.93" y1="486.65" x2="79.21" y2="486.65"/><line class="cls-8" x1="79.21" y1="486.65" x2="67.43" y2="486.65"/><line class="cls-8" x1="79.21" y1="530.83" x2="375.42" y2="530.83"/><line class="cls-8" x1="93.93" y1="530.83" x2="93.93" y2="486.65"/><line class="cls-8" x1="79.21" y1="486.65" x2="79.21" y2="530.83"/><line class="cls-8" x1="93.93" y1="229.46" x2="93.93" y2="219.16"/><line class="cls-8" x1="93.93" y1="219.16" x2="79.21" y2="219.16"/><line class="cls-8" x1="79.21" y1="219.16" x2="79.21" y2="229.46"/><line class="cls-8" x1="93.93" y1="60.38" x2="93.93" y2="42.71"/><line class="cls-8" x1="93.93" y1="42.71" x2="79.21" y2="42.71"/><line class="cls-8" x1="79.21" y1="42.71" x2="79.21" y2="60.38"/><line class="cls-8" x1="93.93" y1="327.87" x2="93.93" y2="317.56"/><line class="cls-8" x1="79.21" y1="317.56" x2="79.21" y2="327.87"/><line class="cls-8" x1="79.21" y1="327.87" x2="93.93" y2="327.87"/><line class="cls-8" x1="67.43" y1="52.28" x2="67.43" y2="60.38"/><line class="cls-8" x1="70.37" y1="486.65" x2="70.37" y2="545.55"/><line class="cls-8" x1="79.21" y1="219.16" x2="79.21" y2="148.48"/><line class="cls-8" x1="70.37" y1="148.48" x2="70.37" y2="229.46"/><line class="cls-8" x1="79.21" y1="42.71" x2="79.21" y2="0.25"/><line class="cls-8" x1="70.37" y1="0.25" x2="70.37" y2="60.38"/><line class="cls-8" x1="70.37" y1="317.56" x2="70.37" y2="398.55"/><line class="cls-8" x1="79.21" y1="398.55" x2="79.21" y2="327.87"/><line class="cls-8" x1="63.5" y1="8.35" x2="65.95" y2="8.35"/><line class="cls-8" x1="63.5" y1="7.12" x2="65.95" y2="7.12"/><line class="cls-8" x1="63.5" y1="41.23" x2="65.95" y2="41.23"/><line class="cls-8" x1="63.5" y1="42.46" x2="65.95" y2="42.46"/><polyline class="cls-8" points="40.19 48.35 40.19 3.19 63.5 3.19 63.5 48.35 40.19 48.35"/><polyline class="cls-8" points="35.28 0.25 35.28 52.28 67.43 52.28 67.43 0.25"/><polyline class="cls-8" points="35.28 52.28 34.54 52.28 34.54 0.25 64.97 0.25"/><line class="cls-8" x1="507.94" y1="172.28" x2="498.12" y2="160.5"/><line class="cls-8" x1="507.94" y1="167.62" x2="498.12" y2="155.84"/><line class="cls-8" x1="507.94" y1="174.98" x2="498.12" y2="165.17"/><line class="cls-8" x1="507.94" y1="174.98" x2="507.94" y2="154.37"/><line class="cls-8" x1="496.89" y1="163.94" x2="496.89" y2="174.98"/><line class="cls-8" x1="498.12" y1="162.71" x2="498.12" y2="174.98"/><line class="cls-8" x1="498.12" y1="150.93" x2="498.12" y2="149.7"/><line class="cls-8" x1="496.4" y1="499.66" x2="496.4" y2="351.43"/><polyline class="cls-8" points="496.4 342.11 496.4 301.37 496.89 301.37"/><line class="cls-8" x1="507.94" y1="210.32" x2="507.94" y2="189.71"/><line class="cls-8" x1="507.94" y1="189.71" x2="507.94" y2="189.71"/><line class="cls-8" x1="507.94" y1="174.98" x2="496.89" y2="174.98"/><polyline class="cls-8" points="79.21 0.25 79.21 42.71 93.93 42.71"/><line class="cls-8" x1="93.93" y1="42.71" x2="93.93" y2="0.25"/><polyline class="cls-8" points="79.21 148.48 79.21 219.16 93.93 219.16"/><polyline class="cls-8" points="93.93 219.16 93.93 148.48 79.21 148.48"/><line class="cls-8" x1="79.21" y1="327.87" x2="79.21" y2="398.55"/><polyline class="cls-8" points="79.21 398.55 93.93 398.55 93.93 327.87"/><line class="cls-8" x1="93.93" y1="327.87" x2="79.21" y2="327.87"/><polyline class="cls-8" points="241.18 369.1 311.61 369.1 311.61 357.32 241.18 357.32 241.18 369.1"/><polyline class="cls-8" points="241.18 189.71 311.61 189.71 311.61 177.93 241.18 177.93 241.18 189.71"/><polyline class="cls-8" points="232.34 13.26 264.49 13.26 320.44 13.26 320.44 1.48"/><line class="cls-8" x1="320.44" y1="1.48" x2="264.49" y2="1.48"/><polyline class="cls-8" points="264.49 1.48 232.34 1.48 232.34 13.26"/><line class="cls-8" x1="95.65" y1="365.67" x2="93.93" y2="363.95"/><line class="cls-8" x1="122.15" y1="365.67" x2="117.49" y2="361"/><line class="cls-8" x1="148.41" y1="365.67" x2="143.75" y2="361"/><line class="cls-8" x1="174.92" y1="365.67" x2="170.25" y2="361"/><line class="cls-8" x1="201.42" y1="365.67" x2="196.51" y2="361"/><line class="cls-8" x1="227.68" y1="365.67" x2="223.02" y2="361"/><line class="cls-8" x1="100.31" y1="365.67" x2="95.65" y2="361"/><line class="cls-8" x1="126.82" y1="365.67" x2="122.15" y2="361"/><line class="cls-8" x1="153.07" y1="365.67" x2="148.41" y2="361"/><line class="cls-8" x1="179.58" y1="365.67" x2="174.92" y2="361"/><line class="cls-8" x1="206.08" y1="365.67" x2="201.18" y2="361"/><line class="cls-8" x1="232.34" y1="365.67" x2="227.68" y2="361"/><line class="cls-8" x1="117.49" y1="365.67" x2="112.83" y2="361"/><line class="cls-8" x1="143.75" y1="365.67" x2="139.09" y2="361"/><line class="cls-8" x1="170.25" y1="365.67" x2="165.59" y2="361"/><line class="cls-8" x1="196.76" y1="365.67" x2="191.85" y2="361"/><line class="cls-8" x1="223.02" y1="365.67" x2="218.35" y2="361"/><polyline class="cls-8" points="241.18 361 93.93 361 93.93 365.67 241.18 365.67 241.18 361"/><polyline class="cls-8" points="66.94 52.28 66.94 60.38 67.43 60.38"/><polyline class="cls-8" points="67.43 486.65 66.94 486.65 66.94 545.55 67.43 545.55 67.43 486.65"/><polyline class="cls-8" points="66.94 229.46 64.48 229.46 64.48 148.48 66.94 148.48 66.94 229.46 67.43 229.46 67.43 148.48 66.94 148.48"/><polyline class="cls-8" points="66.94 398.55 64.48 398.55 64.48 317.56 66.94 317.56 66.94 398.55 67.43 398.55 67.43 317.56 66.94 317.56"/><line class="cls-8" x1="507.94" y1="214.98" x2="507.94" y2="210.32"/><line class="cls-8" x1="507.94" y1="214.98" x2="507.94" y2="210.32"/><line class="cls-8" x1="507.94" y1="214.98" x2="507.94" y2="210.32"/><line class="cls-8" x1="507.94" y1="210.32" x2="507.94" y2="210.32"/><line class="cls-8" x1="507.94" y1="214.98" x2="507.94" y2="214.98"/><line class="cls-8" x1="113.07" y1="13.26" x2="101.29" y2="1.48"/><line class="cls-8" x1="139.58" y1="13.26" x2="127.8" y2="1.48"/><line class="cls-8" x1="165.84" y1="13.26" x2="154.06" y2="1.48"/><line class="cls-8" x1="192.34" y1="13.26" x2="180.56" y2="1.48"/><line class="cls-8" x1="218.84" y1="13.26" x2="207.06" y2="1.48"/><line class="cls-8" x1="117.74" y1="13.26" x2="105.96" y2="1.48"/><line class="cls-8" x1="144.24" y1="13.26" x2="132.46" y2="1.48"/><line class="cls-8" x1="170.5" y1="13.26" x2="158.72" y2="1.48"/><line class="cls-8" x1="197" y1="13.26" x2="185.22" y2="1.48"/><line class="cls-8" x1="223.51" y1="13.26" x2="211.73" y2="1.48"/><line class="cls-8" x1="108.41" y1="13.26" x2="96.63" y2="1.48"/><line class="cls-8" x1="134.91" y1="13.26" x2="123.13" y2="1.48"/><line class="cls-8" x1="161.17" y1="13.26" x2="149.39" y2="1.48"/><line class="cls-8" x1="187.68" y1="13.26" x2="175.9" y2="1.48"/><line class="cls-8" x1="214.18" y1="13.26" x2="202.4" y2="1.48"/><line class="cls-8" x1="232.34" y1="4.91" x2="228.66" y2="1.48"/><line class="cls-8" x1="264.49" y1="0.25" x2="95.16" y2="0.25"/><line class="cls-8" x1="93.93" y1="0.25" x2="93.93" y2="1.48"/><line class="cls-8" x1="93.93" y1="1.48" x2="93.93" y2="13.26"/><line class="cls-8" x1="93.93" y1="13.26" x2="93.93" y2="14.48"/><line class="cls-8" x1="95.16" y1="14.48" x2="264.49" y2="14.48"/><line class="cls-8" x1="95.16" y1="1.48" x2="232.34" y2="1.48"/><line class="cls-8" x1="232.34" y1="1.48" x2="264.49" y2="1.48"/><line class="cls-8" x1="93.93" y1="13.26" x2="232.34" y2="13.26"/><line class="cls-8" x1="232.34" y1="13.26" x2="232.34" y2="1.48"/><line class="cls-8" x1="324.37" y1="13.26" x2="320.44" y2="9.33"/><line class="cls-8" x1="350.88" y1="13.26" x2="339.1" y2="1.48"/><line class="cls-8" x1="377.13" y1="13.26" x2="365.35" y2="1.48"/><line class="cls-8" x1="394.07" y1="3.69" x2="391.86" y2="1.48"/><line class="cls-8" x1="329.03" y1="13.26" x2="320.44" y2="4.67"/><line class="cls-8" x1="355.54" y1="13.26" x2="343.76" y2="1.48"/><line class="cls-8" x1="381.8" y1="13.26" x2="370.02" y2="1.48"/><line class="cls-8" x1="346.21" y1="13.26" x2="334.43" y2="1.48"/><line class="cls-8" x1="372.47" y1="13.26" x2="360.69" y2="1.48"/><line class="cls-8" x1="394.07" y1="8.35" x2="387.2" y2="1.48"/><line class="cls-8" x1="337.87" y1="1.48" x2="320.44" y2="1.48"/><line class="cls-8" x1="264.49" y1="14.48" x2="404.62" y2="14.48"/><line class="cls-8" x1="320.44" y1="1.48" x2="320.44" y2="13.26"/><line class="cls-8" x1="320.44" y1="13.26" x2="405.6" y2="13.26"/><line class="cls-8" x1="320.44" y1="13.26" x2="232.34" y2="13.26"/><line class="cls-8" x1="403.64" y1="13.26" x2="394.07" y2="3.69"/><line class="cls-8" x1="417.38" y1="13.26" x2="417.38" y2="1.48"/><line class="cls-8" x1="417.38" y1="6.63" x2="417.38" y2="1.48"/><line class="cls-8" x1="408.3" y1="13.26" x2="396.52" y2="1.48"/><line class="cls-8" x1="417.38" y1="13.26" x2="417.38" y2="1.48"/><line class="cls-8" x1="417.38" y1="1.97" x2="417.38" y2="1.48"/><line class="cls-8" x1="398.98" y1="13.26" x2="394.07" y2="8.35"/><line class="cls-8" x1="417.38" y1="13.26" x2="413.7" y2="1.48"/><line class="cls-8" x1="417.38" y1="11.29" x2="417.38" y2="1.48"/><line class="cls-8" x1="417.38" y1="14.48" x2="417.38" y2="14.48"/><line class="cls-8" x1="417.38" y1="13.26" x2="417.38" y2="13.26"/><line class="cls-8" x1="417.38" y1="13.26" x2="417.38" y2="6.63"/><line class="cls-8" x1="417.38" y1="10.8" x2="417.38" y2="1.48"/><line class="cls-8" x1="417.38" y1="13.26" x2="417.38" y2="1.97"/><line class="cls-8" x1="417.38" y1="6.14" x2="417.38" y2="1.48"/><line class="cls-8" x1="417.38" y1="13.26" x2="417.38" y2="11.29"/><line class="cls-8" x1="417.38" y1="13.26" x2="417.38" y2="1.48"/><line class="cls-8" x1="417.38" y1="0.25" x2="417.38" y2="0.25"/><line class="cls-8" x1="417.38" y1="14.48" x2="417.38" y2="13.26"/><line class="cls-8" x1="417.38" y1="13.26" x2="417.38" y2="1.48"/><line class="cls-8" x1="417.38" y1="1.48" x2="417.38" y2="0.25"/><line class="cls-8" x1="417.38" y1="1.48" x2="417.38" y2="1.48"/><line class="cls-8" x1="314.55" y1="346.77" x2="311.61" y2="343.82"/><line class="cls-8" x1="367.32" y1="346.77" x2="363.64" y2="343.09"/><line class="cls-8" x1="316.03" y1="343.58" x2="314.55" y2="342.11"/><line class="cls-8" x1="368.3" y1="343.09" x2="367.32" y2="342.11"/><polyline class="cls-8" points="368.3 342.11 363.64 342.11 363.64 346.77"/><line class="cls-8" x1="316.03" y1="342.11" x2="311.61" y2="342.11"/><polyline class="cls-8" points="311.61 346.77 316.03 346.77 316.03 342.11"/><line class="cls-8" x1="316.03" y1="342.11" x2="358.48" y2="315.6"/><line class="cls-8" x1="375.42" y1="513.16" x2="368.3" y2="506.29"/><line class="cls-8" x1="375.42" y1="439.29" x2="368.3" y2="432.17"/><line class="cls-8" x1="375.42" y1="365.42" x2="368.3" y2="358.3"/><line class="cls-8" x1="375.42" y1="495.24" x2="368.3" y2="488.37"/><line class="cls-8" x1="375.42" y1="421.37" x2="368.3" y2="414.26"/><line class="cls-8" x1="375.42" y1="347.5" x2="371.24" y2="343.33"/><line class="cls-8" x1="367.56" y1="346.77" x2="367.56" y2="490.82"/><line class="cls-8" x1="367.56" y1="495.49" x2="367.56" y2="530.83"/><line class="cls-8" x1="376.4" y1="499.66" x2="376.4" y2="351.43"/><line class="cls-8" x1="368.3" y1="530.83" x2="368.3" y2="495.49"/><polyline class="cls-8" points="368.3 490.82 368.3 346.77 363.64 346.77"/><line class="cls-8" x1="368.3" y1="343.33" x2="368.3" y2="346.77"/><line class="cls-8" x1="368.3" y1="495.49" x2="368.3" y2="490.82"/><line class="cls-8" x1="375.42" y1="504.32" x2="375.42" y2="499.66"/><line class="cls-8" x1="375.42" y1="499.66" x2="375.42" y2="350.2"/><line class="cls-8" x1="378.36" y1="350.2" x2="375.42" y2="347.5"/><line class="cls-8" x1="452.23" y1="350.2" x2="451.98" y2="350.2"/><polyline class="cls-8" points="496.89 342.11 451.98 342.11 451.98 343.33"/><line class="cls-8" x1="451.98" y1="343.33" x2="451.98" y2="350.2"/><polyline class="cls-8" points="451.98 350.2 451.98 351.43 496.89 351.43"/><line class="cls-8" x1="410.26" y1="342.11" x2="368.3" y2="342.11"/><polyline class="cls-8" points="376.4 351.43 410.26 351.43 410.26 350.2"/><line class="cls-8" x1="410.26" y1="350.2" x2="410.26" y2="343.33"/><line class="cls-8" x1="410.26" y1="343.33" x2="410.26" y2="342.11"/><line class="cls-8" x1="368.3" y1="343.33" x2="368.3" y2="342.11"/><line class="cls-8" x1="368.3" y1="343.33" x2="410.26" y2="343.33"/><line class="cls-8" x1="451.98" y1="343.33" x2="496.89" y2="343.33"/><line class="cls-8" x1="375.42" y1="350.2" x2="410.26" y2="350.2"/><line class="cls-8" x1="451.98" y1="350.2" x2="496.89" y2="350.2"/><line class="cls-8" x1="410.26" y1="342.11" x2="447.32" y2="324.44"/><line class="cls-8" x1="347.19" y1="511.44" x2="342.53" y2="506.78"/><line class="cls-8" x1="344.99" y1="530.83" x2="342.53" y2="528.37"/><line class="cls-8" x1="347.19" y1="506.78" x2="342.53" y2="502.11"/><line class="cls-8" x1="347.19" y1="516.1" x2="342.53" y2="511.44"/><line class="cls-8" x1="347.19" y1="530.83" x2="347.19" y2="495.49"/><line class="cls-8" x1="342.53" y1="490.82" x2="342.53" y2="530.83"/><line class="cls-8" x1="357.75" y1="495.49" x2="353.08" y2="490.82"/><line class="cls-8" x1="362.41" y1="495.49" x2="357.75" y2="490.82"/><line class="cls-8" x1="353.08" y1="495.49" x2="348.42" y2="490.82"/><line class="cls-8" x1="368.3" y1="490.82" x2="342.53" y2="490.82"/><line class="cls-8" x1="347.19" y1="495.49" x2="368.3" y2="495.49"/><line class="cls-8" x1="392.84" y1="504.32" x2="388.18" y2="499.66"/><line class="cls-8" x1="419.34" y1="504.32" x2="414.68" y2="499.66"/><line class="cls-8" x1="445.85" y1="504.32" x2="441.19" y2="499.66"/><line class="cls-8" x1="472.11" y1="504.32" x2="467.44" y2="499.66"/><line class="cls-8" x1="496.89" y1="502.6" x2="493.95" y2="499.66"/><line class="cls-8" x1="397.75" y1="504.32" x2="392.84" y2="499.66"/><line class="cls-8" x1="424.01" y1="504.32" x2="419.34" y2="499.66"/><line class="cls-8" x1="450.51" y1="504.32" x2="445.85" y2="499.66"/><line class="cls-8" x1="476.77" y1="504.32" x2="472.11" y2="499.66"/><line class="cls-8" x1="388.18" y1="504.32" x2="383.51" y2="499.66"/><line class="cls-8" x1="414.68" y1="504.32" x2="410.02" y2="499.66"/><line class="cls-8" x1="441.19" y1="504.32" x2="436.52" y2="499.66"/><line class="cls-8" x1="467.44" y1="504.32" x2="462.78" y2="499.66"/><line class="cls-8" x1="493.95" y1="504.32" x2="489.29" y2="499.66"/><polyline class="cls-8" points="496.89 504.32 496.89 499.66 375.42 499.66"/><line class="cls-8" x1="381.31" y1="388.73" x2="381.31" y2="399.78"/><path class="cls-8" d="M409.22,388.7a3.07,3.07,0,0,0,3,2.49" transform="translate(-28.35 -0.01)"/><line class="cls-8" x1="384.01" y1="388.73" x2="384.01" y2="387.75"/><polyline class="cls-8" points="384 387.75 380.57 387.75 380.57 388.73 384 388.73"/><path class="cls-8" d="M405.24,403.1a1.6,1.6,0,0,0,1.6,1.59" transform="translate(-28.35 -0.01)"/><path class="cls-8" d="M409.05,383.83a1.6,1.6,0,0,0,0-3.19" transform="translate(-28.35 -0.01)"/><path class="cls-8" d="M406.84,371.56a1.6,1.6,0,0,0-1.6,1.6" transform="translate(-28.35 -0.01)"/><line class="cls-8" x1="377.13" y1="373.27" x2="377.13" y2="403.21"/><path class="cls-8" d="M409.05,380.64a1.6,1.6,0,1,0,0,3.19" transform="translate(-28.35 -0.01)"/><path class="cls-8" d="M409.05,395.61a1.6,1.6,0,0,0,0-3.19" transform="translate(-28.35 -0.01)"/><path class="cls-8" d="M409.05,392.42a1.6,1.6,0,1,0,0,3.19" transform="translate(-28.35 -0.01)"/><path class="cls-8" d="M412.24,385.06a3.07,3.07,0,0,0-3,2.49" transform="translate(-28.35 -0.01)"/><path class="cls-8" d="M412.24,391.19a3.07,3.07,0,0,0,0-6.13" transform="translate(-28.35 -0.01)"/><path class="cls-8" d="M409.41,399.66a3.08,3.08,0,0,0,3.07,3.07" transform="translate(-28.35 -0.01)"/><line class="cls-8" x1="381.31" y1="376.46" x2="381.31" y2="387.75"/><path class="cls-8" d="M412.48,373.28a3.07,3.07,0,0,0-3.07,3.07" transform="translate(-28.35 -0.01)"/><line class="cls-8" x1="384.74" y1="373.52" x2="384.25" y2="373.52"/><path class="cls-8" d="M424.63,385.18A11.66,11.66,0,0,0,413,373.52" transform="translate(-28.35 -0.01)"/><line class="cls-8" x1="396.52" y1="390.94" x2="396.52" y2="385.3"/><line class="cls-8" x1="384.25" y1="402.72" x2="384.74" y2="402.72"/><path class="cls-8" d="M411.74,404.45a14.61,14.61,0,0,0,14.61-14.61" transform="translate(-28.35 -0.01)"/><line class="cls-8" x1="378.61" y1="404.69" x2="383.51" y2="404.69"/><path class="cls-8" d="M413,402.48a11.66,11.66,0,0,0,11.66-11.66" transform="translate(-28.35 -0.01)"/><line class="cls-8" x1="398.24" y1="389.96" x2="398.24" y2="386.28"/><path class="cls-8" d="M426.35,386.16a14.61,14.61,0,0,0-14.61-14.6" transform="translate(-28.35 -0.01)"/><line class="cls-8" x1="383.51" y1="371.8" x2="378.61" y2="371.8"/><polyline class="cls-8" points="417.38 438.8 420.33 436.59 421.8 435.12 422.54 433.89 423.27 431.93 423.27 430.45 422.54 428.25 421.8 427.02 420.33 425.55 417.38 423.34"/><polyline class="cls-8" points="397.99 423.34 397.26 425.3 396.52 429.47 396.52 432.66 397.26 436.83 397.99 438.8"/><polyline class="cls-8" points="417.38 423.34 414.44 422.11 411.49 420.88 408.3 420.15 405.36 419.9 403.88 419.9 402.41 420.39 400.94 420.64 399.47 421.62 397.99 423.34"/><polyline class="cls-8" points="397.99 438.8 399.47 440.76 400.94 441.5 402.41 441.99 403.88 442.23 405.36 442.23 408.3 441.99 411.49 441.25 414.44 440.02 417.38 438.8"/><line class="cls-8" x1="393.33" y1="423.83" x2="397.99" y2="423.34"/><line class="cls-8" x1="393.33" y1="438.31" x2="397.99" y2="438.8"/><path class="cls-8" d="M421.68,421.75a5.53,5.53,0,0,0-5.52-5.53" transform="translate(-28.35 -0.01)"/><line class="cls-8" x1="376.4" y1="416.22" x2="387.93" y2="416.22"/><line class="cls-8" x1="387.93" y1="445.91" x2="376.4" y2="445.91"/><path class="cls-8" d="M416.16,445.92a5.52,5.52,0,0,0,5.52-5.52" transform="translate(-28.35 -0.01)"/><line class="cls-8" x1="393.33" y1="421.86" x2="393.33" y2="440.52"/><polyline class="cls-8" points="95.16 530.83 95.16 486.65 93.93 486.65"/><line class="cls-8" x1="95.16" y1="398.55" x2="95.16" y2="365.67"/><line class="cls-8" x1="93.93" y1="365.67" x2="93.93" y2="365.67"/><polyline class="cls-8" points="93.93 365.67 93.93 398.55 95.16 398.55"/><polyline class="cls-8" points="95.16 361 95.16 317.56 93.93 317.56"/><line class="cls-8" x1="93.93" y1="327.87" x2="93.93" y2="361"/><line class="cls-8" x1="95.16" y1="229.46" x2="95.16" y2="186.27"/><line class="cls-8" x1="93.93" y1="186.27" x2="93.93" y2="219.16"/><line class="cls-8" x1="93.93" y1="229.46" x2="95.16" y2="229.46"/><line class="cls-8" x1="421.06" y1="162.71" x2="409.28" y2="150.93"/><line class="cls-8" x1="498.12" y1="160.5" x2="489.78" y2="152.16"/><line class="cls-8" x1="425.73" y1="162.71" x2="413.95" y2="150.93"/><line class="cls-8" x1="498.12" y1="155.84" x2="493.21" y2="150.93"/><line class="cls-8" x1="416.4" y1="162.71" x2="405.6" y2="152.16"/><line class="cls-8" x1="495.42" y1="162.71" x2="489.78" y2="157.07"/><polyline class="cls-8" points="409.28 163.94 427.93 163.94 427.93 162.71"/><line class="cls-8" x1="427.93" y1="162.71" x2="427.93" y2="150.93"/><polyline class="cls-8" points="427.93 150.93 427.93 149.71 418.61 149.71"/><line class="cls-8" x1="489.78" y1="163.94" x2="496.89" y2="163.94"/><polyline class="cls-8" points="498.12 149.71 489.78 149.71 489.78 150.93"/><line class="cls-8" x1="489.78" y1="150.93" x2="489.78" y2="162.71"/><line class="cls-8" x1="489.78" y1="162.71" x2="489.78" y2="163.94"/><line class="cls-8" x1="498.12" y1="162.71" x2="489.78" y2="162.71"/><line class="cls-8" x1="427.93" y1="162.71" x2="409.28" y2="162.71"/><line class="cls-8" x1="496.89" y1="150.93" x2="496.89" y2="149.7"/><line class="cls-8" x1="498.12" y1="150.93" x2="489.78" y2="150.93"/><line class="cls-8" x1="427.93" y1="150.93" x2="417.38" y2="150.93"/><line class="cls-8" x1="427.93" y1="149.7" x2="481.19" y2="119.03"/><line class="cls-8" x1="409.28" y1="150.93" x2="405.6" y2="147.5"/><line class="cls-8" x1="417.38" y1="132.77" x2="405.6" y2="120.99"/><line class="cls-8" x1="417.38" y1="106.27" x2="405.6" y2="94.49"/><line class="cls-8" x1="417.38" y1="80.01" x2="405.6" y2="68.23"/><line class="cls-8" x1="417.38" y1="53.5" x2="405.6" y2="41.72"/><line class="cls-8" x1="417.38" y1="27.25" x2="405.6" y2="15.47"/><line class="cls-8" x1="413.95" y1="150.93" x2="405.6" y2="142.83"/><line class="cls-8" x1="417.38" y1="128.11" x2="405.6" y2="116.33"/><line class="cls-8" x1="417.38" y1="101.6" x2="405.6" y2="89.82"/><line class="cls-8" x1="417.38" y1="75.35" x2="405.6" y2="63.57"/><line class="cls-8" x1="417.38" y1="48.84" x2="405.6" y2="37.06"/><line class="cls-8" x1="417.38" y1="22.58" x2="408.3" y2="13.26"/><line class="cls-8" x1="417.38" y1="137.43" x2="405.6" y2="125.65"/><line class="cls-8" x1="417.38" y1="110.93" x2="405.6" y2="99.15"/><line class="cls-8" x1="417.38" y1="84.67" x2="405.6" y2="72.89"/><line class="cls-8" x1="417.38" y1="58.17" x2="405.6" y2="46.39"/><line class="cls-8" x1="417.38" y1="31.91" x2="405.6" y2="20.13"/><line class="cls-8" x1="418.61" y1="149.7" x2="417.38" y2="14.48"/><line class="cls-8" x1="404.62" y1="14.48" x2="404.62" y2="162.71"/><line class="cls-8" x1="417.38" y1="13.26" x2="417.38" y2="150.93"/><line class="cls-8" x1="405.6" y1="13.26" x2="405.6" y2="162.71"/><line class="cls-8" x1="409.28" y1="177.44" x2="404.62" y2="172.53"/><line class="cls-8" x1="409.28" y1="172.77" x2="404.62" y2="167.86"/><line class="cls-8" x1="409.28" y1="182.1" x2="404.62" y2="177.44"/><line class="cls-8" x1="409.28" y1="186.27" x2="409.28" y2="162.71"/><polyline class="cls-8" points="404.62 181.61 404.62 162.71 405.6 162.71"/><polygon points="507.94 199.77 507.94 200.75 507.94 199.03 507.94 199.77"/><polygon class="cls-8" points="507.94 199.77 507.94 200.75 507.94 199.03 507.94 199.77"/><path d="M536.29,198.3v0Zm0,2.7v0Z" transform="translate(-28.35 -0.01)"/><path class="cls-8" d="M536.29,198.3v0Zm0,2.7v0Z" transform="translate(-28.35 -0.01)"/><path d="M536.29,198.55v0Zm0,2.94v0Z" transform="translate(-28.35 -0.01)"/><path class="cls-8" d="M536.29,198.55v0Zm0,2.94v0Z" transform="translate(-28.35 -0.01)"/><path d="M536.29,198.79v0Zm0,0h0v0Z" transform="translate(-28.35 -0.01)"/><path class="cls-8" d="M536.29,198.79v0Zm0,0h0v0Z" transform="translate(-28.35 -0.01)"/><path d="M536.29,199.77v0Zm0,2.21v0Z" transform="translate(-28.35 -0.01)"/><path class="cls-8" d="M536.29,199.77v0Zm0,2.21v0Z" transform="translate(-28.35 -0.01)"/><path d="M536.29,200.26v0Zm0,2.21v0Z" transform="translate(-28.35 -0.01)"/><path class="cls-8" d="M536.29,200.26v0Zm0,2.21v0Z" transform="translate(-28.35 -0.01)"/><path d="M536.29,200.76v0Zm0,2v0Z" transform="translate(-28.35 -0.01)"/><path class="cls-8" d="M536.29,200.76v0Zm0,2v0Z" transform="translate(-28.35 -0.01)"/><path d="M536.29,201.25v0Zm0,2v0Z" transform="translate(-28.35 -0.01)"/><path class="cls-8" d="M536.29,201.25v0Zm0,2v0Z" transform="translate(-28.35 -0.01)"/><path d="M536.29,201.49v0Zm0,2v0Z" transform="translate(-28.35 -0.01)"/><path class="cls-8" d="M536.29,201.49v0Zm0,2v0Z" transform="translate(-28.35 -0.01)"/><path d="M536.29,201.74v0Zm0,1.71v0Z" transform="translate(-28.35 -0.01)"/><path class="cls-8" d="M536.29,201.74v0Zm0,1.71v0Z" transform="translate(-28.35 -0.01)"/><path d="M536.29,202v0Zm0,1.72v0Z" transform="translate(-28.35 -0.01)"/><path class="cls-8" d="M536.29,202v0Zm0,1.72v0Z" transform="translate(-28.35 -0.01)"/><path d="M536.29,202.23v0Zm0,1.72v0Z" transform="translate(-28.35 -0.01)"/><path class="cls-8" d="M536.29,202.23v0Zm0,1.72v0Z" transform="translate(-28.35 -0.01)"/><path d="M536.29,202.47v0Zm0,1.48v0Z" transform="translate(-28.35 -0.01)"/><path class="cls-8" d="M536.29,202.47v0Zm0,1.48v0Z" transform="translate(-28.35 -0.01)"/><path d="M536.29,202.47v0Zm0,1.72v0Z" transform="translate(-28.35 -0.01)"/><path class="cls-8" d="M536.29,202.47v0Zm0,1.72v0Z" transform="translate(-28.35 -0.01)"/><path d="M536.29,202.47v0Zm0,1.48v0Z" transform="translate(-28.35 -0.01)"/><path class="cls-8" d="M536.29,202.47v0Zm0,1.48v0Z" transform="translate(-28.35 -0.01)"/><path d="M536.29,202.47v0Zm0,1.23v0Z" transform="translate(-28.35 -0.01)"/><path class="cls-8" d="M536.29,202.47v0Zm0,1.23v0Z" transform="translate(-28.35 -0.01)"/><path d="M536.29,202.23v0Zm0,1.22v0Z" transform="translate(-28.35 -0.01)"/><path class="cls-8" d="M536.29,202.23v0Zm0,1.22v0Z" transform="translate(-28.35 -0.01)"/><path d="M536.29,202v0Zm0,1.23v0Zm0-1.23v0Zm0,0h0v0Z" transform="translate(-28.35 -0.01)"/><path class="cls-8" d="M536.29,202v0Zm0,1.23v0Zm0-1.23v0Zm0,0h0v0Z" transform="translate(-28.35 -0.01)"/><path d="M536.29,201.25v0Zm0,1.22v0Z" transform="translate(-28.35 -0.01)"/><path class="cls-8" d="M536.29,201.25v0Zm0,1.22v0Z" transform="translate(-28.35 -0.01)"/><path d="M536.29,201.25v0Zm0,.73v0Z" transform="translate(-28.35 -0.01)"/><path class="cls-8" d="M536.29,201.25v0Zm0,.73v0Z" transform="translate(-28.35 -0.01)"/><path d="M536.29,200.76v0Zm0,.73v0Z" transform="translate(-28.35 -0.01)"/><path class="cls-8" d="M536.29,200.76v0Zm0,.73v0Z" transform="translate(-28.35 -0.01)"/><path d="M536.29,200.26v0Zm0,0h0v0Z" transform="translate(-28.35 -0.01)"/><path class="cls-8" d="M536.29,200.26v0Zm0,0h0v0Z" transform="translate(-28.35 -0.01)"/><polygon points="507.94 201.49 507.94 200.75 507.94 200.26 507.94 201.49"/><polygon class="cls-8" points="507.94 201.49 507.94 200.75 507.94 200.26 507.94 201.49"/><path class="cls-8" d="M536.29,195.36c-1.76,0,.65,1.07,0,2.7" transform="translate(-28.35 -0.01)"/><path class="cls-8" d="M536.29,198.28c0,.16,0,.32,0,.48" transform="translate(-28.35 -0.01)"/><path class="cls-8" d="M536.29,199.35a4,4,0,0,0,0,.49" transform="translate(-28.35 -0.01)"/><path class="cls-8" d="M536.29,200.45c0,.1,0,.21,0,.31" transform="translate(-28.35 -0.01)"/><path class="cls-8" d="M536.29,201.49c.05.1-.06.21,0,.31" transform="translate(-28.35 -0.01)"/><path class="cls-8" d="M536.29,202.42c.08.09-.09.18,0,.27" transform="translate(-28.35 -0.01)"/><path class="cls-8" d="M536.29,203.18c.07,0-.07.09,0,.13" transform="translate(-28.35 -0.01)"/><path class="cls-8" d="M536.29,203.71c.09,0-.09.06,0,.09" transform="translate(-28.35 -0.01)"/><path class="cls-8" d="M536.29,204c.07,0-.07,0,0,0" transform="translate(-28.35 -0.01)"/><path class="cls-8" d="M536.29,203.8c.11,0-.11-.07,0-.1" transform="translate(-28.35 -0.01)"/><path class="cls-8" d="M536.29,203.37c.11-.06-.1-.13,0-.2" transform="translate(-28.35 -0.01)"/><path class="cls-8" d="M536.29,202.69c.08-.09-.08-.17,0-.26" transform="translate(-28.35 -0.01)"/><path class="cls-8" d="M536.29,201.8c.06-.1,0-.2,0-.3" transform="translate(-28.35 -0.01)"/><path class="cls-8" d="M536.29,200.94c.05-.16,0-.32,0-.48" transform="translate(-28.35 -0.01)"/><polygon points="352.59 523.71 352.84 523.96 352.84 522.73 352.59 523.71"/><polygon class="cls-8" points="352.59 523.71 352.84 523.96 352.84 522.73 352.59 523.71"/><path d="M381.19,522v0Zm0,2.7v0Z" transform="translate(-28.35 -0.01)"/><path class="cls-8" d="M381.19,522v0Zm0,2.7v0Z" transform="translate(-28.35 -0.01)"/><path d="M381.44,521.75l-.25,3V522Zm0,3.19v-3.19l-.25,3Z" transform="translate(-28.35 -0.01)"/><path class="cls-8" d="M381.44,521.75l-.25,3V522Zm0,3.19v-3.19l-.25,3Z" transform="translate(-28.35 -0.01)"/><path d="M381.44,522.73v0Zm0,2.46v0Z" transform="translate(-28.35 -0.01)"/><path class="cls-8" d="M381.44,522.73v0Zm0,2.46v0Z" transform="translate(-28.35 -0.01)"/><path d="M381.68,523.47l-.24,1.72v-2.46Zm0,2.21v-2.21l-.24,1.72Z" transform="translate(-28.35 -0.01)"/><path class="cls-8" d="M381.68,523.47l-.24,1.72v-2.46Zm0,2.21v-2.21l-.24,1.72Z" transform="translate(-28.35 -0.01)"/><path d="M381.93,523.71l-.25,2v-2.21Zm0,2.21v-2.21l-.25,2Z" transform="translate(-28.35 -0.01)"/><path class="cls-8" d="M381.93,523.71l-.25,2v-2.21Zm0,2.21v-2.21l-.25,2Z" transform="translate(-28.35 -0.01)"/><path d="M382.42,524.45l-.49,1.47v-2.21Zm0,2v-2l-.49,1.47Zm0,.25v0Z" transform="translate(-28.35 -0.01)"/><path class="cls-8" d="M382.42,524.45l-.49,1.47v-2.21Zm0,2v-2l-.49,1.47Zm0,.25v0Z" transform="translate(-28.35 -0.01)"/><path d="M382.42,526.41v0Z" transform="translate(-28.35 -0.01)"/><path class="cls-8" d="M382.42,526.41v0Z" transform="translate(-28.35 -0.01)"/><path d="M383.15,525.19l-.73,1.47v-2.21Zm0,2v-2l-.73,1.47Z" transform="translate(-28.35 -0.01)"/><path class="cls-8" d="M383.15,525.19l-.73,1.47v-2.21Zm0,2v-2l-.73,1.47Z" transform="translate(-28.35 -0.01)"/><path d="M383.4,525.43l-.25,1.72v-2Zm0,1.72v-1.72l-.25,1.72Z" transform="translate(-28.35 -0.01)"/><path class="cls-8" d="M383.4,525.43l-.25,1.72v-2Zm0,1.72v-1.72l-.25,1.72Z" transform="translate(-28.35 -0.01)"/><path d="M384.14,525.92l-.74,1.23v-1.72Zm0,1.72v-1.72l-.74,1.23Z" transform="translate(-28.35 -0.01)"/><path class="cls-8" d="M384.14,525.92l-.74,1.23v-1.72Zm0,1.72v-1.72l-.74,1.23Z" transform="translate(-28.35 -0.01)"/><path d="M384.38,525.92l-.24,1.72v-1.72Zm0,1.72v-1.72l-.24,1.72Z" transform="translate(-28.35 -0.01)"/><path class="cls-8" d="M384.38,525.92l-.24,1.72v-1.72Zm0,1.72v-1.72l-.24,1.72Z" transform="translate(-28.35 -0.01)"/><path d="M385.12,526.17l-.74,1.47v-1.72Zm0,1.47v-1.47l-.74,1.47Z" transform="translate(-28.35 -0.01)"/><path class="cls-8" d="M385.12,526.17l-.74,1.47v-1.72Zm0,1.47v-1.47l-.74,1.47Z" transform="translate(-28.35 -0.01)"/><path d="M385.61,526.17l-.49,1.47v-1.47Zm0,1.47v-1.47l-.49,1.47Z" transform="translate(-28.35 -0.01)"/><path class="cls-8" d="M385.61,526.17l-.49,1.47v-1.47Zm0,1.47v-1.47l-.49,1.47Z" transform="translate(-28.35 -0.01)"/><path d="M386.34,526.17l-.73,1.47v-1.47Zm0,1.47v-1.47l-.73,1.47Z" transform="translate(-28.35 -0.01)"/><path class="cls-8" d="M386.34,526.17l-.73,1.47v-1.47Zm0,1.47v-1.47l-.73,1.47Z" transform="translate(-28.35 -0.01)"/><path d="M386.59,526.17l-.25,1.47v-1.47Zm0,1.47v-1.47l-.25,1.47Z" transform="translate(-28.35 -0.01)"/><path class="cls-8" d="M386.59,526.17l-.25,1.47v-1.47Zm0,1.47v-1.47l-.25,1.47Z" transform="translate(-28.35 -0.01)"/><path d="M387.33,525.92l-.74,1.72v-1.47Zm0,1.23v-1.23l-.74,1.72Z" transform="translate(-28.35 -0.01)"/><path class="cls-8" d="M387.33,525.92l-.74,1.72v-1.47Zm0,1.23v-1.23l-.74,1.72Z" transform="translate(-28.35 -0.01)"/><path d="M387.57,525.68l-.24,1.47v-1.23Zm0,1.47v-1.47l-.24,1.47Z" transform="translate(-28.35 -0.01)"/><path class="cls-8" d="M387.57,525.68l-.24,1.47v-1.23Zm0,1.47v-1.47l-.24,1.47Z" transform="translate(-28.35 -0.01)"/><path d="M388.31,525.43l-.74,1.72v-1.47Zm0,1.23v-1.23l-.74,1.72Z" transform="translate(-28.35 -0.01)"/><path class="cls-8" d="M388.31,525.43l-.74,1.72v-1.47Zm0,1.23v-1.23l-.74,1.72Z" transform="translate(-28.35 -0.01)"/><path d="M388.55,525.19l-.24,1.47v-1.23Zm0,1.22v-1.22l-.24,1.47Z" transform="translate(-28.35 -0.01)"/><path class="cls-8" d="M388.55,525.19l-.24,1.47v-1.23Zm0,1.22v-1.22l-.24,1.47Z" transform="translate(-28.35 -0.01)"/><path d="M389,524.7l-.49,1.71v-1.22Zm0,1v-1l-.49,1.71Z" transform="translate(-28.35 -0.01)"/><path class="cls-8" d="M389,524.7l-.49,1.71v-1.22Zm0,1v-1l-.49,1.71Z" transform="translate(-28.35 -0.01)"/><path d="M389.29,524.7l-.25,1v-1Zm0,1v-1l-.25,1Z" transform="translate(-28.35 -0.01)"/><path class="cls-8" d="M389.29,524.7l-.25,1v-1Zm0,1v-1l-.25,1Z" transform="translate(-28.35 -0.01)"/><path d="M389.54,524l-.25,1.72v-1Zm0,.74V524l-.25,1.72Z" transform="translate(-28.35 -0.01)"/><path class="cls-8" d="M389.54,524l-.25,1.72v-1Zm0,.74V524l-.25,1.72Z" transform="translate(-28.35 -0.01)"/><path d="M389.78,524.21v0Zm-.24.49.24-.49V524Z" transform="translate(-28.35 -0.01)"/><path class="cls-8" d="M389.78,524.21v0Zm-.24.49.24-.49V524Z" transform="translate(-28.35 -0.01)"/><polygon points="361.18 524.69 361.18 523.96 361.43 523.96 361.18 524.69"/><polygon class="cls-8" points="361.18 524.69 361.18 523.96 361.43 523.96 361.18 524.69"/><path class="cls-8" d="M385.24,518.81a4.29,4.29,0,0,0-4,2.7" transform="translate(-28.35 -0.01)"/><path class="cls-8" d="M381.17,521.73a4.27,4.27,0,0,0-.13.48" transform="translate(-28.35 -0.01)"/><path class="cls-8" d="M381,522.8a2.79,2.79,0,0,0,0,.5" transform="translate(-28.35 -0.01)"/><path class="cls-8" d="M381,523.9a4.05,4.05,0,0,0,.12.47" transform="translate(-28.35 -0.01)"/><path class="cls-8" d="M381.38,525a2.93,2.93,0,0,0,.21.39" transform="translate(-28.35 -0.01)"/><path class="cls-8" d="M382,525.87a3.26,3.26,0,0,0,.31.33" transform="translate(-28.35 -0.01)"/><path class="cls-8" d="M382.79,526.63l.3.19" transform="translate(-28.35 -0.01)"/><path class="cls-8" d="M383.85,527.16c.09,0,.19.06.28.09" transform="translate(-28.35 -0.01)"/><path class="cls-8" d="M385.24,527.4h.2" transform="translate(-28.35 -0.01)"/><path class="cls-8" d="M386.35,527.25l.33-.1" transform="translate(-28.35 -0.01)"/><path class="cls-8" d="M387.32,526.86a4,4,0,0,0,.38-.24" transform="translate(-28.35 -0.01)"/><path class="cls-8" d="M388.19,526.22a3.51,3.51,0,0,0,.33-.34" transform="translate(-28.35 -0.01)"/><path class="cls-8" d="M388.88,525.38a3.23,3.23,0,0,0,.22-.41" transform="translate(-28.35 -0.01)"/><path class="cls-8" d="M389.34,524.39a4.21,4.21,0,0,0,.12-.48" transform="translate(-28.35 -0.01)"/><path class="cls-8" d="M389.5,523.62a4.27,4.27,0,0,0-4.26-4.81" transform="translate(-28.35 -0.01)"/><path class="cls-8" d="M381.28,521.45a4.29,4.29,0,1,0,8.23,2.1" transform="translate(-28.35 -0.01)"/><path class="cls-8" d="M381.19,521.61a4.54,4.54,0,0,0,8.53,2.18" transform="translate(-28.35 -0.01)"/><polyline class="cls-8" points="496.89 530.83 375.42 530.83 375.42 504.32 379.1 527.14 496.89 530.83 496.89 504.32 375.42 504.32"/><polyline class="cls-11" points="507.94 530.03 67.18 530.03 67.18 545.55 507.94 545.55"/><rect class="cls-11" x="66.94" y="486.65" width="28.22" height="48.35"/><rect class="cls-11" x="64.48" y="317.56" width="31.17" height="80.99"/><rect class="cls-11" x="64.48" y="148.48" width="30.68" height="80.99"/><polyline class="cls-11" points="65.71 0.25 65.71 60.38 93.93 60.38 93.93 0.25"/><rect class="cls-11" x="79.21" y="0.25" width="338.17" height="14.23"/><polygon class="cls-11" points="489.78 163.94 489.79 149.71 507.94 149.71 507.94 163.94 489.78 163.94"/><polygon class="cls-11" points="404.62 163.94 404.64 149.71 427.93 149.71 427.92 163.94 404.62 163.94"/><polygon class="cls-11" points="404.62 154 404.63 11.29 417.38 11.29 418.6 154 404.62 154"/><polygon class="cls-11" points="496.89 176.58 496.9 162.34 507.94 162.34 507.94 176.58 496.89 176.58"/><polyline class="cls-11" points="507.94 154.37 505.8 154.37 505.93 149.71 507.94 149.71"/><polyline class="cls-11" points="507.94 189.71 496.89 189.71 497.02 174.71 507.94 174.71"/><polyline class="cls-11" points="507.94 214.98 506.66 214.98 506.69 210.32 507.94 210.32"/><polygon class="cls-11" points="409.28 186.27 404.62 186.25 404.62 155.99 409.28 156.02 409.28 186.27"/><polygon class="cls-11" points="409.28 181.61 409.25 186.27 373.8 186.27 373.82 181.61 409.28 181.61"/><polygon class="cls-11" points="326.33 181.61 326.31 186.27 290.85 186.27 290.88 181.61 326.33 181.61"/><polygon class="cls-11" points="263.02 181.61 262.88 186.27 85.83 186.27 85.97 181.61 263.02 181.61"/><polygon class="cls-11" points="311.88 177.93 311.82 189.71 241.18 189.71 241.23 177.93 311.88 177.93"/><polygon class="cls-11" points="306.95 185.78 311.61 185.83 311.61 248.14 306.95 248.09 306.95 185.78"/><polygon class="cls-11" points="306.94 295.97 311.61 296.02 311.61 359.31 306.94 359.26 306.94 295.97"/><polygon class="cls-11" points="316.03 342.11 316.02 346.77 306.95 346.77 306.95 342.11 316.03 342.11"/><polygon class="cls-11" points="369.38 490.82 369.36 495.49 342.65 495.49 342.68 490.82 369.38 490.82"/><polygon class="cls-11" points="505.6 499.66 505.49 504.32 375.42 504.32 375.52 499.66 505.6 499.66"/><polygon class="cls-11" points="342.53 490.96 347.19 490.99 347.19 533.18 342.53 533.14 342.53 490.96"/><polygon class="cls-11" points="372.84 342.11 372.83 346.77 363.76 346.77 363.77 342.11 372.84 342.11"/><rect class="cls-11" x="367.32" y="346.2" width="9.07" height="189.15"/><polygon class="cls-11" points="410.26 342.11 410.23 351.43 367.32 351.43 367.35 342.11 410.26 342.11"/><polygon class="cls-11" points="499.08 342.11 499.05 351.43 451.98 351.43 452.02 342.11 499.08 342.11"/><polygon class="cls-11" points="243.9 361 243.78 365.67 92.75 365.67 92.87 361 243.9 361"/><polygon class="cls-11" points="311.61 357.2 311.55 369.1 241.18 369.1 241.23 357.2 311.61 357.2"/></svg>