<svg id="_866" data-name="866" xmlns="http://www.w3.org/2000/svg" viewBox="0 0 189.96 443.73"><defs><style>.cls-1{font-size:8px;}.cls-1,.cls-3{fill:#808184;}.cls-1,.cls-5{font-family:BigCityGrotesquePro-Regular, BigCity Grotesque Pro;}.cls-2,.cls-4,.cls-9{fill:none;}.cls-2{stroke:#808184;}.cls-2,.cls-4{stroke-linecap:round;stroke-linejoin:round;}.cls-2,.cls-9{stroke-width:0.75px;}.cls-4,.cls-9{stroke:#000;}.cls-4{stroke-width:0.5px;}.cls-5{font-size:14.62px;fill:#231f20;}.cls-6{letter-spacing:-0.02em;}.cls-7{letter-spacing:-0.04em;}.cls-8{letter-spacing:-0.06em;}.cls-9{stroke-miterlimit:10;}.cls-10{letter-spacing:-0.03em;}</style></defs><title>2floor_866flat</title><text class="cls-1" transform="translate(87.37 441.44)">двор</text><line class="cls-2" x1="81.95" y1="434.95" x2="81.95" y2="441.98"/><path class="cls-3" d="M79.07,437.87a.3.3,0,0,1,.41.09L82,441.84,84.42,438a.3.3,0,1,1,.51.32l-2.72,4.27a.3.3,0,0,1-.51,0L79,438.29a.3.3,0,0,1,.09-.41Z"/><polyline class="cls-4" points="88.6 383.39 53.12 383.39 53.12 384.55 88.6 384.55 88.6 383.39"/><polyline class="cls-4" points="126.17 383.39 90.69 383.39 90.69 384.55 126.17 384.55 126.17 383.39"/><polyline class="cls-4" points="90.69 382.23 88.6 382.23 88.6 385.7 90.69 385.7 90.69 382.23"/><polyline class="cls-4" points="130.57 382.23 126.17 382.23 126.17 385.7 130.57 385.7"/><line class="cls-4" x1="53.12" y1="382.23" x2="48.72" y2="382.23"/><polyline class="cls-4" points="48.72 385.7 53.12 385.7 53.12 382.23"/><line class="cls-4" x1="53.12" y1="382.23" x2="88.6" y2="382.23"/><line class="cls-4" x1="90.69" y1="382.23" x2="126.17" y2="382.23"/><line class="cls-4" x1="126.17" y1="385.71" x2="90.69" y2="385.71"/><line class="cls-4" x1="88.6" y1="385.71" x2="53.12" y2="385.71"/><polyline class="cls-4" points="130.57 367.62 130.57 366.23 130.57 365.3 48.72 365.3"/><polyline class="cls-4" points="48.72 367.62 48.72 366.23 48.72 365.3"/><polyline class="cls-4" points="130.57 388.49 130.57 390.34 48.72 390.34 48.72 388.49"/><line class="cls-4" x1="48.72" y1="388.02" x2="48.72" y2="378.98"/><line class="cls-4" x1="48.72" y1="378.98" x2="48.72" y2="367.62"/><line class="cls-4" x1="0.25" y1="367.62" x2="0.25" y2="378.98"/><line class="cls-4" x1="0.25" y1="378.98" x2="0.25" y2="388.02"/><line class="cls-4" x1="130.57" y1="367.62" x2="130.57" y2="378.98"/><line class="cls-4" x1="130.57" y1="378.98" x2="130.57" y2="388.02"/><line class="cls-4" x1="0.25" y1="388.02" x2="48.72" y2="388.02"/><line class="cls-4" x1="169.07" y1="367.62" x2="130.57" y2="367.62"/><line class="cls-4" x1="48.72" y1="367.62" x2="25.53" y2="367.62"/><line class="cls-4" x1="48.72" y1="378.98" x2="25.53" y2="378.98"/><line class="cls-4" x1="169.07" y1="378.98" x2="130.57" y2="378.98"/><line class="cls-4" x1="189.71" y1="297.35" x2="189.71" y2="296.89"/><line class="cls-4" x1="189.71" y1="388.02" x2="189.71" y2="297.35"/><line class="cls-4" x1="180.43" y1="287.85" x2="180.43" y2="337.94"/><polyline class="cls-4" points="89.76 127.84 117.13 127.84 117.13 144.3"/><line class="cls-4" x1="0.25" y1="388.49" x2="2.34" y2="388.49"/><polyline class="cls-4" points="46.86 388.49 48.72 388.49 48.72 388.02"/><line class="cls-4" x1="0.25" y1="388.02" x2="0.25" y2="388.49"/><path class="cls-4" d="M190.17,388"/><polyline class="cls-4" points="189.71 388.02 130.57 388.02 130.57 388.49"/><line class="cls-4" x1="12.54" y1="391.5" x2="12.54" y2="389.65"/><line class="cls-4" x1="11.61" y1="391.5" x2="11.61" y2="389.65"/><line class="cls-4" x1="38.05" y1="391.5" x2="38.05" y2="389.65"/><line class="cls-4" x1="38.98" y1="391.5" x2="38.98" y2="389.65"/><polyline class="cls-4" points="43.61 409.82 7.21 409.82 7.21 391.5 43.61 391.5 43.61 409.82"/><polyline class="cls-4" points="6.51 417.24 6.51 410.52 42.69 410.52 42.69 417.24 6.51 417.24"/><line class="cls-4" x1="6.51" y1="417.94" x2="6.51" y2="417.71"/><polyline class="cls-4" points="42.69 417.71 42.69 417.94 6.51 417.94"/><line class="cls-4" x1="6.51" y1="417.71" x2="6.51" y2="417.24"/><polyline class="cls-4" points="42.69 417.24 42.69 417.71 6.51 417.71"/><polyline class="cls-4" points="46.86 410.52 46.86 388.49 45.93 388.49 45.93 409.59 3.27 409.59 3.27 388.49 2.34 388.49 2.34 410.52 46.86 410.52"/><line class="cls-4" x1="2.34" y1="413.53" x2="6.51" y2="413.53"/><polyline class="cls-4" points="42.69 413.53 46.86 413.53 46.86 410.52"/><line class="cls-4" x1="45.93" y1="388.49" x2="3.26" y2="388.49"/><line class="cls-4" x1="2.34" y1="410.52" x2="2.34" y2="413.53"/><path class="cls-4" d="M160.26,27.54a1,1,0,0,0-2.09,0"/><path class="cls-4" d="M158.17,27.54a1,1,0,1,0,2.09,0"/><path class="cls-4" d="M164.43,19.43a5.68,5.68,0,0,0-5.68-5.68"/><path class="cls-4" d="M158.75,41.34a5.68,5.68,0,0,0,5.68-5.68"/><path class="cls-4" d="M99.85,13.75a5.68,5.68,0,0,0-5.68,5.68"/><path class="cls-4" d="M94.17,35.66a5.68,5.68,0,0,0,5.68,5.68"/><line class="cls-4" x1="93.94" y1="35.78" x2="93.94" y2="19.54"/><line class="cls-4" x1="99.73" y1="13.75" x2="158.63" y2="13.75"/><line class="cls-4" x1="164.43" y1="19.54" x2="164.43" y2="35.78"/><line class="cls-4" x1="158.63" y1="41.57" x2="99.73" y2="41.57"/><line class="cls-4" x1="90.46" y1="45.05" x2="90.46" y2="10.27"/><polyline class="cls-4" points="167.91 10.27 167.91 45.05 90.46 45.05"/><line class="cls-4" x1="93.47" y1="172.94" x2="109.47" y2="172.94"/><path class="cls-4" d="M103.79,156.25a1.51,1.51,0,1,0,1.51,1.51,1.51,1.51,0,0,0-1.51-1.51"/><path class="cls-4" d="M103.56,156.71a1,1,0,1,0,1,1,1,1,0,0,0-1-1"/><path class="cls-4" d="M114.69,156.71a1,1,0,1,0,1,1,1,1,0,0,0-1-1"/><path class="cls-4" d="M114.69,156.25a1.51,1.51,0,1,0,1.51,1.51,1.51,1.51,0,0,0-1.51-1.51"/><path class="cls-4" d="M109.36,153.46a.81.81,0,1,0,.81.81.81.81,0,0,0-.81-.81"/><path class="cls-4" d="M115.41,153.24a2.2,2.2,0,0,0-1.27.56"/><line class="cls-4" x1="110.63" y1="156.94" x2="113.88" y2="153.93"/><path class="cls-4" d="M110.74,157.07a2,2,0,0,0-.57,1.38"/><line class="cls-4" x1="109.94" y1="170.39" x2="109.94" y2="158.56"/><path class="cls-4" d="M110.17,170.28a1.74,1.74,0,0,0,1.74,1.74"/><line class="cls-4" x1="127.79" y1="172.01" x2="111.79" y2="172.01"/><path class="cls-4" d="M128,172a1.74,1.74,0,0,0,1.91-1.73"/><line class="cls-4" x1="129.65" y1="155.32" x2="129.65" y2="170.39"/><path class="cls-4" d="M129.65,155.21a1.74,1.74,0,0,0-1.74-1.75"/><line class="cls-4" x1="115.27" y1="153.46" x2="127.79" y2="153.46"/><path class="cls-4" d="M102.75,168.65a1.51,1.51,0,0,0-1.75-1.49"/><path class="cls-4" d="M95.09,170.28A1.74,1.74,0,0,0,96.83,172"/><line class="cls-4" x1="100.89" y1="172.01" x2="96.72" y2="172.01"/><path class="cls-4" d="M101,172a1.51,1.51,0,0,0,1.72-1.49"/><line class="cls-4" x1="102.75" y1="168.77" x2="102.75" y2="170.62"/><path class="cls-4" d="M93.39,172.92a1.74,1.74,0,0,0,1.47-1.72"/><polyline class="cls-4" points="94.86 169 94.86 170.16 94.86 171.32"/><path class="cls-4" d="M96.83,167.15a1.74,1.74,0,0,0-1.74,1.74"/><path class="cls-4" d="M108.08,171.2a2,2,0,0,0,1.42,1.89"/><line class="cls-4" x1="108.08" y1="169" x2="108.08" y2="171.32"/><path class="cls-4" d="M108.08,168.89a1.74,1.74,0,0,0-1.74-1.75"/><line class="cls-4" x1="96.72" y1="167.15" x2="106.23" y2="167.15"/><line class="cls-4" x1="89.99" y1="171.78" x2="93.94" y2="171.78"/><line class="cls-4" x1="89.99" y1="169.93" x2="93.94" y2="169.93"/><line class="cls-4" x1="89.99" y1="168.07" x2="93.94" y2="168.07"/><line class="cls-4" x1="89.99" y1="166.22" x2="93.94" y2="166.22"/><line class="cls-4" x1="89.99" y1="164.36" x2="93.94" y2="164.36"/><line class="cls-4" x1="89.99" y1="162.51" x2="93.94" y2="162.51"/><line class="cls-4" x1="89.99" y1="160.88" x2="93.94" y2="160.88"/><line class="cls-4" x1="89.99" y1="159.03" x2="93.94" y2="159.03"/><line class="cls-4" x1="89.99" y1="157.17" x2="93.94" y2="157.17"/><line class="cls-4" x1="89.99" y1="155.32" x2="93.94" y2="155.32"/><line class="cls-4" x1="89.99" y1="153.46" x2="93.94" y2="153.46"/><path class="cls-4" d="M96.8,153.48A1.51,1.51,0,0,0,95.09,155"/><line class="cls-4" x1="94.86" y1="164.36" x2="94.86" y2="155.09"/><path class="cls-4" d="M95.09,164.25A1.74,1.74,0,0,0,96.83,166"/><line class="cls-4" x1="106.23" y1="166.22" x2="96.72" y2="166.22"/><path class="cls-4" d="M106.31,166a1.74,1.74,0,0,0,1.77-1.74"/><line class="cls-4" x1="108.08" y1="158.33" x2="108.08" y2="164.36"/><path class="cls-4" d="M108.08,158.22a1.74,1.74,0,0,0-.56-1.28"/><line class="cls-4" x1="104.14" y1="153.93" x2="107.62" y2="156.94"/><path class="cls-4" d="M104.27,153.92a1.74,1.74,0,0,0-1.17-.46"/><line class="cls-4" x1="96.72" y1="153.46" x2="102.98" y2="153.46"/><path class="cls-4" d="M89.83,151.63a1,1,0,0,0-1.23,1"/><line class="cls-4" x1="88.37" y1="172.48" x2="88.37" y2="152.77"/><path class="cls-4" d="M88.37,172.36a1.28,1.28,0,0,0,1.28,1.27"/><line class="cls-4" x1="130.11" y1="173.87" x2="89.53" y2="173.87"/><path class="cls-4" d="M130.24,173.64a1.28,1.28,0,0,0,1.26-1.28"/><line class="cls-4" x1="131.5" y1="153" x2="131.5" y2="172.48"/><path class="cls-4" d="M131.5,152.77a1.51,1.51,0,0,0-1.5-1.4"/><line class="cls-4" x1="89.53" y1="151.61" x2="129.88" y2="151.61"/><path d="M9.53,237.76l-9.28-41H9.53Zm-9.28,0H9.53l-9.28-41Z"/><path class="cls-4" d="M9.53,237.76l-9.28-41H9.53Zm-9.28,0H9.53l-9.28-41Z"/><polyline class="cls-4" points="9.53 196.71 0.25 196.71 0.25 237.76 9.53 237.76 9.53 196.71"/><path d="M170.23,96.53h9.28l-9.28-41Z"/><path class="cls-4" d="M170.23,96.53h9.28l-9.28-41Z"/><line class="cls-4" x1="0.25" y1="367.62" x2="9.53" y2="367.62"/><line class="cls-4" x1="9.53" y1="367.62" x2="10.45" y2="367.62"/><line class="cls-4" x1="9.53" y1="367.62" x2="9.53" y2="237.76"/><line class="cls-4" x1="9.53" y1="196.71" x2="9.53" y2="126.91"/><line class="cls-4" x1="0.25" y1="367.62" x2="0.25" y2="237.76"/><line class="cls-4" x1="170.23" y1="96.53" x2="170.23" y2="145"/><line class="cls-4" x1="170.23" y1="150.56" x2="83.73" y2="150.56"/><line class="cls-4" x1="170.23" y1="145" x2="89.07" y2="145"/><line class="cls-4" x1="170.23" y1="9.34" x2="170.23" y2="55.49"/><polyline class="cls-4" points="9.53 126.91 38.74 126.91 38.74 123.43 9.53 123.43"/><line class="cls-4" x1="75.62" y1="126.91" x2="83.73" y2="126.91"/><polyline class="cls-4" points="83.73 123.43 75.62 123.43 75.62 126.91"/><line class="cls-4" x1="31.32" y1="9.34" x2="31.32" y2="0.3"/><line class="cls-4" x1="79.09" y1="0.3" x2="79.09" y2="9.34"/><line class="cls-4" x1="79.09" y1="9.34" x2="79.09" y2="10.27"/><line class="cls-4" x1="83.73" y1="9.34" x2="79.09" y2="9.34"/><line class="cls-4" x1="96.95" y1="0.3" x2="79.09" y2="0.3"/><line class="cls-4" x1="31.32" y1="9.34" x2="9.53" y2="9.34"/><line class="cls-4" x1="75.62" y1="126.91" x2="42.92" y2="147.55"/><line class="cls-4" x1="79.09" y1="10.27" x2="37.82" y2="34.15"/><line class="cls-4" x1="83.73" y1="55.95" x2="89.07" y2="55.95"/><line class="cls-4" x1="89.07" y1="88.42" x2="83.73" y2="88.42"/><line class="cls-4" x1="83.73" y1="150.56" x2="83.73" y2="126.91"/><line class="cls-4" x1="83.73" y1="55.95" x2="83.73" y2="9.34"/><line class="cls-4" x1="83.73" y1="123.43" x2="83.73" y2="88.42"/><line class="cls-4" x1="89.07" y1="55.95" x2="89.07" y2="9.34"/><line class="cls-4" x1="89.07" y1="145" x2="89.07" y2="88.42"/><line class="cls-4" x1="83.04" y1="55.95" x2="69.35" y2="84.71"/><line class="cls-4" x1="170.23" y1="9.34" x2="89.07" y2="9.34"/><line class="cls-4" x1="179.5" y1="0.3" x2="105.99" y2="0.3"/><polyline class="cls-4" points="148.89 112.53 147.27 110.22 146.11 109.06 145.18 108.36 143.56 107.9 142.4 107.9 140.78 108.36 139.85 109.06 138.69 110.22 137.07 112.53"/><polyline class="cls-4" points="136.84 127.61 138.46 128.07 141.71 128.77 144.02 128.77 147.27 128.07 148.89 127.61"/><polyline class="cls-4" points="137.07 112.53 135.91 114.85 134.98 117.17 134.52 119.49 134.28 121.81 134.28 122.97 134.52 124.13 134.98 125.29 135.44 126.45 136.84 127.61"/><polyline class="cls-4" points="148.89 127.61 150.29 126.45 150.98 125.29 151.21 124.13 151.44 122.97 151.68 121.81 151.44 119.49 150.75 117.17 150.05 114.85 148.89 112.53"/><line class="cls-4" x1="137.3" y1="131.09" x2="136.84" y2="127.61"/><line class="cls-4" x1="148.66" y1="131.09" x2="148.89" y2="127.61"/><path class="cls-4" d="M135.79,130.85a4.29,4.29,0,0,0-4.29,4.29"/><line class="cls-4" x1="131.5" y1="144.3" x2="131.5" y2="135.26"/><line class="cls-4" x1="154.46" y1="135.26" x2="154.46" y2="144.3"/><path class="cls-4" d="M154.69,135.14a4.29,4.29,0,0,0-4.29-4.29"/><line class="cls-4" x1="135.68" y1="131.09" x2="150.29" y2="131.09"/><line class="cls-4" x1="165.59" y1="66.39" x2="165.59" y2="58.04"/><path class="cls-4" d="M165.78,66.32a2.2,2.2,0,0,0-2.16-1.79"/><polyline class="cls-4" points="163.5 66.39 163.5 67.31 166.05 67.31 166.05 66.39 163.5 66.39"/><path class="cls-4" d="M168.84,55.14a1,1,0,0,0-1-1"/><path class="cls-4" d="M166.17,70.33a1,1,0,0,0,0,2.09"/><path class="cls-4" d="M167.79,79.37a1,1,0,0,0,1-1"/><line class="cls-4" x1="168.84" y1="78.45" x2="168.84" y2="55.26"/><path class="cls-4" d="M166.17,72.42a1,1,0,0,0,0-2.09"/><path class="cls-4" d="M166.17,61.05a1,1,0,0,0,0,2.09"/><path class="cls-4" d="M166.17,63.14a1,1,0,0,0,0-2.09"/><path class="cls-4" d="M163.62,68.94a2.2,2.2,0,0,0,2.16-1.79"/><path class="cls-4" d="M163.62,64.53a2.2,2.2,0,1,0,0,4.41"/><path class="cls-4" d="M165.59,57.92a2.2,2.2,0,0,0-2.2-2.2"/><line class="cls-4" x1="165.59" y1="75.89" x2="165.59" y2="67.31"/><path class="cls-4" d="M163.39,78a2.2,2.2,0,0,0,2.2-2.2"/><line class="cls-4" x1="162.81" y1="78.21" x2="163.27" y2="78.21"/><path class="cls-4" d="M153.76,69.05a9.16,9.16,0,0,0,9.16,9.16"/><line class="cls-4" x1="153.76" y1="64.76" x2="153.76" y2="69.17"/><line class="cls-4" x1="163.27" y1="55.72" x2="162.81" y2="55.72"/><path class="cls-4" d="M163.85,53.86a11.48,11.48,0,0,0-11.48,11.48"/><line class="cls-4" x1="167.68" y1="54.1" x2="163.74" y2="54.1"/><path class="cls-4" d="M162.92,55.49a9.16,9.16,0,0,0-9.16,9.16"/><line class="cls-4" x1="152.37" y1="65.46" x2="152.37" y2="68.24"/><path class="cls-4" d="M152.37,68.13a11.48,11.48,0,0,0,11.48,11.48"/><line class="cls-4" x1="163.74" y1="79.61" x2="167.68" y2="79.61"/><rect x="0.25" y="367.39" width="48.35" height="20.87"/><rect x="130.57" y="367.39" width="59.13" height="20.87"/><rect x="123.73" y="321.82" width="111.54" height="20.87" transform="translate(-152.75 511.76) rotate(-90)"/><rect x="83.75" y="0.01" width="5.31" height="56.06"/><rect x="83.75" y="88.65" width="5.31" height="61.92"/><rect x="4.89" y="123.43" width="33.86" height="3.48"/><rect x="75.68" y="123.43" width="10.72" height="3.48"/><rect x="83.86" y="144.89" width="89.7" height="5.68"/><rect x="0.25" y="0.01" width="9.28" height="377.81"/><rect x="170.23" y="0.01" width="9.62" height="290.85"/><rect x="78.69" width="100.81" height="9.34"/><rect x="0.25" width="31.07" height="9.34"/><text class="cls-5" transform="translate(36.16 73.11)">4<tspan class="cls-6" x="8.01" y="0">.</tspan><tspan x="11.08" y="0">0</tspan></text><text class="cls-5" transform="translate(114.67 89.34)">5<tspan class="cls-7" x="7.21" y="0">.</tspan><tspan x="9.96" y="0">1</tspan></text><text class="cls-5" transform="translate(81.07 350.46)">1<tspan class="cls-8" x="5.15" y="0">7</tspan><tspan x="10.88" y="0">.3</tspan></text><rect class="cls-9" x="64.9" y="245.44" width="53.89" height="19.74"/><rect class="cls-9" x="64.9" y="265.18" width="53.89" height="19.74"/><rect class="cls-9" x="64.9" y="284.93" width="53.89" height="19.74"/><text class="cls-5" transform="translate(71.6 259.49)">№866<tspan x="12.57" y="20.47">С</tspan><tspan class="cls-10" x="20.73" y="20.47">Т</tspan><tspan x="6.95" y="40.94">26.4</tspan></text></svg>