<svg id="_444" data-name="444" xmlns="http://www.w3.org/2000/svg" viewBox="0 0 591.26 246.7"><defs><style>.cls-1,.cls-2,.cls-6,.cls-7,.cls-8{fill:none;}.cls-1{stroke:#999;}.cls-1,.cls-6,.cls-7,.cls-8{stroke-linecap:round;stroke-linejoin:round;}.cls-3{isolation:isolate;font-size:12px;fill:#999;}.cls-3,.cls-5,.cls-9{font-family:PTSans-Regular, PT Sans;}.cls-4{letter-spacing:-0.01em;}.cls-5{font-size:20px;}.cls-6,.cls-7,.cls-8{stroke:#000;stroke-width:0.5px;}.cls-7{stroke-dasharray:2.95 2.95;}.cls-8{stroke-dasharray:2.96 2.96;}.cls-9{font-size:24px;}</style></defs><title>8floor_444flat</title><line class="cls-1" x1="2.02" y1="142.2" x2="10.82" y2="142.2"/><polyline class="cls-1" points="5.32 145.7 1.82 142.2 5.32 138.7"/><rect class="cls-2" x="1.82" y="101" width="14" height="31.8"/><text class="cls-3" transform="translate(10.2 132.94) rotate(-90)"><tspan class="cls-4">у</tspan><tspan x="5.42" y="0">лица</tspan></text><text class="cls-5" transform="translate(495.99 200.19)">3.64</text><text class="cls-5" transform="translate(490.42 137.97)">3.83</text><text class="cls-5" transform="translate(373.28 97.34)">5.16</text><text class="cls-5" transform="translate(337.5 200.19)">18.15</text><text class="cls-5" transform="translate(108.61 91.61)">5.36</text><polyline class="cls-6" points="462.14 34.87 462.14 145.66 550.62 145.66 550.62 34.87 462.14 34.87"/><line class="cls-6" x1="560.62" y1="0.25" x2="560.62" y2="139.51"/><polyline class="cls-6" points="145.54 18.71 86.68 18.71 53.6 18.71 144.38 225.3 165.16 225.3 165.16 18.71 145.54 18.71"/><polyline class="cls-6" points="351.35 10.64 183.62 10.64 183.62 227.99 216.32 227.99 274.8 227.99"/><polyline class="cls-6" points="274.8 227.99 327.88 227.99 378.28 227.99 457.91 227.99 457.91 134.51"/><polyline class="cls-6" points="550.62 149.9 462.14 149.9 462.14 227.99 502.53 227.99 552.93 227.99 581.01 227.99 581.01 149.9 550.62 149.9"/><polyline class="cls-6" points="457.91 134.51 457.91 10.64 351.35 10.64"/><path class="cls-6" d="M379.68,10.64" transform="translate(-28.33)"/><line class="cls-6" x1="591.01" y1="149.9" x2="591.01" y2="227.99"/><path d="M303.13,228h0Z" transform="translate(-28.33)"/><path class="cls-6" d="M303.13,228h0Z" transform="translate(-28.33)"/><path d="M356.22,238.38H303.13V228Zm0,0Z" transform="translate(-28.33)"/><path class="cls-6" d="M356.22,238.38H303.13V228Zm0,0Z" transform="translate(-28.33)"/><polygon points="274.8 227.99 327.88 227.99 327.88 238.38 274.8 227.99"/><polygon class="cls-6" points="274.8 227.99 327.88 227.99 327.88 238.38 274.8 227.99"/><polyline class="cls-6" points="274.8 238.38 327.88 238.38 327.88 227.99 274.8 227.99 274.8 238.38"/><polygon points="257.1 246.07 257.1 246.45 256.33 246.45 257.1 246.07"/><polygon class="cls-6" points="257.1 246.07 257.1 246.45 256.33 246.45 257.1 246.07"/><polygon points="264.41 238.38 264.41 246.45 257.1 246.07 264.41 238.38"/><polygon class="cls-6" points="264.41 238.38 264.41 246.45 257.1 246.07 264.41 238.38"/><polygon points="274.8 227.99 274.8 238.38 264.41 238.38 274.8 227.99"/><polygon class="cls-6" points="274.8 227.99 274.8 238.38 264.41 238.38 274.8 227.99"/><path d="M193.49,139.51l.77,88.48h-.77Zm.77,0h-.77l.77,88.48Z" transform="translate(-28.33)"/><path class="cls-6" d="M193.49,139.51l.77,88.48h-.77Zm.77,0h-.77l.77,88.48Z" transform="translate(-28.33)"/><polygon points="173.24 10.64 173.24 17.95 165.93 17.95 173.24 10.64"/><polygon class="cls-6" points="173.24 10.64 173.24 17.95 165.93 17.95 173.24 10.64"/><path d="M194.26,139.51,201.57,228h-7.31Zm7.31,0h-7.31L201.57,228Z" transform="translate(-28.33)"/><path class="cls-6" d="M194.26,139.51,201.57,228h-7.31Zm7.31,0h-7.31L201.57,228Z" transform="translate(-28.33)"/><path d="M201.57,139.51,212,228H201.57Zm10.39,0H201.57L212,228Z" transform="translate(-28.33)"/><path class="cls-6" d="M201.57,139.51,212,228H201.57Zm10.39,0H201.57L212,228Z" transform="translate(-28.33)"/><polygon points="183.62 0.25 183.62 10.64 173.24 10.64 183.62 0.25"/><polygon class="cls-6" points="183.62 0.25 183.62 10.64 173.24 10.64 183.62 0.25"/><path d="M201.57,10.64,212,18H201.57Zm10.39,0H201.57L212,18Z" transform="translate(-28.33)"/><path class="cls-6" d="M201.57,10.64,212,18H201.57Zm10.39,0H201.57L212,18Z" transform="translate(-28.33)"/><path d="M193.49,18l8.08.77h-8.08Zm8.08,0h-8.08l8.08.77Z" transform="translate(-28.33)"/><path class="cls-6" d="M193.49,18l8.08.77h-8.08Zm8.08,0h-8.08l8.08.77Z" transform="translate(-28.33)"/><path d="M193.49,139.12l8.08.39h-8.08Zm8.08,0h-8.08l8.08.39Z" transform="translate(-28.33)"/><path class="cls-6" d="M193.49,139.12l8.08.39h-8.08Zm8.08,0h-8.08l8.08.39Z" transform="translate(-28.33)"/><line class="cls-6" x1="165.93" y1="139.51" x2="165.93" y2="227.99"/><line class="cls-6" x1="173.24" y1="139.51" x2="173.24" y2="227.99"/><line class="cls-6" x1="173.24" y1="10.64" x2="173.24" y2="17.95"/><polyline class="cls-6" points="165.93 139.51 173.24 139.51 173.24 139.12 165.16 139.12 165.16 139.51"/><polyline class="cls-6" points="165.93 17.95 173.24 17.95 173.24 18.71 165.16 18.71 165.16 17.95"/><polyline class="cls-6" points="173.24 139.51 175.93 139.51 183.62 139.51"/><polyline class="cls-6" points="173.24 17.95 175.93 17.95 183.62 17.95"/><polyline class="cls-6" points="165.16 139.51 165.16 227.99 183.62 227.99 183.62 139.51"/><line class="cls-6" x1="183.62" y1="17.95" x2="183.62" y2="0.25"/><line class="cls-6" x1="165.16" y1="18.72" x2="165.16" y2="139.12"/><line class="cls-6" x1="183.62" y1="17.95" x2="183.62" y2="139.51"/><path d="M201.57,18l2.69,4.61h-2.69Zm2.69,0h-2.69l2.69,4.61Z" transform="translate(-28.33)"/><path class="cls-6" d="M201.57,18l2.69,4.61h-2.69Zm2.69,0h-2.69l2.69,4.61Z" transform="translate(-28.33)"/><path d="M201.57,96.42l2.69,2.7h-2.69Zm2.69,0h-2.69l2.69,2.7Z" transform="translate(-28.33)"/><path class="cls-6" d="M201.57,96.42l2.69,2.7h-2.69Zm2.69,0h-2.69l2.69,2.7Z" transform="translate(-28.33)"/><path d="M201.57,99.12l2.69,2.3h-2.69Zm2.69,0h-2.69l2.69,2.3Z" transform="translate(-28.33)"/><path class="cls-6" d="M201.57,99.12l2.69,2.3h-2.69Zm2.69,0h-2.69l2.69,2.3Z" transform="translate(-28.33)"/><path d="M201.57,135.28l2.69,4.23h-2.69Zm2.69,0h-2.69l2.69,4.23Z" transform="translate(-28.33)"/><path class="cls-6" d="M201.57,135.28l2.69,4.23h-2.69Zm2.69,0h-2.69l2.69,4.23Z" transform="translate(-28.33)"/><polyline class="cls-6" points="173.24 17.95 173.24 22.56 175.93 22.56 175.93 17.95"/><polyline class="cls-6" points="175.93 99.12 175.93 96.42 173.24 96.42 173.24 99.12"/><line class="cls-6" x1="173.24" y1="22.56" x2="173.24" y2="96.42"/><line class="cls-6" x1="175.93" y1="96.42" x2="175.93" y2="22.56"/><polyline class="cls-6" points="173.24 99.12 173.24 101.42 175.93 101.42 175.93 99.12"/><polyline class="cls-6" points="175.93 139.51 175.93 135.28 173.24 135.28 173.24 139.51"/><line class="cls-6" x1="173.24" y1="101.42" x2="173.24" y2="135.28"/><line class="cls-6" x1="175.93" y1="135.28" x2="175.93" y2="101.42"/><line class="cls-6" x1="173.24" y1="17.95" x2="175.93" y2="17.95"/><line class="cls-6" x1="173.24" y1="139.51" x2="175.93" y2="139.51"/><polygon points="86.68 17.95 87.45 17.95 86.68 18.71 86.68 17.95"/><polygon class="cls-6" points="86.68 17.95 87.45 17.95 86.68 18.71 86.68 17.95"/><polygon points="87.45 10.64 94.76 10.64 87.45 17.95 87.45 10.64"/><polygon class="cls-6" points="87.45 10.64 94.76 10.64 87.45 17.95 87.45 10.64"/><polygon points="94.76 0.25 105.14 0.25 94.76 10.64 94.76 0.25"/><polygon class="cls-6" points="94.76 0.25 105.14 0.25 94.76 10.64 94.76 0.25"/><polyline class="cls-6" points="105.14 0.25 94.76 0.25 94.76 10.64"/><path d="M530.87,228l50.39,10.39H530.87Zm50.39,0H530.87l50.39,10.39Z" transform="translate(-28.33)"/><path class="cls-6" d="M530.87,228l50.39,10.39H530.87Zm50.39,0H530.87l50.39,10.39Z" transform="translate(-28.33)"/><polyline class="cls-6" points="502.53 238.38 552.93 238.38 552.93 227.99 502.53 227.99 502.53 238.38"/><path d="M244.66,246.07l40,.38h-40Zm40.77,0H244.66l40,.38Z" transform="translate(-28.33)"/><path class="cls-6" d="M244.66,246.07l40,.38h-40Zm40.77,0H244.66l40,.38Z" transform="translate(-28.33)"/><path d="M244.66,238.38l40.77,7.69H244.66Zm48.08,0H244.66l40.77,7.69Z" transform="translate(-28.33)"/><path class="cls-6" d="M244.66,238.38l40.77,7.69H244.66Zm48.08,0H244.66l40.77,7.69Z" transform="translate(-28.33)"/><path d="M244.66,228l48.08,10.39H244.66Zm58.47,0H244.66l48.08,10.39Z" transform="translate(-28.33)"/><path class="cls-6" d="M244.66,228l48.08,10.39H244.66Zm58.47,0H244.66l48.08,10.39Z" transform="translate(-28.33)"/><line class="cls-6" x1="216.32" y1="246.07" x2="257.1" y2="246.07"/><line class="cls-6" x1="216.32" y1="238.38" x2="264.41" y2="238.38"/><polyline class="cls-6" points="274.8 227.99 216.32 227.99 216.32 238.38"/><line class="cls-6" x1="216.32" y1="246.45" x2="264.41" y2="246.45"/><path d="M194.26,246.07l50.4.38h-50.4Zm50.4,0h-50.4l50.4.38Z" transform="translate(-28.33)"/><path class="cls-6" d="M194.26,246.07l50.4.38h-50.4Zm50.4,0h-50.4l50.4.38Z" transform="translate(-28.33)"/><path d="M194.26,238.38l50.4,7.69h-50.4Zm50.4,0h-50.4l50.4,7.69Z" transform="translate(-28.33)"/><path class="cls-6" d="M194.26,238.38l50.4,7.69h-50.4Zm50.4,0h-50.4l50.4,7.69Z" transform="translate(-28.33)"/><path d="M194.26,228l50.4,10.39h-50.4Zm50.4,0h-50.4l50.4,10.39Z" transform="translate(-28.33)"/><path class="cls-6" d="M194.26,228l50.4,10.39h-50.4Zm50.4,0h-50.4l50.4,10.39Z" transform="translate(-28.33)"/><line class="cls-6" x1="165.93" y1="246.07" x2="216.32" y2="246.07"/><line class="cls-6" x1="165.93" y1="238.38" x2="216.32" y2="238.38"/><polyline class="cls-6" points="216.32 227.99 165.93 227.99 165.93 238.38"/><line class="cls-6" x1="146.84" y1="246.45" x2="216.32" y2="246.45"/><line class="cls-6" x1="216.32" y1="238.38" x2="216.32" y2="227.99"/><path d="M356.22,228l50.39,10.39H356.22Zm50.39,0H356.22l50.39,10.39Z" transform="translate(-28.33)"/><path class="cls-6" d="M356.22,228l50.39,10.39H356.22Zm50.39,0H356.22l50.39,10.39Z" transform="translate(-28.33)"/><polyline class="cls-6" points="327.88 238.38 378.28 238.38 378.28 227.99 327.88 227.99 327.88 238.38"/><path d="M406.61,228h0Z" transform="translate(-28.33)"/><path class="cls-6" d="M406.61,228h0Z" transform="translate(-28.33)"/><path d="M530.87,238.38H406.61V228Zm0,0Z" transform="translate(-28.33)"/><path class="cls-6" d="M530.87,238.38H406.61V228Zm0,0Z" transform="translate(-28.33)"/><polygon points="378.28 227.99 502.53 227.99 502.53 238.38 378.28 227.99"/><polygon class="cls-6" points="378.28 227.99 502.53 227.99 502.53 238.38 378.28 227.99"/><polyline class="cls-6" points="378.28 238.38 502.53 238.38 502.53 227.99 378.28 227.99 378.28 238.38"/><path d="M509.71,238.38h0Z" transform="translate(-28.33)"/><path class="cls-6" d="M509.71,238.38h0Z" transform="translate(-28.33)"/><path d="M115.78,18l58.09.77H115.78Zm58.09,0H115.78l58.09.77Z" transform="translate(-28.33)"/><path class="cls-6" d="M115.78,18l58.09.77H115.78Zm58.09,0H115.78l58.09.77Z" transform="translate(-28.33)"/><polygon points="87.45 17.95 87.45 18.71 86.68 18.71 87.45 17.95"/><polygon class="cls-6" points="87.45 17.95 87.45 18.71 86.68 18.71 87.45 17.95"/><path d="M123.09,10.64,173.87,18H123.09Zm50.78,0H123.09L173.87,18Z" transform="translate(-28.33)"/><path class="cls-6" d="M123.09,10.64,173.87,18H123.09Zm50.78,0H123.09L173.87,18Z" transform="translate(-28.33)"/><polygon points="94.76 10.64 94.76 17.95 87.45 17.95 94.76 10.64"/><polygon class="cls-6" points="94.76 10.64 94.76 17.95 87.45 17.95 94.76 10.64"/><path d="M133.48.25l40.39,10.39H123.09Zm40.39,0H133.48l40.39,10.39Z" transform="translate(-28.33)"/><path class="cls-6" d="M133.48.25l40.39,10.39H123.09Zm40.39,0H133.48l40.39,10.39Z" transform="translate(-28.33)"/><polyline class="cls-6" points="87.45 17.95 94.76 17.95 145.54 17.95"/><line class="cls-6" x1="94.76" y1="10.64" x2="145.54" y2="10.64"/><line class="cls-6" x1="145.54" y1="0.25" x2="105.14" y2="0.25"/><polyline class="cls-6" points="86.68 18.71 87.45 18.71 145.54 18.71"/><line class="cls-6" x1="145.54" y1="0.25" x2="145.54" y2="10.64"/><path d="M173.87,18l19.62.77H173.87Zm20.39,0H173.87l19.62.77Z" transform="translate(-28.33)"/><path class="cls-6" d="M173.87,18l19.62.77H173.87Zm20.39,0H173.87l19.62.77Z" transform="translate(-28.33)"/><path d="M173.87,10.64,194.26,18H173.87Zm27.7,0h-27.7L194.26,18Z" transform="translate(-28.33)"/><path class="cls-6" d="M173.87,10.64,194.26,18H173.87Zm27.7,0h-27.7L194.26,18Z" transform="translate(-28.33)"/><path d="M173.87.25l27.7,10.39h-27.7ZM212,.25H173.87l27.7,10.39Z" transform="translate(-28.33)"/><path class="cls-6" d="M173.87.25l27.7,10.39h-27.7ZM212,.25H173.87l27.7,10.39Z" transform="translate(-28.33)"/><line class="cls-6" x1="145.54" y1="17.95" x2="165.93" y2="17.95"/><line class="cls-6" x1="145.54" y1="10.64" x2="173.24" y2="10.64"/><line class="cls-6" x1="145.54" y1="18.72" x2="165.16" y2="18.72"/><polyline class="cls-6" points="183.62 0.25 145.54 0.25 145.54 10.64"/><path d="M212,.25h0Z" transform="translate(-28.33)"/><path class="cls-6" d="M212,.25h0Z" transform="translate(-28.33)"/><path d="M538.56,10.64H212V.25Zm0,0Z" transform="translate(-28.33)"/><path class="cls-6" d="M538.56,10.64H212V.25Zm0,0Z" transform="translate(-28.33)"/><polygon points="183.62 0.25 510.23 0.25 510.23 10.64 183.62 0.25"/><polygon class="cls-6" points="183.62 0.25 510.23 0.25 510.23 10.64 183.62 0.25"/><polyline class="cls-6" points="510.23 0.25 183.62 0.25 183.62 10.64 510.23 10.64 510.23 0.25"/><path d="M538.56.25,579,10.64H538.56Zm50.4,0h-50.4L579,10.64Z" transform="translate(-28.33)"/><path class="cls-6" d="M538.56.25,579,10.64H538.56Zm50.4,0h-50.4L579,10.64Z" transform="translate(-28.33)"/><polyline class="cls-6" points="560.62 0.25 510.23 0.25 510.23 10.64 550.62 10.64"/><polygon points="560.62 0.25 560.62 10.64 550.62 10.64 560.62 0.25"/><polygon class="cls-6" points="560.62 0.25 560.62 10.64 550.62 10.64 560.62 0.25"/><path d="M579,10.64l10,128.87H579Zm10,0H579l10,128.87Z" transform="translate(-28.33)"/><path class="cls-6" d="M579,10.64l10,128.87H579Zm10,0H579l10,128.87Z" transform="translate(-28.33)"/><path d="M579,149.9m0-10.39v0Zm10,0H579V149.9Z" transform="translate(-28.33)"/><path class="cls-6" d="M579,149.9m0-10.39v0Zm10,0H579V149.9Z" transform="translate(-28.33)"/><polyline class="cls-6" points="560.62 0.25 560.62 10.64 550.62 10.64 550.62 149.9"/><line class="cls-6" x1="560.62" y1="139.51" x2="560.62" y2="10.64"/><path d="M589,139.51h0Z" transform="translate(-28.33)"/><path class="cls-6" d="M589,139.51h0Z" transform="translate(-28.33)"/><path d="M589,139.51l30.39,5H584Zm30.39,0H589l30.39,5Z" transform="translate(-28.33)"/><path class="cls-6" d="M589,139.51l30.39,5H584Zm30.39,0H589l30.39,5Z" transform="translate(-28.33)"/><path d="M619.35,149.9H579l5-5.39Zm0,0Z" transform="translate(-28.33)"/><path class="cls-6" d="M619.35,149.9H579l5-5.39Zm0,0Z" transform="translate(-28.33)"/><polygon points="555.62 144.51 591.01 144.51 591.01 149.9 555.62 144.51"/><polygon class="cls-6" points="555.62 144.51 591.01 144.51 591.01 149.9 555.62 144.51"/><polyline class="cls-6" points="591.01 149.9 591.01 144.51 591.01 139.51"/><line class="cls-6" x1="591.01" y1="139.51" x2="560.62" y2="139.51"/><line class="cls-6" x1="550.62" y1="149.9" x2="581.01" y2="149.9"/><line class="cls-6" x1="591.01" y1="149.9" x2="591.01" y2="149.9"/><path d="M619.35,144.51Z" transform="translate(-28.33)"/><path class="cls-6" d="M619.35,144.51Z" transform="translate(-28.33)"/><path d="M619.35,149.9h0v0Zm0,0Z" transform="translate(-28.33)"/><path class="cls-6" d="M619.35,149.9h0v0Zm0,0Z" transform="translate(-28.33)"/><polygon points="591.01 144.51 591.01 144.51 591.01 149.9 591.01 144.51"/><polygon class="cls-6" points="591.01 144.51 591.01 144.51 591.01 149.9 591.01 144.51"/><polyline class="cls-6" points="591.01 149.9 591.01 149.9 591.01 144.51 591.01 144.51 591.01 149.9"/><line class="cls-6" x1="591.01" y1="149.9" x2="591.01" y2="144.51"/><path d="M609.34,228h10v10.39Zm0-5v5h10Z" transform="translate(-28.33)"/><path class="cls-6" d="M609.34,228h10v10.39Zm0-5v5h10Z" transform="translate(-28.33)"/><polygon points="581.01 222.99 591.01 222.99 591.01 227.99 581.01 222.99"/><polygon class="cls-6" points="581.01 222.99 591.01 222.99 591.01 227.99 581.01 222.99"/><path d="M609.34,149.9h0Z" transform="translate(-28.33)"/><path class="cls-6" d="M609.34,149.9h0Z" transform="translate(-28.33)"/><path d="M609.34,149.9l10,22.69h-10Zm10,0h-10l10,22.69Z" transform="translate(-28.33)"/><path class="cls-6" d="M609.34,149.9l10,22.69h-10Zm10,0h-10l10,22.69Z" transform="translate(-28.33)"/><polyline class="cls-6" points="591.01 222.99 586.01 222.99 581.01 222.99"/><polyline class="cls-6" points="591.01 172.59 586.01 172.59 581.01 172.59 581.01 149.9"/><line class="cls-6" x1="581.01" y1="222.99" x2="581.01" y2="227.99"/><line class="cls-6" x1="591.01" y1="238.38" x2="591.01" y2="222.99"/><line class="cls-6" x1="591.01" y1="172.59" x2="591.01" y2="149.9"/><path class="cls-6" d="M614.54,174.13a46.74,46.74,0,0,0-46.74,46.74" transform="translate(-28.33)"/><path d="M614.35,172.59h0Z" transform="translate(-28.33)"/><path class="cls-6" d="M614.35,172.59h0Z" transform="translate(-28.33)"/><path d="M619.35,174.52h-5v-1.93Zm0,0Z" transform="translate(-28.33)"/><path class="cls-6" d="M619.35,174.52h-5v-1.93Zm0,0Z" transform="translate(-28.33)"/><polygon points="586.01 172.59 591.01 172.59 591.01 174.52 586.01 172.59"/><polygon class="cls-6" points="586.01 172.59 591.01 172.59 591.01 174.52 586.01 172.59"/><path d="M614.35,221.06h0Z" transform="translate(-28.33)"/><path class="cls-6" d="M614.35,221.06h0Z" transform="translate(-28.33)"/><path d="M619.35,223h-5v-1.93Zm0,0Z" transform="translate(-28.33)"/><path class="cls-6" d="M619.35,223h-5v-1.93Zm0,0Z" transform="translate(-28.33)"/><polygon points="586.01 221.06 591.01 221.06 591.01 222.99 586.01 221.06"/><polygon class="cls-6" points="586.01 221.06 591.01 221.06 591.01 222.99 586.01 221.06"/><polyline class="cls-6" points="591.01 172.59 591.01 174.52 586.01 174.52 586.01 172.59 591.01 172.59"/><polyline class="cls-6" points="586.01 222.99 586.01 221.06 591.01 221.06 591.01 222.99 586.01 222.99"/><line class="cls-6" x1="586.01" y1="221.06" x2="539.46" y2="221.06"/><line class="cls-6" x1="591.01" y1="172.59" x2="586.01" y2="172.59"/><line class="cls-6" x1="591.01" y1="222.99" x2="586.01" y2="222.99"/><path d="M486.24,10.64l4.23,167h-4.23Zm4.23,0h-4.23l4.23,167Z" transform="translate(-28.33)"/><path class="cls-6" d="M486.24,10.64l4.23,167h-4.23Zm4.23,0h-4.23l4.23,167Z" transform="translate(-28.33)"/><path d="M486.24,223l4.23,5h-4.23Zm4.23,0h-4.23l4.23,5Z" transform="translate(-28.33)"/><path class="cls-6" d="M486.24,223l4.23,5h-4.23Zm4.23,0h-4.23l4.23,5Z" transform="translate(-28.33)"/><line class="cls-6" x1="457.91" y1="177.59" x2="462.14" y2="177.59"/><polyline class="cls-6" points="457.91 222.99 462.14 222.99 462.14 227.99"/><line class="cls-6" x1="462.14" y1="177.59" x2="462.14" y2="149.9"/><line class="cls-6" x1="462.14" y1="145.66" x2="462.14" y2="34.87"/><polyline class="cls-6" points="462.14 30.64 462.14 10.64 457.91 10.64 457.91 177.59"/><polyline class="cls-6" points="457.91 222.99 457.91 227.99 462.14 227.99"/><line class="cls-6" x1="457.91" y1="177.59" x2="457.91" y2="179.9"/><line class="cls-6" x1="462.14" y1="177.59" x2="462.14" y2="179.9"/><line class="cls-6" x1="457.91" y1="222.99" x2="457.91" y2="220.68"/><line class="cls-6" x1="462.14" y1="222.99" x2="462.14" y2="220.68"/><line class="cls-6" x1="462.14" y1="179.9" x2="457.91" y2="179.9"/><polyline class="cls-6" points="462.14 220.68 457.91 220.68 417.52 220.68"/><path class="cls-6" d="M486.44,179.9a40.59,40.59,0,0,0-40.59,40.59" transform="translate(-28.33)"/><path d="M515.48,10.64l4.23,20h-4.23Zm4.23,0h-4.23l4.23,20Z" transform="translate(-28.33)"/><path class="cls-6" d="M515.48,10.64l4.23,20h-4.23Zm4.23,0h-4.23l4.23,20Z" transform="translate(-28.33)"/><polyline class="cls-6" points="491.38 30.64 491.38 10.64 487.14 10.64 487.14 30.64"/><path d="M490.47,30.64,579,34.87H490.47Zm88.48,0H490.47L579,34.87Z" transform="translate(-28.33)"/><path class="cls-6" d="M490.47,30.64,579,34.87H490.47Zm88.48,0H490.47L579,34.87Z" transform="translate(-28.33)"/><polyline class="cls-6" points="462.14 34.87 550.62 34.87 550.62 30.64 491.38 30.64"/><line class="cls-6" x1="487.15" y1="30.64" x2="462.14" y2="30.64"/><path d="M490.47,145.66,502,149.9H490.47Zm11.55,0H490.47L502,149.9Z" transform="translate(-28.33)"/><path class="cls-6" d="M490.47,145.66,502,149.9H490.47Zm11.55,0H490.47L502,149.9Z" transform="translate(-28.33)"/><path d="M539.72,145.66,579,149.9H539.72Zm39.23,0H539.72L579,149.9Z" transform="translate(-28.33)"/><path class="cls-6" d="M539.72,145.66,579,149.9H539.72Zm39.23,0H539.72L579,149.9Z" transform="translate(-28.33)"/><line class="cls-6" x1="473.68" y1="149.9" x2="473.68" y2="145.66"/><polyline class="cls-6" points="511.38 149.9 511.38 145.66 550.62 145.66"/><line class="cls-6" x1="473.68" y1="145.66" x2="462.14" y2="145.66"/><line class="cls-6" x1="462.14" y1="149.9" x2="473.68" y2="149.9"/><polyline class="cls-6" points="511.38 149.9 550.62 149.9 550.62 145.66"/><line class="cls-6" x1="511.38" y1="149.9" x2="509.07" y2="149.9"/><line class="cls-6" x1="511.38" y1="145.66" x2="509.07" y2="145.66"/><line class="cls-6" x1="473.68" y1="149.9" x2="475.99" y2="149.9"/><line class="cls-6" x1="473.68" y1="145.66" x2="475.99" y2="145.66"/><line class="cls-6" x1="509.07" y1="145.66" x2="509.07" y2="149.9"/><polyline class="cls-6" points="475.99 145.66 475.99 149.9 504.46 166.05"/><path class="cls-6" d="M533,166.15a32.86,32.86,0,0,0,4.41-16.45" transform="translate(-28.33)"/><path d="M79.24,12.56,115,18.72H81.93Zm35.77,0H79.24L115,18.72Z" transform="translate(-28.33)"/><path class="cls-6" d="M79.24,12.56,115,18.72H81.93Zm35.77,0H79.24L115,18.72Z" transform="translate(-28.33)"/><line class="cls-6" x1="88.56" y1="12.56" x2="50.9" y2="12.56"/><polyline class="cls-6" points="53.6 18.71 87.06 18.71 87.06 12.56"/><path d="M194.26,225.3h0Z" transform="translate(-28.33)"/><path class="cls-6" d="M194.26,225.3h0Z" transform="translate(-28.33)"/><path d="M172.72,225.3l21.54,21.15H182Zm21.54,0H172.72l21.54,21.15Z" transform="translate(-28.33)"/><path class="cls-6" d="M172.72,225.3l21.54,21.15H182Zm21.54,0H172.72l21.54,21.15Z" transform="translate(-28.33)"/><polyline class="cls-6" points="165.93 238.38 165.93 225.3 144.38 225.3 153.62 246.45 165.93 246.45"/><line x1="591.01" y1="234.14" x2="591.01" y2="227.99"/><path d="M619.35,228" transform="translate(-28.33)"/><line class="cls-6" x1="591.01" y1="234.14" x2="591.01" y2="227.99"/><path class="cls-6" d="M619.35,228" transform="translate(-28.33)"/><line class="cls-6" x1="591.01" y1="227.99" x2="591.01" y2="234.14"/><path class="cls-6" d="M619.35,234.14" transform="translate(-28.33)"/><path d="M581.26,228l38.09,10.39H581.26Zm28.08,0H581.26l38.09,10.39Z" transform="translate(-28.33)"/><path class="cls-6" d="M581.26,228l38.09,10.39H581.26Zm28.08,0H581.26l38.09,10.39Z" transform="translate(-28.33)"/><line class="cls-6" x1="552.93" y1="238.38" x2="554.08" y2="238.38"/><line class="cls-6" x1="564.08" y1="238.38" x2="591.01" y2="238.38"/><polyline class="cls-6" points="581.01 227.99 552.93 227.99 552.93 238.38"/><polyline class="cls-6" points="105.53 224.53 132.07 212.99 132.84 214.14 104.76 226.45 105.53 224.53"/><polyline class="cls-6" points="85.14 181.44 112.84 169.13 113.61 170.28 86.68 182.21 105.53 224.53 104.76 226.45 85.14 181.44 86.68 182.21 85.14 181.44"/><polyline class="cls-6" points="85.91 181.82 105.14 225.68 132.46 213.37"/><polyline class="cls-6" points="94.37 179.9 112.45 220.29 127.07 213.75 109.38 173.36 94.37 179.9"/><polyline class="cls-6" points="95.91 179.52 113.61 219.53 127.07 213.75 109.38 173.36 95.91 179.52"/><line class="cls-6" x1="85.91" y1="181.83" x2="113.22" y2="169.9"/><polyline class="cls-6" points="427.13 51.03 455.22 51.03 455.22 91.42 427.13 91.42 427.13 51.03"/><polyline class="cls-6" points="429.83 89.11 429.83 67.19 450.21 67.19 450.21 89.11 429.83 89.11"/><line class="cls-6" x1="430.21" y1="63.72" x2="430.21" y2="55.65"/><line class="cls-6" x1="433.29" y1="63.72" x2="433.29" y2="55.65"/><line class="cls-6" x1="436.75" y1="63.72" x2="436.75" y2="55.65"/><line class="cls-6" x1="440.21" y1="63.72" x2="440.21" y2="55.65"/><line class="cls-6" x1="443.29" y1="63.72" x2="443.29" y2="55.65"/><line class="cls-6" x1="446.75" y1="63.72" x2="446.75" y2="55.65"/><line class="cls-6" x1="474.07" y1="42.57" x2="474.07" y2="59.88"/><polyline class="cls-6" points="473.3 41.41 473.3 34.87 492.15 34.87"/><line class="cls-6" x1="482.53" y1="45.64" x2="489.45" y2="45.64"/><polyline class="cls-6" points="474.07 59.88 475.61 45.64 482.53 45.64"/><line class="cls-6" x1="491.38" y1="59.88" x2="489.45" y2="45.64"/><line class="cls-6" x1="474.45" y1="59.88" x2="475.99" y2="45.64"/><line class="cls-6" x1="490.99" y1="59.88" x2="489.07" y2="45.64"/><line class="cls-6" x1="491.38" y1="42.57" x2="491.38" y2="59.88"/><line class="cls-6" x1="492.15" y1="34.87" x2="492.15" y2="41.41"/><polyline class="cls-6" points="474.07 59.88 474.45 61.8 474.83 63.72 475.99 65.26 477.91 66.8 479.45 67.57 481.76 67.96 483.68 67.96 485.61 67.57 487.53 66.8 489.07 65.26 490.22 63.72 490.99 61.8 491.38 59.88"/><polyline class="cls-6" points="474.45 59.88 474.83 61.8 475.22 63.72 476.37 65.26 477.91 66.42 479.84 67.19 481.76 67.57 483.68 67.57 485.61 67.19 487.14 66.42 488.68 65.26 489.84 63.72 490.61 61.8 490.99 59.88"/><polyline class="cls-6" points="474.07 42.57 482.53 42.95 490.99 42.57"/><polyline class="cls-6" points="474.07 42.57 473.68 42.57 473.68 42.18 473.3 41.8 473.3 41.41"/><polyline class="cls-6" points="490.99 42.57 491.38 42.57 491.76 42.18 491.76 41.8 492.15 41.41"/><polyline class="cls-6" points="482.53 37.95 482.91 37.95 483.3 38.34 483.3 38.72 483.68 38.72 483.68 39.1 483.3 39.49 483.3 39.87 482.91 39.87 482.53 39.87 482.14 39.87 482.14 39.49 481.76 39.49 481.76 39.1 481.76 38.72 481.76 38.34 482.14 38.34 482.14 37.95 482.53 37.95"/><line class="cls-6" x1="519.84" y1="38.33" x2="543.7" y2="38.33"/><line class="cls-6" x1="546.77" y1="41.03" x2="546.77" y2="96.04"/><line class="cls-6" x1="516.77" y1="41.03" x2="516.77" y2="96.04"/><line class="cls-6" x1="549.47" y1="111.81" x2="549.47" y2="35.64"/><polyline class="cls-6" points="549.47 111.81 514.07 111.81 514.07 35.64 549.47 35.64"/><line class="cls-6" x1="521.77" y1="87.19" x2="521.77" y2="44.11"/><line class="cls-6" x1="523.31" y1="42.57" x2="540.23" y2="42.57"/><line class="cls-6" x1="541.77" y1="87.19" x2="541.77" y2="44.11"/><line class="cls-6" x1="531" y1="51.8" x2="529.08" y2="51.8"/><line class="cls-6" x1="531.77" y1="51.03" x2="531.77" y2="49.11"/><line class="cls-6" x1="532.54" y1="51.8" x2="534.46" y2="51.8"/><line class="cls-6" x1="531.77" y1="52.57" x2="531.77" y2="54.11"/><polyline class="cls-6" points="516.77 96.04 517.15 98.73 517.92 101.04 519.08 102.96 521 105.27 522.92 106.81 525.23 107.96 527.92 109.12 530.62 109.5 533.31 109.5 536 109.12 538.31 107.96 540.62 106.81 542.93 105.27 544.47 102.96 545.62 101.04 546.39 98.73 546.77 96.04"/><polyline class="cls-6" points="546.77 41.03 546.77 40.26 546.39 39.87 546.39 39.49 546 39.1 545.62 39.1 545.23 38.72 544.85 38.34 544.47 38.34 543.7 38.34"/><polyline class="cls-6" points="519.84 38.34 519.46 38.34 518.69 38.34 518.31 38.72 517.92 39.1 517.54 39.1 517.15 39.49 517.15 39.87 517.15 40.26 516.77 41.03"/><polyline class="cls-6" points="533.31 51.8 533.31 51.41 533.31 51.03 532.92 51.03 532.92 50.65 532.54 50.65 532.54 50.26 532.15 50.26 531.77 50.26 531.38 50.26 531 50.65 530.62 50.65 530.62 51.03 530.23 51.41 530.23 51.8 530.23 52.18 530.62 52.18 530.62 52.57 531 52.57 531 52.95 531.38 52.95 531.77 52.95 532.15 52.95 532.54 52.95 532.54 52.57 532.92 52.57 532.92 52.18 533.31 52.18 533.31 51.8"/><polyline class="cls-6" points="521.77 87.19 522.15 88.73 522.54 90.65 523.31 91.81 524.46 93.35 526 94.5 527.54 95.27 529.08 95.65 531 96.04 532.92 96.04 534.46 95.65 536.39 95.27 537.92 94.5 539.08 93.35 540.23 91.81 541 90.65 541.77 88.73 541.77 87.19"/><polyline class="cls-6" points="523.31 42.57 522.92 42.95 522.54 42.95 522.15 43.34 521.77 43.72 521.77 44.1"/><polyline class="cls-6" points="541.77 44.1 541.77 43.72 541.39 43.34 541.39 42.95 541 42.95 540.62 42.95 540.23 42.57"/><polyline class="cls-6" points="533.69 51.8 533.69 51.41 533.69 51.03 533.31 50.65 533.31 50.26 532.92 50.26 532.54 49.88 532.15 49.88 531.77 49.88 531.38 49.88 531 49.88 531 50.26 530.62 50.26 530.23 50.65 529.85 51.03 529.85 51.41 529.85 51.8 529.85 52.18 530.23 52.57 530.62 52.95 531 53.34 531.38 53.34 531.77 53.34 532.15 53.34 532.54 53.34 532.92 52.95 533.31 52.95 533.31 52.57 533.69 52.18 533.69 51.8"/><polyline class="cls-6" points="473.68 92.96 462.14 92.96 462.14 120.27 473.68 120.27"/><line class="cls-6" x1="462.14" y1="111.04" x2="462.14" y2="102.19"/><line class="cls-6" x1="471.37" y1="109.12" x2="471.37" y2="107.58"/><line class="cls-6" x1="469.06" y1="106.81" x2="470.22" y2="106.81"/><line class="cls-6" x1="471.37" y1="105.66" x2="471.37" y2="104.5"/><line class="cls-6" x1="472.14" y1="106.81" x2="473.68" y2="106.81"/><path class="cls-6" d="M502.76,94.58a12.06,12.06,0,0,0-5.73,4.7" transform="translate(-28.33)"/><path class="cls-6" d="M497.21,99.21a12.21,12.21,0,0,0-1.7,7.23" transform="translate(-28.33)"/><path class="cls-6" d="M497,113.57a12.06,12.06,0,0,0,5.73,4.7" transform="translate(-28.33)"/><path class="cls-6" d="M495.51,106.41a12.21,12.21,0,0,0,1.7,7.23" transform="translate(-28.33)"/><path class="cls-6" d="M511.19,105.35a22.6,22.6,0,0,0-2.26-8.3" transform="translate(-28.33)"/><path class="cls-6" d="M501.9,120.27a7.13,7.13,0,0,0,5.86-2.66" transform="translate(-28.33)"/><path class="cls-6" d="M511.21,107.57a12.18,12.18,0,0,0,0-1.91" transform="translate(-28.33)"/><path class="cls-6" d="M497.6,99a50.25,50.25,0,0,0,0,15.29" transform="translate(-28.33)"/><path class="cls-6" d="M492.53,115.64a17.12,17.12,0,0,0,11.13,3.86" transform="translate(-28.33)"/><path class="cls-6" d="M491.24,106.36a34.48,34.48,0,0,0,.85,7.78" transform="translate(-28.33)"/><path class="cls-6" d="M492.07,114.39a2.09,2.09,0,0,0,.72,1.18" transform="translate(-28.33)"/><path class="cls-6" d="M492.4,106.56a58,58,0,0,0,.55,7.69" transform="translate(-28.33)"/><path class="cls-6" d="M493.44,115.61A15.58,15.58,0,0,0,504,119.5" transform="translate(-28.33)"/><path class="cls-6" d="M492.8,114.22a2.1,2.1,0,0,0,.7,1.29" transform="translate(-28.33)"/><path class="cls-6" d="M503.93,93.35a15.54,15.54,0,0,0-10.5,3.9" transform="translate(-28.33)"/><path class="cls-6" d="M503.63,93.73a17.12,17.12,0,0,0-11.12,3.88" transform="translate(-28.33)"/><path class="cls-6" d="M492.94,98.68a58.23,58.23,0,0,0-.54,7.69" transform="translate(-28.33)"/><path class="cls-6" d="M492.08,98.75a33.49,33.49,0,0,0-.83,7.79" transform="translate(-28.33)"/><path class="cls-6" d="M493.5,97.34a2.1,2.1,0,0,0-.7,1.3" transform="translate(-28.33)"/><path class="cls-6" d="M492.79,97.67a2.13,2.13,0,0,0-.73,1.17" transform="translate(-28.33)"/><path class="cls-6" d="M507.76,95.24a7.13,7.13,0,0,0-5.86-2.66" transform="translate(-28.33)"/><path class="cls-6" d="M508.93,97.17a10.46,10.46,0,0,0-1.16-1.78" transform="translate(-28.33)"/><path class="cls-6" d="M507.77,117.46a10.46,10.46,0,0,0,1.16-1.78" transform="translate(-28.33)"/><path class="cls-6" d="M508.93,115.8a22.6,22.6,0,0,0,2.26-8.3" transform="translate(-28.33)"/><path class="cls-6" d="M509.26,110.36a15.81,15.81,0,0,0,0-7.49" transform="translate(-28.33)"/><path class="cls-6" d="M506,95.9a4,4,0,0,0-3.33-1.39" transform="translate(-28.33)"/><path class="cls-6" d="M509.1,102.89a14.82,14.82,0,0,0-3.12-6.8" transform="translate(-28.33)"/><path class="cls-6" d="M502.7,118.34A4,4,0,0,0,506,117" transform="translate(-28.33)"/><path class="cls-6" d="M506,117.15a14.86,14.86,0,0,0,3.12-6.81" transform="translate(-28.33)"/><path class="cls-6" d="M501.63,106.62a1.73,1.73,0,1,0-1.73,1.73,1.72,1.72,0,0,0,1.73-1.73" transform="translate(-28.33)"/><path class="cls-6" d="M501.25,106.62A1.35,1.35,0,1,0,499.9,108a1.35,1.35,0,0,0,1.35-1.34" transform="translate(-28.33)"/><line class="cls-6" x1="560.62" y1="0.25" x2="560.62" y2="0.25"/><line class="cls-6" x1="351.35" y1="134.51" x2="351.35" y2="133.01"/><line class="cls-7" x1="351.35" y1="130.06" x2="351.35" y2="13.61"/><line class="cls-6" x1="351.35" y1="12.14" x2="351.35" y2="10.64"/><line class="cls-6" x1="351.35" y1="10.64" x2="351.35" y2="10.64"/><line class="cls-6" x1="457.91" y1="134.51" x2="457.91" y2="134.51"/><line class="cls-6" x1="457.91" y1="134.51" x2="456.41" y2="134.51"/><line class="cls-8" x1="453.45" y1="134.51" x2="354.33" y2="134.51"/><line class="cls-6" x1="352.85" y1="134.51" x2="351.35" y2="134.51"/><path d="M72.5,12.56,91.93,41.41H85Zm6.54,0H72.5L91.93,41.41Z" transform="translate(-28.33)"/><path class="cls-6" d="M72.5,12.56,91.93,41.41H85Zm6.54,0H72.5L91.93,41.41Z" transform="translate(-28.33)"/><path d="M85.39,42.57h4.23l-3.46,1.15ZM85,41.41l.38,1.16h4.23Z" transform="translate(-28.33)"/><path class="cls-6" d="M85.39,42.57h4.23l-3.46,1.15ZM85,41.41l.38,1.16h4.23Z" transform="translate(-28.33)"/><polygon points="56.67 41.41 63.6 41.41 61.29 42.57 56.67 41.41"/><polygon class="cls-6" points="56.67 41.41 63.6 41.41 61.29 42.57 56.67 41.41"/><polygon points="98.22 120.27 98.61 121.04 95.91 121.04 98.22 120.27"/><polygon class="cls-6" points="98.22 120.27 98.61 121.04 95.91 121.04 98.22 120.27"/><path d="M124.25,121l3.07,1.54h-6.54Zm2.69,0h-2.69l3.07,1.54Z" transform="translate(-28.33)"/><path class="cls-6" d="M124.25,121l3.07,1.54h-6.54Zm2.69,0h-2.69l3.07,1.54Z" transform="translate(-28.33)"/><path d="M120.78,122.58,147.33,168h-6.54Zm6.54,0h-6.54L147.33,168Z" transform="translate(-28.33)"/><path class="cls-6" d="M120.78,122.58,147.33,168h-6.54Zm6.54,0h-6.54L147.33,168Z" transform="translate(-28.33)"/><path d="M141.17,168.75H145l-3.08,1.53Zm-.38-.77.38.77H145Z" transform="translate(-28.33)"/><path class="cls-6" d="M141.17,168.75H145l-3.08,1.53Zm-.38-.77.38.77H145Z" transform="translate(-28.33)"/><polygon points="112.45 167.98 118.99 167.98 116.69 168.75 112.45 167.98"/><polygon class="cls-6" points="112.45 167.98 118.99 167.98 116.69 168.75 112.45 167.98"/><polygon points="137.84 210.68 138.23 211.45 135.54 211.45 137.84 210.68"/><polygon class="cls-6" points="137.84 210.68 138.23 211.45 135.54 211.45 137.84 210.68"/><path d="M163.87,211.45l3.46,1.54h-6.92Zm2.69,0h-2.69l3.46,1.54Z" transform="translate(-28.33)"/><path class="cls-6" d="M163.87,211.45l3.46,1.54h-6.92Zm2.69,0h-2.69l3.46,1.54Z" transform="translate(-28.33)"/><polyline points="146.89 246.45 132.07 212.99 153.43 246.45"/><polyline points="153.43 246.45 139 212.99 132.07 212.99 153.43 246.45"/><polyline class="cls-6" points="146.89 246.45 132.07 212.99 153.43 246.45"/><polyline class="cls-6" points="153.43 246.45 139 212.99 132.07 212.99 153.43 246.45"/><polyline class="cls-6" points="113.61 170.28 116.69 168.75 118.99 167.98"/><polyline class="cls-6" points="132.07 212.99 135.54 211.45 137.84 210.68"/><polyline class="cls-6" points="92.45 122.58 95.91 121.04 98.22 120.27"/><polyline class="cls-6" points="57.83 43.72 61.29 42.57 63.6 41.41"/><line class="cls-6" x1="44.17" y1="12.56" x2="57.83" y2="43.72"/><line class="cls-6" x1="92.45" y1="122.58" x2="113.61" y2="170.28"/><line class="cls-6" x1="118.99" y1="167.98" x2="98.22" y2="120.27"/><line class="cls-6" x1="63.6" y1="41.41" x2="53.6" y2="18.72"/><path class="cls-6" d="M79.24,12.56" transform="translate(-28.33)"/><line class="cls-6" x1="132.07" y1="212.99" x2="113.61" y2="170.28"/><line class="cls-6" x1="137.84" y1="210.68" x2="118.99" y2="167.98"/><polygon points="136.69 207.6 137.07 208.75 134.38 208.75 136.69 207.6"/><polygon class="cls-6" points="136.69 207.6 137.07 208.75 134.38 208.75 136.69 207.6"/><path d="M163.49,210.68h2.69l-2.31.77Zm-.77-1.93.77,1.93h2.69Z" transform="translate(-28.33)"/><path class="cls-6" d="M163.49,210.68h2.69l-2.31.77Zm-.77-1.93.77,1.93h2.69Z" transform="translate(-28.33)"/><polygon points="134.38 208.75 137.07 208.75 137.84 210.68 134.38 208.75"/><polygon class="cls-6" points="134.38 208.75 137.07 208.75 137.84 210.68 134.38 208.75"/><polygon points="118.99 167.98 119.38 168.75 116.69 168.75 118.99 167.98"/><polygon class="cls-6" points="118.99 167.98 119.38 168.75 116.69 168.75 118.99 167.98"/><path d="M145.79,170.67h2.69l-2.31,1.15Zm-.77-1.92.77,1.92h2.69Z" transform="translate(-28.33)"/><path class="cls-6" d="M145.79,170.67h2.69l-2.31,1.15Zm-.77-1.92.77,1.92h2.69Z" transform="translate(-28.33)"/><polygon points="116.69 168.75 119.38 168.75 120.15 170.67 116.69 168.75"/><polygon class="cls-6" points="116.69 168.75 119.38 168.75 120.15 170.67 116.69 168.75"/><polyline class="cls-6" points="137.84 210.68 136.69 207.6 134.38 208.75 135.54 211.45"/><polyline class="cls-6" points="116.69 168.75 117.84 171.82 120.15 170.67 118.99 167.98"/><line class="cls-6" x1="136.69" y1="207.6" x2="120.15" y2="170.67"/><line class="cls-6" x1="117.84" y1="171.82" x2="134.38" y2="208.75"/><line class="cls-6" x1="135.54" y1="211.45" x2="137.84" y2="210.68"/><line class="cls-6" x1="116.69" y1="168.75" x2="118.99" y2="167.98"/><line class="cls-6" x1="57.83" y1="43.72" x2="92.45" y2="122.58"/><line class="cls-6" x1="63.6" y1="41.41" x2="98.22" y2="120.27"/><polygon points="63.6 41.41 63.98 42.57 61.29 42.57 63.6 41.41"/><polygon class="cls-6" points="63.6 41.41 63.98 42.57 61.29 42.57 63.6 41.41"/><path d="M90.39,44.11h2.7l-2.31,1.15Zm-.77-1.54.77,1.54h2.7Z" transform="translate(-28.33)"/><path class="cls-6" d="M90.39,44.11h2.7l-2.31,1.15Zm-.77-1.54.77,1.54h2.7Z" transform="translate(-28.33)"/><polygon points="61.29 42.57 63.98 42.57 64.75 44.1 61.29 42.57"/><polygon class="cls-6" points="61.29 42.57 63.98 42.57 64.75 44.1 61.29 42.57"/><polygon points="79.75 78.73 80.52 79.88 77.45 79.88 79.75 78.73"/><polygon class="cls-6" points="79.75 78.73 80.52 79.88 77.45 79.88 79.75 78.73"/><path d="M106.17,80.65h3.07l-2.3,1.15Zm-.39-.77.39.77h3.07Z" transform="translate(-28.33)"/><path class="cls-6" d="M106.17,80.65h3.07l-2.3,1.15Zm-.39-.77.39.77h3.07Z" transform="translate(-28.33)"/><polygon points="77.45 79.88 80.52 79.88 80.91 80.65 77.45 79.88"/><polygon class="cls-6" points="77.45 79.88 80.52 79.88 80.91 80.65 77.45 79.88"/><polygon points="80.91 80.65 81.29 81.81 78.6 81.81 80.91 80.65"/><polygon class="cls-6" points="80.91 80.65 81.29 81.81 78.6 81.81 80.91 80.65"/><path d="M107.32,82.57H110l-2.31,1.16Zm-.38-.77.38.77H110Z" transform="translate(-28.33)"/><path class="cls-6" d="M107.32,82.57H110l-2.31,1.16Zm-.38-.77.38.77H110Z" transform="translate(-28.33)"/><polygon points="78.6 81.81 81.29 81.81 81.68 82.57 78.6 81.81"/><polygon class="cls-6" points="78.6 81.81 81.29 81.81 81.68 82.57 78.6 81.81"/><polygon points="96.68 117.2 97.45 118.35 94.37 118.35 96.68 117.2"/><polygon class="cls-6" points="96.68 117.2 97.45 118.35 94.37 118.35 96.68 117.2"/><path d="M123.48,120.27h3.07l-2.3.77Zm-.77-1.92.77,1.92h3.07Z" transform="translate(-28.33)"/><path class="cls-6" d="M123.48,120.27h3.07l-2.3.77Zm-.77-1.92.77,1.92h3.07Z" transform="translate(-28.33)"/><polygon points="94.37 118.35 97.45 118.35 98.22 120.27 94.37 118.35"/><polygon class="cls-6" points="94.37 118.35 97.45 118.35 98.22 120.27 94.37 118.35"/><polyline class="cls-6" points="61.29 42.57 62.44 45.26 64.75 44.1 63.6 41.41"/><polyline class="cls-6" points="80.91 80.65 79.75 78.73 77.45 79.88 78.6 81.81"/><line class="cls-6" x1="62.44" y1="45.26" x2="77.45" y2="79.88"/><line class="cls-6" x1="79.75" y1="78.73" x2="64.75" y2="44.11"/><polyline class="cls-6" points="78.6 81.81 79.37 83.73 81.68 82.57 80.91 80.65"/><polyline class="cls-6" points="98.22 120.27 96.68 117.2 94.37 118.35 95.91 121.04"/><line class="cls-6" x1="79.37" y1="83.73" x2="94.37" y2="118.35"/><line class="cls-6" x1="96.68" y1="117.2" x2="81.68" y2="82.57"/><line class="cls-6" x1="61.29" y1="42.57" x2="63.6" y2="41.41"/><line class="cls-6" x1="95.91" y1="121.04" x2="98.22" y2="120.27"/><polyline class="cls-6" points="520.23 145.66 550.62 145.66 550.62 115.27"/><text class="cls-9" transform="translate(237.78 100.54)">№444</text><text class="cls-9" transform="translate(253.19 132.9)">СТ</text><text class="cls-9" transform="translate(239.94 165.27)">36.14</text><polyline class="cls-6" points="226.38 173.59 226.38 76.19 307.44 76.19 307.44 173.59"/><line class="cls-6" x1="226.38" y1="108.56" x2="307.44" y2="108.56"/><line class="cls-6" x1="226.38" y1="141.23" x2="307.44" y2="141.23"/><line class="cls-6" x1="226.38" y1="173.59" x2="307.44" y2="173.59"/></svg>