<svg id="_587" data-name="587" xmlns="http://www.w3.org/2000/svg" viewBox="0 0 342.41 625.63"><defs><style>.cls-1,.cls-6,.cls-7{fill:none;stroke-linecap:round;stroke-linejoin:round;stroke-width:0.5px;}.cls-1{stroke:#999;}.cls-2{isolation:isolate;font-size:12px;fill:#999;}.cls-2,.cls-4,.cls-5{font-family:PTSans-Regular, PT Sans;}.cls-3{letter-spacing:-0.01em;}.cls-4{font-size:20px;}.cls-5{font-size:24px;}.cls-6,.cls-7{stroke:#000;}.cls-7{stroke-dasharray:2.99 2.99;}</style></defs><title>3floor_587flat</title><line class="cls-1" x1="155.69" y1="614.29" x2="155.69" y2="623.09"/><polyline class="cls-1" points="152.09 619.79 155.59 623.29 159.09 619.79"/><text class="cls-2" transform="translate(164.92 622.69)"><tspan class="cls-3">у</tspan><tspan x="5.42" y="0">лица</tspan></text><text class="cls-4" transform="translate(149.76 495.66)">18.33</text><text class="cls-4" transform="translate(77.28 205.93)">4.66</text><text class="cls-4" transform="translate(233.06 211.81)">3.50</text><text class="cls-4" transform="translate(138.19 87.53)">4.40</text><text class="cls-5" transform="translate(157.55 413.94)">СТ</text><text class="cls-5" transform="translate(142.33 446.98)">30.89</text><text class="cls-5" transform="translate(139.16 381.39)">№587</text><polyline class="cls-6" points="130.53 455.35 130.53 358.15 211.59 358.15 211.59 455.35"/><line class="cls-6" x1="130.53" y1="390.61" x2="211.59" y2="390.61"/><line class="cls-6" x1="130.53" y1="455.35" x2="211.59" y2="455.35"/><line class="cls-6" x1="130.53" y1="423.07" x2="211.59" y2="423.07"/><polyline class="cls-6" points="182.78 245.01 13.53 245.01 13.53 305.35 13.53 463.21 13.53 512.16 171.01 512.16 317.87 512.16"/><line class="cls-6" x1="317.87" y1="512.17" x2="317.87" y2="245.01"/><polyline class="cls-6" points="118.65 123.2 293.21 123.2 293.21 13.53 252.22 13.53 118.65 13.53 118.65 123.2"/><polyline class="cls-6" points="13.53 128.13 13.53 239.7 177.47 239.7 177.47 128.13 118.65 128.13 13.53 128.13"/><polyline class="cls-6" points="317.87 245.01 317.87 128.13 182.78 128.13 182.78 245.01"/><path class="cls-6" d="M182.78,245"/><polyline points="0.25 539.11 30.61 539.11 33.27 539.11 0.25 539.11"/><path d="M33.26,539.11h0Z"/><polyline class="cls-6" points="0.25 539.11 30.61 539.11 33.27 539.11 0.25 539.11"/><path class="cls-6" d="M33.26,539.11h0Z"/><polyline points="0.25 539.11 33.27 547.08 0.25 547.08"/><polyline points="0.25 539.11 33.27 547.08 33.27 539.11 0.25 539.11"/><polyline class="cls-6" points="0.25 539.11 33.27 547.08 0.25 547.08"/><polyline class="cls-6" points="0.25 539.11 33.27 547.08 33.27 539.11 0.25 539.11"/><path d="M144.83,539.11l26.18,8H144.83Zm26.18,0H144.83l26.18,8Z"/><path class="cls-6" d="M144.83,539.11l26.18,8H144.83Zm26.18,0H144.83l26.18,8Z"/><polyline points="0.25 538.35 30.61 538.35 0.25 538.35"/><polyline class="cls-6" points="0.25 538.35 30.61 538.35 0.25 538.35"/><polyline points="0.25 538.35 30.61 539.11 0.25 539.11"/><polyline points="0.25 538.35 30.61 539.11 30.61 538.35 0.25 538.35"/><polyline class="cls-6" points="0.25 538.35 30.61 539.11 0.25 539.11"/><polyline class="cls-6" points="0.25 538.35 30.61 539.11 30.61 538.35 0.25 538.35"/><path d="M147.49,538.35l23.52.76H147.49Zm23.52,0H147.49l23.52.76Z"/><path class="cls-6" d="M147.49,538.35l23.52.76H147.49Zm23.52,0H147.49l23.52.76Z"/><polyline points="0.25 528.48 30.61 528.48 0.25 528.48"/><polyline class="cls-6" points="0.25 528.48 30.61 528.48 0.25 528.48"/><polyline points="0.25 535.69 30.61 535.69 0.25 535.69"/><polyline points="0.25 535.69 30.61 535.69 0.25 535.69"/><polyline points="0.25 528.48 30.61 535.69 0.25 535.69"/><polyline points="0.25 528.48 30.61 535.69 30.61 528.48 0.25 528.48"/><polyline class="cls-6" points="0.25 535.69 30.61 535.69 0.25 535.69"/><polyline class="cls-6" points="0.25 535.69 30.61 535.69 0.25 535.69"/><polyline class="cls-6" points="0.25 528.48 30.61 535.69 0.25 535.69"/><polyline class="cls-6" points="0.25 528.48 30.61 535.69 30.61 528.48 0.25 528.48"/><polyline points="0.25 535.69 30.61 538.35 0.25 538.35"/><polyline points="0.25 538.35 30.61 538.35 30.61 538.35 0.25 538.35"/><polyline class="cls-6" points="0.25 535.69 30.61 538.35 0.25 538.35"/><polyline class="cls-6" points="0.25 538.35 30.61 538.35 30.61 538.35 0.25 538.35"/><polyline points="0.25 535.69 30.61 535.69 30.61 538.35 0.25 535.69"/><polyline class="cls-6" points="0.25 535.69 30.61 535.69 30.61 538.35 0.25 535.69"/><path d="M147.49,528.48,171,535.69H147.49Zm23.52,0H147.49L171,535.69Z"/><path class="cls-6" d="M147.49,528.48,171,535.69H147.49Zm23.52,0H147.49L171,535.69Z"/><path d="M147.49,535.69,171,538.35H147.49Zm23.52,0H147.49L171,538.35Z"/><path class="cls-6" d="M147.49,535.69,171,538.35H147.49Zm23.52,0H147.49L171,538.35Z"/><path d="M13.53,512.17h0Z"/><path class="cls-6" d="M13.53,512.17h0Z"/><path d="M30.61,528.48H13.53V512.17Zm0,0Z"/><path class="cls-6" d="M30.61,528.48H13.53V512.17Zm0,0Z"/><polygon points="13.53 512.16 30.61 512.16 30.61 528.48 13.53 512.16"/><polygon class="cls-6" points="13.53 512.16 30.61 512.16 30.61 528.48 13.53 512.16"/><path d="M171,528.48H147.49V512.17Zm0,0Z"/><path class="cls-6" d="M171,528.48H147.49V512.17Zm0,0Z"/><polygon points="147.49 512.16 171.01 512.16 171.01 528.48 147.49 512.16"/><polygon class="cls-6" points="147.49 512.16 171.01 512.16 171.01 528.48 147.49 512.16"/><path d="M.25,512.17h0Z"/><path class="cls-6" d="M.25,512.17h0Z"/><path d="M13.53,528.48H.25V512.17Zm0,0Z"/><path class="cls-6" d="M13.53,528.48H.25V512.17Zm0,0Z"/><polygon points="0.25 512.16 13.53 512.16 13.53 528.48 0.25 512.16"/><polygon class="cls-6" points="0.25 512.16 13.53 512.16 13.53 528.48 0.25 512.16"/><polyline points="0.25 528.48 0.25 528.48 0.25 528.48 0.25 528.48"/><polyline class="cls-6" points="0.25 528.48 0.25 528.48 0.25 528.48 0.25 528.48"/><line class="cls-6" x1="0.25" y1="539.11" x2="30.61" y2="539.11"/><line class="cls-6" x1="147.49" y1="539.11" x2="171.01" y2="539.11"/><line class="cls-6" x1="0.25" y1="538.35" x2="30.61" y2="538.35"/><line class="cls-6" x1="147.49" y1="538.35" x2="171.01" y2="538.35"/><line class="cls-6" x1="0.25" y1="512.17" x2="0.25" y2="547.08"/><line class="cls-6" x1="13.53" y1="528.48" x2="13.53" y2="512.17"/><polyline class="cls-6" points="147.49 535.69 147.49 528.48 147.49 512.16"/><polyline class="cls-6" points="144.83 547.08 144.83 539.11 147.49 539.11"/><polyline class="cls-6" points="147.49 539.11 147.49 538.35 147.49 535.69"/><polyline class="cls-6" points="30.61 535.69 30.61 528.48 30.61 512.16"/><polyline class="cls-6" points="33.27 547.08 33.27 539.11 30.61 539.11"/><polyline class="cls-6" points="30.61 539.11 30.61 538.35 30.61 535.69"/><line class="cls-6" x1="171.01" y1="512.17" x2="147.49" y2="512.17"/><line class="cls-6" x1="30.61" y1="512.17" x2="13.53" y2="512.17"/><line class="cls-6" x1="0.25" y1="547.08" x2="33.26" y2="547.08"/><line class="cls-6" x1="144.83" y1="547.08" x2="171.01" y2="547.08"/><line class="cls-6" x1="33.26" y1="547.08" x2="144.83" y2="547.08"/><line class="cls-6" x1="30.61" y1="512.17" x2="147.49" y2="512.17"/><path d="M30.61,535.69h0Z"/><path class="cls-6" d="M30.61,535.69h0Z"/><path d="M38.58,539.11h-8v-3.42Zm0,0Z"/><path class="cls-6" d="M38.58,539.11h-8v-3.42Zm0,0Z"/><polygon points="30.61 535.69 38.58 535.69 38.58 539.11 30.61 535.69"/><polygon class="cls-6" points="30.61 535.69 38.58 535.69 38.58 539.11 30.61 535.69"/><path d="M86.39,535.69h0Z"/><path class="cls-6" d="M86.39,535.69h0Z"/><path d="M89.05,539.11H86.39v-3.42Zm0,0Z"/><path class="cls-6" d="M89.05,539.11H86.39v-3.42Zm0,0Z"/><polygon points="86.39 535.69 89.05 535.69 89.05 539.11 86.39 535.69"/><polygon class="cls-6" points="86.39 535.69 89.05 535.69 89.05 539.11 86.39 535.69"/><path d="M89.05,535.69h0Z"/><path class="cls-6" d="M89.05,535.69h0Z"/><path d="M91.7,539.11H89.05v-3.42Zm0,0Z"/><path class="cls-6" d="M91.7,539.11H89.05v-3.42Zm0,0Z"/><polygon points="89.05 535.69 91.7 535.69 91.7 539.11 89.05 535.69"/><polygon class="cls-6" points="89.05 535.69 91.7 535.69 91.7 539.11 89.05 535.69"/><path d="M139.52,535.69h0Z"/><path class="cls-6" d="M139.52,535.69h0Z"/><path d="M147.49,539.11h-8v-3.42Zm0,0Z"/><path class="cls-6" d="M147.49,539.11h-8v-3.42Zm0,0Z"/><polygon points="139.52 535.69 147.49 535.69 147.49 539.11 139.52 535.69"/><polygon class="cls-6" points="139.52 535.69 147.49 535.69 147.49 539.11 139.52 535.69"/><polyline class="cls-6" points="30.61 539.11 38.58 539.11 38.58 535.69 30.61 535.69"/><polyline class="cls-6" points="89.05 535.69 86.39 535.69 86.39 539.11 89.05 539.11"/><line class="cls-6" x1="38.58" y1="539.11" x2="86.39" y2="539.11"/><line class="cls-6" x1="86.39" y1="535.69" x2="38.58" y2="535.69"/><polyline class="cls-6" points="89.05 539.11 91.7 539.11 91.7 535.69 89.05 535.69"/><polyline class="cls-6" points="147.49 535.69 139.52 535.69 139.52 539.11 147.49 539.11"/><line class="cls-6" x1="91.7" y1="539.11" x2="139.52" y2="539.11"/><line class="cls-6" x1="139.52" y1="535.69" x2="91.7" y2="535.69"/><polyline class="cls-6" points="33.27 539.11 30.61 539.11 30.61 538.35 30.61 535.69"/><polyline class="cls-6" points="144.83 539.11 147.49 539.11 147.49 538.35 147.49 535.69"/><polyline class="cls-6" points="222.24 108.02 222.24 123.2 186.95 123.2 186.95 108.02"/><line class="cls-6" x1="199.1" y1="123.2" x2="210.1" y2="123.2"/><line class="cls-6" x1="201.37" y1="111.06" x2="203.27" y2="111.06"/><line class="cls-6" x1="204.41" y1="114.09" x2="204.41" y2="112.2"/><line class="cls-6" x1="205.55" y1="111.06" x2="207.44" y2="111.06"/><line class="cls-6" x1="204.41" y1="109.92" x2="204.41" y2="108.02"/><path class="cls-6" d="M213.52,114.23a15.79,15.79,0,0,0,6.11-7.44"/><path class="cls-6" d="M204.47,116.7a15.77,15.77,0,0,0,9.39-2.21"/><path class="cls-6" d="M188.81,106.79a15.79,15.79,0,0,0,6.11,7.44"/><path class="cls-6" d="M195,114.49a15.75,15.75,0,0,0,9.38,2.21"/><path class="cls-6" d="M216.3,98.87A29,29,0,0,0,205.59,96"/><path class="cls-6" d="M189.91,100.5a8.92,8.92,0,0,0-3.33,7.33"/><path class="cls-6" d="M205.45,95.92a16.83,16.83,0,0,0-2.46,0"/><path class="cls-6" d="M194.3,114.09a64.77,64.77,0,0,0,19.85,0"/><path class="cls-6" d="M187.72,105.55a22.2,22.2,0,0,0,5,14.43"/><path class="cls-6" d="M194.07,121a44,44,0,0,0,10.1,1.09"/><path class="cls-6" d="M192.53,119.88a2.82,2.82,0,0,0,1.57,1"/><path class="cls-6" d="M194.18,120.2a75.91,75.91,0,0,0,10,.72"/><path class="cls-6" d="M187.71,105.67a20,20,0,0,0,5,13.44"/><path class="cls-6" d="M192.6,118.82a2.89,2.89,0,0,0,1.74.94"/><path class="cls-6" d="M216.11,119.13a19.92,19.92,0,0,0,5-13.43"/><path class="cls-6" d="M216.08,120a22.19,22.19,0,0,0,5-14.43"/><path class="cls-6" d="M204.17,120.92a75.73,75.73,0,0,0,10-.7"/><path class="cls-6" d="M204.2,122.06A44,44,0,0,0,214.31,121"/><path class="cls-6" d="M214.09,119.76a2.84,2.84,0,0,0,1.75-.94"/><path class="cls-6" d="M214.33,120.85a2.85,2.85,0,0,0,1.58-1"/><path class="cls-6" d="M221.86,107.83a8.92,8.92,0,0,0-3.33-7.33"/><path class="cls-6" d="M218.57,100.43a14.38,14.38,0,0,0-2.34-1.51"/><path class="cls-6" d="M192.2,98.92a14.73,14.73,0,0,0-2.33,1.51"/><path class="cls-6" d="M203.23,96a29,29,0,0,0-10.72,2.91"/><path class="cls-6" d="M209.07,98.73a20.65,20.65,0,0,0-9.7,0"/><path class="cls-6" d="M219.58,107a5.12,5.12,0,0,0-1.77-4.22"/><path class="cls-6" d="M217.87,102.49a19.13,19.13,0,0,0-8.81-4"/><path class="cls-6" d="M190.63,102.82a5.12,5.12,0,0,0-1.77,4.22"/><path class="cls-6" d="M199.37,98.45a19.14,19.14,0,0,0-8.8,4"/><path class="cls-6" d="M206.69,110.87a2.47,2.47,0,1,0-2.47,2.46,2.48,2.48,0,0,0,2.47-2.46"/><path class="cls-6" d="M205.93,110.87a1.71,1.71,0,1,0-1.71,1.71,1.71,1.71,0,0,0,1.71-1.71"/><line class="cls-6" x1="281.82" y1="105.74" x2="259.05" y2="105.74"/><polyline class="cls-6" points="283.34 106.5 291.69 106.5 291.69 82.22"/><line class="cls-6" x1="277.65" y1="94.36" x2="277.65" y2="85.63"/><polyline class="cls-6" points="259.05 105.75 277.65 103.47 277.65 94.36"/><line class="cls-6" x1="259.05" y1="83.36" x2="277.65" y2="85.63"/><line class="cls-6" x1="259.05" y1="104.99" x2="277.65" y2="103.09"/><line class="cls-6" x1="259.05" y1="83.74" x2="277.65" y2="86.01"/><line class="cls-6" x1="281.82" y1="83.36" x2="259.05" y2="83.36"/><line class="cls-6" x1="291.69" y1="82.22" x2="283.34" y2="82.22"/><polyline class="cls-6" points="259.05 105.75 256.4 105.36 254.12 104.61 251.84 102.71 250.33 100.81 249.19 98.53 248.43 95.88 248.43 93.22 249.19 90.57 250.33 88.29 251.84 86.01 254.12 84.49 256.4 83.73 259.05 83.36"/><polyline class="cls-6" points="259.05 104.99 256.78 104.99 254.5 103.85 252.22 102.33 250.71 100.43 249.57 98.16 249.19 95.88 249.19 93.22 249.57 90.57 250.71 88.67 252.22 86.39 254.5 85.25 256.78 84.11 259.05 83.73"/><polyline class="cls-6" points="283.34 82.22 282.96 82.22 282.58 82.6 282.2 82.6 282.2 82.98 281.82 82.98 281.82 83.36 281.82 83.73 281.06 94.36 281.82 105.36 281.82 105.75 282.2 106.12 282.58 106.5 282.96 106.5 283.34 106.5"/><polyline class="cls-6" points="287.51 94.36 287.51 94.74 287.51 95.12 287.13 95.5 286.76 95.5 286.38 95.88 286.38 95.5 286 95.5 285.62 95.5 285.24 95.12 285.24 94.74 285.24 94.36 285.24 93.98 285.24 93.6 285.62 93.6 286 93.22 286.38 93.22 286.76 93.22 286.76 93.6 287.13 93.6 287.51 93.98 287.51 94.36"/><polyline class="cls-6" points="157.73 53 157.73 13.53 118.65 13.53 118.65 53 157.73 53"/><line class="cls-6" x1="288.27" y1="53.38" x2="288.27" y2="22.26"/><line class="cls-6" x1="284.86" y1="18.46" x2="208.2" y2="18.46"/><line class="cls-6" x1="284.86" y1="57.17" x2="208.2" y2="57.17"/><line class="cls-6" x1="186.95" y1="14.67" x2="291.69" y2="14.67"/><polyline class="cls-6" points="186.95 14.67 186.95 60.59 291.69 60.59 291.69 14.67"/><line class="cls-6" x1="220.73" y1="50.72" x2="280.3" y2="50.72"/><line class="cls-6" x1="282.2" y1="48.82" x2="282.2" y2="26.81"/><line class="cls-6" x1="220.73" y1="24.92" x2="280.3" y2="24.92"/><line class="cls-6" x1="270.06" y1="38.96" x2="270.06" y2="41.23"/><line class="cls-6" x1="270.82" y1="37.82" x2="273.09" y2="37.82"/><line class="cls-6" x1="270.06" y1="36.68" x2="270.06" y2="34.4"/><line class="cls-6" x1="268.92" y1="37.82" x2="266.64" y2="37.82"/><polyline class="cls-6" points="208.2 18.46 204.79 18.84 201.75 19.6 198.72 21.5 196.06 23.4 193.78 26.05 191.89 29.09 190.75 32.51 189.99 35.92 189.99 39.34 190.75 43.13 191.89 46.17 193.78 49.2 196.06 51.86 198.72 54.14 201.75 55.65 204.79 56.79 208.2 57.17"/><polyline class="cls-6" points="288.27 22.26 288.27 21.5 287.89 20.74 287.89 20.36 287.51 19.6 287.13 19.22 286.38 18.84 286 18.84 285.24 18.46 284.86 18.46"/><polyline class="cls-6" points="284.86 57.17 285.24 57.17 286 56.79 286.38 56.41 287.13 56.03 287.51 55.65 287.89 55.27 287.89 54.52 288.27 54.14 288.27 53.38"/><polyline class="cls-6" points="270.06 35.92 269.68 35.92 269.3 35.92 268.92 36.3 268.54 36.3 268.54 36.68 268.16 37.06 268.16 37.44 268.16 37.82 268.16 38.2 268.16 38.58 268.54 38.96 268.92 39.34 269.3 39.72 269.68 39.72 270.06 39.72 270.44 39.72 270.82 39.34 271.2 39.34 271.2 38.96 271.58 38.58 271.58 38.2 271.58 37.82 271.58 37.44 271.58 37.06 271.2 36.68 271.2 36.3 270.82 36.3 270.44 35.92 270.06 35.92"/><polyline class="cls-6" points="220.73 24.92 218.45 24.92 216.17 25.68 214.28 26.81 212.38 28.33 210.86 29.85 209.72 32.13 208.96 34.4 208.2 36.68 208.2 38.96 208.96 41.23 209.72 43.51 210.86 45.41 212.38 47.3 214.28 48.82 216.17 49.96 218.45 50.34 220.73 50.72"/><polyline class="cls-6" points="280.3 50.72 280.68 50.72 281.06 50.72 281.44 50.34 281.82 49.96 281.82 49.58 282.2 49.58 282.2 49.2 282.2 48.82"/><polyline class="cls-6" points="282.2 26.81 282.2 26.43 282.2 26.05 281.82 25.68 281.44 25.3 281.44 24.92 281.06 24.92 280.68 24.92 280.3 24.92"/><polyline class="cls-6" points="270.06 35.16 269.3 35.16 268.92 35.54 268.54 35.54 268.16 35.92 267.78 36.3 267.78 36.68 267.4 37.06 267.4 37.44 267.4 38.2 267.4 38.58 267.78 38.96 268.16 39.34 268.54 39.72 268.92 40.09 269.3 40.09 269.68 40.48 270.06 40.48 270.44 40.09 271.2 40.09 271.58 39.72 271.58 39.34 271.96 38.96 272.33 38.58 272.33 38.2 272.33 37.44 272.33 37.06 271.96 36.68 271.96 36.3 271.58 35.92 271.2 35.54 270.82 35.54 270.44 35.16 270.06 35.16"/><path d="M171,539.11l32.64,8H171Zm32.64,0H171l32.64,8Z"/><path class="cls-6" d="M171,539.11l32.64,8H171Zm32.64,0H171l32.64,8Z"/><path d="M315.22,539.11l23.14,8H315.22Zm23.14,0H315.22l23.14,8Z"/><path class="cls-6" d="M315.22,539.11l23.14,8H315.22Zm23.14,0H315.22l23.14,8Z"/><path d="M171,538.35l30.36.76H171Zm30.36,0H171l30.36.76Z"/><path class="cls-6" d="M171,538.35l30.36.76H171Zm30.36,0H171l30.36.76Z"/><path d="M317.87,538.35l20.49.76H317.87Zm20.49,0H317.87l20.49.76Z"/><path class="cls-6" d="M317.87,538.35l20.49.76H317.87Zm20.49,0H317.87l20.49.76Z"/><path d="M171,528.48l30.36,7.21H171Zm30.36,0H171l30.36,7.21Z"/><path class="cls-6" d="M171,528.48l30.36,7.21H171Zm30.36,0H171l30.36,7.21Z"/><path d="M171,535.69l30.36,2.66H171Zm30.36,0H171l30.36,2.66Z"/><path class="cls-6" d="M171,535.69l30.36,2.66H171Zm30.36,0H171l30.36,2.66Z"/><path d="M317.87,528.48l20.49,7.21H317.87Zm20.49,0H317.87l20.49,7.21Z"/><path class="cls-6" d="M317.87,528.48l20.49,7.21H317.87Zm20.49,0H317.87l20.49,7.21Z"/><path d="M317.87,535.69l20.49,2.66H317.87Zm20.49,0H317.87l20.49,2.66Z"/><path class="cls-6" d="M317.87,535.69l20.49,2.66H317.87Zm20.49,0H317.87l20.49,2.66Z"/><path d="M328.5,512.17l9.86,16.31H328.5Zm9.86,0H328.5l9.86,16.31Z"/><path class="cls-6" d="M328.5,512.17l9.86,16.31H328.5Zm9.86,0H328.5l9.86,16.31Z"/><path d="M317.87,512.17l10.63,16.31H317.87Zm10.63,0H317.87l10.63,16.31Z"/><path class="cls-6" d="M317.87,512.17l10.63,16.31H317.87Zm10.63,0H317.87l10.63,16.31Z"/><path d="M171,512.17l30.36,16.31H171Zm30.36,0H171l30.36,16.31Z"/><path class="cls-6" d="M171,512.17l30.36,16.31H171Zm30.36,0H171l30.36,16.31Z"/><line class="cls-6" x1="317.87" y1="539.11" x2="338.36" y2="539.11"/><line class="cls-6" x1="171.01" y1="539.11" x2="201.37" y2="539.11"/><line class="cls-6" x1="317.87" y1="538.35" x2="338.36" y2="538.35"/><line class="cls-6" x1="171.01" y1="538.35" x2="201.37" y2="538.35"/><line class="cls-6" x1="317.87" y1="512.17" x2="317.87" y2="528.48"/><line class="cls-6" x1="328.5" y1="528.48" x2="328.5" y2="512.17"/><polyline class="cls-6" points="317.87 535.69 317.87 528.48 317.87 512.16"/><polyline class="cls-6" points="315.22 547.08 315.22 539.11 317.87 539.11"/><polyline class="cls-6" points="317.87 539.11 317.87 538.35 317.87 535.69"/><polyline class="cls-6" points="201.37 535.69 201.37 528.48 201.37 512.16"/><polyline class="cls-6" points="203.65 547.08 203.65 539.11 201.37 539.11"/><polyline class="cls-6" points="201.37 539.11 201.37 538.35 201.37 535.69"/><line class="cls-6" x1="171.01" y1="547.08" x2="203.65" y2="547.08"/><line class="cls-6" x1="315.22" y1="547.08" x2="338.36" y2="547.08"/><line class="cls-6" x1="338.36" y1="512.17" x2="328.5" y2="512.17"/><line class="cls-6" x1="201.37" y1="512.17" x2="171.01" y2="512.17"/><line class="cls-6" x1="203.65" y1="547.08" x2="315.22" y2="547.08"/><line class="cls-6" x1="201.37" y1="512.17" x2="317.87" y2="512.17"/><path d="M201.37,535.69l7.59,3.42h-7.59Zm7.59,0h-7.59l7.59,3.42Z"/><path class="cls-6" d="M201.37,535.69l7.59,3.42h-7.59Zm7.59,0h-7.59l7.59,3.42Z"/><path d="M257.16,535.69l2.27,3.42h-2.27Zm2.27,0h-2.27l2.27,3.42Z"/><path class="cls-6" d="M257.16,535.69l2.27,3.42h-2.27Zm2.27,0h-2.27l2.27,3.42Z"/><path d="M259.43,535.69l2.66,3.42h-2.66Zm2.66,0h-2.66l2.66,3.42Z"/><path class="cls-6" d="M259.43,535.69l2.66,3.42h-2.66Zm2.66,0h-2.66l2.66,3.42Z"/><path d="M310.28,535.69l7.59,3.42h-7.59Zm7.59,0h-7.59l7.59,3.42Z"/><path class="cls-6" d="M310.28,535.69l7.59,3.42h-7.59Zm7.59,0h-7.59l7.59,3.42Z"/><polyline class="cls-6" points="201.37 535.69 208.96 535.69 208.96 539.11 201.37 539.11"/><polyline class="cls-6" points="259.43 539.11 257.16 539.11 257.16 535.69 259.43 535.69"/><line class="cls-6" x1="208.96" y1="535.69" x2="257.16" y2="535.69"/><line class="cls-6" x1="257.16" y1="539.11" x2="208.96" y2="539.11"/><polyline class="cls-6" points="259.43 535.69 262.09 535.69 262.09 539.11 259.43 539.11"/><polyline class="cls-6" points="317.87 539.11 310.28 539.11 310.28 535.69 317.87 535.69"/><line class="cls-6" x1="262.09" y1="535.69" x2="310.28" y2="535.69"/><line class="cls-6" x1="310.28" y1="539.11" x2="262.09" y2="539.11"/><polyline class="cls-6" points="203.65 539.11 201.37 539.11 201.37 538.35 201.37 535.69"/><polyline class="cls-6" points="315.22 539.11 317.87 539.11 317.87 538.35 317.87 535.69"/><path d="M342.16,542.14l-3.8,4.94v-8Zm0,4.94v-4.94l-3.8,4.94Z"/><path class="cls-6" d="M342.16,542.14l-3.8,4.94v-8Zm0,4.94v-4.94l-3.8,4.94Z"/><polygon points="342.16 542.14 338.37 539.11 342.16 539.11 342.16 542.14"/><polygon class="cls-6" points="342.16 542.14 338.37 539.11 342.16 539.11 342.16 542.14"/><path d="M342.16,538.73l-3.8.38v-.76Zm0,.38v-.38l-3.8.38Z"/><path class="cls-6" d="M342.16,538.73l-3.8.38v-.76Zm0,.38v-.38l-3.8.38Z"/><polygon points="342.16 538.73 338.37 538.35 342.16 538.35 342.16 538.73"/><polygon class="cls-6" points="342.16 538.73 338.37 538.35 342.16 538.35 342.16 538.73"/><path d="M342.16,531.52l-3.8,4.17v-7.21Zm0,4.17v-4.17l-3.8,4.17Z"/><path class="cls-6" d="M342.16,531.52l-3.8,4.17v-7.21Zm0,4.17v-4.17l-3.8,4.17Z"/><polygon points="342.16 531.52 338.37 528.48 342.16 528.48 342.16 531.52"/><polygon class="cls-6" points="342.16 531.52 338.37 528.48 342.16 528.48 342.16 531.52"/><path d="M342.16,536.83l-3.8,1.52v-2.66Zm0,1.52v-1.52l-3.8,1.52Z"/><path class="cls-6" d="M342.16,536.83l-3.8,1.52v-2.66Zm0,1.52v-1.52l-3.8,1.52Z"/><polygon points="342.16 536.83 338.37 535.69 342.16 535.69 342.16 536.83"/><polygon class="cls-6" points="342.16 536.83 338.37 535.69 342.16 535.69 342.16 536.83"/><path d="M342.16,519l-3.8,9.48V512.17Zm0,9.48V519l-3.8,9.48Z"/><path class="cls-6" d="M342.16,519l-3.8,9.48V512.17Zm0,9.48V519l-3.8,9.48Z"/><polygon points="342.16 519 338.37 512.16 342.16 512.16 342.16 519"/><polygon class="cls-6" points="342.16 519 338.37 512.16 342.16 512.16 342.16 519"/><line class="cls-6" x1="338.36" y1="539.11" x2="342.16" y2="539.11"/><line class="cls-6" x1="338.36" y1="538.35" x2="342.16" y2="538.35"/><line class="cls-6" x1="338.36" y1="547.08" x2="342.16" y2="547.08"/><line class="cls-6" x1="342.16" y1="512.17" x2="338.36" y2="512.17"/><path d="M118.65,123.2h0Z"/><path class="cls-6" d="M118.65,123.2h0Z"/><path d="M121.68,128.13h-3V123.2Zm0,0Z"/><path class="cls-6" d="M121.68,128.13h-3V123.2Zm0,0Z"/><polygon points="118.65 123.2 121.68 123.2 121.68 128.13 118.65 123.2"/><polygon class="cls-6" points="118.65 123.2 121.68 123.2 121.68 128.13 118.65 123.2"/><path d="M174.43,123.2h0Z"/><path class="cls-6" d="M174.43,123.2h0Z"/><path d="M317.87,128.13H174.43V123.2Zm0,0Z"/><path class="cls-6" d="M317.87,128.13H174.43V123.2Zm0,0Z"/><polygon points="174.43 123.2 317.87 123.2 317.87 128.13 174.43 123.2"/><polygon class="cls-6" points="174.43 123.2 317.87 123.2 317.87 128.13 174.43 123.2"/><line class="cls-6" x1="121.68" y1="128.13" x2="121.68" y2="123.2"/><line class="cls-6" x1="174.43" y1="128.13" x2="174.43" y2="123.2"/><line class="cls-6" x1="118.65" y1="128.13" x2="121.68" y2="128.13"/><line class="cls-6" x1="174.43" y1="128.13" x2="177.47" y2="128.13"/><polyline class="cls-6" points="182.78 128.13 317.87 128.13 317.87 123.2 298.14 123.2"/><line class="cls-6" x1="293.21" y1="123.2" x2="174.43" y2="123.2"/><polyline class="cls-6" points="121.68 123.2 118.65 123.2 118.65 128.13"/><line class="cls-6" x1="121.68" y1="128.13" x2="125.1" y2="128.13"/><line class="cls-6" x1="121.68" y1="123.2" x2="125.1" y2="123.2"/><line class="cls-6" x1="174.43" y1="128.13" x2="171.01" y2="128.13"/><line class="cls-6" x1="174.43" y1="123.2" x2="171.01" y2="123.2"/><line class="cls-6" x1="125.1" y1="123.2" x2="125.1" y2="128.13"/><polyline class="cls-6" points="171.01 123.2 171.01 128.13 131.17 151.28"/><path class="cls-6" d="M124.72,127.94A46.08,46.08,0,0,0,130.9,151"/><path d="M13.53,239.7h0Z"/><path class="cls-6" d="M13.53,239.7h0Z"/><path d="M111.82,245H13.53V239.7Zm0,0Z"/><path class="cls-6" d="M111.82,245H13.53V239.7Zm0,0Z"/><polygon points="13.53 239.7 111.82 239.7 111.82 245.01 13.53 239.7"/><polygon class="cls-6" points="13.53 239.7 111.82 239.7 111.82 245.01 13.53 239.7"/><path d="M171,239.7h0Z"/><path class="cls-6" d="M171,239.7h0Z"/><path d="M182.78,245H171V239.7Zm0,0Z"/><path class="cls-6" d="M182.78,245H171V239.7Zm0,0Z"/><polygon points="171.01 239.7 177.47 239.7 182.78 245.01 171.01 239.7"/><polygon class="cls-6" points="171.01 239.7 177.47 239.7 182.78 245.01 171.01 239.7"/><line class="cls-6" x1="111.82" y1="245.01" x2="111.82" y2="239.7"/><line class="cls-6" x1="171.01" y1="245.01" x2="171.01" y2="239.7"/><line class="cls-6" x1="13.53" y1="245.01" x2="111.82" y2="245.01"/><line class="cls-6" x1="171.01" y1="245.01" x2="182.78" y2="245.01"/><line class="cls-6" x1="177.47" y1="239.7" x2="171.01" y2="239.7"/><polyline class="cls-6" points="111.82 239.7 13.53 239.7 13.53 245.01"/><line class="cls-6" x1="171.01" y1="245.01" x2="167.6" y2="245.01"/><line class="cls-6" x1="171.01" y1="239.7" x2="167.6" y2="239.7"/><line class="cls-6" x1="111.82" y1="245.01" x2="115.23" y2="245.01"/><line class="cls-6" x1="111.82" y1="239.7" x2="115.23" y2="239.7"/><line class="cls-6" x1="167.6" y1="239.7" x2="167.6" y2="245.01"/><polyline class="cls-6" points="115.23 239.7 115.23 245.01 115.23 297.76"/><path class="cls-6" d="M115,297.38a52.56,52.56,0,0,0,52.56-52.56"/><path d="M177.47,128.13h0Z"/><path class="cls-6" d="M177.47,128.13h0Z"/><path d="M177.47,239.7h5.31V245Zm0-111.57V239.7h5.31Z"/><path class="cls-6" d="M177.47,239.7h5.31V245Zm0-111.57V239.7h5.31Z"/><polygon points="177.47 128.13 182.78 128.13 182.78 239.7 177.47 128.13"/><polygon class="cls-6" points="177.47 128.13 182.78 128.13 182.78 239.7 177.47 128.13"/><line class="cls-6" x1="182.78" y1="245.01" x2="182.78" y2="128.13"/><line class="cls-6" x1="177.47" y1="128.13" x2="177.47" y2="239.7"/><polygon points="163.05 0.25 163.05 0.25 158.11 0.25 163.05 0.25"/><polygon class="cls-6" points="163.05 0.25 163.05 0.25 158.11 0.25 163.05 0.25"/><path d="M298.14,123.2h-4.93V13.53Zm0,0Z"/><path class="cls-6" d="M298.14,123.2h-4.93V13.53Zm0,0Z"/><polygon points="293.21 13.53 298.14 13.53 298.14 123.2 293.21 13.53"/><polygon class="cls-6" points="293.21 13.53 298.14 13.53 298.14 123.2 293.21 13.53"/><line class="cls-6" x1="293.21" y1="13.53" x2="293.21" y2="123.2"/><line class="cls-6" x1="298.14" y1="123.2" x2="298.14" y2="90.19"/><polyline class="cls-6" points="298.14 84.87 298.14 13.53 293.21 13.53"/><path d="M298.14,84.87l19.73,5.32H298.14Zm19.73,0H298.14l19.73,5.32Z"/><path class="cls-6" d="M298.14,84.87l19.73,5.32H298.14Zm19.73,0H298.14l19.73,5.32Z"/><polyline class="cls-6" points="298.14 90.19 317.87 90.19 317.87 84.87 298.14 84.87"/><polyline points="0.25 115.23 39.72 115.23 0.25 115.23"/><polyline class="cls-6" points="0.25 115.23 39.72 115.23 0.25 115.23"/><polyline points="0.25 115.23 39.72 128.13 0.25 128.13"/><polyline points="0.25 128.13 39.72 128.13 39.72 128.13 0.25 128.13"/><polyline class="cls-6" points="0.25 115.23 39.72 128.13 0.25 128.13"/><polyline class="cls-6" points="0.25 128.13 39.72 128.13 39.72 128.13 0.25 128.13"/><polyline points="0.25 115.23 39.72 115.23 39.72 128.13 0.25 115.23"/><polyline class="cls-6" points="0.25 115.23 39.72 115.23 39.72 128.13 0.25 115.23"/><path d="M118.65,128.13h0Zm-13.28-12.9,13.28,12.9H105.37Z"/><path class="cls-6" d="M118.65,128.13h0Zm-13.28-12.9,13.28,12.9H105.37Z"/><line class="cls-6" x1="39.72" y1="128.13" x2="39.72" y2="115.23"/><line class="cls-6" x1="105.37" y1="128.13" x2="105.37" y2="115.23"/><line class="cls-6" x1="0.25" y1="128.13" x2="0.25" y2="128.13"/><line class="cls-6" x1="13.53" y1="128.13" x2="39.72" y2="128.13"/><line class="cls-6" x1="105.37" y1="128.13" x2="118.65" y2="128.13"/><line class="cls-6" x1="39.72" y1="115.23" x2="0.25" y2="115.23"/><path class="cls-6" d="M42.18,188.47a60.53,60.53,0,0,0,60.53-60.53"/><path d="M102.71,115.23h0Z"/><path class="cls-6" d="M102.71,115.23h0Z"/><path d="M105.37,128.13h-2.66v-12.9Zm0,0Z"/><path class="cls-6" d="M105.37,128.13h-2.66v-12.9Zm0,0Z"/><polygon points="102.71 115.23 105.36 115.23 105.36 128.13 102.71 115.23"/><polygon class="cls-6" points="102.71 115.23 105.36 115.23 105.36 128.13 102.71 115.23"/><path d="M39.72,115.23h0Z"/><path class="cls-6" d="M39.72,115.23h0Z"/><path d="M42.37,128.13H39.72v-12.9Zm0,0Z"/><path class="cls-6" d="M42.37,128.13H39.72v-12.9Zm0,0Z"/><polygon points="39.72 115.23 42.37 115.23 42.37 128.13 39.72 115.23"/><polygon class="cls-6" points="39.72 115.23 42.37 115.23 42.37 128.13 39.72 115.23"/><polyline class="cls-6" points="105.36 115.23 102.71 115.23 102.71 128.13 105.36 128.13 105.36 115.23"/><polyline class="cls-6" points="39.72 128.13 42.37 128.13 42.37 115.23 39.72 115.23 39.72 128.13"/><line class="cls-6" x1="42.37" y1="128.13" x2="42.37" y2="188.85"/><line class="cls-6" x1="105.37" y1="128.13" x2="105.37" y2="115.23"/><line class="cls-6" x1="39.72" y1="128.13" x2="39.72" y2="115.23"/><path d="M105.37,13.53h0Z"/><path class="cls-6" d="M105.37,13.53h0Z"/><path d="M105.37,115.23h13.28v12.9Zm0-101.7v101.7h13.28Z"/><path class="cls-6" d="M105.37,115.23h13.28v12.9Zm0-101.7v101.7h13.28Z"/><polygon points="105.36 13.53 118.65 13.53 118.65 115.23 105.36 13.53"/><polygon class="cls-6" points="105.36 13.53 118.65 13.53 118.65 115.23 105.36 13.53"/><line class="cls-6" x1="105.37" y1="13.53" x2="105.37" y2="115.23"/><line class="cls-6" x1="118.65" y1="128.13" x2="118.65" y2="13.53"/><path d="M105.37.25h0Z"/><path class="cls-6" d="M105.37.25h0Z"/><path d="M252.22,13.53H105.37V.25Zm0,0Z"/><path class="cls-6" d="M252.22,13.53H105.37V.25Zm0,0Z"/><polygon points="105.36 0.25 252.22 0.25 252.22 13.53 105.36 0.25"/><polygon class="cls-6" points="105.36 0.25 252.22 0.25 252.22 13.53 105.36 0.25"/><line class="cls-6" x1="105.37" y1="0.25" x2="105.37" y2="13.53"/><line class="cls-6" x1="105.37" y1="13.53" x2="105.37" y2="13.53"/><polyline class="cls-6" points="118.65 13.53 252.22 13.53 252.22 0.25 105.36 0.25"/><path d="M105.37.25Z"/><path class="cls-6" d="M105.37.25Z"/><path d="M105.37,13.53h0v0Zm0,0Z"/><path class="cls-6" d="M105.37,13.53h0v0Zm0,0Z"/><polygon points="105.36 0.25 105.36 0.25 105.36 13.53 105.36 0.25"/><polygon class="cls-6" points="105.36 0.25 105.36 0.25 105.36 13.53 105.36 0.25"/><polyline class="cls-6" points="105.36 13.53 105.36 13.53 105.36 0.25 105.36 0.25 105.36 13.53"/><line class="cls-6" x1="105.37" y1="0.25" x2="105.37" y2="13.53"/><path d="M.25,128.13h0Z"/><path class="cls-6" d="M.25,128.13h0Z"/><path d="M13.53,239.7H.25V128.13Zm0,0Z"/><path class="cls-6" d="M13.53,239.7H.25V128.13Zm0,0Z"/><polygon points="0.25 128.13 13.53 128.13 13.53 239.7 0.25 128.13"/><polygon class="cls-6" points="0.25 128.13 13.53 128.13 13.53 239.7 0.25 128.13"/><line class="cls-6" x1="13.53" y1="239.7" x2="13.53" y2="128.13"/><polyline class="cls-6" points="0.25 115.23 0.25 239.7 13.53 239.7"/><path d="M.25,305.35h0Z"/><path class="cls-6" d="M.25,305.35h0Z"/><path d="M13.53,463.21H.25V305.35Zm0,0Z"/><path class="cls-6" d="M13.53,463.21H.25V305.35Zm0,0Z"/><polygon points="0.25 305.35 13.53 305.35 13.53 463.21 0.25 305.35"/><polygon class="cls-6" points="0.25 305.35 13.53 305.35 13.53 463.21 0.25 305.35"/><polyline class="cls-6" points="13.53 463.21 13.53 305.35 0.25 305.35 0.25 463.21 13.53 463.21"/><polyline class="cls-6" points="144.83 584.65 144.83 547.08 146.35 547.08 146.35 586.54 144.83 584.65"/><polyline class="cls-6" points="82.6 586.54 82.6 547.08 84.49 547.08 84.49 584.65 144.83 584.65 146.35 586.54 82.6 586.54 84.49 584.65 82.6 586.54"/><polyline class="cls-6" points="83.73 585.4 145.59 585.4 145.59 547.08"/><polyline class="cls-6" points="86.01 574.78 143.31 574.78 143.31 553.53 86.01 553.53 86.01 574.78"/><polyline class="cls-6" points="86.01 572.5 143.31 572.5 143.31 553.53 86.01 553.53 86.01 572.5"/><line class="cls-6" x1="83.74" y1="585.4" x2="83.74" y2="547.08"/><polyline class="cls-6" points="315.22 167.6 315.22 128.13 276.13 128.13 276.13 167.6 295.86 167.6 315.22 167.6"/><polyline class="cls-6" points="312.94 164.94 312.94 130.79 278.79 130.79 278.79 164.94 295.86 164.94 312.94 164.94"/><line class="cls-6" x1="182.78" y1="167.6" x2="315.22" y2="167.6"/><line class="cls-6" x1="317.87" y1="245.01" x2="316.37" y2="245.01"/><line class="cls-7" x1="313.38" y1="245.01" x2="183.12" y2="245.01"/><line class="cls-6" x1="181.62" y1="245.01" x2="180.12" y2="245.01"/><line class="cls-6" x1="182.78" y1="245.01" x2="182.78" y2="245.01"/><polyline points="331.91 0.25 342.16 530.76 331.91 530.76 331.91 0.25"/><polygon points="342.16 530.76 342.16 530.76 331.91 530.76 342.16 530.76"/><polyline class="cls-6" points="331.91 0.25 342.16 530.76 331.91 530.76 331.91 0.25"/><polygon class="cls-6" points="342.16 530.76 342.16 530.76 331.91 530.76 342.16 530.76"/><polyline points="342.16 0.25 342.16 530.76 331.91 0.25"/><polyline class="cls-6" points="342.16 0.25 342.16 530.76 331.91 0.25"/><polyline class="cls-6" points="331.91 0.25 331.91 530.76 342.16 530.76"/><line class="cls-6" x1="342.16" y1="530.76" x2="342.16" y2="0.25"/><path d="M328.5,530.76H317.87V13.53Zm0,0Z"/><path class="cls-6" d="M328.5,530.76H317.87V13.53Zm0,0Z"/><polygon points="317.87 13.53 328.5 13.53 328.5 530.76 317.87 13.53"/><polygon class="cls-6" points="317.87 13.53 328.5 13.53 328.5 530.76 317.87 13.53"/><polyline points="317.87 0.25 328.5 0.25 317.87 0.25 317.87 0.25"/><polyline points="317.87 0.25 328.5 0.25 328.5 0.25"/><polyline class="cls-6" points="317.87 0.25 328.5 0.25 317.87 0.25 317.87 0.25"/><polyline class="cls-6" points="317.87 0.25 328.5 0.25 328.5 0.25"/><line class="cls-6" x1="328.5" y1="530.76" x2="328.5" y2="13.53"/><line class="cls-6" x1="317.87" y1="0.25" x2="317.87" y2="0.25"/><line class="cls-6" x1="328.5" y1="0.25" x2="328.5" y2="0.25"/><polyline class="cls-6" points="317.87 13.53 317.87 530.76 328.5 530.76"/><path d="M.25,463.21h0Z"/><path class="cls-6" d="M.25,463.21h0Z"/><path d="M13.53,512.17H.25v-49Zm0,0Z"/><path class="cls-6" d="M13.53,512.17H.25v-49Zm0,0Z"/><polygon points="0.25 463.21 13.53 463.21 13.53 512.16 0.25 463.21"/><polygon class="cls-6" points="0.25 463.21 13.53 463.21 13.53 512.16 0.25 463.21"/><polyline class="cls-6" points="13.53 512.16 13.53 463.21 0.25 463.21 0.25 512.16"/><path d="M.25,239.7h0Z"/><path class="cls-6" d="M.25,239.7h0Z"/><path d="M13.53,305.35H.25V239.7Zm0,0Z"/><path class="cls-6" d="M13.53,305.35H.25V239.7Zm0,0Z"/><polygon points="0.25 239.7 13.53 239.7 13.53 305.35 0.25 239.7"/><polygon class="cls-6" points="0.25 239.7 13.53 239.7 13.53 305.35 0.25 239.7"/><polyline class="cls-6" points="13.53 305.35 13.53 239.7 0.25 239.7 0.25 305.35 13.53 305.35"/><path d="M252.22.25,328.5,13.53H252.22Zm76.28,0H252.22L328.5,13.53Z"/><path class="cls-6" d="M252.22.25,328.5,13.53H252.22Zm76.28,0H252.22L328.5,13.53Z"/><polyline class="cls-6" points="317.87 0.25 252.22 0.25 252.22 13.53 317.87 13.53"/><line class="cls-6" x1="328.5" y1="13.53" x2="328.5" y2="0.25"/></svg>