<svg id="_22" data-name="22" xmlns="http://www.w3.org/2000/svg" viewBox="0 0 139.87 297.59"><defs><style>.cls-1{isolation:isolate;font-size:6px;fill:#969696;font-family:PTSans-Regular, PT Sans;}.cls-10,.cls-11,.cls-12,.cls-13,.cls-2,.cls-6{fill:none;}.cls-2{stroke:#969696;stroke-width:0.37px;}.cls-10,.cls-12,.cls-13,.cls-2{stroke-linecap:round;stroke-linejoin:round;}.cls-3{font-size:14px;}.cls-3,.cls-7{fill:#231f20;font-family:BigCityGrotesquePro-Regular, BigCity Grotesque Pro;}.cls-4{letter-spacing:-0.02em;}.cls-5{letter-spacing:-0.02em;}.cls-10,.cls-11,.cls-13,.cls-6{stroke:#000;}.cls-11,.cls-6{stroke-miterlimit:10;}.cls-11,.cls-13,.cls-6{stroke-width:0.5px;}.cls-7{font-size:18px;}.cls-8{letter-spacing:-0.03em;}.cls-9{letter-spacing:-0.04em;}.cls-11{stroke-dasharray:3 3;}.cls-12{stroke:#1d1d1b;stroke-width:0.2px;}</style></defs><title>3floor_22flat</title><text class="cls-1" transform="translate(67.15 5.1)">двор</text><line class="cls-2" x1="61.77" y1="2.11" x2="61.77" y2="6.51"/><polyline class="cls-2" points="63.52 3.86 61.77 2.11 60.02 3.86"/><text class="cls-3" transform="translate(30.87 259.8)">3<tspan class="cls-4" x="7" y="0">.</tspan><tspan x="9.93" y="0">70</tspan></text><text class="cls-3" transform="translate(80.12 217.16)">12<tspan class="cls-5" x="11.66" y="0">.</tspan><tspan x="14.59" y="0">70</tspan></text><text class="cls-3" transform="translate(20.88 194.94)">5<tspan class="cls-4" x="6.9" y="0">.</tspan><tspan x="9.83" y="0">70</tspan></text><rect class="cls-6" x="56.61" y="108.22" width="62.21" height="24.35"/><rect class="cls-6" x="56.61" y="132.58" width="62.21" height="24.35"/><rect class="cls-6" x="56.61" y="156.93" width="62.21" height="24.35"/><text class="cls-7" transform="translate(69.24 125.89)">№22<tspan x="9.03" y="24">C</tspan><tspan class="cls-8" x="19.07" y="24">T</tspan><tspan x="-0.24" y="48">22</tspan><tspan class="cls-9" x="17.07" y="48">.</tspan><tspan x="20.46" y="48">10</tspan></text><polyline class="cls-10" points="130.88 297.09 139.38 297.09 139.38 237.8"/><line class="cls-11" x1="53.69" y1="112.97" x2="8.64" y2="112.97"/><line class="cls-11" x1="75.67" y1="211.99" x2="75.67" y2="183.16"/><line class="cls-10" x1="130.88" y1="215.28" x2="130.88" y2="212.56"/><line class="cls-10" x1="111.23" y1="212.56" x2="111.23" y2="215.28"/><line class="cls-10" x1="130.88" y1="215.28" x2="111.23" y2="215.28"/><line class="cls-10" x1="130.88" y1="212.56" x2="111.23" y2="212.56"/><line class="cls-10" x1="75.67" y1="262.53" x2="71.62" y2="262.53"/><line class="cls-10" x1="71.62" y1="235.43" x2="75.67" y2="235.43"/><line class="cls-10" x1="75.67" y1="262.53" x2="75.67" y2="288.59"/><line class="cls-10" x1="75.67" y1="212.56" x2="75.67" y2="235.43"/><line class="cls-10" x1="71.62" y1="262.53" x2="71.62" y2="288.59"/><line class="cls-10" x1="71.62" y1="216.65" x2="71.62" y2="235.43"/><polyline class="cls-10" points="8.96 204.42 8.96 208.51 29.29 208.51 29.29 204.42"/><line class="cls-10" x1="8.96" y1="204.42" x2="29.29" y2="204.42"/><line class="cls-10" x1="54.67" y1="212.56" x2="54.67" y2="216.65"/><line class="cls-10" x1="54.67" y1="212.56" x2="75.67" y2="212.56"/><line class="cls-10" x1="54.67" y1="216.65" x2="71.62" y2="216.65"/><line class="cls-10" x1="0.5" y1="60.92" x2="1.43" y2="59.95"/><line class="cls-10" x1="0.5" y1="68.63" x2="8.96" y2="60.17"/><line class="cls-10" x1="0.5" y1="76.37" x2="8.96" y2="67.88"/><line class="cls-10" x1="0.5" y1="84.08" x2="8.96" y2="75.62"/><line class="cls-10" x1="0.5" y1="91.82" x2="8.96" y2="83.36"/><line class="cls-10" x1="0.5" y1="99.53" x2="8.96" y2="91.07"/><line class="cls-10" x1="0.5" y1="107.27" x2="8.96" y2="98.81"/><line class="cls-10" x1="0.5" y1="114.98" x2="8.96" y2="106.52"/><line class="cls-10" x1="0.5" y1="122.72" x2="8.96" y2="114.26"/><line class="cls-10" x1="0.5" y1="130.43" x2="8.96" y2="121.97"/><line class="cls-10" x1="0.5" y1="138.17" x2="8.96" y2="129.71"/><line class="cls-10" x1="0.5" y1="145.88" x2="8.96" y2="137.42"/><line class="cls-10" x1="0.5" y1="153.63" x2="8.96" y2="145.17"/><line class="cls-10" x1="0.5" y1="161.37" x2="8.96" y2="152.87"/><line class="cls-10" x1="0.5" y1="169.08" x2="8.96" y2="160.62"/><line class="cls-10" x1="0.5" y1="176.82" x2="8.96" y2="168.32"/><line class="cls-10" x1="0.5" y1="184.53" x2="8.96" y2="176.07"/><line class="cls-10" x1="0.5" y1="192.27" x2="8.96" y2="183.77"/><line class="cls-10" x1="0.5" y1="199.98" x2="8.96" y2="191.52"/><line class="cls-10" x1="0.5" y1="207.72" x2="8.96" y2="199.26"/><line class="cls-10" x1="0.5" y1="215.43" x2="8.96" y2="206.97"/><line class="cls-10" x1="0.5" y1="223.17" x2="8.96" y2="214.71"/><line class="cls-10" x1="0.5" y1="230.88" x2="8.96" y2="222.42"/><line class="cls-10" x1="0.5" y1="238.62" x2="8.96" y2="230.16"/><line class="cls-10" x1="0.5" y1="246.33" x2="8.96" y2="237.87"/><line class="cls-10" x1="0.5" y1="254.07" x2="8.96" y2="245.61"/><line class="cls-10" x1="0.5" y1="261.81" x2="8.96" y2="253.32"/><line class="cls-10" x1="0.5" y1="269.52" x2="8.96" y2="261.06"/><line class="cls-10" x1="0.5" y1="277.26" x2="8.96" y2="268.77"/><line class="cls-10" x1="0.5" y1="284.97" x2="8.96" y2="276.51"/><line class="cls-10" x1="0.5" y1="292.72" x2="8.96" y2="284.22"/><line class="cls-10" x1="3.83" y1="297.09" x2="8.96" y2="291.96"/><line class="cls-10" x1="0.5" y1="64.76" x2="4.77" y2="60.49"/><line class="cls-10" x1="0.5" y1="72.5" x2="1.86" y2="71.1"/><line class="cls-10" x1="2.83" y1="70.14" x2="2.9" y2="70.06"/><line class="cls-10" x1="3.8" y1="69.17" x2="8.64" y2="64.36"/><line class="cls-10" x1="0.89" y1="79.81" x2="5.73" y2="74.97"/><line class="cls-10" x1="6.7" y1="74.01" x2="6.77" y2="73.94"/><line class="cls-10" x1="7.67" y1="73.04" x2="8.96" y2="71.75"/><line class="cls-10" x1="0.5" y1="87.95" x2="2.83" y2="85.59"/><line class="cls-10" x1="3.8" y1="84.62" x2="3.87" y2="84.55"/><line class="cls-10" x1="4.77" y1="83.69" x2="8.96" y2="79.49"/><line class="cls-10" x1="0.89" y1="95.26" x2="1" y2="95.19"/><line class="cls-10" x1="1.86" y1="94.3" x2="6.7" y2="89.46"/><line class="cls-10" x1="7.67" y1="88.49" x2="7.74" y2="88.42"/><line class="cls-10" x1="8.64" y1="87.52" x2="8.96" y2="87.2"/><line class="cls-10" x1="0.5" y1="103.4" x2="3.8" y2="100.1"/><line class="cls-10" x1="4.77" y1="99.14" x2="4.84" y2="99.03"/><line class="cls-10" x1="5.73" y1="98.17" x2="8.96" y2="94.94"/><line class="cls-10" x1="0.5" y1="111.15" x2="0.89" y2="110.72"/><line class="cls-10" x1="1.86" y1="109.75" x2="1.93" y2="109.68"/><line class="cls-10" x1="2.83" y1="108.78" x2="7.67" y2="103.94"/><line class="cls-10" x1="8.64" y1="102.97" x2="8.71" y2="102.9"/><line class="cls-10" x1="0.5" y1="118.85" x2="4.77" y2="114.59"/><line class="cls-10" x1="5.73" y1="113.62" x2="5.81" y2="113.51"/><line class="cls-10" x1="6.7" y1="112.65" x2="8.96" y2="110.39"/><line class="cls-10" x1="0.5" y1="126.6" x2="1.86" y2="125.2"/><line class="cls-10" x1="2.83" y1="124.23" x2="2.9" y2="124.16"/><line class="cls-10" x1="3.8" y1="123.26" x2="8.64" y2="118.42"/><line class="cls-10" x1="0.89" y1="133.87" x2="5.73" y2="129.07"/><line class="cls-10" x1="6.7" y1="128.1" x2="6.77" y2="128.03"/><line class="cls-10" x1="7.67" y1="127.13" x2="8.96" y2="125.84"/><line class="cls-10" x1="0.5" y1="142.05" x2="2.83" y2="139.68"/><line class="cls-10" x1="3.8" y1="138.71" x2="3.87" y2="138.64"/><line class="cls-10" x1="4.77" y1="137.74" x2="8.96" y2="133.59"/><line class="cls-10" x1="0.89" y1="149.36" x2="1" y2="149.25"/><line class="cls-10" x1="1.86" y1="148.39" x2="6.7" y2="143.55"/><line class="cls-10" x1="7.67" y1="142.58" x2="7.74" y2="142.51"/><line class="cls-10" x1="8.64" y1="141.62" x2="8.96" y2="141.29"/><line class="cls-10" x1="0.5" y1="157.5" x2="3.8" y2="154.16"/><line class="cls-10" x1="4.77" y1="153.19" x2="4.84" y2="153.12"/><line class="cls-10" x1="5.73" y1="152.23" x2="8.96" y2="149.04"/><line class="cls-10" x1="0.5" y1="165.2" x2="0.89" y2="164.81"/><line class="cls-10" x1="1.86" y1="163.84" x2="1.93" y2="163.73"/><line class="cls-10" x1="2.83" y1="162.87" x2="7.67" y2="158.03"/><line class="cls-10" x1="8.64" y1="157.07" x2="8.71" y2="156.99"/><line class="cls-10" x1="0.5" y1="172.95" x2="4.77" y2="168.65"/><line class="cls-10" x1="5.73" y1="167.68" x2="5.81" y2="167.61"/><line class="cls-10" x1="6.7" y1="166.75" x2="8.96" y2="164.49"/><line class="cls-10" x1="0.5" y1="180.65" x2="1.86" y2="179.29"/><line class="cls-10" x1="2.83" y1="178.32" x2="2.9" y2="178.25"/><line class="cls-10" x1="3.8" y1="177.36" x2="8.64" y2="172.52"/><line class="cls-10" x1="0.89" y1="187.97" x2="5.73" y2="183.16"/><line class="cls-10" x1="6.7" y1="182.2" x2="6.77" y2="182.09"/><line class="cls-10" x1="7.67" y1="181.23" x2="8.96" y2="179.94"/><line class="cls-10" x1="0.5" y1="196.1" x2="2.83" y2="193.77"/><line class="cls-10" x1="3.8" y1="192.81" x2="3.87" y2="192.74"/><line class="cls-10" x1="4.77" y1="191.84" x2="8.96" y2="187.64"/><line class="cls-10" x1="0.89" y1="203.42" x2="1" y2="203.35"/><line class="cls-10" x1="1.86" y1="202.45" x2="6.7" y2="197.65"/><line class="cls-10" x1="7.67" y1="196.68" x2="7.74" y2="196.57"/><line class="cls-10" x1="8.64" y1="195.71" x2="8.96" y2="195.39"/><line class="cls-10" x1="0.5" y1="211.59" x2="3.8" y2="208.26"/><line class="cls-10" x1="4.77" y1="207.29" x2="4.84" y2="207.22"/><line class="cls-10" x1="5.73" y1="206.32" x2="8.96" y2="203.1"/><line class="cls-10" x1="0.5" y1="219.3" x2="0.89" y2="218.87"/><line class="cls-10" x1="1.86" y1="217.9" x2="1.93" y2="217.83"/><line class="cls-10" x1="2.83" y1="216.93" x2="7.67" y2="212.13"/><line class="cls-10" x1="8.64" y1="211.16" x2="8.71" y2="211.09"/><line class="cls-10" x1="0.5" y1="227.04" x2="4.77" y2="222.74"/><line class="cls-10" x1="5.73" y1="221.77" x2="5.81" y2="221.7"/><line class="cls-10" x1="6.7" y1="220.8" x2="8.96" y2="218.55"/><line class="cls-10" x1="0.5" y1="234.75" x2="1.86" y2="233.35"/><line class="cls-10" x1="2.83" y1="232.42" x2="2.9" y2="232.31"/><line class="cls-10" x1="3.8" y1="231.45" x2="8.64" y2="226.61"/><line class="cls-10" x1="0.89" y1="242.06" x2="5.73" y2="237.22"/><line class="cls-10" x1="6.7" y1="236.25" x2="6.77" y2="236.18"/><line class="cls-10" x1="7.67" y1="235.29" x2="8.96" y2="234"/><line class="cls-10" x1="0.5" y1="250.2" x2="2.83" y2="247.87"/><line class="cls-10" x1="3.8" y1="246.9" x2="3.87" y2="246.79"/><line class="cls-10" x1="4.77" y1="245.93" x2="8.96" y2="241.74"/><line class="cls-10" x1="0.89" y1="257.51" x2="1" y2="257.44"/><line class="cls-10" x1="1.86" y1="256.54" x2="6.7" y2="251.71"/><line class="cls-10" x1="7.67" y1="250.74" x2="7.74" y2="250.67"/><line class="cls-10" x1="8.64" y1="249.77" x2="8.96" y2="249.48"/><line class="cls-10" x1="0.5" y1="265.65" x2="3.8" y2="262.35"/><line class="cls-10" x1="4.77" y1="261.38" x2="4.84" y2="261.31"/><line class="cls-10" x1="5.73" y1="260.42" x2="8.96" y2="257.19"/><line class="cls-10" x1="0.5" y1="273.39" x2="0.89" y2="272.96"/><line class="cls-10" x1="1.86" y1="272" x2="1.93" y2="271.92"/><line class="cls-10" x1="2.83" y1="271.03" x2="7.67" y2="266.22"/><line class="cls-10" x1="8.64" y1="265.26" x2="8.71" y2="265.15"/><line class="cls-10" x1="0.5" y1="281.1" x2="4.77" y2="276.83"/><line class="cls-10" x1="5.73" y1="275.87" x2="5.81" y2="275.79"/><line class="cls-10" x1="6.7" y1="274.9" x2="8.96" y2="272.64"/><line class="cls-10" x1="0.5" y1="288.84" x2="1.86" y2="287.45"/><line class="cls-10" x1="2.83" y1="286.48" x2="2.9" y2="286.41"/><line class="cls-10" x1="3.8" y1="285.51" x2="8.64" y2="280.71"/><line class="cls-10" x1="0.89" y1="296.16" x2="5.73" y2="291.32"/><line class="cls-10" x1="6.7" y1="290.35" x2="6.77" y2="290.28"/><line class="cls-10" x1="7.67" y1="289.38" x2="8.96" y2="288.09"/><line class="cls-10" x1="7.71" y1="297.09" x2="8.96" y2="295.83"/><polyline class="cls-10" points="0.5 59.95 0.5 297.09 8.96 297.09 8.96 59.95 0.5 59.95"/><line class="cls-10" x1="82.45" y1="297.09" x2="82.45" y2="294.36"/><line class="cls-10" x1="82.45" y1="292" x2="82.45" y2="288.59"/><line class="cls-10" x1="8.96" y1="288.59" x2="8.96" y2="297.09"/><line class="cls-10" x1="130.88" y1="297.09" x2="130.88" y2="288.59"/><line class="cls-10" x1="118.01" y1="288.59" x2="118.01" y2="292"/><line class="cls-10" x1="118.01" y1="294.36" x2="118.01" y2="297.09"/><line class="cls-10" x1="82.45" y1="297.09" x2="8.96" y2="297.09"/><line class="cls-10" x1="130.88" y1="297.09" x2="118.01" y2="297.09"/><line class="cls-10" x1="82.45" y1="288.59" x2="8.96" y2="288.59"/><line class="cls-10" x1="130.88" y1="288.59" x2="118.01" y2="288.59"/><line class="cls-10" x1="139.37" y1="293" x2="139.37" y2="297.09"/><line class="cls-10" x1="0.5" y1="297.09" x2="0.5" y2="288.59"/><path class="cls-10" d="M32.18,243.72l.16.07" transform="translate(0 -28.34)"/><path class="cls-10" d="M31.13,242.58a1.11,1.11,0,0,0,.07.16" transform="translate(0 -28.34)"/><path class="cls-10" d="M31.2,234.93a1.22,1.22,0,0,0-.07.17" transform="translate(0 -28.34)"/><path class="cls-10" d="M32.34,233.89l-.16.06" transform="translate(0 -28.34)"/><path class="cls-10" d="M53.53,234l-.16-.06" transform="translate(0 -28.34)"/><path class="cls-10" d="M54.58,235.1a1.22,1.22,0,0,0-.07-.17" transform="translate(0 -28.34)"/><path class="cls-10" d="M54.51,242.74a1.11,1.11,0,0,0,.07-.16" transform="translate(0 -28.34)"/><path class="cls-10" d="M53.37,243.79l.16-.07" transform="translate(0 -28.34)"/><line class="cls-10" x1="29.29" y1="209.83" x2="30.97" y2="208.11"/><line class="cls-10" x1="33.66" y1="205.46" x2="35.34" y2="203.74"/><line class="cls-10" x1="29.54" y1="217.29" x2="31.72" y2="215.1"/><line class="cls-10" x1="41.37" y1="205.46" x2="43.05" y2="203.74"/><line class="cls-10" x1="34.7" y1="212.13" x2="36.38" y2="210.44"/><line class="cls-10" x1="37.24" y1="217.29" x2="38.93" y2="215.61"/><line class="cls-10" x1="48.89" y1="205.64" x2="50.79" y2="203.74"/><line class="cls-10" x1="44.99" y1="217.29" x2="46.67" y2="215.61"/><line class="cls-10" x1="54.67" y1="207.61" x2="56.39" y2="205.89"/><line class="cls-10" x1="49.25" y1="213.03" x2="50.94" y2="211.34"/><line class="cls-10" x1="52.69" y1="217.29" x2="56.39" y2="213.63"/><line class="cls-10" x1="29.86" y1="205.35" x2="29.97" y2="205.28"/><line class="cls-10" x1="30.83" y1="204.39" x2="31.47" y2="203.74"/><line class="cls-10" x1="29.29" y1="213.71" x2="30.97" y2="211.99"/><line class="cls-10" x1="37.5" y1="205.46" x2="39.22" y2="203.74"/><line class="cls-10" x1="34.7" y1="208.26" x2="36.38" y2="206.57"/><line class="cls-10" x1="33.37" y1="217.29" x2="36.38" y2="214.32"/><line class="cls-10" x1="45.35" y1="205.35" x2="46.92" y2="203.74"/><line class="cls-10" x1="41.47" y1="216.93" x2="41.55" y2="216.86"/><line class="cls-10" x1="42.44" y1="216" x2="42.8" y2="215.61"/><line class="cls-10" x1="52.91" y1="205.5" x2="54.02" y2="204.39"/><line class="cls-10" x1="49.25" y1="209.15" x2="50.94" y2="207.47"/><line class="cls-10" x1="48.82" y1="217.29" x2="51.05" y2="215.1"/><line class="cls-10" x1="54.67" y1="211.45" x2="56.39" y2="209.76"/><polyline class="cls-10" points="56.39 203.74 29.29 203.74 29.29 217.29 56.39 217.29 56.39 203.74"/><line class="cls-10" x1="49.25" y1="206.29" x2="49.25" y2="214.78"/><path class="cls-10" d="M48.45,244a.85.85,0,0,0,.84-.85" transform="translate(0 -28.34)"/><line class="cls-10" x1="48.43" y1="215.61" x2="37.24" y2="215.61"/><path class="cls-10" d="M36.42,243.1a.85.85,0,0,0,.84.85" transform="translate(0 -28.34)"/><line class="cls-10" x1="36.38" y1="214.78" x2="36.38" y2="206.29"/><path class="cls-10" d="M37.26,233.76a.85.85,0,0,0-.84.85" transform="translate(0 -28.34)"/><line class="cls-10" x1="37.24" y1="205.46" x2="48.43" y2="205.46"/><path class="cls-10" d="M49.29,234.61a.85.85,0,0,0-.84-.85" transform="translate(0 -28.34)"/><line class="cls-10" x1="34.7" y1="206.29" x2="34.7" y2="214.78"/><path class="cls-10" d="M33.86,244a.85.85,0,0,0,.84-.85" transform="translate(0 -28.34)"/><line class="cls-10" x1="33.84" y1="215.61" x2="33.01" y2="215.61"/><path class="cls-10" d="M31,241.88a2,2,0,0,0,2,2" transform="translate(0 -28.34)"/><line class="cls-10" x1="30.97" y1="213.56" x2="30.97" y2="207.47"/><path class="cls-10" d="M33,233.76a2,2,0,0,0-2,2" transform="translate(0 -28.34)"/><line class="cls-10" x1="33.01" y1="205.46" x2="33.84" y2="205.46"/><path class="cls-10" d="M34.7,234.61a.85.85,0,0,0-.84-.85" transform="translate(0 -28.34)"/><line class="cls-10" x1="54.67" y1="207.47" x2="54.67" y2="213.56"/><path class="cls-10" d="M52.68,243.91a2,2,0,0,0,2-2" transform="translate(0 -28.34)"/><line class="cls-10" x1="52.66" y1="215.61" x2="51.8" y2="215.61"/><path class="cls-10" d="M51,243.1a.85.85,0,0,0,.85.85" transform="translate(0 -28.34)"/><line class="cls-10" x1="50.94" y1="214.78" x2="50.94" y2="206.29"/><path class="cls-10" d="M51.82,233.76a.85.85,0,0,0-.85.85" transform="translate(0 -28.34)"/><line class="cls-10" x1="51.8" y1="205.46" x2="52.66" y2="205.46"/><path class="cls-10" d="M54.7,235.79a2,2,0,0,0-2-2" transform="translate(0 -28.34)"/><line class="cls-10" x1="139.37" y1="254.84" x2="139.37" y2="54.9"/><line class="cls-10" x1="130.88" y1="54.9" x2="130.88" y2="297.09"/><polyline class="cls-10" points="112.56 277.26 84.99 293.18 84.31 292 111.88 276.08 112.56 277.26"/><polyline class="cls-10" points="83.13 292 84.31 292 84.31 293.36 84.67 293.36 84.67 294.36 83.13 294.36 83.13 292"/><polyline class="cls-10" points="115.82 294.36 115.82 293.36 116.14 293.36 116.14 292 117.33 292 117.33 294.36 115.82 294.36"/><line class="cls-10" x1="139.37" y1="85.37" x2="139.37" y2="187"/><line class="cls-10" x1="0.5" y1="68.45" x2="0.5" y2="54.81"/><line class="cls-10" x1="0.5" y1="68.45" x2="0.5" y2="68.45"/><line class="cls-10" x1="27.57" y1="61.75" x2="27.57" y2="59.95"/><line class="cls-10" x1="8.96" y1="59.95" x2="8.96" y2="68.45"/><line class="cls-10" x1="130.88" y1="68.45" x2="130.88" y2="59.95"/><line class="cls-10" x1="88.54" y1="59.95" x2="88.54" y2="61.75"/><line class="cls-10" x1="27.57" y1="68.45" x2="8.96" y2="68.45"/><line class="cls-10" x1="130.88" y1="68.45" x2="88.54" y2="68.45"/><line class="cls-10" x1="88.54" y1="54.72" x2="88.54" y2="54.9"/><line class="cls-10" x1="88.54" y1="54.9" x2="88.54" y2="59.95"/><line class="cls-10" x1="0.5" y1="59.95" x2="8.96" y2="59.95"/><line class="cls-10" x1="27.57" y1="59.95" x2="27.57" y2="54.9"/><line class="cls-10" x1="27.57" y1="54.9" x2="27.57" y2="54.72"/><line class="cls-10" x1="27.57" y1="54.72" x2="0.5" y2="54.72"/><line class="cls-10" x1="125.82" y1="54.9" x2="88.54" y2="54.72"/><line class="cls-10" x1="27.57" y1="54.36" x2="88.54" y2="54.36"/><polyline class="cls-10" points="27.57 61.75 27.57 69.78 88.54 69.78 88.54 61.75"/><line class="cls-12" x1="85.5" y1="59.24" x2="48.93" y2="59.24"/><line class="cls-12" x1="48.93" y1="59.81" x2="85.5" y2="59.81"/><polyline class="cls-12" points="85.5 59.24 85.5 59.81 86 59.81 86 59.24 85.5 59.24"/><polyline class="cls-12" points="48.93 59.81 48.93 59.24 48.43 59.24 48.43 59.81 48.93 59.81"/><line class="cls-12" x1="45.74" y1="59.81" x2="31.8" y2="59.81"/><line class="cls-12" x1="31.8" y1="60.35" x2="45.74" y2="60.35"/><polyline class="cls-12" points="45.74 59.81 45.74 60.35 46.24 60.35 46.24 59.81 45.74 59.81"/><polyline class="cls-12" points="31.8 60.35 31.8 59.81 31.26 59.81 31.26 60.35 31.8 60.35"/><polyline class="cls-12" points="87.72 58.45 85.32 58.45 85.32 59.13 86 59.13 86 59.24"/><polyline class="cls-12" points="86 59.81 86 59.92 85.32 59.92 85.32 61.07 87.72 61.07 87.72 58.45"/><polyline class="cls-12" points="49.07 61.07 49.07 59.92 48.43 59.92 48.43 59.81"/><polyline class="cls-12" points="48.43 59.24 48.43 59.13 49.07 59.13 49.07 58.45 46.71 58.45 46.71 58.91 47.39 58.91 47.39 61.07 49.07 61.07"/><polyline class="cls-12" points="28.43 58.45 28.43 61.07 30.11 61.07 30.11 58.91 30.79 58.91 30.79 58.45 28.43 58.45"/><line class="cls-12" x1="46.71" y1="58.45" x2="30.79" y2="58.45"/><line class="cls-12" x1="85.32" y1="61.07" x2="49.07" y2="61.07"/><line class="cls-12" x1="30.11" y1="61.07" x2="30.25" y2="61.07"/><line class="cls-12" x1="47.25" y1="61.07" x2="47.39" y2="61.07"/><line class="cls-12" x1="30.79" y1="58.91" x2="46.71" y2="58.91"/><line class="cls-12" x1="85.32" y1="59.13" x2="49.07" y2="59.13"/><line class="cls-12" x1="49.07" y1="58.45" x2="85.32" y2="58.45"/><line class="cls-12" x1="49.07" y1="59.92" x2="85.32" y2="59.92"/><line class="cls-12" x1="31.26" y1="60.46" x2="31.26" y2="60.35"/><polyline class="cls-12" points="31.26 59.81 31.26 59.67 31.94 59.67 31.94 58.99 30.25 58.99 30.25 61.14 29.57 61.14 29.57 61.64 31.94 61.64 31.94 60.46 31.26 60.46"/><line class="cls-12" x1="46.24" y1="59.67" x2="46.24" y2="59.81"/><polyline class="cls-12" points="46.24 60.35 46.24 60.46 45.56 60.46 45.56 61.64 47.93 61.64 47.93 61.14 47.25 61.14 47.25 58.99 45.56 58.99 45.56 59.67 46.24 59.67"/><line class="cls-12" x1="31.94" y1="59.67" x2="45.56" y2="59.67"/><line class="cls-12" x1="45.56" y1="60.46" x2="31.94" y2="60.46"/><line class="cls-12" x1="31.94" y1="61.64" x2="45.56" y2="61.64"/><line class="cls-12" x1="45.56" y1="58.99" x2="31.94" y2="58.99"/><line class="cls-10" x1="130.88" y1="59.95" x2="130.88" y2="54.9"/><line class="cls-10" x1="88.54" y1="59.95" x2="130.88" y2="59.95"/><line class="cls-10" x1="138.48" y1="54.9" x2="125.82" y2="54.9"/><line class="cls-10" x1="130.88" y1="54.9" x2="139.37" y2="54.9"/><line class="cls-13" x1="67.89" y1="53.04" x2="67.89" y2="54.36"/><line class="cls-13" x1="68.58" y1="53.04" x2="68.58" y2="54.36"/><line class="cls-13" x1="48.93" y1="53.04" x2="48.93" y2="54.36"/><line class="cls-13" x1="48.25" y1="53.04" x2="48.25" y2="54.36"/><polyline class="cls-13" points="44.84 39.48 71.94 39.48 71.94 53.04 44.84 53.04 44.84 39.48"/><polyline class="cls-13" points="58.39 35.36 60.12 35.36 61.91 35.36 63.7 35.36 65.53 35.36 67.32 35.36 69.11 35.36 70.91 35.36 72.7 35.36 75.24 35.36 75.24 35.47 72.7 35.47 70.91 35.47 69.11 35.47 67.32 35.47 65.53 35.47 63.7 35.47 61.91 35.47 60.12 35.47 58.39 35.47 58.39 35.36"/><line class="cls-13" x1="60.12" y1="35.47" x2="60.12" y2="35.36"/><line class="cls-13" x1="61.91" y1="35.47" x2="61.91" y2="35.36"/><line class="cls-13" x1="63.7" y1="35.47" x2="63.7" y2="35.36"/><line class="cls-13" x1="65.53" y1="35.47" x2="65.53" y2="35.36"/><line class="cls-13" x1="67.32" y1="35.47" x2="67.32" y2="35.36"/><line class="cls-13" x1="69.11" y1="35.47" x2="69.11" y2="35.36"/><line class="cls-13" x1="70.91" y1="35.47" x2="70.91" y2="35.36"/><line class="cls-13" x1="72.7" y1="35.47" x2="72.7" y2="35.36"/><polyline class="cls-13" points="41.47 35.47 58.36 35.47 58.36 35.58 41.47 35.58 41.47 35.47"/><polyline class="cls-13" points="75.35 54.36 75.35 35.58 41.47 35.58 41.47 54.36"/><polyline class="cls-13" points="43.66 54.36 43.66 37.77 73.13 37.77 73.13 54.36"/><line class="cls-13" x1="43.66" y1="37.94" x2="73.13" y2="37.94"/></svg>