<svg id="_810" data-name="810" xmlns="http://www.w3.org/2000/svg" viewBox="0 0 424.47 620.01"><defs><style>.cls-1,.cls-4,.cls-5,.cls-6{fill:none;stroke-linecap:round;stroke-linejoin:round;stroke-width:0.5px;}.cls-1{stroke:#999;}.cls-2{isolation:isolate;font-size:12px;fill:#999;}.cls-2,.cls-3,.cls-7{font-family:PTSans-Regular, PT Sans;}.cls-3{font-size:24px;}.cls-4,.cls-5,.cls-6{stroke:#000;}.cls-5{stroke-dasharray:2.99 2.99;}.cls-6{stroke-dasharray:3.09 3.09;}.cls-7{font-size:20px;}</style></defs><title>12floor_810flat</title><line class="cls-1" x1="196.52" y1="10.8" x2="196.52" y2="2"/><polyline class="cls-1" points="200.12 5.3 196.62 1.8 193.12 5.3"/><text class="cls-2" transform="translate(205.95 10.2)">двор</text><text class="cls-3" transform="translate(94.66 277.67)">1Е</text><text class="cls-3" transform="translate(78.9 310.71)">40.20</text><text class="cls-3" transform="translate(75.73 245.12)">№810</text><polyline class="cls-4" points="67.1 319.08 67.1 221.88 148.16 221.88 148.16 319.08"/><line class="cls-4" x1="67.1" y1="254.34" x2="148.16" y2="254.34"/><line class="cls-4" x1="67.1" y1="319.08" x2="148.16" y2="319.08"/><line class="cls-4" x1="67.1" y1="286.8" x2="148.16" y2="286.8"/><polyline class="cls-4" points="411 582.09 411 495.93 411 449.05 303.6 449.05 303.6 582.09 411 582.09"/><polyline class="cls-4" points="13.47 398.15 13.47 431.01 13.47 495.93 13.47 529.99"/><polyline class="cls-4" points="13.47 529.99 144.91 529.99 144.91 490.72"/><polyline class="cls-4" points="261.13 127.66 257.92 127.66 253.11 127.66"/><line class="cls-4" x1="261.13" y1="78.77" x2="261.13" y2="127.66"/><line class="cls-4" x1="253.11" y1="85.58" x2="253.11" y2="127.66"/><polyline class="cls-4" points="261.13 78.77 261.13 85.58 257.92 85.58 257.92 81.58"/><polyline class="cls-4" points="257.92 127.66 257.92 123.65 261.13 123.65 261.13 127.66"/><line class="cls-4" x1="261.13" y1="85.58" x2="261.13" y2="123.65"/><line class="cls-4" x1="257.92" y1="123.65" x2="257.92" y2="85.58"/><line class="cls-4" x1="257.92" y1="81.58" x2="261.13" y2="81.58"/><line class="cls-4" x1="261.13" y1="127.66" x2="257.92" y2="127.66"/><line class="cls-4" x1="36.32" y1="39.9" x2="261.13" y2="78.77"/><line class="cls-4" x1="43.93" y1="49.12" x2="253.11" y2="85.58"/><polyline class="cls-4" points="39.52 43.51 43.13 44.31 43.93 41.1 36.32 39.9"/><polyline class="cls-4" points="261.13 78.77 254.71 77.57 253.91 80.77 257.92 81.58"/><line class="cls-4" x1="43.13" y1="44.31" x2="253.91" y2="80.77"/><line class="cls-4" x1="254.71" y1="77.57" x2="43.93" y2="41.1"/><line class="cls-4" x1="39.92" y1="40.3" x2="39.52" y2="43.51"/><line class="cls-4" x1="258.32" y1="78.37" x2="257.92" y2="81.58"/><polyline class="cls-4" points="36.32 127.66 39.52 127.66 43.93 127.66"/><line class="cls-4" x1="36.32" y1="39.9" x2="36.32" y2="127.66"/><line class="cls-4" x1="43.93" y1="49.12" x2="43.93" y2="127.66"/><polyline class="cls-4" points="36.32 39.9 36.32 47.51 39.52 47.51 39.52 43.51"/><polyline class="cls-4" points="39.52 127.66 39.52 123.65 36.32 123.65 36.32 127.66"/><line class="cls-4" x1="36.32" y1="47.51" x2="36.32" y2="123.65"/><line class="cls-4" x1="39.52" y1="123.65" x2="39.52" y2="47.51"/><line class="cls-4" x1="39.52" y1="43.51" x2="36.32" y2="43.51"/><line class="cls-4" x1="36.32" y1="127.66" x2="39.52" y2="127.66"/><polyline class="cls-4" points="298.39 449.05 225.06 449.05 225.06 495.93 150.12 495.93 150.12 593.71 163.35 593.71 163.35 603.73 163.35 606.93 298.39 606.93 298.39 449.05"/><polyline class="cls-4" points="144.91 490.72 212.24 490.72 212.24 431.01 219.85 431.01 219.85 199.39 212.24 199.39 212.24 150.5 13.47 150.5 13.47 199.39 13.47 398.15"/><polyline class="cls-4" points="44.73 593.71 144.91 593.71 144.91 535.2 44.73 535.2 44.73 593.71"/><polyline class="cls-4" points="411 431.01 411 199.39 411 150.5 225.06 150.5 225.06 198.99 225.06 431.01 225.06 443.84 411 443.84 411 431.01"/><polyline class="cls-4" points="253.11 85.58 43.93 49.12 43.93 127.66 253.11 127.66 253.11 85.58"/><line class="cls-4" x1="413.8" y1="619.76" x2="13.47" y2="619.76"/><polyline points="0.25 127.66 50.34 127.66 0.25 127.66"/><polyline class="cls-4" points="0.25 127.66 50.34 127.66 0.25 127.66"/><polyline points="0.25 127.66 50.34 134.47 0.25 134.47"/><polyline points="0.25 127.66 50.34 134.47 50.34 127.66 0.25 127.66"/><polyline class="cls-4" points="0.25 127.66 50.34 134.47 0.25 134.47"/><polyline class="cls-4" points="0.25 127.66 50.34 134.47 50.34 127.66 0.25 127.66"/><polyline points="0.25 134.47 50.34 134.47 47.94 134.47 0.25 134.47"/><polyline points="0.25 134.47 50.34 134.47 0.25 134.47"/><polyline class="cls-4" points="0.25 134.47 50.34 134.47 47.94 134.47 0.25 134.47"/><polyline class="cls-4" points="0.25 134.47 50.34 134.47 0.25 134.47"/><path d="M152.93,156l109.4,6.82H152.93Zm109.4,0H152.93l109.4,6.82Z" transform="translate(0 -28.33)"/><path class="cls-4" d="M152.93,156l109.4,6.82H152.93Zm109.4,0H152.93l109.4,6.82Z" transform="translate(0 -28.33)"/><path d="M424.22,156h0Z" transform="translate(0 -28.33)"/><path class="cls-4" d="M424.22,156h0Z" transform="translate(0 -28.33)"/><path d="M381.74,156l42.48,6.82H381.74Zm42.48,0H381.74l42.48,6.82Z" transform="translate(0 -28.33)"/><path class="cls-4" d="M381.74,156l42.48,6.82H381.74Zm42.48,0H381.74l42.48,6.82Z" transform="translate(0 -28.33)"/><path d="M384.15,162.81h0Zm0,0Z" transform="translate(0 -28.33)"/><path class="cls-4" d="M384.15,162.81h0Zm0,0Z" transform="translate(0 -28.33)"/><polyline points="424.22 127.66 424.22 127.66 424.22 127.66"/><polyline class="cls-4" points="424.22 127.66 424.22 127.66 424.22 127.66"/><polyline points="424.22 128.46 424.22 128.46 424.22 127.66 424.22 128.46"/><polyline points="424.22 127.66 424.22 127.66 424.22 128.46"/><polyline class="cls-4" points="424.22 128.46 424.22 128.46 424.22 127.66 424.22 128.46"/><polyline class="cls-4" points="424.22 127.66 424.22 127.66 424.22 128.46"/><path d="M424.22,162.81h0v0Zm0,0Z" transform="translate(0 -28.33)"/><path class="cls-4" d="M424.22,162.81h0v0Zm0,0Z" transform="translate(0 -28.33)"/><polyline points="424.22 128.46 424.22 134.47 424.22 128.46 424.22 128.46"/><polyline class="cls-4" points="424.22 128.46 424.22 134.47 424.22 128.46 424.22 128.46"/><polyline points="0.25 134.47 0.25 134.47 0.25 134.47"/><polyline class="cls-4" points="0.25 134.47 0.25 134.47 0.25 134.47"/><polyline points="0.25 134.47 0.25 137.68 0.25 137.68"/><polyline points="0.25 134.47 0.25 137.68 0.25 134.47 0.25 134.47"/><polyline class="cls-4" points="0.25 134.47 0.25 137.68 0.25 137.68"/><polyline class="cls-4" points="0.25 134.47 0.25 137.68 0.25 134.47 0.25 134.47"/><polyline points="0.25 137.68 0.25 150.5 0.25 150.5"/><polyline points="0.25 150.5 0.25 150.5 0.25 150.5 0.25 150.5"/><polyline class="cls-4" points="0.25 137.68 0.25 150.5 0.25 150.5"/><polyline class="cls-4" points="0.25 150.5 0.25 150.5 0.25 150.5 0.25 150.5"/><polyline points="0.25 137.68 0.25 137.68 0.25 150.5 0.25 137.68"/><polyline class="cls-4" points="0.25 137.68 0.25 137.68 0.25 150.5 0.25 137.68"/><path d="M.25,162.81h0Z" transform="translate(0 -28.33)"/><path class="cls-4" d="M.25,162.81h0Z" transform="translate(0 -28.33)"/><path d="M13.47,178.84H.25v-16Zm0,0Z" transform="translate(0 -28.33)"/><path class="cls-4" d="M13.47,178.84H.25v-16Zm0,0Z" transform="translate(0 -28.33)"/><polygon points="0.25 134.47 13.47 134.47 13.47 150.5 0.25 134.47"/><polygon class="cls-4" points="0.25 134.47 13.47 134.47 13.47 150.5 0.25 134.47"/><path d="M13.47,162.81h0Z" transform="translate(0 -28.33)"/><path class="cls-4" d="M13.47,162.81h0Z" transform="translate(0 -28.33)"/><path d="M13.47,162.81,47.94,166H13.47Zm34.47,0H13.47L47.94,166Z" transform="translate(0 -28.33)"/><path class="cls-4" d="M13.47,162.81,47.94,166H13.47Zm34.47,0H13.47L47.94,166Z" transform="translate(0 -28.33)"/><path d="M47.94,178.84H13.47V166Zm0,0Z" transform="translate(0 -28.33)"/><path class="cls-4" d="M47.94,178.84H13.47V166Zm0,0Z" transform="translate(0 -28.33)"/><polygon points="13.47 137.68 47.94 137.68 47.94 150.5 13.47 137.68"/><polygon class="cls-4" points="13.47 137.68 47.94 137.68 47.94 150.5 13.47 137.68"/><path d="M155.33,166h0Zm104.59,0h0Zm-104.59-3.2L259.92,166H155.33Zm104.59,0H155.33L259.92,166Z" transform="translate(0 -28.33)"/><path class="cls-4" d="M155.33,166h0Zm104.59,0h0Zm-104.59-3.2L259.92,166H155.33Zm104.59,0H155.33L259.92,166Z" transform="translate(0 -28.33)"/><path d="M155.33,166l104.59,12.83H155.33Zm104.59,0H155.33l104.59,12.83Z" transform="translate(0 -28.33)"/><path class="cls-4" d="M155.33,166l104.59,12.83H155.33Zm104.59,0H155.33l104.59,12.83Z" transform="translate(0 -28.33)"/><path d="M384.15,162.81,411,166H384.15Zm26.85,0H384.15L411,166Z" transform="translate(0 -28.33)"/><path class="cls-4" d="M384.15,162.81,411,166H384.15Zm26.85,0H384.15L411,166Z" transform="translate(0 -28.33)"/><path d="M384.15,166,411,178.84H384.15ZM411,166H384.15L411,178.84Z" transform="translate(0 -28.33)"/><path class="cls-4" d="M384.15,166,411,178.84H384.15ZM411,166H384.15L411,178.84Z" transform="translate(0 -28.33)"/><path d="M411,162.81h0Z" transform="translate(0 -28.33)"/><path class="cls-4" d="M411,162.81h0Z" transform="translate(0 -28.33)"/><path d="M411,166.41h13.22L411,178.84Zm0-3.6v3.6h13.22Z" transform="translate(0 -28.33)"/><path class="cls-4" d="M411,166.41h13.22L411,178.84Zm0-3.6v3.6h13.22Z" transform="translate(0 -28.33)"/><polygon points="411 134.47 424.22 134.47 424.22 138.08 411 134.47"/><polygon class="cls-4" points="411 134.47 424.22 134.47 424.22 138.08 411 134.47"/><path d="M424.22,162.81h0v0Zm0,0Z" transform="translate(0 -28.33)"/><path class="cls-4" d="M424.22,162.81h0v0Zm0,0Z" transform="translate(0 -28.33)"/><line class="cls-4" x1="0.25" y1="134.47" x2="0.25" y2="134.47"/><line class="cls-4" x1="13.47" y1="150.5" x2="13.47" y2="134.47"/><polyline class="cls-4" points="47.94 134.47 13.47 134.47 0.25 134.47 0.25 150.5"/><line class="cls-4" x1="411" y1="134.47" x2="384.15" y2="134.47"/><line class="cls-4" x1="259.92" y1="134.47" x2="155.33" y2="134.47"/><polyline class="cls-4" points="411 150.5 411 134.47 424.22 134.47 424.22 138.08"/><line class="cls-4" x1="47.94" y1="137.68" x2="47.94" y2="150.5"/><polyline class="cls-4" points="50.34 127.66 50.34 134.47 47.94 134.47 47.94 137.68"/><line class="cls-4" x1="155.33" y1="137.68" x2="155.33" y2="150.5"/><polyline class="cls-4" points="152.93 127.66 152.93 134.47 155.33 134.47 155.33 137.68"/><line class="cls-4" x1="259.92" y1="137.68" x2="259.92" y2="150.5"/><polyline class="cls-4" points="262.33 127.66 262.33 134.47 259.92 134.47 259.92 137.68"/><line class="cls-4" x1="384.15" y1="137.68" x2="384.15" y2="150.5"/><polyline class="cls-4" points="381.75 127.66 381.75 134.47 384.15 134.47 384.15 137.68"/><polyline class="cls-4" points="424.22 127.66 424.22 127.66 381.75 127.66"/><line class="cls-4" x1="262.33" y1="127.66" x2="152.93" y2="127.66"/><line class="cls-4" x1="50.34" y1="127.66" x2="0.25" y2="127.66"/><line class="cls-4" x1="0.25" y1="150.5" x2="0.25" y2="150.5"/><line class="cls-4" x1="13.47" y1="150.5" x2="47.94" y2="150.5"/><line class="cls-4" x1="155.33" y1="150.5" x2="259.92" y2="150.5"/><line class="cls-4" x1="384.15" y1="150.5" x2="411" y2="150.5"/><line class="cls-4" x1="152.93" y1="127.66" x2="50.34" y2="127.66"/><line class="cls-4" x1="155.33" y1="150.5" x2="47.94" y2="150.5"/><path d="M150.12,162.81h0Z" transform="translate(0 -28.33)"/><path class="cls-4" d="M150.12,162.81h0Z" transform="translate(0 -28.33)"/><path d="M155.33,166h-5.21v-3.2Zm0,0Z" transform="translate(0 -28.33)"/><path class="cls-4" d="M155.33,166h-5.21v-3.2Zm0,0Z" transform="translate(0 -28.33)"/><polygon points="150.12 134.47 155.33 134.47 155.33 137.68 150.12 134.47"/><polygon class="cls-4" points="150.12 134.47 155.33 134.47 155.33 137.68 150.12 134.47"/><path d="M101.63,162.81h0Z" transform="translate(0 -28.33)"/><path class="cls-4" d="M101.63,162.81h0Z" transform="translate(0 -28.33)"/><path d="M104.84,166h-3.21v-3.2Zm0,0Z" transform="translate(0 -28.33)"/><path class="cls-4" d="M104.84,166h-3.21v-3.2Zm0,0Z" transform="translate(0 -28.33)"/><polygon points="101.64 134.47 104.84 134.47 104.84 137.68 101.64 134.47"/><polygon class="cls-4" points="101.64 134.47 104.84 134.47 104.84 137.68 101.64 134.47"/><path d="M98.43,162.81h0Z" transform="translate(0 -28.33)"/><path class="cls-4" d="M98.43,162.81h0Z" transform="translate(0 -28.33)"/><path d="M101.63,166h-3.2v-3.2Zm0,0Z" transform="translate(0 -28.33)"/><path class="cls-4" d="M101.63,166h-3.2v-3.2Zm0,0Z" transform="translate(0 -28.33)"/><polygon points="98.43 134.47 101.64 134.47 101.64 137.68 98.43 134.47"/><polygon class="cls-4" points="98.43 134.47 101.64 134.47 101.64 137.68 98.43 134.47"/><path d="M47.94,162.81h0Z" transform="translate(0 -28.33)"/><path class="cls-4" d="M47.94,162.81h0Z" transform="translate(0 -28.33)"/><path d="M53.15,166H47.94v-3.2Zm0,0Z" transform="translate(0 -28.33)"/><path class="cls-4" d="M53.15,166H47.94v-3.2Zm0,0Z" transform="translate(0 -28.33)"/><polygon points="47.94 134.47 53.15 134.47 53.15 137.68 47.94 134.47"/><polygon class="cls-4" points="47.94 134.47 53.15 134.47 53.15 137.68 47.94 134.47"/><polyline class="cls-4" points="155.33 134.47 150.12 134.47 150.12 137.68 155.33 137.68"/><polyline class="cls-4" points="101.64 137.68 104.84 137.68 104.84 134.47 101.64 134.47"/><line class="cls-4" x1="150.12" y1="134.47" x2="104.84" y2="134.47"/><line class="cls-4" x1="104.84" y1="137.68" x2="150.12" y2="137.68"/><polyline class="cls-4" points="101.64 134.47 98.43 134.47 98.43 137.68 101.64 137.68"/><polyline class="cls-4" points="47.94 137.68 53.15 137.68 53.15 134.47 47.94 134.47"/><line class="cls-4" x1="98.43" y1="134.47" x2="53.15" y2="134.47"/><line class="cls-4" x1="53.15" y1="137.68" x2="98.43" y2="137.68"/><polyline class="cls-4" points="152.93 134.47 155.33 134.47 155.33 137.68"/><polyline class="cls-4" points="50.34 134.47 47.94 134.47 47.94 137.68"/><line class="cls-4" x1="381.74" y1="127.66" x2="262.33" y2="127.66"/><line class="cls-4" x1="384.15" y1="150.5" x2="259.92" y2="150.5"/><path d="M378.94,162.81h0Z" transform="translate(0 -28.33)"/><path class="cls-4" d="M378.94,162.81h0Z" transform="translate(0 -28.33)"/><path d="M384.15,166h-5.21v-3.2Zm0,0Z" transform="translate(0 -28.33)"/><path class="cls-4" d="M384.15,166h-5.21v-3.2Zm0,0Z" transform="translate(0 -28.33)"/><polygon points="378.94 134.47 384.15 134.47 384.15 137.68 378.94 134.47"/><polygon class="cls-4" points="378.94 134.47 384.15 134.47 384.15 137.68 378.94 134.47"/><path d="M305.61,162.81h0Z" transform="translate(0 -28.33)"/><path class="cls-4" d="M305.61,162.81h0Z" transform="translate(0 -28.33)"/><path d="M308.81,166h-3.2v-3.2Zm0,0Z" transform="translate(0 -28.33)"/><path class="cls-4" d="M308.81,166h-3.2v-3.2Zm0,0Z" transform="translate(0 -28.33)"/><polygon points="305.61 134.47 308.81 134.47 308.81 137.68 305.61 134.47"/><polygon class="cls-4" points="305.61 134.47 308.81 134.47 308.81 137.68 305.61 134.47"/><path d="M302,162.81h0Z" transform="translate(0 -28.33)"/><path class="cls-4" d="M302,162.81h0Z" transform="translate(0 -28.33)"/><path d="M305.61,166H302v-3.2Zm0,0Z" transform="translate(0 -28.33)"/><path class="cls-4" d="M305.61,166H302v-3.2Zm0,0Z" transform="translate(0 -28.33)"/><polygon points="302 134.47 305.61 134.47 305.61 137.68 302 134.47"/><polygon class="cls-4" points="302 134.47 305.61 134.47 305.61 137.68 302 134.47"/><path d="M259.92,162.81h0Z" transform="translate(0 -28.33)"/><path class="cls-4" d="M259.92,162.81h0Z" transform="translate(0 -28.33)"/><path d="M265.13,166h-5.21v-3.2Zm0,0Z" transform="translate(0 -28.33)"/><path class="cls-4" d="M265.13,166h-5.21v-3.2Zm0,0Z" transform="translate(0 -28.33)"/><polygon points="259.92 134.47 265.13 134.47 265.13 137.68 259.92 134.47"/><polygon class="cls-4" points="259.92 134.47 265.13 134.47 265.13 137.68 259.92 134.47"/><polyline class="cls-4" points="384.15 134.47 378.94 134.47 378.94 137.68 384.15 137.68"/><polyline class="cls-4" points="305.61 137.68 308.81 137.68 308.81 134.47 305.61 134.47"/><line class="cls-4" x1="378.94" y1="134.47" x2="308.81" y2="134.47"/><line class="cls-4" x1="308.81" y1="137.68" x2="378.94" y2="137.68"/><polyline class="cls-4" points="305.61 134.47 302 134.47 302 137.68 305.61 137.68"/><polyline class="cls-4" points="259.92 137.68 265.13 137.68 265.13 134.47 259.92 134.47"/><line class="cls-4" x1="302" y1="134.47" x2="265.13" y2="134.47"/><line class="cls-4" x1="265.13" y1="137.68" x2="302" y2="137.68"/><polyline class="cls-4" points="381.75 134.47 384.15 134.47 384.15 137.68"/><polyline class="cls-4" points="262.33 134.47 259.92 134.47 259.92 137.68"/><line class="cls-4" x1="406.19" y1="457.86" x2="406.19" y2="488.72"/><line class="cls-4" x1="402.58" y1="492.32" x2="326.84" y2="492.32"/><line class="cls-4" x1="402.58" y1="454.25" x2="326.84" y2="454.25"/><line class="cls-4" x1="305.61" y1="495.93" x2="409.8" y2="495.93"/><polyline class="cls-4" points="305.61 495.93 305.61 450.65 409.8 450.65 409.8 495.93"/><line class="cls-4" x1="338.87" y1="460.27" x2="398.58" y2="460.27"/><line class="cls-4" x1="400.18" y1="462.27" x2="400.18" y2="484.31"/><line class="cls-4" x1="338.87" y1="485.91" x2="398.58" y2="485.91"/><line class="cls-4" x1="388.16" y1="472.29" x2="388.16" y2="469.88"/><line class="cls-4" x1="388.96" y1="473.09" x2="391.36" y2="473.09"/><line class="cls-4" x1="388.16" y1="474.29" x2="388.16" y2="476.7"/><line class="cls-4" x1="386.95" y1="473.09" x2="384.95" y2="473.09"/><polyline class="cls-4" points="326.85 454.25 323.64 454.25 320.43 455.46 317.23 457.06 314.42 459.06 312.42 461.87 310.42 464.67 309.21 467.88 308.81 471.49 308.81 475.09 309.21 478.7 310.42 481.9 312.42 484.71 314.42 487.51 317.23 489.52 320.43 491.12 323.64 491.92 326.85 492.32"/><polyline class="cls-4" points="402.58 492.32 403.38 492.32 403.79 492.32 404.59 491.92 404.99 491.52 405.39 491.12 405.79 490.72 406.19 489.92 406.19 489.52 406.19 488.72"/><polyline class="cls-4" points="406.19 457.86 406.19 457.06 406.19 456.66 405.79 455.86 405.39 455.46 404.99 455.06 404.59 454.65 403.79 454.25 403.38 454.25 402.58 454.25"/><polyline class="cls-4" points="388.16 471.49 387.76 471.49 387.36 471.49 386.95 471.49 386.55 471.89 386.55 472.29 386.15 472.29 386.15 472.69 386.15 473.09 386.15 473.49 386.15 473.89 386.55 474.29 386.55 474.69 386.95 474.69 387.36 475.09 387.76 475.09 388.16 475.09 388.56 475.09 388.96 475.09 388.96 474.69 389.36 474.69 389.76 474.29 389.76 473.89 389.76 473.49 389.76 473.09 389.76 472.69 389.76 472.29 389.36 472.29 389.36 471.89 388.96 471.49 388.56 471.49 388.16 471.49"/><polyline class="cls-4" points="338.87 460.27 336.86 460.67 334.46 461.47 332.45 462.27 330.85 463.87 329.25 465.48 328.05 467.48 327.25 469.88 326.85 472.29 326.85 474.29 327.25 476.7 328.05 479.1 329.25 481.1 330.85 482.71 332.45 484.31 334.46 485.11 336.86 485.91 338.87 485.91"/><polyline class="cls-4" points="400.18 462.27 400.18 461.87 400.18 461.47 399.78 461.47 399.78 461.07 399.38 461.07 399.38 460.67 398.98 460.67 398.58 460.67 398.58 460.27"/><polyline class="cls-4" points="400.18 484.31 400.18 484.71 399.78 485.11 399.78 485.51 399.38 485.51 399.38 485.91 398.98 485.91 398.58 485.91"/><polyline class="cls-4" points="388.16 470.69 387.36 470.69 386.95 471.08 386.55 471.08 386.15 471.49 386.15 471.89 385.75 472.29 385.75 472.69 385.75 473.09 385.75 473.49 385.75 474.29 385.75 474.69 386.15 475.09 386.55 475.09 386.95 475.49 387.36 475.89 387.76 475.89 388.16 475.89 388.56 475.89 388.96 475.49 389.36 475.09 389.76 475.09 390.16 474.69 390.16 474.29 390.56 473.49 390.56 473.09 390.16 472.69 390.16 472.29 390.16 471.89 389.76 471.49 389.36 471.08 388.96 471.08 388.56 470.69 388.16 470.69"/><polyline class="cls-4" points="394.97 534.4 409.8 534.4 409.8 499.54 394.97 499.54"/><line class="cls-4" x1="409.8" y1="511.56" x2="409.8" y2="522.38"/><line class="cls-4" x1="397.77" y1="513.96" x2="397.77" y2="515.97"/><line class="cls-4" x1="400.58" y1="516.77" x2="398.98" y2="516.77"/><line class="cls-4" x1="397.77" y1="517.97" x2="397.77" y2="519.97"/><line class="cls-4" x1="396.57" y1="516.77" x2="394.97" y2="516.77"/><path class="cls-4" d="M393.77,560.83a15.85,15.85,0,0,0,7.48-6.14" transform="translate(0 -28.33)"/><path class="cls-4" d="M401.12,554.67a15.85,15.85,0,0,0,2.21-9.44" transform="translate(0 -28.33)"/><path class="cls-4" d="M401.25,535.52a15.79,15.79,0,0,0-7.48-6.14" transform="translate(0 -28.33)"/><path class="cls-4" d="M403.33,545a15.87,15.87,0,0,0-2.21-9.44" transform="translate(0 -28.33)"/><path class="cls-4" d="M382.62,546.23A29.21,29.21,0,0,0,385.54,557" transform="translate(0 -28.33)"/><path class="cls-4" d="M394.75,527.48a9,9,0,0,0-7.41,3.36" transform="translate(0 -28.33)"/><path class="cls-4" d="M383,543.68a16.56,16.56,0,0,0,0,2.44" transform="translate(0 -28.33)"/><path class="cls-4" d="M400.62,554.77a64.62,64.62,0,0,0,0-19.73" transform="translate(0 -28.33)"/><path class="cls-4" d="M406.84,533.29a22.18,22.18,0,0,0-14.46-5" transform="translate(0 -28.33)"/><path class="cls-4" d="M408.59,545.23a44,44,0,0,0-1.08-10" transform="translate(0 -28.33)"/><path class="cls-4" d="M407.72,535a3,3,0,0,0-1-1.66" transform="translate(0 -28.33)"/><path class="cls-4" d="M407.39,545.28a76.57,76.57,0,0,0-.71-9.92" transform="translate(0 -28.33)"/><path class="cls-4" d="M405.88,533.23a19.83,19.83,0,0,0-13.38-5" transform="translate(0 -28.33)"/><path class="cls-4" d="M407,535.27a3,3,0,0,0-1-1.84" transform="translate(0 -28.33)"/><path class="cls-4" d="M392.53,561.53a19.8,19.8,0,0,0,13.37-5" transform="translate(0 -28.33)"/><path class="cls-4" d="M392.41,561.93a22.24,22.24,0,0,0,14.45-5" transform="translate(0 -28.33)"/><path class="cls-4" d="M406.69,555.14a74.8,74.8,0,0,0,.7-9.91" transform="translate(0 -28.33)"/><path class="cls-4" d="M407.52,555a44,44,0,0,0,1.07-10" transform="translate(0 -28.33)"/><path class="cls-4" d="M406,556.77a3,3,0,0,0,1-1.84" transform="translate(0 -28.33)"/><path class="cls-4" d="M406.69,556.84a3,3,0,0,0,1-1.66" transform="translate(0 -28.33)"/><path class="cls-4" d="M387.34,559.36a9,9,0,0,0,7.41,3.37" transform="translate(0 -28.33)"/><path class="cls-4" d="M385.67,556.82a13.87,13.87,0,0,0,1.51,2.33" transform="translate(0 -28.33)"/><path class="cls-4" d="M387.18,531.05a14.73,14.73,0,0,0-1.51,2.33" transform="translate(0 -28.33)"/><path class="cls-4" d="M385.54,533.25A29.21,29.21,0,0,0,382.62,544" transform="translate(0 -28.33)"/><path class="cls-4" d="M385.53,540.06a20.57,20.57,0,0,0,0,9.68" transform="translate(0 -28.33)"/><path class="cls-4" d="M389.07,558.86a5.4,5.4,0,0,0,4.47,1.86" transform="translate(0 -28.33)"/><path class="cls-4" d="M385.24,549.81a19.16,19.16,0,0,0,4,8.75" transform="translate(0 -28.33)"/><path class="cls-4" d="M393.54,529.49a5.4,5.4,0,0,0-4.47,1.86" transform="translate(0 -28.33)"/><path class="cls-4" d="M389.25,531.65a19.07,19.07,0,0,0-4,8.75" transform="translate(0 -28.33)"/><path class="cls-4" d="M399.78,544.9a2.21,2.21,0,1,0-2.21,2.21,2.2,2.2,0,0,0,2.21-2.21" transform="translate(0 -28.33)"/><path class="cls-4" d="M399.38,544.9a1.81,1.81,0,1,0-1.81,1.81,1.81,1.81,0,0,0,1.81-1.81" transform="translate(0 -28.33)"/><line class="cls-4" x1="399.78" y1="544.82" x2="377.34" y2="544.82"/><polyline class="cls-4" points="401.38 544.02 409.8 544.02 409.8 568.06"/><line class="cls-4" x1="395.77" y1="556.04" x2="395.77" y2="564.86"/><polyline class="cls-4" points="377.34 544.82 395.77 547.22 395.77 556.04"/><line class="cls-4" x1="377.34" y1="567.26" x2="395.77" y2="564.86"/><line class="cls-4" x1="377.34" y1="545.62" x2="395.77" y2="547.62"/><line class="cls-4" x1="377.34" y1="566.46" x2="395.77" y2="564.46"/><line class="cls-4" x1="399.78" y1="567.26" x2="377.34" y2="567.26"/><line class="cls-4" x1="409.8" y1="568.06" x2="401.38" y2="568.06"/><polyline class="cls-4" points="377.34 544.82 374.53 545.22 372.13 546.42 370.12 547.63 368.52 549.63 367.32 552.03 366.92 554.84 366.92 557.24 367.32 560.05 368.52 562.45 370.12 564.46 372.13 566.06 374.53 566.86 377.34 567.26"/><polyline class="cls-4" points="377.34 545.62 374.93 546.02 372.53 546.82 370.52 548.03 368.92 550.03 367.72 552.43 367.32 554.84 367.32 557.24 367.72 559.65 368.92 562.05 370.52 564.05 372.53 565.26 374.93 566.46 377.34 566.46"/><polyline class="cls-4" points="401.38 544.02 400.98 544.02 400.58 544.02 400.18 544.42 399.78 544.82 399.78 545.22 399.38 556.04 399.78 566.86 399.78 567.26 400.18 567.66 400.58 568.06 400.98 568.06 401.38 568.06"/><polyline class="cls-4" points="405.39 556.04 405.39 556.44 405.39 556.84 404.99 556.84 404.99 557.24 404.59 557.24 404.19 557.24 403.79 557.24 403.38 556.84 403.38 556.44 402.98 556.04 403.38 555.64 403.38 555.24 403.79 555.24 403.79 554.84 404.19 554.84 404.59 554.84 404.99 554.84 404.99 555.24 405.39 555.24 405.39 555.64 405.39 556.04"/><polyline class="cls-4" points="303.6 552.83 342.47 552.83 342.47 582.09 303.6 582.09 303.6 552.83"/><polyline points="424.22 198.19 424.22 198.19 424.22 198.19"/><polyline points="424.22 198.19 424.22 198.19 424.22 188.57"/><polyline class="cls-4" points="424.22 198.19 424.22 198.19 424.22 198.19"/><polyline class="cls-4" points="424.22 198.19 424.22 198.19 424.22 188.57"/><path d="M424.22,239.35h0Zm0-12.83v12.83H411Z" transform="translate(0 -28.33)"/><path class="cls-4" d="M424.22,239.35h0Zm0-12.83v12.83H411Z" transform="translate(0 -28.33)"/><polyline points="424.22 201.39 424.22 201.39 424.22 198.19 424.22 201.39"/><polyline points="424.22 198.19 424.22 198.19 424.22 201.39"/><polyline class="cls-4" points="424.22 201.39 424.22 201.39 424.22 198.19 424.22 201.39"/><polyline class="cls-4" points="424.22 198.19 424.22 198.19 424.22 201.39"/><polyline points="424.22 211.01 424.22 211.01 424.22 201.39 424.22 211.01"/><polyline points="424.22 201.39 424.22 201.39 424.22 211.01"/><polyline class="cls-4" points="424.22 211.01 424.22 211.01 424.22 201.39 424.22 211.01"/><polyline class="cls-4" points="424.22 201.39 424.22 201.39 424.22 211.01"/><line class="cls-4" x1="424.22" y1="211.01" x2="424.22" y2="198.19"/><line class="cls-4" x1="424.22" y1="198.19" x2="424.22" y2="198.19"/><polyline class="cls-4" points="411 211.01 424.22 211.01 424.22 211.01"/><polyline points="424.22 134.47 424.22 134.47 424.22 128.46"/><polyline points="424.22 134.47 424.22 134.47 424.22 134.47"/><polyline class="cls-4" points="424.22 134.47 424.22 134.47 424.22 128.46"/><polyline class="cls-4" points="424.22 134.47 424.22 134.47 424.22 134.47"/><polyline points="424.22 134.47 424.22 134.47 424.22 134.47"/><polyline class="cls-4" points="424.22 134.47 424.22 134.47 424.22 134.47"/><polyline points="424.22 138.08 424.22 138.08 424.22 134.47 424.22 138.08"/><polyline points="424.22 134.47 424.22 134.47 424.22 138.08"/><polyline class="cls-4" points="424.22 138.08 424.22 138.08 424.22 134.47 424.22 138.08"/><polyline class="cls-4" points="424.22 134.47 424.22 134.47 424.22 138.08"/><polyline points="424.22 188.57 424.22 188.57 424.22 138.08 424.22 188.57"/><polyline points="424.22 188.57 424.22 188.57 424.22 188.57"/><polyline class="cls-4" points="424.22 188.57 424.22 188.57 424.22 138.08 424.22 188.57"/><polyline class="cls-4" points="424.22 188.57 424.22 188.57 424.22 188.57"/><polyline points="424.22 188.57 424.22 138.08 424.22 138.08"/><polyline class="cls-4" points="424.22 188.57 424.22 138.08 424.22 138.08"/><polyline points="424.22 188.57 424.22 188.57 424.22 198.19 424.22 188.57"/><polyline points="424.22 188.57 424.22 188.57 424.22 188.57"/><polyline class="cls-4" points="424.22 188.57 424.22 188.57 424.22 198.19 424.22 188.57"/><polyline class="cls-4" points="424.22 188.57 424.22 188.57 424.22 188.57"/><polygon points="424.22 138.08 424.22 150.5 411 150.5 424.22 138.08"/><polygon class="cls-4" points="424.22 138.08 424.22 150.5 411 150.5 424.22 138.08"/><path d="M411,226.52h13.22L411,239.35Zm0-47.68v47.68h13.22Z" transform="translate(0 -28.33)"/><path class="cls-4" d="M411,226.52h13.22L411,239.35Zm0-47.68v47.68h13.22Z" transform="translate(0 -28.33)"/><polygon points="411 150.5 424.22 150.5 424.22 198.19 411 150.5"/><polygon class="cls-4" points="411 150.5 424.22 150.5 424.22 198.19 411 150.5"/><line class="cls-4" x1="424.22" y1="198.19" x2="424.22" y2="138.08"/><line class="cls-4" x1="411" y1="150.5" x2="411" y2="211.01"/><polygon points="163.35 593.71 163.35 606.93 150.12 606.93 163.35 593.71"/><polygon class="cls-4" points="163.35 593.71 163.35 606.93 150.12 606.93 163.35 593.71"/><path d="M163.35,648.09H150.12V635.27Zm0,0Z" transform="translate(0 -28.33)"/><path class="cls-4" d="M163.35,648.09H150.12V635.27Zm0,0Z" transform="translate(0 -28.33)"/><polygon points="150.12 606.93 163.35 606.93 163.35 619.76 150.12 606.93"/><polygon class="cls-4" points="150.12 606.93 163.35 606.93 163.35 619.76 150.12 606.93"/><line class="cls-4" x1="163.35" y1="619.76" x2="163.35" y2="593.71"/><polyline class="cls-4" points="150.12 606.93 150.12 619.76 163.35 619.76"/><path d="M39.52,622l110.6,13.23H52.34Zm123.83,0H39.52l110.6,13.23Z" transform="translate(0 -28.33)"/><path class="cls-4" d="M39.52,622l110.6,13.23H52.34Zm123.83,0H39.52l110.6,13.23Z" transform="translate(0 -28.33)"/><line class="cls-4" x1="163.35" y1="593.71" x2="150.12" y2="593.71"/><line class="cls-4" x1="144.91" y1="593.71" x2="44.73" y2="593.71"/><line class="cls-4" x1="52.34" y1="606.93" x2="150.12" y2="606.93"/><path d="M52.34,635.27H39.52l12.82,12.82ZM39.52,622l12.82,13.23H39.52Z" transform="translate(0 -28.33)"/><path class="cls-4" d="M52.34,635.27H39.52l12.82,12.82ZM39.52,622l12.82,13.23H39.52Z" transform="translate(0 -28.33)"/><line class="cls-4" x1="39.52" y1="593.71" x2="39.52" y2="606.93"/><line class="cls-4" x1="52.34" y1="619.76" x2="52.34" y2="606.93"/><polyline points="0.25 606.93 52.34 619.76 0.25 619.76"/><polyline points="0.25 606.93 52.34 619.76 39.52 606.93 0.25 606.93"/><polyline class="cls-4" points="0.25 606.93 52.34 619.76 0.25 619.76"/><polyline class="cls-4" points="0.25 606.93 52.34 619.76 39.52 606.93 0.25 606.93"/><line class="cls-4" x1="0.25" y1="619.76" x2="52.34" y2="619.76"/><line class="cls-4" x1="39.52" y1="606.93" x2="13.47" y2="606.93"/><line class="cls-4" x1="0.25" y1="606.93" x2="0.25" y2="606.93"/><polygon points="144.91 490.72 150.12 495.93 144.91 495.93 144.91 490.72"/><polygon class="cls-4" points="144.91 490.72 150.12 495.93 144.91 495.93 144.91 490.72"/><path d="M150.12,570h-5.21V524.26Zm0,0Z" transform="translate(0 -28.33)"/><path class="cls-4" d="M150.12,570h-5.21V524.26Zm0,0Z" transform="translate(0 -28.33)"/><polygon points="144.91 495.93 150.12 495.93 150.12 541.61 144.91 495.93"/><polygon class="cls-4" points="144.91 495.93 150.12 495.93 150.12 541.61 144.91 495.93"/><line class="cls-4" x1="144.91" y1="541.61" x2="150.12" y2="541.61"/><line class="cls-4" x1="144.91" y1="490.72" x2="144.91" y2="529.99"/><line class="cls-4" x1="144.91" y1="535.2" x2="144.91" y2="541.61"/><line class="cls-4" x1="144.91" y1="593.71" x2="150.12" y2="593.71"/><line class="cls-4" x1="150.12" y1="541.61" x2="150.12" y2="495.93"/><line class="cls-4" x1="144.91" y1="541.61" x2="144.91" y2="544.82"/><line class="cls-4" x1="150.12" y1="541.61" x2="150.12" y2="544.82"/><line class="cls-4" x1="144.91" y1="593.71" x2="144.91" y2="590.5"/><line class="cls-4" x1="150.12" y1="593.71" x2="150.12" y2="590.5"/><line class="cls-4" x1="150.12" y1="544.82" x2="144.91" y2="544.82"/><polyline class="cls-4" points="150.12 590.5 144.91 590.5 122.07 551.23"/><path class="cls-4" d="M144.71,573.15a45.43,45.43,0,0,0-22.74,6.1" transform="translate(0 -28.33)"/><path d="M413.8,472.17h0Z" transform="translate(0 -28.33)"/><path class="cls-4" d="M413.8,472.17h0Z" transform="translate(0 -28.33)"/><path d="M413.8,477.38H293.58v-5.21Zm0,0Z" transform="translate(0 -28.33)"/><path class="cls-4" d="M413.8,477.38H293.58v-5.21Zm0,0Z" transform="translate(0 -28.33)"/><polygon points="293.58 443.84 413.8 443.84 413.8 449.05 293.58 443.84"/><polygon class="cls-4" points="293.58 443.84 413.8 443.84 413.8 449.05 293.58 443.84"/><path d="M235.08,472.17h0Z" transform="translate(0 -28.33)"/><path class="cls-4" d="M235.08,472.17h0Z" transform="translate(0 -28.33)"/><path d="M235.08,477.38h-10v-5.21Zm0,0Z" transform="translate(0 -28.33)"/><path class="cls-4" d="M235.08,477.38h-10v-5.21Zm0,0Z" transform="translate(0 -28.33)"/><polygon points="225.06 443.84 235.08 443.84 235.08 449.05 225.06 443.84"/><polygon class="cls-4" points="225.06 443.84 235.08 443.84 235.08 449.05 225.06 443.84"/><line class="cls-4" x1="293.58" y1="443.84" x2="293.58" y2="449.05"/><line class="cls-4" x1="235.08" y1="443.84" x2="235.08" y2="449.05"/><line class="cls-4" x1="413.8" y1="443.84" x2="293.58" y2="443.84"/><line class="cls-4" x1="235.08" y1="443.84" x2="225.06" y2="443.84"/><line class="cls-4" x1="225.06" y1="449.05" x2="235.08" y2="449.05"/><line class="cls-4" x1="293.58" y1="449.05" x2="298.39" y2="449.05"/><polyline class="cls-4" points="303.6 449.05 413.8 449.05 413.8 443.84"/><line class="cls-4" x1="293.58" y1="443.84" x2="290.38" y2="443.84"/><line class="cls-4" x1="293.58" y1="449.05" x2="290.38" y2="449.05"/><line class="cls-4" x1="235.08" y1="443.84" x2="238.28" y2="443.84"/><line class="cls-4" x1="235.08" y1="449.05" x2="238.28" y2="449.05"/><line class="cls-4" x1="290.38" y1="449.05" x2="290.38" y2="443.84"/><polyline class="cls-4" points="238.28 449.05 238.28 443.84 238.28 391.74"/><path class="cls-4" d="M290.38,472a52.3,52.3,0,0,0-52.3-52.3" transform="translate(0 -28.33)"/><path d="M225.06,227.32h0Z" transform="translate(0 -28.33)"/><path class="cls-4" d="M225.06,227.32h0Z" transform="translate(0 -28.33)"/><path d="M219.85,519.06h5.21v5.2Zm0-291.74V519.06h5.21Z" transform="translate(0 -28.33)"/><path class="cls-4" d="M219.85,519.06h5.21v5.2Zm0-291.74V519.06h5.21Z" transform="translate(0 -28.33)"/><polygon points="219.85 198.99 225.06 198.99 225.06 490.72 219.85 198.99"/><polygon class="cls-4" points="219.85 198.99 225.06 198.99 225.06 490.72 219.85 198.99"/><line class="cls-4" x1="225.06" y1="495.93" x2="225.06" y2="449.05"/><polyline class="cls-4" points="225.06 443.84 225.06 198.99 219.85 198.99 219.85 490.72"/><path d="M303.6,477.38h0Z" transform="translate(0 -28.33)"/><path class="cls-4" d="M303.6,477.38h0Z" transform="translate(0 -28.33)"/><path d="M303.6,527.87h-5.21V477.38Zm0,0Z" transform="translate(0 -28.33)"/><path class="cls-4" d="M303.6,527.87h-5.21V477.38Zm0,0Z" transform="translate(0 -28.33)"/><polygon points="298.39 449.05 303.6 449.05 303.6 499.54 298.39 449.05"/><polygon class="cls-4" points="298.39 449.05 303.6 449.05 303.6 499.54 298.39 449.05"/><path d="M303.6,580h0Z" transform="translate(0 -28.33)"/><path class="cls-4" d="M303.6,580h0Z" transform="translate(0 -28.33)"/><path d="M303.6,635.27h-5.21V580Zm0,0Z" transform="translate(0 -28.33)"/><path class="cls-4" d="M303.6,635.27h-5.21V580Zm0,0Z" transform="translate(0 -28.33)"/><polygon points="298.39 551.63 303.6 551.63 303.6 606.93 298.39 551.63"/><polygon class="cls-4" points="298.39 551.63 303.6 551.63 303.6 606.93 298.39 551.63"/><line class="cls-4" x1="298.39" y1="499.54" x2="303.6" y2="499.54"/><line class="cls-4" x1="298.39" y1="551.63" x2="303.6" y2="551.63"/><line class="cls-4" x1="298.39" y1="449.05" x2="298.39" y2="499.54"/><polyline class="cls-4" points="298.39 551.63 298.39 606.93 303.6 606.93 303.6 587.3"/><line class="cls-4" x1="303.6" y1="582.09" x2="303.6" y2="551.63"/><line class="cls-4" x1="303.6" y1="499.54" x2="303.6" y2="449.05"/><line class="cls-4" x1="298.39" y1="499.54" x2="298.39" y2="502.74"/><line class="cls-4" x1="303.6" y1="499.54" x2="303.6" y2="502.74"/><line class="cls-4" x1="298.39" y1="551.63" x2="298.39" y2="548.43"/><line class="cls-4" x1="303.6" y1="551.63" x2="303.6" y2="548.43"/><line class="cls-4" x1="303.6" y1="502.74" x2="298.39" y2="502.74"/><polyline class="cls-4" points="303.6 548.43 298.39 548.43 275.55 508.75"/><path class="cls-4" d="M298.19,531.08a45.52,45.52,0,0,0-22.74,6.09" transform="translate(0 -28.33)"/><path d="M371.73,615.63h0Z" transform="translate(0 -28.33)"/><path class="cls-4" d="M371.73,615.63h0Z" transform="translate(0 -28.33)"/><path d="M371.73,635.27h-5.21V615.63Zm0,0Z" transform="translate(0 -28.33)"/><path class="cls-4" d="M371.73,635.27h-5.21V615.63Zm0,0Z" transform="translate(0 -28.33)"/><polygon points="366.52 587.3 371.73 587.3 371.73 606.93 366.52 587.3"/><polygon class="cls-4" points="366.52 587.3 371.73 587.3 371.73 606.93 366.52 587.3"/><polyline class="cls-4" points="366.52 587.3 366.52 606.93 371.73 606.93 371.73 587.3"/><path d="M413.8,610.42h0Z" transform="translate(0 -28.33)"/><path class="cls-4" d="M413.8,610.42h0Z" transform="translate(0 -28.33)"/><path d="M413.8,615.63H303.6v-5.21Zm0,0Z" transform="translate(0 -28.33)"/><path class="cls-4" d="M413.8,615.63H303.6v-5.21Zm0,0Z" transform="translate(0 -28.33)"/><polygon points="303.6 582.09 413.8 582.09 413.8 587.3 303.6 582.09"/><polygon class="cls-4" points="303.6 582.09 413.8 582.09 413.8 587.3 303.6 582.09"/><line class="cls-4" x1="413.8" y1="582.09" x2="303.6" y2="582.09"/><line class="cls-4" x1="303.6" y1="587.3" x2="366.52" y2="587.3"/><polyline class="cls-4" points="371.73 587.3 413.8 587.3 413.8 582.09"/><path d="M144.91,558.33h0Z" transform="translate(0 -28.33)"/><path class="cls-4" d="M144.91,558.33h0Z" transform="translate(0 -28.33)"/><path d="M144.91,563.54H13.47v-5.21Zm0,0Z" transform="translate(0 -28.33)"/><path class="cls-4" d="M144.91,563.54H13.47v-5.21Zm0,0Z" transform="translate(0 -28.33)"/><polygon points="13.47 529.99 144.91 529.99 144.91 535.2 13.47 529.99"/><polygon class="cls-4" points="13.47 529.99 144.91 529.99 144.91 535.2 13.47 529.99"/><line class="cls-4" x1="144.91" y1="529.99" x2="13.47" y2="529.99"/><line class="cls-4" x1="13.47" y1="535.2" x2="39.52" y2="535.2"/><line class="cls-4" x1="44.73" y1="535.2" x2="144.91" y2="535.2"/><path d="M44.73,563.54h0Z" transform="translate(0 -28.33)"/><path class="cls-4" d="M44.73,563.54h0Z" transform="translate(0 -28.33)"/><path d="M39.52,563.54,44.73,622H39.52Zm5.21,0H39.52L44.73,622Z" transform="translate(0 -28.33)"/><path class="cls-4" d="M39.52,563.54,44.73,622H39.52Zm5.21,0H39.52L44.73,622Z" transform="translate(0 -28.33)"/><line class="cls-4" x1="44.73" y1="593.71" x2="44.73" y2="535.2"/><line class="cls-4" x1="39.52" y1="535.2" x2="39.52" y2="567.66"/><line class="cls-4" x1="39.52" y1="572.87" x2="39.52" y2="593.71"/><path d="M13.47,596h0Z" transform="translate(0 -28.33)"/><path class="cls-4" d="M13.47,596h0Z" transform="translate(0 -28.33)"/><path d="M39.52,601.2H13.47V596Zm0,0Z" transform="translate(0 -28.33)"/><path class="cls-4" d="M39.52,601.2H13.47V596Zm0,0Z" transform="translate(0 -28.33)"/><polygon points="13.47 567.66 39.52 567.66 39.52 572.87 13.47 567.66"/><polygon class="cls-4" points="13.47 567.66 39.52 567.66 39.52 572.87 13.47 567.66"/><line class="cls-4" x1="39.52" y1="567.66" x2="13.47" y2="567.66"/><line class="cls-4" x1="13.47" y1="572.87" x2="39.52" y2="572.87"/><path d="M219.85,519.06h0Z" transform="translate(0 -28.33)"/><path class="cls-4" d="M219.85,519.06h0Z" transform="translate(0 -28.33)"/><path d="M225.06,524.26H212.24v-5.2Zm0,0Z" transform="translate(0 -28.33)"/><path class="cls-4" d="M225.06,524.26H212.24v-5.2Zm0,0Z" transform="translate(0 -28.33)"/><polygon points="212.24 490.72 219.85 490.72 225.06 495.93 212.24 490.72"/><polygon class="cls-4" points="212.24 490.72 219.85 490.72 225.06 495.93 212.24 490.72"/><path d="M153.33,519.06h0Z" transform="translate(0 -28.33)"/><path class="cls-4" d="M153.33,519.06h0Z" transform="translate(0 -28.33)"/><path d="M153.33,524.26h-3.21l-5.21-5.2Zm0,0Z" transform="translate(0 -28.33)"/><path class="cls-4" d="M153.33,524.26h-3.21l-5.21-5.2Zm0,0Z" transform="translate(0 -28.33)"/><polygon points="144.91 490.72 153.33 490.72 153.33 495.93 144.91 490.72"/><polygon class="cls-4" points="144.91 490.72 153.33 490.72 153.33 495.93 144.91 490.72"/><line class="cls-4" x1="225.06" y1="495.93" x2="225.06" y2="495.93"/><polyline class="cls-4" points="212.24 495.93 212.24 490.72 212.24 495.93"/><polyline class="cls-4" points="144.91 490.72 153.33 490.72 153.33 495.93 150.12 495.93"/><line class="cls-4" x1="153.33" y1="490.72" x2="156.94" y2="490.72"/><line class="cls-4" x1="153.33" y1="495.93" x2="156.94" y2="495.93"/><line class="cls-4" x1="212.24" y1="490.72" x2="209.03" y2="490.72"/><line class="cls-4" x1="212.24" y1="495.93" x2="209.03" y2="495.93"/><line class="cls-4" x1="156.94" y1="495.93" x2="156.94" y2="490.72"/><polyline class="cls-4" points="209.03 495.93 209.03 490.72 209.03 438.63"/><path class="cls-4" d="M208.83,466.56a52.3,52.3,0,0,0-52.3,52.29" transform="translate(0 -28.33)"/><path d="M280.76,635.27h0Z" transform="translate(0 -28.33)"/><path class="cls-4" d="M280.76,635.27h0Z" transform="translate(0 -28.33)"/><path d="M424.22,648.09H280.76V635.27Zm0,0Z" transform="translate(0 -28.33)"/><path class="cls-4" d="M424.22,648.09H280.76V635.27Zm0,0Z" transform="translate(0 -28.33)"/><polygon points="280.76 606.93 411 606.93 424.22 619.76 280.76 606.93"/><polygon class="cls-4" points="280.76 606.93 411 606.93 424.22 619.76 280.76 606.93"/><line class="cls-4" x1="280.76" y1="606.93" x2="280.76" y2="619.76"/><line class="cls-4" x1="215.44" y1="606.93" x2="215.44" y2="619.76"/><line class="cls-4" x1="411" y1="606.93" x2="280.76" y2="606.93"/><line class="cls-4" x1="280.76" y1="619.76" x2="424.22" y2="619.76"/><path class="cls-4" d="M277.76,575.16a59.91,59.91,0,0,0-59.91,59.91" transform="translate(0 -28.33)"/><path d="M215.44,635.27h0Z" transform="translate(0 -28.33)"/><path class="cls-4" d="M215.44,635.27h0Z" transform="translate(0 -28.33)"/><path d="M218.25,648.09h-2.81V635.27Zm0,0Z" transform="translate(0 -28.33)"/><path class="cls-4" d="M218.25,648.09h-2.81V635.27Zm0,0Z" transform="translate(0 -28.33)"/><polygon points="215.44 606.93 218.25 606.93 218.25 619.76 215.44 606.93"/><polygon class="cls-4" points="215.44 606.93 218.25 606.93 218.25 619.76 215.44 606.93"/><path d="M278,635.27h0Z" transform="translate(0 -28.33)"/><path class="cls-4" d="M278,635.27h0Z" transform="translate(0 -28.33)"/><path d="M280.76,648.09H278V635.27Zm0,0Z" transform="translate(0 -28.33)"/><path class="cls-4" d="M280.76,648.09H278V635.27Zm0,0Z" transform="translate(0 -28.33)"/><polygon points="277.96 606.93 280.76 606.93 280.76 619.76 277.96 606.93"/><polygon class="cls-4" points="277.96 606.93 280.76 606.93 280.76 619.76 277.96 606.93"/><polyline class="cls-4" points="215.44 619.76 218.25 619.76 218.25 606.93 215.44 606.93 215.44 619.76"/><polyline class="cls-4" points="280.76 606.93 277.96 606.93 277.96 619.76 280.76 619.76 280.76 606.93"/><line class="cls-4" x1="277.96" y1="606.93" x2="277.96" y2="546.82"/><line class="cls-4" x1="215.44" y1="606.93" x2="215.44" y2="619.76"/><line class="cls-4" x1="280.76" y1="606.93" x2="280.76" y2="619.76"/><polyline points="424.22 606.93 424.22 606.93 424.22 606.93"/><polyline class="cls-4" points="424.22 606.93 424.22 606.93 424.22 606.93"/><polyline points="424.22 619.76 424.22 619.76 424.22 606.93 424.22 619.76"/><polyline points="424.22 619.76 424.22 619.76 424.22 619.76"/><polyline class="cls-4" points="424.22 619.76 424.22 619.76 424.22 606.93 424.22 619.76"/><polyline class="cls-4" points="424.22 619.76 424.22 619.76 424.22 619.76"/><polyline points="424.22 619.76 424.22 606.93 424.22 606.93"/><polyline class="cls-4" points="424.22 619.76 424.22 606.93 424.22 606.93"/><polyline class="cls-4" points="424.22 606.93 424.22 606.93 424.22 619.76 424.22 619.76"/><path d="M.25,227.72h0Z" transform="translate(0 -28.33)"/><path class="cls-4" d="M.25,227.72h0Z" transform="translate(0 -28.33)"/><path d="M13.47,459.35H.25V227.72Zm0,0Z" transform="translate(0 -28.33)"/><path class="cls-4" d="M13.47,459.35H.25V227.72Zm0,0Z" transform="translate(0 -28.33)"/><polygon points="0.25 199.39 13.47 199.39 13.47 431.01 0.25 199.39"/><polygon class="cls-4" points="0.25 199.39 13.47 199.39 13.47 431.01 0.25 199.39"/><polyline class="cls-4" points="0.25 199.39 0.25 431.01 13.47 431.01 13.47 199.39 0.25 199.39"/><path d="M.25,524.26h0Z" transform="translate(0 -28.33)"/><path class="cls-4" d="M.25,524.26h0Z" transform="translate(0 -28.33)"/><path d="M.25,524.26l13.22,111H.25Zm13.22,0H.25l13.22,111Z" transform="translate(0 -28.33)"/><path class="cls-4" d="M.25,524.26l13.22,111H.25Zm13.22,0H.25l13.22,111Z" transform="translate(0 -28.33)"/><line class="cls-4" x1="0.25" y1="495.93" x2="0.25" y2="529.99"/><line class="cls-4" x1="0.25" y1="535.2" x2="0.25" y2="567.66"/><line class="cls-4" x1="0.25" y1="572.87" x2="0.25" y2="619.76"/><line class="cls-4" x1="13.47" y1="606.93" x2="13.47" y2="572.87"/><line class="cls-4" x1="13.47" y1="567.66" x2="13.47" y2="535.2"/><polyline class="cls-4" points="13.47 529.99 13.47 495.93 0.25 495.93"/><path d="M411,239.35h0Z" transform="translate(0 -28.33)"/><path class="cls-4" d="M411,239.35h0Z" transform="translate(0 -28.33)"/><path d="M424.22,459.35H411v-220Zm0,0Z" transform="translate(0 -28.33)"/><path class="cls-4" d="M424.22,459.35H411v-220Zm0,0Z" transform="translate(0 -28.33)"/><polygon points="411 211.01 424.22 211.01 424.22 431.01 411 211.01"/><polygon class="cls-4" points="411 211.01 424.22 211.01 424.22 431.01 411 211.01"/><polyline class="cls-4" points="411 211.01 411 431.01 424.22 431.01 424.22 211.01 411 211.01"/><path d="M411,524.26h0Z" transform="translate(0 -28.33)"/><path class="cls-4" d="M411,524.26h0Z" transform="translate(0 -28.33)"/><path d="M411,635.27h13.22v12.82Zm0-111v111h13.22Z" transform="translate(0 -28.33)"/><path class="cls-4" d="M411,635.27h13.22v12.82Zm0-111v111h13.22Z" transform="translate(0 -28.33)"/><polygon points="411 495.93 424.22 495.93 424.22 606.93 411 495.93"/><polygon class="cls-4" points="411 495.93 424.22 495.93 424.22 606.93 411 495.93"/><line class="cls-4" x1="411" y1="495.93" x2="411" y2="606.93"/><polyline class="cls-4" points="424.22 619.76 424.22 495.93 411 495.93"/><polyline class="cls-4" points="13.47 490.72 13.47 529.99 52.34 529.99 52.34 490.72 32.71 490.72 13.47 490.72"/><polyline class="cls-4" points="15.88 493.53 15.88 527.19 49.94 527.19 49.94 493.53 32.71 493.53 15.88 493.53"/><line class="cls-4" x1="6.66" y1="398.15" x2="6.66" y2="398.15"/><line class="cls-4" x1="144.91" y1="398.15" x2="143.41" y2="398.15"/><line class="cls-5" x1="140.43" y1="398.15" x2="16.47" y2="398.15"/><line class="cls-4" x1="14.97" y1="398.15" x2="13.47" y2="398.15"/><line class="cls-4" x1="6.66" y1="398.15" x2="6.66" y2="398.15"/><line class="cls-4" x1="144.91" y1="490.72" x2="144.91" y2="490.72"/><line class="cls-4" x1="144.91" y1="490.72" x2="144.91" y2="489.22"/><line class="cls-6" x1="144.91" y1="486.13" x2="144.91" y2="401.2"/><line class="cls-4" x1="144.91" y1="399.65" x2="144.91" y2="398.15"/><line class="cls-4" x1="146.92" y1="490.72" x2="13.47" y2="490.72"/><line class="cls-4" x1="52.34" y1="619.76" x2="150.12" y2="619.76"/><path d="M.25,178.84h0Z" transform="translate(0 -28.33)"/><path class="cls-4" d="M.25,178.84h0Z" transform="translate(0 -28.33)"/><path d="M13.47,227.72H.25V178.84Zm0,0Z" transform="translate(0 -28.33)"/><path class="cls-4" d="M13.47,227.72H.25V178.84Zm0,0Z" transform="translate(0 -28.33)"/><polygon points="0.25 150.5 13.47 150.5 13.47 199.39 0.25 150.5"/><polygon class="cls-4" points="0.25 150.5 13.47 150.5 13.47 199.39 0.25 150.5"/><line class="cls-4" x1="13.47" y1="199.39" x2="13.47" y2="150.5"/><polyline class="cls-4" points="0.25 127.66 0.25 199.39 13.47 199.39"/><path d="M.25,459.35h0Z" transform="translate(0 -28.33)"/><path class="cls-4" d="M.25,459.35h0Z" transform="translate(0 -28.33)"/><path d="M13.47,524.26H.25V459.35Zm0,0Z" transform="translate(0 -28.33)"/><path class="cls-4" d="M13.47,524.26H.25V459.35Zm0,0Z" transform="translate(0 -28.33)"/><polygon points="0.25 431.01 13.47 431.01 13.47 495.93 0.25 431.01"/><polygon class="cls-4" points="0.25 431.01 13.47 431.01 13.47 495.93 0.25 431.01"/><polyline class="cls-4" points="13.47 495.93 13.47 431.01 0.25 431.01 0.25 495.93 13.47 495.93"/><path d="M411,459.35h0Z" transform="translate(0 -28.33)"/><path class="cls-4" d="M411,459.35h0Z" transform="translate(0 -28.33)"/><path d="M424.22,524.26H411V459.35Zm0,0Z" transform="translate(0 -28.33)"/><path class="cls-4" d="M424.22,524.26H411V459.35Zm0,0Z" transform="translate(0 -28.33)"/><polygon points="411 431.01 424.22 431.01 424.22 495.93 411 431.01"/><polygon class="cls-4" points="411 431.01 424.22 431.01 424.22 495.93 411 431.01"/><polyline class="cls-4" points="424.22 495.93 424.22 431.01 411 431.01 411 495.93 424.22 495.93"/><path d="M150.12,635.27h0Z" transform="translate(0 -28.33)"/><path class="cls-4" d="M150.12,635.27h0Z" transform="translate(0 -28.33)"/><path d="M215.44,648.09H150.12V635.27Zm0,0Z" transform="translate(0 -28.33)"/><path class="cls-4" d="M215.44,648.09H150.12V635.27Zm0,0Z" transform="translate(0 -28.33)"/><polygon points="150.12 606.93 215.44 606.93 215.44 619.76 150.12 606.93"/><polygon class="cls-4" points="150.12 606.93 215.44 606.93 215.44 619.76 150.12 606.93"/><polyline class="cls-4" points="215.44 606.93 150.12 606.93 150.12 619.76 215.44 619.76 215.44 606.93"/><path d="M225.06,519.06H212.24V459.35Zm0,0Z" transform="translate(0 -28.33)"/><path class="cls-4" d="M225.06,519.06H212.24V459.35Zm0,0Z" transform="translate(0 -28.33)"/><polygon points="212.24 431.01 225.06 431.01 225.06 490.72 212.24 431.01"/><polygon class="cls-4" points="212.24 431.01 225.06 431.01 225.06 490.72 212.24 431.01"/><line class="cls-4" x1="212.24" y1="431.01" x2="212.24" y2="490.72"/><polyline class="cls-4" points="225.06 490.72 225.06 431.01 212.24 431.01"/><path d="M212.24,162.81l12.82,64.91H212.24Zm12.82,0H212.24l12.82,64.91Z" transform="translate(0 -28.33)"/><path class="cls-4" d="M212.24,162.81l12.82,64.91H212.24Zm12.82,0H212.24l12.82,64.91Z" transform="translate(0 -28.33)"/><polyline class="cls-4" points="212.24 134.47 212.24 199.39 225.06 199.39 225.06 134.47 212.24 134.47"/><text class="cls-7" transform="translate(190.7 554.94)">4.86</text><text class="cls-7" transform="translate(73.98 576.63)">2.19</text><text class="cls-7" transform="translate(328 536.74)">3.37</text><text class="cls-7" transform="translate(120.98 102.51)">0.89</text><text class="cls-7" transform="translate(89.42 183.1)">13.22</text><text class="cls-7" transform="translate(286.33 183.1)">12.54</text><text class="cls-7" transform="translate(59.6 447.86)">3.13</text></svg>