<svg id="_526" data-name="526" xmlns="http://www.w3.org/2000/svg" viewBox="0 0 441.35 586.34"><defs><style>.cls-1,.cls-6,.cls-7{fill:none;stroke-linecap:round;stroke-linejoin:round;stroke-width:0.5px;}.cls-1{stroke:#999;}.cls-2{isolation:isolate;font-size:12px;fill:#999;}.cls-2,.cls-4,.cls-5{font-family:PTSans-Regular, PT Sans;}.cls-3{letter-spacing:-0.01em;}.cls-4{font-size:20px;}.cls-5{font-size:24px;}.cls-6,.cls-7{stroke:#000;}.cls-7{stroke-dasharray:2.95 2.95;}</style></defs><title>4floor_526flat</title><line class="cls-1" x1="202.6" y1="575" x2="202.6" y2="583.8"/><polyline class="cls-1" points="199 580.5 202.5 584 206 580.5"/><text class="cls-2" transform="translate(211.82 583.4)"><tspan class="cls-3">у</tspan><tspan x="5.42" y="0">лица</tspan></text><text class="cls-4" transform="translate(87.15 454.47)">13.79</text><text class="cls-4" transform="translate(304.75 454.47)">12.24</text><text class="cls-4" transform="translate(200.89 78.8)">5.08</text><text class="cls-4" transform="translate(318.92 205.94)">4.09</text><text class="cls-4" transform="translate(91.34 89.09)">2.89</text><text class="cls-4" transform="translate(340.5 114.94) rotate(-90)">1.76</text><text class="cls-5" transform="translate(98.97 353.68)">1Е</text><text class="cls-5" transform="translate(83.22 386.72)">39.85</text><text class="cls-5" transform="translate(80.05 321.13)">№526</text><polyline class="cls-6" points="71.41 395.08 71.41 297.88 152.48 297.88 152.48 395.08"/><line class="cls-6" x1="71.41" y1="330.35" x2="152.48" y2="330.35"/><line class="cls-6" x1="71.41" y1="395.08" x2="152.48" y2="395.08"/><line class="cls-6" x1="71.41" y1="362.81" x2="152.48" y2="362.81"/><polyline class="cls-6" points="211.03 424.09 211.03 190.85 203.22 190.85 203.22 130.42 24.55 130.42 24.55 415.49 24.55 473.38 203.22 473.38 203.22 424.09 211.03 424.09"/><polyline class="cls-6" points="216.38 223.66 216.38 402.42 216.38 473.38"/><polyline class="cls-6" points="216.38 473.38 427.95 473.38 427.95 223.66"/><polyline class="cls-6" points="140.86 125.16 316.29 125.16 316.29 13.41 140.86 13.41 140.86 125.16"/><line class="cls-6" x1="316.29" y1="0.25" x2="140.86" y2="0.25"/><polyline class="cls-6" points="24.55 13.41 24.55 65.33 62.62 65.33 62.62 125.16 135.51 125.16 135.51 13.41 90.25 13.41 24.55 13.41"/><polyline class="cls-6" points="427.95 223.66 427.95 190.85 427.95 130.42"/><polyline class="cls-6" points="427.95 130.42 216.38 130.42 216.38 190.85 216.38 223.66"/><polyline class="cls-6" points="389.88 47.62 321.55 47.62 321.55 125.16 389.88 125.16 389.88 47.62"/><path d="M434.53,500.31h0Z"/><path class="cls-6" d="M434.53,500.31h0Z"/><path d="M441.1,508.21h-6.57v-7.9Zm0,0Z"/><path class="cls-6" d="M441.1,508.21h-6.57v-7.9Zm0,0Z"/><polygon points="434.53 500.31 441.1 500.31 441.1 508.21 434.53 500.31"/><polygon class="cls-6" points="434.53 500.31 441.1 500.31 441.1 508.21 434.53 500.31"/><path d="M434.53,499.61h0Z"/><path class="cls-6" d="M434.53,499.61h0Z"/><path d="M441.1,500.31h-6.57v-.7Zm0,0Z"/><path class="cls-6" d="M441.1,500.31h-6.57v-.7Zm0,0Z"/><polygon points="434.53 499.61 441.1 499.61 441.1 500.31 434.53 499.61"/><polygon class="cls-6" points="434.53 499.61 441.1 499.61 441.1 500.31 434.53 499.61"/><path d="M434.53,489.79h0Z"/><path class="cls-6" d="M434.53,489.79h0Z"/><path d="M434.53,489.79,441.1,497h-6.57Zm6.57,0h-6.57L441.1,497Z"/><path class="cls-6" d="M434.53,489.79,441.1,497h-6.57Zm6.57,0h-6.57L441.1,497Z"/><path d="M441.1,499.61h-6.57V497Zm0,0Z"/><path class="cls-6" d="M441.1,499.61h-6.57V497Zm0,0Z"/><polygon points="434.53 496.98 441.1 496.98 441.1 499.61 434.53 496.98"/><polygon class="cls-6" points="434.53 496.98 441.1 496.98 441.1 499.61 434.53 496.98"/><path d="M434.53,473.38h0Z"/><path class="cls-6" d="M434.53,473.38h0Z"/><path d="M441.1,489.79h-6.57V473.38Zm0,0Z"/><path class="cls-6" d="M441.1,489.79h-6.57V473.38Zm0,0Z"/><polygon points="434.53 473.38 441.1 473.38 441.1 489.79 434.53 473.38"/><polygon class="cls-6" points="434.53 473.38 441.1 473.38 441.1 489.79 434.53 473.38"/><line class="cls-6" x1="434.53" y1="500.31" x2="441.1" y2="500.31"/><line class="cls-6" x1="434.53" y1="499.61" x2="441.1" y2="499.61"/><line class="cls-6" x1="441.1" y1="489.79" x2="441.1" y2="473.38"/><polyline class="cls-6" points="441.1 508.21 441.1 500.31 441.1 500.31"/><polyline class="cls-6" points="441.1 500.31 441.1 499.61 441.1 496.98"/><line class="cls-6" x1="434.53" y1="508.21" x2="441.1" y2="508.21"/><polyline class="cls-6" points="441.1 500.31 441.1 500.31 441.1 499.61 441.1 496.98"/><path d="M209.8,500.31h0Z"/><path class="cls-6" d="M209.8,500.31h0Z"/><path d="M238.75,508.21H209.8v-7.9Zm0,0Z"/><path class="cls-6" d="M238.75,508.21H209.8v-7.9Zm0,0Z"/><polygon points="209.8 500.31 238.75 500.31 238.75 508.21 209.8 500.31"/><polygon class="cls-6" points="209.8 500.31 238.75 500.31 238.75 508.21 209.8 500.31"/><path d="M299.18,500.31l50.61,7.9H299.18Zm50.61,0H299.18l50.61,7.9Z"/><path class="cls-6" d="M299.18,500.31l50.61,7.9H299.18Zm50.61,0H299.18l50.61,7.9Z"/><path d="M410.23,500.31l24.3,7.9h-24.3Zm24.3,0h-24.3l24.3,7.9Z"/><path class="cls-6" d="M410.23,500.31l24.3,7.9h-24.3Zm24.3,0h-24.3l24.3,7.9Z"/><path d="M209.8,499.61h0Z"/><path class="cls-6" d="M209.8,499.61h0Z"/><path d="M236.12,500.31H209.8v-.7Zm0,0Z"/><path class="cls-6" d="M236.12,500.31H209.8v-.7Zm0,0Z"/><polygon points="209.8 499.61 236.12 499.61 236.12 500.31 209.8 499.61"/><polygon class="cls-6" points="209.8 499.61 236.12 499.61 236.12 500.31 209.8 499.61"/><path d="M301.81,499.61h0Z"/><path class="cls-6" d="M301.81,499.61h0Z"/><path d="M347.16,500.31H301.81v-.7Zm0,0Z"/><path class="cls-6" d="M347.16,500.31H301.81v-.7Zm0,0Z"/><polygon points="301.81 499.61 347.16 499.61 347.16 500.31 301.81 499.61"/><polygon class="cls-6" points="301.81 499.61 347.16 499.61 347.16 500.31 301.81 499.61"/><path d="M412.86,499.61h0Z"/><path class="cls-6" d="M412.86,499.61h0Z"/><path d="M412.86,499.61l21.67.7H412.86Zm21.67,0H412.86l21.67.7Z"/><path class="cls-6" d="M412.86,499.61l21.67.7H412.86Zm21.67,0H412.86l21.67.7Z"/><path d="M209.8,489.79h0Z"/><path class="cls-6" d="M209.8,489.79h0Z"/><path d="M209.8,489.79,236.12,497H209.8Zm26.32,0H209.8L236.12,497Z"/><path class="cls-6" d="M209.8,489.79,236.12,497H209.8Zm26.32,0H209.8L236.12,497Z"/><path d="M236.12,499.61H209.8V497Zm0,0Z"/><path class="cls-6" d="M236.12,499.61H209.8V497Zm0,0Z"/><polygon points="209.8 496.98 236.12 496.98 236.12 499.61 209.8 496.98"/><polygon class="cls-6" points="209.8 496.98 236.12 496.98 236.12 499.61 209.8 496.98"/><path d="M301.81,489.79h0Z"/><path class="cls-6" d="M301.81,489.79h0Z"/><path d="M301.81,497h0Zm45.35,0h0Zm-45.35-7.19L347.16,497H301.81Zm45.35,0H301.81L347.16,497Z"/><path class="cls-6" d="M301.81,497h0Zm45.35,0h0Zm-45.35-7.19L347.16,497H301.81Zm45.35,0H301.81L347.16,497Z"/><path d="M347.16,499.61H301.81V497Zm0,0Z"/><path class="cls-6" d="M347.16,499.61H301.81V497Zm0,0Z"/><polygon points="301.81 496.98 347.16 496.98 347.16 499.61 301.81 496.98"/><polygon class="cls-6" points="301.81 496.98 347.16 496.98 347.16 499.61 301.81 496.98"/><path d="M412.86,489.79h0Z"/><path class="cls-6" d="M412.86,489.79h0Z"/><path d="M412.86,489.79,434.53,497H412.86Zm21.67,0H412.86L434.53,497Z"/><path class="cls-6" d="M412.86,489.79,434.53,497H412.86Zm21.67,0H412.86L434.53,497Z"/><path d="M434.53,499.61H412.86V497Zm0,0Z"/><path class="cls-6" d="M434.53,499.61H412.86V497Zm0,0Z"/><polygon points="412.86 496.98 434.53 496.98 434.53 499.61 412.86 496.98"/><polygon class="cls-6" points="412.86 496.98 434.53 496.98 434.53 499.61 412.86 496.98"/><path d="M428,473.38h0Z"/><path class="cls-6" d="M428,473.38h0Z"/><path d="M434.53,489.79H428V473.38Zm0,0Z"/><path class="cls-6" d="M434.53,489.79H428V473.38Zm0,0Z"/><polygon points="427.95 473.38 434.53 473.38 434.53 489.79 427.95 473.38"/><polygon class="cls-6" points="427.95 473.38 434.53 473.38 434.53 489.79 427.95 473.38"/><path d="M216.38,473.38h0Z"/><path class="cls-6" d="M216.38,473.38h0Z"/><path d="M236.12,489.79H216.38V473.38Zm0,0Z"/><path class="cls-6" d="M236.12,489.79H216.38V473.38Zm0,0Z"/><polygon points="216.38 473.38 236.12 473.38 236.12 489.79 216.38 473.38"/><polygon class="cls-6" points="216.38 473.38 236.12 473.38 236.12 489.79 216.38 473.38"/><path d="M347.16,489.79H301.81V473.38Zm0,0Z"/><path class="cls-6" d="M347.16,489.79H301.81V473.38Zm0,0Z"/><polygon points="301.81 473.38 347.16 473.38 347.16 489.79 301.81 473.38"/><polygon class="cls-6" points="301.81 473.38 347.16 473.38 347.16 489.79 301.81 473.38"/><path d="M428,489.79H412.86V473.38Zm0,0Z"/><path class="cls-6" d="M428,489.79H412.86V473.38Zm0,0Z"/><polygon points="412.86 473.38 427.95 473.38 427.95 489.79 412.86 473.38"/><polygon class="cls-6" points="412.86 473.38 427.95 473.38 427.95 489.79 412.86 473.38"/><path d="M209.8,473.38h0Z"/><path class="cls-6" d="M209.8,473.38h0Z"/><path d="M216.38,489.79H209.8V473.38Zm0,0Z"/><path class="cls-6" d="M216.38,489.79H209.8V473.38Zm0,0Z"/><polygon points="209.8 473.38 216.38 473.38 216.38 489.79 209.8 473.38"/><polygon class="cls-6" points="209.8 473.38 216.38 473.38 216.38 489.79 209.8 473.38"/><line class="cls-6" x1="301.81" y1="500.31" x2="347.16" y2="500.31"/><line class="cls-6" x1="209.8" y1="500.31" x2="236.12" y2="500.31"/><line class="cls-6" x1="412.86" y1="500.31" x2="434.53" y2="500.31"/><line class="cls-6" x1="301.81" y1="499.61" x2="347.16" y2="499.61"/><line class="cls-6" x1="209.8" y1="499.61" x2="236.12" y2="499.61"/><line class="cls-6" x1="412.86" y1="499.61" x2="434.53" y2="499.61"/><line class="cls-6" x1="427.95" y1="473.38" x2="427.95" y2="489.79"/><line class="cls-6" x1="216.38" y1="489.79" x2="216.38" y2="473.38"/><polyline class="cls-6" points="412.86 496.98 412.86 489.79 412.86 473.38"/><polyline class="cls-6" points="410.23 508.21 410.23 500.31 412.86 500.31"/><polyline class="cls-6" points="412.86 500.31 412.86 499.61 412.86 496.98"/><polyline class="cls-6" points="347.16 496.98 347.16 489.79 347.16 473.38"/><polyline class="cls-6" points="349.79 508.21 349.79 500.31 347.16 500.31"/><polyline class="cls-6" points="347.16 500.31 347.16 499.61 347.16 496.98"/><polyline class="cls-6" points="301.81 496.98 301.81 489.79 301.81 473.38"/><polyline class="cls-6" points="299.18 508.21 299.18 500.31 301.81 500.31"/><polyline class="cls-6" points="301.81 500.31 301.81 499.61 301.81 496.98"/><polyline class="cls-6" points="236.12 496.98 236.12 489.79 236.12 473.38"/><polyline class="cls-6" points="238.75 508.21 238.75 500.31 236.12 500.31"/><polyline class="cls-6" points="236.12 500.31 236.12 499.61 236.12 496.98"/><line class="cls-6" x1="427.95" y1="473.38" x2="412.86" y2="473.38"/><line class="cls-6" x1="347.16" y1="473.38" x2="301.81" y2="473.38"/><line class="cls-6" x1="236.12" y1="473.38" x2="216.38" y2="473.38"/><line class="cls-6" x1="209.8" y1="508.21" x2="238.75" y2="508.21"/><line class="cls-6" x1="299.18" y1="508.21" x2="349.79" y2="508.21"/><line class="cls-6" x1="410.23" y1="508.21" x2="434.53" y2="508.21"/><line class="cls-6" x1="349.79" y1="508.21" x2="410.23" y2="508.21"/><line class="cls-6" x1="347.16" y1="473.38" x2="412.86" y2="473.38"/><path d="M347.16,497h0Z"/><path class="cls-6" d="M347.16,497h0Z"/><path d="M355.06,500.31h-7.9V497Zm0,0Z"/><path class="cls-6" d="M355.06,500.31h-7.9V497Zm0,0Z"/><polygon points="347.16 496.98 355.06 496.98 355.06 500.31 347.16 496.98"/><polygon class="cls-6" points="347.16 496.98 355.06 496.98 355.06 500.31 347.16 496.98"/><path d="M405,497h0Z"/><path class="cls-6" d="M405,497h0Z"/><path d="M412.86,500.31H405V497Zm0,0Z"/><path class="cls-6" d="M412.86,500.31H405V497Zm0,0Z"/><polygon points="404.97 496.98 412.86 496.98 412.86 500.31 404.97 496.98"/><polygon class="cls-6" points="404.97 496.98 412.86 496.98 412.86 500.31 404.97 496.98"/><polyline class="cls-6" points="347.16 500.31 355.06 500.31 355.06 496.98 347.16 496.98"/><polyline class="cls-6" points="412.86 496.98 404.97 496.98 404.97 500.31 412.86 500.31"/><line class="cls-6" x1="355.06" y1="500.31" x2="404.97" y2="500.31"/><line class="cls-6" x1="404.97" y1="496.98" x2="355.06" y2="496.98"/><polyline class="cls-6" points="349.79 500.31 347.16 500.31 347.16 499.61 347.16 496.98"/><polyline class="cls-6" points="410.23 500.31 412.86 500.31 412.86 499.61 412.86 496.98"/><line class="cls-6" x1="238.75" y1="508.21" x2="299.18" y2="508.21"/><line class="cls-6" x1="236.12" y1="473.38" x2="301.81" y2="473.38"/><path d="M236.12,497h0Z"/><path class="cls-6" d="M236.12,497h0Z"/><path d="M244,500.31h-7.89V497Zm0,0Z"/><path class="cls-6" d="M244,500.31h-7.89V497Zm0,0Z"/><polygon points="236.12 496.98 244.01 496.98 244.01 500.31 236.12 496.98"/><polygon class="cls-6" points="236.12 496.98 244.01 496.98 244.01 500.31 236.12 496.98"/><path d="M293.92,497h0Z"/><path class="cls-6" d="M293.92,497h0Z"/><path d="M301.81,500.31h-7.89V497Zm0,0Z"/><path class="cls-6" d="M301.81,500.31h-7.89V497Zm0,0Z"/><polygon points="293.92 496.98 301.81 496.98 301.81 500.31 293.92 496.98"/><polygon class="cls-6" points="293.92 496.98 301.81 496.98 301.81 500.31 293.92 496.98"/><polyline class="cls-6" points="236.12 500.31 244.01 500.31 244.01 496.98 236.12 496.98"/><polyline class="cls-6" points="301.81 496.98 293.92 496.98 293.92 500.31 301.81 500.31"/><line class="cls-6" x1="244.01" y1="500.31" x2="293.92" y2="500.31"/><line class="cls-6" x1="293.92" y1="496.98" x2="244.01" y2="496.98"/><polyline class="cls-6" points="238.75 500.31 236.12 500.31 236.12 499.61 236.12 496.98"/><polyline class="cls-6" points="299.18 500.31 301.81 500.31 301.81 499.61 301.81 496.98"/><path d="M.25,500.31l20.35,7.9H.25Zm20.35,0H.25l20.35,7.9Z"/><path class="cls-6" d="M.25,500.31l20.35,7.9H.25Zm20.35,0H.25l20.35,7.9Z"/><path d="M.25,499.61l20.35.7H.25Zm20.35,0H.25l20.35.7Z"/><path class="cls-6" d="M.25,499.61l20.35.7H.25Zm20.35,0H.25l20.35.7Z"/><path d="M.25,489.79,20.6,497H.25Zm20.35,0H.25L20.6,497Z"/><path class="cls-6" d="M.25,489.79,20.6,497H.25Zm20.35,0H.25L20.6,497Z"/><path d="M.25,497l20.35,2.63H.25Zm20.35,0H.25l20.35,2.63Z"/><path class="cls-6" d="M.25,497l20.35,2.63H.25Zm20.35,0H.25l20.35,2.63Z"/><path d="M.25,473.38,20.6,489.79H.25Zm20.35,0H.25L20.6,489.79Z"/><path class="cls-6" d="M.25,473.38,20.6,489.79H.25Zm20.35,0H.25L20.6,489.79Z"/><line class="cls-6" x1="0.25" y1="500.31" x2="20.6" y2="500.31"/><line class="cls-6" x1="0.25" y1="499.61" x2="20.6" y2="499.61"/><polyline class="cls-6" points="0.25 496.98 0.25 489.79 0.25 473.38"/><polyline class="cls-6" points="0.25 508.21 0.25 500.31 0.25 500.31"/><polyline class="cls-6" points="0.25 500.31 0.25 499.61 0.25 496.98"/><line class="cls-6" x1="0.25" y1="508.21" x2="20.6" y2="508.21"/><line class="cls-6" x1="20.6" y1="473.38" x2="0.25" y2="473.38"/><polyline class="cls-6" points="0.25 500.31 0.25 500.31 0.25 499.61 0.25 496.98"/><path d="M20.6,500.31l47.28,7.9H20.6Zm47.28,0H20.6l47.28,7.9Z"/><path class="cls-6" d="M20.6,500.31l47.28,7.9H20.6Zm47.28,0H20.6l47.28,7.9Z"/><path d="M179.63,500.31l30.17,7.9H179.63Zm30.17,0H179.63l30.17,7.9Z"/><path class="cls-6" d="M179.63,500.31l30.17,7.9H179.63Zm30.17,0H179.63l30.17,7.9Z"/><path d="M20.6,499.61l44.65.7H20.6Zm44.65,0H20.6l44.65.7Z"/><path class="cls-6" d="M20.6,499.61l44.65.7H20.6Zm44.65,0H20.6l44.65.7Z"/><path d="M182.26,499.61l27.54.7H182.26Zm27.54,0H182.26l27.54.7Z"/><path class="cls-6" d="M182.26,499.61l27.54.7H182.26Zm27.54,0H182.26l27.54.7Z"/><path d="M20.6,489.79,65.25,497H20.6Zm44.65,0H20.6L65.25,497Z"/><path class="cls-6" d="M20.6,489.79,65.25,497H20.6Zm44.65,0H20.6L65.25,497Z"/><path d="M20.6,497l44.65,2.63H20.6Zm44.65,0H20.6l44.65,2.63Z"/><path class="cls-6" d="M20.6,497l44.65,2.63H20.6Zm44.65,0H20.6l44.65,2.63Z"/><path d="M182.26,489.79,209.8,497H182.26Zm27.54,0H182.26L209.8,497Z"/><path class="cls-6" d="M182.26,489.79,209.8,497H182.26Zm27.54,0H182.26L209.8,497Z"/><path d="M182.26,497l27.54,2.63H182.26Zm27.54,0H182.26l27.54,2.63Z"/><path class="cls-6" d="M182.26,497l27.54,2.63H182.26Zm27.54,0H182.26l27.54,2.63Z"/><path d="M203.22,473.38l6.58,16.41h-6.58Zm6.58,0h-6.58l6.58,16.41Z"/><path class="cls-6" d="M203.22,473.38l6.58,16.41h-6.58Zm6.58,0h-6.58l6.58,16.41Z"/><path d="M20.6,473.38l44.65,16.41H20.6Zm44.65,0H20.6l44.65,16.41Z"/><path class="cls-6" d="M20.6,473.38l44.65,16.41H20.6Zm44.65,0H20.6l44.65,16.41Z"/><path d="M182.26,473.38l21,16.41h-21Zm21,0h-21l21,16.41Z"/><path class="cls-6" d="M182.26,473.38l21,16.41h-21Zm21,0h-21l21,16.41Z"/><line class="cls-6" x1="182.26" y1="500.31" x2="209.8" y2="500.31"/><line class="cls-6" x1="20.6" y1="500.31" x2="65.25" y2="500.31"/><line class="cls-6" x1="182.26" y1="499.61" x2="209.8" y2="499.61"/><line class="cls-6" x1="20.6" y1="499.61" x2="65.25" y2="499.61"/><line class="cls-6" x1="203.22" y1="473.38" x2="203.22" y2="489.79"/><polyline class="cls-6" points="182.26 496.98 182.26 489.79 182.26 473.38"/><polyline class="cls-6" points="179.63 508.21 179.63 500.31 182.26 500.31"/><polyline class="cls-6" points="182.26 500.31 182.26 499.61 182.26 496.98"/><polyline class="cls-6" points="65.25 496.98 65.25 489.79 65.25 473.38"/><polyline class="cls-6" points="67.88 508.21 67.88 500.31 65.25 500.31"/><polyline class="cls-6" points="65.25 500.31 65.25 499.61 65.25 496.98"/><line class="cls-6" x1="20.6" y1="508.21" x2="67.88" y2="508.21"/><line class="cls-6" x1="179.63" y1="508.21" x2="209.8" y2="508.21"/><line class="cls-6" x1="203.22" y1="473.38" x2="182.26" y2="473.38"/><line class="cls-6" x1="65.25" y1="473.38" x2="20.6" y2="473.38"/><line class="cls-6" x1="67.88" y1="508.21" x2="179.63" y2="508.21"/><line class="cls-6" x1="65.25" y1="473.38" x2="182.26" y2="473.38"/><path d="M65.25,497l7.89,3.33H65.25Zm7.89,0H65.25l7.89,3.33Z"/><path class="cls-6" d="M65.25,497l7.89,3.33H65.25Zm7.89,0H65.25l7.89,3.33Z"/><path d="M121.12,497l2.63,3.33h-2.63Zm2.63,0h-2.63l2.63,3.33Z"/><path class="cls-6" d="M121.12,497l2.63,3.33h-2.63Zm2.63,0h-2.63l2.63,3.33Z"/><path d="M123.75,497l2.63,3.33h-2.63Zm2.63,0h-2.63l2.63,3.33Z"/><path class="cls-6" d="M123.75,497l2.63,3.33h-2.63Zm2.63,0h-2.63l2.63,3.33Z"/><path d="M174.36,497l7.9,3.33h-7.9Zm7.9,0h-7.9l7.9,3.33Z"/><path class="cls-6" d="M174.36,497l7.9,3.33h-7.9Zm7.9,0h-7.9l7.9,3.33Z"/><polyline class="cls-6" points="65.25 496.98 73.14 496.98 73.14 500.31 65.25 500.31"/><polyline class="cls-6" points="123.75 500.31 121.12 500.31 121.12 496.98 123.75 496.98"/><line class="cls-6" x1="73.14" y1="496.98" x2="121.12" y2="496.98"/><line class="cls-6" x1="121.12" y1="500.31" x2="73.14" y2="500.31"/><polyline class="cls-6" points="123.75 496.98 126.38 496.98 126.38 500.31 123.75 500.31"/><polyline class="cls-6" points="182.26 500.31 174.36 500.31 174.36 496.98 182.26 496.98"/><line class="cls-6" x1="126.38" y1="496.98" x2="174.36" y2="496.98"/><line class="cls-6" x1="174.36" y1="500.31" x2="126.38" y2="500.31"/><polyline class="cls-6" points="67.88 500.31 65.25 500.31 65.25 499.61 65.25 496.98"/><polyline class="cls-6" points="179.63 500.31 182.26 500.31 182.26 499.61 182.26 496.98"/><path d="M316.29,121.82h0Z"/><path class="cls-6" d="M316.29,121.82h0Z"/><path d="M321.55,125.16h-5.26v-3.34Zm0,0Z"/><path class="cls-6" d="M321.55,125.16h-5.26v-3.34Zm0,0Z"/><polygon points="316.29 121.82 321.55 121.82 321.55 125.16 316.29 121.82"/><polygon class="cls-6" points="316.29 121.82 321.55 121.82 321.55 125.16 316.29 121.82"/><path d="M316.29,13.41h0Z"/><path class="cls-6" d="M316.29,13.41h0Z"/><path d="M321.55,72.53h-5.26V13.41Zm0,0Z"/><path class="cls-6" d="M321.55,72.53h-5.26V13.41Zm0,0Z"/><polygon points="316.29 13.41 321.55 13.41 321.55 72.53 316.29 13.41"/><polygon class="cls-6" points="316.29 13.41 321.55 13.41 321.55 72.53 316.29 13.41"/><line class="cls-6" x1="321.55" y1="121.82" x2="316.29" y2="121.82"/><line class="cls-6" x1="321.55" y1="72.53" x2="316.29" y2="72.53"/><line class="cls-6" x1="321.55" y1="125.16" x2="321.55" y2="121.82"/><polyline class="cls-6" points="321.55 72.53 321.55 13.41 316.29 13.41 316.29 72.53"/><line class="cls-6" x1="316.29" y1="121.82" x2="316.29" y2="125.16"/><line class="cls-6" x1="316.29" y1="72.53" x2="316.29" y2="75.86"/><line class="cls-6" x1="321.55" y1="72.53" x2="321.55" y2="75.86"/><line class="cls-6" x1="316.29" y1="121.82" x2="316.29" y2="118.58"/><line class="cls-6" x1="321.55" y1="121.82" x2="321.55" y2="118.58"/><line class="cls-6" x1="321.55" y1="75.86" x2="316.29" y2="75.86"/><polyline class="cls-6" points="321.55 118.58 316.29 118.58 294.88 81.56"/><path class="cls-6" d="M316.24,75.86a42.59,42.59,0,0,0-21.33,5.72"/><path d="M211.12,130.42h0Z"/><path class="cls-6" d="M211.12,130.42h0Z"/><path d="M216.38,424.09h-5.26V130.42Zm0,0Z"/><path class="cls-6" d="M216.38,424.09h-5.26V130.42Zm0,0Z"/><polygon points="211.12 130.42 216.38 130.42 216.38 424.09 211.12 130.42"/><polygon class="cls-6" points="211.12 130.42 216.38 130.42 216.38 424.09 211.12 130.42"/><polyline class="cls-6" points="211.12 130.42 211.12 424.09 216.38 424.09 216.38 130.42"/><path d="M140.86,116.56h0Z"/><path class="cls-6" d="M140.86,116.56h0Z"/><path d="M140.86,125.16h-5.27v-8.6Zm0,0Z"/><path class="cls-6" d="M140.86,125.16h-5.27v-8.6Zm0,0Z"/><polygon points="135.59 116.56 140.86 116.56 140.86 125.16 135.59 116.56"/><polygon class="cls-6" points="135.59 116.56 140.86 116.56 140.86 125.16 135.59 116.56"/><path d="M140.86,13.41h0Z"/><path class="cls-6" d="M140.86,13.41h0Z"/><path d="M140.86,64h-5.27V13.41Zm0,0Z"/><path class="cls-6" d="M140.86,64h-5.27V13.41Zm0,0Z"/><polygon points="135.59 13.41 140.86 13.41 140.86 64.02 135.59 13.41"/><polygon class="cls-6" points="135.59 13.41 140.86 13.41 140.86 64.02 135.59 13.41"/><line class="cls-6" x1="140.86" y1="116.56" x2="135.59" y2="116.56"/><polyline class="cls-6" points="140.86 64.02 135.59 64.02 135.59 13.41"/><line class="cls-6" x1="135.59" y1="116.56" x2="135.59" y2="125.16"/><line class="cls-6" x1="140.86" y1="125.16" x2="140.86" y2="116.56"/><polyline class="cls-6" points="140.86 64.02 140.86 13.41 135.59 13.41"/><line class="cls-6" x1="140.86" y1="116.56" x2="140.86" y2="113.31"/><line class="cls-6" x1="135.59" y1="116.56" x2="135.59" y2="113.31"/><line class="cls-6" x1="140.86" y1="64.02" x2="140.86" y2="67.26"/><line class="cls-6" x1="135.59" y1="64.02" x2="135.59" y2="67.26"/><line class="cls-6" x1="135.59" y1="113.31" x2="140.86" y2="113.31"/><polyline class="cls-6" points="135.59 67.26 140.86 67.26 163.84 107.17"/><path class="cls-6" d="M140.81,113.23a46,46,0,0,0,23-6.17"/><path d="M62.62,65.33"/><path class="cls-6" d="M62.62,65.33"/><path d="M62.62,65.33V70.6H57.35Zm0,5.27v0Z"/><path class="cls-6" d="M62.62,65.33V70.6H57.35Zm0,5.27v0Z"/><path d="M62.62,125.16H57.35V70.6Zm0,0Z"/><path class="cls-6" d="M62.62,125.16H57.35V70.6Zm0,0Z"/><polygon points="57.35 70.6 62.62 70.6 62.62 125.16 57.35 70.6"/><polygon class="cls-6" points="57.35 70.6 62.62 70.6 62.62 125.16 57.35 70.6"/><line class="cls-6" x1="57.35" y1="70.6" x2="57.35" y2="87"/><line class="cls-6" x1="57.35" y1="92.26" x2="57.35" y2="125.16"/><line class="cls-6" x1="62.62" y1="125.16" x2="62.62" y2="65.33"/><path d="M57.35,87h0Z"/><path class="cls-6" d="M57.35,87h0Z"/><path d="M57.35,92.26H24.55V87Zm0,0Z"/><path class="cls-6" d="M57.35,92.26H24.55V87Zm0,0Z"/><polygon points="24.55 87 57.35 87 57.35 92.26 24.55 87"/><polygon class="cls-6" points="24.55 87 57.35 87 57.35 92.26 24.55 87"/><line class="cls-6" x1="24.55" y1="92.26" x2="57.35" y2="92.26"/><polyline class="cls-6" points="57.35 87 24.55 87 24.55 92.26"/><path d="M24.55,125.16h0Z"/><path class="cls-6" d="M24.55,125.16h0Z"/><path d="M144.1,130.42H24.55v-5.26Zm0,0Z"/><path class="cls-6" d="M144.1,130.42H24.55v-5.26Zm0,0Z"/><polygon points="24.55 125.16 144.1 125.16 144.1 130.42 24.55 125.16"/><polygon class="cls-6" points="24.55 125.16 144.1 125.16 144.1 130.42 24.55 125.16"/><path d="M216.38,125.16h0Z"/><path class="cls-6" d="M216.38,125.16h0Z"/><path d="M253.83,130.42H216.38v-5.26Zm0,0Z"/><path class="cls-6" d="M253.83,130.42H216.38v-5.26Zm0,0Z"/><polygon points="216.38 125.16 253.83 125.16 253.83 130.42 216.38 125.16"/><polygon class="cls-6" points="216.38 125.16 253.83 125.16 253.83 130.42 216.38 125.16"/><path d="M313,125.16h0Z"/><path class="cls-6" d="M313,125.16h0Z"/><path d="M428,130.42H313v-5.26Zm0,0Z"/><path class="cls-6" d="M428,130.42H313v-5.26Zm0,0Z"/><polygon points="312.95 125.16 427.95 125.16 427.95 130.42 312.95 125.16"/><polygon class="cls-6" points="312.95 125.16 427.95 125.16 427.95 130.42 312.95 125.16"/><line class="cls-6" x1="144.1" y1="130.42" x2="144.1" y2="125.16"/><polyline class="cls-6" points="203.22 125.16 203.22 130.42 203.22 125.16"/><line class="cls-6" x1="216.38" y1="130.42" x2="216.38" y2="125.16"/><line class="cls-6" x1="253.83" y1="130.42" x2="253.83" y2="125.16"/><line class="cls-6" x1="312.95" y1="130.42" x2="312.95" y2="125.16"/><line class="cls-6" x1="24.55" y1="130.42" x2="144.1" y2="130.42"/><line class="cls-6" x1="216.38" y1="130.42" x2="253.83" y2="130.42"/><polyline class="cls-6" points="312.95 130.42 427.95 130.42 427.95 125.16 395.14 125.16"/><line class="cls-6" x1="389.88" y1="125.16" x2="321.55" y2="125.16"/><line class="cls-6" x1="316.29" y1="125.16" x2="312.95" y2="125.16"/><line class="cls-6" x1="253.83" y1="125.16" x2="216.38" y2="125.16"/><line class="cls-6" x1="144.1" y1="125.16" x2="140.86" y2="125.16"/><line class="cls-6" x1="135.59" y1="125.16" x2="62.62" y2="125.16"/><polyline class="cls-6" points="57.35 125.16 24.55 125.16 24.55 130.42"/><line class="cls-6" x1="144.1" y1="130.42" x2="147.44" y2="130.42"/><line class="cls-6" x1="144.1" y1="125.16" x2="147.44" y2="125.16"/><line class="cls-6" x1="203.22" y1="130.42" x2="199.98" y2="130.42"/><line class="cls-6" x1="203.22" y1="125.16" x2="199.98" y2="125.16"/><line class="cls-6" x1="147.44" y1="125.16" x2="147.44" y2="130.42"/><polyline class="cls-6" points="199.98 125.16 199.98 130.42 199.98 182.96"/><path class="cls-6" d="M147.35,130.37A52.58,52.58,0,0,0,199.93,183"/><line class="cls-6" x1="312.95" y1="130.42" x2="309.71" y2="130.42"/><line class="cls-6" x1="312.95" y1="125.16" x2="309.71" y2="125.16"/><line class="cls-6" x1="253.83" y1="130.42" x2="257.17" y2="130.42"/><line class="cls-6" x1="253.83" y1="125.16" x2="257.17" y2="125.16"/><line class="cls-6" x1="309.71" y1="125.16" x2="309.71" y2="130.42"/><polyline class="cls-6" points="257.17 125.16 257.17 130.42 257.17 182.96"/><path class="cls-6" d="M257.12,183a52.59,52.59,0,0,0,52.59-52.59"/><path d="M62.62,65.33h0Z"/><path class="cls-6" d="M62.62,65.33h0Z"/><path d="M57.35,70.6H24.55V65.33Zm0,0Z"/><path class="cls-6" d="M57.35,70.6H24.55V65.33Zm0,0Z"/><polygon points="24.55 65.33 62.62 65.33 57.35 70.6 24.55 65.33"/><polygon class="cls-6" points="24.55 65.33 62.62 65.33 57.35 70.6 24.55 65.33"/><polyline class="cls-6" points="62.62 65.33 24.55 65.33 24.55 70.6 57.35 70.6"/><path d="M428,100.16h0Z"/><path class="cls-6" d="M428,100.16h0Z"/><path d="M428,105.42H395.14v-5.26Zm0,0Z"/><path class="cls-6" d="M428,105.42H395.14v-5.26Zm0,0Z"/><polygon points="395.14 100.16 427.95 100.16 427.95 105.42 395.14 100.16"/><polygon class="cls-6" points="395.14 100.16 427.95 100.16 427.95 105.42 395.14 100.16"/><line class="cls-6" x1="427.95" y1="100.16" x2="395.14" y2="100.16"/><polyline class="cls-6" points="395.14 105.42 427.95 105.42 427.95 100.16"/><path d="M395.14,125.16h-5.26V47.62Zm0,0Z"/><path class="cls-6" d="M395.14,125.16h-5.26V47.62Zm0,0Z"/><polygon points="389.88 47.62 395.14 47.62 395.14 125.16 389.88 47.62"/><polygon class="cls-6" points="389.88 47.62 395.14 47.62 395.14 125.16 389.88 47.62"/><line class="cls-6" x1="395.14" y1="125.16" x2="395.14" y2="105.42"/><line class="cls-6" x1="395.14" y1="100.16" x2="395.14" y2="47.62"/><line class="cls-6" x1="389.88" y1="47.62" x2="389.88" y2="125.16"/><path d="M329.44,34.46,428,47.62H316.29Zm98.51,0H329.44L428,47.62Z"/><path class="cls-6" d="M329.44,34.46,428,47.62H316.29Zm98.51,0H329.44L428,47.62Z"/><line class="cls-6" x1="316.29" y1="47.62" x2="389.88" y2="47.62"/><line class="cls-6" x1="395.14" y1="47.62" x2="427.95" y2="47.62"/><line class="cls-6" x1="427.95" y1="34.46" x2="395.14" y2="34.46"/><line class="cls-6" x1="389.88" y1="34.46" x2="329.44" y2="34.46"/><polygon points="329.44 0.25 329.44 13.41 316.29 13.41 329.44 0.25"/><polygon class="cls-6" points="329.44 0.25 329.44 13.41 316.29 13.41 329.44 0.25"/><path d="M316.29,34.46h13.15L316.29,47.62Zm0-21V34.46h13.15Z"/><path class="cls-6" d="M316.29,34.46h13.15L316.29,47.62Zm0-21V34.46h13.15Z"/><polygon points="316.29 13.41 329.44 13.41 329.44 34.46 316.29 13.41"/><polygon class="cls-6" points="316.29 13.41 329.44 13.41 329.44 34.46 316.29 13.41"/><line class="cls-6" x1="316.29" y1="13.41" x2="316.29" y2="47.62"/><line class="cls-6" x1="329.44" y1="34.46" x2="329.44" y2="0.25"/><path d="M329.44.25,428,8.14H329.44ZM441.1.25H329.44L428,8.14Z"/><path class="cls-6" d="M329.44.25,428,8.14H329.44ZM441.1.25H329.44L428,8.14Z"/><line class="cls-6" x1="329.44" y1="8.14" x2="427.95" y2="8.14"/><polyline class="cls-6" points="441.1 0.25 329.44 0.25 329.44 8.14"/><polygon points="165.15 0.25 165.15 0.25 159.89 0.25 165.15 0.25"/><polygon class="cls-6" points="165.15 0.25 165.15 0.25 159.89 0.25 165.15 0.25"/><polygon points="127 0.25 127 0.25 121.82 0.25 127 0.25"/><polygon class="cls-6" points="127 0.25 127 0.25 121.82 0.25 127 0.25"/><polygon points="441.1 0.25 441.1 8.14 427.95 8.14 441.1 0.25"/><polygon class="cls-6" points="441.1 0.25 441.1 8.14 427.95 8.14 441.1 0.25"/><path d="M441.1,125.16H428V8.14Zm0,0Z"/><path class="cls-6" d="M441.1,125.16H428V8.14Zm0,0Z"/><polygon points="427.95 8.14 441.1 8.14 441.1 125.16 427.95 8.14"/><polygon class="cls-6" points="427.95 8.14 441.1 8.14 441.1 125.16 427.95 8.14"/><polyline class="cls-6" points="441.1 8.14 427.95 8.14 427.95 34.46"/><polyline class="cls-6" points="427.95 47.62 427.95 125.16 441.1 125.16 441.1 26.56"/><polyline class="cls-6" points="441.1 0.25 441.1 8.14 441.1 13.41"/><polygon points="230.85 0.25 230.85 0.25 217.69 0.25 230.85 0.25"/><polygon class="cls-6" points="230.85 0.25 230.85 0.25 217.69 0.25 230.85 0.25"/><path d="M428,190.85h0Z"/><path class="cls-6" d="M428,190.85h0Z"/><path d="M441.1,424.09H428V190.85Zm0,0Z"/><path class="cls-6" d="M441.1,424.09H428V190.85Zm0,0Z"/><polygon points="427.95 190.85 441.1 190.85 441.1 424.09 427.95 190.85"/><polygon class="cls-6" points="427.95 190.85 441.1 190.85 441.1 424.09 427.95 190.85"/><polyline class="cls-6" points="427.95 190.85 427.95 424.09 441.1 424.09 441.1 190.85 427.95 190.85"/><path d="M90.25.25,244,13.41H90.25ZM244,.25H90.25L244,13.41Z"/><path class="cls-6" d="M90.25.25,244,13.41H90.25ZM244,.25H90.25L244,13.41Z"/><path d="M309.71.25h0Z"/><path class="cls-6" d="M309.71.25h0Z"/><path d="M316.29,13.41h-6.58V.25Zm0,0Z"/><path class="cls-6" d="M316.29,13.41h-6.58V.25Zm0,0Z"/><polygon points="309.71 0.25 329.44 0.25 316.29 13.41 309.71 0.25"/><polygon class="cls-6" points="309.71 0.25 329.44 0.25 316.29 13.41 309.71 0.25"/><line class="cls-6" x1="309.71" y1="13.41" x2="309.71" y2="0.25"/><polyline class="cls-6" points="90.25 13.41 244.01 13.41 244.01 0.25"/><line class="cls-6" x1="309.71" y1="13.41" x2="316.29" y2="13.41"/><line class="cls-6" x1="329.44" y1="0.25" x2="309.71" y2="0.25"/><line class="cls-6" x1="244.01" y1="0.25" x2="230.85" y2="0.25"/><polyline class="cls-6" points="217.69 0.25 90.25 0.25 90.25 13.41"/><path class="cls-6" d="M246.55,13.36A60.48,60.48,0,0,0,307,73.84"/><path d="M244,.25h0Z"/><path class="cls-6" d="M244,.25h0Z"/><path d="M246.64,13.41H244V.25Zm0,0Z"/><path class="cls-6" d="M246.64,13.41H244V.25Zm0,0Z"/><polygon points="244.01 0.25 246.64 0.25 246.64 13.41 244.01 0.25"/><polygon class="cls-6" points="244.01 0.25 246.64 0.25 246.64 13.41 244.01 0.25"/><path d="M307.08.25h0Z"/><path class="cls-6" d="M307.08.25h0Z"/><path d="M309.71,13.41h-2.63V.25Zm0,0Z"/><path class="cls-6" d="M309.71,13.41h-2.63V.25Zm0,0Z"/><polygon points="307.08 0.25 309.71 0.25 309.71 13.41 307.08 0.25"/><polygon class="cls-6" points="307.08 0.25 309.71 0.25 309.71 13.41 307.08 0.25"/><polyline class="cls-6" points="244.01 0.25 246.64 0.25 246.64 13.41 244.01 13.41 244.01 0.25"/><polyline class="cls-6" points="309.71 13.41 307.08 13.41 307.08 0.25 309.71 0.25 309.71 13.41"/><line class="cls-6" x1="307.08" y1="13.41" x2="307.08" y2="73.84"/><line class="cls-6" x1="244.01" y1="13.41" x2="244.01" y2="0.25"/><line class="cls-6" x1="309.71" y1="13.41" x2="309.71" y2="0.25"/><polyline class="cls-6" points="299.18 545.92 299.18 508.21 300.85 508.21 300.85 547.59 299.18 545.92"/><polyline class="cls-6" points="237.08 547.59 237.08 508.21 238.75 508.21 238.75 545.92 299.18 545.92 300.85 547.59 237.08 547.59 238.75 545.92 237.08 547.59"/><polyline class="cls-6" points="237.87 546.8 299.97 546.8 299.97 508.21"/><polyline class="cls-6" points="240.41 535.75 297.51 535.75 297.51 514.78 240.41 514.78 240.41 535.75"/><polyline class="cls-6" points="240.41 533.64 297.51 533.64 297.51 514.78 240.41 514.78 240.41 533.64"/><line class="cls-6" x1="237.87" y1="546.8" x2="237.87" y2="508.21"/><line class="cls-6" x1="130.07" y1="22.09" x2="130.07" y2="53.41"/><line class="cls-6" x1="126.56" y1="57.09" x2="50.07" y2="57.09"/><line class="cls-6" x1="126.56" y1="18.41" x2="50.07" y2="18.41"/><line class="cls-6" x1="28.49" y1="60.77" x2="133.58" y2="60.77"/><polyline class="cls-6" points="28.49 60.77 28.49 14.72 133.58 14.72 133.58 60.77"/><line class="cls-6" x1="62.35" y1="24.81" x2="122.26" y2="24.81"/><line class="cls-6" x1="124.02" y1="26.65" x2="124.02" y2="48.84"/><line class="cls-6" x1="62.35" y1="50.69" x2="122.26" y2="50.69"/><line class="cls-6" x1="111.74" y1="36.56" x2="111.74" y2="34.37"/><line class="cls-6" x1="112.79" y1="37.7" x2="114.98" y2="37.7"/><line class="cls-6" x1="111.74" y1="38.84" x2="111.74" y2="41.13"/><line class="cls-6" x1="110.6" y1="37.7" x2="108.49" y2="37.7"/><path class="cls-6" d="M50,18.32c-10.15,0-18.38,8.66-18.38,19.34S39.88,57,50,57"/><path class="cls-6" d="M126.52,57A3.55,3.55,0,0,0,130,53.36"/><path class="cls-6" d="M130,22.05a3.55,3.55,0,0,0-3.46-3.64"/><path class="cls-6" d="M111.69,35.77a1.89,1.89,0,1,0,1.8,1.89,1.85,1.85,0,0,0-1.8-1.89"/><path class="cls-6" d="M62.31,24.72C55.5,24.72,50,30.51,50,37.66S55.5,50.6,62.31,50.6"/><path class="cls-6" d="M123.93,26.61a1.76,1.76,0,0,0-1.71-1.8"/><path class="cls-6" d="M122.22,50.6a1.76,1.76,0,0,0,1.71-1.8"/><path class="cls-6" d="M111.69,35.07a2.6,2.6,0,1,0,2.41,2.59,2.51,2.51,0,0,0-2.41-2.59"/><polyline class="cls-6" points="78.93 123.49 63.93 123.49 63.93 87.97 78.93 87.97"/><line class="cls-6" x1="63.93" y1="100.16" x2="63.93" y2="111.3"/><line class="cls-6" x1="76.04" y1="102.7" x2="76.04" y2="104.63"/><line class="cls-6" x1="73.05" y1="105.68" x2="74.9" y2="105.68"/><line class="cls-6" x1="76.04" y1="106.82" x2="76.04" y2="108.67"/><line class="cls-6" x1="77.09" y1="105.68" x2="79.02" y2="105.68"/><path class="cls-6" d="M72.34,115.1a15.79,15.79,0,0,0,7.48,6.14"/><path class="cls-6" d="M70.12,105.68a15.84,15.84,0,0,0,2.22,9.44"/><path class="cls-6" d="M79.82,90.12a15.91,15.91,0,0,0-7.48,6.14"/><path class="cls-6" d="M72.34,96.24a15.87,15.87,0,0,0-2.22,9.44"/><path class="cls-6" d="M87.85,117.67a29.14,29.14,0,0,0,2.93-10.77"/><path class="cls-6" d="M86.34,91.33A9,9,0,0,0,78.94,88"/><path class="cls-6" d="M90.82,106.88a20.52,20.52,0,0,0,0-2.48"/><path class="cls-6" d="M72.94,95.72a64.77,64.77,0,0,0,0,19.85"/><path class="cls-6" d="M81.29,88.85a22.28,22.28,0,0,0-14.51,5"/><path class="cls-6" d="M65.73,95.47a45.05,45.05,0,0,0-1.1,10.16"/><path class="cls-6" d="M66.76,93.89a3,3,0,0,0-1,1.63"/><path class="cls-6" d="M66.76,95.64a76.21,76.21,0,0,0-.72,10"/><path class="cls-6" d="M81.25,88.84a20,20,0,0,0-13.51,5"/><path class="cls-6" d="M67.73,93.87a3,3,0,0,0-1,1.8"/><path class="cls-6" d="M67.72,117.5a20,20,0,0,0,13.51,5"/><path class="cls-6" d="M66.75,117.47a22.35,22.35,0,0,0,14.51,5"/><path class="cls-6" d="M66,105.62a76.16,76.16,0,0,0,.7,10"/><path class="cls-6" d="M64.63,105.68a44.48,44.48,0,0,0,1.09,10.16"/><path class="cls-6" d="M66.77,115.69a2.91,2.91,0,0,0,1,1.8"/><path class="cls-6" d="M65.76,115.76a2.91,2.91,0,0,0,1,1.63"/><path class="cls-6" d="M78.94,123.39a9,9,0,0,0,7.4-3.35"/><path class="cls-6" d="M86.39,120.09a14.37,14.37,0,0,0,1.52-2.36"/><path class="cls-6" d="M87.91,93.64a13.57,13.57,0,0,0-1.52-2.36"/><path class="cls-6" d="M90.78,104.46A29.09,29.09,0,0,0,87.85,93.7"/><path class="cls-6" d="M88.35,110.53a21,21,0,0,0,0-9.78"/><path class="cls-6" d="M79.84,121.2a5.34,5.34,0,0,0,4.38-1.83"/><path class="cls-6" d="M84.23,119.41a19.3,19.3,0,0,0,4.06-8.85"/><path class="cls-6" d="M84.22,91.91a5.31,5.31,0,0,0-4.38-1.83"/><path class="cls-6" d="M88.29,100.81A19.3,19.3,0,0,0,84.23,92"/><path class="cls-6" d="M78.32,105.64A2.33,2.33,0,1,0,76,108a2.33,2.33,0,0,0,2.33-2.32"/><path class="cls-6" d="M77.61,105.64A1.62,1.62,0,1,0,76,107.26a1.61,1.61,0,0,0,1.62-1.62"/><polyline class="cls-6" points="427.95 169.8 427.95 130.42 388.56 130.42 388.56 169.8 408.21 169.8 427.95 169.8"/><polyline class="cls-6" points="425.32 167.17 425.32 132.96 391.19 132.96 391.19 167.17 408.21 167.17 425.32 167.17"/><line class="cls-6" x1="378.56" y1="86.12" x2="355.76" y2="86.12"/><polyline class="cls-6" points="379.97 85.16 388.56 85.16 388.56 109.45"/><line class="cls-6" x1="374.62" y1="97.26" x2="374.62" y2="106.3"/><polyline class="cls-6" points="355.76 86.12 374.62 88.23 374.62 97.26"/><line class="cls-6" x1="355.76" y1="108.49" x2="374.62" y2="106.3"/><line class="cls-6" x1="355.76" y1="86.65" x2="374.62" y2="88.84"/><line class="cls-6" x1="355.76" y1="107.88" x2="374.62" y2="105.68"/><line class="cls-6" x1="378.56" y1="108.49" x2="355.76" y2="108.49"/><line class="cls-6" x1="388.56" y1="109.45" x2="379.97" y2="109.45"/><polyline class="cls-6" points="355.76 86.12 353.21 86.39 350.85 87.35 348.74 88.93 347.07 90.95 345.85 93.31 345.23 95.95 345.23 98.67 345.85 101.3 347.07 103.67 348.74 105.68 350.85 107.17 353.21 108.14 355.76 108.49"/><polyline class="cls-6" points="355.76 86.65 353.39 87 351.11 87.88 349.09 89.37 347.51 91.21 346.37 93.49 345.85 96.03 345.85 98.58 346.37 101.03 347.51 103.31 349.09 105.25 351.11 106.65 353.39 107.61 355.76 107.88"/><path class="cls-6" d="M378.54,86.32a101.75,101.75,0,0,0,0,21.79"/><path class="cls-6" d="M379.92,85.07a1.47,1.47,0,0,0-1.44,1.29"/><path class="cls-6" d="M378.48,108.15a1.45,1.45,0,0,0,1.44,1.3"/><path class="cls-6" d="M384.27,97.22a1.19,1.19,0,1,0-1.19,1.18,1.19,1.19,0,0,0,1.19-1.18"/><polyline class="cls-6" points="350.41 60.42 350.41 47.62 321.55 47.62 321.55 60.42"/><line class="cls-6" x1="331.46" y1="47.62" x2="340.5" y2="47.62"/><line class="cls-6" x1="333.57" y1="57.88" x2="335.06" y2="57.88"/><line class="cls-6" x1="336.02" y1="55.33" x2="336.02" y2="56.91"/><line class="cls-6" x1="336.9" y1="57.88" x2="338.39" y2="57.88"/><line class="cls-6" x1="336.02" y1="58.84" x2="336.02" y2="60.42"/><path class="cls-6" d="M348.54,61.13a13.26,13.26,0,0,0-5-6.36"/><path class="cls-6" d="M343.57,54.81a12.44,12.44,0,0,0-7.66-1.89"/><path class="cls-6" d="M328.31,54.77a13.34,13.34,0,0,0-5,6.36"/><path class="cls-6" d="M336,52.92a12.44,12.44,0,0,0-7.66,1.89"/><path class="cls-6" d="M336.94,70.53A23,23,0,0,0,345.72,68"/><path class="cls-6" d="M321.47,60.4a7.84,7.84,0,0,0,2.73,6.32"/><path class="cls-6" d="M334.88,70.47a13.62,13.62,0,0,0,2,0"/><path class="cls-6" d="M344.07,55.29a50.48,50.48,0,0,0-16.18,0"/><path class="cls-6" d="M326.27,50a19.67,19.67,0,0,0-4.1,12.4"/><path class="cls-6" d="M335.9,48.14a34.92,34.92,0,0,0-8.27.94"/><path class="cls-6" d="M327.64,49.08a2.39,2.39,0,0,0-1.34.86"/><path class="cls-6" d="M335.89,49.37a58.49,58.49,0,0,0-8.15.62"/><path class="cls-6" d="M326.25,50.79a17.7,17.7,0,0,0-4.09,11.57"/><path class="cls-6" d="M327.75,50a2.4,2.4,0,0,0-1.48.82"/><path class="cls-6" d="M349.7,62.33a17.58,17.58,0,0,0-4.1-11.55"/><path class="cls-6" d="M349.7,62.35A19.64,19.64,0,0,0,345.58,50"/><path class="cls-6" d="M344,50a58.47,58.47,0,0,0-8.15-.6"/><path class="cls-6" d="M344.19,49.07a34.91,34.91,0,0,0-8.27-.93"/><path class="cls-6" d="M345.59,50.83a2.35,2.35,0,0,0-1.48-.82"/><path class="cls-6" d="M345.56,49.93a2.39,2.39,0,0,0-1.33-.85"/><path class="cls-6" d="M347.67,66.72a7.84,7.84,0,0,0,2.73-6.32"/><path class="cls-6" d="M345.72,68.05a11.84,11.84,0,0,0,1.92-1.31"/><path class="cls-6" d="M324.23,66.74a12.21,12.21,0,0,0,1.91,1.31"/><path class="cls-6" d="M326.14,68a23.12,23.12,0,0,0,8.79,2.51"/><path class="cls-6" d="M331.91,68.35a16.25,16.25,0,0,0,8,0"/><path class="cls-6" d="M347.15,64.85a4.6,4.6,0,0,0,1.49-3.73"/><path class="cls-6" d="M339.92,68.42a15.37,15.37,0,0,0,7.2-3.47"/><path class="cls-6" d="M323.23,61.12a4.6,4.6,0,0,0,1.49,3.73"/><path class="cls-6" d="M324.75,65a15.34,15.34,0,0,0,7.19,3.47"/><path class="cls-6" d="M336,55.86a2,2,0,1,0,1.88,2,1.93,1.93,0,0,0-1.88-2"/><path class="cls-6" d="M336,56.48a1.36,1.36,0,1,0,1.36,1.35A1.35,1.35,0,0,0,336,56.48"/><line class="cls-6" x1="216.38" y1="223.66" x2="216.38" y2="223.66"/><line class="cls-6" x1="216.38" y1="223.66" x2="246.64" y2="223.66"/><line class="cls-6" x1="244.7" y1="223.66" x2="246.2" y2="223.66"/><line class="cls-7" x1="249.16" y1="223.66" x2="424.97" y2="223.66"/><line class="cls-6" x1="426.45" y1="223.66" x2="427.95" y2="223.66"/><line class="cls-6" x1="245.94" y1="223.66" x2="245.94" y2="130.42"/><polyline class="cls-6" points="427.95 169.8 316.29 169.8 316.29 130.42"/><polyline points="14.02 0.25 24.55 491.72 14.02 491.72 14.02 0.25"/><polygon points="24.55 491.72 24.55 491.72 14.02 491.72 24.55 491.72"/><polyline class="cls-6" points="14.02 0.25 24.55 491.72 14.02 491.72 14.02 0.25"/><polygon class="cls-6" points="24.55 491.72 24.55 491.72 14.02 491.72 24.55 491.72"/><polyline points="24.55 0.25 24.55 491.72 14.02 0.25"/><polyline class="cls-6" points="24.55 0.25 24.55 491.72 14.02 0.25"/><polyline class="cls-6" points="14.02 0.25 14.02 491.72 24.55 491.72"/><line class="cls-6" x1="24.55" y1="491.72" x2="24.55" y2="0.25"/><polyline points="0.25 0.25 10.78 491.72 0.25 491.72 0.25 0.25"/><polygon points="10.78 491.72 10.78 491.72 0.25 491.72 10.78 491.72"/><polyline class="cls-6" points="0.25 0.25 10.78 491.72 0.25 491.72 0.25 0.25"/><polygon class="cls-6" points="10.78 491.72 10.78 491.72 0.25 491.72 10.78 491.72"/><polyline points="10.78 0.25 10.78 491.72 0.25 0.25"/><polyline class="cls-6" points="10.78 0.25 10.78 491.72 0.25 0.25"/><line class="cls-6" x1="10.78" y1="491.72" x2="10.78" y2="0.25"/><polyline class="cls-6" points="0.25 0.25 0.25 491.72 10.78 491.72"/><path d="M428,424.09h0Z"/><path class="cls-6" d="M428,424.09h0Z"/><path d="M441.1,473.38H428V424.09Zm0,0Z"/><path class="cls-6" d="M441.1,473.38H428V424.09Zm0,0Z"/><polygon points="427.95 424.09 441.1 424.09 441.1 473.38 427.95 424.09"/><polygon class="cls-6" points="427.95 424.09 441.1 424.09 441.1 473.38 427.95 424.09"/><line class="cls-6" x1="427.95" y1="424.09" x2="427.95" y2="473.38"/><polyline class="cls-6" points="441.1 473.38 441.1 424.09 427.95 424.09"/><path d="M203.22,424.09h0Z"/><path class="cls-6" d="M203.22,424.09h0Z"/><path d="M216.38,473.38H203.22V424.09Zm0,0Z"/><path class="cls-6" d="M216.38,473.38H203.22V424.09Zm0,0Z"/><polygon points="203.22 424.09 216.38 424.09 216.38 473.38 203.22 424.09"/><polygon class="cls-6" points="203.22 424.09 216.38 424.09 216.38 473.38 203.22 424.09"/><polyline class="cls-6" points="216.38 473.38 216.38 424.09 203.22 424.09 203.22 473.38"/><path d="M428,125.16h0Z"/><path class="cls-6" d="M428,125.16h0Z"/><path d="M441.1,190.85H428V125.16Zm0,0Z"/><path class="cls-6" d="M441.1,190.85H428V125.16Zm0,0Z"/><polygon points="427.95 125.16 441.1 125.16 441.1 190.85 427.95 125.16"/><polygon class="cls-6" points="427.95 125.16 441.1 125.16 441.1 190.85 427.95 125.16"/><polyline class="cls-6" points="427.95 125.16 427.95 190.85 441.1 190.85 441.1 125.16 427.95 125.16"/><path d="M203.22,125.16l13.16,65.69H203.22Zm13.16,0H203.22l13.16,65.69Z"/><path class="cls-6" d="M203.22,125.16l13.16,65.69H203.22Zm13.16,0H203.22l13.16,65.69Z"/><polyline class="cls-6" points="203.22 125.16 203.22 190.85 216.38 190.85 216.38 125.16 203.22 125.16"/><path d="M24.55.25h0Z"/><path class="cls-6" d="M24.55.25h0Z"/><path d="M90.25,13.41H24.55V.25Zm0,0Z"/><path class="cls-6" d="M90.25,13.41H24.55V.25Zm0,0Z"/><polygon points="24.55 0.25 90.25 0.25 90.25 13.41 24.55 0.25"/><polygon class="cls-6" points="24.55 0.25 90.25 0.25 90.25 13.41 24.55 0.25"/><polyline class="cls-6" points="0.25 13.41 90.25 13.41 90.25 0.25 0.25 0.25 0.25 13.41"/></svg>