<svg id="_616" data-name="616" xmlns="http://www.w3.org/2000/svg" viewBox="0 0 414.06 607.39"><defs><style>.cls-1,.cls-5{fill:none;stroke-linecap:round;stroke-linejoin:round;}.cls-1{stroke:#999;stroke-width:0.5px;}.cls-2{isolation:isolate;font-size:12px;fill:#999;}.cls-2,.cls-4,.cls-6{font-family:PTSans-Regular, PT Sans;}.cls-3{letter-spacing:-0.01em;}.cls-4{font-size:24px;}.cls-5{stroke:#000;stroke-width:0.75px;}.cls-6{font-size:20px;}</style></defs><title>3floor_616flat</title><line class="cls-1" x1="191.51" y1="596.05" x2="191.51" y2="604.85"/><polyline class="cls-1" points="187.91 601.55 191.41 605.05 194.91 601.55"/><text class="cls-2" transform="translate(200.74 604.45)"><tspan class="cls-3">у</tspan><tspan x="5.42" y="0">лица</tspan></text><text class="cls-4" transform="translate(287.76 371.37)">1K</text><text class="cls-4" transform="translate(272.89 404.41)">38.69</text><text class="cls-4" transform="translate(269.73 338.83)">№616</text><polyline class="cls-5" points="261.09 412.77 261.09 315.57 342.15 315.57 342.15 412.77"/><line class="cls-5" x1="261.09" y1="348.03" x2="342.15" y2="348.03"/><line class="cls-5" x1="261.09" y1="412.77" x2="342.15" y2="412.77"/><line class="cls-5" x1="261.09" y1="380.49" x2="342.15" y2="380.49"/><text class="cls-6" transform="translate(72.42 472.68)">12.68</text><text class="cls-6" transform="translate(283.85 472.68)">16.08</text><text class="cls-6" transform="translate(173.56 169.14)">4.34</text><text class="cls-6" transform="translate(301.62 86.99)">5.59</text><line class="cls-5" x1="51.8" y1="206.18" x2="51.8" y2="256.97"/><line class="cls-5" x1="51.8" y1="256.97" x2="16.88" y2="256.97"/><line class="cls-5" x1="16.88" y1="256.97" x2="16.88" y2="206.18"/><line class="cls-5" x1="16.88" y1="206.18" x2="51.8" y2="206.18"/><line class="cls-5" x1="48.63" y1="209.35" x2="48.63" y2="236.72"/><line class="cls-5" x1="48.63" y1="236.72" x2="23.23" y2="236.72"/><line class="cls-5" x1="23.23" y1="236.72" x2="23.23" y2="209.35"/><line class="cls-5" x1="23.23" y1="209.35" x2="48.63" y2="209.35"/><line class="cls-5" x1="48.31" y1="241.16" x2="48.31" y2="251.25"/><line class="cls-5" x1="44.12" y1="241.16" x2="44.12" y2="251.25"/><line class="cls-5" x1="39.93" y1="241.16" x2="39.93" y2="251.25"/><line class="cls-5" x1="35.74" y1="241.16" x2="35.74" y2="251.25"/><line class="cls-5" x1="31.55" y1="241.16" x2="31.55" y2="251.25"/><line class="cls-5" x1="27.36" y1="241.16" x2="27.36" y2="251.25"/><line class="cls-5" x1="0.38" y1="315.38" x2="0.38" y2="264.59"/><line class="cls-5" x1="397.39" y1="151.32" x2="397.39" y2="121.11"/><line class="cls-5" x1="393.79" y1="117.55" x2="315.22" y2="117.55"/><line class="cls-5" x1="393.79" y1="154.88" x2="315.22" y2="154.88"/><line class="cls-5" x1="293.06" y1="113.99" x2="400.99" y2="113.99"/><line class="cls-5" x1="293.06" y1="158.44" x2="400.99" y2="158.44"/><line class="cls-5" x1="293.06" y1="158.44" x2="293.06" y2="113.99"/><line class="cls-5" x1="400.99" y1="158.44" x2="400.99" y2="113.99"/><line class="cls-5" x1="327.85" y1="148.7" x2="389.33" y2="148.7"/><line class="cls-5" x1="391.13" y1="146.92" x2="391.13" y2="125.51"/><line class="cls-5" x1="327.85" y1="123.73" x2="389.33" y2="123.73"/><line class="cls-5" x1="378.5" y1="137.31" x2="378.5" y2="139.5"/><line class="cls-5" x1="379.6" y1="136.21" x2="381.82" y2="136.21"/><line class="cls-5" x1="378.5" y1="135.13" x2="378.5" y2="132.93"/><line class="cls-5" x1="377.4" y1="136.21" x2="375.17" y2="136.21"/><path class="cls-5" d="M315.19,154.51a18.67,18.67,0,1,1,0-37.33" transform="translate(0.03 0.38)"/><path class="cls-5" d="M393.76,117.18a3.57,3.57,0,0,1,3.6,3.55" transform="translate(0.03 0.38)"/><path class="cls-5" d="M397.36,151a3.57,3.57,0,0,1-3.6,3.55" transform="translate(0.03 0.38)"/><path class="cls-5" d="M378.47,134a1.86,1.86,0,1,0,1.88,1.85,1.86,1.86,0,0,0-1.88-1.85" transform="translate(0.03 0.38)"/><path class="cls-5" d="M327.82,148.32a12.48,12.48,0,1,1,0-25" transform="translate(0.03 0.38)"/><path class="cls-5" d="M391.1,146.55a1.78,1.78,0,0,1-1.8,1.77" transform="translate(0.03 0.38)"/><path class="cls-5" d="M389.31,123.36a1.78,1.78,0,0,1,1.79,1.78" transform="translate(0.03 0.38)"/><path class="cls-5" d="M378.47,133.36a2.48,2.48,0,1,0,2.52,2.48,2.5,2.5,0,0,0-2.52-2.48" transform="translate(0.03 0.38)"/><line class="cls-5" x1="275.49" y1="15.15" x2="309.77" y2="15.15"/><line class="cls-5" x1="309.77" y1="15.15" x2="309.77" y2="29.66"/><line class="cls-5" x1="275.49" y1="15.15" x2="275.49" y2="29.66"/><line class="cls-5" x1="298.03" y1="15.15" x2="287.23" y2="15.15"/><line class="cls-5" x1="295.51" y1="26.79" x2="293.68" y2="26.79"/><line class="cls-5" x1="292.62" y1="23.9" x2="292.62" y2="25.73"/><line class="cls-5" x1="291.56" y1="26.79" x2="289.74" y2="26.79"/><line class="cls-5" x1="292.62" y1="27.85" x2="292.62" y2="29.68"/><path class="cls-5" d="M277.57,30.18A15.34,15.34,0,0,1,283.5,23" transform="translate(0.03 0.38)"/><path class="cls-5" d="M283.5,23a15.29,15.29,0,0,1,7.88-2.19c.41,0,.82,0,1.22,0" transform="translate(0.03 0.38)"/><path class="cls-5" d="M301.71,23a15.34,15.34,0,0,1,5.93,7.23" transform="translate(0.03 0.38)"/><path class="cls-5" d="M292.6,20.81c.41,0,.82,0,1.23,0A15.29,15.29,0,0,1,301.71,23" transform="translate(0.03 0.38)"/><path class="cls-5" d="M291.41,40.77A28.18,28.18,0,0,1,281,37.93" transform="translate(0.03 0.38)"/><path class="cls-5" d="M309.75,29.28v.38a8.74,8.74,0,0,1-3.26,6.8" transform="translate(0.03 0.38)"/><path class="cls-5" d="M293.8,40.77c-.4,0-.8,0-1.2,0s-.79,0-1.19,0" transform="translate(0.03 0.38)"/><path class="cls-5" d="M283,23.51a62.51,62.51,0,0,1,19.18,0" transform="translate(0.03 0.38)"/><path class="cls-5" d="M304,17.51a21.54,21.54,0,0,1,4.87,13.64v.38" transform="translate(0.03 0.38)"/><path class="cls-5" d="M292.6,15.47h.33a43.18,43.18,0,0,1,9.48,1.06" transform="translate(0.03 0.38)"/><path class="cls-5" d="M302.41,16.53a2.83,2.83,0,0,1,1.58,1" transform="translate(0.03 0.38)"/><path class="cls-5" d="M292.6,16.82a74.36,74.36,0,0,1,9.67.7" transform="translate(0.03 0.38)"/><path class="cls-5" d="M304,18.46a19.36,19.36,0,0,1,4.84,12.81v.26" transform="translate(0.03 0.38)"/><path class="cls-5" d="M302.27,17.52a2.84,2.84,0,0,1,1.75.94" transform="translate(0.03 0.38)"/><path class="cls-5" d="M276.35,31.5a1.69,1.69,0,0,1,0-.23,19.36,19.36,0,0,1,4.86-12.82" transform="translate(0.03 0.38)"/><path class="cls-5" d="M276.35,31.5c0-.11,0-.22,0-.34a21.59,21.59,0,0,1,4.89-13.67" transform="translate(0.03 0.38)"/><path class="cls-5" d="M283,17.51a74.48,74.48,0,0,1,9.67-.69" transform="translate(0.03 0.38)"/><path class="cls-5" d="M282.81,16.52a42.73,42.73,0,0,1,9.43-1h.38" transform="translate(0.03 0.38)"/><path class="cls-5" d="M281.2,18.45a2.81,2.81,0,0,1,1.75-.94" transform="translate(0.03 0.38)"/><path class="cls-5" d="M281.23,17.49a2.85,2.85,0,0,1,1.58-1" transform="translate(0.03 0.38)"/><path class="cls-5" d="M278.72,36.46a8.72,8.72,0,0,1-3.27-6.8c0-.13,0-.26,0-.38" transform="translate(0.03 0.38)"/><path class="cls-5" d="M281,37.93a13.25,13.25,0,0,1-2.28-1.47" transform="translate(0.03 0.38)"/><path class="cls-5" d="M306.49,36.46a13.25,13.25,0,0,1-2.28,1.47" transform="translate(0.03 0.38)"/><path class="cls-5" d="M304.21,37.93a28.18,28.18,0,0,1-10.41,2.84" transform="translate(0.03 0.38)"/><path class="cls-5" d="M297.32,38.34a20.13,20.13,0,0,1-9.43,0" transform="translate(0.03 0.38)"/><path class="cls-5" d="M279.34,34.42a5.15,5.15,0,0,1-1.78-3.89c0-.12,0-.24,0-.35" transform="translate(0.03 0.38)"/><path class="cls-5" d="M287.89,38.34a18.56,18.56,0,0,1-8.55-3.92" transform="translate(0.03 0.38)"/><path class="cls-5" d="M307.64,30.18c0,.11,0,.23,0,.35a5.15,5.15,0,0,1-1.78,3.89" transform="translate(0.03 0.38)"/><path class="cls-5" d="M305.87,34.42a18.56,18.56,0,0,1-8.55,3.92" transform="translate(0.03 0.38)"/><path class="cls-5" d="M294.82,26.41a2.22,2.22,0,1,0-2.22,2.23,2.23,2.23,0,0,0,2.22-2.23" transform="translate(0.03 0.38)"/><path class="cls-5" d="M294.19,26.41A1.59,1.59,0,1,0,292.6,28a1.59,1.59,0,0,0,1.59-1.59" transform="translate(0.03 0.38)"/><line class="cls-5" x1="348.95" y1="24.77" x2="348.95" y2="46.85"/><line class="cls-5" x1="349.88" y1="15.15" x2="326.39" y2="15.15"/><line class="cls-5" x1="349.88" y1="15.15" x2="349.88" y2="23.44"/><line class="cls-5" x1="338.13" y1="28.65" x2="329.42" y2="28.65"/><line class="cls-5" x1="348.95" y1="46.82" x2="346.84" y2="28.65"/><line class="cls-5" x1="338.13" y1="28.65" x2="346.84" y2="28.65"/><line class="cls-5" x1="327.32" y1="46.82" x2="329.42" y2="28.65"/><line class="cls-5" x1="348.4" y1="46.82" x2="346.29" y2="28.65"/><line class="cls-5" x1="327.87" y1="46.82" x2="329.97" y2="28.65"/><line class="cls-5" x1="327.32" y1="24.76" x2="327.32" y2="46.85"/><line class="cls-5" x1="326.39" y1="15.15" x2="326.39" y2="23.44"/><line class="cls-5" x1="348.95" y1="46.82" x2="348.64" y2="49.26"/><line class="cls-5" x1="348.64" y1="49.26" x2="347.72" y2="51.57"/><line class="cls-5" x1="347.72" y1="51.57" x2="346.24" y2="53.6"/><line class="cls-5" x1="346.24" y1="53.6" x2="344.29" y2="55.24"/><line class="cls-5" x1="344.29" y1="55.24" x2="341.97" y2="56.39"/><line class="cls-5" x1="341.97" y1="56.39" x2="339.44" y2="56.98"/><line class="cls-5" x1="339.44" y1="56.98" x2="336.83" y2="56.98"/><line class="cls-5" x1="336.83" y1="56.98" x2="334.29" y2="56.39"/><line class="cls-5" x1="334.29" y1="56.39" x2="331.98" y2="55.24"/><line class="cls-5" x1="331.98" y1="55.24" x2="330.03" y2="53.6"/><line class="cls-5" x1="330.03" y1="53.6" x2="328.55" y2="51.57"/><line class="cls-5" x1="328.55" y1="51.57" x2="327.63" y2="49.26"/><line class="cls-5" x1="327.63" y1="49.26" x2="327.32" y2="46.82"/><line class="cls-5" x1="348.4" y1="46.82" x2="348.1" y2="49.13"/><line class="cls-5" x1="348.1" y1="49.13" x2="347.22" y2="51.31"/><line class="cls-5" x1="347.22" y1="51.31" x2="345.81" y2="53.23"/><line class="cls-5" x1="345.81" y1="53.23" x2="343.96" y2="54.78"/><line class="cls-5" x1="343.96" y1="54.78" x2="341.77" y2="55.86"/><line class="cls-5" x1="341.77" y1="55.86" x2="339.37" y2="56.42"/><line class="cls-5" x1="339.37" y1="56.42" x2="336.89" y2="56.42"/><line class="cls-5" x1="336.89" y1="56.42" x2="334.49" y2="55.86"/><line class="cls-5" x1="334.49" y1="55.86" x2="332.3" y2="54.78"/><line class="cls-5" x1="332.3" y1="54.78" x2="330.45" y2="53.23"/><line class="cls-5" x1="330.45" y1="53.23" x2="329.04" y2="51.31"/><line class="cls-5" x1="329.04" y1="51.31" x2="328.17" y2="49.13"/><line class="cls-5" x1="328.17" y1="49.13" x2="327.87" y2="46.82"/><path class="cls-5" d="M348.64,24.45a100.24,100.24,0,0,1-10.53.56,99.77,99.77,0,0,1-10.52-.56" transform="translate(0.03 0.38)"/><path class="cls-5" d="M349.85,23.06a1.39,1.39,0,0,1-1.21,1.39" transform="translate(0.03 0.38)"/><path class="cls-5" d="M327.59,24.45a1.38,1.38,0,0,1-1.23-1.39" transform="translate(0.03 0.38)"/><path class="cls-5" d="M339.25,20a1.14,1.14,0,1,0-1.14,1.16A1.15,1.15,0,0,0,339.25,20" transform="translate(0.03 0.38)"/><line class="cls-5" x1="400.85" y1="99.39" x2="400.85" y2="61.3"/><line class="cls-5" x1="372.28" y1="99.39" x2="400.85" y2="99.39"/><line class="cls-5" x1="372.28" y1="61.3" x2="372.28" y2="99.39"/><line class="cls-5" x1="400.85" y1="61.3" x2="372.28" y2="61.3"/><line class="cls-5" x1="267.66" y1="1.11" x2="272.74" y2="1.11"/><line class="cls-5" x1="279.09" y1="119.83" x2="274.01" y2="119.83"/><line class="cls-5" x1="274.01" y1="124.91" x2="274.01" y2="119.83"/><line class="cls-5" x1="216.87" y1="124.91" x2="216.87" y2="119.83"/><polyline class="cls-5" points="216.87 119.83 219.49 119.83 219.49 124.91 216.87 124.91"/><line class="cls-5" x1="192.74" y1="264.59" x2="192.74" y2="312.2"/><line class="cls-5" x1="197.82" y1="312.2" x2="197.82" y2="264.59"/><line class="cls-5" x1="192.74" y1="312.2" x2="197.82" y2="312.2"/><line class="cls-5" x1="192.74" y1="448.7" x2="197.82" y2="448.7"/><line class="cls-5" x1="50.53" y1="201.1" x2="50.53" y2="124.91"/><line class="cls-5" x1="50.53" y1="124.91" x2="45.45" y2="124.91"/><line class="cls-5" x1="45.45" y1="124.91" x2="45.45" y2="164.28"/><line class="cls-5" x1="45.45" y1="169.36" x2="45.45" y2="201.1"/><line class="cls-5" x1="13.71" y1="169.36" x2="45.45" y2="169.36"/><line class="cls-5" x1="45.45" y1="164.28" x2="13.71" y2="164.28"/><line class="cls-5" x1="13.71" y1="164.28" x2="13.71" y2="169.36"/><line class="cls-5" x1="279.09" y1="164.91" x2="403.53" y2="164.91"/><line class="cls-5" x1="403.53" y1="164.91" x2="403.53" y2="159.83"/><line class="cls-5" x1="403.53" y1="159.83" x2="279.09" y2="159.83"/><line class="cls-5" x1="279.09" y1="206.18" x2="279.09" y2="164.91"/><line class="cls-5" x1="279.09" y1="159.83" x2="279.09" y2="119.83"/><line class="cls-5" x1="274.01" y1="124.91" x2="274.01" y2="201.1"/><line class="cls-5" x1="41.78" y1="206.18" x2="42.28" y2="205.68"/><line class="cls-5" x1="16.88" y1="201.45" x2="17.22" y2="201.1"/><line class="cls-5" x1="16.88" y1="203.64" x2="16.88" y2="201.1"/><line class="cls-5" x1="16.88" y1="206.18" x2="16.88" y2="203.64"/><line class="cls-5" x1="42.28" y1="203.64" x2="42.28" y2="201.1"/><line class="cls-5" x1="42.28" y1="206.18" x2="42.28" y2="203.64"/><line class="cls-5" x1="13.71" y1="206.18" x2="16.88" y2="206.18"/><line class="cls-5" x1="42.28" y1="206.18" x2="124.81" y2="206.18"/><line class="cls-5" x1="124.81" y1="201.1" x2="50.53" y2="201.1"/><line class="cls-5" x1="45.45" y1="201.1" x2="42.28" y2="201.1"/><line class="cls-5" x1="16.88" y1="201.1" x2="13.71" y2="201.1"/><line class="cls-5" x1="124.81" y1="206.18" x2="124.81" y2="201.1"/><line class="cls-5" x1="185.13" y1="206.18" x2="185.13" y2="201.1"/><polyline class="cls-5" points="185.13 201.1 183.21 201.1 183.21 206.18 185.13 206.18"/><line class="cls-5" x1="42.28" y1="206.18" x2="16.88" y2="206.18"/><line class="cls-5" x1="42.28" y1="201.1" x2="16.88" y2="201.1"/><path class="cls-5" d="M42.25,205.8a25.45,25.45,0,0,1-1.53,8.69" transform="translate(0.03 0.38)"/><line class="cls-5" x1="16.88" y1="206.18" x2="40.74" y2="214.87"/><line class="cls-5" x1="42.28" y1="206.18" x2="42.28" y2="203.64"/><line class="cls-5" x1="42.28" y1="206.18" x2="42.28" y2="203.64"/><line class="cls-5" x1="42.28" y1="203.64" x2="42.28" y2="201.1"/><line class="cls-5" x1="16.88" y1="206.18" x2="16.88" y2="203.64"/><line class="cls-5" x1="16.88" y1="206.18" x2="16.88" y2="203.64"/><line class="cls-5" x1="16.88" y1="203.64" x2="16.88" y2="201.1"/><line class="cls-5" x1="258.14" y1="206.18" x2="279.09" y2="206.18"/><line class="cls-5" x1="274.01" y1="201.1" x2="258.14" y2="201.1"/><line class="cls-5" x1="258.14" y1="206.18" x2="258.14" y2="201.1"/><line class="cls-5" x1="197.82" y1="206.18" x2="197.82" y2="201.1"/><polyline class="cls-5" points="197.82 201.1 200.05 201.1 200.05 206.18 197.82 206.18"/><line class="cls-5" x1="404.67" y1="512.19" x2="407.47" y2="509.39"/><line class="cls-5" x1="403.53" y1="506.15" x2="405.8" y2="503.87"/><line class="cls-5" x1="403.53" y1="498.97" x2="404.14" y2="498.35"/><line class="cls-5" x1="408.26" y1="512.19" x2="408.3" y2="512.15"/><line class="cls-5" x1="404.29" y1="508.98" x2="406.64" y2="506.63"/><line class="cls-5" x1="404.29" y1="501.8" x2="404.29" y2="501.8"/><line class="cls-5" x1="403.53" y1="522.35" x2="411.39" y2="522.35"/><line class="cls-5" x1="277.18" y1="522.35" x2="326.07" y2="522.35"/><line class="cls-5" x1="153.38" y1="522.35" x2="218.77" y2="522.35"/><line class="cls-5" x1="1.01" y1="522.35" x2="45.45" y2="522.35"/><line class="cls-5" x1="384.48" y1="522.35" x2="403.53" y2="522.35"/><line class="cls-5" x1="403.53" y1="496.32" x2="403.53" y2="512.19"/><line class="cls-5" x1="155.92" y1="521.72" x2="185.13" y2="521.72"/><line class="cls-5" x1="1.01" y1="521.72" x2="42.91" y2="521.72"/><line class="cls-5" x1="279.72" y1="521.72" x2="323.53" y2="521.72"/><line class="cls-5" x1="197.82" y1="521.72" x2="216.23" y2="521.72"/><line class="cls-5" x1="387.02" y1="521.72" x2="403.53" y2="521.72"/><line class="cls-5" x1="387.02" y1="517.91" x2="387.02" y2="496.32"/><line class="cls-5" x1="384.48" y1="522.35" x2="384.48" y2="521.72"/><line class="cls-5" x1="384.48" y1="529.97" x2="384.48" y2="522.35"/><line class="cls-5" x1="384.48" y1="521.72" x2="387.02" y2="521.72"/><line class="cls-5" x1="387.02" y1="521.72" x2="387.02" y2="517.91"/><line class="cls-5" x1="323.53" y1="517.91" x2="323.53" y2="496.32"/><line class="cls-5" x1="326.07" y1="522.35" x2="326.07" y2="521.72"/><line class="cls-5" x1="326.07" y1="529.97" x2="326.07" y2="522.35"/><line class="cls-5" x1="326.07" y1="521.72" x2="323.53" y2="521.72"/><line class="cls-5" x1="323.53" y1="521.72" x2="323.53" y2="517.91"/><line class="cls-5" x1="216.23" y1="517.91" x2="216.23" y2="496.32"/><line class="cls-5" x1="218.77" y1="522.35" x2="218.77" y2="521.72"/><line class="cls-5" x1="218.77" y1="529.97" x2="218.77" y2="522.35"/><line class="cls-5" x1="218.77" y1="521.72" x2="216.23" y2="521.72"/><line class="cls-5" x1="216.23" y1="521.72" x2="216.23" y2="517.91"/><line class="cls-5" x1="279.72" y1="517.91" x2="279.72" y2="496.32"/><line class="cls-5" x1="277.18" y1="522.35" x2="277.18" y2="521.72"/><line class="cls-5" x1="277.18" y1="529.97" x2="277.18" y2="522.35"/><line class="cls-5" x1="277.18" y1="521.72" x2="279.72" y2="521.72"/><line class="cls-5" x1="279.72" y1="521.72" x2="279.72" y2="517.91"/><line class="cls-5" x1="155.92" y1="517.91" x2="155.92" y2="496.32"/><line class="cls-5" x1="153.38" y1="522.35" x2="153.38" y2="521.72"/><line class="cls-5" x1="153.38" y1="529.97" x2="153.38" y2="522.35"/><line class="cls-5" x1="153.38" y1="521.72" x2="155.92" y2="521.72"/><line class="cls-5" x1="155.92" y1="521.72" x2="155.92" y2="517.91"/><line class="cls-5" x1="42.91" y1="517.91" x2="42.91" y2="496.32"/><line class="cls-5" x1="45.45" y1="522.35" x2="45.45" y2="521.72"/><line class="cls-5" x1="45.45" y1="529.97" x2="45.45" y2="522.35"/><line class="cls-5" x1="45.45" y1="521.72" x2="42.91" y2="521.72"/><line class="cls-5" x1="42.91" y1="521.72" x2="42.91" y2="517.91"/><line class="cls-5" x1="403.53" y1="496.32" x2="387.02" y2="496.32"/><line class="cls-5" x1="323.53" y1="496.32" x2="279.72" y2="496.32"/><line class="cls-5" x1="216.23" y1="496.32" x2="197.82" y2="496.32"/><line class="cls-5" x1="185.13" y1="496.32" x2="155.92" y2="496.32"/><line class="cls-5" x1="42.91" y1="496.32" x2="1.01" y2="496.32"/><line class="cls-5" x1="1.01" y1="529.97" x2="45.45" y2="529.97"/><line class="cls-5" x1="153.38" y1="529.97" x2="218.77" y2="529.97"/><line class="cls-5" x1="277.18" y1="529.97" x2="326.07" y2="529.97"/><line class="cls-5" x1="384.48" y1="529.97" x2="413.68" y2="529.97"/><line class="cls-5" x1="326.07" y1="529.97" x2="384.48" y2="529.97"/><line class="cls-5" x1="323.53" y1="496.32" x2="387.02" y2="496.32"/><line class="cls-5" x1="323.53" y1="517.91" x2="327.02" y2="517.91"/><line class="cls-5" x1="327.02" y1="517.91" x2="327.02" y2="520.45"/><line class="cls-5" x1="327.02" y1="520.45" x2="328.61" y2="520.45"/><line class="cls-5" x1="328.61" y1="520.45" x2="328.61" y2="521.72"/><line class="cls-5" x1="328.61" y1="521.72" x2="323.53" y2="521.72"/><line class="cls-5" x1="387.02" y1="521.72" x2="381.94" y2="521.72"/><line class="cls-5" x1="381.94" y1="521.72" x2="381.94" y2="520.45"/><line class="cls-5" x1="381.94" y1="520.45" x2="383.53" y2="520.45"/><line class="cls-5" x1="383.53" y1="520.45" x2="383.53" y2="517.91"/><line class="cls-5" x1="383.53" y1="517.91" x2="387.02" y2="517.91"/><line class="cls-5" x1="381.94" y1="521.72" x2="328.61" y2="521.72"/><line class="cls-5" x1="330.83" y1="516.64" x2="379.72" y2="516.64"/><line class="cls-5" x1="327.02" y1="516.64" x2="330.83" y2="516.64"/><line class="cls-5" x1="330.83" y1="516.64" x2="330.83" y2="520.45"/><line class="cls-5" x1="330.83" y1="520.45" x2="327.02" y2="520.45"/><line class="cls-5" x1="327.02" y1="520.45" x2="327.02" y2="516.64"/><line class="cls-5" x1="383.53" y1="520.45" x2="379.72" y2="520.45"/><line class="cls-5" x1="379.72" y1="520.45" x2="379.72" y2="516.64"/><line class="cls-5" x1="379.72" y1="516.64" x2="383.53" y2="516.64"/><line class="cls-5" x1="383.53" y1="516.64" x2="383.53" y2="520.45"/><line class="cls-5" x1="379.72" y1="520.45" x2="330.83" y2="520.45"/><line class="cls-5" x1="330.83" y1="516.64" x2="379.72" y2="516.64"/><line class="cls-5" x1="330.83" y1="518.54" x2="379.72" y2="518.54"/><line class="cls-5" x1="323.53" y1="521.72" x2="323.53" y2="517.91"/><line class="cls-5" x1="323.53" y1="521.72" x2="323.53" y2="517.91"/><line class="cls-5" x1="326.07" y1="521.72" x2="323.53" y2="521.72"/><line class="cls-5" x1="326.07" y1="521.72" x2="323.53" y2="521.72"/><line class="cls-5" x1="326.07" y1="529.97" x2="326.07" y2="522.35"/><line class="cls-5" x1="326.07" y1="522.35" x2="326.07" y2="521.72"/><line class="cls-5" x1="323.53" y1="517.91" x2="323.53" y2="496.32"/><line class="cls-5" x1="387.02" y1="521.72" x2="387.02" y2="517.91"/><line class="cls-5" x1="387.02" y1="521.72" x2="387.02" y2="517.91"/><line class="cls-5" x1="384.48" y1="521.72" x2="387.02" y2="521.72"/><line class="cls-5" x1="384.48" y1="521.72" x2="387.02" y2="521.72"/><line class="cls-5" x1="384.48" y1="529.97" x2="384.48" y2="522.35"/><line class="cls-5" x1="384.48" y1="522.35" x2="384.48" y2="521.72"/><line class="cls-5" x1="387.02" y1="517.91" x2="387.02" y2="496.32"/><line class="cls-5" x1="277.18" y1="529.97" x2="218.77" y2="529.97"/><line class="cls-5" x1="279.72" y1="496.32" x2="216.23" y2="496.32"/><line class="cls-5" x1="279.72" y1="517.91" x2="276.23" y2="517.91"/><line class="cls-5" x1="276.23" y1="517.91" x2="276.23" y2="520.45"/><line class="cls-5" x1="276.23" y1="520.45" x2="274.64" y2="520.45"/><line class="cls-5" x1="274.64" y1="520.45" x2="274.64" y2="521.72"/><line class="cls-5" x1="274.64" y1="521.72" x2="279.72" y2="521.72"/><line class="cls-5" x1="216.23" y1="521.72" x2="221.31" y2="521.72"/><line class="cls-5" x1="221.31" y1="521.72" x2="221.31" y2="520.45"/><line class="cls-5" x1="221.31" y1="520.45" x2="219.73" y2="520.45"/><line class="cls-5" x1="219.73" y1="520.45" x2="219.73" y2="517.91"/><line class="cls-5" x1="219.73" y1="517.91" x2="216.23" y2="517.91"/><line class="cls-5" x1="221.31" y1="521.72" x2="274.64" y2="521.72"/><line class="cls-5" x1="272.42" y1="516.64" x2="223.54" y2="516.64"/><line class="cls-5" x1="276.23" y1="516.64" x2="272.42" y2="516.64"/><line class="cls-5" x1="272.42" y1="516.64" x2="272.42" y2="520.45"/><line class="cls-5" x1="272.42" y1="520.45" x2="276.23" y2="520.45"/><line class="cls-5" x1="276.23" y1="520.45" x2="276.23" y2="516.64"/><line class="cls-5" x1="219.73" y1="520.45" x2="223.54" y2="520.45"/><line class="cls-5" x1="223.54" y1="520.45" x2="223.54" y2="516.64"/><line class="cls-5" x1="223.54" y1="516.64" x2="219.73" y2="516.64"/><line class="cls-5" x1="219.73" y1="516.64" x2="219.73" y2="520.45"/><line class="cls-5" x1="223.54" y1="520.45" x2="272.42" y2="520.45"/><line class="cls-5" x1="272.42" y1="516.64" x2="223.54" y2="516.64"/><line class="cls-5" x1="272.42" y1="518.54" x2="223.54" y2="518.54"/><line class="cls-5" x1="279.72" y1="521.72" x2="279.72" y2="517.91"/><line class="cls-5" x1="279.72" y1="521.72" x2="279.72" y2="517.91"/><line class="cls-5" x1="277.18" y1="521.72" x2="279.72" y2="521.72"/><line class="cls-5" x1="277.18" y1="521.72" x2="279.72" y2="521.72"/><line class="cls-5" x1="277.18" y1="529.97" x2="277.18" y2="522.35"/><line class="cls-5" x1="277.18" y1="522.35" x2="277.18" y2="521.72"/><line class="cls-5" x1="279.72" y1="517.91" x2="279.72" y2="496.32"/><line class="cls-5" x1="216.23" y1="521.72" x2="216.23" y2="517.91"/><line class="cls-5" x1="216.23" y1="521.72" x2="216.23" y2="517.91"/><line class="cls-5" x1="218.77" y1="521.72" x2="216.23" y2="521.72"/><line class="cls-5" x1="218.77" y1="521.72" x2="216.23" y2="521.72"/><line class="cls-5" x1="218.77" y1="529.97" x2="218.77" y2="522.35"/><line class="cls-5" x1="218.77" y1="522.35" x2="218.77" y2="521.72"/><line class="cls-5" x1="216.23" y1="517.91" x2="216.23" y2="496.32"/><line class="cls-5" x1="45.45" y1="529.97" x2="153.38" y2="529.97"/><line class="cls-5" x1="42.91" y1="496.32" x2="155.92" y2="496.32"/><line class="cls-5" x1="42.91" y1="517.91" x2="46.4" y2="517.91"/><line class="cls-5" x1="46.4" y1="517.91" x2="46.4" y2="520.45"/><line class="cls-5" x1="46.4" y1="520.45" x2="47.99" y2="520.45"/><line class="cls-5" x1="47.99" y1="520.45" x2="47.99" y2="521.72"/><line class="cls-5" x1="47.99" y1="521.72" x2="42.91" y2="521.72"/><line class="cls-5" x1="99.42" y1="521.72" x2="96.88" y2="521.72"/><line class="cls-5" x1="96.88" y1="521.72" x2="96.88" y2="520.45"/><line class="cls-5" x1="96.88" y1="520.45" x2="98.46" y2="520.45"/><line class="cls-5" x1="98.46" y1="520.45" x2="98.46" y2="517.91"/><line class="cls-5" x1="98.46" y1="517.91" x2="99.42" y2="517.91"/><line class="cls-5" x1="96.88" y1="521.72" x2="47.99" y2="521.72"/><line class="cls-5" x1="50.21" y1="516.64" x2="94.66" y2="516.64"/><line class="cls-5" x1="46.4" y1="516.64" x2="50.21" y2="516.64"/><line class="cls-5" x1="50.21" y1="516.64" x2="50.21" y2="520.45"/><line class="cls-5" x1="50.21" y1="520.45" x2="46.4" y2="520.45"/><line class="cls-5" x1="46.4" y1="520.45" x2="46.4" y2="516.64"/><line class="cls-5" x1="98.46" y1="520.45" x2="94.66" y2="520.45"/><line class="cls-5" x1="94.66" y1="520.45" x2="94.66" y2="516.64"/><line class="cls-5" x1="94.66" y1="516.64" x2="98.46" y2="516.64"/><line class="cls-5" x1="98.46" y1="516.64" x2="98.46" y2="520.45"/><line class="cls-5" x1="94.66" y1="520.45" x2="50.21" y2="520.45"/><line class="cls-5" x1="50.21" y1="516.64" x2="94.66" y2="516.64"/><line class="cls-5" x1="50.21" y1="518.54" x2="94.66" y2="518.54"/><line class="cls-5" x1="99.42" y1="517.91" x2="100.37" y2="517.91"/><line class="cls-5" x1="100.37" y1="517.91" x2="100.37" y2="520.45"/><line class="cls-5" x1="100.37" y1="520.45" x2="101.96" y2="520.45"/><line class="cls-5" x1="101.96" y1="520.45" x2="101.96" y2="521.72"/><line class="cls-5" x1="101.96" y1="521.72" x2="99.42" y2="521.72"/><line class="cls-5" x1="155.92" y1="521.72" x2="150.84" y2="521.72"/><line class="cls-5" x1="150.84" y1="521.72" x2="150.84" y2="520.45"/><line class="cls-5" x1="150.84" y1="520.45" x2="152.43" y2="520.45"/><line class="cls-5" x1="152.43" y1="520.45" x2="152.43" y2="517.91"/><line class="cls-5" x1="152.43" y1="517.91" x2="155.92" y2="517.91"/><line class="cls-5" x1="150.84" y1="521.72" x2="101.96" y2="521.72"/><line class="cls-5" x1="104.18" y1="516.64" x2="148.62" y2="516.64"/><line class="cls-5" x1="100.37" y1="516.64" x2="104.18" y2="516.64"/><line class="cls-5" x1="104.18" y1="516.64" x2="104.18" y2="520.45"/><line class="cls-5" x1="104.18" y1="520.45" x2="100.37" y2="520.45"/><line class="cls-5" x1="100.37" y1="520.45" x2="100.37" y2="516.64"/><line class="cls-5" x1="152.43" y1="520.45" x2="148.62" y2="520.45"/><line class="cls-5" x1="148.62" y1="520.45" x2="148.62" y2="516.64"/><line class="cls-5" x1="148.62" y1="516.64" x2="152.43" y2="516.64"/><line class="cls-5" x1="152.43" y1="516.64" x2="152.43" y2="520.45"/><line class="cls-5" x1="148.62" y1="520.45" x2="104.18" y2="520.45"/><line class="cls-5" x1="104.18" y1="516.64" x2="148.62" y2="516.64"/><line class="cls-5" x1="104.18" y1="518.54" x2="148.62" y2="518.54"/><line class="cls-5" x1="42.91" y1="521.72" x2="42.91" y2="517.91"/><line class="cls-5" x1="42.91" y1="521.72" x2="42.91" y2="517.91"/><line class="cls-5" x1="45.45" y1="521.72" x2="42.91" y2="521.72"/><line class="cls-5" x1="45.45" y1="521.72" x2="42.91" y2="521.72"/><line class="cls-5" x1="45.45" y1="529.97" x2="45.45" y2="522.35"/><line class="cls-5" x1="45.45" y1="522.35" x2="45.45" y2="521.72"/><line class="cls-5" x1="42.91" y1="517.91" x2="42.91" y2="496.32"/><line class="cls-5" x1="155.92" y1="521.72" x2="155.92" y2="517.91"/><line class="cls-5" x1="155.92" y1="521.72" x2="155.92" y2="517.91"/><line class="cls-5" x1="153.38" y1="521.72" x2="155.92" y2="521.72"/><line class="cls-5" x1="153.38" y1="521.72" x2="155.92" y2="521.72"/><line class="cls-5" x1="153.38" y1="529.97" x2="153.38" y2="522.35"/><line class="cls-5" x1="153.38" y1="522.35" x2="153.38" y2="521.72"/><line class="cls-5" x1="155.92" y1="517.91" x2="155.92" y2="496.32"/><line class="cls-5" x1="260.05" y1="39.2" x2="216.87" y2="39.2"/><line class="cls-5" x1="216.87" y1="39.2" x2="216.87" y2="44.28"/><line class="cls-5" x1="216.87" y1="44.28" x2="265.12" y2="44.28"/><line class="cls-5" x1="265.12" y1="44.28" x2="265.12" y2="39.2"/><line class="cls-5" x1="371.78" y1="39.2" x2="371.78" y2="13.81"/><line class="cls-5" x1="366.7" y1="13.81" x2="366.7" y2="44.28"/><line class="cls-5" x1="400.3" y1="44.28" x2="400.35" y2="44.24"/><line class="cls-5" x1="399.4" y1="44.28" x2="400.35" y2="43.34"/><line class="cls-5" x1="374.96" y1="40" x2="375.75" y2="39.2"/><line class="cls-5" x1="400.35" y1="41.74" x2="400.35" y2="39.2"/><line class="cls-5" x1="400.35" y1="44.28" x2="400.35" y2="41.74"/><line class="cls-5" x1="374.96" y1="41.74" x2="374.96" y2="39.2"/><line class="cls-5" x1="374.96" y1="44.28" x2="374.96" y2="41.74"/><line class="cls-5" x1="403.53" y1="39.2" x2="400.35" y2="39.2"/><line class="cls-5" x1="374.96" y1="39.2" x2="371.78" y2="39.2"/><line class="cls-5" x1="366.7" y1="44.28" x2="374.96" y2="44.28"/><line class="cls-5" x1="400.35" y1="44.28" x2="403.53" y2="44.28"/><line class="cls-5" x1="403.53" y1="44.28" x2="403.53" y2="39.2"/><line class="cls-5" x1="374.96" y1="44.28" x2="400.35" y2="44.28"/><line class="cls-5" x1="374.96" y1="39.2" x2="400.35" y2="39.2"/><path class="cls-5" d="M376.46,52.59a25.43,25.43,0,0,1-1.53-8.68" transform="translate(0.03 0.38)"/><line class="cls-5" x1="400.35" y1="44.28" x2="376.49" y2="52.97"/><line class="cls-5" x1="374.96" y1="44.28" x2="374.96" y2="41.74"/><line class="cls-5" x1="374.96" y1="44.28" x2="374.96" y2="41.74"/><line class="cls-5" x1="374.96" y1="41.74" x2="374.96" y2="39.2"/><line class="cls-5" x1="400.35" y1="44.28" x2="400.35" y2="41.74"/><line class="cls-5" x1="400.35" y1="44.28" x2="400.35" y2="41.74"/><line class="cls-5" x1="400.35" y1="41.74" x2="400.35" y2="39.2"/><line class="cls-5" x1="265.12" y1="39.2" x2="265.12" y2="13.81"/><line class="cls-5" x1="265.12" y1="13.81" x2="260.05" y2="13.81"/><line class="cls-5" x1="260.05" y1="13.81" x2="260.05" y2="39.2"/><line class="cls-5" x1="413.68" y1="512.19" x2="403.53" y2="512.19"/><line class="cls-5" x1="403.53" y1="512.19" x2="403.53" y2="522.35"/><line class="cls-5" x1="413.68" y1="522.35" x2="413.68" y2="512.19"/><line class="cls-5" x1="197.82" y1="512.19" x2="185.13" y2="512.19"/><line class="cls-5" x1="185.13" y1="512.19" x2="185.13" y2="522.35"/><line class="cls-5" x1="197.82" y1="522.35" x2="197.82" y2="512.19"/><line class="cls-5" x1="88.62" y1="124.91" x2="88.62" y2="117.29"/><line class="cls-5" x1="88.62" y1="117.29" x2="88.62" y2="112.22"/><line class="cls-5" x1="152.11" y1="124.91" x2="152.11" y2="117.29"/><line class="cls-5" x1="152.11" y1="117.29" x2="152.11" y2="112.22"/><line class="cls-5" x1="204.17" y1="112.22" x2="152.11" y2="112.22"/><line class="cls-5" x1="88.62" y1="112.22" x2="1.01" y2="112.22"/><line class="cls-5" x1="13.71" y1="124.91" x2="88.62" y2="124.91"/><line class="cls-5" x1="152.11" y1="124.91" x2="216.87" y2="124.91"/><line class="cls-5" x1="152.11" y1="112.22" x2="82.48" y2="112.22"/><path class="cls-5" d="M149.55,116.92a58.41,58.41,0,0,1-58.41,58.41" transform="translate(0.03 0.38)"/><line class="cls-5" x1="152.11" y1="112.22" x2="149.57" y2="112.22"/><line class="cls-5" x1="149.57" y1="112.22" x2="149.57" y2="117.29"/><line class="cls-5" x1="149.57" y1="117.29" x2="152.11" y2="117.29"/><line class="cls-5" x1="152.11" y1="117.29" x2="152.11" y2="112.22"/><line class="cls-5" x1="88.62" y1="117.29" x2="91.16" y2="117.29"/><line class="cls-5" x1="91.16" y1="117.29" x2="91.16" y2="112.22"/><line class="cls-5" x1="91.16" y1="112.22" x2="88.62" y2="112.22"/><line class="cls-5" x1="88.62" y1="112.22" x2="88.62" y2="117.29"/><line class="cls-5" x1="91.16" y1="117.29" x2="91.16" y2="175.7"/><line class="cls-5" x1="152.11" y1="117.29" x2="152.11" y2="112.22"/><line class="cls-5" x1="152.11" y1="117.29" x2="152.11" y2="112.22"/><line class="cls-5" x1="152.11" y1="124.91" x2="152.11" y2="117.29"/><line class="cls-5" x1="88.62" y1="117.29" x2="88.62" y2="112.22"/><line class="cls-5" x1="88.62" y1="117.29" x2="88.62" y2="112.22"/><line class="cls-5" x1="88.62" y1="124.91" x2="88.62" y2="117.29"/><line class="cls-5" x1="216.87" y1="124.91" x2="216.87" y2="13.81"/><line class="cls-5" x1="204.17" y1="13.81" x2="204.17" y2="112.22"/><line class="cls-5" x1="13.71" y1="496.32" x2="13.71" y2="264.59"/><line class="cls-5" x1="13.71" y1="201.1" x2="13.71" y2="124.91"/><line class="cls-5" x1="1.01" y1="112.22" x2="1.01" y2="201.1"/><line class="cls-5" x1="1.01" y1="264.59" x2="1.01" y2="376.96"/><line class="cls-5" x1="1.01" y1="440.45" x2="1.01" y2="529.97"/><line class="cls-5" x1="1.01" y1="496.32" x2="13.71" y2="496.32"/><line class="cls-5" x1="204.17" y1="1.11" x2="204.17" y2="8.73"/><line class="cls-5" x1="204.17" y1="8.73" x2="204.17" y2="13.81"/><line class="cls-5" x1="413.68" y1="1.11" x2="378.13" y2="1.11"/><line class="cls-5" x1="314.64" y1="1.11" x2="204.17" y2="1.11"/><line class="cls-5" x1="216.87" y1="13.81" x2="403.53" y2="13.81"/><line class="cls-5" x1="403.53" y1="13.81" x2="403.53" y2="1.11"/><line class="cls-5" x1="204.17" y1="8.73" x2="204.17" y2="13.81"/><line class="cls-5" x1="204.17" y1="8.73" x2="204.17" y2="13.81"/><line class="cls-5" x1="204.17" y1="8.73" x2="204.17" y2="13.81"/><line class="cls-5" x1="204.17" y1="1.11" x2="204.17" y2="8.73"/><line class="cls-5" x1="278.77" y1="568.06" x2="277.18" y2="566.48"/><line class="cls-5" x1="277.18" y1="566.48" x2="277.18" y2="529.97"/><line class="cls-5" x1="277.18" y1="529.97" x2="278.77" y2="529.97"/><line class="cls-5" x1="278.77" y1="529.97" x2="278.77" y2="568.06"/><line class="cls-5" x1="217.19" y1="568.06" x2="218.77" y2="566.48"/><line class="cls-5" x1="218.77" y1="566.48" x2="277.18" y2="566.48"/><line class="cls-5" x1="277.18" y1="566.48" x2="278.77" y2="568.06"/><line class="cls-5" x1="278.77" y1="568.06" x2="217.19" y2="568.06"/><line class="cls-5" x1="217.19" y1="529.97" x2="217.19" y2="568.06"/><line class="cls-5" x1="218.77" y1="529.97" x2="217.19" y2="529.97"/><line class="cls-5" x1="218.77" y1="566.48" x2="218.77" y2="529.97"/><line class="cls-5" x1="217.19" y1="568.06" x2="218.77" y2="566.48"/><line class="cls-5" x1="277.98" y1="567.27" x2="277.98" y2="556.07"/><line class="cls-5" x1="277.98" y1="550.47" x2="277.98" y2="550.47"/><line class="cls-5" x1="277.98" y1="545.99" x2="277.98" y2="541.17"/><line class="cls-5" x1="277.98" y1="541.17" x2="277.98" y2="529.97"/><line class="cls-5" x1="217.98" y1="567.27" x2="229.18" y2="567.27"/><line class="cls-5" x1="234.78" y1="567.27" x2="234.78" y2="567.27"/><line class="cls-5" x1="239.26" y1="567.27" x2="250.46" y2="567.27"/><line class="cls-5" x1="256.05" y1="567.27" x2="256.05" y2="567.27"/><line class="cls-5" x1="260.53" y1="567.27" x2="266.78" y2="567.27"/><line class="cls-5" x1="266.78" y1="567.27" x2="277.98" y2="567.27"/><line class="cls-5" x1="220.36" y1="556.64" x2="275.6" y2="556.64"/><line class="cls-5" x1="275.6" y1="556.64" x2="275.6" y2="536.32"/><line class="cls-5" x1="275.6" y1="536.32" x2="220.36" y2="536.32"/><line class="cls-5" x1="220.36" y1="536.32" x2="220.36" y2="556.64"/><line class="cls-5" x1="220.36" y1="554.6" x2="275.6" y2="554.6"/><line class="cls-5" x1="275.6" y1="554.6" x2="275.6" y2="536.32"/><line class="cls-5" x1="275.6" y1="536.32" x2="220.36" y2="536.32"/><line class="cls-5" x1="220.36" y1="536.32" x2="220.36" y2="554.6"/><line class="cls-5" x1="217.98" y1="567.27" x2="217.98" y2="556.07"/><line class="cls-5" x1="217.98" y1="550.47" x2="217.98" y2="550.47"/><line class="cls-5" x1="217.98" y1="545.99" x2="217.98" y2="541.17"/><line class="cls-5" x1="217.98" y1="541.17" x2="217.98" y2="529.97"/><line class="cls-5" x1="50.53" y1="206.18" x2="63.23" y2="206.18"/><line class="cls-5" x1="63.23" y1="201.1" x2="50.53" y2="201.1"/><line class="cls-5" x1="50.53" y1="164.28" x2="50.53" y2="151.58"/><line class="cls-5" x1="45.45" y1="151.58" x2="45.45" y2="164.28"/><line class="cls-5" x1="0.41" y1="230.94" x2="1.01" y2="230.34"/><line class="cls-5" x1="1.01" y1="225.86" x2="1.01" y2="230.94"/><line class="cls-5" x1="21.64" y1="201.1" x2="31.17" y2="201.1"/><line class="cls-5" x1="31.17" y1="206.18" x2="21.64" y2="206.18"/><line class="cls-5" x1="0.43" y1="264.59" x2="1.01" y2="264.01"/><line class="cls-5" x1="1.01" y1="259.51" x2="1.01" y2="264.59"/><line class="cls-5" x1="245.96" y1="39.26" x2="246.01" y2="39.2"/><line class="cls-5" x1="255.48" y1="44.28" x2="245.96" y2="44.28"/><line class="cls-5" x1="245.96" y1="39.2" x2="255.48" y2="39.2"/><line class="cls-5" x1="390.83" y1="44.28" x2="403.53" y2="44.28"/><line class="cls-5" x1="403.53" y1="44.28" x2="403.53" y2="39.2"/><line class="cls-5" x1="403.53" y1="39.2" x2="390.83" y2="39.2"/><line class="cls-5" x1="371.78" y1="32.86" x2="371.78" y2="20.16"/><line class="cls-5" x1="366.7" y1="20.16" x2="366.7" y2="32.86"/><line class="cls-5" x1="411.85" y1="512.19" x2="413.68" y2="510.36"/><line class="cls-5" x1="407.47" y1="509.39" x2="413.68" y2="503.18"/><line class="cls-5" x1="405.8" y1="503.87" x2="413.68" y2="496"/><line class="cls-5" x1="404.14" y1="498.35" x2="413.68" y2="488.81"/><line class="cls-5" x1="403.53" y1="491.79" x2="413.68" y2="481.63"/><line class="cls-5" x1="403.53" y1="484.6" x2="413.68" y2="474.44"/><line class="cls-5" x1="403.53" y1="477.42" x2="413.68" y2="467.26"/><line class="cls-5" x1="403.53" y1="470.24" x2="413.68" y2="460.08"/><line class="cls-5" x1="403.53" y1="463.05" x2="413.68" y2="452.9"/><line class="cls-5" x1="403.53" y1="455.87" x2="413.68" y2="445.71"/><line class="cls-5" x1="403.53" y1="448.69" x2="413.68" y2="438.53"/><line class="cls-5" x1="403.53" y1="441.51" x2="413.68" y2="431.35"/><line class="cls-5" x1="403.53" y1="434.32" x2="413.68" y2="424.17"/><line class="cls-5" x1="403.53" y1="427.14" x2="413.68" y2="416.98"/><line class="cls-5" x1="403.53" y1="419.96" x2="413.68" y2="409.8"/><line class="cls-5" x1="403.53" y1="412.78" x2="413.68" y2="402.62"/><line class="cls-5" x1="403.53" y1="405.59" x2="413.68" y2="395.43"/><line class="cls-5" x1="403.53" y1="398.41" x2="413.68" y2="388.25"/><line class="cls-5" x1="403.53" y1="391.23" x2="413.68" y2="381.07"/><line class="cls-5" x1="403.53" y1="384.04" x2="413.68" y2="373.89"/><line class="cls-5" x1="403.53" y1="376.86" x2="413.68" y2="366.7"/><line class="cls-5" x1="403.53" y1="369.68" x2="413.68" y2="359.52"/><line class="cls-5" x1="403.53" y1="362.5" x2="413.68" y2="352.34"/><line class="cls-5" x1="403.53" y1="355.31" x2="413.68" y2="345.15"/><line class="cls-5" x1="403.53" y1="348.13" x2="413.68" y2="337.97"/><line class="cls-5" x1="403.53" y1="340.94" x2="413.68" y2="330.79"/><line class="cls-5" x1="403.53" y1="333.76" x2="413.68" y2="323.61"/><line class="cls-5" x1="403.53" y1="326.58" x2="413.68" y2="316.42"/><line class="cls-5" x1="403.53" y1="319.4" x2="413.68" y2="309.24"/><line class="cls-5" x1="403.53" y1="312.22" x2="413.68" y2="302.06"/><line class="cls-5" x1="403.53" y1="305.03" x2="413.68" y2="294.87"/><line class="cls-5" x1="403.53" y1="297.85" x2="413.68" y2="287.69"/><line class="cls-5" x1="403.53" y1="290.67" x2="413.68" y2="280.51"/><line class="cls-5" x1="403.53" y1="283.48" x2="413.68" y2="273.33"/><line class="cls-5" x1="403.53" y1="276.3" x2="413.68" y2="266.14"/><line class="cls-5" x1="403.53" y1="269.12" x2="413.68" y2="258.96"/><line class="cls-5" x1="403.53" y1="261.93" x2="413.68" y2="251.78"/><line class="cls-5" x1="403.53" y1="254.75" x2="413.68" y2="244.6"/><line class="cls-5" x1="403.53" y1="247.57" x2="413.68" y2="237.41"/><line class="cls-5" x1="403.53" y1="240.39" x2="413.68" y2="230.23"/><line class="cls-5" x1="403.53" y1="233.2" x2="413.68" y2="223.04"/><line class="cls-5" x1="403.53" y1="226.02" x2="413.68" y2="215.86"/><line class="cls-5" x1="403.53" y1="218.84" x2="413.68" y2="208.68"/><line class="cls-5" x1="403.53" y1="211.65" x2="413.68" y2="201.5"/><line class="cls-5" x1="403.53" y1="204.47" x2="413.68" y2="194.31"/><line class="cls-5" x1="403.53" y1="197.29" x2="413.68" y2="187.13"/><line class="cls-5" x1="403.53" y1="190.11" x2="413.68" y2="179.95"/><line class="cls-5" x1="403.53" y1="182.92" x2="413.68" y2="172.76"/><line class="cls-5" x1="403.53" y1="175.74" x2="413.68" y2="165.58"/><line class="cls-5" x1="403.53" y1="168.56" x2="413.68" y2="158.4"/><line class="cls-5" x1="403.53" y1="161.37" x2="413.68" y2="151.22"/><line class="cls-5" x1="403.53" y1="154.19" x2="413.68" y2="144.03"/><line class="cls-5" x1="403.53" y1="147.01" x2="413.68" y2="136.85"/><line class="cls-5" x1="403.53" y1="139.83" x2="413.68" y2="129.67"/><line class="cls-5" x1="403.53" y1="132.64" x2="413.68" y2="122.48"/><line class="cls-5" x1="403.53" y1="125.46" x2="413.68" y2="115.3"/><line class="cls-5" x1="403.53" y1="118.28" x2="413.68" y2="108.12"/><line class="cls-5" x1="403.53" y1="111.1" x2="413.68" y2="100.94"/><line class="cls-5" x1="403.53" y1="103.91" x2="413.68" y2="93.75"/><line class="cls-5" x1="403.53" y1="96.73" x2="413.68" y2="86.57"/><line class="cls-5" x1="403.53" y1="89.55" x2="413.68" y2="79.39"/><line class="cls-5" x1="403.53" y1="82.36" x2="413.68" y2="72.21"/><line class="cls-5" x1="403.53" y1="75.18" x2="413.68" y2="65.02"/><line class="cls-5" x1="403.53" y1="68" x2="413.68" y2="57.84"/><line class="cls-5" x1="403.53" y1="60.82" x2="413.68" y2="50.66"/><line class="cls-5" x1="403.53" y1="53.63" x2="413.68" y2="43.47"/><line class="cls-5" x1="403.53" y1="46.45" x2="413.68" y2="36.29"/><line class="cls-5" x1="403.53" y1="39.26" x2="413.68" y2="29.11"/><line class="cls-5" x1="403.53" y1="32.08" x2="413.68" y2="21.93"/><line class="cls-5" x1="403.53" y1="24.9" x2="413.68" y2="14.74"/><line class="cls-5" x1="403.53" y1="17.72" x2="413.68" y2="7.56"/><line class="cls-5" x1="403.53" y1="10.53" x2="413.68" y2="0.38"/><line class="cls-5" x1="408.3" y1="512.15" x2="410.58" y2="509.88"/><line class="cls-5" x1="411.47" y1="508.98" x2="411.47" y2="508.98"/><line class="cls-5" x1="412.37" y1="508.08" x2="413.68" y2="506.77"/><line class="cls-5" x1="406.64" y1="506.63" x2="406.99" y2="506.28"/><line class="cls-5" x1="407.88" y1="505.39" x2="407.88" y2="505.39"/><line class="cls-5" x1="408.78" y1="504.49" x2="411.47" y2="501.8"/><line class="cls-5" x1="412.37" y1="500.9" x2="412.37" y2="500.9"/><line class="cls-5" x1="413.27" y1="500" x2="413.68" y2="499.59"/><line class="cls-5" x1="405.19" y1="500.9" x2="407.88" y2="498.21"/><line class="cls-5" x1="408.78" y1="497.31" x2="408.78" y2="497.31"/><line class="cls-5" x1="409.68" y1="496.41" x2="412.37" y2="493.71"/><line class="cls-5" x1="413.27" y1="492.82" x2="413.27" y2="492.82"/><line class="cls-5" x1="403.53" y1="495.38" x2="404.29" y2="494.61"/><line class="cls-5" x1="405.19" y1="493.71" x2="405.19" y2="493.71"/><line class="cls-5" x1="406.09" y1="492.82" x2="408.78" y2="490.12"/><line class="cls-5" x1="409.68" y1="489.22" x2="409.68" y2="489.22"/><line class="cls-5" x1="410.58" y1="488.33" x2="413.27" y2="485.63"/><line class="cls-5" x1="403.53" y1="488.2" x2="405.19" y2="486.53"/><line class="cls-5" x1="406.09" y1="485.63" x2="406.09" y2="485.63"/><line class="cls-5" x1="406.99" y1="484.74" x2="409.68" y2="482.04"/><line class="cls-5" x1="410.58" y1="481.15" x2="410.58" y2="481.15"/><line class="cls-5" x1="411.47" y1="480.25" x2="413.68" y2="478.04"/><line class="cls-5" x1="403.53" y1="481.01" x2="406.09" y2="478.45"/><line class="cls-5" x1="406.99" y1="477.55" x2="406.99" y2="477.55"/><line class="cls-5" x1="407.88" y1="476.65" x2="410.58" y2="473.96"/><line class="cls-5" x1="411.47" y1="473.06" x2="411.47" y2="473.06"/><line class="cls-5" x1="412.37" y1="472.17" x2="413.68" y2="470.85"/><line class="cls-5" x1="404.29" y1="473.06" x2="406.99" y2="470.37"/><line class="cls-5" x1="407.88" y1="469.47" x2="407.88" y2="469.47"/><line class="cls-5" x1="408.78" y1="468.58" x2="411.47" y2="465.88"/><line class="cls-5" x1="412.37" y1="464.98" x2="412.37" y2="464.98"/><line class="cls-5" x1="413.27" y1="464.09" x2="413.68" y2="463.67"/><line class="cls-5" x1="404.29" y1="465.88" x2="404.29" y2="465.88"/><line class="cls-5" x1="405.19" y1="464.98" x2="407.88" y2="462.29"/><line class="cls-5" x1="408.78" y1="461.39" x2="408.78" y2="461.39"/><line class="cls-5" x1="409.68" y1="460.49" x2="412.37" y2="457.8"/><line class="cls-5" x1="413.27" y1="456.9" x2="413.27" y2="456.9"/><line class="cls-5" x1="403.53" y1="459.46" x2="404.29" y2="458.7"/><line class="cls-5" x1="405.19" y1="457.8" x2="405.19" y2="457.8"/><line class="cls-5" x1="406.09" y1="456.9" x2="408.78" y2="454.21"/><line class="cls-5" x1="409.68" y1="453.31" x2="409.68" y2="453.31"/><line class="cls-5" x1="410.58" y1="452.41" x2="413.27" y2="449.72"/><line class="cls-5" x1="403.53" y1="452.28" x2="405.19" y2="450.62"/><line class="cls-5" x1="406.09" y1="449.72" x2="406.09" y2="449.72"/><line class="cls-5" x1="406.99" y1="448.82" x2="409.68" y2="446.13"/><line class="cls-5" x1="410.58" y1="445.23" x2="410.58" y2="445.23"/><line class="cls-5" x1="411.47" y1="444.33" x2="413.68" y2="442.12"/><line class="cls-5" x1="403.53" y1="445.1" x2="406.09" y2="442.54"/><line class="cls-5" x1="406.99" y1="441.64" x2="406.99" y2="441.64"/><line class="cls-5" x1="407.88" y1="440.74" x2="410.58" y2="438.05"/><line class="cls-5" x1="411.47" y1="437.15" x2="411.47" y2="437.15"/><line class="cls-5" x1="412.37" y1="436.25" x2="413.68" y2="434.94"/><line class="cls-5" x1="404.29" y1="437.15" x2="406.99" y2="434.46"/><line class="cls-5" x1="407.88" y1="433.56" x2="407.88" y2="433.56"/><line class="cls-5" x1="408.78" y1="432.66" x2="411.47" y2="429.97"/><line class="cls-5" x1="412.37" y1="429.07" x2="412.37" y2="429.07"/><line class="cls-5" x1="413.27" y1="428.17" x2="413.68" y2="427.76"/><line class="cls-5" x1="404.29" y1="429.97" x2="404.29" y2="429.97"/><line class="cls-5" x1="405.19" y1="429.07" x2="407.88" y2="426.37"/><line class="cls-5" x1="408.78" y1="425.48" x2="408.78" y2="425.48"/><line class="cls-5" x1="409.68" y1="424.58" x2="412.37" y2="421.89"/><line class="cls-5" x1="413.27" y1="420.99" x2="413.27" y2="420.99"/><line class="cls-5" x1="403.53" y1="423.55" x2="404.29" y2="422.78"/><line class="cls-5" x1="405.19" y1="421.89" x2="405.19" y2="421.89"/><line class="cls-5" x1="406.09" y1="420.99" x2="408.78" y2="418.3"/><line class="cls-5" x1="409.68" y1="417.4" x2="409.68" y2="417.4"/><line class="cls-5" x1="410.58" y1="416.5" x2="413.27" y2="413.8"/><line class="cls-5" x1="403.53" y1="416.37" x2="405.19" y2="414.7"/><line class="cls-5" x1="406.09" y1="413.8" x2="406.09" y2="413.8"/><line class="cls-5" x1="406.99" y1="412.91" x2="409.68" y2="410.21"/><line class="cls-5" x1="410.58" y1="409.32" x2="410.58" y2="409.32"/><line class="cls-5" x1="411.47" y1="408.42" x2="413.68" y2="406.21"/><line class="cls-5" x1="403.53" y1="409.19" x2="406.09" y2="406.62"/><line class="cls-5" x1="406.99" y1="405.72" x2="406.99" y2="405.72"/><line class="cls-5" x1="407.88" y1="404.83" x2="410.58" y2="402.13"/><line class="cls-5" x1="411.47" y1="401.24" x2="411.47" y2="401.24"/><line class="cls-5" x1="412.37" y1="400.34" x2="413.68" y2="399.03"/><line class="cls-5" x1="404.29" y1="401.24" x2="406.99" y2="398.54"/><line class="cls-5" x1="407.88" y1="397.64" x2="407.88" y2="397.64"/><line class="cls-5" x1="408.78" y1="396.74" x2="411.47" y2="394.05"/><line class="cls-5" x1="412.37" y1="393.15" x2="412.37" y2="393.15"/><line class="cls-5" x1="413.27" y1="392.26" x2="413.68" y2="391.84"/><line class="cls-5" x1="404.29" y1="394.05" x2="404.29" y2="394.05"/><line class="cls-5" x1="405.19" y1="393.15" x2="407.88" y2="390.46"/><line class="cls-5" x1="408.78" y1="389.56" x2="408.78" y2="389.56"/><line class="cls-5" x1="409.68" y1="388.67" x2="412.37" y2="385.97"/><line class="cls-5" x1="413.27" y1="385.08" x2="413.27" y2="385.08"/><line class="cls-5" x1="403.53" y1="387.63" x2="404.29" y2="386.87"/><line class="cls-5" x1="405.19" y1="385.97" x2="405.19" y2="385.97"/><line class="cls-5" x1="406.09" y1="385.08" x2="408.78" y2="382.38"/><line class="cls-5" x1="409.68" y1="381.48" x2="409.68" y2="381.48"/><line class="cls-5" x1="410.58" y1="380.58" x2="413.27" y2="377.89"/><line class="cls-5" x1="403.53" y1="380.45" x2="405.19" y2="378.79"/><line class="cls-5" x1="406.09" y1="377.89" x2="406.09" y2="377.89"/><line class="cls-5" x1="406.99" y1="376.99" x2="409.68" y2="374.3"/><line class="cls-5" x1="410.58" y1="373.4" x2="410.58" y2="373.4"/><line class="cls-5" x1="411.47" y1="372.5" x2="413.68" y2="370.3"/><line class="cls-5" x1="403.53" y1="373.27" x2="406.09" y2="370.71"/><line class="cls-5" x1="406.99" y1="369.81" x2="406.99" y2="369.81"/><line class="cls-5" x1="407.88" y1="368.91" x2="410.58" y2="366.22"/><line class="cls-5" x1="411.47" y1="365.32" x2="411.47" y2="365.32"/><line class="cls-5" x1="412.37" y1="364.42" x2="413.68" y2="363.11"/><line class="cls-5" x1="404.29" y1="365.32" x2="406.99" y2="362.63"/><line class="cls-5" x1="407.88" y1="361.73" x2="407.88" y2="361.73"/><line class="cls-5" x1="408.78" y1="360.83" x2="411.47" y2="358.14"/><line class="cls-5" x1="412.37" y1="357.24" x2="412.37" y2="357.24"/><line class="cls-5" x1="413.27" y1="356.34" x2="413.68" y2="355.93"/><line class="cls-5" x1="404.29" y1="358.14" x2="404.29" y2="358.14"/><line class="cls-5" x1="405.19" y1="357.24" x2="407.88" y2="354.55"/><line class="cls-5" x1="408.78" y1="353.65" x2="408.78" y2="353.65"/><line class="cls-5" x1="409.68" y1="352.75" x2="412.37" y2="350.06"/><line class="cls-5" x1="413.27" y1="349.16" x2="413.27" y2="349.16"/><line class="cls-5" x1="403.53" y1="351.72" x2="404.29" y2="350.95"/><line class="cls-5" x1="405.19" y1="350.06" x2="405.19" y2="350.06"/><line class="cls-5" x1="406.09" y1="349.16" x2="408.78" y2="346.47"/><line class="cls-5" x1="409.68" y1="345.57" x2="409.68" y2="345.57"/><line class="cls-5" x1="410.58" y1="344.67" x2="413.27" y2="341.98"/><line class="cls-5" x1="403.53" y1="344.54" x2="405.19" y2="342.87"/><line class="cls-5" x1="406.09" y1="341.98" x2="406.09" y2="341.98"/><line class="cls-5" x1="406.99" y1="341.08" x2="409.68" y2="338.39"/><line class="cls-5" x1="410.58" y1="337.49" x2="410.58" y2="337.49"/><line class="cls-5" x1="411.47" y1="336.59" x2="413.68" y2="334.38"/><line class="cls-5" x1="403.53" y1="337.35" x2="406.09" y2="334.79"/><line class="cls-5" x1="406.99" y1="333.89" x2="406.99" y2="333.89"/><line class="cls-5" x1="407.88" y1="333" x2="410.58" y2="330.3"/><line class="cls-5" x1="411.47" y1="329.41" x2="411.47" y2="329.41"/><line class="cls-5" x1="412.37" y1="328.51" x2="413.68" y2="327.2"/><line class="cls-5" x1="404.29" y1="329.41" x2="406.99" y2="326.71"/><line class="cls-5" x1="407.88" y1="325.82" x2="407.88" y2="325.82"/><line class="cls-5" x1="408.78" y1="324.92" x2="411.47" y2="322.23"/><line class="cls-5" x1="412.37" y1="321.33" x2="412.37" y2="321.33"/><line class="cls-5" x1="413.27" y1="320.43" x2="413.68" y2="320.01"/><line class="cls-5" x1="404.29" y1="322.23" x2="404.29" y2="322.23"/><line class="cls-5" x1="405.19" y1="321.33" x2="407.88" y2="318.63"/><line class="cls-5" x1="408.78" y1="317.73" x2="408.78" y2="317.73"/><line class="cls-5" x1="409.68" y1="316.84" x2="412.37" y2="314.14"/><line class="cls-5" x1="413.27" y1="313.24" x2="413.27" y2="313.24"/><line class="cls-5" x1="403.53" y1="315.81" x2="404.29" y2="315.04"/><line class="cls-5" x1="405.19" y1="314.14" x2="405.19" y2="314.14"/><line class="cls-5" x1="406.09" y1="313.24" x2="408.78" y2="310.55"/><line class="cls-5" x1="409.68" y1="309.65" x2="409.68" y2="309.65"/><line class="cls-5" x1="410.58" y1="308.76" x2="413.27" y2="306.06"/><line class="cls-5" x1="403.53" y1="308.62" x2="405.19" y2="306.96"/><line class="cls-5" x1="406.09" y1="306.06" x2="406.09" y2="306.06"/><line class="cls-5" x1="406.99" y1="305.17" x2="409.68" y2="302.47"/><line class="cls-5" x1="410.58" y1="301.57" x2="410.58" y2="301.57"/><line class="cls-5" x1="411.47" y1="300.67" x2="413.68" y2="298.46"/><line class="cls-5" x1="403.53" y1="301.44" x2="406.09" y2="298.88"/><line class="cls-5" x1="406.99" y1="297.98" x2="406.99" y2="297.98"/><line class="cls-5" x1="407.88" y1="297.08" x2="410.58" y2="294.39"/><line class="cls-5" x1="411.47" y1="293.49" x2="411.47" y2="293.49"/><line class="cls-5" x1="412.37" y1="292.6" x2="413.68" y2="291.28"/><line class="cls-5" x1="404.29" y1="293.49" x2="406.99" y2="290.8"/><line class="cls-5" x1="407.88" y1="289.9" x2="407.88" y2="289.9"/><line class="cls-5" x1="408.78" y1="289" x2="411.47" y2="286.31"/><line class="cls-5" x1="412.37" y1="285.41" x2="412.37" y2="285.41"/><line class="cls-5" x1="413.27" y1="284.51" x2="413.68" y2="284.1"/><line class="cls-5" x1="404.29" y1="286.31" x2="404.29" y2="286.31"/><line class="cls-5" x1="405.19" y1="285.41" x2="407.88" y2="282.72"/><line class="cls-5" x1="408.78" y1="281.82" x2="408.78" y2="281.82"/><line class="cls-5" x1="409.68" y1="280.92" x2="412.37" y2="278.23"/><line class="cls-5" x1="413.27" y1="277.33" x2="413.27" y2="277.33"/><line class="cls-5" x1="403.53" y1="279.89" x2="404.29" y2="279.13"/><line class="cls-5" x1="405.19" y1="278.23" x2="405.19" y2="278.23"/><line class="cls-5" x1="406.09" y1="277.33" x2="408.78" y2="274.64"/><line class="cls-5" x1="409.68" y1="273.74" x2="409.68" y2="273.74"/><line class="cls-5" x1="410.58" y1="272.84" x2="413.27" y2="270.15"/><line class="cls-5" x1="403.53" y1="272.71" x2="405.19" y2="271.04"/><line class="cls-5" x1="406.09" y1="270.15" x2="406.09" y2="270.15"/><line class="cls-5" x1="406.99" y1="269.25" x2="409.68" y2="266.56"/><line class="cls-5" x1="410.58" y1="265.66" x2="410.58" y2="265.66"/><line class="cls-5" x1="411.47" y1="264.76" x2="413.68" y2="262.55"/><line class="cls-5" x1="403.53" y1="265.53" x2="406.09" y2="262.97"/><line class="cls-5" x1="406.99" y1="262.07" x2="406.99" y2="262.07"/><line class="cls-5" x1="407.88" y1="261.17" x2="410.58" y2="258.48"/><line class="cls-5" x1="411.47" y1="257.58" x2="411.47" y2="257.58"/><line class="cls-5" x1="412.37" y1="256.68" x2="413.68" y2="255.37"/><line class="cls-5" x1="404.29" y1="257.58" x2="406.99" y2="254.88"/><line class="cls-5" x1="407.88" y1="253.99" x2="407.88" y2="253.99"/><line class="cls-5" x1="408.78" y1="253.09" x2="411.47" y2="250.39"/><line class="cls-5" x1="412.37" y1="249.5" x2="412.37" y2="249.5"/><line class="cls-5" x1="413.27" y1="248.6" x2="413.68" y2="248.19"/><line class="cls-5" x1="404.29" y1="250.39" x2="404.29" y2="250.39"/><line class="cls-5" x1="405.19" y1="249.5" x2="407.88" y2="246.8"/><line class="cls-5" x1="408.78" y1="245.91" x2="408.78" y2="245.91"/><line class="cls-5" x1="409.68" y1="245.01" x2="412.37" y2="242.32"/><line class="cls-5" x1="413.27" y1="241.42" x2="413.27" y2="241.42"/><line class="cls-5" x1="403.53" y1="243.98" x2="404.29" y2="243.21"/><line class="cls-5" x1="405.19" y1="242.32" x2="405.19" y2="242.32"/><line class="cls-5" x1="406.09" y1="241.42" x2="408.78" y2="238.72"/><line class="cls-5" x1="409.68" y1="237.82" x2="409.68" y2="237.82"/><line class="cls-5" x1="410.58" y1="236.93" x2="413.27" y2="234.23"/><line class="cls-5" x1="403.53" y1="236.8" x2="405.19" y2="235.13"/><line class="cls-5" x1="406.09" y1="234.23" x2="406.09" y2="234.23"/><line class="cls-5" x1="406.99" y1="233.34" x2="409.68" y2="230.64"/><line class="cls-5" x1="410.58" y1="229.75" x2="410.58" y2="229.75"/><line class="cls-5" x1="411.47" y1="228.85" x2="413.68" y2="226.64"/><line class="cls-5" x1="403.53" y1="229.61" x2="406.09" y2="227.05"/><line class="cls-5" x1="406.99" y1="226.15" x2="406.99" y2="226.15"/><line class="cls-5" x1="407.88" y1="225.26" x2="410.58" y2="222.56"/><line class="cls-5" x1="411.47" y1="221.66" x2="411.47" y2="221.66"/><line class="cls-5" x1="412.37" y1="220.76" x2="413.68" y2="219.45"/><line class="cls-5" x1="404.29" y1="221.66" x2="406.99" y2="218.97"/><line class="cls-5" x1="407.88" y1="218.07" x2="407.88" y2="218.07"/><line class="cls-5" x1="408.78" y1="217.17" x2="411.47" y2="214.48"/><line class="cls-5" x1="412.37" y1="213.58" x2="412.37" y2="213.58"/><line class="cls-5" x1="413.27" y1="212.69" x2="413.68" y2="212.27"/><line class="cls-5" x1="404.29" y1="214.48" x2="404.29" y2="214.48"/><line class="cls-5" x1="405.19" y1="213.58" x2="407.88" y2="210.89"/><line class="cls-5" x1="408.78" y1="209.99" x2="408.78" y2="209.99"/><line class="cls-5" x1="409.68" y1="209.09" x2="412.37" y2="206.4"/><line class="cls-5" x1="413.27" y1="205.5" x2="413.27" y2="205.5"/><line class="cls-5" x1="403.53" y1="208.06" x2="404.29" y2="207.3"/><line class="cls-5" x1="405.19" y1="206.4" x2="405.19" y2="206.4"/><line class="cls-5" x1="406.09" y1="205.5" x2="408.78" y2="202.81"/><line class="cls-5" x1="409.68" y1="201.91" x2="409.68" y2="201.91"/><line class="cls-5" x1="410.58" y1="201.01" x2="413.27" y2="198.32"/><line class="cls-5" x1="403.53" y1="200.88" x2="405.19" y2="199.22"/><line class="cls-5" x1="406.09" y1="198.32" x2="406.09" y2="198.32"/><line class="cls-5" x1="406.99" y1="197.42" x2="409.68" y2="194.73"/><line class="cls-5" x1="410.58" y1="193.83" x2="410.58" y2="193.83"/><line class="cls-5" x1="411.47" y1="192.93" x2="413.68" y2="190.72"/><line class="cls-5" x1="403.53" y1="193.7" x2="406.09" y2="191.13"/><line class="cls-5" x1="406.99" y1="190.24" x2="406.99" y2="190.24"/><line class="cls-5" x1="407.88" y1="189.34" x2="410.58" y2="186.65"/><line class="cls-5" x1="411.47" y1="185.75" x2="411.47" y2="185.75"/><line class="cls-5" x1="412.37" y1="184.85" x2="413.68" y2="183.54"/><line class="cls-5" x1="404.29" y1="185.75" x2="406.99" y2="183.06"/><line class="cls-5" x1="407.88" y1="182.16" x2="407.88" y2="182.16"/><line class="cls-5" x1="408.78" y1="181.26" x2="411.47" y2="178.57"/><line class="cls-5" x1="412.37" y1="177.67" x2="412.37" y2="177.67"/><line class="cls-5" x1="413.27" y1="176.77" x2="413.68" y2="176.36"/><line class="cls-5" x1="404.29" y1="178.57" x2="404.29" y2="178.57"/><line class="cls-5" x1="405.19" y1="177.67" x2="407.88" y2="174.97"/><line class="cls-5" x1="408.78" y1="174.08" x2="408.78" y2="174.08"/><line class="cls-5" x1="409.68" y1="173.18" x2="412.37" y2="170.49"/><line class="cls-5" x1="413.27" y1="169.59" x2="413.27" y2="169.59"/><line class="cls-5" x1="403.53" y1="172.15" x2="404.29" y2="171.38"/><line class="cls-5" x1="405.19" y1="170.49" x2="405.19" y2="170.49"/><line class="cls-5" x1="406.09" y1="169.59" x2="408.78" y2="166.9"/><line class="cls-5" x1="409.68" y1="166" x2="409.68" y2="166"/><line class="cls-5" x1="410.58" y1="165.1" x2="413.27" y2="162.41"/><line class="cls-5" x1="403.53" y1="164.96" x2="405.19" y2="163.3"/><line class="cls-5" x1="406.09" y1="162.41" x2="406.09" y2="162.41"/><line class="cls-5" x1="406.99" y1="161.51" x2="409.68" y2="158.81"/><line class="cls-5" x1="410.58" y1="157.91" x2="410.58" y2="157.91"/><line class="cls-5" x1="411.47" y1="157.02" x2="413.68" y2="154.81"/><line class="cls-5" x1="403.53" y1="157.78" x2="406.09" y2="155.22"/><line class="cls-5" x1="406.99" y1="154.32" x2="406.99" y2="154.32"/><line class="cls-5" x1="407.88" y1="153.43" x2="410.58" y2="150.73"/><line class="cls-5" x1="411.47" y1="149.84" x2="411.47" y2="149.84"/><line class="cls-5" x1="412.37" y1="148.94" x2="413.68" y2="147.63"/><line class="cls-5" x1="404.29" y1="149.84" x2="406.99" y2="147.14"/><line class="cls-5" x1="407.88" y1="146.24" x2="407.88" y2="146.24"/><line class="cls-5" x1="408.78" y1="145.35" x2="411.47" y2="142.65"/><line class="cls-5" x1="412.37" y1="141.75" x2="412.37" y2="141.75"/><line class="cls-5" x1="413.27" y1="140.86" x2="413.68" y2="140.44"/><line class="cls-5" x1="404.29" y1="142.65" x2="404.29" y2="142.65"/><line class="cls-5" x1="405.19" y1="141.75" x2="407.88" y2="139.06"/><line class="cls-5" x1="408.78" y1="138.16" x2="408.78" y2="138.16"/><line class="cls-5" x1="409.68" y1="137.27" x2="412.37" y2="134.57"/><line class="cls-5" x1="413.27" y1="133.67" x2="413.27" y2="133.67"/><line class="cls-5" x1="403.53" y1="136.23" x2="404.29" y2="135.47"/><line class="cls-5" x1="405.19" y1="134.57" x2="405.19" y2="134.57"/><line class="cls-5" x1="406.09" y1="133.67" x2="408.78" y2="130.98"/><line class="cls-5" x1="409.68" y1="130.08" x2="409.68" y2="130.08"/><line class="cls-5" x1="410.58" y1="129.18" x2="413.27" y2="126.49"/><line class="cls-5" x1="403.53" y1="129.05" x2="405.19" y2="127.39"/><line class="cls-5" x1="406.09" y1="126.49" x2="406.09" y2="126.49"/><line class="cls-5" x1="406.99" y1="125.59" x2="409.68" y2="122.9"/><line class="cls-5" x1="410.58" y1="122" x2="410.58" y2="122"/><line class="cls-5" x1="411.47" y1="121.1" x2="413.68" y2="118.89"/><line class="cls-5" x1="403.53" y1="121.87" x2="406.09" y2="119.31"/><line class="cls-5" x1="406.99" y1="118.41" x2="406.99" y2="118.41"/><line class="cls-5" x1="407.88" y1="117.51" x2="410.58" y2="114.82"/><line class="cls-5" x1="411.47" y1="113.92" x2="411.47" y2="113.92"/><line class="cls-5" x1="412.37" y1="113.02" x2="413.68" y2="111.71"/><line class="cls-5" x1="404.29" y1="113.92" x2="406.99" y2="111.23"/><line class="cls-5" x1="407.88" y1="110.33" x2="407.88" y2="110.33"/><line class="cls-5" x1="408.78" y1="109.43" x2="411.47" y2="106.74"/><line class="cls-5" x1="412.37" y1="105.84" x2="412.37" y2="105.84"/><line class="cls-5" x1="413.27" y1="104.94" x2="413.68" y2="104.53"/><line class="cls-5" x1="404.29" y1="106.74" x2="404.29" y2="106.74"/><line class="cls-5" x1="405.19" y1="105.84" x2="407.88" y2="103.15"/><line class="cls-5" x1="408.78" y1="102.25" x2="408.78" y2="102.25"/><line class="cls-5" x1="409.68" y1="101.35" x2="412.37" y2="98.66"/><line class="cls-5" x1="413.27" y1="97.76" x2="413.27" y2="97.76"/><line class="cls-5" x1="403.53" y1="100.32" x2="404.29" y2="99.56"/><line class="cls-5" x1="405.19" y1="98.66" x2="405.19" y2="98.66"/><line class="cls-5" x1="406.09" y1="97.76" x2="408.78" y2="95.06"/><line class="cls-5" x1="409.68" y1="94.17" x2="409.68" y2="94.17"/><line class="cls-5" x1="410.58" y1="93.27" x2="413.27" y2="90.58"/><line class="cls-5" x1="403.53" y1="93.14" x2="405.19" y2="91.47"/><line class="cls-5" x1="406.09" y1="90.58" x2="406.09" y2="90.58"/><line class="cls-5" x1="406.99" y1="89.68" x2="409.68" y2="86.99"/><line class="cls-5" x1="410.58" y1="86.09" x2="410.58" y2="86.09"/><line class="cls-5" x1="411.47" y1="85.19" x2="413.68" y2="82.98"/><line class="cls-5" x1="403.53" y1="85.95" x2="406.09" y2="83.39"/><line class="cls-5" x1="406.99" y1="82.5" x2="406.99" y2="82.5"/><line class="cls-5" x1="407.88" y1="81.6" x2="410.58" y2="78.9"/><line class="cls-5" x1="411.47" y1="78.01" x2="411.47" y2="78.01"/><line class="cls-5" x1="412.37" y1="77.11" x2="413.68" y2="75.8"/><line class="cls-5" x1="404.29" y1="78.01" x2="406.99" y2="75.31"/><line class="cls-5" x1="407.88" y1="74.41" x2="407.88" y2="74.41"/><line class="cls-5" x1="408.78" y1="73.52" x2="411.47" y2="70.82"/><line class="cls-5" x1="412.37" y1="69.93" x2="412.37" y2="69.93"/><line class="cls-5" x1="413.27" y1="69.03" x2="413.68" y2="68.61"/><line class="cls-5" x1="404.29" y1="70.82" x2="404.29" y2="70.82"/><line class="cls-5" x1="405.19" y1="69.93" x2="407.88" y2="67.23"/><line class="cls-5" x1="408.78" y1="66.33" x2="408.78" y2="66.33"/><line class="cls-5" x1="409.68" y1="65.44" x2="412.37" y2="62.74"/><line class="cls-5" x1="413.27" y1="61.84" x2="413.27" y2="61.84"/><line class="cls-5" x1="403.53" y1="64.41" x2="404.29" y2="63.64"/><line class="cls-5" x1="405.19" y1="62.74" x2="405.19" y2="62.74"/><line class="cls-5" x1="406.09" y1="61.84" x2="408.78" y2="59.15"/><line class="cls-5" x1="409.68" y1="58.25" x2="409.68" y2="58.25"/><line class="cls-5" x1="410.58" y1="57.36" x2="413.27" y2="54.66"/><line class="cls-5" x1="403.53" y1="57.22" x2="405.19" y2="55.56"/><line class="cls-5" x1="406.09" y1="54.66" x2="406.09" y2="54.66"/><line class="cls-5" x1="406.99" y1="53.77" x2="409.68" y2="51.07"/><line class="cls-5" x1="410.58" y1="50.17" x2="410.58" y2="50.17"/><line class="cls-5" x1="411.47" y1="49.27" x2="413.68" y2="47.06"/><line class="cls-5" x1="403.53" y1="50.04" x2="406.09" y2="47.48"/><line class="cls-5" x1="406.99" y1="46.58" x2="406.99" y2="46.58"/><line class="cls-5" x1="407.88" y1="45.68" x2="410.58" y2="42.99"/><line class="cls-5" x1="411.47" y1="42.09" x2="411.47" y2="42.09"/><line class="cls-5" x1="412.37" y1="41.19" x2="413.68" y2="39.88"/><line class="cls-5" x1="404.29" y1="42.09" x2="406.99" y2="39.4"/><line class="cls-5" x1="407.88" y1="38.5" x2="407.88" y2="38.5"/><line class="cls-5" x1="408.78" y1="37.6" x2="411.47" y2="34.91"/><line class="cls-5" x1="412.37" y1="34.01" x2="412.37" y2="34.01"/><line class="cls-5" x1="413.27" y1="33.11" x2="413.68" y2="32.7"/><line class="cls-5" x1="404.29" y1="34.91" x2="404.29" y2="34.91"/><line class="cls-5" x1="405.19" y1="34.01" x2="407.88" y2="31.32"/><line class="cls-5" x1="408.78" y1="30.42" x2="408.78" y2="30.42"/><line class="cls-5" x1="409.68" y1="29.52" x2="412.37" y2="26.83"/><line class="cls-5" x1="413.27" y1="25.93" x2="413.27" y2="25.93"/><line class="cls-5" x1="403.53" y1="28.49" x2="404.29" y2="27.73"/><line class="cls-5" x1="405.19" y1="26.83" x2="405.19" y2="26.83"/><line class="cls-5" x1="406.09" y1="25.93" x2="408.78" y2="23.24"/><line class="cls-5" x1="409.68" y1="22.34" x2="409.68" y2="22.34"/><line class="cls-5" x1="410.58" y1="21.44" x2="413.27" y2="18.75"/><line class="cls-5" x1="403.53" y1="21.31" x2="405.19" y2="19.65"/><line class="cls-5" x1="406.09" y1="18.75" x2="406.09" y2="18.75"/><line class="cls-5" x1="406.99" y1="17.85" x2="409.68" y2="15.16"/><line class="cls-5" x1="410.58" y1="14.26" x2="410.58" y2="14.26"/><line class="cls-5" x1="411.47" y1="13.36" x2="413.68" y2="11.15"/><line class="cls-5" x1="403.53" y1="14.13" x2="406.09" y2="11.56"/><line class="cls-5" x1="406.99" y1="10.67" x2="406.99" y2="10.67"/><line class="cls-5" x1="407.88" y1="9.77" x2="410.58" y2="7.08"/><line class="cls-5" x1="411.47" y1="6.18" x2="411.47" y2="6.18"/><line class="cls-5" x1="412.37" y1="5.28" x2="413.68" y2="3.97"/><line class="cls-5" x1="404.29" y1="6.18" x2="406.99" y2="3.48"/><line class="cls-5" x1="407.88" y1="2.59" x2="407.88" y2="2.59"/><line class="cls-5" x1="413.68" y1="522.35" x2="411.39" y2="522.35"/><line class="cls-5" x1="413.68" y1="529.97" x2="413.68" y2="522.35"/><line class="cls-5" x1="413.68" y1="512.19" x2="413.68" y2="1.11"/><line class="cls-5" x1="403.53" y1="1.11" x2="403.53" y2="496.32"/><line class="cls-5" x1="196.37" y1="512.19" x2="197.82" y2="510.73"/><line class="cls-5" x1="189.18" y1="512.19" x2="197.82" y2="503.55"/><line class="cls-5" x1="185.13" y1="509.07" x2="197.82" y2="496.37"/><line class="cls-5" x1="185.13" y1="501.88" x2="197.82" y2="489.19"/><line class="cls-5" x1="185.13" y1="494.7" x2="197.82" y2="482"/><line class="cls-5" x1="185.13" y1="487.52" x2="197.82" y2="474.82"/><line class="cls-5" x1="185.13" y1="480.34" x2="197.82" y2="467.64"/><line class="cls-5" x1="185.13" y1="473.15" x2="197.82" y2="460.45"/><line class="cls-5" x1="185.13" y1="465.97" x2="197.82" y2="453.27"/><line class="cls-5" x1="185.13" y1="458.79" x2="195.21" y2="448.7"/><line class="cls-5" x1="185.13" y1="451.6" x2="188.02" y2="448.7"/><line class="cls-5" x1="192.77" y1="512.19" x2="195.09" y2="509.88"/><line class="cls-5" x1="195.99" y1="508.98" x2="195.99" y2="508.98"/><line class="cls-5" x1="196.89" y1="508.08" x2="197.82" y2="507.14"/><line class="cls-5" x1="185.59" y1="512.19" x2="187.01" y2="510.77"/><line class="cls-5" x1="187.91" y1="509.88" x2="187.91" y2="509.88"/><line class="cls-5" x1="188.8" y1="508.98" x2="191.5" y2="506.28"/><line class="cls-5" x1="192.4" y1="505.39" x2="192.4" y2="505.39"/><line class="cls-5" x1="193.29" y1="504.49" x2="195.99" y2="501.8"/><line class="cls-5" x1="196.89" y1="500.9" x2="196.89" y2="500.9"/><line class="cls-5" x1="197.78" y1="500" x2="197.82" y2="499.96"/><line class="cls-5" x1="185.21" y1="505.39" x2="187.91" y2="502.69"/><line class="cls-5" x1="188.8" y1="501.8" x2="188.8" y2="501.8"/><line class="cls-5" x1="189.7" y1="500.9" x2="192.4" y2="498.21"/><line class="cls-5" x1="193.29" y1="497.31" x2="193.29" y2="497.31"/><line class="cls-5" x1="194.19" y1="496.41" x2="196.89" y2="493.71"/><line class="cls-5" x1="197.78" y1="492.82" x2="197.78" y2="492.82"/><line class="cls-5" x1="185.21" y1="498.21" x2="185.21" y2="498.21"/><line class="cls-5" x1="186.11" y1="497.31" x2="188.8" y2="494.61"/><line class="cls-5" x1="189.7" y1="493.71" x2="189.7" y2="493.71"/><line class="cls-5" x1="190.6" y1="492.82" x2="193.29" y2="490.12"/><line class="cls-5" x1="194.19" y1="489.22" x2="194.19" y2="489.22"/><line class="cls-5" x1="195.09" y1="488.33" x2="197.78" y2="485.63"/><line class="cls-5" x1="185.13" y1="491.11" x2="185.21" y2="491.02"/><line class="cls-5" x1="186.11" y1="490.12" x2="186.11" y2="490.12"/><line class="cls-5" x1="187.01" y1="489.22" x2="189.7" y2="486.53"/><line class="cls-5" x1="190.6" y1="485.63" x2="190.6" y2="485.63"/><line class="cls-5" x1="191.5" y1="484.74" x2="194.19" y2="482.04"/><line class="cls-5" x1="195.09" y1="481.15" x2="195.09" y2="481.15"/><line class="cls-5" x1="195.99" y1="480.25" x2="197.82" y2="478.41"/><line class="cls-5" x1="185.13" y1="483.93" x2="186.11" y2="482.94"/><line class="cls-5" x1="187.01" y1="482.04" x2="187.01" y2="482.04"/><line class="cls-5" x1="187.91" y1="481.15" x2="190.6" y2="478.45"/><line class="cls-5" x1="191.5" y1="477.55" x2="191.5" y2="477.55"/><line class="cls-5" x1="192.4" y1="476.65" x2="195.09" y2="473.96"/><line class="cls-5" x1="195.99" y1="473.06" x2="195.99" y2="473.06"/><line class="cls-5" x1="196.89" y1="472.17" x2="197.82" y2="471.23"/><line class="cls-5" x1="185.13" y1="476.74" x2="187.01" y2="474.86"/><line class="cls-5" x1="187.91" y1="473.96" x2="187.91" y2="473.96"/><line class="cls-5" x1="188.8" y1="473.06" x2="191.5" y2="470.37"/><line class="cls-5" x1="192.4" y1="469.47" x2="192.4" y2="469.47"/><line class="cls-5" x1="193.29" y1="468.58" x2="195.99" y2="465.88"/><line class="cls-5" x1="196.89" y1="464.98" x2="196.89" y2="464.98"/><line class="cls-5" x1="197.78" y1="464.09" x2="197.82" y2="464.05"/><line class="cls-5" x1="185.21" y1="469.47" x2="187.91" y2="466.78"/><line class="cls-5" x1="188.8" y1="465.88" x2="188.8" y2="465.88"/><line class="cls-5" x1="189.7" y1="464.98" x2="192.4" y2="462.29"/><line class="cls-5" x1="193.29" y1="461.39" x2="193.29" y2="461.39"/><line class="cls-5" x1="194.19" y1="460.49" x2="196.89" y2="457.8"/><line class="cls-5" x1="197.78" y1="456.9" x2="197.78" y2="456.9"/><line class="cls-5" x1="185.21" y1="462.29" x2="185.21" y2="462.29"/><line class="cls-5" x1="186.11" y1="461.39" x2="188.8" y2="458.7"/><line class="cls-5" x1="189.7" y1="457.8" x2="189.7" y2="457.8"/><line class="cls-5" x1="190.6" y1="456.9" x2="193.29" y2="454.21"/><line class="cls-5" x1="194.19" y1="453.31" x2="194.19" y2="453.31"/><line class="cls-5" x1="195.09" y1="452.41" x2="197.78" y2="449.72"/><line class="cls-5" x1="185.13" y1="455.19" x2="185.21" y2="455.11"/><line class="cls-5" x1="186.11" y1="454.21" x2="186.11" y2="454.21"/><line class="cls-5" x1="187.01" y1="453.31" x2="189.7" y2="450.62"/><line class="cls-5" x1="190.6" y1="449.72" x2="190.6" y2="449.72"/><line class="cls-5" x1="191.5" y1="448.82" x2="191.62" y2="448.7"/><line class="cls-5" x1="185.13" y1="512.19" x2="197.82" y2="512.19"/><line class="cls-5" x1="197.82" y1="512.19" x2="197.82" y2="448.7"/><line class="cls-5" x1="197.82" y1="448.7" x2="185.13" y2="448.7"/><line class="cls-5" x1="185.13" y1="448.7" x2="185.13" y2="512.19"/><line class="cls-5" x1="192.57" y1="264.59" x2="197.82" y2="259.33"/><line class="cls-5" x1="185.39" y1="264.59" x2="197.82" y2="252.15"/><line class="cls-5" x1="185.13" y1="257.67" x2="197.82" y2="244.97"/><line class="cls-5" x1="185.13" y1="250.48" x2="197.82" y2="237.79"/><line class="cls-5" x1="185.13" y1="243.3" x2="197.82" y2="230.6"/><line class="cls-5" x1="185.13" y1="236.12" x2="197.82" y2="223.42"/><line class="cls-5" x1="185.13" y1="228.94" x2="197.82" y2="216.24"/><line class="cls-5" x1="185.13" y1="221.75" x2="197.82" y2="209.05"/><line class="cls-5" x1="185.13" y1="214.57" x2="197.82" y2="201.87"/><line class="cls-5" x1="185.13" y1="207.38" x2="191.41" y2="201.1"/><line class="cls-5" x1="196.16" y1="264.59" x2="197.82" y2="262.93"/><line class="cls-5" x1="188.98" y1="264.59" x2="190.6" y2="262.97"/><line class="cls-5" x1="191.5" y1="262.07" x2="191.5" y2="262.07"/><line class="cls-5" x1="192.4" y1="261.17" x2="195.09" y2="258.48"/><line class="cls-5" x1="195.99" y1="257.58" x2="195.99" y2="257.58"/><line class="cls-5" x1="196.89" y1="256.68" x2="197.82" y2="255.74"/><line class="cls-5" x1="185.13" y1="261.26" x2="187.01" y2="259.38"/><line class="cls-5" x1="187.91" y1="258.48" x2="187.91" y2="258.48"/><line class="cls-5" x1="188.8" y1="257.58" x2="191.5" y2="254.88"/><line class="cls-5" x1="192.4" y1="253.99" x2="192.4" y2="253.99"/><line class="cls-5" x1="193.29" y1="253.09" x2="195.99" y2="250.39"/><line class="cls-5" x1="196.89" y1="249.5" x2="196.89" y2="249.5"/><line class="cls-5" x1="197.78" y1="248.6" x2="197.82" y2="248.56"/><line class="cls-5" x1="185.21" y1="253.99" x2="187.91" y2="251.29"/><line class="cls-5" x1="188.8" y1="250.39" x2="188.8" y2="250.39"/><line class="cls-5" x1="189.7" y1="249.5" x2="192.4" y2="246.8"/><line class="cls-5" x1="193.29" y1="245.91" x2="193.29" y2="245.91"/><line class="cls-5" x1="194.19" y1="245.01" x2="196.89" y2="242.32"/><line class="cls-5" x1="197.78" y1="241.42" x2="197.78" y2="241.42"/><line class="cls-5" x1="185.21" y1="246.8" x2="185.21" y2="246.8"/><line class="cls-5" x1="186.11" y1="245.91" x2="188.8" y2="243.21"/><line class="cls-5" x1="189.7" y1="242.32" x2="189.7" y2="242.32"/><line class="cls-5" x1="190.6" y1="241.42" x2="193.29" y2="238.72"/><line class="cls-5" x1="194.19" y1="237.82" x2="194.19" y2="237.82"/><line class="cls-5" x1="195.09" y1="236.93" x2="197.78" y2="234.23"/><line class="cls-5" x1="185.13" y1="239.71" x2="185.21" y2="239.62"/><line class="cls-5" x1="186.11" y1="238.72" x2="186.11" y2="238.72"/><line class="cls-5" x1="187.01" y1="237.82" x2="189.7" y2="235.13"/><line class="cls-5" x1="190.6" y1="234.23" x2="190.6" y2="234.23"/><line class="cls-5" x1="191.5" y1="233.34" x2="194.19" y2="230.64"/><line class="cls-5" x1="195.09" y1="229.75" x2="195.09" y2="229.75"/><line class="cls-5" x1="195.99" y1="228.85" x2="197.82" y2="227.01"/><line class="cls-5" x1="185.13" y1="232.53" x2="186.11" y2="231.54"/><line class="cls-5" x1="187.01" y1="230.64" x2="187.01" y2="230.64"/><line class="cls-5" x1="187.91" y1="229.75" x2="190.6" y2="227.05"/><line class="cls-5" x1="191.5" y1="226.15" x2="191.5" y2="226.15"/><line class="cls-5" x1="192.4" y1="225.26" x2="195.09" y2="222.56"/><line class="cls-5" x1="195.99" y1="221.66" x2="195.99" y2="221.66"/><line class="cls-5" x1="196.89" y1="220.76" x2="197.82" y2="219.83"/><line class="cls-5" x1="185.13" y1="225.34" x2="187.01" y2="223.46"/><line class="cls-5" x1="187.91" y1="222.56" x2="187.91" y2="222.56"/><line class="cls-5" x1="188.8" y1="221.66" x2="191.5" y2="218.97"/><line class="cls-5" x1="192.4" y1="218.07" x2="192.4" y2="218.07"/><line class="cls-5" x1="193.29" y1="217.17" x2="195.99" y2="214.48"/><line class="cls-5" x1="196.89" y1="213.58" x2="196.89" y2="213.58"/><line class="cls-5" x1="197.78" y1="212.69" x2="197.82" y2="212.64"/><line class="cls-5" x1="185.21" y1="218.07" x2="187.91" y2="215.38"/><line class="cls-5" x1="188.8" y1="214.48" x2="188.8" y2="214.48"/><line class="cls-5" x1="189.7" y1="213.58" x2="192.4" y2="210.89"/><line class="cls-5" x1="193.29" y1="209.99" x2="193.29" y2="209.99"/><line class="cls-5" x1="194.19" y1="209.09" x2="196.89" y2="206.4"/><line class="cls-5" x1="197.78" y1="205.5" x2="197.78" y2="205.5"/><line class="cls-5" x1="185.21" y1="210.89" x2="185.21" y2="210.89"/><line class="cls-5" x1="186.11" y1="209.99" x2="188.8" y2="207.3"/><line class="cls-5" x1="189.7" y1="206.4" x2="189.7" y2="206.4"/><line class="cls-5" x1="190.6" y1="205.5" x2="193.29" y2="202.81"/><line class="cls-5" x1="194.19" y1="201.91" x2="194.19" y2="201.91"/><line class="cls-5" x1="185.13" y1="203.79" x2="185.21" y2="203.71"/><line class="cls-5" x1="186.11" y1="202.81" x2="186.11" y2="202.81"/><line class="cls-5" x1="187.01" y1="201.91" x2="187.82" y2="201.1"/><line class="cls-5" x1="185.13" y1="264.59" x2="197.82" y2="264.59"/><line class="cls-5" x1="197.82" y1="264.59" x2="197.82" y2="201.1"/><line class="cls-5" x1="197.82" y1="201.1" x2="185.13" y2="201.1"/><line class="cls-5" x1="185.13" y1="201.1" x2="185.13" y2="264.59"/><line class="cls-5" x1="9.52" y1="440.45" x2="13.7" y2="436.27"/><line class="cls-5" x1="2.34" y1="440.45" x2="13.7" y2="429.09"/><line class="cls-5" x1="1.01" y1="434.6" x2="13.7" y2="421.9"/><line class="cls-5" x1="1.01" y1="427.42" x2="13.7" y2="414.72"/><line class="cls-5" x1="1.01" y1="420.24" x2="13.7" y2="407.54"/><line class="cls-5" x1="1.01" y1="413.05" x2="13.7" y2="400.35"/><line class="cls-5" x1="1.01" y1="405.87" x2="13.7" y2="393.17"/><line class="cls-5" x1="1.01" y1="398.69" x2="13.7" y2="385.99"/><line class="cls-5" x1="1.01" y1="391.5" x2="13.7" y2="378.81"/><line class="cls-5" x1="1.01" y1="384.32" x2="8.37" y2="376.96"/><line class="cls-5" x1="1.01" y1="377.14" x2="1.18" y2="376.96"/><line class="cls-5" x1="13.11" y1="440.45" x2="13.7" y2="439.86"/><line class="cls-5" x1="5.93" y1="440.45" x2="7.44" y2="438.95"/><line class="cls-5" x1="8.34" y1="438.05" x2="8.34" y2="438.05"/><line class="cls-5" x1="9.23" y1="437.15" x2="11.93" y2="434.46"/><line class="cls-5" x1="12.83" y1="433.56" x2="12.83" y2="433.56"/><line class="cls-5" x1="1.15" y1="438.05" x2="3.84" y2="435.35"/><line class="cls-5" x1="4.74" y1="434.46" x2="4.74" y2="434.46"/><line class="cls-5" x1="5.64" y1="433.56" x2="8.34" y2="430.86"/><line class="cls-5" x1="9.23" y1="429.97" x2="9.23" y2="429.97"/><line class="cls-5" x1="10.13" y1="429.07" x2="12.83" y2="426.37"/><line class="cls-5" x1="1.15" y1="430.86" x2="1.15" y2="430.86"/><line class="cls-5" x1="2.05" y1="429.97" x2="4.74" y2="427.27"/><line class="cls-5" x1="5.64" y1="426.37" x2="5.64" y2="426.37"/><line class="cls-5" x1="6.54" y1="425.48" x2="9.23" y2="422.78"/><line class="cls-5" x1="10.13" y1="421.89" x2="10.13" y2="421.89"/><line class="cls-5" x1="11.03" y1="420.99" x2="13.7" y2="418.31"/><line class="cls-5" x1="1.01" y1="423.83" x2="1.15" y2="423.68"/><line class="cls-5" x1="2.05" y1="422.78" x2="2.05" y2="422.78"/><line class="cls-5" x1="2.95" y1="421.89" x2="5.64" y2="419.19"/><line class="cls-5" x1="6.54" y1="418.3" x2="6.54" y2="418.3"/><line class="cls-5" x1="7.44" y1="417.4" x2="10.13" y2="414.7"/><line class="cls-5" x1="11.03" y1="413.8" x2="11.03" y2="413.8"/><line class="cls-5" x1="11.93" y1="412.91" x2="13.7" y2="411.13"/><line class="cls-5" x1="1.01" y1="416.64" x2="2.05" y2="415.6"/><line class="cls-5" x1="2.95" y1="414.7" x2="2.95" y2="414.7"/><line class="cls-5" x1="3.84" y1="413.8" x2="6.54" y2="411.11"/><line class="cls-5" x1="7.44" y1="410.21" x2="7.44" y2="410.21"/><line class="cls-5" x1="8.34" y1="409.32" x2="11.03" y2="406.62"/><line class="cls-5" x1="11.93" y1="405.72" x2="11.93" y2="405.72"/><line class="cls-5" x1="12.83" y1="404.83" x2="13.7" y2="403.94"/><line class="cls-5" x1="1.01" y1="409.46" x2="2.95" y2="407.52"/><line class="cls-5" x1="3.84" y1="406.62" x2="3.84" y2="406.62"/><line class="cls-5" x1="4.74" y1="405.72" x2="7.44" y2="403.03"/><line class="cls-5" x1="8.34" y1="402.13" x2="8.34" y2="402.13"/><line class="cls-5" x1="9.23" y1="401.24" x2="11.93" y2="398.54"/><line class="cls-5" x1="12.83" y1="397.64" x2="12.83" y2="397.64"/><line class="cls-5" x1="1.15" y1="402.13" x2="3.84" y2="399.44"/><line class="cls-5" x1="4.74" y1="398.54" x2="4.74" y2="398.54"/><line class="cls-5" x1="5.64" y1="397.64" x2="8.34" y2="394.95"/><line class="cls-5" x1="9.23" y1="394.05" x2="9.23" y2="394.05"/><line class="cls-5" x1="10.13" y1="393.15" x2="12.83" y2="390.46"/><line class="cls-5" x1="1.15" y1="394.95" x2="1.15" y2="394.95"/><line class="cls-5" x1="2.05" y1="394.05" x2="4.74" y2="391.36"/><line class="cls-5" x1="5.64" y1="390.46" x2="5.64" y2="390.46"/><line class="cls-5" x1="6.54" y1="389.56" x2="9.23" y2="386.87"/><line class="cls-5" x1="10.13" y1="385.97" x2="10.13" y2="385.97"/><line class="cls-5" x1="11.03" y1="385.08" x2="13.7" y2="382.4"/><line class="cls-5" x1="1.01" y1="387.91" x2="1.15" y2="387.77"/><line class="cls-5" x1="2.05" y1="386.87" x2="2.05" y2="386.87"/><line class="cls-5" x1="2.95" y1="385.97" x2="5.64" y2="383.28"/><line class="cls-5" x1="6.54" y1="382.38" x2="6.54" y2="382.38"/><line class="cls-5" x1="7.44" y1="381.48" x2="10.13" y2="378.79"/><line class="cls-5" x1="11.03" y1="377.89" x2="11.03" y2="377.89"/><line class="cls-5" x1="1.01" y1="380.73" x2="2.05" y2="379.69"/><line class="cls-5" x1="2.95" y1="378.79" x2="2.95" y2="378.79"/><line class="cls-5" x1="3.84" y1="377.89" x2="4.77" y2="376.96"/><line class="cls-5" x1="1.01" y1="440.45" x2="13.7" y2="440.45"/><line class="cls-5" x1="13.7" y1="440.45" x2="13.7" y2="376.96"/><line class="cls-5" x1="13.7" y1="376.96" x2="1.01" y2="376.96"/><line class="cls-5" x1="1.01" y1="376.96" x2="1.01" y2="440.45"/><line class="cls-5" x1="13" y1="264.59" x2="13.71" y2="263.88"/><line class="cls-5" x1="5.81" y1="264.59" x2="13.71" y2="256.7"/><line class="cls-5" x1="1.01" y1="262.21" x2="13.71" y2="249.51"/><line class="cls-5" x1="1.01" y1="255.03" x2="13.71" y2="242.33"/><line class="cls-5" x1="1.01" y1="247.85" x2="13.71" y2="235.15"/><line class="cls-5" x1="1.01" y1="240.66" x2="13.71" y2="227.96"/><line class="cls-5" x1="1.01" y1="233.48" x2="13.71" y2="220.78"/><line class="cls-5" x1="1.01" y1="226.3" x2="13.71" y2="213.6"/><line class="cls-5" x1="1.01" y1="219.11" x2="13.71" y2="206.42"/><line class="cls-5" x1="1.01" y1="211.93" x2="11.84" y2="201.1"/><line class="cls-5" x1="1.01" y1="204.75" x2="4.66" y2="201.1"/><line class="cls-5" x1="9.41" y1="264.59" x2="11.03" y2="262.97"/><line class="cls-5" x1="11.93" y1="262.07" x2="11.93" y2="262.07"/><line class="cls-5" x1="12.83" y1="261.17" x2="13.71" y2="260.29"/><line class="cls-5" x1="2.22" y1="264.59" x2="2.95" y2="263.86"/><line class="cls-5" x1="3.84" y1="262.97" x2="3.84" y2="262.97"/><line class="cls-5" x1="4.74" y1="262.07" x2="7.44" y2="259.38"/><line class="cls-5" x1="8.34" y1="258.48" x2="8.34" y2="258.48"/><line class="cls-5" x1="9.23" y1="257.58" x2="11.93" y2="254.88"/><line class="cls-5" x1="12.83" y1="253.99" x2="12.83" y2="253.99"/><line class="cls-5" x1="1.15" y1="258.48" x2="3.84" y2="255.78"/><line class="cls-5" x1="4.74" y1="254.88" x2="4.74" y2="254.88"/><line class="cls-5" x1="5.64" y1="253.99" x2="8.34" y2="251.29"/><line class="cls-5" x1="9.23" y1="250.39" x2="9.23" y2="250.39"/><line class="cls-5" x1="10.13" y1="249.5" x2="12.83" y2="246.8"/><line class="cls-5" x1="1.15" y1="251.29" x2="1.15" y2="251.29"/><line class="cls-5" x1="2.05" y1="250.39" x2="4.74" y2="247.7"/><line class="cls-5" x1="5.64" y1="246.8" x2="5.64" y2="246.8"/><line class="cls-5" x1="6.54" y1="245.91" x2="9.23" y2="243.21"/><line class="cls-5" x1="10.13" y1="242.32" x2="10.13" y2="242.32"/><line class="cls-5" x1="11.03" y1="241.42" x2="13.71" y2="238.74"/><line class="cls-5" x1="1.01" y1="244.25" x2="1.15" y2="244.11"/><line class="cls-5" x1="2.05" y1="243.21" x2="2.05" y2="243.21"/><line class="cls-5" x1="2.95" y1="242.32" x2="5.64" y2="239.62"/><line class="cls-5" x1="6.54" y1="238.72" x2="6.54" y2="238.72"/><line class="cls-5" x1="7.44" y1="237.82" x2="10.13" y2="235.13"/><line class="cls-5" x1="11.03" y1="234.23" x2="11.03" y2="234.23"/><line class="cls-5" x1="11.93" y1="233.34" x2="13.71" y2="231.55"/><line class="cls-5" x1="1.01" y1="237.07" x2="2.05" y2="236.03"/><line class="cls-5" x1="2.95" y1="235.13" x2="2.95" y2="235.13"/><line class="cls-5" x1="3.84" y1="234.23" x2="6.54" y2="231.54"/><line class="cls-5" x1="7.44" y1="230.64" x2="7.44" y2="230.64"/><line class="cls-5" x1="8.34" y1="229.75" x2="11.03" y2="227.05"/><line class="cls-5" x1="11.93" y1="226.15" x2="11.93" y2="226.15"/><line class="cls-5" x1="12.83" y1="225.26" x2="13.71" y2="224.37"/><line class="cls-5" x1="1.01" y1="229.89" x2="2.95" y2="227.95"/><line class="cls-5" x1="3.84" y1="227.05" x2="3.84" y2="227.05"/><line class="cls-5" x1="4.74" y1="226.15" x2="7.44" y2="223.46"/><line class="cls-5" x1="8.34" y1="222.56" x2="8.34" y2="222.56"/><line class="cls-5" x1="9.23" y1="221.66" x2="11.93" y2="218.97"/><line class="cls-5" x1="12.83" y1="218.07" x2="12.83" y2="218.07"/><line class="cls-5" x1="1.15" y1="222.56" x2="3.84" y2="219.87"/><line class="cls-5" x1="4.74" y1="218.97" x2="4.74" y2="218.97"/><line class="cls-5" x1="5.64" y1="218.07" x2="8.34" y2="215.38"/><line class="cls-5" x1="9.23" y1="214.48" x2="9.23" y2="214.48"/><line class="cls-5" x1="10.13" y1="213.58" x2="12.83" y2="210.89"/><line class="cls-5" x1="1.15" y1="215.38" x2="1.15" y2="215.38"/><line class="cls-5" x1="2.05" y1="214.48" x2="4.74" y2="211.79"/><line class="cls-5" x1="5.64" y1="210.89" x2="5.64" y2="210.89"/><line class="cls-5" x1="6.54" y1="209.99" x2="9.23" y2="207.3"/><line class="cls-5" x1="10.13" y1="206.4" x2="10.13" y2="206.4"/><line class="cls-5" x1="11.03" y1="205.5" x2="13.71" y2="202.82"/><line class="cls-5" x1="1.01" y1="208.34" x2="1.15" y2="208.2"/><line class="cls-5" x1="2.05" y1="207.3" x2="2.05" y2="207.3"/><line class="cls-5" x1="2.95" y1="206.4" x2="5.64" y2="203.71"/><line class="cls-5" x1="6.54" y1="202.81" x2="6.54" y2="202.81"/><line class="cls-5" x1="7.44" y1="201.91" x2="8.25" y2="201.1"/><line class="cls-5" x1="1.01" y1="201.16" x2="1.06" y2="201.1"/><line class="cls-5" x1="1.01" y1="264.59" x2="13.71" y2="264.59"/><line class="cls-5" x1="13.71" y1="264.59" x2="13.71" y2="201.1"/><line class="cls-5" x1="13.71" y1="201.1" x2="1.01" y2="201.1"/><line class="cls-5" x1="1.01" y1="201.1" x2="1.01" y2="264.59"/><line class="cls-5" x1="371.52" y1="13.81" x2="378.13" y2="7.2"/><line class="cls-5" x1="364.34" y1="13.81" x2="377.03" y2="1.11"/><line class="cls-5" x1="357.15" y1="13.81" x2="369.85" y2="1.11"/><line class="cls-5" x1="349.97" y1="13.81" x2="362.67" y2="1.11"/><line class="cls-5" x1="342.79" y1="13.81" x2="355.48" y2="1.11"/><line class="cls-5" x1="335.61" y1="13.81" x2="348.3" y2="1.11"/><line class="cls-5" x1="328.42" y1="13.81" x2="341.12" y2="1.11"/><line class="cls-5" x1="321.24" y1="13.81" x2="333.94" y2="1.11"/><line class="cls-5" x1="314.64" y1="13.22" x2="326.75" y2="1.11"/><line class="cls-5" x1="314.64" y1="6.04" x2="319.57" y2="1.11"/><line class="cls-5" x1="375.56" y1="13.36" x2="378.13" y2="10.79"/><line class="cls-5" x1="367.93" y1="13.81" x2="370.17" y2="11.56"/><line class="cls-5" x1="371.07" y1="10.67" x2="371.07" y2="10.67"/><line class="cls-5" x1="371.97" y1="9.77" x2="374.66" y2="7.08"/><line class="cls-5" x1="375.56" y1="6.18" x2="375.56" y2="6.18"/><line class="cls-5" x1="376.46" y1="5.28" x2="378.13" y2="3.61"/><line class="cls-5" x1="360.74" y1="13.81" x2="362.09" y2="12.46"/><line class="cls-5" x1="362.99" y1="11.56" x2="362.99" y2="11.56"/><line class="cls-5" x1="363.89" y1="10.67" x2="366.58" y2="7.97"/><line class="cls-5" x1="367.48" y1="7.08" x2="367.48" y2="7.08"/><line class="cls-5" x1="368.38" y1="6.18" x2="371.07" y2="3.48"/><line class="cls-5" x1="371.97" y1="2.59" x2="371.97" y2="2.59"/><line class="cls-5" x1="372.87" y1="1.69" x2="373.44" y2="1.11"/><line class="cls-5" x1="353.56" y1="13.81" x2="354.01" y2="13.36"/><line class="cls-5" x1="354.91" y1="12.46" x2="354.91" y2="12.46"/><line class="cls-5" x1="355.81" y1="11.56" x2="358.5" y2="8.87"/><line class="cls-5" x1="359.4" y1="7.97" x2="359.4" y2="7.97"/><line class="cls-5" x1="360.3" y1="7.08" x2="362.99" y2="4.38"/><line class="cls-5" x1="363.89" y1="3.48" x2="363.89" y2="3.48"/><line class="cls-5" x1="364.78" y1="2.59" x2="366.26" y2="1.11"/><line class="cls-5" x1="346.83" y1="13.36" x2="346.83" y2="13.36"/><line class="cls-5" x1="347.73" y1="12.46" x2="350.42" y2="9.77"/><line class="cls-5" x1="351.32" y1="8.87" x2="351.32" y2="8.87"/><line class="cls-5" x1="352.21" y1="7.97" x2="354.91" y2="5.28"/><line class="cls-5" x1="355.81" y1="4.38" x2="355.81" y2="4.38"/><line class="cls-5" x1="356.71" y1="3.48" x2="359.08" y2="1.11"/><line class="cls-5" x1="339.65" y1="13.36" x2="342.34" y2="10.67"/><line class="cls-5" x1="343.24" y1="9.77" x2="343.24" y2="9.77"/><line class="cls-5" x1="344.14" y1="8.87" x2="346.83" y2="6.18"/><line class="cls-5" x1="347.73" y1="5.28" x2="347.73" y2="5.28"/><line class="cls-5" x1="348.62" y1="4.38" x2="351.32" y2="1.69"/><line class="cls-5" x1="332.01" y1="13.81" x2="334.26" y2="11.56"/><line class="cls-5" x1="335.15" y1="10.67" x2="335.15" y2="10.67"/><line class="cls-5" x1="336.05" y1="9.77" x2="338.75" y2="7.08"/><line class="cls-5" x1="339.65" y1="6.18" x2="339.65" y2="6.18"/><line class="cls-5" x1="340.54" y1="5.28" x2="343.24" y2="2.59"/><line class="cls-5" x1="344.14" y1="1.69" x2="344.14" y2="1.69"/><line class="cls-5" x1="324.83" y1="13.81" x2="326.18" y2="12.46"/><line class="cls-5" x1="327.08" y1="11.56" x2="327.08" y2="11.56"/><line class="cls-5" x1="327.97" y1="10.67" x2="330.67" y2="7.97"/><line class="cls-5" x1="331.56" y1="7.08" x2="331.56" y2="7.08"/><line class="cls-5" x1="332.46" y1="6.18" x2="335.15" y2="3.48"/><line class="cls-5" x1="336.05" y1="2.59" x2="336.05" y2="2.59"/><line class="cls-5" x1="336.95" y1="1.69" x2="337.53" y2="1.11"/><line class="cls-5" x1="317.65" y1="13.81" x2="318.1" y2="13.36"/><line class="cls-5" x1="318.99" y1="12.46" x2="318.99" y2="12.46"/><line class="cls-5" x1="319.89" y1="11.56" x2="322.59" y2="8.87"/><line class="cls-5" x1="323.48" y1="7.97" x2="323.48" y2="7.97"/><line class="cls-5" x1="324.38" y1="7.08" x2="327.08" y2="4.38"/><line class="cls-5" x1="327.97" y1="3.48" x2="327.97" y2="3.48"/><line class="cls-5" x1="328.87" y1="2.59" x2="330.35" y2="1.11"/><line class="cls-5" x1="315.4" y1="8.87" x2="315.4" y2="8.87"/><line class="cls-5" x1="316.3" y1="7.97" x2="318.99" y2="5.28"/><line class="cls-5" x1="319.89" y1="4.38" x2="319.89" y2="4.38"/><line class="cls-5" x1="320.79" y1="3.48" x2="323.16" y2="1.11"/><line class="cls-5" x1="314.64" y1="2.45" x2="315.4" y2="1.69"/><line class="cls-5" x1="378.13" y1="13.81" x2="378.13" y2="1.11"/><line class="cls-5" x1="378.13" y1="1.11" x2="314.64" y2="1.11"/><line class="cls-5" x1="314.64" y1="1.11" x2="314.64" y2="13.81"/><line class="cls-5" x1="314.64" y1="13.81" x2="378.13" y2="13.81"/><path class="cls-5" d="M219.46,65.09a54.64,54.64,0,0,1,54.64,54.64h0" transform="translate(0.03 0.38)"/><line class="cls-5" x1="219.49" y1="120.11" x2="219.49" y2="65.47"/><path class="cls-5" d="M183.19,264.21a58.41,58.41,0,0,1-58.41-58.41h0" transform="translate(0.03 0.38)"/><line class="cls-5" x1="183.21" y1="206.18" x2="183.21" y2="264.59"/><path class="cls-5" d="M200,264.21a58.41,58.41,0,0,0,58.41-58.41h0" transform="translate(0.03 0.38)"/><line class="cls-5" x1="200.05" y1="206.18" x2="200.05" y2="264.59"/></svg>