<svg id="_318" data-name="318" xmlns="http://www.w3.org/2000/svg" viewBox="0 0 467.3 636.77"><defs><style>.cls-1,.cls-5,.cls-7,.cls-8{fill:none;stroke-linecap:round;stroke-linejoin:round;stroke-width:0.5px;}.cls-1{stroke:#999;}.cls-2{isolation:isolate;font-size:12px;fill:#999;}.cls-2,.cls-4,.cls-6{font-family:PTSans-Regular, PT Sans;}.cls-3{letter-spacing:-0.01em;}.cls-4{font-size:24px;}.cls-5,.cls-7,.cls-8{stroke:#000;}.cls-6{font-size:20px;}.cls-7{stroke-dasharray:2.95 2.95;}.cls-8{stroke-dasharray:3.02 3.02;}</style></defs><title>15floor_318flat</title><line class="cls-1" x1="215.37" y1="10.8" x2="215.37" y2="2"/><polyline class="cls-1" points="218.97 5.3 215.47 1.8 211.97 5.3"/><text class="cls-2" transform="translate(224.79 10.2)"><tspan class="cls-3">у</tspan><tspan x="5.42" y="0">лица</tspan></text><text class="cls-4" transform="translate(115.49 277.94)">1E</text><text class="cls-4" transform="translate(99.74 310.98)">37.96</text><text class="cls-4" transform="translate(96.57 245.4)">№318</text><polyline class="cls-5" points="87.93 319.34 87.93 222.14 169 222.14 169 319.34"/><line class="cls-5" x1="87.93" y1="254.6" x2="169" y2="254.6"/><line class="cls-5" x1="87.93" y1="319.34" x2="169" y2="319.34"/><line class="cls-5" x1="87.93" y1="287.06" x2="169" y2="287.06"/><text class="cls-6" transform="translate(331.95 229.65)">10.08</text><text class="cls-6" transform="translate(347.68 139.43)">1.29</text><text class="cls-6" transform="translate(101.59 158.48)">13.05</text><text class="cls-6" transform="translate(89.81 449.03)">3.09</text><text class="cls-6" transform="translate(211.49 521.66)">5.01</text><text class="cls-6" transform="translate(344.97 543.91)">3.28</text><text class="cls-6" transform="translate(86.25 578.96)">2.47</text><line class="cls-5" x1="0.25" y1="452.65" x2="0.25" y2="474.03"/><line class="cls-5" x1="444" y1="612.86" x2="444" y2="578.93"/><line class="cls-5" x1="440.2" y1="574.94" x2="357.19" y2="574.94"/><line class="cls-5" x1="440.2" y1="616.85" x2="357.19" y2="616.85"/><line class="cls-5" x1="333.78" y1="570.95" x2="447.81" y2="570.95"/><line class="cls-5" x1="333.78" y1="620.84" x2="447.81" y2="620.84"/><line class="cls-5" x1="333.78" y1="620.84" x2="333.78" y2="570.95"/><line class="cls-5" x1="447.81" y1="620.84" x2="447.81" y2="570.95"/><line class="cls-5" x1="370.54" y1="609.91" x2="435.49" y2="609.91"/><line class="cls-5" x1="437.39" y1="607.91" x2="437.39" y2="583.88"/><line class="cls-5" x1="370.54" y1="581.88" x2="435.49" y2="581.88"/><line class="cls-5" x1="424.05" y1="597.12" x2="424.05" y2="599.58"/><line class="cls-5" x1="425.22" y1="595.89" x2="427.56" y2="595.89"/><line class="cls-5" x1="424.05" y1="594.67" x2="424.05" y2="592.21"/><line class="cls-5" x1="422.88" y1="595.89" x2="420.54" y2="595.89"/><path class="cls-5" d="M357.19,645.2c-11,0-19.95-9.38-19.95-21s8.93-21,19.95-21" transform="translate(0 -28.35)"/><path class="cls-5" d="M440.2,603.29a3.9,3.9,0,0,1,3.8,4" transform="translate(0 -28.35)"/><path class="cls-5" d="M444,641.21a3.9,3.9,0,0,1-3.8,4" transform="translate(0 -28.35)"/><path class="cls-5" d="M426,624.25a2,2,0,1,0-2,2.08,2,2,0,0,0,2-2.08" transform="translate(0 -28.35)"/><path class="cls-5" d="M370.54,638.26c-7.37,0-13.35-6.27-13.35-14s6-14,13.35-14" transform="translate(0 -28.35)"/><path class="cls-5" d="M437.39,636.26a2,2,0,0,1-1.9,2" transform="translate(0 -28.35)"/><path class="cls-5" d="M435.49,610.23a2,2,0,0,1,1.9,2" transform="translate(0 -28.35)"/><path class="cls-5" d="M426.7,624.25a2.66,2.66,0,1,0-2.65,2.78,2.72,2.72,0,0,0,2.65-2.78" transform="translate(0 -28.35)"/><line class="cls-5" x1="14.5" y1="474.03" x2="14.5" y2="495.41"/><line class="cls-5" x1="14.5" y1="452.65" x2="14.5" y2="474.03"/><line class="cls-5" x1="57.26" y1="452.65" x2="14.5" y2="452.65"/><line class="cls-5" x1="57.26" y1="495.41" x2="57.26" y2="452.65"/><line class="cls-5" x1="14.5" y1="495.41" x2="57.26" y2="495.41"/><line class="cls-5" x1="17.35" y1="492.56" x2="54.41" y2="492.56"/><line class="cls-5" x1="54.41" y1="492.56" x2="54.41" y2="455.5"/><line class="cls-5" x1="54.41" y1="455.5" x2="17.35" y2="455.5"/><line class="cls-5" x1="17.35" y1="455.5" x2="17.35" y2="474.03"/><line class="cls-5" x1="17.35" y1="474.03" x2="17.35" y2="492.56"/><line class="cls-5" x1="415.02" y1="481.24" x2="415.02" y2="519.73"/><line class="cls-5" x1="415.02" y1="519.73" x2="398.74" y2="519.73"/><line class="cls-5" x1="415.02" y1="481.24" x2="398.74" y2="481.24"/><line class="cls-5" x1="415.02" y1="506.55" x2="415.02" y2="494.42"/><line class="cls-5" x1="401.96" y1="503.72" x2="401.96" y2="501.67"/><line class="cls-5" x1="405.2" y1="500.48" x2="403.15" y2="500.48"/><line class="cls-5" x1="401.96" y1="499.29" x2="401.96" y2="497.24"/><line class="cls-5" x1="400.77" y1="500.48" x2="398.72" y2="500.48"/><path class="cls-5" d="M397.73,512a17.18,17.18,0,0,1,8.11,6.65" transform="translate(0 -28.35)"/><path class="cls-5" d="M405.84,518.61a17.16,17.16,0,0,1,2.46,8.85c0,.46,0,.92-.05,1.38" transform="translate(0 -28.35)"/><path class="cls-5" d="M405.84,539.06a17.06,17.06,0,0,1-8.11,6.65" transform="translate(0 -28.35)"/><path class="cls-5" d="M408.25,528.84c0,.46.05.92.05,1.38a17.13,17.13,0,0,1-2.46,8.84" transform="translate(0 -28.35)"/><path class="cls-5" d="M385.85,527.49A31.7,31.7,0,0,1,389,515.81" transform="translate(0 -28.35)"/><path class="cls-5" d="M398.74,548.08h-.42a9.78,9.78,0,0,1-7.63-3.66" transform="translate(0 -28.35)"/><path class="cls-5" d="M385.85,530.18c0-.44-.05-.89-.05-1.34s0-.9.05-1.35" transform="translate(0 -28.35)"/><path class="cls-5" d="M405.22,518.07a70.23,70.23,0,0,1,0,21.53" transform="translate(0 -28.35)"/><path class="cls-5" d="M412,541.63a24.2,24.2,0,0,1-15.31,5.46h-.42" transform="translate(0 -28.35)"/><path class="cls-5" d="M414.24,528.84v.36a48.23,48.23,0,0,1-1.19,10.65" transform="translate(0 -28.35)"/><path class="cls-5" d="M413.05,539.85a3.22,3.22,0,0,1-1.1,1.78" transform="translate(0 -28.35)"/><path class="cls-5" d="M412.72,528.84a82.11,82.11,0,0,1-.78,10.85" transform="translate(0 -28.35)"/><path class="cls-5" d="M410.89,541.65a21.77,21.77,0,0,1-14.38,5.43h-.29" transform="translate(0 -28.35)"/><path class="cls-5" d="M411.94,539.69a3.2,3.2,0,0,1-1.05,2" transform="translate(0 -28.35)"/><path class="cls-5" d="M396.24,510.59h.26A21.69,21.69,0,0,1,410.9,516" transform="translate(0 -28.35)"/><path class="cls-5" d="M396.24,510.59h.39A24.2,24.2,0,0,1,412,516.07" transform="translate(0 -28.35)"/><path class="cls-5" d="M412,518a82.12,82.12,0,0,1,.76,10.86" transform="translate(0 -28.35)"/><path class="cls-5" d="M413.07,517.84a48.41,48.41,0,0,1,1.17,10.59v.43" transform="translate(0 -28.35)"/><path class="cls-5" d="M410.9,516a3.21,3.21,0,0,1,1.06,2" transform="translate(0 -28.35)"/><path class="cls-5" d="M412,516.07a3.25,3.25,0,0,1,1.1,1.77" transform="translate(0 -28.35)"/><path class="cls-5" d="M390.69,513.25a9.75,9.75,0,0,1,7.63-3.66h.42" transform="translate(0 -28.35)"/><path class="cls-5" d="M389,515.81a15.36,15.36,0,0,1,1.66-2.56" transform="translate(0 -28.35)"/><path class="cls-5" d="M390.69,544.43a15.36,15.36,0,0,1-1.66-2.56" transform="translate(0 -28.35)"/><path class="cls-5" d="M389,541.87a31.7,31.7,0,0,1-3.18-11.69" transform="translate(0 -28.35)"/><path class="cls-5" d="M388.57,534.13a22.52,22.52,0,0,1,0-10.58" transform="translate(0 -28.35)"/><path class="cls-5" d="M393,514a5.78,5.78,0,0,1,4.37-2h.39" transform="translate(0 -28.35)"/><path class="cls-5" d="M388.57,523.55A20.9,20.9,0,0,1,393,514" transform="translate(0 -28.35)"/><path class="cls-5" d="M397.73,545.71l-.39,0a5.78,5.78,0,0,1-4.37-2" transform="translate(0 -28.35)"/><path class="cls-5" d="M393,543.73a21,21,0,0,1-4.4-9.6" transform="translate(0 -28.35)"/><path class="cls-5" d="M404.45,528.83a2.5,2.5,0,1,0-2.49,2.49,2.48,2.48,0,0,0,2.49-2.49" transform="translate(0 -28.35)"/><path class="cls-5" d="M403.74,528.83a1.79,1.79,0,1,0-1.78,1.78,1.78,1.78,0,0,0,1.78-1.78" transform="translate(0 -28.35)"/><line class="cls-5" x1="374.4" y1="454.79" x2="374.4" y2="486.86"/><line class="cls-5" x1="374.4" y1="486.86" x2="331.64" y2="486.86"/><line class="cls-5" x1="331.64" y1="486.86" x2="331.64" y2="454.79"/><line class="cls-5" x1="331.64" y1="454.79" x2="374.4" y2="454.79"/><line class="cls-5" x1="77.33" y1="517.48" x2="102.1" y2="517.48"/><line class="cls-5" x1="66.53" y1="516.43" x2="66.53" y2="542.8"/><line class="cls-5" x1="66.53" y1="516.43" x2="75.82" y2="516.43"/><line class="cls-5" x1="81.67" y1="529.62" x2="81.67" y2="539.39"/><line class="cls-5" x1="102.07" y1="517.48" x2="81.67" y2="519.84"/><line class="cls-5" x1="81.67" y1="529.62" x2="81.67" y2="519.84"/><line class="cls-5" x1="102.07" y1="541.76" x2="81.67" y2="539.39"/><line class="cls-5" x1="102.07" y1="518.1" x2="81.67" y2="520.46"/><line class="cls-5" x1="102.07" y1="541.14" x2="81.67" y2="538.77"/><line class="cls-5" x1="77.31" y1="541.76" x2="102.1" y2="541.76"/><line class="cls-5" x1="66.53" y1="542.8" x2="75.82" y2="542.8"/><line class="cls-5" x1="102.07" y1="517.48" x2="104.82" y2="517.82"/><line class="cls-5" x1="104.82" y1="517.82" x2="107.41" y2="518.86"/><line class="cls-5" x1="107.41" y1="518.86" x2="109.69" y2="520.52"/><line class="cls-5" x1="109.69" y1="520.52" x2="111.53" y2="522.71"/><line class="cls-5" x1="111.53" y1="522.71" x2="112.82" y2="525.3"/><line class="cls-5" x1="112.82" y1="525.3" x2="113.48" y2="528.15"/><line class="cls-5" x1="113.48" y1="528.15" x2="113.48" y2="531.08"/><line class="cls-5" x1="113.48" y1="531.08" x2="112.82" y2="533.93"/><line class="cls-5" x1="112.82" y1="533.93" x2="111.53" y2="536.53"/><line class="cls-5" x1="111.53" y1="536.53" x2="109.69" y2="538.72"/><line class="cls-5" x1="109.69" y1="538.72" x2="107.41" y2="540.38"/><line class="cls-5" x1="107.41" y1="540.38" x2="104.82" y2="541.41"/><line class="cls-5" x1="104.82" y1="541.41" x2="102.07" y2="541.76"/><line class="cls-5" x1="102.07" y1="518.1" x2="104.67" y2="518.43"/><line class="cls-5" x1="104.67" y1="518.43" x2="107.12" y2="519.41"/><line class="cls-5" x1="107.12" y1="519.41" x2="109.27" y2="520.99"/><line class="cls-5" x1="109.27" y1="520.99" x2="111.01" y2="523.07"/><line class="cls-5" x1="111.01" y1="523.07" x2="112.22" y2="525.53"/><line class="cls-5" x1="112.22" y1="525.53" x2="112.85" y2="528.23"/><line class="cls-5" x1="112.85" y1="528.23" x2="112.85" y2="531.01"/><line class="cls-5" x1="112.85" y1="531.01" x2="112.22" y2="533.7"/><line class="cls-5" x1="112.22" y1="533.7" x2="111.01" y2="536.16"/><line class="cls-5" x1="111.01" y1="536.16" x2="109.27" y2="538.24"/><line class="cls-5" x1="109.27" y1="538.24" x2="107.12" y2="539.82"/><line class="cls-5" x1="107.12" y1="539.82" x2="104.67" y2="540.8"/><line class="cls-5" x1="104.67" y1="540.8" x2="102.07" y2="541.14"/><path class="cls-5" d="M77.38,546.15A111.16,111.16,0,0,1,78,558a108.22,108.22,0,0,1-.64,11.8" transform="translate(0 -28.35)"/><path class="cls-5" d="M75.83,544.78a1.55,1.55,0,0,1,1.55,1.37" transform="translate(0 -28.35)"/><path class="cls-5" d="M77.38,569.77a1.54,1.54,0,0,1-1.55,1.38h0" transform="translate(0 -28.35)"/><path class="cls-5" d="M72.39,559.25A1.28,1.28,0,1,0,71.08,558a1.3,1.3,0,0,0,1.31,1.28" transform="translate(0 -28.35)"/><line class="cls-5" x1="103.07" y1="620.57" x2="131.58" y2="620.57"/><line class="cls-5" x1="131.58" y1="620.57" x2="131.58" y2="608.65"/><line class="cls-5" x1="103.07" y1="620.57" x2="103.07" y2="608.65"/><line class="cls-5" x1="121.82" y1="620.57" x2="112.84" y2="620.57"/><line class="cls-5" x1="119.73" y1="611.01" x2="118.2" y2="611.01"/><line class="cls-5" x1="117.32" y1="613.38" x2="117.32" y2="611.88"/><line class="cls-5" x1="116.44" y1="611.01" x2="114.92" y2="611.01"/><line class="cls-5" x1="117.32" y1="610.14" x2="117.32" y2="608.64"/><path class="cls-5" d="M109.76,642.21a12.6,12.6,0,0,1-4.93-5.94" transform="translate(0 -28.35)"/><path class="cls-5" d="M117.33,644c-.34,0-.68,0-1,0a12.85,12.85,0,0,1-6.55-1.8" transform="translate(0 -28.35)"/><path class="cls-5" d="M129.83,636.27a12.66,12.66,0,0,1-4.93,5.94" transform="translate(0 -28.35)"/><path class="cls-5" d="M124.9,642.21a12.78,12.78,0,0,1-6.55,1.8c-.34,0-.68,0-1,0" transform="translate(0 -28.35)"/><path class="cls-5" d="M107.68,629.9a23.62,23.62,0,0,1,8.65-2.33" transform="translate(0 -28.35)"/><path class="cls-5" d="M128.88,631.11a7.15,7.15,0,0,1,2.71,5.59c0,.1,0,.2,0,.31" transform="translate(0 -28.35)"/><path class="cls-5" d="M116.33,627.57l1,0,1,0" transform="translate(0 -28.35)"/><path class="cls-5" d="M125.3,641.75a52.44,52.44,0,0,1-16,0" transform="translate(0 -28.35)"/><path class="cls-5" d="M130.84,635.16c0,.1,0,.21,0,.31a17.55,17.55,0,0,1-4,11.2" transform="translate(0 -28.35)"/><path class="cls-5" d="M125.49,647.48a36.13,36.13,0,0,1-7.89.87h-.27" transform="translate(0 -28.35)"/><path class="cls-5" d="M126.8,646.67a2.41,2.41,0,0,1-1.32.81" transform="translate(0 -28.35)"/><path class="cls-5" d="M125.36,646.67a61.57,61.57,0,0,1-8,.57" transform="translate(0 -28.35)"/><path class="cls-5" d="M130.85,635.16v.21a15.75,15.75,0,0,1-4,10.52" transform="translate(0 -28.35)"/><path class="cls-5" d="M126.82,645.89a2.39,2.39,0,0,1-1.45.78" transform="translate(0 -28.35)"/><path class="cls-5" d="M107.85,645.91a15.78,15.78,0,0,1-4-10.54v-.19" transform="translate(0 -28.35)"/><path class="cls-5" d="M107.87,646.69a17.58,17.58,0,0,1-4.06-11.23v-.28" transform="translate(0 -28.35)"/><path class="cls-5" d="M117.34,647.24a61.83,61.83,0,0,1-8-.56" transform="translate(0 -28.35)"/><path class="cls-5" d="M117.34,648.35H117a36.22,36.22,0,0,1-7.84-.86" transform="translate(0 -28.35)"/><path class="cls-5" d="M109.3,646.68a2.38,2.38,0,0,1-1.45-.77" transform="translate(0 -28.35)"/><path class="cls-5" d="M109.18,647.49a2.37,2.37,0,0,1-1.31-.8" transform="translate(0 -28.35)"/><path class="cls-5" d="M103.07,637v-.31a7.12,7.12,0,0,1,2.71-5.58" transform="translate(0 -28.35)"/><path class="cls-5" d="M105.78,631.11a11.76,11.76,0,0,1,1.9-1.21" transform="translate(0 -28.35)"/><path class="cls-5" d="M127,629.9a11.49,11.49,0,0,1,1.89,1.22" transform="translate(0 -28.35)"/><path class="cls-5" d="M118.33,627.57A23.62,23.62,0,0,1,127,629.9" transform="translate(0 -28.35)"/><path class="cls-5" d="M113.41,629.57a16.93,16.93,0,0,1,7.84,0" transform="translate(0 -28.35)"/><path class="cls-5" d="M104.83,636.27a2.71,2.71,0,0,1,0-.29,4.2,4.2,0,0,1,1.48-3.19" transform="translate(0 -28.35)"/><path class="cls-5" d="M106.3,632.79a15.48,15.48,0,0,1,7.11-3.22" transform="translate(0 -28.35)"/><path class="cls-5" d="M128.36,632.79a4.2,4.2,0,0,1,1.48,3.19,2.71,2.71,0,0,1,0,.29" transform="translate(0 -28.35)"/><path class="cls-5" d="M121.25,629.57a15.48,15.48,0,0,1,7.11,3.22" transform="translate(0 -28.35)"/><path class="cls-5" d="M117.32,637.54a1.83,1.83,0,1,0,1.85,1.82,1.82,1.82,0,0,0-1.85-1.82" transform="translate(0 -28.35)"/><path class="cls-5" d="M117.32,638.06a1.31,1.31,0,1,0,1.32,1.3,1.31,1.31,0,0,0-1.32-1.3" transform="translate(0 -28.35)"/><line class="cls-5" x1="144.92" y1="94.18" x2="90.05" y2="94.18"/><line class="cls-5" x1="24.48" y1="94.18" x2="0.25" y2="94.18"/><line class="cls-5" x1="258.24" y1="94.18" x2="210.49" y2="94.18"/><line class="cls-5" x1="258.24" y1="94.18" x2="258.24" y2="94.18"/><line class="cls-5" x1="263.83" y1="94.18" x2="258.24" y2="94.18"/><line class="cls-5" x1="142.07" y1="94.89" x2="92.9" y2="94.89"/><line class="cls-5" x1="21.63" y1="94.89" x2="14.5" y2="94.89"/><line class="cls-5" x1="243.98" y1="94.89" x2="213.34" y2="94.89"/><line class="cls-5" x1="213.34" y1="99.17" x2="213.34" y2="123.4"/><line class="cls-5" x1="210.49" y1="94.18" x2="210.49" y2="94.89"/><line class="cls-5" x1="210.49" y1="85.62" x2="210.49" y2="94.18"/><line class="cls-5" x1="210.49" y1="94.89" x2="213.34" y2="94.89"/><line class="cls-5" x1="213.34" y1="94.89" x2="213.34" y2="99.17"/><line class="cls-5" x1="142.07" y1="99.17" x2="142.07" y2="123.4"/><line class="cls-5" x1="144.92" y1="94.18" x2="144.92" y2="94.89"/><line class="cls-5" x1="144.92" y1="85.62" x2="144.92" y2="94.18"/><line class="cls-5" x1="144.92" y1="94.89" x2="142.07" y2="94.89"/><line class="cls-5" x1="142.07" y1="94.89" x2="142.07" y2="99.17"/><line class="cls-5" x1="21.63" y1="99.17" x2="21.63" y2="123.4"/><line class="cls-5" x1="24.48" y1="94.18" x2="24.48" y2="94.89"/><line class="cls-5" x1="24.48" y1="85.62" x2="24.48" y2="94.18"/><line class="cls-5" x1="24.48" y1="94.89" x2="21.63" y2="94.89"/><line class="cls-5" x1="21.63" y1="94.89" x2="21.63" y2="99.17"/><line class="cls-5" x1="92.9" y1="99.17" x2="92.9" y2="123.4"/><line class="cls-5" x1="90.05" y1="94.18" x2="90.05" y2="94.89"/><line class="cls-5" x1="90.05" y1="85.62" x2="90.05" y2="94.18"/><line class="cls-5" x1="90.05" y1="94.89" x2="92.9" y2="94.89"/><line class="cls-5" x1="92.9" y1="94.89" x2="92.9" y2="99.17"/><line class="cls-5" x1="269.64" y1="85.62" x2="210.49" y2="85.62"/><line class="cls-5" x1="144.92" y1="85.62" x2="90.05" y2="85.62"/><line class="cls-5" x1="24.48" y1="85.62" x2="0.25" y2="85.62"/><line class="cls-5" x1="14.5" y1="123.4" x2="21.63" y2="123.4"/><line class="cls-5" x1="92.9" y1="123.4" x2="142.07" y2="123.4"/><line class="cls-5" x1="213.34" y1="123.4" x2="243.98" y2="123.4"/><line class="cls-5" x1="144.92" y1="85.62" x2="210.49" y2="85.62"/><line class="cls-5" x1="142.07" y1="123.4" x2="213.34" y2="123.4"/><line class="cls-5" x1="142.07" y1="99.17" x2="145.99" y2="99.17"/><line class="cls-5" x1="145.99" y1="99.17" x2="145.99" y2="96.31"/><line class="cls-5" x1="145.99" y1="96.31" x2="147.77" y2="96.31"/><line class="cls-5" x1="147.77" y1="96.31" x2="147.77" y2="94.89"/><line class="cls-5" x1="147.77" y1="94.89" x2="142.07" y2="94.89"/><line class="cls-5" x1="213.34" y1="94.89" x2="207.64" y2="94.89"/><line class="cls-5" x1="207.64" y1="94.89" x2="207.64" y2="96.31"/><line class="cls-5" x1="207.64" y1="96.31" x2="209.42" y2="96.31"/><line class="cls-5" x1="209.42" y1="96.31" x2="209.42" y2="99.17"/><line class="cls-5" x1="209.42" y1="99.17" x2="213.34" y2="99.17"/><line class="cls-5" x1="207.64" y1="94.89" x2="147.77" y2="94.89"/><line class="cls-5" x1="150.27" y1="100.59" x2="205.14" y2="100.59"/><line class="cls-5" x1="145.99" y1="100.59" x2="150.27" y2="100.59"/><line class="cls-5" x1="150.27" y1="100.59" x2="150.27" y2="96.31"/><line class="cls-5" x1="150.27" y1="96.31" x2="145.99" y2="96.31"/><line class="cls-5" x1="145.99" y1="96.31" x2="145.99" y2="100.59"/><line class="cls-5" x1="209.42" y1="96.31" x2="205.14" y2="96.31"/><line class="cls-5" x1="205.14" y1="96.31" x2="205.14" y2="100.59"/><line class="cls-5" x1="205.14" y1="100.59" x2="209.42" y2="100.59"/><line class="cls-5" x1="209.42" y1="100.59" x2="209.42" y2="96.31"/><line class="cls-5" x1="205.14" y1="96.31" x2="150.27" y2="96.31"/><line class="cls-5" x1="150.27" y1="100.59" x2="205.14" y2="100.59"/><line class="cls-5" x1="150.27" y1="98.45" x2="205.14" y2="98.45"/><line class="cls-5" x1="142.07" y1="94.89" x2="142.07" y2="99.17"/><line class="cls-5" x1="142.07" y1="94.89" x2="142.07" y2="99.17"/><line class="cls-5" x1="144.92" y1="94.89" x2="142.07" y2="94.89"/><line class="cls-5" x1="144.92" y1="94.89" x2="142.07" y2="94.89"/><line class="cls-5" x1="144.92" y1="85.62" x2="144.92" y2="94.18"/><line class="cls-5" x1="144.92" y1="94.18" x2="144.92" y2="94.89"/><line class="cls-5" x1="142.07" y1="99.17" x2="142.07" y2="123.4"/><line class="cls-5" x1="213.34" y1="94.89" x2="213.34" y2="99.17"/><line class="cls-5" x1="213.34" y1="94.89" x2="213.34" y2="99.17"/><line class="cls-5" x1="210.49" y1="94.89" x2="213.34" y2="94.89"/><line class="cls-5" x1="210.49" y1="94.89" x2="213.34" y2="94.89"/><line class="cls-5" x1="210.49" y1="85.62" x2="210.49" y2="94.18"/><line class="cls-5" x1="210.49" y1="94.18" x2="210.49" y2="94.89"/><line class="cls-5" x1="213.34" y1="99.17" x2="213.34" y2="123.4"/><line class="cls-5" x1="90.05" y1="85.62" x2="24.48" y2="85.62"/><line class="cls-5" x1="92.9" y1="123.4" x2="21.63" y2="123.4"/><line class="cls-5" x1="92.9" y1="99.17" x2="88.98" y2="99.17"/><line class="cls-5" x1="88.98" y1="99.17" x2="88.98" y2="96.31"/><line class="cls-5" x1="88.98" y1="96.31" x2="87.2" y2="96.31"/><line class="cls-5" x1="87.2" y1="96.31" x2="87.2" y2="94.89"/><line class="cls-5" x1="87.2" y1="94.89" x2="92.9" y2="94.89"/><line class="cls-5" x1="21.63" y1="94.89" x2="27.33" y2="94.89"/><line class="cls-5" x1="27.33" y1="94.89" x2="27.33" y2="96.31"/><line class="cls-5" x1="27.33" y1="96.31" x2="25.55" y2="96.31"/><line class="cls-5" x1="25.55" y1="96.31" x2="25.55" y2="99.17"/><line class="cls-5" x1="25.55" y1="99.17" x2="21.63" y2="99.17"/><line class="cls-5" x1="27.33" y1="94.89" x2="87.2" y2="94.89"/><line class="cls-5" x1="84.7" y1="100.59" x2="29.83" y2="100.59"/><line class="cls-5" x1="88.98" y1="100.59" x2="84.7" y2="100.59"/><line class="cls-5" x1="84.7" y1="100.59" x2="84.7" y2="96.31"/><line class="cls-5" x1="84.7" y1="96.31" x2="88.98" y2="96.31"/><line class="cls-5" x1="88.98" y1="96.31" x2="88.98" y2="100.59"/><line class="cls-5" x1="25.55" y1="96.31" x2="29.83" y2="96.31"/><line class="cls-5" x1="29.83" y1="96.31" x2="29.83" y2="100.59"/><line class="cls-5" x1="29.83" y1="100.59" x2="25.55" y2="100.59"/><line class="cls-5" x1="25.55" y1="100.59" x2="25.55" y2="96.31"/><line class="cls-5" x1="29.83" y1="96.31" x2="84.7" y2="96.31"/><line class="cls-5" x1="84.7" y1="100.59" x2="29.83" y2="100.59"/><line class="cls-5" x1="84.7" y1="98.45" x2="29.83" y2="98.45"/><line class="cls-5" x1="92.9" y1="94.89" x2="92.9" y2="99.17"/><line class="cls-5" x1="92.9" y1="94.89" x2="92.9" y2="99.17"/><line class="cls-5" x1="90.05" y1="94.89" x2="92.9" y2="94.89"/><line class="cls-5" x1="90.05" y1="94.89" x2="92.9" y2="94.89"/><line class="cls-5" x1="90.05" y1="85.62" x2="90.05" y2="94.18"/><line class="cls-5" x1="90.05" y1="94.18" x2="90.05" y2="94.89"/><line class="cls-5" x1="92.9" y1="99.17" x2="92.9" y2="123.4"/><line class="cls-5" x1="21.63" y1="94.89" x2="21.63" y2="99.17"/><line class="cls-5" x1="21.63" y1="94.89" x2="21.63" y2="99.17"/><line class="cls-5" x1="24.48" y1="94.89" x2="21.63" y2="94.89"/><line class="cls-5" x1="24.48" y1="94.89" x2="21.63" y2="94.89"/><line class="cls-5" x1="24.48" y1="85.62" x2="24.48" y2="94.18"/><line class="cls-5" x1="24.48" y1="94.18" x2="24.48" y2="94.89"/><line class="cls-5" x1="21.63" y1="99.17" x2="21.63" y2="123.4"/><line class="cls-5" x1="331.64" y1="622.26" x2="331.64" y2="569.96"/><line class="cls-5" x1="331.64" y1="513.94" x2="331.64" y2="454.79"/><line class="cls-5" x1="325.94" y1="454.79" x2="325.94" y2="513.94"/><line class="cls-5" x1="325.94" y1="569.96" x2="325.94" y2="622.26"/><line class="cls-5" x1="325.94" y1="622.26" x2="331.64" y2="622.26"/><line class="cls-5" x1="325.94" y1="513.94" x2="331.64" y2="513.94"/><line class="cls-5" x1="325.94" y1="569.96" x2="331.64" y2="569.96"/><line class="cls-5" x1="420.4" y1="533.9" x2="420.72" y2="533.58"/><line class="cls-5" x1="415.02" y1="506.02" x2="415.65" y2="505.39"/><line class="cls-5" x1="417.87" y1="505.39" x2="420.72" y2="505.39"/><line class="cls-5" x1="415.02" y1="505.39" x2="417.87" y2="505.39"/><line class="cls-5" x1="417.87" y1="533.9" x2="420.72" y2="533.9"/><line class="cls-5" x1="415.02" y1="533.9" x2="417.87" y2="533.9"/><line class="cls-5" x1="420.72" y1="537.46" x2="420.72" y2="533.9"/><line class="cls-5" x1="420.72" y1="505.39" x2="420.72" y2="501.82"/><line class="cls-5" x1="420.72" y1="496.12" x2="420.72" y2="454.79"/><line class="cls-5" x1="415.02" y1="454.79" x2="415.02" y2="505.39"/><line class="cls-5" x1="415.02" y1="533.9" x2="415.02" y2="543.16"/><line class="cls-5" x1="415.02" y1="533.9" x2="415.02" y2="505.39"/><line class="cls-5" x1="420.72" y1="533.9" x2="420.72" y2="505.39"/><path class="cls-5" d="M415,562.25a28.49,28.49,0,0,1-9.75-1.72" transform="translate(0 -28.35)"/><line class="cls-5" x1="415.02" y1="505.39" x2="405.27" y2="532.18"/><line class="cls-5" x1="415.02" y1="533.9" x2="417.87" y2="533.9"/><line class="cls-5" x1="415.02" y1="533.9" x2="417.87" y2="533.9"/><line class="cls-5" x1="417.87" y1="533.9" x2="420.72" y2="533.9"/><line class="cls-5" x1="415.02" y1="505.39" x2="417.87" y2="505.39"/><line class="cls-5" x1="415.02" y1="505.39" x2="417.87" y2="505.39"/><line class="cls-5" x1="417.87" y1="505.39" x2="420.72" y2="505.39"/><line class="cls-5" x1="449.23" y1="496.12" x2="420.72" y2="496.12"/><line class="cls-5" x1="420.72" y1="501.82" x2="449.23" y2="501.82"/><line class="cls-5" x1="449.23" y1="501.82" x2="449.23" y2="496.12"/><line class="cls-5" x1="168.44" y1="496.12" x2="14.5" y2="496.12"/><line class="cls-5" x1="14.5" y1="496.12" x2="14.5" y2="501.82"/><line class="cls-5" x1="14.5" y1="501.82" x2="58.69" y2="501.82"/><line class="cls-5" x1="64.39" y1="501.82" x2="168.44" y2="501.82"/><line class="cls-5" x1="415.02" y1="543.16" x2="449.23" y2="543.16"/><line class="cls-5" x1="449.23" y1="543.16" x2="449.23" y2="537.46"/><line class="cls-5" x1="449.23" y1="537.46" x2="420.72" y2="537.46"/><line class="cls-5" x1="449.23" y1="449.08" x2="325.94" y2="449.08"/><line class="cls-5" x1="174.14" y1="449.08" x2="168.44" y2="449.08"/><line class="cls-5" x1="331.64" y1="454.79" x2="415.02" y2="454.79"/><line class="cls-5" x1="420.72" y1="454.79" x2="449.23" y2="454.79"/><line class="cls-5" x1="174.14" y1="449.08" x2="174.14" y2="454.79"/><line class="cls-5" x1="243.98" y1="449.08" x2="243.98" y2="454.79"/><line class="cls-5" x1="237.38" y1="449.08" x2="243.98" y2="449.08"/><line class="cls-5" x1="237.38" y1="454.79" x2="243.98" y2="454.79"/><line class="cls-5" x1="325.94" y1="449.08" x2="325.94" y2="454.79"/><line class="cls-5" x1="258.24" y1="449.08" x2="258.24" y2="454.79"/><line class="cls-5" x1="262.77" y1="449.08" x2="258.24" y2="449.08"/><line class="cls-5" x1="262.77" y1="454.79" x2="258.24" y2="454.79"/><line class="cls-5" x1="168.44" y1="449.08" x2="168.44" y2="496.12"/><line class="cls-5" x1="168.44" y1="501.82" x2="168.44" y2="516.09"/><line class="cls-5" x1="168.44" y1="570.95" x2="168.44" y2="622.26"/><line class="cls-5" x1="168.44" y1="622.26" x2="174.14" y2="622.26"/><line class="cls-5" x1="174.14" y1="622.26" x2="174.14" y2="570.95"/><line class="cls-5" x1="174.14" y1="516.09" x2="174.14" y2="454.79"/><line class="cls-5" x1="168.44" y1="516.09" x2="174.14" y2="516.09"/><line class="cls-5" x1="168.44" y1="570.95" x2="174.14" y2="570.95"/><line class="cls-5" x1="249.68" y1="383.52" x2="249.68" y2="189.67"/><line class="cls-5" x1="249.68" y1="189.67" x2="243.98" y2="189.67"/><line class="cls-5" x1="243.98" y1="189.67" x2="243.98" y2="383.52"/><line class="cls-5" x1="463.48" y1="476.17" x2="463.48" y2="481.87"/><line class="cls-5" x1="463.48" y1="517.5" x2="463.48" y2="523.2"/><line class="cls-5" x1="63.63" y1="533.89" x2="64.39" y2="533.13"/><line class="cls-5" x1="58.69" y1="506.58" x2="59.88" y2="505.38"/><line class="cls-5" x1="58.69" y1="505.57" x2="58.87" y2="505.38"/><line class="cls-5" x1="61.54" y1="505.38" x2="58.69" y2="505.38"/><line class="cls-5" x1="64.39" y1="505.38" x2="61.54" y2="505.38"/><line class="cls-5" x1="61.54" y1="533.89" x2="58.69" y2="533.89"/><line class="cls-5" x1="64.39" y1="533.89" x2="61.54" y2="533.89"/><line class="cls-5" x1="58.69" y1="501.82" x2="58.69" y2="505.38"/><line class="cls-5" x1="58.69" y1="533.89" x2="58.69" y2="542.44"/><line class="cls-5" x1="64.39" y1="548.15" x2="64.39" y2="533.89"/><line class="cls-5" x1="64.39" y1="505.38" x2="64.39" y2="501.82"/><line class="cls-5" x1="64.39" y1="533.89" x2="64.39" y2="505.38"/><line class="cls-5" x1="58.69" y1="533.89" x2="58.69" y2="505.38"/><path class="cls-5" d="M74.14,560.52a28.49,28.49,0,0,1-9.75,1.72" transform="translate(0 -28.35)"/><line class="cls-5" x1="64.39" y1="505.38" x2="74.14" y2="532.17"/><line class="cls-5" x1="64.39" y1="533.89" x2="61.54" y2="533.89"/><line class="cls-5" x1="64.39" y1="533.89" x2="61.54" y2="533.89"/><line class="cls-5" x1="61.54" y1="533.89" x2="58.69" y2="533.89"/><line class="cls-5" x1="64.39" y1="505.38" x2="61.54" y2="505.38"/><line class="cls-5" x1="64.39" y1="505.38" x2="61.54" y2="505.38"/><line class="cls-5" x1="61.54" y1="505.38" x2="58.69" y2="505.38"/><line class="cls-5" x1="14.5" y1="548.15" x2="58.69" y2="548.15"/><line class="cls-5" x1="58.69" y1="542.44" x2="14.5" y2="542.44"/><line class="cls-5" x1="14.5" y1="542.44" x2="14.5" y2="548.15"/><line class="cls-5" x1="58.69" y1="548.15" x2="58.69" y2="622.26"/><line class="cls-5" x1="58.69" y1="622.26" x2="64.39" y2="622.26"/><line class="cls-5" x1="64.39" y1="622.26" x2="64.39" y2="548.15"/><line class="cls-5" x1="0.25" y1="548.15" x2="0.25" y2="542.44"/><line class="cls-5" x1="451.37" y1="85.62" x2="451.37" y2="94.18"/><line class="cls-5" x1="274.63" y1="85.62" x2="274.63" y2="94.18"/><line class="cls-5" x1="269.64" y1="94.18" x2="271.78" y2="94.18"/><line class="cls-5" x1="454.22" y1="94.18" x2="466.69" y2="94.18"/><line class="cls-5" x1="466.69" y1="85.62" x2="451.37" y2="85.62"/><line class="cls-5" x1="274.63" y1="85.62" x2="269.64" y2="85.62"/><line class="cls-5" x1="269.64" y1="85.62" x2="269.64" y2="94.18"/><line class="cls-5" x1="274.63" y1="85.62" x2="451.37" y2="85.62"/><line class="cls-5" x1="271.78" y1="99.17" x2="275.7" y2="99.17"/><line class="cls-5" x1="275.7" y1="99.17" x2="275.7" y2="96.31"/><line class="cls-5" x1="275.7" y1="96.31" x2="277.48" y2="96.31"/><line class="cls-5" x1="277.48" y1="96.31" x2="277.48" y2="94.89"/><line class="cls-5" x1="277.48" y1="94.89" x2="271.78" y2="94.89"/><line class="cls-5" x1="333.78" y1="94.89" x2="330.93" y2="94.89"/><line class="cls-5" x1="330.93" y1="94.89" x2="330.93" y2="96.31"/><line class="cls-5" x1="330.93" y1="96.31" x2="332.71" y2="96.31"/><line class="cls-5" x1="332.71" y1="96.31" x2="332.71" y2="99.17"/><line class="cls-5" x1="332.71" y1="99.17" x2="333.78" y2="99.17"/><line class="cls-5" x1="330.93" y1="94.89" x2="277.48" y2="94.89"/><line class="cls-5" x1="279.97" y1="100.59" x2="328.43" y2="100.59"/><line class="cls-5" x1="275.7" y1="100.59" x2="279.97" y2="100.59"/><line class="cls-5" x1="279.97" y1="100.59" x2="279.97" y2="96.31"/><line class="cls-5" x1="279.97" y1="96.31" x2="275.7" y2="96.31"/><line class="cls-5" x1="275.7" y1="96.31" x2="275.7" y2="100.59"/><line class="cls-5" x1="332.71" y1="96.31" x2="328.43" y2="96.31"/><line class="cls-5" x1="328.43" y1="96.31" x2="328.43" y2="100.59"/><line class="cls-5" x1="328.43" y1="100.59" x2="332.71" y2="100.59"/><line class="cls-5" x1="332.71" y1="100.59" x2="332.71" y2="96.31"/><line class="cls-5" x1="328.43" y1="96.31" x2="279.97" y2="96.31"/><line class="cls-5" x1="279.97" y1="100.59" x2="328.43" y2="100.59"/><line class="cls-5" x1="279.97" y1="98.45" x2="328.43" y2="98.45"/><line class="cls-5" x1="333.78" y1="99.17" x2="334.85" y2="99.17"/><line class="cls-5" x1="334.85" y1="99.17" x2="334.85" y2="96.31"/><line class="cls-5" x1="334.85" y1="96.31" x2="336.63" y2="96.31"/><line class="cls-5" x1="336.63" y1="96.31" x2="336.63" y2="94.89"/><line class="cls-5" x1="336.63" y1="94.89" x2="333.78" y2="94.89"/><line class="cls-5" x1="392.22" y1="94.89" x2="389.37" y2="94.89"/><line class="cls-5" x1="389.37" y1="94.89" x2="389.37" y2="96.31"/><line class="cls-5" x1="389.37" y1="96.31" x2="391.15" y2="96.31"/><line class="cls-5" x1="391.15" y1="96.31" x2="391.15" y2="99.17"/><line class="cls-5" x1="391.15" y1="99.17" x2="392.22" y2="99.17"/><line class="cls-5" x1="389.37" y1="94.89" x2="336.63" y2="94.89"/><line class="cls-5" x1="339.12" y1="100.59" x2="386.87" y2="100.59"/><line class="cls-5" x1="334.85" y1="100.59" x2="339.12" y2="100.59"/><line class="cls-5" x1="339.12" y1="100.59" x2="339.12" y2="96.31"/><line class="cls-5" x1="339.12" y1="96.31" x2="334.85" y2="96.31"/><line class="cls-5" x1="334.85" y1="96.31" x2="334.85" y2="100.59"/><line class="cls-5" x1="391.15" y1="96.31" x2="386.87" y2="96.31"/><line class="cls-5" x1="386.87" y1="96.31" x2="386.87" y2="100.59"/><line class="cls-5" x1="386.87" y1="100.59" x2="391.15" y2="100.59"/><line class="cls-5" x1="391.15" y1="100.59" x2="391.15" y2="96.31"/><line class="cls-5" x1="386.87" y1="96.31" x2="339.12" y2="96.31"/><line class="cls-5" x1="339.12" y1="100.59" x2="386.87" y2="100.59"/><line class="cls-5" x1="339.12" y1="98.45" x2="386.87" y2="98.45"/><line class="cls-5" x1="392.22" y1="99.17" x2="393.29" y2="99.17"/><line class="cls-5" x1="393.29" y1="99.17" x2="393.29" y2="96.31"/><line class="cls-5" x1="393.29" y1="96.31" x2="395.07" y2="96.31"/><line class="cls-5" x1="395.07" y1="96.31" x2="395.07" y2="94.89"/><line class="cls-5" x1="395.07" y1="94.89" x2="392.22" y2="94.89"/><line class="cls-5" x1="454.22" y1="94.89" x2="448.52" y2="94.89"/><line class="cls-5" x1="448.52" y1="94.89" x2="448.52" y2="96.31"/><line class="cls-5" x1="448.52" y1="96.31" x2="450.3" y2="96.31"/><line class="cls-5" x1="450.3" y1="96.31" x2="450.3" y2="99.17"/><line class="cls-5" x1="450.3" y1="99.17" x2="454.22" y2="99.17"/><line class="cls-5" x1="448.52" y1="94.89" x2="395.07" y2="94.89"/><line class="cls-5" x1="397.56" y1="100.59" x2="446.02" y2="100.59"/><line class="cls-5" x1="393.29" y1="100.59" x2="397.56" y2="100.59"/><line class="cls-5" x1="397.56" y1="100.59" x2="397.56" y2="96.31"/><line class="cls-5" x1="397.56" y1="96.31" x2="393.29" y2="96.31"/><line class="cls-5" x1="393.29" y1="96.31" x2="393.29" y2="100.59"/><line class="cls-5" x1="450.3" y1="96.31" x2="446.02" y2="96.31"/><line class="cls-5" x1="446.02" y1="96.31" x2="446.02" y2="100.59"/><line class="cls-5" x1="446.02" y1="100.59" x2="450.3" y2="100.59"/><line class="cls-5" x1="450.3" y1="100.59" x2="450.3" y2="96.31"/><line class="cls-5" x1="446.02" y1="96.31" x2="397.56" y2="96.31"/><line class="cls-5" x1="397.56" y1="100.59" x2="446.02" y2="100.59"/><line class="cls-5" x1="397.56" y1="98.45" x2="446.02" y2="98.45"/><line class="cls-5" x1="274.63" y1="85.62" x2="274.63" y2="94.18"/><line class="cls-5" x1="451.37" y1="85.62" x2="451.37" y2="94.18"/><line class="cls-5" x1="466.34" y1="189.67" x2="466.34" y2="94.18"/><line class="cls-5" x1="466.34" y1="94.18" x2="457.78" y2="94.18"/><line class="cls-5" x1="457.78" y1="94.18" x2="457.78" y2="174.71"/><line class="cls-5" x1="457.78" y1="174.71" x2="466.34" y2="174.71"/><line class="cls-5" x1="451.8" y1="164.68" x2="451.8" y2="164.68"/><line class="cls-5" x1="445.59" y1="164.02" x2="445.59" y2="164.02"/><line class="cls-5" x1="421.94" y1="164.67" x2="421.94" y2="164.67"/><line class="cls-5" x1="409.77" y1="164.06" x2="409.77" y2="164.06"/><line class="cls-5" x1="386.11" y1="164.7" x2="386.11" y2="164.7"/><line class="cls-5" x1="379.9" y1="164.04" x2="379.9" y2="164.04"/><line class="cls-5" x1="369.85" y1="171.48" x2="369.85" y2="171.48"/><line class="cls-5" x1="269.46" y1="172.39" x2="269.46" y2="172.39"/><line class="cls-5" x1="456.36" y1="164.73" x2="370.13" y2="164.73"/><line class="cls-5" x1="466.34" y1="175.42" x2="372.98" y2="175.42"/><line class="cls-5" x1="266.08" y1="175.42" x2="258.24" y2="175.42"/><line class="cls-5" x1="268.93" y1="175.42" x2="268.93" y2="164.73"/><line class="cls-5" x1="269.64" y1="164.02" x2="269.64" y2="175.42"/><line class="cls-5" x1="268.93" y1="164.02" x2="269.64" y2="164.02"/><line class="cls-5" x1="370.13" y1="175.42" x2="370.13" y2="164.73"/><line class="cls-5" x1="369.41" y1="164.02" x2="369.41" y2="175.42"/><line class="cls-5" x1="370.13" y1="164.02" x2="369.41" y2="164.02"/><line class="cls-5" x1="266.08" y1="175.42" x2="269.64" y2="175.42"/><line class="cls-5" x1="266.08" y1="189.67" x2="266.08" y2="175.42"/><line class="cls-5" x1="372.98" y1="175.42" x2="369.41" y2="175.42"/><line class="cls-5" x1="372.98" y1="189.67" x2="372.98" y2="175.42"/><line class="cls-5" x1="243.98" y1="189.67" x2="266.08" y2="189.67"/><line class="cls-5" x1="372.98" y1="189.67" x2="449.23" y2="189.67"/><line class="cls-5" x1="463.48" y1="189.67" x2="466.26" y2="189.67"/><line class="cls-5" x1="456.36" y1="164.02" x2="370.13" y2="164.02"/><line class="cls-5" x1="368.7" y1="176.85" x2="368.7" y2="181.12"/><line class="cls-5" x1="368.7" y1="181.12" x2="364.42" y2="181.12"/><line class="cls-5" x1="364.42" y1="181.12" x2="364.42" y2="176.85"/><line class="cls-5" x1="364.42" y1="176.85" x2="368.7" y2="176.85"/><line class="cls-5" x1="328.08" y1="176.85" x2="328.08" y2="181.12"/><line class="cls-5" x1="328.08" y1="181.12" x2="323.8" y2="181.12"/><line class="cls-5" x1="323.8" y1="181.12" x2="323.8" y2="176.85"/><line class="cls-5" x1="323.8" y1="176.85" x2="328.08" y2="176.85"/><line class="cls-5" x1="364.42" y1="176.85" x2="364.42" y2="181.12"/><line class="cls-5" x1="364.42" y1="181.12" x2="328.08" y2="181.12"/><line class="cls-5" x1="328.08" y1="181.12" x2="328.08" y2="176.85"/><line class="cls-5" x1="328.08" y1="176.85" x2="364.42" y2="176.85"/><line class="cls-5" x1="274.63" y1="176.85" x2="274.63" y2="181.12"/><line class="cls-5" x1="274.63" y1="181.12" x2="270.35" y2="181.12"/><line class="cls-5" x1="270.35" y1="181.12" x2="270.35" y2="176.85"/><line class="cls-5" x1="270.35" y1="176.85" x2="274.63" y2="176.85"/><line class="cls-5" x1="320.95" y1="176.85" x2="320.95" y2="181.12"/><line class="cls-5" x1="320.95" y1="181.12" x2="316.68" y2="181.12"/><line class="cls-5" x1="316.68" y1="181.12" x2="316.68" y2="176.85"/><line class="cls-5" x1="316.68" y1="176.85" x2="320.95" y2="176.85"/><line class="cls-5" x1="316.68" y1="176.85" x2="316.68" y2="181.12"/><line class="cls-5" x1="316.68" y1="181.12" x2="274.63" y2="181.12"/><line class="cls-5" x1="274.63" y1="181.12" x2="274.63" y2="176.85"/><line class="cls-5" x1="274.63" y1="176.85" x2="316.68" y2="176.85"/><line class="cls-5" x1="325.23" y1="164.02" x2="325.23" y2="172.57"/><line class="cls-5" x1="325.23" y1="189.67" x2="325.23" y2="179.7"/><line class="cls-5" x1="370.13" y1="164.02" x2="325.23" y2="164.02"/><line class="cls-5" x1="268.93" y1="164.02" x2="328.08" y2="164.02"/><line class="cls-5" x1="372.98" y1="189.67" x2="325.23" y2="189.67"/><line class="cls-5" x1="266.08" y1="189.67" x2="328.08" y2="189.67"/><line class="cls-5" x1="372.98" y1="175.42" x2="266.08" y2="175.42"/><line class="cls-5" x1="372.98" y1="179.7" x2="368.7" y2="179.7"/><line class="cls-5" x1="367.27" y1="175.42" x2="367.27" y2="176.85"/><line class="cls-5" x1="325.23" y1="175.42" x2="325.23" y2="176.85"/><line class="cls-5" x1="266.08" y1="179.7" x2="270.35" y2="179.7"/><line class="cls-5" x1="271.78" y1="175.42" x2="271.78" y2="176.85"/><line class="cls-5" x1="319.53" y1="175.42" x2="319.53" y2="176.85"/><line class="cls-5" x1="364.42" y1="176.85" x2="364.42" y2="181.12"/><line class="cls-5" x1="328.08" y1="176.85" x2="328.08" y2="181.12"/><line class="cls-5" x1="328.08" y1="178.98" x2="364.42" y2="178.98"/><line class="cls-5" x1="274.63" y1="176.85" x2="274.63" y2="181.12"/><line class="cls-5" x1="316.68" y1="176.85" x2="316.68" y2="181.12"/><line class="cls-5" x1="316.68" y1="178.98" x2="274.63" y2="178.98"/><line class="cls-5" x1="323.8" y1="179.7" x2="320.95" y2="179.7"/><line class="cls-5" x1="270.35" y1="181.12" x2="314.17" y2="206.42"/><path class="cls-5" d="M321,209.47a50.58,50.58,0,0,1-6.78,25.3" transform="translate(0 -28.35)"/><line class="cls-5" x1="372.98" y1="175.42" x2="372.98" y2="179.7"/><line class="cls-5" x1="372.98" y1="175.42" x2="372.98" y2="179.7"/><line class="cls-5" x1="266.08" y1="175.42" x2="266.08" y2="179.7"/><line class="cls-5" x1="266.08" y1="175.42" x2="266.08" y2="179.7"/><line class="cls-5" x1="269.31" y1="145.02" x2="269.31" y2="145.02"/><line class="cls-5" x1="269.31" y1="137.09" x2="269.31" y2="137.09"/><line class="cls-5" x1="269.31" y1="105.34" x2="269.31" y2="105.34"/><line class="cls-5" x1="269.31" y1="97.4" x2="269.31" y2="97.4"/><line class="cls-5" x1="269.62" y1="156.4" x2="269.62" y2="156.4"/><line class="cls-5" x1="268.93" y1="94.18" x2="269.64" y2="94.18"/><line class="cls-5" x1="263.83" y1="94.18" x2="268.93" y2="94.18"/><line class="cls-5" x1="268.93" y1="164.73" x2="268.93" y2="94.18"/><line class="cls-5" x1="258.24" y1="123.4" x2="258.24" y2="105.58"/><line class="cls-5" x1="258.24" y1="175.42" x2="258.24" y2="123.4"/><line class="cls-5" x1="269.64" y1="85.62" x2="269.64" y2="94.18"/><line class="cls-5" x1="269.64" y1="164.02" x2="269.64" y2="94.18"/><line class="cls-5" x1="243.98" y1="176.85" x2="243.98" y2="189.67"/><line class="cls-5" x1="255.38" y1="176.85" x2="258.24" y2="173.99"/><line class="cls-5" x1="247.32" y1="176.85" x2="258.24" y2="165.93"/><line class="cls-5" x1="243.98" y1="172.12" x2="258.24" y2="157.86"/><line class="cls-5" x1="243.98" y1="164.05" x2="258.24" y2="149.8"/><line class="cls-5" x1="243.98" y1="155.99" x2="258.24" y2="141.74"/><line class="cls-5" x1="243.98" y1="147.93" x2="258.24" y2="133.67"/><line class="cls-5" x1="243.98" y1="139.87" x2="258.24" y2="125.61"/><line class="cls-5" x1="243.98" y1="131.8" x2="258.24" y2="117.55"/><line class="cls-5" x1="243.98" y1="123.74" x2="258.24" y2="109.49"/><line class="cls-5" x1="243.98" y1="115.68" x2="254.08" y2="105.58"/><line class="cls-5" x1="243.98" y1="107.61" x2="246.02" y2="105.58"/><line class="cls-5" x1="251.35" y1="176.85" x2="252.12" y2="176.08"/><line class="cls-5" x1="253.12" y1="175.07" x2="253.12" y2="175.07"/><line class="cls-5" x1="254.13" y1="174.06" x2="257.16" y2="171.04"/><line class="cls-5" x1="258.16" y1="170.03" x2="258.16" y2="170.03"/><line class="cls-5" x1="244.05" y1="176.08" x2="244.05" y2="176.08"/><line class="cls-5" x1="245.06" y1="175.07" x2="248.08" y2="172.05"/><line class="cls-5" x1="249.09" y1="171.04" x2="249.09" y2="171.04"/><line class="cls-5" x1="250.1" y1="170.03" x2="253.12" y2="167.01"/><line class="cls-5" x1="254.13" y1="166" x2="254.13" y2="166"/><line class="cls-5" x1="255.14" y1="164.99" x2="258.16" y2="161.97"/><line class="cls-5" x1="243.98" y1="168.09" x2="244.05" y2="168.02"/><line class="cls-5" x1="245.06" y1="167.01" x2="245.06" y2="167.01"/><line class="cls-5" x1="246.07" y1="166" x2="249.09" y2="162.98"/><line class="cls-5" x1="250.1" y1="161.97" x2="250.1" y2="161.97"/><line class="cls-5" x1="251.11" y1="160.96" x2="254.13" y2="157.94"/><line class="cls-5" x1="255.14" y1="156.93" x2="255.14" y2="156.93"/><line class="cls-5" x1="256.15" y1="155.92" x2="258.24" y2="153.83"/><line class="cls-5" x1="243.98" y1="160.02" x2="245.06" y2="158.94"/><line class="cls-5" x1="246.07" y1="157.94" x2="246.07" y2="157.94"/><line class="cls-5" x1="247.08" y1="156.93" x2="250.1" y2="153.91"/><line class="cls-5" x1="251.11" y1="152.9" x2="251.11" y2="152.9"/><line class="cls-5" x1="252.12" y1="151.89" x2="255.14" y2="148.87"/><line class="cls-5" x1="256.15" y1="147.86" x2="256.15" y2="147.86"/><line class="cls-5" x1="257.16" y1="146.85" x2="258.24" y2="145.77"/><line class="cls-5" x1="243.98" y1="151.96" x2="246.07" y2="149.87"/><line class="cls-5" x1="247.08" y1="148.87" x2="247.08" y2="148.87"/><line class="cls-5" x1="248.08" y1="147.86" x2="251.11" y2="144.83"/><line class="cls-5" x1="252.12" y1="143.83" x2="252.12" y2="143.83"/><line class="cls-5" x1="253.12" y1="142.82" x2="256.15" y2="139.79"/><line class="cls-5" x1="257.16" y1="138.79" x2="257.16" y2="138.79"/><line class="cls-5" x1="258.16" y1="137.78" x2="258.24" y2="137.71"/><line class="cls-5" x1="244.05" y1="143.83" x2="247.08" y2="140.8"/><line class="cls-5" x1="248.08" y1="139.79" x2="248.08" y2="139.79"/><line class="cls-5" x1="249.09" y1="138.79" x2="252.12" y2="135.76"/><line class="cls-5" x1="253.12" y1="134.76" x2="253.12" y2="134.76"/><line class="cls-5" x1="254.13" y1="133.75" x2="257.16" y2="130.72"/><line class="cls-5" x1="258.16" y1="129.72" x2="258.16" y2="129.72"/><line class="cls-5" x1="244.05" y1="135.76" x2="244.05" y2="135.76"/><line class="cls-5" x1="245.06" y1="134.76" x2="248.08" y2="131.73"/><line class="cls-5" x1="249.09" y1="130.72" x2="249.09" y2="130.72"/><line class="cls-5" x1="250.1" y1="129.72" x2="253.12" y2="126.69"/><line class="cls-5" x1="254.13" y1="125.68" x2="254.13" y2="125.68"/><line class="cls-5" x1="255.14" y1="124.68" x2="258.16" y2="121.65"/><line class="cls-5" x1="243.98" y1="127.77" x2="244.05" y2="127.7"/><line class="cls-5" x1="245.06" y1="126.69" x2="245.06" y2="126.69"/><line class="cls-5" x1="246.07" y1="125.68" x2="249.09" y2="122.66"/><line class="cls-5" x1="250.1" y1="121.65" x2="250.1" y2="121.65"/><line class="cls-5" x1="251.11" y1="120.65" x2="254.13" y2="117.62"/><line class="cls-5" x1="255.14" y1="116.61" x2="255.14" y2="116.61"/><line class="cls-5" x1="256.15" y1="115.61" x2="258.24" y2="113.52"/><line class="cls-5" x1="243.98" y1="119.71" x2="245.06" y2="118.63"/><line class="cls-5" x1="246.07" y1="117.62" x2="246.07" y2="117.62"/><line class="cls-5" x1="247.08" y1="116.61" x2="250.1" y2="113.59"/><line class="cls-5" x1="251.11" y1="112.58" x2="251.11" y2="112.58"/><line class="cls-5" x1="252.12" y1="111.57" x2="255.14" y2="108.55"/><line class="cls-5" x1="256.15" y1="107.54" x2="256.15" y2="107.54"/><line class="cls-5" x1="257.16" y1="106.54" x2="258.11" y2="105.58"/><line class="cls-5" x1="243.98" y1="111.65" x2="246.07" y2="109.56"/><line class="cls-5" x1="247.08" y1="108.55" x2="247.08" y2="108.55"/><line class="cls-5" x1="248.08" y1="107.54" x2="250.05" y2="105.58"/><line class="cls-5" x1="243.98" y1="105.58" x2="243.98" y2="176.85"/><line class="cls-5" x1="243.98" y1="176.85" x2="258.24" y2="176.85"/><line class="cls-5" x1="258.24" y1="176.85" x2="258.24" y2="175.42"/><line class="cls-5" x1="258.24" y1="105.58" x2="243.98" y2="105.58"/><line class="cls-5" x1="392.22" y1="632.45" x2="392.22" y2="627.42"/><line class="cls-5" x1="199.8" y1="622.26" x2="199.8" y2="630.82"/><line class="cls-5" x1="199.8" y1="630.82" x2="199.8" y2="636.52"/><line class="cls-5" x1="271.06" y1="622.26" x2="271.06" y2="630.82"/><line class="cls-5" x1="271.06" y1="630.82" x2="271.06" y2="636.52"/><line class="cls-5" x1="7.38" y1="636.52" x2="199.8" y2="636.52"/><line class="cls-5" x1="271.06" y1="636.52" x2="392.22" y2="636.52"/><line class="cls-5" x1="449.23" y1="622.26" x2="271.06" y2="622.26"/><line class="cls-5" x1="199.8" y1="622.26" x2="14.5" y2="622.26"/><line class="cls-5" x1="271.06" y1="636.52" x2="160.88" y2="636.52"/><path class="cls-5" d="M202.65,593.6a65.57,65.57,0,0,1,65.56,65.57" transform="translate(0 -28.35)"/><line class="cls-5" x1="271.06" y1="636.52" x2="268.21" y2="636.52"/><line class="cls-5" x1="268.21" y1="636.52" x2="268.21" y2="630.82"/><line class="cls-5" x1="268.21" y1="630.82" x2="271.06" y2="630.82"/><line class="cls-5" x1="271.06" y1="630.82" x2="271.06" y2="636.52"/><line class="cls-5" x1="199.8" y1="630.82" x2="202.65" y2="630.82"/><line class="cls-5" x1="202.65" y1="630.82" x2="202.65" y2="636.52"/><line class="cls-5" x1="202.65" y1="636.52" x2="199.8" y2="636.52"/><line class="cls-5" x1="199.8" y1="636.52" x2="199.8" y2="630.82"/><line class="cls-5" x1="202.65" y1="630.82" x2="202.65" y2="565.25"/><line class="cls-5" x1="271.06" y1="630.82" x2="271.06" y2="636.52"/><line class="cls-5" x1="271.06" y1="630.82" x2="271.06" y2="636.52"/><line class="cls-5" x1="271.06" y1="622.26" x2="271.06" y2="630.82"/><line class="cls-5" x1="199.8" y1="630.82" x2="199.8" y2="636.52"/><line class="cls-5" x1="199.8" y1="630.82" x2="199.8" y2="636.52"/><line class="cls-5" x1="199.8" y1="622.26" x2="199.8" y2="630.82"/><line class="cls-5" x1="0.25" y1="636.52" x2="7.38" y2="636.52"/><line class="cls-5" x1="0.25" y1="176.85" x2="0.25" y2="383.52"/><line class="cls-5" x1="0.25" y1="454.79" x2="0.25" y2="636.52"/><line class="cls-5" x1="14.5" y1="622.26" x2="14.5" y2="454.79"/><line class="cls-5" x1="14.5" y1="383.52" x2="14.5" y2="176.85"/><line class="cls-5" x1="449.23" y1="253.81" x2="449.23" y2="383.52"/><line class="cls-5" x1="449.23" y1="454.79" x2="449.23" y2="622.26"/><line class="cls-5" x1="463.48" y1="622.26" x2="463.48" y2="454.79"/><line class="cls-5" x1="463.48" y1="383.52" x2="463.48" y2="253.81"/><line class="cls-5" x1="466.69" y1="94.89" x2="466.69" y2="100.59"/><line class="cls-5" x1="466.69" y1="100.59" x2="466.69" y2="100.59"/><line class="cls-5" x1="466.69" y1="94.89" x2="466.69" y2="94.89"/><line class="cls-5" x1="466.69" y1="95.25" x2="466.69" y2="95.25"/><line class="cls-5" x1="466.69" y1="100.23" x2="466.69" y2="100.23"/><line class="cls-5" x1="466.69" y1="100.23" x2="466.69" y2="95.25"/><line class="cls-5" x1="266.08" y1="94.89" x2="266.08" y2="100.59"/><line class="cls-5" x1="266.08" y1="100.59" x2="271.78" y2="100.59"/><line class="cls-5" x1="271.78" y1="100.59" x2="271.78" y2="94.89"/><line class="cls-5" x1="271.78" y1="94.89" x2="266.08" y2="94.89"/><line class="cls-5" x1="266.43" y1="95.25" x2="271.42" y2="95.25"/><line class="cls-5" x1="271.42" y1="95.25" x2="271.42" y2="100.23"/><line class="cls-5" x1="271.42" y1="100.23" x2="266.43" y2="100.23"/><line class="cls-5" x1="266.43" y1="100.23" x2="266.43" y2="95.25"/><line class="cls-5" x1="22.7" y1="42.86" x2="24.48" y2="44.65"/><line class="cls-5" x1="24.48" y1="44.65" x2="24.48" y2="85.62"/><line class="cls-5" x1="24.48" y1="85.62" x2="22.7" y2="85.62"/><line class="cls-5" x1="22.7" y1="85.62" x2="22.7" y2="42.86"/><line class="cls-5" x1="91.83" y1="42.86" x2="90.05" y2="44.65"/><line class="cls-5" x1="90.05" y1="44.65" x2="24.48" y2="44.65"/><line class="cls-5" x1="24.48" y1="44.65" x2="22.7" y2="42.86"/><line class="cls-5" x1="22.7" y1="42.86" x2="91.83" y2="42.86"/><line class="cls-5" x1="91.83" y1="85.62" x2="91.83" y2="42.86"/><line class="cls-5" x1="90.05" y1="85.62" x2="91.83" y2="85.62"/><line class="cls-5" x1="90.05" y1="44.65" x2="90.05" y2="85.62"/><line class="cls-5" x1="91.83" y1="42.86" x2="90.05" y2="44.65"/><line class="cls-5" x1="23.59" y1="43.76" x2="23.59" y2="56.33"/><line class="cls-5" x1="23.59" y1="62.61" x2="23.59" y2="62.61"/><line class="cls-5" x1="23.59" y1="67.64" x2="23.59" y2="73.05"/><line class="cls-5" x1="23.59" y1="73.05" x2="23.59" y2="85.62"/><line class="cls-5" x1="90.94" y1="43.76" x2="78.37" y2="43.76"/><line class="cls-5" x1="72.08" y1="43.76" x2="72.08" y2="43.76"/><line class="cls-5" x1="67.05" y1="43.76" x2="54.48" y2="43.76"/><line class="cls-5" x1="48.19" y1="43.76" x2="48.19" y2="43.76"/><line class="cls-5" x1="43.17" y1="43.76" x2="36.16" y2="43.76"/><line class="cls-5" x1="36.16" y1="43.76" x2="23.59" y2="43.76"/><line class="cls-5" x1="88.26" y1="55.69" x2="26.26" y2="55.69"/><line class="cls-5" x1="26.26" y1="55.69" x2="26.26" y2="78.5"/><line class="cls-5" x1="26.26" y1="78.5" x2="88.26" y2="78.5"/><line class="cls-5" x1="88.26" y1="78.5" x2="88.26" y2="55.69"/><line class="cls-5" x1="88.26" y1="57.97" x2="26.26" y2="57.97"/><line class="cls-5" x1="26.26" y1="57.97" x2="26.26" y2="78.5"/><line class="cls-5" x1="26.26" y1="78.5" x2="88.26" y2="78.5"/><line class="cls-5" x1="88.26" y1="78.5" x2="88.26" y2="57.97"/><line class="cls-5" x1="90.94" y1="43.76" x2="90.94" y2="56.33"/><line class="cls-5" x1="90.94" y1="62.61" x2="90.94" y2="62.61"/><line class="cls-5" x1="90.94" y1="67.64" x2="90.94" y2="73.05"/><line class="cls-5" x1="90.94" y1="73.05" x2="90.94" y2="85.62"/><line class="cls-5" x1="14.5" y1="394.21" x2="16" y2="394.21"/><line class="cls-7" x1="18.96" y1="394.21" x2="171.03" y2="394.21"/><polyline class="cls-5" points="172.51 394.21 174.01 394.21 174.01 395.71"/><line class="cls-8" x1="174.01" y1="398.73" x2="174.01" y2="463.57"/><line class="cls-5" x1="174.01" y1="465.08" x2="174.01" y2="466.58"/><line class="cls-5" x1="168.44" y1="495.41" x2="168.44" y2="495.41"/><line class="cls-5" x1="168.44" y1="492.56" x2="168.44" y2="487.21"/><line class="cls-5" x1="168.44" y1="487.21" x2="168.44" y2="487.21"/><line class="cls-5" x1="168.44" y1="484.36" x2="168.44" y2="479.02"/><line class="cls-5" x1="168.44" y1="479.02" x2="168.44" y2="479.02"/><line class="cls-5" x1="168.44" y1="476.17" x2="168.44" y2="470.82"/><line class="cls-5" x1="168.44" y1="470.82" x2="168.44" y2="470.82"/><line class="cls-5" x1="168.44" y1="467.97" x2="168.44" y2="462.63"/><line class="cls-5" x1="168.44" y1="462.63" x2="168.44" y2="462.63"/><line class="cls-5" x1="168.44" y1="459.77" x2="168.44" y2="454.43"/><line class="cls-5" x1="168.44" y1="454.43" x2="168.44" y2="454.43"/><line class="cls-5" x1="420.72" y1="457.28" x2="420.72" y2="467.97"/><line class="cls-5" x1="415.02" y1="467.97" x2="415.02" y2="457.28"/><line class="cls-5" x1="420.59" y1="516.08" x2="420.72" y2="515.94"/><line class="cls-5" x1="415.02" y1="501.99" x2="415.19" y2="501.82"/><line class="cls-5" x1="420.72" y1="516.08" x2="420.72" y2="501.82"/><line class="cls-5" x1="420.72" y1="501.82" x2="415.02" y2="501.82"/><line class="cls-5" x1="415.02" y1="501.82" x2="415.02" y2="516.08"/><line class="cls-5" x1="441.88" y1="543.16" x2="442.1" y2="542.94"/><line class="cls-5" x1="427.85" y1="537.54" x2="427.93" y2="537.46"/><line class="cls-5" x1="427.85" y1="543.16" x2="442.1" y2="543.16"/><line class="cls-5" x1="442.1" y1="537.46" x2="427.85" y2="537.46"/><line class="cls-5" x1="67.95" y1="501.82" x2="82.21" y2="501.82"/><line class="cls-5" x1="82.21" y1="496.12" x2="67.95" y2="496.12"/><line class="cls-5" x1="25.14" y1="501.82" x2="25.19" y2="501.77"/><line class="cls-5" x1="14.5" y1="501.82" x2="25.19" y2="501.82"/><line class="cls-5" x1="25.19" y1="496.12" x2="14.5" y2="496.12"/><line class="cls-5" x1="14.5" y1="496.12" x2="14.5" y2="501.82"/><line class="cls-5" x1="64.39" y1="537.46" x2="64.39" y2="523.21"/><line class="cls-5" x1="58.69" y1="523.21" x2="58.69" y2="537.46"/><line class="cls-5" x1="58.69" y1="537.46" x2="64.39" y2="537.46"/><line class="cls-5" x1="64.34" y1="618.34" x2="64.39" y2="618.29"/><line class="cls-5" x1="64.39" y1="607.65" x2="64.39" y2="618.34"/><line class="cls-5" x1="58.69" y1="618.34" x2="58.69" y2="607.65"/><line class="cls-5" x1="58.69" y1="549.91" x2="59.03" y2="549.57"/><line class="cls-5" x1="58.69" y1="563.82" x2="58.69" y2="549.57"/><line class="cls-5" x1="64.39" y1="549.57" x2="64.39" y2="563.82"/><line class="cls-5" x1="13.49" y1="176.85" x2="14.5" y2="175.84"/><line class="cls-5" x1="5.43" y1="176.85" x2="14.5" y2="167.77"/><line class="cls-5" x1="0.25" y1="173.96" x2="14.5" y2="159.71"/><line class="cls-5" x1="0.25" y1="165.9" x2="14.5" y2="151.65"/><line class="cls-5" x1="0.25" y1="157.84" x2="14.5" y2="143.58"/><line class="cls-5" x1="0.25" y1="149.77" x2="14.5" y2="135.52"/><line class="cls-5" x1="0.25" y1="141.71" x2="14.5" y2="127.46"/><line class="cls-5" x1="0.25" y1="133.65" x2="14.5" y2="119.39"/><line class="cls-5" x1="0.25" y1="125.59" x2="14.5" y2="111.33"/><line class="cls-5" x1="0.25" y1="117.52" x2="12.19" y2="105.58"/><line class="cls-5" x1="0.25" y1="109.46" x2="4.13" y2="105.58"/><line class="cls-5" x1="9.46" y1="176.85" x2="10.23" y2="176.08"/><line class="cls-5" x1="11.24" y1="175.07" x2="11.24" y2="175.07"/><line class="cls-5" x1="12.24" y1="174.06" x2="14.5" y2="171.8"/><line class="cls-5" x1="2.17" y1="176.08" x2="2.17" y2="176.08"/><line class="cls-5" x1="3.17" y1="175.07" x2="6.2" y2="172.05"/><line class="cls-5" x1="7.21" y1="171.04" x2="7.21" y2="171.04"/><line class="cls-5" x1="8.21" y1="170.03" x2="11.24" y2="167.01"/><line class="cls-5" x1="12.24" y1="166" x2="12.24" y2="166"/><line class="cls-5" x1="13.25" y1="164.99" x2="14.5" y2="163.74"/><line class="cls-5" x1="0.25" y1="169.93" x2="2.17" y2="168.02"/><line class="cls-5" x1="3.17" y1="167.01" x2="3.17" y2="167.01"/><line class="cls-5" x1="4.18" y1="166" x2="7.21" y2="162.98"/><line class="cls-5" x1="8.21" y1="161.97" x2="8.21" y2="161.97"/><line class="cls-5" x1="9.22" y1="160.96" x2="12.24" y2="157.94"/><line class="cls-5" x1="13.25" y1="156.93" x2="13.25" y2="156.93"/><line class="cls-5" x1="14.26" y1="155.92" x2="14.5" y2="155.68"/><line class="cls-5" x1="0.25" y1="161.87" x2="3.17" y2="158.94"/><line class="cls-5" x1="4.18" y1="157.94" x2="4.18" y2="157.94"/><line class="cls-5" x1="5.19" y1="156.93" x2="8.21" y2="153.91"/><line class="cls-5" x1="9.22" y1="152.9" x2="9.22" y2="152.9"/><line class="cls-5" x1="10.23" y1="151.89" x2="13.25" y2="148.87"/><line class="cls-5" x1="14.26" y1="147.86" x2="14.26" y2="147.86"/><line class="cls-5" x1="1.16" y1="152.9" x2="4.18" y2="149.87"/><line class="cls-5" x1="5.19" y1="148.87" x2="5.19" y2="148.87"/><line class="cls-5" x1="6.2" y1="147.86" x2="9.22" y2="144.83"/><line class="cls-5" x1="10.23" y1="143.83" x2="10.23" y2="143.83"/><line class="cls-5" x1="11.24" y1="142.82" x2="14.26" y2="139.79"/><line class="cls-5" x1="1.16" y1="144.83" x2="1.16" y2="144.83"/><line class="cls-5" x1="2.17" y1="143.83" x2="5.19" y2="140.8"/><line class="cls-5" x1="6.2" y1="139.79" x2="6.2" y2="139.79"/><line class="cls-5" x1="7.21" y1="138.79" x2="10.23" y2="135.76"/><line class="cls-5" x1="11.24" y1="134.76" x2="11.24" y2="134.76"/><line class="cls-5" x1="12.24" y1="133.75" x2="14.5" y2="131.49"/><line class="cls-5" x1="0.25" y1="137.68" x2="1.16" y2="136.77"/><line class="cls-5" x1="2.17" y1="135.76" x2="2.17" y2="135.76"/><line class="cls-5" x1="3.17" y1="134.76" x2="6.2" y2="131.73"/><line class="cls-5" x1="7.21" y1="130.72" x2="7.21" y2="130.72"/><line class="cls-5" x1="8.21" y1="129.72" x2="11.24" y2="126.69"/><line class="cls-5" x1="12.24" y1="125.68" x2="12.24" y2="125.68"/><line class="cls-5" x1="13.25" y1="124.68" x2="14.5" y2="123.43"/><line class="cls-5" x1="0.25" y1="129.62" x2="2.17" y2="127.7"/><line class="cls-5" x1="3.17" y1="126.69" x2="3.17" y2="126.69"/><line class="cls-5" x1="4.18" y1="125.68" x2="7.21" y2="122.66"/><line class="cls-5" x1="8.21" y1="121.65" x2="8.21" y2="121.65"/><line class="cls-5" x1="9.22" y1="120.65" x2="12.24" y2="117.62"/><line class="cls-5" x1="13.25" y1="116.61" x2="13.25" y2="116.61"/><line class="cls-5" x1="14.26" y1="115.61" x2="14.5" y2="115.36"/><line class="cls-5" x1="0.25" y1="121.55" x2="3.17" y2="118.63"/><line class="cls-5" x1="4.18" y1="117.62" x2="4.18" y2="117.62"/><line class="cls-5" x1="5.19" y1="116.61" x2="8.21" y2="113.59"/><line class="cls-5" x1="9.22" y1="112.58" x2="9.22" y2="112.58"/><line class="cls-5" x1="10.23" y1="111.57" x2="13.25" y2="108.55"/><line class="cls-5" x1="14.26" y1="107.54" x2="14.26" y2="107.54"/><line class="cls-5" x1="1.16" y1="112.58" x2="4.18" y2="109.56"/><line class="cls-5" x1="5.19" y1="108.55" x2="5.19" y2="108.55"/><line class="cls-5" x1="6.2" y1="107.54" x2="8.16" y2="105.58"/><line class="cls-5" x1="14.5" y1="105.58" x2="0.25" y2="105.58"/><line class="cls-5" x1="0.25" y1="105.58" x2="0.25" y2="176.85"/><line class="cls-5" x1="0.25" y1="176.85" x2="14.5" y2="176.85"/><line class="cls-5" x1="14.5" y1="176.85" x2="14.5" y2="105.58"/><line class="cls-5" x1="460.62" y1="253.81" x2="463.48" y2="250.95"/><line class="cls-5" x1="452.55" y1="253.81" x2="463.48" y2="242.88"/><line class="cls-5" x1="449.23" y1="249.07" x2="463.48" y2="234.82"/><line class="cls-5" x1="449.23" y1="241.01" x2="463.48" y2="226.75"/><line class="cls-5" x1="449.23" y1="232.95" x2="463.48" y2="218.69"/><line class="cls-5" x1="449.23" y1="224.88" x2="463.48" y2="210.63"/><line class="cls-5" x1="449.23" y1="216.82" x2="463.48" y2="202.57"/><line class="cls-5" x1="449.23" y1="208.76" x2="463.48" y2="194.51"/><line class="cls-5" x1="449.23" y1="200.69" x2="463.48" y2="186.44"/><line class="cls-5" x1="449.23" y1="192.63" x2="459.32" y2="182.55"/><line class="cls-5" x1="449.23" y1="184.57" x2="451.25" y2="182.55"/><line class="cls-5" x1="456.58" y1="253.81" x2="458.73" y2="251.67"/><line class="cls-5" x1="459.74" y1="250.66" x2="459.74" y2="250.66"/><line class="cls-5" x1="460.74" y1="249.65" x2="463.48" y2="246.91"/><line class="cls-5" x1="449.23" y1="253.1" x2="449.66" y2="252.68"/><line class="cls-5" x1="450.67" y1="251.67" x2="450.67" y2="251.67"/><line class="cls-5" x1="451.67" y1="250.66" x2="454.7" y2="247.64"/><line class="cls-5" x1="455.71" y1="246.63" x2="455.71" y2="246.63"/><line class="cls-5" x1="456.71" y1="245.62" x2="459.74" y2="242.6"/><line class="cls-5" x1="460.74" y1="241.59" x2="460.74" y2="241.59"/><line class="cls-5" x1="461.75" y1="240.58" x2="463.48" y2="238.85"/><line class="cls-5" x1="449.23" y1="245.04" x2="450.67" y2="243.6"/><line class="cls-5" x1="451.67" y1="242.6" x2="451.67" y2="242.6"/><line class="cls-5" x1="452.68" y1="241.59" x2="455.71" y2="238.57"/><line class="cls-5" x1="456.71" y1="237.56" x2="456.71" y2="237.56"/><line class="cls-5" x1="457.72" y1="236.55" x2="460.74" y2="233.53"/><line class="cls-5" x1="461.75" y1="232.52" x2="461.75" y2="232.52"/><line class="cls-5" x1="462.76" y1="231.51" x2="463.48" y2="230.79"/><line class="cls-5" x1="449.23" y1="236.98" x2="451.67" y2="234.54"/><line class="cls-5" x1="452.68" y1="233.53" x2="452.68" y2="233.53"/><line class="cls-5" x1="453.69" y1="232.52" x2="456.71" y2="229.49"/><line class="cls-5" x1="457.72" y1="228.49" x2="457.72" y2="228.49"/><line class="cls-5" x1="458.73" y1="227.48" x2="461.75" y2="224.46"/><line class="cls-5" x1="462.76" y1="223.45" x2="462.76" y2="223.45"/><line class="cls-5" x1="449.66" y1="228.49" x2="452.68" y2="225.46"/><line class="cls-5" x1="453.69" y1="224.46" x2="453.69" y2="224.46"/><line class="cls-5" x1="454.7" y1="223.45" x2="457.72" y2="220.42"/><line class="cls-5" x1="458.73" y1="219.42" x2="458.73" y2="219.42"/><line class="cls-5" x1="459.74" y1="218.41" x2="462.76" y2="215.39"/><line class="cls-5" x1="449.66" y1="220.42" x2="449.66" y2="220.42"/><line class="cls-5" x1="450.67" y1="219.42" x2="453.69" y2="216.39"/><line class="cls-5" x1="454.7" y1="215.39" x2="454.7" y2="215.39"/><line class="cls-5" x1="455.71" y1="214.38" x2="458.73" y2="211.35"/><line class="cls-5" x1="459.74" y1="210.34" x2="459.74" y2="210.34"/><line class="cls-5" x1="460.74" y1="209.34" x2="463.48" y2="206.6"/><line class="cls-5" x1="449.23" y1="212.79" x2="449.66" y2="212.36"/><line class="cls-5" x1="450.67" y1="211.35" x2="450.67" y2="211.35"/><line class="cls-5" x1="451.67" y1="210.34" x2="454.7" y2="207.32"/><line class="cls-5" x1="455.71" y1="206.31" x2="455.71" y2="206.31"/><line class="cls-5" x1="456.71" y1="205.31" x2="459.74" y2="202.28"/><line class="cls-5" x1="460.74" y1="201.28" x2="460.74" y2="201.28"/><line class="cls-5" x1="461.75" y1="200.27" x2="463.48" y2="198.54"/><line class="cls-5" x1="449.23" y1="204.72" x2="450.67" y2="203.29"/><line class="cls-5" x1="451.67" y1="202.28" x2="451.67" y2="202.28"/><line class="cls-5" x1="452.68" y1="201.28" x2="455.71" y2="198.25"/><line class="cls-5" x1="456.71" y1="197.24" x2="456.71" y2="197.24"/><line class="cls-5" x1="457.72" y1="196.24" x2="460.74" y2="193.21"/><line class="cls-5" x1="461.75" y1="192.2" x2="461.75" y2="192.2"/><line class="cls-5" x1="462.76" y1="191.19" x2="463.48" y2="190.47"/><line class="cls-5" x1="449.23" y1="196.66" x2="451.67" y2="194.22"/><line class="cls-5" x1="452.68" y1="193.21" x2="452.68" y2="193.21"/><line class="cls-5" x1="453.69" y1="192.2" x2="456.71" y2="189.18"/><line class="cls-5" x1="457.72" y1="188.17" x2="457.72" y2="188.17"/><line class="cls-5" x1="458.73" y1="187.16" x2="461.75" y2="184.14"/><line class="cls-5" x1="462.76" y1="183.13" x2="462.76" y2="183.13"/><line class="cls-5" x1="449.66" y1="188.17" x2="452.68" y2="185.15"/><line class="cls-5" x1="453.69" y1="184.14" x2="453.69" y2="184.14"/><line class="cls-5" x1="454.7" y1="183.13" x2="455.28" y2="182.55"/><line class="cls-5" x1="463.48" y1="182.55" x2="449.23" y2="182.55"/><line class="cls-5" x1="449.23" y1="182.55" x2="449.23" y2="253.81"/><line class="cls-5" x1="449.23" y1="253.81" x2="463.48" y2="253.81"/><line class="cls-5" x1="463.48" y1="253.81" x2="463.48" y2="182.55"/><line class="cls-5" x1="461.21" y1="454.79" x2="463.48" y2="452.52"/><line class="cls-5" x1="453.15" y1="454.79" x2="463.48" y2="444.46"/><line class="cls-5" x1="449.23" y1="450.65" x2="463.48" y2="436.39"/><line class="cls-5" x1="449.23" y1="442.58" x2="463.48" y2="428.33"/><line class="cls-5" x1="449.23" y1="434.52" x2="463.48" y2="420.26"/><line class="cls-5" x1="449.23" y1="426.46" x2="463.48" y2="412.2"/><line class="cls-5" x1="449.23" y1="418.39" x2="463.48" y2="404.14"/><line class="cls-5" x1="449.23" y1="410.33" x2="463.48" y2="396.08"/><line class="cls-5" x1="449.23" y1="402.27" x2="463.48" y2="388.01"/><line class="cls-5" x1="449.23" y1="394.21" x2="459.91" y2="383.52"/><line class="cls-5" x1="449.23" y1="386.14" x2="451.85" y2="383.52"/><line class="cls-5" x1="457.18" y1="454.79" x2="458.73" y2="453.24"/><line class="cls-5" x1="459.74" y1="452.23" x2="459.74" y2="452.23"/><line class="cls-5" x1="460.74" y1="451.23" x2="463.48" y2="448.49"/><line class="cls-5" x1="449.23" y1="454.68" x2="449.66" y2="454.25"/><line class="cls-5" x1="450.67" y1="453.24" x2="450.67" y2="453.24"/><line class="cls-5" x1="451.67" y1="452.23" x2="454.7" y2="449.21"/><line class="cls-5" x1="455.71" y1="448.2" x2="455.71" y2="448.2"/><line class="cls-5" x1="456.71" y1="447.19" x2="459.74" y2="444.17"/><line class="cls-5" x1="460.74" y1="443.16" x2="460.74" y2="443.16"/><line class="cls-5" x1="461.75" y1="442.15" x2="463.48" y2="440.42"/><line class="cls-5" x1="449.23" y1="446.61" x2="450.67" y2="445.18"/><line class="cls-5" x1="451.67" y1="444.17" x2="451.67" y2="444.17"/><line class="cls-5" x1="452.68" y1="443.16" x2="455.71" y2="440.14"/><line class="cls-5" x1="456.71" y1="439.13" x2="456.71" y2="439.13"/><line class="cls-5" x1="457.72" y1="438.12" x2="460.74" y2="435.1"/><line class="cls-5" x1="461.75" y1="434.09" x2="461.75" y2="434.09"/><line class="cls-5" x1="462.76" y1="433.09" x2="463.48" y2="432.36"/><line class="cls-5" x1="449.23" y1="438.55" x2="451.67" y2="436.11"/><line class="cls-5" x1="452.68" y1="435.1" x2="452.68" y2="435.1"/><line class="cls-5" x1="453.69" y1="434.09" x2="456.71" y2="431.07"/><line class="cls-5" x1="457.72" y1="430.06" x2="457.72" y2="430.06"/><line class="cls-5" x1="458.73" y1="429.05" x2="461.75" y2="426.03"/><line class="cls-5" x1="462.76" y1="425.02" x2="462.76" y2="425.02"/><line class="cls-5" x1="449.66" y1="430.06" x2="452.68" y2="427.04"/><line class="cls-5" x1="453.69" y1="426.03" x2="453.69" y2="426.03"/><line class="cls-5" x1="454.7" y1="425.02" x2="457.72" y2="422"/><line class="cls-5" x1="458.73" y1="420.99" x2="458.73" y2="420.99"/><line class="cls-5" x1="459.74" y1="419.98" x2="462.76" y2="416.96"/><line class="cls-5" x1="449.66" y1="422" x2="449.66" y2="422"/><line class="cls-5" x1="450.67" y1="420.99" x2="453.69" y2="417.97"/><line class="cls-5" x1="454.7" y1="416.96" x2="454.7" y2="416.96"/><line class="cls-5" x1="455.71" y1="415.95" x2="458.73" y2="412.93"/><line class="cls-5" x1="459.74" y1="411.92" x2="459.74" y2="411.92"/><line class="cls-5" x1="460.74" y1="410.91" x2="463.48" y2="408.17"/><line class="cls-5" x1="449.23" y1="414.36" x2="449.66" y2="413.94"/><line class="cls-5" x1="450.67" y1="412.93" x2="450.67" y2="412.93"/><line class="cls-5" x1="451.67" y1="411.92" x2="454.7" y2="408.89"/><line class="cls-5" x1="455.71" y1="407.89" x2="455.71" y2="407.89"/><line class="cls-5" x1="456.71" y1="406.88" x2="459.74" y2="403.86"/><line class="cls-5" x1="460.74" y1="402.85" x2="460.74" y2="402.85"/><line class="cls-5" x1="461.75" y1="401.84" x2="463.48" y2="400.11"/><line class="cls-5" x1="449.23" y1="406.3" x2="450.67" y2="404.86"/><line class="cls-5" x1="451.67" y1="403.86" x2="451.67" y2="403.86"/><line class="cls-5" x1="452.68" y1="402.85" x2="455.71" y2="399.83"/><line class="cls-5" x1="456.71" y1="398.82" x2="456.71" y2="398.82"/><line class="cls-5" x1="457.72" y1="397.81" x2="460.74" y2="394.79"/><line class="cls-5" x1="461.75" y1="393.78" x2="461.75" y2="393.78"/><line class="cls-5" x1="462.76" y1="392.77" x2="463.48" y2="392.05"/><line class="cls-5" x1="449.23" y1="398.24" x2="451.67" y2="395.79"/><line class="cls-5" x1="452.68" y1="394.79" x2="452.68" y2="394.79"/><line class="cls-5" x1="453.69" y1="393.78" x2="456.71" y2="390.75"/><line class="cls-5" x1="457.72" y1="389.74" x2="457.72" y2="389.74"/><line class="cls-5" x1="458.73" y1="388.74" x2="461.75" y2="385.71"/><line class="cls-5" x1="462.76" y1="384.71" x2="462.76" y2="384.71"/><line class="cls-5" x1="449.66" y1="389.74" x2="452.68" y2="386.72"/><line class="cls-5" x1="453.69" y1="385.71" x2="453.69" y2="385.71"/><line class="cls-5" x1="454.7" y1="384.71" x2="455.88" y2="383.52"/><line class="cls-5" x1="463.48" y1="383.52" x2="449.23" y2="383.52"/><line class="cls-5" x1="449.23" y1="383.52" x2="449.23" y2="454.79"/><line class="cls-5" x1="449.23" y1="454.79" x2="463.48" y2="454.79"/><line class="cls-5" x1="463.48" y1="454.79" x2="463.48" y2="383.52"/><line class="cls-5" x1="251.58" y1="454.79" x2="258.24" y2="448.13"/><line class="cls-5" x1="243.98" y1="454.32" x2="258.24" y2="440.07"/><line class="cls-5" x1="243.98" y1="446.26" x2="258.24" y2="432"/><line class="cls-5" x1="243.98" y1="438.2" x2="258.24" y2="423.94"/><line class="cls-5" x1="243.98" y1="430.13" x2="258.24" y2="415.88"/><line class="cls-5" x1="243.98" y1="422.07" x2="258.24" y2="407.81"/><line class="cls-5" x1="243.98" y1="414" x2="258.24" y2="399.75"/><line class="cls-5" x1="243.98" y1="405.94" x2="258.24" y2="391.69"/><line class="cls-5" x1="243.98" y1="397.88" x2="258.24" y2="383.63"/><line class="cls-5" x1="243.98" y1="389.82" x2="250.28" y2="383.52"/><line class="cls-5" x1="255.61" y1="454.79" x2="257.16" y2="453.24"/><line class="cls-5" x1="258.16" y1="452.23" x2="258.16" y2="452.23"/><line class="cls-5" x1="247.55" y1="454.79" x2="248.08" y2="454.25"/><line class="cls-5" x1="249.09" y1="453.24" x2="249.09" y2="453.24"/><line class="cls-5" x1="250.1" y1="452.23" x2="253.12" y2="449.21"/><line class="cls-5" x1="254.13" y1="448.2" x2="254.13" y2="448.2"/><line class="cls-5" x1="255.14" y1="447.19" x2="258.16" y2="444.17"/><line class="cls-5" x1="243.98" y1="450.29" x2="244.05" y2="450.22"/><line class="cls-5" x1="245.06" y1="449.21" x2="245.06" y2="449.21"/><line class="cls-5" x1="246.07" y1="448.2" x2="249.09" y2="445.18"/><line class="cls-5" x1="250.1" y1="444.17" x2="250.1" y2="444.17"/><line class="cls-5" x1="251.11" y1="443.16" x2="254.13" y2="440.14"/><line class="cls-5" x1="255.14" y1="439.13" x2="255.14" y2="439.13"/><line class="cls-5" x1="256.15" y1="438.12" x2="258.24" y2="436.04"/><line class="cls-5" x1="243.98" y1="442.23" x2="245.06" y2="441.15"/><line class="cls-5" x1="246.07" y1="440.14" x2="246.07" y2="440.14"/><line class="cls-5" x1="247.08" y1="439.13" x2="250.1" y2="436.11"/><line class="cls-5" x1="251.11" y1="435.1" x2="251.11" y2="435.1"/><line class="cls-5" x1="252.12" y1="434.09" x2="255.14" y2="431.07"/><line class="cls-5" x1="256.15" y1="430.06" x2="256.15" y2="430.06"/><line class="cls-5" x1="257.16" y1="429.05" x2="258.24" y2="427.97"/><line class="cls-5" x1="243.98" y1="434.16" x2="246.07" y2="432.08"/><line class="cls-5" x1="247.08" y1="431.07" x2="247.08" y2="431.07"/><line class="cls-5" x1="248.08" y1="430.06" x2="251.11" y2="427.04"/><line class="cls-5" x1="252.12" y1="426.03" x2="252.12" y2="426.03"/><line class="cls-5" x1="253.12" y1="425.02" x2="256.15" y2="422"/><line class="cls-5" x1="257.16" y1="420.99" x2="257.16" y2="420.99"/><line class="cls-5" x1="258.16" y1="419.98" x2="258.24" y2="419.91"/><line class="cls-5" x1="244.05" y1="426.03" x2="247.08" y2="423"/><line class="cls-5" x1="248.08" y1="422" x2="248.08" y2="422"/><line class="cls-5" x1="249.09" y1="420.99" x2="252.12" y2="417.97"/><line class="cls-5" x1="253.12" y1="416.96" x2="253.12" y2="416.96"/><line class="cls-5" x1="254.13" y1="415.95" x2="257.16" y2="412.93"/><line class="cls-5" x1="258.16" y1="411.92" x2="258.16" y2="411.92"/><line class="cls-5" x1="244.05" y1="417.97" x2="244.05" y2="417.97"/><line class="cls-5" x1="245.06" y1="416.96" x2="248.08" y2="413.94"/><line class="cls-5" x1="249.09" y1="412.93" x2="249.09" y2="412.93"/><line class="cls-5" x1="250.1" y1="411.92" x2="253.12" y2="408.89"/><line class="cls-5" x1="254.13" y1="407.89" x2="254.13" y2="407.89"/><line class="cls-5" x1="255.14" y1="406.88" x2="258.16" y2="403.86"/><line class="cls-5" x1="243.98" y1="409.97" x2="244.05" y2="409.9"/><line class="cls-5" x1="245.06" y1="408.89" x2="245.06" y2="408.89"/><line class="cls-5" x1="246.07" y1="407.89" x2="249.09" y2="404.86"/><line class="cls-5" x1="250.1" y1="403.86" x2="250.1" y2="403.86"/><line class="cls-5" x1="251.11" y1="402.85" x2="254.13" y2="399.83"/><line class="cls-5" x1="255.14" y1="398.82" x2="255.14" y2="398.82"/><line class="cls-5" x1="256.15" y1="397.81" x2="258.24" y2="395.72"/><line class="cls-5" x1="243.98" y1="401.91" x2="245.06" y2="400.83"/><line class="cls-5" x1="246.07" y1="399.83" x2="246.07" y2="399.83"/><line class="cls-5" x1="247.08" y1="398.82" x2="250.1" y2="395.79"/><line class="cls-5" x1="251.11" y1="394.79" x2="251.11" y2="394.79"/><line class="cls-5" x1="252.12" y1="393.78" x2="255.14" y2="390.75"/><line class="cls-5" x1="256.15" y1="389.74" x2="256.15" y2="389.74"/><line class="cls-5" x1="257.16" y1="388.74" x2="258.24" y2="387.66"/><line class="cls-5" x1="243.98" y1="393.85" x2="246.07" y2="391.76"/><line class="cls-5" x1="247.08" y1="390.75" x2="247.08" y2="390.75"/><line class="cls-5" x1="248.08" y1="389.74" x2="251.11" y2="386.72"/><line class="cls-5" x1="252.12" y1="385.71" x2="252.12" y2="385.71"/><line class="cls-5" x1="253.12" y1="384.71" x2="254.31" y2="383.52"/><line class="cls-5" x1="244.05" y1="385.71" x2="246.25" y2="383.52"/><line class="cls-5" x1="258.24" y1="383.52" x2="243.98" y2="383.52"/><line class="cls-5" x1="243.98" y1="383.52" x2="243.98" y2="454.79"/><line class="cls-5" x1="243.98" y1="454.79" x2="258.24" y2="454.79"/><line class="cls-5" x1="258.24" y1="454.79" x2="258.24" y2="383.52"/><line class="cls-5" x1="9.69" y1="454.79" x2="14.5" y2="449.98"/><line class="cls-5" x1="1.63" y1="454.79" x2="14.5" y2="441.91"/><line class="cls-5" x1="0.25" y1="448.1" x2="14.5" y2="433.85"/><line class="cls-5" x1="0.25" y1="440.04" x2="14.5" y2="425.78"/><line class="cls-5" x1="0.25" y1="431.98" x2="14.5" y2="417.72"/><line class="cls-5" x1="0.25" y1="423.91" x2="14.5" y2="409.66"/><line class="cls-5" x1="0.25" y1="415.85" x2="14.5" y2="401.6"/><line class="cls-5" x1="0.25" y1="407.79" x2="14.5" y2="393.54"/><line class="cls-5" x1="0.25" y1="399.73" x2="14.5" y2="385.47"/><line class="cls-5" x1="0.25" y1="391.66" x2="8.39" y2="383.52"/><line class="cls-5" x1="0.25" y1="383.6" x2="0.33" y2="383.52"/><line class="cls-5" x1="13.72" y1="454.79" x2="14.5" y2="454.01"/><line class="cls-5" x1="5.66" y1="454.79" x2="6.2" y2="454.25"/><line class="cls-5" x1="7.21" y1="453.24" x2="7.21" y2="453.24"/><line class="cls-5" x1="8.21" y1="452.23" x2="11.24" y2="449.21"/><line class="cls-5" x1="12.24" y1="448.2" x2="12.24" y2="448.2"/><line class="cls-5" x1="13.25" y1="447.19" x2="14.5" y2="445.94"/><line class="cls-5" x1="0.25" y1="452.13" x2="2.17" y2="450.22"/><line class="cls-5" x1="3.17" y1="449.21" x2="3.17" y2="449.21"/><line class="cls-5" x1="4.18" y1="448.2" x2="7.21" y2="445.18"/><line class="cls-5" x1="8.21" y1="444.17" x2="8.21" y2="444.17"/><line class="cls-5" x1="9.22" y1="443.16" x2="12.24" y2="440.14"/><line class="cls-5" x1="13.25" y1="439.13" x2="13.25" y2="439.13"/><line class="cls-5" x1="14.26" y1="438.12" x2="14.5" y2="437.88"/><line class="cls-5" x1="0.25" y1="444.07" x2="3.17" y2="441.15"/><line class="cls-5" x1="4.18" y1="440.14" x2="4.18" y2="440.14"/><line class="cls-5" x1="5.19" y1="439.13" x2="8.21" y2="436.11"/><line class="cls-5" x1="9.22" y1="435.1" x2="9.22" y2="435.1"/><line class="cls-5" x1="10.23" y1="434.09" x2="13.25" y2="431.07"/><line class="cls-5" x1="14.26" y1="430.06" x2="14.26" y2="430.06"/><line class="cls-5" x1="1.16" y1="435.1" x2="4.18" y2="432.08"/><line class="cls-5" x1="5.19" y1="431.07" x2="5.19" y2="431.07"/><line class="cls-5" x1="6.2" y1="430.06" x2="9.22" y2="427.04"/><line class="cls-5" x1="10.23" y1="426.03" x2="10.23" y2="426.03"/><line class="cls-5" x1="11.24" y1="425.02" x2="14.26" y2="422"/><line class="cls-5" x1="1.16" y1="427.04" x2="1.16" y2="427.04"/><line class="cls-5" x1="2.17" y1="426.03" x2="5.19" y2="423"/><line class="cls-5" x1="6.2" y1="422" x2="6.2" y2="422"/><line class="cls-5" x1="7.21" y1="420.99" x2="10.23" y2="417.97"/><line class="cls-5" x1="11.24" y1="416.96" x2="11.24" y2="416.96"/><line class="cls-5" x1="12.24" y1="415.95" x2="14.5" y2="413.69"/><line class="cls-5" x1="0.25" y1="419.88" x2="1.16" y2="418.97"/><line class="cls-5" x1="2.17" y1="417.97" x2="2.17" y2="417.97"/><line class="cls-5" x1="3.17" y1="416.96" x2="6.2" y2="413.94"/><line class="cls-5" x1="7.21" y1="412.93" x2="7.21" y2="412.93"/><line class="cls-5" x1="8.21" y1="411.92" x2="11.24" y2="408.89"/><line class="cls-5" x1="12.24" y1="407.89" x2="12.24" y2="407.89"/><line class="cls-5" x1="13.25" y1="406.88" x2="14.5" y2="405.63"/><line class="cls-5" x1="0.25" y1="411.82" x2="2.17" y2="409.9"/><line class="cls-5" x1="3.17" y1="408.89" x2="3.17" y2="408.89"/><line class="cls-5" x1="4.18" y1="407.89" x2="7.21" y2="404.86"/><line class="cls-5" x1="8.21" y1="403.86" x2="8.21" y2="403.86"/><line class="cls-5" x1="9.22" y1="402.85" x2="12.24" y2="399.83"/><line class="cls-5" x1="13.25" y1="398.82" x2="13.25" y2="398.82"/><line class="cls-5" x1="14.26" y1="397.81" x2="14.5" y2="397.57"/><line class="cls-5" x1="0.25" y1="403.76" x2="3.17" y2="400.83"/><line class="cls-5" x1="4.18" y1="399.83" x2="4.18" y2="399.83"/><line class="cls-5" x1="5.19" y1="398.82" x2="8.21" y2="395.79"/><line class="cls-5" x1="9.22" y1="394.79" x2="9.22" y2="394.79"/><line class="cls-5" x1="10.23" y1="393.78" x2="13.25" y2="390.75"/><line class="cls-5" x1="14.26" y1="389.74" x2="14.26" y2="389.74"/><line class="cls-5" x1="1.16" y1="394.79" x2="4.18" y2="391.76"/><line class="cls-5" x1="5.19" y1="390.75" x2="5.19" y2="390.75"/><line class="cls-5" x1="6.2" y1="389.74" x2="9.22" y2="386.72"/><line class="cls-5" x1="10.23" y1="385.71" x2="10.23" y2="385.71"/><line class="cls-5" x1="11.24" y1="384.71" x2="12.42" y2="383.52"/><line class="cls-5" x1="1.16" y1="386.72" x2="1.16" y2="386.72"/><line class="cls-5" x1="2.17" y1="385.71" x2="4.36" y2="383.52"/><line class="cls-5" x1="14.5" y1="383.52" x2="0.25" y2="383.52"/><line class="cls-5" x1="0.25" y1="383.52" x2="0.25" y2="454.79"/><line class="cls-5" x1="0.25" y1="454.79" x2="14.5" y2="454.79"/><line class="cls-5" x1="14.5" y1="454.79" x2="14.5" y2="383.52"/><line class="cls-5" x1="456.87" y1="636.52" x2="463.48" y2="629.9"/><line class="cls-5" x1="448.8" y1="636.52" x2="463.06" y2="622.27"/><line class="cls-5" x1="440.74" y1="636.52" x2="454.99" y2="622.27"/><line class="cls-5" x1="432.68" y1="636.52" x2="446.93" y2="622.27"/><line class="cls-5" x1="424.62" y1="636.52" x2="438.87" y2="622.27"/><line class="cls-5" x1="416.55" y1="636.52" x2="430.81" y2="622.27"/><line class="cls-5" x1="408.49" y1="636.52" x2="422.74" y2="622.27"/><line class="cls-5" x1="400.43" y1="636.52" x2="414.68" y2="622.27"/><line class="cls-5" x1="392.36" y1="636.52" x2="406.62" y2="622.27"/><line class="cls-5" x1="392.22" y1="628.6" x2="398.55" y2="622.27"/><line class="cls-5" x1="461.75" y1="635.66" x2="461.75" y2="635.66"/><line class="cls-5" x1="462.76" y1="634.66" x2="463.48" y2="633.93"/><line class="cls-5" x1="453.69" y1="635.66" x2="456.71" y2="632.64"/><line class="cls-5" x1="457.72" y1="631.63" x2="457.72" y2="631.63"/><line class="cls-5" x1="458.73" y1="630.63" x2="461.75" y2="627.6"/><line class="cls-5" x1="462.76" y1="626.59" x2="462.76" y2="626.59"/><line class="cls-5" x1="444.77" y1="636.52" x2="447.64" y2="633.65"/><line class="cls-5" x1="448.65" y1="632.64" x2="448.65" y2="632.64"/><line class="cls-5" x1="449.66" y1="631.63" x2="452.68" y2="628.61"/><line class="cls-5" x1="453.69" y1="627.6" x2="453.69" y2="627.6"/><line class="cls-5" x1="454.7" y1="626.59" x2="457.72" y2="623.57"/><line class="cls-5" x1="458.73" y1="622.56" x2="458.73" y2="622.56"/><line class="cls-5" x1="436.71" y1="636.52" x2="438.57" y2="634.66"/><line class="cls-5" x1="439.58" y1="633.65" x2="439.58" y2="633.65"/><line class="cls-5" x1="440.59" y1="632.64" x2="443.61" y2="629.62"/><line class="cls-5" x1="444.62" y1="628.61" x2="444.62" y2="628.61"/><line class="cls-5" x1="445.63" y1="627.6" x2="448.65" y2="624.58"/><line class="cls-5" x1="449.66" y1="623.57" x2="449.66" y2="623.57"/><line class="cls-5" x1="450.67" y1="622.56" x2="450.96" y2="622.27"/><line class="cls-5" x1="428.65" y1="636.52" x2="429.5" y2="635.66"/><line class="cls-5" x1="430.51" y1="634.66" x2="430.51" y2="634.66"/><line class="cls-5" x1="431.52" y1="633.65" x2="434.54" y2="630.63"/><line class="cls-5" x1="435.55" y1="629.62" x2="435.55" y2="629.62"/><line class="cls-5" x1="436.56" y1="628.61" x2="439.58" y2="625.59"/><line class="cls-5" x1="440.59" y1="624.58" x2="440.59" y2="624.58"/><line class="cls-5" x1="441.6" y1="623.57" x2="442.9" y2="622.27"/><line class="cls-5" x1="421.44" y1="635.66" x2="421.44" y2="635.66"/><line class="cls-5" x1="422.45" y1="634.66" x2="425.47" y2="631.63"/><line class="cls-5" x1="426.48" y1="630.63" x2="426.48" y2="630.63"/><line class="cls-5" x1="427.48" y1="629.62" x2="430.51" y2="626.59"/><line class="cls-5" x1="431.52" y1="625.59" x2="431.52" y2="625.59"/><line class="cls-5" x1="432.52" y1="624.58" x2="434.84" y2="622.27"/><line class="cls-5" x1="413.37" y1="635.66" x2="416.4" y2="632.64"/><line class="cls-5" x1="417.41" y1="631.63" x2="417.41" y2="631.63"/><line class="cls-5" x1="418.42" y1="630.63" x2="421.44" y2="627.6"/><line class="cls-5" x1="422.45" y1="626.59" x2="422.45" y2="626.59"/><line class="cls-5" x1="423.45" y1="625.59" x2="426.48" y2="622.56"/><line class="cls-5" x1="404.46" y1="636.52" x2="407.33" y2="633.65"/><line class="cls-5" x1="408.33" y1="632.64" x2="408.33" y2="632.64"/><line class="cls-5" x1="409.34" y1="631.63" x2="412.37" y2="628.61"/><line class="cls-5" x1="413.37" y1="627.6" x2="413.37" y2="627.6"/><line class="cls-5" x1="414.38" y1="626.59" x2="417.41" y2="623.57"/><line class="cls-5" x1="418.42" y1="622.56" x2="418.42" y2="622.56"/><line class="cls-5" x1="396.39" y1="636.52" x2="398.26" y2="634.66"/><line class="cls-5" x1="399.27" y1="633.65" x2="399.27" y2="633.65"/><line class="cls-5" x1="400.27" y1="632.64" x2="403.3" y2="629.62"/><line class="cls-5" x1="404.3" y1="628.61" x2="404.3" y2="628.61"/><line class="cls-5" x1="405.31" y1="627.6" x2="408.33" y2="624.58"/><line class="cls-5" x1="409.34" y1="623.57" x2="409.34" y2="623.57"/><line class="cls-5" x1="410.35" y1="622.56" x2="410.65" y2="622.27"/><line class="cls-5" x1="392.22" y1="632.64" x2="394.22" y2="630.63"/><line class="cls-5" x1="395.23" y1="629.62" x2="395.23" y2="629.62"/><line class="cls-5" x1="396.24" y1="628.61" x2="399.27" y2="625.59"/><line class="cls-5" x1="400.27" y1="624.58" x2="400.27" y2="624.58"/><line class="cls-5" x1="401.28" y1="623.57" x2="402.58" y2="622.27"/><line class="cls-5" x1="392.22" y1="624.57" x2="394.52" y2="622.27"/><line class="cls-5" x1="392.22" y1="622.27" x2="392.22" y2="636.52"/><line class="cls-5" x1="392.22" y1="636.52" x2="463.48" y2="636.52"/><line class="cls-5" x1="463.48" y1="636.52" x2="463.48" y2="622.27"/><line class="cls-5" x1="463.48" y1="622.27" x2="392.22" y2="622.27"/><line class="cls-5" x1="0.25" y1="105.58" x2="14.5" y2="105.58"/><line class="cls-5" x1="14.5" y1="105.58" x2="14.5" y2="94.18"/><line class="cls-5" x1="14.5" y1="94.18" x2="0.25" y2="94.18"/><line class="cls-5" x1="0.25" y1="85.62" x2="0.25" y2="105.58"/><line class="cls-5" x1="243.98" y1="105.58" x2="258.24" y2="105.58"/><line class="cls-5" x1="258.24" y1="105.58" x2="258.24" y2="94.18"/><line class="cls-5" x1="258.24" y1="94.18" x2="243.98" y2="94.18"/><line class="cls-5" x1="243.98" y1="94.18" x2="243.98" y2="105.58"/><line class="cls-5" x1="457.07" y1="160.45" x2="457.43" y2="160.45"/><line class="cls-5" x1="457.43" y1="160.45" x2="457.43" y2="163.52"/><line class="cls-5" x1="458.28" y1="164.37" x2="465.84" y2="164.37"/><line class="cls-5" x1="466.69" y1="163.52" x2="466.69" y2="160.45"/><line class="cls-5" x1="466.69" y1="160.45" x2="467.05" y2="160.45"/><line class="cls-5" x1="467.05" y1="160.45" x2="467.05" y2="164.73"/><line class="cls-5" x1="467.05" y1="164.73" x2="457.07" y2="164.73"/><line class="cls-5" x1="457.07" y1="164.73" x2="457.07" y2="160.45"/><path class="cls-5" d="M458.28,192.73a.86.86,0,0,1-.85-.86" transform="translate(0 -28.35)"/><path class="cls-5" d="M466.69,191.87a.86.86,0,0,1-.85.86" transform="translate(0 -28.35)"/><line class="cls-5" x1="457.07" y1="100.59" x2="457.43" y2="100.59"/><line class="cls-5" x1="457.43" y1="100.59" x2="457.43" y2="96.1"/><line class="cls-5" x1="458.28" y1="95.25" x2="465.84" y2="95.25"/><line class="cls-5" x1="466.69" y1="96.1" x2="466.69" y2="100.59"/><line class="cls-5" x1="466.69" y1="100.59" x2="466.69" y2="100.59"/><line class="cls-5" x1="466.69" y1="100.59" x2="466.69" y2="85.62"/><line class="cls-5" x1="466.69" y1="94.89" x2="457.07" y2="94.89"/><line class="cls-5" x1="457.07" y1="94.89" x2="457.07" y2="100.59"/><path class="cls-5" d="M457.43,124.45a.85.85,0,0,1,.85-.85" transform="translate(0 -28.35)"/><path class="cls-5" d="M465.84,123.6a.85.85,0,0,1,.85.85" transform="translate(0 -28.35)"/><path class="cls-5" d="M327.62,598.31a56,56,0,0,1-56-56" transform="translate(0 -28.35)"/><line class="cls-5" x1="331.03" y1="513.94" x2="271.6" y2="513.94"/><path class="cls-5" d="M325.94,477.62a63.17,63.17,0,0,0-63.17-63.17" transform="translate(0 -28.35)"/><line class="cls-5" x1="262.77" y1="454.76" x2="262.77" y2="386.1"/><path class="cls-5" d="M174.14,477.79c0-35.4,27.83-64.1,63.24-64.1" transform="translate(0 -28.35)"/><line class="cls-5" x1="237.38" y1="454.76" x2="237.38" y2="385.34"/><path class="cls-5" d="M172.5,599.3a54.86,54.86,0,0,1-54.86-54.86" transform="translate(0 -28.35)"/><line class="cls-5" x1="172.5" y1="516.09" x2="117.64" y2="516.09"/></svg>