<svg id="_155" data-name="155" xmlns="http://www.w3.org/2000/svg" viewBox="0 0 321.2 306.52"><defs><style>.cls-1{isolation:isolate;font-size:6px;fill:#969696;font-family:PTSans-Regular, PT Sans;}.cls-10,.cls-11,.cls-12,.cls-2,.cls-6,.cls-9{fill:none;}.cls-2{stroke:#969696;stroke-width:0.37px;}.cls-10,.cls-11,.cls-12,.cls-2,.cls-9{stroke-linecap:round;stroke-linejoin:round;}.cls-3{font-size:14px;}.cls-3,.cls-7{fill:#231f20;font-family:BigCityGrotesquePro-Regular, BigCity Grotesque Pro;}.cls-4{letter-spacing:-0.02em;}.cls-5{letter-spacing:-0.02em;}.cls-11,.cls-12,.cls-6,.cls-9{stroke:#000;}.cls-6{stroke-miterlimit:10;}.cls-11,.cls-12,.cls-6{stroke-width:0.5px;}.cls-7{font-size:18px;}.cls-8{letter-spacing:-0.02em;}.cls-10{stroke:#212121;stroke-width:0.2px;}.cls-12{stroke-dasharray:3 3;}</style></defs><title>16floor_155flat</title><text class="cls-1" transform="translate(157.81 5.1)">двор</text><line class="cls-2" x1="152.43" y1="2.11" x2="152.43" y2="6.51"/><polyline class="cls-2" points="154.18 3.86 152.43 2.11 150.68 3.86"/><text class="cls-3" transform="translate(45.38 115.98)">11<tspan class="cls-4" x="9.86" y="0">.</tspan><tspan x="12.78" y="0">70</tspan></text><text class="cls-3" transform="translate(146.34 115.98)">1<tspan class="cls-5" x="4.93" y="0">0</tspan><tspan x="12.74" y="0">.20</tspan></text><text class="cls-3" transform="translate(248.08 115.98)">1<tspan class="cls-5" x="4.93" y="0">0</tspan><tspan class="cls-4" x="12.74" y="0">.</tspan><tspan x="15.67" y="0">70</tspan></text><text class="cls-3" transform="translate(251.64 62.85)">1.20</text><text class="cls-3" transform="translate(41.77 265.35)">5.80</text><text class="cls-3" transform="translate(166.77 265.35)">8.50</text><text class="cls-3" transform="translate(259.87 265.35)">3.20</text><rect class="cls-6" x="28.13" y="127.12" width="62.22" height="24.35"/><rect class="cls-6" x="28.13" y="151.48" width="62.22" height="24.35"/><rect class="cls-6" x="28.13" y="175.83" width="62.22" height="24.35"/><text class="cls-7" transform="translate(37.38 144.79)">№155<tspan x="12.56" y="24">2</tspan><tspan class="cls-8" x="21.22" y="24">К</tspan><tspan x="2.48" y="48">51.30</tspan></text><line class="cls-9" x1="293.59" y1="84.11" x2="293.59" y2="86.22"/><line class="cls-9" x1="320.7" y1="101.23" x2="320.7" y2="84.11"/><line class="cls-9" x1="213.95" y1="84.11" x2="213.95" y2="92.57"/><line class="cls-9" x1="232.6" y1="92.57" x2="232.6" y2="84.11"/><line class="cls-9" x1="320.7" y1="84.11" x2="293.59" y2="84.11"/><line class="cls-9" x1="293.59" y1="92.57" x2="320.7" y2="92.57"/><line class="cls-9" x1="232.6" y1="84.11" x2="213.95" y2="84.11"/><line class="cls-9" x1="213.95" y1="92.57" x2="232.6" y2="92.57"/><line class="cls-9" x1="256.3" y1="86.22" x2="256.3" y2="85.58"/><line class="cls-9" x1="186.84" y1="84.11" x2="186.84" y2="86.22"/><line class="cls-9" x1="205.49" y1="92.57" x2="205.49" y2="84.11"/><line class="cls-9" x1="80.14" y1="84.11" x2="80.14" y2="86.22"/><line class="cls-9" x1="125.85" y1="86.22" x2="125.85" y2="84.11"/><line class="cls-9" x1="0.5" y1="84.11" x2="0.5" y2="92.57"/><line class="cls-9" x1="19.15" y1="86.22" x2="19.15" y2="84.11"/><line class="cls-9" x1="205.49" y1="84.11" x2="186.84" y2="84.11"/><line class="cls-9" x1="186.84" y1="92.57" x2="205.49" y2="92.57"/><line class="cls-9" x1="125.85" y1="84.11" x2="80.14" y2="84.11"/><line class="cls-9" x1="80.14" y1="92.57" x2="125.85" y2="92.57"/><line class="cls-9" x1="19.15" y1="84.11" x2="0.5" y2="84.11"/><line class="cls-9" x1="293.59" y1="79.02" x2="293.59" y2="84.11"/><line class="cls-9" x1="320.7" y1="84.11" x2="320.7" y2="79.02"/><line class="cls-9" x1="186.84" y1="79.02" x2="186.84" y2="84.11"/><line class="cls-9" x1="205.49" y1="84.11" x2="213.95" y2="84.11"/><line class="cls-9" x1="232.6" y1="84.11" x2="232.6" y2="79.02"/><line class="cls-9" x1="80.14" y1="79.02" x2="80.14" y2="84.11"/><line class="cls-9" x1="125.85" y1="84.11" x2="125.85" y2="79.02"/><line class="cls-9" x1="19.15" y1="84.11" x2="19.15" y2="79.02"/><line class="cls-9" x1="0.5" y1="79.02" x2="19.15" y2="79.02"/><line class="cls-9" x1="186.84" y1="79.02" x2="232.6" y2="79.02"/><line class="cls-9" x1="293.59" y1="79.02" x2="320.7" y2="79.02"/><line class="cls-9" x1="80.14" y1="79.02" x2="125.85" y2="79.02"/><line class="cls-9" x1="19.15" y1="78.84" x2="80.14" y2="78.84"/><line class="cls-9" x1="125.85" y1="78.84" x2="186.84" y2="78.84"/><line class="cls-9" x1="256.3" y1="78.84" x2="293.59" y2="78.84"/><line class="cls-9" x1="256.3" y1="82.93" x2="256.3" y2="78.84"/><polyline class="cls-9" points="125.85 86.22 125.85 94.26 186.84 94.26 186.84 86.22"/><line class="cls-10" x1="183.8" y1="83.75" x2="147.22" y2="83.75"/><line class="cls-10" x1="147.22" y1="84.29" x2="183.8" y2="84.29"/><polyline class="cls-10" points="183.8 83.75 183.8 84.29 184.3 84.29 184.3 83.75 183.8 83.75"/><polyline class="cls-10" points="147.22 84.29 147.22 83.75 146.72 83.75 146.72 84.29 147.22 84.29"/><line class="cls-10" x1="144.03" y1="84.29" x2="130.08" y2="84.29"/><line class="cls-10" x1="130.08" y1="84.83" x2="144.03" y2="84.83"/><polyline class="cls-10" points="130.08 84.83 130.08 84.29 129.55 84.29 129.55 84.83 130.08 84.83"/><polyline class="cls-10" points="144.03 84.29 144.03 84.83 144.53 84.83 144.53 84.29 144.03 84.29"/><polyline class="cls-10" points="186.02 82.92 183.62 82.92 183.62 83.61 184.3 83.61 184.3 83.75"/><polyline class="cls-10" points="184.3 84.29 184.3 84.39 183.62 84.39 183.62 85.58 186.02 85.58 186.02 82.92"/><polyline class="cls-10" points="126.71 82.92 126.71 85.58 128.4 85.58 128.4 83.39 129.08 83.39 129.08 82.92 126.71 82.92"/><polyline class="cls-10" points="147.37 85.58 147.37 84.39 146.72 84.39 146.72 84.29"/><polyline class="cls-10" points="146.72 83.75 146.72 83.61 147.37 83.61 147.37 82.92 145 82.92 145 83.39 145.68 83.39 145.68 85.58 147.37 85.58"/><line class="cls-10" x1="145" y1="82.93" x2="129.08" y2="82.93"/><line class="cls-10" x1="183.62" y1="85.58" x2="147.37" y2="85.58"/><line class="cls-10" x1="128.4" y1="85.58" x2="128.54" y2="85.58"/><line class="cls-10" x1="145.54" y1="85.58" x2="145.68" y2="85.58"/><line class="cls-10" x1="129.08" y1="83.39" x2="145" y2="83.39"/><line class="cls-10" x1="183.62" y1="83.61" x2="147.37" y2="83.61"/><line class="cls-10" x1="147.37" y1="82.93" x2="183.62" y2="82.93"/><line class="cls-10" x1="147.37" y1="84.4" x2="183.62" y2="84.4"/><line class="cls-10" x1="144.53" y1="84.14" x2="144.53" y2="84.29"/><polyline class="cls-10" points="144.53 84.83 144.53 84.97 143.85 84.97 143.85 86.12 146.22 86.12 146.22 85.61 145.54 85.61 145.54 83.46 143.85 83.46 143.85 84.14 144.53 84.14"/><line class="cls-10" x1="129.55" y1="84.97" x2="129.55" y2="84.83"/><polyline class="cls-10" points="129.55 84.29 129.55 84.14 130.23 84.14 130.23 83.46 128.54 83.46 128.54 85.61 127.86 85.61 127.86 86.12 130.23 86.12 130.23 84.97 129.55 84.97"/><line class="cls-10" x1="130.23" y1="84.14" x2="143.85" y2="84.14"/><line class="cls-10" x1="143.85" y1="84.97" x2="130.23" y2="84.97"/><line class="cls-10" x1="130.23" y1="86.12" x2="143.85" y2="86.12"/><line class="cls-10" x1="143.85" y1="83.46" x2="130.23" y2="83.46"/><line class="cls-11" x1="314.24" y1="72.42" x2="314.24" y2="63.78"/><line class="cls-11" x1="314.24" y1="60.37" x2="314.24" y2="43.12"/><line class="cls-11" x1="314.24" y1="41.76" x2="314.24" y2="36.67"/><polyline class="cls-11" points="313.92 36.67 313.56 36.99 313.56 41.76"/><line class="cls-11" x1="313.56" y1="43.12" x2="313.56" y2="60.37"/><line class="cls-11" x1="313.56" y1="62.09" x2="313.56" y2="72.42"/><line class="cls-11" x1="313.56" y1="73.78" x2="313.56" y2="74.79"/><line class="cls-11" x1="313.06" y1="36.35" x2="310.19" y2="36.35"/><line class="cls-11" x1="308.83" y1="36.35" x2="289.36" y2="36.35"/><line class="cls-11" x1="287.64" y1="36.35" x2="279.53" y2="36.35"/><line class="cls-11" x1="278.17" y1="36.35" x2="263.94" y2="36.35"/><line class="cls-11" x1="262.25" y1="36.35" x2="248.84" y2="36.35"/><line class="cls-11" x1="247.51" y1="36.35" x2="238.51" y2="36.35"/><line class="cls-11" x1="236.83" y1="36.35" x2="218.18" y2="36.35"/><line class="cls-11" x1="216.82" y1="36.35" x2="213.13" y2="36.35"/><polyline class="cls-11" points="213.13 36.67 213.45 36.99 216.82 36.99"/><line class="cls-11" x1="218.18" y1="36.99" x2="247.51" y2="36.99"/><line class="cls-11" x1="248.84" y1="36.99" x2="278.17" y2="36.99"/><line class="cls-11" x1="279.53" y1="36.99" x2="308.83" y2="36.99"/><line class="cls-11" x1="310.19" y1="36.99" x2="313.56" y2="36.99"/><line class="cls-11" x1="212.77" y1="36.67" x2="212.77" y2="41.76"/><line class="cls-11" x1="212.77" y1="43.12" x2="212.77" y2="60.37"/><line class="cls-11" x1="212.77" y1="62.09" x2="212.77" y2="72.42"/><line class="cls-11" x1="212.77" y1="73.78" x2="212.77" y2="74.79"/><line class="cls-11" x1="213.45" y1="78.84" x2="213.45" y2="73.78"/><line class="cls-11" x1="213.45" y1="72.42" x2="213.45" y2="43.12"/><line class="cls-11" x1="213.45" y1="41.76" x2="213.45" y2="36.99"/><line class="cls-11" x1="165.83" y1="77.51" x2="165.83" y2="78.84"/><line class="cls-11" x1="166.51" y1="77.51" x2="166.51" y2="78.84"/><line class="cls-11" x1="146.87" y1="77.51" x2="146.87" y2="78.84"/><line class="cls-11" x1="146.18" y1="77.51" x2="146.18" y2="78.84"/><polyline class="cls-11" points="142.81 63.96 169.92 63.96 169.92 77.51 142.81 77.51 142.81 63.96"/><polyline class="cls-11" points="173.29 78.84 173.29 60.05 139.41 60.05 139.41 78.84"/><polyline class="cls-11" points="141.63 78.84 141.63 62.24 171.1 62.24 171.1 78.84"/><line class="cls-11" x1="141.63" y1="62.42" x2="171.1" y2="62.42"/><polyline class="cls-9" points="0.5 79.02 0.5 297.56 3.91 297.56"/><polyline class="cls-9" points="3.91 297.56 7.96 297.56 7.96 92.57"/><line class="cls-9" x1="19.15" y1="92.57" x2="3.91" y2="92.57"/><line class="cls-9" x1="3.91" y1="92.57" x2="0.5" y2="92.57"/><line class="cls-9" x1="303.77" y1="296.88" x2="303.77" y2="278.92"/><line class="cls-9" x1="98.78" y1="296.88" x2="98.78" y2="267.91"/><polyline class="cls-9" points="86.91 296.88 86.91 277.23 95.45 277.23 95.45 296.88"/><line class="cls-9" x1="98.78" y1="267.91" x2="109.93" y2="267.91"/><polyline class="cls-9" points="114.02 267.91 115.71 267.91 115.71 296.88"/><polyline class="cls-9" points="303.77 278.92 296.13 278.92 296.13 248.44 311.52 248.44"/><line class="cls-9" x1="80.14" y1="78.87" x2="19.15" y2="78.87"/><line class="cls-9" x1="19.15" y1="78.84" x2="80.14" y2="78.84"/><line class="cls-9" x1="186.84" y1="78.87" x2="125.85" y2="78.87"/><line class="cls-9" x1="125.85" y1="78.84" x2="186.84" y2="78.84"/><line class="cls-9" x1="205.49" y1="86.37" x2="207.75" y2="84.11"/><line class="cls-9" x1="205.49" y1="94.08" x2="213.95" y2="85.61"/><line class="cls-9" x1="205.49" y1="101.82" x2="213.95" y2="93.32"/><line class="cls-9" x1="205.49" y1="109.53" x2="213.95" y2="101.07"/><line class="cls-9" x1="205.49" y1="117.28" x2="213.95" y2="108.78"/><line class="cls-9" x1="205.49" y1="124.98" x2="213.95" y2="116.52"/><line class="cls-9" x1="205.49" y1="132.73" x2="213.95" y2="124.23"/><line class="cls-9" x1="205.49" y1="140.44" x2="213.95" y2="131.98"/><line class="cls-9" x1="205.49" y1="148.18" x2="213.95" y2="139.72"/><line class="cls-9" x1="205.49" y1="155.89" x2="213.95" y2="147.43"/><line class="cls-9" x1="205.49" y1="163.64" x2="213.95" y2="155.18"/><line class="cls-9" x1="211.44" y1="165.43" x2="213.95" y2="162.88"/><line class="cls-9" x1="205.49" y1="90.2" x2="208.93" y2="86.76"/><line class="cls-9" x1="209.9" y1="85.79" x2="209.97" y2="85.72"/><line class="cls-9" x1="210.87" y1="84.83" x2="211.59" y2="84.11"/><line class="cls-9" x1="205.49" y1="97.95" x2="206.03" y2="97.41"/><line class="cls-9" x1="207" y1="96.44" x2="207.07" y2="96.34"/><line class="cls-9" x1="207.96" y1="95.47" x2="212.8" y2="90.63"/><line class="cls-9" x1="213.77" y1="89.67" x2="213.84" y2="89.59"/><line class="cls-9" x1="205.49" y1="105.66" x2="209.9" y2="101.25"/><line class="cls-9" x1="210.87" y1="100.28" x2="210.94" y2="100.21"/><line class="cls-9" x1="211.84" y1="99.31" x2="213.95" y2="97.2"/><line class="cls-9" x1="205.49" y1="113.4" x2="207" y2="111.9"/><line class="cls-9" x1="207.96" y1="110.93" x2="208.04" y2="110.86"/><line class="cls-9" x1="208.93" y1="109.96" x2="213.77" y2="105.12"/><line class="cls-9" x1="206.03" y1="120.57" x2="210.87" y2="115.73"/><line class="cls-9" x1="211.84" y1="114.8" x2="211.91" y2="114.69"/><line class="cls-9" x1="212.8" y1="113.83" x2="213.95" y2="112.65"/><line class="cls-9" x1="205.49" y1="128.86" x2="207.96" y2="126.38"/><line class="cls-9" x1="208.93" y1="125.41" x2="209" y2="125.34"/><line class="cls-9" x1="209.9" y1="124.45" x2="213.95" y2="120.39"/><line class="cls-9" x1="206.03" y1="136.03" x2="206.1" y2="135.96"/><line class="cls-9" x1="207" y1="135.06" x2="211.84" y2="130.26"/><line class="cls-9" x1="212.8" y1="129.29" x2="212.88" y2="129.18"/><line class="cls-9" x1="213.77" y1="128.32" x2="213.95" y2="128.1"/><line class="cls-9" x1="205.49" y1="144.31" x2="208.93" y2="140.87"/><line class="cls-9" x1="209.9" y1="139.9" x2="209.97" y2="139.83"/><line class="cls-9" x1="210.87" y1="138.93" x2="213.95" y2="135.85"/><line class="cls-9" x1="205.49" y1="152.06" x2="206.03" y2="151.48"/><line class="cls-9" x1="207" y1="150.51" x2="207.07" y2="150.44"/><line class="cls-9" x1="207.96" y1="149.55" x2="212.8" y2="144.74"/><line class="cls-9" x1="213.77" y1="143.77" x2="213.84" y2="143.7"/><line class="cls-9" x1="205.49" y1="159.77" x2="209.9" y2="155.35"/><line class="cls-9" x1="210.87" y1="154.39" x2="210.94" y2="154.31"/><line class="cls-9" x1="211.84" y1="153.42" x2="213.95" y2="151.3"/><line class="cls-9" x1="207.96" y1="165" x2="208.04" y2="164.93"/><line class="cls-9" x1="208.93" y1="164.07" x2="213.77" y2="159.23"/><polyline class="cls-9" points="213.95 165.43 213.95 84.11 205.49 84.11 205.49 165.43 213.95 165.43"/><line class="cls-9" x1="169.06" y1="300.5" x2="172.04" y2="297.56"/><line class="cls-9" x1="171.28" y1="306.02" x2="179.75" y2="297.56"/><line class="cls-9" x1="179.03" y1="306.02" x2="187.49" y2="297.56"/><line class="cls-9" x1="186.74" y1="306.02" x2="195.2" y2="297.56"/><line class="cls-9" x1="194.48" y1="306.02" x2="202.94" y2="297.56"/><line class="cls-9" x1="202.19" y1="306.02" x2="210.65" y2="297.56"/><line class="cls-9" x1="209.94" y1="306.02" x2="218.4" y2="297.56"/><line class="cls-9" x1="217.65" y1="306.02" x2="226.14" y2="297.56"/><line class="cls-9" x1="225.39" y1="306.02" x2="233.85" y2="297.56"/><line class="cls-9" x1="233.1" y1="306.02" x2="241.6" y2="297.56"/><line class="cls-9" x1="240.84" y1="306.02" x2="249.31" y2="297.56"/><line class="cls-9" x1="248.55" y1="306.02" x2="250.38" y2="304.23"/><line class="cls-9" x1="169.06" y1="304.37" x2="169.31" y2="304.12"/><line class="cls-9" x1="170.28" y1="303.15" x2="170.39" y2="303.08"/><line class="cls-9" x1="171.25" y1="302.19" x2="175.91" y2="297.56"/><line class="cls-9" x1="175.16" y1="306.02" x2="179.96" y2="301.22"/><line class="cls-9" x1="180.93" y1="300.25" x2="181" y2="300.18"/><line class="cls-9" x1="181.9" y1="299.28" x2="183.62" y2="297.56"/><line class="cls-9" x1="182.86" y1="306.02" x2="183.8" y2="305.09"/><line class="cls-9" x1="184.77" y1="304.12" x2="184.87" y2="304.05"/><line class="cls-9" x1="185.73" y1="303.15" x2="190.57" y2="298.31"/><line class="cls-9" x1="190.61" y1="306.02" x2="194.45" y2="302.19"/><line class="cls-9" x1="195.41" y1="301.22" x2="195.49" y2="301.15"/><line class="cls-9" x1="196.38" y1="300.25" x2="199.07" y2="297.56"/><line class="cls-9" x1="199.29" y1="305.09" x2="199.36" y2="305.02"/><line class="cls-9" x1="200.22" y1="304.12" x2="205.06" y2="299.28"/><line class="cls-9" x1="206.03" y1="298.31" x2="206.1" y2="298.24"/><line class="cls-9" x1="206.06" y1="306.02" x2="208.93" y2="303.15"/><line class="cls-9" x1="209.9" y1="302.19" x2="209.97" y2="302.11"/><line class="cls-9" x1="210.87" y1="301.22" x2="214.53" y2="297.56"/><line class="cls-9" x1="213.81" y1="306.02" x2="213.84" y2="305.99"/><line class="cls-9" x1="214.74" y1="305.09" x2="219.55" y2="300.25"/><line class="cls-9" x1="220.51" y1="299.28" x2="220.59" y2="299.21"/><line class="cls-9" x1="221.48" y1="298.31" x2="222.27" y2="297.56"/><line class="cls-9" x1="221.52" y1="306.02" x2="223.42" y2="304.12"/><line class="cls-9" x1="224.39" y1="303.15" x2="224.46" y2="303.08"/><line class="cls-9" x1="225.35" y1="302.19" x2="229.98" y2="297.56"/><line class="cls-9" x1="229.26" y1="306.02" x2="234.03" y2="301.22"/><line class="cls-9" x1="235" y1="300.25" x2="235.11" y2="300.18"/><line class="cls-9" x1="235.97" y1="299.28" x2="237.72" y2="297.56"/><line class="cls-9" x1="236.97" y1="306.02" x2="237.9" y2="305.09"/><line class="cls-9" x1="238.87" y1="304.12" x2="238.94" y2="304.05"/><line class="cls-9" x1="239.84" y1="303.15" x2="244.68" y2="298.31"/><line class="cls-9" x1="244.72" y1="306.02" x2="248.52" y2="302.19"/><line class="cls-9" x1="249.49" y1="301.22" x2="249.59" y2="301.15"/><polyline class="cls-9" points="169.06 297.56 169.06 306.02 250.38 306.02 250.38 297.56 169.06 297.56"/><polyline class="cls-9" points="19.14 86.22 19.14 94.26 80.14 94.26 80.14 86.22"/><line class="cls-10" x1="58.62" y1="83.75" x2="22.34" y2="83.75"/><line class="cls-10" x1="22.34" y1="84.29" x2="58.62" y2="84.29"/><polyline class="cls-10" points="58.66 83.75 58.66 84.29 59.16 84.29 59.16 83.75 58.66 83.75"/><polyline class="cls-10" points="22.34 84.29 22.34 83.75 21.83 83.75 21.83 84.29 22.34 84.29"/><line class="cls-10" x1="75.94" y1="84.29" x2="61.96" y2="84.29"/><line class="cls-10" x1="61.96" y1="84.83" x2="75.94" y2="84.83"/><polyline class="cls-10" points="75.94 84.29 75.94 84.83 76.44 84.83 76.44 84.29 75.94 84.29"/><polyline class="cls-10" points="61.96 84.83 61.96 84.29 61.46 84.29 61.46 84.83 61.96 84.83"/><polyline class="cls-10" points="20.01 85.58 22.37 85.58 22.37 84.39 21.69 84.39 21.69 83.61 22.37 83.61 22.37 82.92 20.01 82.92 20.01 85.58"/><line class="cls-10" x1="58.62" y1="85.58" x2="22.37" y2="85.58"/><line class="cls-10" x1="22.37" y1="84.4" x2="58.62" y2="84.4"/><line class="cls-10" x1="58.62" y1="83.61" x2="22.37" y2="83.61"/><line class="cls-10" x1="22.37" y1="82.93" x2="58.62" y2="82.93"/><polyline class="cls-10" points="60.99 83.39 60.99 82.92 58.62 82.92 58.62 85.58 60.31 85.58 60.31 83.39 60.99 83.39"/><polyline class="cls-10" points="60.99 82.92 76.91 82.92 76.91 83.39 77.59 83.39 77.59 85.58 79.28 85.58 79.28 82.92 76.91 82.92"/><line class="cls-10" x1="60.99" y1="83.39" x2="76.91" y2="83.39"/><line class="cls-10" x1="60.31" y1="85.58" x2="60.45" y2="85.58"/><line class="cls-10" x1="77.45" y1="85.58" x2="77.59" y2="85.58"/><line class="cls-10" x1="61.46" y1="84.97" x2="61.46" y2="84.83"/><polyline class="cls-10" points="61.46 84.29 61.46 84.14 62.14 84.14 62.14 83.46 60.45 83.46 60.45 85.61 59.77 85.61 59.77 86.12 62.14 86.12 62.14 84.97 61.46 84.97"/><line class="cls-10" x1="76.44" y1="84.14" x2="76.44" y2="84.29"/><polyline class="cls-10" points="76.44 84.83 76.44 84.97 75.76 84.97 75.76 86.12 78.13 86.12 78.13 85.61 77.45 85.61 77.45 83.46 75.76 83.46 75.76 84.14 76.44 84.14"/><line class="cls-10" x1="62.14" y1="84.14" x2="75.76" y2="84.14"/><line class="cls-10" x1="75.76" y1="84.97" x2="62.14" y2="84.97"/><line class="cls-10" x1="62.14" y1="86.12" x2="75.76" y2="86.12"/><line class="cls-10" x1="75.76" y1="83.46" x2="62.14" y2="83.46"/><line class="cls-9" x1="113.34" y1="252.31" x2="110.61" y2="252.31"/><line class="cls-9" x1="110.61" y1="270.45" x2="113.34" y2="270.45"/><line class="cls-9" x1="110.61" y1="225.2" x2="113.34" y2="225.2"/><line class="cls-9" x1="113.34" y1="252.31" x2="113.34" y2="270.45"/><line class="cls-9" x1="113.34" y1="222.51" x2="113.34" y2="225.2"/><line class="cls-9" x1="113.34" y1="92.57" x2="113.34" y2="219.79"/><line class="cls-9" x1="110.61" y1="252.31" x2="110.61" y2="270.45"/><line class="cls-9" x1="110.61" y1="92.57" x2="110.61" y2="225.2"/><line class="cls-9" x1="156.37" y1="222.51" x2="156.37" y2="219.79"/><line class="cls-9" x1="216.82" y1="222.51" x2="216.82" y2="219.79"/><line class="cls-9" x1="183.47" y1="219.79" x2="183.47" y2="222.51"/><line class="cls-9" x1="243.93" y1="219.79" x2="243.93" y2="222.51"/><line class="cls-9" x1="156.37" y1="222.51" x2="113.34" y2="222.51"/><line class="cls-9" x1="216.82" y1="222.51" x2="183.47" y2="222.51"/><line class="cls-9" x1="245.65" y1="223.19" x2="246.33" y2="223.19"/><line class="cls-9" x1="246.33" y1="222.51" x2="243.93" y2="222.51"/><line class="cls-9" x1="246.33" y1="222.51" x2="246.33" y2="219.79"/><line class="cls-9" x1="216.82" y1="219.79" x2="213.27" y2="219.79"/><line class="cls-9" x1="210.58" y1="219.79" x2="183.47" y2="219.79"/><line class="cls-9" x1="156.37" y1="219.79" x2="113.34" y2="219.79"/><line class="cls-9" x1="213.27" y1="165.43" x2="210.58" y2="165.43"/><line class="cls-9" x1="210.58" y1="219.79" x2="210.58" y2="165.43"/><line class="cls-9" x1="213.27" y1="219.79" x2="213.27" y2="165.43"/><line class="cls-9" x1="246.33" y1="248.44" x2="250.38" y2="248.44"/><line class="cls-9" x1="250.38" y1="275.54" x2="246.33" y2="275.54"/><line class="cls-9" x1="246.33" y1="297.56" x2="246.33" y2="275.54"/><line class="cls-9" x1="250.38" y1="297.56" x2="250.38" y2="275.54"/><line class="cls-9" x1="250.38" y1="248.44" x2="250.38" y2="223.88"/><line class="cls-9" x1="312.2" y1="223.88" x2="312.2" y2="219.79"/><line class="cls-9" x1="312.2" y1="223.88" x2="250.38" y2="223.88"/><line class="cls-9" x1="312.2" y1="219.79" x2="243.93" y2="219.79"/><line class="cls-9" x1="246.33" y1="222.51" x2="246.33" y2="248.44"/><line class="cls-9" x1="320.7" y1="219.79" x2="320.7" y2="223.88"/><polyline class="cls-9" points="84.19 297.56 86.91 297.56 86.91 277.23 84.19 277.23"/><line class="cls-9" x1="84.19" y1="297.56" x2="84.19" y2="277.23"/><line class="cls-9" x1="120.62" y1="306.02" x2="120.62" y2="303.3"/><line class="cls-9" x1="120.62" y1="300.93" x2="120.62" y2="297.56"/><line class="cls-9" x1="0.5" y1="297.56" x2="0.5" y2="306.02"/><line class="cls-9" x1="156.19" y1="297.56" x2="156.19" y2="300.93"/><line class="cls-9" x1="156.19" y1="303.3" x2="156.19" y2="306.02"/><line class="cls-9" x1="120.62" y1="306.02" x2="0.5" y2="306.02"/><line class="cls-9" x1="169.06" y1="306.02" x2="156.19" y2="306.02"/><line class="cls-9" x1="120.62" y1="297.56" x2="0.5" y2="297.56"/><line class="cls-9" x1="169.06" y1="297.56" x2="156.19" y2="297.56"/><line class="cls-9" x1="320.7" y1="306.02" x2="250.38" y2="306.02"/><line class="cls-9" x1="320.7" y1="306.02" x2="320.7" y2="306.02"/><line class="cls-9" x1="312.2" y1="297.56" x2="250.38" y2="297.56"/><line class="cls-9" x1="320.7" y1="92.57" x2="312.2" y2="92.57"/><line class="cls-9" x1="320.7" y1="92.57" x2="320.7" y2="306.02"/><line class="cls-9" x1="312.2" y1="92.57" x2="312.2" y2="297.56"/><polyline class="cls-9" points="150.74 286.19 123.16 302.11 122.48 300.93 150.06 285.01 150.74 286.19"/><polyline class="cls-9" points="121.3 300.93 122.48 300.93 122.48 302.29 122.81 302.29 122.81 303.3 121.3 303.3 121.3 300.93"/><polyline class="cls-9" points="154 303.3 154 302.29 154.32 302.29 154.32 300.93 155.51 300.93 155.51 303.3 154 303.3"/><line class="cls-9" x1="100.47" y1="276.41" x2="102.15" y2="274.68"/><line class="cls-9" x1="104.7" y1="272.14" x2="106.38" y2="270.45"/><line class="cls-9" x1="100.47" y1="284.11" x2="102.15" y2="282.43"/><line class="cls-9" x1="111.76" y1="272.82" x2="114.02" y2="270.56"/><line class="cls-9" x1="107.03" y1="277.55" x2="108.71" y2="275.87"/><line class="cls-9" x1="100.47" y1="291.86" x2="102.26" y2="290.03"/><line class="cls-9" x1="112.3" y1="279.99" x2="114.02" y2="278.31"/><line class="cls-9" x1="102.48" y1="297.56" x2="104.16" y2="295.84"/><line class="cls-9" x1="112.3" y1="287.7" x2="114.02" y2="286.01"/><line class="cls-9" x1="107.89" y1="292.15" x2="109.61" y2="290.42"/><line class="cls-9" x1="110.22" y1="297.56" x2="114.02" y2="293.76"/><line class="cls-9" x1="100.75" y1="272.25" x2="102.55" y2="270.45"/><line class="cls-9" x1="100.47" y1="280.24" x2="102.15" y2="278.56"/><line class="cls-9" x1="108.57" y1="272.14" x2="109.43" y2="271.28"/><line class="cls-9" x1="103.62" y1="277.09" x2="103.73" y2="276.98"/><line class="cls-9" x1="104.59" y1="276.12" x2="104.84" y2="275.87"/><line class="cls-9" x1="100.75" y1="287.7" x2="100.83" y2="287.63"/><line class="cls-9" x1="101.69" y1="286.73" x2="102.15" y2="286.3"/><line class="cls-9" x1="110.87" y1="277.55" x2="113.3" y2="275.15"/><line class="cls-9" x1="100.47" y1="295.7" x2="102.19" y2="293.97"/><line class="cls-9" x1="112.34" y1="283.83" x2="114.02" y2="282.14"/><line class="cls-9" x1="104.59" y1="291.57" x2="104.7" y2="291.5"/><line class="cls-9" x1="105.56" y1="290.6" x2="105.74" y2="290.42"/><line class="cls-9" x1="106.35" y1="297.56" x2="107.49" y2="296.38"/><line class="cls-9" x1="111.69" y1="292.18" x2="114.02" y2="289.89"/><polyline class="cls-9" points="104.48 270.45 100.47 270.45 100.47 283.5 100.47 297.56 114.02 297.56 114.02 270.45 104.48 270.45"/><line class="cls-9" x1="103.01" y1="277.55" x2="111.47" y2="277.55"/><path class="cls-9" d="M112.15,306.75a.83.83,0,0,0-.84-.84" transform="translate(0.18 -28.35)"/><line class="cls-9" x1="112.3" y1="278.41" x2="112.3" y2="289.6"/><path class="cls-9" d="M111.31,318.78a.84.84,0,0,0,.84-.85" transform="translate(0.18 -28.35)"/><line class="cls-9" x1="111.47" y1="290.42" x2="103.01" y2="290.42"/><path class="cls-9" d="M102,317.93a.84.84,0,0,0,.84.85" transform="translate(0.18 -28.35)"/><line class="cls-9" x1="102.15" y1="289.6" x2="102.15" y2="278.41"/><path class="cls-9" d="M102.85,305.91a.83.83,0,0,0-.84.84" transform="translate(0.18 -28.35)"/><line class="cls-9" x1="103.01" y1="292.15" x2="111.47" y2="292.15"/><path class="cls-9" d="M112.15,321.31a.84.84,0,0,0-.84-.85" transform="translate(0.18 -28.35)"/><line class="cls-9" x1="112.3" y1="292.97" x2="112.3" y2="293.83"/><path class="cls-9" d="M110.13,324.19a2,2,0,0,0,2-2" transform="translate(0.18 -28.35)"/><line class="cls-9" x1="110.29" y1="295.88" x2="104.2" y2="295.88"/><path class="cls-9" d="M102,322.17a2,2,0,0,0,2,2" transform="translate(0.18 -28.35)"/><line class="cls-9" x1="102.15" y1="293.83" x2="102.15" y2="292.97"/><path class="cls-9" d="M102.85,320.46a.84.84,0,0,0-.84.85" transform="translate(0.18 -28.35)"/><line class="cls-9" x1="104.2" y1="272.14" x2="110.29" y2="272.14"/><path class="cls-9" d="M112.15,302.52a2,2,0,0,0-2-2" transform="translate(0.18 -28.35)"/><line class="cls-9" x1="112.3" y1="274.18" x2="112.3" y2="275.01"/><path class="cls-9" d="M111.31,304.18a.83.83,0,0,0,.84-.84" transform="translate(0.18 -28.35)"/><line class="cls-9" x1="111.47" y1="275.87" x2="103.01" y2="275.87"/><path class="cls-9" d="M102,303.34a.83.83,0,0,0,.84.84" transform="translate(0.18 -28.35)"/><line class="cls-9" x1="102.15" y1="275.01" x2="102.15" y2="274.18"/><path class="cls-9" d="M104,300.49a2,2,0,0,0-2,2" transform="translate(0.18 -28.35)"/><path class="cls-9" d="M112,323l.06-.16" transform="translate(0.18 -28.35)"/><path class="cls-9" d="M110.82,324.07,111,324" transform="translate(0.18 -28.35)"/><path class="cls-9" d="M103.18,324l.16.07" transform="translate(0.18 -28.35)"/><path class="cls-9" d="M102.13,322.86a1.11,1.11,0,0,0,.07.16" transform="translate(0.18 -28.35)"/><path class="cls-9" d="M102.2,301.66a1.11,1.11,0,0,0-.07.16" transform="translate(0.18 -28.35)"/><path class="cls-9" d="M103.34,300.61l-.16.07" transform="translate(0.18 -28.35)"/><path class="cls-9" d="M111,300.68l-.16-.07" transform="translate(0.18 -28.35)"/><path class="cls-9" d="M112,301.82l-.06-.16" transform="translate(0.18 -28.35)"/><line class="cls-9" x1="298.64" y1="255.93" x2="300.37" y2="254.25"/><line class="cls-9" x1="302.77" y1="251.81" x2="304.49" y2="250.12"/><line class="cls-9" x1="298.64" y1="263.68" x2="300.37" y2="261.96"/><line class="cls-9" x1="309.9" y1="252.42" x2="312.2" y2="250.12"/><line class="cls-9" x1="305.1" y1="257.22" x2="306.78" y2="255.54"/><line class="cls-9" x1="298.64" y1="271.39" x2="300.44" y2="269.59"/><line class="cls-9" x1="310.51" y1="259.52" x2="312.2" y2="257.83"/><line class="cls-9" x1="300.54" y1="277.23" x2="302.27" y2="275.51"/><line class="cls-9" x1="310.51" y1="267.26" x2="312.2" y2="265.58"/><line class="cls-9" x1="305.96" y1="271.82" x2="307.68" y2="270.09"/><line class="cls-9" x1="308.29" y1="277.23" x2="312.2" y2="273.29"/><line class="cls-9" x1="298.64" y1="252.06" x2="300.62" y2="250.12"/><line class="cls-9" x1="298.64" y1="259.8" x2="299.72" y2="258.73"/><line class="cls-9" x1="307.47" y1="250.98" x2="307.54" y2="250.91"/><line class="cls-9" x1="301.66" y1="256.79" x2="302.91" y2="255.54"/><line class="cls-9" x1="298.75" y1="267.41" x2="300.37" y2="265.83"/><line class="cls-9" x1="308.94" y1="257.22" x2="310.37" y2="255.82"/><line class="cls-9" x1="311.34" y1="254.86" x2="311.41" y2="254.78"/><line class="cls-9" x1="298.64" y1="275.26" x2="300.37" y2="273.54"/><line class="cls-9" x1="310.51" y1="263.39" x2="312.2" y2="261.7"/><line class="cls-9" x1="302.62" y1="271.28" x2="303.81" y2="270.09"/><line class="cls-9" x1="304.42" y1="277.23" x2="304.56" y2="277.09"/><line class="cls-9" x1="305.53" y1="276.12" x2="305.6" y2="276.01"/><line class="cls-9" x1="309.8" y1="271.85" x2="311.34" y2="270.31"/><line class="cls-9" x1="312.13" y1="277.23" x2="312.2" y2="277.16"/><polyline class="cls-9" points="304.7 250.12 298.64 250.12 298.64 255.79 298.64 277.23 312.2 277.23 312.2 250.12 304.7 250.12"/><line class="cls-9" x1="301.19" y1="257.22" x2="309.65" y2="257.22"/><path class="cls-9" d="M310.33,286.42a.85.85,0,0,0-.84-.85" transform="translate(0.18 -28.35)"/><line class="cls-9" x1="310.51" y1="258.08" x2="310.51" y2="269.27"/><path class="cls-9" d="M309.49,298.45a.85.85,0,0,0,.84-.85" transform="translate(0.18 -28.35)"/><line class="cls-9" x1="309.65" y1="270.09" x2="301.19" y2="270.09"/><path class="cls-9" d="M300.18,297.6a.85.85,0,0,0,.85.85" transform="translate(0.18 -28.35)"/><line class="cls-9" x1="300.37" y1="269.27" x2="300.37" y2="258.08"/><path class="cls-9" d="M301,285.57a.85.85,0,0,0-.85.85" transform="translate(0.18 -28.35)"/><line class="cls-9" x1="301.19" y1="271.82" x2="309.65" y2="271.82"/><path class="cls-9" d="M310.33,301a.85.85,0,0,0-.84-.84" transform="translate(0.18 -28.35)"/><line class="cls-9" x1="310.51" y1="272.64" x2="310.51" y2="273.5"/><path class="cls-9" d="M308.31,303.86a2,2,0,0,0,2-2" transform="translate(0.18 -28.35)"/><line class="cls-9" x1="308.47" y1="275.54" x2="302.37" y2="275.54"/><path class="cls-9" d="M300.18,301.84a2,2,0,0,0,2,2" transform="translate(0.18 -28.35)"/><line class="cls-9" x1="300.37" y1="273.5" x2="300.37" y2="272.64"/><path class="cls-9" d="M301,300.13a.85.85,0,0,0-.85.84" transform="translate(0.18 -28.35)"/><line class="cls-9" x1="302.37" y1="251.81" x2="308.47" y2="251.81"/><path class="cls-9" d="M310.33,282.19a2,2,0,0,0-2-2" transform="translate(0.18 -28.35)"/><line class="cls-9" x1="310.51" y1="253.85" x2="310.51" y2="254.68"/><path class="cls-9" d="M309.49,283.85a.84.84,0,0,0,.84-.84" transform="translate(0.18 -28.35)"/><line class="cls-9" x1="309.65" y1="255.54" x2="301.19" y2="255.54"/><path class="cls-9" d="M300.18,283a.84.84,0,0,0,.85.84" transform="translate(0.18 -28.35)"/><line class="cls-9" x1="300.37" y1="254.68" x2="300.37" y2="253.85"/><path class="cls-9" d="M302.21,280.16a2,2,0,0,0-2,2" transform="translate(0.18 -28.35)"/><path class="cls-9" d="M310.16,302.66a.69.69,0,0,1,0-.13" transform="translate(0.18 -28.35)"/><path class="cls-9" d="M309,303.74l.16-.07" transform="translate(0.18 -28.35)"/><path class="cls-9" d="M301.36,303.67l.16.07" transform="translate(0.18 -28.35)"/><path class="cls-9" d="M300.31,302.53a.69.69,0,0,0,.05.13" transform="translate(0.18 -28.35)"/><path class="cls-9" d="M300.37,281.33l-.06.16" transform="translate(0.18 -28.35)"/><path class="cls-9" d="M301.52,280.28l-.16.07" transform="translate(0.18 -28.35)"/><path class="cls-9" d="M309.16,280.35l-.16-.07" transform="translate(0.18 -28.35)"/><path class="cls-9" d="M310.21,281.49a1.11,1.11,0,0,0-.07-.16" transform="translate(0.18 -28.35)"/><polyline class="cls-9" points="255.47 86.22 255.47 94.26 293.59 94.26 293.59 86.22"/><line class="cls-10" x1="289.36" y1="84.29" x2="258.81" y2="84.29"/><line class="cls-10" x1="258.81" y1="84.83" x2="289.36" y2="84.83"/><polyline class="cls-10" points="289.36 84.29 289.36 84.83 289.89 84.83 289.89 84.29 289.36 84.29"/><polyline class="cls-10" points="258.81 84.83 258.81 84.29 258.31 84.29 258.31 84.83 258.81 84.83"/><polyline class="cls-9" points="251.28 94.86 251.78 94 235.65 84.68 235.14 85.58 251.28 94.86"/><line class="cls-10" x1="258.31" y1="84.97" x2="258.31" y2="84.83"/><polyline class="cls-10" points="258.31 84.29 258.31 84.14 258.99 84.14 258.99 83.46 257.3 83.46 257.3 85.61 256.62 85.61 256.62 86.12 258.99 86.12 258.99 84.97 258.31 84.97"/><line class="cls-10" x1="289.9" y1="84.14" x2="289.9" y2="84.29"/><polyline class="cls-10" points="289.89 84.83 289.89 84.97 289.21 84.97 289.21 86.12 291.58 86.12 291.58 85.61 290.9 85.61 290.9 83.46 289.21 83.46 289.21 84.14 289.89 84.14"/><line class="cls-10" x1="258.99" y1="84.14" x2="289.21" y2="84.14"/><line class="cls-10" x1="289.21" y1="84.97" x2="258.99" y2="84.97"/><line class="cls-10" x1="258.99" y1="86.12" x2="289.21" y2="86.12"/><line class="cls-10" x1="289.21" y1="83.46" x2="258.99" y2="83.46"/><polyline class="cls-10" points="233.42 82.92 233.42 85.58 235.14 85.58 235.14 83.39 235.82 83.39 235.82 82.92 233.42 82.92"/><polyline class="cls-10" points="253.75 83.39 253.75 85.58 257.16 85.58 257.16 83.39 257.84 83.39 257.84 82.92 253.07 82.92 253.07 83.39 253.75 83.39"/><polyline class="cls-10" points="292.73 82.92 290.36 82.92 290.36 83.39 291.04 83.39 291.04 85.58 292.73 85.58 292.73 82.92"/><line class="cls-10" x1="253.07" y1="82.93" x2="235.82" y2="82.93"/><line class="cls-10" x1="257.16" y1="85.58" x2="257.3" y2="85.58"/><line class="cls-10" x1="290.9" y1="85.58" x2="291.04" y2="85.58"/><line class="cls-10" x1="237.15" y1="85.58" x2="253.75" y2="85.58"/><line class="cls-10" x1="235.82" y1="83.39" x2="253.07" y2="83.39"/><line class="cls-10" x1="290.36" y1="82.93" x2="257.84" y2="82.93"/><line class="cls-10" x1="257.84" y1="83.39" x2="290.36" y2="83.39"/><polyline class="cls-11" points="313.06 78.19 313.06 78.84 316.43 78.84 316.43 78.19 313.06 78.19"/><polyline class="cls-11" points="213.13 78.84 213.13 78.19 209.72 78.19 209.72 78.84 213.13 78.84"/><polyline class="cls-11" points="313.06 36.67 316.43 36.67 316.43 33.3 313.06 33.3 313.06 36.67"/><polyline class="cls-11" points="313.06 34.55 289.36 34.55 289.36 35.42 313.06 35.42 313.06 34.55"/><polyline class="cls-11" points="287.64 34.55 263.94 34.55 263.94 35.42 287.64 35.42 287.64 34.55"/><polyline class="cls-11" points="262.25 34.55 238.51 34.55 238.51 35.42 262.25 35.42 262.25 34.55"/><polyline class="cls-11" points="236.83 34.55 213.13 34.55 213.13 35.42 236.83 35.42 236.83 34.55"/><polyline class="cls-11" points="209.72 36.67 213.13 36.67 213.13 33.3 209.72 33.3 209.72 36.67"/><polyline class="cls-11" points="289.36 33.3 287.64 33.3 287.64 36.67 289.36 36.67 289.36 33.3"/><polyline class="cls-11" points="263.94 33.3 262.25 33.3 262.25 36.67 263.25 36.67"/><polyline class="cls-11" points="263.76 36.67 263.94 36.67 263.94 33.3"/><polyline class="cls-11" points="238.51 33.3 236.83 33.3 236.83 36.67 238.51 36.67 238.51 33.3"/><polyline class="cls-11" points="314.31 36.67 314.31 60.37 315.17 60.37 315.17 36.67 314.31 36.67"/><polyline class="cls-11" points="313.06 74.79 313.06 78.19 316.43 78.19 316.43 74.79 313.06 74.79"/><polyline class="cls-11" points="210.98 36.67 210.98 60.37 211.84 60.37 211.84 36.67 210.98 36.67"/><polyline class="cls-11" points="209.72 74.79 209.72 78.19 213.13 78.19 213.13 74.79 209.72 74.79"/><line class="cls-11" x1="263.94" y1="33.3" x2="287.64" y2="33.3"/><line class="cls-11" x1="213.13" y1="33.3" x2="236.83" y2="33.3"/><line class="cls-11" x1="238.51" y1="33.3" x2="262.25" y2="33.3"/><line class="cls-11" x1="289.36" y1="33.3" x2="313.06" y2="33.3"/><line class="cls-11" x1="209.72" y1="60.37" x2="209.72" y2="36.67"/><line class="cls-11" x1="313.06" y1="60.37" x2="313.06" y2="36.99"/><line class="cls-11" x1="316.43" y1="36.67" x2="316.43" y2="60.37"/><polyline class="cls-11" points="211.76 73.1 211.76 63.78 211.08 63.78 211.08 73.1 211.76 73.1"/><polyline class="cls-11" points="212.09 74.79 212.09 73.1 210.72 73.1 210.72 74.79 212.09 74.79"/><polyline class="cls-11" points="212.09 73.1 212.09 63.78 212.09 62.09 210.72 62.09 210.72 63.78 212.09 63.78"/><line class="cls-11" x1="210.72" y1="73.1" x2="210.72" y2="63.78"/><polyline class="cls-11" points="209.72 74.79 209.72 62.09 209.72 60.37"/><polyline class="cls-11" points="209.72 62.09 213.13 62.09 213.13 60.37 209.72 60.37"/><polyline class="cls-11" points="314.42 63.78 314.42 73.1 315.1 73.1 315.1 63.78 314.42 63.78"/><polyline class="cls-11" points="314.06 62.09 314.06 63.78 315.43 63.78 315.43 62.09 314.06 62.09"/><polyline class="cls-11" points="314.06 73.1 314.06 74.79 315.43 74.79 315.43 73.1 314.06 73.1"/><line class="cls-11" x1="315.43" y1="63.78" x2="315.43" y2="73.1"/><line class="cls-11" x1="313.06" y1="74.79" x2="313.06" y2="62.09"/><line class="cls-11" x1="316.43" y1="62.09" x2="316.43" y2="74.79"/><polyline class="cls-11" points="313.06 60.37 313.06 62.09 316.43 62.09 316.43 60.37 313.06 60.37"/><line class="cls-12" x1="8.64" y1="225.07" x2="110.09" y2="225.07"/></svg>