<svg id="_248" data-name="248" xmlns="http://www.w3.org/2000/svg" viewBox="0 0 567.49 447.45"><defs><style>.cls-1{isolation:isolate;font-size:12px;fill:#969696;}.cls-1,.cls-3,.cls-5{font-family:PTSans-Regular, PT Sans;}.cls-2,.cls-4,.cls-6,.cls-7,.cls-8,.cls-9{fill:none;stroke-linecap:round;stroke-linejoin:round;}.cls-2{stroke:#969696;}.cls-2,.cls-7{stroke-width:0.75px;}.cls-3{font-size:24px;}.cls-4,.cls-6,.cls-7,.cls-8,.cls-9{stroke:#000;}.cls-4,.cls-6{stroke-width:0.5px;}.cls-5{font-size:20px;}.cls-6{stroke-dasharray:2.99 2.99;}.cls-8{stroke-width:0.35px;}.cls-9{stroke-width:1.2px;}</style></defs><text class="cls-1" transform="translate(564.29 229.14) rotate(-90)">двор</text><line class="cls-2" x1="567.11" y1="239.9" x2="558.31" y2="239.9"/><polyline class="cls-2" points="563.61 243.4 567.11 239.9 563.61 236.4"/><text class="cls-3" transform="translate(246.01 112.25)">1K</text><text class="cls-3" transform="translate(231.14 142.54)">35.20</text><text class="cls-3" transform="translate(227.97 82.11)">№248</text><polyline class="cls-4" points="222.33 149.06 222.33 59.06 297.39 59.06 297.39 149.06"/><line class="cls-4" x1="222.33" y1="89.12" x2="297.39" y2="89.12"/><line class="cls-4" x1="222.33" y1="149.06" x2="297.39" y2="149.06"/><line class="cls-4" x1="222.33" y1="119.18" x2="297.39" y2="119.18"/><text class="cls-5" transform="translate(492.17 143.4) rotate(-90)">0.70</text><text class="cls-5" transform="translate(331.88 110.03)">12.10</text><text class="cls-5" transform="translate(331.88 324.47)">11.30</text><text class="cls-5" transform="translate(88.94 204.31)">4.10</text><text class="cls-5" transform="translate(85.76 362.75)">3.80</text><text class="cls-5" transform="translate(53.78 73.85)">3.20</text><line class="cls-4" x1="422.87" y1="352.1" x2="421.37" y2="352.1"/><line class="cls-6" x1="418.38" y1="352.1" x2="192.79" y2="352.1"/><line class="cls-4" x1="191.29" y1="352.1" x2="189.79" y2="352.1"/><polyline class="cls-7" points="184.42 405 184.42 434.5 198.51 434.5"/><line class="cls-7" x1="221.91" y1="434.5" x2="245.3" y2="434.5"/><line class="cls-7" x1="268.55" y1="434.5" x2="291.95" y2="434.5"/><line class="cls-7" x1="315.34" y1="434.5" x2="338.59" y2="434.5"/><line class="cls-7" x1="361.99" y1="434.5" x2="385.24" y2="434.5"/><polyline class="cls-7" points="408.63 434.5 422.87 434.5 422.87 405"/><line class="cls-7" x1="422.87" y1="381.6" x2="422.87" y2="352.1"/><polyline class="cls-8" points="447.57 192.84 523.13 192.84 523.13 61.78 447.57 61.78 447.57 192.84"/><line class="cls-4" x1="422.87" y1="446.85" x2="422.87" y2="446.85"/><line class="cls-4" x1="422.87" y1="446.85" x2="342.22" y2="446.85"/><line class="cls-4" x1="342.22" y1="446.85" x2="342.22" y2="446.85"/><line class="cls-4" x1="342.22" y1="446.85" x2="342.22" y2="446.85"/><line class="cls-4" x1="342.22" y1="446.85" x2="321.59" y2="446.85"/><line class="cls-4" x1="321.59" y1="446.85" x2="321.59" y2="446.85"/><line class="cls-4" x1="321.59" y1="446.85" x2="321.59" y2="446.85"/><line class="cls-4" x1="321.59" y1="446.85" x2="300.96" y2="446.85"/><line class="cls-4" x1="300.96" y1="446.85" x2="300.96" y2="446.85"/><line class="cls-4" x1="300.96" y1="446.85" x2="300.96" y2="446.85"/><line class="cls-4" x1="300.96" y1="446.85" x2="280.47" y2="446.85"/><line class="cls-4" x1="280.47" y1="446.85" x2="280.47" y2="446.85"/><line class="cls-4" x1="280.47" y1="446.85" x2="280.47" y2="446.85"/><line class="cls-4" x1="280.47" y1="446.85" x2="259.83" y2="446.85"/><line class="cls-4" x1="259.83" y1="446.85" x2="259.83" y2="446.85"/><line class="cls-4" x1="259.83" y1="446.85" x2="259.83" y2="446.85"/><line class="cls-4" x1="259.83" y1="446.85" x2="239.2" y2="446.85"/><line class="cls-4" x1="239.2" y1="446.85" x2="239.2" y2="446.85"/><line class="cls-4" x1="239.2" y1="446.85" x2="239.2" y2="446.85"/><line class="cls-4" x1="239.2" y1="446.85" x2="218.57" y2="446.85"/><line class="cls-4" x1="218.57" y1="446.85" x2="218.57" y2="446.85"/><line class="cls-4" x1="218.57" y1="446.85" x2="218.57" y2="446.85"/><line class="cls-4" x1="218.57" y1="446.85" x2="198.08" y2="446.85"/><line class="cls-4" x1="198.08" y1="446.85" x2="198.08" y2="446.85"/><line class="cls-4" x1="198.08" y1="446.85" x2="198.08" y2="446.85"/><line class="cls-4" x1="198.08" y1="446.85" x2="177.44" y2="446.85"/><line class="cls-4" x1="177.44" y1="446.85" x2="177.44" y2="446.85"/><line class="cls-4" x1="177.44" y1="446.85" x2="177.44" y2="446.85"/><line class="cls-4" x1="177.44" y1="446.85" x2="156.81" y2="446.85"/><line class="cls-4" x1="156.81" y1="446.85" x2="156.81" y2="446.85"/><line class="cls-4" x1="342.22" y1="446.85" x2="342.22" y2="446.85"/><line class="cls-4" x1="321.59" y1="446.85" x2="321.59" y2="446.85"/><line class="cls-4" x1="300.96" y1="446.85" x2="300.96" y2="446.85"/><line class="cls-4" x1="280.47" y1="446.85" x2="280.47" y2="446.85"/><line class="cls-4" x1="259.83" y1="446.85" x2="259.83" y2="446.85"/><line class="cls-4" x1="239.2" y1="446.85" x2="239.2" y2="446.85"/><line class="cls-4" x1="218.57" y1="446.85" x2="218.57" y2="446.85"/><line class="cls-4" x1="198.08" y1="446.85" x2="198.08" y2="446.85"/><line class="cls-4" x1="177.44" y1="446.85" x2="177.44" y2="446.85"/><line class="cls-4" x1="156.81" y1="446.85" x2="156.81" y2="446.85"/><polyline class="cls-9" points="446.85 434.5 436.53 434.5 422.87 434.5 422.87 446.85"/><line class="cls-9" x1="446.85" y1="61.78" x2="440.02" y2="61.78"/><line class="cls-9" x1="446.85" y1="169.45" x2="440.02" y2="169.45"/><line class="cls-9" x1="440.02" y1="61.05" x2="440.02" y2="61.78"/><line class="cls-9" x1="447.57" y1="61.78" x2="446.85" y2="61.78"/><line class="cls-9" x1="440.02" y1="170.18" x2="440.02" y2="169.45"/><line class="cls-9" x1="447.57" y1="169.45" x2="446.85" y2="169.45"/><line class="cls-9" x1="440.02" y1="61.05" x2="440.02" y2="59.01"/><line class="cls-9" x1="440.02" y1="172.21" x2="440.02" y2="170.18"/><line class="cls-9" x1="447.57" y1="61.05" x2="447.57" y2="61.78"/><line class="cls-9" x1="447.57" y1="170.18" x2="447.57" y2="169.45"/><polyline class="cls-9" points="440.02 59.02 436.53 59.02 422.87 59.02"/><polyline class="cls-9" points="440.02 172.21 436.53 172.21 422.87 172.21"/><line class="cls-9" x1="446.85" y1="278" x2="440.02" y2="278"/><line class="cls-9" x1="446.85" y1="385.82" x2="440.02" y2="385.82"/><line class="cls-9" x1="440.02" y1="277.27" x2="440.02" y2="278"/><line class="cls-9" x1="447.57" y1="278" x2="446.85" y2="278"/><line class="cls-9" x1="440.02" y1="386.4" x2="440.02" y2="385.82"/><line class="cls-9" x1="447.57" y1="385.82" x2="446.85" y2="385.82"/><line class="cls-9" x1="440.02" y1="277.27" x2="440.02" y2="275.24"/><line class="cls-9" x1="440.02" y1="388.58" x2="440.02" y2="386.4"/><line class="cls-9" x1="447.57" y1="277.27" x2="447.57" y2="278"/><line class="cls-9" x1="447.57" y1="386.4" x2="447.57" y2="385.82"/><polyline class="cls-9" points="440.02 275.24 436.53 275.24 422.87 275.24"/><polyline class="cls-9" points="440.02 388.58 436.53 388.58 422.87 388.58"/><line class="cls-9" x1="447.57" y1="434.5" x2="447.57" y2="386.4"/><line class="cls-9" x1="447.57" y1="277.27" x2="447.57" y2="170.18"/><polyline class="cls-9" points="447.57 61.05 447.57 0.6 0.6 0.6 172.21 0.6"/><line class="cls-9" x1="422.87" y1="0.6" x2="422.87" y2="59.01"/><line class="cls-9" x1="422.87" y1="172.21" x2="422.87" y2="275.24"/><polyline class="cls-9" points="422.87 388.58 422.87 434.5 446.85 434.5"/><line class="cls-8" x1="447.57" y1="169.45" x2="447.57" y2="61.78"/><line class="cls-8" x1="422.87" y1="59.01" x2="422.87" y2="172.21"/><line class="cls-8" x1="447.57" y1="169.45" x2="447.57" y2="61.78"/><line class="cls-8" x1="422.87" y1="172.21" x2="422.87" y2="59.01"/><polyline class="cls-7" points="436.53 172.21 436.53 167.13 440.02 167.13 440.02 172.21"/><polyline class="cls-7" points="440.02 115.69 440.02 120.05 436.53 120.05 436.53 115.69"/><line class="cls-7" x1="436.53" y1="167.13" x2="389.59" y2="167.13"/><polyline class="cls-7" points="436.53 115.69 436.53 111.18 440.02 111.18 440.02 115.69"/><polyline class="cls-7" points="440.02 59.02 440.02 64.1 436.53 64.1 436.53 59.02"/><line class="cls-7" x1="436.53" y1="64.1" x2="389.59" y2="64.1"/><path class="cls-7" d="M436.6,120a47,47,0,0,0-47,47"/><path class="cls-7" d="M389.59,64a47,47,0,0,0,47,47"/><polyline class="cls-7" points="422.87 172.21 436.53 172.21 440.02 172.21 436.53 172.21"/><polyline class="cls-7" points="422.87 59.02 436.53 59.02 440.02 59.02 436.53 59.02"/><polyline class="cls-7" points="440.02 170.18 440.02 172.21 440.02 170.18"/><polyline class="cls-7" points="440.02 59.02 440.02 61.05 440.02 59.02"/><line class="cls-7" x1="447.57" y1="169.45" x2="446.85" y2="169.45"/><polyline class="cls-7" points="440.02 169.45 440.02 170.18 440.02 169.45"/><line class="cls-7" x1="447.57" y1="61.78" x2="446.85" y2="61.78"/><polyline class="cls-7" points="440.02 61.78 440.02 61.05 440.02 61.78"/><line class="cls-7" x1="446.85" y1="169.45" x2="440.02" y2="169.45"/><line class="cls-7" x1="446.85" y1="61.78" x2="440.02" y2="61.78"/><line class="cls-7" x1="447.57" y1="385.82" x2="447.57" y2="278"/><line class="cls-7" x1="422.87" y1="275.24" x2="422.87" y2="388.58"/><line class="cls-7" x1="447.57" y1="385.82" x2="447.57" y2="278"/><line class="cls-7" x1="422.87" y1="388.58" x2="422.87" y2="275.24"/><polyline class="cls-7" points="436.53 388.58 436.53 383.35 440.02 383.35 440.02 388.58"/><polyline class="cls-7" points="440.02 331.91 440.02 336.41 436.53 336.41 436.53 331.91"/><line class="cls-7" x1="436.53" y1="383.35" x2="436.53" y2="336.41"/><line class="cls-7" x1="440.02" y1="336.41" x2="440.02" y2="383.35"/><polyline class="cls-7" points="436.53 331.91 436.53 327.4 440.02 327.4 440.02 331.91"/><polyline class="cls-7" points="440.02 275.24 440.02 280.32 436.53 280.32 436.53 275.24"/><line class="cls-7" x1="436.53" y1="327.4" x2="436.53" y2="280.32"/><line class="cls-7" x1="440.02" y1="280.32" x2="440.02" y2="327.4"/><polyline class="cls-7" points="422.87 388.58 436.53 388.58 440.02 388.58 436.53 388.58"/><polyline class="cls-7" points="422.87 275.24 436.53 275.24 440.02 275.24 436.53 275.24"/><polyline class="cls-7" points="440.02 386.4 440.02 388.58 440.02 386.4"/><polyline class="cls-7" points="440.02 275.24 440.02 277.27 440.02 275.24"/><line class="cls-7" x1="447.57" y1="385.82" x2="446.85" y2="385.82"/><polyline class="cls-7" points="440.02 385.82 440.02 386.4 440.02 385.82"/><line class="cls-7" x1="447.57" y1="278" x2="446.85" y2="278"/><polyline class="cls-7" points="440.02 278 440.02 277.27 440.02 278"/><line class="cls-7" x1="446.85" y1="385.82" x2="440.02" y2="385.82"/><line class="cls-7" x1="446.85" y1="278" x2="440.02" y2="278"/><polyline class="cls-8" points="523.13 61.78 523.13 192.84 529.96 192.84 529.96 61.78 523.13 61.78"/><line class="cls-9" x1="422.73" y1="434.5" x2="0.6" y2="434.5"/><line class="cls-9" x1="6.12" y1="446.85" x2="422.73" y2="446.85"/><line class="cls-4" x1="422.73" y1="434.5" x2="422.73" y2="446.85"/><line class="cls-9" x1="67.88" y1="446.85" x2="67.88" y2="446.85"/><polyline class="cls-9" points="76.16 446.85 76.16 446.85 67.88 446.85"/><line class="cls-9" x1="6.12" y1="446.85" x2="6.12" y2="446.85"/><line class="cls-4" x1="0.6" y1="434.5" x2="0.6" y2="446.85"/><polyline class="cls-9" points="0.6 428.13 0.6 446.85 447.57 446.85 447.57 434.5"/><polyline class="cls-9" points="422.87 0.6 172.21 0.6 172.21 14.4 422.87 14.4 422.87 0.6"/><line class="cls-9" x1="14.4" y1="219.58" x2="0.6" y2="219.58"/><line class="cls-9" x1="14.4" y1="151" x2="0.6" y2="151"/><line class="cls-9" x1="14.4" y1="434.5" x2="14.4" y2="393.37"/><line class="cls-9" x1="14.4" y1="305.46" x2="14.4" y2="219.58"/><line class="cls-9" x1="14.4" y1="151" x2="14.4" y2="144.17"/><line class="cls-9" x1="14.4" y1="138.64" x2="14.4" y2="14.4"/><line class="cls-9" x1="0.6" y1="0.6" x2="0.6" y2="14.4"/><line class="cls-9" x1="0.6" y1="14.4" x2="0.6" y2="151"/><polyline class="cls-9" points="0.6 219.58 0.6 434.5 14.4 434.5"/><path class="cls-7" d="M77.61,216.75a63.13,63.13,0,0,0-63.13-63.14"/><polyline class="cls-7" points="0.6 151 0.6 153.76 14.4 153.76 14.4 151 0.6 151"/><polyline class="cls-7" points="14.4 219.58 14.4 216.82 0.6 216.82 0.6 219.58 14.4 219.58"/><line class="cls-7" x1="14.4" y1="216.82" x2="77.47" y2="216.82"/><polyline class="cls-7" points="0.6 151 14.4 151 0.6 151"/><polyline class="cls-7" points="0.6 219.58 14.4 219.58 0.6 219.58"/><polyline class="cls-9" points="140.68 222.34 422.87 222.34 422.87 216.82 140.68 216.82"/><line class="cls-9" x1="135.16" y1="214.79" x2="140.68" y2="214.79"/><line class="cls-9" x1="135.16" y1="153.03" x2="140.68" y2="153.03"/><line class="cls-9" x1="135.16" y1="14.4" x2="135.16" y2="138.64"/><line class="cls-9" x1="135.16" y1="144.17" x2="135.16" y2="153.03"/><line class="cls-9" x1="135.16" y1="214.79" x2="135.16" y2="222.34"/><line class="cls-9" x1="140.68" y1="216.82" x2="140.68" y2="214.79"/><polyline class="cls-9" points="140.68 153.03 140.68 14.4 135.16 14.4"/><path class="cls-7" d="M197.06,212a56.31,56.31,0,0,0-56.31-56.3"/><polyline class="cls-7" points="135.16 153.03 135.16 155.79 140.68 155.79 140.68 153.03 135.16 153.03"/><polyline class="cls-7" points="140.68 214.79 140.68 212.03 135.16 212.03 135.16 214.79 140.68 214.79"/><line class="cls-7" x1="140.68" y1="212.03" x2="197.06" y2="212.03"/><polyline class="cls-7" points="140.68 153.03 135.16 153.03 140.68 153.03"/><polyline class="cls-7" points="140.68 214.79 135.16 214.79 140.68 214.79"/><line class="cls-9" x1="41.14" y1="138.64" x2="41.14" y2="144.17"/><polyline class="cls-9" points="135.16 138.65 92.73 138.65 92.73 144.17"/><line class="cls-9" x1="41.14" y1="138.64" x2="14.4" y2="138.64"/><line class="cls-9" x1="14.4" y1="144.17" x2="41.14" y2="144.17"/><line class="cls-9" x1="92.73" y1="144.17" x2="135.16" y2="144.17"/><path class="cls-7" d="M90,138.57a46,46,0,0,0-6.17-23"/><polyline class="cls-7" points="92.73 144.17 89.97 144.17 89.97 138.65 92.73 138.65 92.73 144.17"/><polyline class="cls-7" points="41.14 138.65 43.9 138.65 43.9 144.17 41.14 144.17 41.14 138.65"/><line class="cls-7" x1="43.9" y1="138.64" x2="83.72" y2="115.69"/><polyline class="cls-7" points="92.73 144.17 92.73 138.65 92.73 144.17"/><polyline class="cls-7" points="41.14 144.17 41.14 138.65 41.14 144.17"/><line class="cls-9" x1="14.4" y1="0.6" x2="14.4" y2="0.6"/><polyline class="cls-9" points="0.6 0.6 0.6 0.6 14.4 0.6"/><line class="cls-9" x1="14.4" y1="14.4" x2="172.21" y2="14.4"/><line class="cls-4" x1="172.21" y1="0.6" x2="172.21" y2="14.4"/><polyline class="cls-9" points="135.16 0.6 135.16 0.6 140.68 0.6 140.68 0.6"/><polyline class="cls-9" points="184.42 310.98 184.42 434.5 189.79 434.5 189.79 305.46"/><line class="cls-9" x1="135.16" y1="231.35" x2="140.68" y2="231.35"/><line class="cls-9" x1="135.16" y1="293.11" x2="140.68" y2="293.11"/><line class="cls-9" x1="135.16" y1="222.34" x2="135.16" y2="231.35"/><line class="cls-9" x1="135.16" y1="293.11" x2="135.16" y2="305.46"/><line class="cls-9" x1="140.68" y1="305.46" x2="140.68" y2="293.11"/><line class="cls-9" x1="140.68" y1="231.35" x2="140.68" y2="222.34"/><path class="cls-7" d="M140.75,290.35A56.31,56.31,0,0,0,197.06,234"/><polyline class="cls-7" points="135.16 293.11 135.16 290.35 140.68 290.35 140.68 293.11 135.16 293.11"/><polyline class="cls-7" points="140.68 231.35 140.68 234.11 135.16 234.11 135.16 231.35 140.68 231.35"/><line class="cls-7" x1="140.68" y1="234.11" x2="197.06" y2="234.11"/><polyline class="cls-7" points="140.68 293.11 135.16 293.11 140.68 293.11"/><polyline class="cls-7" points="140.68 231.35 135.16 231.35 140.68 231.35"/><polyline class="cls-7" points="14.4 393.37 41.87 393.37 41.87 352.11 14.4 352.11 14.4 393.37"/><polyline class="cls-7" points="21.96 389.88 20.65 389.74 19.49 389.16 18.62 388.14 18.04 386.98 17.75 385.82 17.75 369.98 18.04 368.67 18.62 367.51 19.49 366.64 20.65 366.05 21.96 365.91 34.31 365.91 35.62 366.05 36.78 366.64 37.65 367.51 38.23 368.67 38.38 369.98 38.38 385.82 38.23 386.98 37.65 388.14 36.78 389.16 35.62 389.74 34.31 389.88 21.96 389.88"/><polyline class="cls-7" points="36.64 362.42 19.49 362.42 18.62 362.13 18.04 361.55 17.75 360.68 17.75 359.66 18.04 358.35 18.62 357.19 19.49 356.32 20.65 355.74 21.96 355.59 34.31 355.59 35.62 355.74 36.78 356.32 37.65 357.19 38.23 358.35 38.38 359.66 38.38 360.68 38.23 361.55 37.51 362.13 36.64 362.42"/><polyline class="cls-7" points="41.87 310.98 14.4 310.98 14.4 352.11 41.87 352.11 41.87 310.98"/><polyline class="cls-7" points="34.31 314.32 35.62 314.62 36.78 315.2 37.65 316.07 38.23 317.23 38.38 318.54 38.38 334.23 38.23 335.54 37.65 336.7 36.78 337.57 35.62 338.15 34.31 338.45 21.96 338.45 20.65 338.15 19.49 337.57 18.62 336.7 18.04 335.54 17.75 334.23 17.75 318.54 18.04 317.23 18.62 316.07 19.49 315.2 20.65 314.62 21.96 314.32 34.31 314.32"/><polyline class="cls-7" points="19.49 341.79 36.64 341.79 37.51 342.08 38.23 342.66 38.38 343.53 38.38 344.55 38.23 345.86 37.65 347.02 36.78 347.89 35.62 348.47 34.31 348.76 21.96 348.76 20.65 348.47 19.49 347.89 18.62 347.02 18.04 345.86 17.75 344.55 17.75 343.53 18.04 342.66 18.62 342.08 19.49 341.79"/><line class="cls-8" x1="451.06" y1="66.86" x2="521.39" y2="66.86"/><polyline class="cls-8" points="521.39 63.52 451.06 63.52 449.32 63.52 449.32 66.86 451.06 66.86"/><polyline class="cls-8" points="521.39 66.86 523.13 66.86 523.13 63.52 521.39 63.52"/><polyline class="cls-8" points="451.06 65.99 521.39 65.99 521.39 64.25 451.06 64.25 451.06 65.99"/><polyline class="cls-8" points="450.19 64.25 450.19 65.99 451.79 65.99 451.79 64.25 450.19 64.25"/><polyline class="cls-8" points="520.52 64.25 520.52 65.99 522.26 65.99 522.26 64.25 520.52 64.25"/><polyline class="cls-8" points="460.22 64.25 460.22 65.99 461.96 65.99 461.96 64.25 460.22 64.25"/><polyline class="cls-8" points="470.24 64.25 470.24 65.99 471.99 65.99 471.99 64.25 470.24 64.25"/><polyline class="cls-8" points="480.27 64.25 480.27 65.99 482.01 65.99 482.01 64.25 480.27 64.25"/><polyline class="cls-8" points="490.3 64.25 490.3 65.99 492.04 65.99 492.04 64.25 490.3 64.25"/><polyline class="cls-8" points="500.47 64.25 500.47 65.99 502.06 65.99 502.06 64.25 500.47 64.25"/><polyline class="cls-8" points="510.49 64.25 510.49 65.99 512.24 65.99 512.24 64.25 510.49 64.25"/><line class="cls-8" x1="451.06" y1="191.1" x2="521.39" y2="191.1"/><polyline class="cls-8" points="521.39 187.76 451.06 187.76 449.32 187.76 449.32 191.1 451.06 191.1"/><polyline class="cls-8" points="521.39 191.1 523.13 191.1 523.13 187.76 521.39 187.76"/><polyline class="cls-8" points="451.06 190.23 521.39 190.23 521.39 188.63 451.06 188.63 451.06 190.23"/><polyline class="cls-8" points="450.19 188.63 450.19 190.23 451.79 190.23 451.79 188.63 450.19 188.63"/><polyline class="cls-8" points="520.52 188.63 520.52 190.23 522.26 190.23 522.26 188.63 520.52 188.63"/><polyline class="cls-8" points="460.22 188.63 460.22 190.23 461.96 190.23 461.96 188.63 460.22 188.63"/><polyline class="cls-8" points="470.24 188.63 470.24 190.23 471.99 190.23 471.99 188.63 470.24 188.63"/><polyline class="cls-8" points="480.27 188.63 480.27 190.23 482.01 190.23 482.01 188.63 480.27 188.63"/><polyline class="cls-8" points="490.3 188.63 490.3 190.23 492.04 190.23 492.04 188.63 490.3 188.63"/><polyline class="cls-8" points="500.47 188.63 500.47 190.23 502.06 190.23 502.06 188.63 500.47 188.63"/><polyline class="cls-8" points="510.49 188.63 510.49 190.23 512.24 190.23 512.24 188.63 510.49 188.63"/><line class="cls-4" x1="141.11" y1="430.57" x2="176.13" y2="430.57"/><line class="cls-4" x1="180.2" y1="426.5" x2="180.2" y2="339.03"/><line class="cls-4" x1="137.05" y1="426.5" x2="137.05" y2="339.03"/><line class="cls-4" x1="184.42" y1="314.32" x2="184.42" y2="434.5"/><polyline class="cls-4" points="184.42 314.32 132.83 314.32 132.83 434.5 184.42 434.5"/><line class="cls-4" x1="144.17" y1="353.12" x2="144.17" y2="421.56"/><line class="cls-4" x1="146.2" y1="423.6" x2="171.05" y2="423.6"/><line class="cls-4" x1="173.08" y1="353.12" x2="173.08" y2="421.56"/><line class="cls-4" x1="157.39" y1="409.5" x2="154.77" y2="409.5"/><line class="cls-4" x1="158.55" y1="410.66" x2="158.55" y2="413.14"/><line class="cls-4" x1="159.86" y1="409.5" x2="162.48" y2="409.5"/><line class="cls-4" x1="158.55" y1="408.19" x2="158.55" y2="405.72"/><path class="cls-4" d="M180.2,339c0-11.59-9.66-21-21.58-21s-21.57,9.4-21.57,21"/><path class="cls-4" d="M176.21,430.43a4.08,4.08,0,0,0,4.14-4"/><path class="cls-4" d="M137.05,426.43a4.07,4.07,0,0,0,4.14,4"/><path class="cls-4" d="M160.73,409.43a2.11,2.11,0,1,0-2.11,2.11,2.11,2.11,0,0,0,2.11-2.11"/><path class="cls-4" d="M173.08,353.05a14.46,14.46,0,0,0-28.91,0"/><path class="cls-4" d="M144.17,421.49a2,2,0,0,0,2.1,2"/><path class="cls-4" d="M171.12,423.45a2,2,0,0,0,2.11-2"/><path class="cls-4" d="M161.46,409.43a2.84,2.84,0,1,0-2.84,2.83,2.83,2.83,0,0,0,2.84-2.83"/><polyline class="cls-7" points="61.05 446.85 61.05 446.85 12.95 446.85"/><path class="cls-7" d="M13,446.85"/><line class="cls-7" x1="12.95" y1="446.85" x2="12.95" y2="446.85"/><line class="cls-4" x1="76.89" y1="353.27" x2="76.89" y2="312"/><line class="cls-4" x1="76.89" y1="312" x2="42.45" y2="312"/><line class="cls-4" x1="42.45" y1="312" x2="42.45" y2="353.27"/><line class="cls-4" x1="42.45" y1="353.27" x2="76.89" y2="353.27"/><polyline class="cls-4" points="51.17 336.85 51.17 328.56 53.93 334.09 56.69 328.56 56.69 336.85"/><polyline class="cls-4" points="64.83 335.39 63.52 336.85 60.76 336.85 59.3 335.39 59.3 330.02 60.76 328.56 63.52 328.56 64.83 330.02"/><polyline class="cls-7" points="273.2 398.46 273.2 432.75 218.27 432.75 218.27 398.46 273.2 398.46"/><line class="cls-7" x1="189.79" y1="393.37" x2="301.68" y2="393.37"/><polyline class="cls-7" points="189.79 393.37 189.79 434.5 301.68 434.5"/><polyline class="cls-7" points="221.76 401.8 244.72 401.8 244.72 425.78 221.76 425.78 221.76 401.8"/><polyline class="cls-7" points="246.75 401.8 269.86 401.8 269.86 425.78 246.75 425.78 246.75 401.8"/><polyline class="cls-7" points="36.35 400.2 14.4 400.2 14.4 434.5"/><path class="cls-7" d="M14.4,434.5"/><polyline class="cls-7" points="14.4 434.5 36.35 434.5 36.35 400.2"/><line class="cls-7" x1="422.87" y1="393.37" x2="292.82" y2="393.37"/><polyline class="cls-7" points="422.87 393.37 422.87 434.5 292.82 434.5"/><line class="cls-4" x1="55.53" y1="304.73" x2="55.53" y2="229.32"/><line class="cls-4" x1="55.53" y1="229.32" x2="14.4" y2="229.32"/><polyline class="cls-7" points="61.05 446.85 61.05 446.85 12.95 446.85 12.95 446.85"/><polyline class="cls-7" points="67.88 446.85 67.88 446.85 6.12 446.85"/><line class="cls-7" x1="6.12" y1="446.85" x2="6.12" y2="446.85"/><polyline class="cls-4" points="14.4 393.37 36.35 393.37 36.35 434.5 14.4 434.5 14.4 393.37"/><line class="cls-4" x1="57.56" y1="420.69" x2="57.56" y2="396.86"/><polyline class="cls-4" points="56.54 422.14 56.54 431.01 81.97 431.01"/><line class="cls-4" x1="69.33" y1="416.48" x2="78.78" y2="416.48"/><polyline class="cls-4" points="57.56 396.86 59.89 416.48 69.33 416.48"/><line class="cls-4" x1="80.96" y1="396.86" x2="78.78" y2="416.48"/><line class="cls-4" x1="58.14" y1="396.86" x2="60.47" y2="416.48"/><line class="cls-4" x1="80.38" y1="396.86" x2="78.2" y2="416.48"/><line class="cls-4" x1="80.96" y1="420.69" x2="80.96" y2="396.86"/><line class="cls-4" x1="81.97" y1="431.01" x2="81.97" y2="422.14"/><polyline class="cls-4" points="57.56 396.86 58 394.25 58.87 391.63 60.47 389.45 62.65 387.71 65.12 386.54 67.88 385.82 70.78 385.82 73.4 386.54 76.02 387.71 78.05 389.45 79.65 391.63 80.67 394.25 80.96 396.86"/><polyline class="cls-4" points="58.14 396.86 58.58 394.39 59.45 391.92 61.05 389.88 62.94 388.29 65.41 387.13 68.02 386.4 70.64 386.4 73.25 387.13 75.58 388.29 77.61 389.88 79.07 391.92 80.08 394.39 80.38 396.86"/><path class="cls-4" d="M80.78,420.58a105.6,105.6,0,0,0-22.76,0"/><path class="cls-4" d="M58.05,420.56a1.52,1.52,0,0,0-1.36,1.51"/><path class="cls-4" d="M82.12,422.07a1.53,1.53,0,0,0-1.37-1.52"/><path class="cls-4" d="M69.4,424.18a1.24,1.24,0,1,0,1.24,1.23,1.23,1.23,0,0,0-1.24-1.23"/><line class="cls-9" x1="120.77" y1="310.98" x2="120.77" y2="305.46"/><line class="cls-9" x1="69.33" y1="310.98" x2="69.33" y2="305.46"/><line class="cls-9" x1="189.79" y1="305.46" x2="140.68" y2="305.46"/><line class="cls-9" x1="135.16" y1="305.46" x2="120.77" y2="305.46"/><line class="cls-9" x1="69.33" y1="305.46" x2="14.4" y2="305.46"/><line class="cls-9" x1="41.87" y1="310.98" x2="69.33" y2="310.98"/><line class="cls-9" x1="120.77" y1="310.98" x2="184.42" y2="310.98"/><path class="cls-7" d="M78.25,282.39a46.08,46.08,0,0,0-6.16,23"/><polyline class="cls-7" points="69.33 310.98 72.09 310.98 72.09 305.46 69.33 305.46 69.33 310.98"/><polyline class="cls-7" points="120.77 305.46 118.01 305.46 118.01 310.98 120.77 310.98 120.77 305.46"/><line class="cls-7" x1="118.01" y1="305.46" x2="78.2" y2="282.5"/><polyline class="cls-7" points="69.33 305.46 69.33 310.98 69.33 305.46"/><polyline class="cls-7" points="120.77 305.46 120.77 310.98 120.77 305.46"/><polyline class="cls-9" points="436.53 199.09 422.87 199.09 422.87 240.22 436.53 240.22 436.53 199.09"/><polyline class="cls-9" points="436.53 0.6 422.87 0.6 422.87 28.06 436.53 28.06 436.53 0.6"/><polyline class="cls-9" points="135.16 216.82 135.16 230.63 190.08 230.63 190.08 216.82 135.16 216.82"/><polyline class="cls-4" points="133.85 418.8 133.85 434.5 96.8 434.5 96.8 418.8"/><line class="cls-4" x1="109.44" y1="434.5" x2="121.21" y2="434.5"/><line class="cls-4" x1="112.2" y1="422" x2="114.23" y2="422"/><line class="cls-4" x1="115.25" y1="425.05" x2="115.25" y2="423.02"/><line class="cls-4" x1="116.41" y1="422" x2="118.45" y2="422"/><line class="cls-4" x1="115.25" y1="420.84" x2="115.25" y2="418.8"/><path class="cls-4" d="M125.14,425.61a16.46,16.46,0,0,0,6.39-7.8"/><path class="cls-4" d="M115.3,427.9a16.5,16.5,0,0,0,9.84-2.31"/><path class="cls-4" d="M99.11,417.81a16.48,16.48,0,0,0,6.4,7.8"/><path class="cls-4" d="M105.51,425.59a16.45,16.45,0,0,0,9.83,2.31"/><path class="cls-4" d="M127.92,409.45a30.16,30.16,0,0,0-11.24-3.06"/><path class="cls-4" d="M100.45,411A9.37,9.37,0,0,0,97,418.7"/><path class="cls-4" d="M116.62,406.35a18.66,18.66,0,0,0-2.59,0"/><path class="cls-4" d="M105,425a68.1,68.1,0,0,0,20.75,0"/><path class="cls-4" d="M97.82,416.3a23.28,23.28,0,0,0,5.26,15.15"/><path class="cls-4" d="M104.77,432.62a46.74,46.74,0,0,0,10.61,1.15"/><path class="cls-4" d="M103,431.46a3.1,3.1,0,0,0,1.73,1.07"/><path class="cls-4" d="M104.85,431.56a77.93,77.93,0,0,0,10.46.75"/><path class="cls-4" d="M97.81,416.27a21,21,0,0,0,5.25,14.16"/><path class="cls-4" d="M103,430.53a3.15,3.15,0,0,0,1.92,1"/><path class="cls-4" d="M127.71,430.46A21,21,0,0,0,133,416.3"/><path class="cls-4" d="M127.69,431.48A23.3,23.3,0,0,0,133,416.33"/><path class="cls-4" d="M115.37,432.32a81.36,81.36,0,0,0,10.46-.74"/><path class="cls-4" d="M115.34,433.77A46.25,46.25,0,0,0,126,432.63"/><path class="cls-4" d="M125.77,431.56a3.15,3.15,0,0,0,1.92-1"/><path class="cls-4" d="M126,432.53a3.17,3.17,0,0,0,1.73-1.07"/><path class="cls-4" d="M133.84,418.7a9.37,9.37,0,0,0-3.5-7.72"/><path class="cls-4" d="M130.41,411a15.19,15.19,0,0,0-2.46-1.59"/><path class="cls-4" d="M102.84,409.37a15.19,15.19,0,0,0-2.46,1.59"/><path class="cls-4" d="M114.11,406.39a30.16,30.16,0,0,0-11.24,3.06"/><path class="cls-4" d="M120.42,409a21.67,21.67,0,0,0-10.19,0"/><path class="cls-4" d="M131.66,417.81a5.61,5.61,0,0,0-1.93-4.62"/><path class="cls-4" d="M129.66,413.18a20,20,0,0,0-9.25-4.24"/><path class="cls-4" d="M101.06,413.19a5.61,5.61,0,0,0-1.93,4.62"/><path class="cls-4" d="M110.23,408.94a20.05,20.05,0,0,0-9.25,4.24"/><path class="cls-4" d="M117.72,421.93a2.4,2.4,0,1,0-2.4,2.39,2.39,2.39,0,0,0,2.4-2.39"/><path class="cls-4" d="M117,421.93a1.67,1.67,0,1,0-1.67,1.67,1.66,1.66,0,0,0,1.67-1.67"/></svg>