<svg id="_248" data-name="248" xmlns="http://www.w3.org/2000/svg" viewBox="0 0 467.35 633.76"><defs><style>.cls-1,.cls-5,.cls-7,.cls-8{fill:none;stroke-linecap:round;stroke-linejoin:round;stroke-width:0.5px;}.cls-1{stroke:#999;}.cls-2{isolation:isolate;font-size:12px;fill:#999;}.cls-2,.cls-4,.cls-6{font-family:PTSans-Regular, PT Sans;}.cls-3{letter-spacing:-0.01em;}.cls-4{font-size:24px;}.cls-5,.cls-7,.cls-8{stroke:#000;}.cls-6{font-size:20px;}.cls-7{stroke-dasharray:2.96 2.96;}.cls-8{stroke-dasharray:3.07 3.07;}</style></defs><title>5floor_248flat</title><line class="cls-1" x1="215.39" y1="10.8" x2="215.39" y2="2"/><polyline class="cls-1" points="219 5.3 215.5 1.8 212 5.3"/><text class="cls-2" transform="translate(224.82 10.2)"><tspan class="cls-3">у</tspan><tspan x="5.42" y="0">лица</tspan></text><text class="cls-4" transform="translate(115.4 274.96)">1E</text><text class="cls-4" transform="translate(99.65 308)">38.27</text><text class="cls-4" transform="translate(96.48 242.42)">№248</text><polyline class="cls-5" points="87.84 316.36 87.84 219.16 168.91 219.16 168.91 316.36"/><line class="cls-5" x1="87.84" y1="251.62" x2="168.91" y2="251.62"/><line class="cls-5" x1="87.84" y1="316.36" x2="168.91" y2="316.36"/><line class="cls-5" x1="87.84" y1="284.08" x2="168.91" y2="284.08"/><text class="cls-6" transform="translate(331.86 226.67)">10.08</text><text class="cls-6" transform="translate(338.83 136.45)">1.29</text><text class="cls-6" transform="translate(101.5 155.5)">13.05</text><text class="cls-6" transform="translate(89.72 446.05)">3.09</text><text class="cls-6" transform="translate(211.4 518.68)">5.01</text><text class="cls-6" transform="translate(344.88 540.93)">3.28</text><text class="cls-6" transform="translate(142.09 551.94)">2.47</text><line class="cls-5" x1="0.25" y1="449.61" x2="0.25" y2="471"/><line class="cls-5" x1="0.25" y1="471" x2="0.25" y2="492.38"/><line class="cls-5" x1="444.06" y1="609.84" x2="444.06" y2="575.91"/><line class="cls-5" x1="440.26" y1="571.92" x2="357.24" y2="571.92"/><line class="cls-5" x1="440.26" y1="613.83" x2="357.24" y2="613.83"/><line class="cls-5" x1="333.82" y1="567.93" x2="447.86" y2="567.93"/><line class="cls-5" x1="333.82" y1="617.82" x2="447.86" y2="617.82"/><line class="cls-5" x1="333.82" y1="617.82" x2="333.82" y2="567.93"/><line class="cls-5" x1="447.86" y1="617.82" x2="447.86" y2="567.93"/><line class="cls-5" x1="370.58" y1="606.89" x2="435.55" y2="606.89"/><line class="cls-5" x1="437.45" y1="604.89" x2="437.45" y2="580.86"/><line class="cls-5" x1="370.58" y1="578.86" x2="435.55" y2="578.86"/><line class="cls-5" x1="424.1" y1="594.1" x2="424.1" y2="596.57"/><line class="cls-5" x1="425.27" y1="592.88" x2="427.61" y2="592.88"/><line class="cls-5" x1="424.1" y1="591.65" x2="424.1" y2="589.19"/><line class="cls-5" x1="422.94" y1="592.88" x2="420.59" y2="592.88"/><path class="cls-5" d="M357.24,642.19c-11,0-20-9.38-20-21s8.93-21,20-21" transform="translate(0 -28.36)"/><path class="cls-5" d="M440.26,600.28a3.9,3.9,0,0,1,3.8,4" transform="translate(0 -28.36)"/><path class="cls-5" d="M444.06,638.2a3.89,3.89,0,0,1-3.8,4" transform="translate(0 -28.36)"/><path class="cls-5" d="M426.09,621.24a2,2,0,1,0-2,2.08,2,2,0,0,0,2-2.08" transform="translate(0 -28.36)"/><path class="cls-5" d="M370.58,635.25c-7.37,0-13.34-6.27-13.34-14s6-14,13.34-14" transform="translate(0 -28.36)"/><path class="cls-5" d="M437.45,633.25a2,2,0,0,1-1.9,2" transform="translate(0 -28.36)"/><path class="cls-5" d="M435.55,607.22a2,2,0,0,1,1.9,2" transform="translate(0 -28.36)"/><path class="cls-5" d="M426.76,621.24A2.66,2.66,0,1,0,424.1,624a2.73,2.73,0,0,0,2.66-2.78" transform="translate(0 -28.36)"/><line class="cls-5" x1="415.07" y1="478.21" x2="415.07" y2="516.7"/><line class="cls-5" x1="415.07" y1="516.7" x2="398.79" y2="516.7"/><line class="cls-5" x1="415.07" y1="478.21" x2="398.79" y2="478.21"/><line class="cls-5" x1="415.07" y1="503.52" x2="415.07" y2="491.39"/><line class="cls-5" x1="402.01" y1="500.69" x2="402.01" y2="498.64"/><line class="cls-5" x1="405.25" y1="497.45" x2="403.2" y2="497.45"/><line class="cls-5" x1="402.01" y1="496.26" x2="402.01" y2="494.21"/><line class="cls-5" x1="400.82" y1="497.45" x2="398.77" y2="497.45"/><path class="cls-5" d="M397.78,508.94a17.17,17.17,0,0,1,8.11,6.65" transform="translate(0 -28.36)"/><path class="cls-5" d="M405.89,515.59a17.14,17.14,0,0,1,2.46,8.85c0,.46,0,.92-.05,1.38" transform="translate(0 -28.36)"/><path class="cls-5" d="M405.89,536a17.11,17.11,0,0,1-8.11,6.65" transform="translate(0 -28.36)"/><path class="cls-5" d="M408.3,525.82c0,.46.05.92.05,1.38a17.13,17.13,0,0,1-2.46,8.84" transform="translate(0 -28.36)"/><path class="cls-5" d="M385.89,524.47a31.63,31.63,0,0,1,3.19-11.69" transform="translate(0 -28.36)"/><path class="cls-5" d="M398.79,545.06h-.42a9.81,9.81,0,0,1-7.64-3.66" transform="translate(0 -28.36)"/><path class="cls-5" d="M385.89,527.16c0-.45,0-.9,0-1.34s0-.9,0-1.35" transform="translate(0 -28.36)"/><path class="cls-5" d="M405.27,515a70.29,70.29,0,0,1,0,21.54" transform="translate(0 -28.36)"/><path class="cls-5" d="M412,538.61a24.21,24.21,0,0,1-15.32,5.46h-.41" transform="translate(0 -28.36)"/><path class="cls-5" d="M414.29,525.82v.36a48.29,48.29,0,0,1-1.19,10.65" transform="translate(0 -28.36)"/><path class="cls-5" d="M413.1,536.83a3.22,3.22,0,0,1-1.1,1.78" transform="translate(0 -28.36)"/><path class="cls-5" d="M412.77,525.82a82.11,82.11,0,0,1-.78,10.85" transform="translate(0 -28.36)"/><path class="cls-5" d="M410.94,538.63a21.78,21.78,0,0,1-14.38,5.44h-.29" transform="translate(0 -28.36)"/><path class="cls-5" d="M412,536.67a3.17,3.17,0,0,1-1.05,2" transform="translate(0 -28.36)"/><path class="cls-5" d="M396.29,507.56h.26A21.74,21.74,0,0,1,411,513" transform="translate(0 -28.36)"/><path class="cls-5" d="M396.29,507.56h.39A24.24,24.24,0,0,1,412,513" transform="translate(0 -28.36)"/><path class="cls-5" d="M412,515a82.09,82.09,0,0,1,.76,10.85" transform="translate(0 -28.36)"/><path class="cls-5" d="M413.12,514.82a48.41,48.41,0,0,1,1.17,10.59v.43" transform="translate(0 -28.36)"/><path class="cls-5" d="M411,513a3.23,3.23,0,0,1,1.06,2" transform="translate(0 -28.36)"/><path class="cls-5" d="M412,513a3.27,3.27,0,0,1,1.1,1.78" transform="translate(0 -28.36)"/><path class="cls-5" d="M390.73,510.23a9.79,9.79,0,0,1,7.64-3.67h.42" transform="translate(0 -28.36)"/><path class="cls-5" d="M389.08,512.78a14.62,14.62,0,0,1,1.65-2.55" transform="translate(0 -28.36)"/><path class="cls-5" d="M390.73,541.41a14.7,14.7,0,0,1-1.65-2.56" transform="translate(0 -28.36)"/><path class="cls-5" d="M389.08,538.85a31.52,31.52,0,0,1-3.19-11.69" transform="translate(0 -28.36)"/><path class="cls-5" d="M388.62,531.11a22.57,22.57,0,0,1,0-10.59" transform="translate(0 -28.36)"/><path class="cls-5" d="M393,510.93a5.76,5.76,0,0,1,4.37-2h.39" transform="translate(0 -28.36)"/><path class="cls-5" d="M388.62,520.52a20.81,20.81,0,0,1,4.4-9.59" transform="translate(0 -28.36)"/><path class="cls-5" d="M397.78,542.69l-.39,0a5.76,5.76,0,0,1-4.37-2" transform="translate(0 -28.36)"/><path class="cls-5" d="M393,540.71a20.85,20.85,0,0,1-4.4-9.6" transform="translate(0 -28.36)"/><path class="cls-5" d="M404.5,525.81A2.5,2.5,0,1,0,402,528.3a2.5,2.5,0,0,0,2.49-2.49" transform="translate(0 -28.36)"/><path class="cls-5" d="M403.79,525.81a1.79,1.79,0,1,0-1.78,1.78,1.78,1.78,0,0,0,1.78-1.78" transform="translate(0 -28.36)"/><line class="cls-5" x1="35.89" y1="449.61" x2="14.51" y2="449.61"/><line class="cls-5" x1="57.27" y1="449.61" x2="35.89" y2="449.61"/><line class="cls-5" x1="57.27" y1="492.38" x2="57.27" y2="449.61"/><line class="cls-5" x1="14.51" y1="492.38" x2="57.27" y2="492.38"/><line class="cls-5" x1="14.51" y1="449.61" x2="14.51" y2="492.38"/><line class="cls-5" x1="17.36" y1="452.46" x2="17.36" y2="489.53"/><line class="cls-5" x1="17.36" y1="489.53" x2="54.42" y2="489.53"/><line class="cls-5" x1="54.42" y1="489.53" x2="54.42" y2="452.46"/><line class="cls-5" x1="54.42" y1="452.46" x2="35.89" y2="452.46"/><line class="cls-5" x1="35.89" y1="452.46" x2="17.36" y2="452.46"/><line class="cls-5" x1="374.45" y1="451.75" x2="374.45" y2="483.83"/><line class="cls-5" x1="374.45" y1="483.83" x2="331.68" y2="483.83"/><line class="cls-5" x1="331.68" y1="483.83" x2="331.68" y2="451.75"/><line class="cls-5" x1="331.68" y1="451.75" x2="374.45" y2="451.75"/><line class="cls-5" x1="103.09" y1="617.56" x2="131.6" y2="617.56"/><line class="cls-5" x1="131.6" y1="617.56" x2="131.6" y2="605.64"/><line class="cls-5" x1="103.09" y1="617.56" x2="103.09" y2="605.64"/><line class="cls-5" x1="121.84" y1="617.56" x2="112.85" y2="617.56"/><line class="cls-5" x1="119.74" y1="607.99" x2="118.22" y2="607.99"/><line class="cls-5" x1="117.34" y1="610.37" x2="117.34" y2="608.86"/><line class="cls-5" x1="116.46" y1="607.99" x2="114.94" y2="607.99"/><line class="cls-5" x1="117.34" y1="607.12" x2="117.34" y2="605.62"/><path class="cls-5" d="M109.77,639.2a12.61,12.61,0,0,1-4.93-5.94" transform="translate(0 -28.36)"/><path class="cls-5" d="M117.34,641c-.34,0-.67,0-1,0a12.88,12.88,0,0,1-6.55-1.8" transform="translate(0 -28.36)"/><path class="cls-5" d="M129.84,633.26a12.54,12.54,0,0,1-4.92,5.94" transform="translate(0 -28.36)"/><path class="cls-5" d="M124.92,639.2a12.82,12.82,0,0,1-6.56,1.8c-.34,0-.68,0-1,0" transform="translate(0 -28.36)"/><path class="cls-5" d="M107.69,626.89a23.62,23.62,0,0,1,8.65-2.33" transform="translate(0 -28.36)"/><path class="cls-5" d="M128.89,628.1a7.12,7.12,0,0,1,2.71,5.59V634" transform="translate(0 -28.36)"/><path class="cls-5" d="M116.35,624.57c.33,0,.66,0,1,0s.66,0,1,0" transform="translate(0 -28.36)"/><path class="cls-5" d="M125.31,638.74a52.44,52.44,0,0,1-16,0" transform="translate(0 -28.36)"/><path class="cls-5" d="M130.86,632.16v.3a17.55,17.55,0,0,1-4.05,11.21" transform="translate(0 -28.36)"/><path class="cls-5" d="M125.5,644.47a36.07,36.07,0,0,1-7.89.88h-.27" transform="translate(0 -28.36)"/><path class="cls-5" d="M126.81,643.67a2.39,2.39,0,0,1-1.31.8" transform="translate(0 -28.36)"/><path class="cls-5" d="M125.38,643.66a60,60,0,0,1-8,.57" transform="translate(0 -28.36)"/><path class="cls-5" d="M130.86,632.16v.2a15.83,15.83,0,0,1-4,10.53" transform="translate(0 -28.36)"/><path class="cls-5" d="M126.84,642.89a2.41,2.41,0,0,1-1.46.77" transform="translate(0 -28.36)"/><path class="cls-5" d="M107.86,642.9a15.83,15.83,0,0,1-4-10.54v-.19" transform="translate(0 -28.36)"/><path class="cls-5" d="M107.88,643.68a17.54,17.54,0,0,1-4.06-11.22v-.29" transform="translate(0 -28.36)"/><path class="cls-5" d="M117.35,644.23a61.68,61.68,0,0,1-8-.56" transform="translate(0 -28.36)"/><path class="cls-5" d="M117.36,645.34H117a36.22,36.22,0,0,1-7.84-.86" transform="translate(0 -28.36)"/><path class="cls-5" d="M109.32,643.67a2.36,2.36,0,0,1-1.46-.77" transform="translate(0 -28.36)"/><path class="cls-5" d="M109.2,644.48a2.34,2.34,0,0,1-1.32-.8" transform="translate(0 -28.36)"/><path class="cls-5" d="M103.09,634c0-.1,0-.2,0-.31a7.11,7.11,0,0,1,2.72-5.58" transform="translate(0 -28.36)"/><path class="cls-5" d="M105.8,628.1a11.25,11.25,0,0,1,1.89-1.21" transform="translate(0 -28.36)"/><path class="cls-5" d="M127,626.9a10.45,10.45,0,0,1,1.89,1.21" transform="translate(0 -28.36)"/><path class="cls-5" d="M118.34,624.57a23.52,23.52,0,0,1,8.66,2.32" transform="translate(0 -28.36)"/><path class="cls-5" d="M113.42,626.56a16.93,16.93,0,0,1,7.84,0" transform="translate(0 -28.36)"/><path class="cls-5" d="M104.84,633.26c0-.09,0-.19,0-.28a4.2,4.2,0,0,1,1.48-3.2" transform="translate(0 -28.36)"/><path class="cls-5" d="M106.31,629.78a15.53,15.53,0,0,1,7.11-3.22" transform="translate(0 -28.36)"/><path class="cls-5" d="M128.37,629.78a4.2,4.2,0,0,1,1.48,3.2,2.62,2.62,0,0,1,0,.28" transform="translate(0 -28.36)"/><path class="cls-5" d="M121.27,626.56a15.57,15.57,0,0,1,7.11,3.22" transform="translate(0 -28.36)"/><path class="cls-5" d="M117.34,634.53a1.83,1.83,0,1,0,1.84,1.82,1.84,1.84,0,0,0-1.84-1.82" transform="translate(0 -28.36)"/><path class="cls-5" d="M117.34,635.05a1.31,1.31,0,1,0,1.32,1.3,1.31,1.31,0,0,0-1.32-1.3" transform="translate(0 -28.36)"/><line class="cls-5" x1="77.33" y1="514.45" x2="102.12" y2="514.45"/><line class="cls-5" x1="66.54" y1="513.4" x2="66.54" y2="539.78"/><line class="cls-5" x1="66.54" y1="513.4" x2="75.83" y2="513.4"/><line class="cls-5" x1="81.68" y1="526.59" x2="81.68" y2="536.37"/><line class="cls-5" x1="102.08" y1="514.45" x2="81.68" y2="516.81"/><line class="cls-5" x1="81.68" y1="526.59" x2="81.68" y2="516.81"/><line class="cls-5" x1="102.08" y1="538.73" x2="81.68" y2="536.37"/><line class="cls-5" x1="102.08" y1="515.07" x2="81.68" y2="517.43"/><line class="cls-5" x1="102.08" y1="538.11" x2="81.68" y2="535.75"/><line class="cls-5" x1="77.32" y1="538.73" x2="102.12" y2="538.73"/><line class="cls-5" x1="66.54" y1="539.78" x2="75.83" y2="539.78"/><line class="cls-5" x1="102.08" y1="514.45" x2="104.83" y2="514.79"/><line class="cls-5" x1="104.83" y1="514.79" x2="107.42" y2="515.83"/><line class="cls-5" x1="107.42" y1="515.83" x2="109.7" y2="517.49"/><line class="cls-5" x1="109.7" y1="517.49" x2="111.54" y2="519.68"/><line class="cls-5" x1="111.54" y1="519.68" x2="112.83" y2="522.28"/><line class="cls-5" x1="112.83" y1="522.28" x2="113.49" y2="525.13"/><line class="cls-5" x1="113.49" y1="525.13" x2="113.49" y2="528.06"/><line class="cls-5" x1="113.49" y1="528.06" x2="112.83" y2="530.9"/><line class="cls-5" x1="112.83" y1="530.9" x2="111.54" y2="533.5"/><line class="cls-5" x1="111.54" y1="533.5" x2="109.7" y2="535.69"/><line class="cls-5" x1="109.7" y1="535.69" x2="107.42" y2="537.35"/><line class="cls-5" x1="107.42" y1="537.35" x2="104.83" y2="538.39"/><line class="cls-5" x1="104.83" y1="538.39" x2="102.08" y2="538.73"/><line class="cls-5" x1="102.08" y1="515.07" x2="104.68" y2="515.4"/><line class="cls-5" x1="104.68" y1="515.4" x2="107.13" y2="516.39"/><line class="cls-5" x1="107.13" y1="516.39" x2="109.29" y2="517.97"/><line class="cls-5" x1="109.29" y1="517.97" x2="111.02" y2="520.05"/><line class="cls-5" x1="111.02" y1="520.05" x2="112.24" y2="522.51"/><line class="cls-5" x1="112.24" y1="522.51" x2="112.87" y2="525.2"/><line class="cls-5" x1="112.87" y1="525.2" x2="112.87" y2="527.98"/><line class="cls-5" x1="112.87" y1="527.98" x2="112.24" y2="530.68"/><line class="cls-5" x1="112.24" y1="530.68" x2="111.02" y2="533.14"/><line class="cls-5" x1="111.02" y1="533.14" x2="109.29" y2="535.21"/><line class="cls-5" x1="109.29" y1="535.21" x2="107.13" y2="536.79"/><line class="cls-5" x1="107.13" y1="536.79" x2="104.68" y2="537.78"/><line class="cls-5" x1="104.68" y1="537.78" x2="102.08" y2="538.11"/><path class="cls-5" d="M77.39,543.13A111.16,111.16,0,0,1,78,555a108.27,108.27,0,0,1-.64,11.81" transform="translate(0 -28.36)"/><path class="cls-5" d="M75.84,541.76a1.55,1.55,0,0,1,1.55,1.37" transform="translate(0 -28.36)"/><path class="cls-5" d="M77.39,566.76a1.55,1.55,0,0,1-1.55,1.38h0" transform="translate(0 -28.36)"/><path class="cls-5" d="M72.4,556.23A1.28,1.28,0,1,0,71.09,555a1.29,1.29,0,0,0,1.31,1.28" transform="translate(0 -28.36)"/><line class="cls-5" x1="144.94" y1="91.1" x2="90.06" y2="91.1"/><line class="cls-5" x1="24.48" y1="91.1" x2="0.25" y2="91.1"/><line class="cls-5" x1="258.27" y1="91.1" x2="210.51" y2="91.1"/><line class="cls-5" x1="258.27" y1="91.1" x2="258.27" y2="91.1"/><line class="cls-5" x1="263.86" y1="91.1" x2="258.27" y2="91.1"/><line class="cls-5" x1="0.25" y1="91.81" x2="0.25" y2="91.81"/><line class="cls-5" x1="142.09" y1="91.81" x2="92.91" y2="91.81"/><line class="cls-5" x1="21.63" y1="91.81" x2="14.51" y2="91.81"/><line class="cls-5" x1="244.01" y1="91.81" x2="213.36" y2="91.81"/><line class="cls-5" x1="213.36" y1="96.09" x2="213.36" y2="120.32"/><line class="cls-5" x1="210.51" y1="91.1" x2="210.51" y2="91.81"/><line class="cls-5" x1="210.51" y1="82.54" x2="210.51" y2="91.1"/><line class="cls-5" x1="210.51" y1="91.81" x2="213.36" y2="91.81"/><line class="cls-5" x1="213.36" y1="91.81" x2="213.36" y2="96.09"/><line class="cls-5" x1="142.09" y1="96.09" x2="142.09" y2="120.32"/><line class="cls-5" x1="144.94" y1="91.1" x2="144.94" y2="91.81"/><line class="cls-5" x1="144.94" y1="82.54" x2="144.94" y2="91.1"/><line class="cls-5" x1="144.94" y1="91.81" x2="142.09" y2="91.81"/><line class="cls-5" x1="142.09" y1="91.81" x2="142.09" y2="96.09"/><line class="cls-5" x1="21.63" y1="96.09" x2="21.63" y2="120.32"/><line class="cls-5" x1="24.48" y1="91.1" x2="24.48" y2="91.81"/><line class="cls-5" x1="24.48" y1="82.54" x2="24.48" y2="91.1"/><line class="cls-5" x1="24.48" y1="91.81" x2="21.63" y2="91.81"/><line class="cls-5" x1="21.63" y1="91.81" x2="21.63" y2="96.09"/><line class="cls-5" x1="92.91" y1="96.09" x2="92.91" y2="120.32"/><line class="cls-5" x1="90.06" y1="91.1" x2="90.06" y2="91.81"/><line class="cls-5" x1="90.06" y1="82.54" x2="90.06" y2="91.1"/><line class="cls-5" x1="90.06" y1="91.81" x2="92.91" y2="91.81"/><line class="cls-5" x1="92.91" y1="91.81" x2="92.91" y2="96.09"/><line class="cls-5" x1="269.67" y1="82.54" x2="210.51" y2="82.54"/><line class="cls-5" x1="144.94" y1="82.54" x2="90.06" y2="82.54"/><line class="cls-5" x1="24.48" y1="82.54" x2="0.25" y2="82.54"/><line class="cls-5" x1="14.51" y1="120.32" x2="21.63" y2="120.32"/><line class="cls-5" x1="92.91" y1="120.32" x2="142.09" y2="120.32"/><line class="cls-5" x1="213.36" y1="120.32" x2="244.01" y2="120.32"/><line class="cls-5" x1="144.94" y1="82.54" x2="210.51" y2="82.54"/><line class="cls-5" x1="142.09" y1="120.32" x2="213.36" y2="120.32"/><line class="cls-5" x1="142.09" y1="96.09" x2="146.01" y2="96.09"/><line class="cls-5" x1="146.01" y1="96.09" x2="146.01" y2="93.24"/><line class="cls-5" x1="146.01" y1="93.24" x2="147.79" y2="93.24"/><line class="cls-5" x1="147.79" y1="93.24" x2="147.79" y2="91.81"/><line class="cls-5" x1="147.79" y1="91.81" x2="142.09" y2="91.81"/><line class="cls-5" x1="213.36" y1="91.81" x2="207.66" y2="91.81"/><line class="cls-5" x1="207.66" y1="91.81" x2="207.66" y2="93.24"/><line class="cls-5" x1="207.66" y1="93.24" x2="209.44" y2="93.24"/><line class="cls-5" x1="209.44" y1="93.24" x2="209.44" y2="96.09"/><line class="cls-5" x1="209.44" y1="96.09" x2="213.36" y2="96.09"/><line class="cls-5" x1="207.66" y1="91.81" x2="147.79" y2="91.81"/><line class="cls-5" x1="150.28" y1="97.51" x2="205.17" y2="97.51"/><line class="cls-5" x1="146.01" y1="97.51" x2="150.28" y2="97.51"/><line class="cls-5" x1="150.28" y1="97.51" x2="150.28" y2="93.24"/><line class="cls-5" x1="150.28" y1="93.24" x2="146.01" y2="93.24"/><line class="cls-5" x1="146.01" y1="93.24" x2="146.01" y2="97.51"/><line class="cls-5" x1="209.44" y1="93.24" x2="205.17" y2="93.24"/><line class="cls-5" x1="205.17" y1="93.24" x2="205.17" y2="97.51"/><line class="cls-5" x1="205.17" y1="97.51" x2="209.44" y2="97.51"/><line class="cls-5" x1="209.44" y1="97.51" x2="209.44" y2="93.24"/><line class="cls-5" x1="205.17" y1="93.24" x2="150.28" y2="93.24"/><line class="cls-5" x1="150.28" y1="97.51" x2="205.17" y2="97.51"/><line class="cls-5" x1="150.28" y1="95.37" x2="205.17" y2="95.37"/><line class="cls-5" x1="142.09" y1="91.81" x2="142.09" y2="96.09"/><line class="cls-5" x1="142.09" y1="91.81" x2="142.09" y2="96.09"/><line class="cls-5" x1="144.94" y1="91.81" x2="142.09" y2="91.81"/><line class="cls-5" x1="144.94" y1="91.81" x2="142.09" y2="91.81"/><line class="cls-5" x1="144.94" y1="82.54" x2="144.94" y2="91.1"/><line class="cls-5" x1="144.94" y1="91.1" x2="144.94" y2="91.81"/><line class="cls-5" x1="142.09" y1="96.09" x2="142.09" y2="120.32"/><line class="cls-5" x1="213.36" y1="91.81" x2="213.36" y2="96.09"/><line class="cls-5" x1="213.36" y1="91.81" x2="213.36" y2="96.09"/><line class="cls-5" x1="210.51" y1="91.81" x2="213.36" y2="91.81"/><line class="cls-5" x1="210.51" y1="91.81" x2="213.36" y2="91.81"/><line class="cls-5" x1="210.51" y1="82.54" x2="210.51" y2="91.1"/><line class="cls-5" x1="210.51" y1="91.1" x2="210.51" y2="91.81"/><line class="cls-5" x1="213.36" y1="96.09" x2="213.36" y2="120.32"/><line class="cls-5" x1="90.06" y1="82.54" x2="24.48" y2="82.54"/><line class="cls-5" x1="92.91" y1="120.32" x2="21.63" y2="120.32"/><line class="cls-5" x1="92.91" y1="96.09" x2="88.99" y2="96.09"/><line class="cls-5" x1="88.99" y1="96.09" x2="88.99" y2="93.24"/><line class="cls-5" x1="88.99" y1="93.24" x2="87.21" y2="93.24"/><line class="cls-5" x1="87.21" y1="93.24" x2="87.21" y2="91.81"/><line class="cls-5" x1="87.21" y1="91.81" x2="92.91" y2="91.81"/><line class="cls-5" x1="21.63" y1="91.81" x2="27.33" y2="91.81"/><line class="cls-5" x1="27.33" y1="91.81" x2="27.33" y2="93.24"/><line class="cls-5" x1="27.33" y1="93.24" x2="25.55" y2="93.24"/><line class="cls-5" x1="25.55" y1="93.24" x2="25.55" y2="96.09"/><line class="cls-5" x1="25.55" y1="96.09" x2="21.63" y2="96.09"/><line class="cls-5" x1="27.33" y1="91.81" x2="87.21" y2="91.81"/><line class="cls-5" x1="84.71" y1="97.51" x2="29.83" y2="97.51"/><line class="cls-5" x1="88.99" y1="97.51" x2="84.71" y2="97.51"/><line class="cls-5" x1="84.71" y1="97.51" x2="84.71" y2="93.24"/><line class="cls-5" x1="84.71" y1="93.24" x2="88.99" y2="93.24"/><line class="cls-5" x1="88.99" y1="93.24" x2="88.99" y2="97.51"/><line class="cls-5" x1="25.55" y1="93.24" x2="29.83" y2="93.24"/><line class="cls-5" x1="29.83" y1="93.24" x2="29.83" y2="97.51"/><line class="cls-5" x1="29.83" y1="97.51" x2="25.55" y2="97.51"/><line class="cls-5" x1="25.55" y1="97.51" x2="25.55" y2="93.24"/><line class="cls-5" x1="29.83" y1="93.24" x2="84.71" y2="93.24"/><line class="cls-5" x1="84.71" y1="97.51" x2="29.83" y2="97.51"/><line class="cls-5" x1="84.71" y1="95.37" x2="29.83" y2="95.37"/><line class="cls-5" x1="92.91" y1="91.81" x2="92.91" y2="96.09"/><line class="cls-5" x1="92.91" y1="91.81" x2="92.91" y2="96.09"/><line class="cls-5" x1="90.06" y1="91.81" x2="92.91" y2="91.81"/><line class="cls-5" x1="90.06" y1="91.81" x2="92.91" y2="91.81"/><line class="cls-5" x1="90.06" y1="82.54" x2="90.06" y2="91.1"/><line class="cls-5" x1="90.06" y1="91.1" x2="90.06" y2="91.81"/><line class="cls-5" x1="92.91" y1="96.09" x2="92.91" y2="120.32"/><line class="cls-5" x1="21.63" y1="91.81" x2="21.63" y2="96.09"/><line class="cls-5" x1="21.63" y1="91.81" x2="21.63" y2="96.09"/><line class="cls-5" x1="24.48" y1="91.81" x2="21.63" y2="91.81"/><line class="cls-5" x1="24.48" y1="91.81" x2="21.63" y2="91.81"/><line class="cls-5" x1="24.48" y1="82.54" x2="24.48" y2="91.1"/><line class="cls-5" x1="24.48" y1="91.1" x2="24.48" y2="91.81"/><line class="cls-5" x1="21.63" y1="96.09" x2="21.63" y2="120.32"/><line class="cls-5" x1="0.25" y1="498.79" x2="0.25" y2="493.09"/><line class="cls-5" x1="249.71" y1="380.48" x2="249.71" y2="173.78"/><line class="cls-5" x1="244.01" y1="173.78" x2="244.01" y2="380.48"/><line class="cls-5" x1="244.01" y1="451.75" x2="249.71" y2="451.75"/><line class="cls-5" x1="331.68" y1="619.25" x2="331.68" y2="562.23"/><line class="cls-5" x1="331.68" y1="505.21" x2="331.68" y2="451.75"/><line class="cls-5" x1="325.98" y1="451.75" x2="325.98" y2="505.21"/><line class="cls-5" x1="325.98" y1="562.23" x2="325.98" y2="619.25"/><line class="cls-5" x1="325.98" y1="619.25" x2="331.68" y2="619.25"/><line class="cls-5" x1="325.98" y1="505.21" x2="331.68" y2="505.21"/><line class="cls-5" x1="325.98" y1="562.23" x2="331.68" y2="562.23"/><line class="cls-5" x1="420.45" y1="530.87" x2="420.78" y2="530.55"/><line class="cls-5" x1="415.07" y1="502.99" x2="415.7" y2="502.36"/><line class="cls-5" x1="417.92" y1="502.36" x2="420.78" y2="502.36"/><line class="cls-5" x1="415.07" y1="502.36" x2="417.92" y2="502.36"/><line class="cls-5" x1="417.92" y1="530.87" x2="420.78" y2="530.87"/><line class="cls-5" x1="415.07" y1="530.87" x2="417.92" y2="530.87"/><line class="cls-5" x1="420.78" y1="534.43" x2="420.78" y2="530.87"/><line class="cls-5" x1="420.78" y1="502.36" x2="420.78" y2="498.79"/><line class="cls-5" x1="420.78" y1="493.09" x2="420.78" y2="451.75"/><line class="cls-5" x1="415.07" y1="451.75" x2="415.07" y2="502.36"/><line class="cls-5" x1="415.07" y1="530.87" x2="415.07" y2="540.13"/><line class="cls-5" x1="415.07" y1="530.87" x2="415.07" y2="502.36"/><line class="cls-5" x1="420.78" y1="530.87" x2="420.78" y2="502.36"/><path class="cls-5" d="M415.07,559.23a28.49,28.49,0,0,1-9.75-1.72" transform="translate(0 -28.36)"/><line class="cls-5" x1="415.07" y1="502.36" x2="405.32" y2="529.15"/><line class="cls-5" x1="415.07" y1="530.87" x2="417.92" y2="530.87"/><line class="cls-5" x1="415.07" y1="530.87" x2="417.92" y2="530.87"/><line class="cls-5" x1="417.92" y1="530.87" x2="420.78" y2="530.87"/><line class="cls-5" x1="415.07" y1="502.36" x2="417.92" y2="502.36"/><line class="cls-5" x1="415.07" y1="502.36" x2="417.92" y2="502.36"/><line class="cls-5" x1="417.92" y1="502.36" x2="420.78" y2="502.36"/><line class="cls-5" x1="449.29" y1="493.09" x2="420.78" y2="493.09"/><line class="cls-5" x1="420.78" y1="498.79" x2="449.29" y2="498.79"/><line class="cls-5" x1="449.29" y1="498.79" x2="449.29" y2="493.09"/><line class="cls-5" x1="168.46" y1="493.09" x2="14.51" y2="493.09"/><line class="cls-5" x1="14.51" y1="493.09" x2="14.51" y2="498.79"/><line class="cls-5" x1="14.51" y1="498.79" x2="58.7" y2="498.79"/><line class="cls-5" x1="64.4" y1="498.79" x2="168.46" y2="498.79"/><line class="cls-5" x1="415.07" y1="540.13" x2="449.29" y2="540.13"/><line class="cls-5" x1="449.29" y1="540.13" x2="449.29" y2="534.43"/><line class="cls-5" x1="449.29" y1="534.43" x2="420.78" y2="534.43"/><line class="cls-5" x1="449.29" y1="446.05" x2="325.98" y2="446.05"/><line class="cls-5" x1="174.16" y1="446.05" x2="168.46" y2="446.05"/><line class="cls-5" x1="331.68" y1="451.75" x2="415.07" y2="451.75"/><line class="cls-5" x1="420.78" y1="451.75" x2="449.29" y2="451.75"/><line class="cls-5" x1="174.16" y1="446.05" x2="174.16" y2="451.75"/><line class="cls-5" x1="244.01" y1="446.05" x2="244.01" y2="451.75"/><line class="cls-5" x1="239.54" y1="446.05" x2="244.01" y2="446.05"/><line class="cls-5" x1="239.54" y1="451.75" x2="244.01" y2="451.75"/><line class="cls-5" x1="325.98" y1="446.05" x2="325.98" y2="451.75"/><line class="cls-5" x1="258.27" y1="446.05" x2="258.27" y2="451.75"/><line class="cls-5" x1="260.48" y1="446.05" x2="258.27" y2="446.05"/><line class="cls-5" x1="260.48" y1="451.75" x2="258.27" y2="451.75"/><line class="cls-5" x1="168.46" y1="446.05" x2="168.46" y2="493.09"/><line class="cls-5" x1="168.46" y1="498.79" x2="168.46" y2="511.01"/><line class="cls-5" x1="168.46" y1="568" x2="168.46" y2="619.25"/><line class="cls-5" x1="168.46" y1="619.25" x2="174.16" y2="619.25"/><line class="cls-5" x1="174.16" y1="619.25" x2="174.16" y2="568"/><line class="cls-5" x1="174.16" y1="511.01" x2="174.16" y2="451.75"/><line class="cls-5" x1="168.46" y1="511.01" x2="174.16" y2="511.01"/><line class="cls-5" x1="168.46" y1="568" x2="174.16" y2="568"/><line class="cls-5" x1="249.71" y1="380.48" x2="249.71" y2="179.48"/><line class="cls-5" x1="249.71" y1="179.48" x2="244.01" y2="179.48"/><line class="cls-5" x1="244.01" y1="179.48" x2="244.01" y2="380.48"/><line class="cls-5" x1="463.54" y1="473.13" x2="463.54" y2="478.84"/><line class="cls-5" x1="463.54" y1="514.47" x2="463.54" y2="520.18"/><line class="cls-5" x1="269.35" y1="141.95" x2="269.35" y2="141.95"/><line class="cls-5" x1="269.35" y1="134.01" x2="269.35" y2="134.01"/><line class="cls-5" x1="269.35" y1="102.26" x2="269.35" y2="102.26"/><line class="cls-5" x1="269.35" y1="94.32" x2="269.35" y2="94.32"/><line class="cls-5" x1="269.65" y1="153.33" x2="269.65" y2="153.33"/><line class="cls-5" x1="268.96" y1="91.1" x2="269.67" y2="91.1"/><line class="cls-5" x1="263.86" y1="91.1" x2="268.96" y2="91.1"/><line class="cls-5" x1="268.96" y1="161.66" x2="268.96" y2="91.1"/><line class="cls-5" x1="258.27" y1="120.32" x2="258.27" y2="102.5"/><line class="cls-5" x1="258.27" y1="172.35" x2="258.27" y2="120.32"/><line class="cls-5" x1="269.67" y1="82.54" x2="269.67" y2="91.1"/><line class="cls-5" x1="269.67" y1="160.95" x2="269.67" y2="91.1"/><line class="cls-5" x1="244.01" y1="173.78" x2="244.01" y2="186.61"/><line class="cls-5" x1="466.39" y1="161.66" x2="466.39" y2="91.1"/><line class="cls-5" x1="466.39" y1="91.1" x2="457.84" y2="91.1"/><line class="cls-5" x1="457.84" y1="91.1" x2="457.84" y2="161.66"/><line class="cls-5" x1="457.84" y1="161.66" x2="466.39" y2="161.66"/><line class="cls-5" x1="451.42" y1="82.54" x2="451.42" y2="91.1"/><line class="cls-5" x1="274.66" y1="82.54" x2="274.66" y2="91.1"/><line class="cls-5" x1="269.67" y1="91.1" x2="271.81" y2="91.1"/><line class="cls-5" x1="454.27" y1="91.1" x2="466.75" y2="91.1"/><line class="cls-5" x1="466.75" y1="82.54" x2="451.42" y2="82.54"/><line class="cls-5" x1="274.66" y1="82.54" x2="269.67" y2="82.54"/><line class="cls-5" x1="269.67" y1="82.54" x2="269.67" y2="91.1"/><line class="cls-5" x1="274.66" y1="82.54" x2="451.42" y2="82.54"/><line class="cls-5" x1="271.81" y1="96.09" x2="275.73" y2="96.09"/><line class="cls-5" x1="275.73" y1="96.09" x2="275.73" y2="93.24"/><line class="cls-5" x1="275.73" y1="93.24" x2="277.51" y2="93.24"/><line class="cls-5" x1="277.51" y1="93.24" x2="277.51" y2="91.81"/><line class="cls-5" x1="277.51" y1="91.81" x2="271.81" y2="91.81"/><line class="cls-5" x1="333.82" y1="91.81" x2="330.97" y2="91.81"/><line class="cls-5" x1="330.97" y1="91.81" x2="330.97" y2="93.24"/><line class="cls-5" x1="330.97" y1="93.24" x2="332.75" y2="93.24"/><line class="cls-5" x1="332.75" y1="93.24" x2="332.75" y2="96.09"/><line class="cls-5" x1="332.75" y1="96.09" x2="333.82" y2="96.09"/><line class="cls-5" x1="330.97" y1="91.81" x2="277.51" y2="91.81"/><line class="cls-5" x1="280.01" y1="97.51" x2="328.47" y2="97.51"/><line class="cls-5" x1="275.73" y1="97.51" x2="280.01" y2="97.51"/><line class="cls-5" x1="280.01" y1="97.51" x2="280.01" y2="93.24"/><line class="cls-5" x1="280.01" y1="93.24" x2="275.73" y2="93.24"/><line class="cls-5" x1="275.73" y1="93.24" x2="275.73" y2="97.51"/><line class="cls-5" x1="332.75" y1="93.24" x2="328.47" y2="93.24"/><line class="cls-5" x1="328.47" y1="93.24" x2="328.47" y2="97.51"/><line class="cls-5" x1="328.47" y1="97.51" x2="332.75" y2="97.51"/><line class="cls-5" x1="332.75" y1="97.51" x2="332.75" y2="93.24"/><line class="cls-5" x1="328.47" y1="93.24" x2="280.01" y2="93.24"/><line class="cls-5" x1="280.01" y1="97.51" x2="328.47" y2="97.51"/><line class="cls-5" x1="280.01" y1="95.37" x2="328.47" y2="95.37"/><line class="cls-5" x1="333.82" y1="96.09" x2="334.89" y2="96.09"/><line class="cls-5" x1="334.89" y1="96.09" x2="334.89" y2="93.24"/><line class="cls-5" x1="334.89" y1="93.24" x2="336.67" y2="93.24"/><line class="cls-5" x1="336.67" y1="93.24" x2="336.67" y2="91.81"/><line class="cls-5" x1="336.67" y1="91.81" x2="333.82" y2="91.81"/><line class="cls-5" x1="392.27" y1="91.81" x2="389.41" y2="91.81"/><line class="cls-5" x1="389.41" y1="91.81" x2="389.41" y2="93.24"/><line class="cls-5" x1="389.41" y1="93.24" x2="391.2" y2="93.24"/><line class="cls-5" x1="391.2" y1="93.24" x2="391.2" y2="96.09"/><line class="cls-5" x1="391.2" y1="96.09" x2="392.27" y2="96.09"/><line class="cls-5" x1="389.41" y1="91.81" x2="336.67" y2="91.81"/><line class="cls-5" x1="339.17" y1="97.51" x2="386.92" y2="97.51"/><line class="cls-5" x1="334.89" y1="97.51" x2="339.17" y2="97.51"/><line class="cls-5" x1="339.17" y1="97.51" x2="339.17" y2="93.24"/><line class="cls-5" x1="339.17" y1="93.24" x2="334.89" y2="93.24"/><line class="cls-5" x1="334.89" y1="93.24" x2="334.89" y2="97.51"/><line class="cls-5" x1="391.2" y1="93.24" x2="386.92" y2="93.24"/><line class="cls-5" x1="386.92" y1="93.24" x2="386.92" y2="97.51"/><line class="cls-5" x1="386.92" y1="97.51" x2="391.2" y2="97.51"/><line class="cls-5" x1="391.2" y1="97.51" x2="391.2" y2="93.24"/><line class="cls-5" x1="386.92" y1="93.24" x2="339.17" y2="93.24"/><line class="cls-5" x1="339.17" y1="97.51" x2="386.92" y2="97.51"/><line class="cls-5" x1="339.17" y1="95.37" x2="386.92" y2="95.37"/><line class="cls-5" x1="392.27" y1="96.09" x2="393.33" y2="96.09"/><line class="cls-5" x1="393.33" y1="96.09" x2="393.33" y2="93.24"/><line class="cls-5" x1="393.33" y1="93.24" x2="395.12" y2="93.24"/><line class="cls-5" x1="395.12" y1="93.24" x2="395.12" y2="91.81"/><line class="cls-5" x1="395.12" y1="91.81" x2="392.27" y2="91.81"/><line class="cls-5" x1="454.27" y1="91.81" x2="448.57" y2="91.81"/><line class="cls-5" x1="448.57" y1="91.81" x2="448.57" y2="93.24"/><line class="cls-5" x1="448.57" y1="93.24" x2="450.35" y2="93.24"/><line class="cls-5" x1="450.35" y1="93.24" x2="450.35" y2="96.09"/><line class="cls-5" x1="450.35" y1="96.09" x2="454.27" y2="96.09"/><line class="cls-5" x1="448.57" y1="91.81" x2="395.12" y2="91.81"/><line class="cls-5" x1="397.61" y1="97.51" x2="446.08" y2="97.51"/><line class="cls-5" x1="393.33" y1="97.51" x2="397.61" y2="97.51"/><line class="cls-5" x1="397.61" y1="97.51" x2="397.61" y2="93.24"/><line class="cls-5" x1="397.61" y1="93.24" x2="393.33" y2="93.24"/><line class="cls-5" x1="393.33" y1="93.24" x2="393.33" y2="97.51"/><line class="cls-5" x1="450.35" y1="93.24" x2="446.08" y2="93.24"/><line class="cls-5" x1="446.08" y1="93.24" x2="446.08" y2="97.51"/><line class="cls-5" x1="446.08" y1="97.51" x2="450.35" y2="97.51"/><line class="cls-5" x1="450.35" y1="97.51" x2="450.35" y2="93.24"/><line class="cls-5" x1="446.08" y1="93.24" x2="397.61" y2="93.24"/><line class="cls-5" x1="397.61" y1="97.51" x2="446.08" y2="97.51"/><line class="cls-5" x1="397.61" y1="95.37" x2="446.08" y2="95.37"/><line class="cls-5" x1="274.66" y1="82.54" x2="274.66" y2="91.1"/><line class="cls-5" x1="451.42" y1="82.54" x2="451.42" y2="91.1"/><line class="cls-5" x1="451.86" y1="161.61" x2="451.86" y2="161.61"/><line class="cls-5" x1="445.65" y1="160.95" x2="445.65" y2="160.95"/><line class="cls-5" x1="421.99" y1="161.6" x2="421.99" y2="161.6"/><line class="cls-5" x1="409.82" y1="160.99" x2="409.82" y2="160.99"/><line class="cls-5" x1="386.16" y1="161.63" x2="386.16" y2="161.63"/><line class="cls-5" x1="379.95" y1="160.97" x2="379.95" y2="160.97"/><line class="cls-5" x1="369.89" y1="168.41" x2="369.89" y2="168.41"/><line class="cls-5" x1="269.49" y1="169.32" x2="269.49" y2="169.32"/><line class="cls-5" x1="467.1" y1="161.66" x2="370.17" y2="161.66"/><line class="cls-5" x1="266.11" y1="172.35" x2="258.27" y2="172.35"/><line class="cls-5" x1="467.1" y1="172.35" x2="373.02" y2="172.35"/><line class="cls-5" x1="268.96" y1="172.35" x2="268.96" y2="161.66"/><line class="cls-5" x1="269.67" y1="160.95" x2="269.67" y2="172.35"/><line class="cls-5" x1="268.96" y1="160.95" x2="269.67" y2="160.95"/><line class="cls-5" x1="370.17" y1="172.35" x2="370.17" y2="161.66"/><line class="cls-5" x1="369.46" y1="160.95" x2="369.46" y2="172.35"/><line class="cls-5" x1="370.17" y1="160.95" x2="369.46" y2="160.95"/><line class="cls-5" x1="266.11" y1="172.35" x2="269.67" y2="172.35"/><line class="cls-5" x1="266.11" y1="186.61" x2="266.11" y2="172.35"/><line class="cls-5" x1="373.02" y1="172.35" x2="369.46" y2="172.35"/><line class="cls-5" x1="373.02" y1="186.61" x2="373.02" y2="172.35"/><line class="cls-5" x1="244.01" y1="186.61" x2="258.27" y2="186.61"/><line class="cls-5" x1="258.27" y1="186.61" x2="266.11" y2="186.61"/><line class="cls-5" x1="373.02" y1="186.61" x2="449.29" y2="186.61"/><line class="cls-5" x1="463.54" y1="186.61" x2="467.1" y2="186.61"/><line class="cls-5" x1="467.1" y1="160.95" x2="370.17" y2="160.95"/><line class="cls-5" x1="368.74" y1="173.78" x2="368.74" y2="178.05"/><line class="cls-5" x1="368.74" y1="178.05" x2="364.47" y2="178.05"/><line class="cls-5" x1="364.47" y1="178.05" x2="364.47" y2="173.78"/><line class="cls-5" x1="364.47" y1="173.78" x2="368.74" y2="173.78"/><line class="cls-5" x1="328.12" y1="173.78" x2="328.12" y2="178.05"/><line class="cls-5" x1="328.12" y1="178.05" x2="323.84" y2="178.05"/><line class="cls-5" x1="323.84" y1="178.05" x2="323.84" y2="173.78"/><line class="cls-5" x1="323.84" y1="173.78" x2="328.12" y2="173.78"/><line class="cls-5" x1="364.47" y1="173.78" x2="364.47" y2="178.05"/><line class="cls-5" x1="364.47" y1="178.05" x2="328.12" y2="178.05"/><line class="cls-5" x1="328.12" y1="178.05" x2="328.12" y2="173.78"/><line class="cls-5" x1="328.12" y1="173.78" x2="364.47" y2="173.78"/><line class="cls-5" x1="274.66" y1="173.78" x2="274.66" y2="178.05"/><line class="cls-5" x1="274.66" y1="178.05" x2="270.38" y2="178.05"/><line class="cls-5" x1="270.38" y1="178.05" x2="270.38" y2="173.78"/><line class="cls-5" x1="270.38" y1="173.78" x2="274.66" y2="173.78"/><line class="cls-5" x1="320.99" y1="173.78" x2="320.99" y2="178.05"/><line class="cls-5" x1="320.99" y1="178.05" x2="316.71" y2="178.05"/><line class="cls-5" x1="316.71" y1="178.05" x2="316.71" y2="173.78"/><line class="cls-5" x1="316.71" y1="173.78" x2="320.99" y2="173.78"/><line class="cls-5" x1="316.71" y1="173.78" x2="316.71" y2="178.05"/><line class="cls-5" x1="316.71" y1="178.05" x2="274.66" y2="178.05"/><line class="cls-5" x1="274.66" y1="178.05" x2="274.66" y2="173.78"/><line class="cls-5" x1="274.66" y1="173.78" x2="316.71" y2="173.78"/><line class="cls-5" x1="325.27" y1="160.95" x2="325.27" y2="169.5"/><line class="cls-5" x1="325.27" y1="186.61" x2="325.27" y2="176.63"/><line class="cls-5" x1="370.17" y1="160.95" x2="325.27" y2="160.95"/><line class="cls-5" x1="268.96" y1="160.95" x2="328.12" y2="160.95"/><line class="cls-5" x1="373.02" y1="186.61" x2="325.27" y2="186.61"/><line class="cls-5" x1="266.11" y1="186.61" x2="328.12" y2="186.61"/><line class="cls-5" x1="373.02" y1="172.35" x2="266.11" y2="172.35"/><line class="cls-5" x1="373.02" y1="176.63" x2="368.74" y2="176.63"/><line class="cls-5" x1="367.32" y1="172.35" x2="367.32" y2="173.78"/><line class="cls-5" x1="325.27" y1="172.35" x2="325.27" y2="173.78"/><line class="cls-5" x1="266.11" y1="176.63" x2="270.38" y2="176.63"/><line class="cls-5" x1="271.81" y1="172.35" x2="271.81" y2="173.78"/><line class="cls-5" x1="319.56" y1="172.35" x2="319.56" y2="173.78"/><line class="cls-5" x1="364.47" y1="173.78" x2="364.47" y2="178.05"/><line class="cls-5" x1="328.12" y1="173.78" x2="328.12" y2="178.05"/><line class="cls-5" x1="328.12" y1="175.91" x2="364.47" y2="175.91"/><line class="cls-5" x1="274.66" y1="173.78" x2="274.66" y2="178.05"/><line class="cls-5" x1="316.71" y1="173.78" x2="316.71" y2="178.05"/><line class="cls-5" x1="316.71" y1="175.91" x2="274.66" y2="175.91"/><line class="cls-5" x1="323.84" y1="176.63" x2="320.99" y2="176.63"/><line class="cls-5" x1="270.38" y1="178.05" x2="314.21" y2="203.36"/><path class="cls-5" d="M321,206.41a50.65,50.65,0,0,1-6.78,25.31" transform="translate(0 -28.36)"/><line class="cls-5" x1="373.02" y1="172.35" x2="373.02" y2="176.63"/><line class="cls-5" x1="373.02" y1="172.35" x2="373.02" y2="176.63"/><line class="cls-5" x1="266.11" y1="172.35" x2="266.11" y2="176.63"/><line class="cls-5" x1="266.11" y1="172.35" x2="266.11" y2="176.63"/><line class="cls-5" x1="63.64" y1="530.86" x2="64.4" y2="530.1"/><line class="cls-5" x1="58.7" y1="502.54" x2="58.88" y2="502.35"/><line class="cls-5" x1="61.55" y1="502.35" x2="58.7" y2="502.35"/><line class="cls-5" x1="64.4" y1="502.35" x2="61.55" y2="502.35"/><line class="cls-5" x1="61.55" y1="530.86" x2="58.7" y2="530.86"/><line class="cls-5" x1="64.4" y1="530.86" x2="61.55" y2="530.86"/><line class="cls-5" x1="58.7" y1="498.79" x2="58.7" y2="502.35"/><line class="cls-5" x1="58.7" y1="530.86" x2="58.7" y2="539.42"/><line class="cls-5" x1="64.4" y1="545.12" x2="64.4" y2="530.86"/><line class="cls-5" x1="64.4" y1="502.35" x2="64.4" y2="498.79"/><line class="cls-5" x1="64.4" y1="530.86" x2="64.4" y2="502.35"/><line class="cls-5" x1="58.7" y1="530.86" x2="58.7" y2="502.35"/><path class="cls-5" d="M74.15,557.5a28.49,28.49,0,0,1-9.75,1.72" transform="translate(0 -28.36)"/><line class="cls-5" x1="64.4" y1="502.35" x2="74.15" y2="529.15"/><line class="cls-5" x1="64.4" y1="530.86" x2="61.55" y2="530.86"/><line class="cls-5" x1="64.4" y1="530.86" x2="61.55" y2="530.86"/><line class="cls-5" x1="61.55" y1="530.86" x2="58.7" y2="530.86"/><line class="cls-5" x1="64.4" y1="502.35" x2="61.55" y2="502.35"/><line class="cls-5" x1="64.4" y1="502.35" x2="61.55" y2="502.35"/><line class="cls-5" x1="61.55" y1="502.35" x2="58.7" y2="502.35"/><line class="cls-5" x1="14.51" y1="545.12" x2="58.7" y2="545.12"/><line class="cls-5" x1="58.7" y1="539.42" x2="14.51" y2="539.42"/><line class="cls-5" x1="14.51" y1="539.42" x2="14.51" y2="545.12"/><line class="cls-5" x1="58.7" y1="545.12" x2="58.7" y2="619.25"/><line class="cls-5" x1="58.7" y1="619.25" x2="64.4" y2="619.25"/><line class="cls-5" x1="64.4" y1="619.25" x2="64.4" y2="545.12"/><line class="cls-5" x1="0.25" y1="545.12" x2="0.25" y2="539.42"/><line class="cls-5" x1="392.27" y1="629.44" x2="392.27" y2="624.41"/><line class="cls-5" x1="199.82" y1="619.25" x2="199.82" y2="627.8"/><line class="cls-5" x1="199.82" y1="627.8" x2="199.82" y2="633.5"/><line class="cls-5" x1="271.1" y1="619.25" x2="271.1" y2="627.8"/><line class="cls-5" x1="271.1" y1="627.8" x2="271.1" y2="633.5"/><line class="cls-5" x1="7.38" y1="633.5" x2="199.82" y2="633.5"/><line class="cls-5" x1="271.1" y1="633.5" x2="392.27" y2="633.5"/><line class="cls-5" x1="449.29" y1="619.25" x2="271.1" y2="619.25"/><line class="cls-5" x1="199.82" y1="619.25" x2="14.51" y2="619.25"/><line class="cls-5" x1="271.1" y1="633.5" x2="189.21" y2="633.5"/><path class="cls-5" d="M202.67,590.59a65.58,65.58,0,0,1,65.58,65.57" transform="translate(0 -28.36)"/><line class="cls-5" x1="271.1" y1="633.5" x2="268.25" y2="633.5"/><line class="cls-5" x1="268.25" y1="633.5" x2="268.25" y2="627.8"/><line class="cls-5" x1="268.25" y1="627.8" x2="271.1" y2="627.8"/><line class="cls-5" x1="271.1" y1="627.8" x2="271.1" y2="633.5"/><line class="cls-5" x1="199.82" y1="627.8" x2="202.67" y2="627.8"/><line class="cls-5" x1="202.67" y1="627.8" x2="202.67" y2="633.5"/><line class="cls-5" x1="202.67" y1="633.5" x2="199.82" y2="633.5"/><line class="cls-5" x1="199.82" y1="633.5" x2="199.82" y2="627.8"/><line class="cls-5" x1="202.67" y1="627.8" x2="202.67" y2="562.23"/><line class="cls-5" x1="271.1" y1="627.8" x2="271.1" y2="633.5"/><line class="cls-5" x1="271.1" y1="627.8" x2="271.1" y2="633.5"/><line class="cls-5" x1="271.1" y1="619.25" x2="271.1" y2="627.8"/><line class="cls-5" x1="199.82" y1="627.8" x2="199.82" y2="633.5"/><line class="cls-5" x1="199.82" y1="627.8" x2="199.82" y2="633.5"/><line class="cls-5" x1="199.82" y1="619.25" x2="199.82" y2="627.8"/><line class="cls-5" x1="0.25" y1="633.5" x2="7.38" y2="633.5"/><line class="cls-5" x1="0.25" y1="173.78" x2="0.25" y2="380.48"/><line class="cls-5" x1="0.25" y1="451.75" x2="0.25" y2="633.5"/><line class="cls-5" x1="14.51" y1="619.25" x2="14.51" y2="451.75"/><line class="cls-5" x1="14.51" y1="380.48" x2="14.51" y2="173.78"/><line class="cls-5" x1="449.29" y1="250.75" x2="449.29" y2="380.48"/><line class="cls-5" x1="449.29" y1="451.75" x2="449.29" y2="619.25"/><line class="cls-5" x1="463.54" y1="619.25" x2="463.54" y2="451.75"/><line class="cls-5" x1="463.54" y1="380.48" x2="463.54" y2="250.75"/><line class="cls-5" x1="266.11" y1="91.81" x2="266.11" y2="97.51"/><line class="cls-5" x1="266.11" y1="97.51" x2="271.81" y2="97.51"/><line class="cls-5" x1="271.81" y1="97.51" x2="271.81" y2="91.81"/><line class="cls-5" x1="271.81" y1="91.81" x2="266.11" y2="91.81"/><line class="cls-5" x1="266.46" y1="92.17" x2="271.45" y2="92.17"/><line class="cls-5" x1="271.45" y1="92.17" x2="271.45" y2="97.16"/><line class="cls-5" x1="271.45" y1="97.16" x2="266.46" y2="97.16"/><line class="cls-5" x1="266.46" y1="97.16" x2="266.46" y2="92.17"/><line class="cls-5" x1="22.7" y1="39.78" x2="24.48" y2="41.56"/><line class="cls-5" x1="24.48" y1="41.56" x2="24.48" y2="82.54"/><line class="cls-5" x1="24.48" y1="82.54" x2="22.7" y2="82.54"/><line class="cls-5" x1="22.7" y1="82.54" x2="22.7" y2="39.78"/><line class="cls-5" x1="91.84" y1="39.78" x2="90.06" y2="41.56"/><line class="cls-5" x1="90.06" y1="41.56" x2="24.48" y2="41.56"/><line class="cls-5" x1="24.48" y1="41.56" x2="22.7" y2="39.78"/><line class="cls-5" x1="22.7" y1="39.78" x2="91.84" y2="39.78"/><line class="cls-5" x1="91.84" y1="82.54" x2="91.84" y2="39.78"/><line class="cls-5" x1="90.06" y1="82.54" x2="91.84" y2="82.54"/><line class="cls-5" x1="90.06" y1="41.56" x2="90.06" y2="82.54"/><line class="cls-5" x1="91.84" y1="39.78" x2="90.06" y2="41.56"/><line class="cls-5" x1="23.59" y1="40.67" x2="23.59" y2="53.24"/><line class="cls-5" x1="23.59" y1="59.53" x2="23.59" y2="59.53"/><line class="cls-5" x1="23.59" y1="64.56" x2="23.59" y2="69.97"/><line class="cls-5" x1="23.59" y1="69.97" x2="23.59" y2="82.54"/><line class="cls-5" x1="90.95" y1="40.67" x2="78.38" y2="40.67"/><line class="cls-5" x1="72.09" y1="40.67" x2="72.09" y2="40.67"/><line class="cls-5" x1="67.06" y1="40.67" x2="54.49" y2="40.67"/><line class="cls-5" x1="48.2" y1="40.67" x2="48.2" y2="40.67"/><line class="cls-5" x1="43.17" y1="40.67" x2="36.17" y2="40.67"/><line class="cls-5" x1="36.17" y1="40.67" x2="23.59" y2="40.67"/><line class="cls-5" x1="88.28" y1="52.61" x2="26.27" y2="52.61"/><line class="cls-5" x1="26.27" y1="52.61" x2="26.27" y2="75.42"/><line class="cls-5" x1="26.27" y1="75.42" x2="88.28" y2="75.42"/><line class="cls-5" x1="88.28" y1="75.42" x2="88.28" y2="52.61"/><line class="cls-5" x1="88.28" y1="54.89" x2="26.27" y2="54.89"/><line class="cls-5" x1="26.27" y1="54.89" x2="26.27" y2="75.42"/><line class="cls-5" x1="26.27" y1="75.42" x2="88.28" y2="75.42"/><line class="cls-5" x1="88.28" y1="75.42" x2="88.28" y2="54.89"/><line class="cls-5" x1="90.95" y1="40.67" x2="90.95" y2="53.24"/><line class="cls-5" x1="90.95" y1="59.53" x2="90.95" y2="59.53"/><line class="cls-5" x1="90.95" y1="64.56" x2="90.95" y2="69.97"/><line class="cls-5" x1="90.95" y1="69.97" x2="90.95" y2="82.54"/><line class="cls-5" x1="463.54" y1="317.76" x2="463.54" y2="317.76"/><line class="cls-5" x1="14.51" y1="391.17" x2="16.01" y2="391.17"/><line class="cls-7" x1="18.96" y1="391.17" x2="165.32" y2="391.17"/><polyline class="cls-5" points="166.8 391.17 168.3 391.17 168.3 392.67"/><line class="cls-8" x1="168.3" y1="395.74" x2="168.3" y2="449.43"/><line class="cls-5" x1="168.3" y1="450.96" x2="168.3" y2="452.46"/><line class="cls-5" x1="168.46" y1="492.38" x2="168.46" y2="492.38"/><line class="cls-5" x1="168.46" y1="489.53" x2="168.46" y2="484.18"/><line class="cls-5" x1="168.46" y1="484.18" x2="168.46" y2="484.18"/><line class="cls-5" x1="168.46" y1="481.33" x2="168.46" y2="475.98"/><line class="cls-5" x1="168.46" y1="475.98" x2="168.46" y2="475.98"/><line class="cls-5" x1="168.46" y1="473.13" x2="168.46" y2="467.79"/><line class="cls-5" x1="168.46" y1="467.79" x2="168.46" y2="467.79"/><line class="cls-5" x1="168.46" y1="464.94" x2="168.46" y2="459.59"/><line class="cls-5" x1="168.46" y1="459.59" x2="168.46" y2="459.59"/><line class="cls-5" x1="168.46" y1="456.74" x2="168.46" y2="451.39"/><line class="cls-5" x1="168.46" y1="451.39" x2="168.46" y2="451.39"/><line class="cls-5" x1="420.78" y1="454.25" x2="420.78" y2="464.94"/><line class="cls-5" x1="415.07" y1="464.94" x2="415.07" y2="454.25"/><line class="cls-5" x1="420.64" y1="513.05" x2="420.78" y2="512.91"/><line class="cls-5" x1="415.07" y1="498.96" x2="415.24" y2="498.79"/><line class="cls-5" x1="420.78" y1="513.05" x2="420.78" y2="498.79"/><line class="cls-5" x1="420.78" y1="498.79" x2="415.07" y2="498.79"/><line class="cls-5" x1="415.07" y1="498.79" x2="415.07" y2="513.05"/><line class="cls-5" x1="441.94" y1="540.13" x2="442.16" y2="539.91"/><line class="cls-5" x1="427.9" y1="540.13" x2="442.16" y2="540.13"/><line class="cls-5" x1="442.16" y1="534.43" x2="427.9" y2="534.43"/><line class="cls-5" x1="67.96" y1="498.79" x2="82.22" y2="498.79"/><line class="cls-5" x1="82.22" y1="493.09" x2="67.96" y2="493.09"/><line class="cls-5" x1="25.15" y1="498.79" x2="25.2" y2="498.74"/><line class="cls-5" x1="14.51" y1="498.79" x2="25.2" y2="498.79"/><line class="cls-5" x1="25.2" y1="493.09" x2="14.51" y2="493.09"/><line class="cls-5" x1="14.51" y1="493.09" x2="14.51" y2="498.79"/><line class="cls-5" x1="64.4" y1="534.43" x2="64.4" y2="520.18"/><line class="cls-5" x1="58.7" y1="520.18" x2="58.7" y2="534.43"/><line class="cls-5" x1="58.7" y1="534.43" x2="64.4" y2="534.43"/><line class="cls-5" x1="64.34" y1="615.33" x2="64.4" y2="615.27"/><line class="cls-5" x1="64.4" y1="604.64" x2="64.4" y2="615.33"/><line class="cls-5" x1="58.7" y1="615.33" x2="58.7" y2="604.64"/><line class="cls-5" x1="58.7" y1="546.89" x2="59.04" y2="546.55"/><line class="cls-5" x1="64.4" y1="560.8" x2="64.4" y2="546.55"/><line class="cls-5" x1="58.7" y1="546.55" x2="58.7" y2="560.8"/><line class="cls-5" x1="460.67" y1="250.75" x2="463.54" y2="247.89"/><line class="cls-5" x1="452.61" y1="250.75" x2="463.54" y2="239.82"/><line class="cls-5" x1="449.29" y1="246.01" x2="463.54" y2="231.76"/><line class="cls-5" x1="449.29" y1="237.95" x2="463.54" y2="223.69"/><line class="cls-5" x1="449.29" y1="229.88" x2="463.54" y2="215.63"/><line class="cls-5" x1="449.29" y1="221.82" x2="463.54" y2="207.56"/><line class="cls-5" x1="449.29" y1="213.76" x2="463.54" y2="199.5"/><line class="cls-5" x1="449.29" y1="205.69" x2="463.54" y2="191.44"/><line class="cls-5" x1="449.29" y1="197.63" x2="463.54" y2="183.37"/><line class="cls-5" x1="449.29" y1="189.56" x2="459.37" y2="179.48"/><line class="cls-5" x1="449.29" y1="181.5" x2="451.31" y2="179.48"/><line class="cls-5" x1="456.64" y1="250.75" x2="458.78" y2="248.61"/><line class="cls-5" x1="459.79" y1="247.6" x2="459.79" y2="247.6"/><line class="cls-5" x1="460.8" y1="246.59" x2="463.54" y2="243.85"/><line class="cls-5" x1="449.29" y1="250.04" x2="449.71" y2="249.62"/><line class="cls-5" x1="450.72" y1="248.61" x2="450.72" y2="248.61"/><line class="cls-5" x1="451.73" y1="247.6" x2="454.75" y2="244.58"/><line class="cls-5" x1="455.76" y1="243.57" x2="455.76" y2="243.57"/><line class="cls-5" x1="456.77" y1="242.56" x2="459.79" y2="239.54"/><line class="cls-5" x1="460.8" y1="238.53" x2="460.8" y2="238.53"/><line class="cls-5" x1="461.81" y1="237.52" x2="463.54" y2="235.79"/><line class="cls-5" x1="449.29" y1="241.98" x2="450.72" y2="240.54"/><line class="cls-5" x1="451.73" y1="239.54" x2="451.73" y2="239.54"/><line class="cls-5" x1="452.74" y1="238.53" x2="455.76" y2="235.5"/><line class="cls-5" x1="456.77" y1="234.5" x2="456.77" y2="234.5"/><line class="cls-5" x1="457.78" y1="233.49" x2="460.8" y2="230.47"/><line class="cls-5" x1="461.81" y1="229.46" x2="461.81" y2="229.46"/><line class="cls-5" x1="462.82" y1="228.45" x2="463.54" y2="227.72"/><line class="cls-5" x1="449.29" y1="233.92" x2="451.73" y2="231.47"/><line class="cls-5" x1="452.74" y1="230.47" x2="452.74" y2="230.47"/><line class="cls-5" x1="453.74" y1="229.46" x2="456.77" y2="226.43"/><line class="cls-5" x1="457.78" y1="225.43" x2="457.78" y2="225.43"/><line class="cls-5" x1="458.78" y1="224.42" x2="461.81" y2="221.39"/><line class="cls-5" x1="462.82" y1="220.38" x2="462.82" y2="220.38"/><line class="cls-5" x1="449.71" y1="225.43" x2="452.74" y2="222.4"/><line class="cls-5" x1="453.74" y1="221.39" x2="453.74" y2="221.39"/><line class="cls-5" x1="454.75" y1="220.38" x2="457.78" y2="217.36"/><line class="cls-5" x1="458.78" y1="216.35" x2="458.78" y2="216.35"/><line class="cls-5" x1="459.79" y1="215.34" x2="462.82" y2="212.32"/><line class="cls-5" x1="449.71" y1="217.36" x2="449.71" y2="217.36"/><line class="cls-5" x1="450.72" y1="216.35" x2="453.74" y2="213.33"/><line class="cls-5" x1="454.75" y1="212.32" x2="454.75" y2="212.32"/><line class="cls-5" x1="455.76" y1="211.31" x2="458.78" y2="208.29"/><line class="cls-5" x1="459.79" y1="207.28" x2="459.79" y2="207.28"/><line class="cls-5" x1="460.8" y1="206.27" x2="463.54" y2="203.53"/><line class="cls-5" x1="449.29" y1="209.72" x2="449.71" y2="209.3"/><line class="cls-5" x1="450.72" y1="208.29" x2="450.72" y2="208.29"/><line class="cls-5" x1="451.73" y1="207.28" x2="454.75" y2="204.26"/><line class="cls-5" x1="455.76" y1="203.25" x2="455.76" y2="203.25"/><line class="cls-5" x1="456.77" y1="202.24" x2="459.79" y2="199.22"/><line class="cls-5" x1="460.8" y1="198.21" x2="460.8" y2="198.21"/><line class="cls-5" x1="461.81" y1="197.2" x2="463.54" y2="195.47"/><line class="cls-5" x1="449.29" y1="201.66" x2="450.72" y2="200.22"/><line class="cls-5" x1="451.73" y1="199.22" x2="451.73" y2="199.22"/><line class="cls-5" x1="452.74" y1="198.21" x2="455.76" y2="195.18"/><line class="cls-5" x1="456.77" y1="194.18" x2="456.77" y2="194.18"/><line class="cls-5" x1="457.78" y1="193.17" x2="460.8" y2="190.15"/><line class="cls-5" x1="461.81" y1="189.14" x2="461.81" y2="189.14"/><line class="cls-5" x1="462.82" y1="188.13" x2="463.54" y2="187.4"/><line class="cls-5" x1="449.29" y1="193.59" x2="451.73" y2="191.15"/><line class="cls-5" x1="452.74" y1="190.15" x2="452.74" y2="190.15"/><line class="cls-5" x1="453.74" y1="189.14" x2="456.77" y2="186.11"/><line class="cls-5" x1="457.78" y1="185.11" x2="457.78" y2="185.11"/><line class="cls-5" x1="458.78" y1="184.1" x2="461.81" y2="181.07"/><line class="cls-5" x1="462.82" y1="180.07" x2="462.82" y2="180.07"/><line class="cls-5" x1="449.71" y1="185.11" x2="452.74" y2="182.08"/><line class="cls-5" x1="453.74" y1="181.07" x2="453.74" y2="181.07"/><line class="cls-5" x1="454.75" y1="180.07" x2="455.34" y2="179.48"/><line class="cls-5" x1="463.54" y1="179.48" x2="449.29" y2="179.48"/><line class="cls-5" x1="449.29" y1="179.48" x2="449.29" y2="250.75"/><line class="cls-5" x1="449.29" y1="250.75" x2="463.54" y2="250.75"/><line class="cls-5" x1="463.54" y1="250.75" x2="463.54" y2="179.48"/><line class="cls-5" x1="461.27" y1="451.75" x2="463.54" y2="449.48"/><line class="cls-5" x1="453.21" y1="451.75" x2="463.54" y2="441.42"/><line class="cls-5" x1="449.29" y1="447.61" x2="463.54" y2="433.35"/><line class="cls-5" x1="449.29" y1="439.55" x2="463.54" y2="425.29"/><line class="cls-5" x1="449.29" y1="431.48" x2="463.54" y2="417.23"/><line class="cls-5" x1="449.29" y1="423.42" x2="463.54" y2="409.16"/><line class="cls-5" x1="449.29" y1="415.35" x2="463.54" y2="401.1"/><line class="cls-5" x1="449.29" y1="407.29" x2="463.54" y2="393.03"/><line class="cls-5" x1="449.29" y1="399.22" x2="463.54" y2="384.97"/><line class="cls-5" x1="449.29" y1="391.16" x2="459.97" y2="380.48"/><line class="cls-5" x1="449.29" y1="383.1" x2="451.91" y2="380.48"/><line class="cls-5" x1="457.24" y1="451.75" x2="458.78" y2="450.2"/><line class="cls-5" x1="459.79" y1="449.2" x2="459.79" y2="449.2"/><line class="cls-5" x1="460.8" y1="448.19" x2="463.54" y2="445.45"/><line class="cls-5" x1="449.29" y1="451.64" x2="449.71" y2="451.21"/><line class="cls-5" x1="450.72" y1="450.2" x2="450.72" y2="450.2"/><line class="cls-5" x1="451.73" y1="449.2" x2="454.75" y2="446.17"/><line class="cls-5" x1="455.76" y1="445.17" x2="455.76" y2="445.17"/><line class="cls-5" x1="456.77" y1="444.16" x2="459.79" y2="441.13"/><line class="cls-5" x1="460.8" y1="440.13" x2="460.8" y2="440.13"/><line class="cls-5" x1="461.81" y1="439.12" x2="463.54" y2="437.39"/><line class="cls-5" x1="449.29" y1="443.58" x2="450.72" y2="442.14"/><line class="cls-5" x1="451.73" y1="441.13" x2="451.73" y2="441.13"/><line class="cls-5" x1="452.74" y1="440.13" x2="455.76" y2="437.1"/><line class="cls-5" x1="456.77" y1="436.1" x2="456.77" y2="436.1"/><line class="cls-5" x1="457.78" y1="435.09" x2="460.8" y2="432.06"/><line class="cls-5" x1="461.81" y1="431.05" x2="461.81" y2="431.05"/><line class="cls-5" x1="462.82" y1="430.05" x2="463.54" y2="429.32"/><line class="cls-5" x1="449.29" y1="435.51" x2="451.73" y2="433.07"/><line class="cls-5" x1="452.74" y1="432.06" x2="452.74" y2="432.06"/><line class="cls-5" x1="453.74" y1="431.05" x2="456.77" y2="428.03"/><line class="cls-5" x1="457.78" y1="427.02" x2="457.78" y2="427.02"/><line class="cls-5" x1="458.78" y1="426.01" x2="461.81" y2="422.99"/><line class="cls-5" x1="462.82" y1="421.98" x2="462.82" y2="421.98"/><line class="cls-5" x1="449.71" y1="427.02" x2="452.74" y2="424"/><line class="cls-5" x1="453.74" y1="422.99" x2="453.74" y2="422.99"/><line class="cls-5" x1="454.75" y1="421.98" x2="457.78" y2="418.96"/><line class="cls-5" x1="458.78" y1="417.95" x2="458.78" y2="417.95"/><line class="cls-5" x1="459.79" y1="416.94" x2="462.82" y2="413.92"/><line class="cls-5" x1="449.71" y1="418.96" x2="449.71" y2="418.96"/><line class="cls-5" x1="450.72" y1="417.95" x2="453.74" y2="414.93"/><line class="cls-5" x1="454.75" y1="413.92" x2="454.75" y2="413.92"/><line class="cls-5" x1="455.76" y1="412.91" x2="458.78" y2="409.89"/><line class="cls-5" x1="459.79" y1="408.88" x2="459.79" y2="408.88"/><line class="cls-5" x1="460.8" y1="407.87" x2="463.54" y2="405.13"/><line class="cls-5" x1="449.29" y1="411.32" x2="449.71" y2="410.9"/><line class="cls-5" x1="450.72" y1="409.89" x2="450.72" y2="409.89"/><line class="cls-5" x1="451.73" y1="408.88" x2="454.75" y2="405.85"/><line class="cls-5" x1="455.76" y1="404.85" x2="455.76" y2="404.85"/><line class="cls-5" x1="456.77" y1="403.84" x2="459.79" y2="400.81"/><line class="cls-5" x1="460.8" y1="399.81" x2="460.8" y2="399.81"/><line class="cls-5" x1="461.81" y1="398.8" x2="463.54" y2="397.06"/><line class="cls-5" x1="449.29" y1="403.26" x2="450.72" y2="401.82"/><line class="cls-5" x1="451.73" y1="400.81" x2="451.73" y2="400.81"/><line class="cls-5" x1="452.74" y1="399.81" x2="455.76" y2="396.78"/><line class="cls-5" x1="456.77" y1="395.77" x2="456.77" y2="395.77"/><line class="cls-5" x1="457.78" y1="394.77" x2="460.8" y2="391.74"/><line class="cls-5" x1="461.81" y1="390.74" x2="461.81" y2="390.74"/><line class="cls-5" x1="462.82" y1="389.73" x2="463.54" y2="389"/><line class="cls-5" x1="449.29" y1="395.19" x2="451.73" y2="392.75"/><line class="cls-5" x1="452.74" y1="391.74" x2="452.74" y2="391.74"/><line class="cls-5" x1="453.74" y1="390.74" x2="456.77" y2="387.71"/><line class="cls-5" x1="457.78" y1="386.7" x2="457.78" y2="386.7"/><line class="cls-5" x1="458.78" y1="385.7" x2="461.81" y2="382.67"/><line class="cls-5" x1="462.82" y1="381.66" x2="462.82" y2="381.66"/><line class="cls-5" x1="449.71" y1="386.7" x2="452.74" y2="383.68"/><line class="cls-5" x1="453.74" y1="382.67" x2="453.74" y2="382.67"/><line class="cls-5" x1="454.75" y1="381.66" x2="455.94" y2="380.48"/><line class="cls-5" x1="463.54" y1="380.48" x2="449.29" y2="380.48"/><line class="cls-5" x1="449.29" y1="380.48" x2="449.29" y2="451.75"/><line class="cls-5" x1="449.29" y1="451.75" x2="463.54" y2="451.75"/><line class="cls-5" x1="463.54" y1="451.75" x2="463.54" y2="380.48"/><line class="cls-5" x1="251.61" y1="451.75" x2="258.27" y2="445.09"/><line class="cls-5" x1="244.01" y1="451.28" x2="258.27" y2="437.03"/><line class="cls-5" x1="244.01" y1="443.22" x2="258.27" y2="428.96"/><line class="cls-5" x1="244.01" y1="435.16" x2="258.27" y2="420.9"/><line class="cls-5" x1="244.01" y1="427.09" x2="258.27" y2="412.84"/><line class="cls-5" x1="244.01" y1="419.03" x2="258.27" y2="404.77"/><line class="cls-5" x1="244.01" y1="410.96" x2="258.27" y2="396.71"/><line class="cls-5" x1="244.01" y1="402.9" x2="258.27" y2="388.65"/><line class="cls-5" x1="244.01" y1="394.84" x2="258.27" y2="380.58"/><line class="cls-5" x1="244.01" y1="386.77" x2="250.31" y2="380.48"/><line class="cls-5" x1="255.64" y1="451.75" x2="257.19" y2="450.2"/><line class="cls-5" x1="258.2" y1="449.2" x2="258.2" y2="449.2"/><line class="cls-5" x1="247.58" y1="451.75" x2="248.11" y2="451.21"/><line class="cls-5" x1="249.12" y1="450.2" x2="249.12" y2="450.2"/><line class="cls-5" x1="250.13" y1="449.2" x2="253.15" y2="446.17"/><line class="cls-5" x1="254.16" y1="445.17" x2="254.16" y2="445.17"/><line class="cls-5" x1="255.17" y1="444.16" x2="258.2" y2="441.13"/><line class="cls-5" x1="244.01" y1="447.25" x2="244.08" y2="447.18"/><line class="cls-5" x1="245.09" y1="446.17" x2="245.09" y2="446.17"/><line class="cls-5" x1="246.1" y1="445.17" x2="249.12" y2="442.14"/><line class="cls-5" x1="250.13" y1="441.13" x2="250.13" y2="441.13"/><line class="cls-5" x1="251.14" y1="440.13" x2="254.16" y2="437.1"/><line class="cls-5" x1="255.17" y1="436.1" x2="255.17" y2="436.1"/><line class="cls-5" x1="256.18" y1="435.09" x2="258.27" y2="433"/><line class="cls-5" x1="244.01" y1="439.19" x2="245.09" y2="438.11"/><line class="cls-5" x1="246.1" y1="437.1" x2="246.1" y2="437.1"/><line class="cls-5" x1="247.11" y1="436.1" x2="250.13" y2="433.07"/><line class="cls-5" x1="251.14" y1="432.06" x2="251.14" y2="432.06"/><line class="cls-5" x1="252.15" y1="431.05" x2="255.17" y2="428.03"/><line class="cls-5" x1="256.18" y1="427.02" x2="256.18" y2="427.02"/><line class="cls-5" x1="257.19" y1="426.01" x2="258.27" y2="424.93"/><line class="cls-5" x1="244.01" y1="431.12" x2="246.1" y2="429.04"/><line class="cls-5" x1="247.11" y1="428.03" x2="247.11" y2="428.03"/><line class="cls-5" x1="248.11" y1="427.02" x2="251.14" y2="424"/><line class="cls-5" x1="252.15" y1="422.99" x2="252.15" y2="422.99"/><line class="cls-5" x1="253.15" y1="421.98" x2="256.18" y2="418.96"/><line class="cls-5" x1="257.19" y1="417.95" x2="257.19" y2="417.95"/><line class="cls-5" x1="258.2" y1="416.94" x2="258.27" y2="416.87"/><line class="cls-5" x1="244.08" y1="422.99" x2="247.11" y2="419.97"/><line class="cls-5" x1="248.11" y1="418.96" x2="248.11" y2="418.96"/><line class="cls-5" x1="249.12" y1="417.95" x2="252.15" y2="414.93"/><line class="cls-5" x1="253.15" y1="413.92" x2="253.15" y2="413.92"/><line class="cls-5" x1="254.16" y1="412.91" x2="257.19" y2="409.89"/><line class="cls-5" x1="258.2" y1="408.88" x2="258.2" y2="408.88"/><line class="cls-5" x1="244.08" y1="414.93" x2="244.08" y2="414.93"/><line class="cls-5" x1="245.09" y1="413.92" x2="248.11" y2="410.9"/><line class="cls-5" x1="249.12" y1="409.89" x2="249.12" y2="409.89"/><line class="cls-5" x1="250.13" y1="408.88" x2="253.15" y2="405.85"/><line class="cls-5" x1="254.16" y1="404.85" x2="254.16" y2="404.85"/><line class="cls-5" x1="255.17" y1="403.84" x2="258.2" y2="400.81"/><line class="cls-5" x1="244.01" y1="406.93" x2="244.08" y2="406.86"/><line class="cls-5" x1="245.09" y1="405.85" x2="245.09" y2="405.85"/><line class="cls-5" x1="246.1" y1="404.85" x2="249.12" y2="401.82"/><line class="cls-5" x1="250.13" y1="400.81" x2="250.13" y2="400.81"/><line class="cls-5" x1="251.14" y1="399.81" x2="254.16" y2="396.78"/><line class="cls-5" x1="255.17" y1="395.77" x2="255.17" y2="395.77"/><line class="cls-5" x1="256.18" y1="394.77" x2="258.27" y2="392.68"/><line class="cls-5" x1="244.01" y1="398.87" x2="245.09" y2="397.79"/><line class="cls-5" x1="246.1" y1="396.78" x2="246.1" y2="396.78"/><line class="cls-5" x1="247.11" y1="395.77" x2="250.13" y2="392.75"/><line class="cls-5" x1="251.14" y1="391.74" x2="251.14" y2="391.74"/><line class="cls-5" x1="252.15" y1="390.74" x2="255.17" y2="387.71"/><line class="cls-5" x1="256.18" y1="386.7" x2="256.18" y2="386.7"/><line class="cls-5" x1="257.19" y1="385.7" x2="258.27" y2="384.61"/><line class="cls-5" x1="244.01" y1="390.81" x2="246.1" y2="388.72"/><line class="cls-5" x1="247.11" y1="387.71" x2="247.11" y2="387.71"/><line class="cls-5" x1="248.11" y1="386.7" x2="251.14" y2="383.68"/><line class="cls-5" x1="252.15" y1="382.67" x2="252.15" y2="382.67"/><line class="cls-5" x1="253.15" y1="381.66" x2="254.34" y2="380.48"/><line class="cls-5" x1="244.08" y1="382.67" x2="246.28" y2="380.48"/><line class="cls-5" x1="258.27" y1="380.48" x2="244.01" y2="380.48"/><line class="cls-5" x1="244.01" y1="380.48" x2="244.01" y2="451.75"/><line class="cls-5" x1="244.01" y1="451.75" x2="258.27" y2="451.75"/><line class="cls-5" x1="258.27" y1="451.75" x2="258.27" y2="380.48"/><line class="cls-5" x1="255.41" y1="173.78" x2="258.27" y2="170.92"/><line class="cls-5" x1="247.35" y1="173.78" x2="258.27" y2="162.86"/><line class="cls-5" x1="244.01" y1="169.05" x2="258.27" y2="154.79"/><line class="cls-5" x1="244.01" y1="160.98" x2="258.27" y2="146.73"/><line class="cls-5" x1="244.01" y1="152.92" x2="258.27" y2="138.67"/><line class="cls-5" x1="244.01" y1="144.86" x2="258.27" y2="130.6"/><line class="cls-5" x1="244.01" y1="136.79" x2="258.27" y2="122.54"/><line class="cls-5" x1="244.01" y1="128.73" x2="258.27" y2="114.47"/><line class="cls-5" x1="244.01" y1="120.66" x2="258.27" y2="106.41"/><line class="cls-5" x1="244.01" y1="112.6" x2="254.11" y2="102.5"/><line class="cls-5" x1="244.01" y1="104.54" x2="246.05" y2="102.5"/><line class="cls-5" x1="251.38" y1="173.78" x2="252.15" y2="173.01"/><line class="cls-5" x1="253.15" y1="172" x2="253.15" y2="172"/><line class="cls-5" x1="254.16" y1="170.99" x2="257.19" y2="167.97"/><line class="cls-5" x1="258.2" y1="166.96" x2="258.2" y2="166.96"/><line class="cls-5" x1="244.08" y1="173.01" x2="244.08" y2="173.01"/><line class="cls-5" x1="245.09" y1="172" x2="248.11" y2="168.98"/><line class="cls-5" x1="249.12" y1="167.97" x2="249.12" y2="167.97"/><line class="cls-5" x1="250.13" y1="166.96" x2="253.15" y2="163.94"/><line class="cls-5" x1="254.16" y1="162.93" x2="254.16" y2="162.93"/><line class="cls-5" x1="255.17" y1="161.92" x2="258.2" y2="158.9"/><line class="cls-5" x1="244.01" y1="165.02" x2="244.08" y2="164.95"/><line class="cls-5" x1="245.09" y1="163.94" x2="245.09" y2="163.94"/><line class="cls-5" x1="246.1" y1="162.93" x2="249.12" y2="159.91"/><line class="cls-5" x1="250.13" y1="158.9" x2="250.13" y2="158.9"/><line class="cls-5" x1="251.14" y1="157.89" x2="254.16" y2="154.87"/><line class="cls-5" x1="255.17" y1="153.86" x2="255.17" y2="153.86"/><line class="cls-5" x1="256.18" y1="152.85" x2="258.27" y2="150.76"/><line class="cls-5" x1="244.01" y1="156.95" x2="245.09" y2="155.87"/><line class="cls-5" x1="246.1" y1="154.87" x2="246.1" y2="154.87"/><line class="cls-5" x1="247.11" y1="153.86" x2="250.13" y2="150.83"/><line class="cls-5" x1="251.14" y1="149.83" x2="251.14" y2="149.83"/><line class="cls-5" x1="252.15" y1="148.82" x2="255.17" y2="145.79"/><line class="cls-5" x1="256.18" y1="144.79" x2="256.18" y2="144.79"/><line class="cls-5" x1="257.19" y1="143.78" x2="258.27" y2="142.7"/><line class="cls-5" x1="244.01" y1="148.89" x2="246.1" y2="146.8"/><line class="cls-5" x1="247.11" y1="145.79" x2="247.11" y2="145.79"/><line class="cls-5" x1="248.11" y1="144.79" x2="251.14" y2="141.76"/><line class="cls-5" x1="252.15" y1="140.75" x2="252.15" y2="140.75"/><line class="cls-5" x1="253.15" y1="139.75" x2="256.18" y2="136.72"/><line class="cls-5" x1="257.19" y1="135.71" x2="257.19" y2="135.71"/><line class="cls-5" x1="258.2" y1="134.71" x2="258.27" y2="134.63"/><line class="cls-5" x1="244.08" y1="140.75" x2="247.11" y2="137.73"/><line class="cls-5" x1="248.11" y1="136.72" x2="248.11" y2="136.72"/><line class="cls-5" x1="249.12" y1="135.71" x2="252.15" y2="132.69"/><line class="cls-5" x1="253.15" y1="131.68" x2="253.15" y2="131.68"/><line class="cls-5" x1="254.16" y1="130.67" x2="257.19" y2="127.65"/><line class="cls-5" x1="258.2" y1="126.64" x2="258.2" y2="126.64"/><line class="cls-5" x1="244.08" y1="132.69" x2="244.08" y2="132.69"/><line class="cls-5" x1="245.09" y1="131.68" x2="248.11" y2="128.66"/><line class="cls-5" x1="249.12" y1="127.65" x2="249.12" y2="127.65"/><line class="cls-5" x1="250.13" y1="126.64" x2="253.15" y2="123.62"/><line class="cls-5" x1="254.16" y1="122.61" x2="254.16" y2="122.61"/><line class="cls-5" x1="255.17" y1="121.6" x2="258.2" y2="118.58"/><line class="cls-5" x1="244.01" y1="124.7" x2="244.08" y2="124.63"/><line class="cls-5" x1="245.09" y1="123.62" x2="245.09" y2="123.62"/><line class="cls-5" x1="246.1" y1="122.61" x2="249.12" y2="119.59"/><line class="cls-5" x1="250.13" y1="118.58" x2="250.13" y2="118.58"/><line class="cls-5" x1="251.14" y1="117.57" x2="254.16" y2="114.55"/><line class="cls-5" x1="255.17" y1="113.54" x2="255.17" y2="113.54"/><line class="cls-5" x1="256.18" y1="112.53" x2="258.27" y2="110.44"/><line class="cls-5" x1="244.01" y1="116.63" x2="245.09" y2="115.55"/><line class="cls-5" x1="246.1" y1="114.55" x2="246.1" y2="114.55"/><line class="cls-5" x1="247.11" y1="113.54" x2="250.13" y2="110.51"/><line class="cls-5" x1="251.14" y1="109.51" x2="251.14" y2="109.51"/><line class="cls-5" x1="252.15" y1="108.5" x2="255.17" y2="105.47"/><line class="cls-5" x1="256.18" y1="104.47" x2="256.18" y2="104.47"/><line class="cls-5" x1="257.19" y1="103.46" x2="258.14" y2="102.5"/><line class="cls-5" x1="244.01" y1="108.57" x2="246.1" y2="106.48"/><line class="cls-5" x1="247.11" y1="105.47" x2="247.11" y2="105.47"/><line class="cls-5" x1="248.11" y1="104.47" x2="250.08" y2="102.5"/><line class="cls-5" x1="244.01" y1="102.5" x2="244.01" y2="173.78"/><line class="cls-5" x1="244.01" y1="173.78" x2="258.27" y2="173.78"/><line class="cls-5" x1="258.27" y1="173.78" x2="258.27" y2="172.35"/><line class="cls-5" x1="258.27" y1="102.5" x2="244.01" y2="102.5"/><line class="cls-5" x1="13.49" y1="173.78" x2="14.51" y2="172.77"/><line class="cls-5" x1="5.43" y1="173.78" x2="14.51" y2="164.7"/><line class="cls-5" x1="0.25" y1="170.89" x2="14.51" y2="156.64"/><line class="cls-5" x1="0.25" y1="162.83" x2="14.51" y2="148.57"/><line class="cls-5" x1="0.25" y1="154.77" x2="14.51" y2="140.51"/><line class="cls-5" x1="0.25" y1="146.7" x2="14.51" y2="132.45"/><line class="cls-5" x1="0.25" y1="138.64" x2="14.51" y2="124.38"/><line class="cls-5" x1="0.25" y1="130.57" x2="14.51" y2="116.32"/><line class="cls-5" x1="0.25" y1="122.51" x2="14.51" y2="108.26"/><line class="cls-5" x1="0.25" y1="114.45" x2="12.2" y2="102.5"/><line class="cls-5" x1="0.25" y1="106.38" x2="4.13" y2="102.5"/><line class="cls-5" x1="9.46" y1="173.78" x2="10.23" y2="173.01"/><line class="cls-5" x1="11.24" y1="172" x2="11.24" y2="172"/><line class="cls-5" x1="12.25" y1="170.99" x2="14.51" y2="168.73"/><line class="cls-5" x1="2.17" y1="173.01" x2="2.17" y2="173.01"/><line class="cls-5" x1="3.17" y1="172" x2="6.2" y2="168.98"/><line class="cls-5" x1="7.21" y1="167.97" x2="7.21" y2="167.97"/><line class="cls-5" x1="8.22" y1="166.96" x2="11.24" y2="163.94"/><line class="cls-5" x1="12.25" y1="162.93" x2="12.25" y2="162.93"/><line class="cls-5" x1="13.25" y1="161.92" x2="14.51" y2="160.67"/><line class="cls-5" x1="0.25" y1="166.86" x2="2.17" y2="164.95"/><line class="cls-5" x1="3.17" y1="163.94" x2="3.17" y2="163.94"/><line class="cls-5" x1="4.18" y1="162.93" x2="7.21" y2="159.91"/><line class="cls-5" x1="8.22" y1="158.9" x2="8.22" y2="158.9"/><line class="cls-5" x1="9.22" y1="157.89" x2="12.25" y2="154.87"/><line class="cls-5" x1="13.25" y1="153.86" x2="13.25" y2="153.86"/><line class="cls-5" x1="14.26" y1="152.85" x2="14.51" y2="152.61"/><line class="cls-5" x1="0.25" y1="158.8" x2="3.17" y2="155.87"/><line class="cls-5" x1="4.18" y1="154.87" x2="4.18" y2="154.87"/><line class="cls-5" x1="5.19" y1="153.86" x2="8.22" y2="150.83"/><line class="cls-5" x1="9.22" y1="149.83" x2="9.22" y2="149.83"/><line class="cls-5" x1="10.23" y1="148.82" x2="13.25" y2="145.79"/><line class="cls-5" x1="14.26" y1="144.79" x2="14.26" y2="144.79"/><line class="cls-5" x1="1.16" y1="149.83" x2="4.18" y2="146.8"/><line class="cls-5" x1="5.19" y1="145.79" x2="5.19" y2="145.79"/><line class="cls-5" x1="6.2" y1="144.79" x2="9.22" y2="141.76"/><line class="cls-5" x1="10.23" y1="140.75" x2="10.23" y2="140.75"/><line class="cls-5" x1="11.24" y1="139.75" x2="14.26" y2="136.72"/><line class="cls-5" x1="1.16" y1="141.76" x2="1.16" y2="141.76"/><line class="cls-5" x1="2.17" y1="140.75" x2="5.19" y2="137.73"/><line class="cls-5" x1="6.2" y1="136.72" x2="6.2" y2="136.72"/><line class="cls-5" x1="7.21" y1="135.71" x2="10.23" y2="132.69"/><line class="cls-5" x1="11.24" y1="131.68" x2="11.24" y2="131.68"/><line class="cls-5" x1="12.25" y1="130.67" x2="14.51" y2="128.41"/><line class="cls-5" x1="0.25" y1="134.61" x2="1.16" y2="133.7"/><line class="cls-5" x1="2.17" y1="132.69" x2="2.17" y2="132.69"/><line class="cls-5" x1="3.17" y1="131.68" x2="6.2" y2="128.66"/><line class="cls-5" x1="7.21" y1="127.65" x2="7.21" y2="127.65"/><line class="cls-5" x1="8.22" y1="126.64" x2="11.24" y2="123.62"/><line class="cls-5" x1="12.25" y1="122.61" x2="12.25" y2="122.61"/><line class="cls-5" x1="13.25" y1="121.6" x2="14.51" y2="120.35"/><line class="cls-5" x1="0.25" y1="126.54" x2="2.17" y2="124.63"/><line class="cls-5" x1="3.17" y1="123.62" x2="3.17" y2="123.62"/><line class="cls-5" x1="4.18" y1="122.61" x2="7.21" y2="119.59"/><line class="cls-5" x1="8.22" y1="118.58" x2="8.22" y2="118.58"/><line class="cls-5" x1="9.22" y1="117.57" x2="12.25" y2="114.55"/><line class="cls-5" x1="13.25" y1="113.54" x2="13.25" y2="113.54"/><line class="cls-5" x1="14.26" y1="112.53" x2="14.51" y2="112.29"/><line class="cls-5" x1="0.25" y1="118.48" x2="3.17" y2="115.55"/><line class="cls-5" x1="4.18" y1="114.55" x2="4.18" y2="114.55"/><line class="cls-5" x1="5.19" y1="113.54" x2="8.22" y2="110.51"/><line class="cls-5" x1="9.22" y1="109.51" x2="9.22" y2="109.51"/><line class="cls-5" x1="10.23" y1="108.5" x2="13.25" y2="105.47"/><line class="cls-5" x1="14.26" y1="104.47" x2="14.26" y2="104.47"/><line class="cls-5" x1="1.16" y1="109.51" x2="4.18" y2="106.48"/><line class="cls-5" x1="5.19" y1="105.47" x2="5.19" y2="105.47"/><line class="cls-5" x1="6.2" y1="104.47" x2="8.16" y2="102.5"/><line class="cls-5" x1="14.51" y1="102.5" x2="0.25" y2="102.5"/><line class="cls-5" x1="0.25" y1="102.5" x2="0.25" y2="173.78"/><line class="cls-5" x1="0.25" y1="173.78" x2="14.51" y2="173.78"/><line class="cls-5" x1="14.51" y1="173.78" x2="14.51" y2="102.5"/><line class="cls-5" x1="9.69" y1="451.75" x2="14.51" y2="446.94"/><line class="cls-5" x1="1.63" y1="451.75" x2="14.51" y2="438.88"/><line class="cls-5" x1="0.25" y1="445.07" x2="14.51" y2="430.81"/><line class="cls-5" x1="0.25" y1="437" x2="14.51" y2="422.75"/><line class="cls-5" x1="0.25" y1="428.94" x2="14.51" y2="414.68"/><line class="cls-5" x1="0.25" y1="420.87" x2="14.51" y2="406.62"/><line class="cls-5" x1="0.25" y1="412.81" x2="14.51" y2="398.55"/><line class="cls-5" x1="0.25" y1="404.75" x2="14.51" y2="390.49"/><line class="cls-5" x1="0.25" y1="396.68" x2="14.51" y2="382.43"/><line class="cls-5" x1="0.25" y1="388.62" x2="8.39" y2="380.48"/><line class="cls-5" x1="0.25" y1="380.55" x2="0.33" y2="380.48"/><line class="cls-5" x1="13.72" y1="451.75" x2="14.51" y2="450.97"/><line class="cls-5" x1="5.66" y1="451.75" x2="6.2" y2="451.21"/><line class="cls-5" x1="7.21" y1="450.2" x2="7.21" y2="450.2"/><line class="cls-5" x1="8.22" y1="449.2" x2="11.24" y2="446.17"/><line class="cls-5" x1="12.25" y1="445.17" x2="12.25" y2="445.17"/><line class="cls-5" x1="13.25" y1="444.16" x2="14.51" y2="442.91"/><line class="cls-5" x1="0.25" y1="449.1" x2="2.17" y2="447.18"/><line class="cls-5" x1="3.17" y1="446.17" x2="3.17" y2="446.17"/><line class="cls-5" x1="4.18" y1="445.17" x2="7.21" y2="442.14"/><line class="cls-5" x1="8.22" y1="441.13" x2="8.22" y2="441.13"/><line class="cls-5" x1="9.22" y1="440.13" x2="12.25" y2="437.1"/><line class="cls-5" x1="13.25" y1="436.1" x2="13.25" y2="436.1"/><line class="cls-5" x1="14.26" y1="435.09" x2="14.51" y2="434.84"/><line class="cls-5" x1="0.25" y1="441.03" x2="3.17" y2="438.11"/><line class="cls-5" x1="4.18" y1="437.1" x2="4.18" y2="437.1"/><line class="cls-5" x1="5.19" y1="436.1" x2="8.22" y2="433.07"/><line class="cls-5" x1="9.22" y1="432.06" x2="9.22" y2="432.06"/><line class="cls-5" x1="10.23" y1="431.05" x2="13.25" y2="428.03"/><line class="cls-5" x1="14.26" y1="427.02" x2="14.26" y2="427.02"/><line class="cls-5" x1="1.16" y1="432.06" x2="4.18" y2="429.04"/><line class="cls-5" x1="5.19" y1="428.03" x2="5.19" y2="428.03"/><line class="cls-5" x1="6.2" y1="427.02" x2="9.22" y2="424"/><line class="cls-5" x1="10.23" y1="422.99" x2="10.23" y2="422.99"/><line class="cls-5" x1="11.24" y1="421.98" x2="14.26" y2="418.96"/><line class="cls-5" x1="1.16" y1="424" x2="1.16" y2="424"/><line class="cls-5" x1="2.17" y1="422.99" x2="5.19" y2="419.97"/><line class="cls-5" x1="6.2" y1="418.96" x2="6.2" y2="418.96"/><line class="cls-5" x1="7.21" y1="417.95" x2="10.23" y2="414.93"/><line class="cls-5" x1="11.24" y1="413.92" x2="11.24" y2="413.92"/><line class="cls-5" x1="12.25" y1="412.91" x2="14.51" y2="410.65"/><line class="cls-5" x1="0.25" y1="416.84" x2="1.16" y2="415.94"/><line class="cls-5" x1="2.17" y1="414.93" x2="2.17" y2="414.93"/><line class="cls-5" x1="3.17" y1="413.92" x2="6.2" y2="410.9"/><line class="cls-5" x1="7.21" y1="409.89" x2="7.21" y2="409.89"/><line class="cls-5" x1="8.22" y1="408.88" x2="11.24" y2="405.85"/><line class="cls-5" x1="12.25" y1="404.85" x2="12.25" y2="404.85"/><line class="cls-5" x1="13.25" y1="403.84" x2="14.51" y2="402.59"/><line class="cls-5" x1="0.25" y1="408.78" x2="2.17" y2="406.86"/><line class="cls-5" x1="3.17" y1="405.85" x2="3.17" y2="405.85"/><line class="cls-5" x1="4.18" y1="404.85" x2="7.21" y2="401.82"/><line class="cls-5" x1="8.22" y1="400.81" x2="8.22" y2="400.81"/><line class="cls-5" x1="9.22" y1="399.81" x2="12.25" y2="396.78"/><line class="cls-5" x1="13.25" y1="395.77" x2="13.25" y2="395.77"/><line class="cls-5" x1="14.26" y1="394.77" x2="14.51" y2="394.52"/><line class="cls-5" x1="0.25" y1="400.71" x2="3.17" y2="397.79"/><line class="cls-5" x1="4.18" y1="396.78" x2="4.18" y2="396.78"/><line class="cls-5" x1="5.19" y1="395.77" x2="8.22" y2="392.75"/><line class="cls-5" x1="9.22" y1="391.74" x2="9.22" y2="391.74"/><line class="cls-5" x1="10.23" y1="390.74" x2="13.25" y2="387.71"/><line class="cls-5" x1="14.26" y1="386.7" x2="14.26" y2="386.7"/><line class="cls-5" x1="1.16" y1="391.74" x2="4.18" y2="388.72"/><line class="cls-5" x1="5.19" y1="387.71" x2="5.19" y2="387.71"/><line class="cls-5" x1="6.2" y1="386.7" x2="9.22" y2="383.68"/><line class="cls-5" x1="10.23" y1="382.67" x2="10.23" y2="382.67"/><line class="cls-5" x1="11.24" y1="381.66" x2="12.42" y2="380.48"/><line class="cls-5" x1="1.16" y1="383.68" x2="1.16" y2="383.68"/><line class="cls-5" x1="2.17" y1="382.67" x2="4.36" y2="380.48"/><line class="cls-5" x1="14.51" y1="380.48" x2="0.25" y2="380.48"/><line class="cls-5" x1="0.25" y1="380.48" x2="0.25" y2="451.75"/><line class="cls-5" x1="0.25" y1="451.75" x2="14.51" y2="451.75"/><line class="cls-5" x1="14.51" y1="451.75" x2="14.51" y2="380.48"/><line class="cls-5" x1="456.92" y1="633.51" x2="463.54" y2="626.89"/><line class="cls-5" x1="448.86" y1="633.51" x2="463.11" y2="619.25"/><line class="cls-5" x1="440.79" y1="633.51" x2="455.05" y2="619.25"/><line class="cls-5" x1="432.73" y1="633.51" x2="446.99" y2="619.25"/><line class="cls-5" x1="424.67" y1="633.51" x2="438.92" y2="619.25"/><line class="cls-5" x1="416.6" y1="633.51" x2="430.86" y2="619.25"/><line class="cls-5" x1="408.54" y1="633.51" x2="422.79" y2="619.25"/><line class="cls-5" x1="400.48" y1="633.51" x2="414.73" y2="619.25"/><line class="cls-5" x1="392.41" y1="633.51" x2="406.67" y2="619.25"/><line class="cls-5" x1="392.27" y1="625.59" x2="398.6" y2="619.25"/><line class="cls-5" x1="461.81" y1="632.65" x2="461.81" y2="632.65"/><line class="cls-5" x1="462.82" y1="631.64" x2="463.54" y2="630.92"/><line class="cls-5" x1="453.74" y1="632.65" x2="456.77" y2="629.63"/><line class="cls-5" x1="457.78" y1="628.62" x2="457.78" y2="628.62"/><line class="cls-5" x1="458.78" y1="627.61" x2="461.81" y2="624.59"/><line class="cls-5" x1="462.82" y1="623.58" x2="462.82" y2="623.58"/><line class="cls-5" x1="444.83" y1="633.51" x2="447.7" y2="630.63"/><line class="cls-5" x1="448.7" y1="629.63" x2="448.7" y2="629.63"/><line class="cls-5" x1="449.71" y1="628.62" x2="452.74" y2="625.6"/><line class="cls-5" x1="453.74" y1="624.59" x2="453.74" y2="624.59"/><line class="cls-5" x1="454.75" y1="623.58" x2="457.78" y2="620.56"/><line class="cls-5" x1="458.78" y1="619.55" x2="458.78" y2="619.55"/><line class="cls-5" x1="436.76" y1="633.51" x2="438.62" y2="631.64"/><line class="cls-5" x1="439.63" y1="630.63" x2="439.63" y2="630.63"/><line class="cls-5" x1="440.64" y1="629.63" x2="443.67" y2="626.6"/><line class="cls-5" x1="444.67" y1="625.6" x2="444.67" y2="625.6"/><line class="cls-5" x1="445.68" y1="624.59" x2="448.7" y2="621.57"/><line class="cls-5" x1="449.71" y1="620.56" x2="449.71" y2="620.56"/><line class="cls-5" x1="450.72" y1="619.55" x2="451.02" y2="619.25"/><line class="cls-5" x1="428.7" y1="633.51" x2="429.55" y2="632.65"/><line class="cls-5" x1="430.56" y1="631.64" x2="430.56" y2="631.64"/><line class="cls-5" x1="431.57" y1="630.63" x2="434.59" y2="627.61"/><line class="cls-5" x1="435.6" y1="626.6" x2="435.6" y2="626.6"/><line class="cls-5" x1="436.61" y1="625.6" x2="439.63" y2="622.57"/><line class="cls-5" x1="440.64" y1="621.57" x2="440.64" y2="621.57"/><line class="cls-5" x1="441.65" y1="620.56" x2="442.95" y2="619.25"/><line class="cls-5" x1="421.49" y1="632.65" x2="421.49" y2="632.65"/><line class="cls-5" x1="422.5" y1="631.64" x2="425.52" y2="628.62"/><line class="cls-5" x1="426.53" y1="627.61" x2="426.53" y2="627.61"/><line class="cls-5" x1="427.54" y1="626.6" x2="430.56" y2="623.58"/><line class="cls-5" x1="431.57" y1="622.57" x2="431.57" y2="622.57"/><line class="cls-5" x1="432.58" y1="621.57" x2="434.89" y2="619.25"/><line class="cls-5" x1="413.42" y1="632.65" x2="416.45" y2="629.63"/><line class="cls-5" x1="417.46" y1="628.62" x2="417.46" y2="628.62"/><line class="cls-5" x1="418.47" y1="627.61" x2="421.49" y2="624.59"/><line class="cls-5" x1="422.5" y1="623.58" x2="422.5" y2="623.58"/><line class="cls-5" x1="423.51" y1="622.57" x2="426.53" y2="619.55"/><line class="cls-5" x1="404.51" y1="633.51" x2="407.38" y2="630.63"/><line class="cls-5" x1="408.38" y1="629.63" x2="408.38" y2="629.63"/><line class="cls-5" x1="409.39" y1="628.62" x2="412.42" y2="625.6"/><line class="cls-5" x1="413.42" y1="624.59" x2="413.42" y2="624.59"/><line class="cls-5" x1="414.43" y1="623.58" x2="417.46" y2="620.56"/><line class="cls-5" x1="418.47" y1="619.55" x2="418.47" y2="619.55"/><line class="cls-5" x1="396.44" y1="633.51" x2="398.31" y2="631.64"/><line class="cls-5" x1="399.31" y1="630.63" x2="399.31" y2="630.63"/><line class="cls-5" x1="400.32" y1="629.63" x2="403.35" y2="626.6"/><line class="cls-5" x1="404.35" y1="625.6" x2="404.35" y2="625.6"/><line class="cls-5" x1="405.36" y1="624.59" x2="408.38" y2="621.57"/><line class="cls-5" x1="409.39" y1="620.56" x2="409.39" y2="620.56"/><line class="cls-5" x1="410.4" y1="619.55" x2="410.7" y2="619.25"/><line class="cls-5" x1="392.27" y1="629.62" x2="394.27" y2="627.61"/><line class="cls-5" x1="395.28" y1="626.6" x2="395.28" y2="626.6"/><line class="cls-5" x1="396.29" y1="625.6" x2="399.31" y2="622.57"/><line class="cls-5" x1="400.32" y1="621.57" x2="400.32" y2="621.57"/><line class="cls-5" x1="401.33" y1="620.56" x2="402.63" y2="619.25"/><line class="cls-5" x1="392.27" y1="621.56" x2="394.57" y2="619.25"/><line class="cls-5" x1="392.27" y1="619.25" x2="392.27" y2="633.51"/><line class="cls-5" x1="392.27" y1="633.51" x2="463.54" y2="633.51"/><line class="cls-5" x1="463.54" y1="633.51" x2="463.54" y2="619.25"/><line class="cls-5" x1="463.54" y1="619.25" x2="392.27" y2="619.25"/><line class="cls-5" x1="244.01" y1="102.5" x2="258.27" y2="102.5"/><line class="cls-5" x1="258.27" y1="102.5" x2="258.27" y2="91.1"/><line class="cls-5" x1="258.27" y1="91.1" x2="244.01" y2="91.1"/><line class="cls-5" x1="244.01" y1="91.1" x2="244.01" y2="102.5"/><line class="cls-5" x1="0.25" y1="102.5" x2="14.51" y2="102.5"/><line class="cls-5" x1="14.51" y1="102.5" x2="14.51" y2="91.1"/><line class="cls-5" x1="14.51" y1="91.1" x2="0.25" y2="91.1"/><line class="cls-5" x1="0.25" y1="82.54" x2="0.25" y2="102.5"/><line class="cls-5" x1="457.13" y1="157.38" x2="457.48" y2="157.38"/><line class="cls-5" x1="457.48" y1="157.38" x2="457.48" y2="160.45"/><line class="cls-5" x1="458.34" y1="161.3" x2="465.89" y2="161.3"/><line class="cls-5" x1="466.75" y1="160.45" x2="466.75" y2="157.38"/><line class="cls-5" x1="466.75" y1="157.38" x2="467.1" y2="157.38"/><line class="cls-5" x1="467.1" y1="157.38" x2="467.1" y2="186.61"/><line class="cls-5" x1="467.1" y1="161.66" x2="457.13" y2="161.66"/><line class="cls-5" x1="457.13" y1="161.66" x2="457.13" y2="157.38"/><path class="cls-5" d="M458.34,189.66a.85.85,0,0,1-.86-.85" transform="translate(0 -28.36)"/><path class="cls-5" d="M466.75,188.81a.86.86,0,0,1-.86.85" transform="translate(0 -28.36)"/><line class="cls-5" x1="457.13" y1="97.51" x2="457.48" y2="97.51"/><line class="cls-5" x1="457.48" y1="97.51" x2="457.48" y2="93.02"/><line class="cls-5" x1="458.34" y1="92.17" x2="465.89" y2="92.17"/><line class="cls-5" x1="466.75" y1="93.02" x2="466.75" y2="97.51"/><line class="cls-5" x1="466.75" y1="97.51" x2="466.75" y2="97.51"/><line class="cls-5" x1="466.75" y1="97.51" x2="466.75" y2="82.54"/><line class="cls-5" x1="466.75" y1="91.81" x2="457.13" y2="91.81"/><line class="cls-5" x1="457.13" y1="91.81" x2="457.13" y2="97.51"/><path class="cls-5" d="M457.48,121.38a.85.85,0,0,1,.86-.85" transform="translate(0 -28.36)"/><path class="cls-5" d="M465.89,120.53a.86.86,0,0,1,.86.85" transform="translate(0 -28.36)"/><path class="cls-5" d="M326.74,590.88a57.31,57.31,0,0,1-57.31-57.31" transform="translate(0 -28.36)"/><line class="cls-5" x1="331.56" y1="505.21" x2="269.43" y2="505.21"/><path class="cls-5" d="M326.05,474.49a65.57,65.57,0,0,0-65.57-65.57" transform="translate(0 -28.36)"/><line class="cls-5" x1="260.48" y1="451.84" x2="260.48" y2="380.56"/><path class="cls-5" d="M174.85,475c0-36.22,28.48-65.58,64.69-65.58" transform="translate(0 -28.36)"/><line class="cls-5" x1="239.54" y1="452.03" x2="239.54" y2="381.02"/><path class="cls-5" d="M174.13,596.36a57,57,0,0,1-57-57" transform="translate(0 -28.36)"/><line class="cls-5" x1="174.13" y1="511.01" x2="117.14" y2="511.01"/></svg>