<svg id="_164" data-name="164" xmlns="http://www.w3.org/2000/svg" viewBox="0 0 313.26 362.39"><defs><style>.cls-1{isolation:isolate;font-size:8px;fill:#969696;font-family:PTSans-Regular, PT Sans;}.cls-11,.cls-12,.cls-13,.cls-14,.cls-15,.cls-2,.cls-8{fill:none;}.cls-2{stroke:#969696;}.cls-11,.cls-12,.cls-13,.cls-14,.cls-15,.cls-2{stroke-linecap:round;stroke-linejoin:round;}.cls-13,.cls-14,.cls-15,.cls-2{stroke-width:0.5px;}.cls-3{font-size:22px;}.cls-3,.cls-9{fill:#231f20;font-family:BigCityGrotesquePro-Regular, BigCity Grotesque Pro;}.cls-4{letter-spacing:-0.02em;}.cls-5{letter-spacing:-0.04em;}.cls-6{letter-spacing:-0.02em;}.cls-7{letter-spacing:-0.02em;}.cls-11,.cls-12,.cls-13,.cls-14,.cls-15,.cls-8{stroke:#000;}.cls-8{stroke-miterlimit:10;stroke-width:0.32px;}.cls-9{font-size:24px;}.cls-10{letter-spacing:-0.02em;}.cls-11{stroke-width:0.35px;}.cls-12{stroke-width:0.75px;}.cls-14{stroke-dasharray:1.98 1.98;}.cls-15{stroke-dasharray:2 2;}</style></defs><title>19floor_164flat</title><text class="cls-1" transform="translate(153.83 360.43)">двор</text><line class="cls-2" x1="145.33" y1="361.57" x2="145.33" y2="354.44"/><polyline class="cls-2" points="142.49 358.74 145.33 361.57 148.16 358.74"/><text class="cls-3" transform="translate(140.83 68.5)"><tspan class="cls-4">9</tspan><tspan class="cls-5" x="11.79" y="0">.</tspan><tspan x="15.93" y="0">10</tspan></text><text class="cls-3" transform="translate(23.49 148.72)">5.40</text><text class="cls-3" transform="translate(36.85 69.39)">4<tspan class="cls-6" x="12.06" y="0">.</tspan><tspan x="16.68" y="0">00</tspan></text><text class="cls-3" transform="translate(98.18 271.23)">15<tspan class="cls-6" x="18.59" y="0">.</tspan><tspan x="23.21" y="0">00</tspan></text><text class="cls-3" transform="translate(226.84 271.23)">12<tspan class="cls-7" x="18.33" y="0">.</tspan><tspan x="22.95" y="0">00</tspan></text><rect class="cls-8" x="100.2" y="133.55" width="80" height="31.31"/><rect class="cls-8" x="100.2" y="164.87" width="80" height="31.31"/><rect class="cls-8" x="100.2" y="196.18" width="80" height="31.31"/><text class="cls-9" transform="translate(109.6 156.93)">№164<tspan x="19.75" y="30.86">1</tspan><tspan class="cls-10" x="28.2" y="30.86">К</tspan><tspan x="2.5" y="61.72">45.50</tspan></text><line class="cls-11" x1="17.15" y1="69.4" x2="31.88" y2="69.4"/><polyline class="cls-11" points="16.27 68.74 10.7 68.74 10.7 84.66"/><line class="cls-11" x1="19.72" y1="76.7" x2="19.72" y2="82.58"/><polyline class="cls-11" points="31.88 69.4 19.72 70.82 19.72 76.7"/><line class="cls-11" x1="31.88" y1="84" x2="19.72" y2="82.58"/><line class="cls-11" x1="31.88" y1="69.76" x2="19.72" y2="71.17"/><line class="cls-11" x1="31.88" y1="83.64" x2="19.72" y2="82.23"/><line class="cls-11" x1="17.15" y1="84" x2="31.88" y2="84"/><line class="cls-11" x1="10.7" y1="84.66" x2="16.27" y2="84.66"/><polyline class="cls-11" points="31.88 69.4 33.52 69.58 35.06 70.2 36.39 71.21 37.5 72.54 38.25 74.09 38.65 75.81 38.65 77.58 38.25 79.31 37.5 80.86 36.39 82.18 35.06 83.2 33.52 83.82 31.88 84"/><polyline class="cls-11" points="31.88 69.75 33.43 69.98 34.89 70.55 36.17 71.52 37.19 72.76 37.9 74.22 38.29 75.86 38.29 77.54 37.9 79.17 37.19 80.63 36.17 81.87 34.89 82.85 33.43 83.42 31.88 83.64"/><path class="cls-11" d="M17.17,83.79a66.37,66.37,0,0,0,0-14.23"/><path class="cls-11" d="M17.24,69.55a.94.94,0,0,0-.95-.81"/><path class="cls-11" d="M16.29,84.61a.94.94,0,0,0,.95-.81"/><path class="cls-11" d="M15,76.68a.78.78,0,1,0-.78.77.78.78,0,0,0,.78-.77"/><line class="cls-11" x1="13.14" y1="37.15" x2="13.14" y2="16.67"/><line class="cls-11" x1="15.58" y1="14.24" x2="68.71" y2="14.24"/><line class="cls-11" x1="15.58" y1="39.53" x2="68.71" y2="39.53"/><line class="cls-11" x1="83.71" y1="11.82" x2="10.7" y2="11.82"/><polyline class="cls-11" points="83.71 11.82 83.71 41.95 10.7 41.95 10.7 11.82"/><line class="cls-11" x1="60.19" y1="35.36" x2="18.62" y2="35.36"/><line class="cls-11" x1="17.38" y1="34.13" x2="17.38" y2="19.64"/><line class="cls-11" x1="60.19" y1="18.45" x2="18.62" y2="18.45"/><line class="cls-11" x1="25.95" y1="27.63" x2="25.95" y2="29.12"/><line class="cls-11" x1="25.2" y1="26.91" x2="23.66" y2="26.91"/><line class="cls-11" x1="25.95" y1="26.14" x2="25.95" y2="24.65"/><line class="cls-11" x1="26.7" y1="26.91" x2="28.19" y2="26.91"/><path class="cls-11" d="M68.73,39.53a12.65,12.65,0,1,0,0-25.29"/><path class="cls-11" d="M15.61,14.24a2.41,2.41,0,0,0-2.42,2.41"/><path class="cls-11" d="M13.19,37.13a2.41,2.41,0,0,0,2.42,2.4"/><path class="cls-11" d="M26,25.63a1.26,1.26,0,1,0,1.27,1.26A1.26,1.26,0,0,0,26,25.63"/><path class="cls-11" d="M60.21,35.36a8.48,8.48,0,1,0,0-16.95"/><path class="cls-11" d="M17.43,34.11a1.21,1.21,0,0,0,1.22,1.21"/><path class="cls-11" d="M18.65,18.41a1.21,1.21,0,0,0-1.22,1.21"/><path class="cls-11" d="M26,25.21a1.68,1.68,0,1,0,1.72,1.68A1.7,1.7,0,0,0,26,25.21"/><polyline class="cls-11" points="20.58 44.6 11.03 44.6 11.03 67.16 20.58 67.16"/><line class="cls-11" x1="11.02" y1="59.46" x2="11.02" y2="52.34"/><line class="cls-11" x1="18.72" y1="57.78" x2="18.72" y2="56.59"/><line class="cls-11" x1="16.82" y1="55.88" x2="18.01" y2="55.88"/><line class="cls-11" x1="18.72" y1="55.17" x2="18.72" y2="53.98"/><line class="cls-11" x1="19.38" y1="55.88" x2="20.62" y2="55.88"/><path class="cls-11" d="M21.19,46a10.08,10.08,0,0,0-4.75,3.9"/><path class="cls-11" d="M16.45,49.87a10,10,0,0,0-1.41,6"/><path class="cls-11" d="M16.44,61.85a10.08,10.08,0,0,0,4.75,3.9"/><path class="cls-11" d="M15,55.85a10,10,0,0,0,1.41,6"/><path class="cls-11" d="M20.62,67.15A5.7,5.7,0,0,0,25.33,65"/><path class="cls-11" d="M16.82,49.54a41.15,41.15,0,0,0,0,12.63"/><path class="cls-11" d="M12.87,63.34a14.21,14.21,0,0,0,9.21,3.2"/><path class="cls-11" d="M11.51,55.87a28.58,28.58,0,0,0,.7,6.45"/><path class="cls-11" d="M12.22,62.33a1.86,1.86,0,0,0,.64,1"/><path class="cls-11" d="M12.4,55.87a48.45,48.45,0,0,0,.45,6.36"/><path class="cls-11" d="M13.49,63.39a12.72,12.72,0,0,0,8.6,3.19"/><path class="cls-11" d="M12.86,62.22a1.89,1.89,0,0,0,.61,1.15"/><path class="cls-11" d="M22.08,45.13a12.81,12.81,0,0,0-8.6,3.2"/><path class="cls-11" d="M22.06,45.18a14.19,14.19,0,0,0-9.21,3.21"/><path class="cls-11" d="M12.84,49.51a50.09,50.09,0,0,0-.44,6.36"/><path class="cls-11" d="M12.2,49.43a28.09,28.09,0,0,0-.69,6.46"/><path class="cls-11" d="M13.47,48.35a1.86,1.86,0,0,0-.61,1.15"/><path class="cls-11" d="M12.86,48.39a1.9,1.9,0,0,0-.64,1"/><path class="cls-11" d="M25.33,46.75a5.7,5.7,0,0,0-4.71-2.14"/><path class="cls-11" d="M26.32,48.21a8.79,8.79,0,0,0-1-1.5"/><path class="cls-11" d="M25.34,65a9.2,9.2,0,0,0,1-1.5"/><path class="cls-11" d="M26.31,63.49a18.54,18.54,0,0,0,1.87-6.85V55.07a18.55,18.55,0,0,0-1.87-6.84"/><path class="cls-11" d="M26.58,59a13.34,13.34,0,0,0,0-6.22"/><path class="cls-11" d="M24,47.15A3.39,3.39,0,0,0,21.21,46"/><path class="cls-11" d="M26.54,52.76A12.17,12.17,0,0,0,24,47.14"/><path class="cls-11" d="M21.21,65.78A3.39,3.39,0,0,0,24,64.61"/><path class="cls-11" d="M24,64.57A12.12,12.12,0,0,0,26.54,59"/><path class="cls-11" d="M20.22,55.86a1.48,1.48,0,1,0-1.48,1.48,1.48,1.48,0,0,0,1.48-1.48"/><path class="cls-11" d="M19.78,55.86a1,1,0,0,0-2.08,0,1,1,0,0,0,2.08,0"/><line class="cls-12" x1="293.58" y1="297.11" x2="293.58" y2="299.66"/><line class="cls-12" x1="221.27" y1="299.66" x2="221.27" y2="297.11"/><line class="cls-12" x1="293.58" y1="289.59" x2="312.88" y2="289.59"/><line class="cls-12" x1="199.21" y1="289.59" x2="221.27" y2="289.59"/><line class="cls-12" x1="293.58" y1="299.66" x2="312.88" y2="299.66"/><line class="cls-12" x1="199.21" y1="299.66" x2="221.27" y2="299.66"/><polyline class="cls-12" points="293.58 298.85 293.58 305.87 312.88 305.87"/><polyline class="cls-12" points="167.07 298.3 167.07 305.87 221.27 305.87 221.27 297.92"/><polyline class="cls-12" points="0.38 305.87 94.75 305.87 94.75 297.28"/><line class="cls-12" x1="312.88" y1="299.66" x2="293.58" y2="299.66"/><line class="cls-12" x1="221.27" y1="299.66" x2="199.21" y2="299.66"/><line class="cls-12" x1="189.17" y1="299.66" x2="167.07" y2="299.66"/><line class="cls-12" x1="94.75" y1="299.66" x2="10.41" y2="299.66"/><line class="cls-12" x1="10.41" y1="299.66" x2="0.38" y2="299.66"/><line class="cls-13" x1="293.58" y1="305.87" x2="221.27" y2="305.87"/><line class="cls-13" x1="167.07" y1="305.87" x2="94.75" y2="305.87"/><line class="cls-12" x1="167.07" y1="297.11" x2="167.07" y2="299.66"/><line class="cls-12" x1="94.75" y1="299.66" x2="94.75" y2="297.11"/><line class="cls-12" x1="167.07" y1="289.59" x2="189.17" y2="289.59"/><line class="cls-12" x1="10.41" y1="289.59" x2="94.75" y2="289.59"/><line class="cls-12" x1="167.07" y1="299.66" x2="189.17" y2="299.66"/><line class="cls-12" x1="10.41" y1="299.66" x2="94.75" y2="299.66"/><polyline class="cls-12" points="34.51 92.97 34.51 105.42 10.41 105.42 10.41 92.97 34.51 92.97"/><polyline class="cls-12" points="10.41 105.42 34.51 105.42 34.51 92.97 10.41 92.97 10.41 105.42"/><polyline class="cls-12" points="34.51 92.97 10.41 92.97 10.41 105.42"/><polyline class="cls-12" points="10.41 92.97 10.41 0.38 0.38 0.38"/><line class="cls-13" x1="246.14" y1="307.48" x2="246.14" y2="305.87"/><line class="cls-13" x1="245.33" y1="307.48" x2="245.33" y2="305.87"/><line class="cls-13" x1="268.63" y1="307.48" x2="268.63" y2="305.87"/><line class="cls-13" x1="269.44" y1="307.48" x2="269.44" y2="305.87"/><polyline class="cls-13" points="273.47 323.55 241.34 323.55 241.34 307.48 273.47 307.48 273.47 323.55"/><polyline class="cls-13" points="237.3 305.87 237.3 328.19 277.47 328.19 277.47 305.87"/><polyline class="cls-13" points="274.88 305.87 274.88 325.55 239.93 325.55 239.93 305.87"/><line class="cls-13" x1="274.88" y1="325.34" x2="239.93" y2="325.34"/><line class="cls-12" x1="189.17" y1="100.83" x2="192.11" y2="97.9"/><line class="cls-12" x1="199.21" y1="299.66" x2="199.21" y2="101.43"/><polyline class="cls-12" points="189.17 101.43 189.17 299.66 199.21 299.66"/><line class="cls-12" x1="198.95" y1="36.04" x2="199.21" y2="35.83"/><line class="cls-12" x1="199.21" y1="36.55" x2="199.21" y2="11.22"/><polyline class="cls-12" points="199.21 11.22 199.21 10.41 199.21 0.38 189.17 0.38 189.17 10.41 189.17 11.22"/><polyline class="cls-12" points="189.17 11.22 189.17 36.55 199.21 36.55"/><line class="cls-12" x1="0.38" y1="251.45" x2="0.38" y2="130.93"/><polyline class="cls-12" points="76.69 92.97 76.69 113.08 34.51 113.08 34.51 92.97 76.69 92.97"/><polyline class="cls-12" points="34.51 113.08 76.69 113.08 76.69 92.97 34.51 92.97 34.51 113.08"/><polyline class="cls-12" points="76.69 92.97 34.51 92.97 34.51 113.08"/><line class="cls-12" x1="0.38" y1="0.38" x2="0.38" y2="289.59"/><line class="cls-12" x1="10.41" y1="299.66" x2="10.41" y2="105.42"/><line class="cls-12" x1="95.14" y1="10.41" x2="95.14" y2="6.41"/><line class="cls-12" x1="95.14" y1="3.61" x2="95.14" y2="0.38"/><path class="cls-12" d="M95.14.38"/><path class="cls-12" d="M10.41.38"/><line class="cls-12" x1="275.51" y1="10.41" x2="275.51" y2="6.41"/><line class="cls-12" x1="275.51" y1="3.61" x2="275.51" y2="0.38"/><line class="cls-12" x1="137.35" y1="0.38" x2="137.35" y2="3.61"/><line class="cls-12" x1="137.35" y1="6.41" x2="137.35" y2="10.41"/><line class="cls-12" x1="95.14" y1="10.41" x2="10.41" y2="10.41"/><line class="cls-12" x1="275.51" y1="10.41" x2="275.51" y2="10.41"/><line class="cls-12" x1="265.48" y1="10.41" x2="199.21" y2="10.41"/><line class="cls-12" x1="189.17" y1="10.41" x2="137.35" y2="10.41"/><line class="cls-12" x1="189.17" y1="0.38" x2="199.21" y2="0.38"/><line class="cls-12" x1="95.14" y1="0.38" x2="10.41" y2="0.38"/><line class="cls-12" x1="189.17" y1="11.22" x2="189.17" y2="0.38"/><line class="cls-12" x1="189.17" y1="0.38" x2="137.35" y2="0.38"/><line class="cls-12" x1="199.21" y1="0.38" x2="199.21" y2="11.22"/><line class="cls-12" x1="275.51" y1="0.38" x2="199.21" y2="0.38"/><line class="cls-12" x1="275.51" y1="90.54" x2="275.51" y2="10.41"/><line class="cls-12" x1="302.85" y1="100.62" x2="265.48" y2="100.62"/><line class="cls-12" x1="312.88" y1="90.54" x2="275.51" y2="90.54"/><line class="cls-12" x1="302.85" y1="289.59" x2="312.88" y2="289.59"/><line class="cls-12" x1="302.85" y1="289.59" x2="302.85" y2="100.62"/><line class="cls-12" x1="312.88" y1="305.65" x2="312.88" y2="90.54"/><line class="cls-12" x1="145.77" y1="100.62" x2="145.77" y2="97.39"/><line class="cls-12" x1="89.52" y1="97.39" x2="89.52" y2="100.62"/><line class="cls-12" x1="205.2" y1="100.62" x2="205.2" y2="97.39"/><line class="cls-12" x1="177.91" y1="97.39" x2="177.91" y2="100.62"/><line class="cls-12" x1="265.48" y1="100.62" x2="265.48" y2="10.41"/><line class="cls-12" x1="237.34" y1="97.39" x2="237.34" y2="100.62"/><line class="cls-12" x1="189.17" y1="100.62" x2="177.91" y2="100.62"/><line class="cls-12" x1="205.2" y1="100.62" x2="199.21" y2="100.62"/><line class="cls-12" x1="265.48" y1="100.62" x2="237.34" y2="100.62"/><line class="cls-12" x1="189.17" y1="97.39" x2="199.21" y2="97.39"/><line class="cls-12" x1="145.77" y1="97.39" x2="89.52" y2="97.39"/><line class="cls-12" x1="189.17" y1="101.43" x2="189.17" y2="97.39"/><line class="cls-12" x1="189.17" y1="97.39" x2="177.91" y2="97.39"/><line class="cls-12" x1="199.21" y1="97.39" x2="199.21" y2="101.43"/><line class="cls-12" x1="205.2" y1="97.39" x2="199.21" y2="97.39"/><line class="cls-12" x1="265.48" y1="97.39" x2="237.34" y2="97.39"/><line class="cls-12" x1="84.72" y1="41.36" x2="89.52" y2="41.36"/><line class="cls-12" x1="89.52" y1="10.41" x2="84.72" y2="10.41"/><line class="cls-12" x1="89.52" y1="73.5" x2="84.72" y2="73.5"/><line class="cls-12" x1="84.72" y1="41.36" x2="84.72" y2="10.41"/><line class="cls-12" x1="84.72" y1="95.77" x2="84.72" y2="73.5"/><line class="cls-12" x1="89.52" y1="41.36" x2="89.52" y2="10.41"/><line class="cls-12" x1="89.52" y1="100.62" x2="89.52" y2="73.5"/><line class="cls-12" x1="10.41" y1="105.42" x2="10.41" y2="110.23"/><line class="cls-12" x1="10.41" y1="110.23" x2="34.51" y2="110.23"/><line class="cls-12" x1="76.68" y1="95.77" x2="84.72" y2="95.77"/><line class="cls-12" x1="76.68" y1="100.62" x2="145.77" y2="100.62"/><line class="cls-12" x1="0.38" y1="305.65" x2="0.38" y2="289.59"/><line class="cls-12" x1="0.38" y1="299.66" x2="10.41" y2="299.66"/><polyline class="cls-12" points="167.07 297.11 167.07 287.59 94.75 287.59 94.75 297.11"/><polyline class="cls-13" points="142.11 297.92 142.11 300.47 141.56 300.47 141.56 301.06 144.36 301.06 144.36 300.47 143.56 300.47 143.56 297.92 142.11 297.92"/><line class="cls-13" x1="143.81" y1="300.47" x2="143.81" y2="300.43"/><line class="cls-13" x1="143.73" y1="297.92" x2="143.56" y2="297.92"/><polyline class="cls-13" points="99.94 299.62 99.13 299.62 99.13 298.64 99.94 298.64 99.94 297.28 97.13 297.28 97.13 297.83 97.94 297.83 97.94 300.43 99.94 300.43 99.94 299.62"/><polyline class="cls-13" points="141.01 299.62 140.2 299.62 140.2 300.43 142.2 300.43 142.2 297.83 143 297.83 143 297.28 140.2 297.28 140.2 298.64 141.01 298.64 141.01 299.62"/><line class="cls-13" x1="140.2" y1="299.62" x2="99.94" y2="299.62"/><line class="cls-13" x1="99.94" y1="300.43" x2="140.2" y2="300.43"/><line class="cls-13" x1="99.94" y1="298.64" x2="140.2" y2="298.64"/><line class="cls-13" x1="140.2" y1="297.28" x2="99.94" y2="297.28"/><polyline class="cls-13" points="95.77 301.06 98.58 301.06 98.58 300.47 97.77 300.47 97.77 297.92 95.77 297.92 95.77 301.06"/><polyline class="cls-13" points="166.05 301.06 166.05 297.92 164.05 297.92 164.05 300.47 163.24 300.47 163.24 301.06 166.05 301.06"/><line class="cls-13" x1="98.58" y1="301.06" x2="141.52" y2="301.06"/><line class="cls-13" x1="144.36" y1="301.06" x2="163.24" y2="301.06"/><line class="cls-13" x1="164.05" y1="297.92" x2="163.88" y2="297.92"/><line class="cls-13" x1="97.94" y1="297.92" x2="97.77" y2="297.92"/><line class="cls-13" x1="163.24" y1="300.47" x2="144.36" y2="300.47"/><line class="cls-13" x1="141.52" y1="300.47" x2="98.58" y2="300.47"/><polyline class="cls-13" points="162.69 298.64 162.69 299.62 161.88 299.62 161.88 300.43 163.88 300.43 163.88 297.83 164.69 297.83 164.69 297.28 161.88 297.28 161.88 298.64 162.69 298.64"/><polyline class="cls-13" points="144.92 299.62 144.92 298.64 145.72 298.64 145.72 297.28 142.92 297.28 142.92 297.83 143.73 297.83 143.73 300.43 145.72 300.43 145.72 299.62 144.92 299.62"/><line class="cls-13" x1="161.88" y1="299.62" x2="145.72" y2="299.62"/><line class="cls-13" x1="145.72" y1="298.64" x2="161.88" y2="298.64"/><line class="cls-13" x1="161.88" y1="297.28" x2="145.72" y2="297.28"/><line class="cls-13" x1="145.72" y1="300.43" x2="161.88" y2="300.43"/><polyline class="cls-12" points="293.58 297.11 293.58 287.59 221.27 287.59 221.27 297.11"/><polyline class="cls-13" points="244.52 297.92 244.52 300.47 243.97 300.47 243.97 301.06 246.78 301.06 246.78 300.47 246.01 300.47 246.01 297.92 244.52 297.92"/><line class="cls-13" x1="246.27" y1="300.47" x2="246.27" y2="300.43"/><line class="cls-13" x1="246.14" y1="297.92" x2="246.01" y2="297.92"/><polyline class="cls-13" points="226.46 299.62 225.65 299.62 225.65 298.64 226.46 298.64 226.46 297.28 223.65 297.28 223.65 297.83 224.46 297.83 224.46 300.43 226.46 300.43 226.46 299.62"/><polyline class="cls-13" points="243.42 299.62 242.61 299.62 242.61 300.43 244.61 300.43 244.61 297.83 245.42 297.83 245.42 297.28 242.61 297.28 242.61 298.64 243.42 298.64 243.42 299.62"/><line class="cls-13" x1="242.61" y1="299.62" x2="226.46" y2="299.62"/><line class="cls-13" x1="226.46" y1="300.43" x2="242.61" y2="300.43"/><line class="cls-13" x1="226.46" y1="298.64" x2="242.61" y2="298.64"/><line class="cls-13" x1="242.61" y1="297.28" x2="226.46" y2="297.28"/><polyline class="cls-13" points="292.61 301.06 292.61 297.92 290.56 297.92 290.56 300.47 289.76 300.47 289.76 301.06 292.61 301.06"/><polyline class="cls-13" points="222.29 301.06 225.09 301.06 225.09 300.47 224.29 300.47 224.29 297.92 222.29 297.92 222.29 301.06"/><line class="cls-13" x1="225.1" y1="301.06" x2="243.97" y2="301.06"/><line class="cls-13" x1="246.78" y1="301.06" x2="289.76" y2="301.06"/><line class="cls-13" x1="290.56" y1="297.92" x2="290.44" y2="297.92"/><line class="cls-13" x1="224.46" y1="297.92" x2="224.29" y2="297.92"/><line class="cls-13" x1="289.76" y1="300.47" x2="246.78" y2="300.47"/><line class="cls-13" x1="243.97" y1="300.47" x2="225.1" y2="300.47"/><polyline class="cls-13" points="289.2 298.64 289.2 299.62 288.4 299.62 288.4 300.43 290.44 300.43 290.44 297.83 291.2 297.83 291.2 297.28 288.4 297.28 288.4 298.64 289.2 298.64"/><polyline class="cls-13" points="247.37 299.62 247.37 298.64 248.18 298.64 248.18 297.28 245.33 297.28 245.33 297.83 246.14 297.83 246.14 300.43 248.18 300.43 248.18 299.62 247.37 299.62"/><line class="cls-13" x1="288.4" y1="299.62" x2="248.18" y2="299.62"/><line class="cls-13" x1="248.18" y1="298.64" x2="288.4" y2="298.64"/><line class="cls-13" x1="288.4" y1="297.28" x2="248.18" y2="297.28"/><line class="cls-13" x1="248.18" y1="300.43" x2="288.4" y2="300.43"/><polyline class="cls-13" points="130.08 25.29 130.89 23.88 98.15 5.01 97.35 6.41 130.08 25.29"/><polyline class="cls-12" points="95.94 3.61 95.94 6.41 97.35 6.41 97.35 4.8 97.77 4.8 97.77 3.61 95.94 3.61"/><polyline class="cls-12" points="136.54 3.61 134.71 3.61 134.71 4.8 135.14 4.8 135.14 6.41 136.54 6.41 136.54 3.61"/><polyline class="cls-12" points="275.51 3.61 275.51 6.41 275.51 6.41 275.51 4.8 275.51 4.8 275.51 3.61 275.51 3.61"/><line class="cls-13" x1="90.33" y1="101.43" x2="90.33" y2="102.43"/><line class="cls-14" x1="90.33" y1="104.41" x2="90.33" y2="214.31"/><polyline class="cls-13" points="90.33 215.29 90.33 216.29 89.33 216.29"/><line class="cls-15" x1="87.33" y1="216.3" x2="12.41" y2="216.3"/><line class="cls-13" x1="11.41" y1="216.3" x2="10.41" y2="216.3"/></svg>