<svg id="_412" data-name="412" xmlns="http://www.w3.org/2000/svg" viewBox="0 0 260.79 378.18"><defs><style>.cls-1{font-size:8px;}.cls-1,.cls-3{fill:#808184;}.cls-1,.cls-5{font-family:BigCityGrotesquePro-Regular, BigCity Grotesque Pro;}.cls-2,.cls-4,.cls-8{fill:none;}.cls-2{stroke:#808184;}.cls-2,.cls-4{stroke-linecap:round;stroke-linejoin:round;}.cls-2,.cls-8{stroke-width:0.75px;}.cls-4,.cls-8{stroke:#000;}.cls-4{stroke-width:0.5px;}.cls-5{font-size:14.58px;fill:#231f20;}.cls-6{letter-spacing:-0.02em;}.cls-7{letter-spacing:-0.04em;}.cls-8{stroke-miterlimit:10;}.cls-9{letter-spacing:-0.01em;}.cls-10{letter-spacing:-0.02em;}</style></defs><title>14floor_412flat</title><text class="cls-1" transform="translate(122.3 375.89)">двор</text><line class="cls-2" x1="116.89" y1="369.39" x2="116.89" y2="376.42"/><path class="cls-3" d="M114,372.32a.3.3,0,0,1,.41.09l2.47,3.87,2.47-3.87a.3.3,0,1,1,.51.32L117.14,377a.3.3,0,0,1-.51,0l-2.72-4.27a.3.3,0,0,1,.09-.41Z"/><path d="M128.42,327.34l7.9-47.06v47.06Zm0-47.06v47.06l7.9-47.06Z"/><path class="cls-4" d="M128.42,327.34l7.9-47.06v47.06Zm0-47.06v47.06l7.9-47.06Z"/><path d="M128.42,152.95l7.9-70.58v70.58Zm0-70.58v70.58l7.9-70.58Z"/><path class="cls-4" d="M128.42,152.95l7.9-70.58v70.58Zm0-70.58v70.58l7.9-70.58Z"/><path class="cls-4" d="M16,101.31a1,1,0,1,0,2,0"/><path class="cls-4" d="M18,101.31a1,1,0,0,0-2,0"/><path class="cls-4" d="M12.39,108.31a4.94,4.94,0,0,0,4.94,4.94"/><path class="cls-4" d="M17.33,89.55a4.94,4.94,0,0,0-4.94,4.94"/><path class="cls-4" d="M68,113.25a4.94,4.94,0,0,0,4.94-4.94"/><path class="cls-4" d="M72.92,94.48A4.94,4.94,0,0,0,68,89.55"/><line class="cls-4" x1="72.92" y1="94.39" x2="72.92" y2="108.22"/><line class="cls-4" x1="67.89" y1="113.25" x2="17.24" y2="113.25"/><line class="cls-4" x1="12.21" y1="108.22" x2="12.21" y2="94.39"/><line class="cls-4" x1="17.24" y1="89.37" x2="67.89" y2="89.37"/><line class="cls-4" x1="9.88" y1="86.31" x2="75.97" y2="86.31"/><polyline class="cls-4" points="242.47 316.75 221.63 316.75 221.63 317.64"/><line class="cls-4" x1="221.63" y1="317.64" x2="221.63" y2="327.34"/><line class="cls-4" x1="158.77" y1="316.75" x2="136.32" y2="316.75"/><polyline class="cls-4" points="128.42 316.75 100.04 316.75 100.04 317.64"/><line class="cls-4" x1="100.04" y1="317.64" x2="100.04" y2="327.34"/><polyline class="cls-4" points="100.04 327.34 100.04 335.25 158.77 335.25 158.77 327.34"/><line class="cls-4" x1="158.77" y1="327.34" x2="158.77" y2="317.64"/><line class="cls-4" x1="158.77" y1="317.64" x2="158.77" y2="316.75"/><line class="cls-4" x1="37.36" y1="316.75" x2="9.88" y2="316.75"/><line class="cls-4" x1="37.36" y1="327.34" x2="37.36" y2="317.64"/><line class="cls-4" x1="37.36" y1="317.64" x2="37.36" y2="316.75"/><line class="cls-4" x1="9.88" y1="317.64" x2="37.36" y2="317.64"/><line class="cls-4" x1="100.04" y1="317.64" x2="128.42" y2="317.64"/><line class="cls-4" x1="221.63" y1="317.64" x2="243.19" y2="317.64"/><line class="cls-4" x1="136.32" y1="317.64" x2="158.77" y2="317.64"/><line class="cls-4" x1="9.88" y1="327.34" x2="37.36" y2="327.34"/><line class="cls-4" x1="100.04" y1="327.34" x2="128.42" y2="327.34"/><line class="cls-4" x1="221.63" y1="327.34" x2="243.19" y2="327.34"/><line class="cls-4" x1="136.32" y1="327.34" x2="158.77" y2="327.34"/><polyline class="cls-4" points="189.3 330.4 160.75 330.4 160.75 331.47 189.3 331.47 189.3 330.4"/><polyline class="cls-4" points="219.66 330.4 191.28 330.4 191.28 331.47 219.66 331.47 219.66 330.4"/><line class="cls-4" x1="162.72" y1="329.32" x2="158.77" y2="329.32"/><polyline class="cls-4" points="158.77 332.55 162.72 332.55 162.72 329.32"/><polyline class="cls-4" points="221.63 329.32 217.68 329.32 217.68 332.55 221.63 332.55"/><line class="cls-4" x1="162.72" y1="329.32" x2="188.77" y2="329.32"/><line class="cls-4" x1="191.64" y1="329.32" x2="217.68" y2="329.32"/><line class="cls-4" x1="217.68" y1="332.55" x2="191.64" y2="332.55"/><line class="cls-4" x1="188.77" y1="332.55" x2="162.72" y2="332.55"/><polyline class="cls-4" points="191.64 329.32 188.76 329.32 188.76 332.55 191.64 332.55 191.64 329.32"/><polyline class="cls-4" points="221.63 316.75 221.63 315.67 221.63 314.77 158.77 314.77"/><polyline class="cls-4" points="158.77 316.75 158.77 315.67 158.77 314.77"/><polyline class="cls-4" points="221.63 335.61 221.63 338.12 158.77 338.12 158.77 335.61"/><polyline class="cls-4" points="67.71 330.4 39.33 330.4 39.33 331.47 67.71 331.47 67.71 330.4"/><polyline class="cls-4" points="98.06 330.4 69.69 330.4 69.69 331.47 98.06 331.47 98.06 330.4"/><line class="cls-4" x1="41.13" y1="329.32" x2="37.36" y2="329.32"/><polyline class="cls-4" points="37.36 332.55 41.13 332.55 41.13 329.32"/><polyline class="cls-4" points="100.04 329.32 96.09 329.32 96.09 332.55 100.04 332.55"/><line class="cls-4" x1="41.13" y1="329.32" x2="67.17" y2="329.32"/><line class="cls-4" x1="70.05" y1="329.32" x2="96.09" y2="329.32"/><line class="cls-4" x1="96.09" y1="332.55" x2="70.05" y2="332.55"/><line class="cls-4" x1="67.17" y1="332.55" x2="41.13" y2="332.55"/><polyline class="cls-4" points="70.05 329.32 67.17 329.32 67.17 332.55 70.05 332.55 70.05 329.32"/><polyline class="cls-4" points="100.04 316.75 100.04 315.67 100.04 314.77 37.36 314.77"/><polyline class="cls-4" points="37.36 316.75 37.36 315.67 37.36 314.77"/><polyline class="cls-4" points="100.04 335.61 100.04 338.12 37.36 338.12 37.36 335.61"/><polyline class="cls-4" points="163.26 9.44 163.26 10.16 172.78 10.16"/><line class="cls-4" x1="163.26" y1="9.44" x2="173.5" y2="9.44"/><line class="cls-4" x1="243.37" y1="23.09" x2="243.37" y2="82.36"/><line class="cls-4" x1="244.08" y1="88.29" x2="244.08" y2="85.41"/><line class="cls-4" x1="244.08" y1="82.36" x2="244.08" y2="22.37"/><line class="cls-4" x1="163.26" y1="10.16" x2="127.52" y2="30.81"/><line class="cls-4" x1="244.08" y1="14.47" x2="181.4" y2="14.47"/><polyline class="cls-4" points="9.7 82.36 9.7 27.04 8.8 27.04"/><line class="cls-4" x1="8.8" y1="9.44" x2="76.51" y2="9.44"/><polyline class="cls-4" points="128.42 280.29 128.42 316.75 128.42 317.64 128.42 327.34 136.32 327.34 136.32 317.64 136.32 316.75 136.32 280.29 133.99 280.29 130.75 280.29 128.42 280.29"/><polyline class="cls-4" points="136.32 152.95 136.32 82.36 128.42 82.36 128.42 152.95 130.75 152.95 133.99 152.95 136.32 152.95"/><line class="cls-4" x1="28.86" y1="137.66" x2="28.86" y2="151.49"/><path class="cls-4" d="M17.19,146.37a1.35,1.35,0,1,0-1.35,1.35,1.35,1.35,0,0,0,1.35-1.35"/><path class="cls-4" d="M16.83,146.37a1,1,0,1,0-1,1,1,1,0,0,0,1-1"/><path class="cls-4" d="M16.83,155.89a1,1,0,1,0-1,1,1,1,0,0,0,1-1"/><path class="cls-4" d="M17.19,155.89a1.35,1.35,0,1,0-1.35,1.35,1.35,1.35,0,0,0,1.35-1.35"/><path class="cls-4" d="M13.6,151.22a.63.63,0,1,0-.63.63.63.63,0,0,0,.63-.63"/><path class="cls-4" d="M12.46,155.35a1.89,1.89,0,0,0-.48,1.09"/><line class="cls-4" x1="15.03" y1="152.57" x2="12.52" y2="155.44"/><path class="cls-4" d="M16.38,151.85a1.71,1.71,0,0,0-1.2.49"/><line class="cls-4" x1="26.53" y1="152.03" x2="16.29" y2="152.03"/><path class="cls-4" d="M28.14,153.56A1.53,1.53,0,0,0,26.62,152"/><line class="cls-4" x1="28.14" y1="167.3" x2="28.14" y2="153.65"/><path class="cls-4" d="M26.8,168.73a1.35,1.35,0,0,0,1.34-1.48"/><line class="cls-4" x1="13.6" y1="168.91" x2="26.71" y2="168.91"/><path class="cls-4" d="M12.16,167.21a1.53,1.53,0,0,0,1.54,1.53"/><line class="cls-4" x1="11.98" y1="156.52" x2="11.98" y2="167.3"/><path class="cls-4" d="M23.85,144a1.35,1.35,0,0,0,1.33,1.56"/><path class="cls-4" d="M28.14,140.45a1.53,1.53,0,0,0-1.52-1.53"/><line class="cls-4" x1="28.14" y1="144.13" x2="28.14" y2="140.54"/><path class="cls-4" d="M26.8,145.56A1.35,1.35,0,0,0,28.13,144"/><line class="cls-4" x1="25.09" y1="145.74" x2="26.71" y2="145.74"/><path class="cls-4" d="M27.34,138.92a1.53,1.53,0,0,0,1.51-1.29"/><polyline class="cls-4" points="25.45 139.1 26.35 139.1 27.25 139.1"/><path class="cls-4" d="M25.54,138.92A1.53,1.53,0,0,0,24,140.45"/><path class="cls-4" d="M29,151.47a1.71,1.71,0,0,0-1.64-1.23"/><line class="cls-4" x1="25.45" y1="150.41" x2="27.25" y2="150.41"/><path class="cls-4" d="M23.83,148.71a1.53,1.53,0,0,0,1.53,1.53"/><line class="cls-4" x1="23.83" y1="140.54" x2="23.83" y2="148.8"/><line class="cls-4" x1="27.78" y1="134.79" x2="27.78" y2="138.2"/><line class="cls-4" x1="26.17" y1="134.79" x2="26.17" y2="138.2"/><line class="cls-4" x1="24.55" y1="134.79" x2="24.55" y2="138.2"/><line class="cls-4" x1="22.93" y1="134.79" x2="22.93" y2="138.2"/><line class="cls-4" x1="21.5" y1="134.79" x2="21.5" y2="138.2"/><line class="cls-4" x1="19.88" y1="134.79" x2="19.88" y2="138.2"/><line class="cls-4" x1="18.27" y1="134.79" x2="18.27" y2="138.2"/><line class="cls-4" x1="16.83" y1="134.79" x2="16.83" y2="138.2"/><line class="cls-4" x1="15.21" y1="134.79" x2="15.21" y2="138.2"/><line class="cls-4" x1="13.6" y1="134.79" x2="13.6" y2="138.2"/><line class="cls-4" x1="11.98" y1="134.79" x2="11.98" y2="138.2"/><path class="cls-4" d="M13.51,138.92a1.35,1.35,0,0,0-1.34,1.53"/><line class="cls-4" x1="21.5" y1="139.1" x2="13.42" y2="139.1"/><path class="cls-4" d="M23.11,140.45a1.53,1.53,0,0,0-1.53-1.53"/><line class="cls-4" x1="22.93" y1="148.8" x2="22.93" y2="140.54"/><path class="cls-4" d="M21.59,150.23a1.53,1.53,0,0,0,1.53-1.55"/><line class="cls-4" x1="16.11" y1="150.41" x2="21.5" y2="150.41"/><path class="cls-4" d="M15.07,149.74a1.53,1.53,0,0,0,1.12.5"/><line class="cls-4" x1="12.34" y1="147" x2="15.03" y2="149.87"/><path class="cls-4" d="M12.16,145.83a1.53,1.53,0,0,0,.4,1"/><line class="cls-4" x1="11.98" y1="140.54" x2="11.98" y2="145.92"/><path class="cls-4" d="M11.53,133.17a1,1,0,0,0-1,1.17L10.36,169a1.35,1.35,0,0,0,.77,1.22h18a1.17,1.17,0,0,0,.66-1"/><line class="cls-4" x1="28.5" y1="133.35" x2="11.44" y2="133.35"/><path class="cls-4" d="M29.76,134.34a1.17,1.17,0,0,0-1.17-1.17"/><line class="cls-4" x1="29.58" y1="169.27" x2="29.58" y2="134.43"/><line class="cls-4" x1="173.5" y1="78.05" x2="173.5" y2="82.36"/><polyline class="cls-4" points="176.73 82.36 176.73 78.05 173.5 78.05"/><line class="cls-4" x1="130.75" y1="152.95" x2="130.75" y2="280.29"/><line class="cls-4" x1="133.99" y1="280.29" x2="133.99" y2="152.95"/><line class="cls-4" x1="81.72" y1="56.68" x2="93.57" y2="81.46"/><line class="cls-4" x1="136.32" y1="85.41" x2="164.52" y2="103.02"/><line class="cls-4" x1="121.41" y1="121.52" x2="93.22" y2="139.12"/><line class="cls-4" x1="168.11" y1="85.41" x2="244.08" y2="85.41"/><line class="cls-4" x1="244.08" y1="82.36" x2="176.73" y2="82.36"/><polyline class="cls-4" points="173.5 82.36 168.11 82.36 168.11 85.42"/><polyline class="cls-4" points="81.72 118.46 81.72 84.52 81.18 84.52"/><line class="cls-4" x1="81.18" y1="84.52" x2="76.51" y2="84.52"/><polyline class="cls-4" points="76.51 84.52 75.97 84.52 75.97 116.31"/><line class="cls-4" x1="76.51" y1="56.68" x2="81.18" y2="56.68"/><line class="cls-4" x1="81.18" y1="56.68" x2="81.72" y2="56.68"/><line class="cls-4" x1="81.18" y1="84.52" x2="81.18" y2="118.46"/><line class="cls-4" x1="76.51" y1="84.52" x2="76.51" y2="116.85"/><polyline class="cls-4" points="9.88 122.05 81.72 122.05 81.72 121.52"/><line class="cls-4" x1="75.97" y1="116.31" x2="9.88" y2="116.31"/><line class="cls-4" x1="89.62" y1="121.52" x2="9.88" y2="121.52"/><line class="cls-4" x1="76.51" y1="116.85" x2="9.88" y2="116.85"/><polyline class="cls-4" points="89.62 121.52 89.62 118.46 81.18 118.46"/><polyline class="cls-4" points="121.41 121.52 128.42 121.52 128.42 118.46 121.41 118.46 121.41 121.52"/><polyline class="cls-4" points="158.77 335.25 100.04 335.25 100.04 335.61 158.77 335.61 158.77 335.25"/><line class="cls-4" x1="57.11" y1="338.3" x2="57.11" y2="338.12"/><line class="cls-4" x1="56.4" y1="338.3" x2="56.4" y2="338.12"/><line class="cls-4" x1="79.21" y1="338.3" x2="79.21" y2="338.12"/><line class="cls-4" x1="79.92" y1="338.3" x2="79.92" y2="338.12"/><polyline class="cls-4" points="83.88 353.92 52.45 353.92 52.45 338.3 83.88 338.3 83.88 353.92"/><polyline class="cls-4" points="87.47 338.12 87.47 358.06 49.75 358.06 49.75 338.12"/><polyline class="cls-4" points="49.03 338.12 49.03 358.77 88.19 358.77 88.19 338.12"/><polyline class="cls-4" points="85.85 356.44 85.85 358.06 87.47 358.06 87.47 356.44 85.85 356.44"/><polyline class="cls-4" points="49.75 356.44 49.75 358.06 51.37 358.06 51.37 356.44 49.75 356.44"/><line class="cls-4" x1="9.88" y1="327.34" x2="9.88" y2="82.36"/><rect x="57.29" y="118.46" width="32.33" height="3.05"/><rect x="128.38" y="82.36" width="7.94" height="70.59"/><rect x="128.38" y="280.29" width="7.94" height="39.23"/><rect x="130.8" y="152.95" width="3.11" height="127.34"/><rect x="121.41" y="118.46" width="13.94" height="3.05"/><rect x="168.06" y="82.36" width="83.02" height="3.05"/><polyline points="1.08 121.52 81.72 121.52 81.72 116.85 1.08 116.85"/><rect x="75.97" y="84.43" width="5.75" height="37.09"/><rect x="173.5" y="14.66" width="75.97" height="8.67"/><rect x="163.26" width="18.14" height="10.16"/><polyline points="0 9.44 122.47 9.44 122.47 0 0 0"/><rect x="172.78" y="0.82" width="8.62" height="22.5"/><rect x="172.78" y="8.21" width="3.41" height="22.79"/><rect x="173.32" y="78.05" width="3.41" height="7.35"/><rect x="76.24" y="8.21" width="5.48" height="48.47"/><rect y="1.18" width="9.81" height="321.32"/><rect x="242.2" width="9.34" height="335.43"/><rect x="221.63" y="316.55" width="39.15" height="18.88"/><rect x="100.04" y="316.37" width="58.73" height="18.88"/><polyline points="0 335.25 37.36 335.25 37.36 316.37 0 316.37"/><rect x="242.2" y="273.64" width="18.59" height="61.78"/><text class="cls-5" transform="translate(200.44 57.04)">2<tspan class="cls-6" x="7.01" y="0">.</tspan><tspan x="10.1" y="0">6</tspan></text><text class="cls-5" transform="translate(43.86 68.71)">4.4</text><text class="cls-5" transform="translate(124.27 57.04)">5.4</text><text class="cls-5" transform="translate(179.33 304.53)">16.4</text><text class="cls-5" transform="translate(63.54 304.53)">15<tspan class="cls-7" x="12.32" y="0">.</tspan><tspan x="15.06" y="0">1</tspan></text><rect class="cls-8" x="161.44" y="197.13" width="53.73" height="19.68"/><rect class="cls-8" x="161.44" y="216.81" width="53.73" height="19.68"/><rect class="cls-8" x="161.44" y="236.5" width="53.73" height="19.68"/><text class="cls-5" transform="translate(170.38 211.13)">№<tspan class="cls-9" x="15.91" y="0">4</tspan><tspan x="23.71" y="0">12</tspan><tspan x="11.33" y="20.41">1</tspan><tspan class="cls-10" x="16.47" y="20.41">К</tspan><tspan x="4.53" y="40.82">43.9</tspan></text><rect class="cls-4" x="9.43" y="121.52" width="34.25" height="11.23"/><line class="cls-4" x1="58.57" y1="26.94" x2="65.85" y2="26.94"/><path class="cls-4" d="M60.21,28.85a2.09,2.09,0,0,0-1.7-2.05"/><polyline class="cls-4" points="58.57 28.76 57.85 28.76 57.85 26.4 58.57 26.4 58.57 28.76"/><path class="cls-4" d="M69.12,25.22a1,1,0,0,0-1-1"/><path class="cls-4" d="M53.12,26.67a1,1,0,1,0,2,0"/><path class="cls-4" d="M47.94,24.22a1,1,0,0,0-1,1"/><line class="cls-4" x1="48.03" y1="24.22" x2="68.21" y2="24.22"/><path class="cls-4" d="M55.12,26.67a1,1,0,0,0-2,0"/><path class="cls-4" d="M61.12,26.67a1,1,0,1,0,2,0"/><path class="cls-4" d="M63.12,26.67a1,1,0,0,0-2,0"/><path class="cls-4" d="M57.73,26.8A2.09,2.09,0,0,0,56,28.85"/><path class="cls-4" d="M56,28.85a2.09,2.09,0,1,0,4.18,0"/><path class="cls-4" d="M67.85,29a2.09,2.09,0,0,0-2.09-2.09"/><line class="cls-4" x1="50.21" y1="26.94" x2="57.85" y2="26.94"/><path class="cls-4" d="M50.12,26.94A2.09,2.09,0,0,0,48,29"/><line class="cls-4" x1="48.21" y1="29.31" x2="48.21" y2="28.94"/><path class="cls-4" d="M48.21,29.4a7.91,7.91,0,0,0,7.91,7.91"/><line class="cls-4" x1="60.03" y1="37.13" x2="56.21" y2="37.13"/><line class="cls-4" x1="68.03" y1="28.94" x2="68.03" y2="29.31"/><path class="cls-4" d="M59.21,38.58a9.91,9.91,0,0,0,9.91-9.91"/><line class="cls-4" x1="69.3" y1="25.13" x2="69.3" y2="28.58"/><path class="cls-4" d="M59.94,37.31a7.91,7.91,0,0,0,7.91-7.91"/><line class="cls-4" x1="59.3" y1="38.4" x2="56.94" y2="38.4"/><path class="cls-4" d="M46.93,28.67a9.91,9.91,0,0,0,9.91,9.91"/><line class="cls-4" x1="46.93" y1="28.58" x2="46.93" y2="25.13"/><polyline class="cls-4" points="32.3 52.23 30.84 54.23 29.93 55.32 29.02 55.68 27.57 56.23 26.66 56.23 25.2 55.68 24.29 55.32 23.38 54.23 21.93 52.23"/><polyline class="cls-4" points="21.93 39.13 23.2 38.59 26.11 38.04 28.11 38.04 31.02 38.59 32.3 39.13"/><polyline class="cls-4" points="21.93 52.23 21.02 50.23 20.29 48.23 19.75 46.23 19.56 44.22 19.56 43.13 19.75 42.22 20.11 41.13 20.66 40.04 21.93 39.13"/><polyline class="cls-4" points="32.3 39.13 33.57 40.04 34.11 41.13 34.48 42.22 34.66 43.13 34.66 44.22 34.48 46.23 33.93 48.23 33.2 50.23 32.3 52.23"/><line class="cls-4" x1="22.29" y1="36.04" x2="21.93" y2="39.13"/><line class="cls-4" x1="32.11" y1="36.04" x2="32.29" y2="39.13"/><path class="cls-4" d="M17.2,32.49a3.73,3.73,0,0,0,3.73,3.73"/><line class="cls-4" x1="17.02" y1="24.58" x2="17.02" y2="32.4"/><line class="cls-4" x1="37.21" y1="32.4" x2="37.21" y2="24.58"/><path class="cls-4" d="M33.48,36.22a3.73,3.73,0,0,0,3.73-3.73"/><line class="cls-4" x1="20.84" y1="36.04" x2="33.39" y2="36.04"/><rect class="cls-4" x="17.02" y="7.51" width="51.83" height="16.43"/></svg>