<?xml version="1.0" encoding="UTF-8"?>
<svg width="58px" height="58px" viewBox="0 0 58 58" version="1.1" xmlns="http://www.w3.org/2000/svg" xmlns:xlink="http://www.w3.org/1999/xlink">
    <!-- Generator: Sketch 62 (91390) - https://sketch.com -->
    <title>минииконка_магазин</title>
    <desc>Created with Sketch.</desc>
    <defs>
        <filter x="-76.6%" y="-76.6%" width="253.1%" height="253.1%" filterUnits="objectBoundingBox" id="filter-1">
            <feOffset dx="0" dy="1" in="SourceAlpha" result="shadowOffsetOuter1"></feOffset>
            <feGaussianBlur stdDeviation="5" in="shadowOffsetOuter1" result="shadowBlurOuter1"></feGaussianBlur>
            <feColorMatrix values="0 0 0 0 0   0 0 0 0 0   0 0 0 0 0  0 0 0 0.2 0" type="matrix" in="shadowBlurOuter1" result="shadowMatrixOuter1"></feColorMatrix>
            <feMerge>
                <feMergeNode in="shadowMatrixOuter1"></feMergeNode>
                <feMergeNode in="SourceGraphic"></feMergeNode>
            </feMerge>
        </filter>
    </defs>
    <g id="UI" stroke="none" stroke-width="1" fill="none" fill-rule="evenodd">
        <g id="3red_UI" transform="translate(-322.000000, -6360.000000)">
            <g id="Инфраструктура/иконки/магазин" transform="translate(335.000000, 6372.000000)">
                <g id="Group-23-Copy-2" filter="url(#filter-1)">
                    <g id="Group-5-Copy-2">
                        <circle id="Oval" stroke="#FFFFFF" stroke-width="3" fill="#2095D2" cx="16" cy="16" r="17.5"></circle>
                        <g id="Group-2" transform="translate(9.000000, 8.000000)" fill="#FFFFFF">
                            <path d="M0,6 L2,6 L2,8 L12,8 L12,6 L14,6 L14,12 C14,14.209139 12.209139,16 10,16 L4,16 C1.790861,16 2.705415e-16,14.209139 0,12 L0,6 L0,6 Z" id="Rectangle"></path>
                            <path d="M8,0 C9.65685425,-3.04359188e-16 11,1.34314575 11,3 L11,7 L10,7 L10,3 C10,1.8954305 9.1045695,1 8,1 L8,1 L6,1 C4.8954305,1 4,1.8954305 4,3 L4,3 L4,7 L3,7 L3,3 C3,1.34314575 4.34314575,3.04359188e-16 6,0 L8,0 Z" id="Combined-Shape"></path>
                        </g>
                    </g>
                </g>
            </g>
        </g>
    </g>
</svg>