<svg id="_3" data-name="3" xmlns="http://www.w3.org/2000/svg" viewBox="0 0 746.7 743.79"><defs><style>.cls-1,.cls-3,.cls-4{fill:none;stroke-linecap:round;stroke-linejoin:round;}.cls-1{stroke:#999;stroke-width:0.5px;}.cls-2{isolation:isolate;font-size:12px;fill:#999;}.cls-2,.cls-5,.cls-6,.cls-7{font-family:PTSans-Regular, PT Sans;}.cls-3,.cls-4{stroke:#000;stroke-width:0.75px;}.cls-4{stroke-dasharray:2.91 2.91;}.cls-5{font-size:24px;}.cls-6{font-size:28px;}.cls-7{font-size:30px;}</style></defs><title>1floor_3flat</title><line class="cls-1" x1="735.36" y1="401.58" x2="744.16" y2="401.58"/><polyline class="cls-1" points="740.86 405.18 744.36 401.68 740.86 398.18"/><text class="cls-2" transform="translate(743.76 392.35) rotate(-90)">двор</text><line class="cls-1" x1="372.01" y1="732.45" x2="372.01" y2="741.25"/><polyline class="cls-1" points="368.41 737.95 371.91 741.45 375.41 737.95"/><text class="cls-2" transform="translate(381.24 740.85)">двор</text><line class="cls-3" x1="564.03" y1="228.32" x2="568" y2="224.37"/><line class="cls-3" x1="572.26" y1="236.95" x2="587.28" y2="221.94"/><line class="cls-3" x1="589.12" y1="236.95" x2="589.25" y2="236.84"/><line class="cls-3" x1="593.29" y1="232.8" x2="604.15" y2="221.94"/><line class="cls-3" x1="605.99" y1="236.95" x2="608.04" y2="234.91"/><line class="cls-3" x1="612.25" y1="230.68" x2="612.44" y2="230.51"/><line class="cls-3" x1="616.47" y1="226.47" x2="621.01" y2="221.94"/><line class="cls-3" x1="622.85" y1="236.95" x2="631.23" y2="228.58"/><line class="cls-3" x1="635.44" y1="224.37" x2="635.61" y2="224.19"/><line class="cls-3" x1="639.71" y1="236.95" x2="654.41" y2="222.25"/><line class="cls-3" x1="656.57" y1="236.95" x2="668.38" y2="225.14"/><line class="cls-3" x1="665.43" y1="236.95" x2="669.19" y2="236.95"/><line class="cls-3" x1="564.03" y1="221.94" x2="564.03" y2="229.45"/><line class="cls-3" x1="564.03" y1="236.95" x2="665.43" y2="236.95"/><line class="cls-3" x1="564.03" y1="498.1" x2="573.58" y2="488.55"/><line class="cls-3" x1="564.03" y1="514.96" x2="578.53" y2="500.48"/><line class="cls-3" x1="564.03" y1="531.82" x2="572.22" y2="523.65"/><line class="cls-3" x1="576.43" y1="519.44" x2="576.6" y2="519.26"/><line class="cls-3" x1="564.03" y1="548.68" x2="565.89" y2="546.84"/><line class="cls-3" x1="570.1" y1="542.63" x2="570.28" y2="542.45"/><line class="cls-3" x1="574.32" y1="538.41" x2="579.06" y2="533.66"/><line class="cls-3" x1="568" y1="561.6" x2="579.06" y2="550.52"/><line class="cls-3" x1="564.03" y1="582.42" x2="579.06" y2="567.4"/><line class="cls-3" x1="569.61" y1="593.71" x2="576.43" y2="586.89"/><line class="cls-3" x1="579.06" y1="488.55" x2="564.03" y2="488.55"/><line class="cls-3" x1="308.68" y1="572.13" x2="308.68" y2="571.96"/><line class="cls-3" x1="308.68" y1="589.95" x2="322.36" y2="571.17"/><line class="cls-3" x1="321.4" y1="588.99" x2="321.58" y2="588.82"/><line class="cls-3" x1="325.61" y1="584.78" x2="333.09" y2="577.29"/><line class="cls-3" x1="308.68" y1="589.95" x2="333.09" y2="589.95"/><line class="cls-3" x1="308.68" y1="571.17" x2="308.68" y2="571.17"/><line class="cls-3" x1="333.09" y1="593.71" x2="333.09" y2="571.17"/><line class="cls-3" x1="34.76" y1="234.9" x2="51.47" y2="218.18"/><line class="cls-3" x1="45.8" y1="240.71" x2="49.51" y2="237.01"/><line class="cls-3" x1="34.55" y1="240.71" x2="66.28" y2="240.71"/><line class="cls-3" x1="53.33" y1="218.18" x2="34.55" y2="218.18"/><line class="cls-3" x1="306.81" y1="232.64" x2="308.75" y2="230.68"/><line class="cls-3" x1="312.97" y1="226.47" x2="313.14" y2="226.3"/><line class="cls-3" x1="317.18" y1="222.25" x2="317.5" y2="221.94"/><line class="cls-3" x1="315.58" y1="240.71" x2="329.34" y2="226.97"/><polyline class="cls-3" points="327.47 240.71 329.34 240.71 329.34 229.45"/><line class="cls-3" x1="329.34" y1="224.19" x2="329.34" y2="221.94"/><line class="cls-3" x1="306.81" y1="221.94" x2="306.81" y2="240.71"/><line class="cls-3" x1="306.81" y1="13.44" x2="306.82" y2="13.42"/><line class="cls-3" x1="310.87" y1="9.38" x2="319.86" y2="0.38"/><line class="cls-3" x1="317.94" y1="19.16" x2="325.61" y2="11.49"/><line class="cls-3" x1="329.34" y1="19.16" x2="329.34" y2="0.38"/><line class="cls-3" x1="306.81" y1="0.38" x2="306.81" y2="19.16"/><line class="cls-3" x1="34.76" y1="0.38" x2="36.97" y2="0.38"/><line class="cls-3" x1="34.55" y1="15.91" x2="49.51" y2="0.95"/><line class="cls-3" x1="51.62" y1="15.71" x2="53.33" y2="14"/><line class="cls-3" x1="34.55" y1="0.38" x2="34.55" y2="18.87"/><line class="cls-3" x1="53.33" y1="0.38" x2="34.55" y2="0.38"/><line class="cls-3" x1="646.65" y1="10.82" x2="648.08" y2="9.38"/><line class="cls-3" x1="652.3" y1="5.17" x2="652.49" y2="4.99"/><line class="cls-3" x1="656.51" y1="0.95" x2="662.73" y2="0.38"/><line class="cls-3" x1="650.2" y1="24.14" x2="665.43" y2="8.91"/><line class="cls-3" x1="665.43" y1="24.79" x2="665.43" y2="0.38"/><line class="cls-3" x1="646.65" y1="19.16" x2="646.65" y2="24.79"/><line class="cls-3" x1="669.19" y1="0.38" x2="646.65" y2="0.38"/><line class="cls-3" x1="308.68" y1="593.71" x2="308.68" y2="571.17"/><line class="cls-3" x1="308.68" y1="593.71" x2="308.68" y2="571.17"/><line class="cls-3" x1="308.68" y1="593.71" x2="308.68" y2="589.28"/><polyline class="cls-3" points="308.68 571.17 308.68 571.17 308.68 593.71"/><line class="cls-3" x1="308.68" y1="593.71" x2="308.68" y2="571.17"/><line class="cls-3" x1="333.09" y1="591.1" x2="353.03" y2="571.17"/><line class="cls-3" x1="362.37" y1="593.71" x2="384.89" y2="571.17"/><line class="cls-3" x1="394.23" y1="593.71" x2="394.86" y2="593.06"/><line class="cls-3" x1="508.27" y1="575.25" x2="512.35" y2="571.17"/><line class="cls-3" x1="521.68" y1="593.71" x2="544.21" y2="571.17"/><line class="cls-3" x1="553.54" y1="593.71" x2="564.03" y2="583.21"/><polyline class="cls-3" points="308.68 593.71 394.86 593.71 394.86 571.17 327.47 571.17"/><line class="cls-3" x1="508.27" y1="593.71" x2="586.57" y2="593.71"/><polyline class="cls-3" points="564.03 571.17 508.27 571.17 508.27 593.71"/><line class="cls-3" x1="564.03" y1="589.95" x2="564.03" y2="571.17"/><line class="cls-3" x1="394.86" y1="571.17" x2="508.27" y2="571.17"/><line class="cls-3" x1="564.03" y1="264.57" x2="586.57" y2="242.03"/><line class="cls-3" x1="564.03" y1="423.89" x2="586.57" y2="401.36"/><line class="cls-3" x1="564.03" y1="455.75" x2="586.57" y2="433.23"/><line class="cls-3" x1="564.03" y1="487.62" x2="586.57" y2="465.09"/><polyline class="cls-3" points="586.57 393.18 564.03 393.18 564.03 571.17"/><polyline class="cls-3" points="564.03 229.45 564.03 270.76 581.31 270.76"/><line class="cls-3" x1="586.57" y1="270.76" x2="586.57" y2="244.46"/><line class="cls-3" x1="564.03" y1="327.84" x2="581.31" y2="327.84"/><line class="cls-3" x1="564.03" y1="393.18" x2="564.03" y2="327.84"/><line class="cls-3" x1="646.65" y1="54.49" x2="669.19" y2="31.97"/><line class="cls-3" x1="655.28" y1="77.74" x2="669.19" y2="63.83"/><line class="cls-3" x1="646.65" y1="213.82" x2="669.19" y2="191.28"/><polyline class="cls-3" points="669.19 191.15 646.65 191.15 646.65 221.94"/><polyline class="cls-3" points="646.65 24.79 646.65 77.74 669.19 77.74"/><line class="cls-3" x1="646.65" y1="221.94" x2="665.43" y2="221.94"/><line class="cls-3" x1="669.19" y1="24.79" x2="646.65" y2="24.79"/><line class="cls-3" x1="646.65" y1="191.15" x2="646.65" y2="77.74"/><line class="cls-3" x1="646.65" y1="0.38" x2="669.19" y2="0.38"/><line class="cls-3" x1="646.65" y1="0.38" x2="646.65" y2="0.38"/><line class="cls-3" x1="669.19" y1="24.79" x2="669.19" y2="0.38"/><line class="cls-3" x1="665.43" y1="3.86" x2="669.19" y2="0.38"/><line class="cls-3" x1="665.43" y1="19.8" x2="669.19" y2="16.04"/><line class="cls-3" x1="669.19" y1="13.91" x2="665.43" y2="10.16"/><line class="cls-3" x1="669.19" y1="0.38" x2="665.95" y2="0.38"/><line class="cls-3" x1="668.79" y1="223.56" x2="669.19" y2="223.14"/><line class="cls-3" x1="669.19" y1="236.95" x2="666.18" y2="233.96"/><line class="cls-3" x1="665.43" y1="221.94" x2="665.43" y2="236.95"/><line class="cls-3" x1="665.43" y1="244.46" x2="669.19" y2="244.46"/><line class="cls-3" x1="669.19" y1="221.94" x2="665.43" y2="221.94"/><line class="cls-3" x1="586.57" y1="242.03" x2="591.65" y2="236.95"/><line class="cls-3" x1="616.01" y1="244.46" x2="623.51" y2="236.95"/><line class="cls-3" x1="647.87" y1="244.46" x2="655.38" y2="236.95"/><line class="cls-3" x1="669.19" y1="236.95" x2="586.57" y2="236.95"/><line class="cls-3" x1="579.06" y1="504.46" x2="586.57" y2="496.95"/><line class="cls-3" x1="579.06" y1="536.33" x2="586.57" y2="528.82"/><line class="cls-3" x1="579.06" y1="568.19" x2="586.57" y2="560.68"/><line class="cls-3" x1="585.41" y1="593.71" x2="586.57" y2="592.54"/><line class="cls-3" x1="579.06" y1="488.55" x2="579.06" y2="593.71"/><polyline class="cls-3" points="579.06 589.95 564.03 589.95 564.03 593.71"/><line class="cls-3" x1="314.56" y1="593.71" x2="318.32" y2="589.95"/><line class="cls-3" x1="330.5" y1="593.71" x2="333.09" y2="591.1"/><line class="cls-3" x1="308.98" y1="593.71" x2="308.68" y2="589.95"/><line class="cls-3" x1="324.92" y1="593.71" x2="321.17" y2="589.95"/><line class="cls-3" x1="397.31" y1="60.46" x2="367.64" y2="60.46"/><line class="cls-3" x1="308.68" y1="265.01" x2="327.47" y2="246.23"/><line class="cls-3" x1="308.68" y1="296.87" x2="327.47" y2="278.1"/><line class="cls-3" x1="308.68" y1="328.73" x2="327.47" y2="309.96"/><line class="cls-3" x1="308.68" y1="360.6" x2="327.47" y2="341.82"/><line class="cls-3" x1="308.68" y1="392.47" x2="327.47" y2="373.69"/><line class="cls-3" x1="308.68" y1="424.34" x2="327.47" y2="405.55"/><line class="cls-3" x1="308.68" y1="456.2" x2="327.47" y2="437.41"/><line class="cls-3" x1="308.68" y1="488.06" x2="327.47" y2="469.28"/><line class="cls-3" x1="308.68" y1="519.93" x2="327.47" y2="501.14"/><line class="cls-3" x1="308.68" y1="551.79" x2="327.47" y2="533.02"/><line class="cls-3" x1="321.17" y1="571.17" x2="327.47" y2="564.88"/><line class="cls-3" x1="327.47" y1="571.17" x2="327.47" y2="240.71"/><line class="cls-3" x1="308.68" y1="240.71" x2="308.68" y2="571.17"/><line class="cls-3" x1="327.47" y1="240.71" x2="308.68" y2="240.71"/><line class="cls-3" x1="308.68" y1="571.17" x2="327.47" y2="571.17"/><line class="cls-3" x1="53.33" y1="233.59" x2="64.98" y2="221.94"/><line class="cls-3" x1="78.07" y1="240.71" x2="96.84" y2="221.94"/><line class="cls-3" x1="109.93" y1="240.71" x2="128.71" y2="221.94"/><line class="cls-3" x1="141.8" y1="240.71" x2="160.57" y2="221.94"/><line class="cls-3" x1="173.66" y1="240.71" x2="192.43" y2="221.94"/><line class="cls-3" x1="205.52" y1="240.71" x2="224.3" y2="221.94"/><line class="cls-3" x1="237.39" y1="240.71" x2="256.16" y2="221.94"/><line class="cls-3" x1="269.25" y1="240.71" x2="288.02" y2="221.94"/><line class="cls-3" x1="301.11" y1="240.71" x2="306.81" y2="235.03"/><line class="cls-3" x1="329.34" y1="221.94" x2="53.33" y2="221.94"/><line class="cls-3" x1="53.33" y1="240.71" x2="308.68" y2="240.71"/><line class="cls-3" x1="53.33" y1="221.94" x2="53.33" y2="240.71"/><line class="cls-3" x1="34.55" y1="124.91" x2="53.33" y2="106.14"/><line class="cls-3" x1="34.55" y1="156.77" x2="53.33" y2="138"/><line class="cls-3" x1="34.55" y1="188.63" x2="53.33" y2="169.86"/><line class="cls-3" x1="36.87" y1="218.18" x2="53.33" y2="201.73"/><polyline class="cls-3" points="53.33 221.94 53.33 94.73 39.8 94.73"/><line class="cls-3" x1="34.55" y1="100.74" x2="34.55" y2="143.57"/><line class="cls-3" x1="34.55" y1="131.81" x2="34.55" y2="240.71"/><line class="cls-3" x1="331.49" y1="19.16" x2="350.27" y2="0.38"/><line class="cls-3" x1="363.36" y1="19.16" x2="382.13" y2="0.38"/><line class="cls-3" x1="395.22" y1="19.16" x2="413.99" y2="0.38"/><line class="cls-3" x1="427.08" y1="19.16" x2="445.86" y2="0.38"/><line class="cls-3" x1="458.95" y1="19.16" x2="477.72" y2="0.38"/><line class="cls-3" x1="490.81" y1="19.16" x2="509.58" y2="0.38"/><line class="cls-3" x1="522.67" y1="19.16" x2="541.45" y2="0.38"/><line class="cls-3" x1="554.54" y1="19.16" x2="573.31" y2="0.38"/><line class="cls-3" x1="586.4" y1="19.16" x2="605.17" y2="0.38"/><line class="cls-3" x1="618.26" y1="19.16" x2="637.04" y2="0.38"/><line class="cls-3" x1="646.65" y1="0.38" x2="188.89" y2="0.38"/><line class="cls-3" x1="367.64" y1="19.16" x2="397.31" y2="19.16"/><line class="cls-3" x1="406.33" y1="19.16" x2="646.65" y2="19.16"/><line class="cls-3" x1="646.65" y1="19.16" x2="646.65" y2="0.38"/><line class="cls-3" x1="53.33" y1="10.55" x2="63.48" y2="0.38"/><line class="cls-3" x1="76.86" y1="18.87" x2="95.36" y2="0.38"/><line class="cls-3" x1="108.44" y1="19.16" x2="127.22" y2="0.38"/><line class="cls-3" x1="140.3" y1="19.16" x2="159.09" y2="0.38"/><line class="cls-3" x1="172.16" y1="19.16" x2="190.95" y2="0.38"/><line class="cls-3" x1="204.04" y1="19.16" x2="222.81" y2="0.38"/><line class="cls-3" x1="235.9" y1="19.16" x2="254.68" y2="0.38"/><line class="cls-3" x1="267.77" y1="19.16" x2="286.54" y2="0.38"/><line class="cls-3" x1="299.63" y1="19.16" x2="306.81" y2="11.97"/><line class="cls-3" x1="251.99" y1="0.38" x2="53.33" y2="0.38"/><polyline class="cls-3" points="34.58 19.34 85.67 19.34 90.89 19.16 152.84 19.16"/><line class="cls-3" x1="161.85" y1="19.16" x2="361.63" y2="19.16"/><line class="cls-3" x1="53.33" y1="0.38" x2="53.33" y2="18.87"/><line class="cls-3" x1="90.89" y1="19.16" x2="53.33" y2="19.16"/><line class="cls-3" x1="35.37" y1="0.38" x2="40.83" y2="0.38"/><polyline class="cls-3" points="53.33 0.38 53.33 0.38 39.8 0.38"/><line class="cls-3" x1="152.84" y1="29.13" x2="161.85" y2="20.13"/><line class="cls-3" x1="152.84" y1="66.91" x2="161.85" y2="57.89"/><line class="cls-3" x1="152.84" y1="104.68" x2="161.85" y2="95.66"/><line class="cls-3" x1="152.84" y1="142.44" x2="161.85" y2="133.44"/><line class="cls-3" x1="152.84" y1="38.29" x2="161.85" y2="29.28"/><line class="cls-3" x1="152.84" y1="76.06" x2="161.85" y2="67.05"/><line class="cls-3" x1="152.84" y1="113.83" x2="161.85" y2="104.81"/><line class="cls-3" x1="152.84" y1="151.61" x2="161.85" y2="142.59"/><line class="cls-3" x1="152.84" y1="19.16" x2="152.84" y2="158.86"/><line class="cls-3" x1="161.85" y1="149.84" x2="161.85" y2="19.16"/><line class="cls-3" x1="161.85" y1="19.16" x2="152.84" y2="19.16"/><line class="cls-3" x1="174.21" y1="158.86" x2="183.23" y2="149.84"/><line class="cls-3" x1="211.98" y1="158.86" x2="220.99" y2="149.84"/><line class="cls-3" x1="249.74" y1="158.86" x2="255.93" y2="152.67"/><line class="cls-3" x1="325.28" y1="158.86" x2="334.3" y2="149.84"/><line class="cls-3" x1="363.06" y1="158.86" x2="372.06" y2="149.84"/><line class="cls-3" x1="400.83" y1="158.86" x2="406.33" y2="153.36"/><line class="cls-3" x1="183.36" y1="158.86" x2="192.37" y2="149.84"/><line class="cls-3" x1="221.13" y1="158.86" x2="230.15" y2="149.84"/><line class="cls-3" x1="334.44" y1="158.86" x2="343.45" y2="149.84"/><line class="cls-3" x1="372.2" y1="158.86" x2="381.22" y2="149.84"/><line class="cls-3" x1="152.84" y1="158.86" x2="255.93" y2="158.86"/><polyline class="cls-3" points="255.93 158.86 255.93 149.84 161.85 149.84"/><line class="cls-3" x1="308.49" y1="158.86" x2="399.94" y2="158.86"/><line class="cls-3" x1="397.31" y1="149.84" x2="367.64" y2="149.84"/><polyline class="cls-3" points="361.63 149.84 308.49 149.84 308.49 158.86"/><line class="cls-3" x1="397.31" y1="49.05" x2="406.33" y2="40.05"/><line class="cls-3" x1="397.31" y1="86.83" x2="406.33" y2="77.81"/><line class="cls-3" x1="397.31" y1="124.59" x2="406.33" y2="115.59"/><line class="cls-3" x1="397.31" y1="20.44" x2="398.6" y2="19.16"/><line class="cls-3" x1="397.31" y1="58.22" x2="406.33" y2="49.2"/><line class="cls-3" x1="397.31" y1="95.98" x2="406.33" y2="86.97"/><line class="cls-3" x1="397.31" y1="133.75" x2="406.33" y2="124.74"/><line class="cls-3" x1="406.33" y1="158.86" x2="406.33" y2="19.16"/><line class="cls-3" x1="397.31" y1="19.16" x2="397.31" y2="41.32"/><line class="cls-3" x1="397.31" y1="47.31" x2="397.31" y2="149.84"/><line class="cls-3" x1="406.33" y1="19.16" x2="397.31" y2="19.16"/><line class="cls-3" x1="407.98" y1="229.45" x2="415.49" y2="221.94"/><line class="cls-3" x1="439.84" y1="229.45" x2="447.35" y2="221.94"/><line class="cls-3" x1="471.71" y1="229.45" x2="479.22" y2="221.94"/><line class="cls-3" x1="503.57" y1="229.45" x2="511.08" y2="221.94"/><line class="cls-3" x1="535.43" y1="229.45" x2="542.94" y2="221.94"/><line class="cls-3" x1="646.65" y1="221.94" x2="407.45" y2="221.94"/><polyline class="cls-3" points="410.6 221.94 396.93 221.94 396.93 229.45"/><line class="cls-3" x1="396.93" y1="229.45" x2="564.03" y2="229.45"/><line class="cls-3" x1="361.63" y1="20.87" x2="363.36" y2="19.16"/><line class="cls-3" x1="361.63" y1="31.5" x2="367.64" y2="25.49"/><line class="cls-3" x1="361.63" y1="42.12" x2="367.64" y2="36.11"/><line class="cls-3" x1="361.63" y1="52.74" x2="367.64" y2="46.74"/><line class="cls-3" x1="361.63" y1="63.37" x2="367.64" y2="57.35"/><line class="cls-3" x1="361.63" y1="73.98" x2="367.64" y2="67.97"/><line class="cls-3" x1="361.63" y1="84.6" x2="367.64" y2="78.6"/><line class="cls-3" x1="361.63" y1="95.23" x2="367.64" y2="89.22"/><line class="cls-3" x1="361.63" y1="105.85" x2="367.64" y2="99.83"/><line class="cls-3" x1="361.63" y1="116.46" x2="367.64" y2="110.47"/><line class="cls-3" x1="361.63" y1="127.09" x2="367.64" y2="121.08"/><line class="cls-3" x1="361.63" y1="137.71" x2="367.64" y2="131.7"/><line class="cls-3" x1="361.63" y1="148.34" x2="367.64" y2="142.33"/><line class="cls-3" x1="367.64" y1="149.84" x2="367.64" y2="47.31"/><line class="cls-3" x1="367.64" y1="41.32" x2="367.64" y2="19.16"/><line class="cls-3" x1="361.63" y1="19.16" x2="361.63" y2="149.84"/><line class="cls-3" x1="367.64" y1="19.16" x2="361.63" y2="19.16"/><line class="cls-3" x1="361.63" y1="149.84" x2="367.64" y2="149.84"/><line class="cls-3" x1="34.55" y1="100.74" x2="34.55" y2="94.73"/><line class="cls-3" x1="367.64" y1="46.74" x2="373.07" y2="41.32"/><line class="cls-3" x1="377.67" y1="47.31" x2="383.68" y2="41.32"/><line class="cls-3" x1="388.3" y1="47.31" x2="394.3" y2="41.32"/><line class="cls-3" x1="367.64" y1="47.31" x2="397.31" y2="47.31"/><line class="cls-3" x1="397.31" y1="41.32" x2="367.64" y2="41.32"/><line class="cls-3" x1="397.31" y1="47.31" x2="397.31" y2="41.32"/><line class="cls-3" x1="329.34" y1="392.43" x2="327.47" y2="392.43"/><line class="cls-3" x1="327.47" y1="383.41" x2="329.34" y2="383.41"/><line class="cls-3" x1="308.68" y1="602.71" x2="308.68" y2="593.71"/><line class="cls-3" x1="308.68" y1="602.71" x2="308.68" y2="593.71"/><line class="cls-3" x1="308.68" y1="602.71" x2="308.68" y2="593.71"/><line class="cls-3" x1="308.68" y1="602.71" x2="308.68" y2="593.71"/><line class="cls-3" x1="308.68" y1="602.71" x2="308.68" y2="593.71"/><line class="cls-3" x1="308.68" y1="602.71" x2="314.56" y2="593.71"/><line class="cls-3" x1="321.48" y1="602.71" x2="330.5" y2="593.71"/><line class="cls-3" x1="337.42" y1="602.71" x2="346.43" y2="593.71"/><line class="cls-3" x1="353.35" y1="602.71" x2="362.37" y2="593.71"/><line class="cls-3" x1="369.28" y1="602.71" x2="378.29" y2="593.71"/><line class="cls-3" x1="385.21" y1="602.71" x2="394.23" y2="593.71"/><line class="cls-3" x1="512.66" y1="602.71" x2="521.68" y2="593.71"/><line class="cls-3" x1="528.6" y1="602.71" x2="537.61" y2="593.71"/><line class="cls-3" x1="544.53" y1="602.71" x2="553.54" y2="593.71"/><line class="cls-3" x1="560.46" y1="602.71" x2="569.47" y2="593.71"/><line class="cls-3" x1="576.39" y1="602.71" x2="585.41" y2="593.71"/><line class="cls-3" x1="592.33" y1="602.71" x2="595.58" y2="599.46"/><line class="cls-3" x1="308.68" y1="602.71" x2="308.68" y2="593.71"/><line class="cls-3" x1="308.68" y1="602.71" x2="308.68" y2="593.71"/><line class="cls-3" x1="308.68" y1="602.71" x2="308.68" y2="593.71"/><line class="cls-3" x1="308.68" y1="602.71" x2="308.68" y2="593.71"/><line class="cls-3" x1="308.68" y1="602.71" x2="308.68" y2="593.71"/><line class="cls-3" x1="318" y1="602.71" x2="308.98" y2="593.71"/><line class="cls-3" x1="333.93" y1="602.71" x2="324.92" y2="593.71"/><line class="cls-3" x1="349.86" y1="602.71" x2="340.84" y2="593.71"/><line class="cls-3" x1="365.79" y1="602.71" x2="356.78" y2="593.71"/><line class="cls-3" x1="381.73" y1="602.71" x2="372.71" y2="593.71"/><line class="cls-3" x1="396.75" y1="601.81" x2="388.65" y2="593.71"/><line class="cls-3" x1="509.18" y1="602.71" x2="506.39" y2="599.92"/><line class="cls-3" x1="525.12" y1="602.71" x2="516.1" y2="593.71"/><line class="cls-3" x1="541.04" y1="602.71" x2="532.04" y2="593.71"/><line class="cls-3" x1="556.98" y1="602.71" x2="547.96" y2="593.71"/><line class="cls-3" x1="572.91" y1="602.71" x2="563.9" y2="593.71"/><line class="cls-3" x1="588.85" y1="602.71" x2="579.83" y2="593.71"/><line class="cls-3" x1="308.68" y1="602.71" x2="396.75" y2="602.71"/><polyline class="cls-3" points="396.75 607.98 396.75 593.71 308.68 593.71 308.68 607.98"/><polyline class="cls-3" points="586.57 593.71 506.39 593.71 506.39 602.71"/><line class="cls-3" x1="506.39" y1="602.71" x2="396.75" y2="602.71"/><line class="cls-3" x1="396.75" y1="593.71" x2="506.39" y2="593.71"/><line class="cls-3" x1="586.57" y1="257.97" x2="595.58" y2="248.95"/><line class="cls-3" x1="587.09" y1="273.38" x2="595.58" y2="264.89"/><line class="cls-3" x1="586.57" y1="401.36" x2="595.58" y2="392.34"/><line class="cls-3" x1="586.57" y1="417.29" x2="595.58" y2="408.28"/><line class="cls-3" x1="586.57" y1="433.23" x2="595.58" y2="424.21"/><line class="cls-3" x1="586.57" y1="449.15" x2="595.58" y2="440.15"/><line class="cls-3" x1="586.57" y1="465.09" x2="595.58" y2="456.07"/><line class="cls-3" x1="586.57" y1="481.01" x2="595.58" y2="472.01"/><line class="cls-3" x1="586.57" y1="496.95" x2="595.58" y2="487.93"/><line class="cls-3" x1="586.57" y1="512.88" x2="595.58" y2="503.87"/><line class="cls-3" x1="586.57" y1="528.82" x2="595.58" y2="519.8"/><line class="cls-3" x1="586.57" y1="544.74" x2="595.58" y2="535.74"/><line class="cls-3" x1="586.57" y1="560.68" x2="595.58" y2="551.66"/><line class="cls-3" x1="586.57" y1="576.6" x2="595.58" y2="567.6"/><line class="cls-3" x1="586.57" y1="592.54" x2="595.58" y2="583.52"/><line class="cls-3" x1="595.58" y1="593.52" x2="586.57" y2="584.52"/><line class="cls-3" x1="595.58" y1="577.6" x2="586.57" y2="568.58"/><line class="cls-3" x1="595.58" y1="561.66" x2="586.57" y2="552.65"/><line class="cls-3" x1="595.58" y1="545.73" x2="586.57" y2="536.71"/><line class="cls-3" x1="595.58" y1="529.79" x2="586.57" y2="520.79"/><line class="cls-3" x1="595.58" y1="513.87" x2="586.57" y2="504.85"/><line class="cls-3" x1="595.58" y1="497.93" x2="586.57" y2="488.93"/><line class="cls-3" x1="595.58" y1="482.01" x2="586.57" y2="472.99"/><line class="cls-3" x1="595.58" y1="466.07" x2="586.57" y2="457.05"/><line class="cls-3" x1="595.58" y1="450.13" x2="586.57" y2="441.12"/><line class="cls-3" x1="595.58" y1="434.2" x2="586.57" y2="425.19"/><line class="cls-3" x1="595.58" y1="418.27" x2="586.57" y2="409.26"/><line class="cls-3" x1="595.58" y1="402.34" x2="586.57" y2="393.32"/><line class="cls-3" x1="594.08" y1="273.38" x2="586.57" y2="265.87"/><line class="cls-3" x1="595.58" y1="258.95" x2="586.57" y2="249.94"/><line class="cls-3" x1="595.58" y1="602.71" x2="595.58" y2="391.29"/><polyline class="cls-3" points="600.84 391.29 586.57 391.29 586.57 593.71"/><line class="cls-3" x1="595.58" y1="273.38" x2="595.58" y2="253.48"/><line class="cls-3" x1="586.57" y1="273.38" x2="600.84" y2="273.38"/><line class="cls-3" x1="586.57" y1="327.47" x2="600.84" y2="327.47"/><line class="cls-3" x1="586.57" y1="391.29" x2="586.57" y2="387.91"/><line class="cls-3" x1="586.57" y1="330.08" x2="586.57" y2="327.84"/><line class="cls-3" x1="586.57" y1="323.32" x2="586.57" y2="275.26"/><line class="cls-3" x1="595.58" y1="248.95" x2="600.07" y2="244.46"/><line class="cls-3" x1="606.99" y1="253.48" x2="616.01" y2="244.46"/><line class="cls-3" x1="622.92" y1="253.48" x2="631.93" y2="244.46"/><line class="cls-3" x1="638.85" y1="253.48" x2="647.87" y2="244.46"/><line class="cls-3" x1="654.79" y1="253.48" x2="663.79" y2="244.46"/><line class="cls-3" x1="670.71" y1="253.48" x2="678.19" y2="246"/><line class="cls-3" x1="606.05" y1="253.48" x2="597.03" y2="244.46"/><line class="cls-3" x1="621.98" y1="253.48" x2="612.97" y2="244.46"/><line class="cls-3" x1="637.91" y1="253.48" x2="628.89" y2="244.46"/><line class="cls-3" x1="653.84" y1="253.48" x2="644.83" y2="244.46"/><line class="cls-3" x1="669.78" y1="253.48" x2="660.76" y2="244.46"/><line class="cls-3" x1="678.19" y1="245.97" x2="676.7" y2="244.46"/><polyline class="cls-3" points="595.58 253.48 678.19 253.48 678.19 244.46"/><line class="cls-3" x1="665.43" y1="244.46" x2="586.57" y2="244.46"/><line class="cls-3" x1="669.19" y1="0.38" x2="678.19" y2="0.38"/><line class="cls-3" x1="669.19" y1="16.04" x2="678.19" y2="7.02"/><line class="cls-3" x1="669.19" y1="31.97" x2="678.19" y2="22.96"/><line class="cls-3" x1="669.19" y1="47.9" x2="678.19" y2="38.88"/><line class="cls-3" x1="669.19" y1="63.83" x2="678.19" y2="54.82"/><line class="cls-3" x1="669.71" y1="79.23" x2="678.19" y2="70.75"/><line class="cls-3" x1="669.19" y1="191.28" x2="670.83" y2="189.64"/><line class="cls-3" x1="669.19" y1="207.22" x2="678.19" y2="198.2"/><line class="cls-3" x1="669.19" y1="223.14" x2="678.19" y2="214.14"/><line class="cls-3" x1="669.19" y1="239.08" x2="678.19" y2="230.06"/><line class="cls-3" x1="676.7" y1="244.46" x2="669.19" y2="236.97"/><line class="cls-3" x1="678.19" y1="230.05" x2="669.19" y2="221.03"/><line class="cls-3" x1="678.19" y1="214.11" x2="669.19" y2="205.09"/><line class="cls-3" x1="678.19" y1="198.17" x2="669.66" y2="189.64"/><line class="cls-3" x1="670.78" y1="79.23" x2="669.19" y2="77.64"/><line class="cls-3" x1="678.19" y1="70.72" x2="669.19" y2="61.71"/><line class="cls-3" x1="678.19" y1="54.79" x2="669.19" y2="45.77"/><line class="cls-3" x1="678.19" y1="38.86" x2="669.19" y2="29.85"/><line class="cls-3" x1="678.19" y1="22.93" x2="669.19" y2="13.91"/><line class="cls-3" x1="678.19" y1="6.99" x2="669.19" y2="0.38"/><line class="cls-3" x1="678.19" y1="0.38" x2="669.19" y2="0.38"/><polyline class="cls-3" points="678.19 189.64 669.19 189.64 669.19 244.46"/><polyline class="cls-3" points="669.19 0.38 669.19 79.23 683.46 79.23"/><line class="cls-3" x1="678.19" y1="244.46" x2="678.19" y2="189.64"/><line class="cls-3" x1="678.19" y1="79.23" x2="678.19" y2="0.38"/><line class="cls-3" x1="669.19" y1="189.64" x2="669.19" y2="79.23"/><line class="cls-3" x1="683.46" y1="79.23" x2="683.46" y2="0.38"/><line class="cls-3" x1="678.19" y1="189.27" x2="678.19" y2="189.64"/><polyline class="cls-3" points="683.46 258.36 683.46 189.27 678.19 189.27"/><line class="cls-3" x1="682.71" y1="78.49" x2="682.71" y2="0.38"/><polyline class="cls-3" points="682.71 257.99 682.71 190.02 678.19 190.02"/><line class="cls-3" x1="682.71" y1="78.49" x2="678.19" y2="78.49"/><line class="cls-3" x1="683.46" y1="79.23" x2="683.46" y2="189.27"/><line class="cls-3" x1="683.46" y1="258.36" x2="683.46" y2="258.73"/><polyline class="cls-3" points="600.84 258.73 608.35 258.73 608.35 258.36 683.46 258.36"/><line class="cls-3" x1="600.1" y1="257.99" x2="682.71" y2="257.99"/><line class="cls-3" x1="674.44" y1="258.73" x2="608.35" y2="258.73"/><line class="cls-3" x1="600.84" y1="273.38" x2="600.84" y2="258.73"/><line class="cls-3" x1="600.84" y1="607.98" x2="600.84" y2="391.29"/><line class="cls-3" x1="600.1" y1="607.22" x2="600.1" y2="392.04"/><polyline class="cls-3" points="595.58 272.63 600.1 272.63 600.1 257.99"/><line class="cls-3" x1="600.1" y1="392.04" x2="595.58" y2="392.04"/><line class="cls-3" x1="595.58" y1="391.29" x2="595.58" y2="273.38"/><line class="cls-3" x1="600.84" y1="273.38" x2="600.84" y2="391.29"/><line class="cls-3" x1="595.58" y1="602.71" x2="506.39" y2="602.71"/><polyline class="cls-3" points="506.78 602.71 506.78 607.98 600.84 607.98"/><line class="cls-3" x1="308.68" y1="607.98" x2="396.75" y2="607.98"/><line class="cls-3" x1="507.53" y1="607.22" x2="600.1" y2="607.22"/><line class="cls-3" x1="308.68" y1="607.22" x2="396" y2="607.22"/><line class="cls-3" x1="507.53" y1="602.71" x2="507.53" y2="607.22"/><line class="cls-3" x1="396" y1="607.22" x2="396" y2="602.71"/><line class="cls-3" x1="308.68" y1="602.71" x2="308.68" y2="607.22"/><line class="cls-3" x1="506.78" y1="607.98" x2="396.75" y2="607.98"/><line class="cls-3" x1="669.19" y1="77.74" x2="663.92" y2="77.74"/><line class="cls-3" x1="669.19" y1="191.15" x2="663.92" y2="191.15"/><line class="cls-3" x1="669.19" y1="77.74" x2="669.19" y2="80.37"/><line class="cls-3" x1="669.19" y1="191.15" x2="669.19" y2="188.52"/><line class="cls-3" x1="663.92" y1="77.74" x2="663.92" y2="80.37"/><line class="cls-3" x1="663.92" y1="191.15" x2="663.92" y2="188.52"/><line class="cls-3" x1="665.06" y1="125.43" x2="665.06" y2="88.25"/><line class="cls-3" x1="663.92" y1="79.23" x2="663.92" y2="82.24"/><polyline class="cls-3" points="663.92 79.23 669.19 79.23 669.19 85.25 667.68 85.25"/><polyline class="cls-3" points="663.92 131.44 663.92 134.44 669.19 134.44 669.19 128.43 667.68 128.43"/><polyline class="cls-3" points="667.68 88.25 662.43 88.25 662.43 82.24 667.68 82.24 667.68 88.25"/><polyline class="cls-3" points="667.68 125.43 662.43 125.43 662.43 131.44 667.68 131.44 667.68 125.43"/><line class="cls-3" x1="663.92" y1="140.44" x2="663.92" y2="134.45"/><line class="cls-3" x1="669.19" y1="134.45" x2="669.19" y2="140.44"/><line class="cls-3" x1="663.92" y1="183.63" x2="663.92" y2="189.64"/><line class="cls-3" x1="669.19" y1="189.64" x2="669.19" y2="183.63"/><line class="cls-3" x1="666.56" y1="183.63" x2="666.56" y2="140.44"/><line class="cls-3" x1="669.19" y1="140.44" x2="663.92" y2="140.44"/><line class="cls-3" x1="663.92" y1="134.45" x2="669.19" y2="134.45"/><line class="cls-3" x1="669.19" y1="183.63" x2="663.92" y2="183.63"/><line class="cls-3" x1="663.92" y1="189.64" x2="669.19" y2="189.64"/><line class="cls-3" x1="508.27" y1="593.71" x2="508.27" y2="588.44"/><line class="cls-3" x1="394.86" y1="593.71" x2="394.86" y2="588.44"/><line class="cls-3" x1="508.27" y1="593.71" x2="505.64" y2="593.71"/><line class="cls-3" x1="394.86" y1="593.71" x2="397.49" y2="593.71"/><line class="cls-3" x1="508.27" y1="588.44" x2="505.64" y2="588.44"/><line class="cls-3" x1="394.86" y1="588.44" x2="397.49" y2="588.44"/><line class="cls-3" x1="460.59" y1="589.58" x2="497.76" y2="589.58"/><line class="cls-3" x1="506.78" y1="588.44" x2="503.77" y2="588.44"/><polyline class="cls-3" points="506.78 588.44 506.78 593.71 500.77 593.71 500.77 592.2"/><polyline class="cls-3" points="454.57 588.44 451.57 588.44 451.57 593.71 457.58 593.71 457.58 592.2"/><polyline class="cls-3" points="497.76 592.2 497.76 586.95 503.77 586.95 503.77 592.2 497.76 592.2"/><polyline class="cls-3" points="460.59 592.2 460.59 586.95 454.57 586.95 454.57 592.2 460.59 592.2"/><line class="cls-3" x1="445.56" y1="588.44" x2="451.57" y2="588.44"/><line class="cls-3" x1="451.57" y1="593.71" x2="445.56" y2="593.71"/><line class="cls-3" x1="402.37" y1="588.44" x2="396.37" y2="588.44"/><line class="cls-3" x1="396.37" y1="593.71" x2="402.37" y2="593.71"/><line class="cls-3" x1="402.37" y1="591.08" x2="445.56" y2="591.08"/><line class="cls-3" x1="445.56" y1="593.71" x2="445.56" y2="588.44"/><line class="cls-3" x1="451.57" y1="588.44" x2="451.57" y2="593.71"/><line class="cls-3" x1="402.37" y1="593.71" x2="402.37" y2="588.44"/><line class="cls-3" x1="396.37" y1="588.44" x2="396.37" y2="593.71"/><line class="cls-3" x1="308.68" y1="593.71" x2="308.68" y2="588.44"/><line class="cls-3" x1="308.68" y1="593.71" x2="308.68" y2="593.71"/><line class="cls-3" x1="308.68" y1="588.44" x2="308.68" y2="588.44"/><line class="cls-3" x1="308.68" y1="588.44" x2="308.68" y2="588.44"/><polyline class="cls-3" points="308.68 588.44 308.68 593.71 308.68 593.71 308.68 592.2"/><polyline class="cls-3" points="308.68 592.2 308.68 586.95 308.68 586.95 308.68 592.2 308.68 592.2"/><line class="cls-3" x1="586.57" y1="324.83" x2="581.31" y2="324.83"/><line class="cls-3" x1="586.57" y1="393.18" x2="581.31" y2="393.18"/><line class="cls-3" x1="586.57" y1="324.83" x2="586.57" y2="327.47"/><line class="cls-3" x1="586.57" y1="393.18" x2="586.57" y2="390.55"/><line class="cls-3" x1="581.31" y1="324.83" x2="581.31" y2="327.47"/><line class="cls-3" x1="581.31" y1="393.18" x2="581.31" y2="390.55"/><line class="cls-3" x1="582.44" y1="382.66" x2="582.44" y2="335.35"/><line class="cls-3" x1="581.31" y1="326.33" x2="581.31" y2="329.34"/><polyline class="cls-3" points="581.31 326.33 586.57 326.33 586.57 332.34 585.06 332.34"/><polyline class="cls-3" points="581.31 388.68 581.31 391.67 586.57 391.67 586.57 385.67 585.06 385.67"/><polyline class="cls-3" points="585.06 335.35 579.81 335.35 579.81 329.34 585.06 329.34 585.06 335.35"/><polyline class="cls-3" points="585.06 382.66 579.81 382.66 579.81 388.68 585.06 388.68 585.06 382.66"/><polyline class="cls-3" points="586.57 330.08 586.57 387.91 589.19 387.91 589.19 330.08 586.57 330.08"/><line class="cls-3" x1="586.57" y1="327.84" x2="581.31" y2="327.84"/><line class="cls-3" x1="586.57" y1="270.76" x2="581.31" y2="270.76"/><line class="cls-3" x1="581.31" y1="272.26" x2="586.57" y2="272.26"/><line class="cls-3" x1="581.31" y1="326.33" x2="586.57" y2="326.33"/><polyline class="cls-3" points="586.57 327.84 586.57 323.32 584.32 323.32 584.32 324.83 581.31 324.83 581.31 327.84"/><polyline class="cls-3" points="581.31 270.76 581.31 273.77 584.32 273.77 584.32 275.26 586.57 275.26 586.57 270.76"/><polyline class="cls-3" points="555.77 317.99 558.38 319.5 583.91 275.26 581.31 273.77 555.77 317.99"/><polyline class="cls-3" points="385.12 259.5 385.12 256.89 333.09 226.84 331.58 229.45 385.12 259.5"/><polyline class="cls-3" points="329.34 224.19 329.34 229.45 331.58 229.45 331.58 226.44 332.33 226.44 332.33 224.19 329.34 224.19"/><polyline class="cls-3" points="396.93 224.19 393.94 224.19 393.94 226.44 394.69 226.44 394.69 229.45 396.93 229.45 396.93 224.19"/><polyline class="cls-3" points="265.71 178.78 304.74 156.25 306.23 158.86 267.21 181.38 265.71 178.78"/><polyline class="cls-3" points="308.49 158.86 306.23 158.86 306.23 155.85 305.49 155.85 305.49 153.59 308.49 153.59 308.49 158.86"/><polyline class="cls-3" points="258.93 153.59 258.93 155.85 258.18 155.85 258.18 158.86 255.92 158.86 255.92 153.59 258.93 153.59"/><polyline class="cls-3" points="399.94 158.86 399.94 161.85 402.18 161.85"/><polyline class="cls-3" points="407.45 161.85 407.45 158.86 406.33 158.86"/><line class="cls-3" x1="406.33" y1="158.86" x2="399.94" y2="158.86"/><polyline class="cls-3" points="433.73 174.15 431.13 172.65 404.85 218.18 407.45 219.68 433.73 174.15"/><polyline class="cls-3" points="402.18 221.94 407.45 221.94 407.45 219.68 404.44 219.68 404.44 218.93 402.18 218.93 402.18 221.94"/><polyline class="cls-3" points="402.18 161.86 402.18 164.86 404.44 164.86 404.44 164.1 407.45 164.1 407.45 161.86 402.18 161.86"/><polyline class="cls-3" points="39.8 0.38 39.8 0.38 37.56 0.38 37.56 0.38 34.55 0.38 34.55 0.38 39.8 0.38"/><polygon class="cls-3" points="0.38 33.29 34.55 92.47 37.16 90.97 2.98 31.78 0.38 33.29"/><polyline class="cls-3" points="34.55 94.73 34.55 92.47 37.56 92.47 37.56 91.72 39.8 91.72 39.8 94.73 34.55 94.73"/><polyline class="cls-3" points="39.8 22.34 37.56 22.34 37.56 21.6 34.55 21.6 34.55 19.34 39.8 19.34 39.8 22.34"/><line class="cls-3" x1="329.34" y1="240.71" x2="329.34" y2="571.17"/><polyline class="cls-3" points="600.84 598.96 674.44 598.96 674.44 258.73"/><polyline class="cls-3" points="678.94 607.98 683.46 607.98 683.46 603.46 678.94 603.46 678.94 607.98"/><line class="cls-3" x1="683.46" y1="258.36" x2="678.19" y2="258.36"/><line class="cls-3" x1="683.46" y1="376.28" x2="678.19" y2="376.28"/><line class="cls-3" x1="683.46" y1="258.36" x2="683.46" y2="260.99"/><line class="cls-3" x1="683.46" y1="376.28" x2="683.46" y2="373.64"/><line class="cls-3" x1="678.19" y1="258.36" x2="678.19" y2="260.99"/><line class="cls-3" x1="678.19" y1="376.28" x2="678.19" y2="373.64"/><line class="cls-3" x1="678.19" y1="265.87" x2="678.19" y2="259.87"/><line class="cls-3" x1="683.46" y1="259.87" x2="683.46" y2="265.87"/><line class="cls-3" x1="678.19" y1="310.94" x2="678.19" y2="316.95"/><line class="cls-3" x1="683.46" y1="316.95" x2="683.46" y2="310.94"/><line class="cls-3" x1="680.83" y1="310.94" x2="680.83" y2="265.87"/><line class="cls-3" x1="683.46" y1="265.87" x2="678.19" y2="265.87"/><line class="cls-3" x1="678.19" y1="259.87" x2="683.46" y2="259.87"/><line class="cls-3" x1="683.46" y1="310.94" x2="678.19" y2="310.94"/><line class="cls-3" x1="678.19" y1="316.95" x2="683.46" y2="316.95"/><line class="cls-3" x1="679.33" y1="365.76" x2="679.33" y2="325.96"/><line class="cls-3" x1="678.19" y1="316.95" x2="678.19" y2="319.94"/><polyline class="cls-3" points="678.19 316.95 683.46 316.95 683.46 322.95 681.95 322.95"/><polyline class="cls-3" points="678.19 371.77 678.19 374.78 683.46 374.78 683.46 368.77 681.95 368.77"/><polyline class="cls-3" points="681.95 325.96 676.7 325.96 676.7 319.94 681.95 319.94 681.95 325.96"/><polyline class="cls-3" points="681.95 365.76 676.7 365.76 676.7 371.77 681.95 371.77 681.95 365.76"/><line class="cls-3" x1="683.46" y1="373.27" x2="678.19" y2="373.27"/><line class="cls-3" x1="683.46" y1="490.44" x2="678.19" y2="490.44"/><line class="cls-3" x1="683.46" y1="373.27" x2="683.46" y2="375.9"/><line class="cls-3" x1="683.46" y1="490.44" x2="683.46" y2="487.8"/><line class="cls-3" x1="678.19" y1="373.27" x2="678.19" y2="375.9"/><line class="cls-3" x1="678.19" y1="490.44" x2="678.19" y2="487.8"/><line class="cls-3" x1="678.19" y1="380.78" x2="678.19" y2="374.78"/><line class="cls-3" x1="683.46" y1="374.78" x2="683.46" y2="380.78"/><line class="cls-3" x1="678.19" y1="425.85" x2="678.19" y2="431.86"/><line class="cls-3" x1="683.46" y1="431.86" x2="683.46" y2="425.85"/><line class="cls-3" x1="680.83" y1="425.85" x2="680.83" y2="380.78"/><line class="cls-3" x1="683.46" y1="380.78" x2="678.19" y2="380.78"/><line class="cls-3" x1="678.19" y1="374.78" x2="683.46" y2="374.78"/><line class="cls-3" x1="683.46" y1="425.85" x2="678.19" y2="425.85"/><line class="cls-3" x1="678.19" y1="431.86" x2="683.46" y2="431.86"/><line class="cls-3" x1="679.33" y1="479.92" x2="679.33" y2="440.87"/><line class="cls-3" x1="678.19" y1="431.86" x2="678.19" y2="434.85"/><polyline class="cls-3" points="678.19 431.86 683.46 431.86 683.46 437.86 681.95 437.86"/><polyline class="cls-3" points="678.19 485.93 678.19 488.93 683.46 488.93 683.46 482.93 681.95 482.93"/><polyline class="cls-3" points="681.95 440.87 676.7 440.87 676.7 434.85 681.95 434.85 681.95 440.87"/><polyline class="cls-3" points="681.95 479.92 676.7 479.92 676.7 485.93 681.95 485.93 681.95 479.92"/><line class="cls-3" x1="683.46" y1="487.43" x2="678.19" y2="487.43"/><line class="cls-3" x1="683.46" y1="604.6" x2="678.19" y2="604.6"/><line class="cls-3" x1="683.46" y1="487.43" x2="683.46" y2="490.06"/><line class="cls-3" x1="683.46" y1="604.6" x2="683.46" y2="601.97"/><line class="cls-3" x1="678.19" y1="487.43" x2="678.19" y2="490.06"/><line class="cls-3" x1="678.19" y1="604.6" x2="678.19" y2="601.97"/><line class="cls-3" x1="678.19" y1="494.94" x2="678.19" y2="488.93"/><line class="cls-3" x1="683.46" y1="488.93" x2="683.46" y2="494.94"/><line class="cls-3" x1="678.19" y1="540.01" x2="678.19" y2="546.01"/><line class="cls-3" x1="683.46" y1="546.01" x2="683.46" y2="540.01"/><line class="cls-3" x1="680.83" y1="540.01" x2="680.83" y2="494.94"/><line class="cls-3" x1="683.46" y1="494.94" x2="678.19" y2="494.94"/><line class="cls-3" x1="678.19" y1="488.93" x2="683.46" y2="488.93"/><line class="cls-3" x1="683.46" y1="540.01" x2="678.19" y2="540.01"/><line class="cls-3" x1="678.19" y1="546.01" x2="683.46" y2="546.01"/><line class="cls-3" x1="679.33" y1="594.08" x2="679.33" y2="555.03"/><line class="cls-3" x1="678.19" y1="546.01" x2="678.19" y2="549.01"/><polyline class="cls-3" points="678.19 546.01 683.46 546.01 683.46 552.02 681.95 552.02"/><polyline class="cls-3" points="678.19 600.08 678.19 603.09 683.46 603.09 683.46 597.09 681.95 597.09"/><polyline class="cls-3" points="681.95 555.03 676.7 555.03 676.7 549.01 681.95 549.01 681.95 555.03"/><polyline class="cls-3" points="681.95 594.08 676.7 594.08 676.7 600.08 681.95 600.08 681.95 594.08"/><line class="cls-3" x1="599.33" y1="607.98" x2="599.33" y2="602.71"/><line class="cls-3" x1="680.45" y1="607.98" x2="680.45" y2="602.71"/><line class="cls-3" x1="599.33" y1="607.98" x2="601.97" y2="607.98"/><line class="cls-3" x1="680.45" y1="607.98" x2="677.82" y2="607.98"/><line class="cls-3" x1="599.33" y1="602.71" x2="601.97" y2="602.71"/><line class="cls-3" x1="680.45" y1="602.71" x2="677.82" y2="602.71"/><line class="cls-3" x1="631.63" y1="603.84" x2="609.85" y2="603.84"/><line class="cls-3" x1="600.84" y1="602.71" x2="603.85" y2="602.71"/><polyline class="cls-3" points="600.84 602.71 600.84 607.98 606.84 607.98 606.84 606.47"/><polyline class="cls-3" points="637.64 602.71 640.65 602.71 640.65 607.98 634.63 607.98 634.63 606.47"/><polyline class="cls-3" points="609.85 606.47 609.85 601.22 603.85 601.22 603.85 606.47 609.85 606.47"/><polyline class="cls-3" points="631.63 606.47 631.63 601.22 637.64 601.22 637.64 606.47 631.63 606.47"/><line class="cls-3" x1="646.65" y1="602.71" x2="640.65" y2="602.71"/><line class="cls-3" x1="640.65" y1="607.98" x2="646.65" y2="607.98"/><line class="cls-3" x1="672.94" y1="602.71" x2="678.94" y2="602.71"/><line class="cls-3" x1="678.94" y1="607.98" x2="672.94" y2="607.98"/><line class="cls-3" x1="672.94" y1="605.35" x2="646.65" y2="605.35"/><line class="cls-3" x1="646.65" y1="607.98" x2="646.65" y2="602.71"/><line class="cls-3" x1="640.65" y1="602.71" x2="640.65" y2="607.98"/><line class="cls-3" x1="672.94" y1="607.98" x2="672.94" y2="602.71"/><line class="cls-3" x1="678.94" y1="602.71" x2="678.94" y2="603.46"/><path class="cls-3" d="M189.59,31.27a3.35,3.35,0,0,0,1.93,6.08"/><path class="cls-3" d="M191.52,37.35a3.35,3.35,0,0,0,1.93-6.08"/><polyline class="cls-3" points="163.36 148.34 219.69 148.34 219.69 20.66 193.43 20.66"/><polyline class="cls-3" points="189.61 20.66 163.36 20.66 163.36 148.34"/><line class="cls-3" x1="215.87" y1="32.11" x2="215.87" y2="118.2"/><path class="cls-3" d="M167.17,118.2a24.35,24.35,0,0,0,48.7,0"/><line class="cls-3" x1="167.17" y1="118.2" x2="167.17" y2="32.11"/><path class="cls-3" d="M174.8,24.47a7.64,7.64,0,0,0-7.63,7.63"/><line class="cls-3" x1="174.81" y1="24.47" x2="178.16" y2="24.47"/><line class="cls-3" x1="181.99" y1="24.47" x2="189.61" y2="24.47"/><line class="cls-3" x1="193.42" y1="24.47" x2="201.06" y2="24.47"/><line class="cls-3" x1="204.92" y1="24.47" x2="208.24" y2="24.47"/><path class="cls-3" d="M215.87,32.1a7.64,7.64,0,0,0-7.64-7.63"/><path class="cls-3" d="M189.59,31.27a3.35,3.35,0,0,0,1.93,6.08"/><path class="cls-3" d="M191.52,37.35a3.35,3.35,0,0,0,1.93-6.08"/><path class="cls-3" d="M169.07,108.63a22.45,22.45,0,1,0,44.9,0"/><line class="cls-3" x1="169.09" y1="32.11" x2="169.09" y2="108.64"/><path class="cls-3" d="M174.8,26.38a5.72,5.72,0,0,0-5.71,5.72"/><line class="cls-3" x1="208.24" y1="26.38" x2="193.42" y2="26.38"/><line class="cls-3" x1="189.61" y1="26.38" x2="174.81" y2="26.38"/><path class="cls-3" d="M214,32.1a5.72,5.72,0,0,0-5.72-5.72"/><line class="cls-3" x1="213.97" y1="108.64" x2="213.97" y2="32.11"/><line class="cls-3" x1="189.61" y1="32.11" x2="189.61" y2="20.66"/><polyline class="cls-3" points="189.61 20.66 193.43 20.66 193.43 32.11 189.61 32.11"/><line class="cls-3" x1="201.06" y1="21.61" x2="201.06" y2="25.43"/><line class="cls-3" x1="204.88" y1="25.43" x2="204.88" y2="21.61"/><line class="cls-3" x1="178.16" y1="21.61" x2="178.16" y2="25.43"/><line class="cls-3" x1="181.99" y1="25.43" x2="181.99" y2="21.61"/><line class="cls-3" x1="204.88" y1="25.43" x2="201.06" y2="25.43"/><line class="cls-3" x1="181.99" y1="25.43" x2="178.16" y2="25.43"/><line class="cls-3" x1="201.06" y1="21.61" x2="204.88" y2="21.61"/><line class="cls-3" x1="178.16" y1="21.61" x2="181.99" y2="21.61"/><path class="cls-3" d="M238.15,30.59a1.43,1.43,0,0,0,2.86,0"/><path class="cls-3" d="M241,30.59a1.42,1.42,0,0,0-.42-1"/><path class="cls-3" d="M238.57,29.58a1.42,1.42,0,0,0-.42,1"/><polyline class="cls-3" points="220.44 19.16 220.44 49.52 224.25 53.33 254.92 53.33 258.73 49.52 258.73 19.16"/><polyline class="cls-3" points="253.37 49.52 225.81 49.52 224.25 48.02 224.25 27.74 238.64 27.74"/><polyline class="cls-3" points="240.54 27.74 254.92 27.74 254.92 48.02 253.37 49.52"/><path class="cls-3" d="M241,30.59a1.42,1.42,0,0,0-.42-1"/><path class="cls-3" d="M238.57,29.58a1.42,1.42,0,0,0-.42,1"/><path class="cls-3" d="M238.15,30.59a1.43,1.43,0,0,0,2.86,0"/><path class="cls-3" d="M234.34,23.2a1.43,1.43,0,0,0,2.86,0"/><path class="cls-3" d="M237.2,23.2a1.43,1.43,0,1,0-2.86,0"/><polyline class="cls-3" points="240.54 25.12 240.54 31.62 238.64 31.62 238.64 25.12 240.54 25.12"/><path class="cls-3" d="M242,23.2a1.43,1.43,0,0,0,2.86,0"/><path class="cls-3" d="M244.82,23.2a1.43,1.43,0,1,0-2.86,0"/><polyline class="cls-3" points="233.86 25.12 245.31 25.12 245.31 21.31 233.86 21.31 233.86 25.12"/><line class="cls-3" x1="294.35" y1="31.92" x2="294.04" y2="31.92"/><line class="cls-3" x1="294.04" y1="20.66" x2="294.35" y2="20.66"/><path class="cls-3" d="M292.52,30.42a1.51,1.51,0,0,0,1.51,1.5"/><line class="cls-3" x1="294.04" y1="31.92" x2="323.32" y2="31.92"/><path class="cls-3" d="M323.32,31.92a1.5,1.5,0,0,0,1.5-1.5"/><line class="cls-3" x1="324.83" y1="30.43" x2="324.83" y2="22.15"/><path class="cls-3" d="M324.82,22.15a1.51,1.51,0,0,0-1.5-1.51"/><line class="cls-3" x1="323.32" y1="20.66" x2="294.04" y2="20.66"/><path class="cls-3" d="M294,20.64a1.52,1.52,0,0,0-1.51,1.51"/><line class="cls-3" x1="292.54" y1="22.15" x2="292.54" y2="30.43"/><path class="cls-3" d="M294,20.64a1.09,1.09,0,0,0-.26,0"/><path class="cls-3" d="M293.51,20.73a1.5,1.5,0,0,0-.45.27"/><path class="cls-3" d="M292.88,21.18a1.46,1.46,0,0,0-.26.45"/><path class="cls-3" d="M292.55,21.89a1.09,1.09,0,0,0,0,.26"/><path class="cls-3" d="M324.82,22.15a2.11,2.11,0,0,0,0-.26"/><path class="cls-3" d="M324.73,21.63a1.7,1.7,0,0,0-.26-.45"/><path class="cls-3" d="M324.28,21a1.29,1.29,0,0,0-.45-.27"/><path class="cls-3" d="M323.58,20.67l-.26,0"/><path class="cls-3" d="M323.32,31.92l.26,0"/><path class="cls-3" d="M323.83,31.83a1.43,1.43,0,0,0,.45-.26"/><path class="cls-3" d="M324.47,31.39a1.61,1.61,0,0,0,.26-.46"/><path class="cls-3" d="M324.8,30.68a2.28,2.28,0,0,0,0-.26"/><path class="cls-3" d="M292.52,30.42a1.15,1.15,0,0,0,0,.26"/><path class="cls-3" d="M292.62,30.93a1.4,1.4,0,0,0,.26.46"/><path class="cls-3" d="M293.06,31.57a1.7,1.7,0,0,0,.45.26"/><path class="cls-3" d="M293.77,31.9l.26,0"/><polyline class="cls-3" points="297.73 34.55 298.87 34.55 318.5 34.55 319.63 34.55"/><path class="cls-3" d="M321.07,53.69a72.46,72.46,0,0,0-2.58-19.15"/><path class="cls-3" d="M322.2,53.69a72.45,72.45,0,0,0-2.57-19.15"/><path class="cls-3" d="M308.67,66.09a12.4,12.4,0,0,0,12.4-12.4"/><path class="cls-3" d="M308.67,67.21a13.52,13.52,0,0,0,13.52-13.52"/><path class="cls-3" d="M296.28,53.69a12.4,12.4,0,0,0,12.39,12.4"/><path class="cls-3" d="M295.16,53.69a13.51,13.51,0,0,0,13.51,13.52"/><path class="cls-3" d="M298.85,34.54a72.86,72.86,0,0,0-2.57,19.15"/><path class="cls-3" d="M297.73,34.54a72.45,72.45,0,0,0-2.57,19.15"/><line class="cls-3" x1="293.29" y1="22.54" x2="293.29" y2="30.05"/><line class="cls-3" x1="292.54" y1="30.43" x2="292.54" y2="22.15"/><path class="cls-3" d="M294.4,21.41a1.13,1.13,0,0,0-1.13,1.13"/><path class="cls-3" d="M294,20.64a1.52,1.52,0,0,0-1.51,1.51"/><line class="cls-3" x1="322.95" y1="21.41" x2="294.41" y2="21.41"/><line class="cls-3" x1="294.04" y1="20.66" x2="323.32" y2="20.66"/><path class="cls-3" d="M324.07,22.54a1.12,1.12,0,0,0-1.13-1.13"/><path class="cls-3" d="M324.82,22.15a1.51,1.51,0,0,0-1.5-1.51"/><line class="cls-3" x1="324.09" y1="30.05" x2="324.09" y2="22.54"/><line class="cls-3" x1="324.83" y1="22.15" x2="324.83" y2="30.43"/><path class="cls-3" d="M322.94,31.17A1.12,1.12,0,0,0,324.07,30"/><path class="cls-3" d="M323.32,31.92a1.5,1.5,0,0,0,1.5-1.5"/><line class="cls-3" x1="294.41" y1="31.17" x2="322.95" y2="31.17"/><line class="cls-3" x1="323.32" y1="31.92" x2="294.04" y2="31.92"/><path class="cls-3" d="M293.27,30a1.13,1.13,0,0,0,1.13,1.13"/><path class="cls-3" d="M292.52,30.42a1.51,1.51,0,0,0,1.51,1.5"/><polyline class="cls-3" points="319.63 34.55 320.35 37.37 320.94 40.21 321.43 43.07 321.78 45.95 322.04 48.84 322.17 51.73 322.2 53.7 322.19 54.25 322.16 54.78 322.1 55.33 322.03 55.86 321.93 56.39 321.81 56.92 321.67 57.44 321.51 57.96 321.34 58.46 321.14 58.97 320.92 59.47 320.68 59.94 320.42 60.42 320.14 60.88 319.84 61.34 319.53 61.77 319.19 62.2 318.85 62.62 318.49 63.02 318.1 63.4 317.71 63.77 317.3 64.13 316.88 64.46 316.43 64.78 315.99 65.08 315.53 65.37 315.05 65.63 314.58 65.87 314.09 66.1 313.58 66.3 313.08 66.49 312.56 66.66 312.05 66.81 311.51 66.92 310.98 67.02 310.45 67.11 309.92 67.17 309.37 67.21 308.82 67.22 308.68 67.22 308.15 67.21 307.6 67.18 307.07 67.12 306.54 67.05 306 66.95 305.47 66.83 304.95 66.69 304.44 66.53 303.92 66.36 303.42 66.16 302.93 65.94 302.44 65.7 301.96 65.44 301.5 65.15 301.06 64.86 300.61 64.55 300.18 64.22 299.77 63.87 299.37 63.5 298.98 63.12 298.62 62.73 298.26 62.32 297.93 61.9 297.6 61.45 297.31 61.01 297.03 60.55 296.75 60.07 296.51 59.6 296.29 59.11 296.08 58.61 295.91 58.1 295.73 57.59 295.59 57.05 295.46 56.53 295.36 56 295.29 55.47 295.21 54.92 295.19 54.39 295.17 53.84 295.17 53.7 295.23 50.81 295.4 47.9 295.69 45.03 296.09 42.15 296.61 39.29 297.24 36.45 297.73 34.55"/><path class="cls-3" d="M308.67,67.21a13.52,13.52,0,0,0,13.52-13.52"/><path class="cls-3" d="M322.2,53.69a72.45,72.45,0,0,0-2.57-19.15"/><line class="cls-3" x1="319.57" y1="34.55" x2="319.01" y2="31.92"/><line class="cls-3" x1="298.37" y1="31.92" x2="297.79" y2="34.55"/><path class="cls-3" d="M297.73,34.54a72.45,72.45,0,0,0-2.57,19.15"/><path class="cls-3" d="M295.16,53.69a13.51,13.51,0,0,0,13.51,13.52"/><path class="cls-3" d="M427.42,30.59a1.43,1.43,0,0,0,2.86,0"/><path class="cls-3" d="M430.28,30.59a1.42,1.42,0,0,0-.42-1"/><path class="cls-3" d="M427.83,29.58a1.46,1.46,0,0,0-.41,1"/><polyline class="cls-3" points="406.33 60.41 410.14 64.22 447.57 64.22 451.38 60.41 451.38 19.16"/><polyline class="cls-3" points="446.02 60.41 411.69 60.41 410.14 58.91 410.14 27.74 427.89 27.74"/><polyline class="cls-3" points="429.8 27.74 447.57 27.74 447.57 58.91 446.02 60.41"/><path class="cls-3" d="M430.28,30.59a1.42,1.42,0,0,0-.42-1"/><path class="cls-3" d="M427.83,29.58a1.46,1.46,0,0,0-.41,1"/><path class="cls-3" d="M427.42,30.59a1.43,1.43,0,0,0,2.86,0"/><path class="cls-3" d="M423.6,23.2a1.44,1.44,0,0,0,2.87,0"/><path class="cls-3" d="M426.47,23.2a1.44,1.44,0,0,0-2.87,0"/><polyline class="cls-3" points="429.8 25.12 429.8 31.62 427.89 31.62 427.89 25.12 429.8 25.12"/><path class="cls-3" d="M431.23,23.2a1.43,1.43,0,0,0,2.86,0"/><path class="cls-3" d="M434.09,23.2a1.43,1.43,0,0,0-2.86,0"/><polyline class="cls-3" points="423.13 25.12 434.58 25.12 434.58 21.31 423.13 21.31 423.13 25.12"/><line class="cls-3" x1="630.65" y1="19.16" x2="630.65" y2="68.76"/><polyline class="cls-3" points="630.65 68.76 573.42 68.76 573.42 19.16"/><path class="cls-3" d="M577.54,34.62A7.63,7.63,0,0,0,592,35.2"/><line class="cls-3" x1="592.01" y1="35.2" x2="591.78" y2="35.13"/><path class="cls-3" d="M577.77,34.56a7.39,7.39,0,0,0,14,.56"/><line class="cls-3" x1="577.77" y1="34.57" x2="577.54" y2="34.63"/><path class="cls-3" d="M591.94,29.63a7.63,7.63,0,0,0-14.4.75"/><line class="cls-3" x1="577.54" y1="30.38" x2="577.77" y2="30.45"/><path class="cls-3" d="M591.71,29.72a7.38,7.38,0,0,0-13.93.72"/><line class="cls-3" x1="591.72" y1="29.72" x2="591.94" y2="29.63"/><path class="cls-3" d="M608.09,32.4a7.16,7.16,0,1,0,14.32,0"/><path class="cls-3" d="M622.41,32.4a7.16,7.16,0,0,0-14.32,0"/><path class="cls-3" d="M609.24,51.9a5.72,5.72,0,0,0,11.44,0"/><path class="cls-3" d="M620.68,51.9a5.72,5.72,0,1,0-11.44,0"/><path class="cls-3" d="M580.11,52a5.72,5.72,0,0,0,11.44,0"/><path class="cls-3" d="M591.55,52a5.72,5.72,0,1,0-11.44,0"/><line class="cls-3" x1="607.79" y1="49.3" x2="608.02" y2="49.37"/><path class="cls-3" d="M621.78,49.05a7.39,7.39,0,0,0-13.76.32"/><line class="cls-3" x1="621.79" y1="49.07" x2="622" y2="48.97"/><path class="cls-3" d="M622,49a7.64,7.64,0,0,0-14.22.32"/><line class="cls-3" x1="622.22" y1="54.28" x2="621.99" y2="54.2"/><path class="cls-3" d="M607.69,53.18a7.39,7.39,0,0,0,14.3,1"/><line class="cls-3" x1="607.69" y1="53.2" x2="607.45" y2="53.24"/><path class="cls-3" d="M607.45,53.22a7.63,7.63,0,0,0,14.77,1"/><path class="cls-3" d="M580.34,52a5.49,5.49,0,0,0,11,0"/><path class="cls-3" d="M591.32,52a5.49,5.49,0,0,0-11,0"/><path class="cls-3" d="M608.4,32.4a6.85,6.85,0,1,0,13.7,0"/><path class="cls-3" d="M622.1,32.4a6.85,6.85,0,1,0-13.7,0"/><path class="cls-3" d="M609.47,51.9a5.49,5.49,0,0,0,11,0"/><path class="cls-3" d="M620.45,51.9a5.49,5.49,0,1,0-11,0"/><path class="cls-3" d="M573.89,19.15a.48.48,0,0,0-.48.48"/><line class="cls-3" x1="573.43" y1="19.64" x2="573.43" y2="63.45"/><path class="cls-3" d="M573.41,63.45a.49.49,0,0,0,.48.48"/><line class="cls-3" x1="573.9" y1="63.93" x2="630.18" y2="63.93"/><path class="cls-3" d="M630.17,63.93a.49.49,0,0,0,.48-.48"/><line class="cls-3" x1="630.65" y1="63.45" x2="630.65" y2="19.64"/><path class="cls-3" d="M630.65,19.63a.48.48,0,0,0-.48-.48"/><line class="cls-3" x1="605.62" y1="67.93" x2="596.08" y2="67.93"/><polyline class="cls-3" points="575.34 65.41 575.34 64.63 575.34 64.25"/><polyline class="cls-3" points="628.75 64.25 628.75 64.63 628.75 65.41"/><line class="cls-3" x1="628.75" y1="69.04" x2="575.34" y2="69.04"/><polyline class="cls-3" points="596.08 65.17 605.62 65.17 605.78 65.18 605.91 65.22 606.04 65.28 606.15 65.37 606.22 65.45 606.28 65.57 606.3 65.68 606.3 67.51 606.28 67.63 606.22 67.74 606.15 67.83 606.04 67.91 605.91 67.97 605.78 68.01 605.62 68.03 596.08 68.03 595.94 68.01 595.79 67.97 595.66 67.91 595.55 67.83 595.48 67.74 595.42 67.63 595.41 67.51 595.41 65.68 595.42 65.57 595.48 65.45 595.55 65.37 595.66 65.28 595.79 65.22 595.94 65.18 596.08 65.17"/><line class="cls-3" x1="628.75" y1="64.63" x2="575.34" y2="64.63"/><line class="cls-3" x1="628.75" y1="64.25" x2="575.34" y2="64.25"/><line class="cls-3" x1="622.16" y1="65.83" x2="622.16" y2="67.51"/><line class="cls-3" x1="622.85" y1="67.51" x2="622.85" y2="65.83"/><path class="cls-3" d="M622.29,68.48a.27.27,0,0,0,.24.11.28.28,0,0,0,.24-.11"/><path class="cls-3" d="M622.2,68a3.12,3.12,0,0,0,.09.44"/><path class="cls-3" d="M622.76,68.47l.06-.45"/><path class="cls-3" d="M622.76,66.79l0-.24"/><path class="cls-3" d="M622.21,66.4c0,.13,0,.26.08.39"/><path class="cls-3" d="M622.29,66.79a.29.29,0,0,0,.24.1.3.3,0,0,0,.24-.1"/><line class="cls-3" x1="622.77" y1="68.49" x2="622.77" y2="66.79"/><line class="cls-3" x1="622.29" y1="66.79" x2="622.29" y2="68.49"/><line class="cls-3" x1="615.96" y1="65.83" x2="615.96" y2="67.53"/><line class="cls-3" x1="616.65" y1="67.53" x2="616.65" y2="65.83"/><path class="cls-3" d="M616.09,68.5a.29.29,0,0,0,.24.1.3.3,0,0,0,.24-.1"/><path class="cls-3" d="M616,68a3.89,3.89,0,0,0,.09.47"/><path class="cls-3" d="M616.56,68.49l.06-.47"/><path class="cls-3" d="M616.56,66.79l0-.25"/><path class="cls-3" d="M616,66.38c0,.14,0,.28.08.41"/><path class="cls-3" d="M616.09,66.8a.29.29,0,0,0,.24.11.31.31,0,0,0,.24-.11"/><line class="cls-3" x1="616.57" y1="68.5" x2="616.57" y2="66.81"/><line class="cls-3" x1="616.09" y1="66.81" x2="616.09" y2="68.5"/><line class="cls-3" x1="587.35" y1="65.89" x2="587.35" y2="67.57"/><line class="cls-3" x1="588.04" y1="67.57" x2="588.04" y2="65.89"/><path class="cls-3" d="M587.47,68.54a.27.27,0,0,0,.23.11.29.29,0,0,0,.24-.11"/><path class="cls-3" d="M587.38,68a3.1,3.1,0,0,0,.1.53"/><path class="cls-3" d="M588,68.53,588,68"/><path class="cls-3" d="M588,66.85c0-.15,0-.3,0-.44"/><path class="cls-3" d="M587.4,66.5c0,.12.05.23.08.35"/><path class="cls-3" d="M587.47,66.84a.25.25,0,0,0,.23.11.27.27,0,0,0,.24-.11"/><line class="cls-3" x1="587.95" y1="68.55" x2="587.95" y2="66.85"/><line class="cls-3" x1="587.48" y1="66.85" x2="587.48" y2="68.55"/><line class="cls-3" x1="581.15" y1="65.89" x2="581.15" y2="67.58"/><line class="cls-3" x1="581.84" y1="67.58" x2="581.84" y2="65.89"/><path class="cls-3" d="M581.27,68.55a.25.25,0,0,0,.23.11.27.27,0,0,0,.24-.11"/><path class="cls-3" d="M581.18,68a3.51,3.51,0,0,0,.1.53"/><path class="cls-3" d="M581.75,68.55l.06-.51"/><path class="cls-3" d="M581.75,66.85c0-.15,0-.3,0-.44"/><path class="cls-3" d="M581.2,66.5c0,.12,0,.23.08.35"/><path class="cls-3" d="M581.27,66.86a.27.27,0,0,0,.23.1.29.29,0,0,0,.24-.1"/><line class="cls-3" x1="581.75" y1="68.56" x2="581.75" y2="66.86"/><line class="cls-3" x1="581.28" y1="66.86" x2="581.28" y2="68.56"/><polyline class="cls-3" points="617.66 66.26 617.62 66.22 617.57 66.17 617.53 66.13 617.49 66.09 617.44 66.06 617.4 66.02 617.36 65.99 617.3 65.94 617.26 65.91 617.2 65.89 617.16 65.86 617.1 65.83 617.04 65.81 616.98 65.78 616.94 65.77 616.88 65.74 616.83 65.73 616.77 65.71 616.71 65.7 616.65 65.7 616.6 65.68 616.54 65.67 616.47 65.67 616.41 65.67 616.35 65.67 616.32 65.67 616.26 65.67 616.19 65.67 616.13 65.67 616.08 65.68 616.02 65.68 615.96 65.7 615.9 65.71 615.85 65.73 615.79 65.74 615.73 65.76 615.67 65.77 615.62 65.8 615.57 65.81 615.52 65.84 615.46 65.87 615.42 65.9 615.36 65.93 615.32 65.96 615.26 65.99 615.22 66.03 615.17 66.07 615.13 66.1 615.09 66.14 615.04 66.19 615 66.23 614.97 66.26"/><polyline class="cls-3" points="614.9 67.41 614.94 67.47 614.98 67.53 615.03 67.57 615.07 67.63 615.11 67.67 615.16 67.73 615.22 67.77 615.26 67.81 615.32 67.84 615.36 67.89 615.42 67.91 615.46 67.94 615.52 67.97 615.56 68 615.62 68.03 615.67 68.04 615.72 68.07 615.78 68.09 615.83 68.1 615.88 68.11 615.93 68.13 615.99 68.14 616.05 68.16 616.09 68.16 616.15 68.16 616.21 68.17 616.25 68.17 616.31 68.17 616.32 68.17 616.37 68.17 616.42 68.17 616.48 68.17 616.52 68.16 616.58 68.16 616.64 68.14 616.7 68.13 616.74 68.11 616.8 68.1 616.85 68.09 616.9 68.07 616.96 68.06 617.01 68.03 617.06 68 617.11 67.99 617.16 67.96 617.21 67.91 617.27 67.89 617.32 67.86 617.37 67.81 617.41 67.77 617.46 67.73 617.52 67.68 617.56 67.64 617.6 67.58 617.65 67.53 617.69 67.47 617.73 67.41"/><path class="cls-3" d="M616.32,65.67h-.22"/><path class="cls-3" d="M616.53,65.68h-.21"/><path class="cls-3" d="M616.32,65.68a1.71,1.71,0,0,0-1.39.63,1,1,0,0,0,.06,1.22"/><path class="cls-3" d="M617.64,67.53a1,1,0,0,0,.06-1.22,1.7,1.7,0,0,0-1.38-.63"/><polyline class="cls-3" points="623.86 66.27 623.82 66.23 623.77 66.19 623.73 66.14 623.69 66.1 623.64 66.06 623.6 66.03 623.56 65.99 623.5 65.96 623.46 65.93 623.4 65.9 623.36 65.87 623.3 65.84 623.24 65.81 623.18 65.8 623.14 65.77 623.08 65.76 623.03 65.74 622.97 65.73 622.91 65.71 622.85 65.7 622.79 65.7 622.74 65.68 622.67 65.68 622.61 65.67 622.55 65.67 622.52 65.67 622.47 65.67 622.39 65.67 622.34 65.68 622.28 65.68 622.22 65.7 622.16 65.71 622.11 65.71 622.05 65.73 621.99 65.74 621.93 65.77 621.88 65.78 621.82 65.8 621.77 65.83 621.72 65.86 621.66 65.87 621.62 65.9 621.56 65.94 621.51 65.97 621.46 66 621.41 66.04 621.37 66.07 621.33 66.12 621.28 66.16 621.24 66.2 621.2 66.25 621.17 66.27"/><polyline class="cls-3" points="621.1 67.41 621.14 67.47 621.18 67.53 621.23 67.58 621.27 67.64 621.31 67.68 621.36 67.73 621.41 67.77 621.46 67.81 621.51 67.86 621.56 67.89 621.62 67.93 621.66 67.96 621.72 67.99 621.76 68.01 621.82 68.03 621.88 68.06 621.92 68.07 621.98 68.1 622.03 68.11 622.08 68.13 622.13 68.14 622.19 68.16 622.23 68.16 622.29 68.17 622.35 68.17 622.41 68.17 622.45 68.19 622.51 68.19 622.52 68.19 622.57 68.19 622.62 68.19 622.68 68.17 622.72 68.17 622.78 68.16 622.84 68.16 622.88 68.14 622.94 68.13 623 68.11 623.05 68.1 623.1 68.09 623.15 68.06 623.21 68.04 623.26 68.01 623.31 67.99 623.36 67.96 623.41 67.93 623.47 67.9 623.51 67.86 623.57 67.83 623.62 67.78 623.66 67.74 623.72 67.7 623.76 67.64 623.8 67.6 623.85 67.54 623.89 67.48 623.93 67.42 623.93 67.41"/><path class="cls-3" d="M622.51,65.68l-.21,0"/><path class="cls-3" d="M622.73,65.7l-.22,0"/><path class="cls-3" d="M622.51,65.68a1.7,1.7,0,0,0-1.38.63,1,1,0,0,0,.06,1.22"/><path class="cls-3" d="M623.9,67.45a1,1,0,0,0,0-1.18,1.75,1.75,0,0,0-1.36-.59"/><polyline class="cls-3" points="586.29 67.41 586.33 67.47 586.37 67.53 586.41 67.57 586.46 67.63 586.5 67.67 586.54 67.73 586.6 67.77 586.65 67.81 586.69 67.84 586.75 67.89 586.79 67.91 586.85 67.94 586.9 67.97 586.95 68 587 68.03 587.06 68.04 587.11 68.07 587.16 68.09 587.22 68.1 587.26 68.11 587.32 68.13 587.38 68.14 587.42 68.16 587.48 68.16 587.54 68.16 587.58 68.17 587.64 68.17 587.7 68.17 587.75 68.17 587.81 68.17 587.87 68.17 587.91 68.16 587.97 68.16 588.03 68.14 588.07 68.13 588.13 68.11 588.18 68.1 588.23 68.09 588.28 68.07 588.34 68.06 588.39 68.03 588.44 68 588.5 67.99 588.54 67.96 588.6 67.91 588.64 67.89 588.7 67.86 588.75 67.81 588.8 67.77 588.85 67.73 588.89 67.68 588.95 67.64 588.99 67.58 589.03 67.53 589.08 67.47 589.11 67.41 589.12 67.41"/><polyline class="cls-3" points="589.05 66.26 589 66.22 588.96 66.17 588.92 66.13 588.88 66.09 588.83 66.06 588.79 66.02 588.75 65.99 588.69 65.94 588.64 65.91 588.59 65.89 588.54 65.86 588.49 65.83 588.43 65.81 588.37 65.78 588.31 65.77 588.27 65.74 588.21 65.73 588.16 65.71 588.1 65.7 588.04 65.7 587.97 65.68 587.91 65.67 587.85 65.67 587.8 65.67 587.74 65.67 587.7 65.67 587.64 65.67 587.58 65.67 587.52 65.67 587.47 65.68 587.41 65.68 587.35 65.7 587.29 65.71 587.24 65.73 587.18 65.74 587.12 65.76 587.06 65.77 587 65.8 586.95 65.81 586.9 65.84 586.85 65.87 586.79 65.9 586.75 65.93 586.69 65.96 586.65 65.99 586.6 66.03 586.56 66.07 586.52 66.1 586.47 66.14 586.43 66.19 586.39 66.23 586.36 66.26"/><path class="cls-3" d="M587.9,65.68h-.21"/><path class="cls-3" d="M587.69,65.67h-.22"/><path class="cls-3" d="M589,67.55a1,1,0,0,0,.08-1.23,1.71,1.71,0,0,0-1.39-.64"/><path class="cls-3" d="M587.69,65.68a1.71,1.71,0,0,0-1.39.64,1,1,0,0,0,.08,1.23"/><polyline class="cls-3" points="580.09 67.41 580.13 67.47 580.17 67.53 580.22 67.58 580.26 67.64 580.3 67.68 580.35 67.73 580.4 67.77 580.45 67.81 580.49 67.86 580.55 67.89 580.59 67.93 580.65 67.96 580.7 67.99 580.75 68.01 580.8 68.03 580.86 68.06 580.91 68.07 580.96 68.1 581.02 68.11 581.06 68.13 581.12 68.14 581.18 68.16 581.22 68.16 581.28 68.17 581.34 68.17 581.38 68.17 581.44 68.19 581.5 68.19 581.55 68.19 581.61 68.19 581.67 68.17 581.71 68.17 581.77 68.16 581.83 68.16 581.87 68.14 581.93 68.13 581.99 68.11 582.03 68.1 582.09 68.09 582.14 68.06 582.19 68.04 582.24 68.01 582.3 67.99 582.34 67.96 582.4 67.93 582.45 67.9 582.5 67.86 582.55 67.83 582.6 67.78 582.65 67.74 582.7 67.7 582.75 67.64 582.79 67.6 582.83 67.54 582.88 67.48 582.9 67.42 582.92 67.41"/><polyline class="cls-3" points="582.85 66.27 582.8 66.23 582.76 66.19 582.72 66.14 582.67 66.1 582.63 66.06 582.59 66.03 582.55 65.99 582.49 65.96 582.45 65.93 582.39 65.9 582.34 65.87 582.29 65.84 582.23 65.81 582.17 65.8 582.11 65.77 582.07 65.76 582.01 65.74 581.96 65.73 581.9 65.71 581.84 65.7 581.78 65.7 581.71 65.68 581.65 65.68 581.6 65.67 581.54 65.67 581.5 65.67 581.44 65.67 581.38 65.67 581.32 65.68 581.26 65.68 581.21 65.7 581.15 65.71 581.09 65.71 581.03 65.73 580.98 65.74 580.92 65.77 580.86 65.78 580.8 65.8 580.75 65.83 580.7 65.86 580.65 65.87 580.59 65.9 580.55 65.94 580.49 65.97 580.45 66 580.4 66.04 580.36 66.07 580.32 66.12 580.27 66.16 580.23 66.2 580.19 66.25 580.16 66.27"/><path class="cls-3" d="M581.71,65.7l-.22,0"/><path class="cls-3" d="M581.49,65.68l-.22,0"/><path class="cls-3" d="M582.8,67.55a1,1,0,0,0,.08-1.23,1.71,1.71,0,0,0-1.39-.64"/><path class="cls-3" d="M581.49,65.68a1.71,1.71,0,0,0-1.39.64,1,1,0,0,0,.08,1.23"/><polyline class="cls-3" points="630.65 65.41 630.65 69.6 630.65 70.19"/><polyline class="cls-3" points="573.42 70.19 573.42 69.6 573.42 65.41"/><polyline class="cls-3" points="630.65 69.6 628.75 69.6 628.75 70.19"/><polyline class="cls-3" points="575.34 70.19 575.34 69.6 573.42 69.6"/><line class="cls-3" x1="628.75" y1="70.19" x2="630.65" y2="70.19"/><line class="cls-3" x1="573.43" y1="70.19" x2="575.34" y2="70.19"/><polyline class="cls-3" points="628.75 69.6 628.75 65.41 630.65 65.41"/><polyline class="cls-3" points="575.34 69.6 575.34 65.41 573.42 65.41"/><path class="cls-3" d="M580,70.67a325.1,325.1,0,0,0,44.14,0"/><path class="cls-3" d="M624.09,70.66A3.71,3.71,0,0,0,626.65,69"/><path class="cls-3" d="M624,69.72a2.89,2.89,0,0,0,1.41-.67"/><path class="cls-3" d="M580.08,69.72a324.82,324.82,0,0,0,43.9,0"/><path class="cls-3" d="M578.66,69.05a2.89,2.89,0,0,0,1.41.67"/><path class="cls-3" d="M577.41,69A3.73,3.73,0,0,0,580,70.66"/><polyline class="cls-3" points="600.84 615.49 690.97 615.49 690.97 258.73"/><polyline class="cls-3" points="682.71 603.46 682.71 258.73 688.71 258.73"/><polyline class="cls-3" points="683.46 607.98 688.71 613.23 688.71 258.73"/><line class="cls-3" x1="600.84" y1="613.23" x2="600.84" y2="607.98"/><line class="cls-3" x1="678.94" y1="607.22" x2="600.84" y2="607.22"/><line class="cls-3" x1="600.84" y1="613.23" x2="688.71" y2="613.23"/><line class="cls-3" x1="688.71" y1="258.73" x2="690.97" y2="258.73"/><polyline class="cls-3" points="688.71 613.23 688.79 613.32 688.88 613.4 688.98 613.5 689.07 613.59 689.17 613.69 689.27 613.79 689.46 613.98 689.66 614.18 689.76 614.28 689.85 614.37 689.95 614.47 690.03 614.55 690.13 614.65 690.22 614.74 690.29 614.81 690.38 614.9 690.45 614.97 690.49 615.01 690.52 615.04 690.56 615.07 690.59 615.11 690.62 615.14 690.65 615.17 690.68 615.2 690.71 615.23 690.74 615.26 690.77 615.29 690.78 615.3 690.81 615.33 690.84 615.34 690.85 615.37 690.87 615.39 690.88 615.4 690.89 615.42 690.91 615.43 690.92 615.44 690.94 615.46 690.95 615.47 690.97 615.47 690.97 615.49"/><line class="cls-3" x1="600.84" y1="615.49" x2="600.84" y2="613.23"/><line class="cls-3" x1="683.46" y1="251.22" x2="699.22" y2="251.22"/><polyline class="cls-3" points="690.97 259.5 693.6 256.86 683.46 256.86"/><polyline class="cls-3" points="693.6 256.86 699.22 251.22 699.22 623.75"/><polyline class="cls-3" points="690.97 615.49 693.6 618.11 693.6 256.86"/><polyline class="cls-3" points="693.6 618.11 699.22 623.75 593.33 623.75"/><polyline class="cls-3" points="601.59 615.49 598.96 618.11 693.6 618.11"/><polyline class="cls-3" points="598.96 607.98 598.96 618.11 593.33 623.75 593.33 607.98"/><polyline class="cls-3" points="699.22 251.22 706.73 243.72 683.46 243.72"/><polyline class="cls-3" points="699.22 623.75 706.73 631.25 706.73 243.72"/><polyline class="cls-3" points="593.33 623.75 585.83 631.25 706.73 631.25"/><line class="cls-3" x1="585.83" y1="607.98" x2="585.83" y2="631.25"/><line class="cls-3" x1="152.84" y1="157.89" x2="152.84" y2="159.39"/><line class="cls-4" x1="152.84" y1="162.3" x2="152.84" y2="218.98"/><line class="cls-3" x1="152.84" y1="220.44" x2="152.84" y2="221.94"/><line class="cls-3" x1="679.7" y1="683.08" x2="679.7" y2="631.25"/><line class="cls-3" x1="698.48" y1="631.25" x2="698.48" y2="701.86"/><line class="cls-3" x1="368.02" y1="683.08" x2="679.7" y2="683.08"/><line class="cls-3" x1="698.48" y1="701.86" x2="368.02" y2="701.86"/><line class="cls-3" x1="369.33" y1="680.83" x2="369.33" y2="607.98"/><line class="cls-3" x1="603.66" y1="680.83" x2="603.66" y2="631.25"/><line class="cls-3" x1="388.86" y1="680.83" x2="388.86" y2="666.93"/><line class="cls-3" x1="388.86" y1="655.67" x2="388.86" y2="633.14"/><line class="cls-3" x1="388.86" y1="621.86" x2="388.86" y2="607.98"/><line class="cls-3" x1="408.38" y1="680.83" x2="408.38" y2="666.93"/><line class="cls-3" x1="408.38" y1="655.67" x2="408.38" y2="633.14"/><line class="cls-3" x1="408.38" y1="621.86" x2="408.38" y2="607.98"/><line class="cls-3" x1="427.92" y1="680.83" x2="427.92" y2="666.93"/><line class="cls-3" x1="427.92" y1="655.67" x2="427.92" y2="633.14"/><line class="cls-3" x1="427.92" y1="621.86" x2="427.92" y2="607.98"/><line class="cls-3" x1="447.44" y1="680.83" x2="447.44" y2="666.93"/><line class="cls-3" x1="447.44" y1="655.67" x2="447.44" y2="633.14"/><line class="cls-3" x1="447.44" y1="621.86" x2="447.44" y2="607.98"/><line class="cls-3" x1="466.96" y1="680.83" x2="466.96" y2="666.93"/><line class="cls-3" x1="466.96" y1="655.67" x2="466.96" y2="633.14"/><line class="cls-3" x1="466.96" y1="621.86" x2="466.96" y2="607.98"/><line class="cls-3" x1="486.5" y1="680.83" x2="486.5" y2="666.93"/><line class="cls-3" x1="486.5" y1="655.67" x2="486.5" y2="633.14"/><line class="cls-3" x1="486.5" y1="621.86" x2="486.5" y2="607.98"/><line class="cls-3" x1="506.02" y1="680.83" x2="506.02" y2="666.93"/><line class="cls-3" x1="506.02" y1="655.67" x2="506.02" y2="633.14"/><line class="cls-3" x1="506.02" y1="621.86" x2="506.02" y2="607.98"/><line class="cls-3" x1="525.55" y1="680.83" x2="525.55" y2="666.93"/><line class="cls-3" x1="525.55" y1="655.67" x2="525.55" y2="633.14"/><line class="cls-3" x1="525.55" y1="621.86" x2="525.55" y2="607.98"/><line class="cls-3" x1="545.07" y1="680.83" x2="545.07" y2="666.93"/><line class="cls-3" x1="545.07" y1="655.67" x2="545.07" y2="633.14"/><line class="cls-3" x1="545.07" y1="621.86" x2="545.07" y2="607.98"/><line class="cls-3" x1="564.61" y1="680.83" x2="564.61" y2="666.93"/><line class="cls-3" x1="564.61" y1="655.67" x2="564.61" y2="633.14"/><line class="cls-3" x1="564.61" y1="621.86" x2="564.61" y2="607.98"/><line class="cls-3" x1="584.13" y1="680.83" x2="584.13" y2="666.93"/><line class="cls-3" x1="584.13" y1="655.67" x2="584.13" y2="633.14"/><line class="cls-3" x1="584.13" y1="621.86" x2="584.13" y2="607.98"/><line class="cls-3" x1="603.66" y1="680.83" x2="603.66" y2="661.68"/><line class="cls-3" x1="603.66" y1="650.4" x2="603.66" y2="631.25"/><line class="cls-3" x1="388.86" y1="680.83" x2="388.86" y2="607.98"/><line class="cls-3" x1="408.38" y1="680.83" x2="408.38" y2="607.98"/><line class="cls-3" x1="427.92" y1="680.83" x2="427.92" y2="607.98"/><line class="cls-3" x1="447.44" y1="680.83" x2="447.44" y2="607.98"/><line class="cls-3" x1="466.96" y1="680.83" x2="466.96" y2="607.98"/><line class="cls-3" x1="486.5" y1="680.83" x2="486.5" y2="607.98"/><line class="cls-3" x1="506.02" y1="680.83" x2="506.02" y2="607.98"/><line class="cls-3" x1="525.55" y1="680.83" x2="525.55" y2="607.98"/><line class="cls-3" x1="545.07" y1="680.83" x2="545.07" y2="607.98"/><line class="cls-3" x1="564.61" y1="680.83" x2="564.61" y2="607.98"/><line class="cls-3" x1="584.13" y1="680.83" x2="584.13" y2="607.98"/><polyline class="cls-3" points="603.66 645.52 584.13 645.52 564.61 645.52 545.07 645.52 525.55 645.52 506.02 645.52 486.5 645.52 466.96 645.52 447.44 645.52 427.92 645.52 408.38 645.52 388.86 645.52 374.71 645.52"/><polygon points="375.8 641.78 369.33 645.52 375.8 649.26 375.8 641.78"/><path class="cls-3" d="M607.42,645.52a3.77,3.77,0,1,0-3.76,3.76,3.76,3.76,0,0,0,3.76-3.76"/><line class="cls-3" x1="367.07" y1="680.83" x2="367.07" y2="607.98"/><line class="cls-3" x1="700.73" y1="704.1" x2="365.76" y2="704.1"/><line class="cls-3" x1="698.48" y1="243.72" x2="698.48" y2="223.45"/><line class="cls-3" x1="700.73" y1="225.69" x2="700.73" y2="243.72"/><line class="cls-3" x1="700.73" y1="631.25" x2="700.73" y2="704.1"/><line class="cls-3" x1="700.73" y1="225.69" x2="683.46" y2="225.69"/><line class="cls-3" x1="683.46" y1="223.45" x2="698.48" y2="223.45"/><polyline class="cls-3" points="365.76 704.1 365.76 680.83 677.45 680.83 677.45 631.25"/><text class="cls-5" transform="translate(573.89 146.97)">8.50</text><text class="cls-5" transform="translate(425.85 536.71)">14.20</text><text class="cls-5" transform="translate(267.43 117.11)">4.50</text><text class="cls-5" transform="translate(79.87 117.11)">3.50</text><text class="cls-5" transform="translate(272.22 202.71)">2.70</text><text class="cls-5" transform="translate(616.93 459.93)">2.20</text><text class="cls-6" transform="translate(455.03 417.48)">33.40</text><text class="cls-6" transform="translate(455.03 462.28)">35.60</text><text class="cls-6" transform="translate(455.03 371.8)">14.20</text><polyline class="cls-3" points="368.72 479.15 368.72 337.42 534.04 337.42 534.04 479.15"/><line class="cls-3" x1="443.06" y1="384.75" x2="534.04" y2="384.75"/><text class="cls-7" transform="translate(382.05 395.49)">№3</text><text class="cls-7" transform="translate(389.14 439.23)">1Б</text><line class="cls-3" x1="377.56" y1="407.07" x2="434.77" y2="407.07"/><line class="cls-3" x1="368.72" y1="479.15" x2="534.04" y2="479.15"/><line class="cls-3" x1="443.06" y1="432.09" x2="534.04" y2="432.09"/><line class="cls-3" x1="443.06" y1="479.15" x2="443.06" y2="337.42"/></svg>