<svg id="_263" data-name="263" xmlns="http://www.w3.org/2000/svg" viewBox="0 0 654.21 720.37"><defs><style>.cls-1{isolation:isolate;font-size:12px;fill:#969696;}.cls-1,.cls-4,.cls-6{font-family:PTSans-Regular, PT Sans;}.cls-2{letter-spacing:-0.01em;}.cls-10,.cls-11,.cls-3,.cls-5,.cls-7,.cls-8,.cls-9{fill:none;stroke-linecap:round;stroke-linejoin:round;}.cls-3{stroke:#969696;}.cls-3,.cls-7{stroke-width:0.75px;}.cls-4{font-size:24px;}.cls-10,.cls-11,.cls-5,.cls-7,.cls-8,.cls-9{stroke:#000;}.cls-5,.cls-8,.cls-9{stroke-width:0.5px;}.cls-6{font-size:20px;}.cls-8{stroke-dasharray:2.9 2.9;}.cls-9{stroke-dasharray:3 3;}.cls-10{stroke-width:1.2px;}.cls-11{stroke-width:0.35px;}</style></defs><text class="cls-1" transform="translate(10.2 368.48) rotate(-90)"><tspan class="cls-2">у</tspan><tspan x="5.42" y="0">лица</tspan></text><line class="cls-3" x1="4.22" y1="379.24" x2="13.02" y2="379.24"/><polyline class="cls-3" points="7.72 375.74 4.22 379.24 7.72 382.74"/><text class="cls-4" transform="translate(283.7 380.53)">2K</text><text class="cls-4" transform="translate(268.83 410.83)">69.40</text><text class="cls-4" transform="translate(265.66 350.4)">№263</text><polyline class="cls-5" points="260.02 417.35 260.02 327.35 335.08 327.35 335.08 417.35"/><line class="cls-5" x1="260.02" y1="357.41" x2="335.08" y2="357.41"/><line class="cls-5" x1="260.02" y1="417.35" x2="335.08" y2="417.35"/><line class="cls-5" x1="260.02" y1="387.47" x2="335.08" y2="387.47"/><text class="cls-6" transform="translate(89.64 117.4) rotate(-90)">1.40</text><text class="cls-6" transform="translate(117.36 615.94) rotate(-90)">0.30</text><text class="cls-6" transform="translate(184.7 599.38)">15.40</text><text class="cls-6" transform="translate(184.7 147.34)">16.90</text><text class="cls-6" transform="translate(184.7 379.83)">17.10</text><text class="cls-6" transform="translate(537.26 541.17)">8.80</text><text class="cls-6" transform="translate(524.7 666.35)">1.70</text><text class="cls-6" transform="translate(544.18 246.61)">3.60</text><text class="cls-6" transform="translate(544.18 109.07)">4.20</text><line class="cls-7" x1="474.14" y1="590.59" x2="474.14" y2="613.69"/><line class="cls-7" x1="474.14" y1="636.8" x2="474.14" y2="659.9"/><line class="cls-7" x1="474.14" y1="683.01" x2="474.14" y2="705.97"/><line class="cls-7" x1="451.04" y1="705.97" x2="427.93" y2="705.97"/><line class="cls-7" x1="404.83" y1="705.97" x2="381.87" y2="705.97"/><polyline class="cls-7" points="358.76 705.97 336.82 705.97 336.82 704.81"/><line class="cls-5" x1="336.82" y1="670.71" x2="336.82" y2="669.21"/><line class="cls-8" x1="336.82" y1="666.31" x2="336.82" y2="592.38"/><polyline class="cls-5" points="336.82 590.92 336.82 589.42 338.32 589.42"/><line class="cls-9" x1="341.32" y1="589.43" x2="429.87" y2="589.43"/><line class="cls-5" x1="431.37" y1="589.43" x2="432.87" y2="589.43"/><line class="cls-10" x1="121.6" y1="210.73" x2="128.43" y2="210.73"/><line class="cls-10" x1="121.6" y1="85.03" x2="128.43" y2="85.03"/><line class="cls-10" x1="128.43" y1="211.31" x2="128.43" y2="210.73"/><line class="cls-10" x1="120.88" y1="210.73" x2="121.6" y2="210.73"/><line class="cls-10" x1="128.43" y1="84.3" x2="128.43" y2="85.03"/><line class="cls-10" x1="120.88" y1="85.03" x2="121.6" y2="85.03"/><line class="cls-10" x1="128.43" y1="211.31" x2="128.43" y2="213.49"/><line class="cls-10" x1="128.43" y1="82.27" x2="128.43" y2="84.3"/><line class="cls-10" x1="120.88" y1="211.31" x2="120.88" y2="210.73"/><line class="cls-10" x1="120.88" y1="84.3" x2="120.88" y2="85.03"/><polyline class="cls-10" points="128.43 213.49 131.92 213.49 145.58 213.49"/><polyline class="cls-10" points="128.43 82.27 131.92 82.27 145.58 82.27"/><polyline class="cls-10" points="120.88 0.6 120.88 6.41 120.88 16.73 120.88 29.08 120.88 84.3"/><line class="cls-10" x1="120.88" y1="211.31" x2="120.88" y2="321.61"/><line class="cls-10" x1="145.58" y1="321.61" x2="145.58" y2="213.49"/><line class="cls-10" x1="145.58" y1="82.27" x2="145.58" y2="29.08"/><line class="cls-7" x1="120.88" y1="85.03" x2="120.88" y2="210.73"/><line class="cls-7" x1="145.58" y1="213.49" x2="145.58" y2="82.27"/><line class="cls-7" x1="120.88" y1="85.03" x2="120.88" y2="210.73"/><line class="cls-7" x1="145.58" y1="82.27" x2="145.58" y2="213.49"/><polyline class="cls-7" points="131.92 82.27 131.92 87.5 128.43 87.5 128.43 82.27"/><polyline class="cls-7" points="128.43 120.78 128.43 116.56 131.92 116.56 131.92 120.78"/><line class="cls-7" x1="131.92" y1="87.5" x2="131.92" y2="116.56"/><line class="cls-7" x1="128.43" y1="116.56" x2="128.43" y2="87.5"/><polyline class="cls-7" points="131.92 120.78 131.92 124.85 128.43 124.85 128.43 120.78"/><polyline class="cls-7" points="128.43 175.71 128.43 171.49 131.92 171.49 131.92 175.71"/><line class="cls-7" x1="131.92" y1="171.49" x2="178.57" y2="171.49"/><polyline class="cls-7" points="131.92 175.71 131.92 179.78 128.43 179.78 128.43 175.71"/><polyline class="cls-7" points="128.43 213.49 128.43 208.26 131.92 208.26 131.92 213.49"/><line class="cls-7" x1="131.92" y1="179.78" x2="131.92" y2="208.26"/><line class="cls-7" x1="128.43" y1="208.26" x2="128.43" y2="179.78"/><path class="cls-7" d="M207.06,171.42a46.72,46.72,0,0,0-46.72-46.72" transform="translate(-28.35)"/><polyline class="cls-7" points="145.58 82.27 131.92 82.27 128.43 82.27 131.92 82.27"/><polyline class="cls-7" points="145.58 213.49 131.92 213.49 128.43 213.49 131.92 213.49"/><polyline class="cls-7" points="128.43 84.3 128.43 82.27 128.43 84.3"/><polyline class="cls-7" points="128.43 213.49 128.43 211.31 128.43 213.49"/><line class="cls-7" x1="120.88" y1="85.03" x2="121.6" y2="85.03"/><polyline class="cls-7" points="128.43 85.03 128.43 84.3 128.43 85.03"/><line class="cls-7" x1="120.88" y1="210.73" x2="121.6" y2="210.73"/><polyline class="cls-7" points="128.43 210.73 128.43 211.31 128.43 210.73"/><line class="cls-7" x1="121.6" y1="85.03" x2="128.43" y2="85.03"/><line class="cls-7" x1="121.6" y1="210.73" x2="128.43" y2="210.73"/><polyline class="cls-10" points="440.87 705.97 145.58 705.97 145.58 719.77 440.87 719.77 440.87 705.97"/><line class="cls-10" x1="653.61" y1="542.63" x2="653.61" y2="542.63"/><line class="cls-10" x1="653.61" y1="556.29" x2="653.61" y2="556.29"/><line class="cls-10" x1="591.85" y1="158.85" x2="591.85" y2="153.33"/><line class="cls-10" x1="540.41" y1="158.85" x2="540.41" y2="153.33"/><line class="cls-10" x1="461.36" y1="158.85" x2="517.74" y2="158.85"/><line class="cls-10" x1="523.26" y1="158.85" x2="540.41" y2="158.85"/><line class="cls-10" x1="591.85" y1="158.85" x2="639.95" y2="158.85"/><line class="cls-10" x1="653.61" y1="158.85" x2="653.61" y2="158.85"/><line class="cls-10" x1="653.61" y1="153.33" x2="653.61" y2="153.33"/><line class="cls-10" x1="639.95" y1="153.33" x2="591.85" y2="153.33"/><line class="cls-10" x1="540.41" y1="153.33" x2="466.88" y2="153.33"/><path class="cls-7" d="M571.52,158.78a45.94,45.94,0,0,0,6.16,23" transform="translate(-28.35)"/><polyline class="cls-7" points="540.41 153.33 543.17 153.33 543.17 158.85 540.41 158.85 540.41 153.33"/><polyline class="cls-7" points="591.85 158.85 589.09 158.85 589.09 153.33 591.85 153.33 591.85 158.85"/><line class="cls-7" x1="589.09" y1="158.85" x2="549.27" y2="181.81"/><polyline class="cls-7" points="540.41 153.33 540.41 158.85 540.41 153.33"/><polyline class="cls-7" points="591.85 153.33 591.85 158.85 591.85 153.33"/><line class="cls-10" x1="145.58" y1="268.71" x2="517.74" y2="268.71"/><polyline class="cls-10" points="517.74 263.19 145.58 263.19 145.58 268.71"/><line class="cls-10" x1="145.58" y1="493.23" x2="523.26" y2="493.23"/><polyline class="cls-10" points="517.74 487.7 145.58 487.7 145.58 493.23"/><line class="cls-10" x1="517.74" y1="359.39" x2="523.26" y2="359.39"/><line class="cls-10" x1="517.74" y1="421.15" x2="523.26" y2="421.15"/><line class="cls-10" x1="517.74" y1="165.68" x2="523.26" y2="165.68"/><line class="cls-10" x1="517.74" y1="227.44" x2="523.26" y2="227.44"/><line class="cls-10" x1="523.26" y1="493.23" x2="523.26" y2="421.15"/><line class="cls-10" x1="523.26" y1="359.39" x2="523.26" y2="296.11"/><line class="cls-10" x1="523.26" y1="304.46" x2="523.26" y2="227.44"/><line class="cls-10" x1="523.26" y1="165.68" x2="523.26" y2="158.85"/><line class="cls-10" x1="517.74" y1="158.85" x2="517.74" y2="165.68"/><line class="cls-10" x1="517.74" y1="227.44" x2="517.74" y2="263.19"/><line class="cls-10" x1="517.74" y1="268.71" x2="517.74" y2="359.39"/><line class="cls-10" x1="517.74" y1="421.15" x2="517.74" y2="487.7"/><path class="cls-7" d="M489.85,361.93a56.31,56.31,0,0,0,56.31,56.31" transform="translate(-28.35)"/><polyline class="cls-7" points="523.26 421.15 523.26 418.39 517.74 418.39 517.74 421.15 523.26 421.15"/><polyline class="cls-7" points="517.74 359.39 517.74 362 523.26 362 523.26 359.39 517.74 359.39"/><line class="cls-7" x1="517.74" y1="362" x2="461.36" y2="362"/><polyline class="cls-7" points="523.26 421.15 517.74 421.15 523.26 421.15"/><polyline class="cls-7" points="523.26 359.39 517.74 359.39 523.26 359.39"/><path class="cls-7" d="M489.85,168.37a56.31,56.31,0,0,0,56.31,56.31" transform="translate(-28.35)"/><polyline class="cls-7" points="523.26 227.44 523.26 224.82 517.74 224.82 517.74 227.44 523.26 227.44"/><polyline class="cls-7" points="517.74 165.68 517.74 168.44 523.26 168.44 523.26 165.68 517.74 165.68"/><line class="cls-7" x1="517.74" y1="168.44" x2="461.36" y2="168.44"/><polyline class="cls-7" points="523.26 227.44 517.74 227.44 523.26 227.44"/><polyline class="cls-7" points="523.26 165.68 517.74 165.68 523.26 165.68"/><line class="cls-10" x1="496.09" y1="500.06" x2="501.61" y2="500.06"/><line class="cls-10" x1="496.09" y1="561.82" x2="501.61" y2="561.82"/><line class="cls-10" x1="496.09" y1="493.23" x2="496.09" y2="500.06"/><line class="cls-10" x1="496.09" y1="561.82" x2="496.09" y2="616.75"/><line class="cls-10" x1="501.61" y1="616.75" x2="501.61" y2="561.82"/><polyline class="cls-10" points="501.61 500.06 501.61 493.23 496.09 493.23"/><path class="cls-7" d="M468.2,502.74a56.31,56.31,0,0,0,56.31,56.31" transform="translate(-28.35)"/><polyline class="cls-7" points="501.61 561.82 501.61 559.05 496.09 559.05 496.09 561.82 501.61 561.82"/><polyline class="cls-7" points="496.09 500.06 496.09 502.82 501.61 502.82 501.61 500.06 496.09 500.06"/><line class="cls-7" x1="496.09" y1="502.82" x2="439.85" y2="502.82"/><polyline class="cls-7" points="501.61 561.82 496.09 561.82 501.61 561.82"/><polyline class="cls-7" points="501.61 500.06 496.09 500.06 501.61 500.06"/><line class="cls-10" x1="591.85" y1="309.83" x2="639.95" y2="309.83"/><line class="cls-10" x1="639.95" y1="304.46" x2="591.85" y2="304.46"/><line class="cls-7" x1="591.85" y1="304.46" x2="591.85" y2="309.83"/><polyline class="cls-11" points="523.26 304.46 523.26 309.83 591.85 309.83"/><line class="cls-10" x1="653.61" y1="234.42" x2="653.61" y2="234.42"/><line class="cls-10" x1="653.61" y1="239.94" x2="653.61" y2="239.94"/><line class="cls-10" x1="653.61" y1="153.33" x2="653.61" y2="153.33"/><line class="cls-10" x1="653.61" y1="158.85" x2="653.61" y2="158.85"/><polyline class="cls-10" points="466.88 153.33 466.88 29.08 461.36 29.08 461.36 158.85"/><line class="cls-10" x1="653.61" y1="631.86" x2="639.95" y2="631.86"/><line class="cls-10" x1="653.61" y1="563.27" x2="639.95" y2="563.27"/><line class="cls-10" x1="653.61" y1="705.97" x2="653.61" y2="631.86"/><line class="cls-10" x1="653.61" y1="563.27" x2="653.61" y2="556.29"/><line class="cls-10" x1="653.61" y1="542.63" x2="653.61" y2="378.13"/><line class="cls-10" x1="653.61" y1="372.76" x2="653.61" y2="309.83"/><line class="cls-10" x1="653.61" y1="304.46" x2="653.61" y2="239.94"/><line class="cls-10" x1="653.61" y1="234.42" x2="653.61" y2="158.85"/><line class="cls-10" x1="653.61" y1="153.33" x2="653.61" y2="104.65"/><polyline class="cls-10" points="653.61 63.38 653.61 29.08 639.95 29.08 639.95 63.38"/><line class="cls-10" x1="639.95" y1="104.65" x2="639.95" y2="153.33"/><line class="cls-10" x1="639.95" y1="158.85" x2="639.95" y2="304.46"/><line class="cls-10" x1="639.95" y1="309.83" x2="639.95" y2="563.27"/><line class="cls-10" x1="639.95" y1="631.86" x2="639.95" y2="638.69"/><polyline class="cls-10" points="639.95 644.21 639.95 705.97 653.61 705.97"/><path class="cls-7" d="M668.37,565.88A63.14,63.14,0,0,0,605.23,629" transform="translate(-28.35)"/><polyline class="cls-7" points="653.61 563.27 653.61 566.03 639.95 566.03 639.95 563.27 653.61 563.27"/><polyline class="cls-7" points="639.95 631.86 639.95 629.1 653.61 629.1 653.61 631.86 639.95 631.86"/><line class="cls-7" x1="639.95" y1="629.1" x2="576.74" y2="629.1"/><polyline class="cls-7" points="639.95 563.27 653.61 563.27 639.95 563.27"/><polyline class="cls-7" points="639.95 631.86 653.61 631.86 639.95 631.86"/><line class="cls-10" x1="440.87" y1="719.77" x2="653.61" y2="719.77"/><line class="cls-10" x1="653.61" y1="705.97" x2="653.61" y2="719.77"/><line class="cls-10" x1="653.61" y1="705.97" x2="440.87" y2="705.97"/><line class="cls-5" x1="440.87" y1="705.97" x2="440.87" y2="719.77"/><line class="cls-10" x1="508.44" y1="638.69" x2="508.44" y2="644.21"/><polyline class="cls-10" points="639.95 638.69 559.88 638.69 559.88 644.21"/><line class="cls-10" x1="508.44" y1="638.69" x2="501.61" y2="638.69"/><line class="cls-10" x1="501.61" y1="644.21" x2="508.44" y2="644.21"/><line class="cls-10" x1="559.88" y1="644.21" x2="639.95" y2="644.21"/><path class="cls-7" d="M585.61,638.62a46,46,0,0,0-6.16-23" transform="translate(-28.35)"/><polyline class="cls-7" points="559.88 644.21 557.12 644.21 557.12 638.69 559.88 638.69 559.88 644.21"/><polyline class="cls-7" points="508.44 638.69 511.2 638.69 511.2 644.21 508.44 644.21 508.44 638.69"/><line class="cls-7" x1="511.2" y1="638.69" x2="551.02" y2="615.73"/><polyline class="cls-7" points="559.88 644.21 559.88 638.69 559.88 644.21"/><polyline class="cls-7" points="508.44 644.21 508.44 638.69 508.44 644.21"/><polyline class="cls-10" points="474.14 699.14 474.14 705.97 479.67 705.97 479.67 699.14"/><line class="cls-10" x1="479.67" y1="695.07" x2="479.67" y2="688.82"/><line class="cls-10" x1="653.61" y1="372.76" x2="653.61" y2="372.76"/><line class="cls-10" x1="653.61" y1="378.13" x2="653.61" y2="378.13"/><line class="cls-10" x1="653.61" y1="16.73" x2="145.58" y2="16.73"/><line class="cls-10" x1="145.58" y1="29.08" x2="653.61" y2="29.08"/><line class="cls-10" x1="121.6" y1="662.37" x2="128.43" y2="662.37"/><line class="cls-10" x1="121.6" y1="536.82" x2="128.43" y2="536.82"/><line class="cls-10" x1="128.43" y1="663.1" x2="128.43" y2="662.37"/><line class="cls-10" x1="120.88" y1="662.37" x2="121.6" y2="662.37"/><line class="cls-10" x1="128.43" y1="536.09" x2="128.43" y2="536.82"/><line class="cls-10" x1="120.88" y1="536.82" x2="121.6" y2="536.82"/><line class="cls-10" x1="128.43" y1="663.1" x2="128.43" y2="665.14"/><line class="cls-10" x1="128.43" y1="534.06" x2="128.43" y2="536.09"/><line class="cls-10" x1="120.88" y1="663.1" x2="120.88" y2="662.37"/><line class="cls-10" x1="120.88" y1="536.09" x2="120.88" y2="536.82"/><polyline class="cls-10" points="128.43 665.14 131.92 665.14 145.58 665.14"/><polyline class="cls-10" points="128.43 534.06 131.92 534.06 145.58 534.06"/><line class="cls-10" x1="120.88" y1="534.06" x2="120.88" y2="536.09"/><line class="cls-10" x1="120.88" y1="663.1" x2="120.88" y2="719.77"/><line class="cls-10" x1="145.58" y1="719.77" x2="145.58" y2="665.14"/><line class="cls-11" x1="120.88" y1="536.82" x2="120.88" y2="662.37"/><line class="cls-11" x1="145.58" y1="665.14" x2="145.58" y2="534.06"/><line class="cls-11" x1="120.88" y1="536.82" x2="120.88" y2="662.37"/><line class="cls-11" x1="145.58" y1="534.06" x2="145.58" y2="665.14"/><polyline class="cls-7" points="131.92 534.06 131.92 541.33 128.43 541.33 128.43 534.06"/><polyline class="cls-7" points="128.43 572.57 128.43 568.35 131.92 568.35 131.92 572.57"/><line class="cls-7" x1="131.92" y1="541.33" x2="131.92" y2="568.35"/><line class="cls-7" x1="128.43" y1="568.35" x2="128.43" y2="541.33"/><polyline class="cls-7" points="131.92 572.57 131.92 576.64 128.43 576.64 128.43 572.57"/><polyline class="cls-7" points="128.43 627.35 128.43 623.28 131.92 623.28 131.92 627.35"/><line class="cls-7" x1="131.92" y1="623.28" x2="178.57" y2="623.28"/><polyline class="cls-7" points="131.92 627.35 131.92 631.57 128.43 631.57 128.43 627.35"/><polyline class="cls-7" points="128.43 665.14 128.43 658.01 131.92 658.01 131.92 665.14"/><line class="cls-7" x1="131.92" y1="631.57" x2="131.92" y2="658.02"/><line class="cls-7" x1="128.43" y1="658.02" x2="128.43" y2="631.57"/><path class="cls-7" d="M207.06,623.21a46.72,46.72,0,0,0-46.72-46.72" transform="translate(-28.35)"/><polyline class="cls-7" points="145.58 534.06 131.92 534.06 128.43 534.06 131.92 534.06"/><polyline class="cls-7" points="145.58 665.14 131.92 665.14 128.43 665.14 131.92 665.14"/><polyline class="cls-7" points="128.43 536.09 128.43 534.06 128.43 536.09"/><polyline class="cls-7" points="128.43 665.14 128.43 663.1 128.43 665.14"/><line class="cls-7" x1="120.88" y1="536.82" x2="121.6" y2="536.82"/><polyline class="cls-7" points="128.43 536.82 128.43 536.09 128.43 536.82"/><line class="cls-7" x1="120.88" y1="662.37" x2="121.6" y2="662.37"/><polyline class="cls-7" points="128.43 662.38 128.43 663.1 128.43 662.38"/><line class="cls-7" x1="121.6" y1="536.82" x2="128.43" y2="536.82"/><line class="cls-7" x1="121.6" y1="662.37" x2="128.43" y2="662.37"/><line class="cls-10" x1="121.6" y1="432.05" x2="128.43" y2="432.05"/><line class="cls-10" x1="121.6" y1="324.37" x2="128.43" y2="324.37"/><line class="cls-10" x1="128.43" y1="432.77" x2="128.43" y2="432.05"/><line class="cls-10" x1="120.88" y1="432.05" x2="121.6" y2="432.05"/><line class="cls-10" x1="128.43" y1="323.64" x2="128.43" y2="324.37"/><line class="cls-10" x1="120.88" y1="324.37" x2="121.6" y2="324.37"/><line class="cls-10" x1="128.43" y1="432.77" x2="128.43" y2="434.81"/><line class="cls-10" x1="128.43" y1="321.61" x2="128.43" y2="323.64"/><line class="cls-10" x1="120.88" y1="432.77" x2="120.88" y2="432.05"/><line class="cls-10" x1="120.88" y1="323.64" x2="120.88" y2="324.37"/><polyline class="cls-10" points="128.43 434.81 131.92 434.81 145.58 434.81"/><polyline class="cls-10" points="128.43 321.61 131.92 321.61 145.58 321.61"/><line class="cls-10" x1="120.88" y1="321.61" x2="120.88" y2="323.64"/><line class="cls-10" x1="120.88" y1="432.77" x2="120.88" y2="534.06"/><line class="cls-10" x1="145.58" y1="534.06" x2="145.58" y2="434.81"/><line class="cls-7" x1="120.88" y1="324.37" x2="120.88" y2="432.05"/><line class="cls-7" x1="145.58" y1="434.81" x2="145.58" y2="321.61"/><line class="cls-7" x1="120.88" y1="324.37" x2="120.88" y2="432.05"/><line class="cls-7" x1="145.58" y1="321.61" x2="145.58" y2="434.81"/><polyline class="cls-7" points="131.92 321.61 131.92 328.14 128.43 328.14 128.43 321.61"/><polyline class="cls-7" points="128.43 378.13 128.43 373.77 131.92 373.77 131.92 378.13"/><line class="cls-7" x1="131.92" y1="328.15" x2="131.92" y2="373.77"/><line class="cls-7" x1="128.43" y1="373.77" x2="128.43" y2="328.15"/><polyline class="cls-7" points="131.92 378.13 131.92 382.64 128.43 382.64 128.43 378.13"/><polyline class="cls-7" points="128.43 434.81 128.43 428.27 131.92 428.27 131.92 434.81"/><line class="cls-7" x1="131.92" y1="382.64" x2="131.92" y2="428.27"/><line class="cls-7" x1="128.43" y1="428.27" x2="128.43" y2="382.64"/><polyline class="cls-7" points="145.58 321.61 131.92 321.61 128.43 321.61 131.92 321.61"/><polyline class="cls-7" points="145.58 434.81 131.92 434.81 128.43 434.81 131.92 434.81"/><polyline class="cls-7" points="128.43 323.64 128.43 321.61 128.43 323.64"/><polyline class="cls-7" points="128.43 434.81 128.43 432.77 128.43 434.81"/><line class="cls-7" x1="120.88" y1="324.37" x2="121.6" y2="324.37"/><polyline class="cls-7" points="128.43 324.37 128.43 323.64 128.43 324.37"/><line class="cls-7" x1="120.88" y1="432.05" x2="121.6" y2="432.05"/><polyline class="cls-7" points="128.43 432.05 128.43 432.77 128.43 432.05"/><line class="cls-7" x1="121.6" y1="324.37" x2="128.43" y2="324.37"/><line class="cls-7" x1="121.6" y1="432.05" x2="128.43" y2="432.05"/><line class="cls-11" x1="45.31" y1="173.67" x2="45.31" y2="170.19"/><line class="cls-11" x1="38.48" y1="29.37" x2="38.48" y2="103.19"/><line class="cls-11" x1="45.31" y1="103.19" x2="45.31" y2="36.35"/><line class="cls-11" x1="38.48" y1="103.19" x2="38.48" y2="176.58"/><line class="cls-11" x1="45.31" y1="170.19" x2="45.31" y2="103.19"/><line class="cls-11" x1="38.48" y1="29.37" x2="38.48" y2="176.58"/><line class="cls-11" x1="45.31" y1="170.19" x2="45.31" y2="36.35"/><line class="cls-11" x1="38.48" y1="29.37" x2="38.48" y2="177.02"/><line class="cls-11" x1="45.31" y1="36.35" x2="45.31" y2="170.19"/><polyline class="cls-11" points="41.97 32.86 41.97 38.09 38.48 38.09 38.48 32.86 38.48 29.37"/><polyline class="cls-11" points="38.48 70.64 38.48 66.57 41.97 66.57 41.97 70.64"/><line class="cls-11" x1="41.97" y1="38.09" x2="41.97" y2="66.57"/><line class="cls-11" x1="38.48" y1="66.57" x2="38.48" y2="38.09"/><line class="cls-11" x1="38.48" y1="32.86" x2="41.97" y2="32.86"/><polyline class="cls-11" points="41.97 70.64 41.97 74.71 38.48 74.71 38.48 70.64"/><polyline class="cls-11" points="38.48 135.89 38.48 131.68 41.97 131.68 41.97 135.89"/><line class="cls-11" x1="41.97" y1="74.71" x2="41.97" y2="131.68"/><line class="cls-11" x1="38.48" y1="131.68" x2="38.48" y2="74.71"/><polyline class="cls-11" points="41.97 135.89 41.97 139.96 38.48 139.96 38.48 135.89"/><polyline class="cls-11" points="38.48 177.01 38.48 173.67 38.48 168.44 41.97 168.44 41.97 173.67"/><line class="cls-11" x1="41.97" y1="139.96" x2="41.97" y2="168.44"/><line class="cls-11" x1="38.48" y1="168.44" x2="38.48" y2="139.96"/><line class="cls-11" x1="38.48" y1="173.67" x2="41.97" y2="173.67"/><polyline class="cls-11" points="76.85 212.91 79.17 210.44 81.64 207.97 120.88 245.31"/><line class="cls-11" x1="47.78" y1="176" x2="45.31" y2="173.67"/><line class="cls-11" x1="76.85" y1="212.91" x2="116.23" y2="250.25"/><line class="cls-11" x1="63.48" y1="190.82" x2="47.78" y2="176"/><line class="cls-11" x1="38.48" y1="176.58" x2="58.68" y2="195.76"/><line class="cls-11" x1="81.64" y1="207.97" x2="47.78" y2="176"/><line class="cls-11" x1="38.48" y1="176.58" x2="76.85" y2="212.91"/><line class="cls-11" x1="38.19" y1="176.29" x2="76.85" y2="212.91"/><line class="cls-11" x1="47.78" y1="176" x2="81.64" y2="207.97"/><polyline class="cls-11" points="42.99 176.14 46.77 179.63 44.44 182.1 40.66 178.61 38.19 176.29"/><polyline class="cls-11" points="76.85 212.91 73.07 209.42 75.54 206.95 79.17 210.44"/><line class="cls-11" x1="46.77" y1="179.63" x2="75.54" y2="206.95"/><line class="cls-11" x1="73.07" y1="209.42" x2="44.44" y2="182.1"/><line class="cls-11" x1="40.66" y1="178.61" x2="42.99" y2="176.14"/><polyline class="cls-11" points="81.64 207.97 79.17 210.44 76.85 212.91 79.17 210.44"/><line class="cls-11" x1="120.88" y1="245.31" x2="45.31" y2="173.67"/><line class="cls-11" x1="42.99" y1="176.14" x2="118.55" y2="247.78"/><line class="cls-11" x1="45.31" y1="173.67" x2="45.31" y2="36.35"/><line class="cls-11" x1="41.97" y1="29.37" x2="41.97" y2="173.67"/><line class="cls-11" x1="45.31" y1="173.67" x2="45.31" y2="170.19"/><line class="cls-11" x1="38.48" y1="29.37" x2="38.48" y2="103.19"/><line class="cls-11" x1="45.31" y1="103.19" x2="45.31" y2="36.35"/><line class="cls-11" x1="38.48" y1="103.19" x2="38.48" y2="173.67"/><line class="cls-11" x1="45.31" y1="170.19" x2="45.31" y2="103.19"/><line class="cls-11" x1="38.48" y1="29.37" x2="38.48" y2="173.67"/><line class="cls-11" x1="45.31" y1="170.19" x2="45.31" y2="36.35"/><line class="cls-11" x1="38.48" y1="29.37" x2="38.48" y2="177.02"/><line class="cls-11" x1="45.31" y1="36.35" x2="45.31" y2="170.19"/><polyline class="cls-11" points="41.97 32.86 41.97 38.09 38.48 38.09 38.48 32.86 38.48 29.37"/><polyline class="cls-11" points="38.48 70.64 38.48 66.57 41.97 66.57 41.97 70.64"/><line class="cls-11" x1="41.97" y1="38.09" x2="41.97" y2="66.57"/><line class="cls-11" x1="38.48" y1="66.57" x2="38.48" y2="38.09"/><line class="cls-11" x1="38.48" y1="32.86" x2="41.97" y2="32.86"/><polyline class="cls-11" points="41.97 70.64 41.97 74.71 38.48 74.71 38.48 70.64"/><polyline class="cls-11" points="38.48 135.89 38.48 131.68 41.97 131.68 41.97 135.89"/><line class="cls-11" x1="41.97" y1="74.71" x2="41.97" y2="131.68"/><line class="cls-11" x1="38.48" y1="131.68" x2="38.48" y2="74.71"/><polyline class="cls-11" points="41.97 135.89 41.97 139.96 38.48 139.96 38.48 135.89"/><polyline class="cls-11" points="38.48 177.01 38.48 173.67 38.48 168.44 41.97 168.44 41.97 173.67"/><line class="cls-11" x1="41.97" y1="139.96" x2="41.97" y2="168.44"/><line class="cls-11" x1="38.48" y1="168.44" x2="38.48" y2="139.96"/><line class="cls-11" x1="38.48" y1="173.67" x2="41.97" y2="173.67"/><polyline class="cls-11" points="95.45 230.64 97.77 228.02 100.1 225.55 120.88 245.31"/><line class="cls-11" x1="47.78" y1="176" x2="45.31" y2="173.67"/><line class="cls-11" x1="95.45" y1="230.64" x2="120.65" y2="254.43"/><line class="cls-11" x1="72.78" y1="199.54" x2="47.78" y2="176"/><line class="cls-11" x1="40.66" y1="178.61" x2="67.98" y2="204.63"/><line class="cls-11" x1="100.1" y1="225.55" x2="47.78" y2="176"/><line class="cls-11" x1="40.66" y1="178.61" x2="95.45" y2="230.64"/><line class="cls-11" x1="38.19" y1="176.29" x2="95.45" y2="230.64"/><line class="cls-11" x1="47.78" y1="176" x2="100.1" y2="225.55"/><polyline class="cls-11" points="42.99 176.14 46.77 179.63 44.44 182.1 40.66 178.61 38.19 176.29"/><polyline class="cls-11" points="95.45 230.64 91.67 227 93.99 224.53 97.77 228.02"/><line class="cls-11" x1="46.77" y1="179.63" x2="93.99" y2="224.53"/><line class="cls-11" x1="91.67" y1="227" x2="44.44" y2="182.1"/><line class="cls-11" x1="40.66" y1="178.61" x2="42.99" y2="176.14"/><polyline class="cls-11" points="100.1 225.55 97.77 228.02 95.45 230.64 97.77 228.02"/><line class="cls-11" x1="120.88" y1="245.31" x2="45.31" y2="173.67"/><line class="cls-11" x1="42.99" y1="176.14" x2="120.39" y2="249.53"/><line class="cls-11" x1="45.31" y1="173.67" x2="45.31" y2="36.35"/><line class="cls-11" x1="41.97" y1="29.37" x2="41.97" y2="173.67"/><line class="cls-11" x1="45.31" y1="36.35" x2="120.88" y2="36.35"/><line class="cls-11" x1="120.88" y1="32.86" x2="45.31" y2="32.86"/><polyline class="cls-11" points="120.88 29.37 95.3 29.37 95.3 32.86 95.3 36.35"/><line class="cls-11" x1="45.31" y1="36.35" x2="48.8" y2="36.35"/><line class="cls-11" x1="95.3" y1="36.35" x2="120.88" y2="36.35"/><line class="cls-11" x1="70.31" y1="29.37" x2="45.31" y2="29.37"/><line class="cls-11" x1="48.8" y1="36.35" x2="70.31" y2="36.35"/><line class="cls-11" x1="95.3" y1="29.37" x2="45.31" y2="29.37"/><line class="cls-11" x1="48.8" y1="36.35" x2="95.3" y2="36.35"/><line class="cls-11" x1="41.97" y1="29.37" x2="95.3" y2="29.37"/><line class="cls-11" x1="48.8" y1="36.35" x2="95.3" y2="36.35"/><polyline class="cls-11" points="45.31 32.86 50.54 32.86 50.54 29.37 45.31 29.37 41.97 29.37"/><polyline class="cls-11" points="95.3 29.37 90.22 29.37 90.22 32.86 95.3 32.86"/><line class="cls-11" x1="50.54" y1="32.86" x2="90.22" y2="32.86"/><line class="cls-11" x1="90.22" y1="29.37" x2="50.54" y2="29.37"/><line class="cls-11" x1="45.31" y1="29.37" x2="45.31" y2="32.86"/><polyline class="cls-11" points="95.3 36.35 95.3 32.86 95.3 29.37 95.3 32.86"/><line class="cls-11" x1="45.31" y1="36.35" x2="120.88" y2="36.35"/><line class="cls-11" x1="120.88" y1="32.86" x2="45.31" y2="32.86"/><polyline class="cls-10" points="120.88 29.37 120.88 32.86 120.88 36.35"/><line class="cls-11" x1="45.31" y1="36.35" x2="48.8" y2="36.35"/><line class="cls-11" x1="83.09" y1="29.37" x2="45.31" y2="29.37"/><line class="cls-11" x1="48.8" y1="36.35" x2="83.09" y2="36.35"/><line class="cls-11" x1="120.88" y1="29.37" x2="45.31" y2="29.37"/><line class="cls-11" x1="48.8" y1="36.35" x2="120.88" y2="36.35"/><line class="cls-11" x1="41.97" y1="29.37" x2="120.88" y2="29.37"/><line class="cls-11" x1="48.8" y1="36.35" x2="120.88" y2="36.35"/><polyline class="cls-11" points="45.31 32.86 50.54 32.86 50.54 29.37 45.31 29.37 41.97 29.37"/><polyline class="cls-11" points="120.88 29.37 115.79 29.37 115.79 32.86 120.88 32.86"/><line class="cls-11" x1="50.54" y1="32.86" x2="115.79" y2="32.86"/><line class="cls-11" x1="115.79" y1="29.37" x2="38.48" y2="29.37"/><line class="cls-11" x1="45.31" y1="29.37" x2="45.31" y2="32.86"/><polyline class="cls-7" points="120.88 36.35 120.88 32.86 120.88 29.37 120.88 32.86"/><polyline class="cls-10" points="120.88 0.6 653.61 0.6 653.61 563.27"/><line class="cls-10" x1="145.58" y1="29.08" x2="653.61" y2="29.08"/><polyline class="cls-10" points="639.95 386.13 653.61 386.13 653.61 331.2 639.95 331.2 639.95 386.13"/><polyline class="cls-7" points="653.61 63.38 653.61 63.38 653.61 104.65"/><line class="cls-7" x1="653.61" y1="104.65" x2="653.61" y2="104.65"/><line class="cls-7" x1="653.61" y1="101.16" x2="653.61" y2="101.16"/><polyline class="cls-7" points="653.61 101.16 653.61 101.01 653.61 100.43 653.61 99.56 653.61 98.4 653.61 97.09 653.61 81.25 653.61 79.94 653.61 78.93 653.61 77.91 653.61 77.33 653.61 77.18 653.61 77.18"/><polyline class="cls-7" points="653.61 73.69 653.61 73.69 653.61 73.55 653.61 72.82 653.61 71.95 653.61 70.93 653.61 69.77 653.61 68.61 653.61 67.59 653.61 67.01 653.61 66.86 653.61 66.86"/><polyline class="cls-7" points="612.49 104.65 639.95 104.65 639.95 63.38 612.49 63.38 612.49 104.65"/><polyline class="cls-7" points="620.04 101.16 618.73 101.01 617.57 100.43 616.7 99.56 616.12 98.4 615.83 97.09 615.83 81.25 616.12 79.94 616.7 78.93 617.57 77.91 618.73 77.33 620.04 77.18 632.39 77.18 633.7 77.33 634.72 77.91 635.74 78.93 636.32 79.94 636.46 81.25 636.46 97.09 636.32 98.4 635.74 99.56 634.72 100.43 633.7 101.01 632.39 101.16 620.04 101.16"/><polyline class="cls-7" points="634.72 73.69 617.57 73.69 616.7 73.55 616.12 72.82 615.83 71.95 615.83 70.93 616.12 69.77 616.7 68.61 617.57 67.59 618.73 67.01 620.04 66.86 632.39 66.86 633.7 67.01 634.72 67.59 635.74 68.61 636.32 69.77 636.46 70.93 636.46 71.95 636.32 72.82 635.59 73.55 634.72 73.69"/><polyline class="cls-7" points="501.61 616.75 474.14 616.75 474.14 658.01 501.61 658.01 501.61 616.75"/><polyline class="cls-7" points="494.05 620.23 495.36 620.38 496.38 620.96 497.39 621.98 497.98 622.99 498.12 624.3 498.12 640.14 497.98 641.45 497.39 642.61 496.38 643.48 495.36 644.07 494.05 644.21 481.7 644.21 480.39 644.07 479.23 643.48 478.36 642.61 477.78 641.45 477.49 640.14 477.49 624.3 477.78 622.99 478.36 621.98 479.23 620.96 480.39 620.38 481.7 620.23 494.05 620.23"/><polyline class="cls-7" points="479.23 647.7 496.38 647.7 497.25 647.84 497.98 648.57 498.12 649.44 498.12 650.46 497.98 651.62 497.39 652.78 496.38 653.8 495.36 654.38 494.05 654.53 481.7 654.53 480.39 654.38 479.23 653.8 478.36 652.78 477.78 651.62 477.49 650.46 477.49 649.44 477.78 648.57 478.36 647.84 479.23 647.7"/><polyline class="cls-7" points="474.14 658.01 501.61 658.01 501.61 699.14 474.14 699.14 474.14 658.01"/><polyline class="cls-7" points="481.7 661.36 480.39 661.65 479.23 662.23 478.36 663.1 477.78 664.26 477.49 665.57 477.49 681.27 477.78 682.57 478.36 683.74 479.23 684.61 480.39 685.19 481.7 685.48 494.05 685.48 495.36 685.19 496.38 684.61 497.39 683.74 497.98 682.57 498.12 681.27 498.12 665.57 497.98 664.26 497.39 663.1 496.38 662.23 495.36 661.65 494.05 661.36 481.7 661.36"/><polyline class="cls-7" points="496.38 688.82 479.23 688.82 478.36 689.11 477.78 689.69 477.49 690.57 477.49 691.58 477.78 692.89 478.36 694.05 479.23 694.93 480.39 695.51 481.7 695.8 494.05 695.8 495.36 695.51 496.38 694.93 497.39 694.05 497.98 692.89 498.12 691.58 498.12 690.57 497.98 689.69 497.25 689.11 496.38 688.82"/><line class="cls-11" x1="117.39" y1="659.03" x2="89.92" y2="659.03"/><line class="cls-11" x1="86.58" y1="662.37" x2="117.39" y2="662.37"/><line class="cls-11" x1="89.92" y1="659.03" x2="89.92" y2="516.91"/><line class="cls-11" x1="86.58" y1="513.42" x2="86.58" y2="662.37"/><line class="cls-11" x1="89.92" y1="516.91" x2="117.39" y2="516.91"/><line class="cls-11" x1="117.39" y1="513.42" x2="86.58" y2="513.42"/><polyline class="cls-11" points="117.39 662.38 119.13 662.38 119.13 659.03 117.39 659.03"/><polyline class="cls-11" points="117.39 516.91 119.13 516.91 119.13 513.42 117.39 513.42"/><line class="cls-11" x1="117.39" y1="659.9" x2="89.2" y2="659.9"/><polyline class="cls-11" points="87.45 661.65 117.39 661.65 117.39 659.9"/><line class="cls-11" x1="89.2" y1="659.9" x2="89.2" y2="516.04"/><line class="cls-11" x1="87.45" y1="514.3" x2="87.45" y2="661.65"/><polyline class="cls-11" points="89.2 516.04 117.39 516.04 117.39 514.3 87.45 514.3"/><polyline class="cls-11" points="118.26 661.65 118.26 659.9 116.52 659.9 116.52 661.65 118.26 661.65"/><polyline class="cls-11" points="89.2 661.65 89.2 659.9 87.45 659.9 87.45 661.65 89.2 661.65"/><polyline class="cls-11" points="87.45 516.04 89.2 516.04 89.2 514.3 87.45 514.3 87.45 516.04"/><polyline class="cls-11" points="116.52 514.3 116.52 516.04 118.26 516.04 118.26 514.3 116.52 514.3"/><polyline class="cls-11" points="108.53 661.65 108.53 659.9 106.93 659.9 106.93 661.65 108.53 661.65"/><polyline class="cls-11" points="98.79 661.65 98.79 659.9 97.19 659.9 97.19 661.65 98.79 661.65"/><polyline class="cls-11" points="87.45 651.91 89.2 651.91 89.2 650.17 87.45 650.17 87.45 651.91"/><polyline class="cls-11" points="87.45 642.18 89.2 642.18 89.2 640.43 87.45 640.43 87.45 642.18"/><polyline class="cls-11" points="87.45 632.44 89.2 632.44 89.2 630.7 87.45 630.7 87.45 632.44"/><polyline class="cls-11" points="87.45 622.7 89.2 622.7 89.2 621.1 87.45 621.1 87.45 622.7"/><polyline class="cls-11" points="87.45 613.11 89.2 613.11 89.2 611.37 87.45 611.37 87.45 613.11"/><polyline class="cls-11" points="87.45 603.38 89.2 603.38 89.2 601.63 87.45 601.63 87.45 603.38"/><polyline class="cls-11" points="87.45 593.64 89.2 593.64 89.2 591.9 87.45 591.9 87.45 593.64"/><polyline class="cls-11" points="87.45 583.9 89.2 583.9 89.2 582.3 87.45 582.3 87.45 583.9"/><polyline class="cls-11" points="87.45 574.31 89.2 574.31 89.2 572.57 87.45 572.57 87.45 574.31"/><polyline class="cls-11" points="87.45 564.58 89.2 564.58 89.2 562.83 87.45 562.83 87.45 564.58"/><polyline class="cls-11" points="87.45 554.84 89.2 554.84 89.2 553.1 87.45 553.1 87.45 554.84"/><polyline class="cls-11" points="87.45 545.1 89.2 545.1 89.2 543.36 87.45 543.36 87.45 545.1"/><polyline class="cls-11" points="87.45 535.37 89.2 535.37 89.2 533.77 87.45 533.77 87.45 535.37"/><polyline class="cls-11" points="87.45 525.78 89.2 525.78 89.2 524.03 87.45 524.03 87.45 525.78"/><polyline class="cls-11" points="97.19 514.3 97.19 516.04 98.79 516.04 98.79 514.3 97.19 514.3"/><polyline class="cls-11" points="106.93 514.3 106.93 516.04 108.53 516.04 108.53 514.3 106.93 514.3"/><polyline class="cls-7" points="336.82 705.97 474.14 705.97 474.14 589.42"/><polyline class="cls-7" points="336.82 705.97 336.82 664.85 432.87 664.85 432.87 589.42 474.14 589.42"/><path class="cls-7" d="M425,669.93a1.38,1.38,0,0,0-1.38,1.38" transform="translate(-28.35)"/><line class="cls-7" x1="395.09" y1="702.92" x2="395.09" y2="671.38"/><path class="cls-7" d="M423.58,702.85a1.38,1.38,0,0,0,1.38,1.38" transform="translate(-28.35)"/><line class="cls-7" x1="448.71" y1="704.37" x2="396.54" y2="704.37"/><path class="cls-7" d="M477.13,704.23a1.38,1.38,0,0,0,1.38-1.38" transform="translate(-28.35)"/><line class="cls-7" x1="450.02" y1="671.38" x2="450.02" y2="702.92"/><path class="cls-7" d="M478.51,671.31a1.38,1.38,0,0,0-1.38-1.38" transform="translate(-28.35)"/><line class="cls-7" x1="396.54" y1="669.93" x2="448.71" y2="669.93"/><line class="cls-7" x1="371.11" y1="664.85" x2="474.14" y2="664.85"/><line class="cls-7" x1="371.11" y1="705.97" x2="474.14" y2="705.97"/><line class="cls-7" x1="400.03" y1="673.42" x2="420.23" y2="673.42"/><line class="cls-7" x1="421.54" y1="674.73" x2="421.54" y2="696.09"/><line class="cls-7" x1="420.23" y1="697.4" x2="400.03" y2="697.4"/><line class="cls-7" x1="398.58" y1="696.09" x2="398.58" y2="674.73"/><line class="cls-7" x1="400.03" y1="673.42" x2="400.03" y2="673.42"/><line class="cls-7" x1="425.03" y1="673.42" x2="445.23" y2="673.42"/><line class="cls-7" x1="446.68" y1="674.73" x2="446.68" y2="696.09"/><line class="cls-7" x1="445.23" y1="697.4" x2="425.03" y2="697.4"/><line class="cls-7" x1="423.72" y1="696.09" x2="423.72" y2="674.73"/><line class="cls-7" x1="425.03" y1="673.42" x2="425.03" y2="673.42"/><path class="cls-7" d="M450,674.65a1.38,1.38,0,0,0-1.38-1.38" transform="translate(-28.35)"/><path class="cls-7" d="M448.65,697.4A1.38,1.38,0,0,0,450,696" transform="translate(-28.35)"/><path class="cls-7" d="M427.07,696a1.38,1.38,0,0,0,1.38,1.38" transform="translate(-28.35)"/><path class="cls-7" d="M428.45,673.27a1.38,1.38,0,0,0-1.38,1.38" transform="translate(-28.35)"/><path class="cls-7" d="M475,674.65a1.38,1.38,0,0,0-1.39-1.38" transform="translate(-28.35)"/><path class="cls-7" d="M473.64,697.4A1.38,1.38,0,0,0,475,696" transform="translate(-28.35)"/><path class="cls-7" d="M452.07,696a1.38,1.38,0,0,0,1.38,1.38" transform="translate(-28.35)"/><path class="cls-7" d="M453.45,673.27a1.38,1.38,0,0,0-1.38,1.38" transform="translate(-28.35)"/><path class="cls-7" d="M682,29.08" transform="translate(-28.35)"/><line class="cls-7" x1="653.61" y1="29.08" x2="653.61" y2="29.08"/><line class="cls-7" x1="653.61" y1="63.38" x2="653.61" y2="63.38"/><line class="cls-7" x1="653.61" y1="63.38" x2="653.61" y2="29.08"/><path class="cls-7" d="M646.35,29.08" transform="translate(-28.35)"/><polyline class="cls-7" points="618.01 29.08 639.95 29.08 639.95 63.38"/><line class="cls-7" x1="639.95" y1="63.38" x2="618.01" y2="63.38"/><line class="cls-7" x1="618.01" y1="63.38" x2="618.01" y2="29.08"/><path class="cls-7" d="M646.35,668.33" transform="translate(-28.35)"/><polyline class="cls-7" points="618.01 668.33 639.95 668.33 639.95 705.97"/><line class="cls-7" x1="639.95" y1="705.97" x2="618.01" y2="705.97"/><line class="cls-7" x1="618.01" y1="705.97" x2="618.01" y2="668.33"/><line class="cls-5" x1="598.68" y1="444.4" x2="598.68" y2="493.23"/><line class="cls-5" x1="598.68" y1="493.23" x2="639.95" y2="493.23"/><line class="cls-5" x1="598.68" y1="309.83" x2="598.68" y2="444.4"/><line class="cls-5" x1="653.61" y1="419.4" x2="653.61" y2="419.4"/><line class="cls-5" x1="598.68" y1="158.85" x2="598.68" y2="304.46"/><polyline class="cls-5" points="618.01 668.33 639.95 668.33 639.95 705.97 618.01 705.97 618.01 668.33"/><polyline class="cls-5" points="618.01 63.38 639.95 63.38 639.95 29.08 618.01 29.08 618.01 63.38"/><polyline class="cls-5" points="653.61 63.38 653.61 63.38 653.61 29.08"/><line class="cls-5" x1="653.61" y1="29.08" x2="653.61" y2="29.08"/><line class="cls-5" x1="600.71" y1="666.88" x2="576.74" y2="666.88"/><polyline class="cls-5" points="602.17 665.86 611.03 665.86 611.03 691.29"/><line class="cls-5" x1="596.5" y1="678.5" x2="596.5" y2="687.95"/><polyline class="cls-5" points="576.88 666.88 596.5 669.2 596.5 678.5"/><line class="cls-5" x1="576.88" y1="690.28" x2="596.5" y2="687.95"/><line class="cls-5" x1="576.88" y1="667.46" x2="596.5" y2="669.79"/><line class="cls-5" x1="576.88" y1="689.69" x2="596.5" y2="687.37"/><line class="cls-5" x1="600.71" y1="690.28" x2="576.74" y2="690.28"/><line class="cls-5" x1="611.03" y1="691.29" x2="602.17" y2="691.29"/><polyline class="cls-5" points="576.88 666.88 574.12 667.17 571.65 668.19 569.47 669.79 567.73 671.97 566.42 674.44 565.84 677.2 565.84 679.96 566.42 682.72 567.73 685.19 569.47 687.37 571.65 688.97 574.12 689.99 576.88 690.28"/><polyline class="cls-5" points="576.88 667.46 574.27 667.75 571.94 668.77 569.91 670.22 568.16 672.26 567 674.58 566.42 677.2 566.42 679.96 567 682.57 568.16 684.9 569.91 686.93 571.94 688.39 574.27 689.4 576.88 689.69"/><path class="cls-5" d="M629.09,667.05a106.8,106.8,0,0,0,0,22.75" transform="translate(-28.35)"/><path class="cls-5" d="M630.59,665.72a1.53,1.53,0,0,0-1.52,1.36" transform="translate(-28.35)"/><path class="cls-5" d="M629.07,689.92a1.52,1.52,0,0,0,1.52,1.37" transform="translate(-28.35)"/><path class="cls-5" d="M635,678.43a1.24,1.24,0,1,0-1.24,1.24,1.23,1.23,0,0,0,1.24-1.24" transform="translate(-28.35)"/><line class="cls-5" x1="573.25" y1="42.89" x2="573.25" y2="66.86"/><polyline class="cls-5" points="572.23 41.43 572.23 32.57 597.66 32.57"/><line class="cls-5" x1="585.02" y1="47.1" x2="594.47" y2="47.1"/><polyline class="cls-5" points="573.25 66.72 575.58 47.1 585.02 47.1"/><line class="cls-5" x1="596.65" y1="66.72" x2="594.47" y2="47.1"/><line class="cls-5" x1="573.83" y1="66.72" x2="576.16" y2="47.1"/><line class="cls-5" x1="596.06" y1="66.72" x2="593.88" y2="47.1"/><line class="cls-5" x1="596.65" y1="42.89" x2="596.65" y2="66.86"/><line class="cls-5" x1="597.66" y1="32.57" x2="597.66" y2="41.43"/><polyline class="cls-5" points="573.25 66.72 573.69 69.48 574.56 71.95 576.16 74.13 578.34 75.87 580.81 77.18 583.57 77.76 586.47 77.76 589.09 77.18 591.71 75.87 593.74 74.13 595.34 71.95 596.36 69.48 596.65 66.72"/><polyline class="cls-5" points="573.83 66.72 574.27 69.33 575.14 71.66 576.74 73.69 578.63 75.44 581.1 76.6 583.71 77.18 586.33 77.18 588.94 76.6 591.27 75.44 593.3 73.69 594.76 71.66 595.77 69.33 596.07 66.72"/><path class="cls-5" d="M602.06,42.86a106.8,106.8,0,0,0,22.75,0" transform="translate(-28.35)"/><path class="cls-5" d="M600.72,41.36a1.54,1.54,0,0,0,1.36,1.52" transform="translate(-28.35)"/><path class="cls-5" d="M624.78,42.88a1.53,1.53,0,0,0,1.38-1.52" transform="translate(-28.35)"/><path class="cls-5" d="M613.44,36.93a1.24,1.24,0,1,0,1.24,1.23,1.24,1.24,0,0,0-1.24-1.23" transform="translate(-28.35)"/><line class="cls-10" x1="145.58" y1="719.77" x2="145.58" y2="719.77"/><polyline class="cls-10" points="145.58 719.77 121.24 719.77 131.92 719.77"/><polyline class="cls-10" points="145.58 465.76 131.92 465.76 131.92 506.88 145.58 506.88 145.58 465.76"/><polyline class="cls-10" points="145.58 249.53 131.92 249.53 131.92 290.65 145.58 290.65 145.58 249.53"/><polyline class="cls-10" points="440.87 479.42 440.87 493.23 495.8 493.23 495.8 479.42 440.87 479.42"/><polyline class="cls-10" points="440.87 263.19 440.87 276.99 495.8 276.99 495.8 263.19 440.87 263.19"/><polyline class="cls-5" points="536.49 693.47 536.49 705.97 509.02 705.97 509.02 693.47"/><line class="cls-5" x1="518.47" y1="705.97" x2="527.04" y2="705.97"/><line class="cls-5" x1="520.35" y1="695.94" x2="521.81" y2="695.94"/><line class="cls-5" x1="522.68" y1="698.41" x2="522.68" y2="696.81"/><line class="cls-5" x1="523.55" y1="695.94" x2="525" y2="695.94"/><line class="cls-5" x1="522.68" y1="694.93" x2="522.68" y2="693.33"/><path class="cls-5" d="M558.49,698.9a13.17,13.17,0,0,0,4.76-6.28" transform="translate(-28.35)"/><path class="cls-5" d="M551.13,700.7a11.53,11.53,0,0,0,7.32-1.87" transform="translate(-28.35)"/><path class="cls-5" d="M539.1,692.62a13,13,0,0,0,4.76,6.28" transform="translate(-28.35)"/><path class="cls-5" d="M543.89,698.83a11.53,11.53,0,0,0,7.32,1.87" transform="translate(-28.35)"/><path class="cls-5" d="M560.37,685.83a21.15,21.15,0,0,0-8.34-2.46" transform="translate(-28.35)"/><path class="cls-5" d="M540,687a7.93,7.93,0,0,0-2.63,6.28" transform="translate(-28.35)"/><path class="cls-5" d="M552.06,683.34a12.31,12.31,0,0,0-1.92,0" transform="translate(-28.35)"/><path class="cls-5" d="M543.42,698.35a46,46,0,0,0,15.36,0" transform="translate(-28.35)"/><path class="cls-5" d="M538.24,691.33a20,20,0,0,0,3.89,12.24" transform="translate(-28.35)"/><path class="cls-5" d="M543.21,704.46a31.64,31.64,0,0,0,7.86.93" transform="translate(-28.35)"/><path class="cls-5" d="M542.09,703.58a2.22,2.22,0,0,0,1.25.87" transform="translate(-28.35)"/><path class="cls-5" d="M543.47,703.47a54.06,54.06,0,0,0,7.73.61" transform="translate(-28.35)"/><path class="cls-5" d="M538.09,691.43A17.89,17.89,0,0,0,542,702.85" transform="translate(-28.35)"/><path class="cls-5" d="M542,702.78a2.13,2.13,0,0,0,1.38.84" transform="translate(-28.35)"/><path class="cls-5" d="M560.22,702.87a17.82,17.82,0,0,0,3.88-11.41" transform="translate(-28.35)"/><path class="cls-5" d="M560.2,703.58a19.84,19.84,0,0,0,3.9-12.22" transform="translate(-28.35)"/><path class="cls-5" d="M551.06,704.08a54,54,0,0,0,7.73-.59" transform="translate(-28.35)"/><path class="cls-5" d="M551.08,705.39a31.58,31.58,0,0,0,7.86-.92" transform="translate(-28.35)"/><path class="cls-5" d="M558.82,703.62a2.21,2.21,0,0,0,1.38-.83" transform="translate(-28.35)"/><path class="cls-5" d="M559,704.45a2.26,2.26,0,0,0,1.24-.86" transform="translate(-28.35)"/><path class="cls-5" d="M565,693.29a7.89,7.89,0,0,0-2.63-6.28" transform="translate(-28.35)"/><path class="cls-5" d="M562.22,687.17a10.41,10.41,0,0,0-1.82-1.27" transform="translate(-28.35)"/><path class="cls-5" d="M541.8,685.9a10.88,10.88,0,0,0-1.83,1.27" transform="translate(-28.35)"/><path class="cls-5" d="M550.17,683.37a21.15,21.15,0,0,0-8.34,2.46" transform="translate(-28.35)"/><path class="cls-5" d="M554.87,685.39a14.82,14.82,0,0,0-7.54,0" transform="translate(-28.35)"/><path class="cls-5" d="M563.22,692.54a4.61,4.61,0,0,0-1.42-3.66" transform="translate(-28.35)"/><path class="cls-5" d="M561.69,688.85a14.3,14.3,0,0,0-6.84-3.41" transform="translate(-28.35)"/><path class="cls-5" d="M540.55,688.88a4.58,4.58,0,0,0-1.43,3.66" transform="translate(-28.35)"/><path class="cls-5" d="M547.35,685.44a14.38,14.38,0,0,0-6.85,3.41" transform="translate(-28.35)"/><path class="cls-5" d="M551.1,693.91a2,2,0,1,0,1.82,2,1.9,1.9,0,0,0-1.82-2" transform="translate(-28.35)"/><path class="cls-5" d="M551.1,694.49a1.39,1.39,0,1,0,1.23,1.38,1.32,1.32,0,0,0-1.23-1.38" transform="translate(-28.35)"/><line class="cls-5" x1="475.16" y1="33.73" x2="510.18" y2="33.73"/><line class="cls-5" x1="514.25" y1="37.8" x2="514.25" y2="125.28"/><line class="cls-5" x1="471.09" y1="37.8" x2="471.09" y2="125.28"/><line class="cls-5" x1="518.47" y1="149.99" x2="518.47" y2="29.81"/><polyline class="cls-5" points="518.47 149.99 466.88 149.99 466.88 29.81 518.47 29.81"/><line class="cls-5" x1="478.21" y1="111.19" x2="478.21" y2="42.74"/><line class="cls-5" x1="480.25" y1="40.71" x2="505.1" y2="40.71"/><line class="cls-5" x1="507.13" y1="111.19" x2="507.13" y2="42.74"/><line class="cls-5" x1="491.44" y1="54.8" x2="488.82" y2="54.8"/><line class="cls-5" x1="492.6" y1="53.64" x2="492.6" y2="51.17"/><line class="cls-5" x1="493.91" y1="54.8" x2="496.52" y2="54.8"/><line class="cls-5" x1="492.6" y1="56.11" x2="492.6" y2="58.58"/><path class="cls-5" d="M499.44,125.21c0,11.6,9.66,21,21.58,21s21.58-9.4,21.58-21" transform="translate(-28.35)"/><path class="cls-5" d="M542.74,37.73a4.07,4.07,0,0,0-4.14-4" transform="translate(-28.35)"/><path class="cls-5" d="M503.58,33.73a4.07,4.07,0,0,0-4.14,4" transform="translate(-28.35)"/><path class="cls-5" d="M523.13,54.73A2.11,2.11,0,1,0,521,56.84a2.12,2.12,0,0,0,2.11-2.11" transform="translate(-28.35)"/><path class="cls-5" d="M506.56,111.11a14.47,14.47,0,0,0,28.92,0" transform="translate(-28.35)"/><path class="cls-5" d="M508.67,40.71a2,2,0,0,0-2.11,2" transform="translate(-28.35)"/><path class="cls-5" d="M535.62,42.67a2,2,0,0,0-2.1-2" transform="translate(-28.35)"/><path class="cls-5" d="M523.85,54.73A2.84,2.84,0,1,0,521,57.56a2.83,2.83,0,0,0,2.83-2.83" transform="translate(-28.35)"/><line class="cls-5" x1="605.66" y1="110.9" x2="639.95" y2="110.9"/><line class="cls-5" x1="605.66" y1="152.02" x2="605.66" y2="110.9"/><line class="cls-5" x1="639.95" y1="152.02" x2="605.66" y2="152.02"/><line class="cls-5" x1="639.95" y1="110.9" x2="639.95" y2="152.02"/><polyline class="cls-5" points="615.68 135.6 616.26 127.46 618.59 132.98 621.79 127.46 621.21 135.6"/><polyline class="cls-5" points="629.49 134.29 628.03 135.6 625.27 135.6 623.97 134.29 624.4 128.77 625.86 127.46 628.62 127.46 629.92 128.77"/><polyline class="cls-5" points="555.52 45.5 555.52 29.81 518.47 29.81 518.47 45.5"/><line class="cls-5" x1="531.11" y1="29.81" x2="542.73" y2="29.81"/><line class="cls-5" x1="533.87" y1="42.31" x2="535.76" y2="42.31"/><line class="cls-5" x1="536.92" y1="39.25" x2="536.92" y2="41.29"/><line class="cls-5" x1="538.08" y1="42.31" x2="540.12" y2="42.31"/><line class="cls-5" x1="536.92" y1="43.47" x2="536.92" y2="45.5"/><path class="cls-5" d="M581.55,46.35a16.46,16.46,0,0,0-6.39-7.8" transform="translate(-28.35)"/><path class="cls-5" d="M575.16,38.57a16.5,16.5,0,0,0-9.84-2.31" transform="translate(-28.35)"/><path class="cls-5" d="M555.52,38.55a16.46,16.46,0,0,0-6.39,7.8" transform="translate(-28.35)"/><path class="cls-5" d="M565.36,36.26a16.5,16.5,0,0,0-9.84,2.31" transform="translate(-28.35)"/><path class="cls-5" d="M566.7,57.77a30.22,30.22,0,0,0,11.24-3.06" transform="translate(-28.35)"/><path class="cls-5" d="M546.82,45.46a9.37,9.37,0,0,0,3.5,7.72" transform="translate(-28.35)"/><path class="cls-5" d="M564,57.81a18.8,18.8,0,0,0,2.6,0" transform="translate(-28.35)"/><path class="cls-5" d="M575.72,39.18a68.1,68.1,0,0,0-20.75,0" transform="translate(-28.35)"/><path class="cls-5" d="M553.09,32.7a23.39,23.39,0,0,0-5.26,15.17" transform="translate(-28.35)"/><path class="cls-5" d="M565.4,30.39a46.18,46.18,0,0,0-10.61,1.15" transform="translate(-28.35)"/><path class="cls-5" d="M554.77,31.63A3.1,3.1,0,0,0,553,32.7" transform="translate(-28.35)"/><path class="cls-5" d="M565.33,31.84a79.5,79.5,0,0,0-10.46.76" transform="translate(-28.35)"/><path class="cls-5" d="M552.93,33.72a21,21,0,0,0-5.24,14.17" transform="translate(-28.35)"/><path class="cls-5" d="M554.88,32.6a3.1,3.1,0,0,0-1.91,1" transform="translate(-28.35)"/><path class="cls-5" d="M583,47.86a21,21,0,0,0-5.26-14.16" transform="translate(-28.35)"/><path class="cls-5" d="M583,47.83a23.3,23.3,0,0,0-5.28-15.15" transform="translate(-28.35)"/><path class="cls-5" d="M575.85,32.58a81.36,81.36,0,0,0-10.46-.74" transform="translate(-28.35)"/><path class="cls-5" d="M576,31.52a46.81,46.81,0,0,0-10.62-1.13" transform="translate(-28.35)"/><path class="cls-5" d="M577.71,33.62a3.13,3.13,0,0,0-1.92-1" transform="translate(-28.35)"/><path class="cls-5" d="M577.64,32.7a3.1,3.1,0,0,0-1.73-1.07" transform="translate(-28.35)"/><path class="cls-5" d="M580.36,53.18a9.37,9.37,0,0,0,3.5-7.72" transform="translate(-28.35)"/><path class="cls-5" d="M578,54.79a14.86,14.86,0,0,0,2.47-1.59" transform="translate(-28.35)"/><path class="cls-5" d="M550.4,53.2a14.77,14.77,0,0,0,2.46,1.59" transform="translate(-28.35)"/><path class="cls-5" d="M552.89,54.71a30.16,30.16,0,0,0,11.24,3.06" transform="translate(-28.35)"/><path class="cls-5" d="M560.24,55.21a21.71,21.71,0,0,0,10.2,0" transform="translate(-28.35)"/><path class="cls-5" d="M579.75,51a5.61,5.61,0,0,0,1.93-4.62" transform="translate(-28.35)"/><path class="cls-5" d="M570.43,55.22A20.05,20.05,0,0,0,579.68,51" transform="translate(-28.35)"/><path class="cls-5" d="M549,46.35A5.61,5.61,0,0,0,550.93,51" transform="translate(-28.35)"/><path class="cls-5" d="M551,51a20.05,20.05,0,0,0,9.25,4.24" transform="translate(-28.35)"/><path class="cls-5" d="M567.74,42.23a2.4,2.4,0,1,0-2.4,2.4,2.4,2.4,0,0,0,2.4-2.4" transform="translate(-28.35)"/><path class="cls-5" d="M567,42.23a1.67,1.67,0,1,0-1.67,1.67A1.67,1.67,0,0,0,567,42.23" transform="translate(-28.35)"/><line class="cls-5" x1="653.61" y1="110.9" x2="653.61" y2="152.02"/><line class="cls-5" x1="653.61" y1="152.02" x2="653.61" y2="152.02"/><line class="cls-5" x1="653.61" y1="110.9" x2="653.61" y2="110.9"/></svg>