<svg id="_27" data-name="27" xmlns="http://www.w3.org/2000/svg" viewBox="0 0 443.78 369.73"><defs><style>.cls-1,.cls-4,.cls-6{fill:none;}.cls-1{stroke:#969696;stroke-miterlimit:10;}.cls-2{isolation:isolate;font-size:12px;fill:#969696;}.cls-2,.cls-7{font-family:PTSans-Regular, PT Sans;}.cls-3{letter-spacing:-0.01em;}.cls-4,.cls-8{stroke:#000;}.cls-4,.cls-6{stroke-linecap:round;}.cls-4,.cls-6,.cls-8{stroke-linejoin:round;stroke-width:0.5px;}.cls-5{fill:#fff;}.cls-6{stroke:#fff;}.cls-7{font-size:17px;}</style></defs><title>5floor_27flat</title><line class="cls-1" x1="203.8" y1="2" x2="203.8" y2="10.8"/><polyline class="cls-1" points="207.21 5.3 203.71 1.8 200.21 5.3"/><text class="cls-2" transform="translate(213.04 10.2)"><tspan class="cls-3">у</tspan><tspan x="5.42" y="0">лица</tspan></text><polyline class="cls-4" points="7.69 264.84 96.73 264.84 100.57 264.84 100.57 295.32 148.33 295.32 148.33 121.08 148.33 86.04 7.69 86.04 7.69 264.84"/><polyline class="cls-4" points="96.73 268.68 7.69 268.68 7.69 307.32 28.33 307.32 28.33 359.88 96.73 359.88 96.73 268.68"/><line class="cls-4" x1="18.97" y1="274.92" x2="18.97" y2="297.24"/><line class="cls-4" x1="21.61" y1="299.64" x2="79.45" y2="299.64"/><line class="cls-4" x1="21.61" y1="272.28" x2="79.45" y2="272.28"/><line class="cls-4" x1="95.77" y1="302.28" x2="16.33" y2="302.28"/><polyline class="cls-4" points="95.77 302.28 95.77 269.64 16.33 269.64 16.33 302.28"/><line class="cls-4" x1="70.09" y1="276.84" x2="24.73" y2="276.84"/><line class="cls-4" x1="23.53" y1="278.04" x2="23.53" y2="293.88"/><line class="cls-4" x1="70.09" y1="295.08" x2="24.73" y2="295.08"/><line class="cls-4" x1="32.89" y1="285.24" x2="32.89" y2="283.56"/><line class="cls-4" x1="31.93" y1="285.96" x2="30.49" y2="285.96"/><line class="cls-4" x1="32.89" y1="286.68" x2="32.89" y2="288.36"/><line class="cls-4" x1="33.61" y1="285.96" x2="35.29" y2="285.96"/><polyline class="cls-4" points="79.45 299.64 82.09 299.4 84.49 298.92 86.89 297.72 88.81 296.04 90.73 294.36 91.93 292.2 92.89 289.8 93.37 287.16 93.37 284.76 92.89 282.12 91.93 279.72 90.73 277.56 88.81 275.88 86.89 274.2 84.49 273.24 82.09 272.52 79.45 272.28"/><polyline class="cls-4" points="18.97 297.24 18.97 297.48 18.97 297.96 19.21 298.44 19.45 298.92 19.93 299.16 20.17 299.4 20.65 299.64 21.13 299.64 21.61 299.64"/><polyline class="cls-4" points="21.61 272.28 21.13 272.28 20.65 272.28 20.17 272.52 19.93 272.76 19.45 273.24 19.21 273.48 18.97 273.96 18.97 274.44 18.97 274.92"/><polyline class="cls-4" points="34.33 285.96 34.09 285.72 34.09 285.48 34.09 285.24 33.85 285 33.61 284.76 33.37 284.76 33.13 284.76 32.89 284.52 32.65 284.52 32.41 284.76 32.17 284.76 31.93 285 31.69 285.24 31.45 285.48 31.45 285.96 31.45 286.2 31.45 286.44 31.69 286.68 31.69 286.92 31.93 286.92 32.17 287.16 32.41 287.16 32.65 287.4 32.89 287.4 33.13 287.4 33.37 287.16 33.61 287.16 33.85 286.92 34.09 286.68 34.09 286.44 34.09 286.2 34.33 285.96"/><polyline class="cls-4" points="70.09 295.08 72.01 295.08 73.69 294.6 75.13 293.88 76.57 292.68 77.53 291.48 78.49 290.04 79.21 288.6 79.45 286.92 79.45 285.24 79.21 283.56 78.49 281.88 77.53 280.44 76.57 279.24 75.13 278.04 73.69 277.32 72.01 276.84 70.09 276.84"/><polyline class="cls-4" points="24.73 276.84 24.49 276.84 24.25 276.84 24.01 277.08 23.77 277.32 23.53 277.56 23.53 277.8 23.53 278.04"/><polyline class="cls-4" points="23.53 293.88 23.53 294.12 23.53 294.36 23.77 294.6 24.01 294.84 24.25 295.08 24.49 295.08 24.73 295.08"/><polyline class="cls-4" points="34.57 285.96 34.57 285.72 34.57 285.24 34.33 285 34.09 284.76 33.85 284.52 33.61 284.28 33.37 284.28 32.89 284.04 32.65 284.28 32.17 284.28 31.93 284.28 31.69 284.52 31.45 284.76 31.21 285.24 30.97 285.48 30.97 285.72 30.97 286.2 30.97 286.44 31.21 286.92 31.45 287.16 31.69 287.4 31.93 287.64 32.17 287.64 32.65 287.88 32.89 287.88 33.37 287.64 33.61 287.64 33.85 287.4 34.09 287.16 34.33 286.92 34.57 286.68 34.57 286.44 34.57 285.96"/><polyline class="cls-4" points="39.13 332.52 28.33 332.52 28.33 307.32 39.13 307.32"/><line class="cls-4" x1="28.33" y1="315.96" x2="28.33" y2="323.88"/><line class="cls-4" x1="36.97" y1="317.88" x2="36.97" y2="319.08"/><line class="cls-4" x1="34.81" y1="320.04" x2="36.25" y2="320.04"/><line class="cls-4" x1="36.97" y1="320.76" x2="36.97" y2="321.96"/><line class="cls-4" x1="37.69" y1="320.04" x2="39.13" y2="320.04"/><path class="cls-4" d="M34.43,354.79a11.2,11.2,0,0,0,5.28,4.33" transform="translate(0 -28.34)"/><path class="cls-4" d="M32.93,348.08a11.18,11.18,0,0,0,1.56,6.66" transform="translate(0 -28.34)"/><path class="cls-4" d="M39.71,337.16a11.2,11.2,0,0,0-5.28,4.33" transform="translate(0 -28.34)"/><path class="cls-4" d="M34.49,341.54a11.17,11.17,0,0,0-1.56,6.65" transform="translate(0 -28.34)"/><path class="cls-4" d="M45.39,356.72a20.61,20.61,0,0,0,2.08-7.66" transform="translate(0 -28.34)"/><path class="cls-4" d="M44.21,338A6.35,6.35,0,0,0,39,335.67" transform="translate(0 -28.34)"/><path class="cls-4" d="M47.5,349.14a12.92,12.92,0,0,0,0-1.76" transform="translate(0 -28.34)"/><path class="cls-4" d="M34.64,341.17a46.18,46.18,0,0,0,0,14.18" transform="translate(0 -28.34)"/><path class="cls-4" d="M40.72,336.14a16,16,0,0,0-10.37,3.6" transform="translate(0 -28.34)"/><path class="cls-4" d="M29.59,341a31.32,31.32,0,0,0-.78,7.22" transform="translate(0 -28.34)"/><path class="cls-4" d="M30.28,339.72a2,2,0,0,0-.7,1.13" transform="translate(0 -28.34)"/><path class="cls-4" d="M30.28,341.05a55,55,0,0,0-.51,7.14" transform="translate(0 -28.34)"/><path class="cls-4" d="M40.64,336.14A14.26,14.26,0,0,0,31,339.71" transform="translate(0 -28.34)"/><path class="cls-4" d="M30.94,339.77a2,2,0,0,0-.67,1.25" transform="translate(0 -28.34)"/><path class="cls-4" d="M31,356.56a14.34,14.34,0,0,0,9.63,3.58" transform="translate(0 -28.34)"/><path class="cls-4" d="M30.33,356.52a15.94,15.94,0,0,0,10.37,3.62" transform="translate(0 -28.34)"/><path class="cls-4" d="M29.77,348.25a55,55,0,0,0,.5,7.14" transform="translate(0 -28.34)"/><path class="cls-4" d="M28.81,348.22a31.72,31.72,0,0,0,.77,7.21" transform="translate(0 -28.34)"/><path class="cls-4" d="M30.27,355.26a2.06,2.06,0,0,0,.67,1.25" transform="translate(0 -28.34)"/><path class="cls-4" d="M29.58,355.43a2.07,2.07,0,0,0,.7,1.13" transform="translate(0 -28.34)"/><path class="cls-4" d="M39,360.85a6.35,6.35,0,0,0,5.23-2.37" transform="translate(0 -28.34)"/><path class="cls-4" d="M44.38,358.32a9.58,9.58,0,0,0,1.09-1.67" transform="translate(0 -28.34)"/><path class="cls-4" d="M45.47,339.63A10.05,10.05,0,0,0,44.38,338" transform="translate(0 -28.34)"/><path class="cls-4" d="M47.47,347.22a20.61,20.61,0,0,0-2.08-7.66" transform="translate(0 -28.34)"/><path class="cls-4" d="M45.68,351.72a14.72,14.72,0,0,0,0-6.92" transform="translate(0 -28.34)"/><path class="cls-4" d="M39.71,359.17a3.73,3.73,0,0,0,3.08-1.28" transform="translate(0 -28.34)"/><path class="cls-4" d="M42.73,358a13.8,13.8,0,0,0,2.91-6.34" transform="translate(0 -28.34)"/><path class="cls-4" d="M42.79,338.39a3.73,3.73,0,0,0-3.08-1.28" transform="translate(0 -28.34)"/><path class="cls-4" d="M45.64,344.66a13.8,13.8,0,0,0-2.91-6.34" transform="translate(0 -28.34)"/><path class="cls-4" d="M38.41,348.26a1.56,1.56,0,1,0-1.56,1.56,1.56,1.56,0,0,0,1.56-1.56" transform="translate(0 -28.34)"/><path class="cls-4" d="M37.93,348.26a1.08,1.08,0,1,0-1.08,1.08,1.08,1.08,0,0,0,1.08-1.08" transform="translate(0 -28.34)"/><line class="cls-4" x1="35.53" y1="349.32" x2="51.85" y2="349.32"/><polyline class="cls-4" points="34.57 350.04 28.33 350.04 28.33 332.52"/><line class="cls-4" x1="38.41" y1="341.16" x2="38.41" y2="334.92"/><polyline class="cls-4" points="51.85 349.32 38.41 347.64 38.41 341.16"/><line class="cls-4" x1="51.85" y1="333.24" x2="38.41" y2="334.92"/><line class="cls-4" x1="51.85" y1="348.84" x2="38.41" y2="347.16"/><line class="cls-4" x1="51.85" y1="333.72" x2="38.41" y2="335.16"/><line class="cls-4" x1="35.53" y1="333.24" x2="51.85" y2="333.24"/><line class="cls-4" x1="28.33" y1="332.52" x2="34.57" y2="332.52"/><polyline class="cls-4" points="51.85 349.32 53.53 349.08 55.21 348.36 56.89 347.16 58.09 345.72 58.81 344.04 59.29 342.12 59.29 340.2 58.81 338.52 58.09 336.6 56.89 335.16 55.21 334.2 53.53 333.48 51.85 333.24"/><polyline class="cls-4" points="51.85 348.84 53.53 348.6 55.21 347.88 56.41 346.92 57.61 345.48 58.57 344.04 58.81 342.12 58.81 340.44 58.57 338.52 57.61 336.84 56.41 335.64 55.21 334.44 53.53 333.96 51.85 333.72"/><polyline class="cls-4" points="34.57 350.04 34.81 349.8 35.05 349.8 35.29 349.56 35.53 349.32 35.53 349.08 36.01 341.16 35.53 333.48 35.53 333.24 35.29 333 35.29 332.76 35.05 332.76 34.81 332.76 34.81 332.52 34.57 332.52"/><polyline class="cls-4" points="33.13 341.16 33.13 341.4 33.13 341.64 32.89 341.64 32.89 341.88 32.65 341.88 32.65 342.12 32.41 342.12 32.17 342.12 31.93 342.12 31.93 341.88 31.69 341.88 31.45 341.64 31.45 341.4 31.45 341.16 31.45 340.92 31.69 340.68 31.93 340.44 32.17 340.44 32.41 340.44 32.65 340.44 32.65 340.68 32.89 340.68 32.89 340.92 33.13 340.92 33.13 341.16"/><polyline class="cls-4" points="351.61 299.16 148.33 299.16 100.57 299.16 100.57 359.88 351.61 359.88 351.61 299.16"/><polyline class="cls-4" points="152.17 121.08 152.17 252.12 157.69 252.12 157.69 295.32 300.73 295.32 300.73 252.12 306.25 252.12 306.25 129.48 300.73 129.48 300.73 86.04 157.69 86.04 157.69 121.08 152.17 121.08"/><polyline class="cls-4" points="310.09 129.48 310.09 295.32 434.17 295.32 434.17 252.12 434.17 129.48 310.09 129.48"/><polyline class="cls-4" points="411.61 359.88 411.61 299.16 355.45 299.16 355.45 359.88 411.61 359.88"/><polyline class="cls-4" points="317.53 112.68 426.73 112.68 426.73 86.04 426.73 66.6 317.53 66.6 317.53 86.04 317.53 112.68"/><path d="M3.13,89.42l33.6,5.52H3.13Zm33.6,0H3.13l33.6,5.52Z" transform="translate(0 -28.34)"/><path class="cls-4" d="M3.13,89.42l33.6,5.52H3.13Zm33.6,0H3.13l33.6,5.52Z" transform="translate(0 -28.34)"/><path d="M170.89,89.42h0Z" transform="translate(0 -28.34)"/><path class="cls-4" d="M170.89,89.42h0Z" transform="translate(0 -28.34)"/><path d="M116.41,89.42l54.48,5.52H116.41Zm54.48,0H116.41l54.48,5.52Z" transform="translate(0 -28.34)"/><path class="cls-4" d="M116.41,89.42l54.48,5.52H116.41Zm54.48,0H116.41l54.48,5.52Z" transform="translate(0 -28.34)"/><path d="M213.85,89.42l36.24,5.52H213.85Zm36.24,0H213.85l36.24,5.52Z" transform="translate(0 -28.34)"/><path class="cls-4" d="M213.85,89.42l36.24,5.52H213.85Zm36.24,0H213.85l36.24,5.52Z" transform="translate(0 -28.34)"/><path d="M215.77,94.94h0Zm0,0Z" transform="translate(0 -28.34)"/><path class="cls-4" d="M215.77,94.94h0Zm0,0Z" transform="translate(0 -28.34)"/><path d="M317.53,89.42h0Z" transform="translate(0 -28.34)"/><path class="cls-4" d="M317.53,89.42h0Z" transform="translate(0 -28.34)"/><path d="M293.05,89.42l24.48,5.52H293.05Zm24.48,0H293.05l24.48,5.52Z" transform="translate(0 -28.34)"/><path class="cls-4" d="M293.05,89.42l24.48,5.52H293.05Zm24.48,0H293.05l24.48,5.52Z" transform="translate(0 -28.34)"/><path d="M295,94.94h0Zm0,0Z" transform="translate(0 -28.34)"/><path class="cls-4" d="M295,94.94h0Zm0,0Z" transform="translate(0 -28.34)"/><path class="cls-5" d="M3.13,94.94l31.92.48H3.13Zm31.92,0H3.13l31.92.48Z" transform="translate(0 -28.34)"/><path class="cls-6" d="M3.13,94.94l31.92.48H3.13Zm31.92,0H3.13l31.92.48Z" transform="translate(0 -28.34)"/><path class="cls-5" d="M169,95.42H118.33v-.48Zm0,0Z" transform="translate(0 -28.34)"/><path class="cls-6" d="M169,95.42H118.33v-.48Zm0,0Z" transform="translate(0 -28.34)"/><polygon class="cls-5" points="118.33 66.6 168.97 66.6 168.97 67.08 118.33 66.6"/><polygon class="cls-6" points="118.33 66.6 168.97 66.6 168.97 67.08 118.33 66.6"/><path class="cls-5" d="M248.17,95.42h-32.4v-.48Zm0,0Z" transform="translate(0 -28.34)"/><path class="cls-6" d="M248.17,95.42h-32.4v-.48Zm0,0Z" transform="translate(0 -28.34)"/><polygon class="cls-5" points="215.77 66.6 248.17 66.6 248.17 67.08 215.77 66.6"/><polygon class="cls-6" points="215.77 66.6 248.17 66.6 248.17 67.08 215.77 66.6"/><path class="cls-5" d="M317.05,94.94h0Z" transform="translate(0 -28.34)"/><path class="cls-6" d="M317.05,94.94h0Z" transform="translate(0 -28.34)"/><path class="cls-5" d="M295,94.94l22.08.48H295Zm22.08,0H295l22.08.48Z" transform="translate(0 -28.34)"/><path class="cls-6" d="M295,94.94l22.08.48H295Zm22.08,0H295l22.08.48Z" transform="translate(0 -28.34)"/><path class="cls-5" d="M317.05,94.94l.48.48h-.48Zm.48,0h-.48l.48.48Z" transform="translate(0 -28.34)"/><path class="cls-6" d="M317.05,94.94l.48.48h-.48Zm.48,0h-.48l.48.48Z" transform="translate(0 -28.34)"/><path d="M3.13,95.42l31.92,1.92H3.13Zm31.92,0H3.13l31.92,1.92Z" transform="translate(0 -28.34)"/><path class="cls-4" d="M3.13,95.42l31.92,1.92H3.13Zm31.92,0H3.13l31.92,1.92Z" transform="translate(0 -28.34)"/><path d="M3.13,97.34l31.92,5.28H3.13Zm31.92,0H3.13l31.92,5.28Z" transform="translate(0 -28.34)"/><path class="cls-4" d="M3.13,97.34l31.92,5.28H3.13Zm31.92,0H3.13l31.92,5.28Z" transform="translate(0 -28.34)"/><path d="M169,95.42h0Z" transform="translate(0 -28.34)"/><path class="cls-4" d="M169,95.42h0Z" transform="translate(0 -28.34)"/><path d="M118.33,97.34h0Zm50.64,0h0Zm-50.64-1.92L169,97.34H118.33Zm50.64,0H118.33L169,97.34Z" transform="translate(0 -28.34)"/><path class="cls-4" d="M118.33,97.34h0Zm50.64,0h0Zm-50.64-1.92L169,97.34H118.33Zm50.64,0H118.33L169,97.34Z" transform="translate(0 -28.34)"/><path d="M118.33,97.34,169,102.62H118.33Zm50.64,0H118.33L169,102.62Z" transform="translate(0 -28.34)"/><path class="cls-4" d="M118.33,97.34,169,102.62H118.33Zm50.64,0H118.33L169,102.62Z" transform="translate(0 -28.34)"/><path d="M248.17,95.42h0Z" transform="translate(0 -28.34)"/><path class="cls-4" d="M248.17,95.42h0Z" transform="translate(0 -28.34)"/><path d="M215.77,97.34h0Zm32.4,0h0Zm-32.4-1.92,32.4,1.92h-32.4Zm32.4,0h-32.4l32.4,1.92Z" transform="translate(0 -28.34)"/><path class="cls-4" d="M215.77,97.34h0Zm32.4,0h0Zm-32.4-1.92,32.4,1.92h-32.4Zm32.4,0h-32.4l32.4,1.92Z" transform="translate(0 -28.34)"/><path d="M248.17,102.62h-32.4V97.34Zm0,0Z" transform="translate(0 -28.34)"/><path class="cls-4" d="M248.17,102.62h-32.4V97.34Zm0,0Z" transform="translate(0 -28.34)"/><polygon points="215.77 69 248.17 69 248.17 74.28 215.77 69"/><polygon class="cls-4" points="215.77 69 248.17 69 248.17 74.28 215.77 69"/><path d="M295,95.42l22.08,1.92H295Zm22.08,0H295l22.08,1.92Z" transform="translate(0 -28.34)"/><path class="cls-4" d="M295,95.42l22.08,1.92H295Zm22.08,0H295l22.08,1.92Z" transform="translate(0 -28.34)"/><path d="M295,97.34l22.08,5.28H295Zm22.08,0H295l22.08,5.28Z" transform="translate(0 -28.34)"/><path class="cls-4" d="M295,97.34l22.08,5.28H295Zm22.08,0H295l22.08,5.28Z" transform="translate(0 -28.34)"/><path class="cls-5" d="M317.05,95.42l.48,7.2h-.48Zm.48,0h-.48l.48,7.2Z" transform="translate(0 -28.34)"/><path class="cls-6" d="M317.05,95.42l.48,7.2h-.48Zm.48,0h-.48l.48,7.2Z" transform="translate(0 -28.34)"/><path d="M7.69,102.62h0Z" transform="translate(0 -28.34)"/><path class="cls-4" d="M7.69,102.62h0Z" transform="translate(0 -28.34)"/><path d="M7.69,114.38H3.13V102.62Zm0,0Z" transform="translate(0 -28.34)"/><path class="cls-4" d="M7.69,114.38H3.13V102.62Zm0,0Z" transform="translate(0 -28.34)"/><polygon points="3.13 74.28 7.69 74.28 7.69 86.04 3.13 74.28"/><polygon class="cls-4" points="3.13 74.28 7.69 74.28 7.69 86.04 3.13 74.28"/><path d="M7.69,102.62l27.36,11.76H7.69Zm27.36,0H7.69l27.36,11.76Z" transform="translate(0 -28.34)"/><path class="cls-4" d="M7.69,102.62l27.36,11.76H7.69Zm27.36,0H7.69l27.36,11.76Z" transform="translate(0 -28.34)"/><path d="M148.33,114.38h-30V102.62Zm0,0Z" transform="translate(0 -28.34)"/><path class="cls-4" d="M148.33,114.38h-30V102.62Zm0,0Z" transform="translate(0 -28.34)"/><polygon points="118.33 74.28 148.33 74.28 148.33 86.04 118.33 74.28"/><polygon class="cls-4" points="118.33 74.28 148.33 74.28 148.33 86.04 118.33 74.28"/><path d="M157.69,102.62h0Z" transform="translate(0 -28.34)"/><path class="cls-4" d="M157.69,102.62h0Z" transform="translate(0 -28.34)"/><path d="M157.69,114.38h-9.36V102.62Zm0,0Z" transform="translate(0 -28.34)"/><path class="cls-4" d="M157.69,114.38h-9.36V102.62Zm0,0Z" transform="translate(0 -28.34)"/><polygon points="148.33 74.28 157.69 74.28 157.69 86.04 148.33 74.28"/><polygon class="cls-4" points="148.33 74.28 157.69 74.28 157.69 86.04 148.33 74.28"/><path d="M169,114.38H157.69V102.62Zm0,0Z" transform="translate(0 -28.34)"/><path class="cls-4" d="M169,114.38H157.69V102.62Zm0,0Z" transform="translate(0 -28.34)"/><polygon points="157.69 74.28 168.97 74.28 168.97 86.04 157.69 74.28"/><polygon class="cls-4" points="157.69 74.28 168.97 74.28 168.97 86.04 157.69 74.28"/><path d="M215.77,102.62l32.4,11.76h-32.4Zm32.4,0h-32.4l32.4,11.76Z" transform="translate(0 -28.34)"/><path class="cls-4" d="M215.77,102.62l32.4,11.76h-32.4Zm32.4,0h-32.4l32.4,11.76Z" transform="translate(0 -28.34)"/><path d="M300.73,114.38H295V102.62Zm0,0Z" transform="translate(0 -28.34)"/><path class="cls-4" d="M300.73,114.38H295V102.62Zm0,0Z" transform="translate(0 -28.34)"/><polygon points="294.97 74.28 300.73 74.28 300.73 86.04 294.97 74.28"/><polygon class="cls-4" points="294.97 74.28 300.73 74.28 300.73 86.04 294.97 74.28"/><path d="M310.09,102.62h0Z" transform="translate(0 -28.34)"/><path class="cls-4" d="M310.09,102.62h0Z" transform="translate(0 -28.34)"/><path d="M310.09,114.38h-9.36V102.62Zm0,0Z" transform="translate(0 -28.34)"/><path class="cls-4" d="M310.09,114.38h-9.36V102.62Zm0,0Z" transform="translate(0 -28.34)"/><polygon points="300.73 74.28 310.09 74.28 310.09 86.04 300.73 74.28"/><polygon class="cls-4" points="300.73 74.28 310.09 74.28 310.09 86.04 300.73 74.28"/><path d="M317.05,102.62h0Z" transform="translate(0 -28.34)"/><path class="cls-4" d="M317.05,102.62h0Z" transform="translate(0 -28.34)"/><path d="M317.05,114.38h-7V102.62Zm0,0Z" transform="translate(0 -28.34)"/><path class="cls-4" d="M317.05,114.38h-7V102.62Zm0,0Z" transform="translate(0 -28.34)"/><polygon points="310.09 74.28 317.05 74.28 317.05 86.04 310.09 74.28"/><polygon class="cls-4" points="310.09 74.28 317.05 74.28 317.05 86.04 310.09 74.28"/><path class="cls-5" d="M317.05,102.62l.48,11.76h-.48Zm.48,0h-.48l.48,11.76Z" transform="translate(0 -28.34)"/><path class="cls-6" d="M317.05,102.62l.48,11.76h-.48Zm.48,0h-.48l.48,11.76Z" transform="translate(0 -28.34)"/><line class="cls-4" x1="168.97" y1="66.6" x2="118.33" y2="66.6"/><line class="cls-4" x1="317.05" y1="66.6" x2="294.97" y2="66.6"/><line class="cls-4" x1="248.17" y1="66.6" x2="215.77" y2="66.6"/><line class="cls-4" x1="35.05" y1="66.6" x2="3.13" y2="66.6"/><line class="cls-4" x1="317.53" y1="66.6" x2="317.05" y2="66.6"/><line class="cls-4" x1="168.97" y1="67.08" x2="118.33" y2="67.08"/><line class="cls-4" x1="317.05" y1="67.08" x2="294.97" y2="67.08"/><line class="cls-4" x1="248.17" y1="67.08" x2="215.77" y2="67.08"/><line class="cls-4" x1="35.05" y1="67.08" x2="3.13" y2="67.08"/><line class="cls-4" x1="317.53" y1="74.28" x2="317.53" y2="67.08"/><line class="cls-4" x1="317.05" y1="67.08" x2="317.05" y2="74.28"/><line class="cls-4" x1="7.69" y1="86.04" x2="7.69" y2="74.28"/><line class="cls-4" x1="157.69" y1="86.04" x2="157.69" y2="74.28"/><line class="cls-4" x1="148.33" y1="74.28" x2="148.33" y2="86.04"/><line class="cls-4" x1="300.73" y1="74.28" x2="300.73" y2="86.04"/><line class="cls-4" x1="310.09" y1="74.28" x2="310.09" y2="86.04"/><line class="cls-4" x1="317.53" y1="86.04" x2="317.53" y2="74.28"/><line class="cls-4" x1="317.05" y1="74.28" x2="317.05" y2="86.04"/><polyline class="cls-4" points="35.05 69 35.05 74.28 35.05 86.04"/><polyline class="cls-4" points="36.73 61.08 36.73 66.6 35.05 66.6"/><polyline class="cls-4" points="35.05 66.6 35.05 67.08 35.05 69"/><polyline class="cls-4" points="118.33 69 118.33 74.28 118.33 86.04"/><polyline class="cls-4" points="116.41 61.08 116.41 66.6 118.33 66.6"/><polyline class="cls-4" points="118.33 66.6 118.33 67.08 118.33 69"/><polyline class="cls-4" points="168.97 69 168.97 74.28 168.97 86.04"/><polyline class="cls-4" points="170.89 61.08 170.89 66.6 168.97 66.6"/><polyline class="cls-4" points="168.97 66.6 168.97 67.08 168.97 69"/><polyline class="cls-4" points="215.77 69 215.77 74.28 215.77 86.04"/><polyline class="cls-4" points="213.85 61.08 213.85 66.6 215.77 66.6"/><polyline class="cls-4" points="215.77 66.6 215.77 67.08 215.77 69"/><polyline class="cls-4" points="248.17 69 248.17 74.28 248.17 86.04"/><polyline class="cls-4" points="250.09 61.08 250.09 66.6 248.17 66.6"/><polyline class="cls-4" points="248.17 66.6 248.17 67.08 248.17 69"/><polyline class="cls-4" points="294.97 69 294.97 74.28 294.97 86.04"/><polyline class="cls-4" points="293.05 61.08 293.05 66.6 294.97 66.6"/><polyline class="cls-4" points="294.97 66.6 294.97 67.08 294.97 69"/><line class="cls-4" x1="7.69" y1="86.04" x2="35.05" y2="86.04"/><line class="cls-4" x1="118.33" y1="86.04" x2="148.33" y2="86.04"/><line class="cls-4" x1="157.69" y1="86.04" x2="168.97" y2="86.04"/><line class="cls-4" x1="215.77" y1="86.04" x2="248.17" y2="86.04"/><line class="cls-4" x1="294.97" y1="86.04" x2="300.73" y2="86.04"/><polyline class="cls-4" points="317.53 86.04 317.53 61.08 293.05 61.08"/><line class="cls-4" x1="250.09" y1="61.08" x2="213.85" y2="61.08"/><line class="cls-4" x1="170.89" y1="61.08" x2="116.41" y2="61.08"/><line class="cls-4" x1="36.73" y1="61.08" x2="3.13" y2="61.08"/><line class="cls-4" x1="116.41" y1="61.08" x2="36.73" y2="61.08"/><line class="cls-4" x1="118.33" y1="86.04" x2="35.05" y2="86.04"/><path d="M118.33,94.94h0Z" transform="translate(0 -28.34)"/><path class="cls-4" d="M118.33,94.94h0Z" transform="translate(0 -28.34)"/><path d="M118.33,97.34h-5.52v-2.4Zm0,0Z" transform="translate(0 -28.34)"/><path class="cls-4" d="M118.33,97.34h-5.52v-2.4Zm0,0Z" transform="translate(0 -28.34)"/><polygon points="112.81 66.6 118.33 66.6 118.33 69 112.81 66.6"/><polygon class="cls-4" points="112.81 66.6 118.33 66.6 118.33 69 112.81 66.6"/><path d="M76.57,94.94l1.92,2.4H76.57Zm1.92,0H76.57l1.92,2.4Z" transform="translate(0 -28.34)"/><path class="cls-4" d="M76.57,94.94l1.92,2.4H76.57Zm1.92,0H76.57l1.92,2.4Z" transform="translate(0 -28.34)"/><path d="M74.89,94.94l1.68,2.4H74.89Zm1.68,0H74.89l1.68,2.4Z" transform="translate(0 -28.34)"/><path class="cls-4" d="M74.89,94.94l1.68,2.4H74.89Zm1.68,0H74.89l1.68,2.4Z" transform="translate(0 -28.34)"/><path d="M40.57,94.94h0Z" transform="translate(0 -28.34)"/><path class="cls-4" d="M40.57,94.94h0Z" transform="translate(0 -28.34)"/><path d="M40.57,97.34H35.05v-2.4Zm0,0Z" transform="translate(0 -28.34)"/><path class="cls-4" d="M40.57,97.34H35.05v-2.4Zm0,0Z" transform="translate(0 -28.34)"/><polygon points="35.05 66.6 40.57 66.6 40.57 69 35.05 66.6"/><polygon class="cls-4" points="35.05 66.6 40.57 66.6 40.57 69 35.05 66.6"/><polyline class="cls-4" points="118.33 66.6 112.81 66.6 112.81 69 118.33 69"/><polyline class="cls-4" points="76.57 69 78.49 69 78.49 66.6 76.57 66.6"/><line class="cls-4" x1="112.81" y1="66.6" x2="78.49" y2="66.6"/><line class="cls-4" x1="78.49" y1="69" x2="112.81" y2="69"/><polyline class="cls-4" points="76.57 66.6 74.89 66.6 74.89 69 76.57 69"/><polyline class="cls-4" points="35.05 69 40.57 69 40.57 66.6 35.05 66.6"/><line class="cls-4" x1="74.89" y1="66.6" x2="40.57" y2="66.6"/><line class="cls-4" x1="40.57" y1="69" x2="74.89" y2="69"/><polyline class="cls-4" points="116.41 66.6 118.33 66.6 118.33 67.08 118.33 69"/><polyline class="cls-4" points="36.73 66.6 35.05 66.6 35.05 67.08 35.05 69"/><line class="cls-4" x1="213.85" y1="61.08" x2="170.89" y2="61.08"/><line class="cls-4" x1="215.77" y1="86.04" x2="168.97" y2="86.04"/><path d="M215.77,94.94h0Z" transform="translate(0 -28.34)"/><path class="cls-4" d="M215.77,94.94h0Z" transform="translate(0 -28.34)"/><path d="M215.77,97.34h-5.52v-2.4Zm0,0Z" transform="translate(0 -28.34)"/><path class="cls-4" d="M215.77,97.34h-5.52v-2.4Zm0,0Z" transform="translate(0 -28.34)"/><polygon points="210.25 66.6 215.77 66.6 215.77 69 210.25 66.6"/><polygon class="cls-4" points="210.25 66.6 215.77 66.6 215.77 69 210.25 66.6"/><path d="M174.49,94.94h0Z" transform="translate(0 -28.34)"/><path class="cls-4" d="M174.49,94.94h0Z" transform="translate(0 -28.34)"/><path d="M174.49,97.34H169v-2.4Zm0,0Z" transform="translate(0 -28.34)"/><path class="cls-4" d="M174.49,97.34H169v-2.4Zm0,0Z" transform="translate(0 -28.34)"/><polygon points="168.97 66.6 174.49 66.6 174.49 69 168.97 66.6"/><polygon class="cls-4" points="168.97 66.6 174.49 66.6 174.49 69 168.97 66.6"/><polyline class="cls-4" points="215.77 69 210.25 69 210.25 66.6 215.77 66.6"/><polyline class="cls-4" points="168.97 66.6 174.49 66.6 174.49 69 168.97 69"/><line class="cls-4" x1="210.25" y1="69" x2="174.49" y2="69"/><line class="cls-4" x1="174.49" y1="66.6" x2="210.25" y2="66.6"/><polyline class="cls-4" points="213.85 66.6 215.77 66.6 215.77 67.08 215.77 69"/><polyline class="cls-4" points="170.89 66.6 168.97 66.6 168.97 67.08 168.97 69"/><line class="cls-4" x1="293.05" y1="61.08" x2="250.09" y2="61.08"/><line class="cls-4" x1="294.97" y1="86.04" x2="248.17" y2="86.04"/><path d="M295,94.94h0Z" transform="translate(0 -28.34)"/><path class="cls-4" d="M295,94.94h0Z" transform="translate(0 -28.34)"/><path d="M295,97.34h-5.52v-2.4Zm0,0Z" transform="translate(0 -28.34)"/><path class="cls-4" d="M295,97.34h-5.52v-2.4Zm0,0Z" transform="translate(0 -28.34)"/><polygon points="289.45 66.6 294.97 66.6 294.97 69 289.45 66.6"/><polygon class="cls-4" points="289.45 66.6 294.97 66.6 294.97 69 289.45 66.6"/><path d="M253.69,94.94h0Z" transform="translate(0 -28.34)"/><path class="cls-4" d="M253.69,94.94h0Z" transform="translate(0 -28.34)"/><path d="M253.69,97.34h-5.52v-2.4Zm0,0Z" transform="translate(0 -28.34)"/><path class="cls-4" d="M253.69,97.34h-5.52v-2.4Zm0,0Z" transform="translate(0 -28.34)"/><polygon points="248.17 66.6 253.69 66.6 253.69 69 248.17 66.6"/><polygon class="cls-4" points="248.17 66.6 253.69 66.6 253.69 69 248.17 66.6"/><polyline class="cls-4" points="294.97 69 289.45 69 289.45 66.6 294.97 66.6"/><polyline class="cls-4" points="248.17 66.6 253.69 66.6 253.69 69 248.17 69"/><line class="cls-4" x1="289.45" y1="69" x2="253.69" y2="69"/><line class="cls-4" x1="253.69" y1="66.6" x2="289.45" y2="66.6"/><polyline class="cls-4" points="293.05 66.6 294.97 66.6 294.97 67.08 294.97 69"/><polyline class="cls-4" points="250.09 66.6 248.17 66.6 248.17 67.08 248.17 69"/><path d="M.25,102.62h0Z" transform="translate(0 -28.34)"/><path class="cls-4" d="M.25,102.62h0Z" transform="translate(0 -28.34)"/><path d="M3.13,114.38H.25V102.62Zm0,0Z" transform="translate(0 -28.34)"/><path class="cls-4" d="M3.13,114.38H.25V102.62Zm0,0Z" transform="translate(0 -28.34)"/><polygon points="0.25 74.28 3.13 74.28 3.13 86.04 0.25 74.28"/><polygon class="cls-4" points="0.25 74.28 3.13 74.28 3.13 86.04 0.25 74.28"/><line class="cls-4" x1="0.25" y1="74.28" x2="0.25" y2="86.04"/><path d="M317.53,89.42l17.76,3.36H317.53Zm17.76,0H317.53l17.76,3.36Z" transform="translate(0 -28.34)"/><path class="cls-4" d="M317.53,89.42l17.76,3.36H317.53Zm17.76,0H317.53l17.76,3.36Z" transform="translate(0 -28.34)"/><path d="M317.53,92.78l17.76,2.16H317.53Zm17.76,0H317.53l17.76,2.16Z" transform="translate(0 -28.34)"/><path class="cls-4" d="M317.53,92.78l17.76,2.16H317.53Zm17.76,0H317.53l17.76,2.16Z" transform="translate(0 -28.34)"/><path d="M426.73,89.42h0Z" transform="translate(0 -28.34)"/><path class="cls-4" d="M426.73,89.42h0Z" transform="translate(0 -28.34)"/><path d="M415,89.42l11.76,3.36H415Zm11.76,0H415l11.76,3.36Z" transform="translate(0 -28.34)"/><path class="cls-4" d="M415,89.42l11.76,3.36H415Zm11.76,0H415l11.76,3.36Z" transform="translate(0 -28.34)"/><path d="M426.73,94.94H415V92.78Zm0,0Z" transform="translate(0 -28.34)"/><path class="cls-4" d="M426.73,94.94H415V92.78Zm0,0Z" transform="translate(0 -28.34)"/><polygon points="414.97 64.44 426.73 64.44 426.73 66.6 414.97 64.44"/><polygon class="cls-4" points="414.97 64.44 426.73 64.44 426.73 66.6 414.97 64.44"/><polyline class="cls-4" points="414.97 61.08 414.97 64.44 414.97 66.6"/><polyline class="cls-4" points="335.29 61.08 335.29 64.44 335.29 66.6 317.53 66.6"/><polyline class="cls-4" points="414.97 66.6 426.73 66.6 426.73 61.08 414.97 61.08"/><polyline class="cls-4" points="335.29 61.08 317.53 61.08 317.53 66.6"/><line class="cls-4" x1="335.29" y1="61.08" x2="414.97" y2="61.08"/><line class="cls-4" x1="335.29" y1="66.6" x2="414.97" y2="66.6"/><path d="M338.17,92.78h0Z" transform="translate(0 -28.34)"/><path class="cls-4" d="M338.17,92.78h0Z" transform="translate(0 -28.34)"/><path d="M338.17,94.94h-2.88V92.78Zm0,0Z" transform="translate(0 -28.34)"/><path class="cls-4" d="M338.17,94.94h-2.88V92.78Zm0,0Z" transform="translate(0 -28.34)"/><polygon points="335.29 64.44 338.17 64.44 338.17 66.6 335.29 64.44"/><polygon class="cls-4" points="335.29 64.44 338.17 64.44 338.17 66.6 335.29 64.44"/><path d="M373.21,92.78l1.92,2.16h-1.92Zm1.92,0h-1.92l1.92,2.16Z" transform="translate(0 -28.34)"/><path class="cls-4" d="M373.21,92.78l1.92,2.16h-1.92Zm1.92,0h-1.92l1.92,2.16Z" transform="translate(0 -28.34)"/><path d="M375.13,92.78l1.92,2.16h-1.92Zm1.92,0h-1.92l1.92,2.16Z" transform="translate(0 -28.34)"/><path class="cls-4" d="M375.13,92.78l1.92,2.16h-1.92Zm1.92,0h-1.92l1.92,2.16Z" transform="translate(0 -28.34)"/><path d="M415,92.78h0Z" transform="translate(0 -28.34)"/><path class="cls-4" d="M415,92.78h0Z" transform="translate(0 -28.34)"/><path d="M415,94.94h-2.88V92.78Zm0,0Z" transform="translate(0 -28.34)"/><path class="cls-4" d="M415,94.94h-2.88V92.78Zm0,0Z" transform="translate(0 -28.34)"/><polygon points="412.09 64.44 414.97 64.44 414.97 66.6 412.09 64.44"/><polygon class="cls-4" points="412.09 64.44 414.97 64.44 414.97 66.6 412.09 64.44"/><polyline class="cls-4" points="335.29 66.6 338.17 66.6 338.17 64.44 335.29 64.44"/><polyline class="cls-4" points="375.13 64.44 373.21 64.44 373.21 66.6 375.13 66.6"/><line class="cls-4" x1="338.17" y1="66.6" x2="373.21" y2="66.6"/><line class="cls-4" x1="373.21" y1="64.44" x2="338.17" y2="64.44"/><polyline class="cls-4" points="375.13 66.6 377.05 66.6 377.05 64.44 375.13 64.44"/><polyline class="cls-4" points="414.97 64.44 412.09 64.44 412.09 66.6 414.97 66.6"/><line class="cls-4" x1="377.05" y1="66.6" x2="412.09" y2="66.6"/><line class="cls-4" x1="412.09" y1="64.44" x2="377.05" y2="64.44"/><line class="cls-4" x1="335.29" y1="64.44" x2="335.29" y2="66.6"/><line class="cls-4" x1="414.97" y1="64.44" x2="414.97" y2="66.6"/><polyline points="443.53 66.6 426.73 66.6 426.73 61.08 443.53 66.6"/><polyline points="443.53 61.08 426.73 61.08 443.53 66.6"/><polyline class="cls-4" points="443.53 66.6 426.73 66.6 426.73 61.08 443.53 66.6"/><polyline class="cls-4" points="443.53 61.08 426.73 61.08 443.53 66.6"/><path class="cls-5" d="M426.73,94.94l.48.48h-.48Zm.48,0h-.48l.48.48Z" transform="translate(0 -28.34)"/><path class="cls-6" d="M426.73,94.94l.48.48h-.48Zm.48,0h-.48l.48.48Z" transform="translate(0 -28.34)"/><polyline class="cls-5" points="443.53 67.08 427.21 67.08 427.21 66.6 443.53 67.08"/><polyline class="cls-5" points="443.53 66.6 427.21 66.6 443.53 67.08"/><polyline class="cls-6" points="443.53 67.08 427.21 67.08 427.21 66.6 443.53 67.08"/><polyline class="cls-6" points="443.53 66.6 427.21 66.6 443.53 67.08"/><path class="cls-5" d="M426.73,95.42l.48,7.2h-.48Zm.48,0h-.48l.48,7.2Z" transform="translate(0 -28.34)"/><path class="cls-6" d="M426.73,95.42l.48,7.2h-.48Zm.48,0h-.48l.48,7.2Z" transform="translate(0 -28.34)"/><polyline points="443.53 69 427.21 69 427.21 67.08 443.53 69"/><polyline points="443.53 67.08 427.21 67.08 443.53 69"/><polyline class="cls-4" points="443.53 69 427.21 69 427.21 67.08 443.53 69"/><polyline class="cls-4" points="443.53 67.08 427.21 67.08 443.53 69"/><polyline points="443.53 74.28 427.21 74.28 427.21 69 443.53 74.28"/><polyline points="443.53 69 427.21 69 443.53 74.28"/><polyline class="cls-4" points="443.53 74.28 427.21 74.28 427.21 69 443.53 74.28"/><polyline class="cls-4" points="443.53 69 427.21 69 443.53 74.28"/><path class="cls-5" d="M426.73,102.62l.48,11.76h-.48Zm.48,0h-.48l.48,11.76Z" transform="translate(0 -28.34)"/><path class="cls-6" d="M426.73,102.62l.48,11.76h-.48Zm.48,0h-.48l.48,11.76Z" transform="translate(0 -28.34)"/><path d="M434.17,102.62h0Z" transform="translate(0 -28.34)"/><path class="cls-4" d="M434.17,102.62h0Z" transform="translate(0 -28.34)"/><path d="M434.17,114.38h-7V102.62Zm0,0Z" transform="translate(0 -28.34)"/><path class="cls-4" d="M434.17,114.38h-7V102.62Zm0,0Z" transform="translate(0 -28.34)"/><polygon points="427.21 74.28 434.17 74.28 434.17 86.04 427.21 74.28"/><polygon class="cls-4" points="427.21 74.28 434.17 74.28 434.17 86.04 427.21 74.28"/><path d="M443.53,102.62h0Z" transform="translate(0 -28.34)"/><path class="cls-4" d="M443.53,102.62h0Z" transform="translate(0 -28.34)"/><path d="M443.53,114.38h-9.36V102.62Zm0,0Z" transform="translate(0 -28.34)"/><path class="cls-4" d="M443.53,114.38h-9.36V102.62Zm0,0Z" transform="translate(0 -28.34)"/><polygon points="434.17 74.28 443.53 74.28 443.53 86.04 434.17 74.28"/><polygon class="cls-4" points="434.17 74.28 443.53 74.28 443.53 86.04 434.17 74.28"/><line class="cls-4" x1="427.21" y1="66.6" x2="426.73" y2="66.6"/><line class="cls-4" x1="443.53" y1="66.6" x2="427.21" y2="66.6"/><line class="cls-4" x1="427.21" y1="74.28" x2="427.21" y2="67.08"/><line class="cls-4" x1="426.73" y1="67.08" x2="426.73" y2="74.28"/><line class="cls-4" x1="443.53" y1="67.08" x2="427.21" y2="67.08"/><line class="cls-4" x1="427.21" y1="86.04" x2="427.21" y2="74.28"/><line class="cls-4" x1="426.73" y1="74.28" x2="426.73" y2="86.04"/><line class="cls-4" x1="434.17" y1="86.04" x2="434.17" y2="74.28"/><line class="cls-4" x1="443.53" y1="86.04" x2="443.53" y2="61.08"/><line class="cls-4" x1="443.53" y1="61.08" x2="426.73" y2="61.08"/><polyline class="cls-4" points="426.73 86.04 426.73 74.28 426.73 67.08 426.73 66.6 426.73 61.08"/><polyline class="cls-4" points="355.45 353.16 355.45 360.12 371.77 360.12 371.77 353.16"/><line class="cls-4" x1="366.25" y1="360.12" x2="360.97" y2="360.12"/><line class="cls-4" x1="365.05" y1="354.36" x2="364.09" y2="354.36"/><line class="cls-4" x1="363.61" y1="355.8" x2="363.61" y2="354.84"/><line class="cls-4" x1="363.13" y1="354.36" x2="362.17" y2="354.36"/><line class="cls-4" x1="363.61" y1="353.88" x2="363.61" y2="353.16"/><path class="cls-4" d="M356.44,381a7.35,7.35,0,0,0,2.84,3.46" transform="translate(0 -28.34)"/><path class="cls-4" d="M359.23,384.29a7.37,7.37,0,0,0,4.37,1" transform="translate(0 -28.34)"/><path class="cls-4" d="M367.94,384.41a7.35,7.35,0,0,0,2.84-3.46" transform="translate(0 -28.34)"/><path class="cls-4" d="M363.62,385.32a7.37,7.37,0,0,0,4.37-1" transform="translate(0 -28.34)"/><path class="cls-4" d="M363,375.78a13.45,13.45,0,0,0-5,1.36" transform="translate(0 -28.34)"/><path class="cls-4" d="M371.77,381.32a4.24,4.24,0,0,0-1.57-3.46" transform="translate(0 -28.34)"/><path class="cls-4" d="M364.07,375.76a7.49,7.49,0,0,0-1.16,0" transform="translate(0 -28.34)"/><path class="cls-4" d="M358.9,384a30,30,0,0,0,9.17,0" transform="translate(0 -28.34)"/><path class="cls-4" d="M369,386.87a10.22,10.22,0,0,0,2.3-6.63" transform="translate(0 -28.34)"/><path class="cls-4" d="M363.57,388a20.64,20.64,0,0,0,4.7-.51" transform="translate(0 -28.34)"/><path class="cls-4" d="M368.34,387.23a1.32,1.32,0,0,0,.73-.46" transform="translate(0 -28.34)"/><path class="cls-4" d="M363.45,387a36.06,36.06,0,0,0,4.64-.33" transform="translate(0 -28.34)"/><path class="cls-4" d="M369,386.53a9.22,9.22,0,0,0,2.31-6.23" transform="translate(0 -28.34)"/><path class="cls-4" d="M368.23,386.77a1.36,1.36,0,0,0,.81-.44" transform="translate(0 -28.34)"/><path class="cls-4" d="M355.69,380.31a9.23,9.23,0,0,0,2.32,6.23" transform="translate(0 -28.34)"/><path class="cls-4" d="M355.93,380.26a10.16,10.16,0,0,0,2.31,6.62" transform="translate(0 -28.34)"/><path class="cls-4" d="M358.94,386.69a36.06,36.06,0,0,0,4.64.33" transform="translate(0 -28.34)"/><path class="cls-4" d="M359,387.48a21.12,21.12,0,0,0,4.69.5" transform="translate(0 -28.34)"/><path class="cls-4" d="M358.18,386.33a1.36,1.36,0,0,0,.81.44" transform="translate(0 -28.34)"/><path class="cls-4" d="M358.15,386.78a1.39,1.39,0,0,0,.73.45" transform="translate(0 -28.34)"/><path class="cls-4" d="M356.78,377.86a4.24,4.24,0,0,0-1.57,3.46" transform="translate(0 -28.34)"/><path class="cls-4" d="M358,377.16a7.61,7.61,0,0,0-1.08.69" transform="translate(0 -28.34)"/><path class="cls-4" d="M370.11,377.85a7.61,7.61,0,0,0-1.08-.69" transform="translate(0 -28.34)"/><path class="cls-4" d="M369.25,377.14a13.45,13.45,0,0,0-5-1.36" transform="translate(0 -28.34)"/><path class="cls-4" d="M365.77,376.73a9.76,9.76,0,0,0-4.56,0" transform="translate(0 -28.34)"/><path class="cls-4" d="M357.28,378.75a2.5,2.5,0,0,0-.86,2.08" transform="translate(0 -28.34)"/><path class="cls-4" d="M361.21,376.84a9,9,0,0,0-4.14,1.89" transform="translate(0 -28.34)"/><path class="cls-4" d="M370.8,380.83a2.5,2.5,0,0,0-.86-2.08" transform="translate(0 -28.34)"/><path class="cls-4" d="M369.91,378.73a9,9,0,0,0-4.14-1.89" transform="translate(0 -28.34)"/><path class="cls-4" d="M364.57,382.58a1.08,1.08,0,1,0-1.08,1.08,1.08,1.08,0,0,0,1.08-1.08" transform="translate(0 -28.34)"/><path class="cls-4" d="M364.33,382.58a.84.84,0,1,0-.84.84.85.85,0,0,0,.84-.84" transform="translate(0 -28.34)"/><line class="cls-4" x1="404.65" y1="325.8" x2="388.33" y2="325.8"/><polyline class="cls-4" points="405.61 326.52 411.61 326.52 411.61 309.24"/><line class="cls-4" x1="401.77" y1="317.88" x2="401.77" y2="311.4"/><polyline class="cls-4" points="388.33 325.8 401.77 324.36 401.77 317.88"/><line class="cls-4" x1="388.33" y1="309.96" x2="401.77" y2="311.4"/><line class="cls-4" x1="388.33" y1="325.32" x2="401.77" y2="323.88"/><line class="cls-4" x1="388.33" y1="310.2" x2="401.77" y2="311.88"/><line class="cls-4" x1="404.65" y1="309.96" x2="388.33" y2="309.96"/><line class="cls-4" x1="411.61" y1="309.24" x2="405.61" y2="309.24"/><polyline class="cls-4" points="388.33 325.8 386.41 325.56 384.73 324.84 383.29 323.88 382.09 322.44 381.37 320.76 380.89 318.84 380.89 316.92 381.37 315 382.09 313.32 383.29 311.88 384.73 310.68 386.41 310.2 388.33 309.96"/><polyline class="cls-4" points="388.33 325.32 386.65 325.08 384.97 324.6 383.53 323.4 382.57 322.2 381.61 320.52 381.13 318.84 381.13 316.92 381.61 315.24 382.57 313.56 383.53 312.12 384.97 311.16 386.65 310.44 388.33 310.2"/><polyline class="cls-4" points="405.61 309.24 405.37 309.24 405.13 309.24 404.89 309.48 404.65 309.48 404.65 309.72 404.65 309.96 404.17 317.88 404.65 325.56 404.65 325.8 404.65 326.04 404.89 326.04 404.89 326.28 405.13 326.28 405.13 326.52 405.37 326.52 405.61 326.52"/><polyline class="cls-4" points="408.73 317.88 408.73 317.64 408.49 317.4 408.49 317.16 408.25 317.16 408.01 316.92 407.77 316.92 407.53 316.92 407.53 317.16 407.29 317.16 407.05 317.4 407.05 317.64 407.05 317.88 407.05 318.12 407.05 318.36 407.29 318.36 407.53 318.6 407.77 318.6 408.01 318.6 408.25 318.6 408.49 318.36 408.73 318.12 408.73 317.88"/><path d="M2.17,388.22l192,9.6H2.17Zm192,0H2.17l192,9.6Z" transform="translate(0 -28.34)"/><path class="cls-4" d="M2.17,388.22l192,9.6H2.17Zm192,0H2.17l192,9.6Z" transform="translate(0 -28.34)"/><path d="M241.21,388.22l193,9.6h-193Zm193,0h-193l193,9.6Z" transform="translate(0 -28.34)"/><path class="cls-4" d="M241.21,388.22l193,9.6h-193Zm193,0h-193l193,9.6Z" transform="translate(0 -28.34)"/><line class="cls-4" x1="194.17" y1="369.48" x2="194.17" y2="359.88"/><polyline class="cls-4" points="241.21 369.48 241.21 359.88 434.17 359.88"/><polyline class="cls-4" points="194.17 359.88 2.17 359.88 2.17 369.48 194.17 369.48"/><line class="cls-4" x1="241.21" y1="369.48" x2="351.61" y2="369.48"/><polyline class="cls-4" points="361.21 369.48 434.17 369.48 434.17 359.88"/><path class="cls-4" d="M239.05,388.1A43.08,43.08,0,0,0,196,345" transform="translate(0 -28.34)"/><path d="M239.29,388.22l1.92,9.6h-1.92Zm1.92,0h-1.92l1.92,9.6Z" transform="translate(0 -28.34)"/><path class="cls-4" d="M239.29,388.22l1.92,9.6h-1.92Zm1.92,0h-1.92l1.92,9.6Z" transform="translate(0 -28.34)"/><path d="M194.17,388.22l1.92,9.6h-1.92Zm1.92,0h-1.92l1.92,9.6Z" transform="translate(0 -28.34)"/><path class="cls-4" d="M194.17,388.22l1.92,9.6h-1.92Zm1.92,0h-1.92l1.92,9.6Z" transform="translate(0 -28.34)"/><polyline class="cls-4" points="241.21 369.48 239.29 369.48 239.29 359.88 241.21 359.88 241.21 369.48"/><polyline class="cls-4" points="194.17 359.88 196.09 359.88 196.09 369.48 194.17 369.48 194.17 359.88"/><line class="cls-4" x1="196.09" y1="359.88" x2="196.09" y2="316.92"/><line class="cls-4" x1="241.21" y1="369.48" x2="241.21" y2="359.88"/><line class="cls-4" x1="194.17" y1="369.48" x2="194.17" y2="359.88"/><path class="cls-5" d="M317.05,114.38l.48,26.64h-.48Zm.48,0h-.48l.48,26.64Z" transform="translate(0 -28.34)"/><path class="cls-6" d="M317.05,114.38l.48,26.64h-.48Zm.48,0h-.48l.48,26.64Z" transform="translate(0 -28.34)"/><path class="cls-5" d="M317.05,141.5Zm0-.48v0Zm.48,0h-.48v.48Z" transform="translate(0 -28.34)"/><path class="cls-6" d="M317.05,141.5Zm0-.48v0Zm.48,0h-.48v.48Z" transform="translate(0 -28.34)"/><path d="M317.05,114.38h0Z" transform="translate(0 -28.34)"/><path class="cls-4" d="M317.05,114.38h0Z" transform="translate(0 -28.34)"/><path d="M317.05,141.5h-7V114.38Zm0,0Z" transform="translate(0 -28.34)"/><path class="cls-4" d="M317.05,141.5h-7V114.38Zm0,0Z" transform="translate(0 -28.34)"/><polygon points="310.09 86.04 317.05 86.04 317.05 113.16 310.09 86.04"/><polygon class="cls-4" points="310.09 86.04 317.05 86.04 317.05 113.16 310.09 86.04"/><path d="M310.09,141.5h0Z" transform="translate(0 -28.34)"/><path class="cls-4" d="M310.09,141.5h0Z" transform="translate(0 -28.34)"/><path d="M310.09,148.46Zm0-7v0Zm7,0h-7v7Z" transform="translate(0 -28.34)"/><path class="cls-4" d="M310.09,148.46Zm0-7v0Zm7,0h-7v7Z" transform="translate(0 -28.34)"/><path d="M310.09,114.38h0Z" transform="translate(0 -28.34)"/><path class="cls-4" d="M310.09,114.38h0Z" transform="translate(0 -28.34)"/><path d="M300.73,114.38l9.36,34.08h-9.36Zm9.36,0h-9.36l9.36,34.08Z" transform="translate(0 -28.34)"/><path class="cls-4" d="M300.73,114.38l9.36,34.08h-9.36Zm9.36,0h-9.36l9.36,34.08Z" transform="translate(0 -28.34)"/><path d="M300.73,157.82Zm0-9.36v0Zm9.36,0h-9.36v9.36Z" transform="translate(0 -28.34)"/><path class="cls-4" d="M300.73,157.82Zm0-9.36v0Zm9.36,0h-9.36v9.36Z" transform="translate(0 -28.34)"/><line class="cls-4" x1="317.05" y1="113.16" x2="317.05" y2="86.04"/><line class="cls-4" x1="310.09" y1="120.12" x2="310.09" y2="86.04"/><line class="cls-4" x1="300.73" y1="86.04" x2="300.73" y2="129.48"/><line class="cls-4" x1="317.53" y1="112.68" x2="317.53" y2="86.04"/><path class="cls-5" d="M426.73,141h.48v.48Zm0-26.64V141h.48Z" transform="translate(0 -28.34)"/><path class="cls-6" d="M426.73,141h.48v.48Zm0-26.64V141h.48Z" transform="translate(0 -28.34)"/><polygon class="cls-5" points="426.73 86.04 427.21 86.04 427.21 112.68 426.73 86.04"/><polygon class="cls-6" points="426.73 86.04 427.21 86.04 427.21 112.68 426.73 86.04"/><path d="M434.17,141.5h-7l7,7Zm0,0Z" transform="translate(0 -28.34)"/><path class="cls-4" d="M434.17,141.5h-7l7,7Zm0,0Z" transform="translate(0 -28.34)"/><path d="M434.17,114.38h0Z" transform="translate(0 -28.34)"/><path class="cls-4" d="M434.17,114.38h0Z" transform="translate(0 -28.34)"/><path d="M434.17,141.5h-7V114.38Zm0,0Z" transform="translate(0 -28.34)"/><path class="cls-4" d="M434.17,141.5h-7V114.38Zm0,0Z" transform="translate(0 -28.34)"/><polygon points="427.21 86.04 434.17 86.04 434.17 113.16 427.21 86.04"/><polygon class="cls-4" points="427.21 86.04 434.17 86.04 434.17 113.16 427.21 86.04"/><path d="M443.53,114.38h0Z" transform="translate(0 -28.34)"/><path class="cls-4" d="M443.53,114.38h0Z" transform="translate(0 -28.34)"/><path d="M434.17,148.46h9.36v9.36Zm0-34.08v34.08h9.36Z" transform="translate(0 -28.34)"/><path class="cls-4" d="M434.17,148.46h9.36v9.36Zm0-34.08v34.08h9.36Z" transform="translate(0 -28.34)"/><polygon points="434.17 86.04 443.53 86.04 443.53 120.12 434.17 86.04"/><polygon class="cls-4" points="434.17 86.04 443.53 86.04 443.53 120.12 434.17 86.04"/><line class="cls-4" x1="427.21" y1="86.04" x2="427.21" y2="113.16"/><line class="cls-4" x1="434.17" y1="86.04" x2="434.17" y2="120.12"/><line class="cls-4" x1="443.53" y1="129.48" x2="443.53" y2="86.04"/><line class="cls-4" x1="426.73" y1="86.04" x2="426.73" y2="112.68"/><path class="cls-5" d="M368.65,141h0Z" transform="translate(0 -28.34)"/><path class="cls-6" d="M368.65,141h0Z" transform="translate(0 -28.34)"/><path class="cls-5" d="M426.73,141.5H368.65V141Zm0,0Z" transform="translate(0 -28.34)"/><path class="cls-6" d="M426.73,141.5H368.65V141Zm0,0Z" transform="translate(0 -28.34)"/><path class="cls-5" d="M426.73,141v.48h.48Zm-58.08,0h58.08v.48Z" transform="translate(0 -28.34)"/><path class="cls-6" d="M426.73,141v.48h.48Zm-58.08,0h58.08v.48Z" transform="translate(0 -28.34)"/><path d="M317.05,148.46h0Zm0-7v7h-7Z" transform="translate(0 -28.34)"/><path class="cls-4" d="M317.05,148.46h0Zm0-7v7h-7Z" transform="translate(0 -28.34)"/><path d="M368.65,141.5h0Z" transform="translate(0 -28.34)"/><path class="cls-4" d="M368.65,141.5h0Z" transform="translate(0 -28.34)"/><path d="M427.21,148.46H368.65v-7Zm0,0Z" transform="translate(0 -28.34)"/><path class="cls-4" d="M427.21,148.46H368.65v-7Zm0,0Z" transform="translate(0 -28.34)"/><path d="M427.21,148.46h0Zm0-7v7h7Zm-58.56,0h58.56v7Z" transform="translate(0 -28.34)"/><path class="cls-4" d="M427.21,148.46h0Zm0-7v7h7Zm-58.56,0h58.56v7Z" transform="translate(0 -28.34)"/><path d="M310.09,157.82h0Zm0-9.36v9.36h-9.36Z" transform="translate(0 -28.34)"/><path class="cls-4" d="M310.09,157.82h0Zm0-9.36v9.36h-9.36Z" transform="translate(0 -28.34)"/><path d="M310.09,148.46l7,2.4h-7Zm7,0h-7l7,2.4Z" transform="translate(0 -28.34)"/><path class="cls-4" d="M310.09,148.46l7,2.4h-7Zm7,0h-7l7,2.4Z" transform="translate(0 -28.34)"/><path d="M310.09,150.86l7,7h-7Zm7,0h-7l7,7Z" transform="translate(0 -28.34)"/><path class="cls-4" d="M310.09,150.86l7,7h-7Zm7,0h-7l7,7Z" transform="translate(0 -28.34)"/><path d="M368.65,148.46h0Z" transform="translate(0 -28.34)"/><path class="cls-4" d="M368.65,148.46h0Z" transform="translate(0 -28.34)"/><path d="M368.65,148.46l65.52,2.4H368.65Zm65.52,0H368.65l65.52,2.4Z" transform="translate(0 -28.34)"/><path class="cls-4" d="M368.65,148.46l65.52,2.4H368.65Zm65.52,0H368.65l65.52,2.4Z" transform="translate(0 -28.34)"/><path d="M434.17,157.82H368.65v-7Zm0,0Z" transform="translate(0 -28.34)"/><path class="cls-4" d="M434.17,157.82H368.65v-7Zm0,0Z" transform="translate(0 -28.34)"/><polygon points="368.65 122.52 434.17 122.52 434.17 129.48 368.65 122.52"/><polygon class="cls-4" points="368.65 122.52 434.17 122.52 434.17 129.48 368.65 122.52"/><path d="M443.53,157.82h0Zm-9.36-9.36,9.36,9.36h-9.36Z" transform="translate(0 -28.34)"/><path class="cls-4" d="M443.53,157.82h0Zm-9.36-9.36,9.36,9.36h-9.36Z" transform="translate(0 -28.34)"/><path class="cls-5" d="M317.05,141l.48.48h-.48Zm.48,0h-.48l.48.48Z" transform="translate(0 -28.34)"/><path class="cls-6" d="M317.05,141l.48.48h-.48Zm.48,0h-.48l.48.48Z" transform="translate(0 -28.34)"/><path class="cls-5" d="M317.05,141.5l.48,7h-.48Zm.48,0h-.48l.48,7Z" transform="translate(0 -28.34)"/><path class="cls-6" d="M317.05,141.5l.48,7h-.48Zm.48,0h-.48l.48,7Z" transform="translate(0 -28.34)"/><path class="cls-5" d="M368.17,141l.48.48h-.48Zm.48,0h-.48l.48.48Z" transform="translate(0 -28.34)"/><path class="cls-6" d="M368.17,141l.48.48h-.48Zm.48,0h-.48l.48.48Z" transform="translate(0 -28.34)"/><path class="cls-5" d="M368.17,141.5l.48,7h-.48Zm.48,0h-.48l.48,7Z" transform="translate(0 -28.34)"/><path class="cls-6" d="M368.17,141.5l.48,7h-.48Zm.48,0h-.48l.48,7Z" transform="translate(0 -28.34)"/><line class="cls-4" x1="427.21" y1="113.16" x2="368.65" y2="113.16"/><line class="cls-4" x1="310.09" y1="129.48" x2="310.09" y2="120.12"/><line class="cls-4" x1="434.17" y1="120.12" x2="368.65" y2="120.12"/><line class="cls-4" x1="317.05" y1="120.12" x2="310.09" y2="120.12"/><line class="cls-4" x1="434.17" y1="129.48" x2="434.17" y2="120.12"/><polyline class="cls-4" points="368.65 113.16 368.65 120.12 368.17 120.12 368.17 112.68 368.65 112.68"/><polyline class="cls-4" points="317.05 113.16 317.05 120.12 317.53 120.12 317.53 112.68 317.05 112.68"/><polyline class="cls-4" points="368.65 120.12 368.65 122.52 368.65 129.48"/><polyline class="cls-4" points="317.05 120.12 317.05 122.52 317.05 129.48"/><polyline class="cls-4" points="300.73 129.48 310.09 129.48 317.05 129.48"/><polyline class="cls-4" points="443.53 129.48 434.17 129.48 368.65 129.48"/><line class="cls-4" x1="426.73" y1="112.68" x2="368.65" y2="112.68"/><line class="cls-4" x1="317.53" y1="112.68" x2="368.17" y2="112.68"/><line class="cls-4" x1="317.05" y1="129.48" x2="368.65" y2="129.48"/><path d="M317.05,148.46h0Z" transform="translate(0 -28.34)"/><path class="cls-4" d="M317.05,148.46h0Z" transform="translate(0 -28.34)"/><path d="M321.13,150.86h-4.08v-2.4Zm0,0Z" transform="translate(0 -28.34)"/><path class="cls-4" d="M321.13,150.86h-4.08v-2.4Zm0,0Z" transform="translate(0 -28.34)"/><polygon points="317.05 120.12 321.13 120.12 321.13 122.52 317.05 120.12"/><polygon class="cls-4" points="317.05 120.12 321.13 120.12 321.13 122.52 317.05 120.12"/><path d="M328.81,148.46h0Z" transform="translate(0 -28.34)"/><path class="cls-4" d="M328.81,148.46h0Z" transform="translate(0 -28.34)"/><path d="M331.21,150.86h-2.4v-2.4Zm0,0Z" transform="translate(0 -28.34)"/><path class="cls-4" d="M331.21,150.86h-2.4v-2.4Zm0,0Z" transform="translate(0 -28.34)"/><polygon points="328.81 120.12 331.21 120.12 331.21 122.52 328.81 120.12"/><polygon class="cls-4" points="328.81 120.12 331.21 120.12 331.21 122.52 328.81 120.12"/><path d="M331.21,148.46h0Z" transform="translate(0 -28.34)"/><path class="cls-4" d="M331.21,148.46h0Z" transform="translate(0 -28.34)"/><path d="M333.37,150.86h-2.16v-2.4Zm0,0Z" transform="translate(0 -28.34)"/><path class="cls-4" d="M333.37,150.86h-2.16v-2.4Zm0,0Z" transform="translate(0 -28.34)"/><polygon points="331.21 120.12 333.37 120.12 333.37 122.52 331.21 120.12"/><polygon class="cls-4" points="331.21 120.12 333.37 120.12 333.37 122.52 331.21 120.12"/><path d="M364.57,148.46h0Z" transform="translate(0 -28.34)"/><path class="cls-4" d="M364.57,148.46h0Z" transform="translate(0 -28.34)"/><path d="M368.65,150.86h-4.08v-2.4Zm0,0Z" transform="translate(0 -28.34)"/><path class="cls-4" d="M368.65,150.86h-4.08v-2.4Zm0,0Z" transform="translate(0 -28.34)"/><polygon points="364.57 120.12 368.65 120.12 368.65 122.52 364.57 120.12"/><polygon class="cls-4" points="364.57 120.12 368.65 120.12 368.65 122.52 364.57 120.12"/><polyline class="cls-4" points="317.05 120.12 321.13 120.12 321.13 122.52 317.05 122.52"/><polyline class="cls-4" points="331.21 122.52 328.81 122.52 328.81 120.12 331.21 120.12"/><line class="cls-4" x1="321.13" y1="120.12" x2="328.81" y2="120.12"/><line class="cls-4" x1="328.81" y1="122.52" x2="321.13" y2="122.52"/><polyline class="cls-4" points="331.21 120.12 333.37 120.12 333.37 122.52 331.21 122.52"/><polyline class="cls-4" points="368.65 122.52 364.57 122.52 364.57 120.12 368.65 120.12"/><line class="cls-4" x1="333.37" y1="120.12" x2="364.57" y2="120.12"/><line class="cls-4" x1="364.57" y1="122.52" x2="333.37" y2="122.52"/><line class="cls-4" x1="317.05" y1="120.12" x2="317.05" y2="122.52"/><line class="cls-4" x1="368.65" y1="120.12" x2="368.65" y2="122.52"/><path d="M434.17,280.46h0Z" transform="translate(0 -28.34)"/><path class="cls-4" d="M434.17,280.46h0Z" transform="translate(0 -28.34)"/><path d="M443.53,327.5h-9.36v-47Zm0,0Z" transform="translate(0 -28.34)"/><path class="cls-4" d="M443.53,327.5h-9.36v-47Zm0,0Z" transform="translate(0 -28.34)"/><polygon points="434.17 252.12 443.53 252.12 443.53 299.16 434.17 252.12"/><polygon class="cls-4" points="434.17 252.12 443.53 252.12 443.53 299.16 434.17 252.12"/><polyline class="cls-4" points="443.53 299.16 443.53 252.12 434.17 252.12 434.17 299.16 443.53 299.16"/><line class="cls-4" x1="0.25" y1="369.48" x2="0.25" y2="367.08"/><line class="cls-4" x1="0.25" y1="369.48" x2="0.25" y2="367.08"/><line class="cls-4" x1="443.53" y1="369.48" x2="443.53" y2="369.48"/><path d="M349.93,323.66h0Z" transform="translate(0 -28.34)"/><path class="cls-4" d="M349.93,323.66h0Z" transform="translate(0 -28.34)"/><path d="M434.17,327.5H349.93v-3.84Zm0,0Z" transform="translate(0 -28.34)"/><path class="cls-4" d="M434.17,327.5H349.93v-3.84Zm0,0Z" transform="translate(0 -28.34)"/><polygon points="349.93 295.32 434.17 295.32 434.17 299.16 349.93 295.32"/><polygon class="cls-4" points="349.93 295.32 434.17 295.32 434.17 299.16 349.93 295.32"/><path d="M310.09,323.66h0Z" transform="translate(0 -28.34)"/><path class="cls-4" d="M310.09,323.66h0Z" transform="translate(0 -28.34)"/><path d="M312.25,327.5h-2.16v-3.84Zm0,0Z" transform="translate(0 -28.34)"/><path class="cls-4" d="M312.25,327.5h-2.16v-3.84Zm0,0Z" transform="translate(0 -28.34)"/><polygon points="310.09 295.32 312.25 295.32 312.25 299.16 310.09 295.32"/><polygon class="cls-4" points="310.09 295.32 312.25 295.32 312.25 299.16 310.09 295.32"/><path d="M300.73,323.66h0Z" transform="translate(0 -28.34)"/><path class="cls-4" d="M300.73,323.66h0Z" transform="translate(0 -28.34)"/><path d="M310.09,327.5h-9.36v-3.84Zm0,0Z" transform="translate(0 -28.34)"/><path class="cls-4" d="M310.09,327.5h-9.36v-3.84Zm0,0Z" transform="translate(0 -28.34)"/><polygon points="300.73 295.32 310.09 295.32 310.09 299.16 300.73 295.32"/><polygon class="cls-4" points="300.73 295.32 310.09 295.32 310.09 299.16 300.73 295.32"/><path d="M289.93,323.66h0Z" transform="translate(0 -28.34)"/><path class="cls-4" d="M289.93,323.66h0Z" transform="translate(0 -28.34)"/><path d="M300.73,327.5h-10.8v-3.84Zm0,0Z" transform="translate(0 -28.34)"/><path class="cls-4" d="M300.73,327.5h-10.8v-3.84Zm0,0Z" transform="translate(0 -28.34)"/><polygon points="289.93 295.32 300.73 295.32 300.73 299.16 289.93 295.32"/><polygon class="cls-4" points="289.93 295.32 300.73 295.32 300.73 299.16 289.93 295.32"/><path d="M157.69,323.66h0Z" transform="translate(0 -28.34)"/><path class="cls-4" d="M157.69,323.66h0Z" transform="translate(0 -28.34)"/><path d="M247.69,327.5h-90v-3.84Zm0,0Z" transform="translate(0 -28.34)"/><path class="cls-4" d="M247.69,327.5h-90v-3.84Zm0,0Z" transform="translate(0 -28.34)"/><polygon points="157.69 295.32 247.69 295.32 247.69 299.16 157.69 295.32"/><polygon class="cls-4" points="157.69 295.32 247.69 295.32 247.69 299.16 157.69 295.32"/><path d="M148.33,323.66h0Z" transform="translate(0 -28.34)"/><path class="cls-4" d="M148.33,323.66h0Z" transform="translate(0 -28.34)"/><path d="M157.69,327.5h-9.36v-3.84Zm0,0Z" transform="translate(0 -28.34)"/><path class="cls-4" d="M157.69,327.5h-9.36v-3.84Zm0,0Z" transform="translate(0 -28.34)"/><polygon points="148.33 295.32 157.69 295.32 157.69 299.16 148.33 295.32"/><polygon class="cls-4" points="148.33 295.32 157.69 295.32 157.69 299.16 148.33 295.32"/><line class="cls-4" x1="349.93" y1="295.32" x2="349.93" y2="299.16"/><line class="cls-4" x1="310.09" y1="299.16" x2="310.09" y2="295.32"/><line class="cls-4" x1="300.73" y1="295.32" x2="300.73" y2="299.16"/><line class="cls-4" x1="312.25" y1="295.32" x2="312.25" y2="299.16"/><line class="cls-4" x1="289.93" y1="295.32" x2="289.93" y2="299.16"/><line class="cls-4" x1="157.69" y1="299.16" x2="157.69" y2="295.32"/><line class="cls-4" x1="148.33" y1="295.32" x2="148.33" y2="299.16"/><line class="cls-4" x1="247.69" y1="295.32" x2="247.69" y2="299.16"/><line class="cls-4" x1="434.17" y1="295.32" x2="349.93" y2="295.32"/><line class="cls-4" x1="312.25" y1="295.32" x2="310.09" y2="295.32"/><line class="cls-4" x1="300.73" y1="295.32" x2="289.93" y2="295.32"/><line class="cls-4" x1="247.69" y1="295.32" x2="157.69" y2="295.32"/><line class="cls-4" x1="148.33" y1="295.32" x2="148.33" y2="299.16"/><line class="cls-4" x1="157.69" y1="299.16" x2="247.69" y2="299.16"/><line class="cls-4" x1="289.93" y1="299.16" x2="300.73" y2="299.16"/><line class="cls-4" x1="310.09" y1="299.16" x2="312.25" y2="299.16"/><line class="cls-4" x1="349.93" y1="299.16" x2="351.61" y2="299.16"/><line class="cls-4" x1="355.45" y1="299.16" x2="411.61" y2="299.16"/><polyline class="cls-4" points="415.45 299.16 434.17 299.16 434.17 295.32"/><line class="cls-4" x1="247.69" y1="295.32" x2="250.09" y2="295.32"/><line class="cls-4" x1="247.69" y1="299.16" x2="250.09" y2="299.16"/><line class="cls-4" x1="289.93" y1="295.32" x2="287.53" y2="295.32"/><line class="cls-4" x1="289.93" y1="299.16" x2="287.53" y2="299.16"/><line class="cls-4" x1="250.09" y1="299.16" x2="250.09" y2="295.32"/><polyline class="cls-4" points="287.53 299.16 287.53 295.32 287.53 257.88"/><path class="cls-4" d="M287.41,286a37.56,37.56,0,0,0-37.56,37.56" transform="translate(0 -28.34)"/><line class="cls-4" x1="349.93" y1="295.32" x2="347.53" y2="295.32"/><line class="cls-4" x1="349.93" y1="299.16" x2="347.53" y2="299.16"/><line class="cls-4" x1="312.25" y1="295.32" x2="314.65" y2="295.32"/><line class="cls-4" x1="312.25" y1="299.16" x2="314.65" y2="299.16"/><line class="cls-4" x1="347.53" y1="299.16" x2="347.53" y2="295.32"/><polyline class="cls-4" points="314.65 299.16 314.65 295.32 314.65 262.44"/><path class="cls-4" d="M347.29,323.54a32.76,32.76,0,0,0-32.76-32.76" transform="translate(0 -28.34)"/><path d="M148.33,149.42h0Z" transform="translate(0 -28.34)"/><path class="cls-4" d="M148.33,149.42h0Z" transform="translate(0 -28.34)"/><path d="M152.17,323.66h-3.84V149.42Zm0,0Z" transform="translate(0 -28.34)"/><path class="cls-4" d="M152.17,323.66h-3.84V149.42Zm0,0Z" transform="translate(0 -28.34)"/><polygon points="148.33 121.08 152.17 121.08 152.17 295.32 148.33 121.08"/><polygon class="cls-4" points="148.33 121.08 152.17 121.08 152.17 295.32 148.33 121.08"/><polyline class="cls-4" points="152.17 295.32 152.17 121.08 148.33 121.08 148.33 295.32"/><polygon points="28.33 307.32 28.33 311.16 24.73 311.16 28.33 307.32"/><polygon class="cls-4" points="28.33 307.32 28.33 311.16 24.73 311.16 28.33 307.32"/><path d="M28.33,388.22h-3.6V339.5Zm0,0Z" transform="translate(0 -28.34)"/><path class="cls-4" d="M28.33,388.22h-3.6V339.5Zm0,0Z" transform="translate(0 -28.34)"/><polygon points="24.73 311.16 28.33 311.16 28.33 359.88 24.73 311.16"/><polygon class="cls-4" points="24.73 311.16 28.33 311.16 28.33 359.88 24.73 311.16"/><line class="cls-4" x1="24.73" y1="311.16" x2="24.73" y2="332.76"/><polyline class="cls-4" points="24.73 336.6 24.73 359.88 28.33 359.88 28.33 307.32"/><path d="M6,293.18H6Z" transform="translate(0 -28.34)"/><path class="cls-4" d="M6,293.18H6Z" transform="translate(0 -28.34)"/><path d="M96.73,297H6v-3.84Zm0,0Z" transform="translate(0 -28.34)"/><path class="cls-4" d="M96.73,297H6v-3.84Zm0,0Z" transform="translate(0 -28.34)"/><polygon points="6.01 264.84 96.73 264.84 96.73 268.68 6.01 264.84"/><polygon class="cls-4" points="6.01 264.84 96.73 264.84 96.73 268.68 6.01 264.84"/><line class="cls-4" x1="6.01" y1="268.68" x2="96.73" y2="268.68"/><polyline class="cls-4" points="96.73 264.84 6.01 264.84 6.01 268.68"/><path d="M351.61,327.5h0Z" transform="translate(0 -28.34)"/><path class="cls-4" d="M351.61,327.5h0Z" transform="translate(0 -28.34)"/><path d="M355.45,332.06h-3.84V327.5Zm0,0Z" transform="translate(0 -28.34)"/><path class="cls-4" d="M355.45,332.06h-3.84V327.5Zm0,0Z" transform="translate(0 -28.34)"/><polygon points="351.61 299.16 355.45 299.16 355.45 303.72 351.61 299.16"/><polygon class="cls-4" points="351.61 299.16 355.45 299.16 355.45 303.72 351.61 299.16"/><path d="M351.61,369.5h0Z" transform="translate(0 -28.34)"/><path class="cls-4" d="M351.61,369.5h0Z" transform="translate(0 -28.34)"/><path d="M355.45,388.22h-3.84V369.5Zm0,0Z" transform="translate(0 -28.34)"/><path class="cls-4" d="M355.45,388.22h-3.84V369.5Zm0,0Z" transform="translate(0 -28.34)"/><polygon points="351.61 341.16 355.45 341.16 355.45 359.88 351.61 341.16"/><polygon class="cls-4" points="351.61 341.16 355.45 341.16 355.45 359.88 351.61 341.16"/><line class="cls-4" x1="351.61" y1="303.72" x2="355.45" y2="303.72"/><line class="cls-4" x1="351.61" y1="341.16" x2="355.45" y2="341.16"/><line class="cls-4" x1="351.61" y1="299.16" x2="351.61" y2="303.72"/><polyline class="cls-4" points="351.61 341.16 351.61 359.88 355.45 359.88 355.45 341.16"/><line class="cls-4" x1="355.45" y1="303.72" x2="355.45" y2="299.16"/><line class="cls-4" x1="351.61" y1="303.72" x2="351.61" y2="306.12"/><line class="cls-4" x1="355.45" y1="303.72" x2="355.45" y2="306.12"/><line class="cls-4" x1="351.61" y1="341.16" x2="351.61" y2="339"/><line class="cls-4" x1="355.45" y1="341.16" x2="355.45" y2="339"/><line class="cls-4" x1="355.45" y1="306.12" x2="351.61" y2="306.12"/><polyline class="cls-4" points="355.45 339 351.61 339 335.29 310.44"/><path class="cls-4" d="M351.49,334.46a32.71,32.71,0,0,0-16.38,4.39" transform="translate(0 -28.34)"/><path d="M96.73,369.5h0Z" transform="translate(0 -28.34)"/><path class="cls-4" d="M96.73,369.5h0Z" transform="translate(0 -28.34)"/><path d="M100.57,388.22H96.73V369.5Zm0,0Z" transform="translate(0 -28.34)"/><path class="cls-4" d="M100.57,388.22H96.73V369.5Zm0,0Z" transform="translate(0 -28.34)"/><polygon points="96.73 341.16 100.57 341.16 100.57 359.88 96.73 341.16"/><polygon class="cls-4" points="96.73 341.16 100.57 341.16 100.57 359.88 96.73 341.16"/><path d="M96.73,293.18h0Z" transform="translate(0 -28.34)"/><path class="cls-4" d="M96.73,293.18h0Z" transform="translate(0 -28.34)"/><path d="M100.57,332.06H96.73V293.18Zm0,0Z" transform="translate(0 -28.34)"/><path class="cls-4" d="M100.57,332.06H96.73V293.18Zm0,0Z" transform="translate(0 -28.34)"/><polygon points="96.73 264.84 100.57 264.84 100.57 303.72 96.73 264.84"/><polygon class="cls-4" points="96.73 264.84 100.57 264.84 100.57 303.72 96.73 264.84"/><line class="cls-4" x1="100.57" y1="341.16" x2="96.73" y2="341.16"/><line class="cls-4" x1="100.57" y1="303.72" x2="96.73" y2="303.72"/><line class="cls-4" x1="100.57" y1="359.88" x2="100.57" y2="341.16"/><line class="cls-4" x1="100.57" y1="303.72" x2="100.57" y2="299.16"/><polyline class="cls-4" points="100.57 295.32 100.57 264.84 96.73 264.84"/><line class="cls-4" x1="96.73" y1="268.68" x2="96.73" y2="303.72"/><polyline class="cls-4" points="96.73 341.16 96.73 359.88 100.57 359.88"/><line class="cls-4" x1="100.57" y1="303.72" x2="100.57" y2="306.12"/><line class="cls-4" x1="96.73" y1="303.72" x2="96.73" y2="306.12"/><line class="cls-4" x1="100.57" y1="341.16" x2="100.57" y2="339"/><line class="cls-4" x1="96.73" y1="341.16" x2="96.73" y2="339"/><line class="cls-4" x1="96.73" y1="306.12" x2="100.57" y2="306.12"/><polyline class="cls-4" points="96.73 339 100.57 339 116.89 310.44"/><path class="cls-4" d="M116.83,338.85a32.71,32.71,0,0,0-16.38-4.39" transform="translate(0 -28.34)"/><path d="M6,361.1H6Z" transform="translate(0 -28.34)"/><path class="cls-4" d="M6,361.1H6Z" transform="translate(0 -28.34)"/><path d="M24.73,364.94H6V361.1Zm0,0Z" transform="translate(0 -28.34)"/><path class="cls-4" d="M24.73,364.94H6V361.1Zm0,0Z" transform="translate(0 -28.34)"/><polygon points="6.01 332.76 24.73 332.76 24.73 336.6 6.01 332.76"/><polygon class="cls-4" points="6.01 332.76 24.73 332.76 24.73 336.6 6.01 332.76"/><line class="cls-4" x1="6.01" y1="336.6" x2="24.73" y2="336.6"/><polyline class="cls-4" points="24.73 332.76 6.01 332.76 6.01 336.6"/><path d="M306.25,154l3.84,10.8h-3.84Zm3.84,0h-3.84l3.84,10.8Z" transform="translate(0 -28.34)"/><path class="cls-4" d="M306.25,154l3.84,10.8h-3.84Zm3.84,0h-3.84l3.84,10.8Z" transform="translate(0 -28.34)"/><path d="M306.25,277.34l3.84,46.32h-3.84Zm3.84,0h-3.84l3.84,46.32Z" transform="translate(0 -28.34)"/><path class="cls-4" d="M306.25,277.34l3.84,46.32h-3.84Zm3.84,0h-3.84l3.84,46.32Z" transform="translate(0 -28.34)"/><line class="cls-4" x1="306.25" y1="136.44" x2="310.09" y2="136.44"/><line class="cls-4" x1="306.25" y1="249" x2="310.09" y2="249"/><line class="cls-4" x1="306.25" y1="125.64" x2="306.25" y2="136.44"/><line class="cls-4" x1="306.25" y1="249" x2="306.25" y2="295.32"/><line class="cls-4" x1="310.09" y1="295.32" x2="310.09" y2="249"/><polyline class="cls-4" points="310.09 136.44 310.09 125.64 306.25 125.64"/><polyline class="cls-4" points="306.25 249 290.65 225.48 306.25 202.2"/><polyline class="cls-4" points="306.25 136.44 290.65 159.96 306.25 183.48"/><line class="cls-4" x1="306.25" y1="249" x2="310.09" y2="249"/><line class="cls-4" x1="306.25" y1="136.44" x2="310.09" y2="136.44"/><path d="M411.61,327.5h0Z" transform="translate(0 -28.34)"/><path class="cls-4" d="M411.61,327.5h0Z" transform="translate(0 -28.34)"/><path d="M411.61,327.5l3.84,60.72h-3.84Zm3.84,0h-3.84l3.84,60.72Z" transform="translate(0 -28.34)"/><path class="cls-4" d="M411.61,327.5l3.84,60.72h-3.84Zm3.84,0h-3.84l3.84,60.72Z" transform="translate(0 -28.34)"/><polyline class="cls-4" points="411.61 299.16 411.61 359.88 415.45 359.88 415.45 326.28"/><line class="cls-4" x1="415.45" y1="322.44" x2="415.45" y2="299.16"/><path d="M415.45,350.78l18.72,3.84H415.45Zm18.72,0H415.45l18.72,3.84Z" transform="translate(0 -28.34)"/><path class="cls-4" d="M415.45,350.78l18.72,3.84H415.45Zm18.72,0H415.45l18.72,3.84Z" transform="translate(0 -28.34)"/><polyline class="cls-4" points="415.45 326.28 434.17 326.28 434.17 322.44 415.45 322.44"/><path d="M148.09,323.66l.24,3.84h-.24Zm.24,0h-.24l.24,3.84Z" transform="translate(0 -28.34)"/><path class="cls-4" d="M148.09,323.66l.24,3.84h-.24Zm.24,0h-.24l.24,3.84Z" transform="translate(0 -28.34)"/><path d="M100.57,323.66h0Z" transform="translate(0 -28.34)"/><path class="cls-4" d="M100.57,323.66h0Z" transform="translate(0 -28.34)"/><path d="M105.85,327.5h-5.28v-3.84Zm0,0Z" transform="translate(0 -28.34)"/><path class="cls-4" d="M105.85,327.5h-5.28v-3.84Zm0,0Z" transform="translate(0 -28.34)"/><polygon points="100.57 295.32 105.85 295.32 105.85 299.16 100.57 295.32"/><polygon class="cls-4" points="100.57 295.32 105.85 295.32 105.85 299.16 100.57 295.32"/><line class="cls-4" x1="148.09" y1="295.32" x2="148.09" y2="299.16"/><line class="cls-4" x1="105.85" y1="295.32" x2="105.85" y2="299.16"/><line class="cls-4" x1="148.33" y1="295.32" x2="148.09" y2="295.32"/><line class="cls-4" x1="105.85" y1="295.32" x2="100.57" y2="295.32"/><line class="cls-4" x1="100.57" y1="299.16" x2="105.85" y2="299.16"/><polyline class="cls-4" points="148.09 299.16 148.33 299.16 148.33 295.32"/><line class="cls-4" x1="105.85" y1="295.32" x2="108.25" y2="295.32"/><line class="cls-4" x1="105.85" y1="299.16" x2="108.25" y2="299.16"/><line class="cls-4" x1="148.09" y1="295.32" x2="145.69" y2="295.32"/><line class="cls-4" x1="148.09" y1="299.16" x2="145.69" y2="299.16"/><line class="cls-4" x1="108.25" y1="299.16" x2="108.25" y2="295.32"/><polyline class="cls-4" points="145.69 299.16 145.69 295.32 145.69 257.88"/><path class="cls-4" d="M145.57,286A37.56,37.56,0,0,0,108,323.54" transform="translate(0 -28.34)"/><path d="M6,335.66l18.72,3.84H6Zm22.32,0H6l18.72,3.84Z" transform="translate(0 -28.34)"/><path class="cls-4" d="M6,335.66l18.72,3.84H6Zm22.32,0H6l18.72,3.84Z" transform="translate(0 -28.34)"/><polyline class="cls-4" points="28.33 307.32 6.01 307.32 6.01 311.16 24.73 311.16"/><polyline class="cls-4" points="294.25 33 293.05 34.2 293.05 61.08 294.25 61.08 294.25 33"/><polyline class="cls-4" points="250.09 34.2 248.89 33 250.09 34.2 293.05 34.2 294.25 33 248.89 33 248.89 61.08 250.09 61.08 250.09 34.2"/><polyline class="cls-4" points="249.37 33.48 293.77 33.48 293.77 61.08"/><polyline class="cls-4" points="251.29 41.4 292.09 41.4 292.09 56.52 251.29 56.52 251.29 41.4"/><polyline class="cls-4" points="251.29 42.84 292.09 42.84 292.09 56.52 251.29 56.52 251.29 42.84"/><line class="cls-4" x1="249.37" y1="33.48" x2="249.37" y2="61.08"/><polyline class="cls-4" points="408.49 269.64 408.49 295.32 371.05 295.32 371.05 269.64 408.49 269.64"/><polyline class="cls-4" points="373.21 272.04 393.37 272.04 393.37 290.76 373.21 290.76 373.21 272.04"/><line class="cls-4" x1="396.73" y1="272.04" x2="404.17" y2="272.04"/><line class="cls-4" x1="396.73" y1="275.16" x2="404.17" y2="275.16"/><line class="cls-4" x1="396.73" y1="278.28" x2="404.17" y2="278.28"/><line class="cls-4" x1="396.73" y1="281.4" x2="404.17" y2="281.4"/><line class="cls-4" x1="396.73" y1="284.52" x2="404.17" y2="284.52"/><line class="cls-4" x1="396.73" y1="287.64" x2="404.17" y2="287.64"/><polyline class="cls-4" points="408.49 267.24 408.49 175.32 434.17 175.32"/><line class="cls-4" x1="194.17" y1="299.16" x2="194.17" y2="299.16"/><line class="cls-4" x1="194.17" y1="359.88" x2="194.17" y2="359.88"/><polyline class="cls-4" points="408.49 267.24 351.61 267.24 351.61 295.32"/><path d="M157.69,114.38h0Z" transform="translate(0 -28.34)"/><path class="cls-4" d="M157.69,114.38h0Z" transform="translate(0 -28.34)"/><path d="M157.69,149.42h-9.36v-35Zm0,0Z" transform="translate(0 -28.34)"/><path class="cls-4" d="M157.69,149.42h-9.36v-35Zm0,0Z" transform="translate(0 -28.34)"/><polygon points="148.33 86.04 157.69 86.04 157.69 121.08 148.33 86.04"/><polygon class="cls-4" points="148.33 86.04 157.69 86.04 157.69 121.08 148.33 86.04"/><polyline class="cls-4" points="148.33 86.04 148.33 121.08 157.69 121.08 157.69 86.04"/><path d="M434.17,157.82h0Z" transform="translate(0 -28.34)"/><path class="cls-4" d="M434.17,157.82h0Z" transform="translate(0 -28.34)"/><path d="M443.53,280.46h-9.36V157.82Zm0,0Z" transform="translate(0 -28.34)"/><path class="cls-4" d="M443.53,280.46h-9.36V157.82Zm0,0Z" transform="translate(0 -28.34)"/><polygon points="434.17 129.48 443.53 129.48 443.53 252.12 434.17 129.48"/><polygon class="cls-4" points="434.17 129.48 443.53 129.48 443.53 252.12 434.17 129.48"/><polyline class="cls-4" points="443.53 252.12 443.53 129.48 434.17 129.48 434.17 252.12 443.53 252.12"/><path d="M310.09,323.66h-9.36v-43.2Zm0,0Z" transform="translate(0 -28.34)"/><path class="cls-4" d="M310.09,323.66h-9.36v-43.2Zm0,0Z" transform="translate(0 -28.34)"/><polygon points="300.73 252.12 310.09 252.12 310.09 295.32 300.73 252.12"/><polygon class="cls-4" points="300.73 252.12 310.09 252.12 310.09 295.32 300.73 252.12"/><polyline class="cls-4" points="310.09 295.32 310.09 252.12 300.73 252.12 300.73 295.32"/><path d="M157.69,323.66h-9.36v-43.2Zm0,0Z" transform="translate(0 -28.34)"/><path class="cls-4" d="M157.69,323.66h-9.36v-43.2Zm0,0Z" transform="translate(0 -28.34)"/><polygon points="148.33 252.12 157.69 252.12 157.69 295.32 148.33 252.12"/><polygon class="cls-4" points="148.33 252.12 157.69 252.12 157.69 295.32 148.33 252.12"/><polyline class="cls-4" points="157.69 295.32 157.69 252.12 148.33 252.12 148.33 295.32"/><path d="M434.17,327.5h0Z" transform="translate(0 -28.34)"/><path class="cls-4" d="M434.17,327.5h0Z" transform="translate(0 -28.34)"/><path d="M443.53,397.82h-9.36V327.5Zm0,0Z" transform="translate(0 -28.34)"/><path class="cls-4" d="M443.53,397.82h-9.36V327.5Zm0,0Z" transform="translate(0 -28.34)"/><polygon points="434.17 299.16 443.53 299.16 443.53 369.48 434.17 299.16"/><polygon class="cls-4" points="434.17 299.16 443.53 299.16 443.53 369.48 434.17 299.16"/><line class="cls-4" x1="443.53" y1="365.64" x2="443.53" y2="306.12"/><polyline class="cls-4" points="443.53 302.28 443.53 299.16 434.17 299.16 434.17 369.48 443.53 369.48"/><path d="M.25,114.38h0Z" transform="translate(0 -28.34)"/><path class="cls-4" d="M.25,114.38h0Z" transform="translate(0 -28.34)"/><path d="M7.69,397.82H.25V114.38Zm0,0Z" transform="translate(0 -28.34)"/><path class="cls-4" d="M7.69,397.82H.25V114.38Zm0,0Z" transform="translate(0 -28.34)"/><polygon points="0.25 86.04 7.69 86.04 7.69 369.48 0.25 86.04"/><polygon class="cls-4" points="0.25 86.04 7.69 86.04 7.69 369.48 0.25 86.04"/><polyline class="cls-4" points="0.25 86.04 0.25 369.48 7.69 369.48 7.69 86.04"/><text class="cls-7" transform="translate(348.49 95.88)">2.28</text><text class="cls-7" transform="translate(357.28 161.64)">9.38</text><text class="cls-7" transform="translate(200.17 113.64)">14.28</text><text class="cls-7" transform="translate(258.25 337.08)">6.97</text><text class="cls-7" transform="translate(51.85 113.64)">12.12</text><text class="cls-7" transform="translate(364.57 342.12)">1.56</text><text class="cls-7" transform="translate(52.21 326.28)">3.21</text><text class="cls-7" transform="translate(215.79 185.64)">2К</text><text class="cls-7" transform="translate(205.26 210.97)">49.80</text><text class="cls-7" transform="translate(207.65 160.69)">№27</text><polyline class="cls-4" points="194.53 217.38 194.53 142.86 256.69 142.86 256.69 217.38"/><line class="cls-4" x1="194.54" y1="167.74" x2="256.68" y2="167.74"/><line class="cls-4" x1="194.54" y1="217.38" x2="256.68" y2="217.38"/><line class="cls-4" x1="194.54" y1="192.63" x2="256.68" y2="192.63"/><rect class="cls-8" x="0.25" y="61.08" width="7.32" height="29.78"/></svg>