<svg id="_1" data-name="1" xmlns="http://www.w3.org/2000/svg" viewBox="0 0 629.57 605.08"><defs><style>.cls-1{font-size:12px;}.cls-1,.cls-4{fill:#808184;}.cls-1,.cls-6,.cls-8{font-family:PTSans-Regular, PT Sans;}.cls-2{letter-spacing:-0.01em;}.cls-3,.cls-5{fill:none;stroke-linecap:round;stroke-linejoin:round;stroke-width:0.75px;}.cls-3{stroke:#808184;}.cls-5{stroke:#000;}.cls-6,.cls-8{isolation:isolate;}.cls-6{font-size:24px;}.cls-7{letter-spacing:-0.11em;}.cls-8{font-size:22px;}.cls-9{letter-spacing:-0.05em;}</style></defs><title>1floor_1flat</title><text class="cls-1" transform="translate(10.2 328.09) rotate(-90)"><tspan class="cls-2">у</tspan><tspan x="5.42" y="0">лица | парк</tspan></text><line class="cls-3" x1="1.8" y1="336.26" x2="12.24" y2="336.26"/><path class="cls-4" d="M35.27,339.86a.37.37,0,0,0-.11-.52l-4.84-3.08,4.84-3.08a.38.38,0,0,0-.4-.64l-5.34,3.4a.39.39,0,0,0,0,.64L34.76,340a.36.36,0,0,0,.2.06A.37.37,0,0,0,35.27,339.86Z" transform="translate(-28.35)"/><polyline class="cls-5" points="226.3 10.86 226.3 581.11 618.71 581.11 618.71 450.45"/><polyline class="cls-5" points="55.89 8.24 55.89 589.41 174.75 589.41 174.75 507.7 207.96 507.7 207.96 10.86"/><line class="cls-5" x1="629.2" y1="446.09" x2="629.2" y2="575.87"/><line class="cls-5" x1="591.18" y1="452.2" x2="591.18" y2="423.37"/><line class="cls-5" x1="591.18" y1="423.37" x2="617.39" y2="423.37"/><line class="cls-5" x1="617.39" y1="423.37" x2="617.39" y2="452.2"/><line class="cls-5" x1="617.39" y1="452.2" x2="591.18" y2="452.2"/><line class="cls-5" x1="587.24" y1="453.52" x2="587.24" y2="422.05"/><line class="cls-5" x1="618.71" y1="453.52" x2="618.71" y2="422.05"/><line class="cls-5" x1="593.79" y1="449.58" x2="593.79" y2="425.99"/><line class="cls-5" x1="593.79" y1="425.99" x2="612.15" y2="425.99"/><line class="cls-5" x1="612.15" y1="425.99" x2="612.15" y2="449.58"/><line class="cls-5" x1="612.15" y1="449.58" x2="593.79" y2="449.58"/><path class="cls-5" d="M633.07,438.22c-.44,0-.44,0-.44-.43s0-.44.44-.44" transform="translate(-28.35)"/><line class="cls-5" x1="604.72" y1="437.35" x2="615.21" y2="437.35"/><path class="cls-5" d="M643.56,437.35c.44,0,.44,0,.44.44s0,.43-.44.43" transform="translate(-28.35)"/><line class="cls-5" x1="615.21" y1="438.22" x2="604.72" y2="438.22"/><line class="cls-5" x1="612.59" y1="438.66" x2="612.59" y2="438.22"/><line class="cls-5" x1="612.59" y1="438.22" x2="615.21" y2="438.22"/><path class="cls-5" d="M643.56,437.35c.44,0,.44,0,.44.44s0,.43-.44.43" transform="translate(-28.35)"/><line class="cls-5" x1="615.21" y1="437.35" x2="612.59" y2="437.35"/><line class="cls-5" x1="612.59" y1="437.35" x2="612.59" y2="436.9"/><line class="cls-5" x1="612.59" y1="436.9" x2="616.09" y2="436.9"/><line class="cls-5" x1="616.09" y1="436.9" x2="616.09" y2="438.66"/><line class="cls-5" x1="616.09" y1="438.66" x2="612.59" y2="438.66"/><line class="cls-5" x1="610.84" y1="438.66" x2="610.84" y2="438.22"/><line class="cls-5" x1="610.84" y1="438.22" x2="612.59" y2="438.22"/><line class="cls-5" x1="612.59" y1="438.22" x2="612.59" y2="438.66"/><line class="cls-5" x1="612.59" y1="438.66" x2="610.84" y2="438.66"/><line class="cls-5" x1="610.84" y1="436.9" x2="612.59" y2="436.9"/><line class="cls-5" x1="612.59" y1="436.9" x2="612.59" y2="437.35"/><line class="cls-5" x1="612.59" y1="437.35" x2="610.84" y2="437.35"/><line class="cls-5" x1="610.84" y1="437.35" x2="610.84" y2="436.9"/><line class="cls-5" x1="615.65" y1="470.56" x2="615.65" y2="500.71"/><line class="cls-5" x1="615.65" y1="500.71" x2="590.3" y2="500.71"/><line class="cls-5" x1="590.3" y1="500.71" x2="590.3" y2="470.56"/><line class="cls-5" x1="590.3" y1="470.56" x2="615.65" y2="470.56"/><path class="cls-5" d="M624.33,481a3.94,3.94,0,1,1,3.93-3.93c-.43,2.18-1.75,3.93-3.93,3.93" transform="translate(-28.35)"/><path class="cls-5" d="M636.57,484.54a5.69,5.69,0,1,1,5.68-5.68c-.44,3.06-2.63,5.68-5.68,5.68" transform="translate(-28.35)"/><path class="cls-5" d="M625.22,498.09a4.81,4.81,0,1,1,4.79-4.81,4.87,4.87,0,0,1-4.79,4.81" transform="translate(-28.35)"/><path class="cls-5" d="M637,498.09a3.94,3.94,0,1,1,3.92-3.94,3.93,3.93,0,0,1-3.92,3.94" transform="translate(-28.35)"/><line class="cls-5" x1="618.71" y1="470.12" x2="618.71" y2="501.15"/><line class="cls-5" x1="587.24" y1="470.12" x2="587.24" y2="501.15"/><rect class="cls-5" x="534.82" y="241.14" width="83.89" height="31.47"/><rect class="cls-5" x="537.43" y="342.09" width="81.27" height="32.33"/><line class="cls-5" x1="587.24" y1="581.11" x2="587.24" y2="410.69"/><line class="cls-5" x1="587.24" y1="536.98" x2="618.71" y2="536.98"/><line class="cls-5" x1="587.24" y1="536.98" x2="587.24" y2="501.15"/><line class="cls-5" x1="587.24" y1="470.12" x2="587.24" y2="453.52"/><line class="cls-5" x1="500.73" y1="100" x2="500.73" y2="89.07"/><line class="cls-5" x1="500.73" y1="89.07" x2="500.73" y2="87.76"/><line class="cls-5" x1="500.73" y1="87.76" x2="501.16" y2="86.02"/><line class="cls-5" x1="501.16" y1="86.02" x2="502.04" y2="84.71"/><line class="cls-5" x1="502.04" y1="84.71" x2="502.91" y2="83.4"/><line class="cls-5" x1="502.91" y1="83.4" x2="503.79" y2="82.52"/><line class="cls-5" x1="503.79" y1="82.52" x2="505.1" y2="81.65"/><line class="cls-5" x1="505.1" y1="81.65" x2="508.16" y2="79.9"/><line class="cls-5" x1="508.16" y1="79.9" x2="511.65" y2="79.03"/><line class="cls-5" x1="511.65" y1="79.03" x2="515.15" y2="79.03"/><line class="cls-5" x1="515.15" y1="79.03" x2="518.64" y2="79.03"/><line class="cls-5" x1="518.64" y1="79.03" x2="521.7" y2="79.9"/><line class="cls-5" x1="521.7" y1="79.9" x2="524.76" y2="81.65"/><line class="cls-5" x1="524.76" y1="81.65" x2="526.07" y2="82.52"/><line class="cls-5" x1="526.07" y1="82.52" x2="527.39" y2="83.4"/><line class="cls-5" x1="527.39" y1="83.4" x2="528.25" y2="84.71"/><line class="cls-5" x1="528.25" y1="84.71" x2="528.7" y2="86.02"/><line class="cls-5" x1="528.7" y1="86.02" x2="529.13" y2="87.76"/><line class="cls-5" x1="529.13" y1="87.76" x2="529.57" y2="89.07"/><line class="cls-5" x1="529.57" y1="89.07" x2="529.57" y2="100"/><line class="cls-5" x1="529.57" y1="100" x2="500.73" y2="100"/><line class="cls-5" x1="520.83" y1="95.62" x2="509.46" y2="95.62"/><line class="cls-5" x1="526.51" y1="91.26" x2="526.51" y2="89.07"/><line class="cls-5" x1="503.79" y1="91.26" x2="503.79" y2="89.07"/><path class="cls-5" d="M535.19,84.26a16.2,16.2,0,0,1,16.6,0" transform="translate(-28.35)"/><path class="cls-5" d="M551.79,84.26a6,6,0,0,1,3.06,4.81" transform="translate(-28.35)"/><path class="cls-5" d="M554.85,91.26c0,2.18-2.63,4.36-5.67,4.36" transform="translate(-28.35)"/><path class="cls-5" d="M532.13,89.07a5.41,5.41,0,0,1,3.06-4.81" transform="translate(-28.35)"/><path class="cls-5" d="M537.81,95.62c-3,0-5.68-1.74-5.68-4.36" transform="translate(-28.35)"/><line class="cls-5" x1="513.83" y1="97.38" x2="513.83" y2="95.19"/><line class="cls-5" x1="513.83" y1="95.19" x2="513.83" y2="94.76"/><line class="cls-5" x1="514.27" y1="94.76" x2="514.27" y2="94.76"/><line class="cls-5" x1="514.27" y1="94.76" x2="514.27" y2="92.13"/><path class="cls-5" d="M542.61,92.13a.43.43,0,0,1,.45-.43c.43,0,.43,0,.86.43" transform="translate(-28.35)"/><line class="cls-5" x1="515.58" y1="92.13" x2="515.58" y2="92.13"/><line class="cls-5" x1="515.58" y1="92.13" x2="516.01" y2="94.76"/><line class="cls-5" x1="516.01" y1="94.76" x2="516.01" y2="95.19"/><line class="cls-5" x1="516.01" y1="95.19" x2="516.01" y2="95.19"/><line class="cls-5" x1="516.01" y1="95.19" x2="516.46" y2="97.38"/><path class="cls-5" d="M544.81,97.38a1.32,1.32,0,1,1-2.63,0" transform="translate(-28.35)"/><line class="cls-5" x1="513.83" y1="97.38" x2="513.83" y2="97.38"/><line class="cls-5" x1="515.58" y1="96.07" x2="515.58" y2="95.19"/><line class="cls-5" x1="514.27" y1="95.19" x2="514.27" y2="96.07"/><line class="cls-5" x1="514.27" y1="96.07" x2="515.58" y2="96.07"/><path class="cls-5" d="M542.61,95.19a1,1,0,0,1,.88-.87.94.94,0,0,1,.87.87" transform="translate(-28.35)"/><path class="cls-5" d="M542.61,94.76h0c.88-.87,1.31-.44,1.75,0" transform="translate(-28.35)"/><line class="cls-5" x1="618.71" y1="199.2" x2="540.06" y2="199.2"/><line class="cls-5" x1="540.06" y1="199.2" x2="540.06" y2="235.9"/><line class="cls-5" x1="540.06" y1="235.9" x2="618.71" y2="235.9"/><line class="cls-5" x1="618.71" y1="235.9" x2="618.71" y2="199.2"/><line class="cls-5" x1="609.53" y1="232.84" x2="610.84" y2="232.84"/><line class="cls-5" x1="610.84" y1="232.84" x2="611.72" y2="232.41"/><line class="cls-5" x1="611.72" y1="232.41" x2="612.59" y2="231.96"/><line class="cls-5" x1="612.59" y1="231.96" x2="613.9" y2="231.09"/><line class="cls-5" x1="613.9" y1="231.09" x2="614.35" y2="230.22"/><line class="cls-5" x1="614.35" y1="230.22" x2="615.21" y2="229.35"/><line class="cls-5" x1="615.21" y1="229.35" x2="615.65" y2="228.04"/><line class="cls-5" x1="615.65" y1="228.04" x2="616.09" y2="226.72"/><line class="cls-5" x1="616.09" y1="226.72" x2="616.09" y2="225.41"/><line class="cls-5" x1="616.09" y1="225.41" x2="616.09" y2="209.68"/><line class="cls-5" x1="616.09" y1="209.68" x2="616.09" y2="208.38"/><line class="cls-5" x1="616.09" y1="208.38" x2="615.65" y2="207.06"/><line class="cls-5" x1="615.65" y1="207.06" x2="615.21" y2="205.75"/><line class="cls-5" x1="615.21" y1="205.75" x2="614.35" y2="204.87"/><line class="cls-5" x1="614.35" y1="204.87" x2="613.9" y2="204"/><line class="cls-5" x1="613.9" y1="204" x2="612.59" y2="203.12"/><line class="cls-5" x1="612.59" y1="203.12" x2="611.72" y2="202.69"/><line class="cls-5" x1="611.72" y1="202.69" x2="610.84" y2="202.26"/><line class="cls-5" x1="610.84" y1="202.26" x2="609.53" y2="202.26"/><line class="cls-5" x1="609.53" y1="202.26" x2="556.66" y2="202.26"/><line class="cls-5" x1="556.66" y1="202.26" x2="554.03" y2="202.26"/><line class="cls-5" x1="554.03" y1="202.26" x2="551.85" y2="203.12"/><line class="cls-5" x1="551.85" y1="203.12" x2="549.67" y2="204.44"/><line class="cls-5" x1="549.67" y1="204.44" x2="547.48" y2="205.75"/><line class="cls-5" x1="547.48" y1="205.75" x2="546.17" y2="207.5"/><line class="cls-5" x1="546.17" y1="207.5" x2="544.86" y2="209.68"/><line class="cls-5" x1="544.86" y1="209.68" x2="543.55" y2="212.3"/><line class="cls-5" x1="543.55" y1="212.3" x2="543.12" y2="214.93"/><line class="cls-5" x1="543.12" y1="214.93" x2="542.67" y2="217.54"/><line class="cls-5" x1="542.67" y1="217.54" x2="543.12" y2="220.17"/><line class="cls-5" x1="543.12" y1="220.17" x2="543.55" y2="222.8"/><line class="cls-5" x1="543.55" y1="222.8" x2="544.86" y2="225.41"/><line class="cls-5" x1="544.86" y1="225.41" x2="546.17" y2="227.6"/><line class="cls-5" x1="546.17" y1="227.6" x2="547.48" y2="229.35"/><line class="cls-5" x1="547.48" y1="229.35" x2="549.67" y2="230.66"/><line class="cls-5" x1="549.67" y1="230.66" x2="551.85" y2="231.96"/><line class="cls-5" x1="551.85" y1="231.96" x2="554.03" y2="232.84"/><line class="cls-5" x1="554.03" y1="232.84" x2="556.66" y2="232.84"/><line class="cls-5" x1="556.66" y1="232.84" x2="609.53" y2="232.84"/><line class="cls-5" x1="616.53" y1="216.23" x2="614.35" y2="216.23"/><line class="cls-5" x1="614.35" y1="216.23" x2="613.9" y2="216.23"/><line class="cls-5" x1="613.9" y1="216.67" x2="613.9" y2="216.67"/><line class="cls-5" x1="613.9" y1="216.67" x2="611.28" y2="217.11"/><path class="cls-5" d="M639.62,217.11a.42.42,0,0,0-.43.43.43.43,0,0,0,.43.45" transform="translate(-28.35)"/><line class="cls-5" x1="611.28" y1="217.99" x2="611.28" y2="217.99"/><line class="cls-5" x1="611.28" y1="217.99" x2="613.9" y2="218.42"/><line class="cls-5" x1="613.9" y1="218.42" x2="614.33" y2="218.42"/><line class="cls-5" x1="614.35" y1="218.85" x2="614.35" y2="218.85"/><line class="cls-5" x1="614.35" y1="218.85" x2="616.53" y2="218.85"/><path class="cls-5" d="M644.87,218.85a1.31,1.31,0,1,0,0-2.62" transform="translate(-28.35)"/><line class="cls-5" x1="616.53" y1="216.23" x2="616.53" y2="216.23"/><line class="cls-5" x1="615.21" y1="218.42" x2="614.35" y2="218.42"/><line class="cls-5" x1="614.35" y1="216.67" x2="615.21" y2="216.67"/><line class="cls-5" x1="615.21" y1="216.67" x2="615.21" y2="218.42"/><path class="cls-5" d="M642.69,216.67a.88.88,0,1,0,0,1.75" transform="translate(-28.35)"/><path class="cls-5" d="M642.25,216.67a1.61,1.61,0,0,0-.44,1.32.42.42,0,0,0,.44.43" transform="translate(-28.35)"/><line class="cls-5" x1="582" y1="10.85" x2="582" y2="100"/><line class="cls-5" x1="582" y1="100" x2="618.71" y2="100"/><line class="cls-5" x1="618.71" y1="100" x2="618.71" y2="10.85"/><line class="cls-5" x1="618.71" y1="10.85" x2="582" y2="10.85"/><line class="cls-5" x1="615.65" y1="21.35" x2="615.65" y2="20.03"/><line class="cls-5" x1="615.65" y1="20.03" x2="615.21" y2="18.72"/><line class="cls-5" x1="615.21" y1="18.72" x2="614.78" y2="17.41"/><line class="cls-5" x1="614.78" y1="17.41" x2="613.9" y2="16.54"/><line class="cls-5" x1="613.9" y1="16.54" x2="613.03" y2="15.66"/><line class="cls-5" x1="613.03" y1="15.66" x2="612.15" y2="14.79"/><line class="cls-5" x1="612.15" y1="14.79" x2="610.84" y2="14.35"/><line class="cls-5" x1="610.84" y1="14.35" x2="609.53" y2="13.92"/><line class="cls-5" x1="609.53" y1="13.92" x2="608.23" y2="13.92"/><line class="cls-5" x1="608.23" y1="13.92" x2="592.5" y2="13.92"/><line class="cls-5" x1="592.5" y1="13.92" x2="591.18" y2="13.92"/><line class="cls-5" x1="591.18" y1="13.92" x2="589.87" y2="14.35"/><line class="cls-5" x1="589.87" y1="14.35" x2="588.56" y2="14.79"/><line class="cls-5" x1="588.56" y1="14.79" x2="587.69" y2="15.66"/><line class="cls-5" x1="587.69" y1="15.66" x2="586.81" y2="16.54"/><line class="cls-5" x1="586.81" y1="16.54" x2="585.93" y2="17.41"/><line class="cls-5" x1="585.93" y1="17.41" x2="585.49" y2="18.72"/><line class="cls-5" x1="585.49" y1="18.72" x2="585.06" y2="20.03"/><line class="cls-5" x1="585.06" y1="20.03" x2="585.06" y2="21.35"/><line class="cls-5" x1="585.06" y1="21.35" x2="585.06" y2="81.21"/><line class="cls-5" x1="585.06" y1="81.21" x2="585.06" y2="83.83"/><line class="cls-5" x1="585.06" y1="83.83" x2="585.93" y2="86.46"/><line class="cls-5" x1="585.93" y1="86.46" x2="586.81" y2="89.07"/><line class="cls-5" x1="586.81" y1="89.07" x2="588.56" y2="91.26"/><line class="cls-5" x1="588.56" y1="91.26" x2="590.3" y2="93.44"/><line class="cls-5" x1="590.3" y1="93.44" x2="592.5" y2="94.76"/><line class="cls-5" x1="592.5" y1="94.76" x2="595.11" y2="96.07"/><line class="cls-5" x1="595.11" y1="96.07" x2="597.73" y2="96.5"/><line class="cls-5" x1="597.73" y1="96.5" x2="600.36" y2="96.94"/><line class="cls-5" x1="600.36" y1="96.94" x2="602.98" y2="96.5"/><line class="cls-5" x1="602.98" y1="96.5" x2="605.6" y2="96.07"/><line class="cls-5" x1="605.6" y1="96.07" x2="608.23" y2="94.76"/><line class="cls-5" x1="608.23" y1="94.76" x2="610.41" y2="93.44"/><line class="cls-5" x1="610.41" y1="93.44" x2="612.15" y2="91.26"/><line class="cls-5" x1="612.15" y1="91.26" x2="613.47" y2="89.07"/><line class="cls-5" x1="613.47" y1="89.07" x2="614.78" y2="86.46"/><line class="cls-5" x1="614.78" y1="86.46" x2="615.65" y2="83.83"/><line class="cls-5" x1="615.65" y1="83.83" x2="615.65" y2="81.21"/><line class="cls-5" x1="615.65" y1="81.21" x2="615.65" y2="21.35"/><line class="cls-5" x1="599.05" y1="13.05" x2="599.05" y2="15.23"/><line class="cls-5" x1="599.05" y1="15.23" x2="599.05" y2="15.66"/><line class="cls-5" x1="599.48" y1="15.66" x2="599.48" y2="15.66"/><line class="cls-5" x1="599.48" y1="15.66" x2="599.91" y2="18.29"/><path class="cls-5" d="M628.26,18.29c0,.43.45.43.88.43a.42.42,0,0,0,.44-.43" transform="translate(-28.35)"/><line class="cls-5" x1="600.8" y1="18.29" x2="600.8" y2="18.29"/><line class="cls-5" x1="600.8" y1="18.29" x2="601.23" y2="15.66"/><line class="cls-5" x1="601.23" y1="15.66" x2="601.23" y2="15.23"/><line class="cls-5" x1="601.23" y1="15.23" x2="601.23" y2="15.23"/><line class="cls-5" x1="601.23" y1="15.23" x2="601.66" y2="13.05"/><path class="cls-5" d="M630,13.05a1.31,1.31,0,1,0-2.61,0" transform="translate(-28.35)"/><line class="cls-5" x1="599.05" y1="13.05" x2="599.05" y2="13.05"/><line class="cls-5" x1="601.23" y1="14.35" x2="601.23" y2="15.23"/><line class="cls-5" x1="599.48" y1="15.23" x2="599.48" y2="14.35"/><line class="cls-5" x1="599.48" y1="14.35" x2="601.23" y2="14.35"/><path class="cls-5" d="M627.83,15.23a.88.88,0,0,0,1.75,0" transform="translate(-28.35)"/><path class="cls-5" d="M627.83,15.66c.43.43.88.88,1.31.43a.43.43,0,0,0,.44-.43" transform="translate(-28.35)"/><line class="cls-5" x1="590.3" y1="591.6" x2="623.51" y2="591.6"/><path class="cls-5" d="M618.65,591.6h0" transform="translate(-28.35)"/><path class="cls-5" d="M291.35,591.6h0m208.89,0h0" transform="translate(-28.35)"/><line class="cls-5" x1="226.3" y1="10.85" x2="618.71" y2="10.85"/><line class="cls-5" x1="629.2" y1="0.38" x2="226.3" y2="0.38"/><line class="cls-5" x1="624.83" y1="329.85" x2="629.2" y2="329.85"/><line class="cls-5" x1="618.71" y1="329.85" x2="624.83" y2="329.85"/><line class="cls-5" x1="624.83" y1="277.85" x2="629.2" y2="277.85"/><line class="cls-5" x1="618.71" y1="277.85" x2="624.83" y2="277.85"/><line class="cls-5" x1="618.71" y1="10.85" x2="618.71" y2="277.85"/><line class="cls-5" x1="618.71" y1="329.85" x2="618.71" y2="450.46"/><line class="cls-5" x1="629.2" y1="450.46" x2="629.2" y2="329.85"/><line class="cls-5" x1="629.2" y1="277.85" x2="629.2" y2="235.9"/><line class="cls-5" x1="629.2" y1="243.52" x2="629.2" y2="0.38"/><line class="cls-5" x1="624.83" y1="277.85" x2="624.83" y2="279.59"/><line class="cls-5" x1="624.83" y1="279.59" x2="620.9" y2="279.59"/><line class="cls-5" x1="620.9" y1="279.59" x2="620.9" y2="279.16"/><line class="cls-5" x1="620.9" y1="279.16" x2="618.71" y2="279.16"/><line class="cls-5" x1="618.71" y1="279.16" x2="618.71" y2="277.85"/><line class="cls-5" x1="618.71" y1="277.85" x2="624.83" y2="277.85"/><line class="cls-5" x1="618.71" y1="329.85" x2="618.71" y2="328.54"/><line class="cls-5" x1="618.71" y1="328.54" x2="620.9" y2="328.54"/><line class="cls-5" x1="620.9" y1="328.54" x2="620.9" y2="328.1"/><line class="cls-5" x1="620.9" y1="328.1" x2="624.83" y2="328.1"/><line class="cls-5" x1="624.83" y1="328.1" x2="624.83" y2="329.85"/><line class="cls-5" x1="624.83" y1="329.85" x2="618.71" y2="329.85"/><line class="cls-5" x1="618.71" y1="328.54" x2="575.88" y2="304.07"/><line class="cls-5" x1="575.88" y1="304.07" x2="576.76" y2="301.88"/><line class="cls-5" x1="576.76" y1="301.88" x2="619.59" y2="326.79"/><line class="cls-5" x1="619.59" y1="326.79" x2="618.71" y2="328.54"/><path class="cls-5" d="M605.54,301.88a49.08,49.08,0,0,1,41.51-22.72" transform="translate(-28.35)"/><line class="cls-5" x1="618.71" y1="277.85" x2="624.83" y2="277.85"/><line class="cls-5" x1="618.71" y1="329.85" x2="624.83" y2="329.85"/><line class="cls-5" x1="226.3" y1="183.47" x2="472.32" y2="183.47"/><line class="cls-5" x1="477.56" y1="178.22" x2="226.3" y2="178.22"/><line class="cls-5" x1="477.56" y1="152" x2="482.81" y2="152"/><line class="cls-5" x1="477.56" y1="110.49" x2="482.81" y2="110.49"/><line class="cls-5" x1="477.56" y1="272.61" x2="482.81" y2="272.61"/><line class="cls-5" x1="477.56" y1="230.66" x2="482.81" y2="230.66"/><line class="cls-5" x1="482.81" y1="16.09" x2="477.56" y2="16.09"/><line class="cls-5" x1="482.81" y1="52.81" x2="477.56" y2="52.81"/><line class="cls-5" x1="482.81" y1="347.76" x2="482.81" y2="272.61"/><line class="cls-5" x1="482.81" y1="230.66" x2="482.81" y2="152"/><line class="cls-5" x1="482.81" y1="110.49" x2="482.81" y2="105.25"/><line class="cls-5" x1="482.81" y1="100" x2="482.81" y2="52.81"/><line class="cls-5" x1="482.81" y1="16.09" x2="482.81" y2="10.85"/><line class="cls-5" x1="482.81" y1="10.85" x2="477.56" y2="10.85"/><line class="cls-5" x1="477.56" y1="10.85" x2="477.56" y2="16.09"/><line class="cls-5" x1="477.56" y1="52.81" x2="477.56" y2="110.49"/><line class="cls-5" x1="477.56" y1="152" x2="477.56" y2="178.22"/><line class="cls-5" x1="477.56" y1="204.44" x2="477.56" y2="230.66"/><line class="cls-5" x1="477.56" y1="272.61" x2="477.56" y2="347.76"/><line class="cls-5" x1="483.25" y1="110.49" x2="483.25" y2="112.23"/><line class="cls-5" x1="483.25" y1="112.23" x2="477.56" y2="112.23"/><line class="cls-5" x1="477.56" y1="112.23" x2="477.56" y2="110.49"/><line class="cls-5" x1="477.56" y1="110.49" x2="483.25" y2="110.49"/><line class="cls-5" x1="477.56" y1="152" x2="477.56" y2="150.25"/><line class="cls-5" x1="477.56" y1="150.25" x2="483.25" y2="150.25"/><line class="cls-5" x1="483.25" y1="150.25" x2="483.25" y2="152"/><line class="cls-5" x1="483.25" y1="152" x2="477.56" y2="152"/><line class="cls-5" x1="477.56" y1="150.25" x2="444.8" y2="131.03"/><path class="cls-5" d="M473.14,131a37.26,37.26,0,0,1,32.77-18.8" transform="translate(-28.35)"/><line class="cls-5" x1="477.56" y1="110.49" x2="482.81" y2="110.49"/><line class="cls-5" x1="477.56" y1="152" x2="482.81" y2="152"/><line class="cls-5" x1="483.25" y1="230.66" x2="483.25" y2="232.84"/><line class="cls-5" x1="483.25" y1="232.84" x2="477.56" y2="232.84"/><line class="cls-5" x1="477.56" y1="232.84" x2="477.56" y2="230.66"/><line class="cls-5" x1="477.56" y1="230.66" x2="483.25" y2="230.66"/><line class="cls-5" x1="477.56" y1="272.61" x2="477.56" y2="270.43"/><line class="cls-5" x1="477.56" y1="270.43" x2="483.25" y2="270.43"/><line class="cls-5" x1="483.25" y1="270.43" x2="483.25" y2="272.61"/><line class="cls-5" x1="483.25" y1="272.61" x2="477.56" y2="272.61"/><line class="cls-5" x1="477.56" y1="270.43" x2="444.8" y2="251.63"/><path class="cls-5" d="M473.14,251.63a37.27,37.27,0,0,1,32.77-18.79" transform="translate(-28.35)"/><line class="cls-5" x1="477.56" y1="230.66" x2="482.81" y2="230.66"/><line class="cls-5" x1="477.56" y1="272.61" x2="482.81" y2="272.61"/><line class="cls-5" x1="476.69" y1="52.81" x2="476.69" y2="50.62"/><line class="cls-5" x1="476.69" y1="50.62" x2="482.81" y2="50.62"/><line class="cls-5" x1="482.81" y1="50.62" x2="482.81" y2="52.81"/><line class="cls-5" x1="482.81" y1="52.81" x2="476.69" y2="52.81"/><line class="cls-5" x1="482.81" y1="16.09" x2="482.81" y2="18.29"/><line class="cls-5" x1="482.81" y1="18.29" x2="476.69" y2="18.29"/><line class="cls-5" x1="476.69" y1="18.29" x2="476.69" y2="16.09"/><line class="cls-5" x1="476.69" y1="16.09" x2="482.81" y2="16.09"/><line class="cls-5" x1="482.81" y1="18.29" x2="510.77" y2="34.45"/><path class="cls-5" d="M539.12,34.45a32.26,32.26,0,0,1-28,16.17" transform="translate(-28.35)"/><line class="cls-5" x1="482.81" y1="52.81" x2="477.56" y2="52.81"/><line class="cls-5" x1="482.81" y1="16.09" x2="477.56" y2="16.09"/><line class="cls-5" x1="589" y1="100" x2="482.81" y2="100"/><line class="cls-5" x1="482.81" y1="105.25" x2="534.82" y2="105.25"/><line class="cls-5" x1="540.06" y1="105.25" x2="589" y2="105.25"/><line class="cls-5" x1="589" y1="105.25" x2="589" y2="100"/><line class="cls-5" x1="540.06" y1="190.02" x2="534.82" y2="190.02"/><line class="cls-5" x1="540.06" y1="153.31" x2="534.82" y2="153.31"/><line class="cls-5" x1="534.82" y1="105.25" x2="534.82" y2="153.31"/><line class="cls-5" x1="534.82" y1="190.02" x2="534.82" y2="241.14"/><line class="cls-5" x1="540.06" y1="235.9" x2="540.06" y2="190.02"/><line class="cls-5" x1="540.06" y1="153.31" x2="540.06" y2="105.25"/><line class="cls-5" x1="534.37" y1="153.31" x2="534.37" y2="155.49"/><line class="cls-5" x1="534.37" y1="155.49" x2="540.06" y2="155.49"/><line class="cls-5" x1="540.06" y1="155.49" x2="540.06" y2="153.31"/><line class="cls-5" x1="540.06" y1="153.31" x2="534.37" y2="153.31"/><line class="cls-5" x1="540.06" y1="190.02" x2="540.06" y2="187.84"/><line class="cls-5" x1="540.06" y1="187.84" x2="534.37" y2="187.84"/><line class="cls-5" x1="534.37" y1="187.84" x2="534.37" y2="190.02"/><line class="cls-5" x1="534.37" y1="190.02" x2="540.06" y2="190.02"/><line class="cls-5" x1="540.06" y1="187.84" x2="568.46" y2="171.66"/><path class="cls-5" d="M596.81,171.66a32.32,32.32,0,0,0-28-16.17" transform="translate(-28.35)"/><line class="cls-5" x1="540.06" y1="153.31" x2="534.82" y2="153.31"/><line class="cls-5" x1="540.06" y1="190.02" x2="534.82" y2="190.02"/><line class="cls-5" x1="618.71" y1="235.9" x2="540.06" y2="235.9"/><line class="cls-5" x1="534.82" y1="241.14" x2="618.71" y2="241.14"/><line class="cls-5" x1="618.71" y1="241.14" x2="618.71" y2="235.9"/><line class="cls-5" x1="532.19" y1="353.02" x2="532.19" y2="347.76"/><line class="cls-5" x1="490.68" y1="353.02" x2="490.68" y2="347.76"/><line class="cls-5" x1="477.56" y1="353.02" x2="490.68" y2="353.02"/><line class="cls-5" x1="537.43" y1="347.76" x2="532.19" y2="347.76"/><line class="cls-5" x1="490.68" y1="347.76" x2="482.81" y2="347.76"/><line class="cls-5" x1="490.68" y1="346.9" x2="492.43" y2="346.9"/><line class="cls-5" x1="492.43" y1="346.9" x2="492.43" y2="353.02"/><line class="cls-5" x1="492.43" y1="353.02" x2="490.68" y2="353.02"/><line class="cls-5" x1="490.68" y1="353.02" x2="490.68" y2="346.9"/><line class="cls-5" x1="532.19" y1="353.02" x2="530.44" y2="353.02"/><line class="cls-5" x1="530.44" y1="353.02" x2="530.44" y2="346.9"/><line class="cls-5" x1="530.44" y1="346.9" x2="532.19" y2="346.9"/><line class="cls-5" x1="532.19" y1="346.9" x2="532.19" y2="353.02"/><line class="cls-5" x1="530.44" y1="353.02" x2="511.65" y2="385.78"/><path class="cls-5" d="M540,385.78A37.23,37.23,0,0,1,521.21,353" transform="translate(-28.35)"/><line class="cls-5" x1="490.68" y1="353.02" x2="490.68" y2="347.76"/><line class="cls-5" x1="532.19" y1="353.02" x2="532.19" y2="347.76"/><line class="cls-5" x1="226.3" y1="353.02" x2="477.56" y2="353.02"/><line class="cls-5" x1="477.56" y1="347.76" x2="226.3" y2="347.76"/><line class="cls-5" x1="226.3" y1="347.76" x2="226.3" y2="353.02"/><line class="cls-5" x1="618.71" y1="450.46" x2="618.71" y2="581.11"/><line class="cls-5" x1="629.2" y1="591.6" x2="629.2" y2="450.46"/><line class="cls-5" x1="263.01" y1="591.6" x2="472.32" y2="591.6"/><line class="cls-5" x1="472.32" y1="581.11" x2="263.01" y2="581.11"/><line class="cls-5" x1="477.56" y1="591.6" x2="629.2" y2="591.6"/><line class="cls-5" x1="618.71" y1="581.11" x2="472.32" y2="581.11"/><line class="cls-5" x1="618.71" y1="409.38" x2="602.98" y2="409.38"/><line class="cls-5" x1="602.98" y1="409.38" x2="602.98" y2="410.69"/><line class="cls-5" x1="602.98" y1="410.69" x2="618.71" y2="410.69"/><line class="cls-5" x1="618.71" y1="410.69" x2="618.71" y2="409.38"/><line class="cls-5" x1="618.71" y1="374.42" x2="602.98" y2="374.42"/><line class="cls-5" x1="602.98" y1="374.42" x2="602.98" y2="375.73"/><line class="cls-5" x1="602.98" y1="375.73" x2="618.71" y2="375.73"/><line class="cls-5" x1="618.71" y1="375.73" x2="618.71" y2="374.42"/><line class="cls-5" x1="590.3" y1="121.85" x2="590.3" y2="101.31"/><line class="cls-5" x1="589" y1="100" x2="589" y2="123.16"/><line class="cls-5" x1="629.2" y1="458.32" x2="629.2" y2="464.44"/><line class="cls-5" x1="532.19" y1="353.02" x2="532.19" y2="379.66"/><line class="cls-5" x1="537.43" y1="374.42" x2="537.43" y2="347.76"/><line class="cls-5" x1="532.19" y1="379.66" x2="564.09" y2="379.66"/><line class="cls-5" x1="564.09" y1="379.66" x2="564.09" y2="374.42"/><line class="cls-5" x1="564.09" y1="374.42" x2="537.43" y2="374.42"/><line class="cls-5" x1="564.09" y1="410.69" x2="602.98" y2="410.69"/><line class="cls-5" x1="596.87" y1="404.14" x2="570.64" y2="404.14"/><line class="cls-5" x1="602.98" y1="410.69" x2="602.98" y2="374.42"/><line class="cls-5" x1="596.87" y1="380.54" x2="596.87" y2="404.14"/><line class="cls-5" x1="602.98" y1="374.42" x2="564.09" y2="374.42"/><line class="cls-5" x1="570.64" y1="380.54" x2="596.87" y2="380.54"/><line class="cls-5" x1="564.09" y1="374.42" x2="564.09" y2="410.69"/><line class="cls-5" x1="570.64" y1="404.14" x2="570.64" y2="380.54"/><line class="cls-5" x1="40.59" y1="8.24" x2="202.7" y2="8.24"/><line class="cls-5" x1="202.7" y1="8.24" x2="202.7" y2="2.99"/><line class="cls-5" x1="202.7" y1="2.99" x2="40.59" y2="2.99"/><line class="cls-5" x1="40.59" y1="2.99" x2="40.59" y2="8.24"/><line class="cls-5" x1="590.3" y1="101.31" x2="618.71" y2="101.31"/><line class="cls-5" x1="618.71" y1="101.31" x2="618.71" y2="100"/><line class="cls-5" x1="618.71" y1="100" x2="589" y2="100"/><line class="cls-5" x1="589" y1="123.16" x2="618.71" y2="123.16"/><line class="cls-5" x1="618.71" y1="123.16" x2="618.71" y2="121.85"/><line class="cls-5" x1="618.71" y1="121.85" x2="590.3" y2="121.85"/><line class="cls-5" x1="566.27" y1="91.7" x2="566.27" y2="73.35"/><line class="cls-5" x1="567.15" y1="100" x2="547.48" y2="100"/><line class="cls-5" x1="567.15" y1="100" x2="567.15" y2="93.01"/><line class="cls-5" x1="557.09" y1="88.64" x2="550.11" y2="88.64"/><line class="cls-5" x1="566.27" y1="73.35" x2="564.52" y2="88.64"/><line class="cls-5" x1="557.09" y1="88.64" x2="564.52" y2="88.64"/><line class="cls-5" x1="548.36" y1="73.35" x2="550.11" y2="88.64"/><line class="cls-5" x1="565.84" y1="73.35" x2="564.09" y2="88.64"/><line class="cls-5" x1="548.79" y1="73.35" x2="550.54" y2="88.64"/><line class="cls-5" x1="548.36" y1="91.7" x2="548.36" y2="73.35"/><line class="cls-5" x1="547.48" y1="100" x2="547.48" y2="93.01"/><path class="cls-5" d="M594.62,91.7a121.8,121.8,0,0,0-17.92,0" transform="translate(-28.35)"/><path class="cls-5" d="M594.18,73.35A8.7,8.7,0,0,0,585.44,65c-4.81,0-8.74,3.51-8.74,8.31" transform="translate(-28.35)"/><path class="cls-5" d="M595.5,93c0-.43-.44-.88-.88-1.31" transform="translate(-28.35)"/><path class="cls-5" d="M594.62,73.35a9.19,9.19,0,0,0-18.36,0" transform="translate(-28.35)"/><path class="cls-5" d="M576.7,91.7c-.43,0-.88.43-.88,1.31" transform="translate(-28.35)"/><path class="cls-5" d="M585.44,96.5a.87.87,0,1,0-.87-.86.93.93,0,0,0,.87.86" transform="translate(-28.35)"/><line class="cls-5" x1="556.66" y1="113.12" x2="556.66" y2="131.46"/><line class="cls-5" x1="555.79" y1="105.25" x2="575.45" y2="105.25"/><line class="cls-5" x1="555.79" y1="105.25" x2="555.79" y2="111.8"/><line class="cls-5" x1="565.84" y1="116.16" x2="572.82" y2="116.16"/><line class="cls-5" x1="556.66" y1="131.46" x2="558.41" y2="116.16"/><line class="cls-5" x1="565.84" y1="116.16" x2="558.41" y2="116.16"/><line class="cls-5" x1="574.58" y1="131.46" x2="572.82" y2="116.16"/><line class="cls-5" x1="557.09" y1="131.46" x2="558.85" y2="116.16"/><line class="cls-5" x1="574.14" y1="131.46" x2="572.39" y2="116.16"/><line class="cls-5" x1="574.58" y1="113.12" x2="574.58" y2="131.46"/><line class="cls-5" x1="575.45" y1="105.25" x2="575.45" y2="111.8"/><path class="cls-5" d="M585,113.12a124.77,124.77,0,0,0,17.93,0" transform="translate(-28.35)"/><path class="cls-5" d="M585.44,131.46a8.69,8.69,0,0,0,8.74,8.3c4.81,0,8.74-3.49,8.74-8.3" transform="translate(-28.35)"/><path class="cls-5" d="M584.14,111.8c0,.43.43,1.32.86,1.32" transform="translate(-28.35)"/><path class="cls-5" d="M585,131.46a9.19,9.19,0,0,0,18.36,0" transform="translate(-28.35)"/><path class="cls-5" d="M602.93,113.12c.43,0,.87-.45.87-1.32" transform="translate(-28.35)"/><path class="cls-5" d="M594.18,110.49a.88.88,0,0,0,0-1.75,1,1,0,0,0-.88.87c-.43.45,0,.88.88.88" transform="translate(-28.35)"/><line class="cls-5" x1="618.71" y1="185.21" x2="618.71" y2="161.61"/><line class="cls-5" x1="618.71" y1="161.61" x2="606.91" y2="161.61"/><line class="cls-5" x1="618.71" y1="185.21" x2="606.91" y2="185.21"/><line class="cls-5" x1="618.71" y1="169.48" x2="618.71" y2="176.91"/><line class="cls-5" x1="609.09" y1="171.23" x2="609.09" y2="172.54"/><line class="cls-5" x1="611.28" y1="173.42" x2="609.97" y2="173.42"/><line class="cls-5" x1="609.09" y1="173.85" x2="609.09" y2="175.17"/><line class="cls-5" x1="608.23" y1="173.42" x2="606.48" y2="173.42"/><path class="cls-5" d="M634.38,183.47a14.64,14.64,0,0,0,6.12-3.94" transform="translate(-28.35)"/><path class="cls-5" d="M640.07,179.53a7.81,7.81,0,0,0,1.74-6.11" transform="translate(-28.35)"/><path class="cls-5" d="M640.07,166.85a12.43,12.43,0,0,0-6.12-3.92" transform="translate(-28.35)"/><path class="cls-5" d="M641.81,173.42a10,10,0,0,0-1.74-6.12" transform="translate(-28.35)"/><path class="cls-5" d="M625.65,174.28a13.2,13.2,0,0,0,2.18,7" transform="translate(-28.35)"/><path class="cls-5" d="M635.26,161.61a10.51,10.51,0,0,0-6.12,2.18" transform="translate(-28.35)"/><path class="cls-5" d="M625.65,172.54v1.74" transform="translate(-28.35)"/><path class="cls-5" d="M639.62,180a32.93,32.93,0,0,0,0-13.12" transform="translate(-28.35)"/><path class="cls-5" d="M644.87,165.55a20.48,20.48,0,0,0-11.35-3.5" transform="translate(-28.35)"/><path class="cls-5" d="M646.62,173.42a33.35,33.35,0,0,0-.87-6.55" transform="translate(-28.35)"/><path class="cls-5" d="M645.74,166.42a.94.94,0,0,0-.87-.87" transform="translate(-28.35)"/><path class="cls-5" d="M645.31,173.42a32.75,32.75,0,0,0-.44-6.55" transform="translate(-28.35)"/><path class="cls-5" d="M644,165.55a19.11,19.11,0,0,0-10.93-3.5" transform="translate(-28.35)"/><path class="cls-5" d="M644.87,166.42c0-.43-.43-.87-.87-1.31" transform="translate(-28.35)"/><path class="cls-5" d="M633.07,184.33A19.1,19.1,0,0,0,644,180.84" transform="translate(-28.35)"/><path class="cls-5" d="M633.07,184.33a19.47,19.47,0,0,0,11.37-3.49" transform="translate(-28.35)"/><path class="cls-5" d="M644.87,180a32.85,32.85,0,0,0,.44-6.55" transform="translate(-28.35)"/><path class="cls-5" d="M645.74,180a32.82,32.82,0,0,0,.88-6.55" transform="translate(-28.35)"/><path class="cls-5" d="M644,181.29c.43-.45.87-.89.87-1.32" transform="translate(-28.35)"/><path class="cls-5" d="M644.87,181.29c.44-.45.87-.45.87-.89" transform="translate(-28.35)"/><path class="cls-5" d="M629.14,182.58a8.6,8.6,0,0,0,6.12,2.2" transform="translate(-28.35)"/><path class="cls-5" d="M627.83,181.29a5.8,5.8,0,0,1,1.31,1.74" transform="translate(-28.35)"/><path class="cls-5" d="M629.14,163.79a6.21,6.21,0,0,0-1.31,1.76" transform="translate(-28.35)"/><path class="cls-5" d="M627.83,165.11a14.4,14.4,0,0,0-2.18,7" transform="translate(-28.35)"/><path class="cls-5" d="M627.4,169.91a16.52,16.52,0,0,0,0,6.57" transform="translate(-28.35)"/><path class="cls-5" d="M630.89,182.15a4.94,4.94,0,0,0,3.49,1.32" transform="translate(-28.35)"/><path class="cls-5" d="M627.4,176.48a11.84,11.84,0,0,0,3.05,5.67" transform="translate(-28.35)"/><path class="cls-5" d="M634.38,162.93a4.93,4.93,0,0,0-3.49,1.31" transform="translate(-28.35)"/><path class="cls-5" d="M630.89,164.24a10.38,10.38,0,0,0-3.06,5.67" transform="translate(-28.35)"/><line class="cls-5" x1="184.36" y1="517.75" x2="207.96" y2="517.75"/><line class="cls-5" x1="207.96" y1="517.75" x2="207.96" y2="507.7"/><line class="cls-5" x1="207.96" y1="507.7" x2="174.75" y2="507.7"/><line class="cls-5" x1="174.75" y1="507.7" x2="174.75" y2="589.41"/><line class="cls-5" x1="184.36" y1="589.41" x2="184.36" y2="517.75"/><line class="cls-5" x1="40.59" y1="604.71" x2="202.7" y2="604.71"/><line class="cls-5" x1="202.7" y1="604.71" x2="202.7" y2="589.41"/><line class="cls-5" x1="202.7" y1="589.41" x2="184.36" y2="589.41"/><line class="cls-5" x1="174.75" y1="589.41" x2="55.89" y2="589.41"/><line class="cls-5" x1="55.89" y1="589.41" x2="55.89" y2="8.24"/><line class="cls-5" x1="40.59" y1="8.24" x2="40.59" y2="604.71"/><line class="cls-5" x1="40.59" y1="604.71" x2="215.82" y2="604.71"/><polyline class="cls-5" points="58.95 8.24 58.95 23.97 56.77 23.97 56.77 8.24"/><line class="cls-5" x1="58.94" y1="8.24" x2="58.94" y2="23.96"/><line class="cls-5" x1="58.94" y1="23.96" x2="56.76" y2="23.96"/><line class="cls-5" x1="56.76" y1="23.96" x2="56.76" y2="8.24"/><line class="cls-5" x1="58.07" y1="8.24" x2="58.07" y2="23.96"/><rect class="cls-5" x="56.77" y="23.96" width="2.18" height="62.93"/><line class="cls-5" x1="56.76" y1="23.96" x2="58.94" y2="23.96"/><line class="cls-5" x1="58.94" y1="23.96" x2="58.94" y2="86.89"/><line class="cls-5" x1="58.94" y1="86.89" x2="56.76" y2="86.89"/><line class="cls-5" x1="56.76" y1="86.89" x2="56.76" y2="23.96"/><line class="cls-5" x1="58.07" y1="23.96" x2="58.07" y2="86.89"/><rect class="cls-5" x="56.77" y="86.89" width="2.18" height="62.93"/><line class="cls-5" x1="56.76" y1="86.89" x2="58.94" y2="86.89"/><line class="cls-5" x1="58.94" y1="86.89" x2="58.94" y2="149.37"/><line class="cls-5" x1="58.94" y1="149.37" x2="56.76" y2="149.37"/><line class="cls-5" x1="56.76" y1="149.37" x2="56.76" y2="86.89"/><line class="cls-5" x1="58.07" y1="86.89" x2="58.07" y2="149.37"/><rect class="cls-5" x="56.77" y="149.37" width="2.18" height="62.93"/><line class="cls-5" x1="56.76" y1="149.37" x2="58.94" y2="149.37"/><line class="cls-5" x1="58.94" y1="149.37" x2="58.94" y2="212.3"/><line class="cls-5" x1="58.94" y1="212.3" x2="56.76" y2="212.3"/><line class="cls-5" x1="56.76" y1="212.3" x2="56.76" y2="149.37"/><line class="cls-5" x1="58.07" y1="149.37" x2="58.07" y2="212.3"/><rect class="cls-5" x="56.77" y="212.3" width="2.18" height="62.93"/><line class="cls-5" x1="56.76" y1="212.3" x2="58.94" y2="212.3"/><line class="cls-5" x1="58.94" y1="212.3" x2="58.94" y2="275.23"/><line class="cls-5" x1="58.94" y1="275.23" x2="56.76" y2="275.23"/><line class="cls-5" x1="56.76" y1="275.23" x2="56.76" y2="212.3"/><line class="cls-5" x1="58.07" y1="212.3" x2="58.07" y2="275.23"/><rect class="cls-5" x="56.77" y="275.23" width="2.18" height="62.92"/><line class="cls-5" x1="56.76" y1="275.23" x2="58.94" y2="275.23"/><line class="cls-5" x1="58.94" y1="275.23" x2="58.94" y2="337.71"/><line class="cls-5" x1="58.94" y1="337.71" x2="56.76" y2="337.71"/><line class="cls-5" x1="56.76" y1="337.71" x2="56.76" y2="275.23"/><line class="cls-5" x1="58.07" y1="275.23" x2="58.07" y2="337.71"/><rect class="cls-5" x="56.77" y="337.71" width="2.18" height="62.93"/><line class="cls-5" x1="56.76" y1="337.71" x2="58.94" y2="337.71"/><line class="cls-5" x1="58.94" y1="337.71" x2="58.94" y2="400.65"/><line class="cls-5" x1="58.94" y1="400.65" x2="56.76" y2="400.65"/><line class="cls-5" x1="56.76" y1="400.65" x2="56.76" y2="337.71"/><line class="cls-5" x1="58.07" y1="337.71" x2="58.07" y2="400.65"/><rect class="cls-5" x="56.77" y="400.65" width="2.18" height="62.92"/><line class="cls-5" x1="56.76" y1="400.65" x2="58.94" y2="400.65"/><line class="cls-5" x1="58.94" y1="400.65" x2="58.94" y2="463.56"/><line class="cls-5" x1="58.94" y1="463.56" x2="56.76" y2="463.56"/><line class="cls-5" x1="56.76" y1="463.56" x2="56.76" y2="400.65"/><line class="cls-5" x1="58.07" y1="400.65" x2="58.07" y2="463.56"/><rect class="cls-5" x="56.77" y="463.56" width="2.18" height="62.93"/><line class="cls-5" x1="56.76" y1="463.56" x2="58.94" y2="463.56"/><line class="cls-5" x1="58.94" y1="463.56" x2="58.94" y2="526.05"/><line class="cls-5" x1="58.94" y1="526.05" x2="56.76" y2="526.05"/><line class="cls-5" x1="56.76" y1="526.05" x2="56.76" y2="463.56"/><line class="cls-5" x1="58.07" y1="463.56" x2="58.07" y2="526.05"/><rect class="cls-5" x="56.77" y="526.05" width="2.18" height="62.05"/><line class="cls-5" x1="56.76" y1="526.05" x2="58.94" y2="526.05"/><line class="cls-5" x1="58.94" y1="526.05" x2="58.94" y2="588.54"/><line class="cls-5" x1="58.94" y1="588.54" x2="56.76" y2="588.54"/><line class="cls-5" x1="56.76" y1="588.54" x2="56.76" y2="526.05"/><line class="cls-5" x1="58.07" y1="526.05" x2="58.07" y2="588.54"/><rect class="cls-5" x="58.95" y="586.36" width="143.76" height="2.18"/><line class="cls-5" x1="202.7" y1="586.36" x2="202.7" y2="588.54"/><line class="cls-5" x1="202.7" y1="588.54" x2="58.94" y2="588.54"/><line class="cls-5" x1="58.94" y1="588.54" x2="58.94" y2="586.36"/><line class="cls-5" x1="58.94" y1="586.36" x2="202.7" y2="586.36"/><line class="cls-5" x1="202.7" y1="587.23" x2="58.94" y2="587.23"/><line class="cls-5" x1="200.09" y1="363.94" x2="200.09" y2="344.27"/><line class="cls-5" x1="199.21" y1="363.94" x2="199.21" y2="344.27"/><line class="cls-5" x1="200.09" y1="363.94" x2="199.21" y2="363.94"/><line class="cls-5" x1="200.09" y1="344.27" x2="199.21" y2="344.27"/><line class="cls-5" x1="202.7" y1="341.64" x2="202.7" y2="344.27"/><line class="cls-5" x1="202.7" y1="363.94" x2="202.7" y2="366.55"/><line class="cls-5" x1="202.7" y1="363.94" x2="202.7" y2="344.27"/><line class="cls-5" x1="198.78" y1="341.64" x2="198.78" y2="344.27"/><line class="cls-5" x1="198.78" y1="363.94" x2="198.78" y2="366.55"/><line class="cls-5" x1="198.78" y1="363.94" x2="198.78" y2="344.27"/><line class="cls-5" x1="202.7" y1="366.55" x2="198.78" y2="366.55"/><line class="cls-5" x1="202.7" y1="341.64" x2="198.78" y2="341.64"/><line class="cls-5" x1="202.7" y1="363.94" x2="200.09" y2="363.94"/><line class="cls-5" x1="199.21" y1="363.94" x2="198.78" y2="363.94"/><line class="cls-5" x1="202.7" y1="344.27" x2="200.09" y2="344.27"/><line class="cls-5" x1="199.21" y1="344.27" x2="198.78" y2="344.27"/><line class="cls-5" x1="200.09" y1="488.91" x2="200.09" y2="469.25"/><line class="cls-5" x1="199.21" y1="488.91" x2="199.21" y2="469.25"/><line class="cls-5" x1="200.09" y1="488.91" x2="199.21" y2="488.91"/><line class="cls-5" x1="200.09" y1="469.25" x2="199.21" y2="469.25"/><line class="cls-5" x1="202.7" y1="466.62" x2="202.7" y2="469.25"/><line class="cls-5" x1="202.7" y1="488.91" x2="202.7" y2="491.53"/><line class="cls-5" x1="202.7" y1="488.91" x2="202.7" y2="469.25"/><line class="cls-5" x1="198.78" y1="466.62" x2="198.78" y2="469.25"/><line class="cls-5" x1="198.78" y1="488.91" x2="198.78" y2="491.53"/><line class="cls-5" x1="198.78" y1="488.91" x2="198.78" y2="469.25"/><line class="cls-5" x1="202.7" y1="491.53" x2="198.78" y2="491.53"/><line class="cls-5" x1="202.7" y1="466.62" x2="198.78" y2="466.62"/><line class="cls-5" x1="202.7" y1="488.91" x2="200.09" y2="488.91"/><line class="cls-5" x1="199.21" y1="488.91" x2="198.78" y2="488.91"/><line class="cls-5" x1="202.7" y1="469.25" x2="200.09" y2="469.25"/><line class="cls-5" x1="199.21" y1="469.25" x2="198.78" y2="469.25"/><line class="cls-5" x1="200.09" y1="2.56" x2="199.21" y2="2.56"/><line class="cls-5" x1="202.7" y1="2.56" x2="202.7" y2="5.18"/><line class="cls-5" x1="198.78" y1="2.56" x2="198.78" y2="5.18"/><line class="cls-5" x1="202.7" y1="5.18" x2="198.78" y2="5.18"/><line class="cls-5" x1="202.7" y1="2.56" x2="200.09" y2="2.56"/><line class="cls-5" x1="199.21" y1="2.56" x2="198.78" y2="2.56"/><line class="cls-5" x1="618.71" y1="241.14" x2="534.82" y2="272.61"/><line class="cls-5" x1="618.71" y1="272.61" x2="534.82" y2="241.14"/><line class="cls-5" x1="618.71" y1="342.09" x2="537" y2="374.42"/><line class="cls-5" x1="618.71" y1="374.42" x2="537" y2="342.09"/><polyline class="cls-5" points="184.36 587.23 184.36 517.75 202.7 517.75"/><line class="cls-5" x1="261.26" y1="599.47" x2="263.01" y2="599.47"/><line class="cls-5" x1="257.77" y1="599.47" x2="261.26" y2="599.47"/><line class="cls-5" x1="263.01" y1="599.47" x2="263.01" y2="591.6"/><line class="cls-5" x1="257.77" y1="604.71" x2="257.77" y2="599.47"/><line class="cls-5" x1="257.77" y1="599.47" x2="261.26" y2="599.47"/><line class="cls-5" x1="257.77" y1="599.47" x2="261.26" y2="599.47"/><line class="cls-5" x1="263.01" y1="581.11" x2="226.3" y2="581.11"/><line class="cls-5" x1="202.7" y1="604.71" x2="257.77" y2="604.71"/><line class="cls-5" x1="218.87" y1="207.06" x2="226.3" y2="207.06"/><line class="cls-5" x1="207.96" y1="209.68" x2="215.82" y2="209.68"/><line class="cls-5" x1="204.02" y1="209.68" x2="207.96" y2="209.68"/><line class="cls-5" x1="202.7" y1="209.68" x2="204.02" y2="209.68"/><line class="cls-5" x1="215.82" y1="209.68" x2="215.82" y2="207.06"/><line class="cls-5" x1="215.82" y1="207.06" x2="218.87" y2="207.06"/><line class="cls-5" x1="218.87" y1="312.37" x2="226.3" y2="312.37"/><line class="cls-5" x1="207.96" y1="309.74" x2="215.82" y2="309.74"/><line class="cls-5" x1="204.02" y1="309.74" x2="207.96" y2="309.74"/><line class="cls-5" x1="202.7" y1="309.74" x2="204.02" y2="309.74"/><line class="cls-5" x1="215.82" y1="309.74" x2="215.82" y2="312.37"/><line class="cls-5" x1="215.82" y1="312.37" x2="218.87" y2="312.37"/><line class="cls-5" x1="218.87" y1="573.24" x2="226.3" y2="573.24"/><line class="cls-5" x1="207.96" y1="570.63" x2="215.82" y2="570.63"/><line class="cls-5" x1="204.02" y1="570.63" x2="207.96" y2="570.63"/><line class="cls-5" x1="202.7" y1="570.63" x2="204.02" y2="570.63"/><line class="cls-5" x1="215.82" y1="570.63" x2="215.82" y2="573.24"/><line class="cls-5" x1="215.82" y1="573.24" x2="218.87" y2="573.24"/><line class="cls-5" x1="218.87" y1="515.13" x2="226.3" y2="515.13"/><line class="cls-5" x1="207.96" y1="517.75" x2="215.82" y2="517.75"/><line class="cls-5" x1="204.02" y1="517.75" x2="207.96" y2="517.75"/><line class="cls-5" x1="202.7" y1="517.75" x2="204.02" y2="517.75"/><line class="cls-5" x1="215.82" y1="517.75" x2="215.82" y2="515.13"/><line class="cls-5" x1="215.82" y1="515.13" x2="218.87" y2="515.13"/><line class="cls-5" x1="218.87" y1="155.49" x2="226.3" y2="155.49"/><line class="cls-5" x1="207.96" y1="152.88" x2="215.82" y2="152.88"/><line class="cls-5" x1="204.02" y1="152.88" x2="207.96" y2="152.88"/><line class="cls-5" x1="202.7" y1="152.88" x2="204.02" y2="152.88"/><line class="cls-5" x1="215.82" y1="152.88" x2="215.82" y2="155.49"/><line class="cls-5" x1="215.82" y1="155.49" x2="218.87" y2="155.49"/><line class="cls-5" x1="218.87" y1="50.19" x2="226.3" y2="50.19"/><line class="cls-5" x1="207.96" y1="52.81" x2="215.82" y2="52.81"/><line class="cls-5" x1="204.02" y1="52.81" x2="207.96" y2="52.81"/><line class="cls-5" x1="202.7" y1="52.81" x2="204.02" y2="52.81"/><line class="cls-5" x1="215.82" y1="52.81" x2="215.82" y2="50.19"/><line class="cls-5" x1="215.82" y1="50.19" x2="218.87" y2="50.19"/><line class="cls-5" x1="219.75" y1="363.94" x2="226.3" y2="363.94"/><line class="cls-5" x1="215.82" y1="366.55" x2="216.26" y2="366.55"/><line class="cls-5" x1="207.96" y1="366.55" x2="215.82" y2="366.55"/><line class="cls-5" x1="204.02" y1="366.55" x2="207.96" y2="366.55"/><line class="cls-5" x1="202.7" y1="366.55" x2="204.02" y2="366.55"/><line class="cls-5" x1="216.26" y1="366.55" x2="216.26" y2="363.94"/><line class="cls-5" x1="216.26" y1="363.94" x2="219.75" y2="363.94"/><line class="cls-5" x1="219.75" y1="469.25" x2="226.3" y2="469.25"/><line class="cls-5" x1="215.82" y1="466.62" x2="216.26" y2="466.62"/><line class="cls-5" x1="207.96" y1="466.62" x2="215.82" y2="466.62"/><line class="cls-5" x1="204.02" y1="466.62" x2="207.96" y2="466.62"/><line class="cls-5" x1="202.7" y1="466.62" x2="204.02" y2="466.62"/><line class="cls-5" x1="216.26" y1="466.62" x2="216.26" y2="469.25"/><line class="cls-5" x1="216.26" y1="469.25" x2="219.75" y2="469.25"/><line class="cls-5" x1="202.7" y1="2.56" x2="202.7" y2="52.81"/><line class="cls-5" x1="202.7" y1="152.88" x2="202.7" y2="209.68"/><line class="cls-5" x1="202.7" y1="309.74" x2="202.7" y2="366.55"/><line class="cls-5" x1="202.7" y1="466.62" x2="202.7" y2="517.75"/><line class="cls-5" x1="202.7" y1="570.63" x2="202.7" y2="604.71"/><line class="cls-5" x1="226.3" y1="581.11" x2="226.3" y2="573.24"/><line class="cls-5" x1="226.3" y1="515.13" x2="226.3" y2="469.25"/><line class="cls-5" x1="226.3" y1="363.94" x2="226.3" y2="312.37"/><line class="cls-5" x1="226.3" y1="207.06" x2="226.3" y2="155.49"/><line class="cls-5" x1="226.3" y1="50.19" x2="226.3" y2="10.85"/><rect class="cls-5" x="199.64" y="309.74" width="2.63" height="24.91"/><rect class="cls-5" x="200.09" y="309.74" width="2.18" height="24.91"/><line class="cls-5" x1="202.27" y1="334.66" x2="200.09" y2="334.66"/><line class="cls-5" x1="200.09" y1="334.66" x2="200.09" y2="309.74"/><line class="cls-5" x1="200.09" y1="309.74" x2="202.27" y2="309.74"/><line class="cls-5" x1="202.27" y1="309.74" x2="202.27" y2="334.66"/><rect class="cls-5" x="197.46" y="309.74" width="2.63" height="24.91"/><rect class="cls-5" x="197.46" y="309.74" width="2.63" height="24.91"/><line class="cls-5" x1="200.09" y1="334.66" x2="197.47" y2="334.66"/><line class="cls-5" x1="197.47" y1="334.66" x2="197.47" y2="309.74"/><line class="cls-5" x1="197.47" y1="309.74" x2="200.09" y2="309.74"/><line class="cls-5" x1="200.09" y1="309.74" x2="200.09" y2="334.66"/><rect class="cls-5" x="199.64" y="184.78" width="2.63" height="24.9"/><rect class="cls-5" x="200.09" y="184.78" width="2.18" height="24.9"/><line class="cls-5" x1="202.27" y1="209.68" x2="200.09" y2="209.68"/><line class="cls-5" x1="200.09" y1="209.68" x2="200.09" y2="184.78"/><line class="cls-5" x1="200.09" y1="184.78" x2="202.27" y2="184.78"/><line class="cls-5" x1="202.27" y1="184.78" x2="202.27" y2="209.68"/><rect class="cls-5" x="197.46" y="184.78" width="2.63" height="24.9"/><rect class="cls-5" x="197.46" y="184.78" width="2.63" height="24.9"/><line class="cls-5" x1="200.09" y1="209.68" x2="197.47" y2="209.68"/><line class="cls-5" x1="197.47" y1="209.68" x2="197.47" y2="184.78"/><line class="cls-5" x1="197.47" y1="184.78" x2="200.09" y2="184.78"/><line class="cls-5" x1="200.09" y1="184.78" x2="200.09" y2="209.68"/><line class="cls-5" x1="202.7" y1="309.74" x2="202.7" y2="209.68"/><line class="cls-5" x1="226.3" y1="312.37" x2="226.3" y2="207.06"/><line class="cls-5" x1="218.87" y1="312.37" x2="218.87" y2="308.88"/><line class="cls-5" x1="218.87" y1="308.88" x2="218" y2="308.88"/><line class="cls-5" x1="218" y1="308.88" x2="218" y2="307.56"/><line class="cls-5" x1="218" y1="307.56" x2="215.82" y2="307.56"/><line class="cls-5" x1="215.82" y1="307.56" x2="215.82" y2="312.37"/><line class="cls-5" x1="215.82" y1="259.5" x2="215.82" y2="307.56"/><line class="cls-5" x1="221.06" y1="304.94" x2="221.06" y2="263.43"/><line class="cls-5" x1="218" y1="304.94" x2="218" y2="263.43"/><line class="cls-5" x1="221.06" y1="304.94" x2="221.06" y2="263.43"/><line class="cls-5" x1="219.75" y1="304.94" x2="219.75" y2="263.43"/><line class="cls-5" x1="221.06" y1="308.88" x2="221.06" y2="304.94"/><line class="cls-5" x1="221.06" y1="304.94" x2="218" y2="304.94"/><line class="cls-5" x1="218" y1="304.94" x2="218" y2="308.88"/><line class="cls-5" x1="218" y1="308.88" x2="221.06" y2="308.88"/><line class="cls-5" x1="218" y1="259.5" x2="218" y2="263.43"/><line class="cls-5" x1="218" y1="263.43" x2="221.06" y2="263.43"/><line class="cls-5" x1="221.06" y1="263.43" x2="221.06" y2="259.5"/><line class="cls-5" x1="221.06" y1="259.5" x2="218" y2="259.5"/><line class="cls-5" x1="215.82" y1="311.06" x2="218.87" y2="311.06"/><line class="cls-5" x1="215.82" y1="207.06" x2="215.82" y2="211.44"/><line class="cls-5" x1="215.82" y1="211.44" x2="218" y2="211.44"/><line class="cls-5" x1="218" y1="211.44" x2="218" y2="210.12"/><line class="cls-5" x1="218" y1="210.12" x2="218.87" y2="210.12"/><line class="cls-5" x1="218.87" y1="210.12" x2="218.87" y2="207.06"/><line class="cls-5" x1="215.82" y1="211.44" x2="215.82" y2="259.5"/><line class="cls-5" x1="221.06" y1="255.56" x2="221.06" y2="214.05"/><line class="cls-5" x1="218" y1="255.56" x2="218" y2="214.05"/><line class="cls-5" x1="221.06" y1="255.56" x2="221.06" y2="214.05"/><line class="cls-5" x1="219.75" y1="255.56" x2="219.75" y2="214.05"/><line class="cls-5" x1="221.06" y1="259.5" x2="221.06" y2="255.56"/><line class="cls-5" x1="221.06" y1="255.56" x2="218" y2="255.56"/><line class="cls-5" x1="218" y1="255.56" x2="218" y2="259.5"/><line class="cls-5" x1="218" y1="259.5" x2="221.06" y2="259.5"/><line class="cls-5" x1="218" y1="210.12" x2="218" y2="214.05"/><line class="cls-5" x1="218" y1="214.05" x2="221.06" y2="214.05"/><line class="cls-5" x1="221.06" y1="214.05" x2="221.06" y2="210.12"/><line class="cls-5" x1="221.06" y1="210.12" x2="218" y2="210.12"/><line class="cls-5" x1="215.82" y1="207.93" x2="218.87" y2="207.93"/><line class="cls-5" x1="215.82" y1="312.37" x2="218.87" y2="312.37"/><line class="cls-5" x1="215.82" y1="309.74" x2="215.82" y2="312.37"/><line class="cls-5" x1="215.82" y1="207.06" x2="218.87" y2="207.06"/><line class="cls-5" x1="215.82" y1="209.68" x2="215.82" y2="207.06"/><rect class="cls-5" x="199.64" y="491.53" width="2.63" height="26.21"/><rect class="cls-5" x="200.09" y="491.53" width="2.18" height="26.21"/><line class="cls-5" x1="202.27" y1="491.53" x2="200.09" y2="491.53"/><line class="cls-5" x1="200.09" y1="491.53" x2="200.09" y2="517.75"/><line class="cls-5" x1="200.09" y1="517.75" x2="202.27" y2="517.75"/><line class="cls-5" x1="202.27" y1="517.75" x2="202.27" y2="491.53"/><rect class="cls-5" x="199.64" y="570.63" width="2.63" height="26.21"/><rect class="cls-5" x="200.09" y="570.63" width="2.18" height="26.21"/><line class="cls-5" x1="202.27" y1="570.63" x2="200.09" y2="570.63"/><line class="cls-5" x1="200.09" y1="570.63" x2="200.09" y2="596.84"/><line class="cls-5" x1="200.09" y1="596.84" x2="202.27" y2="596.84"/><line class="cls-5" x1="202.27" y1="596.84" x2="202.27" y2="570.63"/><line class="cls-5" x1="202.7" y1="517.75" x2="202.7" y2="570.63"/><line class="cls-5" x1="226.3" y1="515.13" x2="226.3" y2="573.24"/><line class="cls-5" x1="218.87" y1="515.13" x2="218.87" y2="518.19"/><line class="cls-5" x1="218.87" y1="518.19" x2="218" y2="518.19"/><line class="cls-5" x1="218" y1="518.19" x2="218" y2="519.94"/><line class="cls-5" x1="218" y1="519.94" x2="215.82" y2="519.94"/><line class="cls-5" x1="215.82" y1="519.94" x2="215.82" y2="515.13"/><line class="cls-5" x1="215.82" y1="573.24" x2="215.82" y2="568.88"/><line class="cls-5" x1="215.82" y1="568.88" x2="218" y2="568.88"/><line class="cls-5" x1="218" y1="568.88" x2="218" y2="570.18"/><line class="cls-5" x1="218" y1="570.18" x2="218.87" y2="570.18"/><line class="cls-5" x1="218.87" y1="570.18" x2="218.87" y2="573.24"/><line class="cls-5" x1="215.82" y1="568.88" x2="215.82" y2="519.94"/><line class="cls-5" x1="221.06" y1="522.12" x2="221.06" y2="566.26"/><line class="cls-5" x1="218" y1="522.12" x2="218" y2="566.26"/><line class="cls-5" x1="221.06" y1="522.12" x2="221.06" y2="566.26"/><line class="cls-5" x1="219.75" y1="522.12" x2="219.75" y2="566.26"/><line class="cls-5" x1="221.06" y1="518.19" x2="221.06" y2="522.12"/><line class="cls-5" x1="221.06" y1="522.12" x2="218" y2="522.12"/><line class="cls-5" x1="218" y1="522.12" x2="218" y2="518.19"/><line class="cls-5" x1="218" y1="518.19" x2="221.06" y2="518.19"/><line class="cls-5" x1="218" y1="570.18" x2="218" y2="566.26"/><line class="cls-5" x1="218" y1="566.26" x2="221.06" y2="566.26"/><line class="cls-5" x1="221.06" y1="566.26" x2="221.06" y2="570.18"/><line class="cls-5" x1="221.06" y1="570.18" x2="218" y2="570.18"/><line class="cls-5" x1="215.82" y1="516.43" x2="218.87" y2="516.43"/><line class="cls-5" x1="215.82" y1="572.38" x2="218.87" y2="572.38"/><line class="cls-5" x1="215.82" y1="515.13" x2="218.87" y2="515.13"/><line class="cls-5" x1="215.82" y1="517.75" x2="215.82" y2="515.13"/><line class="cls-5" x1="215.82" y1="573.24" x2="218.87" y2="573.24"/><line class="cls-5" x1="215.82" y1="570.63" x2="215.82" y2="573.24"/><rect class="cls-5" x="199.64" y="27.9" width="2.63" height="24.91"/><rect class="cls-5" x="200.09" y="27.9" width="2.18" height="24.91"/><line class="cls-5" x1="202.27" y1="27.9" x2="200.09" y2="27.9"/><line class="cls-5" x1="200.09" y1="27.9" x2="200.09" y2="52.81"/><line class="cls-5" x1="200.09" y1="52.81" x2="202.27" y2="52.81"/><line class="cls-5" x1="202.27" y1="52.81" x2="202.27" y2="27.9"/><rect class="cls-5" x="197.46" y="27.9" width="2.63" height="24.91"/><rect class="cls-5" x="197.46" y="27.9" width="2.63" height="24.91"/><line class="cls-5" x1="200.09" y1="27.9" x2="197.47" y2="27.9"/><line class="cls-5" x1="197.47" y1="27.9" x2="197.47" y2="52.81"/><line class="cls-5" x1="197.47" y1="52.81" x2="200.09" y2="52.81"/><line class="cls-5" x1="200.09" y1="52.81" x2="200.09" y2="27.9"/><rect class="cls-5" x="199.64" y="152.88" width="2.63" height="24.9"/><rect class="cls-5" x="200.09" y="152.88" width="2.18" height="24.9"/><line class="cls-5" x1="202.27" y1="152.88" x2="200.09" y2="152.88"/><line class="cls-5" x1="200.09" y1="152.88" x2="200.09" y2="177.78"/><line class="cls-5" x1="200.09" y1="177.78" x2="202.27" y2="177.78"/><line class="cls-5" x1="202.27" y1="177.78" x2="202.27" y2="152.88"/><rect class="cls-5" x="197.46" y="152.88" width="2.63" height="24.9"/><rect class="cls-5" x="197.46" y="152.88" width="2.63" height="24.9"/><line class="cls-5" x1="200.09" y1="152.88" x2="197.47" y2="152.88"/><line class="cls-5" x1="197.47" y1="152.88" x2="197.47" y2="177.78"/><line class="cls-5" x1="197.47" y1="177.78" x2="200.09" y2="177.78"/><line class="cls-5" x1="200.09" y1="177.78" x2="200.09" y2="152.88"/><line class="cls-5" x1="202.7" y1="52.81" x2="202.7" y2="152.88"/><line class="cls-5" x1="226.3" y1="50.19" x2="226.3" y2="155.49"/><line class="cls-5" x1="218.87" y1="50.19" x2="218.87" y2="53.24"/><line class="cls-5" x1="218.87" y1="53.24" x2="218" y2="53.24"/><line class="cls-5" x1="218" y1="53.24" x2="218" y2="54.99"/><line class="cls-5" x1="218" y1="54.99" x2="215.82" y2="54.99"/><line class="cls-5" x1="215.82" y1="54.99" x2="215.82" y2="50.19"/><line class="cls-5" x1="215.82" y1="103.06" x2="215.82" y2="54.99"/><line class="cls-5" x1="221.06" y1="57.17" x2="221.06" y2="99.13"/><line class="cls-5" x1="218" y1="57.17" x2="218" y2="99.13"/><line class="cls-5" x1="221.06" y1="57.17" x2="221.06" y2="99.13"/><line class="cls-5" x1="219.75" y1="57.17" x2="219.75" y2="99.13"/><line class="cls-5" x1="221.06" y1="53.24" x2="221.06" y2="57.17"/><line class="cls-5" x1="221.06" y1="57.17" x2="218" y2="57.17"/><line class="cls-5" x1="218" y1="57.17" x2="218" y2="53.24"/><line class="cls-5" x1="218" y1="53.24" x2="221.06" y2="53.24"/><line class="cls-5" x1="218" y1="103.06" x2="218" y2="99.13"/><line class="cls-5" x1="218" y1="99.13" x2="221.06" y2="99.13"/><line class="cls-5" x1="221.06" y1="99.13" x2="221.06" y2="103.06"/><line class="cls-5" x1="221.06" y1="103.06" x2="218" y2="103.06"/><line class="cls-5" x1="215.82" y1="51.5" x2="218.87" y2="51.5"/><line class="cls-5" x1="215.82" y1="155.49" x2="215.82" y2="150.69"/><line class="cls-5" x1="215.82" y1="150.69" x2="218" y2="150.69"/><line class="cls-5" x1="218" y1="150.69" x2="218" y2="152.43"/><line class="cls-5" x1="218" y1="152.43" x2="218.87" y2="152.43"/><line class="cls-5" x1="218.87" y1="152.43" x2="218.87" y2="155.49"/><line class="cls-5" x1="215.82" y1="150.69" x2="215.82" y2="103.06"/><line class="cls-5" x1="221.06" y1="107" x2="221.06" y2="148.51"/><line class="cls-5" x1="218" y1="107" x2="218" y2="148.51"/><line class="cls-5" x1="221.06" y1="107" x2="221.06" y2="148.51"/><line class="cls-5" x1="219.75" y1="107" x2="219.75" y2="148.51"/><line class="cls-5" x1="221.06" y1="103.06" x2="221.06" y2="107"/><line class="cls-5" x1="221.06" y1="107" x2="218" y2="107"/><line class="cls-5" x1="218" y1="107" x2="218" y2="103.06"/><line class="cls-5" x1="218" y1="103.06" x2="221.06" y2="103.06"/><line class="cls-5" x1="218" y1="152.43" x2="218" y2="148.51"/><line class="cls-5" x1="218" y1="148.51" x2="221.06" y2="148.51"/><line class="cls-5" x1="221.06" y1="148.51" x2="221.06" y2="152.43"/><line class="cls-5" x1="221.06" y1="152.43" x2="218" y2="152.43"/><line class="cls-5" x1="215.82" y1="154.18" x2="218.87" y2="154.18"/><line class="cls-5" x1="215.82" y1="50.19" x2="218.87" y2="50.19"/><line class="cls-5" x1="215.82" y1="52.81" x2="215.82" y2="50.19"/><line class="cls-5" x1="215.82" y1="155.49" x2="218.87" y2="155.49"/><line class="cls-5" x1="215.82" y1="152.88" x2="215.82" y2="155.49"/><line class="cls-5" x1="216.26" y1="469.25" x2="216.26" y2="465.76"/><line class="cls-5" x1="216.26" y1="465.76" x2="219.75" y2="465.76"/><line class="cls-5" x1="219.75" y1="465.76" x2="219.75" y2="469.25"/><line class="cls-5" x1="219.75" y1="469.25" x2="216.26" y2="469.25"/><line class="cls-5" x1="216.26" y1="414.19" x2="217.57" y2="414.19"/><line class="cls-5" x1="217.57" y1="414.19" x2="217.57" y2="414.62"/><line class="cls-5" x1="217.57" y1="414.62" x2="219.75" y2="414.62"/><line class="cls-5" x1="219.75" y1="414.62" x2="219.75" y2="417.68"/><line class="cls-5" x1="219.75" y1="417.68" x2="216.26" y2="417.68"/><line class="cls-5" x1="216.26" y1="417.68" x2="216.26" y2="414.19"/><line class="cls-5" x1="219.75" y1="363.94" x2="219.75" y2="366.99"/><line class="cls-5" x1="219.75" y1="366.99" x2="217.57" y2="366.99"/><line class="cls-5" x1="217.57" y1="366.99" x2="217.57" y2="367.43"/><line class="cls-5" x1="217.57" y1="367.43" x2="216.26" y2="367.43"/><line class="cls-5" x1="216.26" y1="367.43" x2="216.26" y2="363.94"/><line class="cls-5" x1="216.26" y1="363.94" x2="219.75" y2="363.94"/><line class="cls-5" x1="217.57" y1="463.13" x2="217.57" y2="420.3"/><line class="cls-5" x1="217.57" y1="420.3" x2="219.75" y2="420.3"/><line class="cls-5" x1="219.75" y1="420.3" x2="219.75" y2="463.13"/><line class="cls-5" x1="219.75" y1="463.13" x2="217.57" y2="463.13"/><line class="cls-5" x1="217.57" y1="465.76" x2="217.57" y2="463.13"/><line class="cls-5" x1="217.57" y1="463.13" x2="219.75" y2="463.13"/><line class="cls-5" x1="219.75" y1="463.13" x2="219.75" y2="465.76"/><line class="cls-5" x1="219.75" y1="465.76" x2="217.57" y2="465.76"/><line class="cls-5" x1="217.57" y1="420.3" x2="217.57" y2="417.68"/><line class="cls-5" x1="217.57" y1="417.68" x2="219.75" y2="417.68"/><line class="cls-5" x1="219.75" y1="417.68" x2="219.75" y2="420.3"/><line class="cls-5" x1="219.75" y1="420.3" x2="217.57" y2="420.3"/><line class="cls-5" x1="218.87" y1="463.13" x2="218.87" y2="420.3"/><line class="cls-5" x1="216.26" y1="465.76" x2="216.26" y2="417.68"/><line class="cls-5" x1="216.26" y1="417.68" x2="217.57" y2="417.68"/><line class="cls-5" x1="217.57" y1="417.68" x2="217.57" y2="465.76"/><line class="cls-5" x1="217.57" y1="465.76" x2="216.26" y2="465.76"/><line class="cls-5" x1="216.26" y1="465.76" x2="216.26" y2="417.68"/><line class="cls-5" x1="219.75" y1="366.99" x2="261.26" y2="391.03"/><line class="cls-5" x1="261.26" y1="391.03" x2="260.39" y2="392.78"/><line class="cls-5" x1="260.39" y1="392.78" x2="218.87" y2="368.75"/><line class="cls-5" x1="218.87" y1="368.75" x2="219.75" y2="366.99"/><path class="cls-5" d="M288.74,392.78a47.69,47.69,0,0,1-40.64,22.29" transform="translate(-28.35)"/><line class="cls-5" x1="216.26" y1="469.25" x2="219.75" y2="469.25"/><line class="cls-5" x1="216.26" y1="466.62" x2="216.26" y2="469.25"/><line class="cls-5" x1="216.26" y1="363.94" x2="219.75" y2="363.94"/><line class="cls-5" x1="216.26" y1="366.55" x2="216.26" y2="363.94"/><line class="cls-5" x1="207.96" y1="604.71" x2="202.7" y2="604.71"/><rect class="cls-5" x="202.7" y="0.38" width="39.33" height="10.48"/><rect class="cls-5" x="393.67" y="0.38" width="26.21" height="10.48"/><rect class="cls-5" x="618.71" y="0.38" width="10.49" height="26.21"/><rect class="cls-5" x="618.71" y="178.22" width="10.49" height="26.21"/><rect class="cls-5" x="472.32" y="178.22" width="10.49" height="26.21"/><rect class="cls-5" x="618.71" y="471.43" width="10.49" height="26.22"/><rect class="cls-5" x="215.82" y="581.11" width="26.21" height="10.49"/><rect class="cls-5" x="320.25" y="581.11" width="26.22" height="10.49"/><rect class="cls-5" x="602.98" y="581.11" width="26.22" height="10.49"/><rect class="cls-5" x="215.82" y="162.49" width="10.48" height="26.21"/><rect class="cls-5" x="215.82" y="321.98" width="10.48" height="26.22"/><rect class="cls-5" x="456.59" y="581.11" width="26.22" height="10.49"/><text class="cls-6" transform="translate(336.24 270.83)">2К</text><text class="cls-6" transform="translate(331.59 239.52)">№1</text><text class="cls-6" transform="translate(329.54 301.01)">8<tspan class="cls-7" x="13.08" y="0">7</tspan><tspan x="23.52" y="0">.4</tspan></text><polyline class="cls-5" points="307.88 309.56 307.88 217.3 392.92 217.3 392.92 309.56"/><line class="cls-5" x1="307.88" y1="247.77" x2="392.92" y2="247.77"/><line class="cls-5" x1="307.88" y1="278.66" x2="392.92" y2="278.66"/><line class="cls-5" x1="307.88" y1="309.56" x2="392.92" y2="309.56"/><text class="cls-8" transform="translate(244.66 466.74)">31.2</text><text class="cls-8" transform="translate(244.66 270.43)">15.0</text><text class="cls-8" transform="translate(108.66 270.43)">9.1</text><text class="cls-8" transform="translate(244.66 103.06)">15.4</text><text class="cls-8" transform="translate(508.82 313.25)">8.<tspan class="cls-9" x="16.7" y="0">7</tspan></text><text class="cls-8" transform="translate(529.78 51.28)">4.4</text><text class="cls-8" transform="translate(566.72 162.49)">3.6</text></svg>