<svg id="_221" data-name="221" xmlns="http://www.w3.org/2000/svg" viewBox="0 0 250.09 315.75"><defs><style>.cls-1{isolation:isolate;font-size:6px;fill:#969696;font-family:PTSans-Regular, PT Sans;}.cls-11,.cls-12,.cls-13,.cls-14,.cls-2,.cls-7{fill:none;}.cls-2{stroke:#969696;stroke-width:0.37px;}.cls-11,.cls-12,.cls-13,.cls-14,.cls-2{stroke-linecap:round;stroke-linejoin:round;}.cls-3,.cls-5{font-size:14px;}.cls-3,.cls-5,.cls-8{fill:#231f20;font-family:BigCityGrotesquePro-Regular, BigCity Grotesque Pro;}.cls-3{letter-spacing:-0.06em;}.cls-4{letter-spacing:0em;}.cls-6{letter-spacing:-0.02em;}.cls-11,.cls-12,.cls-13,.cls-14,.cls-7{stroke:#000;}.cls-7{stroke-miterlimit:10;}.cls-12,.cls-7{stroke-width:0.5px;}.cls-8{font-size:18px;}.cls-9{letter-spacing:-0.02em;}.cls-10{letter-spacing:-0.02em;}.cls-13{stroke-width:0.54px;}.cls-14{stroke-width:0.2px;}</style></defs><title>3floor_221flat</title><text class="cls-1" transform="translate(122.5 5.1)">двор</text><line class="cls-2" x1="117.12" y1="2.11" x2="117.12" y2="6.51"/><polyline class="cls-2" points="118.87 3.86 117.12 2.11 115.37 3.86"/><text class="cls-3" transform="translate(19.42 244.21)">7<tspan class="cls-4" x="5.49" y="0">.90</tspan></text><text class="cls-5" transform="translate(183.46 272.74)"><tspan class="cls-6">9</tspan><tspan x="7.5" y="0">.30</tspan></text><text class="cls-5" transform="translate(172.39 97.66)">14.80</text><text class="cls-5" transform="translate(84.1 111.22)">12.50</text><text class="cls-5" transform="translate(107.28 287.13)">3.50</text><text class="cls-5" transform="translate(73.67 294.62) rotate(-90)">1.20</text><rect class="cls-7" x="160.79" y="123.54" width="62.22" height="24.35"/><rect class="cls-7" x="160.79" y="147.89" width="62.22" height="24.35"/><rect class="cls-7" x="160.79" y="172.24" width="62.22" height="24.35"/><text class="cls-8" transform="translate(170.25 141.2)">№221<tspan x="12.35" y="24">2</tspan><tspan class="cls-9" x="21.01" y="24">К</tspan><tspan x="0.29" y="48">4</tspan><tspan class="cls-10" x="10.15" y="48">9</tspan><tspan x="19.8" y="48">.20</tspan></text><line class="cls-11" x1="114.13" y1="220.31" x2="7.69" y2="220.31"/><line class="cls-11" x1="111.84" y1="218.02" x2="54.95" y2="218.02"/><line class="cls-11" x1="114.13" y1="184.73" x2="114.13" y2="220.31"/><line class="cls-11" x1="111.84" y1="182.45" x2="111.84" y2="218.02"/><line class="cls-11" x1="120.35" y1="184.73" x2="120.35" y2="182.45"/><line class="cls-11" x1="143.36" y1="182.45" x2="143.36" y2="184.73"/><line class="cls-11" x1="120.35" y1="184.73" x2="114.13" y2="184.73"/><line class="cls-11" x1="147.11" y1="184.73" x2="143.36" y2="184.73"/><line class="cls-11" x1="120.35" y1="182.45" x2="111.84" y2="182.45"/><line class="cls-11" x1="147.11" y1="182.45" x2="143.36" y2="182.45"/><line class="cls-11" x1="149.43" y1="248.69" x2="149.43" y2="308.05"/><line class="cls-11" x1="145.95" y1="256.77" x2="145.95" y2="308.05"/><line class="cls-11" x1="237.87" y1="218.88" x2="237.87" y2="216.59"/><line class="cls-11" x1="237.87" y1="218.88" x2="149.43" y2="218.88"/><line class="cls-11" x1="237.87" y1="216.59" x2="149.43" y2="216.59"/><line class="cls-11" x1="149.43" y1="248.69" x2="147.11" y2="248.69"/><line class="cls-11" x1="149.43" y1="212.54" x2="147.11" y2="212.54"/><line class="cls-11" x1="147.11" y1="225.65" x2="149.43" y2="225.65"/><line class="cls-11" x1="149.43" y1="90.56" x2="147.11" y2="90.56"/><line class="cls-11" x1="147.11" y1="189.49" x2="149.43" y2="189.49"/><line class="cls-11" x1="149.43" y1="218.88" x2="149.43" y2="225.65"/><line class="cls-11" x1="149.43" y1="90.56" x2="149.43" y2="189.49"/><line class="cls-11" x1="149.43" y1="212.54" x2="149.43" y2="216.59"/><line class="cls-11" x1="147.11" y1="248.69" x2="147.11" y2="253.3"/><line class="cls-11" x1="147.11" y1="212.54" x2="147.11" y2="225.65"/><line class="cls-11" x1="147.11" y1="90.56" x2="147.11" y2="182.45"/><line class="cls-11" x1="147.11" y1="184.73" x2="147.11" y2="189.49"/><line class="cls-11" x1="100.47" y1="256.77" x2="100.47" y2="253.3"/><line class="cls-11" x1="78" y1="253.3" x2="78" y2="256.77"/><line class="cls-11" x1="100.47" y1="256.77" x2="84.31" y2="256.77"/><line class="cls-11" x1="80.86" y1="256.77" x2="78" y2="256.77"/><line class="cls-11" x1="100.47" y1="253.3" x2="78" y2="253.3"/><line class="cls-11" x1="123.49" y1="253.3" x2="123.49" y2="256.77"/><line class="cls-11" x1="145.95" y1="256.77" x2="123.49" y2="256.77"/><line class="cls-11" x1="149.43" y1="253.3" x2="123.49" y2="253.3"/><line class="cls-12" x1="81.44" y1="280.68" x2="84.89" y2="280.68"/><line class="cls-11" x1="84.31" y1="256.77" x2="84.31" y2="280.68"/><line class="cls-11" x1="80.86" y1="256.77" x2="80.86" y2="307.96"/><line class="cls-13" x1="47.72" y1="256.19" x2="50.62" y2="253.3"/><line class="cls-13" x1="47.72" y1="262.78" x2="54.95" y2="255.55"/><line class="cls-13" x1="47.72" y1="269.33" x2="54.95" y2="262.14"/><line class="cls-13" x1="47.72" y1="275.92" x2="54.95" y2="268.72"/><line class="cls-13" x1="47.72" y1="282.47" x2="54.95" y2="275.28"/><line class="cls-13" x1="47.72" y1="289.06" x2="54.95" y2="281.86"/><line class="cls-13" x1="47.72" y1="295.61" x2="54.95" y2="288.42"/><line class="cls-13" x1="47.72" y1="302.2" x2="54.95" y2="295"/><line class="cls-13" x1="47.72" y1="308.75" x2="54.95" y2="301.56"/><line class="cls-13" x1="47.72" y1="315.25" x2="54.95" y2="308.14"/><line class="cls-13" x1="47.72" y1="315.25" x2="54.95" y2="314.7"/><line class="cls-13" x1="47.72" y1="315.25" x2="54.95" y2="315.25"/><line class="cls-13" x1="48.49" y1="258.72" x2="48.55" y2="258.66"/><line class="cls-13" x1="49.31" y1="257.9" x2="53.43" y2="253.82"/><line class="cls-13" x1="47.72" y1="266.04" x2="50.96" y2="262.84"/><line class="cls-13" x1="51.78" y1="262.02" x2="51.84" y2="261.96"/><line class="cls-13" x1="52.6" y1="261.19" x2="54.95" y2="258.85"/><line class="cls-13" x1="47.72" y1="272.63" x2="48.49" y2="271.86"/><line class="cls-13" x1="49.31" y1="271.04" x2="49.37" y2="270.98"/><line class="cls-13" x1="50.13" y1="270.25" x2="54.25" y2="266.13"/><line class="cls-13" x1="47.72" y1="279.21" x2="51.78" y2="275.16"/><line class="cls-13" x1="52.6" y1="274.33" x2="52.66" y2="274.27"/><line class="cls-13" x1="53.43" y1="273.51" x2="54.95" y2="271.99"/><line class="cls-13" x1="47.72" y1="285.77" x2="49.31" y2="284.21"/><line class="cls-13" x1="50.13" y1="283.39" x2="50.19" y2="283.3"/><line class="cls-13" x1="50.96" y1="282.57" x2="54.95" y2="278.57"/><line class="cls-13" x1="48.49" y1="291.59" x2="52.6" y2="287.47"/><line class="cls-13" x1="53.43" y1="286.65" x2="53.49" y2="286.59"/><line class="cls-13" x1="54.25" y1="285.83" x2="54.95" y2="285.13"/><line class="cls-13" x1="47.72" y1="298.91" x2="50.13" y2="296.53"/><line class="cls-13" x1="50.96" y1="295.71" x2="51.02" y2="295.64"/><line class="cls-13" x1="51.78" y1="294.88" x2="54.95" y2="291.71"/><line class="cls-13" x1="48.49" y1="304.73" x2="48.55" y2="304.67"/><line class="cls-13" x1="49.31" y1="303.91" x2="53.43" y2="299.79"/><line class="cls-13" x1="54.25" y1="299" x2="54.31" y2="298.91"/><line class="cls-13" x1="47.72" y1="312.05" x2="50.96" y2="308.85"/><line class="cls-13" x1="51.78" y1="308.02" x2="51.84" y2="307.96"/><line class="cls-13" x1="52.6" y1="307.2" x2="54.95" y2="304.85"/><line class="cls-13" x1="47.72" y1="315.25" x2="48.49" y2="315.25"/><line class="cls-13" x1="49.31" y1="315.25" x2="49.37" y2="315.25"/><line class="cls-13" x1="50.13" y1="315.25" x2="54.25" y2="312.14"/><line class="cls-13" x1="47.72" y1="315.25" x2="51.78" y2="315.25"/><line class="cls-13" x1="52.6" y1="315.25" x2="52.66" y2="315.25"/><line class="cls-13" x1="53.43" y1="315.25" x2="54.95" y2="315.25"/><polyline class="cls-11" points="54.95 315.25 54.95 308.05 54.95 300.83 54.95 253.3"/><polyline class="cls-11" points="54.95 253.3 47.73 253.3 47.73 315.25"/><line class="cls-13" x1="237.87" y1="289.49" x2="241.62" y2="285.71"/><line class="cls-13" x1="237.87" y1="296.04" x2="245.07" y2="288.85"/><line class="cls-13" x1="237.87" y1="302.63" x2="245.07" y2="295.43"/><line class="cls-13" x1="237.87" y1="309.18" x2="245.07" y2="301.99"/><line class="cls-13" x1="237.87" y1="315.25" x2="245.07" y2="308.57"/><line class="cls-13" x1="237.87" y1="315.25" x2="245.07" y2="315.13"/><line class="cls-13" x1="237.87" y1="315.25" x2="245.07" y2="315.25"/><line class="cls-13" x1="238.21" y1="285.86" x2="238.33" y2="285.71"/><line class="cls-13" x1="237.87" y1="292.78" x2="239.85" y2="290.77"/><line class="cls-13" x1="240.68" y1="289.94" x2="240.74" y2="289.88"/><line class="cls-13" x1="241.5" y1="289.12" x2="244.92" y2="285.71"/><line class="cls-13" x1="238.21" y1="299" x2="238.27" y2="298.91"/><line class="cls-13" x1="239.03" y1="298.18" x2="243.15" y2="294.06"/><line class="cls-13" x1="243.97" y1="293.24" x2="244.03" y2="293.18"/><line class="cls-13" x1="244.79" y1="292.41" x2="245.07" y2="292.14"/><line class="cls-13" x1="237.87" y1="305.92" x2="240.68" y2="303.08"/><line class="cls-13" x1="241.5" y1="302.26" x2="241.56" y2="302.2"/><line class="cls-13" x1="242.32" y1="301.47" x2="245.07" y2="298.69"/><line class="cls-13" x1="237.87" y1="312.47" x2="238.21" y2="312.14"/><line class="cls-13" x1="239.03" y1="311.32" x2="239.09" y2="311.25"/><line class="cls-13" x1="239.85" y1="310.49" x2="243.97" y2="306.38"/><line class="cls-13" x1="244.79" y1="305.55" x2="244.85" y2="305.49"/><line class="cls-13" x1="237.87" y1="315.25" x2="241.5" y2="315.25"/><line class="cls-13" x1="242.32" y1="314.61" x2="242.39" y2="314.52"/><line class="cls-13" x1="243.15" y1="313.78" x2="245.07" y2="311.86"/><line class="cls-13" x1="240.68" y1="315.25" x2="244.79" y2="315.25"/><line class="cls-11" x1="237.87" y1="285.71" x2="237.87" y2="308.05"/><line class="cls-11" x1="237.87" y1="315.25" x2="237.87" y2="315.25"/><polyline class="cls-11" points="245.07 315.25 245.07 285.71 243.54 285.71"/><line class="cls-13" x1="237.87" y1="85.77" x2="240.31" y2="83.33"/><line class="cls-13" x1="237.87" y1="92.36" x2="245.07" y2="85.16"/><line class="cls-13" x1="237.87" y1="98.91" x2="245.07" y2="91.72"/><line class="cls-13" x1="237.87" y1="105.5" x2="245.07" y2="98.3"/><line class="cls-13" x1="237.87" y1="112.05" x2="245.07" y2="104.86"/><line class="cls-13" x1="237.87" y1="118.64" x2="245.07" y2="111.44"/><line class="cls-13" x1="237.87" y1="125.19" x2="245.07" y2="118"/><line class="cls-13" x1="237.87" y1="131.78" x2="245.07" y2="124.58"/><line class="cls-13" x1="237.87" y1="138.36" x2="245.07" y2="131.14"/><line class="cls-13" x1="237.87" y1="144.92" x2="245.07" y2="137.72"/><line class="cls-13" x1="237.87" y1="151.5" x2="245.07" y2="144.28"/><line class="cls-13" x1="237.87" y1="158.06" x2="245.07" y2="150.86"/><line class="cls-13" x1="237.87" y1="164.64" x2="245.07" y2="157.42"/><line class="cls-13" x1="237.87" y1="171.2" x2="245.07" y2="164"/><line class="cls-13" x1="237.87" y1="177.78" x2="245.07" y2="170.59"/><line class="cls-13" x1="237.87" y1="184.34" x2="245.07" y2="177.14"/><line class="cls-13" x1="237.87" y1="190.92" x2="245.07" y2="183.73"/><line class="cls-13" x1="237.87" y1="197.48" x2="245.07" y2="190.28"/><line class="cls-13" x1="237.87" y1="204.06" x2="245.07" y2="196.87"/><line class="cls-13" x1="237.87" y1="210.62" x2="245.07" y2="203.42"/><line class="cls-13" x1="237.87" y1="217.2" x2="245.07" y2="210.01"/><line class="cls-13" x1="237.87" y1="223.79" x2="245.07" y2="216.56"/><line class="cls-13" x1="237.87" y1="230.34" x2="245.07" y2="223.15"/><line class="cls-13" x1="240.92" y1="233.85" x2="245.07" y2="229.7"/><line class="cls-13" x1="237.87" y1="89.06" x2="241.5" y2="85.44"/><line class="cls-13" x1="242.32" y1="84.61" x2="242.39" y2="84.55"/><line class="cls-13" x1="243.15" y1="83.79" x2="243.57" y2="83.33"/><line class="cls-13" x1="237.87" y1="95.65" x2="239.03" y2="94.46"/><line class="cls-13" x1="239.85" y1="93.64" x2="239.92" y2="93.58"/><line class="cls-13" x1="240.68" y1="92.81" x2="244.79" y2="88.73"/><line class="cls-13" x1="238.21" y1="101.87" x2="242.32" y2="97.75"/><line class="cls-13" x1="243.15" y1="96.93" x2="243.21" y2="96.87"/><line class="cls-13" x1="243.97" y1="96.11" x2="245.07" y2="95.01"/><line class="cls-13" x1="237.87" y1="108.79" x2="239.85" y2="106.78"/><line class="cls-13" x1="240.68" y1="105.95" x2="240.74" y2="105.89"/><line class="cls-13" x1="241.5" y1="105.13" x2="245.07" y2="101.56"/><line class="cls-13" x1="238.21" y1="115.01" x2="238.27" y2="114.95"/><line class="cls-13" x1="239.03" y1="114.18" x2="243.15" y2="110.07"/><line class="cls-13" x1="243.97" y1="109.25" x2="244.03" y2="109.18"/><line class="cls-13" x1="244.79" y1="108.42" x2="245.07" y2="108.15"/><line class="cls-13" x1="237.87" y1="121.93" x2="240.68" y2="119.09"/><line class="cls-13" x1="241.5" y1="118.3" x2="241.56" y2="118.21"/><line class="cls-13" x1="242.32" y1="117.48" x2="245.07" y2="114.73"/><line class="cls-13" x1="237.87" y1="128.48" x2="238.21" y2="128.15"/><line class="cls-13" x1="239.03" y1="127.32" x2="239.09" y2="127.26"/><line class="cls-13" x1="239.85" y1="126.5" x2="243.97" y2="122.39"/><line class="cls-13" x1="244.79" y1="121.56" x2="244.85" y2="121.5"/><line class="cls-13" x1="237.87" y1="135.07" x2="241.5" y2="131.44"/><line class="cls-13" x1="242.32" y1="130.62" x2="242.39" y2="130.53"/><line class="cls-13" x1="243.15" y1="129.79" x2="245.07" y2="127.87"/><line class="cls-13" x1="237.87" y1="141.62" x2="239.03" y2="140.46"/><line class="cls-13" x1="239.85" y1="139.64" x2="239.92" y2="139.58"/><line class="cls-13" x1="240.68" y1="138.82" x2="244.79" y2="134.7"/><line class="cls-13" x1="238.21" y1="147.84" x2="242.32" y2="143.76"/><line class="cls-13" x1="243.15" y1="142.93" x2="243.21" y2="142.87"/><line class="cls-13" x1="243.97" y1="142.11" x2="245.07" y2="141.01"/><line class="cls-13" x1="237.87" y1="154.76" x2="239.85" y2="152.78"/><line class="cls-13" x1="240.68" y1="151.96" x2="240.74" y2="151.9"/><line class="cls-13" x1="241.5" y1="151.14" x2="245.07" y2="147.57"/><line class="cls-13" x1="238.21" y1="160.98" x2="238.27" y2="160.92"/><line class="cls-13" x1="239.03" y1="160.19" x2="243.15" y2="156.07"/><line class="cls-13" x1="243.97" y1="155.25" x2="244.03" y2="155.19"/><line class="cls-13" x1="244.79" y1="154.43" x2="245.07" y2="154.15"/><line class="cls-13" x1="237.87" y1="167.9" x2="240.68" y2="165.1"/><line class="cls-13" x1="241.5" y1="164.28" x2="241.56" y2="164.21"/><line class="cls-13" x1="242.32" y1="163.45" x2="245.07" y2="160.71"/><line class="cls-13" x1="237.87" y1="174.49" x2="238.21" y2="174.15"/><line class="cls-13" x1="239.03" y1="173.33" x2="239.09" y2="173.24"/><line class="cls-13" x1="239.85" y1="172.51" x2="243.97" y2="168.39"/><line class="cls-13" x1="244.79" y1="167.57" x2="244.85" y2="167.51"/><line class="cls-13" x1="237.87" y1="181.07" x2="241.5" y2="177.42"/><line class="cls-13" x1="242.32" y1="176.59" x2="242.39" y2="176.53"/><line class="cls-13" x1="243.15" y1="175.77" x2="245.07" y2="173.85"/><line class="cls-13" x1="237.87" y1="187.63" x2="239.03" y2="186.47"/><line class="cls-13" x1="239.85" y1="185.65" x2="239.92" y2="185.59"/><line class="cls-13" x1="240.68" y1="184.82" x2="244.79" y2="180.71"/><line class="cls-13" x1="238.21" y1="193.85" x2="242.32" y2="189.73"/><line class="cls-13" x1="243.15" y1="188.94" x2="243.21" y2="188.85"/><line class="cls-13" x1="243.97" y1="188.12" x2="245.07" y2="186.99"/><line class="cls-13" x1="237.87" y1="200.77" x2="239.85" y2="198.79"/><line class="cls-13" x1="240.68" y1="197.96" x2="240.74" y2="197.9"/><line class="cls-13" x1="241.5" y1="197.14" x2="245.07" y2="193.57"/><line class="cls-13" x1="238.21" y1="206.99" x2="238.27" y2="206.93"/><line class="cls-13" x1="239.03" y1="206.16" x2="243.15" y2="202.08"/><line class="cls-13" x1="243.97" y1="201.26" x2="244.03" y2="201.16"/><line class="cls-13" x1="244.79" y1="200.43" x2="245.07" y2="200.13"/><line class="cls-13" x1="237.87" y1="213.91" x2="240.68" y2="211.1"/><line class="cls-13" x1="241.5" y1="210.28" x2="241.56" y2="210.22"/><line class="cls-13" x1="242.32" y1="209.46" x2="245.07" y2="206.71"/><line class="cls-13" x1="237.87" y1="220.49" x2="238.21" y2="220.13"/><line class="cls-13" x1="239.03" y1="219.3" x2="239.09" y2="219.24"/><line class="cls-13" x1="239.85" y1="218.48" x2="243.97" y2="214.4"/><line class="cls-13" x1="244.79" y1="213.57" x2="244.85" y2="213.51"/><line class="cls-13" x1="237.87" y1="227.05" x2="241.5" y2="223.42"/><line class="cls-13" x1="242.32" y1="222.6" x2="242.39" y2="222.54"/><line class="cls-13" x1="243.15" y1="221.77" x2="245.07" y2="219.85"/><line class="cls-13" x1="237.87" y1="233.63" x2="239.03" y2="232.44"/><line class="cls-13" x1="239.85" y1="231.62" x2="239.92" y2="231.56"/><line class="cls-13" x1="240.68" y1="230.83" x2="244.79" y2="226.71"/><line class="cls-13" x1="244.21" y1="233.85" x2="245.07" y2="232.99"/><polyline class="cls-11" points="245.07 233.85 245.07 83.33 237.87 83.33 237.87 233.85"/><line class="cls-13" x1="54.95" y1="308.14" x2="55.04" y2="308.05"/><line class="cls-13" x1="54.95" y1="314.67" x2="61.6" y2="308.05"/><line class="cls-13" x1="60.99" y1="315.25" x2="68.18" y2="308.05"/><line class="cls-13" x1="67.54" y1="315.25" x2="74.74" y2="308.05"/><line class="cls-13" x1="74.13" y1="315.25" x2="81.32" y2="308.05"/><line class="cls-13" x1="80.68" y1="315.25" x2="87.88" y2="308.05"/><line class="cls-13" x1="87.27" y1="315.25" x2="94.46" y2="308.05"/><line class="cls-13" x1="93.82" y1="315.25" x2="101.02" y2="308.05"/><line class="cls-13" x1="100.41" y1="315.25" x2="107.6" y2="308.05"/><line class="cls-13" x1="106.96" y1="315.25" x2="114.16" y2="308.05"/><line class="cls-13" x1="113.55" y1="315.25" x2="120.74" y2="308.05"/><line class="cls-13" x1="120.1" y1="315.25" x2="127.33" y2="308.05"/><line class="cls-13" x1="126.69" y1="315.25" x2="133.88" y2="308.05"/><line class="cls-13" x1="133.24" y1="315.25" x2="140.47" y2="308.05"/><line class="cls-13" x1="139.83" y1="315.25" x2="147.02" y2="308.05"/><line class="cls-13" x1="146.38" y1="315.25" x2="153.61" y2="308.05"/><line class="cls-13" x1="152.97" y1="315.25" x2="160.16" y2="308.05"/><line class="cls-13" x1="159.52" y1="315.25" x2="166.75" y2="308.05"/><line class="cls-13" x1="166.11" y1="315.25" x2="173.3" y2="308.05"/><line class="cls-13" x1="172.69" y1="315.25" x2="179.89" y2="308.05"/><line class="cls-13" x1="179.25" y1="315.25" x2="186.44" y2="308.05"/><line class="cls-13" x1="185.83" y1="315.25" x2="193.03" y2="308.05"/><line class="cls-13" x1="192.39" y1="315.25" x2="199.58" y2="308.05"/><line class="cls-13" x1="198.97" y1="315.25" x2="206.17" y2="308.05"/><line class="cls-13" x1="205.53" y1="315.25" x2="212.72" y2="308.05"/><line class="cls-13" x1="212.11" y1="315.25" x2="219.31" y2="308.05"/><line class="cls-13" x1="218.67" y1="315.25" x2="225.86" y2="308.05"/><line class="cls-13" x1="225.25" y1="315.25" x2="232.45" y2="308.05"/><line class="cls-13" x1="231.81" y1="315.25" x2="237.87" y2="309.18"/><line class="cls-13" x1="55.04" y1="311.32" x2="55.13" y2="311.22"/><line class="cls-13" x1="55.86" y1="310.49" x2="58.3" y2="308.05"/><line class="cls-13" x1="58.33" y1="314.58" x2="58.4" y2="314.52"/><line class="cls-13" x1="59.16" y1="313.75" x2="63.27" y2="309.67"/><line class="cls-13" x1="64.1" y1="308.85" x2="64.16" y2="308.78"/><line class="cls-13" x1="64.25" y1="315.25" x2="66.57" y2="312.96"/><line class="cls-13" x1="67.39" y1="312.14" x2="67.45" y2="312.05"/><line class="cls-13" x1="68.21" y1="311.32" x2="71.47" y2="308.05"/><line class="cls-13" x1="71.47" y1="314.58" x2="75.59" y2="310.49"/><line class="cls-13" x1="76.41" y1="309.67" x2="76.47" y2="309.61"/><line class="cls-13" x1="77.24" y1="308.85" x2="78.03" y2="308.05"/><line class="cls-13" x1="77.39" y1="315.25" x2="78.88" y2="313.75"/><line class="cls-13" x1="79.71" y1="312.96" x2="79.77" y2="312.87"/><line class="cls-13" x1="80.53" y1="312.14" x2="84.61" y2="308.05"/><line class="cls-13" x1="83.97" y1="315.25" x2="87.91" y2="311.32"/><line class="cls-13" x1="88.73" y1="310.49" x2="88.79" y2="310.4"/><line class="cls-13" x1="89.55" y1="309.67" x2="91.17" y2="308.05"/><line class="cls-13" x1="90.53" y1="315.25" x2="91.2" y2="314.58"/><line class="cls-13" x1="92.02" y1="313.75" x2="92.08" y2="313.69"/><line class="cls-13" x1="92.85" y1="312.96" x2="96.93" y2="308.85"/><line class="cls-13" x1="97.11" y1="315.25" x2="100.22" y2="312.14"/><line class="cls-13" x1="101.05" y1="311.32" x2="101.11" y2="311.22"/><line class="cls-13" x1="101.87" y1="310.49" x2="104.31" y2="308.05"/><line class="cls-13" x1="104.34" y1="314.58" x2="104.4" y2="314.52"/><line class="cls-13" x1="105.16" y1="313.75" x2="109.28" y2="309.67"/><line class="cls-13" x1="110.1" y1="308.85" x2="110.16" y2="308.78"/><line class="cls-13" x1="110.25" y1="315.25" x2="112.54" y2="312.96"/><line class="cls-13" x1="113.36" y1="312.14" x2="113.45" y2="312.05"/><line class="cls-13" x1="114.19" y1="311.32" x2="117.45" y2="308.05"/><line class="cls-13" x1="117.48" y1="314.58" x2="121.6" y2="310.49"/><line class="cls-13" x1="122.42" y1="309.67" x2="122.48" y2="309.61"/><line class="cls-13" x1="123.24" y1="308.85" x2="124.03" y2="308.05"/><line class="cls-13" x1="123.39" y1="315.25" x2="124.86" y2="313.75"/><line class="cls-13" x1="125.68" y1="312.96" x2="125.77" y2="312.87"/><line class="cls-13" x1="126.5" y1="312.14" x2="130.59" y2="308.05"/><line class="cls-13" x1="129.98" y1="315.25" x2="133.91" y2="311.32"/><line class="cls-13" x1="134.73" y1="310.49" x2="134.8" y2="310.4"/><line class="cls-13" x1="135.56" y1="309.67" x2="137.17" y2="308.05"/><line class="cls-13" x1="136.53" y1="315.25" x2="137.2" y2="314.58"/><line class="cls-13" x1="138.03" y1="313.75" x2="138.09" y2="313.69"/><line class="cls-13" x1="138.82" y1="312.96" x2="142.94" y2="308.85"/><line class="cls-13" x1="143.12" y1="315.25" x2="146.23" y2="312.14"/><line class="cls-13" x1="147.05" y1="311.32" x2="147.11" y2="311.22"/><line class="cls-13" x1="147.87" y1="310.49" x2="150.31" y2="308.05"/><line class="cls-13" x1="150.34" y1="314.58" x2="150.41" y2="314.52"/><line class="cls-13" x1="151.17" y1="313.75" x2="155.25" y2="309.67"/><line class="cls-13" x1="156.08" y1="308.85" x2="156.14" y2="308.78"/><line class="cls-13" x1="156.26" y1="315.25" x2="158.55" y2="312.96"/><line class="cls-13" x1="159.37" y1="312.14" x2="159.43" y2="312.05"/><line class="cls-13" x1="160.19" y1="311.32" x2="163.45" y2="308.05"/><line class="cls-13" x1="163.48" y1="314.58" x2="167.57" y2="310.49"/><line class="cls-13" x1="168.39" y1="309.67" x2="168.48" y2="309.61"/><line class="cls-13" x1="169.22" y1="308.85" x2="170.01" y2="308.05"/><line class="cls-13" x1="169.4" y1="315.25" x2="170.86" y2="313.75"/><line class="cls-13" x1="171.69" y1="312.96" x2="171.75" y2="312.87"/><line class="cls-13" x1="172.51" y1="312.14" x2="176.59" y2="308.05"/><line class="cls-13" x1="175.95" y1="315.25" x2="179.92" y2="311.32"/><line class="cls-13" x1="180.71" y1="310.49" x2="180.8" y2="310.4"/><line class="cls-13" x1="181.53" y1="309.67" x2="183.15" y2="308.05"/><line class="cls-13" x1="182.54" y1="315.25" x2="183.18" y2="314.58"/><line class="cls-13" x1="184" y1="313.75" x2="184.06" y2="313.69"/><line class="cls-13" x1="184.83" y1="312.96" x2="188.94" y2="308.85"/><line class="cls-13" x1="189.09" y1="315.25" x2="192.23" y2="312.14"/><line class="cls-13" x1="193.06" y1="311.32" x2="193.12" y2="311.22"/><line class="cls-13" x1="193.88" y1="310.49" x2="196.32" y2="308.05"/><line class="cls-13" x1="196.32" y1="314.58" x2="196.41" y2="314.52"/><line class="cls-13" x1="197.14" y1="313.75" x2="201.26" y2="309.67"/><line class="cls-13" x1="202.08" y1="308.85" x2="202.14" y2="308.78"/><line class="cls-13" x1="202.23" y1="315.25" x2="204.55" y2="312.96"/><line class="cls-13" x1="205.37" y1="312.14" x2="205.43" y2="312.05"/><line class="cls-13" x1="206.2" y1="311.32" x2="209.46" y2="308.05"/><line class="cls-13" x1="209.46" y1="314.58" x2="213.57" y2="310.49"/><line class="cls-13" x1="214.4" y1="309.67" x2="214.46" y2="309.61"/><line class="cls-13" x1="215.22" y1="308.85" x2="216.01" y2="308.05"/><line class="cls-13" x1="215.37" y1="315.25" x2="216.87" y2="313.75"/><line class="cls-13" x1="217.69" y1="312.96" x2="217.75" y2="312.87"/><line class="cls-13" x1="218.51" y1="312.14" x2="222.6" y2="308.05"/><line class="cls-13" x1="221.96" y1="315.25" x2="225.89" y2="311.32"/><line class="cls-13" x1="226.71" y1="310.49" x2="226.78" y2="310.4"/><line class="cls-13" x1="227.54" y1="309.67" x2="229.15" y2="308.05"/><line class="cls-13" x1="228.51" y1="315.25" x2="229.18" y2="314.58"/><line class="cls-13" x1="230.01" y1="313.75" x2="230.07" y2="313.69"/><line class="cls-13" x1="230.83" y1="312.96" x2="234.95" y2="308.85"/><line class="cls-13" x1="235.1" y1="315.25" x2="237.87" y2="312.47"/><polyline class="cls-11" points="237.87 315.25 237.87 308.05 72.24 308.05 54.95 308.05 54.95 315.25"/><polyline class="cls-11" points="47.73 315.25 72.24 315.25 249.52 315.25"/><line class="cls-13" x1="47.72" y1="85.34" x2="49.74" y2="83.33"/><line class="cls-13" x1="47.72" y1="91.93" x2="54.95" y2="84.73"/><line class="cls-13" x1="47.72" y1="98.48" x2="54.95" y2="91.29"/><line class="cls-13" x1="47.72" y1="105.07" x2="54.95" y2="97.87"/><line class="cls-13" x1="47.72" y1="111.62" x2="54.95" y2="104.43"/><line class="cls-13" x1="47.72" y1="118.21" x2="54.95" y2="111.01"/><line class="cls-13" x1="47.72" y1="124.76" x2="54.95" y2="117.57"/><line class="cls-13" x1="47.72" y1="131.35" x2="54.95" y2="124.15"/><line class="cls-13" x1="47.72" y1="137.93" x2="54.95" y2="130.71"/><line class="cls-13" x1="47.72" y1="144.49" x2="54.95" y2="137.29"/><line class="cls-13" x1="47.72" y1="151.07" x2="54.95" y2="143.85"/><line class="cls-13" x1="47.72" y1="157.63" x2="54.95" y2="150.43"/><line class="cls-13" x1="47.72" y1="164.21" x2="54.95" y2="156.99"/><line class="cls-13" x1="47.72" y1="170.77" x2="54.95" y2="163.57"/><line class="cls-13" x1="47.72" y1="177.35" x2="54.95" y2="170.16"/><line class="cls-13" x1="47.72" y1="183.91" x2="54.95" y2="176.71"/><line class="cls-13" x1="47.72" y1="190.49" x2="54.95" y2="183.3"/><line class="cls-13" x1="49.1" y1="195.68" x2="54.95" y2="189.85"/><line class="cls-13" x1="47.72" y1="88.64" x2="48.49" y2="87.9"/><line class="cls-13" x1="49.31" y1="87.08" x2="49.37" y2="86.99"/><line class="cls-13" x1="50.13" y1="86.26" x2="53.03" y2="83.33"/><line class="cls-13" x1="47.72" y1="95.22" x2="51.75" y2="91.17"/><line class="cls-13" x1="52.57" y1="90.34" x2="52.66" y2="90.28"/><line class="cls-13" x1="53.4" y1="89.55" x2="54.95" y2="88"/><line class="cls-13" x1="47.72" y1="101.78" x2="49.31" y2="100.22"/><line class="cls-13" x1="50.13" y1="99.4" x2="50.19" y2="99.34"/><line class="cls-13" x1="50.96" y1="98.58" x2="54.95" y2="94.58"/><line class="cls-13" x1="48.49" y1="107.6" x2="52.57" y2="103.51"/><line class="cls-13" x1="53.4" y1="102.69" x2="53.49" y2="102.6"/><line class="cls-13" x1="54.22" y1="101.87" x2="54.95" y2="101.14"/><line class="cls-13" x1="47.72" y1="114.92" x2="50.13" y2="112.54"/><line class="cls-13" x1="50.96" y1="111.72" x2="51.02" y2="111.65"/><line class="cls-13" x1="51.75" y1="110.89" x2="54.95" y2="107.72"/><line class="cls-13" x1="48.49" y1="120.74" x2="48.55" y2="120.68"/><line class="cls-13" x1="49.31" y1="119.92" x2="53.4" y2="115.83"/><line class="cls-13" x1="54.22" y1="115.01" x2="54.31" y2="114.95"/><line class="cls-13" x1="47.72" y1="128.06" x2="50.96" y2="124.86"/><line class="cls-13" x1="51.75" y1="124.03" x2="51.84" y2="123.97"/><line class="cls-13" x1="52.57" y1="123.21" x2="54.95" y2="120.86"/><line class="cls-13" x1="47.72" y1="134.64" x2="48.49" y2="133.88"/><line class="cls-13" x1="49.31" y1="133.06" x2="49.37" y2="133"/><line class="cls-13" x1="50.13" y1="132.26" x2="54.22" y2="128.15"/><line class="cls-13" x1="47.72" y1="141.2" x2="51.75" y2="137.17"/><line class="cls-13" x1="52.57" y1="136.35" x2="52.66" y2="136.29"/><line class="cls-13" x1="53.4" y1="135.53" x2="54.95" y2="134"/><line class="cls-13" x1="47.72" y1="147.78" x2="49.31" y2="146.23"/><line class="cls-13" x1="50.13" y1="145.4" x2="50.19" y2="145.31"/><line class="cls-13" x1="50.96" y1="144.58" x2="54.95" y2="140.59"/><line class="cls-13" x1="48.49" y1="153.6" x2="52.57" y2="149.49"/><line class="cls-13" x1="53.4" y1="148.67" x2="53.49" y2="148.6"/><line class="cls-13" x1="54.22" y1="147.84" x2="54.95" y2="147.14"/><line class="cls-13" x1="47.72" y1="160.92" x2="50.13" y2="158.54"/><line class="cls-13" x1="50.96" y1="157.72" x2="51.02" y2="157.63"/><line class="cls-13" x1="51.75" y1="156.9" x2="54.95" y2="153.73"/><line class="cls-13" x1="48.49" y1="166.74" x2="48.55" y2="166.68"/><line class="cls-13" x1="49.31" y1="165.92" x2="53.4" y2="161.81"/><line class="cls-13" x1="54.22" y1="160.98" x2="54.31" y2="160.92"/><line class="cls-13" x1="47.72" y1="174.06" x2="50.96" y2="170.86"/><line class="cls-13" x1="51.75" y1="170.04" x2="51.84" y2="169.98"/><line class="cls-13" x1="52.57" y1="169.21" x2="54.95" y2="166.87"/><line class="cls-13" x1="47.72" y1="180.65" x2="48.49" y2="179.88"/><line class="cls-13" x1="49.31" y1="179.06" x2="49.37" y2="179"/><line class="cls-13" x1="50.13" y1="178.24" x2="54.22" y2="174.15"/><line class="cls-13" x1="47.72" y1="187.2" x2="51.78" y2="183.18"/><line class="cls-13" x1="52.57" y1="182.35" x2="52.66" y2="182.29"/><line class="cls-13" x1="53.4" y1="181.53" x2="54.95" y2="180.01"/><line class="cls-13" x1="47.72" y1="193.79" x2="49.31" y2="192.2"/><line class="cls-13" x1="50.13" y1="191.38" x2="50.19" y2="191.32"/><line class="cls-13" x1="50.96" y1="190.56" x2="54.95" y2="186.56"/><line class="cls-13" x1="52.39" y1="195.68" x2="52.57" y2="195.49"/><line class="cls-13" x1="53.4" y1="194.67" x2="53.49" y2="194.61"/><line class="cls-13" x1="54.22" y1="193.85" x2="54.95" y2="193.15"/><polyline class="cls-11" points="54.95 195.68 54.95 83.33 47.73 83.33 47.73 195.68 54.95 195.68"/><line class="cls-11" x1="40.53" y1="277.78" x2="40.53" y2="280.68"/><line class="cls-11" x1="40.53" y1="282.69" x2="40.53" y2="285"/><line class="cls-11" x1="10.29" y1="285" x2="10.29" y2="282.69"/><line class="cls-11" x1="10.29" y1="280.68" x2="10.29" y2="277.78"/><line class="cls-11" x1="7.69" y1="277.78" x2="10.29" y2="277.78"/><line class="cls-11" x1="40.53" y1="277.78" x2="47.72" y2="277.78"/><line class="cls-11" x1="0.5" y1="277.78" x2="0.5" y2="277.78"/><line class="cls-11" x1="40.53" y1="285" x2="47.72" y2="285"/><line class="cls-11" x1="0.5" y1="285" x2="10.29" y2="285"/><line class="cls-11" x1="7.69" y1="220.31" x2="7.69" y2="277.78"/><line class="cls-11" x1="54.95" y1="195.68" x2="47.72" y2="195.68"/><polyline class="cls-11" points="47.73 195.68 47.73 213.12 0.5 213.12 0.5 284.27"/><line class="cls-11" x1="54.95" y1="220.31" x2="54.95" y2="195.68"/><path class="cls-12" d="M82.49,311.45l-.06.14" transform="translate(0 -28.35)"/><path class="cls-12" d="M83.46,310.56l-.14.06" transform="translate(0 -28.35)"/><path class="cls-12" d="M90,310.62l-.14-.06" transform="translate(0 -28.35)"/><path class="cls-12" d="M90.85,311.59a.84.84,0,0,0-.06-.14" transform="translate(0 -28.35)"/><path class="cls-12" d="M90.79,329.61a.75.75,0,0,0,.06-.13" transform="translate(0 -28.35)"/><path class="cls-12" d="M89.82,330.51l.14-.06" transform="translate(0 -28.35)"/><path class="cls-12" d="M83.32,330.45l.14.06" transform="translate(0 -28.35)"/><path class="cls-12" d="M82.43,329.48l.06.13" transform="translate(0 -28.35)"/><line class="cls-12" x1="80.86" y1="282.78" x2="82.97" y2="280.68"/><line class="cls-12" x1="80.86" y1="289.36" x2="82.3" y2="287.9"/><line class="cls-12" x1="88.09" y1="282.14" x2="89.55" y2="280.68"/><line class="cls-12" x1="83.49" y1="286.74" x2="84.95" y2="285.28"/><line class="cls-12" x1="80.86" y1="295.92" x2="82.3" y2="294.49"/><line class="cls-12" x1="90.07" y1="286.74" x2="92.39" y2="284.39"/><line class="cls-12" x1="80.86" y1="302.5" x2="82.39" y2="300.98"/><line class="cls-12" x1="90.96" y1="292.41" x2="92.39" y2="290.98"/><line class="cls-12" x1="84.25" y1="299.12" x2="85.68" y2="297.69"/><line class="cls-12" x1="86.2" y1="303.72" x2="87.63" y2="302.29"/><line class="cls-12" x1="90.65" y1="299.27" x2="92.39" y2="297.53"/><line class="cls-12" x1="80.86" y1="286.07" x2="82.33" y2="284.61"/><line class="cls-12" x1="85.19" y1="281.74" x2="86.26" y2="280.68"/><line class="cls-12" x1="80.86" y1="292.66" x2="81.08" y2="292.41"/><line class="cls-12" x1="81.9" y1="291.59" x2="81.99" y2="291.53"/><line class="cls-12" x1="90.62" y1="282.9" x2="92.39" y2="281.13"/><line class="cls-12" x1="86.78" y1="286.74" x2="86.84" y2="286.68"/><line class="cls-12" x1="87.66" y1="285.86" x2="87.72" y2="285.77"/><line class="cls-12" x1="80.86" y1="299.21" x2="82.57" y2="297.5"/><line class="cls-12" x1="90.96" y1="289.12" x2="91.02" y2="289.06"/><line class="cls-12" x1="91.78" y1="288.3" x2="92.39" y2="287.69"/><line class="cls-12" x1="83.55" y1="303.08" x2="84.37" y2="302.29"/><line class="cls-12" x1="90.96" y1="295.71" x2="92.39" y2="294.27"/><line class="cls-12" x1="87.54" y1="299.12" x2="87.66" y2="299"/><line class="cls-12" x1="88.49" y1="298.18" x2="88.55" y2="298.11"/><line class="cls-12" x1="89.49" y1="303.72" x2="90.96" y2="302.26"/><line class="cls-12" x1="91.78" y1="301.47" x2="91.84" y2="301.38"/><polyline class="cls-12" points="92.39 303.72 92.39 280.68 80.86 280.68 80.86 303.72 92.39 303.72"/><line class="cls-12" x1="90.22" y1="297.69" x2="83.03" y2="297.69"/><path class="cls-12" d="M82.33,325.29A.71.71,0,0,0,83,326" transform="translate(0 -28.35)"/><line class="cls-12" x1="82.3" y1="296.96" x2="82.3" y2="287.44"/><path class="cls-12" d="M83,315.06a.71.71,0,0,0-.71.72" transform="translate(0 -28.35)"/><line class="cls-12" x1="83.03" y1="286.74" x2="90.22" y2="286.74"/><path class="cls-12" d="M91,315.78a.72.72,0,0,0-.72-.72" transform="translate(0 -28.35)"/><line class="cls-12" x1="90.96" y1="287.44" x2="90.96" y2="296.96"/><path class="cls-12" d="M90.24,326a.72.72,0,0,0,.72-.72" transform="translate(0 -28.35)"/><line class="cls-12" x1="90.22" y1="285.28" x2="83.03" y2="285.28"/><path class="cls-12" d="M82.33,312.91a.71.71,0,0,0,.71.72" transform="translate(0 -28.35)"/><line class="cls-12" x1="82.3" y1="284.58" x2="82.3" y2="283.85"/><path class="cls-12" d="M84.05,310.46a1.72,1.72,0,0,0-1.72,1.72" transform="translate(0 -28.35)"/><line class="cls-12" x1="84.03" y1="282.14" x2="89.22" y2="282.14"/><path class="cls-12" d="M91,312.18a1.73,1.73,0,0,0-1.73-1.72" transform="translate(0 -28.35)"/><line class="cls-12" x1="90.96" y1="283.85" x2="90.96" y2="284.58"/><path class="cls-12" d="M90.24,313.63a.72.72,0,0,0,.72-.72" transform="translate(0 -28.35)"/><line class="cls-12" x1="89.22" y1="302.29" x2="84.03" y2="302.29"/><path class="cls-12" d="M82.33,328.89a1.72,1.72,0,0,0,1.72,1.72" transform="translate(0 -28.35)"/><line class="cls-12" x1="82.3" y1="300.55" x2="82.3" y2="299.85"/><path class="cls-12" d="M83,327.47a.71.71,0,0,0-.71.72" transform="translate(0 -28.35)"/><line class="cls-12" x1="83.03" y1="299.12" x2="90.22" y2="299.12"/><path class="cls-12" d="M91,328.19a.72.72,0,0,0-.72-.72" transform="translate(0 -28.35)"/><line class="cls-12" x1="90.96" y1="299.85" x2="90.96" y2="300.55"/><path class="cls-12" d="M89.23,330.61A1.73,1.73,0,0,0,91,328.89" transform="translate(0 -28.35)"/><polyline class="cls-11" points="15.5 267.14 14.92 268.14 38.37 281.68 38.94 280.68 15.5 267.14"/><polyline class="cls-11" points="39.95 282.69 39.95 280.68 38.94 280.68 38.94 281.83 38.67 281.83 38.67 282.69 39.95 282.69"/><polyline class="cls-11" points="10.87 282.69 12.15 282.69 12.15 281.83 11.87 281.83 11.87 280.68 10.87 280.68 10.87 282.69"/><line class="cls-11" x1="237.87" y1="233.85" x2="237.87" y2="242.51"/><polyline class="cls-11" points="243.54 242.5 245.07 242.5 245.07 233.85"/><line class="cls-11" x1="245.07" y1="83.33" x2="245.07" y2="233.85"/><line class="cls-11" x1="245.07" y1="242.51" x2="249.4" y2="242.51"/><line class="cls-11" x1="249.4" y1="242.51" x2="249.52" y2="242.51"/><line class="cls-11" x1="249.4" y1="242.51" x2="249.4" y2="79.03"/><line class="cls-11" x1="249.52" y1="242.51" x2="249.52" y2="78.88"/><polyline class="cls-11" points="70.77 84.86 70.77 91.69 122.63 91.69 122.63 84.86"/><line class="cls-14" x1="120.04" y1="82.72" x2="88.94" y2="82.72"/><line class="cls-14" x1="88.94" y1="83.21" x2="120.04" y2="83.21"/><polyline class="cls-14" points="120.04 82.72 120.04 83.21 120.47 83.21 120.47 82.72 120.04 82.72"/><polyline class="cls-14" points="88.94 83.21 88.94 82.72 88.49 82.72 88.49 83.21 88.94 83.21"/><line class="cls-14" x1="86.23" y1="83.21" x2="74.34" y2="83.21"/><line class="cls-14" x1="74.34" y1="83.67" x2="86.23" y2="83.67"/><polyline class="cls-14" points="86.23 83.21 86.23 83.67 86.66 83.67 86.66 83.21 86.23 83.21"/><polyline class="cls-14" points="74.34 83.67 74.34 83.21 73.91 83.21 73.91 83.67 74.34 83.67"/><polyline class="cls-14" points="89.06 84.28 89.06 83.3 88.49 83.3 88.49 83.21"/><polyline class="cls-14" points="88.49 82.72 88.49 82.63 89.06 82.63 89.06 82.05 87.05 82.05 87.05 82.45 87.63 82.45 87.63 84.28 89.06 84.28"/><polyline class="cls-14" points="121.9 82.05 119.89 82.05 119.89 82.63 120.47 82.63 120.47 82.72"/><polyline class="cls-14" points="120.47 83.21 120.47 83.3 119.89 83.3 119.89 84.28 121.9 84.28 121.9 82.05"/><polyline class="cls-14" points="71.5 82.05 71.5 84.28 72.94 84.28 72.94 82.45 73.52 82.45 73.52 82.05 71.5 82.05"/><line class="cls-14" x1="87.05" y1="82.05" x2="73.52" y2="82.05"/><line class="cls-14" x1="119.89" y1="84.28" x2="89.07" y2="84.28"/><line class="cls-14" x1="72.94" y1="84.28" x2="73.06" y2="84.28"/><line class="cls-14" x1="87.51" y1="84.28" x2="87.63" y2="84.28"/><line class="cls-14" x1="73.52" y1="82.45" x2="87.05" y2="82.45"/><line class="cls-14" x1="119.89" y1="82.63" x2="89.07" y2="82.63"/><line class="cls-14" x1="89.07" y1="82.05" x2="119.89" y2="82.05"/><line class="cls-14" x1="89.07" y1="83.3" x2="119.89" y2="83.3"/><line class="cls-14" x1="73.91" y1="83.76" x2="73.91" y2="83.67"/><polyline class="cls-14" points="73.91 83.21 73.91 83.09 74.49 83.09 74.49 82.51 73.06 82.51 73.06 84.34 72.48 84.34 72.48 84.77 74.49 84.77 74.49 83.76 73.91 83.76"/><line class="cls-14" x1="86.66" y1="83.09" x2="86.66" y2="83.21"/><polyline class="cls-14" points="86.66 83.67 86.66 83.76 86.08 83.76 86.08 84.77 88.09 84.77 88.09 84.34 87.51 84.34 87.51 82.51 86.08 82.51 86.08 83.09 86.66 83.09"/><line class="cls-14" x1="74.49" y1="83.09" x2="86.08" y2="83.09"/><line class="cls-14" x1="86.08" y1="83.76" x2="74.49" y2="83.76"/><line class="cls-14" x1="74.49" y1="84.76" x2="86.08" y2="84.76"/><line class="cls-14" x1="86.08" y1="82.51" x2="74.49" y2="82.51"/><line class="cls-11" x1="206.41" y1="59.4" x2="201.32" y2="64.49"/><line class="cls-11" x1="201.32" y1="64.49" x2="227.39" y2="90.56"/><line class="cls-14" x1="188.97" y1="43.24" x2="188.61" y2="43.58"/><line class="cls-13" x1="200.92" y1="64.89" x2="188.61" y2="52.57"/><polyline class="cls-11" points="149.83 90.56 161.23 79.13 156.14 74.03"/><line class="cls-13" x1="188.61" y1="52.57" x2="161.62" y2="79.55"/><line class="cls-14" x1="188.61" y1="43.58" x2="188.27" y2="43.24"/><line class="cls-11" x1="209.58" y1="56.23" x2="209.49" y2="56.35"/><line class="cls-11" x1="209.49" y1="56.35" x2="206.41" y2="59.4"/><line class="cls-12" x1="232.23" y1="78.88" x2="209.58" y2="56.23"/><line class="cls-12" x1="232.17" y1="79.03" x2="209.49" y2="56.35"/><line class="cls-13" x1="188.61" y1="34.86" x2="209.79" y2="56.05"/><line class="cls-11" x1="156.14" y1="74.03" x2="153.09" y2="70.98"/><line class="cls-11" x1="153.09" y1="70.98" x2="152.97" y2="70.89"/><line class="cls-13" x1="152.78" y1="70.68" x2="188.61" y2="34.86"/><line class="cls-14" x1="191.78" y1="44.86" x2="203.3" y2="56.38"/><line class="cls-14" x1="191.56" y1="45.07" x2="203.09" y2="56.59"/><line class="cls-14" x1="203.42" y1="56.26" x2="191.9" y2="44.73"/><line class="cls-14" x1="203.21" y1="56.47" x2="191.69" y2="44.95"/><polyline class="cls-14" points="203.39 56.9 203.51 56.78 203.21 56.47 203.09 56.59 203.39 56.9"/><polyline class="cls-14" points="191.38 44.64 191.26 44.77 191.56 45.07 191.69 44.95 191.38 44.64"/><polyline class="cls-14" points="191.59 44.43 191.47 44.55 191.78 44.86 191.9 44.73 191.59 44.43"/><polyline class="cls-14" points="203.61 56.69 203.73 56.56 203.42 56.26 203.3 56.38 203.61 56.69"/><line class="cls-14" x1="159.28" y1="71.05" x2="170.65" y2="59.67"/><line class="cls-14" x1="159.49" y1="71.26" x2="170.86" y2="59.89"/><line class="cls-14" x1="170.53" y1="59.55" x2="159.16" y2="70.92"/><line class="cls-14" x1="170.74" y1="59.77" x2="159.37" y2="71.14"/><polyline class="cls-14" points="171.17 59.58 171.04 59.46 170.74 59.77 170.86 59.89 171.17 59.58"/><polyline class="cls-14" points="158.85 71.23 158.97 71.35 159.28 71.05 159.16 70.92 158.85 71.23"/><polyline class="cls-14" points="170.95 59.37 170.83 59.25 170.53 59.55 170.65 59.67 170.95 59.37"/><polyline class="cls-14" points="159.06 71.44 159.19 71.56 159.49 71.26 159.37 71.14 159.06 71.44"/><polyline class="cls-14" points="173.82 57.69 172.23 56.11 170.53 57.81 170.83 58.09 171.23 57.69 172.54 58.97 173.82 57.69"/><polyline class="cls-14" points="188.61 42.91 189.92 44.19 191.2 42.88 191.62 43.27 191.9 43 188.61 39.7 185.34 43 185.74 43.39 186.17 43 186.66 43.48 186.23 43.88 186.93 44.58 188.61 42.91"/><polyline class="cls-14" points="155.71 72.6 157.33 74.22 158.61 72.91 157.29 71.63 157.69 71.2 157.42 70.92 155.71 72.6"/><polyline class="cls-14" points="203.97 58.24 205.25 59.52 206.84 57.94 205.16 56.26 204.89 56.53 205.28 56.96 203.97 58.24"/><line class="cls-14" x1="186.93" y1="44.58" x2="173.82" y2="57.69"/><line class="cls-14" x1="186.23" y1="43.88" x2="173.12" y2="57.02"/><line class="cls-14" x1="185.74" y1="43.39" x2="172.63" y2="56.53"/><line class="cls-14" x1="157.42" y1="70.92" x2="170.53" y2="57.81"/><line class="cls-14" x1="185.34" y1="43" x2="172.23" y2="56.11"/><line class="cls-14" x1="172.54" y1="58.97" x2="172.42" y2="59.09"/><line class="cls-14" x1="158.7" y1="72.81" x2="158.61" y2="72.91"/><line class="cls-14" x1="170.83" y1="58.09" x2="157.69" y2="71.2"/><line class="cls-14" x1="203.97" y1="58.24" x2="203.88" y2="58.15"/><line class="cls-14" x1="190.01" y1="44.28" x2="189.92" y2="44.19"/><line class="cls-14" x1="191.9" y1="43" x2="205.16" y2="56.26"/><line class="cls-14" x1="204.89" y1="56.53" x2="191.62" y2="43.27"/><line class="cls-14" x1="203.79" y1="56.47" x2="203.73" y2="56.56"/><line class="cls-14" x1="203.61" y1="56.69" x2="203.51" y2="56.78"/><polyline class="cls-14" points="203.39 56.9 203.3 56.96 202.9 56.56 202.2 57.27 203.91 58.94 204.19 58.67 203.79 58.24 205.07 56.96 203.79 55.68 203.39 56.08 203.79 56.47"/><line class="cls-14" x1="191.2" y1="44.86" x2="191.26" y2="44.77"/><line class="cls-14" x1="191.38" y1="44.64" x2="191.47" y2="44.55"/><polyline class="cls-14" points="191.59 44.43 191.69 44.37 192.08 44.77 192.48 44.37 191.2 43.09 189.92 44.37 189.49 43.97 189.22 44.25 190.89 45.95 191.59 45.25 191.2 44.86"/><line class="cls-14" x1="192.08" y1="44.77" x2="203.39" y2="56.08"/><line class="cls-14" x1="202.9" y1="56.56" x2="191.59" y2="45.25"/><line class="cls-14" x1="190.89" y1="45.95" x2="202.2" y2="57.27"/><line class="cls-14" x1="203.79" y1="55.68" x2="192.48" y2="44.37"/><line class="cls-14" x1="170.77" y1="59.16" x2="170.83" y2="59.25"/><line class="cls-14" x1="170.95" y1="59.37" x2="171.05" y2="59.46"/><polyline class="cls-14" points="171.17 59.58 171.26 59.64 170.83 60.07 171.53 60.77 173.21 59.06 172.94 58.79 172.54 59.19 171.23 57.88 169.95 59.16 170.34 59.58 170.77 59.16"/><line class="cls-14" x1="159.28" y1="71.62" x2="159.19" y2="71.56"/><line class="cls-14" x1="159.06" y1="71.44" x2="158.97" y2="71.35"/><polyline class="cls-14" points="158.85 71.23 158.79 71.14 159.19 70.74 158.79 70.34 157.51 71.63 158.79 72.91 158.39 73.33 158.67 73.61 160.38 71.93 159.67 71.23 159.28 71.63"/><line class="cls-14" x1="159.19" y1="70.74" x2="170.34" y2="59.58"/><line class="cls-14" x1="170.83" y1="60.07" x2="159.67" y2="71.23"/><line class="cls-14" x1="160.37" y1="71.93" x2="171.53" y2="60.77"/><line class="cls-14" x1="169.95" y1="59.16" x2="158.79" y2="70.34"/><polyline class="cls-14" points="188.27 43.24 188.61 43.58 188.97 43.24"/><line class="cls-11" x1="47.72" y1="83.33" x2="54.95" y2="83.33"/><line class="cls-11" x1="70.77" y1="83.33" x2="70.77" y2="79.03"/><line class="cls-11" x1="70.77" y1="79.03" x2="70.77" y2="78.88"/><line class="cls-11" x1="122.63" y1="78.88" x2="122.63" y2="79.03"/><line class="cls-11" x1="122.63" y1="79.03" x2="122.63" y2="83.33"/><line class="cls-11" x1="144.98" y1="78.88" x2="152.97" y2="70.89"/><line class="cls-11" x1="145.04" y1="79.03" x2="153.09" y2="70.98"/><line class="cls-11" x1="144.98" y1="78.88" x2="122.63" y2="78.88"/><line class="cls-11" x1="70.77" y1="78.88" x2="47.72" y2="78.88"/><line class="cls-11" x1="145.04" y1="79.03" x2="122.63" y2="79.03"/><polyline class="cls-11" points="70.77 79.03 47.73 79.03 47.73 84.73"/><line class="cls-13" x1="70.77" y1="78.58" x2="122.63" y2="78.58"/><polyline class="cls-11" points="227.38 90.56 237.87 90.56 237.87 83.33"/><line class="cls-11" x1="249.4" y1="79.03" x2="232.17" y2="79.03"/><line class="cls-11" x1="249.52" y1="78.88" x2="232.23" y2="78.88"/><line class="cls-13" x1="249.82" y1="242.51" x2="249.82" y2="285.71"/><line class="cls-11" x1="245.07" y1="285.71" x2="245.07" y2="315.25"/><line class="cls-11" x1="249.52" y1="285.71" x2="249.4" y2="285.71"/><line class="cls-11" x1="249.4" y1="285.71" x2="245.07" y2="285.71"/><line class="cls-11" x1="249.4" y1="315.25" x2="249.4" y2="285.71"/><line class="cls-11" x1="249.52" y1="315.25" x2="249.52" y2="285.71"/><line class="cls-11" x1="70.77" y1="84.86" x2="70.77" y2="83.33"/><line class="cls-11" x1="54.95" y1="83.33" x2="54.95" y2="90.56"/><line class="cls-11" x1="122.63" y1="83.33" x2="122.63" y2="84.86"/><line class="cls-11" x1="70.77" y1="90.56" x2="54.95" y2="90.56"/><line class="cls-11" x1="149.83" y1="90.56" x2="122.63" y2="90.56"/><polyline class="cls-11" points="243.54 242.5 236.72 242.5 236.72 285.71 243.54 285.71"/><line class="cls-14" x1="245.68" y1="283.11" x2="245.68" y2="260.65"/><line class="cls-14" x1="245.22" y1="260.65" x2="245.22" y2="283.11"/><polyline class="cls-14" points="245.68 283.11 245.22 283.11 245.22 283.54 245.68 283.54 245.68 283.11"/><polyline class="cls-14" points="245.22 260.64 245.68 260.64 245.68 260.22 245.22 260.22 245.22 260.64"/><line class="cls-14" x1="245.22" y1="257.93" x2="245.22" y2="246.07"/><line class="cls-14" x1="244.73" y1="246.07" x2="244.73" y2="257.93"/><polyline class="cls-14" points="244.73 246.07 245.22 246.07 245.22 245.65 244.73 245.65 244.73 246.07"/><polyline class="cls-14" points="245.22 257.93 244.73 257.93 244.73 258.39 245.22 258.39 245.22 257.93"/><polyline class="cls-14" points="246.35 285 246.35 282.99 245.77 282.99 245.77 283.54 245.68 283.54"/><polyline class="cls-14" points="245.22 283.54 245.1 283.54 245.1 282.99 244.12 282.99 244.12 285 246.35 285"/><polyline class="cls-14" points="246.35 243.24 244.12 243.24 244.12 244.67 245.95 244.67 245.95 245.25 246.35 245.25 246.35 243.24"/><polyline class="cls-14" points="244.12 260.8 245.1 260.8 245.1 260.22 245.22 260.22"/><polyline class="cls-14" points="245.68 260.22 245.77 260.22 245.77 260.8 246.35 260.8 246.35 258.79 245.95 258.79 245.95 259.37 244.12 259.37 244.12 260.8"/><line class="cls-14" x1="246.35" y1="258.79" x2="246.35" y2="245.25"/><line class="cls-14" x1="244.12" y1="282.99" x2="244.12" y2="260.8"/><line class="cls-14" x1="244.12" y1="244.67" x2="244.12" y2="244.79"/><line class="cls-14" x1="244.12" y1="259.24" x2="244.12" y2="259.36"/><line class="cls-14" x1="245.95" y1="245.25" x2="245.95" y2="258.79"/><line class="cls-14" x1="245.77" y1="282.99" x2="245.77" y2="260.8"/><line class="cls-14" x1="246.35" y1="260.8" x2="246.35" y2="282.99"/><line class="cls-14" x1="245.1" y1="260.8" x2="245.1" y2="282.99"/><line class="cls-14" x1="245.31" y1="258.39" x2="245.22" y2="258.39"/><polyline class="cls-14" points="244.73 258.39 244.64 258.39 244.64 257.81 243.67 257.81 243.67 259.82 244.06 259.82 244.06 259.24 245.89 259.24 245.89 257.81 245.31 257.81 245.31 258.39"/><line class="cls-14" x1="244.64" y1="245.65" x2="244.73" y2="245.65"/><polyline class="cls-14" points="245.22 245.65 245.31 245.65 245.31 246.22 245.89 246.22 245.89 244.79 244.06 244.79 244.06 244.21 243.67 244.21 243.67 246.22 244.64 246.22 244.64 245.65"/><line class="cls-14" x1="245.31" y1="246.22" x2="245.31" y2="257.81"/><line class="cls-14" x1="244.64" y1="257.81" x2="244.64" y2="246.22"/><line class="cls-14" x1="243.67" y1="246.22" x2="243.67" y2="257.81"/><line class="cls-14" x1="245.89" y1="257.81" x2="245.89" y2="246.22"/><line class="cls-12" x1="105.65" y1="77.45" x2="105.65" y2="78.58"/><line class="cls-12" x1="106.23" y1="77.45" x2="106.23" y2="78.58"/><line class="cls-12" x1="89.49" y1="77.45" x2="89.49" y2="78.58"/><line class="cls-12" x1="88.94" y1="77.45" x2="88.94" y2="78.58"/><polyline class="cls-12" points="86.05 65.92 109.09 65.92 109.09 77.45 86.05 77.45 86.05 65.92"/><polyline class="cls-12" points="97.54 62.42 99.03 62.42 100.56 62.42 102.08 62.42 103.61 62.42 105.13 62.42 106.69 62.42 108.21 62.42 109.74 62.42 111.9 62.42 111.9 62.51 109.74 62.51 108.21 62.51 106.69 62.51 105.13 62.51 103.61 62.51 102.08 62.51 100.56 62.51 99.03 62.51 97.54 62.51 97.54 62.42"/><line class="cls-12" x1="99.03" y1="62.51" x2="99.03" y2="62.42"/><line class="cls-12" x1="100.56" y1="62.51" x2="100.56" y2="62.42"/><line class="cls-12" x1="102.08" y1="62.51" x2="102.08" y2="62.42"/><line class="cls-12" x1="103.61" y1="62.51" x2="103.61" y2="62.42"/><line class="cls-12" x1="105.13" y1="62.51" x2="105.13" y2="62.42"/><line class="cls-12" x1="106.69" y1="62.51" x2="106.69" y2="62.42"/><line class="cls-12" x1="108.21" y1="62.51" x2="108.21" y2="62.42"/><line class="cls-12" x1="109.74" y1="62.51" x2="109.74" y2="62.42"/><polyline class="cls-12" points="83.18 62.51 97.54 62.51 97.54 62.6 83.18 62.6 83.18 62.51"/><polyline class="cls-12" points="111.96 78.58 111.96 62.6 83.18 62.6 83.18 78.58"/><polyline class="cls-12" points="85.04 78.58 85.04 64.46 110.1 64.46 110.1 78.58"/><line class="cls-12" x1="85.04" y1="64.61" x2="110.1" y2="64.61"/><polyline class="cls-12" points="212.02 58.24 217.6 52.66 233.91 68.94 228.3 74.55"/><polyline class="cls-12" points="228.21 58.33 229.25 59.37 230.34 60.44 231.41 61.53 232.51 62.6 233.57 63.7 234.64 64.77 235.74 65.86 236.81 66.93 238.33 68.45 238.27 68.52 236.75 66.99 235.68 65.92 234.58 64.83 233.51 63.76 232.45 62.66 231.35 61.59 230.28 60.5 229.18 59.43 228.15 58.39 228.21 58.33"/><line class="cls-12" x1="229.18" y1="59.43" x2="229.25" y2="59.37"/><line class="cls-12" x1="230.28" y1="60.5" x2="230.34" y2="60.44"/><line class="cls-12" x1="231.35" y1="61.59" x2="231.41" y2="61.53"/><line class="cls-12" x1="232.45" y1="62.66" x2="232.51" y2="62.6"/><line class="cls-12" x1="233.51" y1="63.76" x2="233.57" y2="63.7"/><line class="cls-12" x1="234.58" y1="64.83" x2="234.64" y2="64.77"/><line class="cls-12" x1="235.68" y1="65.92" x2="235.74" y2="65.86"/><line class="cls-12" x1="236.75" y1="66.99" x2="236.81" y2="66.93"/><polyline class="cls-12" points="217.97 48.21 228.15 58.36 228.09 58.42 217.9 48.27 217.97 48.21"/><polyline class="cls-12" points="230.34 76.59 238.27 68.64 217.9 48.27 209.98 56.23"/><polyline class="cls-12" points="211.29 57.54 217.9 50.92 235.65 68.64 229 75.25"/><line class="cls-12" x1="217.81" y1="51.02" x2="235.53" y2="68.76"/></svg>