<svg id="_583" data-name="583" xmlns="http://www.w3.org/2000/svg" viewBox="0 0 308.63 580.27"><defs><style>.cls-1,.cls-5,.cls-6{fill:none;stroke-linecap:round;stroke-linejoin:round;stroke-width:0.5px;}.cls-1{stroke:#999;}.cls-2{isolation:isolate;font-size:12px;fill:#999;}.cls-2,.cls-3,.cls-4{font-family:PTSans-Regular, PT Sans;}.cls-3{font-size:20px;}.cls-4{font-size:24px;}.cls-5,.cls-6{stroke:#000;}.cls-6{stroke-dasharray:3.15 3.15;}</style></defs><title>3floor_583flat</title><line class="cls-1" x1="138.6" y1="10.8" x2="138.6" y2="2"/><polyline class="cls-1" points="142.2 5.3 138.7 1.8 135.2 5.3"/><text class="cls-2" transform="translate(148.03 10.2)">двор</text><text class="cls-3" transform="translate(58.28 489.83)">3.46</text><text class="cls-3" transform="translate(167.55 514.37)">2.98</text><text class="cls-3" transform="translate(178.6 393.11)">4.08</text><text class="cls-3" transform="translate(130.79 140.11)">18.28</text><text class="cls-4" transform="translate(142.2 226.96)">СТ</text><text class="cls-4" transform="translate(126.98 260)">28.80</text><text class="cls-4" transform="translate(123.81 194.42)">№583</text><polyline class="cls-5" points="115.18 268.37 115.18 171.17 196.24 171.17 196.24 268.37"/><line class="cls-5" x1="115.18" y1="203.63" x2="196.24" y2="203.63"/><line class="cls-5" x1="115.18" y1="268.37" x2="196.24" y2="268.37"/><line class="cls-5" x1="115.18" y1="236.09" x2="196.24" y2="236.09"/><polyline class="cls-5" points="145.21 566.74 145.21 455.17 13.15 455.17 13.15 553.84 57.93 553.84 57.93 566.74 145.21 566.74"/><line class="cls-5" x1="57.93" y1="580.02" x2="145.21" y2="580.02"/><polyline class="cls-5" points="145.21 449.86 295.48 449.86 295.48 389.52 295.48 331.84 145.21 331.84"/><polyline class="cls-5" points="150.52 455.17 150.52 566.74 210.86 566.74 262.09 566.74 262.09 455.17 150.52 455.17"/><line class="cls-5" x1="245.39" y1="555.73" x2="245.39" y2="551.94"/><line class="cls-5" x1="247.29" y1="550.42" x2="250.7" y2="550.42"/><line class="cls-5" x1="245.39" y1="548.9" x2="245.39" y2="545.11"/><line class="cls-5" x1="240.08" y1="550.42" x2="243.87" y2="550.42"/><line class="cls-5" x1="204.79" y1="561.42" x2="204.79" y2="545.87"/><line class="cls-5" x1="257.15" y1="546.62" x2="257.15" y2="510.2"/><line class="cls-5" x1="240.84" y1="509.82" x2="256.77" y2="509.82"/><line class="cls-5" x1="204.79" y1="561.42" x2="204.79" y2="545.87"/><line class="cls-5" x1="205.54" y1="562.18" x2="241.59" y2="562.18"/><line class="cls-5" x1="201.37" y1="564.84" x2="201.37" y2="545.87"/><line class="cls-5" x1="260.57" y1="564.84" x2="260.57" y2="507.16"/><line class="cls-5" x1="240.84" y1="506.4" x2="259.81" y2="506.4"/><line class="cls-5" x1="202.13" y1="565.6" x2="259.81" y2="565.6"/><path class="cls-5" d="M241.4,590.16a3,3,0,0,0,1-.17" transform="translate(0 -28.36)"/><path class="cls-5" d="M204.79,589.59a.56.56,0,0,0,.56.57" transform="translate(0 -28.36)"/><path class="cls-5" d="M241.4,590.16a3,3,0,0,0,1-.17" transform="translate(0 -28.36)"/><path class="cls-5" d="M240.65,534.76A39.27,39.27,0,0,0,201.37,574" transform="translate(0 -28.36)"/><path class="cls-5" d="M201.37,593a.58.58,0,0,0,.57.57" transform="translate(0 -28.36)"/><path class="cls-5" d="M240.65,537.79A36.24,36.24,0,0,0,204.41,574" transform="translate(0 -28.36)"/><path class="cls-5" d="M260.19,535.33a.57.57,0,0,0-.57-.57" transform="translate(0 -28.36)"/><path class="cls-5" d="M257.15,538.36a.57.57,0,0,0-.57-.57" transform="translate(0 -28.36)"/><path class="cls-5" d="M259.62,593.58a.58.58,0,0,0,.57-.57" transform="translate(0 -28.36)"/><path class="cls-5" d="M242.21,590.34a35.59,35.59,0,0,0,15.12-15.12" transform="translate(0 -28.36)"/><path class="cls-5" d="M257,575.82a3.26,3.26,0,0,0,.16-1" transform="translate(0 -28.36)"/><path class="cls-5" d="M242.25,590.11a23,23,0,0,0,14.47-14.47" transform="translate(0 -28.36)"/><path class="cls-5" d="M257,575.82a3.26,3.26,0,0,0,.16-1" transform="translate(0 -28.36)"/><path class="cls-5" d="M248.05,578.59a2.85,2.85,0,1,0-2.85,2.84,2.86,2.86,0,0,0,2.85-2.84" transform="translate(0 -28.36)"/><path class="cls-5" d="M249.18,578.59a4,4,0,1,0-4,4,4,4,0,0,0,4-4" transform="translate(0 -28.36)"/><polyline class="cls-5" points="188.85 550.42 188.85 565.6 153.56 565.6 153.56 550.42"/><line class="cls-5" x1="165.7" y1="565.6" x2="176.7" y2="565.6"/><line class="cls-5" x1="168.36" y1="553.46" x2="170.25" y2="553.46"/><line class="cls-5" x1="171.39" y1="556.49" x2="171.39" y2="554.59"/><line class="cls-5" x1="172.15" y1="553.46" x2="174.05" y2="553.46"/><line class="cls-5" x1="171.39" y1="552.32" x2="171.39" y2="550.42"/><path class="cls-5" d="M180.5,585.37a15.76,15.76,0,0,0,6.11-7.45" transform="translate(0 -28.36)"/><path class="cls-5" d="M171.08,587.46a15.8,15.8,0,0,0,9.39-2.21" transform="translate(0 -28.36)"/><path class="cls-5" d="M155.42,577.92a15.74,15.74,0,0,0,6.1,7.45" transform="translate(0 -28.36)"/><path class="cls-5" d="M161.56,585.25a15.77,15.77,0,0,0,9.39,2.21" transform="translate(0 -28.36)"/><path class="cls-5" d="M182.91,570a29.21,29.21,0,0,0-10.72-2.92" transform="translate(0 -28.36)"/><path class="cls-5" d="M156.89,571.25a8.9,8.9,0,0,0-3.32,7.34" transform="translate(0 -28.36)"/><path class="cls-5" d="M172.44,567.06a17,17,0,0,0-2.47,0" transform="translate(0 -28.36)"/><path class="cls-5" d="M161.28,584.84a64.77,64.77,0,0,0,19.85,0" transform="translate(0 -28.36)"/><path class="cls-5" d="M154.32,576.31a22.18,22.18,0,0,0,5,14.43" transform="translate(0 -28.36)"/><path class="cls-5" d="M161.05,591.72a44.11,44.11,0,0,0,10.11,1.1" transform="translate(0 -28.36)"/><path class="cls-5" d="M159.51,590.64a2.85,2.85,0,0,0,1.58,1" transform="translate(0 -28.36)"/><path class="cls-5" d="M161.16,591a75.91,75.91,0,0,0,10,.72" transform="translate(0 -28.36)"/><path class="cls-5" d="M154.32,576.43a19.9,19.9,0,0,0,5,13.43" transform="translate(0 -28.36)"/><path class="cls-5" d="M159.2,590a2.83,2.83,0,0,0,1.74.93" transform="translate(0 -28.36)"/><path class="cls-5" d="M182.71,589.88a19.86,19.86,0,0,0,5-13.42" transform="translate(0 -28.36)"/><path class="cls-5" d="M182.68,590.76a22.2,22.2,0,0,0,5-14.42" transform="translate(0 -28.36)"/><path class="cls-5" d="M171.15,591.68a75.74,75.74,0,0,0,10-.71" transform="translate(0 -28.36)"/><path class="cls-5" d="M171.19,592.82a44.66,44.66,0,0,0,10.11-1.08" transform="translate(0 -28.36)"/><path class="cls-5" d="M181.08,590.89a2.83,2.83,0,0,0,1.74-.93" transform="translate(0 -28.36)"/><path class="cls-5" d="M180.93,591.61a2.85,2.85,0,0,0,1.58-1" transform="translate(0 -28.36)"/><path class="cls-5" d="M188.46,578.59a8.91,8.91,0,0,0-3.33-7.34" transform="translate(0 -28.36)"/><path class="cls-5" d="M185.17,571.19a13.66,13.66,0,0,0-2.33-1.51" transform="translate(0 -28.36)"/><path class="cls-5" d="M159.19,569.68a13.74,13.74,0,0,0-2.34,1.51" transform="translate(0 -28.36)"/><path class="cls-5" d="M169.83,567.09A29.21,29.21,0,0,0,159.12,570" transform="translate(0 -28.36)"/><path class="cls-5" d="M176.05,569.49a20.65,20.65,0,0,0-9.7,0" transform="translate(0 -28.36)"/><path class="cls-5" d="M186.18,577.8a5.13,5.13,0,0,0-1.76-4.23" transform="translate(0 -28.36)"/><path class="cls-5" d="M184.85,573.24a19.14,19.14,0,0,0-8.8-4" transform="translate(0 -28.36)"/><path class="cls-5" d="M157.61,573.57a5.13,5.13,0,0,0-1.76,4.23" transform="translate(0 -28.36)"/><path class="cls-5" d="M166,569.2a19.13,19.13,0,0,0-8.81,4" transform="translate(0 -28.36)"/><path class="cls-5" d="M173.67,581.62a2.47,2.47,0,1,0-2.47,2.47,2.47,2.47,0,0,0,2.47-2.47" transform="translate(0 -28.36)"/><path class="cls-5" d="M172.91,581.62a1.71,1.71,0,1,0-1.71,1.71,1.7,1.7,0,0,0,1.71-1.71" transform="translate(0 -28.36)"/><line class="cls-5" x1="250.7" y1="492.74" x2="227.93" y2="492.74"/><polyline class="cls-5" points="252.22 493.5 260.57 493.5 260.57 469.21"/><line class="cls-5" x1="246.53" y1="481.36" x2="246.53" y2="472.63"/><polyline class="cls-5" points="227.93 492.74 246.53 490.46 246.53 481.36"/><line class="cls-5" x1="227.93" y1="470.35" x2="246.53" y2="472.63"/><line class="cls-5" x1="227.93" y1="491.98" x2="246.53" y2="490.08"/><line class="cls-5" x1="227.93" y1="470.73" x2="246.53" y2="473.01"/><line class="cls-5" x1="250.7" y1="470.35" x2="227.93" y2="470.35"/><line class="cls-5" x1="260.57" y1="469.21" x2="252.22" y2="469.21"/><polyline class="cls-5" points="227.93 492.74 225.28 492.36 223 491.6 220.72 489.7 219.21 487.81 218.07 485.53 217.31 482.87 217.31 480.22 218.07 477.56 219.21 475.28 220.72 473.01 223 471.49 225.28 470.73 227.93 470.35"/><polyline class="cls-5" points="227.93 491.98 225.66 491.98 223.38 490.84 221.1 489.32 219.59 487.43 218.45 485.15 218.07 482.87 218.07 480.22 218.45 477.56 219.59 475.66 221.1 473.39 223.38 472.25 225.66 471.11 227.93 470.73"/><polyline class="cls-5" points="252.22 469.21 251.84 469.21 251.46 469.59 251.08 469.59 251.08 469.97 250.7 469.97 250.7 470.35 250.7 470.73 249.94 481.36 250.7 492.36 250.7 492.74 251.08 493.12 251.46 493.5 251.84 493.5 252.22 493.5"/><polyline class="cls-5" points="256.39 481.36 256.39 481.74 256.39 482.12 256.01 482.49 255.63 482.49 255.25 482.87 254.88 482.49 254.5 482.49 254.12 482.12 254.12 481.74 254.12 481.36 254.12 480.98 254.12 480.6 254.5 480.6 254.88 480.22 255.25 480.22 255.63 480.22 255.63 480.6 256.01 480.6 256.39 480.98 256.39 481.36"/><polyline class="cls-5" points="145.21 331.84 295.48 331.84 295.48 156.53 295.48 107.58 13.15 107.58 13.15 156.53 13.15 389.52 13.15 449.86 145.21 449.86"/><polyline points="0.25 84.43 40.85 90.88 0.25 90.88"/><polyline points="0.25 84.43 40.85 90.88 40.85 84.43 0.25 84.43"/><polyline class="cls-5" points="0.25 84.43 40.85 90.88 0.25 90.88"/><polyline class="cls-5" points="0.25 84.43 40.85 90.88 40.85 84.43 0.25 84.43"/><path d="M101.19,112.79l59.2,6.45h-59.2Zm59.2,0h-59.2l59.2,6.45Z" transform="translate(0 -28.36)"/><path class="cls-5" d="M101.19,112.79l59.2,6.45h-59.2Zm59.2,0h-59.2l59.2,6.45Z" transform="translate(0 -28.36)"/><polyline points="308.38 90.88 280.3 90.88 280.3 84.43 308.38 90.88"/><polyline points="308.38 84.43 280.3 84.43 308.38 90.88"/><polyline class="cls-5" points="308.38 90.88 280.3 90.88 280.3 84.43 308.38 90.88"/><polyline class="cls-5" points="308.38 84.43 280.3 84.43 308.38 90.88"/><polyline points="0.25 90.88 38.2 90.88 0.25 90.88"/><polyline class="cls-5" points="0.25 90.88 38.2 90.88 0.25 90.88"/><polyline points="0.25 94.29 38.2 94.29 0.25 94.29"/><polyline points="0.25 94.29 38.2 94.29 0.25 94.29"/><polyline points="0.25 90.88 38.2 94.29 0.25 94.29"/><polyline points="0.25 90.88 38.2 94.29 38.2 90.88 0.25 90.88"/><polyline class="cls-5" points="0.25 94.29 38.2 94.29 0.25 94.29"/><polyline class="cls-5" points="0.25 94.29 38.2 94.29 0.25 94.29"/><polyline class="cls-5" points="0.25 90.88 38.2 94.29 0.25 94.29"/><polyline class="cls-5" points="0.25 90.88 38.2 94.29 38.2 90.88 0.25 90.88"/><polyline points="0.25 94.29 38.2 107.58 0.25 107.58"/><polyline points="0.25 94.29 38.2 107.58 38.2 94.29 0.25 94.29"/><polyline class="cls-5" points="0.25 94.29 38.2 107.58 0.25 107.58"/><polyline class="cls-5" points="0.25 94.29 38.2 107.58 38.2 94.29 0.25 94.29"/><path d="M103.85,119.24l53.88,3.41H103.85Zm53.88,0H103.85l53.88,3.41Z" transform="translate(0 -28.36)"/><path class="cls-5" d="M103.85,119.24l53.88,3.41H103.85Zm53.88,0H103.85l53.88,3.41Z" transform="translate(0 -28.36)"/><path d="M103.85,122.65l53.88,13.28H103.85Zm53.88,0H103.85l53.88,13.28Z" transform="translate(0 -28.36)"/><path class="cls-5" d="M103.85,122.65l53.88,13.28H103.85Zm53.88,0H103.85l53.88,13.28Z" transform="translate(0 -28.36)"/><polyline points="308.38 94.29 282.96 94.29 308.38 94.29"/><polyline points="308.38 94.29 282.96 94.29 308.38 94.29"/><polyline points="308.38 94.29 282.96 94.29 282.96 90.88 308.38 94.29"/><polyline points="308.38 90.88 282.96 90.88 308.38 94.29"/><polyline class="cls-5" points="308.38 94.29 282.96 94.29 308.38 94.29"/><polyline class="cls-5" points="308.38 94.29 282.96 94.29 308.38 94.29"/><polyline class="cls-5" points="308.38 94.29 282.96 94.29 282.96 90.88 308.38 94.29"/><polyline class="cls-5" points="308.38 90.88 282.96 90.88 308.38 94.29"/><polyline points="308.38 107.58 282.96 107.58 282.96 94.29 308.38 107.58"/><polyline points="308.38 94.29 282.96 94.29 308.38 107.58"/><polyline class="cls-5" points="308.38 107.58 282.96 107.58 282.96 94.29 308.38 107.58"/><polyline class="cls-5" points="308.38 94.29 282.96 94.29 308.38 107.58"/><line class="cls-5" x1="157.73" y1="90.88" x2="103.85" y2="90.88"/><line class="cls-5" x1="38.2" y1="90.88" x2="0.25" y2="90.88"/><line class="cls-5" x1="308.38" y1="90.88" x2="282.96" y2="90.88"/><line class="cls-5" x1="157.73" y1="94.29" x2="157.73" y2="107.58"/><polyline class="cls-5" points="160.39 84.43 160.39 90.88 157.73 90.88 157.73 94.29"/><line class="cls-5" x1="282.96" y1="94.29" x2="282.96" y2="107.58"/><polyline class="cls-5" points="280.3 84.43 280.3 90.88 282.96 90.88 282.96 94.29"/><line class="cls-5" x1="38.2" y1="94.29" x2="38.2" y2="107.58"/><polyline class="cls-5" points="40.85 84.43 40.85 90.88 38.2 90.88 38.2 94.29"/><line class="cls-5" x1="103.85" y1="94.29" x2="103.85" y2="107.58"/><polyline class="cls-5" points="101.19 84.43 101.19 90.88 103.85 90.88 103.85 94.29"/><line class="cls-5" x1="308.38" y1="84.43" x2="280.3" y2="84.43"/><line class="cls-5" x1="160.39" y1="84.43" x2="101.19" y2="84.43"/><line class="cls-5" x1="0.25" y1="107.58" x2="38.2" y2="107.58"/><line class="cls-5" x1="103.85" y1="107.58" x2="157.73" y2="107.58"/><line class="cls-5" x1="282.96" y1="107.58" x2="308.38" y2="107.58"/><line class="cls-5" x1="280.3" y1="84.43" x2="160.39" y2="84.43"/><line class="cls-5" x1="282.96" y1="107.58" x2="157.73" y2="107.58"/><path d="M277.64,119.24h0Z" transform="translate(0 -28.36)"/><path class="cls-5" d="M277.64,119.24h0Z" transform="translate(0 -28.36)"/><path d="M283,122.65h-5.32v-3.41Zm0,0Z" transform="translate(0 -28.36)"/><path class="cls-5" d="M283,122.65h-5.32v-3.41Zm0,0Z" transform="translate(0 -28.36)"/><polygon points="277.64 90.88 282.96 90.88 282.96 94.29 277.64 90.88"/><polygon class="cls-5" points="277.64 90.88 282.96 90.88 282.96 94.29 277.64 90.88"/><path d="M200.23,119.24h0Z" transform="translate(0 -28.36)"/><path class="cls-5" d="M200.23,119.24h0Z" transform="translate(0 -28.36)"/><path d="M203.65,122.65h-3.42v-3.41Zm0,0Z" transform="translate(0 -28.36)"/><path class="cls-5" d="M203.65,122.65h-3.42v-3.41Zm0,0Z" transform="translate(0 -28.36)"/><polygon points="200.23 90.88 203.65 90.88 203.65 94.29 200.23 90.88"/><polygon class="cls-5" points="200.23 90.88 203.65 90.88 203.65 94.29 200.23 90.88"/><path d="M196.82,119.24h0Z" transform="translate(0 -28.36)"/><path class="cls-5" d="M196.82,119.24h0Z" transform="translate(0 -28.36)"/><path d="M200.23,122.65h-3.41v-3.41Zm0,0Z" transform="translate(0 -28.36)"/><path class="cls-5" d="M200.23,122.65h-3.41v-3.41Zm0,0Z" transform="translate(0 -28.36)"/><polygon points="196.82 90.88 200.23 90.88 200.23 94.29 196.82 90.88"/><polygon class="cls-5" points="196.82 90.88 200.23 90.88 200.23 94.29 196.82 90.88"/><path d="M157.73,119.24h0Z" transform="translate(0 -28.36)"/><path class="cls-5" d="M157.73,119.24h0Z" transform="translate(0 -28.36)"/><path d="M162.66,122.65h-4.93v-3.41Zm0,0Z" transform="translate(0 -28.36)"/><path class="cls-5" d="M162.66,122.65h-4.93v-3.41Zm0,0Z" transform="translate(0 -28.36)"/><polygon points="157.73 90.88 162.66 90.88 162.66 94.29 157.73 90.88"/><polygon class="cls-5" points="157.73 90.88 162.66 90.88 162.66 94.29 157.73 90.88"/><polyline class="cls-5" points="282.96 90.88 277.64 90.88 277.64 94.29 282.96 94.29"/><polyline class="cls-5" points="200.23 94.29 203.65 94.29 203.65 90.88 200.23 90.88"/><line class="cls-5" x1="277.64" y1="90.88" x2="203.65" y2="90.88"/><line class="cls-5" x1="203.65" y1="94.29" x2="277.64" y2="94.29"/><polyline class="cls-5" points="200.23 90.88 196.82 90.88 196.82 94.29 200.23 94.29"/><polyline class="cls-5" points="157.73 94.29 162.66 94.29 162.66 90.88 157.73 90.88"/><line class="cls-5" x1="196.82" y1="90.88" x2="162.66" y2="90.88"/><line class="cls-5" x1="162.66" y1="94.29" x2="196.82" y2="94.29"/><polyline class="cls-5" points="280.3 90.88 282.96 90.88 282.96 94.29"/><polyline class="cls-5" points="160.39 90.88 157.73 90.88 157.73 94.29"/><line class="cls-5" x1="101.19" y1="84.43" x2="40.85" y2="84.43"/><line class="cls-5" x1="103.85" y1="107.58" x2="38.2" y2="107.58"/><path d="M98.53,119.24h0Z" transform="translate(0 -28.36)"/><path class="cls-5" d="M98.53,119.24h0Z" transform="translate(0 -28.36)"/><path d="M103.85,122.65H98.53v-3.41Zm0,0Z" transform="translate(0 -28.36)"/><path class="cls-5" d="M103.85,122.65H98.53v-3.41Zm0,0Z" transform="translate(0 -28.36)"/><polygon points="98.53 90.88 103.85 90.88 103.85 94.29 98.53 90.88"/><polygon class="cls-5" points="98.53 90.88 103.85 90.88 103.85 94.29 98.53 90.88"/><path d="M38.2,119.24h0Z" transform="translate(0 -28.36)"/><path class="cls-5" d="M38.2,119.24h0Z" transform="translate(0 -28.36)"/><path d="M43.51,122.65H38.2v-3.41Zm0,0Z" transform="translate(0 -28.36)"/><path class="cls-5" d="M43.51,122.65H38.2v-3.41Zm0,0Z" transform="translate(0 -28.36)"/><polygon points="38.2 90.88 43.51 90.88 43.51 94.29 38.2 90.88"/><polygon class="cls-5" points="38.2 90.88 43.51 90.88 43.51 94.29 38.2 90.88"/><polyline class="cls-5" points="103.85 90.88 98.53 90.88 98.53 94.29 103.85 94.29"/><polyline class="cls-5" points="38.2 94.29 43.51 94.29 43.51 90.88 38.2 90.88"/><line class="cls-5" x1="98.53" y1="90.88" x2="43.51" y2="90.88"/><line class="cls-5" x1="43.51" y1="94.29" x2="98.53" y2="94.29"/><polyline class="cls-5" points="101.19 90.88 103.85 90.88 103.85 94.29"/><polyline class="cls-5" points="40.85 90.88 38.2 90.88 38.2 94.29"/><polyline class="cls-5" points="191.13 486.29 151.66 486.29 151.66 456.69 191.13 456.69 191.13 486.29"/><path d="M13.15,582.19,52.62,595.1H13.15Zm44.78,0H13.15L52.62,595.1Z" transform="translate(0 -28.36)"/><path class="cls-5" d="M13.15,582.19,52.62,595.1H13.15Zm44.78,0H13.15L52.62,595.1Z" transform="translate(0 -28.36)"/><line class="cls-5" x1="57.93" y1="553.83" x2="13.15" y2="553.83"/><line class="cls-5" x1="13.15" y1="566.74" x2="52.62" y2="566.74"/><path d="M57.93,595.1H52.62v13.28Zm0-12.91V595.1H52.62Z" transform="translate(0 -28.36)"/><path class="cls-5" d="M57.93,595.1H52.62v13.28Zm0-12.91V595.1H52.62Z" transform="translate(0 -28.36)"/><line class="cls-5" x1="57.93" y1="566.74" x2="57.93" y2="553.83"/><line class="cls-5" x1="52.62" y1="566.74" x2="52.62" y2="580.02"/><path d="M124.72,478.22h0Z" transform="translate(0 -28.36)"/><path class="cls-5" d="M124.72,478.22h0Z" transform="translate(0 -28.36)"/><path d="M295.48,483.53H124.72v-5.31Zm0,0Z" transform="translate(0 -28.36)"/><path class="cls-5" d="M295.48,483.53H124.72v-5.31Zm0,0Z" transform="translate(0 -28.36)"/><polygon points="124.72 449.86 295.48 449.86 295.48 455.17 124.72 449.86"/><polygon class="cls-5" points="124.72 449.86 295.48 449.86 295.48 455.17 124.72 449.86"/><path d="M13.15,478.22h0Z" transform="translate(0 -28.36)"/><path class="cls-5" d="M13.15,478.22h0Z" transform="translate(0 -28.36)"/><path d="M65.9,483.53H13.15v-5.31Zm0,0Z" transform="translate(0 -28.36)"/><path class="cls-5" d="M65.9,483.53H13.15v-5.31Zm0,0Z" transform="translate(0 -28.36)"/><polygon points="13.15 449.86 65.9 449.86 65.9 455.17 13.15 449.86"/><polygon class="cls-5" points="13.15 449.86 65.9 449.86 65.9 455.17 13.15 449.86"/><line class="cls-5" x1="124.72" y1="449.86" x2="124.72" y2="455.17"/><polyline class="cls-5" points="65.9 449.86 65.9 455.17 13.15 455.17"/><line class="cls-5" x1="124.72" y1="455.17" x2="145.21" y2="455.17"/><line class="cls-5" x1="150.52" y1="455.17" x2="262.09" y2="455.17"/><polyline class="cls-5" points="267.02 455.17 295.48 455.17 295.48 449.86 124.72 449.86"/><polyline class="cls-5" points="65.9 449.86 13.15 449.86 13.15 455.17"/><line class="cls-5" x1="124.72" y1="449.86" x2="121.68" y2="449.86"/><line class="cls-5" x1="124.72" y1="455.17" x2="121.68" y2="455.17"/><line class="cls-5" x1="65.9" y1="449.86" x2="68.93" y2="449.86"/><line class="cls-5" x1="65.9" y1="455.17" x2="68.93" y2="455.17"/><line class="cls-5" x1="121.68" y1="455.17" x2="121.68" y2="449.86"/><polyline class="cls-5" points="68.94 455.17 68.94 449.86 68.94 397.49"/><path class="cls-5" d="M121.3,478a52.56,52.56,0,0,0-52.56-52.56" transform="translate(0 -28.36)"/><path d="M262.09,483.53h0Z" transform="translate(0 -28.36)"/><path class="cls-5" d="M262.09,483.53h0Z" transform="translate(0 -28.36)"/><path d="M267,600.41h-4.93V483.53Zm0,0Z" transform="translate(0 -28.36)"/><path class="cls-5" d="M267,600.41h-4.93V483.53Zm0,0Z" transform="translate(0 -28.36)"/><polygon points="262.09 455.17 267.02 455.17 267.02 572.05 262.09 455.17"/><polygon class="cls-5" points="262.09 455.17 267.02 455.17 267.02 572.05 262.09 455.17"/><line class="cls-5" x1="267.02" y1="572.05" x2="267.02" y2="493.5"/><line class="cls-5" x1="267.02" y1="488.19" x2="267.02" y2="455.17"/><polyline class="cls-5" points="262.09 455.17 262.09 572.05 267.02 572.05"/><path d="M145.21,483.53h0Z" transform="translate(0 -28.36)"/><path class="cls-5" d="M145.21,483.53h0Z" transform="translate(0 -28.36)"/><path d="M150.52,512h-5.31V483.53Zm0,0Z" transform="translate(0 -28.36)"/><path class="cls-5" d="M150.52,512h-5.31V483.53Zm0,0Z" transform="translate(0 -28.36)"/><polygon points="145.21 455.17 150.52 455.17 150.52 483.63 145.21 455.17"/><polygon class="cls-5" points="145.21 455.17 150.52 455.17 150.52 483.63 145.21 455.17"/><path d="M150.52,564.36h0Z" transform="translate(0 -28.36)"/><path class="cls-5" d="M150.52,564.36h0Z" transform="translate(0 -28.36)"/><path d="M150.52,600.41h-5.31v-36Zm0,0Z" transform="translate(0 -28.36)"/><path class="cls-5" d="M150.52,600.41h-5.31v-36Zm0,0Z" transform="translate(0 -28.36)"/><polygon points="145.21 536 150.52 536 150.52 572.05 145.21 536"/><polygon class="cls-5" points="145.21 536 150.52 536 150.52 572.05 145.21 536"/><line class="cls-5" x1="145.21" y1="483.63" x2="150.52" y2="483.63"/><line class="cls-5" x1="145.21" y1="536" x2="150.52" y2="536"/><line class="cls-5" x1="145.21" y1="455.17" x2="145.21" y2="483.63"/><polyline class="cls-5" points="145.21 536 145.21 572.05 150.52 572.05 150.52 536"/><line class="cls-5" x1="150.52" y1="483.63" x2="150.52" y2="455.17"/><line class="cls-5" x1="145.21" y1="483.63" x2="145.21" y2="486.67"/><line class="cls-5" x1="150.52" y1="483.63" x2="150.52" y2="486.67"/><line class="cls-5" x1="145.21" y1="536" x2="145.21" y2="532.58"/><line class="cls-5" x1="150.52" y1="536" x2="150.52" y2="532.58"/><line class="cls-5" x1="150.52" y1="486.67" x2="145.21" y2="486.67"/><polyline class="cls-5" points="150.52 532.59 145.21 532.59 122.06 492.74"/><path class="cls-5" d="M145,514.65A46.17,46.17,0,0,0,122,520.82" transform="translate(0 -28.36)"/><path d="M295.48,516.54h0Z" transform="translate(0 -28.36)"/><path class="cls-5" d="M295.48,516.54h0Z" transform="translate(0 -28.36)"/><path d="M295.48,521.86H267v-5.32Zm0,0Z" transform="translate(0 -28.36)"/><path class="cls-5" d="M295.48,521.86H267v-5.32Zm0,0Z" transform="translate(0 -28.36)"/><polygon points="267.02 488.19 295.48 488.19 295.48 493.5 267.02 488.19"/><polygon class="cls-5" points="267.02 488.19 295.48 488.19 295.48 493.5 267.02 488.19"/><polyline class="cls-5" points="267.02 493.5 295.48 493.5 295.48 488.19 267.02 488.19"/><path d="M.25,483.53h0Z" transform="translate(0 -28.36)"/><path class="cls-5" d="M.25,483.53h0Z" transform="translate(0 -28.36)"/><path d="M.25,483.53V595.1h12.9Z" transform="translate(0 -28.36)"/><path class="cls-5" d="M.25,483.53V595.1h12.9Z" transform="translate(0 -28.36)"/><polygon points="0.25 455.17 13.15 455.17 13.15 566.74 0.25 455.17"/><polygon class="cls-5" points="0.25 455.17 13.15 455.17 13.15 566.74 0.25 455.17"/><path d="M295.48,483.53h0Z" transform="translate(0 -28.36)"/><path class="cls-5" d="M295.48,483.53h0Z" transform="translate(0 -28.36)"/><path d="M308.38,595.1h-12.9V483.53Zm0,0Z" transform="translate(0 -28.36)"/><path class="cls-5" d="M308.38,595.1h-12.9V483.53Zm0,0Z" transform="translate(0 -28.36)"/><polygon points="295.48 455.17 308.38 455.17 308.38 566.74 295.48 455.17"/><polygon class="cls-5" points="295.48 455.17 308.38 455.17 308.38 566.74 295.48 455.17"/><polyline class="cls-5" points="308.38 580.02 308.38 455.17 295.48 455.17 295.48 566.74 308.38 566.74"/><path d="M295.48,184.89h0Z" transform="translate(0 -28.36)"/><path class="cls-5" d="M295.48,184.89h0Z" transform="translate(0 -28.36)"/><path d="M308.38,417.88h-12.9v-233Zm0,0Z" transform="translate(0 -28.36)"/><path class="cls-5" d="M308.38,417.88h-12.9v-233Zm0,0Z" transform="translate(0 -28.36)"/><polygon points="295.48 156.53 308.38 156.53 308.38 389.52 295.48 156.53"/><polygon class="cls-5" points="295.48 156.53 308.38 156.53 308.38 389.52 295.48 156.53"/><polyline class="cls-5" points="308.38 389.52 308.38 156.53 295.48 156.53 295.48 389.52 308.38 389.52"/><path d="M.25,184.89h0Z" transform="translate(0 -28.36)"/><path class="cls-5" d="M.25,184.89h0Z" transform="translate(0 -28.36)"/><path d="M13.15,417.88H.25v-233Zm0,0Z" transform="translate(0 -28.36)"/><path class="cls-5" d="M13.15,417.88H.25v-233Zm0,0Z" transform="translate(0 -28.36)"/><polygon points="0.25 156.53 13.15 156.53 13.15 389.52 0.25 156.53"/><polygon class="cls-5" points="0.25 156.53 13.15 156.53 13.15 389.52 0.25 156.53"/><polyline class="cls-5" points="13.15 389.52 13.15 156.53 0.25 156.53 0.25 389.52 13.15 389.52"/><polygon points="57.93 566.74 57.93 580.02 52.62 580.02 57.93 566.74"/><polygon class="cls-5" points="57.93 566.74 57.93 580.02 52.62 580.02 57.93 566.74"/><path d="M123.58,595.1h0Z" transform="translate(0 -28.36)"/><path class="cls-5" d="M123.58,595.1h0Z" transform="translate(0 -28.36)"/><path d="M145.21,608.38H123.58V595.1Zm0,0Z" transform="translate(0 -28.36)"/><path class="cls-5" d="M145.21,608.38H123.58V595.1Zm0,0Z" transform="translate(0 -28.36)"/><polygon points="123.58 566.74 145.21 566.74 145.21 580.02 123.58 566.74"/><polygon class="cls-5" points="123.58 566.74 145.21 566.74 145.21 580.02 123.58 566.74"/><line class="cls-5" x1="57.93" y1="566.74" x2="57.93" y2="580.02"/><line class="cls-5" x1="123.58" y1="566.74" x2="123.58" y2="580.02"/><line class="cls-5" x1="52.62" y1="580.02" x2="57.93" y2="580.02"/><polyline class="cls-5" points="123.58 580.02 145.21 580.02 145.21 566.74 123.58 566.74"/><path class="cls-5" d="M120.92,594.91A60.53,60.53,0,0,0,60.4,534.38" transform="translate(0 -28.36)"/><path d="M120.92,595.1h0Z" transform="translate(0 -28.36)"/><path class="cls-5" d="M120.92,595.1h0Z" transform="translate(0 -28.36)"/><path d="M123.58,608.38h-2.66V595.1Zm0,0Z" transform="translate(0 -28.36)"/><path class="cls-5" d="M123.58,608.38h-2.66V595.1Zm0,0Z" transform="translate(0 -28.36)"/><polygon points="120.92 566.74 123.58 566.74 123.58 580.02 120.92 566.74"/><polygon class="cls-5" points="120.92 566.74 123.58 566.74 123.58 580.02 120.92 566.74"/><path d="M57.93,595.1h0Z" transform="translate(0 -28.36)"/><path class="cls-5" d="M57.93,595.1h0Z" transform="translate(0 -28.36)"/><path d="M60.59,608.38H57.93V595.1Zm0,0Z" transform="translate(0 -28.36)"/><path class="cls-5" d="M60.59,608.38H57.93V595.1Zm0,0Z" transform="translate(0 -28.36)"/><polygon points="57.93 566.74 60.59 566.74 60.59 580.02 57.93 566.74"/><polygon class="cls-5" points="57.93 566.74 60.59 566.74 60.59 580.02 57.93 566.74"/><polyline class="cls-5" points="123.58 580.02 120.92 580.02 120.92 566.74 123.58 566.74 123.58 580.02"/><polyline class="cls-5" points="57.93 566.74 60.59 566.74 60.59 580.02 57.93 580.02 57.93 566.74"/><line class="cls-5" x1="60.59" y1="566.74" x2="60.59" y2="506.4"/><line class="cls-5" x1="123.58" y1="566.74" x2="123.58" y2="580.02"/><line class="cls-5" x1="57.93" y1="566.74" x2="57.93" y2="580.02"/><polyline points="0.25 566.74 0.25 566.74 0.25 566.74"/><polyline class="cls-5" points="0.25 566.74 0.25 566.74 0.25 566.74"/><line class="cls-5" x1="0.25" y1="566.74" x2="0.25" y2="566.74"/><path d="M145.21,595.1h0Z" transform="translate(0 -28.36)"/><path class="cls-5" d="M145.21,595.1h0Z" transform="translate(0 -28.36)"/><path d="M210.86,608.38H145.21V595.1Zm0,0Z" transform="translate(0 -28.36)"/><path class="cls-5" d="M210.86,608.38H145.21V595.1Zm0,0Z" transform="translate(0 -28.36)"/><polygon points="145.21 566.74 210.86 566.74 210.86 580.02 145.21 566.74"/><polygon class="cls-5" points="145.21 566.74 210.86 566.74 210.86 580.02 145.21 566.74"/><polyline class="cls-5" points="145.21 580.02 210.86 580.02 210.86 566.74 145.21 566.74 145.21 580.02"/><polyline points="308.38 566.74 210.86 566.74 308.38 566.74"/><polyline class="cls-5" points="308.38 566.74 210.86 566.74 308.38 566.74"/><polyline points="308.38 580.02 210.86 580.02 210.86 566.74 308.38 580.02"/><polyline points="308.38 580.02 210.86 580.02 308.38 580.02"/><polyline class="cls-5" points="308.38 580.02 210.86 580.02 210.86 566.74 308.38 580.02"/><polyline class="cls-5" points="308.38 580.02 210.86 580.02 308.38 580.02"/><polyline points="308.38 580.02 210.86 566.74 308.38 566.74"/><polyline class="cls-5" points="308.38 580.02 210.86 566.74 308.38 566.74"/><line class="cls-5" x1="210.86" y1="580.02" x2="308.38" y2="580.02"/><polyline class="cls-5" points="308.38 566.74 210.86 566.74 210.86 580.02"/><polyline class="cls-5" points="279.54 44.96 277.64 46.86 277.64 84.43 279.54 84.43 279.54 44.96"/><line class="cls-5" x1="278.4" y1="45.72" x2="278.4" y2="84.43"/><polyline class="cls-5" points="277.64 46.86 221.86 46.86 220.34 44.96 279.54 44.96 277.64 46.86"/><line class="cls-5" x1="278.4" y1="45.72" x2="221.1" y2="45.72"/><polyline class="cls-5" points="221.86 46.86 221.86 84.43 220.34 84.43 220.34 44.96 221.86 46.86"/><line class="cls-5" x1="221.1" y1="45.72" x2="221.1" y2="84.43"/><polyline class="cls-5" points="256.01 449.86 256.01 410.77 216.55 410.77 216.55 449.86 236.28 449.86 256.01 449.86"/><polyline class="cls-5" points="253.36 447.2 253.36 413.43 219.21 413.43 219.21 447.2 236.28 447.2 253.36 447.2"/><line class="cls-5" x1="145.21" y1="455.17" x2="145.21" y2="455.17"/><line class="cls-5" x1="145.21" y1="443.41" x2="145.21" y2="423.68"/><line class="cls-5" x1="145.21" y1="413.43" x2="145.21" y2="411.93"/><line class="cls-6" x1="145.21" y1="408.78" x2="145.21" y2="359.96"/><line class="cls-5" x1="145.21" y1="358.39" x2="145.21" y2="356.89"/><line class="cls-5" x1="145.21" y1="352.71" x2="145.21" y2="333.36"/><line class="cls-5" x1="145.21" y1="331.84" x2="145.21" y2="331.84"/><polyline class="cls-5" points="256.01 410.77 145.21 410.77 145.21 449.86"/><line class="cls-5" x1="295.48" y1="331.84" x2="295.48" y2="331.84"/><line class="cls-5" x1="270.05" y1="331.84" x2="250.32" y2="331.84"/><line class="cls-5" x1="240.08" y1="331.84" x2="220.34" y2="331.84"/><line class="cls-5" x1="209.72" y1="331.84" x2="189.99" y2="331.84"/><line class="cls-5" x1="179.74" y1="331.84" x2="160.01" y2="331.84"/><polyline class="cls-5" points="145.21 331.84 145.21 331.84 295.48 331.84"/><line class="cls-5" x1="256.01" y1="410.77" x2="256.01" y2="331.84"/><polyline class="cls-5" points="256.01 358.03 145.21 358.03 145.21 331.84"/><line class="cls-5" x1="0.25" y1="331.84" x2="0.25" y2="331.84"/><line class="cls-5" x1="308.38" y1="331.84" x2="308.38" y2="331.84"/><path d="M308.38,184.89h-12.9V119.24Zm0,0Z" transform="translate(0 -28.36)"/><path class="cls-5" d="M308.38,184.89h-12.9V119.24Zm0,0Z" transform="translate(0 -28.36)"/><polygon points="295.48 90.88 308.38 90.88 308.38 156.53 295.48 90.88"/><polygon class="cls-5" points="295.48 90.88 308.38 90.88 308.38 156.53 295.48 90.88"/><polyline class="cls-5" points="295.48 90.88 295.48 156.53 308.38 156.53 308.38 84.43 295.48 90.88"/><path d="M13.15,184.89H.25V119.24Zm0,0Z" transform="translate(0 -28.36)"/><path class="cls-5" d="M13.15,184.89H.25V119.24Zm0,0Z" transform="translate(0 -28.36)"/><polygon points="0.25 90.88 13.15 90.88 13.15 156.53 0.25 90.88"/><polygon class="cls-5" points="0.25 90.88 13.15 90.88 13.15 156.53 0.25 90.88"/><polyline class="cls-5" points="0.25 84.43 0.25 156.53 13.15 156.53 13.15 90.88 0.25 90.88"/><path d="M295.48,417.88h0Z" transform="translate(0 -28.36)"/><path class="cls-5" d="M295.48,417.88h0Z" transform="translate(0 -28.36)"/><path d="M308.38,483.53h-12.9V417.88Zm0,0Z" transform="translate(0 -28.36)"/><path class="cls-5" d="M308.38,483.53h-12.9V417.88Zm0,0Z" transform="translate(0 -28.36)"/><polygon points="295.48 389.52 308.38 389.52 308.38 455.17 295.48 389.52"/><polygon class="cls-5" points="295.48 389.52 308.38 389.52 308.38 455.17 295.48 389.52"/><polyline class="cls-5" points="308.38 455.17 308.38 389.52 295.48 389.52 295.48 455.17 308.38 455.17"/><path d="M.25,417.88h0Z" transform="translate(0 -28.36)"/><path class="cls-5" d="M.25,417.88h0Z" transform="translate(0 -28.36)"/><path d="M13.15,483.53H.25V417.88Zm0,0Z" transform="translate(0 -28.36)"/><path class="cls-5" d="M13.15,483.53H.25V417.88Zm0,0Z" transform="translate(0 -28.36)"/><polygon points="0.25 389.52 13.15 389.52 13.15 455.17 0.25 389.52"/><polygon class="cls-5" points="0.25 389.52 13.15 389.52 13.15 455.17 0.25 389.52"/><polyline class="cls-5" points="13.15 455.17 13.15 389.52 0.25 389.52 0.25 455.17 13.15 455.17"/></svg>