<svg id="_665" data-name="665" xmlns="http://www.w3.org/2000/svg" viewBox="0 0 413.42 604.94"><defs><style>.cls-1,.cls-4,.cls-6,.cls-7{fill:none;stroke-linecap:round;stroke-linejoin:round;}.cls-1{stroke:#999;stroke-width:0.5px;}.cls-2{isolation:isolate;font-size:12px;fill:#999;}.cls-2,.cls-3,.cls-5{font-family:PTSans-Regular, PT Sans;}.cls-3{font-size:24px;}.cls-4,.cls-6,.cls-7{stroke:#000;stroke-width:0.75px;}.cls-5{font-size:20px;}.cls-6{stroke-dasharray:3.06 3.06;}.cls-7{stroke-dasharray:3.05 3.05;}</style></defs><title>9floor_665flat</title><line class="cls-1" x1="191" y1="10.8" x2="191" y2="2"/><polyline class="cls-1" points="194.6 5.3 191.1 1.8 187.6 5.3"/><text class="cls-2" transform="translate(200.42 10.2)">двор</text><text class="cls-3" transform="translate(289.39 297.37)">1E</text><text class="cls-3" transform="translate(273.64 330.41)">40.23</text><text class="cls-3" transform="translate(270.47 264.82)">№665</text><polyline class="cls-4" points="261.84 338.76 261.84 241.56 342.9 241.56 342.9 338.76"/><line class="cls-4" x1="261.84" y1="274.03" x2="342.9" y2="274.03"/><line class="cls-4" x1="261.84" y1="338.76" x2="342.9" y2="338.76"/><line class="cls-4" x1="261.84" y1="306.49" x2="342.9" y2="306.49"/><text class="cls-5" transform="translate(69.2 510.6)">3.53</text><text class="cls-5" transform="translate(192.32 101.12)">0.88</text><text class="cls-5" transform="translate(274.64 180.77)">13.22</text><text class="cls-5" transform="translate(86.08 180.77)">12.25</text><text class="cls-5" transform="translate(310.83 425.53)">3.13</text><text class="cls-5" transform="translate(201.15 529.37)">5.03</text><text class="cls-5" transform="translate(322.9 561.45)">2.19</text><line class="cls-4" x1="371.15" y1="124.63" x2="367.34" y2="124.63"/><line class="cls-4" x1="374.96" y1="124.63" x2="371.15" y2="124.63"/><line class="cls-4" x1="374.96" y1="77.62" x2="374.96" y2="124.63"/><line class="cls-4" x1="367.34" y1="84.02" x2="367.34" y2="124.63"/><line class="cls-4" x1="371.15" y1="80.82" x2="371.15" y2="84.31"/><line class="cls-4" x1="371.15" y1="84.31" x2="372.73" y2="84.31"/><line class="cls-4" x1="372.73" y1="84.31" x2="372.73" y2="85.9"/><line class="cls-4" x1="372.73" y1="85.9" x2="374.96" y2="85.9"/><line class="cls-4" x1="374.96" y1="85.9" x2="374.96" y2="80.82"/><line class="cls-4" x1="374.96" y1="80.82" x2="374.96" y2="77.62"/><line class="cls-4" x1="374.96" y1="124.63" x2="374.96" y2="119.55"/><line class="cls-4" x1="374.96" y1="119.55" x2="372.73" y2="119.55"/><line class="cls-4" x1="372.73" y1="119.55" x2="372.73" y2="121.14"/><line class="cls-4" x1="372.73" y1="121.14" x2="371.15" y2="121.14"/><line class="cls-4" x1="371.15" y1="121.14" x2="371.15" y2="124.63"/><line class="cls-4" x1="374.96" y1="119.55" x2="374.96" y2="85.9"/><line class="cls-4" x1="368.92" y1="88.12" x2="368.92" y2="117.33"/><line class="cls-4" x1="368.92" y1="84.31" x2="368.92" y2="88.12"/><line class="cls-4" x1="368.92" y1="88.12" x2="372.73" y2="88.12"/><line class="cls-4" x1="372.73" y1="88.12" x2="372.73" y2="84.31"/><line class="cls-4" x1="372.73" y1="84.31" x2="368.92" y2="84.31"/><line class="cls-4" x1="372.73" y1="121.14" x2="372.73" y2="117.33"/><line class="cls-4" x1="372.73" y1="117.33" x2="368.92" y2="117.33"/><line class="cls-4" x1="368.92" y1="117.33" x2="368.92" y2="121.14"/><line class="cls-4" x1="368.92" y1="121.14" x2="372.73" y2="121.14"/><line class="cls-4" x1="372.73" y1="117.33" x2="372.73" y2="88.12"/><line class="cls-4" x1="368.92" y1="88.12" x2="368.92" y2="117.33"/><line class="cls-4" x1="370.83" y1="88.12" x2="370.83" y2="117.33"/><line class="cls-4" x1="374.96" y1="80.82" x2="371.15" y2="80.82"/><line class="cls-4" x1="374.96" y1="124.63" x2="371.15" y2="124.63"/><line class="cls-4" x1="374.96" y1="124.63" x2="371.15" y2="124.63"/><line class="cls-4" x1="371.15" y1="124.63" x2="367.34" y2="124.63"/><line class="cls-4" x1="159.73" y1="124.68" x2="163.54" y2="124.68"/><line class="cls-4" x1="155.92" y1="124.68" x2="159.73" y2="124.68"/><line class="cls-4" x1="155.92" y1="124.68" x2="155.92" y2="39.52"/><line class="cls-4" x1="163.54" y1="124.68" x2="163.54" y2="48.58"/><line class="cls-4" x1="159.73" y1="124.68" x2="159.73" y2="121.19"/><line class="cls-4" x1="159.73" y1="121.19" x2="158.14" y2="121.19"/><line class="cls-4" x1="158.14" y1="121.19" x2="158.14" y2="119.6"/><line class="cls-4" x1="158.14" y1="119.6" x2="155.92" y2="119.6"/><line class="cls-4" x1="155.92" y1="119.6" x2="155.92" y2="124.68"/><line class="cls-4" x1="155.92" y1="84.37" x2="155.92" y2="86.91"/><line class="cls-4" x1="155.92" y1="86.91" x2="158.14" y2="86.91"/><line class="cls-4" x1="158.14" y1="86.91" x2="158.14" y2="85.32"/><line class="cls-4" x1="158.14" y1="85.32" x2="159.73" y2="85.32"/><line class="cls-4" x1="159.73" y1="85.32" x2="159.73" y2="84.37"/><line class="cls-4" x1="155.92" y1="86.91" x2="155.92" y2="119.6"/><line class="cls-4" x1="161.95" y1="117.38" x2="161.95" y2="89.13"/><line class="cls-4" x1="161.95" y1="121.19" x2="161.95" y2="117.38"/><line class="cls-4" x1="161.95" y1="117.38" x2="158.14" y2="117.38"/><line class="cls-4" x1="158.14" y1="117.38" x2="158.14" y2="121.19"/><line class="cls-4" x1="158.14" y1="121.19" x2="161.95" y2="121.19"/><line class="cls-4" x1="158.14" y1="85.32" x2="158.14" y2="89.13"/><line class="cls-4" x1="158.14" y1="89.13" x2="161.95" y2="89.13"/><line class="cls-4" x1="161.95" y1="89.13" x2="161.95" y2="85.32"/><line class="cls-4" x1="161.95" y1="85.32" x2="158.14" y2="85.32"/><line class="cls-4" x1="158.14" y1="89.13" x2="158.14" y2="117.38"/><line class="cls-4" x1="161.95" y1="117.38" x2="161.95" y2="89.13"/><line class="cls-4" x1="160.05" y1="117.38" x2="160.05" y2="89.13"/><line class="cls-4" x1="159.73" y1="84.37" x2="159.73" y2="83.41"/><line class="cls-4" x1="159.73" y1="83.41" x2="158.14" y2="83.41"/><line class="cls-4" x1="158.14" y1="83.41" x2="158.14" y2="81.83"/><line class="cls-4" x1="158.14" y1="81.83" x2="155.92" y2="81.83"/><line class="cls-4" x1="155.92" y1="81.83" x2="155.92" y2="84.37"/><line class="cls-4" x1="155.92" y1="44.05" x2="155.92" y2="49.13"/><line class="cls-4" x1="155.92" y1="49.13" x2="158.14" y2="49.13"/><line class="cls-4" x1="158.14" y1="49.13" x2="158.14" y2="47.54"/><line class="cls-4" x1="158.14" y1="47.54" x2="159.73" y2="47.54"/><line class="cls-4" x1="159.73" y1="47.54" x2="159.73" y2="44.05"/><line class="cls-4" x1="155.92" y1="39.52" x2="155.92" y2="44.05"/><line class="cls-4" x1="155.92" y1="49.13" x2="155.92" y2="81.83"/><line class="cls-4" x1="161.95" y1="79.6" x2="161.95" y2="51.35"/><line class="cls-4" x1="161.95" y1="83.41" x2="161.95" y2="79.6"/><line class="cls-4" x1="161.95" y1="79.6" x2="158.14" y2="79.6"/><line class="cls-4" x1="158.14" y1="79.6" x2="158.14" y2="83.41"/><line class="cls-4" x1="158.14" y1="83.41" x2="161.95" y2="83.41"/><line class="cls-4" x1="158.14" y1="47.54" x2="158.14" y2="51.35"/><line class="cls-4" x1="158.14" y1="51.35" x2="161.95" y2="51.35"/><line class="cls-4" x1="161.95" y1="51.35" x2="161.95" y2="47.54"/><line class="cls-4" x1="161.95" y1="47.54" x2="158.14" y2="47.54"/><line class="cls-4" x1="158.14" y1="51.35" x2="158.14" y2="79.6"/><line class="cls-4" x1="161.95" y1="79.6" x2="161.95" y2="51.35"/><line class="cls-4" x1="160.05" y1="79.6" x2="160.05" y2="51.35"/><line class="cls-4" x1="155.92" y1="44.05" x2="159.73" y2="44.05"/><line class="cls-4" x1="155.92" y1="124.68" x2="159.73" y2="124.68"/><line class="cls-4" x1="155.92" y1="124.68" x2="159.73" y2="124.68"/><line class="cls-4" x1="159.73" y1="124.68" x2="163.54" y2="124.68"/><line class="cls-4" x1="374.96" y1="77.62" x2="266.09" y2="58.68"/><line class="cls-4" x1="367.34" y1="84.02" x2="264.78" y2="66.19"/><line class="cls-4" x1="371.15" y1="80.82" x2="367.71" y2="80.22"/><line class="cls-4" x1="367.71" y1="80.22" x2="367.98" y2="78.66"/><line class="cls-4" x1="367.98" y1="78.66" x2="366.41" y2="78.39"/><line class="cls-4" x1="366.41" y1="78.39" x2="366.79" y2="76.2"/><line class="cls-4" x1="366.79" y1="76.2" x2="371.8" y2="77.07"/><line class="cls-4" x1="371.8" y1="77.07" x2="374.96" y2="77.62"/><line class="cls-4" x1="317.69" y1="67.66" x2="320.2" y2="68.09"/><line class="cls-4" x1="320.2" y1="68.09" x2="319.82" y2="70.28"/><line class="cls-4" x1="319.82" y1="70.28" x2="318.25" y2="70.01"/><line class="cls-4" x1="318.25" y1="70.01" x2="317.98" y2="71.57"/><line class="cls-4" x1="317.98" y1="71.57" x2="317.04" y2="71.41"/><line class="cls-4" x1="320.2" y1="68.09" x2="366.79" y2="76.2"/><line class="cls-4" x1="363.57" y1="81.76" x2="321.35" y2="74.42"/><line class="cls-4" x1="367.32" y1="82.41" x2="363.57" y2="81.76"/><line class="cls-4" x1="363.57" y1="81.76" x2="364.23" y2="78.01"/><line class="cls-4" x1="364.23" y1="78.01" x2="367.98" y2="78.66"/><line class="cls-4" x1="367.98" y1="78.66" x2="367.32" y2="82.41"/><line class="cls-4" x1="318.25" y1="70.01" x2="322" y2="70.66"/><line class="cls-4" x1="322" y1="70.66" x2="321.35" y2="74.42"/><line class="cls-4" x1="321.35" y1="74.42" x2="317.6" y2="73.76"/><line class="cls-4" x1="317.6" y1="73.76" x2="318.25" y2="70.01"/><line class="cls-4" x1="322" y1="70.66" x2="364.23" y2="78.01"/><line class="cls-4" x1="363.57" y1="81.76" x2="321.35" y2="74.42"/><line class="cls-4" x1="363.9" y1="79.88" x2="321.68" y2="72.54"/><line class="cls-4" x1="371.8" y1="77.07" x2="371.15" y2="80.82"/><line class="cls-4" x1="317.04" y1="71.41" x2="316.1" y2="71.25"/><line class="cls-4" x1="316.1" y1="71.25" x2="316.37" y2="69.68"/><line class="cls-4" x1="316.37" y1="69.68" x2="314.81" y2="69.41"/><line class="cls-4" x1="314.81" y1="69.41" x2="315.19" y2="67.22"/><line class="cls-4" x1="315.19" y1="67.22" x2="317.69" y2="67.66"/><line class="cls-4" x1="266.09" y1="58.68" x2="268.59" y2="59.12"/><line class="cls-4" x1="268.59" y1="59.12" x2="268.21" y2="61.31"/><line class="cls-4" x1="268.21" y1="61.31" x2="266.65" y2="61.03"/><line class="cls-4" x1="266.65" y1="61.03" x2="266.37" y2="62.6"/><line class="cls-4" x1="266.37" y1="62.6" x2="265.44" y2="62.44"/><line class="cls-4" x1="268.59" y1="59.12" x2="315.19" y2="67.22"/><line class="cls-4" x1="311.97" y1="72.78" x2="269.75" y2="65.44"/><line class="cls-4" x1="315.72" y1="73.44" x2="311.97" y2="72.78"/><line class="cls-4" x1="311.97" y1="72.78" x2="312.62" y2="69.03"/><line class="cls-4" x1="312.62" y1="69.03" x2="316.37" y2="69.68"/><line class="cls-4" x1="316.37" y1="69.68" x2="315.72" y2="73.44"/><line class="cls-4" x1="266.65" y1="61.03" x2="270.4" y2="61.69"/><line class="cls-4" x1="270.4" y1="61.69" x2="269.75" y2="65.44"/><line class="cls-4" x1="269.75" y1="65.44" x2="265.99" y2="64.79"/><line class="cls-4" x1="265.99" y1="64.79" x2="266.65" y2="61.03"/><line class="cls-4" x1="270.4" y1="61.69" x2="312.62" y2="69.03"/><line class="cls-4" x1="311.97" y1="72.78" x2="269.75" y2="65.44"/><line class="cls-4" x1="312.3" y1="70.91" x2="270.08" y2="63.56"/><line class="cls-4" x1="155.92" y1="39.52" x2="266.09" y2="58.68"/><line class="cls-4" x1="163.54" y1="48.58" x2="264.78" y2="66.19"/><line class="cls-4" x1="159.73" y1="44.05" x2="163.17" y2="44.65"/><line class="cls-4" x1="163.17" y1="44.65" x2="163.44" y2="43.08"/><line class="cls-4" x1="163.44" y1="43.08" x2="165.01" y2="43.36"/><line class="cls-4" x1="165.01" y1="43.36" x2="165.39" y2="41.17"/><line class="cls-4" x1="165.39" y1="41.17" x2="160.38" y2="40.3"/><line class="cls-4" x1="160.38" y1="40.3" x2="155.92" y2="39.52"/><line class="cls-4" x1="214.49" y1="49.71" x2="211.99" y2="49.27"/><line class="cls-4" x1="211.99" y1="49.27" x2="211.61" y2="51.46"/><line class="cls-4" x1="211.61" y1="51.46" x2="213.17" y2="51.73"/><line class="cls-4" x1="213.17" y1="51.73" x2="212.9" y2="53.3"/><line class="cls-4" x1="212.9" y1="53.3" x2="213.84" y2="53.46"/><line class="cls-4" x1="211.99" y1="49.27" x2="165.39" y2="41.17"/><line class="cls-4" x1="166.54" y1="47.49" x2="208.76" y2="54.83"/><line class="cls-4" x1="162.79" y1="46.84" x2="166.54" y2="47.49"/><line class="cls-4" x1="166.54" y1="47.49" x2="167.2" y2="43.74"/><line class="cls-4" x1="167.2" y1="43.74" x2="163.44" y2="43.08"/><line class="cls-4" x1="163.44" y1="43.08" x2="162.79" y2="46.84"/><line class="cls-4" x1="213.17" y1="51.73" x2="209.42" y2="51.08"/><line class="cls-4" x1="209.42" y1="51.08" x2="208.76" y2="54.83"/><line class="cls-4" x1="208.76" y1="54.83" x2="212.52" y2="55.49"/><line class="cls-4" x1="212.52" y1="55.49" x2="213.17" y2="51.73"/><line class="cls-4" x1="209.42" y1="51.08" x2="167.2" y2="43.74"/><line class="cls-4" x1="166.54" y1="47.49" x2="208.76" y2="54.83"/><line class="cls-4" x1="166.87" y1="45.61" x2="209.09" y2="52.96"/><line class="cls-4" x1="160.38" y1="40.3" x2="159.73" y2="44.05"/><line class="cls-4" x1="213.84" y1="53.46" x2="214.77" y2="53.62"/><line class="cls-4" x1="214.77" y1="53.62" x2="215.04" y2="52.06"/><line class="cls-4" x1="215.04" y1="52.06" x2="216.61" y2="52.33"/><line class="cls-4" x1="216.61" y1="52.33" x2="216.99" y2="50.14"/><line class="cls-4" x1="216.99" y1="50.14" x2="214.49" y2="49.71"/><line class="cls-4" x1="266.09" y1="58.68" x2="263.59" y2="58.25"/><line class="cls-4" x1="263.59" y1="58.25" x2="263.21" y2="60.44"/><line class="cls-4" x1="263.21" y1="60.44" x2="264.77" y2="60.71"/><line class="cls-4" x1="264.77" y1="60.71" x2="264.5" y2="62.27"/><line class="cls-4" x1="264.5" y1="62.27" x2="265.44" y2="62.44"/><line class="cls-4" x1="263.59" y1="58.25" x2="216.99" y2="50.14"/><line class="cls-4" x1="218.15" y1="56.47" x2="260.37" y2="63.81"/><line class="cls-4" x1="214.39" y1="55.81" x2="218.15" y2="56.47"/><line class="cls-4" x1="218.15" y1="56.47" x2="218.8" y2="52.71"/><line class="cls-4" x1="218.8" y1="52.71" x2="215.04" y2="52.06"/><line class="cls-4" x1="215.04" y1="52.06" x2="214.39" y2="55.81"/><line class="cls-4" x1="264.77" y1="60.71" x2="261.02" y2="60.06"/><line class="cls-4" x1="261.02" y1="60.06" x2="260.37" y2="63.81"/><line class="cls-4" x1="260.37" y1="63.81" x2="264.12" y2="64.46"/><line class="cls-4" x1="264.12" y1="64.46" x2="264.77" y2="60.71"/><line class="cls-4" x1="261.02" y1="60.06" x2="218.8" y2="52.71"/><line class="cls-4" x1="218.15" y1="56.47" x2="260.37" y2="63.81"/><line class="cls-4" x1="218.47" y1="54.59" x2="260.69" y2="61.93"/><line class="cls-4" x1="0.38" y1="125.22" x2="0.38" y2="125.22"/><line class="cls-4" x1="0.38" y1="125.22" x2="0.38" y2="125.22"/><line class="cls-4" x1="0.38" y1="124.8" x2="0.38" y2="124.8"/><line class="cls-4" x1="244.69" y1="125.22" x2="244.69" y2="125.22"/><line class="cls-4" x1="237.62" y1="125.22" x2="237.62" y2="125.22"/><line class="cls-4" x1="209.34" y1="125.22" x2="209.34" y2="125.22"/><line class="cls-4" x1="202.27" y1="125.22" x2="202.27" y2="125.22"/><line class="cls-4" x1="173.99" y1="125.22" x2="173.99" y2="125.22"/><line class="cls-4" x1="166.92" y1="125.22" x2="166.92" y2="125.22"/><line class="cls-4" x1="138.63" y1="125.22" x2="138.63" y2="125.22"/><line class="cls-4" x1="231.59" y1="124.73" x2="231.59" y2="124.73"/><line class="cls-4" x1="204.98" y1="124.72" x2="204.98" y2="124.72"/><line class="cls-4" x1="173.07" y1="124.74" x2="173.07" y2="124.74"/><line class="cls-4" x1="146.46" y1="124.73" x2="146.46" y2="124.73"/><line class="cls-4" x1="413.05" y1="125.22" x2="413.05" y2="125.22"/><line class="cls-4" x1="413.05" y1="125.22" x2="413.05" y2="125.22"/><line class="cls-4" x1="386.11" y1="125.22" x2="386.11" y2="125.22"/><line class="cls-4" x1="379.04" y1="125.22" x2="379.04" y2="125.22"/><line class="cls-4" x1="413.05" y1="125.22" x2="413.05" y2="125.22"/><line class="cls-4" x1="407.15" y1="124.68" x2="407.15" y2="124.68"/><line class="cls-4" x1="380.54" y1="124.66" x2="380.54" y2="124.66"/><line class="cls-4" x1="19.61" y1="131.11" x2="19.61" y2="131.11"/><line class="cls-4" x1="20.02" y1="128.19" x2="20.02" y2="128.19"/><line class="cls-4" x1="413.05" y1="125.23" x2="362.89" y2="125.23"/><line class="cls-4" x1="254.96" y1="125.23" x2="136.87" y2="125.23"/><line class="cls-4" x1="19.42" y1="125.23" x2="0.38" y2="125.23"/><line class="cls-4" x1="413.05" y1="131.58" x2="365.43" y2="131.58"/><line class="cls-4" x1="252.42" y1="131.58" x2="138.78" y2="131.58"/><line class="cls-4" x1="17.52" y1="131.58" x2="0.38" y2="131.58"/><line class="cls-4" x1="254.96" y1="131.58" x2="254.96" y2="125.23"/><line class="cls-4" x1="255.6" y1="124.6" x2="255.6" y2="131.58"/><line class="cls-4" x1="254.96" y1="124.6" x2="255.6" y2="124.6"/><line class="cls-4" x1="362.89" y1="131.58" x2="362.89" y2="125.23"/><line class="cls-4" x1="362.26" y1="124.6" x2="362.26" y2="131.58"/><line class="cls-4" x1="362.89" y1="124.6" x2="362.26" y2="124.6"/><line class="cls-4" x1="252.42" y1="131.58" x2="255.6" y2="131.58"/><line class="cls-4" x1="252.42" y1="147.45" x2="252.42" y2="131.58"/><line class="cls-4" x1="365.43" y1="131.58" x2="362.26" y2="131.58"/><line class="cls-4" x1="365.43" y1="147.45" x2="365.43" y2="131.58"/><line class="cls-4" x1="0.38" y1="131.58" x2="0.38" y2="131.58"/><line class="cls-4" x1="0.38" y1="125.23" x2="0.38" y2="131.58"/><line class="cls-4" x1="0.38" y1="124.6" x2="0.38" y2="124.6"/><line class="cls-4" x1="0.38" y1="131.58" x2="0.38" y2="124.6"/><line class="cls-4" x1="0.38" y1="125.23" x2="0.38" y2="131.58"/><line class="cls-4" x1="0.38" y1="124.6" x2="0.38" y2="125.23"/><line class="cls-4" x1="0.38" y1="131.58" x2="0.38" y2="131.58"/><line class="cls-4" x1="19.42" y1="131.58" x2="20.06" y2="131.58"/><line class="cls-4" x1="19.42" y1="125.23" x2="19.42" y2="131.58"/><line class="cls-4" x1="19.42" y1="124.6" x2="20.06" y2="124.6"/><line class="cls-4" x1="20.06" y1="131.58" x2="20.06" y2="124.6"/><line class="cls-4" x1="136.87" y1="131.58" x2="136.24" y2="131.58"/><line class="cls-4" x1="136.87" y1="125.23" x2="136.87" y2="131.58"/><line class="cls-4" x1="136.87" y1="124.6" x2="136.24" y2="124.6"/><line class="cls-4" x1="136.24" y1="131.58" x2="136.24" y2="124.6"/><line class="cls-4" x1="17.52" y1="135.39" x2="17.52" y2="147.45"/><line class="cls-4" x1="20.06" y1="125.23" x2="20.06" y2="131.58"/><line class="cls-4" x1="20.06" y1="124.6" x2="20.06" y2="125.23"/><line class="cls-4" x1="20.06" y1="131.58" x2="17.52" y2="131.58"/><line class="cls-4" x1="17.52" y1="131.58" x2="17.52" y2="135.39"/><line class="cls-4" x1="138.78" y1="135.39" x2="138.78" y2="147.45"/><line class="cls-4" x1="136.24" y1="125.23" x2="136.24" y2="131.58"/><line class="cls-4" x1="136.24" y1="124.6" x2="136.24" y2="125.23"/><line class="cls-4" x1="136.24" y1="131.58" x2="138.78" y2="131.58"/><line class="cls-4" x1="138.78" y1="131.58" x2="138.78" y2="135.39"/><line class="cls-4" x1="413.05" y1="124.6" x2="362.89" y2="124.6"/><line class="cls-4" x1="254.96" y1="124.6" x2="136.87" y2="124.6"/><line class="cls-4" x1="19.42" y1="124.6" x2="0.38" y2="124.6"/><line class="cls-4" x1="13.07" y1="147.45" x2="17.52" y2="147.45"/><line class="cls-4" x1="138.78" y1="147.45" x2="194.01" y2="147.45"/><line class="cls-4" x1="206.71" y1="147.45" x2="252.42" y2="147.45"/><line class="cls-4" x1="365.43" y1="147.45" x2="400.35" y2="147.45"/><line class="cls-4" x1="361.62" y1="132.85" x2="361.62" y2="136.66"/><line class="cls-4" x1="361.62" y1="136.66" x2="357.81" y2="136.66"/><line class="cls-4" x1="357.81" y1="136.66" x2="357.81" y2="132.85"/><line class="cls-4" x1="357.81" y1="132.85" x2="361.62" y2="132.85"/><line class="cls-4" x1="307.66" y1="132.85" x2="307.66" y2="136.66"/><line class="cls-4" x1="307.66" y1="136.66" x2="303.85" y2="136.66"/><line class="cls-4" x1="303.85" y1="136.66" x2="303.85" y2="132.85"/><line class="cls-4" x1="303.85" y1="132.85" x2="307.66" y2="132.85"/><line class="cls-4" x1="357.81" y1="132.85" x2="357.81" y2="136.66"/><line class="cls-4" x1="357.81" y1="136.66" x2="307.66" y2="136.66"/><line class="cls-4" x1="307.66" y1="136.66" x2="307.66" y2="132.85"/><line class="cls-4" x1="307.66" y1="132.85" x2="357.81" y2="132.85"/><line class="cls-4" x1="260.04" y1="132.85" x2="260.04" y2="136.66"/><line class="cls-4" x1="260.04" y1="136.66" x2="256.23" y2="136.66"/><line class="cls-4" x1="256.23" y1="136.66" x2="256.23" y2="132.85"/><line class="cls-4" x1="256.23" y1="132.85" x2="260.04" y2="132.85"/><line class="cls-4" x1="301.31" y1="132.85" x2="301.31" y2="136.66"/><line class="cls-4" x1="301.31" y1="136.66" x2="297.5" y2="136.66"/><line class="cls-4" x1="297.5" y1="136.66" x2="297.5" y2="132.85"/><line class="cls-4" x1="297.5" y1="132.85" x2="301.31" y2="132.85"/><line class="cls-4" x1="297.5" y1="132.85" x2="297.5" y2="136.66"/><line class="cls-4" x1="297.5" y1="136.66" x2="260.04" y2="136.66"/><line class="cls-4" x1="260.04" y1="136.66" x2="260.04" y2="132.85"/><line class="cls-4" x1="260.04" y1="132.85" x2="297.5" y2="132.85"/><line class="cls-4" x1="305.12" y1="124.6" x2="305.12" y2="129.04"/><line class="cls-4" x1="305.12" y1="147.45" x2="305.12" y2="135.39"/><line class="cls-4" x1="362.89" y1="124.6" x2="305.12" y2="124.6"/><line class="cls-4" x1="254.96" y1="124.6" x2="307.66" y2="124.6"/><line class="cls-4" x1="365.43" y1="147.45" x2="305.12" y2="147.45"/><line class="cls-4" x1="252.42" y1="147.45" x2="307.66" y2="147.45"/><line class="cls-4" x1="365.43" y1="131.58" x2="252.42" y2="131.58"/><line class="cls-4" x1="365.43" y1="135.39" x2="361.62" y2="135.39"/><line class="cls-4" x1="360.35" y1="131.58" x2="360.35" y2="132.85"/><line class="cls-4" x1="305.12" y1="131.58" x2="305.12" y2="132.85"/><line class="cls-4" x1="252.42" y1="135.39" x2="256.23" y2="135.39"/><line class="cls-4" x1="257.5" y1="131.58" x2="257.5" y2="132.85"/><line class="cls-4" x1="300.04" y1="131.58" x2="300.04" y2="132.85"/><line class="cls-4" x1="357.81" y1="132.85" x2="357.81" y2="136.66"/><line class="cls-4" x1="307.66" y1="132.85" x2="307.66" y2="136.66"/><line class="cls-4" x1="307.66" y1="134.75" x2="357.81" y2="134.75"/><line class="cls-4" x1="260.04" y1="132.85" x2="260.04" y2="136.66"/><line class="cls-4" x1="297.5" y1="132.85" x2="297.5" y2="136.66"/><line class="cls-4" x1="297.5" y1="134.75" x2="260.04" y2="134.75"/><line class="cls-4" x1="303.85" y1="135.39" x2="301.31" y2="135.39"/><line class="cls-4" x1="256.23" y1="136.66" x2="295.27" y2="159.2"/><path class="cls-4" d="M301.31,165a45,45,0,0,1-6,22.54" transform="translate(0 -28.36)"/><line class="cls-4" x1="365.43" y1="131.58" x2="365.43" y2="135.39"/><line class="cls-4" x1="365.43" y1="131.58" x2="365.43" y2="135.39"/><line class="cls-4" x1="252.42" y1="131.58" x2="252.42" y2="135.39"/><line class="cls-4" x1="252.42" y1="131.58" x2="252.42" y2="135.39"/><line class="cls-4" x1="0.38" y1="131.58" x2="0.38" y2="131.58"/><line class="cls-4" x1="0.38" y1="131.58" x2="0.38" y2="131.58"/><line class="cls-4" x1="0.38" y1="124.6" x2="0.38" y2="125.23"/><line class="cls-4" x1="0.38" y1="125.23" x2="0.38" y2="131.58"/><line class="cls-4" x1="136.24" y1="124.6" x2="20.06" y2="124.6"/><line class="cls-4" x1="138.78" y1="147.45" x2="17.52" y2="147.45"/><line class="cls-4" x1="138.78" y1="135.39" x2="135.29" y2="135.39"/><line class="cls-4" x1="135.29" y1="135.39" x2="135.29" y2="132.85"/><line class="cls-4" x1="135.29" y1="132.85" x2="133.7" y2="132.85"/><line class="cls-4" x1="133.7" y1="132.85" x2="133.7" y2="131.58"/><line class="cls-4" x1="133.7" y1="131.58" x2="138.78" y2="131.58"/><line class="cls-4" x1="94.34" y1="131.58" x2="96.88" y2="131.58"/><line class="cls-4" x1="96.88" y1="131.58" x2="96.88" y2="132.85"/><line class="cls-4" x1="96.88" y1="132.85" x2="95.29" y2="132.85"/><line class="cls-4" x1="95.29" y1="132.85" x2="95.29" y2="135.39"/><line class="cls-4" x1="95.29" y1="135.39" x2="94.34" y2="135.39"/><line class="cls-4" x1="96.88" y1="131.58" x2="133.7" y2="131.58"/><line class="cls-4" x1="131.48" y1="136.66" x2="99.1" y2="136.66"/><line class="cls-4" x1="135.29" y1="136.66" x2="131.48" y2="136.66"/><line class="cls-4" x1="131.48" y1="136.66" x2="131.48" y2="132.85"/><line class="cls-4" x1="131.48" y1="132.85" x2="135.29" y2="132.85"/><line class="cls-4" x1="135.29" y1="132.85" x2="135.29" y2="136.66"/><line class="cls-4" x1="95.29" y1="132.85" x2="99.1" y2="132.85"/><line class="cls-4" x1="99.1" y1="132.85" x2="99.1" y2="136.66"/><line class="cls-4" x1="99.1" y1="136.66" x2="95.29" y2="136.66"/><line class="cls-4" x1="95.29" y1="136.66" x2="95.29" y2="132.85"/><line class="cls-4" x1="99.1" y1="132.85" x2="131.48" y2="132.85"/><line class="cls-4" x1="131.48" y1="136.66" x2="99.1" y2="136.66"/><line class="cls-4" x1="131.48" y1="134.75" x2="99.1" y2="134.75"/><line class="cls-4" x1="94.34" y1="135.39" x2="93.39" y2="135.39"/><line class="cls-4" x1="93.39" y1="135.39" x2="93.39" y2="132.85"/><line class="cls-4" x1="93.39" y1="132.85" x2="91.8" y2="132.85"/><line class="cls-4" x1="91.8" y1="132.85" x2="91.8" y2="131.58"/><line class="cls-4" x1="91.8" y1="131.58" x2="94.34" y2="131.58"/><line class="cls-4" x1="17.52" y1="131.58" x2="22.6" y2="131.58"/><line class="cls-4" x1="22.6" y1="131.58" x2="22.6" y2="132.85"/><line class="cls-4" x1="22.6" y1="132.85" x2="21.01" y2="132.85"/><line class="cls-4" x1="21.01" y1="132.85" x2="21.01" y2="135.39"/><line class="cls-4" x1="21.01" y1="135.39" x2="17.52" y2="135.39"/><line class="cls-4" x1="22.6" y1="131.58" x2="91.8" y2="131.58"/><line class="cls-4" x1="89.58" y1="136.66" x2="24.82" y2="136.66"/><line class="cls-4" x1="93.39" y1="136.66" x2="89.58" y2="136.66"/><line class="cls-4" x1="89.58" y1="136.66" x2="89.58" y2="132.85"/><line class="cls-4" x1="89.58" y1="132.85" x2="93.39" y2="132.85"/><line class="cls-4" x1="93.39" y1="132.85" x2="93.39" y2="136.66"/><line class="cls-4" x1="21.01" y1="132.85" x2="24.82" y2="132.85"/><line class="cls-4" x1="24.82" y1="132.85" x2="24.82" y2="136.66"/><line class="cls-4" x1="24.82" y1="136.66" x2="21.01" y2="136.66"/><line class="cls-4" x1="21.01" y1="136.66" x2="21.01" y2="132.85"/><line class="cls-4" x1="24.82" y1="132.85" x2="89.58" y2="132.85"/><line class="cls-4" x1="89.58" y1="136.66" x2="24.82" y2="136.66"/><line class="cls-4" x1="89.58" y1="134.75" x2="24.82" y2="134.75"/><line class="cls-4" x1="138.78" y1="131.58" x2="138.78" y2="135.39"/><line class="cls-4" x1="138.78" y1="131.58" x2="138.78" y2="135.39"/><line class="cls-4" x1="136.24" y1="131.58" x2="138.78" y2="131.58"/><line class="cls-4" x1="136.24" y1="131.58" x2="138.78" y2="131.58"/><line class="cls-4" x1="136.24" y1="124.6" x2="136.24" y2="125.23"/><line class="cls-4" x1="136.24" y1="125.23" x2="136.24" y2="131.58"/><line class="cls-4" x1="138.78" y1="135.39" x2="138.78" y2="147.45"/><line class="cls-4" x1="17.52" y1="131.58" x2="17.52" y2="135.39"/><line class="cls-4" x1="17.52" y1="131.58" x2="17.52" y2="135.39"/><line class="cls-4" x1="20.06" y1="131.58" x2="17.52" y2="131.58"/><line class="cls-4" x1="20.06" y1="131.58" x2="17.52" y2="131.58"/><line class="cls-4" x1="20.06" y1="124.6" x2="20.06" y2="125.23"/><line class="cls-4" x1="20.06" y1="125.23" x2="20.06" y2="131.58"/><line class="cls-4" x1="17.52" y1="135.39" x2="17.52" y2="147.45"/><line class="cls-4" x1="17.73" y1="433.91" x2="17.73" y2="464.13"/><line class="cls-4" x1="21.11" y1="467.68" x2="95.06" y2="467.68"/><line class="cls-4" x1="21.11" y1="430.35" x2="95.06" y2="430.35"/><line class="cls-4" x1="115.92" y1="471.24" x2="14.34" y2="471.24"/><line class="cls-4" x1="115.92" y1="426.8" x2="14.34" y2="426.8"/><line class="cls-4" x1="115.92" y1="426.8" x2="115.92" y2="471.24"/><line class="cls-4" x1="14.34" y1="426.8" x2="14.34" y2="471.24"/><line class="cls-4" x1="83.18" y1="436.54" x2="25.31" y2="436.54"/><line class="cls-4" x1="23.62" y1="438.31" x2="23.62" y2="459.72"/><line class="cls-4" x1="83.18" y1="461.5" x2="25.31" y2="461.5"/><line class="cls-4" x1="35.51" y1="447.93" x2="35.51" y2="445.73"/><line class="cls-4" x1="34.47" y1="449.02" x2="32.38" y2="449.02"/><line class="cls-4" x1="35.51" y1="450.11" x2="35.51" y2="452.3"/><line class="cls-4" x1="36.54" y1="449.02" x2="38.63" y2="449.02"/><path class="cls-4" d="M95.06,458.71c9.82,0,17.78,8.36,17.78,18.66S104.88,496,95.06,496" transform="translate(0 -28.36)"/><path class="cls-4" d="M21.11,496a3.47,3.47,0,0,1-3.38-3.56" transform="translate(0 -28.36)"/><path class="cls-4" d="M17.73,462.26a3.47,3.47,0,0,1,3.38-3.55" transform="translate(0 -28.36)"/><path class="cls-4" d="M37.27,477.37a1.77,1.77,0,1,0-1.76,1.86,1.81,1.81,0,0,0,1.76-1.86" transform="translate(0 -28.36)"/><path class="cls-4" d="M83.18,464.89c6.56,0,11.88,5.59,11.88,12.48s-5.32,12.49-11.88,12.49" transform="translate(0 -28.36)"/><path class="cls-4" d="M23.62,466.67a1.74,1.74,0,0,1,1.69-1.78" transform="translate(0 -28.36)"/><path class="cls-4" d="M25.31,489.86a1.74,1.74,0,0,1-1.69-1.78" transform="translate(0 -28.36)"/><path class="cls-4" d="M37.87,477.37a2.37,2.37,0,1,0-2.36,2.49,2.42,2.42,0,0,0,2.36-2.49" transform="translate(0 -28.36)"/><line class="cls-4" x1="14.34" y1="511.87" x2="14.34" y2="477.59"/><line class="cls-4" x1="14.34" y1="477.59" x2="28.85" y2="477.59"/><line class="cls-4" x1="14.34" y1="511.87" x2="28.85" y2="511.87"/><line class="cls-4" x1="14.34" y1="489.33" x2="14.34" y2="500.13"/><line class="cls-4" x1="25.98" y1="491.85" x2="25.98" y2="493.68"/><line class="cls-4" x1="23.09" y1="494.74" x2="24.92" y2="494.74"/><line class="cls-4" x1="25.98" y1="495.8" x2="25.98" y2="497.62"/><line class="cls-4" x1="27.04" y1="494.74" x2="28.87" y2="494.74"/><path class="cls-4" d="M29.74,538.12a15.34,15.34,0,0,1-7.22-5.92" transform="translate(0 -28.36)"/><path class="cls-4" d="M22.52,532.2a15.26,15.26,0,0,1-2.19-7.89c0-.41,0-.82.05-1.22" transform="translate(0 -28.36)"/><path class="cls-4" d="M22.52,514a15.36,15.36,0,0,1,7.22-5.93" transform="translate(0 -28.36)"/><path class="cls-4" d="M20.38,523.09c0-.41-.05-.82-.05-1.23A15.2,15.2,0,0,1,22.52,514" transform="translate(0 -28.36)"/><path class="cls-4" d="M40.33,524.28A28,28,0,0,1,37.5,534.7" transform="translate(0 -28.36)"/><path class="cls-4" d="M28.85,506h.37A8.71,8.71,0,0,1,36,509.2" transform="translate(0 -28.36)"/><path class="cls-4" d="M40.33,521.89c0,.4.05.8.05,1.2s0,.8-.05,1.19" transform="translate(0 -28.36)"/><path class="cls-4" d="M23.08,532.68a62.51,62.51,0,0,1,0-19.18" transform="translate(0 -28.36)"/><path class="cls-4" d="M17.08,511.7a21.54,21.54,0,0,1,13.64-4.87h.37" transform="translate(0 -28.36)"/><path class="cls-4" d="M15,523.09v-.33a42.59,42.59,0,0,1,1.06-9.48" transform="translate(0 -28.36)"/><path class="cls-4" d="M16.1,513.28a2.78,2.78,0,0,1,1-1.58" transform="translate(0 -28.36)"/><path class="cls-4" d="M16.39,523.09a72.77,72.77,0,0,1,.7-9.67" transform="translate(0 -28.36)"/><path class="cls-4" d="M18,511.67a19.36,19.36,0,0,1,12.81-4.84h.25" transform="translate(0 -28.36)"/><path class="cls-4" d="M17.09,513.42a2.79,2.79,0,0,1,.94-1.75" transform="translate(0 -28.36)"/><path class="cls-4" d="M31.07,539.35h-.23A19.38,19.38,0,0,1,18,534.49" transform="translate(0 -28.36)"/><path class="cls-4" d="M31.07,539.35h-.34a21.61,21.61,0,0,1-13.67-4.88" transform="translate(0 -28.36)"/><path class="cls-4" d="M17.08,532.74a72.64,72.64,0,0,1-.69-9.67" transform="translate(0 -28.36)"/><path class="cls-4" d="M16.09,532.88A42.73,42.73,0,0,1,15,523.45v-.38" transform="translate(0 -28.36)"/><path class="cls-4" d="M18,534.49a2.85,2.85,0,0,1-.93-1.75" transform="translate(0 -28.36)"/><path class="cls-4" d="M17.06,534.47a2.85,2.85,0,0,1-1-1.59" transform="translate(0 -28.36)"/><path class="cls-4" d="M36,537a8.69,8.69,0,0,1-6.8,3.27h-.37" transform="translate(0 -28.36)"/><path class="cls-4" d="M37.5,534.7A13.61,13.61,0,0,1,36,537" transform="translate(0 -28.36)"/><path class="cls-4" d="M36,509.2a13.7,13.7,0,0,1,1.48,2.28" transform="translate(0 -28.36)"/><path class="cls-4" d="M37.5,511.48a28,28,0,0,1,2.83,10.41" transform="translate(0 -28.36)"/><path class="cls-4" d="M37.91,518.37a20.13,20.13,0,0,1,0,9.43" transform="translate(0 -28.36)"/><path class="cls-4" d="M34,536.35a5.15,5.15,0,0,1-3.89,1.78h-.36" transform="translate(0 -28.36)"/><path class="cls-4" d="M37.91,527.8A18.76,18.76,0,0,1,34,536.35" transform="translate(0 -28.36)"/><path class="cls-4" d="M29.74,508.05h.36A5.15,5.15,0,0,1,34,509.82" transform="translate(0 -28.36)"/><path class="cls-4" d="M34,509.82a18.76,18.76,0,0,1,3.92,8.55" transform="translate(0 -28.36)"/><path class="cls-4" d="M28.2,523.09A2.22,2.22,0,1,0,26,525.32a2.22,2.22,0,0,0,2.22-2.23" transform="translate(0 -28.36)"/><path class="cls-4" d="M27.57,523.09A1.59,1.59,0,1,0,26,524.68a1.59,1.59,0,0,0,1.59-1.59" transform="translate(0 -28.36)"/><line class="cls-4" x1="23.96" y1="525.18" x2="46.04" y2="525.18"/><line class="cls-4" x1="14.34" y1="524.25" x2="14.34" y2="547.74"/><line class="cls-4" x1="14.34" y1="524.25" x2="22.62" y2="524.25"/><line class="cls-4" x1="27.83" y1="536" x2="27.83" y2="544.71"/><line class="cls-4" x1="46.01" y1="525.18" x2="27.83" y2="527.29"/><line class="cls-4" x1="27.83" y1="536" x2="27.83" y2="527.29"/><line class="cls-4" x1="46.01" y1="546.81" x2="27.83" y2="544.71"/><line class="cls-4" x1="46.01" y1="525.73" x2="27.83" y2="527.84"/><line class="cls-4" x1="46.01" y1="546.26" x2="27.83" y2="544.16"/><line class="cls-4" x1="23.95" y1="546.81" x2="46.04" y2="546.81"/><line class="cls-4" x1="14.34" y1="547.74" x2="22.62" y2="547.74"/><line class="cls-4" x1="46" y1="525.18" x2="48.45" y2="525.49"/><line class="cls-4" x1="48.45" y1="525.49" x2="50.76" y2="526.41"/><line class="cls-4" x1="50.76" y1="526.41" x2="52.79" y2="527.89"/><line class="cls-4" x1="52.79" y1="527.89" x2="54.43" y2="529.84"/><line class="cls-4" x1="54.43" y1="529.84" x2="55.58" y2="532.16"/><line class="cls-4" x1="55.58" y1="532.16" x2="56.17" y2="534.69"/><line class="cls-4" x1="56.17" y1="534.69" x2="56.17" y2="537.3"/><line class="cls-4" x1="56.17" y1="537.3" x2="55.58" y2="539.84"/><line class="cls-4" x1="55.58" y1="539.84" x2="54.43" y2="542.15"/><line class="cls-4" x1="54.43" y1="542.15" x2="52.79" y2="544.1"/><line class="cls-4" x1="52.79" y1="544.1" x2="50.76" y2="545.58"/><line class="cls-4" x1="50.76" y1="545.58" x2="48.45" y2="546.5"/><line class="cls-4" x1="48.45" y1="546.5" x2="46" y2="546.81"/><line class="cls-4" x1="46.01" y1="525.73" x2="48.32" y2="526.03"/><line class="cls-4" x1="48.32" y1="526.03" x2="50.5" y2="526.91"/><line class="cls-4" x1="50.5" y1="526.91" x2="52.42" y2="528.31"/><line class="cls-4" x1="52.42" y1="528.31" x2="53.97" y2="530.17"/><line class="cls-4" x1="53.97" y1="530.17" x2="55.05" y2="532.36"/><line class="cls-4" x1="55.05" y1="532.36" x2="55.61" y2="534.76"/><line class="cls-4" x1="55.61" y1="534.76" x2="55.61" y2="537.23"/><line class="cls-4" x1="55.61" y1="537.23" x2="55.05" y2="539.64"/><line class="cls-4" x1="55.05" y1="539.64" x2="53.97" y2="541.83"/><line class="cls-4" x1="53.97" y1="541.83" x2="52.42" y2="543.68"/><line class="cls-4" x1="52.42" y1="543.68" x2="50.5" y2="545.09"/><line class="cls-4" x1="50.5" y1="545.09" x2="48.32" y2="545.96"/><line class="cls-4" x1="48.32" y1="545.96" x2="46.01" y2="546.26"/><path class="cls-4" d="M24,553.82a97.62,97.62,0,0,1,.57,10.53A97.16,97.16,0,0,1,24,574.87" transform="translate(0 -28.36)"/><path class="cls-4" d="M22.62,552.61A1.37,1.37,0,0,1,24,553.82" transform="translate(0 -28.36)"/><path class="cls-4" d="M24,574.87a1.38,1.38,0,0,1-1.39,1.23" transform="translate(0 -28.36)"/><path class="cls-4" d="M20.74,564.35a1.17,1.17,0,0,0-2.34,0,1.17,1.17,0,0,0,2.34,0" transform="translate(0 -28.36)"/><line class="cls-4" x1="79.74" y1="561.39" x2="117.83" y2="561.39"/><line class="cls-4" x1="79.74" y1="532.82" x2="79.74" y2="561.39"/><line class="cls-4" x1="117.83" y1="532.82" x2="79.74" y2="532.82"/><line class="cls-4" x1="117.83" y1="561.39" x2="117.83" y2="532.82"/><line class="cls-4" x1="284.8" y1="604.56" x2="284.8" y2="591.87"/><line class="cls-4" x1="272.1" y1="579.17" x2="272.1" y2="591.87"/><line class="cls-4" x1="362.25" y1="591.87" x2="362.25" y2="604.56"/><line class="cls-4" x1="374.95" y1="591.87" x2="374.95" y2="579.17"/><line class="cls-4" x1="0.38" y1="566.47" x2="0.38" y2="561.39"/><line class="cls-4" x1="0.38" y1="195.07" x2="0.38" y2="604.56"/><line class="cls-4" x1="13.07" y1="591.87" x2="13.07" y2="483.94"/><line class="cls-4" x1="13.07" y1="420.45" x2="13.07" y2="195.07"/><line class="cls-4" x1="374.96" y1="579.17" x2="374.96" y2="523.95"/><line class="cls-4" x1="374.96" y1="518.87" x2="374.96" y2="483.94"/><line class="cls-4" x1="369.88" y1="483.94" x2="369.88" y2="579.17"/><line class="cls-4" x1="369.88" y1="579.17" x2="374.96" y2="579.17"/><line class="cls-4" x1="199.09" y1="420.45" x2="199.09" y2="195.07"/><line class="cls-4" x1="194.01" y1="195.07" x2="194.01" y2="420.45"/><line class="cls-4" x1="374.96" y1="523.95" x2="400.35" y2="523.95"/><line class="cls-4" x1="400.35" y1="523.95" x2="400.35" y2="518.87"/><line class="cls-4" x1="400.35" y1="518.87" x2="374.96" y2="518.87"/><line class="cls-4" x1="44.82" y1="566.47" x2="44.82" y2="591.87"/><line class="cls-4" x1="44.82" y1="591.87" x2="49.9" y2="591.87"/><line class="cls-4" x1="49.9" y1="591.87" x2="49.9" y2="566.47"/><line class="cls-4" x1="40.81" y1="566.47" x2="41.64" y2="565.64"/><line class="cls-4" x1="16.25" y1="563.93" x2="16.25" y2="566.47"/><line class="cls-4" x1="16.25" y1="561.39" x2="16.25" y2="563.93"/><line class="cls-4" x1="41.64" y1="563.93" x2="41.64" y2="566.47"/><line class="cls-4" x1="41.64" y1="561.39" x2="41.64" y2="563.93"/><line class="cls-4" x1="13.07" y1="566.47" x2="16.25" y2="566.47"/><line class="cls-4" x1="41.64" y1="566.47" x2="44.82" y2="566.47"/><line class="cls-4" x1="49.9" y1="566.47" x2="117.83" y2="566.47"/><line class="cls-4" x1="117.83" y1="561.39" x2="41.64" y2="561.39"/><line class="cls-4" x1="16.25" y1="561.39" x2="13.07" y2="561.39"/><line class="cls-4" x1="13.07" y1="561.39" x2="13.07" y2="566.47"/><line class="cls-4" x1="41.64" y1="561.39" x2="16.25" y2="561.39"/><line class="cls-4" x1="41.64" y1="566.47" x2="16.25" y2="566.47"/><path class="cls-4" d="M40.11,581.06a25.53,25.53,0,0,1,1.53,8.69h0" transform="translate(0 -28.36)"/><line class="cls-4" x1="16.25" y1="561.39" x2="40.11" y2="552.71"/><line class="cls-4" x1="41.64" y1="561.39" x2="41.64" y2="563.93"/><line class="cls-4" x1="41.64" y1="561.39" x2="41.64" y2="563.93"/><line class="cls-4" x1="41.64" y1="563.93" x2="41.64" y2="566.47"/><line class="cls-4" x1="16.25" y1="561.39" x2="16.25" y2="563.93"/><line class="cls-4" x1="16.25" y1="561.39" x2="16.25" y2="563.93"/><line class="cls-4" x1="16.25" y1="563.93" x2="16.25" y2="566.47"/><line class="cls-4" x1="13.07" y1="425.53" x2="117.83" y2="425.53"/><line class="cls-4" x1="122.91" y1="425.53" x2="133.7" y2="425.53"/><line class="cls-4" x1="133.7" y1="420.45" x2="13.07" y2="420.45"/><line class="cls-4" x1="133.7" y1="420.45" x2="133.7" y2="425.53"/><line class="cls-4" x1="194.01" y1="420.45" x2="194.01" y2="425.53"/><polyline class="cls-4" points="194.01 420.45 191.7 420.45 191.7 425.53 194.01 425.53"/><line class="cls-4" x1="117.83" y1="425.53" x2="117.83" y2="475.68"/><line class="cls-4" x1="117.83" y1="526.47" x2="117.83" y2="561.39"/><line class="cls-4" x1="117.83" y1="566.47" x2="117.83" y2="591.87"/><line class="cls-4" x1="122.91" y1="591.87" x2="122.91" y2="526.47"/><line class="cls-4" x1="122.91" y1="475.68" x2="122.91" y2="425.53"/><line class="cls-4" x1="122.91" y1="475.68" x2="117.83" y2="475.68"/><line class="cls-4" x1="122.91" y1="526.47" x2="117.83" y2="526.47"/><line class="cls-4" x1="378.13" y1="479.66" x2="378.93" y2="478.86"/><line class="cls-4" x1="397.18" y1="481.4" x2="397.18" y2="483.94"/><line class="cls-4" x1="397.18" y1="478.86" x2="397.18" y2="481.4"/><line class="cls-4" x1="378.13" y1="481.4" x2="378.13" y2="483.94"/><line class="cls-4" x1="378.13" y1="478.86" x2="378.13" y2="481.4"/><line class="cls-4" x1="277.18" y1="483.94" x2="369.88" y2="483.94"/><line class="cls-4" x1="374.96" y1="483.94" x2="378.13" y2="483.94"/><line class="cls-4" x1="397.18" y1="483.94" x2="400.35" y2="483.94"/><line class="cls-4" x1="400.35" y1="478.86" x2="397.18" y2="478.86"/><line class="cls-4" x1="378.13" y1="478.86" x2="272.1" y2="478.86"/><line class="cls-4" x1="272.1" y1="478.86" x2="272.1" y2="483.94"/><line class="cls-4" x1="206.71" y1="478.86" x2="206.71" y2="483.94"/><polyline class="cls-4" points="272.1 478.86 267.94 478.86 267.94 483.94 272.1 483.94"/><polyline class="cls-4" points="207.49 478.86 209.07 478.86 209.07 483.94 207.49 483.94"/><line class="cls-4" x1="207.49" y1="478.86" x2="206.71" y2="478.86"/><line class="cls-4" x1="207.49" y1="483.94" x2="206.71" y2="483.94"/><line class="cls-4" x1="378.13" y1="478.86" x2="397.18" y2="478.86"/><line class="cls-4" x1="378.13" y1="483.94" x2="397.18" y2="483.94"/><path class="cls-4" d="M378.13,507.21a19,19,0,0,1,1.15-6.51" transform="translate(0 -28.36)"/><line class="cls-4" x1="397.18" y1="478.86" x2="379.28" y2="472.34"/><line class="cls-4" x1="378.13" y1="478.86" x2="378.13" y2="481.4"/><line class="cls-4" x1="378.13" y1="478.86" x2="378.13" y2="481.4"/><line class="cls-4" x1="378.13" y1="481.4" x2="378.13" y2="483.94"/><line class="cls-4" x1="397.18" y1="478.86" x2="397.18" y2="481.4"/><line class="cls-4" x1="397.18" y1="478.86" x2="397.18" y2="481.4"/><line class="cls-4" x1="397.18" y1="481.4" x2="397.18" y2="483.94"/><line class="cls-4" x1="272.1" y1="483.94" x2="272.1" y2="509.33"/><line class="cls-4" x1="272.1" y1="560.12" x2="272.1" y2="579.17"/><line class="cls-4" x1="272.1" y1="579.17" x2="277.18" y2="579.17"/><line class="cls-4" x1="277.18" y1="579.17" x2="277.18" y2="560.12"/><line class="cls-4" x1="277.18" y1="509.33" x2="277.18" y2="483.94"/><line class="cls-4" x1="277.18" y1="509.33" x2="272.1" y2="509.33"/><line class="cls-4" x1="277.18" y1="560.12" x2="272.1" y2="560.12"/><line class="cls-4" x1="413.05" y1="518.87" x2="413.05" y2="523.95"/><line class="cls-4" x1="284.8" y1="591.87" x2="362.25" y2="591.87"/><line class="cls-4" x1="374.95" y1="579.17" x2="272.1" y2="579.17"/><line class="cls-4" x1="244.8" y1="599.49" x2="244.8" y2="591.87"/><line class="cls-4" x1="244.8" y1="604.56" x2="244.8" y2="599.49"/><line class="cls-4" x1="181.31" y1="599.49" x2="181.31" y2="591.87"/><line class="cls-4" x1="181.31" y1="604.56" x2="181.31" y2="599.49"/><line class="cls-4" x1="272.1" y1="591.87" x2="244.8" y2="591.87"/><line class="cls-4" x1="117.83" y1="591.87" x2="13.07" y2="591.87"/><line class="cls-4" x1="0.38" y1="604.56" x2="181.31" y2="604.56"/><line class="cls-4" x1="244.8" y1="604.56" x2="284.8" y2="604.56"/><line class="cls-4" x1="179.35" y1="604.56" x2="244.8" y2="604.56"/><path class="cls-4" d="M183.85,627.84a58.41,58.41,0,0,1,58.41-58.41" transform="translate(0 -28.36)"/><line class="cls-4" x1="181.31" y1="604.56" x2="183.85" y2="604.56"/><line class="cls-4" x1="183.85" y1="604.56" x2="183.85" y2="599.49"/><line class="cls-4" x1="183.85" y1="599.49" x2="181.31" y2="599.49"/><line class="cls-4" x1="181.31" y1="599.49" x2="181.31" y2="604.56"/><line class="cls-4" x1="244.8" y1="599.49" x2="242.26" y2="599.49"/><line class="cls-4" x1="242.26" y1="599.49" x2="242.26" y2="604.56"/><line class="cls-4" x1="242.26" y1="604.56" x2="244.8" y2="604.56"/><line class="cls-4" x1="244.8" y1="604.56" x2="244.8" y2="599.49"/><line class="cls-4" x1="242.26" y1="599.49" x2="242.26" y2="541.08"/><line class="cls-4" x1="181.31" y1="604.56" x2="181.31" y2="599.49"/><line class="cls-4" x1="181.31" y1="604.56" x2="181.31" y2="599.49"/><line class="cls-4" x1="181.31" y1="599.49" x2="181.31" y2="591.87"/><line class="cls-4" x1="244.8" y1="604.56" x2="244.8" y2="599.49"/><line class="cls-4" x1="244.8" y1="604.56" x2="244.8" y2="599.49"/><line class="cls-4" x1="244.8" y1="599.49" x2="244.8" y2="591.87"/><line class="cls-4" x1="400.35" y1="195.07" x2="400.35" y2="420.45"/><line class="cls-4" x1="400.35" y1="483.94" x2="400.35" y2="591.87"/><line class="cls-4" x1="413.05" y1="604.56" x2="413.05" y2="483.94"/><line class="cls-4" x1="413.05" y1="420.45" x2="413.05" y2="195.07"/><line class="cls-4" x1="400.35" y1="591.87" x2="374.95" y2="591.87"/><line class="cls-4" x1="362.25" y1="604.56" x2="413.05" y2="604.56"/><line class="cls-4" x1="374.82" y1="79.18" x2="375.09" y2="77.62"/><line class="cls-4" x1="374.82" y1="79.18" x2="375.09" y2="77.62"/><line class="cls-4" x1="413.05" y1="440.76" x2="413.05" y2="478.86"/><line class="cls-4" x1="381.3" y1="440.76" x2="362.26" y2="440.76"/><line class="cls-4" x1="400.35" y1="440.76" x2="381.3" y2="440.76"/><line class="cls-4" x1="400.35" y1="478.86" x2="400.35" y2="440.76"/><line class="cls-4" x1="362.26" y1="478.86" x2="400.35" y2="478.86"/><line class="cls-4" x1="362.26" y1="440.76" x2="362.26" y2="478.86"/><line class="cls-4" x1="364.8" y1="443.3" x2="364.8" y2="476.32"/><line class="cls-4" x1="364.8" y1="476.32" x2="397.81" y2="476.32"/><line class="cls-4" x1="397.81" y1="476.32" x2="397.81" y2="443.3"/><line class="cls-4" x1="397.81" y1="443.3" x2="381.3" y2="443.3"/><line class="cls-4" x1="381.3" y1="443.3" x2="364.8" y2="443.3"/><line class="cls-4" x1="400.35" y1="380.45" x2="398.85" y2="380.45"/><line class="cls-6" x1="395.79" y1="380.45" x2="274.96" y2="380.45"/><polyline class="cls-4" points="273.43 380.45 271.93 380.45 271.93 381.95"/><line class="cls-7" x1="271.93" y1="385" x2="271.93" y2="474.86"/><line class="cls-4" x1="271.93" y1="476.38" x2="271.93" y2="477.88"/><line class="cls-4" x1="272.1" y1="478.86" x2="272.1" y2="478.86"/><line class="cls-4" x1="0.38" y1="561.39" x2="0.38" y2="566.47"/><line class="cls-4" x1="13.07" y1="561.89" x2="13.57" y2="561.39"/><line class="cls-4" x1="25.77" y1="566.47" x2="13.07" y2="566.47"/><line class="cls-4" x1="13.07" y1="566.47" x2="13.07" y2="561.39"/><line class="cls-4" x1="13.07" y1="561.39" x2="25.77" y2="561.39"/><line class="cls-4" x1="61.48" y1="561.39" x2="51.96" y2="561.39"/><line class="cls-4" x1="382.89" y1="478.94" x2="382.97" y2="478.86"/><line class="cls-4" x1="382.89" y1="478.86" x2="392.41" y2="478.86"/><line class="cls-4" x1="392.41" y1="483.94" x2="382.89" y2="483.94"/><line class="cls-4" x1="369.82" y1="483.93" x2="369.88" y2="483.87"/><line class="cls-4" x1="357.18" y1="479.06" x2="357.38" y2="478.85"/><line class="cls-4" x1="357.18" y1="483.93" x2="369.88" y2="483.93"/><line class="cls-4" x1="369.88" y1="478.85" x2="357.18" y2="478.85"/><line class="cls-4" x1="374.7" y1="542.34" x2="374.95" y2="542.09"/><line class="cls-4" x1="374.95" y1="542.34" x2="374.95" y2="529.64"/><line class="cls-4" x1="369.87" y1="529.64" x2="369.87" y2="542.34"/><line class="cls-4" x1="12.91" y1="483.94" x2="13.07" y2="483.78"/><line class="cls-4" x1="5.73" y1="483.94" x2="13.07" y2="476.59"/><line class="cls-4" x1="0.38" y1="482.11" x2="13.07" y2="469.41"/><line class="cls-4" x1="0.38" y1="474.92" x2="13.07" y2="462.23"/><line class="cls-4" x1="0.38" y1="467.74" x2="13.07" y2="455.05"/><line class="cls-4" x1="0.38" y1="460.56" x2="13.07" y2="447.86"/><line class="cls-4" x1="0.38" y1="453.38" x2="13.07" y2="440.68"/><line class="cls-4" x1="0.38" y1="446.19" x2="13.07" y2="433.5"/><line class="cls-4" x1="0.38" y1="439.01" x2="13.07" y2="426.31"/><line class="cls-4" x1="0.38" y1="431.83" x2="11.76" y2="420.45"/><line class="cls-4" x1="0.38" y1="424.64" x2="4.57" y2="420.45"/><line class="cls-4" x1="9.32" y1="483.94" x2="9.45" y2="483.8"/><line class="cls-4" x1="10.35" y1="482.9" x2="10.35" y2="482.9"/><line class="cls-4" x1="11.25" y1="482.01" x2="13.07" y2="480.18"/><line class="cls-4" x1="2.27" y1="483.8" x2="2.27" y2="483.8"/><line class="cls-4" x1="3.17" y1="482.9" x2="5.86" y2="480.21"/><line class="cls-4" x1="6.76" y1="479.31" x2="6.76" y2="479.31"/><line class="cls-4" x1="7.66" y1="478.42" x2="10.35" y2="475.72"/><line class="cls-4" x1="11.25" y1="474.82" x2="11.25" y2="474.82"/><line class="cls-4" x1="12.15" y1="473.92" x2="13.07" y2="473"/><line class="cls-4" x1="0.38" y1="478.52" x2="2.27" y2="476.62"/><line class="cls-4" x1="3.17" y1="475.72" x2="3.17" y2="475.72"/><line class="cls-4" x1="4.07" y1="474.82" x2="6.76" y2="472.13"/><line class="cls-4" x1="7.66" y1="471.23" x2="7.66" y2="471.23"/><line class="cls-4" x1="8.56" y1="470.33" x2="11.25" y2="467.64"/><line class="cls-4" x1="12.15" y1="466.74" x2="12.15" y2="466.74"/><line class="cls-4" x1="0.48" y1="471.23" x2="3.17" y2="468.54"/><line class="cls-4" x1="4.07" y1="467.64" x2="4.07" y2="467.64"/><line class="cls-4" x1="4.97" y1="466.74" x2="7.66" y2="464.05"/><line class="cls-4" x1="8.56" y1="463.15" x2="8.56" y2="463.15"/><line class="cls-4" x1="9.45" y1="462.25" x2="12.15" y2="459.56"/><line class="cls-4" x1="13.05" y1="458.66" x2="13.05" y2="458.66"/><line class="cls-4" x1="0.48" y1="464.05" x2="0.48" y2="464.05"/><line class="cls-4" x1="1.37" y1="463.15" x2="4.07" y2="460.46"/><line class="cls-4" x1="4.97" y1="459.56" x2="4.97" y2="459.56"/><line class="cls-4" x1="5.86" y1="458.66" x2="8.56" y2="455.97"/><line class="cls-4" x1="9.45" y1="455.07" x2="9.45" y2="455.07"/><line class="cls-4" x1="10.35" y1="454.17" x2="13.05" y2="451.48"/><line class="cls-4" x1="0.38" y1="456.97" x2="0.48" y2="456.87"/><line class="cls-4" x1="1.37" y1="455.97" x2="1.37" y2="455.97"/><line class="cls-4" x1="2.27" y1="455.07" x2="4.97" y2="452.38"/><line class="cls-4" x1="5.86" y1="451.48" x2="5.86" y2="451.48"/><line class="cls-4" x1="6.76" y1="450.58" x2="9.45" y2="447.89"/><line class="cls-4" x1="10.35" y1="446.99" x2="10.35" y2="446.99"/><line class="cls-4" x1="11.25" y1="446.09" x2="13.07" y2="444.27"/><line class="cls-4" x1="0.38" y1="449.79" x2="1.37" y2="448.79"/><line class="cls-4" x1="2.27" y1="447.89" x2="2.27" y2="447.89"/><line class="cls-4" x1="3.17" y1="446.99" x2="5.86" y2="444.3"/><line class="cls-4" x1="6.76" y1="443.4" x2="6.76" y2="443.4"/><line class="cls-4" x1="7.66" y1="442.5" x2="10.35" y2="439.81"/><line class="cls-4" x1="11.25" y1="438.91" x2="11.25" y2="438.91"/><line class="cls-4" x1="12.15" y1="438.01" x2="13.07" y2="437.09"/><line class="cls-4" x1="0.38" y1="442.6" x2="2.27" y2="440.7"/><line class="cls-4" x1="3.17" y1="439.81" x2="3.17" y2="439.81"/><line class="cls-4" x1="4.07" y1="438.91" x2="6.76" y2="436.22"/><line class="cls-4" x1="7.66" y1="435.32" x2="7.66" y2="435.32"/><line class="cls-4" x1="8.56" y1="434.42" x2="11.25" y2="431.73"/><line class="cls-4" x1="12.15" y1="430.83" x2="12.15" y2="430.83"/><line class="cls-4" x1="0.48" y1="435.32" x2="3.17" y2="432.63"/><line class="cls-4" x1="4.07" y1="431.73" x2="4.07" y2="431.73"/><line class="cls-4" x1="4.97" y1="430.83" x2="7.66" y2="428.13"/><line class="cls-4" x1="8.56" y1="427.24" x2="8.56" y2="427.24"/><line class="cls-4" x1="9.45" y1="426.34" x2="12.15" y2="423.64"/><line class="cls-4" x1="13.05" y1="422.75" x2="13.05" y2="422.75"/><line class="cls-4" x1="0.48" y1="428.13" x2="0.48" y2="428.13"/><line class="cls-4" x1="1.37" y1="427.24" x2="4.07" y2="424.54"/><line class="cls-4" x1="4.97" y1="423.64" x2="4.97" y2="423.64"/><line class="cls-4" x1="5.86" y1="422.75" x2="8.16" y2="420.45"/><line class="cls-4" x1="0.38" y1="421.05" x2="0.48" y2="420.95"/><line class="cls-4" x1="0.38" y1="483.94" x2="13.07" y2="483.94"/><line class="cls-4" x1="13.07" y1="483.94" x2="13.07" y2="420.45"/><line class="cls-4" x1="13.07" y1="420.45" x2="0.38" y2="420.45"/><line class="cls-4" x1="0.38" y1="420.45" x2="0.38" y2="483.94"/><line class="cls-4" x1="7.29" y1="195.07" x2="13.07" y2="189.28"/><line class="cls-4" x1="0.38" y1="194.79" x2="13.07" y2="182.1"/><line class="cls-4" x1="0.38" y1="187.61" x2="13.07" y2="174.91"/><line class="cls-4" x1="0.38" y1="180.43" x2="13.07" y2="167.73"/><line class="cls-4" x1="0.38" y1="173.25" x2="13.07" y2="160.55"/><line class="cls-4" x1="0.38" y1="166.06" x2="13.07" y2="153.37"/><line class="cls-4" x1="0.38" y1="158.88" x2="13.07" y2="146.18"/><line class="cls-4" x1="0.38" y1="151.7" x2="13.07" y2="139"/><line class="cls-4" x1="0.38" y1="144.51" x2="13.07" y2="131.82"/><line class="cls-4" x1="0.38" y1="137.33" x2="6.13" y2="131.58"/><line class="cls-4" x1="11.25" y1="194.69" x2="13.07" y2="192.87"/><line class="cls-4" x1="3.69" y1="195.07" x2="5.86" y2="192.9"/><line class="cls-4" x1="6.76" y1="192" x2="6.76" y2="192"/><line class="cls-4" x1="7.66" y1="191.1" x2="10.35" y2="188.41"/><line class="cls-4" x1="11.25" y1="187.51" x2="11.25" y2="187.51"/><line class="cls-4" x1="12.15" y1="186.61" x2="13.07" y2="185.69"/><line class="cls-4" x1="0.38" y1="191.2" x2="2.27" y2="189.3"/><line class="cls-4" x1="3.17" y1="188.41" x2="3.17" y2="188.41"/><line class="cls-4" x1="4.07" y1="187.51" x2="6.76" y2="184.82"/><line class="cls-4" x1="7.66" y1="183.92" x2="7.66" y2="183.92"/><line class="cls-4" x1="8.56" y1="183.02" x2="11.25" y2="180.33"/><line class="cls-4" x1="12.15" y1="179.43" x2="12.15" y2="179.43"/><line class="cls-4" x1="0.48" y1="183.92" x2="3.17" y2="181.22"/><line class="cls-4" x1="4.07" y1="180.33" x2="4.07" y2="180.33"/><line class="cls-4" x1="4.97" y1="179.43" x2="7.66" y2="176.73"/><line class="cls-4" x1="8.56" y1="175.84" x2="8.56" y2="175.84"/><line class="cls-4" x1="9.45" y1="174.94" x2="12.15" y2="172.25"/><line class="cls-4" x1="13.05" y1="171.35" x2="13.05" y2="171.35"/><line class="cls-4" x1="0.48" y1="176.73" x2="0.48" y2="176.73"/><line class="cls-4" x1="1.37" y1="175.84" x2="4.07" y2="173.14"/><line class="cls-4" x1="4.97" y1="172.25" x2="4.97" y2="172.25"/><line class="cls-4" x1="5.86" y1="171.35" x2="8.56" y2="168.65"/><line class="cls-4" x1="9.45" y1="167.76" x2="9.45" y2="167.76"/><line class="cls-4" x1="10.35" y1="166.86" x2="13.05" y2="164.16"/><line class="cls-4" x1="0.38" y1="169.65" x2="0.48" y2="169.55"/><line class="cls-4" x1="1.37" y1="168.65" x2="1.37" y2="168.65"/><line class="cls-4" x1="2.27" y1="167.76" x2="4.97" y2="165.06"/><line class="cls-4" x1="5.86" y1="164.16" x2="5.86" y2="164.16"/><line class="cls-4" x1="6.76" y1="163.27" x2="9.45" y2="160.57"/><line class="cls-4" x1="10.35" y1="159.68" x2="10.35" y2="159.68"/><line class="cls-4" x1="11.25" y1="158.78" x2="13.07" y2="156.96"/><line class="cls-4" x1="0.38" y1="162.47" x2="1.37" y2="161.47"/><line class="cls-4" x1="2.27" y1="160.57" x2="2.27" y2="160.57"/><line class="cls-4" x1="3.17" y1="159.68" x2="5.86" y2="156.98"/><line class="cls-4" x1="6.76" y1="156.08" x2="6.76" y2="156.08"/><line class="cls-4" x1="7.66" y1="155.19" x2="10.35" y2="152.49"/><line class="cls-4" x1="11.25" y1="151.59" x2="11.25" y2="151.59"/><line class="cls-4" x1="12.15" y1="150.7" x2="13.07" y2="149.77"/><line class="cls-4" x1="0.38" y1="155.29" x2="2.27" y2="153.39"/><line class="cls-4" x1="3.17" y1="152.49" x2="3.17" y2="152.49"/><line class="cls-4" x1="4.07" y1="151.59" x2="6.76" y2="148.9"/><line class="cls-4" x1="7.66" y1="148" x2="7.66" y2="148"/><line class="cls-4" x1="8.56" y1="147.11" x2="11.25" y2="144.41"/><line class="cls-4" x1="12.15" y1="143.51" x2="12.15" y2="143.51"/><line class="cls-4" x1="0.48" y1="148" x2="3.17" y2="145.31"/><line class="cls-4" x1="4.07" y1="144.41" x2="4.07" y2="144.41"/><line class="cls-4" x1="4.97" y1="143.51" x2="7.66" y2="140.82"/><line class="cls-4" x1="8.56" y1="139.92" x2="8.56" y2="139.92"/><line class="cls-4" x1="9.45" y1="139.02" x2="12.15" y2="136.33"/><line class="cls-4" x1="13.05" y1="135.43" x2="13.05" y2="135.43"/><line class="cls-4" x1="0.48" y1="140.82" x2="0.48" y2="140.82"/><line class="cls-4" x1="1.37" y1="139.92" x2="4.07" y2="137.23"/><line class="cls-4" x1="4.97" y1="136.33" x2="4.97" y2="136.33"/><line class="cls-4" x1="5.86" y1="135.43" x2="8.56" y2="132.74"/><line class="cls-4" x1="9.45" y1="131.84" x2="9.45" y2="131.84"/><line class="cls-4" x1="0.38" y1="133.74" x2="0.48" y2="133.64"/><line class="cls-4" x1="1.37" y1="132.74" x2="1.37" y2="132.74"/><line class="cls-4" x1="2.27" y1="131.84" x2="2.53" y2="131.58"/><line class="cls-4" x1="0.38" y1="131.58" x2="0.38" y2="195.07"/><line class="cls-4" x1="0.38" y1="195.07" x2="13.07" y2="195.07"/><line class="cls-4" x1="13.07" y1="195.07" x2="13.07" y2="131.58"/><line class="cls-4" x1="199.67" y1="483.94" x2="206.71" y2="476.89"/><line class="cls-4" x1="194.01" y1="482.41" x2="206.71" y2="469.71"/><line class="cls-4" x1="194.01" y1="475.22" x2="206.71" y2="462.53"/><line class="cls-4" x1="194.01" y1="468.04" x2="206.71" y2="455.34"/><line class="cls-4" x1="194.01" y1="460.86" x2="206.71" y2="448.16"/><line class="cls-4" x1="194.01" y1="453.67" x2="206.71" y2="440.98"/><line class="cls-4" x1="194.01" y1="446.49" x2="206.71" y2="433.79"/><line class="cls-4" x1="194.01" y1="439.31" x2="206.71" y2="426.61"/><line class="cls-4" x1="194.01" y1="432.13" x2="205.69" y2="420.45"/><line class="cls-4" x1="194.01" y1="424.94" x2="198.51" y2="420.45"/><line class="cls-4" x1="203.26" y1="483.94" x2="205.19" y2="482.01"/><line class="cls-4" x1="206.09" y1="481.11" x2="206.09" y2="481.11"/><line class="cls-4" x1="196.07" y1="483.94" x2="197.11" y2="482.9"/><line class="cls-4" x1="198" y1="482.01" x2="198" y2="482.01"/><line class="cls-4" x1="198.9" y1="481.11" x2="201.6" y2="478.42"/><line class="cls-4" x1="202.5" y1="477.52" x2="202.5" y2="477.52"/><line class="cls-4" x1="203.39" y1="476.62" x2="206.09" y2="473.92"/><line class="cls-4" x1="194.41" y1="478.42" x2="194.41" y2="478.42"/><line class="cls-4" x1="195.31" y1="477.52" x2="198" y2="474.82"/><line class="cls-4" x1="198.9" y1="473.92" x2="198.9" y2="473.92"/><line class="cls-4" x1="199.8" y1="473.03" x2="202.5" y2="470.33"/><line class="cls-4" x1="203.39" y1="469.44" x2="203.39" y2="469.44"/><line class="cls-4" x1="204.29" y1="468.54" x2="206.71" y2="466.12"/><line class="cls-4" x1="194.01" y1="471.63" x2="194.41" y2="471.23"/><line class="cls-4" x1="195.31" y1="470.33" x2="195.31" y2="470.33"/><line class="cls-4" x1="196.21" y1="469.44" x2="198.9" y2="466.74"/><line class="cls-4" x1="199.8" y1="465.85" x2="199.8" y2="465.85"/><line class="cls-4" x1="200.7" y1="464.95" x2="203.39" y2="462.25"/><line class="cls-4" x1="204.29" y1="461.36" x2="204.29" y2="461.36"/><line class="cls-4" x1="205.19" y1="460.46" x2="206.71" y2="458.93"/><line class="cls-4" x1="194.01" y1="464.45" x2="195.31" y2="463.15"/><line class="cls-4" x1="196.21" y1="462.25" x2="196.21" y2="462.25"/><line class="cls-4" x1="197.11" y1="461.36" x2="199.8" y2="458.66"/><line class="cls-4" x1="200.7" y1="457.76" x2="200.7" y2="457.76"/><line class="cls-4" x1="201.6" y1="456.87" x2="204.29" y2="454.17"/><line class="cls-4" x1="205.19" y1="453.27" x2="205.19" y2="453.27"/><line class="cls-4" x1="206.09" y1="452.38" x2="206.71" y2="451.75"/><line class="cls-4" x1="194.01" y1="457.27" x2="196.21" y2="455.07"/><line class="cls-4" x1="197.11" y1="454.17" x2="197.11" y2="454.17"/><line class="cls-4" x1="198" y1="453.27" x2="200.7" y2="450.58"/><line class="cls-4" x1="201.6" y1="449.68" x2="201.6" y2="449.68"/><line class="cls-4" x1="202.5" y1="448.79" x2="205.19" y2="446.09"/><line class="cls-4" x1="206.09" y1="445.19" x2="206.09" y2="445.19"/><line class="cls-4" x1="194.41" y1="449.68" x2="197.11" y2="446.99"/><line class="cls-4" x1="198" y1="446.09" x2="198" y2="446.09"/><line class="cls-4" x1="198.9" y1="445.19" x2="201.6" y2="442.5"/><line class="cls-4" x1="202.5" y1="441.6" x2="202.5" y2="441.6"/><line class="cls-4" x1="203.39" y1="440.7" x2="206.09" y2="438.01"/><line class="cls-4" x1="194.41" y1="442.5" x2="194.41" y2="442.5"/><line class="cls-4" x1="195.31" y1="441.6" x2="198" y2="438.91"/><line class="cls-4" x1="198.9" y1="438.01" x2="198.9" y2="438.01"/><line class="cls-4" x1="199.8" y1="437.11" x2="202.5" y2="434.42"/><line class="cls-4" x1="203.39" y1="433.52" x2="203.39" y2="433.52"/><line class="cls-4" x1="204.29" y1="432.63" x2="206.71" y2="430.2"/><line class="cls-4" x1="194.01" y1="435.72" x2="194.41" y2="435.32"/><line class="cls-4" x1="195.31" y1="434.42" x2="195.31" y2="434.42"/><line class="cls-4" x1="196.21" y1="433.52" x2="198.9" y2="430.83"/><line class="cls-4" x1="199.8" y1="429.93" x2="199.8" y2="429.93"/><line class="cls-4" x1="200.7" y1="429.03" x2="203.39" y2="426.34"/><line class="cls-4" x1="204.29" y1="425.44" x2="204.29" y2="425.44"/><line class="cls-4" x1="205.19" y1="424.54" x2="206.71" y2="423.02"/><line class="cls-4" x1="194.01" y1="428.54" x2="195.31" y2="427.24"/><line class="cls-4" x1="196.21" y1="426.34" x2="196.21" y2="426.34"/><line class="cls-4" x1="197.11" y1="425.44" x2="199.8" y2="422.75"/><line class="cls-4" x1="200.7" y1="421.85" x2="200.7" y2="421.85"/><line class="cls-4" x1="201.6" y1="420.95" x2="202.1" y2="420.45"/><line class="cls-4" x1="194.01" y1="421.35" x2="194.92" y2="420.45"/><line class="cls-4" x1="194.01" y1="483.94" x2="206.71" y2="483.94"/><line class="cls-4" x1="206.71" y1="483.94" x2="206.71" y2="420.45"/><line class="cls-4" x1="206.71" y1="420.45" x2="194.01" y2="420.45"/><line class="cls-4" x1="194.01" y1="420.45" x2="194.01" y2="483.94"/><line class="cls-4" x1="407.97" y1="483.94" x2="413.05" y2="478.86"/><line class="cls-4" x1="400.79" y1="483.94" x2="413.05" y2="471.68"/><line class="cls-4" x1="400.35" y1="477.19" x2="413.05" y2="464.49"/><line class="cls-4" x1="400.35" y1="470.01" x2="413.05" y2="457.31"/><line class="cls-4" x1="400.35" y1="462.83" x2="413.05" y2="450.13"/><line class="cls-4" x1="400.35" y1="455.64" x2="413.05" y2="442.95"/><line class="cls-4" x1="400.35" y1="448.46" x2="413.05" y2="435.76"/><line class="cls-4" x1="400.35" y1="441.28" x2="413.05" y2="428.58"/><line class="cls-4" x1="400.35" y1="434.1" x2="413.05" y2="421.4"/><line class="cls-4" x1="400.35" y1="426.91" x2="406.81" y2="420.45"/><line class="cls-4" x1="411.56" y1="483.94" x2="412.59" y2="482.9"/><line class="cls-4" x1="404.38" y1="483.94" x2="404.51" y2="483.8"/><line class="cls-4" x1="405.41" y1="482.9" x2="405.41" y2="482.9"/><line class="cls-4" x1="406.31" y1="482.01" x2="409" y2="479.31"/><line class="cls-4" x1="409.9" y1="478.42" x2="409.9" y2="478.42"/><line class="cls-4" x1="410.8" y1="477.52" x2="413.05" y2="475.27"/><line class="cls-4" x1="400.35" y1="480.78" x2="400.92" y2="480.21"/><line class="cls-4" x1="401.82" y1="479.31" x2="401.82" y2="479.31"/><line class="cls-4" x1="402.72" y1="478.42" x2="405.41" y2="475.72"/><line class="cls-4" x1="406.31" y1="474.82" x2="406.31" y2="474.82"/><line class="cls-4" x1="407.21" y1="473.92" x2="409.9" y2="471.23"/><line class="cls-4" x1="410.8" y1="470.33" x2="410.8" y2="470.33"/><line class="cls-4" x1="411.7" y1="469.44" x2="413.05" y2="468.09"/><line class="cls-4" x1="400.35" y1="473.6" x2="401.82" y2="472.13"/><line class="cls-4" x1="402.72" y1="471.23" x2="402.72" y2="471.23"/><line class="cls-4" x1="403.61" y1="470.33" x2="406.31" y2="467.64"/><line class="cls-4" x1="407.21" y1="466.74" x2="407.21" y2="466.74"/><line class="cls-4" x1="408.11" y1="465.85" x2="410.8" y2="463.15"/><line class="cls-4" x1="411.7" y1="462.25" x2="411.7" y2="462.25"/><line class="cls-4" x1="412.59" y1="461.36" x2="413.05" y2="460.9"/><line class="cls-4" x1="400.35" y1="466.42" x2="402.72" y2="464.05"/><line class="cls-4" x1="403.61" y1="463.15" x2="403.61" y2="463.15"/><line class="cls-4" x1="404.51" y1="462.25" x2="407.21" y2="459.56"/><line class="cls-4" x1="408.11" y1="458.66" x2="408.11" y2="458.66"/><line class="cls-4" x1="409" y1="457.76" x2="411.7" y2="455.07"/><line class="cls-4" x1="412.59" y1="454.17" x2="412.59" y2="454.17"/><line class="cls-4" x1="400.92" y1="458.66" x2="403.61" y2="455.97"/><line class="cls-4" x1="404.51" y1="455.07" x2="404.51" y2="455.07"/><line class="cls-4" x1="405.41" y1="454.17" x2="408.11" y2="451.48"/><line class="cls-4" x1="409" y1="450.58" x2="409" y2="450.58"/><line class="cls-4" x1="409.9" y1="449.68" x2="412.59" y2="446.99"/><line class="cls-4" x1="400.92" y1="451.48" x2="400.92" y2="451.48"/><line class="cls-4" x1="401.82" y1="450.58" x2="404.51" y2="447.89"/><line class="cls-4" x1="405.41" y1="446.99" x2="405.41" y2="446.99"/><line class="cls-4" x1="406.31" y1="446.09" x2="409" y2="443.4"/><line class="cls-4" x1="409.9" y1="442.5" x2="409.9" y2="442.5"/><line class="cls-4" x1="410.8" y1="441.6" x2="413.05" y2="439.36"/><line class="cls-4" x1="400.35" y1="444.87" x2="400.92" y2="444.3"/><line class="cls-4" x1="401.82" y1="443.4" x2="401.82" y2="443.4"/><line class="cls-4" x1="402.72" y1="442.5" x2="405.41" y2="439.81"/><line class="cls-4" x1="406.31" y1="438.91" x2="406.31" y2="438.91"/><line class="cls-4" x1="407.21" y1="438.01" x2="409.9" y2="435.32"/><line class="cls-4" x1="410.8" y1="434.42" x2="410.8" y2="434.42"/><line class="cls-4" x1="411.7" y1="433.52" x2="413.05" y2="432.17"/><line class="cls-4" x1="400.35" y1="437.69" x2="401.82" y2="436.22"/><line class="cls-4" x1="402.72" y1="435.32" x2="402.72" y2="435.32"/><line class="cls-4" x1="403.61" y1="434.42" x2="406.31" y2="431.73"/><line class="cls-4" x1="407.21" y1="430.83" x2="407.21" y2="430.83"/><line class="cls-4" x1="408.11" y1="429.93" x2="410.8" y2="427.24"/><line class="cls-4" x1="411.7" y1="426.34" x2="411.7" y2="426.34"/><line class="cls-4" x1="412.59" y1="425.44" x2="413.05" y2="424.99"/><line class="cls-4" x1="400.35" y1="430.5" x2="402.72" y2="428.13"/><line class="cls-4" x1="403.61" y1="427.24" x2="403.61" y2="427.24"/><line class="cls-4" x1="404.51" y1="426.34" x2="407.21" y2="423.64"/><line class="cls-4" x1="408.11" y1="422.75" x2="408.11" y2="422.75"/><line class="cls-4" x1="409" y1="421.85" x2="410.4" y2="420.45"/><line class="cls-4" x1="400.92" y1="422.75" x2="403.22" y2="420.45"/><line class="cls-4" x1="400.35" y1="483.94" x2="413.05" y2="483.94"/><line class="cls-4" x1="413.05" y1="483.94" x2="413.05" y2="420.45"/><line class="cls-4" x1="413.05" y1="420.45" x2="400.35" y2="420.45"/><line class="cls-4" x1="400.35" y1="420.45" x2="400.35" y2="483.94"/><line class="cls-4" x1="409.52" y1="195.07" x2="413.05" y2="191.54"/><line class="cls-4" x1="402.34" y1="195.07" x2="413.05" y2="184.36"/><line class="cls-4" x1="400.35" y1="189.88" x2="413.05" y2="177.18"/><line class="cls-4" x1="400.35" y1="182.69" x2="413.05" y2="170"/><line class="cls-4" x1="400.35" y1="175.51" x2="413.05" y2="162.81"/><line class="cls-4" x1="400.35" y1="168.33" x2="413.05" y2="155.63"/><line class="cls-4" x1="400.35" y1="161.15" x2="413.05" y2="148.45"/><line class="cls-4" x1="400.35" y1="153.96" x2="413.05" y2="141.26"/><line class="cls-4" x1="400.35" y1="146.78" x2="413.05" y2="134.08"/><line class="cls-4" x1="400.35" y1="139.6" x2="408.37" y2="131.58"/><line class="cls-4" x1="400.35" y1="132.41" x2="401.19" y2="131.58"/><line class="cls-4" x1="406.31" y1="194.69" x2="409" y2="192"/><line class="cls-4" x1="409.9" y1="191.1" x2="409.9" y2="191.1"/><line class="cls-4" x1="410.8" y1="190.2" x2="413.05" y2="187.95"/><line class="cls-4" x1="400.35" y1="193.47" x2="400.92" y2="192.9"/><line class="cls-4" x1="401.82" y1="192" x2="401.82" y2="192"/><line class="cls-4" x1="402.72" y1="191.1" x2="405.41" y2="188.41"/><line class="cls-4" x1="406.31" y1="187.51" x2="406.31" y2="187.51"/><line class="cls-4" x1="407.21" y1="186.61" x2="409.9" y2="183.92"/><line class="cls-4" x1="410.8" y1="183.02" x2="410.8" y2="183.02"/><line class="cls-4" x1="411.7" y1="182.12" x2="413.05" y2="180.77"/><line class="cls-4" x1="400.35" y1="186.29" x2="401.82" y2="184.82"/><line class="cls-4" x1="402.72" y1="183.92" x2="402.72" y2="183.92"/><line class="cls-4" x1="403.61" y1="183.02" x2="406.31" y2="180.33"/><line class="cls-4" x1="407.21" y1="179.43" x2="407.21" y2="179.43"/><line class="cls-4" x1="408.11" y1="178.53" x2="410.8" y2="175.84"/><line class="cls-4" x1="411.7" y1="174.94" x2="411.7" y2="174.94"/><line class="cls-4" x1="412.59" y1="174.04" x2="413.05" y2="173.59"/><line class="cls-4" x1="400.35" y1="179.1" x2="402.72" y2="176.73"/><line class="cls-4" x1="403.61" y1="175.84" x2="403.61" y2="175.84"/><line class="cls-4" x1="404.51" y1="174.94" x2="407.21" y2="172.25"/><line class="cls-4" x1="408.11" y1="171.35" x2="408.11" y2="171.35"/><line class="cls-4" x1="409" y1="170.45" x2="411.7" y2="167.76"/><line class="cls-4" x1="412.59" y1="166.86" x2="412.59" y2="166.86"/><line class="cls-4" x1="400.92" y1="171.35" x2="403.61" y2="168.65"/><line class="cls-4" x1="404.51" y1="167.76" x2="404.51" y2="167.76"/><line class="cls-4" x1="405.41" y1="166.86" x2="408.11" y2="164.16"/><line class="cls-4" x1="409" y1="163.27" x2="409" y2="163.27"/><line class="cls-4" x1="409.9" y1="162.37" x2="412.59" y2="159.68"/><line class="cls-4" x1="400.92" y1="164.16" x2="400.92" y2="164.16"/><line class="cls-4" x1="401.82" y1="163.27" x2="404.51" y2="160.57"/><line class="cls-4" x1="405.41" y1="159.68" x2="405.41" y2="159.68"/><line class="cls-4" x1="406.31" y1="158.78" x2="409" y2="156.08"/><line class="cls-4" x1="409.9" y1="155.19" x2="409.9" y2="155.19"/><line class="cls-4" x1="410.8" y1="154.29" x2="413.05" y2="152.04"/><line class="cls-4" x1="400.35" y1="157.55" x2="400.92" y2="156.98"/><line class="cls-4" x1="401.82" y1="156.08" x2="401.82" y2="156.08"/><line class="cls-4" x1="402.72" y1="155.19" x2="405.41" y2="152.49"/><line class="cls-4" x1="406.31" y1="151.59" x2="406.31" y2="151.59"/><line class="cls-4" x1="407.21" y1="150.7" x2="409.9" y2="148"/><line class="cls-4" x1="410.8" y1="147.11" x2="410.8" y2="147.11"/><line class="cls-4" x1="411.7" y1="146.21" x2="413.05" y2="144.86"/><line class="cls-4" x1="400.35" y1="150.37" x2="401.82" y2="148.9"/><line class="cls-4" x1="402.72" y1="148" x2="402.72" y2="148"/><line class="cls-4" x1="403.61" y1="147.11" x2="406.31" y2="144.41"/><line class="cls-4" x1="407.21" y1="143.51" x2="407.21" y2="143.51"/><line class="cls-4" x1="408.11" y1="142.62" x2="410.8" y2="139.92"/><line class="cls-4" x1="411.7" y1="139.02" x2="411.7" y2="139.02"/><line class="cls-4" x1="412.59" y1="138.13" x2="413.05" y2="137.67"/><line class="cls-4" x1="400.35" y1="143.19" x2="402.72" y2="140.82"/><line class="cls-4" x1="403.61" y1="139.92" x2="403.61" y2="139.92"/><line class="cls-4" x1="404.51" y1="139.02" x2="407.21" y2="136.33"/><line class="cls-4" x1="408.11" y1="135.43" x2="408.11" y2="135.43"/><line class="cls-4" x1="409" y1="134.54" x2="411.7" y2="131.84"/><line class="cls-4" x1="400.92" y1="135.43" x2="403.61" y2="132.74"/><line class="cls-4" x1="404.51" y1="131.84" x2="404.51" y2="131.84"/><line class="cls-4" x1="400.35" y1="131.58" x2="400.35" y2="195.07"/><line class="cls-4" x1="400.35" y1="195.07" x2="413.05" y2="195.07"/><line class="cls-4" x1="413.05" y1="195.07" x2="413.05" y2="124.6"/><line class="cls-4" x1="201.22" y1="195.07" x2="206.71" y2="189.58"/><line class="cls-4" x1="194.03" y1="195.08" x2="206.71" y2="182.4"/><line class="cls-4" x1="194.01" y1="187.91" x2="206.71" y2="175.21"/><line class="cls-4" x1="194.01" y1="180.73" x2="206.71" y2="168.03"/><line class="cls-4" x1="194.01" y1="173.54" x2="206.71" y2="160.85"/><line class="cls-4" x1="194.01" y1="166.36" x2="206.71" y2="153.66"/><line class="cls-4" x1="194.01" y1="159.18" x2="206.71" y2="146.48"/><line class="cls-4" x1="194.01" y1="152" x2="206.71" y2="139.3"/><line class="cls-4" x1="194.01" y1="144.81" x2="206.71" y2="132.12"/><line class="cls-4" x1="194.01" y1="137.63" x2="200.06" y2="131.58"/><line class="cls-4" x1="204.81" y1="195.07" x2="205.19" y2="194.69"/><line class="cls-4" x1="206.09" y1="193.79" x2="206.09" y2="193.79"/><line class="cls-4" x1="198" y1="194.69" x2="198" y2="194.69"/><line class="cls-4" x1="198.9" y1="193.79" x2="201.6" y2="191.1"/><line class="cls-4" x1="202.5" y1="190.2" x2="202.5" y2="190.2"/><line class="cls-4" x1="203.39" y1="189.3" x2="206.09" y2="186.61"/><line class="cls-4" x1="194.41" y1="191.1" x2="194.41" y2="191.1"/><line class="cls-4" x1="195.31" y1="190.2" x2="198" y2="187.51"/><line class="cls-4" x1="198.9" y1="186.61" x2="198.9" y2="186.61"/><line class="cls-4" x1="199.8" y1="185.71" x2="202.5" y2="183.02"/><line class="cls-4" x1="203.39" y1="182.12" x2="203.39" y2="182.12"/><line class="cls-4" x1="204.29" y1="181.22" x2="206.71" y2="178.8"/><line class="cls-4" x1="194.01" y1="184.32" x2="194.41" y2="183.92"/><line class="cls-4" x1="195.31" y1="183.02" x2="195.31" y2="183.02"/><line class="cls-4" x1="196.21" y1="182.12" x2="198.9" y2="179.43"/><line class="cls-4" x1="199.8" y1="178.53" x2="199.8" y2="178.53"/><line class="cls-4" x1="200.7" y1="177.63" x2="203.39" y2="174.94"/><line class="cls-4" x1="204.29" y1="174.04" x2="204.29" y2="174.04"/><line class="cls-4" x1="205.19" y1="173.14" x2="206.71" y2="171.62"/><line class="cls-4" x1="194.01" y1="177.14" x2="195.31" y2="175.84"/><line class="cls-4" x1="196.21" y1="174.94" x2="196.21" y2="174.94"/><line class="cls-4" x1="197.11" y1="174.04" x2="199.8" y2="171.35"/><line class="cls-4" x1="200.7" y1="170.45" x2="200.7" y2="170.45"/><line class="cls-4" x1="201.6" y1="169.55" x2="204.29" y2="166.86"/><line class="cls-4" x1="205.19" y1="165.96" x2="205.19" y2="165.96"/><line class="cls-4" x1="206.09" y1="165.06" x2="206.71" y2="164.44"/><line class="cls-4" x1="194.01" y1="169.95" x2="196.21" y2="167.76"/><line class="cls-4" x1="197.11" y1="166.86" x2="197.11" y2="166.86"/><line class="cls-4" x1="198" y1="165.96" x2="200.7" y2="163.27"/><line class="cls-4" x1="201.6" y1="162.37" x2="201.6" y2="162.37"/><line class="cls-4" x1="202.5" y1="161.47" x2="205.19" y2="158.78"/><line class="cls-4" x1="206.09" y1="157.88" x2="206.09" y2="157.88"/><line class="cls-4" x1="194.41" y1="162.37" x2="197.11" y2="159.68"/><line class="cls-4" x1="198" y1="158.78" x2="198" y2="158.78"/><line class="cls-4" x1="198.9" y1="157.88" x2="201.6" y2="155.19"/><line class="cls-4" x1="202.5" y1="154.29" x2="202.5" y2="154.29"/><line class="cls-4" x1="203.39" y1="153.39" x2="206.09" y2="150.7"/><line class="cls-4" x1="194.41" y1="155.19" x2="194.41" y2="155.19"/><line class="cls-4" x1="195.31" y1="154.29" x2="198" y2="151.59"/><line class="cls-4" x1="198.9" y1="150.7" x2="198.9" y2="150.7"/><line class="cls-4" x1="199.8" y1="149.8" x2="202.5" y2="147.11"/><line class="cls-4" x1="203.39" y1="146.21" x2="203.39" y2="146.21"/><line class="cls-4" x1="204.29" y1="145.31" x2="206.71" y2="142.89"/><line class="cls-4" x1="194.01" y1="148.4" x2="194.41" y2="148"/><line class="cls-4" x1="195.31" y1="147.11" x2="195.31" y2="147.11"/><line class="cls-4" x1="196.21" y1="146.21" x2="198.9" y2="143.51"/><line class="cls-4" x1="199.8" y1="142.62" x2="199.8" y2="142.62"/><line class="cls-4" x1="200.7" y1="141.72" x2="203.39" y2="139.02"/><line class="cls-4" x1="204.29" y1="138.13" x2="204.29" y2="138.13"/><line class="cls-4" x1="205.19" y1="137.23" x2="206.71" y2="135.71"/><line class="cls-4" x1="194.01" y1="141.22" x2="195.31" y2="139.92"/><line class="cls-4" x1="196.21" y1="139.02" x2="196.21" y2="139.02"/><line class="cls-4" x1="197.11" y1="138.13" x2="199.8" y2="135.43"/><line class="cls-4" x1="200.7" y1="134.54" x2="200.7" y2="134.54"/><line class="cls-4" x1="201.6" y1="133.64" x2="203.65" y2="131.58"/><line class="cls-4" x1="194.01" y1="134.04" x2="196.21" y2="131.84"/><line class="cls-4" x1="194.01" y1="131.58" x2="194.01" y2="195.07"/><line class="cls-4" x1="194.01" y1="195.07" x2="206.71" y2="195.07"/><line class="cls-4" x1="206.71" y1="195.07" x2="206.71" y2="131.58"/><line class="cls-4" x1="179.6" y1="604.56" x2="181.31" y2="602.85"/><line class="cls-4" x1="172.42" y1="604.56" x2="181.31" y2="595.67"/><line class="cls-4" x1="165.23" y1="604.56" x2="177.93" y2="591.87"/><line class="cls-4" x1="158.05" y1="604.56" x2="170.75" y2="591.87"/><line class="cls-4" x1="150.87" y1="604.56" x2="163.57" y2="591.87"/><line class="cls-4" x1="143.68" y1="604.56" x2="156.38" y2="591.87"/><line class="cls-4" x1="136.5" y1="604.56" x2="149.2" y2="591.87"/><line class="cls-4" x1="129.32" y1="604.56" x2="142.02" y2="591.87"/><line class="cls-4" x1="122.14" y1="604.56" x2="134.83" y2="591.87"/><line class="cls-4" x1="117.83" y1="601.69" x2="127.65" y2="591.87"/><line class="cls-4" x1="117.83" y1="594.51" x2="120.47" y2="591.87"/><line class="cls-4" x1="176.46" y1="604.12" x2="176.46" y2="604.12"/><line class="cls-4" x1="177.35" y1="603.22" x2="180.05" y2="600.52"/><line class="cls-4" x1="180.95" y1="599.62" x2="180.95" y2="599.62"/><line class="cls-4" x1="169.27" y1="604.12" x2="171.97" y2="601.42"/><line class="cls-4" x1="172.87" y1="600.52" x2="172.87" y2="600.52"/><line class="cls-4" x1="173.76" y1="599.62" x2="176.46" y2="596.93"/><line class="cls-4" x1="177.35" y1="596.03" x2="177.35" y2="596.03"/><line class="cls-4" x1="178.25" y1="595.14" x2="180.95" y2="592.44"/><line class="cls-4" x1="161.64" y1="604.56" x2="163.89" y2="602.32"/><line class="cls-4" x1="164.78" y1="601.42" x2="164.78" y2="601.42"/><line class="cls-4" x1="165.68" y1="600.52" x2="168.38" y2="597.83"/><line class="cls-4" x1="169.27" y1="596.93" x2="169.27" y2="596.93"/><line class="cls-4" x1="170.17" y1="596.03" x2="172.87" y2="593.34"/><line class="cls-4" x1="173.76" y1="592.44" x2="173.76" y2="592.44"/><line class="cls-4" x1="154.46" y1="604.56" x2="155.81" y2="603.22"/><line class="cls-4" x1="156.71" y1="602.32" x2="156.71" y2="602.32"/><line class="cls-4" x1="157.6" y1="601.42" x2="160.3" y2="598.73"/><line class="cls-4" x1="161.19" y1="597.83" x2="161.19" y2="597.83"/><line class="cls-4" x1="162.09" y1="596.93" x2="164.78" y2="594.24"/><line class="cls-4" x1="165.68" y1="593.34" x2="165.68" y2="593.34"/><line class="cls-4" x1="166.58" y1="592.44" x2="167.16" y2="591.87"/><line class="cls-4" x1="147.28" y1="604.56" x2="147.72" y2="604.12"/><line class="cls-4" x1="148.62" y1="603.22" x2="148.62" y2="603.22"/><line class="cls-4" x1="149.52" y1="602.32" x2="152.21" y2="599.62"/><line class="cls-4" x1="153.11" y1="598.73" x2="153.11" y2="598.73"/><line class="cls-4" x1="154.01" y1="597.83" x2="156.71" y2="595.14"/><line class="cls-4" x1="157.6" y1="594.24" x2="157.6" y2="594.24"/><line class="cls-4" x1="158.5" y1="593.34" x2="159.97" y2="591.87"/><line class="cls-4" x1="140.54" y1="604.12" x2="140.54" y2="604.12"/><line class="cls-4" x1="141.44" y1="603.22" x2="144.13" y2="600.52"/><line class="cls-4" x1="145.03" y1="599.62" x2="145.03" y2="599.62"/><line class="cls-4" x1="145.93" y1="598.73" x2="148.62" y2="596.03"/><line class="cls-4" x1="149.52" y1="595.14" x2="149.52" y2="595.14"/><line class="cls-4" x1="150.42" y1="594.24" x2="152.79" y2="591.87"/><line class="cls-4" x1="133.36" y1="604.12" x2="136.05" y2="601.42"/><line class="cls-4" x1="136.95" y1="600.52" x2="136.95" y2="600.52"/><line class="cls-4" x1="137.85" y1="599.62" x2="140.54" y2="596.93"/><line class="cls-4" x1="141.44" y1="596.03" x2="141.44" y2="596.03"/><line class="cls-4" x1="142.34" y1="595.14" x2="145.03" y2="592.44"/><line class="cls-4" x1="125.73" y1="604.56" x2="127.97" y2="602.32"/><line class="cls-4" x1="128.87" y1="601.42" x2="128.87" y2="601.42"/><line class="cls-4" x1="129.77" y1="600.52" x2="132.46" y2="597.83"/><line class="cls-4" x1="133.36" y1="596.93" x2="133.36" y2="596.93"/><line class="cls-4" x1="134.26" y1="596.03" x2="136.95" y2="593.34"/><line class="cls-4" x1="137.85" y1="592.44" x2="137.85" y2="592.44"/><line class="cls-4" x1="118.55" y1="604.56" x2="119.89" y2="603.22"/><line class="cls-4" x1="120.79" y1="602.32" x2="120.79" y2="602.32"/><line class="cls-4" x1="121.69" y1="601.42" x2="124.38" y2="598.73"/><line class="cls-4" x1="125.28" y1="597.83" x2="125.28" y2="597.83"/><line class="cls-4" x1="126.18" y1="596.93" x2="128.87" y2="594.24"/><line class="cls-4" x1="129.77" y1="593.34" x2="129.77" y2="593.34"/><line class="cls-4" x1="130.67" y1="592.44" x2="131.24" y2="591.87"/><line class="cls-4" x1="118.09" y1="597.83" x2="120.79" y2="595.14"/><line class="cls-4" x1="121.69" y1="594.24" x2="121.69" y2="594.24"/><line class="cls-4" x1="122.59" y1="593.34" x2="124.06" y2="591.87"/><line class="cls-4" x1="181.31" y1="604.56" x2="181.31" y2="591.87"/><line class="cls-4" x1="181.31" y1="591.87" x2="117.83" y2="591.87"/><line class="cls-4" x1="117.83" y1="591.87" x2="117.83" y2="604.56"/><line class="cls-4" x1="117.83" y1="604.56" x2="181.31" y2="604.56"/><path class="cls-4" d="M172.7,555a50.79,50.79,0,0,0-50.79-50.79h0" transform="translate(0 -28.36)"/><line class="cls-4" x1="121.91" y1="526.61" x2="172.7" y2="526.61"/><path class="cls-4" d="M191.7,390.53a58.42,58.42,0,0,0-58.42,58.41h0" transform="translate(0 -28.36)"/><line class="cls-4" x1="191.7" y1="420.59" x2="191.7" y2="362.17"/><path class="cls-4" d="M267.94,448.66a58.43,58.43,0,0,0-58.42,58.42h0" transform="translate(0 -28.36)"/><line class="cls-4" x1="267.94" y1="478.73" x2="267.94" y2="420.31"/><path class="cls-4" d="M327.37,538a50.6,50.6,0,0,1-50.6,50.61h0" transform="translate(0 -28.36)"/><line class="cls-4" x1="276.77" y1="509.6" x2="327.37" y2="509.6"/></svg>