<svg id="_43" data-name="43" xmlns="http://www.w3.org/2000/svg" viewBox="0 0 665.86 912.69"><defs><style>.cls-1{font-size:12px;}.cls-1,.cls-3{fill:#808184;}.cls-1,.cls-5,.cls-6{font-family:PTSans-Regular, PT Sans;}.cls-2,.cls-4{fill:none;stroke-linecap:round;stroke-linejoin:round;stroke-width:0.75px;}.cls-2{stroke:#808184;}.cls-4{stroke:#000;}.cls-5,.cls-6{isolation:isolate;}.cls-5{font-size:24px;}.cls-6{font-size:22px;}.cls-7{letter-spacing:-0.05em;}.cls-8{letter-spacing:-0.11em;}.cls-9{letter-spacing:0em;}</style></defs><title>1floor_43flat</title><text class="cls-1" transform="translate(10.2 496.07) rotate(-90)">двор | парк</text><line class="cls-2" x1="1.8" y1="504.24" x2="12.24" y2="504.24"/><path class="cls-3" d="M35.27,507.84a.38.38,0,0,0-.12-.52l-4.84-3.08,4.84-3.08a.38.38,0,0,0,.12-.52.38.38,0,0,0-.52-.11l-5.34,3.39a.39.39,0,0,0,0,.64l5.34,3.4a.46.46,0,0,0,.2.05A.37.37,0,0,0,35.27,507.84Z" transform="translate(-28.34)"/><text class="cls-1" transform="translate(310.55 909.75)">парк</text><line class="cls-2" x1="302.38" y1="900.45" x2="302.38" y2="910.89"/><path class="cls-3" d="M327.12,905.76a.38.38,0,0,1,.52.12l3.08,4.84,3.08-4.84a.37.37,0,0,1,.52-.12.38.38,0,0,1,.11.52l-3.4,5.34a.37.37,0,0,1-.31.17.4.4,0,0,1-.32-.17l-3.4-5.34a.36.36,0,0,1-.06-.2A.4.4,0,0,1,327.12,905.76Z" transform="translate(-28.34)"/><path class="cls-4" d="M688.46,740.4H240.94V11.12H84.6V681.28A174.69,174.69,0,0,0,259.3,856.42H688.46" transform="translate(-28.34)"/><line class="cls-4" x1="454.95" y1="629.31" x2="454.95" y2="599.74"/><line class="cls-4" x1="454.95" y1="599.74" x2="481.81" y2="599.74"/><line class="cls-4" x1="481.81" y1="599.74" x2="481.81" y2="629.31"/><line class="cls-4" x1="481.81" y1="629.31" x2="454.95" y2="629.31"/><line class="cls-4" x1="450.91" y1="630.65" x2="450.91" y2="598.4"/><line class="cls-4" x1="483.17" y1="630.65" x2="483.17" y2="598.4"/><line class="cls-4" x1="457.64" y1="626.62" x2="457.64" y2="602.43"/><line class="cls-4" x1="457.64" y1="602.43" x2="476.44" y2="602.43"/><line class="cls-4" x1="476.44" y1="602.43" x2="476.44" y2="626.62"/><line class="cls-4" x1="476.44" y1="626.62" x2="457.64" y2="626.62"/><path class="cls-4" d="M497.62,615c-.45,0-.45,0-.45-.45s0-.44.45-.44" transform="translate(-28.34)"/><line class="cls-4" x1="469.28" y1="614.09" x2="479.58" y2="614.09"/><path class="cls-4" d="M507.92,614.09c.44,0,.44,0,.44.44s0,.45-.44.45" transform="translate(-28.34)"/><line class="cls-4" x1="479.58" y1="614.98" x2="469.28" y2="614.98"/><line class="cls-4" x1="476.9" y1="615.42" x2="476.9" y2="614.98"/><line class="cls-4" x1="476.9" y1="614.98" x2="479.58" y2="614.98"/><path class="cls-4" d="M507.92,614.09c.44,0,.44,0,.44.44s0,.45-.44.45" transform="translate(-28.34)"/><line class="cls-4" x1="479.58" y1="614.09" x2="476.9" y2="614.09"/><line class="cls-4" x1="476.9" y1="614.09" x2="476.9" y2="613.18"/><line class="cls-4" x1="476.9" y1="613.18" x2="480.47" y2="613.18"/><line class="cls-4" x1="480.47" y1="613.18" x2="480.47" y2="615.42"/><line class="cls-4" x1="480.47" y1="615.42" x2="476.9" y2="615.42"/><line class="cls-4" x1="475.1" y1="615.42" x2="475.1" y2="614.98"/><line class="cls-4" x1="475.1" y1="614.98" x2="476.9" y2="614.98"/><line class="cls-4" x1="476.9" y1="614.98" x2="476.9" y2="615.42"/><line class="cls-4" x1="476.9" y1="615.42" x2="475.1" y2="615.42"/><line class="cls-4" x1="475.1" y1="613.18" x2="476.9" y2="613.18"/><line class="cls-4" x1="476.9" y1="613.18" x2="476.9" y2="614.09"/><line class="cls-4" x1="476.9" y1="614.09" x2="475.1" y2="614.09"/><line class="cls-4" x1="475.1" y1="614.09" x2="475.1" y2="613.18"/><line class="cls-4" x1="480.03" y1="646.33" x2="480.03" y2="677.69"/><line class="cls-4" x1="480.03" y1="677.69" x2="454.05" y2="677.69"/><line class="cls-4" x1="454.05" y1="677.69" x2="454.05" y2="646.33"/><line class="cls-4" x1="454.05" y1="646.33" x2="480.03" y2="646.33"/><path class="cls-4" d="M488.21,657.53a4,4,0,1,1,4-4,4,4,0,0,1-4,4" transform="translate(-28.34)"/><path class="cls-4" d="M500.76,660.66a5.82,5.82,0,1,1,5.82-5.82c-.45,3.59-2.69,5.82-5.82,5.82" transform="translate(-28.34)"/><path class="cls-4" d="M489.1,674.55a4.92,4.92,0,1,1,4.93-4.91,5,5,0,0,1-4.93,4.91" transform="translate(-28.34)"/><path class="cls-4" d="M501.65,674.55a4,4,0,1,1,4-4c-.45,2.68-2.25,4-4,4" transform="translate(-28.34)"/><line class="cls-4" x1="483.17" y1="645.88" x2="483.17" y2="678.14"/><line class="cls-4" x1="450.91" y1="645.88" x2="450.91" y2="678.14"/><rect class="cls-4" x="488.54" y="11.12" width="144.69" height="80.64"/><line class="cls-4" x1="488.54" y1="91.76" x2="633.23" y2="11.12"/><line class="cls-4" x1="633.23" y1="91.76" x2="488.54" y2="11.12"/><line class="cls-4" x1="450.91" y1="687.1" x2="450.91" y2="654.84"/><line class="cls-4" x1="450.91" y1="687.1" x2="483.17" y2="687.1"/><line class="cls-4" x1="450.91" y1="654.84" x2="450.91" y2="556.29"/><line class="cls-4" x1="450.91" y1="687.1" x2="450.91" y2="724.28"/><line class="cls-4" x1="665.49" y1="386.52" x2="665.49" y2="348.89"/><line class="cls-4" x1="665.49" y1="314.84" x2="665.49" y2="344.41"/><line class="cls-4" x1="583.06" y1="300.96" x2="583.06" y2="289.75"/><line class="cls-4" x1="583.06" y1="289.75" x2="583.06" y2="288.41"/><line class="cls-4" x1="583.06" y1="288.41" x2="582.61" y2="286.62"/><line class="cls-4" x1="582.61" y1="286.62" x2="581.72" y2="285.27"/><line class="cls-4" x1="581.72" y1="285.27" x2="580.82" y2="283.93"/><line class="cls-4" x1="580.82" y1="283.93" x2="579.92" y2="283.04"/><line class="cls-4" x1="579.92" y1="283.04" x2="578.58" y2="282.15"/><line class="cls-4" x1="578.58" y1="282.15" x2="575.45" y2="280.34"/><line class="cls-4" x1="575.45" y1="280.34" x2="571.86" y2="279.45"/><line class="cls-4" x1="571.86" y1="279.45" x2="568.28" y2="279.45"/><line class="cls-4" x1="568.28" y1="279.45" x2="564.69" y2="279.45"/><line class="cls-4" x1="564.69" y1="279.45" x2="561.56" y2="280.34"/><line class="cls-4" x1="561.56" y1="280.34" x2="558.42" y2="282.15"/><line class="cls-4" x1="558.42" y1="282.15" x2="557.08" y2="283.04"/><line class="cls-4" x1="557.08" y1="283.04" x2="555.73" y2="283.93"/><line class="cls-4" x1="555.73" y1="283.93" x2="554.84" y2="285.27"/><line class="cls-4" x1="554.84" y1="285.27" x2="553.94" y2="286.62"/><line class="cls-4" x1="553.94" y1="286.62" x2="553.94" y2="288.41"/><line class="cls-4" x1="553.94" y1="288.41" x2="553.5" y2="289.75"/><line class="cls-4" x1="553.5" y1="289.75" x2="553.5" y2="300.96"/><line class="cls-4" x1="553.5" y1="300.96" x2="583.06" y2="300.96"/><line class="cls-4" x1="562.46" y1="296.48" x2="574.1" y2="296.48"/><line class="cls-4" x1="556.64" y1="291.99" x2="556.64" y2="289.75"/><line class="cls-4" x1="579.92" y1="291.99" x2="579.92" y2="289.75"/><path class="cls-4" d="M605.13,284.82a16.66,16.66,0,0,0-17,0" transform="translate(-28.34)"/><path class="cls-4" d="M588.1,284.82a6.08,6.08,0,0,0-3.12,4.93" transform="translate(-28.34)"/><path class="cls-4" d="M585,292c0,2.24,2.67,4.49,5.82,4.49" transform="translate(-28.34)"/><path class="cls-4" d="M608.27,289.75a5.54,5.54,0,0,0-3.13-4.93" transform="translate(-28.34)"/><path class="cls-4" d="M602.45,296.48c3.13,0,5.82-1.8,5.82-4.49" transform="translate(-28.34)"/><line class="cls-4" x1="569.62" y1="298.26" x2="569.62" y2="296.03"/><line class="cls-4" x1="569.62" y1="296.03" x2="569.62" y2="295.59"/><line class="cls-4" x1="569.17" y1="295.59" x2="569.17" y2="295.59"/><line class="cls-4" x1="569.17" y1="295.59" x2="568.73" y2="292.89"/><path class="cls-4" d="M597.07,292.89a.45.45,0,0,0-.9,0" transform="translate(-28.34)"/><line class="cls-4" x1="567.83" y1="292.89" x2="567.83" y2="292.89"/><line class="cls-4" x1="567.83" y1="292.89" x2="567.38" y2="295.59"/><line class="cls-4" x1="567.38" y1="295.59" x2="567.38" y2="296.03"/><line class="cls-4" x1="567.38" y1="296.03" x2="567.38" y2="296.03"/><line class="cls-4" x1="567.38" y1="296.03" x2="566.94" y2="298.26"/><path class="cls-4" d="M595.28,298.26a1.34,1.34,0,1,0,2.68,0" transform="translate(-28.34)"/><line class="cls-4" x1="569.62" y1="298.26" x2="569.62" y2="298.26"/><line class="cls-4" x1="567.38" y1="296.92" x2="567.38" y2="296.03"/><line class="cls-4" x1="569.17" y1="296.03" x2="569.17" y2="296.92"/><line class="cls-4" x1="569.17" y1="296.92" x2="567.38" y2="296.92"/><path class="cls-4" d="M597.51,296a.89.89,0,0,0-1.78,0" transform="translate(-28.34)"/><path class="cls-4" d="M597.51,295.59a1.62,1.62,0,0,0-1.34-.45.44.44,0,0,0-.45.45" transform="translate(-28.34)"/><line class="cls-4" x1="547.66" y1="236.45" x2="654.73" y2="236.45"/><line class="cls-4" x1="654.73" y1="236.45" x2="654.73" y2="198.82"/><line class="cls-4" x1="654.73" y1="198.82" x2="547.66" y2="198.82"/><line class="cls-4" x1="547.66" y1="198.82" x2="547.66" y2="236.45"/><line class="cls-4" x1="560.21" y1="201.96" x2="558.42" y2="201.96"/><line class="cls-4" x1="558.42" y1="201.96" x2="557.08" y2="202.41"/><line class="cls-4" x1="557.08" y1="202.41" x2="555.73" y2="202.85"/><line class="cls-4" x1="555.73" y1="202.85" x2="554.39" y2="203.75"/><line class="cls-4" x1="554.39" y1="203.75" x2="553.05" y2="204.64"/><line class="cls-4" x1="553.05" y1="204.64" x2="552.15" y2="205.54"/><line class="cls-4" x1="552.15" y1="205.54" x2="551.71" y2="206.87"/><line class="cls-4" x1="551.71" y1="206.87" x2="551.26" y2="208.22"/><line class="cls-4" x1="551.26" y1="208.22" x2="551.26" y2="209.57"/><line class="cls-4" x1="551.26" y1="209.57" x2="551.26" y2="226.15"/><line class="cls-4" x1="551.26" y1="226.15" x2="551.26" y2="227.49"/><line class="cls-4" x1="551.26" y1="227.49" x2="551.71" y2="228.38"/><line class="cls-4" x1="551.71" y1="228.38" x2="552.15" y2="229.72"/><line class="cls-4" x1="552.15" y1="229.72" x2="553.05" y2="230.63"/><line class="cls-4" x1="553.05" y1="230.63" x2="554.39" y2="231.52"/><line class="cls-4" x1="554.39" y1="231.52" x2="555.73" y2="232.42"/><line class="cls-4" x1="555.73" y1="232.42" x2="557.08" y2="232.86"/><line class="cls-4" x1="557.08" y1="232.86" x2="558.42" y2="233.31"/><line class="cls-4" x1="558.42" y1="233.31" x2="560.21" y2="233.31"/><line class="cls-4" x1="560.21" y1="233.31" x2="632.34" y2="233.31"/><line class="cls-4" x1="632.34" y1="233.31" x2="635.47" y2="233.31"/><line class="cls-4" x1="635.47" y1="233.31" x2="639.05" y2="232.42"/><line class="cls-4" x1="639.05" y1="232.42" x2="641.75" y2="231.52"/><line class="cls-4" x1="641.75" y1="231.52" x2="644.43" y2="229.72"/><line class="cls-4" x1="644.43" y1="229.72" x2="646.67" y2="227.93"/><line class="cls-4" x1="646.67" y1="227.93" x2="648.47" y2="225.7"/><line class="cls-4" x1="648.47" y1="225.7" x2="650.26" y2="223.01"/><line class="cls-4" x1="650.26" y1="223.01" x2="650.71" y2="220.33"/><line class="cls-4" x1="650.71" y1="220.33" x2="651.15" y2="217.63"/><line class="cls-4" x1="651.15" y1="217.63" x2="650.71" y2="214.94"/><line class="cls-4" x1="650.71" y1="214.94" x2="650.26" y2="212.26"/><line class="cls-4" x1="650.26" y1="212.26" x2="648.47" y2="210.01"/><line class="cls-4" x1="648.47" y1="210.01" x2="646.67" y2="207.78"/><line class="cls-4" x1="646.67" y1="207.78" x2="644.43" y2="205.54"/><line class="cls-4" x1="644.43" y1="205.54" x2="641.75" y2="204.19"/><line class="cls-4" x1="641.75" y1="204.19" x2="639.05" y2="202.85"/><line class="cls-4" x1="639.05" y1="202.85" x2="635.47" y2="202.41"/><line class="cls-4" x1="635.47" y1="202.41" x2="632.34" y2="201.96"/><line class="cls-4" x1="632.34" y1="201.96" x2="560.21" y2="201.96"/><line class="cls-4" x1="549.46" y1="218.98" x2="551.71" y2="218.98"/><line class="cls-4" x1="551.71" y1="218.98" x2="552.15" y2="218.98"/><line class="cls-4" x1="552.6" y1="218.53" x2="552.6" y2="218.53"/><line class="cls-4" x1="552.6" y1="218.53" x2="555.29" y2="218.53"/><path class="cls-4" d="M583.63,218.53a.44.44,0,0,0,.44-.45.43.43,0,0,0-.44-.44" transform="translate(-28.34)"/><line class="cls-4" x1="555.29" y1="217.19" x2="555.29" y2="217.19"/><line class="cls-4" x1="555.29" y1="217.19" x2="552.6" y2="216.74"/><line class="cls-4" x1="552.6" y1="216.74" x2="552.16" y2="216.74"/><line class="cls-4" x1="551.71" y1="216.74" x2="551.71" y2="216.74"/><line class="cls-4" x1="551.71" y1="216.74" x2="549.46" y2="216.28"/><path class="cls-4" d="M577.8,216.28a1.35,1.35,0,0,0,0,2.7" transform="translate(-28.34)"/><line class="cls-4" x1="549.46" y1="218.98" x2="549.46" y2="218.98"/><line class="cls-4" x1="550.8" y1="217.19" x2="551.71" y2="217.19"/><line class="cls-4" x1="551.71" y1="218.53" x2="550.8" y2="218.53"/><line class="cls-4" x1="550.8" y1="218.53" x2="550.8" y2="217.19"/><path class="cls-4" d="M580.05,218.53a.9.9,0,0,0,0-1.79" transform="translate(-28.34)"/><path class="cls-4" d="M580.94,218.53a1.63,1.63,0,0,0,.45-1.34.44.44,0,0,0-.45-.45" transform="translate(-28.34)"/><line class="cls-4" x1="587.54" y1="306.33" x2="587.54" y2="317.08"/><line class="cls-4" x1="587.54" y1="317.08" x2="587.98" y2="318.88"/><line class="cls-4" x1="587.98" y1="318.88" x2="587.98" y2="320.21"/><line class="cls-4" x1="587.98" y1="320.21" x2="588.88" y2="321.56"/><line class="cls-4" x1="588.88" y1="321.56" x2="589.78" y2="322.91"/><line class="cls-4" x1="589.78" y1="322.91" x2="591.12" y2="324.25"/><line class="cls-4" x1="591.12" y1="324.25" x2="592.47" y2="325.15"/><line class="cls-4" x1="592.47" y1="325.15" x2="595.6" y2="326.48"/><line class="cls-4" x1="595.6" y1="326.48" x2="598.75" y2="327.38"/><line class="cls-4" x1="598.75" y1="327.38" x2="602.32" y2="327.84"/><line class="cls-4" x1="602.32" y1="327.84" x2="605.91" y2="327.38"/><line class="cls-4" x1="605.91" y1="327.38" x2="609.04" y2="326.48"/><line class="cls-4" x1="609.04" y1="326.48" x2="612.63" y2="325.15"/><line class="cls-4" x1="612.63" y1="325.15" x2="613.97" y2="324.25"/><line class="cls-4" x1="613.97" y1="324.25" x2="614.86" y2="322.91"/><line class="cls-4" x1="614.86" y1="322.91" x2="615.76" y2="321.56"/><line class="cls-4" x1="615.76" y1="321.56" x2="616.67" y2="320.21"/><line class="cls-4" x1="616.67" y1="320.21" x2="617.11" y2="318.88"/><line class="cls-4" x1="617.11" y1="318.88" x2="617.11" y2="317.08"/><line class="cls-4" x1="617.11" y1="317.08" x2="617.11" y2="306.33"/><line class="cls-4" x1="617.11" y1="306.33" x2="587.54" y2="306.33"/><line class="cls-4" x1="608.14" y1="310.35" x2="596.5" y2="310.35"/><line class="cls-4" x1="613.97" y1="314.84" x2="613.97" y2="317.08"/><line class="cls-4" x1="590.68" y1="314.84" x2="590.68" y2="317.08"/><path class="cls-4" d="M622.16,322a16.54,16.54,0,0,0,17,0" transform="translate(-28.34)"/><path class="cls-4" d="M639.17,322a6,6,0,0,0,3.14-4.92" transform="translate(-28.34)"/><path class="cls-4" d="M642.31,314.84c0-2.24-2.69-4.49-5.83-4.49" transform="translate(-28.34)"/><path class="cls-4" d="M619,317.08a5.5,5.5,0,0,0,3.13,4.92" transform="translate(-28.34)"/><path class="cls-4" d="M624.84,310.35c-3.13,0-5.82,1.8-5.82,4.49" transform="translate(-28.34)"/><line class="cls-4" x1="600.98" y1="308.56" x2="601.42" y2="310.81"/><line class="cls-4" x1="601.42" y1="310.81" x2="601.42" y2="311.26"/><line class="cls-4" x1="601.42" y1="311.26" x2="601.42" y2="311.26"/><line class="cls-4" x1="601.42" y1="311.26" x2="601.87" y2="314.4"/><path class="cls-4" d="M630.21,314.4a.44.44,0,0,0,.45.44.43.43,0,0,0,.44-.44" transform="translate(-28.34)"/><line class="cls-4" x1="602.78" y1="314.4" x2="602.78" y2="314.4"/><line class="cls-4" x1="602.78" y1="314.4" x2="603.21" y2="311.26"/><line class="cls-4" x1="603.21" y1="311.26" x2="603.21" y2="310.82"/><line class="cls-4" x1="603.67" y1="310.81" x2="603.67" y2="310.81"/><line class="cls-4" x1="603.67" y1="310.81" x2="603.67" y2="308.56"/><path class="cls-4" d="M632,308.56a1.35,1.35,0,0,0-2.7,0" transform="translate(-28.34)"/><line class="cls-4" x1="600.98" y1="308.56" x2="600.98" y2="308.56"/><line class="cls-4" x1="603.21" y1="309.92" x2="603.21" y2="310.81"/><line class="cls-4" x1="601.42" y1="310.81" x2="601.42" y2="309.92"/><line class="cls-4" x1="601.42" y1="309.92" x2="603.21" y2="309.92"/><path class="cls-4" d="M629.76,310.81a.9.9,0,0,0,1.79,0" transform="translate(-28.34)"/><path class="cls-4" d="M629.76,311.26c.45.45.9.89,1.36.45a.43.43,0,0,0,.43-.45" transform="translate(-28.34)"/><line class="cls-4" x1="547.66" y1="311.71" x2="547.66" y2="402.65"/><line class="cls-4" x1="547.66" y1="402.65" x2="584.86" y2="402.65"/><line class="cls-4" x1="584.86" y1="402.65" x2="584.86" y2="311.71"/><line class="cls-4" x1="584.86" y1="311.71" x2="547.66" y2="311.71"/><line class="cls-4" x1="582.16" y1="322" x2="582.16" y2="320.67"/><line class="cls-4" x1="582.16" y1="320.67" x2="581.72" y2="319.77"/><line class="cls-4" x1="581.72" y1="319.77" x2="581.27" y2="318.42"/><line class="cls-4" x1="581.27" y1="318.42" x2="580.38" y2="317.08"/><line class="cls-4" x1="580.38" y1="317.08" x2="579.48" y2="316.19"/><line class="cls-4" x1="579.48" y1="316.19" x2="578.13" y2="315.74"/><line class="cls-4" x1="578.13" y1="315.74" x2="577.24" y2="314.84"/><line class="cls-4" x1="577.24" y1="314.84" x2="575.9" y2="314.84"/><line class="cls-4" x1="575.9" y1="314.84" x2="574.54" y2="314.4"/><line class="cls-4" x1="574.54" y1="314.4" x2="557.97" y2="314.4"/><line class="cls-4" x1="557.97" y1="314.4" x2="556.64" y2="314.84"/><line class="cls-4" x1="556.64" y1="314.84" x2="555.29" y2="314.84"/><line class="cls-4" x1="555.29" y1="314.84" x2="554.39" y2="315.74"/><line class="cls-4" x1="554.39" y1="315.74" x2="553.05" y2="316.19"/><line class="cls-4" x1="553.05" y1="316.19" x2="552.15" y2="317.08"/><line class="cls-4" x1="552.15" y1="317.08" x2="551.71" y2="318.42"/><line class="cls-4" x1="551.71" y1="318.42" x2="550.8" y2="319.77"/><line class="cls-4" x1="550.8" y1="319.77" x2="550.8" y2="320.67"/><line class="cls-4" x1="550.8" y1="320.67" x2="550.36" y2="322"/><line class="cls-4" x1="550.36" y1="322" x2="550.36" y2="383.82"/><line class="cls-4" x1="550.36" y1="383.82" x2="550.8" y2="386.52"/><line class="cls-4" x1="550.8" y1="386.52" x2="551.26" y2="389.21"/><line class="cls-4" x1="551.26" y1="389.21" x2="552.6" y2="391.89"/><line class="cls-4" x1="552.6" y1="391.89" x2="554.39" y2="394.14"/><line class="cls-4" x1="554.39" y1="394.14" x2="556.19" y2="395.93"/><line class="cls-4" x1="556.19" y1="395.93" x2="558.42" y2="397.71"/><line class="cls-4" x1="558.42" y1="397.71" x2="561.1" y2="398.6"/><line class="cls-4" x1="561.1" y1="398.6" x2="563.35" y2="399.51"/><line class="cls-4" x1="563.35" y1="399.51" x2="566.49" y2="399.51"/><line class="cls-4" x1="566.49" y1="399.51" x2="569.17" y2="399.51"/><line class="cls-4" x1="569.17" y1="399.51" x2="571.86" y2="398.6"/><line class="cls-4" x1="571.86" y1="398.6" x2="574.1" y2="397.71"/><line class="cls-4" x1="574.1" y1="397.71" x2="576.34" y2="395.93"/><line class="cls-4" x1="576.34" y1="395.93" x2="578.58" y2="394.14"/><line class="cls-4" x1="578.58" y1="394.14" x2="579.92" y2="391.89"/><line class="cls-4" x1="579.92" y1="391.89" x2="581.27" y2="389.21"/><line class="cls-4" x1="581.27" y1="389.21" x2="581.72" y2="386.52"/><line class="cls-4" x1="581.72" y1="386.52" x2="582.16" y2="383.82"/><line class="cls-4" x1="582.16" y1="383.82" x2="582.16" y2="322"/><line class="cls-4" x1="565.15" y1="313.49" x2="565.15" y2="315.74"/><line class="cls-4" x1="565.15" y1="315.74" x2="565.15" y2="316.19"/><line class="cls-4" x1="565.15" y1="316.63" x2="565.15" y2="316.63"/><line class="cls-4" x1="565.15" y1="316.63" x2="565.58" y2="319.31"/><path class="cls-4" d="M593.92,319.31a.46.46,0,1,0,.91,0" transform="translate(-28.34)"/><line class="cls-4" x1="566.94" y1="319.31" x2="566.94" y2="319.31"/><line class="cls-4" x1="566.94" y1="319.31" x2="567.38" y2="316.63"/><line class="cls-4" x1="567.38" y1="316.63" x2="567.38" y2="316.19"/><line class="cls-4" x1="567.38" y1="315.74" x2="567.38" y2="315.74"/><line class="cls-4" x1="567.38" y1="315.74" x2="567.83" y2="313.49"/><path class="cls-4" d="M596.17,313.49a1.35,1.35,0,0,0-2.7,0" transform="translate(-28.34)"/><line class="cls-4" x1="565.15" y1="313.49" x2="565.15" y2="313.49"/><line class="cls-4" x1="566.94" y1="314.84" x2="566.94" y2="315.74"/><line class="cls-4" x1="565.58" y1="315.74" x2="565.58" y2="314.84"/><line class="cls-4" x1="565.58" y1="314.84" x2="566.94" y2="314.84"/><path class="cls-4" d="M593.92,315.74a1,1,0,0,0,.91.89,1,1,0,0,0,.89-.89" transform="translate(-28.34)"/><path class="cls-4" d="M593.49,316.63c.43.45.89.9,1.34.45a.44.44,0,0,0,.45-.45" transform="translate(-28.34)"/><line class="cls-4" x1="665.49" y1="391.89" x2="665.49" y2="483.28"/><line class="cls-4" x1="230.96" y1="11.12" x2="633.23" y2="11.12"/><line class="cls-4" x1="633.23" y1="0.38" x2="230.96" y2="0.38"/><line class="cls-4" x1="633.23" y1="198.82" x2="654.73" y2="198.82"/><line class="cls-4" x1="665.49" y1="188.07" x2="643.98" y2="188.07"/><line class="cls-4" x1="639.5" y1="107.87" x2="643.98" y2="107.87"/><line class="cls-4" x1="633.23" y1="107.87" x2="639.5" y2="107.87"/><line class="cls-4" x1="639.5" y1="161.19" x2="643.98" y2="161.19"/><line class="cls-4" x1="633.23" y1="161.19" x2="639.5" y2="161.19"/><line class="cls-4" x1="633.23" y1="11.12" x2="633.23" y2="107.87"/><line class="cls-4" x1="633.23" y1="161.19" x2="633.23" y2="198.82"/><line class="cls-4" x1="643.98" y1="188.07" x2="643.98" y2="161.19"/><line class="cls-4" x1="643.98" y1="107.87" x2="643.98" y2="102.5"/><line class="cls-4" x1="643.98" y1="107.87" x2="643.98" y2="0.38"/><line class="cls-4" x1="639.5" y1="161.19" x2="639.5" y2="159.39"/><line class="cls-4" x1="639.5" y1="159.39" x2="635.47" y2="159.39"/><line class="cls-4" x1="635.47" y1="159.39" x2="635.47" y2="159.85"/><line class="cls-4" x1="635.47" y1="159.85" x2="633.23" y2="159.85"/><line class="cls-4" x1="633.23" y1="159.85" x2="633.23" y2="161.19"/><line class="cls-4" x1="633.23" y1="161.19" x2="639.5" y2="161.19"/><line class="cls-4" x1="633.23" y1="107.87" x2="633.23" y2="109.23"/><line class="cls-4" x1="633.23" y1="109.23" x2="635.47" y2="109.23"/><line class="cls-4" x1="635.47" y1="109.23" x2="635.47" y2="110.12"/><line class="cls-4" x1="635.47" y1="110.12" x2="639.5" y2="110.12"/><line class="cls-4" x1="639.5" y1="110.12" x2="639.5" y2="107.87"/><line class="cls-4" x1="639.5" y1="107.87" x2="633.23" y2="107.87"/><line class="cls-4" x1="633.23" y1="109.23" x2="589.34" y2="134.76"/><line class="cls-4" x1="589.34" y1="134.76" x2="590.68" y2="136.54"/><line class="cls-4" x1="590.68" y1="136.54" x2="634.58" y2="111.02"/><line class="cls-4" x1="634.58" y1="111.02" x2="633.23" y2="109.23"/><path class="cls-4" d="M619,136.54a50.3,50.3,0,0,0,42.55,23.31" transform="translate(-28.34)"/><line class="cls-4" x1="633.23" y1="161.19" x2="639.5" y2="161.19"/><line class="cls-4" x1="633.23" y1="107.87" x2="639.5" y2="107.87"/><line class="cls-4" x1="665.49" y1="721.6" x2="665.49" y2="198.82"/><line class="cls-4" x1="654.73" y1="198.82" x2="654.73" y2="721.6"/><line class="cls-4" x1="665.49" y1="267.81" x2="665.49" y2="273.18"/><line class="cls-4" x1="488.54" y1="488.65" x2="488.54" y2="483.28"/><line class="cls-4" x1="536.93" y1="488.65" x2="536.93" y2="483.28"/><line class="cls-4" x1="542.29" y1="483.28" x2="536.93" y2="483.28"/><line class="cls-4" x1="536.93" y1="488.65" x2="547.66" y2="488.65"/><line class="cls-4" x1="547.66" y1="488.65" x2="547.66" y2="483.28"/><line class="cls-4" x1="536.93" y1="482.37" x2="534.68" y2="482.37"/><line class="cls-4" x1="534.68" y1="482.37" x2="534.68" y2="488.65"/><line class="cls-4" x1="534.68" y1="488.65" x2="536.93" y2="488.65"/><line class="cls-4" x1="536.93" y1="488.65" x2="536.93" y2="482.37"/><line class="cls-4" x1="488.54" y1="488.65" x2="490.77" y2="488.65"/><line class="cls-4" x1="490.77" y1="488.65" x2="490.77" y2="482.37"/><line class="cls-4" x1="490.77" y1="482.37" x2="488.54" y2="482.37"/><line class="cls-4" x1="488.54" y1="482.37" x2="488.54" y2="488.65"/><line class="cls-4" x1="490.77" y1="488.65" x2="512.73" y2="526.73"/><path class="cls-4" d="M541.07,526.73A44.59,44.59,0,0,0,563,488.65" transform="translate(-28.34)"/><line class="cls-4" x1="536.93" y1="488.65" x2="536.93" y2="483.28"/><line class="cls-4" x1="488.54" y1="488.65" x2="488.54" y2="483.28"/><line class="cls-4" x1="542.29" y1="274.08" x2="547.66" y2="274.08"/><line class="cls-4" x1="542.29" y1="236.45" x2="547.66" y2="236.45"/><line class="cls-4" x1="542.29" y1="193.44" x2="542.29" y2="236.45"/><line class="cls-4" x1="542.29" y1="274.08" x2="542.29" y2="483.28"/><line class="cls-4" x1="547.66" y1="483.28" x2="547.66" y2="408.02"/><line class="cls-4" x1="547.66" y1="402.65" x2="547.66" y2="306.33"/><line class="cls-4" x1="547.66" y1="300.96" x2="547.66" y2="274.08"/><line class="cls-4" x1="547.66" y1="236.45" x2="547.66" y2="198.82"/><line class="cls-4" x1="548.12" y1="236.45" x2="548.12" y2="238.7"/><line class="cls-4" x1="548.12" y1="238.7" x2="542.29" y2="238.7"/><line class="cls-4" x1="542.29" y1="238.7" x2="542.29" y2="236.45"/><line class="cls-4" x1="542.29" y1="236.45" x2="548.12" y2="236.45"/><line class="cls-4" x1="542.29" y1="274.08" x2="542.29" y2="271.83"/><line class="cls-4" x1="542.29" y1="271.83" x2="548.12" y2="271.83"/><line class="cls-4" x1="548.12" y1="271.83" x2="548.12" y2="274.08"/><line class="cls-4" x1="548.12" y1="274.08" x2="542.29" y2="274.08"/><line class="cls-4" x1="542.29" y1="271.83" x2="513.18" y2="255.26"/><path class="cls-4" d="M541.53,255.26A33.08,33.08,0,0,1,570.2,238.7" transform="translate(-28.34)"/><line class="cls-4" x1="542.29" y1="236.45" x2="547.66" y2="236.45"/><line class="cls-4" x1="542.29" y1="274.08" x2="547.66" y2="274.08"/><line class="cls-4" x1="547.66" y1="306.33" x2="637.27" y2="306.33"/><line class="cls-4" x1="637.27" y1="300.96" x2="547.66" y2="300.96"/><line class="cls-4" x1="483.17" y1="171.94" x2="230.96" y2="171.94"/><line class="cls-4" x1="230.96" y1="171.94" x2="230.96" y2="177.32"/><line class="cls-4" x1="230.96" y1="177.32" x2="483.17" y2="177.32"/><line class="cls-4" x1="483.17" y1="429.52" x2="488.54" y2="429.52"/><line class="cls-4" x1="483.17" y1="477.9" x2="488.54" y2="477.9"/><line class="cls-4" x1="483.17" y1="327.84" x2="488.54" y2="327.84"/><line class="cls-4" x1="483.17" y1="279.45" x2="488.54" y2="279.45"/><line class="cls-4" x1="483.17" y1="182.69" x2="483.17" y2="188.07"/><line class="cls-4" x1="483.17" y1="214.94" x2="483.17" y2="279.45"/><line class="cls-4" x1="483.17" y1="327.84" x2="483.17" y2="391.89"/><line class="cls-4" x1="483.17" y1="397.26" x2="483.17" y2="402.65"/><line class="cls-4" x1="483.17" y1="477.9" x2="483.17" y2="516.43"/><line class="cls-4" x1="483.17" y1="516.43" x2="488.54" y2="516.43"/><line class="cls-4" x1="488.54" y1="516.43" x2="488.54" y2="477.9"/><line class="cls-4" x1="488.54" y1="429.52" x2="488.54" y2="327.84"/><line class="cls-4" x1="488.54" y1="279.45" x2="488.54" y2="182.69"/><line class="cls-4" x1="489.43" y1="477.9" x2="489.43" y2="475.66"/><line class="cls-4" x1="489.43" y1="475.66" x2="483.17" y2="475.66"/><line class="cls-4" x1="483.17" y1="475.66" x2="483.17" y2="477.9"/><line class="cls-4" x1="483.17" y1="477.9" x2="489.43" y2="477.9"/><line class="cls-4" x1="483.17" y1="429.52" x2="483.17" y2="431.75"/><line class="cls-4" x1="483.17" y1="431.75" x2="489.43" y2="431.75"/><line class="cls-4" x1="489.43" y1="431.75" x2="489.43" y2="429.52"/><line class="cls-4" x1="489.43" y1="429.52" x2="483.17" y2="429.52"/><line class="cls-4" x1="483.17" y1="431.75" x2="445.09" y2="453.7"/><path class="cls-4" d="M473.43,453.7a44.59,44.59,0,0,0,38.08,22" transform="translate(-28.34)"/><line class="cls-4" x1="483.17" y1="477.9" x2="488.54" y2="477.9"/><line class="cls-4" x1="483.17" y1="429.52" x2="488.54" y2="429.52"/><line class="cls-4" x1="489.43" y1="279.45" x2="489.43" y2="281.7"/><line class="cls-4" x1="489.43" y1="281.7" x2="483.17" y2="281.7"/><line class="cls-4" x1="483.17" y1="281.7" x2="483.17" y2="279.45"/><line class="cls-4" x1="483.17" y1="279.45" x2="489.43" y2="279.45"/><line class="cls-4" x1="483.17" y1="327.84" x2="483.17" y2="325.59"/><line class="cls-4" x1="483.17" y1="325.59" x2="489.43" y2="325.59"/><line class="cls-4" x1="489.43" y1="325.59" x2="489.43" y2="327.84"/><line class="cls-4" x1="489.43" y1="327.84" x2="483.17" y2="327.84"/><line class="cls-4" x1="483.17" y1="325.59" x2="445.09" y2="303.64"/><path class="cls-4" d="M473.43,303.64a44.56,44.56,0,0,1,38.08-21.95" transform="translate(-28.34)"/><line class="cls-4" x1="483.17" y1="279.45" x2="488.54" y2="279.45"/><line class="cls-4" x1="483.17" y1="327.84" x2="488.54" y2="327.84"/><line class="cls-4" x1="547.66" y1="198.82" x2="633.23" y2="198.82"/><line class="cls-4" x1="633.23" y1="198.82" x2="633.23" y2="193.44"/><line class="cls-4" x1="633.23" y1="193.44" x2="542.29" y2="193.44"/><line class="cls-4" x1="483.17" y1="166.56" x2="488.54" y2="166.56"/><line class="cls-4" x1="483.17" y1="118.64" x2="488.54" y2="118.64"/><line class="cls-4" x1="483.17" y1="11.12" x2="483.17" y2="118.64"/><line class="cls-4" x1="483.17" y1="166.56" x2="483.17" y2="171.94"/><line class="cls-4" x1="483.17" y1="177.32" x2="483.17" y2="188.07"/><line class="cls-4" x1="488.54" y1="214.94" x2="488.54" y2="166.56"/><line class="cls-4" x1="488.54" y1="118.64" x2="488.54" y2="11.12"/><line class="cls-4" x1="489.43" y1="118.64" x2="489.43" y2="120.87"/><line class="cls-4" x1="489.43" y1="120.87" x2="483.17" y2="120.87"/><line class="cls-4" x1="483.17" y1="120.87" x2="483.17" y2="118.64"/><line class="cls-4" x1="483.17" y1="118.64" x2="489.43" y2="118.64"/><line class="cls-4" x1="483.17" y1="166.56" x2="483.17" y2="164.76"/><line class="cls-4" x1="483.17" y1="164.76" x2="489.43" y2="164.76"/><line class="cls-4" x1="489.43" y1="164.76" x2="489.43" y2="166.56"/><line class="cls-4" x1="489.43" y1="166.56" x2="483.17" y2="166.56"/><line class="cls-4" x1="483.17" y1="164.76" x2="445.09" y2="142.82"/><path class="cls-4" d="M473.43,142.82a44.58,44.58,0,0,1,38.08-21.95" transform="translate(-28.34)"/><line class="cls-4" x1="483.17" y1="118.64" x2="488.54" y2="118.64"/><line class="cls-4" x1="483.17" y1="166.56" x2="488.54" y2="166.56"/><line class="cls-4" x1="483.17" y1="391.89" x2="230.96" y2="391.89"/><line class="cls-4" x1="230.96" y1="391.89" x2="230.96" y2="397.26"/><line class="cls-4" x1="230.96" y1="397.26" x2="483.17" y2="397.26"/><line class="cls-4" x1="665.49" y1="386.52" x2="665.49" y2="391.89"/><line class="cls-4" x1="584.86" y1="408.02" x2="584.86" y2="402.65"/><line class="cls-4" x1="622.47" y1="408.02" x2="622.47" y2="402.65"/><line class="cls-4" x1="547.66" y1="408.02" x2="584.86" y2="408.02"/><line class="cls-4" x1="622.47" y1="408.02" x2="654.73" y2="408.02"/><line class="cls-4" x1="654.73" y1="408.02" x2="654.73" y2="402.65"/><line class="cls-4" x1="654.73" y1="402.65" x2="622.47" y2="402.65"/><line class="cls-4" x1="584.86" y1="402.65" x2="547.66" y2="402.65"/><line class="cls-4" x1="622.47" y1="401.74" x2="620.24" y2="401.74"/><line class="cls-4" x1="620.24" y1="401.74" x2="620.24" y2="408.02"/><line class="cls-4" x1="620.24" y1="408.02" x2="622.47" y2="408.02"/><line class="cls-4" x1="622.47" y1="408.02" x2="622.47" y2="401.74"/><line class="cls-4" x1="584.86" y1="408.02" x2="587.09" y2="408.02"/><line class="cls-4" x1="587.09" y1="408.02" x2="587.09" y2="401.74"/><line class="cls-4" x1="587.09" y1="401.74" x2="584.86" y2="401.74"/><line class="cls-4" x1="584.86" y1="401.74" x2="584.86" y2="408.02"/><line class="cls-4" x1="587.09" y1="408.02" x2="603.67" y2="436.69"/><path class="cls-4" d="M632,436.69A33.11,33.11,0,0,0,648.58,408" transform="translate(-28.34)"/><line class="cls-4" x1="622.47" y1="408.02" x2="622.47" y2="402.65"/><line class="cls-4" x1="584.86" y1="408.02" x2="584.86" y2="402.65"/><line class="cls-4" x1="483.17" y1="556.29" x2="483.17" y2="577.35"/><line class="cls-4" x1="483.17" y1="578.69" x2="483.17" y2="721.6"/><line class="cls-4" x1="483.17" y1="721.6" x2="488.54" y2="721.6"/><line class="cls-4" x1="488.54" y1="721.6" x2="488.54" y2="697.84"/><line class="cls-4" x1="488.54" y1="670.97" x2="488.54" y2="556.29"/><line class="cls-4" x1="488.54" y1="556.29" x2="483.17" y2="556.29"/><line class="cls-4" x1="665.49" y1="304.98" x2="665.49" y2="306.33"/><line class="cls-4" x1="654.73" y1="304.98" x2="638.61" y2="304.98"/><line class="cls-4" x1="637.27" y1="306.33" x2="654.73" y2="306.33"/><line class="cls-4" x1="654.73" y1="306.33" x2="654.73" y2="304.98"/><line class="cls-4" x1="638.61" y1="273.18" x2="654.73" y2="273.18"/><line class="cls-4" x1="654.73" y1="273.18" x2="654.73" y2="271.83"/><line class="cls-4" x1="654.73" y1="271.83" x2="637.27" y2="271.83"/><line class="cls-4" x1="637.27" y1="271.83" x2="637.27" y2="300.96"/><line class="cls-4" x1="638.61" y1="304.98" x2="638.61" y2="273.18"/><line class="cls-4" x1="461.21" y1="556.29" x2="461.21" y2="578.69"/><line class="cls-4" x1="462.55" y1="577.35" x2="462.55" y2="556.29"/><line class="cls-4" x1="462.55" y1="556.29" x2="461.21" y2="556.29"/><line class="cls-4" x1="461.21" y1="578.69" x2="483.17" y2="578.69"/><line class="cls-4" x1="483.17" y1="577.35" x2="462.55" y2="577.35"/><line class="cls-4" x1="455.39" y1="549.58" x2="455.39" y2="522.69"/><line class="cls-4" x1="448.68" y1="516.43" x2="448.68" y2="556.29"/><line class="cls-4" x1="455.39" y1="522.69" x2="482.27" y2="522.69"/><line class="cls-4" x1="488.54" y1="516.43" x2="448.68" y2="516.43"/><line class="cls-4" x1="482.27" y1="522.69" x2="482.27" y2="549.58"/><line class="cls-4" x1="488.54" y1="556.29" x2="488.54" y2="516.43"/><line class="cls-4" x1="482.27" y1="549.58" x2="455.39" y2="549.58"/><line class="cls-4" x1="448.68" y1="556.29" x2="488.54" y2="556.29"/><line class="cls-4" x1="660.12" y1="745.78" x2="660.12" y2="859.56"/><line class="cls-4" x1="660.12" y1="859.56" x2="665.49" y2="859.56"/><line class="cls-4" x1="665.49" y1="859.56" x2="665.49" y2="703.68"/><line class="cls-4" x1="599.63" y1="293.34" x2="599.63" y2="276.31"/><line class="cls-4" x1="598.75" y1="300.96" x2="618.9" y2="300.96"/><line class="cls-4" x1="598.75" y1="300.96" x2="598.75" y2="294.68"/><line class="cls-4" x1="609.04" y1="290.65" x2="616.2" y2="290.65"/><line class="cls-4" x1="599.63" y1="276.31" x2="601.42" y2="290.65"/><line class="cls-4" x1="609.04" y1="290.65" x2="601.42" y2="290.65"/><line class="cls-4" x1="618.45" y1="276.31" x2="616.2" y2="290.65"/><line class="cls-4" x1="600.08" y1="276.31" x2="601.87" y2="290.65"/><line class="cls-4" x1="617.56" y1="276.31" x2="615.76" y2="290.65"/><line class="cls-4" x1="618.45" y1="293.34" x2="618.45" y2="276.31"/><line class="cls-4" x1="618.9" y1="300.96" x2="618.9" y2="294.68"/><path class="cls-4" d="M646.34,293.34a125.15,125.15,0,0,0-18.37,0" transform="translate(-28.34)"/><path class="cls-4" d="M645.9,276.31c0-4-4-7.61-9-7.61s-9,3.13-9,7.61" transform="translate(-28.34)"/><path class="cls-4" d="M628,293.34a1,1,0,0,0-.88.89" transform="translate(-28.34)"/><path class="cls-4" d="M646.79,276.31c0-4.48-4-8.06-9.41-8.06s-9.41,3.58-9.41,8.06" transform="translate(-28.34)"/><path class="cls-4" d="M647.24,294.68a1,1,0,0,0-.89-.89" transform="translate(-28.34)"/><line class="cls-4" x1="645.78" y1="313.49" x2="645.78" y2="330.52"/><line class="cls-4" x1="646.67" y1="306.33" x2="626.07" y2="306.33"/><line class="cls-4" x1="646.67" y1="306.33" x2="646.67" y2="312.6"/><line class="cls-4" x1="636.37" y1="316.63" x2="628.75" y2="316.63"/><line class="cls-4" x1="645.78" y1="330.52" x2="643.98" y2="316.63"/><line class="cls-4" x1="636.37" y1="316.63" x2="643.98" y2="316.63"/><line class="cls-4" x1="626.97" y1="330.52" x2="628.75" y2="316.63"/><line class="cls-4" x1="645.33" y1="330.52" x2="643.53" y2="316.63"/><line class="cls-4" x1="627.41" y1="330.52" x2="629.2" y2="316.63"/><line class="cls-4" x1="626.97" y1="313.49" x2="626.97" y2="330.52"/><line class="cls-4" x1="626.07" y1="306.33" x2="626.07" y2="312.6"/><path class="cls-4" d="M655.31,313.49a125,125,0,0,0,18.36,0" transform="translate(-28.34)"/><path class="cls-4" d="M655.75,330.52c0,4,4,7.62,9,7.62s9-3.14,9-7.62" transform="translate(-28.34)"/><path class="cls-4" d="M673.67,313.49a1,1,0,0,0,.89-.89" transform="translate(-28.34)"/><path class="cls-4" d="M655.31,330.52c0,4.48,4,7.62,9.4,7.62s9.41-3.59,9.41-7.62" transform="translate(-28.34)"/><path class="cls-4" d="M654.41,312.6a1,1,0,0,0,.9.89" transform="translate(-28.34)"/><line class="cls-4" x1="660.12" y1="856.42" x2="230.96" y2="856.42"/><line class="cls-4" x1="230.96" y1="872.11" x2="660.12" y2="872.11"/><path class="cls-4" d="M68.93,681.72A190.23,190.23,0,0,0,259.31,872.11" transform="translate(-28.34)"/><path class="cls-4" d="M84.6,681.72a174.62,174.62,0,0,0,174.7,174.7" transform="translate(-28.34)"/><line class="cls-4" x1="56.26" y1="681.72" x2="56.26" y2="15.6"/><line class="cls-4" x1="40.59" y1="11.12" x2="40.59" y2="681.72"/><line class="cls-4" x1="56.26" y1="15.6" x2="207.22" y2="15.6"/><rect class="cls-4" x="57.16" y="641.86" width="2.23" height="39.88"/><rect class="cls-4" x="57.16" y="641.86" width="2.23" height="39.88"/><line class="cls-4" x1="57.6" y1="641.86" x2="59.39" y2="641.86"/><line class="cls-4" x1="59.39" y1="641.86" x2="59.39" y2="681.72"/><line class="cls-4" x1="59.39" y1="681.72" x2="57.6" y2="681.72"/><line class="cls-4" x1="57.6" y1="681.72" x2="57.6" y2="641.86"/><line class="cls-4" x1="58.49" y1="641.86" x2="58.49" y2="681.72"/><polygon class="cls-4" points="57.17 681.36 59.39 681.16 62.41 713.27 60.18 713.48 57.17 681.36"/><polygon class="cls-4" points="57.17 681.36 59.39 681.16 62.41 713.27 60.18 713.48 57.17 681.36"/><line class="cls-4" x1="57.6" y1="681.72" x2="59.39" y2="681.28"/><line class="cls-4" x1="59.39" y1="681.28" x2="62.53" y2="713.53"/><line class="cls-4" x1="62.53" y1="713.53" x2="60.29" y2="713.53"/><line class="cls-4" x1="60.29" y1="713.53" x2="57.6" y2="681.72"/><line class="cls-4" x1="58.49" y1="681.28" x2="61.63" y2="713.53"/><polygon class="cls-4" points="60.17 713.63 62.33 713.03 71.04 744.08 68.88 744.68 60.17 713.63"/><polygon class="cls-4" points="60.17 713.63 62.33 713.03 71.04 744.08 68.88 744.69 60.17 713.63"/><line class="cls-4" x1="60.29" y1="713.53" x2="62.53" y2="713.07"/><line class="cls-4" x1="62.53" y1="713.07" x2="71.48" y2="743.99"/><line class="cls-4" x1="71.48" y1="743.99" x2="69.25" y2="744.43"/><line class="cls-4" x1="69.25" y1="744.43" x2="60.29" y2="713.53"/><line class="cls-4" x1="61.63" y1="713.53" x2="70.15" y2="744.43"/><polygon class="cls-4" points="69.17 744.62 71.18 743.62 85.67 772.42 83.66 773.43 69.17 744.62"/><polygon class="cls-4" points="69.17 744.62 71.18 743.62 85.67 772.42 83.66 773.43 69.17 744.62"/><line class="cls-4" x1="69.25" y1="744.43" x2="71.04" y2="743.54"/><line class="cls-4" x1="71.04" y1="743.54" x2="85.37" y2="772.22"/><line class="cls-4" x1="85.37" y1="772.22" x2="83.57" y2="773.56"/><line class="cls-4" x1="83.57" y1="773.56" x2="69.25" y2="744.43"/><line class="cls-4" x1="70.15" y1="743.99" x2="84.48" y2="772.65"/><polygon class="cls-4" points="83.69 773.45 85.47 772.1 105.01 797.75 103.23 799.12 83.69 773.45"/><polygon class="cls-4" points="83.69 773.45 85.47 772.1 105.01 797.75 103.23 799.12 83.69 773.45"/><line class="cls-4" x1="83.57" y1="773.56" x2="85.37" y2="772.22"/><line class="cls-4" x1="85.37" y1="772.22" x2="104.64" y2="797.75"/><line class="cls-4" x1="104.64" y1="797.75" x2="102.85" y2="799.09"/><line class="cls-4" x1="102.85" y1="799.09" x2="83.57" y2="773.56"/><line class="cls-4" x1="84.48" y1="772.65" x2="103.74" y2="798.19"/><polygon class="cls-4" points="102.9 799.46 104.4 797.8 128.35 819.4 126.85 821.06 102.9 799.46"/><polygon class="cls-4" points="102.9 799.46 104.4 797.8 128.35 819.4 126.85 821.06 102.9 799.46"/><line class="cls-4" x1="102.85" y1="799.09" x2="104.64" y2="797.3"/><line class="cls-4" x1="104.64" y1="797.3" x2="128.37" y2="818.8"/><line class="cls-4" x1="128.37" y1="818.8" x2="127.04" y2="820.58"/><line class="cls-4" x1="127.04" y1="820.58" x2="102.85" y2="799.09"/><line class="cls-4" x1="103.74" y1="798.19" x2="127.49" y2="819.7"/><polygon class="cls-4" points="126.69 820.51 127.87 818.59 155.36 835.44 154.19 837.36 126.69 820.51"/><polygon class="cls-4" points="126.69 820.51 127.87 818.59 155.36 835.44 154.19 837.36 126.69 820.51"/><line class="cls-4" x1="127.04" y1="820.58" x2="127.93" y2="818.8"/><line class="cls-4" x1="127.93" y1="818.8" x2="155.26" y2="835.38"/><line class="cls-4" x1="155.26" y1="835.38" x2="154.37" y2="837.61"/><line class="cls-4" x1="154.37" y1="837.61" x2="127.04" y2="820.58"/><line class="cls-4" x1="127.49" y1="819.7" x2="154.81" y2="836.72"/><polygon class="cls-4" points="153.93 837.31 154.72 835.23 184.86 846.72 184.06 848.82 153.93 837.31"/><polygon class="cls-4" points="153.93 837.31 154.72 835.23 184.86 846.72 184.06 848.82 153.93 837.31"/><line class="cls-4" x1="154.37" y1="837.61" x2="155.26" y2="835.38"/><line class="cls-4" x1="155.26" y1="835.38" x2="185.26" y2="847.02"/><line class="cls-4" x1="185.26" y1="847.02" x2="184.37" y2="848.82"/><line class="cls-4" x1="184.37" y1="848.82" x2="154.37" y2="837.61"/><line class="cls-4" x1="154.81" y1="836.27" x2="184.82" y2="847.91"/><polygon class="cls-4" points="184.58 849.02 184.99 846.83 216.7 852.7 216.3 854.89 184.58 849.02"/><polygon class="cls-4" points="184.58 849.02 184.99 846.83 216.7 852.7 216.3 854.89 184.58 849.02"/><line class="cls-4" x1="184.37" y1="848.82" x2="184.82" y2="847.02"/><line class="cls-4" x1="184.82" y1="847.02" x2="216.18" y2="852.39"/><line class="cls-4" x1="216.18" y1="852.39" x2="216.18" y2="854.63"/><line class="cls-4" x1="216.18" y1="854.63" x2="184.37" y2="848.82"/><line class="cls-4" x1="184.37" y1="847.91" x2="216.18" y2="853.74"/><polygon class="cls-4" points="215.93 854.95 216.03 852.72 231.25 853.36 231.16 855.59 215.93 854.95"/><polygon class="cls-4" points="215.93 854.95 216.03 852.72 231.25 853.36 231.16 855.59 215.93 854.95"/><line class="cls-4" x1="216.18" y1="854.63" x2="216.18" y2="852.39"/><line class="cls-4" x1="216.18" y1="852.39" x2="231.41" y2="853.3"/><line class="cls-4" x1="231.41" y1="853.3" x2="230.96" y2="855.53"/><line class="cls-4" x1="230.96" y1="855.53" x2="216.18" y2="854.63"/><line class="cls-4" x1="216.18" y1="853.74" x2="231.41" y2="854.19"/><line class="cls-4" x1="660.12" y1="855.08" x2="660.12" y2="853.3"/><rect class="cls-4" x="617.11" y="853.3" width="43.01" height="2.23"/><rect class="cls-4" x="617.11" y="853.3" width="43.01" height="2.23"/><line class="cls-4" x1="660.12" y1="853.3" x2="660.12" y2="855.08"/><line class="cls-4" x1="660.12" y1="855.08" x2="617.11" y2="855.08"/><line class="cls-4" x1="617.11" y1="855.08" x2="617.11" y2="853.3"/><line class="cls-4" x1="617.11" y1="853.3" x2="660.12" y2="853.3"/><line class="cls-4" x1="660.12" y1="854.19" x2="617.11" y2="854.19"/><rect class="cls-4" x="552.6" y="853.3" width="64.51" height="2.23"/><rect class="cls-4" x="552.6" y="853.3" width="64.51" height="2.23"/><line class="cls-4" x1="617.11" y1="853.3" x2="617.11" y2="855.08"/><line class="cls-4" x1="617.11" y1="855.08" x2="553.05" y2="855.08"/><line class="cls-4" x1="553.05" y1="855.08" x2="553.05" y2="853.3"/><line class="cls-4" x1="553.05" y1="853.3" x2="617.11" y2="853.3"/><line class="cls-4" x1="617.11" y1="854.19" x2="553.05" y2="854.19"/><rect class="cls-4" x="488.54" y="853.3" width="64.51" height="2.23"/><rect class="cls-4" x="488.54" y="853.3" width="64.51" height="2.23"/><line class="cls-4" x1="553.05" y1="853.3" x2="553.05" y2="855.08"/><line class="cls-4" x1="553.05" y1="855.08" x2="488.54" y2="855.08"/><line class="cls-4" x1="488.54" y1="855.08" x2="488.54" y2="853.3"/><line class="cls-4" x1="488.54" y1="853.3" x2="553.05" y2="853.3"/><line class="cls-4" x1="553.05" y1="854.19" x2="488.54" y2="854.19"/><rect class="cls-4" x="424.03" y="853.3" width="64.51" height="2.23"/><rect class="cls-4" x="424.03" y="853.3" width="64.51" height="2.23"/><line class="cls-4" x1="488.54" y1="853.3" x2="488.54" y2="855.08"/><line class="cls-4" x1="488.54" y1="855.08" x2="424.03" y2="855.08"/><line class="cls-4" x1="424.03" y1="855.08" x2="424.03" y2="853.3"/><line class="cls-4" x1="424.03" y1="853.3" x2="488.54" y2="853.3"/><line class="cls-4" x1="488.54" y1="854.19" x2="424.03" y2="854.19"/><rect class="cls-4" x="359.54" y="853.3" width="64.5" height="2.23"/><rect class="cls-4" x="359.54" y="853.3" width="64.5" height="2.23"/><line class="cls-4" x1="424.03" y1="853.3" x2="424.03" y2="855.08"/><line class="cls-4" x1="424.03" y1="855.08" x2="359.98" y2="855.08"/><line class="cls-4" x1="359.98" y1="855.08" x2="359.98" y2="853.3"/><line class="cls-4" x1="359.98" y1="853.3" x2="424.03" y2="853.3"/><line class="cls-4" x1="424.03" y1="854.19" x2="359.98" y2="854.19"/><rect class="cls-4" x="295.47" y="853.3" width="64.51" height="2.23"/><rect class="cls-4" x="295.47" y="853.3" width="64.51" height="2.23"/><line class="cls-4" x1="359.98" y1="853.3" x2="359.98" y2="855.08"/><line class="cls-4" x1="359.98" y1="855.08" x2="295.47" y2="855.08"/><line class="cls-4" x1="295.47" y1="855.08" x2="295.47" y2="853.3"/><line class="cls-4" x1="295.47" y1="853.3" x2="359.98" y2="853.3"/><line class="cls-4" x1="359.98" y1="854.19" x2="295.47" y2="854.19"/><rect class="cls-4" x="230.97" y="853.3" width="64.5" height="2.23"/><rect class="cls-4" x="230.97" y="853.3" width="64.5" height="2.23"/><line class="cls-4" x1="295.47" y1="853.3" x2="295.47" y2="855.08"/><line class="cls-4" x1="295.47" y1="855.08" x2="230.96" y2="855.08"/><line class="cls-4" x1="230.96" y1="855.08" x2="230.96" y2="853.3"/><line class="cls-4" x1="230.96" y1="853.3" x2="295.47" y2="853.3"/><line class="cls-4" x1="295.47" y1="854.19" x2="230.96" y2="854.19"/><rect class="cls-4" x="57.16" y="577.35" width="2.23" height="64.51"/><rect class="cls-4" x="57.16" y="577.35" width="2.23" height="64.51"/><line class="cls-4" x1="57.6" y1="641.86" x2="59.39" y2="641.86"/><line class="cls-4" x1="59.39" y1="641.86" x2="59.39" y2="577.35"/><line class="cls-4" x1="59.39" y1="577.35" x2="57.6" y2="577.35"/><line class="cls-4" x1="57.6" y1="577.35" x2="57.6" y2="641.86"/><line class="cls-4" x1="58.49" y1="641.86" x2="58.49" y2="577.35"/><rect class="cls-4" x="57.16" y="513.29" width="2.23" height="64.51"/><rect class="cls-4" x="57.16" y="513.29" width="2.23" height="64.51"/><line class="cls-4" x1="57.6" y1="577.35" x2="59.39" y2="577.35"/><line class="cls-4" x1="59.39" y1="577.35" x2="59.39" y2="513.29"/><line class="cls-4" x1="59.39" y1="513.29" x2="57.6" y2="513.29"/><line class="cls-4" x1="57.6" y1="513.29" x2="57.6" y2="577.35"/><line class="cls-4" x1="58.49" y1="577.35" x2="58.49" y2="513.29"/><rect class="cls-4" x="57.16" y="448.78" width="2.23" height="64.51"/><rect class="cls-4" x="57.16" y="448.78" width="2.23" height="64.51"/><line class="cls-4" x1="57.6" y1="513.29" x2="59.39" y2="513.29"/><line class="cls-4" x1="59.39" y1="513.29" x2="59.39" y2="448.78"/><line class="cls-4" x1="59.39" y1="448.78" x2="57.6" y2="448.78"/><line class="cls-4" x1="57.6" y1="448.78" x2="57.6" y2="513.29"/><line class="cls-4" x1="58.49" y1="513.29" x2="58.49" y2="448.78"/><rect class="cls-4" x="57.16" y="384.73" width="2.23" height="64.51"/><rect class="cls-4" x="57.16" y="384.73" width="2.23" height="64.51"/><line class="cls-4" x1="57.6" y1="448.78" x2="59.39" y2="448.78"/><line class="cls-4" x1="59.39" y1="448.78" x2="59.39" y2="384.73"/><line class="cls-4" x1="59.39" y1="384.73" x2="57.6" y2="384.73"/><line class="cls-4" x1="57.6" y1="384.73" x2="57.6" y2="448.78"/><line class="cls-4" x1="58.49" y1="448.78" x2="58.49" y2="384.73"/><rect class="cls-4" x="57.16" y="320.21" width="2.23" height="64.51"/><rect class="cls-4" x="57.16" y="320.21" width="2.23" height="64.51"/><line class="cls-4" x1="57.6" y1="384.73" x2="59.39" y2="384.73"/><line class="cls-4" x1="59.39" y1="384.73" x2="59.39" y2="320.21"/><line class="cls-4" x1="59.39" y1="320.21" x2="57.6" y2="320.21"/><line class="cls-4" x1="57.6" y1="320.21" x2="57.6" y2="384.73"/><line class="cls-4" x1="58.49" y1="384.73" x2="58.49" y2="320.21"/><rect class="cls-4" x="57.16" y="255.71" width="2.23" height="64.5"/><rect class="cls-4" x="57.16" y="255.71" width="2.23" height="64.5"/><line class="cls-4" x1="57.6" y1="320.21" x2="59.39" y2="320.21"/><line class="cls-4" x1="59.39" y1="320.21" x2="59.39" y2="255.71"/><line class="cls-4" x1="59.39" y1="255.71" x2="57.6" y2="255.71"/><line class="cls-4" x1="57.6" y1="255.71" x2="57.6" y2="320.21"/><line class="cls-4" x1="58.49" y1="320.21" x2="58.49" y2="255.71"/><rect class="cls-4" x="57.16" y="191.64" width="2.23" height="64.51"/><rect class="cls-4" x="57.16" y="191.64" width="2.23" height="64.51"/><line class="cls-4" x1="57.6" y1="255.71" x2="59.39" y2="255.71"/><line class="cls-4" x1="59.39" y1="255.71" x2="59.39" y2="191.64"/><line class="cls-4" x1="59.39" y1="191.64" x2="57.6" y2="191.64"/><line class="cls-4" x1="57.6" y1="191.64" x2="57.6" y2="255.71"/><line class="cls-4" x1="58.49" y1="255.71" x2="58.49" y2="191.64"/><rect class="cls-4" x="57.16" y="127.15" width="2.23" height="64.5"/><rect class="cls-4" x="57.16" y="127.15" width="2.23" height="64.5"/><line class="cls-4" x1="57.6" y1="191.64" x2="59.39" y2="191.64"/><line class="cls-4" x1="59.39" y1="191.64" x2="59.39" y2="127.15"/><line class="cls-4" x1="59.39" y1="127.15" x2="57.6" y2="127.15"/><line class="cls-4" x1="57.6" y1="127.15" x2="57.6" y2="191.64"/><line class="cls-4" x1="58.49" y1="191.64" x2="58.49" y2="127.15"/><rect class="cls-4" x="57.16" y="62.64" width="2.23" height="64.51"/><rect class="cls-4" x="57.16" y="62.64" width="2.23" height="64.51"/><line class="cls-4" x1="57.6" y1="127.15" x2="59.39" y2="127.15"/><line class="cls-4" x1="59.39" y1="127.15" x2="59.39" y2="62.64"/><line class="cls-4" x1="59.39" y1="62.64" x2="57.6" y2="62.64"/><line class="cls-4" x1="57.6" y1="62.64" x2="57.6" y2="127.15"/><line class="cls-4" x1="58.49" y1="127.15" x2="58.49" y2="62.64"/><rect class="cls-4" x="57.16" y="16.5" width="2.23" height="46.14"/><rect class="cls-4" x="57.16" y="16.5" width="2.23" height="46.14"/><line class="cls-4" x1="57.6" y1="62.64" x2="59.39" y2="62.64"/><line class="cls-4" x1="59.39" y1="62.64" x2="59.39" y2="16.5"/><line class="cls-4" x1="59.39" y1="16.5" x2="57.6" y2="16.5"/><line class="cls-4" x1="57.6" y1="16.5" x2="57.6" y2="62.64"/><line class="cls-4" x1="58.49" y1="62.64" x2="58.49" y2="16.5"/><line class="cls-4" x1="504.21" y1="748.47" x2="483.61" y2="748.47"/><line class="cls-4" x1="504.21" y1="749.82" x2="483.61" y2="749.82"/><line class="cls-4" x1="504.21" y1="748.47" x2="504.21" y2="749.82"/><line class="cls-4" x1="483.61" y1="748.47" x2="483.61" y2="749.82"/><line class="cls-4" x1="480.92" y1="745.78" x2="483.61" y2="745.78"/><line class="cls-4" x1="504.21" y1="745.78" x2="506.91" y2="745.78"/><line class="cls-4" x1="504.21" y1="745.78" x2="483.61" y2="745.78"/><line class="cls-4" x1="480.92" y1="750.26" x2="483.61" y2="750.26"/><line class="cls-4" x1="504.21" y1="750.26" x2="506.91" y2="750.26"/><line class="cls-4" x1="504.21" y1="750.26" x2="483.61" y2="750.26"/><line class="cls-4" x1="506.91" y1="745.78" x2="506.91" y2="750.26"/><line class="cls-4" x1="480.92" y1="745.78" x2="480.92" y2="750.26"/><line class="cls-4" x1="504.21" y1="745.78" x2="504.21" y2="748.47"/><line class="cls-4" x1="504.21" y1="749.82" x2="504.21" y2="750.26"/><line class="cls-4" x1="483.61" y1="745.78" x2="483.61" y2="748.47"/><line class="cls-4" x1="483.61" y1="749.82" x2="483.61" y2="750.26"/><line class="cls-4" x1="632.34" y1="748.47" x2="611.74" y2="748.47"/><line class="cls-4" x1="632.34" y1="749.82" x2="611.74" y2="749.82"/><line class="cls-4" x1="632.34" y1="748.47" x2="632.34" y2="749.82"/><line class="cls-4" x1="611.74" y1="748.47" x2="611.74" y2="749.82"/><line class="cls-4" x1="609.04" y1="745.78" x2="611.74" y2="745.78"/><line class="cls-4" x1="632.34" y1="745.78" x2="635.02" y2="745.78"/><line class="cls-4" x1="632.34" y1="745.78" x2="611.74" y2="745.78"/><line class="cls-4" x1="609.04" y1="750.26" x2="611.74" y2="750.26"/><line class="cls-4" x1="632.34" y1="750.26" x2="635.02" y2="750.26"/><line class="cls-4" x1="632.34" y1="750.26" x2="611.74" y2="750.26"/><line class="cls-4" x1="635.02" y1="745.78" x2="635.02" y2="750.26"/><line class="cls-4" x1="609.04" y1="745.78" x2="609.04" y2="750.26"/><line class="cls-4" x1="632.34" y1="745.78" x2="632.34" y2="748.47"/><line class="cls-4" x1="632.34" y1="749.82" x2="632.34" y2="750.26"/><line class="cls-4" x1="611.74" y1="745.78" x2="611.74" y2="748.47"/><line class="cls-4" x1="611.74" y1="749.82" x2="611.74" y2="750.26"/><line class="cls-4" x1="204.53" y1="220.33" x2="204.53" y2="200.16"/><line class="cls-4" x1="203.19" y1="220.33" x2="203.19" y2="200.16"/><line class="cls-4" x1="204.53" y1="220.33" x2="203.19" y2="220.33"/><line class="cls-4" x1="204.53" y1="200.16" x2="203.19" y2="200.16"/><line class="cls-4" x1="207.22" y1="197.48" x2="207.22" y2="200.16"/><line class="cls-4" x1="207.22" y1="220.33" x2="207.22" y2="223.01"/><line class="cls-4" x1="207.22" y1="220.33" x2="207.22" y2="200.16"/><line class="cls-4" x1="202.74" y1="197.48" x2="202.74" y2="200.16"/><line class="cls-4" x1="202.74" y1="220.33" x2="202.74" y2="223.01"/><line class="cls-4" x1="202.74" y1="220.33" x2="202.74" y2="200.16"/><line class="cls-4" x1="207.22" y1="223.01" x2="202.74" y2="223.01"/><line class="cls-4" x1="207.22" y1="197.48" x2="202.74" y2="197.48"/><line class="cls-4" x1="207.22" y1="220.33" x2="204.53" y2="220.33"/><line class="cls-4" x1="203.19" y1="220.33" x2="202.74" y2="220.33"/><line class="cls-4" x1="207.22" y1="200.16" x2="204.53" y2="200.16"/><line class="cls-4" x1="203.19" y1="200.16" x2="202.74" y2="200.16"/><line class="cls-4" x1="204.53" y1="348.44" x2="204.53" y2="328.27"/><line class="cls-4" x1="203.19" y1="348.44" x2="203.19" y2="328.27"/><line class="cls-4" x1="204.53" y1="348.44" x2="203.19" y2="348.44"/><line class="cls-4" x1="204.53" y1="328.27" x2="203.19" y2="328.27"/><line class="cls-4" x1="207.22" y1="325.59" x2="207.22" y2="328.27"/><line class="cls-4" x1="207.22" y1="348.44" x2="207.22" y2="351.12"/><line class="cls-4" x1="207.22" y1="348.44" x2="207.22" y2="328.27"/><line class="cls-4" x1="202.74" y1="325.59" x2="202.74" y2="328.27"/><line class="cls-4" x1="202.74" y1="348.44" x2="202.74" y2="351.12"/><line class="cls-4" x1="202.74" y1="348.44" x2="202.74" y2="328.27"/><line class="cls-4" x1="207.22" y1="351.12" x2="202.74" y2="351.12"/><line class="cls-4" x1="207.22" y1="325.59" x2="202.74" y2="325.59"/><line class="cls-4" x1="207.22" y1="348.44" x2="204.53" y2="348.44"/><line class="cls-4" x1="203.19" y1="348.44" x2="202.74" y2="348.44"/><line class="cls-4" x1="207.22" y1="328.27" x2="204.53" y2="328.27"/><line class="cls-4" x1="203.19" y1="328.27" x2="202.74" y2="328.27"/><line class="cls-4" x1="654.73" y1="488.65" x2="622.47" y2="488.65"/><line class="cls-4" x1="622.47" y1="488.65" x2="622.47" y2="408.02"/><line class="cls-4" x1="622.47" y1="408.02" x2="654.73" y2="488.65"/><line class="cls-4" x1="622.47" y1="488.65" x2="654.73" y2="408.02"/><line class="cls-4" x1="547.66" y1="408.02" x2="579.48" y2="408.02"/><line class="cls-4" x1="579.48" y1="408.02" x2="579.48" y2="488.65"/><line class="cls-4" x1="579.48" y1="488.65" x2="547.66" y2="408.02"/><line class="cls-4" x1="579.48" y1="408.02" x2="547.66" y2="488.65"/><line class="cls-4" x1="547.66" y1="488.65" x2="579.48" y2="488.65"/><line class="cls-4" x1="622.47" y1="488.65" x2="654.73" y2="488.65"/><line class="cls-4" x1="212.15" y1="674.1" x2="220.21" y2="674.1"/><line class="cls-4" x1="220.21" y1="674.1" x2="230.96" y2="674.1"/><line class="cls-4" x1="223.79" y1="566.15" x2="230.96" y2="566.15"/><line class="cls-4" x1="212.15" y1="568.84" x2="220.21" y2="568.84"/><line class="cls-4" x1="208.11" y1="568.84" x2="212.15" y2="568.84"/><line class="cls-4" x1="207.22" y1="568.84" x2="208.11" y2="568.84"/><line class="cls-4" x1="220.21" y1="568.84" x2="220.21" y2="566.15"/><line class="cls-4" x1="220.21" y1="566.15" x2="223.79" y2="566.15"/><line class="cls-4" x1="223.79" y1="625.73" x2="230.96" y2="625.73"/><line class="cls-4" x1="212.15" y1="623.05" x2="220.21" y2="623.05"/><line class="cls-4" x1="208.11" y1="623.05" x2="212.15" y2="623.05"/><line class="cls-4" x1="207.22" y1="623.05" x2="208.11" y2="623.05"/><line class="cls-4" x1="220.21" y1="623.05" x2="220.21" y2="625.73"/><line class="cls-4" x1="220.21" y1="625.73" x2="223.79" y2="625.73"/><line class="cls-4" x1="223.79" y1="43.38" x2="230.96" y2="43.38"/><line class="cls-4" x1="212.15" y1="46.06" x2="220.21" y2="46.06"/><line class="cls-4" x1="208.11" y1="46.06" x2="212.15" y2="46.06"/><line class="cls-4" x1="207.22" y1="46.06" x2="208.11" y2="46.06"/><line class="cls-4" x1="220.21" y1="46.06" x2="220.21" y2="43.38"/><line class="cls-4" x1="220.21" y1="43.38" x2="223.79" y2="43.38"/><line class="cls-4" x1="223.79" y1="151.32" x2="230.96" y2="151.32"/><line class="cls-4" x1="212.15" y1="148.65" x2="220.21" y2="148.65"/><line class="cls-4" x1="208.11" y1="148.65" x2="212.15" y2="148.65"/><line class="cls-4" x1="207.22" y1="148.65" x2="208.11" y2="148.65"/><line class="cls-4" x1="220.21" y1="148.65" x2="220.21" y2="151.32"/><line class="cls-4" x1="220.21" y1="151.32" x2="223.79" y2="151.32"/><line class="cls-4" x1="223.79" y1="421.45" x2="230.96" y2="421.45"/><line class="cls-4" x1="212.15" y1="424.14" x2="220.21" y2="424.14"/><line class="cls-4" x1="208.11" y1="424.14" x2="212.15" y2="424.14"/><line class="cls-4" x1="207.22" y1="424.14" x2="208.11" y2="424.14"/><line class="cls-4" x1="220.21" y1="424.14" x2="220.21" y2="421.45"/><line class="cls-4" x1="220.21" y1="421.45" x2="223.79" y2="421.45"/><line class="cls-4" x1="223.79" y1="481.04" x2="230.96" y2="481.04"/><line class="cls-4" x1="212.15" y1="478.34" x2="220.21" y2="478.34"/><line class="cls-4" x1="208.11" y1="478.34" x2="212.15" y2="478.34"/><line class="cls-4" x1="207.22" y1="478.34" x2="208.11" y2="478.34"/><line class="cls-4" x1="220.21" y1="478.34" x2="220.21" y2="481.04"/><line class="cls-4" x1="220.21" y1="481.04" x2="223.79" y2="481.04"/><line class="cls-4" x1="224.25" y1="220.33" x2="230.96" y2="220.33"/><line class="cls-4" x1="220.21" y1="223.01" x2="221.11" y2="223.01"/><line class="cls-4" x1="212.15" y1="223.01" x2="220.21" y2="223.01"/><line class="cls-4" x1="208.11" y1="223.01" x2="212.15" y2="223.01"/><line class="cls-4" x1="207.22" y1="223.01" x2="208.11" y2="223.01"/><line class="cls-4" x1="221.11" y1="223.01" x2="221.11" y2="220.33"/><line class="cls-4" x1="221.11" y1="220.33" x2="224.25" y2="220.33"/><line class="cls-4" x1="224.25" y1="328.27" x2="230.96" y2="328.27"/><line class="cls-4" x1="220.21" y1="325.59" x2="221.11" y2="325.59"/><line class="cls-4" x1="212.15" y1="325.59" x2="220.21" y2="325.59"/><line class="cls-4" x1="208.11" y1="325.59" x2="212.15" y2="325.59"/><line class="cls-4" x1="207.22" y1="325.59" x2="208.11" y2="325.59"/><line class="cls-4" x1="221.11" y1="325.59" x2="221.11" y2="328.27"/><line class="cls-4" x1="221.11" y1="328.27" x2="224.25" y2="328.27"/><line class="cls-4" x1="230.96" y1="654.84" x2="230.96" y2="625.73"/><line class="cls-4" x1="230.96" y1="566.15" x2="230.96" y2="481.04"/><line class="cls-4" x1="230.96" y1="421.45" x2="230.96" y2="328.27"/><line class="cls-4" x1="230.96" y1="220.33" x2="230.96" y2="151.32"/><line class="cls-4" x1="230.96" y1="43.38" x2="230.96" y2="11.12"/><line class="cls-4" x1="230.96" y1="0.38" x2="207.22" y2="0.38"/><line class="cls-4" x1="207.22" y1="148.65" x2="207.22" y2="223.01"/><line class="cls-4" x1="207.22" y1="325.59" x2="207.22" y2="424.14"/><line class="cls-4" x1="207.22" y1="478.34" x2="207.22" y2="568.84"/><line class="cls-4" x1="207.22" y1="623.05" x2="207.22" y2="674.1"/><line class="cls-4" x1="230.96" y1="674.1" x2="226.92" y2="674.1"/><rect class="cls-4" x="204.08" y="623.05" width="2.69" height="26.88"/><rect class="cls-4" x="204.08" y="623.05" width="2.69" height="26.88"/><rect class="cls-4" x="204.08" y="623.05" width="2.69" height="27.32"/><line class="cls-4" x1="206.77" y1="650.36" x2="204.08" y2="650.36"/><line class="cls-4" x1="204.08" y1="650.36" x2="204.08" y2="623.05"/><line class="cls-4" x1="204.08" y1="623.05" x2="206.77" y2="623.05"/><line class="cls-4" x1="206.77" y1="623.05" x2="206.77" y2="650.36"/><rect class="cls-4" x="204.08" y="541.96" width="2.69" height="26.88"/><rect class="cls-4" x="204.08" y="541.96" width="2.69" height="26.88"/><rect class="cls-4" x="204.08" y="541.96" width="2.69" height="26.88"/><line class="cls-4" x1="206.77" y1="568.84" x2="204.08" y2="568.84"/><line class="cls-4" x1="204.08" y1="568.84" x2="204.08" y2="541.96"/><line class="cls-4" x1="204.08" y1="541.96" x2="206.77" y2="541.96"/><line class="cls-4" x1="206.77" y1="541.96" x2="206.77" y2="568.84"/><line class="cls-4" x1="207.22" y1="623.05" x2="207.22" y2="568.84"/><line class="cls-4" x1="230.96" y1="625.73" x2="230.96" y2="566.15"/><line class="cls-4" x1="223.79" y1="625.73" x2="223.79" y2="622.58"/><line class="cls-4" x1="223.79" y1="622.58" x2="222.45" y2="622.58"/><line class="cls-4" x1="222.45" y1="622.58" x2="222.45" y2="620.8"/><line class="cls-4" x1="222.45" y1="620.8" x2="220.21" y2="620.8"/><line class="cls-4" x1="220.21" y1="620.8" x2="220.21" y2="625.73"/><line class="cls-4" x1="220.21" y1="566.15" x2="220.21" y2="570.62"/><line class="cls-4" x1="220.21" y1="570.62" x2="222.45" y2="570.62"/><line class="cls-4" x1="222.45" y1="570.62" x2="222.45" y2="569.28"/><line class="cls-4" x1="222.45" y1="569.28" x2="223.79" y2="569.28"/><line class="cls-4" x1="223.79" y1="569.28" x2="223.79" y2="566.15"/><line class="cls-4" x1="220.21" y1="570.62" x2="220.21" y2="620.8"/><line class="cls-4" x1="225.59" y1="618.57" x2="225.59" y2="573.32"/><line class="cls-4" x1="222.45" y1="618.57" x2="222.45" y2="573.32"/><line class="cls-4" x1="225.59" y1="618.57" x2="225.59" y2="573.32"/><line class="cls-4" x1="224.25" y1="618.57" x2="224.25" y2="573.32"/><line class="cls-4" x1="225.59" y1="622.58" x2="225.59" y2="618.57"/><line class="cls-4" x1="225.59" y1="618.57" x2="222.45" y2="618.57"/><line class="cls-4" x1="222.45" y1="618.57" x2="222.45" y2="622.58"/><line class="cls-4" x1="222.45" y1="622.58" x2="225.59" y2="622.58"/><line class="cls-4" x1="222.45" y1="569.28" x2="222.45" y2="573.32"/><line class="cls-4" x1="222.45" y1="573.32" x2="225.59" y2="573.32"/><line class="cls-4" x1="225.59" y1="573.32" x2="225.59" y2="569.28"/><line class="cls-4" x1="225.59" y1="569.28" x2="222.45" y2="569.28"/><line class="cls-4" x1="220.21" y1="624.38" x2="223.79" y2="624.38"/><line class="cls-4" x1="220.21" y1="567.48" x2="223.79" y2="567.48"/><line class="cls-4" x1="220.21" y1="625.73" x2="223.79" y2="625.73"/><line class="cls-4" x1="220.21" y1="623.05" x2="220.21" y2="625.73"/><line class="cls-4" x1="220.21" y1="566.15" x2="223.79" y2="566.15"/><line class="cls-4" x1="220.21" y1="568.84" x2="220.21" y2="566.15"/><rect class="cls-4" x="204.08" y="148.65" width="2.69" height="25.52"/><rect class="cls-4" x="204.08" y="148.65" width="2.69" height="25.52"/><rect class="cls-4" x="204.08" y="148.65" width="2.69" height="25.52"/><line class="cls-4" x1="206.77" y1="174.18" x2="204.08" y2="174.18"/><line class="cls-4" x1="204.08" y1="174.18" x2="204.08" y2="148.65"/><line class="cls-4" x1="204.08" y1="148.65" x2="206.77" y2="148.65"/><line class="cls-4" x1="206.77" y1="148.65" x2="206.77" y2="174.18"/><rect class="cls-4" x="201.4" y="148.65" width="2.69" height="25.52"/><rect class="cls-4" x="201.4" y="148.65" width="2.69" height="25.52"/><rect class="cls-4" x="201.4" y="148.65" width="2.69" height="25.52"/><line class="cls-4" x1="204.08" y1="174.18" x2="201.4" y2="174.18"/><line class="cls-4" x1="201.4" y1="174.18" x2="201.4" y2="148.65"/><line class="cls-4" x1="201.4" y1="148.65" x2="204.08" y2="148.65"/><line class="cls-4" x1="204.08" y1="148.65" x2="204.08" y2="174.18"/><rect class="cls-4" x="204.08" y="20.53" width="2.69" height="25.53"/><rect class="cls-4" x="204.08" y="20.53" width="2.69" height="25.53"/><rect class="cls-4" x="204.08" y="20.53" width="2.69" height="25.53"/><line class="cls-4" x1="206.77" y1="46.06" x2="204.08" y2="46.06"/><line class="cls-4" x1="204.08" y1="46.06" x2="204.08" y2="20.53"/><line class="cls-4" x1="204.08" y1="20.53" x2="206.77" y2="20.53"/><line class="cls-4" x1="206.77" y1="20.53" x2="206.77" y2="46.06"/><rect class="cls-4" x="201.4" y="20.53" width="2.69" height="25.53"/><rect class="cls-4" x="201.4" y="20.53" width="2.69" height="25.53"/><rect class="cls-4" x="201.4" y="20.53" width="2.69" height="25.53"/><line class="cls-4" x1="204.08" y1="46.06" x2="201.4" y2="46.06"/><line class="cls-4" x1="201.4" y1="46.06" x2="201.4" y2="20.53"/><line class="cls-4" x1="201.4" y1="20.53" x2="204.08" y2="20.53"/><line class="cls-4" x1="204.08" y1="20.53" x2="204.08" y2="46.06"/><line class="cls-4" x1="207.22" y1="148.65" x2="207.22" y2="0.38"/><line class="cls-4" x1="230.96" y1="151.32" x2="230.96" y2="43.38"/><line class="cls-4" x1="223.79" y1="151.32" x2="223.79" y2="148.2"/><line class="cls-4" x1="223.79" y1="148.2" x2="222.45" y2="148.2"/><line class="cls-4" x1="222.45" y1="148.2" x2="222.45" y2="146.41"/><line class="cls-4" x1="222.45" y1="146.41" x2="220.21" y2="146.41"/><line class="cls-4" x1="220.21" y1="146.41" x2="220.21" y2="151.32"/><line class="cls-4" x1="220.21" y1="97.13" x2="220.21" y2="146.41"/><line class="cls-4" x1="225.59" y1="144.16" x2="225.59" y2="101.16"/><line class="cls-4" x1="222.45" y1="144.16" x2="222.45" y2="101.16"/><line class="cls-4" x1="225.59" y1="144.16" x2="225.59" y2="101.16"/><line class="cls-4" x1="224.25" y1="144.16" x2="224.25" y2="101.16"/><line class="cls-4" x1="225.59" y1="148.2" x2="225.59" y2="144.16"/><line class="cls-4" x1="225.59" y1="144.16" x2="222.45" y2="144.16"/><line class="cls-4" x1="222.45" y1="144.16" x2="222.45" y2="148.2"/><line class="cls-4" x1="222.45" y1="148.2" x2="225.59" y2="148.2"/><line class="cls-4" x1="222.45" y1="97.13" x2="222.45" y2="101.16"/><line class="cls-4" x1="222.45" y1="101.16" x2="225.59" y2="101.16"/><line class="cls-4" x1="225.59" y1="101.16" x2="225.59" y2="97.13"/><line class="cls-4" x1="225.59" y1="97.13" x2="222.45" y2="97.13"/><line class="cls-4" x1="220.21" y1="149.99" x2="223.79" y2="149.99"/><line class="cls-4" x1="220.21" y1="43.38" x2="220.21" y2="47.86"/><line class="cls-4" x1="220.21" y1="47.86" x2="222.45" y2="47.86"/><line class="cls-4" x1="222.45" y1="47.86" x2="222.45" y2="46.5"/><line class="cls-4" x1="222.45" y1="46.5" x2="223.79" y2="46.5"/><line class="cls-4" x1="223.79" y1="46.5" x2="223.79" y2="43.38"/><line class="cls-4" x1="220.21" y1="47.86" x2="220.21" y2="97.13"/><line class="cls-4" x1="225.59" y1="93.09" x2="225.59" y2="50.54"/><line class="cls-4" x1="222.45" y1="93.09" x2="222.45" y2="50.54"/><line class="cls-4" x1="225.59" y1="93.09" x2="225.59" y2="50.54"/><line class="cls-4" x1="224.25" y1="93.09" x2="224.25" y2="50.54"/><line class="cls-4" x1="225.59" y1="97.13" x2="225.59" y2="93.09"/><line class="cls-4" x1="225.59" y1="93.09" x2="222.45" y2="93.09"/><line class="cls-4" x1="222.45" y1="93.09" x2="222.45" y2="97.13"/><line class="cls-4" x1="222.45" y1="97.13" x2="225.59" y2="97.13"/><line class="cls-4" x1="222.45" y1="46.5" x2="222.45" y2="50.54"/><line class="cls-4" x1="222.45" y1="50.54" x2="225.59" y2="50.54"/><line class="cls-4" x1="225.59" y1="50.54" x2="225.59" y2="46.5"/><line class="cls-4" x1="225.59" y1="46.5" x2="222.45" y2="46.5"/><line class="cls-4" x1="220.21" y1="44.71" x2="223.79" y2="44.71"/><line class="cls-4" x1="220.21" y1="151.32" x2="223.79" y2="151.32"/><line class="cls-4" x1="220.21" y1="148.65" x2="220.21" y2="151.32"/><line class="cls-4" x1="220.21" y1="43.38" x2="223.79" y2="43.38"/><line class="cls-4" x1="220.21" y1="46.06" x2="220.21" y2="43.38"/><rect class="cls-4" x="204.08" y="478.34" width="2.69" height="26.88"/><rect class="cls-4" x="204.08" y="478.34" width="2.69" height="26.88"/><rect class="cls-4" x="204.08" y="478.34" width="2.69" height="26.88"/><line class="cls-4" x1="206.77" y1="505.22" x2="204.08" y2="505.22"/><line class="cls-4" x1="204.08" y1="505.22" x2="204.08" y2="478.34"/><line class="cls-4" x1="204.08" y1="478.34" x2="206.77" y2="478.34"/><line class="cls-4" x1="206.77" y1="478.34" x2="206.77" y2="505.22"/><rect class="cls-4" x="204.08" y="397.26" width="2.69" height="26.88"/><rect class="cls-4" x="204.08" y="397.26" width="2.69" height="26.88"/><rect class="cls-4" x="204.08" y="397.26" width="2.69" height="26.88"/><line class="cls-4" x1="206.77" y1="424.14" x2="204.08" y2="424.14"/><line class="cls-4" x1="204.08" y1="424.14" x2="204.08" y2="397.26"/><line class="cls-4" x1="204.08" y1="397.26" x2="206.77" y2="397.26"/><line class="cls-4" x1="206.77" y1="397.26" x2="206.77" y2="424.14"/><line class="cls-4" x1="207.22" y1="478.34" x2="207.22" y2="424.14"/><line class="cls-4" x1="230.96" y1="481.04" x2="230.96" y2="421.45"/><line class="cls-4" x1="223.79" y1="481.04" x2="223.79" y2="477.9"/><line class="cls-4" x1="223.79" y1="477.9" x2="222.45" y2="477.9"/><line class="cls-4" x1="222.45" y1="477.9" x2="222.45" y2="476.11"/><line class="cls-4" x1="222.45" y1="476.11" x2="220.21" y2="476.11"/><line class="cls-4" x1="220.21" y1="476.11" x2="220.21" y2="481.04"/><line class="cls-4" x1="220.21" y1="421.45" x2="220.21" y2="425.93"/><line class="cls-4" x1="220.21" y1="425.93" x2="222.45" y2="425.93"/><line class="cls-4" x1="222.45" y1="425.93" x2="222.45" y2="424.59"/><line class="cls-4" x1="222.45" y1="424.59" x2="223.79" y2="424.59"/><line class="cls-4" x1="223.79" y1="424.59" x2="223.79" y2="421.45"/><line class="cls-4" x1="220.21" y1="425.93" x2="220.21" y2="476.11"/><line class="cls-4" x1="225.59" y1="473.87" x2="225.59" y2="428.62"/><line class="cls-4" x1="222.45" y1="473.87" x2="222.45" y2="428.62"/><line class="cls-4" x1="225.59" y1="473.87" x2="225.59" y2="428.62"/><line class="cls-4" x1="224.25" y1="473.87" x2="224.25" y2="428.62"/><line class="cls-4" x1="225.59" y1="477.9" x2="225.59" y2="473.87"/><line class="cls-4" x1="225.59" y1="473.87" x2="222.45" y2="473.87"/><line class="cls-4" x1="222.45" y1="473.87" x2="222.45" y2="477.9"/><line class="cls-4" x1="222.45" y1="477.9" x2="225.59" y2="477.9"/><line class="cls-4" x1="222.45" y1="424.59" x2="222.45" y2="428.62"/><line class="cls-4" x1="222.45" y1="428.62" x2="225.59" y2="428.62"/><line class="cls-4" x1="225.59" y1="428.62" x2="225.59" y2="424.59"/><line class="cls-4" x1="225.59" y1="424.59" x2="222.45" y2="424.59"/><line class="cls-4" x1="220.21" y1="479.7" x2="223.79" y2="479.7"/><line class="cls-4" x1="220.21" y1="422.36" x2="223.79" y2="422.36"/><line class="cls-4" x1="220.21" y1="481.04" x2="223.79" y2="481.04"/><line class="cls-4" x1="220.21" y1="478.34" x2="220.21" y2="481.04"/><line class="cls-4" x1="220.21" y1="421.45" x2="223.79" y2="421.45"/><line class="cls-4" x1="220.21" y1="424.14" x2="220.21" y2="421.45"/><line class="cls-4" x1="221.11" y1="328.27" x2="221.11" y2="324.7"/><line class="cls-4" x1="221.11" y1="324.7" x2="224.25" y2="324.7"/><line class="cls-4" x1="224.25" y1="324.7" x2="224.25" y2="328.27"/><line class="cls-4" x1="224.25" y1="328.27" x2="221.11" y2="328.27"/><line class="cls-4" x1="221.11" y1="271.83" x2="222.45" y2="271.83"/><line class="cls-4" x1="222.45" y1="271.83" x2="222.45" y2="272.74"/><line class="cls-4" x1="222.45" y1="272.74" x2="224.25" y2="272.74"/><line class="cls-4" x1="224.25" y1="272.74" x2="224.25" y2="275.42"/><line class="cls-4" x1="224.25" y1="275.42" x2="221.11" y2="275.42"/><line class="cls-4" x1="221.11" y1="275.42" x2="221.11" y2="271.83"/><line class="cls-4" x1="224.25" y1="220.33" x2="224.25" y2="223.45"/><line class="cls-4" x1="224.25" y1="223.45" x2="222.45" y2="223.45"/><line class="cls-4" x1="222.45" y1="223.45" x2="222.45" y2="223.9"/><line class="cls-4" x1="222.45" y1="223.9" x2="221.11" y2="223.9"/><line class="cls-4" x1="221.11" y1="223.9" x2="221.11" y2="220.33"/><line class="cls-4" x1="221.11" y1="220.33" x2="224.25" y2="220.33"/><line class="cls-4" x1="222.45" y1="322" x2="222.45" y2="278.11"/><line class="cls-4" x1="222.45" y1="278.11" x2="224.25" y2="278.11"/><line class="cls-4" x1="224.25" y1="278.11" x2="224.25" y2="322"/><line class="cls-4" x1="224.25" y1="322" x2="222.45" y2="322"/><line class="cls-4" x1="222.45" y1="324.7" x2="222.45" y2="322"/><line class="cls-4" x1="222.45" y1="322" x2="224.25" y2="322"/><line class="cls-4" x1="224.25" y1="322" x2="224.25" y2="324.7"/><line class="cls-4" x1="224.25" y1="324.7" x2="222.45" y2="324.7"/><line class="cls-4" x1="222.45" y1="278.11" x2="222.45" y2="275.42"/><line class="cls-4" x1="222.45" y1="275.42" x2="224.25" y2="275.42"/><line class="cls-4" x1="224.25" y1="275.42" x2="224.25" y2="278.11"/><line class="cls-4" x1="224.25" y1="278.11" x2="222.45" y2="278.11"/><line class="cls-4" x1="223.34" y1="322" x2="223.34" y2="278.11"/><line class="cls-4" x1="221.11" y1="324.7" x2="221.11" y2="275.42"/><line class="cls-4" x1="221.11" y1="275.42" x2="222.45" y2="275.42"/><line class="cls-4" x1="222.45" y1="275.42" x2="222.45" y2="324.7"/><line class="cls-4" x1="222.45" y1="324.7" x2="221.11" y2="324.7"/><line class="cls-4" x1="221.11" y1="324.7" x2="221.11" y2="275.42"/><line class="cls-4" x1="224.25" y1="223.45" x2="267.25" y2="248.09"/><line class="cls-4" x1="267.25" y1="248.09" x2="265.9" y2="249.89"/><line class="cls-4" x1="265.9" y1="249.89" x2="223.34" y2="225.24"/><line class="cls-4" x1="223.34" y1="225.24" x2="224.25" y2="223.45"/><path class="cls-4" d="M294.24,249.89a48.84,48.84,0,0,1-41.65,22.85" transform="translate(-28.34)"/><line class="cls-4" x1="221.11" y1="328.27" x2="224.25" y2="328.27"/><line class="cls-4" x1="221.11" y1="325.59" x2="221.11" y2="328.27"/><line class="cls-4" x1="221.11" y1="220.33" x2="224.25" y2="220.33"/><line class="cls-4" x1="221.11" y1="223.01" x2="221.11" y2="220.33"/><line class="cls-4" x1="343.4" y1="721.6" x2="343.4" y2="732.35"/><line class="cls-4" x1="450.91" y1="729.2" x2="450.91" y2="721.6"/><line class="cls-4" x1="448.22" y1="740.4" x2="448.22" y2="732.35"/><line class="cls-4" x1="448.22" y1="744.89" x2="448.22" y2="740.4"/><line class="cls-4" x1="448.22" y1="745.78" x2="448.22" y2="744.89"/><line class="cls-4" x1="448.22" y1="732.35" x2="450.91" y2="732.35"/><line class="cls-4" x1="450.91" y1="732.35" x2="450.91" y2="729.2"/><line class="cls-4" x1="391.33" y1="729.2" x2="391.33" y2="721.6"/><line class="cls-4" x1="394.02" y1="740.4" x2="394.02" y2="732.35"/><line class="cls-4" x1="394.02" y1="744.89" x2="394.02" y2="740.4"/><line class="cls-4" x1="394.02" y1="745.78" x2="394.02" y2="744.89"/><line class="cls-4" x1="394.02" y1="732.35" x2="391.33" y2="732.35"/><line class="cls-4" x1="391.33" y1="732.35" x2="391.33" y2="729.2"/><line class="cls-4" x1="504.21" y1="728.31" x2="504.21" y2="721.6"/><line class="cls-4" x1="506.91" y1="732.35" x2="506.91" y2="731.9"/><line class="cls-4" x1="506.91" y1="740.4" x2="506.91" y2="732.35"/><line class="cls-4" x1="506.91" y1="744.89" x2="506.91" y2="740.4"/><line class="cls-4" x1="506.91" y1="745.78" x2="506.91" y2="744.89"/><line class="cls-4" x1="506.91" y1="731.9" x2="504.21" y2="731.9"/><line class="cls-4" x1="504.21" y1="731.9" x2="504.21" y2="728.31"/><line class="cls-4" x1="611.74" y1="728.31" x2="611.74" y2="721.6"/><line class="cls-4" x1="609.04" y1="732.35" x2="609.04" y2="731.9"/><line class="cls-4" x1="609.04" y1="740.4" x2="609.04" y2="732.35"/><line class="cls-4" x1="609.04" y1="744.89" x2="609.04" y2="740.4"/><line class="cls-4" x1="609.04" y1="745.78" x2="609.04" y2="744.89"/><line class="cls-4" x1="609.04" y1="731.9" x2="611.74" y2="731.9"/><line class="cls-4" x1="611.74" y1="731.9" x2="611.74" y2="728.31"/><line class="cls-4" x1="343.4" y1="745.78" x2="394.02" y2="745.78"/><line class="cls-4" x1="448.22" y1="745.78" x2="506.91" y2="745.78"/><line class="cls-4" x1="609.04" y1="745.78" x2="660.12" y2="745.78"/><line class="cls-4" x1="654.73" y1="721.6" x2="611.74" y2="721.6"/><line class="cls-4" x1="504.21" y1="721.6" x2="450.91" y2="721.6"/><line class="cls-4" x1="391.33" y1="721.6" x2="362.66" y2="721.6"/><line class="cls-4" x1="343.4" y1="721.6" x2="343.4" y2="726.07"/><rect class="cls-4" x="367.14" y="746.23" width="26.88" height="2.69"/><rect class="cls-4" x="367.14" y="746.23" width="26.88" height="2.69"/><rect class="cls-4" x="367.14" y="746.23" width="26.88" height="2.69"/><line class="cls-4" x1="367.14" y1="746.23" x2="367.14" y2="748.91"/><line class="cls-4" x1="367.14" y1="748.91" x2="394.02" y2="748.91"/><line class="cls-4" x1="394.02" y1="748.91" x2="394.02" y2="746.23"/><line class="cls-4" x1="394.02" y1="746.23" x2="367.14" y2="746.23"/><rect class="cls-4" x="448.68" y="746.23" width="26.88" height="2.69"/><rect class="cls-4" x="448.68" y="746.23" width="26.88" height="2.69"/><rect class="cls-4" x="448.22" y="746.23" width="27.33" height="2.69"/><line class="cls-4" x1="448.22" y1="746.23" x2="448.22" y2="748.91"/><line class="cls-4" x1="448.22" y1="748.91" x2="475.55" y2="748.91"/><line class="cls-4" x1="475.55" y1="748.91" x2="475.55" y2="746.23"/><line class="cls-4" x1="475.55" y1="746.23" x2="448.22" y2="746.23"/><line class="cls-4" x1="394.02" y1="745.78" x2="448.22" y2="745.78"/><line class="cls-4" x1="391.33" y1="721.6" x2="450.91" y2="721.6"/><line class="cls-4" x1="391.33" y1="729.2" x2="394.92" y2="729.2"/><line class="cls-4" x1="394.92" y1="729.2" x2="394.92" y2="730.56"/><line class="cls-4" x1="394.92" y1="730.56" x2="396.27" y2="730.56"/><line class="cls-4" x1="396.27" y1="730.56" x2="396.27" y2="732.35"/><line class="cls-4" x1="396.27" y1="732.35" x2="391.33" y2="732.35"/><line class="cls-4" x1="450.91" y1="732.35" x2="446.43" y2="732.35"/><line class="cls-4" x1="446.43" y1="732.35" x2="446.43" y2="730.56"/><line class="cls-4" x1="446.43" y1="730.56" x2="448.22" y2="730.56"/><line class="cls-4" x1="448.22" y1="730.56" x2="448.22" y2="729.2"/><line class="cls-4" x1="448.22" y1="729.2" x2="450.91" y2="729.2"/><line class="cls-4" x1="446.43" y1="732.35" x2="396.27" y2="732.35"/><line class="cls-4" x1="398.5" y1="726.97" x2="444.2" y2="726.97"/><line class="cls-4" x1="398.5" y1="730.56" x2="444.2" y2="730.56"/><line class="cls-4" x1="398.5" y1="726.97" x2="444.2" y2="726.97"/><line class="cls-4" x1="398.5" y1="728.76" x2="444.2" y2="728.76"/><line class="cls-4" x1="394.92" y1="726.97" x2="398.5" y2="726.97"/><line class="cls-4" x1="398.5" y1="726.97" x2="398.5" y2="730.56"/><line class="cls-4" x1="398.5" y1="730.56" x2="394.92" y2="730.56"/><line class="cls-4" x1="394.92" y1="730.56" x2="394.92" y2="726.97"/><line class="cls-4" x1="448.22" y1="730.56" x2="444.2" y2="730.56"/><line class="cls-4" x1="444.2" y1="730.56" x2="444.2" y2="726.97"/><line class="cls-4" x1="444.2" y1="726.97" x2="448.22" y2="726.97"/><line class="cls-4" x1="448.22" y1="726.97" x2="448.22" y2="730.56"/><line class="cls-4" x1="392.67" y1="732.35" x2="392.67" y2="729.2"/><line class="cls-4" x1="450.02" y1="732.35" x2="450.02" y2="729.2"/><line class="cls-4" x1="391.33" y1="732.35" x2="391.33" y2="729.2"/><line class="cls-4" x1="394.02" y1="732.35" x2="391.33" y2="732.35"/><line class="cls-4" x1="450.91" y1="732.35" x2="450.91" y2="729.2"/><line class="cls-4" x1="448.22" y1="732.35" x2="450.91" y2="732.35"/><line class="cls-4" x1="611.74" y1="731.9" x2="608.6" y2="731.9"/><line class="cls-4" x1="608.6" y1="731.9" x2="608.6" y2="728.31"/><line class="cls-4" x1="608.6" y1="728.31" x2="611.74" y2="728.31"/><line class="cls-4" x1="611.74" y1="728.31" x2="611.74" y2="731.9"/><line class="cls-4" x1="555.73" y1="731.9" x2="555.73" y2="730.56"/><line class="cls-4" x1="555.73" y1="730.56" x2="556.19" y2="730.56"/><line class="cls-4" x1="556.19" y1="730.56" x2="556.19" y2="728.31"/><line class="cls-4" x1="556.19" y1="728.31" x2="558.87" y2="728.31"/><line class="cls-4" x1="558.87" y1="728.31" x2="558.87" y2="731.9"/><line class="cls-4" x1="558.87" y1="731.9" x2="555.73" y2="731.9"/><line class="cls-4" x1="504.21" y1="728.31" x2="506.91" y2="728.31"/><line class="cls-4" x1="506.91" y1="728.31" x2="506.91" y2="730.56"/><line class="cls-4" x1="506.91" y1="730.56" x2="507.36" y2="730.56"/><line class="cls-4" x1="507.36" y1="730.56" x2="507.36" y2="731.9"/><line class="cls-4" x1="507.36" y1="731.9" x2="504.21" y2="731.9"/><line class="cls-4" x1="504.21" y1="731.9" x2="504.21" y2="728.31"/><line class="cls-4" x1="605.91" y1="730.56" x2="561.56" y2="730.56"/><line class="cls-4" x1="561.56" y1="730.56" x2="561.56" y2="728.31"/><line class="cls-4" x1="561.56" y1="728.31" x2="605.91" y2="728.31"/><line class="cls-4" x1="605.91" y1="728.31" x2="605.91" y2="730.56"/><line class="cls-4" x1="608.6" y1="730.56" x2="605.91" y2="730.56"/><line class="cls-4" x1="605.91" y1="730.56" x2="605.91" y2="728.31"/><line class="cls-4" x1="605.91" y1="728.31" x2="608.6" y2="728.31"/><line class="cls-4" x1="608.6" y1="728.31" x2="608.6" y2="730.56"/><line class="cls-4" x1="561.56" y1="730.56" x2="558.87" y2="730.56"/><line class="cls-4" x1="558.87" y1="730.56" x2="558.87" y2="728.31"/><line class="cls-4" x1="558.87" y1="728.31" x2="561.56" y2="728.31"/><line class="cls-4" x1="561.56" y1="728.31" x2="561.56" y2="730.56"/><line class="cls-4" x1="605.91" y1="729.65" x2="561.56" y2="729.65"/><line class="cls-4" x1="608.6" y1="731.9" x2="558.87" y2="731.9"/><line class="cls-4" x1="558.87" y1="731.9" x2="558.87" y2="730.56"/><line class="cls-4" x1="558.87" y1="730.56" x2="608.6" y2="730.56"/><line class="cls-4" x1="608.6" y1="730.56" x2="608.6" y2="731.9"/><line class="cls-4" x1="608.6" y1="731.9" x2="558.87" y2="731.9"/><line class="cls-4" x1="506.91" y1="728.31" x2="531.54" y2="685.75"/><line class="cls-4" x1="531.54" y1="685.75" x2="533.33" y2="687.1"/><line class="cls-4" x1="533.33" y1="687.1" x2="508.69" y2="729.65"/><line class="cls-4" x1="508.69" y1="729.65" x2="506.91" y2="728.31"/><path class="cls-4" d="M561.68,687.1a48.87,48.87,0,0,1,22.85,41.66" transform="translate(-28.34)"/><line class="cls-4" x1="611.74" y1="731.9" x2="611.74" y2="728.31"/><line class="cls-4" x1="609.04" y1="731.9" x2="611.74" y2="731.9"/><line class="cls-4" x1="504.21" y1="731.9" x2="504.21" y2="728.31"/><line class="cls-4" x1="506.91" y1="731.9" x2="504.21" y2="731.9"/><line class="cls-4" x1="343.4" y1="674.1" x2="343.4" y2="721.6"/><line class="cls-4" x1="362.66" y1="654.84" x2="362.66" y2="665.6"/><line class="cls-4" x1="362.66" y1="665.6" x2="362.66" y2="673.66"/><line class="cls-4" x1="362.66" y1="673.66" x2="362.66" y2="674.1"/><line class="cls-4" x1="362.66" y1="721.6" x2="362.66" y2="674.1"/><line class="cls-4" x1="343.4" y1="731" x2="343.4" y2="726.07"/><line class="cls-4" x1="343.4" y1="735.03" x2="343.4" y2="732.35"/><line class="cls-4" x1="343.4" y1="744.89" x2="343.4" y2="735.03"/><line class="cls-4" x1="343.4" y1="745.78" x2="343.4" y2="744.89"/><line class="cls-4" x1="343.4" y1="732.35" x2="343.4" y2="731"/><line class="cls-4" x1="343.4" y1="745.78" x2="207.22" y2="745.78"/><line class="cls-4" x1="343.4" y1="726.07" x2="226.92" y2="726.07"/><line class="cls-4" x1="343.4" y1="731" x2="341.17" y2="731"/><line class="cls-4" x1="341.17" y1="731" x2="341.17" y2="731.9"/><line class="cls-4" x1="341.17" y1="731.9" x2="340.7" y2="731.9"/><line class="cls-4" x1="340.7" y1="731.9" x2="340.7" y2="732.35"/><line class="cls-4" x1="340.7" y1="732.35" x2="343.4" y2="732.35"/><line class="cls-4" x1="282.48" y1="732.35" x2="340.7" y2="732.35"/><line class="cls-4" x1="340.7" y1="731" x2="282.92" y2="731"/><line class="cls-4" x1="340.7" y1="731.9" x2="282.92" y2="731.9"/><line class="cls-4" x1="340.7" y1="731" x2="282.92" y2="731"/><line class="cls-4" x1="340.7" y1="731.45" x2="282.92" y2="731.45"/><line class="cls-4" x1="341.17" y1="731" x2="340.7" y2="731"/><line class="cls-4" x1="340.7" y1="731" x2="340.7" y2="731.9"/><line class="cls-4" x1="340.7" y1="731.9" x2="341.17" y2="731.9"/><line class="cls-4" x1="341.17" y1="731.9" x2="341.17" y2="731"/><line class="cls-4" x1="282.48" y1="731.9" x2="282.92" y2="731.9"/><line class="cls-4" x1="282.92" y1="731.9" x2="282.92" y2="731"/><line class="cls-4" x1="282.92" y1="731" x2="282.48" y2="731"/><line class="cls-4" x1="282.48" y1="731" x2="282.48" y2="731.9"/><line class="cls-4" x1="342.06" y1="732.35" x2="342.06" y2="731"/><line class="cls-4" x1="220.21" y1="732.35" x2="224.25" y2="732.35"/><line class="cls-4" x1="224.25" y1="732.35" x2="224.25" y2="731.9"/><line class="cls-4" x1="224.25" y1="731.9" x2="223.79" y2="731.9"/><line class="cls-4" x1="223.79" y1="731.9" x2="223.79" y2="731"/><line class="cls-4" x1="223.79" y1="731" x2="222" y2="731"/><line class="cls-4" x1="224.25" y1="732.35" x2="282.48" y2="732.35"/><line class="cls-4" x1="282.03" y1="731" x2="224.25" y2="731"/><line class="cls-4" x1="282.03" y1="731.9" x2="224.25" y2="731.9"/><line class="cls-4" x1="282.03" y1="731" x2="224.25" y2="731"/><line class="cls-4" x1="282.03" y1="731.45" x2="224.25" y2="731.45"/><line class="cls-4" x1="282.48" y1="731" x2="282.03" y2="731"/><line class="cls-4" x1="282.03" y1="731" x2="282.03" y2="731.9"/><line class="cls-4" x1="282.03" y1="731.9" x2="282.48" y2="731.9"/><line class="cls-4" x1="282.48" y1="731.9" x2="282.48" y2="731"/><line class="cls-4" x1="223.79" y1="731.9" x2="224.25" y2="731.9"/><line class="cls-4" x1="224.25" y1="731.9" x2="224.25" y2="731"/><line class="cls-4" x1="224.25" y1="731" x2="223.79" y2="731"/><line class="cls-4" x1="223.79" y1="731" x2="223.79" y2="731.9"/><line class="cls-4" x1="222.91" y1="732.35" x2="222.91" y2="731"/><line class="cls-4" x1="343.4" y1="732.35" x2="343.4" y2="731"/><line class="cls-4" x1="222" y1="674.1" x2="226.92" y2="674.1"/><line class="cls-4" x1="217.52" y1="674.1" x2="220.21" y2="674.1"/><line class="cls-4" x1="208.11" y1="674.1" x2="217.52" y2="674.1"/><line class="cls-4" x1="207.22" y1="674.1" x2="208.11" y2="674.1"/><line class="cls-4" x1="220.21" y1="674.1" x2="222" y2="674.1"/><line class="cls-4" x1="207.22" y1="745.78" x2="207.22" y2="674.1"/><line class="cls-4" x1="226.92" y1="726.07" x2="226.92" y2="674.1"/><line class="cls-4" x1="222" y1="731" x2="222" y2="729.2"/><line class="cls-4" x1="222" y1="729.2" x2="221.11" y2="729.2"/><line class="cls-4" x1="221.11" y1="729.2" x2="221.11" y2="728.31"/><line class="cls-4" x1="221.11" y1="728.31" x2="220.21" y2="728.31"/><line class="cls-4" x1="220.21" y1="728.31" x2="220.21" y2="732.35"/><line class="cls-4" x1="220.21" y1="674.1" x2="220.21" y2="676.35"/><line class="cls-4" x1="220.21" y1="676.35" x2="221.11" y2="676.35"/><line class="cls-4" x1="221.11" y1="676.35" x2="221.11" y2="675.46"/><line class="cls-4" x1="221.11" y1="675.46" x2="222" y2="675.46"/><line class="cls-4" x1="222" y1="675.46" x2="222" y2="674.1"/><line class="cls-4" x1="220.21" y1="676.35" x2="220.21" y2="728.31"/><line class="cls-4" x1="222" y1="728.31" x2="222" y2="676.35"/><line class="cls-4" x1="221.11" y1="728.31" x2="221.11" y2="676.35"/><line class="cls-4" x1="222" y1="728.31" x2="222" y2="676.35"/><line class="cls-4" x1="221.55" y1="728.31" x2="221.55" y2="676.35"/><line class="cls-4" x1="222" y1="729.2" x2="222" y2="728.31"/><line class="cls-4" x1="222" y1="728.31" x2="221.11" y2="728.31"/><line class="cls-4" x1="221.11" y1="728.31" x2="221.11" y2="729.2"/><line class="cls-4" x1="221.11" y1="729.2" x2="222" y2="729.2"/><line class="cls-4" x1="221.11" y1="675.46" x2="221.11" y2="676.35"/><line class="cls-4" x1="221.11" y1="676.35" x2="222" y2="676.35"/><line class="cls-4" x1="222" y1="676.35" x2="222" y2="675.46"/><line class="cls-4" x1="222" y1="675.46" x2="221.11" y2="675.46"/><line class="cls-4" x1="220.21" y1="729.65" x2="222" y2="729.65"/><line class="cls-4" x1="220.21" y1="675.01" x2="222" y2="675.01"/><line class="cls-4" x1="220.21" y1="674.1" x2="222" y2="674.1"/><line class="cls-4" x1="343.4" y1="665.6" x2="343.4" y2="674.1"/><line class="cls-4" x1="343.85" y1="674.1" x2="343.4" y2="674.1"/><line class="cls-4" x1="241.71" y1="665.6" x2="241.71" y2="674.1"/><line class="cls-4" x1="241.26" y1="674.1" x2="241.71" y2="674.1"/><line class="cls-4" x1="346.54" y1="662.46" x2="346.54" y2="654.84"/><line class="cls-4" x1="343.85" y1="665.6" x2="346.54" y2="665.6"/><line class="cls-4" x1="346.54" y1="665.6" x2="346.54" y2="662.46"/><line class="cls-4" x1="238.58" y1="662.46" x2="238.58" y2="654.84"/><line class="cls-4" x1="241.26" y1="665.6" x2="238.58" y2="665.6"/><line class="cls-4" x1="238.58" y1="665.6" x2="238.58" y2="662.46"/><line class="cls-4" x1="230.96" y1="674.1" x2="241.26" y2="674.1"/><line class="cls-4" x1="362.66" y1="654.84" x2="346.54" y2="654.84"/><line class="cls-4" x1="238.58" y1="654.84" x2="230.96" y2="654.84"/><line class="cls-4" x1="239.92" y1="662.46" x2="239.92" y2="665.6"/><line class="cls-4" x1="345.19" y1="662.46" x2="345.19" y2="665.6"/><line class="cls-4" x1="238.58" y1="665.6" x2="243.06" y2="665.6"/><line class="cls-4" x1="243.06" y1="665.6" x2="243.06" y2="662.46"/><line class="cls-4" x1="243.06" y1="662.46" x2="238.58" y2="662.46"/><line class="cls-4" x1="238.58" y1="662.46" x2="238.58" y2="665.6"/><line class="cls-4" x1="295.92" y1="665.6" x2="295.92" y2="664.25"/><line class="cls-4" x1="295.92" y1="664.25" x2="295.47" y2="664.25"/><line class="cls-4" x1="295.47" y1="664.25" x2="295.47" y2="662.46"/><line class="cls-4" x1="295.47" y1="662.46" x2="292.78" y2="662.46"/><line class="cls-4" x1="292.78" y1="662.46" x2="292.78" y2="665.6"/><line class="cls-4" x1="292.78" y1="665.6" x2="295.92" y2="665.6"/><line class="cls-4" x1="346.54" y1="662.46" x2="342.95" y2="662.46"/><line class="cls-4" x1="342.95" y1="662.46" x2="342.95" y2="664.25"/><line class="cls-4" x1="342.95" y1="664.25" x2="342.06" y2="664.25"/><line class="cls-4" x1="342.06" y1="664.25" x2="342.06" y2="665.6"/><line class="cls-4" x1="342.06" y1="665.6" x2="346.54" y2="665.6"/><line class="cls-4" x1="346.54" y1="665.6" x2="346.54" y2="662.46"/><line class="cls-4" x1="245.74" y1="664.25" x2="290.09" y2="664.25"/><line class="cls-4" x1="290.09" y1="664.25" x2="290.09" y2="662.46"/><line class="cls-4" x1="290.09" y1="662.46" x2="245.74" y2="662.46"/><line class="cls-4" x1="245.74" y1="662.46" x2="245.74" y2="664.25"/><line class="cls-4" x1="243.06" y1="664.25" x2="245.74" y2="664.25"/><line class="cls-4" x1="245.74" y1="664.25" x2="245.74" y2="662.46"/><line class="cls-4" x1="245.74" y1="662.46" x2="243.06" y2="662.46"/><line class="cls-4" x1="243.06" y1="662.46" x2="243.06" y2="664.25"/><line class="cls-4" x1="290.09" y1="664.25" x2="292.78" y2="664.25"/><line class="cls-4" x1="292.78" y1="664.25" x2="292.78" y2="662.46"/><line class="cls-4" x1="292.78" y1="662.46" x2="290.09" y2="662.46"/><line class="cls-4" x1="290.09" y1="662.46" x2="290.09" y2="664.25"/><line class="cls-4" x1="245.74" y1="663.35" x2="290.09" y2="663.35"/><line class="cls-4" x1="243.06" y1="665.6" x2="292.78" y2="665.6"/><line class="cls-4" x1="292.78" y1="665.6" x2="292.78" y2="664.25"/><line class="cls-4" x1="292.78" y1="664.25" x2="243.06" y2="664.25"/><line class="cls-4" x1="243.06" y1="664.25" x2="243.06" y2="665.6"/><line class="cls-4" x1="243.06" y1="665.6" x2="292.78" y2="665.6"/><line class="cls-4" x1="342.95" y1="662.46" x2="319.21" y2="621.25"/><line class="cls-4" x1="319.21" y1="621.25" x2="317.42" y2="622.14"/><line class="cls-4" x1="317.42" y1="622.14" x2="340.7" y2="663.35"/><line class="cls-4" x1="340.7" y1="663.35" x2="342.95" y2="662.46"/><path class="cls-4" d="M345.76,622.14A47.6,47.6,0,0,0,323.81,662" transform="translate(-28.34)"/><line class="cls-4" x1="238.58" y1="665.6" x2="238.58" y2="662.46"/><line class="cls-4" x1="241.26" y1="665.6" x2="238.58" y2="665.6"/><line class="cls-4" x1="346.54" y1="665.6" x2="346.54" y2="662.46"/><line class="cls-4" x1="343.85" y1="665.6" x2="346.54" y2="665.6"/><line class="cls-4" x1="660.12" y1="772.65" x2="220.21" y2="772.65"/><line class="cls-4" x1="207.22" y1="786.09" x2="660.12" y2="786.09"/><line class="cls-4" x1="220.21" y1="772.65" x2="220.21" y2="745.78"/><line class="cls-4" x1="220.21" y1="745.78" x2="207.22" y2="745.78"/><line class="cls-4" x1="207.22" y1="745.78" x2="207.22" y2="786.09"/><rect class="cls-4" x="654.73" y="670.97" width="10.75" height="26.89"/><rect class="cls-4" x="654.73" y="483.28" width="10.75" height="26.88"/><rect class="cls-4" x="477.79" y="188.07" width="10.75" height="26.88"/><rect class="cls-4" x="477.79" y="402.65" width="10.75" height="26.88"/><rect class="cls-4" x="351.91" y="670.97" width="10.75" height="26.89"/><rect class="cls-4" x="220.21" y="533.44" width="10.75" height="26.88"/><rect class="cls-4" x="220.21" y="638.72" width="10.75" height="26.88"/><rect class="cls-4" x="220.21" y="346.2" width="10.75" height="26.88"/><rect class="cls-4" x="220.21" y="177.32" width="10.75" height="26.88"/><rect class="cls-4" x="220.21" y="0.38" width="26.88" height="10.74"/><rect class="cls-4" x="654.73" y="188.07" width="10.75" height="26.88"/><rect class="cls-4" x="467.03" y="0.38" width="26.89" height="10.74"/><rect class="cls-4" x="617.11" y="0.38" width="26.88" height="10.74"/><rect class="cls-4" x="483.17" y="670.97" width="10.75" height="26.89"/><rect class="cls-4" x="327.73" y="0.38" width="26.88" height="10.74"/><text class="cls-5" transform="translate(337.74 289.31)">3К</text><text class="cls-5" transform="translate(326.55 258)">№43</text><text class="cls-5" transform="translate(323.18 319.49)">114.2</text><polyline class="cls-4" points="309.39 328.05 309.39 235.78 394.43 235.78 394.43 328.05"/><line class="cls-4" x1="309.39" y1="266.26" x2="394.43" y2="266.26"/><line class="cls-4" x1="309.39" y1="297.15" x2="394.43" y2="297.15"/><line class="cls-4" x1="309.39" y1="328.05" x2="394.43" y2="328.05"/><text class="cls-6" transform="translate(241.49 317.27)">18.<tspan class="cls-7" x="28.69" y="0">7</tspan></text><text class="cls-6" transform="translate(241.49 98.25)">14.1</text><text class="cls-6" transform="translate(243.05 560.32)">24.<tspan class="cls-7" x="28.69" y="0">7</tspan></text><text class="cls-6" transform="translate(119.62 397.9)">1<tspan class="cls-8" x="11.99" y="0">7</tspan><tspan class="cls-9" x="21.56" y="0">.8</tspan></text><text class="cls-6" transform="translate(527.52 153.57)">14.6</text><text class="cls-6" transform="translate(558.42 261.31)">3.6</text><text class="cls-6" transform="translate(603.21 371.73)">3.6</text><text class="cls-6" transform="translate(583.73 703.68)">16.4</text><text class="cls-6" transform="translate(275.31 703.68)">0.<tspan class="cls-7" x="16.7" y="0">7</tspan></text></svg>