<svg id="_611" data-name="611" xmlns="http://www.w3.org/2000/svg" viewBox="0 0 309.02 619.08"><defs><style>.cls-1,.cls-5,.cls-6{fill:none;stroke-linecap:round;stroke-linejoin:round;stroke-width:0.5px;}.cls-1{stroke:#999;}.cls-2{isolation:isolate;font-size:12px;fill:#999;}.cls-2,.cls-3,.cls-4{font-family:PTSans-Regular, PT Sans;}.cls-3{font-size:20px;}.cls-4{font-size:24px;}.cls-5,.cls-6{stroke:#000;}.cls-6{stroke-dasharray:3.08 3.08;}</style></defs><title>6floor_611flat</title><line class="cls-1" x1="138.79" y1="10.8" x2="138.79" y2="2"/><polyline class="cls-1" points="142.4 5.3 138.9 1.8 135.4 5.3"/><text class="cls-2" transform="translate(148.22 10.2)">двор</text><text class="cls-3" transform="translate(128.87 184.5)">18.28</text><text class="cls-3" transform="translate(128.87 98.56)">0.88</text><text class="cls-3" transform="translate(60.35 529.68)">3.46</text><text class="cls-3" transform="translate(162.39 556.72)">2.98</text><text class="cls-3" transform="translate(182.24 428.51)">4.08</text><text class="cls-4" transform="translate(138.69 267)">СТ</text><text class="cls-4" transform="translate(123.47 300.04)">29.68</text><text class="cls-4" transform="translate(120.3 234.46)">№611</text><polyline class="cls-5" points="111.67 308.41 111.67 211.21 192.73 211.21 192.73 308.41"/><line class="cls-5" x1="111.67" y1="243.67" x2="192.73" y2="243.67"/><line class="cls-5" x1="111.67" y1="308.41" x2="192.73" y2="308.41"/><line class="cls-5" x1="111.67" y1="276.13" x2="192.73" y2="276.13"/><polyline class="cls-5" points="269.5 80.72 58.75 43.86 58.75 123.19 269.5 123.19 269.5 80.72"/><polyline class="cls-5" points="150.5 605.6 261.89 605.6 261.89 494.22 150.5 494.22 150.5 605.6"/><polyline class="cls-5" points="145.29 489.01 295.55 489.01 295.55 428.51 295.55 370.81 145.29 370.81"/><line class="cls-5" x1="245.46" y1="594.79" x2="245.46" y2="591.18"/><line class="cls-5" x1="247.46" y1="589.18" x2="251.07" y2="589.18"/><line class="cls-5" x1="245.46" y1="587.57" x2="245.46" y2="583.97"/><line class="cls-5" x1="240.25" y1="589.18" x2="243.86" y2="589.18"/><line class="cls-5" x1="204.99" y1="600.39" x2="204.99" y2="584.77"/><line class="cls-5" x1="257.48" y1="585.57" x2="257.48" y2="549.11"/><line class="cls-5" x1="241.05" y1="548.71" x2="256.68" y2="548.71"/><line class="cls-5" x1="204.99" y1="600.39" x2="204.99" y2="584.77"/><line class="cls-5" x1="205.79" y1="601.2" x2="241.86" y2="601.2"/><line class="cls-5" x1="201.79" y1="603.6" x2="201.79" y2="584.77"/><line class="cls-5" x1="260.69" y1="603.6" x2="260.69" y2="545.9"/><line class="cls-5" x1="241.05" y1="545.5" x2="259.89" y2="545.5"/><line class="cls-5" x1="202.19" y1="604.4" x2="259.89" y2="604.4"/><path class="cls-5" d="M241.65,629.55a3.65,3.65,0,0,0,1.09-.17" transform="translate(0 -28.36)"/><path class="cls-5" d="M205,628.55a.6.6,0,0,0,.6.6" transform="translate(0 -28.36)"/><path class="cls-5" d="M241.65,629.55a3.65,3.65,0,0,0,1.09-.17" transform="translate(0 -28.36)"/><path class="cls-5" d="M240.85,573.46a39.47,39.47,0,0,0-39.46,39.47" transform="translate(0 -28.36)"/><path class="cls-5" d="M201.39,631.76a.6.6,0,0,0,.6.6" transform="translate(0 -28.36)"/><path class="cls-5" d="M240.85,576.66a36.27,36.27,0,0,0-36.26,36.27" transform="translate(0 -28.36)"/><path class="cls-5" d="M260.29,574.06a.6.6,0,0,0-.61-.6" transform="translate(0 -28.36)"/><path class="cls-5" d="M257.08,577.27a.6.6,0,0,0-.6-.61" transform="translate(0 -28.36)"/><path class="cls-5" d="M259.68,632.36a.6.6,0,0,0,.61-.6" transform="translate(0 -28.36)"/><path class="cls-5" d="M242,629.16a35.43,35.43,0,0,0,15.11-15.11" transform="translate(0 -28.36)"/><path class="cls-5" d="M257.3,614.81a3.35,3.35,0,0,0,.18-1.08" transform="translate(0 -28.36)"/><path class="cls-5" d="M242.56,629.16a23,23,0,0,0,14.53-14.52" transform="translate(0 -28.36)"/><path class="cls-5" d="M257.3,614.81a3.35,3.35,0,0,0,.18-1.08" transform="translate(0 -28.36)"/><path class="cls-5" d="M248.27,617.33a3,3,0,1,0-3,3,3,3,0,0,0,3-3" transform="translate(0 -28.36)"/><path class="cls-5" d="M249.47,617.33a4.21,4.21,0,1,0-4.21,4.21,4.21,4.21,0,0,0,4.21-4.21" transform="translate(0 -28.36)"/><polyline class="cls-5" points="188.97 589.58 188.97 604.4 153.71 604.4 153.71 589.58"/><line class="cls-5" x1="165.73" y1="604.4" x2="176.95" y2="604.4"/><line class="cls-5" x1="168.13" y1="592.38" x2="170.13" y2="592.38"/><line class="cls-5" x1="171.34" y1="595.59" x2="171.34" y2="593.58"/><line class="cls-5" x1="172.54" y1="592.38" x2="174.14" y2="592.38"/><line class="cls-5" x1="171.34" y1="591.18" x2="171.34" y2="589.58"/><path class="cls-5" d="M180.52,624.22a15.85,15.85,0,0,0,6.14-7.48" transform="translate(0 -28.36)"/><path class="cls-5" d="M171.07,626.3a15.83,15.83,0,0,0,9.43-2.22" transform="translate(0 -28.36)"/><path class="cls-5" d="M155.61,616.74a15.85,15.85,0,0,0,6.14,7.48" transform="translate(0 -28.36)"/><path class="cls-5" d="M161.77,624.08a15.84,15.84,0,0,0,9.43,2.22" transform="translate(0 -28.36)"/><path class="cls-5" d="M183.19,608.91A29.32,29.32,0,0,0,172.47,606" transform="translate(0 -28.36)"/><path class="cls-5" d="M156.68,610.3a9,9,0,0,0-3.37,7.42" transform="translate(0 -28.36)"/><path class="cls-5" d="M172.38,605.56a17.24,17.24,0,0,0-2.49,0" transform="translate(0 -28.36)"/><path class="cls-5" d="M161.21,623.58a64.83,64.83,0,0,0,19.86,0" transform="translate(0 -28.36)"/><path class="cls-5" d="M154.51,615.35a22.22,22.22,0,0,0,5,14.45" transform="translate(0 -28.36)"/><path class="cls-5" d="M161,630.86a44.76,44.76,0,0,0,10.12,1.1" transform="translate(0 -28.36)"/><path class="cls-5" d="M159.19,629.65a3,3,0,0,0,1.67,1" transform="translate(0 -28.36)"/><path class="cls-5" d="M161.09,630a74.67,74.67,0,0,0,10,.72" transform="translate(0 -28.36)"/><path class="cls-5" d="M154.51,615.47a19.87,19.87,0,0,0,5,13.38" transform="translate(0 -28.36)"/><path class="cls-5" d="M159.27,628.94a3,3,0,0,0,1.84,1" transform="translate(0 -28.36)"/><path class="cls-5" d="M182.79,628.87a19.82,19.82,0,0,0,5-13.37" transform="translate(0 -28.36)"/><path class="cls-5" d="M182.73,629.83a22.28,22.28,0,0,0,5-14.45" transform="translate(0 -28.36)"/><path class="cls-5" d="M171.06,630.75a76.34,76.34,0,0,0,10-.7" transform="translate(0 -28.36)"/><path class="cls-5" d="M171.14,632a44.83,44.83,0,0,0,10.13-1.08" transform="translate(0 -28.36)"/><path class="cls-5" d="M181.16,629.93a3,3,0,0,0,1.84-1" transform="translate(0 -28.36)"/><path class="cls-5" d="M181.41,630.68a3.07,3.07,0,0,0,1.67-1" transform="translate(0 -28.36)"/><path class="cls-5" d="M189,617.72a9,9,0,0,0-3.37-7.42" transform="translate(0 -28.36)"/><path class="cls-5" d="M185.39,610.15a14.06,14.06,0,0,0-2.33-1.51" transform="translate(0 -28.36)"/><path class="cls-5" d="M159.22,608.64a13.28,13.28,0,0,0-2.33,1.51" transform="translate(0 -28.36)"/><path class="cls-5" d="M169.81,606a29.21,29.21,0,0,0-10.72,2.92" transform="translate(0 -28.36)"/><path class="cls-5" d="M176,608.49a20.83,20.83,0,0,0-9.68,0" transform="translate(0 -28.36)"/><path class="cls-5" d="M186.55,616.5a5.38,5.38,0,0,0-1.86-4.46" transform="translate(0 -28.36)"/><path class="cls-5" d="M184.79,612.62a18.91,18.91,0,0,0-8.75-4" transform="translate(0 -28.36)"/><path class="cls-5" d="M157.18,612a5.44,5.44,0,0,0-1.86,4.46" transform="translate(0 -28.36)"/><path class="cls-5" d="M166.23,608.61a19,19,0,0,0-8.75,4" transform="translate(0 -28.36)"/><path class="cls-5" d="M173.34,620.54a2.21,2.21,0,1,0-2.2,2.2,2.21,2.21,0,0,0,2.2-2.2" transform="translate(0 -28.36)"/><path class="cls-5" d="M172.94,620.54a1.81,1.81,0,1,0-1.8,1.8,1.8,1.8,0,0,0,1.8-1.8" transform="translate(0 -28.36)"/><line class="cls-5" x1="250.67" y1="531.48" x2="227.83" y2="531.48"/><polyline class="cls-5" points="252.27 532.68 260.69 532.68 260.69 508.24"/><line class="cls-5" x1="246.66" y1="520.26" x2="246.66" y2="511.45"/><polyline class="cls-5" points="227.83 531.48 246.66 529.48 246.66 520.26"/><line class="cls-5" x1="227.83" y1="509.44" x2="246.66" y2="511.45"/><line class="cls-5" x1="227.83" y1="531.08" x2="246.66" y2="528.67"/><line class="cls-5" x1="227.83" y1="509.84" x2="246.66" y2="511.85"/><line class="cls-5" x1="250.67" y1="509.44" x2="227.83" y2="509.44"/><line class="cls-5" x1="260.69" y1="508.24" x2="252.27" y2="508.24"/><polyline class="cls-5" points="227.83 531.48 225.43 531.48 223.02 530.28 221.02 528.67 219.42 526.67 218.22 524.27 217.41 521.86 217.41 519.06 218.22 516.25 219.42 514.25 221.02 511.85 223.02 510.64 225.43 509.44 227.83 509.44"/><polyline class="cls-5" points="227.83 531.08 225.43 530.68 223.42 529.88 221.42 528.27 219.82 526.27 218.62 524.27 218.22 521.86 218.22 519.06 218.62 516.65 219.82 514.25 221.42 512.65 223.42 511.05 225.43 510.24 227.83 509.84"/><polyline class="cls-5" points="252.27 508.24 251.87 508.24 251.47 508.24 251.47 508.64 251.07 508.64 251.07 509.04 250.67 509.44 250.27 520.26 250.67 531.48 251.07 531.88 251.07 532.28 251.47 532.28 251.87 532.68 252.27 532.68"/><polyline class="cls-5" points="256.68 520.26 256.68 520.66 256.28 521.06 255.88 521.46 255.48 521.46 255.08 521.46 254.68 521.46 254.28 521.06 254.28 520.66 254.28 520.26 254.28 519.86 254.68 519.46 255.08 519.46 255.08 519.06 255.48 519.06 255.48 519.46 255.88 519.46 256.28 519.46 256.28 519.86 256.68 520.26"/><polyline class="cls-5" points="277.51 123.19 274.31 123.19 269.5 123.19"/><line class="cls-5" x1="277.51" y1="73.91" x2="277.51" y2="123.19"/><line class="cls-5" x1="269.5" y1="80.72" x2="269.5" y2="123.19"/><polyline class="cls-5" points="277.51 73.91 277.51 80.72 274.31 80.72 274.31 76.72"/><polyline class="cls-5" points="274.31 123.19 274.31 119.19 277.51 119.19 277.51 123.19"/><line class="cls-5" x1="277.51" y1="80.72" x2="277.51" y2="119.19"/><line class="cls-5" x1="274.31" y1="119.19" x2="274.31" y2="80.72"/><line class="cls-5" x1="274.31" y1="76.72" x2="277.51" y2="76.72"/><line class="cls-5" x1="277.51" y1="123.19" x2="274.31" y2="123.19"/><line class="cls-5" x1="51.14" y1="34.65" x2="277.51" y2="73.91"/><line class="cls-5" x1="58.75" y1="43.86" x2="269.5" y2="80.72"/><polyline class="cls-5" points="54.34 38.65 58.35 39.45 58.75 35.85 51.13 34.65"/><polyline class="cls-5" points="277.51 73.91 270.7 73.11 270.3 76.32 274.31 76.72"/><line class="cls-5" x1="58.35" y1="39.45" x2="270.3" y2="76.32"/><line class="cls-5" x1="270.7" y1="73.11" x2="58.75" y2="35.85"/><line class="cls-5" x1="54.74" y1="35.45" x2="54.34" y2="38.65"/><line class="cls-5" x1="274.71" y1="73.51" x2="274.31" y2="76.72"/><polyline class="cls-5" points="51.13 123.19 54.34 123.19 58.75 123.19"/><line class="cls-5" x1="51.14" y1="34.65" x2="51.14" y2="123.19"/><line class="cls-5" x1="58.75" y1="43.86" x2="58.75" y2="123.19"/><polyline class="cls-5" points="51.13 34.65 51.13 42.66 54.34 42.66 54.34 38.65"/><polyline class="cls-5" points="54.34 123.19 54.34 119.19 51.13 119.19 51.13 123.19"/><line class="cls-5" x1="51.14" y1="42.66" x2="51.14" y2="119.19"/><line class="cls-5" x1="54.34" y1="119.19" x2="54.34" y2="42.66"/><line class="cls-5" x1="54.34" y1="38.65" x2="51.14" y2="38.65"/><line class="cls-5" x1="51.14" y1="123.19" x2="54.34" y2="123.19"/><polyline class="cls-5" points="145.29 605.6 145.29 494.22 13.47 494.22 13.47 605.6 65.96 605.6 145.29 605.6"/><line class="cls-5" x1="65.96" y1="618.83" x2="145.29" y2="618.83"/><polyline class="cls-5" points="145.29 370.81 295.55 370.81 295.55 195.31 295.55 146.43 13.47 146.43 13.47 195.31"/><polyline class="cls-5" points="13.47 195.31 13.47 428.51 13.47 489.01 145.29 489.01"/><path d="M.25,151.55h0Z" transform="translate(0 -28.36)"/><path class="cls-5" d="M.25,151.55h0Z" transform="translate(0 -28.36)"/><path d="M63.16,158.36h0ZM.25,151.55l62.91,6.81H.25Zm62.91,0H.25l62.91,6.81Z" transform="translate(0 -28.36)"/><path class="cls-5" d="M63.16,158.36h0ZM.25,151.55l62.91,6.81H.25Zm62.91,0H.25l62.91,6.81Z" transform="translate(0 -28.36)"/><path d="M.25,158.36h0Z" transform="translate(0 -28.36)"/><path class="cls-5" d="M.25,158.36h0Z" transform="translate(0 -28.36)"/><polyline points="308.77 123.19 191.77 123.19 308.77 123.19"/><polyline class="cls-5" points="308.77 123.19 191.77 123.19 308.77 123.19"/><polyline points="308.77 130.01 191.77 130.01 191.77 123.19 308.77 130.01"/><polyline points="308.77 123.19 191.77 123.19 308.77 130.01"/><polyline class="cls-5" points="308.77 130.01 191.77 130.01 191.77 123.19 308.77 130.01"/><polyline class="cls-5" points="308.77 123.19 191.77 123.19 308.77 130.01"/><polyline points="308.77 130.01 194.58 130.01 308.77 130.01"/><polyline points="308.77 130.01 194.58 130.01 308.77 130.01"/><polyline class="cls-5" points="308.77 130.01 194.58 130.01 308.77 130.01"/><polyline class="cls-5" points="308.77 130.01 194.58 130.01 308.77 130.01"/><path d="M.25,158.36h0Z" transform="translate(0 -28.36)"/><path class="cls-5" d="M.25,158.36h0Z" transform="translate(0 -28.36)"/><path d="M.25,162H13.47v12.82Zm0-3.61V162H13.47Z" transform="translate(0 -28.36)"/><path class="cls-5" d="M.25,162H13.47v12.82Zm0-3.61V162H13.47Z" transform="translate(0 -28.36)"/><polygon points="0.25 130.01 13.47 130.01 13.47 133.61 0.25 130.01"/><polygon class="cls-5" points="0.25 130.01 13.47 130.01 13.47 133.61 0.25 130.01"/><path d="M13.47,158.36h0Z" transform="translate(0 -28.36)"/><path class="cls-5" d="M13.47,158.36h0Z" transform="translate(0 -28.36)"/><path d="M13.47,158.36l46.88,3.21H13.47Zm46.88,0H13.47l46.88,3.21Z" transform="translate(0 -28.36)"/><path class="cls-5" d="M13.47,158.36l46.88,3.21H13.47Zm46.88,0H13.47l46.88,3.21Z" transform="translate(0 -28.36)"/><path d="M60.35,174.79H13.47V161.57Zm0,0Z" transform="translate(0 -28.36)"/><path class="cls-5" d="M60.35,174.79H13.47V161.57Zm0,0Z" transform="translate(0 -28.36)"/><polygon points="13.47 133.21 60.35 133.21 60.35 146.43 13.47 133.21"/><polygon class="cls-5" points="13.47 133.21 60.35 133.21 60.35 146.43 13.47 133.21"/><path d="M295.55,158.36h0Z" transform="translate(0 -28.36)"/><path class="cls-5" d="M295.55,158.36h0Z" transform="translate(0 -28.36)"/><path d="M194.58,158.36l101,3.21h-101Zm101,0h-101l101,3.21Z" transform="translate(0 -28.36)"/><path class="cls-5" d="M194.58,158.36l101,3.21h-101Zm101,0h-101l101,3.21Z" transform="translate(0 -28.36)"/><path d="M295.55,174.79h-101V161.57Zm0,0Z" transform="translate(0 -28.36)"/><path class="cls-5" d="M295.55,174.79h-101V161.57Zm0,0Z" transform="translate(0 -28.36)"/><polygon points="194.58 133.21 295.55 133.21 295.55 146.43 194.58 133.21"/><polygon class="cls-5" points="194.58 133.21 295.55 133.21 295.55 146.43 194.58 133.21"/><path d="M295.55,158.36h0Z" transform="translate(0 -28.36)"/><path class="cls-5" d="M295.55,158.36h0Z" transform="translate(0 -28.36)"/><path d="M308.77,174.79H295.55V158.36Zm0,0Z" transform="translate(0 -28.36)"/><path class="cls-5" d="M308.77,174.79H295.55V158.36Zm0,0Z" transform="translate(0 -28.36)"/><polygon points="295.55 130.01 308.77 130.01 308.77 146.43 295.55 130.01"/><polygon class="cls-5" points="295.55 130.01 308.77 130.01 308.77 146.43 295.55 130.01"/><polyline points="308.77 130.01 308.77 130.01 308.77 130.01"/><polyline class="cls-5" points="308.77 130.01 308.77 130.01 308.77 130.01"/><polyline points="308.77 133.21 308.77 133.21 308.77 130.01 308.77 133.21"/><polyline points="308.77 130.01 308.77 130.01 308.77 133.21"/><polyline class="cls-5" points="308.77 133.21 308.77 133.21 308.77 130.01 308.77 133.21"/><polyline class="cls-5" points="308.77 130.01 308.77 130.01 308.77 133.21"/><line class="cls-5" x1="0.25" y1="133.61" x2="0.25" y2="130.01"/><polyline class="cls-5" points="13.47 146.43 13.47 130.01 0.25 130.01"/><line class="cls-5" x1="60.35" y1="130.01" x2="13.47" y2="130.01"/><line class="cls-5" x1="295.55" y1="130.01" x2="194.58" y2="130.01"/><line class="cls-5" x1="308.77" y1="146.43" x2="308.77" y2="123.19"/><polyline class="cls-5" points="308.77 130.01 308.77 130.01 295.55 130.01 295.55 146.43"/><line class="cls-5" x1="60.35" y1="133.21" x2="60.35" y2="146.43"/><polyline class="cls-5" points="63.16 123.19 63.16 130.01 60.35 130.01 60.35 133.21"/><line class="cls-5" x1="194.58" y1="133.21" x2="194.58" y2="146.43"/><polyline class="cls-5" points="191.77 123.19 191.77 130.01 194.58 130.01 194.58 133.21"/><line class="cls-5" x1="13.47" y1="146.43" x2="60.35" y2="146.43"/><line class="cls-5" x1="194.58" y1="146.43" x2="295.55" y2="146.43"/><line class="cls-5" x1="191.77" y1="123.19" x2="63.16" y2="123.19"/><line class="cls-5" x1="194.58" y1="146.43" x2="60.35" y2="146.43"/><path d="M189.37,158.36h0Z" transform="translate(0 -28.36)"/><path class="cls-5" d="M189.37,158.36h0Z" transform="translate(0 -28.36)"/><path d="M194.58,161.57h-5.21v-3.21Zm0,0Z" transform="translate(0 -28.36)"/><path class="cls-5" d="M194.58,161.57h-5.21v-3.21Zm0,0Z" transform="translate(0 -28.36)"/><polygon points="189.37 130.01 194.58 130.01 194.58 133.21 189.37 130.01"/><polygon class="cls-5" points="189.37 130.01 194.58 130.01 194.58 133.21 189.37 130.01"/><path d="M127.66,158.36h0Z" transform="translate(0 -28.36)"/><path class="cls-5" d="M127.66,158.36h0Z" transform="translate(0 -28.36)"/><path d="M130.87,161.57h-3.21v-3.21Zm0,0Z" transform="translate(0 -28.36)"/><path class="cls-5" d="M130.87,161.57h-3.21v-3.21Zm0,0Z" transform="translate(0 -28.36)"/><polygon points="127.66 130.01 130.87 130.01 130.87 133.21 127.66 130.01"/><polygon class="cls-5" points="127.66 130.01 130.87 130.01 130.87 133.21 127.66 130.01"/><path d="M124.06,158.36h0Z" transform="translate(0 -28.36)"/><path class="cls-5" d="M124.06,158.36h0Z" transform="translate(0 -28.36)"/><path d="M127.66,161.57h-3.6v-3.21Zm0,0Z" transform="translate(0 -28.36)"/><path class="cls-5" d="M127.66,161.57h-3.6v-3.21Zm0,0Z" transform="translate(0 -28.36)"/><polygon points="124.06 130.01 127.66 130.01 127.66 133.21 124.06 130.01"/><polygon class="cls-5" points="124.06 130.01 127.66 130.01 127.66 133.21 124.06 130.01"/><path d="M60.35,158.36h0Z" transform="translate(0 -28.36)"/><path class="cls-5" d="M60.35,158.36h0Z" transform="translate(0 -28.36)"/><path d="M66,161.57H60.35v-3.21Zm0,0Z" transform="translate(0 -28.36)"/><path class="cls-5" d="M66,161.57H60.35v-3.21Zm0,0Z" transform="translate(0 -28.36)"/><polygon points="60.35 130.01 65.96 130.01 65.96 133.21 60.35 130.01"/><polygon class="cls-5" points="60.35 130.01 65.96 130.01 65.96 133.21 60.35 130.01"/><polyline class="cls-5" points="194.58 130.01 189.37 130.01 189.37 133.21 194.58 133.21"/><polyline class="cls-5" points="127.66 133.21 130.87 133.21 130.87 130.01 127.66 130.01"/><line class="cls-5" x1="189.37" y1="130.01" x2="130.87" y2="130.01"/><line class="cls-5" x1="130.87" y1="133.21" x2="189.37" y2="133.21"/><polyline class="cls-5" points="127.66 130.01 124.06 130.01 124.06 133.21 127.66 133.21"/><polyline class="cls-5" points="60.35 133.21 65.96 133.21 65.96 130.01 60.35 130.01"/><line class="cls-5" x1="124.06" y1="130.01" x2="65.96" y2="130.01"/><line class="cls-5" x1="65.96" y1="133.21" x2="124.06" y2="133.21"/><polyline class="cls-5" points="191.77 130.01 194.58 130.01 194.58 133.21"/><polyline class="cls-5" points="63.16 130.01 60.35 130.01 60.35 133.21"/><path d="M13.47,235.69h0ZM.25,222.47l13.22,13.22H.25Z" transform="translate(0 -28.36)"/><path class="cls-5" d="M13.47,235.69h0ZM.25,222.47l13.22,13.22H.25Z" transform="translate(0 -28.36)"/><line class="cls-5" x1="0.25" y1="207.34" x2="0.25" y2="194.11"/><polyline class="cls-5" points="190.97 525.07 151.7 525.07 151.7 495.42 190.97 495.42 190.97 525.07"/><polygon points="0.25 133.61 13.47 146.43 0.25 146.43 0.25 133.61"/><polygon class="cls-5" points="0.25 133.61 13.47 146.43 0.25 146.43 0.25 133.61"/><path d="M.25,222.47H13.47v13.22Zm0-47.68v47.68H13.47Z" transform="translate(0 -28.36)"/><path class="cls-5" d="M.25,222.47H13.47v13.22Zm0-47.68v47.68H13.47Z" transform="translate(0 -28.36)"/><polygon points="0.25 146.43 13.47 146.43 13.47 194.11 0.25 146.43"/><polygon class="cls-5" points="0.25 146.43 13.47 146.43 13.47 194.11 0.25 146.43"/><line class="cls-5" x1="0.25" y1="133.61" x2="0.25" y2="194.11"/><line class="cls-5" x1="13.47" y1="207.34" x2="13.47" y2="146.43"/><path d="M124.86,517.37h0Z" transform="translate(0 -28.36)"/><path class="cls-5" d="M124.86,517.37h0Z" transform="translate(0 -28.36)"/><path d="M295.55,522.57H124.86v-5.2Zm0,0Z" transform="translate(0 -28.36)"/><path class="cls-5" d="M295.55,522.57H124.86v-5.2Zm0,0Z" transform="translate(0 -28.36)"/><polygon points="124.86 489.01 295.55 489.01 295.55 494.22 124.86 489.01"/><polygon class="cls-5" points="124.86 489.01 295.55 489.01 295.55 494.22 124.86 489.01"/><path d="M13.47,517.37h0Z" transform="translate(0 -28.36)"/><path class="cls-5" d="M13.47,517.37h0Z" transform="translate(0 -28.36)"/><path d="M66,522.57H13.47v-5.2Zm0,0Z" transform="translate(0 -28.36)"/><path class="cls-5" d="M66,522.57H13.47v-5.2Zm0,0Z" transform="translate(0 -28.36)"/><polygon points="13.47 489.01 65.96 489.01 65.96 494.22 13.47 489.01"/><polygon class="cls-5" points="13.47 489.01 65.96 489.01 65.96 494.22 13.47 489.01"/><line class="cls-5" x1="124.86" y1="489.01" x2="124.86" y2="494.22"/><polyline class="cls-5" points="65.96 489.01 65.96 494.22 13.47 494.22"/><line class="cls-5" x1="124.86" y1="494.22" x2="145.29" y2="494.22"/><line class="cls-5" x1="150.5" y1="494.22" x2="261.89" y2="494.22"/><polyline class="cls-5" points="267.5 494.22 295.55 494.22 295.55 489.01 124.86 489.01"/><polyline class="cls-5" points="65.96 489.01 13.47 489.01 13.47 494.22"/><line class="cls-5" x1="124.86" y1="489.01" x2="121.65" y2="489.01"/><line class="cls-5" x1="124.86" y1="494.22" x2="121.65" y2="494.22"/><line class="cls-5" x1="65.96" y1="489.01" x2="69.17" y2="489.01"/><line class="cls-5" x1="65.96" y1="494.22" x2="69.17" y2="494.22"/><line class="cls-5" x1="121.65" y1="494.22" x2="121.65" y2="489.01"/><polyline class="cls-5" points="69.17 494.22 69.17 489.01 69.17 436.52"/><path class="cls-5" d="M121.65,517.17A52.69,52.69,0,0,0,69,464.48" transform="translate(0 -28.36)"/><path d="M261.89,522.57h0Z" transform="translate(0 -28.36)"/><path class="cls-5" d="M261.89,522.57h0Z" transform="translate(0 -28.36)"/><path d="M267.5,639.17h-5.61V522.57Zm0,0Z" transform="translate(0 -28.36)"/><path class="cls-5" d="M267.5,639.17h-5.61V522.57Zm0,0Z" transform="translate(0 -28.36)"/><polygon points="261.89 494.22 267.5 494.22 267.5 610.81 261.89 494.22"/><polygon class="cls-5" points="261.89 494.22 267.5 494.22 267.5 610.81 261.89 494.22"/><line class="cls-5" x1="267.5" y1="610.81" x2="267.5" y2="532.28"/><line class="cls-5" x1="267.5" y1="527.07" x2="267.5" y2="494.22"/><polyline class="cls-5" points="261.89 494.22 261.89 610.81 267.5 610.81"/><path d="M145.29,522.57h0Z" transform="translate(0 -28.36)"/><path class="cls-5" d="M145.29,522.57h0Z" transform="translate(0 -28.36)"/><path d="M150.5,550.62h-5.21v-28Zm0,0Z" transform="translate(0 -28.36)"/><path class="cls-5" d="M150.5,550.62h-5.21v-28Zm0,0Z" transform="translate(0 -28.36)"/><polygon points="145.29 494.22 150.5 494.22 150.5 522.26 145.29 494.22"/><polygon class="cls-5" points="145.29 494.22 150.5 494.22 150.5 522.26 145.29 494.22"/><path d="M150.5,603.11h0Z" transform="translate(0 -28.36)"/><path class="cls-5" d="M150.5,603.11h0Z" transform="translate(0 -28.36)"/><path d="M150.5,639.17h-5.21V603.11Zm0,0Z" transform="translate(0 -28.36)"/><path class="cls-5" d="M150.5,639.17h-5.21V603.11Zm0,0Z" transform="translate(0 -28.36)"/><polygon points="145.29 574.75 150.5 574.75 150.5 610.81 145.29 574.75"/><polygon class="cls-5" points="145.29 574.75 150.5 574.75 150.5 610.81 145.29 574.75"/><line class="cls-5" x1="145.29" y1="522.26" x2="150.5" y2="522.26"/><line class="cls-5" x1="145.29" y1="574.75" x2="150.5" y2="574.75"/><line class="cls-5" x1="145.29" y1="494.22" x2="145.29" y2="522.26"/><polyline class="cls-5" points="145.29 574.75 145.29 610.81 150.5 610.81 150.5 574.75"/><line class="cls-5" x1="150.5" y1="522.26" x2="150.5" y2="494.22"/><line class="cls-5" x1="145.29" y1="522.26" x2="145.29" y2="525.87"/><line class="cls-5" x1="150.5" y1="522.26" x2="150.5" y2="525.87"/><line class="cls-5" x1="145.29" y1="574.75" x2="145.29" y2="571.55"/><line class="cls-5" x1="150.5" y1="574.75" x2="150.5" y2="571.55"/><line class="cls-5" x1="150.5" y1="525.87" x2="145.29" y2="525.87"/><polyline class="cls-5" points="150.5 571.55 145.29 571.55 122.05 531.88"/><path class="cls-5" d="M145.09,553.83A45.9,45.9,0,0,0,122.16,560" transform="translate(0 -28.36)"/><path d="M295.55,555.43h0Z" transform="translate(0 -28.36)"/><path class="cls-5" d="M295.55,555.43h0Z" transform="translate(0 -28.36)"/><path d="M295.55,560.64H267.5v-5.21Zm0,0Z" transform="translate(0 -28.36)"/><path class="cls-5" d="M295.55,560.64H267.5v-5.21Zm0,0Z" transform="translate(0 -28.36)"/><polygon points="267.5 527.07 295.55 527.07 295.55 532.28 267.5 527.07"/><polygon class="cls-5" points="267.5 527.07 295.55 527.07 295.55 532.28 267.5 527.07"/><polyline class="cls-5" points="267.5 532.28 295.55 532.28 295.55 527.07 267.5 527.07"/><path d="M295.55,522.57h0Z" transform="translate(0 -28.36)"/><path class="cls-5" d="M295.55,522.57h0Z" transform="translate(0 -28.36)"/><path d="M295.55,634h13.22v13.22Zm0-111.39V634h13.22Z" transform="translate(0 -28.36)"/><path class="cls-5" d="M295.55,634h13.22v13.22Zm0-111.39V634h13.22Z" transform="translate(0 -28.36)"/><polygon points="295.55 494.22 308.77 494.22 308.77 605.6 295.55 494.22"/><polygon class="cls-5" points="295.55 494.22 308.77 494.22 308.77 605.6 295.55 494.22"/><line class="cls-5" x1="308.77" y1="618.83" x2="308.77" y2="605.6"/><polyline class="cls-5" points="308.77 592.78 308.77 494.22 295.55 494.22 295.55 605.6"/><path d="M295.55,223.67h0Z" transform="translate(0 -28.36)"/><path class="cls-5" d="M295.55,223.67h0Z" transform="translate(0 -28.36)"/><path d="M308.77,456.86H295.55V223.67Zm0,0Z" transform="translate(0 -28.36)"/><path class="cls-5" d="M308.77,456.86H295.55V223.67Zm0,0Z" transform="translate(0 -28.36)"/><polygon points="295.55 195.31 308.77 195.31 308.77 428.51 295.55 195.31"/><polygon class="cls-5" points="295.55 195.31 308.77 195.31 308.77 428.51 295.55 195.31"/><polyline class="cls-5" points="308.77 428.51 308.77 195.31 295.55 195.31 295.55 428.51 308.77 428.51"/><path d="M66,634l6.41,13.22H66Zm6.41,0H66l6.41,13.22Z" transform="translate(0 -28.36)"/><path class="cls-5" d="M66,634l6.41,13.22H66Zm6.41,0H66l6.41,13.22Z" transform="translate(0 -28.36)"/><path d="M138.08,634h0Z" transform="translate(0 -28.36)"/><path class="cls-5" d="M138.08,634h0Z" transform="translate(0 -28.36)"/><path d="M308.77,647.18H138.08V634Zm0,0Z" transform="translate(0 -28.36)"/><path class="cls-5" d="M308.77,647.18H138.08V634Zm0,0Z" transform="translate(0 -28.36)"/><polygon points="138.08 605.6 295.55 605.6 308.77 618.83 138.08 605.6"/><polygon class="cls-5" points="138.08 605.6 295.55 605.6 308.77 618.83 138.08 605.6"/><line class="cls-5" x1="72.37" y1="605.6" x2="72.37" y2="618.83"/><line class="cls-5" x1="138.08" y1="605.6" x2="138.08" y2="618.83"/><line class="cls-5" x1="65.96" y1="618.83" x2="72.37" y2="618.83"/><line class="cls-5" x1="138.08" y1="618.83" x2="308.77" y2="618.83"/><line class="cls-5" x1="295.55" y1="605.6" x2="138.08" y2="605.6"/><polyline class="cls-5" points="72.37 605.6 65.96 605.6 65.96 618.83"/><path class="cls-5" d="M135.28,633.76A60.3,60.3,0,0,0,75,573.46" transform="translate(0 -28.36)"/><path d="M135.28,634h0Z" transform="translate(0 -28.36)"/><path class="cls-5" d="M135.28,634h0Z" transform="translate(0 -28.36)"/><path d="M138.08,647.18h-2.8V634Zm0,0Z" transform="translate(0 -28.36)"/><path class="cls-5" d="M138.08,647.18h-2.8V634Zm0,0Z" transform="translate(0 -28.36)"/><polygon points="135.28 605.6 138.08 605.6 138.08 618.83 135.28 605.6"/><polygon class="cls-5" points="135.28 605.6 138.08 605.6 138.08 618.83 135.28 605.6"/><path d="M72.37,634h0Z" transform="translate(0 -28.36)"/><path class="cls-5" d="M72.37,634h0Z" transform="translate(0 -28.36)"/><path d="M75.18,647.18H72.37V634Zm0,0Z" transform="translate(0 -28.36)"/><path class="cls-5" d="M75.18,647.18H72.37V634Zm0,0Z" transform="translate(0 -28.36)"/><polygon points="72.37 605.6 75.18 605.6 75.18 618.83 72.37 605.6"/><polygon class="cls-5" points="72.37 605.6 75.18 605.6 75.18 618.83 72.37 605.6"/><polyline class="cls-5" points="138.08 618.83 135.28 618.83 135.28 605.6 138.08 605.6 138.08 618.83"/><polyline class="cls-5" points="72.37 605.6 75.18 605.6 75.18 618.83 72.37 618.83 72.37 605.6"/><line class="cls-5" x1="75.18" y1="605.6" x2="75.18" y2="545.5"/><line class="cls-5" x1="138.08" y1="605.6" x2="138.08" y2="618.83"/><line class="cls-5" x1="72.37" y1="605.6" x2="72.37" y2="618.83"/><path d="M.25,235.69h0Z" transform="translate(0 -28.36)"/><path class="cls-5" d="M.25,235.69h0Z" transform="translate(0 -28.36)"/><path d="M13.47,456.86H.25V235.69Zm0,0Z" transform="translate(0 -28.36)"/><path class="cls-5" d="M13.47,456.86H.25V235.69Zm0,0Z" transform="translate(0 -28.36)"/><polygon points="0.25 207.34 13.47 207.34 13.47 428.51 0.25 207.34"/><polygon class="cls-5" points="0.25 207.34 13.47 207.34 13.47 428.51 0.25 207.34"/><polyline class="cls-5" points="13.47 428.51 13.47 207.34 0.25 207.34 0.25 428.51 13.47 428.51"/><path d="M52.74,647.18h0Z" transform="translate(0 -28.36)"/><path class="cls-5" d="M52.74,647.18h0Z" transform="translate(0 -28.36)"/><path d="M.25,634h0Z" transform="translate(0 -28.36)"/><path class="cls-5" d="M.25,634h0Z" transform="translate(0 -28.36)"/><path d="M13.47,647.18H.25V634Zm0,0Z" transform="translate(0 -28.36)"/><path class="cls-5" d="M13.47,647.18H.25V634Zm0,0Z" transform="translate(0 -28.36)"/><polygon points="0.25 605.6 13.47 605.6 13.47 618.83 0.25 605.6"/><polygon class="cls-5" points="0.25 605.6 13.47 605.6 13.47 618.83 0.25 605.6"/><path d="M.25,522.57h0Z" transform="translate(0 -28.36)"/><path class="cls-5" d="M.25,522.57h0Z" transform="translate(0 -28.36)"/><path d="M13.47,634H.25V522.57Zm0,0Z" transform="translate(0 -28.36)"/><path class="cls-5" d="M13.47,634H.25V522.57Zm0,0Z" transform="translate(0 -28.36)"/><polygon points="0.25 494.22 13.47 494.22 13.47 605.6 0.25 494.22"/><polygon class="cls-5" points="0.25 494.22 13.47 494.22 13.47 605.6 0.25 494.22"/><line class="cls-5" x1="0.25" y1="618.83" x2="13.47" y2="618.83"/><polyline class="cls-5" points="0.25 605.6 0.25 494.22 13.47 494.22 13.47 605.6 0.25 605.6"/><line class="cls-5" x1="0.25" y1="618.83" x2="13.47" y2="618.83"/><polyline class="cls-5" points="256.28 489.01 256.28 449.34 216.61 449.34 216.61 489.01 236.65 489.01 256.28 489.01"/><polyline class="cls-5" points="253.47 486.2 253.47 452.15 219.42 452.15 219.42 486.2 236.65 486.2 253.47 486.2"/><line class="cls-5" x1="145.29" y1="494.22" x2="145.29" y2="494.22"/><line class="cls-5" x1="145.29" y1="482.2" x2="145.29" y2="462.56"/><line class="cls-5" x1="145.29" y1="452.15" x2="145.29" y2="450.65"/><line class="cls-6" x1="145.29" y1="447.57" x2="145.29" y2="399.89"/><line class="cls-5" x1="145.29" y1="398.35" x2="145.29" y2="396.85"/><line class="cls-5" x1="145.29" y1="391.64" x2="145.29" y2="372.01"/><line class="cls-5" x1="145.29" y1="370.81" x2="145.29" y2="370.81"/><polyline class="cls-5" points="256.28 449.34 145.29 449.34 145.29 489.01"/><line class="cls-5" x1="295.55" y1="370.81" x2="295.55" y2="370.81"/><line class="cls-5" x1="270.3" y1="370.81" x2="250.67" y2="370.81"/><line class="cls-5" x1="240.25" y1="370.81" x2="220.22" y2="370.81"/><line class="cls-5" x1="209.8" y1="370.81" x2="190.17" y2="370.81"/><line class="cls-5" x1="179.75" y1="370.81" x2="160.12" y2="370.81"/><polyline class="cls-5" points="145.29 370.81 145.29 370.81 295.55 370.81"/><line class="cls-5" x1="256.28" y1="449.34" x2="256.28" y2="370.81"/><polyline class="cls-5" points="256.28 396.85 145.29 396.85 145.29 370.81"/><path d="M13.47,634h0Z" transform="translate(0 -28.36)"/><path class="cls-5" d="M13.47,634h0Z" transform="translate(0 -28.36)"/><path d="M66,647.18H13.47V634Zm0,0Z" transform="translate(0 -28.36)"/><path class="cls-5" d="M66,647.18H13.47V634Zm0,0Z" transform="translate(0 -28.36)"/><polygon points="13.47 605.6 65.96 605.6 65.96 618.83 13.47 605.6"/><polygon class="cls-5" points="13.47 605.6 65.96 605.6 65.96 618.83 13.47 605.6"/><polyline class="cls-5" points="13.47 618.83 65.96 618.83 65.96 605.6 13.47 605.6"/><path d="M295.55,456.86h0Z" transform="translate(0 -28.36)"/><path class="cls-5" d="M295.55,456.86h0Z" transform="translate(0 -28.36)"/><path d="M308.77,522.57H295.55V456.86Zm0,0Z" transform="translate(0 -28.36)"/><path class="cls-5" d="M308.77,522.57H295.55V456.86Zm0,0Z" transform="translate(0 -28.36)"/><polygon points="295.55 428.51 308.77 428.51 308.77 494.22 295.55 428.51"/><polygon class="cls-5" points="295.55 428.51 308.77 428.51 308.77 494.22 295.55 428.51"/><polyline class="cls-5" points="308.77 494.22 308.77 428.51 295.55 428.51 295.55 494.22 308.77 494.22"/><path d="M295.55,174.79h0Z" transform="translate(0 -28.36)"/><path class="cls-5" d="M295.55,174.79h0Z" transform="translate(0 -28.36)"/><path d="M308.77,223.67H295.55V174.79Zm0,0Z" transform="translate(0 -28.36)"/><path class="cls-5" d="M308.77,223.67H295.55V174.79Zm0,0Z" transform="translate(0 -28.36)"/><polygon points="295.55 146.43 308.77 146.43 308.77 195.31 295.55 146.43"/><polygon class="cls-5" points="295.55 146.43 308.77 146.43 308.77 195.31 295.55 146.43"/><line class="cls-5" x1="308.77" y1="195.32" x2="308.77" y2="146.43"/><polyline class="cls-5" points="295.55 146.43 295.55 195.31 308.77 195.31"/><path d="M.25,456.86h0Z" transform="translate(0 -28.36)"/><path class="cls-5" d="M.25,456.86h0Z" transform="translate(0 -28.36)"/><path d="M13.47,522.57H.25V456.86Zm0,0Z" transform="translate(0 -28.36)"/><path class="cls-5" d="M13.47,522.57H.25V456.86Zm0,0Z" transform="translate(0 -28.36)"/><polygon points="0.25 428.51 13.47 428.51 13.47 494.22 0.25 428.51"/><polygon class="cls-5" points="0.25 428.51 13.47 428.51 13.47 494.22 0.25 428.51"/><polyline class="cls-5" points="13.47 494.22 13.47 428.51 0.25 428.51 0.25 494.22 13.47 494.22"/></svg>