<svg id="_803" data-name="803" xmlns="http://www.w3.org/2000/svg" viewBox="0 0 435.7 610.13"><defs><style>.cls-1,.cls-5{fill:none;}.cls-1{stroke:#999;}.cls-1,.cls-5,.cls-7{stroke-linecap:round;stroke-linejoin:round;stroke-width:0.5px;}.cls-2{isolation:isolate;font-size:12px;fill:#999;}.cls-2,.cls-4,.cls-6{font-family:PTSans-Regular, PT Sans;}.cls-3{letter-spacing:-0.01em;}.cls-4{font-size:24px;}.cls-5,.cls-7{stroke:#000;}.cls-6{font-size:20px;}.cls-7{fill:#000001;}</style></defs><title>11floor_803flat</title><line class="cls-1" x1="202.33" y1="598.79" x2="202.33" y2="607.59"/><polyline class="cls-1" points="198.74 604.29 202.24 607.79 205.74 604.29"/><text class="cls-2" transform="translate(211.56 607.19)"><tspan class="cls-3">у</tspan><tspan x="5.42" y="0">лица</tspan></text><text class="cls-4" transform="translate(303.24 418.19)">1К</text><text class="cls-4" transform="translate(288.38 451.23)">36.97</text><text class="cls-4" transform="translate(285.21 385.65)">№803</text><polyline class="cls-5" points="276.57 459.6 276.57 362.4 357.63 362.4 357.63 459.6"/><line class="cls-5" x1="276.57" y1="394.86" x2="357.63" y2="394.86"/><line class="cls-5" x1="276.57" y1="459.6" x2="357.63" y2="459.6"/><line class="cls-5" x1="276.57" y1="427.32" x2="357.63" y2="427.32"/><line class="cls-5" x1="2.21" y1="127.4" x2="2.21" y2="127.4"/><line class="cls-5" x1="2.21" y1="132.1" x2="2.21" y2="132.1"/><polyline class="cls-5" points="2.21 136.03 2.21 135.24 2.21 134.46 2.21 134.07 2.21 133.67 2.21 132.89 2.21 132.89 2.21 132.5 2.21 132.1 2.21 132.1"/><polyline class="cls-5" points="2.21 140.34 2.21 139.95 2.21 139.56 2.21 139.17 2.21 138.78"/><polyline class="cls-5" points="0.25 521.39 0.25 521.39 0.25 471.16"/><line class="cls-5" x1="0.25" y1="471.16" x2="0.25" y2="471.16"/><polyline class="cls-5" points="5.35 521.39 180.37 521.39 180.37 471.16 8.49 471.16 5.35 471.16 5.35 521.39"/><polyline class="cls-5" points="415.04 508.44 415.04 168.21 287.5 168.21 287.5 210.59 203.92 210.59 203.92 270.63 203.92 456.25 203.92 508.44 415.04 508.44"/><polyline class="cls-5" points="15.16 270.63 15.16 387.96 15.16 448 198.82 448 198.82 270.63 190.97 270.63 190.97 210.59 15.16 210.59 15.16 270.63"/><polyline class="cls-5" points="318.5 37.92 223.54 37.92 223.54 121.9 287.5 121.9 287.5 163.11 415.04 163.11 415.04 13.2 318.5 13.2 318.5 37.92"/><polyline class="cls-5" points="46.16 205.49 278.87 205.49 282.01 205.49 282.01 127.39 278.87 127.39 46.16 127.39 46.16 205.49"/><polyline class="cls-5" points="2.21 114.05 210.59 114.05 210.59 13.2"/><path d="M425.64,524.53h0Z"/><path class="cls-5" d="M425.64,524.53h0Z"/><path d="M435.45,531.2h-9.81v-6.67Zm0,0Z"/><path class="cls-5" d="M435.45,531.2h-9.81v-6.67Zm0,0Z"/><polygon points="425.64 524.53 429.56 524.53 435.45 531.2 425.64 524.53"/><polygon class="cls-5" points="425.64 524.53 429.56 524.53 435.45 531.2 425.64 524.53"/><path d="M191,524.53h0Z"/><path class="cls-5" d="M191,524.53h0Z"/><path d="M225.5,531.2H191v-6.67Zm0,0Z"/><path class="cls-5" d="M225.5,531.2H191v-6.67Zm0,0Z"/><polygon points="190.97 524.53 225.5 524.53 225.5 531.2 190.97 524.53"/><polygon class="cls-5" points="190.97 524.53 225.5 524.53 225.5 531.2 190.97 524.53"/><path d="M333,524.53h0Zm2.74,0h0Z"/><path class="cls-5" d="M333,524.53h0Zm2.74,0h0Z"/><path d="M285.54,524.53l50.23,6.67H285.54Zm50.23,0H285.54l50.23,6.67Z"/><path class="cls-5" d="M285.54,524.53l50.23,6.67H285.54Zm50.23,0H285.54l50.23,6.67Z"/><path d="M425.64,524.53h0Zm0,0Z"/><path class="cls-5" d="M425.64,524.53h0Zm0,0Z"/><path d="M395.42,524.53l30.22,6.67H395.42Zm30.22,0H395.42l30.22,6.67Z"/><path class="cls-5" d="M395.42,524.53l30.22,6.67H395.42Zm30.22,0H395.42l30.22,6.67Z"/><path d="M187.44,524.53h0Z"/><path class="cls-5" d="M187.44,524.53h0Z"/><path d="M187.44,524.53l3.53,5.88h-9.81Zm3.53,0h-3.53l3.53,5.88Z"/><path class="cls-5" d="M187.44,524.53l3.53,5.88h-9.81Zm3.53,0h-3.53l3.53,5.88Z"/><path d="M191,531.2h-9.81v-.79Zm0,0Z"/><path class="cls-5" d="M191,531.2h-9.81v-.79Zm0,0Z"/><polygon points="181.16 530.41 190.97 530.41 190.97 531.2 181.16 530.41"/><polygon class="cls-5" points="181.16 530.41 190.97 530.41 190.97 531.2 181.16 530.41"/><polygon points="181.16 530.41 181.16 531.2 180.37 531.2 181.16 530.41"/><polygon class="cls-5" points="181.16 530.41 181.16 531.2 180.37 531.2 181.16 530.41"/><path d="M429.56,524.53h0Zm-3.92-4.32,3.92,4.32h-3.92Z"/><path class="cls-5" d="M429.56,524.53h0Zm-3.92-4.32,3.92,4.32h-3.92Z"/><polygon points="415.04 508.44 425.64 520.21 415.04 520.21 415.04 508.44"/><polygon class="cls-5" points="415.04 508.44 425.64 520.21 415.04 520.21 415.04 508.44"/><path d="M425.64,524.53H415v-4.32Zm0,0Z"/><path class="cls-5" d="M425.64,524.53H415v-4.32Zm0,0Z"/><polygon points="415.04 520.21 425.64 520.21 425.64 524.53 415.04 520.21"/><polygon class="cls-5" points="415.04 520.21 425.64 520.21 425.64 524.53 415.04 520.21"/><path d="M203.92,508.44h0Z"/><path class="cls-5" d="M203.92,508.44h0Z"/><path d="M203.92,508.44l18.83,12.95H203.92Zm18.83,0H203.92l18.83,12.95Z"/><path class="cls-5" d="M203.92,508.44l18.83,12.95H203.92Zm18.83,0H203.92l18.83,12.95Z"/><path d="M222.75,524.53H203.92v-3.14Zm0,0Z"/><path class="cls-5" d="M222.75,524.53H203.92v-3.14Zm0,0Z"/><polygon points="203.92 521.39 222.75 521.39 222.75 524.53 203.92 521.39"/><polygon class="cls-5" points="203.92 521.39 222.75 521.39 222.75 524.53 203.92 521.39"/><path d="M287.9,508.44,333,521.39H287.9Zm45.13,0H287.9L333,521.39Z"/><path class="cls-5" d="M287.9,508.44,333,521.39H287.9Zm45.13,0H287.9L333,521.39Z"/><path d="M287.9,521.39,333,524.53H287.9Zm45.13,0H287.9L333,524.53Z"/><path class="cls-5" d="M287.9,521.39,333,524.53H287.9Zm45.13,0H287.9L333,524.53Z"/><path d="M398.17,508.44,415,521.39H398.17Zm16.87,0H398.17L415,521.39Z"/><path class="cls-5" d="M398.17,508.44,415,521.39H398.17Zm16.87,0H398.17L415,521.39Z"/><path d="M398.17,521.39,415,524.53H398.17Zm16.87,0H398.17L415,524.53Z"/><path class="cls-5" d="M398.17,521.39,415,524.53H398.17Zm16.87,0H398.17L415,524.53Z"/><polygon points="203.92 508.44 203.92 521 190.97 521 203.92 508.44"/><polygon class="cls-5" points="203.92 508.44 203.92 521 190.97 521 203.92 508.44"/><path d="M203.92,524.53H191V521Zm0,0Z"/><path class="cls-5" d="M203.92,524.53H191V521Zm0,0Z"/><polygon points="190.97 521 203.92 521 203.92 524.53 190.97 521"/><polygon class="cls-5" points="190.97 521 203.92 521 203.92 524.53 190.97 521"/><path d="M191,524.53h0Zm0-3.53v3.53h-3.53Z"/><path class="cls-5" d="M191,524.53h0Zm0-3.53v3.53h-3.53Z"/><line class="cls-5" x1="181.16" y1="530.41" x2="181.16" y2="531.2"/><line class="cls-5" x1="425.64" y1="520.21" x2="425.64" y2="524.53"/><polyline class="cls-5" points="415.04 508.44 415.04 524.53 425.64 524.53"/><line class="cls-5" x1="203.92" y1="524.53" x2="222.75" y2="524.53"/><line class="cls-5" x1="398.17" y1="524.53" x2="415.04" y2="524.53"/><line class="cls-5" x1="287.9" y1="524.53" x2="333.03" y2="524.53"/><polyline class="cls-5" points="203.92 508.44 203.92 524.53 190.97 524.53 190.97 521"/><line class="cls-5" x1="287.9" y1="521.39" x2="287.9" y2="508.44"/><polyline class="cls-5" points="285.54 531.2 285.54 524.53 287.9 524.53 287.9 521.39"/><line class="cls-5" x1="222.75" y1="521.39" x2="222.75" y2="508.44"/><polyline class="cls-5" points="225.5 531.2 225.5 524.53 222.75 524.53 222.75 521.39"/><line class="cls-5" x1="398.17" y1="521.39" x2="398.17" y2="508.44"/><polyline class="cls-5" points="395.42 531.2 395.42 524.53 398.17 524.53 398.17 521.39"/><line class="cls-5" x1="333.03" y1="521.39" x2="333.03" y2="508.44"/><polyline class="cls-5" points="335.77 531.2 335.77 524.53 333.02 524.53 333.02 521.39"/><line class="cls-5" x1="415.04" y1="508.44" x2="398.17" y2="508.44"/><line class="cls-5" x1="333.03" y1="508.44" x2="287.9" y2="508.44"/><line class="cls-5" x1="222.75" y1="508.44" x2="203.92" y2="508.44"/><polyline class="cls-5" points="180.37 531.2 181.16 531.2 190.97 531.2 225.5 531.2"/><line class="cls-5" x1="285.54" y1="531.2" x2="335.77" y2="531.2"/><polyline class="cls-5" points="435.45 531.2 425.64 531.2 395.42 531.2"/><line class="cls-5" x1="225.5" y1="531.2" x2="285.54" y2="531.2"/><line class="cls-5" x1="222.75" y1="508.44" x2="287.9" y2="508.44"/><path d="M222.75,521.39h0Z"/><path class="cls-5" d="M222.75,521.39h0Z"/><path d="M228.25,524.53h-5.5v-3.14Zm0,0Z"/><path class="cls-5" d="M228.25,524.53h-5.5v-3.14Zm0,0Z"/><polygon points="222.75 521.39 228.25 521.39 228.25 524.53 222.75 521.39"/><polygon class="cls-5" points="222.75 521.39 228.25 521.39 228.25 524.53 222.75 521.39"/><path d="M282.79,521.39h0Z"/><path class="cls-5" d="M282.79,521.39h0Z"/><path d="M287.9,524.53h-5.11v-3.14Zm0,0Z"/><path class="cls-5" d="M287.9,524.53h-5.11v-3.14Zm0,0Z"/><polygon points="282.8 521.39 287.9 521.39 287.9 524.53 282.8 521.39"/><polygon class="cls-5" points="282.8 521.39 287.9 521.39 287.9 524.53 282.8 521.39"/><polyline class="cls-5" points="222.75 521.39 228.25 521.39 228.25 524.53 222.75 524.53"/><polyline class="cls-5" points="287.9 524.53 282.8 524.53 282.8 521.39 287.9 521.39"/><line class="cls-5" x1="228.25" y1="521.39" x2="282.79" y2="521.39"/><line class="cls-5" x1="282.79" y1="524.53" x2="228.25" y2="524.53"/><polyline class="cls-5" points="225.5 524.53 222.75 524.53 222.75 521.39"/><polyline class="cls-5" points="285.54 524.53 287.9 524.53 287.9 521.39"/><line class="cls-5" x1="335.77" y1="531.2" x2="395.42" y2="531.2"/><line class="cls-5" x1="333.03" y1="508.44" x2="398.17" y2="508.44"/><path d="M333,521.39h0Z"/><path class="cls-5" d="M333,521.39h0Z"/><path d="M338.13,524.53H333v-3.14Zm0,0Z"/><path class="cls-5" d="M338.13,524.53H333v-3.14Zm0,0Z"/><polygon points="333.02 521.39 338.13 521.39 338.13 524.53 333.02 521.39"/><polygon class="cls-5" points="333.02 521.39 338.13 521.39 338.13 524.53 333.02 521.39"/><path d="M393.07,521.39h0Z"/><path class="cls-5" d="M393.07,521.39h0Z"/><path d="M398.17,524.53h-5.1v-3.14Zm0,0Z"/><path class="cls-5" d="M398.17,524.53h-5.1v-3.14Zm0,0Z"/><polygon points="393.07 521.39 398.17 521.39 398.17 524.53 393.07 521.39"/><polygon class="cls-5" points="393.07 521.39 398.17 521.39 398.17 524.53 393.07 521.39"/><polyline class="cls-5" points="333.02 521.39 338.13 521.39 338.13 524.53 333.02 524.53"/><polyline class="cls-5" points="398.17 524.53 393.07 524.53 393.07 521.39 398.17 521.39"/><line class="cls-5" x1="338.13" y1="521.39" x2="393.07" y2="521.39"/><line class="cls-5" x1="393.07" y1="524.53" x2="338.13" y2="524.53"/><polyline class="cls-5" points="335.77 524.53 333.02 524.53 333.02 521.39"/><polyline class="cls-5" points="395.42 524.53 398.17 524.53 398.17 521.39"/><line class="cls-5" x1="408.76" y1="154.47" x2="408.76" y2="123.47"/><line class="cls-5" x1="405.23" y1="119.55" x2="324.39" y2="119.55"/><line class="cls-5" x1="405.23" y1="158" x2="324.39" y2="158"/><line class="cls-5" x1="301.63" y1="116.02" x2="412.69" y2="116.02"/><polyline class="cls-5" points="301.63 116.02 301.63 161.54 412.69 161.54 412.69 116.02"/><line class="cls-5" x1="337.34" y1="151.73" x2="400.52" y2="151.73"/><line class="cls-5" x1="402.48" y1="149.76" x2="402.48" y2="127.79"/><line class="cls-5" x1="337.34" y1="126.22" x2="400.52" y2="126.22"/><line class="cls-5" x1="389.53" y1="139.95" x2="389.53" y2="142.31"/><line class="cls-5" x1="390.71" y1="138.78" x2="392.67" y2="138.78"/><line class="cls-5" x1="389.53" y1="137.6" x2="389.53" y2="135.64"/><line class="cls-5" x1="388.36" y1="138.78" x2="386" y2="138.78"/><polyline class="cls-5" points="324.39 119.55 320.86 119.94 317.33 121.12 314.19 122.69 311.44 124.65 309.09 127.39 307.13 130.14 305.95 133.67 305.16 137.21 305.16 140.74 305.95 144.27 307.13 147.41 309.09 150.55 311.44 152.9 314.19 155.26 317.33 156.83 320.86 157.61 324.39 158"/><polyline class="cls-5" points="408.76 123.47 408.76 122.69 408.76 122.29 408.37 121.51 407.98 121.12 407.58 120.72 406.8 120.33 406.41 119.94 405.62 119.94 405.23 119.55"/><polyline class="cls-5" points="405.23 158 405.62 158 406.41 157.61 406.8 157.61 407.58 157.22 407.98 156.83 408.37 156.04 408.76 155.65 408.76 154.87 408.76 154.47"/><polyline class="cls-5" points="391.5 138.78 391.5 138.38 391.1 137.99 390.71 137.6 390.71 137.21 390.32 137.21 389.93 137.21 389.53 136.81 389.14 136.81 388.75 137.21 388.36 137.21 388.36 137.6 387.96 137.6 387.57 137.99 387.57 138.38 387.57 138.78 387.57 139.17 387.57 139.56 387.96 139.95 388.36 140.34 388.75 140.74 389.14 140.74 389.53 140.74 389.93 140.74 390.32 140.74 390.71 140.34 391.1 139.95 391.1 139.56 391.5 139.17 391.5 138.78"/><polyline class="cls-5" points="337.34 126.22 334.99 126.22 332.63 127 330.67 127.79 328.71 129.36 327.14 131.32 325.96 133.28 325.18 135.24 324.39 137.6 324.39 139.95 325.18 142.31 325.96 144.66 327.14 146.62 328.71 148.19 330.67 149.76 332.63 150.94 334.99 151.33 337.34 151.73"/><polyline class="cls-5" points="400.52 151.73 400.91 151.73 401.31 151.73 401.31 151.33 401.7 151.33 402.09 150.94 402.09 150.55 402.48 150.16 402.48 149.76"/><polyline class="cls-5" points="402.48 127.79 402.48 127.39 402.09 127.39 402.09 127 402.09 126.61 401.7 126.61 401.31 126.22 400.91 126.22 400.52 126.22"/><polyline class="cls-5" points="391.89 138.78 391.89 138.38 391.89 137.99 391.5 137.6 391.1 137.21 391.1 136.81 390.32 136.42 389.93 136.42 389.53 136.42 389.14 136.42 388.75 136.42 387.96 136.81 387.57 136.81 387.57 137.21 387.18 137.6 386.79 137.99 386.79 138.78 386.79 139.17 386.79 139.56 387.18 139.95 387.57 140.34 387.57 140.74 387.96 141.13 388.75 141.13 389.14 141.52 389.53 141.52 389.93 141.52 390.32 141.13 391.1 141.13 391.1 140.74 391.5 140.34 391.89 139.95 391.89 139.17 391.89 138.78"/><polyline class="cls-5" points="270.24 54.01 270.24 39.49 234.92 39.49 234.92 54.01"/><line class="cls-5" x1="247.08" y1="39.49" x2="258.07" y2="39.49"/><line class="cls-5" x1="249.83" y1="51.27" x2="251.4" y2="51.27"/><line class="cls-5" x1="252.58" y1="48.13" x2="252.58" y2="50.09"/><line class="cls-5" x1="253.76" y1="51.27" x2="255.72" y2="51.27"/><line class="cls-5" x1="252.58" y1="52.44" x2="252.58" y2="54.4"/><path class="cls-5" d="M267.58,54.79a15.47,15.47,0,0,0-6-7.33"/><path class="cls-5" d="M261.56,47.6a15.52,15.52,0,0,0-9.24-2.17"/><path class="cls-5" d="M243.19,47.46a15.53,15.53,0,0,0-6,7.33"/><path class="cls-5" d="M252.45,45.43a15.52,15.52,0,0,0-9.24,2.17"/><path class="cls-5" d="M253.71,65.71a29.08,29.08,0,0,0,10.65-2.9"/><path class="cls-5" d="M234.93,53.83a8.81,8.81,0,0,0,3.29,7.26"/><path class="cls-5" d="M251.16,65.74a16.56,16.56,0,0,0,2.44,0"/><path class="cls-5" d="M262.23,48.1a64.36,64.36,0,0,0-19.69,0"/><path class="cls-5" d="M240.71,41.75a22.15,22.15,0,0,0-5,14.41"/><path class="cls-5" d="M252.32,39.89A43.93,43.93,0,0,0,242.23,41"/><path class="cls-5" d="M242.31,40.74a3,3,0,0,0-1.63,1"/><path class="cls-5" d="M252.35,41.06a74.85,74.85,0,0,0-9.92.72"/><path class="cls-5" d="M240.66,43.07a19.78,19.78,0,0,0-4.95,13.36"/><path class="cls-5" d="M242.56,41.88a2.91,2.91,0,0,0-1.8,1"/><path class="cls-5" d="M269.06,56.4a19.77,19.77,0,0,0-5-13.35"/><path class="cls-5" d="M269.06,56.13a22.22,22.22,0,0,0-5-14.41"/><path class="cls-5" d="M262.22,41.76a76.28,76.28,0,0,0-9.91-.7"/><path class="cls-5" d="M262.48,41a44.56,44.56,0,0,0-10.1-1.07"/><path class="cls-5" d="M264,42.84a3,3,0,0,0-1.81-1"/><path class="cls-5" d="M264.08,41.75a3,3,0,0,0-1.63-1"/><path class="cls-5" d="M266.54,61.09a8.82,8.82,0,0,0,3.3-7.26"/><path class="cls-5" d="M264.23,63.07a13.49,13.49,0,0,0,2.35-1.52"/><path class="cls-5" d="M238.18,61.55a13.88,13.88,0,0,0,2.35,1.52"/><path class="cls-5" d="M240.41,62.81a29,29,0,0,0,10.64,2.9"/><path class="cls-5" d="M247.55,63.25a20.79,20.79,0,0,0,9.67,0"/><path class="cls-5" d="M266.05,59.4A5.32,5.32,0,0,0,267.87,55"/><path class="cls-5" d="M257.26,63.14a19,19,0,0,0,8.74-4"/><path class="cls-5" d="M236.89,55a5.3,5.3,0,0,0,1.83,4.38"/><path class="cls-5" d="M238.76,59.13a19,19,0,0,0,8.75,4"/><path class="cls-5" d="M254.54,51.07a2.16,2.16,0,1,0-2.16,2.16,2.16,2.16,0,0,0,2.16-2.16"/><path class="cls-5" d="M254.15,51.07a1.77,1.77,0,1,0-1.77,1.76,1.77,1.77,0,0,0,1.77-1.76"/><line class="cls-5" x1="333.42" y1="24.58" x2="333.42" y2="47.34"/><polyline class="cls-5" points="332.24 23.01 332.24 14.77 356.57 14.77"/><line class="cls-5" x1="344.41" y1="28.5" x2="353.43" y2="28.5"/><polyline class="cls-5" points="333.42 46.95 335.38 28.5 344.4 28.5"/><line class="cls-5" x1="355.39" y1="46.95" x2="353.43" y2="28.5"/><line class="cls-5" x1="333.81" y1="46.95" x2="336.16" y2="28.5"/><line class="cls-5" x1="355" y1="46.95" x2="352.65" y2="28.5"/><line class="cls-5" x1="355.39" y1="24.58" x2="355.39" y2="47.34"/><line class="cls-5" x1="356.57" y1="14.77" x2="356.57" y2="23.01"/><polyline class="cls-5" points="333.42 46.95 333.81 49.7 334.6 52.05 336.16 54.01 338.13 55.58 340.48 56.76 343.23 57.54 345.58 57.54 348.33 56.76 350.68 55.58 352.65 54.01 354.22 52.05 355 49.7 355.39 46.95"/><polyline class="cls-5" points="333.81 46.95 334.2 49.3 334.99 51.66 336.56 53.62 338.52 55.19 340.48 56.37 343.23 57.15 345.58 57.15 348.33 56.37 350.29 55.19 352.25 53.62 353.82 51.66 354.61 49.3 355 46.95"/><polyline class="cls-5" points="332.24 23.01 332.24 23.4 332.63 23.8 332.63 24.19 333.02 24.19 333.02 24.58 333.42 24.58 344.4 24.97 355.39 24.58 355.79 24.58 355.79 24.19 356.18 24.19 356.18 23.8 356.57 23.4 356.57 23.01"/><polyline class="cls-5" points="344.4 18.69 344.01 18.69 343.62 19.09 343.62 19.48 343.23 19.48 343.23 19.87 343.23 20.26 343.23 20.66 343.62 20.66 343.62 21.05 344.01 21.05 344.4 21.05 344.8 21.05 345.19 21.05 345.19 20.66 345.58 20.66 345.58 20.26 345.58 19.87 345.58 19.48 345.19 19.48 345.19 19.09 344.8 18.69 344.4 18.69"/><polyline class="cls-5" points="403.66 43.81 364.42 43.81 364.42 14.38 403.66 14.38 403.66 43.81"/><path d="M428.78,250.22l6.67,2.75h-6.67Zm6.67,0h-6.67l6.67,2.75Z"/><path class="cls-5" d="M428.78,250.22l6.67,2.75h-6.67Zm6.67,0h-6.67l6.67,2.75Z"/><path d="M425.64,253l9.81,267.24h-9.81Zm9.81,0h-9.81l9.81,267.24Z"/><path class="cls-5" d="M425.64,253l9.81,267.24h-9.81Zm9.81,0h-9.81l9.81,267.24Z"/><path d="M425.64,520.21l9.81,4.32h-5.89Zm9.81,0h-9.81l9.81,4.32Z"/><path class="cls-5" d="M425.64,520.21l9.81,4.32h-5.89Zm9.81,0h-9.81l9.81,4.32Z"/><polyline points="425.64 0.25 435.45 187.83 425.64 187.83 425.64 0.25"/><polyline points="425.64 0.25 435.45 187.83 435.45 0.25"/><polyline class="cls-5" points="425.64 0.25 435.45 187.83 425.64 187.83 425.64 0.25"/><polyline class="cls-5" points="425.64 0.25 435.45 187.83 435.45 0.25"/><path d="M428.78,187.83l6.67,2.75h-6.67Zm6.67,0h-6.67l6.67,2.75Z"/><path class="cls-5" d="M428.78,187.83l6.67,2.75h-6.67Zm6.67,0h-6.67l6.67,2.75Z"/><path d="M435.45,524.53h-5.89l5.89,6.67Zm0,0Z"/><path class="cls-5" d="M435.45,524.53h-5.89l5.89,6.67Zm0,0Z"/><path d="M415,508.44h10.6v11.77ZM415,253V508.44h10.6Z"/><path class="cls-5" d="M415,508.44h10.6v11.77ZM415,253V508.44h10.6Z"/><polygon points="415.04 252.97 425.64 252.97 425.64 508.44 415.04 252.97"/><polygon class="cls-5" points="415.04 252.97 425.64 252.97 425.64 508.44 415.04 252.97"/><polyline points="415.04 0.25 425.64 187.83 415.04 187.83 415.04 0.25"/><polyline points="415.04 0.25 425.64 187.83 425.64 0.25"/><polyline class="cls-5" points="415.04 0.25 425.64 187.83 415.04 187.83 415.04 0.25"/><polyline class="cls-5" points="415.04 0.25 425.64 187.83 425.64 0.25"/><line class="cls-5" x1="425.64" y1="520.21" x2="425.64" y2="252.97"/><line class="cls-5" x1="425.64" y1="187.83" x2="425.64" y2="0.25"/><line class="cls-5" x1="425.64" y1="252.97" x2="415.04" y2="252.97"/><polyline class="cls-5" points="435.45 250.22 428.78 250.22 428.78 252.97 425.64 252.97"/><line class="cls-5" x1="425.64" y1="187.83" x2="415.04" y2="187.83"/><polyline class="cls-5" points="435.45 190.57 428.78 190.57 428.78 187.83 425.64 187.83"/><line class="cls-5" x1="415.04" y1="0.25" x2="415.04" y2="187.83"/><line class="cls-5" x1="415.04" y1="252.97" x2="415.04" y2="508.44"/><line class="cls-5" x1="435.45" y1="531.2" x2="435.45" y2="250.22"/><line class="cls-5" x1="435.45" y1="190.58" x2="435.45" y2="0.25"/><line class="cls-5" x1="435.45" y1="190.58" x2="435.45" y2="250.22"/><line class="cls-5" x1="415.04" y1="187.83" x2="415.04" y2="252.97"/><path d="M425.64,187.83h0Z"/><path class="cls-5" d="M425.64,187.83h0Z"/><path d="M428.78,192.93h-3.14v-5.1Zm0,0Z"/><path class="cls-5" d="M428.78,192.93h-3.14v-5.1Zm0,0Z"/><polygon points="425.64 187.83 428.78 187.83 428.78 192.93 425.64 187.83"/><polygon class="cls-5" points="425.64 187.83 428.78 187.83 428.78 192.93 425.64 187.83"/><path d="M425.64,247.87h0Z"/><path class="cls-5" d="M425.64,247.87h0Z"/><path d="M428.78,253h-3.14v-5.1Zm0,0Z"/><path class="cls-5" d="M428.78,253h-3.14v-5.1Zm0,0Z"/><polygon points="425.64 247.87 428.78 247.87 428.78 252.97 425.64 247.87"/><polygon class="cls-5" points="425.64 247.87 428.78 247.87 428.78 252.97 425.64 247.87"/><polyline class="cls-5" points="428.78 187.83 428.78 192.93 425.64 192.93 425.64 187.83"/><polyline class="cls-5" points="425.64 252.97 425.64 247.87 428.78 247.87 428.78 252.97"/><line class="cls-5" x1="428.78" y1="192.93" x2="428.78" y2="247.87"/><line class="cls-5" x1="425.64" y1="247.87" x2="425.64" y2="192.93"/><polyline class="cls-5" points="428.78 190.57 428.78 187.83 425.64 187.83"/><polyline class="cls-5" points="428.78 250.22 428.78 252.97 425.64 252.97"/><polyline points="0.25 529.24 5.35 529.24 0.25 529.24"/><polyline class="cls-5" points="0.25 529.24 5.35 529.24 0.25 529.24"/><polyline points="0.25 529.24 5.35 531.2 0.25 531.2"/><polyline points="0.25 529.24 5.35 531.2 5.35 529.24 0.25 529.24"/><polyline class="cls-5" points="0.25 529.24 5.35 531.2 0.25 531.2"/><polyline class="cls-5" points="0.25 529.24 5.35 531.2 5.35 529.24 0.25 529.24"/><path d="M175.27,529.24h0Z"/><path class="cls-5" d="M175.27,529.24h0Z"/><path d="M180.37,531.2h-5.1v-2Zm0,0Z"/><path class="cls-5" d="M180.37,531.2h-5.1v-2Zm0,0Z"/><polygon points="175.27 529.24 180.37 529.24 180.37 531.2 175.27 529.24"/><polygon class="cls-5" points="175.27 529.24 180.37 529.24 180.37 531.2 175.27 529.24"/><polyline points="0.25 523.35 5.35 523.35 0.25 523.35"/><polyline points="0.25 523.35 5.35 523.35 0.25 523.35"/><polyline points="0.25 521.39 5.35 523.35 0.25 523.35"/><polyline points="0.25 521.39 5.35 523.35 5.35 521.39 0.25 521.39"/><polyline class="cls-5" points="0.25 523.35 5.35 523.35 0.25 523.35"/><polyline class="cls-5" points="0.25 523.35 5.35 523.35 0.25 523.35"/><polyline class="cls-5" points="0.25 521.39 5.35 523.35 0.25 523.35"/><polyline class="cls-5" points="0.25 521.39 5.35 523.35 5.35 521.39 0.25 521.39"/><polyline points="0.25 526.49 5.35 526.49 0.25 526.49"/><polyline points="0.25 526.49 5.35 526.49 0.25 526.49"/><polyline points="0.25 523.35 5.35 526.49 0.25 526.49"/><polyline points="0.25 523.35 5.35 526.49 5.35 523.35 0.25 523.35"/><polyline class="cls-5" points="0.25 526.49 5.35 526.49 0.25 526.49"/><polyline class="cls-5" points="0.25 526.49 5.35 526.49 0.25 526.49"/><polyline class="cls-5" points="0.25 523.35 5.35 526.49 0.25 526.49"/><polyline class="cls-5" points="0.25 523.35 5.35 526.49 5.35 523.35 0.25 523.35"/><polyline points="0.25 526.49 5.35 529.24 0.25 529.24"/><polyline points="0.25 529.24 5.35 529.24 5.35 529.24 0.25 529.24"/><polyline class="cls-5" points="0.25 526.49 5.35 529.24 0.25 529.24"/><polyline class="cls-5" points="0.25 529.24 5.35 529.24 5.35 529.24 0.25 529.24"/><polyline points="0.25 526.49 5.35 526.49 5.35 529.24 0.25 526.49"/><polyline class="cls-5" points="0.25 526.49 5.35 526.49 5.35 529.24 0.25 526.49"/><path d="M175.27,521.39h0Z"/><path class="cls-5" d="M175.27,521.39h0Z"/><path d="M175.27,521.39l5.1,2h-5.1Zm5.1,0h-5.1l5.1,2Z"/><path class="cls-5" d="M175.27,521.39l5.1,2h-5.1Zm5.1,0h-5.1l5.1,2Z"/><path d="M175.27,523.35l5.1,3.14h-5.1Zm5.1,0h-5.1l5.1,3.14Z"/><path class="cls-5" d="M175.27,523.35l5.1,3.14h-5.1Zm5.1,0h-5.1l5.1,3.14Z"/><path d="M180.37,529.24h-5.1v-2.75Zm0,0Z"/><path class="cls-5" d="M180.37,529.24h-5.1v-2.75Zm0,0Z"/><polygon points="175.27 526.49 180.37 526.49 180.37 529.24 175.27 526.49"/><polygon class="cls-5" points="175.27 526.49 180.37 526.49 180.37 529.24 175.27 526.49"/><path d="M5.35,526.49l2,2.75h-2Zm2,0h-2l2,2.75Z"/><path class="cls-5" d="M5.35,526.49l2,2.75h-2Zm2,0h-2l2,2.75Z"/><path d="M5.35,529.24l2,2h-2Zm2,0h-2l2,2Z"/><path class="cls-5" d="M5.35,529.24l2,2h-2Zm2,0h-2l2,2Z"/><path d="M173.31,526.49l2,2.75h-2Zm2,0h-2l2,2.75Z"/><path class="cls-5" d="M173.31,526.49l2,2.75h-2Zm2,0h-2l2,2.75Z"/><path d="M173.31,529.24l2,2h-2Zm2,0h-2l2,2Z"/><path class="cls-5" d="M173.31,529.24l2,2h-2Zm2,0h-2l2,2Z"/><line class="cls-5" x1="0.25" y1="529.24" x2="5.35" y2="529.24"/><line class="cls-5" x1="175.27" y1="529.24" x2="180.37" y2="529.24"/><polyline class="cls-5" points="175.27 529.24 175.27 526.49 173.31 526.49 173.31 531.2 175.27 531.2"/><polyline class="cls-5" points="5.35 529.24 5.35 526.49 7.31 526.49 7.31 531.2 5.35 531.2"/><polyline class="cls-5" points="175.27 526.49 175.27 523.35 175.27 521.39"/><polyline class="cls-5" points="5.35 526.49 5.35 523.35 5.35 521.39"/><line class="cls-5" x1="0.25" y1="531.2" x2="5.35" y2="531.2"/><polyline class="cls-5" points="175.27 531.2 180.37 531.2 180.37 521.39 175.27 521.39"/><line class="cls-5" x1="5.35" y1="521.39" x2="0.25" y2="521.39"/><line class="cls-5" x1="7.31" y1="531.2" x2="173.31" y2="531.2"/><line class="cls-5" x1="5.35" y1="521.39" x2="175.27" y2="521.39"/><path d="M5.35,523.35h0Z"/><path class="cls-5" d="M5.35,523.35h0Z"/><path d="M9.28,526.49H5.35v-3.14Zm0,0Z"/><path class="cls-5" d="M9.28,526.49H5.35v-3.14Zm0,0Z"/><polygon points="5.35 523.35 9.28 523.35 9.28 526.49 5.35 523.35"/><polygon class="cls-5" points="5.35 523.35 9.28 523.35 9.28 526.49 5.35 523.35"/><path d="M59.9,523.35h0Z"/><path class="cls-5" d="M59.9,523.35h0Z"/><path d="M62.25,526.49H59.9v-3.14Zm0,0Z"/><path class="cls-5" d="M62.25,526.49H59.9v-3.14Zm0,0Z"/><polygon points="59.9 523.35 62.25 523.35 62.25 526.49 59.9 523.35"/><polygon class="cls-5" points="59.9 523.35 62.25 523.35 62.25 526.49 59.9 523.35"/><path d="M62.25,523.35h0Z"/><path class="cls-5" d="M62.25,523.35h0Z"/><path d="M65,526.49H62.25v-3.14Zm0,0Z"/><path class="cls-5" d="M65,526.49H62.25v-3.14Zm0,0Z"/><polygon points="62.25 523.35 65 523.35 65 526.49 62.25 523.35"/><polygon class="cls-5" points="62.25 523.35 65 523.35 65 526.49 62.25 523.35"/><path d="M115.62,523.35h0Z"/><path class="cls-5" d="M115.62,523.35h0Z"/><path d="M118.37,526.49h-2.75v-3.14Zm0,0Z"/><path class="cls-5" d="M118.37,526.49h-2.75v-3.14Zm0,0Z"/><polygon points="115.62 523.35 118.37 523.35 118.37 526.49 115.62 523.35"/><polygon class="cls-5" points="115.62 523.35 118.37 523.35 118.37 526.49 115.62 523.35"/><path d="M118.37,523.35h0Z"/><path class="cls-5" d="M118.37,523.35h0Z"/><path d="M120.72,526.49h-2.35v-3.14Zm0,0Z"/><path class="cls-5" d="M120.72,526.49h-2.35v-3.14Zm0,0Z"/><polygon points="118.37 523.35 120.72 523.35 120.72 526.49 118.37 523.35"/><polygon class="cls-5" points="118.37 523.35 120.72 523.35 120.72 526.49 118.37 523.35"/><path d="M171.35,523.35h0Z"/><path class="cls-5" d="M171.35,523.35h0Z"/><path d="M175.27,526.49h-3.92v-3.14Zm0,0Z"/><path class="cls-5" d="M175.27,526.49h-3.92v-3.14Zm0,0Z"/><polygon points="171.35 523.35 175.27 523.35 175.27 526.49 171.35 523.35"/><polygon class="cls-5" points="171.35 523.35 175.27 523.35 175.27 526.49 171.35 523.35"/><polyline class="cls-5" points="5.35 526.49 9.28 526.49 9.28 523.35 5.35 523.35"/><polyline class="cls-5" points="62.25 523.35 59.9 523.35 59.9 526.49 62.25 526.49"/><line class="cls-5" x1="9.28" y1="526.49" x2="59.9" y2="526.49"/><line class="cls-5" x1="59.9" y1="523.35" x2="9.28" y2="523.35"/><polyline class="cls-5" points="62.25 526.49 65 526.49 65 523.35 62.25 523.35"/><polyline class="cls-5" points="118.37 523.35 115.62 523.35 115.62 526.49 118.37 526.49"/><line class="cls-5" x1="65" y1="526.49" x2="115.62" y2="526.49"/><line class="cls-5" x1="115.62" y1="523.35" x2="65" y2="523.35"/><polyline class="cls-5" points="118.37 526.49 120.72 526.49 120.72 523.35 118.37 523.35"/><polyline class="cls-5" points="175.27 523.35 171.35 523.35 171.35 526.49 175.27 526.49"/><line class="cls-5" x1="120.72" y1="526.49" x2="171.35" y2="526.49"/><line class="cls-5" x1="171.35" y1="523.35" x2="120.72" y2="523.35"/><line class="cls-5" x1="5.35" y1="526.49" x2="5.35" y2="523.35"/><line class="cls-5" x1="175.27" y1="526.49" x2="175.27" y2="523.35"/><path d="M180.37,470.77v0Zm.79,0h-.79v.39Z"/><path class="cls-5" d="M180.37,470.77v0Zm.79,0h-.79v.39Z"/><path d="M82.66,470.77h0Z"/><path class="cls-5" d="M82.66,470.77h0Z"/><path d="M82.66,471.16H8.49v-.39Zm0,0Z"/><path class="cls-5" d="M82.66,471.16H8.49v-.39Zm0,0Z"/><polygon points="8.49 470.77 82.66 470.77 82.66 471.16 8.49 470.77"/><polygon class="cls-5" points="8.49 470.77 82.66 470.77 82.66 471.16 8.49 470.77"/><path d="M167.42,470.77h0Z"/><path class="cls-5" d="M167.42,470.77h0Z"/><path d="M180.37,471.16h-13v-.39Zm0,0Z"/><path class="cls-5" d="M180.37,471.16h-13v-.39Zm0,0Z"/><polygon points="167.42 470.77 180.37 470.77 180.37 471.16 167.42 470.77"/><polygon class="cls-5" points="167.42 470.77 180.37 470.77 180.37 471.16 167.42 470.77"/><path d="M181.16,461h0Z"/><path class="cls-5" d="M181.16,461h0Z"/><path d="M181.16,461v0Zm9.81,0h-9.81v9.81Z"/><path class="cls-5" d="M181.16,461v0Zm9.81,0h-9.81v9.81Z"/><path d="M82.66,470.77H8.49V461Zm0,0Z"/><path class="cls-5" d="M82.66,470.77H8.49V461Zm0,0Z"/><polygon points="8.49 460.95 82.66 460.95 82.66 470.77 8.49 460.95"/><polygon class="cls-5" points="8.49 460.95 82.66 460.95 82.66 470.77 8.49 460.95"/><path d="M167.42,461h0Z"/><path class="cls-5" d="M167.42,461h0Z"/><path d="M181.16,470.77H167.42V461Zm0,0Z"/><path class="cls-5" d="M181.16,470.77H167.42V461Zm0,0Z"/><polygon points="167.42 460.95 181.16 460.95 181.16 470.77 167.42 460.95"/><polygon class="cls-5" points="167.42 460.95 181.16 460.95 181.16 470.77 167.42 460.95"/><path d="M191,448h0Z"/><path class="cls-5" d="M191,448h0Z"/><path d="M191,448v0Zm12.95,0H191V461Z"/><path class="cls-5" d="M191,448v0Zm12.95,0H191V461Z"/><path d="M8.49,448l74.17,9.41H8.49Zm74.17,0H8.49l74.17,9.41Z"/><path class="cls-5" d="M8.49,448l74.17,9.41H8.49Zm74.17,0H8.49l74.17,9.41Z"/><path d="M8.49,457.42,82.66,461H8.49Zm74.17,0H8.49L82.66,461Z"/><path class="cls-5" d="M8.49,457.42,82.66,461H8.49Zm74.17,0H8.49L82.66,461Z"/><path d="M167.42,448h0Z"/><path class="cls-5" d="M167.42,448h0Z"/><path d="M167.42,448,191,457.42H167.42ZM191,448H167.42L191,457.42Z"/><path class="cls-5" d="M167.42,448,191,457.42H167.42ZM191,448H167.42L191,457.42Z"/><path d="M191,461H167.42v-3.54Zm0,0Z"/><path class="cls-5" d="M191,461H167.42v-3.54Zm0,0Z"/><polygon points="167.42 457.42 190.97 457.42 190.97 460.95 167.42 457.42"/><polygon class="cls-5" points="167.42 457.42 190.97 457.42 190.97 460.95 167.42 457.42"/><path d="M82.66,461l.78,9.81h-.78Zm.78,0h-.78l.78,9.81Z"/><path class="cls-5" d="M82.66,461l.78,9.81h-.78Zm.78,0h-.78l.78,9.81Z"/><path d="M82.66,470.77l.78.39h-.78Zm.78,0h-.78l.78.39Z"/><path class="cls-5" d="M82.66,470.77l.78.39h-.78Zm.78,0h-.78l.78.39Z"/><path d="M167,461l.39,9.81H167Zm.39,0H167l.39,9.81Z"/><path class="cls-5" d="M167,461l.39,9.81H167Zm.39,0H167l.39,9.81Z"/><path d="M167,470.77l.39.39H167Zm.39,0H167l.39.39Z"/><path class="cls-5" d="M167,470.77l.39.39H167Zm.39,0H167l.39.39Z"/><line class="cls-5" x1="167.42" y1="470.77" x2="181.16" y2="470.77"/><line class="cls-5" x1="8.49" y1="470.77" x2="82.66" y2="470.77"/><polyline class="cls-5" points="190.97 448 190.97 460.95 167.42 460.95"/><line class="cls-5" x1="8.49" y1="460.96" x2="82.66" y2="460.96"/><polyline class="cls-5" points="167.42 470.77 167.42 460.95 167.03 460.95 167.03 471.16 167.42 471.16"/><polyline class="cls-5" points="82.66 470.77 82.66 460.95 83.44 460.95 83.44 471.16 82.66 471.16"/><polyline class="cls-5" points="167.42 460.95 167.42 457.42 167.42 448"/><polyline class="cls-5" points="82.66 460.95 82.66 457.42 82.66 448"/><line class="cls-5" x1="8.49" y1="471.16" x2="82.66" y2="471.16"/><line class="cls-5" x1="167.42" y1="471.16" x2="180.37" y2="471.16"/><polyline class="cls-5" points="203.92 448 190.97 448 167.42 448"/><line class="cls-5" x1="82.66" y1="448.01" x2="8.49" y2="448.01"/><line class="cls-5" x1="83.44" y1="471.16" x2="167.03" y2="471.16"/><line class="cls-5" x1="82.66" y1="448.01" x2="167.42" y2="448.01"/><path d="M82.66,457.42h0Z"/><path class="cls-5" d="M82.66,457.42h0Z"/><path d="M88.55,461H82.66v-3.54Zm0,0Z"/><path class="cls-5" d="M88.55,461H82.66v-3.54Zm0,0Z"/><polygon points="82.66 457.42 88.55 457.42 88.55 460.95 82.66 457.42"/><polygon class="cls-5" points="82.66 457.42 88.55 457.42 88.55 460.95 82.66 457.42"/><path d="M112.09,457.42h0Z"/><path class="cls-5" d="M112.09,457.42h0Z"/><path d="M115.23,461h-3.14v-3.54Zm0,0Z"/><path class="cls-5" d="M115.23,461h-3.14v-3.54Zm0,0Z"/><polygon points="112.09 457.42 115.23 457.42 115.23 460.95 112.09 457.42"/><polygon class="cls-5" points="112.09 457.42 115.23 457.42 115.23 460.95 112.09 457.42"/><path d="M115.23,457.42h0Z"/><path class="cls-5" d="M115.23,457.42h0Z"/><path d="M118.76,461h-3.53v-3.54Zm0,0Z"/><path class="cls-5" d="M118.76,461h-3.53v-3.54Zm0,0Z"/><polygon points="115.23 457.42 118.76 457.42 118.76 460.95 115.23 457.42"/><polygon class="cls-5" points="115.23 457.42 118.76 457.42 118.76 460.95 115.23 457.42"/><path d="M161.93,457.42h0Z"/><path class="cls-5" d="M161.93,457.42h0Z"/><path d="M167.42,461h-5.49v-3.54Zm0,0Z"/><path class="cls-5" d="M167.42,461h-5.49v-3.54Zm0,0Z"/><polygon points="161.93 457.42 167.42 457.42 167.42 460.95 161.93 457.42"/><polygon class="cls-5" points="161.93 457.42 167.42 457.42 167.42 460.95 161.93 457.42"/><polyline class="cls-5" points="82.66 460.95 88.55 460.95 88.55 457.42 82.66 457.42"/><polyline class="cls-5" points="115.23 457.42 112.09 457.42 112.09 460.95 115.23 460.95"/><line class="cls-5" x1="88.55" y1="460.96" x2="112.09" y2="460.96"/><line class="cls-5" x1="112.09" y1="457.42" x2="88.55" y2="457.42"/><polyline class="cls-5" points="115.23 460.95 118.76 460.95 118.76 457.42 115.23 457.42"/><polyline class="cls-5" points="167.42 457.42 161.93 457.42 161.93 460.95 167.42 460.95"/><line class="cls-5" x1="118.76" y1="460.96" x2="161.93" y2="460.96"/><line class="cls-5" x1="161.93" y1="457.42" x2="118.76" y2="457.42"/><line class="cls-5" x1="82.66" y1="460.96" x2="82.66" y2="457.42"/><line class="cls-5" x1="167.42" y1="460.96" x2="167.42" y2="457.42"/><path d="M180.37,471.16l.79,59.25h-.79Zm.79,0h-.79l.79,59.25Z"/><path class="cls-5" d="M180.37,471.16l.79,59.25h-.79Zm.79,0h-.79l.79,59.25Z"/><path d="M180.37,530.41v0Zm.79,0h-.79v.79Z"/><path class="cls-5" d="M180.37,530.41v0Zm.79,0h-.79v.79Z"/><polygon points="181.16 470.77 181.16 471.16 180.37 471.16 181.16 470.77"/><polygon class="cls-5" points="181.16 470.77 181.16 471.16 180.37 471.16 181.16 470.77"/><path d="M181.16,524.53h0Z"/><path class="cls-5" d="M181.16,524.53h0Z"/><path d="M181.16,524.53v0Zm6.28,0h-6.28v5.88Z"/><path class="cls-5" d="M181.16,524.53v0Zm6.28,0h-6.28v5.88Z"/><path d="M181.16,470.77h0Z"/><path class="cls-5" d="M181.16,470.77h0Z"/><path d="M181.16,470.77,191,521h-9.81Zm9.81,0h-9.81L191,521Z"/><path class="cls-5" d="M181.16,470.77,191,521h-9.81Zm9.81,0h-9.81L191,521Z"/><path d="M187.44,524.53h-6.28V521Zm0,0Z"/><path class="cls-5" d="M187.44,524.53h-6.28V521Zm0,0Z"/><polygon points="181.16 521 190.97 521 187.44 524.53 181.16 521"/><polygon class="cls-5" points="181.16 521 190.97 521 187.44 524.53 181.16 521"/><path d="M191,470.77h0Zm0-9.81v9.81h-9.81Z"/><path class="cls-5" d="M191,470.77h0Zm0-9.81v9.81h-9.81Z"/><polygon points="203.92 448 203.92 460.95 190.97 460.95 203.92 448"/><polygon class="cls-5" points="203.92 448 203.92 460.95 190.97 460.95 203.92 448"/><path d="M191,461l12.95,47.48H191Zm12.95,0H191l12.95,47.48Z"/><path class="cls-5" d="M191,461l12.95,47.48H191Zm12.95,0H191l12.95,47.48Z"/><path d="M191,508.44v0Zm12.95,0H191V521Z"/><path class="cls-5" d="M191,508.44v0Zm12.95,0H191V521Z"/><polyline class="cls-5" points="181.16 470.77 181.16 524.53 181.16 530.41"/><line class="cls-5" x1="190.97" y1="460.96" x2="190.97" y2="521"/><line class="cls-5" x1="203.92" y1="508.44" x2="203.92" y2="448.01"/><line class="cls-5" x1="180.37" y1="471.16" x2="180.37" y2="531.2"/><polyline points="0.25 470.77 8.49 471.16 0.25 471.16"/><polyline points="0.25 470.77 8.49 471.16 8.49 470.77 0.25 470.77"/><polyline class="cls-5" points="0.25 470.77 8.49 471.16 0.25 471.16"/><polyline class="cls-5" points="0.25 470.77 8.49 471.16 8.49 470.77 0.25 470.77"/><polyline points="0.25 460.95 8.49 460.95 0.25 460.95"/><polyline class="cls-5" points="0.25 460.95 8.49 460.95 0.25 460.95"/><polyline points="0.25 460.95 8.49 470.77 0.25 470.77"/><polyline points="0.25 470.77 8.49 470.77 8.49 470.77 0.25 470.77"/><polyline class="cls-5" points="0.25 460.95 8.49 470.77 0.25 470.77"/><polyline class="cls-5" points="0.25 470.77 8.49 470.77 8.49 470.77 0.25 470.77"/><polyline points="0.25 460.95 8.49 460.95 8.49 470.77 0.25 460.95"/><polyline class="cls-5" points="0.25 460.95 8.49 460.95 8.49 470.77 0.25 460.95"/><polyline points="0.25 448 8.49 457.42 0.25 457.42"/><polyline points="0.25 448 8.49 457.42 8.49 448 0.25 448"/><polyline class="cls-5" points="0.25 448 8.49 457.42 0.25 457.42"/><polyline class="cls-5" points="0.25 448 8.49 457.42 8.49 448 0.25 448"/><polyline points="0.25 457.42 8.49 460.95 0.25 460.95"/><polyline points="0.25 457.42 8.49 460.95 8.49 457.42 0.25 457.42"/><polyline class="cls-5" points="0.25 457.42 8.49 460.95 0.25 460.95"/><polyline class="cls-5" points="0.25 457.42 8.49 460.95 8.49 457.42 0.25 457.42"/><line class="cls-5" x1="0.25" y1="470.77" x2="8.49" y2="470.77"/><line class="cls-5" x1="0.25" y1="460.96" x2="8.49" y2="460.96"/><line class="cls-5" x1="0.25" y1="448.01" x2="8.49" y2="448.01"/><line class="cls-5" x1="0.25" y1="471.16" x2="8.49" y2="471.16"/><path d="M280.83.25Z"/><path class="cls-5" d="M280.83.25Z"/><polygon points="424.33 0.25 424.33 0.25 416.13 0.25 424.33 0.25"/><polygon class="cls-5" points="424.33 0.25 424.33 0.25 416.13 0.25 424.33 0.25"/><path d="M222,121.9h0Z"/><path class="cls-5" d="M222,121.9h0Z"/><path d="M226.68,127.4H222v-5.5Zm0,0Z"/><path class="cls-5" d="M226.68,127.4H222v-5.5Zm0,0Z"/><polygon points="221.97 121.9 226.68 121.9 226.68 127.39 221.97 121.9"/><polygon class="cls-5" points="221.97 121.9 226.68 121.9 226.68 127.39 221.97 121.9"/><path d="M278.87,121.9h0Z"/><path class="cls-5" d="M278.87,121.9h0Z"/><path d="M282,127.4h-3.14v-5.5Zm0,0Z"/><path class="cls-5" d="M282,127.4h-3.14v-5.5Zm0,0Z"/><polygon points="278.87 121.9 287.5 121.9 282.01 127.39 278.87 121.9"/><polygon class="cls-5" points="278.87 121.9 287.5 121.9 282.01 127.39 278.87 121.9"/><line class="cls-5" x1="226.68" y1="127.4" x2="226.68" y2="121.9"/><line class="cls-5" x1="278.87" y1="127.4" x2="278.87" y2="121.9"/><line class="cls-5" x1="221.97" y1="127.4" x2="226.68" y2="127.4"/><line class="cls-5" x1="278.87" y1="127.4" x2="282.01" y2="127.4"/><line class="cls-5" x1="287.5" y1="121.9" x2="278.87" y2="121.9"/><polyline class="cls-5" points="226.68 121.9 221.97 121.9 221.97 127.39"/><line class="cls-5" x1="278.87" y1="121.9" x2="275.73" y2="121.9"/><line class="cls-5" x1="278.87" y1="127.4" x2="275.73" y2="127.4"/><line class="cls-5" x1="226.68" y1="121.9" x2="230.21" y2="121.9"/><line class="cls-5" x1="226.68" y1="127.4" x2="230.21" y2="127.4"/><line class="cls-5" x1="275.73" y1="127.4" x2="275.73" y2="121.9"/><polyline class="cls-5" points="230.21 127.39 230.21 121.9 269.45 99.14"/><path class="cls-5" d="M275.73,121.71a45.73,45.73,0,0,0-6.12-22.86"/><path d="M275.73,13.2h0Z"/><path class="cls-5" d="M275.73,13.2h0Z"/><path d="M280.83,32.82h-5.1V13.2Zm0,0Z"/><path class="cls-5" d="M280.83,32.82h-5.1V13.2Zm0,0Z"/><polygon points="275.73 13.2 280.83 13.2 280.83 32.82 275.73 13.2"/><polygon class="cls-5" points="275.73 13.2 280.83 13.2 280.83 32.82 275.73 13.2"/><polyline class="cls-5" points="280.83 32.82 280.83 13.2 275.73 13.2 275.73 32.82"/><path d="M12.42,205.49h0Z"/><path class="cls-5" d="M12.42,205.49h0Z"/><path d="M135.64,210.59H12.42v-5.1Zm0,0Z"/><path class="cls-5" d="M135.64,210.59H12.42v-5.1Zm0,0Z"/><polygon points="12.41 205.49 135.64 205.49 135.64 210.59 12.41 205.49"/><polygon class="cls-5" points="12.41 205.49 135.64 205.49 135.64 210.59 12.41 205.49"/><path d="M187.83,205.49h0Z"/><path class="cls-5" d="M187.83,205.49h0Z"/><path d="M191,210.59h-3.14v-5.1Zm0,0Z"/><path class="cls-5" d="M191,210.59h-3.14v-5.1Zm0,0Z"/><polygon points="187.83 205.49 190.97 205.49 190.97 210.59 187.83 205.49"/><polygon class="cls-5" points="187.83 205.49 190.97 205.49 190.97 210.59 187.83 205.49"/><path d="M191,205.49h0Z"/><path class="cls-5" d="M191,205.49h0Z"/><path d="M203.92,210.59H191v-5.1Zm0,0Z"/><path class="cls-5" d="M203.92,210.59H191v-5.1Zm0,0Z"/><polygon points="190.97 205.49 203.92 205.49 203.92 210.59 190.97 205.49"/><polygon class="cls-5" points="190.97 205.49 203.92 205.49 203.92 210.59 190.97 205.49"/><path d="M203.92,205.49h0Z"/><path class="cls-5" d="M203.92,205.49h0Z"/><path d="M210.59,210.59h-6.67v-5.1Zm0,0Z"/><path class="cls-5" d="M210.59,210.59h-6.67v-5.1Zm0,0Z"/><polygon points="203.92 205.49 210.59 205.49 210.59 210.59 203.92 205.49"/><polygon class="cls-5" points="203.92 205.49 210.59 205.49 210.59 210.59 203.92 205.49"/><path d="M269.06,205.49h0Z"/><path class="cls-5" d="M269.06,205.49h0Z"/><path d="M287.5,210.59H269.06v-5.1Zm0,0Z"/><path class="cls-5" d="M287.5,210.59H269.06v-5.1Zm0,0Z"/><polygon points="269.06 205.49 282.01 205.49 287.5 210.59 269.06 205.49"/><polygon class="cls-5" points="269.06 205.49 282.01 205.49 287.5 210.59 269.06 205.49"/><line class="cls-5" x1="135.64" y1="210.59" x2="135.64" y2="205.49"/><line class="cls-5" x1="190.97" y1="205.49" x2="190.97" y2="210.59"/><line class="cls-5" x1="203.92" y1="210.59" x2="203.92" y2="205.49"/><line class="cls-5" x1="187.83" y1="210.59" x2="187.83" y2="205.49"/><line class="cls-5" x1="210.59" y1="210.59" x2="210.59" y2="205.49"/><line class="cls-5" x1="269.06" y1="210.59" x2="269.06" y2="205.49"/><line class="cls-5" x1="12.42" y1="210.59" x2="135.64" y2="210.59"/><line class="cls-5" x1="187.83" y1="210.59" x2="190.97" y2="210.59"/><line class="cls-5" x1="203.92" y1="210.59" x2="210.59" y2="210.59"/><line class="cls-5" x1="269.06" y1="210.59" x2="287.5" y2="210.59"/><line class="cls-5" x1="282.01" y1="205.49" x2="269.06" y2="205.49"/><line class="cls-5" x1="210.59" y1="205.49" x2="203.92" y2="205.49"/><line class="cls-5" x1="190.97" y1="205.49" x2="187.83" y2="205.49"/><line class="cls-5" x1="135.64" y1="205.49" x2="46.16" y2="205.49"/><polyline class="cls-5" points="41.06 205.49 12.41 205.49 12.41 210.59"/><line class="cls-5" x1="269.06" y1="210.59" x2="265.92" y2="210.59"/><line class="cls-5" x1="269.06" y1="205.49" x2="265.92" y2="205.49"/><line class="cls-5" x1="210.59" y1="210.59" x2="213.73" y2="210.59"/><line class="cls-5" x1="210.59" y1="205.49" x2="213.73" y2="205.49"/><line class="cls-5" x1="265.92" y1="205.49" x2="265.92" y2="210.59"/><polyline class="cls-5" points="213.73 205.49 213.73 210.59 213.73 262.78"/><path class="cls-5" d="M213.53,262.39a52,52,0,0,0,52-52"/><line class="cls-5" x1="135.64" y1="210.59" x2="138.78" y2="210.59"/><line class="cls-5" x1="135.64" y1="205.49" x2="138.78" y2="205.49"/><line class="cls-5" x1="187.83" y1="210.59" x2="184.3" y2="210.59"/><line class="cls-5" x1="187.83" y1="205.49" x2="184.3" y2="205.49"/><line class="cls-5" x1="138.78" y1="205.49" x2="138.78" y2="210.59"/><polyline class="cls-5" points="184.3 205.49 184.3 210.59 184.3 256.11"/><path class="cls-5" d="M138.38,210.39a45.72,45.72,0,0,0,45.72,45.72"/><path d="M198.82,433.49l5.1,25.9h-5.1Zm5.1,0h-5.1l5.1,25.9Z"/><path class="cls-5" d="M198.82,433.49l5.1,25.9h-5.1Zm5.1,0h-5.1l5.1,25.9Z"/><path d="M198.82,270.63l5.1,32.57h-5.1Zm5.1,0h-5.1l5.1,32.57Z"/><path class="cls-5" d="M198.82,270.63l5.1,32.57h-5.1Zm5.1,0h-5.1l5.1,32.57Z"/><line class="cls-5" x1="198.82" y1="433.49" x2="203.92" y2="433.49"/><polyline class="cls-5" points="198.82 270.63 198.82 303.2 203.92 303.2"/><polyline class="cls-5" points="198.82 433.49 198.82 459.38 203.92 459.38 203.92 433.49"/><polyline class="cls-5" points="203.92 303.2 203.92 270.63 198.82 270.63"/><polyline class="cls-5" points="203.92 303.2 223.93 329.1 203.92 355.39"/><polyline class="cls-5" points="203.92 433.49 223.93 407.59 203.92 381.29"/><line class="cls-5" x1="198.82" y1="303.2" x2="203.92" y2="303.2"/><line class="cls-5" x1="198.82" y1="433.49" x2="203.92" y2="433.49"/><polygon points="287.5 121.9 287.5 127.39 282.01 127.39 287.5 121.9"/><polygon class="cls-5" points="287.5 121.9 287.5 127.39 282.01 127.39 287.5 121.9"/><path d="M282,205.49h5.49v5.1Zm0-78.09v78.09h5.49Z"/><path class="cls-5" d="M282,205.49h5.49v5.1Zm0-78.09v78.09h5.49Z"/><polygon points="282.01 127.39 287.5 127.39 287.5 205.49 282.01 127.39"/><polygon class="cls-5" points="282.01 127.39 287.5 127.39 287.5 205.49 282.01 127.39"/><line class="cls-5" x1="287.5" y1="210.59" x2="287.5" y2="168.21"/><line class="cls-5" x1="287.5" y1="163.11" x2="287.5" y2="121.9"/><line class="cls-5" x1="282.01" y1="127.4" x2="282.01" y2="205.49"/><path d="M222,32.82h0Z"/><path class="cls-5" d="M222,32.82h0Z"/><path d="M318.51,37.92H222v-5.1Zm0,0Z"/><path class="cls-5" d="M318.51,37.92H222v-5.1Zm0,0Z"/><polygon points="221.97 32.82 313.4 32.82 318.5 37.92 221.97 32.82"/><polygon class="cls-5" points="221.97 32.82 313.4 32.82 318.5 37.92 221.97 32.82"/><line class="cls-5" x1="221.97" y1="37.92" x2="318.51" y2="37.92"/><line class="cls-5" x1="313.4" y1="32.82" x2="280.83" y2="32.82"/><polyline class="cls-5" points="275.73 32.82 221.97 32.82 221.97 37.92"/><path d="M41.06,127.4h0Z"/><path class="cls-5" d="M41.06,127.4h0Z"/><path d="M46.16,205.49h-5.1V127.4Zm0,0Z"/><path class="cls-5" d="M46.16,205.49h-5.1V127.4Zm0,0Z"/><polygon points="41.06 127.39 46.16 127.39 46.16 205.49 41.06 127.39"/><polygon class="cls-5" points="41.06 127.39 46.16 127.39 46.16 205.49 41.06 127.39"/><polyline class="cls-5" points="46.16 205.49 46.16 127.39 41.06 127.39 41.06 167.81"/><line class="cls-5" x1="41.06" y1="172.92" x2="41.06" y2="205.49"/><path d="M41.06,167.81h0Z"/><path class="cls-5" d="M41.06,167.81h0Z"/><path d="M41.06,172.92H12.42v-5.11Zm0,0Z"/><path class="cls-5" d="M41.06,172.92H12.42v-5.11Zm0,0Z"/><polygon points="12.41 167.81 41.06 167.81 41.06 172.92 12.41 167.81"/><polygon class="cls-5" points="12.41 167.81 41.06 167.81 41.06 172.92 12.41 167.81"/><line class="cls-5" x1="12.42" y1="172.92" x2="41.06" y2="172.92"/><polyline class="cls-5" points="41.06 167.81 12.41 167.81 12.41 172.92"/><path d="M313.4,13.2h0Z"/><path class="cls-5" d="M313.4,13.2h0Z"/><path d="M313.4,32.82h5.11v5.1Zm0-19.62V32.82h5.11Z"/><path class="cls-5" d="M313.4,32.82h5.11v5.1Zm0-19.62V32.82h5.11Z"/><polygon points="313.4 13.2 318.5 13.2 318.5 32.82 313.4 13.2"/><polygon class="cls-5" points="313.4 13.2 318.5 13.2 318.5 32.82 313.4 13.2"/><polyline class="cls-5" points="318.5 37.92 318.5 13.2 313.4 13.2 313.4 32.82"/><path d="M287.5,163.11h0Z"/><path class="cls-5" d="M287.5,163.11h0Z"/><path d="M419,168.21H287.5v-5.1Zm0,0Z"/><path class="cls-5" d="M419,168.21H287.5v-5.1Zm0,0Z"/><polygon points="287.5 163.11 418.97 163.11 418.97 168.21 287.5 163.11"/><polygon class="cls-5" points="287.5 163.11 418.97 163.11 418.97 168.21 287.5 163.11"/><polyline class="cls-5" points="287.5 168.21 418.97 168.21 418.97 163.11 287.5 163.11"/><path d="M5.35,521.39H.25V471.16Zm0,0Z"/><path class="cls-5" d="M5.35,521.39H.25V471.16Zm0,0Z"/><polygon points="0.25 471.16 5.35 471.16 5.35 521.39 0.25 471.16"/><polygon class="cls-5" points="0.25 471.16 5.35 471.16 5.35 521.39 0.25 471.16"/><polyline class="cls-5" points="0.25 448 0.25 531.2 5.35 521.39 5.35 471.16 0.25 471.16"/><polyline points="2.21 114.05 85.41 127.39 2.21 127.39"/><polyline points="2.21 114.05 85.41 127.39 85.41 114.05 2.21 114.05"/><polyline class="cls-5" points="2.21 114.05 85.41 127.39 2.21 127.39"/><polyline class="cls-5" points="2.21 114.05 85.41 127.39 85.41 114.05 2.21 114.05"/><path d="M150.55,114.05l73,13.35h-73Zm60,0h-60l73,13.35Z"/><path class="cls-5" d="M150.55,114.05l73,13.35h-73Zm60,0h-60l73,13.35Z"/><line class="cls-5" x1="85.41" y1="127.4" x2="85.41" y2="114.05"/><line class="cls-5" x1="150.55" y1="127.4" x2="150.55" y2="114.05"/><line class="cls-5" x1="210.59" y1="114.05" x2="150.55" y2="114.05"/><line class="cls-5" x1="85.41" y1="114.05" x2="2.21" y2="114.05"/><line class="cls-5" x1="2.21" y1="127.4" x2="85.41" y2="127.4"/><line class="cls-5" x1="150.55" y1="127.4" x2="223.54" y2="127.4"/><path class="cls-5" d="M88,187A59.84,59.84,0,0,0,147.8,127.2"/><path d="M147.8,114.05h0Z"/><path class="cls-5" d="M147.8,114.05h0Z"/><path d="M150.55,127.4H147.8V114.05Zm0,0Z"/><path class="cls-5" d="M150.55,127.4H147.8V114.05Zm0,0Z"/><polygon points="147.8 114.05 150.55 114.05 150.55 127.39 147.8 114.05"/><polygon class="cls-5" points="147.8 114.05 150.55 114.05 150.55 127.39 147.8 114.05"/><path d="M85.41,114.05h0Z"/><path class="cls-5" d="M85.41,114.05h0Z"/><path d="M88.15,127.4H85.41V114.05Zm0,0Z"/><path class="cls-5" d="M88.15,127.4H85.41V114.05Zm0,0Z"/><polygon points="85.41 114.05 88.15 114.05 88.15 127.39 85.41 114.05"/><polygon class="cls-5" points="85.41 114.05 88.15 114.05 88.15 127.39 85.41 114.05"/><polyline class="cls-5" points="150.55 114.05 147.8 114.05 147.8 127.39 150.55 127.39 150.55 114.05"/><polyline class="cls-5" points="85.41 127.39 88.15 127.39 88.15 114.05 85.41 114.05 85.41 127.39"/><line class="cls-5" x1="88.15" y1="127.4" x2="88.15" y2="187.04"/><line class="cls-5" x1="150.55" y1="127.4" x2="150.55" y2="114.05"/><line class="cls-5" x1="85.41" y1="127.4" x2="85.41" y2="114.05"/><path d="M210.59,13.2h0Z"/><path class="cls-5" d="M210.59,13.2h0Z"/><path d="M210.59,114.05h12.95V127.4Zm0-100.85V114.05h12.95Z"/><path class="cls-5" d="M210.59,114.05h12.95V127.4Zm0-100.85V114.05h12.95Z"/><polygon points="210.59 13.2 223.54 13.2 223.54 114.05 210.59 13.2"/><polygon class="cls-5" points="210.59 13.2 223.54 13.2 223.54 114.05 210.59 13.2"/><line class="cls-5" x1="223.54" y1="127.4" x2="223.54" y2="13.2"/><line class="cls-5" x1="210.59" y1="13.2" x2="210.59" y2="114.05"/><path d="M2.21,270.63h0Z"/><path class="cls-5" d="M2.21,270.63h0Z"/><path d="M15.16,386H2.21V270.63Zm0,0Z"/><path class="cls-5" d="M15.16,386H2.21V270.63Zm0,0Z"/><polygon points="2.21 270.63 15.16 270.63 15.16 386 2.21 270.63"/><polygon class="cls-5" points="2.21 270.63 15.16 270.63 15.16 386 2.21 270.63"/><polyline class="cls-5" points="15.16 386 15.16 270.63 2.21 270.63 2.21 386 15.16 386"/><path d="M324,.25h0Z"/><path class="cls-5" d="M324,.25h0Z"/><path d="M428.75,13.2H324V.25Zm0,0Z"/><path class="cls-5" d="M428.75,13.2H324V.25Zm0,0Z"/><polygon points="324 0.25 428.75 0.25 428.75 13.2 324 0.25"/><polygon class="cls-5" points="324 0.25 428.75 0.25 428.75 13.2 324 0.25"/><polyline class="cls-5" points="435.45 0.25 324 0.25 324 13.2 428.75 13.2 428.75 0.25"/><path d="M2.21,127.4h0Z"/><path class="cls-5" d="M2.21,127.4h0Z"/><path d="M15.16,205.49H2.21V127.4Zm0,0Z"/><path class="cls-5" d="M15.16,205.49H2.21V127.4Zm0,0Z"/><polygon points="2.21 127.39 15.16 127.39 15.16 205.49 2.21 127.39"/><polygon class="cls-5" points="2.21 127.39 15.16 127.39 15.16 205.49 2.21 127.39"/><polyline class="cls-5" points="15.16 205.49 15.16 127.39 2.21 114.05 2.21 205.49 15.16 205.49"/><path d="M210.59.25,324,13.2H210.59ZM324,.25H210.59L324,13.2Z"/><path class="cls-5" d="M210.59.25,324,13.2H210.59ZM324,.25H210.59L324,13.2Z"/><line class="cls-5" x1="210.59" y1="0.25" x2="210.59" y2="13.2"/><line class="cls-5" x1="324" y1="0.25" x2="210.59" y2="0.25"/><line class="cls-5" x1="210.59" y1="13.2" x2="210.59" y2="13.2"/><polyline class="cls-5" points="223.54 13.2 324 13.2 324 0.25"/><path d="M210.59.25Z"/><path class="cls-5" d="M210.59.25Z"/><path d="M210.59,13.2h0v0Zm0,0Z"/><path class="cls-5" d="M210.59,13.2h0v0Zm0,0Z"/><polygon points="210.59 0.25 210.59 0.25 210.59 13.2 210.59 0.25"/><polygon class="cls-5" points="210.59 0.25 210.59 0.25 210.59 13.2 210.59 0.25"/><polyline class="cls-5" points="210.59 0.25 210.59 0.25 210.59 13.2 210.59 13.2 210.59 0.25"/><line class="cls-5" x1="210.59" y1="0.25" x2="210.59" y2="13.2"/><polyline class="cls-5" points="285.54 568.87 285.54 531.2 287.11 531.2 287.11 570.44 285.54 568.87"/><polyline class="cls-5" points="223.93 570.44 223.93 531.2 225.5 531.2 225.5 568.87 285.54 568.87 287.11 570.44 223.93 570.44 225.5 568.87 223.93 570.44"/><polyline class="cls-5" points="224.72 569.66 286.33 569.66 286.33 531.2"/><polyline class="cls-5" points="227.07 558.67 283.97 558.67 283.97 537.87 227.07 537.87 227.07 558.67"/><polyline class="cls-5" points="227.07 556.31 283.97 556.31 283.97 537.87 227.07 537.87 227.07 556.31"/><line class="cls-5" x1="224.72" y1="569.66" x2="224.72" y2="531.2"/><polyline class="cls-5" points="54.01 262.78 18.3 262.78 18.3 210.59 54.01 210.59 54.01 262.78"/><polyline class="cls-5" points="50.87 213.73 50.87 241.98 24.97 241.98 24.97 213.73 50.87 213.73"/><line class="cls-5" x1="50.48" y1="246.69" x2="50.48" y2="256.89"/><line class="cls-5" x1="46.16" y1="246.69" x2="46.16" y2="256.89"/><line class="cls-5" x1="41.85" y1="246.69" x2="41.85" y2="256.89"/><line class="cls-5" x1="37.53" y1="246.69" x2="37.53" y2="256.89"/><line class="cls-5" x1="33.21" y1="246.69" x2="33.21" y2="256.89"/><line class="cls-5" x1="28.9" y1="246.69" x2="28.9" y2="256.89"/><line class="cls-5" x1="190.97" y1="521.39" x2="190.97" y2="464.88"/><line class="cls-5" x1="54.01" y1="453.11" x2="54.01" y2="210.59"/><path d="M2.21,205.49h0Z"/><path class="cls-5" d="M2.21,205.49h0Z"/><path d="M15.16,270.63H2.21V205.49Zm0,0Z"/><path class="cls-5" d="M15.16,270.63H2.21V205.49Zm0,0Z"/><polygon points="2.21 205.49 15.16 205.49 15.16 270.63 2.21 205.49"/><polygon class="cls-5" points="2.21 205.49 15.16 205.49 15.16 270.63 2.21 205.49"/><polyline class="cls-5" points="15.16 270.63 15.16 205.49 2.21 205.49 2.21 270.63 15.16 270.63"/><path d="M191,210.59h0Z"/><path class="cls-5" d="M191,210.59h0Z"/><path d="M191,210.59l12.95,60H191Zm12.95,0H191l12.95,60Z"/><path class="cls-5" d="M191,210.59l12.95,60H191Zm12.95,0H191l12.95,60Z"/><polyline class="cls-5" points="190.97 210.59 190.97 270.63 203.92 270.63 203.92 210.59"/><path d="M2.21,386h0Z"/><path class="cls-5" d="M2.21,386h0Z"/><path d="M2.21,386l13,75H2.21Zm13,0H2.21l13,75Z"/><path class="cls-5" d="M2.21,386l13,75H2.21Zm13,0H2.21l13,75Z"/><polyline class="cls-5" points="2.21 386 2.21 460.95 15.16 460.95 15.16 386 2.21 386"/><text class="cls-6" transform="translate(335.55 95.84)">5.47</text><text class="cls-6" transform="translate(188.24 174)">4.22</text><text class="cls-6" transform="translate(291.69 494.88)">16.08</text><text class="cls-6" transform="translate(109.32 431.08)">10.15</text><text class="cls-6" transform="translate(100.2 502.5)">1.05</text><polyline class="cls-7" points="415.04 0.25 415.04 402.87 435.45 402.87 435.45 0.25"/></svg>