<svg id="_44" data-name="44" xmlns="http://www.w3.org/2000/svg" xmlns:xlink="http://www.w3.org/1999/xlink" viewBox="0 0 306.89 720.52"><defs><style>.cls-1,.cls-2,.cls-5,.cls-7{fill:none;stroke-linecap:round;stroke-linejoin:round;}.cls-1,.cls-5,.cls-7{stroke:#000;stroke-width:0.75px;}.cls-1{clip-rule:evenodd;}.cls-2{stroke:#999;stroke-width:0.5px;}.cls-3{isolation:isolate;font-size:12px;fill:#999;}.cls-3,.cls-39,.cls-40,.cls-41{font-family:PTSans-Regular, PT Sans;}.cls-4{letter-spacing:-0.01em;}.cls-5{fill-rule:evenodd;}.cls-6{clip-path:url(#clip-path);}.cls-8{clip-path:url(#clip-path-2);}.cls-9{clip-path:url(#clip-path-3);}.cls-10{clip-path:url(#clip-path-4);}.cls-11{clip-path:url(#clip-path-5);}.cls-12{clip-path:url(#clip-path-6);}.cls-13{clip-path:url(#clip-path-7);}.cls-14{clip-path:url(#clip-path-8);}.cls-15{clip-path:url(#clip-path-9);}.cls-16{clip-path:url(#clip-path-10);}.cls-17{clip-path:url(#clip-path-11);}.cls-18{clip-path:url(#clip-path-12);}.cls-19{clip-path:url(#clip-path-13);}.cls-20{clip-path:url(#clip-path-14);}.cls-21{clip-path:url(#clip-path-15);}.cls-22{clip-path:url(#clip-path-16);}.cls-23{clip-path:url(#clip-path-17);}.cls-24{clip-path:url(#clip-path-18);}.cls-25{clip-path:url(#clip-path-19);}.cls-26{clip-path:url(#clip-path-20);}.cls-27{clip-path:url(#clip-path-21);}.cls-28{clip-path:url(#clip-path-22);}.cls-29{clip-path:url(#clip-path-23);}.cls-30{clip-path:url(#clip-path-24);}.cls-31{clip-path:url(#clip-path-25);}.cls-32{clip-path:url(#clip-path-26);}.cls-33{clip-path:url(#clip-path-27);}.cls-34{clip-path:url(#clip-path-28);}.cls-35{clip-path:url(#clip-path-29);}.cls-36{clip-path:url(#clip-path-30);}.cls-37{clip-path:url(#clip-path-31);}.cls-38{clip-path:url(#clip-path-32);}.cls-39{font-size:22px;}.cls-40{font-size:24px;}.cls-41{font-size:16px;}</style><clipPath id="clip-path" transform="translate(0 -28.33)"><polyline class="cls-1" points="0.38 714.47 13.98 714.47 13.98 564.8 0.38 564.8 0.38 714.47"/></clipPath><clipPath id="clip-path-2" transform="translate(0 -28.33)"><polyline class="cls-1" points="0.38 530.78 13.98 530.78 13.98 353.9 0.38 353.9 0.38 530.78"/></clipPath><clipPath id="clip-path-3" transform="translate(0 -28.33)"><polyline class="cls-1" points="0.38 319.88 13.98 319.88 13.98 156.61 0.38 156.61 0.38 319.88"/></clipPath><clipPath id="clip-path-4" transform="translate(0 -28.33)"><polyline class="cls-1" points="13.98 734.88 13.98 748.48 123.51 748.48 123.51 734.88 13.98 734.88"/></clipPath><clipPath id="clip-path-5" transform="translate(0 -28.33)"><polyline class="cls-1" points="123.51 714.47 137.12 728.07 177.26 728.07 177.26 722.29 177.26 714.47 123.51 714.47"/></clipPath><clipPath id="clip-path-6" transform="translate(0 -28.33)"><polyline class="cls-1" points="292.91 714.47 245.29 714.47 245.29 722.29 245.29 728.07 292.91 728.07 292.91 714.47"/></clipPath><clipPath id="clip-path-7" transform="translate(0 -28.33)"><polyline class="cls-1" points="292.91 728.07 300.73 728.07 306.52 728.07 306.52 564.8 292.91 564.8 292.91 728.07"/></clipPath><clipPath id="clip-path-8" transform="translate(0 -28.33)"><polyline class="cls-1" points="292.91 530.78 306.52 530.78 306.52 353.9 292.91 353.9 292.91 530.78"/></clipPath><clipPath id="clip-path-9" transform="translate(0 -28.33)"><polyline class="cls-1" points="292.91 319.88 306.52 319.88 306.52 156.61 292.91 156.61 292.91 319.88"/></clipPath><clipPath id="clip-path-10" transform="translate(0 -28.33)"><polyline class="cls-1" points="137.12 748.48 137.12 728.07 123.51 714.47 123.51 748.48 137.12 748.48"/></clipPath><clipPath id="clip-path-11" transform="translate(0 -28.33)"><polyline class="cls-1" points="124.19 588.63 124.19 635.02 129.63 635.02 129.63 583.18 124.19 588.63"/></clipPath><clipPath id="clip-path-12" transform="translate(0 -28.33)"><polyline class="cls-1" points="124.19 714.47 129.63 714.47 129.63 682.64 124.19 682.64 124.19 714.47"/></clipPath><clipPath id="clip-path-13" transform="translate(0 -28.33)"><polyline class="cls-1" points="13.98 588.63 124.19 588.63 129.63 583.18 13.98 583.18 13.98 588.63"/></clipPath><clipPath id="clip-path-14" transform="translate(0 -28.33)"><polyline class="cls-1" points="13.98 412.41 126.46 412.41 126.46 411.38 83.6 411.38 83.6 407.98 126.46 407.98 126.46 406.96 13.98 406.96 13.98 412.41"/></clipPath><clipPath id="clip-path-15" transform="translate(0 -28.33)"><polyline class="cls-1" points="225.1 406.96 225.1 407.98 267.96 407.98 267.96 411.38 225.1 411.38 225.1 412.41 292.91 412.41 292.91 406.96 225.1 406.96"/></clipPath><clipPath id="clip-path-16" transform="translate(0 -28.33)"><polyline class="cls-1" points="13.98 122.59 13.98 136.2 27.59 136.2 27.59 125.99 27.59 122.59 13.98 122.59"/></clipPath><clipPath id="clip-path-17" transform="translate(0 -28.33)"><polyline class="cls-1" points="88.82 136.2 153.45 136.2 153.45 125.99 153.45 122.59 88.82 122.59 88.82 125.99 88.82 136.2"/></clipPath><clipPath id="clip-path-18" transform="translate(0 -28.33)"><polyline class="cls-1" points="282.71 122.59 282.71 125.99 282.71 136.2 292.91 136.2 292.91 122.59 282.71 122.59"/></clipPath><clipPath id="clip-path-19" transform="translate(0 -28.33)"><polyline class="cls-1" points="13.98 112.39 13.98 122.59 27.59 122.59 27.59 112.39 13.98 112.39"/></clipPath><clipPath id="clip-path-20" transform="translate(0 -28.33)"><polyline class="cls-1" points="88.82 122.59 153.45 122.59 153.45 112.39 88.82 112.39 88.82 122.59"/></clipPath><clipPath id="clip-path-21" transform="translate(0 -28.33)"><polyline class="cls-1" points="282.71 122.59 292.91 122.59 292.91 112.39 282.71 112.39 282.71 122.59"/></clipPath><clipPath id="clip-path-22" transform="translate(0 -28.33)"><polyline class="cls-1" points="306.52 112.39 292.91 112.39 292.91 122.59 306.52 122.59 306.52 112.39"/></clipPath><clipPath id="clip-path-23" transform="translate(0 -28.33)"><polyline class="cls-1" points="13.98 112.39 0.38 112.39 0.38 122.59 13.98 122.59 13.98 112.39"/></clipPath><clipPath id="clip-path-24" transform="translate(0 -28.33)"><polyline class="cls-1" points="129.63 583.18 129.63 588.63 136.44 588.63 136.44 583.18 129.63 583.18"/></clipPath><clipPath id="clip-path-25" transform="translate(0 -28.33)"><polyline class="cls-1" points="292.91 583.18 197.67 583.18 197.67 588.63 292.91 588.63 292.91 583.18"/></clipPath><clipPath id="clip-path-26" transform="translate(0 -28.33)"><polyline class="cls-1" points="0.38 156.61 13.98 156.61 13.98 122.59 0.38 122.59 0.38 156.61"/></clipPath><clipPath id="clip-path-27" transform="translate(0 -28.33)"><polyline class="cls-1" points="292.91 156.61 306.52 156.61 306.52 122.59 292.91 122.59 292.91 156.61"/></clipPath><clipPath id="clip-path-28" transform="translate(0 -28.33)"><polyline class="cls-1" points="292.91 353.9 306.52 353.9 306.52 319.88 292.91 319.88 292.91 353.9"/></clipPath><clipPath id="clip-path-29" transform="translate(0 -28.33)"><polyline class="cls-1" points="0.38 353.9 13.98 353.9 13.98 319.88 0.38 319.88 0.38 353.9"/></clipPath><clipPath id="clip-path-30" transform="translate(0 -28.33)"><polyline class="cls-1" points="0.38 564.8 13.98 564.8 13.98 530.78 0.38 530.78 0.38 564.8"/></clipPath><clipPath id="clip-path-31" transform="translate(0 -28.33)"><polyline class="cls-1" points="292.91 564.8 306.52 564.8 306.52 530.78 292.91 530.78 292.91 564.8"/></clipPath><clipPath id="clip-path-32" transform="translate(0 -28.33)"><polyline class="cls-1" points="0.38 748.48 13.98 748.48 13.98 714.47 0.38 714.47 0.38 748.48"/></clipPath></defs><title>1floor_44flat</title><line class="cls-2" x1="141.73" y1="10.8" x2="141.73" y2="2"/><polyline class="cls-2" points="145.33 5.3 141.83 1.8 138.33 5.3"/><text class="cls-3" transform="translate(151.15 10.2)">л<tspan class="cls-4" x="6.04" y="0">е</tspan><tspan x="12" y="0">с</tspan></text><polyline class="cls-5" points="0.38 686.13 0.38 536.46 13.98 536.46 13.98 686.13 0.38 686.13"/><g class="cls-6"><line class="cls-7" x1="12.14" y1="676.34" x2="13.98" y2="676.34"/><line class="cls-7" x1="12.14" y1="633.92" x2="13.98" y2="633.92"/><line class="cls-7" x1="12.14" y1="591.49" x2="13.98" y2="591.49"/><line class="cls-7" x1="12.14" y1="549.08" x2="13.98" y2="549.08"/><line class="cls-7" x1="0.38" y1="655.12" x2="3.98" y2="655.12"/><line class="cls-7" x1="0.38" y1="612.71" x2="3.98" y2="612.71"/><line class="cls-7" x1="0.38" y1="570.29" x2="3.98" y2="570.29"/><line class="cls-7" x1="12.14" y1="676.34" x2="13.98" y2="673.15"/><line class="cls-7" x1="0.38" y1="611.88" x2="1.94" y2="609.17"/><line class="cls-7" x1="12.14" y1="591.49" x2="13.98" y2="588.31"/><line class="cls-7" x1="0.38" y1="654.3" x2="1.94" y2="651.59"/><line class="cls-7" x1="12.14" y1="633.92" x2="13.98" y2="630.73"/><line class="cls-7" x1="0.38" y1="569.46" x2="1.94" y2="566.75"/><line class="cls-7" x1="12.14" y1="549.08" x2="13.98" y2="545.89"/><line class="cls-7" x1="3.98" y1="570.29" x2="1.94" y2="566.75"/><line class="cls-7" x1="3.98" y1="655.12" x2="1.94" y2="651.59"/><line class="cls-7" x1="3.98" y1="612.71" x2="1.94" y2="609.17"/><line class="cls-7" x1="8.06" y1="685.03" x2="8.06" y2="685.03"/><line class="cls-7" x1="8.06" y1="676.87" x2="8.06" y2="676.87"/><line class="cls-7" x1="8.06" y1="668.7" x2="8.06" y2="668.7"/><line class="cls-7" x1="8.06" y1="660.54" x2="8.06" y2="660.54"/><line class="cls-7" x1="8.06" y1="652.38" x2="8.06" y2="652.38"/><line class="cls-7" x1="8.06" y1="644.21" x2="8.06" y2="644.21"/><line class="cls-7" x1="8.06" y1="636.05" x2="8.06" y2="636.05"/><line class="cls-7" x1="8.06" y1="627.88" x2="8.06" y2="627.88"/><line class="cls-7" x1="8.06" y1="619.72" x2="8.06" y2="619.72"/><line class="cls-7" x1="8.06" y1="611.56" x2="8.06" y2="611.56"/><line class="cls-7" x1="8.06" y1="603.39" x2="8.06" y2="603.39"/><line class="cls-7" x1="8.06" y1="595.23" x2="8.06" y2="595.23"/><line class="cls-7" x1="8.06" y1="587.07" x2="8.06" y2="587.07"/><line class="cls-7" x1="8.06" y1="578.9" x2="8.06" y2="578.9"/><line class="cls-7" x1="8.06" y1="570.74" x2="8.06" y2="570.74"/><line class="cls-7" x1="8.06" y1="562.57" x2="8.06" y2="562.57"/><line class="cls-7" x1="8.06" y1="554.41" x2="8.06" y2="554.41"/><line class="cls-7" x1="8.06" y1="546.25" x2="8.06" y2="546.25"/><line class="cls-7" x1="8.06" y1="538.08" x2="8.06" y2="538.08"/><line class="cls-7" x1="4.08" y1="685.07" x2="4.08" y2="685.07"/><line class="cls-7" x1="8.41" y1="680.74" x2="8.41" y2="680.74"/><line class="cls-7" x1="2.63" y1="674.97" x2="2.63" y2="674.97"/><line class="cls-7" x1="9.85" y1="667.75" x2="9.85" y2="667.75"/><line class="cls-7" x1="4.08" y1="661.97" x2="4.08" y2="661.97"/><line class="cls-7" x1="8.41" y1="657.65" x2="8.41" y2="657.65"/><line class="cls-7" x1="2.63" y1="651.88" x2="2.63" y2="651.88"/><line class="cls-7" x1="9.85" y1="644.66" x2="9.85" y2="644.66"/><line class="cls-7" x1="4.08" y1="638.88" x2="4.08" y2="638.88"/><line class="cls-7" x1="8.41" y1="634.56" x2="8.41" y2="634.56"/><line class="cls-7" x1="2.63" y1="628.78" x2="2.63" y2="628.78"/><line class="cls-7" x1="9.85" y1="621.57" x2="9.85" y2="621.57"/><line class="cls-7" x1="4.08" y1="615.79" x2="4.08" y2="615.79"/><line class="cls-7" x1="8.41" y1="611.47" x2="8.41" y2="611.47"/><line class="cls-7" x1="2.63" y1="605.69" x2="2.63" y2="605.69"/><line class="cls-7" x1="9.85" y1="598.48" x2="9.85" y2="598.48"/><line class="cls-7" x1="4.08" y1="592.7" x2="4.08" y2="592.7"/><line class="cls-7" x1="8.41" y1="588.38" x2="8.41" y2="588.38"/><line class="cls-7" x1="2.63" y1="582.6" x2="2.63" y2="582.6"/><line class="cls-7" x1="9.85" y1="575.39" x2="9.85" y2="575.39"/><line class="cls-7" x1="4.08" y1="569.61" x2="4.08" y2="569.61"/><line class="cls-7" x1="8.41" y1="565.29" x2="8.41" y2="565.29"/><line class="cls-7" x1="2.63" y1="559.51" x2="2.63" y2="559.51"/><line class="cls-7" x1="9.85" y1="552.29" x2="9.85" y2="552.29"/><line class="cls-7" x1="4.08" y1="546.53" x2="4.08" y2="546.53"/><line class="cls-7" x1="8.41" y1="542.19" x2="8.41" y2="542.19"/></g><polyline class="cls-5" points="0.38 686.13 13.98 686.13 13.98 536.46 0.38 536.46 0.38 686.13"/><polyline class="cls-5" points="0.38 502.45 0.38 325.56 13.98 325.56 13.98 502.45 0.38 502.45"/><g class="cls-8"><line class="cls-7" x1="12.14" y1="464.23" x2="13.98" y2="464.23"/><line class="cls-7" x1="12.14" y1="379.39" x2="13.98" y2="379.39"/><line class="cls-7" x1="12.14" y1="336.97" x2="13.98" y2="336.97"/><line class="cls-7" x1="0.38" y1="485.44" x2="3.98" y2="485.44"/><line class="cls-7" x1="0.38" y1="443.02" x2="3.98" y2="443.02"/><line class="cls-7" x1="0.38" y1="400.6" x2="3.98" y2="400.6"/><line class="cls-7" x1="0.38" y1="358.18" x2="3.98" y2="358.18"/><line class="cls-7" x1="0.38" y1="442.2" x2="1.94" y2="439.49"/><line class="cls-7" x1="0.38" y1="357.36" x2="1.94" y2="354.65"/><line class="cls-7" x1="12.14" y1="336.97" x2="13.98" y2="333.79"/><line class="cls-7" x1="0.38" y1="484.62" x2="1.94" y2="481.91"/><line class="cls-7" x1="12.14" y1="464.23" x2="13.98" y2="461.05"/><line class="cls-7" x1="0.38" y1="399.78" x2="1.94" y2="397.07"/><line class="cls-7" x1="12.14" y1="379.39" x2="13.98" y2="376.21"/><line class="cls-7" x1="3.98" y1="400.6" x2="1.94" y2="397.07"/><line class="cls-7" x1="3.98" y1="485.44" x2="1.94" y2="481.91"/><line class="cls-7" x1="3.98" y1="358.18" x2="1.94" y2="354.65"/><line class="cls-7" x1="3.98" y1="443.02" x2="1.94" y2="439.49"/><line class="cls-7" x1="8.06" y1="497.26" x2="8.06" y2="497.26"/><line class="cls-7" x1="8.06" y1="489.1" x2="8.06" y2="489.1"/><line class="cls-7" x1="8.06" y1="480.93" x2="8.06" y2="480.93"/><line class="cls-7" x1="8.06" y1="472.77" x2="8.06" y2="472.77"/><line class="cls-7" x1="8.06" y1="464.61" x2="8.06" y2="464.61"/><line class="cls-7" x1="8.06" y1="456.44" x2="8.06" y2="456.44"/><line class="cls-7" x1="8.06" y1="448.28" x2="8.06" y2="448.28"/><line class="cls-7" x1="8.06" y1="440.11" x2="8.06" y2="440.11"/><line class="cls-7" x1="8.06" y1="431.95" x2="8.06" y2="431.95"/><line class="cls-7" x1="8.06" y1="399.3" x2="8.06" y2="399.3"/><line class="cls-7" x1="8.06" y1="391.13" x2="8.06" y2="391.13"/><line class="cls-7" x1="8.06" y1="382.97" x2="8.06" y2="382.97"/><line class="cls-7" x1="8.06" y1="374.8" x2="8.06" y2="374.8"/><line class="cls-7" x1="8.06" y1="366.64" x2="8.06" y2="366.64"/><line class="cls-7" x1="8.06" y1="358.48" x2="8.06" y2="358.48"/><line class="cls-7" x1="8.06" y1="350.31" x2="8.06" y2="350.31"/><line class="cls-7" x1="8.06" y1="342.15" x2="8.06" y2="342.15"/><line class="cls-7" x1="8.06" y1="333.98" x2="8.06" y2="333.98"/><line class="cls-7" x1="8.06" y1="325.82" x2="8.06" y2="325.82"/><line class="cls-7" x1="4.08" y1="500.34" x2="4.08" y2="500.34"/><line class="cls-7" x1="8.41" y1="496.01" x2="8.41" y2="496.01"/><line class="cls-7" x1="2.63" y1="490.24" x2="2.63" y2="490.24"/><line class="cls-7" x1="9.85" y1="483.03" x2="9.85" y2="483.03"/><line class="cls-7" x1="4.08" y1="477.25" x2="4.08" y2="477.25"/><line class="cls-7" x1="8.41" y1="472.92" x2="8.41" y2="472.92"/><line class="cls-7" x1="2.63" y1="467.15" x2="2.63" y2="467.15"/><line class="cls-7" x1="9.85" y1="459.93" x2="9.85" y2="459.93"/><line class="cls-7" x1="4.08" y1="454.16" x2="4.08" y2="454.16"/><line class="cls-7" x1="8.41" y1="449.83" x2="8.41" y2="449.83"/><line class="cls-7" x1="2.63" y1="444.06" x2="2.63" y2="444.06"/><line class="cls-7" x1="9.85" y1="436.84" x2="9.85" y2="436.84"/><line class="cls-7" x1="4.08" y1="431.07" x2="4.08" y2="431.07"/><line class="cls-7" x1="8.41" y1="403.65" x2="8.41" y2="403.65"/><line class="cls-7" x1="2.63" y1="397.88" x2="2.63" y2="397.88"/><line class="cls-7" x1="9.85" y1="390.66" x2="9.85" y2="390.66"/><line class="cls-7" x1="4.08" y1="384.89" x2="4.08" y2="384.89"/><line class="cls-7" x1="8.41" y1="380.56" x2="8.41" y2="380.56"/><line class="cls-7" x1="2.63" y1="374.79" x2="2.63" y2="374.79"/><line class="cls-7" x1="9.85" y1="367.57" x2="9.85" y2="367.57"/><line class="cls-7" x1="4.08" y1="361.8" x2="4.08" y2="361.8"/><line class="cls-7" x1="8.41" y1="357.47" x2="8.41" y2="357.47"/><line class="cls-7" x1="2.63" y1="351.7" x2="2.63" y2="351.7"/><line class="cls-7" x1="9.85" y1="344.48" x2="9.85" y2="344.48"/><line class="cls-7" x1="4.08" y1="338.71" x2="4.08" y2="338.71"/><line class="cls-7" x1="8.41" y1="334.38" x2="8.41" y2="334.38"/><line class="cls-7" x1="2.63" y1="328.61" x2="2.63" y2="328.61"/></g><polyline class="cls-5" points="0.38 502.45 13.98 502.45 13.98 325.56 0.38 325.56 0.38 502.45"/><polyline class="cls-5" points="0.38 291.55 0.38 128.27 13.98 128.27 13.98 291.55 0.38 291.55"/><g class="cls-9"><line class="cls-7" x1="12.14" y1="252.13" x2="13.98" y2="252.13"/><line class="cls-7" x1="12.14" y1="209.71" x2="13.98" y2="209.71"/><line class="cls-7" x1="12.14" y1="167.29" x2="13.98" y2="167.29"/><line class="cls-7" x1="0.38" y1="273.34" x2="3.98" y2="273.34"/><line class="cls-7" x1="0.38" y1="230.92" x2="3.98" y2="230.92"/><line class="cls-7" x1="0.38" y1="188.5" x2="3.98" y2="188.5"/><line class="cls-7" x1="0.38" y1="146.08" x2="3.98" y2="146.08"/><line class="cls-7" x1="0.38" y1="272.52" x2="1.94" y2="269.81"/><line class="cls-7" x1="12.14" y1="252.13" x2="13.98" y2="248.95"/><line class="cls-7" x1="0.38" y1="187.68" x2="1.94" y2="184.97"/><line class="cls-7" x1="12.14" y1="167.29" x2="13.98" y2="164.11"/><line class="cls-7" x1="13.88" y1="291.55" x2="13.98" y2="291.37"/><line class="cls-7" x1="0.38" y1="230.1" x2="1.94" y2="227.39"/><line class="cls-7" x1="12.14" y1="209.71" x2="13.98" y2="206.53"/><line class="cls-7" x1="0.38" y1="145.26" x2="1.94" y2="142.55"/><line class="cls-7" x1="3.98" y1="146.08" x2="1.94" y2="142.55"/><line class="cls-7" x1="3.98" y1="230.92" x2="1.94" y2="227.38"/><line class="cls-7" x1="3.98" y1="188.5" x2="1.94" y2="184.97"/><line class="cls-7" x1="3.98" y1="273.34" x2="1.94" y2="269.81"/><line class="cls-7" x1="8.06" y1="285" x2="8.06" y2="285"/><line class="cls-7" x1="8.06" y1="276.84" x2="8.06" y2="276.84"/><line class="cls-7" x1="8.06" y1="268.67" x2="8.06" y2="268.67"/><line class="cls-7" x1="8.06" y1="260.51" x2="8.06" y2="260.51"/><line class="cls-7" x1="8.06" y1="252.35" x2="8.06" y2="252.35"/><line class="cls-7" x1="8.06" y1="244.18" x2="8.06" y2="244.18"/><line class="cls-7" x1="8.06" y1="236.02" x2="8.06" y2="236.02"/><line class="cls-7" x1="8.06" y1="227.86" x2="8.06" y2="227.86"/><line class="cls-7" x1="8.06" y1="219.69" x2="8.06" y2="219.69"/><line class="cls-7" x1="8.06" y1="211.53" x2="8.06" y2="211.53"/><line class="cls-7" x1="8.06" y1="203.36" x2="8.06" y2="203.36"/><line class="cls-7" x1="8.06" y1="195.2" x2="8.06" y2="195.2"/><line class="cls-7" x1="8.06" y1="187.04" x2="8.06" y2="187.04"/><line class="cls-7" x1="8.06" y1="178.87" x2="8.06" y2="178.87"/><line class="cls-7" x1="8.06" y1="170.71" x2="8.06" y2="170.71"/><line class="cls-7" x1="8.06" y1="162.55" x2="8.06" y2="162.55"/><line class="cls-7" x1="8.06" y1="154.38" x2="8.06" y2="154.38"/><line class="cls-7" x1="8.06" y1="146.22" x2="8.06" y2="146.22"/><line class="cls-7" x1="8.06" y1="138.05" x2="8.06" y2="138.05"/><line class="cls-7" x1="8.06" y1="129.89" x2="8.06" y2="129.89"/><line class="cls-7" x1="8.41" y1="288.2" x2="8.41" y2="288.2"/><line class="cls-7" x1="2.63" y1="282.42" x2="2.63" y2="282.42"/><line class="cls-7" x1="9.85" y1="275.21" x2="9.85" y2="275.21"/><line class="cls-7" x1="4.08" y1="269.44" x2="4.08" y2="269.44"/><line class="cls-7" x1="8.41" y1="265.11" x2="8.41" y2="265.11"/><line class="cls-7" x1="2.63" y1="259.33" x2="2.63" y2="259.33"/><line class="cls-7" x1="9.85" y1="252.12" x2="9.85" y2="252.12"/><line class="cls-7" x1="4.08" y1="246.35" x2="4.08" y2="246.35"/><line class="cls-7" x1="8.41" y1="242.02" x2="8.41" y2="242.02"/><line class="cls-7" x1="2.63" y1="236.24" x2="2.63" y2="236.24"/><line class="cls-7" x1="9.85" y1="229.03" x2="9.85" y2="229.03"/><line class="cls-7" x1="4.08" y1="223.25" x2="4.08" y2="223.25"/><line class="cls-7" x1="8.41" y1="218.93" x2="8.41" y2="218.93"/><line class="cls-7" x1="2.63" y1="213.15" x2="2.63" y2="213.15"/><line class="cls-7" x1="9.85" y1="205.94" x2="9.85" y2="205.94"/><line class="cls-7" x1="4.08" y1="200.16" x2="4.08" y2="200.16"/><line class="cls-7" x1="8.41" y1="195.83" x2="8.41" y2="195.83"/><line class="cls-7" x1="2.63" y1="190.06" x2="2.63" y2="190.06"/><line class="cls-7" x1="9.85" y1="182.85" x2="9.85" y2="182.85"/><line class="cls-7" x1="4.08" y1="177.07" x2="4.08" y2="177.07"/><line class="cls-7" x1="8.41" y1="172.74" x2="8.41" y2="172.74"/><line class="cls-7" x1="2.63" y1="166.97" x2="2.63" y2="166.97"/><line class="cls-7" x1="9.85" y1="159.76" x2="9.85" y2="159.76"/><line class="cls-7" x1="4.08" y1="153.98" x2="4.08" y2="153.98"/><line class="cls-7" x1="8.41" y1="149.65" x2="8.41" y2="149.65"/><line class="cls-7" x1="2.63" y1="143.88" x2="2.63" y2="143.88"/><line class="cls-7" x1="9.85" y1="136.66" x2="9.85" y2="136.66"/><line class="cls-7" x1="4.08" y1="130.89" x2="4.08" y2="130.89"/></g><polyline class="cls-5" points="0.38 291.55 13.98 291.55 13.98 128.27 0.38 128.27 0.38 291.55"/><line class="cls-7" x1="13.98" y1="706.54" x2="13.98" y2="107.86"/><line class="cls-7" x1="0.38" y1="107.86" x2="0.38" y2="706.54"/><polyline class="cls-5" points="13.98 706.54 123.51 706.54 123.51 720.15 13.98 720.15 13.98 706.54"/><g class="cls-10"><line class="cls-7" x1="13.98" y1="718.75" x2="16.23" y2="718.75"/><line class="cls-7" x1="36.64" y1="718.75" x2="40.72" y2="718.75"/><line class="cls-7" x1="61.13" y1="718.75" x2="65.21" y2="718.75"/><line class="cls-7" x1="85.62" y1="718.75" x2="89.7" y2="718.75"/><line class="cls-7" x1="110.11" y1="718.75" x2="114.19" y2="718.75"/><line class="cls-7" x1="85.62" y1="718.75" x2="87.66" y2="715.22"/><line class="cls-7" x1="36.64" y1="718.75" x2="38.68" y2="715.22"/><line class="cls-7" x1="110.11" y1="718.75" x2="112.15" y2="715.22"/><line class="cls-7" x1="61.13" y1="718.75" x2="63.17" y2="715.22"/><line class="cls-7" x1="13.98" y1="715.58" x2="14.19" y2="715.22"/><line class="cls-7" x1="89.7" y1="718.75" x2="87.66" y2="715.22"/><line class="cls-7" x1="40.72" y1="718.75" x2="38.68" y2="715.22"/><line class="cls-7" x1="114.19" y1="718.75" x2="112.15" y2="715.22"/><line class="cls-7" x1="65.21" y1="718.75" x2="63.17" y2="715.22"/><line class="cls-7" x1="16.23" y1="718.75" x2="14.18" y2="715.22"/><line class="cls-7" x1="20.31" y1="717.69" x2="20.31" y2="717.69"/><line class="cls-7" x1="28.47" y1="717.69" x2="28.47" y2="717.69"/><line class="cls-7" x1="40.72" y1="717.69" x2="40.72" y2="717.69"/><line class="cls-7" x1="48.88" y1="717.69" x2="48.88" y2="717.69"/><line class="cls-7" x1="61.13" y1="717.69" x2="61.13" y2="717.69"/><line class="cls-7" x1="69.29" y1="717.69" x2="69.29" y2="717.69"/><line class="cls-7" x1="81.54" y1="717.69" x2="81.54" y2="717.69"/><line class="cls-7" x1="89.7" y1="717.69" x2="89.7" y2="717.69"/><line class="cls-7" x1="101.95" y1="717.69" x2="101.95" y2="717.69"/><line class="cls-7" x1="110.11" y1="717.69" x2="110.11" y2="717.69"/><line class="cls-7" x1="122.36" y1="717.69" x2="122.36" y2="717.69"/><line class="cls-7" x1="20.31" y1="709.52" x2="20.31" y2="709.52"/><line class="cls-7" x1="28.47" y1="709.52" x2="28.47" y2="709.52"/><line class="cls-7" x1="40.72" y1="709.52" x2="40.72" y2="709.52"/><line class="cls-7" x1="48.88" y1="709.52" x2="48.88" y2="709.52"/><line class="cls-7" x1="61.13" y1="709.52" x2="61.13" y2="709.52"/><line class="cls-7" x1="69.29" y1="709.52" x2="69.29" y2="709.52"/><line class="cls-7" x1="81.54" y1="709.52" x2="81.54" y2="709.52"/><line class="cls-7" x1="89.7" y1="709.52" x2="89.7" y2="709.52"/><line class="cls-7" x1="101.95" y1="709.52" x2="101.95" y2="709.52"/><line class="cls-7" x1="110.11" y1="709.52" x2="110.11" y2="709.52"/><line class="cls-7" x1="122.36" y1="709.52" x2="122.36" y2="709.52"/><line class="cls-7" x1="107.99" y1="719.71" x2="107.99" y2="719.71"/><line class="cls-7" x1="112.31" y1="715.37" x2="112.31" y2="715.37"/><line class="cls-7" x1="119.53" y1="708.16" x2="119.53" y2="708.16"/><line class="cls-7" x1="102.21" y1="713.93" x2="102.21" y2="713.93"/><line class="cls-7" x1="106.54" y1="709.6" x2="106.54" y2="709.6"/><line class="cls-7" x1="84.9" y1="719.71" x2="84.9" y2="719.71"/><line class="cls-7" x1="89.22" y1="715.37" x2="89.22" y2="715.37"/><line class="cls-7" x1="96.44" y1="708.16" x2="96.44" y2="708.16"/><line class="cls-7" x1="79.12" y1="713.93" x2="79.12" y2="713.93"/><line class="cls-7" x1="83.45" y1="709.6" x2="83.45" y2="709.6"/><line class="cls-7" x1="61.81" y1="719.71" x2="61.81" y2="719.71"/><line class="cls-7" x1="66.13" y1="715.37" x2="66.13" y2="715.37"/><line class="cls-7" x1="73.35" y1="708.16" x2="73.35" y2="708.16"/><line class="cls-7" x1="56.03" y1="713.93" x2="56.03" y2="713.93"/><line class="cls-7" x1="60.36" y1="709.6" x2="60.36" y2="709.6"/><line class="cls-7" x1="38.71" y1="719.71" x2="38.71" y2="719.71"/><line class="cls-7" x1="43.04" y1="715.37" x2="43.04" y2="715.37"/><line class="cls-7" x1="50.26" y1="708.16" x2="50.26" y2="708.16"/><line class="cls-7" x1="32.94" y1="713.93" x2="32.94" y2="713.93"/><line class="cls-7" x1="37.27" y1="709.6" x2="37.27" y2="709.6"/><line class="cls-7" x1="15.62" y1="719.71" x2="15.62" y2="719.71"/><line class="cls-7" x1="19.95" y1="715.37" x2="19.95" y2="715.37"/><line class="cls-7" x1="27.17" y1="708.16" x2="27.17" y2="708.16"/><line class="cls-7" x1="14.18" y1="709.6" x2="14.18" y2="709.6"/></g><polyline class="cls-5" points="13.98 706.54 13.98 720.15 123.51 720.15 123.51 706.54 13.98 706.54"/><line class="cls-7" x1="123.51" y1="706.54" x2="13.98" y2="706.54"/><line class="cls-7" x1="13.98" y1="720.15" x2="123.51" y2="720.15"/><polyline class="cls-5" points="123.51 686.13 177.26 686.13 177.26 693.96 177.26 699.74 137.12 699.74 123.51 686.13"/><g class="cls-11"><line class="cls-7" x1="146.85" y1="697.55" x2="150.93" y2="697.55"/><line class="cls-7" x1="171.34" y1="697.55" x2="175.42" y2="697.55"/><line class="cls-7" x1="146.85" y1="697.55" x2="148.89" y2="694.01"/><line class="cls-7" x1="171.34" y1="697.55" x2="173.38" y2="694.01"/><line class="cls-7" x1="175.42" y1="697.55" x2="173.38" y2="694.01"/><line class="cls-7" x1="150.93" y1="697.55" x2="148.89" y2="694.01"/><line class="cls-7" x1="142.76" y1="693.19" x2="142.76" y2="693.19"/><line class="cls-7" x1="150.93" y1="693.19" x2="150.93" y2="693.19"/><line class="cls-7" x1="163.17" y1="693.19" x2="163.17" y2="693.19"/><line class="cls-7" x1="171.34" y1="693.19" x2="171.34" y2="693.19"/><line class="cls-7" x1="177.26" y1="696.62" x2="177.26" y2="696.62"/><line class="cls-7" x1="164.27" y1="698.06" x2="164.27" y2="698.06"/><line class="cls-7" x1="171.49" y1="690.84" x2="171.49" y2="690.84"/><line class="cls-7" x1="175.81" y1="686.51" x2="175.81" y2="686.51"/><line class="cls-7" x1="154.17" y1="696.62" x2="154.17" y2="696.62"/><line class="cls-7" x1="158.49" y1="692.28" x2="158.49" y2="692.28"/><line class="cls-7" x1="141.18" y1="698.06" x2="141.18" y2="698.06"/><line class="cls-7" x1="148.39" y1="690.84" x2="148.39" y2="690.84"/><line class="cls-7" x1="152.72" y1="686.51" x2="152.72" y2="686.51"/><line class="cls-7" x1="135.4" y1="692.28" x2="135.4" y2="692.28"/><line class="cls-7" x1="129.63" y1="686.51" x2="129.63" y2="686.51"/></g><polyline class="cls-5" points="123.51 686.13 137.12 699.74 177.26 699.74 177.26 693.96 177.26 686.13 123.51 686.13"/><polyline class="cls-5" points="292.91 686.13 292.91 699.74 245.29 699.74 245.29 693.96 245.29 686.13 292.91 686.13"/><g class="cls-12"><line class="cls-7" x1="245.29" y1="697.55" x2="248.89" y2="697.55"/><line class="cls-7" x1="269.3" y1="697.55" x2="273.38" y2="697.55"/><line class="cls-7" x1="245.29" y1="696.72" x2="246.85" y2="694.01"/><line class="cls-7" x1="269.3" y1="697.55" x2="271.34" y2="694.01"/><line class="cls-7" x1="273.38" y1="697.55" x2="271.34" y2="694.01"/><line class="cls-7" x1="248.89" y1="697.55" x2="246.85" y2="694.01"/><line class="cls-7" x1="252.98" y1="693.19" x2="252.98" y2="693.19"/><line class="cls-7" x1="265.22" y1="693.19" x2="265.22" y2="693.19"/><line class="cls-7" x1="273.38" y1="693.19" x2="273.38" y2="693.19"/><line class="cls-7" x1="285.63" y1="693.19" x2="285.63" y2="693.19"/><line class="cls-7" x1="292.71" y1="696.62" x2="292.71" y2="696.62"/><line class="cls-7" x1="279.73" y1="698.06" x2="279.73" y2="698.06"/><line class="cls-7" x1="286.94" y1="690.84" x2="286.94" y2="690.84"/><line class="cls-7" x1="291.27" y1="686.51" x2="291.27" y2="686.51"/><line class="cls-7" x1="269.62" y1="696.62" x2="269.62" y2="696.62"/><line class="cls-7" x1="273.95" y1="692.28" x2="273.95" y2="692.28"/><line class="cls-7" x1="256.63" y1="698.06" x2="256.63" y2="698.06"/><line class="cls-7" x1="263.85" y1="690.84" x2="263.85" y2="690.84"/><line class="cls-7" x1="268.17" y1="686.51" x2="268.17" y2="686.51"/><line class="cls-7" x1="246.53" y1="696.62" x2="246.53" y2="696.62"/><line class="cls-7" x1="250.86" y1="692.28" x2="250.86" y2="692.28"/></g><polyline class="cls-5" points="292.91 686.13 245.29 686.13 245.29 693.96 245.29 699.74 292.91 699.74 292.91 686.13"/><line class="cls-7" x1="245.29" y1="693.96" x2="245.29" y2="699.74"/><line class="cls-7" x1="245.29" y1="686.13" x2="245.29" y2="693.96"/><line class="cls-7" x1="177.26" y1="693.96" x2="177.26" y2="699.74"/><line class="cls-7" x1="177.26" y1="686.13" x2="177.26" y2="693.96"/><line class="cls-7" x1="292.91" y1="686.13" x2="245.29" y2="686.13"/><line class="cls-7" x1="177.26" y1="686.13" x2="123.51" y2="686.13"/><line class="cls-7" x1="137.12" y1="699.74" x2="177.26" y2="699.74"/><line class="cls-7" x1="245.29" y1="699.74" x2="292.91" y2="699.74"/><path class="cls-7" d="M180,714.47a62.57,62.57,0,0,1,31.29-54.2" transform="translate(0 -28.33)"/><line class="cls-7" x1="177.26" y1="693.96" x2="179.98" y2="693.96"/><line class="cls-7" x1="179.98" y1="693.96" x2="179.98" y2="686.13"/><line class="cls-7" x1="179.98" y1="686.13" x2="177.26" y2="686.13"/><line class="cls-7" x1="177.26" y1="686.13" x2="177.26" y2="693.96"/><line class="cls-7" x1="245.29" y1="686.13" x2="242.57" y2="686.13"/><line class="cls-7" x1="242.57" y1="686.13" x2="242.57" y2="693.96"/><line class="cls-7" x1="242.57" y1="693.96" x2="245.29" y2="693.96"/><line class="cls-7" x1="245.29" y1="693.96" x2="245.29" y2="686.13"/><line class="cls-7" x1="242.57" y1="686.13" x2="211.27" y2="631.93"/><line class="cls-7" x1="177.26" y1="686.13" x2="177.26" y2="693.96"/><line class="cls-7" x1="245.29" y1="686.13" x2="245.29" y2="693.96"/><polyline class="cls-5" points="292.91 699.74 292.91 536.46 306.52 536.46 306.52 699.74 300.73 699.74 292.91 699.74"/><g class="cls-13"><line class="cls-7" x1="306.04" y1="676.34" x2="306.52" y2="676.34"/><line class="cls-7" x1="306.04" y1="633.92" x2="306.52" y2="633.92"/><line class="cls-7" x1="306.04" y1="591.49" x2="306.52" y2="591.49"/><line class="cls-7" x1="306.04" y1="549.08" x2="306.52" y2="549.08"/><line class="cls-7" x1="293.79" y1="697.55" x2="297.88" y2="697.55"/><line class="cls-7" x1="293.79" y1="655.12" x2="297.88" y2="655.12"/><line class="cls-7" x1="293.79" y1="612.71" x2="297.88" y2="612.71"/><line class="cls-7" x1="293.79" y1="570.29" x2="297.88" y2="570.29"/><line class="cls-7" x1="293.79" y1="697.55" x2="295.84" y2="694.01"/><line class="cls-7" x1="306.04" y1="676.34" x2="306.52" y2="675.51"/><line class="cls-7" x1="293.79" y1="612.71" x2="295.84" y2="609.17"/><line class="cls-7" x1="306.04" y1="591.49" x2="306.52" y2="590.67"/><line class="cls-7" x1="293.79" y1="655.12" x2="295.84" y2="651.59"/><line class="cls-7" x1="306.04" y1="633.92" x2="306.52" y2="633.09"/><line class="cls-7" x1="293.79" y1="570.29" x2="295.84" y2="566.75"/><line class="cls-7" x1="306.04" y1="549.08" x2="306.52" y2="548.25"/><line class="cls-7" x1="297.88" y1="570.29" x2="295.84" y2="566.75"/><line class="cls-7" x1="297.88" y1="655.12" x2="295.84" y2="651.59"/><line class="cls-7" x1="297.88" y1="612.71" x2="295.84" y2="609.17"/><line class="cls-7" x1="297.88" y1="697.55" x2="295.84" y2="694.01"/><line class="cls-7" x1="293.79" y1="699.74" x2="293.79" y2="699.74"/><line class="cls-7" x1="306.04" y1="699.74" x2="306.04" y2="699.74"/><line class="cls-7" x1="293.79" y1="693.19" x2="293.79" y2="693.19"/><line class="cls-7" x1="306.04" y1="693.19" x2="306.04" y2="693.19"/><line class="cls-7" x1="293.79" y1="685.03" x2="293.79" y2="685.03"/><line class="cls-7" x1="306.04" y1="685.03" x2="306.04" y2="685.03"/><line class="cls-7" x1="293.79" y1="676.87" x2="293.79" y2="676.87"/><line class="cls-7" x1="306.04" y1="676.87" x2="306.04" y2="676.87"/><line class="cls-7" x1="293.79" y1="668.7" x2="293.79" y2="668.7"/><line class="cls-7" x1="306.04" y1="668.7" x2="306.04" y2="668.7"/><line class="cls-7" x1="293.79" y1="660.54" x2="293.79" y2="660.54"/><line class="cls-7" x1="306.04" y1="660.54" x2="306.04" y2="660.54"/><line class="cls-7" x1="293.79" y1="652.38" x2="293.79" y2="652.38"/><line class="cls-7" x1="306.04" y1="652.38" x2="306.04" y2="652.38"/><line class="cls-7" x1="293.79" y1="644.21" x2="293.79" y2="644.21"/><line class="cls-7" x1="306.04" y1="644.21" x2="306.04" y2="644.21"/><line class="cls-7" x1="293.79" y1="636.05" x2="293.79" y2="636.05"/><line class="cls-7" x1="306.04" y1="636.05" x2="306.04" y2="636.05"/><line class="cls-7" x1="293.79" y1="627.88" x2="293.79" y2="627.88"/><line class="cls-7" x1="306.04" y1="627.88" x2="306.04" y2="627.88"/><line class="cls-7" x1="293.79" y1="619.72" x2="293.79" y2="619.72"/><line class="cls-7" x1="306.04" y1="619.72" x2="306.04" y2="619.72"/><line class="cls-7" x1="293.79" y1="611.56" x2="293.79" y2="611.56"/><line class="cls-7" x1="306.04" y1="611.56" x2="306.04" y2="611.56"/><line class="cls-7" x1="293.79" y1="603.39" x2="293.79" y2="603.39"/><line class="cls-7" x1="306.04" y1="603.39" x2="306.04" y2="603.39"/><line class="cls-7" x1="293.79" y1="595.23" x2="293.79" y2="595.23"/><line class="cls-7" x1="306.04" y1="595.23" x2="306.04" y2="595.23"/><line class="cls-7" x1="293.79" y1="587.07" x2="293.79" y2="587.07"/><line class="cls-7" x1="306.04" y1="587.07" x2="306.04" y2="587.07"/><line class="cls-7" x1="293.79" y1="578.9" x2="293.79" y2="578.9"/><line class="cls-7" x1="306.04" y1="578.9" x2="306.04" y2="578.9"/><line class="cls-7" x1="293.79" y1="570.74" x2="293.79" y2="570.74"/><line class="cls-7" x1="306.04" y1="570.74" x2="306.04" y2="570.74"/><line class="cls-7" x1="293.79" y1="562.57" x2="293.79" y2="562.57"/><line class="cls-7" x1="306.04" y1="562.57" x2="306.04" y2="562.57"/><line class="cls-7" x1="293.79" y1="554.41" x2="293.79" y2="554.41"/><line class="cls-7" x1="306.04" y1="554.41" x2="306.04" y2="554.41"/><line class="cls-7" x1="293.79" y1="546.25" x2="293.79" y2="546.25"/><line class="cls-7" x1="306.04" y1="546.25" x2="306.04" y2="546.25"/><line class="cls-7" x1="293.79" y1="538.08" x2="293.79" y2="538.08"/><line class="cls-7" x1="306.04" y1="538.08" x2="306.04" y2="538.08"/><line class="cls-7" x1="298.48" y1="699.74" x2="298.48" y2="699.74"/><line class="cls-7" x1="302.82" y1="698.06" x2="302.82" y2="698.06"/><line class="cls-7" x1="297.04" y1="692.28" x2="297.04" y2="692.28"/><line class="cls-7" x1="304.26" y1="685.07" x2="304.26" y2="685.07"/><line class="cls-7" x1="298.48" y1="679.3" x2="298.48" y2="679.3"/><line class="cls-7" x1="302.82" y1="674.97" x2="302.82" y2="674.97"/><line class="cls-7" x1="297.04" y1="669.19" x2="297.04" y2="669.19"/><line class="cls-7" x1="304.26" y1="661.97" x2="304.26" y2="661.97"/><line class="cls-7" x1="298.48" y1="656.21" x2="298.48" y2="656.21"/><line class="cls-7" x1="302.82" y1="651.88" x2="302.82" y2="651.88"/><line class="cls-7" x1="297.04" y1="646.1" x2="297.04" y2="646.1"/><line class="cls-7" x1="304.26" y1="638.88" x2="304.26" y2="638.88"/><line class="cls-7" x1="298.48" y1="633.12" x2="298.48" y2="633.12"/><line class="cls-7" x1="302.82" y1="628.78" x2="302.82" y2="628.78"/><line class="cls-7" x1="297.04" y1="623.01" x2="297.04" y2="623.01"/><line class="cls-7" x1="304.26" y1="615.79" x2="304.26" y2="615.79"/><line class="cls-7" x1="298.48" y1="610.03" x2="298.48" y2="610.03"/><line class="cls-7" x1="302.82" y1="605.69" x2="302.82" y2="605.69"/><line class="cls-7" x1="297.04" y1="599.92" x2="297.04" y2="599.92"/><line class="cls-7" x1="304.26" y1="592.7" x2="304.26" y2="592.7"/><line class="cls-7" x1="298.48" y1="586.94" x2="298.48" y2="586.94"/><line class="cls-7" x1="302.82" y1="582.6" x2="302.82" y2="582.6"/><line class="cls-7" x1="297.04" y1="576.83" x2="297.04" y2="576.83"/><line class="cls-7" x1="304.26" y1="569.61" x2="304.26" y2="569.61"/><line class="cls-7" x1="298.48" y1="563.84" x2="298.48" y2="563.84"/><line class="cls-7" x1="302.82" y1="559.51" x2="302.82" y2="559.51"/><line class="cls-7" x1="297.04" y1="553.74" x2="297.04" y2="553.74"/><line class="cls-7" x1="304.26" y1="546.53" x2="304.26" y2="546.53"/><line class="cls-7" x1="298.48" y1="540.75" x2="298.48" y2="540.75"/></g><polyline class="cls-5" points="292.91 699.74 300.73 699.74 306.52 699.74 306.52 536.46 292.91 536.46 292.91 699.74"/><polyline class="cls-5" points="292.91 502.45 292.91 325.56 306.52 325.56 306.52 502.45 292.91 502.45"/><g class="cls-14"><line class="cls-7" x1="306.04" y1="464.23" x2="306.52" y2="464.23"/><line class="cls-7" x1="306.04" y1="421.81" x2="306.52" y2="421.81"/><line class="cls-7" x1="306.04" y1="379.39" x2="306.52" y2="379.39"/><line class="cls-7" x1="306.04" y1="336.97" x2="306.52" y2="336.97"/><line class="cls-7" x1="293.79" y1="485.44" x2="297.88" y2="485.44"/><line class="cls-7" x1="293.79" y1="443.02" x2="297.88" y2="443.02"/><line class="cls-7" x1="293.79" y1="400.6" x2="297.88" y2="400.6"/><line class="cls-7" x1="293.79" y1="358.18" x2="297.88" y2="358.18"/><line class="cls-7" x1="293.79" y1="443.02" x2="295.84" y2="439.49"/><line class="cls-7" x1="306.04" y1="421.81" x2="306.52" y2="420.99"/><line class="cls-7" x1="293.79" y1="358.18" x2="295.84" y2="354.65"/><line class="cls-7" x1="306.04" y1="336.97" x2="306.52" y2="336.15"/><line class="cls-7" x1="293.79" y1="485.44" x2="295.84" y2="481.91"/><line class="cls-7" x1="306.04" y1="464.23" x2="306.52" y2="463.41"/><line class="cls-7" x1="293.79" y1="400.6" x2="295.84" y2="397.07"/><line class="cls-7" x1="306.04" y1="379.39" x2="306.52" y2="378.57"/><line class="cls-7" x1="297.88" y1="400.6" x2="295.84" y2="397.07"/><line class="cls-7" x1="297.88" y1="485.44" x2="295.84" y2="481.91"/><line class="cls-7" x1="297.88" y1="358.18" x2="295.84" y2="354.65"/><line class="cls-7" x1="297.88" y1="443.02" x2="295.84" y2="439.49"/><line class="cls-7" x1="293.79" y1="497.26" x2="293.79" y2="497.26"/><line class="cls-7" x1="306.04" y1="497.26" x2="306.04" y2="497.26"/><line class="cls-7" x1="293.79" y1="489.1" x2="293.79" y2="489.1"/><line class="cls-7" x1="306.04" y1="489.1" x2="306.04" y2="489.1"/><line class="cls-7" x1="293.79" y1="480.93" x2="293.79" y2="480.93"/><line class="cls-7" x1="306.04" y1="480.93" x2="306.04" y2="480.93"/><line class="cls-7" x1="293.79" y1="472.77" x2="293.79" y2="472.77"/><line class="cls-7" x1="306.04" y1="472.77" x2="306.04" y2="472.77"/><line class="cls-7" x1="293.79" y1="464.61" x2="293.79" y2="464.61"/><line class="cls-7" x1="306.04" y1="464.61" x2="306.04" y2="464.61"/><line class="cls-7" x1="293.79" y1="456.44" x2="293.79" y2="456.44"/><line class="cls-7" x1="306.04" y1="456.44" x2="306.04" y2="456.44"/><line class="cls-7" x1="293.79" y1="448.28" x2="293.79" y2="448.28"/><line class="cls-7" x1="306.04" y1="448.28" x2="306.04" y2="448.28"/><line class="cls-7" x1="293.79" y1="440.11" x2="293.79" y2="440.11"/><line class="cls-7" x1="306.04" y1="440.11" x2="306.04" y2="440.11"/><line class="cls-7" x1="293.79" y1="431.95" x2="293.79" y2="431.95"/><line class="cls-7" x1="306.04" y1="431.95" x2="306.04" y2="431.95"/><line class="cls-7" x1="293.79" y1="423.79" x2="293.79" y2="423.79"/><line class="cls-7" x1="306.04" y1="423.79" x2="306.04" y2="423.79"/><line class="cls-7" x1="293.79" y1="415.62" x2="293.79" y2="415.62"/><line class="cls-7" x1="306.04" y1="415.62" x2="306.04" y2="415.62"/><line class="cls-7" x1="293.79" y1="407.46" x2="293.79" y2="407.46"/><line class="cls-7" x1="306.04" y1="407.46" x2="306.04" y2="407.46"/><line class="cls-7" x1="293.79" y1="399.3" x2="293.79" y2="399.3"/><line class="cls-7" x1="306.04" y1="399.3" x2="306.04" y2="399.3"/><line class="cls-7" x1="293.79" y1="391.13" x2="293.79" y2="391.13"/><line class="cls-7" x1="306.04" y1="391.13" x2="306.04" y2="391.13"/><line class="cls-7" x1="293.79" y1="382.97" x2="293.79" y2="382.97"/><line class="cls-7" x1="306.04" y1="382.97" x2="306.04" y2="382.97"/><line class="cls-7" x1="293.79" y1="374.8" x2="293.79" y2="374.8"/><line class="cls-7" x1="306.04" y1="374.8" x2="306.04" y2="374.8"/><line class="cls-7" x1="293.79" y1="366.64" x2="293.79" y2="366.64"/><line class="cls-7" x1="306.04" y1="366.64" x2="306.04" y2="366.64"/><line class="cls-7" x1="293.79" y1="358.48" x2="293.79" y2="358.48"/><line class="cls-7" x1="306.04" y1="358.48" x2="306.04" y2="358.48"/><line class="cls-7" x1="293.79" y1="350.31" x2="293.79" y2="350.31"/><line class="cls-7" x1="306.04" y1="350.31" x2="306.04" y2="350.31"/><line class="cls-7" x1="293.79" y1="342.15" x2="293.79" y2="342.15"/><line class="cls-7" x1="306.04" y1="342.15" x2="306.04" y2="342.15"/><line class="cls-7" x1="293.79" y1="333.98" x2="293.79" y2="333.98"/><line class="cls-7" x1="306.04" y1="333.98" x2="306.04" y2="333.98"/><line class="cls-7" x1="293.79" y1="325.82" x2="293.79" y2="325.82"/><line class="cls-7" x1="306.04" y1="325.82" x2="306.04" y2="325.82"/><line class="cls-7" x1="304.26" y1="500.34" x2="304.26" y2="500.34"/><line class="cls-7" x1="298.48" y1="494.57" x2="298.48" y2="494.57"/><line class="cls-7" x1="302.82" y1="490.24" x2="302.82" y2="490.24"/><line class="cls-7" x1="297.04" y1="484.47" x2="297.04" y2="484.47"/><line class="cls-7" x1="304.26" y1="477.25" x2="304.26" y2="477.25"/><line class="cls-7" x1="298.48" y1="471.48" x2="298.48" y2="471.48"/><line class="cls-7" x1="302.82" y1="467.15" x2="302.82" y2="467.15"/><line class="cls-7" x1="297.04" y1="461.38" x2="297.04" y2="461.38"/><line class="cls-7" x1="304.26" y1="454.16" x2="304.26" y2="454.16"/><line class="cls-7" x1="298.48" y1="448.39" x2="298.48" y2="448.39"/><line class="cls-7" x1="302.82" y1="444.06" x2="302.82" y2="444.06"/><line class="cls-7" x1="297.04" y1="438.29" x2="297.04" y2="438.29"/><line class="cls-7" x1="304.26" y1="431.07" x2="304.26" y2="431.07"/><line class="cls-7" x1="298.48" y1="425.3" x2="298.48" y2="425.3"/><line class="cls-7" x1="302.82" y1="420.97" x2="302.82" y2="420.97"/><line class="cls-7" x1="297.04" y1="415.2" x2="297.04" y2="415.2"/><line class="cls-7" x1="304.26" y1="407.98" x2="304.26" y2="407.98"/><line class="cls-7" x1="298.48" y1="402.21" x2="298.48" y2="402.21"/><line class="cls-7" x1="302.82" y1="397.88" x2="302.82" y2="397.88"/><line class="cls-7" x1="297.04" y1="392.1" x2="297.04" y2="392.1"/><line class="cls-7" x1="304.26" y1="384.89" x2="304.26" y2="384.89"/><line class="cls-7" x1="298.48" y1="379.12" x2="298.48" y2="379.12"/><line class="cls-7" x1="302.82" y1="374.79" x2="302.82" y2="374.79"/><line class="cls-7" x1="297.04" y1="369.01" x2="297.04" y2="369.01"/><line class="cls-7" x1="304.26" y1="361.8" x2="304.26" y2="361.8"/><line class="cls-7" x1="298.48" y1="356.03" x2="298.48" y2="356.03"/><line class="cls-7" x1="302.82" y1="351.7" x2="302.82" y2="351.7"/><line class="cls-7" x1="297.04" y1="345.92" x2="297.04" y2="345.92"/><line class="cls-7" x1="304.26" y1="338.71" x2="304.26" y2="338.71"/><line class="cls-7" x1="298.48" y1="332.94" x2="298.48" y2="332.94"/><line class="cls-7" x1="302.82" y1="328.61" x2="302.82" y2="328.61"/></g><polyline class="cls-5" points="292.91 502.45 306.52 502.45 306.52 325.56 292.91 325.56 292.91 502.45"/><polyline class="cls-5" points="292.91 291.55 292.91 128.27 306.52 128.27 306.52 291.55 292.91 291.55"/><g class="cls-15"><line class="cls-7" x1="306.04" y1="252.13" x2="306.52" y2="252.13"/><line class="cls-7" x1="306.04" y1="209.71" x2="306.52" y2="209.71"/><line class="cls-7" x1="306.04" y1="167.29" x2="306.52" y2="167.29"/><line class="cls-7" x1="293.79" y1="273.34" x2="297.88" y2="273.34"/><line class="cls-7" x1="293.79" y1="230.92" x2="297.88" y2="230.92"/><line class="cls-7" x1="293.79" y1="188.5" x2="297.88" y2="188.5"/><line class="cls-7" x1="293.79" y1="146.08" x2="297.88" y2="146.08"/><line class="cls-7" x1="293.79" y1="273.34" x2="295.84" y2="269.81"/><line class="cls-7" x1="306.04" y1="252.13" x2="306.52" y2="251.31"/><line class="cls-7" x1="293.79" y1="188.5" x2="295.84" y2="184.97"/><line class="cls-7" x1="306.04" y1="167.29" x2="306.52" y2="166.47"/><line class="cls-7" x1="293.79" y1="230.92" x2="295.84" y2="227.38"/><line class="cls-7" x1="306.04" y1="209.71" x2="306.52" y2="208.89"/><line class="cls-7" x1="293.79" y1="146.08" x2="295.84" y2="142.55"/><line class="cls-7" x1="297.88" y1="146.08" x2="295.84" y2="142.55"/><line class="cls-7" x1="297.88" y1="230.92" x2="295.84" y2="227.38"/><line class="cls-7" x1="297.88" y1="188.5" x2="295.84" y2="184.97"/><line class="cls-7" x1="297.88" y1="273.34" x2="295.84" y2="269.81"/><line class="cls-7" x1="293.79" y1="285" x2="293.79" y2="285"/><line class="cls-7" x1="306.04" y1="285" x2="306.04" y2="285"/><line class="cls-7" x1="293.79" y1="276.84" x2="293.79" y2="276.84"/><line class="cls-7" x1="306.04" y1="276.84" x2="306.04" y2="276.84"/><line class="cls-7" x1="293.79" y1="268.67" x2="293.79" y2="268.67"/><line class="cls-7" x1="306.04" y1="268.67" x2="306.04" y2="268.67"/><line class="cls-7" x1="293.79" y1="260.51" x2="293.79" y2="260.51"/><line class="cls-7" x1="306.04" y1="260.51" x2="306.04" y2="260.51"/><line class="cls-7" x1="293.79" y1="252.35" x2="293.79" y2="252.35"/><line class="cls-7" x1="306.04" y1="252.35" x2="306.04" y2="252.35"/><line class="cls-7" x1="293.79" y1="244.18" x2="293.79" y2="244.18"/><line class="cls-7" x1="306.04" y1="244.18" x2="306.04" y2="244.18"/><line class="cls-7" x1="293.79" y1="236.02" x2="293.79" y2="236.02"/><line class="cls-7" x1="306.04" y1="236.02" x2="306.04" y2="236.02"/><line class="cls-7" x1="293.79" y1="227.86" x2="293.79" y2="227.86"/><line class="cls-7" x1="306.04" y1="227.86" x2="306.04" y2="227.86"/><line class="cls-7" x1="293.79" y1="219.69" x2="293.79" y2="219.69"/><line class="cls-7" x1="306.04" y1="219.69" x2="306.04" y2="219.69"/><line class="cls-7" x1="293.79" y1="211.53" x2="293.79" y2="211.53"/><line class="cls-7" x1="306.04" y1="211.53" x2="306.04" y2="211.53"/><line class="cls-7" x1="293.79" y1="203.36" x2="293.79" y2="203.36"/><line class="cls-7" x1="306.04" y1="203.36" x2="306.04" y2="203.36"/><line class="cls-7" x1="293.79" y1="195.2" x2="293.79" y2="195.2"/><line class="cls-7" x1="306.04" y1="195.2" x2="306.04" y2="195.2"/><line class="cls-7" x1="293.79" y1="187.04" x2="293.79" y2="187.04"/><line class="cls-7" x1="306.04" y1="187.04" x2="306.04" y2="187.04"/><line class="cls-7" x1="293.79" y1="178.87" x2="293.79" y2="178.87"/><line class="cls-7" x1="306.04" y1="178.87" x2="306.04" y2="178.87"/><line class="cls-7" x1="293.79" y1="170.71" x2="293.79" y2="170.71"/><line class="cls-7" x1="306.04" y1="170.71" x2="306.04" y2="170.71"/><line class="cls-7" x1="293.79" y1="162.55" x2="293.79" y2="162.55"/><line class="cls-7" x1="306.04" y1="162.55" x2="306.04" y2="162.55"/><line class="cls-7" x1="293.79" y1="154.38" x2="293.79" y2="154.38"/><line class="cls-7" x1="306.04" y1="154.38" x2="306.04" y2="154.38"/><line class="cls-7" x1="293.79" y1="146.22" x2="293.79" y2="146.22"/><line class="cls-7" x1="306.04" y1="146.22" x2="306.04" y2="146.22"/><line class="cls-7" x1="293.79" y1="138.05" x2="293.79" y2="138.05"/><line class="cls-7" x1="306.04" y1="138.05" x2="306.04" y2="138.05"/><line class="cls-7" x1="293.79" y1="129.89" x2="293.79" y2="129.89"/><line class="cls-7" x1="306.04" y1="129.89" x2="306.04" y2="129.89"/><line class="cls-7" x1="298.48" y1="286.75" x2="298.48" y2="286.75"/><line class="cls-7" x1="302.82" y1="282.42" x2="302.82" y2="282.42"/><line class="cls-7" x1="297.04" y1="276.65" x2="297.04" y2="276.65"/><line class="cls-7" x1="304.26" y1="269.44" x2="304.26" y2="269.44"/><line class="cls-7" x1="298.48" y1="263.66" x2="298.48" y2="263.66"/><line class="cls-7" x1="302.82" y1="259.33" x2="302.82" y2="259.33"/><line class="cls-7" x1="297.04" y1="253.56" x2="297.04" y2="253.56"/><line class="cls-7" x1="304.26" y1="246.35" x2="304.26" y2="246.35"/><line class="cls-7" x1="298.48" y1="240.57" x2="298.48" y2="240.57"/><line class="cls-7" x1="302.82" y1="236.24" x2="302.82" y2="236.24"/><line class="cls-7" x1="297.04" y1="230.47" x2="297.04" y2="230.47"/><line class="cls-7" x1="304.26" y1="223.25" x2="304.26" y2="223.25"/><line class="cls-7" x1="298.48" y1="217.48" x2="298.48" y2="217.48"/><line class="cls-7" x1="302.82" y1="213.15" x2="302.82" y2="213.15"/><line class="cls-7" x1="297.04" y1="207.38" x2="297.04" y2="207.38"/><line class="cls-7" x1="304.26" y1="200.16" x2="304.26" y2="200.16"/><line class="cls-7" x1="298.48" y1="194.39" x2="298.48" y2="194.39"/><line class="cls-7" x1="302.82" y1="190.06" x2="302.82" y2="190.06"/><line class="cls-7" x1="297.04" y1="184.29" x2="297.04" y2="184.29"/><line class="cls-7" x1="304.26" y1="177.07" x2="304.26" y2="177.07"/><line class="cls-7" x1="298.48" y1="171.3" x2="298.48" y2="171.3"/><line class="cls-7" x1="302.82" y1="166.97" x2="302.82" y2="166.97"/><line class="cls-7" x1="297.04" y1="161.2" x2="297.04" y2="161.2"/><line class="cls-7" x1="304.26" y1="153.98" x2="304.26" y2="153.98"/><line class="cls-7" x1="298.48" y1="148.21" x2="298.48" y2="148.21"/><line class="cls-7" x1="302.82" y1="143.88" x2="302.82" y2="143.88"/><line class="cls-7" x1="297.04" y1="138.11" x2="297.04" y2="138.11"/><line class="cls-7" x1="304.26" y1="130.89" x2="304.26" y2="130.89"/></g><polyline class="cls-5" points="292.91 291.55 306.52 291.55 306.52 128.27 292.91 128.27 292.91 291.55"/><line class="cls-7" x1="300.73" y1="699.74" x2="306.52" y2="699.74"/><line class="cls-7" x1="292.91" y1="699.74" x2="300.73" y2="699.74"/><line class="cls-7" x1="306.52" y1="699.74" x2="306.52" y2="107.86"/><line class="cls-7" x1="292.91" y1="107.86" x2="292.91" y2="686.13"/><line class="cls-7" x1="292.91" y1="699.74" x2="292.91" y2="699.74"/><line class="cls-7" x1="300.73" y1="699.74" x2="292.91" y2="699.74"/><line class="cls-7" x1="292.91" y1="699.74" x2="300.73" y2="699.74"/><polyline class="cls-5" points="137.12 720.15 123.51 720.15 123.51 686.13 137.12 699.74 137.12 720.15"/><g class="cls-16"><line class="cls-7" x1="134.6" y1="718.75" x2="137.12" y2="718.75"/><line class="cls-7" x1="123.51" y1="697.55" x2="126.44" y2="697.55"/><line class="cls-7" x1="134.6" y1="718.75" x2="136.64" y2="715.22"/><line class="cls-7" x1="123.51" y1="695.54" x2="124.4" y2="694.01"/><line class="cls-7" x1="137.12" y1="716.05" x2="136.64" y2="715.22"/><line class="cls-7" x1="126.44" y1="697.55" x2="124.4" y2="694.01"/><line class="cls-7" x1="130.52" y1="720.15" x2="130.52" y2="720.15"/><line class="cls-7" x1="130.52" y1="717.69" x2="130.52" y2="717.69"/><line class="cls-7" x1="130.52" y1="709.52" x2="130.52" y2="709.52"/><line class="cls-7" x1="130.52" y1="701.36" x2="130.52" y2="701.36"/><line class="cls-7" x1="130.52" y1="693.19" x2="130.52" y2="693.19"/><line class="cls-7" x1="129.63" y1="720.15" x2="129.63" y2="720.15"/><line class="cls-7" x1="136.85" y1="720.15" x2="136.85" y2="720.15"/><line class="cls-7" x1="123.86" y1="720.15" x2="123.86" y2="720.15"/><line class="cls-7" x1="131.08" y1="719.71" x2="131.08" y2="719.71"/><line class="cls-7" x1="135.4" y1="715.37" x2="135.4" y2="715.37"/><line class="cls-7" x1="125.3" y1="713.93" x2="125.3" y2="713.93"/><line class="cls-7" x1="129.63" y1="709.6" x2="129.63" y2="709.6"/><line class="cls-7" x1="136.85" y1="702.39" x2="136.85" y2="702.39"/><line class="cls-7" x1="123.86" y1="703.83" x2="123.86" y2="703.83"/><line class="cls-7" x1="131.08" y1="696.62" x2="131.08" y2="696.62"/><line class="cls-7" x1="125.3" y1="690.84" x2="125.3" y2="690.84"/></g><polyline class="cls-5" points="137.12 720.15 137.12 699.74 123.51 686.13 123.51 720.15 137.12 720.15"/><line class="cls-7" x1="137.12" y1="720.15" x2="137.12" y2="699.74"/><line class="cls-7" x1="123.51" y1="686.13" x2="123.51" y2="706.54"/><line class="cls-7" x1="123.51" y1="720.15" x2="123.51" y2="720.15"/><line class="cls-7" x1="123.51" y1="720.15" x2="137.12" y2="720.15"/><g class="cls-17"><line class="cls-7" x1="128.8" y1="579.11" x2="128.8" y2="579.11"/><line class="cls-7" x1="128.8" y1="563.95" x2="128.8" y2="563.95"/><line class="cls-7" x1="128.42" y1="574.69" x2="128.42" y2="574.69"/><line class="cls-7" x1="125.32" y1="566.19" x2="125.32" y2="566.19"/><line class="cls-7" x1="128.12" y1="605.21" x2="128.12" y2="605.21"/><line class="cls-7" x1="125.03" y1="596.7" x2="125.03" y2="596.7"/></g><polyline class="cls-5" points="124.19 560.29 124.19 606.68 129.63 606.68 129.63 554.85 124.19 560.29"/><g class="cls-18"><line class="cls-7" x1="128.8" y1="654.88" x2="128.8" y2="654.88"/><line class="cls-7" x1="129.32" y1="671.16" x2="129.32" y2="671.16"/><line class="cls-7" x1="127.53" y1="666.24" x2="127.53" y2="666.24"/><line class="cls-7" x1="124.43" y1="657.74" x2="124.43" y2="657.74"/></g><polyline class="cls-5" points="124.19 686.13 129.63 686.13 129.63 654.31 124.19 654.31 124.19 686.13"/><line class="cls-7" x1="124.19" y1="654.31" x2="129.63" y2="654.31"/><line class="cls-7" x1="124.19" y1="606.69" x2="129.63" y2="606.69"/><line class="cls-7" x1="124.19" y1="560.29" x2="124.19" y2="606.69"/><line class="cls-7" x1="124.19" y1="654.31" x2="124.19" y2="686.13"/><line class="cls-7" x1="124.19" y1="686.13" x2="129.63" y2="686.13"/><line class="cls-7" x1="129.63" y1="686.13" x2="129.63" y2="654.31"/><line class="cls-7" x1="129.63" y1="606.69" x2="129.63" y2="560.29"/><path class="cls-7" d="M129.63,637.74a42.2,42.2,0,0,1,36.54,21.09" transform="translate(0 -28.33)"/><line class="cls-7" x1="124.19" y1="606.69" x2="124.19" y2="609.41"/><line class="cls-7" x1="124.19" y1="609.41" x2="129.63" y2="609.41"/><line class="cls-7" x1="129.63" y1="609.41" x2="129.63" y2="606.69"/><line class="cls-7" x1="129.63" y1="606.69" x2="124.19" y2="606.69"/><line class="cls-7" x1="129.63" y1="654.31" x2="129.63" y2="651.59"/><line class="cls-7" x1="129.63" y1="651.59" x2="124.19" y2="651.59"/><line class="cls-7" x1="124.19" y1="651.59" x2="124.19" y2="654.31"/><line class="cls-7" x1="124.19" y1="654.31" x2="129.63" y2="654.31"/><line class="cls-7" x1="129.63" y1="651.59" x2="166.17" y2="630.5"/><line class="cls-7" x1="124.19" y1="606.69" x2="129.63" y2="606.69"/><line class="cls-7" x1="124.19" y1="654.31" x2="129.63" y2="654.31"/><g class="cls-19"><line class="cls-7" x1="121.22" y1="556.38" x2="121.22" y2="556.38"/><line class="cls-7" x1="106.07" y1="556.38" x2="106.07" y2="556.38"/><line class="cls-7" x1="73.24" y1="558.91" x2="73.24" y2="558.91"/><line class="cls-7" x1="58.08" y1="558.91" x2="58.08" y2="558.91"/><line class="cls-7" x1="45.45" y1="556.38" x2="45.45" y2="556.38"/><line class="cls-7" x1="30.3" y1="556.38" x2="30.3" y2="556.38"/><line class="cls-7" x1="110.37" y1="556.43" x2="110.37" y2="556.43"/><line class="cls-7" x1="100.3" y1="560.1" x2="100.3" y2="560.1"/><line class="cls-7" x1="98.5" y1="555.17" x2="98.5" y2="555.17"/><line class="cls-7" x1="88.43" y1="558.84" x2="88.43" y2="558.84"/><line class="cls-7" x1="65.21" y1="557.66" x2="65.21" y2="557.66"/><line class="cls-7" x1="53.34" y1="556.4" x2="53.34" y2="556.4"/><line class="cls-7" x1="43.28" y1="560.07" x2="43.28" y2="560.07"/><line class="cls-7" x1="30.11" y1="555.23" x2="30.11" y2="555.23"/><line class="cls-7" x1="20.04" y1="558.9" x2="20.04" y2="558.9"/></g><polyline class="cls-5" points="13.98 560.29 124.19 560.29 129.63 554.85 13.98 554.85 13.98 560.29"/><line class="cls-7" x1="13.98" y1="560.29" x2="124.19" y2="560.29"/><line class="cls-7" x1="129.63" y1="554.85" x2="13.98" y2="554.85"/><line class="cls-7" x1="13.98" y1="554.85" x2="13.98" y2="560.29"/><g class="cls-20"><line class="cls-7" x1="83.34" y1="382.12" x2="83.34" y2="382.12"/><line class="cls-7" x1="70.71" y1="379.59" x2="70.71" y2="379.59"/><line class="cls-7" x1="55.56" y1="379.59" x2="55.56" y2="379.59"/><line class="cls-7" x1="22.72" y1="382.12" x2="22.72" y2="382.12"/><line class="cls-7" x1="80.15" y1="379.41" x2="80.15" y2="379.41"/><line class="cls-7" x1="70.08" y1="383.08" x2="70.08" y2="383.08"/><line class="cls-7" x1="46.85" y1="381.9" x2="46.85" y2="381.9"/><line class="cls-7" x1="34.98" y1="380.65" x2="34.98" y2="380.65"/></g><polyline class="cls-5" points="13.98 384.07 126.46 384.07 126.46 383.05 83.6 383.05 83.6 379.65 126.46 379.65 126.46 378.63 13.98 378.63 13.98 384.07"/><g class="cls-21"><line class="cls-7" x1="282.86" y1="379.59" x2="282.86" y2="379.59"/><line class="cls-7" x1="285.81" y1="380.57" x2="285.81" y2="380.57"/><line class="cls-7" x1="262.58" y1="379.4" x2="262.58" y2="379.4"/><line class="cls-7" x1="252.51" y1="383.06" x2="252.51" y2="383.06"/></g><polyline class="cls-5" points="225.1 378.63 225.1 379.65 267.96 379.65 267.96 383.05 225.1 383.05 225.1 384.07 292.91 384.07 292.91 378.63 225.1 378.63"/><line class="cls-7" x1="267.96" y1="379.65" x2="225.1" y2="379.65"/><line class="cls-7" x1="267.96" y1="383.05" x2="267.96" y2="379.65"/><line class="cls-7" x1="225.1" y1="383.05" x2="267.96" y2="383.05"/><line class="cls-7" x1="83.6" y1="379.65" x2="126.46" y2="379.65"/><line class="cls-7" x1="83.6" y1="383.05" x2="83.6" y2="379.65"/><line class="cls-7" x1="126.46" y1="383.05" x2="83.6" y2="383.05"/><line class="cls-7" x1="126.46" y1="384.07" x2="126.46" y2="383.05"/><line class="cls-7" x1="126.46" y1="379.65" x2="126.46" y2="378.63"/><line class="cls-7" x1="225.1" y1="384.07" x2="225.1" y2="383.05"/><line class="cls-7" x1="225.1" y1="379.65" x2="225.1" y2="378.63"/><line class="cls-7" x1="292.91" y1="378.63" x2="273.71" y2="378.63"/><line class="cls-7" x1="266.3" y1="378.63" x2="247.1" y2="378.63"/><line class="cls-7" x1="239.68" y1="378.63" x2="225.1" y2="378.63"/><line class="cls-7" x1="126.46" y1="378.63" x2="107.26" y2="378.63"/><line class="cls-7" x1="99.84" y1="378.63" x2="80.64" y2="378.63"/><line class="cls-7" x1="73.23" y1="378.63" x2="54.03" y2="378.63"/><line class="cls-7" x1="46.62" y1="378.63" x2="27.42" y2="378.63"/><line class="cls-7" x1="20" y1="378.63" x2="13.98" y2="378.63"/><line class="cls-7" x1="13.98" y1="378.63" x2="13.98" y2="384.07"/><line class="cls-7" x1="13.98" y1="384.07" x2="33.18" y2="384.07"/><line class="cls-7" x1="40.6" y1="384.07" x2="59.8" y2="384.07"/><line class="cls-7" x1="67.22" y1="384.07" x2="86.41" y2="384.07"/><line class="cls-7" x1="93.83" y1="384.07" x2="113.03" y2="384.07"/><line class="cls-7" x1="120.44" y1="384.07" x2="126.46" y2="384.07"/><line class="cls-7" x1="225.1" y1="384.07" x2="244.31" y2="384.07"/><line class="cls-7" x1="251.72" y1="384.07" x2="270.92" y2="384.07"/><line class="cls-7" x1="278.34" y1="384.07" x2="292.91" y2="384.07"/><line class="cls-7" x1="292.91" y1="384.07" x2="292.91" y2="378.63"/><polyline class="cls-5" points="225.1 383.05 221.7 383.05 221.7 384.07 225.1 384.07 225.1 383.05"/><polyline class="cls-5" points="225.1 378.63 221.7 378.63 221.7 379.65 225.1 379.65 225.1 378.63"/><polyline class="cls-5" points="126.46 384.07 129.86 384.07 129.86 383.05 126.46 383.05 126.46 384.07"/><polyline class="cls-5" points="126.46 379.65 129.86 379.65 129.86 378.63 126.46 378.63 126.46 379.65"/><line class="cls-7" x1="225.1" y1="383.05" x2="221.7" y2="383.05"/><line class="cls-7" x1="221.7" y1="383.05" x2="221.7" y2="384.07"/><line class="cls-7" x1="221.7" y1="384.07" x2="225.1" y2="384.07"/><line class="cls-7" x1="225.1" y1="384.07" x2="225.1" y2="383.05"/><line class="cls-7" x1="225.1" y1="378.63" x2="221.7" y2="378.63"/><line class="cls-7" x1="221.7" y1="378.63" x2="221.7" y2="379.65"/><line class="cls-7" x1="221.7" y1="379.65" x2="225.1" y2="379.65"/><line class="cls-7" x1="225.1" y1="379.65" x2="225.1" y2="378.63"/><line class="cls-7" x1="126.46" y1="384.07" x2="129.86" y2="384.07"/><line class="cls-7" x1="129.86" y1="384.07" x2="129.86" y2="383.05"/><line class="cls-7" x1="129.86" y1="383.05" x2="126.46" y2="383.05"/><line class="cls-7" x1="126.46" y1="383.05" x2="126.46" y2="384.07"/><line class="cls-7" x1="126.46" y1="379.65" x2="129.86" y2="379.65"/><line class="cls-7" x1="129.86" y1="379.65" x2="129.86" y2="378.63"/><line class="cls-7" x1="129.86" y1="378.63" x2="126.46" y2="378.63"/><line class="cls-7" x1="126.46" y1="378.63" x2="126.46" y2="379.65"/><line class="cls-7" x1="123.06" y1="381.35" x2="168.98" y2="381.35"/><line class="cls-7" x1="228.5" y1="381.35" x2="182.58" y2="381.35"/><line class="cls-7" x1="225.1" y1="379.65" x2="225.1" y2="378.63"/><line class="cls-7" x1="225.1" y1="384.07" x2="225.1" y2="383.05"/><line class="cls-7" x1="126.46" y1="379.65" x2="126.46" y2="378.63"/><line class="cls-7" x1="126.46" y1="384.07" x2="126.46" y2="383.05"/><line class="cls-7" x1="0.38" y1="385.1" x2="0.38" y2="379.66"/><line class="cls-7" x1="306.52" y1="462.31" x2="306.52" y2="467.75"/><line class="cls-7" x1="306.52" y1="577.96" x2="306.52" y2="583.4"/><line class="cls-7" x1="306.52" y1="651.44" x2="306.52" y2="656.88"/><polyline class="cls-5" points="0.38 94.26 0.38 94.26 0.38 107.86 0.38 107.86"/><line class="cls-7" x1="0.38" y1="103.66" x2="0.38" y2="103.66"/><line class="cls-7" x1="0.38" y1="103.66" x2="0.38" y2="102.84"/><line class="cls-7" x1="0.38" y1="105.4" x2="0.38" y2="105.4"/><line class="cls-7" x1="0.38" y1="97.24" x2="0.38" y2="97.24"/><line class="cls-7" x1="0.38" y1="102.03" x2="0.38" y2="102.03"/><polyline class="cls-5" points="0.38 107.86 0.38 107.86 0.38 94.26 0.38 94.26"/><line class="cls-7" x1="0.38" y1="83.37" x2="0.38" y2="83.37"/><polyline class="cls-5" points="0.38 83.37 0.38 84.05 0.38 84.05"/><polyline class="cls-5" points="0.38 84.05 0.38 84.05 0.38 94.26 0.38 94.26"/><line class="cls-7" x1="0.38" y1="90.13" x2="0.38" y2="84.06"/><polyline class="cls-5" points="0.38 94.26 0.38 94.26 0.38 84.05 0.38 84.05"/><polyline class="cls-5" points="13.98 94.26 27.59 94.26 27.59 97.66 27.59 107.86 13.98 107.86 13.98 94.26"/><g class="cls-22"><line class="cls-7" x1="24.39" y1="103.66" x2="27.59" y2="103.66"/><line class="cls-7" x1="24.39" y1="103.66" x2="26.43" y2="100.12"/><line class="cls-7" x1="27.59" y1="102.13" x2="26.43" y2="100.12"/><line class="cls-7" x1="20.31" y1="105.4" x2="20.31" y2="105.4"/><line class="cls-7" x1="20.31" y1="97.24" x2="20.31" y2="97.24"/><line class="cls-7" x1="27.17" y1="107.8" x2="27.17" y2="107.8"/><line class="cls-7" x1="21.4" y1="102.03" x2="21.4" y2="102.03"/><line class="cls-7" x1="25.72" y1="97.7" x2="25.72" y2="97.7"/><line class="cls-7" x1="15.62" y1="96.26" x2="15.62" y2="96.26"/></g><polyline class="cls-5" points="13.98 94.26 13.98 107.86 27.59 107.86 27.59 97.66 27.59 94.26 13.98 94.26"/><polyline class="cls-5" points="88.82 107.86 88.82 97.66 88.82 94.26 153.45 94.26 153.45 97.66 153.45 107.86 88.82 107.86"/><g class="cls-23"><line class="cls-7" x1="97.86" y1="103.66" x2="101.95" y2="103.66"/><line class="cls-7" x1="122.36" y1="103.66" x2="126.44" y2="103.66"/><line class="cls-7" x1="146.85" y1="103.66" x2="150.93" y2="103.66"/><line class="cls-7" x1="146.85" y1="103.66" x2="148.89" y2="100.12"/><line class="cls-7" x1="97.86" y1="103.66" x2="99.9" y2="100.12"/><line class="cls-7" x1="122.36" y1="103.66" x2="124.4" y2="100.12"/><line class="cls-7" x1="126.44" y1="103.66" x2="124.4" y2="100.12"/><line class="cls-7" x1="150.93" y1="103.66" x2="148.89" y2="100.12"/><line class="cls-7" x1="101.95" y1="103.66" x2="99.9" y2="100.12"/><line class="cls-7" x1="89.7" y1="105.4" x2="89.7" y2="105.4"/><line class="cls-7" x1="101.95" y1="105.4" x2="101.95" y2="105.4"/><line class="cls-7" x1="110.11" y1="105.4" x2="110.11" y2="105.4"/><line class="cls-7" x1="122.36" y1="105.4" x2="122.36" y2="105.4"/><line class="cls-7" x1="130.52" y1="105.4" x2="130.52" y2="105.4"/><line class="cls-7" x1="142.76" y1="105.4" x2="142.76" y2="105.4"/><line class="cls-7" x1="150.93" y1="105.4" x2="150.93" y2="105.4"/><line class="cls-7" x1="89.7" y1="97.24" x2="89.7" y2="97.24"/><line class="cls-7" x1="101.95" y1="97.24" x2="101.95" y2="97.24"/><line class="cls-7" x1="110.11" y1="97.24" x2="110.11" y2="97.24"/><line class="cls-7" x1="122.36" y1="97.24" x2="122.36" y2="97.24"/><line class="cls-7" x1="130.52" y1="97.24" x2="130.52" y2="97.24"/><line class="cls-7" x1="142.76" y1="97.24" x2="142.76" y2="97.24"/><line class="cls-7" x1="150.93" y1="97.24" x2="150.93" y2="97.24"/><line class="cls-7" x1="142.62" y1="107.8" x2="142.62" y2="107.8"/><line class="cls-7" x1="146.95" y1="103.47" x2="146.95" y2="103.47"/><line class="cls-7" x1="136.85" y1="102.03" x2="136.85" y2="102.03"/><line class="cls-7" x1="141.18" y1="97.7" x2="141.18" y2="97.7"/><line class="cls-7" x1="119.53" y1="107.8" x2="119.53" y2="107.8"/><line class="cls-7" x1="123.86" y1="103.47" x2="123.86" y2="103.47"/><line class="cls-7" x1="131.08" y1="96.26" x2="131.08" y2="96.26"/><line class="cls-7" x1="113.76" y1="102.03" x2="113.76" y2="102.03"/><line class="cls-7" x1="118.09" y1="97.7" x2="118.09" y2="97.7"/><line class="cls-7" x1="96.44" y1="107.8" x2="96.44" y2="107.8"/><line class="cls-7" x1="100.77" y1="103.47" x2="100.77" y2="103.47"/><line class="cls-7" x1="107.99" y1="96.26" x2="107.99" y2="96.26"/><line class="cls-7" x1="90.67" y1="102.03" x2="90.67" y2="102.03"/><line class="cls-7" x1="95" y1="97.7" x2="95" y2="97.7"/></g><polyline class="cls-5" points="88.82 107.86 153.45 107.86 153.45 97.66 153.45 94.26 88.82 94.26 88.82 97.66 88.82 107.86"/><polyline class="cls-5" points="282.71 94.26 292.91 94.26 292.91 107.86 282.71 107.86 282.71 97.66 282.71 94.26"/><g class="cls-24"><line class="cls-7" x1="285.63" y1="105.4" x2="285.63" y2="105.4"/><line class="cls-7" x1="285.63" y1="97.24" x2="285.63" y2="97.24"/><line class="cls-7" x1="285.49" y1="103.47" x2="285.49" y2="103.47"/><line class="cls-7" x1="292.71" y1="96.26" x2="292.71" y2="96.26"/></g><polyline class="cls-5" points="282.71 94.26 282.71 97.66 282.71 107.86 292.91 107.86 292.91 94.26 282.71 94.26"/><polyline class="cls-5" points="27.59 83.37 27.59 84.05 13.98 84.05 13.98 83.37 27.59 83.37"/><polyline class="cls-5" points="88.82 84.05 88.82 83.37 153.45 83.37 153.45 84.05 88.82 84.05"/><polyline class="cls-5" points="292.91 83.37 292.91 84.05 282.71 84.05 282.71 83.37 292.91 83.37"/><polyline class="cls-5" points="13.98 84.05 27.59 84.05 27.59 94.26 13.98 94.26 13.98 84.05"/><g class="cls-25"><line class="cls-7" x1="25.06" y1="94.26" x2="27.59" y2="89.87"/><line class="cls-7" x1="13.98" y1="93.03" x2="19.17" y2="84.05"/><line class="cls-7" x1="26.33" y1="94.26" x2="20.44" y2="84.05"/><line class="cls-7" x1="14.55" y1="94.26" x2="13.98" y2="93.29"/></g><polyline class="cls-5" points="13.98 84.05 13.98 94.26 27.59 94.26 27.59 84.05 13.98 84.05"/><polyline class="cls-5" points="88.82 94.26 88.82 84.05 153.45 84.05 153.45 94.26 88.82 94.26"/><g class="cls-26"><line class="cls-7" x1="142.89" y1="94.26" x2="148.78" y2="84.05"/><line class="cls-7" x1="131.1" y1="94.26" x2="137" y2="84.05"/><line class="cls-7" x1="119.32" y1="94.26" x2="125.21" y2="84.05"/><line class="cls-7" x1="107.54" y1="94.26" x2="113.43" y2="84.05"/><line class="cls-7" x1="95.75" y1="94.26" x2="101.65" y2="84.05"/><line class="cls-7" x1="88.82" y1="85.87" x2="89.86" y2="84.06"/><line class="cls-7" x1="153.45" y1="89.93" x2="150.06" y2="84.05"/><line class="cls-7" x1="144.17" y1="94.26" x2="138.27" y2="84.05"/><line class="cls-7" x1="132.38" y1="94.26" x2="126.48" y2="84.05"/><line class="cls-7" x1="120.59" y1="94.26" x2="114.7" y2="84.05"/><line class="cls-7" x1="108.81" y1="94.26" x2="102.92" y2="84.05"/><line class="cls-7" x1="97.03" y1="94.26" x2="91.14" y2="84.05"/></g><polyline class="cls-5" points="88.82 94.26 153.45 94.26 153.45 84.05 88.82 84.05 88.82 94.26"/><polyline class="cls-5" points="282.71 94.26 282.71 84.05 292.91 84.05 292.91 94.26 282.71 94.26"/><g class="cls-27"><line class="cls-7" x1="284.29" y1="94.26" x2="290.18" y2="84.05"/><line class="cls-7" x1="292.91" y1="86.57" x2="291.45" y2="84.05"/><line class="cls-7" x1="285.56" y1="94.26" x2="282.71" y2="89.31"/></g><polyline class="cls-5" points="282.71 94.26 292.91 94.26 292.91 84.05 282.71 84.05 282.71 94.26"/><line class="cls-7" x1="306.52" y1="107.86" x2="306.52" y2="107.86"/><polyline class="cls-5" points="306.52 107.86 306.52 94.26 306.52 94.26"/><line class="cls-7" x1="306.52" y1="105.4" x2="306.52" y2="105.4"/><line class="cls-7" x1="306.52" y1="97.24" x2="306.52" y2="97.24"/><line class="cls-7" x1="306.52" y1="103.47" x2="306.52" y2="103.47"/><polyline class="cls-5" points="306.52 94.26 306.52 94.26 306.52 107.86"/><line class="cls-7" x1="306.52" y1="107.86" x2="306.52" y2="107.86"/><polyline class="cls-5" points="306.52 84.05 306.52 84.05 306.52 83.37 306.52 83.37"/><line class="cls-7" x1="306.52" y1="94.26" x2="306.52" y2="94.26"/><polyline class="cls-5" points="306.52 94.26 306.52 84.05 306.52 84.05"/><line class="cls-7" x1="306.52" y1="94.26" x2="306.52" y2="84.05"/><line class="cls-7" x1="306.52" y1="88.18" x2="306.52" y2="84.05"/><line class="cls-7" x1="306.52" y1="94.26" x2="306.52" y2="89.73"/><polyline class="cls-5" points="306.52 84.05 306.52 84.05 306.52 94.26"/><line class="cls-7" x1="306.52" y1="94.26" x2="306.52" y2="94.26"/><polyline class="cls-5" points="306.52 83.37 306.52 84.05 292.91 84.05 292.91 83.37 306.52 83.37"/><polyline class="cls-5" points="306.52 84.05 306.52 94.26 292.91 94.26 292.91 84.05 306.52 84.05"/><g class="cls-28"><line class="cls-7" x1="296.07" y1="94.26" x2="301.96" y2="84.05"/><line class="cls-7" x1="306.52" y1="89.73" x2="303.24" y2="84.05"/><line class="cls-7" x1="297.35" y1="94.26" x2="292.91" y2="86.58"/></g><polyline class="cls-5" points="306.52 84.05 292.91 84.05 292.91 94.26 306.52 94.26 306.52 84.05"/><polyline class="cls-5" points="13.98 83.37 13.98 84.05 0.38 84.05 0.38 83.37 13.98 83.37"/><polyline class="cls-5" points="13.98 84.05 13.98 94.26 0.38 94.26 0.38 84.05 13.98 84.05"/><g class="cls-29"><line class="cls-7" x1="13.27" y1="94.26" x2="13.98" y2="93.03"/><line class="cls-7" x1="1.49" y1="94.26" x2="7.38" y2="84.05"/><line class="cls-7" x1="13.98" y1="93.28" x2="8.65" y2="84.05"/><line class="cls-7" x1="2.76" y1="94.26" x2="0.38" y2="90.12"/></g><polyline class="cls-5" points="13.98 84.05 0.38 84.05 0.38 94.26 13.98 94.26 13.98 84.05"/><polyline class="cls-5" points="28.27 83.37 88.14 83.37 88.14 94.26 88.81 94.26 88.81 97.66 88.81 107.86 27.59 107.86 27.59 97.66 27.59 94.26 28.27 94.26 28.27 83.37"/><polyline class="cls-5" points="88.82 83.37 88.82 84.05 88.82 94.26 88.14 94.26 88.14 83.37 88.82 83.37"/><polyline class="cls-5" points="28.27 83.37 28.27 94.26 27.59 94.26 27.59 84.05 27.59 83.37 28.27 83.37"/><polyline class="cls-5" points="282.71 83.37 282.71 94.26 282.71 97.66 282.71 107.86 153.45 107.86 153.45 97.66 153.45 94.26 153.45 83.37 282.71 83.37"/><line class="cls-7" x1="0.38" y1="84.05" x2="0.38" y2="84.05"/><line class="cls-7" x1="0.38" y1="94.26" x2="0.38" y2="94.26"/><line class="cls-7" x1="27.59" y1="84.05" x2="13.98" y2="84.05"/><line class="cls-7" x1="292.91" y1="84.05" x2="282.71" y2="84.05"/><line class="cls-7" x1="153.45" y1="84.05" x2="88.82" y2="84.05"/><line class="cls-7" x1="13.98" y1="94.26" x2="27.59" y2="94.26"/><line class="cls-7" x1="282.71" y1="94.26" x2="292.91" y2="94.26"/><line class="cls-7" x1="88.82" y1="94.26" x2="153.45" y2="94.26"/><line class="cls-7" x1="306.52" y1="94.26" x2="306.52" y2="94.26"/><line class="cls-7" x1="306.52" y1="84.05" x2="306.52" y2="84.05"/><line class="cls-7" x1="306.52" y1="84.05" x2="292.91" y2="84.05"/><line class="cls-7" x1="13.98" y1="84.05" x2="0.38" y2="84.05"/><line class="cls-7" x1="0.38" y1="83.37" x2="7.18" y2="83.37"/><line class="cls-7" x1="28.27" y1="94.26" x2="28.27" y2="83.37"/><line class="cls-7" x1="27.59" y1="83.37" x2="28.27" y2="83.37"/><line class="cls-7" x1="27.59" y1="94.26" x2="28.27" y2="94.26"/><line class="cls-7" x1="27.59" y1="84.05" x2="27.59" y2="94.26"/><line class="cls-7" x1="88.14" y1="94.26" x2="88.14" y2="83.37"/><line class="cls-7" x1="88.82" y1="83.37" x2="88.14" y2="83.37"/><line class="cls-7" x1="88.82" y1="94.26" x2="88.14" y2="94.26"/><line class="cls-7" x1="88.82" y1="84.05" x2="88.82" y2="94.26"/><line class="cls-7" x1="27.59" y1="97.66" x2="27.59" y2="107.86"/><line class="cls-7" x1="27.59" y1="94.26" x2="27.59" y2="97.66"/><line class="cls-7" x1="88.82" y1="97.66" x2="88.82" y2="107.86"/><line class="cls-7" x1="88.82" y1="94.26" x2="88.82" y2="97.66"/><line class="cls-7" x1="282.71" y1="97.66" x2="282.71" y2="107.86"/><line class="cls-7" x1="282.71" y1="83.37" x2="299.71" y2="83.37"/><line class="cls-7" x1="282.71" y1="84.05" x2="282.71" y2="94.26"/><line class="cls-7" x1="282.71" y1="83.37" x2="282.71" y2="84.05"/><line class="cls-7" x1="282.71" y1="84.05" x2="282.71" y2="94.26"/><line class="cls-7" x1="282.71" y1="83.37" x2="282.71" y2="84.05"/><line class="cls-7" x1="282.71" y1="94.26" x2="282.71" y2="97.66"/><line class="cls-7" x1="153.45" y1="97.66" x2="153.45" y2="107.86"/><line class="cls-7" x1="153.45" y1="83.37" x2="136.44" y2="83.37"/><line class="cls-7" x1="153.45" y1="84.05" x2="153.45" y2="94.26"/><line class="cls-7" x1="153.45" y1="83.37" x2="153.45" y2="84.05"/><line class="cls-7" x1="153.45" y1="84.05" x2="153.45" y2="94.26"/><line class="cls-7" x1="153.45" y1="83.37" x2="153.45" y2="84.05"/><line class="cls-7" x1="153.45" y1="94.26" x2="153.45" y2="97.66"/><line class="cls-7" x1="0.38" y1="107.86" x2="0.38" y2="107.86"/><line class="cls-7" x1="13.98" y1="107.86" x2="27.59" y2="107.86"/><line class="cls-7" x1="88.82" y1="107.86" x2="153.45" y2="107.86"/><line class="cls-7" x1="282.71" y1="107.86" x2="292.91" y2="107.86"/><line class="cls-7" x1="306.52" y1="107.86" x2="306.52" y2="107.86"/><line class="cls-7" x1="306.52" y1="83.37" x2="282.71" y2="83.37"/><line class="cls-7" x1="153.45" y1="83.37" x2="88.82" y2="83.37"/><line class="cls-7" x1="27.59" y1="83.37" x2="0.38" y2="83.37"/><line class="cls-7" x1="0.38" y1="83.37" x2="7.18" y2="83.37"/><line class="cls-7" x1="88.14" y1="83.37" x2="28.27" y2="83.37"/><line class="cls-7" x1="88.82" y1="107.86" x2="27.59" y2="107.86"/><polyline class="cls-5" points="88.82 97.66 88.82 94.26 80.65 94.26 80.65 97.66 88.82 97.66"/><polyline class="cls-5" points="27.59 94.26 27.59 97.66 35.75 97.66 35.75 94.26 27.59 94.26"/><polyline class="cls-5" points="80.65 97.66 80.65 94.26 35.75 94.26 35.75 97.66 80.65 97.66"/><line class="cls-7" x1="88.82" y1="97.66" x2="80.65" y2="97.66"/><line class="cls-7" x1="80.65" y1="97.66" x2="80.65" y2="94.26"/><line class="cls-7" x1="80.65" y1="94.26" x2="88.82" y2="94.26"/><line class="cls-7" x1="27.59" y1="94.26" x2="35.75" y2="94.26"/><line class="cls-7" x1="35.75" y1="94.26" x2="35.75" y2="97.66"/><line class="cls-7" x1="35.75" y1="97.66" x2="27.59" y2="97.66"/><line class="cls-7" x1="80.65" y1="97.66" x2="35.75" y2="97.66"/><line class="cls-7" x1="35.75" y1="94.26" x2="80.65" y2="94.26"/><line class="cls-7" x1="88.82" y1="94.26" x2="88.82" y2="97.66"/><line class="cls-7" x1="27.59" y1="94.26" x2="27.59" y2="97.66"/><line class="cls-7" x1="153.45" y1="83.37" x2="282.71" y2="83.37"/><line class="cls-7" x1="153.45" y1="107.86" x2="282.71" y2="107.86"/><polyline class="cls-5" points="153.45 97.66 160.59 97.66 160.59 94.26 153.45 94.26 153.45 97.66"/><polyline class="cls-5" points="194.26 94.26 189.16 94.26 189.16 97.66 194.26 97.66 194.26 94.26"/><polyline class="cls-5" points="160.59 97.66 189.16 97.66 189.16 94.26 160.59 94.26 160.59 97.66"/><polyline class="cls-5" points="194.26 97.66 197.67 97.66 197.67 94.26 194.26 94.26 194.26 97.66"/><polyline class="cls-5" points="241.89 94.26 238.49 94.26 238.49 97.66 241.89 97.66 241.89 94.26"/><polyline class="cls-5" points="197.67 97.66 238.49 97.66 238.49 94.26 197.67 94.26 197.67 97.66"/><polyline class="cls-5" points="241.89 97.66 246.99 97.66 246.99 94.26 241.89 94.26 241.89 97.66"/><polyline class="cls-5" points="282.71 94.26 275.56 94.26 275.56 97.66 282.71 97.66 282.71 94.26"/><polyline class="cls-5" points="246.99 97.66 275.56 97.66 275.56 94.26 246.99 94.26 246.99 97.66"/><line class="cls-7" x1="153.45" y1="97.66" x2="160.59" y2="97.66"/><line class="cls-7" x1="160.59" y1="97.66" x2="160.59" y2="94.26"/><line class="cls-7" x1="160.59" y1="94.26" x2="153.45" y2="94.26"/><line class="cls-7" x1="194.26" y1="94.26" x2="189.16" y2="94.26"/><line class="cls-7" x1="189.16" y1="94.26" x2="189.16" y2="97.66"/><line class="cls-7" x1="189.16" y1="97.66" x2="194.26" y2="97.66"/><line class="cls-7" x1="160.59" y1="97.66" x2="189.16" y2="97.66"/><line class="cls-7" x1="189.16" y1="94.26" x2="160.59" y2="94.26"/><line class="cls-7" x1="194.26" y1="97.66" x2="197.67" y2="97.66"/><line class="cls-7" x1="197.67" y1="97.66" x2="197.67" y2="94.26"/><line class="cls-7" x1="197.67" y1="94.26" x2="194.26" y2="94.26"/><line class="cls-7" x1="241.89" y1="94.26" x2="238.49" y2="94.26"/><line class="cls-7" x1="238.49" y1="94.26" x2="238.49" y2="97.66"/><line class="cls-7" x1="238.49" y1="97.66" x2="241.89" y2="97.66"/><line class="cls-7" x1="197.67" y1="97.66" x2="238.49" y2="97.66"/><line class="cls-7" x1="238.49" y1="94.26" x2="197.67" y2="94.26"/><line class="cls-7" x1="241.89" y1="97.66" x2="246.99" y2="97.66"/><line class="cls-7" x1="246.99" y1="97.66" x2="246.99" y2="94.26"/><line class="cls-7" x1="246.99" y1="94.26" x2="241.89" y2="94.26"/><line class="cls-7" x1="282.71" y1="94.26" x2="275.56" y2="94.26"/><line class="cls-7" x1="275.56" y1="94.26" x2="275.56" y2="97.66"/><line class="cls-7" x1="275.56" y1="97.66" x2="282.71" y2="97.66"/><line class="cls-7" x1="246.99" y1="97.66" x2="275.56" y2="97.66"/><line class="cls-7" x1="275.56" y1="94.26" x2="246.99" y2="94.26"/><line class="cls-7" x1="153.45" y1="94.26" x2="153.45" y2="97.66"/><line class="cls-7" x1="153.45" y1="83.37" x2="153.45" y2="84.05"/><line class="cls-7" x1="153.45" y1="84.05" x2="153.45" y2="94.26"/><line class="cls-7" x1="153.45" y1="83.37" x2="136.44" y2="83.37"/><line class="cls-7" x1="282.71" y1="94.26" x2="282.71" y2="97.66"/><line class="cls-7" x1="282.71" y1="83.37" x2="282.71" y2="84.05"/><line class="cls-7" x1="282.71" y1="84.05" x2="282.71" y2="94.26"/><line class="cls-7" x1="282.71" y1="83.37" x2="299.71" y2="83.37"/><polyline class="cls-5" points="282.71 83.37 282.43 83.37 282.43 39.42 282.71 39.15 282.71 83.37"/><line class="cls-7" x1="282.71" y1="83.37" x2="282.71" y2="39.15"/><line class="cls-7" x1="282.43" y1="39.42" x2="282.43" y2="83.37"/><line class="cls-7" x1="282.43" y1="83.37" x2="282.71" y2="83.37"/><polyline class="cls-5" points="153.72 83.37 153.44 83.37 153.44 39.15 153.72 39.42 153.72 83.37"/><line class="cls-7" x1="153.72" y1="83.37" x2="153.72" y2="39.42"/><line class="cls-7" x1="153.45" y1="39.14" x2="153.45" y2="83.37"/><line class="cls-7" x1="153.45" y1="83.37" x2="153.72" y2="83.37"/><polyline class="cls-5" points="282.71 39.14 282.43 39.42 153.72 39.42 153.45 39.14 282.71 39.14"/><line class="cls-7" x1="282.71" y1="39.14" x2="153.45" y2="39.14"/><line class="cls-7" x1="153.72" y1="39.42" x2="282.43" y2="39.42"/><g class="cls-30"><line class="cls-7" x1="133.85" y1="558.91" x2="133.85" y2="558.91"/><line class="cls-7" x1="133.6" y1="557.6" x2="133.6" y2="557.6"/></g><polyline class="cls-5" points="129.63 554.85 129.63 560.29 136.44 560.29 136.44 554.85 129.63 554.85"/><g class="cls-31"><line class="cls-7" x1="285.38" y1="558.91" x2="285.38" y2="558.91"/><line class="cls-7" x1="272.75" y1="556.38" x2="272.75" y2="556.38"/><line class="cls-7" x1="257.6" y1="556.38" x2="257.6" y2="556.38"/><line class="cls-7" x1="224.77" y1="558.91" x2="224.77" y2="558.91"/><line class="cls-7" x1="209.61" y1="558.91" x2="209.61" y2="558.91"/><line class="cls-7" x1="280.94" y1="555.16" x2="280.94" y2="555.16"/><line class="cls-7" x1="270.88" y1="558.83" x2="270.88" y2="558.83"/><line class="cls-7" x1="259.02" y1="557.57" x2="259.02" y2="557.57"/><line class="cls-7" x1="235.78" y1="556.39" x2="235.78" y2="556.39"/><line class="cls-7" x1="225.72" y1="560.06" x2="225.72" y2="560.06"/><line class="cls-7" x1="223.92" y1="555.14" x2="223.92" y2="555.14"/><line class="cls-7" x1="213.85" y1="558.8" x2="213.85" y2="558.8"/></g><polyline class="cls-5" points="292.91 554.85 197.67 554.85 197.67 560.29 292.91 560.29 292.91 554.85"/><line class="cls-7" x1="136.44" y1="554.85" x2="136.44" y2="560.29"/><line class="cls-7" x1="197.67" y1="554.85" x2="197.67" y2="560.29"/><line class="cls-7" x1="129.63" y1="560.29" x2="136.44" y2="560.29"/><line class="cls-7" x1="197.67" y1="560.29" x2="216.86" y2="560.29"/><line class="cls-7" x1="224.28" y1="560.29" x2="243.49" y2="560.29"/><line class="cls-7" x1="250.9" y1="560.29" x2="270.1" y2="560.29"/><line class="cls-7" x1="277.51" y1="560.29" x2="292.91" y2="560.29"/><line class="cls-7" x1="292.91" y1="560.29" x2="292.91" y2="554.85"/><line class="cls-7" x1="292.91" y1="554.85" x2="273.71" y2="554.85"/><line class="cls-7" x1="266.3" y1="554.85" x2="247.1" y2="554.85"/><line class="cls-7" x1="239.68" y1="554.85" x2="220.48" y2="554.85"/><line class="cls-7" x1="213.06" y1="554.85" x2="197.67" y2="554.85"/><line class="cls-7" x1="136.44" y1="554.85" x2="129.63" y2="554.85"/><path class="cls-7" d="M194.94,591a55.79,55.79,0,0,1-27.89,48.31" transform="translate(0 -28.33)"/><line class="cls-7" x1="197.67" y1="554.85" x2="194.94" y2="554.85"/><line class="cls-7" x1="194.94" y1="554.85" x2="194.94" y2="562.68"/><line class="cls-7" x1="194.94" y1="562.68" x2="197.67" y2="562.68"/><line class="cls-7" x1="197.67" y1="562.68" x2="197.67" y2="554.85"/><line class="cls-7" x1="136.44" y1="562.68" x2="139.16" y2="562.68"/><line class="cls-7" x1="139.16" y1="562.68" x2="139.16" y2="554.85"/><line class="cls-7" x1="139.16" y1="554.85" x2="136.44" y2="554.85"/><line class="cls-7" x1="136.44" y1="554.85" x2="136.44" y2="562.68"/><line class="cls-7" x1="139.16" y1="562.68" x2="167.05" y2="610.98"/><line class="cls-7" x1="197.67" y1="554.85" x2="197.67" y2="560.29"/><line class="cls-7" x1="136.44" y1="554.85" x2="136.44" y2="560.29"/><line class="cls-7" x1="0.38" y1="561.32" x2="0.38" y2="555.88"/><polyline class="cls-5" points="295.63 621.54 303.8 621.54 303.8 609.97 295.63 609.97 295.63 621.54"/><path class="cls-5" d="M295.63,649.87V638.3h8.17v11.57h-8.17m-2.72,2.72h13.61v-17H292.91v17" transform="translate(0 -28.33)"/><line class="cls-7" x1="306.52" y1="624.26" x2="292.91" y2="624.26"/><line class="cls-7" x1="292.91" y1="624.26" x2="292.91" y2="607.25"/><line class="cls-7" x1="292.91" y1="607.25" x2="306.52" y2="607.25"/><line class="cls-7" x1="306.52" y1="607.25" x2="306.52" y2="624.26"/><line class="cls-7" x1="303.8" y1="621.54" x2="295.63" y2="621.54"/><line class="cls-7" x1="295.63" y1="621.54" x2="295.63" y2="609.97"/><line class="cls-7" x1="295.63" y1="609.97" x2="303.8" y2="609.97"/><line class="cls-7" x1="303.8" y1="609.97" x2="303.8" y2="621.54"/><polyline class="cls-5" points="3.1 627.46 11.26 627.46 11.26 615.9 3.1 615.9 3.1 627.46"/><path class="cls-5" d="M3.1,655.8V644.23h8.16V655.8H3.1M.38,658.52H14v-17H.38v17" transform="translate(0 -28.33)"/><line class="cls-7" x1="13.98" y1="630.18" x2="0.38" y2="630.18"/><line class="cls-7" x1="0.38" y1="630.18" x2="0.38" y2="613.18"/><line class="cls-7" x1="0.38" y1="613.18" x2="13.98" y2="613.18"/><line class="cls-7" x1="13.98" y1="613.18" x2="13.98" y2="630.18"/><line class="cls-7" x1="11.26" y1="627.46" x2="3.1" y2="627.46"/><line class="cls-7" x1="3.1" y1="627.46" x2="3.1" y2="615.9"/><line class="cls-7" x1="3.1" y1="615.9" x2="11.26" y2="615.9"/><line class="cls-7" x1="11.26" y1="615.9" x2="11.26" y2="627.46"/><polyline class="cls-5" points="0.38 128.27 0.38 94.26 13.98 94.26 13.98 128.27 0.38 128.27"/><g class="cls-32"><line class="cls-7" x1="4.77" y1="128.27" x2="13.98" y2="119.06"/><line class="cls-7" x1="0.38" y1="107.66" x2="13.77" y2="94.26"/><line class="cls-7" x1="3.36" y1="117.18" x2="12.74" y2="107.8"/></g><polyline class="cls-5" points="0.38 128.27 13.98 128.27 13.98 94.26 0.38 94.26 0.38 128.27"/><line class="cls-7" x1="0.38" y1="94.26" x2="0.38" y2="128.27"/><line class="cls-7" x1="0.38" y1="128.27" x2="13.98" y2="128.27"/><line class="cls-7" x1="13.98" y1="128.27" x2="13.98" y2="94.26"/><line class="cls-7" x1="13.98" y1="94.26" x2="0.38" y2="94.26"/><polyline class="cls-5" points="292.91 128.27 292.91 94.26 306.52 94.26 306.52 128.27 292.91 128.27"/><g class="cls-33"><line class="cls-7" x1="304.95" y1="128.27" x2="306.52" y2="126.71"/><line class="cls-7" x1="292.91" y1="115.3" x2="306.52" y2="101.69"/><line class="cls-7" x1="294.16" y1="126.56" x2="303.54" y2="117.18"/><line class="cls-7" x1="294.16" y1="101.54" x2="294.16" y2="101.54"/><line class="cls-7" x1="297.28" y1="98.42" x2="301.44" y2="94.26"/></g><polyline class="cls-5" points="292.91 128.27 306.52 128.27 306.52 94.26 292.91 94.26 292.91 128.27"/><line class="cls-7" x1="292.91" y1="94.26" x2="292.91" y2="128.27"/><line class="cls-7" x1="292.91" y1="128.27" x2="306.52" y2="128.27"/><line class="cls-7" x1="306.52" y1="128.27" x2="306.52" y2="94.26"/><line class="cls-7" x1="306.52" y1="94.26" x2="292.91" y2="94.26"/><polyline class="cls-5" points="292.91 325.56 292.91 291.55 306.52 291.55 306.52 325.56 292.91 325.56"/><g class="cls-34"><line class="cls-7" x1="292.91" y1="315.42" x2="306.52" y2="301.81"/><line class="cls-7" x1="297.28" y1="323.55" x2="297.28" y2="323.55"/><line class="cls-7" x1="300.41" y1="320.42" x2="306.52" y2="314.32"/><line class="cls-7" x1="292.91" y1="302.91" x2="297.28" y2="298.54"/><line class="cls-7" x1="300.41" y1="295.41" x2="300.41" y2="295.41"/><line class="cls-7" x1="303.54" y1="292.28" x2="304.27" y2="291.55"/></g><polyline class="cls-5" points="292.91 325.56 306.52 325.56 306.52 291.55 292.91 291.55 292.91 325.56"/><line class="cls-7" x1="292.91" y1="291.55" x2="292.91" y2="325.57"/><line class="cls-7" x1="292.91" y1="325.57" x2="306.52" y2="325.57"/><line class="cls-7" x1="306.52" y1="325.57" x2="306.52" y2="291.55"/><line class="cls-7" x1="306.52" y1="291.55" x2="292.91" y2="291.55"/><polyline class="cls-5" points="0.38 325.56 0.38 291.55 13.98 291.55 13.98 325.56 0.38 325.56"/><g class="cls-35"><line class="cls-7" x1="7.6" y1="325.57" x2="13.98" y2="319.18"/><line class="cls-7" x1="0.38" y1="307.77" x2="13.98" y2="294.17"/><line class="cls-7" x1="0.38" y1="320.28" x2="3.36" y2="317.29"/><line class="cls-7" x1="6.49" y1="314.17" x2="6.49" y2="314.17"/><line class="cls-7" x1="9.61" y1="311.04" x2="13.98" y2="306.67"/><line class="cls-7" x1="0.38" y1="295.27" x2="4.09" y2="291.55"/></g><polyline class="cls-5" points="0.38 325.56 13.98 325.56 13.98 291.55 0.38 291.55 0.38 325.56"/><line class="cls-7" x1="0.38" y1="291.55" x2="0.38" y2="325.57"/><line class="cls-7" x1="0.38" y1="325.57" x2="13.98" y2="325.57"/><line class="cls-7" x1="13.98" y1="325.57" x2="13.98" y2="291.55"/><line class="cls-7" x1="13.98" y1="291.55" x2="0.38" y2="291.55"/><polyline class="cls-5" points="0.38 536.46 0.38 502.45 13.98 502.45 13.98 536.46 0.38 536.46"/><g class="cls-36"><line class="cls-7" x1="0.38" y1="532.91" x2="13.98" y2="519.3"/><line class="cls-7" x1="0.38" y1="507.89" x2="5.82" y2="502.45"/><line class="cls-7" x1="9.61" y1="536.18" x2="9.61" y2="536.18"/><line class="cls-7" x1="12.74" y1="533.05" x2="13.98" y2="531.81"/><line class="cls-7" x1="0.38" y1="520.4" x2="9.61" y2="511.16"/><line class="cls-7" x1="12.74" y1="508.03" x2="12.74" y2="508.03"/></g><polyline class="cls-5" points="0.38 536.46 13.98 536.46 13.98 502.45 0.38 502.45 0.38 536.46"/><line class="cls-7" x1="0.38" y1="502.45" x2="0.38" y2="536.46"/><line class="cls-7" x1="0.38" y1="536.46" x2="13.98" y2="536.46"/><line class="cls-7" x1="13.98" y1="536.46" x2="13.98" y2="502.45"/><line class="cls-7" x1="13.98" y1="502.45" x2="0.38" y2="502.45"/><polyline class="cls-5" points="292.91 536.46 292.91 502.45 306.52 502.45 306.52 536.46 292.91 536.46"/><g class="cls-37"><line class="cls-7" x1="297" y1="536.46" x2="306.52" y2="526.95"/><line class="cls-7" x1="292.91" y1="515.54" x2="306" y2="502.45"/><line class="cls-7" x1="292.91" y1="528.04" x2="300.41" y2="520.54"/><line class="cls-7" x1="303.54" y1="517.41" x2="303.54" y2="517.41"/></g><polyline class="cls-5" points="292.91 536.46 306.52 536.46 306.52 502.45 292.91 502.45 292.91 536.46"/><line class="cls-7" x1="292.91" y1="502.45" x2="292.91" y2="536.46"/><line class="cls-7" x1="292.91" y1="536.46" x2="306.52" y2="536.46"/><line class="cls-7" x1="306.52" y1="536.46" x2="306.52" y2="502.45"/><line class="cls-7" x1="306.52" y1="502.45" x2="292.91" y2="502.45"/><polyline class="cls-5" points="0.38 720.15 0.38 686.13 13.98 686.13 13.98 720.15 0.38 720.15"/><g class="cls-38"><line class="cls-7" x1="13.25" y1="720.15" x2="13.98" y2="719.42"/><line class="cls-7" x1="0.38" y1="708.01" x2="13.98" y2="694.41"/><line class="cls-7" x1="3.36" y1="717.54" x2="3.36" y2="717.54"/><line class="cls-7" x1="6.49" y1="714.41" x2="13.98" y2="706.92"/><line class="cls-7" x1="0.38" y1="695.51" x2="3.36" y2="692.52"/><line class="cls-7" x1="6.49" y1="689.39" x2="6.49" y2="689.39"/><line class="cls-7" x1="9.61" y1="686.27" x2="9.75" y2="686.13"/></g><polyline class="cls-5" points="0.38 720.15 13.98 720.15 13.98 686.13 0.38 686.13 0.38 720.15"/><line class="cls-7" x1="0.38" y1="686.13" x2="0.38" y2="720.15"/><line class="cls-7" x1="0.38" y1="720.15" x2="13.98" y2="720.15"/><line class="cls-7" x1="13.98" y1="720.15" x2="13.98" y2="686.13"/><line class="cls-7" x1="13.98" y1="686.13" x2="0.38" y2="686.13"/><text class="cls-39" transform="translate(201.09 620.29)">4.4</text><text class="cls-39" transform="translate(55.31 634.51)">3.5</text><text class="cls-40" transform="translate(136.83 260.15)">1К</text><text class="cls-40" transform="translate(121.96 293.19)">35.50</text><text class="cls-40" transform="translate(125.33 227.61)">№44</text><polyline class="cls-7" points="110.16 301.55 110.16 204.35 191.22 204.35 191.22 301.55"/><line class="cls-7" x1="110.16" y1="236.81" x2="191.22" y2="236.81"/><line class="cls-7" x1="110.16" y1="301.55" x2="191.22" y2="301.55"/><line class="cls-7" x1="110.16" y1="269.27" x2="191.22" y2="269.27"/><path class="cls-7" d="M284.64,693a11.34,11.34,0,1,0-11.33,11.34A11.34,11.34,0,0,0,284.64,693" transform="translate(0 -28.33)"/><text class="cls-41" transform="translate(268.94 670.55)">1</text><path class="cls-7" d="M48.18,716.1a11.34,11.34,0,1,0-11.34,11.34A11.34,11.34,0,0,0,48.18,716.1" transform="translate(0 -28.33)"/><text class="cls-41" transform="translate(32.48 693.65)">3</text><text class="cls-39" transform="translate(137.36 477.33)">10.3</text><path class="cls-7" d="M48.18,560.33a11.34,11.34,0,1,0-11.34,11.34,11.34,11.34,0,0,0,11.34-11.34" transform="translate(0 -28.33)"/><text class="cls-41" transform="translate(32.48 537.88)">2</text><text class="cls-39" transform="translate(137.37 145.62)">16.3</text><path class="cls-7" d="M48.18,388.88a11.34,11.34,0,1,0-11.34,11.34,11.34,11.34,0,0,0,11.34-11.34" transform="translate(0 -28.33)"/><text class="cls-41" transform="translate(32.48 366.42)">4</text></svg>