<svg id="_231" data-name="231" xmlns="http://www.w3.org/2000/svg" viewBox="0 0 795.73 476.66"><defs><style>.cls-1,.cls-3,.cls-5,.cls-8{fill:none;}.cls-1,.cls-3{stroke:#969696;}.cls-1{stroke-miterlimit:10;}.cls-2{isolation:isolate;font-size:12px;fill:#969696;}.cls-2,.cls-6,.cls-7{font-family:PTSans-Regular, PT Sans;}.cls-3,.cls-5,.cls-8{stroke-linecap:round;stroke-linejoin:round;}.cls-4{letter-spacing:-0.01em;}.cls-5{stroke:#000;}.cls-5,.cls-8{stroke-width:0.5px;}.cls-6,.cls-7{font-size:17px;}.cls-7{fill:#181716;}.cls-8{stroke:#181716;}</style></defs><title>1floor_231flat</title><line class="cls-1" x1="2.02" y1="253.92" x2="10.82" y2="253.92"/><polyline class="cls-1" points="5.32 257.42 1.82 253.92 5.32 250.42"/><text class="cls-2" transform="translate(10.2 244.64) rotate(-90)">двор</text><line class="cls-3" x1="793.19" y1="256.41" x2="784.39" y2="256.41"/><polyline class="cls-3" points="789.89 253.01 793.39 256.51 789.89 260.01"/><text class="cls-2" transform="translate(792.79 247.18) rotate(-90)"><tspan class="cls-4">у</tspan><tspan x="5.42" y="0">лица</tspan></text><polyline class="cls-5" points="450.38 445.45 450.38 295.69 340.46 295.69 340.46 445.45 373.34 445.45 373.34 417.37 405.98 417.37 405.98 445.45 450.38 445.45"/><polyline class="cls-5" points="508.94 189.13 669.74 189.13 675.5 189.13 675.5 182.17 719.42 182.17 719.42 7.45 455.18 7.45 455.18 182.17 508.94 182.17 508.94 189.13"/><polyline class="cls-5" points="293.66 291.13 335.9 291.13 335.9 193.93 274.94 193.93 99.5 193.93 99.5 445.45 293.66 445.45 293.66 291.13"/><polyline class="cls-5" points="340.46 189.13 340.46 291.13 450.38 291.13 450.38 130.81 372.62 130.81 372.62 75.13 274.94 75.13 274.94 135.37 274.94 189.13 340.46 189.13"/><line class="cls-5" x1="372.62" y1="63.61" x2="274.94" y2="63.61"/><polyline class="cls-5" points="298.46 445.45 335.9 445.45 335.9 295.69 298.46 295.69 298.46 445.45"/><polyline class="cls-5" points="377.42 75.13 377.42 126.01 450.38 126.01 450.38 41.29 428.3 41.29 428.3 9.61 377.42 9.61 377.42 75.13"/><polyline class="cls-5" points="669.74 193.93 455.18 193.93 455.18 445.45 508.94 445.45 675.5 445.45 719.42 445.45 719.42 193.93 669.74 193.93"/><path d="M96.89,476.41Zm0-7.2v0Zm7,0h-7v7.2Z" transform="translate(-28.35)"/><path class="cls-5" d="M96.89,476.41Zm0-7.2v0Zm7,0h-7v7.2Z" transform="translate(-28.35)"/><path d="M96.89,263.53l7,2.4h-7Zm7,0h-7l7,2.4Z" transform="translate(-28.35)"/><path class="cls-5" d="M96.89,263.53l7,2.4h-7Zm7,0h-7l7,2.4Z" transform="translate(-28.35)"/><path d="M96.89,265.93l7,47.76h-7Zm7,0h-7l7,47.76Z" transform="translate(-28.35)"/><path class="cls-5" d="M96.89,265.93l7,47.76h-7Zm7,0h-7l7,47.76Z" transform="translate(-28.35)"/><path d="M96.89,313.69l7,2.4h-7Zm7,0h-7l7,2.4Z" transform="translate(-28.35)"/><path class="cls-5" d="M96.89,313.69l7,2.4h-7Zm7,0h-7l7,2.4Z" transform="translate(-28.35)"/><path d="M96.89,415.45l7,2.4h-7Zm7,0h-7l7,2.4Z" transform="translate(-28.35)"/><path class="cls-5" d="M96.89,415.45l7,2.4h-7Zm7,0h-7l7,2.4Z" transform="translate(-28.35)"/><path d="M96.89,417.85l7,51.36h-7Zm7,0h-7l7,51.36Z" transform="translate(-28.35)"/><path class="cls-5" d="M96.89,417.85l7,51.36h-7Zm7,0h-7l7,51.36Z" transform="translate(-28.35)"/><path d="M96.89,202.57l7,4.8h-7Zm7,0h-7l7,4.8Z" transform="translate(-28.35)"/><path class="cls-5" d="M96.89,202.57l7,4.8h-7Zm7,0h-7l7,4.8Z" transform="translate(-28.35)"/><path d="M96.89,207.37l7,2.4h-7Zm7,0h-7l7,2.4Z" transform="translate(-28.35)"/><path class="cls-5" d="M96.89,207.37l7,2.4h-7Zm7,0h-7l7,2.4Z" transform="translate(-28.35)"/><path d="M103.85,202.57h0Zm0-4.56v4.56h-7Z" transform="translate(-28.35)"/><path class="cls-5" d="M103.85,202.57h0Zm0-4.56v4.56h-7Z" transform="translate(-28.35)"/><path d="M103.85,468.73h.72l-.72.48Zm0-1.68v1.68h.72Z" transform="translate(-28.35)"/><path class="cls-5" d="M103.85,468.73h.72l-.72.48Zm0-1.68v1.68h.72Z" transform="translate(-28.35)"/><path d="M103.85,467.05h.72v1.68Zm0-49.2v49.2h.72Z" transform="translate(-28.35)"/><path class="cls-5" d="M103.85,467.05h.72v1.68Zm0-49.2v49.2h.72Z" transform="translate(-28.35)"/><polygon points="75.5 417.85 76.22 417.85 76.22 467.05 75.5 417.85"/><polygon class="cls-5" points="75.5 417.85 76.22 417.85 76.22 467.05 75.5 417.85"/><path d="M103.85,265.93l.72,47.76h-.72Zm.72,0h-.72l.72,47.76Z" transform="translate(-28.35)"/><path class="cls-5" d="M103.85,265.93l.72,47.76h-.72Zm.72,0h-.72l.72,47.76Z" transform="translate(-28.35)"/><polygon points="76.22 197.53 76.22 198.01 75.5 198.01 76.22 197.53"/><polygon class="cls-5" points="76.22 197.53 76.22 198.01 75.5 198.01 76.22 197.53"/><path d="M103.85,198l.72,9.36h-.72Zm.72,0h-.72l.72,9.36Z" transform="translate(-28.35)"/><path class="cls-5" d="M103.85,198l.72,9.36h-.72Zm.72,0h-.72l.72,9.36Z" transform="translate(-28.35)"/><polygon points="76.22 467.05 77.9 467.05 76.22 468.73 76.22 467.05"/><polygon class="cls-5" points="76.22 467.05 77.9 467.05 76.22 468.73 76.22 467.05"/><path d="M104.57,417.85l8.64,42h-8.64Zm8.64,0h-8.64l8.64,42Z" transform="translate(-28.35)"/><path class="cls-5" d="M104.57,417.85l8.64,42h-8.64Zm8.64,0h-8.64l8.64,42Z" transform="translate(-28.35)"/><path d="M104.57,459.85l1.68,7.2h-1.68Zm8.64,0h-8.64l1.68,7.2Z" transform="translate(-28.35)"/><path class="cls-5" d="M104.57,459.85l1.68,7.2h-1.68Zm8.64,0h-8.64l1.68,7.2Z" transform="translate(-28.35)"/><path d="M104.57,265.93l8.64,47.76h-8.64Zm8.64,0h-8.64l8.64,47.76Z" transform="translate(-28.35)"/><path class="cls-5" d="M104.57,265.93l8.64,47.76h-8.64Zm8.64,0h-8.64l8.64,47.76Z" transform="translate(-28.35)"/><polygon points="84.86 191.77 84.86 197.53 76.22 197.53 84.86 191.77"/><polygon class="cls-5" points="84.86 191.77 84.86 197.53 76.22 197.53 84.86 191.77"/><path d="M104.57,197.53l8.64,9.84h-8.64Zm8.64,0h-8.64l8.64,9.84Z" transform="translate(-28.35)"/><path class="cls-5" d="M104.57,197.53l8.64,9.84h-8.64Zm8.64,0h-8.64l8.64,9.84Z" transform="translate(-28.35)"/><polygon points="84.86 456.97 87.74 456.97 84.86 459.85 84.86 456.97"/><polygon class="cls-5" points="84.86 456.97 87.74 456.97 84.86 459.85 84.86 456.97"/><path d="M113.21,445.45,116.09,457h-2.88Zm14.64,0H113.21L116.09,457Z" transform="translate(-28.35)"/><path class="cls-5" d="M113.21,445.45,116.09,457h-2.88Zm14.64,0H113.21L116.09,457Z" transform="translate(-28.35)"/><path d="M113.21,417.85l14.64,27.6H113.21Zm14.64,0H113.21l14.64,27.6Z" transform="translate(-28.35)"/><path class="cls-5" d="M113.21,417.85l14.64,27.6H113.21Zm14.64,0H113.21l14.64,27.6Z" transform="translate(-28.35)"/><path d="M113.21,265.93l14.64,47.76H113.21Zm14.64,0H113.21l14.64,47.76Z" transform="translate(-28.35)"/><path class="cls-5" d="M113.21,265.93l14.64,47.76H113.21Zm14.64,0H113.21l14.64,47.76Z" transform="translate(-28.35)"/><path d="M113.21,193.93h0Z" transform="translate(-28.35)"/><path class="cls-5" d="M113.21,193.93h0Z" transform="translate(-28.35)"/><path d="M113.21,193.93l14.64,13.44H113.21Zm14.64,0H113.21l14.64,13.44Z" transform="translate(-28.35)"/><path class="cls-5" d="M113.21,193.93l14.64,13.44H113.21Zm14.64,0H113.21l14.64,13.44Z" transform="translate(-28.35)"/><polygon points="99.5 182.17 99.5 191.77 84.86 191.77 99.5 182.17"/><polygon class="cls-5" points="99.5 182.17 99.5 191.77 84.86 191.77 99.5 182.17"/><path d="M127.85,193.93H113.21v-2.16Zm0,0Z" transform="translate(-28.35)"/><path class="cls-5" d="M127.85,193.93H113.21v-2.16Zm0,0Z" transform="translate(-28.35)"/><polygon points="84.86 191.77 99.5 191.77 99.5 193.93 84.86 191.77"/><polygon class="cls-5" points="84.86 191.77 99.5 191.77 99.5 193.93 84.86 191.77"/><line class="cls-5" x1="75.5" y1="202.57" x2="68.54" y2="202.57"/><line class="cls-5" x1="75.5" y1="467.05" x2="75.5" y2="469.21"/><line class="cls-5" x1="75.5" y1="265.93" x2="75.5" y2="313.69"/><line class="cls-5" x1="75.5" y1="417.85" x2="75.5" y2="467.05"/><line class="cls-5" x1="75.5" y1="198.01" x2="75.5" y2="207.37"/><line class="cls-5" x1="77.9" y1="467.05" x2="76.22" y2="467.05"/><line class="cls-5" x1="76.22" y1="265.93" x2="76.22" y2="313.69"/><line class="cls-5" x1="76.22" y1="417.85" x2="76.22" y2="467.05"/><line class="cls-5" x1="76.22" y1="197.53" x2="76.22" y2="207.37"/><line class="cls-5" x1="87.74" y1="456.97" x2="84.86" y2="456.97"/><line class="cls-5" x1="99.5" y1="445.45" x2="84.86" y2="445.45"/><line class="cls-5" x1="99.5" y1="182.17" x2="99.5" y2="182.17"/><line class="cls-5" x1="84.86" y1="193.93" x2="99.5" y2="193.93"/><polyline class="cls-5" points="78.38 207.37 84.86 207.37 99.5 207.37"/><polyline class="cls-5" points="68.54 209.77 75.5 209.77 75.5 207.37"/><polyline class="cls-5" points="75.5 207.37 76.22 207.37 78.38 207.37"/><polyline class="cls-5" points="78.38 265.93 84.86 265.93 99.5 265.93"/><polyline class="cls-5" points="68.54 263.53 75.5 263.53 75.5 265.93"/><polyline class="cls-5" points="75.5 265.93 76.22 265.93 78.38 265.93"/><polyline class="cls-5" points="78.38 313.69 84.86 313.69 99.5 313.69"/><polyline class="cls-5" points="68.54 316.09 75.5 316.09 75.5 313.69"/><polyline class="cls-5" points="75.5 313.69 76.22 313.69 78.38 313.69"/><polyline class="cls-5" points="78.38 417.85 84.86 417.85 99.5 417.85"/><polyline class="cls-5" points="68.54 415.45 75.5 415.45 75.5 417.85"/><polyline class="cls-5" points="75.5 417.85 76.22 417.85 78.38 417.85"/><line class="cls-5" x1="99.5" y1="445.45" x2="99.5" y2="417.85"/><line class="cls-5" x1="99.5" y1="313.69" x2="99.5" y2="265.93"/><line class="cls-5" x1="99.5" y1="207.37" x2="99.5" y2="193.93"/><line class="cls-5" x1="68.54" y1="202.57" x2="68.54" y2="209.77"/><line class="cls-5" x1="68.54" y1="263.53" x2="68.54" y2="316.09"/><polyline class="cls-5" points="68.54 476.41 68.54 469.21 68.54 415.45"/><line class="cls-5" x1="68.54" y1="263.53" x2="68.54" y2="209.77"/><line class="cls-5" x1="99.5" y1="265.93" x2="99.5" y2="207.37"/><path d="M103.85,258.73h0Z" transform="translate(-28.35)"/><path class="cls-5" d="M103.85,258.73h0Z" transform="translate(-28.35)"/><path d="M106.73,265.93h-2.88v-7.2Zm0,0Z" transform="translate(-28.35)"/><path class="cls-5" d="M106.73,265.93h-2.88v-7.2Zm0,0Z" transform="translate(-28.35)"/><polygon points="75.5 258.73 78.38 258.73 78.38 265.93 75.5 258.73"/><polygon class="cls-5" points="75.5 258.73 78.38 258.73 78.38 265.93 75.5 258.73"/><path d="M103.85,207.37h0Z" transform="translate(-28.35)"/><path class="cls-5" d="M103.85,207.37h0Z" transform="translate(-28.35)"/><path d="M106.73,214.33h-2.88v-7Zm0,0Z" transform="translate(-28.35)"/><path class="cls-5" d="M106.73,214.33h-2.88v-7Zm0,0Z" transform="translate(-28.35)"/><polygon points="75.5 207.37 78.38 207.37 78.38 214.33 75.5 207.37"/><polygon class="cls-5" points="75.5 207.37 78.38 207.37 78.38 214.33 75.5 207.37"/><polyline class="cls-5" points="75.5 265.93 75.5 258.73 78.38 258.73 78.38 265.93"/><polyline class="cls-5" points="78.38 207.37 78.38 214.33 75.5 214.33 75.5 207.37"/><line class="cls-5" x1="75.5" y1="258.73" x2="75.5" y2="214.33"/><line class="cls-5" x1="78.38" y1="214.33" x2="78.38" y2="258.73"/><polyline class="cls-5" points="75.5 263.53 75.5 265.93 76.22 265.93 78.38 265.93"/><polyline class="cls-5" points="75.5 209.77 75.5 207.37 76.22 207.37 78.38 207.37"/><line class="cls-5" x1="68.54" y1="415.45" x2="68.54" y2="316.09"/><line class="cls-5" x1="99.5" y1="417.85" x2="99.5" y2="313.69"/><path d="M103.85,410.89h0Z" transform="translate(-28.35)"/><path class="cls-5" d="M103.85,410.89h0Z" transform="translate(-28.35)"/><path d="M106.73,417.85h-2.88v-7Zm0,0Z" transform="translate(-28.35)"/><path class="cls-5" d="M106.73,417.85h-2.88v-7Zm0,0Z" transform="translate(-28.35)"/><polygon points="75.5 410.89 78.38 410.89 78.38 417.85 75.5 410.89"/><polygon class="cls-5" points="75.5 410.89 78.38 410.89 78.38 417.85 75.5 410.89"/><path d="M103.85,365.77h0Z" transform="translate(-28.35)"/><path class="cls-5" d="M103.85,365.77h0Z" transform="translate(-28.35)"/><path d="M106.73,368.17h-2.88v-2.4Zm0,0Z" transform="translate(-28.35)"/><path class="cls-5" d="M106.73,368.17h-2.88v-2.4Zm0,0Z" transform="translate(-28.35)"/><polygon points="75.5 365.77 78.38 365.77 78.38 368.17 75.5 365.77"/><polygon class="cls-5" points="75.5 365.77 78.38 365.77 78.38 368.17 75.5 365.77"/><path d="M103.85,363.37h0Z" transform="translate(-28.35)"/><path class="cls-5" d="M103.85,363.37h0Z" transform="translate(-28.35)"/><path d="M106.73,365.77h-2.88v-2.4Zm0,0Z" transform="translate(-28.35)"/><path class="cls-5" d="M106.73,365.77h-2.88v-2.4Zm0,0Z" transform="translate(-28.35)"/><polygon points="75.5 363.37 78.38 363.37 78.38 365.77 75.5 363.37"/><polygon class="cls-5" points="75.5 363.37 78.38 363.37 78.38 365.77 75.5 363.37"/><path d="M103.85,313.69h0Z" transform="translate(-28.35)"/><path class="cls-5" d="M103.85,313.69h0Z" transform="translate(-28.35)"/><path d="M106.73,320.89h-2.88v-7.2Zm0,0Z" transform="translate(-28.35)"/><path class="cls-5" d="M106.73,320.89h-2.88v-7.2Zm0,0Z" transform="translate(-28.35)"/><polygon points="75.5 313.69 78.38 313.69 78.38 320.89 75.5 313.69"/><polygon class="cls-5" points="75.5 313.69 78.38 313.69 78.38 320.89 75.5 313.69"/><polyline class="cls-5" points="78.38 417.85 78.38 410.89 75.5 410.89 75.5 417.85"/><polyline class="cls-5" points="75.5 365.77 75.5 368.17 78.38 368.17 78.38 365.77"/><line class="cls-5" x1="78.38" y1="410.89" x2="78.38" y2="368.17"/><line class="cls-5" x1="75.5" y1="368.17" x2="75.5" y2="410.89"/><polyline class="cls-5" points="78.38 365.77 78.38 363.37 75.5 363.37 75.5 365.77"/><polyline class="cls-5" points="75.5 313.69 75.5 320.89 78.38 320.89 78.38 313.69"/><line class="cls-5" x1="78.38" y1="363.37" x2="78.38" y2="320.89"/><line class="cls-5" x1="75.5" y1="320.89" x2="75.5" y2="363.37"/><polyline class="cls-5" points="75.5 415.45 75.5 417.85 76.22 417.85 78.38 417.85"/><polyline class="cls-5" points="75.5 316.09 75.5 313.69 76.22 313.69 78.38 313.69"/><line class="cls-5" x1="442.7" y1="440.89" x2="414.86" y2="440.89"/><line class="cls-5" x1="411.5" y1="437.53" x2="411.5" y2="365.05"/><line class="cls-5" x1="446.06" y1="437.53" x2="446.06" y2="365.05"/><line class="cls-5" x1="408.38" y1="344.65" x2="408.38" y2="444.25"/><polyline class="cls-5" points="408.38 344.65 449.18 344.65 449.18 444.25 408.38 444.25"/><line class="cls-5" x1="440.3" y1="376.81" x2="440.3" y2="433.45"/><line class="cls-5" x1="438.62" y1="435.13" x2="418.94" y2="435.13"/><line class="cls-5" x1="417.26" y1="376.81" x2="417.26" y2="433.45"/><line class="cls-5" x1="429.74" y1="423.37" x2="431.9" y2="423.37"/><line class="cls-5" x1="428.78" y1="424.57" x2="428.78" y2="426.49"/><line class="cls-5" x1="427.82" y1="423.37" x2="425.66" y2="423.37"/><line class="cls-5" x1="428.78" y1="422.41" x2="428.78" y2="420.49"/><polyline class="cls-5" points="446.06 365.05 445.58 361.93 444.86 358.81 443.42 355.93 441.5 353.53 439.1 351.37 436.46 349.69 433.58 348.49 430.46 347.77 427.1 347.77 423.98 348.49 421.1 349.69 418.46 351.37 416.06 353.53 414.14 355.93 412.7 358.81 411.98 361.93 411.5 365.05"/><polyline class="cls-5" points="411.5 437.53 411.74 438.01 411.74 438.73 411.98 439.21 412.46 439.69 412.7 440.17 413.18 440.41 413.66 440.65 414.38 440.89 414.86 440.89"/><polyline class="cls-5" points="442.7 440.89 443.42 440.89 443.9 440.65 444.62 440.41 445.1 439.93 445.34 439.45 445.82 438.73 445.82 438.25 446.06 437.53"/><polyline class="cls-5" points="428.78 421.69 428.54 421.69 428.06 421.93 427.82 421.93 427.58 422.17 427.34 422.41 427.34 422.65 427.1 423.13 427.1 423.37 427.1 423.61 427.1 424.09 427.34 424.33 427.58 424.57 427.82 424.81 428.06 425.05 428.3 425.05 428.54 425.29 429.02 425.29 429.26 425.05 429.5 425.05 429.74 424.81 429.98 424.57 430.22 424.33 430.46 424.09 430.46 423.61 430.46 423.37 430.46 423.13 430.22 422.65 430.22 422.41 429.98 422.17 429.74 421.93 429.5 421.93 429.02 421.69 428.78 421.69"/><polyline class="cls-5" points="440.3 376.81 440.06 374.65 439.58 372.49 438.62 370.57 437.18 368.89 435.74 367.45 433.82 366.49 431.9 365.53 429.74 365.29 427.82 365.29 425.66 365.53 423.74 366.49 421.82 367.45 420.38 368.89 418.94 370.57 417.98 372.49 417.5 374.65 417.26 376.81"/><polyline class="cls-5" points="438.62 435.13 438.86 435.13 439.34 434.89 439.58 434.89 439.82 434.65 440.06 434.41 440.06 434.17 440.3 433.69 440.3 433.45"/><polyline class="cls-5" points="417.26 433.45 417.26 433.69 417.5 433.93 417.5 434.17 417.74 434.41 417.98 434.65 418.22 434.89 418.46 434.89 418.7 435.13 418.94 435.13"/><polyline class="cls-5" points="428.78 421.21 428.3 421.21 427.82 421.21 427.58 421.45 427.1 421.69 426.86 422.17 426.62 422.41 426.62 422.89 426.38 423.37 426.62 423.85 426.62 424.09 426.86 424.57 427.1 425.05 427.34 425.29 427.82 425.53 428.06 425.77 428.54 425.77 429.02 425.77 429.5 425.77 429.74 425.53 430.22 425.29 430.46 425.05 430.7 424.57 430.94 424.09 430.94 423.85 431.18 423.37 430.94 422.89 430.94 422.41 430.7 422.17 430.46 421.69 429.98 421.45 429.74 421.21 429.26 421.21 428.78 421.21"/><line class="cls-5" x1="392.54" y1="408.49" x2="392.54" y2="388.09"/><polyline class="cls-5" points="393.5 409.69 393.5 417.37 371.66 417.37"/><line class="cls-5" x1="382.7" y1="404.89" x2="374.54" y2="404.89"/><polyline class="cls-5" points="392.54 388.09 390.62 404.89 382.7 404.89"/><line class="cls-5" x1="372.62" y1="388.09" x2="374.54" y2="404.89"/><line class="cls-5" x1="392.06" y1="388.09" x2="390.14" y2="404.89"/><line class="cls-5" x1="373.1" y1="388.09" x2="375.02" y2="404.89"/><line class="cls-5" x1="372.62" y1="408.49" x2="372.62" y2="388.09"/><line class="cls-5" x1="371.66" y1="417.37" x2="371.66" y2="409.69"/><polyline class="cls-5" points="392.54 388.09 392.3 385.93 391.34 383.77 390.14 381.85 388.22 380.41 386.06 379.21 383.9 378.73 381.26 378.73 379.1 379.21 376.94 380.41 375.02 381.85 373.82 383.77 372.86 385.93 372.62 388.09"/><polyline class="cls-5" points="392.06 388.09 391.82 385.93 390.86 384.01 389.66 382.09 387.98 380.65 385.82 379.69 383.66 379.21 381.5 379.21 379.34 379.69 377.18 380.65 375.5 382.09 374.3 384.01 373.34 385.93 373.1 388.09"/><polyline class="cls-5" points="393.5 409.69 393.26 409.45 393.26 409.21 393.26 408.97 393.02 408.73 392.78 408.49 392.54 408.49 392.3 408.25 385.82 408.01 379.34 408.01 372.86 408.25 372.62 408.49 372.38 408.49 372.14 408.73 371.9 408.97 371.9 409.21 371.9 409.45 371.66 409.69"/><polyline class="cls-5" points="382.7 411.37 382.46 411.37 382.22 411.37 381.98 411.61 381.74 411.61 381.74 411.85 381.74 412.09 381.5 412.09 381.5 412.33 381.5 412.57 381.5 412.81 381.74 413.05 381.98 413.29 382.22 413.53 382.46 413.53 382.7 413.53 382.94 413.53 383.18 413.29 383.42 413.05 383.66 412.81 383.66 412.57 383.66 412.33 383.66 412.09 383.42 412.09 383.42 411.85 383.42 411.61 383.18 411.61 382.94 411.37 382.7 411.37"/><polyline class="cls-5" points="450.38 295.69 450.38 330.73 415.34 330.73 415.34 295.69 450.38 295.69"/><polyline class="cls-5" points="436.46 314.17 429.5 314.17 434.54 316.81 429.5 319.45 436.46 319.45"/><polyline class="cls-5" points="431.18 306.73 430.46 306.97 430.22 307.45 429.74 307.69 429.5 308.41 429.5 309.61 429.74 310.33 430.22 310.81 430.46 311.05 431.18 311.29 432.14 311.77 433.82 311.77 434.78 311.29 435.5 311.05 436.22 310.33 436.46 309.61 436.46 308.41 436.22 307.69 435.5 306.97 434.78 306.73"/><line class="cls-5" x1="392.78" y1="19.69" x2="392.78" y2="40.09"/><polyline class="cls-5" points="391.82 18.49 391.82 10.81 413.66 10.81"/><line class="cls-5" x1="402.86" y1="23.29" x2="410.78" y2="23.29"/><polyline class="cls-5" points="392.78 40.09 394.7 23.29 402.86 23.29"/><line class="cls-5" x1="412.7" y1="40.09" x2="410.78" y2="23.29"/><line class="cls-5" x1="393.26" y1="40.09" x2="395.18" y2="23.29"/><line class="cls-5" x1="412.22" y1="40.09" x2="410.3" y2="23.29"/><line class="cls-5" x1="412.7" y1="19.69" x2="412.7" y2="40.09"/><line class="cls-5" x1="413.66" y1="10.81" x2="413.66" y2="18.49"/><polyline class="cls-5" points="392.78 40.09 393.02 42.25 393.98 44.41 395.18 46.33 397.1 47.77 399.26 48.73 401.66 49.45 404.06 49.45 406.22 48.73 408.38 47.77 410.3 46.33 411.5 44.41 412.46 42.25 412.7 40.09"/><polyline class="cls-5" points="393.26 40.09 393.5 42.25 394.46 44.17 395.66 45.85 397.34 47.29 399.5 48.25 401.66 48.97 403.82 48.97 406.22 48.25 408.14 47.29 409.82 45.85 411.02 44.17 411.98 42.25 412.22 40.09"/><polyline class="cls-5" points="391.82 18.49 392.06 18.73 392.06 18.97 392.06 19.21 392.3 19.45 392.54 19.45 392.54 19.69 392.78 19.69 393.02 19.69 399.5 20.17 405.98 20.17 412.46 19.69 412.7 19.69 412.94 19.69 413.18 19.45 413.42 19.21 413.42 18.97 413.66 18.73 413.66 18.49"/><polyline class="cls-5" points="402.86 14.65 402.62 14.65 402.38 14.65 402.14 14.89 401.9 15.13 401.66 15.37 401.66 15.61 401.66 15.85 401.66 16.09 401.9 16.33 402.14 16.57 402.38 16.57 402.38 16.81 402.62 16.81 402.86 16.81 403.1 16.81 403.34 16.57 403.58 16.33 403.82 16.09 403.82 15.85 403.82 15.61 403.82 15.37 403.82 15.13 403.58 15.13 403.58 14.89 403.34 14.89 403.1 14.65 402.86 14.65"/><polyline class="cls-5" points="437.18 68.65 450.38 68.65 450.38 100.33 437.18 100.33"/><line class="cls-5" x1="450.38" y1="89.53" x2="450.38" y2="79.45"/><line class="cls-5" x1="439.82" y1="87.13" x2="439.82" y2="85.45"/><line class="cls-5" x1="442.46" y1="84.49" x2="440.78" y2="84.49"/><line class="cls-5" x1="439.82" y1="83.53" x2="439.82" y2="81.85"/><line class="cls-5" x1="438.62" y1="84.49" x2="436.94" y2="84.49"/><path class="cls-5" d="M471.21,76a14.07,14.07,0,0,0-6.64-5.45" transform="translate(-28.35)"/><path class="cls-5" d="M473.16,84.54a14,14,0,0,0-2-8.37" transform="translate(-28.35)"/><path class="cls-5" d="M464.57,98.15a14.07,14.07,0,0,0,6.64-5.45" transform="translate(-28.35)"/><path class="cls-5" d="M471.2,92.81a14,14,0,0,0,2-8.37" transform="translate(-28.35)"/><path class="cls-5" d="M457.18,73.81a26,26,0,0,0-2.62,9.61" transform="translate(-28.35)"/><path class="cls-5" d="M458.66,97.32a8,8,0,0,0,6.61,3" transform="translate(-28.35)"/><path class="cls-5" d="M454.77,83.27a16.15,16.15,0,0,0,0,2.2" transform="translate(-28.35)"/><path class="cls-5" d="M470.61,93.19a57.33,57.33,0,0,0,0-17.64" transform="translate(-28.35)"/><path class="cls-5" d="M463.15,99.37A19.84,19.84,0,0,0,476,94.9" transform="translate(-28.35)"/><path class="cls-5" d="M477,93.34a39.72,39.72,0,0,0,1-9" transform="translate(-28.35)"/><path class="cls-5" d="M476.12,94.72a2.53,2.53,0,0,0,.87-1.39" transform="translate(-28.35)"/><path class="cls-5" d="M476.17,93.43a68.35,68.35,0,0,0,.64-8.92" transform="translate(-28.35)"/><path class="cls-5" d="M463.26,99.37a17.86,17.86,0,0,0,12.05-4.47" transform="translate(-28.35)"/><path class="cls-5" d="M475.24,94.9a2.58,2.58,0,0,0,.83-1.54" transform="translate(-28.35)"/><path class="cls-5" d="M475.33,73.85a17.92,17.92,0,0,0-12.05-4.48" transform="translate(-28.35)"/><path class="cls-5" d="M476,74.1a19.81,19.81,0,0,0-12.86-4.49" transform="translate(-28.35)"/><path class="cls-5" d="M476.81,84.32a66.38,66.38,0,0,0-.63-8.91" transform="translate(-28.35)"/><path class="cls-5" d="M478,84.48a39.82,39.82,0,0,0-1-9" transform="translate(-28.35)"/><path class="cls-5" d="M476.07,75.63a2.58,2.58,0,0,0-.83-1.55" transform="translate(-28.35)"/><path class="cls-5" d="M477,75.42a2.54,2.54,0,0,0-.86-1.4" transform="translate(-28.35)"/><path class="cls-5" d="M465.27,68.66a8,8,0,0,0-6.61,3" transform="translate(-28.35)"/><path class="cls-5" d="M458.64,71.6a12.43,12.43,0,0,0-1.35,2.09" transform="translate(-28.35)"/><path class="cls-5" d="M457.29,95.05a12,12,0,0,0,1.35,2.08" transform="translate(-28.35)"/><path class="cls-5" d="M454.56,85.56a26,26,0,0,0,2.62,9.61" transform="translate(-28.35)"/><path class="cls-5" d="M456.93,80a18.63,18.63,0,0,0,0,8.72" transform="translate(-28.35)"/><path class="cls-5" d="M464.53,70.58a4.69,4.69,0,0,0-3.86,1.61" transform="translate(-28.35)"/><path class="cls-5" d="M460.53,72.3a17.23,17.23,0,0,0-3.62,7.89" transform="translate(-28.35)"/><path class="cls-5" d="M460.67,96.55a4.69,4.69,0,0,0,3.86,1.61" transform="translate(-28.35)"/><path class="cls-5" d="M456.91,88.79a17.23,17.23,0,0,0,3.62,7.89" transform="translate(-28.35)"/><path class="cls-5" d="M470.09,84.37a2,2,0,1,0-2,2,2,2,0,0,0,2-2" transform="translate(-28.35)"/><path class="cls-5" d="M469.61,84.37a1.56,1.56,0,1,0-1.56,1.56,1.56,1.56,0,0,0,1.56-1.56" transform="translate(-28.35)"/><line class="cls-5" x1="748.7" y1="474.49" x2="736.94" y2="474.49"/><path d="M103.85,469.21l67.92,7.2H103.85Zm67.92,0H103.85l67.92,7.2Z" transform="translate(-28.35)"/><path class="cls-5" d="M103.85,469.21l67.92,7.2H103.85Zm67.92,0H103.85l67.92,7.2Z" transform="translate(-28.35)"/><polygon points="75.5 469.21 75.5 476.41 68.54 476.41 75.5 469.21"/><polygon class="cls-5" points="75.5 469.21 75.5 476.41 68.54 476.41 75.5 469.21"/><path d="M106.25,467.05l65.52,1.68h-67.2Zm65.52,0H106.25l65.52,1.68Z" transform="translate(-28.35)"/><path class="cls-5" d="M106.25,467.05l65.52,1.68h-67.2Zm65.52,0H106.25l65.52,1.68Z" transform="translate(-28.35)"/><path d="M104.57,468.73l67.2.48h-67.2Zm67.2,0h-67.2l67.2.48Z" transform="translate(-28.35)"/><path class="cls-5" d="M104.57,468.73l67.2.48h-67.2Zm67.2,0h-67.2l67.2.48Z" transform="translate(-28.35)"/><path d="M104.57,468.73Z" transform="translate(-28.35)"/><path class="cls-5" d="M104.57,468.73Z" transform="translate(-28.35)"/><path d="M104.57,468.73v.48h-.72Zm0,.48v0Z" transform="translate(-28.35)"/><path class="cls-5" d="M104.57,468.73v.48h-.72Zm0,.48v0Z" transform="translate(-28.35)"/><path d="M116.09,457l55.68,2.88H113.21Zm55.68,0H116.09l55.68,2.88Z" transform="translate(-28.35)"/><path class="cls-5" d="M116.09,457l55.68,2.88H113.21Zm55.68,0H116.09l55.68,2.88Z" transform="translate(-28.35)"/><path d="M113.21,459.85l58.56,7.2H113.21Zm58.56,0H113.21l58.56,7.2Z" transform="translate(-28.35)"/><path class="cls-5" d="M113.21,459.85l58.56,7.2H113.21Zm58.56,0H113.21l58.56,7.2Z" transform="translate(-28.35)"/><polygon points="84.86 459.85 84.86 467.05 77.9 467.05 84.86 459.85"/><polygon class="cls-5" points="84.86 459.85 84.86 467.05 77.9 467.05 84.86 459.85"/><path d="M127.85,445.45,171.77,457H116.09Zm43.92,0H127.85L171.77,457Z" transform="translate(-28.35)"/><path class="cls-5" d="M127.85,445.45,171.77,457H116.09Zm43.92,0H127.85L171.77,457Z" transform="translate(-28.35)"/><polyline class="cls-5" points="75.5 469.21 76.22 469.21 143.42 469.21"/><polyline class="cls-5" points="77.9 467.05 84.86 467.05 143.42 467.05"/><line class="cls-5" x1="87.74" y1="456.97" x2="143.42" y2="456.97"/><line class="cls-5" x1="68.54" y1="476.41" x2="143.42" y2="476.41"/><polyline class="cls-5" points="99.5 445.45 143.42 445.45 143.42 456.97 143.42 467.05 143.42 468.73"/><polygon points="743.42 469.21 750.38 476.41 743.42 476.41 743.42 469.21"/><polygon class="cls-5" points="743.42 469.21 750.38 476.41 743.42 476.41 743.42 469.21"/><path d="M703.85,469.21l67.92,7.2H703.85Zm67.92,0H703.85l67.92,7.2Z" transform="translate(-28.35)"/><path class="cls-5" d="M703.85,469.21l67.92,7.2H703.85Zm67.92,0H703.85l67.92,7.2Z" transform="translate(-28.35)"/><polygon points="742.94 468.73 743.42 469.21 742.94 469.21 742.94 468.73"/><polygon class="cls-5" points="742.94 468.73 743.42 469.21 742.94 469.21 742.94 468.73"/><path d="M703.85,467.05l67.44,1.68H703.85Zm65.52,0H703.85l67.44,1.68Z" transform="translate(-28.35)"/><path class="cls-5" d="M703.85,467.05l67.44,1.68H703.85Zm65.52,0H703.85l67.44,1.68Z" transform="translate(-28.35)"/><path d="M703.85,468.73l67.44.48H703.85Zm67.44,0H703.85l67.44.48Z" transform="translate(-28.35)"/><path class="cls-5" d="M703.85,468.73l67.44.48H703.85Zm67.44,0H703.85l67.44.48Z" transform="translate(-28.35)"/><polygon points="734.06 459.85 741.02 467.05 734.06 467.05 734.06 459.85"/><polygon class="cls-5" points="734.06 459.85 741.02 467.05 734.06 467.05 734.06 459.85"/><path d="M703.85,457l58.56,2.88H703.85Zm55.68,0H703.85l58.56,2.88Z" transform="translate(-28.35)"/><path class="cls-5" d="M703.85,457l58.56,2.88H703.85Zm55.68,0H703.85l58.56,2.88Z" transform="translate(-28.35)"/><path d="M703.85,459.85l58.56,7.2H703.85Zm58.56,0H703.85l58.56,7.2Z" transform="translate(-28.35)"/><path class="cls-5" d="M703.85,459.85l58.56,7.2H703.85Zm58.56,0H703.85l58.56,7.2Z" transform="translate(-28.35)"/><path d="M703.85,445.45,759.53,457H703.85Zm43.92,0H703.85L759.53,457Z" transform="translate(-28.35)"/><path class="cls-5" d="M703.85,445.45,759.53,457H703.85Zm43.92,0H703.85L759.53,457Z" transform="translate(-28.35)"/><polyline class="cls-5" points="675.5 469.21 742.94 469.21 743.42 469.21"/><polyline class="cls-5" points="675.5 467.05 734.06 467.05 741.02 467.05"/><line class="cls-5" x1="675.5" y1="456.97" x2="731.18" y2="456.97"/><polyline class="cls-5" points="750.38 476.41 743.42 476.41 675.5 476.41"/><polyline class="cls-5" points="719.42 445.45 675.5 445.45 675.5 456.97 675.5 467.05 675.5 468.73"/><path d="M478.73,469.21l58.56,7.2H478.73Zm58.56,0H478.73l58.56,7.2Z" transform="translate(-28.35)"/><path class="cls-5" d="M478.73,469.21l58.56,7.2H478.73Zm58.56,0H478.73l58.56,7.2Z" transform="translate(-28.35)"/><path d="M478.73,467.05l58.56,2.16H478.73Zm58.56,0H478.73l58.56,2.16Z" transform="translate(-28.35)"/><path class="cls-5" d="M478.73,467.05l58.56,2.16H478.73Zm58.56,0H478.73l58.56,2.16Z" transform="translate(-28.35)"/><path d="M478.73,457l58.56,10.08H478.73Zm58.56,0H478.73l58.56,10.08Z" transform="translate(-28.35)"/><path class="cls-5" d="M478.73,457l58.56,10.08H478.73Zm58.56,0H478.73l58.56,10.08Z" transform="translate(-28.35)"/><path d="M478.73,445.45,537.29,457H478.73Zm58.56,0H478.73L537.29,457Z" transform="translate(-28.35)"/><path class="cls-5" d="M478.73,445.45,537.29,457H478.73Zm58.56,0H478.73L537.29,457Z" transform="translate(-28.35)"/><line class="cls-5" x1="450.38" y1="469.21" x2="508.94" y2="469.21"/><line class="cls-5" x1="450.38" y1="467.05" x2="508.94" y2="467.05"/><line class="cls-5" x1="450.38" y1="456.97" x2="508.94" y2="456.97"/><line class="cls-5" x1="450.38" y1="476.41" x2="508.94" y2="476.41"/><polyline class="cls-5" points="508.94 468.73 508.94 445.45 450.38 445.45 450.38 468.73"/><path d="M291.53,469.21l58.56,7.2H291.53Zm58.56,0H291.53l58.56,7.2Z" transform="translate(-28.35)"/><path class="cls-5" d="M291.53,469.21l58.56,7.2H291.53Zm58.56,0H291.53l58.56,7.2Z" transform="translate(-28.35)"/><path d="M291.53,467.05l58.56,2.16H291.53Zm58.56,0H291.53l58.56,2.16Z" transform="translate(-28.35)"/><path class="cls-5" d="M291.53,467.05l58.56,2.16H291.53Zm58.56,0H291.53l58.56,2.16Z" transform="translate(-28.35)"/><path d="M291.53,457l58.56,10.08H291.53Zm58.56,0H291.53l58.56,10.08Z" transform="translate(-28.35)"/><path class="cls-5" d="M291.53,457l58.56,10.08H291.53Zm58.56,0H291.53l58.56,10.08Z" transform="translate(-28.35)"/><path d="M291.53,445.45,350.09,457H291.53Zm58.56,0H291.53L350.09,457Z" transform="translate(-28.35)"/><path class="cls-5" d="M291.53,445.45,350.09,457H291.53Zm58.56,0H291.53L350.09,457Z" transform="translate(-28.35)"/><line class="cls-5" x1="263.18" y1="469.21" x2="321.74" y2="469.21"/><line class="cls-5" x1="263.18" y1="467.05" x2="321.74" y2="467.05"/><line class="cls-5" x1="263.18" y1="456.97" x2="321.74" y2="456.97"/><line class="cls-5" x1="263.18" y1="476.41" x2="321.74" y2="476.41"/><polyline class="cls-5" points="321.74 468.73 321.74 445.45 263.18 445.45 263.18 468.73"/><path d="M303.29,135.37h0Z" transform="translate(-28.35)"/><path class="cls-5" d="M303.29,135.37h0Z" transform="translate(-28.35)"/><path d="M291.53,135.37l11.76,58.56H291.53Zm11.76,0H291.53l11.76,58.56Z" transform="translate(-28.35)"/><path class="cls-5" d="M291.53,135.37l11.76,58.56H291.53Zm11.76,0H291.53l11.76,58.56Z" transform="translate(-28.35)"/><polyline class="cls-5" points="274.94 193.93 274.94 135.37 263.18 135.37 263.18 193.93 274.94 193.93"/><path d="M405.77,9.61h0Z" transform="translate(-28.35)"/><path class="cls-5" d="M405.77,9.61h0Z" transform="translate(-28.35)"/><path d="M394,63.61h11.76V75.13Zm0-54v54h11.76Z" transform="translate(-28.35)"/><path class="cls-5" d="M394,63.61h11.76V75.13Zm0-54v54h11.76Z" transform="translate(-28.35)"/><polygon points="365.66 9.61 377.42 9.61 377.42 63.61 365.66 9.61"/><polygon class="cls-5" points="365.66 9.61 377.42 9.61 377.42 63.61 365.66 9.61"/><path d="M405.77,9.61h0ZM394,.25l11.76,9.36H394Z" transform="translate(-28.35)"/><path class="cls-5" d="M405.77,9.61h0ZM394,.25l11.76,9.36H394Z" transform="translate(-28.35)"/><polyline class="cls-5" points="365.66 0.25 365.66 9.61 377.42 9.61"/><line class="cls-5" x1="365.66" y1="9.61" x2="365.66" y2="63.61"/><line class="cls-5" x1="377.42" y1="75.13" x2="377.42" y2="9.61"/><path d="M747.77.25h0Z" transform="translate(-28.35)"/><path class="cls-5" d="M747.77.25h0Z" transform="translate(-28.35)"/><path d="M747.77,9.61h-342L394,.25Zm0,0Z" transform="translate(-28.35)"/><path class="cls-5" d="M747.77,9.61h-342L394,.25Zm0,0Z" transform="translate(-28.35)"/><polygon points="365.66 0.25 719.42 0.25 719.42 9.61 365.66 0.25"/><polygon class="cls-5" points="365.66 0.25 719.42 0.25 719.42 9.61 365.66 0.25"/><line class="cls-5" x1="719.42" y1="0.25" x2="365.66" y2="0.25"/><line class="cls-5" x1="377.42" y1="9.61" x2="719.42" y2="9.61"/><polygon points="393.02 0.25 393.02 0.25 386.06 0.25 393.02 0.25"/><polygon class="cls-5" points="393.02 0.25 393.02 0.25 386.06 0.25 393.02 0.25"/><polygon points="429.26 0.25 429.26 0.25 422.3 0.25 429.26 0.25"/><polygon class="cls-5" points="429.26 0.25 429.26 0.25 422.3 0.25 429.26 0.25"/><line class="cls-5" x1="365.66" y1="0.25" x2="368.54" y2="0.25"/><line class="cls-5" x1="365.66" y1="0.25" x2="368.54" y2="0.25"/><line class="cls-5" x1="365.66" y1="0.25" x2="368.54" y2="0.25"/><path d="M481.61,291.13h0Z" transform="translate(-28.35)"/><path class="cls-5" d="M481.61,291.13h0Z" transform="translate(-28.35)"/><path d="M481.61,295.69H434.33v-4.56Zm0,0Z" transform="translate(-28.35)"/><path class="cls-5" d="M481.61,295.69H434.33v-4.56Zm0,0Z" transform="translate(-28.35)"/><polygon points="405.98 291.13 453.26 291.13 453.26 295.69 405.98 291.13"/><polygon class="cls-5" points="405.98 291.13 453.26 291.13 453.26 295.69 405.98 291.13"/><path d="M387.53,291.13h0Z" transform="translate(-28.35)"/><path class="cls-5" d="M387.53,291.13h0Z" transform="translate(-28.35)"/><path d="M387.53,295.69H368.81v-4.56Zm0,0Z" transform="translate(-28.35)"/><path class="cls-5" d="M387.53,295.69H368.81v-4.56Zm0,0Z" transform="translate(-28.35)"/><polygon points="340.46 291.13 359.18 291.13 359.18 295.69 340.46 291.13"/><polygon class="cls-5" points="340.46 291.13 359.18 291.13 359.18 295.69 340.46 291.13"/><path d="M364.25,291.13h0Z" transform="translate(-28.35)"/><path class="cls-5" d="M364.25,291.13h0Z" transform="translate(-28.35)"/><path d="M364.25,295.69H326.81l-4.8-4.56Zm0,0Z" transform="translate(-28.35)"/><path class="cls-5" d="M364.25,295.69H326.81l-4.8-4.56Zm0,0Z" transform="translate(-28.35)"/><polygon points="293.66 291.13 335.9 291.13 335.9 295.69 293.66 291.13"/><polygon class="cls-5" points="293.66 291.13 335.9 291.13 335.9 295.69 293.66 291.13"/><line class="cls-5" x1="405.98" y1="291.13" x2="405.98" y2="295.69"/><line class="cls-5" x1="359.18" y1="291.13" x2="359.18" y2="295.69"/><line class="cls-5" x1="298.46" y1="295.69" x2="335.9" y2="295.69"/><line class="cls-5" x1="340.46" y1="295.69" x2="359.18" y2="295.69"/><polyline class="cls-5" points="405.98 295.69 453.26 295.69 453.26 291.13 405.98 291.13"/><line class="cls-5" x1="359.18" y1="291.13" x2="340.46" y2="291.13"/><line class="cls-5" x1="335.9" y1="291.13" x2="293.66" y2="291.13"/><line class="cls-5" x1="359.18" y1="291.13" x2="362.06" y2="291.13"/><line class="cls-5" x1="359.18" y1="295.69" x2="362.06" y2="295.69"/><line class="cls-5" x1="405.98" y1="291.13" x2="403.1" y2="291.13"/><line class="cls-5" x1="405.98" y1="295.69" x2="403.1" y2="295.69"/><line class="cls-5" x1="362.06" y1="295.69" x2="362.06" y2="291.13"/><polyline class="cls-5" points="403.1 295.69 403.1 291.13 367.58 270.73"/><path class="cls-5" d="M395.89,270.55A40.94,40.94,0,0,0,390.41,291" transform="translate(-28.35)"/><path d="M364.25,288.25l4.56,157.2h-4.56Zm4.56,0h-4.56l4.56,157.2Z" transform="translate(-28.35)"/><path class="cls-5" d="M364.25,288.25l4.56,157.2h-4.56Zm4.56,0h-4.56l4.56,157.2Z" transform="translate(-28.35)"/><polygon points="340.46 189.13 340.46 193.93 335.9 193.93 340.46 189.13"/><polygon class="cls-5" points="340.46 189.13 340.46 193.93 335.9 193.93 340.46 189.13"/><path d="M364.25,193.93l4.56,41.52h-4.56Zm4.56,0h-4.56l4.56,41.52Z" transform="translate(-28.35)"/><path class="cls-5" d="M364.25,193.93l4.56,41.52h-4.56Zm4.56,0h-4.56l4.56,41.52Z" transform="translate(-28.35)"/><line class="cls-5" x1="340.46" y1="288.25" x2="335.9" y2="288.25"/><line class="cls-5" x1="340.46" y1="235.45" x2="335.9" y2="235.45"/><line class="cls-5" x1="340.46" y1="445.45" x2="340.46" y2="295.69"/><line class="cls-5" x1="340.46" y1="291.13" x2="340.46" y2="288.25"/><line class="cls-5" x1="340.46" y1="235.45" x2="340.46" y2="189.13"/><line class="cls-5" x1="335.9" y1="193.93" x2="335.9" y2="235.45"/><line class="cls-5" x1="335.9" y1="288.25" x2="335.9" y2="291.13"/><polyline class="cls-5" points="335.9 295.69 335.9 445.45 340.46 445.45"/><line class="cls-5" x1="335.9" y1="235.45" x2="335.9" y2="238.57"/><line class="cls-5" x1="340.46" y1="235.45" x2="340.46" y2="238.57"/><line class="cls-5" x1="335.9" y1="288.25" x2="335.9" y2="285.13"/><line class="cls-5" x1="340.46" y1="288.25" x2="340.46" y2="285.13"/><line class="cls-5" x1="340.46" y1="238.57" x2="335.9" y2="238.57"/><polyline class="cls-5" points="340.46 285.13 335.9 285.13 289.1 285.13"/><path class="cls-5" d="M364.13,238.33A46.68,46.68,0,0,0,317.45,285" transform="translate(-28.35)"/><polygon points="373.34 417.37 377.9 421.93 373.34 421.93 373.34 417.37"/><polygon class="cls-5" points="373.34 417.37 377.9 421.93 373.34 421.93 373.34 417.37"/><path d="M406.25,445.45h-4.56V421.93Zm0,0Z" transform="translate(-28.35)"/><path class="cls-5" d="M406.25,445.45h-4.56V421.93Zm0,0Z" transform="translate(-28.35)"/><polygon points="373.34 421.93 377.9 421.93 377.9 445.45 373.34 421.93"/><polygon class="cls-5" points="373.34 421.93 377.9 421.93 377.9 445.45 373.34 421.93"/><polyline class="cls-5" points="373.34 417.37 373.34 445.45 377.9 445.45 377.9 421.93"/><polygon points="405.98 417.37 405.98 421.93 401.18 421.93 405.98 417.37"/><polygon class="cls-5" points="405.98 417.37 405.98 421.93 401.18 421.93 405.98 417.37"/><path d="M429.53,421.93l4.8,23.52h-4.8Zm4.8,0h-4.8l4.8,23.52Z" transform="translate(-28.35)"/><path class="cls-5" d="M429.53,421.93l4.8,23.52h-4.8Zm4.8,0h-4.8l4.8,23.52Z" transform="translate(-28.35)"/><polyline class="cls-5" points="401.18 421.93 401.18 445.45 405.98 445.45 405.98 417.37"/><path d="M303.29,189.13l61,4.8h-61Zm65.52,0H303.29l61,4.8Z" transform="translate(-28.35)"/><path class="cls-5" d="M303.29,189.13l61,4.8h-61Zm65.52,0H303.29l61,4.8Z" transform="translate(-28.35)"/><line class="cls-5" x1="274.94" y1="193.93" x2="335.9" y2="193.93"/><polyline class="cls-5" points="340.46 189.13 274.94 189.13 274.94 193.93"/><path d="M401,126h4.8l-4.8,4.8Zm0-50.88V126h4.8Z" transform="translate(-28.35)"/><path class="cls-5" d="M401,126h4.8l-4.8,4.8Zm0-50.88V126h4.8Z" transform="translate(-28.35)"/><polygon points="372.62 75.13 377.42 75.13 377.42 126.01 372.62 75.13"/><polygon class="cls-5" points="372.62 75.13 377.42 75.13 377.42 126.01 372.62 75.13"/><line class="cls-5" x1="372.62" y1="75.13" x2="372.62" y2="130.81"/><polyline class="cls-5" points="377.42 126.01 377.42 75.13 372.62 75.13"/><path d="M455.45,126l23.28,4.8H455.45Zm23.28,0H455.45l23.28,4.8Z" transform="translate(-28.35)"/><path class="cls-5" d="M455.45,126l23.28,4.8H455.45Zm23.28,0H455.45l23.28,4.8Z" transform="translate(-28.35)"/><path d="M405.77,126l2.88,4.8H401Zm2.88,0h-2.88l2.88,4.8Z" transform="translate(-28.35)"/><path class="cls-5" d="M405.77,126l2.88,4.8H401Zm2.88,0h-2.88l2.88,4.8Z" transform="translate(-28.35)"/><line class="cls-5" x1="427.1" y1="126.01" x2="427.1" y2="130.81"/><polyline class="cls-5" points="380.3 126.01 380.3 130.81 372.62 130.81"/><line class="cls-5" x1="427.1" y1="130.81" x2="450.38" y2="130.81"/><line class="cls-5" x1="450.38" y1="126.01" x2="427.1" y2="126.01"/><line class="cls-5" x1="380.3" y1="126.01" x2="377.42" y2="126.01"/><line class="cls-5" x1="427.1" y1="130.81" x2="424.22" y2="130.81"/><line class="cls-5" x1="427.1" y1="126.01" x2="424.22" y2="126.01"/><line class="cls-5" x1="380.3" y1="130.81" x2="383.18" y2="130.81"/><line class="cls-5" x1="380.3" y1="126.01" x2="383.18" y2="126.01"/><line class="cls-5" x1="424.22" y1="126.01" x2="424.22" y2="130.81"/><polyline class="cls-5" points="383.18 126.01 383.18 130.81 418.7 151.21"/><path class="cls-5" d="M446.85,151.15a40.94,40.94,0,0,0,5.48-20.46" transform="translate(-28.35)"/><path d="M478.73,7.45l4.8,127.92h-4.8Zm4.8,0h-4.8l4.8,127.92Z" transform="translate(-28.35)"/><path class="cls-5" d="M478.73,7.45l4.8,127.92h-4.8Zm4.8,0h-4.8l4.8,127.92Z" transform="translate(-28.35)"/><path d="M478.73,182.17l4.8,11.76h-4.8Zm4.8,0h-4.8l4.8,11.76Z" transform="translate(-28.35)"/><path class="cls-5" d="M478.73,182.17l4.8,11.76h-4.8Zm4.8,0h-4.8l4.8,11.76Z" transform="translate(-28.35)"/><path d="M478.73,193.93l4.8,7h-4.8Zm4.8,0h-4.8l4.8,7Z" transform="translate(-28.35)"/><path class="cls-5" d="M478.73,193.93l4.8,7h-4.8Zm4.8,0h-4.8l4.8,7Z" transform="translate(-28.35)"/><path d="M478.73,253.69l4.8,191.76h-4.8Zm4.8,0h-4.8l4.8,191.76Z" transform="translate(-28.35)"/><path class="cls-5" d="M478.73,253.69l4.8,191.76h-4.8Zm4.8,0h-4.8l4.8,191.76Z" transform="translate(-28.35)"/><line class="cls-5" x1="450.38" y1="135.37" x2="455.18" y2="135.37"/><line class="cls-5" x1="455.18" y1="182.17" x2="450.38" y2="182.17"/><line class="cls-5" x1="450.38" y1="193.93" x2="455.18" y2="193.93"/><line class="cls-5" x1="450.38" y1="182.17" x2="455.18" y2="182.17"/><line class="cls-5" x1="450.38" y1="200.89" x2="455.18" y2="200.89"/><polyline class="cls-5" points="450.38 253.69 455.18 253.69 455.18 445.45"/><line class="cls-5" x1="455.18" y1="200.89" x2="455.18" y2="193.93"/><polyline class="cls-5" points="455.18 135.37 455.18 7.45 450.38 7.45 450.38 36.49"/><line class="cls-5" x1="450.38" y1="41.29" x2="450.38" y2="126.01"/><line class="cls-5" x1="450.38" y1="130.81" x2="450.38" y2="135.37"/><line class="cls-5" x1="450.38" y1="182.17" x2="450.38" y2="200.89"/><line class="cls-5" x1="450.38" y1="253.69" x2="450.38" y2="291.13"/><polyline class="cls-5" points="450.38 295.69 450.38 445.45 455.18 445.45"/><line class="cls-5" x1="455.18" y1="253.69" x2="455.18" y2="250.57"/><line class="cls-5" x1="450.38" y1="253.69" x2="450.38" y2="250.57"/><line class="cls-5" x1="455.18" y1="200.89" x2="455.18" y2="203.77"/><line class="cls-5" x1="450.38" y1="200.89" x2="450.38" y2="203.77"/><line class="cls-5" x1="450.38" y1="250.57" x2="455.18" y2="250.57"/><polyline class="cls-5" points="450.38 203.77 455.18 203.77 501.98 203.77"/><path class="cls-5" d="M483.41,250.33a46.68,46.68,0,0,0,46.68-46.68" transform="translate(-28.35)"/><line class="cls-5" x1="455.18" y1="135.37" x2="455.18" y2="138.25"/><line class="cls-5" x1="450.38" y1="135.37" x2="450.38" y2="138.25"/><line class="cls-5" x1="455.18" y1="182.17" x2="455.18" y2="179.29"/><line class="cls-5" x1="450.38" y1="182.17" x2="450.38" y2="179.29"/><line class="cls-5" x1="450.38" y1="138.25" x2="455.18" y2="138.25"/><polyline class="cls-5" points="450.38 179.29 455.18 179.29 495.98 179.29"/><path class="cls-5" d="M524.33,179.17a40.92,40.92,0,0,0-40.92-40.92" transform="translate(-28.35)"/><path d="M483.53,189.13l60.24,4.8H483.53Zm60.24,0H483.53l60.24,4.8Z" transform="translate(-28.35)"/><path class="cls-5" d="M483.53,189.13l60.24,4.8H483.53Zm60.24,0H483.53l60.24,4.8Z" transform="translate(-28.35)"/><path d="M684.17,189.13l19.68,4.8H684.17Zm19.68,0H684.17l19.68,4.8Z" transform="translate(-28.35)"/><path class="cls-5" d="M684.17,189.13l19.68,4.8H684.17Zm19.68,0H684.17l19.68,4.8Z" transform="translate(-28.35)"/><line class="cls-5" x1="655.82" y1="193.93" x2="655.82" y2="189.13"/><polyline class="cls-5" points="455.18 193.93 515.42 193.93 515.42 189.13"/><polyline class="cls-5" points="655.82 193.93 675.5 193.93 675.5 189.13 655.82 189.13"/><line class="cls-5" x1="515.42" y1="189.13" x2="455.18" y2="189.13"/><polyline class="cls-5" points="515.42 193.93 544.7 213.37 573.74 193.93"/><polyline class="cls-5" points="655.82 193.93 626.54 213.37 597.26 193.93"/><line class="cls-5" x1="515.42" y1="193.93" x2="515.42" y2="189.13"/><line class="cls-5" x1="655.82" y1="193.93" x2="655.82" y2="189.13"/><polygon points="293.66 291.13 298.46 295.69 293.66 295.69 293.66 291.13"/><polygon class="cls-5" points="293.66 291.13 298.46 295.69 293.66 295.69 293.66 291.13"/><path d="M322,295.69l4.8,41.28H322Zm4.8,0H322l4.8,41.28Z" transform="translate(-28.35)"/><path class="cls-5" d="M322,295.69l4.8,41.28H322Zm4.8,0H322l4.8,41.28Z" transform="translate(-28.35)"/><path d="M322,406.09l4.8,39.36H322Zm4.8,0H322l4.8,39.36Z" transform="translate(-28.35)"/><path class="cls-5" d="M322,406.09l4.8,39.36H322Zm4.8,0H322l4.8,39.36Z" transform="translate(-28.35)"/><line class="cls-5" x1="298.46" y1="336.97" x2="293.66" y2="336.97"/><line class="cls-5" x1="298.46" y1="406.09" x2="293.66" y2="406.09"/><line class="cls-5" x1="293.66" y1="291.13" x2="293.66" y2="336.97"/><polyline class="cls-5" points="293.66 406.09 293.66 445.45 298.46 445.45 298.46 406.09"/><line class="cls-5" x1="298.46" y1="336.97" x2="298.46" y2="295.69"/><line class="cls-5" x1="291.02" y1="325.21" x2="291.02" y2="359.77"/><line class="cls-5" x1="291.02" y1="417.61" x2="291.02" y2="383.29"/><path d="M461.21,36.49l17.52,4.8H456.65Zm17.52,0H461.21l17.52,4.8Z" transform="translate(-28.35)"/><path class="cls-5" d="M461.21,36.49l17.52,4.8H456.65Zm17.52,0H461.21l17.52,4.8Z" transform="translate(-28.35)"/><line class="cls-5" x1="428.3" y1="41.29" x2="450.38" y2="41.29"/><line class="cls-5" x1="450.38" y1="36.49" x2="432.86" y2="36.49"/><path d="M456.65,36.49h4.56l-4.56,4.8Zm0-29v29h4.56Z" transform="translate(-28.35)"/><path class="cls-5" d="M456.65,36.49h4.56l-4.56,4.8Zm0-29v29h4.56Z" transform="translate(-28.35)"/><polygon points="428.3 7.45 432.86 7.45 432.86 36.49 428.3 7.45"/><polygon class="cls-5" points="428.3 7.45 432.86 7.45 432.86 36.49 428.3 7.45"/><line class="cls-5" x1="428.3" y1="7.45" x2="428.3" y2="41.29"/><polyline class="cls-5" points="432.86 36.49 432.86 7.45 428.3 7.45"/><path d="M401.69,417.37h0Z" transform="translate(-28.35)"/><path class="cls-5" d="M401.69,417.37h0Z" transform="translate(-28.35)"/><path d="M429.53,421.93H406.25l-4.56-4.56Zm0,0Z" transform="translate(-28.35)"/><path class="cls-5" d="M429.53,421.93H406.25l-4.56-4.56Zm0,0Z" transform="translate(-28.35)"/><polygon points="373.34 417.37 405.98 417.37 401.18 421.93 373.34 417.37"/><polygon class="cls-5" points="373.34 417.37 405.98 417.37 401.18 421.93 373.34 417.37"/><line class="cls-5" x1="377.9" y1="421.93" x2="401.18" y2="421.93"/><line class="cls-5" x1="405.98" y1="417.37" x2="373.34" y2="417.37"/><path d="M303.29,63.61l29.28,11.52H303.29Zm29.28,0H303.29l29.28,11.52Z" transform="translate(-28.35)"/><path class="cls-5" d="M303.29,63.61l29.28,11.52H303.29Zm29.28,0H303.29l29.28,11.52Z" transform="translate(-28.35)"/><path d="M394,63.61h0Z" transform="translate(-28.35)"/><path class="cls-5" d="M394,63.61h0Z" transform="translate(-28.35)"/><path d="M405.77,75.13H391.13V63.61Zm0,0Z" transform="translate(-28.35)"/><path class="cls-5" d="M405.77,75.13H391.13V63.61Zm0,0Z" transform="translate(-28.35)"/><polygon points="362.78 63.61 365.66 63.61 377.42 75.13 362.78 63.61"/><polygon class="cls-5" points="362.78 63.61 365.66 63.61 377.42 75.13 362.78 63.61"/><line class="cls-5" x1="304.22" y1="63.61" x2="304.22" y2="75.13"/><line class="cls-5" x1="362.78" y1="63.61" x2="362.78" y2="75.13"/><line class="cls-5" x1="274.94" y1="75.13" x2="304.22" y2="75.13"/><line class="cls-5" x1="362.78" y1="75.13" x2="377.42" y2="75.13"/><line class="cls-5" x1="365.66" y1="63.61" x2="362.78" y2="63.61"/><line class="cls-5" x1="304.22" y1="63.61" x2="274.94" y2="63.61"/><path class="cls-5" d="M334.85,128.89A53.88,53.88,0,0,0,388.73,75" transform="translate(-28.35)"/><path d="M391.13,63.61h0Z" transform="translate(-28.35)"/><path class="cls-5" d="M391.13,63.61h0Z" transform="translate(-28.35)"/><path d="M391.13,75.13h-2.4V63.61Zm0,0Z" transform="translate(-28.35)"/><path class="cls-5" d="M391.13,75.13h-2.4V63.61Zm0,0Z" transform="translate(-28.35)"/><polygon points="360.38 63.61 362.78 63.61 362.78 75.13 360.38 63.61"/><polygon class="cls-5" points="360.38 63.61 362.78 63.61 362.78 75.13 360.38 63.61"/><path d="M335,63.61h0Z" transform="translate(-28.35)"/><path class="cls-5" d="M335,63.61h0Z" transform="translate(-28.35)"/><path d="M335,75.13h-2.4V63.61Zm0,0Z" transform="translate(-28.35)"/><path class="cls-5" d="M335,75.13h-2.4V63.61Zm0,0Z" transform="translate(-28.35)"/><polygon points="304.22 63.61 306.62 63.61 306.62 75.13 304.22 63.61"/><polygon class="cls-5" points="304.22 63.61 306.62 63.61 306.62 75.13 304.22 63.61"/><polyline class="cls-5" points="362.78 63.61 360.38 63.61 360.38 75.13 362.78 75.13 362.78 63.61"/><polyline class="cls-5" points="304.22 75.13 306.62 75.13 306.62 63.61 304.22 63.61 304.22 75.13"/><line class="cls-5" x1="306.62" y1="75.13" x2="306.62" y2="128.89"/><line class="cls-5" x1="362.78" y1="63.61" x2="362.78" y2="75.13"/><line class="cls-5" x1="304.22" y1="63.61" x2="304.22" y2="75.13"/><polyline class="cls-5" points="33.5 263.53 34.94 262.09 34.94 211.21 33.5 209.77 33.5 263.53"/><line class="cls-5" x1="34.22" y1="262.81" x2="34.22" y2="210.49"/><polyline class="cls-5" points="33.5 209.77 34.94 211.21 68.54 211.21 68.54 209.77 33.5 209.77"/><line class="cls-5" x1="34.22" y1="210.49" x2="68.54" y2="210.49"/><polyline class="cls-5" points="34.94 262.09 68.54 262.09 68.54 263.53 33.5 263.53 34.94 262.09"/><line class="cls-5" x1="34.22" y1="262.81" x2="68.54" y2="262.81"/><polyline class="cls-5" points="490.22 89.29 458.06 89.29 458.06 42.49 490.22 42.49 490.22 89.29"/><polyline class="cls-5" points="487.34 45.37 487.34 70.57 463.82 70.57 463.82 45.37 487.34 45.37"/><line class="cls-5" x1="486.86" y1="74.65" x2="486.86" y2="84.01"/><line class="cls-5" x1="483.02" y1="74.65" x2="483.02" y2="84.01"/><line class="cls-5" x1="479.18" y1="74.65" x2="479.18" y2="84.01"/><line class="cls-5" x1="475.34" y1="74.65" x2="475.34" y2="84.01"/><line class="cls-5" x1="471.5" y1="74.65" x2="471.5" y2="84.01"/><line class="cls-5" x1="467.66" y1="74.65" x2="467.66" y2="84.01"/><line class="cls-5" x1="445.82" y1="0.25" x2="457.34" y2="0.25"/><line class="cls-5" x1="462.14" y1="0.25" x2="473.9" y2="0.25"/><line class="cls-5" x1="478.46" y1="0.25" x2="490.22" y2="0.25"/><line class="cls-5" x1="494.78" y1="0.25" x2="506.54" y2="0.25"/><line class="cls-5" x1="511.34" y1="0.25" x2="522.86" y2="0.25"/><line class="cls-5" x1="527.66" y1="0.25" x2="539.42" y2="0.25"/><line class="cls-5" x1="543.98" y1="0.25" x2="555.74" y2="0.25"/><line class="cls-5" x1="560.3" y1="0.25" x2="572.06" y2="0.25"/><line class="cls-5" x1="576.86" y1="0.25" x2="588.38" y2="0.25"/><line class="cls-5" x1="593.18" y1="0.25" x2="604.7" y2="0.25"/><line class="cls-5" x1="609.5" y1="0.25" x2="621.26" y2="0.25"/><line class="cls-5" x1="586.7" y1="42.49" x2="475.58" y2="42.49"/><polyline class="cls-5" points="455.18 130.81 490.22 130.81 490.22 42.49"/><line class="cls-5" x1="586.7" y1="42.49" x2="586.7" y2="7.45"/><path d="M105.77,196.81h0Z" transform="translate(-28.35)"/><path class="cls-5" d="M105.77,196.81h0Z" transform="translate(-28.35)"/><path d="M104.57,197.53Zm0-.72v0Zm1.2,0h-1.2v.72Z" transform="translate(-28.35)"/><path class="cls-5" d="M104.57,197.53Zm0-.72v0Zm1.2,0h-1.2v.72Z" transform="translate(-28.35)"/><path d="M104.57,196.81h0Z" transform="translate(-28.35)"/><path class="cls-5" d="M104.57,196.81h0Z" transform="translate(-28.35)"/><path d="M103.85,196.81l.72.72h-.72Zm.72,0h-.72l.72.72Z" transform="translate(-28.35)"/><path class="cls-5" d="M103.85,196.81l.72.72h-.72Zm.72,0h-.72l.72.72Z" transform="translate(-28.35)"/><path d="M103.85,198Zm0-.48v0Zm.72,0h-.72V198Z" transform="translate(-28.35)"/><path class="cls-5" d="M103.85,198Zm0-.48v0Zm.72,0h-.72V198Z" transform="translate(-28.35)"/><polyline points="68.54 196.81 75.5 196.81 68.54 196.81"/><polyline class="cls-5" points="68.54 196.81 75.5 196.81 68.54 196.81"/><polyline points="68.54 196.81 75.5 198.01 68.54 198.01"/><polyline points="68.54 196.81 75.5 198.01 75.5 196.81 68.54 196.81"/><polyline class="cls-5" points="68.54 196.81 75.5 198.01 68.54 198.01"/><polyline class="cls-5" points="68.54 196.81 75.5 198.01 75.5 196.81 68.54 196.81"/><polyline points="68.54 198.01 68.54 202.57 68.54 202.57"/><polyline points="68.54 202.57 68.54 202.57 68.54 202.57 68.54 202.57"/><polyline class="cls-5" points="68.54 198.01 68.54 202.57 68.54 202.57"/><polyline class="cls-5" points="68.54 202.57 68.54 202.57 68.54 202.57 68.54 202.57"/><polyline points="68.54 198.01 75.5 198.01 68.54 202.57 68.54 198.01"/><polyline class="cls-5" points="68.54 198.01 75.5 198.01 68.54 202.57 68.54 198.01"/><path d="M127.85,182.17h0Z" transform="translate(-28.35)"/><path class="cls-5" d="M127.85,182.17h0Z" transform="translate(-28.35)"/><path d="M113.21,191.77Zm0-9.6v0Zm14.64,0H113.21v9.6Z" transform="translate(-28.35)"/><path class="cls-5" d="M113.21,191.77Zm0-9.6v0Zm14.64,0H113.21v9.6Z" transform="translate(-28.35)"/><path d="M113.21,182.17h0Z" transform="translate(-28.35)"/><path class="cls-5" d="M113.21,182.17h0Z" transform="translate(-28.35)"/><path d="M104.57,182.17l8.64,9.6h-8.64Zm8.64,0h-8.64l8.64,9.6Z" transform="translate(-28.35)"/><path class="cls-5" d="M104.57,182.17l8.64,9.6h-8.64Zm8.64,0h-8.64l8.64,9.6Z" transform="translate(-28.35)"/><path d="M105.77,196.81h-1.2v-5Zm0,0Z" transform="translate(-28.35)"/><path class="cls-5" d="M105.77,196.81h-1.2v-5Zm0,0Z" transform="translate(-28.35)"/><polygon points="76.22 191.77 84.86 191.77 77.42 196.81 76.22 191.77"/><polygon class="cls-5" points="76.22 191.77 84.86 191.77 77.42 196.81 76.22 191.77"/><path d="M104.57,182.17h0Z" transform="translate(-28.35)"/><path class="cls-5" d="M104.57,182.17h0Z" transform="translate(-28.35)"/><path d="M104.57,196.81h-.72V182.17Zm0,0Z" transform="translate(-28.35)"/><path class="cls-5" d="M104.57,196.81h-.72V182.17Zm0,0Z" transform="translate(-28.35)"/><polygon points="75.5 182.17 76.22 182.17 76.22 196.81 75.5 182.17"/><polygon class="cls-5" points="75.5 182.17 76.22 182.17 76.22 196.81 75.5 182.17"/><polyline points="68.54 182.17 75.5 182.17 68.54 182.17"/><polyline class="cls-5" points="68.54 182.17 75.5 182.17 68.54 182.17"/><polyline points="68.54 182.17 75.5 196.81 68.54 196.81"/><polyline points="68.54 196.81 75.5 196.81 75.5 196.81 68.54 196.81"/><polyline class="cls-5" points="68.54 182.17 75.5 196.81 68.54 196.81"/><polyline class="cls-5" points="68.54 196.81 75.5 196.81 75.5 196.81 68.54 196.81"/><polyline points="68.54 182.17 75.5 182.17 75.5 196.81 68.54 182.17"/><polyline class="cls-5" points="68.54 182.17 75.5 182.17 75.5 196.81 68.54 182.17"/><line class="cls-5" x1="76.22" y1="196.81" x2="76.22" y2="197.53"/><line class="cls-5" x1="75.5" y1="196.81" x2="75.5" y2="198.01"/><line class="cls-5" x1="76.22" y1="182.17" x2="76.22" y2="196.81"/><polyline class="cls-5" points="75.5 182.17 75.5 196.81 68.54 196.81"/><line class="cls-5" x1="68.54" y1="202.57" x2="68.54" y2="202.57"/><polyline class="cls-5" points="99.5 182.17 84.86 182.17 76.22 182.17 75.5 182.17 68.54 182.17"/><path d="M771.77,3.85l7,53.28h-7Zm7,0h-7l7,53.28Z" transform="translate(-28.35)"/><path class="cls-5" d="M771.77,3.85l7,53.28h-7Zm7,0h-7l7,53.28Z" transform="translate(-28.35)"/><path d="M771.77,57.13l7,2.16h-7Zm7,0h-7l7,2.16Z" transform="translate(-28.35)"/><path class="cls-5" d="M771.77,57.13l7,2.16h-7Zm7,0h-7l7,2.16Z" transform="translate(-28.35)"/><path d="M771.77,417.37l7,2.16h-7Zm7,0h-7l7,2.16Z" transform="translate(-28.35)"/><path class="cls-5" d="M771.77,417.37l7,2.16h-7Zm7,0h-7l7,2.16Z" transform="translate(-28.35)"/><path d="M771.77,419.53l7,49.68h-7Zm7,0h-7l7,49.68Z" transform="translate(-28.35)"/><path class="cls-5" d="M771.77,419.53l7,49.68h-7Zm7,0h-7l7,49.68Z" transform="translate(-28.35)"/><path d="M771.77,158.89l7,2.16h-7Zm7,0h-7l7,2.16Z" transform="translate(-28.35)"/><path class="cls-5" d="M771.77,158.89l7,2.16h-7Zm7,0h-7l7,2.16Z" transform="translate(-28.35)"/><path d="M771.77,161.05l7,48h-7Zm7,0h-7l7,48Z" transform="translate(-28.35)"/><path class="cls-5" d="M771.77,161.05l7,48h-7Zm7,0h-7l7,48Z" transform="translate(-28.35)"/><path d="M771.77,209.05l7,2.4h-7Zm7,0h-7l7,2.4Z" transform="translate(-28.35)"/><path class="cls-5" d="M771.77,209.05l7,2.4h-7Zm7,0h-7l7,2.4Z" transform="translate(-28.35)"/><path d="M771.77,265.21l7,2.4h-7Zm7,0h-7l7,2.4Z" transform="translate(-28.35)"/><path class="cls-5" d="M771.77,265.21l7,2.4h-7Zm7,0h-7l7,2.4Z" transform="translate(-28.35)"/><path d="M771.77,267.61l7,48h-7Zm7,0h-7l7,48Z" transform="translate(-28.35)"/><path class="cls-5" d="M771.77,267.61l7,48h-7Zm7,0h-7l7,48Z" transform="translate(-28.35)"/><path d="M771.77,315.61l7,2.16h-7Zm7,0h-7l7,2.16Z" transform="translate(-28.35)"/><path class="cls-5" d="M771.77,315.61l7,2.16h-7Zm7,0h-7l7,2.16Z" transform="translate(-28.35)"/><polygon points="743.42 469.21 750.38 469.21 750.38 476.41 743.42 469.21"/><polygon class="cls-5" points="743.42 469.21 750.38 469.21 750.38 476.41 743.42 469.21"/><path d="M771.29,3.85l.48,53.28h-.48Zm.48,0h-.48l.48,53.28Z" transform="translate(-28.35)"/><path class="cls-5" d="M771.29,3.85l.48,53.28h-.48Zm.48,0h-.48l.48,53.28Z" transform="translate(-28.35)"/><path d="M771.29,161.05l.48,48h-.48Zm.48,0h-.48l.48,48Z" transform="translate(-28.35)"/><path class="cls-5" d="M771.29,161.05l.48,48h-.48Zm.48,0h-.48l.48,48Z" transform="translate(-28.35)"/><path d="M771.29,267.61l.48,48h-.48Zm.48,0h-.48l.48,48Z" transform="translate(-28.35)"/><path class="cls-5" d="M771.29,267.61l.48,48h-.48Zm.48,0h-.48l.48,48Z" transform="translate(-28.35)"/><path d="M771.29,419.53l.48,47.52h-.48Zm.48,0h-.48l.48,47.52Z" transform="translate(-28.35)"/><path class="cls-5" d="M771.29,419.53l.48,47.52h-.48Zm.48,0h-.48l.48,47.52Z" transform="translate(-28.35)"/><path d="M771.29,468.73h.48v.48Zm0-1.68v1.68h.48Z" transform="translate(-28.35)"/><path class="cls-5" d="M771.29,468.73h.48v.48Zm0-1.68v1.68h.48Z" transform="translate(-28.35)"/><polygon points="742.94 467.05 743.42 467.05 743.42 468.73 742.94 467.05"/><polygon class="cls-5" points="742.94 467.05 743.42 467.05 743.42 468.73 742.94 467.05"/><path d="M762.41,3.85l8.88,53.28h-8.88Zm8.88,0h-8.88l8.88,53.28Z" transform="translate(-28.35)"/><path class="cls-5" d="M762.41,3.85l8.88,53.28h-8.88Zm8.88,0h-8.88l8.88,53.28Z" transform="translate(-28.35)"/><path d="M762.41,161.05l8.88,48h-8.88Zm8.88,0h-8.88l8.88,48Z" transform="translate(-28.35)"/><path class="cls-5" d="M762.41,161.05l8.88,48h-8.88Zm8.88,0h-8.88l8.88,48Z" transform="translate(-28.35)"/><path d="M762.41,267.61l8.88,48h-8.88Zm8.88,0h-8.88l8.88,48Z" transform="translate(-28.35)"/><path class="cls-5" d="M762.41,267.61l8.88,48h-8.88Zm8.88,0h-8.88l8.88,48Z" transform="translate(-28.35)"/><path d="M762.41,419.53l8.88,40.32h-8.88Zm8.88,0h-8.88l8.88,40.32Z" transform="translate(-28.35)"/><path class="cls-5" d="M762.41,419.53l8.88,40.32h-8.88Zm8.88,0h-8.88l8.88,40.32Z" transform="translate(-28.35)"/><path d="M762.41,459.85l8.88,7.2h-1.92Zm8.88,0h-8.88l8.88,7.2Z" transform="translate(-28.35)"/><path class="cls-5" d="M762.41,459.85l8.88,7.2h-1.92Zm8.88,0h-8.88l8.88,7.2Z" transform="translate(-28.35)"/><polygon points="741.02 467.05 742.94 467.05 742.94 468.73 741.02 467.05"/><polygon class="cls-5" points="741.02 467.05 742.94 467.05 742.94 468.73 741.02 467.05"/><path d="M762.41,3.85h0Z" transform="translate(-28.35)"/><path class="cls-5" d="M762.41,3.85h0Z" transform="translate(-28.35)"/><path d="M762.41,9.61H747.77V3.85Zm0,0Z" transform="translate(-28.35)"/><path class="cls-5" d="M762.41,9.61H747.77V3.85Zm0,0Z" transform="translate(-28.35)"/><polygon points="719.42 3.85 734.06 3.85 734.06 9.61 719.42 3.85"/><polygon class="cls-5" points="719.42 3.85 734.06 3.85 734.06 9.61 719.42 3.85"/><path d="M747.77,9.61l14.64,47.52H747.77Zm14.64,0H747.77l14.64,47.52Z" transform="translate(-28.35)"/><path class="cls-5" d="M747.77,9.61l14.64,47.52H747.77Zm14.64,0H747.77l14.64,47.52Z" transform="translate(-28.35)"/><path d="M747.77,161.05l14.64,21.12H747.77Zm14.64,0H747.77l14.64,21.12Z" transform="translate(-28.35)"/><path class="cls-5" d="M747.77,161.05l14.64,21.12H747.77Zm14.64,0H747.77l14.64,21.12Z" transform="translate(-28.35)"/><path d="M747.77,182.17l14.64,11.76H747.77Zm14.64,0H747.77l14.64,11.76Z" transform="translate(-28.35)"/><path class="cls-5" d="M747.77,182.17l14.64,11.76H747.77Zm14.64,0H747.77l14.64,11.76Z" transform="translate(-28.35)"/><path d="M747.77,193.93l14.64,15.12H747.77Zm14.64,0H747.77l14.64,15.12Z" transform="translate(-28.35)"/><path class="cls-5" d="M747.77,193.93l14.64,15.12H747.77Zm14.64,0H747.77l14.64,15.12Z" transform="translate(-28.35)"/><path d="M747.77,267.61l14.64,48H747.77Zm14.64,0H747.77l14.64,48Z" transform="translate(-28.35)"/><path class="cls-5" d="M747.77,267.61l14.64,48H747.77Zm14.64,0H747.77l14.64,48Z" transform="translate(-28.35)"/><path d="M747.77,419.53l14.64,25.92H747.77Zm14.64,0H747.77l14.64,25.92Z" transform="translate(-28.35)"/><path class="cls-5" d="M747.77,419.53l14.64,25.92H747.77Zm14.64,0H747.77l14.64,25.92Z" transform="translate(-28.35)"/><path d="M747.77,445.45,762.41,457h-2.88Zm14.64,0H747.77L762.41,457Z" transform="translate(-28.35)"/><path class="cls-5" d="M747.77,445.45,762.41,457h-2.88Zm14.64,0H747.77L762.41,457Z" transform="translate(-28.35)"/><polygon points="731.18 456.97 734.06 456.97 734.06 459.85 731.18 456.97"/><polygon class="cls-5" points="731.18 456.97 734.06 456.97 734.06 459.85 731.18 456.97"/><line class="cls-5" x1="743.42" y1="315.61" x2="743.42" y2="267.61"/><line class="cls-5" x1="743.42" y1="209.05" x2="743.42" y2="161.05"/><line class="cls-5" x1="743.42" y1="467.05" x2="743.42" y2="419.53"/><line class="cls-5" x1="743.42" y1="57.13" x2="743.42" y2="3.85"/><line class="cls-5" x1="743.42" y1="469.21" x2="743.42" y2="467.05"/><line class="cls-5" x1="742.94" y1="315.61" x2="742.94" y2="267.61"/><line class="cls-5" x1="742.94" y1="209.05" x2="742.94" y2="161.05"/><line class="cls-5" x1="742.94" y1="467.05" x2="742.94" y2="419.53"/><line class="cls-5" x1="742.94" y1="57.13" x2="742.94" y2="3.85"/><line class="cls-5" x1="741.02" y1="467.05" x2="742.94" y2="467.05"/><line class="cls-5" x1="719.42" y1="9.61" x2="734.06" y2="9.61"/><line class="cls-5" x1="719.42" y1="193.93" x2="734.06" y2="193.93"/><line class="cls-5" x1="734.06" y1="182.17" x2="719.42" y2="182.17"/><line class="cls-5" x1="719.42" y1="445.45" x2="734.06" y2="445.45"/><line class="cls-5" x1="731.18" y1="456.97" x2="734.06" y2="456.97"/><polyline class="cls-5" points="740.54 161.05 734.06 161.05 719.42 161.05"/><polyline class="cls-5" points="750.38 158.89 743.42 158.89 743.42 161.05"/><polyline class="cls-5" points="743.42 161.05 742.94 161.05 740.54 161.05"/><polyline class="cls-5" points="740.54 57.13 734.06 57.13 719.42 57.13"/><polyline class="cls-5" points="750.38 59.29 743.42 59.29 743.42 57.13"/><polyline class="cls-5" points="743.42 57.13 742.94 57.13 740.54 57.13"/><polyline class="cls-5" points="740.54 419.53 734.06 419.53 719.42 419.53"/><polyline class="cls-5" points="750.38 417.37 743.42 417.37 743.42 419.53"/><polyline class="cls-5" points="743.42 419.53 742.94 419.53 740.54 419.53"/><polyline class="cls-5" points="740.54 315.61 734.06 315.61 719.42 315.61"/><polyline class="cls-5" points="750.38 317.77 743.42 317.77 743.42 315.61"/><polyline class="cls-5" points="743.42 315.61 742.94 315.61 740.54 315.61"/><polyline class="cls-5" points="740.54 209.05 734.06 209.05 719.42 209.05"/><polyline class="cls-5" points="750.38 211.45 743.42 211.45 743.42 209.05"/><polyline class="cls-5" points="743.42 209.05 742.94 209.05 740.54 209.05"/><polyline class="cls-5" points="740.54 267.61 734.06 267.61 719.42 267.61"/><polyline class="cls-5" points="750.38 265.21 743.42 265.21 743.42 267.61"/><polyline class="cls-5" points="743.42 267.61 742.94 267.61 740.54 267.61"/><line class="cls-5" x1="750.38" y1="476.41" x2="750.38" y2="417.37"/><line class="cls-5" x1="750.38" y1="317.77" x2="750.38" y2="265.21"/><line class="cls-5" x1="750.38" y1="211.45" x2="750.38" y2="158.89"/><line class="cls-5" x1="750.38" y1="59.29" x2="750.38" y2="3.85"/><line class="cls-5" x1="719.42" y1="9.61" x2="719.42" y2="57.13"/><line class="cls-5" x1="719.42" y1="161.05" x2="719.42" y2="182.17"/><line class="cls-5" x1="719.42" y1="193.93" x2="719.42" y2="209.05"/><line class="cls-5" x1="719.42" y1="267.61" x2="719.42" y2="315.61"/><line class="cls-5" x1="719.42" y1="419.53" x2="719.42" y2="445.45"/><line class="cls-5" x1="750.38" y1="59.29" x2="750.38" y2="158.89"/><line class="cls-5" x1="719.42" y1="57.13" x2="719.42" y2="161.05"/><path d="M771.77,57.13h0Z" transform="translate(-28.35)"/><path class="cls-5" d="M771.77,57.13h0Z" transform="translate(-28.35)"/><path d="M771.77,64.09h-2.88v-7Zm0,0Z" transform="translate(-28.35)"/><path class="cls-5" d="M771.77,64.09h-2.88v-7Zm0,0Z" transform="translate(-28.35)"/><polygon points="740.54 57.13 743.42 57.13 743.42 64.09 740.54 57.13"/><polygon class="cls-5" points="740.54 57.13 743.42 57.13 743.42 64.09 740.54 57.13"/><path d="M771.77,106.81h0Z" transform="translate(-28.35)"/><path class="cls-5" d="M771.77,106.81h0Z" transform="translate(-28.35)"/><path d="M771.77,109.21h-2.88v-2.4Zm0,0Z" transform="translate(-28.35)"/><path class="cls-5" d="M771.77,109.21h-2.88v-2.4Zm0,0Z" transform="translate(-28.35)"/><polygon points="740.54 106.81 743.42 106.81 743.42 109.21 740.54 106.81"/><polygon class="cls-5" points="740.54 106.81 743.42 106.81 743.42 109.21 740.54 106.81"/><path d="M771.77,109.21h0Z" transform="translate(-28.35)"/><path class="cls-5" d="M771.77,109.21h0Z" transform="translate(-28.35)"/><path d="M771.77,111.37h-2.88v-2.16Zm0,0Z" transform="translate(-28.35)"/><path class="cls-5" d="M771.77,111.37h-2.88v-2.16Zm0,0Z" transform="translate(-28.35)"/><polygon points="740.54 109.21 743.42 109.21 743.42 111.37 740.54 109.21"/><polygon class="cls-5" points="740.54 109.21 743.42 109.21 743.42 111.37 740.54 109.21"/><path d="M771.77,154.09h0Z" transform="translate(-28.35)"/><path class="cls-5" d="M771.77,154.09h0Z" transform="translate(-28.35)"/><path d="M771.77,161.05h-2.88v-7Zm0,0Z" transform="translate(-28.35)"/><path class="cls-5" d="M771.77,161.05h-2.88v-7Zm0,0Z" transform="translate(-28.35)"/><polygon points="740.54 154.09 743.42 154.09 743.42 161.05 740.54 154.09"/><polygon class="cls-5" points="740.54 154.09 743.42 154.09 743.42 161.05 740.54 154.09"/><polyline class="cls-5" points="743.42 57.13 743.42 64.09 740.54 64.09 740.54 57.13"/><polyline class="cls-5" points="740.54 109.21 740.54 106.81 743.42 106.81 743.42 109.21"/><line class="cls-5" x1="743.42" y1="64.09" x2="743.42" y2="106.81"/><line class="cls-5" x1="740.54" y1="106.81" x2="740.54" y2="64.09"/><polyline class="cls-5" points="743.42 109.21 743.42 111.37 740.54 111.37 740.54 109.21"/><polyline class="cls-5" points="740.54 161.05 740.54 154.09 743.42 154.09 743.42 161.05"/><line class="cls-5" x1="743.42" y1="111.37" x2="743.42" y2="154.09"/><line class="cls-5" x1="740.54" y1="154.09" x2="740.54" y2="111.37"/><polyline class="cls-5" points="743.42 59.29 743.42 57.13 742.94 57.13 740.54 57.13"/><polyline class="cls-5" points="743.42 158.89 743.42 161.05 742.94 161.05 740.54 161.05"/><line class="cls-5" x1="750.38" y1="317.77" x2="750.38" y2="417.37"/><line class="cls-5" x1="719.42" y1="315.61" x2="719.42" y2="419.53"/><path d="M771.77,315.61h0Z" transform="translate(-28.35)"/><path class="cls-5" d="M771.77,315.61h0Z" transform="translate(-28.35)"/><path d="M771.77,322.57h-2.88v-7Zm0,0Z" transform="translate(-28.35)"/><path class="cls-5" d="M771.77,322.57h-2.88v-7Zm0,0Z" transform="translate(-28.35)"/><polygon points="740.54 315.61 743.42 315.61 743.42 322.57 740.54 315.61"/><polygon class="cls-5" points="740.54 315.61 743.42 315.61 743.42 322.57 740.54 315.61"/><path d="M771.77,365.29h0Z" transform="translate(-28.35)"/><path class="cls-5" d="M771.77,365.29h0Z" transform="translate(-28.35)"/><path d="M771.77,367.45h-2.88v-2.16Zm0,0Z" transform="translate(-28.35)"/><path class="cls-5" d="M771.77,367.45h-2.88v-2.16Zm0,0Z" transform="translate(-28.35)"/><polygon points="740.54 365.29 743.42 365.29 743.42 367.45 740.54 365.29"/><polygon class="cls-5" points="740.54 365.29 743.42 365.29 743.42 367.45 740.54 365.29"/><path d="M771.77,367.45h0Z" transform="translate(-28.35)"/><path class="cls-5" d="M771.77,367.45h0Z" transform="translate(-28.35)"/><path d="M771.77,369.85h-2.88v-2.4Zm0,0Z" transform="translate(-28.35)"/><path class="cls-5" d="M771.77,369.85h-2.88v-2.4Zm0,0Z" transform="translate(-28.35)"/><polygon points="740.54 367.45 743.42 367.45 743.42 369.85 740.54 367.45"/><polygon class="cls-5" points="740.54 367.45 743.42 367.45 743.42 369.85 740.54 367.45"/><path d="M771.77,412.57h0Z" transform="translate(-28.35)"/><path class="cls-5" d="M771.77,412.57h0Z" transform="translate(-28.35)"/><path d="M771.77,419.53h-2.88v-7Zm0,0Z" transform="translate(-28.35)"/><path class="cls-5" d="M771.77,419.53h-2.88v-7Zm0,0Z" transform="translate(-28.35)"/><polygon points="740.54 412.57 743.42 412.57 743.42 419.53 740.54 412.57"/><polygon class="cls-5" points="740.54 412.57 743.42 412.57 743.42 419.53 740.54 412.57"/><polyline class="cls-5" points="743.42 315.61 743.42 322.57 740.54 322.57 740.54 315.61"/><polyline class="cls-5" points="740.54 367.45 740.54 365.29 743.42 365.29 743.42 367.45"/><line class="cls-5" x1="743.42" y1="322.57" x2="743.42" y2="365.29"/><line class="cls-5" x1="740.54" y1="365.29" x2="740.54" y2="322.57"/><polyline class="cls-5" points="743.42 367.45 743.42 369.85 740.54 369.85 740.54 367.45"/><polyline class="cls-5" points="740.54 419.53 740.54 412.57 743.42 412.57 743.42 419.53"/><line class="cls-5" x1="743.42" y1="369.85" x2="743.42" y2="412.57"/><line class="cls-5" x1="740.54" y1="412.57" x2="740.54" y2="369.85"/><polyline class="cls-5" points="743.42 317.77 743.42 315.61 742.94 315.61 740.54 315.61"/><polyline class="cls-5" points="743.42 417.37 743.42 419.53 742.94 419.53 740.54 419.53"/><line class="cls-5" x1="750.38" y1="265.21" x2="750.38" y2="211.45"/><line class="cls-5" x1="719.42" y1="267.61" x2="719.42" y2="209.05"/><path d="M771.77,260.65h0Z" transform="translate(-28.35)"/><path class="cls-5" d="M771.77,260.65h0Z" transform="translate(-28.35)"/><path d="M771.77,267.61h-2.88v-7Zm0,0Z" transform="translate(-28.35)"/><path class="cls-5" d="M771.77,267.61h-2.88v-7Zm0,0Z" transform="translate(-28.35)"/><polygon points="740.54 260.65 743.42 260.65 743.42 267.61 740.54 260.65"/><polygon class="cls-5" points="740.54 260.65 743.42 260.65 743.42 267.61 740.54 260.65"/><path d="M771.77,209.05h0Z" transform="translate(-28.35)"/><path class="cls-5" d="M771.77,209.05h0Z" transform="translate(-28.35)"/><path d="M771.77,216h-2.88v-7Zm0,0Z" transform="translate(-28.35)"/><path class="cls-5" d="M771.77,216h-2.88v-7Zm0,0Z" transform="translate(-28.35)"/><polygon points="740.54 209.05 743.42 209.05 743.42 216.01 740.54 209.05"/><polygon class="cls-5" points="740.54 209.05 743.42 209.05 743.42 216.01 740.54 209.05"/><polyline class="cls-5" points="743.42 267.61 743.42 260.65 740.54 260.65 740.54 267.61"/><polyline class="cls-5" points="740.54 209.05 740.54 216.01 743.42 216.01 743.42 209.05"/><line class="cls-5" x1="743.42" y1="260.65" x2="743.42" y2="216.01"/><line class="cls-5" x1="740.54" y1="216.01" x2="740.54" y2="260.65"/><polyline class="cls-5" points="743.42 265.21 743.42 267.61 742.94 267.61 740.54 267.61"/><polyline class="cls-5" points="743.42 211.45 743.42 209.05 742.94 209.05 740.54 209.05"/><path d="M695.45,469.21h0Zm0,0Z" transform="translate(-28.35)"/><path class="cls-5" d="M695.45,469.21h0Zm0,0Z" transform="translate(-28.35)"/><path d="M695.45,469.21h0Z" transform="translate(-28.35)"/><path class="cls-5" d="M695.45,469.21h0Z" transform="translate(-28.35)"/><path d="M703.85,476.41H537.29v-7.2Zm0,0Z" transform="translate(-28.35)"/><path class="cls-5" d="M703.85,476.41H537.29v-7.2Zm0,0Z" transform="translate(-28.35)"/><polygon points="508.94 469.21 675.5 469.21 675.5 476.41 508.94 469.21"/><polygon class="cls-5" points="508.94 469.21 675.5 469.21 675.5 476.41 508.94 469.21"/><path d="M695.45,468.73h0Zm0,0Z" transform="translate(-28.35)"/><path class="cls-5" d="M695.45,468.73h0Zm0,0Z" transform="translate(-28.35)"/><path d="M695.45,468.73h0Z" transform="translate(-28.35)"/><path class="cls-5" d="M695.45,468.73h0Z" transform="translate(-28.35)"/><path d="M703.85,469.21H537.29v-.48Zm0,0Z" transform="translate(-28.35)"/><path class="cls-5" d="M703.85,469.21H537.29v-.48Zm0,0Z" transform="translate(-28.35)"/><polygon points="508.94 468.73 675.5 468.73 675.5 469.21 508.94 468.73"/><polygon class="cls-5" points="508.94 468.73 675.5 468.73 675.5 469.21 508.94 468.73"/><path d="M695.45,459.85h0Zm0,0Z" transform="translate(-28.35)"/><path class="cls-5" d="M695.45,459.85h0Zm0,0Z" transform="translate(-28.35)"/><path d="M695.45,459.85h0Z" transform="translate(-28.35)"/><path class="cls-5" d="M695.45,459.85h0Z" transform="translate(-28.35)"/><path d="M703.85,468.73H537.29v-8.88Zm0,0Z" transform="translate(-28.35)"/><path class="cls-5" d="M703.85,468.73H537.29v-8.88Zm0,0Z" transform="translate(-28.35)"/><polygon points="508.94 459.85 675.5 459.85 675.5 468.73 508.94 459.85"/><polygon class="cls-5" points="508.94 459.85 675.5 459.85 675.5 468.73 508.94 459.85"/><path d="M703.85,445.45h0Z" transform="translate(-28.35)"/><path class="cls-5" d="M703.85,445.45h0Z" transform="translate(-28.35)"/><path d="M703.85,459.85H537.29v-14.4Zm0,0Z" transform="translate(-28.35)"/><path class="cls-5" d="M703.85,459.85H537.29v-14.4Zm0,0Z" transform="translate(-28.35)"/><polygon points="508.94 445.45 675.5 445.45 675.5 459.85 508.94 445.45"/><polygon class="cls-5" points="508.94 445.45 675.5 445.45 675.5 459.85 508.94 445.45"/><line class="cls-5" x1="508.94" y1="469.21" x2="675.5" y2="469.21"/><line class="cls-5" x1="508.94" y1="468.73" x2="675.5" y2="468.73"/><polyline class="cls-5" points="675.5 445.45 508.94 445.45 508.94 468.73"/><line class="cls-5" x1="508.94" y1="476.41" x2="675.5" y2="476.41"/><line class="cls-5" x1="675.5" y1="468.73" x2="675.5" y2="445.45"/><path d="M291.53,469.21h0Z" transform="translate(-28.35)"/><path class="cls-5" d="M291.53,469.21h0Z" transform="translate(-28.35)"/><path d="M291.53,476.41H171.77v-7.2Zm0,0Z" transform="translate(-28.35)"/><path class="cls-5" d="M291.53,476.41H171.77v-7.2Zm0,0Z" transform="translate(-28.35)"/><polygon points="143.42 469.21 263.18 469.21 263.18 476.41 143.42 469.21"/><polygon class="cls-5" points="143.42 469.21 263.18 469.21 263.18 476.41 143.42 469.21"/><path d="M291.53,468.73h0Z" transform="translate(-28.35)"/><path class="cls-5" d="M291.53,468.73h0Z" transform="translate(-28.35)"/><path d="M291.53,469.21H171.77v-.48Zm0,0Z" transform="translate(-28.35)"/><path class="cls-5" d="M291.53,469.21H171.77v-.48Zm0,0Z" transform="translate(-28.35)"/><polygon points="143.42 468.73 263.18 468.73 263.18 469.21 143.42 468.73"/><polygon class="cls-5" points="143.42 468.73 263.18 468.73 263.18 469.21 143.42 468.73"/><path d="M291.53,459.85h0Z" transform="translate(-28.35)"/><path class="cls-5" d="M291.53,459.85h0Z" transform="translate(-28.35)"/><path d="M291.53,468.73H171.77v-8.88Zm0,0Z" transform="translate(-28.35)"/><path class="cls-5" d="M291.53,468.73H171.77v-8.88Zm0,0Z" transform="translate(-28.35)"/><polygon points="143.42 459.85 263.18 459.85 263.18 468.73 143.42 459.85"/><polygon class="cls-5" points="143.42 459.85 263.18 459.85 263.18 468.73 143.42 459.85"/><path d="M291.53,445.45h0Z" transform="translate(-28.35)"/><path class="cls-5" d="M291.53,445.45h0Z" transform="translate(-28.35)"/><path d="M291.53,459.85H171.77v-14.4Zm0,0Z" transform="translate(-28.35)"/><path class="cls-5" d="M291.53,459.85H171.77v-14.4Zm0,0Z" transform="translate(-28.35)"/><polygon points="143.42 445.45 263.18 445.45 263.18 459.85 143.42 445.45"/><polygon class="cls-5" points="143.42 445.45 263.18 445.45 263.18 459.85 143.42 445.45"/><line class="cls-5" x1="143.42" y1="469.21" x2="263.18" y2="469.21"/><line class="cls-5" x1="143.42" y1="468.73" x2="263.18" y2="468.73"/><polyline class="cls-5" points="263.18 445.45 143.42 445.45 143.42 468.73"/><line class="cls-5" x1="143.42" y1="476.41" x2="263.18" y2="476.41"/><line class="cls-5" x1="263.18" y1="468.73" x2="263.18" y2="445.45"/><path d="M478.73,469.21h0Z" transform="translate(-28.35)"/><path class="cls-5" d="M478.73,469.21h0Z" transform="translate(-28.35)"/><path d="M478.73,476.41H350.09v-7.2Zm0,0Z" transform="translate(-28.35)"/><path class="cls-5" d="M478.73,476.41H350.09v-7.2Zm0,0Z" transform="translate(-28.35)"/><polygon points="321.74 469.21 450.38 469.21 450.38 476.41 321.74 469.21"/><polygon class="cls-5" points="321.74 469.21 450.38 469.21 450.38 476.41 321.74 469.21"/><path d="M478.73,468.73h0Z" transform="translate(-28.35)"/><path class="cls-5" d="M478.73,468.73h0Z" transform="translate(-28.35)"/><path d="M478.73,469.21H350.09v-.48Zm0,0Z" transform="translate(-28.35)"/><path class="cls-5" d="M478.73,469.21H350.09v-.48Zm0,0Z" transform="translate(-28.35)"/><polygon points="321.74 468.73 450.38 468.73 450.38 469.21 321.74 468.73"/><polygon class="cls-5" points="321.74 468.73 450.38 468.73 450.38 469.21 321.74 468.73"/><path d="M478.73,459.85h0Z" transform="translate(-28.35)"/><path class="cls-5" d="M478.73,459.85h0Z" transform="translate(-28.35)"/><path d="M478.73,468.73H350.09v-8.88Zm0,0Z" transform="translate(-28.35)"/><path class="cls-5" d="M478.73,468.73H350.09v-8.88Zm0,0Z" transform="translate(-28.35)"/><polygon points="321.74 459.85 450.38 459.85 450.38 468.73 321.74 459.85"/><polygon class="cls-5" points="321.74 459.85 450.38 459.85 450.38 468.73 321.74 459.85"/><path d="M478.73,445.45h0Z" transform="translate(-28.35)"/><path class="cls-5" d="M478.73,445.45h0Z" transform="translate(-28.35)"/><path d="M478.73,459.85H350.09v-14.4Zm0,0Z" transform="translate(-28.35)"/><path class="cls-5" d="M478.73,459.85H350.09v-14.4Zm0,0Z" transform="translate(-28.35)"/><polygon points="321.74 445.45 450.38 445.45 450.38 459.85 321.74 445.45"/><polygon class="cls-5" points="321.74 445.45 450.38 445.45 450.38 459.85 321.74 445.45"/><line class="cls-5" x1="321.74" y1="469.21" x2="450.38" y2="469.21"/><line class="cls-5" x1="321.74" y1="468.73" x2="450.38" y2="468.73"/><polyline class="cls-5" points="450.38 445.45 321.74 445.45 321.74 468.73"/><line class="cls-5" x1="321.74" y1="476.41" x2="450.38" y2="476.41"/><line class="cls-5" x1="450.38" y1="468.73" x2="450.38" y2="445.45"/><path d="M483.53,182.17l53.76,11.76H483.53Zm53.76,0H483.53l53.76,11.76Z" transform="translate(-28.35)"/><path class="cls-5" d="M483.53,182.17l53.76,11.76H483.53Zm53.76,0H483.53l53.76,11.76Z" transform="translate(-28.35)"/><line class="cls-5" x1="508.94" y1="182.17" x2="455.18" y2="182.17"/><polyline class="cls-5" points="455.18 193.93 508.94 193.93 508.94 182.17"/><path d="M703.85,182.17l43.92,11.76H703.85Zm43.92,0H703.85l43.92,11.76Z" transform="translate(-28.35)"/><path class="cls-5" d="M703.85,182.17l43.92,11.76H703.85Zm43.92,0H703.85l43.92,11.76Z" transform="translate(-28.35)"/><line class="cls-5" x1="675.5" y1="193.93" x2="719.42" y2="193.93"/><polyline class="cls-5" points="719.42 182.17 675.5 182.17 675.5 193.93"/><polyline points="743.42 0.25 750.38 3.85 743.42 3.85 743.42 0.25"/><polyline points="743.42 0.25 750.38 3.85 750.38 0.25"/><polyline class="cls-5" points="743.42 0.25 750.38 3.85 743.42 3.85 743.42 0.25"/><polyline class="cls-5" points="743.42 0.25 750.38 3.85 750.38 0.25"/><polyline points="742.94 0.25 743.42 3.85 742.94 3.85 742.94 0.25"/><polyline points="742.94 0.25 743.42 3.85 743.42 0.25"/><polyline class="cls-5" points="742.94 0.25 743.42 3.85 742.94 3.85 742.94 0.25"/><polyline class="cls-5" points="742.94 0.25 743.42 3.85 743.42 0.25"/><polyline points="734.06 0.25 742.94 3.85 734.06 3.85 734.06 0.25"/><polyline points="734.06 0.25 742.94 3.85 742.94 0.25"/><polyline class="cls-5" points="734.06 0.25 742.94 3.85 734.06 3.85 734.06 0.25"/><polyline class="cls-5" points="734.06 0.25 742.94 3.85 742.94 0.25"/><path d="M754.49.25h0Zm0,0Z" transform="translate(-28.35)"/><path class="cls-5" d="M754.49.25h0Zm0,0Z" transform="translate(-28.35)"/><path d="M754.49.25h0Z" transform="translate(-28.35)"/><path class="cls-5" d="M754.49.25h0Z" transform="translate(-28.35)"/><path d="M762.41,3.85H747.77V.25Zm0,0Z" transform="translate(-28.35)"/><path class="cls-5" d="M762.41,3.85H747.77V.25Zm0,0Z" transform="translate(-28.35)"/><polygon points="719.42 0.25 734.06 0.25 734.06 3.85 719.42 0.25"/><polygon class="cls-5" points="719.42 0.25 734.06 0.25 734.06 3.85 719.42 0.25"/><line class="cls-5" x1="743.42" y1="3.85" x2="743.42" y2="0.25"/><line class="cls-5" x1="742.94" y1="3.85" x2="742.94" y2="0.25"/><line class="cls-5" x1="750.38" y1="0.25" x2="719.42" y2="0.25"/><path d="M192.17,182.17h0Z" transform="translate(-28.35)"/><path class="cls-5" d="M192.17,182.17h0Z" transform="translate(-28.35)"/><path d="M291.53,193.93H192.17V182.17Zm0,0Z" transform="translate(-28.35)"/><path class="cls-5" d="M291.53,193.93H192.17V182.17Zm0,0Z" transform="translate(-28.35)"/><polygon points="163.82 182.17 263.18 182.17 263.18 193.93 163.82 182.17"/><polygon class="cls-5" points="163.82 182.17 263.18 182.17 263.18 193.93 163.82 182.17"/><polyline class="cls-5" points="163.82 193.93 263.18 193.93 263.18 182.17 163.82 182.17 163.82 193.93"/><path d="M127.85,182.17h0Z" transform="translate(-28.35)"/><path class="cls-5" d="M127.85,182.17h0Z" transform="translate(-28.35)"/><path d="M192.17,193.93H127.85V182.17Zm0,0Z" transform="translate(-28.35)"/><path class="cls-5" d="M192.17,193.93H127.85V182.17Zm0,0Z" transform="translate(-28.35)"/><polygon points="99.5 182.17 163.82 182.17 163.82 193.93 99.5 182.17"/><polygon class="cls-5" points="99.5 182.17 163.82 182.17 163.82 193.93 99.5 182.17"/><polyline class="cls-5" points="99.5 193.93 163.82 193.93 163.82 182.17 99.5 182.17"/><path d="M291.53,63.61l11.76,71.76H291.53Zm11.76,0H291.53l11.76,71.76Z" transform="translate(-28.35)"/><path class="cls-5" d="M291.53,63.61l11.76,71.76H291.53Zm11.76,0H291.53l11.76,71.76Z" transform="translate(-28.35)"/><line class="cls-5" x1="263.18" y1="63.61" x2="274.94" y2="63.61"/><polyline class="cls-5" points="263.18 63.61 263.18 135.37 274.94 135.37 274.94 75.13"/><line class="cls-5" x1="274.94" y1="63.61" x2="274.94" y2="63.61"/><path d="M303.29,63.61Z" transform="translate(-28.35)"/><path class="cls-5" d="M303.29,63.61Z" transform="translate(-28.35)"/><line class="cls-5" x1="263.18" y1="63.61" x2="274.94" y2="63.61"/><polyline class="cls-5" points="353.9 322.09 340.46 322.09 340.46 353.53 353.9 353.77"/><line class="cls-5" x1="340.46" y1="342.73" x2="340.46" y2="332.89"/><line class="cls-5" x1="351.26" y1="340.57" x2="351.26" y2="338.89"/><line class="cls-5" x1="348.62" y1="337.93" x2="350.3" y2="337.93"/><line class="cls-5" x1="351.26" y1="336.97" x2="351.26" y2="335.29"/><line class="cls-5" x1="352.22" y1="337.93" x2="353.9" y2="337.93"/><path class="cls-5" d="M383,324a13.94,13.94,0,0,0-6.64,5.44" transform="translate(-28.35)"/><path class="cls-5" d="M376.35,329.36a14,14,0,0,0-2,8.37" transform="translate(-28.35)"/><path class="cls-5" d="M376.33,346.14a14,14,0,0,0,6.63,5.44" transform="translate(-28.35)"/><path class="cls-5" d="M374.38,337.63a14,14,0,0,0,2,8.37" transform="translate(-28.35)"/><path class="cls-5" d="M392.74,336.64a26,26,0,0,0-2.61-9.62" transform="translate(-28.35)"/><path class="cls-5" d="M382,353.52a8,8,0,0,0,6.62-3" transform="translate(-28.35)"/><path class="cls-5" d="M392.53,338.92a16.15,16.15,0,0,0,0-2.2" transform="translate(-28.35)"/><path class="cls-5" d="M376.94,329a57.58,57.58,0,0,0,0,17.63" transform="translate(-28.35)"/><path class="cls-5" d="M371.27,348.09a19.85,19.85,0,0,0,12.87,4.48" transform="translate(-28.35)"/><path class="cls-5" d="M369.29,337.73a39.69,39.69,0,0,0,1,9" transform="translate(-28.35)"/><path class="cls-5" d="M370.31,346.76a2.6,2.6,0,0,0,.86,1.4" transform="translate(-28.35)"/><path class="cls-5" d="M370.49,337.67a68.08,68.08,0,0,0,.64,8.91" transform="translate(-28.35)"/><path class="cls-5" d="M372,348.33a17.87,17.87,0,0,0,12,4.48" transform="translate(-28.35)"/><path class="cls-5" d="M371.23,346.55a2.58,2.58,0,0,0,.83,1.55" transform="translate(-28.35)"/><path class="cls-5" d="M384,322.81a17.87,17.87,0,0,0-12,4.48" transform="translate(-28.35)"/><path class="cls-5" d="M384.14,322.81a19.76,19.76,0,0,0-12.87,4.48" transform="translate(-28.35)"/><path class="cls-5" d="M371.13,328.8a68.35,68.35,0,0,0-.64,8.92" transform="translate(-28.35)"/><path class="cls-5" d="M370.26,328.63a39.71,39.71,0,0,0-1,9" transform="translate(-28.35)"/><path class="cls-5" d="M372.06,327.28a2.58,2.58,0,0,0-.83,1.54" transform="translate(-28.35)"/><path class="cls-5" d="M371.17,327.46a2.57,2.57,0,0,0-.86,1.39" transform="translate(-28.35)"/><path class="cls-5" d="M388.64,324.86a8,8,0,0,0-6.61-3" transform="translate(-28.35)"/><path class="cls-5" d="M390,327.13a12.76,12.76,0,0,0-1.35-2.08" transform="translate(-28.35)"/><path class="cls-5" d="M388.65,350.58A12.13,12.13,0,0,0,390,348.5" transform="translate(-28.35)"/><path class="cls-5" d="M390.12,348.38a26.1,26.1,0,0,0,2.62-9.61" transform="translate(-28.35)"/><path class="cls-5" d="M390.37,342.18a18.63,18.63,0,0,0,0-8.72" transform="translate(-28.35)"/><path class="cls-5" d="M386.88,325.63A4.72,4.72,0,0,0,383,324" transform="translate(-28.35)"/><path class="cls-5" d="M390.39,333.4a17.17,17.17,0,0,0-3.61-7.89" transform="translate(-28.35)"/><path class="cls-5" d="M382.77,351.6a4.69,4.69,0,0,0,3.86-1.61" transform="translate(-28.35)"/><path class="cls-5" d="M386.77,349.88a17.15,17.15,0,0,0,3.62-7.88" transform="translate(-28.35)"/><path class="cls-5" d="M381.53,337.81a2,2,0,1,0-2,2,2,2,0,0,0,2-2" transform="translate(-28.35)"/><path class="cls-5" d="M381.05,337.81a1.56,1.56,0,1,0-1.56,1.56,1.56,1.56,0,0,0,1.56-1.56" transform="translate(-28.35)"/><text class="cls-6" transform="translate(324.62 393.61) rotate(-90)">1.64</text><text class="cls-6" transform="translate(377.42 199.53)">7.86</text><text class="cls-6" transform="translate(117.14 329.36)">15.47</text><text class="cls-6" transform="translate(665.66 337.93)">19.44</text><text class="cls-6" transform="translate(665.66 111.37)">13.86</text><text class="cls-6" transform="translate(382.58 85.93)">2.28</text><text class="cls-6" transform="translate(362.06 367.57)">4.54</text><text class="cls-7" transform="translate(589.12 337.35)">2K</text><text class="cls-7" transform="translate(578.59 362.68)">65.09</text><text class="cls-7" transform="translate(576.35 312.4)">№231</text><polyline class="cls-8" points="567.86 369.09 567.86 294.57 630.01 294.57 630.01 369.09"/><line class="cls-8" x1="567.86" y1="319.46" x2="630.01" y2="319.46"/><line class="cls-8" x1="567.86" y1="369.09" x2="630.01" y2="369.09"/><line class="cls-8" x1="567.86" y1="344.34" x2="630.01" y2="344.34"/></svg>