<svg id="_76" data-name="76" xmlns="http://www.w3.org/2000/svg" viewBox="0 0 153.75 297.34"><defs><style>.cls-1{isolation:isolate;font-size:6px;fill:#969696;font-family:PTSans-Regular, PT Sans;}.cls-10,.cls-11,.cls-2,.cls-6,.cls-9{fill:none;stroke-linecap:round;stroke-linejoin:round;}.cls-2{stroke:#969696;stroke-width:0.37px;}.cls-3{font-size:14px;}.cls-3,.cls-7{fill:#231f20;font-family:BigCityGrotesquePro-Regular, BigCity Grotesque Pro;}.cls-4{letter-spacing:-0.02em;}.cls-5{letter-spacing:-0.04em;}.cls-10,.cls-6,.cls-9{stroke:#000;}.cls-10,.cls-6{stroke-width:0.5px;}.cls-7{font-size:18px;}.cls-8{letter-spacing:-0.03em;}.cls-10{stroke-dasharray:3 3;}.cls-11{stroke:#1d1d1b;stroke-width:0.2px;}</style></defs><title>8floor_76flat</title><text class="cls-1" transform="translate(74.2 5.1)">двор</text><line class="cls-2" x1="68.82" y1="2.11" x2="68.82" y2="6.51"/><polyline class="cls-2" points="70.57 3.86 68.82 2.11 67.07 3.86"/><text class="cls-3" transform="translate(100.1 254.72)">3<tspan class="cls-4" x="7" y="0">.</tspan><tspan x="9.93" y="0">70</tspan></text><text class="cls-3" transform="translate(38.08 201.24)">12<tspan class="cls-5" x="11.66" y="0">.</tspan><tspan x="14.29" y="0">10</tspan></text><text class="cls-3" transform="translate(113.65 190.65)">5.40</text><rect class="cls-6" x="45.09" y="91.3" width="62.22" height="24.35"/><rect class="cls-6" x="45.09" y="115.65" width="62.22" height="24.35"/><rect class="cls-6" x="45.09" y="140.01" width="62.22" height="24.35"/><text class="cls-7" transform="translate(57.27 108.96)">№76<tspan x="9.48" y="24">C</tspan><tspan class="cls-8" x="19.52" y="24">T</tspan><tspan x="-0.17" y="48">21.20</tspan></text><line class="cls-9" x1="65.17" y1="61.53" x2="65.17" y2="59.73"/><line class="cls-9" x1="26.92" y1="59.73" x2="26.92" y2="80.11"/><line class="cls-9" x1="144.79" y1="68.2" x2="144.79" y2="59.73"/><line class="cls-9" x1="126.15" y1="59.73" x2="126.15" y2="61.53"/><line class="cls-9" x1="65.17" y1="68.2" x2="26.92" y2="68.2"/><line class="cls-9" x1="144.79" y1="68.2" x2="126.15" y2="68.2"/><line class="cls-9" x1="65.17" y1="59.73" x2="26.92" y2="59.73"/><line class="cls-9" x1="144.79" y1="59.73" x2="126.15" y2="59.73"/><line class="cls-9" x1="153.25" y1="59.73" x2="153.25" y2="68.2"/><line class="cls-9" x1="153.25" y1="68.2" x2="153.25" y2="68.2"/><line class="cls-9" x1="153.25" y1="59.73" x2="153.25" y2="59.73"/><line class="cls-9" x1="126.15" y1="54.5" x2="126.15" y2="54.68"/><line class="cls-9" x1="126.15" y1="54.68" x2="126.15" y2="59.73"/><line class="cls-9" x1="144.79" y1="59.73" x2="153.25" y2="59.73"/><line class="cls-9" x1="26.92" y1="54.5" x2="26.92" y2="54.68"/><line class="cls-9" x1="26.92" y1="54.68" x2="26.92" y2="59.73"/><line class="cls-9" x1="65.17" y1="59.73" x2="65.17" y2="54.68"/><line class="cls-9" x1="65.17" y1="54.68" x2="65.17" y2="54.5"/><line class="cls-9" x1="65.17" y1="54.5" x2="26.92" y2="54.5"/><polyline class="cls-9" points="126.15 54.5 153.25 54.5 153.25 64.18"/><line class="cls-9" x1="65.17" y1="54.68" x2="26.92" y2="54.68"/><line class="cls-9" x1="65.17" y1="54.14" x2="126.15" y2="54.14"/><line class="cls-9" x1="95.68" y1="218.76" x2="95.68" y2="217.07"/><polyline class="cls-9" points="95.68 211.66 95.68 201.84 126.15 201.84 126.15 203.52"/><line class="cls-9" x1="144.79" y1="218.76" x2="95.68" y2="218.76"/><line class="cls-9" x1="153.25" y1="218.76" x2="153.25" y2="208.29"/><line class="cls-10" x1="110.91" y1="112.75" x2="145.22" y2="112.75"/><line class="cls-10" x1="78.04" y1="213.35" x2="78.04" y2="167.46"/><line class="cls-6" x1="106.18" y1="52.82" x2="106.18" y2="54.14"/><line class="cls-6" x1="106.86" y1="52.82" x2="106.86" y2="54.14"/><line class="cls-6" x1="87.22" y1="52.82" x2="87.22" y2="54.14"/><line class="cls-6" x1="86.54" y1="52.82" x2="86.54" y2="54.14"/><polyline class="cls-6" points="83.13 39.27 110.23 39.27 110.23 52.82 83.13 52.82 83.13 39.27"/><polyline class="cls-6" points="113.64 54.14 113.64 35.36 79.76 35.36 79.76 54.14"/><polyline class="cls-6" points="81.95 54.14 81.95 37.55 111.42 37.55 111.42 54.14"/><line class="cls-6" x1="81.95" y1="37.72" x2="111.42" y2="37.72"/><path class="cls-9" d="M9,240.68" transform="translate(0 -28.34)"/><path class="cls-9" d="M9,243.37" transform="translate(0 -28.34)"/><line class="cls-9" x1="70.94" y1="212.34" x2="70.94" y2="215.03"/><line class="cls-9" x1="78.04" y1="215.03" x2="70.94" y2="215.03"/><line class="cls-9" x1="78.04" y1="212.34" x2="78.04" y2="215.03"/><line class="cls-9" x1="153.25" y1="204.2" x2="153.25" y2="208.29"/><line class="cls-9" x1="82.13" y1="262.31" x2="78.04" y2="262.31"/><line class="cls-9" x1="78.04" y1="288.38" x2="82.13" y2="288.38"/><line class="cls-9" x1="78.04" y1="235.21" x2="82.13" y2="235.21"/><line class="cls-9" x1="82.13" y1="262.31" x2="82.13" y2="288.38"/><line class="cls-9" x1="82.13" y1="216.39" x2="82.13" y2="235.21"/><line class="cls-9" x1="78.04" y1="262.31" x2="78.04" y2="288.38"/><line class="cls-9" x1="78.04" y1="215.03" x2="78.04" y2="235.21"/><line class="cls-9" x1="97.36" y1="216.39" x2="97.36" y2="212.34"/><line class="cls-9" x1="97.36" y1="216.39" x2="82.13" y2="216.39"/><line class="cls-9" x1="97.36" y1="212.34" x2="70.94" y2="212.34"/><polyline class="cls-9" points="124.46 208.29 144.79 208.29 144.79 204.2"/><polyline class="cls-9" points="144.79 204.2 124.46 204.2 124.46 208.29"/><line class="cls-9" x1="0.5" y1="220.44" x2="5.38" y2="215.57"/><line class="cls-9" x1="0.5" y1="228.15" x2="8.96" y2="219.69"/><line class="cls-9" x1="0.5" y1="235.89" x2="8.96" y2="227.43"/><line class="cls-9" x1="0.5" y1="243.6" x2="8.96" y2="235.14"/><line class="cls-9" x1="0.5" y1="251.35" x2="8.96" y2="242.88"/><line class="cls-9" x1="0.5" y1="259.05" x2="8.96" y2="250.59"/><line class="cls-9" x1="0.5" y1="266.8" x2="8.96" y2="258.34"/><line class="cls-9" x1="0.5" y1="274.5" x2="8.96" y2="266.04"/><line class="cls-9" x1="0.5" y1="282.25" x2="8.96" y2="273.79"/><line class="cls-9" x1="0.5" y1="289.99" x2="8.96" y2="281.49"/><line class="cls-9" x1="1.32" y1="296.84" x2="8.96" y2="289.24"/><line class="cls-9" x1="0.5" y1="216.57" x2="1.5" y2="215.57"/><line class="cls-9" x1="0.5" y1="224.32" x2="1.29" y2="223.49"/><line class="cls-9" x1="2.26" y1="222.52" x2="2.36" y2="222.45"/><line class="cls-9" x1="3.22" y1="221.55" x2="8.06" y2="216.72"/><line class="cls-9" x1="0.5" y1="232.02" x2="5.16" y2="227.36"/><line class="cls-9" x1="6.13" y1="226.39" x2="6.2" y2="226.29"/><line class="cls-9" x1="7.1" y1="225.43" x2="8.96" y2="223.56"/><line class="cls-9" x1="0.5" y1="239.77" x2="2.26" y2="237.97"/><line class="cls-9" x1="3.22" y1="237.01" x2="3.3" y2="236.93"/><line class="cls-9" x1="4.19" y1="236.04" x2="8.96" y2="231.27"/><line class="cls-9" x1="1.29" y1="246.65" x2="6.13" y2="241.85"/><line class="cls-9" x1="7.1" y1="240.88" x2="7.17" y2="240.81"/><line class="cls-9" x1="8.06" y1="239.91" x2="8.96" y2="239.01"/><line class="cls-9" x1="0.5" y1="255.22" x2="3.22" y2="252.46"/><line class="cls-9" x1="4.19" y1="251.49" x2="4.26" y2="251.42"/><line class="cls-9" x1="5.16" y1="250.52" x2="8.96" y2="246.72"/><line class="cls-9" x1="1.29" y1="262.1" x2="1.4" y2="262.03"/><line class="cls-9" x1="2.26" y1="261.17" x2="7.1" y2="256.33"/><line class="cls-9" x1="8.06" y1="255.36" x2="8.14" y2="255.29"/><line class="cls-9" x1="0.5" y1="270.67" x2="4.19" y2="266.94"/><line class="cls-9" x1="5.16" y1="265.97" x2="5.23" y2="265.9"/><line class="cls-9" x1="6.13" y1="265" x2="8.96" y2="262.17"/><line class="cls-9" x1="0.5" y1="278.37" x2="1.29" y2="277.55"/><line class="cls-9" x1="2.26" y1="276.62" x2="2.36" y2="276.51"/><line class="cls-9" x1="3.22" y1="275.65" x2="8.06" y2="270.81"/><line class="cls-9" x1="0.5" y1="286.12" x2="5.16" y2="281.42"/><line class="cls-9" x1="6.13" y1="280.45" x2="6.2" y2="280.38"/><line class="cls-9" x1="7.1" y1="279.49" x2="8.96" y2="277.66"/><line class="cls-9" x1="0.5" y1="293.83" x2="2.26" y2="292.07"/><line class="cls-9" x1="3.22" y1="291.1" x2="3.3" y2="290.99"/><line class="cls-9" x1="4.19" y1="290.13" x2="8.96" y2="285.37"/><line class="cls-9" x1="5.2" y1="296.84" x2="6.13" y2="295.9"/><line class="cls-9" x1="7.1" y1="294.94" x2="7.17" y2="294.87"/><line class="cls-9" x1="8.06" y1="293.97" x2="8.96" y2="293.11"/><polyline class="cls-9" points="8.96 215.57 0.5 215.57 0.5 296.84 8.96 296.84 8.96 215.57"/><line class="cls-9" x1="144.79" y1="60.7" x2="145.72" y2="59.73"/><line class="cls-9" x1="144.79" y1="68.41" x2="153.25" y2="59.95"/><line class="cls-9" x1="144.79" y1="76.15" x2="153.25" y2="67.66"/><line class="cls-9" x1="144.79" y1="83.86" x2="153.25" y2="75.4"/><line class="cls-9" x1="144.79" y1="91.6" x2="153.25" y2="83.11"/><line class="cls-9" x1="144.79" y1="99.31" x2="153.25" y2="90.85"/><line class="cls-9" x1="144.79" y1="107.05" x2="153.25" y2="98.59"/><line class="cls-9" x1="144.79" y1="114.76" x2="153.25" y2="106.3"/><line class="cls-9" x1="144.79" y1="122.51" x2="153.25" y2="114.05"/><line class="cls-9" x1="144.79" y1="130.21" x2="153.25" y2="121.75"/><line class="cls-9" x1="144.79" y1="137.96" x2="153.25" y2="129.5"/><line class="cls-9" x1="144.79" y1="145.66" x2="153.25" y2="137.2"/><line class="cls-9" x1="144.79" y1="153.41" x2="153.25" y2="144.95"/><line class="cls-9" x1="144.79" y1="161.11" x2="153.25" y2="152.65"/><line class="cls-9" x1="144.79" y1="168.86" x2="153.25" y2="160.4"/><line class="cls-9" x1="144.79" y1="176.57" x2="153.25" y2="168.1"/><line class="cls-9" x1="144.79" y1="184.31" x2="153.25" y2="175.85"/><line class="cls-9" x1="144.79" y1="192.05" x2="153.25" y2="183.56"/><line class="cls-9" x1="144.79" y1="199.76" x2="153.25" y2="191.3"/><line class="cls-9" x1="144.79" y1="207.5" x2="153.25" y2="199.01"/><line class="cls-9" x1="144.79" y1="215.21" x2="153.25" y2="206.75"/><line class="cls-9" x1="144.79" y1="222.95" x2="153.25" y2="214.46"/><line class="cls-9" x1="144.79" y1="230.66" x2="153.25" y2="222.2"/><line class="cls-9" x1="144.79" y1="238.4" x2="153.25" y2="229.91"/><line class="cls-9" x1="144.79" y1="246.11" x2="153.25" y2="237.65"/><line class="cls-9" x1="144.79" y1="253.85" x2="153.25" y2="245.36"/><line class="cls-9" x1="144.79" y1="261.56" x2="153.25" y2="253.1"/><line class="cls-9" x1="144.79" y1="269.31" x2="153.25" y2="260.84"/><line class="cls-9" x1="144.79" y1="277.01" x2="153.25" y2="268.55"/><line class="cls-9" x1="144.79" y1="284.76" x2="153.25" y2="276.3"/><line class="cls-9" x1="144.79" y1="292.46" x2="153.25" y2="284"/><line class="cls-9" x1="148.12" y1="296.84" x2="153.25" y2="291.75"/><line class="cls-9" x1="144.79" y1="64.54" x2="149.06" y2="60.27"/><line class="cls-9" x1="144.79" y1="72.28" x2="146.15" y2="70.88"/><line class="cls-9" x1="147.12" y1="69.92" x2="147.23" y2="69.84"/><line class="cls-9" x1="148.09" y1="68.95" x2="152.93" y2="64.14"/><line class="cls-9" x1="145.22" y1="79.59" x2="150.02" y2="74.76"/><line class="cls-9" x1="150.99" y1="73.79" x2="151.06" y2="73.72"/><line class="cls-9" x1="151.96" y1="72.82" x2="153.25" y2="71.53"/><line class="cls-9" x1="144.79" y1="87.73" x2="147.12" y2="85.37"/><line class="cls-9" x1="148.09" y1="84.4" x2="148.2" y2="84.33"/><line class="cls-9" x1="149.06" y1="83.43" x2="153.25" y2="79.27"/><line class="cls-9" x1="145.22" y1="95.05" x2="145.29" y2="94.94"/><line class="cls-9" x1="146.15" y1="94.08" x2="150.99" y2="89.24"/><line class="cls-9" x1="151.96" y1="88.27" x2="152.03" y2="88.2"/><line class="cls-9" x1="152.93" y1="87.3" x2="153.25" y2="86.98"/><line class="cls-9" x1="144.79" y1="103.18" x2="148.09" y2="99.85"/><line class="cls-9" x1="149.06" y1="98.88" x2="149.16" y2="98.81"/><line class="cls-9" x1="150.02" y1="97.95" x2="153.25" y2="94.72"/><line class="cls-9" x1="144.79" y1="110.89" x2="145.22" y2="110.5"/><line class="cls-9" x1="146.15" y1="109.53" x2="146.26" y2="109.46"/><line class="cls-9" x1="147.12" y1="108.56" x2="151.96" y2="103.72"/><line class="cls-9" x1="152.93" y1="102.75" x2="153" y2="102.68"/><line class="cls-9" x1="144.79" y1="118.63" x2="149.06" y2="114.37"/><line class="cls-9" x1="150.02" y1="113.4" x2="150.1" y2="113.29"/><line class="cls-9" x1="150.99" y1="112.43" x2="153.25" y2="110.17"/><line class="cls-9" x1="144.79" y1="126.38" x2="146.15" y2="124.98"/><line class="cls-9" x1="147.12" y1="124.01" x2="147.23" y2="123.94"/><line class="cls-9" x1="148.09" y1="123.04" x2="152.93" y2="118.2"/><line class="cls-9" x1="145.22" y1="133.65" x2="150.02" y2="128.85"/><line class="cls-9" x1="150.99" y1="127.88" x2="151.06" y2="127.78"/><line class="cls-9" x1="151.96" y1="126.91" x2="153.25" y2="125.62"/><line class="cls-9" x1="144.79" y1="141.83" x2="147.12" y2="139.46"/><line class="cls-9" x1="148.09" y1="138.49" x2="148.2" y2="138.42"/><line class="cls-9" x1="149.06" y1="137.53" x2="153.25" y2="133.33"/><line class="cls-9" x1="145.22" y1="149.11" x2="145.29" y2="149.03"/><line class="cls-9" x1="146.15" y1="148.14" x2="150.99" y2="143.33"/><line class="cls-9" x1="151.96" y1="142.37" x2="152.03" y2="142.29"/><line class="cls-9" x1="152.93" y1="141.4" x2="153.25" y2="141.08"/><line class="cls-9" x1="144.79" y1="157.28" x2="148.09" y2="153.94"/><line class="cls-9" x1="149.06" y1="152.98" x2="149.16" y2="152.91"/><line class="cls-9" x1="150.02" y1="152.01" x2="153.25" y2="148.78"/><line class="cls-9" x1="144.79" y1="164.99" x2="145.22" y2="164.56"/><line class="cls-9" x1="146.15" y1="163.62" x2="146.26" y2="163.52"/><line class="cls-9" x1="147.12" y1="162.66" x2="151.96" y2="157.82"/><line class="cls-9" x1="152.93" y1="156.85" x2="153" y2="156.78"/><line class="cls-9" x1="144.79" y1="172.73" x2="149.06" y2="168.43"/><line class="cls-9" x1="150.02" y1="167.46" x2="150.1" y2="167.39"/><line class="cls-9" x1="150.99" y1="166.49" x2="153.25" y2="164.23"/><line class="cls-9" x1="144.79" y1="180.44" x2="146.15" y2="179.07"/><line class="cls-9" x1="147.12" y1="178.11" x2="147.23" y2="178"/><line class="cls-9" x1="148.09" y1="177.14" x2="152.93" y2="172.3"/><line class="cls-9" x1="145.22" y1="187.75" x2="150.02" y2="182.91"/><line class="cls-9" x1="150.99" y1="181.94" x2="151.06" y2="181.87"/><line class="cls-9" x1="151.96" y1="180.97" x2="153.25" y2="179.72"/><line class="cls-9" x1="144.79" y1="195.89" x2="147.12" y2="193.56"/><line class="cls-9" x1="148.09" y1="192.59" x2="148.2" y2="192.48"/><line class="cls-9" x1="149.06" y1="191.62" x2="153.25" y2="187.43"/><line class="cls-9" x1="145.22" y1="203.2" x2="145.29" y2="203.13"/><line class="cls-9" x1="146.15" y1="202.23" x2="150.99" y2="197.39"/><line class="cls-9" x1="151.96" y1="196.46" x2="152.03" y2="196.35"/><line class="cls-9" x1="152.93" y1="195.49" x2="153.25" y2="195.17"/><line class="cls-9" x1="144.79" y1="211.34" x2="148.09" y2="208.04"/><line class="cls-9" x1="149.06" y1="207.07" x2="149.16" y2="207"/><line class="cls-9" x1="150.02" y1="206.1" x2="153.25" y2="202.88"/><line class="cls-9" x1="144.79" y1="219.08" x2="145.22" y2="218.65"/><line class="cls-9" x1="146.15" y1="217.68" x2="146.26" y2="217.61"/><line class="cls-9" x1="147.12" y1="216.72" x2="151.96" y2="211.91"/><line class="cls-9" x1="152.93" y1="210.94" x2="153" y2="210.84"/><line class="cls-9" x1="144.79" y1="226.79" x2="149.06" y2="222.52"/><line class="cls-9" x1="150.02" y1="221.55" x2="150.1" y2="221.48"/><line class="cls-9" x1="150.99" y1="220.59" x2="153.25" y2="218.33"/><line class="cls-9" x1="144.79" y1="234.53" x2="146.15" y2="233.13"/><line class="cls-9" x1="147.12" y1="232.17" x2="147.23" y2="232.09"/><line class="cls-9" x1="148.09" y1="231.2" x2="152.93" y2="226.39"/><line class="cls-9" x1="145.22" y1="241.85" x2="150.02" y2="237.01"/><line class="cls-9" x1="150.99" y1="236.04" x2="151.06" y2="235.97"/><line class="cls-9" x1="151.96" y1="235.07" x2="153.25" y2="233.78"/><line class="cls-9" x1="144.79" y1="249.98" x2="147.12" y2="247.62"/><line class="cls-9" x1="148.09" y1="246.65" x2="148.2" y2="246.58"/><line class="cls-9" x1="149.06" y1="245.68" x2="153.25" y2="241.52"/><line class="cls-9" x1="145.22" y1="257.3" x2="145.29" y2="257.22"/><line class="cls-9" x1="146.15" y1="256.33" x2="150.99" y2="251.49"/><line class="cls-9" x1="151.96" y1="250.52" x2="152.03" y2="250.45"/><line class="cls-9" x1="152.93" y1="249.55" x2="153.25" y2="249.23"/><line class="cls-9" x1="144.79" y1="265.43" x2="148.09" y2="262.1"/><line class="cls-9" x1="149.06" y1="261.17" x2="149.16" y2="261.06"/><line class="cls-9" x1="150.02" y1="260.2" x2="153.25" y2="256.97"/><line class="cls-9" x1="144.79" y1="273.18" x2="145.22" y2="272.75"/><line class="cls-9" x1="146.15" y1="271.78" x2="146.26" y2="271.71"/><line class="cls-9" x1="147.12" y1="270.81" x2="151.96" y2="265.97"/><line class="cls-9" x1="152.93" y1="265" x2="153" y2="264.93"/><line class="cls-9" x1="144.79" y1="280.88" x2="149.06" y2="276.62"/><line class="cls-9" x1="150.02" y1="275.65" x2="150.1" y2="275.54"/><line class="cls-9" x1="150.99" y1="274.68" x2="153.25" y2="272.42"/><line class="cls-9" x1="144.79" y1="288.63" x2="146.15" y2="287.23"/><line class="cls-9" x1="147.12" y1="286.26" x2="147.23" y2="286.19"/><line class="cls-9" x1="148.09" y1="285.29" x2="152.93" y2="280.45"/><line class="cls-9" x1="145.22" y1="295.9" x2="150.02" y2="291.1"/><line class="cls-9" x1="150.99" y1="290.13" x2="151.06" y2="290.06"/><line class="cls-9" x1="151.96" y1="289.17" x2="153.25" y2="287.87"/><line class="cls-9" x1="152" y1="296.84" x2="153.25" y2="295.58"/><polyline class="cls-9" points="144.79 59.73 144.79 208.29 144.79 218.76 144.79 296.84 153.25 296.84 153.25 59.73 144.79 59.73"/><line class="cls-9" x1="153.25" y1="288.38" x2="153.25" y2="296.84"/><line class="cls-9" x1="0.5" y1="212.34" x2="0.5" y2="215.57"/><line class="cls-9" x1="35.38" y1="220.8" x2="8.96" y2="220.8"/><line class="cls-9" x1="26.92" y1="212.34" x2="0.5" y2="212.34"/><line class="cls-9" x1="35.38" y1="68.2" x2="26.92" y2="68.2"/><line class="cls-9" x1="35.38" y1="68.2" x2="35.38" y2="220.8"/><line class="cls-9" x1="26.92" y1="68.2" x2="26.92" y2="212.34"/><line class="cls-9" x1="70.62" y1="288.38" x2="70.62" y2="291.78"/><line class="cls-9" x1="70.62" y1="294.15" x2="70.62" y2="296.84"/><line class="cls-9" x1="144.79" y1="296.84" x2="144.79" y2="288.38"/><line class="cls-9" x1="35.02" y1="296.84" x2="35.02" y2="294.15"/><line class="cls-9" x1="35.02" y1="291.78" x2="35.02" y2="288.38"/><line class="cls-9" x1="70.62" y1="288.38" x2="144.79" y2="288.38"/><line class="cls-9" x1="8.96" y1="288.38" x2="35.02" y2="288.38"/><line class="cls-9" x1="70.62" y1="296.84" x2="144.79" y2="296.84"/><line class="cls-9" x1="8.96" y1="296.84" x2="35.02" y2="296.84"/><polyline class="cls-9" points="65.17 61.53 65.17 69.56 126.15 69.56 126.15 61.53"/><line class="cls-11" x1="104.64" y1="59.02" x2="68.36" y2="59.02"/><line class="cls-11" x1="68.36" y1="59.59" x2="104.64" y2="59.59"/><polyline class="cls-11" points="68.36 59.59 68.36 59.02 67.86 59.02 67.86 59.59 68.36 59.59"/><polyline class="cls-11" points="104.68 59.02 104.68 59.59 105.18 59.59 105.18 59.02 104.68 59.02"/><line class="cls-11" x1="121.95" y1="59.59" x2="108.01" y2="59.59"/><line class="cls-11" x1="108.01" y1="60.13" x2="121.95" y2="60.13"/><polyline class="cls-11" points="121.95 59.59 121.95 60.13 122.46 60.13 122.46 59.59 121.95 59.59"/><polyline class="cls-11" points="108.01 60.13 108.01 59.59 107.47 59.59 107.47 60.13 108.01 60.13"/><polyline class="cls-11" points="66.03 60.85 68.4 60.85 68.4 59.7 67.72 59.7 67.72 58.91 68.4 58.91 68.4 58.23 66.03 58.23 66.03 60.85"/><line class="cls-11" x1="104.64" y1="60.85" x2="68.4" y2="60.85"/><line class="cls-11" x1="68.4" y1="59.7" x2="104.64" y2="59.7"/><line class="cls-11" x1="104.64" y1="58.91" x2="68.4" y2="58.91"/><line class="cls-11" x1="68.4" y1="58.23" x2="104.64" y2="58.23"/><polyline class="cls-11" points="122.92 58.23 122.92 58.7 123.6 58.7 123.6 60.85 125.33 60.85 125.33 58.23 122.92 58.23"/><polyline class="cls-11" points="107.01 58.7 107.01 58.23 104.64 58.23 104.64 60.85 106.33 60.85 106.33 58.7 107.01 58.7"/><line class="cls-11" x1="122.92" y1="58.23" x2="107.01" y2="58.23"/><line class="cls-11" x1="107.01" y1="58.7" x2="122.92" y2="58.7"/><line class="cls-11" x1="106.32" y1="60.85" x2="106.47" y2="60.85"/><line class="cls-11" x1="123.46" y1="60.85" x2="123.6" y2="60.85"/><line class="cls-11" x1="107.47" y1="60.24" x2="107.47" y2="60.13"/><polyline class="cls-11" points="107.47 59.59 107.47 59.45 108.15 59.45 108.15 58.77 106.47 58.77 106.47 60.92 105.79 60.92 105.79 61.42 108.15 61.42 108.15 60.24 107.47 60.24"/><line class="cls-11" x1="122.46" y1="59.45" x2="122.46" y2="59.59"/><polyline class="cls-11" points="122.46 60.13 122.46 60.24 121.78 60.24 121.78 61.42 124.14 61.42 124.14 60.92 123.46 60.92 123.46 58.77 121.78 58.77 121.78 59.45 122.46 59.45"/><line class="cls-11" x1="108.15" y1="59.45" x2="121.78" y2="59.45"/><line class="cls-11" x1="121.78" y1="60.24" x2="108.15" y2="60.24"/><line class="cls-11" x1="108.15" y1="61.42" x2="121.78" y2="61.42"/><line class="cls-11" x1="121.78" y1="58.77" x2="108.15" y2="58.77"/><polyline class="cls-9" points="41.15 275.87 40.47 277.01 68.07 292.93 68.76 291.78 41.15 275.87"/><polyline class="cls-9" points="69.94 294.15 69.94 291.78 68.76 291.78 68.76 293.11 68.4 293.11 68.4 294.15 69.94 294.15"/><polyline class="cls-9" points="35.7 294.15 37.24 294.15 37.24 293.11 36.89 293.11 36.89 291.78 35.7 291.78 35.7 294.15"/><polyline class="cls-9" points="124.46 209.19 124.46 217.07 124.46 209.19 124.46 217.07 124.46 209.19 124.46 217.07 124.46 209.19 124.46 217.07 124.46 209.19 124.46 217.07 124.46 209.19 124.46 217.07 124.46 209.19 124.46 217.07 124.46 209.19 124.46 217.07 124.46 209.19 124.46 217.07 124.46 209.19"/><polyline class="cls-9" points="124.46 209.19 124.46 217.07 124.46 209.19 124.46 217.07 124.46 209.19 124.46 217.07 124.46 209.19"/><path class="cls-9" d="M100.25,243.5l.17.07" transform="translate(0 -28.34)"/><path class="cls-9" d="M99.21,242.36l.06.16" transform="translate(0 -28.34)"/><path class="cls-9" d="M99.27,234.71l-.06.17" transform="translate(0 -28.34)"/><path class="cls-9" d="M100.42,233.67l-.17.06" transform="translate(0 -28.34)"/><path class="cls-9" d="M121.61,233.73l-.16-.06" transform="translate(0 -28.34)"/><path class="cls-9" d="M122.66,234.88c0-.06,0-.11-.07-.17" transform="translate(0 -28.34)"/><path class="cls-9" d="M122.59,242.52l.07-.16" transform="translate(0 -28.34)"/><path class="cls-9" d="M121.45,243.57l.16-.07" transform="translate(0 -28.34)"/><line class="cls-9" x1="97.36" y1="208.54" x2="99.16" y2="206.75"/><line class="cls-9" x1="100.59" y1="205.32" x2="102.38" y2="203.52"/><line class="cls-9" x1="97.36" y1="216.29" x2="99.33" y2="214.31"/><line class="cls-9" x1="108.4" y1="205.21" x2="110.09" y2="203.52"/><line class="cls-9" x1="102.78" y1="210.87" x2="104.46" y2="209.15"/><line class="cls-9" x1="104.28" y1="217.07" x2="105.97" y2="215.39"/><line class="cls-9" x1="116.15" y1="205.21" x2="117.83" y2="203.52"/><line class="cls-9" x1="112.02" y1="217.07" x2="113.71" y2="215.39"/><line class="cls-9" x1="122.6" y1="206.46" x2="124.46" y2="204.63"/><line class="cls-9" x1="117.33" y1="211.73" x2="119.05" y2="210.05"/><line class="cls-9" x1="119.73" y1="217.07" x2="121.74" y2="215.1"/><line class="cls-9" x1="122.46" y1="214.35" x2="124.46" y2="212.34"/><line class="cls-9" x1="97.36" y1="204.67" x2="98.51" y2="203.52"/><line class="cls-9" x1="97.36" y1="212.41" x2="97.86" y2="211.91"/><line class="cls-9" x1="98.83" y1="210.94" x2="98.94" y2="210.84"/><line class="cls-9" x1="102.78" y1="207" x2="104.64" y2="205.14"/><line class="cls-9" x1="105.61" y1="204.17" x2="105.68" y2="204.1"/><line class="cls-9" x1="100.41" y1="217.07" x2="101.74" y2="215.75"/><line class="cls-9" x1="112.28" y1="205.21" x2="113.96" y2="203.52"/><line class="cls-9" x1="102.7" y1="214.78" x2="102.78" y2="214.71"/><line class="cls-9" x1="103.67" y1="213.81" x2="104.46" y2="213.02"/><line class="cls-9" x1="108.15" y1="217.07" x2="109.84" y2="215.39"/><line class="cls-9" x1="120.09" y1="205.14" x2="120.16" y2="205.06"/><line class="cls-9" x1="121.06" y1="204.17" x2="121.7" y2="203.52"/><line class="cls-9" x1="117.33" y1="207.9" x2="119.05" y2="206.18"/><line class="cls-9" x1="115.86" y1="217.07" x2="116.22" y2="216.72"/><line class="cls-9" x1="117.19" y1="215.75" x2="117.26" y2="215.68"/><line class="cls-9" x1="118.15" y1="214.78" x2="119.05" y2="213.92"/><line class="cls-9" x1="122.78" y1="210.19" x2="122.99" y2="209.98"/><line class="cls-9" x1="123.96" y1="209.01" x2="124.03" y2="208.9"/><line class="cls-9" x1="123.6" y1="217.07" x2="124.46" y2="216.21"/><polyline class="cls-9" points="124.46 203.52 111.31 203.52 97.36 203.52 97.36 211.45 97.36 217.07 124.46 217.07 124.46 208.29 124.46 203.52"/><line class="cls-9" x1="117.33" y1="206.07" x2="117.33" y2="214.53"/><path class="cls-9" d="M116.52,243.69a.85.85,0,0,0,.85-.84" transform="translate(0 -28.34)"/><line class="cls-9" x1="116.51" y1="215.39" x2="105.32" y2="215.39"/><path class="cls-9" d="M104.61,243.27a.84.84,0,0,0,.73.42" transform="translate(0 -28.34)"/><path class="cls-9" d="M104.5,242.85a.91.91,0,0,0,.11.42" transform="translate(0 -28.34)"/><line class="cls-9" x1="104.46" y1="214.53" x2="104.46" y2="206.07"/><path class="cls-9" d="M104.61,234a.92.92,0,0,0-.11.43" transform="translate(0 -28.34)"/><path class="cls-9" d="M105.34,233.54a.84.84,0,0,0-.73.42" transform="translate(0 -28.34)"/><line class="cls-9" x1="105.32" y1="205.21" x2="116.51" y2="205.21"/><path class="cls-9" d="M117.37,234.39a.85.85,0,0,0-.85-.85" transform="translate(0 -28.34)"/><line class="cls-9" x1="102.78" y1="206.07" x2="102.78" y2="214.53"/><path class="cls-9" d="M102,243.69a.85.85,0,0,0,.84-.84" transform="translate(0 -28.34)"/><line class="cls-9" x1="101.95" y1="215.39" x2="101.09" y2="215.39"/><path class="cls-9" d="M99.08,241.66a2,2,0,0,0,2,2" transform="translate(0 -28.34)"/><line class="cls-9" x1="99.05" y1="213.35" x2="99.05" y2="207.25"/><path class="cls-9" d="M101.11,233.54a2,2,0,0,0-2,2" transform="translate(0 -28.34)"/><line class="cls-9" x1="101.09" y1="205.21" x2="101.95" y2="205.21"/><path class="cls-9" d="M102.81,234.39a.85.85,0,0,0-.84-.85" transform="translate(0 -28.34)"/><line class="cls-9" x1="122.78" y1="207.25" x2="122.78" y2="213.35"/><path class="cls-9" d="M120.75,243.69a2,2,0,0,0,2-2" transform="translate(0 -28.34)"/><line class="cls-9" x1="120.74" y1="215.39" x2="119.88" y2="215.39"/><path class="cls-9" d="M119.05,242.85a.85.85,0,0,0,.84.84" transform="translate(0 -28.34)"/><line class="cls-9" x1="119.05" y1="214.53" x2="119.05" y2="206.07"/><path class="cls-9" d="M119.89,233.54a.85.85,0,0,0-.84.85" transform="translate(0 -28.34)"/><line class="cls-9" x1="119.88" y1="205.21" x2="120.74" y2="205.21"/><path class="cls-9" d="M122.78,235.57a2,2,0,0,0-2-2" transform="translate(0 -28.34)"/></svg>