<svg id="_623" data-name="623" xmlns="http://www.w3.org/2000/svg" viewBox="0 0 414.01 607.01"><defs><style>.cls-1,.cls-5{fill:none;stroke-linecap:round;stroke-linejoin:round;}.cls-1{stroke:#999;stroke-width:0.5px;}.cls-2{isolation:isolate;font-size:12px;fill:#999;}.cls-2,.cls-4,.cls-6{font-family:PTSans-Regular, PT Sans;}.cls-3{letter-spacing:-0.01em;}.cls-4{font-size:24px;}.cls-5{stroke:#000;stroke-width:0.75px;}.cls-6{font-size:20px;}</style></defs><title>4floor_623flat</title><line class="cls-1" x1="191.49" y1="595.67" x2="191.49" y2="604.47"/><polyline class="cls-1" points="187.89 601.17 191.39 604.67 194.89 601.17"/><text class="cls-2" transform="translate(200.71 604.07)"><tspan class="cls-3">у</tspan><tspan x="5.42" y="0">лица</tspan></text><text class="cls-4" transform="translate(287.71 370.63)">1K</text><text class="cls-4" transform="translate(272.84 403.67)">38.69</text><text class="cls-4" transform="translate(269.68 338.09)">№623</text><polyline class="cls-5" points="261.04 412.03 261.04 314.83 342.1 314.83 342.1 412.03"/><line class="cls-5" x1="261.04" y1="347.29" x2="342.1" y2="347.29"/><line class="cls-5" x1="261.04" y1="412.03" x2="342.1" y2="412.03"/><line class="cls-5" x1="261.04" y1="379.75" x2="342.1" y2="379.75"/><text class="cls-6" transform="translate(72.37 471.94)">12.68</text><text class="cls-6" transform="translate(283.8 471.94)">16.08</text><text class="cls-6" transform="translate(173.51 168.4)">4.34</text><text class="cls-6" transform="translate(301.57 86.25)">5.59</text><line class="cls-5" x1="51.75" y1="205.44" x2="51.75" y2="256.23"/><line class="cls-5" x1="51.75" y1="256.23" x2="16.83" y2="256.23"/><line class="cls-5" x1="16.83" y1="256.23" x2="16.83" y2="205.44"/><line class="cls-5" x1="16.83" y1="205.44" x2="51.75" y2="205.44"/><line class="cls-5" x1="48.58" y1="208.62" x2="48.58" y2="235.98"/><line class="cls-5" x1="48.58" y1="235.98" x2="23.18" y2="235.98"/><line class="cls-5" x1="23.18" y1="235.98" x2="23.18" y2="208.62"/><line class="cls-5" x1="23.18" y1="208.62" x2="48.58" y2="208.62"/><line class="cls-5" x1="48.26" y1="240.42" x2="48.26" y2="250.52"/><line class="cls-5" x1="44.07" y1="240.42" x2="44.07" y2="250.52"/><line class="cls-5" x1="39.88" y1="240.42" x2="39.88" y2="250.52"/><line class="cls-5" x1="35.69" y1="240.42" x2="35.69" y2="250.52"/><line class="cls-5" x1="31.5" y1="240.42" x2="31.5" y2="250.52"/><line class="cls-5" x1="27.31" y1="240.42" x2="27.31" y2="250.52"/><line class="cls-5" x1="397.34" y1="150.59" x2="397.34" y2="120.37"/><line class="cls-5" x1="393.74" y1="116.82" x2="315.17" y2="116.82"/><line class="cls-5" x1="393.74" y1="154.14" x2="315.17" y2="154.14"/><line class="cls-5" x1="293" y1="113.26" x2="400.93" y2="113.26"/><line class="cls-5" x1="293" y1="157.7" x2="400.93" y2="157.7"/><line class="cls-5" x1="293" y1="157.7" x2="293" y2="113.26"/><line class="cls-5" x1="400.93" y1="157.7" x2="400.93" y2="113.26"/><line class="cls-5" x1="327.8" y1="147.96" x2="389.28" y2="147.96"/><line class="cls-5" x1="391.08" y1="146.18" x2="391.08" y2="124.78"/><line class="cls-5" x1="327.8" y1="123" x2="389.28" y2="123"/><line class="cls-5" x1="378.45" y1="136.57" x2="378.45" y2="138.76"/><line class="cls-5" x1="379.55" y1="135.48" x2="381.77" y2="135.48"/><line class="cls-5" x1="378.45" y1="134.39" x2="378.45" y2="132.19"/><line class="cls-5" x1="377.35" y1="135.48" x2="375.12" y2="135.48"/><path class="cls-5" d="M315.17,154.15a18.67,18.67,0,1,1,0-37.33"/><path class="cls-5" d="M393.74,116.82a3.57,3.57,0,0,1,3.59,3.55"/><path class="cls-5" d="M397.34,150.59a3.57,3.57,0,0,1-3.6,3.55"/><path class="cls-5" d="M378.45,133.62a1.86,1.86,0,1,0,1.88,1.86,1.87,1.87,0,0,0-1.88-1.86"/><path class="cls-5" d="M327.8,148a12.48,12.48,0,1,1,0-25"/><path class="cls-5" d="M391.08,146.19a1.79,1.79,0,0,1-1.8,1.77"/><path class="cls-5" d="M389.28,123a1.79,1.79,0,0,1,1.8,1.78"/><path class="cls-5" d="M378.45,133a2.48,2.48,0,1,0,2.51,2.48,2.49,2.49,0,0,0-2.51-2.48"/><line class="cls-5" x1="275.44" y1="14.41" x2="309.72" y2="14.41"/><line class="cls-5" x1="309.72" y1="14.41" x2="309.72" y2="28.92"/><line class="cls-5" x1="275.44" y1="14.41" x2="275.44" y2="28.92"/><line class="cls-5" x1="297.98" y1="14.41" x2="287.18" y2="14.41"/><line class="cls-5" x1="295.46" y1="26.05" x2="293.63" y2="26.05"/><line class="cls-5" x1="292.57" y1="23.16" x2="292.57" y2="24.99"/><line class="cls-5" x1="291.51" y1="26.05" x2="289.68" y2="26.05"/><line class="cls-5" x1="292.57" y1="27.11" x2="292.57" y2="28.94"/><path class="cls-5" d="M277.55,29.81a15.29,15.29,0,0,1,5.92-7.22"/><path class="cls-5" d="M283.47,22.59a15.32,15.32,0,0,1,7.88-2.19c.41,0,.82,0,1.23.05"/><path class="cls-5" d="M301.69,22.59a15.29,15.29,0,0,1,5.92,7.22"/><path class="cls-5" d="M292.58,20.45c.41,0,.82-.05,1.22-.05a15.33,15.33,0,0,1,7.89,2.19"/><path class="cls-5" d="M291.38,40.4A28,28,0,0,1,281,37.57"/><path class="cls-5" d="M309.72,28.92c0,.12,0,.25,0,.37a8.72,8.72,0,0,1-3.27,6.81"/><path class="cls-5" d="M293.78,40.4c-.4,0-.8.05-1.2.05s-.8,0-1.2-.05"/><path class="cls-5" d="M283,23.15a61.61,61.61,0,0,1,9.6-.74,62.68,62.68,0,0,1,9.58.73"/><path class="cls-5" d="M304,17.15a21.54,21.54,0,0,1,4.87,13.64c0,.13,0,.25,0,.37"/><path class="cls-5" d="M292.58,15.11h.32a43.27,43.27,0,0,1,9.49,1.06"/><path class="cls-5" d="M302.39,16.17a2.86,2.86,0,0,1,1.58,1"/><path class="cls-5" d="M292.58,16.46a72.89,72.89,0,0,1,9.67.7"/><path class="cls-5" d="M304,18.1a19.32,19.32,0,0,1,4.85,12.81,2,2,0,0,1,0,.25"/><path class="cls-5" d="M302.25,17.16a2.84,2.84,0,0,1,1.74.94"/><path class="cls-5" d="M276.32,31.14v-.23a19.38,19.38,0,0,1,4.86-12.83"/><path class="cls-5" d="M276.32,31.14V30.8a21.58,21.58,0,0,1,4.88-13.67"/><path class="cls-5" d="M282.93,17.15a72.64,72.64,0,0,1,9.67-.69"/><path class="cls-5" d="M282.78,16.16a42.79,42.79,0,0,1,9.43-1.05h.39"/><path class="cls-5" d="M281.18,18.08a2.82,2.82,0,0,1,1.75-.93"/><path class="cls-5" d="M281.2,17.13a2.88,2.88,0,0,1,1.58-1"/><path class="cls-5" d="M278.69,36.1a8.74,8.74,0,0,1-3.26-6.81c0-.12,0-.25,0-.37"/><path class="cls-5" d="M281,37.57a13.64,13.64,0,0,1-2.28-1.47"/><path class="cls-5" d="M306.46,36.1a13.56,13.56,0,0,1-2.27,1.47"/><path class="cls-5" d="M304.19,37.57a28,28,0,0,1-10.41,2.83"/><path class="cls-5" d="M297.29,38a20.13,20.13,0,0,1-9.43,0"/><path class="cls-5" d="M279.31,34.06a5.15,5.15,0,0,1-1.78-3.89c0-.12,0-.24,0-.36"/><path class="cls-5" d="M287.86,38a18.71,18.71,0,0,1-8.55-3.92"/><path class="cls-5" d="M307.61,29.81c0,.12,0,.24,0,.36a5.15,5.15,0,0,1-1.78,3.89"/><path class="cls-5" d="M305.84,34.06A18.61,18.61,0,0,1,297.29,38"/><path class="cls-5" d="M294.8,26.05a2.23,2.23,0,1,0-2.23,2.22,2.22,2.22,0,0,0,2.23-2.22"/><path class="cls-5" d="M294.16,26.05a1.59,1.59,0,1,0-1.59,1.59,1.59,1.59,0,0,0,1.59-1.59"/><line class="cls-5" x1="348.9" y1="24.04" x2="348.9" y2="46.11"/><line class="cls-5" x1="349.83" y1="14.42" x2="326.34" y2="14.42"/><line class="cls-5" x1="349.83" y1="14.42" x2="349.83" y2="22.7"/><line class="cls-5" x1="338.08" y1="27.91" x2="329.37" y2="27.91"/><line class="cls-5" x1="348.9" y1="46.08" x2="346.79" y2="27.91"/><line class="cls-5" x1="338.08" y1="27.91" x2="346.79" y2="27.91"/><line class="cls-5" x1="327.27" y1="46.08" x2="329.37" y2="27.91"/><line class="cls-5" x1="348.34" y1="46.08" x2="346.24" y2="27.91"/><line class="cls-5" x1="327.82" y1="46.08" x2="329.92" y2="27.91"/><line class="cls-5" x1="327.27" y1="24.02" x2="327.27" y2="46.11"/><line class="cls-5" x1="326.34" y1="14.42" x2="326.34" y2="22.7"/><line class="cls-5" x1="348.9" y1="46.08" x2="348.59" y2="48.53"/><line class="cls-5" x1="348.59" y1="48.53" x2="347.67" y2="50.84"/><line class="cls-5" x1="347.67" y1="50.84" x2="346.19" y2="52.87"/><line class="cls-5" x1="346.19" y1="52.87" x2="344.24" y2="54.5"/><line class="cls-5" x1="344.24" y1="54.5" x2="341.92" y2="55.65"/><line class="cls-5" x1="341.92" y1="55.65" x2="339.39" y2="56.24"/><line class="cls-5" x1="339.39" y1="56.24" x2="336.78" y2="56.24"/><line class="cls-5" x1="336.78" y1="56.24" x2="334.24" y2="55.65"/><line class="cls-5" x1="334.24" y1="55.65" x2="331.93" y2="54.5"/><line class="cls-5" x1="331.93" y1="54.5" x2="329.98" y2="52.87"/><line class="cls-5" x1="329.98" y1="52.87" x2="328.49" y2="50.84"/><line class="cls-5" x1="328.49" y1="50.84" x2="327.57" y2="48.53"/><line class="cls-5" x1="327.57" y1="48.53" x2="327.27" y2="46.08"/><line class="cls-5" x1="348.34" y1="46.08" x2="348.05" y2="48.39"/><line class="cls-5" x1="348.05" y1="48.39" x2="347.17" y2="50.57"/><line class="cls-5" x1="347.17" y1="50.57" x2="345.76" y2="52.5"/><line class="cls-5" x1="345.76" y1="52.5" x2="343.91" y2="54.04"/><line class="cls-5" x1="343.91" y1="54.04" x2="341.72" y2="55.13"/><line class="cls-5" x1="341.72" y1="55.13" x2="339.32" y2="55.69"/><line class="cls-5" x1="339.32" y1="55.69" x2="336.84" y2="55.69"/><line class="cls-5" x1="336.84" y1="55.69" x2="334.44" y2="55.13"/><line class="cls-5" x1="334.44" y1="55.13" x2="332.25" y2="54.04"/><line class="cls-5" x1="332.25" y1="54.04" x2="330.4" y2="52.5"/><line class="cls-5" x1="330.4" y1="52.5" x2="328.99" y2="50.57"/><line class="cls-5" x1="328.99" y1="50.57" x2="328.12" y2="48.39"/><line class="cls-5" x1="328.12" y1="48.39" x2="327.82" y2="46.08"/><path class="cls-5" d="M348.61,24.08a97.49,97.49,0,0,1-10.53.57,100.05,100.05,0,0,1-10.52-.56"/><path class="cls-5" d="M349.83,22.7a1.38,1.38,0,0,1-1.22,1.38"/><path class="cls-5" d="M327.56,24.09a1.4,1.4,0,0,1-1.22-1.39"/><path class="cls-5" d="M339.22,19.64a1.14,1.14,0,1,0-1.14,1.17,1.15,1.15,0,0,0,1.14-1.17"/><line class="cls-5" x1="400.8" y1="98.65" x2="400.8" y2="60.56"/><line class="cls-5" x1="372.23" y1="98.65" x2="400.8" y2="98.65"/><line class="cls-5" x1="372.23" y1="60.56" x2="372.23" y2="98.65"/><line class="cls-5" x1="400.8" y1="60.56" x2="372.23" y2="60.56"/><line class="cls-5" x1="267.61" y1="0.38" x2="272.69" y2="0.38"/><line class="cls-5" x1="279.04" y1="119.1" x2="273.96" y2="119.1"/><line class="cls-5" x1="273.96" y1="124.18" x2="273.96" y2="119.1"/><line class="cls-5" x1="216.82" y1="124.18" x2="216.82" y2="119.1"/><polyline class="cls-5" points="216.82 119.1 219.25 119.1 219.25 124.18 216.82 124.18"/><line class="cls-5" x1="192.69" y1="263.85" x2="192.69" y2="311.47"/><line class="cls-5" x1="197.77" y1="311.47" x2="197.77" y2="263.85"/><line class="cls-5" x1="192.69" y1="311.47" x2="197.77" y2="311.47"/><line class="cls-5" x1="192.69" y1="447.97" x2="197.77" y2="447.97"/><line class="cls-5" x1="50.48" y1="200.36" x2="50.48" y2="124.18"/><line class="cls-5" x1="50.48" y1="124.18" x2="45.4" y2="124.18"/><line class="cls-5" x1="45.4" y1="124.18" x2="45.4" y2="163.54"/><line class="cls-5" x1="45.4" y1="168.62" x2="45.4" y2="200.36"/><line class="cls-5" x1="13.66" y1="168.62" x2="45.4" y2="168.62"/><line class="cls-5" x1="45.4" y1="163.54" x2="13.66" y2="163.54"/><line class="cls-5" x1="13.66" y1="163.54" x2="13.66" y2="168.62"/><line class="cls-5" x1="279.04" y1="164.17" x2="403.47" y2="164.17"/><line class="cls-5" x1="403.47" y1="164.17" x2="403.47" y2="159.1"/><line class="cls-5" x1="403.47" y1="159.1" x2="279.04" y2="159.1"/><line class="cls-5" x1="279.04" y1="205.44" x2="279.04" y2="164.17"/><line class="cls-5" x1="279.04" y1="159.1" x2="279.04" y2="119.1"/><line class="cls-5" x1="273.96" y1="124.18" x2="273.96" y2="200.36"/><line class="cls-5" x1="41.72" y1="205.44" x2="42.23" y2="204.94"/><line class="cls-5" x1="16.83" y1="200.71" x2="17.17" y2="200.36"/><line class="cls-5" x1="16.83" y1="202.9" x2="16.83" y2="200.36"/><line class="cls-5" x1="16.83" y1="205.44" x2="16.83" y2="202.9"/><line class="cls-5" x1="42.23" y1="202.9" x2="42.23" y2="200.36"/><line class="cls-5" x1="42.23" y1="205.44" x2="42.23" y2="202.9"/><line class="cls-5" x1="13.66" y1="205.44" x2="16.83" y2="205.44"/><line class="cls-5" x1="42.23" y1="205.44" x2="124.76" y2="205.44"/><line class="cls-5" x1="124.76" y1="200.36" x2="50.48" y2="200.36"/><line class="cls-5" x1="45.4" y1="200.36" x2="42.23" y2="200.36"/><line class="cls-5" x1="16.83" y1="200.36" x2="13.66" y2="200.36"/><line class="cls-5" x1="124.76" y1="205.44" x2="124.76" y2="200.36"/><line class="cls-5" x1="185.07" y1="205.44" x2="185.07" y2="200.36"/><polyline class="cls-5" points="185.07 200.36 182.97 200.36 182.97 205.44 185.07 205.44"/><line class="cls-5" x1="42.23" y1="205.44" x2="16.83" y2="205.44"/><line class="cls-5" x1="42.23" y1="200.36" x2="16.83" y2="200.36"/><path class="cls-5" d="M42.23,205.44a25.22,25.22,0,0,1-1.54,8.69"/><line class="cls-5" x1="16.83" y1="205.44" x2="40.69" y2="214.13"/><line class="cls-5" x1="42.23" y1="205.44" x2="42.23" y2="202.9"/><line class="cls-5" x1="42.23" y1="205.44" x2="42.23" y2="202.9"/><line class="cls-5" x1="42.23" y1="202.9" x2="42.23" y2="200.36"/><line class="cls-5" x1="16.83" y1="205.44" x2="16.83" y2="202.9"/><line class="cls-5" x1="16.83" y1="205.44" x2="16.83" y2="202.9"/><line class="cls-5" x1="16.83" y1="202.9" x2="16.83" y2="200.36"/><line class="cls-5" x1="258.09" y1="205.44" x2="279.04" y2="205.44"/><line class="cls-5" x1="273.96" y1="200.36" x2="258.09" y2="200.36"/><line class="cls-5" x1="258.09" y1="205.44" x2="258.09" y2="200.36"/><line class="cls-5" x1="197.77" y1="205.44" x2="197.77" y2="200.36"/><polyline class="cls-5" points="197.77 200.36 199.8 200.36 199.8 205.44 197.77 205.44"/><line class="cls-5" x1="404.62" y1="511.46" x2="407.42" y2="508.65"/><line class="cls-5" x1="403.47" y1="505.42" x2="405.75" y2="503.14"/><line class="cls-5" x1="403.47" y1="498.23" x2="404.09" y2="497.62"/><line class="cls-5" x1="408.21" y1="511.46" x2="408.25" y2="511.41"/><line class="cls-5" x1="404.24" y1="508.24" x2="406.59" y2="505.9"/><line class="cls-5" x1="404.24" y1="501.06" x2="404.24" y2="501.06"/><line class="cls-5" x1="403.47" y1="520.98" x2="403.47" y2="521.62"/><line class="cls-5" x1="403.47" y1="521.62" x2="411.33" y2="521.62"/><line class="cls-5" x1="153.33" y1="521.62" x2="218.72" y2="521.62"/><line class="cls-5" x1="384.43" y1="521.62" x2="403.47" y2="521.62"/><line class="cls-5" x1="0.96" y1="521.62" x2="45.4" y2="521.62"/><line class="cls-5" x1="403.47" y1="495.59" x2="403.47" y2="520.98"/><line class="cls-5" x1="197.77" y1="520.98" x2="216.18" y2="520.98"/><line class="cls-5" x1="386.97" y1="520.98" x2="403.47" y2="520.98"/><line class="cls-5" x1="155.87" y1="520.98" x2="185.07" y2="520.98"/><line class="cls-5" x1="0.96" y1="520.98" x2="42.86" y2="520.98"/><line class="cls-5" x1="0.96" y1="517.17" x2="0.96" y2="495.59"/><line class="cls-5" x1="0.96" y1="521.62" x2="0.96" y2="520.98"/><line class="cls-5" x1="0.96" y1="529.23" x2="0.96" y2="521.62"/><line class="cls-5" x1="0.96" y1="520.98" x2="0.96" y2="520.98"/><line class="cls-5" x1="0.96" y1="520.98" x2="0.96" y2="517.17"/><line class="cls-5" x1="155.87" y1="517.17" x2="155.87" y2="495.59"/><line class="cls-5" x1="153.33" y1="521.62" x2="153.33" y2="520.98"/><line class="cls-5" x1="153.33" y1="529.23" x2="153.33" y2="521.62"/><line class="cls-5" x1="153.33" y1="520.98" x2="155.87" y2="520.98"/><line class="cls-5" x1="155.87" y1="520.98" x2="155.87" y2="517.17"/><line class="cls-5" x1="42.86" y1="517.17" x2="42.86" y2="495.59"/><line class="cls-5" x1="45.4" y1="521.62" x2="45.4" y2="520.98"/><line class="cls-5" x1="45.4" y1="529.23" x2="45.4" y2="521.62"/><line class="cls-5" x1="45.4" y1="520.98" x2="42.86" y2="520.98"/><line class="cls-5" x1="42.86" y1="520.98" x2="42.86" y2="517.17"/><line class="cls-5" x1="386.97" y1="517.17" x2="386.97" y2="495.59"/><line class="cls-5" x1="384.43" y1="521.62" x2="384.43" y2="520.98"/><line class="cls-5" x1="384.43" y1="529.23" x2="384.43" y2="521.62"/><line class="cls-5" x1="384.43" y1="520.98" x2="386.97" y2="520.98"/><line class="cls-5" x1="386.97" y1="520.98" x2="386.97" y2="517.17"/><line class="cls-5" x1="216.18" y1="517.17" x2="216.18" y2="495.59"/><line class="cls-5" x1="218.72" y1="521.62" x2="218.72" y2="520.98"/><line class="cls-5" x1="218.72" y1="529.23" x2="218.72" y2="521.62"/><line class="cls-5" x1="218.72" y1="520.98" x2="216.18" y2="520.98"/><line class="cls-5" x1="216.18" y1="520.98" x2="216.18" y2="517.17"/><line class="cls-5" x1="403.47" y1="495.59" x2="386.97" y2="495.59"/><line class="cls-5" x1="216.18" y1="495.59" x2="197.77" y2="495.59"/><line class="cls-5" x1="185.07" y1="495.59" x2="155.87" y2="495.59"/><line class="cls-5" x1="42.86" y1="495.59" x2="0.96" y2="495.59"/><line class="cls-5" x1="0.96" y1="529.23" x2="45.4" y2="529.23"/><line class="cls-5" x1="153.33" y1="529.23" x2="218.72" y2="529.23"/><line class="cls-5" x1="384.43" y1="529.23" x2="413.63" y2="529.23"/><line class="cls-5" x1="0.96" y1="519.71" x2="0.96" y2="517.17"/><line class="cls-5" x1="0.96" y1="517.17" x2="0.96" y2="517.17"/><line class="cls-5" x1="0.96" y1="515.9" x2="0.96" y2="519.71"/><line class="cls-5" x1="0.96" y1="520.98" x2="0.96" y2="517.17"/><line class="cls-5" x1="0.96" y1="520.98" x2="0.96" y2="517.17"/><line class="cls-5" x1="0.96" y1="520.98" x2="0.96" y2="520.98"/><line class="cls-5" x1="0.96" y1="520.98" x2="0.96" y2="520.98"/><line class="cls-5" x1="0.96" y1="529.23" x2="0.96" y2="521.62"/><line class="cls-5" x1="0.96" y1="521.62" x2="0.96" y2="520.98"/><line class="cls-5" x1="0.96" y1="517.17" x2="0.96" y2="495.59"/><line class="cls-5" x1="45.4" y1="529.23" x2="153.33" y2="529.23"/><line class="cls-5" x1="42.86" y1="495.59" x2="155.87" y2="495.59"/><line class="cls-5" x1="42.86" y1="517.17" x2="46.35" y2="517.17"/><line class="cls-5" x1="46.35" y1="517.17" x2="46.35" y2="519.71"/><line class="cls-5" x1="46.35" y1="519.71" x2="47.94" y2="519.71"/><line class="cls-5" x1="47.94" y1="519.71" x2="47.94" y2="520.98"/><line class="cls-5" x1="47.94" y1="520.98" x2="42.86" y2="520.98"/><line class="cls-5" x1="99.37" y1="520.98" x2="96.83" y2="520.98"/><line class="cls-5" x1="96.83" y1="520.98" x2="96.83" y2="519.71"/><line class="cls-5" x1="96.83" y1="519.71" x2="98.41" y2="519.71"/><line class="cls-5" x1="98.41" y1="519.71" x2="98.41" y2="517.17"/><line class="cls-5" x1="98.41" y1="517.17" x2="99.37" y2="517.17"/><line class="cls-5" x1="96.83" y1="520.98" x2="47.94" y2="520.98"/><line class="cls-5" x1="50.16" y1="515.9" x2="94.6" y2="515.9"/><line class="cls-5" x1="46.35" y1="515.9" x2="50.16" y2="515.9"/><line class="cls-5" x1="50.16" y1="515.9" x2="50.16" y2="519.71"/><line class="cls-5" x1="50.16" y1="519.71" x2="46.35" y2="519.71"/><line class="cls-5" x1="46.35" y1="519.71" x2="46.35" y2="515.9"/><line class="cls-5" x1="98.41" y1="519.71" x2="94.6" y2="519.71"/><line class="cls-5" x1="94.6" y1="519.71" x2="94.6" y2="515.9"/><line class="cls-5" x1="94.6" y1="515.9" x2="98.41" y2="515.9"/><line class="cls-5" x1="98.41" y1="515.9" x2="98.41" y2="519.71"/><line class="cls-5" x1="94.6" y1="519.71" x2="50.16" y2="519.71"/><line class="cls-5" x1="50.16" y1="515.9" x2="94.6" y2="515.9"/><line class="cls-5" x1="50.16" y1="517.81" x2="94.6" y2="517.81"/><line class="cls-5" x1="99.37" y1="517.17" x2="100.32" y2="517.17"/><line class="cls-5" x1="100.32" y1="517.17" x2="100.32" y2="519.71"/><line class="cls-5" x1="100.32" y1="519.71" x2="101.91" y2="519.71"/><line class="cls-5" x1="101.91" y1="519.71" x2="101.91" y2="520.98"/><line class="cls-5" x1="101.91" y1="520.98" x2="99.37" y2="520.98"/><line class="cls-5" x1="155.87" y1="520.98" x2="150.79" y2="520.98"/><line class="cls-5" x1="150.79" y1="520.98" x2="150.79" y2="519.71"/><line class="cls-5" x1="150.79" y1="519.71" x2="152.38" y2="519.71"/><line class="cls-5" x1="152.38" y1="519.71" x2="152.38" y2="517.17"/><line class="cls-5" x1="152.38" y1="517.17" x2="155.87" y2="517.17"/><line class="cls-5" x1="150.79" y1="520.98" x2="101.91" y2="520.98"/><line class="cls-5" x1="104.13" y1="515.9" x2="148.57" y2="515.9"/><line class="cls-5" x1="100.32" y1="515.9" x2="104.13" y2="515.9"/><line class="cls-5" x1="104.13" y1="515.9" x2="104.13" y2="519.71"/><line class="cls-5" x1="104.13" y1="519.71" x2="100.32" y2="519.71"/><line class="cls-5" x1="100.32" y1="519.71" x2="100.32" y2="515.9"/><line class="cls-5" x1="152.38" y1="519.71" x2="148.57" y2="519.71"/><line class="cls-5" x1="148.57" y1="519.71" x2="148.57" y2="515.9"/><line class="cls-5" x1="148.57" y1="515.9" x2="152.38" y2="515.9"/><line class="cls-5" x1="152.38" y1="515.9" x2="152.38" y2="519.71"/><line class="cls-5" x1="148.57" y1="519.71" x2="104.13" y2="519.71"/><line class="cls-5" x1="104.13" y1="515.9" x2="148.57" y2="515.9"/><line class="cls-5" x1="104.13" y1="517.81" x2="148.57" y2="517.81"/><line class="cls-5" x1="42.86" y1="520.98" x2="42.86" y2="517.17"/><line class="cls-5" x1="42.86" y1="520.98" x2="42.86" y2="517.17"/><line class="cls-5" x1="45.4" y1="520.98" x2="42.86" y2="520.98"/><line class="cls-5" x1="45.4" y1="520.98" x2="42.86" y2="520.98"/><line class="cls-5" x1="45.4" y1="529.23" x2="45.4" y2="521.62"/><line class="cls-5" x1="45.4" y1="521.62" x2="45.4" y2="520.98"/><line class="cls-5" x1="42.86" y1="517.17" x2="42.86" y2="495.59"/><line class="cls-5" x1="155.87" y1="520.98" x2="155.87" y2="517.17"/><line class="cls-5" x1="155.87" y1="520.98" x2="155.87" y2="517.17"/><line class="cls-5" x1="153.33" y1="520.98" x2="155.87" y2="520.98"/><line class="cls-5" x1="153.33" y1="520.98" x2="155.87" y2="520.98"/><line class="cls-5" x1="153.33" y1="529.23" x2="153.33" y2="521.62"/><line class="cls-5" x1="153.33" y1="521.62" x2="153.33" y2="520.98"/><line class="cls-5" x1="155.87" y1="517.17" x2="155.87" y2="495.59"/><line class="cls-5" x1="218.72" y1="529.23" x2="384.43" y2="529.23"/><line class="cls-5" x1="216.18" y1="495.59" x2="386.97" y2="495.59"/><line class="cls-5" x1="216.18" y1="517.17" x2="219.68" y2="517.17"/><line class="cls-5" x1="219.68" y1="517.17" x2="219.68" y2="519.71"/><line class="cls-5" x1="219.68" y1="519.71" x2="221.26" y2="519.71"/><line class="cls-5" x1="221.26" y1="519.71" x2="221.26" y2="520.98"/><line class="cls-5" x1="221.26" y1="520.98" x2="216.18" y2="520.98"/><line class="cls-5" x1="273.32" y1="520.98" x2="270.78" y2="520.98"/><line class="cls-5" x1="270.78" y1="520.98" x2="270.78" y2="519.71"/><line class="cls-5" x1="270.78" y1="519.71" x2="272.37" y2="519.71"/><line class="cls-5" x1="272.37" y1="519.71" x2="272.37" y2="517.17"/><line class="cls-5" x1="272.37" y1="517.17" x2="273.32" y2="517.17"/><line class="cls-5" x1="270.78" y1="520.98" x2="221.26" y2="520.98"/><line class="cls-5" x1="223.49" y1="515.9" x2="268.56" y2="515.9"/><line class="cls-5" x1="219.68" y1="515.9" x2="223.49" y2="515.9"/><line class="cls-5" x1="223.49" y1="515.9" x2="223.49" y2="519.71"/><line class="cls-5" x1="223.49" y1="519.71" x2="219.68" y2="519.71"/><line class="cls-5" x1="219.68" y1="519.71" x2="219.68" y2="515.9"/><line class="cls-5" x1="272.37" y1="519.71" x2="268.56" y2="519.71"/><line class="cls-5" x1="268.56" y1="519.71" x2="268.56" y2="515.9"/><line class="cls-5" x1="268.56" y1="515.9" x2="272.37" y2="515.9"/><line class="cls-5" x1="272.37" y1="515.9" x2="272.37" y2="519.71"/><line class="cls-5" x1="268.56" y1="519.71" x2="223.49" y2="519.71"/><line class="cls-5" x1="223.49" y1="515.9" x2="268.56" y2="515.9"/><line class="cls-5" x1="223.49" y1="517.81" x2="268.56" y2="517.81"/><line class="cls-5" x1="273.32" y1="517.17" x2="274.28" y2="517.17"/><line class="cls-5" x1="274.28" y1="517.17" x2="274.28" y2="519.71"/><line class="cls-5" x1="274.28" y1="519.71" x2="275.86" y2="519.71"/><line class="cls-5" x1="275.86" y1="519.71" x2="275.86" y2="520.98"/><line class="cls-5" x1="275.86" y1="520.98" x2="273.32" y2="520.98"/><line class="cls-5" x1="329.83" y1="520.98" x2="327.29" y2="520.98"/><line class="cls-5" x1="327.29" y1="520.98" x2="327.29" y2="519.71"/><line class="cls-5" x1="327.29" y1="519.71" x2="328.88" y2="519.71"/><line class="cls-5" x1="328.88" y1="519.71" x2="328.88" y2="517.17"/><line class="cls-5" x1="328.88" y1="517.17" x2="329.83" y2="517.17"/><line class="cls-5" x1="327.29" y1="520.98" x2="275.86" y2="520.98"/><line class="cls-5" x1="278.09" y1="515.9" x2="325.07" y2="515.9"/><line class="cls-5" x1="274.28" y1="515.9" x2="278.09" y2="515.9"/><line class="cls-5" x1="278.09" y1="515.9" x2="278.09" y2="519.71"/><line class="cls-5" x1="278.09" y1="519.71" x2="274.28" y2="519.71"/><line class="cls-5" x1="274.28" y1="519.71" x2="274.28" y2="515.9"/><line class="cls-5" x1="328.88" y1="519.71" x2="325.07" y2="519.71"/><line class="cls-5" x1="325.07" y1="519.71" x2="325.07" y2="515.9"/><line class="cls-5" x1="325.07" y1="515.9" x2="328.88" y2="515.9"/><line class="cls-5" x1="328.88" y1="515.9" x2="328.88" y2="519.71"/><line class="cls-5" x1="325.07" y1="519.71" x2="278.09" y2="519.71"/><line class="cls-5" x1="278.09" y1="515.9" x2="325.07" y2="515.9"/><line class="cls-5" x1="278.09" y1="517.81" x2="325.07" y2="517.81"/><line class="cls-5" x1="329.83" y1="517.17" x2="330.78" y2="517.17"/><line class="cls-5" x1="330.78" y1="517.17" x2="330.78" y2="519.71"/><line class="cls-5" x1="330.78" y1="519.71" x2="332.37" y2="519.71"/><line class="cls-5" x1="332.37" y1="519.71" x2="332.37" y2="520.98"/><line class="cls-5" x1="332.37" y1="520.98" x2="329.83" y2="520.98"/><line class="cls-5" x1="386.97" y1="520.98" x2="381.89" y2="520.98"/><line class="cls-5" x1="381.89" y1="520.98" x2="381.89" y2="519.71"/><line class="cls-5" x1="381.89" y1="519.71" x2="383.48" y2="519.71"/><line class="cls-5" x1="383.48" y1="519.71" x2="383.48" y2="517.17"/><line class="cls-5" x1="383.48" y1="517.17" x2="386.97" y2="517.17"/><line class="cls-5" x1="381.89" y1="520.98" x2="332.37" y2="520.98"/><line class="cls-5" x1="334.59" y1="515.9" x2="379.67" y2="515.9"/><line class="cls-5" x1="330.78" y1="515.9" x2="334.59" y2="515.9"/><line class="cls-5" x1="334.59" y1="515.9" x2="334.59" y2="519.71"/><line class="cls-5" x1="334.59" y1="519.71" x2="330.78" y2="519.71"/><line class="cls-5" x1="330.78" y1="519.71" x2="330.78" y2="515.9"/><line class="cls-5" x1="383.48" y1="519.71" x2="379.67" y2="519.71"/><line class="cls-5" x1="379.67" y1="519.71" x2="379.67" y2="515.9"/><line class="cls-5" x1="379.67" y1="515.9" x2="383.48" y2="515.9"/><line class="cls-5" x1="383.48" y1="515.9" x2="383.48" y2="519.71"/><line class="cls-5" x1="379.67" y1="519.71" x2="334.59" y2="519.71"/><line class="cls-5" x1="334.59" y1="515.9" x2="379.67" y2="515.9"/><line class="cls-5" x1="334.59" y1="517.81" x2="379.67" y2="517.81"/><line class="cls-5" x1="216.18" y1="520.98" x2="216.18" y2="517.17"/><line class="cls-5" x1="216.18" y1="520.98" x2="216.18" y2="517.17"/><line class="cls-5" x1="218.72" y1="520.98" x2="216.18" y2="520.98"/><line class="cls-5" x1="218.72" y1="520.98" x2="216.18" y2="520.98"/><line class="cls-5" x1="218.72" y1="529.23" x2="218.72" y2="521.62"/><line class="cls-5" x1="218.72" y1="521.62" x2="218.72" y2="520.98"/><line class="cls-5" x1="216.18" y1="517.17" x2="216.18" y2="495.59"/><line class="cls-5" x1="386.97" y1="520.98" x2="386.97" y2="517.17"/><line class="cls-5" x1="386.97" y1="520.98" x2="386.97" y2="517.17"/><line class="cls-5" x1="384.43" y1="520.98" x2="386.97" y2="520.98"/><line class="cls-5" x1="384.43" y1="520.98" x2="386.97" y2="520.98"/><line class="cls-5" x1="384.43" y1="529.23" x2="384.43" y2="521.62"/><line class="cls-5" x1="384.43" y1="521.62" x2="384.43" y2="520.98"/><line class="cls-5" x1="386.97" y1="517.17" x2="386.97" y2="495.59"/><line class="cls-5" x1="259.99" y1="38.47" x2="216.82" y2="38.47"/><line class="cls-5" x1="216.82" y1="38.47" x2="216.82" y2="43.55"/><line class="cls-5" x1="216.82" y1="43.55" x2="265.07" y2="43.55"/><line class="cls-5" x1="265.07" y1="43.55" x2="265.07" y2="38.47"/><line class="cls-5" x1="371.73" y1="38.47" x2="371.73" y2="13.07"/><line class="cls-5" x1="366.65" y1="13.07" x2="366.65" y2="43.55"/><line class="cls-5" x1="400.25" y1="43.55" x2="400.3" y2="43.5"/><line class="cls-5" x1="374.9" y1="39.26" x2="375.7" y2="38.47"/><line class="cls-5" x1="400.3" y1="41.01" x2="400.3" y2="38.47"/><line class="cls-5" x1="400.3" y1="43.55" x2="400.3" y2="41.01"/><line class="cls-5" x1="374.9" y1="41.01" x2="374.9" y2="38.47"/><line class="cls-5" x1="374.9" y1="43.55" x2="374.9" y2="41.01"/><line class="cls-5" x1="403.47" y1="38.47" x2="400.3" y2="38.47"/><line class="cls-5" x1="374.9" y1="38.47" x2="371.73" y2="38.47"/><line class="cls-5" x1="366.65" y1="43.55" x2="374.9" y2="43.55"/><line class="cls-5" x1="400.3" y1="43.55" x2="403.47" y2="43.55"/><line class="cls-5" x1="403.47" y1="43.55" x2="403.47" y2="38.47"/><line class="cls-5" x1="374.9" y1="43.55" x2="400.3" y2="43.55"/><line class="cls-5" x1="374.9" y1="38.47" x2="400.3" y2="38.47"/><path class="cls-5" d="M376.44,52.23a25.2,25.2,0,0,1-1.54-8.68"/><line class="cls-5" x1="400.3" y1="43.55" x2="376.44" y2="52.23"/><line class="cls-5" x1="374.9" y1="43.55" x2="374.9" y2="41.01"/><line class="cls-5" x1="374.9" y1="43.55" x2="374.9" y2="41.01"/><line class="cls-5" x1="374.9" y1="41.01" x2="374.9" y2="38.47"/><line class="cls-5" x1="400.3" y1="43.55" x2="400.3" y2="41.01"/><line class="cls-5" x1="400.3" y1="43.55" x2="400.3" y2="41.01"/><line class="cls-5" x1="400.3" y1="41.01" x2="400.3" y2="38.47"/><line class="cls-5" x1="265.07" y1="38.47" x2="265.07" y2="13.07"/><line class="cls-5" x1="265.07" y1="13.07" x2="259.99" y2="13.07"/><line class="cls-5" x1="259.99" y1="13.07" x2="259.99" y2="38.47"/><line class="cls-5" x1="413.63" y1="511.46" x2="403.47" y2="511.46"/><line class="cls-5" x1="403.47" y1="511.46" x2="403.47" y2="521.62"/><line class="cls-5" x1="413.63" y1="521.62" x2="413.63" y2="521.62"/><line class="cls-5" x1="413.63" y1="521.62" x2="413.63" y2="511.46"/><line class="cls-5" x1="197.77" y1="511.46" x2="185.07" y2="511.46"/><line class="cls-5" x1="185.07" y1="511.46" x2="185.07" y2="521.62"/><line class="cls-5" x1="197.77" y1="521.62" x2="197.77" y2="511.46"/><line class="cls-5" x1="411.8" y1="511.46" x2="413.63" y2="509.62"/><line class="cls-5" x1="407.42" y1="508.65" x2="413.63" y2="502.44"/><line class="cls-5" x1="405.75" y1="503.14" x2="413.63" y2="495.26"/><line class="cls-5" x1="404.09" y1="497.62" x2="413.63" y2="488.08"/><line class="cls-5" x1="403.47" y1="491.05" x2="413.63" y2="480.89"/><line class="cls-5" x1="403.47" y1="483.87" x2="413.63" y2="473.71"/><line class="cls-5" x1="403.47" y1="476.69" x2="413.63" y2="466.53"/><line class="cls-5" x1="403.47" y1="469.5" x2="413.63" y2="459.34"/><line class="cls-5" x1="403.47" y1="462.32" x2="413.63" y2="452.16"/><line class="cls-5" x1="403.47" y1="455.14" x2="413.63" y2="444.98"/><line class="cls-5" x1="403.47" y1="447.95" x2="413.63" y2="437.8"/><line class="cls-5" x1="403.47" y1="440.77" x2="413.63" y2="430.61"/><line class="cls-5" x1="403.47" y1="433.59" x2="413.63" y2="423.43"/><line class="cls-5" x1="403.47" y1="426.41" x2="413.63" y2="416.25"/><line class="cls-5" x1="403.47" y1="419.22" x2="413.63" y2="409.06"/><line class="cls-5" x1="403.47" y1="412.04" x2="413.63" y2="401.88"/><line class="cls-5" x1="403.47" y1="404.85" x2="413.63" y2="394.7"/><line class="cls-5" x1="403.47" y1="397.67" x2="413.63" y2="387.52"/><line class="cls-5" x1="403.47" y1="390.49" x2="413.63" y2="380.33"/><line class="cls-5" x1="403.47" y1="383.31" x2="413.63" y2="373.15"/><line class="cls-5" x1="403.47" y1="376.13" x2="413.63" y2="365.97"/><line class="cls-5" x1="403.47" y1="368.94" x2="413.63" y2="358.78"/><line class="cls-5" x1="403.47" y1="361.76" x2="413.63" y2="351.6"/><line class="cls-5" x1="403.47" y1="354.58" x2="413.63" y2="344.42"/><line class="cls-5" x1="403.47" y1="347.39" x2="413.63" y2="337.24"/><line class="cls-5" x1="403.47" y1="340.21" x2="413.63" y2="330.05"/><line class="cls-5" x1="403.47" y1="333.03" x2="413.63" y2="322.87"/><line class="cls-5" x1="403.47" y1="325.84" x2="413.63" y2="315.69"/><line class="cls-5" x1="403.47" y1="318.66" x2="413.63" y2="308.51"/><line class="cls-5" x1="403.47" y1="311.48" x2="413.63" y2="301.32"/><line class="cls-5" x1="403.47" y1="304.3" x2="413.63" y2="294.14"/><line class="cls-5" x1="403.47" y1="297.11" x2="413.63" y2="286.95"/><line class="cls-5" x1="403.47" y1="289.93" x2="413.63" y2="279.77"/><line class="cls-5" x1="403.47" y1="282.75" x2="413.63" y2="272.59"/><line class="cls-5" x1="403.47" y1="275.56" x2="413.63" y2="265.41"/><line class="cls-5" x1="403.47" y1="268.38" x2="413.63" y2="258.22"/><line class="cls-5" x1="403.47" y1="261.2" x2="413.63" y2="251.04"/><line class="cls-5" x1="403.47" y1="254.02" x2="413.63" y2="243.86"/><line class="cls-5" x1="403.47" y1="246.83" x2="413.63" y2="236.67"/><line class="cls-5" x1="403.47" y1="239.65" x2="413.63" y2="229.49"/><line class="cls-5" x1="403.47" y1="232.47" x2="413.63" y2="222.31"/><line class="cls-5" x1="403.47" y1="225.28" x2="413.63" y2="215.13"/><line class="cls-5" x1="403.47" y1="218.1" x2="413.63" y2="207.94"/><line class="cls-5" x1="403.47" y1="210.92" x2="413.63" y2="200.76"/><line class="cls-5" x1="403.47" y1="203.74" x2="413.63" y2="193.58"/><line class="cls-5" x1="403.47" y1="196.55" x2="413.63" y2="186.4"/><line class="cls-5" x1="403.47" y1="189.37" x2="413.63" y2="179.21"/><line class="cls-5" x1="403.47" y1="182.19" x2="413.63" y2="172.03"/><line class="cls-5" x1="403.47" y1="175.01" x2="413.63" y2="164.85"/><line class="cls-5" x1="403.47" y1="167.82" x2="413.63" y2="157.66"/><line class="cls-5" x1="403.47" y1="160.64" x2="413.63" y2="150.48"/><line class="cls-5" x1="403.47" y1="153.46" x2="413.63" y2="143.3"/><line class="cls-5" x1="403.47" y1="146.27" x2="413.63" y2="136.12"/><line class="cls-5" x1="403.47" y1="139.09" x2="413.63" y2="128.93"/><line class="cls-5" x1="403.47" y1="131.91" x2="413.63" y2="121.75"/><line class="cls-5" x1="403.47" y1="124.73" x2="413.63" y2="114.57"/><line class="cls-5" x1="403.47" y1="117.54" x2="413.63" y2="107.38"/><line class="cls-5" x1="403.47" y1="110.36" x2="413.63" y2="100.2"/><line class="cls-5" x1="403.47" y1="103.17" x2="413.63" y2="93.02"/><line class="cls-5" x1="403.47" y1="95.99" x2="413.63" y2="85.84"/><line class="cls-5" x1="403.47" y1="88.81" x2="413.63" y2="78.65"/><line class="cls-5" x1="403.47" y1="81.63" x2="413.63" y2="71.47"/><line class="cls-5" x1="403.47" y1="74.44" x2="413.63" y2="64.29"/><line class="cls-5" x1="403.47" y1="67.26" x2="413.63" y2="57.1"/><line class="cls-5" x1="403.47" y1="60.08" x2="413.63" y2="49.92"/><line class="cls-5" x1="403.47" y1="52.9" x2="413.63" y2="42.74"/><line class="cls-5" x1="403.47" y1="45.71" x2="413.63" y2="35.55"/><line class="cls-5" x1="403.47" y1="38.53" x2="413.63" y2="28.37"/><line class="cls-5" x1="403.47" y1="31.35" x2="413.63" y2="21.19"/><line class="cls-5" x1="403.47" y1="24.16" x2="413.63" y2="14.01"/><line class="cls-5" x1="403.47" y1="16.98" x2="413.63" y2="6.82"/><line class="cls-5" x1="403.47" y1="9.8" x2="406.55" y2="6.72"/><line class="cls-5" x1="408.25" y1="511.41" x2="410.52" y2="509.14"/><line class="cls-5" x1="411.42" y1="508.24" x2="411.42" y2="508.24"/><line class="cls-5" x1="412.32" y1="507.34" x2="413.63" y2="506.03"/><line class="cls-5" x1="406.59" y1="505.9" x2="406.93" y2="505.55"/><line class="cls-5" x1="407.83" y1="504.65" x2="407.83" y2="504.65"/><line class="cls-5" x1="408.73" y1="503.75" x2="411.42" y2="501.06"/><line class="cls-5" x1="412.32" y1="500.16" x2="412.32" y2="500.16"/><line class="cls-5" x1="413.22" y1="499.26" x2="413.63" y2="498.85"/><line class="cls-5" x1="405.14" y1="500.16" x2="407.83" y2="497.47"/><line class="cls-5" x1="408.73" y1="496.57" x2="408.73" y2="496.57"/><line class="cls-5" x1="409.63" y1="495.67" x2="412.32" y2="492.98"/><line class="cls-5" x1="413.22" y1="492.08" x2="413.22" y2="492.08"/><line class="cls-5" x1="403.47" y1="494.64" x2="404.24" y2="493.87"/><line class="cls-5" x1="405.14" y1="492.98" x2="405.14" y2="492.98"/><line class="cls-5" x1="406.04" y1="492.08" x2="408.73" y2="489.39"/><line class="cls-5" x1="409.63" y1="488.49" x2="409.63" y2="488.49"/><line class="cls-5" x1="410.52" y1="487.59" x2="413.22" y2="484.9"/><line class="cls-5" x1="403.47" y1="487.46" x2="405.14" y2="485.8"/><line class="cls-5" x1="406.04" y1="484.9" x2="406.04" y2="484.9"/><line class="cls-5" x1="406.93" y1="484" x2="409.63" y2="481.31"/><line class="cls-5" x1="410.52" y1="480.41" x2="410.52" y2="480.41"/><line class="cls-5" x1="411.42" y1="479.51" x2="413.63" y2="477.3"/><line class="cls-5" x1="403.47" y1="480.28" x2="406.04" y2="477.71"/><line class="cls-5" x1="406.93" y1="476.82" x2="406.93" y2="476.82"/><line class="cls-5" x1="407.83" y1="475.92" x2="410.52" y2="473.23"/><line class="cls-5" x1="411.42" y1="472.33" x2="411.42" y2="472.33"/><line class="cls-5" x1="412.32" y1="471.43" x2="413.63" y2="470.12"/><line class="cls-5" x1="404.24" y1="472.33" x2="406.93" y2="469.64"/><line class="cls-5" x1="407.83" y1="468.74" x2="407.83" y2="468.74"/><line class="cls-5" x1="408.73" y1="467.84" x2="411.42" y2="465.14"/><line class="cls-5" x1="412.32" y1="464.25" x2="412.32" y2="464.25"/><line class="cls-5" x1="413.22" y1="463.35" x2="413.63" y2="462.94"/><line class="cls-5" x1="404.24" y1="465.14" x2="404.24" y2="465.14"/><line class="cls-5" x1="405.14" y1="464.25" x2="407.83" y2="461.55"/><line class="cls-5" x1="408.73" y1="460.65" x2="408.73" y2="460.65"/><line class="cls-5" x1="409.63" y1="459.76" x2="412.32" y2="457.06"/><line class="cls-5" x1="413.22" y1="456.17" x2="413.22" y2="456.17"/><line class="cls-5" x1="403.47" y1="458.73" x2="404.24" y2="457.96"/><line class="cls-5" x1="405.14" y1="457.06" x2="405.14" y2="457.06"/><line class="cls-5" x1="406.04" y1="456.17" x2="408.73" y2="453.47"/><line class="cls-5" x1="409.63" y1="452.58" x2="409.63" y2="452.58"/><line class="cls-5" x1="410.52" y1="451.68" x2="413.22" y2="448.98"/><line class="cls-5" x1="403.47" y1="451.54" x2="405.14" y2="449.88"/><line class="cls-5" x1="406.04" y1="448.98" x2="406.04" y2="448.98"/><line class="cls-5" x1="406.93" y1="448.08" x2="409.63" y2="445.39"/><line class="cls-5" x1="410.52" y1="444.49" x2="410.52" y2="444.49"/><line class="cls-5" x1="411.42" y1="443.6" x2="413.63" y2="441.39"/><line class="cls-5" x1="403.47" y1="444.36" x2="406.04" y2="441.8"/><line class="cls-5" x1="406.93" y1="440.9" x2="406.93" y2="440.9"/><line class="cls-5" x1="407.83" y1="440.01" x2="410.52" y2="437.31"/><line class="cls-5" x1="411.42" y1="436.41" x2="411.42" y2="436.41"/><line class="cls-5" x1="412.32" y1="435.52" x2="413.63" y2="434.21"/><line class="cls-5" x1="404.24" y1="436.41" x2="406.93" y2="433.72"/><line class="cls-5" x1="407.83" y1="432.82" x2="407.83" y2="432.82"/><line class="cls-5" x1="408.73" y1="431.92" x2="411.42" y2="429.23"/><line class="cls-5" x1="412.32" y1="428.33" x2="412.32" y2="428.33"/><line class="cls-5" x1="413.22" y1="427.43" x2="413.63" y2="427.02"/><line class="cls-5" x1="404.24" y1="429.23" x2="404.24" y2="429.23"/><line class="cls-5" x1="405.14" y1="428.33" x2="407.83" y2="425.64"/><line class="cls-5" x1="408.73" y1="424.74" x2="408.73" y2="424.74"/><line class="cls-5" x1="409.63" y1="423.84" x2="412.32" y2="421.15"/><line class="cls-5" x1="413.22" y1="420.25" x2="413.22" y2="420.25"/><line class="cls-5" x1="403.47" y1="422.81" x2="404.24" y2="422.05"/><line class="cls-5" x1="405.14" y1="421.15" x2="405.14" y2="421.15"/><line class="cls-5" x1="406.04" y1="420.25" x2="408.73" y2="417.56"/><line class="cls-5" x1="409.63" y1="416.66" x2="409.63" y2="416.66"/><line class="cls-5" x1="410.52" y1="415.76" x2="413.22" y2="413.07"/><line class="cls-5" x1="403.47" y1="415.63" x2="405.14" y2="413.97"/><line class="cls-5" x1="406.04" y1="413.07" x2="406.04" y2="413.07"/><line class="cls-5" x1="406.93" y1="412.17" x2="409.63" y2="409.48"/><line class="cls-5" x1="410.52" y1="408.58" x2="410.52" y2="408.58"/><line class="cls-5" x1="411.42" y1="407.68" x2="413.63" y2="405.47"/><line class="cls-5" x1="403.47" y1="408.45" x2="406.04" y2="405.89"/><line class="cls-5" x1="406.93" y1="404.99" x2="406.93" y2="404.99"/><line class="cls-5" x1="407.83" y1="404.09" x2="410.52" y2="401.4"/><line class="cls-5" x1="411.42" y1="400.5" x2="411.42" y2="400.5"/><line class="cls-5" x1="412.32" y1="399.6" x2="413.63" y2="398.29"/><line class="cls-5" x1="404.24" y1="400.5" x2="406.93" y2="397.8"/><line class="cls-5" x1="407.83" y1="396.91" x2="407.83" y2="396.91"/><line class="cls-5" x1="408.73" y1="396.01" x2="411.42" y2="393.32"/><line class="cls-5" x1="412.32" y1="392.42" x2="412.32" y2="392.42"/><line class="cls-5" x1="413.22" y1="391.52" x2="413.63" y2="391.11"/><line class="cls-5" x1="404.24" y1="393.32" x2="404.24" y2="393.32"/><line class="cls-5" x1="405.14" y1="392.42" x2="407.83" y2="389.73"/><line class="cls-5" x1="408.73" y1="388.83" x2="408.73" y2="388.83"/><line class="cls-5" x1="409.63" y1="387.93" x2="412.32" y2="385.23"/><line class="cls-5" x1="413.22" y1="384.34" x2="413.22" y2="384.34"/><line class="cls-5" x1="403.47" y1="386.9" x2="404.24" y2="386.13"/><line class="cls-5" x1="405.14" y1="385.23" x2="405.14" y2="385.23"/><line class="cls-5" x1="406.04" y1="384.34" x2="408.73" y2="381.64"/><line class="cls-5" x1="409.63" y1="380.75" x2="409.63" y2="380.75"/><line class="cls-5" x1="410.52" y1="379.85" x2="413.22" y2="377.16"/><line class="cls-5" x1="403.47" y1="379.72" x2="405.14" y2="378.05"/><line class="cls-5" x1="406.04" y1="377.16" x2="406.04" y2="377.16"/><line class="cls-5" x1="406.93" y1="376.26" x2="409.63" y2="373.56"/><line class="cls-5" x1="410.52" y1="372.67" x2="410.52" y2="372.67"/><line class="cls-5" x1="411.42" y1="371.77" x2="413.63" y2="369.56"/><line class="cls-5" x1="403.47" y1="372.53" x2="406.04" y2="369.97"/><line class="cls-5" x1="406.93" y1="369.07" x2="406.93" y2="369.07"/><line class="cls-5" x1="407.83" y1="368.17" x2="410.52" y2="365.48"/><line class="cls-5" x1="411.42" y1="364.58" x2="411.42" y2="364.58"/><line class="cls-5" x1="412.32" y1="363.69" x2="413.63" y2="362.37"/><line class="cls-5" x1="404.24" y1="364.58" x2="406.93" y2="361.89"/><line class="cls-5" x1="407.83" y1="360.99" x2="407.83" y2="360.99"/><line class="cls-5" x1="408.73" y1="360.1" x2="411.42" y2="357.4"/><line class="cls-5" x1="412.32" y1="356.5" x2="412.32" y2="356.5"/><line class="cls-5" x1="413.22" y1="355.61" x2="413.63" y2="355.19"/><line class="cls-5" x1="404.24" y1="357.4" x2="404.24" y2="357.4"/><line class="cls-5" x1="405.14" y1="356.5" x2="407.83" y2="353.81"/><line class="cls-5" x1="408.73" y1="352.91" x2="408.73" y2="352.91"/><line class="cls-5" x1="409.63" y1="352.01" x2="412.32" y2="349.32"/><line class="cls-5" x1="413.22" y1="348.42" x2="413.22" y2="348.42"/><line class="cls-5" x1="403.47" y1="350.99" x2="404.24" y2="350.22"/><line class="cls-5" x1="405.14" y1="349.32" x2="405.14" y2="349.32"/><line class="cls-5" x1="406.04" y1="348.42" x2="408.73" y2="345.73"/><line class="cls-5" x1="409.63" y1="344.83" x2="409.63" y2="344.83"/><line class="cls-5" x1="410.52" y1="343.93" x2="413.22" y2="341.24"/><line class="cls-5" x1="403.47" y1="343.8" x2="405.14" y2="342.14"/><line class="cls-5" x1="406.04" y1="341.24" x2="406.04" y2="341.24"/><line class="cls-5" x1="406.93" y1="340.34" x2="409.63" y2="337.65"/><line class="cls-5" x1="410.52" y1="336.75" x2="410.52" y2="336.75"/><line class="cls-5" x1="411.42" y1="335.85" x2="413.63" y2="333.64"/><line class="cls-5" x1="403.47" y1="336.62" x2="406.04" y2="334.06"/><line class="cls-5" x1="406.93" y1="333.16" x2="406.93" y2="333.16"/><line class="cls-5" x1="407.83" y1="332.26" x2="410.52" y2="329.57"/><line class="cls-5" x1="411.42" y1="328.67" x2="411.42" y2="328.67"/><line class="cls-5" x1="412.32" y1="327.77" x2="413.63" y2="326.46"/><line class="cls-5" x1="404.24" y1="328.67" x2="406.93" y2="325.98"/><line class="cls-5" x1="407.83" y1="325.08" x2="407.83" y2="325.08"/><line class="cls-5" x1="408.73" y1="324.18" x2="411.42" y2="321.49"/><line class="cls-5" x1="412.32" y1="320.59" x2="412.32" y2="320.59"/><line class="cls-5" x1="413.22" y1="319.69" x2="413.63" y2="319.28"/><line class="cls-5" x1="404.24" y1="321.49" x2="404.24" y2="321.49"/><line class="cls-5" x1="405.14" y1="320.59" x2="407.83" y2="317.9"/><line class="cls-5" x1="408.73" y1="317" x2="408.73" y2="317"/><line class="cls-5" x1="409.63" y1="316.1" x2="412.32" y2="313.41"/><line class="cls-5" x1="413.22" y1="312.51" x2="413.22" y2="312.51"/><line class="cls-5" x1="403.47" y1="315.07" x2="404.24" y2="314.3"/><line class="cls-5" x1="405.14" y1="313.41" x2="405.14" y2="313.41"/><line class="cls-5" x1="406.04" y1="312.51" x2="408.73" y2="309.82"/><line class="cls-5" x1="409.63" y1="308.92" x2="409.63" y2="308.92"/><line class="cls-5" x1="410.52" y1="308.02" x2="413.22" y2="305.32"/><line class="cls-5" x1="403.47" y1="307.89" x2="405.14" y2="306.22"/><line class="cls-5" x1="406.04" y1="305.32" x2="406.04" y2="305.32"/><line class="cls-5" x1="406.93" y1="304.43" x2="409.63" y2="301.73"/><line class="cls-5" x1="410.52" y1="300.84" x2="410.52" y2="300.84"/><line class="cls-5" x1="411.42" y1="299.94" x2="413.63" y2="297.73"/><line class="cls-5" x1="403.47" y1="300.71" x2="406.04" y2="298.14"/><line class="cls-5" x1="406.93" y1="297.25" x2="406.93" y2="297.25"/><line class="cls-5" x1="407.83" y1="296.35" x2="410.52" y2="293.65"/><line class="cls-5" x1="411.42" y1="292.76" x2="411.42" y2="292.76"/><line class="cls-5" x1="412.32" y1="291.86" x2="413.63" y2="290.55"/><line class="cls-5" x1="404.24" y1="292.76" x2="406.93" y2="290.06"/><line class="cls-5" x1="407.83" y1="289.16" x2="407.83" y2="289.16"/><line class="cls-5" x1="408.73" y1="288.27" x2="411.42" y2="285.57"/><line class="cls-5" x1="412.32" y1="284.67" x2="412.32" y2="284.67"/><line class="cls-5" x1="413.22" y1="283.78" x2="413.63" y2="283.36"/><line class="cls-5" x1="404.24" y1="285.57" x2="404.24" y2="285.57"/><line class="cls-5" x1="405.14" y1="284.67" x2="407.83" y2="281.98"/><line class="cls-5" x1="408.73" y1="281.08" x2="408.73" y2="281.08"/><line class="cls-5" x1="409.63" y1="280.19" x2="412.32" y2="277.49"/><line class="cls-5" x1="413.22" y1="276.59" x2="413.22" y2="276.59"/><line class="cls-5" x1="403.47" y1="279.15" x2="404.24" y2="278.39"/><line class="cls-5" x1="405.14" y1="277.49" x2="405.14" y2="277.49"/><line class="cls-5" x1="406.04" y1="276.59" x2="408.73" y2="273.9"/><line class="cls-5" x1="409.63" y1="273" x2="409.63" y2="273"/><line class="cls-5" x1="410.52" y1="272.1" x2="413.22" y2="269.41"/><line class="cls-5" x1="403.47" y1="271.97" x2="405.14" y2="270.31"/><line class="cls-5" x1="406.04" y1="269.41" x2="406.04" y2="269.41"/><line class="cls-5" x1="406.93" y1="268.51" x2="409.63" y2="265.82"/><line class="cls-5" x1="410.52" y1="264.92" x2="410.52" y2="264.92"/><line class="cls-5" x1="411.42" y1="264.03" x2="413.63" y2="261.82"/><line class="cls-5" x1="403.47" y1="264.79" x2="406.04" y2="262.23"/><line class="cls-5" x1="406.93" y1="261.33" x2="406.93" y2="261.33"/><line class="cls-5" x1="407.83" y1="260.43" x2="410.52" y2="257.74"/><line class="cls-5" x1="411.42" y1="256.84" x2="411.42" y2="256.84"/><line class="cls-5" x1="412.32" y1="255.94" x2="413.63" y2="254.63"/><line class="cls-5" x1="404.24" y1="256.84" x2="406.93" y2="254.15"/><line class="cls-5" x1="407.83" y1="253.25" x2="407.83" y2="253.25"/><line class="cls-5" x1="408.73" y1="252.35" x2="411.42" y2="249.66"/><line class="cls-5" x1="412.32" y1="248.76" x2="412.32" y2="248.76"/><line class="cls-5" x1="413.22" y1="247.86" x2="413.63" y2="247.45"/><line class="cls-5" x1="404.24" y1="249.66" x2="404.24" y2="249.66"/><line class="cls-5" x1="405.14" y1="248.76" x2="407.83" y2="246.07"/><line class="cls-5" x1="408.73" y1="245.17" x2="408.73" y2="245.17"/><line class="cls-5" x1="409.63" y1="244.27" x2="412.32" y2="241.58"/><line class="cls-5" x1="413.22" y1="240.68" x2="413.22" y2="240.68"/><line class="cls-5" x1="403.47" y1="243.24" x2="404.24" y2="242.47"/><line class="cls-5" x1="405.14" y1="241.58" x2="405.14" y2="241.58"/><line class="cls-5" x1="406.04" y1="240.68" x2="408.73" y2="237.99"/><line class="cls-5" x1="409.63" y1="237.09" x2="409.63" y2="237.09"/><line class="cls-5" x1="410.52" y1="236.19" x2="413.22" y2="233.5"/><line class="cls-5" x1="403.47" y1="236.06" x2="405.14" y2="234.4"/><line class="cls-5" x1="406.04" y1="233.5" x2="406.04" y2="233.5"/><line class="cls-5" x1="406.93" y1="232.6" x2="409.63" y2="229.91"/><line class="cls-5" x1="410.52" y1="229.01" x2="410.52" y2="229.01"/><line class="cls-5" x1="411.42" y1="228.11" x2="413.63" y2="225.9"/><line class="cls-5" x1="403.47" y1="228.88" x2="406.04" y2="226.31"/><line class="cls-5" x1="406.93" y1="225.42" x2="406.93" y2="225.42"/><line class="cls-5" x1="407.83" y1="224.52" x2="410.52" y2="221.82"/><line class="cls-5" x1="411.42" y1="220.93" x2="411.42" y2="220.93"/><line class="cls-5" x1="412.32" y1="220.03" x2="413.63" y2="218.72"/><line class="cls-5" x1="404.24" y1="220.93" x2="406.93" y2="218.23"/><line class="cls-5" x1="407.83" y1="217.34" x2="407.83" y2="217.34"/><line class="cls-5" x1="408.73" y1="216.44" x2="411.42" y2="213.74"/><line class="cls-5" x1="412.32" y1="212.85" x2="412.32" y2="212.85"/><line class="cls-5" x1="413.22" y1="211.95" x2="413.63" y2="211.54"/><line class="cls-5" x1="404.24" y1="213.74" x2="404.24" y2="213.74"/><line class="cls-5" x1="405.14" y1="212.85" x2="407.83" y2="210.15"/><line class="cls-5" x1="408.73" y1="209.25" x2="408.73" y2="209.25"/><line class="cls-5" x1="409.63" y1="208.36" x2="412.32" y2="205.66"/><line class="cls-5" x1="413.22" y1="204.77" x2="413.22" y2="204.77"/><line class="cls-5" x1="403.47" y1="207.33" x2="404.24" y2="206.56"/><line class="cls-5" x1="405.14" y1="205.66" x2="405.14" y2="205.66"/><line class="cls-5" x1="406.04" y1="204.77" x2="408.73" y2="202.07"/><line class="cls-5" x1="409.63" y1="201.18" x2="409.63" y2="201.18"/><line class="cls-5" x1="410.52" y1="200.28" x2="413.22" y2="197.58"/><line class="cls-5" x1="403.47" y1="200.14" x2="405.14" y2="198.48"/><line class="cls-5" x1="406.04" y1="197.58" x2="406.04" y2="197.58"/><line class="cls-5" x1="406.93" y1="196.68" x2="409.63" y2="193.99"/><line class="cls-5" x1="410.52" y1="193.09" x2="410.52" y2="193.09"/><line class="cls-5" x1="411.42" y1="192.19" x2="413.63" y2="189.99"/><line class="cls-5" x1="403.47" y1="192.96" x2="406.04" y2="190.4"/><line class="cls-5" x1="406.93" y1="189.5" x2="406.93" y2="189.5"/><line class="cls-5" x1="407.83" y1="188.6" x2="410.52" y2="185.91"/><line class="cls-5" x1="411.42" y1="185.01" x2="411.42" y2="185.01"/><line class="cls-5" x1="412.32" y1="184.12" x2="413.63" y2="182.81"/><line class="cls-5" x1="404.24" y1="185.01" x2="406.93" y2="182.32"/><line class="cls-5" x1="407.83" y1="181.42" x2="407.83" y2="181.42"/><line class="cls-5" x1="408.73" y1="180.52" x2="411.42" y2="177.83"/><line class="cls-5" x1="412.32" y1="176.93" x2="412.32" y2="176.93"/><line class="cls-5" x1="413.22" y1="176.03" x2="413.63" y2="175.62"/><line class="cls-5" x1="404.24" y1="177.83" x2="404.24" y2="177.83"/><line class="cls-5" x1="405.14" y1="176.93" x2="407.83" y2="174.24"/><line class="cls-5" x1="408.73" y1="173.34" x2="408.73" y2="173.34"/><line class="cls-5" x1="409.63" y1="172.44" x2="412.32" y2="169.75"/><line class="cls-5" x1="413.22" y1="168.85" x2="413.22" y2="168.85"/><line class="cls-5" x1="403.47" y1="171.41" x2="404.24" y2="170.65"/><line class="cls-5" x1="405.14" y1="169.75" x2="405.14" y2="169.75"/><line class="cls-5" x1="406.04" y1="168.85" x2="408.73" y2="166.16"/><line class="cls-5" x1="409.63" y1="165.26" x2="409.63" y2="165.26"/><line class="cls-5" x1="410.52" y1="164.36" x2="413.22" y2="161.67"/><line class="cls-5" x1="403.47" y1="164.23" x2="405.14" y2="162.56"/><line class="cls-5" x1="406.04" y1="161.67" x2="406.04" y2="161.67"/><line class="cls-5" x1="406.93" y1="160.77" x2="409.63" y2="158.08"/><line class="cls-5" x1="410.52" y1="157.18" x2="410.52" y2="157.18"/><line class="cls-5" x1="411.42" y1="156.28" x2="413.63" y2="154.07"/><line class="cls-5" x1="403.47" y1="157.05" x2="406.04" y2="154.49"/><line class="cls-5" x1="406.93" y1="153.59" x2="406.93" y2="153.59"/><line class="cls-5" x1="407.83" y1="152.69" x2="410.52" y2="150"/><line class="cls-5" x1="411.42" y1="149.1" x2="411.42" y2="149.1"/><line class="cls-5" x1="412.32" y1="148.2" x2="413.63" y2="146.89"/><line class="cls-5" x1="404.24" y1="149.1" x2="406.93" y2="146.4"/><line class="cls-5" x1="407.83" y1="145.51" x2="407.83" y2="145.51"/><line class="cls-5" x1="408.73" y1="144.61" x2="411.42" y2="141.92"/><line class="cls-5" x1="412.32" y1="141.02" x2="412.32" y2="141.02"/><line class="cls-5" x1="413.22" y1="140.12" x2="413.63" y2="139.71"/><line class="cls-5" x1="404.24" y1="141.92" x2="404.24" y2="141.92"/><line class="cls-5" x1="405.14" y1="141.02" x2="407.83" y2="138.33"/><line class="cls-5" x1="408.73" y1="137.43" x2="408.73" y2="137.43"/><line class="cls-5" x1="409.63" y1="136.53" x2="412.32" y2="133.83"/><line class="cls-5" x1="413.22" y1="132.94" x2="413.22" y2="132.94"/><line class="cls-5" x1="403.47" y1="135.5" x2="404.24" y2="134.73"/><line class="cls-5" x1="405.14" y1="133.83" x2="405.14" y2="133.83"/><line class="cls-5" x1="406.04" y1="132.94" x2="408.73" y2="130.24"/><line class="cls-5" x1="409.63" y1="129.34" x2="409.63" y2="129.34"/><line class="cls-5" x1="410.52" y1="128.45" x2="413.22" y2="125.75"/><line class="cls-5" x1="403.47" y1="128.32" x2="405.14" y2="126.65"/><line class="cls-5" x1="406.04" y1="125.75" x2="406.04" y2="125.75"/><line class="cls-5" x1="406.93" y1="124.86" x2="409.63" y2="122.16"/><line class="cls-5" x1="410.52" y1="121.27" x2="410.52" y2="121.27"/><line class="cls-5" x1="411.42" y1="120.37" x2="413.63" y2="118.16"/><line class="cls-5" x1="403.47" y1="121.13" x2="406.04" y2="118.57"/><line class="cls-5" x1="406.93" y1="117.67" x2="406.93" y2="117.67"/><line class="cls-5" x1="407.83" y1="116.77" x2="410.52" y2="114.08"/><line class="cls-5" x1="411.42" y1="113.18" x2="411.42" y2="113.18"/><line class="cls-5" x1="412.32" y1="112.29" x2="413.63" y2="110.97"/><line class="cls-5" x1="404.24" y1="113.18" x2="406.93" y2="110.49"/><line class="cls-5" x1="407.83" y1="109.59" x2="407.83" y2="109.59"/><line class="cls-5" x1="408.73" y1="108.7" x2="411.42" y2="106"/><line class="cls-5" x1="412.32" y1="105.1" x2="412.32" y2="105.1"/><line class="cls-5" x1="413.22" y1="104.21" x2="413.63" y2="103.79"/><line class="cls-5" x1="404.24" y1="106" x2="404.24" y2="106"/><line class="cls-5" x1="405.14" y1="105.1" x2="407.83" y2="102.41"/><line class="cls-5" x1="408.73" y1="101.51" x2="408.73" y2="101.51"/><line class="cls-5" x1="409.63" y1="100.61" x2="412.32" y2="97.92"/><line class="cls-5" x1="413.22" y1="97.02" x2="413.22" y2="97.02"/><line class="cls-5" x1="403.47" y1="99.58" x2="404.24" y2="98.82"/><line class="cls-5" x1="405.14" y1="97.92" x2="405.14" y2="97.92"/><line class="cls-5" x1="406.04" y1="97.02" x2="408.73" y2="94.33"/><line class="cls-5" x1="409.63" y1="93.43" x2="409.63" y2="93.43"/><line class="cls-5" x1="410.52" y1="92.53" x2="413.22" y2="89.84"/><line class="cls-5" x1="403.47" y1="92.4" x2="405.14" y2="90.74"/><line class="cls-5" x1="406.04" y1="89.84" x2="406.04" y2="89.84"/><line class="cls-5" x1="406.93" y1="88.94" x2="409.63" y2="86.25"/><line class="cls-5" x1="410.52" y1="85.35" x2="410.52" y2="85.35"/><line class="cls-5" x1="411.42" y1="84.45" x2="413.63" y2="82.24"/><line class="cls-5" x1="403.47" y1="85.22" x2="406.04" y2="82.66"/><line class="cls-5" x1="406.93" y1="81.76" x2="406.93" y2="81.76"/><line class="cls-5" x1="407.83" y1="80.86" x2="410.52" y2="78.17"/><line class="cls-5" x1="411.42" y1="77.27" x2="411.42" y2="77.27"/><line class="cls-5" x1="412.32" y1="76.37" x2="413.63" y2="75.06"/><line class="cls-5" x1="404.24" y1="77.27" x2="406.93" y2="74.58"/><line class="cls-5" x1="407.83" y1="73.68" x2="407.83" y2="73.68"/><line class="cls-5" x1="408.73" y1="72.78" x2="411.42" y2="70.09"/><line class="cls-5" x1="412.32" y1="69.19" x2="412.32" y2="69.19"/><line class="cls-5" x1="413.22" y1="68.29" x2="413.63" y2="67.88"/><line class="cls-5" x1="404.24" y1="70.09" x2="404.24" y2="70.09"/><line class="cls-5" x1="405.14" y1="69.19" x2="407.83" y2="66.49"/><line class="cls-5" x1="408.73" y1="65.6" x2="408.73" y2="65.6"/><line class="cls-5" x1="409.63" y1="64.7" x2="412.32" y2="62.01"/><line class="cls-5" x1="413.22" y1="61.11" x2="413.22" y2="61.11"/><line class="cls-5" x1="403.47" y1="63.67" x2="404.24" y2="62.9"/><line class="cls-5" x1="405.14" y1="62.01" x2="405.14" y2="62.01"/><line class="cls-5" x1="406.04" y1="61.11" x2="408.73" y2="58.42"/><line class="cls-5" x1="409.63" y1="57.52" x2="409.63" y2="57.52"/><line class="cls-5" x1="410.52" y1="56.62" x2="413.22" y2="53.92"/><line class="cls-5" x1="403.47" y1="56.49" x2="405.14" y2="54.82"/><line class="cls-5" x1="406.04" y1="53.92" x2="406.04" y2="53.92"/><line class="cls-5" x1="406.93" y1="53.03" x2="409.63" y2="50.33"/><line class="cls-5" x1="410.52" y1="49.44" x2="410.52" y2="49.44"/><line class="cls-5" x1="411.42" y1="48.54" x2="413.63" y2="46.33"/><line class="cls-5" x1="403.47" y1="49.31" x2="406.04" y2="46.74"/><line class="cls-5" x1="406.93" y1="45.85" x2="406.93" y2="45.85"/><line class="cls-5" x1="407.83" y1="44.95" x2="410.52" y2="42.25"/><line class="cls-5" x1="411.42" y1="41.36" x2="411.42" y2="41.36"/><line class="cls-5" x1="412.32" y1="40.46" x2="413.63" y2="39.15"/><line class="cls-5" x1="404.24" y1="41.36" x2="406.93" y2="38.66"/><line class="cls-5" x1="407.83" y1="37.76" x2="407.83" y2="37.76"/><line class="cls-5" x1="408.73" y1="36.86" x2="411.42" y2="34.17"/><line class="cls-5" x1="412.32" y1="33.27" x2="412.32" y2="33.27"/><line class="cls-5" x1="413.22" y1="32.38" x2="413.63" y2="31.96"/><line class="cls-5" x1="404.24" y1="34.17" x2="404.24" y2="34.17"/><line class="cls-5" x1="405.14" y1="33.27" x2="407.83" y2="30.58"/><line class="cls-5" x1="408.73" y1="29.68" x2="408.73" y2="29.68"/><line class="cls-5" x1="409.63" y1="28.79" x2="412.32" y2="26.09"/><line class="cls-5" x1="413.22" y1="25.19" x2="413.22" y2="25.19"/><line class="cls-5" x1="403.47" y1="27.76" x2="404.24" y2="26.99"/><line class="cls-5" x1="405.14" y1="26.09" x2="405.14" y2="26.09"/><line class="cls-5" x1="406.04" y1="25.19" x2="408.73" y2="22.5"/><line class="cls-5" x1="409.63" y1="21.6" x2="409.63" y2="21.6"/><line class="cls-5" x1="410.52" y1="20.7" x2="413.22" y2="18.01"/><line class="cls-5" x1="403.47" y1="20.57" x2="405.14" y2="18.91"/><line class="cls-5" x1="406.04" y1="18.01" x2="406.04" y2="18.01"/><line class="cls-5" x1="406.93" y1="17.11" x2="409.63" y2="14.42"/><line class="cls-5" x1="410.52" y1="13.52" x2="410.52" y2="13.52"/><line class="cls-5" x1="411.42" y1="12.62" x2="413.63" y2="10.42"/><line class="cls-5" x1="403.47" y1="13.39" x2="406.04" y2="10.83"/><line class="cls-5" x1="406.93" y1="9.93" x2="406.93" y2="9.93"/><line class="cls-5" x1="407.83" y1="9.03" x2="410.14" y2="6.72"/><line class="cls-5" x1="413.63" y1="521.62" x2="411.33" y2="521.62"/><line class="cls-5" x1="413.63" y1="529.23" x2="413.63" y2="521.62"/><line class="cls-5" x1="413.63" y1="511.46" x2="413.63" y2="0.38"/><line class="cls-5" x1="403.47" y1="6.72" x2="403.47" y2="495.59"/><line class="cls-5" x1="88.57" y1="124.18" x2="88.57" y2="116.56"/><line class="cls-5" x1="88.57" y1="116.56" x2="88.57" y2="111.48"/><line class="cls-5" x1="152.06" y1="124.18" x2="152.06" y2="116.56"/><line class="cls-5" x1="152.06" y1="116.56" x2="152.06" y2="111.48"/><line class="cls-5" x1="204.12" y1="111.48" x2="152.06" y2="111.48"/><line class="cls-5" x1="88.57" y1="111.48" x2="0.96" y2="111.48"/><line class="cls-5" x1="13.66" y1="124.18" x2="88.57" y2="124.18"/><line class="cls-5" x1="152.06" y1="124.18" x2="216.82" y2="124.18"/><line class="cls-5" x1="152.06" y1="111.48" x2="84.84" y2="111.48"/><path class="cls-5" d="M149.52,116.56A58.41,58.41,0,0,1,91.11,175"/><line class="cls-5" x1="152.06" y1="111.48" x2="149.52" y2="111.48"/><line class="cls-5" x1="149.52" y1="111.48" x2="149.52" y2="116.56"/><line class="cls-5" x1="149.52" y1="116.56" x2="152.06" y2="116.56"/><line class="cls-5" x1="152.06" y1="116.56" x2="152.06" y2="111.48"/><line class="cls-5" x1="88.57" y1="116.56" x2="91.11" y2="116.56"/><line class="cls-5" x1="91.11" y1="116.56" x2="91.11" y2="111.48"/><line class="cls-5" x1="91.11" y1="111.48" x2="88.57" y2="111.48"/><line class="cls-5" x1="88.57" y1="111.48" x2="88.57" y2="116.56"/><line class="cls-5" x1="91.11" y1="116.56" x2="91.11" y2="174.97"/><line class="cls-5" x1="152.06" y1="116.56" x2="152.06" y2="111.48"/><line class="cls-5" x1="152.06" y1="116.56" x2="152.06" y2="111.48"/><line class="cls-5" x1="152.06" y1="124.18" x2="152.06" y2="116.56"/><line class="cls-5" x1="88.57" y1="116.56" x2="88.57" y2="111.48"/><line class="cls-5" x1="88.57" y1="116.56" x2="88.57" y2="111.48"/><line class="cls-5" x1="88.57" y1="124.18" x2="88.57" y2="116.56"/><line class="cls-5" x1="216.82" y1="124.18" x2="216.82" y2="13.07"/><line class="cls-5" x1="204.12" y1="13.07" x2="204.12" y2="111.48"/><line class="cls-5" x1="13.66" y1="501.93" x2="13.66" y2="263.85"/><line class="cls-5" x1="13.66" y1="200.36" x2="13.66" y2="124.18"/><line class="cls-5" x1="0.96" y1="111.48" x2="0.96" y2="200.36"/><line class="cls-5" x1="0.96" y1="263.85" x2="0.96" y2="376.23"/><line class="cls-5" x1="0.96" y1="439.72" x2="0.96" y2="501.93"/><line class="cls-5" x1="0.96" y1="501.93" x2="13.66" y2="501.93"/><line class="cls-5" x1="204.12" y1="0.38" x2="204.12" y2="7.99"/><line class="cls-5" x1="204.12" y1="7.99" x2="204.12" y2="13.07"/><line class="cls-5" x1="413.63" y1="0.38" x2="378.32" y2="0.38"/><line class="cls-5" x1="314.59" y1="0.38" x2="204.12" y2="0.38"/><line class="cls-5" x1="216.82" y1="13.07" x2="403.47" y2="13.07"/><line class="cls-5" x1="403.47" y1="13.07" x2="403.47" y2="0.38"/><line class="cls-5" x1="204.12" y1="7.99" x2="204.12" y2="13.07"/><line class="cls-5" x1="204.12" y1="7.99" x2="204.12" y2="13.07"/><line class="cls-5" x1="204.12" y1="7.99" x2="204.12" y2="13.07"/><line class="cls-5" x1="204.12" y1="0.38" x2="204.12" y2="7.99"/><line class="cls-5" x1="406.55" y1="6.72" x2="412.9" y2="0.38"/><line class="cls-5" x1="410.14" y1="6.72" x2="410.52" y2="6.34"/><line class="cls-5" x1="411.42" y1="5.44" x2="411.42" y2="5.44"/><line class="cls-5" x1="412.32" y1="4.54" x2="413.63" y2="3.23"/><line class="cls-5" x1="404.24" y1="5.44" x2="406.93" y2="2.75"/><line class="cls-5" x1="407.83" y1="1.85" x2="407.83" y2="1.85"/><line class="cls-5" x1="105.4" y1="567.33" x2="103.81" y2="565.74"/><line class="cls-5" x1="103.81" y1="565.74" x2="103.81" y2="529.23"/><line class="cls-5" x1="103.81" y1="529.23" x2="105.4" y2="529.23"/><line class="cls-5" x1="105.4" y1="529.23" x2="105.4" y2="567.33"/><line class="cls-5" x1="43.81" y1="567.33" x2="45.4" y2="565.74"/><line class="cls-5" x1="45.4" y1="565.74" x2="103.81" y2="565.74"/><line class="cls-5" x1="103.81" y1="565.74" x2="105.4" y2="567.33"/><line class="cls-5" x1="105.4" y1="567.33" x2="43.81" y2="567.33"/><line class="cls-5" x1="43.81" y1="529.23" x2="43.81" y2="567.33"/><line class="cls-5" x1="45.4" y1="529.23" x2="43.81" y2="529.23"/><line class="cls-5" x1="45.4" y1="565.74" x2="45.4" y2="529.23"/><line class="cls-5" x1="43.81" y1="567.33" x2="45.4" y2="565.74"/><line class="cls-5" x1="104.6" y1="566.53" x2="104.6" y2="555.33"/><line class="cls-5" x1="104.6" y1="549.73" x2="104.6" y2="549.73"/><line class="cls-5" x1="104.6" y1="545.26" x2="104.6" y2="540.43"/><line class="cls-5" x1="104.6" y1="540.43" x2="104.6" y2="529.23"/><line class="cls-5" x1="44.61" y1="566.53" x2="55.81" y2="566.53"/><line class="cls-5" x1="61.4" y1="566.53" x2="61.4" y2="566.53"/><line class="cls-5" x1="65.89" y1="566.53" x2="77.08" y2="566.53"/><line class="cls-5" x1="82.68" y1="566.53" x2="82.68" y2="566.53"/><line class="cls-5" x1="87.16" y1="566.53" x2="93.4" y2="566.53"/><line class="cls-5" x1="93.4" y1="566.53" x2="104.6" y2="566.53"/><line class="cls-5" x1="46.99" y1="555.9" x2="102.22" y2="555.9"/><line class="cls-5" x1="102.22" y1="555.9" x2="102.22" y2="535.58"/><line class="cls-5" x1="102.22" y1="535.58" x2="46.99" y2="535.58"/><line class="cls-5" x1="46.99" y1="535.58" x2="46.99" y2="555.9"/><line class="cls-5" x1="46.99" y1="553.87" x2="102.22" y2="553.87"/><line class="cls-5" x1="102.22" y1="553.87" x2="102.22" y2="535.58"/><line class="cls-5" x1="102.22" y1="535.58" x2="46.99" y2="535.58"/><line class="cls-5" x1="46.99" y1="535.58" x2="46.99" y2="553.87"/><line class="cls-5" x1="44.61" y1="566.53" x2="44.61" y2="555.33"/><line class="cls-5" x1="44.61" y1="549.73" x2="44.61" y2="549.73"/><line class="cls-5" x1="44.61" y1="545.26" x2="44.61" y2="540.43"/><line class="cls-5" x1="44.61" y1="540.43" x2="44.61" y2="529.23"/><line class="cls-5" x1="62.83" y1="205.44" x2="63.18" y2="205.09"/><line class="cls-5" x1="50.48" y1="205.44" x2="63.18" y2="205.44"/><line class="cls-5" x1="63.18" y1="200.37" x2="50.48" y2="200.37"/><line class="cls-5" x1="50.48" y1="163.54" x2="50.48" y2="150.84"/><line class="cls-5" x1="45.4" y1="150.84" x2="45.4" y2="163.54"/><line class="cls-5" x1="0.96" y1="225.12" x2="0.96" y2="230.2"/><line class="cls-5" x1="21.59" y1="200.89" x2="22.11" y2="200.36"/><line class="cls-5" x1="21.59" y1="200.36" x2="31.12" y2="200.36"/><line class="cls-5" x1="31.12" y1="205.44" x2="21.59" y2="205.44"/><line class="cls-5" x1="0.38" y1="263.85" x2="0.96" y2="263.27"/><line class="cls-5" x1="0.96" y1="258.77" x2="0.96" y2="263.85"/><line class="cls-5" x1="245.91" y1="38.52" x2="245.96" y2="38.47"/><line class="cls-5" x1="255.43" y1="43.55" x2="245.91" y2="43.55"/><line class="cls-5" x1="245.91" y1="38.47" x2="255.43" y2="38.47"/><line class="cls-5" x1="390.78" y1="43.55" x2="403.47" y2="43.55"/><line class="cls-5" x1="403.47" y1="43.55" x2="403.47" y2="38.47"/><line class="cls-5" x1="403.47" y1="38.47" x2="390.78" y2="38.47"/><line class="cls-5" x1="371.73" y1="32.12" x2="371.73" y2="19.42"/><line class="cls-5" x1="366.65" y1="19.42" x2="366.65" y2="32.12"/><line class="cls-5" x1="196.32" y1="511.45" x2="197.77" y2="510"/><line class="cls-5" x1="189.13" y1="511.45" x2="197.77" y2="502.81"/><line class="cls-5" x1="185.07" y1="508.33" x2="197.77" y2="495.63"/><line class="cls-5" x1="185.07" y1="501.15" x2="197.77" y2="488.45"/><line class="cls-5" x1="185.07" y1="493.96" x2="197.77" y2="481.27"/><line class="cls-5" x1="185.07" y1="486.78" x2="197.77" y2="474.08"/><line class="cls-5" x1="185.07" y1="479.6" x2="197.77" y2="466.9"/><line class="cls-5" x1="185.07" y1="472.42" x2="197.77" y2="459.72"/><line class="cls-5" x1="185.07" y1="465.23" x2="197.77" y2="452.53"/><line class="cls-5" x1="185.07" y1="458.05" x2="195.16" y2="447.97"/><line class="cls-5" x1="185.07" y1="450.87" x2="187.97" y2="447.97"/><line class="cls-5" x1="192.72" y1="511.45" x2="195.04" y2="509.14"/><line class="cls-5" x1="195.94" y1="508.24" x2="195.94" y2="508.24"/><line class="cls-5" x1="196.84" y1="507.34" x2="197.77" y2="506.41"/><line class="cls-5" x1="185.54" y1="511.45" x2="186.96" y2="510.04"/><line class="cls-5" x1="187.86" y1="509.14" x2="187.86" y2="509.14"/><line class="cls-5" x1="188.75" y1="508.24" x2="191.45" y2="505.55"/><line class="cls-5" x1="192.34" y1="504.65" x2="192.34" y2="504.65"/><line class="cls-5" x1="193.24" y1="503.75" x2="195.94" y2="501.06"/><line class="cls-5" x1="196.84" y1="500.16" x2="196.84" y2="500.16"/><line class="cls-5" x1="197.73" y1="499.26" x2="197.77" y2="499.22"/><line class="cls-5" x1="185.16" y1="504.65" x2="187.86" y2="501.96"/><line class="cls-5" x1="188.75" y1="501.06" x2="188.75" y2="501.06"/><line class="cls-5" x1="189.65" y1="500.16" x2="192.34" y2="497.47"/><line class="cls-5" x1="193.24" y1="496.57" x2="193.24" y2="496.57"/><line class="cls-5" x1="194.14" y1="495.67" x2="196.84" y2="492.98"/><line class="cls-5" x1="197.73" y1="492.08" x2="197.73" y2="492.08"/><line class="cls-5" x1="185.16" y1="497.47" x2="185.16" y2="497.47"/><line class="cls-5" x1="186.06" y1="496.57" x2="188.75" y2="493.87"/><line class="cls-5" x1="189.65" y1="492.98" x2="189.65" y2="492.98"/><line class="cls-5" x1="190.55" y1="492.08" x2="193.24" y2="489.39"/><line class="cls-5" x1="194.14" y1="488.49" x2="194.14" y2="488.49"/><line class="cls-5" x1="195.04" y1="487.59" x2="197.73" y2="484.9"/><line class="cls-5" x1="185.07" y1="490.37" x2="185.16" y2="490.28"/><line class="cls-5" x1="186.06" y1="489.39" x2="186.06" y2="489.39"/><line class="cls-5" x1="186.96" y1="488.49" x2="189.65" y2="485.8"/><line class="cls-5" x1="190.55" y1="484.9" x2="190.55" y2="484.9"/><line class="cls-5" x1="191.45" y1="484" x2="194.14" y2="481.31"/><line class="cls-5" x1="195.04" y1="480.41" x2="195.04" y2="480.41"/><line class="cls-5" x1="195.94" y1="479.51" x2="197.77" y2="477.68"/><line class="cls-5" x1="185.07" y1="483.19" x2="186.06" y2="482.2"/><line class="cls-5" x1="186.96" y1="481.31" x2="186.96" y2="481.31"/><line class="cls-5" x1="187.86" y1="480.41" x2="190.55" y2="477.71"/><line class="cls-5" x1="191.45" y1="476.82" x2="191.45" y2="476.82"/><line class="cls-5" x1="192.34" y1="475.92" x2="195.04" y2="473.23"/><line class="cls-5" x1="195.94" y1="472.33" x2="195.94" y2="472.33"/><line class="cls-5" x1="196.84" y1="471.43" x2="197.77" y2="470.49"/><line class="cls-5" x1="185.07" y1="476.01" x2="186.96" y2="474.12"/><line class="cls-5" x1="187.86" y1="473.23" x2="187.86" y2="473.23"/><line class="cls-5" x1="188.75" y1="472.33" x2="191.45" y2="469.64"/><line class="cls-5" x1="192.34" y1="468.74" x2="192.34" y2="468.74"/><line class="cls-5" x1="193.24" y1="467.84" x2="195.94" y2="465.14"/><line class="cls-5" x1="196.84" y1="464.25" x2="196.84" y2="464.25"/><line class="cls-5" x1="197.73" y1="463.35" x2="197.77" y2="463.31"/><line class="cls-5" x1="185.16" y1="468.74" x2="187.86" y2="466.04"/><line class="cls-5" x1="188.75" y1="465.14" x2="188.75" y2="465.14"/><line class="cls-5" x1="189.65" y1="464.25" x2="192.34" y2="461.55"/><line class="cls-5" x1="193.24" y1="460.65" x2="193.24" y2="460.65"/><line class="cls-5" x1="194.14" y1="459.76" x2="196.84" y2="457.06"/><line class="cls-5" x1="197.73" y1="456.17" x2="197.73" y2="456.17"/><line class="cls-5" x1="185.16" y1="461.55" x2="185.16" y2="461.55"/><line class="cls-5" x1="186.06" y1="460.65" x2="188.75" y2="457.96"/><line class="cls-5" x1="189.65" y1="457.06" x2="189.65" y2="457.06"/><line class="cls-5" x1="190.55" y1="456.17" x2="193.24" y2="453.47"/><line class="cls-5" x1="194.14" y1="452.58" x2="194.14" y2="452.58"/><line class="cls-5" x1="195.04" y1="451.68" x2="197.73" y2="448.98"/><line class="cls-5" x1="185.07" y1="454.46" x2="185.16" y2="454.37"/><line class="cls-5" x1="186.06" y1="453.47" x2="186.06" y2="453.47"/><line class="cls-5" x1="186.96" y1="452.58" x2="189.65" y2="449.88"/><line class="cls-5" x1="190.55" y1="448.98" x2="190.55" y2="448.98"/><line class="cls-5" x1="191.45" y1="448.08" x2="191.57" y2="447.97"/><line class="cls-5" x1="185.07" y1="511.45" x2="197.77" y2="511.45"/><line class="cls-5" x1="197.77" y1="511.45" x2="197.77" y2="447.97"/><line class="cls-5" x1="197.77" y1="447.97" x2="185.07" y2="447.97"/><line class="cls-5" x1="185.07" y1="447.97" x2="185.07" y2="511.45"/><line class="cls-5" x1="192.52" y1="263.85" x2="197.77" y2="258.6"/><line class="cls-5" x1="185.34" y1="263.85" x2="197.77" y2="251.41"/><line class="cls-5" x1="185.07" y1="256.93" x2="197.77" y2="244.23"/><line class="cls-5" x1="185.07" y1="249.75" x2="197.77" y2="237.05"/><line class="cls-5" x1="185.07" y1="242.56" x2="197.77" y2="229.87"/><line class="cls-5" x1="185.07" y1="235.38" x2="197.77" y2="222.68"/><line class="cls-5" x1="185.07" y1="228.2" x2="197.77" y2="215.5"/><line class="cls-5" x1="185.07" y1="221.02" x2="197.77" y2="208.32"/><line class="cls-5" x1="185.07" y1="213.83" x2="197.77" y2="201.13"/><line class="cls-5" x1="185.07" y1="206.65" x2="191.36" y2="200.36"/><line class="cls-5" x1="196.11" y1="263.85" x2="197.77" y2="262.19"/><line class="cls-5" x1="188.93" y1="263.85" x2="190.55" y2="262.23"/><line class="cls-5" x1="191.45" y1="261.33" x2="191.45" y2="261.33"/><line class="cls-5" x1="192.34" y1="260.43" x2="195.04" y2="257.74"/><line class="cls-5" x1="195.94" y1="256.84" x2="195.94" y2="256.84"/><line class="cls-5" x1="196.84" y1="255.94" x2="197.77" y2="255.01"/><line class="cls-5" x1="185.07" y1="260.52" x2="186.96" y2="258.64"/><line class="cls-5" x1="187.86" y1="257.74" x2="187.86" y2="257.74"/><line class="cls-5" x1="188.75" y1="256.84" x2="191.45" y2="254.15"/><line class="cls-5" x1="192.34" y1="253.25" x2="192.34" y2="253.25"/><line class="cls-5" x1="193.24" y1="252.35" x2="195.94" y2="249.66"/><line class="cls-5" x1="196.84" y1="248.76" x2="196.84" y2="248.76"/><line class="cls-5" x1="197.73" y1="247.86" x2="197.77" y2="247.82"/><line class="cls-5" x1="185.16" y1="253.25" x2="187.86" y2="250.56"/><line class="cls-5" x1="188.75" y1="249.66" x2="188.75" y2="249.66"/><line class="cls-5" x1="189.65" y1="248.76" x2="192.34" y2="246.07"/><line class="cls-5" x1="193.24" y1="245.17" x2="193.24" y2="245.17"/><line class="cls-5" x1="194.14" y1="244.27" x2="196.84" y2="241.58"/><line class="cls-5" x1="197.73" y1="240.68" x2="197.73" y2="240.68"/><line class="cls-5" x1="185.16" y1="246.07" x2="185.16" y2="246.07"/><line class="cls-5" x1="186.06" y1="245.17" x2="188.75" y2="242.47"/><line class="cls-5" x1="189.65" y1="241.58" x2="189.65" y2="241.58"/><line class="cls-5" x1="190.55" y1="240.68" x2="193.24" y2="237.99"/><line class="cls-5" x1="194.14" y1="237.09" x2="194.14" y2="237.09"/><line class="cls-5" x1="195.04" y1="236.19" x2="197.73" y2="233.5"/><line class="cls-5" x1="185.07" y1="238.97" x2="185.16" y2="238.88"/><line class="cls-5" x1="186.06" y1="237.99" x2="186.06" y2="237.99"/><line class="cls-5" x1="186.96" y1="237.09" x2="189.65" y2="234.4"/><line class="cls-5" x1="190.55" y1="233.5" x2="190.55" y2="233.5"/><line class="cls-5" x1="191.45" y1="232.6" x2="194.14" y2="229.91"/><line class="cls-5" x1="195.04" y1="229.01" x2="195.04" y2="229.01"/><line class="cls-5" x1="195.94" y1="228.11" x2="197.77" y2="226.28"/><line class="cls-5" x1="185.07" y1="231.79" x2="186.06" y2="230.8"/><line class="cls-5" x1="186.96" y1="229.91" x2="186.96" y2="229.91"/><line class="cls-5" x1="187.86" y1="229.01" x2="190.55" y2="226.31"/><line class="cls-5" x1="191.45" y1="225.42" x2="191.45" y2="225.42"/><line class="cls-5" x1="192.34" y1="224.52" x2="195.04" y2="221.82"/><line class="cls-5" x1="195.94" y1="220.93" x2="195.94" y2="220.93"/><line class="cls-5" x1="196.84" y1="220.03" x2="197.77" y2="219.09"/><line class="cls-5" x1="185.07" y1="224.61" x2="186.96" y2="222.72"/><line class="cls-5" x1="187.86" y1="221.82" x2="187.86" y2="221.82"/><line class="cls-5" x1="188.75" y1="220.93" x2="191.45" y2="218.23"/><line class="cls-5" x1="192.34" y1="217.34" x2="192.34" y2="217.34"/><line class="cls-5" x1="193.24" y1="216.44" x2="195.94" y2="213.74"/><line class="cls-5" x1="196.84" y1="212.85" x2="196.84" y2="212.85"/><line class="cls-5" x1="197.73" y1="211.95" x2="197.77" y2="211.91"/><line class="cls-5" x1="185.16" y1="217.34" x2="187.86" y2="214.64"/><line class="cls-5" x1="188.75" y1="213.74" x2="188.75" y2="213.74"/><line class="cls-5" x1="189.65" y1="212.85" x2="192.34" y2="210.15"/><line class="cls-5" x1="193.24" y1="209.25" x2="193.24" y2="209.25"/><line class="cls-5" x1="194.14" y1="208.36" x2="196.84" y2="205.66"/><line class="cls-5" x1="197.73" y1="204.77" x2="197.73" y2="204.77"/><line class="cls-5" x1="185.16" y1="210.15" x2="185.16" y2="210.15"/><line class="cls-5" x1="186.06" y1="209.25" x2="188.75" y2="206.56"/><line class="cls-5" x1="189.65" y1="205.66" x2="189.65" y2="205.66"/><line class="cls-5" x1="190.55" y1="204.77" x2="193.24" y2="202.07"/><line class="cls-5" x1="194.14" y1="201.18" x2="194.14" y2="201.18"/><line class="cls-5" x1="185.07" y1="203.06" x2="185.16" y2="202.97"/><line class="cls-5" x1="186.06" y1="202.07" x2="186.06" y2="202.07"/><line class="cls-5" x1="186.96" y1="201.18" x2="187.77" y2="200.36"/><line class="cls-5" x1="185.07" y1="263.85" x2="197.77" y2="263.85"/><line class="cls-5" x1="197.77" y1="263.85" x2="197.77" y2="200.36"/><line class="cls-5" x1="197.77" y1="200.36" x2="185.07" y2="200.36"/><line class="cls-5" x1="185.07" y1="200.36" x2="185.07" y2="263.85"/><line class="cls-5" x1="9.47" y1="439.72" x2="13.65" y2="435.53"/><line class="cls-5" x1="2.29" y1="439.72" x2="13.65" y2="428.35"/><line class="cls-5" x1="0.96" y1="433.86" x2="13.65" y2="421.17"/><line class="cls-5" x1="0.96" y1="426.68" x2="13.65" y2="413.98"/><line class="cls-5" x1="0.96" y1="419.5" x2="13.65" y2="406.8"/><line class="cls-5" x1="0.96" y1="412.31" x2="13.65" y2="399.62"/><line class="cls-5" x1="0.96" y1="405.13" x2="13.65" y2="392.43"/><line class="cls-5" x1="0.96" y1="397.95" x2="13.65" y2="385.25"/><line class="cls-5" x1="0.96" y1="390.77" x2="13.65" y2="378.07"/><line class="cls-5" x1="0.96" y1="383.58" x2="8.31" y2="376.23"/><line class="cls-5" x1="0.96" y1="376.4" x2="1.13" y2="376.23"/><line class="cls-5" x1="13.06" y1="439.72" x2="13.65" y2="439.12"/><line class="cls-5" x1="5.88" y1="439.72" x2="7.39" y2="438.21"/><line class="cls-5" x1="8.29" y1="437.31" x2="8.29" y2="437.31"/><line class="cls-5" x1="9.18" y1="436.41" x2="11.88" y2="433.72"/><line class="cls-5" x1="12.77" y1="432.82" x2="12.77" y2="432.82"/><line class="cls-5" x1="1.1" y1="437.31" x2="3.79" y2="434.62"/><line class="cls-5" x1="4.69" y1="433.72" x2="4.69" y2="433.72"/><line class="cls-5" x1="5.59" y1="432.82" x2="8.29" y2="430.13"/><line class="cls-5" x1="9.18" y1="429.23" x2="9.18" y2="429.23"/><line class="cls-5" x1="10.08" y1="428.33" x2="12.77" y2="425.64"/><line class="cls-5" x1="1.1" y1="430.13" x2="1.1" y2="430.13"/><line class="cls-5" x1="2" y1="429.23" x2="4.69" y2="426.54"/><line class="cls-5" x1="5.59" y1="425.64" x2="5.59" y2="425.64"/><line class="cls-5" x1="6.49" y1="424.74" x2="9.18" y2="422.05"/><line class="cls-5" x1="10.08" y1="421.15" x2="10.08" y2="421.15"/><line class="cls-5" x1="10.98" y1="420.25" x2="13.65" y2="417.57"/><line class="cls-5" x1="0.96" y1="423.09" x2="1.1" y2="422.95"/><line class="cls-5" x1="2" y1="422.05" x2="2" y2="422.05"/><line class="cls-5" x1="2.9" y1="421.15" x2="5.59" y2="418.46"/><line class="cls-5" x1="6.49" y1="417.56" x2="6.49" y2="417.56"/><line class="cls-5" x1="7.39" y1="416.66" x2="10.08" y2="413.97"/><line class="cls-5" x1="10.98" y1="413.07" x2="10.98" y2="413.07"/><line class="cls-5" x1="11.88" y1="412.17" x2="13.65" y2="410.39"/><line class="cls-5" x1="0.96" y1="415.91" x2="2" y2="414.86"/><line class="cls-5" x1="2.9" y1="413.97" x2="2.9" y2="413.97"/><line class="cls-5" x1="3.79" y1="413.07" x2="6.49" y2="410.38"/><line class="cls-5" x1="7.39" y1="409.48" x2="7.39" y2="409.48"/><line class="cls-5" x1="8.29" y1="408.58" x2="10.98" y2="405.89"/><line class="cls-5" x1="11.88" y1="404.99" x2="11.88" y2="404.99"/><line class="cls-5" x1="12.77" y1="404.09" x2="13.65" y2="403.21"/><line class="cls-5" x1="0.96" y1="408.72" x2="2.9" y2="406.78"/><line class="cls-5" x1="3.79" y1="405.89" x2="3.79" y2="405.89"/><line class="cls-5" x1="4.69" y1="404.99" x2="7.39" y2="402.29"/><line class="cls-5" x1="8.29" y1="401.4" x2="8.29" y2="401.4"/><line class="cls-5" x1="9.18" y1="400.5" x2="11.88" y2="397.8"/><line class="cls-5" x1="12.77" y1="396.91" x2="12.77" y2="396.91"/><line class="cls-5" x1="1.1" y1="401.4" x2="3.79" y2="398.7"/><line class="cls-5" x1="4.69" y1="397.8" x2="4.69" y2="397.8"/><line class="cls-5" x1="5.59" y1="396.91" x2="8.29" y2="394.21"/><line class="cls-5" x1="9.18" y1="393.32" x2="9.18" y2="393.32"/><line class="cls-5" x1="10.08" y1="392.42" x2="12.77" y2="389.73"/><line class="cls-5" x1="1.1" y1="394.21" x2="1.1" y2="394.21"/><line class="cls-5" x1="2" y1="393.32" x2="4.69" y2="390.62"/><line class="cls-5" x1="5.59" y1="389.73" x2="5.59" y2="389.73"/><line class="cls-5" x1="6.49" y1="388.83" x2="9.18" y2="386.13"/><line class="cls-5" x1="10.08" y1="385.23" x2="10.08" y2="385.23"/><line class="cls-5" x1="10.98" y1="384.34" x2="13.65" y2="381.66"/><line class="cls-5" x1="0.96" y1="387.17" x2="1.1" y2="387.03"/><line class="cls-5" x1="2" y1="386.13" x2="2" y2="386.13"/><line class="cls-5" x1="2.9" y1="385.23" x2="5.59" y2="382.54"/><line class="cls-5" x1="6.49" y1="381.64" x2="6.49" y2="381.64"/><line class="cls-5" x1="7.39" y1="380.75" x2="10.08" y2="378.05"/><line class="cls-5" x1="10.98" y1="377.16" x2="10.98" y2="377.16"/><line class="cls-5" x1="0.96" y1="379.99" x2="2" y2="378.95"/><line class="cls-5" x1="2.9" y1="378.05" x2="2.9" y2="378.05"/><line class="cls-5" x1="3.79" y1="377.16" x2="4.72" y2="376.23"/><line class="cls-5" x1="0.96" y1="439.72" x2="13.65" y2="439.72"/><line class="cls-5" x1="13.65" y1="439.72" x2="13.65" y2="376.23"/><line class="cls-5" x1="13.65" y1="376.23" x2="0.96" y2="376.23"/><line class="cls-5" x1="0.96" y1="376.23" x2="0.96" y2="439.72"/><line class="cls-5" x1="12.95" y1="263.85" x2="13.66" y2="263.14"/><line class="cls-5" x1="5.76" y1="263.85" x2="13.66" y2="255.96"/><line class="cls-5" x1="0.96" y1="254.29" x2="13.66" y2="241.59"/><line class="cls-5" x1="0.96" y1="247.11" x2="13.66" y2="234.41"/><line class="cls-5" x1="0.96" y1="239.93" x2="13.66" y2="227.23"/><line class="cls-5" x1="0.96" y1="232.74" x2="13.66" y2="220.04"/><line class="cls-5" x1="0.96" y1="225.56" x2="13.66" y2="212.86"/><line class="cls-5" x1="0.96" y1="218.38" x2="13.66" y2="205.68"/><line class="cls-5" x1="0.96" y1="211.19" x2="11.79" y2="200.36"/><line class="cls-5" x1="0.96" y1="204.01" x2="4.61" y2="200.36"/><line class="cls-5" x1="9.36" y1="263.85" x2="10.98" y2="262.23"/><line class="cls-5" x1="11.88" y1="261.33" x2="11.88" y2="261.33"/><line class="cls-5" x1="12.77" y1="260.43" x2="13.66" y2="259.55"/><line class="cls-5" x1="2.17" y1="263.85" x2="2.9" y2="263.13"/><line class="cls-5" x1="3.79" y1="262.23" x2="3.79" y2="262.23"/><line class="cls-5" x1="8.29" y1="257.74" x2="8.29" y2="257.74"/><line class="cls-5" x1="9.18" y1="256.84" x2="11.88" y2="254.15"/><line class="cls-5" x1="12.77" y1="253.25" x2="12.77" y2="253.25"/><line class="cls-5" x1="1.1" y1="257.74" x2="3.79" y2="255.04"/><line class="cls-5" x1="4.69" y1="254.15" x2="4.69" y2="254.15"/><line class="cls-5" x1="5.59" y1="253.25" x2="8.29" y2="250.56"/><line class="cls-5" x1="9.18" y1="249.66" x2="9.18" y2="249.66"/><line class="cls-5" x1="10.08" y1="248.76" x2="12.77" y2="246.07"/><line class="cls-5" x1="1.1" y1="250.56" x2="1.1" y2="250.56"/><line class="cls-5" x1="2" y1="249.66" x2="4.69" y2="246.97"/><line class="cls-5" x1="5.59" y1="246.07" x2="5.59" y2="246.07"/><line class="cls-5" x1="6.49" y1="245.17" x2="9.18" y2="242.47"/><line class="cls-5" x1="10.08" y1="241.58" x2="10.08" y2="241.58"/><line class="cls-5" x1="10.98" y1="240.68" x2="13.66" y2="238"/><line class="cls-5" x1="0.96" y1="243.52" x2="1.1" y2="243.37"/><line class="cls-5" x1="2" y1="242.47" x2="2" y2="242.47"/><line class="cls-5" x1="2.9" y1="241.58" x2="5.59" y2="238.88"/><line class="cls-5" x1="6.49" y1="237.99" x2="6.49" y2="237.99"/><line class="cls-5" x1="7.39" y1="237.09" x2="10.08" y2="234.4"/><line class="cls-5" x1="10.98" y1="233.5" x2="10.98" y2="233.5"/><line class="cls-5" x1="11.88" y1="232.6" x2="13.66" y2="230.82"/><line class="cls-5" x1="0.96" y1="236.34" x2="2" y2="235.29"/><line class="cls-5" x1="2.9" y1="234.4" x2="2.9" y2="234.4"/><line class="cls-5" x1="3.79" y1="233.5" x2="6.49" y2="230.8"/><line class="cls-5" x1="7.39" y1="229.91" x2="7.39" y2="229.91"/><line class="cls-5" x1="8.29" y1="229.01" x2="10.98" y2="226.31"/><line class="cls-5" x1="11.88" y1="225.42" x2="11.88" y2="225.42"/><line class="cls-5" x1="12.77" y1="224.52" x2="13.66" y2="223.64"/><line class="cls-5" x1="0.96" y1="229.15" x2="2.9" y2="227.21"/><line class="cls-5" x1="3.79" y1="226.31" x2="3.79" y2="226.31"/><line class="cls-5" x1="4.69" y1="225.42" x2="7.39" y2="222.72"/><line class="cls-5" x1="8.29" y1="221.82" x2="8.29" y2="221.82"/><line class="cls-5" x1="9.18" y1="220.93" x2="11.88" y2="218.23"/><line class="cls-5" x1="12.77" y1="217.34" x2="12.77" y2="217.34"/><line class="cls-5" x1="1.1" y1="221.82" x2="3.79" y2="219.13"/><line class="cls-5" x1="4.69" y1="218.23" x2="4.69" y2="218.23"/><line class="cls-5" x1="5.59" y1="217.34" x2="8.29" y2="214.64"/><line class="cls-5" x1="9.18" y1="213.74" x2="9.18" y2="213.74"/><line class="cls-5" x1="10.08" y1="212.85" x2="12.77" y2="210.15"/><line class="cls-5" x1="1.1" y1="214.64" x2="1.1" y2="214.64"/><line class="cls-5" x1="2" y1="213.74" x2="4.69" y2="211.05"/><line class="cls-5" x1="5.59" y1="210.15" x2="5.59" y2="210.15"/><line class="cls-5" x1="6.49" y1="209.25" x2="9.18" y2="206.56"/><line class="cls-5" x1="10.08" y1="205.66" x2="10.08" y2="205.66"/><line class="cls-5" x1="10.98" y1="204.77" x2="13.66" y2="202.09"/><line class="cls-5" x1="0.96" y1="207.6" x2="1.1" y2="207.46"/><line class="cls-5" x1="2" y1="206.56" x2="2" y2="206.56"/><line class="cls-5" x1="2.9" y1="205.66" x2="5.59" y2="202.97"/><line class="cls-5" x1="6.49" y1="202.07" x2="6.49" y2="202.07"/><line class="cls-5" x1="7.39" y1="201.18" x2="8.2" y2="200.36"/><line class="cls-5" x1="0.96" y1="200.42" x2="1.01" y2="200.36"/><line class="cls-5" x1="0.96" y1="263.85" x2="13.66" y2="263.85"/><line class="cls-5" x1="13.66" y1="263.85" x2="13.66" y2="200.36"/><line class="cls-5" x1="13.66" y1="200.36" x2="0.96" y2="200.36"/><line class="cls-5" x1="0.96" y1="200.36" x2="0.96" y2="263.85"/><line class="cls-5" x1="371.47" y1="13.07" x2="378.08" y2="6.46"/><line class="cls-5" x1="364.29" y1="13.07" x2="376.98" y2="0.38"/><line class="cls-5" x1="357.1" y1="13.07" x2="369.8" y2="0.38"/><line class="cls-5" x1="349.92" y1="13.07" x2="362.62" y2="0.38"/><line class="cls-5" x1="342.74" y1="13.07" x2="355.43" y2="0.38"/><line class="cls-5" x1="335.55" y1="13.07" x2="348.25" y2="0.38"/><line class="cls-5" x1="328.37" y1="13.07" x2="341.07" y2="0.38"/><line class="cls-5" x1="321.19" y1="13.07" x2="333.88" y2="0.38"/><line class="cls-5" x1="314.59" y1="12.49" x2="326.7" y2="0.38"/><line class="cls-5" x1="314.59" y1="5.3" x2="319.52" y2="0.38"/><line class="cls-5" x1="375.51" y1="12.62" x2="378.08" y2="10.05"/><line class="cls-5" x1="367.88" y1="13.07" x2="370.12" y2="10.83"/><line class="cls-5" x1="371.02" y1="9.93" x2="371.02" y2="9.93"/><line class="cls-5" x1="371.92" y1="9.03" x2="374.61" y2="6.34"/><line class="cls-5" x1="375.51" y1="5.44" x2="375.51" y2="5.44"/><line class="cls-5" x1="376.41" y1="4.54" x2="378.08" y2="2.87"/><line class="cls-5" x1="360.69" y1="13.07" x2="362.04" y2="11.73"/><line class="cls-5" x1="362.94" y1="10.83" x2="362.94" y2="10.83"/><line class="cls-5" x1="363.84" y1="9.93" x2="366.53" y2="7.24"/><line class="cls-5" x1="367.43" y1="6.34" x2="367.43" y2="6.34"/><line class="cls-5" x1="368.33" y1="5.44" x2="371.02" y2="2.75"/><line class="cls-5" x1="371.92" y1="1.85" x2="371.92" y2="1.85"/><line class="cls-5" x1="372.82" y1="0.95" x2="373.39" y2="0.38"/><line class="cls-5" x1="353.51" y1="13.07" x2="353.96" y2="12.62"/><line class="cls-5" x1="354.86" y1="11.73" x2="354.86" y2="11.73"/><line class="cls-5" x1="355.76" y1="10.83" x2="358.45" y2="8.13"/><line class="cls-5" x1="359.35" y1="7.24" x2="359.35" y2="7.24"/><line class="cls-5" x1="360.25" y1="6.34" x2="362.94" y2="3.64"/><line class="cls-5" x1="363.84" y1="2.75" x2="363.84" y2="2.75"/><line class="cls-5" x1="364.73" y1="1.85" x2="366.21" y2="0.38"/><line class="cls-5" x1="346.78" y1="12.62" x2="346.78" y2="12.62"/><line class="cls-5" x1="347.67" y1="11.73" x2="350.37" y2="9.03"/><line class="cls-5" x1="351.27" y1="8.13" x2="351.27" y2="8.13"/><line class="cls-5" x1="352.16" y1="7.24" x2="354.86" y2="4.54"/><line class="cls-5" x1="355.76" y1="3.64" x2="355.76" y2="3.64"/><line class="cls-5" x1="356.65" y1="2.75" x2="359.03" y2="0.38"/><line class="cls-5" x1="339.6" y1="12.62" x2="342.29" y2="9.93"/><line class="cls-5" x1="343.19" y1="9.03" x2="343.19" y2="9.03"/><line class="cls-5" x1="344.08" y1="8.13" x2="346.78" y2="5.44"/><line class="cls-5" x1="347.67" y1="4.54" x2="347.67" y2="4.54"/><line class="cls-5" x1="348.57" y1="3.64" x2="351.27" y2="0.95"/><line class="cls-5" x1="331.96" y1="13.07" x2="334.21" y2="10.83"/><line class="cls-5" x1="335.1" y1="9.93" x2="335.1" y2="9.93"/><line class="cls-5" x1="336" y1="9.03" x2="338.7" y2="6.34"/><line class="cls-5" x1="339.6" y1="5.44" x2="339.6" y2="5.44"/><line class="cls-5" x1="340.49" y1="4.54" x2="343.19" y2="1.85"/><line class="cls-5" x1="344.08" y1="0.95" x2="344.08" y2="0.95"/><line class="cls-5" x1="324.78" y1="13.07" x2="326.13" y2="11.73"/><line class="cls-5" x1="327.02" y1="10.83" x2="327.02" y2="10.83"/><line class="cls-5" x1="327.92" y1="9.93" x2="330.62" y2="7.24"/><line class="cls-5" x1="331.51" y1="6.34" x2="331.51" y2="6.34"/><line class="cls-5" x1="332.41" y1="5.44" x2="335.1" y2="2.75"/><line class="cls-5" x1="336" y1="1.85" x2="336" y2="1.85"/><line class="cls-5" x1="336.9" y1="0.95" x2="337.48" y2="0.38"/><line class="cls-5" x1="317.6" y1="13.07" x2="318.04" y2="12.62"/><line class="cls-5" x1="318.94" y1="11.73" x2="318.94" y2="11.73"/><line class="cls-5" x1="319.84" y1="10.83" x2="322.54" y2="8.13"/><line class="cls-5" x1="323.43" y1="7.24" x2="323.43" y2="7.24"/><line class="cls-5" x1="324.33" y1="6.34" x2="327.02" y2="3.64"/><line class="cls-5" x1="327.92" y1="2.75" x2="327.92" y2="2.75"/><line class="cls-5" x1="328.82" y1="1.85" x2="330.29" y2="0.38"/><line class="cls-5" x1="315.35" y1="8.13" x2="315.35" y2="8.13"/><line class="cls-5" x1="316.25" y1="7.24" x2="318.94" y2="4.54"/><line class="cls-5" x1="319.84" y1="3.64" x2="319.84" y2="3.64"/><line class="cls-5" x1="320.74" y1="2.75" x2="323.11" y2="0.38"/><line class="cls-5" x1="314.59" y1="1.71" x2="315.35" y2="0.95"/><line class="cls-5" x1="378.08" y1="13.07" x2="378.08" y2="0.38"/><line class="cls-5" x1="378.08" y1="0.38" x2="314.59" y2="0.38"/><line class="cls-5" x1="314.59" y1="0.38" x2="314.59" y2="13.07"/><line class="cls-5" x1="314.59" y1="13.07" x2="378.08" y2="13.07"/><path class="cls-5" d="M219.25,65a54.63,54.63,0,0,1,54.63,54.63h0"/><line class="cls-5" x1="219.25" y1="119.66" x2="219.25" y2="65.03"/><path class="cls-5" d="M183,263.39A58.41,58.41,0,0,1,124.56,205h0"/><line class="cls-5" x1="182.97" y1="204.99" x2="182.97" y2="263.39"/><path class="cls-5" d="M199.8,263.39A58.41,58.41,0,0,0,258.21,205h0"/><line class="cls-5" x1="199.8" y1="204.99" x2="199.8" y2="263.39"/></svg>