<svg id="_489" data-name="489" xmlns="http://www.w3.org/2000/svg" viewBox="0 0 206.54 981.53"><defs><style>.cls-1,.cls-2,.cls-6{fill:none;}.cls-1{stroke:#999;}.cls-1,.cls-6{stroke-linecap:round;stroke-linejoin:round;}.cls-3{isolation:isolate;font-size:12px;fill:#999;}.cls-3,.cls-5,.cls-7{font-family:PTSans-Regular, PT Sans;}.cls-4{letter-spacing:-0.01em;}.cls-5{font-size:20px;}.cls-6{stroke:#000;stroke-width:0.5px;}.cls-7{font-size:24px;}</style></defs><title>4floor_489flat</title><line class="cls-1" x1="84.42" y1="976.33" x2="84.42" y2="967.53"/><polyline class="cls-1" points="80.92 973.03 84.42 976.53 87.92 973.03"/><rect class="cls-2" x="93.82" y="967.53" width="31.8" height="14"/><text class="cls-3" transform="translate(93.68 975.9)"><tspan class="cls-4">у</tspan><tspan x="5.42" y="0">лица</tspan></text><line class="cls-1" x1="84.42" y1="2.02" x2="84.42" y2="10.82"/><polyline class="cls-1" points="80.92 5.32 84.42 1.82 87.92 5.32"/><rect class="cls-2" x="93.82" y="1.82" width="31.8" height="14"/><text class="cls-3" transform="translate(93.68 10.2)">двор</text><text class="cls-5" transform="translate(60.14 868.01)">15.80</text><text class="cls-5" transform="translate(74.7 610.78)">6.53</text><text class="cls-5" transform="translate(122.71 515.71)">4.90</text><text class="cls-5" transform="translate(47.29 463.47)">3.61</text><text class="cls-5" transform="translate(71.54 159.39)">17.85</text><text class="cls-5" transform="translate(76.15 93.86)">2.98</text><polyline class="cls-6" points="0.25 111.88 0.25 111.88 0.25 111.88"/><line class="cls-6" x1="0.25" y1="111.88" x2="0.25" y2="111.88"/><polyline class="cls-6" points="205.93 112.97 203.38 112.97 200.1 112.97"/><line class="cls-6" x1="206.29" y1="74.75" x2="205.93" y2="112.97"/><line class="cls-6" x1="200.1" y1="79.85" x2="200.1" y2="112.97"/><polyline class="cls-6" points="206.29 74.75 206.29 79.85 203.75 79.85 203.75 76.93"/><polyline class="cls-6" points="203.38 112.97 203.38 109.7 205.93 109.7 205.93 112.97"/><line class="cls-6" x1="206.29" y1="79.85" x2="205.93" y2="109.7"/><line class="cls-6" x1="203.38" y1="109.7" x2="203.74" y2="79.85"/><line class="cls-6" x1="203.74" y1="76.93" x2="206.29" y2="76.93"/><line class="cls-6" x1="205.93" y1="112.97" x2="203.38" y2="112.97"/><path d="M37,79.07Zm-5.83-7.28L37,79.07Z" transform="translate(0 -28.35)"/><path class="cls-6" d="M37,79.07Zm-5.83-7.28L37,79.07Z" transform="translate(0 -28.35)"/><line class="cls-6" x1="31.19" y1="43.44" x2="206.29" y2="74.75"/><line class="cls-6" x1="37.02" y1="50.72" x2="200.1" y2="79.85"/><polyline class="cls-6" points="33.38 46.35 36.65 47.08 37.02 44.53 31.19 43.44"/><polyline class="cls-6" points="206.29 74.75 201.2 74.02 200.83 76.21 203.75 76.93"/><line class="cls-6" x1="36.65" y1="47.08" x2="200.83" y2="76.21"/><line class="cls-6" x1="201.2" y1="74.02" x2="37.02" y2="44.53"/><line class="cls-6" x1="34.11" y1="44.17" x2="33.38" y2="46.36"/><line class="cls-6" x1="204.11" y1="74.39" x2="203.74" y2="76.93"/><path d="M37,79.07Zm-5.83-7.28L37,79.07Z" transform="translate(0 -28.35)"/><path class="cls-6" d="M37,79.07Zm-5.83-7.28L37,79.07Z" transform="translate(0 -28.35)"/><polyline class="cls-6" points="30.83 112.25 33.38 112.25 36.65 112.25"/><line class="cls-6" x1="31.19" y1="43.44" x2="30.83" y2="112.25"/><line class="cls-6" x1="37.02" y1="50.72" x2="36.65" y2="112.25"/><polyline class="cls-6" points="31.19 43.44 30.83 49.63 33.38 49.63 33.38 46.35"/><polyline class="cls-6" points="33.38 112.25 33.38 108.97 30.83 108.97 30.83 112.25"/><line class="cls-6" x1="30.83" y1="49.63" x2="30.83" y2="108.97"/><line class="cls-6" x1="33.38" y1="108.97" x2="33.38" y2="49.63"/><line class="cls-6" x1="33.38" y1="46.36" x2="30.83" y2="46.36"/><line class="cls-6" x1="30.83" y1="112.25" x2="33.38" y2="112.25"/><polyline class="cls-6" points="36.65 112.25 190.64 112.97 200.1 112.97 200.1 79.85 37.02 50.72 36.65 112.25"/><polyline class="cls-6" points="182.63 768.23 183 664.12 183.36 647.74 9.35 647.01 8.26 881.81 182.27 882.54 182.27 819.2 182.63 768.23"/><polyline class="cls-6" points="9.35 643.01 183.36 643.73 183.36 613.15 183.72 562.55 99.63 562.19 100 531.61 10.08 531.25 9.35 643.01"/><polyline class="cls-6" points="104.73 399.47 104 558.19 183.72 558.55 183.72 526.88 183.72 516.69 184.09 438.06 184.45 399.83 104.73 399.47"/><polyline class="cls-6" points="100.36 399.47 10.44 399.1 10.08 502.85 100 503.22 100.36 399.47"/><polyline class="cls-6" points="11.9 129.72 10.44 395.1 184.45 395.83 185.54 130.45 11.9 129.72"/><path d="M.25,930.91Z" transform="translate(0 -28.35)"/><path class="cls-6" d="M.25,930.91Z" transform="translate(0 -28.35)"/><path d="M25.37,930.91h0Zm0,0Z" transform="translate(0 -28.35)"/><path class="cls-6" d="M25.37,930.91h0Zm0,0Z" transform="translate(0 -28.35)"/><path d="M.25,930.91l26.94.36H.25Zm25.12,0H.25l26.94.36Z" transform="translate(0 -28.35)"/><path class="cls-6" d="M.25,930.91l26.94.36H.25Zm25.12,0H.25l26.94.36Z" transform="translate(0 -28.35)"/><path d="M27.19,937.1H.25v-5.83Zm0,0Z" transform="translate(0 -28.35)"/><path class="cls-6" d="M27.19,937.1H.25v-5.83Zm0,0Z" transform="translate(0 -28.35)"/><polygon points="0.25 902.93 27.19 902.93 27.19 908.75 0.25 902.93"/><polygon class="cls-6" points="0.25 902.93 27.19 902.93 27.19 908.75 0.25 902.93"/><path d="M74.15,931.27h0Z" transform="translate(0 -28.35)"/><path class="cls-6" d="M74.15,931.27h0Z" transform="translate(0 -28.35)"/><path d="M74.15,931.27l37.13.37H74.15Zm1.82,0H74.15l37.13.37Z" transform="translate(0 -28.35)"/><path class="cls-6" d="M74.15,931.27l37.13.37H74.15Zm1.82,0H74.15l37.13.37Z" transform="translate(0 -28.35)"/><path d="M113.1,931.64h0Zm0,0Z" transform="translate(0 -28.35)"/><path class="cls-6" d="M113.1,931.64h0Zm0,0Z" transform="translate(0 -28.35)"/><path d="M113.1,937.46H74.15v-5.82Zm0,0Z" transform="translate(0 -28.35)"/><path class="cls-6" d="M113.1,937.46H74.15v-5.82Zm0,0Z" transform="translate(0 -28.35)"/><polygon points="74.15 903.29 113.1 903.29 113.1 909.12 74.15 903.29"/><polygon class="cls-6" points="74.15 903.29 113.1 903.29 113.1 909.12 74.15 903.29"/><path d="M160.06,931.64h0Z" transform="translate(0 -28.35)"/><path class="cls-6" d="M160.06,931.64h0Z" transform="translate(0 -28.35)"/><path d="M160.06,931.64l32.4.36h-32.4Zm1.82,0h-1.82l32.4.36Z" transform="translate(0 -28.35)"/><path class="cls-6" d="M160.06,931.64l32.4.36h-32.4Zm1.82,0h-1.82l32.4.36Z" transform="translate(0 -28.35)"/><path d="M192.46,932h0Zm0,0Z" transform="translate(0 -28.35)"/><path class="cls-6" d="M192.46,932h0Zm0,0Z" transform="translate(0 -28.35)"/><path d="M160.06,937.82h32.4v.37Zm0-5.82v5.82h32.4Z" transform="translate(0 -28.35)"/><path class="cls-6" d="M160.06,937.82h32.4v.37Zm0-5.82v5.82h32.4Z" transform="translate(0 -28.35)"/><polygon points="160.06 903.65 192.46 903.65 192.46 909.48 160.06 903.65"/><polygon class="cls-6" points="160.06 903.65 192.46 903.65 192.46 909.48 160.06 903.65"/><path d="M.25,930.54h0Z" transform="translate(0 -28.35)"/><path class="cls-6" d="M.25,930.54h0Z" transform="translate(0 -28.35)"/><path d="M25.37,930.91H.25v-.37Zm0,0Z" transform="translate(0 -28.35)"/><path class="cls-6" d="M25.37,930.91H.25v-.37Zm0,0Z" transform="translate(0 -28.35)"/><polygon points="0.25 902.2 25.37 902.2 25.37 902.56 0.25 902.2"/><polygon class="cls-6" points="0.25 902.2 25.37 902.2 25.37 902.56 0.25 902.2"/><path d="M76,930.91h0Z" transform="translate(0 -28.35)"/><path class="cls-6" d="M76,930.91h0Z" transform="translate(0 -28.35)"/><path d="M76,931.27h35.31v.37Zm0-.36v.36h35.31Z" transform="translate(0 -28.35)"/><path class="cls-6" d="M76,931.27h35.31v.37Zm0-.36v.36h35.31Z" transform="translate(0 -28.35)"/><polygon points="75.97 902.56 111.28 902.56 111.28 902.93 75.97 902.56"/><polygon class="cls-6" points="75.97 902.56 111.28 902.56 111.28 902.93 75.97 902.56"/><path d="M161.88,931.27h0Z" transform="translate(0 -28.35)"/><path class="cls-6" d="M161.88,931.27h0Z" transform="translate(0 -28.35)"/><path d="M161.88,931.64h30.58V932Zm0-.37v.37h30.58Z" transform="translate(0 -28.35)"/><path class="cls-6" d="M161.88,931.64h30.58V932Zm0-.37v.37h30.58Z" transform="translate(0 -28.35)"/><polygon points="161.88 902.93 192.46 902.93 192.46 903.29 161.88 902.93"/><polygon class="cls-6" points="161.88 902.93 192.46 902.93 192.46 903.29 161.88 902.93"/><path d="M.25,922.9h0Z" transform="translate(0 -28.35)"/><path class="cls-6" d="M.25,922.9h0Z" transform="translate(0 -28.35)"/><path d="M.25,922.9l25.12,5.46H.25Zm25.12,0H.25l25.12,5.46Z" transform="translate(0 -28.35)"/><path class="cls-6" d="M.25,922.9l25.12,5.46H.25Zm25.12,0H.25l25.12,5.46Z" transform="translate(0 -28.35)"/><path d="M.25,928.36l25.12.36H.25Zm25.12,0H.25l25.12.36Z" transform="translate(0 -28.35)"/><path class="cls-6" d="M.25,928.36l25.12.36H.25Zm25.12,0H.25l25.12.36Z" transform="translate(0 -28.35)"/><path d="M25.37,930.54H.25v-1.82Zm0,0Z" transform="translate(0 -28.35)"/><path class="cls-6" d="M25.37,930.54H.25v-1.82Zm0,0Z" transform="translate(0 -28.35)"/><polygon points="0.25 900.38 25.37 900.38 25.37 902.2 0.25 900.38"/><polygon class="cls-6" points="0.25 900.38 25.37 900.38 25.37 902.2 0.25 900.38"/><path d="M76,923.26h0Z" transform="translate(0 -28.35)"/><path class="cls-6" d="M76,923.26h0Z" transform="translate(0 -28.35)"/><path d="M76,923.26l35.31,5.46H76Zm35.31,0H76l35.31,5.46Z" transform="translate(0 -28.35)"/><path class="cls-6" d="M76,923.26l35.31,5.46H76Zm35.31,0H76l35.31,5.46Z" transform="translate(0 -28.35)"/><path d="M76,928.72l35.31.37H76Zm35.31,0H76l35.31.37Z" transform="translate(0 -28.35)"/><path class="cls-6" d="M76,928.72l35.31.37H76Zm35.31,0H76l35.31.37Z" transform="translate(0 -28.35)"/><path d="M111.28,930.91H76v-1.82Zm0,0Z" transform="translate(0 -28.35)"/><path class="cls-6" d="M111.28,930.91H76v-1.82Zm0,0Z" transform="translate(0 -28.35)"/><polygon points="75.97 900.74 111.28 900.74 111.28 902.56 75.97 900.74"/><polygon class="cls-6" points="75.97 900.74 111.28 900.74 111.28 902.56 75.97 900.74"/><path d="M161.88,923.63h0Z" transform="translate(0 -28.35)"/><path class="cls-6" d="M161.88,923.63h0Z" transform="translate(0 -28.35)"/><path d="M161.88,923.63l30.58,5.46H161.88Zm30.58,0H161.88l30.58,5.46Z" transform="translate(0 -28.35)"/><path class="cls-6" d="M161.88,923.63l30.58,5.46H161.88Zm30.58,0H161.88l30.58,5.46Z" transform="translate(0 -28.35)"/><path d="M161.88,929.09l30.58.36H161.88Zm30.58,0H161.88l30.58.36Z" transform="translate(0 -28.35)"/><path class="cls-6" d="M161.88,929.09l30.58.36H161.88Zm30.58,0H161.88l30.58.36Z" transform="translate(0 -28.35)"/><path d="M192.46,931.27H161.88v-1.82Zm0,0Z" transform="translate(0 -28.35)"/><path class="cls-6" d="M192.46,931.27H161.88v-1.82Zm0,0Z" transform="translate(0 -28.35)"/><polygon points="161.88 901.11 192.46 901.11 192.46 902.93 161.88 901.11"/><polygon class="cls-6" points="161.88 901.11 192.46 901.11 192.46 902.93 161.88 901.11"/><path d="M8.26,910.16h0Z" transform="translate(0 -28.35)"/><path class="cls-6" d="M8.26,910.16h0Z" transform="translate(0 -28.35)"/><path d="M25.37,922.9H8.26V910.16Zm0,0Z" transform="translate(0 -28.35)"/><path class="cls-6" d="M25.37,922.9H8.26V910.16Zm0,0Z" transform="translate(0 -28.35)"/><polygon points="8.26 881.81 25.37 881.81 25.37 894.55 8.26 881.81"/><polygon class="cls-6" points="8.26 881.81 25.37 881.81 25.37 894.55 8.26 881.81"/><path d="M76.33,910.52h0Z" transform="translate(0 -28.35)"/><path class="cls-6" d="M76.33,910.52h0Z" transform="translate(0 -28.35)"/><path d="M111.28,923.26H76l.36-12.74Zm0,0Z" transform="translate(0 -28.35)"/><path class="cls-6" d="M111.28,923.26H76l.36-12.74Zm0,0Z" transform="translate(0 -28.35)"/><polygon points="76.33 882.18 111.28 882.18 111.28 894.92 76.33 882.18"/><polygon class="cls-6" points="76.33 882.18 111.28 882.18 111.28 894.92 76.33 882.18"/><polygon points="161.88 882.54 192.46 882.9 161.88 882.9 161.88 882.54"/><polygon class="cls-6" points="161.88 882.54 192.46 882.9 161.88 882.9 161.88 882.54"/><path d="M192.46,923.63H161.88V911.25Zm0,0Z" transform="translate(0 -28.35)"/><path class="cls-6" d="M192.46,923.63H161.88V911.25Zm0,0Z" transform="translate(0 -28.35)"/><polygon points="161.88 882.9 192.46 882.9 192.46 895.28 161.88 882.9"/><polygon class="cls-6" points="161.88 882.9 192.46 882.9 192.46 895.28 161.88 882.9"/><path d="M.25,910.16h0Z" transform="translate(0 -28.35)"/><path class="cls-6" d="M.25,910.16h0Z" transform="translate(0 -28.35)"/><path d="M8.26,922.9h-8V910.16Zm0,0Z" transform="translate(0 -28.35)"/><path class="cls-6" d="M8.26,922.9h-8V910.16Zm0,0Z" transform="translate(0 -28.35)"/><polygon points="0.25 881.81 8.26 881.81 8.26 894.55 0.25 881.81"/><polygon class="cls-6" points="0.25 881.81 8.26 881.81 8.26 894.55 0.25 881.81"/><path d="M.25,922.9Z" transform="translate(0 -28.35)"/><path class="cls-6" d="M.25,922.9Z" transform="translate(0 -28.35)"/><line class="cls-6" x1="161.88" y1="903.29" x2="192.46" y2="903.65"/><line class="cls-6" x1="0.25" y1="902.56" x2="25.37" y2="902.56"/><line class="cls-6" x1="75.97" y1="902.93" x2="111.28" y2="903.29"/><line class="cls-6" x1="161.88" y1="902.93" x2="192.46" y2="902.93"/><line class="cls-6" x1="0.25" y1="902.2" x2="25.37" y2="902.2"/><line class="cls-6" x1="75.97" y1="902.56" x2="111.28" y2="902.56"/><line class="cls-6" x1="0.25" y1="881.81" x2="0.25" y2="894.55"/><line class="cls-6" x1="8.26" y1="894.55" x2="8.26" y2="881.81"/><polyline class="cls-6" points="192.46 901.11 192.46 895.28 192.46 882.9"/><polyline class="cls-6" points="192.46 909.84 192.46 903.65 192.46 903.65"/><polyline class="cls-6" points="192.46 903.65 192.46 902.93 192.46 901.11"/><polyline class="cls-6" points="161.88 900.74 161.88 895.28 161.88 882.54"/><polyline class="cls-6" points="160.06 909.48 160.06 903.29 161.88 903.29"/><polyline class="cls-6" points="161.88 903.29 161.88 902.93 161.88 900.74"/><polyline class="cls-6" points="111.28 900.74 111.28 894.92 111.28 882.18"/><polyline class="cls-6" points="113.1 909.12 113.1 903.29 111.28 903.29"/><polyline class="cls-6" points="111.28 903.29 111.28 902.56 111.28 900.74"/><polyline class="cls-6" points="0.25 908.75 0.25 902.56 0.25 902.56"/><polyline class="cls-6" points="0.25 902.56 0.25 902.2 0.25 900.01"/><polyline class="cls-6" points="75.97 900.38 75.97 894.92 76.33 882.18"/><polyline class="cls-6" points="74.15 909.12 74.15 902.93 75.97 902.93"/><polyline class="cls-6" points="75.97 902.93 75.97 902.56 75.97 900.38"/><polyline class="cls-6" points="25.37 900.38 25.37 894.55 25.37 881.81"/><polyline class="cls-6" points="27.19 908.75 27.19 902.93 25.37 902.56"/><polyline class="cls-6" points="25.37 902.56 25.37 902.2 25.37 900.38"/><line class="cls-6" x1="0.25" y1="908.75" x2="27.19" y2="908.75"/><line class="cls-6" x1="74.15" y1="909.11" x2="113.1" y2="909.11"/><line class="cls-6" x1="160.06" y1="909.48" x2="192.46" y2="909.84"/><line class="cls-6" x1="192.46" y1="882.9" x2="161.88" y2="882.54"/><line class="cls-6" x1="111.28" y1="882.18" x2="76.33" y2="882.18"/><line class="cls-6" x1="25.37" y1="881.81" x2="8.26" y2="881.81"/><polyline class="cls-6" points="192.46 903.65 192.46 903.65 192.46 902.93 192.46 901.11"/><line class="cls-6" x1="113.1" y1="909.11" x2="160.06" y2="909.48"/><line class="cls-6" x1="111.28" y1="882.18" x2="161.88" y2="882.54"/><path d="M111.28,929.09h0Z" transform="translate(0 -28.35)"/><path class="cls-6" d="M111.28,929.09h0Z" transform="translate(0 -28.35)"/><path d="M117.1,931.64h-5.82v-2.55Zm0,0Z" transform="translate(0 -28.35)"/><path class="cls-6" d="M117.1,931.64h-5.82v-2.55Zm0,0Z" transform="translate(0 -28.35)"/><polygon points="111.28 900.74 117.11 900.74 117.11 903.29 111.28 900.74"/><polygon class="cls-6" points="111.28 900.74 117.11 900.74 117.11 903.29 111.28 900.74"/><path d="M156.06,929.09h0Z" transform="translate(0 -28.35)"/><path class="cls-6" d="M156.06,929.09h0Z" transform="translate(0 -28.35)"/><path d="M161.88,931.64h-6.19l.37-2.55Zm0,0Z" transform="translate(0 -28.35)"/><path class="cls-6" d="M161.88,931.64h-6.19l.37-2.55Zm0,0Z" transform="translate(0 -28.35)"/><polygon points="156.06 900.74 161.88 900.74 161.88 903.29 156.06 900.74"/><polygon class="cls-6" points="156.06 900.74 161.88 900.74 161.88 903.29 156.06 900.74"/><polyline class="cls-6" points="111.28 900.74 117.11 900.74 117.11 903.29 111.28 903.29"/><polyline class="cls-6" points="161.88 903.29 155.69 903.29 156.06 900.74 161.88 900.74"/><line class="cls-6" x1="117.1" y1="900.74" x2="156.06" y2="900.74"/><line class="cls-6" x1="155.69" y1="903.29" x2="117.1" y2="903.29"/><polyline class="cls-6" points="113.1 903.29 111.28 903.29 111.28 902.56 111.28 900.74"/><polyline class="cls-6" points="160.06 903.29 161.88 903.29 161.88 902.93 161.88 900.74"/><polyline class="cls-6" points="0.25 902.56 0.25 902.56 0.25 902.2 0.25 900.01"/><line class="cls-6" x1="27.19" y1="908.75" x2="74.15" y2="909.11"/><line class="cls-6" x1="25.37" y1="881.81" x2="76.33" y2="882.18"/><path d="M25.37,928.72h0Z" transform="translate(0 -28.35)"/><path class="cls-6" d="M25.37,928.72h0Z" transform="translate(0 -28.35)"/><path d="M25.37,930.91h5.82v.36Zm0-2.19v2.19h5.82Z" transform="translate(0 -28.35)"/><path class="cls-6" d="M25.37,930.91h5.82v.36Zm0-2.19v2.19h5.82Z" transform="translate(0 -28.35)"/><polygon points="25.37 900.38 31.19 900.38 31.19 902.56 25.37 900.38"/><polygon class="cls-6" points="25.37 900.38 31.19 900.38 31.19 902.56 25.37 900.38"/><path d="M70.14,928.72h0Z" transform="translate(0 -28.35)"/><path class="cls-6" d="M70.14,928.72h0Z" transform="translate(0 -28.35)"/><path d="M76,931.27H70.14v-2.55Zm0,0Z" transform="translate(0 -28.35)"/><path class="cls-6" d="M76,931.27H70.14v-2.55Zm0,0Z" transform="translate(0 -28.35)"/><polygon points="70.14 900.38 75.97 900.38 75.97 902.93 70.14 900.38"/><polygon class="cls-6" points="70.14 900.38 75.97 900.38 75.97 902.93 70.14 900.38"/><polyline class="cls-6" points="25.37 900.38 31.19 900.38 31.19 902.93 25.37 902.56"/><polyline class="cls-6" points="75.97 902.93 70.14 902.93 70.14 900.38 75.97 900.38"/><line class="cls-6" x1="31.19" y1="900.38" x2="70.14" y2="900.38"/><line class="cls-6" x1="70.14" y1="902.93" x2="31.19" y2="902.93"/><polyline class="cls-6" points="27.19 902.93 25.37 902.56 25.37 902.2 25.37 900.38"/><polyline class="cls-6" points="74.15 902.93 75.97 902.93 75.97 902.56 75.97 900.38"/><polygon points="0.25 111.88 37.38 112.25 0.25 112.25 0.25 111.88"/><polygon class="cls-6" points="0.25 111.88 37.38 112.25 0.25 112.25 0.25 111.88"/><path d="M37.38,145.32h0ZM.25,140.59l37.13,4.73H.25Zm37.13,0H.25l37.13,4.73Z" transform="translate(0 -28.35)"/><path class="cls-6" d="M37.38,145.32h0ZM.25,140.59l37.13,4.73H.25Zm37.13,0H.25l37.13,4.73Z" transform="translate(0 -28.35)"/><path d="M.25,145.32h0Z" transform="translate(0 -28.35)"/><path class="cls-6" d="M.25,145.32h0Z" transform="translate(0 -28.35)"/><path d="M37.38,145.69H35.2L.25,145.32Zm0,0Z" transform="translate(0 -28.35)"/><path class="cls-6" d="M37.38,145.69H35.2L.25,145.32Zm0,0Z" transform="translate(0 -28.35)"/><polygon points="0.25 116.98 37.38 116.98 37.38 117.34 0.25 116.98"/><polygon class="cls-6" points="0.25 116.98 37.38 116.98 37.38 117.34 0.25 116.98"/><polygon points="123.66 112.61 190.64 112.97 123.66 112.97 123.66 112.61"/><polygon class="cls-6" points="123.66 112.61 190.64 112.97 123.66 112.97 123.66 112.61"/><path d="M123.66,141.32l67,4.73h-67Zm67,0h-67l67,4.73Z" transform="translate(0 -28.35)"/><path class="cls-6" d="M123.66,141.32l67,4.73h-67Zm67,0h-67l67,4.73Z" transform="translate(0 -28.35)"/><path d="M125.84,146.05h64.8v.37Zm-2.18,0h0Z" transform="translate(0 -28.35)"/><path class="cls-6" d="M125.84,146.05h64.8v.37Zm-2.18,0h0Z" transform="translate(0 -28.35)"/><path d="M123.66,146.05h0Z" transform="translate(0 -28.35)"/><path class="cls-6" d="M123.66,146.05h0Z" transform="translate(0 -28.35)"/><path d="M.25,145.32Z" transform="translate(0 -28.35)"/><path class="cls-6" d="M.25,145.32Z" transform="translate(0 -28.35)"/><path d="M.25,145.32h0Z" transform="translate(0 -28.35)"/><path class="cls-6" d="M.25,145.32h0Z" transform="translate(0 -28.35)"/><path d="M11.9,158.06H.25V145.32Zm0,0Z" transform="translate(0 -28.35)"/><path class="cls-6" d="M11.9,158.06H.25V145.32Zm0,0Z" transform="translate(0 -28.35)"/><polygon points="0.25 116.98 11.9 116.98 11.9 129.72 0.25 116.98"/><polygon class="cls-6" points="0.25 116.98 11.9 116.98 11.9 129.72 0.25 116.98"/><polygon points="11.9 116.98 35.2 117.34 11.9 117.34 11.9 116.98"/><polygon class="cls-6" points="11.9 116.98 35.2 117.34 11.9 117.34 11.9 116.98"/><path d="M11.9,145.69l23.3,2.55H11.9Zm23.3,0H11.9l23.3,2.55Z" transform="translate(0 -28.35)"/><path class="cls-6" d="M11.9,145.69l23.3,2.55H11.9Zm23.3,0H11.9l23.3,2.55Z" transform="translate(0 -28.35)"/><path d="M11.9,158.06H35.2v.37Zm0-9.82v9.82H35.2Z" transform="translate(0 -28.35)"/><path class="cls-6" d="M11.9,158.06H35.2v.37Zm0-9.82v9.82H35.2Z" transform="translate(0 -28.35)"/><polygon points="11.9 119.89 35.2 119.89 35.2 129.72 11.9 119.89"/><polygon class="cls-6" points="11.9 119.89 35.2 119.89 35.2 129.72 11.9 119.89"/><polygon points="125.84 117.71 185.54 118.07 125.84 118.07 125.84 117.71"/><polygon class="cls-6" points="125.84 117.71 185.54 118.07 125.84 118.07 125.84 117.71"/><path d="M125.84,146.42l59.7,2.18h-59.7Zm59.7,0h-59.7l59.7,2.18Z" transform="translate(0 -28.35)"/><path class="cls-6" d="M125.84,146.42l59.7,2.18h-59.7Zm59.7,0h-59.7l59.7,2.18Z" transform="translate(0 -28.35)"/><path d="M185.54,158.79H125.48l.36-10.19Zm0,0Z" transform="translate(0 -28.35)"/><path class="cls-6" d="M185.54,158.79H125.48l.36-10.19Zm0,0Z" transform="translate(0 -28.35)"/><polygon points="125.84 120.25 185.54 120.25 185.54 130.45 125.84 120.25"/><polygon class="cls-6" points="125.84 120.25 185.54 120.25 185.54 130.45 125.84 120.25"/><path d="M185.54,146.42h0Z" transform="translate(0 -28.35)"/><path class="cls-6" d="M185.54,146.42h0Z" transform="translate(0 -28.35)"/><path d="M185.54,158.79h5.1v.37Zm0-12.37v12.37h5.1Z" transform="translate(0 -28.35)"/><path class="cls-6" d="M185.54,158.79h5.1v.37Zm0-12.37v12.37h5.1Z" transform="translate(0 -28.35)"/><polygon points="185.54 118.07 190.64 118.07 190.64 130.45 185.54 118.07"/><polygon class="cls-6" points="185.54 118.07 190.64 118.07 190.64 130.45 185.54 118.07"/><line class="cls-6" x1="0.25" y1="116.98" x2="0.25" y2="116.98"/><line class="cls-6" x1="11.9" y1="129.72" x2="11.9" y2="116.98"/><polyline class="cls-6" points="35.2 117.34 11.9 116.98 0.25 116.98 0.25 129.72"/><polyline class="cls-6" points="185.54 130.45 185.54 118.07 125.84 117.71"/><line class="cls-6" x1="190.64" y1="118.07" x2="185.54" y2="118.07"/><line class="cls-6" x1="35.2" y1="119.89" x2="35.2" y2="130.08"/><polyline class="cls-6" points="37.38 112.25 37.38 117.34 35.2 117.34 35.2 119.89"/><line class="cls-6" x1="125.84" y1="120.25" x2="125.48" y2="130.45"/><polyline class="cls-6" points="123.66 112.61 123.66 117.71 125.84 117.71 125.84 120.25"/><line class="cls-6" x1="11.9" y1="129.72" x2="35.2" y2="130.08"/><line class="cls-6" x1="125.48" y1="130.45" x2="185.54" y2="130.45"/><line class="cls-6" x1="190.64" y1="112.97" x2="123.66" y2="112.61"/><line class="cls-6" x1="37.38" y1="112.25" x2="0.25" y2="111.88"/><line class="cls-6" x1="123.66" y1="112.61" x2="37.38" y2="112.25"/><line class="cls-6" x1="125.48" y1="130.45" x2="35.2" y2="130.08"/><polyline class="cls-6" points="125.84 120.25 122.56 120.25 122.56 117.71 125.84 117.71"/><polyline class="cls-6" points="80.34 117.34 82.89 117.34 82.89 119.89 80.34 119.89"/><line class="cls-6" x1="122.57" y1="120.25" x2="82.89" y2="119.89"/><line class="cls-6" x1="82.89" y1="117.34" x2="122.57" y2="117.71"/><polyline class="cls-6" points="80.34 119.89 77.79 119.89 77.79 117.34 80.34 117.34"/><polyline class="cls-6" points="35.2 117.34 38.47 117.34 38.11 119.89 35.2 119.89"/><line class="cls-6" x1="77.79" y1="119.89" x2="38.11" y2="119.89"/><line class="cls-6" x1="38.47" y1="117.34" x2="77.79" y2="117.34"/><polyline class="cls-6" points="123.66 117.71 125.84 117.71 125.84 120.25"/><polyline class="cls-6" points="37.38 117.34 35.2 117.34 35.2 119.89"/><path d="M190.64,141.32h0Z" transform="translate(0 -28.35)"/><path class="cls-6" d="M190.64,141.32h0Z" transform="translate(0 -28.35)"/><path d="M190.64,141.32l15.29,5.1H190.64Zm15.29,0H190.64l15.29,5.1Z" transform="translate(0 -28.35)"/><path class="cls-6" d="M190.64,141.32l15.29,5.1H190.64Zm15.29,0H190.64l15.29,5.1Z" transform="translate(0 -28.35)"/><path d="M205.93,146.42h0Zm0,0Zm-15.29,0h0Z" transform="translate(0 -28.35)"/><path class="cls-6" d="M205.93,146.42h0Zm0,0Zm-15.29,0h0Z" transform="translate(0 -28.35)"/><path d="M190.64,146.42h0Z" transform="translate(0 -28.35)"/><path class="cls-6" d="M190.64,146.42h0Z" transform="translate(0 -28.35)"/><path d="M193.92,159.16h-3.28V146.42Zm0,0Z" transform="translate(0 -28.35)"/><path class="cls-6" d="M193.92,159.16h-3.28V146.42Zm0,0Z" transform="translate(0 -28.35)"/><polygon points="190.64 118.07 193.92 118.07 193.92 130.81 190.64 118.07"/><polygon class="cls-6" points="190.64 118.07 193.92 118.07 193.92 130.81 190.64 118.07"/><path d="M193.92,146.42h0Z" transform="translate(0 -28.35)"/><path class="cls-6" d="M193.92,146.42h0Z" transform="translate(0 -28.35)"/><path d="M193.92,146.42l9.82,2.54h-9.82Zm9.82,0h-9.82l9.82,2.54Z" transform="translate(0 -28.35)"/><path class="cls-6" d="M193.92,146.42l9.82,2.54h-9.82Zm9.82,0h-9.82l9.82,2.54Z" transform="translate(0 -28.35)"/><path d="M203.74,159.16h-9.82V149Zm0,0Z" transform="translate(0 -28.35)"/><path class="cls-6" d="M203.74,159.16h-9.82V149Zm0,0Z" transform="translate(0 -28.35)"/><polygon points="193.92 120.62 203.75 120.62 203.75 130.81 193.92 120.62"/><polygon class="cls-6" points="193.92 120.62 203.75 120.62 203.75 130.81 193.92 120.62"/><polyline class="cls-6" points="193.92 130.81 193.92 118.07 190.64 118.07"/><line class="cls-6" x1="203.74" y1="118.07" x2="193.92" y2="118.07"/><line class="cls-6" x1="203.74" y1="120.62" x2="203.74" y2="130.81"/><polyline class="cls-6" points="205.93 112.97 205.93 118.07 203.75 118.07 203.75 120.62"/><line class="cls-6" x1="193.92" y1="130.81" x2="203.74" y2="130.81"/><line class="cls-6" x1="205.93" y1="112.97" x2="190.64" y2="112.97"/><path d="M203.74,146.42h0Z" transform="translate(0 -28.35)"/><path class="cls-6" d="M203.74,146.42h0Z" transform="translate(0 -28.35)"/><path d="M205.93,149h-2.19v-2.54Zm0,0Z" transform="translate(0 -28.35)"/><path class="cls-6" d="M205.93,149h-2.19v-2.54Zm0,0Z" transform="translate(0 -28.35)"/><polygon points="203.75 118.07 205.93 118.07 205.93 120.62 203.75 118.07"/><polygon class="cls-6" points="203.75 118.07 205.93 118.07 205.93 120.62 203.75 118.07"/><polyline class="cls-6" points="203.75 118.07 205.93 118.07 205.93 120.62 203.75 120.62"/><polyline class="cls-6" points="205.93 118.07 203.75 118.07 203.75 120.62"/><path d="M.25,158.06h0Z" transform="translate(0 -28.35)"/><path class="cls-6" d="M.25,158.06h0Z" transform="translate(0 -28.35)"/><path d="M8.26,910.16h-8V158.06Zm0,0Z" transform="translate(0 -28.35)"/><path class="cls-6" d="M8.26,910.16h-8V158.06Zm0,0Z" transform="translate(0 -28.35)"/><polygon points="0.25 129.72 11.9 129.72 8.26 881.81 0.25 129.72"/><polygon class="cls-6" points="0.25 129.72 11.9 129.72 8.26 881.81 0.25 129.72"/><line class="cls-6" x1="8.26" y1="881.81" x2="11.9" y2="129.72"/><line class="cls-6" x1="0.25" y1="129.72" x2="0.25" y2="881.81"/><path d="M183,692.47h0Z" transform="translate(0 -28.35)"/><path class="cls-6" d="M183,692.47h0Z" transform="translate(0 -28.35)"/><path d="M192.82,796.58H182.63L183,692.47Zm0,0Z" transform="translate(0 -28.35)"/><path class="cls-6" d="M192.82,796.58H182.63L183,692.47Zm0,0Z" transform="translate(0 -28.35)"/><polygon points="183 664.12 193.19 664.12 192.82 768.23 183 664.12"/><polygon class="cls-6" points="183 664.12 193.19 664.12 192.82 768.23 183 664.12"/><polyline class="cls-6" points="192.82 768.23 193.19 664.12 183 664.12 182.63 768.23 192.82 768.23"/><polygon points="183.36 613.15 193.55 613.52 183.36 613.52 183.36 613.15"/><polygon class="cls-6" points="183.36 613.15 193.55 613.52 183.36 613.52 183.36 613.15"/><path d="M193.19,692.47H183l.37-50.61Zm0,0Z" transform="translate(0 -28.35)"/><path class="cls-6" d="M193.19,692.47H183l.37-50.61Zm0,0Z" transform="translate(0 -28.35)"/><polygon points="183.36 613.52 193.55 613.52 193.19 664.12 183.36 613.52"/><polygon class="cls-6" points="183.36 613.52 193.55 613.52 193.19 664.12 183.36 613.52"/><polyline class="cls-6" points="183.36 613.15 183 664.12 193.19 664.12 193.55 613.52 183.36 613.15"/><polygon points="183.72 516.69 193.92 517.05 183.72 517.05 183.72 516.69"/><polygon class="cls-6" points="183.72 516.69 193.92 517.05 183.72 517.05 183.72 516.69"/><path d="M183.72,555.22h10.2v.37Zm0-9.82v9.82h10.2Z" transform="translate(0 -28.35)"/><path class="cls-6" d="M183.72,555.22h10.2v.37Zm0-9.82v9.82h10.2Z" transform="translate(0 -28.35)"/><polygon points="183.72 517.05 193.92 517.05 193.92 526.88 183.72 517.05"/><polygon class="cls-6" points="183.72 517.05 193.92 517.05 193.92 526.88 183.72 517.05"/><polyline class="cls-6" points="193.92 517.05 183.72 516.69 183.72 526.88 193.92 527.24 193.92 517.05"/><path d="M183.72,555.22h0Z" transform="translate(0 -28.35)"/><path class="cls-6" d="M183.72,555.22h0Z" transform="translate(0 -28.35)"/><path d="M183.36,641.5h10.19v.36Zm.36-86.28-.36,86.28h10.19Z" transform="translate(0 -28.35)"/><path class="cls-6" d="M183.36,641.5h10.19v.36Zm.36-86.28-.36,86.28h10.19Z" transform="translate(0 -28.35)"/><polygon points="183.72 526.88 193.92 526.88 193.55 613.15 183.72 526.88"/><polygon class="cls-6" points="183.72 526.88 193.92 526.88 193.55 613.15 183.72 526.88"/><polyline class="cls-6" points="193.55 613.52 193.92 526.88 183.72 526.88 183.36 613.15 193.55 613.52"/><path d="M182.63,796.58h0Z" transform="translate(0 -28.35)"/><path class="cls-6" d="M182.63,796.58h0Z" transform="translate(0 -28.35)"/><path d="M192.46,847.54H182.27l.36-51Zm0,0Z" transform="translate(0 -28.35)"/><path class="cls-6" d="M192.46,847.54H182.27l.36-51Zm0,0Z" transform="translate(0 -28.35)"/><polygon points="182.63 768.23 192.82 768.23 192.46 819.2 182.63 768.23"/><polygon class="cls-6" points="182.63 768.23 192.82 768.23 192.46 819.2 182.63 768.23"/><polyline class="cls-6" points="182.63 768.23 182.27 819.2 192.46 819.2 192.82 768.23 182.63 768.23"/><path d="M182.27,847.54h0Z" transform="translate(0 -28.35)"/><path class="cls-6" d="M182.27,847.54h0Z" transform="translate(0 -28.35)"/><path d="M192.46,910.89H182.27V847.54Zm0,0Z" transform="translate(0 -28.35)"/><path class="cls-6" d="M192.46,910.89H182.27V847.54Zm0,0Z" transform="translate(0 -28.35)"/><polygon points="182.27 819.2 192.46 819.2 192.46 882.54 182.27 819.2"/><polygon class="cls-6" points="182.27 819.2 192.46 819.2 192.46 882.54 182.27 819.2"/><polyline class="cls-6" points="182.27 819.2 182.27 882.54 192.46 882.54 192.46 819.2 182.27 819.2"/><path d="M9.35,671.35h0Z" transform="translate(0 -28.35)"/><path class="cls-6" d="M9.35,671.35h0Z" transform="translate(0 -28.35)"/><path d="M9.35,675.36H41v.36Zm0-4v4H41Z" transform="translate(0 -28.35)"/><path class="cls-6" d="M9.35,675.36H41v.36Zm0-4v4H41Z" transform="translate(0 -28.35)"/><polygon points="9.35 643.01 41.02 643.01 41.02 647.01 9.35 643.01"/><polygon class="cls-6" points="9.35 643.01 41.02 643.01 41.02 647.01 9.35 643.01"/><path d="M152.78,672.08h0Z" transform="translate(0 -28.35)"/><path class="cls-6" d="M152.78,672.08h0Z" transform="translate(0 -28.35)"/><path d="M183.36,676.08H152.78v-4Zm0,0Z" transform="translate(0 -28.35)"/><path class="cls-6" d="M183.36,676.08H152.78v-4Zm0,0Z" transform="translate(0 -28.35)"/><polygon points="152.78 643.73 183.36 643.73 183.36 647.74 152.78 643.73"/><polygon class="cls-6" points="152.78 643.73 183.36 643.73 183.36 647.74 152.78 643.73"/><line class="cls-6" x1="152.78" y1="647.74" x2="152.78" y2="643.73"/><polyline class="cls-6" points="9.35 647.01 41.02 647.37 41.02 643.01"/><polyline class="cls-6" points="152.78 647.74 183.36 647.74 183.36 643.73 152.78 643.73"/><polyline class="cls-6" points="41.02 643.01 9.35 643.01 9.35 647.01"/><polyline class="cls-6" points="41.02 647.37 63.59 663.39 86.53 647.37"/><polyline class="cls-6" points="152.78 647.74 129.85 663.76 106.91 647.37"/><line class="cls-6" x1="41.02" y1="647.37" x2="41.02" y2="643.01"/><line class="cls-6" x1="152.78" y1="647.74" x2="152.78" y2="643.73"/><path d="M152.78,424.17h0Z" transform="translate(0 -28.35)"/><path class="cls-6" d="M152.78,424.17h0Z" transform="translate(0 -28.35)"/><path d="M186.27,428.18H152.78v-4Zm0,0Z" transform="translate(0 -28.35)"/><path class="cls-6" d="M186.27,428.18H152.78v-4Zm0,0Z" transform="translate(0 -28.35)"/><polygon points="152.78 395.83 186.27 395.83 186.27 399.83 152.78 395.83"/><polygon class="cls-6" points="152.78 395.83 186.27 395.83 186.27 399.83 152.78 395.83"/><polygon points="10.44 395.1 107.28 395.46 10.44 395.46 10.44 395.1"/><polygon class="cls-6" points="10.44 395.1 107.28 395.46 10.44 395.46 10.44 395.1"/><path d="M10.44,427.45h96.84v.36Zm0-3.64v3.64h96.84Z" transform="translate(0 -28.35)"/><path class="cls-6" d="M10.44,427.45h96.84v.36Zm0-3.64v3.64h96.84Z" transform="translate(0 -28.35)"/><polygon points="10.44 395.46 107.28 395.46 107.28 399.1 10.44 395.46"/><polygon class="cls-6" points="10.44 395.46 107.28 395.46 107.28 399.1 10.44 395.46"/><line class="cls-6" x1="152.78" y1="395.83" x2="152.78" y2="399.83"/><line class="cls-6" x1="107.28" y1="395.46" x2="107.28" y2="399.47"/><line class="cls-6" x1="186.27" y1="395.83" x2="152.78" y2="395.83"/><polyline class="cls-6" points="107.28 395.46 10.44 395.1 10.44 399.1 100.36 399.47"/><line class="cls-6" x1="104.73" y1="399.47" x2="107.28" y2="399.47"/><polyline class="cls-6" points="152.78 399.83 186.27 399.83 186.27 395.83"/><line class="cls-6" x1="107.28" y1="395.46" x2="109.82" y2="395.46"/><line class="cls-6" x1="107.28" y1="399.47" x2="109.82" y2="399.47"/><line class="cls-6" x1="152.78" y1="395.83" x2="150.23" y2="395.83"/><line class="cls-6" x1="152.78" y1="399.83" x2="150.23" y2="399.83"/><line class="cls-6" x1="109.82" y1="399.47" x2="109.82" y2="395.46"/><polyline class="cls-6" points="150.23 399.83 150.23 395.83 150.6 355.06"/><path class="cls-6" d="M150.6,383.4a40.6,40.6,0,0,0-40.78,40.4" transform="translate(0 -28.35)"/><path d="M100,507.54h0Z" transform="translate(0 -28.35)"/><path class="cls-6" d="M100,507.54h0Z" transform="translate(0 -28.35)"/><path d="M100,507.54l4,79H99.63Zm4.36,0H100l4,79Z" transform="translate(0 -28.35)"/><path class="cls-6" d="M100,507.54l4,79H99.63Zm4.36,0H100l4,79Z" transform="translate(0 -28.35)"/><path d="M99.63,590.54v-4H104Zm0,0h0v0Z" transform="translate(0 -28.35)"/><path class="cls-6" d="M99.63,590.54v-4H104Zm0,0h0v0Z" transform="translate(0 -28.35)"/><path d="M100.36,427.81h0Z" transform="translate(0 -28.35)"/><path class="cls-6" d="M100.36,427.81h0Z" transform="translate(0 -28.35)"/><path d="M104.36,467.13h-4V427.81Zm0,0Z" transform="translate(0 -28.35)"/><path class="cls-6" d="M104.36,467.13h-4V427.81Zm0,0Z" transform="translate(0 -28.35)"/><polygon points="100.36 399.47 104.73 399.47 104.36 438.78 100.36 399.47"/><polygon class="cls-6" points="100.36 399.47 104.73 399.47 104.36 438.78 100.36 399.47"/><line class="cls-6" x1="104.36" y1="479.19" x2="100" y2="479.19"/><polyline class="cls-6" points="104.36 438.78 100.36 438.78 100.36 399.47"/><line class="cls-6" x1="100" y1="479.19" x2="100" y2="503.22"/><line class="cls-6" x1="100" y1="507.22" x2="100" y2="527.61"/><line class="cls-6" x1="100" y1="531.61" x2="99.63" y2="562.19"/><line class="cls-6" x1="104" y1="558.19" x2="104.36" y2="479.19"/><line class="cls-6" x1="104.36" y1="438.78" x2="104.73" y2="399.47"/><line class="cls-6" x1="104.36" y1="438.78" x2="104.36" y2="441.33"/><line class="cls-6" x1="100.36" y1="438.78" x2="100.36" y2="441.33"/><line class="cls-6" x1="104.36" y1="479.19" x2="104.36" y2="476.64"/><line class="cls-6" x1="100" y1="479.19" x2="100" y2="476.64"/><line class="cls-6" x1="100.36" y1="441.33" x2="104.36" y2="441.33"/><polyline class="cls-6" points="100 476.64 104.36 476.64 122.2 446.06"/><path class="cls-6" d="M122.44,474.15a35.56,35.56,0,0,0-17.73-4.84" transform="translate(0 -28.35)"/><path d="M104,586.53h0Z" transform="translate(0 -28.35)"/><path class="cls-6" d="M104,586.53h0Z" transform="translate(0 -28.35)"/><path d="M107.28,590.54H99.63l4.37-4Zm0,0Z" transform="translate(0 -28.35)"/><path class="cls-6" d="M107.28,590.54H99.63l4.37-4Zm0,0Z" transform="translate(0 -28.35)"/><polygon points="104 558.19 107.28 558.19 107.28 562.19 104 558.19"/><polygon class="cls-6" points="104 558.19 107.28 558.19 107.28 562.19 104 558.19"/><polygon points="153.14 558.19 183.72 558.55 153.14 558.55 153.14 558.19"/><polygon class="cls-6" points="153.14 558.19 183.72 558.55 153.14 558.55 153.14 558.19"/><path d="M183.72,590.9H153.14v-4Zm0,0Z" transform="translate(0 -28.35)"/><path class="cls-6" d="M183.72,590.9H153.14v-4Zm0,0Z" transform="translate(0 -28.35)"/><polygon points="153.14 558.55 183.72 558.55 183.72 562.55 153.14 558.55"/><polygon class="cls-6" points="153.14 558.55 183.72 558.55 183.72 562.55 153.14 558.55"/><line class="cls-6" x1="107.28" y1="562.19" x2="107.28" y2="558.19"/><polyline class="cls-6" points="153.14 562.55 153.14 558.19 183.72 558.55"/><line class="cls-6" x1="107.28" y1="558.19" x2="104" y2="558.19"/><line class="cls-6" x1="99.63" y1="562.19" x2="107.28" y2="562.19"/><polyline class="cls-6" points="153.14 562.55 183.72 562.55 183.72 558.55"/><line class="cls-6" x1="107.28" y1="562.19" x2="109.82" y2="562.19"/><line class="cls-6" x1="107.28" y1="558.19" x2="109.82" y2="558.19"/><line class="cls-6" x1="153.14" y1="562.55" x2="150.6" y2="562.19"/><line class="cls-6" x1="153.14" y1="558.19" x2="150.6" y2="558.19"/><line class="cls-6" x1="109.82" y1="558.19" x2="109.82" y2="562.19"/><polyline class="cls-6" points="150.6 558.19 150.6 562.19 150.23 602.96"/><path class="cls-6" d="M110.19,590.17a40.58,40.58,0,0,0,40.4,40.77" transform="translate(0 -28.35)"/><polygon points="10.08 502.85 100 503.22 10.08 503.22 10.08 502.85"/><polygon class="cls-6" points="10.08 502.85 100 503.22 10.08 503.22 10.08 502.85"/><path d="M10.08,535.2H100v.37Zm0-3.64v3.64H100Z" transform="translate(0 -28.35)"/><path class="cls-6" d="M10.08,535.2H100v.37Zm0-3.64v3.64H100Z" transform="translate(0 -28.35)"/><polygon points="10.08 503.22 100 503.22 100 506.86 10.08 503.22"/><polygon class="cls-6" points="10.08 503.22 100 503.22 100 506.86 10.08 503.22"/><line class="cls-6" x1="10.08" y1="506.86" x2="35.56" y2="506.86"/><line class="cls-6" x1="39.57" y1="506.86" x2="100" y2="507.22"/><polyline class="cls-6" points="100 503.22 10.08 502.85 10.08 506.86"/><path d="M35.56,535.2h0Z" transform="translate(0 -28.35)"/><path class="cls-6" d="M35.56,535.2h0Z" transform="translate(0 -28.35)"/><path d="M39.57,555.59h-4V535.2Zm0,0Z" transform="translate(0 -28.35)"/><path class="cls-6" d="M39.57,555.59h-4V535.2Zm0,0Z" transform="translate(0 -28.35)"/><polygon points="35.56 506.86 39.57 506.86 39.57 527.24 35.56 506.86"/><polygon class="cls-6" points="35.56 506.86 39.57 506.86 39.57 527.24 35.56 506.86"/><line class="cls-6" x1="39.57" y1="527.24" x2="39.57" y2="506.86"/><line class="cls-6" x1="35.56" y1="506.86" x2="35.56" y2="527.24"/><polygon points="10.08 527.24 100 527.61 10.08 527.61 10.08 527.24"/><polygon class="cls-6" points="10.08 527.24 100 527.61 10.08 527.61 10.08 527.24"/><path d="M10.08,559.59H100V560Zm0-3.64v3.64H100Z" transform="translate(0 -28.35)"/><path class="cls-6" d="M10.08,559.59H100V560Zm0-3.64v3.64H100Z" transform="translate(0 -28.35)"/><polygon points="10.08 527.61 100 527.61 100 531.25 10.08 527.61"/><polygon class="cls-6" points="10.08 527.61 100 527.61 100 531.25 10.08 527.61"/><line class="cls-6" x1="100" y1="527.61" x2="39.57" y2="527.24"/><polyline class="cls-6" points="35.56 527.24 10.08 527.24 10.08 531.25 100 531.61"/><path d="M183.72,531.2h0Z" transform="translate(0 -28.35)"/><path class="cls-6" d="M183.72,531.2h0Z" transform="translate(0 -28.35)"/><path d="M184.45,545h-.73V531.2Zm0,0Z" transform="translate(0 -28.35)"/><path class="cls-6" d="M184.45,545h-.73V531.2Zm0,0Z" transform="translate(0 -28.35)"/><polygon points="183.72 502.85 184.45 502.85 184.45 516.69 183.72 502.85"/><polygon class="cls-6" points="183.72 502.85 184.45 502.85 184.45 516.69 183.72 502.85"/><path d="M184.09,466.4h0Z" transform="translate(0 -28.35)"/><path class="cls-6" d="M184.09,466.4h0Z" transform="translate(0 -28.35)"/><path d="M184.82,480.23h-.73V466.4Zm0,0Z" transform="translate(0 -28.35)"/><path class="cls-6" d="M184.82,480.23h-.73V466.4Zm0,0Z" transform="translate(0 -28.35)"/><polygon points="184.09 438.06 184.81 438.06 184.81 451.89 184.09 438.06"/><polygon class="cls-6" points="184.09 438.06 184.81 438.06 184.81 451.89 184.09 438.06"/><path d="M184.45,531.2h0Z" transform="translate(0 -28.35)"/><path class="cls-6" d="M184.45,531.2h0Z" transform="translate(0 -28.35)"/><path d="M192.1,545h-7.65V531.2Zm0,0Z" transform="translate(0 -28.35)"/><path class="cls-6" d="M192.1,545h-7.65V531.2Zm0,0Z" transform="translate(0 -28.35)"/><polygon points="184.45 502.85 192.1 502.85 192.1 516.69 184.45 502.85"/><polygon class="cls-6" points="184.45 502.85 192.1 502.85 192.1 516.69 184.45 502.85"/><path d="M184.82,466.4h0Z" transform="translate(0 -28.35)"/><path class="cls-6" d="M184.82,466.4h0Z" transform="translate(0 -28.35)"/><path d="M192.1,480.23h-7.28V466.4Zm0,0Z" transform="translate(0 -28.35)"/><path class="cls-6" d="M192.1,480.23h-7.28V466.4Zm0,0Z" transform="translate(0 -28.35)"/><polygon points="184.81 438.06 192.46 438.06 192.1 451.89 184.81 438.06"/><polygon class="cls-6" points="184.81 438.06 192.46 438.06 192.1 451.89 184.81 438.06"/><line class="cls-6" x1="184.82" y1="438.06" x2="184.82" y2="451.89"/><line class="cls-6" x1="184.45" y1="502.85" x2="184.45" y2="516.69"/><line class="cls-6" x1="184.82" y1="451.89" x2="192.1" y2="451.89"/><line class="cls-6" x1="184.09" y1="451.89" x2="184.82" y2="451.89"/><line class="cls-6" x1="184.45" y1="502.85" x2="192.1" y2="502.85"/><line class="cls-6" x1="183.72" y1="502.85" x2="184.45" y2="502.85"/><line class="cls-6" x1="192.1" y1="516.69" x2="192.1" y2="502.85"/><polyline class="cls-6" points="192.1 451.89 192.46 438.06 184.81 438.06"/><line class="cls-6" x1="184.82" y1="438.06" x2="184.09" y2="438.06"/><line class="cls-6" x1="184.09" y1="438.06" x2="184.09" y2="451.89"/><line class="cls-6" x1="183.72" y1="502.85" x2="183.72" y2="516.69"/><line class="cls-6" x1="192.1" y1="516.69" x2="184.45" y2="516.69"/><line class="cls-6" x1="184.45" y1="516.69" x2="183.72" y2="516.69"/><path class="cls-6" d="M137.49,482a46.77,46.77,0,0,0,46.56,47" transform="translate(0 -28.35)"/><path d="M183.72,529h0Z" transform="translate(0 -28.35)"/><path class="cls-6" d="M183.72,529h0Z" transform="translate(0 -28.35)"/><path d="M192.1,531.2h-8.38V529Zm0,0Z" transform="translate(0 -28.35)"/><path class="cls-6" d="M192.1,531.2h-8.38V529Zm0,0Z" transform="translate(0 -28.35)"/><polygon points="183.72 500.67 192.1 500.67 192.1 502.85 183.72 500.67"/><polygon class="cls-6" points="183.72 500.67 192.1 500.67 192.1 502.85 183.72 500.67"/><path d="M184.09,480.23h0Z" transform="translate(0 -28.35)"/><path class="cls-6" d="M184.09,480.23h0Z" transform="translate(0 -28.35)"/><path d="M192.1,482.42h-8v-2.19Zm0,0Z" transform="translate(0 -28.35)"/><path class="cls-6" d="M192.1,482.42h-8v-2.19Zm0,0Z" transform="translate(0 -28.35)"/><polygon points="184.09 451.89 192.1 451.89 192.1 454.07 184.09 451.89"/><polygon class="cls-6" points="184.09 451.89 192.1 451.89 192.1 454.07 184.09 451.89"/><polyline class="cls-6" points="192.1 502.85 192.1 500.67 183.72 500.67 183.72 502.85 192.1 502.85"/><polyline class="cls-6" points="184.09 451.89 184.09 454.07 192.1 454.07 192.1 451.89 184.09 451.89"/><line class="cls-6" x1="184.09" y1="454.07" x2="137.49" y2="453.71"/><polyline class="cls-6" points="183.72 502.85 184.45 502.85 192.1 502.85"/><polyline class="cls-6" points="184.09 451.89 184.81 451.89 192.1 451.89"/><path d="M193.92,555.59Zm0,0Z" transform="translate(0 -28.35)"/><path class="cls-6" d="M193.92,555.59Zm0,0Z" transform="translate(0 -28.35)"/><polyline class="cls-6" points="159.7 938.6 160.06 909.48 161.15 909.48 161.15 940.06 159.7 938.6"/><polyline class="cls-6" points="111.64 939.69 112.01 909.12 113.1 909.12 113.1 938.6 159.7 938.6 161.15 940.06 111.64 939.69 113.1 938.6 111.64 939.69"/><polyline class="cls-6" points="112.37 938.97 160.43 939.33 160.43 909.48"/><polyline class="cls-6" points="114.19 930.59 158.6 930.96 158.6 914.58 114.56 914.21 114.19 930.59"/><polyline class="cls-6" points="114.19 929.14 158.6 929.14 158.6 914.58 114.56 914.21 114.19 929.14"/><line class="cls-6" x1="112.37" y1="938.97" x2="112.37" y2="909.11"/><polyline class="cls-6" points="71.97 561.83 41.39 561.83 41.39 531.25 56.67 531.61 71.97 531.61 71.97 561.83"/><polyline class="cls-6" points="69.78 533.43 69.78 560.01 43.21 560.01 43.57 533.43 56.67 533.43 69.78 533.43"/><line class="cls-6" x1="15.54" y1="430.05" x2="15.54" y2="405.66"/><line class="cls-6" x1="18.45" y1="403.11" x2="81.43" y2="403.47"/><line class="cls-6" x1="18.45" y1="432.96" x2="81.07" y2="433.32"/><line class="cls-6" x1="99.27" y1="400.56" x2="12.63" y2="400.2"/><polyline class="cls-6" points="99.27 400.56 98.9 436.24 12.63 435.87 12.63 400.2"/><line class="cls-6" x1="71.24" y1="428.23" x2="21.73" y2="427.86"/><line class="cls-6" x1="20.64" y1="426.41" x2="20.64" y2="409.3"/><line class="cls-6" x1="71.24" y1="408.2" x2="22.09" y2="407.84"/><line class="cls-6" x1="30.46" y1="418.76" x2="30.46" y2="420.58"/><line class="cls-6" x1="29.74" y1="418.03" x2="27.92" y2="418.03"/><line class="cls-6" x1="30.46" y1="417.31" x2="30.46" y2="415.49"/><line class="cls-6" x1="31.56" y1="418.03" x2="33.38" y2="418.03"/><polyline class="cls-6" points="81.07 433.32 83.98 432.96 86.53 432.23 89.07 431.14 91.26 429.32 93.44 427.13 94.9 424.95 95.63 422.4 96.36 419.85 96.36 416.94 95.99 414.39 94.9 411.48 93.44 409.3 91.62 407.11 89.44 405.66 86.89 404.2 83.98 403.47 81.43 403.47"/><polyline class="cls-6" points="18.45 403.11 18.09 403.11 17.36 403.11 17 403.47 16.63 403.84 16.27 403.84 15.9 404.56 15.9 404.93 15.54 405.29 15.54 405.66"/><polyline class="cls-6" points="15.54 430.05 15.54 430.41 15.54 431.14 15.9 431.5 16.27 431.87 16.63 432.23 17 432.6 17.36 432.6 17.72 432.96 18.45 432.96"/><polyline class="cls-6" points="32.28 418.03 31.92 417.67 31.92 417.31 31.56 416.94 31.19 416.58 30.83 416.58 30.46 416.58 30.1 416.58 29.74 416.58 29.74 416.94 29.37 416.94 29.37 417.31 29.01 417.67 29.01 418.03 29.01 418.4 29.37 418.76 29.74 419.13 30.1 419.49 30.46 419.49 30.83 419.49 31.19 419.49 31.56 419.13 31.92 418.76 31.92 418.4 32.28 418.03"/><polyline class="cls-6" points="71.24 428.23 73.06 427.86 74.88 427.5 76.33 426.77 77.79 425.68 79.25 424.22 80.34 422.77 80.7 420.95 81.07 419.13 81.07 417.31 81.07 415.49 80.34 413.67 79.25 412.21 78.15 410.75 76.7 409.66 74.88 408.93 73.06 408.2 71.24 408.2"/><polyline class="cls-6" points="20.64 426.41 20.64 426.77 20.64 427.13 20.64 427.5 21 427.5 21.36 427.86 21.73 427.86"/><polyline class="cls-6" points="22.09 407.84 21.73 407.84 21.36 408.2 21 408.2 20.64 408.57 20.64 408.93 20.64 409.3"/><polyline class="cls-6" points="32.65 418.03 32.65 417.67 32.65 417.31 32.28 416.94 31.92 416.58 31.92 416.21 31.56 416.21 31.19 416.21 30.83 415.85 30.46 415.85 30.1 416.21 29.74 416.21 29.37 416.58 29.01 416.94 28.64 417.31 28.64 417.67 28.64 418.03 28.64 418.4 29.01 418.76 29.01 419.13 29.37 419.49 29.74 419.85 30.1 419.85 30.46 419.85 30.83 419.85 31.19 419.85 31.56 419.85 31.92 419.49 32.28 419.13 32.65 418.76 32.65 418.4 32.65 418.03"/><polyline class="cls-6" points="69.42 503.22 100 503.22 100 480.28"/><line class="cls-6" x1="21.73" y1="494.12" x2="21.73" y2="476.28"/><polyline class="cls-6" points="21 495.21 21 501.76 39.93 501.76"/><line class="cls-6" x1="30.46" y1="491.2" x2="37.38" y2="491.2"/><polyline class="cls-6" points="21.73 476.64 23.55 490.84 30.46 491.2"/><line class="cls-6" x1="39.2" y1="476.64" x2="37.38" y2="491.2"/><line class="cls-6" x1="22.46" y1="476.64" x2="23.91" y2="490.84"/><line class="cls-6" x1="38.84" y1="476.64" x2="37.02" y2="491.2"/><line class="cls-6" x1="39.2" y1="494.12" x2="39.2" y2="476.64"/><line class="cls-6" x1="39.93" y1="501.76" x2="39.93" y2="495.21"/><polyline class="cls-6" points="21.73 476.64 22.09 474.46 22.82 472.64 23.91 471.18 25.73 469.73 27.55 469 29.37 468.27 31.56 468.27 33.74 469 35.56 469.73 37.02 471.18 38.11 472.64 38.84 474.46 39.2 476.64"/><polyline class="cls-6" points="22.46 476.64 22.46 474.46 23.18 473 24.28 471.18 26.1 470.09 27.55 469.36 29.74 468.63 31.56 469 33.38 469.36 35.2 470.09 36.65 471.55 37.75 473 38.47 474.82 38.84 476.64"/><polyline class="cls-6" points="38.84 494.12 30.46 493.75 22.09 494.12 21.73 494.12 21.36 494.12 21.36 494.48 21 494.84 21 495.21"/><line class="cls-6" x1="39.93" y1="495.21" x2="39.93" y2="495.21"/><polyline class="cls-6" points="39.93 495.21 39.93 494.84 39.57 494.84 39.57 494.48 39.2 494.12 38.84 494.12"/><line class="cls-6" x1="30.46" y1="498.48" x2="30.46" y2="498.48"/><polyline class="cls-6" points="30.46 498.49 30.83 498.49 31.19 498.49 31.19 498.12 31.19 497.76 31.19 497.39 31.19 497.03 30.83 497.03 30.83 496.67 30.46 496.67 30.1 496.67 29.74 497.03 29.74 497.39 29.37 497.39 29.37 497.76 29.74 498.12 29.74 498.49 30.1 498.49 30.46 498.49"/><polyline class="cls-6" points="69.78 490.48 69.42 502.13 42.11 501.76 42.11 490.48"/><line class="cls-6" x1="51.58" y1="502.13" x2="60.32" y2="502.13"/><line class="cls-6" x1="53.4" y1="492.66" x2="54.86" y2="492.66"/><line class="cls-6" x1="55.95" y1="494.84" x2="55.95" y2="493.39"/><line class="cls-6" x1="56.68" y1="492.66" x2="58.13" y2="492.66"/><line class="cls-6" x1="55.95" y1="491.93" x2="55.95" y2="490.48"/><path class="cls-6" d="M63.42,523.46a12.18,12.18,0,0,0,4.76-5.75" transform="translate(0 -28.35)"/><path class="cls-6" d="M56.18,525.33a12.21,12.21,0,0,0,7.28-1.67" transform="translate(0 -28.35)"/><path class="cls-6" d="M44,517.6a12.09,12.09,0,0,0,4.7,5.79" transform="translate(0 -28.35)"/><path class="cls-6" d="M48.7,523.6A12.22,12.22,0,0,0,56,525.34" transform="translate(0 -28.35)"/><path class="cls-6" d="M65.57,511.39a22.76,22.76,0,0,0-8.39-2.33" transform="translate(0 -28.35)"/><path class="cls-6" d="M44.8,512.72a7.08,7.08,0,0,0-2.68,5.83" transform="translate(0 -28.35)"/><path class="cls-6" d="M57.15,509.4a12.18,12.18,0,0,0-1.91,0" transform="translate(0 -28.35)"/><path class="cls-6" d="M48.22,523.29a50,50,0,0,0,15.35.07" transform="translate(0 -28.35)"/><path class="cls-6" d="M43.21,516.8a17.26,17.26,0,0,0,3.85,11.26" transform="translate(0 -28.35)"/><path class="cls-6" d="M48,528.85a34.08,34.08,0,0,0,7.86.89" transform="translate(0 -28.35)"/><path class="cls-6" d="M47,528.14a2.36,2.36,0,0,0,1.3.81" transform="translate(0 -28.35)"/><path class="cls-6" d="M48.12,528.05a59.23,59.23,0,0,0,7.76.6" transform="translate(0 -28.35)"/><path class="cls-6" d="M43.21,516.54A15.47,15.47,0,0,0,47,527" transform="translate(0 -28.35)"/><path class="cls-6" d="M46.7,527.11a2.36,2.36,0,0,0,1.45.79" transform="translate(0 -28.35)"/><path class="cls-6" d="M65.12,527.12a15.42,15.42,0,0,0,3.93-10.41" transform="translate(0 -28.35)"/><path class="cls-6" d="M65.08,528.21a17.27,17.27,0,0,0,4-11.22" transform="translate(0 -28.35)"/><path class="cls-6" d="M56.1,528.65a59.37,59.37,0,0,0,7.76-.51" transform="translate(0 -28.35)"/><path class="cls-6" d="M56,529.74a34.09,34.09,0,0,0,7.87-.8" transform="translate(0 -28.35)"/><path class="cls-6" d="M63.72,527.9a2.38,2.38,0,0,0,1.46-.77" transform="translate(0 -28.35)"/><path class="cls-6" d="M63.92,529a2.37,2.37,0,0,0,1.31-.8" transform="translate(0 -28.35)"/><path class="cls-6" d="M69.77,518.61a7.08,7.08,0,0,0-2.62-5.85" transform="translate(0 -28.35)"/><path class="cls-6" d="M67.25,512.84a10.52,10.52,0,0,0-1.8-1.18" transform="translate(0 -28.35)"/><path class="cls-6" d="M46.9,511.61a11.37,11.37,0,0,0-1.81,1.16" transform="translate(0 -28.35)"/><path class="cls-6" d="M55.3,509.05a22.79,22.79,0,0,0-8.41,2.24" transform="translate(0 -28.35)"/><path class="cls-6" d="M60,511.28a16.31,16.31,0,0,0-7.61,0" transform="translate(0 -28.35)"/><path class="cls-6" d="M68.31,517.85a4.19,4.19,0,0,0-1.42-3.46" transform="translate(0 -28.35)"/><path class="cls-6" d="M66.61,514.55a14.81,14.81,0,0,0-6.76-3.14" transform="translate(0 -28.35)"/><path class="cls-6" d="M45.4,514.37a4.19,4.19,0,0,0-1.46,3.44" transform="translate(0 -28.35)"/><path class="cls-6" d="M52.18,511.39a14.75,14.75,0,0,0-6.79,3.07" transform="translate(0 -28.35)"/><path class="cls-6" d="M57.77,520.82a1.64,1.64,0,1,0-1.64,1.64,1.64,1.64,0,0,0,1.64-1.64" transform="translate(0 -28.35)"/><path class="cls-6" d="M57.4,520.82a1.27,1.27,0,1,0-1.27,1.28,1.27,1.27,0,0,0,1.27-1.28" transform="translate(0 -28.35)"/><line class="cls-6" x1="41.39" y1="561.83" x2="41.02" y2="647.37"/><line class="cls-6" x1="153.14" y1="562.55" x2="152.78" y2="647.74"/><line class="cls-6" x1="94.53" y1="562.19" x2="41.39" y2="561.83"/><polygon points="185.54 130.45 193.92 130.81 185.54 130.81 185.54 130.45"/><polygon class="cls-6" points="185.54 130.45 193.92 130.81 185.54 130.81 185.54 130.45"/><path d="M192.46,466.4h-8.37l1.45-307.24Zm0,0Z" transform="translate(0 -28.35)"/><path class="cls-6" d="M192.46,466.4h-8.37l1.45-307.24Zm0,0Z" transform="translate(0 -28.35)"/><polygon points="185.54 130.81 193.92 130.81 192.46 438.06 185.54 130.81"/><polygon class="cls-6" points="185.54 130.81 193.92 130.81 192.46 438.06 185.54 130.81"/><polyline class="cls-6" points="185.54 130.45 184.09 438.06 192.46 438.06 193.92 130.81"/><text class="cls-7" transform="translate(62.31 745.77)">№489</text><text class="cls-7" transform="translate(75.91 778.2)">1К</text><text class="cls-7" transform="translate(64.33 810.33)">51.67</text><polyline class="cls-6" points="50.73 818.73 50.73 721.75 131.79 721.75 131.79 818.73"/><line class="cls-6" x1="50.73" y1="754.17" x2="131.79" y2="754.17"/><line class="cls-6" x1="50.73" y1="786.3" x2="131.79" y2="786.3"/><line class="cls-6" x1="50.73" y1="818.73" x2="131.79" y2="818.73"/></svg>