<svg id="_210" data-name="210" xmlns="http://www.w3.org/2000/svg" viewBox="0 0 681.41 672.93"><defs><style>.cls-1{isolation:isolate;font-size:12px;fill:#969696;}.cls-1,.cls-3,.cls-5{font-family:PTSans-Regular, PT Sans;}.cls-10,.cls-2,.cls-4,.cls-6,.cls-7,.cls-8,.cls-9{fill:none;stroke-linecap:round;stroke-linejoin:round;}.cls-2{stroke:#969696;}.cls-2,.cls-6{stroke-width:0.75px;}.cls-3{font-size:24px;}.cls-10,.cls-4,.cls-6,.cls-7,.cls-8,.cls-9{stroke:#000;}.cls-4,.cls-7,.cls-8{stroke-width:0.5px;}.cls-5{font-size:20px;}.cls-7{stroke-dasharray:3.09 3.09;}.cls-8{stroke-dasharray:3.07 3.07;}.cls-9{stroke-width:0.35px;}.cls-10{stroke-width:1.2px;}</style></defs><text class="cls-1" transform="translate(678.21 344.78) rotate(-90)">двор</text><line class="cls-2" x1="681.04" y1="355.54" x2="672.24" y2="355.54"/><polyline class="cls-2" points="677.53 359.04 681.03 355.54 677.53 352.04"/><text class="cls-3" transform="translate(316.4 349.17)">2K</text><text class="cls-3" transform="translate(301.54 379.46)">65.50</text><text class="cls-3" transform="translate(298.37 319.04)">№210</text><polyline class="cls-4" points="292.73 385.99 292.73 295.99 367.79 295.99 367.79 385.99"/><line class="cls-4" x1="292.73" y1="326.05" x2="367.79" y2="326.05"/><line class="cls-4" x1="292.73" y1="385.99" x2="367.79" y2="385.99"/><line class="cls-4" x1="292.73" y1="356.1" x2="367.79" y2="356.1"/><text class="cls-5" transform="translate(607.35 370.41) rotate(-90)">0.80</text><text class="cls-5" transform="translate(447.05 562.4)">13.50</text><text class="cls-5" transform="translate(447.05 350.38)">15.20</text><text class="cls-5" transform="translate(447.05 122.72)">15.70</text><text class="cls-5" transform="translate(36.69 315.96)">2.50</text><text class="cls-5" transform="translate(102.3 487.81)">11.80</text><text class="cls-5" transform="translate(167.61 589.62)">1.90</text><text class="cls-5" transform="translate(61.98 108.26)">4.10</text><line class="cls-6" x1="292.38" y1="672.03" x2="319.29" y2="672.03"/><line class="cls-6" x1="342.32" y1="672.03" x2="365.5" y2="672.03"/><line class="cls-6" x1="388.67" y1="672.03" x2="415.59" y2="672.03"/><line class="cls-6" x1="373.85" y1="658.51" x2="373.85" y2="634.05"/><line class="cls-4" x1="373.85" y1="620.43" x2="373.85" y2="618.93"/><line class="cls-7" x1="373.85" y1="615.84" x2="373.85" y2="543.29"/><polyline class="cls-4" points="373.85 541.75 373.85 540.25 372.35 540.25"/><line class="cls-8" x1="369.28" y1="540.25" x2="278.78" y2="540.25"/><line class="cls-4" x1="277.24" y1="540.25" x2="275.74" y2="540.25"/><polyline class="cls-6" points="271.22 540.25 237.82 540.25 237.82 564.7"/><line class="cls-6" x1="237.82" y1="587.72" x2="237.82" y2="610.89"/><polyline class="cls-6" points="237.82 634.05 237.82 658.51 271.22 658.51"/><line class="cls-6" x1="294.25" y1="658.51" x2="317.42" y2="658.51"/><line class="cls-6" x1="340.6" y1="658.51" x2="373.85" y2="658.51"/><polyline class="cls-9" points="562.27 428.75 637.12 428.75 637.12 281.29 562.27 281.29 562.27 428.75"/><line class="cls-10" x1="562.27" y1="3.91" x2="290.75" y2="3.91"/><line class="cls-10" x1="333.4" y1="3.91" x2="251.78" y2="3.91"/><line class="cls-10" x1="218.1" y1="28.37" x2="537.8" y2="28.37"/><line class="cls-10" x1="251.78" y1="3.91" x2="251.78" y2="0.6"/><polyline class="cls-10" points="218.1 28.37 218.1 14.84 218.1 4.63 218.1 0.6"/><line class="cls-10" x1="251.78" y1="0.6" x2="0.6" y2="0.6"/><line class="cls-10" x1="0.6" y1="12.83" x2="218.1" y2="12.83"/><line class="cls-4" x1="218.1" y1="12.83" x2="218.1" y2="0.6"/><polyline class="cls-10" points="537.8 658.51 267.76 658.51 267.76 672.03 286.91 672.03"/><polyline class="cls-10" points="119.57 672.03 537.8 672.03 537.8 658.51"/><line class="cls-10" x1="218.1" y1="16.14" x2="0.6" y2="16.14"/><line class="cls-10" x1="0.6" y1="28.37" x2="218.1" y2="28.37"/><line class="cls-4" x1="218.1" y1="28.37" x2="218.1" y2="16.14"/><line class="cls-10" x1="37.88" y1="536.79" x2="37.88" y2="550.46"/><polyline class="cls-10" points="133.17 536.79 105.97 536.79 105.97 550.46"/><line class="cls-10" x1="37.88" y1="536.79" x2="14.13" y2="536.79"/><line class="cls-10" x1="14.13" y1="550.46" x2="37.88" y2="550.46"/><line class="cls-10" x1="105.97" y1="550.46" x2="119.5" y2="550.46"/><path class="cls-6" d="M103.23,536.72a62.53,62.53,0,0,0-62.54-62.51"/><polyline class="cls-6" points="105.97 550.46 103.23 550.46 103.23 536.79 105.97 536.79 105.97 550.46"/><polyline class="cls-6" points="37.88 536.79 40.62 536.79 40.62 550.46 37.88 550.46 37.88 536.79"/><line class="cls-6" x1="40.62" y1="536.79" x2="40.62" y2="474.36"/><polyline class="cls-6" points="105.97 550.46 105.97 536.79 105.97 550.46"/><polyline class="cls-6" points="37.88 550.46 37.88 536.79 37.88 550.46"/><line class="cls-10" x1="14.13" y1="156.84" x2="16.15" y2="156.84"/><line class="cls-10" x1="16.15" y1="151.37" x2="14.13" y2="151.37"/><line class="cls-10" x1="182.98" y1="28.37" x2="182.98" y2="151.37"/><polyline class="cls-10" points="188.45 151.37 188.45 28.37 182.98 28.37"/><line class="cls-10" x1="167.14" y1="536.79" x2="167.14" y2="542.26"/><polyline class="cls-10" points="232.5 536.79 218.1 536.79 218.1 542.26"/><line class="cls-10" x1="167.14" y1="536.79" x2="160.38" y2="536.79"/><line class="cls-10" x1="160.38" y1="542.26" x2="167.14" y2="542.26"/><line class="cls-10" x1="218.1" y1="542.26" x2="232.49" y2="542.26"/><path class="cls-6" d="M215.51,536.72a45.58,45.58,0,0,0-6.1-22.76"/><polyline class="cls-6" points="218.1 542.26 215.37 542.26 215.37 536.79 218.1 536.79 218.1 542.26"/><polyline class="cls-6" points="167.14 536.79 169.88 536.79 169.88 542.26 167.14 542.26 167.14 536.79"/><line class="cls-6" x1="169.88" y1="536.79" x2="209.32" y2="514.06"/><polyline class="cls-6" points="218.1 542.26 218.1 536.79 218.1 542.26"/><polyline class="cls-6" points="167.14 542.26 167.14 536.79 167.14 542.26"/><polyline class="cls-10" points="232.5 542.98 232.5 658.51 237.82 658.51 237.82 542.98"/><line class="cls-10" x1="537.8" y1="443.71" x2="188.45" y2="443.71"/><polyline class="cls-10" points="182.98 449.18 537.8 449.18 537.8 443.71"/><line class="cls-10" x1="537.8" y1="237.69" x2="188.45" y2="237.69"/><polyline class="cls-10" points="188.45 243.16 537.8 243.16 537.8 237.69"/><line class="cls-10" x1="232.49" y1="521.83" x2="237.82" y2="521.83"/><polyline class="cls-10" points="232.5 457.24 232.5 460.69 237.82 460.69"/><line class="cls-10" x1="232.49" y1="521.83" x2="232.49" y2="536.79"/><line class="cls-10" x1="232.49" y1="542.26" x2="232.49" y2="542.98"/><line class="cls-10" x1="237.82" y1="542.98" x2="237.82" y2="521.83"/><polyline class="cls-10" points="237.82 460.69 237.82 457.24 232.5 457.24"/><path class="cls-6" d="M293.67,519a55.76,55.76,0,0,0-55.78-55.75"/><polyline class="cls-6" points="232.5 460.69 232.5 463.42 237.82 463.42 237.82 460.69 232.5 460.69"/><polyline class="cls-6" points="237.82 521.83 237.82 519.1 232.5 519.1 232.5 521.83 237.82 521.83"/><line class="cls-6" x1="237.82" y1="519.1" x2="293.67" y2="519.1"/><polyline class="cls-6" points="237.82 460.69 232.5 460.69 237.82 460.69"/><polyline class="cls-6" points="237.82 521.83 232.5 521.83 237.82 521.83"/><line class="cls-10" x1="108.27" y1="231.65" x2="14.13" y2="231.65"/><line class="cls-10" x1="14.13" y1="237.12" x2="102.8" y2="237.12"/><line class="cls-10" x1="63.79" y1="156.84" x2="63.79" y2="151.37"/><polyline class="cls-10" points="114.75 156.84 114.75 151.37 182.98 151.37"/><line class="cls-10" x1="63.79" y1="151.37" x2="16.15" y2="151.37"/><line class="cls-10" x1="16.15" y1="156.84" x2="63.79" y2="156.84"/><line class="cls-10" x1="114.75" y1="156.84" x2="182.98" y2="156.84"/><line class="cls-10" x1="188.45" y1="156.84" x2="188.45" y2="151.37"/><path class="cls-6" d="M106.05,179.53a45.48,45.48,0,0,0,6.11-22.76"/><polyline class="cls-6" points="114.75 151.37 112.01 151.37 112.01 156.84 114.75 156.84 114.75 151.37"/><polyline class="cls-6" points="63.79 156.84 66.53 156.84 66.53 151.37 63.79 151.37 63.79 156.84"/><line class="cls-6" x1="66.53" y1="156.84" x2="105.97" y2="179.72"/><polyline class="cls-6" points="114.75 151.37 114.75 156.84 114.75 151.37"/><polyline class="cls-6" points="63.79 151.37 63.79 156.84 63.79 151.37"/><line class="cls-10" x1="188.45" y1="351.92" x2="182.98" y2="351.92"/><line class="cls-10" x1="188.45" y1="290.78" x2="182.98" y2="290.78"/><line class="cls-10" x1="188.45" y1="227.62" x2="182.98" y2="227.62"/><polyline class="cls-10" points="188.45 166.34 182.98 166.34 182.98 156.84"/><line class="cls-10" x1="182.98" y1="227.62" x2="182.98" y2="290.78"/><line class="cls-10" x1="182.98" y1="351.92" x2="182.98" y2="449.18"/><line class="cls-10" x1="188.45" y1="443.71" x2="188.45" y2="351.92"/><line class="cls-10" x1="188.45" y1="290.78" x2="188.45" y2="243.16"/><line class="cls-10" x1="188.45" y1="237.69" x2="188.45" y2="227.62"/><line class="cls-10" x1="188.45" y1="166.34" x2="188.45" y2="156.84"/><path class="cls-6" d="M244.3,349.12a55.76,55.76,0,0,0-55.78-55.75"/><polyline class="cls-6" points="182.98 290.78 182.98 293.51 188.45 293.51 188.45 290.78 182.98 290.78"/><polyline class="cls-6" points="188.45 351.92 188.45 349.19 182.98 349.19 182.98 351.92 188.45 351.92"/><line class="cls-6" x1="188.45" y1="349.19" x2="244.3" y2="349.19"/><polyline class="cls-6" points="182.98 290.78 188.45 290.78 182.98 290.78"/><polyline class="cls-6" points="182.98 351.92 188.45 351.92 182.98 351.92"/><path class="cls-6" d="M244.3,224.82a55.76,55.76,0,0,0-55.78-55.75"/><polyline class="cls-6" points="182.98 166.34 182.98 169.07 188.45 169.07 188.45 166.34 182.98 166.34"/><polyline class="cls-6" points="188.45 227.62 188.45 224.89 182.98 224.89 182.98 227.62 188.45 227.62"/><line class="cls-6" x1="188.45" y1="224.89" x2="244.3" y2="224.89"/><polyline class="cls-6" points="182.98 166.34 188.45 166.34 182.98 166.34"/><polyline class="cls-6" points="182.98 227.62 188.45 227.62 182.98 227.62"/><polyline class="cls-10" points="556.51 282 562.27 282 562.27 281.29"/><polyline class="cls-10" points="556.51 405.01 562.27 405.01 562.27 405.59"/><polyline class="cls-10" points="553.06 278.55 551.33 278.55 537.8 278.55"/><polyline class="cls-10" points="556.51 281.29 556.51 278.55 553.06 278.55"/><polyline class="cls-10" points="553.06 408.32 551.33 408.32 537.8 408.32"/><polyline class="cls-10" points="556.51 405.59 556.51 408.32 553.06 408.32"/><polyline class="cls-10" points="556.51 76.71 562.27 76.71 562.27 75.99"/><polyline class="cls-10" points="556.51 182.02 562.27 182.02 562.27 182.74"/><polyline class="cls-10" points="553.06 73.25 551.33 73.25 537.8 73.25"/><polyline class="cls-10" points="556.51 75.99 556.51 73.25 553.06 73.25"/><polyline class="cls-10" points="553.06 185.47 551.33 185.47 537.8 185.47"/><polyline class="cls-10" points="556.51 182.74 556.51 185.47 553.06 185.47"/><polyline class="cls-10" points="556.51 503.56 562.27 503.56 562.27 502.84"/><polyline class="cls-10" points="556.51 608.87 562.27 608.87 562.27 609.59"/><polyline class="cls-10" points="553.06 500.11 551.33 500.11 537.8 500.11"/><polyline class="cls-10" points="556.51 502.84 556.51 500.11 553.06 500.11"/><polyline class="cls-10" points="553.06 612.32 551.33 612.32 537.8 612.32"/><polyline class="cls-10" points="556.51 609.59 556.51 612.32 553.06 612.32"/><polyline class="cls-10" points="553.06 672.03 551.33 672.03 537.8 672.03"/><polyline class="cls-10" points="556.51 672.03 556.51 672.03 553.06 672.03"/><line class="cls-10" x1="562.27" y1="672.03" x2="562.27" y2="609.59"/><line class="cls-10" x1="562.27" y1="502.84" x2="562.27" y2="405.59"/><line class="cls-10" x1="562.27" y1="281.29" x2="562.27" y2="182.74"/><polyline class="cls-10" points="562.27 75.99 562.27 28.37 537.8 28.37 537.8 73.25"/><line class="cls-10" x1="537.8" y1="185.47" x2="537.8" y2="278.55"/><line class="cls-10" x1="537.8" y1="408.32" x2="537.8" y2="500.11"/><line class="cls-10" x1="537.8" y1="612.32" x2="537.8" y2="672.03"/><line class="cls-6" x1="562.27" y1="405.01" x2="562.27" y2="282"/><line class="cls-9" x1="537.8" y1="278.55" x2="537.8" y2="408.32"/><line class="cls-6" x1="562.27" y1="405.01" x2="562.27" y2="282"/><line class="cls-9" x1="537.8" y1="408.32" x2="537.8" y2="278.55"/><polyline class="cls-6" points="553.06 408.32 553.06 403.29 556.51 403.29 556.51 408.32"/><polyline class="cls-6" points="556.51 370.34 556.51 374.37 553.06 374.37 553.06 370.34"/><line class="cls-6" x1="553.06" y1="403.28" x2="553.06" y2="374.37"/><line class="cls-6" x1="556.51" y1="374.37" x2="556.51" y2="403.28"/><polyline class="cls-6" points="553.06 370.34 553.06 366.17 556.51 366.17 556.51 370.34"/><polyline class="cls-6" points="556.51 315.96 556.51 319.99 553.06 319.99 553.06 315.96"/><line class="cls-6" x1="553.06" y1="319.99" x2="506.85" y2="319.99"/><polyline class="cls-6" points="553.06 315.96 553.06 311.79 556.51 311.79 556.51 315.96"/><polyline class="cls-6" points="556.51 278.55 556.51 283.59 553.06 283.59 553.06 278.55"/><line class="cls-6" x1="553.06" y1="311.79" x2="553.06" y2="283.59"/><line class="cls-6" x1="556.51" y1="283.59" x2="556.51" y2="311.79"/><path class="cls-6" d="M506.85,319.91a46.27,46.27,0,0,0,46.28,46.26"/><polyline class="cls-6" points="553.06 408.32 556.51 408.32 553.06 408.32"/><polyline class="cls-6" points="556.51 408.32 556.51 405.59 556.51 408.32"/><polyline class="cls-6" points="553.06 408.32 551.33 408.32 537.8 408.32"/><polyline class="cls-6" points="553.06 278.55 556.51 278.55 553.06 278.55"/><polyline class="cls-6" points="556.51 278.55 556.51 281.29 556.51 278.55"/><polyline class="cls-6" points="553.06 278.55 551.33 278.55 537.8 278.55"/><polyline class="cls-6" points="562.27 405.59 562.27 405.01 556.51 405.01"/><polyline class="cls-6" points="562.27 281.29 562.27 282 556.51 282"/><line class="cls-6" x1="562.27" y1="182.02" x2="562.27" y2="76.71"/><line class="cls-6" x1="537.8" y1="73.25" x2="537.8" y2="185.47"/><line class="cls-6" x1="562.27" y1="182.02" x2="562.27" y2="76.71"/><line class="cls-6" x1="537.8" y1="185.47" x2="537.8" y2="73.25"/><polyline class="cls-6" points="553.06 185.47 553.06 180.29 556.51 180.29 556.51 185.47"/><polyline class="cls-6" points="556.51 129.36 556.51 133.82 553.06 133.82 553.06 129.36"/><line class="cls-6" x1="553.06" y1="180.29" x2="553.06" y2="133.82"/><line class="cls-6" x1="556.51" y1="133.82" x2="556.51" y2="180.29"/><polyline class="cls-6" points="553.06 129.36 553.06 124.9 556.51 124.9 556.51 129.36"/><polyline class="cls-6" points="556.51 73.25 556.51 78.43 553.06 78.43 553.06 73.25"/><line class="cls-6" x1="553.06" y1="124.9" x2="553.06" y2="78.43"/><line class="cls-6" x1="556.51" y1="78.43" x2="556.51" y2="124.9"/><polyline class="cls-6" points="553.06 185.47 556.51 185.47 553.06 185.47"/><polyline class="cls-6" points="556.51 185.47 556.51 182.74 556.51 185.47"/><polyline class="cls-6" points="553.06 185.47 551.33 185.47 537.8 185.47"/><polyline class="cls-6" points="553.06 73.25 556.51 73.25 553.06 73.25"/><polyline class="cls-6" points="556.51 73.25 556.51 75.99 556.51 73.25"/><polyline class="cls-6" points="553.06 73.25 551.33 73.25 537.8 73.25"/><polyline class="cls-6" points="562.27 182.74 562.27 182.02 556.51 182.02"/><polyline class="cls-6" points="562.27 75.99 562.27 76.71 556.51 76.71"/><line class="cls-6" x1="562.27" y1="608.87" x2="562.27" y2="503.56"/><line class="cls-6" x1="537.8" y1="500.11" x2="537.8" y2="612.32"/><line class="cls-6" x1="562.27" y1="608.87" x2="562.27" y2="503.56"/><line class="cls-6" x1="537.8" y1="612.32" x2="537.8" y2="500.11"/><polyline class="cls-6" points="553.06 612.32 553.06 607.14 556.51 607.14 556.51 612.32"/><polyline class="cls-6" points="556.51 556.22 556.51 560.68 553.06 560.68 553.06 556.22"/><line class="cls-6" x1="553.06" y1="607.15" x2="553.06" y2="560.68"/><line class="cls-6" x1="556.51" y1="560.68" x2="556.51" y2="607.15"/><polyline class="cls-6" points="553.06 556.22 553.06 551.76 556.51 551.76 556.51 556.22"/><polyline class="cls-6" points="556.51 500.11 556.51 505.14 553.06 505.14 553.06 500.11"/><line class="cls-6" x1="553.06" y1="551.76" x2="553.06" y2="505.14"/><line class="cls-6" x1="556.51" y1="505.14" x2="556.51" y2="551.76"/><polyline class="cls-6" points="553.06 612.32 556.51 612.32 553.06 612.32"/><polyline class="cls-6" points="556.51 612.32 556.51 609.59 556.51 612.32"/><polyline class="cls-6" points="553.06 612.32 551.33 612.32 537.8 612.32"/><polyline class="cls-6" points="553.06 500.11 556.51 500.11 553.06 500.11"/><polyline class="cls-6" points="556.51 500.11 556.51 502.84 556.51 500.11"/><polyline class="cls-6" points="553.06 500.11 551.33 500.11 537.8 500.11"/><polyline class="cls-6" points="562.27 609.59 562.27 608.87 556.51 608.87"/><polyline class="cls-6" points="562.27 502.84 562.27 503.56 556.51 503.56"/><polyline class="cls-6" points="553.06 672.03 556.51 672.03 553.06 672.03"/><polyline class="cls-6" points="556.51 672.03 556.51 672.03 556.51 672.03"/><polyline class="cls-6" points="553.06 672.03 551.33 672.03 537.8 672.03"/><line class="cls-10" x1="14.13" y1="550.46" x2="0.6" y2="550.46"/><line class="cls-10" x1="14.13" y1="550.46" x2="14.13" y2="550.46"/><line class="cls-10" x1="14.13" y1="536.79" x2="14.13" y2="374.08"/><line class="cls-10" x1="14.13" y1="368.61" x2="14.13" y2="306.46"/><line class="cls-10" x1="14.13" y1="301" x2="14.13" y2="237.12"/><line class="cls-10" x1="14.13" y1="231.65" x2="14.13" y2="156.84"/><line class="cls-10" x1="14.13" y1="151.37" x2="14.13" y2="103.18"/><polyline class="cls-10" points="14.13 62.46 14.13 28.37 0.6 28.37 0.6 62.46"/><line class="cls-10" x1="0.6" y1="103.18" x2="0.6" y2="151.37"/><line class="cls-10" x1="0.6" y1="156.84" x2="0.6" y2="301"/><line class="cls-10" x1="0.6" y1="0.6" x2="0.6" y2="550.46"/><polyline class="cls-6" points="14.13 550.46 14.13 550.46 0.6 550.46 0.6 550.46 14.13 550.46"/><polyline class="cls-6" points="0.6 550.46 14.13 550.46 0.6 550.46"/><line class="cls-10" x1="133.17" y1="658.51" x2="133.17" y2="618.37"/><line class="cls-4" x1="119.5" y1="610.17" x2="133.17" y2="610.17"/><line class="cls-10" x1="119.5" y1="610.17" x2="119.5" y2="672.03"/><line class="cls-10" x1="267.76" y1="658.51" x2="133.17" y2="658.51"/><line class="cls-10" x1="119.5" y1="672.03" x2="267.76" y2="672.03"/><line class="cls-4" x1="267.76" y1="672.03" x2="267.76" y2="658.51"/><polyline class="cls-10" points="562.27 3.91 562.27 4.63 562.27 28.37 561.55 28.37 551.33 28.37 537.8 28.37"/><polyline class="cls-10" points="119.5 550.46 119.5 610.17 133.17 610.17"/><line class="cls-10" x1="102.8" y1="368.61" x2="14.13" y2="368.61"/><line class="cls-10" x1="14.13" y1="374.08" x2="102.8" y2="374.08"/><line class="cls-10" x1="108.27" y1="276.83" x2="102.8" y2="276.83"/><line class="cls-10" x1="108.27" y1="327.75" x2="102.8" y2="327.75"/><line class="cls-10" x1="102.8" y1="237.12" x2="102.8" y2="276.83"/><line class="cls-10" x1="102.8" y1="327.75" x2="102.8" y2="368.61"/><polyline class="cls-10" points="102.8 374.08 102.8 414.79 108.27 414.79 108.27 327.75"/><line class="cls-10" x1="108.27" y1="276.83" x2="108.27" y2="231.65"/><path class="cls-6" d="M80.09,318.92a45.57,45.57,0,0,0,22.78,6.1"/><polyline class="cls-6" points="108.27 327.75 108.27 325.17 102.8 325.17 102.8 327.75 108.27 327.75"/><polyline class="cls-6" points="102.8 276.83 102.8 279.56 108.27 279.56 108.27 276.83 102.8 276.83"/><line class="cls-6" x1="102.8" y1="279.56" x2="80.06" y2="318.98"/><polyline class="cls-6" points="102.8 327.75 108.27 327.75 102.8 327.75"/><polyline class="cls-6" points="102.8 276.83 108.27 276.83 102.8 276.83"/><polyline class="cls-9" points="637.12 281.29 637.12 428.75 643.89 428.75 643.89 281.29 637.12 281.29"/><polyline class="cls-10" points="0.6 381.85 14.13 381.85 14.13 327.47 0.6 327.47 0.6 381.85"/><polyline class="cls-6" points="160.38 618.37 133.17 618.37 133.17 577.65 160.38 577.65 160.38 618.37"/><polyline class="cls-6" points="152.89 614.91 154.19 614.77 155.2 614.2 156.2 613.33 156.78 612.18 156.92 610.89 156.92 595.2 156.78 594.05 156.2 592.9 155.2 592.04 154.19 591.32 152.89 591.18 140.66 591.18 139.36 591.32 138.21 592.04 137.35 592.9 136.77 594.05 136.48 595.2 136.48 610.89 136.77 612.18 137.35 613.33 138.21 614.2 139.36 614.77 140.66 614.91 152.89 614.91"/><polyline class="cls-6" points="138.21 587.72 155.2 587.72 156.06 587.58 156.78 587 156.92 586.14 156.92 585.13 156.78 583.84 156.2 582.69 155.2 581.82 154.19 581.25 152.89 580.96 140.66 580.96 139.36 581.25 138.21 581.82 137.35 582.69 136.77 583.84 136.48 585.13 136.48 586.14 136.77 587 137.35 587.58 138.21 587.72"/><polyline class="cls-6" points="160.38 536.79 133.17 536.79 133.17 577.65 160.38 577.65 160.38 536.79"/><polyline class="cls-6" points="152.89 540.25 154.19 540.39 155.2 540.97 156.2 541.83 156.78 542.98 156.92 544.27 156.92 559.96 156.78 561.25 156.2 562.26 155.2 563.26 154.19 563.84 152.89 563.99 140.66 563.99 139.36 563.84 138.21 563.26 137.35 562.26 136.77 561.25 136.48 559.96 136.48 544.27 136.77 542.98 137.35 541.83 138.21 540.97 139.36 540.39 140.66 540.25 152.89 540.25"/><polyline class="cls-6" points="138.21 567.44 155.2 567.44 156.06 567.58 156.78 568.3 156.92 569.16 156.92 570.17 156.78 571.32 156.2 572.47 155.2 573.48 154.19 574.06 152.89 574.2 140.66 574.2 139.36 574.06 138.21 573.48 137.35 572.47 136.77 571.32 136.48 570.17 136.48 569.16 136.77 568.3 137.35 567.58 138.21 567.44"/><polyline class="cls-6" points="14.13 103.18 41.34 103.18 41.34 62.46 14.13 62.46 14.13 103.18"/><polyline class="cls-6" points="21.62 99.72 20.32 99.58 19.17 99 18.3 98.14 17.73 96.99 17.59 95.7 17.59 80.02 17.73 78.86 18.3 77.71 19.17 76.85 20.32 76.13 21.62 75.99 33.85 75.99 35.15 76.13 36.3 76.85 37.16 77.71 37.74 78.86 37.88 80.02 37.88 95.7 37.74 96.99 37.16 98.14 36.3 99 35.15 99.58 33.85 99.72 21.62 99.72"/><polyline class="cls-6" points="36.3 72.53 19.17 72.53 18.45 72.39 17.73 71.81 17.59 70.95 17.59 69.94 17.73 68.65 18.3 67.5 19.17 66.64 20.32 66.06 21.62 65.77 33.85 65.77 35.15 66.06 36.3 66.64 37.16 67.5 37.74 68.65 37.88 69.94 37.88 70.95 37.74 71.81 37.02 72.39 36.3 72.53"/><line class="cls-9" x1="565.73" y1="286.32" x2="635.4" y2="286.32"/><polyline class="cls-9" points="635.4 283.01 565.73 283.01 564 283.01 564 286.32 565.73 286.32"/><polyline class="cls-9" points="635.4 286.32 637.12 286.32 637.12 283.01 635.4 283.01"/><polyline class="cls-9" points="565.73 285.46 635.4 285.46 635.4 283.88 565.73 283.88 565.73 285.46"/><polyline class="cls-9" points="564.86 283.88 564.86 285.46 566.45 285.46 566.45 283.88 564.86 283.88"/><polyline class="cls-9" points="634.53 283.88 634.53 285.46 636.26 285.46 636.26 283.88 634.53 283.88"/><polyline class="cls-9" points="574.79 283.88 574.79 285.46 576.52 285.46 576.52 283.88 574.79 283.88"/><polyline class="cls-9" points="584.73 283.88 584.73 285.46 586.46 285.46 586.46 283.88 584.73 283.88"/><polyline class="cls-9" points="594.66 283.88 594.66 285.46 596.39 285.46 596.39 283.88 594.66 283.88"/><polyline class="cls-9" points="604.59 283.88 604.59 285.46 606.32 285.46 606.32 283.88 604.59 283.88"/><polyline class="cls-9" points="614.67 283.88 614.67 285.46 616.25 285.46 616.25 283.88 614.67 283.88"/><polyline class="cls-9" points="624.6 283.88 624.6 285.46 626.33 285.46 626.33 283.88 624.6 283.88"/><line class="cls-9" x1="565.73" y1="427.02" x2="635.4" y2="427.02"/><polyline class="cls-9" points="635.4 423.71 565.73 423.71 564 423.71 564 427.02 565.73 427.02"/><polyline class="cls-9" points="635.4 427.02 637.12 427.02 637.12 423.71 635.4 423.71"/><polyline class="cls-9" points="565.73 426.16 635.4 426.16 635.4 424.43 565.73 424.43 565.73 426.16"/><polyline class="cls-9" points="564.86 424.43 564.86 426.16 566.45 426.16 566.45 424.43 564.86 424.43"/><polyline class="cls-9" points="634.53 424.43 634.53 426.16 636.26 426.16 636.26 424.43 634.53 424.43"/><polyline class="cls-9" points="574.79 424.43 574.79 426.16 576.52 426.16 576.52 424.43 574.79 424.43"/><polyline class="cls-9" points="584.73 424.43 584.73 426.16 586.46 426.16 586.46 424.43 584.73 424.43"/><polyline class="cls-9" points="594.66 424.43 594.66 426.16 596.39 426.16 596.39 424.43 594.66 424.43"/><polyline class="cls-9" points="604.59 424.43 604.59 426.16 606.32 426.16 606.32 424.43 604.59 424.43"/><polyline class="cls-9" points="614.67 424.43 614.67 426.16 616.25 426.16 616.25 424.43 614.67 424.43"/><polyline class="cls-9" points="624.6 424.43 624.6 426.16 626.33 426.16 626.33 424.43 624.6 424.43"/><polyline class="cls-6" points="373.85 658.51 237.82 658.51 237.82 540.25"/><polyline class="cls-6" points="373.85 658.51 373.85 617.65 278.7 617.65 278.7 540.25 237.82 540.25"/><polyline class="cls-6" points="316.13 622.83 261.72 622.83 261.72 656.78 316.13 656.78 316.13 622.83"/><line class="cls-6" x1="339.88" y1="617.65" x2="237.82" y2="617.65"/><line class="cls-6" x1="339.88" y1="658.51" x2="237.82" y2="658.51"/><polyline class="cls-6" points="312.67 626.13 289.93 626.13 289.93 650.02 312.67 650.02 312.67 626.13"/><polyline class="cls-6" points="287.91 626.13 265.03 626.13 265.03 650.02 287.91 650.02 287.91 626.13"/><polyline class="cls-6" points="154.91 624.55 133.17 624.55 133.17 658.51"/><path class="cls-6" d="M133.17,658.51"/><polyline class="cls-6" points="133.17 658.51 154.91 658.51 154.91 624.55"/><path class="cls-6" d="M14.13,28.37"/><polyline class="cls-6" points="14.13 28.37 35.87 28.37 35.87 62.46"/><line class="cls-6" x1="35.87" y1="62.46" x2="14.13" y2="62.46"/><line class="cls-6" x1="14.13" y1="62.46" x2="14.13" y2="28.37"/><polyline class="cls-6" points="0.6 28.37 0.6 28.37 0.6 62.46"/><line class="cls-4" x1="14.13" y1="414.79" x2="105.54" y2="414.79"/><line class="cls-4" x1="54.87" y1="156.84" x2="54.87" y2="231.65"/><polyline class="cls-4" points="154.91 618.37 133.17 618.37 133.17 658.51 154.91 658.51 154.91 618.37"/><polyline class="cls-4" points="14.13 28.37 35.87 28.37 35.87 62.46 14.13 62.46 14.13 28.37"/><line class="cls-4" x1="175.92" y1="644.84" x2="175.92" y2="621.1"/><polyline class="cls-4" points="174.92 646.28 174.92 655.05 200.11 655.05"/><line class="cls-4" x1="187.58" y1="640.67" x2="196.94" y2="640.67"/><polyline class="cls-4" points="175.93 621.24 178.23 640.67 187.58 640.67"/><line class="cls-4" x1="199.1" y1="621.24" x2="196.94" y2="640.67"/><line class="cls-4" x1="176.5" y1="621.24" x2="178.8" y2="640.67"/><line class="cls-4" x1="198.52" y1="621.24" x2="196.22" y2="640.67"/><line class="cls-4" x1="199.1" y1="644.84" x2="199.1" y2="621.1"/><line class="cls-4" x1="200.11" y1="655.05" x2="200.11" y2="646.28"/><polyline class="cls-4" points="175.93 621.24 176.36 618.51 177.22 616.07 178.8 613.91 180.96 612.18 183.41 610.89 186.15 610.31 188.88 610.31 191.62 610.89 194.21 612.18 196.22 613.91 197.8 616.07 198.81 618.51 199.1 621.24"/><polyline class="cls-4" points="176.5 621.24 176.93 618.65 177.8 616.35 179.38 614.34 181.25 612.61 183.7 611.46 186.29 610.89 188.88 610.89 191.47 611.46 193.77 612.61 195.79 614.34 197.23 616.35 198.24 618.65 198.52 621.24"/><path class="cls-4" d="M198.92,644.72a106.14,106.14,0,0,0-22.54,0"/><path class="cls-4" d="M176.26,644.7a1.51,1.51,0,0,0-1.34,1.5"/><path class="cls-4" d="M200.25,646.2a1.52,1.52,0,0,0-1.36-1.5"/><path class="cls-4" d="M187.66,648.15a1.22,1.22,0,1,0,1.22,1.22,1.22,1.22,0,0,0-1.22-1.22"/><line class="cls-4" x1="56.88" y1="42.18" x2="56.88" y2="65.77"/><polyline class="cls-4" points="56.02 40.74 56.02 31.82 81.06 31.82"/><line class="cls-4" x1="68.54" y1="46.21" x2="77.9" y2="46.21"/><polyline class="cls-4" points="56.88 65.77 59.19 46.21 68.54 46.21"/><line class="cls-4" x1="80.06" y1="65.77" x2="77.9" y2="46.21"/><line class="cls-4" x1="57.6" y1="65.77" x2="59.76" y2="46.21"/><line class="cls-4" x1="79.48" y1="65.77" x2="77.32" y2="46.21"/><line class="cls-4" x1="80.06" y1="42.03" x2="80.06" y2="65.77"/><line class="cls-4" x1="81.07" y1="31.82" x2="81.07" y2="40.74"/><polyline class="cls-4" points="56.88 65.77 57.31 68.36 58.32 70.81 59.91 72.97 61.92 74.69 64.37 75.99 67.1 76.56 69.98 76.56 72.72 75.99 75.16 74.69 77.18 72.97 78.76 70.81 79.77 68.36 80.06 65.77"/><polyline class="cls-4" points="57.6 65.77 57.89 68.22 58.75 70.52 60.34 72.53 62.35 74.26 64.66 75.41 67.25 75.99 69.84 75.99 72.43 75.41 74.73 74.26 76.75 72.53 78.33 70.52 79.19 68.22 79.48 65.77"/><path class="cls-4" d="M57.34,42a105.49,105.49,0,0,0,22.54,0"/><path class="cls-4" d="M56,40.67a1.51,1.51,0,0,0,1.35,1.5"/><path class="cls-4" d="M79.85,42.17a1.52,1.52,0,0,0,1.36-1.5"/><path class="cls-4" d="M68.61,36.14a1.22,1.22,0,1,0,1.23,1.22,1.22,1.22,0,0,0-1.23-1.22"/><polyline class="cls-10" points="204.57 443.71 204.57 457.24 258.98 457.24 258.98 443.71 204.57 443.71"/><polyline class="cls-10" points="204.57 229.64 204.57 243.16 258.98 243.16 258.98 229.64 204.57 229.64"/><polyline class="cls-10" points="551.33 644.26 537.8 644.26 537.8 672.03 551.33 672.03 551.33 644.26"/><polyline class="cls-10" points="551.33 215.97 537.8 215.97 537.8 256.83 551.33 256.83 551.33 215.97"/><polyline class="cls-10" points="551.33 430.04 537.8 430.04 537.8 470.9 551.33 470.9 551.33 430.04"/><polyline class="cls-10" points="551.33 14.84 537.8 14.84 537.8 55.56 551.33 55.56 551.33 14.84"/><polyline class="cls-4" points="219.97 567.73 232.5 567.73 232.5 594.92 219.97 594.92"/><line class="cls-4" x1="232.49" y1="585.57" x2="232.49" y2="577.08"/><line class="cls-4" x1="222.42" y1="583.69" x2="222.42" y2="582.11"/><line class="cls-4" x1="224.87" y1="581.39" x2="223.28" y2="581.39"/><line class="cls-4" x1="222.42" y1="580.53" x2="222.42" y2="579.09"/><line class="cls-4" x1="221.56" y1="581.39" x2="219.97" y2="581.39"/><path class="cls-4" d="M225.5,574a13.11,13.11,0,0,0-6.23-4.72"/><path class="cls-4" d="M227.27,581.29a11.39,11.39,0,0,0-1.85-7.25"/><path class="cls-4" d="M219.27,593.2a13,13,0,0,0,6.23-4.71"/><path class="cls-4" d="M225.42,588.46a11.39,11.39,0,0,0,1.85-7.25"/><path class="cls-4" d="M212.54,572a21,21,0,0,0-2.44,8.26"/><path class="cls-4" d="M213.72,592.31a7.81,7.81,0,0,0,6.22,2.6"/><path class="cls-4" d="M210.08,580.37a12.05,12.05,0,0,0,0,1.9"/><path class="cls-4" d="M225,588.92a45.62,45.62,0,0,0,0-15.2"/><path class="cls-4" d="M218,594.05a19.74,19.74,0,0,0,12.11-3.84"/><path class="cls-4" d="M231,589a31.53,31.53,0,0,0,.92-7.78"/><path class="cls-4" d="M230.13,590.24A2.15,2.15,0,0,0,231,589"/><path class="cls-4" d="M230.17,588.88a54.66,54.66,0,0,0,.6-7.66"/><path class="cls-4" d="M218.1,594.05a17.76,17.76,0,0,0,11.31-3.82"/><path class="cls-4" d="M229.34,590.33a2.21,2.21,0,0,0,.83-1.36"/><path class="cls-4" d="M229.42,572.29a17.65,17.65,0,0,0-11.3-3.84"/><path class="cls-4" d="M230.13,572.31A19.69,19.69,0,0,0,218,568.45"/><path class="cls-4" d="M230.77,581.21a54.51,54.51,0,0,0-.59-7.65"/><path class="cls-4" d="M231.92,581.34a31.41,31.41,0,0,0-.91-7.78"/><path class="cls-4" d="M230.17,573.68a2.19,2.19,0,0,0-.83-1.37"/><path class="cls-4" d="M231,573.49a2.15,2.15,0,0,0-.86-1.23"/><path class="cls-4" d="M219.94,567.59a7.81,7.81,0,0,0-6.22,2.6"/><path class="cls-4" d="M213.88,570.31a10.65,10.65,0,0,0-1.27,1.8"/><path class="cls-4" d="M212.61,590.53a11.14,11.14,0,0,0,1.27,1.81"/><path class="cls-4" d="M210.1,582.24a21.09,21.09,0,0,0,2.44,8.26"/><path class="cls-4" d="M212.11,577.59a14.51,14.51,0,0,0,0,7.46"/><path class="cls-4" d="M219.19,569.32a4.51,4.51,0,0,0-3.62,1.41"/><path class="cls-4" d="M215.54,570.69a14.25,14.25,0,0,0-3.39,6.78"/><path class="cls-4" d="M215.57,591.77a4.51,4.51,0,0,0,3.62,1.41"/><path class="cls-4" d="M212.15,585a14.3,14.3,0,0,0,3.39,6.78"/><path class="cls-4" d="M220.55,581.32a1.95,1.95,0,1,0,1.94-1.8,1.88,1.88,0,0,0-1.94,1.8"/><path class="cls-4" d="M221.12,581.32a1.38,1.38,0,1,0,1.37-1.22,1.3,1.3,0,0,0-1.37,1.22"/><line class="cls-4" x1="0.6" y1="109.36" x2="0.6" y2="150.08"/><line class="cls-4" x1="174.92" y1="32.39" x2="140.23" y2="32.39"/><line class="cls-4" x1="136.05" y1="36.42" x2="136.05" y2="122.89"/><line class="cls-4" x1="178.95" y1="36.42" x2="178.95" y2="122.89"/><line class="cls-4" x1="132.02" y1="147.34" x2="132.02" y2="28.37"/><polyline class="cls-4" points="132.02 147.34 182.98 147.34 182.98 28.37 132.02 28.37"/><line class="cls-4" x1="171.89" y1="109.08" x2="171.89" y2="41.31"/><line class="cls-4" x1="169.88" y1="39.3" x2="145.26" y2="39.3"/><line class="cls-4" x1="143.25" y1="109.08" x2="143.25" y2="41.31"/><line class="cls-4" x1="158.8" y1="53.26" x2="161.24" y2="53.26"/><line class="cls-4" x1="157.5" y1="51.96" x2="157.5" y2="49.51"/><line class="cls-4" x1="156.35" y1="53.26" x2="153.76" y2="53.26"/><line class="cls-4" x1="157.5" y1="54.41" x2="157.5" y2="56.85"/><path class="cls-4" d="M136.2,122.82c0,11.48,9.57,20.78,21.37,20.78S179,134.3,179,122.82"/><path class="cls-4" d="M140.3,32.39a4,4,0,0,0-4.1,4"/><path class="cls-4" d="M179.09,36.35a4,4,0,0,0-4.1-4"/><path class="cls-4" d="M159.66,53.18a2.09,2.09,0,1,0-2.09,2.09,2.09,2.09,0,0,0,2.09-2.09"/><path class="cls-4" d="M143.25,109a14.33,14.33,0,0,0,28.64,0"/><path class="cls-4" d="M172,41.24A2,2,0,0,0,170,39.3"/><path class="cls-4" d="M145.34,39.3a2,2,0,0,0-2.09,1.94"/><path class="cls-4" d="M160.38,53.18A2.81,2.81,0,1,0,157.57,56a2.8,2.8,0,0,0,2.81-2.81"/><line class="cls-4" x1="15.43" y1="109.36" x2="15.43" y2="150.08"/><line class="cls-4" x1="15.43" y1="150.08" x2="49.54" y2="150.08"/><line class="cls-4" x1="49.54" y1="150.08" x2="49.54" y2="109.36"/><line class="cls-4" x1="49.54" y1="109.36" x2="15.43" y2="109.36"/><polyline class="cls-4" points="24.06 133.97 24.06 125.77 26.8 131.23 29.39 125.77 29.39 133.97"/><polyline class="cls-4" points="37.59 132.53 36.3 133.97 33.56 133.97 32.12 132.53 32.12 127.06 33.56 125.77 36.3 125.77 37.59 127.06"/><polyline class="cls-4" points="95.32 43.9 95.32 28.37 132.02 28.37 132.02 43.9"/><line class="cls-4" x1="119.5" y1="28.37" x2="107.84" y2="28.37"/><line class="cls-4" x1="116.76" y1="40.88" x2="114.75" y2="40.88"/><line class="cls-4" x1="113.6" y1="37.86" x2="113.6" y2="39.73"/><line class="cls-4" x1="112.59" y1="40.88" x2="110.57" y2="40.88"/><line class="cls-4" x1="113.6" y1="42.03" x2="113.6" y2="43.9"/><path class="cls-4" d="M103.94,37.16a16.35,16.35,0,0,0-6.33,7.72"/><path class="cls-4" d="M113.69,34.89a16.42,16.42,0,0,0-9.75,2.29"/><path class="cls-4" d="M129.87,44.88a16.35,16.35,0,0,0-6.33-7.72"/><path class="cls-4" d="M123.54,37.18a16.41,16.41,0,0,0-9.74-2.29"/><path class="cls-4" d="M101.33,53a30,30,0,0,0,11.13,3"/><path class="cls-4" d="M128.55,51.5A9.27,9.27,0,0,0,132,43.87"/><path class="cls-4" d="M112.39,56.23a18.23,18.23,0,0,0,2.56,0"/><path class="cls-4" d="M124,37.65a66.86,66.86,0,0,0-20.56,0"/><path class="cls-4" d="M131.15,46.24a23,23,0,0,0-5.21-15"/><path class="cls-4" d="M124.27,30.22a45.94,45.94,0,0,0-10.52-1.13"/><path class="cls-4" d="M126,31.23a3.06,3.06,0,0,0-1.72-1.06"/><path class="cls-4" d="M124,31.27a78,78,0,0,0-10.36-.74"/><path class="cls-4" d="M131.16,46.26a20.85,20.85,0,0,0-5.2-14"/><path class="cls-4" d="M126.07,32.29a3.19,3.19,0,0,0-1.9-1"/><path class="cls-4" d="M101.54,32.22a20.8,20.8,0,0,0-5.22,14"/><path class="cls-4" d="M101.56,31.21a23,23,0,0,0-5.23,15"/><path class="cls-4" d="M113.76,30.52a77.94,77.94,0,0,0-10.35.74"/><path class="cls-4" d="M113.79,29.09a45.93,45.93,0,0,0-10.52,1.12"/><path class="cls-4" d="M103.46,31.27a3.09,3.09,0,0,0-1.9,1"/><path class="cls-4" d="M103.2,30.17a3,3,0,0,0-1.71,1.06"/><path class="cls-4" d="M95.47,43.87a9.27,9.27,0,0,0,3.46,7.63"/><path class="cls-4" d="M98.87,51.52a14,14,0,0,0,2.44,1.58"/><path class="cls-4" d="M126.17,53.1a14,14,0,0,0,2.44-1.58"/><path class="cls-4" d="M115,56.05a30,30,0,0,0,11.14-3"/><path class="cls-4" d="M108.76,53.52a21.55,21.55,0,0,0,10.1,0"/><path class="cls-4" d="M97.63,44.89a5.53,5.53,0,0,0,1.91,4.57"/><path class="cls-4" d="M99.46,49.33a19.92,19.92,0,0,0,9.16,4.2"/><path class="cls-4" d="M127.94,49.46a5.53,5.53,0,0,0,1.91-4.57"/><path class="cls-4" d="M118.86,53.53a19.92,19.92,0,0,0,9.16-4.2"/><path class="cls-4" d="M116,40.81a2.38,2.38,0,1,0-2.37,2.37A2.37,2.37,0,0,0,116,40.81"/><path class="cls-4" d="M115.32,40.81a1.66,1.66,0,1,0-1.65,1.66,1.65,1.65,0,0,0,1.65-1.66"/><line class="cls-4" x1="226.31" y1="672.03" x2="286.19" y2="672.03"/><path class="cls-4" d="M226.38,672a.65.65,0,0,0-.65.65"/><path class="cls-4" d="M286.91,672.68a.65.65,0,0,0-.65-.65"/></svg>