<svg id="_15" data-name="15" xmlns="http://www.w3.org/2000/svg" viewBox="0 0 346.34 437.12"><defs><style>.cls-1,.cls-3{fill:none;}.cls-1{stroke:#969696;stroke-miterlimit:10;}.cls-2{isolation:isolate;font-size:12px;fill:#969696;}.cls-2,.cls-4{font-family:PTSans-Regular, PT Sans;}.cls-3{stroke:#000;stroke-linecap:round;stroke-linejoin:round;stroke-width:0.5px;}.cls-4{font-size:17px;}</style></defs><title>3floor_15flat</title><line class="cls-1" x1="154.88" y1="434.58" x2="154.88" y2="425.78"/><polyline class="cls-1" points="151.48 431.28 154.98 434.78 158.48 431.28"/><text class="cls-2" transform="translate(164.32 434.18)">двор</text><polyline class="cls-3" points="151.69 313.45 151.69 143.29 15.13 143.29 15.13 316.09 15.13 355.45 145.93 355.45 145.93 316.09 151.69 316.09 151.69 313.45"/><polyline class="cls-3" points="316.09 316.09 316.09 143.29 316.09 97.93 155.77 97.93 155.77 313.45 155.77 316.09 155.77 355.45 316.09 355.45 316.09 316.09"/><polyline class="cls-3" points="155.77 93.85 216.01 93.85 216.01 10.09 100.57 10.09 100.57 139.21 145.93 139.21 145.93 93.85 155.77 93.85"/><polyline class="cls-3" points="219.85 93.85 316.09 93.85 316.09 19.93 219.85 19.93 219.85 93.85"/><polyline class="cls-3" points="15.13 115.69 96.49 115.69 96.49 10.09 34.81 10.09 15.13 10.09 15.13 93.85 15.13 115.69"/><polyline class="cls-3" points="325.93 168.01 325.93 316.09 325.93 355.45"/><polyline class="cls-3" points="5.29 0.25 34.81 0.25 296.41 0.25 325.93 0.25"/><path d="M150.73,367.69h0Z"/><path class="cls-3" d="M150.73,367.69h0Z"/><path d="M185.77,372.73h-35v-5Zm0,0Z"/><path class="cls-3" d="M185.77,372.73h-35v-5Zm0,0Z"/><polygon points="150.73 367.69 185.77 367.69 185.77 372.73 150.73 367.69"/><polygon class="cls-3" points="150.73 367.69 185.77 367.69 185.77 372.73 150.73 367.69"/><path d="M301.69,367.69l44.4,5h-44.4Zm44.4,0h-44.4l44.4,5Z"/><path class="cls-3" d="M301.69,367.69l44.4,5h-44.4Zm44.4,0h-44.4l44.4,5Z"/><path d="M325.93,355.45h0Z"/><path class="cls-3" d="M325.93,355.45h0Z"/><path d="M325.93,355.45l18.24,9.84H325.93Zm18.24,0H325.93l18.24,9.84Z"/><path class="cls-3" d="M325.93,355.45l18.24,9.84H325.93Zm18.24,0H325.93l18.24,9.84Z"/><path d="M344.17,367.69H325.93v-2.4Zm0,0Z"/><path class="cls-3" d="M344.17,367.69H325.93v-2.4Zm0,0Z"/><polygon points="325.93 365.29 344.17 365.29 344.17 367.69 325.93 365.29"/><polygon class="cls-3" points="325.93 365.29 344.17 365.29 344.17 367.69 325.93 365.29"/><path d="M316.09,355.45h0Z"/><path class="cls-3" d="M316.09,355.45h0Z"/><path d="M325.93,367.69h-9.84V355.45Zm0,0Z"/><path class="cls-3" d="M325.93,367.69h-9.84V355.45Zm0,0Z"/><polygon points="316.09 355.45 325.93 355.45 325.93 367.69 316.09 355.45"/><polygon class="cls-3" points="316.09 355.45 325.93 355.45 325.93 367.69 316.09 355.45"/><path d="M155.77,355.45h0Z"/><path class="cls-3" d="M155.77,355.45h0Z"/><path d="M155.77,355.45l28.08,9.84H155.77Zm28.08,0H155.77l28.08,9.84Z"/><path class="cls-3" d="M155.77,355.45l28.08,9.84H155.77Zm28.08,0H155.77l28.08,9.84Z"/><path d="M183.85,367.69H155.77v-2.4Zm0,0Z"/><path class="cls-3" d="M183.85,367.69H155.77v-2.4Zm0,0Z"/><polygon points="155.77 365.29 183.85 365.29 183.85 367.69 155.77 365.29"/><polygon class="cls-3" points="155.77 365.29 183.85 365.29 183.85 367.69 155.77 365.29"/><path d="M316.09,355.45h0Z"/><path class="cls-3" d="M316.09,355.45h0Z"/><path d="M303.85,355.45l12.24,9.84H303.85Zm12.24,0H303.85l12.24,9.84Z"/><path class="cls-3" d="M303.85,355.45l12.24,9.84H303.85Zm12.24,0H303.85l12.24,9.84Z"/><path d="M316.09,367.69H303.85v-2.4Zm0,0Z"/><path class="cls-3" d="M316.09,367.69H303.85v-2.4Zm0,0Z"/><polygon points="303.85 365.29 316.09 365.29 316.09 367.69 303.85 365.29"/><polygon class="cls-3" points="303.85 365.29 316.09 365.29 316.09 367.69 303.85 365.29"/><path d="M150.73,355.45h0Z"/><path class="cls-3" d="M150.73,355.45h0Z"/><path d="M155.77,367.69h-5V355.45Zm0,0Z"/><path class="cls-3" d="M155.77,367.69h-5V355.45Zm0,0Z"/><polygon points="150.73 355.45 155.77 355.45 155.77 367.69 150.73 355.45"/><polygon class="cls-3" points="150.73 355.45 155.77 355.45 155.77 367.69 150.73 355.45"/><line class="cls-3" x1="325.93" y1="367.69" x2="344.17" y2="367.69"/><line class="cls-3" x1="316.09" y1="355.45" x2="316.09" y2="367.69"/><polyline class="cls-3" points="316.09 367.69 325.93 367.69 325.93 355.45"/><line class="cls-3" x1="155.77" y1="367.69" x2="183.85" y2="367.69"/><line class="cls-3" x1="303.85" y1="367.69" x2="316.09" y2="367.69"/><polyline class="cls-3" points="150.73 367.69 155.77 367.69 155.77 355.45"/><line class="cls-3" x1="303.85" y1="365.29" x2="303.85" y2="355.45"/><polyline class="cls-3" points="301.69 372.73 301.69 367.69 303.85 367.69 303.85 365.29"/><line class="cls-3" x1="183.85" y1="365.29" x2="183.85" y2="355.45"/><polyline class="cls-3" points="185.77 372.73 185.77 367.69 183.85 367.69 183.85 365.29"/><line class="cls-3" x1="344.17" y1="365.29" x2="344.17" y2="355.45"/><polyline class="cls-3" points="346.09 372.73 346.09 367.69 344.17 367.69 344.17 365.29"/><line class="cls-3" x1="344.17" y1="355.45" x2="325.93" y2="355.45"/><line class="cls-3" x1="316.09" y1="355.45" x2="303.85" y2="355.45"/><line class="cls-3" x1="183.85" y1="355.45" x2="155.77" y2="355.45"/><line class="cls-3" x1="150.73" y1="372.73" x2="185.77" y2="372.73"/><line class="cls-3" x1="301.69" y1="372.73" x2="346.09" y2="372.73"/><line class="cls-3" x1="185.77" y1="372.73" x2="301.69" y2="372.73"/><line class="cls-3" x1="183.85" y1="355.45" x2="303.85" y2="355.45"/><path d="M183.85,365.29h0Z"/><path class="cls-3" d="M183.85,365.29h0Z"/><path d="M187.69,367.69h-3.84v-2.4Zm0,0Z"/><path class="cls-3" d="M187.69,367.69h-3.84v-2.4Zm0,0Z"/><polygon points="183.85 365.29 187.69 365.29 187.69 367.69 183.85 365.29"/><polygon class="cls-3" points="183.85 365.29 187.69 365.29 187.69 367.69 183.85 365.29"/><path d="M213.37,365.29h0Z"/><path class="cls-3" d="M213.37,365.29h0Z"/><path d="M216,367.69h-2.64v-2.4Zm0,0Z"/><path class="cls-3" d="M216,367.69h-2.64v-2.4Zm0,0Z"/><polygon points="213.37 365.29 216.01 365.29 216.01 367.69 213.37 365.29"/><polygon class="cls-3" points="213.37 365.29 216.01 365.29 216.01 367.69 213.37 365.29"/><path d="M216,365.29h0Z"/><path class="cls-3" d="M216,365.29h0Z"/><path d="M218.41,367.69H216v-2.4Zm0,0Z"/><path class="cls-3" d="M218.41,367.69H216v-2.4Zm0,0Z"/><polygon points="216.01 365.29 218.41 365.29 218.41 367.69 216.01 365.29"/><polygon class="cls-3" points="216.01 365.29 218.41 365.29 218.41 367.69 216.01 365.29"/><path d="M269.29,365.29h0Z"/><path class="cls-3" d="M269.29,365.29h0Z"/><path d="M271.69,367.69h-2.4v-2.4Zm0,0Z"/><path class="cls-3" d="M271.69,367.69h-2.4v-2.4Zm0,0Z"/><polygon points="269.29 365.29 271.69 365.29 271.69 367.69 269.29 365.29"/><polygon class="cls-3" points="269.29 365.29 271.69 365.29 271.69 367.69 269.29 365.29"/><path d="M271.69,365.29h0Z"/><path class="cls-3" d="M271.69,365.29h0Z"/><path d="M274.09,367.69h-2.4v-2.4Zm0,0Z"/><path class="cls-3" d="M274.09,367.69h-2.4v-2.4Zm0,0Z"/><polygon points="271.69 365.29 274.09 365.29 274.09 367.69 271.69 365.29"/><polygon class="cls-3" points="271.69 365.29 274.09 365.29 274.09 367.69 271.69 365.29"/><path d="M299.77,365.29h0Z"/><path class="cls-3" d="M299.77,365.29h0Z"/><path d="M303.85,367.69h-4.08v-2.4Zm0,0Z"/><path class="cls-3" d="M303.85,367.69h-4.08v-2.4Zm0,0Z"/><polygon points="299.77 365.29 303.85 365.29 303.85 367.69 299.77 365.29"/><polygon class="cls-3" points="299.77 365.29 303.85 365.29 303.85 367.69 299.77 365.29"/><polyline class="cls-3" points="183.85 365.29 187.69 365.29 187.69 367.69 183.85 367.69"/><polyline class="cls-3" points="216.01 367.69 213.37 367.69 213.37 365.29 216.01 365.29"/><line class="cls-3" x1="187.69" y1="365.29" x2="213.37" y2="365.29"/><line class="cls-3" x1="213.37" y1="367.69" x2="187.69" y2="367.69"/><polyline class="cls-3" points="216.01 365.29 218.41 365.29 218.41 367.69 216.01 367.69"/><polyline class="cls-3" points="271.69 367.69 269.29 367.69 269.29 365.29 271.69 365.29"/><line class="cls-3" x1="218.41" y1="365.29" x2="269.29" y2="365.29"/><line class="cls-3" x1="269.29" y1="367.69" x2="218.41" y2="367.69"/><polyline class="cls-3" points="271.69 365.29 274.09 365.29 274.09 367.69 271.69 367.69"/><polyline class="cls-3" points="303.85 367.69 299.77 367.69 299.77 365.29 303.85 365.29"/><line class="cls-3" x1="274.09" y1="365.29" x2="299.77" y2="365.29"/><line class="cls-3" x1="299.77" y1="367.69" x2="274.09" y2="367.69"/><polyline class="cls-3" points="185.77 367.69 183.85 367.69 183.85 365.29"/><polyline class="cls-3" points="301.69 367.69 303.85 367.69 303.85 365.29"/><path class="cls-3" d="M346.09,372.73"/><path class="cls-3" d="M344.17,355.45"/><polyline class="cls-3" points="346.09 367.69 344.17 367.69 344.17 365.29"/><line class="cls-3" x1="18.73" y1="16.57" x2="18.73" y2="40.09"/><line class="cls-3" x1="21.37" y1="42.73" x2="78.73" y2="42.73"/><line class="cls-3" x1="21.37" y1="13.69" x2="78.73" y2="13.69"/><line class="cls-3" x1="95.05" y1="45.61" x2="16.09" y2="45.61"/><polyline class="cls-3" points="95.05 45.61 95.05 11.05 16.09 11.05 16.09 45.61"/><line class="cls-3" x1="69.61" y1="18.49" x2="24.49" y2="18.49"/><line class="cls-3" x1="23.29" y1="19.93" x2="23.29" y2="36.73"/><line class="cls-3" x1="69.61" y1="37.93" x2="24.49" y2="37.93"/><line class="cls-3" x1="32.41" y1="27.37" x2="32.41" y2="25.69"/><line class="cls-3" x1="31.69" y1="28.33" x2="30.01" y2="28.33"/><line class="cls-3" x1="32.41" y1="29.05" x2="32.41" y2="30.97"/><line class="cls-3" x1="33.37" y1="28.33" x2="35.05" y2="28.33"/><polyline class="cls-3" points="78.73 42.73 81.37 42.49 83.77 41.77 86.17 40.57 88.09 39.13 89.77 36.97 91.21 34.81 92.17 32.17 92.65 29.53 92.65 26.89 92.17 24.25 91.21 21.85 89.77 19.45 88.09 17.53 86.17 15.85 83.77 14.89 81.37 13.93 78.73 13.69"/><polyline class="cls-3" points="18.73 40.09 18.73 40.57 18.97 41.05 18.97 41.53 19.21 41.77 19.69 42.25 19.93 42.49 20.41 42.73 20.89 42.73 21.37 42.73"/><polyline class="cls-3" points="21.37 13.69 20.89 13.93 20.41 13.93 19.93 14.17 19.69 14.41 19.21 14.89 18.97 15.13 18.97 15.61 18.73 16.09 18.73 16.57"/><polyline class="cls-3" points="32.41 26.89 32.17 26.89 31.93 26.89 31.69 27.13 31.69 27.37 31.45 27.37 31.21 27.61 31.21 27.85 31.21 28.33 31.21 28.57 31.21 28.81 31.45 29.05 31.45 29.29 31.69 29.53 31.93 29.53 32.17 29.77 32.41 29.77 32.65 29.77 32.89 29.77 33.13 29.53 33.37 29.53 33.61 29.29 33.61 29.05 33.85 28.81 33.85 28.57 33.85 28.33 33.85 27.85 33.85 27.61 33.61 27.37 33.37 27.37 33.37 27.13 33.13 26.89 32.89 26.89 32.41 26.89"/><polyline class="cls-3" points="69.61 37.93 71.29 37.93 72.97 37.45 74.41 36.49 75.85 35.53 77.05 34.09 77.77 32.65 78.49 30.97 78.73 29.29 78.73 27.37 78.49 25.69 77.77 24.01 77.05 22.57 75.85 21.13 74.41 20.17 72.97 19.21 71.29 18.73 69.61 18.49"/><polyline class="cls-3" points="24.49 18.49 24.49 18.73 24.25 18.73 24.01 18.73 23.77 18.97 23.53 19.21 23.29 19.45 23.29 19.69 23.29 19.93"/><polyline class="cls-3" points="23.29 36.73 23.29 36.97 23.29 37.21 23.53 37.21 23.53 37.45 23.77 37.69 24.01 37.93 24.25 37.93 24.49 37.93"/><polyline class="cls-3" points="32.41 26.41 32.17 26.41 31.93 26.41 31.45 26.65 31.21 26.89 30.97 27.13 30.97 27.61 30.73 27.85 30.73 28.09 30.73 28.57 30.73 29.05 30.97 29.29 31.21 29.53 31.45 29.77 31.69 30.01 31.93 30.25 32.41 30.25 32.65 30.25 33.13 30.25 33.37 30.01 33.61 29.77 33.85 29.53 34.09 29.29 34.33 29.05 34.33 28.57 34.33 28.09 34.33 27.85 34.09 27.61 34.09 27.13 33.85 26.89 33.61 26.65 33.13 26.41 32.89 26.41 32.41 26.41"/><polyline class="cls-3" points="27.37 74.65 16.09 74.65 16.09 48.01 27.37 48.01"/><line class="cls-3" x1="16.09" y1="57.13" x2="16.09" y2="65.53"/><line class="cls-3" x1="25.21" y1="59.05" x2="25.21" y2="60.49"/><line class="cls-3" x1="22.81" y1="61.45" x2="24.25" y2="61.45"/><line class="cls-3" x1="25.21" y1="62.17" x2="25.21" y2="63.61"/><line class="cls-3" x1="25.93" y1="61.45" x2="27.37" y2="61.45"/><path class="cls-3" d="M22.31,68.25a11.82,11.82,0,0,0,5.62,4.61"/><path class="cls-3" d="M20.69,61.34a11.89,11.89,0,0,0,1.66,7.08"/><path class="cls-3" d="M27.93,49.56a11.82,11.82,0,0,0-5.62,4.61"/><path class="cls-3" d="M22.35,54.24a11.89,11.89,0,0,0-1.66,7.08"/><path class="cls-3" d="M34,70.32a22,22,0,0,0,2.21-8.1"/><path class="cls-3" d="M32.82,50.33a6.8,6.8,0,0,0-5.62-2.55"/><path class="cls-3" d="M36.22,62.26a14.43,14.43,0,0,0,0-1.86"/><path class="cls-3" d="M22.66,53.88a48.72,48.72,0,0,0,0,14.91"/><path class="cls-3" d="M29,48.73a16.73,16.73,0,0,0-10.85,3.76"/><path class="cls-3" d="M17.39,53.74a33.45,33.45,0,0,0-.82,7.6"/><path class="cls-3" d="M18.13,52.36a2.27,2.27,0,0,0-.78,1.27"/><path class="cls-3" d="M18.07,53.73a59,59,0,0,0-.54,7.52"/><path class="cls-3" d="M28.89,48.73a15,15,0,0,0-10.12,3.75"/><path class="cls-3" d="M18.78,52.42a2.31,2.31,0,0,0-.75,1.4"/><path class="cls-3" d="M18.76,70.17a15,15,0,0,0,10.11,3.76"/><path class="cls-3" d="M18.12,69.91A16.69,16.69,0,0,0,29,73.69"/><path class="cls-3" d="M17.53,61.34a57.21,57.21,0,0,0,.53,7.51"/><path class="cls-3" d="M16.57,61.27a33.44,33.44,0,0,0,.81,7.6"/><path class="cls-3" d="M18,68.84a2.31,2.31,0,0,0,.75,1.4"/><path class="cls-3" d="M17.35,68.79a2.25,2.25,0,0,0,.77,1.26"/><path class="cls-3" d="M27.2,74.64a6.8,6.8,0,0,0,5.62-2.55"/><path class="cls-3" d="M32.76,71.93a10.11,10.11,0,0,0,1.14-1.75"/><path class="cls-3" d="M33.9,52.24a10.59,10.59,0,0,0-1.14-1.76"/><path class="cls-3" d="M36.19,60.2A22.07,22.07,0,0,0,34,52.09"/><path class="cls-3" d="M34.37,65a15.61,15.61,0,0,0,0-7.38"/><path class="cls-3" d="M27.94,73a4,4,0,0,0,3.27-1.36"/><path class="cls-3" d="M31.29,71.48a14.51,14.51,0,0,0,3.06-6.67"/><path class="cls-3" d="M31.21,51.06a4,4,0,0,0-3.27-1.36"/><path class="cls-3" d="M34.35,57.61a14.51,14.51,0,0,0-3.06-6.67"/><path class="cls-3" d="M26.89,61.33a1.8,1.8,0,1,0-1.8,1.8,1.81,1.81,0,0,0,1.8-1.8"/><path class="cls-3" d="M26.41,61.33a1.32,1.32,0,1,0-1.32,1.32,1.32,1.32,0,0,0,1.32-1.32"/><line class="cls-3" x1="23.53" y1="87.61" x2="40.81" y2="87.61"/><polyline class="cls-3" points="22.57 86.89 16.09 86.89 16.09 105.13"/><line class="cls-3" x1="26.65" y1="96.01" x2="26.65" y2="102.73"/><polyline class="cls-3" points="40.81 87.61 26.65 89.05 26.65 96.01"/><line class="cls-3" x1="40.81" y1="104.41" x2="26.65" y2="102.73"/><line class="cls-3" x1="40.81" y1="87.85" x2="26.65" y2="89.53"/><line class="cls-3" x1="40.81" y1="103.93" x2="26.65" y2="102.25"/><line class="cls-3" x1="23.53" y1="104.41" x2="40.81" y2="104.41"/><line class="cls-3" x1="16.09" y1="105.13" x2="22.57" y2="105.13"/><polyline class="cls-3" points="40.81 87.61 42.49 87.85 44.41 88.33 45.85 89.53 47.29 91.21 48.25 92.89 48.49 94.81 48.49 96.97 48.25 98.89 47.29 100.57 45.85 102.25 44.41 103.45 42.49 104.17 40.81 104.41"/><polyline class="cls-3" points="40.81 87.85 42.49 88.09 44.17 88.81 45.61 90.01 46.81 91.45 47.77 93.13 48.25 95.05 48.25 96.97 47.77 98.65 46.81 100.33 45.61 101.77 44.17 102.97 42.49 103.69 40.81 103.93"/><polyline class="cls-3" points="22.57 105.13 22.81 105.13 22.81 104.89 23.05 104.89 23.29 104.65 23.53 104.41 23.53 104.17 24.01 96.01 23.53 87.61 23.53 87.37 23.29 87.13 23.05 86.89 22.81 86.89 22.57 86.89"/><polyline class="cls-3" points="21.13 96.01 21.13 95.77 20.89 95.53 20.89 95.29 20.65 95.29 20.41 95.05 20.17 95.05 19.93 95.05 19.69 95.05 19.45 95.29 19.45 95.53 19.21 95.77 19.21 96.01 19.21 96.25 19.45 96.25 19.45 96.49 19.69 96.73 19.93 96.73 20.17 96.73 20.41 96.73 20.65 96.73 20.89 96.49 20.89 96.25 21.13 96.01"/><polyline class="cls-3" points="96.49 115.69 96.49 93.37 66.97 93.37 66.97 115.69 96.49 115.69"/><path d="M42.73,367.69h0Zm0,0Z"/><path class="cls-3" d="M42.73,367.69h0Zm0,0Z"/><path d="M.25,367.69l44.4,5H.25Zm44.4,0H.25l44.4,5Z"/><path class="cls-3" d="M.25,367.69l44.4,5H.25Zm44.4,0H.25l44.4,5Z"/><path d="M150.73,367.69h0Z"/><path class="cls-3" d="M150.73,367.69h0Z"/><path d="M134.89,367.69l15.84,5H134.89Zm15.84,0H134.89l15.84,5Z"/><path class="cls-3" d="M134.89,367.69l15.84,5H134.89Zm15.84,0H134.89l15.84,5Z"/><path d="M145.93,355.45l4.8,12.24h-4.8Zm4.8,0h-4.8l4.8,12.24Z"/><path class="cls-3" d="M145.93,355.45l4.8,12.24h-4.8Zm4.8,0h-4.8l4.8,12.24Z"/><path d="M15.13,355.45l27.6,9.84H15.13Zm27.6,0H15.13l27.6,9.84Z"/><path class="cls-3" d="M15.13,355.45l27.6,9.84H15.13Zm27.6,0H15.13l27.6,9.84Z"/><path d="M15.13,365.29l27.6,2.4H15.13Zm27.6,0H15.13l27.6,2.4Z"/><path class="cls-3" d="M15.13,365.29l27.6,2.4H15.13Zm27.6,0H15.13l27.6,2.4Z"/><path d="M137.05,355.45l8.88,9.84h-8.88Zm8.88,0h-8.88l8.88,9.84Z"/><path class="cls-3" d="M137.05,355.45l8.88,9.84h-8.88Zm8.88,0h-8.88l8.88,9.84Z"/><path d="M137.05,365.29l8.88,2.4h-8.88Zm8.88,0h-8.88l8.88,2.4Z"/><path class="cls-3" d="M137.05,365.29l8.88,2.4h-8.88Zm8.88,0h-8.88l8.88,2.4Z"/><path d="M5.29,355.45l9.84,12.24H5.29Zm9.84,0H5.29l9.84,12.24Z"/><path class="cls-3" d="M5.29,355.45l9.84,12.24H5.29Zm9.84,0H5.29l9.84,12.24Z"/><polyline class="cls-3" points="145.93 355.45 145.93 367.69 150.73 367.69"/><line class="cls-3" x1="137.05" y1="367.69" x2="145.93" y2="367.69"/><line class="cls-3" x1="15.13" y1="367.69" x2="42.73" y2="367.69"/><line class="cls-3" x1="5.29" y1="355.45" x2="5.29" y2="367.69"/><polyline class="cls-3" points="2.17 367.69 5.29 367.69 15.13 367.69 15.13 355.45"/><line class="cls-3" x1="42.73" y1="365.29" x2="42.73" y2="355.45"/><polyline class="cls-3" points="44.65 372.73 44.65 367.69 42.73 367.69 42.73 365.29"/><line class="cls-3" x1="137.05" y1="365.29" x2="137.05" y2="355.45"/><polyline class="cls-3" points="134.89 372.73 134.89 367.69 137.05 367.69 137.05 365.29"/><line class="cls-3" x1="145.93" y1="355.45" x2="137.05" y2="355.45"/><line class="cls-3" x1="42.73" y1="355.45" x2="15.13" y2="355.45"/><line class="cls-3" x1="0.25" y1="372.73" x2="44.65" y2="372.73"/><line class="cls-3" x1="134.89" y1="372.73" x2="150.73" y2="372.73"/><line class="cls-3" x1="134.89" y1="372.73" x2="44.65" y2="372.73"/><line class="cls-3" x1="137.05" y1="355.45" x2="42.73" y2="355.45"/><path d="M133,365.29l4.08,2.4H133Zm4.08,0H133l4.08,2.4Z"/><path class="cls-3" d="M133,365.29l4.08,2.4H133Zm4.08,0H133l4.08,2.4Z"/><path d="M102,365.29l2.4,2.4H102Zm2.4,0H102l2.4,2.4Z"/><path class="cls-3" d="M102,365.29l2.4,2.4H102Zm2.4,0H102l2.4,2.4Z"/><path d="M99.37,365.29l2.64,2.4H99.37Zm2.64,0H99.37l2.64,2.4Z"/><path class="cls-3" d="M99.37,365.29l2.64,2.4H99.37Zm2.64,0H99.37l2.64,2.4Z"/><path d="M42.73,365.29l3.84,2.4H42.73Zm3.84,0H42.73l3.84,2.4Z"/><path class="cls-3" d="M42.73,365.29l3.84,2.4H42.73Zm3.84,0H42.73l3.84,2.4Z"/><polyline class="cls-3" points="137.05 365.29 132.97 365.29 132.97 367.69 137.05 367.69"/><polyline class="cls-3" points="102.01 367.69 104.41 367.69 104.41 365.29 102.01 365.29"/><line class="cls-3" x1="132.97" y1="365.29" x2="104.41" y2="365.29"/><line class="cls-3" x1="104.41" y1="367.69" x2="132.97" y2="367.69"/><polyline class="cls-3" points="102.01 365.29 99.37 365.29 99.37 367.69 102.01 367.69"/><polyline class="cls-3" points="42.73 367.69 46.57 367.69 46.57 365.29 42.73 365.29"/><line class="cls-3" x1="99.37" y1="365.29" x2="46.57" y2="365.29"/><line class="cls-3" x1="46.57" y1="367.69" x2="99.37" y2="367.69"/><polyline class="cls-3" points="134.89 367.69 137.05 367.69 137.05 365.29"/><polyline class="cls-3" points="44.65 367.69 42.73 367.69 42.73 365.29"/><path d="M306.25,10.09h0ZM296.41.25l9.84,9.84h-9.84Z"/><path class="cls-3" d="M306.25,10.09h0ZM296.41.25l9.84,9.84h-9.84Z"/><polyline class="cls-3" points="306.25 10.09 296.41 10.09 296.41 0.25"/><path d="M225.85,10.09H216v9.84Zm0-9.84v9.84H216Z"/><path class="cls-3" d="M225.85,10.09H216v9.84Zm0-9.84v9.84H216Z"/><path d="M225.85,10.09Zm-9.84,0h0Z"/><path class="cls-3" d="M225.85,10.09Zm-9.84,0h0Z"/><line class="cls-3" x1="216.01" y1="10.09" x2="216.01" y2="19.93"/><line class="cls-3" x1="225.85" y1="10.09" x2="225.85" y2="0.25"/><path d="M155.77,313.45h0Z"/><path class="cls-3" d="M155.77,313.45h0Z"/><path d="M151.69,313.45l4.08,2.64h-4.08Zm4.08,0h-4.08l4.08,2.64Z"/><path class="cls-3" d="M151.69,313.45l4.08,2.64h-4.08Zm4.08,0h-4.08l4.08,2.64Z"/><polyline class="cls-3" points="151.69 313.45 151.69 316.09 155.77 316.09 155.77 313.45"/><path d="M219.85,90h0Z"/><path class="cls-3" d="M219.85,90h0Z"/><path d="M219.85,93.85H216V90Zm0,0Z"/><path class="cls-3" d="M219.85,93.85H216V90Zm0,0Z"/><polygon points="216.01 90.01 219.85 90.01 219.85 93.85 216.01 90.01"/><polygon class="cls-3" points="216.01 90.01 219.85 90.01 219.85 93.85 216.01 90.01"/><path d="M219.85,10.09h0Z"/><path class="cls-3" d="M219.85,10.09h0Z"/><path d="M219.85,50.41H216V10.09Zm0,0Z"/><path class="cls-3" d="M219.85,50.41H216V10.09Zm0,0Z"/><polygon points="216.01 10.09 219.85 10.09 219.85 50.41 216.01 10.09"/><polygon class="cls-3" points="216.01 10.09 219.85 10.09 219.85 50.41 216.01 10.09"/><line class="cls-3" x1="219.85" y1="90.01" x2="216.01" y2="90.01"/><line class="cls-3" x1="219.85" y1="50.41" x2="216.01" y2="50.41"/><line class="cls-3" x1="219.85" y1="93.85" x2="219.85" y2="90.01"/><polyline class="cls-3" points="219.85 50.41 219.85 10.09 216.01 10.09 216.01 50.41"/><line class="cls-3" x1="216.01" y1="90.01" x2="216.01" y2="93.85"/><line class="cls-3" x1="219.85" y1="50.41" x2="219.85" y2="53.05"/><line class="cls-3" x1="216.01" y1="50.41" x2="216.01" y2="53.05"/><line class="cls-3" x1="219.85" y1="90.01" x2="219.85" y2="87.61"/><line class="cls-3" x1="216.01" y1="90.01" x2="216.01" y2="87.61"/><line class="cls-3" x1="216.01" y1="53.05" x2="219.85" y2="53.05"/><polyline class="cls-3" points="216.01 87.61 219.85 87.61 237.13 57.61"/><path class="cls-3" d="M237,57.66a34.49,34.49,0,0,0-17.22-4.61"/><path d="M93.13,139.21h0Zm0,0Z"/><path class="cls-3" d="M93.13,139.21h0Zm0,0Z"/><path d="M93.13,139.21h0Z"/><path class="cls-3" d="M93.13,139.21h0Z"/><path d="M103,143.29H15.13v-4.08Zm0,0Z"/><path class="cls-3" d="M103,143.29H15.13v-4.08Zm0,0Z"/><polygon points="15.13 139.21 102.97 139.21 102.97 143.29 15.13 139.21"/><polygon class="cls-3" points="15.13 139.21 102.97 139.21 102.97 143.29 15.13 139.21"/><path d="M151.69,139.21h0Z"/><path class="cls-3" d="M151.69,139.21h0Z"/><path d="M151.69,143.29h-9.36v-4.08Zm0,0Z"/><path class="cls-3" d="M151.69,143.29h-9.36v-4.08Zm0,0Z"/><polygon points="142.33 139.21 151.69 139.21 151.69 143.29 142.33 139.21"/><polygon class="cls-3" points="142.33 139.21 151.69 139.21 151.69 143.29 142.33 139.21"/><line class="cls-3" x1="102.97" y1="143.29" x2="102.97" y2="139.21"/><polyline class="cls-3" points="142.33 143.29 142.33 139.21 151.69 139.21"/><line class="cls-3" x1="102.97" y1="139.21" x2="100.57" y2="139.21"/><line class="cls-3" x1="96.49" y1="139.21" x2="43.69" y2="139.21"/><polyline class="cls-3" points="39.85 139.21 15.13 139.21 15.13 143.29 102.97 143.29"/><line class="cls-3" x1="142.33" y1="143.29" x2="151.69" y2="143.29"/><line class="cls-3" x1="102.97" y1="139.21" x2="105.37" y2="139.21"/><line class="cls-3" x1="102.97" y1="143.29" x2="105.37" y2="143.29"/><line class="cls-3" x1="142.33" y1="139.21" x2="139.93" y2="139.21"/><line class="cls-3" x1="142.33" y1="143.29" x2="139.93" y2="143.29"/><line class="cls-3" x1="105.37" y1="143.29" x2="105.37" y2="139.21"/><polyline class="cls-3" points="139.93 143.29 139.93 139.21 139.93 104.89"/><path class="cls-3" d="M139.81,104.65a34.44,34.44,0,0,0-34.44,34.44"/><path d="M158.65,93.85h0Zm0,0Z"/><path class="cls-3" d="M158.65,93.85h0Zm0,0Z"/><path d="M158.65,93.85h0Z"/><path class="cls-3" d="M158.65,93.85h0Z"/><path d="M160.57,97.93h-4.8l-4.08-4.08Zm0,0Z"/><path class="cls-3" d="M160.57,97.93h-4.8l-4.08-4.08Zm0,0Z"/><polygon points="151.69 93.85 160.57 93.85 160.57 97.93 151.69 93.85"/><polygon class="cls-3" points="151.69 93.85 160.57 93.85 160.57 97.93 151.69 93.85"/><path d="M316.09,93.85h0Z"/><path class="cls-3" d="M316.09,93.85h0Z"/><path d="M316.09,97.93H205V93.85Zm0,0Z"/><path class="cls-3" d="M316.09,97.93H205V93.85Zm0,0Z"/><polygon points="204.97 93.85 316.09 93.85 316.09 97.93 204.97 93.85"/><polygon class="cls-3" points="204.97 93.85 316.09 93.85 316.09 97.93 204.97 93.85"/><line class="cls-3" x1="160.57" y1="97.93" x2="160.57" y2="93.85"/><line class="cls-3" x1="204.97" y1="97.93" x2="204.97" y2="93.85"/><line class="cls-3" x1="155.77" y1="97.93" x2="160.57" y2="97.93"/><polyline class="cls-3" points="204.97 97.93 316.09 97.93 316.09 93.85 219.85 93.85"/><line class="cls-3" x1="216.01" y1="93.85" x2="204.97" y2="93.85"/><line class="cls-3" x1="160.57" y1="93.85" x2="151.69" y2="93.85"/><line class="cls-3" x1="204.97" y1="97.93" x2="202.57" y2="97.93"/><line class="cls-3" x1="204.97" y1="93.85" x2="202.57" y2="93.85"/><line class="cls-3" x1="160.57" y1="97.93" x2="163.21" y2="97.93"/><line class="cls-3" x1="160.57" y1="93.85" x2="163.21" y2="93.85"/><line class="cls-3" x1="202.57" y1="93.85" x2="202.57" y2="97.93"/><polyline class="cls-3" points="163.21 93.85 163.21 97.93 163.21 137.29"/><path class="cls-3" d="M163.09,137.29a39.49,39.49,0,0,0,39.48-39.48"/><path d="M151.69,93.85Z"/><path class="cls-3" d="M151.69,93.85Z"/><path d="M151.69,93.85l4.08,4.08h-4.08Zm4.08,4.08-4.08-4.08Z"/><path class="cls-3" d="M151.69,93.85l4.08,4.08h-4.08Zm4.08,4.08-4.08-4.08Z"/><path d="M155.77,313.45h-4.08V97.93Zm0,0Z"/><path class="cls-3" d="M155.77,313.45h-4.08V97.93Zm0,0Z"/><polygon points="151.69 97.93 155.77 97.93 155.77 313.45 151.69 97.93"/><polygon class="cls-3" points="151.69 97.93 155.77 97.93 155.77 313.45 151.69 97.93"/><line class="cls-3" x1="151.69" y1="93.85" x2="151.69" y2="139.21"/><line class="cls-3" x1="151.69" y1="143.29" x2="151.69" y2="313.45"/><line class="cls-3" x1="155.77" y1="313.45" x2="155.77" y2="97.93"/><path d="M100.57,85.93h0Z"/><path class="cls-3" d="M100.57,85.93h0Z"/><path d="M100.57,139.21H96.49V85.93Zm0,0Z"/><path class="cls-3" d="M100.57,139.21H96.49V85.93Zm0,0Z"/><polygon points="96.49 85.93 100.57 85.93 100.57 139.21 96.49 85.93"/><polygon class="cls-3" points="96.49 85.93 100.57 85.93 100.57 139.21 96.49 85.93"/><path d="M100.57,10.09h0Z"/><path class="cls-3" d="M100.57,10.09h0Z"/><path d="M100.57,46.57H96.49V10.09Zm0,0Z"/><path class="cls-3" d="M100.57,46.57H96.49V10.09Zm0,0Z"/><polygon points="96.49 10.09 100.57 10.09 100.57 46.57 96.49 10.09"/><polygon class="cls-3" points="96.49 10.09 100.57 10.09 100.57 46.57 96.49 10.09"/><line class="cls-3" x1="100.57" y1="85.93" x2="96.49" y2="85.93"/><line class="cls-3" x1="100.57" y1="46.57" x2="96.49" y2="46.57"/><line class="cls-3" x1="100.57" y1="139.21" x2="100.57" y2="85.93"/><polyline class="cls-3" points="100.57 46.57 100.57 10.09 96.49 10.09 96.49 46.57"/><line class="cls-3" x1="96.49" y1="85.93" x2="96.49" y2="115.69"/><line class="cls-3" x1="96.49" y1="119.53" x2="96.49" y2="139.21"/><line class="cls-3" x1="100.57" y1="85.93" x2="100.57" y2="83.53"/><line class="cls-3" x1="96.49" y1="85.93" x2="96.49" y2="83.53"/><line class="cls-3" x1="100.57" y1="46.57" x2="100.57" y2="48.97"/><line class="cls-3" x1="96.49" y1="46.57" x2="96.49" y2="48.97"/><line class="cls-3" x1="96.49" y1="83.53" x2="100.57" y2="83.53"/><polyline class="cls-3" points="96.49 48.97 100.57 48.97 117.85 78.97"/><path class="cls-3" d="M100.45,83.29a34.49,34.49,0,0,0,17.22-4.61"/><path d="M39.85,119.53h0Z"/><path class="cls-3" d="M39.85,119.53h0Z"/><path d="M43.69,139.21H39.85V119.53Zm0,0Z"/><path class="cls-3" d="M43.69,139.21H39.85V119.53Zm0,0Z"/><polygon points="39.85 119.53 43.69 119.53 43.69 139.21 39.85 119.53"/><polygon class="cls-3" points="39.85 119.53 43.69 119.53 43.69 139.21 39.85 119.53"/><line class="cls-3" x1="39.85" y1="119.53" x2="39.85" y2="139.21"/><line class="cls-3" x1="43.69" y1="139.21" x2="43.69" y2="119.53"/><path d="M15.13,115.69h0Z"/><path class="cls-3" d="M15.13,115.69h0Z"/><path d="M96.49,119.53H15.13v-3.84Zm0,0Z"/><path class="cls-3" d="M96.49,119.53H15.13v-3.84Zm0,0Z"/><polygon points="15.13 115.69 96.49 115.69 96.49 119.53 15.13 115.69"/><polygon class="cls-3" points="15.13 115.69 96.49 115.69 96.49 119.53 15.13 115.69"/><line class="cls-3" x1="15.13" y1="119.53" x2="39.85" y2="119.53"/><line class="cls-3" x1="43.69" y1="119.53" x2="96.49" y2="119.53"/><polyline class="cls-3" points="96.49 115.69 15.13 115.69 15.13 119.53"/><polyline class="cls-3" points="0.25 402.25 1.45 401.05 1.45 372.73 0.25 372.73 0.25 402.25"/><line class="cls-3" x1="0.97" y1="401.77" x2="0.97" y2="372.73"/><polyline class="cls-3" points="44.65 402.25 43.45 401.05 1.45 401.05 0.25 402.25 44.65 402.25"/><line class="cls-3" x1="44.17" y1="401.77" x2="0.97" y2="401.77"/><polyline class="cls-3" points="43.45 401.05 43.45 372.73 44.65 372.73 44.65 402.25 43.45 401.05"/><line class="cls-3" x1="44.17" y1="401.77" x2="44.17" y2="372.73"/><polyline class="cls-3" points="301.69 402.25 303.13 401.05 303.13 372.73 301.69 372.73 301.69 402.25"/><line class="cls-3" x1="302.41" y1="401.77" x2="302.41" y2="372.73"/><polyline class="cls-3" points="346.09 402.25 344.89 401.05 303.13 401.05 301.69 402.25 346.09 402.25"/><line class="cls-3" x1="345.61" y1="401.77" x2="302.41" y2="401.77"/><polyline class="cls-3" points="344.89 401.05 344.89 372.73 346.09 372.73 346.09 402.25 344.89 401.05"/><line class="cls-3" x1="345.61" y1="401.77" x2="345.61" y2="372.73"/><polyline class="cls-3" points="44.65 182.65 44.65 143.29 17.53 143.29 17.53 182.65 44.65 182.65"/><polyline class="cls-3" points="42.25 180.25 42.25 159.13 22.57 159.13 22.57 180.25 42.25 180.25"/><line class="cls-3" x1="42.01" y1="155.53" x2="42.01" y2="147.61"/><line class="cls-3" x1="38.65" y1="155.53" x2="38.65" y2="147.61"/><line class="cls-3" x1="35.53" y1="155.53" x2="35.53" y2="147.61"/><line class="cls-3" x1="32.17" y1="155.53" x2="32.17" y2="147.61"/><line class="cls-3" x1="29.05" y1="155.53" x2="29.05" y2="147.61"/><line class="cls-3" x1="25.69" y1="155.53" x2="25.69" y2="147.61"/><line class="cls-3" x1="321.13" y1="168.01" x2="321.13" y2="168.01"/><polyline class="cls-3" points="44.65 172.81 44.65 313.45 13.54 313.45"/><line class="cls-3" x1="225.85" y1="0.25" x2="296.41" y2="0.25"/><path d="M316.09,10.09h0Z"/><path class="cls-3" d="M316.09,10.09h0Z"/><path d="M325.93,93.85h-9.84V10.09Zm0,0Z"/><path class="cls-3" d="M325.93,93.85h-9.84V10.09Zm0,0Z"/><polygon points="316.09 10.09 325.93 10.09 325.93 93.85 316.09 10.09"/><polygon class="cls-3" points="316.09 10.09 325.93 10.09 325.93 93.85 316.09 10.09"/><polyline class="cls-3" points="316.09 19.93 316.09 93.85 325.93 93.85 325.93 68.17"/><line class="cls-3" x1="325.93" y1="64.33" x2="325.93" y2="39.61"/><polyline class="cls-3" points="325.93 35.77 325.93 10.09 316.09 10.09"/><path d="M5.29,10.09h0Z"/><path class="cls-3" d="M5.29,10.09h0Z"/><path d="M5.29,10.09l9.84,83.76H5.29Zm9.84,0H5.29l9.84,83.76Z"/><path class="cls-3" d="M5.29,10.09l9.84,83.76H5.29Zm9.84,0H5.29l9.84,83.76Z"/><polyline class="cls-3" points="5.29 10.09 5.29 93.85 15.13 93.85 15.13 10.09 5.29 10.09"/><path d="M145.93,93.85l9.84,49.44h-9.84Zm9.84,0h-9.84l9.84,49.44Z"/><path class="cls-3" d="M145.93,93.85l9.84,49.44h-9.84Zm9.84,0h-9.84l9.84,49.44Z"/><polyline class="cls-3" points="155.77 143.29 155.77 93.85 145.93 93.85 145.93 143.29 155.77 143.29"/><path d="M316.09,93.85h0Z"/><path class="cls-3" d="M316.09,93.85h0Z"/><path d="M325.93,143.29h-9.84V93.85Zm0,0Z"/><path class="cls-3" d="M325.93,143.29h-9.84V93.85Zm0,0Z"/><polygon points="316.09 93.85 325.93 93.85 325.93 143.29 316.09 93.85"/><polygon class="cls-3" points="316.09 93.85 325.93 93.85 325.93 143.29 316.09 93.85"/><polyline class="cls-3" points="325.93 143.29 325.93 93.85 316.09 93.85 316.09 143.29 325.93 143.29"/><path d="M325.93,316.09h0Z"/><path class="cls-3" d="M325.93,316.09h0Z"/><path d="M325.93,355.45h-9.84V316.09Zm0,0Z"/><path class="cls-3" d="M325.93,355.45h-9.84V316.09Zm0,0Z"/><polygon points="316.09 316.09 325.93 316.09 325.93 355.45 316.09 316.09"/><polygon class="cls-3" points="316.09 316.09 325.93 316.09 325.93 355.45 316.09 316.09"/><polyline class="cls-3" points="325.93 355.45 325.93 316.09 316.09 316.09 316.09 355.45"/><path d="M325.93,143.29h0Z"/><path class="cls-3" d="M325.93,143.29h0Z"/><path d="M325.93,316.09h-9.84V143.29Zm0,0Z"/><path class="cls-3" d="M325.93,316.09h-9.84V143.29Zm0,0Z"/><polygon points="316.09 143.29 325.93 143.29 325.93 316.09 316.09 143.29"/><polygon class="cls-3" points="316.09 143.29 325.93 143.29 325.93 316.09 316.09 143.29"/><polyline class="cls-3" points="316.09 143.29 316.09 316.09 325.93 316.09 325.93 143.29 316.09 143.29"/><path d="M296.41.25h0Z"/><path class="cls-3" d="M296.41.25h0Z"/><path d="M325.93,10.09H306.25L296.41.25Zm0,0Z"/><path class="cls-3" d="M325.93,10.09H306.25L296.41.25Zm0,0Z"/><polygon points="296.41 0.25 325.93 0.25 325.93 10.09 296.41 0.25"/><polygon class="cls-3" points="296.41 0.25 325.93 0.25 325.93 10.09 296.41 0.25"/><line class="cls-3" x1="325.93" y1="0.25" x2="296.41" y2="0.25"/><polyline class="cls-3" points="306.25 10.09 325.93 10.09 325.93 0.25"/><path d="M15.13,143.29H5.29V93.85Zm0,0Z"/><path class="cls-3" d="M15.13,143.29H5.29V93.85Zm0,0Z"/><polygon points="5.29 93.85 15.13 93.85 15.13 143.29 5.29 93.85"/><polygon class="cls-3" points="5.29 93.85 15.13 93.85 15.13 143.29 5.29 93.85"/><polyline class="cls-3" points="15.13 143.29 15.13 93.85 5.29 93.85 5.29 143.29 15.13 143.29"/><path d="M5.29,143.29h0Z"/><path class="cls-3" d="M5.29,143.29h0Z"/><path d="M15.13,316.09H5.29V143.29Zm0,0Z"/><path class="cls-3" d="M15.13,316.09H5.29V143.29Zm0,0Z"/><polygon points="5.29 143.29 15.13 143.29 15.13 316.09 5.29 143.29"/><polygon class="cls-3" points="5.29 143.29 15.13 143.29 15.13 316.09 5.29 143.29"/><polyline class="cls-3" points="5.29 143.29 5.29 316.09 15.13 316.09 15.13 143.29 5.29 143.29"/><path d="M5.29,316.09h0Z"/><path class="cls-3" d="M5.29,316.09h0Z"/><path d="M5.29,316.09l9.84,39.36H5.29Zm9.84,0H5.29l9.84,39.36Z"/><path class="cls-3" d="M5.29,316.09l9.84,39.36H5.29Zm9.84,0H5.29l9.84,39.36Z"/><polyline class="cls-3" points="15.13 355.45 15.13 316.09 5.29 316.09 5.29 355.45"/><path d="M5.29.25h0Z"/><path class="cls-3" d="M5.29.25h0Z"/><path d="M34.81,10.09H5.29V.25Zm0,0Z"/><path class="cls-3" d="M34.81,10.09H5.29V.25Zm0,0Z"/><polygon points="5.29 0.25 34.81 0.25 34.81 10.09 5.29 0.25"/><polygon class="cls-3" points="5.29 0.25 34.81 0.25 34.81 10.09 5.29 0.25"/><polyline class="cls-3" points="34.81 0.25 5.29 0.25 5.29 10.09 34.81 10.09 34.81 0.25"/><path d="M34.81.25l70.56,9.84H34.81Zm70.56,0H34.81l70.56,9.84Z"/><path class="cls-3" d="M34.81.25l70.56,9.84H34.81Zm70.56,0H34.81l70.56,9.84Z"/><path d="M154.81.25h0Z"/><path class="cls-3" d="M154.81.25h0Z"/><path d="M216,10.09h-61.2V.25Zm0,0Z"/><path class="cls-3" d="M216,10.09h-61.2V.25Zm0,0Z"/><polygon points="154.81 0.25 225.85 0.25 216.01 10.09 154.81 0.25"/><polygon class="cls-3" points="154.81 0.25 225.85 0.25 216.01 10.09 154.81 0.25"/><line class="cls-3" x1="105.37" y1="0.25" x2="105.37" y2="10.09"/><line class="cls-3" x1="154.81" y1="0.25" x2="154.81" y2="10.09"/><line class="cls-3" x1="34.81" y1="10.09" x2="105.37" y2="10.09"/><line class="cls-3" x1="154.81" y1="10.09" x2="216.01" y2="10.09"/><line class="cls-3" x1="225.85" y1="0.25" x2="154.81" y2="0.25"/><polyline class="cls-3" points="105.37 0.25 34.81 0.25 34.81 10.09"/><path class="cls-3" d="M107.17,55.45A45.48,45.48,0,0,0,152.65,10"/><path d="M152.65.25h0Z"/><path class="cls-3" d="M152.65.25h0Z"/><path d="M154.81,10.09h-2.16V.25Zm0,0Z"/><path class="cls-3" d="M154.81,10.09h-2.16V.25Zm0,0Z"/><polygon points="152.65 0.25 154.81 0.25 154.81 10.09 152.65 0.25"/><polygon class="cls-3" points="152.65 0.25 154.81 0.25 154.81 10.09 152.65 0.25"/><path d="M105.37.25h0Z"/><path class="cls-3" d="M105.37.25h0Z"/><path d="M107.29,10.09h-1.92V.25Zm0,0Z"/><path class="cls-3" d="M107.29,10.09h-1.92V.25Zm0,0Z"/><polygon points="105.37 0.25 107.29 0.25 107.29 10.09 105.37 0.25"/><polygon class="cls-3" points="105.37 0.25 107.29 0.25 107.29 10.09 105.37 0.25"/><polyline class="cls-3" points="154.81 0.25 152.65 0.25 152.65 10.09 154.81 10.09 154.81 0.25"/><polyline class="cls-3" points="105.37 10.09 107.29 10.09 107.29 0.25 105.37 0.25 105.37 10.09"/><line class="cls-3" x1="107.29" y1="10.09" x2="107.29" y2="55.45"/><line class="cls-3" x1="154.81" y1="0.25" x2="154.81" y2="10.09"/><line class="cls-3" x1="105.37" y1="0.25" x2="105.37" y2="10.09"/><path d="M155.77,355.45h-9.84V316.09Zm0,0Z"/><path class="cls-3" d="M155.77,355.45h-9.84V316.09Zm0,0Z"/><polygon points="145.93 316.09 155.77 316.09 155.77 355.45 145.93 316.09"/><polygon class="cls-3" points="145.93 316.09 155.77 316.09 155.77 355.45 145.93 316.09"/><polyline class="cls-3" points="155.77 355.45 155.77 316.09 145.93 316.09 145.93 355.45"/><path d="M225.85,10.09h0Z"/><path class="cls-3" d="M225.85,10.09h0Z"/><path d="M316.09,19.93H216l9.84-9.84Zm0,0Z"/><path class="cls-3" d="M316.09,19.93H216l9.84-9.84Zm0,0Z"/><polygon points="225.85 10.09 316.09 10.09 316.09 19.93 225.85 10.09"/><polygon class="cls-3" points="225.85 10.09 316.09 10.09 316.09 19.93 225.85 10.09"/><line class="cls-3" x1="216.01" y1="19.93" x2="316.09" y2="19.93"/><line class="cls-3" x1="316.09" y1="10.09" x2="306.25" y2="10.09"/><line class="cls-3" x1="296.41" y1="10.09" x2="225.85" y2="10.09"/><text class="cls-4" transform="translate(247.45 56.17)">2.92</text><text class="cls-4" transform="translate(141.61 66.25)">4.82</text><text class="cls-4" transform="translate(43.21 71.53)">3.53</text><text class="cls-4" transform="translate(60.97 345.61)">11.82</text><text class="cls-4" transform="translate(216.01 345.61)">16.96</text><text class="cls-4" transform="translate(227.31 272.57)">1К</text><text class="cls-4" transform="translate(216.78 297.9)">40.05</text><text class="cls-4" transform="translate(219.17 247.62)">№15</text><polyline class="cls-3" points="206.05 304.31 206.05 229.79 268.2 229.79 268.2 304.31"/><line class="cls-3" x1="206.05" y1="254.68" x2="268.2" y2="254.68"/><line class="cls-3" x1="206.05" y1="304.31" x2="268.2" y2="304.31"/><line class="cls-3" x1="206.05" y1="279.56" x2="268.2" y2="279.56"/></svg>