<svg id="_454" data-name="454" xmlns="http://www.w3.org/2000/svg" viewBox="0 0 598.27 397.62"><defs><style>.cls-1,.cls-5,.cls-6{fill:none;stroke-linecap:round;stroke-linejoin:round;stroke-width:0.5px;}.cls-1{stroke:#999;}.cls-2{isolation:isolate;font-size:12px;fill:#999;}.cls-2,.cls-3,.cls-4{font-family:PTSans-Regular, PT Sans;}.cls-3{font-size:20px;}.cls-4{font-size:24px;}.cls-5,.cls-6{stroke:#000;}.cls-6{stroke-dasharray:3.01 3.01;}</style></defs><title>7floor_454flat</title><line class="cls-1" x1="10.8" y1="214.52" x2="2" y2="214.52"/><polyline class="cls-1" points="5.3 210.92 1.8 214.42 5.3 217.92"/><text class="cls-2" transform="translate(10.2 205.1) rotate(-90)">двор</text><text class="cls-3" transform="translate(495.04 338.33)">3.42</text><text class="cls-3" transform="translate(168.02 309.99)">12.65</text><text class="cls-3" transform="translate(521.7 245.88)">6.53</text><text class="cls-3" transform="translate(397.65 127.68)">6.77</text><text class="cls-3" transform="translate(89.47 307.38)">0.91</text><text class="cls-3" transform="translate(120.02 116.11)">14.25</text><text class="cls-4" transform="translate(273.72 311.58)">1Е</text><text class="cls-4" transform="translate(257.96 344.62)">44.53</text><text class="cls-4" transform="translate(254.79 279.04)">№454</text><polyline class="cls-5" points="246.16 352.99 246.16 255.79 327.22 255.79 327.22 352.99"/><line class="cls-5" x1="246.16" y1="288.25" x2="327.22" y2="288.25"/><line class="cls-5" x1="246.16" y1="352.99" x2="327.22" y2="352.99"/><line class="cls-5" x1="246.16" y1="320.71" x2="327.22" y2="320.71"/><polyline class="cls-5" points="359.81 214.28 153.83 214.28 153.83 385.15 359.81 385.15 420.92 385.15 433.14 385.15 433.14 214.28 420.92 214.28 420.92 221.82 359.81 221.82 359.81 214.28"/><polyline class="cls-5" points="598.02 0.25 598.02 0.25 598.02 38.48 598.02 120.4"/><polyline class="cls-5" points="84.92 231.45 84.92 375.26 131.99 375.26 131.99 231.45 84.92 231.45"/><line class="cls-5" x1="598.02" y1="130.02" x2="598.02" y2="392.43"/><polyline class="cls-5" points="367.09 12.47 359.81 12.47 142.91 12.47 97.14 12.47 97.14 19.75 97.14 209.6 142.91 209.6 367.09 209.6"/><polyline class="cls-5" points="500.24 41.86 500.24 214.28 438.08 214.28 438.08 279.56 585.8 279.56 585.8 41.86 500.24 41.86"/><polyline class="cls-5" points="562.66 284.24 438.08 284.24 438.08 385.15 562.66 385.15 562.66 284.24"/><line class="cls-5" x1="367.09" y1="209.6" x2="495.3" y2="209.6"/><polyline class="cls-5" points="495.3 209.6 495.3 12.47 420.92 12.47 367.09 12.47"/><polyline points="75.81 397.37 75.81 385.15 81.8 397.37"/><polyline points="81.8 397.37 81.8 385.15 75.81 385.15 81.8 397.37"/><polyline class="cls-5" points="75.81 397.37 75.81 385.15 81.8 397.37"/><polyline class="cls-5" points="81.8 397.37 81.8 385.15 75.81 385.15 81.8 397.37"/><path d="M104.17,376h0Z" transform="translate(-28.35)"/><path class="cls-5" d="M104.17,376h0Z" transform="translate(-28.35)"/><path d="M104.17,376l6,5.46h-6Zm.52,0h-.52l6,5.46Z" transform="translate(-28.35)"/><path class="cls-5" d="M104.17,376l6,5.46h-6Zm.52,0h-.52l6,5.46Z" transform="translate(-28.35)"/><path d="M110.15,385.15h-6V381.5Zm0,0Z" transform="translate(-28.35)"/><path class="cls-5" d="M110.15,385.15h-6V381.5Zm0,0Z" transform="translate(-28.35)"/><polygon points="75.81 381.5 81.8 381.5 81.8 385.15 75.81 381.5"/><polygon class="cls-5" points="75.81 381.5 81.8 381.5 81.8 385.15 75.81 381.5"/><path d="M104.69,376h-.52v-.78Zm0,0Zm-.52-.78.52.78Z" transform="translate(-28.35)"/><path class="cls-5" d="M104.69,376h-.52v-.78Zm0,0Zm-.52-.78.52.78Z" transform="translate(-28.35)"/><path d="M110.15,397.37h0Z" transform="translate(-28.35)"/><path class="cls-5" d="M110.15,397.37h0Z" transform="translate(-28.35)"/><path d="M110.15,385.15h0Z" transform="translate(-28.35)"/><path class="cls-5" d="M110.15,385.15h0Z" transform="translate(-28.35)"/><path d="M125.49,397.37H110.15V385.15Zm0,0Z" transform="translate(-28.35)"/><path class="cls-5" d="M125.49,397.37H110.15V385.15Zm0,0Z" transform="translate(-28.35)"/><polygon points="81.8 385.15 85.18 385.15 97.14 397.37 81.8 385.15"/><polygon class="cls-5" points="81.8 385.15 85.18 385.15 97.14 397.37 81.8 385.15"/><path d="M113.53,385.15h0Zm-3.38-3.65,3.38,3.65h-3.38Z" transform="translate(-28.35)"/><path class="cls-5" d="M113.53,385.15h0Zm-3.38-3.65,3.38,3.65h-3.38Z" transform="translate(-28.35)"/><line class="cls-5" x1="76.33" y1="376.04" x2="75.81" y2="376.04"/><polyline class="cls-5" points="97.14 397.37 75.81 397.37 81.8 397.37"/><polyline class="cls-5" points="85.18 385.15 81.8 385.15 81.8 397.37"/><polyline class="cls-5" points="75.81 375.26 75.81 376.04 75.81 385.15 75.81 397.37"/><path d="M104.69,230.93h-.52v.52Zm0,0Z" transform="translate(-28.35)"/><path class="cls-5" d="M104.69,230.93h-.52v.52Zm0,0Z" transform="translate(-28.35)"/><path d="M104.17,221.83h0Z" transform="translate(-28.35)"/><path class="cls-5" d="M104.17,221.83h0Z" transform="translate(-28.35)"/><path d="M104.17,221.83l6,3.38h-6Zm6,0h-6l6,3.38Z" transform="translate(-28.35)"/><path class="cls-5" d="M104.17,221.83l6,3.38h-6Zm6,0h-6l6,3.38Z" transform="translate(-28.35)"/><path d="M104.69,230.93h-.52v-5.72Zm0,0Z" transform="translate(-28.35)"/><path class="cls-5" d="M104.69,230.93h-.52v-5.72Zm0,0Z" transform="translate(-28.35)"/><polygon points="75.81 225.21 81.8 225.21 76.33 230.93 75.81 225.21"/><polygon class="cls-5" points="75.81 225.21 81.8 225.21 76.33 230.93 75.81 225.21"/><path d="M104.17,205.18l6,2.6h-6Zm6,0h-6l6,2.6Z" transform="translate(-28.35)"/><path class="cls-5" d="M104.17,205.18l6,2.6h-6Zm6,0h-6l6,2.6Z" transform="translate(-28.35)"/><path d="M104.17,207.78l6,14.05h-6Zm6,0h-6l6,14.05Z" transform="translate(-28.35)"/><path class="cls-5" d="M104.17,207.78l6,14.05h-6Zm6,0h-6l6,14.05Z" transform="translate(-28.35)"/><path d="M104.17,1.55l6,57.73h-6Zm6,0h-6l6,57.73Z" transform="translate(-28.35)"/><path class="cls-5" d="M104.17,1.55l6,57.73h-6Zm6,0h-6l6,57.73Z" transform="translate(-28.35)"/><path d="M104.17,59.28l6,2.35h-6Zm6,0h-6l6,2.35Z" transform="translate(-28.35)"/><path class="cls-5" d="M104.17,59.28l6,2.35h-6Zm6,0h-6l6,2.35Z" transform="translate(-28.35)"/><path d="M104.17,1.55h0Z" transform="translate(-28.35)"/><path class="cls-5" d="M104.17,1.55h0Z" transform="translate(-28.35)"/><path d="M104.17,1.55h0Zm.52,0h0Z" transform="translate(-28.35)"/><path class="cls-5" d="M104.17,1.55h0Zm.52,0h0Z" transform="translate(-28.35)"/><path d="M110.15,1.55h0Zm0,0Z" transform="translate(-28.35)"/><path class="cls-5" d="M110.15,1.55h0Zm0,0Z" transform="translate(-28.35)"/><polygon points="75.81 1.55 81.8 1.55 81.8 1.55 75.81 1.55"/><polygon class="cls-5" points="75.81 1.55 81.8 1.55 81.8 1.55 75.81 1.55"/><path d="M104.69,1.55h0Zm0,0Zm-.52,0h0Z" transform="translate(-28.35)"/><path class="cls-5" d="M104.69,1.55h0Zm0,0Zm-.52,0h0Z" transform="translate(-28.35)"/><path d="M110.15,221.83h0Z" transform="translate(-28.35)"/><path class="cls-5" d="M110.15,221.83h0Z" transform="translate(-28.35)"/><path d="M110.15,221.83v0Zm3.38,0h-3.38v3.38Z" transform="translate(-28.35)"/><path class="cls-5" d="M110.15,221.83v0Zm3.38,0h-3.38v3.38Z" transform="translate(-28.35)"/><path d="M110.15,209.6h0Z" transform="translate(-28.35)"/><path class="cls-5" d="M110.15,209.6h0Z" transform="translate(-28.35)"/><path d="M113.53,221.83h-3.38V209.6Zm0,0Z" transform="translate(-28.35)"/><path class="cls-5" d="M113.53,221.83h-3.38V209.6Zm0,0Z" transform="translate(-28.35)"/><polygon points="81.8 209.6 97.14 209.6 85.18 221.82 81.8 209.6"/><polygon class="cls-5" points="81.8 209.6 97.14 209.6 85.18 221.82 81.8 209.6"/><path d="M125.49,209.6H110.15v-1.82Zm0,0Z" transform="translate(-28.35)"/><path class="cls-5" d="M125.49,209.6H110.15v-1.82Zm0,0Z" transform="translate(-28.35)"/><polygon points="81.8 207.78 97.14 207.78 97.14 209.6 81.8 207.78"/><polygon class="cls-5" points="81.8 207.78 97.14 207.78 97.14 209.6 81.8 207.78"/><path d="M110.15,12.47h0Z" transform="translate(-28.35)"/><path class="cls-5" d="M110.15,12.47h0Z" transform="translate(-28.35)"/><path d="M110.15,12.47l15.34,46.81H110.15Zm15.34,0H110.15l15.34,46.81Z" transform="translate(-28.35)"/><path class="cls-5" d="M110.15,12.47l15.34,46.81H110.15Zm15.34,0H110.15l15.34,46.81Z" transform="translate(-28.35)"/><path d="M110.15,1.55h0Z" transform="translate(-28.35)"/><path class="cls-5" d="M110.15,1.55h0Z" transform="translate(-28.35)"/><path d="M125.49,12.47H110.15V1.55Zm0,0Z" transform="translate(-28.35)"/><path class="cls-5" d="M125.49,12.47H110.15V1.55Zm0,0Z" transform="translate(-28.35)"/><polygon points="81.8 1.55 85.18 1.55 97.14 12.47 81.8 1.55"/><polygon class="cls-5" points="81.8 1.55 85.18 1.55 97.14 12.47 81.8 1.55"/><path d="M113.53,1.55h0Zm0,0Zm-3.38,0h0Z" transform="translate(-28.35)"/><path class="cls-5" d="M113.53,1.55h0Zm0,0Zm-3.38,0h0Z" transform="translate(-28.35)"/><line class="cls-5" x1="76.33" y1="230.93" x2="75.81" y2="230.93"/><line class="cls-5" x1="76.33" y1="1.55" x2="75.81" y2="1.55"/><line class="cls-5" x1="85.18" y1="221.83" x2="81.8" y2="221.83"/><polyline class="cls-5" points="97.14 209.6 81.8 209.6 81.8 221.82"/><line class="cls-5" x1="81.8" y1="207.78" x2="81.8" y2="209.6"/><polyline class="cls-5" points="97.14 12.47 81.8 12.47 81.8 59.28"/><polyline class="cls-5" points="85.18 1.55 81.8 1.55 81.8 12.47"/><line class="cls-5" x1="84.92" y1="207.78" x2="97.14" y2="207.78"/><polyline class="cls-5" points="75.81 205.18 81.8 205.18 81.8 207.78 84.92 207.78"/><line class="cls-5" x1="84.92" y1="59.28" x2="97.14" y2="59.28"/><polyline class="cls-5" points="75.81 61.63 81.8 61.63 81.8 59.28 84.92 59.28"/><line class="cls-5" x1="97.14" y1="209.6" x2="97.14" y2="207.78"/><line class="cls-5" x1="97.14" y1="59.28" x2="97.14" y2="12.47"/><polyline class="cls-5" points="75.81 1.55 75.81 1.55 75.81 1.55 75.81 61.63"/><polyline class="cls-5" points="75.81 231.45 75.81 230.93 75.81 221.82 75.81 205.18"/><line class="cls-5" x1="75.81" y1="61.63" x2="75.81" y2="205.18"/><line class="cls-5" x1="97.14" y1="59.28" x2="97.14" y2="207.78"/><path d="M110.15,59.28h0Z" transform="translate(-28.35)"/><path class="cls-5" d="M110.15,59.28h0Z" transform="translate(-28.35)"/><path d="M113.27,64.23h-3.12v-5Zm0,0Z" transform="translate(-28.35)"/><path class="cls-5" d="M113.27,64.23h-3.12v-5Zm0,0Z" transform="translate(-28.35)"/><polygon points="81.8 59.28 84.92 59.28 84.92 64.23 81.8 59.28"/><polygon class="cls-5" points="81.8 59.28 84.92 59.28 84.92 64.23 81.8 59.28"/><path d="M110.15,96h0Z" transform="translate(-28.35)"/><path class="cls-5" d="M110.15,96h0Z" transform="translate(-28.35)"/><path d="M113.27,98.81h-3.12V96Zm0,0Z" transform="translate(-28.35)"/><path class="cls-5" d="M113.27,98.81h-3.12V96Zm0,0Z" transform="translate(-28.35)"/><polygon points="81.8 95.95 84.92 95.95 84.92 98.81 81.8 95.95"/><polygon class="cls-5" points="81.8 95.95 84.92 95.95 84.92 98.81 81.8 95.95"/><path d="M110.15,98.81h0Z" transform="translate(-28.35)"/><path class="cls-5" d="M110.15,98.81h0Z" transform="translate(-28.35)"/><path d="M113.27,101.94h-3.12V98.81Zm0,0Z" transform="translate(-28.35)"/><path class="cls-5" d="M113.27,101.94h-3.12V98.81Zm0,0Z" transform="translate(-28.35)"/><polygon points="81.8 98.81 84.92 98.81 84.92 101.94 81.8 98.81"/><polygon class="cls-5" points="81.8 98.81 84.92 98.81 84.92 101.94 81.8 98.81"/><path d="M110.15,164.87h0Z" transform="translate(-28.35)"/><path class="cls-5" d="M110.15,164.87h0Z" transform="translate(-28.35)"/><path d="M113.27,168h-3.12v-3.12Zm0,0Z" transform="translate(-28.35)"/><path class="cls-5" d="M113.27,168h-3.12v-3.12Zm0,0Z" transform="translate(-28.35)"/><polygon points="81.8 164.87 84.92 164.87 84.92 167.99 81.8 164.87"/><polygon class="cls-5" points="81.8 164.87 84.92 164.87 84.92 167.99 81.8 164.87"/><path d="M110.15,168h0Z" transform="translate(-28.35)"/><path class="cls-5" d="M110.15,168h0Z" transform="translate(-28.35)"/><path d="M113.27,171.11h-3.12V168Zm0,0Z" transform="translate(-28.35)"/><path class="cls-5" d="M113.27,171.11h-3.12V168Zm0,0Z" transform="translate(-28.35)"/><polygon points="81.8 167.99 84.92 167.99 84.92 171.11 81.8 167.99"/><polygon class="cls-5" points="81.8 167.99 84.92 167.99 84.92 171.11 81.8 167.99"/><path d="M110.15,202.84h0Z" transform="translate(-28.35)"/><path class="cls-5" d="M110.15,202.84h0Z" transform="translate(-28.35)"/><path d="M113.27,207.78h-3.12v-4.94Zm0,0Z" transform="translate(-28.35)"/><path class="cls-5" d="M113.27,207.78h-3.12v-4.94Zm0,0Z" transform="translate(-28.35)"/><polygon points="81.8 202.84 84.92 202.84 84.92 207.78 81.8 202.84"/><polygon class="cls-5" points="81.8 202.84 84.92 202.84 84.92 207.78 81.8 202.84"/><polyline class="cls-5" points="81.8 59.28 81.8 64.23 84.92 64.23 84.92 59.28"/><polyline class="cls-5" points="84.92 98.81 84.92 95.95 81.8 95.95 81.8 98.81"/><line class="cls-5" x1="81.8" y1="64.23" x2="81.8" y2="95.95"/><line class="cls-5" x1="84.92" y1="95.95" x2="84.92" y2="64.23"/><polyline class="cls-5" points="81.8 98.81 81.8 101.94 84.92 101.94 84.92 98.81"/><polyline class="cls-5" points="84.92 167.99 84.92 164.87 81.8 164.87 81.8 167.99"/><line class="cls-5" x1="81.8" y1="101.94" x2="81.8" y2="164.87"/><line class="cls-5" x1="84.92" y1="164.87" x2="84.92" y2="101.94"/><polyline class="cls-5" points="81.8 167.99 81.8 171.11 84.92 171.11 84.92 167.99"/><polyline class="cls-5" points="84.92 207.78 84.92 202.84 81.8 202.84 81.8 207.78"/><line class="cls-5" x1="81.8" y1="171.11" x2="81.8" y2="202.84"/><line class="cls-5" x1="84.92" y1="202.84" x2="84.92" y2="171.11"/><polyline class="cls-5" points="81.8 61.63 81.8 59.28 84.92 59.28"/><polyline class="cls-5" points="81.8 205.18 81.8 207.78 84.92 207.78"/><line class="cls-5" x1="449.01" y1="380.72" x2="478.13" y2="380.72"/><line class="cls-5" x1="481.52" y1="377.34" x2="481.52" y2="306.35"/><line class="cls-5" x1="445.63" y1="377.34" x2="445.63" y2="306.35"/><line class="cls-5" x1="484.9" y1="286.06" x2="484.9" y2="383.85"/><polyline class="cls-5" points="484.9 286.06 442.25 286.06 442.25 383.85 484.9 383.85"/><line class="cls-5" x1="451.61" y1="317.79" x2="451.61" y2="373.44"/><line class="cls-5" x1="453.43" y1="375" x2="473.97" y2="375"/><line class="cls-5" x1="475.53" y1="317.79" x2="475.53" y2="373.44"/><line class="cls-5" x1="462.53" y1="363.56" x2="460.45" y2="363.56"/><line class="cls-5" x1="463.57" y1="364.6" x2="463.57" y2="366.42"/><line class="cls-5" x1="464.61" y1="363.56" x2="466.69" y2="363.56"/><line class="cls-5" x1="463.57" y1="362.52" x2="463.57" y2="360.44"/><polyline class="cls-5" points="481.52 306.35 481.25 302.96 480.48 300.1 478.92 297.24 476.83 294.64 474.49 292.56 471.63 291 468.51 289.7 465.39 289.18 462.01 289.18 458.63 289.7 455.51 291 452.91 292.56 450.31 294.64 448.23 297.24 446.93 300.1 445.89 302.96 445.63 306.35"/><polyline class="cls-5" points="478.13 380.72 478.65 380.46 479.44 380.46 479.95 380.2 480.48 379.94 480.74 379.42 481 378.9 481.25 378.38 481.52 377.86 481.52 377.34"/><polyline class="cls-5" points="445.63 377.34 445.63 377.86 445.89 378.38 446.15 378.9 446.41 379.42 446.93 379.94 447.45 380.2 447.97 380.46 448.49 380.46 449.01 380.72"/><polyline class="cls-5" points="465.39 363.56 465.39 363.3 465.39 362.78 465.13 362.52 464.87 362.26 464.61 362.26 464.35 362 464.09 362 463.83 361.74 463.31 361.74 463.05 362 462.79 362 462.53 362.26 462.27 362.52 462.01 362.78 462.01 363.04 461.75 363.3 461.75 363.82 462.01 364.08 462.01 364.34 462.27 364.6 462.53 364.86 462.79 365.12 463.05 365.12 463.31 365.12 463.83 365.12 464.09 365.12 464.35 365.12 464.61 364.86 464.87 364.6 465.13 364.34 465.39 364.08 465.39 363.82 465.39 363.56"/><polyline class="cls-5" points="475.53 317.79 475.53 315.45 474.75 313.63 473.71 311.55 472.41 309.99 470.85 308.43 469.03 307.39 466.95 306.61 464.61 306.35 462.53 306.35 460.45 306.61 458.37 307.39 456.29 308.43 454.73 309.99 453.43 311.55 452.39 313.63 451.87 315.45 451.61 317.79"/><polyline class="cls-5" points="451.61 373.44 451.61 373.7 451.61 373.96 451.87 374.22 452.13 374.48 452.39 374.74 452.65 375 452.91 375 453.43 375"/><polyline class="cls-5" points="473.97 375 474.23 375 474.49 375 474.75 374.74 475.01 374.48 475.27 374.48 475.27 374.22 475.53 373.96 475.53 373.7 475.53 373.44"/><polyline class="cls-5" points="465.91 363.56 465.91 363.04 465.91 362.78 465.65 362.26 465.39 362 465.13 361.74 464.61 361.48 464.09 361.22 463.83 361.22 463.31 361.22 462.79 361.48 462.53 361.48 462.01 361.74 461.75 362 461.49 362.52 461.23 362.78 461.23 363.3 461.23 363.82 461.23 364.08 461.49 364.6 461.75 364.86 462.01 365.38 462.53 365.38 462.79 365.64 463.31 365.9 463.83 365.9 464.09 365.64 464.61 365.64 465.13 365.38 465.39 365.12 465.65 364.86 465.91 364.34 465.91 364.08 465.91 363.56"/><polyline class="cls-5" points="517.92 370.06 517.92 383.85 484.9 383.85 484.9 370.06"/><line class="cls-5" x1="496.34" y1="383.85" x2="506.74" y2="383.85"/><line class="cls-5" x1="498.68" y1="372.66" x2="500.5" y2="372.66"/><line class="cls-5" x1="501.54" y1="375.52" x2="501.54" y2="373.7"/><line class="cls-5" x1="502.58" y1="372.66" x2="504.4" y2="372.66"/><line class="cls-5" x1="501.54" y1="371.62" x2="501.54" y2="369.8"/><path class="cls-5" d="M538.51,375.78a14.76,14.76,0,0,0,5.7-6.95" transform="translate(-28.35)"/><path class="cls-5" d="M529.62,378.08a14.77,14.77,0,0,0,8.76-2.06" transform="translate(-28.35)"/><path class="cls-5" d="M515.32,368.83a14.74,14.74,0,0,0,5.69,6.95" transform="translate(-28.35)"/><path class="cls-5" d="M520.88,376a14.78,14.78,0,0,0,8.76,2.06" transform="translate(-28.35)"/><path class="cls-5" d="M541,361.42a27.44,27.44,0,0,0-10-2.73" transform="translate(-28.35)"/><path class="cls-5" d="M516.41,362.82a8.43,8.43,0,0,0-3.15,6.95" transform="translate(-28.35)"/><path class="cls-5" d="M530.92,358.66a17.81,17.81,0,0,0-2.31,0" transform="translate(-28.35)"/><path class="cls-5" d="M520.53,375.33a60.21,60.21,0,0,0,18.47,0" transform="translate(-28.35)"/><path class="cls-5" d="M514,367.76a20.69,20.69,0,0,0,4.67,13.44" transform="translate(-28.35)"/><path class="cls-5" d="M520.39,382.05a40.88,40.88,0,0,0,9.42,1" transform="translate(-28.35)"/><path class="cls-5" d="M518.81,381a2.73,2.73,0,0,0,1.51.94" transform="translate(-28.35)"/><path class="cls-5" d="M520.31,381.35a69.05,69.05,0,0,0,9.31.67" transform="translate(-28.35)"/><path class="cls-5" d="M514,367.61a18.64,18.64,0,0,0,4.64,12.54" transform="translate(-28.35)"/><path class="cls-5" d="M518.61,380.32a2.74,2.74,0,0,0,1.67.9" transform="translate(-28.35)"/><path class="cls-5" d="M540.57,380.17a18.62,18.62,0,0,0,4.67-12.54" transform="translate(-28.35)"/><path class="cls-5" d="M540.55,381.22a20.69,20.69,0,0,0,4.68-13.44" transform="translate(-28.35)"/><path class="cls-5" d="M529.81,382a70.82,70.82,0,0,0,9.31-.65" transform="translate(-28.35)"/><path class="cls-5" d="M529.66,383.06a41.43,41.43,0,0,0,9.42-1" transform="translate(-28.35)"/><path class="cls-5" d="M539,381.22a2.74,2.74,0,0,0,1.67-.9" transform="translate(-28.35)"/><path class="cls-5" d="M539.21,382a2.79,2.79,0,0,0,1.51-.93" transform="translate(-28.35)"/><path class="cls-5" d="M546.27,369.77a8.46,8.46,0,0,0-3.16-6.95" transform="translate(-28.35)"/><path class="cls-5" d="M543,363a12.37,12.37,0,0,0-2.17-1.4" transform="translate(-28.35)"/><path class="cls-5" d="M518.69,361.6a12.37,12.37,0,0,0-2.17,1.4" transform="translate(-28.35)"/><path class="cls-5" d="M528.55,358.69a27.39,27.39,0,0,0-10,2.73" transform="translate(-28.35)"/><path class="cls-5" d="M534.31,361a19.4,19.4,0,0,0-9.09,0" transform="translate(-28.35)"/><path class="cls-5" d="M544.18,369a5.08,5.08,0,0,0-1.74-4.19" transform="translate(-28.35)"/><path class="cls-5" d="M542.34,365a17.74,17.74,0,0,0-8.18-3.76" transform="translate(-28.35)"/><path class="cls-5" d="M516.83,364.79a5.09,5.09,0,0,0-1.75,4.19" transform="translate(-28.35)"/><path class="cls-5" d="M525.11,361.23a17.73,17.73,0,0,0-8.19,3.76" transform="translate(-28.35)"/><path class="cls-5" d="M532,372.53a2.21,2.21,0,1,0-2.21,2.21,2.21,2.21,0,0,0,2.21-2.21" transform="translate(-28.35)"/><path class="cls-5" d="M531.19,372.53a1.43,1.43,0,1,0-1.43,1.43,1.43,1.43,0,0,0,1.43-1.43" transform="translate(-28.35)"/><line class="cls-5" x1="527.81" y1="374.74" x2="527.81" y2="353.42"/><polyline class="cls-5" points="526.77 376.04 526.77 383.85 549.39 383.85"/><line class="cls-5" x1="538.21" y1="370.84" x2="546.53" y2="370.84"/><polyline class="cls-5" points="527.81 353.42 529.63 370.84 538.21 370.84"/><line class="cls-5" x1="548.61" y1="353.42" x2="546.53" y2="370.84"/><line class="cls-5" x1="528.33" y1="353.42" x2="530.41" y2="370.84"/><line class="cls-5" x1="548.09" y1="353.42" x2="546.01" y2="370.84"/><line class="cls-5" x1="548.61" y1="374.74" x2="548.61" y2="353.42"/><line class="cls-5" x1="549.39" y1="383.85" x2="549.39" y2="376.04"/><polyline class="cls-5" points="527.81 353.42 528.07 351.08 528.85 348.74 530.41 346.92 532.23 345.36 534.57 344.31 536.91 343.54 539.51 343.54 541.85 344.31 543.93 345.36 546.01 346.92 547.31 348.74 548.35 351.08 548.61 353.42"/><polyline class="cls-5" points="528.33 353.42 528.59 351.08 529.37 349 530.67 347.18 532.49 345.88 534.57 344.84 536.91 344.31 539.25 344.31 541.59 344.84 543.67 345.88 545.49 347.18 546.79 349 547.83 351.08 548.09 353.42"/><polyline class="cls-5" points="549.39 376.04 549.39 375.78 549.39 375.52 549.13 375.26 549.13 375 548.87 374.74 548.61 374.74 548.35 374.48 541.59 374.22 534.83 374.22 528.07 374.48 527.81 374.74 527.55 374.74 527.29 374.74 527.29 375 527.03 375.26 527.03 375.52 526.77 375.78 526.77 376.04"/><polyline class="cls-5" points="538.21 377.86 537.95 377.86 537.69 377.86 537.43 377.86 537.43 378.12 537.17 378.12 537.17 378.38 537.17 378.64 537.17 378.9 537.17 379.16 537.17 379.42 537.43 379.68 537.69 379.94 537.95 379.94 538.21 379.94 538.47 379.94 538.73 379.94 538.73 379.68 538.99 379.68 538.99 379.42 539.25 379.16 539.25 378.9 539.25 378.64 539.25 378.38 538.99 378.12 538.73 377.86 538.47 377.86 538.21 377.86"/><polyline class="cls-5" points="562.66 284.24 535.09 284.24 535.09 320.91 562.66 320.91 562.66 284.24"/><path d="M626.38,392.43" transform="translate(-28.35)"/><path class="cls-5" d="M626.38,392.43" transform="translate(-28.35)"/><line x1="598.02" y1="397.37" x2="598.02" y2="392.43"/><path d="M626.38,397.37" transform="translate(-28.35)"/><line class="cls-5" x1="598.02" y1="397.37" x2="598.02" y2="392.43"/><path class="cls-5" d="M626.38,397.37" transform="translate(-28.35)"/><path d="M626.38,392.43" transform="translate(-28.35)"/><path class="cls-5" d="M626.38,392.43" transform="translate(-28.35)"/><path class="cls-5" d="M626.38,397.37" transform="translate(-28.35)"/><line class="cls-5" x1="598.02" y1="392.43" x2="598.02" y2="397.37"/><path d="M461.5,397.37h0Z" transform="translate(-28.35)"/><path class="cls-5" d="M461.5,397.37h0Z" transform="translate(-28.35)"/><path d="M461.5,214.28h0Z" transform="translate(-28.35)"/><path class="cls-5" d="M461.5,214.28h0Z" transform="translate(-28.35)"/><path d="M466.44,221.3H461.5v-7Zm0,0Z" transform="translate(-28.35)"/><path class="cls-5" d="M466.44,221.3H461.5v-7Zm0,0Z" transform="translate(-28.35)"/><polygon points="433.14 214.28 438.08 214.28 438.08 221.31 433.14 214.28"/><polygon class="cls-5" points="433.14 214.28 438.08 214.28 438.08 221.31 433.14 214.28"/><path d="M461.5,276.44h0Z" transform="translate(-28.35)"/><path class="cls-5" d="M461.5,276.44h0Z" transform="translate(-28.35)"/><path d="M466.44,385.15H461.5V276.44Zm0,0Z" transform="translate(-28.35)"/><path class="cls-5" d="M466.44,385.15H461.5V276.44Zm0,0Z" transform="translate(-28.35)"/><polygon points="433.14 276.44 438.08 276.44 438.08 385.15 433.14 276.44"/><polygon class="cls-5" points="433.14 276.44 438.08 276.44 438.08 385.15 433.14 276.44"/><line class="cls-5" x1="433.14" y1="221.3" x2="438.08" y2="221.3"/><line class="cls-5" x1="433.14" y1="276.44" x2="438.08" y2="276.44"/><line class="cls-5" x1="433.14" y1="214.28" x2="433.14" y2="221.3"/><polyline class="cls-5" points="433.14 276.44 433.14 385.15 438.08 385.15 438.08 284.24"/><line class="cls-5" x1="438.08" y1="279.56" x2="438.08" y2="276.44"/><line class="cls-5" x1="438.08" y1="221.3" x2="438.08" y2="214.28"/><line class="cls-5" x1="433.14" y1="276.44" x2="433.14" y2="273.32"/><line class="cls-5" x1="438.08" y1="276.44" x2="438.08" y2="273.32"/><line class="cls-5" x1="433.14" y1="221.3" x2="433.14" y2="224.43"/><line class="cls-5" x1="438.08" y1="221.3" x2="438.08" y2="224.43"/><line class="cls-5" x1="438.08" y1="273.32" x2="433.14" y2="273.32"/><polyline class="cls-5" points="438.08 224.43 433.14 224.43 384.25 224.43"/><path class="cls-5" d="M412.6,224.3a48.77,48.77,0,0,0,48.77,48.76" transform="translate(-28.35)"/><path d="M182.19,209.6h0Z" transform="translate(-28.35)"/><path class="cls-5" d="M182.19,209.6h0Z" transform="translate(-28.35)"/><path d="M528.59,214.28H182.19V209.6Zm0,0Z" transform="translate(-28.35)"/><path class="cls-5" d="M528.59,214.28H182.19V209.6Zm0,0Z" transform="translate(-28.35)"/><polygon points="153.83 209.6 495.3 209.6 500.24 214.28 153.83 209.6"/><polygon class="cls-5" points="153.83 209.6 495.3 209.6 500.24 214.28 153.83 209.6"/><polyline class="cls-5" points="495.3 209.6 153.83 209.6 153.83 214.28 433.14 214.28"/><line class="cls-5" x1="438.08" y1="214.28" x2="500.24" y2="214.28"/><path d="M563.44,279.56h0Z" transform="translate(-28.35)"/><path class="cls-5" d="M563.44,279.56h0Z" transform="translate(-28.35)"/><path d="M614.15,284.24H563.44v-4.68Zm0,0Z" transform="translate(-28.35)"/><path class="cls-5" d="M614.15,284.24H563.44v-4.68Zm0,0Z" transform="translate(-28.35)"/><polygon points="535.09 279.56 585.8 279.56 585.8 284.24 535.09 279.56"/><polygon class="cls-5" points="535.09 279.56 585.8 279.56 585.8 284.24 535.09 279.56"/><path d="M466.44,279.56h0Z" transform="translate(-28.35)"/><path class="cls-5" d="M466.44,279.56h0Z" transform="translate(-28.35)"/><path d="M514.55,284.24H466.44v-4.68Zm0,0Z" transform="translate(-28.35)"/><path class="cls-5" d="M514.55,284.24H466.44v-4.68Zm0,0Z" transform="translate(-28.35)"/><polygon points="438.08 279.56 486.2 279.56 486.2 284.24 438.08 279.56"/><polygon class="cls-5" points="438.08 279.56 486.2 279.56 486.2 284.24 438.08 279.56"/><line class="cls-5" x1="535.09" y1="279.56" x2="535.09" y2="284.24"/><polyline class="cls-5" points="486.2 279.56 486.2 284.24 438.08 284.24"/><line class="cls-5" x1="535.09" y1="284.24" x2="562.66" y2="284.24"/><polyline class="cls-5" points="567.34 284.24 585.8 284.24 585.8 279.56 535.09 279.56"/><line class="cls-5" x1="486.2" y1="279.56" x2="438.08" y2="279.56"/><line class="cls-5" x1="486.2" y1="279.56" x2="489.32" y2="279.56"/><line class="cls-5" x1="486.2" y1="284.24" x2="489.32" y2="284.24"/><line class="cls-5" x1="535.09" y1="279.56" x2="531.97" y2="279.56"/><line class="cls-5" x1="535.09" y1="284.24" x2="531.97" y2="284.24"/><line class="cls-5" x1="489.32" y1="284.24" x2="489.32" y2="279.56"/><polyline class="cls-5" points="531.97 284.24 531.97 279.56 495.04 257.97"/><path class="cls-5" d="M523.14,258a42.82,42.82,0,0,0-5.73,21.39" transform="translate(-28.35)"/><path d="M591,284.24h0Z" transform="translate(-28.35)"/><path class="cls-5" d="M591,284.24h0Z" transform="translate(-28.35)"/><path d="M595.69,385.15H591V284.24Zm0,0Z" transform="translate(-28.35)"/><path class="cls-5" d="M595.69,385.15H591V284.24Zm0,0Z" transform="translate(-28.35)"/><polygon points="562.66 284.24 567.34 284.24 567.34 385.15 562.66 284.24"/><polygon class="cls-5" points="562.66 284.24 567.34 284.24 567.34 385.15 562.66 284.24"/><line class="cls-5" x1="567.34" y1="385.15" x2="567.34" y2="339.37"/><line class="cls-5" x1="567.34" y1="334.43" x2="567.34" y2="284.24"/><polyline class="cls-5" points="562.66 284.24 562.66 385.15 567.34 385.15"/><path d="M528.59,36.92h0Z" transform="translate(-28.35)"/><path class="cls-5" d="M528.59,36.92h0Z" transform="translate(-28.35)"/><path d="M614.15,41.86H528.59V36.92Zm0,0Z" transform="translate(-28.35)"/><path class="cls-5" d="M614.15,41.86H528.59V36.92Zm0,0Z" transform="translate(-28.35)"/><polygon points="500.24 36.92 585.8 36.92 585.8 41.86 500.24 36.92"/><polygon class="cls-5" points="500.24 36.92 585.8 36.92 585.8 41.86 500.24 36.92"/><line class="cls-5" x1="585.8" y1="36.92" x2="535.61" y2="36.92"/><line class="cls-5" x1="530.93" y1="36.92" x2="500.24" y2="36.92"/><polyline class="cls-5" points="500.24 41.86 585.8 41.86 585.8 36.92"/><path d="M564,12.47h0Z" transform="translate(-28.35)"/><path class="cls-5" d="M564,12.47h0Z" transform="translate(-28.35)"/><path d="M564,36.92h-4.68V12.47Zm0,0Z" transform="translate(-28.35)"/><path class="cls-5" d="M564,36.92h-4.68V12.47Zm0,0Z" transform="translate(-28.35)"/><polygon points="530.93 12.47 535.61 12.47 535.61 36.92 530.93 12.47"/><polygon class="cls-5" points="530.93 12.47 535.61 12.47 535.61 36.92 530.93 12.47"/><polyline class="cls-5" points="535.61 36.92 535.61 12.47 530.93 12.47 530.93 36.92"/><path d="M523.65,12.47h0Z" transform="translate(-28.35)"/><path class="cls-5" d="M523.65,12.47h0Z" transform="translate(-28.35)"/><path d="M528.59,124h-4.94V12.47Zm0,0Z" transform="translate(-28.35)"/><path class="cls-5" d="M528.59,124h-4.94V12.47Zm0,0Z" transform="translate(-28.35)"/><polygon points="495.3 12.47 500.24 12.47 500.24 124.04 495.3 12.47"/><polygon class="cls-5" points="495.3 12.47 500.24 12.47 500.24 124.04 495.3 12.47"/><path d="M523.65,178.91h0Z" transform="translate(-28.35)"/><path class="cls-5" d="M523.65,178.91h0Z" transform="translate(-28.35)"/><path d="M523.65,209.6h4.94v4.68Zm0-30.69V209.6h4.94Z" transform="translate(-28.35)"/><path class="cls-5" d="M523.65,209.6h4.94v4.68Zm0-30.69V209.6h4.94Z" transform="translate(-28.35)"/><polygon points="495.3 178.91 500.24 178.91 500.24 209.6 495.3 178.91"/><polygon class="cls-5" points="495.3 178.91 500.24 178.91 500.24 209.6 495.3 178.91"/><line class="cls-5" x1="495.3" y1="124.04" x2="500.24" y2="124.04"/><polyline class="cls-5" points="495.3 178.91 500.24 178.91 500.24 214.28"/><line class="cls-5" x1="500.24" y1="124.04" x2="500.24" y2="41.86"/><polyline class="cls-5" points="500.24 36.92 500.24 12.47 495.3 12.47 495.3 124.04"/><line class="cls-5" x1="495.3" y1="178.91" x2="495.3" y2="209.6"/><line class="cls-5" x1="495.3" y1="124.04" x2="495.3" y2="126.9"/><line class="cls-5" x1="500.24" y1="124.04" x2="500.24" y2="126.9"/><line class="cls-5" x1="495.3" y1="178.91" x2="495.3" y2="175.79"/><line class="cls-5" x1="500.24" y1="178.91" x2="500.24" y2="175.79"/><line class="cls-5" x1="500.24" y1="126.9" x2="495.3" y2="126.9"/><polyline class="cls-5" points="500.24 175.79 495.3 175.79 446.41 175.79"/><path class="cls-5" d="M523.52,126.9a48.76,48.76,0,0,0-48.76,48.76" transform="translate(-28.35)"/><path d="M160.34,375.26h.52V376Zm0-75.16v75.16h.52Z" transform="translate(-28.35)"/><path class="cls-5" d="M160.34,375.26h.52V376Zm0-75.16v75.16h.52Z" transform="translate(-28.35)"/><polygon points="131.99 300.1 132.51 300.1 132.51 375.26 131.99 300.1"/><polygon class="cls-5" points="131.99 300.1 132.51 300.1 132.51 375.26 131.99 300.1"/><path d="M160.86,230.93v.52h-.52Zm0,.52v0Z" transform="translate(-28.35)"/><path class="cls-5" d="M160.86,230.93v.52h-.52Zm0,.52v0Z" transform="translate(-28.35)"/><path d="M160.34,231.45l.52,1.56h-.52Zm.52,0h-.52l.52,1.56Z" transform="translate(-28.35)"/><path class="cls-5" d="M160.34,231.45l.52,1.56h-.52Zm.52,0h-.52l.52,1.56Z" transform="translate(-28.35)"/><path d="M160.86,376H170v9.11Zm0-75.94V376H170Z" transform="translate(-28.35)"/><path class="cls-5" d="M160.86,376H170v9.11Zm0-75.94V376H170Z" transform="translate(-28.35)"/><polygon points="132.51 300.1 141.61 300.1 141.61 376.04 132.51 300.1"/><polygon class="cls-5" points="132.51 300.1 141.61 300.1 141.61 376.04 132.51 300.1"/><polygon points="141.61 221.82 141.61 230.93 132.51 230.93 141.61 221.82"/><polygon class="cls-5" points="141.61 221.82 141.61 230.93 132.51 230.93 141.61 221.82"/><path d="M160.86,230.93,170,233h-9.1Zm9.1,0h-9.1L170,233Z" transform="translate(-28.35)"/><path class="cls-5" d="M160.86,230.93,170,233h-9.1Zm9.1,0h-9.1L170,233Z" transform="translate(-28.35)"/><path d="M170,385.15h12.23v12.22Zm0-85v85h12.23Z" transform="translate(-28.35)"/><path class="cls-5" d="M170,385.15h12.23v12.22Zm0-85v85h12.23Z" transform="translate(-28.35)"/><polygon points="141.61 300.1 153.83 300.1 153.83 385.15 141.61 300.1"/><polygon class="cls-5" points="141.61 300.1 153.83 300.1 153.83 385.15 141.61 300.1"/><polygon points="153.83 209.6 153.83 221.82 141.61 221.82 153.83 209.6"/><polygon class="cls-5" points="153.83 209.6 153.83 221.82 141.61 221.82 153.83 209.6"/><path d="M170,221.83,182.19,233H170Zm12.23,0H170L182.19,233Z" transform="translate(-28.35)"/><path class="cls-5" d="M170,221.83,182.19,233H170Zm12.23,0H170L182.19,233Z" transform="translate(-28.35)"/><path d="M160.34,299.58l9.62.52h-9.62Zm9.62,0h-9.62l9.62.52Z" transform="translate(-28.35)"/><path class="cls-5" d="M160.34,299.58l9.62.52h-9.62Zm9.62,0h-9.62l9.62.52Z" transform="translate(-28.35)"/><path d="M160.34,233l9.62.52h-9.62Zm9.62,0h-9.62l9.62.52Z" transform="translate(-28.35)"/><path class="cls-5" d="M160.34,233l9.62.52h-9.62Zm9.62,0h-9.62l9.62.52Z" transform="translate(-28.35)"/><line class="cls-5" x1="132.51" y1="230.93" x2="132.51" y2="233.01"/><line class="cls-5" x1="132.51" y1="300.1" x2="132.51" y2="376.04"/><line class="cls-5" x1="141.61" y1="221.83" x2="141.61" y2="233.01"/><line class="cls-5" x1="141.61" y1="300.1" x2="141.61" y2="385.15"/><polyline class="cls-5" points="132.51 233.01 141.61 233.01 141.61 233.53 131.99 233.53 131.99 233.01"/><polyline class="cls-5" points="132.51 300.1 141.61 300.1 141.61 299.58 131.99 299.58 131.99 300.1"/><polyline class="cls-5" points="141.61 233.01 144.73 233.01 153.83 233.01"/><polyline class="cls-5" points="141.61 300.1 144.73 300.1 153.83 300.1"/><line class="cls-5" x1="131.99" y1="231.45" x2="131.99" y2="233.01"/><line class="cls-5" x1="131.99" y1="300.1" x2="131.99" y2="375.26"/><line class="cls-5" x1="153.83" y1="397.37" x2="153.83" y2="300.1"/><line class="cls-5" x1="153.83" y1="233.01" x2="153.83" y2="209.6"/><line class="cls-5" x1="131.99" y1="299.58" x2="131.99" y2="233.53"/><line class="cls-5" x1="153.83" y1="300.1" x2="153.83" y2="233.01"/><polyline class="cls-5" points="144.73 300.1 144.73 294.9 141.61 294.9 141.61 300.1"/><polyline class="cls-5" points="141.61 289.18 141.61 292.3 144.73 292.3 144.73 289.18"/><line class="cls-5" x1="144.73" y1="294.9" x2="144.73" y2="292.3"/><line class="cls-5" x1="141.61" y1="292.3" x2="141.61" y2="294.9"/><polyline class="cls-5" points="144.73 289.18 144.73 286.06 141.61 286.06 141.61 289.18"/><polyline class="cls-5" points="141.61 233.01 141.61 238.21 144.73 238.21 144.73 233.01"/><line class="cls-5" x1="144.73" y1="286.06" x2="144.73" y2="238.21"/><line class="cls-5" x1="141.61" y1="238.21" x2="141.61" y2="286.06"/><line class="cls-5" x1="141.61" y1="300.1" x2="144.73" y2="300.1"/><line class="cls-5" x1="141.61" y1="233.01" x2="144.73" y2="233.01"/><path d="M160.86,230.93h0Z" transform="translate(-28.35)"/><path class="cls-5" d="M160.86,230.93h0Z" transform="translate(-28.35)"/><path d="M171.26,231.45H160.34l.52-.52Zm0,0Z" transform="translate(-28.35)"/><path class="cls-5" d="M171.26,231.45H160.34l.52-.52Zm0,0Z" transform="translate(-28.35)"/><polygon points="132.51 230.93 142.91 230.93 142.91 231.45 132.51 230.93"/><polygon class="cls-5" points="132.51 230.93 142.91 230.93 142.91 231.45 132.51 230.93"/><path d="M170,221.83h0Z" transform="translate(-28.35)"/><path class="cls-5" d="M170,221.83h0Z" transform="translate(-28.35)"/><path d="M171.26,230.93h-10.4l9.1-9.1Zm0,0Z" transform="translate(-28.35)"/><path class="cls-5" d="M171.26,230.93h-10.4l9.1-9.1Zm0,0Z" transform="translate(-28.35)"/><polygon points="141.61 221.82 142.91 221.82 142.91 230.93 141.61 221.82"/><polygon class="cls-5" points="141.61 221.82 142.91 221.82 142.91 230.93 141.61 221.82"/><path d="M171.26,221.83H170l1.3-1.31Zm0,0Zm0-1.31v0Z" transform="translate(-28.35)"/><path class="cls-5" d="M171.26,221.83H170l1.3-1.31Zm0,0Zm0-1.31v0Z" transform="translate(-28.35)"/><path d="M182.19,209.6H171.26v10.92Zm0,0Z" transform="translate(-28.35)"/><path class="cls-5" d="M182.19,209.6H171.26v10.92Zm0,0Z" transform="translate(-28.35)"/><line class="cls-5" x1="142.91" y1="230.93" x2="132.51" y2="230.93"/><line class="cls-5" x1="142.91" y1="221.83" x2="141.61" y2="221.83"/><polyline class="cls-5" points="153.83 209.6 142.91 209.6 142.91 221.82"/><line class="cls-5" x1="142.91" y1="231.45" x2="131.99" y2="231.45"/><path d="M104.17,371.88l1.82,3.38h-1.82Zm1.82,0h-1.82l1.82,3.38Z" transform="translate(-28.35)"/><path class="cls-5" d="M104.17,371.88l1.82,3.38h-1.82Zm1.82,0h-1.82l1.82,3.38Z" transform="translate(-28.35)"/><path d="M104.17,231.45,106,260.31h-1.82Zm1.82,0h-1.82L106,260.31Z" transform="translate(-28.35)"/><path class="cls-5" d="M104.17,231.45,106,260.31h-1.82Zm1.82,0h-1.82L106,260.31Z" transform="translate(-28.35)"/><path d="M111.45,371.88h0Zm0,0Z" transform="translate(-28.35)"/><path class="cls-5" d="M111.45,371.88h0Zm0,0Z" transform="translate(-28.35)"/><path d="M106,371.88l7.28,3.38H106Zm7.28,0H106l7.28,3.38Z" transform="translate(-28.35)"/><path class="cls-5" d="M106,371.88l7.28,3.38H106Zm7.28,0H106l7.28,3.38Z" transform="translate(-28.35)"/><path d="M106,231.45l7.28,28.86H106Zm7.28,0H106l7.28,28.86Z" transform="translate(-28.35)"/><path class="cls-5" d="M106,231.45l7.28,28.86H106Zm7.28,0H106l7.28,28.86Z" transform="translate(-28.35)"/><path d="M108.33,260.31h0Zm4.94,0h0Z" transform="translate(-28.35)"/><path class="cls-5" d="M108.33,260.31h0Zm4.94,0h0Z" transform="translate(-28.35)"/><path d="M104.17,370.06l4.16,1.82h-4.16Zm4.16,0h-4.16l4.16,1.82Z" transform="translate(-28.35)"/><path class="cls-5" d="M104.17,370.06l4.16,1.82h-4.16Zm4.16,0h-4.16l4.16,1.82Z" transform="translate(-28.35)"/><path d="M104.17,260.31l4.16,1.83h-4.16Zm4.16,0h-4.16l4.16,1.83Z" transform="translate(-28.35)"/><path class="cls-5" d="M104.17,260.31l4.16,1.83h-4.16Zm4.16,0h-4.16l4.16,1.83Z" transform="translate(-28.35)"/><line class="cls-5" x1="77.64" y1="231.45" x2="77.64" y2="260.31"/><line class="cls-5" x1="77.64" y1="371.88" x2="77.64" y2="375.26"/><polyline class="cls-5" points="77.64 260.31 79.98 260.31 79.98 262.13 75.81 262.13 75.81 260.31"/><polyline class="cls-5" points="77.64 371.88 79.98 371.88 79.98 370.06 75.81 370.06 75.81 371.88"/><polyline class="cls-5" points="79.98 260.31 83.1 260.31 84.92 260.31"/><polyline class="cls-5" points="79.98 371.88 83.1 371.88 84.92 371.88"/><line class="cls-5" x1="75.81" y1="231.45" x2="75.81" y2="260.31"/><polyline class="cls-5" points="75.81 371.88 75.81 375.26 84.92 375.26 84.92 371.88"/><polyline class="cls-5" points="84.92 260.31 84.92 231.45 75.81 231.45"/><line class="cls-5" x1="75.81" y1="370.06" x2="75.81" y2="262.14"/><line class="cls-5" x1="84.92" y1="371.88" x2="84.92" y2="260.31"/><path d="M108.33,367.2h0Z" transform="translate(-28.35)"/><path class="cls-5" d="M108.33,367.2h0Z" transform="translate(-28.35)"/><path d="M111.45,371.88h-3.12V367.2Zm0,0Z" transform="translate(-28.35)"/><path class="cls-5" d="M111.45,371.88h-3.12V367.2Zm0,0Z" transform="translate(-28.35)"/><polygon points="79.98 367.2 83.1 367.2 83.1 371.88 79.98 367.2"/><polygon class="cls-5" points="79.98 367.2 83.1 367.2 83.1 371.88 79.98 367.2"/><path d="M108.33,332.35h0Z" transform="translate(-28.35)"/><path class="cls-5" d="M108.33,332.35h0Z" transform="translate(-28.35)"/><path d="M111.45,335.21h-3.12v-2.86Zm0,0Z" transform="translate(-28.35)"/><path class="cls-5" d="M111.45,335.21h-3.12v-2.86Zm0,0Z" transform="translate(-28.35)"/><polygon points="79.98 332.35 83.1 332.35 83.1 335.21 79.98 332.35"/><polygon class="cls-5" points="79.98 332.35 83.1 332.35 83.1 335.21 79.98 332.35"/><path d="M108.33,329.23h0Z" transform="translate(-28.35)"/><path class="cls-5" d="M108.33,329.23h0Z" transform="translate(-28.35)"/><path d="M111.45,332.35h-3.12v-3.12Zm0,0Z" transform="translate(-28.35)"/><path class="cls-5" d="M111.45,332.35h-3.12v-3.12Zm0,0Z" transform="translate(-28.35)"/><polygon points="79.98 329.23 83.1 329.23 83.1 332.35 79.98 329.23"/><polygon class="cls-5" points="79.98 329.23 83.1 329.23 83.1 332.35 79.98 329.23"/><path d="M108.33,260.31h0Z" transform="translate(-28.35)"/><path class="cls-5" d="M108.33,260.31h0Z" transform="translate(-28.35)"/><path d="M111.45,265h-3.12v-4.69Zm0,0Z" transform="translate(-28.35)"/><path class="cls-5" d="M111.45,265h-3.12v-4.69Zm0,0Z" transform="translate(-28.35)"/><polygon points="79.98 260.31 83.1 260.31 83.1 265 79.98 260.31"/><polygon class="cls-5" points="79.98 260.31 83.1 260.31 83.1 265 79.98 260.31"/><polyline class="cls-5" points="79.98 371.88 79.98 367.2 83.1 367.2 83.1 371.88"/><polyline class="cls-5" points="83.1 332.35 83.1 335.21 79.98 335.21 79.98 332.35"/><line class="cls-5" x1="79.98" y1="367.2" x2="79.98" y2="335.21"/><line class="cls-5" x1="83.1" y1="335.21" x2="83.1" y2="367.2"/><polyline class="cls-5" points="79.98 332.35 79.98 329.23 83.1 329.23 83.1 332.35"/><polyline class="cls-5" points="83.1 260.31 83.1 265 79.98 265 79.98 260.31"/><line class="cls-5" x1="79.98" y1="329.23" x2="79.98" y2="265"/><line class="cls-5" x1="83.1" y1="265" x2="83.1" y2="329.23"/><line class="cls-5" x1="79.98" y1="371.88" x2="83.1" y2="371.88"/><line class="cls-5" x1="79.98" y1="260.31" x2="83.1" y2="260.31"/><polygon points="131.99 1.55 132.51 1.55 132.51 1.55 131.99 1.55"/><polygon class="cls-5" points="131.99 1.55 132.51 1.55 132.51 1.55 131.99 1.55"/><polygon points="132.51 1.55 141.61 1.55 141.61 1.55 132.51 1.55"/><polygon class="cls-5" points="132.51 1.55 141.61 1.55 141.61 1.55 132.51 1.55"/><polygon points="141.61 1.55 153.83 1.55 153.83 12.47 141.61 1.55"/><polygon class="cls-5" points="141.61 1.55 153.83 1.55 153.83 12.47 141.61 1.55"/><polygon points="469.81 0.25 469.81 0.25 464.87 0.25 469.81 0.25"/><polygon class="cls-5" points="469.81 0.25 469.81 0.25 464.87 0.25 469.81 0.25"/><path d="M160.34,375.26h0Z" transform="translate(-28.35)"/><path class="cls-5" d="M160.34,375.26h0Z" transform="translate(-28.35)"/><path d="M171.26,376h-10.4l-.52-.78Zm0,0Z" transform="translate(-28.35)"/><path class="cls-5" d="M171.26,376h-10.4l-.52-.78Zm0,0Z" transform="translate(-28.35)"/><polygon points="131.99 375.26 142.91 375.26 142.91 376.04 131.99 375.26"/><polygon class="cls-5" points="131.99 375.26 142.91 375.26 142.91 376.04 131.99 375.26"/><path d="M160.86,376h0Z" transform="translate(-28.35)"/><path class="cls-5" d="M160.86,376h0Z" transform="translate(-28.35)"/><path d="M171.26,385.15H170l-9.1-9.11Zm0,0Z" transform="translate(-28.35)"/><path class="cls-5" d="M171.26,385.15H170l-9.1-9.11Zm0,0Z" transform="translate(-28.35)"/><polygon points="132.51 376.04 142.91 376.04 142.91 385.15 132.51 376.04"/><polygon class="cls-5" points="132.51 376.04 142.91 376.04 142.91 385.15 132.51 376.04"/><path d="M171.26,385.15H170l1.3,1.3Zm0,0Z" transform="translate(-28.35)"/><path class="cls-5" d="M171.26,385.15H170l1.3,1.3Zm0,0Z" transform="translate(-28.35)"/><path d="M182.19,397.37H171.26V386.45Zm0,0Zm-10.93-10.92,10.93,10.92Z" transform="translate(-28.35)"/><path class="cls-5" d="M182.19,397.37H171.26V386.45Zm0,0Zm-10.93-10.92,10.93,10.92Z" transform="translate(-28.35)"/><line class="cls-5" x1="132.51" y1="376.04" x2="142.91" y2="376.04"/><line class="cls-5" x1="141.61" y1="385.15" x2="142.91" y2="385.15"/><line class="cls-5" x1="131.99" y1="375.26" x2="142.91" y2="375.26"/><polyline class="cls-5" points="142.91 385.15 142.91 397.37 153.83 397.37"/><path d="M160.34,1.55h0Z" transform="translate(-28.35)"/><path class="cls-5" d="M160.34,1.55h0Z" transform="translate(-28.35)"/><path d="M171.26,1.55h0Zm0,0Z" transform="translate(-28.35)"/><path class="cls-5" d="M171.26,1.55h0Zm0,0Z" transform="translate(-28.35)"/><polygon points="131.99 1.55 142.91 1.55 142.91 1.55 131.99 1.55"/><polygon class="cls-5" points="131.99 1.55 142.91 1.55 142.91 1.55 131.99 1.55"/><path d="M160.86,1.55h0Z" transform="translate(-28.35)"/><path class="cls-5" d="M160.86,1.55h0Z" transform="translate(-28.35)"/><path d="M171.26,1.55h0Zm0,0Z" transform="translate(-28.35)"/><path class="cls-5" d="M171.26,1.55h0Zm0,0Z" transform="translate(-28.35)"/><polygon points="132.51 1.55 142.91 1.55 142.91 1.55 132.51 1.55"/><polygon class="cls-5" points="132.51 1.55 142.91 1.55 142.91 1.55 132.51 1.55"/><path d="M171.26,1.55h0Zm0,0Z" transform="translate(-28.35)"/><path class="cls-5" d="M171.26,1.55h0Zm0,0Z" transform="translate(-28.35)"/><path d="M182.19,12.47h0ZM171.26,1.55l10.93,10.92H171.26Z" transform="translate(-28.35)"/><path class="cls-5" d="M182.19,12.47h0ZM171.26,1.55l10.93,10.92H171.26Z" transform="translate(-28.35)"/><line class="cls-5" x1="132.51" y1="1.55" x2="142.91" y2="1.55"/><line class="cls-5" x1="141.61" y1="1.55" x2="142.91" y2="1.55"/><line class="cls-5" x1="131.99" y1="1.55" x2="142.91" y2="1.55"/><polyline class="cls-5" points="142.91 1.55 142.91 12.47 153.83 12.47"/><polygon points="505.18 0.25 505.18 0.25 500.24 0.25 505.18 0.25"/><polygon class="cls-5" points="505.18 0.25 505.18 0.25 500.24 0.25 505.18 0.25"/><polyline points="585.8 0.25 598.02 0.25 585.8 0.25 585.8 0.25"/><polyline points="585.8 0.25 598.02 0.25 598.02 0.25"/><polyline class="cls-5" points="585.8 0.25 598.02 0.25 585.8 0.25 585.8 0.25"/><polyline class="cls-5" points="585.8 0.25 598.02 0.25 598.02 0.25"/><line class="cls-5" x1="598.02" y1="0.25" x2="598.02" y2="0.25"/><line class="cls-5" x1="598.02" y1="0.25" x2="598.02" y2="0.25"/><path d="M104.17,1.55h0Zm1.82,0h0Z" transform="translate(-28.35)"/><path class="cls-5" d="M104.17,1.55h0Zm1.82,0h0Z" transform="translate(-28.35)"/><path d="M111.45,1.55h0Zm1.82,0h0Z" transform="translate(-28.35)"/><path class="cls-5" d="M111.45,1.55h0Zm1.82,0h0Z" transform="translate(-28.35)"/><path d="M106,1.55h0Zm7.28,0h0Z" transform="translate(-28.35)"/><path class="cls-5" d="M106,1.55h0Zm7.28,0h0Z" transform="translate(-28.35)"/><line class="cls-5" x1="77.64" y1="1.55" x2="77.64" y2="1.55"/><polyline class="cls-5" points="79.98 1.55 83.1 1.55 84.92 1.55"/><polyline class="cls-5" points="75.81 1.55 75.81 1.55 84.92 1.55 84.92 1.55"/><polygon points="83.1 1.55 83.1 1.55 79.98 1.55 83.1 1.55"/><polygon class="cls-5" points="83.1 1.55 83.1 1.55 79.98 1.55 83.1 1.55"/><line class="cls-5" x1="79.98" y1="1.55" x2="83.1" y2="1.55"/><path d="M104.17,1.55h0Z" transform="translate(-28.35)"/><path class="cls-5" d="M104.17,1.55h0Z" transform="translate(-28.35)"/><path d="M171.26,1.55h0Zm0,0Z" transform="translate(-28.35)"/><path class="cls-5" d="M171.26,1.55h0Zm0,0Z" transform="translate(-28.35)"/><polygon points="75.81 1.55 142.91 1.55 142.91 1.55 75.81 1.55"/><polygon class="cls-5" points="75.81 1.55 142.91 1.55 142.91 1.55 75.81 1.55"/><path d="M110.15,1.55h0Zm0,0Z" transform="translate(-28.35)"/><path class="cls-5" d="M110.15,1.55h0Zm0,0Z" transform="translate(-28.35)"/><path d="M110.15,1.55h0Z" transform="translate(-28.35)"/><path class="cls-5" d="M110.15,1.55h0Z" transform="translate(-28.35)"/><path d="M110.15,1.55h0Zm61.11,0h0Z" transform="translate(-28.35)"/><path class="cls-5" d="M110.15,1.55h0Zm61.11,0h0Z" transform="translate(-28.35)"/><path d="M171.26,1.55h0Zm0,0Z" transform="translate(-28.35)"/><path class="cls-5" d="M171.26,1.55h0Zm0,0Z" transform="translate(-28.35)"/><polygon points="81.8 1.55 142.91 1.55 142.91 1.55 81.8 1.55"/><polygon class="cls-5" points="81.8 1.55 142.91 1.55 142.91 1.55 81.8 1.55"/><path d="M113.53,1.55h0Z" transform="translate(-28.35)"/><path class="cls-5" d="M113.53,1.55h0Z" transform="translate(-28.35)"/><path d="M171.26,12.47H125.49l-12-10.92Zm0,0Z" transform="translate(-28.35)"/><path class="cls-5" d="M171.26,12.47H125.49l-12-10.92Zm0,0Z" transform="translate(-28.35)"/><polygon points="85.18 1.55 142.91 1.55 142.91 12.47 85.18 1.55"/><polygon class="cls-5" points="85.18 1.55 142.91 1.55 142.91 12.47 85.18 1.55"/><polyline class="cls-5" points="142.91 1.55 81.8 1.55 76.33 1.55"/><line class="cls-5" x1="142.91" y1="1.55" x2="85.18" y2="1.55"/><line class="cls-5" x1="142.91" y1="1.55" x2="75.81" y2="1.55"/><polyline class="cls-5" points="97.14 12.47 142.91 12.47 142.91 1.55"/><path d="M104.69,230.93h0Z" transform="translate(-28.35)"/><path class="cls-5" d="M104.69,230.93h0Z" transform="translate(-28.35)"/><path d="M171.26,231.45H104.17l.52-.52Zm0,0Z" transform="translate(-28.35)"/><path class="cls-5" d="M171.26,231.45H104.17l.52-.52Zm0,0Z" transform="translate(-28.35)"/><polygon points="76.33 230.93 142.91 230.93 142.91 231.45 76.33 230.93"/><polygon class="cls-5" points="76.33 230.93 142.91 230.93 142.91 231.45 76.33 230.93"/><path d="M113.53,221.83h0Z" transform="translate(-28.35)"/><path class="cls-5" d="M113.53,221.83h0Z" transform="translate(-28.35)"/><path d="M113.53,221.83l57.73,3.38H110.15Zm57.73,0H113.53l57.73,3.38Z" transform="translate(-28.35)"/><path class="cls-5" d="M113.53,221.83l57.73,3.38H110.15Zm57.73,0H113.53l57.73,3.38Z" transform="translate(-28.35)"/><path d="M171.26,230.93H110.15v-5.72Zm0,0Z" transform="translate(-28.35)"/><path class="cls-5" d="M171.26,230.93H110.15v-5.72Zm0,0Z" transform="translate(-28.35)"/><polygon points="81.8 225.21 142.91 225.21 142.91 230.93 81.8 225.21"/><polygon class="cls-5" points="81.8 225.21 142.91 225.21 142.91 230.93 81.8 225.21"/><path d="M110.15,230.93h0Zm0-5.72v5.72h-5.46Z" transform="translate(-28.35)"/><path class="cls-5" d="M110.15,230.93h0Zm0-5.72v5.72h-5.46Z" transform="translate(-28.35)"/><path d="M125.49,209.6h0Z" transform="translate(-28.35)"/><path class="cls-5" d="M125.49,209.6h0Z" transform="translate(-28.35)"/><path d="M171.26,221.83H113.53l12-12.23Zm0,0Z" transform="translate(-28.35)"/><path class="cls-5" d="M171.26,221.83H113.53l12-12.23Zm0,0Z" transform="translate(-28.35)"/><polygon points="97.14 209.6 142.91 209.6 142.91 221.82 97.14 209.6"/><polygon class="cls-5" points="97.14 209.6 142.91 209.6 142.91 221.82 97.14 209.6"/><polyline class="cls-5" points="76.33 230.93 81.8 230.93 142.91 230.93"/><line class="cls-5" x1="85.18" y1="221.83" x2="142.91" y2="221.83"/><line class="cls-5" x1="142.91" y1="209.6" x2="97.14" y2="209.6"/><line class="cls-5" x1="75.81" y1="231.45" x2="142.91" y2="231.45"/><line class="cls-5" x1="142.91" y1="209.6" x2="142.91" y2="221.83"/><path d="M104.17,375.26h0Z" transform="translate(-28.35)"/><path class="cls-5" d="M104.17,375.26h0Z" transform="translate(-28.35)"/><path d="M171.26,376H104.69l-.52-.78Zm0,0Z" transform="translate(-28.35)"/><path class="cls-5" d="M171.26,376H104.69l-.52-.78Zm0,0Z" transform="translate(-28.35)"/><polygon points="75.81 375.26 142.91 375.26 142.91 376.04 75.81 375.26"/><polygon class="cls-5" points="75.81 375.26 142.91 375.26 142.91 376.04 75.81 375.26"/><path d="M110.15,376h-5.46l5.46,5.46Zm0,0Z" transform="translate(-28.35)"/><path class="cls-5" d="M110.15,376h-5.46l5.46,5.46Zm0,0Z" transform="translate(-28.35)"/><path d="M110.15,376h0Z" transform="translate(-28.35)"/><path class="cls-5" d="M110.15,376h0Z" transform="translate(-28.35)"/><path d="M110.15,376l61.11,5.46H110.15Zm61.11,0H110.15l61.11,5.46Z" transform="translate(-28.35)"/><path class="cls-5" d="M110.15,376l61.11,5.46H110.15Zm61.11,0H110.15l61.11,5.46Z" transform="translate(-28.35)"/><path d="M171.26,385.15H113.53l-3.38-3.65Zm0,0Z" transform="translate(-28.35)"/><path class="cls-5" d="M171.26,385.15H113.53l-3.38-3.65Zm0,0Z" transform="translate(-28.35)"/><polygon points="81.8 381.5 142.91 381.5 142.91 385.15 81.8 381.5"/><polygon class="cls-5" points="81.8 381.5 142.91 381.5 142.91 385.15 81.8 381.5"/><path d="M113.53,385.15h0Z" transform="translate(-28.35)"/><path class="cls-5" d="M113.53,385.15h0Z" transform="translate(-28.35)"/><path d="M171.26,397.37H125.49l-12-12.22Zm0,0Z" transform="translate(-28.35)"/><path class="cls-5" d="M171.26,397.37H125.49l-12-12.22Zm0,0Z" transform="translate(-28.35)"/><polygon points="85.18 385.15 142.91 385.15 142.91 397.37 85.18 385.15"/><polygon class="cls-5" points="85.18 385.15 142.91 385.15 142.91 397.37 85.18 385.15"/><polyline class="cls-5" points="142.91 376.04 81.8 376.04 76.33 376.04"/><line class="cls-5" x1="142.91" y1="385.15" x2="85.18" y2="385.15"/><line class="cls-5" x1="142.91" y1="375.26" x2="75.81" y2="375.26"/><polyline class="cls-5" points="97.14 397.37 142.91 397.37 142.91 385.15"/><path d="M182.19,1.55l206-1.3Z" transform="translate(-28.35)"/><path class="cls-5" d="M182.19,1.55l206-1.3Z" transform="translate(-28.35)"/><path d="M388.16,12.47h-206V1.55Zm0,0Z" transform="translate(-28.35)"/><path class="cls-5" d="M388.16,12.47h-206V1.55Zm0,0Z" transform="translate(-28.35)"/><polygon points="153.83 1.55 359.81 0.25 359.81 12.47 153.83 1.55"/><polygon class="cls-5" points="153.83 1.55 359.81 0.25 359.81 12.47 153.83 1.55"/><polyline class="cls-5" points="153.83 12.47 359.81 12.47 359.81 0.25 153.83 1.55 153.83 12.47"/><path d="M182.19,385.15h0Z" transform="translate(-28.35)"/><path class="cls-5" d="M182.19,385.15h0Z" transform="translate(-28.35)"/><path d="M388.16,397.37h-206V385.15Zm0,0Z" transform="translate(-28.35)"/><path class="cls-5" d="M388.16,397.37h-206V385.15Zm0,0Z" transform="translate(-28.35)"/><polygon points="153.83 385.15 359.81 385.15 359.81 397.37 153.83 385.15"/><polygon class="cls-5" points="153.83 385.15 359.81 385.15 359.81 397.37 153.83 385.15"/><polyline class="cls-5" points="153.83 397.37 359.81 397.37 359.81 385.15 153.83 385.15 153.83 397.37"/><path d="M449.27.25h0Z" transform="translate(-28.35)"/><path class="cls-5" d="M449.27.25h0Z" transform="translate(-28.35)"/><path d="M614.15,12.47H449.27V.25Zm0,0Z" transform="translate(-28.35)"/><path class="cls-5" d="M614.15,12.47H449.27V.25Zm0,0Z" transform="translate(-28.35)"/><polygon points="420.92 0.25 585.8 0.25 585.8 12.47 420.92 0.25"/><polygon class="cls-5" points="420.92 0.25 585.8 0.25 585.8 12.47 420.92 0.25"/><polyline class="cls-5" points="420.92 12.47 585.8 12.47 585.8 0.25 420.92 0.25 420.92 12.47"/><path d="M614.15,130h0Z" transform="translate(-28.35)"/><path class="cls-5" d="M614.15,130h0Z" transform="translate(-28.35)"/><path d="M626.38,218.44H614.15V130Zm0,0Z" transform="translate(-28.35)"/><path class="cls-5" d="M626.38,218.44H614.15V130Zm0,0Z" transform="translate(-28.35)"/><polygon points="585.8 130.02 598.02 130.02 598.02 218.44 585.8 130.02"/><polygon class="cls-5" points="585.8 130.02 598.02 130.02 598.02 218.44 585.8 130.02"/><path d="M614.15,129.5h0Z" transform="translate(-28.35)"/><path class="cls-5" d="M614.15,129.5h0Z" transform="translate(-28.35)"/><path d="M626.38,130H614.15v-.52Zm0,0Z" transform="translate(-28.35)"/><path class="cls-5" d="M626.38,130H614.15v-.52Zm0,0Z" transform="translate(-28.35)"/><polygon points="585.8 129.5 598.02 129.5 598.02 130.02 585.8 129.5"/><polygon class="cls-5" points="585.8 129.5 598.02 129.5 598.02 130.02 585.8 129.5"/><path d="M614.15,120.4h0Z" transform="translate(-28.35)"/><path class="cls-5" d="M614.15,120.4h0Z" transform="translate(-28.35)"/><path d="M626.38,129.5H614.15v-9.1Zm0,0Z" transform="translate(-28.35)"/><path class="cls-5" d="M626.38,129.5H614.15v-9.1Zm0,0Z" transform="translate(-28.35)"/><polygon points="585.8 120.4 598.02 120.4 598.02 129.5 585.8 120.4"/><polygon class="cls-5" points="585.8 120.4 598.02 120.4 598.02 129.5 585.8 120.4"/><path d="M626.38,120.4H614.15v-8.58Zm0,0Z" transform="translate(-28.35)"/><path class="cls-5" d="M626.38,120.4H614.15v-8.58Zm0,0Z" transform="translate(-28.35)"/><polygon points="585.8 111.82 598.02 111.82 598.02 120.4 585.8 111.82"/><polygon class="cls-5" points="585.8 111.82 598.02 111.82 598.02 120.4 585.8 111.82"/><path d="M614.15,38.48h0Z" transform="translate(-28.35)"/><path class="cls-5" d="M614.15,38.48h0Z" transform="translate(-28.35)"/><path d="M614.15,38.48,626.38,50.7H614.15Zm12.23,0H614.15L626.38,50.7Z" transform="translate(-28.35)"/><path class="cls-5" d="M614.15,38.48,626.38,50.7H614.15Zm12.23,0H614.15L626.38,50.7Z" transform="translate(-28.35)"/><line class="cls-5" x1="585.8" y1="130.02" x2="598.02" y2="130.02"/><line class="cls-5" x1="598.02" y1="129.5" x2="585.8" y2="129.5"/><line class="cls-5" x1="598.02" y1="120.4" x2="585.8" y2="120.4"/><line class="cls-5" x1="585.8" y1="50.7" x2="598.02" y2="50.7"/><line class="cls-5" x1="585.8" y1="111.82" x2="598.02" y2="111.82"/><line class="cls-5" x1="585.8" y1="38.48" x2="585.8" y2="50.7"/><polyline class="cls-5" points="585.8 111.82 585.8 218.44 598.02 218.44 598.02 130.02"/><line class="cls-5" x1="598.02" y1="120.4" x2="598.02" y2="111.82"/><polyline class="cls-5" points="598.02 50.7 598.02 38.48 585.8 38.48"/><path class="cls-5" d="M557.72,52.91A56.31,56.31,0,0,0,614,109.22" transform="translate(-28.35)"/><path d="M614.15,109.22h0Z" transform="translate(-28.35)"/><path class="cls-5" d="M614.15,109.22h0Z" transform="translate(-28.35)"/><path d="M626.38,111.82H614.15v-2.6Zm0,0Z" transform="translate(-28.35)"/><path class="cls-5" d="M626.38,111.82H614.15v-2.6Zm0,0Z" transform="translate(-28.35)"/><polygon points="585.8 109.22 598.02 109.22 598.02 111.82 585.8 109.22"/><polygon class="cls-5" points="585.8 109.22 598.02 109.22 598.02 111.82 585.8 109.22"/><path d="M614.15,50.7h0Z" transform="translate(-28.35)"/><path class="cls-5" d="M614.15,50.7h0Z" transform="translate(-28.35)"/><path d="M626.38,53H614.15V50.7Zm0,0Z" transform="translate(-28.35)"/><path class="cls-5" d="M626.38,53H614.15V50.7Zm0,0Z" transform="translate(-28.35)"/><polygon points="585.8 50.7 598.02 50.7 598.02 53.04 585.8 50.7"/><polygon class="cls-5" points="585.8 50.7 598.02 50.7 598.02 53.04 585.8 50.7"/><polyline class="cls-5" points="598.02 111.82 598.02 109.22 585.8 109.22 585.8 111.82 598.02 111.82"/><polyline class="cls-5" points="585.8 50.7 585.8 53.04 598.02 53.04 598.02 50.7 585.8 50.7"/><line class="cls-5" x1="585.8" y1="53.04" x2="529.63" y2="53.04"/><line class="cls-5" x1="585.8" y1="111.82" x2="598.02" y2="111.82"/><line class="cls-5" x1="585.8" y1="50.7" x2="598.02" y2="50.7"/><path d="M449.27,385.15h0Z" transform="translate(-28.35)"/><path class="cls-5" d="M449.27,385.15h0Z" transform="translate(-28.35)"/><path d="M614.15,397.37H449.27V385.15Zm0,0Z" transform="translate(-28.35)"/><path class="cls-5" d="M614.15,397.37H449.27V385.15Zm0,0Z" transform="translate(-28.35)"/><polygon points="420.92 385.15 585.8 385.15 585.8 397.37 420.92 385.15"/><polygon class="cls-5" points="420.92 385.15 585.8 385.15 585.8 397.37 420.92 385.15"/><line class="cls-5" x1="420.92" y1="397.37" x2="585.8" y2="397.37"/><polyline class="cls-5" points="585.8 385.15 420.92 385.15 420.92 397.37"/><path d="M614.15,279h0Z" transform="translate(-28.35)"/><path class="cls-5" d="M614.15,279h0Z" transform="translate(-28.35)"/><path d="M614.15,279l12.23,118.33H614.15Zm12.23,0H614.15l12.23,118.33Z" transform="translate(-28.35)"/><path class="cls-5" d="M614.15,279l12.23,118.33H614.15Zm12.23,0H614.15l12.23,118.33Z" transform="translate(-28.35)"/><line class="cls-5" x1="585.8" y1="279.04" x2="585.8" y2="385.15"/><polyline class="cls-5" points="585.8 397.37 598.02 397.37 598.02 279.04 585.8 279.04"/><polyline class="cls-5" points="495.3 49.14 495.3 85.81 458.63 85.81 458.63 67.35 458.63 49.14 495.3 49.14"/><polyline class="cls-5" points="461.23 51.48 492.96 51.48 492.96 83.47 461.23 83.47 461.23 67.35 461.23 51.48"/><polyline class="cls-5" points="39.15 131.06 40.71 132.62 75.81 132.62 75.81 131.06 39.15 131.06"/><line class="cls-5" x1="39.93" y1="131.84" x2="75.81" y2="131.84"/><polyline class="cls-5" points="39.15 205.18 40.71 203.62 40.71 132.62 39.15 131.06 39.15 205.18"/><line class="cls-5" x1="39.93" y1="204.4" x2="39.93" y2="131.84"/><polyline class="cls-5" points="40.71 203.62 75.81 203.62 75.81 205.18 39.15 205.18 40.71 203.62"/><line class="cls-5" x1="39.93" y1="204.4" x2="75.81" y2="204.4"/><path d="M595.69,334.43h0Z" transform="translate(-28.35)"/><path class="cls-5" d="M595.69,334.43h0Z" transform="translate(-28.35)"/><path d="M614.15,339.37H595.69v-4.94Zm0,0Z" transform="translate(-28.35)"/><path class="cls-5" d="M614.15,339.37H595.69v-4.94Zm0,0Z" transform="translate(-28.35)"/><polygon points="567.34 334.43 585.8 334.43 585.8 339.37 567.34 334.43"/><polygon class="cls-5" points="567.34 334.43 585.8 334.43 585.8 339.37 567.34 334.43"/><polyline class="cls-5" points="567.34 339.37 585.8 339.37 585.8 334.43 567.34 334.43"/><line class="cls-5" x1="598.02" y1="261.35" x2="598.02" y2="261.35"/><line class="cls-5" x1="144.21" y1="250.69" x2="137.97" y2="250.69"/><line class="cls-5" x1="367.09" y1="210.9" x2="367.09" y2="210.9"/><line class="cls-5" x1="367.09" y1="200.24" x2="367.09" y2="182.04"/><line class="cls-5" x1="367.09" y1="181.78" x2="367.09" y2="180.28"/><line class="cls-6" x1="367.09" y1="177.26" x2="367.09" y2="52.19"/><line class="cls-5" x1="367.09" y1="50.69" x2="367.09" y2="49.19"/><line class="cls-5" x1="367.09" y1="49.14" x2="367.09" y2="13.51"/><line class="cls-5" x1="367.09" y1="12.47" x2="367.09" y2="12.47"/><line class="cls-5" x1="458.63" y1="122.48" x2="458.63" y2="49.14"/><line class="cls-5" x1="367.09" y1="182.04" x2="495.3" y2="182.04"/><line class="cls-5" x1="458.63" y1="49.14" x2="367.09" y2="49.14"/><line class="cls-5" x1="495.3" y1="122.48" x2="458.63" y2="122.48"/><line class="cls-5" x1="367.09" y1="182.04" x2="367.09" y2="212.2"/><line class="cls-5" x1="367.09" y1="0.25" x2="367.09" y2="0.25"/><path d="M388.16.25h0Z" transform="translate(-28.35)"/><path class="cls-5" d="M388.16.25h0Z" transform="translate(-28.35)"/><path d="M449.27,12.47H388.16V.25Zm0,0Z" transform="translate(-28.35)"/><path class="cls-5" d="M449.27,12.47H388.16V.25Zm0,0Z" transform="translate(-28.35)"/><polygon points="359.81 0.25 420.92 0.25 420.92 12.47 359.81 0.25"/><polygon class="cls-5" points="359.81 0.25 420.92 0.25 420.92 12.47 359.81 0.25"/><polyline class="cls-5" points="359.81 12.47 420.92 12.47 420.92 0.25 359.81 0.25 359.81 12.47"/><polyline points="585.8 0.25 598.02 38.48 585.8 38.48 585.8 0.25"/><polygon points="598.02 38.48 598.02 38.48 585.8 38.48 598.02 38.48"/><polyline class="cls-5" points="585.8 0.25 598.02 38.48 585.8 38.48 585.8 0.25"/><polygon class="cls-5" points="598.02 38.48 598.02 38.48 585.8 38.48 598.02 38.48"/><polyline points="598.02 0.25 598.02 38.48 585.8 0.25"/><polyline class="cls-5" points="598.02 0.25 598.02 38.48 585.8 0.25"/><polyline class="cls-5" points="585.8 0.25 585.8 38.48 598.02 38.48 598.02 0.25"/><path d="M388.16,385.15h0Z" transform="translate(-28.35)"/><path class="cls-5" d="M388.16,385.15h0Z" transform="translate(-28.35)"/><path d="M449.27,397.37H388.16V385.15Zm0,0Z" transform="translate(-28.35)"/><path class="cls-5" d="M449.27,397.37H388.16V385.15Zm0,0Z" transform="translate(-28.35)"/><polygon points="359.81 385.15 420.92 385.15 420.92 397.37 359.81 385.15"/><polygon class="cls-5" points="359.81 385.15 420.92 385.15 420.92 397.37 359.81 385.15"/><polyline class="cls-5" points="359.81 397.37 420.92 397.37 420.92 385.15 359.81 385.15 359.81 397.37"/><path d="M388.16,209.6l61.11,12.23H388.16Zm61.11,0H388.16l61.11,12.23Z" transform="translate(-28.35)"/><path class="cls-5" d="M388.16,209.6l61.11,12.23H388.16Zm61.11,0H388.16l61.11,12.23Z" transform="translate(-28.35)"/><polyline class="cls-5" points="420.92 209.6 359.81 209.6 359.81 221.82 420.92 221.82 420.92 209.6"/><path d="M614.15,218.44h0Z" transform="translate(-28.35)"/><path class="cls-5" d="M614.15,218.44h0Z" transform="translate(-28.35)"/><path d="M626.38,279H614.15v-60.6Zm0,0Z" transform="translate(-28.35)"/><path class="cls-5" d="M626.38,279H614.15v-60.6Zm0,0Z" transform="translate(-28.35)"/><polygon points="585.8 218.44 598.02 218.44 598.02 279.04 585.8 218.44"/><polygon class="cls-5" points="585.8 218.44 598.02 218.44 598.02 279.04 585.8 218.44"/><polyline class="cls-5" points="585.8 218.44 585.8 279.04 598.02 279.04 598.02 218.44 585.8 218.44"/></svg>