<svg id="_1" data-name="1" xmlns="http://www.w3.org/2000/svg" viewBox="0 0 619.4 595.66"><defs><style>.cls-1{font-size:12px;}.cls-1,.cls-3{fill:#808184;}.cls-1,.cls-5,.cls-7{font-family:PTSans-Regular, PT Sans;}.cls-2,.cls-4{fill:none;stroke-linecap:round;stroke-linejoin:round;stroke-width:0.75px;}.cls-2{stroke:#808184;}.cls-4{stroke:#000;}.cls-5,.cls-7{isolation:isolate;}.cls-5{font-size:24px;}.cls-6{letter-spacing:-0.11em;}.cls-7{font-size:22px;}.cls-8{letter-spacing:-0.05em;}</style></defs><title>1floor_1flat</title><text class="cls-1" transform="translate(10.2 308.61) rotate(-90)">сквер</text><line class="cls-2" x1="1.8" y1="316.78" x2="12.24" y2="316.78"/><path class="cls-3" d="M35.27,320.38a.38.38,0,0,0-.11-.52l-4.84-3.08,4.84-3.08a.38.38,0,0,0,.11-.52.37.37,0,0,0-.52-.12l-5.33,3.4a.37.37,0,0,0,0,.64l5.33,3.39a.41.41,0,0,0,.2.06A.37.37,0,0,0,35.27,320.38Z" transform="translate(-28.34)"/><polyline class="cls-4" points="223.36 11.06 224.09 571.5 608.93 571.18 608.35 442.84"/><polyline class="cls-4" points="56.33 3.33 56.83 579.81 173.41 580.03 173.53 499.68 205.99 499.72 205.82 0.58"/><line class="cls-4" x1="618.85" y1="438.63" x2="618.83" y2="566.05"/><line class="cls-4" x1="183.12" y1="509.33" x2="206.33" y2="509.44"/><line class="cls-4" x1="206.33" y1="509.44" x2="205.99" y2="499.72"/><line class="cls-4" x1="205.99" y1="499.72" x2="173.53" y2="499.68"/><line class="cls-4" x1="173.53" y1="499.68" x2="173.41" y2="580.03"/><line class="cls-4" x1="183.1" y1="579.69" x2="183.12" y2="509.33"/><line class="cls-4" x1="42.03" y1="594.75" x2="200.76" y2="594.68"/><line class="cls-4" x1="200.76" y1="594.68" x2="201.09" y2="579.89"/><line class="cls-4" x1="201.09" y1="579.89" x2="183.1" y2="579.69"/><line class="cls-4" x1="173.41" y1="580.03" x2="56.83" y2="579.81"/><line class="cls-4" x1="56.83" y1="579.81" x2="56.33" y2="3.33"/><path class="cls-4" d="M69.77,3.33s-.07,72.34.2,200.22c-.19,99.65.39,199.47.2,299.12,0,30.54.24,61.56-.25,92.4" transform="translate(-28.34)"/><line class="cls-4" x1="581.58" y1="444.39" x2="581.89" y2="416.31"/><line class="cls-4" x1="581.89" y1="416.31" x2="607.56" y2="416.14"/><line class="cls-4" x1="607.56" y1="416.14" x2="607.27" y2="444.21"/><line class="cls-4" x1="607.27" y1="444.21" x2="581.58" y2="444.39"/><line class="cls-4" x1="577.72" y1="445.57" x2="577.74" y2="415.04"/><line class="cls-4" x1="608.47" y1="446.07" x2="608.66" y2="414.76"/><line class="cls-4" x1="584.06" y1="442.1" x2="584.16" y2="418.81"/><line class="cls-4" x1="584.16" y1="418.81" x2="602.15" y2="419.01"/><line class="cls-4" x1="602.15" y1="419.01" x2="602.51" y2="442.01"/><line class="cls-4" x1="602.51" y1="442.01" x2="584.06" y2="442.1"/><polyline class="cls-4" points="595.25 430.82 594.95 430.35 595.43 430.04"/><line class="cls-4" x1="595.11" y1="429.58" x2="605.11" y2="429.68"/><path class="cls-4" d="M633.45,429.68s.77.17.31.47l-.47.31" transform="translate(-28.34)"/><line class="cls-4" x1="605.25" y1="430.92" x2="595.25" y2="430.82"/><line class="cls-4" x1="602.79" y1="431.19" x2="602.49" y2="430.74"/><line class="cls-4" x1="602.49" y1="430.74" x2="605.25" y2="430.92"/><path class="cls-4" d="M633.45,429.68s.77.17.31.47l-.47.31" transform="translate(-28.34)"/><line class="cls-4" x1="605.11" y1="429.68" x2="602.66" y2="429.97"/><line class="cls-4" x1="602.66" y1="429.97" x2="602.82" y2="429.19"/><line class="cls-4" x1="602.82" y1="429.19" x2="606.04" y2="429.07"/><line class="cls-4" x1="606.04" y1="429.07" x2="606.02" y2="431.09"/><line class="cls-4" x1="606.02" y1="431.09" x2="602.79" y2="431.19"/><line class="cls-4" x1="600.79" y1="431.19" x2="600.48" y2="430.72"/><line class="cls-4" x1="600.48" y1="430.72" x2="602.49" y2="430.74"/><line class="cls-4" x1="602.49" y1="430.74" x2="602.79" y2="431.19"/><line class="cls-4" x1="602.79" y1="431.19" x2="600.79" y2="431.19"/><line class="cls-4" x1="600.81" y1="429.17" x2="602.82" y2="429.19"/><line class="cls-4" x1="602.82" y1="429.19" x2="602.66" y2="429.97"/><line class="cls-4" x1="602.66" y1="429.97" x2="600.65" y2="429.95"/><line class="cls-4" x1="600.65" y1="429.95" x2="600.81" y2="429.17"/><line class="cls-4" x1="605.83" y1="462.4" x2="605.95" y2="492.18"/><line class="cls-4" x1="605.95" y1="492.18" x2="580.73" y2="492.05"/><line class="cls-4" x1="580.73" y1="492.05" x2="580.6" y2="462.26"/><line class="cls-4" x1="580.6" y1="462.26" x2="605.83" y2="462.4"/><path class="cls-4" d="M614.67,473.13a3.63,3.63,0,1,1,3.59-3.66,3.61,3.61,0,0,1-3.59,3.66" transform="translate(-28.34)"/><path class="cls-4" d="M626.78,476.5c-2.76-.19-5.5-2.37-5.32-5.14s2.38-5.53,5.13-5.35,5.51,2.39,5.33,5.15a6.07,6.07,0,0,1-5.14,5.34" transform="translate(-28.34)"/><path class="cls-4" d="M615.56,489.8a4,4,0,0,1-4.25-4.52,4.77,4.77,0,1,1,9.54.42,7,7,0,0,1-5.29,4.1" transform="translate(-28.34)"/><path class="cls-4" d="M627.24,489.47a3.63,3.63,0,1,1,3.59-3.66,3.6,3.6,0,0,1-3.59,3.66" transform="translate(-28.34)"/><line class="cls-4" x1="608.75" y1="461.81" x2="608.56" y2="493.12"/><line class="cls-4" x1="577.83" y1="462.09" x2="577.81" y2="492.63"/><polygon class="cls-4" points="526.18 267.88 526.13 237.3 608.22 237.22 608.25 267.81 526.18 267.88"/><polygon class="cls-4" points="528.4 368.04 528.37 336.35 608.22 336.28 608.24 367.98 528.4 368.04"/><line class="cls-4" x1="578.01" y1="571.46" x2="577.7" y2="403.77"/><line class="cls-4" x1="577.85" y1="528.41" x2="608.78" y2="528.15"/><line class="cls-4" x1="577.85" y1="528.41" x2="577.81" y2="492.63"/><line class="cls-4" x1="577.83" y1="462.09" x2="577.72" y2="445.57"/><line class="cls-4" x1="492.68" y1="98.31" x2="492.5" y2="87.82"/><line class="cls-4" x1="492.5" y1="87.82" x2="492.81" y2="86.28"/><line class="cls-4" x1="492.81" y1="86.28" x2="493.14" y2="84.73"/><line class="cls-4" x1="493.14" y1="84.73" x2="493.78" y2="83.67"/><line class="cls-4" x1="493.78" y1="83.67" x2="494.86" y2="82.3"/><line class="cls-4" x1="494.86" y1="82.3" x2="495.95" y2="80.91"/><line class="cls-4" x1="495.95" y1="80.91" x2="496.89" y2="80.31"/><line class="cls-4" x1="496.89" y1="80.31" x2="499.98" y2="78.95"/><line class="cls-4" x1="499.98" y1="78.95" x2="503.37" y2="78.06"/><line class="cls-4" x1="503.37" y1="78.06" x2="506.6" y2="77.95"/><line class="cls-4" x1="506.6" y1="77.95" x2="509.82" y2="77.83"/><line class="cls-4" x1="509.82" y1="77.83" x2="513.21" y2="78.95"/><line class="cls-4" x1="513.21" y1="78.95" x2="516.57" y2="80.07"/><line class="cls-4" x1="516.57" y1="80.07" x2="517.65" y2="80.7"/><line class="cls-4" x1="517.65" y1="80.7" x2="518.55" y2="82.09"/><line class="cls-4" x1="518.55" y1="82.09" x2="519.46" y2="83.5"/><line class="cls-4" x1="519.46" y1="83.5" x2="520.36" y2="84.89"/><line class="cls-4" x1="520.36" y1="84.89" x2="520.5" y2="86.13"/><line class="cls-4" x1="520.5" y1="86.13" x2="520.95" y2="87.84"/><line class="cls-4" x1="520.95" y1="87.84" x2="521.14" y2="98.32"/><line class="cls-4" x1="521.14" y1="98.32" x2="492.68" y2="98.31"/><line class="cls-4" x1="512.41" y1="94.05" x2="501.18" y2="94.09"/><line class="cls-4" x1="517.69" y1="89.96" x2="517.72" y2="87.95"/><line class="cls-4" x1="495.7" y1="89.71" x2="495.72" y2="87.69"/><path class="cls-4" d="M527.05,83.1A18.22,18.22,0,0,1,543.51,83" transform="translate(-28.34)"/><path class="cls-4" d="M543.51,83a5.09,5.09,0,0,1,3,4.65" transform="translate(-28.34)"/><path class="cls-4" d="M546,90c0,2-2.52,4.29-5.28,4.09" transform="translate(-28.34)"/><path class="cls-4" d="M524.06,87.69a5.85,5.85,0,0,1,2.68-5.06" transform="translate(-28.34)"/><path class="cls-4" d="M529.52,94.09c-3.23.11-5.2-1.9-5.48-4.38" transform="translate(-28.34)"/><line class="cls-4" x1="505.63" y1="95.83" x2="505.66" y2="93.83"/><path class="cls-4" d="M534,93.83c-.31-.47.15-.76,0,0" transform="translate(-28.34)"/><line class="cls-4" x1="505.81" y1="93.07" x2="505.81" y2="93.07"/><line class="cls-4" x1="505.81" y1="93.07" x2="506" y2="90.28"/><path class="cls-4" d="M534.34,90.28l.47-.3a.54.54,0,0,1,.77.16" transform="translate(-28.34)"/><line class="cls-4" x1="507.54" y1="90.61" x2="507.54" y2="90.61"/><line class="cls-4" x1="507.54" y1="90.61" x2="507.81" y2="93.08"/><path class="cls-4" d="M536.16,93.08h0" transform="translate(-28.34)"/><line class="cls-4" x1="507.65" y1="93.85" x2="507.65" y2="93.85"/><line class="cls-4" x1="507.65" y1="93.85" x2="508.09" y2="95.56"/><path class="cls-4" d="M536.44,95.56a2,2,0,0,1-1.09,1.37c-.46.31-1.07-.63-1.37-1.1" transform="translate(-28.34)"/><line class="cls-4" x1="505.63" y1="95.83" x2="505.63" y2="95.83"/><line class="cls-4" x1="507.49" y1="94.62" x2="507.65" y2="93.85"/><line class="cls-4" x1="506.12" y1="93.54" x2="505.96" y2="94.29"/><line class="cls-4" x1="505.96" y1="94.29" x2="507.49" y2="94.62"/><path class="cls-4" d="M534.46,93.54c-.31-.49.15-.79.93-.61.47-.31.77.15.6.92" transform="translate(-28.34)"/><path class="cls-4" d="M534.16,93.07c.93-.61,1.7-.45,2,0" transform="translate(-28.34)"/><line class="cls-4" x1="608.33" y1="196.02" x2="531.43" y2="195.77"/><line class="cls-4" x1="531.43" y1="195.77" x2="531.79" y2="232.03"/><line class="cls-4" x1="531.79" y1="232.03" x2="608.39" y2="231.81"/><line class="cls-4" x1="608.39" y1="231.81" x2="608.33" y2="196.02"/><line class="cls-4" x1="599.35" y1="229.09" x2="600.59" y2="228.95"/><line class="cls-4" x1="600.59" y1="228.95" x2="601.52" y2="228.34"/><line class="cls-4" x1="601.52" y1="228.34" x2="602.75" y2="228.21"/><line class="cls-4" x1="602.75" y1="228.21" x2="603.38" y2="227.13"/><line class="cls-4" x1="603.38" y1="227.13" x2="604.31" y2="226.52"/><line class="cls-4" x1="604.31" y1="226.52" x2="604.92" y2="225.45"/><line class="cls-4" x1="604.92" y1="225.45" x2="605.55" y2="224.37"/><line class="cls-4" x1="605.55" y1="224.37" x2="605.88" y2="222.83"/><line class="cls-4" x1="605.88" y1="222.83" x2="605.75" y2="221.6"/><line class="cls-4" x1="605.75" y1="221.6" x2="605.92" y2="205.55"/><line class="cls-4" x1="605.92" y1="205.55" x2="605.79" y2="204.33"/><line class="cls-4" x1="605.79" y1="204.33" x2="605.18" y2="203.39"/><line class="cls-4" x1="605.18" y1="203.39" x2="605.04" y2="202.15"/><line class="cls-4" x1="605.04" y1="202.15" x2="604.44" y2="201.22"/><line class="cls-4" x1="604.44" y1="201.22" x2="603.36" y2="200.59"/><line class="cls-4" x1="603.36" y1="200.59" x2="602.76" y2="199.65"/><line class="cls-4" x1="602.76" y1="199.65" x2="601.69" y2="199.04"/><line class="cls-4" x1="601.69" y1="199.04" x2="600.44" y2="199.16"/><line class="cls-4" x1="600.44" y1="199.16" x2="599.39" y2="198.54"/><line class="cls-4" x1="599.39" y1="198.54" x2="547.25" y2="198.73"/><line class="cls-4" x1="547.25" y1="198.73" x2="545.24" y2="198.71"/><line class="cls-4" x1="545.24" y1="198.71" x2="542.61" y2="199.75"/><line class="cls-4" x1="542.61" y1="199.75" x2="540.76" y2="200.96"/><line class="cls-4" x1="540.76" y1="200.96" x2="538.89" y2="202.18"/><line class="cls-4" x1="538.89" y1="202.18" x2="536.88" y2="204.17"/><line class="cls-4" x1="536.88" y1="204.17" x2="535.63" y2="206.31"/><line class="cls-4" x1="535.63" y1="206.31" x2="534.66" y2="208.92"/><line class="cls-4" x1="534.66" y1="208.92" x2="534.19" y2="211.23"/><line class="cls-4" x1="534.19" y1="211.23" x2="534" y2="214"/><line class="cls-4" x1="534" y1="214" x2="534.28" y2="216.49"/><line class="cls-4" x1="534.28" y1="216.49" x2="534.87" y2="219.41"/><line class="cls-4" x1="534.87" y1="219.41" x2="535.61" y2="221.58"/><line class="cls-4" x1="535.61" y1="221.58" x2="537.13" y2="223.92"/><line class="cls-4" x1="537.13" y1="223.92" x2="538.8" y2="225.47"/><line class="cls-4" x1="538.8" y1="225.47" x2="540.92" y2="226.73"/><line class="cls-4" x1="540.92" y1="226.73" x2="543.07" y2="228"/><line class="cls-4" x1="543.07" y1="228" x2="544.91" y2="228.78"/><line class="cls-4" x1="544.91" y1="228.78" x2="547.67" y2="228.97"/><line class="cls-4" x1="547.67" y1="228.97" x2="599.35" y2="229.09"/><line class="cls-4" x1="606.46" y1="212.51" x2="604" y2="212.78"/><line class="cls-4" x1="604" y1="212.78" x2="604" y2="212.78"/><line class="cls-4" x1="603.53" y1="213.09" x2="603.53" y2="213.09"/><line class="cls-4" x1="603.53" y1="213.09" x2="601.06" y2="213.37"/><path class="cls-4" d="M629.4,213.37l-.47.31.31.46" transform="translate(-28.34)"/><line class="cls-4" x1="600.91" y1="214.13" x2="600.91" y2="214.13"/><line class="cls-4" x1="600.91" y1="214.13" x2="603.97" y2="214.78"/><line class="cls-4" x1="603.97" y1="214.78" x2="603.97" y2="214.78"/><line class="cls-4" x1="603.97" y1="214.78" x2="603.97" y2="214.78"/><line class="cls-4" x1="603.97" y1="214.78" x2="606.28" y2="215.27"/><path class="cls-4" d="M634.62,215.27c.76.18.92-.6,1.08-1.37s-.91-1.4-1.37-1.1" transform="translate(-28.34)"/><line class="cls-4" x1="606.46" y1="212.51" x2="606.46" y2="212.51"/><line class="cls-4" x1="605.2" y1="214.64" x2="604.43" y2="214.48"/><line class="cls-4" x1="604.3" y1="213.25" x2="605.07" y2="213.42"/><line class="cls-4" x1="605.07" y1="213.42" x2="605.2" y2="214.64"/><path class="cls-4" d="M632.65,213.25l-.94.61.6.92" transform="translate(-28.34)"/><path class="cls-4" d="M631.87,213.09a1.2,1.2,0,0,0-.33,1.53l.3.47" transform="translate(-28.34)"/><line class="cls-4" x1="572.11" y1="10.66" x2="572.51" y2="97.96"/><line class="cls-4" x1="572.51" y1="97.96" x2="608.19" y2="97.91"/><line class="cls-4" x1="608.19" y1="97.91" x2="608.55" y2="10.75"/><line class="cls-4" x1="608.55" y1="10.75" x2="572.11" y2="10.66"/><line class="cls-4" x1="605.2" y1="20.9" x2="605.07" y2="19.67"/><line class="cls-4" x1="605.07" y1="19.67" x2="604.93" y2="18.43"/><line class="cls-4" x1="604.93" y1="18.43" x2="604.32" y2="17.5"/><line class="cls-4" x1="604.32" y1="17.5" x2="603.42" y2="16.1"/><line class="cls-4" x1="603.42" y1="16.1" x2="602.81" y2="15.16"/><line class="cls-4" x1="602.81" y1="15.16" x2="601.73" y2="14.53"/><line class="cls-4" x1="601.73" y1="14.53" x2="600.67" y2="13.92"/><line class="cls-4" x1="600.67" y1="13.92" x2="599.45" y2="14.05"/><line class="cls-4" x1="599.45" y1="14.05" x2="597.9" y2="13.72"/><line class="cls-4" x1="597.9" y1="13.72" x2="582.67" y2="13.7"/><line class="cls-4" x1="582.67" y1="13.7" x2="581.45" y2="13.85"/><line class="cls-4" x1="581.45" y1="13.85" x2="579.75" y2="14.3"/><line class="cls-4" x1="579.75" y1="14.3" x2="578.82" y2="14.91"/><line class="cls-4" x1="578.82" y1="14.91" x2="577.9" y2="15.51"/><line class="cls-4" x1="577.9" y1="15.51" x2="576.96" y2="16.11"/><line class="cls-4" x1="576.96" y1="16.11" x2="576.35" y2="17.18"/><line class="cls-4" x1="576.35" y1="17.18" x2="575.71" y2="18.25"/><line class="cls-4" x1="575.71" y1="18.25" x2="575.38" y2="19.79"/><line class="cls-4" x1="575.38" y1="19.79" x2="575.52" y2="21.04"/><line class="cls-4" x1="575.52" y1="21.04" x2="575.48" y2="80.11"/><line class="cls-4" x1="575.48" y1="80.11" x2="575.77" y2="82.58"/><line class="cls-4" x1="575.77" y1="82.58" x2="576.05" y2="85.05"/><line class="cls-4" x1="576.05" y1="85.05" x2="577.09" y2="87.69"/><line class="cls-4" x1="577.09" y1="87.69" x2="579.07" y2="89.71"/><line class="cls-4" x1="579.07" y1="89.71" x2="580.57" y2="92.04"/><line class="cls-4" x1="580.57" y1="92.04" x2="582.72" y2="93.3"/><line class="cls-4" x1="582.72" y1="93.3" x2="585.32" y2="94.25"/><line class="cls-4" x1="585.32" y1="94.25" x2="587.93" y2="95.21"/><line class="cls-4" x1="587.93" y1="95.21" x2="590.38" y2="94.93"/><line class="cls-4" x1="590.38" y1="94.93" x2="593.15" y2="95.12"/><line class="cls-4" x1="593.15" y1="95.12" x2="595.32" y2="94.37"/><line class="cls-4" x1="595.32" y1="94.37" x2="597.95" y2="93.33"/><line class="cls-4" x1="597.95" y1="93.33" x2="600.27" y2="91.81"/><line class="cls-4" x1="600.27" y1="91.81" x2="601.83" y2="90.12"/><line class="cls-4" x1="601.83" y1="90.12" x2="603.54" y2="87.67"/><line class="cls-4" x1="603.54" y1="87.67" x2="604.49" y2="85.07"/><line class="cls-4" x1="604.49" y1="85.07" x2="604.98" y2="82.75"/><line class="cls-4" x1="604.98" y1="82.75" x2="605.16" y2="79.99"/><line class="cls-4" x1="605.16" y1="79.99" x2="605.2" y2="20.9"/><line class="cls-4" x1="588.84" y1="13.01" x2="589.28" y2="14.7"/><path class="cls-4" d="M617.62,14.7h0" transform="translate(-28.34)"/><line class="cls-4" x1="589.11" y1="15.48" x2="589.11" y2="15.48"/><line class="cls-4" x1="589.11" y1="15.48" x2="589.71" y2="18.4"/><path class="cls-4" d="M618.05,18.4l.3.47.45-.29" transform="translate(-28.34)"/><line class="cls-4" x1="590.93" y1="18.27" x2="590.93" y2="18.27"/><line class="cls-4" x1="590.93" y1="18.27" x2="591.12" y2="15.5"/><path class="cls-4" d="M619.47,15.5h0" transform="translate(-28.34)"/><line class="cls-4" x1="591.29" y1="14.73" x2="591.29" y2="14.73"/><line class="cls-4" x1="591.29" y1="14.73" x2="591.29" y2="12.72"/><path class="cls-4" d="M619.64,12.72c.16-.77-.91-1.39-1.37-1.09-.77-.16-1.39.91-1.08,1.38" transform="translate(-28.34)"/><line class="cls-4" x1="588.84" y1="13.01" x2="588.84" y2="13.01"/><line class="cls-4" x1="590.98" y1="14.26" x2="590.82" y2="15.03"/><line class="cls-4" x1="589.28" y1="14.7" x2="589.44" y2="13.93"/><line class="cls-4" x1="589.44" y1="13.93" x2="590.98" y2="14.26"/><path class="cls-4" d="M617.62,14.7l.61.94.93-.61" transform="translate(-28.34)"/><path class="cls-4" d="M617.46,15.48a1.19,1.19,0,0,0,1.54.32l.47-.3" transform="translate(-28.34)"/><line class="cls-4" x1="580.66" y1="581.66" x2="613.57" y2="581.42"/><line class="cls-4" x1="580.66" y1="581.66" x2="580.66" y2="581.66"/><path class="cls-4" d="M642.22,581.89h0" transform="translate(-28.34)"/><line class="cls-4" x1="223.73" y1="11.06" x2="608.55" y2="10.75"/><line class="cls-4" x1="618.35" y1="0.38" x2="200.87" y2="0.59"/><line class="cls-4" x1="614.13" y1="324.27" x2="618.9" y2="324.48"/><line class="cls-4" x1="608.43" y1="324.67" x2="614.13" y2="324.27"/><line class="cls-4" x1="614.54" y1="272.91" x2="618.55" y2="272.96"/><line class="cls-4" x1="608.56" y1="272.83" x2="614.54" y2="272.91"/><line class="cls-4" x1="608.55" y1="10.75" x2="608.56" y2="272.83"/><line class="cls-4" x1="608.43" y1="324.67" x2="608.35" y2="442.84"/><line class="cls-4" x1="618.81" y1="442.64" x2="618.9" y2="324.48"/><line class="cls-4" x1="618.55" y1="272.96" x2="618.38" y2="220.5"/><line class="cls-4" x1="618.97" y1="272.91" x2="618.35" y2="0.38"/><line class="cls-4" x1="614.54" y1="272.91" x2="614.52" y2="274.92"/><line class="cls-4" x1="614.52" y1="274.92" x2="610.53" y2="274.88"/><line class="cls-4" x1="610.53" y1="274.88" x2="610.23" y2="274.41"/><line class="cls-4" x1="610.23" y1="274.41" x2="608.23" y2="274.38"/><line class="cls-4" x1="608.23" y1="274.38" x2="608.56" y2="272.83"/><line class="cls-4" x1="608.56" y1="272.83" x2="614.54" y2="272.91"/><line class="cls-4" x1="608.43" y1="324.67" x2="608.46" y2="322.67"/><line class="cls-4" x1="608.46" y1="322.67" x2="610.76" y2="323.15"/><line class="cls-4" x1="610.76" y1="323.15" x2="610.46" y2="322.68"/><line class="cls-4" x1="610.46" y1="322.68" x2="614.16" y2="322.27"/><line class="cls-4" x1="614.16" y1="322.27" x2="614.13" y2="324.27"/><line class="cls-4" x1="614.13" y1="324.27" x2="608.43" y2="324.67"/><line class="cls-4" x1="608.46" y1="322.67" x2="566.58" y2="298.91"/><line class="cls-4" x1="566.58" y1="298.91" x2="567.37" y2="297.06"/><line class="cls-4" x1="567.37" y1="297.06" x2="609.56" y2="321.29"/><line class="cls-4" x1="609.56" y1="321.29" x2="608.46" y2="322.67"/><path class="cls-4" d="M595.72,297.06a49.56,49.56,0,0,1,40.85-22.68" transform="translate(-28.34)"/><line class="cls-4" x1="608.56" y1="272.83" x2="614.54" y2="272.91"/><line class="cls-4" x1="608.43" y1="324.67" x2="614.13" y2="324.27"/><line class="cls-4" x1="223.99" y1="180.76" x2="464.84" y2="180.83"/><line class="cls-4" x1="469.98" y1="175.5" x2="223.9" y2="175.51"/><line class="cls-4" x1="469.8" y1="149.74" x2="475.03" y2="149.64"/><line class="cls-4" x1="469.64" y1="108.69" x2="474.88" y2="108.61"/><line class="cls-4" x1="469.73" y1="267.9" x2="474.96" y2="267.8"/><line class="cls-4" x1="470.03" y1="226.55" x2="474.79" y2="226.76"/><line class="cls-4" x1="474.84" y1="15.73" x2="469.61" y2="15.84"/><line class="cls-4" x1="475.2" y1="52" x2="469.97" y2="52.1"/><line class="cls-4" x1="475.36" y1="341.86" x2="474.96" y2="267.8"/><line class="cls-4" x1="474.79" y1="226.76" x2="475.03" y2="149.64"/><line class="cls-4" x1="474.88" y1="108.61" x2="474.78" y2="103.36"/><line class="cls-4" x1="474.98" y1="98.58" x2="475.2" y2="52"/><line class="cls-4" x1="474.84" y1="15.73" x2="475.04" y2="10.96"/><line class="cls-4" x1="475.04" y1="10.96" x2="469.81" y2="11.05"/><line class="cls-4" x1="469.81" y1="11.05" x2="469.61" y2="15.84"/><line class="cls-4" x1="469.97" y1="52.1" x2="469.64" y2="108.69"/><line class="cls-4" x1="469.8" y1="149.74" x2="469.98" y2="175.5"/><line class="cls-4" x1="470.16" y1="201.26" x2="470.03" y2="226.55"/><line class="cls-4" x1="469.73" y1="267.9" x2="470.12" y2="341.94"/><line class="cls-4" x1="475.66" y1="108.77" x2="475.62" y2="110.77"/><line class="cls-4" x1="475.62" y1="110.77" x2="469.62" y2="110.71"/><line class="cls-4" x1="469.62" y1="110.71" x2="469.64" y2="108.69"/><line class="cls-4" x1="469.64" y1="108.69" x2="475.66" y2="108.77"/><line class="cls-4" x1="469.8" y1="149.74" x2="469.82" y2="147.72"/><line class="cls-4" x1="469.82" y1="147.72" x2="475.84" y2="147.8"/><line class="cls-4" x1="475.84" y1="147.8" x2="475.81" y2="149.8"/><line class="cls-4" x1="475.81" y1="149.8" x2="469.8" y2="149.74"/><line class="cls-4" x1="469.82" y1="147.72" x2="438.05" y2="129.31"/><path class="cls-4" d="M466.39,129.31A37.33,37.33,0,0,1,498,110.71" transform="translate(-28.34)"/><line class="cls-4" x1="469.64" y1="108.69" x2="474.88" y2="108.61"/><line class="cls-4" x1="469.8" y1="149.74" x2="475.03" y2="149.64"/><line class="cls-4" x1="476.03" y1="226.62" x2="476.01" y2="228.63"/><line class="cls-4" x1="476.01" y1="228.63" x2="470.01" y2="228.57"/><line class="cls-4" x1="470.01" y1="228.57" x2="470.03" y2="226.55"/><line class="cls-4" x1="470.03" y1="226.55" x2="476.03" y2="226.62"/><line class="cls-4" x1="469.73" y1="267.9" x2="469.75" y2="265.89"/><line class="cls-4" x1="469.75" y1="265.89" x2="475.75" y2="265.95"/><line class="cls-4" x1="475.75" y1="265.95" x2="475.73" y2="267.96"/><line class="cls-4" x1="475.73" y1="267.96" x2="469.73" y2="267.9"/><line class="cls-4" x1="469.75" y1="265.89" x2="437.95" y2="247.49"/><path class="cls-4" d="M466.29,247.49c6.44-11.5,19.13-18.46,32.06-18.92" transform="translate(-28.34)"/><line class="cls-4" x1="470.03" y1="226.55" x2="474.79" y2="226.76"/><line class="cls-4" x1="469.73" y1="267.9" x2="474.96" y2="267.8"/><line class="cls-4" x1="469.21" y1="51.92" x2="469.22" y2="49.92"/><line class="cls-4" x1="469.22" y1="49.92" x2="475.22" y2="49.98"/><line class="cls-4" x1="475.22" y1="49.98" x2="475.2" y2="52"/><line class="cls-4" x1="475.2" y1="52" x2="469.21" y2="51.92"/><line class="cls-4" x1="474.84" y1="15.73" x2="475.12" y2="18.22"/><line class="cls-4" x1="475.12" y1="18.22" x2="469.13" y2="18.15"/><line class="cls-4" x1="469.13" y1="18.15" x2="469.14" y2="16.14"/><line class="cls-4" x1="469.14" y1="16.14" x2="474.84" y2="15.73"/><line class="cls-4" x1="475.12" y1="18.22" x2="502.62" y2="34.1"/><path class="cls-4" d="M531,34.1A32.14,32.14,0,0,1,503.57,50" transform="translate(-28.34)"/><line class="cls-4" x1="475.2" y1="52" x2="469.97" y2="52.1"/><line class="cls-4" x1="474.84" y1="15.73" x2="469.61" y2="15.84"/><line class="cls-4" x1="579.27" y1="98.2" x2="474.98" y2="98.58"/><line class="cls-4" x1="474.78" y1="103.36" x2="526.46" y2="103.47"/><line class="cls-4" x1="531.69" y1="103.37" x2="579.07" y2="102.98"/><line class="cls-4" x1="579.07" y1="102.98" x2="579.27" y2="98.2"/><line class="cls-4" x1="531.39" y1="186.51" x2="526.16" y2="186.61"/><line class="cls-4" x1="531.31" y1="150.72" x2="526.08" y2="150.83"/><line class="cls-4" x1="526.46" y1="103.47" x2="526.08" y2="150.83"/><line class="cls-4" x1="526.16" y1="186.61" x2="526.35" y2="236.91"/><line class="cls-4" x1="531.79" y1="232.03" x2="531.39" y2="186.51"/><line class="cls-4" x1="531.31" y1="150.72" x2="531.69" y2="103.37"/><line class="cls-4" x1="525.32" y1="150.65" x2="525.3" y2="152.67"/><line class="cls-4" x1="525.3" y1="152.67" x2="531.29" y2="152.74"/><line class="cls-4" x1="531.29" y1="152.74" x2="531.31" y2="150.72"/><line class="cls-4" x1="531.31" y1="150.72" x2="525.32" y2="150.65"/><line class="cls-4" x1="531.39" y1="186.51" x2="531.4" y2="184.52"/><line class="cls-4" x1="531.4" y1="184.52" x2="525.41" y2="184.44"/><line class="cls-4" x1="525.41" y1="184.44" x2="525.39" y2="186.45"/><line class="cls-4" x1="525.39" y1="186.45" x2="531.39" y2="186.51"/><line class="cls-4" x1="531.4" y1="184.52" x2="548.18" y2="157.67"/><path class="cls-4" d="M576.52,157.67a31.54,31.54,0,0,0-16.89-4.93" transform="translate(-28.34)"/><line class="cls-4" x1="531.31" y1="150.72" x2="526.08" y2="150.83"/><line class="cls-4" x1="531.39" y1="186.51" x2="526.16" y2="186.61"/><line class="cls-4" x1="608.39" y1="231.81" x2="531.79" y2="232.03"/><line class="cls-4" x1="526.35" y1="236.91" x2="608.49" y2="237.06"/><line class="cls-4" x1="608.49" y1="237.06" x2="608.39" y2="231.81"/><line class="cls-4" x1="523.91" y1="347.33" x2="523.81" y2="342.08"/><line class="cls-4" x1="482.68" y1="347.02" x2="482.88" y2="342.24"/><line class="cls-4" x1="470.22" y1="347.19" x2="482.68" y2="347.02"/><line class="cls-4" x1="529.04" y1="341.98" x2="523.81" y2="342.08"/><line class="cls-4" x1="482.88" y1="342.24" x2="475.36" y2="341.86"/><line class="cls-4" x1="482.75" y1="341.01" x2="485.06" y2="341.49"/><line class="cls-4" x1="485.06" y1="341.49" x2="484.69" y2="347.04"/><line class="cls-4" x1="484.69" y1="347.04" x2="482.68" y2="347.02"/><line class="cls-4" x1="482.68" y1="347.02" x2="482.75" y2="341.01"/><line class="cls-4" x1="523.91" y1="347.33" x2="521.9" y2="347.3"/><line class="cls-4" x1="521.9" y1="347.3" x2="521.97" y2="341.3"/><line class="cls-4" x1="521.97" y1="341.3" x2="523.97" y2="341.3"/><line class="cls-4" x1="523.97" y1="341.3" x2="523.91" y2="347.33"/><line class="cls-4" x1="521.9" y1="347.3" x2="503.54" y2="379.18"/><path class="cls-4" d="M531.89,379.18c-11.45-6.45-18.38-19.18-18.56-31.69" transform="translate(-28.34)"/><line class="cls-4" x1="482.68" y1="347.02" x2="482.88" y2="342.24"/><line class="cls-4" x1="523.91" y1="347.33" x2="523.81" y2="342.08"/><line class="cls-4" x1="224.12" y1="347.21" x2="470.22" y2="347.19"/><line class="cls-4" x1="470.12" y1="341.94" x2="224.02" y2="341.96"/><line class="cls-4" x1="224.02" y1="341.96" x2="224.12" y2="347.21"/><line class="cls-4" x1="608.35" y1="442.84" x2="608.93" y2="571.18"/><line class="cls-4" x1="618.81" y1="581.32" x2="618.81" y2="442.64"/><line class="cls-4" x1="259.96" y1="581.93" x2="464.84" y2="581.6"/><line class="cls-4" x1="464.96" y1="571.59" x2="259.78" y2="571.44"/><line class="cls-4" x1="470.07" y1="581.52" x2="618.81" y2="581.32"/><line class="cls-4" x1="608.93" y1="571.18" x2="464.96" y2="571.59"/><line class="cls-4" x1="608.49" y1="402.26" x2="593.28" y2="402.26"/><line class="cls-4" x1="593.28" y1="402.26" x2="593.41" y2="403.48"/><line class="cls-4" x1="593.41" y1="403.48" x2="608.63" y2="403.51"/><line class="cls-4" x1="608.63" y1="403.51" x2="608.49" y2="402.26"/><line class="cls-4" x1="608.87" y1="368.18" x2="592.89" y2="368"/><line class="cls-4" x1="592.89" y1="368" x2="593.02" y2="369.23"/><line class="cls-4" x1="593.02" y1="369.23" x2="608.55" y2="369.72"/><line class="cls-4" x1="608.55" y1="369.72" x2="608.87" y2="368.18"/><line class="cls-4" x1="580.26" y1="120.12" x2="580.18" y2="99.6"/><line class="cls-4" x1="579.27" y1="98.2" x2="578.86" y2="121.03"/><path class="cls-4" d="M647,456.68" transform="translate(-28.34)"/><path class="cls-4" d="M647.06,450.66" transform="translate(-28.34)"/><line class="cls-4" x1="618.72" y1="450.66" x2="618.65" y2="456.68"/><line class="cls-4" x1="523.91" y1="347.33" x2="524.08" y2="373.09"/><line class="cls-4" x1="529.05" y1="368.51" x2="529.04" y2="341.98"/><line class="cls-4" x1="524.08" y1="373.09" x2="555.29" y2="373.29"/><line class="cls-4" x1="555.29" y1="373.29" x2="555.19" y2="368.04"/><line class="cls-4" x1="555.19" y1="368.04" x2="529.05" y2="368.51"/><line class="cls-4" x1="555.27" y1="403.83" x2="593.41" y2="403.48"/><line class="cls-4" x1="587.02" y1="397.7" x2="561.04" y2="397.42"/><line class="cls-4" x1="593.41" y1="403.48" x2="592.89" y2="368"/><line class="cls-4" x1="587.12" y1="374.41" x2="587.02" y2="397.7"/><line class="cls-4" x1="592.89" y1="368" x2="555.19" y2="368.04"/><line class="cls-4" x1="561.43" y1="374.59" x2="587.12" y2="374.41"/><line class="cls-4" x1="555.19" y1="368.04" x2="555.27" y2="403.83"/><line class="cls-4" x1="561.04" y1="397.42" x2="561.43" y2="374.59"/><line class="cls-4" x1="41.5" y1="8.57" x2="200.69" y2="8.19"/><line class="cls-4" x1="200.69" y1="8.19" x2="200.9" y2="3.41"/><line class="cls-4" x1="200.9" y1="3.41" x2="41.7" y2="3.79"/><line class="cls-4" x1="41.7" y1="3.79" x2="41.5" y2="8.57"/><line class="cls-4" x1="580.18" y1="99.6" x2="608.33" y2="99.15"/><line class="cls-4" x1="608.33" y1="99.15" x2="608.19" y2="97.91"/><line class="cls-4" x1="608.19" y1="97.91" x2="579.27" y2="98.2"/><line class="cls-4" x1="578.86" y1="121.03" x2="608.56" y2="120.9"/><line class="cls-4" x1="608.56" y1="120.9" x2="608.41" y2="119.67"/><line class="cls-4" x1="608.41" y1="119.67" x2="580.26" y2="120.12"/><line class="cls-4" x1="556.91" y1="90.24" x2="557.11" y2="72.2"/><line class="cls-4" x1="558.06" y1="98.13" x2="538.36" y2="98.35"/><line class="cls-4" x1="558.06" y1="98.13" x2="557.81" y2="91.63"/><line class="cls-4" x1="548.33" y1="87.2" x2="541.1" y2="87.29"/><line class="cls-4" x1="557.11" y1="72.2" x2="555.56" y2="87.13"/><line class="cls-4" x1="548.33" y1="87.2" x2="555.56" y2="87.13"/><line class="cls-4" x1="539.12" y1="72" x2="541.1" y2="87.29"/><line class="cls-4" x1="556.34" y1="72.04" x2="554.79" y2="86.98"/><line class="cls-4" x1="539.88" y1="72.15" x2="541.57" y2="86.99"/><line class="cls-4" x1="539.21" y1="90.5" x2="539.12" y2="72"/><line class="cls-4" x1="538.36" y1="98.35" x2="538.58" y2="91.58"/><path class="cls-4" d="M585.25,90.24c-5.83-.83-11.53-.45-17.23,0" transform="translate(-28.34)"/><path class="cls-4" d="M584.68,72a8.07,8.07,0,0,0-8.37-7.81c-4.76-.21-8.34,3.44-8.56,8.23" transform="translate(-28.34)"/><path class="cls-4" d="M586.16,91.63c.16-.77-.61-.93-.92-1.4" transform="translate(-28.34)"/><path class="cls-4" d="M585.45,72.2c.22-4.79-4.21-8.54-8.67-8.28a8.89,8.89,0,0,0-9,8.54" transform="translate(-28.34)"/><path class="cls-4" d="M568,90.2a2,2,0,0,0-1.09,1.38" transform="translate(-28.34)"/><path class="cls-4" d="M576.28,94.76c.78.17.94-.61.63-1.07s-.6-.94-1.07-.64c-.77-.16-.93.61-.63,1.08s.61.94,1.07.63" transform="translate(-28.34)"/><line class="cls-4" x1="547.29" y1="111.11" x2="547.39" y2="129.63"/><line class="cls-4" x1="546.92" y1="103.4" x2="566.15" y2="103.45"/><line class="cls-4" x1="546.92" y1="103.4" x2="546.68" y2="110.18"/><line class="cls-4" x1="556.18" y1="114.6" x2="563.4" y2="114.53"/><line class="cls-4" x1="547.39" y1="129.63" x2="548.95" y2="114.67"/><line class="cls-4" x1="556.18" y1="114.6" x2="548.95" y2="114.67"/><line class="cls-4" x1="565.08" y1="129.35" x2="563.4" y2="114.53"/><line class="cls-4" x1="547.86" y1="129.32" x2="549.41" y2="114.38"/><line class="cls-4" x1="565.08" y1="129.35" x2="563.4" y2="114.53"/><line class="cls-4" x1="565.28" y1="111.31" x2="565.08" y2="129.35"/><line class="cls-4" x1="566.15" y1="103.45" x2="565.92" y2="110.25"/><path class="cls-4" d="M575.94,111.58c5.83.84,11.53.43,17.23,0" transform="translate(-28.34)"/><path class="cls-4" d="M576.2,129.32a8.11,8.11,0,0,0,8.37,7.81c4.77.2,8.35-3.47,8.55-8.25" transform="translate(-28.34)"/><path class="cls-4" d="M575,110.18c-.16.77.61.93.92,1.4" transform="translate(-28.34)"/><path class="cls-4" d="M575.74,129.63c-.21,4.78,4.21,8.52,8.68,8.27a8.88,8.88,0,0,0,9-8.55" transform="translate(-28.34)"/><path class="cls-4" d="M593.62,111.31a2.05,2.05,0,0,0,1.1-1.38" transform="translate(-28.34)"/><path class="cls-4" d="M584.58,108.58c.77.17.94-.61.63-1.08a.74.74,0,0,0-.59-.92c-.77-.16-.94.61-.63,1.08-.47.31.13,1.23.59.92" transform="translate(-28.34)"/><line class="cls-4" x1="608.49" y1="181.98" x2="608.59" y2="158.7"/><line class="cls-4" x1="608.59" y1="158.7" x2="596.6" y2="158.56"/><line class="cls-4" x1="608.49" y1="181.98" x2="596.5" y2="181.84"/><line class="cls-4" x1="608.5" y1="166.72" x2="608.58" y2="173.96"/><line class="cls-4" x1="598.95" y1="168.3" x2="599.09" y2="169.54"/><line class="cls-4" x1="601.4" y1="170.02" x2="599.69" y2="170.47"/><line class="cls-4" x1="598.77" y1="171.07" x2="598.91" y2="172.31"/><line class="cls-4" x1="598.17" y1="170.14" x2="596.47" y2="170.59"/><path class="cls-4" d="M623.94,180.45a15.64,15.64,0,0,0,6-3.94" transform="translate(-28.34)"/><path class="cls-4" d="M630,176.51a7.91,7.91,0,0,0,1.75-6.46" transform="translate(-28.34)"/><path class="cls-4" d="M630.11,164.48c-1.21-1.87-3.35-3.12-6-4.08" transform="translate(-28.34)"/><path class="cls-4" d="M631.73,170.05c0-2-.25-4.48-1.92-6" transform="translate(-28.34)"/><path class="cls-4" d="M615.88,171.11a15.39,15.39,0,0,0,2.53,7" transform="translate(-28.34)"/><path class="cls-4" d="M624.94,158.56a7.65,7.65,0,0,0-5.71,2.4" transform="translate(-28.34)"/><path class="cls-4" d="M615.44,169.41c-.16.77.14,1.23-.33,1.53" transform="translate(-28.34)"/><path class="cls-4" d="M629.51,176.81c.51-4.31,1-8.62,0-13.26" transform="translate(-28.34)"/><path class="cls-4" d="M634.11,162.52a23.5,23.5,0,0,0-11.32-3.22" transform="translate(-28.34)"/><path class="cls-4" d="M636,170.56a20.81,20.81,0,0,0-1-6.65" transform="translate(-28.34)"/><path class="cls-4" d="M635.51,163.61l-.61-.94" transform="translate(-28.34)"/><path class="cls-4" d="M635.26,170.4c0-2-.25-4.49-.23-6.48" transform="translate(-28.34)"/><path class="cls-4" d="M633.66,162.81a15.08,15.08,0,0,0-10.57-3" transform="translate(-28.34)"/><path class="cls-4" d="M634.27,163.75l-.9-1.39" transform="translate(-28.34)"/><path class="cls-4" d="M623.31,181.53c4,0,7.85-1.15,10.34-3.44" transform="translate(-28.34)"/><path class="cls-4" d="M623.31,181.53a20.05,20.05,0,0,0,11.11-3.27" transform="translate(-28.34)"/><path class="cls-4" d="M634.74,176.71a31,31,0,0,0,.53-6.32" transform="translate(-28.34)"/><path class="cls-4" d="M635.5,176.89a36.69,36.69,0,0,0,1-6.63" transform="translate(-28.34)"/><path class="cls-4" d="M633.65,178.09c.46-.3.93-.6.63-1.07" transform="translate(-28.34)"/><path class="cls-4" d="M634.42,178.26c.46-.31.92-.6.61-1.07" transform="translate(-28.34)"/><path class="cls-4" d="M619.34,179.47a7,7,0,0,0,6,2.07" transform="translate(-28.34)"/><path class="cls-4" d="M618,178.37l1.2,1.86" transform="translate(-28.34)"/><path class="cls-4" d="M619.23,161c-.47.3-.63,1.08-1.1,1.38" transform="translate(-28.34)"/><path class="cls-4" d="M618.13,162.34a15.24,15.24,0,0,0-2.23,6.75" transform="translate(-28.34)"/><path class="cls-4" d="M617.93,167.12a11.5,11.5,0,0,0,.23,6.48" transform="translate(-28.34)"/><path class="cls-4" d="M620.55,179.33c.61.93,2.15,1.26,3.39,1.12" transform="translate(-28.34)"/><path class="cls-4" d="M617.39,173.43c.75,2.18,1.49,4.34,3.17,5.91" transform="translate(-28.34)"/><path class="cls-4" d="M624.16,160.39a7.87,7.87,0,0,0-3.39.9" transform="translate(-28.34)"/><path class="cls-4" d="M620.77,161.29c-1.57,1.68-2.82,3.81-2.84,5.83" transform="translate(-28.34)"/><polyline class="cls-4" points="183.12 577.67 183.12 509.33 201.09 509.54"/><line class="cls-4" x1="258.35" y1="589.63" x2="260.33" y2="589.64"/><line class="cls-4" x1="255.11" y1="589.74" x2="258.35" y2="589.63"/><line class="cls-4" x1="260.33" y1="589.64" x2="259.96" y2="581.93"/><line class="cls-4" x1="255.22" y1="592.98" x2="255.11" y2="589.74"/><line class="cls-4" x1="255.11" y1="589.74" x2="258.35" y2="589.63"/><line class="cls-4" x1="254.75" y1="595.29" x2="255.22" y2="592.98"/><line class="cls-4" x1="255.11" y1="589.74" x2="258.35" y2="589.63"/><line class="cls-4" x1="259.78" y1="571.44" x2="224.09" y2="571.5"/><line class="cls-4" x1="200.76" y1="594.68" x2="254.91" y2="594.52"/><line class="cls-4" x1="216.66" y1="204.13" x2="223.89" y2="204.06"/><line class="cls-4" x1="205.72" y1="206.62" x2="213.7" y2="206.7"/><line class="cls-4" x1="201.7" y1="206.58" x2="205.72" y2="206.62"/><line class="cls-4" x1="200.95" y1="206.42" x2="201.7" y2="206.58"/><line class="cls-4" x1="213.7" y1="206.7" x2="213.88" y2="203.94"/><line class="cls-4" x1="213.88" y1="203.94" x2="216.66" y2="204.13"/><line class="cls-4" x1="216.89" y1="307.49" x2="224.11" y2="307.42"/><line class="cls-4" x1="205.84" y1="304.74" x2="213.84" y2="304.83"/><line class="cls-4" x1="201.84" y1="304.7" x2="205.84" y2="304.74"/><line class="cls-4" x1="201.07" y1="304.54" x2="201.84" y2="304.7"/><line class="cls-4" x1="213.84" y1="304.83" x2="213.65" y2="307.6"/><line class="cls-4" x1="213.65" y1="307.6" x2="216.89" y2="307.49"/><line class="cls-4" x1="217.26" y1="564.02" x2="224.49" y2="563.95"/><line class="cls-4" x1="206.21" y1="561.27" x2="214.21" y2="561.36"/><line class="cls-4" x1="202.22" y1="561.23" x2="206.21" y2="561.27"/><line class="cls-4" x1="200.98" y1="561.37" x2="202.22" y2="561.23"/><line class="cls-4" x1="214.21" y1="561.36" x2="213.74" y2="563.67"/><line class="cls-4" x1="213.74" y1="563.67" x2="217.26" y2="564.02"/><line class="cls-4" x1="216.97" y1="506.47" x2="223.75" y2="506.7"/><line class="cls-4" x1="206.33" y1="509.44" x2="213.55" y2="509.37"/><line class="cls-4" x1="202.33" y1="509.4" x2="206.33" y2="509.44"/><line class="cls-4" x1="201.09" y1="509.54" x2="202.33" y2="509.4"/><line class="cls-4" x1="213.55" y1="509.37" x2="213.75" y2="506.6"/><line class="cls-4" x1="213.75" y1="506.6" x2="216.97" y2="506.47"/><line class="cls-4" x1="216.61" y1="153.07" x2="223.84" y2="153"/><line class="cls-4" x1="205.57" y1="150.32" x2="213.56" y2="150.42"/><line class="cls-4" x1="201.56" y1="150.27" x2="205.57" y2="150.32"/><line class="cls-4" x1="200.8" y1="150.12" x2="201.56" y2="150.27"/><line class="cls-4" x1="213.56" y1="150.42" x2="213.38" y2="153.18"/><line class="cls-4" x1="213.38" y1="153.18" x2="216.61" y2="153.07"/><line class="cls-4" x1="216.36" y1="49.7" x2="223.59" y2="49.64"/><line class="cls-4" x1="205.89" y1="51.91" x2="213.41" y2="52.3"/><line class="cls-4" x1="201.42" y1="52.16" x2="205.89" y2="51.91"/><line class="cls-4" x1="200.65" y1="52" x2="201.42" y2="52.16"/><line class="cls-4" x1="213.41" y1="52.3" x2="213.61" y2="49.52"/><line class="cls-4" x1="213.61" y1="49.52" x2="216.36" y2="49.7"/><line class="cls-4" x1="217.4" y1="358.24" x2="223.86" y2="358"/><line class="cls-4" x1="213.68" y1="360.67" x2="214.45" y2="360.83"/><line class="cls-4" x1="205.99" y1="361.04" x2="213.68" y2="360.67"/><line class="cls-4" x1="201.99" y1="361" x2="205.99" y2="361.04"/><line class="cls-4" x1="201.22" y1="360.84" x2="201.99" y2="361"/><line class="cls-4" x1="214.45" y1="360.83" x2="214.16" y2="358.36"/><line class="cls-4" x1="214.16" y1="358.36" x2="217.4" y2="358.24"/><line class="cls-4" x1="217.63" y1="461.6" x2="224.1" y2="461.36"/><line class="cls-4" x1="213.82" y1="458.78" x2="214.58" y2="458.95"/><line class="cls-4" x1="206.13" y1="459.15" x2="213.82" y2="458.78"/><line class="cls-4" x1="202.11" y1="459.1" x2="206.13" y2="459.15"/><line class="cls-4" x1="200.9" y1="459.25" x2="202.11" y2="459.1"/><line class="cls-4" x1="214.58" y1="458.95" x2="214.4" y2="461.71"/><line class="cls-4" x1="214.4" y1="461.71" x2="217.63" y2="461.6"/><line class="cls-4" x1="200.83" y1="0.83" x2="200.65" y2="52"/><line class="cls-4" x1="200.8" y1="150.12" x2="200.95" y2="206.42"/><line class="cls-4" x1="201.07" y1="304.54" x2="201.22" y2="360.84"/><line class="cls-4" x1="200.9" y1="459.25" x2="201.09" y2="509.54"/><line class="cls-4" x1="200.98" y1="561.37" x2="200.76" y2="594.68"/><line class="cls-4" x1="224.09" y1="571.5" x2="224.49" y2="563.95"/><line class="cls-4" x1="223.75" y1="506.7" x2="224.1" y2="461.36"/><line class="cls-4" x1="223.86" y1="358" x2="224.11" y2="307.42"/><line class="cls-4" x1="223.89" y1="204.06" x2="223.84" y2="153"/><line class="cls-4" x1="223.59" y1="49.64" x2="223.73" y2="11.06"/><polygon class="cls-4" points="200.65 329.36 197.89 329.18 197.84 304.64 200.61 304.84 200.65 329.36"/><polyline class="cls-4" points="200.65 329.36 197.89 329.18 197.84 304.64 200.61 304.84 200.65 329.36"/><line class="cls-4" x1="200.65" y1="329.36" x2="197.89" y2="329.18"/><line class="cls-4" x1="197.89" y1="329.18" x2="197.84" y2="304.65"/><line class="cls-4" x1="197.84" y1="304.65" x2="200.61" y2="304.84"/><line class="cls-4" x1="200.61" y1="304.84" x2="200.65" y2="329.36"/><polygon class="cls-4" points="195.33 304.91 198.09 304.92 198.01 329.39 195.24 329.37 195.33 304.91"/><polyline class="cls-4" points="197.89 329.18 195.41 329.46 195.39 304.93 197.84 304.64 197.89 329.18"/><line class="cls-4" x1="197.89" y1="329.18" x2="195.41" y2="329.46"/><line class="cls-4" x1="195.41" y1="329.46" x2="195.39" y2="304.93"/><line class="cls-4" x1="195.39" y1="304.93" x2="197.84" y2="304.65"/><line class="cls-4" x1="197.84" y1="304.65" x2="197.89" y2="329.18"/><polygon class="cls-4" points="198.11 182.21 200.87 182.2 200.96 206.66 198.18 206.69 198.11 182.21"/><polyline class="cls-4" points="200.49 206.72 197.71 206.54 197.68 182.01 200.44 182.19 200.49 206.72"/><line class="cls-4" x1="200.49" y1="206.73" x2="197.71" y2="206.54"/><line class="cls-4" x1="197.71" y1="206.54" x2="197.68" y2="182.01"/><line class="cls-4" x1="197.68" y1="182.01" x2="200.44" y2="182.19"/><line class="cls-4" x1="200.44" y1="182.19" x2="200.49" y2="206.73"/><polygon class="cls-4" points="195.24 182.19 198.01 182.17 198.09 206.64 195.32 206.66 195.24 182.19"/><polyline class="cls-4" points="197.71 206.54 195.25 206.81 195.21 182.29 197.68 182.01 197.71 206.54"/><line class="cls-4" x1="197.71" y1="206.54" x2="195.24" y2="206.81"/><line class="cls-4" x1="195.24" y1="206.81" x2="195.21" y2="182.29"/><line class="cls-4" x1="195.21" y1="182.29" x2="197.68" y2="182.01"/><line class="cls-4" x1="197.68" y1="182.01" x2="197.71" y2="206.54"/><line class="cls-4" x1="201.07" y1="304.54" x2="200.95" y2="206.42"/><line class="cls-4" x1="224.11" y1="307.42" x2="223.89" y2="204.06"/><line class="cls-4" x1="216.89" y1="307.49" x2="216.77" y2="304.23"/><line class="cls-4" x1="216.77" y1="304.23" x2="215.53" y2="304.37"/><line class="cls-4" x1="215.53" y1="304.37" x2="215.87" y2="302.84"/><line class="cls-4" x1="215.87" y1="302.84" x2="213.86" y2="302.82"/><line class="cls-4" x1="213.86" y1="302.82" x2="213.65" y2="307.6"/><line class="cls-4" x1="213.46" y1="255.3" x2="213.86" y2="302.82"/><line class="cls-4" x1="218.8" y1="300.26" x2="218.67" y2="259.22"/><line class="cls-4" x1="215.57" y1="300.37" x2="215.42" y2="259.34"/><line class="cls-4" x1="218.8" y1="300.26" x2="218.67" y2="259.22"/><line class="cls-4" x1="217.58" y1="300.39" x2="217.43" y2="259.36"/><line class="cls-4" x1="218.76" y1="304.26" x2="218.8" y2="300.26"/><line class="cls-4" x1="218.8" y1="300.26" x2="215.57" y2="300.37"/><line class="cls-4" x1="215.57" y1="300.37" x2="215.53" y2="304.37"/><line class="cls-4" x1="215.53" y1="304.37" x2="218.76" y2="304.26"/><line class="cls-4" x1="215.47" y1="255.32" x2="215.42" y2="259.34"/><line class="cls-4" x1="215.42" y1="259.34" x2="218.67" y2="259.22"/><line class="cls-4" x1="218.67" y1="259.22" x2="218.71" y2="255.21"/><line class="cls-4" x1="218.71" y1="255.21" x2="215.47" y2="255.32"/><line class="cls-4" x1="213.98" y1="306.05" x2="216.75" y2="306.24"/><line class="cls-4" x1="213.88" y1="203.94" x2="213.38" y2="208.25"/><line class="cls-4" x1="213.38" y1="208.25" x2="215.37" y2="208.28"/><line class="cls-4" x1="215.37" y1="208.28" x2="215.7" y2="206.74"/><line class="cls-4" x1="215.7" y1="206.74" x2="216.47" y2="206.9"/><line class="cls-4" x1="216.47" y1="206.9" x2="216.66" y2="204.13"/><line class="cls-4" x1="213.38" y1="208.25" x2="213.46" y2="255.3"/><line class="cls-4" x1="219.04" y1="251.66" x2="218.89" y2="210.63"/><line class="cls-4" x1="215.82" y1="251.79" x2="215.66" y2="210.74"/><line class="cls-4" x1="219.04" y1="251.66" x2="218.89" y2="210.63"/><line class="cls-4" x1="217.05" y1="251.65" x2="216.88" y2="210.61"/><line class="cls-4" x1="218.71" y1="255.21" x2="219.04" y2="251.66"/><line class="cls-4" x1="219.04" y1="251.66" x2="215.82" y2="251.79"/><line class="cls-4" x1="215.82" y1="251.79" x2="215.47" y2="255.32"/><line class="cls-4" x1="215.47" y1="255.32" x2="218.71" y2="255.21"/><line class="cls-4" x1="215.7" y1="206.74" x2="215.66" y2="210.74"/><line class="cls-4" x1="215.66" y1="210.74" x2="218.89" y2="210.63"/><line class="cls-4" x1="218.89" y1="210.63" x2="218.93" y2="206.63"/><line class="cls-4" x1="218.93" y1="206.63" x2="215.7" y2="206.74"/><line class="cls-4" x1="213.72" y1="204.71" x2="216.49" y2="204.88"/><line class="cls-4" x1="213.65" y1="307.6" x2="216.89" y2="307.49"/><line class="cls-4" x1="213.84" y1="304.83" x2="213.65" y2="307.6"/><line class="cls-4" x1="213.88" y1="203.94" x2="216.66" y2="204.13"/><line class="cls-4" x1="213.7" y1="206.7" x2="213.88" y2="203.94"/><rect class="cls-4" x="226.47" y="483.32" width="2.78" height="26.13" transform="translate(-28.93 0.27) rotate(-0.07)"/><polyline class="cls-4" points="200.63 483.3 198.16 483.6 198.34 509.36 200.79 509.07 200.63 483.3"/><line class="cls-4" x1="200.63" y1="483.3" x2="198.16" y2="483.6"/><line class="cls-4" x1="198.16" y1="483.6" x2="198.34" y2="509.36"/><line class="cls-4" x1="198.34" y1="509.36" x2="200.79" y2="509.07"/><line class="cls-4" x1="200.79" y1="509.07" x2="200.63" y2="483.3"/><polygon class="cls-4" points="198.4 561.47 201.18 561.49 201.08 587.63 198.3 587.6 198.4 561.47"/><polyline class="cls-4" points="200.98 561.37 198.22 561.17 197.94 587.25 200.69 587.44 200.98 561.37"/><line class="cls-4" x1="200.98" y1="561.37" x2="198.22" y2="561.17"/><line class="cls-4" x1="198.22" y1="561.17" x2="197.93" y2="587.26"/><line class="cls-4" x1="197.93" y1="587.26" x2="200.69" y2="587.44"/><line class="cls-4" x1="200.69" y1="587.44" x2="200.98" y2="561.37"/><line class="cls-4" x1="201.09" y1="509.54" x2="200.98" y2="561.37"/><line class="cls-4" x1="223.75" y1="506.7" x2="224.49" y2="563.95"/><line class="cls-4" x1="216.97" y1="506.47" x2="217.11" y2="509.72"/><line class="cls-4" x1="217.11" y1="509.72" x2="215.87" y2="509.86"/><line class="cls-4" x1="215.87" y1="509.86" x2="216.01" y2="511.1"/><line class="cls-4" x1="216.01" y1="511.1" x2="213.55" y2="511.38"/><line class="cls-4" x1="213.55" y1="511.38" x2="213.75" y2="506.6"/><line class="cls-4" x1="213.74" y1="563.67" x2="213.78" y2="559.67"/><line class="cls-4" x1="213.78" y1="559.67" x2="215.78" y2="559.68"/><line class="cls-4" x1="215.78" y1="559.68" x2="215.92" y2="560.92"/><line class="cls-4" x1="215.92" y1="560.92" x2="216.69" y2="561.08"/><line class="cls-4" x1="216.69" y1="561.08" x2="217.26" y2="564.02"/><line class="cls-4" x1="213.78" y1="559.67" x2="213.55" y2="511.38"/><line class="cls-4" x1="219.05" y1="513.74" x2="218.71" y2="557.09"/><line class="cls-4" x1="215.81" y1="513.88" x2="215.96" y2="556.91"/><line class="cls-4" x1="219.05" y1="513.74" x2="218.71" y2="557.09"/><line class="cls-4" x1="217.52" y1="513.43" x2="217.5" y2="557.24"/><line class="cls-4" x1="219.09" y1="509.74" x2="219.05" y2="513.74"/><line class="cls-4" x1="219.05" y1="513.74" x2="215.81" y2="513.88"/><line class="cls-4" x1="215.81" y1="513.88" x2="215.87" y2="509.86"/><line class="cls-4" x1="215.87" y1="509.86" x2="219.09" y2="509.74"/><line class="cls-4" x1="215.92" y1="560.92" x2="215.96" y2="556.91"/><line class="cls-4" x1="215.96" y1="556.91" x2="218.71" y2="557.09"/><line class="cls-4" x1="218.71" y1="557.09" x2="219.14" y2="560.79"/><line class="cls-4" x1="219.14" y1="560.79" x2="215.92" y2="560.92"/><line class="cls-4" x1="213.88" y1="507.82" x2="216.66" y2="508.01"/><line class="cls-4" x1="213.88" y1="562.91" x2="217.12" y2="562.78"/><line class="cls-4" x1="213.75" y1="506.6" x2="216.97" y2="506.47"/><line class="cls-4" x1="213.55" y1="509.37" x2="213.75" y2="506.6"/><line class="cls-4" x1="213.74" y1="563.67" x2="217.26" y2="564.02"/><line class="cls-4" x1="214.21" y1="561.36" x2="213.74" y2="563.67"/><polygon class="cls-4" points="197.79 27.4 200.57 27.4 200.62 51.87 197.87 51.88 197.79 27.4"/><polyline class="cls-4" points="200.16 27.77 197.39 27.6 197.43 52.12 200.2 52.29 200.16 27.77"/><line class="cls-4" x1="200.16" y1="27.77" x2="197.39" y2="27.6"/><line class="cls-4" x1="197.39" y1="27.6" x2="197.43" y2="52.12"/><line class="cls-4" x1="197.43" y1="52.12" x2="200.2" y2="52.29"/><line class="cls-4" x1="200.2" y1="52.29" x2="200.16" y2="27.77"/><polygon class="cls-4" points="194.97 27.37 197.74 27.37 197.7 51.84 194.92 51.84 194.97 27.37"/><polyline class="cls-4" points="197.39 27.6 195.4 27.57 195.44 52.09 197.43 52.12 197.39 27.6"/><line class="cls-4" x1="197.39" y1="27.6" x2="195.4" y2="27.57"/><line class="cls-4" x1="195.4" y1="27.57" x2="195.44" y2="52.09"/><line class="cls-4" x1="195.44" y1="52.09" x2="197.43" y2="52.12"/><line class="cls-4" x1="197.43" y1="52.12" x2="197.39" y2="27.6"/><polygon class="cls-4" points="200.33 150.43 197.87 150.7 197.91 175.22 200.37 174.94 200.33 150.43"/><polyline class="cls-4" points="200.33 150.43 197.87 150.7 197.91 175.22 200.37 174.94 200.33 150.43"/><line class="cls-4" x1="200.33" y1="150.43" x2="197.87" y2="150.7"/><line class="cls-4" x1="197.87" y1="150.7" x2="197.91" y2="175.22"/><line class="cls-4" x1="197.91" y1="175.22" x2="200.37" y2="174.94"/><line class="cls-4" x1="200.37" y1="174.94" x2="200.33" y2="150.43"/><polygon class="cls-4" points="197.87 150.7 195.09 150.51 195.14 175.04 197.91 175.22 197.87 150.7"/><polyline class="cls-4" points="197.87 150.7 195.09 150.51 195.14 175.04 197.91 175.22 197.87 150.7"/><line class="cls-4" x1="197.87" y1="150.7" x2="195.09" y2="150.51"/><line class="cls-4" x1="195.09" y1="150.51" x2="195.14" y2="175.04"/><line class="cls-4" x1="195.14" y1="175.04" x2="197.91" y2="175.22"/><line class="cls-4" x1="197.91" y1="175.22" x2="197.87" y2="150.7"/><line class="cls-4" x1="200.65" y1="52" x2="200.8" y2="150.12"/><line class="cls-4" x1="223.59" y1="49.64" x2="223.84" y2="153"/><line class="cls-4" x1="216.36" y1="49.7" x2="216.5" y2="52.95"/><line class="cls-4" x1="216.5" y1="52.95" x2="215.73" y2="52.79"/><line class="cls-4" x1="215.73" y1="52.79" x2="215.4" y2="54.33"/><line class="cls-4" x1="215.4" y1="54.33" x2="213.41" y2="54.3"/><line class="cls-4" x1="213.41" y1="54.3" x2="213.61" y2="49.52"/><line class="cls-4" x1="213.49" y1="101.35" x2="213.41" y2="54.3"/><line class="cls-4" x1="218.92" y1="56.68" x2="218.3" y2="97.55"/><line class="cls-4" x1="215.37" y1="56.33" x2="215.54" y2="97.37"/><line class="cls-4" x1="218.92" y1="56.68" x2="218.3" y2="97.55"/><line class="cls-4" x1="216.91" y1="56.66" x2="217.06" y2="97.69"/><line class="cls-4" x1="218.48" y1="52.97" x2="218.92" y2="56.68"/><line class="cls-4" x1="218.92" y1="56.68" x2="215.37" y2="56.33"/><line class="cls-4" x1="215.37" y1="56.33" x2="215.73" y2="52.79"/><line class="cls-4" x1="215.73" y1="52.79" x2="218.48" y2="52.97"/><line class="cls-4" x1="215.49" y1="101.39" x2="215.54" y2="97.37"/><line class="cls-4" x1="215.54" y1="97.37" x2="218.3" y2="97.55"/><line class="cls-4" x1="218.3" y1="97.55" x2="218.71" y2="101.26"/><line class="cls-4" x1="218.71" y1="101.26" x2="215.49" y2="101.39"/><line class="cls-4" x1="213.28" y1="51.07" x2="216.52" y2="50.94"/><line class="cls-4" x1="213.38" y1="153.18" x2="213.59" y2="148.4"/><line class="cls-4" x1="213.59" y1="148.4" x2="215.58" y2="148.43"/><line class="cls-4" x1="215.58" y1="148.43" x2="215.56" y2="150.42"/><line class="cls-4" x1="215.56" y1="150.42" x2="216.79" y2="150.29"/><line class="cls-4" x1="216.79" y1="150.29" x2="216.61" y2="153.07"/><line class="cls-4" x1="213.59" y1="148.4" x2="213.49" y2="101.35"/><line class="cls-4" x1="218.67" y1="105.26" x2="218.83" y2="146.31"/><line class="cls-4" x1="215.45" y1="105.39" x2="215.6" y2="146.42"/><line class="cls-4" x1="218.67" y1="105.26" x2="218.83" y2="146.31"/><line class="cls-4" x1="217.14" y1="104.95" x2="216.84" y2="146.28"/><line class="cls-4" x1="218.71" y1="101.26" x2="218.67" y2="105.26"/><line class="cls-4" x1="218.67" y1="105.26" x2="215.45" y2="105.39"/><line class="cls-4" x1="215.45" y1="105.39" x2="215.49" y2="101.39"/><line class="cls-4" x1="215.49" y1="101.39" x2="218.71" y2="101.26"/><line class="cls-4" x1="215.56" y1="150.42" x2="215.6" y2="146.42"/><line class="cls-4" x1="215.6" y1="146.42" x2="218.83" y2="146.31"/><line class="cls-4" x1="218.83" y1="146.31" x2="218.79" y2="150.31"/><line class="cls-4" x1="218.79" y1="150.31" x2="215.56" y2="150.42"/><line class="cls-4" x1="213.23" y1="151.95" x2="216.47" y2="151.83"/><line class="cls-4" x1="213.61" y1="49.52" x2="216.36" y2="49.7"/><line class="cls-4" x1="213.41" y1="52.3" x2="213.61" y2="49.52"/><line class="cls-4" x1="213.38" y1="153.18" x2="216.61" y2="153.07"/><line class="cls-4" x1="213.56" y1="150.42" x2="213.38" y2="153.18"/><line class="cls-4" x1="214.4" y1="461.71" x2="214.27" y2="458.48"/><line class="cls-4" x1="214.27" y1="458.48" x2="217.51" y2="458.35"/><line class="cls-4" x1="217.51" y1="458.35" x2="217.63" y2="461.6"/><line class="cls-4" x1="217.63" y1="461.6" x2="214.4" y2="461.71"/><line class="cls-4" x1="214.24" y1="407.41" x2="215.76" y2="407.73"/><line class="cls-4" x1="215.76" y1="407.73" x2="215.3" y2="408.03"/><line class="cls-4" x1="215.3" y1="408.03" x2="217.3" y2="408.06"/><line class="cls-4" x1="217.3" y1="408.06" x2="217.88" y2="411.02"/><line class="cls-4" x1="217.88" y1="411.02" x2="214.35" y2="410.66"/><line class="cls-4" x1="214.35" y1="410.66" x2="214.24" y2="407.41"/><line class="cls-4" x1="217.4" y1="358.24" x2="217.68" y2="360.71"/><line class="cls-4" x1="217.68" y1="360.71" x2="215.67" y2="360.68"/><line class="cls-4" x1="215.67" y1="360.68" x2="215.52" y2="361.45"/><line class="cls-4" x1="215.52" y1="361.45" x2="214.28" y2="361.59"/><line class="cls-4" x1="214.28" y1="361.59" x2="214.16" y2="358.36"/><line class="cls-4" x1="214.16" y1="358.36" x2="217.4" y2="358.24"/><line class="cls-4" x1="215.7" y1="455.55" x2="215.41" y2="413.28"/><line class="cls-4" x1="215.41" y1="413.28" x2="217.4" y2="413.31"/><line class="cls-4" x1="217.4" y1="413.31" x2="217.7" y2="455.58"/><line class="cls-4" x1="217.7" y1="455.58" x2="215.7" y2="455.55"/><line class="cls-4" x1="215.51" y1="458.34" x2="215.7" y2="455.55"/><line class="cls-4" x1="215.7" y1="455.55" x2="217.7" y2="455.58"/><line class="cls-4" x1="217.7" y1="455.58" x2="217.51" y2="458.35"/><line class="cls-4" x1="217.51" y1="458.35" x2="215.51" y2="458.34"/><line class="cls-4" x1="215.41" y1="413.28" x2="215.89" y2="410.98"/><line class="cls-4" x1="215.89" y1="410.98" x2="217.88" y2="411.02"/><line class="cls-4" x1="217.88" y1="411.02" x2="217.4" y2="413.31"/><line class="cls-4" x1="217.4" y1="413.31" x2="215.41" y2="413.28"/><line class="cls-4" x1="216.47" y1="455.72" x2="216.63" y2="413.15"/><line class="cls-4" x1="214.27" y1="458.48" x2="214.35" y2="410.66"/><line class="cls-4" x1="214.35" y1="410.66" x2="215.89" y2="410.98"/><line class="cls-4" x1="215.89" y1="410.98" x2="215.51" y2="458.34"/><line class="cls-4" x1="215.51" y1="458.34" x2="214.27" y2="458.48"/><line class="cls-4" x1="214.27" y1="458.48" x2="214.35" y2="410.66"/><line class="cls-4" x1="217.68" y1="360.71" x2="258.33" y2="384.63"/><line class="cls-4" x1="258.33" y1="384.63" x2="257.54" y2="386.45"/><line class="cls-4" x1="257.54" y1="386.45" x2="216.43" y2="362.85"/><line class="cls-4" x1="216.43" y1="362.85" x2="217.68" y2="360.71"/><path class="cls-4" d="M285.88,386.45a46.31,46.31,0,0,1-39.47,21.78" transform="translate(-28.34)"/><line class="cls-4" x1="214.4" y1="461.71" x2="217.63" y2="461.6"/><line class="cls-4" x1="214.58" y1="458.95" x2="214.4" y2="461.71"/><line class="cls-4" x1="214.16" y1="358.36" x2="217.4" y2="358.24"/><line class="cls-4" x1="214.45" y1="360.83" x2="214.16" y2="358.36"/><line class="cls-4" x1="206" y1="594.6" x2="200.76" y2="594.68"/><polygon class="cls-4" points="239.06 1.04 239.06 11.06 200.74 11.06 200.75 1.05 239.06 1.04"/><polygon class="cls-4" points="413.59 0.91 413.59 10.9 388.09 10.92 388.08 0.9 413.59 0.91"/><polygon class="cls-4" points="608.02 0.39 618.55 0.39 618.57 25.97 608.03 25.97 608.02 0.39"/><polygon class="cls-4" points="608.4 175.12 618.38 175.1 618.42 200.68 608.45 200.71 608.4 175.12"/><polygon class="cls-4" points="464.78 175.16 474.77 175.16 474.79 200.74 464.81 200.75 464.78 175.16"/><rect class="cls-4" x="637.33" y="463.6" width="9.98" height="25.58" transform="translate(-29 0.88) rotate(-0.08)"/><polygon class="cls-4" points="213.96 581.92 213.95 571.36 239.46 571.35 239.46 581.92 213.96 581.92"/><polygon class="cls-4" points="342.01 571.51 342.03 581.53 316.52 581.61 316.5 571.58 342.01 571.51"/><polygon class="cls-4" points="619.02 571.36 619.03 581.93 593.52 581.94 593.52 571.36 619.02 571.36"/><polygon class="cls-4" points="223.78 186.04 213.79 186.06 213.76 160.48 223.73 160.45 223.78 186.04"/><rect class="cls-4" x="214.19" y="317.09" width="9.99" height="25.58"/><rect class="cls-4" x="450.01" y="571.49" width="25.52" height="10.56"/><line class="cls-4" x1="42.03" y1="594.75" x2="213.99" y2="594.68"/><polyline class="cls-4" points="59.71 3.36 59.47 24.04 57.47 24.03 57.7 3.33"/><line class="cls-4" x1="59.71" y1="3.36" x2="59.47" y2="24.04"/><line class="cls-4" x1="59.47" y1="24.04" x2="57.47" y2="24.03"/><line class="cls-4" x1="57.47" y1="24.03" x2="57.7" y2="3.33"/><line class="cls-4" x1="58.47" y1="3.49" x2="58.7" y2="23.87"/><polygon class="cls-4" points="57.47 24.03 59.47 24.04 59.7 85.59 57.69 85.57 57.47 24.03"/><line class="cls-4" x1="57.47" y1="24.03" x2="59.47" y2="24.04"/><line class="cls-4" x1="59.47" y1="24.04" x2="59.7" y2="85.59"/><line class="cls-4" x1="59.7" y1="85.59" x2="57.69" y2="85.57"/><line class="cls-4" x1="57.69" y1="85.57" x2="57.47" y2="24.03"/><line class="cls-4" x1="58.7" y1="23.87" x2="58.47" y2="85.74"/><polygon class="cls-4" points="57.69 85.57 59.7 85.59 59.47 147.46 57.48 147.43 57.69 85.57"/><line class="cls-4" x1="57.69" y1="85.57" x2="59.7" y2="85.59"/><line class="cls-4" x1="59.7" y1="85.59" x2="59.47" y2="147.46"/><line class="cls-4" x1="59.47" y1="147.46" x2="57.48" y2="147.43"/><line class="cls-4" x1="57.48" y1="147.43" x2="57.69" y2="85.57"/><line class="cls-4" x1="58.47" y1="85.74" x2="58.72" y2="147.29"/><polygon class="cls-4" points="57.48 147.43 59.47 147.46 59.72 208.99 57.72 208.99 57.48 147.43"/><line class="cls-4" x1="57.48" y1="147.43" x2="59.47" y2="147.46"/><line class="cls-4" x1="59.47" y1="147.46" x2="59.72" y2="208.99"/><line class="cls-4" x1="59.72" y1="208.99" x2="57.72" y2="208.99"/><line class="cls-4" x1="57.72" y1="208.99" x2="57.48" y2="147.43"/><line class="cls-4" x1="58.72" y1="147.29" x2="58.48" y2="209.13"/><polygon class="cls-4" points="57.72 208.99 59.72 208.99 59.49 270.86 57.49 270.82 57.72 208.99"/><line class="cls-4" x1="57.72" y1="208.99" x2="59.72" y2="208.99"/><line class="cls-4" x1="59.72" y1="208.99" x2="59.49" y2="270.86"/><line class="cls-4" x1="59.49" y1="270.86" x2="57.49" y2="270.82"/><line class="cls-4" x1="57.49" y1="270.82" x2="57.72" y2="208.99"/><line class="cls-4" x1="58.48" y1="209.13" x2="58.72" y2="270.69"/><polygon class="cls-4" points="57.49 270.82 59.49 270.86 59.72 332.4 57.73 332.39 57.49 270.82"/><line class="cls-4" x1="57.49" y1="270.82" x2="59.49" y2="270.86"/><line class="cls-4" x1="59.49" y1="270.86" x2="59.71" y2="332.4"/><line class="cls-4" x1="59.71" y1="332.4" x2="57.73" y2="332.39"/><line class="cls-4" x1="57.73" y1="332.39" x2="57.49" y2="270.82"/><line class="cls-4" x1="58.72" y1="270.69" x2="58.5" y2="332.55"/><polygon class="cls-4" points="57.73 332.39 59.72 332.4 59.97 393.95 57.49 394.24 57.73 332.39"/><line class="cls-4" x1="57.73" y1="332.39" x2="59.71" y2="332.4"/><line class="cls-4" x1="59.71" y1="332.4" x2="59.97" y2="393.95"/><line class="cls-4" x1="59.97" y1="393.95" x2="57.49" y2="394.23"/><line class="cls-4" x1="57.49" y1="394.23" x2="57.73" y2="332.39"/><line class="cls-4" x1="58.5" y1="332.55" x2="58.74" y2="394.11"/><polygon class="cls-4" points="57.49 394.24 59.97 393.95 60.04 456.28 58.04 456.25 57.49 394.24"/><line class="cls-4" x1="57.49" y1="394.23" x2="59.97" y2="393.95"/><line class="cls-4" x1="59.97" y1="393.95" x2="60.04" y2="456.28"/><line class="cls-4" x1="60.04" y1="456.28" x2="58.04" y2="456.25"/><line class="cls-4" x1="58.04" y1="456.25" x2="57.49" y2="394.23"/><line class="cls-4" x1="58.74" y1="394.11" x2="59.27" y2="456.12"/><polygon class="cls-4" points="60.22 517.68 58 517.68 57.9 455.95 60.12 455.94 60.22 517.68"/><line class="cls-4" x1="58.04" y1="456.25" x2="60.04" y2="456.28"/><line class="cls-4" x1="60.04" y1="456.28" x2="60.28" y2="517.85"/><line class="cls-4" x1="60.28" y1="517.85" x2="58.28" y2="517.81"/><line class="cls-4" x1="58.28" y1="517.81" x2="58.04" y2="456.25"/><line class="cls-4" x1="59.27" y1="456.12" x2="59.05" y2="517.98"/><polygon class="cls-4" points="58.28 517.81 60.27 517.85 60.21 578.91 58.21 578.9 58.28 517.81"/><line class="cls-4" x1="58.28" y1="517.81" x2="60.28" y2="517.85"/><line class="cls-4" x1="60.28" y1="517.85" x2="60.21" y2="578.91"/><line class="cls-4" x1="60.21" y1="578.91" x2="58.21" y2="578.9"/><line class="cls-4" x1="58.21" y1="578.9" x2="58.28" y2="517.81"/><line class="cls-4" x1="59.05" y1="517.98" x2="58.98" y2="579.07"/><rect class="cls-4" x="157.49" y="507.23" width="2.23" height="140.85" transform="translate(-447.83 734.64) rotate(-89.84)"/><line class="cls-4" x1="200.95" y1="576.64" x2="200.95" y2="578.64"/><line class="cls-4" x1="200.95" y1="578.64" x2="60.21" y2="578.91"/><line class="cls-4" x1="60.21" y1="578.91" x2="60.23" y2="576.92"/><line class="cls-4" x1="60.23" y1="576.92" x2="200.95" y2="576.64"/><line class="cls-4" x1="201.11" y1="577.87" x2="60.07" y2="577.7"/><line class="cls-4" x1="198.17" y1="358.18" x2="198.23" y2="338.9"/><line class="cls-4" x1="197.4" y1="358.02" x2="197.46" y2="338.73"/><line class="cls-4" x1="198.17" y1="358.18" x2="197.4" y2="358.02"/><line class="cls-4" x1="198.23" y1="338.9" x2="197.46" y2="338.73"/><line class="cls-4" x1="200.88" y1="335.84" x2="200.71" y2="338.61"/><line class="cls-4" x1="200.94" y1="358.36" x2="201.22" y2="360.84"/><line class="cls-4" x1="200.94" y1="358.36" x2="200.71" y2="338.61"/><line class="cls-4" x1="196.88" y1="335.8" x2="196.7" y2="338.56"/><line class="cls-4" x1="196.95" y1="358.32" x2="196.75" y2="361.09"/><line class="cls-4" x1="196.95" y1="358.32" x2="196.7" y2="338.56"/><line class="cls-4" x1="201.22" y1="360.84" x2="196.75" y2="361.09"/><line class="cls-4" x1="200.88" y1="335.84" x2="196.88" y2="335.8"/><line class="cls-4" x1="200.94" y1="358.36" x2="198.17" y2="358.18"/><line class="cls-4" x1="197.4" y1="358.02" x2="196.95" y2="358.32"/><line class="cls-4" x1="200.71" y1="338.61" x2="198.23" y2="338.9"/><line class="cls-4" x1="197.46" y1="338.73" x2="196.7" y2="338.56"/><line class="cls-4" x1="198.65" y1="481.28" x2="198.4" y2="461.52"/><line class="cls-4" x1="197.42" y1="481.42" x2="197.17" y2="461.68"/><line class="cls-4" x1="198.65" y1="481.28" x2="197.42" y2="481.42"/><line class="cls-4" x1="198.4" y1="461.52" x2="197.17" y2="461.68"/><line class="cls-4" x1="200.9" y1="459.25" x2="201.17" y2="461.72"/><line class="cls-4" x1="201.11" y1="481.01" x2="200.93" y2="483.77"/><line class="cls-4" x1="201.11" y1="481.01" x2="201.17" y2="461.72"/><line class="cls-4" x1="196.89" y1="459.19" x2="197.17" y2="461.68"/><line class="cls-4" x1="197.11" y1="480.95" x2="196.93" y2="483.74"/><line class="cls-4" x1="197.11" y1="480.95" x2="197.17" y2="461.68"/><line class="cls-4" x1="200.93" y1="483.77" x2="196.93" y2="483.74"/><line class="cls-4" x1="200.9" y1="459.25" x2="196.89" y2="459.19"/><line class="cls-4" x1="201.11" y1="481.01" x2="198.65" y2="481.28"/><line class="cls-4" x1="197.42" y1="481.42" x2="197.11" y2="480.95"/><line class="cls-4" x1="201.17" y1="461.72" x2="198.4" y2="461.52"/><line class="cls-4" x1="197.17" y1="461.68" x2="197.17" y2="461.68"/><line class="cls-4" x1="197.83" y1="2.75" x2="197.06" y2="2.59"/><line class="cls-4" x1="200.6" y1="2.94" x2="200.87" y2="5.41"/><line class="cls-4" x1="196.59" y1="2.89" x2="196.4" y2="5.68"/><line class="cls-4" x1="200.87" y1="5.41" x2="196.4" y2="5.68"/><line class="cls-4" x1="200.6" y1="2.94" x2="197.83" y2="2.75"/><line class="cls-4" x1="197.06" y1="2.59" x2="196.59" y2="2.89"/><line class="cls-4" x1="608.49" y1="237.06" x2="526.63" y2="267.92"/><line class="cls-4" x1="608.47" y1="267.6" x2="526.35" y2="236.91"/><line class="cls-4" x1="608.77" y1="336.41" x2="528.75" y2="368.04"/><line class="cls-4" x1="608.87" y1="368.18" x2="528.64" y2="336.28"/><path class="cls-4" d="M647.06,450.66" transform="translate(-28.34)"/><path class="cls-4" d="M647.15,442.64" transform="translate(-28.34)"/><path class="cls-4" d="M647.37,464.39" transform="translate(-28.34)"/><path class="cls-4" d="M647,456.68" transform="translate(-28.34)"/><path class="cls-4" d="M647.37,464.39" transform="translate(-28.34)"/><text class="cls-5" transform="translate(338.27 102.33)">2К</text><text class="cls-5" transform="translate(333.62 71.02)">№1</text><text class="cls-5" transform="translate(331.57 132.51)">8<tspan class="cls-6" x="13.08" y="0">7</tspan><tspan x="23.52" y="0">.4</tspan></text><polyline class="cls-4" points="309.92 141.06 309.92 48.79 394.95 48.79 394.95 141.06"/><line class="cls-4" x1="309.92" y1="79.27" x2="394.95" y2="79.27"/><line class="cls-4" x1="309.92" y1="110.16" x2="394.95" y2="110.16"/><line class="cls-4" x1="309.92" y1="141.06" x2="394.95" y2="141.06"/><text class="cls-7" transform="translate(240.78 102.33)">15.4</text><text class="cls-7" transform="translate(240.78 476.5)">31.2</text><text class="cls-7" transform="translate(240.78 264.46)">15.0</text><text class="cls-7" transform="translate(114.82 264.46)">9.1</text><text class="cls-7" transform="translate(505.56 310.79)">8.<tspan class="cls-8" x="16.7" y="0">7</tspan></text><text class="cls-7" transform="translate(517.65 51.33)">4.4</text><text class="cls-7" transform="translate(550.57 176.71)">3.6</text></svg>