<svg id="_164" data-name="164" xmlns="http://www.w3.org/2000/svg" viewBox="0 0 282.54 797.82"><defs><style>.cls-1,.cls-4,.cls-7{fill:none;}.cls-1{stroke:#969696;stroke-miterlimit:10;}.cls-2{isolation:isolate;font-size:12px;fill:#969696;}.cls-2,.cls-5,.cls-6{font-family:PTSans-Regular, PT Sans;}.cls-3{letter-spacing:-0.01em;}.cls-4{stroke:#000;}.cls-4,.cls-7{stroke-linecap:round;stroke-linejoin:round;stroke-width:0.5px;}.cls-5,.cls-6{font-size:17px;}.cls-6{fill:#181716;}.cls-7{stroke:#181716;}</style></defs><title>10floor_164flat</title><line class="cls-1" x1="125.75" y1="795.28" x2="125.75" y2="786.48"/><polyline class="cls-1" points="129.15 791.98 125.65 795.48 122.15 791.98"/><text class="cls-2" transform="translate(134.99 794.88)">двор</text><line class="cls-1" x1="123.19" y1="2" x2="123.19" y2="10.8"/><polyline class="cls-1" points="126.59 5.3 123.09 1.8 119.59 5.3"/><text class="cls-2" transform="translate(132.42 10.2)"><tspan class="cls-3">у</tspan><tspan x="5.42" y="0">лица</tspan></text><polyline class="cls-4" points="121.23 501.2 121.23 391.26 43.46 391.26 43.46 501.2 121.23 501.2"/><polyline class="cls-4" points="181.96 721.07 36.02 721.07 36.02 756.84 181.96 756.84 181.96 721.07"/><polyline class="cls-4" points="56.18 440.47 45.38 440.47 45.38 465.44 56.18 465.44"/><line class="cls-4" x1="45.38" y1="457.03" x2="45.38" y2="449.11"/><line class="cls-4" x1="54.02" y1="455.11" x2="54.02" y2="453.67"/><line class="cls-4" x1="51.86" y1="452.95" x2="53.3" y2="452.95"/><line class="cls-4" x1="54.02" y1="452.23" x2="54.02" y2="450.79"/><line class="cls-4" x1="54.74" y1="452.95" x2="56.18" y2="452.95"/><path class="cls-4" d="M56.52,470.32a11.18,11.18,0,0,0-5.28,4.32" transform="translate(0 -28.34)"/><path class="cls-4" d="M51.3,474.46a11.18,11.18,0,0,0-1.57,6.65" transform="translate(0 -28.34)"/><path class="cls-4" d="M51.24,488a11.2,11.2,0,0,0,5.28,4.33" transform="translate(0 -28.34)"/><path class="cls-4" d="M49.73,481.24a11.19,11.19,0,0,0,1.57,6.66" transform="translate(0 -28.34)"/><path class="cls-4" d="M64.52,480.37a20.71,20.71,0,0,0-2.08-7.66" transform="translate(0 -28.34)"/><path class="cls-4" d="M56,493.77a6.35,6.35,0,0,0,5.23-2.37" transform="translate(0 -28.34)"/><path class="cls-4" d="M64.31,482.06a12.92,12.92,0,0,0,0-1.76" transform="translate(0 -28.34)"/><path class="cls-4" d="M51.68,474.16a45.84,45.84,0,0,0,0,14" transform="translate(0 -28.34)"/><path class="cls-4" d="M47.31,489.51a15.77,15.77,0,0,0,10.22,3.55" transform="translate(0 -28.34)"/><path class="cls-4" d="M45.86,481.18a31.35,31.35,0,0,0,.77,7.16" transform="translate(0 -28.34)"/><path class="cls-4" d="M46.63,488.35a2,2,0,0,0,.7,1.13" transform="translate(0 -28.34)"/><path class="cls-4" d="M46.82,481.24a52.45,52.45,0,0,0,.51,7.08" transform="translate(0 -28.34)"/><path class="cls-4" d="M48.05,489.73a14.34,14.34,0,0,0,9.64,3.57" transform="translate(0 -28.34)"/><path class="cls-4" d="M47.32,488.18a2,2,0,0,0,.67,1.25" transform="translate(0 -28.34)"/><path class="cls-4" d="M57.67,469.3A14.23,14.23,0,0,0,48,472.88" transform="translate(0 -28.34)"/><path class="cls-4" d="M57.51,469.3a15.72,15.72,0,0,0-10.22,3.56" transform="translate(0 -28.34)"/><path class="cls-4" d="M47.32,474.11a52.44,52.44,0,0,0-.5,7.08" transform="translate(0 -28.34)"/><path class="cls-4" d="M46.62,474.05a31.43,31.43,0,0,0-.76,7.17" transform="translate(0 -28.34)"/><path class="cls-4" d="M48,472.93a2,2,0,0,0-.67,1.25" transform="translate(0 -28.34)"/><path class="cls-4" d="M47.32,472.88a2,2,0,0,0-.69,1.13" transform="translate(0 -28.34)"/><path class="cls-4" d="M61.26,471A6.36,6.36,0,0,0,56,468.58" transform="translate(0 -28.34)"/><path class="cls-4" d="M62.28,472.79a9.66,9.66,0,0,0-1.09-1.68" transform="translate(0 -28.34)"/><path class="cls-4" d="M61.19,491.48a9.3,9.3,0,0,0,1.09-1.68" transform="translate(0 -28.34)"/><path class="cls-4" d="M62.44,489.64A20.61,20.61,0,0,0,64.52,482" transform="translate(0 -28.34)"/><path class="cls-4" d="M62.73,484.64a14.76,14.76,0,0,0,0-6.93" transform="translate(0 -28.34)"/><path class="cls-4" d="M59.59,471.55a3.71,3.71,0,0,0-3.07-1.29" transform="translate(0 -28.34)"/><path class="cls-4" d="M62.45,477.86a13.43,13.43,0,0,0-2.86-6.23" transform="translate(0 -28.34)"/><path class="cls-4" d="M56.52,492.09a3.7,3.7,0,0,0,3.07-1.28" transform="translate(0 -28.34)"/><path class="cls-4" d="M59.59,491a13.47,13.47,0,0,0,2.86-6.24" transform="translate(0 -28.34)"/><path class="cls-4" d="M55.46,481.18a1.56,1.56,0,1,0-1.56,1.56,1.56,1.56,0,0,0,1.56-1.56" transform="translate(0 -28.34)"/><path class="cls-4" d="M55,481.18a1.08,1.08,0,1,0-1.08,1.08A1.08,1.08,0,0,0,55,481.18" transform="translate(0 -28.34)"/><line class="cls-4" x1="55.22" y1="399.19" x2="55.22" y2="415.27"/><polyline class="cls-4" points="54.5 398.23 54.5 391.99 71.54 391.99"/><line class="cls-4" x1="63.14" y1="402.07" x2="69.38" y2="402.07"/><polyline class="cls-4" points="55.22 415.27 56.66 402.07 63.14 402.07"/><line class="cls-4" x1="71.06" y1="415.27" x2="69.38" y2="402.07"/><line class="cls-4" x1="55.46" y1="415.27" x2="57.14" y2="402.07"/><line class="cls-4" x1="70.58" y1="415.27" x2="68.9" y2="402.07"/><line class="cls-4" x1="71.06" y1="399.19" x2="71.06" y2="415.27"/><line class="cls-4" x1="71.54" y1="391.98" x2="71.54" y2="398.23"/><polyline class="cls-4" points="55.22 415.27 55.46 417.19 55.94 418.87 57.14 420.31 58.58 421.51 60.26 422.23 62.18 422.71 64.1 422.71 65.78 422.23 67.46 421.51 68.9 420.31 70.1 418.87 70.82 417.19 71.06 415.27"/><polyline class="cls-4" points="55.46 415.27 55.7 416.95 56.42 418.63 57.38 420.07 58.82 421.03 60.26 421.99 62.18 422.23 63.86 422.23 65.78 421.99 67.22 421.03 68.66 420.07 69.62 418.63 70.34 416.95 70.58 415.27"/><polyline class="cls-4" points="54.5 398.23 54.5 398.47 54.5 398.71 54.74 398.95 54.98 399.19 55.22 399.19 63.14 399.67 70.82 399.19 71.06 399.19 71.3 398.95 71.54 398.71 71.54 398.47 71.54 398.23"/><polyline class="cls-4" points="63.14 395.11 62.9 395.11 62.66 395.11 62.42 395.35 62.18 395.59 62.18 395.83 62.18 396.07 62.18 396.31 62.42 396.31 62.42 396.55 62.66 396.79 62.9 396.79 63.14 396.79 63.38 396.79 63.62 396.55 63.86 396.31 63.86 396.07 63.86 395.83 63.86 395.59 63.62 395.35 63.38 395.11 63.14 395.11"/><polyline class="cls-4" points="121.23 419.11 93.14 419.11 93.14 391.26 121.23 391.26 121.23 419.11"/><line class="cls-4" x1="48.02" y1="473.12" x2="48.02" y2="495.2"/><line class="cls-4" x1="50.42" y1="497.84" x2="104.67" y2="497.84"/><line class="cls-4" x1="50.42" y1="470.48" x2="104.67" y2="470.48"/><line class="cls-4" x1="119.79" y1="500.48" x2="45.38" y2="500.48"/><polyline class="cls-4" points="119.79 500.48 119.79 467.84 45.38 467.84 45.38 500.48"/><line class="cls-4" x1="95.78" y1="475.04" x2="53.54" y2="475.04"/><line class="cls-4" x1="52.34" y1="476.24" x2="52.34" y2="492.08"/><line class="cls-4" x1="95.78" y1="493.28" x2="53.54" y2="493.28"/><line class="cls-4" x1="60.98" y1="483.44" x2="60.98" y2="481.76"/><line class="cls-4" x1="60.26" y1="484.16" x2="58.58" y2="484.16"/><line class="cls-4" x1="60.98" y1="484.88" x2="60.98" y2="486.56"/><line class="cls-4" x1="61.7" y1="484.16" x2="63.14" y2="484.16"/><polyline class="cls-4" points="104.67 497.84 107.07 497.6 109.23 496.88 111.39 495.68 113.31 494.24 114.99 492.32 116.19 490.16 117.15 487.76 117.63 485.36 117.63 482.96 117.15 480.32 116.19 477.92 114.99 476 113.31 474.08 111.39 472.4 109.23 471.44 107.07 470.72 104.67 470.48"/><polyline class="cls-4" points="48.02 495.2 48.02 495.68 48.02 496.16 48.26 496.4 48.5 496.88 48.74 497.12 49.22 497.36 49.7 497.6 49.94 497.84 50.42 497.84"/><polyline class="cls-4" points="50.42 470.48 49.94 470.48 49.7 470.72 49.22 470.72 48.74 470.96 48.5 471.44 48.26 471.68 48.02 472.16 48.02 472.64 48.02 473.12"/><polyline class="cls-4" points="60.98 482.72 60.74 482.72 60.5 482.96 60.26 482.96 60.02 483.2 60.02 483.44 59.78 483.68 59.78 483.92 59.78 484.16 59.78 484.4 59.78 484.64 59.78 484.88 60.02 485.12 60.26 485.12 60.26 485.36 60.5 485.36 60.74 485.36 60.98 485.36 61.22 485.36 61.46 485.36 61.7 485.12 61.94 485.12 62.18 484.88 62.18 484.64 62.18 484.4 62.18 484.16 62.18 483.92 62.18 483.68 61.94 483.44 61.94 483.2 61.7 482.96 61.46 482.96 61.22 482.72 60.98 482.72"/><polyline class="cls-4" points="95.78 493.28 97.47 493.04 98.91 492.56 100.34 491.84 101.78 490.88 102.75 489.68 103.71 488.24 104.19 486.56 104.43 484.88 104.43 483.2 104.19 481.52 103.71 480.08 102.75 478.64 101.78 477.44 100.34 476.24 98.91 475.52 97.47 475.04 95.78 475.04"/><polyline class="cls-4" points="53.54 475.04 53.3 475.04 53.06 475.04 52.82 475.28 52.58 475.52 52.34 475.76 52.34 476 52.34 476.24"/><polyline class="cls-4" points="53.54 493.28 53.3 493.28 53.06 493.28 52.82 493.04 52.58 492.8 52.34 492.56 52.34 492.32 52.34 492.08"/><polyline class="cls-4" points="60.98 482.24 60.74 482.24 60.26 482.48 60.02 482.48 59.78 482.72 59.54 482.96 59.3 483.44 59.3 483.68 59.3 483.92 59.3 484.4 59.3 484.64 59.54 485.12 59.54 485.36 59.78 485.6 60.26 485.84 60.5 485.84 60.74 485.84 61.22 485.84 61.46 485.84 61.7 485.84 61.94 485.6 62.18 485.36 62.42 485.12 62.66 484.64 62.66 484.4 62.66 483.92 62.66 483.68 62.42 483.44 62.42 482.96 62.18 482.72 61.94 482.48 61.7 482.48 61.22 482.24 60.98 482.24"/><polyline class="cls-4" points="189.4 278.21 43.46 278.21 43.46 365.1 121.23 365.1 121.23 337.26 189.4 337.26 189.4 278.21"/><polyline class="cls-4" points="189.4 341.1 124.83 341.1 124.83 501.2 189.4 501.2 189.4 466.4 198.76 466.4 273.17 466.4 273.17 394.38 235.97 394.38 189.4 394.38 189.4 385.02 189.4 341.1"/><polyline class="cls-4" points="189.4 704.51 189.4 578.01 189.4 531.45 189.4 505.04 43.46 505.04 43.46 704.51 189.4 704.51"/><polyline class="cls-4" points="43.46 59.77 43.46 274.61 189.4 274.61 189.4 257.32 189.4 102.98 189.4 59.77 43.46 59.77"/><line class="cls-4" x1="282.29" y1="401.35" x2="282.29" y2="466.4"/><polygon points="29.05 720.59 29.53 720.59 29.05 721.07 29.05 720.59"/><polygon class="cls-4" points="29.05 720.59 29.53 720.59 29.05 721.07 29.05 720.59"/><path d="M35.54,742h0Z" transform="translate(0 -28.34)"/><path class="cls-4" d="M35.54,742h0Z" transform="translate(0 -28.34)"/><path d="M29.05,742l.48,7h-.48Zm6.49,0H29.05l.48,7Z" transform="translate(0 -28.34)"/><path class="cls-4" d="M29.05,742l.48,7h-.48Zm6.49,0H29.05l.48,7Z" transform="translate(0 -28.34)"/><path d="M29.05,695.65l4.81,1.68H29.05Zm4.81,0H29.05l4.81,1.68Z" transform="translate(0 -28.34)"/><path class="cls-4" d="M29.05,695.65l4.81,1.68H29.05Zm4.81,0H29.05l4.81,1.68Z" transform="translate(0 -28.34)"/><path d="M29.05,697.33l7,44.17h-7Zm7,0h-7l7,44.17Z" transform="translate(0 -28.34)"/><path class="cls-4" d="M29.05,697.33l7,44.17h-7Zm7,0h-7l7,44.17Z" transform="translate(0 -28.34)"/><path d="M29.05,741.5l6.49.48H29.05Zm7,0h-7l6.49.48Z" transform="translate(0 -28.34)"/><path class="cls-4" d="M29.05,741.5l6.49.48H29.05Zm7,0h-7l6.49.48Z" transform="translate(0 -28.34)"/><path d="M29.05,296.71l4.81,1.92H29.05Zm4.81,0H29.05l4.81,1.92Z" transform="translate(0 -28.34)"/><path class="cls-4" d="M29.05,296.71l4.81,1.92H29.05Zm4.81,0H29.05l4.81,1.92Z" transform="translate(0 -28.34)"/><path d="M29.05,298.63l7,158.9h-7Zm7,0h-7l7,158.9Z" transform="translate(0 -28.34)"/><path class="cls-4" d="M29.05,298.63l7,158.9h-7Zm7,0h-7l7,158.9Z" transform="translate(0 -28.34)"/><path d="M29.05,457.53l4.81,1.92H29.05Zm4.81,0H29.05l4.81,1.92Z" transform="translate(0 -28.34)"/><path class="cls-4" d="M29.05,457.53l4.81,1.92H29.05Zm4.81,0H29.05l4.81,1.92Z" transform="translate(0 -28.34)"/><path d="M29.05,502.18l4.81,1.92H29.05Zm4.81,0H29.05l4.81,1.92Z" transform="translate(0 -28.34)"/><path class="cls-4" d="M29.05,502.18l4.81,1.92H29.05Zm4.81,0H29.05l4.81,1.92Z" transform="translate(0 -28.34)"/><path d="M29.05,504.1,36,651h-7Zm7,0h-7L36,651Z" transform="translate(0 -28.34)"/><path class="cls-4" d="M29.05,504.1,36,651h-7Zm7,0h-7L36,651Z" transform="translate(0 -28.34)"/><path d="M29.05,651l4.81,1.92H29.05Zm4.81,0H29.05l4.81,1.92Z" transform="translate(0 -28.34)"/><path class="cls-4" d="M29.05,651l4.81,1.92H29.05Zm4.81,0H29.05l4.81,1.92Z" transform="translate(0 -28.34)"/><path d="M29.05,76.6l7,175.7h-7Zm7,0h-7l7,175.7Z" transform="translate(0 -28.34)"/><path class="cls-4" d="M29.05,76.6l7,175.7h-7Zm7,0h-7l7,175.7Z" transform="translate(0 -28.34)"/><path d="M29.05,252.3,33.86,254H29.05Zm4.81,0H29.05L33.86,254Z" transform="translate(0 -28.34)"/><path class="cls-4" d="M29.05,252.3,33.86,254H29.05Zm4.81,0H29.05L33.86,254Z" transform="translate(0 -28.34)"/><path d="M29.05,69.64h0Z" transform="translate(0 -28.34)"/><path class="cls-4" d="M29.05,69.64h0Z" transform="translate(0 -28.34)"/><path d="M29.05,69.64l7,5.76h-7Zm3.6,0h-3.6l7,5.76Z" transform="translate(0 -28.34)"/><path class="cls-4" d="M29.05,69.64l7,5.76h-7Zm3.6,0h-3.6l7,5.76Z" transform="translate(0 -28.34)"/><path d="M36,76.6h-7V75.4Zm0,0Z" transform="translate(0 -28.34)"/><path class="cls-4" d="M36,76.6h-7V75.4Zm0,0Z" transform="translate(0 -28.34)"/><polygon points="29.05 47.05 36.02 47.05 36.02 48.25 29.05 47.05"/><polygon class="cls-4" points="29.05 47.05 36.02 47.05 36.02 48.25 29.05 47.05"/><path d="M29.05,69.16h0Z" transform="translate(0 -28.34)"/><path class="cls-4" d="M29.05,69.16h0Z" transform="translate(0 -28.34)"/><path d="M32.65,69.64h-3.6v-.48Zm0,0Z" transform="translate(0 -28.34)"/><path class="cls-4" d="M32.65,69.64h-3.6v-.48Zm0,0Z" transform="translate(0 -28.34)"/><polygon points="29.05 40.81 32.41 40.81 32.66 41.29 29.05 40.81"/><polygon class="cls-4" points="29.05 40.81 32.41 40.81 32.66 41.29 29.05 40.81"/><path d="M32.41,69.16h0Zm-3.36-5.77,3.36,5.77H29.05Z" transform="translate(0 -28.34)"/><path class="cls-4" d="M32.41,69.16h0Zm-3.36-5.77,3.36,5.77H29.05Z" transform="translate(0 -28.34)"/><path d="M36,76.6l7.44,11.52H36Zm.72,0H36l7.44,11.52Z" transform="translate(0 -28.34)"/><path class="cls-4" d="M36,76.6l7.44,11.52H36Zm.72,0H36l7.44,11.52Z" transform="translate(0 -28.34)"/><path d="M36,88.12,43.46,252.3H36Zm7.44,0H36L43.46,252.3Z" transform="translate(0 -28.34)"/><path class="cls-4" d="M36,88.12,43.46,252.3H36Zm7.44,0H36L43.46,252.3Z" transform="translate(0 -28.34)"/><path d="M36,504.1,43.46,651H36Zm7.44,0H36L43.46,651Z" transform="translate(0 -28.34)"/><path class="cls-4" d="M36,504.1,43.46,651H36Zm7.44,0H36L43.46,651Z" transform="translate(0 -28.34)"/><path d="M36,298.63l7.44,158.9H36Zm7.44,0H36l7.44,158.9Z" transform="translate(0 -28.34)"/><path class="cls-4" d="M36,298.63l7.44,158.9H36Zm7.44,0H36l7.44,158.9Z" transform="translate(0 -28.34)"/><path d="M36,732.86h7.44L36,741.5Zm0-35.53v35.53h7.44Z" transform="translate(0 -28.34)"/><path class="cls-4" d="M36,732.86h7.44L36,741.5Zm0-35.53v35.53h7.44Z" transform="translate(0 -28.34)"/><polygon points="36.02 668.99 43.46 668.99 43.46 704.51 36.02 668.99"/><polygon class="cls-4" points="36.02 668.99 43.46 668.99 43.46 704.51 36.02 668.99"/><path d="M36.74,76.6h0ZM36,75.4l.72,1.2H36Z" transform="translate(0 -28.34)"/><path class="cls-4" d="M36.74,76.6h0ZM36,75.4l.72,1.2H36Z" transform="translate(0 -28.34)"/><line class="cls-4" x1="29.53" y1="720.59" x2="29.05" y2="720.59"/><line class="cls-4" x1="32.65" y1="41.29" x2="29.05" y2="41.29"/><line class="cls-4" x1="32.41" y1="40.81" x2="29.05" y2="40.81"/><line class="cls-4" x1="36.02" y1="668.99" x2="36.02" y2="713.15"/><line class="cls-4" x1="36.02" y1="48.25" x2="36.02" y2="223.96"/><line class="cls-4" x1="36.02" y1="475.76" x2="36.02" y2="622.66"/><line class="cls-4" x1="36.02" y1="270.29" x2="36.02" y2="429.19"/><line class="cls-4" x1="36.02" y1="668.99" x2="43.46" y2="668.99"/><polyline class="cls-4" points="29.05 667.31 33.85 667.31 33.85 668.99 36.02 668.99"/><line class="cls-4" x1="36.02" y1="622.66" x2="43.46" y2="622.66"/><polyline class="cls-4" points="29.05 624.58 33.85 624.58 33.85 622.66 36.02 622.66"/><line class="cls-4" x1="36.02" y1="270.29" x2="43.46" y2="270.29"/><polyline class="cls-4" points="29.05 268.37 33.85 268.37 33.85 270.29 36.02 270.29"/><line class="cls-4" x1="36.02" y1="223.96" x2="43.46" y2="223.96"/><polyline class="cls-4" points="29.05 225.64 33.85 225.64 33.85 223.96 36.02 223.96"/><line class="cls-4" x1="36.02" y1="475.76" x2="43.46" y2="475.76"/><polyline class="cls-4" points="29.05 473.84 33.85 473.84 33.85 475.76 36.02 475.76"/><line class="cls-4" x1="36.02" y1="429.19" x2="43.46" y2="429.19"/><polyline class="cls-4" points="29.05 431.11 33.85 431.11 33.85 429.19 36.02 429.19"/><line class="cls-4" x1="43.46" y1="704.51" x2="43.46" y2="668.99"/><line class="cls-4" x1="43.46" y1="622.66" x2="43.46" y2="475.76"/><line class="cls-4" x1="43.46" y1="429.19" x2="43.46" y2="270.29"/><line class="cls-4" x1="43.46" y1="223.96" x2="43.46" y2="59.78"/><polyline class="cls-4" points="29.05 35.05 29.05 40.81 29.05 41.29 29.05 48.25 29.05 225.64"/><line class="cls-4" x1="29.05" y1="268.37" x2="29.05" y2="431.11"/><line class="cls-4" x1="29.05" y1="473.84" x2="29.05" y2="624.58"/><polyline class="cls-4" points="29.05 721.07 29.05 720.59 29.05 667.31"/><line class="cls-4" x1="29.05" y1="624.58" x2="29.05" y2="667.31"/><line class="cls-4" x1="43.46" y1="622.66" x2="43.46" y2="668.99"/><path d="M33.86,651h0Z" transform="translate(0 -28.34)"/><path class="cls-4" d="M33.86,651h0Z" transform="translate(0 -28.34)"/><path d="M36,654.6H33.86V651Zm0,0Z" transform="translate(0 -28.34)"/><path class="cls-4" d="M36,654.6H33.86V651Zm0,0Z" transform="translate(0 -28.34)"/><polygon points="33.85 622.66 36.02 622.66 36.02 626.26 33.85 622.66"/><polygon class="cls-4" points="33.85 622.66 36.02 622.66 36.02 626.26 33.85 622.66"/><path d="M33.86,693.73h0Z" transform="translate(0 -28.34)"/><path class="cls-4" d="M33.86,693.73h0Z" transform="translate(0 -28.34)"/><path d="M36,697.33H33.86v-3.6Zm0,0Z" transform="translate(0 -28.34)"/><path class="cls-4" d="M36,697.33H33.86v-3.6Zm0,0Z" transform="translate(0 -28.34)"/><polygon points="33.85 665.39 36.02 665.39 36.02 668.99 33.85 665.39"/><polygon class="cls-4" points="33.85 665.39 36.02 665.39 36.02 668.99 33.85 665.39"/><polyline class="cls-4" points="33.85 622.66 33.85 626.26 36.02 626.26 36.02 622.66"/><polyline class="cls-4" points="36.02 668.99 36.02 665.39 33.85 665.39 33.85 668.99"/><line class="cls-4" x1="33.86" y1="626.26" x2="33.86" y2="665.39"/><line class="cls-4" x1="36.02" y1="665.39" x2="36.02" y2="626.26"/><polyline class="cls-4" points="33.85 624.58 33.85 622.66 36.02 622.66"/><polyline class="cls-4" points="33.85 667.31 33.85 668.99 36.02 668.99"/><line class="cls-4" x1="29.05" y1="225.64" x2="29.05" y2="268.37"/><line class="cls-4" x1="43.46" y1="223.96" x2="43.46" y2="270.29"/><path d="M33.86,252.3h0Z" transform="translate(0 -28.34)"/><path class="cls-4" d="M33.86,252.3h0Z" transform="translate(0 -28.34)"/><path d="M36,255.9H33.86v-3.6Zm0,0Z" transform="translate(0 -28.34)"/><path class="cls-4" d="M36,255.9H33.86v-3.6Zm0,0Z" transform="translate(0 -28.34)"/><polygon points="33.85 223.96 36.02 223.96 36.02 227.56 33.85 223.96"/><polygon class="cls-4" points="33.85 223.96 36.02 223.96 36.02 227.56 33.85 223.96"/><path d="M33.86,295h0Z" transform="translate(0 -28.34)"/><path class="cls-4" d="M33.86,295h0Z" transform="translate(0 -28.34)"/><path d="M36,298.63H33.86V295Zm0,0Z" transform="translate(0 -28.34)"/><path class="cls-4" d="M36,298.63H33.86V295Zm0,0Z" transform="translate(0 -28.34)"/><polygon points="33.85 266.69 36.02 266.69 36.02 270.29 33.85 266.69"/><polygon class="cls-4" points="33.85 266.69 36.02 266.69 36.02 270.29 33.85 266.69"/><polyline class="cls-4" points="33.85 223.96 33.85 227.56 36.02 227.56 36.02 223.96"/><polyline class="cls-4" points="36.02 270.29 36.02 266.69 33.85 266.69 33.85 270.29"/><line class="cls-4" x1="33.86" y1="227.56" x2="33.86" y2="266.69"/><line class="cls-4" x1="36.02" y1="266.69" x2="36.02" y2="227.56"/><polyline class="cls-4" points="33.85 225.64 33.85 223.96 36.02 223.96"/><polyline class="cls-4" points="33.85 268.37 33.85 270.29 36.02 270.29"/><line class="cls-4" x1="29.05" y1="431.11" x2="29.05" y2="473.84"/><line class="cls-4" x1="43.46" y1="429.19" x2="43.46" y2="475.76"/><path d="M33.86,457.53h0Z" transform="translate(0 -28.34)"/><path class="cls-4" d="M33.86,457.53h0Z" transform="translate(0 -28.34)"/><path d="M36,461.37H33.86v-3.84Zm0,0Z" transform="translate(0 -28.34)"/><path class="cls-4" d="M36,461.37H33.86v-3.84Zm0,0Z" transform="translate(0 -28.34)"/><polygon points="33.85 429.19 36.02 429.19 36.02 433.03 33.85 429.19"/><polygon class="cls-4" points="33.85 429.19 36.02 429.19 36.02 433.03 33.85 429.19"/><path d="M33.86,500.26h0Z" transform="translate(0 -28.34)"/><path class="cls-4" d="M33.86,500.26h0Z" transform="translate(0 -28.34)"/><path d="M36,504.1H33.86v-3.84Zm0,0Z" transform="translate(0 -28.34)"/><path class="cls-4" d="M36,504.1H33.86v-3.84Zm0,0Z" transform="translate(0 -28.34)"/><polygon points="33.85 471.92 36.02 471.92 36.02 475.76 33.85 471.92"/><polygon class="cls-4" points="33.85 471.92 36.02 471.92 36.02 475.76 33.85 471.92"/><polyline class="cls-4" points="33.85 429.19 33.85 433.03 36.02 433.03 36.02 429.19"/><polyline class="cls-4" points="36.02 475.76 36.02 471.92 33.85 471.92 33.85 475.76"/><line class="cls-4" x1="33.86" y1="433.03" x2="33.86" y2="471.92"/><line class="cls-4" x1="36.02" y1="471.92" x2="36.02" y2="433.03"/><polyline class="cls-4" points="33.85 431.11 33.85 429.19 36.02 429.19"/><polyline class="cls-4" points="33.85 473.84 33.85 475.76 36.02 475.76"/><path d="M189.4,787.58h0Z" transform="translate(0 -28.34)"/><path class="cls-4" d="M189.4,787.58h0Z" transform="translate(0 -28.34)"/><path d="M198.76,792.14H189.4v-4.56Zm0,0Z" transform="translate(0 -28.34)"/><path class="cls-4" d="M198.76,792.14H189.4v-4.56Zm0,0Z" transform="translate(0 -28.34)"/><polygon points="189.4 759.24 198.76 759.24 198.76 763.8 189.4 759.24"/><polygon class="cls-4" points="189.4 759.24 198.76 759.24 198.76 763.8 189.4 759.24"/><path d="M186.76,787.58h0Z" transform="translate(0 -28.34)"/><path class="cls-4" d="M186.76,787.58h0Z" transform="translate(0 -28.34)"/><path d="M186.76,787.58l2.64,4.32h-7Zm2.64,0h-2.64l2.64,4.32Z" transform="translate(0 -28.34)"/><path class="cls-4" d="M186.76,787.58l2.64,4.32h-7Zm2.64,0h-2.64l2.64,4.32Z" transform="translate(0 -28.34)"/><path d="M189.4,792.14h-7v-.24Zm0,0Z" transform="translate(0 -28.34)"/><path class="cls-4" d="M189.4,792.14h-7v-.24Zm0,0Z" transform="translate(0 -28.34)"/><polygon points="182.44 763.56 189.4 763.56 189.4 763.8 182.44 763.56"/><polygon class="cls-4" points="182.44 763.56 189.4 763.56 189.4 763.8 182.44 763.56"/><polygon points="182.44 763.56 182.44 763.8 181.96 763.8 182.44 763.56"/><polygon class="cls-4" points="182.44 763.56 182.44 763.8 181.96 763.8 182.44 763.56"/><path d="M196.84,787.58Z" transform="translate(0 -28.34)"/><path class="cls-4" d="M196.84,787.58Z" transform="translate(0 -28.34)"/><polygon points="198.76 747.72 198.76 756.6 189.4 756.6 198.76 747.72"/><polygon class="cls-4" points="198.76 747.72 198.76 756.6 189.4 756.6 198.76 747.72"/><path d="M198.76,787.58H189.4v-2.64Zm0,0Z" transform="translate(0 -28.34)"/><path class="cls-4" d="M198.76,787.58H189.4v-2.64Zm0,0Z" transform="translate(0 -28.34)"/><polygon points="189.4 756.6 198.76 756.6 198.76 759.24 189.4 756.6"/><polygon class="cls-4" points="189.4 756.6 198.76 756.6 198.76 759.24 189.4 756.6"/><path d="M189.4,787.58h0Zm0-2.64v2.64h-2.64Z" transform="translate(0 -28.34)"/><path class="cls-4" d="M189.4,787.58h0Zm0-2.64v2.64h-2.64Z" transform="translate(0 -28.34)"/><line class="cls-4" x1="182.44" y1="763.56" x2="182.44" y2="763.8"/><polyline class="cls-4" points="198.76 747.72 198.76 759.24 196.84 759.24"/><polyline class="cls-4" points="189.4 756.6 189.4 759.24 198.76 759.24"/><polyline class="cls-4" points="181.96 763.8 182.44 763.8 189.4 763.8 198.76 763.8"/><path d="M29.05,63.39h0Z" transform="translate(0 -28.34)"/><path class="cls-4" d="M29.05,63.39h0Z" transform="translate(0 -28.34)"/><path d="M49.46,69.16h0ZM29.05,63.39l20.41,5.77H32.41Zm20.41,0H29.05l20.41,5.77Z" transform="translate(0 -28.34)"/><path class="cls-4" d="M49.46,69.16h0ZM29.05,63.39l20.41,5.77H32.41Zm20.41,0H29.05l20.41,5.77Z" transform="translate(0 -28.34)"/><path d="M32.41,69.16h0Z" transform="translate(0 -28.34)"/><path class="cls-4" d="M32.41,69.16h0Z" transform="translate(0 -28.34)"/><path d="M92.42,63.39l35.77,5.77H92.42Zm35.77,0H92.42l35.77,5.77Z" transform="translate(0 -28.34)"/><path class="cls-4" d="M92.42,63.39l35.77,5.77H92.42Zm35.77,0H92.42l35.77,5.77Z" transform="translate(0 -28.34)"/><path d="M170.92,63.39h0Z" transform="translate(0 -28.34)"/><path class="cls-4" d="M170.92,63.39h0Z" transform="translate(0 -28.34)"/><path d="M170.92,63.39l31.44,5.77H170.92Zm35.28,0H170.92l31.44,5.77Z" transform="translate(0 -28.34)"/><path class="cls-4" d="M170.92,63.39l31.44,5.77H170.92Zm35.28,0H170.92l31.44,5.77Z" transform="translate(0 -28.34)"/><path d="M32.41,69.16h0Z" transform="translate(0 -28.34)"/><path class="cls-4" d="M32.41,69.16h0Z" transform="translate(0 -28.34)"/><path d="M32.41,69.16l15.37.48H32.65Zm15.37,0H32.41l15.37.48Z" transform="translate(0 -28.34)"/><path class="cls-4" d="M32.41,69.16l15.37.48H32.65Zm15.37,0H32.41l15.37.48Z" transform="translate(0 -28.34)"/><path d="M94.1,69.16h0Z" transform="translate(0 -28.34)"/><path class="cls-4" d="M94.1,69.16h0Z" transform="translate(0 -28.34)"/><path d="M126.27,69.64H94.1v-.48Zm0,0Z" transform="translate(0 -28.34)"/><path class="cls-4" d="M126.27,69.64H94.1v-.48Zm0,0Z" transform="translate(0 -28.34)"/><polygon points="94.1 40.81 126.27 40.81 126.27 41.29 94.1 40.81"/><polygon class="cls-4" points="94.1 40.81 126.27 40.81 126.27 41.29 94.1 40.81"/><path d="M172.6,69.16h0Z" transform="translate(0 -28.34)"/><path class="cls-4" d="M172.6,69.16h0Z" transform="translate(0 -28.34)"/><path d="M202.12,69.64H172.6v-.48Zm0,0Z" transform="translate(0 -28.34)"/><path class="cls-4" d="M202.12,69.64H172.6v-.48Zm0,0Z" transform="translate(0 -28.34)"/><polygon points="172.6 40.81 202.36 40.81 202.12 41.29 172.6 40.81"/><polygon class="cls-4" points="172.6 40.81 202.36 40.81 202.12 41.29 172.6 40.81"/><path d="M32.65,69.64h0Z" transform="translate(0 -28.34)"/><path class="cls-4" d="M32.65,69.64h0Z" transform="translate(0 -28.34)"/><path d="M32.65,69.64l15.13,1.68H33.61Zm15.13,0H32.65l15.13,1.68Z" transform="translate(0 -28.34)"/><path class="cls-4" d="M32.65,69.64l15.13,1.68H33.61Zm15.13,0H32.65l15.13,1.68Z" transform="translate(0 -28.34)"/><path d="M33.61,71.32,47.78,76.6h-11Zm14.17,0H33.61L47.78,76.6Z" transform="translate(0 -28.34)"/><path class="cls-4" d="M33.61,71.32,47.78,76.6h-11Zm14.17,0H33.61L47.78,76.6Z" transform="translate(0 -28.34)"/><path d="M94.1,69.64h0Z" transform="translate(0 -28.34)"/><path class="cls-4" d="M94.1,69.64h0Z" transform="translate(0 -28.34)"/><path d="M94.1,71.32h0Zm32.17,0h0ZM94.1,69.64l32.17,1.68H94.1Zm32.17,0H94.1l32.17,1.68Z" transform="translate(0 -28.34)"/><path class="cls-4" d="M94.1,71.32h0Zm32.17,0h0ZM94.1,69.64l32.17,1.68H94.1Zm32.17,0H94.1l32.17,1.68Z" transform="translate(0 -28.34)"/><path d="M126.27,76.6H94.1V71.32Zm0,0Z" transform="translate(0 -28.34)"/><path class="cls-4" d="M126.27,76.6H94.1V71.32Zm0,0Z" transform="translate(0 -28.34)"/><polygon points="94.1 42.97 126.27 42.97 126.27 48.25 94.1 42.97"/><polygon class="cls-4" points="94.1 42.97 126.27 42.97 126.27 48.25 94.1 42.97"/><path d="M172.6,69.64h0Z" transform="translate(0 -28.34)"/><path class="cls-4" d="M172.6,69.64h0Z" transform="translate(0 -28.34)"/><path d="M172.6,69.64l28.32,1.68H172.6Zm29.52,0H172.6l28.32,1.68Z" transform="translate(0 -28.34)"/><path class="cls-4" d="M172.6,69.64l28.32,1.68H172.6Zm29.52,0H172.6l28.32,1.68Z" transform="translate(0 -28.34)"/><path d="M197.32,76.6H172.6V71.32Zm0,0Z" transform="translate(0 -28.34)"/><path class="cls-4" d="M197.32,76.6H172.6V71.32Zm0,0Z" transform="translate(0 -28.34)"/><polygon points="172.6 42.97 200.92 42.97 197.32 48.25 172.6 42.97"/><polygon class="cls-4" points="172.6 42.97 200.92 42.97 197.32 48.25 172.6 42.97"/><path d="M43.46,76.6H36.74l6.72,11.52Zm0,0Z" transform="translate(0 -28.34)"/><path class="cls-4" d="M43.46,76.6H36.74l6.72,11.52Zm0,0Z" transform="translate(0 -28.34)"/><path d="M47.78,88.12H43.46V76.6Zm0,0Z" transform="translate(0 -28.34)"/><path class="cls-4" d="M47.78,88.12H43.46V76.6Zm0,0Z" transform="translate(0 -28.34)"/><polygon points="43.46 48.25 47.78 48.25 47.78 59.77 43.46 48.25"/><polygon class="cls-4" points="43.46 48.25 47.78 48.25 47.78 59.77 43.46 48.25"/><path d="M94.1,76.6h0Z" transform="translate(0 -28.34)"/><path class="cls-4" d="M94.1,76.6h0Z" transform="translate(0 -28.34)"/><path d="M94.1,76.6l32.17,11.52H94.1Zm32.17,0H94.1l32.17,11.52Z" transform="translate(0 -28.34)"/><path class="cls-4" d="M94.1,76.6l32.17,11.52H94.1Zm32.17,0H94.1l32.17,11.52Z" transform="translate(0 -28.34)"/><path d="M172.6,76.6h0Z" transform="translate(0 -28.34)"/><path class="cls-4" d="M172.6,76.6h0Z" transform="translate(0 -28.34)"/><path d="M172.6,76.6l16.8,11.52H172.6Zm16.8,0H172.6l16.8,11.52Z" transform="translate(0 -28.34)"/><path class="cls-4" d="M172.6,76.6l16.8,11.52H172.6Zm16.8,0H172.6l16.8,11.52Z" transform="translate(0 -28.34)"/><path d="M197.32,76.6H189.4V88.12Zm0,0Z" transform="translate(0 -28.34)"/><path class="cls-4" d="M197.32,76.6H189.4V88.12Zm0,0Z" transform="translate(0 -28.34)"/><line class="cls-4" x1="47.78" y1="40.81" x2="32.41" y2="40.81"/><line class="cls-4" x1="202.36" y1="40.81" x2="172.6" y2="40.81"/><line class="cls-4" x1="126.27" y1="40.81" x2="94.1" y2="40.81"/><line class="cls-4" x1="47.78" y1="41.29" x2="32.65" y2="41.29"/><line class="cls-4" x1="202.12" y1="41.29" x2="172.6" y2="41.29"/><line class="cls-4" x1="126.27" y1="41.29" x2="94.1" y2="41.29"/><line class="cls-4" x1="43.46" y1="59.78" x2="43.46" y2="48.25"/><line class="cls-4" x1="189.4" y1="59.78" x2="189.4" y2="48.25"/><polyline class="cls-4" points="47.78 42.97 47.78 48.25 47.78 59.77"/><polyline class="cls-4" points="49.46 35.05 49.46 40.81 47.78 40.81"/><polyline class="cls-4" points="47.78 40.81 47.78 41.29 47.78 42.97"/><polyline class="cls-4" points="94.1 42.97 94.1 48.25 94.1 59.77"/><polyline class="cls-4" points="92.42 35.05 92.42 40.81 94.1 40.81"/><polyline class="cls-4" points="94.1 40.81 94.1 41.29 94.1 42.97"/><polyline class="cls-4" points="126.27 42.97 126.27 48.25 126.27 59.77"/><polyline class="cls-4" points="128.19 35.05 128.19 40.81 126.27 40.81"/><polyline class="cls-4" points="126.27 40.81 126.27 41.29 126.27 42.97"/><polyline class="cls-4" points="172.6 42.97 172.6 48.25 172.6 59.77"/><polyline class="cls-4" points="170.92 35.05 170.92 40.81 172.6 40.81"/><polyline class="cls-4" points="172.6 40.81 172.6 41.29 172.6 42.97"/><line class="cls-4" x1="206.2" y1="35.05" x2="170.92" y2="35.05"/><line class="cls-4" x1="128.19" y1="35.05" x2="92.42" y2="35.05"/><line class="cls-4" x1="49.46" y1="35.05" x2="29.05" y2="35.05"/><line class="cls-4" x1="43.46" y1="59.78" x2="47.78" y2="59.78"/><line class="cls-4" x1="94.1" y1="59.78" x2="126.27" y2="59.78"/><line class="cls-4" x1="172.6" y1="59.78" x2="189.4" y2="59.78"/><line class="cls-4" x1="92.42" y1="35.05" x2="49.46" y2="35.05"/><line class="cls-4" x1="94.1" y1="59.78" x2="47.78" y2="59.78"/><path d="M88.58,69.16h0Z" transform="translate(0 -28.34)"/><path class="cls-4" d="M88.58,69.16h0Z" transform="translate(0 -28.34)"/><path d="M94.1,71.32H88.58V69.16Zm0,0Z" transform="translate(0 -28.34)"/><path class="cls-4" d="M94.1,71.32H88.58V69.16Zm0,0Z" transform="translate(0 -28.34)"/><polygon points="88.58 40.81 94.1 40.81 94.1 42.97 88.58 40.81"/><polygon class="cls-4" points="88.58 40.81 94.1 40.81 94.1 42.97 88.58 40.81"/><path d="M47.78,69.16h0Z" transform="translate(0 -28.34)"/><path class="cls-4" d="M47.78,69.16h0Z" transform="translate(0 -28.34)"/><path d="M53.3,71.32H47.78V69.16Zm0,0Z" transform="translate(0 -28.34)"/><path class="cls-4" d="M53.3,71.32H47.78V69.16Zm0,0Z" transform="translate(0 -28.34)"/><polygon points="47.78 40.81 53.3 40.81 53.3 42.97 47.78 40.81"/><polygon class="cls-4" points="47.78 40.81 53.3 40.81 53.3 42.97 47.78 40.81"/><polyline class="cls-4" points="94.1 42.97 88.58 42.97 88.58 40.81 94.1 40.81"/><polyline class="cls-4" points="47.78 40.81 53.3 40.81 53.3 42.97 47.78 42.97"/><line class="cls-4" x1="88.58" y1="42.97" x2="53.3" y2="42.97"/><line class="cls-4" x1="53.3" y1="40.81" x2="88.58" y2="40.81"/><polyline class="cls-4" points="92.42 40.81 94.1 40.81 94.1 41.29 94.1 42.97"/><polyline class="cls-4" points="49.46 40.81 47.78 40.81 47.78 41.29 47.78 42.97"/><line class="cls-4" x1="170.92" y1="35.05" x2="128.19" y2="35.05"/><line class="cls-4" x1="172.6" y1="59.78" x2="126.27" y2="59.78"/><path d="M167.08,69.16h0Z" transform="translate(0 -28.34)"/><path class="cls-4" d="M167.08,69.16h0Z" transform="translate(0 -28.34)"/><path d="M172.6,71.32h-5.52V69.16Zm0,0Z" transform="translate(0 -28.34)"/><path class="cls-4" d="M172.6,71.32h-5.52V69.16Zm0,0Z" transform="translate(0 -28.34)"/><polygon points="167.07 40.81 172.6 40.81 172.6 42.97 167.07 40.81"/><polygon class="cls-4" points="167.07 40.81 172.6 40.81 172.6 42.97 167.07 40.81"/><path d="M126.27,69.16h0Z" transform="translate(0 -28.34)"/><path class="cls-4" d="M126.27,69.16h0Z" transform="translate(0 -28.34)"/><path d="M131.79,71.32h-5.52V69.16Zm0,0Z" transform="translate(0 -28.34)"/><path class="cls-4" d="M131.79,71.32h-5.52V69.16Zm0,0Z" transform="translate(0 -28.34)"/><polygon points="126.27 40.81 131.79 40.81 131.79 42.97 126.27 40.81"/><polygon class="cls-4" points="126.27 40.81 131.79 40.81 131.79 42.97 126.27 40.81"/><polyline class="cls-4" points="172.6 42.97 167.07 42.97 167.07 40.81 172.6 40.81"/><polyline class="cls-4" points="126.27 40.81 131.79 40.81 131.79 42.97 126.27 42.97"/><line class="cls-4" x1="167.08" y1="42.97" x2="131.79" y2="42.97"/><line class="cls-4" x1="131.79" y1="40.81" x2="167.08" y2="40.81"/><polyline class="cls-4" points="170.92 40.81 172.6 40.81 172.6 41.29 172.6 42.97"/><polyline class="cls-4" points="128.19 40.81 126.27 40.81 126.27 41.29 126.27 42.97"/><path d="M206.2,63.39h0Z" transform="translate(0 -28.34)"/><path class="cls-4" d="M206.2,63.39h0Z" transform="translate(0 -28.34)"/><path d="M206.2,63.39l.48,3.37h-.48Zm.48,0h-.48l.48,3.37Z" transform="translate(0 -28.34)"/><path class="cls-4" d="M206.2,63.39l.48,3.37h-.48Zm.48,0h-.48l.48,3.37Z" transform="translate(0 -28.34)"/><path d="M206.68,69.16h-.48v-2.4Zm0,0Z" transform="translate(0 -28.34)"/><path class="cls-4" d="M206.68,69.16h-.48v-2.4Zm0,0Z" transform="translate(0 -28.34)"/><polygon points="206.2 38.41 206.68 38.41 206.68 40.81 206.2 38.41"/><polygon class="cls-4" points="206.2 38.41 206.68 38.41 206.68 40.81 206.2 38.41"/><polyline class="cls-4" points="206.68 35.05 206.68 38.41 206.68 40.81"/><polyline class="cls-4" points="206.68 35.05 206.2 35.05 206.2 40.81 206.68 40.81"/><line class="cls-4" x1="206.68" y1="38.41" x2="206.68" y2="40.81"/><path d="M108,749.42h-79l.48-.48Zm0,0Z" transform="translate(0 -28.34)"/><path class="cls-4" d="M108,749.42h-79l.48-.48Zm0,0Z" transform="translate(0 -28.34)"/><polygon points="29.53 720.59 108.03 720.59 108.03 721.07 29.53 720.59"/><polygon class="cls-4" points="29.53 720.59 108.03 720.59 108.03 721.07 29.53 720.59"/><path d="M182.44,742h7l-7,7Zm0,0Z" transform="translate(0 -28.34)"/><path class="cls-4" d="M182.44,742h7l-7,7Zm0,0Z" transform="translate(0 -28.34)"/><path d="M108,748.94H36v-7Zm0,0Z" transform="translate(0 -28.34)"/><path class="cls-4" d="M108,748.94H36v-7Zm0,0Z" transform="translate(0 -28.34)"/><polygon points="36.02 713.63 108.03 713.63 108.03 720.59 36.02 713.63"/><polygon class="cls-4" points="36.02 713.63 108.03 713.63 108.03 720.59 36.02 713.63"/><path d="M36,748.94H29.53l6-7Zm0,0Z" transform="translate(0 -28.34)"/><path class="cls-4" d="M36,748.94H29.53l6-7Zm0,0Z" transform="translate(0 -28.34)"/><polygon points="35.53 713.63 36.02 713.63 36.02 720.59 35.53 713.63"/><polygon class="cls-4" points="35.53 713.63 36.02 713.63 36.02 720.59 35.53 713.63"/><path d="M189.4,732.86h9.36L189.4,742Zm0,0Z" transform="translate(0 -28.34)"/><path class="cls-4" d="M189.4,732.86h9.36L189.4,742Zm0,0Z" transform="translate(0 -28.34)"/><path d="M43.46,732.86l64.57,7H43.46Zm64.57,0H43.46l64.57,7Z" transform="translate(0 -28.34)"/><path class="cls-4" d="M43.46,732.86l64.57,7H43.46Zm64.57,0H43.46l64.57,7Z" transform="translate(0 -28.34)"/><path d="M43.46,739.82,108,742H43.46Zm64.57,0H43.46L108,742Z" transform="translate(0 -28.34)"/><path class="cls-4" d="M43.46,739.82,108,742H43.46Zm64.57,0H43.46L108,742Z" transform="translate(0 -28.34)"/><path d="M189.4,732.86h0Z" transform="translate(0 -28.34)"/><path class="cls-4" d="M189.4,732.86h0Z" transform="translate(0 -28.34)"/><path d="M182.44,732.86l7,7h-7Zm7,0h-7l7,7Z" transform="translate(0 -28.34)"/><path class="cls-4" d="M182.44,732.86l7,7h-7Zm7,0h-7l7,7Z" transform="translate(0 -28.34)"/><path d="M189.4,742h-7v-2.16Zm0,0Z" transform="translate(0 -28.34)"/><path class="cls-4" d="M189.4,742h-7v-2.16Zm0,0Z" transform="translate(0 -28.34)"/><polygon points="182.44 711.47 189.4 711.47 189.4 713.63 182.44 711.47"/><polygon class="cls-4" points="182.44 711.47 189.4 711.47 189.4 713.63 182.44 711.47"/><path d="M43.46,732.86Z" transform="translate(0 -28.34)"/><path class="cls-4" d="M43.46,732.86Z" transform="translate(0 -28.34)"/><path d="M43.46,732.86v8.64H36Zm0,8.64v0Z" transform="translate(0 -28.34)"/><path class="cls-4" d="M43.46,732.86v8.64H36Zm0,8.64v0Z" transform="translate(0 -28.34)"/><path d="M43.46,742H36v-.48Zm0,0Z" transform="translate(0 -28.34)"/><path class="cls-4" d="M43.46,742H36v-.48Zm0,0Z" transform="translate(0 -28.34)"/><polygon points="36.02 713.15 43.46 713.15 43.46 713.63 36.02 713.15"/><polygon class="cls-4" points="36.02 713.15 43.46 713.15 43.46 713.63 36.02 713.15"/><polygon points="36.02 713.15 36.02 713.63 35.53 713.63 36.02 713.15"/><polygon class="cls-4" points="36.02 713.15 36.02 713.63 35.53 713.63 36.02 713.15"/><path d="M108,742l.48,7H108Zm.48,0H108l.48,7Z" transform="translate(0 -28.34)"/><path class="cls-4" d="M108,742l.48,7H108Zm.48,0H108l.48,7Z" transform="translate(0 -28.34)"/><path d="M108,748.94l.48.48H108Zm.48,0H108l.48.48Z" transform="translate(0 -28.34)"/><path class="cls-4" d="M108,748.94l.48.48H108Zm.48,0H108l.48.48Z" transform="translate(0 -28.34)"/><path d="M182,742l.48,7H182Zm.48,0H182l.48,7Z" transform="translate(0 -28.34)"/><path class="cls-4" d="M182,742l.48,7H182Zm.48,0H182l.48,7Z" transform="translate(0 -28.34)"/><path d="M182,748.94l.48.48H182Zm.48,0H182l.48.48Z" transform="translate(0 -28.34)"/><path class="cls-4" d="M182,748.94l.48.48H182Zm.48,0H182l.48.48Z" transform="translate(0 -28.34)"/><polyline class="cls-4" points="29.53 720.59 36.02 720.59 108.03 720.59"/><polyline class="cls-4" points="189.4 704.51 189.4 713.63 182.44 713.63"/><polyline class="cls-4" points="43.46 704.51 43.46 713.63 108.03 713.63"/><polyline class="cls-4" points="36.02 713.15 36.02 713.63 43.46 713.63"/><polyline class="cls-4" points="182.44 720.59 182.44 713.63 181.96 713.63 181.96 721.07 182.44 721.07"/><polyline class="cls-4" points="108.03 720.59 108.03 713.63 108.51 713.63 108.51 721.07 108.03 721.07"/><polyline class="cls-4" points="182.44 713.63 182.44 711.47 182.44 704.51"/><polyline class="cls-4" points="108.03 713.63 108.03 711.47 108.03 704.51"/><line class="cls-4" x1="29.05" y1="721.07" x2="108.03" y2="721.07"/><polyline class="cls-4" points="198.76 704.51 189.4 704.51 182.44 704.51"/><line class="cls-4" x1="108.03" y1="704.51" x2="43.46" y2="704.51"/><line class="cls-4" x1="108.51" y1="721.07" x2="181.96" y2="721.07"/><line class="cls-4" x1="108.03" y1="704.51" x2="182.44" y2="704.51"/><path d="M112.11,739.82h0Z" transform="translate(0 -28.34)"/><path class="cls-4" d="M112.11,739.82h0Z" transform="translate(0 -28.34)"/><path d="M112.11,742H108v-2.16Zm0,0Z" transform="translate(0 -28.34)"/><path class="cls-4" d="M112.11,742H108v-2.16Zm0,0Z" transform="translate(0 -28.34)"/><polygon points="108.03 711.47 112.11 711.47 112.11 713.63 108.03 711.47"/><polygon class="cls-4" points="108.03 711.47 112.11 711.47 112.11 713.63 108.03 711.47"/><path d="M145.23,739.82h0Z" transform="translate(0 -28.34)"/><path class="cls-4" d="M145.23,739.82h0Z" transform="translate(0 -28.34)"/><path d="M145.23,742h-2.16v-2.16Zm0,0Z" transform="translate(0 -28.34)"/><path class="cls-4" d="M145.23,742h-2.16v-2.16Zm0,0Z" transform="translate(0 -28.34)"/><polygon points="143.07 711.47 145.23 711.47 145.23 713.63 143.07 711.47"/><polygon class="cls-4" points="143.07 711.47 145.23 711.47 145.23 713.63 143.07 711.47"/><path d="M147.63,739.82h0Z" transform="translate(0 -28.34)"/><path class="cls-4" d="M147.63,739.82h0Z" transform="translate(0 -28.34)"/><path d="M147.63,742h-2.4v-2.16Zm0,0Z" transform="translate(0 -28.34)"/><path class="cls-4" d="M147.63,742h-2.4v-2.16Zm0,0Z" transform="translate(0 -28.34)"/><polygon points="145.23 711.47 147.63 711.47 147.63 713.63 145.23 711.47"/><polygon class="cls-4" points="145.23 711.47 147.63 711.47 147.63 713.63 145.23 711.47"/><path d="M182.44,739.82h0Z" transform="translate(0 -28.34)"/><path class="cls-4" d="M182.44,739.82h0Z" transform="translate(0 -28.34)"/><path d="M182.44,742H178.6v-2.16Zm0,0Z" transform="translate(0 -28.34)"/><path class="cls-4" d="M182.44,742H178.6v-2.16Zm0,0Z" transform="translate(0 -28.34)"/><polygon points="178.6 711.47 182.44 711.47 182.44 713.63 178.6 711.47"/><polygon class="cls-4" points="178.6 711.47 182.44 711.47 182.44 713.63 178.6 711.47"/><polyline class="cls-4" points="108.03 713.63 112.11 713.63 112.11 711.47 108.03 711.47"/><polyline class="cls-4" points="145.23 711.47 143.07 711.47 143.07 713.63 145.23 713.63"/><line class="cls-4" x1="112.11" y1="713.63" x2="143.07" y2="713.63"/><line class="cls-4" x1="143.07" y1="711.47" x2="112.11" y2="711.47"/><polyline class="cls-4" points="145.23 713.63 147.63 713.63 147.63 711.47 145.23 711.47"/><polyline class="cls-4" points="182.44 711.47 178.6 711.47 178.6 713.63 182.44 713.63"/><line class="cls-4" x1="147.63" y1="713.63" x2="178.6" y2="713.63"/><line class="cls-4" x1="178.6" y1="711.47" x2="147.63" y2="711.47"/><line class="cls-4" x1="108.03" y1="713.63" x2="108.03" y2="711.47"/><line class="cls-4" x1="182.44" y1="713.63" x2="182.44" y2="711.47"/><line class="cls-4" x1="199.72" y1="317.09" x2="199.72" y2="325.01"/><path d="M68.66,790.94h0Z" transform="translate(0 -28.34)"/><path class="cls-4" d="M68.66,790.94h0Z" transform="translate(0 -28.34)"/><path d="M68.66,792.14H29.05l1.44-1.2Zm0,0Z" transform="translate(0 -28.34)"/><path class="cls-4" d="M68.66,792.14H29.05l1.44-1.2Zm0,0Z" transform="translate(0 -28.34)"/><polygon points="30.5 762.6 68.66 762.6 68.66 763.8 30.5 762.6"/><polygon class="cls-4" points="30.5 762.6 68.66 762.6 68.66 763.8 30.5 762.6"/><path d="M177.88,790.94h0Z" transform="translate(0 -28.34)"/><path class="cls-4" d="M177.88,790.94h0Z" transform="translate(0 -28.34)"/><path d="M182,792.14h-4.08v-1.2Zm0,0Z" transform="translate(0 -28.34)"/><path class="cls-4" d="M182,792.14h-4.08v-1.2Zm0,0Z" transform="translate(0 -28.34)"/><polygon points="177.88 762.6 181.96 762.6 181.96 763.8 177.88 762.6"/><polygon class="cls-4" points="177.88 762.6 181.96 762.6 181.96 763.8 177.88 762.6"/><path d="M68.66,785.18h0Z" transform="translate(0 -28.34)"/><path class="cls-4" d="M68.66,785.18h0Z" transform="translate(0 -28.34)"/><path d="M36,785.18l32.64,1.44H34.58Zm32.64,0H36l32.64,1.44Z" transform="translate(0 -28.34)"/><path class="cls-4" d="M36,785.18l32.64,1.44H34.58Zm32.64,0H36l32.64,1.44Z" transform="translate(0 -28.34)"/><path d="M34.58,786.62,68.66,789H32.41Zm34.08,0H34.58L68.66,789Z" transform="translate(0 -28.34)"/><path class="cls-4" d="M34.58,786.62,68.66,789H32.41Zm34.08,0H34.58L68.66,789Z" transform="translate(0 -28.34)"/><path d="M68.66,790.94H30.49L32.41,789Zm0,0Z" transform="translate(0 -28.34)"/><path class="cls-4" d="M68.66,790.94H30.49L32.41,789Zm0,0Z" transform="translate(0 -28.34)"/><polygon points="32.41 760.68 68.66 760.68 68.66 762.6 32.41 760.68"/><polygon class="cls-4" points="32.41 760.68 68.66 760.68 68.66 762.6 32.41 760.68"/><path d="M177.88,785.18l4.08,1.44h-4.08Zm4.08,0h-4.08l4.08,1.44Z" transform="translate(0 -28.34)"/><path class="cls-4" d="M177.88,785.18l4.08,1.44h-4.08Zm4.08,0h-4.08l4.08,1.44Z" transform="translate(0 -28.34)"/><path d="M177.88,786.62,182,789h-4.08Zm4.08,0h-4.08L182,789Z" transform="translate(0 -28.34)"/><path class="cls-4" d="M177.88,786.62,182,789h-4.08Zm4.08,0h-4.08L182,789Z" transform="translate(0 -28.34)"/><path d="M182,790.94h-4.08V789Zm0,0Z" transform="translate(0 -28.34)"/><path class="cls-4" d="M182,790.94h-4.08V789Zm0,0Z" transform="translate(0 -28.34)"/><polygon points="177.88 760.68 181.96 760.68 181.96 762.6 177.88 760.68"/><polygon class="cls-4" points="177.88 760.68 181.96 760.68 181.96 762.6 177.88 760.68"/><path d="M68.66,789l1.44,1.92H68.66Zm1.44,0H68.66l1.44,1.92Z" transform="translate(0 -28.34)"/><path class="cls-4" d="M68.66,789l1.44,1.92H68.66Zm1.44,0H68.66l1.44,1.92Z" transform="translate(0 -28.34)"/><path d="M68.66,790.94l1.44,1.2H68.66Zm1.44,0H68.66l1.44,1.2Z" transform="translate(0 -28.34)"/><path class="cls-4" d="M68.66,790.94l1.44,1.2H68.66Zm1.44,0H68.66l1.44,1.2Z" transform="translate(0 -28.34)"/><path d="M176.44,789l1.44,1.92h-1.44Zm1.44,0h-1.44l1.44,1.92Z" transform="translate(0 -28.34)"/><path class="cls-4" d="M176.44,789l1.44,1.92h-1.44Zm1.44,0h-1.44l1.44,1.92Z" transform="translate(0 -28.34)"/><path d="M176.44,790.94l1.44,1.2h-1.44Zm1.44,0h-1.44l1.44,1.2Z" transform="translate(0 -28.34)"/><path class="cls-4" d="M176.44,790.94l1.44,1.2h-1.44Zm1.44,0h-1.44l1.44,1.2Z" transform="translate(0 -28.34)"/><line class="cls-4" x1="177.88" y1="762.6" x2="181.96" y2="762.6"/><line class="cls-4" x1="30.49" y1="762.6" x2="68.66" y2="762.6"/><polyline class="cls-4" points="177.88 762.6 177.88 760.68 176.44 760.68 176.44 763.8 177.88 763.8"/><polyline class="cls-4" points="68.66 762.6 68.66 760.68 70.1 760.68 70.1 763.8 68.66 763.8"/><polyline class="cls-4" points="177.88 760.68 177.88 758.28 177.88 756.84"/><polyline class="cls-4" points="68.66 760.68 68.66 758.28 68.66 756.84"/><line class="cls-4" x1="181.96" y1="756.84" x2="177.88" y2="756.84"/><line class="cls-4" x1="68.66" y1="756.84" x2="36.02" y2="756.84"/><line class="cls-4" x1="29.05" y1="763.8" x2="68.66" y2="763.8"/><polyline class="cls-4" points="177.88 763.8 181.96 763.8 181.96 756.84"/><line class="cls-4" x1="70.1" y1="763.8" x2="176.44" y2="763.8"/><line class="cls-4" x1="68.66" y1="756.84" x2="177.88" y2="756.84"/><path d="M72.26,786.62h0Z" transform="translate(0 -28.34)"/><path class="cls-4" d="M72.26,786.62h0Z" transform="translate(0 -28.34)"/><path d="M72.26,789h-3.6v-2.4Zm0,0Z" transform="translate(0 -28.34)"/><path class="cls-4" d="M72.26,789h-3.6v-2.4Zm0,0Z" transform="translate(0 -28.34)"/><polygon points="68.66 758.28 72.26 758.28 72.26 760.68 68.66 758.28"/><polygon class="cls-4" points="68.66 758.28 72.26 758.28 72.26 760.68 68.66 758.28"/><path d="M98.9,786.62h0Z" transform="translate(0 -28.34)"/><path class="cls-4" d="M98.9,786.62h0Z" transform="translate(0 -28.34)"/><path d="M98.9,789H96.5v-2.4Zm0,0Z" transform="translate(0 -28.34)"/><path class="cls-4" d="M98.9,789H96.5v-2.4Zm0,0Z" transform="translate(0 -28.34)"/><polygon points="96.5 758.28 98.91 758.28 98.91 760.68 96.5 758.28"/><polygon class="cls-4" points="96.5 758.28 98.91 758.28 98.91 760.68 96.5 758.28"/><path d="M101.07,786.62h0Z" transform="translate(0 -28.34)"/><path class="cls-4" d="M101.07,786.62h0Z" transform="translate(0 -28.34)"/><path d="M101.07,789H98.9v-2.4Zm0,0Z" transform="translate(0 -28.34)"/><path class="cls-4" d="M101.07,789H98.9v-2.4Zm0,0Z" transform="translate(0 -28.34)"/><polygon points="98.91 758.28 101.06 758.28 101.06 760.68 98.91 758.28"/><polygon class="cls-4" points="98.91 758.28 101.06 758.28 101.06 760.68 98.91 758.28"/><path d="M147.63,786.62h0Z" transform="translate(0 -28.34)"/><path class="cls-4" d="M147.63,786.62h0Z" transform="translate(0 -28.34)"/><path d="M147.63,789h-2.4v-2.4Zm0,0Z" transform="translate(0 -28.34)"/><path class="cls-4" d="M147.63,789h-2.4v-2.4Zm0,0Z" transform="translate(0 -28.34)"/><polygon points="145.23 758.28 147.63 758.28 147.63 760.68 145.23 758.28"/><polygon class="cls-4" points="145.23 758.28 147.63 758.28 147.63 760.68 145.23 758.28"/><path d="M150,786.62h0Z" transform="translate(0 -28.34)"/><path class="cls-4" d="M150,786.62h0Z" transform="translate(0 -28.34)"/><path d="M150,789h-2.4v-2.4Zm0,0Z" transform="translate(0 -28.34)"/><path class="cls-4" d="M150,789h-2.4v-2.4Zm0,0Z" transform="translate(0 -28.34)"/><polygon points="147.63 758.28 150.03 758.28 150.03 760.68 147.63 758.28"/><polygon class="cls-4" points="147.63 758.28 150.03 758.28 150.03 760.68 147.63 758.28"/><path d="M177.88,786.62h0Z" transform="translate(0 -28.34)"/><path class="cls-4" d="M177.88,786.62h0Z" transform="translate(0 -28.34)"/><path d="M177.88,789H174v-2.4Zm0,0Z" transform="translate(0 -28.34)"/><path class="cls-4" d="M177.88,789H174v-2.4Zm0,0Z" transform="translate(0 -28.34)"/><polygon points="174.04 758.28 177.88 758.28 177.88 760.68 174.04 758.28"/><polygon class="cls-4" points="174.04 758.28 177.88 758.28 177.88 760.68 174.04 758.28"/><polyline class="cls-4" points="68.66 758.28 72.26 758.28 72.26 760.68 68.66 760.68"/><polyline class="cls-4" points="98.91 760.68 96.5 760.68 96.5 758.28 98.91 758.28"/><line class="cls-4" x1="72.26" y1="758.28" x2="96.5" y2="758.28"/><line class="cls-4" x1="96.5" y1="760.68" x2="72.26" y2="760.68"/><polyline class="cls-4" points="98.91 758.28 101.06 758.28 101.06 760.68 98.91 760.68"/><polyline class="cls-4" points="147.63 760.68 145.23 760.68 145.23 758.28 147.63 758.28"/><line class="cls-4" x1="101.07" y1="758.28" x2="145.23" y2="758.28"/><line class="cls-4" x1="145.23" y1="760.68" x2="101.07" y2="760.68"/><polyline class="cls-4" points="147.63 758.28 150.03 758.28 150.03 760.68 147.63 760.68"/><polyline class="cls-4" points="177.88 760.68 174.04 760.68 174.04 758.28 177.88 758.28"/><line class="cls-4" x1="150.03" y1="758.28" x2="174.04" y2="758.28"/><line class="cls-4" x1="174.04" y1="760.68" x2="150.03" y2="760.68"/><line class="cls-4" x1="68.66" y1="760.68" x2="68.66" y2="758.28"/><line class="cls-4" x1="177.88" y1="760.68" x2="177.88" y2="758.28"/><path d="M29.05,790.94h1.44l-1.44,1.2Zm0-41.52v41.52h1.44Z" transform="translate(0 -28.34)"/><path class="cls-4" d="M29.05,790.94h1.44l-1.44,1.2Zm0-41.52v41.52h1.44Z" transform="translate(0 -28.34)"/><polygon points="29.05 721.07 30.5 721.07 30.5 762.6 29.05 721.07"/><polygon class="cls-4" points="29.05 721.07 30.5 721.07 30.5 762.6 29.05 721.07"/><path d="M30.49,785.18H36l-5.53,5.76Zm0-35.76v35.76H36Z" transform="translate(0 -28.34)"/><path class="cls-4" d="M30.49,785.18H36l-5.53,5.76Zm0-35.76v35.76H36Z" transform="translate(0 -28.34)"/><polygon points="30.5 721.07 36.02 721.07 36.02 756.84 30.5 721.07"/><polygon class="cls-4" points="30.5 721.07 36.02 721.07 36.02 756.84 30.5 721.07"/><line class="cls-4" x1="30.49" y1="721.07" x2="30.49" y2="762.6"/><line class="cls-4" x1="29.05" y1="721.07" x2="29.05" y2="763.8"/><polyline class="cls-4" points="36.02 756.84 36.02 721.07 29.05 721.07"/><path d="M198.76,559.79h0Z" transform="translate(0 -28.34)"/><path class="cls-4" d="M198.76,559.79h0Z" transform="translate(0 -28.34)"/><path d="M198.76,606.36H189.4V559.79Zm0,0Z" transform="translate(0 -28.34)"/><path class="cls-4" d="M198.76,606.36H189.4V559.79Zm0,0Z" transform="translate(0 -28.34)"/><polygon points="189.4 531.45 198.76 531.45 198.76 578.01 189.4 531.45"/><polygon class="cls-4" points="189.4 531.45 198.76 531.45 198.76 578.01 189.4 531.45"/><polyline class="cls-4" points="198.76 578.01 198.76 531.45 189.4 531.45 189.4 578.01 198.76 578.01"/><path d="M189.4,239.1h0Z" transform="translate(0 -28.34)"/><path class="cls-4" d="M189.4,239.1h0Z" transform="translate(0 -28.34)"/><path d="M198.76,285.67H189.4V239.1Zm0,0Z" transform="translate(0 -28.34)"/><path class="cls-4" d="M198.76,285.67H189.4V239.1Zm0,0Z" transform="translate(0 -28.34)"/><polygon points="189.4 210.76 198.76 210.76 198.76 257.32 189.4 210.76"/><polygon class="cls-4" points="189.4 210.76 198.76 210.76 198.76 257.32 189.4 210.76"/><polyline class="cls-4" points="189.4 210.76 189.4 257.32 198.76 257.32 198.76 210.76 189.4 210.76"/><path d="M189.4,413.37,236,422.73H189.4Zm46.57,0H189.4L236,422.73Z" transform="translate(0 -28.34)"/><path class="cls-4" d="M189.4,413.37,236,422.73H189.4Zm46.57,0H189.4L236,422.73Z" transform="translate(0 -28.34)"/><polyline class="cls-4" points="189.4 394.38 235.97 394.38 235.97 385.02 189.4 385.02 189.4 394.38"/><path d="M127.23,529.54h0Z" transform="translate(0 -28.34)"/><path class="cls-4" d="M127.23,529.54h0Z" transform="translate(0 -28.34)"/><path d="M127.23,533.39H43.46v-3.85Zm0,0Z" transform="translate(0 -28.34)"/><path class="cls-4" d="M127.23,533.39H43.46v-3.85Zm0,0Z" transform="translate(0 -28.34)"/><polygon points="43.46 501.2 127.23 501.2 127.23 505.04 43.46 501.2"/><polygon class="cls-4" points="43.46 501.2 127.23 501.2 127.23 505.04 43.46 501.2"/><path d="M189.4,529.54h0Z" transform="translate(0 -28.34)"/><path class="cls-4" d="M189.4,529.54h0Z" transform="translate(0 -28.34)"/><path d="M189.4,533.39H169v-3.85Zm0,0Z" transform="translate(0 -28.34)"/><path class="cls-4" d="M189.4,533.39H169v-3.85Zm0,0Z" transform="translate(0 -28.34)"/><polygon points="169 501.2 189.4 501.2 189.4 505.04 169 501.2"/><polygon class="cls-4" points="169 501.2 189.4 501.2 189.4 505.04 169 501.2"/><line class="cls-4" x1="127.23" y1="505.04" x2="127.23" y2="501.2"/><polyline class="cls-4" points="169 505.04 169 501.2 189.4 501.2"/><line class="cls-4" x1="127.23" y1="501.2" x2="124.83" y2="501.2"/><polyline class="cls-4" points="121.23 501.2 43.46 501.2 43.46 505.04 127.23 505.04"/><line class="cls-4" x1="169" y1="505.04" x2="189.4" y2="505.04"/><line class="cls-4" x1="127.23" y1="505.04" x2="129.39" y2="505.04"/><line class="cls-4" x1="127.23" y1="501.2" x2="129.39" y2="501.2"/><line class="cls-4" x1="169" y1="505.04" x2="166.6" y2="505.04"/><line class="cls-4" x1="169" y1="501.2" x2="166.6" y2="501.2"/><line class="cls-4" x1="129.39" y1="501.2" x2="129.39" y2="505.04"/><polyline class="cls-4" points="166.59 501.2 166.59 505.04 166.59 542.25"/><path class="cls-4" d="M129.39,533.27a37.08,37.08,0,0,0,37.08,37.08" transform="translate(0 -28.34)"/><path d="M124.83,493.78h0Z" transform="translate(0 -28.34)"/><path class="cls-4" d="M124.83,493.78h0Z" transform="translate(0 -28.34)"/><path d="M124.83,529.54h-3.6V493.78Zm0,0Z" transform="translate(0 -28.34)"/><path class="cls-4" d="M124.83,529.54h-3.6V493.78Zm0,0Z" transform="translate(0 -28.34)"/><polygon points="121.23 465.44 124.83 465.44 124.83 501.2 121.23 465.44"/><polygon class="cls-4" points="121.23 465.44 124.83 465.44 124.83 501.2 121.23 465.44"/><polygon points="121.23 337.26 124.83 341.1 121.23 341.1 121.23 337.26"/><polygon class="cls-4" points="121.23 337.26 124.83 341.1 121.23 341.1 121.23 337.26"/><path d="M124.83,456.81h-3.6V369.44Zm0,0Z" transform="translate(0 -28.34)"/><path class="cls-4" d="M124.83,456.81h-3.6V369.44Zm0,0Z" transform="translate(0 -28.34)"/><polygon points="121.23 341.1 124.83 341.1 124.83 428.47 121.23 341.1"/><polygon class="cls-4" points="121.23 341.1 124.83 341.1 124.83 428.47 121.23 341.1"/><line class="cls-4" x1="124.83" y1="465.44" x2="121.23" y2="465.44"/><line class="cls-4" x1="124.83" y1="428.47" x2="121.23" y2="428.47"/><line class="cls-4" x1="124.83" y1="501.2" x2="124.83" y2="465.44"/><line class="cls-4" x1="124.83" y1="428.47" x2="124.83" y2="341.1"/><line class="cls-4" x1="121.23" y1="337.26" x2="121.23" y2="365.1"/><line class="cls-4" x1="121.23" y1="368.94" x2="121.23" y2="387.42"/><line class="cls-4" x1="121.23" y1="391.26" x2="121.23" y2="428.47"/><line class="cls-4" x1="121.23" y1="465.44" x2="121.23" y2="501.2"/><line class="cls-4" x1="124.83" y1="465.44" x2="124.83" y2="463.28"/><line class="cls-4" x1="121.23" y1="465.44" x2="121.23" y2="463.28"/><line class="cls-4" x1="124.83" y1="428.47" x2="124.83" y2="430.63"/><line class="cls-4" x1="121.23" y1="428.47" x2="121.23" y2="430.63"/><line class="cls-4" x1="121.23" y1="463.28" x2="124.83" y2="463.28"/><polyline class="cls-4" points="121.23 430.63 124.83 430.63 141.15 458.95"/><path class="cls-4" d="M124.71,491.38A32.45,32.45,0,0,0,141,487" transform="translate(0 -28.34)"/><path d="M189.4,365.6h0Z" transform="translate(0 -28.34)"/><path class="cls-4" d="M189.4,365.6h0Z" transform="translate(0 -28.34)"/><path d="M189.4,369.44H168.52V365.6Zm0,0Z" transform="translate(0 -28.34)"/><path class="cls-4" d="M189.4,369.44H168.52V365.6Zm0,0Z" transform="translate(0 -28.34)"/><polygon points="168.51 337.26 189.4 337.26 189.4 341.1 168.51 337.26"/><polygon class="cls-4" points="168.51 337.26 189.4 337.26 189.4 341.1 168.51 337.26"/><path d="M126.75,365.6h0Z" transform="translate(0 -28.34)"/><path class="cls-4" d="M126.75,365.6h0Z" transform="translate(0 -28.34)"/><path d="M126.75,369.44h-1.92l-3.6-3.84Zm0,0Z" transform="translate(0 -28.34)"/><path class="cls-4" d="M126.75,369.44h-1.92l-3.6-3.84Zm0,0Z" transform="translate(0 -28.34)"/><polygon points="121.23 337.26 126.75 337.26 126.75 341.1 121.23 337.26"/><polygon class="cls-4" points="121.23 337.26 126.75 337.26 126.75 341.1 121.23 337.26"/><line class="cls-4" x1="168.52" y1="337.26" x2="168.52" y2="341.1"/><line class="cls-4" x1="126.75" y1="337.26" x2="126.75" y2="341.1"/><line class="cls-4" x1="189.4" y1="337.26" x2="168.52" y2="337.26"/><line class="cls-4" x1="126.75" y1="337.26" x2="121.23" y2="337.26"/><line class="cls-4" x1="124.83" y1="341.1" x2="126.75" y2="341.1"/><line class="cls-4" x1="168.52" y1="341.1" x2="189.4" y2="341.1"/><line class="cls-4" x1="168.52" y1="341.1" x2="166.11" y2="341.1"/><line class="cls-4" x1="168.52" y1="337.26" x2="166.11" y2="337.26"/><line class="cls-4" x1="126.75" y1="341.1" x2="128.91" y2="341.1"/><line class="cls-4" x1="126.75" y1="337.26" x2="128.91" y2="337.26"/><line class="cls-4" x1="166.11" y1="337.26" x2="166.11" y2="341.1"/><polyline class="cls-4" points="128.91 337.26 128.91 341.1 128.91 378.06"/><path class="cls-4" d="M128.79,406.41a37.09,37.09,0,0,0,37.08-37.09" transform="translate(0 -28.34)"/><path d="M116.19,415.77h0Zm0,0Z" transform="translate(0 -28.34)"/><path class="cls-4" d="M116.19,415.77h0Zm0,0Z" transform="translate(0 -28.34)"/><path d="M116.19,415.77h0Z" transform="translate(0 -28.34)"/><path class="cls-4" d="M116.19,415.77h0Z" transform="translate(0 -28.34)"/><path d="M43.46,415.77l77.77,3.84H43.46Zm77.77,0H43.46l77.77,3.84Z" transform="translate(0 -28.34)"/><path class="cls-4" d="M43.46,415.77l77.77,3.84H43.46Zm77.77,0H43.46l77.77,3.84Z" transform="translate(0 -28.34)"/><path d="M64.58,419.61h0Zm0,0Zm-21.12,0h0Z" transform="translate(0 -28.34)"/><path class="cls-4" d="M64.58,419.61h0Zm0,0Zm-21.12,0h0Z" transform="translate(0 -28.34)"/><line class="cls-4" x1="43.46" y1="391.26" x2="121.23" y2="391.26"/><line class="cls-4" x1="121.23" y1="387.42" x2="71.3" y2="387.42"/><polyline class="cls-4" points="67.7 387.42 43.46 387.42 43.46 391.26"/><path d="M71.3,397.28h0Z" transform="translate(0 -28.34)"/><path class="cls-4" d="M71.3,397.28h0Z" transform="translate(0 -28.34)"/><path d="M71.3,415.77H67.7V397.28Zm0,0Z" transform="translate(0 -28.34)"/><path class="cls-4" d="M71.3,415.77H67.7V397.28Zm0,0Z" transform="translate(0 -28.34)"/><polygon points="67.7 368.94 71.3 368.94 71.3 387.42 67.7 368.94"/><polygon class="cls-4" points="67.7 368.94 71.3 368.94 71.3 387.42 67.7 368.94"/><line class="cls-4" x1="67.7" y1="368.94" x2="67.7" y2="387.42"/><line class="cls-4" x1="71.3" y1="387.42" x2="71.3" y2="368.94"/><path d="M121.23,393.44h0Z" transform="translate(0 -28.34)"/><path class="cls-4" d="M121.23,393.44h0Z" transform="translate(0 -28.34)"/><path d="M121.23,397.28H43.46v-3.84Zm0,0Z" transform="translate(0 -28.34)"/><path class="cls-4" d="M121.23,397.28H43.46v-3.84Zm0,0Z" transform="translate(0 -28.34)"/><polygon points="43.46 365.1 121.23 365.1 121.23 368.94 43.46 365.1"/><polygon class="cls-4" points="43.46 365.1 121.23 365.1 121.23 368.94 43.46 365.1"/><polyline class="cls-4" points="121.23 365.1 43.46 365.1 43.46 368.94 67.7 368.94"/><line class="cls-4" x1="71.3" y1="368.94" x2="121.23" y2="368.94"/><path d="M72.26,303h0Z" transform="translate(0 -28.34)"/><path class="cls-4" d="M72.26,303h0Z" transform="translate(0 -28.34)"/><path d="M72.26,306.55H43.46V303Zm0,0Z" transform="translate(0 -28.34)"/><path class="cls-4" d="M72.26,306.55H43.46V303Zm0,0Z" transform="translate(0 -28.34)"/><polygon points="43.46 274.61 72.26 274.61 72.26 278.21 43.46 274.61"/><polygon class="cls-4" points="43.46 274.61 72.26 274.61 72.26 278.21 43.46 274.61"/><path d="M168.52,303l20.88,3.6H168.52Zm20.88,0H168.52l20.88,3.6Z" transform="translate(0 -28.34)"/><path class="cls-4" d="M168.52,303l20.88,3.6H168.52Zm20.88,0H168.52l20.88,3.6Z" transform="translate(0 -28.34)"/><line class="cls-4" x1="168.52" y1="274.61" x2="168.52" y2="278.21"/><line class="cls-4" x1="72.26" y1="274.61" x2="72.26" y2="278.21"/><line class="cls-4" x1="189.4" y1="274.61" x2="168.52" y2="274.61"/><polyline class="cls-4" points="72.26 274.61 43.46 274.61 43.46 278.21 72.26 278.21"/><line class="cls-4" x1="168.52" y1="278.21" x2="189.4" y2="278.21"/><polyline class="cls-4" points="72.26 278.21 72.26 274.61 94.1 264.05 115.71 274.61 137.55 264.05 159.15 274.61"/><line class="cls-4" x1="168.52" y1="274.61" x2="168.52" y2="278.21"/><path d="M278.69,504.1h0Z" transform="translate(0 -28.34)"/><path class="cls-4" d="M278.69,504.1h0Z" transform="translate(0 -28.34)"/><path d="M225.64,413.37Z" transform="translate(0 -28.34)"/><path class="cls-4" d="M225.64,413.37Z" transform="translate(0 -28.34)"/><path d="M264.29,413.37Z" transform="translate(0 -28.34)"/><path class="cls-4" d="M264.29,413.37Z" transform="translate(0 -28.34)"/><path d="M182,791.9h.48l-.48.24Zm0-42.48V791.9h.48Z" transform="translate(0 -28.34)"/><path class="cls-4" d="M182,791.9h.48l-.48.24Zm0-42.48V791.9h.48Z" transform="translate(0 -28.34)"/><path d="M182,749.42h.48V791.9Zm.48-.48-.48.48h.48Z" transform="translate(0 -28.34)"/><path class="cls-4" d="M182,749.42h.48V791.9Zm.48-.48-.48.48h.48Z" transform="translate(0 -28.34)"/><path d="M186.76,787.58h-4.32v4.32Zm0,0Z" transform="translate(0 -28.34)"/><path class="cls-4" d="M186.76,787.58h-4.32v4.32Zm0,0Z" transform="translate(0 -28.34)"/><path d="M189.4,748.94h0Z" transform="translate(0 -28.34)"/><path class="cls-4" d="M189.4,748.94h0Z" transform="translate(0 -28.34)"/><path d="M182.44,748.94l7,36h-7Zm7,0h-7l7,36Z" transform="translate(0 -28.34)"/><path class="cls-4" d="M182.44,748.94l7,36h-7Zm7,0h-7l7,36Z" transform="translate(0 -28.34)"/><path d="M186.76,787.58h-4.32v-2.64Zm0,0Z" transform="translate(0 -28.34)"/><path class="cls-4" d="M186.76,787.58h-4.32v-2.64Zm0,0Z" transform="translate(0 -28.34)"/><polygon points="182.44 756.6 189.4 756.6 186.76 759.24 182.44 756.6"/><polygon class="cls-4" points="182.44 756.6 189.4 756.6 186.76 759.24 182.44 756.6"/><path d="M189.4,748.94h0Zm0-7v7h-7Z" transform="translate(0 -28.34)"/><path class="cls-4" d="M189.4,748.94h0Zm0-7v7h-7Z" transform="translate(0 -28.34)"/><polygon points="198.76 704.51 198.76 713.63 189.4 713.63 198.76 704.51"/><polygon class="cls-4" points="198.76 704.51 198.76 713.63 189.4 713.63 198.76 704.51"/><path d="M189.4,776.06h9.36l-9.36,8.88Zm0-34.08v34.08h9.36Z" transform="translate(0 -28.34)"/><path class="cls-4" d="M189.4,776.06h9.36l-9.36,8.88Zm0-34.08v34.08h9.36Z" transform="translate(0 -28.34)"/><polygon points="189.4 713.63 198.76 713.63 198.76 747.72 189.4 713.63"/><polygon class="cls-4" points="189.4 713.63 198.76 713.63 198.76 747.72 189.4 713.63"/><polyline class="cls-4" points="182.44 720.59 182.44 759.24 182.44 763.56"/><line class="cls-4" x1="189.4" y1="713.63" x2="189.4" y2="756.6"/><line class="cls-4" x1="198.76" y1="747.72" x2="198.76" y2="704.51"/><line class="cls-4" x1="181.96" y1="721.07" x2="181.96" y2="763.8"/><polygon points="206.2 35.05 206.2 35.77 205.72 35.77 206.2 35.05"/><polygon class="cls-4" points="206.2 35.05 206.2 35.77 205.72 35.77 206.2 35.05"/><path d="M205.72,64.11l.48,5h-.48Zm.48,0h-.48l.48,5Z" transform="translate(0 -28.34)"/><path class="cls-4" d="M205.72,64.11l.48,5h-.48Zm.48,0h-.48l.48,5Z" transform="translate(0 -28.34)"/><path d="M205.72,69.16l.48.48h-.48Zm.48,0h-.48l.48.48Z" transform="translate(0 -28.34)"/><path class="cls-4" d="M205.72,69.16l.48.48h-.48Zm.48,0h-.48l.48.48Z" transform="translate(0 -28.34)"/><path d="M206.2,114.52h-.48V115Zm-.48-44.88.48,44.88h-.48Zm.48,0h-.48l.48,44.88Z" transform="translate(0 -28.34)"/><path class="cls-4" d="M206.2,114.52h-.48V115Zm-.48-44.88.48,44.88h-.48Zm.48,0h-.48l.48,44.88Z" transform="translate(0 -28.34)"/><path d="M205.72,64.11Z" transform="translate(0 -28.34)"/><path class="cls-4" d="M205.72,64.11Z" transform="translate(0 -28.34)"/><path d="M205.72,69.16h-3.36l3.36-5Zm0,0Zm0-5v0Z" transform="translate(0 -28.34)"/><path class="cls-4" d="M205.72,69.16h-3.36l3.36-5Zm0,0Zm0-5v0Z" transform="translate(0 -28.34)"/><path d="M202.36,69.16h0Z" transform="translate(0 -28.34)"/><path class="cls-4" d="M202.36,69.16h0Z" transform="translate(0 -28.34)"/><path d="M205.72,69.64h-3.6l.24-.48Zm0,0Z" transform="translate(0 -28.34)"/><path class="cls-4" d="M205.72,69.64h-3.6l.24-.48Zm0,0Z" transform="translate(0 -28.34)"/><polygon points="202.36 40.81 205.72 40.81 205.72 41.29 202.36 40.81"/><polygon class="cls-4" points="202.36 40.81 205.72 40.81 205.72 41.29 202.36 40.81"/><path d="M202.12,69.64h0Z" transform="translate(0 -28.34)"/><path class="cls-4" d="M202.12,69.64h0Z" transform="translate(0 -28.34)"/><path d="M202.12,69.64l3.6,4.8h-7Zm3.6,0h-3.6l3.6,4.8Z" transform="translate(0 -28.34)"/><path class="cls-4" d="M202.12,69.64l3.6,4.8h-7Zm3.6,0h-3.6l3.6,4.8Z" transform="translate(0 -28.34)"/><path d="M205.72,76.6h-7V74.44Zm0,0Z" transform="translate(0 -28.34)"/><path class="cls-4" d="M205.72,76.6h-7V74.44Zm0,0Z" transform="translate(0 -28.34)"/><polygon points="198.76 46.09 205.72 46.09 205.72 48.25 198.76 46.09"/><polygon class="cls-4" points="198.76 46.09 205.72 46.09 205.72 48.25 198.76 46.09"/><path d="M198.76,76.6h0Z" transform="translate(0 -28.34)"/><path class="cls-4" d="M198.76,76.6h0Z" transform="translate(0 -28.34)"/><path d="M205.72,115h-7V76.6Zm0,0Z" transform="translate(0 -28.34)"/><path class="cls-4" d="M205.72,115h-7V76.6Zm0,0Z" transform="translate(0 -28.34)"/><polygon points="198.76 48.25 205.72 48.25 205.72 86.66 198.76 48.25"/><polygon class="cls-4" points="198.76 48.25 205.72 48.25 205.72 86.66 198.76 48.25"/><path d="M205.72,115h-7v7Zm0,0Z" transform="translate(0 -28.34)"/><path class="cls-4" d="M205.72,115h-7v7Zm0,0Z" transform="translate(0 -28.34)"/><path d="M198.76,76.6h0Zm0-2.16V76.6h-1.44Z" transform="translate(0 -28.34)"/><path class="cls-4" d="M198.76,76.6h0Zm0-2.16V76.6h-1.44Z" transform="translate(0 -28.34)"/><path d="M197.32,76.6h0Z" transform="translate(0 -28.34)"/><path class="cls-4" d="M197.32,76.6h0Z" transform="translate(0 -28.34)"/><path d="M197.32,76.6l1.44,11.52H189.4Zm1.44,0h-1.44l1.44,11.52Z" transform="translate(0 -28.34)"/><path class="cls-4" d="M197.32,76.6l1.44,11.52H189.4Zm1.44,0h-1.44l1.44,11.52Z" transform="translate(0 -28.34)"/><path d="M189.4,122h9.36l-9.36,9.36Zm0-33.84V122h9.36Z" transform="translate(0 -28.34)"/><path class="cls-4" d="M189.4,122h9.36l-9.36,9.36Zm0-33.84V122h9.36Z" transform="translate(0 -28.34)"/><polygon points="189.4 59.77 198.76 59.77 198.76 93.62 189.4 59.77"/><polygon class="cls-4" points="189.4 59.77 198.76 59.77 198.76 93.62 189.4 59.77"/><polyline class="cls-4" points="202.36 40.81 205.72 40.81 206.2 40.81"/><polyline class="cls-4" points="202.12 41.29 205.72 41.29 205.72 48.25 205.72 86.66"/><line class="cls-4" x1="198.76" y1="93.62" x2="198.76" y2="48.25"/><line class="cls-4" x1="189.4" y1="59.78" x2="189.4" y2="102.98"/><polyline class="cls-4" points="206.2 35.05 206.2 40.81 206.2 41.29 206.2 86.18"/><polygon points="206.2 86.18 206.2 86.66 205.72 86.66 206.2 86.18"/><polygon class="cls-4" points="206.2 86.18 206.2 86.66 205.72 86.66 206.2 86.18"/><path d="M205.72,122h0Zm0-7v7h-7Z" transform="translate(0 -28.34)"/><path class="cls-4" d="M205.72,122h0Zm0-7v7h-7Z" transform="translate(0 -28.34)"/><path d="M198.76,131.32h0Zm0-9.36v9.36H189.4Z" transform="translate(0 -28.34)"/><path class="cls-4" d="M198.76,131.32h0Zm0-9.36v9.36H189.4Z" transform="translate(0 -28.34)"/><line class="cls-4" x1="198.76" y1="102.98" x2="198.76" y2="93.62"/><polyline class="cls-4" points="1.45 267.41 28.09 267.41 28.09 268.37 0.25 268.37 1.45 267.41"/><line class="cls-4" x1="0.97" y1="267.89" x2="28.09" y2="267.89"/><polyline class="cls-4" points="0.25 225.64 1.45 226.84 28.09 226.84 28.09 225.64 0.25 225.64"/><line class="cls-4" x1="0.97" y1="226.36" x2="28.09" y2="226.36"/><polyline class="cls-4" points="0.25 268.37 1.45 267.41 1.45 226.84 0.25 225.64 0.25 268.37"/><line class="cls-4" x1="0.97" y1="267.89" x2="0.97" y2="226.36"/><polyline class="cls-4" points="100.11 365.1 100.11 337.26 72.26 337.26 72.26 365.1 86.18 365.1 100.11 365.1"/><polyline class="cls-4" points="98.42 363.18 98.42 339.18 74.18 339.18 74.18 363.18 86.18 363.18 98.42 363.18"/><line class="cls-4" x1="121.23" y1="337.26" x2="72.26" y2="337.26"/><line class="cls-4" x1="168.52" y1="341.1" x2="168.52" y2="274.61"/><line class="cls-4" x1="72.26" y1="352.62" x2="72.26" y2="274.61"/><line class="cls-4" x1="170.92" y1="274.61" x2="189.4" y2="274.61"/><path class="cls-4" d="M282.29,429.69" transform="translate(0 -28.34)"/><path d="M198.76,494.74l83.53,9.36H198.76Zm83.53,0H198.76l83.53,9.36Z" transform="translate(0 -28.34)"/><path class="cls-4" d="M198.76,494.74l83.53,9.36H198.76Zm83.53,0H198.76l83.53,9.36Z" transform="translate(0 -28.34)"/><line class="cls-4" x1="282.29" y1="466.4" x2="282.29" y2="475.76"/><line class="cls-4" x1="198.76" y1="475.76" x2="282.29" y2="475.76"/><line class="cls-4" x1="282.29" y1="466.4" x2="282.29" y2="466.4"/><line class="cls-4" x1="273.17" y1="466.4" x2="198.76" y2="466.4"/><line class="cls-4" x1="282.29" y1="466.4" x2="282.29" y2="475.76"/><polyline points="282.29 385.02 235.97 385.02 282.29 385.02"/><polyline class="cls-4" points="282.29 385.02 235.97 385.02 282.29 385.02"/><polyline points="282.29 394.38 235.97 394.38 235.97 385.02 282.29 394.38"/><polyline points="282.29 394.38 235.97 394.38 282.29 394.38"/><polyline class="cls-4" points="282.29 394.38 235.97 394.38 235.97 385.02 282.29 394.38"/><polyline class="cls-4" points="282.29 394.38 235.97 394.38 282.29 394.38"/><polyline points="282.29 394.38 235.97 385.02 282.29 385.02"/><polyline class="cls-4" points="282.29 394.38 235.97 385.02 282.29 385.02"/><line class="cls-4" x1="235.97" y1="394.39" x2="273.17" y2="394.39"/><line class="cls-4" x1="282.29" y1="394.39" x2="282.29" y2="394.39"/><polyline class="cls-4" points="282.29 385.02 235.97 385.02 235.97 394.38"/><path d="M189.4,131.32h0Z" transform="translate(0 -28.34)"/><path class="cls-4" d="M189.4,131.32h0Z" transform="translate(0 -28.34)"/><path d="M198.76,239.1H189.4V131.32Zm0,0Z" transform="translate(0 -28.34)"/><path class="cls-4" d="M198.76,239.1H189.4V131.32Zm0,0Z" transform="translate(0 -28.34)"/><polygon points="189.4 102.98 198.76 102.98 198.76 210.76 189.4 102.98"/><polygon class="cls-4" points="189.4 102.98 198.76 102.98 198.76 210.76 189.4 102.98"/><polyline class="cls-4" points="189.4 102.98 189.4 210.76 198.76 210.76 198.76 102.98 189.4 102.98"/><path d="M198.76,606.36h0Z" transform="translate(0 -28.34)"/><path class="cls-4" d="M198.76,606.36h0Z" transform="translate(0 -28.34)"/><path d="M198.76,732.86H189.4V606.36Zm0,0Z" transform="translate(0 -28.34)"/><path class="cls-4" d="M198.76,732.86H189.4V606.36Zm0,0Z" transform="translate(0 -28.34)"/><polygon points="189.4 578.01 198.76 578.01 198.76 704.51 189.4 578.01"/><polygon class="cls-4" points="189.4 578.01 198.76 578.01 198.76 704.51 189.4 578.01"/><polyline class="cls-4" points="189.4 578.01 189.4 704.51 198.76 704.51 198.76 578.01 189.4 578.01"/><path d="M189.4,285.67h0Z" transform="translate(0 -28.34)"/><path class="cls-4" d="M189.4,285.67h0Z" transform="translate(0 -28.34)"/><path d="M189.4,285.67l9.36,127.7H189.4Zm9.36,0H189.4l9.36,127.7Z" transform="translate(0 -28.34)"/><path class="cls-4" d="M189.4,285.67l9.36,127.7H189.4Zm9.36,0H189.4l9.36,127.7Z" transform="translate(0 -28.34)"/><line class="cls-4" x1="189.4" y1="385.02" x2="198.76" y2="385.02"/><line class="cls-4" x1="189.4" y1="257.32" x2="189.4" y2="274.61"/><line class="cls-4" x1="189.4" y1="278.21" x2="189.4" y2="337.26"/><line class="cls-4" x1="189.4" y1="341.1" x2="189.4" y2="385.02"/><line class="cls-4" x1="189.4" y1="394.39" x2="198.76" y2="394.39"/><polyline class="cls-4" points="198.76 385.02 198.76 257.32 189.4 257.32"/><path d="M198.76,494.74h0Z" transform="translate(0 -28.34)"/><path class="cls-4" d="M198.76,494.74h0Z" transform="translate(0 -28.34)"/><path d="M198.76,559.79H189.4v-65Zm0,0Z" transform="translate(0 -28.34)"/><path class="cls-4" d="M198.76,559.79H189.4v-65Zm0,0Z" transform="translate(0 -28.34)"/><polygon points="189.4 466.4 198.76 466.4 198.76 531.45 189.4 466.4"/><polygon class="cls-4" points="189.4 466.4 198.76 466.4 198.76 531.45 189.4 466.4"/><line class="cls-4" x1="189.4" y1="466.4" x2="189.4" y2="501.2"/><polyline class="cls-4" points="189.4 505.04 189.4 531.45 198.76 531.45 198.76 475.76"/><line class="cls-4" x1="198.76" y1="466.4" x2="189.4" y2="466.4"/><path d="M282.29,422.73h0Z" transform="translate(0 -28.34)"/><path class="cls-4" d="M282.29,422.73h0Z" transform="translate(0 -28.34)"/><path d="M282.29,432.09h-9.12v-9.36Zm0,0Z" transform="translate(0 -28.34)"/><path class="cls-4" d="M282.29,432.09h-9.12v-9.36Zm0,0Z" transform="translate(0 -28.34)"/><polygon points="273.17 394.38 282.29 394.38 282.29 403.75 273.17 394.38"/><polygon class="cls-4" points="273.17 394.38 282.29 394.38 282.29 403.75 273.17 394.38"/><path d="M282.29,478.42h0Z" transform="translate(0 -28.34)"/><path class="cls-4" d="M282.29,478.42h0Z" transform="translate(0 -28.34)"/><path d="M282.29,494.74h-9.12V478.42Zm0,0Z" transform="translate(0 -28.34)"/><path class="cls-4" d="M282.29,494.74h-9.12V478.42Zm0,0Z" transform="translate(0 -28.34)"/><polygon points="273.17 450.07 282.29 450.07 282.29 466.4 273.17 450.07"/><polygon class="cls-4" points="273.17 450.07 282.29 450.07 282.29 466.4 273.17 450.07"/><line class="cls-4" x1="273.17" y1="403.75" x2="282.29" y2="403.75"/><line class="cls-4" x1="273.17" y1="450.07" x2="282.29" y2="450.07"/><line class="cls-4" x1="273.17" y1="394.39" x2="273.17" y2="403.75"/><line class="cls-4" x1="273.17" y1="450.07" x2="273.17" y2="466.4"/><line class="cls-4" x1="282.29" y1="466.4" x2="282.29" y2="450.07"/><line class="cls-4" x1="282.29" y1="403.75" x2="282.29" y2="385.02"/><path class="cls-4" d="M230.2,433.89a42.86,42.86,0,0,0,42.85,42.85" transform="translate(0 -28.34)"/><path d="M282.29,476.74h0Z" transform="translate(0 -28.34)"/><path class="cls-4" d="M282.29,476.74h0Z" transform="translate(0 -28.34)"/><path d="M282.29,478.42h-9.12v-1.68Zm0,0Z" transform="translate(0 -28.34)"/><path class="cls-4" d="M282.29,478.42h-9.12v-1.68Zm0,0Z" transform="translate(0 -28.34)"/><polygon points="273.17 448.39 282.29 448.39 282.29 450.07 273.17 448.39"/><polygon class="cls-4" points="273.17 448.39 282.29 448.39 282.29 450.07 273.17 448.39"/><path d="M282.29,432.09h0Z" transform="translate(0 -28.34)"/><path class="cls-4" d="M282.29,432.09h0Z" transform="translate(0 -28.34)"/><path d="M282.29,434h-9.12v-1.92Zm0,0Z" transform="translate(0 -28.34)"/><path class="cls-4" d="M282.29,434h-9.12v-1.92Zm0,0Z" transform="translate(0 -28.34)"/><polygon points="273.17 403.75 282.29 403.75 282.29 405.67 273.17 403.75"/><polygon class="cls-4" points="273.17 403.75 282.29 403.75 282.29 405.67 273.17 403.75"/><polyline class="cls-4" points="282.29 450.07 282.29 448.39 273.17 448.39 273.17 450.07 282.29 450.07"/><polyline class="cls-4" points="273.17 403.75 273.17 405.67 282.29 405.67 282.29 403.75 273.17 403.75"/><line class="cls-4" x1="273.17" y1="405.67" x2="230.44" y2="405.67"/><line class="cls-4" x1="273.17" y1="450.07" x2="282.29" y2="450.07"/><line class="cls-4" x1="273.17" y1="403.75" x2="282.29" y2="403.75"/><text class="cls-5" transform="translate(90.98 694.67)">13.47</text><text class="cls-5" transform="translate(165.63 439.75)">7.59</text><text class="cls-5" transform="translate(99.39 316.38)">4.99</text><text class="cls-5" transform="translate(95.78 85.94)">14.51</text><text class="cls-5" transform="translate(101.07 747.48)">2.42</text><text class="cls-5" transform="translate(70.1 448.88)">3.96</text><text class="cls-6" transform="translate(101.33 162.39)">1К</text><text class="cls-6" transform="translate(90.8 187.72)">46.94</text><text class="cls-6" transform="translate(88.56 137.43)">№164</text><polyline class="cls-7" points="80.07 194.13 80.07 119.61 142.22 119.61 142.22 194.13"/><line class="cls-7" x1="80.07" y1="144.5" x2="142.22" y2="144.5"/><line class="cls-7" x1="80.07" y1="194.13" x2="142.22" y2="194.13"/><line class="cls-7" x1="80.07" y1="169.39" x2="142.22" y2="169.39"/></svg>