<svg id="_31" data-name="31" xmlns="http://www.w3.org/2000/svg" viewBox="0 0 559.57 1177.84"><defs><style>.cls-1{font-size:12px;}.cls-1,.cls-3{fill:#808184;}.cls-1,.cls-6,.cls-7{font-family:PTSans-Regular, PT Sans;}.cls-2,.cls-5{fill:none;stroke-linecap:round;stroke-linejoin:round;stroke-width:0.75px;}.cls-2{stroke:#808184;}.cls-4{letter-spacing:-0.01em;}.cls-5{stroke:#000;}.cls-6,.cls-7{isolation:isolate;}.cls-6{font-size:24px;}.cls-7{font-size:22px;}.cls-8{letter-spacing:-0.05em;}.cls-9{letter-spacing:-0.11em;}</style></defs><title>1floor_31flat</title><text class="cls-1" transform="translate(271.17 1174.9)">двор</text><line class="cls-2" x1="263" y1="1165.6" x2="263" y2="1176.04"/><path class="cls-3" d="M259.4,1199.26a.38.38,0,0,1,.52.12l3.08,4.84,3.08-4.84a.37.37,0,0,1,.52-.12.38.38,0,0,1,.11.52l-3.4,5.34a.38.38,0,0,1-.31.17.4.4,0,0,1-.32-.17l-3.4-5.34a.36.36,0,0,1-.06-.2A.4.4,0,0,1,259.4,1199.26Z" transform="translate(0 -28.35)"/><text class="cls-1" transform="translate(251.67 10.2)"><tspan class="cls-4">у</tspan><tspan x="5.42" y="0">лица | парк</tspan></text><line class="cls-2" x1="243.5" y1="1.8" x2="243.5" y2="12.24"/><path class="cls-3" d="M239.9,35.28a.38.38,0,0,0,.52-.11l3.08-4.84,3.08,4.84a.38.38,0,1,0,.63-.41l-3.4-5.33a.37.37,0,0,0-.31-.18.38.38,0,0,0-.32.18l-3.4,5.33a.41.41,0,0,0-.06.2A.38.38,0,0,0,239.9,35.28Z" transform="translate(0 -28.35)"/><polygon class="cls-5" points="0.38 521.07 0.38 959.65 371.09 959.65 371.09 676.37 196.66 676.37 196.66 562.52 111.49 562.52 111.49 521.07 0.38 521.07"/><rect class="cls-5" x="14.04" y="40.59" width="529.22" height="136.63"/><rect class="cls-5" x="9.03" y="978.78" width="370.71" height="158.49"/><line class="cls-5" x1="545.53" y1="522.89" x2="545.53" y2="572.07"/><rect class="cls-5" x="273.17" y="676.37" width="97.92" height="87.45"/><line class="cls-5" x1="272.72" y1="676.37" x2="371.09" y2="676.37"/><line class="cls-5" x1="272.72" y1="763.36" x2="371.09" y2="763.36"/><line class="cls-5" x1="272.72" y1="676.37" x2="272.72" y2="763.36"/><line class="cls-5" x1="371.09" y1="676.37" x2="371.09" y2="763.36"/><line class="cls-5" x1="272.72" y1="676.37" x2="272.72" y2="763.36"/><line class="cls-5" x1="289.13" y1="676.37" x2="289.13" y2="763.36"/><line class="cls-5" x1="305.5" y1="676.37" x2="305.5" y2="763.36"/><line class="cls-5" x1="321.92" y1="676.37" x2="321.92" y2="763.36"/><line class="cls-5" x1="338.31" y1="676.37" x2="338.31" y2="763.36"/><line class="cls-5" x1="354.7" y1="676.37" x2="354.7" y2="763.36"/><line class="cls-5" x1="371.09" y1="676.37" x2="371.09" y2="763.36"/><line class="cls-5" x1="272.72" y1="720.09" x2="371.09" y2="720.09"/><line class="cls-5" x1="371.09" y1="720.09" x2="360.17" y2="709.15"/><line class="cls-5" x1="371.09" y1="720.09" x2="360.17" y2="730.56"/><rect class="cls-5" x="436.68" y="464.13" width="97.92" height="32.8"/><rect class="cls-5" x="11.3" y="689.57" width="97.93" height="32.78"/><rect class="cls-5" x="10.86" y="567.97" width="32.78" height="121.6"/><polygon class="cls-5" points="106.04 526.52 29.08 526.52 29.08 558.41 11.3 558.41 11.3 567.97 106.04 567.97 106.04 526.52"/><line class="cls-5" x1="56.85" y1="428.15" x2="56.85" y2="439.09"/><line class="cls-5" x1="56.85" y1="439.09" x2="56.85" y2="440.91"/><line class="cls-5" x1="56.85" y1="440.91" x2="57.31" y2="442.73"/><line class="cls-5" x1="57.31" y1="442.73" x2="57.76" y2="444.11"/><line class="cls-5" x1="57.76" y1="444.11" x2="58.67" y2="445.46"/><line class="cls-5" x1="58.67" y1="445.46" x2="60.04" y2="446.38"/><line class="cls-5" x1="60.04" y1="446.38" x2="61.41" y2="447.29"/><line class="cls-5" x1="61.41" y1="447.29" x2="64.6" y2="448.66"/><line class="cls-5" x1="64.6" y1="448.66" x2="68.23" y2="449.56"/><line class="cls-5" x1="68.23" y1="449.56" x2="71.87" y2="450.01"/><line class="cls-5" x1="71.87" y1="450.01" x2="75.06" y2="449.56"/><line class="cls-5" x1="75.06" y1="449.56" x2="78.71" y2="448.66"/><line class="cls-5" x1="78.71" y1="448.66" x2="81.9" y2="447.29"/><line class="cls-5" x1="81.9" y1="447.29" x2="83.27" y2="446.38"/><line class="cls-5" x1="83.27" y1="446.38" x2="84.63" y2="445.46"/><line class="cls-5" x1="84.63" y1="445.46" x2="85.55" y2="444.11"/><line class="cls-5" x1="85.55" y1="444.11" x2="86" y2="442.73"/><line class="cls-5" x1="86" y1="442.73" x2="86.46" y2="440.91"/><line class="cls-5" x1="86.46" y1="440.91" x2="86.46" y2="439.09"/><line class="cls-5" x1="86.46" y1="439.09" x2="86.46" y2="428.15"/><line class="cls-5" x1="86.46" y1="428.15" x2="56.85" y2="428.15"/><line class="cls-5" x1="77.8" y1="432.71" x2="65.51" y2="432.71"/><line class="cls-5" x1="83.27" y1="437.27" x2="83.27" y2="439.09"/><line class="cls-5" x1="60.04" y1="437.27" x2="60.04" y2="439.09"/><path class="cls-5" d="M62.77,472.91a16.9,16.9,0,0,0,17.31,0" transform="translate(0 -28.35)"/><path class="cls-5" d="M80.53,472.91a6.16,6.16,0,0,0,3.19-5" transform="translate(0 -28.35)"/><path class="cls-5" d="M83.27,465.62c0-2.28-2.74-4.56-5.93-4.56" transform="translate(0 -28.35)"/><path class="cls-5" d="M60,467.44a5.62,5.62,0,0,0,3.19,5" transform="translate(0 -28.35)"/><path class="cls-5" d="M66,461.06c-3.19,0-5.92,1.83-5.92,4.56" transform="translate(0 -28.35)"/><line class="cls-5" x1="70.5" y1="430.89" x2="70.5" y2="433.17"/><line class="cls-5" x1="70.5" y1="433.17" x2="70.5" y2="433.62"/><line class="cls-5" x1="70.5" y1="433.62" x2="70.5" y2="433.62"/><line class="cls-5" x1="70.5" y1="433.62" x2="70.98" y2="436.35"/><path class="cls-5" d="M71,464.71a.45.45,0,1,0,.89,0" transform="translate(0 -28.35)"/><line class="cls-5" x1="72.33" y1="436.35" x2="72.33" y2="436.35"/><line class="cls-5" x1="72.33" y1="436.35" x2="72.78" y2="433.62"/><line class="cls-5" x1="72.78" y1="433.62" x2="72.78" y2="433.17"/><line class="cls-5" x1="72.78" y1="433.17" x2="72.78" y2="433.17"/><line class="cls-5" x1="72.78" y1="433.17" x2="73.26" y2="430.89"/><path class="cls-5" d="M73.26,459.24a1.38,1.38,0,0,0-2.76,0" transform="translate(0 -28.35)"/><line class="cls-5" x1="70.5" y1="430.89" x2="70.5" y2="430.89"/><line class="cls-5" x1="72.33" y1="432.25" x2="72.33" y2="433.17"/><line class="cls-5" x1="70.98" y1="433.17" x2="70.98" y2="432.25"/><line class="cls-5" x1="70.98" y1="432.25" x2="72.33" y2="432.25"/><path class="cls-5" d="M71,461.52a.9.9,0,1,0,1.8,0" transform="translate(0 -28.35)"/><path class="cls-5" d="M70.5,462c.46.46.92.46,1.83.46a.44.44,0,0,0,.45-.46" transform="translate(0 -28.35)"/><line class="cls-5" x1="278.19" y1="670.9" x2="371.09" y2="670.9"/><line class="cls-5" x1="371.09" y1="670.9" x2="371.09" y2="632.64"/><line class="cls-5" x1="371.09" y1="632.64" x2="278.19" y2="632.64"/><line class="cls-5" x1="278.19" y1="632.64" x2="278.19" y2="670.9"/><line class="cls-5" x1="289.13" y1="635.83" x2="287.74" y2="635.83"/><line class="cls-5" x1="287.74" y1="635.83" x2="286.39" y2="636.29"/><line class="cls-5" x1="286.39" y1="636.29" x2="285.03" y2="636.75"/><line class="cls-5" x1="285.03" y1="636.75" x2="284.11" y2="637.66"/><line class="cls-5" x1="284.11" y1="637.66" x2="283.19" y2="638.57"/><line class="cls-5" x1="283.19" y1="638.57" x2="282.29" y2="639.48"/><line class="cls-5" x1="282.29" y1="639.48" x2="281.83" y2="640.85"/><line class="cls-5" x1="281.83" y1="640.85" x2="281.38" y2="642.22"/><line class="cls-5" x1="281.38" y1="642.22" x2="281.38" y2="643.13"/><line class="cls-5" x1="281.38" y1="643.13" x2="281.38" y2="659.97"/><line class="cls-5" x1="281.38" y1="659.97" x2="281.38" y2="661.35"/><line class="cls-5" x1="281.38" y1="661.35" x2="281.83" y2="662.71"/><line class="cls-5" x1="281.83" y1="662.71" x2="282.29" y2="664.08"/><line class="cls-5" x1="282.29" y1="664.08" x2="283.19" y2="664.98"/><line class="cls-5" x1="283.19" y1="664.98" x2="284.11" y2="665.88"/><line class="cls-5" x1="284.11" y1="665.88" x2="285.03" y2="666.8"/><line class="cls-5" x1="285.03" y1="666.8" x2="286.39" y2="667.25"/><line class="cls-5" x1="286.39" y1="667.25" x2="287.74" y2="667.71"/><line class="cls-5" x1="287.74" y1="667.71" x2="289.13" y2="667.71"/><line class="cls-5" x1="289.13" y1="667.71" x2="351.51" y2="667.71"/><line class="cls-5" x1="351.51" y1="667.71" x2="354.7" y2="667.71"/><line class="cls-5" x1="354.7" y1="667.71" x2="357.43" y2="666.8"/><line class="cls-5" x1="357.43" y1="666.8" x2="359.71" y2="665.43"/><line class="cls-5" x1="359.71" y1="665.43" x2="361.98" y2="664.08"/><line class="cls-5" x1="361.98" y1="664.08" x2="364.26" y2="662.25"/><line class="cls-5" x1="364.26" y1="662.25" x2="365.64" y2="659.52"/><line class="cls-5" x1="365.64" y1="659.52" x2="367.01" y2="657.24"/><line class="cls-5" x1="367.01" y1="657.24" x2="367.46" y2="654.51"/><line class="cls-5" x1="367.46" y1="654.51" x2="367.9" y2="651.77"/><line class="cls-5" x1="367.9" y1="651.77" x2="367.46" y2="649.03"/><line class="cls-5" x1="367.46" y1="649.03" x2="367.01" y2="646.3"/><line class="cls-5" x1="367.01" y1="646.3" x2="365.64" y2="643.57"/><line class="cls-5" x1="365.64" y1="643.57" x2="364.26" y2="641.3"/><line class="cls-5" x1="364.26" y1="641.3" x2="361.98" y2="639.48"/><line class="cls-5" x1="361.98" y1="639.48" x2="359.71" y2="637.66"/><line class="cls-5" x1="359.71" y1="637.66" x2="357.43" y2="636.75"/><line class="cls-5" x1="357.43" y1="636.75" x2="354.7" y2="635.83"/><line class="cls-5" x1="354.7" y1="635.83" x2="351.51" y2="635.83"/><line class="cls-5" x1="351.51" y1="635.83" x2="289.13" y2="635.83"/><line class="cls-5" x1="280.47" y1="653.14" x2="282.75" y2="652.68"/><line class="cls-5" x1="282.75" y1="652.68" x2="283.19" y2="652.68"/><line class="cls-5" x1="283.19" y1="652.68" x2="283.19" y2="652.68"/><line class="cls-5" x1="283.19" y1="652.68" x2="286.39" y2="652.23"/><path class="cls-5" d="M286.39,680.58a.44.44,0,0,0,.46-.45.45.45,0,0,0-.46-.46" transform="translate(0 -28.35)"/><line class="cls-5" x1="286.39" y1="651.31" x2="286.39" y2="651.31"/><line class="cls-5" x1="286.39" y1="651.31" x2="283.19" y2="650.86"/><line class="cls-5" x1="283.19" y1="650.86" x2="282.75" y2="650.86"/><line class="cls-5" x1="282.75" y1="650.4" x2="282.75" y2="650.4"/><line class="cls-5" x1="282.75" y1="650.4" x2="280.47" y2="650.4"/><path class="cls-5" d="M280.47,678.76a1.37,1.37,0,1,0,0,2.73" transform="translate(0 -28.35)"/><line class="cls-5" x1="280.47" y1="653.14" x2="280.47" y2="653.14"/><line class="cls-5" x1="281.83" y1="650.86" x2="282.75" y2="650.86"/><line class="cls-5" x1="282.75" y1="652.68" x2="281.83" y2="652.68"/><line class="cls-5" x1="281.83" y1="652.68" x2="281.83" y2="650.86"/><path class="cls-5" d="M282.75,681a1,1,0,0,0,.89-.9,1,1,0,0,0-.89-.92" transform="translate(0 -28.35)"/><path class="cls-5" d="M283.19,681c.45-.45.91-.9.45-1.36a.45.45,0,0,0-.45-.46" transform="translate(0 -28.35)"/><line class="cls-5" x1="371.09" y1="613.97" x2="359.71" y2="613.97"/><line class="cls-5" x1="359.71" y1="613.97" x2="358.35" y2="613.97"/><line class="cls-5" x1="358.35" y1="613.97" x2="356.52" y2="613.52"/><line class="cls-5" x1="356.52" y1="613.52" x2="355.15" y2="612.6"/><line class="cls-5" x1="355.15" y1="612.6" x2="353.79" y2="611.69"/><line class="cls-5" x1="353.79" y1="611.69" x2="352.87" y2="610.32"/><line class="cls-5" x1="352.87" y1="610.32" x2="351.97" y2="608.96"/><line class="cls-5" x1="351.97" y1="608.96" x2="350.14" y2="605.78"/><line class="cls-5" x1="350.14" y1="605.78" x2="349.69" y2="602.59"/><line class="cls-5" x1="349.69" y1="602.59" x2="349.23" y2="598.95"/><line class="cls-5" x1="349.23" y1="598.95" x2="349.69" y2="595.3"/><line class="cls-5" x1="349.69" y1="595.3" x2="350.14" y2="592.11"/><line class="cls-5" x1="350.14" y1="592.11" x2="351.97" y2="588.46"/><line class="cls-5" x1="351.97" y1="588.46" x2="352.87" y2="587.11"/><line class="cls-5" x1="352.87" y1="587.11" x2="353.79" y2="586.18"/><line class="cls-5" x1="353.79" y1="586.18" x2="355.15" y2="585.29"/><line class="cls-5" x1="355.15" y1="585.29" x2="356.52" y2="584.38"/><line class="cls-5" x1="356.52" y1="584.38" x2="358.35" y2="583.92"/><line class="cls-5" x1="358.35" y1="583.92" x2="359.71" y2="583.92"/><line class="cls-5" x1="359.71" y1="583.92" x2="371.09" y2="583.92"/><line class="cls-5" x1="371.09" y1="583.92" x2="371.09" y2="613.97"/><line class="cls-5" x1="366.53" y1="593.02" x2="366.53" y2="604.87"/><line class="cls-5" x1="361.98" y1="587.11" x2="359.71" y2="587.11"/><line class="cls-5" x1="361.98" y1="610.78" x2="359.71" y2="610.78"/><path class="cls-5" d="M354.7,635.94a16.83,16.83,0,0,1,0-17.3" transform="translate(0 -28.35)"/><path class="cls-5" d="M354.7,618.64a6.16,6.16,0,0,1,5-3.17" transform="translate(0 -28.35)"/><path class="cls-5" d="M362,615.47c2.28,0,4.55,2.71,4.55,5.91" transform="translate(0 -28.35)"/><path class="cls-5" d="M359.71,639.14a5.59,5.59,0,0,1-5-3.2" transform="translate(0 -28.35)"/><path class="cls-5" d="M366.53,633.23c0,3.17-1.82,5.91-4.55,5.91" transform="translate(0 -28.35)"/><line class="cls-5" x1="368.36" y1="600.31" x2="366.09" y2="599.86"/><line class="cls-5" x1="366.09" y1="599.86" x2="365.64" y2="599.86"/><line class="cls-5" x1="365.64" y1="599.86" x2="365.64" y2="599.86"/><line class="cls-5" x1="365.64" y1="599.86" x2="362.91" y2="599.4"/><path class="cls-5" d="M362.91,627.76a.45.45,0,0,1-.46-.46c0-.46,0-.46.46-.46" transform="translate(0 -28.35)"/><line class="cls-5" x1="362.91" y1="598.49" x2="362.91" y2="598.49"/><line class="cls-5" x1="362.91" y1="598.49" x2="365.64" y2="598.03"/><line class="cls-5" x1="365.64" y1="598.03" x2="366.09" y2="598.03"/><line class="cls-5" x1="366.09" y1="597.58" x2="366.09" y2="597.58"/><line class="cls-5" x1="366.09" y1="597.58" x2="368.36" y2="597.58"/><path class="cls-5" d="M368.36,625.93a1.37,1.37,0,0,1,0,2.74" transform="translate(0 -28.35)"/><line class="cls-5" x1="368.36" y1="600.31" x2="368.36" y2="600.31"/><line class="cls-5" x1="367.01" y1="598.03" x2="366.09" y2="598.03"/><line class="cls-5" x1="366.09" y1="599.86" x2="367.01" y2="599.86"/><line class="cls-5" x1="367.01" y1="599.86" x2="367.01" y2="598.03"/><path class="cls-5" d="M366.09,628.21a.91.91,0,1,1,0-1.82" transform="translate(0 -28.35)"/><path class="cls-5" d="M365.64,628.21h0c-.46-.91-.46-1.37,0-1.82" transform="translate(0 -28.35)"/><line class="cls-5" x1="11.3" y1="521.07" x2="11.3" y2="428.15"/><line class="cls-5" x1="11.3" y1="428.15" x2="49.12" y2="428.15"/><line class="cls-5" x1="49.12" y1="428.15" x2="49.12" y2="521.07"/><line class="cls-5" x1="49.12" y1="521.07" x2="11.3" y2="521.07"/><line class="cls-5" x1="46.38" y1="510.13" x2="46.38" y2="511.5"/><line class="cls-5" x1="46.38" y1="511.5" x2="45.92" y2="512.87"/><line class="cls-5" x1="45.92" y1="512.87" x2="45.47" y2="513.78"/><line class="cls-5" x1="45.47" y1="513.78" x2="44.56" y2="515.14"/><line class="cls-5" x1="44.56" y1="515.14" x2="43.64" y2="516.05"/><line class="cls-5" x1="43.64" y1="516.05" x2="42.28" y2="516.97"/><line class="cls-5" x1="42.28" y1="516.97" x2="41.37" y2="517.42"/><line class="cls-5" x1="41.37" y1="517.42" x2="40" y2="517.88"/><line class="cls-5" x1="40" y1="517.88" x2="38.63" y2="517.88"/><line class="cls-5" x1="38.63" y1="517.88" x2="21.78" y2="517.88"/><line class="cls-5" x1="21.78" y1="517.88" x2="20.42" y2="517.88"/><line class="cls-5" x1="20.42" y1="517.88" x2="19.05" y2="517.42"/><line class="cls-5" x1="19.05" y1="517.42" x2="18.14" y2="516.97"/><line class="cls-5" x1="18.14" y1="516.97" x2="16.77" y2="516.05"/><line class="cls-5" x1="16.77" y1="516.05" x2="15.86" y2="515.14"/><line class="cls-5" x1="15.86" y1="515.14" x2="15.42" y2="513.78"/><line class="cls-5" x1="15.42" y1="513.78" x2="14.49" y2="512.87"/><line class="cls-5" x1="14.49" y1="512.87" x2="14.49" y2="511.5"/><line class="cls-5" x1="14.49" y1="511.5" x2="14.04" y2="510.13"/><line class="cls-5" x1="14.04" y1="510.13" x2="14.04" y2="447.29"/><line class="cls-5" x1="14.04" y1="447.29" x2="14.49" y2="444.56"/><line class="cls-5" x1="14.49" y1="444.56" x2="15.42" y2="441.83"/><line class="cls-5" x1="15.42" y1="441.83" x2="16.32" y2="439.55"/><line class="cls-5" x1="16.32" y1="439.55" x2="18.14" y2="437.27"/><line class="cls-5" x1="18.14" y1="437.27" x2="19.96" y2="434.99"/><line class="cls-5" x1="19.96" y1="434.99" x2="22.24" y2="433.62"/><line class="cls-5" x1="22.24" y1="433.62" x2="24.97" y2="432.25"/><line class="cls-5" x1="24.97" y1="432.25" x2="27.25" y2="431.34"/><line class="cls-5" x1="27.25" y1="431.34" x2="30.44" y2="431.34"/><line class="cls-5" x1="30.44" y1="431.34" x2="33.16" y2="431.34"/><line class="cls-5" x1="33.16" y1="431.34" x2="35.9" y2="432.25"/><line class="cls-5" x1="35.9" y1="432.25" x2="38.18" y2="433.62"/><line class="cls-5" x1="38.18" y1="433.62" x2="40.46" y2="434.99"/><line class="cls-5" x1="40.46" y1="434.99" x2="42.73" y2="437.27"/><line class="cls-5" x1="42.73" y1="437.27" x2="44.1" y2="439.55"/><line class="cls-5" x1="44.1" y1="439.55" x2="45.47" y2="441.83"/><line class="cls-5" x1="45.47" y1="441.83" x2="45.92" y2="444.56"/><line class="cls-5" x1="45.92" y1="444.56" x2="46.38" y2="447.29"/><line class="cls-5" x1="46.38" y1="447.29" x2="46.38" y2="510.13"/><line class="cls-5" x1="29.08" y1="518.79" x2="29.08" y2="516.51"/><line class="cls-5" x1="29.08" y1="516.51" x2="29.08" y2="516.05"/><line class="cls-5" x1="29.08" y1="516.05" x2="29.08" y2="516.05"/><line class="cls-5" x1="29.08" y1="516.05" x2="29.53" y2="512.87"/><path class="cls-5" d="M29.53,541.22a.45.45,0,0,1,.46-.46c.45,0,.45,0,.45.46" transform="translate(0 -28.35)"/><line class="cls-5" x1="30.9" y1="512.87" x2="30.9" y2="512.87"/><line class="cls-5" x1="30.9" y1="512.87" x2="31.34" y2="516.05"/><line class="cls-5" x1="31.34" y1="516.05" x2="31.34" y2="516.51"/><line class="cls-5" x1="31.34" y1="516.51" x2="31.34" y2="516.51"/><line class="cls-5" x1="31.34" y1="516.51" x2="31.79" y2="518.79"/><path class="cls-5" d="M31.79,547.14a1.2,1.2,0,0,1-1.35,1.37,1.22,1.22,0,0,1-1.38-1.37" transform="translate(0 -28.35)"/><line class="cls-5" x1="29.08" y1="518.79" x2="29.08" y2="518.79"/><line class="cls-5" x1="30.9" y1="517.42" x2="30.9" y2="516.51"/><line class="cls-5" x1="29.53" y1="516.51" x2="29.53" y2="517.42"/><line class="cls-5" x1="29.53" y1="517.42" x2="30.9" y2="517.42"/><path class="cls-5" d="M29.53,544.87a1,1,0,0,1,.91-.92,1,1,0,0,1,.9.92" transform="translate(0 -28.35)"/><path class="cls-5" d="M29.08,544.41h0c.91-.46,1.36-.46,1.82,0" transform="translate(0 -28.35)"/><line class="cls-5" x1="40" y1="592.57" x2="40" y2="622.63"/><line class="cls-5" x1="40" y1="622.63" x2="12.67" y2="622.63"/><line class="cls-5" x1="12.67" y1="622.63" x2="12.67" y2="592.57"/><line class="cls-5" x1="12.67" y1="592.57" x2="40" y2="592.57"/><line class="cls-5" x1="43.64" y1="591.2" x2="43.64" y2="623.98"/><line class="cls-5" x1="11.3" y1="591.2" x2="11.3" y2="623.98"/><line class="cls-5" x1="43.64" y1="591.2" x2="11.3" y2="591.2"/><line class="cls-5" x1="43.64" y1="623.98" x2="11.3" y2="623.98"/><line class="cls-5" x1="37.26" y1="595.3" x2="37.26" y2="619.9"/><line class="cls-5" x1="37.26" y1="619.9" x2="18.14" y2="619.9"/><line class="cls-5" x1="18.14" y1="619.9" x2="18.14" y2="595.3"/><line class="cls-5" x1="18.14" y1="595.3" x2="37.26" y2="595.3"/><path class="cls-5" d="M25.43,635.49c.45,0,.45,0,.45.45s0,.46-.45.46" transform="translate(0 -28.35)"/><line class="cls-5" x1="25.43" y1="608.04" x2="14.49" y2="608.04"/><path class="cls-5" d="M14.49,636.4c-.45,0-.45,0-.45-.46s0-.43.45-.43" transform="translate(0 -28.35)"/><line class="cls-5" x1="14.49" y1="607.14" x2="25.43" y2="607.14"/><line class="cls-5" x1="17.68" y1="606.69" x2="17.68" y2="607.14"/><line class="cls-5" x1="17.68" y1="607.14" x2="14.49" y2="607.14"/><path class="cls-5" d="M14.49,636.4c-.45,0-.45,0-.45-.46s0-.43.45-.43" transform="translate(0 -28.35)"/><line class="cls-5" x1="14.49" y1="608.04" x2="17.68" y2="608.04"/><line class="cls-5" x1="17.68" y1="608.04" x2="17.68" y2="608.5"/><line class="cls-5" x1="17.68" y1="608.5" x2="14.04" y2="608.5"/><line class="cls-5" x1="14.04" y1="608.5" x2="14.04" y2="606.69"/><line class="cls-5" x1="14.04" y1="606.69" x2="17.68" y2="606.69"/><line class="cls-5" x1="19.5" y1="606.69" x2="19.5" y2="607.14"/><line class="cls-5" x1="19.5" y1="607.14" x2="17.68" y2="607.14"/><line class="cls-5" x1="17.68" y1="607.14" x2="17.68" y2="606.69"/><line class="cls-5" x1="17.68" y1="606.69" x2="19.5" y2="606.69"/><line class="cls-5" x1="19.5" y1="608.5" x2="17.68" y2="608.5"/><line class="cls-5" x1="17.68" y1="608.5" x2="17.68" y2="608.04"/><line class="cls-5" x1="17.68" y1="608.04" x2="19.5" y2="608.04"/><line class="cls-5" x1="19.5" y1="608.04" x2="19.5" y2="608.5"/><line class="cls-5" x1="40.91" y1="657.24" x2="40.91" y2="688.66"/><line class="cls-5" x1="40.91" y1="688.66" x2="14.04" y2="688.66"/><line class="cls-5" x1="14.04" y1="688.66" x2="14.04" y2="657.24"/><line class="cls-5" x1="14.04" y1="657.24" x2="40.91" y2="657.24"/><path class="cls-5" d="M20,696.53a4.1,4.1,0,1,1,4.1-4.1,4.09,4.09,0,0,1-4.1,4.1" transform="translate(0 -28.35)"/><path class="cls-5" d="M32.71,700.16a5.93,5.93,0,1,1,5.92-5.92,6,6,0,0,1-5.92,5.92" transform="translate(0 -28.35)"/><path class="cls-5" d="M21.33,714.28a5,5,0,1,1,5-5,5,5,0,0,1-5,5" transform="translate(0 -28.35)"/><path class="cls-5" d="M33.62,714.28a4.1,4.1,0,1,1,4.1-4.1,4.09,4.09,0,0,1-4.1,4.1" transform="translate(0 -28.35)"/><line class="cls-5" x1="43.64" y1="656.79" x2="43.64" y2="689.57"/><line class="cls-5" x1="11.3" y1="656.79" x2="11.3" y2="689.57"/><line class="cls-5" x1="43.64" y1="656.79" x2="11.3" y2="656.79"/><line class="cls-5" x1="43.64" y1="689.57" x2="11.3" y2="689.57"/><path class="cls-5" d="M547.8,263h0" transform="translate(0 -28.35)"/><line class="cls-5" x1="0.38" y1="196.34" x2="0.38" y2="526.52"/><line class="cls-5" x1="11.3" y1="526.52" x2="11.3" y2="196.34"/><line class="cls-5" x1="382.03" y1="774.28" x2="545.53" y2="774.28"/><line class="cls-5" x1="371.09" y1="763.36" x2="545.53" y2="763.36"/><line class="cls-5" x1="196.67" y1="562.52" x2="202.13" y2="562.52"/><line class="cls-5" x1="196.67" y1="513.32" x2="202.13" y2="513.32"/><line class="cls-5" x1="196.67" y1="196.34" x2="196.67" y2="513.32"/><line class="cls-5" x1="202.13" y1="513.32" x2="202.13" y2="507.85"/><line class="cls-5" x1="202.13" y1="502.4" x2="202.13" y2="485.55"/><line class="cls-5" x1="202.13" y1="458.22" x2="202.13" y2="196.34"/><line class="cls-5" x1="202.59" y1="513.32" x2="202.59" y2="515.6"/><line class="cls-5" x1="202.59" y1="515.6" x2="196.67" y2="515.6"/><line class="cls-5" x1="196.67" y1="515.6" x2="196.67" y2="513.32"/><line class="cls-5" x1="196.67" y1="513.32" x2="202.59" y2="513.32"/><line class="cls-5" x1="196.67" y1="562.52" x2="196.67" y2="560.24"/><line class="cls-5" x1="196.67" y1="560.24" x2="202.59" y2="560.24"/><line class="cls-5" x1="202.59" y1="560.24" x2="202.59" y2="562.52"/><line class="cls-5" x1="202.59" y1="562.52" x2="196.67" y2="562.52"/><line class="cls-5" x1="196.67" y1="560.24" x2="157.95" y2="537.92"/><path class="cls-5" d="M158,566.27A45.34,45.34,0,0,1,196.67,544" transform="translate(0 -28.35)"/><line class="cls-5" x1="196.67" y1="513.32" x2="202.13" y2="513.32"/><line class="cls-5" x1="196.67" y1="562.52" x2="202.13" y2="562.52"/><line class="cls-5" x1="371.09" y1="196.34" x2="371.09" y2="464.13"/><line class="cls-5" x1="376.56" y1="441.83" x2="376.56" y2="196.34"/><line class="cls-5" x1="27.71" y1="557.04" x2="11.3" y2="557.04"/><line class="cls-5" x1="11.3" y1="557.04" x2="11.3" y2="558.41"/><line class="cls-5" x1="11.3" y1="558.41" x2="27.71" y2="558.41"/><line class="cls-5" x1="27.71" y1="558.41" x2="27.71" y2="557.04"/><line class="cls-5" x1="106.04" y1="496.47" x2="111.49" y2="496.47"/><line class="cls-5" x1="106.04" y1="458.22" x2="111.49" y2="458.22"/><line class="cls-5" x1="111.49" y1="562.52" x2="111.49" y2="496.47"/><line class="cls-5" x1="111.49" y1="458.22" x2="111.49" y2="422.7"/><line class="cls-5" x1="106.04" y1="428.15" x2="106.04" y2="458.22"/><line class="cls-5" x1="106.04" y1="496.47" x2="106.04" y2="521.07"/><line class="cls-5" x1="106.04" y1="526.52" x2="106.04" y2="567.97"/><line class="cls-5" x1="112.41" y1="458.22" x2="112.41" y2="460.5"/><line class="cls-5" x1="112.41" y1="460.5" x2="106.04" y2="460.5"/><line class="cls-5" x1="106.04" y1="460.5" x2="106.04" y2="458.22"/><line class="cls-5" x1="106.04" y1="458.22" x2="112.41" y2="458.22"/><line class="cls-5" x1="106.04" y1="496.47" x2="106.04" y2="494.19"/><line class="cls-5" x1="106.04" y1="494.19" x2="112.41" y2="494.19"/><line class="cls-5" x1="112.41" y1="494.19" x2="112.41" y2="496.47"/><line class="cls-5" x1="112.41" y1="496.47" x2="106.04" y2="496.47"/><line class="cls-5" x1="106.04" y1="494.19" x2="76.89" y2="477.34"/><path class="cls-5" d="M76.89,505.7A33.64,33.64,0,0,1,106,488.85" transform="translate(0 -28.35)"/><line class="cls-5" x1="106.04" y1="458.22" x2="111.49" y2="458.22"/><line class="cls-5" x1="106.04" y1="496.47" x2="111.49" y2="496.47"/><line class="cls-5" x1="371.09" y1="763.36" x2="371.09" y2="899.99"/><line class="cls-5" x1="382.03" y1="899.99" x2="382.03" y2="774.28"/><line class="cls-5" x1="203.05" y1="599.86" x2="220.81" y2="599.86"/><line class="cls-5" x1="219.44" y1="598.49" x2="203.05" y2="598.49"/><line class="cls-5" x1="203.05" y1="598.49" x2="203.05" y2="599.86"/><line class="cls-5" x1="534.6" y1="234.6" x2="534.6" y2="571.16"/><line class="cls-5" x1="545.53" y1="571.16" x2="545.53" y2="322.05"/><line class="cls-5" x1="545.53" y1="332.09" x2="545.53" y2="234.6"/><line class="cls-5" x1="430.75" y1="676.37" x2="436.22" y2="676.37"/><line class="cls-5" x1="430.75" y1="763.36" x2="436.22" y2="763.36"/><line class="cls-5" x1="430.75" y1="763.36" x2="430.75" y2="763.36"/><line class="cls-5" x1="430.75" y1="763.36" x2="436.22" y2="763.36"/><line class="cls-5" x1="436.22" y1="676.37" x2="436.22" y2="670.9"/><line class="cls-5" x1="437.13" y1="763.36" x2="437.13" y2="761.54"/><line class="cls-5" x1="437.13" y1="761.54" x2="430.75" y2="761.54"/><line class="cls-5" x1="430.75" y1="761.54" x2="430.75" y2="763.36"/><line class="cls-5" x1="430.75" y1="763.36" x2="437.13" y2="763.36"/><line class="cls-5" x1="430.75" y1="676.37" x2="430.75" y2="678.65"/><line class="cls-5" x1="430.75" y1="678.65" x2="437.13" y2="678.65"/><line class="cls-5" x1="437.13" y1="678.65" x2="437.13" y2="676.37"/><line class="cls-5" x1="437.13" y1="676.37" x2="430.75" y2="676.37"/><line class="cls-5" x1="430.75" y1="678.65" x2="395.23" y2="699.14"/><line class="cls-5" x1="430.75" y1="761.54" x2="395.23" y2="740.59"/><path class="cls-5" d="M395.23,727.5a41.15,41.15,0,0,0,36,20.49" transform="translate(0 -28.35)"/><path class="cls-5" d="M430.75,748.45a41.11,41.11,0,0,0-36,20.95" transform="translate(0 -28.35)"/><line class="cls-5" x1="430.75" y1="763.36" x2="436.22" y2="763.36"/><line class="cls-5" x1="430.75" y1="676.37" x2="436.22" y2="676.37"/><line class="cls-5" x1="382.03" y1="464.13" x2="382.03" y2="469.61"/><line class="cls-5" x1="430.75" y1="464.13" x2="430.75" y2="469.61"/><line class="cls-5" x1="371.09" y1="464.13" x2="371.09" y2="469.61"/><line class="cls-5" x1="321.92" y1="464.13" x2="321.92" y2="469.61"/><line class="cls-5" x1="436.22" y1="464.13" x2="430.75" y2="464.13"/><line class="cls-5" x1="382.03" y1="464.13" x2="382.03" y2="464.13"/><line class="cls-5" x1="321.92" y1="464.13" x2="310.98" y2="464.13"/><line class="cls-5" x1="316.44" y1="469.61" x2="321.92" y2="469.61"/><line class="cls-5" x1="371.09" y1="469.61" x2="382.03" y2="469.61"/><line class="cls-5" x1="430.75" y1="470.51" x2="428.93" y2="470.51"/><line class="cls-5" x1="428.93" y1="470.51" x2="428.93" y2="464.13"/><line class="cls-5" x1="428.93" y1="464.13" x2="430.75" y2="464.13"/><line class="cls-5" x1="430.75" y1="464.13" x2="430.75" y2="470.51"/><line class="cls-5" x1="382.03" y1="464.13" x2="383.85" y2="464.13"/><line class="cls-5" x1="383.85" y1="464.13" x2="383.85" y2="470.51"/><line class="cls-5" x1="383.85" y1="470.51" x2="382.03" y2="470.51"/><line class="cls-5" x1="382.03" y1="470.51" x2="382.03" y2="464.13"/><line class="cls-5" x1="383.85" y1="464.13" x2="406.63" y2="425.43"/><path class="cls-5" d="M406.63,453.79A45.34,45.34,0,0,1,429,492.5" transform="translate(0 -28.35)"/><line class="cls-5" x1="430.75" y1="464.13" x2="430.75" y2="469.61"/><line class="cls-5" x1="382.03" y1="464.13" x2="382.03" y2="469.61"/><line class="cls-5" x1="321.92" y1="470.51" x2="324.19" y2="470.51"/><line class="cls-5" x1="324.19" y1="470.51" x2="324.19" y2="464.13"/><line class="cls-5" x1="324.19" y1="464.13" x2="321.92" y2="464.13"/><line class="cls-5" x1="321.92" y1="464.13" x2="321.92" y2="470.51"/><line class="cls-5" x1="371.09" y1="464.13" x2="368.81" y2="464.13"/><line class="cls-5" x1="368.81" y1="464.13" x2="368.81" y2="470.51"/><line class="cls-5" x1="368.81" y1="470.51" x2="371.09" y2="470.51"/><line class="cls-5" x1="371.09" y1="470.51" x2="371.09" y2="464.13"/><line class="cls-5" x1="368.81" y1="464.13" x2="346.51" y2="425.43"/><path class="cls-5" d="M346.51,453.79a45.31,45.31,0,0,0-22.32,38.71" transform="translate(0 -28.35)"/><line class="cls-5" x1="321.92" y1="464.13" x2="321.92" y2="469.61"/><line class="cls-5" x1="371.09" y1="464.13" x2="371.09" y2="469.61"/><line class="cls-5" x1="436.22" y1="670.9" x2="376.56" y2="670.9"/><line class="cls-5" x1="371.09" y1="676.37" x2="430.75" y2="676.37"/><line class="cls-5" x1="111.49" y1="422.7" x2="11.3" y2="422.7"/><line class="cls-5" x1="11.3" y1="422.7" x2="11.3" y2="428.15"/><line class="cls-5" x1="11.3" y1="428.15" x2="106.04" y2="428.15"/><line class="cls-5" x1="540.98" y1="670.9" x2="545.53" y2="670.9"/><line class="cls-5" x1="534.6" y1="670.9" x2="540.98" y2="670.9"/><line class="cls-5" x1="540.98" y1="616.25" x2="545.53" y2="616.25"/><line class="cls-5" x1="534.6" y1="616.25" x2="540.98" y2="616.25"/><line class="cls-5" x1="534.6" y1="571.16" x2="534.6" y2="616.25"/><line class="cls-5" x1="534.6" y1="670.9" x2="534.6" y2="763.36"/><line class="cls-5" x1="534.6" y1="763.36" x2="545.53" y2="763.36"/><line class="cls-5" x1="545.53" y1="774.28" x2="545.53" y2="670.9"/><line class="cls-5" x1="545.53" y1="616.25" x2="545.53" y2="571.16"/><line class="cls-5" x1="540.98" y1="616.25" x2="540.98" y2="618.53"/><line class="cls-5" x1="540.98" y1="618.53" x2="536.88" y2="618.53"/><line class="cls-5" x1="536.88" y1="618.53" x2="536.88" y2="617.62"/><line class="cls-5" x1="536.88" y1="617.62" x2="534.6" y2="617.62"/><line class="cls-5" x1="534.6" y1="617.62" x2="534.6" y2="616.25"/><line class="cls-5" x1="534.6" y1="616.25" x2="540.98" y2="616.25"/><line class="cls-5" x1="534.6" y1="670.9" x2="534.6" y2="669.08"/><line class="cls-5" x1="534.6" y1="669.08" x2="536.88" y2="669.08"/><line class="cls-5" x1="536.88" y1="669.08" x2="536.88" y2="668.62"/><line class="cls-5" x1="536.88" y1="668.62" x2="540.98" y2="668.62"/><line class="cls-5" x1="540.98" y1="668.62" x2="540.98" y2="670.9"/><line class="cls-5" x1="540.98" y1="670.9" x2="534.6" y2="670.9"/><line class="cls-5" x1="534.6" y1="669.08" x2="489.96" y2="643.57"/><line class="cls-5" x1="489.96" y1="643.57" x2="490.87" y2="641.76"/><line class="cls-5" x1="490.87" y1="641.76" x2="535.51" y2="667.25"/><line class="cls-5" x1="535.51" y1="667.25" x2="534.6" y2="669.08"/><path class="cls-5" d="M490.87,670.11a51.18,51.18,0,0,1,43.27-23.68" transform="translate(0 -28.35)"/><line class="cls-5" x1="534.6" y1="616.25" x2="540.98" y2="616.25"/><line class="cls-5" x1="534.6" y1="670.9" x2="540.98" y2="670.9"/><line class="cls-5" x1="196.67" y1="604.87" x2="196.67" y2="676.37"/><line class="cls-5" x1="202.13" y1="665.43" x2="202.13" y2="604.87"/><line class="cls-5" x1="202.13" y1="604.87" x2="196.67" y2="604.87"/><line class="cls-5" x1="224" y1="562.52" x2="224" y2="567.97"/><line class="cls-5" x1="261.8" y1="562.52" x2="261.8" y2="567.97"/><line class="cls-5" x1="261.8" y1="568.43" x2="259.97" y2="568.43"/><line class="cls-5" x1="259.97" y1="568.43" x2="259.97" y2="562.52"/><line class="cls-5" x1="259.97" y1="562.52" x2="261.8" y2="562.52"/><line class="cls-5" x1="261.8" y1="562.52" x2="261.8" y2="568.43"/><line class="cls-5" x1="224" y1="562.52" x2="225.82" y2="562.52"/><line class="cls-5" x1="225.82" y1="562.52" x2="225.82" y2="568.43"/><line class="cls-5" x1="225.82" y1="568.43" x2="224" y2="568.43"/><line class="cls-5" x1="224" y1="568.43" x2="224" y2="562.52"/><line class="cls-5" x1="225.82" y1="562.52" x2="242.67" y2="532.9"/><path class="cls-5" d="M242.67,561.26a33.64,33.64,0,0,1,16.85,29.15" transform="translate(0 -28.35)"/><line class="cls-5" x1="261.8" y1="562.52" x2="261.8" y2="567.97"/><line class="cls-5" x1="224" y1="562.52" x2="224" y2="567.97"/><line class="cls-5" x1="371.09" y1="567.97" x2="371.09" y2="670.9"/><line class="cls-5" x1="376.56" y1="670.9" x2="376.56" y2="562.52"/><line class="cls-5" x1="196.67" y1="562.52" x2="111.49" y2="562.52"/><line class="cls-5" x1="106.04" y1="567.97" x2="196.67" y2="567.97"/><line class="cls-5" x1="310.98" y1="464.13" x2="310.98" y2="502.4"/><line class="cls-5" x1="316.44" y1="507.85" x2="316.44" y2="469.61"/><line class="cls-5" x1="310.98" y1="502.4" x2="202.13" y2="502.4"/><line class="cls-5" x1="202.13" y1="507.85" x2="316.44" y2="507.85"/><line class="cls-5" x1="436.22" y1="502.4" x2="534.6" y2="502.4"/><line class="cls-5" x1="534.6" y1="502.4" x2="534.6" y2="496.93"/><line class="cls-5" x1="534.6" y1="496.93" x2="436.22" y2="496.93"/><line class="cls-5" x1="436.22" y1="496.93" x2="436.22" y2="464.13"/><line class="cls-5" x1="430.75" y1="469.61" x2="430.75" y2="502.4"/><line class="cls-5" x1="261.8" y1="590.29" x2="261.8" y2="670.9"/><line class="cls-5" x1="267.26" y1="670.9" x2="267.26" y2="590.29"/><line class="cls-5" x1="267.26" y1="590.29" x2="261.8" y2="590.29"/><line class="cls-5" x1="430.75" y1="502.4" x2="430.75" y2="567.97"/><line class="cls-5" x1="436.22" y1="562.52" x2="436.22" y2="502.4"/><line class="cls-5" x1="471.74" y1="567.97" x2="471.74" y2="562.52"/><line class="cls-5" x1="510" y1="567.97" x2="510" y2="562.52"/><line class="cls-5" x1="430.75" y1="567.97" x2="471.74" y2="567.97"/><line class="cls-5" x1="510" y1="567.97" x2="534.6" y2="567.97"/><line class="cls-5" x1="534.6" y1="567.97" x2="534.6" y2="562.52"/><line class="cls-5" x1="534.6" y1="562.52" x2="510" y2="562.52"/><line class="cls-5" x1="471.74" y1="562.52" x2="436.22" y2="562.52"/><line class="cls-5" x1="510" y1="561.6" x2="507.72" y2="561.6"/><line class="cls-5" x1="507.72" y1="561.6" x2="507.72" y2="567.97"/><line class="cls-5" x1="507.72" y1="567.97" x2="510" y2="567.97"/><line class="cls-5" x1="510" y1="567.97" x2="510" y2="561.6"/><line class="cls-5" x1="471.74" y1="567.97" x2="474.02" y2="567.97"/><line class="cls-5" x1="474.02" y1="567.97" x2="474.02" y2="561.6"/><line class="cls-5" x1="474.02" y1="561.6" x2="471.74" y2="561.6"/><line class="cls-5" x1="471.74" y1="561.6" x2="471.74" y2="567.97"/><line class="cls-5" x1="474.02" y1="567.97" x2="490.87" y2="597.12"/><path class="cls-5" d="M490.87,625.48a33.67,33.67,0,0,0,16.85-29.16" transform="translate(0 -28.35)"/><line class="cls-5" x1="510" y1="567.97" x2="510" y2="562.52"/><line class="cls-5" x1="471.74" y1="567.97" x2="471.74" y2="562.52"/><line class="cls-5" x1="371.09" y1="670.9" x2="267.26" y2="670.9"/><line class="cls-5" x1="261.8" y1="670.9" x2="224" y2="670.9"/><line class="cls-5" x1="196.67" y1="676.37" x2="371.09" y2="676.37"/><line class="cls-5" x1="0.38" y1="526.52" x2="0.38" y2="959.65"/><line class="cls-5" x1="11.3" y1="959.65" x2="11.3" y2="526.52"/><line class="cls-5" x1="106.04" y1="521.07" x2="67.77" y2="521.07"/><line class="cls-5" x1="67.77" y1="521.07" x2="67.77" y2="526.52"/><line class="cls-5" x1="67.77" y1="526.52" x2="106.04" y2="526.52"/><line class="cls-5" x1="268.62" y1="588.92" x2="268.62" y2="568.9"/><line class="cls-5" x1="268.62" y1="568.9" x2="267.26" y2="568.9"/><line class="cls-5" x1="267.26" y1="568.9" x2="267.26" y2="590.29"/><line class="cls-5" x1="267.26" y1="590.29" x2="286.39" y2="590.29"/><line class="cls-5" x1="285.03" y1="588.92" x2="268.62" y2="588.92"/><line class="cls-5" x1="286.39" y1="590.29" x2="286.39" y2="568.9"/><line class="cls-5" x1="286.39" y1="568.9" x2="285.03" y2="568.9"/><line class="cls-5" x1="285.03" y1="568.9" x2="285.03" y2="588.92"/><line class="cls-5" x1="268.62" y1="568.9" x2="290.48" y2="568.9"/><line class="cls-5" x1="290.48" y1="568.9" x2="290.48" y2="567.97"/><line class="cls-5" x1="290.48" y1="562.52" x2="261.8" y2="562.52"/><line class="cls-5" x1="343.78" y1="562.52" x2="343.78" y2="567.97"/><line class="cls-5" x1="305.5" y1="562.52" x2="305.5" y2="567.97"/><line class="cls-5" x1="290.48" y1="567.97" x2="305.5" y2="567.97"/><line class="cls-5" x1="343.78" y1="567.97" x2="371.09" y2="567.97"/><line class="cls-5" x1="376.56" y1="562.52" x2="343.78" y2="562.52"/><line class="cls-5" x1="305.5" y1="562.52" x2="290.48" y2="562.52"/><line class="cls-5" x1="305.5" y1="568.43" x2="307.78" y2="568.43"/><line class="cls-5" x1="307.78" y1="568.43" x2="307.78" y2="562.52"/><line class="cls-5" x1="307.78" y1="562.52" x2="305.5" y2="562.52"/><line class="cls-5" x1="305.5" y1="562.52" x2="305.5" y2="568.43"/><line class="cls-5" x1="343.78" y1="562.52" x2="341.5" y2="562.52"/><line class="cls-5" x1="341.5" y1="562.52" x2="341.5" y2="568.43"/><line class="cls-5" x1="341.5" y1="568.43" x2="343.78" y2="568.43"/><line class="cls-5" x1="343.78" y1="568.43" x2="343.78" y2="562.52"/><line class="cls-5" x1="341.5" y1="562.52" x2="324.65" y2="532.9"/><path class="cls-5" d="M324.65,561.26a33.64,33.64,0,0,0-16.87,29.15" transform="translate(0 -28.35)"/><line class="cls-5" x1="305.5" y1="562.52" x2="305.5" y2="567.97"/><line class="cls-5" x1="343.78" y1="562.52" x2="343.78" y2="567.97"/><line class="cls-5" x1="261.8" y1="562.52" x2="261.8" y2="590.74"/><line class="cls-5" x1="261.8" y1="590.74" x2="268.62" y2="590.74"/><line class="cls-5" x1="268.62" y1="590.74" x2="268.62" y2="568.9"/><line class="cls-5" x1="203.05" y1="568.9" x2="224" y2="568.9"/><line class="cls-5" x1="224" y1="568.9" x2="224" y2="567.97"/><line class="cls-5" x1="224" y1="562.52" x2="196.67" y2="562.52"/><line class="cls-5" x1="196.67" y1="567.97" x2="196.67" y2="568.9"/><line class="cls-5" x1="61.41" y1="552.03" x2="34.07" y2="552.03"/><line class="cls-5" x1="27.71" y1="558.41" x2="67.77" y2="558.41"/><line class="cls-5" x1="34.07" y1="552.03" x2="34.07" y2="527.45"/><line class="cls-5" x1="27.71" y1="521.07" x2="27.71" y2="558.41"/><line class="cls-5" x1="34.07" y1="527.45" x2="61.41" y2="527.45"/><line class="cls-5" x1="67.77" y1="521.07" x2="27.71" y2="521.07"/><line class="cls-5" x1="61.41" y1="527.45" x2="61.41" y2="552.03"/><line class="cls-5" x1="67.77" y1="558.41" x2="67.77" y2="521.07"/><line class="cls-5" x1="27.71" y1="521.07" x2="11.3" y2="521.07"/><line class="cls-5" x1="11.3" y1="521.07" x2="11.3" y2="526.52"/><line class="cls-5" x1="11.3" y1="526.52" x2="27.71" y2="526.52"/><line class="cls-5" x1="27.71" y1="526.52" x2="27.71" y2="521.07"/><line class="cls-5" x1="203.05" y1="604.87" x2="203.05" y2="568.9"/><line class="cls-5" x1="196.67" y1="568.9" x2="196.67" y2="604.87"/><line class="cls-5" x1="196.67" y1="604.87" x2="203.05" y2="604.87"/><line class="cls-5" x1="220.81" y1="599.86" x2="220.81" y2="568.9"/><line class="cls-5" x1="220.81" y1="568.9" x2="219.44" y2="568.9"/><line class="cls-5" x1="219.44" y1="568.9" x2="219.44" y2="598.49"/><line class="cls-5" x1="87.37" y1="513.32" x2="87.37" y2="496.02"/><line class="cls-5" x1="87.83" y1="521.07" x2="67.32" y2="521.07"/><line class="cls-5" x1="87.83" y1="521.07" x2="87.83" y2="514.23"/><line class="cls-5" x1="77.8" y1="510.13" x2="70.05" y2="510.13"/><line class="cls-5" x1="87.37" y1="496.02" x2="85.55" y2="510.13"/><line class="cls-5" x1="77.8" y1="510.13" x2="85.55" y2="510.13"/><line class="cls-5" x1="68.23" y1="496.02" x2="70.05" y2="510.13"/><line class="cls-5" x1="86.91" y1="496.02" x2="85.09" y2="510.13"/><line class="cls-5" x1="68.7" y1="496.02" x2="70.5" y2="510.13"/><line class="cls-5" x1="68.23" y1="513.32" x2="68.23" y2="496.02"/><line class="cls-5" x1="67.32" y1="521.07" x2="67.32" y2="514.23"/><path class="cls-5" d="M86.91,541.67a132.2,132.2,0,0,0-18.67,0" transform="translate(0 -28.35)"/><path class="cls-5" d="M86.91,524.37c0-4.1-4.1-7.75-9.11-7.75s-9.1,3.19-9.1,7.75" transform="translate(0 -28.35)"/><path class="cls-5" d="M87.83,542.59a1,1,0,0,0-.92-.92" transform="translate(0 -28.35)"/><path class="cls-5" d="M87.37,524.37c0-4.56-4.1-8.2-9.57-8.2s-9.56,3.64-9.56,8.2" transform="translate(0 -28.35)"/><path class="cls-5" d="M68.23,541.67a1,1,0,0,0-.91.92" transform="translate(0 -28.35)"/><path class="cls-5" d="M76.89,545.32a.91.91,0,1,0,1.82,0,.91.91,0,1,0-1.82,0" transform="translate(0 -28.35)"/><line class="cls-5" x1="275" y1="599.4" x2="292.3" y2="599.4"/><line class="cls-5" x1="267.26" y1="598.95" x2="267.26" y2="619.44"/><line class="cls-5" x1="267.26" y1="598.95" x2="273.63" y2="598.95"/><line class="cls-5" x1="277.73" y1="608.96" x2="277.73" y2="616.71"/><line class="cls-5" x1="292.3" y1="599.4" x2="277.73" y2="601.68"/><line class="cls-5" x1="277.73" y1="608.96" x2="277.73" y2="601.68"/><line class="cls-5" x1="292.3" y1="618.53" x2="277.73" y2="616.71"/><line class="cls-5" x1="292.3" y1="599.86" x2="277.73" y2="602.14"/><line class="cls-5" x1="292.3" y1="618.08" x2="277.73" y2="616.25"/><line class="cls-5" x1="275" y1="618.53" x2="292.3" y2="618.53"/><line class="cls-5" x1="267.26" y1="619.44" x2="273.63" y2="619.44"/><path class="cls-5" d="M275,646.88a129.27,129.27,0,0,0,0-18.67" transform="translate(0 -28.35)"/><path class="cls-5" d="M292.3,646.43c4.1,0,7.75-4.11,7.75-9.12s-3.19-9.1-7.75-9.1" transform="translate(0 -28.35)"/><path class="cls-5" d="M275,628.21a1,1,0,0,0-.9-.91" transform="translate(0 -28.35)"/><path class="cls-5" d="M292.3,646.88c4.56,0,7.75-4.1,7.75-9.57s-3.65-9.55-7.75-9.55" transform="translate(0 -28.35)"/><path class="cls-5" d="M273.63,647.8a1,1,0,0,0,.91-.92" transform="translate(0 -28.35)"/><line class="cls-5" x1="9.03" y1="40.59" x2="543.26" y2="40.59"/><line class="cls-5" x1="543.26" y1="40.59" x2="543.26" y2="172.2"/><line class="cls-5" x1="543.26" y1="172.2" x2="559.19" y2="172.2"/><line class="cls-5" x1="379.75" y1="984.23" x2="379.75" y2="1137.25"/><line class="cls-5" x1="395.69" y1="984.23" x2="379.75" y2="984.23"/><line class="cls-5" x1="379.75" y1="1137.25" x2="9.03" y2="1137.25"/><line class="cls-5" x1="9.03" y1="1137.25" x2="9.03" y2="984.23"/><line class="cls-5" x1="9.03" y1="172.2" x2="9.03" y2="40.59"/><rect class="cls-5" x="14.96" y="41.5" width="60.56" height="2.28"/><rect class="cls-5" x="14.96" y="41.5" width="60.56" height="2.28"/><line class="cls-5" x1="14.94" y1="41.5" x2="14.94" y2="43.78"/><line class="cls-5" x1="14.94" y1="43.78" x2="75.52" y2="43.78"/><line class="cls-5" x1="75.52" y1="43.78" x2="75.52" y2="41.5"/><line class="cls-5" x1="75.52" y1="41.5" x2="14.94" y2="41.5"/><line class="cls-5" x1="14.94" y1="42.86" x2="75.52" y2="42.86"/><rect class="cls-5" x="75.52" y="41.5" width="65.59" height="2.28"/><rect class="cls-5" x="75.52" y="41.5" width="65.59" height="2.28"/><line class="cls-5" x1="75.52" y1="41.5" x2="75.52" y2="43.78"/><line class="cls-5" x1="75.52" y1="43.78" x2="141.11" y2="43.78"/><line class="cls-5" x1="141.11" y1="43.78" x2="141.11" y2="41.5"/><line class="cls-5" x1="141.11" y1="41.5" x2="75.52" y2="41.5"/><line class="cls-5" x1="75.52" y1="42.86" x2="141.11" y2="42.86"/><rect class="cls-5" x="140.65" y="41.5" width="65.59" height="2.28"/><rect class="cls-5" x="140.65" y="41.5" width="65.59" height="2.28"/><line class="cls-5" x1="141.11" y1="41.5" x2="141.11" y2="43.78"/><line class="cls-5" x1="141.11" y1="43.78" x2="206.24" y2="43.78"/><line class="cls-5" x1="206.24" y1="43.78" x2="206.24" y2="41.5"/><line class="cls-5" x1="206.24" y1="41.5" x2="141.11" y2="41.5"/><line class="cls-5" x1="141.11" y1="42.86" x2="206.24" y2="42.86"/><rect class="cls-5" x="206.24" y="41.5" width="65.57" height="2.28"/><rect class="cls-5" x="206.24" y="41.5" width="65.57" height="2.28"/><line class="cls-5" x1="206.24" y1="41.5" x2="206.24" y2="43.78"/><line class="cls-5" x1="206.24" y1="43.78" x2="271.81" y2="43.78"/><line class="cls-5" x1="271.81" y1="43.78" x2="271.81" y2="41.5"/><line class="cls-5" x1="271.81" y1="41.5" x2="206.24" y2="41.5"/><line class="cls-5" x1="206.24" y1="42.86" x2="271.81" y2="42.86"/><rect class="cls-5" x="271.82" y="41.5" width="65.57" height="2.28"/><rect class="cls-5" x="271.82" y="41.5" width="65.57" height="2.28"/><line class="cls-5" x1="271.81" y1="41.5" x2="271.81" y2="43.78"/><line class="cls-5" x1="271.81" y1="43.78" x2="337.39" y2="43.78"/><line class="cls-5" x1="337.39" y1="43.78" x2="337.39" y2="41.5"/><line class="cls-5" x1="337.39" y1="41.5" x2="271.81" y2="41.5"/><line class="cls-5" x1="271.81" y1="42.86" x2="337.39" y2="42.86"/><rect class="cls-5" x="336.94" y="41.5" width="65.59" height="2.28"/><rect class="cls-5" x="336.94" y="41.5" width="65.59" height="2.28"/><line class="cls-5" x1="337.39" y1="41.5" x2="337.39" y2="43.78"/><line class="cls-5" x1="337.39" y1="43.78" x2="402.52" y2="43.78"/><line class="cls-5" x1="402.52" y1="43.78" x2="402.52" y2="41.5"/><line class="cls-5" x1="402.52" y1="41.5" x2="337.39" y2="41.5"/><line class="cls-5" x1="337.39" y1="42.86" x2="402.52" y2="42.86"/><rect class="cls-5" x="402.53" y="41.5" width="65.57" height="2.28"/><rect class="cls-5" x="402.53" y="41.5" width="65.57" height="2.28"/><line class="cls-5" x1="402.52" y1="41.5" x2="402.52" y2="43.78"/><line class="cls-5" x1="402.52" y1="43.78" x2="468.1" y2="43.78"/><line class="cls-5" x1="468.1" y1="43.78" x2="468.1" y2="41.5"/><line class="cls-5" x1="468.1" y1="41.5" x2="402.52" y2="41.5"/><line class="cls-5" x1="402.52" y1="42.86" x2="468.1" y2="42.86"/><rect class="cls-5" x="468.1" y="41.5" width="74.23" height="2.28"/><rect class="cls-5" x="468.1" y="41.5" width="74.23" height="2.28"/><line class="cls-5" x1="468.1" y1="41.5" x2="468.1" y2="43.78"/><line class="cls-5" x1="468.1" y1="43.78" x2="542.33" y2="43.78"/><line class="cls-5" x1="542.33" y1="43.78" x2="542.33" y2="41.5"/><line class="cls-5" x1="542.33" y1="41.5" x2="468.1" y2="41.5"/><line class="cls-5" x1="468.1" y1="42.86" x2="542.33" y2="42.86"/><rect class="cls-5" x="540.05" y="43.78" width="2.28" height="65.59"/><rect class="cls-5" x="540.05" y="43.78" width="2.28" height="65.59"/><line class="cls-5" x1="542.33" y1="43.78" x2="540.05" y2="43.78"/><line class="cls-5" x1="540.05" y1="43.78" x2="540.05" y2="109.36"/><line class="cls-5" x1="540.05" y1="109.36" x2="542.33" y2="109.36"/><line class="cls-5" x1="542.33" y1="109.36" x2="542.33" y2="43.78"/><line class="cls-5" x1="540.98" y1="43.78" x2="540.98" y2="109.36"/><rect class="cls-5" x="540.05" y="109.36" width="2.28" height="62.84"/><rect class="cls-5" x="540.05" y="109.36" width="2.28" height="62.84"/><line class="cls-5" x1="542.33" y1="109.36" x2="540.05" y2="109.36"/><line class="cls-5" x1="540.05" y1="109.36" x2="540.05" y2="172.2"/><line class="cls-5" x1="540.05" y1="172.2" x2="542.33" y2="172.2"/><line class="cls-5" x1="542.33" y1="172.2" x2="542.33" y2="109.36"/><line class="cls-5" x1="540.98" y1="109.36" x2="540.98" y2="172.2"/><rect class="cls-5" x="9.95" y="1134.08" width="65.57" height="2.28"/><rect class="cls-5" x="9.95" y="1134.08" width="65.57" height="2.28"/><line class="cls-5" x1="9.95" y1="1134.08" x2="9.95" y2="1136.36"/><line class="cls-5" x1="9.95" y1="1136.36" x2="75.52" y2="1136.36"/><line class="cls-5" x1="75.52" y1="1136.36" x2="75.52" y2="1134.08"/><line class="cls-5" x1="75.52" y1="1134.08" x2="9.95" y2="1134.08"/><line class="cls-5" x1="9.95" y1="1135.44" x2="75.52" y2="1135.44"/><rect class="cls-5" x="75.52" y="1134.08" width="65.59" height="2.28"/><rect class="cls-5" x="75.52" y="1134.08" width="65.59" height="2.28"/><line class="cls-5" x1="75.52" y1="1134.08" x2="75.52" y2="1136.36"/><line class="cls-5" x1="75.52" y1="1136.36" x2="141.11" y2="1136.36"/><line class="cls-5" x1="141.11" y1="1136.36" x2="141.11" y2="1134.08"/><line class="cls-5" x1="141.11" y1="1134.08" x2="75.52" y2="1134.08"/><line class="cls-5" x1="75.52" y1="1135.44" x2="141.11" y2="1135.44"/><rect class="cls-5" x="140.65" y="1134.08" width="65.59" height="2.28"/><rect class="cls-5" x="140.65" y="1134.08" width="65.59" height="2.28"/><line class="cls-5" x1="141.11" y1="1134.08" x2="141.11" y2="1136.36"/><line class="cls-5" x1="141.11" y1="1136.36" x2="206.24" y2="1136.36"/><line class="cls-5" x1="206.24" y1="1136.36" x2="206.24" y2="1134.08"/><line class="cls-5" x1="206.24" y1="1134.08" x2="141.11" y2="1134.08"/><line class="cls-5" x1="141.11" y1="1135.44" x2="206.24" y2="1135.44"/><rect class="cls-5" x="206.24" y="1134.08" width="65.57" height="2.28"/><rect class="cls-5" x="206.24" y="1134.08" width="65.57" height="2.28"/><line class="cls-5" x1="206.24" y1="1134.08" x2="206.24" y2="1136.36"/><line class="cls-5" x1="206.24" y1="1136.36" x2="271.81" y2="1136.36"/><line class="cls-5" x1="271.81" y1="1136.36" x2="271.81" y2="1134.08"/><line class="cls-5" x1="271.81" y1="1134.08" x2="206.24" y2="1134.08"/><line class="cls-5" x1="206.24" y1="1135.44" x2="271.81" y2="1135.44"/><rect class="cls-5" x="271.82" y="1134.08" width="65.57" height="2.28"/><rect class="cls-5" x="271.82" y="1134.08" width="65.57" height="2.28"/><line class="cls-5" x1="271.81" y1="1134.08" x2="271.81" y2="1136.36"/><line class="cls-5" x1="271.81" y1="1136.36" x2="337.39" y2="1136.36"/><line class="cls-5" x1="337.39" y1="1136.36" x2="337.39" y2="1134.08"/><line class="cls-5" x1="337.39" y1="1134.08" x2="271.81" y2="1134.08"/><line class="cls-5" x1="271.81" y1="1135.44" x2="337.39" y2="1135.44"/><rect class="cls-5" x="336.94" y="1134.08" width="41.44" height="2.28"/><rect class="cls-5" x="336.94" y="1134.08" width="41.44" height="2.28"/><line class="cls-5" x1="337.39" y1="1134.08" x2="337.39" y2="1136.36"/><line class="cls-5" x1="337.39" y1="1136.36" x2="378.38" y2="1136.36"/><line class="cls-5" x1="378.38" y1="1136.36" x2="378.38" y2="1134.08"/><line class="cls-5" x1="378.38" y1="1134.08" x2="337.39" y2="1134.08"/><line class="cls-5" x1="337.39" y1="1135.44" x2="378.38" y2="1135.44"/><rect class="cls-5" x="9.95" y="1068.95" width="2.26" height="65.59"/><rect class="cls-5" x="9.95" y="1068.95" width="2.26" height="65.59"/><line class="cls-5" x1="9.95" y1="1134.08" x2="12.21" y2="1134.08"/><line class="cls-5" x1="12.21" y1="1134.08" x2="12.21" y2="1068.95"/><line class="cls-5" x1="12.21" y1="1068.95" x2="9.95" y2="1068.95"/><line class="cls-5" x1="9.95" y1="1068.95" x2="9.95" y2="1134.08"/><line class="cls-5" x1="11.3" y1="1134.08" x2="11.3" y2="1068.95"/><rect class="cls-5" x="9.95" y="984.23" width="2.26" height="84.71"/><rect class="cls-5" x="9.95" y="984.23" width="2.26" height="84.71"/><line class="cls-5" x1="9.95" y1="1068.95" x2="12.21" y2="1068.95"/><line class="cls-5" x1="12.21" y1="1068.95" x2="12.21" y2="984.23"/><line class="cls-5" x1="12.21" y1="984.23" x2="9.95" y2="984.23"/><line class="cls-5" x1="9.95" y1="984.23" x2="9.95" y2="1068.95"/><line class="cls-5" x1="11.3" y1="1068.95" x2="11.3" y2="984.23"/><rect class="cls-5" x="376.1" y="1068.95" width="2.28" height="65.59"/><rect class="cls-5" x="376.1" y="1068.95" width="2.28" height="65.59"/><line class="cls-5" x1="376.56" y1="1134.08" x2="378.38" y2="1134.08"/><line class="cls-5" x1="378.38" y1="1134.08" x2="378.38" y2="1068.95"/><line class="cls-5" x1="378.38" y1="1068.95" x2="376.56" y2="1068.95"/><line class="cls-5" x1="376.56" y1="1068.95" x2="376.56" y2="1134.08"/><line class="cls-5" x1="377.47" y1="1134.08" x2="377.47" y2="1068.95"/><rect class="cls-5" x="376.1" y="984.23" width="2.28" height="84.71"/><rect class="cls-5" x="376.1" y="984.23" width="2.28" height="84.71"/><line class="cls-5" x1="376.56" y1="1068.95" x2="378.38" y2="1068.95"/><line class="cls-5" x1="378.38" y1="1068.95" x2="378.38" y2="984.23"/><line class="cls-5" x1="378.38" y1="984.23" x2="376.56" y2="984.23"/><line class="cls-5" x1="376.56" y1="984.23" x2="376.56" y2="1068.95"/><line class="cls-5" x1="377.47" y1="1068.95" x2="377.47" y2="984.23"/><line class="cls-5" x1="34.07" y1="169.48" x2="54.57" y2="169.48"/><line class="cls-5" x1="34.07" y1="168.11" x2="54.57" y2="168.11"/><line class="cls-5" x1="34.07" y1="169.48" x2="34.07" y2="168.11"/><line class="cls-5" x1="54.57" y1="169.48" x2="54.57" y2="168.11"/><line class="cls-5" x1="57.31" y1="172.2" x2="54.57" y2="172.2"/><line class="cls-5" x1="34.07" y1="172.2" x2="31.34" y2="172.2"/><line class="cls-5" x1="34.07" y1="172.2" x2="54.57" y2="172.2"/><line class="cls-5" x1="57.31" y1="167.66" x2="54.57" y2="167.66"/><line class="cls-5" x1="34.07" y1="167.66" x2="31.34" y2="167.66"/><line class="cls-5" x1="34.07" y1="167.66" x2="54.57" y2="167.66"/><line class="cls-5" x1="31.34" y1="172.2" x2="31.34" y2="167.66"/><line class="cls-5" x1="57.31" y1="172.2" x2="57.31" y2="167.66"/><line class="cls-5" x1="34.07" y1="172.2" x2="34.07" y2="169.48"/><line class="cls-5" x1="34.07" y1="168.11" x2="34.07" y2="167.66"/><line class="cls-5" x1="54.57" y1="172.2" x2="54.57" y2="169.48"/><line class="cls-5" x1="54.57" y1="168.11" x2="54.57" y2="167.66"/><line class="cls-5" x1="164.34" y1="169.48" x2="185.28" y2="169.48"/><line class="cls-5" x1="164.34" y1="168.11" x2="185.28" y2="168.11"/><line class="cls-5" x1="164.34" y1="169.48" x2="164.34" y2="168.11"/><line class="cls-5" x1="185.28" y1="169.48" x2="185.28" y2="168.11"/><line class="cls-5" x1="188.02" y1="172.2" x2="185.28" y2="172.2"/><line class="cls-5" x1="164.34" y1="172.2" x2="161.6" y2="172.2"/><line class="cls-5" x1="164.34" y1="172.2" x2="185.28" y2="172.2"/><line class="cls-5" x1="188.02" y1="167.66" x2="185.28" y2="167.66"/><line class="cls-5" x1="164.34" y1="167.66" x2="161.6" y2="167.66"/><line class="cls-5" x1="164.34" y1="167.66" x2="185.28" y2="167.66"/><line class="cls-5" x1="161.6" y1="172.2" x2="161.6" y2="167.66"/><line class="cls-5" x1="188.02" y1="172.2" x2="188.02" y2="167.66"/><line class="cls-5" x1="164.34" y1="172.2" x2="164.34" y2="169.48"/><line class="cls-5" x1="164.34" y1="168.11" x2="164.34" y2="167.66"/><line class="cls-5" x1="185.28" y1="172.2" x2="185.28" y2="169.48"/><line class="cls-5" x1="185.28" y1="168.11" x2="185.28" y2="167.66"/><line class="cls-5" x1="359.71" y1="986.97" x2="338.76" y2="986.97"/><line class="cls-5" x1="359.71" y1="987.88" x2="338.76" y2="987.88"/><line class="cls-5" x1="359.71" y1="986.97" x2="359.71" y2="987.88"/><line class="cls-5" x1="338.76" y1="986.97" x2="338.76" y2="987.88"/><line class="cls-5" x1="336.03" y1="984.23" x2="338.76" y2="984.23"/><line class="cls-5" x1="359.71" y1="984.23" x2="362.45" y2="984.23"/><line class="cls-5" x1="359.71" y1="984.23" x2="338.76" y2="984.23"/><line class="cls-5" x1="336.03" y1="988.79" x2="338.76" y2="988.79"/><line class="cls-5" x1="359.71" y1="988.79" x2="362.45" y2="988.79"/><line class="cls-5" x1="359.71" y1="988.79" x2="338.76" y2="988.79"/><line class="cls-5" x1="362.45" y1="984.23" x2="362.45" y2="988.79"/><line class="cls-5" x1="336.03" y1="984.23" x2="336.03" y2="988.79"/><line class="cls-5" x1="359.71" y1="984.23" x2="359.71" y2="986.97"/><line class="cls-5" x1="359.71" y1="987.88" x2="359.71" y2="988.79"/><line class="cls-5" x1="338.76" y1="984.23" x2="338.76" y2="986.97"/><line class="cls-5" x1="338.76" y1="987.88" x2="338.76" y2="988.79"/><line class="cls-5" x1="229.45" y1="986.97" x2="208.52" y2="986.97"/><line class="cls-5" x1="229.45" y1="987.88" x2="208.52" y2="987.88"/><line class="cls-5" x1="229.45" y1="986.97" x2="229.45" y2="987.88"/><line class="cls-5" x1="208.52" y1="986.97" x2="208.52" y2="987.88"/><line class="cls-5" x1="205.78" y1="984.23" x2="208.52" y2="984.23"/><line class="cls-5" x1="229.45" y1="984.23" x2="231.73" y2="984.23"/><line class="cls-5" x1="229.45" y1="984.23" x2="208.52" y2="984.23"/><line class="cls-5" x1="205.78" y1="988.79" x2="208.52" y2="988.79"/><line class="cls-5" x1="229.45" y1="988.79" x2="231.73" y2="988.79"/><line class="cls-5" x1="229.45" y1="988.79" x2="208.52" y2="988.79"/><line class="cls-5" x1="231.73" y1="984.23" x2="231.73" y2="988.79"/><line class="cls-5" x1="205.78" y1="984.23" x2="205.78" y2="988.79"/><line class="cls-5" x1="229.45" y1="984.23" x2="229.45" y2="986.97"/><line class="cls-5" x1="229.45" y1="987.88" x2="229.45" y2="988.79"/><line class="cls-5" x1="208.52" y1="984.23" x2="208.52" y2="986.97"/><line class="cls-5" x1="208.52" y1="987.88" x2="208.52" y2="988.79"/><line class="cls-5" x1="163.88" y1="422.7" x2="163.88" y2="512.87"/><line class="cls-5" x1="163.88" y1="512.87" x2="196.67" y2="512.87"/><line class="cls-5" x1="196.67" y1="512.87" x2="163.88" y2="422.7"/><line class="cls-5" x1="196.67" y1="422.7" x2="163.88" y2="512.87"/><line class="cls-5" x1="310.98" y1="464.13" x2="202.13" y2="464.13"/><line class="cls-5" x1="310.98" y1="464.13" x2="202.13" y2="502.4"/><line class="cls-5" x1="310.98" y1="502.4" x2="202.13" y2="464.13"/><line class="cls-5" x1="163.88" y1="422.7" x2="196.67" y2="422.7"/><line class="cls-5" x1="436.22" y1="496.93" x2="534.6" y2="464.13"/><line class="cls-5" x1="436.22" y1="464.13" x2="534.6" y2="496.93"/><line class="cls-5" x1="371.09" y1="763.36" x2="371.09" y2="725.09"/><line class="cls-5" x1="395.69" y1="918.66" x2="395.69" y2="910.46"/><line class="cls-5" x1="395.69" y1="919.57" x2="395.69" y2="918.66"/><line class="cls-5" x1="395.69" y1="899.99" x2="382.03" y2="899.99"/><line class="cls-5" x1="371.09" y1="899.99" x2="371.09" y2="910.46"/><line class="cls-5" x1="371.09" y1="910.46" x2="371.09" y2="918.66"/><line class="cls-5" x1="371.09" y1="918.66" x2="371.09" y2="919.57"/><line class="cls-5" x1="371.09" y1="919.57" x2="395.69" y2="919.57"/><line class="cls-5" x1="371.09" y1="910.91" x2="371.09" y2="959.65"/><line class="cls-5" x1="395.69" y1="984.23" x2="395.69" y2="899.99"/><line class="cls-5" x1="371.09" y1="910.91" x2="382.03" y2="910.91"/><line class="cls-5" x1="382.03" y1="910.91" x2="390.22" y2="910.91"/><line class="cls-5" x1="390.22" y1="910.91" x2="394.32" y2="910.91"/><line class="cls-5" x1="394.32" y1="910.91" x2="395.69" y2="910.91"/><line class="cls-5" x1="41.37" y1="967.38" x2="41.37" y2="959.65"/><line class="cls-5" x1="43.64" y1="978.78" x2="43.64" y2="970.57"/><line class="cls-5" x1="43.64" y1="983.32" x2="43.64" y2="978.78"/><line class="cls-5" x1="43.64" y1="984.23" x2="43.64" y2="983.32"/><line class="cls-5" x1="43.64" y1="970.57" x2="41.37" y2="970.57"/><line class="cls-5" x1="41.37" y1="970.57" x2="41.37" y2="967.38"/><line class="cls-5" x1="150.66" y1="967.38" x2="150.66" y2="959.65"/><line class="cls-5" x1="147.94" y1="978.78" x2="147.94" y2="970.57"/><line class="cls-5" x1="147.94" y1="983.32" x2="147.94" y2="978.78"/><line class="cls-5" x1="147.94" y1="984.23" x2="147.94" y2="983.32"/><line class="cls-5" x1="147.94" y1="970.57" x2="150.66" y2="970.57"/><line class="cls-5" x1="150.66" y1="970.57" x2="150.66" y2="967.38"/><line class="cls-5" x1="229.45" y1="966.47" x2="229.45" y2="959.65"/><line class="cls-5" x1="231.73" y1="970.57" x2="231.73" y2="970.12"/><line class="cls-5" x1="231.73" y1="978.78" x2="231.73" y2="970.57"/><line class="cls-5" x1="231.73" y1="983.32" x2="231.73" y2="978.78"/><line class="cls-5" x1="231.73" y1="984.23" x2="231.73" y2="983.32"/><line class="cls-5" x1="231.73" y1="970.12" x2="229.45" y2="970.12"/><line class="cls-5" x1="229.45" y1="970.12" x2="229.45" y2="966.47"/><line class="cls-5" x1="338.76" y1="966.47" x2="338.76" y2="959.65"/><line class="cls-5" x1="336.03" y1="970.57" x2="336.03" y2="970.12"/><line class="cls-5" x1="336.03" y1="978.78" x2="336.03" y2="970.57"/><line class="cls-5" x1="336.03" y1="983.32" x2="336.03" y2="978.78"/><line class="cls-5" x1="336.03" y1="984.23" x2="336.03" y2="983.32"/><line class="cls-5" x1="336.03" y1="970.12" x2="338.76" y2="970.12"/><line class="cls-5" x1="338.76" y1="970.12" x2="338.76" y2="966.47"/><line class="cls-5" x1="371.09" y1="959.65" x2="338.76" y2="959.65"/><line class="cls-5" x1="229.45" y1="959.65" x2="150.66" y2="959.65"/><line class="cls-5" x1="41.37" y1="959.65" x2="11.3" y2="959.65"/><line class="cls-5" x1="0.38" y1="959.65" x2="0.38" y2="970.57"/><line class="cls-5" x1="0.38" y1="970.57" x2="0.38" y2="978.78"/><line class="cls-5" x1="0.38" y1="978.78" x2="0.38" y2="983.32"/><line class="cls-5" x1="0.38" y1="983.32" x2="0.38" y2="984.23"/><line class="cls-5" x1="0.38" y1="984.23" x2="43.64" y2="984.23"/><line class="cls-5" x1="147.94" y1="984.23" x2="231.73" y2="984.23"/><line class="cls-5" x1="336.03" y1="984.23" x2="395.69" y2="984.23"/><rect class="cls-5" x="147.94" y="984.69" width="25.95" height="2.73"/><rect class="cls-5" x="147.94" y="984.69" width="25.95" height="2.73"/><rect class="cls-5" x="147.94" y="984.69" width="25.95" height="2.73"/><line class="cls-5" x1="173.89" y1="984.69" x2="173.89" y2="987.42"/><line class="cls-5" x1="173.89" y1="987.42" x2="147.94" y2="987.42"/><line class="cls-5" x1="147.94" y1="987.42" x2="147.94" y2="984.69"/><line class="cls-5" x1="147.94" y1="984.69" x2="173.89" y2="984.69"/><rect class="cls-5" x="147.94" y="987.42" width="25.95" height="2.73"/><rect class="cls-5" x="147.94" y="987.42" width="25.95" height="2.73"/><rect class="cls-5" x="147.94" y="987.42" width="25.95" height="2.73"/><line class="cls-5" x1="173.89" y1="987.42" x2="173.89" y2="990.16"/><line class="cls-5" x1="173.89" y1="990.16" x2="147.94" y2="990.16"/><line class="cls-5" x1="147.94" y1="990.16" x2="147.94" y2="987.42"/><line class="cls-5" x1="147.94" y1="987.42" x2="173.89" y2="987.42"/><rect class="cls-5" x="17.68" y="984.69" width="25.96" height="2.73"/><rect class="cls-5" x="17.68" y="984.69" width="25.96" height="2.73"/><rect class="cls-5" x="17.68" y="984.69" width="25.96" height="2.73"/><line class="cls-5" x1="43.64" y1="984.69" x2="43.64" y2="987.42"/><line class="cls-5" x1="43.64" y1="987.42" x2="17.68" y2="987.42"/><line class="cls-5" x1="17.68" y1="987.42" x2="17.68" y2="984.69"/><line class="cls-5" x1="17.68" y1="984.69" x2="43.64" y2="984.69"/><rect class="cls-5" x="17.68" y="987.42" width="25.96" height="2.73"/><rect class="cls-5" x="17.68" y="987.42" width="25.96" height="2.73"/><rect class="cls-5" x="17.68" y="987.42" width="25.96" height="2.73"/><line class="cls-5" x1="43.64" y1="987.42" x2="43.64" y2="990.16"/><line class="cls-5" x1="43.64" y1="990.16" x2="17.68" y2="990.16"/><line class="cls-5" x1="17.68" y1="990.16" x2="17.68" y2="987.42"/><line class="cls-5" x1="17.68" y1="987.42" x2="43.64" y2="987.42"/><line class="cls-5" x1="147.94" y1="984.23" x2="43.64" y2="984.23"/><line class="cls-5" x1="150.66" y1="959.65" x2="41.37" y2="959.65"/><line class="cls-5" x1="150.66" y1="967.38" x2="147.49" y2="967.38"/><line class="cls-5" x1="147.49" y1="967.38" x2="147.49" y2="968.3"/><line class="cls-5" x1="147.49" y1="968.3" x2="145.67" y2="968.3"/><line class="cls-5" x1="145.67" y1="968.3" x2="145.67" y2="970.57"/><line class="cls-5" x1="145.67" y1="970.57" x2="150.66" y2="970.57"/><line class="cls-5" x1="96.02" y1="970.57" x2="145.67" y2="970.57"/><line class="cls-5" x1="143.39" y1="965.1" x2="99.66" y2="965.1"/><line class="cls-5" x1="143.39" y1="968.3" x2="99.66" y2="968.3"/><line class="cls-5" x1="143.39" y1="965.1" x2="99.66" y2="965.1"/><line class="cls-5" x1="143.39" y1="966.93" x2="99.66" y2="966.93"/><line class="cls-5" x1="147.49" y1="965.1" x2="143.39" y2="965.1"/><line class="cls-5" x1="143.39" y1="965.1" x2="143.39" y2="968.3"/><line class="cls-5" x1="143.39" y1="968.3" x2="147.49" y2="968.3"/><line class="cls-5" x1="147.49" y1="968.3" x2="147.49" y2="965.1"/><line class="cls-5" x1="96.02" y1="968.3" x2="99.66" y2="968.3"/><line class="cls-5" x1="99.66" y1="968.3" x2="99.66" y2="965.1"/><line class="cls-5" x1="99.66" y1="965.1" x2="96.02" y2="965.1"/><line class="cls-5" x1="96.02" y1="965.1" x2="96.02" y2="968.3"/><line class="cls-5" x1="149.3" y1="970.57" x2="149.3" y2="967.38"/><line class="cls-5" x1="41.37" y1="970.57" x2="45.92" y2="970.57"/><line class="cls-5" x1="45.92" y1="970.57" x2="45.92" y2="968.3"/><line class="cls-5" x1="45.92" y1="968.3" x2="44.1" y2="968.3"/><line class="cls-5" x1="44.1" y1="968.3" x2="44.1" y2="967.38"/><line class="cls-5" x1="44.1" y1="967.38" x2="41.37" y2="967.38"/><line class="cls-5" x1="45.92" y1="970.57" x2="96.02" y2="970.57"/><line class="cls-5" x1="91.93" y1="965.1" x2="48.2" y2="965.1"/><line class="cls-5" x1="91.93" y1="968.3" x2="48.2" y2="968.3"/><line class="cls-5" x1="91.93" y1="965.1" x2="48.2" y2="965.1"/><line class="cls-5" x1="91.93" y1="966.93" x2="48.2" y2="966.93"/><line class="cls-5" x1="96.02" y1="965.1" x2="91.93" y2="965.1"/><line class="cls-5" x1="91.93" y1="965.1" x2="91.93" y2="968.3"/><line class="cls-5" x1="91.93" y1="968.3" x2="96.02" y2="968.3"/><line class="cls-5" x1="96.02" y1="968.3" x2="96.02" y2="965.1"/><line class="cls-5" x1="44.1" y1="968.3" x2="48.2" y2="968.3"/><line class="cls-5" x1="48.2" y1="968.3" x2="48.2" y2="965.1"/><line class="cls-5" x1="48.2" y1="965.1" x2="44.1" y2="965.1"/><line class="cls-5" x1="44.1" y1="965.1" x2="44.1" y2="968.3"/><line class="cls-5" x1="42.28" y1="970.57" x2="42.28" y2="967.38"/><line class="cls-5" x1="150.66" y1="970.57" x2="150.66" y2="967.38"/><line class="cls-5" x1="147.94" y1="970.57" x2="150.66" y2="970.57"/><line class="cls-5" x1="41.37" y1="970.57" x2="41.37" y2="967.38"/><line class="cls-5" x1="43.64" y1="970.57" x2="41.37" y2="970.57"/><line class="cls-5" x1="338.76" y1="970.12" x2="335.12" y2="970.12"/><line class="cls-5" x1="335.12" y1="970.12" x2="335.12" y2="966.47"/><line class="cls-5" x1="335.12" y1="966.47" x2="338.76" y2="966.47"/><line class="cls-5" x1="338.76" y1="966.47" x2="338.76" y2="970.12"/><line class="cls-5" x1="281.38" y1="970.12" x2="281.38" y2="968.75"/><line class="cls-5" x1="281.38" y1="968.75" x2="282.29" y2="968.75"/><line class="cls-5" x1="282.29" y1="968.75" x2="282.29" y2="966.47"/><line class="cls-5" x1="282.29" y1="966.47" x2="285.03" y2="966.47"/><line class="cls-5" x1="285.03" y1="966.47" x2="285.03" y2="970.12"/><line class="cls-5" x1="285.03" y1="970.12" x2="281.38" y2="970.12"/><line class="cls-5" x1="229.45" y1="966.47" x2="232.18" y2="966.47"/><line class="cls-5" x1="232.18" y1="966.47" x2="232.18" y2="968.75"/><line class="cls-5" x1="232.18" y1="968.75" x2="232.64" y2="968.75"/><line class="cls-5" x1="232.64" y1="968.75" x2="232.64" y2="970.12"/><line class="cls-5" x1="232.64" y1="970.12" x2="229.45" y2="970.12"/><line class="cls-5" x1="229.45" y1="970.12" x2="229.45" y2="966.47"/><line class="cls-5" x1="332.38" y1="968.75" x2="287.74" y2="968.75"/><line class="cls-5" x1="287.74" y1="968.75" x2="287.74" y2="966.47"/><line class="cls-5" x1="287.74" y1="966.47" x2="332.38" y2="966.47"/><line class="cls-5" x1="332.38" y1="966.47" x2="332.38" y2="968.75"/><line class="cls-5" x1="335.12" y1="968.75" x2="332.38" y2="968.75"/><line class="cls-5" x1="332.38" y1="968.75" x2="332.38" y2="966.47"/><line class="cls-5" x1="332.38" y1="966.47" x2="335.12" y2="966.47"/><line class="cls-5" x1="335.12" y1="966.47" x2="335.12" y2="968.75"/><line class="cls-5" x1="287.74" y1="968.75" x2="285.03" y2="968.75"/><line class="cls-5" x1="285.03" y1="968.75" x2="285.03" y2="966.47"/><line class="cls-5" x1="285.03" y1="966.47" x2="287.74" y2="966.47"/><line class="cls-5" x1="287.74" y1="966.47" x2="287.74" y2="968.75"/><line class="cls-5" x1="332.38" y1="967.84" x2="287.74" y2="967.84"/><line class="cls-5" x1="335.12" y1="970.12" x2="285.03" y2="970.12"/><line class="cls-5" x1="285.03" y1="970.12" x2="285.03" y2="968.75"/><line class="cls-5" x1="285.03" y1="968.75" x2="335.12" y2="968.75"/><line class="cls-5" x1="335.12" y1="968.75" x2="335.12" y2="970.12"/><line class="cls-5" x1="335.12" y1="970.12" x2="285.03" y2="970.12"/><line class="cls-5" x1="232.18" y1="966.47" x2="257.24" y2="923.2"/><line class="cls-5" x1="257.24" y1="923.2" x2="259.06" y2="924.11"/><line class="cls-5" x1="259.06" y1="924.11" x2="234.01" y2="967.84"/><line class="cls-5" x1="234.01" y1="967.84" x2="232.18" y2="966.47"/><path class="cls-5" d="M259.06,952.47a49.67,49.67,0,0,1,23.23,42.35" transform="translate(0 -28.35)"/><line class="cls-5" x1="338.76" y1="970.12" x2="338.76" y2="966.47"/><line class="cls-5" x1="336.03" y1="970.12" x2="338.76" y2="970.12"/><line class="cls-5" x1="229.45" y1="970.12" x2="229.45" y2="966.47"/><line class="cls-5" x1="231.73" y1="970.12" x2="229.45" y2="970.12"/><line class="cls-5" x1="226.73" y1="189.06" x2="226.73" y2="196.34"/><line class="cls-5" x1="229.45" y1="177.22" x2="229.45" y2="185.42"/><line class="cls-5" x1="229.45" y1="173.13" x2="229.45" y2="177.22"/><line class="cls-5" x1="229.45" y1="172.2" x2="229.45" y2="173.13"/><line class="cls-5" x1="229.45" y1="185.42" x2="226.73" y2="185.42"/><line class="cls-5" x1="226.73" y1="185.42" x2="226.73" y2="189.06"/><line class="cls-5" x1="336.03" y1="189.06" x2="336.03" y2="196.34"/><line class="cls-5" x1="333.29" y1="177.22" x2="333.29" y2="185.42"/><line class="cls-5" x1="333.29" y1="173.13" x2="333.29" y2="177.22"/><line class="cls-5" x1="333.29" y1="172.2" x2="333.29" y2="173.13"/><line class="cls-5" x1="333.29" y1="185.42" x2="336.03" y2="185.42"/><line class="cls-5" x1="336.03" y1="185.42" x2="336.03" y2="189.06"/><line class="cls-5" x1="398.42" y1="189.06" x2="398.42" y2="196.34"/><line class="cls-5" x1="401.16" y1="177.22" x2="401.16" y2="185.42"/><line class="cls-5" x1="401.16" y1="173.13" x2="401.16" y2="177.22"/><line class="cls-5" x1="401.16" y1="172.2" x2="401.16" y2="173.13"/><line class="cls-5" x1="401.16" y1="185.42" x2="398.42" y2="185.42"/><line class="cls-5" x1="398.42" y1="185.42" x2="398.42" y2="189.06"/><line class="cls-5" x1="507.72" y1="189.06" x2="507.72" y2="196.34"/><line class="cls-5" x1="504.98" y1="177.22" x2="504.98" y2="185.42"/><line class="cls-5" x1="504.98" y1="173.13" x2="504.98" y2="177.22"/><line class="cls-5" x1="504.98" y1="172.2" x2="504.98" y2="173.13"/><line class="cls-5" x1="504.98" y1="185.42" x2="507.72" y2="185.42"/><line class="cls-5" x1="507.72" y1="185.42" x2="507.72" y2="189.06"/><line class="cls-5" x1="164.34" y1="189.52" x2="164.34" y2="196.34"/><line class="cls-5" x1="161.6" y1="185.42" x2="161.6" y2="186.33"/><line class="cls-5" x1="161.6" y1="177.22" x2="161.6" y2="185.42"/><line class="cls-5" x1="161.6" y1="173.13" x2="161.6" y2="177.22"/><line class="cls-5" x1="161.6" y1="172.2" x2="161.6" y2="173.13"/><line class="cls-5" x1="161.6" y1="186.33" x2="164.34" y2="186.33"/><line class="cls-5" x1="164.34" y1="186.33" x2="164.34" y2="189.52"/><line class="cls-5" x1="54.57" y1="189.52" x2="54.57" y2="196.34"/><line class="cls-5" x1="57.31" y1="185.42" x2="57.31" y2="186.33"/><line class="cls-5" x1="57.31" y1="177.22" x2="57.31" y2="185.42"/><line class="cls-5" x1="57.31" y1="173.13" x2="57.31" y2="177.22"/><line class="cls-5" x1="57.31" y1="172.2" x2="57.31" y2="173.13"/><line class="cls-5" x1="57.31" y1="186.33" x2="54.57" y2="186.33"/><line class="cls-5" x1="54.57" y1="186.33" x2="54.57" y2="189.52"/><line class="cls-5" x1="559.19" y1="172.2" x2="504.98" y2="172.2"/><line class="cls-5" x1="401.16" y1="172.2" x2="333.29" y2="172.2"/><line class="cls-5" x1="229.45" y1="172.2" x2="161.6" y2="172.2"/><line class="cls-5" x1="57.31" y1="172.2" x2="0.38" y2="172.2"/><line class="cls-5" x1="0.38" y1="196.34" x2="0.38" y2="185.42"/><line class="cls-5" x1="0.38" y1="185.42" x2="0.38" y2="177.22"/><line class="cls-5" x1="0.38" y1="177.22" x2="0.38" y2="173.13"/><line class="cls-5" x1="0.38" y1="173.13" x2="0.38" y2="172.2"/><line class="cls-5" x1="11.3" y1="196.34" x2="54.57" y2="196.34"/><line class="cls-5" x1="164.34" y1="196.34" x2="226.73" y2="196.34"/><line class="cls-5" x1="336.03" y1="196.34" x2="398.42" y2="196.34"/><line class="cls-5" x1="507.72" y1="196.34" x2="534.6" y2="196.34"/><rect class="cls-5" x="333.3" y="169.03" width="25.96" height="2.72"/><rect class="cls-5" x="333.3" y="169.03" width="25.96" height="2.72"/><rect class="cls-5" x="333.3" y="169.03" width="25.96" height="2.72"/><line class="cls-5" x1="359.26" y1="171.74" x2="359.26" y2="169.03"/><line class="cls-5" x1="359.26" y1="169.03" x2="333.29" y2="169.03"/><line class="cls-5" x1="333.29" y1="169.03" x2="333.29" y2="171.74"/><line class="cls-5" x1="333.29" y1="171.74" x2="359.26" y2="171.74"/><rect class="cls-5" x="333.3" y="166.29" width="25.96" height="2.73"/><rect class="cls-5" x="333.3" y="166.29" width="25.96" height="2.73"/><rect class="cls-5" x="333.3" y="166.29" width="25.96" height="2.73"/><line class="cls-5" x1="359.26" y1="169.03" x2="359.26" y2="166.29"/><line class="cls-5" x1="359.26" y1="166.29" x2="333.29" y2="166.29"/><line class="cls-5" x1="333.29" y1="166.29" x2="333.29" y2="169.03"/><line class="cls-5" x1="333.29" y1="169.03" x2="359.26" y2="169.03"/><rect class="cls-5" x="203.5" y="169.03" width="25.95" height="2.72"/><rect class="cls-5" x="203.5" y="169.03" width="25.95" height="2.72"/><rect class="cls-5" x="203.05" y="169.03" width="26.4" height="2.72"/><line class="cls-5" x1="229.45" y1="171.74" x2="229.45" y2="169.03"/><line class="cls-5" x1="229.45" y1="169.03" x2="203.05" y2="169.03"/><line class="cls-5" x1="203.05" y1="169.03" x2="203.05" y2="171.74"/><line class="cls-5" x1="203.05" y1="171.74" x2="229.45" y2="171.74"/><rect class="cls-5" x="203.5" y="166.29" width="25.95" height="2.73"/><rect class="cls-5" x="203.5" y="166.29" width="25.95" height="2.73"/><rect class="cls-5" x="203.05" y="166.29" width="26.4" height="2.73"/><line class="cls-5" x1="229.45" y1="169.03" x2="229.45" y2="166.29"/><line class="cls-5" x1="229.45" y1="166.29" x2="203.05" y2="166.29"/><line class="cls-5" x1="203.05" y1="166.29" x2="203.05" y2="169.03"/><line class="cls-5" x1="203.05" y1="169.03" x2="229.45" y2="169.03"/><line class="cls-5" x1="333.29" y1="172.2" x2="229.45" y2="172.2"/><line class="cls-5" x1="336.03" y1="196.34" x2="226.73" y2="196.34"/><line class="cls-5" x1="336.03" y1="189.06" x2="332.84" y2="189.06"/><line class="cls-5" x1="332.84" y1="189.06" x2="332.84" y2="187.7"/><line class="cls-5" x1="332.84" y1="187.7" x2="331.01" y2="187.7"/><line class="cls-5" x1="331.01" y1="187.7" x2="331.01" y2="185.42"/><line class="cls-5" x1="331.01" y1="185.42" x2="336.03" y2="185.42"/><line class="cls-5" x1="281.38" y1="185.42" x2="331.01" y2="185.42"/><line class="cls-5" x1="328.73" y1="190.89" x2="285.03" y2="190.89"/><line class="cls-5" x1="328.73" y1="187.7" x2="285.03" y2="187.7"/><line class="cls-5" x1="328.73" y1="190.89" x2="285.03" y2="190.89"/><line class="cls-5" x1="328.73" y1="189.52" x2="285.03" y2="189.52"/><line class="cls-5" x1="332.84" y1="190.89" x2="328.73" y2="190.89"/><line class="cls-5" x1="328.73" y1="190.89" x2="328.73" y2="187.7"/><line class="cls-5" x1="328.73" y1="187.7" x2="332.84" y2="187.7"/><line class="cls-5" x1="332.84" y1="187.7" x2="332.84" y2="190.89"/><line class="cls-5" x1="281.38" y1="187.7" x2="285.03" y2="187.7"/><line class="cls-5" x1="285.03" y1="187.7" x2="285.03" y2="190.89"/><line class="cls-5" x1="285.03" y1="190.89" x2="281.38" y2="190.89"/><line class="cls-5" x1="281.38" y1="190.89" x2="281.38" y2="187.7"/><line class="cls-5" x1="334.66" y1="185.42" x2="334.66" y2="189.06"/><line class="cls-5" x1="226.73" y1="185.42" x2="231.29" y2="185.42"/><line class="cls-5" x1="231.29" y1="185.42" x2="231.29" y2="187.7"/><line class="cls-5" x1="231.29" y1="187.7" x2="229.45" y2="187.7"/><line class="cls-5" x1="229.45" y1="187.7" x2="229.45" y2="189.06"/><line class="cls-5" x1="229.45" y1="189.06" x2="226.73" y2="189.06"/><line class="cls-5" x1="231.29" y1="185.42" x2="281.38" y2="185.42"/><line class="cls-5" x1="277.28" y1="190.89" x2="233.55" y2="190.89"/><line class="cls-5" x1="277.28" y1="187.7" x2="233.55" y2="187.7"/><line class="cls-5" x1="277.28" y1="190.89" x2="233.55" y2="190.89"/><line class="cls-5" x1="277.28" y1="189.52" x2="233.55" y2="189.52"/><line class="cls-5" x1="281.38" y1="190.89" x2="277.28" y2="190.89"/><line class="cls-5" x1="277.28" y1="190.89" x2="277.28" y2="187.7"/><line class="cls-5" x1="277.28" y1="187.7" x2="281.38" y2="187.7"/><line class="cls-5" x1="281.38" y1="187.7" x2="281.38" y2="190.89"/><line class="cls-5" x1="229.45" y1="187.7" x2="233.55" y2="187.7"/><line class="cls-5" x1="233.55" y1="187.7" x2="233.55" y2="190.89"/><line class="cls-5" x1="233.55" y1="190.89" x2="229.45" y2="190.89"/><line class="cls-5" x1="229.45" y1="190.89" x2="229.45" y2="187.7"/><line class="cls-5" x1="227.63" y1="185.42" x2="227.63" y2="189.06"/><line class="cls-5" x1="336.03" y1="185.42" x2="336.03" y2="189.06"/><line class="cls-5" x1="333.29" y1="185.42" x2="336.03" y2="185.42"/><line class="cls-5" x1="226.73" y1="185.42" x2="226.73" y2="189.06"/><line class="cls-5" x1="229.45" y1="185.42" x2="226.73" y2="185.42"/><rect class="cls-5" x="504.99" y="169.03" width="25.96" height="2.72"/><rect class="cls-5" x="504.99" y="169.03" width="25.96" height="2.72"/><rect class="cls-5" x="504.99" y="169.03" width="25.96" height="2.72"/><line class="cls-5" x1="530.95" y1="171.74" x2="530.95" y2="169.03"/><line class="cls-5" x1="530.95" y1="169.03" x2="504.98" y2="169.03"/><line class="cls-5" x1="504.98" y1="169.03" x2="504.98" y2="171.74"/><line class="cls-5" x1="504.98" y1="171.74" x2="530.95" y2="171.74"/><rect class="cls-5" x="504.99" y="166.29" width="25.96" height="2.73"/><rect class="cls-5" x="504.99" y="166.29" width="25.96" height="2.73"/><rect class="cls-5" x="504.99" y="166.29" width="25.96" height="2.73"/><line class="cls-5" x1="530.95" y1="169.03" x2="530.95" y2="166.29"/><line class="cls-5" x1="530.95" y1="166.29" x2="504.98" y2="166.29"/><line class="cls-5" x1="504.98" y1="166.29" x2="504.98" y2="169.03"/><line class="cls-5" x1="504.98" y1="169.03" x2="530.95" y2="169.03"/><rect class="cls-5" x="375.19" y="169.03" width="25.96" height="2.72"/><rect class="cls-5" x="375.19" y="169.03" width="25.96" height="2.72"/><rect class="cls-5" x="374.74" y="169.03" width="26.42" height="2.72"/><line class="cls-5" x1="401.16" y1="171.74" x2="401.16" y2="169.03"/><line class="cls-5" x1="401.16" y1="169.03" x2="374.74" y2="169.03"/><line class="cls-5" x1="374.74" y1="169.03" x2="374.74" y2="171.74"/><line class="cls-5" x1="374.74" y1="171.74" x2="401.16" y2="171.74"/><rect class="cls-5" x="375.19" y="166.29" width="25.96" height="2.73"/><rect class="cls-5" x="375.19" y="166.29" width="25.96" height="2.73"/><rect class="cls-5" x="374.74" y="166.29" width="26.42" height="2.73"/><line class="cls-5" x1="401.16" y1="169.03" x2="401.16" y2="166.29"/><line class="cls-5" x1="401.16" y1="166.29" x2="374.74" y2="166.29"/><line class="cls-5" x1="374.74" y1="166.29" x2="374.74" y2="169.03"/><line class="cls-5" x1="374.74" y1="169.03" x2="401.16" y2="169.03"/><line class="cls-5" x1="504.98" y1="172.2" x2="401.16" y2="172.2"/><line class="cls-5" x1="507.72" y1="196.34" x2="398.42" y2="196.34"/><line class="cls-5" x1="507.72" y1="189.06" x2="504.53" y2="189.06"/><line class="cls-5" x1="504.53" y1="189.06" x2="504.53" y2="187.7"/><line class="cls-5" x1="504.53" y1="187.7" x2="502.72" y2="187.7"/><line class="cls-5" x1="502.72" y1="187.7" x2="502.72" y2="185.42"/><line class="cls-5" x1="502.72" y1="185.42" x2="507.72" y2="185.42"/><line class="cls-5" x1="453.07" y1="185.42" x2="502.72" y2="185.42"/><line class="cls-5" x1="500.44" y1="190.89" x2="457.17" y2="190.89"/><line class="cls-5" x1="500.44" y1="187.7" x2="457.17" y2="187.7"/><line class="cls-5" x1="500.44" y1="190.89" x2="457.17" y2="190.89"/><line class="cls-5" x1="500.44" y1="189.52" x2="457.17" y2="189.52"/><line class="cls-5" x1="504.53" y1="190.89" x2="500.44" y2="190.89"/><line class="cls-5" x1="500.44" y1="190.89" x2="500.44" y2="187.7"/><line class="cls-5" x1="500.44" y1="187.7" x2="504.53" y2="187.7"/><line class="cls-5" x1="504.53" y1="187.7" x2="504.53" y2="190.89"/><line class="cls-5" x1="453.07" y1="187.7" x2="457.17" y2="187.7"/><line class="cls-5" x1="457.17" y1="187.7" x2="457.17" y2="190.89"/><line class="cls-5" x1="457.17" y1="190.89" x2="453.07" y2="190.89"/><line class="cls-5" x1="453.07" y1="190.89" x2="453.07" y2="187.7"/><line class="cls-5" x1="506.35" y1="185.42" x2="506.35" y2="189.06"/><line class="cls-5" x1="398.42" y1="185.42" x2="402.98" y2="185.42"/><line class="cls-5" x1="402.98" y1="185.42" x2="402.98" y2="187.7"/><line class="cls-5" x1="402.98" y1="187.7" x2="401.16" y2="187.7"/><line class="cls-5" x1="401.16" y1="187.7" x2="401.16" y2="189.06"/><line class="cls-5" x1="401.16" y1="189.06" x2="398.42" y2="189.06"/><line class="cls-5" x1="402.98" y1="185.42" x2="453.07" y2="185.42"/><line class="cls-5" x1="448.97" y1="190.89" x2="405.25" y2="190.89"/><line class="cls-5" x1="448.97" y1="187.7" x2="405.25" y2="187.7"/><line class="cls-5" x1="448.97" y1="190.89" x2="405.25" y2="190.89"/><line class="cls-5" x1="448.97" y1="189.52" x2="405.25" y2="189.52"/><line class="cls-5" x1="453.07" y1="190.89" x2="448.97" y2="190.89"/><line class="cls-5" x1="448.97" y1="190.89" x2="448.97" y2="187.7"/><line class="cls-5" x1="448.97" y1="187.7" x2="453.07" y2="187.7"/><line class="cls-5" x1="453.07" y1="187.7" x2="453.07" y2="190.89"/><line class="cls-5" x1="401.16" y1="187.7" x2="405.25" y2="187.7"/><line class="cls-5" x1="405.25" y1="187.7" x2="405.25" y2="190.89"/><line class="cls-5" x1="405.25" y1="190.89" x2="401.16" y2="190.89"/><line class="cls-5" x1="401.16" y1="190.89" x2="401.16" y2="187.7"/><line class="cls-5" x1="399.34" y1="185.42" x2="399.34" y2="189.06"/><line class="cls-5" x1="507.72" y1="185.42" x2="507.72" y2="189.06"/><line class="cls-5" x1="504.98" y1="185.42" x2="507.72" y2="185.42"/><line class="cls-5" x1="398.42" y1="185.42" x2="398.42" y2="189.06"/><line class="cls-5" x1="401.16" y1="185.42" x2="398.42" y2="185.42"/><line class="cls-5" x1="54.57" y1="186.33" x2="58.21" y2="186.33"/><line class="cls-5" x1="58.21" y1="186.33" x2="58.21" y2="189.52"/><line class="cls-5" x1="58.21" y1="189.52" x2="54.57" y2="189.52"/><line class="cls-5" x1="54.57" y1="189.52" x2="54.57" y2="186.33"/><line class="cls-5" x1="111.95" y1="186.33" x2="111.95" y2="187.7"/><line class="cls-5" x1="111.95" y1="187.7" x2="111.49" y2="187.7"/><line class="cls-5" x1="111.49" y1="187.7" x2="111.49" y2="189.52"/><line class="cls-5" x1="111.49" y1="189.52" x2="108.32" y2="189.52"/><line class="cls-5" x1="108.32" y1="189.52" x2="108.32" y2="186.33"/><line class="cls-5" x1="108.32" y1="186.33" x2="111.95" y2="186.33"/><line class="cls-5" x1="164.34" y1="189.52" x2="161.6" y2="189.52"/><line class="cls-5" x1="161.6" y1="189.52" x2="161.6" y2="187.7"/><line class="cls-5" x1="161.6" y1="187.7" x2="160.69" y2="187.7"/><line class="cls-5" x1="160.69" y1="187.7" x2="160.69" y2="186.33"/><line class="cls-5" x1="160.69" y1="186.33" x2="164.34" y2="186.33"/><line class="cls-5" x1="164.34" y1="186.33" x2="164.34" y2="189.52"/><line class="cls-5" x1="60.95" y1="187.7" x2="105.58" y2="187.7"/><line class="cls-5" x1="105.58" y1="187.7" x2="105.58" y2="189.52"/><line class="cls-5" x1="105.58" y1="189.52" x2="60.95" y2="189.52"/><line class="cls-5" x1="60.95" y1="189.52" x2="60.95" y2="187.7"/><line class="cls-5" x1="58.21" y1="187.7" x2="60.95" y2="187.7"/><line class="cls-5" x1="60.95" y1="187.7" x2="60.95" y2="189.52"/><line class="cls-5" x1="60.95" y1="189.52" x2="58.21" y2="189.52"/><line class="cls-5" x1="58.21" y1="189.52" x2="58.21" y2="187.7"/><line class="cls-5" x1="105.58" y1="187.7" x2="108.32" y2="187.7"/><line class="cls-5" x1="108.32" y1="187.7" x2="108.32" y2="189.52"/><line class="cls-5" x1="108.32" y1="189.52" x2="105.58" y2="189.52"/><line class="cls-5" x1="105.58" y1="189.52" x2="105.58" y2="187.7"/><line class="cls-5" x1="60.95" y1="188.61" x2="105.58" y2="188.61"/><line class="cls-5" x1="58.21" y1="186.33" x2="108.32" y2="186.33"/><line class="cls-5" x1="108.32" y1="186.33" x2="108.32" y2="187.7"/><line class="cls-5" x1="108.32" y1="187.7" x2="58.21" y2="187.7"/><line class="cls-5" x1="58.21" y1="187.7" x2="58.21" y2="186.33"/><line class="cls-5" x1="58.21" y1="186.33" x2="108.32" y2="186.33"/><line class="cls-5" x1="161.6" y1="189.52" x2="136.55" y2="233.25"/><line class="cls-5" x1="136.55" y1="233.25" x2="134.73" y2="231.88"/><line class="cls-5" x1="134.73" y1="231.88" x2="159.78" y2="188.61"/><line class="cls-5" x1="159.78" y1="188.61" x2="161.6" y2="189.52"/><path class="cls-5" d="M134.73,260.23a49.69,49.69,0,0,1-23.24-42.35" transform="translate(0 -28.35)"/><line class="cls-5" x1="54.57" y1="186.33" x2="54.57" y2="189.52"/><line class="cls-5" x1="57.31" y1="186.33" x2="54.57" y2="186.33"/><line class="cls-5" x1="164.34" y1="186.33" x2="164.34" y2="189.52"/><line class="cls-5" x1="161.6" y1="186.33" x2="164.34" y2="186.33"/><line class="cls-5" x1="559.19" y1="234.6" x2="559.19" y2="172.2"/><line class="cls-5" x1="534.6" y1="196.34" x2="534.6" y2="234.6"/><line class="cls-5" x1="545.53" y1="234.6" x2="553.72" y2="234.6"/><line class="cls-5" x1="553.72" y1="234.6" x2="559.19" y2="234.6"/><line class="cls-5" x1="559.19" y1="172.2" x2="559.19" y2="177.22"/><rect class="cls-5" x="518.2" y="185.42" width="27.33" height="10.92"/><rect class="cls-5" x="534.6" y="458.22" width="10.94" height="27.33"/><rect class="cls-5" x="371.09" y="441.83" width="10.94" height="27.33"/><rect class="cls-5" x="354.7" y="185.42" width="27.33" height="10.92"/><rect class="cls-5" x="196.67" y="458.22" width="10.94" height="27.33"/><rect class="cls-5" x="185.74" y="185.42" width="27.32" height="10.92"/><rect class="cls-5" x="196.67" y="665.43" width="27.33" height="10.94"/><rect class="cls-5" x="191.19" y="959.65" width="27.33" height="10.92"/><rect class="cls-5" x="354.7" y="959.65" width="27.33" height="10.92"/><rect class="cls-5" x="0.38" y="943.24" width="10.92" height="27.33"/><rect class="cls-5" x="0.38" y="752.42" width="10.92" height="27.33"/><rect class="cls-5" x="0.38" y="561.6" width="10.92" height="27.33"/><rect class="cls-5" x="0.38" y="370.77" width="10.92" height="27.33"/><rect class="cls-5" x="0.38" y="185.42" width="10.92" height="27.33"/><text class="cls-6" transform="translate(159.28 838.38)">3К</text><text class="cls-6" transform="translate(148.09 807.07)">№31</text><text class="cls-6" transform="translate(144.72 868.56)">130.9</text><polyline class="cls-5" points="130.93 877.12 130.93 784.85 215.97 784.85 215.97 877.12"/><line class="cls-5" x1="130.93" y1="815.32" x2="215.96" y2="815.32"/><line class="cls-5" x1="130.93" y1="846.22" x2="215.96" y2="846.22"/><line class="cls-5" x1="130.93" y1="877.12" x2="215.96" y2="877.12"/><text class="cls-7" transform="translate(177.31 1068.94)">5.<tspan class="cls-8" x="16.7" y="0">7</tspan></text><text class="cls-7" transform="translate(267.02 108.9)"><tspan class="cls-9">7</tspan><tspan x="9.57" y="0">.1</tspan></text><text class="cls-7" transform="translate(423.92 632.19)">14.3</text><text class="cls-7" transform="translate(462.64 542.92)">2.0</text><text class="cls-7" transform="translate(151.35 943.24)">43.6</text><text class="cls-7" transform="translate(218.53 633.1)">1.8</text><text class="cls-7" transform="translate(66.41 229.13)">18.1</text><text class="cls-7" transform="translate(264.53 229.13)">16.6</text><text class="cls-7" transform="translate(436.68 229.13)">15.3</text><text class="cls-7" transform="translate(49.12 471.88)">3.0</text><text class="cls-7" transform="translate(304.6 609.19)">3.4</text></svg>