<svg id="_366" data-name="366" xmlns="http://www.w3.org/2000/svg" viewBox="0 0 649.49 350.5"><defs><style>.cls-1,.cls-4,.cls-6,.cls-7{fill:none;stroke-linecap:round;stroke-linejoin:round;}.cls-1{stroke:#999;stroke-width:0.5px;}.cls-2{isolation:isolate;font-size:12px;fill:#999;}.cls-2,.cls-3,.cls-5{font-family:PTSans-Regular, PT Sans;}.cls-3{font-size:24px;}.cls-4,.cls-6,.cls-7{stroke:#000;stroke-width:0.75px;}.cls-5{font-size:20px;}.cls-6{stroke-dasharray:2.99 2.99;}.cls-7{stroke-dasharray:2.94 2.94;}</style></defs><title>2floor_366flat</title><line class="cls-1" x1="10.8" y1="189.85" x2="2" y2="189.85"/><polyline class="cls-1" points="5.3 186.25 1.8 189.75 5.3 193.25"/><text class="cls-2" transform="translate(10.2 180.43) rotate(-90)">двор</text><text class="cls-3" transform="translate(231.35 184.25)">CT</text><text class="cls-3" transform="translate(216.13 217.29)">27.74</text><text class="cls-3" transform="translate(212.96 151.7)">№366</text><polyline class="cls-4" points="204.33 225.64 204.33 128.44 285.39 128.44 285.39 225.64"/><line class="cls-4" x1="204.33" y1="160.9" x2="285.39" y2="160.9"/><line class="cls-4" x1="204.33" y1="225.64" x2="285.39" y2="225.64"/><line class="cls-4" x1="204.33" y1="193.37" x2="285.39" y2="193.37"/><text class="cls-5" transform="translate(124.74 183.8)">16.89</text><text class="cls-5" transform="translate(508.84 281.27)">4.07</text><text class="cls-5" transform="translate(508.84 154.33)">3.34</text><text class="cls-5" transform="translate(402.07 154.33)">3.44</text><line class="cls-4" x1="450.94" y1="0.38" x2="495.26" y2="0.38"/><line class="cls-4" x1="465.42" y1="81.63" x2="465.42" y2="59.47"/><line class="cls-4" x1="465.42" y1="103.78" x2="465.42" y2="81.63"/><line class="cls-4" x1="421.1" y1="103.78" x2="465.42" y2="103.78"/><line class="cls-4" x1="421.1" y1="59.47" x2="421.1" y2="103.78"/><line class="cls-4" x1="465.42" y1="59.47" x2="421.1" y2="59.47"/><line class="cls-4" x1="462.46" y1="62.42" x2="424.05" y2="62.42"/><line class="cls-4" x1="424.05" y1="62.42" x2="424.05" y2="100.83"/><line class="cls-4" x1="424.05" y1="100.83" x2="462.46" y2="100.83"/><line class="cls-4" x1="462.46" y1="100.83" x2="462.46" y2="81.63"/><line class="cls-4" x1="462.46" y1="81.63" x2="462.46" y2="62.42"/><line class="cls-4" x1="472.8" y1="128.2" x2="472.8" y2="161.44"/><line class="cls-4" x1="472.8" y1="161.44" x2="486.79" y2="161.44"/><line class="cls-4" x1="472.8" y1="128.2" x2="486.79" y2="128.2"/><line class="cls-4" x1="472.8" y1="150.05" x2="472.8" y2="139.58"/><line class="cls-4" x1="484.03" y1="147.61" x2="484.03" y2="145.84"/><line class="cls-4" x1="481.24" y1="144.81" x2="483.01" y2="144.81"/><line class="cls-4" x1="484.03" y1="143.78" x2="484.03" y2="142.01"/><line class="cls-4" x1="485.05" y1="144.81" x2="486.82" y2="144.81"/><path class="cls-4" d="M509.05,136a14.73,14.73,0,0,1,7-5.75" transform="translate(-28.36)"/><path class="cls-4" d="M507,144.82c0-.4-.05-.8-.05-1.19a14.76,14.76,0,0,1,2.12-7.64" transform="translate(-28.36)"/><path class="cls-4" d="M516,159.39a14.65,14.65,0,0,1-7-5.74" transform="translate(-28.36)"/><path class="cls-4" d="M509.05,153.65a14.81,14.81,0,0,1-2.12-7.64c0-.4,0-.8.05-1.19" transform="translate(-28.36)"/><path class="cls-4" d="M523.5,133.56a27.5,27.5,0,0,1,2.73,10.09" transform="translate(-28.36)"/><path class="cls-4" d="M522.07,158.28a8.38,8.38,0,0,1-6.56,3.16h-.36" transform="translate(-28.36)"/><path class="cls-4" d="M526.23,143.65c0,.39,0,.78,0,1.17s0,.77,0,1.16" transform="translate(-28.36)"/><path class="cls-4" d="M509.58,154.11a61.26,61.26,0,0,1,0-18.6" transform="translate(-28.36)"/><path class="cls-4" d="M517.32,160.58H517a20.77,20.77,0,0,1-13.17-4.72" transform="translate(-28.36)"/><path class="cls-4" d="M502.85,154.33a41.91,41.91,0,0,1-1-9.2v-.31" transform="translate(-28.36)"/><path class="cls-4" d="M503.79,155.86a2.76,2.76,0,0,1-.94-1.53" transform="translate(-28.36)"/><path class="cls-4" d="M503.8,154.19a73.54,73.54,0,0,1-.67-9.37" transform="translate(-28.36)"/><path class="cls-4" d="M517.32,160.58h-.25a18.63,18.63,0,0,1-12.36-4.7" transform="translate(-28.36)"/><path class="cls-4" d="M504.71,155.88a2.78,2.78,0,0,1-.91-1.69" transform="translate(-28.36)"/><path class="cls-4" d="M504.7,133.76a18.65,18.65,0,0,1,12.37-4.71h.23" transform="translate(-28.36)"/><path class="cls-4" d="M503.78,133.78A20.76,20.76,0,0,1,517,129.05h.33" transform="translate(-28.36)"/><path class="cls-4" d="M503.13,144.83a73.4,73.4,0,0,1,.66-9.37" transform="translate(-28.36)"/><path class="cls-4" d="M501.83,144.83v-.37a41.36,41.36,0,0,1,1-9.14" transform="translate(-28.36)"/><path class="cls-4" d="M503.79,135.46a2.75,2.75,0,0,1,.91-1.7" transform="translate(-28.36)"/><path class="cls-4" d="M502.84,135.32a2.83,2.83,0,0,1,.94-1.54" transform="translate(-28.36)"/><path class="cls-4" d="M515.15,128.2h.36a8.38,8.38,0,0,1,6.56,3.16" transform="translate(-28.36)"/><path class="cls-4" d="M522.07,131.35a13.24,13.24,0,0,1,1.43,2.21" transform="translate(-28.36)"/><path class="cls-4" d="M523.5,156.07a13.24,13.24,0,0,1-1.43,2.21" transform="translate(-28.36)"/><path class="cls-4" d="M526.23,146a27.45,27.45,0,0,1-2.73,10.09" transform="translate(-28.36)"/><path class="cls-4" d="M523.89,140.24a19.65,19.65,0,0,1,0,9.15" transform="translate(-28.36)"/><path class="cls-4" d="M516,130.24h.34a5,5,0,0,1,3.76,1.73" transform="translate(-28.36)"/><path class="cls-4" d="M520.11,132a18,18,0,0,1,3.78,8.28" transform="translate(-28.36)"/><path class="cls-4" d="M520.11,157.68a5,5,0,0,1-3.76,1.72H516" transform="translate(-28.36)"/><path class="cls-4" d="M523.89,149.39a18.06,18.06,0,0,1-3.78,8.29" transform="translate(-28.36)"/><path class="cls-4" d="M514.53,144.81a2.15,2.15,0,1,0-2.15,2.16,2.15,2.15,0,0,0,2.15-2.16" transform="translate(-28.36)"/><path class="cls-4" d="M513.92,144.81a1.54,1.54,0,1,0-1.54,1.54,1.54,1.54,0,0,0,1.54-1.54" transform="translate(-28.36)"/><line class="cls-4" x1="531.55" y1="71.03" x2="531.55" y2="96.71"/><line class="cls-4" x1="532.63" y1="59.84" x2="505.3" y2="59.84"/><line class="cls-4" x1="532.63" y1="59.84" x2="532.63" y2="69.47"/><line class="cls-4" x1="518.97" y1="75.53" x2="508.83" y2="75.53"/><line class="cls-4" x1="531.55" y1="96.67" x2="529.1" y2="75.53"/><line class="cls-4" x1="518.97" y1="75.53" x2="529.1" y2="75.53"/><line class="cls-4" x1="506.39" y1="96.67" x2="508.83" y2="75.53"/><line class="cls-4" x1="530.91" y1="96.67" x2="528.46" y2="75.53"/><line class="cls-4" x1="507.03" y1="96.67" x2="509.48" y2="75.53"/><line class="cls-4" x1="506.39" y1="71.01" x2="506.39" y2="96.71"/><line class="cls-4" x1="505.3" y1="59.84" x2="505.3" y2="69.47"/><line class="cls-4" x1="531.55" y1="96.67" x2="531.19" y2="99.52"/><line class="cls-4" x1="531.19" y1="99.52" x2="530.12" y2="102.21"/><line class="cls-4" x1="530.12" y1="102.21" x2="528.4" y2="104.57"/><line class="cls-4" x1="528.4" y1="104.57" x2="526.13" y2="106.47"/><line class="cls-4" x1="526.13" y1="106.47" x2="523.44" y2="107.81"/><line class="cls-4" x1="523.44" y1="107.81" x2="520.49" y2="108.5"/><line class="cls-4" x1="520.49" y1="108.5" x2="517.45" y2="108.5"/><line class="cls-4" x1="517.45" y1="108.5" x2="514.5" y2="107.81"/><line class="cls-4" x1="514.5" y1="107.81" x2="511.81" y2="106.47"/><line class="cls-4" x1="511.81" y1="106.47" x2="509.54" y2="104.57"/><line class="cls-4" x1="509.54" y1="104.57" x2="507.82" y2="102.21"/><line class="cls-4" x1="507.82" y1="102.21" x2="506.74" y2="99.52"/><line class="cls-4" x1="506.74" y1="99.52" x2="506.39" y2="96.67"/><line class="cls-4" x1="530.91" y1="96.67" x2="530.56" y2="99.37"/><line class="cls-4" x1="530.56" y1="99.37" x2="529.54" y2="101.9"/><line class="cls-4" x1="529.54" y1="101.9" x2="527.91" y2="104.14"/><line class="cls-4" x1="527.91" y1="104.14" x2="525.75" y2="105.94"/><line class="cls-4" x1="525.75" y1="105.94" x2="523.21" y2="107.2"/><line class="cls-4" x1="523.21" y1="107.2" x2="520.41" y2="107.85"/><line class="cls-4" x1="520.41" y1="107.85" x2="517.53" y2="107.85"/><line class="cls-4" x1="517.53" y1="107.85" x2="514.74" y2="107.2"/><line class="cls-4" x1="514.74" y1="107.2" x2="512.19" y2="105.94"/><line class="cls-4" x1="512.19" y1="105.94" x2="510.03" y2="104.14"/><line class="cls-4" x1="510.03" y1="104.14" x2="508.4" y2="101.9"/><line class="cls-4" x1="508.4" y1="101.9" x2="507.38" y2="99.37"/><line class="cls-4" x1="507.38" y1="99.37" x2="507.03" y2="96.67"/><path class="cls-4" d="M559.58,71.09a116.61,116.61,0,0,1-12.25.65,116.28,116.28,0,0,1-12.24-.65" transform="translate(-28.36)"/><path class="cls-4" d="M561,69.47a1.62,1.62,0,0,1-1.41,1.62" transform="translate(-28.36)"/><path class="cls-4" d="M535.09,71.09a1.62,1.62,0,0,1-1.43-1.62" transform="translate(-28.36)"/><path class="cls-4" d="M548.65,65.91a1.33,1.33,0,1,0-1.32,1.36,1.33,1.33,0,0,0,1.32-1.36" transform="translate(-28.36)"/><line class="cls-4" x1="595.64" y1="63.78" x2="560.48" y2="63.78"/><line class="cls-4" x1="556.34" y1="67.71" x2="556.34" y2="153.75"/><line class="cls-4" x1="599.78" y1="67.71" x2="599.78" y2="153.75"/><line class="cls-4" x1="552.21" y1="178.02" x2="552.21" y2="59.84"/><line class="cls-4" x1="603.91" y1="178.02" x2="603.91" y2="59.84"/><line class="cls-4" x1="603.91" y1="178.02" x2="552.21" y2="178.02"/><line class="cls-4" x1="603.91" y1="59.84" x2="552.21" y2="59.84"/><line class="cls-4" x1="592.58" y1="139.92" x2="592.58" y2="72.6"/><line class="cls-4" x1="590.51" y1="70.63" x2="565.61" y2="70.63"/><line class="cls-4" x1="563.54" y1="139.92" x2="563.54" y2="72.6"/><line class="cls-4" x1="579.33" y1="84.46" x2="581.88" y2="84.46"/><line class="cls-4" x1="578.06" y1="83.25" x2="578.06" y2="80.82"/><line class="cls-4" x1="576.79" y1="84.46" x2="574.24" y2="84.46"/><line class="cls-4" x1="578.06" y1="85.67" x2="578.06" y2="88.1"/><path class="cls-4" d="M628.13,153.75c0,11.42-9.72,20.68-21.71,20.68s-21.72-9.26-21.72-20.68" transform="translate(-28.36)"/><path class="cls-4" d="M584.7,67.71a4,4,0,0,1,4.14-3.93" transform="translate(-28.36)"/><path class="cls-4" d="M624,63.78a4,4,0,0,1,4.13,3.93" transform="translate(-28.36)"/><path class="cls-4" d="M608.58,84.46a2.16,2.16,0,1,0-2.16,2.06,2.11,2.11,0,0,0,2.16-2.06" transform="translate(-28.36)"/><path class="cls-4" d="M620.94,139.92c0,7.64-6.5,13.83-14.52,13.83s-14.53-6.19-14.53-13.83" transform="translate(-28.36)"/><path class="cls-4" d="M618.87,70.63a2,2,0,0,1,2.07,2" transform="translate(-28.36)"/><path class="cls-4" d="M591.89,72.6a2,2,0,0,1,2.07-2" transform="translate(-28.36)"/><path class="cls-4" d="M609.3,84.46a2.89,2.89,0,1,0-2.88,2.75,2.82,2.82,0,0,0,2.88-2.75" transform="translate(-28.36)"/><line class="cls-4" x1="644.55" y1="350.02" x2="644.55" y2="350.02"/><line class="cls-4" x1="611.64" y1="350.02" x2="611.64" y2="350.02"/><line class="cls-4" x1="603.41" y1="350.02" x2="603.41" y2="350.02"/><line class="cls-4" x1="570.51" y1="350.02" x2="570.51" y2="350.02"/><line class="cls-4" x1="562.29" y1="350.02" x2="562.29" y2="350.02"/><line class="cls-4" x1="529.38" y1="350.02" x2="529.38" y2="350.02"/><line class="cls-4" x1="521.16" y1="350.02" x2="521.16" y2="350.02"/><line class="cls-4" x1="488.25" y1="350.02" x2="488.25" y2="350.02"/><line class="cls-4" x1="480.02" y1="350.02" x2="480.02" y2="350.02"/><line class="cls-4" x1="447.12" y1="350.02" x2="447.12" y2="350.02"/><line class="cls-4" x1="438.89" y1="350.02" x2="438.89" y2="350.02"/><line class="cls-4" x1="405.99" y1="350.02" x2="405.99" y2="350.02"/><line class="cls-4" x1="397.76" y1="350.02" x2="397.76" y2="350.02"/><line class="cls-4" x1="364.86" y1="350.02" x2="364.86" y2="350.02"/><line class="cls-4" x1="356.63" y1="350.02" x2="356.63" y2="350.02"/><line class="cls-4" x1="323.72" y1="350.02" x2="323.72" y2="350.02"/><line class="cls-4" x1="315.5" y1="350.02" x2="315.5" y2="350.02"/><line class="cls-4" x1="282.59" y1="350.02" x2="282.59" y2="350.02"/><line class="cls-4" x1="274.37" y1="350.02" x2="274.37" y2="350.02"/><line class="cls-4" x1="624.18" y1="350" x2="624.18" y2="350"/><line class="cls-4" x1="593.22" y1="349.99" x2="593.22" y2="349.99"/><line class="cls-4" x1="556.09" y1="350.02" x2="556.09" y2="350.02"/><line class="cls-4" x1="525.14" y1="350.01" x2="525.14" y2="350.01"/><line class="cls-4" x1="488.01" y1="350.04" x2="488.01" y2="350.04"/><line class="cls-4" x1="457.06" y1="350.03" x2="457.06" y2="350.03"/><line class="cls-4" x1="444.44" y1="349.39" x2="444.44" y2="349.39"/><line class="cls-4" x1="419.93" y1="350.06" x2="419.93" y2="350.06"/><line class="cls-4" x1="388.97" y1="350.05" x2="388.97" y2="350.05"/><line class="cls-4" x1="376.36" y1="349.41" x2="376.36" y2="349.41"/><line class="cls-4" x1="351.84" y1="350.08" x2="351.84" y2="350.08"/><line class="cls-4" x1="345.4" y1="349.4" x2="345.4" y2="349.4"/><line class="cls-4" x1="320.89" y1="350.07" x2="320.89" y2="350.07"/><line class="cls-4" x1="308.28" y1="349.43" x2="308.28" y2="349.43"/><line class="cls-4" x1="283.76" y1="350.1" x2="283.76" y2="350.1"/><line class="cls-4" x1="277.32" y1="349.42" x2="277.32" y2="349.42"/><line class="cls-4" x1="635.63" y1="338.3" x2="647.45" y2="326.48"/><line class="cls-4" x1="627.28" y1="338.3" x2="639.09" y2="326.48"/><line class="cls-4" x1="618.92" y1="338.3" x2="630.74" y2="326.48"/><line class="cls-4" x1="610.56" y1="338.3" x2="622.38" y2="326.48"/><line class="cls-4" x1="602.21" y1="338.3" x2="614.02" y2="326.48"/><line class="cls-4" x1="593.85" y1="338.3" x2="605.67" y2="326.48"/><line class="cls-4" x1="585.49" y1="338.3" x2="597.31" y2="326.48"/><line class="cls-4" x1="577.14" y1="338.3" x2="588.96" y2="326.48"/><line class="cls-4" x1="568.78" y1="338.3" x2="580.6" y2="326.48"/><line class="cls-4" x1="560.42" y1="338.3" x2="572.24" y2="326.48"/><line class="cls-4" x1="552.07" y1="338.3" x2="563.89" y2="326.48"/><line class="cls-4" x1="543.71" y1="338.3" x2="555.53" y2="326.48"/><line class="cls-4" x1="535.35" y1="338.3" x2="547.17" y2="326.48"/><line class="cls-4" x1="526.99" y1="338.3" x2="538.81" y2="326.48"/><line class="cls-4" x1="518.64" y1="338.3" x2="530.46" y2="326.48"/><line class="cls-4" x1="510.28" y1="338.3" x2="522.1" y2="326.48"/><line class="cls-4" x1="501.92" y1="338.3" x2="513.74" y2="326.48"/><line class="cls-4" x1="493.57" y1="338.3" x2="505.39" y2="326.48"/><line class="cls-4" x1="485.21" y1="338.3" x2="497.03" y2="326.48"/><line class="cls-4" x1="476.86" y1="338.3" x2="488.67" y2="326.48"/><line class="cls-4" x1="468.5" y1="338.3" x2="480.32" y2="326.48"/><line class="cls-4" x1="460.14" y1="338.3" x2="471.96" y2="326.48"/><line class="cls-4" x1="451.79" y1="338.3" x2="463.6" y2="326.48"/><line class="cls-4" x1="443.43" y1="338.3" x2="455.25" y2="326.48"/><line class="cls-4" x1="435.07" y1="338.3" x2="446.89" y2="326.48"/><line class="cls-4" x1="426.72" y1="338.3" x2="438.53" y2="326.48"/><line class="cls-4" x1="418.36" y1="338.3" x2="430.18" y2="326.48"/><line class="cls-4" x1="410" y1="338.3" x2="421.82" y2="326.48"/><line class="cls-4" x1="401.64" y1="338.3" x2="413.46" y2="326.48"/><line class="cls-4" x1="393.29" y1="338.3" x2="405.11" y2="326.48"/><line class="cls-4" x1="384.93" y1="338.3" x2="396.75" y2="326.48"/><line class="cls-4" x1="376.57" y1="338.3" x2="388.39" y2="326.48"/><line class="cls-4" x1="368.22" y1="338.3" x2="380.03" y2="326.48"/><line class="cls-4" x1="359.86" y1="338.3" x2="371.68" y2="326.48"/><line class="cls-4" x1="351.5" y1="338.3" x2="363.32" y2="326.48"/><line class="cls-4" x1="343.15" y1="338.3" x2="354.96" y2="326.48"/><line class="cls-4" x1="334.79" y1="338.3" x2="346.61" y2="326.48"/><line class="cls-4" x1="326.43" y1="338.3" x2="338.25" y2="326.48"/><line class="cls-4" x1="318.08" y1="338.3" x2="329.9" y2="326.48"/><line class="cls-4" x1="309.72" y1="338.3" x2="321.54" y2="326.48"/><line class="cls-4" x1="301.36" y1="338.3" x2="313.18" y2="326.48"/><line class="cls-4" x1="293.01" y1="338.3" x2="304.83" y2="326.48"/><line class="cls-4" x1="284.65" y1="338.3" x2="296.47" y2="326.48"/><line class="cls-4" x1="276.29" y1="338.3" x2="288.11" y2="326.48"/><line class="cls-4" x1="272.93" y1="333.31" x2="279.75" y2="326.48"/><line class="cls-4" x1="648.17" y1="338.3" x2="649.12" y2="337.35"/><line class="cls-4" x1="640.76" y1="337.35" x2="640.76" y2="337.35"/><line class="cls-4" x1="641.81" y1="336.31" x2="644.94" y2="333.18"/><line class="cls-4" x1="645.98" y1="332.13" x2="645.98" y2="332.13"/><line class="cls-4" x1="632.4" y1="337.35" x2="635.54" y2="334.22"/><line class="cls-4" x1="636.58" y1="333.18" x2="636.58" y2="333.18"/><line class="cls-4" x1="637.63" y1="332.13" x2="640.76" y2="329"/><line class="cls-4" x1="641.81" y1="327.95" x2="641.81" y2="327.95"/><line class="cls-4" x1="642.85" y1="326.91" x2="643.27" y2="326.48"/><line class="cls-4" x1="623.1" y1="338.3" x2="626.13" y2="335.27"/><line class="cls-4" x1="627.18" y1="334.22" x2="627.18" y2="334.22"/><line class="cls-4" x1="628.23" y1="333.18" x2="631.36" y2="330.04"/><line class="cls-4" x1="632.4" y1="329" x2="632.4" y2="329"/><line class="cls-4" x1="633.45" y1="327.95" x2="634.92" y2="326.48"/><line class="cls-4" x1="614.74" y1="338.3" x2="616.74" y2="336.31"/><line class="cls-4" x1="617.78" y1="335.27" x2="617.78" y2="335.27"/><line class="cls-4" x1="618.82" y1="334.22" x2="621.96" y2="331.09"/><line class="cls-4" x1="623" y1="330.04" x2="623" y2="330.04"/><line class="cls-4" x1="624.05" y1="329" x2="626.56" y2="326.48"/><line class="cls-4" x1="606.38" y1="338.3" x2="607.33" y2="337.35"/><line class="cls-4" x1="608.38" y1="336.31" x2="608.38" y2="336.31"/><line class="cls-4" x1="609.42" y1="335.27" x2="612.55" y2="332.13"/><line class="cls-4" x1="613.6" y1="331.09" x2="613.6" y2="331.09"/><line class="cls-4" x1="614.65" y1="330.04" x2="617.78" y2="326.91"/><line class="cls-4" x1="598.97" y1="337.35" x2="598.97" y2="337.35"/><line class="cls-4" x1="600.02" y1="336.31" x2="603.16" y2="333.18"/><line class="cls-4" x1="604.2" y1="332.13" x2="604.2" y2="332.13"/><line class="cls-4" x1="605.24" y1="331.09" x2="608.38" y2="327.95"/><line class="cls-4" x1="609.42" y1="326.91" x2="609.42" y2="326.91"/><line class="cls-4" x1="590.62" y1="337.35" x2="593.75" y2="334.22"/><line class="cls-4" x1="594.8" y1="333.18" x2="594.8" y2="333.18"/><line class="cls-4" x1="595.84" y1="332.13" x2="598.97" y2="329"/><line class="cls-4" x1="600.02" y1="327.95" x2="600.02" y2="327.95"/><line class="cls-4" x1="601.07" y1="326.91" x2="601.49" y2="326.48"/><line class="cls-4" x1="581.31" y1="338.3" x2="584.35" y2="335.27"/><line class="cls-4" x1="585.39" y1="334.22" x2="585.39" y2="334.22"/><line class="cls-4" x1="586.44" y1="333.18" x2="589.58" y2="330.04"/><line class="cls-4" x1="590.62" y1="329" x2="590.62" y2="329"/><line class="cls-4" x1="591.66" y1="327.95" x2="593.13" y2="326.48"/><line class="cls-4" x1="572.96" y1="338.3" x2="574.95" y2="336.31"/><line class="cls-4" x1="576" y1="335.27" x2="576" y2="335.27"/><line class="cls-4" x1="577.04" y1="334.22" x2="580.17" y2="331.09"/><line class="cls-4" x1="581.22" y1="330.04" x2="581.22" y2="330.04"/><line class="cls-4" x1="582.26" y1="329" x2="584.77" y2="326.48"/><line class="cls-4" x1="564.6" y1="338.3" x2="565.55" y2="337.35"/><line class="cls-4" x1="566.59" y1="336.31" x2="566.59" y2="336.31"/><line class="cls-4" x1="567.64" y1="335.27" x2="570.77" y2="332.13"/><line class="cls-4" x1="571.82" y1="331.09" x2="571.82" y2="331.09"/><line class="cls-4" x1="572.86" y1="330.04" x2="576" y2="326.91"/><line class="cls-4" x1="557.19" y1="337.35" x2="557.19" y2="337.35"/><line class="cls-4" x1="558.24" y1="336.31" x2="561.37" y2="333.18"/><line class="cls-4" x1="562.42" y1="332.13" x2="562.42" y2="332.13"/><line class="cls-4" x1="563.46" y1="331.09" x2="566.59" y2="327.95"/><line class="cls-4" x1="567.64" y1="326.91" x2="567.64" y2="326.91"/><line class="cls-4" x1="548.84" y1="337.35" x2="551.97" y2="334.22"/><line class="cls-4" x1="553.01" y1="333.18" x2="553.01" y2="333.18"/><line class="cls-4" x1="554.06" y1="332.13" x2="557.19" y2="329"/><line class="cls-4" x1="558.24" y1="327.95" x2="558.24" y2="327.95"/><line class="cls-4" x1="559.28" y1="326.91" x2="559.71" y2="326.48"/><line class="cls-4" x1="539.53" y1="338.3" x2="542.57" y2="335.27"/><line class="cls-4" x1="543.61" y1="334.22" x2="543.61" y2="334.22"/><line class="cls-4" x1="544.66" y1="333.18" x2="547.79" y2="330.04"/><line class="cls-4" x1="548.84" y1="329" x2="548.84" y2="329"/><line class="cls-4" x1="549.88" y1="327.95" x2="551.35" y2="326.48"/><line class="cls-4" x1="531.18" y1="338.3" x2="533.17" y2="336.31"/><line class="cls-4" x1="534.21" y1="335.27" x2="534.21" y2="335.27"/><line class="cls-4" x1="535.26" y1="334.22" x2="538.39" y2="331.09"/><line class="cls-4" x1="539.43" y1="330.04" x2="539.43" y2="330.04"/><line class="cls-4" x1="540.48" y1="329" x2="542.99" y2="326.48"/><line class="cls-4" x1="522.82" y1="338.3" x2="523.77" y2="337.35"/><line class="cls-4" x1="524.81" y1="336.31" x2="524.81" y2="336.31"/><line class="cls-4" x1="525.85" y1="335.27" x2="528.99" y2="332.13"/><line class="cls-4" x1="530.03" y1="331.09" x2="530.03" y2="331.09"/><line class="cls-4" x1="531.08" y1="330.04" x2="534.21" y2="326.91"/><line class="cls-4" x1="515.41" y1="337.35" x2="515.41" y2="337.35"/><line class="cls-4" x1="516.45" y1="336.31" x2="519.59" y2="333.18"/><line class="cls-4" x1="520.63" y1="332.13" x2="520.63" y2="332.13"/><line class="cls-4" x1="521.68" y1="331.09" x2="524.81" y2="327.95"/><line class="cls-4" x1="525.85" y1="326.91" x2="525.85" y2="326.91"/><line class="cls-4" x1="507.05" y1="337.35" x2="510.19" y2="334.22"/><line class="cls-4" x1="511.23" y1="333.18" x2="511.23" y2="333.18"/><line class="cls-4" x1="512.27" y1="332.13" x2="515.41" y2="329"/><line class="cls-4" x1="516.45" y1="327.95" x2="516.45" y2="327.95"/><line class="cls-4" x1="517.5" y1="326.91" x2="517.92" y2="326.48"/><line class="cls-4" x1="497.75" y1="338.3" x2="500.78" y2="335.27"/><line class="cls-4" x1="501.83" y1="334.22" x2="501.83" y2="334.22"/><line class="cls-4" x1="502.87" y1="333.18" x2="506.01" y2="330.04"/><line class="cls-4" x1="507.05" y1="329" x2="507.05" y2="329"/><line class="cls-4" x1="508.1" y1="327.95" x2="509.57" y2="326.48"/><line class="cls-4" x1="489.39" y1="338.3" x2="491.38" y2="336.31"/><line class="cls-4" x1="492.43" y1="335.27" x2="492.43" y2="335.27"/><line class="cls-4" x1="493.47" y1="334.22" x2="496.61" y2="331.09"/><line class="cls-4" x1="497.65" y1="330.04" x2="497.65" y2="330.04"/><line class="cls-4" x1="498.69" y1="329" x2="501.21" y2="326.48"/><line class="cls-4" x1="481.03" y1="338.3" x2="481.98" y2="337.35"/><line class="cls-4" x1="483.03" y1="336.31" x2="483.03" y2="336.31"/><line class="cls-4" x1="484.07" y1="335.27" x2="487.2" y2="332.13"/><line class="cls-4" x1="488.25" y1="331.09" x2="488.25" y2="331.09"/><line class="cls-4" x1="489.29" y1="330.04" x2="492.43" y2="326.91"/><line class="cls-4" x1="473.62" y1="337.35" x2="473.62" y2="337.35"/><line class="cls-4" x1="474.67" y1="336.31" x2="477.8" y2="333.18"/><line class="cls-4" x1="478.85" y1="332.13" x2="478.85" y2="332.13"/><line class="cls-4" x1="479.89" y1="331.09" x2="483.03" y2="327.95"/><line class="cls-4" x1="484.07" y1="326.91" x2="484.07" y2="326.91"/><line class="cls-4" x1="465.27" y1="337.35" x2="468.4" y2="334.22"/><line class="cls-4" x1="469.45" y1="333.18" x2="469.45" y2="333.18"/><line class="cls-4" x1="470.49" y1="332.13" x2="473.62" y2="329"/><line class="cls-4" x1="474.67" y1="327.95" x2="474.67" y2="327.95"/><line class="cls-4" x1="475.71" y1="326.91" x2="476.14" y2="326.48"/><line class="cls-4" x1="455.96" y1="338.3" x2="459" y2="335.27"/><line class="cls-4" x1="460.04" y1="334.22" x2="460.04" y2="334.22"/><line class="cls-4" x1="461.09" y1="333.18" x2="464.22" y2="330.04"/><line class="cls-4" x1="465.27" y1="329" x2="465.27" y2="329"/><line class="cls-4" x1="466.31" y1="327.95" x2="467.78" y2="326.48"/><line class="cls-4" x1="447.61" y1="338.3" x2="449.6" y2="336.31"/><line class="cls-4" x1="450.64" y1="335.27" x2="450.64" y2="335.27"/><line class="cls-4" x1="451.69" y1="334.22" x2="454.82" y2="331.09"/><line class="cls-4" x1="455.87" y1="330.04" x2="455.87" y2="330.04"/><line class="cls-4" x1="456.91" y1="329" x2="459.42" y2="326.48"/><line class="cls-4" x1="439.25" y1="338.3" x2="440.2" y2="337.35"/><line class="cls-4" x1="441.24" y1="336.31" x2="441.24" y2="336.31"/><line class="cls-4" x1="442.29" y1="335.27" x2="445.42" y2="332.13"/><line class="cls-4" x1="446.46" y1="331.09" x2="446.46" y2="331.09"/><line class="cls-4" x1="447.51" y1="330.04" x2="450.64" y2="326.91"/><line class="cls-4" x1="431.84" y1="337.35" x2="431.84" y2="337.35"/><line class="cls-4" x1="432.88" y1="336.31" x2="436.02" y2="333.18"/><line class="cls-4" x1="437.06" y1="332.13" x2="437.06" y2="332.13"/><line class="cls-4" x1="438.11" y1="331.09" x2="441.24" y2="327.95"/><line class="cls-4" x1="442.29" y1="326.91" x2="442.29" y2="326.91"/><line class="cls-4" x1="423.48" y1="337.35" x2="426.62" y2="334.22"/><line class="cls-4" x1="427.66" y1="333.18" x2="427.66" y2="333.18"/><line class="cls-4" x1="428.71" y1="332.13" x2="431.84" y2="329"/><line class="cls-4" x1="432.88" y1="327.95" x2="432.88" y2="327.95"/><line class="cls-4" x1="433.93" y1="326.91" x2="434.35" y2="326.48"/><line class="cls-4" x1="414.18" y1="338.3" x2="417.22" y2="335.27"/><line class="cls-4" x1="418.26" y1="334.22" x2="418.26" y2="334.22"/><line class="cls-4" x1="419.3" y1="333.18" x2="422.44" y2="330.04"/><line class="cls-4" x1="423.48" y1="329" x2="423.48" y2="329"/><line class="cls-4" x1="424.53" y1="327.95" x2="426" y2="326.48"/><line class="cls-4" x1="405.82" y1="338.3" x2="407.81" y2="336.31"/><line class="cls-4" x1="408.86" y1="335.27" x2="408.86" y2="335.27"/><line class="cls-4" x1="409.91" y1="334.22" x2="413.04" y2="331.09"/><line class="cls-4" x1="414.08" y1="330.04" x2="414.08" y2="330.04"/><line class="cls-4" x1="415.13" y1="329" x2="417.64" y2="326.48"/><line class="cls-4" x1="397.47" y1="338.3" x2="398.42" y2="337.35"/><line class="cls-4" x1="399.46" y1="336.31" x2="399.46" y2="336.31"/><line class="cls-4" x1="400.5" y1="335.27" x2="403.64" y2="332.13"/><line class="cls-4" x1="404.68" y1="331.09" x2="404.68" y2="331.09"/><line class="cls-4" x1="405.72" y1="330.04" x2="408.86" y2="326.91"/><line class="cls-4" x1="390.06" y1="337.35" x2="390.06" y2="337.35"/><line class="cls-4" x1="391.1" y1="336.31" x2="394.23" y2="333.18"/><line class="cls-4" x1="395.28" y1="332.13" x2="395.28" y2="332.13"/><line class="cls-4" x1="396.33" y1="331.09" x2="399.46" y2="327.95"/><line class="cls-4" x1="400.5" y1="326.91" x2="400.5" y2="326.91"/><line class="cls-4" x1="381.7" y1="337.35" x2="384.84" y2="334.22"/><line class="cls-4" x1="385.88" y1="333.18" x2="385.88" y2="333.18"/><line class="cls-4" x1="386.92" y1="332.13" x2="390.06" y2="329"/><line class="cls-4" x1="391.1" y1="327.95" x2="391.1" y2="327.95"/><line class="cls-4" x1="392.15" y1="326.91" x2="392.57" y2="326.48"/><line class="cls-4" x1="372.4" y1="338.3" x2="375.43" y2="335.27"/><line class="cls-4" x1="376.48" y1="334.22" x2="376.48" y2="334.22"/><line class="cls-4" x1="377.52" y1="333.18" x2="380.65" y2="330.04"/><line class="cls-4" x1="381.7" y1="329" x2="381.7" y2="329"/><line class="cls-4" x1="382.75" y1="327.95" x2="384.22" y2="326.48"/><line class="cls-4" x1="364.04" y1="338.3" x2="366.03" y2="336.31"/><line class="cls-4" x1="367.07" y1="335.27" x2="367.07" y2="335.27"/><line class="cls-4" x1="368.12" y1="334.22" x2="371.26" y2="331.09"/><line class="cls-4" x1="372.3" y1="330.04" x2="372.3" y2="330.04"/><line class="cls-4" x1="373.34" y1="329" x2="375.86" y2="326.48"/><line class="cls-4" x1="355.68" y1="338.3" x2="356.63" y2="337.35"/><line class="cls-4" x1="357.68" y1="336.31" x2="357.68" y2="336.31"/><line class="cls-4" x1="358.72" y1="335.27" x2="361.85" y2="332.13"/><line class="cls-4" x1="362.9" y1="331.09" x2="362.9" y2="331.09"/><line class="cls-4" x1="363.94" y1="330.04" x2="367.07" y2="326.91"/><line class="cls-4" x1="348.27" y1="337.35" x2="348.27" y2="337.35"/><line class="cls-4" x1="349.32" y1="336.31" x2="352.45" y2="333.18"/><line class="cls-4" x1="353.5" y1="332.13" x2="353.5" y2="332.13"/><line class="cls-4" x1="354.54" y1="331.09" x2="357.68" y2="327.95"/><line class="cls-4" x1="358.72" y1="326.91" x2="358.72" y2="326.91"/><line class="cls-4" x1="339.92" y1="337.35" x2="343.05" y2="334.22"/><line class="cls-4" x1="344.1" y1="333.18" x2="344.1" y2="333.18"/><line class="cls-4" x1="345.14" y1="332.13" x2="348.27" y2="329"/><line class="cls-4" x1="349.32" y1="327.95" x2="349.32" y2="327.95"/><line class="cls-4" x1="350.36" y1="326.91" x2="350.79" y2="326.48"/><line class="cls-4" x1="330.61" y1="338.3" x2="333.65" y2="335.27"/><line class="cls-4" x1="334.69" y1="334.22" x2="334.69" y2="334.22"/><line class="cls-4" x1="335.74" y1="333.18" x2="338.87" y2="330.04"/><line class="cls-4" x1="339.92" y1="329" x2="339.92" y2="329"/><line class="cls-4" x1="340.96" y1="327.95" x2="342.43" y2="326.48"/><line class="cls-4" x1="322.25" y1="338.3" x2="324.25" y2="336.31"/><line class="cls-4" x1="325.29" y1="335.27" x2="325.29" y2="335.27"/><line class="cls-4" x1="326.34" y1="334.22" x2="329.47" y2="331.09"/><line class="cls-4" x1="330.52" y1="330.04" x2="330.52" y2="330.04"/><line class="cls-4" x1="331.56" y1="329" x2="334.07" y2="326.48"/><line class="cls-4" x1="313.9" y1="338.3" x2="314.85" y2="337.35"/><line class="cls-4" x1="315.89" y1="336.31" x2="315.89" y2="336.31"/><line class="cls-4" x1="316.94" y1="335.27" x2="320.07" y2="332.13"/><line class="cls-4" x1="321.11" y1="331.09" x2="321.11" y2="331.09"/><line class="cls-4" x1="322.16" y1="330.04" x2="325.29" y2="326.91"/><line class="cls-4" x1="306.49" y1="337.35" x2="306.49" y2="337.35"/><line class="cls-4" x1="307.53" y1="336.31" x2="310.67" y2="333.18"/><line class="cls-4" x1="311.71" y1="332.13" x2="311.71" y2="332.13"/><line class="cls-4" x1="312.76" y1="331.09" x2="315.89" y2="327.95"/><line class="cls-4" x1="316.94" y1="326.91" x2="316.94" y2="326.91"/><line class="cls-4" x1="298.13" y1="337.35" x2="301.27" y2="334.22"/><line class="cls-4" x1="302.31" y1="333.18" x2="302.31" y2="333.18"/><line class="cls-4" x1="303.36" y1="332.13" x2="306.49" y2="329"/><line class="cls-4" x1="307.53" y1="327.95" x2="307.53" y2="327.95"/><line class="cls-4" x1="308.58" y1="326.91" x2="309" y2="326.48"/><line class="cls-4" x1="288.83" y1="338.3" x2="291.87" y2="335.27"/><line class="cls-4" x1="292.91" y1="334.22" x2="292.91" y2="334.22"/><line class="cls-4" x1="293.95" y1="333.18" x2="297.09" y2="330.04"/><line class="cls-4" x1="298.13" y1="329" x2="298.13" y2="329"/><line class="cls-4" x1="299.18" y1="327.95" x2="300.65" y2="326.48"/><line class="cls-4" x1="280.47" y1="338.3" x2="282.46" y2="336.31"/><line class="cls-4" x1="283.51" y1="335.27" x2="283.51" y2="335.27"/><line class="cls-4" x1="284.55" y1="334.22" x2="287.69" y2="331.09"/><line class="cls-4" x1="288.73" y1="330.04" x2="288.73" y2="330.04"/><line class="cls-4" x1="289.78" y1="329" x2="292.29" y2="326.48"/><line class="cls-4" x1="272.93" y1="337.49" x2="273.06" y2="337.35"/><line class="cls-4" x1="274.11" y1="336.31" x2="274.11" y2="336.31"/><line class="cls-4" x1="275.15" y1="335.27" x2="278.29" y2="332.13"/><line class="cls-4" x1="279.33" y1="331.09" x2="279.33" y2="331.09"/><line class="cls-4" x1="280.37" y1="330.04" x2="283.51" y2="326.91"/><line class="cls-4" x1="272.93" y1="329.13" x2="274.11" y2="327.95"/><line class="cls-4" x1="275.15" y1="326.91" x2="275.15" y2="326.91"/><line class="cls-4" x1="272.93" y1="349.38" x2="648.9" y2="349.38"/><line class="cls-4" x1="272.93" y1="338.3" x2="648.9" y2="338.3"/><line class="cls-4" x1="648.9" y1="326.48" x2="272.93" y2="326.48"/><line class="cls-4" x1="272.93" y1="350.12" x2="648.9" y2="350.12"/><line class="cls-4" x1="241.46" y1="350.02" x2="241.46" y2="350.02"/><line class="cls-4" x1="233.24" y1="350.02" x2="233.24" y2="350.02"/><line class="cls-4" x1="200.33" y1="350.02" x2="200.33" y2="350.02"/><line class="cls-4" x1="192.11" y1="350.02" x2="192.11" y2="350.02"/><line class="cls-4" x1="159.2" y1="350.02" x2="159.2" y2="350.02"/><line class="cls-4" x1="150.97" y1="350.02" x2="150.97" y2="350.02"/><line class="cls-4" x1="118.07" y1="350.02" x2="118.07" y2="350.02"/><line class="cls-4" x1="109.84" y1="350.02" x2="109.84" y2="350.02"/><line class="cls-4" x1="252.8" y1="350.09" x2="252.8" y2="350.09"/><line class="cls-4" x1="240.19" y1="349.45" x2="240.19" y2="349.45"/><line class="cls-4" x1="215.68" y1="350.12" x2="215.68" y2="350.12"/><line class="cls-4" x1="209.23" y1="349.44" x2="209.23" y2="349.44"/><line class="cls-4" x1="184.72" y1="350.11" x2="184.72" y2="350.11"/><line class="cls-4" x1="172.11" y1="349.47" x2="172.11" y2="349.47"/><line class="cls-4" x1="141.15" y1="349.46" x2="141.15" y2="349.46"/><line class="cls-4" x1="104.02" y1="349.49" x2="104.02" y2="349.49"/><line class="cls-4" x1="267.93" y1="338.3" x2="272.93" y2="333.31"/><line class="cls-4" x1="259.58" y1="338.3" x2="271.4" y2="326.48"/><line class="cls-4" x1="251.22" y1="338.3" x2="263.04" y2="326.48"/><line class="cls-4" x1="242.87" y1="338.3" x2="254.68" y2="326.48"/><line class="cls-4" x1="234.51" y1="338.3" x2="246.33" y2="326.48"/><line class="cls-4" x1="226.15" y1="338.3" x2="237.97" y2="326.48"/><line class="cls-4" x1="217.8" y1="338.3" x2="229.61" y2="326.48"/><line class="cls-4" x1="209.44" y1="338.3" x2="221.26" y2="326.48"/><line class="cls-4" x1="201.08" y1="338.3" x2="212.9" y2="326.48"/><line class="cls-4" x1="192.73" y1="338.3" x2="204.54" y2="326.48"/><line class="cls-4" x1="184.37" y1="338.3" x2="196.19" y2="326.48"/><line class="cls-4" x1="176.01" y1="338.3" x2="187.83" y2="326.48"/><line class="cls-4" x1="167.66" y1="338.3" x2="179.47" y2="326.48"/><line class="cls-4" x1="159.3" y1="338.3" x2="171.12" y2="326.48"/><line class="cls-4" x1="150.94" y1="338.3" x2="162.76" y2="326.48"/><line class="cls-4" x1="142.58" y1="338.3" x2="154.4" y2="326.48"/><line class="cls-4" x1="134.23" y1="338.3" x2="146.05" y2="326.48"/><line class="cls-4" x1="125.87" y1="338.3" x2="137.69" y2="326.48"/><line class="cls-4" x1="117.51" y1="338.3" x2="129.33" y2="326.48"/><line class="cls-4" x1="109.16" y1="338.3" x2="120.97" y2="326.48"/><line class="cls-4" x1="100.8" y1="338.3" x2="112.62" y2="326.48"/><line class="cls-4" x1="272.12" y1="338.3" x2="272.93" y2="337.49"/><line class="cls-4" x1="264.71" y1="337.35" x2="264.71" y2="337.35"/><line class="cls-4" x1="265.75" y1="336.31" x2="268.88" y2="333.18"/><line class="cls-4" x1="269.93" y1="332.13" x2="269.93" y2="332.13"/><line class="cls-4" x1="270.97" y1="331.09" x2="272.93" y2="329.13"/><line class="cls-4" x1="256.35" y1="337.35" x2="259.48" y2="334.22"/><line class="cls-4" x1="260.53" y1="333.18" x2="260.53" y2="333.18"/><line class="cls-4" x1="261.57" y1="332.13" x2="264.71" y2="329"/><line class="cls-4" x1="265.75" y1="327.95" x2="265.75" y2="327.95"/><line class="cls-4" x1="266.79" y1="326.91" x2="267.22" y2="326.48"/><line class="cls-4" x1="247.05" y1="338.3" x2="250.08" y2="335.27"/><line class="cls-4" x1="251.13" y1="334.22" x2="251.13" y2="334.22"/><line class="cls-4" x1="252.17" y1="333.18" x2="255.3" y2="330.04"/><line class="cls-4" x1="256.35" y1="329" x2="256.35" y2="329"/><line class="cls-4" x1="257.39" y1="327.95" x2="258.86" y2="326.48"/><line class="cls-4" x1="238.69" y1="338.3" x2="240.68" y2="336.31"/><line class="cls-4" x1="241.72" y1="335.27" x2="241.72" y2="335.27"/><line class="cls-4" x1="242.77" y1="334.22" x2="245.9" y2="331.09"/><line class="cls-4" x1="246.95" y1="330.04" x2="246.95" y2="330.04"/><line class="cls-4" x1="247.99" y1="329" x2="250.51" y2="326.48"/><line class="cls-4" x1="230.33" y1="338.3" x2="231.28" y2="337.35"/><line class="cls-4" x1="232.32" y1="336.31" x2="232.32" y2="336.31"/><line class="cls-4" x1="233.37" y1="335.27" x2="236.5" y2="332.13"/><line class="cls-4" x1="237.55" y1="331.09" x2="237.55" y2="331.09"/><line class="cls-4" x1="238.59" y1="330.04" x2="241.72" y2="326.91"/><line class="cls-4" x1="222.92" y1="337.35" x2="222.92" y2="337.35"/><line class="cls-4" x1="223.97" y1="336.31" x2="227.1" y2="333.18"/><line class="cls-4" x1="228.14" y1="332.13" x2="228.14" y2="332.13"/><line class="cls-4" x1="229.19" y1="331.09" x2="232.32" y2="327.95"/><line class="cls-4" x1="233.37" y1="326.91" x2="233.37" y2="326.91"/><line class="cls-4" x1="214.56" y1="337.35" x2="217.7" y2="334.22"/><line class="cls-4" x1="218.74" y1="333.18" x2="218.74" y2="333.18"/><line class="cls-4" x1="219.79" y1="332.13" x2="222.92" y2="329"/><line class="cls-4" x1="223.97" y1="327.95" x2="223.97" y2="327.95"/><line class="cls-4" x1="225.01" y1="326.91" x2="225.44" y2="326.48"/><line class="cls-4" x1="205.26" y1="338.3" x2="208.3" y2="335.27"/><line class="cls-4" x1="209.34" y1="334.22" x2="209.34" y2="334.22"/><line class="cls-4" x1="210.39" y1="333.18" x2="213.52" y2="330.04"/><line class="cls-4" x1="214.56" y1="329" x2="214.56" y2="329"/><line class="cls-4" x1="215.61" y1="327.95" x2="217.08" y2="326.48"/><line class="cls-4" x1="196.9" y1="338.3" x2="198.9" y2="336.31"/><line class="cls-4" x1="199.94" y1="335.27" x2="199.94" y2="335.27"/><line class="cls-4" x1="200.98" y1="334.22" x2="204.12" y2="331.09"/><line class="cls-4" x1="205.16" y1="330.04" x2="205.16" y2="330.04"/><line class="cls-4" x1="206.21" y1="329" x2="208.72" y2="326.48"/><line class="cls-4" x1="188.55" y1="338.3" x2="189.49" y2="337.35"/><line class="cls-4" x1="190.54" y1="336.31" x2="190.54" y2="336.31"/><line class="cls-4" x1="191.58" y1="335.27" x2="194.72" y2="332.13"/><line class="cls-4" x1="195.76" y1="331.09" x2="195.76" y2="331.09"/><line class="cls-4" x1="196.81" y1="330.04" x2="199.94" y2="326.91"/><line class="cls-4" x1="181.14" y1="337.35" x2="181.14" y2="337.35"/><line class="cls-4" x1="182.18" y1="336.31" x2="185.32" y2="333.18"/><line class="cls-4" x1="186.36" y1="332.13" x2="186.36" y2="332.13"/><line class="cls-4" x1="187.4" y1="331.09" x2="190.54" y2="327.95"/><line class="cls-4" x1="191.58" y1="326.91" x2="191.58" y2="326.91"/><line class="cls-4" x1="172.78" y1="337.35" x2="175.91" y2="334.22"/><line class="cls-4" x1="176.96" y1="333.18" x2="176.96" y2="333.18"/><line class="cls-4" x1="178.01" y1="332.13" x2="181.14" y2="329"/><line class="cls-4" x1="182.18" y1="327.95" x2="182.18" y2="327.95"/><line class="cls-4" x1="183.23" y1="326.91" x2="183.65" y2="326.48"/><line class="cls-4" x1="163.48" y1="338.3" x2="166.52" y2="335.27"/><line class="cls-4" x1="167.56" y1="334.22" x2="167.56" y2="334.22"/><line class="cls-4" x1="168.6" y1="333.18" x2="171.74" y2="330.04"/><line class="cls-4" x1="172.78" y1="329" x2="172.78" y2="329"/><line class="cls-4" x1="173.82" y1="327.95" x2="175.29" y2="326.48"/><line class="cls-4" x1="155.12" y1="338.3" x2="157.11" y2="336.31"/><line class="cls-4" x1="158.16" y1="335.27" x2="158.16" y2="335.27"/><line class="cls-4" x1="159.2" y1="334.22" x2="162.33" y2="331.09"/><line class="cls-4" x1="163.38" y1="330.04" x2="163.38" y2="330.04"/><line class="cls-4" x1="164.43" y1="329" x2="166.94" y2="326.48"/><line class="cls-4" x1="146.76" y1="338.3" x2="147.71" y2="337.35"/><line class="cls-4" x1="148.75" y1="336.31" x2="148.75" y2="336.31"/><line class="cls-4" x1="149.8" y1="335.27" x2="152.94" y2="332.13"/><line class="cls-4" x1="153.98" y1="331.09" x2="153.98" y2="331.09"/><line class="cls-4" x1="155.02" y1="330.04" x2="158.16" y2="326.91"/><line class="cls-4" x1="139.36" y1="337.35" x2="139.36" y2="337.35"/><line class="cls-4" x1="140.4" y1="336.31" x2="143.53" y2="333.18"/><line class="cls-4" x1="144.58" y1="332.13" x2="144.58" y2="332.13"/><line class="cls-4" x1="145.62" y1="331.09" x2="148.75" y2="327.95"/><line class="cls-4" x1="149.8" y1="326.91" x2="149.8" y2="326.91"/><line class="cls-4" x1="131" y1="337.35" x2="134.13" y2="334.22"/><line class="cls-4" x1="135.18" y1="333.18" x2="135.18" y2="333.18"/><line class="cls-4" x1="136.22" y1="332.13" x2="139.36" y2="329"/><line class="cls-4" x1="140.4" y1="327.95" x2="140.4" y2="327.95"/><line class="cls-4" x1="141.44" y1="326.91" x2="141.87" y2="326.48"/><line class="cls-4" x1="121.69" y1="338.3" x2="124.73" y2="335.27"/><line class="cls-4" x1="125.78" y1="334.22" x2="125.78" y2="334.22"/><line class="cls-4" x1="126.82" y1="333.18" x2="129.95" y2="330.04"/><line class="cls-4" x1="131" y1="329" x2="131" y2="329"/><line class="cls-4" x1="132.04" y1="327.95" x2="133.51" y2="326.48"/><line class="cls-4" x1="113.34" y1="338.3" x2="115.33" y2="336.31"/><line class="cls-4" x1="116.37" y1="335.27" x2="116.37" y2="335.27"/><line class="cls-4" x1="117.42" y1="334.22" x2="120.55" y2="331.09"/><line class="cls-4" x1="121.6" y1="330.04" x2="121.6" y2="330.04"/><line class="cls-4" x1="122.64" y1="329" x2="125.16" y2="326.48"/><line class="cls-4" x1="104.98" y1="338.3" x2="105.93" y2="337.35"/><line class="cls-4" x1="106.97" y1="336.31" x2="106.97" y2="336.31"/><line class="cls-4" x1="108.02" y1="335.27" x2="111.15" y2="332.13"/><line class="cls-4" x1="112.2" y1="331.09" x2="112.2" y2="331.09"/><line class="cls-4" x1="113.24" y1="330.04" x2="116.37" y2="326.91"/><line class="cls-4" x1="97.57" y1="337.35" x2="97.57" y2="337.35"/><line class="cls-4" x1="91.22" y1="349.38" x2="272.93" y2="349.38"/><line class="cls-4" x1="83.93" y1="349.38" x2="91.22" y2="349.38"/><line class="cls-4" x1="96.39" y1="338.3" x2="272.93" y2="338.3"/><line class="cls-4" x1="272.93" y1="326.48" x2="109.69" y2="326.48"/><line class="cls-4" x1="83.1" y1="350.12" x2="83.84" y2="350.12"/><line class="cls-4" x1="83.84" y1="350.12" x2="272.93" y2="350.12"/><line class="cls-4" x1="538.1" y1="0.38" x2="544.01" y2="0.38"/><line class="cls-4" x1="471.33" y1="326.48" x2="471.33" y2="279.87"/><line class="cls-4" x1="471.33" y1="212.73" x2="471.33" y2="185.77"/><line class="cls-4" x1="471.33" y1="179.86" x2="471.33" y2="15.15"/><line class="cls-4" x1="465.42" y1="15.15" x2="465.42" y2="212.73"/><line class="cls-4" x1="465.42" y1="279.87" x2="465.42" y2="326.48"/><line class="cls-4" x1="465.42" y1="326.48" x2="471.33" y2="326.48"/><line class="cls-4" x1="465.42" y1="212.73" x2="471.33" y2="212.73"/><line class="cls-4" x1="465.42" y1="279.87" x2="471.33" y2="279.87"/><line class="cls-4" x1="514.17" y1="52.08" x2="514.17" y2="15.15"/><line class="cls-4" x1="514.17" y1="15.15" x2="508.26" y2="15.15"/><line class="cls-4" x1="508.26" y1="15.15" x2="508.26" y2="52.08"/><line class="cls-4" x1="504.38" y1="57.99" x2="504.57" y2="57.8"/><line class="cls-4" x1="503.33" y1="57.99" x2="504.57" y2="56.76"/><line class="cls-4" x1="475.02" y1="52.88" x2="475.81" y2="52.08"/><line class="cls-4" x1="475.02" y1="55.03" x2="475.02" y2="52.08"/><line class="cls-4" x1="475.02" y1="57.99" x2="475.02" y2="55.03"/><line class="cls-4" x1="504.57" y1="55.03" x2="504.57" y2="52.08"/><line class="cls-4" x1="504.57" y1="57.99" x2="504.57" y2="55.03"/><line class="cls-4" x1="471.33" y1="57.99" x2="475.02" y2="57.99"/><line class="cls-4" x1="504.57" y1="57.99" x2="605.76" y2="57.99"/><line class="cls-4" x1="605.76" y1="57.99" x2="605.76" y2="52.08"/><line class="cls-4" x1="605.76" y1="52.08" x2="514.17" y2="52.08"/><line class="cls-4" x1="508.26" y1="52.08" x2="504.57" y2="52.08"/><line class="cls-4" x1="475.02" y1="52.08" x2="471.33" y2="52.08"/><line class="cls-4" x1="471.33" y1="52.08" x2="471.33" y2="57.99"/><line class="cls-4" x1="504.57" y1="57.99" x2="475.02" y2="57.99"/><line class="cls-4" x1="504.57" y1="52.08" x2="475.02" y2="52.08"/><path class="cls-4" d="M532.92,58a29.52,29.52,0,0,1-1.78,10.1" transform="translate(-28.36)"/><line class="cls-4" x1="475.02" y1="57.99" x2="502.78" y2="68.09"/><line class="cls-4" x1="504.57" y1="57.99" x2="504.57" y2="55.03"/><line class="cls-4" x1="504.57" y1="57.99" x2="504.57" y2="55.03"/><line class="cls-4" x1="504.57" y1="55.03" x2="504.57" y2="52.08"/><line class="cls-4" x1="475.02" y1="57.99" x2="475.02" y2="55.03"/><line class="cls-4" x1="475.02" y1="57.99" x2="475.02" y2="55.03"/><line class="cls-4" x1="475.02" y1="55.03" x2="475.02" y2="52.08"/><line class="cls-4" x1="605.76" y1="202.76" x2="634.13" y2="202.76"/><line class="cls-4" x1="648.9" y1="187.99" x2="620.53" y2="187.99"/><line class="cls-4" x1="605.76" y1="187.99" x2="605.76" y2="202.76"/><line class="cls-4" x1="620.53" y1="187.99" x2="620.53" y2="0.38"/><line class="cls-4" x1="605.76" y1="15.15" x2="605.76" y2="187.99"/><line class="cls-4" x1="471.33" y1="185.77" x2="491.27" y2="185.77"/><line class="cls-4" x1="550.36" y1="185.77" x2="605.76" y2="185.77"/><line class="cls-4" x1="605.76" y1="185.77" x2="605.76" y2="179.86"/><line class="cls-4" x1="605.76" y1="179.86" x2="550.36" y2="179.86"/><line class="cls-4" x1="491.27" y1="179.86" x2="471.33" y2="179.86"/><line class="cls-4" x1="550.36" y1="185.77" x2="550.36" y2="179.86"/><line class="cls-4" x1="491.27" y1="185.77" x2="491.27" y2="179.86"/><line class="cls-4" x1="620.53" y1="93.44" x2="620.53" y2="99.35"/><line class="cls-4" x1="648.9" y1="187.99" x2="642.99" y2="187.99"/><line class="cls-4" x1="648.9" y1="187.99" x2="642.99" y2="187.99"/><line class="cls-4" x1="648.9" y1="187.99" x2="642.99" y2="187.99"/><line class="cls-4" x1="648.9" y1="187.99" x2="642.99" y2="187.99"/><line class="cls-4" x1="83.8" y1="343.17" x2="83.8" y2="343.17"/><line class="cls-4" x1="83.8" y1="310.26" x2="83.8" y2="310.26"/><line class="cls-4" x1="83.8" y1="302.04" x2="83.8" y2="302.04"/><line class="cls-4" x1="83.8" y1="22.35" x2="83.8" y2="22.35"/><line class="cls-4" x1="83.8" y1="14.12" x2="83.8" y2="14.12"/><line class="cls-4" x1="83.8" y1="228" x2="83.8" y2="228"/><line class="cls-4" x1="83.8" y1="219.77" x2="83.8" y2="219.77"/><line class="cls-4" x1="83.8" y1="186.87" x2="83.8" y2="186.87"/><line class="cls-4" x1="83.8" y1="178.64" x2="83.8" y2="178.64"/><line class="cls-4" x1="83.77" y1="191.79" x2="83.77" y2="191.79"/><line class="cls-4" x1="83.61" y1="208.36" x2="83.61" y2="208.36"/><line class="cls-4" x1="83.45" y1="224.93" x2="83.45" y2="224.93"/><line class="cls-4" x1="92.44" y1="338.3" x2="104.26" y2="326.48"/><line class="cls-4" x1="91.22" y1="331.17" x2="95.91" y2="326.48"/><line class="cls-4" x1="98.62" y1="336.31" x2="101.75" y2="333.18"/><line class="cls-4" x1="102.79" y1="332.13" x2="102.79" y2="332.13"/><line class="cls-4" x1="103.84" y1="331.09" x2="106.97" y2="327.95"/><line class="cls-4" x1="108.02" y1="326.91" x2="108.02" y2="326.91"/><line class="cls-4" x1="91.22" y1="335.34" x2="92.35" y2="334.22"/><line class="cls-4" x1="93.39" y1="333.18" x2="93.39" y2="333.18"/><line class="cls-4" x1="94.44" y1="332.13" x2="97.57" y2="329"/><line class="cls-4" x1="98.62" y1="327.95" x2="98.62" y2="327.95"/><line class="cls-4" x1="99.66" y1="326.91" x2="100.08" y2="326.48"/><line class="cls-4" x1="91.22" y1="326.99" x2="91.73" y2="326.48"/><line class="cls-4" x1="86.74" y1="165.95" x2="86.74" y2="165.95"/><line class="cls-4" x1="83.93" y1="349.38" x2="83.84" y2="349.38"/><line class="cls-4" x1="83.84" y1="338.3" x2="83.84" y2="349.38"/><line class="cls-4" x1="83.84" y1="0.38" x2="83.84" y2="29.55"/><line class="cls-4" x1="83.84" y1="166.2" x2="83.84" y2="231.2"/><line class="cls-4" x1="83.84" y1="300.63" x2="83.84" y2="338.3"/><line class="cls-4" x1="96.39" y1="338.3" x2="91.22" y2="338.3"/><line class="cls-4" x1="109.69" y1="326.48" x2="91.22" y2="326.48"/><line class="cls-4" x1="91.22" y1="326.48" x2="91.22" y2="338.3"/><line class="cls-4" x1="91.22" y1="0.38" x2="91.22" y2="27.34"/><line class="cls-4" x1="91.22" y1="168.42" x2="91.22" y2="228.98"/><line class="cls-4" x1="91.22" y1="302.85" x2="91.22" y2="326.48"/><line class="cls-4" x1="91.22" y1="231.2" x2="91.22" y2="231.94"/><line class="cls-4" x1="83.84" y1="231.2" x2="91.22" y2="231.2"/><line class="cls-4" x1="83.1" y1="231.2" x2="83.1" y2="231.94"/><line class="cls-4" x1="91.22" y1="231.94" x2="83.1" y2="231.94"/><line class="cls-4" x1="91.22" y1="300.63" x2="91.22" y2="299.89"/><line class="cls-4" x1="83.84" y1="300.63" x2="91.22" y2="300.63"/><line class="cls-4" x1="83.1" y1="300.63" x2="83.1" y2="299.89"/><line class="cls-4" x1="91.22" y1="299.89" x2="83.1" y2="299.89"/><line class="cls-4" x1="95.65" y1="228.98" x2="109.69" y2="228.98"/><line class="cls-4" x1="83.84" y1="231.94" x2="91.22" y2="231.94"/><line class="cls-4" x1="83.1" y1="231.94" x2="83.84" y2="231.94"/><line class="cls-4" x1="91.22" y1="231.94" x2="91.22" y2="228.98"/><line class="cls-4" x1="91.22" y1="228.98" x2="95.65" y2="228.98"/><line class="cls-4" x1="95.65" y1="302.85" x2="109.69" y2="302.85"/><line class="cls-4" x1="83.84" y1="299.89" x2="91.22" y2="299.89"/><line class="cls-4" x1="83.1" y1="299.89" x2="83.84" y2="299.89"/><line class="cls-4" x1="91.22" y1="299.89" x2="91.22" y2="302.85"/><line class="cls-4" x1="91.22" y1="302.85" x2="95.65" y2="302.85"/><line class="cls-4" x1="91.22" y1="29.55" x2="91.22" y2="30.29"/><line class="cls-4" x1="83.84" y1="29.55" x2="91.22" y2="29.55"/><line class="cls-4" x1="83.1" y1="29.55" x2="83.1" y2="30.29"/><line class="cls-4" x1="91.22" y1="30.29" x2="83.1" y2="30.29"/><line class="cls-4" x1="91.22" y1="166.2" x2="91.22" y2="165.46"/><line class="cls-4" x1="83.84" y1="166.2" x2="91.22" y2="166.2"/><line class="cls-4" x1="83.1" y1="166.2" x2="83.1" y2="165.46"/><line class="cls-4" x1="91.22" y1="165.46" x2="83.1" y2="165.46"/><line class="cls-4" x1="95.65" y1="27.34" x2="109.69" y2="27.34"/><line class="cls-4" x1="83.84" y1="30.29" x2="91.22" y2="30.29"/><line class="cls-4" x1="83.1" y1="30.29" x2="83.84" y2="30.29"/><line class="cls-4" x1="91.22" y1="30.29" x2="91.22" y2="27.34"/><line class="cls-4" x1="91.22" y1="27.34" x2="95.65" y2="27.34"/><line class="cls-4" x1="95.65" y1="168.42" x2="109.69" y2="168.42"/><line class="cls-4" x1="83.84" y1="165.46" x2="91.22" y2="165.46"/><line class="cls-4" x1="83.1" y1="165.46" x2="83.84" y2="165.46"/><line class="cls-4" x1="91.22" y1="165.46" x2="91.22" y2="168.42"/><line class="cls-4" x1="91.22" y1="168.42" x2="95.65" y2="168.42"/><line class="cls-4" x1="83.1" y1="0.38" x2="83.1" y2="29.55"/><line class="cls-4" x1="83.1" y1="166.2" x2="83.1" y2="231.2"/><line class="cls-4" x1="83.1" y1="300.63" x2="83.1" y2="350.12"/><line class="cls-4" x1="109.69" y1="326.48" x2="109.69" y2="302.85"/><line class="cls-4" x1="109.69" y1="228.98" x2="109.69" y2="168.42"/><line class="cls-4" x1="109.69" y1="27.34" x2="109.69" y2="15.15"/><line class="cls-4" x1="83.1" y1="299.89" x2="83.1" y2="231.94"/><line class="cls-4" x1="109.69" y1="302.85" x2="109.69" y2="228.98"/><line class="cls-4" x1="95.65" y1="302.85" x2="95.65" y2="298.79"/><line class="cls-4" x1="95.65" y1="298.79" x2="92.7" y2="298.79"/><line class="cls-4" x1="92.7" y1="298.79" x2="92.7" y2="296.94"/><line class="cls-4" x1="92.7" y1="296.94" x2="91.22" y2="296.94"/><line class="cls-4" x1="91.22" y1="296.94" x2="91.22" y2="302.85"/><line class="cls-4" x1="91.22" y1="228.98" x2="91.22" y2="234.89"/><line class="cls-4" x1="91.22" y1="234.89" x2="92.7" y2="234.89"/><line class="cls-4" x1="92.7" y1="234.89" x2="92.7" y2="233.05"/><line class="cls-4" x1="92.7" y1="233.05" x2="95.65" y2="233.05"/><line class="cls-4" x1="95.65" y1="233.05" x2="95.65" y2="228.98"/><line class="cls-4" x1="91.22" y1="234.89" x2="91.22" y2="296.94"/><line class="cls-4" x1="97.13" y1="294.35" x2="97.13" y2="237.48"/><line class="cls-4" x1="97.13" y1="298.79" x2="97.13" y2="294.35"/><line class="cls-4" x1="97.13" y1="294.35" x2="92.7" y2="294.35"/><line class="cls-4" x1="92.7" y1="294.35" x2="92.7" y2="298.79"/><line class="cls-4" x1="92.7" y1="298.79" x2="97.13" y2="298.79"/><line class="cls-4" x1="92.7" y1="233.05" x2="92.7" y2="237.48"/><line class="cls-4" x1="92.7" y1="237.48" x2="97.13" y2="237.48"/><line class="cls-4" x1="97.13" y1="237.48" x2="97.13" y2="233.05"/><line class="cls-4" x1="97.13" y1="233.05" x2="92.7" y2="233.05"/><line class="cls-4" x1="92.7" y1="237.48" x2="92.7" y2="294.35"/><line class="cls-4" x1="97.13" y1="294.35" x2="97.13" y2="237.48"/><line class="cls-4" x1="94.92" y1="294.35" x2="94.92" y2="237.48"/><line class="cls-4" x1="91.22" y1="302.85" x2="95.65" y2="302.85"/><line class="cls-4" x1="91.22" y1="302.85" x2="95.65" y2="302.85"/><line class="cls-4" x1="91.22" y1="299.89" x2="91.22" y2="302.85"/><line class="cls-4" x1="91.22" y1="299.89" x2="91.22" y2="302.85"/><line class="cls-4" x1="83.1" y1="299.89" x2="83.84" y2="299.89"/><line class="cls-4" x1="83.84" y1="299.89" x2="91.22" y2="299.89"/><line class="cls-4" x1="95.65" y1="302.85" x2="109.69" y2="302.85"/><line class="cls-4" x1="91.22" y1="228.98" x2="95.65" y2="228.98"/><line class="cls-4" x1="91.22" y1="228.98" x2="95.65" y2="228.98"/><line class="cls-4" x1="91.22" y1="231.94" x2="91.22" y2="228.98"/><line class="cls-4" x1="91.22" y1="231.94" x2="91.22" y2="228.98"/><line class="cls-4" x1="83.1" y1="231.94" x2="83.84" y2="231.94"/><line class="cls-4" x1="83.84" y1="231.94" x2="91.22" y2="231.94"/><line class="cls-4" x1="95.65" y1="228.98" x2="109.69" y2="228.98"/><line class="cls-4" x1="83.1" y1="165.46" x2="83.1" y2="30.29"/><line class="cls-4" x1="109.69" y1="168.42" x2="109.69" y2="27.34"/><line class="cls-4" x1="95.65" y1="168.42" x2="95.65" y2="164.35"/><line class="cls-4" x1="95.65" y1="164.35" x2="92.7" y2="164.35"/><line class="cls-4" x1="92.7" y1="164.35" x2="92.7" y2="162.51"/><line class="cls-4" x1="92.7" y1="162.51" x2="91.22" y2="162.51"/><line class="cls-4" x1="91.22" y1="162.51" x2="91.22" y2="168.42"/><line class="cls-4" x1="91.22" y1="116.71" x2="91.22" y2="119.67"/><line class="cls-4" x1="91.22" y1="119.67" x2="92.7" y2="119.67"/><line class="cls-4" x1="92.7" y1="119.67" x2="92.7" y2="117.82"/><line class="cls-4" x1="92.7" y1="117.82" x2="95.65" y2="117.82"/><line class="cls-4" x1="95.65" y1="117.82" x2="95.65" y2="116.71"/><line class="cls-4" x1="91.22" y1="119.67" x2="91.22" y2="162.51"/><line class="cls-4" x1="97.13" y1="159.92" x2="97.13" y2="122.25"/><line class="cls-4" x1="97.13" y1="164.35" x2="97.13" y2="159.92"/><line class="cls-4" x1="97.13" y1="159.92" x2="92.7" y2="159.92"/><line class="cls-4" x1="92.7" y1="159.92" x2="92.7" y2="164.35"/><line class="cls-4" x1="92.7" y1="164.35" x2="97.13" y2="164.35"/><line class="cls-4" x1="92.7" y1="117.82" x2="92.7" y2="122.25"/><line class="cls-4" x1="92.7" y1="122.25" x2="97.13" y2="122.25"/><line class="cls-4" x1="97.13" y1="122.25" x2="97.13" y2="117.82"/><line class="cls-4" x1="97.13" y1="117.82" x2="92.7" y2="117.82"/><line class="cls-4" x1="92.7" y1="122.25" x2="92.7" y2="159.92"/><line class="cls-4" x1="97.13" y1="159.92" x2="97.13" y2="122.25"/><line class="cls-4" x1="94.92" y1="159.92" x2="94.92" y2="122.25"/><line class="cls-4" x1="95.65" y1="116.71" x2="95.65" y2="115.6"/><line class="cls-4" x1="95.65" y1="115.6" x2="92.7" y2="115.6"/><line class="cls-4" x1="92.7" y1="115.6" x2="92.7" y2="113.76"/><line class="cls-4" x1="92.7" y1="113.76" x2="91.22" y2="113.76"/><line class="cls-4" x1="91.22" y1="113.76" x2="91.22" y2="116.71"/><line class="cls-4" x1="91.22" y1="27.34" x2="91.22" y2="33.24"/><line class="cls-4" x1="91.22" y1="33.24" x2="92.7" y2="33.24"/><line class="cls-4" x1="92.7" y1="33.24" x2="92.7" y2="31.4"/><line class="cls-4" x1="92.7" y1="31.4" x2="95.65" y2="31.4"/><line class="cls-4" x1="95.65" y1="31.4" x2="95.65" y2="27.34"/><line class="cls-4" x1="91.22" y1="33.24" x2="91.22" y2="113.76"/><line class="cls-4" x1="97.13" y1="111.17" x2="97.13" y2="35.83"/><line class="cls-4" x1="97.13" y1="115.6" x2="97.13" y2="111.17"/><line class="cls-4" x1="97.13" y1="111.17" x2="92.7" y2="111.17"/><line class="cls-4" x1="92.7" y1="111.17" x2="92.7" y2="115.6"/><line class="cls-4" x1="92.7" y1="115.6" x2="97.13" y2="115.6"/><line class="cls-4" x1="92.7" y1="31.4" x2="92.7" y2="35.83"/><line class="cls-4" x1="92.7" y1="35.83" x2="97.13" y2="35.83"/><line class="cls-4" x1="97.13" y1="35.83" x2="97.13" y2="31.4"/><line class="cls-4" x1="97.13" y1="31.4" x2="92.7" y2="31.4"/><line class="cls-4" x1="92.7" y1="35.83" x2="92.7" y2="111.17"/><line class="cls-4" x1="97.13" y1="111.17" x2="97.13" y2="35.83"/><line class="cls-4" x1="94.92" y1="111.17" x2="94.92" y2="35.83"/><line class="cls-4" x1="91.22" y1="168.42" x2="95.65" y2="168.42"/><line class="cls-4" x1="91.22" y1="168.42" x2="95.65" y2="168.42"/><line class="cls-4" x1="91.22" y1="165.46" x2="91.22" y2="168.42"/><line class="cls-4" x1="91.22" y1="165.46" x2="91.22" y2="168.42"/><line class="cls-4" x1="83.1" y1="165.46" x2="83.84" y2="165.46"/><line class="cls-4" x1="83.84" y1="165.46" x2="91.22" y2="165.46"/><line class="cls-4" x1="95.65" y1="168.42" x2="109.69" y2="168.42"/><line class="cls-4" x1="91.22" y1="27.34" x2="95.65" y2="27.34"/><line class="cls-4" x1="91.22" y1="27.34" x2="95.65" y2="27.34"/><line class="cls-4" x1="91.22" y1="30.29" x2="91.22" y2="27.34"/><line class="cls-4" x1="91.22" y1="30.29" x2="91.22" y2="27.34"/><line class="cls-4" x1="83.1" y1="30.29" x2="83.84" y2="30.29"/><line class="cls-4" x1="83.84" y1="30.29" x2="91.22" y2="30.29"/><line class="cls-4" x1="95.65" y1="27.34" x2="109.69" y2="27.34"/><line class="cls-4" x1="165.09" y1="15.15" x2="427.31" y2="15.15"/><line class="cls-4" x1="501.17" y1="15.15" x2="605.76" y2="15.15"/><line class="cls-4" x1="620.53" y1="0.38" x2="501.17" y2="0.38"/><line class="cls-4" x1="427.31" y1="0.38" x2="165.09" y2="0.38"/><line class="cls-4" x1="634.13" y1="280.32" x2="642.99" y2="280.32"/><line class="cls-4" x1="642.99" y1="280.32" x2="648.9" y2="280.32"/><line class="cls-4" x1="634.13" y1="202.76" x2="642.99" y2="202.76"/><line class="cls-4" x1="642.99" y1="202.76" x2="648.9" y2="202.76"/><line class="cls-4" x1="648.9" y1="350.12" x2="648.9" y2="280.32"/><line class="cls-4" x1="648.9" y1="202.76" x2="648.9" y2="187.99"/><line class="cls-4" x1="634.13" y1="280.32" x2="634.13" y2="326.48"/><line class="cls-4" x1="634.13" y1="326.48" x2="648.9" y2="326.48"/><line class="cls-4" x1="648.9" y1="198.91" x2="648.9" y2="280.32"/><path class="cls-4" d="M603.39,277.37a68,68,0,0,1,68-68" transform="translate(-28.36)"/><line class="cls-4" x1="642.99" y1="206.46" x2="642.99" y2="202.76"/><line class="cls-4" x1="648.9" y1="206.46" x2="648.9" y2="202.76"/><line class="cls-4" x1="642.99" y1="202.76" x2="648.9" y2="202.76"/><line class="cls-4" x1="648.9" y1="206.46" x2="648.9" y2="209.41"/><line class="cls-4" x1="648.9" y1="209.41" x2="642.99" y2="209.41"/><line class="cls-4" x1="642.99" y1="209.41" x2="642.99" y2="206.46"/><line class="cls-4" x1="642.99" y1="206.46" x2="648.9" y2="206.46"/><line class="cls-4" x1="642.99" y1="280.32" x2="642.99" y2="277.37"/><line class="cls-4" x1="642.99" y1="277.37" x2="648.9" y2="277.37"/><line class="cls-4" x1="648.9" y1="277.37" x2="648.9" y2="280.32"/><line class="cls-4" x1="648.9" y1="280.32" x2="642.99" y2="280.32"/><line class="cls-4" x1="642.99" y1="277.37" x2="575.04" y2="277.37"/><line class="cls-4" x1="642.99" y1="202.76" x2="648.9" y2="202.76"/><line class="cls-4" x1="642.99" y1="202.76" x2="648.9" y2="202.76"/><line class="cls-4" x1="634.13" y1="202.76" x2="642.99" y2="202.76"/><line class="cls-4" x1="642.99" y1="280.32" x2="648.9" y2="280.32"/><line class="cls-4" x1="642.99" y1="280.32" x2="648.9" y2="280.32"/><line class="cls-4" x1="634.13" y1="280.32" x2="642.99" y2="280.32"/><line class="cls-4" x1="83.1" y1="230.09" x2="38.78" y2="230.09"/><line class="cls-4" x1="83.1" y1="231.94" x2="83.1" y2="230.09"/><line class="cls-4" x1="40.63" y1="231.94" x2="83.1" y2="231.94"/><line class="cls-4" x1="38.78" y1="230.09" x2="40.63" y2="231.94"/><line class="cls-4" x1="38.78" y1="230.09" x2="38.78" y2="301.74"/><line class="cls-4" x1="40.63" y1="231.94" x2="38.78" y2="230.09"/><line class="cls-4" x1="40.63" y1="299.89" x2="40.63" y2="231.94"/><line class="cls-4" x1="38.78" y1="301.74" x2="40.63" y2="299.89"/><line class="cls-4" x1="38.78" y1="301.74" x2="40.63" y2="299.89"/><line class="cls-4" x1="40.63" y1="299.89" x2="83.1" y2="299.89"/><line class="cls-4" x1="83.1" y1="299.89" x2="83.1" y2="301.74"/><line class="cls-4" x1="83.1" y1="301.74" x2="38.78" y2="301.74"/><line class="cls-4" x1="39.7" y1="231.02" x2="52.73" y2="231.02"/><line class="cls-4" x1="59.25" y1="231.02" x2="59.25" y2="231.02"/><line class="cls-4" x1="64.46" y1="231.02" x2="70.07" y2="231.02"/><line class="cls-4" x1="70.07" y1="231.02" x2="83.1" y2="231.02"/><line class="cls-4" x1="39.7" y1="300.82" x2="39.7" y2="287.79"/><line class="cls-4" x1="39.7" y1="281.27" x2="39.7" y2="281.27"/><line class="cls-4" x1="39.7" y1="276.06" x2="39.7" y2="263.03"/><line class="cls-4" x1="39.7" y1="256.52" x2="39.7" y2="256.52"/><line class="cls-4" x1="39.7" y1="251.31" x2="39.7" y2="244.05"/><line class="cls-4" x1="39.7" y1="244.05" x2="39.7" y2="231.02"/><line class="cls-4" x1="52.07" y1="298.05" x2="52.07" y2="233.79"/><line class="cls-4" x1="52.07" y1="233.79" x2="75.71" y2="233.79"/><line class="cls-4" x1="75.71" y1="233.79" x2="75.71" y2="298.05"/><line class="cls-4" x1="75.71" y1="298.05" x2="52.07" y2="298.05"/><line class="cls-4" x1="54.44" y1="298.05" x2="54.44" y2="233.79"/><line class="cls-4" x1="54.44" y1="233.79" x2="75.71" y2="233.79"/><line class="cls-4" x1="75.71" y1="233.79" x2="75.71" y2="298.05"/><line class="cls-4" x1="75.71" y1="298.05" x2="54.44" y2="298.05"/><line class="cls-4" x1="39.7" y1="300.82" x2="52.73" y2="300.82"/><line class="cls-4" x1="59.25" y1="300.82" x2="59.25" y2="300.82"/><line class="cls-4" x1="64.46" y1="300.82" x2="70.07" y2="300.82"/><line class="cls-4" x1="70.07" y1="300.82" x2="83.1" y2="300.82"/><line class="cls-4" x1="371.14" y1="15.15" x2="371.14" y2="15.15"/><line class="cls-4" x1="371.14" y1="18.1" x2="371.14" y2="19.6"/><line class="cls-6" x1="371.14" y1="22.59" x2="371.14" y2="182.6"/><polyline class="cls-4" points="371.14 184.1 371.14 185.6 372.64 185.6"/><line class="cls-7" x1="375.59" y1="185.6" x2="462.45" y2="185.6"/><line class="cls-4" x1="463.92" y1="185.6" x2="465.42" y2="185.6"/><line class="cls-4" x1="471.02" y1="35.46" x2="471.33" y2="35.15"/><line class="cls-4" x1="465.42" y1="24.38" x2="465.42" y2="35.46"/><line class="cls-4" x1="471.33" y1="35.46" x2="471.33" y2="24.38"/><line class="cls-4" x1="520.82" y1="52.08" x2="535.59" y2="52.08"/><line class="cls-4" x1="535.59" y1="57.99" x2="520.82" y2="57.99"/><line class="cls-4" x1="465.42" y1="72.76" x2="465.42" y2="57.99"/><line class="cls-4" x1="471.33" y1="57.99" x2="471.33" y2="72.76"/><line class="cls-4" x1="602.62" y1="57.99" x2="591.54" y2="57.99"/><line class="cls-4" x1="591.54" y1="52.08" x2="602.62" y2="52.08"/><line class="cls-4" x1="508.03" y1="57.99" x2="508.26" y2="57.76"/><line class="cls-4" x1="493.49" y1="52.17" x2="493.57" y2="52.08"/><line class="cls-4" x1="508.26" y1="52.08" x2="493.49" y2="52.08"/><line class="cls-4" x1="493.49" y1="57.99" x2="508.26" y2="57.99"/><line class="cls-4" x1="508.26" y1="57.99" x2="508.26" y2="52.08"/><line class="cls-4" x1="164.9" y1="15.15" x2="165.09" y2="14.96"/><line class="cls-4" x1="156.54" y1="15.15" x2="165.09" y2="6.6"/><line class="cls-4" x1="148.18" y1="15.15" x2="162.96" y2="0.38"/><line class="cls-4" x1="139.83" y1="15.15" x2="154.6" y2="0.38"/><line class="cls-4" x1="131.47" y1="15.15" x2="146.24" y2="0.38"/><line class="cls-4" x1="123.11" y1="15.15" x2="137.89" y2="0.38"/><line class="cls-4" x1="114.76" y1="15.15" x2="129.53" y2="0.38"/><line class="cls-4" x1="106.4" y1="15.15" x2="121.17" y2="0.38"/><line class="cls-4" x1="98.04" y1="15.15" x2="112.82" y2="0.38"/><line class="cls-4" x1="91.23" y1="13.61" x2="104.46" y2="0.38"/><line class="cls-4" x1="91.23" y1="5.25" x2="96.1" y2="0.38"/><line class="cls-4" x1="161.29" y1="14.58" x2="161.29" y2="14.58"/><line class="cls-4" x1="162.33" y1="13.53" x2="165.09" y2="10.78"/><line class="cls-4" x1="152.94" y1="14.58" x2="156.07" y2="11.44"/><line class="cls-4" x1="157.11" y1="10.4" x2="157.11" y2="10.4"/><line class="cls-4" x1="158.16" y1="9.35" x2="161.29" y2="6.22"/><line class="cls-4" x1="162.33" y1="5.17" x2="162.33" y2="5.17"/><line class="cls-4" x1="163.38" y1="4.13" x2="165.09" y2="2.42"/><line class="cls-4" x1="144.01" y1="15.15" x2="146.66" y2="12.48"/><line class="cls-4" x1="147.71" y1="11.44" x2="147.71" y2="11.44"/><line class="cls-4" x1="148.75" y1="10.4" x2="151.89" y2="7.26"/><line class="cls-4" x1="152.94" y1="6.22" x2="152.94" y2="6.22"/><line class="cls-4" x1="153.98" y1="5.17" x2="157.11" y2="2.04"/><line class="cls-4" x1="158.16" y1="1" x2="158.16" y2="1"/><line class="cls-4" x1="135.65" y1="15.15" x2="137.27" y2="13.53"/><line class="cls-4" x1="138.31" y1="12.48" x2="138.31" y2="12.48"/><line class="cls-4" x1="139.36" y1="11.44" x2="142.49" y2="8.31"/><line class="cls-4" x1="143.53" y1="7.26" x2="143.53" y2="7.26"/><line class="cls-4" x1="144.58" y1="6.22" x2="147.71" y2="3.09"/><line class="cls-4" x1="148.75" y1="2.04" x2="148.75" y2="2.04"/><line class="cls-4" x1="149.8" y1="1" x2="150.42" y2="0.38"/><line class="cls-4" x1="127.29" y1="15.15" x2="127.86" y2="14.58"/><line class="cls-4" x1="128.91" y1="13.53" x2="128.91" y2="13.53"/><line class="cls-4" x1="129.95" y1="12.48" x2="133.09" y2="9.35"/><line class="cls-4" x1="134.13" y1="8.31" x2="134.13" y2="8.31"/><line class="cls-4" x1="135.18" y1="7.26" x2="138.31" y2="4.13"/><line class="cls-4" x1="139.36" y1="3.09" x2="139.36" y2="3.09"/><line class="cls-4" x1="140.4" y1="2.04" x2="142.07" y2="0.38"/><line class="cls-4" x1="119.51" y1="14.58" x2="119.51" y2="14.58"/><line class="cls-4" x1="120.55" y1="13.53" x2="123.69" y2="10.4"/><line class="cls-4" x1="124.73" y1="9.35" x2="124.73" y2="9.35"/><line class="cls-4" x1="125.78" y1="8.31" x2="128.91" y2="5.17"/><line class="cls-4" x1="129.95" y1="4.13" x2="129.95" y2="4.13"/><line class="cls-4" x1="131" y1="3.09" x2="133.71" y2="0.38"/><line class="cls-4" x1="111.15" y1="14.58" x2="114.28" y2="11.44"/><line class="cls-4" x1="115.33" y1="10.4" x2="115.33" y2="10.4"/><line class="cls-4" x1="116.37" y1="9.35" x2="119.51" y2="6.22"/><line class="cls-4" x1="120.55" y1="5.17" x2="120.55" y2="5.17"/><line class="cls-4" x1="121.6" y1="4.13" x2="124.73" y2="1"/><line class="cls-4" x1="102.22" y1="15.15" x2="104.88" y2="12.48"/><line class="cls-4" x1="105.93" y1="11.44" x2="105.93" y2="11.44"/><line class="cls-4" x1="106.97" y1="10.4" x2="110.11" y2="7.26"/><line class="cls-4" x1="111.15" y1="6.22" x2="111.15" y2="6.22"/><line class="cls-4" x1="112.2" y1="5.17" x2="115.33" y2="2.04"/><line class="cls-4" x1="116.37" y1="1" x2="116.37" y2="1"/><line class="cls-4" x1="93.87" y1="15.15" x2="95.48" y2="13.53"/><line class="cls-4" x1="96.53" y1="12.48" x2="96.53" y2="12.48"/><line class="cls-4" x1="97.57" y1="11.44" x2="100.7" y2="8.31"/><line class="cls-4" x1="101.75" y1="7.26" x2="101.75" y2="7.26"/><line class="cls-4" x1="102.79" y1="6.22" x2="105.93" y2="3.09"/><line class="cls-4" x1="106.97" y1="2.04" x2="106.97" y2="2.04"/><line class="cls-4" x1="108.02" y1="1" x2="108.64" y2="0.38"/><line class="cls-4" x1="91.23" y1="9.43" x2="91.3" y2="9.35"/><line class="cls-4" x1="92.35" y1="8.31" x2="92.35" y2="8.31"/><line class="cls-4" x1="93.39" y1="7.26" x2="96.53" y2="4.13"/><line class="cls-4" x1="97.57" y1="3.09" x2="97.57" y2="3.09"/><line class="cls-4" x1="98.62" y1="2.04" x2="100.28" y2="0.38"/><line class="cls-4" x1="91.23" y1="1.07" x2="91.92" y2="0.38"/><line class="cls-4" x1="91.23" y1="0.38" x2="91.23" y2="15.15"/><line class="cls-4" x1="91.23" y1="15.15" x2="165.09" y2="15.15"/><line class="cls-4" x1="165.09" y1="15.15" x2="165.09" y2="0.38"/><line class="cls-4" x1="165.09" y1="0.38" x2="83.1" y2="0.38"/><line class="cls-4" x1="499.17" y1="15.15" x2="501.17" y2="13.15"/><line class="cls-4" x1="490.81" y1="15.15" x2="501.17" y2="4.79"/><line class="cls-4" x1="482.45" y1="15.15" x2="497.23" y2="0.38"/><line class="cls-4" x1="474.1" y1="15.15" x2="488.87" y2="0.38"/><line class="cls-4" x1="465.74" y1="15.15" x2="480.52" y2="0.38"/><line class="cls-4" x1="457.38" y1="15.15" x2="472.16" y2="0.38"/><line class="cls-4" x1="449.03" y1="15.15" x2="463.8" y2="0.38"/><line class="cls-4" x1="440.67" y1="15.15" x2="455.44" y2="0.38"/><line class="cls-4" x1="432.32" y1="15.15" x2="447.09" y2="0.38"/><line class="cls-4" x1="427.31" y1="11.8" x2="438.73" y2="0.38"/><line class="cls-4" x1="427.31" y1="3.44" x2="430.37" y2="0.38"/><line class="cls-4" x1="495.56" y1="14.58" x2="495.56" y2="14.58"/><line class="cls-4" x1="496.61" y1="13.53" x2="499.74" y2="10.4"/><line class="cls-4" x1="500.78" y1="9.35" x2="500.78" y2="9.35"/><line class="cls-4" x1="487.2" y1="14.58" x2="490.34" y2="11.44"/><line class="cls-4" x1="491.38" y1="10.4" x2="491.38" y2="10.4"/><line class="cls-4" x1="492.43" y1="9.35" x2="495.56" y2="6.22"/><line class="cls-4" x1="496.61" y1="5.17" x2="496.61" y2="5.17"/><line class="cls-4" x1="497.65" y1="4.13" x2="500.78" y2="1"/><line class="cls-4" x1="478.28" y1="15.15" x2="480.94" y2="12.48"/><line class="cls-4" x1="481.98" y1="11.44" x2="481.98" y2="11.44"/><line class="cls-4" x1="483.03" y1="10.4" x2="486.16" y2="7.26"/><line class="cls-4" x1="487.2" y1="6.22" x2="487.2" y2="6.22"/><line class="cls-4" x1="488.25" y1="5.17" x2="491.38" y2="2.04"/><line class="cls-4" x1="492.43" y1="1" x2="492.43" y2="1"/><line class="cls-4" x1="469.92" y1="15.15" x2="471.54" y2="13.53"/><line class="cls-4" x1="472.58" y1="12.48" x2="472.58" y2="12.48"/><line class="cls-4" x1="473.62" y1="11.44" x2="476.76" y2="8.31"/><line class="cls-4" x1="477.8" y1="7.26" x2="477.8" y2="7.26"/><line class="cls-4" x1="478.85" y1="6.22" x2="481.98" y2="3.09"/><line class="cls-4" x1="483.03" y1="2.04" x2="483.03" y2="2.04"/><line class="cls-4" x1="484.07" y1="1" x2="484.69" y2="0.38"/><line class="cls-4" x1="461.56" y1="15.15" x2="462.13" y2="14.58"/><line class="cls-4" x1="463.18" y1="13.53" x2="463.18" y2="13.53"/><line class="cls-4" x1="464.22" y1="12.48" x2="467.36" y2="9.35"/><line class="cls-4" x1="468.4" y1="8.31" x2="468.4" y2="8.31"/><line class="cls-4" x1="469.45" y1="7.26" x2="472.58" y2="4.13"/><line class="cls-4" x1="473.62" y1="3.09" x2="473.62" y2="3.09"/><line class="cls-4" x1="474.67" y1="2.04" x2="476.33" y2="0.38"/><line class="cls-4" x1="453.78" y1="14.58" x2="453.78" y2="14.58"/><line class="cls-4" x1="454.82" y1="13.53" x2="457.96" y2="10.4"/><line class="cls-4" x1="459" y1="9.35" x2="459" y2="9.35"/><line class="cls-4" x1="460.04" y1="8.31" x2="463.18" y2="5.17"/><line class="cls-4" x1="464.22" y1="4.13" x2="464.22" y2="4.13"/><line class="cls-4" x1="465.27" y1="3.09" x2="467.98" y2="0.38"/><line class="cls-4" x1="445.42" y1="14.58" x2="448.55" y2="11.44"/><line class="cls-4" x1="449.6" y1="10.4" x2="449.6" y2="10.4"/><line class="cls-4" x1="450.64" y1="9.35" x2="453.78" y2="6.22"/><line class="cls-4" x1="454.82" y1="5.17" x2="454.82" y2="5.17"/><line class="cls-4" x1="455.87" y1="4.13" x2="459" y2="1"/><line class="cls-4" x1="436.49" y1="15.15" x2="439.15" y2="12.48"/><line class="cls-4" x1="440.2" y1="11.44" x2="440.2" y2="11.44"/><line class="cls-4" x1="441.24" y1="10.4" x2="444.38" y2="7.26"/><line class="cls-4" x1="445.42" y1="6.22" x2="445.42" y2="6.22"/><line class="cls-4" x1="446.46" y1="5.17" x2="449.6" y2="2.04"/><line class="cls-4" x1="450.64" y1="1" x2="450.64" y2="1"/><line class="cls-4" x1="428.13" y1="15.15" x2="429.75" y2="13.53"/><line class="cls-4" x1="430.8" y1="12.48" x2="430.8" y2="12.48"/><line class="cls-4" x1="431.84" y1="11.44" x2="434.97" y2="8.31"/><line class="cls-4" x1="436.02" y1="7.26" x2="436.02" y2="7.26"/><line class="cls-4" x1="437.06" y1="6.22" x2="440.2" y2="3.09"/><line class="cls-4" x1="441.24" y1="2.04" x2="441.24" y2="2.04"/><line class="cls-4" x1="442.29" y1="1" x2="442.91" y2="0.38"/><line class="cls-4" x1="427.66" y1="7.26" x2="430.8" y2="4.13"/><line class="cls-4" x1="431.84" y1="3.09" x2="431.84" y2="3.09"/><line class="cls-4" x1="432.88" y1="2.04" x2="434.55" y2="0.38"/><line class="cls-4" x1="427.31" y1="0.38" x2="427.31" y2="15.15"/><line class="cls-4" x1="427.31" y1="15.15" x2="501.17" y2="15.15"/><line class="cls-4" x1="501.17" y1="15.15" x2="501.17" y2="0.38"/><line class="cls-4" x1="501.17" y1="0.38" x2="427.31" y2="0.38"/><path class="cls-4" d="M426.86,212.73A67.14,67.14,0,0,0,494,279.87" transform="translate(-28.36)"/><line class="cls-4" x1="471.33" y1="212.73" x2="398.5" y2="212.73"/><path class="cls-4" d="M519.57,244.29A59.3,59.3,0,0,0,578.86,185" transform="translate(-28.36)"/><line class="cls-4" x1="491.22" y1="179.98" x2="491.22" y2="244.29"/></svg>