<svg id="_221" data-name="221" xmlns="http://www.w3.org/2000/svg" viewBox="0 0 321.85 588.67"><defs><style>.cls-1,.cls-4,.cls-6,.cls-7{fill:none;stroke-linecap:round;stroke-linejoin:round;stroke-width:0.5px;}.cls-1{stroke:#999;}.cls-2{isolation:isolate;font-size:12px;fill:#999;}.cls-2,.cls-3,.cls-5{font-family:PTSans-Regular, PT Sans;}.cls-3{font-size:24px;}.cls-4,.cls-6,.cls-7{stroke:#000;}.cls-5{font-size:20px;}.cls-6{stroke-dasharray:3 3;}.cls-7{stroke-dasharray:3.06 3.06;}</style></defs><title>2floor_221flat</title><line class="cls-1" x1="145.41" y1="577.33" x2="145.41" y2="586.13"/><polyline class="cls-1" points="141.81 582.83 145.31 586.33 148.81 582.83"/><text class="cls-2" transform="translate(154.64 585.73)">двор</text><text class="cls-3" transform="translate(154.27 320.11)">CT</text><text class="cls-3" transform="translate(139.06 353.15)">21.59</text><text class="cls-3" transform="translate(135.89 287.56)">№221</text><polyline class="cls-4" points="127.26 361.51 127.26 264.31 208.32 264.31 208.32 361.51"/><line class="cls-4" x1="127.26" y1="296.77" x2="208.32" y2="296.77"/><line class="cls-4" x1="127.26" y1="361.51" x2="208.32" y2="361.51"/><line class="cls-4" x1="127.26" y1="329.23" x2="208.32" y2="329.23"/><text class="cls-5" transform="translate(57.09 101.61)">2.72</text><text class="cls-5" transform="translate(178.8 241.51)">3.65</text><text class="cls-5" transform="translate(139.54 91.94)">4.34</text><text class="cls-5" transform="translate(163.88 408.04)">10.88</text><line class="cls-4" x1="293.43" y1="121.92" x2="293.43" y2="155.85"/><line class="cls-4" x1="289.39" y1="159.84" x2="201.18" y2="159.84"/><line class="cls-4" x1="289.39" y1="117.93" x2="201.18" y2="117.93"/><line class="cls-4" x1="176.3" y1="163.83" x2="297.47" y2="163.83"/><line class="cls-4" x1="176.3" y1="113.94" x2="297.47" y2="113.94"/><line class="cls-4" x1="176.3" y1="113.94" x2="176.3" y2="163.83"/><line class="cls-4" x1="297.47" y1="113.94" x2="297.47" y2="163.83"/><line class="cls-4" x1="215.36" y1="124.87" x2="284.39" y2="124.87"/><line class="cls-4" x1="286.4" y1="126.87" x2="286.4" y2="150.9"/><line class="cls-4" x1="215.36" y1="152.9" x2="284.39" y2="152.9"/><line class="cls-4" x1="272.23" y1="137.66" x2="272.23" y2="135.2"/><line class="cls-4" x1="273.46" y1="138.88" x2="275.96" y2="138.88"/><line class="cls-4" x1="272.23" y1="140.11" x2="272.23" y2="142.57"/><line class="cls-4" x1="270.99" y1="138.88" x2="268.49" y2="138.88"/><path class="cls-4" d="M201.18,159.84a21,21,0,1,1,0-41.91"/><path class="cls-4" d="M293.43,155.85a4,4,0,0,1-4,4"/><path class="cls-4" d="M289.39,117.93a4,4,0,0,1,4,4"/><path class="cls-4" d="M274.33,138.88a2.11,2.11,0,1,0-2.1,2.09,2.09,2.09,0,0,0,2.1-2.09"/><path class="cls-4" d="M215.36,152.9a14,14,0,1,1,0-28"/><path class="cls-4" d="M284.39,124.87a2,2,0,0,1,2,2"/><path class="cls-4" d="M286.4,150.9a2,2,0,0,1-2,2"/><path class="cls-4" d="M275.05,138.88a2.83,2.83,0,1,0-2.82,2.79,2.8,2.8,0,0,0,2.82-2.79"/><line class="cls-4" x1="252.46" y1="83.67" x2="227.68" y2="83.67"/><line class="cls-4" x1="263.26" y1="84.71" x2="263.26" y2="58.34"/><line class="cls-4" x1="263.26" y1="84.71" x2="253.96" y2="84.71"/><line class="cls-4" x1="248.11" y1="71.53" x2="248.11" y2="61.75"/><line class="cls-4" x1="227.71" y1="83.67" x2="248.11" y2="81.3"/><line class="cls-4" x1="248.11" y1="71.53" x2="248.11" y2="81.3"/><line class="cls-4" x1="227.71" y1="59.38" x2="248.11" y2="61.75"/><line class="cls-4" x1="227.71" y1="83.05" x2="248.11" y2="80.68"/><line class="cls-4" x1="227.71" y1="60" x2="248.11" y2="62.37"/><line class="cls-4" x1="252.47" y1="59.38" x2="227.68" y2="59.38"/><line class="cls-4" x1="263.26" y1="58.34" x2="253.96" y2="58.34"/><line class="cls-4" x1="227.71" y1="83.67" x2="224.96" y2="83.32"/><line class="cls-4" x1="224.96" y1="83.32" x2="222.37" y2="82.29"/><line class="cls-4" x1="222.37" y1="82.29" x2="220.09" y2="80.63"/><line class="cls-4" x1="220.09" y1="80.63" x2="218.25" y2="78.44"/><line class="cls-4" x1="218.25" y1="78.44" x2="216.96" y2="75.84"/><line class="cls-4" x1="216.96" y1="75.84" x2="216.3" y2="72.99"/><line class="cls-4" x1="216.3" y1="72.99" x2="216.3" y2="70.06"/><line class="cls-4" x1="216.3" y1="70.06" x2="216.96" y2="67.21"/><line class="cls-4" x1="216.96" y1="67.21" x2="218.25" y2="64.62"/><line class="cls-4" x1="218.25" y1="64.62" x2="220.09" y2="62.43"/><line class="cls-4" x1="220.09" y1="62.43" x2="222.37" y2="60.76"/><line class="cls-4" x1="222.37" y1="60.76" x2="224.96" y2="59.73"/><line class="cls-4" x1="224.96" y1="59.73" x2="227.71" y2="59.38"/><line class="cls-4" x1="227.71" y1="83.05" x2="225.11" y2="82.71"/><line class="cls-4" x1="225.11" y1="82.71" x2="222.66" y2="81.73"/><line class="cls-4" x1="222.66" y1="81.73" x2="220.51" y2="80.15"/><line class="cls-4" x1="220.51" y1="80.15" x2="218.77" y2="78.07"/><line class="cls-4" x1="218.77" y1="78.07" x2="217.55" y2="75.61"/><line class="cls-4" x1="217.55" y1="75.61" x2="216.93" y2="72.92"/><line class="cls-4" x1="216.93" y1="72.92" x2="216.93" y2="70.14"/><line class="cls-4" x1="216.93" y1="70.14" x2="217.55" y2="67.44"/><line class="cls-4" x1="217.55" y1="67.44" x2="218.77" y2="64.98"/><line class="cls-4" x1="218.77" y1="64.98" x2="220.51" y2="62.9"/><line class="cls-4" x1="220.51" y1="62.9" x2="222.66" y2="61.33"/><line class="cls-4" x1="222.66" y1="61.33" x2="225.11" y2="60.34"/><line class="cls-4" x1="225.11" y1="60.34" x2="227.71" y2="60"/><path class="cls-4" d="M252.4,83.35a111.1,111.1,0,0,1,0-23.63"/><path class="cls-4" d="M254,84.71a1.56,1.56,0,0,1-1.56-1.36"/><path class="cls-4" d="M252.4,59.72A1.55,1.55,0,0,1,254,58.34"/><path class="cls-4" d="M257.39,70.24a1.28,1.28,0,1,0,1.31,1.29,1.3,1.3,0,0,0-1.31-1.29"/><line class="cls-4" x1="196.26" y1="16.64" x2="157.77" y2="16.64"/><line class="cls-4" x1="157.77" y1="16.64" x2="157.77" y2="32.93"/><line class="cls-4" x1="196.26" y1="16.64" x2="196.26" y2="32.93"/><line class="cls-4" x1="170.95" y1="16.64" x2="183.08" y2="16.64"/><line class="cls-4" x1="173.78" y1="29.71" x2="175.83" y2="29.71"/><line class="cls-4" x1="177.02" y1="26.47" x2="177.02" y2="28.52"/><line class="cls-4" x1="178.21" y1="29.71" x2="180.26" y2="29.71"/><line class="cls-4" x1="177.02" y1="30.9" x2="177.02" y2="32.95"/><path class="cls-4" d="M187.24,25.82a17.21,17.21,0,0,1,6.65,8.11"/><path class="cls-4" d="M177,23.42q.69-.06,1.38-.06a17.16,17.16,0,0,1,8.85,2.46"/><path class="cls-4" d="M160.14,33.93a17.16,17.16,0,0,1,6.65-8.11"/><path class="cls-4" d="M166.79,25.82a17.13,17.13,0,0,1,8.84-2.46q.69,0,1.38.06"/><path class="cls-4" d="M190.05,42.64a31.81,31.81,0,0,1-11.69,3.18"/><path class="cls-4" d="M161.42,41a9.78,9.78,0,0,1-3.66-7.63c0-.14,0-.28,0-.42"/><path class="cls-4" d="M178.36,45.82c-.45,0-.9,0-1.35,0s-.9,0-1.34,0"/><path class="cls-4" d="M166.25,26.45a70.29,70.29,0,0,1,21.54,0"/><path class="cls-4" d="M158.76,35.45V35a24.2,24.2,0,0,1,5.46-15.31"/><path class="cls-4" d="M166,18.62a47.64,47.64,0,0,1,10.65-1.2H177"/><path class="cls-4" d="M164.22,19.72a3.16,3.16,0,0,1,1.78-1.1"/><path class="cls-4" d="M166.16,19.73A82.11,82.11,0,0,1,177,19"/><path class="cls-4" d="M158.76,35.45v-.29a21.71,21.71,0,0,1,5.44-14.38"/><path class="cls-4" d="M164.2,20.78a3.17,3.17,0,0,1,2-1.05"/><path class="cls-4" d="M189.81,20.76a21.74,21.74,0,0,1,5.46,14.41v.25"/><path class="cls-4" d="M189.79,19.7A24.22,24.22,0,0,1,195.27,35v.38"/><path class="cls-4" d="M177,19a82.09,82.09,0,0,1,10.85.76"/><path class="cls-4" d="M177,17.43h.42A48.35,48.35,0,0,1,188,18.6"/><path class="cls-4" d="M187.85,19.71a3.22,3.22,0,0,1,2,1.05"/><path class="cls-4" d="M188,18.6a3.27,3.27,0,0,1,1.78,1.1"/><path class="cls-4" d="M196.26,32.93v.42A9.75,9.75,0,0,1,192.6,41"/><path class="cls-4" d="M192.6,41a14.67,14.67,0,0,1-2.55,1.66"/><path class="cls-4" d="M164,42.64A15.14,15.14,0,0,1,161.42,41"/><path class="cls-4" d="M175.67,45.82A31.7,31.7,0,0,1,164,42.64"/><path class="cls-4" d="M182.31,43.1a22.57,22.57,0,0,1-10.59,0"/><path class="cls-4" d="M193.89,33.93c0,.14,0,.27,0,.4a5.78,5.78,0,0,1-2,4.37"/><path class="cls-4" d="M191.9,38.7a20.92,20.92,0,0,1-9.59,4.4"/><path class="cls-4" d="M162.12,38.7a5.78,5.78,0,0,1-2-4.37c0-.13,0-.26,0-.4"/><path class="cls-4" d="M171.72,43.1a21,21,0,0,1-9.6-4.4"/><path class="cls-4" d="M179.51,29.71a2.49,2.49,0,1,0-2.49,2.5,2.48,2.48,0,0,0,2.49-2.5"/><path class="cls-4" d="M178.8,29.71A1.78,1.78,0,1,0,177,31.49a1.78,1.78,0,0,0,1.78-1.78"/><line class="cls-4" x1="254.7" y1="221.92" x2="254.7" y2="179.15"/><line class="cls-4" x1="254.7" y1="179.15" x2="297.47" y2="179.15"/><line class="cls-4" x1="297.47" y1="179.15" x2="297.47" y2="221.92"/><line class="cls-4" x1="297.47" y1="221.92" x2="276.09" y2="221.92"/><line class="cls-4" x1="276.09" y1="221.92" x2="254.7" y2="221.92"/><line class="cls-4" x1="257.55" y1="219.07" x2="257.55" y2="182.01"/><line class="cls-4" x1="257.55" y1="182.01" x2="294.62" y2="182.01"/><line class="cls-4" x1="294.62" y1="182.01" x2="294.62" y2="219.07"/><line class="cls-4" x1="294.62" y1="219.07" x2="276.09" y2="219.07"/><line class="cls-4" x1="276.09" y1="219.07" x2="257.55" y2="219.07"/><line class="cls-4" x1="305.25" y1="520.11" x2="305.25" y2="520.11"/><line class="cls-4" x1="307.89" y1="509.53" x2="307.89" y2="509.53"/><line class="cls-4" x1="310.54" y1="498.94" x2="310.54" y2="498.94"/><line class="cls-4" x1="313.18" y1="488.36" x2="313.18" y2="488.36"/><line class="cls-4" x1="319.73" y1="465.27" x2="319.73" y2="465.27"/><line class="cls-4" x1="317.02" y1="474.22" x2="317.02" y2="474.22"/><line class="cls-4" x1="307.1" y1="512.61" x2="307.1" y2="512.61"/><line class="cls-4" x1="304.38" y1="521.57" x2="304.38" y2="521.57"/><line class="cls-4" x1="305.46" y1="516.66" x2="321.6" y2="456.41"/><line class="cls-4" x1="303.61" y1="523.54" x2="305.46" y2="516.66"/><line class="cls-4" x1="303.18" y1="497.6" x2="316.13" y2="449.29"/><line class="cls-4" x1="298.57" y1="514.81" x2="303.18" y2="497.6"/><line class="cls-4" x1="304.12" y1="524.42" x2="321.6" y2="457.13"/><line class="cls-4" x1="302.46" y1="431.47" x2="297.68" y2="449.29"/><line class="cls-4" x1="297.68" y1="449.29" x2="285.97" y2="492.99"/><line class="cls-4" x1="321.6" y1="456.98" x2="321.6" y2="456.98"/><line class="cls-4" x1="321.6" y1="456.41" x2="321.6" y2="456.41"/><line class="cls-4" x1="316.13" y1="449.29" x2="321.6" y2="449.29"/><line class="cls-4" x1="321.6" y1="449.29" x2="321.6" y2="449.29"/><line class="cls-4" x1="321.6" y1="456.41" x2="321.6" y2="449.29"/><line class="cls-4" x1="321.6" y1="457.13" x2="321.6" y2="457.13"/><line class="cls-4" x1="321.6" y1="449.29" x2="321.6" y2="457.13"/><line class="cls-4" x1="321.6" y1="445.01" x2="321.6" y2="431.47"/><line class="cls-4" x1="321.6" y1="456.41" x2="321.6" y2="449.29"/><line class="cls-4" x1="321.6" y1="457.13" x2="321.6" y2="456.41"/><line class="cls-4" x1="321.6" y1="449.29" x2="321.6" y2="449.29"/><line class="cls-4" x1="321.6" y1="449.29" x2="321.6" y2="445.01"/><line class="cls-4" x1="321.6" y1="457.13" x2="321.6" y2="457.13"/><line class="cls-4" x1="321.6" y1="431.47" x2="302.46" y2="431.47"/><line class="cls-4" x1="321.6" y1="449.29" x2="321.6" y2="445.01"/><line class="cls-4" x1="321.6" y1="449.29" x2="321.6" y2="445.01"/><line class="cls-4" x1="321.6" y1="449.29" x2="321.6" y2="449.29"/><line class="cls-4" x1="321.6" y1="449.29" x2="321.6" y2="449.29"/><line class="cls-4" x1="321.6" y1="457.13" x2="321.6" y2="456.41"/><line class="cls-4" x1="321.6" y1="456.41" x2="321.6" y2="449.29"/><line class="cls-4" x1="321.6" y1="445.01" x2="321.6" y2="431.47"/><line class="cls-4" x1="101.51" y1="469.84" x2="101.51" y2="469.84"/><line class="cls-4" x1="106.82" y1="471.09" x2="106.82" y2="471.09"/><line class="cls-4" x1="93.71" y1="467.9" x2="93.71" y2="467.9"/><line class="cls-4" x1="264.24" y1="513.5" x2="264.24" y2="513.5"/><line class="cls-4" x1="245.71" y1="508.21" x2="245.71" y2="508.21"/><line class="cls-4" x1="245.74" y1="508.13" x2="245.74" y2="508.13"/><line class="cls-4" x1="241.75" y1="504.24" x2="241.75" y2="504.24"/><line class="cls-4" x1="243.18" y1="501.1" x2="243.18" y2="501.1"/><line class="cls-4" x1="296.73" y1="521.7" x2="303.61" y2="523.54"/><line class="cls-4" x1="241.65" y1="506.94" x2="296.73" y2="521.7"/><line class="cls-4" x1="43.39" y1="455.9" x2="114.28" y2="472.81"/><line class="cls-4" x1="281.36" y1="510.2" x2="298.57" y2="514.81"/><line class="cls-4" x1="245.56" y1="500.61" x2="281.36" y2="510.2"/><line class="cls-4" x1="54.02" y1="449.29" x2="114.06" y2="465.38"/><line class="cls-4" x1="243.5" y1="500.05" x2="242.81" y2="499.87"/><line class="cls-4" x1="241.65" y1="506.94" x2="243.5" y2="500.05"/><line class="cls-4" x1="241.46" y1="507.63" x2="240.78" y2="507.45"/><line class="cls-4" x1="242.81" y1="499.87" x2="240.78" y2="507.45"/><line class="cls-4" x1="116.13" y1="465.93" x2="116.82" y2="466.11"/><line class="cls-4" x1="114.28" y1="472.81" x2="116.13" y2="465.93"/><line class="cls-4" x1="114.1" y1="473.5" x2="114.79" y2="473.69"/><line class="cls-4" x1="116.82" y1="466.11" x2="114.79" y2="473.69"/><line class="cls-4" x1="246.67" y1="496.48" x2="250.17" y2="483.4"/><line class="cls-4" x1="240.96" y1="506.75" x2="242.81" y2="499.87"/><line class="cls-4" x1="240.78" y1="507.45" x2="240.96" y2="506.75"/><line class="cls-4" x1="242.81" y1="499.87" x2="245.56" y2="500.61"/><line class="cls-4" x1="245.56" y1="500.61" x2="246.67" y2="496.48"/><line class="cls-4" x1="115.17" y1="461.25" x2="118.67" y2="448.16"/><line class="cls-4" x1="114.97" y1="473" x2="116.82" y2="466.11"/><line class="cls-4" x1="114.79" y1="473.69" x2="114.97" y2="473"/><line class="cls-4" x1="116.82" y1="466.11" x2="114.06" y2="465.38"/><line class="cls-4" x1="114.06" y1="465.38" x2="115.17" y2="461.25"/><line class="cls-4" x1="43.3" y1="456.61" x2="114.1" y2="473.5"/><line class="cls-4" x1="304.12" y1="524.42" x2="303.43" y2="524.23"/><line class="cls-4" x1="241.46" y1="507.63" x2="303.43" y2="524.23"/><line class="cls-4" x1="285.97" y1="492.99" x2="250.17" y2="483.4"/><line class="cls-4" x1="118.67" y1="448.16" x2="57.27" y2="431.71"/><line class="cls-4" x1="114.79" y1="473.69" x2="240.78" y2="507.45"/><line class="cls-4" x1="118.67" y1="448.16" x2="250.17" y2="483.4"/><line class="cls-4" x1="115.17" y1="461.25" x2="118.96" y2="462.26"/><line class="cls-4" x1="118.96" y1="462.26" x2="118.22" y2="465.01"/><line class="cls-4" x1="118.22" y1="465.01" x2="119.94" y2="465.48"/><line class="cls-4" x1="119.94" y1="465.48" x2="119.57" y2="466.85"/><line class="cls-4" x1="119.57" y1="466.85" x2="114.06" y2="465.38"/><line class="cls-4" x1="162.26" y1="478.29" x2="159.5" y2="477.55"/><line class="cls-4" x1="159.5" y1="477.55" x2="159.87" y2="476.17"/><line class="cls-4" x1="159.87" y1="476.17" x2="161.59" y2="476.63"/><line class="cls-4" x1="161.59" y1="476.63" x2="162.33" y2="473.88"/><line class="cls-4" x1="162.33" y1="473.88" x2="163.36" y2="474.16"/><line class="cls-4" x1="159.5" y1="477.55" x2="119.57" y2="466.85"/><line class="cls-4" x1="123.46" y1="461.99" x2="158.57" y2="471.4"/><line class="cls-4" x1="119.33" y1="460.88" x2="123.46" y2="461.99"/><line class="cls-4" x1="123.46" y1="461.99" x2="122.35" y2="466.12"/><line class="cls-4" x1="122.35" y1="466.12" x2="118.22" y2="465.01"/><line class="cls-4" x1="118.22" y1="465.01" x2="119.33" y2="460.88"/><line class="cls-4" x1="161.59" y1="476.63" x2="157.46" y2="475.53"/><line class="cls-4" x1="157.46" y1="475.53" x2="158.57" y2="471.4"/><line class="cls-4" x1="158.57" y1="471.4" x2="162.7" y2="472.5"/><line class="cls-4" x1="162.7" y1="472.5" x2="161.59" y2="476.63"/><line class="cls-4" x1="157.46" y1="475.53" x2="122.35" y2="466.12"/><line class="cls-4" x1="123.46" y1="461.99" x2="158.57" y2="471.4"/><line class="cls-4" x1="122.9" y1="464.05" x2="158.01" y2="473.46"/><line class="cls-4" x1="163.36" y1="474.16" x2="164.39" y2="474.43"/><line class="cls-4" x1="164.39" y1="474.43" x2="163.66" y2="477.19"/><line class="cls-4" x1="163.66" y1="477.19" x2="165.38" y2="477.65"/><line class="cls-4" x1="165.38" y1="477.65" x2="165.01" y2="479.02"/><line class="cls-4" x1="165.01" y1="479.02" x2="162.26" y2="478.29"/><line class="cls-4" x1="245.56" y1="500.61" x2="240.05" y2="499.14"/><line class="cls-4" x1="240.05" y1="499.14" x2="240.42" y2="497.76"/><line class="cls-4" x1="240.42" y1="497.76" x2="242.14" y2="498.22"/><line class="cls-4" x1="242.14" y1="498.22" x2="242.88" y2="495.46"/><line class="cls-4" x1="242.88" y1="495.46" x2="246.67" y2="496.48"/><line class="cls-4" x1="240.05" y1="499.14" x2="165.01" y2="479.02"/><line class="cls-4" x1="168.89" y1="474.16" x2="239.12" y2="492.98"/><line class="cls-4" x1="164.76" y1="473.06" x2="168.89" y2="474.16"/><line class="cls-4" x1="168.89" y1="474.16" x2="167.79" y2="478.29"/><line class="cls-4" x1="167.79" y1="478.29" x2="163.66" y2="477.19"/><line class="cls-4" x1="163.66" y1="477.19" x2="164.76" y2="473.06"/><line class="cls-4" x1="242.14" y1="498.22" x2="238.01" y2="497.11"/><line class="cls-4" x1="238.01" y1="497.11" x2="239.12" y2="492.98"/><line class="cls-4" x1="239.12" y1="492.98" x2="243.25" y2="494.09"/><line class="cls-4" x1="243.25" y1="494.09" x2="242.14" y2="498.22"/><line class="cls-4" x1="238.01" y1="497.11" x2="167.79" y2="478.29"/><line class="cls-4" x1="168.89" y1="474.16" x2="239.12" y2="492.98"/><line class="cls-4" x1="168.34" y1="476.23" x2="238.57" y2="495.04"/><line class="cls-4" x1="114.06" y1="465.38" x2="115.17" y2="461.25"/><line class="cls-4" x1="114.06" y1="465.38" x2="115.17" y2="461.25"/><line class="cls-4" x1="116.82" y1="466.11" x2="114.06" y2="465.38"/><line class="cls-4" x1="116.82" y1="466.11" x2="114.06" y2="465.38"/><line class="cls-4" x1="114.79" y1="473.69" x2="114.97" y2="473"/><line class="cls-4" x1="114.97" y1="473" x2="116.82" y2="466.11"/><line class="cls-4" x1="115.17" y1="461.25" x2="118.67" y2="448.16"/><line class="cls-4" x1="245.56" y1="500.61" x2="246.67" y2="496.48"/><line class="cls-4" x1="245.56" y1="500.61" x2="246.67" y2="496.48"/><line class="cls-4" x1="242.81" y1="499.87" x2="245.56" y2="500.61"/><line class="cls-4" x1="242.81" y1="499.87" x2="245.56" y2="500.61"/><line class="cls-4" x1="240.78" y1="507.45" x2="240.96" y2="506.75"/><line class="cls-4" x1="240.96" y1="506.75" x2="242.81" y2="499.87"/><line class="cls-4" x1="246.67" y1="496.48" x2="250.17" y2="483.4"/><line class="cls-4" x1="265.39" y1="80.79" x2="299.61" y2="80.79"/><line class="cls-4" x1="299.61" y1="80.79" x2="299.61" y2="75.09"/><line class="cls-4" x1="299.61" y1="75.09" x2="271.1" y2="75.09"/><line class="cls-4" x1="270.63" y1="71.53" x2="271.1" y2="71.06"/><line class="cls-4" x1="265.39" y1="43.5" x2="265.88" y2="43.02"/><line class="cls-4" x1="268.25" y1="43.02" x2="271.1" y2="43.02"/><line class="cls-4" x1="265.39" y1="43.02" x2="268.25" y2="43.02"/><line class="cls-4" x1="268.25" y1="71.53" x2="271.1" y2="71.53"/><line class="cls-4" x1="265.39" y1="71.53" x2="268.25" y2="71.53"/><line class="cls-4" x1="271.1" y1="75.09" x2="271.1" y2="71.53"/><line class="cls-4" x1="271.1" y1="43.02" x2="271.1" y2="39.45"/><line class="cls-4" x1="271.1" y1="39.45" x2="265.39" y2="39.45"/><line class="cls-4" x1="265.39" y1="39.45" x2="265.39" y2="43.02"/><line class="cls-4" x1="265.39" y1="71.53" x2="265.39" y2="80.79"/><line class="cls-4" x1="265.39" y1="71.53" x2="265.39" y2="43.02"/><line class="cls-4" x1="271.1" y1="71.53" x2="271.1" y2="43.02"/><path class="cls-4" d="M265.39,71.53a28.73,28.73,0,0,1-9.75-1.72"/><line class="cls-4" x1="265.39" y1="43.02" x2="255.64" y2="69.81"/><line class="cls-4" x1="265.39" y1="71.53" x2="268.25" y2="71.53"/><line class="cls-4" x1="265.39" y1="71.53" x2="268.25" y2="71.53"/><line class="cls-4" x1="268.25" y1="71.53" x2="271.1" y2="71.53"/><line class="cls-4" x1="265.39" y1="43.02" x2="268.25" y2="43.02"/><line class="cls-4" x1="268.25" y1="43.02" x2="271.1" y2="43.02"/><line class="cls-4" x1="43.02" y1="206.95" x2="43.02" y2="439.09"/><line class="cls-4" x1="57.27" y1="378.01" x2="57.27" y2="206.95"/><line class="cls-4" x1="299.61" y1="171.31" x2="134.25" y2="171.31"/><line class="cls-4" x1="128.55" y1="177.02" x2="299.61" y2="177.02"/><line class="cls-4" x1="299.61" y1="177.02" x2="299.61" y2="171.31"/><line class="cls-4" x1="128.55" y1="14.51" x2="128.55" y2="55.14"/><line class="cls-4" x1="128.55" y1="112.16" x2="128.55" y2="135.67"/><line class="cls-4" x1="128.55" y1="141.38" x2="128.55" y2="177.02"/><line class="cls-4" x1="134.25" y1="171.31" x2="134.25" y2="112.16"/><line class="cls-4" x1="134.25" y1="55.14" x2="134.25" y2="14.51"/><line class="cls-4" x1="134.25" y1="14.51" x2="128.55" y2="14.51"/><line class="cls-4" x1="128.55" y1="112.16" x2="134.25" y2="112.16"/><line class="cls-4" x1="128.55" y1="55.14" x2="134.25" y2="55.14"/><line class="cls-4" x1="311.01" y1="25.6" x2="311.01" y2="33.75"/><line class="cls-4" x1="311.01" y1="69.39" x2="311.01" y2="77.94"/><line class="cls-4" x1="57.27" y1="135.67" x2="50.14" y2="135.67"/><line class="cls-4" x1="128.55" y1="141.38" x2="128.55" y2="135.67"/><line class="cls-4" x1="57.27" y1="141.38" x2="57.27" y2="135.67"/><line class="cls-4" x1="128.55" y1="141.38" x2="125.54" y2="141.38"/><line class="cls-4" x1="59.97" y1="141.38" x2="57.27" y2="141.38"/><line class="cls-4" x1="128.55" y1="135.67" x2="125.54" y2="135.67"/><line class="cls-4" x1="59.97" y1="135.67" x2="57.27" y2="135.67"/><line class="cls-4" x1="311.01" y1="25.6" x2="311.01" y2="25.6"/><line class="cls-4" x1="311.01" y1="25.6" x2="311.01" y2="25.6"/><line class="cls-4" x1="0.25" y1="149.93" x2="0.25" y2="144.23"/><line class="cls-4" x1="0.25" y1="14.51" x2="0.25" y2="149.93"/><line class="cls-4" x1="14.51" y1="135.68" x2="14.51" y2="14.51"/><line class="cls-4" x1="43.02" y1="135.68" x2="14.51" y2="135.68"/><line class="cls-4" x1="0.25" y1="149.93" x2="43.02" y2="149.93"/><line class="cls-4" x1="199.82" y1="39.45" x2="299.61" y2="39.45"/><line class="cls-4" x1="299.61" y1="39.45" x2="299.61" y2="25.6"/><line class="cls-4" x1="299.61" y1="25.6" x2="214.08" y2="25.2"/><line class="cls-4" x1="199.82" y1="14.51" x2="199.82" y2="39.45"/><line class="cls-4" x1="214.08" y1="25.2" x2="214.08" y2="0.25"/><line class="cls-4" x1="214.08" y1="0.25" x2="214.08" y2="5.95"/><line class="cls-4" x1="299.61" y1="25.6" x2="299.61" y2="25.6"/><line class="cls-4" x1="214.08" y1="0.25" x2="214.08" y2="0.25"/><line class="cls-4" x1="214.08" y1="0.25" x2="214.08" y2="5.95"/><line class="cls-4" x1="299.61" y1="25.6" x2="299.61" y2="25.6"/><line class="cls-4" x1="214.08" y1="5.95" x2="214.08" y2="0.25"/><line class="cls-4" x1="299.61" y1="25.6" x2="299.61" y2="25.6"/><line class="cls-4" x1="299.61" y1="25.6" x2="299.61" y2="25.6"/><line class="cls-4" x1="214.08" y1="0.25" x2="214.08" y2="5.95"/><line class="cls-4" x1="214.08" y1="0.25" x2="214.08" y2="5.95"/><line class="cls-4" x1="43.3" y1="456.61" x2="43.3" y2="456.61"/><line class="cls-4" x1="50.14" y1="14.51" x2="50.14" y2="5.95"/><line class="cls-4" x1="50.14" y1="5.95" x2="50.14" y2="0.25"/><line class="cls-4" x1="121.42" y1="14.51" x2="121.42" y2="5.95"/><line class="cls-4" x1="121.42" y1="5.95" x2="121.42" y2="0.25"/><line class="cls-4" x1="0.25" y1="0.25" x2="0.25" y2="14.51"/><line class="cls-4" x1="14.51" y1="14.51" x2="50.14" y2="14.51"/><line class="cls-4" x1="121.42" y1="14.51" x2="199.82" y2="14.51"/><line class="cls-4" x1="214.08" y1="0.25" x2="121.42" y2="0.25"/><line class="cls-4" x1="50.14" y1="0.25" x2="0.25" y2="0.25"/><line class="cls-4" x1="121.42" y1="0.25" x2="42.65" y2="0.25"/><line class="cls-4" x1="121.42" y1="0.25" x2="118.57" y2="0.25"/><line class="cls-4" x1="118.57" y1="0.25" x2="118.57" y2="5.95"/><line class="cls-4" x1="118.57" y1="5.95" x2="121.42" y2="5.95"/><line class="cls-4" x1="121.42" y1="5.95" x2="121.42" y2="0.25"/><line class="cls-4" x1="50.14" y1="5.95" x2="52.99" y2="5.95"/><line class="cls-4" x1="52.99" y1="5.95" x2="52.99" y2="0.25"/><line class="cls-4" x1="52.99" y1="0.25" x2="50.14" y2="0.25"/><line class="cls-4" x1="50.14" y1="0.25" x2="50.14" y2="5.95"/><line class="cls-4" x1="52.99" y1="5.95" x2="52.99" y2="71.53"/><line class="cls-4" x1="121.42" y1="5.95" x2="121.42" y2="0.25"/><line class="cls-4" x1="121.42" y1="5.95" x2="121.42" y2="0.25"/><line class="cls-4" x1="121.42" y1="14.51" x2="121.42" y2="5.95"/><line class="cls-4" x1="50.14" y1="5.95" x2="50.14" y2="0.25"/><line class="cls-4" x1="50.14" y1="5.95" x2="50.14" y2="0.25"/><line class="cls-4" x1="50.14" y1="14.51" x2="50.14" y2="5.95"/><line class="cls-4" x1="311.01" y1="25.6" x2="311.01" y2="25.6"/><line class="cls-4" x1="174.86" y1="489.78" x2="163.79" y2="531.09"/><line class="cls-4" x1="176.58" y1="490.24" x2="174.86" y2="489.78"/><line class="cls-4" x1="165.97" y1="529.83" x2="176.58" y2="490.24"/><line class="cls-4" x1="163.79" y1="531.09" x2="165.97" y2="529.83"/><line class="cls-4" x1="163.79" y1="531.09" x2="230.57" y2="548.98"/><line class="cls-4" x1="165.97" y1="529.83" x2="163.79" y2="531.09"/><line class="cls-4" x1="229.31" y1="546.8" x2="165.97" y2="529.83"/><line class="cls-4" x1="230.57" y1="548.98" x2="229.31" y2="546.8"/><line class="cls-4" x1="230.57" y1="548.98" x2="229.31" y2="546.8"/><line class="cls-4" x1="229.31" y1="546.8" x2="239.92" y2="507.21"/><line class="cls-4" x1="239.92" y1="507.21" x2="241.64" y2="507.67"/><line class="cls-4" x1="241.64" y1="507.67" x2="230.57" y2="548.98"/><line class="cls-4" x1="164.88" y1="530.46" x2="168.13" y2="518.32"/><line class="cls-4" x1="169.76" y1="512.24" x2="169.76" y2="512.24"/><line class="cls-4" x1="171.06" y1="507.39" x2="172.46" y2="502.16"/><line class="cls-4" x1="172.46" y1="502.16" x2="175.72" y2="490.01"/><line class="cls-4" x1="229.94" y1="547.89" x2="217.8" y2="544.64"/><line class="cls-4" x1="211.72" y1="543.01" x2="211.72" y2="543.01"/><line class="cls-4" x1="206.87" y1="541.71" x2="194.72" y2="538.45"/><line class="cls-4" x1="188.65" y1="536.83" x2="188.65" y2="536.83"/><line class="cls-4" x1="183.79" y1="535.53" x2="177.02" y2="533.71"/><line class="cls-4" x1="177.02" y1="533.71" x2="164.88" y2="530.46"/><line class="cls-4" x1="230.45" y1="535.67" x2="170.55" y2="519.62"/><line class="cls-4" x1="170.55" y1="519.62" x2="176.45" y2="497.59"/><line class="cls-4" x1="176.45" y1="497.59" x2="236.35" y2="513.64"/><line class="cls-4" x1="236.35" y1="513.64" x2="230.45" y2="535.67"/><line class="cls-4" x1="231.04" y1="533.47" x2="171.14" y2="517.42"/><line class="cls-4" x1="171.14" y1="517.42" x2="176.45" y2="497.59"/><line class="cls-4" x1="176.45" y1="497.59" x2="236.35" y2="513.64"/><line class="cls-4" x1="236.35" y1="513.64" x2="231.04" y2="533.47"/><line class="cls-4" x1="229.94" y1="547.89" x2="233.19" y2="535.75"/><line class="cls-4" x1="234.82" y1="529.68" x2="234.82" y2="529.68"/><line class="cls-4" x1="236.12" y1="524.82" x2="237.52" y2="519.59"/><line class="cls-4" x1="237.52" y1="519.59" x2="240.78" y2="507.45"/><line class="cls-4" x1="128.55" y1="177.02" x2="128.55" y2="177.02"/><line class="cls-4" x1="128.55" y1="261.28" x2="128.55" y2="259.78"/><line class="cls-6" x1="128.55" y1="256.78" x2="128.55" y2="180.3"/><line class="cls-4" x1="128.55" y1="178.8" x2="128.55" y2="177.3"/><line class="cls-4" x1="299.61" y1="285.36" x2="298.11" y2="285.36"/><line class="cls-7" x1="295.05" y1="285.36" x2="217.1" y2="285.36"/><line class="cls-4" x1="215.58" y1="285.36" x2="214.08" y2="285.36"/><line class="cls-4" x1="311.01" y1="25.6" x2="311.01" y2="25.6"/><line class="cls-4" x1="270.59" y1="75.09" x2="271.09" y2="74.59"/><line class="cls-4" x1="265.39" y1="75.09" x2="265.39" y2="60.84"/><line class="cls-4" x1="271.09" y1="60.84" x2="271.09" y2="75.09"/><line class="cls-4" x1="271.09" y1="75.09" x2="265.39" y2="75.09"/><line class="cls-4" x1="311.01" y1="25.6" x2="311.01" y2="33.75"/><line class="cls-4" x1="288.92" y1="80.79" x2="299.61" y2="80.79"/><line class="cls-4" x1="299.61" y1="80.79" x2="299.61" y2="75.09"/><line class="cls-4" x1="299.61" y1="75.09" x2="288.92" y2="75.09"/><line class="cls-4" x1="299.61" y1="177.02" x2="288.92" y2="177.02"/><line class="cls-4" x1="288.92" y1="171.31" x2="299.61" y2="171.31"/><line class="cls-4" x1="299.61" y1="171.31" x2="299.61" y2="177.02"/><line class="cls-4" x1="286.6" y1="177.02" x2="286.78" y2="176.84"/><line class="cls-4" x1="272.52" y1="171.44" x2="272.65" y2="171.31"/><line class="cls-4" x1="286.78" y1="177.02" x2="272.52" y2="177.02"/><line class="cls-4" x1="272.52" y1="171.31" x2="286.78" y2="171.31"/><line class="cls-4" x1="311.01" y1="25.6" x2="311.01" y2="25.6"/><line class="cls-4" x1="311.01" y1="25.6" x2="311.01" y2="25.6"/><line class="cls-4" x1="305.13" y1="449.29" x2="311.01" y2="443.41"/><line class="cls-4" x1="299.61" y1="446.75" x2="311.01" y2="435.35"/><line class="cls-4" x1="299.61" y1="438.69" x2="311.01" y2="427.28"/><line class="cls-4" x1="299.61" y1="430.62" x2="311.01" y2="419.22"/><line class="cls-4" x1="299.61" y1="422.56" x2="311.01" y2="411.15"/><line class="cls-4" x1="299.61" y1="414.5" x2="311.01" y2="403.09"/><line class="cls-4" x1="299.61" y1="406.43" x2="311.01" y2="395.03"/><line class="cls-4" x1="299.61" y1="398.37" x2="311.01" y2="386.96"/><line class="cls-4" x1="299.61" y1="390.3" x2="311.01" y2="378.9"/><line class="cls-4" x1="299.61" y1="382.24" x2="311.01" y2="370.84"/><line class="cls-4" x1="299.61" y1="374.18" x2="311.01" y2="362.77"/><line class="cls-4" x1="299.61" y1="366.11" x2="311.01" y2="354.71"/><line class="cls-4" x1="299.61" y1="358.05" x2="311.01" y2="346.64"/><line class="cls-4" x1="299.61" y1="349.98" x2="311.01" y2="338.58"/><line class="cls-4" x1="299.61" y1="341.92" x2="311.01" y2="330.52"/><line class="cls-4" x1="299.61" y1="333.85" x2="311.01" y2="322.45"/><line class="cls-4" x1="299.61" y1="325.79" x2="311.01" y2="314.39"/><line class="cls-4" x1="299.61" y1="317.73" x2="311.01" y2="306.32"/><line class="cls-4" x1="299.61" y1="309.66" x2="311.01" y2="298.26"/><line class="cls-4" x1="299.61" y1="301.6" x2="311.01" y2="290.19"/><line class="cls-4" x1="299.61" y1="293.53" x2="311.01" y2="282.13"/><line class="cls-4" x1="299.61" y1="285.47" x2="311.01" y2="274.07"/><line class="cls-4" x1="299.61" y1="277.41" x2="311.01" y2="266"/><line class="cls-4" x1="299.61" y1="269.34" x2="311.01" y2="257.94"/><line class="cls-4" x1="299.61" y1="261.28" x2="311.01" y2="249.88"/><line class="cls-4" x1="299.61" y1="253.22" x2="311.01" y2="241.81"/><line class="cls-4" x1="299.61" y1="245.15" x2="311.01" y2="233.75"/><line class="cls-4" x1="299.61" y1="237.09" x2="311.01" y2="225.68"/><line class="cls-4" x1="299.61" y1="229.03" x2="311.01" y2="217.62"/><line class="cls-4" x1="299.61" y1="220.96" x2="311.01" y2="209.56"/><line class="cls-4" x1="299.61" y1="212.9" x2="311.01" y2="201.49"/><line class="cls-4" x1="299.61" y1="204.83" x2="311.01" y2="193.43"/><line class="cls-4" x1="299.61" y1="196.77" x2="311.01" y2="185.37"/><line class="cls-4" x1="299.61" y1="188.71" x2="311.01" y2="177.3"/><line class="cls-4" x1="299.61" y1="180.64" x2="311.01" y2="169.24"/><line class="cls-4" x1="299.61" y1="172.58" x2="311.01" y2="161.17"/><line class="cls-4" x1="299.61" y1="164.51" x2="311.01" y2="153.11"/><line class="cls-4" x1="299.61" y1="156.45" x2="311.01" y2="145.05"/><line class="cls-4" x1="299.61" y1="148.39" x2="311.01" y2="136.98"/><line class="cls-4" x1="299.61" y1="140.32" x2="311.01" y2="128.92"/><line class="cls-4" x1="299.61" y1="132.26" x2="311.01" y2="120.86"/><line class="cls-4" x1="299.61" y1="124.19" x2="311.01" y2="112.79"/><line class="cls-4" x1="299.61" y1="116.13" x2="311.01" y2="104.73"/><line class="cls-4" x1="299.61" y1="108.06" x2="311.01" y2="96.66"/><line class="cls-4" x1="299.61" y1="100" x2="311.01" y2="88.6"/><line class="cls-4" x1="299.61" y1="91.94" x2="311.01" y2="80.53"/><line class="cls-4" x1="299.61" y1="83.87" x2="311.01" y2="72.47"/><line class="cls-4" x1="299.61" y1="75.81" x2="311.01" y2="64.41"/><line class="cls-4" x1="299.61" y1="67.75" x2="311.01" y2="56.34"/><line class="cls-4" x1="299.61" y1="59.68" x2="311.01" y2="48.28"/><line class="cls-4" x1="299.61" y1="51.62" x2="311.01" y2="40.21"/><line class="cls-4" x1="299.61" y1="43.55" x2="311.01" y2="32.15"/><line class="cls-4" x1="299.61" y1="35.49" x2="311.01" y2="25.6"/><line class="cls-4" x1="309.17" y1="449.29" x2="311.01" y2="447.44"/><line class="cls-4" x1="301.1" y1="449.29" x2="302.03" y2="448.36"/><line class="cls-4" x1="303.04" y1="447.35" x2="303.04" y2="447.35"/><line class="cls-4" x1="304.05" y1="446.34" x2="307.07" y2="443.31"/><line class="cls-4" x1="308.08" y1="442.31" x2="308.08" y2="442.31"/><line class="cls-4" x1="309.09" y1="441.3" x2="311.01" y2="439.38"/><line class="cls-4" x1="300.02" y1="442.31" x2="303.04" y2="439.28"/><line class="cls-4" x1="304.05" y1="438.27" x2="304.05" y2="438.27"/><line class="cls-4" x1="305.06" y1="437.26" x2="308.08" y2="434.24"/><line class="cls-4" x1="309.09" y1="433.23" x2="309.09" y2="433.23"/><line class="cls-4" x1="310.1" y1="432.23" x2="311.01" y2="431.31"/><line class="cls-4" x1="300.02" y1="434.24" x2="300.02" y2="434.24"/><line class="cls-4" x1="301.03" y1="433.23" x2="304.05" y2="430.21"/><line class="cls-4" x1="305.06" y1="429.2" x2="305.06" y2="429.2"/><line class="cls-4" x1="306.07" y1="428.19" x2="309.09" y2="425.17"/><line class="cls-4" x1="310.1" y1="424.16" x2="310.1" y2="424.16"/><line class="cls-4" x1="299.61" y1="426.59" x2="300.02" y2="426.18"/><line class="cls-4" x1="301.03" y1="425.17" x2="301.03" y2="425.17"/><line class="cls-4" x1="302.03" y1="424.16" x2="305.06" y2="421.14"/><line class="cls-4" x1="306.07" y1="420.13" x2="306.07" y2="420.13"/><line class="cls-4" x1="307.07" y1="419.12" x2="310.1" y2="416.1"/><line class="cls-4" x1="299.61" y1="418.53" x2="301.03" y2="417.11"/><line class="cls-4" x1="302.03" y1="416.1" x2="302.03" y2="416.1"/><line class="cls-4" x1="303.04" y1="415.09" x2="306.07" y2="412.07"/><line class="cls-4" x1="307.07" y1="411.06" x2="307.07" y2="411.06"/><line class="cls-4" x1="308.08" y1="410.05" x2="311.01" y2="407.12"/><line class="cls-4" x1="299.61" y1="410.46" x2="302.03" y2="408.03"/><line class="cls-4" x1="303.04" y1="407.03" x2="303.04" y2="407.03"/><line class="cls-4" x1="304.05" y1="406.02" x2="307.07" y2="403"/><line class="cls-4" x1="308.08" y1="401.99" x2="308.08" y2="401.99"/><line class="cls-4" x1="309.09" y1="400.98" x2="311.01" y2="399.06"/><line class="cls-4" x1="300.02" y1="401.99" x2="303.04" y2="398.96"/><line class="cls-4" x1="304.05" y1="397.96" x2="304.05" y2="397.96"/><line class="cls-4" x1="305.06" y1="396.95" x2="308.08" y2="393.92"/><line class="cls-4" x1="309.09" y1="392.91" x2="309.09" y2="392.91"/><line class="cls-4" x1="310.1" y1="391.91" x2="311.01" y2="390.99"/><line class="cls-4" x1="300.02" y1="393.92" x2="300.02" y2="393.92"/><line class="cls-4" x1="301.03" y1="392.91" x2="304.05" y2="389.89"/><line class="cls-4" x1="305.06" y1="388.88" x2="305.06" y2="388.88"/><line class="cls-4" x1="306.07" y1="387.87" x2="309.09" y2="384.85"/><line class="cls-4" x1="310.1" y1="383.84" x2="310.1" y2="383.84"/><line class="cls-4" x1="299.61" y1="386.27" x2="300.02" y2="385.86"/><line class="cls-4" x1="301.03" y1="384.85" x2="301.03" y2="384.85"/><line class="cls-4" x1="302.03" y1="383.84" x2="305.06" y2="380.82"/><line class="cls-4" x1="306.07" y1="379.81" x2="306.07" y2="379.81"/><line class="cls-4" x1="307.07" y1="378.8" x2="310.1" y2="375.78"/><line class="cls-4" x1="299.61" y1="378.21" x2="301.03" y2="376.79"/><line class="cls-4" x1="302.03" y1="375.78" x2="302.03" y2="375.78"/><line class="cls-4" x1="303.04" y1="374.77" x2="306.07" y2="371.75"/><line class="cls-4" x1="307.07" y1="370.74" x2="307.07" y2="370.74"/><line class="cls-4" x1="308.08" y1="369.73" x2="311.01" y2="366.8"/><line class="cls-4" x1="299.61" y1="370.14" x2="302.03" y2="367.71"/><line class="cls-4" x1="303.04" y1="366.71" x2="303.04" y2="366.71"/><line class="cls-4" x1="304.05" y1="365.7" x2="307.07" y2="362.67"/><line class="cls-4" x1="308.08" y1="361.67" x2="308.08" y2="361.67"/><line class="cls-4" x1="309.09" y1="360.66" x2="311.01" y2="358.74"/><line class="cls-4" x1="300.02" y1="361.67" x2="303.04" y2="358.64"/><line class="cls-4" x1="304.05" y1="357.64" x2="304.05" y2="357.64"/><line class="cls-4" x1="305.06" y1="356.63" x2="308.08" y2="353.6"/><line class="cls-4" x1="309.09" y1="352.6" x2="309.09" y2="352.6"/><line class="cls-4" x1="310.1" y1="351.59" x2="311.01" y2="350.68"/><line class="cls-4" x1="300.02" y1="353.6" x2="300.02" y2="353.6"/><line class="cls-4" x1="301.03" y1="352.6" x2="304.05" y2="349.57"/><line class="cls-4" x1="305.06" y1="348.56" x2="305.06" y2="348.56"/><line class="cls-4" x1="306.07" y1="347.55" x2="309.09" y2="344.53"/><line class="cls-4" x1="310.1" y1="343.52" x2="310.1" y2="343.52"/><line class="cls-4" x1="299.61" y1="345.95" x2="300.02" y2="345.54"/><line class="cls-4" x1="301.03" y1="344.53" x2="301.03" y2="344.53"/><line class="cls-4" x1="302.03" y1="343.52" x2="305.06" y2="340.5"/><line class="cls-4" x1="306.07" y1="339.49" x2="306.07" y2="339.49"/><line class="cls-4" x1="307.07" y1="338.48" x2="310.1" y2="335.46"/><line class="cls-4" x1="299.61" y1="337.89" x2="301.03" y2="336.47"/><line class="cls-4" x1="302.03" y1="335.46" x2="302.03" y2="335.46"/><line class="cls-4" x1="303.04" y1="334.45" x2="306.07" y2="331.43"/><line class="cls-4" x1="307.07" y1="330.42" x2="307.07" y2="330.42"/><line class="cls-4" x1="308.08" y1="329.41" x2="311.01" y2="326.48"/><line class="cls-4" x1="299.61" y1="329.82" x2="302.03" y2="327.4"/><line class="cls-4" x1="303.04" y1="326.39" x2="303.04" y2="326.39"/><line class="cls-4" x1="304.05" y1="325.38" x2="307.07" y2="322.35"/><line class="cls-4" x1="308.08" y1="321.35" x2="308.08" y2="321.35"/><line class="cls-4" x1="309.09" y1="320.34" x2="311.01" y2="318.42"/><line class="cls-4" x1="300.02" y1="321.35" x2="303.04" y2="318.32"/><line class="cls-4" x1="304.05" y1="317.32" x2="304.05" y2="317.32"/><line class="cls-4" x1="305.06" y1="316.31" x2="308.08" y2="313.28"/><line class="cls-4" x1="309.09" y1="312.28" x2="309.09" y2="312.28"/><line class="cls-4" x1="310.1" y1="311.27" x2="311.01" y2="310.36"/><line class="cls-4" x1="300.02" y1="313.28" x2="300.02" y2="313.28"/><line class="cls-4" x1="301.03" y1="312.28" x2="304.05" y2="309.25"/><line class="cls-4" x1="305.06" y1="308.25" x2="305.06" y2="308.25"/><line class="cls-4" x1="306.07" y1="307.24" x2="309.09" y2="304.21"/><line class="cls-4" x1="310.1" y1="303.2" x2="310.1" y2="303.2"/><line class="cls-4" x1="299.61" y1="305.63" x2="300.02" y2="305.22"/><line class="cls-4" x1="301.03" y1="304.21" x2="301.03" y2="304.21"/><line class="cls-4" x1="302.03" y1="303.2" x2="305.06" y2="300.18"/><line class="cls-4" x1="306.07" y1="299.17" x2="306.07" y2="299.17"/><line class="cls-4" x1="307.07" y1="298.16" x2="310.1" y2="295.14"/><line class="cls-4" x1="299.61" y1="297.57" x2="301.03" y2="296.15"/><line class="cls-4" x1="302.03" y1="295.14" x2="302.03" y2="295.14"/><line class="cls-4" x1="303.04" y1="294.13" x2="306.07" y2="291.11"/><line class="cls-4" x1="307.07" y1="290.1" x2="307.07" y2="290.1"/><line class="cls-4" x1="308.08" y1="289.09" x2="311.01" y2="286.16"/><line class="cls-4" x1="299.61" y1="289.5" x2="302.03" y2="287.08"/><line class="cls-4" x1="303.04" y1="286.07" x2="303.04" y2="286.07"/><line class="cls-4" x1="304.05" y1="285.06" x2="307.07" y2="282.04"/><line class="cls-4" x1="308.08" y1="281.03" x2="308.08" y2="281.03"/><line class="cls-4" x1="309.09" y1="280.02" x2="311.01" y2="278.1"/><line class="cls-4" x1="300.02" y1="281.03" x2="303.04" y2="278"/><line class="cls-4" x1="304.05" y1="276.99" x2="304.05" y2="276.99"/><line class="cls-4" x1="305.06" y1="275.99" x2="308.08" y2="272.96"/><line class="cls-4" x1="309.09" y1="271.96" x2="309.09" y2="271.96"/><line class="cls-4" x1="310.1" y1="270.95" x2="311.01" y2="270.03"/><line class="cls-4" x1="300.02" y1="272.96" x2="300.02" y2="272.96"/><line class="cls-4" x1="301.03" y1="271.96" x2="304.05" y2="268.93"/><line class="cls-4" x1="305.06" y1="267.92" x2="305.06" y2="267.92"/><line class="cls-4" x1="306.07" y1="266.92" x2="309.09" y2="263.89"/><line class="cls-4" x1="310.1" y1="262.89" x2="310.1" y2="262.89"/><line class="cls-4" x1="299.61" y1="265.31" x2="300.02" y2="264.9"/><line class="cls-4" x1="301.03" y1="263.89" x2="301.03" y2="263.89"/><line class="cls-4" x1="302.03" y1="262.89" x2="305.06" y2="259.86"/><line class="cls-4" x1="306.07" y1="258.85" x2="306.07" y2="258.85"/><line class="cls-4" x1="307.07" y1="257.84" x2="310.1" y2="254.82"/><line class="cls-4" x1="299.61" y1="257.25" x2="301.03" y2="255.83"/><line class="cls-4" x1="302.03" y1="254.82" x2="302.03" y2="254.82"/><line class="cls-4" x1="303.04" y1="253.81" x2="306.07" y2="250.79"/><line class="cls-4" x1="307.07" y1="249.78" x2="307.07" y2="249.78"/><line class="cls-4" x1="308.08" y1="248.77" x2="311.01" y2="245.84"/><line class="cls-4" x1="299.61" y1="249.18" x2="302.03" y2="246.76"/><line class="cls-4" x1="303.04" y1="245.75" x2="303.04" y2="245.75"/><line class="cls-4" x1="304.05" y1="244.74" x2="307.07" y2="241.72"/><line class="cls-4" x1="308.08" y1="240.71" x2="308.08" y2="240.71"/><line class="cls-4" x1="309.09" y1="239.7" x2="311.01" y2="237.78"/><line class="cls-4" x1="300.02" y1="240.71" x2="303.04" y2="237.69"/><line class="cls-4" x1="304.05" y1="236.68" x2="304.05" y2="236.68"/><line class="cls-4" x1="305.06" y1="235.67" x2="308.08" y2="232.64"/><line class="cls-4" x1="309.09" y1="231.64" x2="309.09" y2="231.64"/><line class="cls-4" x1="310.1" y1="230.63" x2="311.01" y2="229.72"/><line class="cls-4" x1="300.02" y1="232.64" x2="300.02" y2="232.64"/><line class="cls-4" x1="301.03" y1="231.64" x2="304.05" y2="228.61"/><line class="cls-4" x1="305.06" y1="227.6" x2="305.06" y2="227.6"/><line class="cls-4" x1="306.07" y1="226.6" x2="309.09" y2="223.57"/><line class="cls-4" x1="310.1" y1="222.57" x2="310.1" y2="222.57"/><line class="cls-4" x1="299.61" y1="224.99" x2="300.02" y2="224.58"/><line class="cls-4" x1="301.03" y1="223.57" x2="301.03" y2="223.57"/><line class="cls-4" x1="302.03" y1="222.57" x2="305.06" y2="219.54"/><line class="cls-4" x1="306.07" y1="218.53" x2="306.07" y2="218.53"/><line class="cls-4" x1="307.07" y1="217.53" x2="310.1" y2="214.5"/><line class="cls-4" x1="299.61" y1="216.93" x2="301.03" y2="215.51"/><line class="cls-4" x1="302.03" y1="214.5" x2="302.03" y2="214.5"/><line class="cls-4" x1="303.04" y1="213.49" x2="306.07" y2="210.47"/><line class="cls-4" x1="307.07" y1="209.46" x2="307.07" y2="209.46"/><line class="cls-4" x1="308.08" y1="208.45" x2="311.01" y2="205.52"/><line class="cls-4" x1="299.61" y1="208.87" x2="302.03" y2="206.44"/><line class="cls-4" x1="303.04" y1="205.43" x2="303.04" y2="205.43"/><line class="cls-4" x1="304.05" y1="204.42" x2="307.07" y2="201.4"/><line class="cls-4" x1="308.08" y1="200.39" x2="308.08" y2="200.39"/><line class="cls-4" x1="309.09" y1="199.38" x2="311.01" y2="197.46"/><line class="cls-4" x1="300.02" y1="200.39" x2="303.04" y2="197.37"/><line class="cls-4" x1="304.05" y1="196.36" x2="304.05" y2="196.36"/><line class="cls-4" x1="305.06" y1="195.35" x2="308.08" y2="192.33"/><line class="cls-4" x1="309.09" y1="191.32" x2="309.09" y2="191.32"/><line class="cls-4" x1="310.1" y1="190.31" x2="311.01" y2="189.4"/><line class="cls-4" x1="300.02" y1="192.33" x2="300.02" y2="192.33"/><line class="cls-4" x1="301.03" y1="191.32" x2="304.05" y2="188.29"/><line class="cls-4" x1="305.06" y1="187.28" x2="305.06" y2="187.28"/><line class="cls-4" x1="306.07" y1="186.28" x2="309.09" y2="183.25"/><line class="cls-4" x1="310.1" y1="182.24" x2="310.1" y2="182.24"/><line class="cls-4" x1="299.61" y1="184.67" x2="300.02" y2="184.26"/><line class="cls-4" x1="301.03" y1="183.25" x2="301.03" y2="183.25"/><line class="cls-4" x1="302.03" y1="182.24" x2="305.06" y2="179.22"/><line class="cls-4" x1="306.07" y1="178.21" x2="306.07" y2="178.21"/><line class="cls-4" x1="307.07" y1="177.21" x2="310.1" y2="174.18"/><line class="cls-4" x1="299.61" y1="176.61" x2="301.03" y2="175.19"/><line class="cls-4" x1="302.03" y1="174.18" x2="302.03" y2="174.18"/><line class="cls-4" x1="303.04" y1="173.17" x2="306.07" y2="170.15"/><line class="cls-4" x1="307.07" y1="169.14" x2="307.07" y2="169.14"/><line class="cls-4" x1="308.08" y1="168.13" x2="311.01" y2="165.21"/><line class="cls-4" x1="299.61" y1="168.55" x2="302.03" y2="166.12"/><line class="cls-4" x1="303.04" y1="165.11" x2="303.04" y2="165.11"/><line class="cls-4" x1="304.05" y1="164.1" x2="307.07" y2="161.08"/><line class="cls-4" x1="308.08" y1="160.07" x2="308.08" y2="160.07"/><line class="cls-4" x1="309.09" y1="159.06" x2="311.01" y2="157.14"/><line class="cls-4" x1="300.02" y1="160.07" x2="303.04" y2="157.05"/><line class="cls-4" x1="304.05" y1="156.04" x2="304.05" y2="156.04"/><line class="cls-4" x1="305.06" y1="155.03" x2="308.08" y2="152.01"/><line class="cls-4" x1="309.09" y1="151" x2="309.09" y2="151"/><line class="cls-4" x1="310.1" y1="149.99" x2="311.01" y2="149.08"/><line class="cls-4" x1="300.02" y1="152.01" x2="300.02" y2="152.01"/><line class="cls-4" x1="301.03" y1="151" x2="304.05" y2="147.98"/><line class="cls-4" x1="305.06" y1="146.97" x2="305.06" y2="146.97"/><line class="cls-4" x1="306.07" y1="145.96" x2="309.09" y2="142.93"/><line class="cls-4" x1="310.1" y1="141.93" x2="310.1" y2="141.93"/><line class="cls-4" x1="299.61" y1="144.35" x2="300.02" y2="143.94"/><line class="cls-4" x1="301.03" y1="142.93" x2="301.03" y2="142.93"/><line class="cls-4" x1="302.03" y1="141.93" x2="305.06" y2="138.9"/><line class="cls-4" x1="306.07" y1="137.89" x2="306.07" y2="137.89"/><line class="cls-4" x1="307.07" y1="136.89" x2="310.1" y2="133.86"/><line class="cls-4" x1="299.61" y1="136.29" x2="301.03" y2="134.87"/><line class="cls-4" x1="302.03" y1="133.86" x2="302.03" y2="133.86"/><line class="cls-4" x1="303.04" y1="132.85" x2="306.07" y2="129.83"/><line class="cls-4" x1="307.07" y1="128.82" x2="307.07" y2="128.82"/><line class="cls-4" x1="308.08" y1="127.82" x2="311.01" y2="124.89"/><line class="cls-4" x1="299.61" y1="128.23" x2="302.03" y2="125.8"/><line class="cls-4" x1="303.04" y1="124.79" x2="303.04" y2="124.79"/><line class="cls-4" x1="304.05" y1="123.78" x2="307.07" y2="120.76"/><line class="cls-4" x1="308.08" y1="119.75" x2="308.08" y2="119.75"/><line class="cls-4" x1="309.09" y1="118.74" x2="311.01" y2="116.82"/><line class="cls-4" x1="300.02" y1="119.75" x2="303.04" y2="116.72"/><line class="cls-4" x1="304.05" y1="115.72" x2="304.05" y2="115.72"/><line class="cls-4" x1="305.06" y1="114.71" x2="308.08" y2="111.69"/><line class="cls-4" x1="309.09" y1="110.68" x2="309.09" y2="110.68"/><line class="cls-4" x1="310.1" y1="109.67" x2="311.01" y2="108.76"/><line class="cls-4" x1="300.02" y1="111.69" x2="300.02" y2="111.69"/><line class="cls-4" x1="301.03" y1="110.68" x2="304.05" y2="107.65"/><line class="cls-4" x1="305.06" y1="106.65" x2="305.06" y2="106.65"/><line class="cls-4" x1="306.07" y1="105.64" x2="309.09" y2="102.62"/><line class="cls-4" x1="310.1" y1="101.61" x2="310.1" y2="101.61"/><line class="cls-4" x1="299.61" y1="104.03" x2="300.02" y2="103.62"/><line class="cls-4" x1="301.03" y1="102.62" x2="301.03" y2="102.62"/><line class="cls-4" x1="302.03" y1="101.61" x2="305.06" y2="98.58"/><line class="cls-4" x1="306.07" y1="97.57" x2="306.07" y2="97.57"/><line class="cls-4" x1="307.07" y1="96.57" x2="310.1" y2="93.54"/><line class="cls-4" x1="299.61" y1="95.97" x2="301.03" y2="94.55"/><line class="cls-4" x1="302.03" y1="93.54" x2="302.03" y2="93.54"/><line class="cls-4" x1="303.04" y1="92.53" x2="306.07" y2="89.51"/><line class="cls-4" x1="307.07" y1="88.5" x2="307.07" y2="88.5"/><line class="cls-4" x1="308.08" y1="87.49" x2="311.01" y2="84.57"/><line class="cls-4" x1="299.61" y1="87.91" x2="302.03" y2="85.48"/><line class="cls-4" x1="303.04" y1="84.47" x2="303.04" y2="84.47"/><line class="cls-4" x1="304.05" y1="83.46" x2="307.07" y2="80.44"/><line class="cls-4" x1="308.08" y1="79.43" x2="308.08" y2="79.43"/><line class="cls-4" x1="309.09" y1="78.42" x2="311.01" y2="76.5"/><line class="cls-4" x1="300.02" y1="79.43" x2="303.04" y2="76.41"/><line class="cls-4" x1="304.05" y1="75.4" x2="304.05" y2="75.4"/><line class="cls-4" x1="305.06" y1="74.39" x2="308.08" y2="71.37"/><line class="cls-4" x1="309.09" y1="70.36" x2="309.09" y2="70.36"/><line class="cls-4" x1="310.1" y1="69.35" x2="311.01" y2="68.44"/><line class="cls-4" x1="300.02" y1="71.37" x2="300.02" y2="71.37"/><line class="cls-4" x1="301.03" y1="70.36" x2="304.05" y2="67.33"/><line class="cls-4" x1="305.06" y1="66.33" x2="305.06" y2="66.33"/><line class="cls-4" x1="306.07" y1="65.32" x2="309.09" y2="62.3"/><line class="cls-4" x1="310.1" y1="61.29" x2="310.1" y2="61.29"/><line class="cls-4" x1="299.61" y1="63.71" x2="300.02" y2="63.3"/><line class="cls-4" x1="301.03" y1="62.3" x2="301.03" y2="62.3"/><line class="cls-4" x1="302.03" y1="61.29" x2="305.06" y2="58.26"/><line class="cls-4" x1="306.07" y1="57.26" x2="306.07" y2="57.26"/><line class="cls-4" x1="307.07" y1="56.25" x2="310.1" y2="53.22"/><line class="cls-4" x1="299.61" y1="55.65" x2="301.03" y2="54.23"/><line class="cls-4" x1="302.03" y1="53.22" x2="302.03" y2="53.22"/><line class="cls-4" x1="303.04" y1="52.22" x2="306.07" y2="49.19"/><line class="cls-4" x1="307.07" y1="48.18" x2="307.07" y2="48.18"/><line class="cls-4" x1="308.08" y1="47.17" x2="311.01" y2="44.25"/><line class="cls-4" x1="299.61" y1="47.59" x2="302.03" y2="45.16"/><line class="cls-4" x1="303.04" y1="44.15" x2="303.04" y2="44.15"/><line class="cls-4" x1="304.05" y1="43.14" x2="307.07" y2="40.12"/><line class="cls-4" x1="308.08" y1="39.11" x2="308.08" y2="39.11"/><line class="cls-4" x1="309.09" y1="38.1" x2="311.01" y2="36.18"/><line class="cls-4" x1="300.02" y1="39.11" x2="303.04" y2="36.09"/><line class="cls-4" x1="304.05" y1="35.08" x2="304.05" y2="35.08"/><line class="cls-4" x1="305.06" y1="34.07" x2="308.08" y2="31.05"/><line class="cls-4" x1="309.09" y1="30.04" x2="309.09" y2="30.04"/><line class="cls-4" x1="310.1" y1="29.03" x2="311.01" y2="28.12"/><line class="cls-4" x1="300.02" y1="31.05" x2="300.02" y2="31.05"/><line class="cls-4" x1="301.03" y1="30.04" x2="304.05" y2="27.01"/><line class="cls-4" x1="305.06" y1="26.01" x2="305.06" y2="26.01"/><line class="cls-4" x1="299.61" y1="25.6" x2="300.02" y2="25.6"/><line class="cls-4" x1="311.01" y1="449.29" x2="311.01" y2="25.6"/><line class="cls-4" x1="311.01" y1="25.6" x2="299.61" y2="25.6"/><line class="cls-4" x1="299.61" y1="25.6" x2="299.61" y2="449.29"/><line class="cls-4" x1="299.61" y1="449.29" x2="311.01" y2="449.29"/><line class="cls-4" x1="55.15" y1="449.29" x2="57.27" y2="447.17"/><line class="cls-4" x1="47.09" y1="449.29" x2="57.27" y2="439.1"/><line class="cls-4" x1="43.02" y1="445.3" x2="57.27" y2="431.04"/><line class="cls-4" x1="43.02" y1="437.23" x2="57.27" y2="422.98"/><line class="cls-4" x1="43.02" y1="429.17" x2="57.27" y2="414.91"/><line class="cls-4" x1="43.02" y1="421.11" x2="57.27" y2="406.85"/><line class="cls-4" x1="43.02" y1="413.04" x2="57.27" y2="398.79"/><line class="cls-4" x1="43.02" y1="404.98" x2="57.27" y2="390.72"/><line class="cls-4" x1="43.02" y1="396.91" x2="57.27" y2="382.66"/><line class="cls-4" x1="43.02" y1="388.85" x2="53.85" y2="378.01"/><line class="cls-4" x1="43.02" y1="380.79" x2="45.79" y2="378.01"/><line class="cls-4" x1="52.05" y1="448.36" x2="52.05" y2="448.36"/><line class="cls-4" x1="53.06" y1="447.35" x2="56.09" y2="444.32"/><line class="cls-4" x1="57.09" y1="443.31" x2="57.09" y2="443.31"/><line class="cls-4" x1="43.99" y1="448.36" x2="47.01" y2="445.33"/><line class="cls-4" x1="48.02" y1="444.32" x2="48.02" y2="444.32"/><line class="cls-4" x1="49.03" y1="443.31" x2="52.05" y2="440.29"/><line class="cls-4" x1="53.06" y1="439.28" x2="53.06" y2="439.28"/><line class="cls-4" x1="54.07" y1="438.27" x2="57.09" y2="435.25"/><line class="cls-4" x1="43.99" y1="440.29" x2="43.99" y2="440.29"/><line class="cls-4" x1="45" y1="439.28" x2="48.02" y2="436.26"/><line class="cls-4" x1="49.03" y1="435.25" x2="49.03" y2="435.25"/><line class="cls-4" x1="50.04" y1="434.24" x2="53.06" y2="431.22"/><line class="cls-4" x1="54.07" y1="430.21" x2="54.07" y2="430.21"/><line class="cls-4" x1="55.08" y1="429.2" x2="57.27" y2="427.01"/><line class="cls-4" x1="43.02" y1="433.2" x2="43.99" y2="432.23"/><line class="cls-4" x1="45" y1="431.22" x2="45" y2="431.22"/><line class="cls-4" x1="46.01" y1="430.21" x2="49.03" y2="427.19"/><line class="cls-4" x1="50.04" y1="426.18" x2="50.04" y2="426.18"/><line class="cls-4" x1="51.04" y1="425.17" x2="54.07" y2="422.15"/><line class="cls-4" x1="55.08" y1="421.14" x2="55.08" y2="421.14"/><line class="cls-4" x1="56.09" y1="420.13" x2="57.27" y2="418.95"/><line class="cls-4" x1="43.02" y1="425.14" x2="45" y2="423.16"/><line class="cls-4" x1="46.01" y1="422.15" x2="46.01" y2="422.15"/><line class="cls-4" x1="47.01" y1="421.14" x2="50.04" y2="418.11"/><line class="cls-4" x1="51.04" y1="417.11" x2="51.04" y2="417.11"/><line class="cls-4" x1="52.05" y1="416.1" x2="55.08" y2="413.07"/><line class="cls-4" x1="56.09" y1="412.07" x2="56.09" y2="412.07"/><line class="cls-4" x1="57.09" y1="411.06" x2="57.27" y2="410.88"/><line class="cls-4" x1="43.02" y1="417.07" x2="46.01" y2="414.08"/><line class="cls-4" x1="47.01" y1="413.07" x2="47.01" y2="413.07"/><line class="cls-4" x1="48.02" y1="412.07" x2="51.04" y2="409.04"/><line class="cls-4" x1="52.05" y1="408.03" x2="52.05" y2="408.03"/><line class="cls-4" x1="53.06" y1="407.03" x2="56.09" y2="404"/><line class="cls-4" x1="57.09" y1="403" x2="57.09" y2="403"/><line class="cls-4" x1="43.99" y1="408.03" x2="47.01" y2="405.01"/><line class="cls-4" x1="48.02" y1="404" x2="48.02" y2="404"/><line class="cls-4" x1="49.03" y1="403" x2="52.05" y2="399.97"/><line class="cls-4" x1="53.06" y1="398.96" x2="53.06" y2="398.96"/><line class="cls-4" x1="54.07" y1="397.96" x2="57.09" y2="394.93"/><line class="cls-4" x1="43.99" y1="399.97" x2="43.99" y2="399.97"/><line class="cls-4" x1="45" y1="398.96" x2="48.02" y2="395.94"/><line class="cls-4" x1="49.03" y1="394.93" x2="49.03" y2="394.93"/><line class="cls-4" x1="50.04" y1="393.92" x2="53.06" y2="390.9"/><line class="cls-4" x1="54.07" y1="389.89" x2="54.07" y2="389.89"/><line class="cls-4" x1="55.08" y1="388.88" x2="57.27" y2="386.69"/><line class="cls-4" x1="43.02" y1="392.88" x2="43.99" y2="391.91"/><line class="cls-4" x1="45" y1="390.9" x2="45" y2="390.9"/><line class="cls-4" x1="46.01" y1="389.89" x2="49.03" y2="386.87"/><line class="cls-4" x1="50.04" y1="385.86" x2="50.04" y2="385.86"/><line class="cls-4" x1="51.04" y1="384.85" x2="54.07" y2="381.83"/><line class="cls-4" x1="55.08" y1="380.82" x2="55.08" y2="380.82"/><line class="cls-4" x1="56.09" y1="379.81" x2="57.27" y2="378.63"/><line class="cls-4" x1="43.02" y1="384.82" x2="45" y2="382.84"/><line class="cls-4" x1="46.01" y1="381.83" x2="46.01" y2="381.83"/><line class="cls-4" x1="47.01" y1="380.82" x2="49.82" y2="378.01"/><line class="cls-4" x1="57.27" y1="378.01" x2="43.02" y2="378.01"/><line class="cls-4" x1="43.02" y1="378.01" x2="43.02" y2="456.61"/><line class="cls-4" x1="43.02" y1="449.29" x2="57.27" y2="449.29"/><line class="cls-4" x1="57.27" y1="449.29" x2="57.27" y2="378.01"/><line class="cls-4" x1="55.57" y1="206.95" x2="57.27" y2="205.25"/><line class="cls-4" x1="47.51" y1="206.95" x2="57.27" y2="197.19"/><line class="cls-4" x1="43.02" y1="203.38" x2="57.27" y2="189.13"/><line class="cls-4" x1="43.02" y1="195.32" x2="57.27" y2="181.06"/><line class="cls-4" x1="43.02" y1="187.25" x2="57.27" y2="173"/><line class="cls-4" x1="43.02" y1="179.19" x2="57.27" y2="164.93"/><line class="cls-4" x1="43.02" y1="171.13" x2="57.27" y2="156.87"/><line class="cls-4" x1="43.02" y1="163.06" x2="57.27" y2="148.81"/><line class="cls-4" x1="43.02" y1="155" x2="57.27" y2="140.74"/><line class="cls-4" x1="43.02" y1="146.93" x2="54.27" y2="135.68"/><line class="cls-4" x1="43.02" y1="138.87" x2="46.21" y2="135.68"/><line class="cls-4" x1="52.05" y1="206.44" x2="52.05" y2="206.44"/><line class="cls-4" x1="53.06" y1="205.43" x2="56.09" y2="202.4"/><line class="cls-4" x1="57.09" y1="201.4" x2="57.09" y2="201.4"/><line class="cls-4" x1="43.99" y1="206.44" x2="47.01" y2="203.41"/><line class="cls-4" x1="48.02" y1="202.4" x2="48.02" y2="202.4"/><line class="cls-4" x1="49.03" y1="201.4" x2="52.05" y2="198.37"/><line class="cls-4" x1="53.06" y1="197.37" x2="53.06" y2="197.37"/><line class="cls-4" x1="54.07" y1="196.36" x2="57.09" y2="193.33"/><line class="cls-4" x1="43.99" y1="198.37" x2="43.99" y2="198.37"/><line class="cls-4" x1="45" y1="197.37" x2="48.02" y2="194.34"/><line class="cls-4" x1="49.03" y1="193.33" x2="49.03" y2="193.33"/><line class="cls-4" x1="50.04" y1="192.33" x2="53.06" y2="189.3"/><line class="cls-4" x1="54.07" y1="188.29" x2="54.07" y2="188.29"/><line class="cls-4" x1="55.08" y1="187.28" x2="57.27" y2="185.09"/><line class="cls-4" x1="43.02" y1="191.29" x2="43.99" y2="190.31"/><line class="cls-4" x1="45" y1="189.3" x2="45" y2="189.3"/><line class="cls-4" x1="46.01" y1="188.29" x2="49.03" y2="185.27"/><line class="cls-4" x1="50.04" y1="184.26" x2="50.04" y2="184.26"/><line class="cls-4" x1="51.04" y1="183.25" x2="54.07" y2="180.23"/><line class="cls-4" x1="55.08" y1="179.22" x2="55.08" y2="179.22"/><line class="cls-4" x1="56.09" y1="178.21" x2="57.27" y2="177.03"/><line class="cls-4" x1="43.02" y1="183.22" x2="45" y2="181.24"/><line class="cls-4" x1="46.01" y1="180.23" x2="46.01" y2="180.23"/><line class="cls-4" x1="47.01" y1="179.22" x2="50.04" y2="176.2"/><line class="cls-4" x1="51.04" y1="175.19" x2="51.04" y2="175.19"/><line class="cls-4" x1="52.05" y1="174.18" x2="55.08" y2="171.16"/><line class="cls-4" x1="56.09" y1="170.15" x2="56.09" y2="170.15"/><line class="cls-4" x1="57.09" y1="169.14" x2="57.27" y2="168.97"/><line class="cls-4" x1="43.02" y1="175.16" x2="46.01" y2="172.17"/><line class="cls-4" x1="47.01" y1="171.16" x2="47.01" y2="171.16"/><line class="cls-4" x1="48.02" y1="170.15" x2="51.04" y2="167.13"/><line class="cls-4" x1="52.05" y1="166.12" x2="52.05" y2="166.12"/><line class="cls-4" x1="53.06" y1="165.11" x2="56.09" y2="162.08"/><line class="cls-4" x1="57.09" y1="161.08" x2="57.09" y2="161.08"/><line class="cls-4" x1="43.99" y1="166.12" x2="47.01" y2="163.09"/><line class="cls-4" x1="48.02" y1="162.08" x2="48.02" y2="162.08"/><line class="cls-4" x1="49.03" y1="161.08" x2="52.05" y2="158.05"/><line class="cls-4" x1="53.06" y1="157.05" x2="53.06" y2="157.05"/><line class="cls-4" x1="54.07" y1="156.04" x2="57.09" y2="153.01"/><line class="cls-4" x1="43.99" y1="158.05" x2="43.99" y2="158.05"/><line class="cls-4" x1="45" y1="157.05" x2="48.02" y2="154.02"/><line class="cls-4" x1="49.03" y1="153.01" x2="49.03" y2="153.01"/><line class="cls-4" x1="50.04" y1="152.01" x2="53.06" y2="148.98"/><line class="cls-4" x1="54.07" y1="147.98" x2="54.07" y2="147.98"/><line class="cls-4" x1="55.08" y1="146.97" x2="57.27" y2="144.78"/><line class="cls-4" x1="43.02" y1="150.97" x2="43.99" y2="149.99"/><line class="cls-4" x1="45" y1="148.98" x2="45" y2="148.98"/><line class="cls-4" x1="46.01" y1="147.98" x2="49.03" y2="144.95"/><line class="cls-4" x1="50.04" y1="143.94" x2="50.04" y2="143.94"/><line class="cls-4" x1="51.04" y1="142.93" x2="54.07" y2="139.91"/><line class="cls-4" x1="55.08" y1="138.9" x2="55.08" y2="138.9"/><line class="cls-4" x1="56.09" y1="137.89" x2="57.27" y2="136.71"/><line class="cls-4" x1="43.02" y1="142.9" x2="45" y2="140.92"/><line class="cls-4" x1="46.01" y1="139.91" x2="46.01" y2="139.91"/><line class="cls-4" x1="47.01" y1="138.9" x2="50.04" y2="135.88"/><line class="cls-4" x1="57.27" y1="135.68" x2="43.02" y2="135.68"/><line class="cls-4" x1="43.02" y1="135.68" x2="43.02" y2="206.95"/><line class="cls-4" x1="43.02" y1="206.95" x2="57.27" y2="206.95"/><line class="cls-4" x1="57.27" y1="206.95" x2="57.27" y2="135.68"/><path class="cls-4" d="M118.57,6A65.58,65.58,0,0,1,53,71.53"/><path class="cls-4" d="M60,206.17a65.57,65.57,0,0,0,65.57-65.58v-4.92"/><line class="cls-4" x1="59.97" y1="135.67" x2="59.97" y2="206.17"/><path class="cls-4" d="M134.43,46.59A65.57,65.57,0,0,1,200,112.16"/><line class="cls-4" x1="134.43" y1="112.16" x2="200" y2="112.16"/></svg>