<svg id="_769" data-name="769" xmlns="http://www.w3.org/2000/svg" viewBox="0 0 423.75 510.92"><defs><style>.cls-1,.cls-5{fill:none;stroke-linecap:round;stroke-linejoin:round;stroke-width:0.5px;}.cls-1{stroke:#999;}.cls-2{isolation:isolate;font-size:12px;fill:#999;}.cls-2,.cls-4,.cls-6{font-family:PTSans-Regular, PT Sans;}.cls-3{letter-spacing:-0.01em;}.cls-4{font-size:24px;}.cls-5{stroke:#000;}.cls-6{font-size:20px;}</style></defs><title>8floor_769flat</title><line class="cls-1" x1="193.79" y1="499.58" x2="193.79" y2="508.38"/><polyline class="cls-1" points="190.19 505.08 193.69 508.58 197.19 505.08"/><text class="cls-2" transform="translate(203.02 507.99)"><tspan class="cls-3">у</tspan><tspan x="5.42" y="0">лица</tspan></text><text class="cls-4" transform="translate(300.27 299.4)">1К</text><text class="cls-4" transform="translate(285.41 332.44)">31.97</text><text class="cls-4" transform="translate(282.24 266.86)">№769</text><polyline class="cls-5" points="273.6 340.81 273.6 243.61 354.67 243.61 354.67 340.81"/><line class="cls-5" x1="273.6" y1="276.07" x2="354.66" y2="276.07"/><line class="cls-5" x1="273.6" y1="340.81" x2="354.66" y2="340.81"/><line class="cls-5" x1="273.6" y1="308.53" x2="354.66" y2="308.53"/><polyline class="cls-5" points="13.42 157.47 13.42 318.17 13.42 325.92 13.42 335.99 204.71 335.99 204.71 157.47 196.58 157.47 13.42 157.47"/><polyline class="cls-5" points="13.42 13.42 13.42 121.46 13.42 127.26 137.72 127.26 137.72 121.46 137.72 13.42 13.42 13.42"/><line class="cls-5" x1="21.94" y1="122.23" x2="52.91" y2="122.23"/><line class="cls-5" x1="56.79" y1="118.75" x2="56.79" y2="37.42"/><line class="cls-5" x1="18.06" y1="118.75" x2="18.06" y2="37.42"/><line class="cls-5" x1="60.27" y1="14.58" x2="60.27" y2="126.1"/><polyline class="cls-5" points="60.27 14.58 14.58 14.58 14.58 126.1 60.27 126.1"/><line class="cls-5" x1="24.65" y1="50.59" x2="24.65" y2="114.1"/><line class="cls-5" x1="26.58" y1="116.03" x2="48.65" y2="116.03"/><line class="cls-5" x1="50.2" y1="50.59" x2="50.2" y2="114.1"/><line class="cls-5" x1="36.26" y1="102.87" x2="33.94" y2="102.87"/><line class="cls-5" x1="37.42" y1="104.03" x2="37.42" y2="106.35"/><line class="cls-5" x1="38.59" y1="102.87" x2="40.91" y2="102.87"/><line class="cls-5" x1="37.42" y1="101.71" x2="37.42" y2="99.38"/><polyline class="cls-5" points="56.79 37.42 56.4 33.94 55.63 30.45 54.08 27.36 51.75 24.26 49.04 21.93 45.94 20 42.85 18.84 39.36 18.06 35.88 18.06 32.39 18.84 28.91 20 25.81 21.93 23.1 24.26 21.16 27.36 19.61 30.45 18.45 33.94 18.06 37.42"/><polyline class="cls-5" points="52.91 122.23 53.69 122.23 54.46 122.23 54.85 121.84 55.63 121.46 56.01 121.07 56.4 120.68 56.4 119.91 56.79 119.52 56.79 118.75"/><polyline class="cls-5" points="18.06 118.75 18.45 119.52 18.45 119.91 18.84 120.68 19.23 121.07 19.61 121.46 20 121.84 20.77 122.23 21.16 122.23 21.93 122.23"/><polyline class="cls-5" points="37.42 100.93 37.04 100.93 36.65 100.93 36.65 101.32 36.26 101.32 35.88 101.71 35.88 102.09 35.49 102.48 35.49 102.87 35.49 103.26 35.88 103.64 35.88 104.03 36.26 104.42 36.65 104.81 37.04 104.81 37.42 104.81 37.81 104.81 38.2 104.81 38.59 104.42 38.97 104.03 39.36 103.64 39.36 103.26 39.36 102.87 39.36 102.48 39.36 102.09 38.97 101.71 38.97 101.32 38.59 101.32 38.2 100.93 37.81 100.93 37.42 100.93"/><polyline class="cls-5" points="50.2 50.59 50.2 48.27 49.43 45.94 48.27 43.62 47.11 41.69 45.17 40.14 43.23 38.97 40.91 38.2 38.59 37.81 36.26 37.81 33.94 38.2 31.62 38.97 29.68 40.14 28.13 41.69 26.58 43.62 25.42 45.94 24.65 48.27 24.65 50.59"/><polyline class="cls-5" points="24.65 114.1 24.65 114.49 24.65 114.87 25.03 114.87 25.03 115.26 25.42 115.65 25.81 115.65 26.2 116.03 26.58 116.03"/><polyline class="cls-5" points="48.66 116.03 49.04 116.03 49.04 115.65 49.43 115.65 49.82 115.65 49.82 115.26 50.2 114.87 50.2 114.49 50.2 114.1"/><polyline class="cls-5" points="37.42 100.16 37.04 100.55 36.65 100.55 36.26 100.55 35.88 100.93 35.49 101.32 35.1 101.71 35.1 102.48 35.1 102.87 35.1 103.26 35.1 103.64 35.1 104.03 35.49 104.42 35.88 104.81 36.26 105.19 36.65 105.58 37.42 105.58 37.81 105.58 38.2 105.58 38.59 105.19 38.97 104.81 39.36 104.42 39.75 104.03 39.75 103.64 40.14 103.26 40.14 102.87 40.14 102.48 39.75 101.71 39.75 101.32 39.36 100.93 38.97 100.55 38.59 100.55 37.81 100.55 37.42 100.16"/><polyline class="cls-5" points="136.56 111 136.56 126.1 100.93 126.1 100.93 111"/><line class="cls-5" x1="113.32" y1="126.1" x2="124.17" y2="126.1"/><line class="cls-5" x1="115.65" y1="114.1" x2="117.58" y2="114.1"/><line class="cls-5" x1="118.75" y1="117.2" x2="118.75" y2="115.26"/><line class="cls-5" x1="119.91" y1="114.1" x2="121.84" y2="114.1"/><line class="cls-5" x1="118.75" y1="112.94" x2="118.75" y2="111"/><path class="cls-5" d="M127.83,117.4a15.68,15.68,0,0,0,6.08-7.42"/><path class="cls-5" d="M118.45,119.47a15.73,15.73,0,0,0,9.35-2.2"/><path class="cls-5" d="M103.19,110a15.68,15.68,0,0,0,6.08,7.42"/><path class="cls-5" d="M109.3,117.27a15.73,15.73,0,0,0,9.35,2.2"/><path class="cls-5" d="M130.71,102a29.39,29.39,0,0,0-10.79-2.94"/><path class="cls-5" d="M104.34,103.32a9.12,9.12,0,0,0-3.4,7.49"/><path class="cls-5" d="M119.78,99a16.83,16.83,0,0,0-2.46,0"/><path class="cls-5" d="M108.66,116.82a64.38,64.38,0,0,0,19.79,0"/><path class="cls-5" d="M101.71,108.49a22.27,22.27,0,0,0,5,14.47"/><path class="cls-5" d="M108.36,124.23a44.37,44.37,0,0,0,10.14,1.1"/><path class="cls-5" d="M107,123.1a2.87,2.87,0,0,0,1.61,1"/><path class="cls-5" d="M108.52,123.06a75.91,75.91,0,0,0,10,.72"/><path class="cls-5" d="M101.71,108.61a19.93,19.93,0,0,0,5,13.45"/><path class="cls-5" d="M106.69,122a2.94,2.94,0,0,0,1.78,1"/><path class="cls-5" d="M130.4,122.08a20,20,0,0,0,5-13.44"/><path class="cls-5" d="M130.35,123a22.21,22.21,0,0,0,5-14.46"/><path class="cls-5" d="M118.49,123.78a75.9,75.9,0,0,0,10-.71"/><path class="cls-5" d="M118.54,125.33a44.3,44.3,0,0,0,10.14-1.09"/><path class="cls-5" d="M128.63,123a2.94,2.94,0,0,0,1.78-1"/><path class="cls-5" d="M128.87,124.1a3,3,0,0,0,1.61-1"/><path class="cls-5" d="M136.55,110.81a9.12,9.12,0,0,0-3.4-7.49"/><path class="cls-5" d="M133.19,103.26a13.84,13.84,0,0,0-2.38-1.54"/><path class="cls-5" d="M106.68,101.72a13.84,13.84,0,0,0-2.38,1.54"/><path class="cls-5" d="M117.18,99.07A29.45,29.45,0,0,0,106.39,102"/><path class="cls-5" d="M123.41,101.51a20.74,20.74,0,0,0-9.72,0"/><path class="cls-5" d="M133.84,110a5.24,5.24,0,0,0-1.8-4.31"/><path class="cls-5" d="M132.24,105.65a19.17,19.17,0,0,0-8.81-4"/><path class="cls-5" d="M105.07,105.69a5.18,5.18,0,0,0-1.8,4.31"/><path class="cls-5" d="M113.67,101.61a19.14,19.14,0,0,0-8.8,4"/><path class="cls-5" d="M120.68,113.9a2.13,2.13,0,1,0-2.13,2.13,2.13,2.13,0,0,0,2.13-2.13"/><path class="cls-5" d="M120.29,113.9a1.74,1.74,0,1,0-1.74,1.75,1.74,1.74,0,0,0,1.74-1.75"/><line class="cls-5" x1="77.7" y1="116.03" x2="77.7" y2="93.57"/><polyline class="cls-5" points="76.92 117.58 76.92 126.1 100.93 126.1"/><line class="cls-5" x1="88.93" y1="112.16" x2="97.83" y2="112.16"/><polyline class="cls-5" points="77.7 93.58 80.02 112.16 88.93 112.16"/><line class="cls-5" x1="100.16" y1="93.57" x2="97.83" y2="112.16"/><line class="cls-5" x1="78.47" y1="93.57" x2="80.41" y2="112.16"/><line class="cls-5" x1="99.38" y1="93.57" x2="97.45" y2="112.16"/><line class="cls-5" x1="100.16" y1="116.03" x2="100.16" y2="93.57"/><line class="cls-5" x1="100.93" y1="126.1" x2="100.93" y2="117.58"/><polyline class="cls-5" points="77.7 93.58 78.08 90.86 79.25 88.54 80.41 86.6 82.73 84.67 85.06 83.51 87.77 83.12 90.48 83.12 92.8 83.51 95.12 84.67 97.45 86.6 99 88.54 99.77 90.86 100.16 93.58"/><polyline class="cls-5" points="78.47 93.58 78.86 90.86 79.63 88.93 81.18 86.99 83.12 85.06 85.06 84.28 87.77 83.51 90.09 83.51 92.8 84.28 95.12 85.06 97.06 86.99 98.22 88.93 99.38 90.86 99.38 93.58"/><polyline class="cls-5" points="100.93 117.58 100.93 117.2 100.93 116.81 100.55 116.42 100.16 116.42 100.16 116.03 99.77 116.03 88.93 115.65 78.08 116.03 77.7 116.03 77.7 116.42 77.31 116.42 76.92 116.81 76.92 117.2 76.92 117.58"/><polyline class="cls-5" points="88.93 119.52 88.54 119.52 88.15 119.52 88.15 119.91 87.77 120.29 87.77 120.68 87.77 121.07 87.77 121.46 88.15 121.46 88.15 121.84 88.54 121.84 88.93 121.84 89.31 121.84 89.7 121.84 89.7 121.46 90.09 121.46 90.09 121.07 90.09 120.68 90.09 120.29 90.09 119.91 89.7 119.91 89.7 119.52 89.31 119.52 88.93 119.52"/><polyline class="cls-5" points="63.76 14.58 63.76 44.01 102.87 44.01 102.87 14.58 63.76 14.58"/><polyline class="cls-5" points="186.13 359.61 21.16 359.61 21.16 423.5 186.13 423.5 186.13 359.61"/><polyline class="cls-5" points="209.75 152.44 209.75 344.51 209.75 396.78 413.05 396.78 413.05 47.49 303.46 47.49 303.46 97.45 209.75 97.45 209.75 152.44"/><polyline class="cls-5" points="143.14 13.42 143.14 92.03 143.14 152.44 196.58 152.44 196.58 92.03 298.42 92.03 298.42 13.42 143.14 13.42"/><line class="cls-5" x1="298.42" y1="0.25" x2="143.14" y2="0.25"/><path d="M191.55,423.5h0Z"/><path class="cls-5" d="M191.55,423.5h0Z"/><path d="M228.33,431.63H186.12l5.43-8.13Zm0,0Z"/><path class="cls-5" d="M228.33,431.63H186.12l5.43-8.13Zm0,0Z"/><polygon points="191.55 423.5 228.33 423.5 228.33 431.63 191.55 423.5"/><polygon class="cls-5" points="191.55 423.5 228.33 423.5 228.33 431.63 191.55 423.5"/><path d="M419.63,423.5h0Zm0,0Z"/><path class="cls-5" d="M419.63,423.5h0Zm0,0Z"/><path d="M419.63,431.63H399.11V423.5Zm0,0Z"/><path class="cls-5" d="M419.63,431.63H399.11V423.5Zm0,0Z"/><polygon points="399.11 423.5 419.63 423.5 419.63 431.63 399.11 423.5"/><polygon class="cls-5" points="399.11 423.5 419.63 423.5 419.63 431.63 399.11 423.5"/><path d="M191.93,423.12h0Z"/><path class="cls-5" d="M191.93,423.12h0Z"/><path d="M225.62,423.5H191.55l.38-.38Zm0,0Z"/><path class="cls-5" d="M225.62,423.5H191.55l.38-.38Zm0,0Z"/><polygon points="191.93 423.12 225.62 423.12 225.62 423.5 191.93 423.12"/><polygon class="cls-5" points="191.93 423.12 225.62 423.12 225.62 423.5 191.93 423.12"/><path d="M401.82,423.12h0Z"/><path class="cls-5" d="M401.82,423.12h0Z"/><path d="M419.63,423.5H401.82v-.38Zm0,0Z"/><path class="cls-5" d="M419.63,423.5H401.82v-.38Zm0,0Z"/><polygon points="401.82 423.12 419.63 423.12 419.63 423.5 401.82 423.12"/><polygon class="cls-5" points="401.82 423.12 419.63 423.12 419.63 423.5 401.82 423.12"/><path d="M198.9,413.05h0Z"/><path class="cls-5" d="M198.9,413.05h0Z"/><path d="M198.9,413.05l26.72,7.35H193.87Zm26.72,0H198.9l26.72,7.35Z"/><path class="cls-5" d="M198.9,413.05l26.72,7.35H193.87Zm26.72,0H198.9l26.72,7.35Z"/><path d="M225.62,423.12H191.93l1.94-2.72Zm0,0Z"/><path class="cls-5" d="M225.62,423.12H191.93l1.94-2.72Zm0,0Z"/><polygon points="193.87 420.4 225.62 420.4 225.62 423.12 193.87 420.4"/><polygon class="cls-5" points="193.87 420.4 225.62 420.4 225.62 423.12 193.87 420.4"/><path d="M401.82,413.05h0Z"/><path class="cls-5" d="M401.82,413.05h0Z"/><path d="M401.82,413.05l17.81,7.35H401.82Zm17.81,0H401.82l17.81,7.35Z"/><path class="cls-5" d="M401.82,413.05l17.81,7.35H401.82Zm17.81,0H401.82l17.81,7.35Z"/><path d="M419.63,423.12H401.82V420.4Zm0,0Z"/><path class="cls-5" d="M419.63,423.12H401.82V420.4Zm0,0Z"/><polygon points="401.82 420.4 419.63 420.4 419.63 423.12 401.82 420.4"/><polygon class="cls-5" points="401.82 420.4 419.63 420.4 419.63 423.12 401.82 420.4"/><path d="M413.05,396.78h0Z"/><path class="cls-5" d="M413.05,396.78h0Z"/><path d="M419.63,413.05h-6.58V396.78Zm0,0Z"/><path class="cls-5" d="M419.63,413.05h-6.58V396.78Zm0,0Z"/><polygon points="413.05 396.78 419.63 396.78 419.63 413.05 413.05 396.78"/><polygon class="cls-5" points="413.05 396.78 419.63 396.78 419.63 413.05 413.05 396.78"/><path d="M209.75,396.78h0Z"/><path class="cls-5" d="M209.75,396.78h0Z"/><path d="M225.62,413.05H209.75V396.78Zm0,0Z"/><path class="cls-5" d="M225.62,413.05H209.75V396.78Zm0,0Z"/><polygon points="209.75 396.78 225.62 396.78 225.62 413.05 209.75 396.78"/><polygon class="cls-5" points="209.75 396.78 225.62 396.78 225.62 413.05 209.75 396.78"/><path d="M413.05,413.05H401.82V396.78Zm0,0Z"/><path class="cls-5" d="M413.05,413.05H401.82V396.78Zm0,0Z"/><polygon points="401.82 396.78 413.05 396.78 413.05 413.05 401.82 396.78"/><polygon class="cls-5" points="401.82 396.78 413.05 396.78 413.05 413.05 401.82 396.78"/><path d="M209.75,413.05h0Zm0-16.27v16.27H198.9Z"/><path class="cls-5" d="M209.75,413.05h0Zm0-16.27v16.27H198.9Z"/><line class="cls-5" x1="401.82" y1="423.5" x2="419.63" y2="423.5"/><line class="cls-5" x1="191.55" y1="423.5" x2="225.62" y2="423.5"/><line class="cls-5" x1="401.82" y1="423.12" x2="419.63" y2="423.12"/><line class="cls-5" x1="191.93" y1="423.12" x2="225.62" y2="423.12"/><line class="cls-5" x1="413.05" y1="396.78" x2="413.05" y2="413.05"/><line class="cls-5" x1="209.75" y1="396.78" x2="209.75" y2="413.05"/><polyline class="cls-5" points="401.82 420.4 401.82 413.05 401.82 396.78"/><polyline class="cls-5" points="399.11 431.63 399.11 423.5 401.82 423.5"/><polyline class="cls-5" points="401.82 423.5 401.82 423.12 401.82 420.4"/><polyline class="cls-5" points="225.62 420.4 225.62 413.05 225.62 396.78"/><polyline class="cls-5" points="228.33 431.63 228.33 423.5 225.62 423.5"/><polyline class="cls-5" points="225.62 423.5 225.62 423.12 225.62 420.4"/><line class="cls-5" x1="413.05" y1="396.78" x2="401.82" y2="396.78"/><line class="cls-5" x1="225.62" y1="396.78" x2="209.75" y2="396.78"/><line class="cls-5" x1="186.12" y1="431.63" x2="228.33" y2="431.63"/><line class="cls-5" x1="399.11" y1="431.63" x2="419.63" y2="431.63"/><line class="cls-5" x1="228.33" y1="431.63" x2="399.11" y2="431.63"/><line class="cls-5" x1="225.62" y1="396.78" x2="401.82" y2="396.78"/><path d="M225.62,420.4h0Z"/><path class="cls-5" d="M225.62,420.4h0Z"/><path d="M233.37,423.5h-7.75v-3.1Zm0,0Z"/><path class="cls-5" d="M233.37,423.5h-7.75v-3.1Zm0,0Z"/><polygon points="225.62 420.4 233.37 420.4 233.37 423.5 225.62 420.4"/><polygon class="cls-5" points="225.62 420.4 233.37 420.4 233.37 423.5 225.62 420.4"/><path d="M283.32,420.4h0Z"/><path class="cls-5" d="M283.32,420.4h0Z"/><path d="M286,423.5h-2.71v-3.1Zm0,0Z"/><path class="cls-5" d="M286,423.5h-2.71v-3.1Zm0,0Z"/><polygon points="283.32 420.4 286.03 420.4 286.03 423.5 283.32 420.4"/><polygon class="cls-5" points="283.32 420.4 286.03 420.4 286.03 423.5 283.32 420.4"/><path d="M286,420.4h0Z"/><path class="cls-5" d="M286,420.4h0Z"/><path d="M288.74,423.5H286v-3.1Zm0,0Z"/><path class="cls-5" d="M288.74,423.5H286v-3.1Zm0,0Z"/><polygon points="286.03 420.4 288.74 420.4 288.74 423.5 286.03 420.4"/><polygon class="cls-5" points="286.03 420.4 288.74 420.4 288.74 423.5 286.03 420.4"/><path d="M338.7,420.4h0Z"/><path class="cls-5" d="M338.7,420.4h0Z"/><path d="M341.41,423.5H338.7v-3.1Zm0,0Z"/><path class="cls-5" d="M341.41,423.5H338.7v-3.1Zm0,0Z"/><polygon points="338.7 420.4 341.41 420.4 341.41 423.5 338.7 420.4"/><polygon class="cls-5" points="338.7 420.4 341.41 420.4 341.41 423.5 338.7 420.4"/><path d="M341.41,420.4h0Z"/><path class="cls-5" d="M341.41,420.4h0Z"/><path d="M344.12,423.5h-2.71v-3.1Zm0,0Z"/><path class="cls-5" d="M344.12,423.5h-2.71v-3.1Zm0,0Z"/><polygon points="341.41 420.4 344.12 420.4 344.12 423.5 341.41 420.4"/><polygon class="cls-5" points="341.41 420.4 344.12 420.4 344.12 423.5 341.41 420.4"/><path d="M394.07,420.4h0Z"/><path class="cls-5" d="M394.07,420.4h0Z"/><path d="M401.82,423.5h-7.75v-3.1Zm0,0Z"/><path class="cls-5" d="M401.82,423.5h-7.75v-3.1Zm0,0Z"/><polygon points="394.07 420.4 401.82 420.4 401.82 423.5 394.07 420.4"/><polygon class="cls-5" points="394.07 420.4 401.82 420.4 401.82 423.5 394.07 420.4"/><polyline class="cls-5" points="225.62 420.4 233.37 420.4 233.37 423.5 225.62 423.5"/><polyline class="cls-5" points="286.03 423.5 283.32 423.5 283.32 420.4 286.03 420.4"/><line class="cls-5" x1="233.37" y1="420.4" x2="283.32" y2="420.4"/><line class="cls-5" x1="283.32" y1="423.5" x2="233.37" y2="423.5"/><polyline class="cls-5" points="286.03 420.4 288.74 420.4 288.74 423.5 286.03 423.5"/><polyline class="cls-5" points="341.41 423.5 338.7 423.5 338.7 420.4 341.41 420.4"/><line class="cls-5" x1="288.74" y1="420.4" x2="338.7" y2="420.4"/><line class="cls-5" x1="338.7" y1="423.5" x2="288.74" y2="423.5"/><polyline class="cls-5" points="341.41 420.4 344.12 420.4 344.12 423.5 341.41 423.5"/><polyline class="cls-5" points="401.82 423.5 394.07 423.5 394.07 420.4 401.82 420.4"/><line class="cls-5" x1="344.12" y1="420.4" x2="394.07" y2="420.4"/><line class="cls-5" x1="394.07" y1="423.5" x2="344.12" y2="423.5"/><polyline class="cls-5" points="228.33 423.5 225.62 423.5 225.62 423.12 225.62 420.4"/><polyline class="cls-5" points="399.11 423.5 401.82 423.5 401.82 423.12 401.82 420.4"/><polyline points="423.5 423.5 419.63 423.5 423.5 423.5"/><polyline class="cls-5" points="423.5 423.5 419.63 423.5 423.5 423.5"/><polyline points="423.5 431.63 419.63 431.63 419.63 423.5 423.5 431.63"/><polyline points="423.5 431.63 419.63 431.63 423.5 431.63"/><polyline class="cls-5" points="423.5 431.63 419.63 431.63 419.63 423.5 423.5 431.63"/><polyline class="cls-5" points="423.5 431.63 419.63 431.63 423.5 431.63"/><polyline points="423.5 431.63 419.63 423.5 423.5 423.5"/><polyline class="cls-5" points="423.5 431.63 419.63 423.5 423.5 423.5"/><polyline points="423.5 423.12 419.63 423.12 423.5 423.12"/><polyline class="cls-5" points="423.5 423.12 419.63 423.12 423.5 423.12"/><polyline points="423.5 423.5 419.63 423.5 419.63 423.12 423.5 423.5"/><polyline points="423.5 423.5 419.63 423.5 423.5 423.5"/><polyline class="cls-5" points="423.5 423.5 419.63 423.5 419.63 423.12 423.5 423.5"/><polyline class="cls-5" points="423.5 423.5 419.63 423.5 423.5 423.5"/><polyline points="423.5 423.5 419.63 423.12 423.5 423.12"/><polyline class="cls-5" points="423.5 423.5 419.63 423.12 423.5 423.12"/><polyline points="423.5 413.05 419.63 413.05 423.5 413.05"/><polyline class="cls-5" points="423.5 413.05 419.63 413.05 423.5 413.05"/><polyline points="423.5 420.4 419.63 420.4 419.63 413.05 423.5 420.4"/><polyline points="423.5 413.05 419.63 413.05 423.5 420.4"/><polyline class="cls-5" points="423.5 420.4 419.63 420.4 419.63 413.05 423.5 420.4"/><polyline class="cls-5" points="423.5 413.05 419.63 413.05 423.5 420.4"/><polyline points="423.5 423.12 419.63 423.12 419.63 420.4 423.5 423.12"/><polyline points="423.5 423.12 419.63 423.12 423.5 423.12"/><polyline class="cls-5" points="423.5 423.12 419.63 423.12 419.63 420.4 423.5 423.12"/><polyline class="cls-5" points="423.5 423.12 419.63 423.12 423.5 423.12"/><polyline points="423.5 423.12 419.63 420.4 423.5 420.4"/><polyline class="cls-5" points="423.5 423.12 419.63 420.4 423.5 420.4"/><polyline points="423.5 396.78 423.5 396.78 423.5 396.78"/><polyline class="cls-5" points="423.5 396.78 423.5 396.78 423.5 396.78"/><polyline points="423.5 413.05 423.5 413.05 423.5 396.78 423.5 413.05"/><polyline points="423.5 413.05 423.5 413.05 423.5 413.05"/><polyline class="cls-5" points="423.5 413.05 423.5 413.05 423.5 396.78 423.5 413.05"/><polyline class="cls-5" points="423.5 413.05 423.5 413.05 423.5 413.05"/><polyline points="423.5 413.05 423.5 396.78 423.5 396.78"/><polyline class="cls-5" points="423.5 413.05 423.5 396.78 423.5 396.78"/><path d="M419.63,396.78h0Z"/><path class="cls-5" d="M419.63,396.78h0Z"/><path d="M423.5,413.05h-3.87V396.78Zm0,0Z"/><path class="cls-5" d="M423.5,413.05h-3.87V396.78Zm0,0Z"/><polygon points="419.63 396.78 423.5 396.78 423.5 413.05 419.63 396.78"/><polygon class="cls-5" points="419.63 396.78 423.5 396.78 423.5 413.05 419.63 396.78"/><line class="cls-5" x1="419.63" y1="423.5" x2="423.5" y2="423.5"/><line class="cls-5" x1="419.63" y1="423.12" x2="423.5" y2="423.12"/><line class="cls-5" x1="423.5" y1="431.05" x2="423.5" y2="396.78"/><line class="cls-5" x1="423.5" y1="396.78" x2="423.5" y2="396.78"/><line class="cls-5" x1="419.63" y1="431.63" x2="423.5" y2="431.63"/><path d="M66.47,423.5h0Z"/><path class="cls-5" d="M66.47,423.5h0Z"/><path d="M15.74,423.5,66.47,427H15.74Zm50.73,0H15.74L66.47,427Z"/><path class="cls-5" d="M15.74,423.5,66.47,427H15.74Zm50.73,0H15.74L66.47,427Z"/><path d="M15.74,427l50.73,4.64H15.74Zm50.73,0H15.74l50.73,4.64Z"/><path class="cls-5" d="M15.74,427l50.73,4.64H15.74Zm50.73,0H15.74l50.73,4.64Z"/><path d="M177.61,423.5h0Z"/><path class="cls-5" d="M177.61,423.5h0Z"/><path d="M177.61,423.5l8.51,3.49h-8.51Zm8.51,0h-8.51l8.51,3.49Z"/><path class="cls-5" d="M177.61,423.5l8.51,3.49h-8.51Zm8.51,0h-8.51l8.51,3.49Z"/><path d="M186.12,431.63h-8.51V427Zm0,0Z"/><path class="cls-5" d="M186.12,431.63h-8.51V427Zm0,0Z"/><polygon points="177.6 426.99 186.13 426.99 186.13 431.63 177.6 426.99"/><polygon class="cls-5" points="177.6 426.99 186.13 426.99 186.13 431.63 177.6 426.99"/><polyline class="cls-5" points="177.6 431.63 177.6 426.99 177.6 423.5"/><polyline class="cls-5" points="66.47 431.63 66.47 426.99 66.47 423.5"/><polyline class="cls-5" points="15.74 431.63 15.74 426.99 15.74 423.5"/><line class="cls-5" x1="15.74" y1="431.63" x2="66.47" y2="431.63"/><polyline class="cls-5" points="177.6 431.63 186.13 431.63 186.13 423.5 177.6 423.5"/><line class="cls-5" x1="66.47" y1="423.5" x2="15.74" y2="423.5"/><line class="cls-5" x1="66.47" y1="431.63" x2="177.61" y2="431.63"/><line class="cls-5" x1="66.47" y1="423.5" x2="177.61" y2="423.5"/><path d="M66.47,423.5h0Z"/><path class="cls-5" d="M66.47,423.5h0Z"/><path d="M70.34,427H66.47V423.5Zm0,0Z"/><path class="cls-5" d="M70.34,427H66.47V423.5Zm0,0Z"/><polygon points="66.47 423.5 70.34 423.5 70.34 426.99 66.47 423.5"/><polygon class="cls-5" points="66.47 423.5 70.34 423.5 70.34 426.99 66.47 423.5"/><path d="M119.52,423.5h0Z"/><path class="cls-5" d="M119.52,423.5h0Z"/><path d="M122.23,427h-2.71V423.5Zm0,0Z"/><path class="cls-5" d="M122.23,427h-2.71V423.5Zm0,0Z"/><polygon points="119.52 423.5 122.23 423.5 122.23 426.99 119.52 423.5"/><polygon class="cls-5" points="119.52 423.5 122.23 423.5 122.23 426.99 119.52 423.5"/><path d="M122.23,423.5h0Z"/><path class="cls-5" d="M122.23,423.5h0Z"/><path d="M124.55,427h-2.32V423.5Zm0,0Z"/><path class="cls-5" d="M124.55,427h-2.32V423.5Zm0,0Z"/><polygon points="122.23 423.5 124.55 423.5 124.55 426.99 122.23 423.5"/><polygon class="cls-5" points="122.23 423.5 124.55 423.5 124.55 426.99 122.23 423.5"/><path d="M173.73,423.5h0Z"/><path class="cls-5" d="M173.73,423.5h0Z"/><path d="M177.61,427h-3.88V423.5Zm0,0Z"/><path class="cls-5" d="M177.61,427h-3.88V423.5Zm0,0Z"/><polygon points="173.73 423.5 177.6 423.5 177.6 426.99 173.73 423.5"/><polygon class="cls-5" points="173.73 423.5 177.6 423.5 177.6 426.99 173.73 423.5"/><polyline class="cls-5" points="66.47 426.99 70.34 426.99 70.34 423.5 66.47 423.5"/><polyline class="cls-5" points="122.23 423.5 119.52 423.5 119.52 426.99 122.23 426.99"/><line class="cls-5" x1="70.34" y1="426.99" x2="119.52" y2="426.99"/><line class="cls-5" x1="119.52" y1="423.5" x2="70.34" y2="423.5"/><polyline class="cls-5" points="122.23 426.99 124.55 426.99 124.55 423.5 122.23 423.5"/><polyline class="cls-5" points="177.6 423.5 173.73 423.5 173.73 426.99 177.6 426.99"/><line class="cls-5" x1="124.55" y1="426.99" x2="173.73" y2="426.99"/><line class="cls-5" x1="173.73" y1="423.5" x2="124.55" y2="423.5"/><line class="cls-5" x1="66.47" y1="426.99" x2="66.47" y2="423.5"/><line class="cls-5" x1="177.61" y1="426.99" x2="177.61" y2="423.5"/><path d="M15.74,423.5Z"/><path class="cls-5" d="M15.74,423.5Z"/><path d="M15.74,427h0v0Zm0,0Z"/><path class="cls-5" d="M15.74,427h0v0Zm0,0Z"/><polygon points="15.74 423.5 15.74 423.5 15.74 426.99 15.74 423.5"/><polygon class="cls-5" points="15.74 423.5 15.74 423.5 15.74 426.99 15.74 423.5"/><polyline class="cls-5" points="15.74 423.5 15.74 423.5 15.74 426.99 15.74 426.99"/><line class="cls-5" x1="15.74" y1="426.99" x2="15.74" y2="423.5"/><polygon points="186.13 358.83 186.9 358.83 186.13 359.61 186.13 358.83"/><polygon class="cls-5" points="186.13 358.83 186.9 358.83 186.13 359.61 186.13 358.83"/><path d="M.25,358.83l100.68.78H.25Zm100.68,0H.25l100.68.78Z"/><path class="cls-5" d="M.25,358.83l100.68.78H.25Zm100.68,0H.25l100.68.78Z"/><path d="M196.58,349.15H186.9v9.68Zm0,0Z"/><path class="cls-5" d="M196.58,349.15H186.9v9.68Zm0,0Z"/><path d="M100.93,358.83H.25v-9.68Zm0,0Z"/><path class="cls-5" d="M100.93,358.83H.25v-9.68Zm0,0Z"/><polygon points="0.25 349.15 100.93 349.15 100.93 358.83 0.25 349.15"/><polygon class="cls-5" points="0.25 349.15 100.93 349.15 100.93 358.83 0.25 349.15"/><path d="M186.12,349.15h0Z"/><path class="cls-5" d="M186.12,349.15h0Z"/><path d="M186.9,358.83h-.78v-9.68Zm0,0Z"/><path class="cls-5" d="M186.9,358.83h-.78v-9.68Zm0,0Z"/><polygon points="186.13 349.15 186.9 349.15 186.9 358.83 186.13 349.15"/><polygon class="cls-5" points="186.13 349.15 186.9 349.15 186.9 358.83 186.13 349.15"/><path d="M209.75,336H196.58v13.16Zm0,0Z"/><path class="cls-5" d="M209.75,336H196.58v13.16Zm0,0Z"/><path d="M13.42,336l87.51,9.68H13.42Zm87.51,0H13.42l87.51,9.68Z"/><path class="cls-5" d="M13.42,336l87.51,9.68H13.42Zm87.51,0H13.42l87.51,9.68Z"/><path d="M13.42,345.67l87.51,3.48H13.42Zm87.51,0H13.42l87.51,3.48Z"/><path class="cls-5" d="M13.42,345.67l87.51,3.48H13.42Zm87.51,0H13.42l87.51,3.48Z"/><path d="M186.12,336h0Z"/><path class="cls-5" d="M186.12,336h0Z"/><path d="M186.12,336l10.46,9.68H186.12Zm10.46,0H186.12l10.46,9.68Z"/><path class="cls-5" d="M186.12,336l10.46,9.68H186.12Zm10.46,0H186.12l10.46,9.68Z"/><path d="M196.58,349.15H186.12v-3.48Zm0,0Z"/><path class="cls-5" d="M196.58,349.15H186.12v-3.48Zm0,0Z"/><polygon points="186.13 345.67 196.58 345.67 196.58 349.15 186.13 345.67"/><polygon class="cls-5" points="186.13 345.67 196.58 345.67 196.58 349.15 186.13 345.67"/><path d="M.25,336h0Z"/><path class="cls-5" d="M.25,336h0Z"/><path d="M13.42,349.15H.25V336Zm0,0Z"/><path class="cls-5" d="M13.42,349.15H.25V336Zm0,0Z"/><polygon points="0.25 335.99 13.42 335.99 13.42 349.15 0.25 335.99"/><polygon class="cls-5" points="0.25 335.99 13.42 335.99 13.42 349.15 0.25 335.99"/><path d="M100.93,349.15l.78,9.68h-.78Zm.78,0h-.78l.78,9.68Z"/><path class="cls-5" d="M100.93,349.15l.78,9.68h-.78Zm.78,0h-.78l.78,9.68Z"/><path d="M100.93,358.83l.78.78h-.78Zm.78,0h-.78l.78.78Z"/><path class="cls-5" d="M100.93,358.83l.78.78h-.78Zm.78,0h-.78l.78.78Z"/><path d="M185.74,349.15l.38,9.68h-.38Zm.38,0h-.38l.38,9.68Z"/><path class="cls-5" d="M185.74,349.15l.38,9.68h-.38Zm.38,0h-.38l.38,9.68Z"/><path d="M185.74,358.83l.38.78h-.38Zm.38,0h-.38l.38.78Z"/><path class="cls-5" d="M185.74,358.83l.38.78h-.38Zm.38,0h-.38l.38.78Z"/><line class="cls-5" x1="186.12" y1="358.83" x2="186.9" y2="358.83"/><line class="cls-5" x1="0.25" y1="358.83" x2="100.93" y2="358.83"/><polyline class="cls-5" points="196.58 335.99 196.58 349.15 186.13 349.15"/><line class="cls-5" x1="13.42" y1="349.15" x2="100.93" y2="349.15"/><line class="cls-5" x1="0.25" y1="335.99" x2="0.25" y2="349.15"/><polyline class="cls-5" points="0.25 349.15 13.42 349.15 13.42 335.99"/><polyline class="cls-5" points="186.13 358.83 186.13 349.15 185.74 349.15 185.74 359.61 186.13 359.61"/><polyline class="cls-5" points="100.93 358.83 100.93 349.15 101.71 349.15 101.71 359.61 100.93 359.61"/><polyline class="cls-5" points="186.13 349.15 186.13 345.67 186.13 335.99"/><polyline class="cls-5" points="100.93 349.15 100.93 345.67 100.93 335.99"/><line class="cls-5" x1="0.25" y1="359.61" x2="100.93" y2="359.61"/><polyline class="cls-5" points="209.75 335.99 196.58 335.99 186.13 335.99"/><line class="cls-5" x1="100.93" y1="335.99" x2="13.42" y2="335.99"/><line class="cls-5" x1="101.71" y1="359.61" x2="185.74" y2="359.61"/><line class="cls-5" x1="100.93" y1="335.99" x2="186.12" y2="335.99"/><path d="M100.93,345.67h0Z"/><path class="cls-5" d="M100.93,345.67h0Z"/><path d="M106.74,349.15h-5.81v-3.48Zm0,0Z"/><path class="cls-5" d="M106.74,349.15h-5.81v-3.48Zm0,0Z"/><polygon points="100.93 345.67 106.74 345.67 106.74 349.15 100.93 345.67"/><polygon class="cls-5" points="100.93 345.67 106.74 345.67 106.74 349.15 100.93 345.67"/><path d="M130.75,345.67h0Z"/><path class="cls-5" d="M130.75,345.67h0Z"/><path d="M133.85,349.15h-3.1v-3.48Zm0,0Z"/><path class="cls-5" d="M133.85,349.15h-3.1v-3.48Zm0,0Z"/><polygon points="130.75 345.67 133.85 345.67 133.85 349.15 130.75 345.67"/><polygon class="cls-5" points="130.75 345.67 133.85 345.67 133.85 349.15 130.75 345.67"/><path d="M133.85,345.67h0Z"/><path class="cls-5" d="M133.85,345.67h0Z"/><path d="M137,349.15h-3.1v-3.48Zm0,0Z"/><path class="cls-5" d="M137,349.15h-3.1v-3.48Zm0,0Z"/><polygon points="133.85 345.67 136.94 345.67 136.94 349.15 133.85 345.67"/><polygon class="cls-5" points="133.85 345.67 136.94 345.67 136.94 349.15 133.85 345.67"/><path d="M180.7,345.67h0Z"/><path class="cls-5" d="M180.7,345.67h0Z"/><path d="M186.12,349.15H180.7v-3.48Zm0,0Z"/><path class="cls-5" d="M186.12,349.15H180.7v-3.48Zm0,0Z"/><polygon points="180.7 345.67 186.13 345.67 186.13 349.15 180.7 345.67"/><polygon class="cls-5" points="180.7 345.67 186.13 345.67 186.13 349.15 180.7 345.67"/><polyline class="cls-5" points="100.93 349.15 106.74 349.15 106.74 345.67 100.93 345.67"/><polyline class="cls-5" points="133.85 345.67 130.75 345.67 130.75 349.15 133.85 349.15"/><line class="cls-5" x1="106.74" y1="349.15" x2="130.75" y2="349.15"/><line class="cls-5" x1="130.75" y1="345.67" x2="106.74" y2="345.67"/><polyline class="cls-5" points="133.85 349.15 136.94 349.15 136.94 345.67 133.85 345.67"/><polyline class="cls-5" points="186.13 345.67 180.7 345.67 180.7 349.15 186.13 349.15"/><line class="cls-5" x1="136.95" y1="349.15" x2="180.7" y2="349.15"/><line class="cls-5" x1="180.7" y1="345.67" x2="136.95" y2="345.67"/><line class="cls-5" x1="100.93" y1="349.15" x2="100.93" y2="345.67"/><line class="cls-5" x1="186.12" y1="349.15" x2="186.12" y2="345.67"/><path d="M186.12,423.5h0Z"/><path class="cls-5" d="M186.12,423.5h0Z"/><path d="M186.12,430.47h.78l-.78,1.16Zm0-7v7h.78Z"/><path class="cls-5" d="M186.12,430.47h.78l-.78,1.16Zm0-7v7h.78Z"/><polygon points="186.13 423.5 186.9 423.5 186.9 430.47 186.13 423.5"/><polygon class="cls-5" points="186.13 423.5 186.9 423.5 186.9 430.47 186.13 423.5"/><path d="M186.12,423.12h0Z"/><path class="cls-5" d="M186.12,423.12h0Z"/><path d="M186.9,423.5h-.78v-.38Zm0,0Z"/><path class="cls-5" d="M186.9,423.5h-.78v-.38Zm0,0Z"/><path d="M186.12,423.12h.78v.38Zm.78,0h0Zm-.78-63.51.78,63.51h-.78Zm.78,0h-.78l.78,63.51Zm0-.78v.78h-.78Z"/><path class="cls-5" d="M186.12,423.12h.78v.38Zm.78,0h0Zm-.78-63.51.78,63.51h-.78Zm.78,0h-.78l.78,63.51Zm0-.78v.78h-.78Z"/><path d="M191.55,423.5H186.9v7Zm0,0Z"/><path class="cls-5" d="M191.55,423.5H186.9v7Zm0,0Z"/><path d="M186.9,423.12h0Z"/><path class="cls-5" d="M186.9,423.12h0Z"/><path d="M191.55,423.5H186.9v-.38Zm0,0Z"/><path class="cls-5" d="M191.55,423.5H186.9v-.38Zm0,0Z"/><polygon points="186.9 423.12 191.93 423.12 191.55 423.5 186.9 423.12"/><polygon class="cls-5" points="186.9 423.12 191.93 423.12 191.55 423.5 186.9 423.12"/><path d="M186.9,413.05h0Z"/><path class="cls-5" d="M186.9,413.05h0Z"/><path d="M186.9,413.05l9.68,3.09H186.9Zm9.68,0H186.9l9.68,3.09Z"/><path class="cls-5" d="M186.9,413.05l9.68,3.09H186.9Zm9.68,0H186.9l9.68,3.09Z"/><path d="M191.93,423.12h-5v-7Zm0,0Z"/><path class="cls-5" d="M191.93,423.12h-5v-7Zm0,0Z"/><polygon points="186.9 416.14 196.58 416.14 191.93 423.12 186.9 416.14"/><polygon class="cls-5" points="186.9 416.14 196.58 416.14 191.93 423.12 186.9 416.14"/><path d="M186.9,358.83h0Z"/><path class="cls-5" d="M186.9,358.83h0Z"/><path d="M196.58,413.05H186.9V358.83Zm0,0Z"/><path class="cls-5" d="M196.58,413.05H186.9V358.83Zm0,0Z"/><path d="M186.9,358.83h9.68v54.22Zm9.68-9.68-9.68,9.68h9.68Z"/><path class="cls-5" d="M186.9,358.83h9.68v54.22Zm9.68-9.68-9.68,9.68h9.68Z"/><path d="M186.9,358.83h0Z"/><path class="cls-5" d="M186.9,358.83h0Z"/><path d="M198.9,413.05h-2.32v3.09Zm0,0Z"/><path class="cls-5" d="M198.9,413.05h-2.32v3.09Zm0,0Z"/><polygon points="209.75 335.99 209.75 349.15 196.58 349.15 209.75 335.99"/><polygon class="cls-5" points="209.75 335.99 209.75 349.15 196.58 349.15 209.75 335.99"/><path d="M196.58,349.15l13.17,47.63H196.58Zm13.17,0H196.58l13.17,47.63Z"/><path class="cls-5" d="M196.58,349.15l13.17,47.63H196.58Zm13.17,0H196.58l13.17,47.63Z"/><path d="M198.9,413.05h-2.32V396.78Zm0,0Z"/><path class="cls-5" d="M198.9,413.05h-2.32V396.78Zm0,0Z"/><polygon points="196.58 396.78 209.75 396.78 198.9 413.05 196.58 396.78"/><polygon class="cls-5" points="196.58 396.78 209.75 396.78 198.9 413.05 196.58 396.78"/><polyline class="cls-5" points="191.55 423.5 186.9 423.5 186.13 423.5"/><polyline class="cls-5" points="191.93 423.12 186.9 423.12 186.9 413.05 186.9 358.83"/><line class="cls-5" x1="196.58" y1="349.15" x2="196.58" y2="413.05"/><line class="cls-5" x1="209.75" y1="396.78" x2="209.75" y2="335.99"/><polyline class="cls-5" points="186.13 431.63 186.13 423.5 186.13 423.12 186.13 359.61"/><path d="M298.42,13.42h0Z"/><path class="cls-5" d="M298.42,13.42h0Z"/><path d="M298.42,34.33h13.17L298.42,47.49Zm0-20.91V34.33h13.17Z"/><path class="cls-5" d="M298.42,34.33h13.17L298.42,47.49Zm0-20.91V34.33h13.17Z"/><polygon points="298.42 13.42 311.59 13.42 311.59 34.33 298.42 13.42"/><polygon class="cls-5" points="298.42 13.42 311.59 13.42 311.59 34.33 298.42 13.42"/><line class="cls-5" x1="311.59" y1="34.33" x2="311.59" y2="13.42"/><line class="cls-5" x1="298.42" y1="13.42" x2="298.42" y2="47.49"/><path d="M311.59,34.33,413.05,47.49H298.42Zm101.46,0H311.59L413.05,47.49Z"/><path class="cls-5" d="M311.59,34.33,413.05,47.49H298.42Zm101.46,0H311.59L413.05,47.49Z"/><polyline class="cls-5" points="311.59 34.33 413.05 34.33 413.05 47.49 298.42 47.49"/><line class="cls-5" x1="423.5" y1="47.49" x2="423.5" y2="34.33"/><path d="M143.14,152.43h0Z"/><path class="cls-5" d="M143.14,152.43h0Z"/><path d="M143.14,157.47H13.42v-5Zm0,0Z"/><path class="cls-5" d="M143.14,157.47H13.42v-5Zm0,0Z"/><polygon points="13.42 152.44 143.14 152.44 143.14 157.47 13.42 152.44"/><polygon class="cls-5" points="13.42 152.44 143.14 152.44 143.14 157.47 13.42 152.44"/><path d="M196.58,152.43h0Z"/><path class="cls-5" d="M196.58,152.43h0Z"/><path d="M196.58,157.47h-1.16v-5Zm0,0Z"/><path class="cls-5" d="M196.58,157.47h-1.16v-5Zm0,0Z"/><polygon points="195.42 152.44 196.58 152.44 196.58 157.47 195.42 152.44"/><polygon class="cls-5" points="195.42 152.44 196.58 152.44 196.58 157.47 195.42 152.44"/><path d="M209.75,152.43h0Z"/><path class="cls-5" d="M209.75,152.43h0Z"/><path d="M204.71,157.47h-8.13v-5Zm0,0Z"/><path class="cls-5" d="M204.71,157.47h-8.13v-5Zm0,0Z"/><polygon points="196.58 152.44 209.75 152.44 204.71 157.47 196.58 152.44"/><polygon class="cls-5" points="196.58 152.44 209.75 152.44 204.71 157.47 196.58 152.44"/><line class="cls-5" x1="143.14" y1="157.47" x2="143.14" y2="152.43"/><line class="cls-5" x1="196.58" y1="152.43" x2="196.58" y2="157.47"/><line class="cls-5" x1="209.75" y1="152.43" x2="209.75" y2="152.43"/><polyline class="cls-5" points="195.42 157.47 195.42 152.44 196.58 152.44"/><line class="cls-5" x1="143.14" y1="152.43" x2="13.42" y2="152.43"/><line class="cls-5" x1="13.42" y1="157.47" x2="143.14" y2="157.47"/><line class="cls-5" x1="195.42" y1="157.47" x2="204.71" y2="157.47"/><line class="cls-5" x1="143.14" y1="152.43" x2="146.24" y2="152.43"/><line class="cls-5" x1="143.14" y1="157.47" x2="146.24" y2="157.47"/><line class="cls-5" x1="195.42" y1="152.43" x2="192.32" y2="152.43"/><line class="cls-5" x1="195.42" y1="157.47" x2="192.32" y2="157.47"/><line class="cls-5" x1="146.24" y1="157.47" x2="146.24" y2="152.43"/><polyline class="cls-5" points="192.32 157.47 192.32 152.44 192.32 106.35"/><path class="cls-5" d="M192.13,106.35a45.89,45.89,0,0,0-45.89,45.89"/><path d="M137.72,127.26h0Z"/><path class="cls-5" d="M137.72,127.26h0Z"/><path d="M137.72,132.69H13.42v-5.43Zm0,0Z"/><path class="cls-5" d="M137.72,132.69H13.42v-5.43Zm0,0Z"/><polygon points="13.42 127.26 137.72 127.26 137.72 132.69 13.42 127.26"/><polygon class="cls-5" points="13.42 127.26 137.72 127.26 137.72 132.69 13.42 127.26"/><line class="cls-5" x1="13.42" y1="132.69" x2="48.65" y2="132.69"/><line class="cls-5" x1="53.69" y1="132.69" x2="86.6" y2="132.69"/><line class="cls-5" x1="92.03" y1="132.69" x2="137.72" y2="132.69"/><line class="cls-5" x1="137.72" y1="127.26" x2="13.42" y2="127.26"/><path d="M143.14,85.44h0Z"/><path class="cls-5" d="M143.14,85.44h0Z"/><path d="M143.14,152.43h-5.42v-67Zm0,0Z"/><path class="cls-5" d="M143.14,152.43h-5.42v-67Zm0,0Z"/><polygon points="137.72 85.44 143.14 85.44 143.14 152.44 137.72 85.44"/><polygon class="cls-5" points="137.72 85.44 143.14 85.44 143.14 152.44 137.72 85.44"/><path d="M143.14,13.42h0Z"/><path class="cls-5" d="M143.14,13.42h0Z"/><path d="M143.14,33.17h-5.42V13.42Zm0,0Z"/><path class="cls-5" d="M143.14,33.17h-5.42V13.42Zm0,0Z"/><polygon points="137.72 13.42 143.14 13.42 143.14 33.16 137.72 13.42"/><polygon class="cls-5" points="137.72 13.42 143.14 13.42 143.14 33.16 137.72 13.42"/><line class="cls-5" x1="143.14" y1="85.44" x2="137.72" y2="85.44"/><polyline class="cls-5" points="143.14 33.16 137.72 33.16 137.72 13.42"/><line class="cls-5" x1="137.72" y1="85.44" x2="137.72" y2="127.26"/><polyline class="cls-5" points="137.72 132.69 137.72 152.44 143.14 152.44 143.14 85.44"/><polyline class="cls-5" points="143.14 33.16 143.14 13.42 137.72 13.42"/><line class="cls-5" x1="143.14" y1="85.44" x2="143.14" y2="82.34"/><line class="cls-5" x1="137.72" y1="85.44" x2="137.72" y2="82.34"/><line class="cls-5" x1="143.14" y1="33.17" x2="143.14" y2="36.26"/><line class="cls-5" x1="137.72" y1="33.17" x2="137.72" y2="36.26"/><line class="cls-5" x1="137.72" y1="82.34" x2="143.14" y2="82.34"/><polyline class="cls-5" points="137.72 36.26 143.14 36.26 165.99 76.15"/><path class="cls-5" d="M143,82a45.88,45.88,0,0,0,22.94-6.15"/><path d="M303.46,47.49h0Z"/><path class="cls-5" d="M303.46,47.49h0Z"/><path d="M298.42,92h5v5.42Zm0-44.54V92h5Z"/><path class="cls-5" d="M298.42,92h5v5.42Zm0-44.54V92h5Z"/><polygon points="298.42 47.49 303.46 47.49 303.46 92.03 298.42 47.49"/><polygon class="cls-5" points="298.42 47.49 303.46 47.49 303.46 92.03 298.42 47.49"/><polyline class="cls-5" points="303.46 97.45 303.46 47.49 298.42 47.49 298.42 92.03"/><path d="M92,132.69h0Z"/><path class="cls-5" d="M92,132.69h0Z"/><path d="M92,152.43H86.6V132.69Zm0,0Z"/><path class="cls-5" d="M92,152.43H86.6V132.69Zm0,0Z"/><polygon points="86.6 132.69 92.03 132.69 92.03 152.44 86.6 132.69"/><polygon class="cls-5" points="86.6 132.69 92.03 132.69 92.03 152.44 86.6 132.69"/><polyline class="cls-5" points="86.6 132.69 86.6 152.44 92.03 152.44 92.03 132.69"/><path d="M209.75,92h0Z"/><path class="cls-5" d="M209.75,92h0Z"/><path d="M209.75,97.45H196.58V92Zm0,0Z"/><path class="cls-5" d="M209.75,97.45H196.58V92Zm0,0Z"/><polygon points="196.58 92.03 209.75 92.03 209.75 97.45 196.58 92.03"/><polygon class="cls-5" points="196.58 92.03 209.75 92.03 209.75 97.45 196.58 92.03"/><path d="M213.23,92h0Z"/><path class="cls-5" d="M213.23,92h0Z"/><path d="M213.23,97.45h-3.48V92Zm0,0Z"/><path class="cls-5" d="M213.23,97.45h-3.48V92Zm0,0Z"/><polygon points="209.75 92.03 213.23 92.03 213.23 97.45 209.75 92.03"/><polygon class="cls-5" points="209.75 92.03 213.23 92.03 213.23 97.45 209.75 92.03"/><path d="M298.42,92h0Z"/><path class="cls-5" d="M298.42,92h0Z"/><path d="M303.46,97.45H272.09V92Zm0,0Z"/><path class="cls-5" d="M303.46,97.45H272.09V92Zm0,0Z"/><polygon points="272.09 92.03 298.42 92.03 303.46 97.45 272.09 92.03"/><polygon class="cls-5" points="272.09 92.03 298.42 92.03 303.46 97.45 272.09 92.03"/><line class="cls-5" x1="196.58" y1="92.03" x2="196.58" y2="97.45"/><line class="cls-5" x1="209.75" y1="97.45" x2="209.75" y2="92.03"/><line class="cls-5" x1="213.23" y1="97.45" x2="213.23" y2="92.03"/><polyline class="cls-5" points="272.09 97.45 272.09 92.03 298.42 92.03"/><line class="cls-5" x1="213.23" y1="92.03" x2="209.75" y2="92.03"/><line class="cls-5" x1="196.58" y1="92.03" x2="196.58" y2="97.45"/><line class="cls-5" x1="209.75" y1="97.45" x2="213.23" y2="97.45"/><line class="cls-5" x1="272.09" y1="97.45" x2="303.46" y2="97.45"/><line class="cls-5" x1="272.09" y1="97.45" x2="268.99" y2="97.45"/><line class="cls-5" x1="272.09" y1="92.03" x2="268.99" y2="92.03"/><line class="cls-5" x1="213.23" y1="97.45" x2="216.33" y2="97.45"/><line class="cls-5" x1="213.23" y1="92.03" x2="216.33" y2="92.03"/><line class="cls-5" x1="268.99" y1="92.03" x2="268.99" y2="97.45"/><polyline class="cls-5" points="216.33 92.03 216.33 97.45 216.33 149.72"/><path class="cls-5" d="M216.14,149.72a52.47,52.47,0,0,0,52.47-52.47"/><polygon points="209.75 152.44 209.75 157.47 204.71 157.47 209.75 152.44"/><polygon class="cls-5" points="209.75 152.44 209.75 157.47 204.71 157.47 209.75 152.44"/><path d="M209.75,339.08h-5V157.47Zm0,0Z"/><path class="cls-5" d="M209.75,339.08h-5V157.47Zm0,0Z"/><polygon points="204.71 157.47 209.75 157.47 209.75 339.08 204.71 157.47"/><polygon class="cls-5" points="204.71 157.47 209.75 157.47 209.75 339.08 204.71 157.47"/><polyline class="cls-5" points="204.71 157.47 204.71 339.08 209.75 339.08 209.75 152.44"/><path d="M53.69,132.69h0Z"/><path class="cls-5" d="M53.69,132.69h0Z"/><path d="M53.69,152.43h-5V132.69Zm0,0Z"/><path class="cls-5" d="M53.69,152.43h-5V132.69Zm0,0Z"/><polygon points="48.66 132.69 53.69 132.69 53.69 152.44 48.66 132.69"/><polygon class="cls-5" points="48.66 132.69 53.69 132.69 53.69 152.44 48.66 132.69"/><polyline class="cls-5" points="48.66 132.69 48.66 152.44 53.69 152.44 53.69 132.69"/><path d="M311.59.25,413.05,8H311.59Zm101.46,0H311.59L413.05,8Z"/><path class="cls-5" d="M311.59.25,413.05,8H311.59Zm101.46,0H311.59L413.05,8Z"/><polyline class="cls-5" points="413.05 0.25 311.59 0.25 311.59 8 413.05 8 413.05 0.25"/><path d="M15.74,359.61l5.42,63.89H15.74Zm5.42,0H15.74l5.42,63.89Z"/><path class="cls-5" d="M15.74,359.61l5.42,63.89H15.74Zm5.42,0H15.74l5.42,63.89Z"/><polyline class="cls-5" points="15.74 359.61 15.74 423.5 21.16 423.5 21.16 359.61 15.74 359.61"/><polygon points="413.05 0.25 423.5 0.25 423.5 8 413.05 0.25"/><polygon class="cls-5" points="413.05 0.25 423.5 0.25 423.5 8 413.05 0.25"/><line class="cls-5" x1="423.5" y1="7.99" x2="423.5" y2="0.25"/><polyline points="0.25 0.25 198.9 0.25 0.25 0.25"/><polyline class="cls-5" points="0.25 0.25 198.9 0.25 0.25 0.25"/><polyline points="0.25 0.25 198.9 13.42 0.25 13.42"/><polyline points="0.25 13.42 198.9 13.42 198.9 13.42 0.25 13.42"/><polyline class="cls-5" points="0.25 0.25 198.9 13.42 0.25 13.42"/><polyline class="cls-5" points="0.25 13.42 198.9 13.42 198.9 13.42 0.25 13.42"/><polyline points="0.25 0.25 198.9 0.25 198.9 13.42 0.25 0.25"/><polyline class="cls-5" points="0.25 0.25 198.9 0.25 198.9 13.42 0.25 0.25"/><path d="M311.59,13.42H264.73V.25Zm0,0Z"/><path class="cls-5" d="M311.59,13.42H264.73V.25Zm0,0Z"/><polygon points="264.73 0.25 311.59 0.25 311.59 13.42 264.73 0.25"/><polygon class="cls-5" points="264.73 0.25 311.59 0.25 311.59 13.42 264.73 0.25"/><line class="cls-5" x1="264.73" y1="13.42" x2="264.73" y2="0.25"/><line class="cls-5" x1="198.9" y1="13.42" x2="198.9" y2="0.25"/><line class="cls-5" x1="311.59" y1="0.25" x2="264.73" y2="0.25"/><line class="cls-5" x1="198.9" y1="0.25" x2="0.25" y2="0.25"/><line class="cls-5" x1="0.25" y1="13.42" x2="0.25" y2="13.42"/><line class="cls-5" x1="13.42" y1="13.42" x2="198.9" y2="13.42"/><line class="cls-5" x1="264.73" y1="13.42" x2="298.42" y2="13.42"/><line class="cls-5" x1="311.59" y1="13.42" x2="311.59" y2="0.25"/><path class="cls-5" d="M201.61,13.22a60.22,60.22,0,0,0,60.22,60.22"/><path d="M198.9.25h0Z"/><path class="cls-5" d="M198.9.25h0Z"/><path d="M201.61,13.42H198.9V.25Zm0,0Z"/><path class="cls-5" d="M201.61,13.42H198.9V.25Zm0,0Z"/><polygon points="198.9 0.25 201.61 0.25 201.61 13.42 198.9 0.25"/><polygon class="cls-5" points="198.9 0.25 201.61 0.25 201.61 13.42 198.9 0.25"/><path d="M262,.25h0Z"/><path class="cls-5" d="M262,.25h0Z"/><path d="M264.73,13.42H262V.25Zm0,0Z"/><path class="cls-5" d="M264.73,13.42H262V.25Zm0,0Z"/><polygon points="262.02 0.25 264.73 0.25 264.73 13.42 262.02 0.25"/><polygon class="cls-5" points="262.02 0.25 264.73 0.25 264.73 13.42 262.02 0.25"/><polyline class="cls-5" points="198.9 0.25 201.61 0.25 201.61 13.42 198.9 13.42 198.9 0.25"/><polyline class="cls-5" points="264.73 13.42 262.02 13.42 262.02 0.25 264.73 0.25 264.73 13.42"/><line class="cls-5" x1="262.02" y1="13.42" x2="262.02" y2="73.83"/><line class="cls-5" x1="198.9" y1="13.42" x2="198.9" y2="0.25"/><line class="cls-5" x1="264.73" y1="13.42" x2="264.73" y2="0.25"/><path d="M.25,13.42h0Z"/><path class="cls-5" d="M.25,13.42h0Z"/><path d="M13.42,61.82H.25V13.42Zm0,0Z"/><path class="cls-5" d="M13.42,61.82H.25V13.42Zm0,0Z"/><polygon points="0.25 13.42 13.42 13.42 13.42 61.82 0.25 13.42"/><polygon class="cls-5" points="0.25 13.42 13.42 13.42 13.42 61.82 0.25 13.42"/><polyline class="cls-5" points="0.25 0.25 0.25 61.82 13.42 61.82 13.42 13.42"/><path d="M.25,127.26h0Z"/><path class="cls-5" d="M.25,127.26h0Z"/><path d="M13.42,273.64H.25V127.26Zm0,0Z"/><path class="cls-5" d="M13.42,273.64H.25V127.26Zm0,0Z"/><polygon points="0.25 127.26 13.42 127.26 13.42 273.64 0.25 127.26"/><polygon class="cls-5" points="0.25 127.26 13.42 127.26 13.42 273.64 0.25 127.26"/><polyline class="cls-5" points="0.25 127.26 0.25 273.64 13.42 273.64 13.42 157.47"/><line class="cls-5" x1="13.42" y1="152.43" x2="13.42" y2="132.69"/><line class="cls-5" x1="13.42" y1="127.26" x2="0.25" y2="127.26"/><polyline class="cls-5" points="126.49 469.2 126.49 431.63 128.43 431.63 128.43 470.75 126.49 469.2"/><polyline class="cls-5" points="64.53 470.75 64.53 431.63 66.47 431.63 66.47 469.2 126.49 469.2 128.43 470.75 64.53 470.75 66.47 469.2 64.53 470.75"/><polyline class="cls-5" points="65.69 469.97 127.65 469.97 127.65 431.63"/><polyline class="cls-5" points="68.02 459.13 124.94 459.13 124.94 438.22 68.02 438.22 68.02 459.13"/><polyline class="cls-5" points="68.02 456.81 124.94 456.81 124.94 438.22 68.02 438.22 68.02 456.81"/><line class="cls-5" x1="65.69" y1="469.97" x2="65.69" y2="431.63"/><polyline class="cls-5" points="311.59 8 415.76 8 415.76 34.33"/><polyline class="cls-5" points="52.53 196.97 52.53 160.95 105.19 160.95 105.19 196.97 52.53 196.97"/><polyline class="cls-5" points="101.71 193.48 73.44 193.48 73.44 167.54 101.71 167.54 101.71 193.48"/><line class="cls-5" x1="68.79" y1="193.48" x2="58.34" y2="193.48"/><line class="cls-5" x1="68.79" y1="188.84" x2="58.34" y2="188.84"/><line class="cls-5" x1="68.79" y1="184.58" x2="58.34" y2="184.58"/><line class="cls-5" x1="68.79" y1="180.32" x2="58.34" y2="180.32"/><line class="cls-5" x1="68.79" y1="176.06" x2="58.34" y2="176.06"/><line class="cls-5" x1="68.79" y1="171.8" x2="58.34" y2="171.8"/><line class="cls-5" x1="423.5" y1="285.65" x2="423.5" y2="285.65"/><line class="cls-5" x1="423.5" y1="396.01" x2="423.5" y2="396.01"/><polyline class="cls-5" points="52.53 335.99 52.53 196.97 143.14 196.97 143.14 157.47"/><path d="M.25,61.82h0Z"/><path class="cls-5" d="M.25,61.82h0Z"/><path d="M13.42,127.26H.25V61.82Zm0,0Z"/><path class="cls-5" d="M13.42,127.26H.25V61.82Zm0,0Z"/><polygon points="0.25 61.82 13.42 61.82 13.42 127.26 0.25 61.82"/><polygon class="cls-5" points="0.25 61.82 13.42 61.82 13.42 127.26 0.25 61.82"/><polyline class="cls-5" points="0.25 61.82 0.25 127.26 13.42 127.26 13.42 61.82 0.25 61.82"/><path d="M209.75,97.45h0Z"/><path class="cls-5" d="M209.75,97.45h0Z"/><path d="M209.75,152.43H196.58v-55Zm0,0Z"/><path class="cls-5" d="M209.75,152.43H196.58v-55Zm0,0Z"/><polygon points="196.58 97.45 209.75 97.45 209.75 152.44 196.58 97.45"/><polygon class="cls-5" points="196.58 97.45 209.75 97.45 209.75 152.44 196.58 97.45"/><line class="cls-5" x1="196.58" y1="97.45" x2="196.58" y2="152.43"/><line class="cls-5" x1="209.75" y1="152.43" x2="209.75" y2="97.45"/><path d="M.25,273.64h0Z"/><path class="cls-5" d="M.25,273.64h0Z"/><path d="M13.42,336H.25V273.64Zm0,0Z"/><path class="cls-5" d="M13.42,336H.25V273.64Zm0,0Z"/><polygon points="0.25 273.64 13.42 273.64 13.42 335.99 0.25 273.64"/><polygon class="cls-5" points="0.25 273.64 13.42 273.64 13.42 335.99 0.25 273.64"/><line class="cls-5" x1="0.25" y1="273.64" x2="0.25" y2="335.99"/><polyline class="cls-5" points="13.42 335.99 13.42 273.64 0.25 273.64"/><polygon points="413.05 0.25 423.5 8 413.05 8 413.05 0.25"/><polygon class="cls-5" points="413.05 0.25 423.5 8 413.05 8 413.05 0.25"/><path d="M423.5,396.78H413.05V8Zm0,0Z"/><path class="cls-5" d="M423.5,396.78H413.05V8Zm0,0Z"/><polygon points="413.05 8 423.5 8 423.5 396.78 413.05 8"/><polygon class="cls-5" points="413.05 8 423.5 8 423.5 396.78 413.05 8"/><line class="cls-5" x1="423.5" y1="396.78" x2="423.5" y2="7.99"/><line class="cls-5" x1="413.05" y1="0.25" x2="413.05" y2="396.78"/><text class="cls-6" transform="translate(86.94 67.94)">3.17</text><text class="cls-6" transform="translate(220.95 50.93)">3.77</text><text class="cls-6" transform="translate(288.81 373.91)">16.30</text><text class="cls-6" transform="translate(98.31 321.24)">7.66</text><text class="cls-6" transform="translate(75.85 401.24)">1.07</text></svg>