<svg id="_61" data-name="61" xmlns="http://www.w3.org/2000/svg" xmlns:xlink="http://www.w3.org/1999/xlink" viewBox="0 0 326.37 779.1"><defs><style>.cls-1,.cls-2,.cls-6,.cls-8{fill:none;stroke-linecap:round;stroke-linejoin:round;}.cls-1,.cls-6,.cls-8{stroke:#000;stroke-width:0.7px;}.cls-1{clip-rule:evenodd;}.cls-2{stroke:#999;stroke-width:0.5px;}.cls-3{isolation:isolate;font-size:12px;fill:#999;}.cls-3,.cls-4,.cls-5,.cls-7{font-family:PTSans-Regular, PT Sans;}.cls-4{font-size:22px;}.cls-5{font-size:24px;}.cls-7{font-size:16px;}.cls-8{fill-rule:evenodd;}.cls-9{clip-path:url(#clip-path);}.cls-10{clip-path:url(#clip-path-2);}.cls-11{clip-path:url(#clip-path-3);}.cls-12{clip-path:url(#clip-path-4);}.cls-13{clip-path:url(#clip-path-5);}.cls-14{clip-path:url(#clip-path-6);}.cls-15{clip-path:url(#clip-path-7);}.cls-16{clip-path:url(#clip-path-8);}.cls-17{clip-path:url(#clip-path-9);}.cls-18{clip-path:url(#clip-path-10);}.cls-19{clip-path:url(#clip-path-11);}.cls-20{clip-path:url(#clip-path-12);}.cls-21{clip-path:url(#clip-path-13);}.cls-22{clip-path:url(#clip-path-14);}.cls-23{clip-path:url(#clip-path-15);}.cls-24{clip-path:url(#clip-path-16);}.cls-25{clip-path:url(#clip-path-17);}.cls-26{clip-path:url(#clip-path-18);}.cls-27{clip-path:url(#clip-path-19);}.cls-28{clip-path:url(#clip-path-20);}.cls-29{clip-path:url(#clip-path-21);}.cls-30{clip-path:url(#clip-path-22);}.cls-31{clip-path:url(#clip-path-23);}.cls-32{clip-path:url(#clip-path-24);}.cls-33{clip-path:url(#clip-path-25);}.cls-34{clip-path:url(#clip-path-26);}.cls-35{clip-path:url(#clip-path-27);}.cls-36{clip-path:url(#clip-path-28);}.cls-37{clip-path:url(#clip-path-29);}.cls-38{clip-path:url(#clip-path-30);}.cls-39{clip-path:url(#clip-path-31);}.cls-40{clip-path:url(#clip-path-32);}.cls-41{clip-path:url(#clip-path-33);}.cls-42{clip-path:url(#clip-path-34);}.cls-43{clip-path:url(#clip-path-35);}.cls-44{clip-path:url(#clip-path-36);}.cls-45{clip-path:url(#clip-path-37);}.cls-46{clip-path:url(#clip-path-38);}.cls-47{clip-path:url(#clip-path-39);}.cls-48{clip-path:url(#clip-path-40);}.cls-49{clip-path:url(#clip-path-41);}.cls-50{clip-path:url(#clip-path-42);}.cls-51{clip-path:url(#clip-path-43);}</style><clipPath id="clip-path" transform="translate(0 -28.34)"><polyline class="cls-1" points="14.82 126.97 14.82 141.44 29.29 141.44 29.29 130.59 29.29 126.97 14.82 126.97"/></clipPath><clipPath id="clip-path-2" transform="translate(0 -28.34)"><polyline class="cls-1" points="94.41 130.59 94.41 141.44 163.15 141.44 163.15 130.59 163.15 126.97 94.41 126.97 94.41 130.59"/></clipPath><clipPath id="clip-path-3" transform="translate(0 -28.34)"><polyline class="cls-1" points="300.62 130.59 300.62 141.44 311.47 141.44 311.47 126.97 300.62 126.97 300.62 130.59"/></clipPath><clipPath id="clip-path-4" transform="translate(0 -28.34)"><polyline class="cls-1" points="14.82 116.11 14.82 126.97 29.29 126.97 32.91 126.97 32.91 116.11 14.82 116.11"/></clipPath><clipPath id="clip-path-5" transform="translate(0 -28.34)"><polyline class="cls-1" points="90.79 126.97 94.41 126.97 163.15 126.97 166.76 126.97 166.76 116.11 90.79 116.11 90.79 126.97"/></clipPath><clipPath id="clip-path-6" transform="translate(0 -28.34)"><polyline class="cls-1" points="297 126.97 300.62 126.97 311.47 126.97 311.47 116.11 297 116.11 297 126.97"/></clipPath><clipPath id="clip-path-7" transform="translate(0 -28.34)"><polyline class="cls-1" points="325.94 116.11 311.47 116.11 311.47 126.97 325.94 126.97 325.94 116.11"/></clipPath><clipPath id="clip-path-8" transform="translate(0 -28.34)"><polyline class="cls-1" points="14.82 116.11 0.35 116.11 0.35 126.97 14.82 126.97 14.82 116.11"/></clipPath><clipPath id="clip-path-9" transform="translate(0 -28.34)"><polyline class="cls-1" points="239.12 807.1 239.12 792.63 224.65 778.16 224.65 792.63 239.12 807.1"/></clipPath><clipPath id="clip-path-10" transform="translate(0 -28.34)"><polyline class="cls-1" points="239.12 792.63 311.47 792.63 311.47 778.16 224.65 778.16 239.12 792.63"/></clipPath><clipPath id="clip-path-11" transform="translate(0 -28.34)"><polyline class="cls-1" points="239.12 807.1 224.65 792.63 224.65 800.95 224.65 807.1 239.12 807.1"/></clipPath><clipPath id="clip-path-12" transform="translate(0 -28.34)"><polyline class="cls-1" points="152.29 807.1 152.29 778.16 137.82 792.63 137.82 807.1 152.29 807.1"/></clipPath><clipPath id="clip-path-13" transform="translate(0 -28.34)"><polyline class="cls-1" points="132.03 778.16 14.82 778.16 14.82 792.63 132.03 792.63 132.03 778.16"/></clipPath><clipPath id="clip-path-14" transform="translate(0 -28.34)"><polyline class="cls-1" points="137.82 778.16 132.03 778.16 132.03 792.63 137.82 792.63 137.82 778.16"/></clipPath><clipPath id="clip-path-15" transform="translate(0 -28.34)"><polyline class="cls-1" points="137.82 792.63 152.29 778.16 137.82 778.16 137.82 792.63"/></clipPath><clipPath id="clip-path-16" transform="translate(0 -28.34)"><polyline class="cls-1" points="311.47 616.82 311.47 756.45 325.94 756.45 325.94 616.82 311.47 616.82"/></clipPath><clipPath id="clip-path-17" transform="translate(0 -28.34)"><polyline class="cls-1" points="311.47 611.03 311.47 616.82 325.94 616.82 325.94 611.03 311.47 611.03"/></clipPath><clipPath id="clip-path-18" transform="translate(0 -28.34)"><polyline class="cls-1" points="325.94 611.03 325.94 597.27 311.47 597.27 311.47 611.03 325.94 611.03"/></clipPath><clipPath id="clip-path-19" transform="translate(0 -28.34)"><polyline class="cls-1" points="325.94 561.09 325.94 372.97 311.47 372.97 311.47 561.09 325.94 561.09"/></clipPath><clipPath id="clip-path-20" transform="translate(0 -28.34)"><polyline class="cls-1" points="325.94 336.8 325.94 163.15 311.47 163.15 311.47 336.8 325.94 336.8"/></clipPath><clipPath id="clip-path-21" transform="translate(0 -28.34)"><polyline class="cls-1" points="0.35 163.15 0.35 336.8 14.82 336.8 14.82 163.15 0.35 163.15"/></clipPath><clipPath id="clip-path-22" transform="translate(0 -28.34)"><polyline class="cls-1" points="0.35 372.97 0.35 561.09 14.82 561.09 14.82 372.97 0.35 372.97"/></clipPath><clipPath id="clip-path-23" transform="translate(0 -28.34)"><polyline class="cls-1" points="14.82 611.03 14.82 597.27 0.35 597.27 0.35 611.03 14.82 611.03"/></clipPath><clipPath id="clip-path-24" transform="translate(0 -28.34)"><polyline class="cls-1" points="14.82 616.82 14.82 611.03 0.35 611.03 0.35 616.82 14.82 616.82"/></clipPath><clipPath id="clip-path-25" transform="translate(0 -28.34)"><polyline class="cls-1" points="0.35 616.82 0.35 756.45 14.82 756.45 14.82 616.82 0.35 616.82"/></clipPath><clipPath id="clip-path-26" transform="translate(0 -28.34)"><polyline class="cls-1" points="14.82 423.62 14.82 429.41 137.82 429.41 137.82 423.62 14.82 423.62"/></clipPath><clipPath id="clip-path-27" transform="translate(0 -28.34)"><polyline class="cls-1" points="311.47 423.62 202.94 423.62 202.94 429.41 311.47 429.41 311.47 423.62"/></clipPath><clipPath id="clip-path-28" transform="translate(0 -28.34)"><polyline class="cls-1" points="132.03 616.82 132.03 671.96 137.82 671.96 137.82 611.03 132.03 616.82"/></clipPath><clipPath id="clip-path-29" transform="translate(0 -28.34)"><polyline class="cls-1" points="132.03 778.16 137.82 778.16 137.82 722.6 132.03 722.6 132.03 778.16"/></clipPath><clipPath id="clip-path-30" transform="translate(0 -28.34)"><polyline class="cls-1" points="87.75 611.03 40.87 611.03 35.08 616.82 87.75 616.82 87.75 611.03"/></clipPath><clipPath id="clip-path-31" transform="translate(0 -28.34)"><polyline class="cls-1" points="40.87 611.03 40.87 585.74 35.08 579.95 35.08 616.82 40.87 611.03"/></clipPath><clipPath id="clip-path-32" transform="translate(0 -28.34)"><polyline class="cls-1" points="93.54 579.95 35.08 579.95 40.87 585.74 87.75 585.74 93.54 579.95"/></clipPath><clipPath id="clip-path-33" transform="translate(0 -28.34)"><polyline class="cls-1" points="14.82 616.82 35.08 616.82 35.08 611.03 14.82 611.03 14.82 616.82"/></clipPath><clipPath id="clip-path-34" transform="translate(0 -28.34)"><polyline class="cls-1" points="93.54 611.03 93.54 579.95 87.75 585.74 87.75 611.03 93.54 611.03"/></clipPath><clipPath id="clip-path-35" transform="translate(0 -28.34)"><polyline class="cls-1" points="87.75 616.82 132.03 616.82 137.82 611.03 87.75 611.03 87.75 616.82"/></clipPath><clipPath id="clip-path-36" transform="translate(0 -28.34)"><polyline class="cls-1" points="0.35 792.63 14.82 792.63 14.82 756.45 0.35 756.45 0.35 792.63"/></clipPath><clipPath id="clip-path-37" transform="translate(0 -28.34)"><polyline class="cls-1" points="311.47 792.63 325.94 792.63 325.94 756.45 311.47 756.45 311.47 792.63"/></clipPath><clipPath id="clip-path-38" transform="translate(0 -28.34)"><polyline class="cls-1" points="311.47 597.27 325.94 597.27 325.94 561.09 311.47 561.09 311.47 597.27"/></clipPath><clipPath id="clip-path-39" transform="translate(0 -28.34)"><polyline class="cls-1" points="0.35 597.27 14.82 597.27 14.82 561.09 0.35 561.09 0.35 597.27"/></clipPath><clipPath id="clip-path-40" transform="translate(0 -28.34)"><polyline class="cls-1" points="0.35 372.97 14.82 372.97 14.82 336.8 0.35 336.8 0.35 372.97"/></clipPath><clipPath id="clip-path-41" transform="translate(0 -28.34)"><polyline class="cls-1" points="311.47 372.97 325.94 372.97 325.94 336.8 311.47 336.8 311.47 372.97"/></clipPath><clipPath id="clip-path-42" transform="translate(0 -28.34)"><polyline class="cls-1" points="311.47 163.15 325.94 163.15 325.94 126.97 311.47 126.97 311.47 163.15"/></clipPath><clipPath id="clip-path-43" transform="translate(0 -28.34)"><polyline class="cls-1" points="0.35 163.15 14.82 163.15 14.82 126.97 0.35 126.97 0.35 163.15"/></clipPath></defs><title>3floor_61flat</title><line class="cls-2" x1="147.47" y1="10.8" x2="147.47" y2="2"/><polyline class="cls-2" points="151.07 5.3 147.57 1.8 144.07 5.3"/><text class="cls-3" transform="translate(156.89 10.2)">двор</text><text class="cls-4" transform="translate(52.88 671.81)">3.61</text><text class="cls-4" transform="translate(217.62 671.81)">5.55</text><text class="cls-5" transform="translate(149.21 262.94)">1К</text><text class="cls-5" transform="translate(134.34 295.98)">34.97</text><text class="cls-5" transform="translate(137.71 230.39)">№61</text><polyline class="cls-6" points="122.54 304.33 122.54 207.13 203.6 207.13 203.6 304.33"/><line class="cls-6" x1="122.54" y1="239.59" x2="203.6" y2="239.59"/><line class="cls-6" x1="122.54" y1="304.33" x2="203.6" y2="304.33"/><line class="cls-6" x1="122.54" y1="272.06" x2="203.6" y2="272.06"/><path class="cls-6" d="M301.05,761.07a11.34,11.34,0,1,0-11.34,11.33,11.34,11.34,0,0,0,11.34-11.33" transform="translate(0 -28.34)"/><text class="cls-7" transform="translate(285.35 738.6)">1</text><path class="cls-6" d="M45.14,761.07A11.34,11.34,0,1,0,33.8,772.4a11.34,11.34,0,0,0,11.34-11.33" transform="translate(0 -28.34)"/><text class="cls-7" transform="translate(29.44 738.6)">3</text><text class="cls-4" transform="translate(142.73 504.83)">9.82</text><text class="cls-4" transform="translate(136.73 152.62)">15.99</text><path class="cls-6" d="M301.05,593.38a11.34,11.34,0,1,0-11.34,11.33,11.34,11.34,0,0,0,11.34-11.33" transform="translate(0 -28.34)"/><text class="cls-7" transform="translate(285.35 570.91)">2</text><path class="cls-6" d="M301.05,401.41a11.34,11.34,0,1,0-11.34,11.34,11.34,11.34,0,0,0,11.34-11.34" transform="translate(0 -28.34)"/><text class="cls-7" transform="translate(285.35 378.95)">4</text><line class="cls-6" x1="4.91" y1="764.55" x2="4.91" y2="764.55"/><polyline class="cls-8" points="297 40 296.71 40.29 167.05 40.29 166.76 40 297 40"/><line class="cls-6" x1="297" y1="40" x2="166.77" y2="40"/><line class="cls-6" x1="167.05" y1="40.29" x2="296.71" y2="40.29"/><polyline class="cls-8" points="167.06 87.04 166.76 87.04 166.76 40.01 167.06 40.3 167.06 87.04"/><line class="cls-6" x1="167.05" y1="87.04" x2="167.05" y2="40.3"/><line class="cls-6" x1="166.77" y1="40" x2="166.77" y2="87.04"/><line class="cls-6" x1="166.77" y1="87.04" x2="167.05" y2="87.04"/><polyline class="cls-8" points="297 87.04 296.71 87.04 296.71 40.3 297 40.01 297 87.04"/><line class="cls-6" x1="297" y1="87.04" x2="297" y2="40.01"/><line class="cls-6" x1="296.71" y1="40.29" x2="296.71" y2="87.04"/><line class="cls-6" x1="296.71" y1="87.04" x2="297" y2="87.04"/><polyline class="cls-8" points="14.82 98.62 29.29 98.62 29.29 102.24 29.29 113.09 14.82 113.09 14.82 98.62"/><g class="cls-9"><line class="cls-6" x1="17.93" y1="104.68" x2="17.93" y2="104.68"/><line class="cls-6" x1="26.61" y1="104.68" x2="26.61" y2="104.68"/><line class="cls-6" x1="25.18" y1="107.06" x2="25.18" y2="107.06"/><line class="cls-6" x1="19.04" y1="100.92" x2="19.04" y2="100.92"/></g><polyline class="cls-8" points="14.82 98.62 14.82 113.09 29.29 113.09 29.29 102.24 29.29 98.62 14.82 98.62"/><polyline class="cls-8" points="94.41 102.24 94.41 98.62 163.15 98.62 163.15 102.24 163.15 113.09 94.41 113.09 94.41 102.24"/><g class="cls-10"><line class="cls-6" x1="162.82" y1="113.09" x2="163.15" y2="112.52"/><line class="cls-6" x1="110.73" y1="113.09" x2="111.27" y2="112.14"/><line class="cls-6" x1="136.77" y1="113.09" x2="137.32" y2="112.14"/><line class="cls-6" x1="111.82" y1="113.09" x2="111.27" y2="112.14"/><line class="cls-6" x1="137.87" y1="113.09" x2="137.32" y2="112.14"/><line class="cls-6" x1="104.76" y1="104.68" x2="104.76" y2="104.68"/><line class="cls-6" x1="113.44" y1="104.68" x2="113.44" y2="104.68"/><line class="cls-6" x1="126.46" y1="104.68" x2="126.46" y2="104.68"/><line class="cls-6" x1="135.15" y1="104.68" x2="135.15" y2="104.68"/><line class="cls-6" x1="148.17" y1="104.68" x2="148.17" y2="104.68"/><line class="cls-6" x1="156.85" y1="104.68" x2="156.85" y2="104.68"/><line class="cls-6" x1="158.71" y1="108.6" x2="158.71" y2="108.6"/><line class="cls-6" x1="147.97" y1="107.06" x2="147.97" y2="107.06"/><line class="cls-6" x1="152.58" y1="102.46" x2="152.58" y2="102.46"/><line class="cls-6" x1="134.16" y1="108.6" x2="134.16" y2="108.6"/><line class="cls-6" x1="141.83" y1="100.92" x2="141.83" y2="100.92"/><line class="cls-6" x1="123.41" y1="107.06" x2="123.41" y2="107.06"/><line class="cls-6" x1="128.02" y1="102.46" x2="128.02" y2="102.46"/><line class="cls-6" x1="109.6" y1="108.6" x2="109.6" y2="108.6"/><line class="cls-6" x1="117.28" y1="100.92" x2="117.28" y2="100.92"/><line class="cls-6" x1="98.85" y1="107.06" x2="98.85" y2="107.06"/><line class="cls-6" x1="103.46" y1="102.46" x2="103.46" y2="102.46"/></g><polyline class="cls-8" points="94.41 102.24 94.41 113.09 163.15 113.09 163.15 102.24 163.15 98.62 94.41 98.62 94.41 102.24"/><polyline class="cls-8" points="300.62 102.24 300.62 98.62 311.47 98.62 311.47 113.09 300.62 113.09 300.62 102.24"/><g class="cls-11"><line class="cls-6" x1="308.8" y1="104.68" x2="308.8" y2="104.68"/><line class="cls-6" x1="306.06" y1="108.6" x2="306.06" y2="108.6"/></g><polyline class="cls-8" points="300.62 102.24 300.62 113.09 311.47 113.09 311.47 98.62 300.62 98.62 300.62 102.24"/><polyline class="cls-8" points="32.91 87.04 32.91 87.77 14.82 87.77 14.82 87.04 32.91 87.04"/><polyline class="cls-8" points="90.79 87.77 90.79 87.04 166.76 87.04 166.76 87.77 90.79 87.77"/><polyline class="cls-8" points="311.47 87.04 311.47 87.77 297 87.77 297 87.04 311.47 87.04"/><polyline class="cls-8" points="14.82 87.77 32.91 87.77 32.91 98.62 29.29 98.62 14.82 98.62 14.82 87.77"/><g class="cls-12"><line class="cls-6" x1="30.33" y1="93.83" x2="30.33" y2="90.21"/><line class="cls-6" x1="24.06" y1="93.83" x2="24.06" y2="90.21"/><line class="cls-6" x1="17.79" y1="93.83" x2="17.79" y2="90.21"/><line class="cls-6" x1="27.19" y1="98.62" x2="27.19" y2="95.64"/><line class="cls-6" x1="27.19" y1="88.4" x2="27.19" y2="87.77"/><line class="cls-6" x1="20.93" y1="98.62" x2="20.93" y2="95.64"/><line class="cls-6" x1="20.93" y1="88.4" x2="20.93" y2="87.77"/><line class="cls-6" x1="32.91" y1="95.32" x2="30.33" y2="93.83"/><line class="cls-6" x1="24.06" y1="90.21" x2="20.93" y2="88.4"/><line class="cls-6" x1="20.93" y1="95.64" x2="17.79" y2="93.83"/><line class="cls-6" x1="30.33" y1="90.21" x2="27.19" y2="88.4"/><line class="cls-6" x1="27.19" y1="95.64" x2="24.06" y2="93.83"/><line class="cls-6" x1="17.79" y1="90.21" x2="14.82" y2="88.5"/><line class="cls-6" x1="20.93" y1="88.4" x2="17.79" y2="90.21"/><line class="cls-6" x1="32.91" y1="88.72" x2="30.33" y2="90.21"/><line class="cls-6" x1="24.06" y1="93.83" x2="20.93" y2="95.64"/><line class="cls-6" x1="27.19" y1="88.4" x2="24.06" y2="90.21"/><line class="cls-6" x1="17.79" y1="93.83" x2="14.82" y2="95.54"/><line class="cls-6" x1="30.33" y1="93.83" x2="27.19" y2="95.64"/></g><polyline class="cls-8" points="14.82 87.77 14.82 98.62 29.29 98.62 32.91 98.62 32.91 87.77 14.82 87.77"/><polyline class="cls-8" points="90.79 98.62 90.79 87.77 166.76 87.77 166.76 98.62 163.15 98.62 94.41 98.62 90.79 98.62"/><g class="cls-13"><line class="cls-6" x1="161.92" y1="93.83" x2="161.92" y2="90.21"/><line class="cls-6" x1="155.65" y1="93.83" x2="155.65" y2="90.21"/><line class="cls-6" x1="149.39" y1="93.83" x2="149.39" y2="90.21"/><line class="cls-6" x1="143.12" y1="93.83" x2="143.12" y2="90.21"/><line class="cls-6" x1="136.85" y1="93.83" x2="136.85" y2="90.21"/><line class="cls-6" x1="130.59" y1="93.83" x2="130.59" y2="90.21"/><line class="cls-6" x1="124.32" y1="93.83" x2="124.32" y2="90.21"/><line class="cls-6" x1="118.06" y1="93.83" x2="118.06" y2="90.21"/><line class="cls-6" x1="111.78" y1="93.83" x2="111.78" y2="90.21"/><line class="cls-6" x1="105.52" y1="93.83" x2="105.52" y2="90.21"/><line class="cls-6" x1="99.25" y1="93.83" x2="99.25" y2="90.21"/><line class="cls-6" x1="92.99" y1="93.83" x2="92.99" y2="90.21"/><line class="cls-6" x1="165.05" y1="98.62" x2="165.05" y2="95.64"/><line class="cls-6" x1="165.05" y1="88.4" x2="165.05" y2="87.77"/><line class="cls-6" x1="158.78" y1="98.62" x2="158.78" y2="95.64"/><line class="cls-6" x1="158.78" y1="88.4" x2="158.78" y2="87.77"/><line class="cls-6" x1="152.52" y1="98.62" x2="152.52" y2="95.64"/><line class="cls-6" x1="152.52" y1="88.4" x2="152.52" y2="87.77"/><line class="cls-6" x1="146.25" y1="98.62" x2="146.25" y2="95.64"/><line class="cls-6" x1="146.25" y1="88.4" x2="146.25" y2="87.77"/><line class="cls-6" x1="139.99" y1="98.62" x2="139.99" y2="95.64"/><line class="cls-6" x1="139.99" y1="88.4" x2="139.99" y2="87.77"/><line class="cls-6" x1="133.72" y1="98.62" x2="133.72" y2="95.64"/><line class="cls-6" x1="133.72" y1="88.4" x2="133.72" y2="87.77"/><line class="cls-6" x1="127.46" y1="98.62" x2="127.46" y2="95.64"/><line class="cls-6" x1="127.46" y1="88.4" x2="127.46" y2="87.77"/><line class="cls-6" x1="121.19" y1="98.62" x2="121.19" y2="95.64"/><line class="cls-6" x1="121.19" y1="88.4" x2="121.19" y2="87.77"/><line class="cls-6" x1="114.92" y1="98.62" x2="114.92" y2="95.64"/><line class="cls-6" x1="114.92" y1="88.4" x2="114.92" y2="87.77"/><line class="cls-6" x1="108.65" y1="98.62" x2="108.65" y2="95.64"/><line class="cls-6" x1="108.65" y1="88.4" x2="108.65" y2="87.77"/><line class="cls-6" x1="102.38" y1="98.62" x2="102.38" y2="95.64"/><line class="cls-6" x1="102.38" y1="88.4" x2="102.38" y2="87.77"/><line class="cls-6" x1="96.12" y1="98.62" x2="96.12" y2="95.64"/><line class="cls-6" x1="96.12" y1="88.4" x2="96.12" y2="87.77"/><line class="cls-6" x1="161.92" y1="90.21" x2="158.78" y2="88.4"/><line class="cls-6" x1="158.78" y1="95.64" x2="155.65" y2="93.83"/><line class="cls-6" x1="149.39" y1="90.21" x2="146.25" y2="88.4"/><line class="cls-6" x1="146.25" y1="95.64" x2="143.12" y2="93.83"/><line class="cls-6" x1="136.85" y1="90.21" x2="133.72" y2="88.4"/><line class="cls-6" x1="133.72" y1="95.64" x2="130.59" y2="93.83"/><line class="cls-6" x1="124.32" y1="90.21" x2="121.19" y2="88.4"/><line class="cls-6" x1="121.19" y1="95.64" x2="118.06" y2="93.83"/><line class="cls-6" x1="111.78" y1="90.21" x2="108.65" y2="88.4"/><line class="cls-6" x1="108.65" y1="95.64" x2="105.52" y2="93.83"/><line class="cls-6" x1="99.25" y1="90.21" x2="96.12" y2="88.4"/><line class="cls-6" x1="96.12" y1="95.64" x2="92.99" y2="93.83"/><line class="cls-6" x1="166.77" y1="89.39" x2="165.05" y2="88.4"/><line class="cls-6" x1="165.05" y1="95.64" x2="161.92" y2="93.83"/><line class="cls-6" x1="155.65" y1="90.21" x2="152.52" y2="88.4"/><line class="cls-6" x1="152.52" y1="95.64" x2="149.39" y2="93.83"/><line class="cls-6" x1="143.12" y1="90.21" x2="139.99" y2="88.4"/><line class="cls-6" x1="139.99" y1="95.64" x2="136.85" y2="93.83"/><line class="cls-6" x1="130.59" y1="90.21" x2="127.45" y2="88.4"/><line class="cls-6" x1="127.46" y1="95.64" x2="124.32" y2="93.83"/><line class="cls-6" x1="118.06" y1="90.21" x2="114.92" y2="88.4"/><line class="cls-6" x1="114.92" y1="95.64" x2="111.78" y2="93.83"/><line class="cls-6" x1="105.52" y1="90.21" x2="102.38" y2="88.4"/><line class="cls-6" x1="102.38" y1="95.64" x2="99.25" y2="93.83"/><line class="cls-6" x1="92.99" y1="90.21" x2="90.79" y2="88.95"/><line class="cls-6" x1="96.12" y1="88.4" x2="92.99" y2="90.21"/><line class="cls-6" x1="108.65" y1="88.4" x2="105.52" y2="90.21"/><line class="cls-6" x1="99.25" y1="93.83" x2="96.12" y2="95.64"/><line class="cls-6" x1="121.19" y1="88.4" x2="118.06" y2="90.21"/><line class="cls-6" x1="111.78" y1="93.83" x2="108.65" y2="95.64"/><line class="cls-6" x1="133.72" y1="88.4" x2="130.59" y2="90.21"/><line class="cls-6" x1="124.32" y1="93.83" x2="121.19" y2="95.64"/><line class="cls-6" x1="146.25" y1="88.4" x2="143.12" y2="90.21"/><line class="cls-6" x1="136.85" y1="93.83" x2="133.72" y2="95.64"/><line class="cls-6" x1="158.78" y1="88.4" x2="155.65" y2="90.21"/><line class="cls-6" x1="149.39" y1="93.83" x2="146.25" y2="95.64"/><line class="cls-6" x1="161.92" y1="93.83" x2="158.78" y2="95.64"/><line class="cls-6" x1="102.38" y1="88.4" x2="99.25" y2="90.21"/><line class="cls-6" x1="92.99" y1="93.83" x2="90.79" y2="95.1"/><line class="cls-6" x1="114.92" y1="88.4" x2="111.78" y2="90.21"/><line class="cls-6" x1="105.52" y1="93.83" x2="102.38" y2="95.64"/><line class="cls-6" x1="127.46" y1="88.4" x2="124.32" y2="90.21"/><line class="cls-6" x1="118.06" y1="93.83" x2="114.92" y2="95.64"/><line class="cls-6" x1="139.99" y1="88.4" x2="136.85" y2="90.21"/><line class="cls-6" x1="130.59" y1="93.83" x2="127.45" y2="95.64"/><line class="cls-6" x1="152.52" y1="88.4" x2="149.39" y2="90.21"/><line class="cls-6" x1="143.12" y1="93.83" x2="139.99" y2="95.64"/><line class="cls-6" x1="165.05" y1="88.4" x2="161.92" y2="90.21"/><line class="cls-6" x1="155.65" y1="93.83" x2="152.52" y2="95.64"/><line class="cls-6" x1="166.77" y1="94.65" x2="165.05" y2="95.64"/></g><polyline class="cls-8" points="90.79 98.62 94.41 98.62 163.15 98.62 166.76 98.62 166.76 87.77 90.79 87.77 90.79 98.62"/><polyline class="cls-8" points="297 98.62 297 87.77 311.47 87.77 311.47 98.62 300.62 98.62 297 98.62"/><g class="cls-14"><line class="cls-6" x1="306.03" y1="93.83" x2="306.03" y2="90.21"/><line class="cls-6" x1="299.77" y1="93.83" x2="299.77" y2="90.21"/><line class="cls-6" x1="309.17" y1="98.62" x2="309.17" y2="95.64"/><line class="cls-6" x1="309.17" y1="88.4" x2="309.17" y2="87.77"/><line class="cls-6" x1="302.9" y1="98.62" x2="302.9" y2="95.64"/><line class="cls-6" x1="302.9" y1="88.4" x2="302.9" y2="87.77"/><line class="cls-6" x1="311.47" y1="89.74" x2="309.17" y2="88.4"/><line class="cls-6" x1="309.17" y1="95.64" x2="306.03" y2="93.83"/><line class="cls-6" x1="299.77" y1="90.21" x2="297" y2="88.61"/><line class="cls-6" x1="306.03" y1="90.21" x2="302.9" y2="88.4"/><line class="cls-6" x1="302.9" y1="95.64" x2="299.77" y2="93.83"/><line class="cls-6" x1="309.17" y1="88.4" x2="306.03" y2="90.21"/><line class="cls-6" x1="299.77" y1="93.83" x2="297" y2="95.43"/><line class="cls-6" x1="311.47" y1="94.31" x2="309.17" y2="95.64"/><line class="cls-6" x1="302.9" y1="88.4" x2="299.77" y2="90.21"/><line class="cls-6" x1="306.03" y1="93.83" x2="302.9" y2="95.64"/></g><polyline class="cls-8" points="297 98.62 300.62 98.62 311.47 98.62 311.47 87.77 297 87.77 297 98.62"/><polyline class="cls-8" points="325.94 113.09 325.94 113.09 325.94 98.62"/><line class="cls-6" x1="325.94" y1="98.62" x2="325.94" y2="98.62"/><line class="cls-6" x1="325.94" y1="104.68" x2="325.94" y2="104.68"/><line class="cls-6" x1="325.94" y1="108.6" x2="325.94" y2="108.6"/><line class="cls-6" x1="325.94" y1="98.62" x2="325.94" y2="98.62"/><polyline class="cls-8" points="325.94 98.62 325.94 113.09 325.94 113.09"/><polyline class="cls-8" points="325.94 87.77 325.94 87.77 325.94 87.04 325.94 87.04"/><polyline class="cls-8" points="325.94 98.62 325.94 98.62 325.94 87.77"/><line class="cls-6" x1="325.94" y1="87.77" x2="325.94" y2="87.77"/><line class="cls-6" x1="325.94" y1="93.83" x2="325.94" y2="90.21"/><line class="cls-6" x1="325.94" y1="98.62" x2="325.94" y2="95.64"/><line class="cls-6" x1="325.94" y1="88.4" x2="325.94" y2="87.77"/><line class="cls-6" x1="325.94" y1="98.62" x2="325.94" y2="95.64"/><line class="cls-6" x1="325.94" y1="88.4" x2="325.94" y2="87.77"/><line class="cls-6" x1="325.94" y1="90.21" x2="325.94" y2="88.4"/><line class="cls-6" x1="325.94" y1="95.64" x2="325.94" y2="93.83"/><line class="cls-6" x1="325.94" y1="90.21" x2="325.94" y2="88.4"/><line class="cls-6" x1="325.94" y1="95.64" x2="325.94" y2="94.47"/><line class="cls-6" x1="325.94" y1="88.4" x2="325.94" y2="90.21"/><line class="cls-6" x1="325.94" y1="93.83" x2="325.94" y2="95.64"/><line class="cls-6" x1="325.94" y1="88.4" x2="325.94" y2="89.57"/><line class="cls-6" x1="325.94" y1="93.83" x2="325.94" y2="95.64"/><line class="cls-6" x1="325.94" y1="87.77" x2="325.94" y2="87.77"/><polyline class="cls-8" points="325.94 87.77 325.94 98.62 325.94 98.62"/><polyline class="cls-8" points="325.94 87.04 325.94 87.77 311.47 87.77 311.47 87.04 325.94 87.04"/><polyline class="cls-8" points="325.94 87.77 325.94 98.62 311.47 98.62 311.47 87.77 325.94 87.77"/><g class="cls-15"><line class="cls-6" x1="324.83" y1="93.83" x2="324.83" y2="90.21"/><line class="cls-6" x1="318.56" y1="93.83" x2="318.56" y2="90.21"/><line class="cls-6" x1="312.3" y1="93.83" x2="312.3" y2="90.21"/><line class="cls-6" x1="321.7" y1="98.62" x2="321.7" y2="95.64"/><line class="cls-6" x1="321.7" y1="88.4" x2="321.7" y2="87.77"/><line class="cls-6" x1="315.43" y1="98.62" x2="315.43" y2="95.64"/><line class="cls-6" x1="315.43" y1="88.4" x2="315.43" y2="87.77"/><line class="cls-6" x1="324.83" y1="90.21" x2="321.7" y2="88.4"/><line class="cls-6" x1="321.7" y1="95.64" x2="318.56" y2="93.83"/><line class="cls-6" x1="312.3" y1="90.21" x2="311.47" y2="89.73"/><line class="cls-6" x1="325.94" y1="94.47" x2="324.83" y2="93.83"/><line class="cls-6" x1="318.56" y1="90.21" x2="315.43" y2="88.4"/><line class="cls-6" x1="315.43" y1="95.64" x2="312.3" y2="93.83"/><line class="cls-6" x1="321.7" y1="88.4" x2="318.56" y2="90.21"/><line class="cls-6" x1="312.3" y1="93.83" x2="311.47" y2="94.31"/><line class="cls-6" x1="324.83" y1="93.83" x2="321.7" y2="95.64"/><line class="cls-6" x1="315.43" y1="88.4" x2="312.3" y2="90.21"/><line class="cls-6" x1="325.94" y1="89.57" x2="324.83" y2="90.21"/><line class="cls-6" x1="318.56" y1="93.83" x2="315.43" y2="95.64"/></g><polyline class="cls-8" points="325.94 87.77 311.47 87.77 311.47 98.62 325.94 98.62 325.94 87.77"/><polyline class="cls-8" points="14.82 87.04 14.82 87.77 0.35 87.77 0.35 87.04 14.82 87.04"/><polyline class="cls-8" points="14.82 87.77 14.82 98.62 0.35 98.62 0.35 87.77 14.82 87.77"/><g class="cls-16"><line class="cls-6" x1="11.53" y1="93.83" x2="11.53" y2="90.21"/><line class="cls-6" x1="5.26" y1="93.83" x2="5.26" y2="90.21"/><line class="cls-6" x1="14.66" y1="98.62" x2="14.66" y2="95.64"/><line class="cls-6" x1="14.66" y1="88.4" x2="14.66" y2="87.77"/><line class="cls-6" x1="8.4" y1="98.62" x2="8.4" y2="95.64"/><line class="cls-6" x1="8.4" y1="88.4" x2="8.4" y2="87.77"/><line class="cls-6" x1="2.13" y1="98.62" x2="2.13" y2="95.64"/><line class="cls-6" x1="2.13" y1="88.4" x2="2.13" y2="87.77"/><line class="cls-6" x1="11.53" y1="90.21" x2="8.4" y2="88.4"/><line class="cls-6" x1="8.4" y1="95.64" x2="5.26" y2="93.83"/><line class="cls-6" x1="14.82" y1="88.5" x2="14.66" y2="88.4"/><line class="cls-6" x1="14.66" y1="95.64" x2="11.53" y2="93.83"/><line class="cls-6" x1="5.26" y1="90.21" x2="2.13" y2="88.4"/><line class="cls-6" x1="2.13" y1="95.64" x2="0.35" y2="94.61"/><line class="cls-6" x1="8.4" y1="88.4" x2="5.26" y2="90.21"/><line class="cls-6" x1="11.53" y1="93.83" x2="8.4" y2="95.64"/><line class="cls-6" x1="2.13" y1="88.4" x2="0.35" y2="89.43"/><line class="cls-6" x1="14.66" y1="88.4" x2="11.53" y2="90.21"/><line class="cls-6" x1="5.26" y1="93.83" x2="2.13" y2="95.64"/><line class="cls-6" x1="14.82" y1="95.55" x2="14.66" y2="95.64"/></g><polyline class="cls-8" points="14.82 87.77 0.35 87.77 0.35 98.62 14.82 98.62 14.82 87.77"/><polyline class="cls-8" points="33.63 87.04 90.07 87.04 90.07 98.62 94.41 98.62 94.41 102.24 94.41 113.09 29.29 113.09 29.29 102.24 29.29 98.62 33.63 98.62 33.63 87.04"/><polyline class="cls-8" points="90.79 87.04 90.79 87.77 90.79 98.62 90.07 98.62 90.07 87.04 90.79 87.04"/><polyline class="cls-8" points="33.63 87.04 33.63 98.62 32.91 98.62 32.91 87.77 32.91 87.04 33.63 87.04"/><polyline class="cls-8" points="297 87.04 297 98.62 300.62 98.62 300.62 102.24 300.62 113.09 163.15 113.09 163.15 102.24 163.15 98.62 166.76 98.62 166.76 87.04 297 87.04"/><line class="cls-6" x1="14.82" y1="98.62" x2="29.29" y2="98.62"/><line class="cls-6" x1="300.62" y1="98.62" x2="311.47" y2="98.62"/><line class="cls-6" x1="94.41" y1="98.62" x2="163.15" y2="98.62"/><line class="cls-6" x1="32.91" y1="87.77" x2="14.82" y2="87.77"/><line class="cls-6" x1="311.47" y1="87.77" x2="297" y2="87.77"/><line class="cls-6" x1="166.77" y1="87.77" x2="90.79" y2="87.77"/><line class="cls-6" x1="325.94" y1="98.62" x2="325.94" y2="98.62"/><line class="cls-6" x1="325.94" y1="87.77" x2="325.94" y2="87.77"/><line class="cls-6" x1="325.94" y1="87.77" x2="311.47" y2="87.77"/><line class="cls-6" x1="14.82" y1="87.77" x2="0.35" y2="87.77"/><line class="cls-6" x1="33.63" y1="98.62" x2="33.63" y2="87.04"/><line class="cls-6" x1="32.91" y1="87.04" x2="33.63" y2="87.04"/><line class="cls-6" x1="32.91" y1="98.62" x2="33.63" y2="98.62"/><line class="cls-6" x1="32.91" y1="87.77" x2="32.91" y2="98.62"/><line class="cls-6" x1="90.07" y1="98.62" x2="90.07" y2="87.04"/><line class="cls-6" x1="90.79" y1="87.04" x2="90.07" y2="87.04"/><line class="cls-6" x1="90.79" y1="98.62" x2="90.07" y2="98.62"/><line class="cls-6" x1="90.79" y1="87.77" x2="90.79" y2="98.62"/><line class="cls-6" x1="29.29" y1="102.24" x2="29.29" y2="113.09"/><line class="cls-6" x1="32.91" y1="98.62" x2="29.29" y2="98.62"/><line class="cls-6" x1="29.29" y1="98.62" x2="29.29" y2="102.24"/><line class="cls-6" x1="94.41" y1="102.24" x2="94.41" y2="113.09"/><line class="cls-6" x1="90.79" y1="98.62" x2="94.41" y2="98.62"/><line class="cls-6" x1="94.41" y1="98.62" x2="94.41" y2="102.24"/><line class="cls-6" x1="300.62" y1="102.24" x2="300.62" y2="113.09"/><line class="cls-6" x1="297" y1="87.04" x2="314.73" y2="87.04"/><line class="cls-6" x1="297" y1="87.77" x2="297" y2="98.62"/><line class="cls-6" x1="297" y1="87.04" x2="297" y2="87.77"/><line class="cls-6" x1="297" y1="87.77" x2="297" y2="98.62"/><line class="cls-6" x1="297" y1="87.04" x2="297" y2="87.77"/><line class="cls-6" x1="297" y1="98.62" x2="300.62" y2="98.62"/><line class="cls-6" x1="300.62" y1="98.62" x2="300.62" y2="102.24"/><line class="cls-6" x1="163.15" y1="102.24" x2="163.15" y2="113.09"/><line class="cls-6" x1="166.77" y1="87.04" x2="149.04" y2="87.04"/><line class="cls-6" x1="166.77" y1="87.77" x2="166.77" y2="98.62"/><line class="cls-6" x1="166.77" y1="87.04" x2="166.77" y2="87.77"/><line class="cls-6" x1="166.77" y1="87.77" x2="166.77" y2="98.62"/><line class="cls-6" x1="166.77" y1="87.04" x2="166.77" y2="87.77"/><line class="cls-6" x1="166.77" y1="98.62" x2="163.15" y2="98.62"/><line class="cls-6" x1="163.15" y1="98.62" x2="163.15" y2="102.24"/><line class="cls-6" x1="14.82" y1="113.09" x2="29.29" y2="113.09"/><line class="cls-6" x1="94.41" y1="113.09" x2="163.15" y2="113.09"/><line class="cls-6" x1="300.62" y1="113.09" x2="311.47" y2="113.09"/><line class="cls-6" x1="325.94" y1="113.09" x2="325.94" y2="113.09"/><line class="cls-6" x1="325.94" y1="87.04" x2="297" y2="87.04"/><line class="cls-6" x1="166.77" y1="87.04" x2="90.79" y2="87.04"/><line class="cls-6" x1="32.91" y1="87.04" x2="0.35" y2="87.04"/><line class="cls-6" x1="90.07" y1="87.04" x2="33.63" y2="87.04"/><line class="cls-6" x1="94.41" y1="113.09" x2="29.29" y2="113.09"/><polyline class="cls-8" points="94.41 102.24 94.41 98.62 85.73 98.62 85.73 102.24 94.41 102.24"/><polyline class="cls-8" points="29.29 98.62 29.29 102.24 37.97 102.24 37.97 98.62 29.29 98.62"/><polyline class="cls-8" points="85.73 102.24 85.73 98.62 37.97 98.62 37.97 102.24 85.73 102.24"/><line class="cls-6" x1="94.41" y1="102.24" x2="85.73" y2="102.24"/><line class="cls-6" x1="85.73" y1="102.24" x2="85.73" y2="98.62"/><line class="cls-6" x1="85.73" y1="98.62" x2="94.41" y2="98.62"/><line class="cls-6" x1="29.29" y1="98.62" x2="37.97" y2="98.62"/><line class="cls-6" x1="37.97" y1="98.62" x2="37.97" y2="102.24"/><line class="cls-6" x1="37.97" y1="102.24" x2="29.29" y2="102.24"/><line class="cls-6" x1="85.73" y1="102.24" x2="37.97" y2="102.24"/><line class="cls-6" x1="37.97" y1="98.62" x2="85.73" y2="98.62"/><line class="cls-6" x1="94.41" y1="98.62" x2="94.41" y2="102.24"/><line class="cls-6" x1="90.79" y1="98.62" x2="94.41" y2="98.62"/><line class="cls-6" x1="29.29" y1="98.62" x2="29.29" y2="102.24"/><line class="cls-6" x1="32.91" y1="98.62" x2="29.29" y2="98.62"/><line class="cls-6" x1="166.77" y1="87.04" x2="297" y2="87.04"/><line class="cls-6" x1="163.15" y1="113.09" x2="300.62" y2="113.09"/><polyline class="cls-8" points="163.15 102.24 171.83 102.24 171.83 98.62 163.15 98.62 163.15 102.24"/><polyline class="cls-8" points="206.56 98.62 200.77 98.62 200.77 102.24 206.56 102.24 206.56 98.62"/><polyline class="cls-8" points="171.83 102.24 200.77 102.24 200.77 98.62 171.83 98.62 171.83 102.24"/><polyline class="cls-8" points="206.56 102.24 209.45 102.24 209.45 98.62 206.56 98.62 206.56 102.24"/><polyline class="cls-8" points="257.21 98.62 254.31 98.62 254.31 102.24 257.21 102.24 257.21 98.62"/><polyline class="cls-8" points="209.45 102.24 254.31 102.24 254.31 98.62 209.45 98.62 209.45 102.24"/><polyline class="cls-8" points="257.21 102.24 263 102.24 263 98.62 257.21 98.62 257.21 102.24"/><polyline class="cls-8" points="300.62 98.62 291.94 98.62 291.94 102.24 300.62 102.24 300.62 98.62"/><polyline class="cls-8" points="263 102.24 291.94 102.24 291.94 98.62 263 98.62 263 102.24"/><line class="cls-6" x1="163.15" y1="102.24" x2="171.83" y2="102.24"/><line class="cls-6" x1="171.83" y1="102.24" x2="171.83" y2="98.62"/><line class="cls-6" x1="171.83" y1="98.62" x2="163.15" y2="98.62"/><line class="cls-6" x1="206.56" y1="98.62" x2="200.77" y2="98.62"/><line class="cls-6" x1="200.77" y1="98.62" x2="200.77" y2="102.24"/><line class="cls-6" x1="200.77" y1="102.24" x2="206.56" y2="102.24"/><line class="cls-6" x1="171.83" y1="102.24" x2="200.77" y2="102.24"/><line class="cls-6" x1="200.77" y1="98.62" x2="171.83" y2="98.62"/><line class="cls-6" x1="206.56" y1="102.24" x2="209.45" y2="102.24"/><line class="cls-6" x1="209.45" y1="102.24" x2="209.45" y2="98.62"/><line class="cls-6" x1="209.45" y1="98.62" x2="206.56" y2="98.62"/><line class="cls-6" x1="257.21" y1="98.62" x2="254.31" y2="98.62"/><line class="cls-6" x1="254.31" y1="98.62" x2="254.31" y2="102.24"/><line class="cls-6" x1="254.31" y1="102.24" x2="257.21" y2="102.24"/><line class="cls-6" x1="209.45" y1="102.24" x2="254.31" y2="102.24"/><line class="cls-6" x1="254.31" y1="98.62" x2="209.45" y2="98.62"/><line class="cls-6" x1="257.21" y1="102.24" x2="263" y2="102.24"/><line class="cls-6" x1="263" y1="102.24" x2="263" y2="98.62"/><line class="cls-6" x1="263" y1="98.62" x2="257.21" y2="98.62"/><line class="cls-6" x1="300.62" y1="98.62" x2="291.94" y2="98.62"/><line class="cls-6" x1="291.94" y1="98.62" x2="291.94" y2="102.24"/><line class="cls-6" x1="291.94" y1="102.24" x2="300.62" y2="102.24"/><line class="cls-6" x1="263" y1="102.24" x2="291.94" y2="102.24"/><line class="cls-6" x1="291.94" y1="98.62" x2="263" y2="98.62"/><line class="cls-6" x1="163.15" y1="98.62" x2="163.15" y2="102.24"/><line class="cls-6" x1="166.77" y1="98.62" x2="163.15" y2="98.62"/><line class="cls-6" x1="166.77" y1="87.04" x2="166.77" y2="87.77"/><line class="cls-6" x1="166.77" y1="87.77" x2="166.77" y2="98.62"/><line class="cls-6" x1="166.77" y1="87.04" x2="149.04" y2="87.04"/><line class="cls-6" x1="300.62" y1="98.62" x2="300.62" y2="102.24"/><line class="cls-6" x1="297" y1="98.62" x2="300.62" y2="98.62"/><line class="cls-6" x1="297" y1="87.04" x2="297" y2="87.77"/><line class="cls-6" x1="297" y1="87.77" x2="297" y2="98.62"/><line class="cls-6" x1="297" y1="87.04" x2="314.73" y2="87.04"/><polyline class="cls-8" points="239.12 778.75 224.65 764.28 224.65 749.81 239.12 764.28 239.12 778.75"/><g class="cls-17"><line class="cls-6" x1="230.45" y1="770.09" x2="230.65" y2="770.09"/><line class="cls-6" x1="227.83" y1="767.46" x2="228.48" y2="766.32"/><line class="cls-6" x1="230.65" y1="770.09" x2="228.48" y2="766.32"/><line class="cls-6" x1="235" y1="773.23" x2="235" y2="773.23"/><line class="cls-6" x1="235" y1="764.55" x2="235" y2="764.55"/><line class="cls-6" x1="238.53" y1="777.8" x2="238.53" y2="777.8"/><line class="cls-6" x1="232.39" y1="771.66" x2="232.39" y2="771.66"/><line class="cls-6" x1="226.25" y1="765.52" x2="226.25" y2="765.52"/></g><polyline class="cls-8" points="239.12 778.75 239.12 764.28 224.65 749.81 224.65 764.28 239.12 778.75"/><line class="cls-6" x1="239.12" y1="778.75" x2="239.12" y2="764.28"/><line class="cls-6" x1="224.65" y1="749.81" x2="224.65" y2="764.28"/><polyline class="cls-8" points="239.12 764.28 224.65 749.81 311.47 749.81 311.47 764.28 239.12 764.28"/><g class="cls-18"><line class="cls-6" x1="235" y1="755.87" x2="235" y2="755.87"/><line class="cls-6" x1="243.68" y1="755.87" x2="243.68" y2="755.87"/><line class="cls-6" x1="256.7" y1="755.87" x2="256.7" y2="755.87"/><line class="cls-6" x1="265.38" y1="755.87" x2="265.38" y2="755.87"/><line class="cls-6" x1="278.41" y1="755.87" x2="278.41" y2="755.87"/><line class="cls-6" x1="287.09" y1="755.87" x2="287.09" y2="755.87"/><line class="cls-6" x1="300.11" y1="755.87" x2="300.11" y2="755.87"/><line class="cls-6" x1="308.8" y1="755.87" x2="308.8" y2="755.87"/><line class="cls-6" x1="307.6" y1="757.84" x2="307.6" y2="757.84"/><line class="cls-6" x1="289.18" y1="763.99" x2="289.18" y2="763.99"/><line class="cls-6" x1="293.78" y1="759.38" x2="293.78" y2="759.38"/><line class="cls-6" x1="301.46" y1="751.71" x2="301.46" y2="751.71"/><line class="cls-6" x1="283.04" y1="757.84" x2="283.04" y2="757.84"/><line class="cls-6" x1="287.65" y1="753.24" x2="287.65" y2="753.24"/><line class="cls-6" x1="264.62" y1="763.99" x2="264.62" y2="763.99"/><line class="cls-6" x1="269.23" y1="759.38" x2="269.23" y2="759.38"/><line class="cls-6" x1="276.9" y1="751.71" x2="276.9" y2="751.71"/><line class="cls-6" x1="258.48" y1="757.84" x2="258.48" y2="757.84"/><line class="cls-6" x1="263.08" y1="753.24" x2="263.08" y2="753.24"/><line class="cls-6" x1="240.06" y1="763.99" x2="240.06" y2="763.99"/><line class="cls-6" x1="244.67" y1="759.38" x2="244.67" y2="759.38"/><line class="cls-6" x1="252.35" y1="751.71" x2="252.35" y2="751.71"/><line class="cls-6" x1="233.92" y1="757.84" x2="233.92" y2="757.84"/><line class="cls-6" x1="238.53" y1="753.24" x2="238.53" y2="753.24"/><line class="cls-6" x1="227.78" y1="751.71" x2="227.78" y2="751.71"/></g><polyline class="cls-8" points="239.12 764.28 311.47 764.28 311.47 749.81 224.65 749.81 239.12 764.28"/><line class="cls-6" x1="326.02" y1="751.71" x2="326.02" y2="751.71"/><line class="cls-6" x1="311.47" y1="749.81" x2="224.65" y2="749.81"/><line class="cls-6" x1="239.12" y1="764.28" x2="311.47" y2="764.28"/><polyline class="cls-8" points="239.12 778.75 224.65 778.75 224.65 772.6 224.65 764.28 239.12 778.75"/><g class="cls-19"><line class="cls-6" x1="226.31" y1="770.09" x2="230.45" y2="770.09"/><line class="cls-6" x1="226.31" y1="770.09" x2="227.83" y2="767.46"/><line class="cls-6" x1="227.78" y1="776.27" x2="227.78" y2="776.27"/></g><polyline class="cls-8" points="239.12 778.75 224.65 764.28 224.65 772.6 224.65 778.75 239.12 778.75"/><line class="cls-6" x1="152.29" y1="772.6" x2="152.29" y2="778.75"/><line class="cls-6" x1="152.29" y1="764.28" x2="152.29" y2="772.6"/><line class="cls-6" x1="224.65" y1="772.6" x2="224.65" y2="778.75"/><line class="cls-6" x1="224.65" y1="764.28" x2="224.65" y2="772.6"/><line class="cls-6" x1="224.65" y1="778.75" x2="239.12" y2="778.75"/><path class="cls-6" d="M188.47,735a66.56,66.56,0,0,1,33.28,57.65" transform="translate(0 -28.34)"/><line class="cls-6" x1="224.65" y1="772.6" x2="221.75" y2="772.6"/><line class="cls-6" x1="221.75" y1="772.6" x2="221.75" y2="764.28"/><line class="cls-6" x1="221.75" y1="764.28" x2="224.65" y2="764.28"/><line class="cls-6" x1="224.65" y1="764.28" x2="224.65" y2="772.6"/><line class="cls-6" x1="152.29" y1="764.28" x2="155.19" y2="764.28"/><line class="cls-6" x1="155.19" y1="764.28" x2="155.19" y2="772.6"/><line class="cls-6" x1="155.19" y1="772.6" x2="152.29" y2="772.6"/><line class="cls-6" x1="152.29" y1="772.6" x2="152.29" y2="764.28"/><line class="cls-6" x1="155.19" y1="764.28" x2="188.47" y2="706.63"/><line class="cls-6" x1="224.65" y1="764.28" x2="224.65" y2="772.6"/><line class="cls-6" x1="152.29" y1="764.28" x2="152.29" y2="772.6"/><polyline class="cls-8" points="152.29 778.75 137.82 778.75 137.82 764.28 152.29 749.81 152.29 778.75"/><g class="cls-20"><line class="cls-6" x1="148.17" y1="770.09" x2="152.29" y2="770.09"/><line class="cls-6" x1="148.17" y1="770.09" x2="150.34" y2="766.32"/><line class="cls-6" x1="152.29" y1="769.71" x2="150.34" y2="766.32"/><line class="cls-6" x1="148.17" y1="773.23" x2="148.17" y2="773.23"/><line class="cls-6" x1="148.17" y1="764.55" x2="148.17" y2="764.55"/><line class="cls-6" x1="148.17" y1="755.87" x2="148.17" y2="755.87"/><line class="cls-6" x1="140.3" y1="777.8" x2="140.3" y2="777.8"/><line class="cls-6" x1="147.97" y1="770.12" x2="147.97" y2="770.12"/><line class="cls-6" x1="141.83" y1="763.99" x2="141.83" y2="763.99"/><line class="cls-6" x1="146.43" y1="759.38" x2="146.43" y2="759.38"/></g><polyline class="cls-8" points="152.29 778.75 152.29 749.81 137.82 764.28 137.82 778.75 152.29 778.75"/><line class="cls-6" x1="152.29" y1="764.28" x2="152.29" y2="749.81"/><line class="cls-6" x1="137.82" y1="764.28" x2="137.82" y2="778.75"/><line class="cls-6" x1="137.82" y1="778.75" x2="152.29" y2="778.75"/><polyline class="cls-8" points="132.03 749.81 132.03 764.28 14.82 764.28 14.82 749.81 132.03 749.81"/><g class="cls-21"><line class="cls-6" x1="17.93" y1="755.87" x2="17.93" y2="755.87"/><line class="cls-6" x1="26.61" y1="755.87" x2="26.61" y2="755.87"/><line class="cls-6" x1="39.64" y1="755.87" x2="39.64" y2="755.87"/><line class="cls-6" x1="48.32" y1="755.87" x2="48.32" y2="755.87"/><line class="cls-6" x1="61.34" y1="755.87" x2="61.34" y2="755.87"/><line class="cls-6" x1="70.03" y1="755.87" x2="70.03" y2="755.87"/><line class="cls-6" x1="83.05" y1="755.87" x2="83.05" y2="755.87"/><line class="cls-6" x1="91.73" y1="755.87" x2="91.73" y2="755.87"/><line class="cls-6" x1="104.76" y1="755.87" x2="104.76" y2="755.87"/><line class="cls-6" x1="113.44" y1="755.87" x2="113.44" y2="755.87"/><line class="cls-6" x1="126.46" y1="755.87" x2="126.46" y2="755.87"/><line class="cls-6" x1="117.28" y1="763.99" x2="117.28" y2="763.99"/><line class="cls-6" x1="121.88" y1="759.38" x2="121.88" y2="759.38"/><line class="cls-6" x1="129.55" y1="751.71" x2="129.55" y2="751.71"/><line class="cls-6" x1="111.13" y1="757.84" x2="111.13" y2="757.84"/><line class="cls-6" x1="115.74" y1="753.24" x2="115.74" y2="753.24"/><line class="cls-6" x1="92.72" y1="763.99" x2="92.72" y2="763.99"/><line class="cls-6" x1="97.32" y1="759.38" x2="97.32" y2="759.38"/><line class="cls-6" x1="105" y1="751.71" x2="105" y2="751.71"/><line class="cls-6" x1="86.57" y1="757.84" x2="86.57" y2="757.84"/><line class="cls-6" x1="91.18" y1="753.24" x2="91.18" y2="753.24"/><line class="cls-6" x1="68.16" y1="763.99" x2="68.16" y2="763.99"/><line class="cls-6" x1="72.76" y1="759.38" x2="72.76" y2="759.38"/><line class="cls-6" x1="80.44" y1="751.71" x2="80.44" y2="751.71"/><line class="cls-6" x1="62.02" y1="757.84" x2="62.02" y2="757.84"/><line class="cls-6" x1="66.63" y1="753.24" x2="66.63" y2="753.24"/><line class="cls-6" x1="43.6" y1="763.99" x2="43.6" y2="763.99"/><line class="cls-6" x1="48.21" y1="759.38" x2="48.21" y2="759.38"/><line class="cls-6" x1="55.88" y1="751.71" x2="55.88" y2="751.71"/><line class="cls-6" x1="37.46" y1="757.84" x2="37.46" y2="757.84"/><line class="cls-6" x1="42.06" y1="753.24" x2="42.06" y2="753.24"/><line class="cls-6" x1="19.04" y1="763.99" x2="19.04" y2="763.99"/><line class="cls-6" x1="23.65" y1="759.38" x2="23.65" y2="759.38"/><line class="cls-6" x1="31.33" y1="751.71" x2="31.33" y2="751.71"/><line class="cls-6" x1="17.51" y1="753.24" x2="17.51" y2="753.24"/></g><polyline class="cls-8" points="132.03 749.81 14.82 749.81 14.82 764.28 132.03 764.28 132.03 749.81"/><g class="cls-22"><line class="cls-6" x1="135.15" y1="755.87" x2="135.15" y2="755.87"/><line class="cls-6" x1="135.7" y1="757.84" x2="135.7" y2="757.84"/></g><polyline class="cls-8" points="137.82 749.81 132.03 749.81 132.03 764.28 137.82 764.28 137.82 749.81"/><polyline class="cls-8" points="137.82 764.28 137.82 749.81 152.29 749.81 137.82 764.28"/><g class="cls-23"><line class="cls-6" x1="140.3" y1="753.24" x2="140.3" y2="753.24"/></g><polyline class="cls-8" points="137.82 764.28 152.29 749.81 137.82 749.81 137.82 764.28"/><line class="cls-6" x1="152.29" y1="749.81" x2="137.82" y2="749.81"/><line class="cls-6" x1="132.04" y1="749.81" x2="14.82" y2="749.81"/><line class="cls-6" x1="6.14" y1="764.28" x2="137.82" y2="764.28"/><polyline class="cls-8" points="311.47 588.48 325.94 588.48 325.94 728.11 311.47 728.11 311.47 588.48"/><g class="cls-24"><line class="cls-6" x1="317.48" y1="702.41" x2="321.82" y2="702.41"/><line class="cls-6" x1="317.48" y1="657.29" x2="321.82" y2="657.29"/><line class="cls-6" x1="317.48" y1="612.18" x2="321.82" y2="612.18"/><line class="cls-6" x1="317.48" y1="657.29" x2="319.65" y2="653.54"/><line class="cls-6" x1="317.48" y1="702.41" x2="319.65" y2="698.65"/><line class="cls-6" x1="317.48" y1="612.18" x2="319.65" y2="608.42"/><line class="cls-6" x1="321.82" y1="657.29" x2="319.65" y2="653.54"/><line class="cls-6" x1="321.82" y1="612.18" x2="319.65" y2="608.42"/><line class="cls-6" x1="321.82" y1="702.41" x2="319.65" y2="698.65"/><line class="cls-6" x1="321.82" y1="721.14" x2="321.82" y2="721.14"/><line class="cls-6" x1="321.82" y1="712.46" x2="321.82" y2="712.46"/><line class="cls-6" x1="321.82" y1="703.77" x2="321.82" y2="703.77"/><line class="cls-6" x1="321.82" y1="695.09" x2="321.82" y2="695.09"/><line class="cls-6" x1="321.82" y1="686.41" x2="321.82" y2="686.41"/><line class="cls-6" x1="321.82" y1="677.73" x2="321.82" y2="677.73"/><line class="cls-6" x1="321.82" y1="669.04" x2="321.82" y2="669.04"/><line class="cls-6" x1="321.82" y1="660.36" x2="321.82" y2="660.36"/><line class="cls-6" x1="321.82" y1="651.68" x2="321.82" y2="651.68"/><line class="cls-6" x1="321.82" y1="643" x2="321.82" y2="643"/><line class="cls-6" x1="321.82" y1="634.31" x2="321.82" y2="634.31"/><line class="cls-6" x1="321.82" y1="625.63" x2="321.82" y2="625.63"/><line class="cls-6" x1="321.82" y1="616.95" x2="321.82" y2="616.95"/><line class="cls-6" x1="321.82" y1="608.27" x2="321.82" y2="608.27"/><line class="cls-6" x1="321.82" y1="599.58" x2="321.82" y2="599.58"/><line class="cls-6" x1="321.82" y1="590.9" x2="321.82" y2="590.9"/><line class="cls-6" x1="319.87" y1="721.01" x2="319.87" y2="721.01"/><line class="cls-6" x1="324.48" y1="716.41" x2="324.48" y2="716.41"/><line class="cls-6" x1="313.74" y1="714.87" x2="313.74" y2="714.87"/><line class="cls-6" x1="318.34" y1="710.26" x2="318.34" y2="710.26"/><line class="cls-6" x1="312.2" y1="704.12" x2="312.2" y2="704.12"/><line class="cls-6" x1="319.87" y1="696.45" x2="319.87" y2="696.45"/><line class="cls-6" x1="324.48" y1="691.84" x2="324.48" y2="691.84"/><line class="cls-6" x1="313.74" y1="690.31" x2="313.74" y2="690.31"/><line class="cls-6" x1="318.34" y1="685.71" x2="318.34" y2="685.71"/><line class="cls-6" x1="312.2" y1="679.56" x2="312.2" y2="679.56"/><line class="cls-6" x1="319.87" y1="671.89" x2="319.87" y2="671.89"/><line class="cls-6" x1="324.48" y1="667.29" x2="324.48" y2="667.29"/><line class="cls-6" x1="313.74" y1="665.75" x2="313.74" y2="665.75"/><line class="cls-6" x1="318.34" y1="661.15" x2="318.34" y2="661.15"/><line class="cls-6" x1="312.2" y1="655.01" x2="312.2" y2="655.01"/><line class="cls-6" x1="319.87" y1="647.34" x2="319.87" y2="647.34"/><line class="cls-6" x1="324.48" y1="642.73" x2="324.48" y2="642.73"/><line class="cls-6" x1="313.74" y1="641.19" x2="313.74" y2="641.19"/><line class="cls-6" x1="318.34" y1="636.59" x2="318.34" y2="636.59"/><line class="cls-6" x1="312.2" y1="630.45" x2="312.2" y2="630.45"/><line class="cls-6" x1="319.87" y1="622.78" x2="319.87" y2="622.78"/><line class="cls-6" x1="324.48" y1="618.17" x2="324.48" y2="618.17"/><line class="cls-6" x1="313.74" y1="616.64" x2="313.74" y2="616.64"/><line class="cls-6" x1="318.34" y1="612.04" x2="318.34" y2="612.04"/><line class="cls-6" x1="312.2" y1="605.89" x2="312.2" y2="605.89"/><line class="cls-6" x1="319.87" y1="598.22" x2="319.87" y2="598.22"/><line class="cls-6" x1="324.48" y1="593.61" x2="324.48" y2="593.61"/><line class="cls-6" x1="313.74" y1="592.08" x2="313.74" y2="592.08"/></g><polyline class="cls-8" points="311.47 588.48 311.47 728.11 325.94 728.11 325.94 588.48 311.47 588.48"/><g class="cls-25"><line class="cls-6" x1="318.34" y1="587.47" x2="318.34" y2="587.47"/></g><polyline class="cls-8" points="311.47 582.69 311.47 588.48 325.94 588.48 325.94 582.69 311.47 582.69"/><polyline class="cls-8" points="325.94 582.69 311.47 582.69 311.47 568.93 325.94 568.93 325.94 582.69"/><g class="cls-26"><line class="cls-6" x1="321.82" y1="582.22" x2="321.82" y2="582.22"/><line class="cls-6" x1="321.82" y1="573.54" x2="321.82" y2="573.54"/><line class="cls-6" x1="312.2" y1="581.34" x2="312.2" y2="581.34"/><line class="cls-6" x1="319.87" y1="573.66" x2="319.87" y2="573.66"/><line class="cls-6" x1="324.48" y1="569.06" x2="324.48" y2="569.06"/></g><polyline class="cls-8" points="325.94 582.69 325.94 568.93 311.47 568.93 311.47 582.69 325.94 582.69"/><polyline class="cls-8" points="325.94 532.75 311.47 532.75 311.47 344.63 325.94 344.63 325.94 532.75"/><g class="cls-27"><line class="cls-6" x1="317.48" y1="521.95" x2="321.82" y2="521.95"/><line class="cls-6" x1="317.48" y1="476.83" x2="321.82" y2="476.83"/><line class="cls-6" x1="317.48" y1="431.72" x2="321.82" y2="431.72"/><line class="cls-6" x1="317.48" y1="386.6" x2="321.82" y2="386.6"/><line class="cls-6" x1="317.48" y1="476.83" x2="319.65" y2="473.07"/><line class="cls-6" x1="317.48" y1="386.6" x2="319.65" y2="382.84"/><line class="cls-6" x1="317.48" y1="521.95" x2="319.65" y2="518.19"/><line class="cls-6" x1="317.48" y1="431.72" x2="319.65" y2="427.95"/><line class="cls-6" x1="321.82" y1="386.6" x2="319.65" y2="382.84"/><line class="cls-6" x1="321.82" y1="476.83" x2="319.65" y2="473.07"/><line class="cls-6" x1="321.82" y1="431.72" x2="319.65" y2="427.95"/><line class="cls-6" x1="321.82" y1="521.95" x2="319.65" y2="518.19"/><line class="cls-6" x1="321.82" y1="530.13" x2="321.82" y2="530.13"/><line class="cls-6" x1="321.82" y1="521.44" x2="321.82" y2="521.44"/><line class="cls-6" x1="321.82" y1="512.76" x2="321.82" y2="512.76"/><line class="cls-6" x1="321.82" y1="504.08" x2="321.82" y2="504.08"/><line class="cls-6" x1="321.82" y1="495.4" x2="321.82" y2="495.4"/><line class="cls-6" x1="321.82" y1="486.71" x2="321.82" y2="486.71"/><line class="cls-6" x1="321.82" y1="478.03" x2="321.82" y2="478.03"/><line class="cls-6" x1="321.82" y1="469.35" x2="321.82" y2="469.35"/><line class="cls-6" x1="321.82" y1="460.67" x2="321.82" y2="460.67"/><line class="cls-6" x1="321.82" y1="451.98" x2="321.82" y2="451.98"/><line class="cls-6" x1="321.82" y1="443.3" x2="321.82" y2="443.3"/><line class="cls-6" x1="321.82" y1="434.62" x2="321.82" y2="434.62"/><line class="cls-6" x1="321.82" y1="425.94" x2="321.82" y2="425.94"/><line class="cls-6" x1="321.82" y1="417.25" x2="321.82" y2="417.25"/><line class="cls-6" x1="321.82" y1="408.57" x2="321.82" y2="408.57"/><line class="cls-6" x1="321.82" y1="399.89" x2="321.82" y2="399.89"/><line class="cls-6" x1="321.82" y1="391.21" x2="321.82" y2="391.21"/><line class="cls-6" x1="321.82" y1="382.52" x2="321.82" y2="382.52"/><line class="cls-6" x1="321.82" y1="373.84" x2="321.82" y2="373.84"/><line class="cls-6" x1="321.82" y1="365.16" x2="321.82" y2="365.16"/><line class="cls-6" x1="321.82" y1="356.47" x2="321.82" y2="356.47"/><line class="cls-6" x1="321.82" y1="347.79" x2="321.82" y2="347.79"/><line class="cls-6" x1="312.2" y1="532.22" x2="312.2" y2="532.22"/><line class="cls-6" x1="319.87" y1="524.55" x2="319.87" y2="524.55"/><line class="cls-6" x1="324.48" y1="519.94" x2="324.48" y2="519.94"/><line class="cls-6" x1="313.74" y1="518.41" x2="313.74" y2="518.41"/><line class="cls-6" x1="318.34" y1="513.8" x2="318.34" y2="513.8"/><line class="cls-6" x1="312.2" y1="507.66" x2="312.2" y2="507.66"/><line class="cls-6" x1="319.87" y1="499.99" x2="319.87" y2="499.99"/><line class="cls-6" x1="324.48" y1="495.38" x2="324.48" y2="495.38"/><line class="cls-6" x1="313.74" y1="493.85" x2="313.74" y2="493.85"/><line class="cls-6" x1="318.34" y1="489.24" x2="318.34" y2="489.24"/><line class="cls-6" x1="312.2" y1="483.1" x2="312.2" y2="483.1"/><line class="cls-6" x1="319.87" y1="475.43" x2="319.87" y2="475.43"/><line class="cls-6" x1="324.48" y1="470.82" x2="324.48" y2="470.82"/><line class="cls-6" x1="313.74" y1="469.29" x2="313.74" y2="469.29"/><line class="cls-6" x1="318.34" y1="464.69" x2="318.34" y2="464.69"/><line class="cls-6" x1="312.2" y1="458.55" x2="312.2" y2="458.55"/><line class="cls-6" x1="319.87" y1="450.87" x2="319.87" y2="450.87"/><line class="cls-6" x1="324.48" y1="446.27" x2="324.48" y2="446.27"/><line class="cls-6" x1="313.74" y1="444.73" x2="313.74" y2="444.73"/><line class="cls-6" x1="318.34" y1="440.13" x2="318.34" y2="440.13"/><line class="cls-6" x1="312.2" y1="433.99" x2="312.2" y2="433.99"/><line class="cls-6" x1="319.87" y1="426.31" x2="319.87" y2="426.31"/><line class="cls-6" x1="324.48" y1="421.71" x2="324.48" y2="421.71"/><line class="cls-6" x1="313.74" y1="420.17" x2="313.74" y2="420.17"/><line class="cls-6" x1="318.34" y1="415.57" x2="318.34" y2="415.57"/><line class="cls-6" x1="312.2" y1="409.43" x2="312.2" y2="409.43"/><line class="cls-6" x1="319.87" y1="401.76" x2="319.87" y2="401.76"/><line class="cls-6" x1="324.48" y1="397.15" x2="324.48" y2="397.15"/><line class="cls-6" x1="313.74" y1="395.62" x2="313.74" y2="395.62"/><line class="cls-6" x1="318.34" y1="391.01" x2="318.34" y2="391.01"/><line class="cls-6" x1="312.2" y1="384.87" x2="312.2" y2="384.87"/><line class="cls-6" x1="319.87" y1="377.2" x2="319.87" y2="377.2"/><line class="cls-6" x1="324.48" y1="372.59" x2="324.48" y2="372.59"/><line class="cls-6" x1="313.74" y1="371.06" x2="313.74" y2="371.06"/><line class="cls-6" x1="318.34" y1="366.45" x2="318.34" y2="366.45"/><line class="cls-6" x1="312.2" y1="360.31" x2="312.2" y2="360.31"/><line class="cls-6" x1="319.87" y1="352.64" x2="319.87" y2="352.64"/><line class="cls-6" x1="324.48" y1="348.04" x2="324.48" y2="348.04"/><line class="cls-6" x1="313.74" y1="346.5" x2="313.74" y2="346.5"/></g><polyline class="cls-8" points="325.94 532.75 325.94 344.63 311.47 344.63 311.47 532.75 325.94 532.75"/><polyline class="cls-8" points="325.94 308.45 311.47 308.45 311.47 134.8 325.94 134.8 325.94 308.45"/><g class="cls-28"><line class="cls-6" x1="317.48" y1="296.37" x2="321.82" y2="296.37"/><line class="cls-6" x1="317.48" y1="251.25" x2="321.82" y2="251.25"/><line class="cls-6" x1="317.48" y1="206.14" x2="321.82" y2="206.14"/><line class="cls-6" x1="317.48" y1="161.02" x2="321.82" y2="161.02"/><line class="cls-6" x1="317.48" y1="296.37" x2="319.65" y2="292.61"/><line class="cls-6" x1="317.48" y1="206.14" x2="319.65" y2="202.38"/><line class="cls-6" x1="317.48" y1="251.25" x2="319.65" y2="247.49"/><line class="cls-6" x1="317.48" y1="161.02" x2="319.65" y2="157.26"/><line class="cls-6" x1="321.82" y1="206.14" x2="319.65" y2="202.38"/><line class="cls-6" x1="321.82" y1="296.37" x2="319.65" y2="292.61"/><line class="cls-6" x1="321.82" y1="161.02" x2="319.65" y2="157.26"/><line class="cls-6" x1="321.82" y1="251.25" x2="319.65" y2="247.49"/><line class="cls-6" x1="321.82" y1="304.38" x2="321.82" y2="304.38"/><line class="cls-6" x1="321.82" y1="295.7" x2="321.82" y2="295.7"/><line class="cls-6" x1="321.82" y1="287.01" x2="321.82" y2="287.01"/><line class="cls-6" x1="321.82" y1="278.33" x2="321.82" y2="278.33"/><line class="cls-6" x1="321.82" y1="269.65" x2="321.82" y2="269.65"/><line class="cls-6" x1="321.82" y1="260.97" x2="321.82" y2="260.97"/><line class="cls-6" x1="321.82" y1="252.28" x2="321.82" y2="252.28"/><line class="cls-6" x1="321.82" y1="243.6" x2="321.82" y2="243.6"/><line class="cls-6" x1="321.82" y1="234.92" x2="321.82" y2="234.92"/><line class="cls-6" x1="321.82" y1="226.24" x2="321.82" y2="226.24"/><line class="cls-6" x1="321.82" y1="217.55" x2="321.82" y2="217.55"/><line class="cls-6" x1="321.82" y1="208.87" x2="321.82" y2="208.87"/><line class="cls-6" x1="321.82" y1="200.19" x2="321.82" y2="200.19"/><line class="cls-6" x1="321.82" y1="191.51" x2="321.82" y2="191.51"/><line class="cls-6" x1="321.82" y1="182.82" x2="321.82" y2="182.82"/><line class="cls-6" x1="321.82" y1="174.14" x2="321.82" y2="174.14"/><line class="cls-6" x1="321.82" y1="165.46" x2="321.82" y2="165.46"/><line class="cls-6" x1="321.82" y1="156.78" x2="321.82" y2="156.78"/><line class="cls-6" x1="321.82" y1="148.09" x2="321.82" y2="148.09"/><line class="cls-6" x1="321.82" y1="139.41" x2="321.82" y2="139.41"/><line class="cls-6" x1="319.87" y1="303.52" x2="319.87" y2="303.52"/><line class="cls-6" x1="324.48" y1="298.92" x2="324.48" y2="298.92"/><line class="cls-6" x1="313.74" y1="297.38" x2="313.74" y2="297.38"/><line class="cls-6" x1="318.34" y1="292.78" x2="318.34" y2="292.78"/><line class="cls-6" x1="312.2" y1="286.64" x2="312.2" y2="286.64"/><line class="cls-6" x1="319.87" y1="278.97" x2="319.87" y2="278.97"/><line class="cls-6" x1="324.48" y1="274.36" x2="324.48" y2="274.36"/><line class="cls-6" x1="313.74" y1="272.83" x2="313.74" y2="272.83"/><line class="cls-6" x1="318.34" y1="268.22" x2="318.34" y2="268.22"/><line class="cls-6" x1="312.2" y1="262.08" x2="312.2" y2="262.08"/><line class="cls-6" x1="319.87" y1="254.41" x2="319.87" y2="254.41"/><line class="cls-6" x1="324.48" y1="249.8" x2="324.48" y2="249.8"/><line class="cls-6" x1="313.74" y1="248.27" x2="313.74" y2="248.27"/><line class="cls-6" x1="318.34" y1="243.66" x2="318.34" y2="243.66"/><line class="cls-6" x1="312.2" y1="237.53" x2="312.2" y2="237.53"/><line class="cls-6" x1="319.87" y1="229.85" x2="319.87" y2="229.85"/><line class="cls-6" x1="324.48" y1="225.25" x2="324.48" y2="225.25"/><line class="cls-6" x1="313.74" y1="223.71" x2="313.74" y2="223.71"/><line class="cls-6" x1="318.34" y1="219.11" x2="318.34" y2="219.11"/><line class="cls-6" x1="312.2" y1="212.97" x2="312.2" y2="212.97"/><line class="cls-6" x1="319.87" y1="205.29" x2="319.87" y2="205.29"/><line class="cls-6" x1="324.48" y1="200.69" x2="324.48" y2="200.69"/><line class="cls-6" x1="313.74" y1="199.15" x2="313.74" y2="199.15"/><line class="cls-6" x1="318.34" y1="194.55" x2="318.34" y2="194.55"/><line class="cls-6" x1="312.2" y1="188.41" x2="312.2" y2="188.41"/><line class="cls-6" x1="319.87" y1="180.74" x2="319.87" y2="180.74"/><line class="cls-6" x1="324.48" y1="176.13" x2="324.48" y2="176.13"/><line class="cls-6" x1="313.74" y1="174.6" x2="313.74" y2="174.6"/><line class="cls-6" x1="318.34" y1="169.99" x2="318.34" y2="169.99"/><line class="cls-6" x1="312.2" y1="163.85" x2="312.2" y2="163.85"/><line class="cls-6" x1="319.87" y1="156.18" x2="319.87" y2="156.18"/><line class="cls-6" x1="324.48" y1="151.57" x2="324.48" y2="151.57"/><line class="cls-6" x1="313.74" y1="150.04" x2="313.74" y2="150.04"/><line class="cls-6" x1="318.34" y1="145.43" x2="318.34" y2="145.43"/><line class="cls-6" x1="312.2" y1="139.29" x2="312.2" y2="139.29"/></g><polyline class="cls-8" points="325.94 308.45 325.94 134.8 311.47 134.8 311.47 308.45 325.94 308.45"/><line class="cls-6" x1="325.94" y1="749.81" x2="325.94" y2="588.48"/><line class="cls-6" x1="325.94" y1="582.69" x2="325.94" y2="113.09"/><line class="cls-6" x1="311.47" y1="113.09" x2="311.47" y2="749.81"/><line class="cls-6" x1="311.47" y1="764.28" x2="325.94" y2="764.28"/><polyline class="cls-8" points="0.35 134.8 14.82 134.8 14.82 308.45 0.35 308.45 0.35 134.8"/><g class="cls-29"><line class="cls-6" x1="4.91" y1="296.37" x2="9.25" y2="296.37"/><line class="cls-6" x1="4.91" y1="251.25" x2="9.25" y2="251.25"/><line class="cls-6" x1="4.91" y1="206.14" x2="9.25" y2="206.14"/><line class="cls-6" x1="4.91" y1="161.02" x2="9.25" y2="161.02"/><line class="cls-6" x1="4.91" y1="296.37" x2="7.08" y2="292.61"/><line class="cls-6" x1="4.91" y1="206.14" x2="7.08" y2="202.38"/><line class="cls-6" x1="4.91" y1="251.25" x2="7.08" y2="247.49"/><line class="cls-6" x1="4.91" y1="161.02" x2="7.08" y2="157.26"/><line class="cls-6" x1="9.25" y1="206.14" x2="7.08" y2="202.38"/><line class="cls-6" x1="9.25" y1="296.37" x2="7.08" y2="292.61"/><line class="cls-6" x1="9.25" y1="161.02" x2="7.08" y2="157.26"/><line class="cls-6" x1="9.25" y1="251.25" x2="7.08" y2="247.49"/><line class="cls-6" x1="4.91" y1="304.38" x2="4.91" y2="304.38"/><line class="cls-6" x1="4.91" y1="295.7" x2="4.91" y2="295.7"/><line class="cls-6" x1="4.91" y1="287.01" x2="4.91" y2="287.01"/><line class="cls-6" x1="4.91" y1="278.33" x2="4.91" y2="278.33"/><line class="cls-6" x1="4.91" y1="269.65" x2="4.91" y2="269.65"/><line class="cls-6" x1="4.91" y1="260.97" x2="4.91" y2="260.97"/><line class="cls-6" x1="4.91" y1="252.28" x2="4.91" y2="252.28"/><line class="cls-6" x1="4.91" y1="243.6" x2="4.91" y2="243.6"/><line class="cls-6" x1="4.91" y1="234.92" x2="4.91" y2="234.92"/><line class="cls-6" x1="4.91" y1="226.24" x2="4.91" y2="226.24"/><line class="cls-6" x1="4.91" y1="217.55" x2="4.91" y2="217.55"/><line class="cls-6" x1="4.91" y1="208.87" x2="4.91" y2="208.87"/><line class="cls-6" x1="4.91" y1="200.19" x2="4.91" y2="200.19"/><line class="cls-6" x1="4.91" y1="191.51" x2="4.91" y2="191.51"/><line class="cls-6" x1="4.91" y1="182.82" x2="4.91" y2="182.82"/><line class="cls-6" x1="4.91" y1="174.14" x2="4.91" y2="174.14"/><line class="cls-6" x1="4.91" y1="165.46" x2="4.91" y2="165.46"/><line class="cls-6" x1="4.91" y1="156.78" x2="4.91" y2="156.78"/><line class="cls-6" x1="4.91" y1="148.09" x2="4.91" y2="148.09"/><line class="cls-6" x1="4.91" y1="139.41" x2="4.91" y2="139.41"/><line class="cls-6" x1="11.37" y1="305.06" x2="11.37" y2="305.06"/><line class="cls-6" x1="0.63" y1="303.52" x2="0.63" y2="303.52"/><line class="cls-6" x1="5.23" y1="298.92" x2="5.23" y2="298.92"/><line class="cls-6" x1="12.9" y1="291.25" x2="12.9" y2="291.25"/><line class="cls-6" x1="6.76" y1="285.11" x2="6.76" y2="285.11"/><line class="cls-6" x1="11.37" y1="280.5" x2="11.37" y2="280.5"/><line class="cls-6" x1="0.63" y1="278.97" x2="0.63" y2="278.97"/><line class="cls-6" x1="5.23" y1="274.36" x2="5.23" y2="274.36"/><line class="cls-6" x1="12.9" y1="266.69" x2="12.9" y2="266.69"/><line class="cls-6" x1="6.76" y1="260.55" x2="6.76" y2="260.55"/><line class="cls-6" x1="11.37" y1="255.94" x2="11.37" y2="255.94"/><line class="cls-6" x1="0.63" y1="254.41" x2="0.63" y2="254.41"/><line class="cls-6" x1="5.23" y1="249.8" x2="5.23" y2="249.8"/><line class="cls-6" x1="12.9" y1="242.13" x2="12.9" y2="242.13"/><line class="cls-6" x1="6.76" y1="235.99" x2="6.76" y2="235.99"/><line class="cls-6" x1="11.37" y1="231.39" x2="11.37" y2="231.39"/><line class="cls-6" x1="0.63" y1="229.85" x2="0.63" y2="229.85"/><line class="cls-6" x1="5.23" y1="225.25" x2="5.23" y2="225.25"/><line class="cls-6" x1="12.9" y1="217.57" x2="12.9" y2="217.57"/><line class="cls-6" x1="6.76" y1="211.43" x2="6.76" y2="211.43"/><line class="cls-6" x1="11.37" y1="206.83" x2="11.37" y2="206.83"/><line class="cls-6" x1="0.63" y1="205.29" x2="0.63" y2="205.29"/><line class="cls-6" x1="5.23" y1="200.69" x2="5.23" y2="200.69"/><line class="cls-6" x1="12.9" y1="193.01" x2="12.9" y2="193.01"/><line class="cls-6" x1="6.76" y1="186.87" x2="6.76" y2="186.87"/><line class="cls-6" x1="11.37" y1="182.27" x2="11.37" y2="182.27"/><line class="cls-6" x1="0.63" y1="180.74" x2="0.63" y2="180.74"/><line class="cls-6" x1="5.23" y1="176.13" x2="5.23" y2="176.13"/><line class="cls-6" x1="12.9" y1="168.46" x2="12.9" y2="168.46"/><line class="cls-6" x1="6.76" y1="162.32" x2="6.76" y2="162.32"/><line class="cls-6" x1="11.37" y1="157.71" x2="11.37" y2="157.71"/><line class="cls-6" x1="0.63" y1="156.18" x2="0.63" y2="156.18"/><line class="cls-6" x1="5.23" y1="151.57" x2="5.23" y2="151.57"/><line class="cls-6" x1="12.9" y1="143.9" x2="12.9" y2="143.9"/><line class="cls-6" x1="6.76" y1="137.76" x2="6.76" y2="137.76"/></g><polyline class="cls-8" points="0.35 134.8 0.35 308.45 14.82 308.45 14.82 134.8 0.35 134.8"/><polyline class="cls-8" points="0.35 344.63 14.82 344.63 14.82 532.75 0.35 532.75 0.35 344.63"/><g class="cls-30"><line class="cls-6" x1="4.91" y1="521.95" x2="9.25" y2="521.95"/><line class="cls-6" x1="4.91" y1="476.83" x2="9.25" y2="476.83"/><line class="cls-6" x1="4.91" y1="431.72" x2="9.25" y2="431.72"/><line class="cls-6" x1="4.91" y1="386.6" x2="9.25" y2="386.6"/><line class="cls-6" x1="4.91" y1="476.83" x2="7.08" y2="473.07"/><line class="cls-6" x1="4.91" y1="386.6" x2="7.08" y2="382.84"/><line class="cls-6" x1="4.91" y1="521.95" x2="7.08" y2="518.19"/><line class="cls-6" x1="4.91" y1="431.72" x2="7.08" y2="427.95"/><line class="cls-6" x1="9.25" y1="386.6" x2="7.08" y2="382.84"/><line class="cls-6" x1="9.25" y1="476.83" x2="7.08" y2="473.07"/><line class="cls-6" x1="9.25" y1="431.72" x2="7.08" y2="427.95"/><line class="cls-6" x1="9.25" y1="521.95" x2="7.08" y2="518.19"/><line class="cls-6" x1="4.91" y1="530.13" x2="4.91" y2="530.13"/><line class="cls-6" x1="4.91" y1="521.44" x2="4.91" y2="521.44"/><line class="cls-6" x1="4.91" y1="512.76" x2="4.91" y2="512.76"/><line class="cls-6" x1="4.91" y1="504.08" x2="4.91" y2="504.08"/><line class="cls-6" x1="4.91" y1="495.4" x2="4.91" y2="495.4"/><line class="cls-6" x1="4.91" y1="486.71" x2="4.91" y2="486.71"/><line class="cls-6" x1="4.91" y1="478.03" x2="4.91" y2="478.03"/><line class="cls-6" x1="4.91" y1="469.35" x2="4.91" y2="469.35"/><line class="cls-6" x1="4.91" y1="460.67" x2="4.91" y2="460.67"/><line class="cls-6" x1="4.91" y1="451.98" x2="4.91" y2="451.98"/><line class="cls-6" x1="4.91" y1="443.3" x2="4.91" y2="443.3"/><line class="cls-6" x1="4.91" y1="434.62" x2="4.91" y2="434.62"/><line class="cls-6" x1="4.91" y1="425.94" x2="4.91" y2="425.94"/><line class="cls-6" x1="4.91" y1="417.25" x2="4.91" y2="417.25"/><line class="cls-6" x1="4.91" y1="408.57" x2="4.91" y2="408.57"/><line class="cls-6" x1="4.91" y1="399.89" x2="4.91" y2="399.89"/><line class="cls-6" x1="4.91" y1="391.21" x2="4.91" y2="391.21"/><line class="cls-6" x1="4.91" y1="382.52" x2="4.91" y2="382.52"/><line class="cls-6" x1="4.91" y1="373.84" x2="4.91" y2="373.84"/><line class="cls-6" x1="4.91" y1="365.16" x2="4.91" y2="365.16"/><line class="cls-6" x1="4.91" y1="356.47" x2="4.91" y2="356.47"/><line class="cls-6" x1="4.91" y1="347.79" x2="4.91" y2="347.79"/><line class="cls-6" x1="6.76" y1="530.68" x2="6.76" y2="530.68"/><line class="cls-6" x1="11.37" y1="526.08" x2="11.37" y2="526.08"/><line class="cls-6" x1="0.63" y1="524.55" x2="0.63" y2="524.55"/><line class="cls-6" x1="5.23" y1="519.94" x2="5.23" y2="519.94"/><line class="cls-6" x1="12.9" y1="512.27" x2="12.9" y2="512.27"/><line class="cls-6" x1="6.76" y1="506.13" x2="6.76" y2="506.13"/><line class="cls-6" x1="11.37" y1="501.52" x2="11.37" y2="501.52"/><line class="cls-6" x1="0.63" y1="499.99" x2="0.63" y2="499.99"/><line class="cls-6" x1="5.23" y1="495.38" x2="5.23" y2="495.38"/><line class="cls-6" x1="12.9" y1="487.71" x2="12.9" y2="487.71"/><line class="cls-6" x1="6.76" y1="481.57" x2="6.76" y2="481.57"/><line class="cls-6" x1="11.37" y1="476.96" x2="11.37" y2="476.96"/><line class="cls-6" x1="0.63" y1="475.43" x2="0.63" y2="475.43"/><line class="cls-6" x1="5.23" y1="470.82" x2="5.23" y2="470.82"/><line class="cls-6" x1="12.9" y1="463.15" x2="12.9" y2="463.15"/><line class="cls-6" x1="6.76" y1="457.01" x2="6.76" y2="457.01"/><line class="cls-6" x1="11.37" y1="452.41" x2="11.37" y2="452.41"/><line class="cls-6" x1="0.63" y1="450.87" x2="0.63" y2="450.87"/><line class="cls-6" x1="5.23" y1="446.27" x2="5.23" y2="446.27"/><line class="cls-6" x1="12.9" y1="438.59" x2="12.9" y2="438.59"/><line class="cls-6" x1="6.76" y1="432.45" x2="6.76" y2="432.45"/><line class="cls-6" x1="11.37" y1="427.85" x2="11.37" y2="427.85"/><line class="cls-6" x1="0.63" y1="426.31" x2="0.63" y2="426.31"/><line class="cls-6" x1="5.23" y1="421.71" x2="5.23" y2="421.71"/><line class="cls-6" x1="12.9" y1="414.03" x2="12.9" y2="414.03"/><line class="cls-6" x1="6.76" y1="407.9" x2="6.76" y2="407.9"/><line class="cls-6" x1="11.37" y1="403.29" x2="11.37" y2="403.29"/><line class="cls-6" x1="0.63" y1="401.76" x2="0.63" y2="401.76"/><line class="cls-6" x1="5.23" y1="397.15" x2="5.23" y2="397.15"/><line class="cls-6" x1="12.9" y1="389.48" x2="12.9" y2="389.48"/><line class="cls-6" x1="6.76" y1="383.34" x2="6.76" y2="383.34"/><line class="cls-6" x1="11.37" y1="378.73" x2="11.37" y2="378.73"/><line class="cls-6" x1="0.63" y1="377.2" x2="0.63" y2="377.2"/><line class="cls-6" x1="5.23" y1="372.59" x2="5.23" y2="372.59"/><line class="cls-6" x1="12.9" y1="364.92" x2="12.9" y2="364.92"/><line class="cls-6" x1="6.76" y1="358.78" x2="6.76" y2="358.78"/><line class="cls-6" x1="11.37" y1="354.17" x2="11.37" y2="354.17"/><line class="cls-6" x1="0.63" y1="352.64" x2="0.63" y2="352.64"/><line class="cls-6" x1="5.23" y1="348.04" x2="5.23" y2="348.04"/></g><polyline class="cls-8" points="0.35 344.63 0.35 532.75 14.82 532.75 14.82 344.63 0.35 344.63"/><polyline class="cls-8" points="14.82 582.69 0.35 582.69 0.35 568.93 14.82 568.93 14.82 582.69"/><g class="cls-31"><line class="cls-6" x1="4.91" y1="582.22" x2="4.91" y2="582.22"/><line class="cls-6" x1="4.91" y1="573.54" x2="4.91" y2="573.54"/><line class="cls-6" x1="6.76" y1="579.8" x2="6.76" y2="579.8"/><line class="cls-6" x1="11.37" y1="575.19" x2="11.37" y2="575.19"/><line class="cls-6" x1="0.63" y1="573.66" x2="0.63" y2="573.66"/><line class="cls-6" x1="5.23" y1="569.06" x2="5.23" y2="569.06"/></g><polyline class="cls-8" points="14.82 582.69 14.82 568.93 0.35 568.93 0.35 582.69 14.82 582.69"/><g class="cls-32"><line class="cls-6" x1="12.9" y1="585.94" x2="12.9" y2="585.94"/></g><polyline class="cls-8" points="14.82 588.48 14.82 582.69 0.35 582.69 0.35 588.48 14.82 588.48"/><polyline class="cls-8" points="0.35 588.48 14.82 588.48 14.82 728.11 0.35 728.11 0.35 588.48"/><g class="cls-33"><line class="cls-6" x1="4.91" y1="702.41" x2="9.25" y2="702.41"/><line class="cls-6" x1="4.91" y1="657.29" x2="9.25" y2="657.29"/><line class="cls-6" x1="4.91" y1="612.18" x2="9.25" y2="612.18"/><line class="cls-6" x1="4.91" y1="657.29" x2="7.08" y2="653.54"/><line class="cls-6" x1="4.91" y1="702.41" x2="7.08" y2="698.65"/><line class="cls-6" x1="4.91" y1="612.18" x2="7.08" y2="608.42"/><line class="cls-6" x1="9.25" y1="657.29" x2="7.08" y2="653.54"/><line class="cls-6" x1="9.25" y1="612.18" x2="7.08" y2="608.42"/><line class="cls-6" x1="9.25" y1="702.41" x2="7.08" y2="698.65"/><line class="cls-6" x1="4.91" y1="721.14" x2="4.91" y2="721.14"/><line class="cls-6" x1="4.91" y1="712.46" x2="4.91" y2="712.46"/><line class="cls-6" x1="4.91" y1="703.77" x2="4.91" y2="703.77"/><line class="cls-6" x1="4.91" y1="695.09" x2="4.91" y2="695.09"/><line class="cls-6" x1="4.91" y1="686.41" x2="4.91" y2="686.41"/><line class="cls-6" x1="4.91" y1="677.73" x2="4.91" y2="677.73"/><line class="cls-6" x1="4.91" y1="669.04" x2="4.91" y2="669.04"/><line class="cls-6" x1="4.91" y1="660.36" x2="4.91" y2="660.36"/><line class="cls-6" x1="4.91" y1="651.68" x2="4.91" y2="651.68"/><line class="cls-6" x1="4.91" y1="643" x2="4.91" y2="643"/><line class="cls-6" x1="4.91" y1="634.31" x2="4.91" y2="634.31"/><line class="cls-6" x1="4.91" y1="625.63" x2="4.91" y2="625.63"/><line class="cls-6" x1="4.91" y1="616.95" x2="4.91" y2="616.95"/><line class="cls-6" x1="4.91" y1="608.27" x2="4.91" y2="608.27"/><line class="cls-6" x1="4.91" y1="599.58" x2="4.91" y2="599.58"/><line class="cls-6" x1="4.91" y1="590.9" x2="4.91" y2="590.9"/><line class="cls-6" x1="6.76" y1="727.14" x2="6.76" y2="727.14"/><line class="cls-6" x1="11.37" y1="722.54" x2="11.37" y2="722.54"/><line class="cls-6" x1="0.63" y1="721.01" x2="0.63" y2="721.01"/><line class="cls-6" x1="5.23" y1="716.41" x2="5.23" y2="716.41"/><line class="cls-6" x1="12.9" y1="708.73" x2="12.9" y2="708.73"/><line class="cls-6" x1="6.76" y1="702.59" x2="6.76" y2="702.59"/><line class="cls-6" x1="11.37" y1="697.99" x2="11.37" y2="697.99"/><line class="cls-6" x1="0.63" y1="696.45" x2="0.63" y2="696.45"/><line class="cls-6" x1="5.23" y1="691.84" x2="5.23" y2="691.84"/><line class="cls-6" x1="12.9" y1="684.17" x2="12.9" y2="684.17"/><line class="cls-6" x1="6.76" y1="678.03" x2="6.76" y2="678.03"/><line class="cls-6" x1="11.37" y1="673.43" x2="11.37" y2="673.43"/><line class="cls-6" x1="0.63" y1="671.89" x2="0.63" y2="671.89"/><line class="cls-6" x1="5.23" y1="667.29" x2="5.23" y2="667.29"/><line class="cls-6" x1="12.9" y1="659.62" x2="12.9" y2="659.62"/><line class="cls-6" x1="6.76" y1="653.47" x2="6.76" y2="653.47"/><line class="cls-6" x1="11.37" y1="648.87" x2="11.37" y2="648.87"/><line class="cls-6" x1="0.63" y1="647.34" x2="0.63" y2="647.34"/><line class="cls-6" x1="5.23" y1="642.73" x2="5.23" y2="642.73"/><line class="cls-6" x1="12.9" y1="635.06" x2="12.9" y2="635.06"/><line class="cls-6" x1="6.76" y1="628.92" x2="6.76" y2="628.92"/><line class="cls-6" x1="11.37" y1="624.31" x2="11.37" y2="624.31"/><line class="cls-6" x1="0.63" y1="622.78" x2="0.63" y2="622.78"/><line class="cls-6" x1="5.23" y1="618.17" x2="5.23" y2="618.17"/><line class="cls-6" x1="12.9" y1="610.49" x2="12.9" y2="610.49"/><line class="cls-6" x1="6.76" y1="604.36" x2="6.76" y2="604.36"/><line class="cls-6" x1="11.37" y1="599.76" x2="11.37" y2="599.76"/><line class="cls-6" x1="0.63" y1="598.22" x2="0.63" y2="598.22"/><line class="cls-6" x1="5.23" y1="593.61" x2="5.23" y2="593.61"/></g><polyline class="cls-8" points="0.35 588.48 0.35 728.11 14.82 728.11 14.82 588.48 0.35 588.48"/><line class="cls-6" x1="14.82" y1="757.05" x2="14.82" y2="588.48"/><line class="cls-6" x1="14.82" y1="582.69" x2="14.82" y2="113.09"/><line class="cls-6" x1="0.35" y1="113.09" x2="0.35" y2="582.69"/><line class="cls-6" x1="0.35" y1="588.48" x2="0.35" y2="757.05"/><line class="cls-6" x1="239.12" y1="776.22" x2="239.12" y2="776.58"/><line class="cls-6" x1="14.82" y1="760.67" x2="14.82" y2="746.19"/><line class="cls-6" x1="137.82" y1="778.75" x2="137.82" y2="778.39"/><line class="cls-6" x1="0.35" y1="401.06" x2="0.35" y2="395.27"/><g class="cls-34"><line class="cls-6" x1="17.93" y1="399.89" x2="17.93" y2="399.89"/><line class="cls-6" x1="26.61" y1="399.89" x2="26.61" y2="399.89"/><line class="cls-6" x1="39.64" y1="399.89" x2="39.64" y2="399.89"/><line class="cls-6" x1="48.32" y1="399.89" x2="48.32" y2="399.89"/><line class="cls-6" x1="61.34" y1="399.89" x2="61.34" y2="399.89"/><line class="cls-6" x1="70.03" y1="399.89" x2="70.03" y2="399.89"/><line class="cls-6" x1="83.05" y1="399.89" x2="83.05" y2="399.89"/><line class="cls-6" x1="91.73" y1="399.89" x2="91.73" y2="399.89"/><line class="cls-6" x1="104.76" y1="399.89" x2="104.76" y2="399.89"/><line class="cls-6" x1="113.44" y1="399.89" x2="113.44" y2="399.89"/><line class="cls-6" x1="126.46" y1="399.89" x2="126.46" y2="399.89"/><line class="cls-6" x1="135.15" y1="399.89" x2="135.15" y2="399.89"/><line class="cls-6" x1="128.02" y1="397.15" x2="128.02" y2="397.15"/><line class="cls-6" x1="117.28" y1="395.62" x2="117.28" y2="395.62"/><line class="cls-6" x1="103.46" y1="397.15" x2="103.46" y2="397.15"/><line class="cls-6" x1="92.72" y1="395.62" x2="92.72" y2="395.62"/><line class="cls-6" x1="78.91" y1="397.15" x2="78.91" y2="397.15"/><line class="cls-6" x1="68.16" y1="395.62" x2="68.16" y2="395.62"/><line class="cls-6" x1="54.35" y1="397.15" x2="54.35" y2="397.15"/><line class="cls-6" x1="43.6" y1="395.62" x2="43.6" y2="395.62"/><line class="cls-6" x1="29.78" y1="397.15" x2="29.78" y2="397.15"/><line class="cls-6" x1="19.04" y1="395.62" x2="19.04" y2="395.62"/></g><polyline class="cls-8" points="14.82 395.28 14.82 401.06 137.82 401.06 137.82 395.28 14.82 395.28"/><g class="cls-35"><line class="cls-6" x1="213.29" y1="399.89" x2="213.29" y2="399.89"/><line class="cls-6" x1="221.97" y1="399.89" x2="221.97" y2="399.89"/><line class="cls-6" x1="235" y1="399.89" x2="235" y2="399.89"/><line class="cls-6" x1="243.68" y1="399.89" x2="243.68" y2="399.89"/><line class="cls-6" x1="256.7" y1="399.89" x2="256.7" y2="399.89"/><line class="cls-6" x1="265.38" y1="399.89" x2="265.38" y2="399.89"/><line class="cls-6" x1="278.41" y1="399.89" x2="278.41" y2="399.89"/><line class="cls-6" x1="287.09" y1="399.89" x2="287.09" y2="399.89"/><line class="cls-6" x1="300.11" y1="399.89" x2="300.11" y2="399.89"/><line class="cls-6" x1="308.8" y1="399.89" x2="308.8" y2="399.89"/><line class="cls-6" x1="299.93" y1="397.15" x2="299.93" y2="397.15"/><line class="cls-6" x1="289.18" y1="395.62" x2="289.18" y2="395.62"/><line class="cls-6" x1="275.37" y1="397.15" x2="275.37" y2="397.15"/><line class="cls-6" x1="264.62" y1="395.62" x2="264.62" y2="395.62"/><line class="cls-6" x1="250.8" y1="397.15" x2="250.8" y2="397.15"/><line class="cls-6" x1="240.06" y1="395.62" x2="240.06" y2="395.62"/><line class="cls-6" x1="226.25" y1="397.15" x2="226.25" y2="397.15"/><line class="cls-6" x1="215.5" y1="395.62" x2="215.5" y2="395.62"/></g><polyline class="cls-8" points="311.47 395.28 202.94 395.28 202.94 401.06 311.47 401.06 311.47 395.28"/><line class="cls-6" x1="137.82" y1="395.27" x2="137.82" y2="401.06"/><line class="cls-6" x1="202.94" y1="395.27" x2="202.94" y2="401.06"/><line class="cls-6" x1="311.47" y1="395.27" x2="291.06" y2="395.27"/><line class="cls-6" x1="283.17" y1="395.27" x2="262.75" y2="395.27"/><line class="cls-6" x1="254.86" y1="395.27" x2="234.45" y2="395.27"/><line class="cls-6" x1="226.56" y1="395.27" x2="206.13" y2="395.27"/><line class="cls-6" x1="137.82" y1="395.27" x2="117.4" y2="395.27"/><line class="cls-6" x1="109.52" y1="395.27" x2="89.1" y2="395.27"/><line class="cls-6" x1="81.21" y1="395.27" x2="60.8" y2="395.27"/><line class="cls-6" x1="52.91" y1="395.27" x2="32.48" y2="395.27"/><line class="cls-6" x1="24.6" y1="395.27" x2="14.82" y2="395.27"/><line class="cls-6" x1="14.82" y1="395.27" x2="14.82" y2="401.06"/><line class="cls-6" x1="14.82" y1="401.06" x2="35.25" y2="401.06"/><line class="cls-6" x1="43.13" y1="401.06" x2="63.55" y2="401.06"/><line class="cls-6" x1="71.44" y1="401.06" x2="91.86" y2="401.06"/><line class="cls-6" x1="99.74" y1="401.06" x2="120.16" y2="401.06"/><line class="cls-6" x1="128.05" y1="401.06" x2="137.82" y2="401.06"/><line class="cls-6" x1="202.94" y1="401.06" x2="223.37" y2="401.06"/><line class="cls-6" x1="231.25" y1="401.06" x2="251.67" y2="401.06"/><line class="cls-6" x1="259.56" y1="401.06" x2="279.98" y2="401.06"/><line class="cls-6" x1="287.86" y1="401.06" x2="308.28" y2="401.06"/><line class="cls-6" x1="311.47" y1="401.06" x2="311.47" y2="395.27"/><path class="cls-6" d="M200.05,431.94a59.32,59.32,0,0,1-29.67,51.38" transform="translate(0 -28.34)"/><line class="cls-6" x1="202.94" y1="395.27" x2="200.05" y2="395.27"/><line class="cls-6" x1="200.05" y1="395.27" x2="200.05" y2="403.59"/><line class="cls-6" x1="200.05" y1="403.59" x2="202.94" y2="403.59"/><line class="cls-6" x1="202.94" y1="403.59" x2="202.94" y2="395.27"/><line class="cls-6" x1="137.82" y1="403.59" x2="140.72" y2="403.59"/><line class="cls-6" x1="140.72" y1="403.59" x2="140.72" y2="395.27"/><line class="cls-6" x1="140.72" y1="395.27" x2="137.82" y2="395.27"/><line class="cls-6" x1="137.82" y1="395.27" x2="137.82" y2="403.59"/><line class="cls-6" x1="140.72" y1="403.59" x2="170.38" y2="454.97"/><line class="cls-6" x1="202.94" y1="395.27" x2="202.94" y2="401.06"/><line class="cls-6" x1="137.82" y1="395.27" x2="137.82" y2="401.06"/><g class="cls-36"><line class="cls-6" x1="135.15" y1="612.18" x2="137.82" y2="612.18"/><line class="cls-6" x1="135.15" y1="612.18" x2="137.32" y2="608.42"/><line class="cls-6" x1="137.82" y1="609.3" x2="137.32" y2="608.42"/><line class="cls-6" x1="135.15" y1="643" x2="135.15" y2="643"/><line class="cls-6" x1="135.15" y1="634.31" x2="135.15" y2="634.31"/><line class="cls-6" x1="135.15" y1="625.63" x2="135.15" y2="625.63"/><line class="cls-6" x1="135.15" y1="616.95" x2="135.15" y2="616.95"/><line class="cls-6" x1="135.15" y1="608.27" x2="135.15" y2="608.27"/><line class="cls-6" x1="135.15" y1="599.58" x2="135.15" y2="599.58"/><line class="cls-6" x1="135.15" y1="590.9" x2="135.15" y2="590.9"/><line class="cls-6" x1="135.7" y1="635.06" x2="135.7" y2="635.06"/><line class="cls-6" x1="134.16" y1="624.31" x2="134.16" y2="624.31"/><line class="cls-6" x1="135.7" y1="610.49" x2="135.7" y2="610.49"/><line class="cls-6" x1="134.16" y1="599.76" x2="134.16" y2="599.76"/><line class="cls-6" x1="135.7" y1="585.94" x2="135.7" y2="585.94"/></g><polyline class="cls-8" points="132.03 588.48 132.03 643.61 137.82 643.61 137.82 582.69 132.03 588.48"/><g class="cls-37"><line class="cls-6" x1="135.15" y1="747.53" x2="137.82" y2="747.53"/><line class="cls-6" x1="135.15" y1="702.41" x2="137.82" y2="702.41"/><line class="cls-6" x1="135.15" y1="702.41" x2="137.32" y2="698.65"/><line class="cls-6" x1="135.15" y1="747.53" x2="137.32" y2="743.76"/><line class="cls-6" x1="137.82" y1="699.53" x2="137.32" y2="698.65"/><line class="cls-6" x1="137.82" y1="744.65" x2="137.32" y2="743.76"/><line class="cls-6" x1="135.15" y1="747.19" x2="135.15" y2="747.19"/><line class="cls-6" x1="135.15" y1="738.5" x2="135.15" y2="738.5"/><line class="cls-6" x1="135.15" y1="729.82" x2="135.15" y2="729.82"/><line class="cls-6" x1="135.15" y1="721.14" x2="135.15" y2="721.14"/><line class="cls-6" x1="135.15" y1="712.46" x2="135.15" y2="712.46"/><line class="cls-6" x1="135.15" y1="703.77" x2="135.15" y2="703.77"/><line class="cls-6" x1="135.15" y1="695.09" x2="135.15" y2="695.09"/><line class="cls-6" x1="134.16" y1="747.1" x2="134.16" y2="747.1"/><line class="cls-6" x1="135.7" y1="733.29" x2="135.7" y2="733.29"/><line class="cls-6" x1="134.16" y1="722.54" x2="134.16" y2="722.54"/><line class="cls-6" x1="135.7" y1="708.73" x2="135.7" y2="708.73"/><line class="cls-6" x1="134.16" y1="697.99" x2="134.16" y2="697.99"/></g><polyline class="cls-8" points="132.03 749.81 137.82 749.81 137.82 694.26 132.03 694.26 132.03 749.81"/><line class="cls-6" x1="132.04" y1="694.26" x2="137.82" y2="694.26"/><line class="cls-6" x1="132.04" y1="643.61" x2="137.82" y2="643.61"/><line class="cls-6" x1="132.04" y1="588.48" x2="132.04" y2="643.61"/><line class="cls-6" x1="132.04" y1="694.26" x2="132.04" y2="749.81"/><line class="cls-6" x1="137.82" y1="749.81" x2="137.82" y2="694.26"/><line class="cls-6" x1="137.82" y1="643.61" x2="137.82" y2="582.69"/><path class="cls-6" d="M137.82,674.85a44.88,44.88,0,0,1,38.86,22.43" transform="translate(0 -28.34)"/><line class="cls-6" x1="132.04" y1="643.61" x2="132.04" y2="646.51"/><line class="cls-6" x1="132.04" y1="646.51" x2="137.82" y2="646.51"/><line class="cls-6" x1="137.82" y1="646.51" x2="137.82" y2="643.61"/><line class="cls-6" x1="137.82" y1="643.61" x2="132.03" y2="643.61"/><line class="cls-6" x1="137.82" y1="694.26" x2="137.82" y2="691.36"/><line class="cls-6" x1="137.82" y1="691.36" x2="132.03" y2="691.36"/><line class="cls-6" x1="132.04" y1="691.36" x2="132.04" y2="694.26"/><line class="cls-6" x1="132.04" y1="694.26" x2="137.82" y2="694.26"/><line class="cls-6" x1="137.82" y1="691.36" x2="176.68" y2="668.94"/><line class="cls-6" x1="132.04" y1="643.61" x2="137.82" y2="643.61"/><line class="cls-6" x1="132.04" y1="694.26" x2="137.82" y2="694.26"/><line class="cls-6" x1="325.94" y1="395.27" x2="325.94" y2="401.06"/><polyline class="cls-8" points="87.75 582.69 87.75 588.48 35.08 588.48 40.87 582.69 87.75 582.69"/><g class="cls-38"><line class="cls-6" x1="44.65" y1="588.48" x2="46.15" y2="585.87"/><line class="cls-6" x1="70.69" y1="588.48" x2="72.2" y2="585.87"/><line class="cls-6" x1="73.71" y1="588.48" x2="72.2" y2="585.87"/><line class="cls-6" x1="47.66" y1="588.48" x2="46.15" y2="585.87"/><line class="cls-6" x1="86.57" y1="585.94" x2="86.57" y2="585.94"/><line class="cls-6" x1="72.76" y1="587.47" x2="72.76" y2="587.47"/><line class="cls-6" x1="62.02" y1="585.94" x2="62.02" y2="585.94"/><line class="cls-6" x1="48.21" y1="587.47" x2="48.21" y2="587.47"/></g><polyline class="cls-8" points="87.75 582.69 40.87 582.69 35.08 588.48 87.75 588.48 87.75 582.69"/><line class="cls-6" x1="87.75" y1="582.69" x2="40.87" y2="582.69"/><line class="cls-6" x1="35.08" y1="588.48" x2="87.75" y2="588.48"/><polyline class="cls-8" points="40.87 582.69 35.08 588.48 35.08 551.61 40.87 557.39 40.87 582.69"/><g class="cls-39"><line class="cls-6" x1="35.08" y1="567.07" x2="35.3" y2="567.07"/><line class="cls-6" x1="35.3" y1="567.07" x2="35.08" y2="566.69"/><line class="cls-6" x1="39.64" y1="582.22" x2="39.64" y2="582.22"/><line class="cls-6" x1="39.64" y1="573.54" x2="39.64" y2="573.54"/><line class="cls-6" x1="39.64" y1="564.85" x2="39.64" y2="564.85"/><line class="cls-6" x1="39.64" y1="556.17" x2="39.64" y2="556.17"/><line class="cls-6" x1="37.46" y1="585.94" x2="37.46" y2="585.94"/><line class="cls-6" x1="35.93" y1="575.19" x2="35.93" y2="575.19"/><line class="cls-6" x1="37.46" y1="561.38" x2="37.46" y2="561.38"/></g><polyline class="cls-8" points="40.87 582.69 40.87 557.39 35.08 551.61 35.08 588.48 40.87 582.69"/><line class="cls-6" x1="40.87" y1="582.69" x2="40.87" y2="557.39"/><line class="cls-6" x1="35.08" y1="551.61" x2="35.08" y2="588.48"/><polyline class="cls-8" points="93.54 551.61 87.75 557.39 40.87 557.39 35.08 551.61 93.54 551.61"/><g class="cls-40"><line class="cls-6" x1="48.32" y1="556.17" x2="48.32" y2="556.17"/><line class="cls-6" x1="61.34" y1="556.17" x2="61.34" y2="556.17"/><line class="cls-6" x1="70.03" y1="556.17" x2="70.03" y2="556.17"/><line class="cls-6" x1="83.05" y1="556.17" x2="83.05" y2="556.17"/><line class="cls-6" x1="80.44" y1="555.24" x2="80.44" y2="555.24"/><line class="cls-6" x1="66.63" y1="556.78" x2="66.63" y2="556.78"/><line class="cls-6" x1="55.88" y1="555.24" x2="55.88" y2="555.24"/><line class="cls-6" x1="42.06" y1="556.78" x2="42.06" y2="556.78"/></g><polyline class="cls-8" points="93.54 551.61 35.08 551.61 40.87 557.39 87.75 557.39 93.54 551.61"/><line class="cls-6" x1="93.54" y1="551.61" x2="35.08" y2="551.61"/><line class="cls-6" x1="40.87" y1="557.39" x2="87.75" y2="557.39"/><line class="cls-6" x1="14.82" y1="557.39" x2="35.08" y2="557.39"/><line class="cls-6" x1="35.08" y1="557.39" x2="35.08" y2="551.61"/><line class="cls-6" x1="35.08" y1="551.61" x2="14.82" y2="551.61"/><g class="cls-41"><line class="cls-6" x1="18.6" y1="588.48" x2="20.1" y2="585.87"/><line class="cls-6" x1="21.62" y1="588.48" x2="20.1" y2="585.87"/><line class="cls-6" x1="23.65" y1="587.47" x2="23.65" y2="587.47"/></g><polyline class="cls-8" points="14.82 588.48 35.08 588.48 35.08 582.69 14.82 582.69 14.82 588.48"/><line class="cls-6" x1="14.82" y1="588.48" x2="35.08" y2="588.48"/><line class="cls-6" x1="35.08" y1="582.69" x2="35.08" y2="588.48"/><line class="cls-6" x1="35.08" y1="582.69" x2="14.82" y2="582.69"/><polyline class="cls-8" points="93.54 582.69 87.75 582.69 87.75 557.39 93.54 551.61 93.54 582.69"/><g class="cls-42"><line class="cls-6" x1="91.73" y1="582.22" x2="91.73" y2="582.22"/><line class="cls-6" x1="91.73" y1="573.54" x2="91.73" y2="573.54"/><line class="cls-6" x1="91.73" y1="564.85" x2="91.73" y2="564.85"/><line class="cls-6" x1="91.73" y1="556.17" x2="91.73" y2="556.17"/><line class="cls-6" x1="91.18" y1="581.34" x2="91.18" y2="581.34"/><line class="cls-6" x1="92.72" y1="567.52" x2="92.72" y2="567.52"/><line class="cls-6" x1="91.18" y1="556.78" x2="91.18" y2="556.78"/></g><polyline class="cls-8" points="93.54 582.69 93.54 551.61 87.75 557.39 87.75 582.69 93.54 582.69"/><line class="cls-6" x1="93.54" y1="582.69" x2="93.54" y2="551.61"/><line class="cls-6" x1="87.75" y1="557.39" x2="87.75" y2="582.69"/><g class="cls-43"><line class="cls-6" x1="96.74" y1="588.48" x2="98.25" y2="585.87"/><line class="cls-6" x1="122.79" y1="588.48" x2="124.29" y2="585.87"/><line class="cls-6" x1="125.81" y1="588.48" x2="124.29" y2="585.87"/><line class="cls-6" x1="99.76" y1="588.48" x2="98.25" y2="585.87"/><line class="cls-6" x1="121.88" y1="587.47" x2="121.88" y2="587.47"/><line class="cls-6" x1="111.13" y1="585.94" x2="111.13" y2="585.94"/><line class="cls-6" x1="97.32" y1="587.47" x2="97.32" y2="587.47"/></g><polyline class="cls-8" points="87.75 588.48 132.03 588.48 137.82 582.69 87.75 582.69 87.75 588.48"/><line class="cls-6" x1="87.75" y1="588.48" x2="132.04" y2="588.48"/><line class="cls-6" x1="137.82" y1="582.69" x2="93.54" y2="582.69"/><line class="cls-6" x1="4.91" y1="764.55" x2="4.91" y2="764.55"/><line class="cls-6" x1="154.97" y1="582.69" x2="154.97" y2="588.48"/><line class="cls-6" x1="220.09" y1="582.69" x2="220.09" y2="588.48"/><line class="cls-6" x1="137.82" y1="588.48" x2="154.97" y2="588.48"/><line class="cls-6" x1="220.09" y1="588.48" x2="240.51" y2="588.48"/><line class="cls-6" x1="248.4" y1="588.48" x2="268.81" y2="588.48"/><line class="cls-6" x1="276.7" y1="588.48" x2="297.12" y2="588.48"/><line class="cls-6" x1="224.85" y1="588.48" x2="311.47" y2="588.48"/><line class="cls-6" x1="311.47" y1="588.48" x2="311.47" y2="582.69"/><line class="cls-6" x1="311.47" y1="582.69" x2="291.06" y2="582.69"/><line class="cls-6" x1="283.17" y1="582.69" x2="262.75" y2="582.69"/><line class="cls-6" x1="254.86" y1="582.69" x2="234.45" y2="582.69"/><line class="cls-6" x1="304.26" y1="582.69" x2="220.09" y2="582.69"/><line class="cls-6" x1="154.97" y1="582.69" x2="137.82" y2="582.69"/><line class="cls-6" x1="137.82" y1="582.69" x2="137.82" y2="588.48"/><path class="cls-6" d="M217.2,619.35a59.34,59.34,0,0,1-29.67,51.39" transform="translate(0 -28.34)"/><line class="cls-6" x1="220.09" y1="582.69" x2="217.2" y2="582.69"/><line class="cls-6" x1="217.2" y1="582.69" x2="217.2" y2="591.01"/><line class="cls-6" x1="217.2" y1="591.01" x2="220.09" y2="591.01"/><line class="cls-6" x1="220.09" y1="591.01" x2="220.09" y2="582.69"/><line class="cls-6" x1="154.97" y1="591.01" x2="157.87" y2="591.01"/><line class="cls-6" x1="157.87" y1="591.01" x2="157.87" y2="582.69"/><line class="cls-6" x1="157.87" y1="582.69" x2="154.97" y2="582.69"/><line class="cls-6" x1="154.97" y1="582.69" x2="154.97" y2="591.01"/><line class="cls-6" x1="157.87" y1="591.01" x2="187.53" y2="642.4"/><line class="cls-6" x1="220.09" y1="582.69" x2="220.09" y2="588.48"/><line class="cls-6" x1="154.97" y1="582.69" x2="154.97" y2="588.48"/><line class="cls-6" x1="39.49" y1="764.28" x2="17.78" y2="764.28"/><line class="cls-6" x1="260.83" y1="764.28" x2="239.12" y2="764.28"/><line class="cls-6" x1="239.12" y1="764.28" x2="239.12" y2="775.14"/><line class="cls-6" x1="282.53" y1="764.28" x2="260.83" y2="764.28"/><line class="cls-6" x1="304.24" y1="764.28" x2="282.53" y2="764.28"/><line class="cls-6" x1="325.94" y1="764.28" x2="304.24" y2="764.28"/><line class="cls-6" x1="37.97" y1="764.28" x2="137.82" y2="764.28"/><line class="cls-6" x1="137.82" y1="764.28" x2="137.82" y2="778.75"/><line class="cls-6" x1="137.82" y1="764.28" x2="137.82" y2="778.75"/><line class="cls-6" x1="220.13" y1="106.17" x2="220.85" y2="106.59"/><line class="cls-6" x1="220.49" y1="106.38" x2="220.49" y2="106.38"/><polyline class="cls-8" points="0.35 764.28 0.35 728.11 14.82 728.11 14.82 764.28 0.35 764.28"/><g class="cls-44"><line class="cls-6" x1="12.61" y1="764.28" x2="14.82" y2="762.06"/><line class="cls-6" x1="0.35" y1="749.93" x2="14.82" y2="735.46"/><line class="cls-6" x1="0.35" y1="763.23" x2="4.21" y2="759.37"/><line class="cls-6" x1="7.54" y1="756.05" x2="7.54" y2="756.05"/><line class="cls-6" x1="10.86" y1="752.72" x2="14.82" y2="748.76"/><line class="cls-6" x1="0.35" y1="736.63" x2="7.53" y2="729.44"/></g><polyline class="cls-8" points="0.35 764.28 14.82 764.28 14.82 728.11 0.35 728.11 0.35 764.28"/><line class="cls-6" x1="0.35" y1="728.11" x2="0.35" y2="764.28"/><line class="cls-6" x1="0.35" y1="764.28" x2="14.82" y2="764.28"/><line class="cls-6" x1="14.82" y1="764.28" x2="14.82" y2="728.11"/><line class="cls-6" x1="14.82" y1="728.11" x2="0.35" y2="728.11"/><polyline class="cls-8" points="311.47 764.28 311.47 728.11 325.94 728.11 325.94 764.28 311.47 764.28"/><g class="cls-45"><line class="cls-6" x1="311.47" y1="758.06" x2="325.94" y2="743.59"/><line class="cls-6" x1="311.47" y1="731.46" x2="314.82" y2="728.11"/><line class="cls-6" x1="320.13" y1="762.7" x2="325.94" y2="756.89"/><line class="cls-6" x1="311.47" y1="744.76" x2="316.81" y2="739.42"/><line class="cls-6" x1="320.13" y1="736.09" x2="320.13" y2="736.09"/><line class="cls-6" x1="323.46" y1="732.77" x2="325.94" y2="730.28"/></g><polyline class="cls-8" points="311.47 764.28 325.94 764.28 325.94 728.11 311.47 728.11 311.47 764.28"/><line class="cls-6" x1="311.47" y1="728.11" x2="311.47" y2="764.28"/><line class="cls-6" x1="311.47" y1="764.28" x2="325.94" y2="764.28"/><line class="cls-6" x1="325.94" y1="764.28" x2="325.94" y2="728.11"/><line class="cls-6" x1="325.94" y1="728.11" x2="311.47" y2="728.11"/><polyline class="cls-8" points="311.47 568.93 311.47 532.75 325.94 532.75 325.94 568.93 311.47 568.93"/><g class="cls-46"><line class="cls-6" x1="314.38" y1="568.93" x2="325.94" y2="557.36"/><line class="cls-6" x1="311.47" y1="545.22" x2="323.95" y2="532.75"/><line class="cls-6" x1="313.49" y1="556.52" x2="323.46" y2="546.54"/></g><polyline class="cls-8" points="311.47 568.93 325.94 568.93 325.94 532.75 311.47 532.75 311.47 568.93"/><line class="cls-6" x1="311.47" y1="532.75" x2="311.47" y2="568.92"/><line class="cls-6" x1="311.47" y1="568.93" x2="325.94" y2="568.93"/><line class="cls-6" x1="325.94" y1="568.93" x2="325.94" y2="532.75"/><line class="cls-6" x1="325.94" y1="532.75" x2="311.47" y2="532.75"/><polyline class="cls-8" points="0.35 568.93 0.35 532.75 14.82 532.75 14.82 568.93 0.35 568.93"/><g class="cls-47"><line class="cls-6" x1="0.35" y1="563.7" x2="14.82" y2="549.23"/><line class="cls-6" x1="0.35" y1="537.1" x2="4.7" y2="532.75"/><line class="cls-6" x1="8.43" y1="568.93" x2="10.86" y2="566.49"/><line class="cls-6" x1="14.18" y1="563.17" x2="14.18" y2="563.17"/><line class="cls-6" x1="0.89" y1="549.86" x2="0.89" y2="549.86"/><line class="cls-6" x1="4.21" y1="546.54" x2="14.18" y2="536.56"/></g><polyline class="cls-8" points="0.35 568.93 14.82 568.93 14.82 532.75 0.35 532.75 0.35 568.93"/><line class="cls-6" x1="0.35" y1="532.75" x2="0.35" y2="568.92"/><line class="cls-6" x1="0.35" y1="568.93" x2="14.82" y2="568.93"/><line class="cls-6" x1="14.82" y1="568.93" x2="14.82" y2="532.75"/><line class="cls-6" x1="14.82" y1="532.75" x2="0.35" y2="532.75"/><polyline class="cls-8" points="0.35 344.63 0.35 308.45 14.82 308.45 14.82 344.63 0.35 344.63"/><g class="cls-48"><line class="cls-6" x1="6.59" y1="344.63" x2="14.82" y2="336.39"/><line class="cls-6" x1="0.35" y1="324.26" x2="14.82" y2="309.79"/><line class="cls-6" x1="0.35" y1="337.56" x2="7.53" y2="330.38"/><line class="cls-6" x1="10.86" y1="327.05" x2="10.86" y2="327.05"/><line class="cls-6" x1="14.18" y1="323.73" x2="14.82" y2="323.09"/><line class="cls-6" x1="0.89" y1="310.43" x2="2.86" y2="308.45"/></g><polyline class="cls-8" points="0.35 344.63 14.82 344.63 14.82 308.45 0.35 308.45 0.35 344.63"/><line class="cls-6" x1="0.35" y1="308.45" x2="0.35" y2="344.63"/><line class="cls-6" x1="0.35" y1="344.63" x2="14.82" y2="344.63"/><line class="cls-6" x1="14.82" y1="344.63" x2="14.82" y2="308.45"/><line class="cls-6" x1="14.82" y1="308.45" x2="0.35" y2="308.45"/><polyline class="cls-8" points="311.47 344.63 311.47 308.45 325.94 308.45 325.94 344.63 311.47 344.63"/><g class="cls-49"><line class="cls-6" x1="325.84" y1="344.63" x2="325.94" y2="344.52"/><line class="cls-6" x1="311.47" y1="332.39" x2="325.94" y2="317.92"/><line class="cls-6" x1="312.54" y1="344.63" x2="316.81" y2="340.36"/><line class="cls-6" x1="320.13" y1="337.03" x2="320.13" y2="337.03"/><line class="cls-6" x1="323.46" y1="333.7" x2="325.94" y2="331.22"/><line class="cls-6" x1="311.47" y1="319.09" x2="320.13" y2="310.43"/></g><polyline class="cls-8" points="311.47 344.63 325.94 344.63 325.94 308.45 311.47 308.45 311.47 344.63"/><line class="cls-6" x1="311.47" y1="308.45" x2="311.47" y2="344.63"/><line class="cls-6" x1="311.47" y1="344.63" x2="325.94" y2="344.63"/><line class="cls-6" x1="325.94" y1="344.63" x2="325.94" y2="308.45"/><line class="cls-6" x1="325.94" y1="308.45" x2="311.47" y2="308.45"/><polyline class="cls-8" points="311.47 134.8 311.47 98.62 325.94 98.62 325.94 134.8 311.47 134.8"/><g class="cls-50"><line class="cls-6" x1="322.83" y1="134.8" x2="325.94" y2="131.69"/><line class="cls-6" x1="311.47" y1="119.55" x2="325.94" y2="105.08"/><line class="cls-6" x1="313.49" y1="130.85" x2="313.49" y2="130.85"/><line class="cls-6" x1="316.81" y1="127.52" x2="325.94" y2="118.39"/><line class="cls-6" x1="311.47" y1="106.25" x2="313.48" y2="104.24"/><line class="cls-6" x1="316.81" y1="100.92" x2="316.81" y2="100.92"/></g><polyline class="cls-8" points="311.47 134.8 325.94 134.8 325.94 98.62 311.47 98.62 311.47 134.8"/><line class="cls-6" x1="311.47" y1="98.62" x2="311.47" y2="134.8"/><line class="cls-6" x1="311.47" y1="134.8" x2="325.94" y2="134.8"/><line class="cls-6" x1="325.94" y1="134.8" x2="325.94" y2="98.62"/><line class="cls-6" x1="325.94" y1="98.62" x2="311.47" y2="98.62"/><polyline class="cls-8" points="0.35 134.8 0.35 98.62 14.82 98.62 14.82 134.8 0.35 134.8"/><g class="cls-51"><line class="cls-6" x1="3.58" y1="134.8" x2="14.82" y2="123.56"/><line class="cls-6" x1="0.35" y1="111.43" x2="13.16" y2="98.62"/><line class="cls-6" x1="0.35" y1="124.73" x2="0.89" y2="124.19"/><line class="cls-6" x1="4.21" y1="120.87" x2="4.21" y2="120.87"/><line class="cls-6" x1="7.54" y1="117.54" x2="14.82" y2="110.26"/></g><polyline class="cls-8" points="0.35 134.8 14.82 134.8 14.82 98.62 0.35 98.62 0.35 134.8"/><line class="cls-6" x1="0.35" y1="98.62" x2="0.35" y2="134.8"/><line class="cls-6" x1="0.35" y1="134.8" x2="14.82" y2="134.8"/><line class="cls-6" x1="14.82" y1="134.8" x2="14.82" y2="98.62"/><line class="cls-6" x1="14.82" y1="98.62" x2="0.35" y2="98.62"/></svg>