<svg id="_210" data-name="210" xmlns="http://www.w3.org/2000/svg" viewBox="0 0 279.19 508.85"><defs><style>.cls-1,.cls-5,.cls-6{fill:none;stroke-linecap:round;stroke-linejoin:round;stroke-width:0.5px;}.cls-1{stroke:#999;}.cls-2{isolation:isolate;font-size:12px;fill:#999;}.cls-2,.cls-3,.cls-4{font-family:PTSans-Regular, PT Sans;}.cls-3{font-size:20px;}.cls-4{font-size:24px;}.cls-5,.cls-6{stroke:#000;}.cls-6{stroke-dasharray:3.01 3.01;}</style></defs><title>6floor_210flat</title><line class="cls-1" x1="124.08" y1="497.51" x2="124.08" y2="506.31"/><polyline class="cls-1" points="120.48 503.01 123.98 506.51 127.48 503.01"/><text class="cls-2" transform="translate(133.3 505.91)">двор</text><text class="cls-3" transform="translate(40.69 398.57)">15.34</text><text class="cls-3" transform="translate(174.81 412.33)">0.82</text><text class="cls-3" transform="translate(186.77 86.85)">3.51</text><text class="cls-3" transform="translate(103.37 68.66)">2.97</text><text class="cls-3" transform="translate(88.54 176.66)">4.12</text><text class="cls-4" transform="translate(130.63 295.03)">СТ</text><text class="cls-4" transform="translate(115.42 328.07)">26.76</text><text class="cls-4" transform="translate(112.25 262.48)">№210</text><polyline class="cls-5" points="103.61 336.43 103.61 239.22 184.68 239.22 184.68 336.43"/><line class="cls-5" x1="103.61" y1="271.69" x2="184.67" y2="271.69"/><line class="cls-5" x1="103.61" y1="336.43" x2="184.67" y2="336.43"/><line class="cls-5" x1="103.61" y1="304.15" x2="184.67" y2="304.15"/><polyline class="cls-5" points="147.51 11.71 49.79 11.71 49.79 109.43 147.51 109.43 147.51 11.71"/><polyline class="cls-5" points="151.89 113.81 20.47 113.81 20.47 166.72 20.47 217.27 151.89 217.27"/><path class="cls-5" d="M151.89,217.27"/><line class="cls-5" x1="63.94" y1="21.14" x2="63.94" y2="24.51"/><line class="cls-5" x1="62.59" y1="25.86" x2="59.22" y2="25.86"/><line class="cls-5" x1="63.94" y1="27.55" x2="63.94" y2="30.58"/><line class="cls-5" x1="68.66" y1="25.86" x2="65.29" y2="25.86"/><line class="cls-5" x1="99.66" y1="16.09" x2="99.66" y2="29.9"/><line class="cls-5" x1="53.83" y1="29.57" x2="53.83" y2="60.91"/><line class="cls-5" x1="67.98" y1="61.58" x2="54.17" y2="61.58"/><line class="cls-5" x1="99.66" y1="16.09" x2="99.66" y2="29.9"/><line class="cls-5" x1="98.99" y1="15.75" x2="67.65" y2="15.75"/><line class="cls-5" x1="102.69" y1="13.39" x2="102.69" y2="29.9"/><line class="cls-5" x1="50.8" y1="13.39" x2="50.8" y2="63.94"/><line class="cls-5" x1="67.98" y1="64.61" x2="51.47" y2="64.61"/><line class="cls-5" x1="102.02" y1="12.72" x2="51.47" y2="12.72"/><path class="cls-5" d="M67.48,15.41a2.8,2.8,0,0,0-.91.15"/><path class="cls-5" d="M99.32,15.92a.5.5,0,0,0-.5-.51"/><path class="cls-5" d="M67.48,15.41a2.8,2.8,0,0,0-.91.15"/><path class="cls-5" d="M67.82,64.28a34.55,34.55,0,0,0,34.54-34.54"/><path class="cls-5" d="M102.36,13.22a.5.5,0,0,0-.51-.5"/><path class="cls-5" d="M67.82,61.24a31.5,31.5,0,0,0,31.5-31.5"/><path class="cls-5" d="M50.8,63.77a.5.5,0,0,0,.5.51"/><path class="cls-5" d="M53.49,60.74a.5.5,0,0,0,.51.5"/><path class="cls-5" d="M51.3,12.72a.5.5,0,0,0-.5.5"/><path class="cls-5" d="M66.74,15.52A30.75,30.75,0,0,0,53.6,28.66"/><path class="cls-5" d="M53.64,28.49a2.8,2.8,0,0,0-.15.91"/><path class="cls-5" d="M66.39,15.46A20.38,20.38,0,0,0,53.54,28.31"/><path class="cls-5" d="M53.64,28.49a2.8,2.8,0,0,0-.15.91"/><path class="cls-5" d="M66.3,25.69a2.53,2.53,0,1,0-2.53,2.53,2.53,2.53,0,0,0,2.53-2.53"/><path class="cls-5" d="M67.31,25.69a3.54,3.54,0,1,0-3.54,3.54,3.54,3.54,0,0,0,3.54-3.54"/><polyline class="cls-5" points="113.48 25.86 113.48 12.72 144.82 12.72 144.82 25.86"/><line class="cls-5" x1="134.03" y1="12.72" x2="124.26" y2="12.72"/><line class="cls-5" x1="131.67" y1="23.16" x2="129.99" y2="23.16"/><line class="cls-5" x1="128.98" y1="20.81" x2="128.98" y2="22.49"/><line class="cls-5" x1="128.3" y1="23.16" x2="126.62" y2="23.16"/><line class="cls-5" x1="128.98" y1="24.18" x2="128.98" y2="25.86"/><path class="cls-5" d="M120.55,20a13.94,13.94,0,0,0-5.42,6.61"/><path class="cls-5" d="M128.92,17.82a14,14,0,0,0-8.34,2"/><path class="cls-5" d="M142.83,26.62A14,14,0,0,0,137.4,20"/><path class="cls-5" d="M137.37,19.78a13.93,13.93,0,0,0-8.34-2"/><path class="cls-5" d="M118.56,33.35A25.64,25.64,0,0,0,128,35.9"/><path class="cls-5" d="M141.52,32.21a7.94,7.94,0,0,0,2.95-6.52"/><path class="cls-5" d="M127.71,36.27a16,16,0,0,0,2.19,0"/><path class="cls-5" d="M137.52,20.47a56.53,56.53,0,0,0-17.42,0"/><path class="cls-5" d="M143.47,27.71a19.36,19.36,0,0,0-4.38-12.59"/><path class="cls-5" d="M137.75,14a38.64,38.64,0,0,0-8.9-1"/><path class="cls-5" d="M139.19,15a2.54,2.54,0,0,0-1.4-.86"/><path class="cls-5" d="M137.58,15a67.07,67.07,0,0,0-8.73-.63"/><path class="cls-5" d="M143.8,27.61a17.63,17.63,0,0,0-4.42-11.93"/><path class="cls-5" d="M139.13,15.93a2.53,2.53,0,0,0-1.55-.83"/><path class="cls-5" d="M118.59,15.66a17.7,17.7,0,0,0-4.44,11.93"/><path class="cls-5" d="M118.88,15.09a19.39,19.39,0,0,0-4.39,12.59"/><path class="cls-5" d="M128.86,14.4a67.06,67.06,0,0,0-8.73.62"/><path class="cls-5" d="M128.82,13.06a38.63,38.63,0,0,0-8.9.95"/><path class="cls-5" d="M120.38,15.1a2.53,2.53,0,0,0-1.55.83"/><path class="cls-5" d="M120.17,14.13a2.51,2.51,0,0,0-1.4.86"/><path class="cls-5" d="M113.48,25.69a7.94,7.94,0,0,0,3,6.52"/><path class="cls-5" d="M116.4,32.26a11.7,11.7,0,0,0,2.08,1.34"/><path class="cls-5" d="M139.48,33.6a11.63,11.63,0,0,0,2.07-1.34"/><path class="cls-5" d="M130,35.9a25.59,25.59,0,0,0,9.39-2.55"/><path class="cls-5" d="M124.5,34.11a18.47,18.47,0,0,0,8.62,0"/><path class="cls-5" d="M115.51,26.39a4.56,4.56,0,0,0,1.56,3.76"/><path class="cls-5" d="M116.9,30.18a16.7,16.7,0,0,0,7.67,3.52"/><path class="cls-5" d="M140.88,30.15a4.6,4.6,0,0,0,1.57-3.76"/><path class="cls-5" d="M133.05,33.7a16.7,16.7,0,0,0,7.67-3.52"/><path class="cls-5" d="M130.66,23a1.85,1.85,0,1,0-1.85,1.85A1.85,1.85,0,0,0,130.66,23"/><path class="cls-5" d="M130.33,23a1.52,1.52,0,1,0-1.52,1.51A1.52,1.52,0,0,0,130.33,23"/><line class="cls-5" x1="59.56" y1="76.41" x2="79.44" y2="76.41"/><polyline class="cls-5" points="58.21 75.73 50.8 75.73 50.8 96.96"/><line class="cls-5" x1="62.93" y1="86.52" x2="62.93" y2="94.27"/><polyline class="cls-5" points="79.44 76.41 62.93 78.43 62.93 86.52"/><line class="cls-5" x1="79.44" y1="96.29" x2="62.93" y2="94.27"/><line class="cls-5" x1="79.44" y1="77.08" x2="62.93" y2="79.1"/><line class="cls-5" x1="79.44" y1="95.62" x2="62.93" y2="93.59"/><line class="cls-5" x1="59.56" y1="96.29" x2="79.44" y2="96.29"/><line class="cls-5" x1="50.8" y1="96.96" x2="58.21" y2="96.96"/><polyline class="cls-5" points="79.44 76.41 81.8 76.75 83.82 77.76 85.51 79.1 87.19 80.79 88.2 82.81 88.54 85.17 88.54 87.53 88.2 89.89 87.19 91.91 85.51 93.59 83.82 94.94 81.8 95.95 79.44 96.29"/><polyline class="cls-5" points="79.44 77.08 81.46 77.42 83.48 78.09 85.17 79.44 86.52 81.13 87.53 83.15 88.2 85.17 88.2 87.53 87.53 89.55 86.52 91.57 85.17 93.26 83.48 94.61 81.46 95.28 79.44 95.62"/><polyline class="cls-5" points="58.21 96.96 58.55 96.96 58.88 96.96 59.22 96.63 59.56 96.29 59.56 95.95 60.23 86.18 59.56 76.75 59.56 76.41 59.22 76.07 58.88 75.73 58.55 75.73 58.21 75.73"/><polyline class="cls-5" points="56.53 86.52 56.53 86.18 56.53 85.84 56.19 85.51 55.85 85.51 55.52 85.17 55.18 85.51 54.84 85.51 54.84 85.84 54.5 85.84 54.5 86.18 54.5 86.52 54.5 86.86 54.84 86.86 54.84 87.19 55.18 87.19 55.52 87.53 55.85 87.19 56.19 87.19 56.53 86.86 56.53 86.52"/><polyline class="cls-5" points="135.72 425.52 258.38 425.52 258.38 381.38 135.72 381.38 135.72 425.52"/><polyline class="cls-5" points="278.94 23.16 278.94 23.16 278.94 109.43"/><polyline class="cls-5" points="151.89 11.71 151.89 109.43 267.48 109.43 267.48 23.16 233.11 23.16 233.11 11.71 151.89 11.71"/><polyline class="cls-5" points="151.89 217.27 20.47 217.27 20.47 360.49 20.47 414.07 115.16 414.07 115.16 360.49"/><polyline class="cls-5" points="115.16 360.49 267.48 360.49 267.48 166.72 267.48 113.81 151.89 113.81"/><line class="cls-5" x1="8.67" y1="0.25" x2="233.11" y2="0.25"/><polyline points="278.94 428.56 267.48 428.56 278.94 428.56"/><polyline class="cls-5" points="278.94 428.56 267.48 428.56 278.94 428.56"/><polyline points="278.94 434.29 267.48 434.29 267.48 428.56 278.94 434.29"/><polyline points="278.94 434.29 267.48 434.29 278.94 434.29"/><polyline class="cls-5" points="278.94 434.29 267.48 434.29 267.48 428.56 278.94 434.29"/><polyline class="cls-5" points="278.94 434.29 267.48 434.29 278.94 434.29"/><polyline points="278.94 434.29 267.48 428.56 278.94 428.56"/><polyline class="cls-5" points="278.94 434.29 267.48 428.56 278.94 428.56"/><path d="M264.11,428.56h0Z"/><path class="cls-5" d="M264.11,428.56h0Z"/><path d="M264.11,428.56l3.37,5.05h-8.43Zm3.37,0h-3.37l3.37,5.05Z"/><path class="cls-5" d="M264.11,428.56l3.37,5.05h-8.43Zm3.37,0h-3.37l3.37,5.05Z"/><path d="M267.48,434.28h-8.43v-.67Zm0,0Z"/><path class="cls-5" d="M267.48,434.28h-8.43v-.67Zm0,0Z"/><polygon points="259.05 433.61 267.48 433.61 267.48 434.29 259.05 433.61"/><polygon class="cls-5" points="259.05 433.61 267.48 433.61 267.48 434.29 259.05 433.61"/><polygon points="259.05 433.61 259.05 434.29 258.38 434.29 259.05 433.61"/><polygon class="cls-5" points="259.05 433.61 259.05 434.29 258.38 434.29 259.05 433.61"/><polyline points="278.94 414.07 278.94 414.07 278.94 414.07"/><polyline class="cls-5" points="278.94 414.07 278.94 414.07 278.94 414.07"/><polyline points="278.94 425.52 278.94 425.52 278.94 414.07 278.94 425.52"/><polyline points="278.94 414.07 278.94 414.07 278.94 425.52"/><polyline class="cls-5" points="278.94 425.52 278.94 425.52 278.94 414.07 278.94 425.52"/><polyline class="cls-5" points="278.94 414.07 278.94 414.07 278.94 425.52"/><polyline points="278.94 428.56 278.94 428.56 278.94 425.52 278.94 428.56"/><polyline points="278.94 428.56 278.94 428.56 278.94 428.56"/><polyline class="cls-5" points="278.94 428.56 278.94 428.56 278.94 425.52 278.94 428.56"/><polyline class="cls-5" points="278.94 428.56 278.94 428.56 278.94 428.56"/><polyline points="278.94 428.56 278.94 425.52 278.94 425.52"/><polyline class="cls-5" points="278.94 428.56 278.94 425.52 278.94 425.52"/><path d="M278.94,414.07"/><path class="cls-5" d="M278.94,414.07"/><path d="M278.94,414.07v11.12H267.48Zm0,11.12v0Z"/><path class="cls-5" d="M278.94,414.07v11.12H267.48Zm0,11.12v0Z"/><path d="M278.94,428.56H267.48v-3.37Zm0,0Z"/><path class="cls-5" d="M278.94,428.56H267.48v-3.37Zm0,0Z"/><polygon points="267.48 425.19 278.94 425.19 278.94 428.56 267.48 425.19"/><polygon class="cls-5" points="267.48 425.19 278.94 425.19 278.94 428.56 267.48 425.19"/><path d="M267.48,428.56h0Zm0-3.37v3.37h-3.37Z"/><path class="cls-5" d="M267.48,428.56h0Zm0-3.37v3.37h-3.37Z"/><line class="cls-5" x1="259.05" y1="433.61" x2="259.05" y2="434.28"/><line class="cls-5" x1="278.94" y1="428.56" x2="278.94" y2="428.56"/><line class="cls-5" x1="267.48" y1="425.19" x2="267.48" y2="428.56"/><polyline class="cls-5" points="267.48 425.19 267.48 428.56 278.94 428.56 278.94 414.07"/><line class="cls-5" x1="278.94" y1="414.07" x2="278.94" y2="414.07"/><polyline class="cls-5" points="258.38 434.29 259.05 434.29 267.48 434.29 278.94 434.29"/><path d="M267.48,380.7h0Z"/><path class="cls-5" d="M267.48,380.7h0Z"/><path d="M186.94,380.7l80.54.68H186.94Zm80.54,0H186.94l80.54.68Z"/><path class="cls-5" d="M186.94,380.7l80.54.68H186.94Zm80.54,0H186.94l80.54.68Z"/><path d="M135.38,371.94h-8.76l8.76,8.76Zm0,0Z"/><path class="cls-5" d="M135.38,371.94h-8.76l8.76,8.76Zm0,0Z"/><path d="M267.48,371.94h0Z"/><path class="cls-5" d="M267.48,371.94h0Z"/><path d="M267.48,380.7H186.94v-8.76Zm0,0Z"/><path class="cls-5" d="M267.48,380.7H186.94v-8.76Zm0,0Z"/><polygon points="186.94 371.94 267.48 371.94 267.48 380.7 186.94 371.94"/><polygon class="cls-5" points="186.94 371.94 267.48 371.94 267.48 380.7 186.94 371.94"/><path d="M115.16,360.49h0Z"/><path class="cls-5" d="M115.16,360.49h0Z"/><path d="M115.16,360.49l20.22,8.76H123.92Zm20.22,0H115.16l20.22,8.76Z"/><path class="cls-5" d="M115.16,360.49l20.22,8.76H123.92Zm20.22,0H115.16l20.22,8.76Z"/><path d="M135.38,371.94h-8.76l-2.7-2.69Zm0,0Z"/><path class="cls-5" d="M135.38,371.94h-8.76l-2.7-2.69Zm0,0Z"/><polygon points="123.92 369.25 135.38 369.25 135.38 371.94 123.92 369.25"/><polygon class="cls-5" points="123.92 369.25 135.38 369.25 135.38 371.94 123.92 369.25"/><path d="M186.94,360.49l80.54,8.76H186.94Zm80.54,0H186.94l80.54,8.76Z"/><path class="cls-5" d="M186.94,360.49l80.54,8.76H186.94Zm80.54,0H186.94l80.54,8.76Z"/><path d="M186.94,369.25l80.54,2.69H186.94Zm80.54,0H186.94l80.54,2.69Z"/><path class="cls-5" d="M186.94,369.25l80.54,2.69H186.94Zm80.54,0H186.94l80.54,2.69Z"/><path d="M186.6,371.94l.34,8.76h-.34Zm.34,0h-.34l.34,8.76Z"/><path class="cls-5" d="M186.6,371.94l.34,8.76h-.34Zm.34,0h-.34l.34,8.76Z"/><path d="M186.6,380.7l.34.68h-.34Zm.34,0h-.34l.34.68Z"/><path class="cls-5" d="M186.6,380.7l.34.68h-.34Zm.34,0h-.34l.34.68Z"/><path d="M135.38,371.94l.34,8.76h-.34Zm.34,0h-.34l.34,8.76Z"/><path class="cls-5" d="M135.38,371.94l.34,8.76h-.34Zm.34,0h-.34l.34,8.76Z"/><path d="M135.38,380.7l.34.68h-.34Zm.34,0h-.34l.34.68Z"/><path class="cls-5" d="M135.38,380.7l.34.68h-.34Zm.34,0h-.34l.34.68Z"/><line class="cls-5" x1="186.94" y1="380.7" x2="267.48" y2="380.7"/><line class="cls-5" x1="186.94" y1="371.94" x2="267.48" y2="371.94"/><line class="cls-5" x1="126.62" y1="371.94" x2="135.38" y2="371.94"/><polyline class="cls-5" points="135.38 380.7 135.38 371.94 135.72 371.94 135.72 381.38 135.38 381.38"/><polyline class="cls-5" points="186.94 380.7 186.94 371.94 186.6 371.94 186.6 381.38 186.94 381.38"/><polyline class="cls-5" points="135.38 371.94 135.38 369.25 135.38 360.49"/><polyline class="cls-5" points="186.94 371.94 186.94 369.25 186.94 360.49 267.48 360.49"/><line class="cls-5" x1="135.38" y1="360.49" x2="115.16" y2="360.49"/><line class="cls-5" x1="186.94" y1="381.38" x2="267.48" y2="381.38"/><line class="cls-5" x1="186.6" y1="381.38" x2="135.72" y2="381.38"/><line class="cls-5" x1="186.94" y1="360.49" x2="135.38" y2="360.49"/><path d="M182.22,369.25h0Z"/><path class="cls-5" d="M182.22,369.25h0Z"/><path d="M186.94,371.94h-4.72v-2.69Zm0,0Z"/><path class="cls-5" d="M186.94,371.94h-4.72v-2.69Zm0,0Z"/><polygon points="182.22 369.25 186.94 369.25 186.94 371.94 182.22 369.25"/><polygon class="cls-5" points="182.22 369.25 186.94 369.25 186.94 371.94 182.22 369.25"/><path d="M135.38,369.25h0Z"/><path class="cls-5" d="M135.38,369.25h0Z"/><path d="M140.1,371.94h-4.72v-2.69Zm0,0Z"/><path class="cls-5" d="M140.1,371.94h-4.72v-2.69Zm0,0Z"/><polygon points="135.38 369.25 140.1 369.25 140.1 371.94 135.38 369.25"/><polygon class="cls-5" points="135.38 369.25 140.1 369.25 140.1 371.94 135.38 369.25"/><polyline class="cls-5" points="186.94 369.25 182.22 369.25 182.22 371.94 186.94 371.94"/><polyline class="cls-5" points="135.38 371.94 140.1 371.94 140.1 369.25 135.38 369.25"/><line class="cls-5" x1="182.22" y1="369.25" x2="140.1" y2="369.25"/><line class="cls-5" x1="140.1" y1="371.94" x2="182.22" y2="371.94"/><line class="cls-5" x1="186.94" y1="371.94" x2="186.94" y2="369.25"/><line class="cls-5" x1="135.38" y1="371.94" x2="135.38" y2="369.25"/><path d="M135.38,433.61"/><path class="cls-5" d="M135.38,433.61"/><path d="M135.72,434.28h-.34v-.67Zm0,0Zm-.34-.67.34.67Z"/><path class="cls-5" d="M135.72,434.28h-.34v-.67Zm0,0Zm-.34-.67.34.67Z"/><path d="M130,428.56h0Z"/><path class="cls-5" d="M130,428.56h0Z"/><path d="M126.62,428.56l8.76,5.05h-8.76Zm3.37,0h-3.37l8.76,5.05Z"/><path class="cls-5" d="M126.62,428.56l8.76,5.05h-8.76Zm3.37,0h-3.37l8.76,5.05Z"/><path d="M135.38,434.28h-8.76v-.67Zm0,0Z"/><path class="cls-5" d="M135.38,434.28h-8.76v-.67Zm0,0Z"/><polygon points="126.62 433.61 135.38 433.61 135.38 434.29 126.62 433.61"/><polygon class="cls-5" points="126.62 433.61 135.38 433.61 135.38 434.29 126.62 433.61"/><path d="M46.08,428.56h0Zm2,0h0Z"/><path class="cls-5" d="M46.08,428.56h0Zm2,0h0Z"/><path d="M48.1,434.28H8.67v-5.72Zm0,0Z"/><path class="cls-5" d="M48.1,434.28H8.67v-5.72Zm0,0Z"/><polygon points="8.68 428.56 48.1 428.56 48.1 434.29 8.68 428.56"/><polygon class="cls-5" points="8.68 428.56 48.1 428.56 48.1 434.29 8.68 428.56"/><path d="M126.62,428.56h0Z"/><path class="cls-5" d="M126.62,428.56h0Z"/><path d="M126.62,434.28H101v-5.72Zm0,0Z"/><path class="cls-5" d="M126.62,434.28H101v-5.72Zm0,0Z"/><polygon points="101.01 428.56 126.62 428.56 126.62 434.29 101.01 428.56"/><polygon class="cls-5" points="101.01 428.56 126.62 428.56 126.62 434.29 101.01 428.56"/><path d="M8.67,428.56h0Z"/><path class="cls-5" d="M8.67,428.56h0Z"/><path d="M5.64,428.56l3,5.05H.25Zm3,0h-3l3,5.05Z"/><path class="cls-5" d="M5.64,428.56l3,5.05H.25Zm3,0h-3l3,5.05Z"/><path d="M8.67,434.28H.25v-.67Zm0,0Z"/><path class="cls-5" d="M8.67,434.28H.25v-.67Zm0,0Z"/><polygon points="0.25 433.61 8.68 433.61 8.68 434.29 0.25 433.61"/><polygon class="cls-5" points="0.25 433.61 8.68 433.61 8.68 434.29 0.25 433.61"/><polygon points="0.25 433.61 0.25 434.29 0.25 434.29 0.25 433.61"/><polygon class="cls-5" points="0.25 433.61 0.25 434.29 0.25 434.29 0.25 433.61"/><path d="M.25,434.28"/><path class="cls-5" d="M.25,434.28"/><path d="M.25,434.28Z"/><path class="cls-5" d="M.25,434.28Z"/><path d="M126.62,425.19"/><path class="cls-5" d="M126.62,425.19"/><path d="M130,428.56h-3.37v-3.37Zm0,0Zm-3.37-3.37,3.37,3.37Z"/><path class="cls-5" d="M130,428.56h-3.37v-3.37Zm0,0Zm-3.37-3.37,3.37,3.37Z"/><polygon points="115.16 414.07 126.62 425.19 115.16 425.19 115.16 414.07"/><polygon class="cls-5" points="115.16 414.07 126.62 425.19 115.16 425.19 115.16 414.07"/><path d="M126.62,428.56H115.16v-3.37Zm0,0Z"/><path class="cls-5" d="M126.62,428.56H115.16v-3.37Zm0,0Z"/><polygon points="115.16 425.19 126.62 425.19 126.62 428.56 115.16 425.19"/><polygon class="cls-5" points="115.16 425.19 126.62 425.19 126.62 428.56 115.16 425.19"/><path d="M46.08,414.07h0Z"/><path class="cls-5" d="M46.08,414.07h0Z"/><path d="M20.47,414.07l25.61,11.45H20.47Zm25.61,0H20.47l25.61,11.45Z"/><path class="cls-5" d="M20.47,414.07l25.61,11.45H20.47Zm25.61,0H20.47l25.61,11.45Z"/><path d="M46.08,428.56H20.47v-3Zm0,0Z"/><path class="cls-5" d="M46.08,428.56H20.47v-3Zm0,0Z"/><polygon points="20.47 425.52 46.08 425.52 46.08 428.56 20.47 425.52"/><polygon class="cls-5" points="20.47 425.52 46.08 425.52 46.08 428.56 20.47 425.52"/><path d="M115.16,414.07h0Z"/><path class="cls-5" d="M115.16,414.07h0Z"/><path d="M103.37,414.07l11.79,11.45H103.37Zm11.79,0H103.37l11.79,11.45Z"/><path class="cls-5" d="M103.37,414.07l11.79,11.45H103.37Zm11.79,0H103.37l11.79,11.45Z"/><path d="M103.37,425.52l11.79,3H103.37Zm11.79,0H103.37l11.79,3Z"/><path class="cls-5" d="M103.37,425.52l11.79,3H103.37Zm11.79,0H103.37l11.79,3Z"/><polygon points="20.47 414.07 20.47 425.19 8.68 425.19 20.47 414.07"/><polygon class="cls-5" points="20.47 414.07 20.47 425.19 8.68 425.19 20.47 414.07"/><path d="M20.47,428.56H8.67v-3.37Zm0,0Z"/><path class="cls-5" d="M20.47,428.56H8.67v-3.37Zm0,0Z"/><polygon points="8.68 425.19 20.47 425.19 20.47 428.56 8.68 425.19"/><polygon class="cls-5" points="8.68 425.19 20.47 425.19 20.47 428.56 8.68 425.19"/><path d="M8.67,428.56h0Zm0-3.37v3.37h-3Z"/><path class="cls-5" d="M8.67,428.56h0Zm0-3.37v3.37h-3Z"/><line class="cls-5" x1="135.38" y1="433.61" x2="135.38" y2="434.28"/><line class="cls-5" x1="0.25" y1="433.61" x2="0.25" y2="434.28"/><polyline class="cls-5" points="126.62 425.19 126.62 428.56 115.16 428.56 103.37 428.56"/><polyline class="cls-5" points="20.47 414.07 20.47 428.56 46.08 428.56"/><polyline class="cls-5" points="8.68 425.19 8.68 428.56 20.47 428.56"/><line class="cls-5" x1="103.37" y1="425.52" x2="103.37" y2="414.07"/><polyline class="cls-5" points="101.01 434.29 101.01 428.56 103.37 428.56 103.37 425.52"/><line class="cls-5" x1="46.08" y1="425.52" x2="46.08" y2="414.07"/><polyline class="cls-5" points="48.1 434.29 48.1 428.56 46.08 428.56 46.08 425.52"/><polyline class="cls-5" points="0.25 434.29 0.25 434.29 8.68 434.29 48.1 434.29"/><polyline class="cls-5" points="135.72 434.29 135.38 434.29 126.62 434.29 101.01 434.29"/><line class="cls-5" x1="115.16" y1="414.07" x2="103.37" y2="414.07"/><line class="cls-5" x1="46.08" y1="414.07" x2="20.47" y2="414.07"/><line class="cls-5" x1="48.1" y1="434.28" x2="101.01" y2="434.28"/><line class="cls-5" x1="46.08" y1="414.07" x2="103.37" y2="414.07"/><path d="M50.46,425.52h0Z"/><path class="cls-5" d="M50.46,425.52h0Z"/><path d="M50.46,428.56H46.08v-3Zm0,0Z"/><path class="cls-5" d="M50.46,428.56H46.08v-3Zm0,0Z"/><polygon points="46.08 425.52 50.46 425.52 50.46 428.56 46.08 425.52"/><polygon class="cls-5" points="46.08 425.52 50.46 425.52 50.46 428.56 46.08 425.52"/><path d="M103.37,425.52h0Z"/><path class="cls-5" d="M103.37,425.52h0Z"/><path d="M103.37,428.56H98.65v-3Zm0,0Z"/><path class="cls-5" d="M103.37,428.56H98.65v-3Zm0,0Z"/><polygon points="98.65 425.52 103.37 425.52 103.37 428.56 98.65 425.52"/><polygon class="cls-5" points="98.65 425.52 103.37 425.52 103.37 428.56 98.65 425.52"/><polyline class="cls-5" points="46.08 428.56 50.46 428.56 50.46 425.52 46.08 425.52"/><polyline class="cls-5" points="103.37 425.52 98.65 425.52 98.65 428.56 103.37 428.56"/><line class="cls-5" x1="50.46" y1="428.56" x2="98.65" y2="428.56"/><line class="cls-5" x1="98.65" y1="425.52" x2="50.46" y2="425.52"/><polyline class="cls-5" points="48.1 428.56 46.08 428.56 46.08 425.52"/><polyline class="cls-5" points="101.01 428.56 103.37 428.56 103.37 425.52"/><polyline class="cls-5" points="111.79 82.47 146.16 82.47 146.16 108.08 111.79 108.08 111.79 82.47"/><path d="M.25,432.26Z"/><path class="cls-5" d="M.25,432.26Z"/><path d="M.25,434.28h0v0Zm0,0Z"/><path class="cls-5" d="M.25,434.28h0v0Zm0,0Z"/><polygon points="0.25 432.26 0.25 432.26 0.25 434.29 0.25 432.26"/><polygon class="cls-5" points="0.25 432.26 0.25 432.26 0.25 434.29 0.25 432.26"/><path d="M.25,425.52Z"/><path class="cls-5" d="M.25,425.52Z"/><path d="M.25,425.52v1.69h0Zm0,0h0v0Z"/><path class="cls-5" d="M.25,425.52v1.69h0Zm0,0h0v0Z"/><path d="M.25,427.21v3h0Zm0,0h0v0Z"/><path class="cls-5" d="M.25,427.21v3h0Zm0,0h0v0Z"/><path d="M.25,432.26h0v0Zm0,0Z"/><path class="cls-5" d="M.25,432.26h0v0Zm0,0Z"/><polygon points="0.25 430.24 0.25 430.24 0.25 432.26 0.25 430.24"/><polygon class="cls-5" points="0.25 430.24 0.25 430.24 0.25 432.26 0.25 430.24"/><path d="M.25,430.24v2h0Zm0,0h0v0Z"/><path class="cls-5" d="M.25,430.24v2h0Zm0,0h0v0Z"/><path d="M.25,432.26v2h0Zm0,0h0v0Z"/><path class="cls-5" d="M.25,432.26v2h0Zm0,0h0v0Z"/><line class="cls-5" x1="0.25" y1="432.26" x2="0.25" y2="432.26"/><polyline class="cls-5" points="0.25 432.26 0.25 430.24 0.25 430.24 0.25 434.29 0.25 434.29"/><polyline class="cls-5" points="0.25 430.24 0.25 427.21 0.25 425.52"/><polyline class="cls-5" points="0.25 434.29 0.25 434.29 0.25 425.52 0.25 425.52"/><line class="cls-5" x1="0.25" y1="430.24" x2="0.25" y2="427.21"/><path d="M.25,366.21v67.4h0Zm0,0h0v0Z"/><path class="cls-5" d="M.25,366.21v67.4h0Zm0,0h0v0Z"/><path d="M.25,434.28m0-.67v0Zm0,0h0v0Z"/><path class="cls-5" d="M.25,434.28m0-.67v0Zm0,0h0v0Z"/><path d="M5.64,428.56h0Z"/><path class="cls-5" d="M5.64,428.56h0Z"/><path d="M.25,433.61m0-5.05v0Zm5.39,0H.25v5.05Z"/><path class="cls-5" d="M.25,433.61m0-5.05v0Zm5.39,0H.25v5.05Z"/><path d="M.25,366.21h0Z"/><path class="cls-5" d="M.25,366.21h0Z"/><path d="M.25,366.21l8.42,59H.25Zm8.42,0H.25l8.42,59Z"/><path class="cls-5" d="M.25,366.21l8.42,59H.25Zm8.42,0H.25l8.42,59Z"/><path d="M5.64,428.56H.25v-3.37Zm0,0Z"/><path class="cls-5" d="M5.64,428.56H.25v-3.37Zm0,0Z"/><polygon points="0.25 425.19 8.68 425.19 5.64 428.56 0.25 425.19"/><polygon class="cls-5" points="0.25 425.19 8.68 425.19 5.64 428.56 0.25 425.19"/><path d="M8.67,366.21h0Z"/><path class="cls-5" d="M8.67,366.21h0Z"/><path d="M8.67,366.21l11.8,47.86H8.67Zm11.8,0H8.67l11.8,47.86Z"/><path class="cls-5" d="M8.67,366.21l11.8,47.86H8.67Zm11.8,0H8.67l11.8,47.86Z"/><path d="M8.67,425.19m0-11.12v0Zm11.8,0H8.67v11.12Z"/><path class="cls-5" d="M8.67,425.19m0-11.12v0Zm11.8,0H8.67v11.12Z"/><polyline class="cls-5" points="0.25 366.21 0.25 428.56 0.25 433.61"/><line class="cls-5" x1="8.67" y1="366.21" x2="8.67" y2="425.19"/><line class="cls-5" x1="0.25" y1="366.21" x2="0.25" y2="434.28"/><line class="cls-5" x1="20.47" y1="414.07" x2="20.47" y2="366.21"/><polygon points="135.38 380.7 135.72 381.38 135.38 381.38 135.38 380.7"/><polygon class="cls-5" points="135.38 380.7 135.72 381.38 135.38 381.38 135.38 380.7"/><path d="M135.38,433.61h.34v.67Zm0-52.23v52.23h.34Z"/><path class="cls-5" d="M135.38,433.61h.34v.67Zm0-52.23v52.23h.34Z"/><polygon points="135.38 381.38 135.72 381.38 135.72 433.61 135.38 381.38"/><polygon class="cls-5" points="135.38 381.38 135.72 381.38 135.72 433.61 135.38 381.38"/><polygon points="126.62 371.94 135.38 380.7 126.62 380.7 126.62 371.94"/><polygon class="cls-5" points="126.62 371.94 135.38 380.7 126.62 380.7 126.62 371.94"/><path d="M126.62,380.7l8.76,44.49h-8.76Zm8.76,0h-8.76l8.76,44.49Z"/><path class="cls-5" d="M126.62,380.7l8.76,44.49h-8.76Zm8.76,0h-8.76l8.76,44.49Z"/><path d="M135.38,428.56H130l-3.37-3.37Zm0,0Z"/><path class="cls-5" d="M135.38,428.56H130l-3.37-3.37Zm0,0Z"/><polygon points="126.62 425.19 135.38 425.19 135.38 428.56 126.62 425.19"/><polygon class="cls-5" points="126.62 425.19 135.38 425.19 135.38 428.56 126.62 425.19"/><path d="M130,428.56h5.39v5.05Zm0,0Z"/><path class="cls-5" d="M130,428.56h5.39v5.05Zm0,0Z"/><polygon points="115.16 360.49 126.62 371.94 115.16 371.94 115.16 360.49"/><polygon class="cls-5" points="115.16 360.49 126.62 371.94 115.16 371.94 115.16 360.49"/><path d="M126.62,414.07H115.16V371.94Zm0,0Z"/><path class="cls-5" d="M126.62,414.07H115.16V371.94Zm0,0Z"/><polygon points="115.16 371.94 126.62 371.94 126.62 414.07 115.16 371.94"/><polygon class="cls-5" points="115.16 371.94 126.62 371.94 126.62 414.07 115.16 371.94"/><path d="M115.16,414.07h11.46v11.12Zm0,0Z"/><path class="cls-5" d="M115.16,414.07h11.46v11.12Zm0,0Z"/><polyline class="cls-5" points="135.38 433.61 135.38 428.56 135.38 380.7"/><polyline class="cls-5" points="126.62 425.19 126.62 414.07 126.62 371.94"/><line class="cls-5" x1="135.72" y1="434.28" x2="135.72" y2="381.38"/><line class="cls-5" x1="115.16" y1="360.49" x2="115.16" y2="414.07"/><path d="M152.9,432.26h0Z"/><path class="cls-5" d="M152.9,432.26h0Z"/><path d="M135.72,432.26l17.18,2H135.72Zm17.18,0H135.72l17.18,2Z"/><path class="cls-5" d="M135.72,432.26l17.18,2H135.72Zm17.18,0H135.72l17.18,2Z"/><path d="M258.38,432.26h0Z"/><path class="cls-5" d="M258.38,432.26h0Z"/><path d="M258.38,434.28H258v-2Zm0,0Z"/><path class="cls-5" d="M258.38,434.28H258v-2Zm0,0Z"/><polygon points="258.04 432.26 258.38 432.26 258.38 434.29 258.04 432.26"/><polygon class="cls-5" points="258.04 432.26 258.38 432.26 258.38 434.29 258.04 432.26"/><path d="M135.72,425.52l17.18,1.69H135.72Zm17.18,0H135.72l17.18,1.69Z"/><path class="cls-5" d="M135.72,425.52l17.18,1.69H135.72Zm17.18,0H135.72l17.18,1.69Z"/><path d="M135.72,427.21l17.18,3H135.72Zm17.18,0H135.72l17.18,3Z"/><path class="cls-5" d="M135.72,427.21l17.18,3H135.72Zm17.18,0H135.72l17.18,3Z"/><path d="M152.9,432.26H135.72v-2Zm0,0Z"/><path class="cls-5" d="M152.9,432.26H135.72v-2Zm0,0Z"/><polygon points="135.72 430.24 152.9 430.24 152.9 432.26 135.72 430.24"/><polygon class="cls-5" points="135.72 430.24 152.9 430.24 152.9 432.26 135.72 430.24"/><path d="M258.38,425.52h0Z"/><path class="cls-5" d="M258.38,425.52h0Z"/><path d="M258,425.52l.34,1.69H258Zm.34,0H258l.34,1.69Z"/><path class="cls-5" d="M258,425.52l.34,1.69H258Zm.34,0H258l.34,1.69Z"/><path d="M258,427.21l.34,3H258Zm.34,0H258l.34,3Z"/><path class="cls-5" d="M258,427.21l.34,3H258Zm.34,0H258l.34,3Z"/><path d="M258.38,432.26H258v-2Zm0,0Z"/><path class="cls-5" d="M258.38,432.26H258v-2Zm0,0Z"/><polygon points="258.04 430.24 258.38 430.24 258.38 432.26 258.04 430.24"/><polygon class="cls-5" points="258.04 430.24 258.38 430.24 258.38 432.26 258.04 430.24"/><path d="M152.9,430.24l1.69,2H152.9Zm1.69,0H152.9l1.69,2Z"/><path class="cls-5" d="M152.9,430.24l1.69,2H152.9Zm1.69,0H152.9l1.69,2Z"/><path d="M152.9,432.26l1.69,2H152.9Zm1.69,0H152.9l1.69,2Z"/><path class="cls-5" d="M152.9,432.26l1.69,2H152.9Zm1.69,0H152.9l1.69,2Z"/><path d="M256.36,430.24l1.68,2h-1.68Zm1.68,0h-1.68l1.68,2Z"/><path class="cls-5" d="M256.36,430.24l1.68,2h-1.68Zm1.68,0h-1.68l1.68,2Z"/><path d="M256.36,432.26l1.68,2h-1.68Zm1.68,0h-1.68l1.68,2Z"/><path class="cls-5" d="M256.36,432.26l1.68,2h-1.68Zm1.68,0h-1.68l1.68,2Z"/><line class="cls-5" x1="258.04" y1="432.26" x2="258.38" y2="432.26"/><line class="cls-5" x1="135.72" y1="432.26" x2="152.9" y2="432.26"/><polyline class="cls-5" points="258.04 432.26 258.04 430.24 256.36 430.24 256.36 434.29 258.04 434.29"/><polyline class="cls-5" points="152.9 432.26 152.9 430.24 154.59 430.24 154.59 434.29 152.9 434.29"/><polyline class="cls-5" points="258.04 430.24 258.04 427.21 258.04 425.52"/><polyline class="cls-5" points="152.9 430.24 152.9 427.21 152.9 425.52"/><line class="cls-5" x1="135.72" y1="434.28" x2="152.9" y2="434.28"/><polyline class="cls-5" points="258.04 434.29 258.38 434.29 258.38 425.52 258.04 425.52"/><polyline class="cls-5" points="152.9 425.52 135.72 425.52 135.72 434.29"/><line class="cls-5" x1="154.59" y1="434.28" x2="256.36" y2="434.28"/><line class="cls-5" x1="152.9" y1="425.52" x2="258.04" y2="425.52"/><path d="M157.28,427.21h0Z"/><path class="cls-5" d="M157.28,427.21h0Z"/><path d="M157.28,430.24H152.9v-3Zm0,0Z"/><path class="cls-5" d="M157.28,430.24H152.9v-3Zm0,0Z"/><polygon points="152.9 427.21 157.28 427.21 157.28 430.24 152.9 427.21"/><polygon class="cls-5" points="152.9 427.21 157.28 427.21 157.28 430.24 152.9 427.21"/><path d="M190.31,427.21h0Z"/><path class="cls-5" d="M190.31,427.21h0Z"/><path d="M190.31,430.24h-3v-3Zm0,0Z"/><path class="cls-5" d="M190.31,430.24h-3v-3Zm0,0Z"/><polygon points="187.28 427.21 190.31 427.21 190.31 430.24 187.28 427.21"/><polygon class="cls-5" points="187.28 427.21 190.31 427.21 190.31 430.24 187.28 427.21"/><path d="M193,427.21h0Z"/><path class="cls-5" d="M193,427.21h0Z"/><path d="M193,430.24h-2.69v-3Zm0,0Z"/><path class="cls-5" d="M193,430.24h-2.69v-3Zm0,0Z"/><polygon points="190.31 427.21 193 427.21 193 430.24 190.31 427.21"/><polygon class="cls-5" points="190.31 427.21 193 427.21 193 430.24 190.31 427.21"/><path d="M258,427.21h0Z"/><path class="cls-5" d="M258,427.21h0Z"/><path d="M258,430.24h-4.72v-3Zm0,0Z"/><path class="cls-5" d="M258,430.24h-4.72v-3Zm0,0Z"/><polygon points="253.32 427.21 258.04 427.21 258.04 430.24 253.32 427.21"/><polygon class="cls-5" points="253.32 427.21 258.04 427.21 258.04 430.24 253.32 427.21"/><polyline class="cls-5" points="152.9 430.24 157.28 430.24 157.28 427.21 152.9 427.21"/><polyline class="cls-5" points="190.31 427.21 187.28 427.21 187.28 430.24 190.31 430.24"/><line class="cls-5" x1="157.28" y1="430.24" x2="187.28" y2="430.24"/><line class="cls-5" x1="187.28" y1="427.21" x2="157.28" y2="427.21"/><polyline class="cls-5" points="190.31 430.24 193 430.24 193 427.21 190.31 427.21"/><polyline class="cls-5" points="258.04 427.21 253.32 427.21 253.32 430.24 258.04 430.24"/><line class="cls-5" x1="193" y1="430.24" x2="253.32" y2="430.24"/><line class="cls-5" x1="253.32" y1="427.21" x2="193" y2="427.21"/><line class="cls-5" x1="152.9" y1="430.24" x2="152.9" y2="427.21"/><line class="cls-5" x1="258.04" y1="430.24" x2="258.04" y2="427.21"/><path d="M258.38,433.61h.67l-.67.67Zm0-67.4v67.4h.67Z"/><path class="cls-5" d="M258.38,433.61h.67l-.67.67Zm0-67.4v67.4h.67Z"/><polygon points="258.38 366.21 259.05 366.21 259.05 433.61 258.38 366.21"/><polygon class="cls-5" points="258.38 366.21 259.05 366.21 259.05 433.61 258.38 366.21"/><path d="M259.05,428.56h0Z"/><path class="cls-5" d="M259.05,428.56h0Z"/><path d="M259.05,433.61m0-5.05v0Zm5.06,0h-5.06v5.05Z"/><path class="cls-5" d="M259.05,433.61m0-5.05v0Zm5.06,0h-5.06v5.05Z"/><path d="M259.05,366.21h0Z"/><path class="cls-5" d="M259.05,366.21h0Z"/><path d="M259.05,366.21l8.43,59h-8.43Zm8.43,0h-8.43l8.43,59Z"/><path class="cls-5" d="M259.05,366.21l8.43,59h-8.43Zm8.43,0h-8.43l8.43,59Z"/><path d="M264.11,428.56h-5.06v-3.37Zm0,0Z"/><path class="cls-5" d="M264.11,428.56h-5.06v-3.37Zm0,0Z"/><polygon points="259.05 425.19 267.48 425.19 264.11 428.56 259.05 425.19"/><polygon class="cls-5" points="259.05 425.19 267.48 425.19 264.11 428.56 259.05 425.19"/><path d="M267.48,366.21h0Z"/><path class="cls-5" d="M267.48,366.21h0Z"/><path d="M267.48,414.07h11.46l-11.46,11.12Zm0-47.86v47.86h11.46Z"/><path class="cls-5" d="M267.48,414.07h11.46l-11.46,11.12Zm0-47.86v47.86h11.46Z"/><polygon points="267.48 366.21 278.94 366.21 278.94 414.07 267.48 366.21"/><polygon class="cls-5" points="267.48 366.21 278.94 366.21 278.94 414.07 267.48 366.21"/><polyline class="cls-5" points="259.05 366.21 259.05 428.56 259.05 433.61"/><line class="cls-5" x1="267.48" y1="366.21" x2="267.48" y2="425.19"/><line class="cls-5" x1="258.38" y1="366.21" x2="258.38" y2="434.28"/><line class="cls-5" x1="278.94" y1="414.07" x2="278.94" y2="366.21"/><polyline points="278.94 23.16 233.11 23.16 233.11 11.71 278.94 23.16"/><polyline points="278.94 11.71 233.11 11.71 278.94 23.16"/><polyline class="cls-5" points="278.94 23.16 233.11 23.16 233.11 11.71 278.94 23.16"/><polyline class="cls-5" points="278.94 11.71 233.11 11.71 278.94 23.16"/><line class="cls-5" x1="233.11" y1="23.16" x2="267.48" y2="23.16"/><polyline class="cls-5" points="278.94 11.71 233.11 11.71 233.11 23.16"/><line class="cls-5" x1="278.94" y1="23.16" x2="278.94" y2="23.16"/><path d="M20.47,109.43h0Z"/><path class="cls-5" d="M20.47,109.43h0Z"/><path d="M169.75,113.81H20.47v-4.38Zm0,0Z"/><path class="cls-5" d="M169.75,113.81H20.47v-4.38Zm0,0Z"/><polygon points="20.47 109.43 169.75 109.43 169.75 113.81 20.47 109.43"/><polygon class="cls-5" points="20.47 109.43 169.75 109.43 169.75 113.81 20.47 109.43"/><path d="M221.65,109.43h0Z"/><path class="cls-5" d="M221.65,109.43h0Z"/><path d="M267.48,113.81H221.65v-4.38Zm0,0Z"/><path class="cls-5" d="M267.48,113.81H221.65v-4.38Zm0,0Z"/><polygon points="221.65 109.43 267.48 109.43 267.48 113.81 221.65 109.43"/><polygon class="cls-5" points="221.65 109.43 267.48 109.43 267.48 113.81 221.65 109.43"/><line class="cls-5" x1="169.75" y1="113.81" x2="169.75" y2="109.43"/><polyline class="cls-5" points="221.65 113.81 221.65 109.43 267.48 109.43"/><line class="cls-5" x1="169.75" y1="109.43" x2="151.89" y2="109.43"/><line class="cls-5" x1="147.51" y1="109.43" x2="49.79" y2="109.43"/><polyline class="cls-5" points="45.07 109.43 20.47 109.43 20.47 113.81 169.75 113.81"/><polyline class="cls-5" points="221.65 113.81 267.48 113.81 267.48 109.43"/><line class="cls-5" x1="169.75" y1="113.81" x2="172.79" y2="113.81"/><line class="cls-5" x1="169.75" y1="109.43" x2="172.79" y2="109.43"/><line class="cls-5" x1="221.65" y1="113.81" x2="218.62" y2="113.81"/><line class="cls-5" x1="221.65" y1="109.43" x2="218.62" y2="109.43"/><line class="cls-5" x1="172.79" y1="109.43" x2="172.79" y2="113.81"/><polyline class="cls-5" points="218.62 109.43 218.62 113.81 218.62 159.98"/><path class="cls-5" d="M172.45,113.64a46,46,0,0,0,46,46"/><path d="M49.79,7h0Z"/><path class="cls-5" d="M49.79,7h0Z"/><path d="M49.79,109.43H45.07V7Zm0,0Z"/><path class="cls-5" d="M49.79,109.43H45.07V7Zm0,0Z"/><polygon points="45.07 6.99 49.79 6.99 49.79 109.43 45.07 6.99"/><polygon class="cls-5" points="45.07 6.99 49.79 6.99 49.79 109.43 45.07 6.99"/><line class="cls-5" x1="45.07" y1="6.99" x2="45.07" y2="76.07"/><line class="cls-5" x1="45.07" y1="80.45" x2="45.07" y2="109.43"/><polyline class="cls-5" points="49.79 109.43 49.79 6.99 45.07 6.99"/><path d="M151.89,84.5h0Z"/><path class="cls-5" d="M151.89,84.5h0Z"/><path d="M151.89,109.43h-4.38V84.5Zm0,0Z"/><path class="cls-5" d="M151.89,109.43h-4.38V84.5Zm0,0Z"/><polygon points="147.51 84.5 151.89 84.5 151.89 109.43 147.51 84.5"/><polygon class="cls-5" points="147.51 84.5 151.89 84.5 151.89 109.43 147.51 84.5"/><path d="M151.89,7h0Z"/><path class="cls-5" d="M151.89,7h0Z"/><path d="M151.89,38.67h-4.38V7Zm0,0Z"/><path class="cls-5" d="M151.89,38.67h-4.38V7Zm0,0Z"/><polygon points="147.51 6.99 151.89 6.99 151.89 38.67 147.51 6.99"/><polygon class="cls-5" points="147.51 6.99 151.89 6.99 151.89 38.67 147.51 6.99"/><line class="cls-5" x1="151.89" y1="84.5" x2="147.51" y2="84.5"/><line class="cls-5" x1="151.89" y1="38.67" x2="147.51" y2="38.67"/><line class="cls-5" x1="151.89" y1="109.43" x2="151.89" y2="84.5"/><polyline class="cls-5" points="151.89 38.67 151.89 6.99 147.51 6.99 147.51 38.67"/><line class="cls-5" x1="147.51" y1="84.5" x2="147.51" y2="109.43"/><line class="cls-5" x1="151.89" y1="84.5" x2="151.89" y2="81.8"/><line class="cls-5" x1="147.51" y1="84.5" x2="147.51" y2="81.8"/><line class="cls-5" x1="151.89" y1="38.67" x2="151.89" y2="41.36"/><line class="cls-5" x1="147.51" y1="38.67" x2="147.51" y2="41.36"/><line class="cls-5" x1="147.51" y1="81.8" x2="151.89" y2="81.8"/><polyline class="cls-5" points="147.51 41.36 151.89 41.36 172.11 76.41"/><path class="cls-5" d="M151.72,81.46a40.32,40.32,0,0,0,20.14-5.39"/><path d="M45.07,76.07h0Z"/><path class="cls-5" d="M45.07,76.07h0Z"/><path d="M45.07,80.45H20.47V76.07Zm0,0Z"/><path class="cls-5" d="M45.07,80.45H20.47V76.07Zm0,0Z"/><polygon points="20.47 76.07 45.07 76.07 45.07 80.45 20.47 76.07"/><polygon class="cls-5" points="20.47 76.07 45.07 76.07 45.07 80.45 20.47 76.07"/><polyline class="cls-5" points="45.07 76.07 20.47 76.07 20.47 80.45 45.07 80.45"/><path d="M278.94,109.43H267.48V23.16Zm0,0Z"/><path class="cls-5" d="M278.94,109.43H267.48V23.16Zm0,0Z"/><polygon points="267.48 23.16 278.94 23.16 278.94 109.43 267.48 23.16"/><polygon class="cls-5" points="267.48 23.16 278.94 23.16 278.94 109.43 267.48 23.16"/><polyline class="cls-5" points="267.48 23.16 267.48 109.43 278.94 109.43 278.94 11.71"/><path d="M8.67,11.71h0Z"/><path class="cls-5" d="M8.67,11.71h0Z"/><path d="M20.47,109.43H8.67V11.71Zm0,0Z"/><path class="cls-5" d="M20.47,109.43H8.67V11.71Zm0,0Z"/><polygon points="8.68 11.71 20.47 11.71 20.47 109.43 8.68 11.71"/><polygon class="cls-5" points="8.68 11.71 20.47 11.71 20.47 109.43 8.68 11.71"/><polyline class="cls-5" points="8.68 0.25 8.68 109.43 20.47 109.43 20.47 11.71"/><path d="M8.67,166.72h0Z"/><path class="cls-5" d="M8.67,166.72h0Z"/><path d="M20.47,360.49H8.67V166.72Zm0,0Z"/><path class="cls-5" d="M20.47,360.49H8.67V166.72Zm0,0Z"/><polygon points="8.68 166.72 20.47 166.72 20.47 360.49 8.68 166.72"/><polygon class="cls-5" points="8.68 166.72 20.47 166.72 20.47 360.49 8.68 166.72"/><path d="M8.67,360.49h0Z"/><path class="cls-5" d="M8.67,360.49h0Z"/><path d="M20.47,370.93H8.67V360.49Zm0,0Z"/><path class="cls-5" d="M20.47,370.93H8.67V360.49Zm0,0Z"/><polygon points="8.68 360.49 20.47 360.49 20.47 370.93 8.68 360.49"/><polygon class="cls-5" points="8.68 360.49 20.47 360.49 20.47 370.93 8.68 360.49"/><line class="cls-5" x1="8.67" y1="166.72" x2="8.67" y2="360.49"/><polyline class="cls-5" points="8.68 370.93 20.47 370.93 20.47 166.72 8.68 166.72"/><path d="M267.48,166.72h0Z"/><path class="cls-5" d="M267.48,166.72h0Z"/><path d="M278.94,360.49H267.48V166.72Zm0,0Z"/><path class="cls-5" d="M278.94,360.49H267.48V166.72Zm0,0Z"/><polygon points="267.48 166.72 278.94 166.72 278.94 360.49 267.48 166.72"/><polygon class="cls-5" points="267.48 166.72 278.94 166.72 278.94 360.49 267.48 166.72"/><path d="M267.48,360.49h0Z"/><path class="cls-5" d="M267.48,360.49h0Z"/><path d="M278.94,370.93H267.48V360.49Zm0,0Z"/><path class="cls-5" d="M278.94,370.93H267.48V360.49Zm0,0Z"/><polygon points="267.48 360.49 278.94 360.49 278.94 370.93 267.48 360.49"/><polygon class="cls-5" points="267.48 360.49 278.94 360.49 278.94 370.93 267.48 360.49"/><line class="cls-5" x1="267.48" y1="166.72" x2="267.48" y2="360.49"/><polyline class="cls-5" points="267.48 370.93 278.94 370.93 278.94 166.72 267.48 166.72"/><polyline points="8.68 0.25 172.79 0.25 8.68 0.25"/><polyline class="cls-5" points="8.68 0.25 172.79 0.25 8.68 0.25"/><polyline points="8.68 0.25 172.79 11.71 8.68 11.71"/><polyline points="8.68 11.71 172.79 11.71 172.79 11.71 8.68 11.71"/><polyline class="cls-5" points="8.68 0.25 172.79 11.71 8.68 11.71"/><polyline class="cls-5" points="8.68 11.71 172.79 11.71 172.79 11.71 8.68 11.71"/><polyline points="8.68 0.25 172.79 0.25 172.79 11.71 8.68 0.25"/><polyline class="cls-5" points="8.68 0.25 172.79 0.25 172.79 11.71 8.68 0.25"/><path d="M230.07.25l10.45,11.46H230.07Zm10.45,0H230.07l10.45,11.46Z"/><path class="cls-5" d="M230.07.25l10.45,11.46H230.07Zm10.45,0H230.07l10.45,11.46Z"/><line class="cls-5" x1="230.07" y1="11.71" x2="230.07" y2="0.25"/><line class="cls-5" x1="172.79" y1="11.71" x2="172.79" y2="0.25"/><line class="cls-5" x1="240.52" y1="0.25" x2="230.07" y2="0.25"/><line class="cls-5" x1="8.67" y1="11.71" x2="8.67" y2="11.71"/><line class="cls-5" x1="172.79" y1="0.25" x2="8.67" y2="0.25"/><line class="cls-5" x1="20.47" y1="11.71" x2="172.79" y2="11.71"/><polyline class="cls-5" points="230.07 11.71 240.52 11.71 240.52 0.25"/><path class="cls-5" d="M174.81,11.54a52.74,52.74,0,0,0,52.74,52.74"/><path d="M172.79.25h0Z"/><path class="cls-5" d="M172.79.25h0Z"/><path d="M174.81,11.71h-2V.25Zm0,0Z"/><path class="cls-5" d="M174.81,11.71h-2V.25Zm0,0Z"/><polygon points="172.79 0.25 174.81 0.25 174.81 11.71 172.79 0.25"/><polygon class="cls-5" points="172.79 0.25 174.81 0.25 174.81 11.71 172.79 0.25"/><path d="M227.71.25h0Z"/><path class="cls-5" d="M227.71.25h0Z"/><path d="M230.07,11.71h-2.36V.25Zm0,0Z"/><path class="cls-5" d="M230.07,11.71h-2.36V.25Zm0,0Z"/><polygon points="227.71 0.25 230.07 0.25 230.07 11.71 227.71 0.25"/><polygon class="cls-5" points="227.71 0.25 230.07 0.25 230.07 11.71 227.71 0.25"/><polyline class="cls-5" points="172.79 0.25 174.81 0.25 174.81 11.71 172.79 11.71 172.79 0.25"/><polyline class="cls-5" points="230.07 11.71 227.71 11.71 227.71 0.25 230.07 0.25 230.07 11.71"/><line class="cls-5" x1="227.71" y1="11.71" x2="227.71" y2="64.61"/><line class="cls-5" x1="172.79" y1="11.71" x2="172.79" y2="0.25"/><line class="cls-5" x1="230.07" y1="11.71" x2="230.07" y2="0.25"/><polygon class="cls-5" points="99.66 467.31 99.66 434.29 101.01 434.29 101.01 468.66 48.1 468.66 48.1 434.29 49.79 434.29 49.79 467.31 99.66 467.31"/><polyline class="cls-5" points="100.33 434.29 100.33 467.98 48.78 467.98 48.78 434.29"/><polyline class="cls-5" points="54.84 113.81 54.84 148.52 89.21 148.52 89.21 113.81 72.03 113.81 54.84 113.81"/><polyline class="cls-5" points="57.2 116.17 57.2 146.16 86.86 146.16 86.86 116.17 72.03 116.17 57.2 116.17"/><line class="cls-5" x1="151.89" y1="109.43" x2="151.89" y2="109.43"/><line class="cls-5" x1="151.89" y1="119.54" x2="151.89" y2="137.07"/><line class="cls-5" x1="151.89" y1="146.16" x2="151.89" y2="147.66"/><line class="cls-6" x1="151.89" y1="150.68" x2="151.89" y2="191.35"/><line class="cls-5" x1="151.89" y1="192.85" x2="151.89" y2="194.35"/><line class="cls-5" x1="151.89" y1="199.07" x2="151.89" y2="216.26"/><line class="cls-5" x1="151.89" y1="217.27" x2="151.89" y2="217.27"/><polyline class="cls-5" points="54.84 148.52 151.89 148.52 151.89 113.81"/><line class="cls-5" x1="20.47" y1="217.27" x2="20.47" y2="217.27"/><line class="cls-5" x1="42.37" y1="217.27" x2="59.56" y2="217.27"/><line class="cls-5" x1="68.99" y1="217.27" x2="86.18" y2="217.27"/><line class="cls-5" x1="95.28" y1="217.27" x2="112.47" y2="217.27"/><line class="cls-5" x1="121.9" y1="217.27" x2="139.09" y2="217.27"/><polyline class="cls-5" points="151.89 217.27 151.89 217.27 20.47 217.27"/><line class="cls-5" x1="54.84" y1="148.52" x2="54.84" y2="217.27"/><polyline class="cls-5" points="54.84 194.35 151.89 194.35 151.89 217.27"/><line class="cls-5" x1="8.67" y1="217.27" x2="8.67" y2="217.27"/><path d="M8.67,109.43h0Z"/><path class="cls-5" d="M8.67,109.43h0Z"/><path d="M20.47,166.72H8.67V109.43Zm0,0Z"/><path class="cls-5" d="M20.47,166.72H8.67V109.43Zm0,0Z"/><polygon points="8.68 109.43 20.47 109.43 20.47 166.72 8.68 109.43"/><polygon class="cls-5" points="8.68 109.43 20.47 109.43 20.47 166.72 8.68 109.43"/><polyline class="cls-5" points="8.68 109.43 8.68 166.72 20.47 166.72 20.47 109.43 8.68 109.43"/><path d="M267.48,109.43h0Z"/><path class="cls-5" d="M267.48,109.43h0Z"/><path d="M278.94,166.72H267.48V109.43Zm0,0Z"/><path class="cls-5" d="M278.94,166.72H267.48V109.43Zm0,0Z"/><polygon points="267.48 109.43 278.94 109.43 278.94 166.72 267.48 109.43"/><polygon class="cls-5" points="267.48 109.43 278.94 109.43 278.94 166.72 267.48 109.43"/><polyline class="cls-5" points="267.48 109.43 267.48 166.72 278.94 166.72 278.94 109.43 267.48 109.43"/><path d="M267.48,370.93h0Z"/><path class="cls-5" d="M267.48,370.93h0Z"/><path d="M278.94,414.07H267.48V370.93Zm0,0Z"/><path class="cls-5" d="M278.94,414.07H267.48V370.93Zm0,0Z"/><polygon points="267.48 370.93 278.94 370.93 278.94 414.07 267.48 370.93"/><polygon class="cls-5" points="267.48 370.93 278.94 370.93 278.94 414.07 267.48 370.93"/><polyline class="cls-5" points="267.48 370.93 267.48 414.07 278.94 414.07 278.94 370.93 267.48 370.93"/></svg>