<svg id="_45" data-name="45" xmlns="http://www.w3.org/2000/svg" viewBox="0 0 317.56 467.48"><defs><style>.cls-1,.cls-3,.cls-5{fill:none;}.cls-1{stroke:#969696;stroke-miterlimit:10;}.cls-2{isolation:isolate;font-size:12px;fill:#969696;}.cls-2,.cls-4{font-family:PTSans-Regular, PT Sans;}.cls-3,.cls-5{stroke:#000;stroke-linecap:round;stroke-linejoin:round;}.cls-3{stroke-width:1px;}.cls-4{font-size:17px;}.cls-5{stroke-width:0.77px;}</style></defs><title>7floor_45flat</title><line class="cls-1" x1="140.49" y1="464.94" x2="140.49" y2="456.14"/><polyline class="cls-1" points="137.09 461.64 140.59 465.14 144.09 461.64"/><text class="cls-2" transform="translate(149.93 464.54)">двор</text><polyline class="cls-3" points="10.34 351.14 149.06 351.14 149.06 132.02 99.38 132.02 10.34 132.02 10.34 351.14"/><polyline class="cls-3" points="195.38 368.18 192.98 368.18 189.62 368.18"/><line class="cls-3" x1="195.38" y1="404.66" x2="195.38" y2="368.18"/><line class="cls-3" x1="189.62" y1="399.86" x2="189.62" y2="368.18"/><polyline class="cls-3" points="195.38 404.66 195.38 399.62 192.98 399.62 192.98 402.74"/><polyline class="cls-3" points="192.98 368.18 192.98 371.06 195.38 371.06 195.38 368.18"/><line class="cls-3" x1="195.38" y1="399.62" x2="195.38" y2="371.06"/><line class="cls-3" x1="192.98" y1="371.06" x2="192.98" y2="399.62"/><line class="cls-3" x1="192.98" y1="402.74" x2="195.38" y2="402.74"/><line class="cls-3" x1="195.38" y1="368.18" x2="192.98" y2="368.18"/><line class="cls-3" x1="27.38" y1="433.94" x2="195.38" y2="404.66"/><line class="cls-3" x1="33.14" y1="426.98" x2="189.62" y2="399.86"/><polyline class="cls-3" points="29.78 431.06 32.66 430.58 33.14 432.98 27.38 433.94"/><polyline class="cls-3" points="195.38 404.66 190.34 405.62 190.1 403.22 192.98 402.74"/><line class="cls-3" x1="32.66" y1="430.58" x2="190.1" y2="403.22"/><line class="cls-3" x1="190.34" y1="405.62" x2="33.14" y2="432.98"/><line class="cls-3" x1="30.26" y1="433.46" x2="29.78" y2="431.06"/><line class="cls-3" x1="193.22" y1="405.14" x2="192.98" y2="402.74"/><polyline class="cls-3" points="27.38 368.18 29.78 368.18 33.14 368.18"/><line class="cls-3" x1="27.38" y1="433.94" x2="27.38" y2="368.18"/><line class="cls-3" x1="33.14" y1="426.98" x2="33.14" y2="368.18"/><polyline class="cls-3" points="27.38 433.94 27.38 428.18 29.78 428.18 29.78 431.06"/><polyline class="cls-3" points="29.78 368.18 29.78 371.06 27.38 371.06 27.38 368.18"/><line class="cls-3" x1="27.38" y1="428.18" x2="27.38" y2="371.06"/><line class="cls-3" x1="29.78" y1="371.06" x2="29.78" y2="428.18"/><line class="cls-3" x1="29.78" y1="431.06" x2="27.38" y2="431.06"/><line class="cls-3" x1="27.38" y1="368.18" x2="29.78" y2="368.18"/><polyline class="cls-3" points="308.66 368.18 311.06 368.18 314.42 368.18"/><line class="cls-3" x1="308.66" y1="368.18" x2="311.06" y2="368.18"/><polyline class="cls-3" points="33.14 426.98 189.62 399.86 189.62 368.18 33.14 368.18 33.14 426.98"/><polyline class="cls-3" points="307.46 166.1 209.06 166.1 209.06 96.98 158.9 96.98 158.9 141.62 152.9 141.62 152.9 314.66 158.9 314.66 158.9 351.14 307.46 351.14 307.46 314.66 307.46 166.1"/><polyline class="cls-3" points="149.06 92.9 204.98 92.9 204.98 10.1 94.58 10.1 94.58 127.94 149.06 127.94 149.06 92.9"/><polyline class="cls-3" points="90.74 127.94 90.74 28.58 10.34 28.58 10.34 92.9 10.34 127.94 90.74 127.94"/><polyline class="cls-3" points="209.06 166.1 307.46 166.1 307.46 141.62 307.46 92.9 307.46 67.7 209.06 67.7 209.06 96.98 209.06 166.1"/><polyline class="cls-3" points="209.06 63.86 283.94 63.86 283.94 10.1 209.06 10.1 209.06 63.86"/><polyline class="cls-3" points="231.38 0.5 317.06 0.5 317.06 24.5"/><polyline class="cls-3" points="0.5 0.5 29.78 0.5 221.54 0.5"/><polyline points="0.5 363.38 37.94 363.38 0.5 363.38"/><polyline points="0.5 363.38 37.94 363.38 37.94 363.38 0.5 363.38"/><polyline class="cls-3" points="0.5 363.38 37.94 363.38 0.5 363.38"/><polyline class="cls-3" points="0.5 363.38 37.94 363.38 37.94 363.38 0.5 363.38"/><polyline points="0.5 363.38 39.86 368.18 0.5 368.18"/><polyline points="0.5 363.38 39.86 368.18 39.86 363.38 0.5 363.38"/><polyline class="cls-3" points="0.5 363.38 39.86 368.18 0.5 368.18"/><polyline class="cls-3" points="0.5 363.38 39.86 368.18 39.86 363.38 0.5 363.38"/><path d="M196.34,363.38h0Zm1.92,0h0Z"/><path class="cls-3" d="M196.34,363.38h0Zm1.92,0h0Z"/><path d="M116.42,363.38l81.84,4.8H116.42Zm81.84,0H116.42l81.84,4.8Z"/><path class="cls-3" d="M116.42,363.38l81.84,4.8H116.42Zm81.84,0H116.42l81.84,4.8Z"/><polyline points="315.14 363.38 287.3 363.38 289.46 363.38 315.14 363.38"/><polyline points="315.14 363.38 287.3 363.38 315.14 363.38"/><polyline class="cls-3" points="315.14 363.38 287.3 363.38 289.46 363.38 315.14 363.38"/><polyline class="cls-3" points="315.14 363.38 287.3 363.38 315.14 363.38"/><polyline points="317.06 368.18 287.3 368.18 287.3 363.38 317.06 368.18"/><polyline points="317.06 363.38 287.3 363.38 317.06 368.18"/><polyline class="cls-3" points="317.06 368.18 287.3 368.18 287.3 363.38 317.06 368.18"/><polyline class="cls-3" points="317.06 363.38 287.3 363.38 317.06 368.18"/><polyline points="315.14 363.38 317.06 363.38 315.14 363.38"/><polyline class="cls-3" points="315.14 363.38 317.06 363.38 315.14 363.38"/><path d="M307.46,351.14h0Z"/><path class="cls-3" d="M307.46,351.14h0Z"/><path d="M317.06,363.38h-9.6V351.14Zm0,0Z"/><path class="cls-3" d="M317.06,363.38h-9.6V351.14Zm0,0Z"/><polygon points="307.46 351.14 317.06 351.14 317.06 363.38 307.46 351.14"/><polygon class="cls-3" points="307.46 351.14 317.06 351.14 317.06 363.38 307.46 351.14"/><path d="M158.9,351.14h0Z"/><path class="cls-3" d="M158.9,351.14h0Z"/><path d="M158.9,351.14l37.44,9.6H158.9Zm37.44,0H158.9l37.44,9.6Z"/><path class="cls-3" d="M158.9,351.14l37.44,9.6H158.9Zm37.44,0H158.9l37.44,9.6Z"/><path d="M196.34,363.38H158.9v-2.64Zm0,0Z"/><path class="cls-3" d="M196.34,363.38H158.9v-2.64Zm0,0Z"/><polygon points="158.9 360.74 196.34 360.74 196.34 363.38 158.9 360.74"/><polygon class="cls-3" points="158.9 360.74 196.34 360.74 196.34 363.38 158.9 360.74"/><path d="M307.46,351.14h0Z"/><path class="cls-3" d="M307.46,351.14h0Z"/><path d="M289.46,351.14l18,9.6h-18Zm18,0h-18l18,9.6Z"/><path class="cls-3" d="M289.46,351.14l18,9.6h-18Zm18,0h-18l18,9.6Z"/><path d="M307.46,363.38h-18v-2.64Zm0,0Z"/><path class="cls-3" d="M307.46,363.38h-18v-2.64Zm0,0Z"/><polygon points="289.46 360.74 307.46 360.74 307.46 363.38 289.46 360.74"/><polygon class="cls-3" points="289.46 360.74 307.46 360.74 307.46 363.38 289.46 360.74"/><path d="M149.06,351.14h0Z"/><path class="cls-3" d="M149.06,351.14h0Z"/><path d="M158.9,363.38h-9.84V351.14Zm0,0Z"/><path class="cls-3" d="M158.9,363.38h-9.84V351.14Zm0,0Z"/><polygon points="149.06 351.14 158.9 351.14 158.9 363.38 149.06 351.14"/><polygon class="cls-3" points="149.06 351.14 158.9 351.14 158.9 363.38 149.06 351.14"/><polyline points="0.5 351.14 37.94 351.14 0.5 351.14"/><polyline class="cls-3" points="0.5 351.14 37.94 351.14 0.5 351.14"/><polyline points="0.5 351.14 37.94 360.74 0.5 360.74"/><polyline points="0.5 351.14 37.94 360.74 37.94 351.14 0.5 351.14"/><polyline class="cls-3" points="0.5 351.14 37.94 360.74 0.5 360.74"/><polyline class="cls-3" points="0.5 351.14 37.94 360.74 37.94 351.14 0.5 351.14"/><polyline points="0.5 360.74 37.94 363.38 0.5 363.38"/><polyline points="0.5 363.38 37.94 363.38 37.94 363.38 0.5 363.38"/><polyline class="cls-3" points="0.5 360.74 37.94 363.38 0.5 363.38"/><polyline class="cls-3" points="0.5 363.38 37.94 363.38 37.94 363.38 0.5 363.38"/><polyline points="0.5 360.74 37.94 360.74 37.94 363.38 0.5 360.74"/><polyline class="cls-3" points="0.5 360.74 37.94 360.74 37.94 363.38 0.5 360.74"/><path d="M149.06,351.14h0Z"/><path class="cls-3" d="M149.06,351.14h0Z"/><path d="M118.34,351.14l30.72,9.6H118.34Zm30.72,0H118.34l30.72,9.6Z"/><path class="cls-3" d="M118.34,351.14l30.72,9.6H118.34Zm30.72,0H118.34l30.72,9.6Z"/><path d="M149.06,363.38H118.34v-2.64Zm0,0Z"/><path class="cls-3" d="M149.06,363.38H118.34v-2.64Zm0,0Z"/><polygon points="118.34 360.74 149.06 360.74 149.06 363.38 118.34 360.74"/><polygon class="cls-3" points="118.34 360.74 149.06 360.74 149.06 363.38 118.34 360.74"/><line class="cls-3" x1="317.06" y1="363.38" x2="315.14" y2="363.38"/><line class="cls-3" x1="307.46" y1="351.14" x2="307.46" y2="363.38"/><polyline class="cls-3" points="307.46 363.38 317.06 368.18 317.06 351.14"/><line class="cls-3" x1="158.9" y1="363.38" x2="196.34" y2="363.38"/><line class="cls-3" x1="289.46" y1="363.38" x2="307.46" y2="363.38"/><line class="cls-3" x1="149.06" y1="351.14" x2="149.06" y2="363.38"/><polyline class="cls-3" points="149.06 363.38 158.9 363.38 158.9 351.14"/><line class="cls-3" x1="118.34" y1="363.38" x2="149.06" y2="363.38"/><line class="cls-3" x1="0.5" y1="363.38" x2="37.94" y2="363.38"/><line class="cls-3" x1="196.34" y1="360.74" x2="196.34" y2="351.14"/><polyline class="cls-3" points="198.26 368.18 198.26 363.38 196.34 363.38 196.34 360.74"/><line class="cls-3" x1="289.46" y1="360.74" x2="289.46" y2="351.14"/><polyline class="cls-3" points="287.3 368.18 287.3 363.38 289.46 363.38 289.46 360.74"/><line class="cls-3" x1="118.34" y1="360.74" x2="118.34" y2="351.14"/><polyline class="cls-3" points="116.42 368.18 116.42 363.38 118.34 363.38 118.34 360.74"/><line class="cls-3" x1="37.94" y1="360.74" x2="37.94" y2="351.14"/><polyline class="cls-3" points="39.86 368.18 39.86 363.38 37.94 363.38 37.94 360.74"/><line class="cls-3" x1="307.46" y1="351.14" x2="289.46" y2="351.14"/><line class="cls-3" x1="196.34" y1="351.14" x2="158.9" y2="351.14"/><line class="cls-3" x1="149.06" y1="351.14" x2="118.34" y2="351.14"/><line class="cls-3" x1="37.94" y1="351.14" x2="0.5" y2="351.14"/><line class="cls-3" x1="0.5" y1="368.18" x2="39.86" y2="368.18"/><line class="cls-3" x1="116.42" y1="368.18" x2="198.26" y2="368.18"/><line class="cls-3" x1="287.3" y1="368.18" x2="317.06" y2="368.18"/><line class="cls-3" x1="287.3" y1="368.18" x2="198.26" y2="368.18"/><line class="cls-3" x1="289.46" y1="351.14" x2="196.34" y2="351.14"/><path d="M285.38,360.74h0Z"/><path class="cls-3" d="M285.38,360.74h0Z"/><path d="M289.46,363.38h-4.08v-2.64Zm0,0Z"/><path class="cls-3" d="M289.46,363.38h-4.08v-2.64Zm0,0Z"/><polygon points="285.38 360.74 289.46 360.74 289.46 363.38 285.38 360.74"/><polygon class="cls-3" points="285.38 360.74 289.46 360.74 289.46 363.38 285.38 360.74"/><path d="M254.66,360.74h0Z"/><path class="cls-3" d="M254.66,360.74h0Z"/><path d="M257.3,363.38h-2.64v-2.64Zm0,0Z"/><path class="cls-3" d="M257.3,363.38h-2.64v-2.64Zm0,0Z"/><polygon points="254.66 360.74 257.3 360.74 257.3 363.38 254.66 360.74"/><polygon class="cls-3" points="254.66 360.74 257.3 360.74 257.3 363.38 254.66 360.74"/><path d="M252.26,360.74h0Z"/><path class="cls-3" d="M252.26,360.74h0Z"/><path d="M254.66,363.38h-2.4v-2.64Zm0,0Z"/><path class="cls-3" d="M254.66,363.38h-2.4v-2.64Zm0,0Z"/><polygon points="252.26 360.74 254.66 360.74 254.66 363.38 252.26 360.74"/><polygon class="cls-3" points="252.26 360.74 254.66 360.74 254.66 363.38 252.26 360.74"/><path d="M196.34,360.74h0Z"/><path class="cls-3" d="M196.34,360.74h0Z"/><path d="M200.18,363.38h-3.84v-2.64Zm0,0Z"/><path class="cls-3" d="M200.18,363.38h-3.84v-2.64Zm0,0Z"/><polygon points="196.34 360.74 200.18 360.74 200.18 363.38 196.34 360.74"/><polygon class="cls-3" points="196.34 360.74 200.18 360.74 200.18 363.38 196.34 360.74"/><polyline class="cls-3" points="289.46 360.74 285.38 360.74 285.38 363.38 289.46 363.38"/><polyline class="cls-3" points="254.66 363.38 257.3 363.38 257.3 360.74 254.66 360.74"/><line class="cls-3" x1="285.38" y1="360.74" x2="257.3" y2="360.74"/><line class="cls-3" x1="257.3" y1="363.38" x2="285.38" y2="363.38"/><polyline class="cls-3" points="254.66 360.74 252.26 360.74 252.26 363.38 254.66 363.38"/><polyline class="cls-3" points="196.34 363.38 200.18 363.38 200.18 360.74 196.34 360.74"/><line class="cls-3" x1="252.26" y1="360.74" x2="200.18" y2="360.74"/><line class="cls-3" x1="200.18" y1="363.38" x2="252.26" y2="363.38"/><polyline class="cls-3" points="287.3 363.38 289.46 363.38 289.46 360.74"/><polyline class="cls-3" points="198.26 363.38 196.34 363.38 196.34 360.74"/><line class="cls-3" x1="39.86" y1="368.18" x2="116.42" y2="368.18"/><line class="cls-3" x1="37.94" y1="351.14" x2="118.34" y2="351.14"/><path d="M37.94,360.74h0Z"/><path class="cls-3" d="M37.94,360.74h0Z"/><path d="M42,363.38H37.94v-2.64Zm0,0Z"/><path class="cls-3" d="M42,363.38H37.94v-2.64Zm0,0Z"/><polygon points="37.94 360.74 42.02 360.74 42.02 363.38 37.94 360.74"/><polygon class="cls-3" points="37.94 360.74 42.02 360.74 42.02 363.38 37.94 360.74"/><path d="M75.86,360.74h0Z"/><path class="cls-3" d="M75.86,360.74h0Z"/><path d="M78.26,363.38h-2.4v-2.64Zm0,0Z"/><path class="cls-3" d="M78.26,363.38h-2.4v-2.64Zm0,0Z"/><polygon points="75.86 360.74 78.26 360.74 78.26 363.38 75.86 360.74"/><polygon class="cls-3" points="75.86 360.74 78.26 360.74 78.26 363.38 75.86 360.74"/><path d="M78.26,360.74h0Z"/><path class="cls-3" d="M78.26,360.74h0Z"/><path d="M80.66,363.38h-2.4v-2.64Zm0,0Z"/><path class="cls-3" d="M80.66,363.38h-2.4v-2.64Zm0,0Z"/><polygon points="78.26 360.74 80.66 360.74 80.66 363.38 78.26 360.74"/><polygon class="cls-3" points="78.26 360.74 80.66 360.74 80.66 363.38 78.26 360.74"/><path d="M114.5,360.74h0Z"/><path class="cls-3" d="M114.5,360.74h0Z"/><path d="M118.34,363.38H114.5v-2.64Zm0,0Z"/><path class="cls-3" d="M118.34,363.38H114.5v-2.64Zm0,0Z"/><polygon points="114.5 360.74 118.34 360.74 118.34 363.38 114.5 360.74"/><polygon class="cls-3" points="114.5 360.74 118.34 360.74 118.34 363.38 114.5 360.74"/><polyline class="cls-3" points="37.94 363.38 42.02 363.38 42.02 360.74 37.94 360.74"/><polyline class="cls-3" points="78.26 360.74 75.86 360.74 75.86 363.38 78.26 363.38"/><line class="cls-3" x1="42.02" y1="363.38" x2="75.86" y2="363.38"/><line class="cls-3" x1="75.86" y1="360.74" x2="42.02" y2="360.74"/><polyline class="cls-3" points="78.26 363.38 80.66 363.38 80.66 360.74 78.26 360.74"/><polyline class="cls-3" points="118.34 360.74 114.5 360.74 114.5 363.38 118.34 363.38"/><line class="cls-3" x1="80.66" y1="363.38" x2="114.5" y2="363.38"/><line class="cls-3" x1="114.5" y1="360.74" x2="80.66" y2="360.74"/><polyline class="cls-3" points="39.86 363.38 37.94 363.38 37.94 360.74"/><polyline class="cls-3" points="116.42 363.38 118.34 363.38 118.34 360.74"/><line class="cls-3" x1="13.7" y1="121.7" x2="13.7" y2="98.42"/><line class="cls-3" x1="16.34" y1="95.78" x2="73.22" y2="95.78"/><line class="cls-3" x1="16.34" y1="124.34" x2="73.22" y2="124.34"/><line class="cls-3" x1="89.06" y1="92.9" x2="11.3" y2="92.9"/><polyline class="cls-3" points="89.06 92.9 89.06 126.98 11.3 126.98 11.3 92.9"/><line class="cls-3" x1="64.1" y1="119.54" x2="19.7" y2="119.54"/><line class="cls-3" x1="18.26" y1="118.34" x2="18.26" y2="101.78"/><line class="cls-3" x1="64.1" y1="100.34" x2="19.7" y2="100.34"/><line class="cls-3" x1="27.38" y1="110.9" x2="27.38" y2="112.58"/><line class="cls-3" x1="26.66" y1="109.94" x2="24.98" y2="109.94"/><line class="cls-3" x1="27.38" y1="109.22" x2="27.38" y2="107.54"/><line class="cls-3" x1="28.34" y1="109.94" x2="29.78" y2="109.94"/><polyline class="cls-3" points="73.22 124.34 75.62 124.1 78.02 123.38 80.42 122.18 82.34 120.5 84.02 118.58 85.46 116.42 86.18 114.02 86.66 111.38 86.66 108.74 86.18 106.1 85.46 103.7 84.02 101.3 82.34 99.38 80.42 97.94 78.02 96.74 75.62 96.02 73.22 95.78"/><polyline class="cls-3" points="16.34 95.78 15.86 95.78 15.62 95.78 15.14 96.02 14.66 96.26 14.42 96.74 14.18 96.98 13.94 97.46 13.94 97.94 13.7 98.42"/><polyline class="cls-3" points="13.7 121.7 13.94 122.18 13.94 122.42 14.18 122.9 14.42 123.38 14.66 123.62 15.14 123.86 15.62 124.1 15.86 124.34 16.34 124.34"/><polyline class="cls-3" points="27.38 108.5 27.14 108.5 26.9 108.74 26.66 108.74 26.42 108.98 26.42 109.22 26.18 109.46 26.18 109.7 26.18 109.94 26.18 110.18 26.18 110.42 26.18 110.66 26.42 110.9 26.66 111.14 26.9 111.38 27.14 111.38 27.38 111.38 27.62 111.38 27.86 111.38 28.1 111.38 28.34 111.14 28.58 110.9 28.58 110.66 28.82 110.42 28.82 110.18 28.82 109.94 28.82 109.7 28.58 109.46 28.58 109.22 28.34 108.98 28.1 108.74 27.86 108.74 27.62 108.5 27.38 108.5"/><polyline class="cls-3" points="64.1 119.54 65.78 119.54 67.22 119.06 68.9 118.1 70.1 117.14 71.3 115.7 72.26 114.26 72.74 112.58 73.22 110.9 73.22 109.22 72.74 107.3 72.26 105.86 71.3 104.18 70.1 102.98 68.9 101.78 67.22 101.06 65.78 100.58 64.1 100.34"/><polyline class="cls-3" points="18.26 118.34 18.26 118.58 18.5 118.58 18.5 118.82 18.74 119.06 18.74 119.3 18.98 119.3 19.22 119.54 19.46 119.54 19.7 119.54"/><polyline class="cls-3" points="19.7 100.34 19.46 100.34 19.22 100.58 18.98 100.58 18.74 100.82 18.5 101.06 18.5 101.3 18.26 101.54 18.26 101.78"/><polyline class="cls-3" points="27.38 108.02 27.14 108.26 26.9 108.26 26.42 108.5 26.18 108.74 25.94 108.98 25.7 109.22 25.7 109.46 25.7 109.94 25.7 110.18 25.7 110.66 25.94 110.9 26.18 111.38 26.42 111.62 26.66 111.62 26.9 111.86 27.38 111.86 27.62 111.86 27.86 111.86 28.34 111.62 28.58 111.62 28.82 111.38 29.06 110.9 29.06 110.66 29.3 110.18 29.3 109.94 29.3 109.46 29.06 109.22 28.82 108.98 28.82 108.74 28.34 108.5 28.1 108.26 27.86 108.26 27.38 108.02"/><polyline class="cls-3" points="22.34 64.34 11.3 64.34 11.3 90.5 22.34 90.5"/><line class="cls-3" x1="11.3" y1="81.62" x2="11.3" y2="73.22"/><line class="cls-3" x1="20.18" y1="79.7" x2="20.18" y2="78.26"/><line class="cls-3" x1="18.02" y1="77.3" x2="19.22" y2="77.3"/><line class="cls-3" x1="20.18" y1="76.58" x2="20.18" y2="75.14"/><line class="cls-3" x1="20.9" y1="77.3" x2="22.34" y2="77.3"/><path class="cls-3" d="M23,65.87a11.65,11.65,0,0,0-5.5,4.52"/><path class="cls-3" d="M17.53,70.21a11.6,11.6,0,0,0-1.63,6.94"/><path class="cls-3" d="M17.48,84.21A11.65,11.65,0,0,0,23,88.73"/><path class="cls-3" d="M15.9,77.21a11.6,11.6,0,0,0,1.63,6.94"/><path class="cls-3" d="M31.16,76.31a21.58,21.58,0,0,0-2.18-8"/><path class="cls-3" d="M22.18,90.25a6.6,6.6,0,0,0,5.43-2.46"/><path class="cls-3" d="M31,78.09a13.82,13.82,0,0,0,0-1.82"/><path class="cls-3" d="M17.87,69.83a47.61,47.61,0,0,0,0,14.69"/><path class="cls-3" d="M13.26,85.83a16.46,16.46,0,0,0,10.68,3.71"/><path class="cls-3" d="M11.54,77.17a33.08,33.08,0,0,0,.82,7.55"/><path class="cls-3" d="M12.32,84.88a2.27,2.27,0,0,0,.78,1.27"/><path class="cls-3" d="M12.5,77.26A54.5,54.5,0,0,0,13,84.69"/><path class="cls-3" d="M13.9,85.85a14.75,14.75,0,0,0,10,3.69"/><path class="cls-3" d="M13,84.69a2.31,2.31,0,0,0,.75,1.4"/><path class="cls-3" d="M23.83,64.82a14.81,14.81,0,0,0-9.95,3.7"/><path class="cls-3" d="M23.92,64.82a16.47,16.47,0,0,0-10.68,3.72"/><path class="cls-3" d="M13,69.75a57.61,57.61,0,0,0-.52,7.43"/><path class="cls-3" d="M12.35,69.69a33,33,0,0,0-.81,7.54"/><path class="cls-3" d="M13.75,68.51a2.31,2.31,0,0,0-.75,1.4"/><path class="cls-3" d="M13.09,68.46a2.25,2.25,0,0,0-.77,1.26"/><path class="cls-3" d="M27.61,66.57a6.6,6.6,0,0,0-5.43-2.46"/><path class="cls-3" d="M28.87,68.33a10.59,10.59,0,0,0-1.14-1.76"/><path class="cls-3" d="M27.73,88a10.59,10.59,0,0,0,1.14-1.76"/><path class="cls-3" d="M29,86.31a21.58,21.58,0,0,0,2.18-8"/><path class="cls-3" d="M29.35,80.81a15.63,15.63,0,0,0,0-7.26"/><path class="cls-3" d="M26.18,67.15a4,4,0,0,0-3.27-1.36"/><path class="cls-3" d="M29.08,73.74a14.19,14.19,0,0,0-3-6.56"/><path class="cls-3" d="M22.91,88.81a4,4,0,0,0,3.27-1.36"/><path class="cls-3" d="M26.07,87.42a14.19,14.19,0,0,0,3-6.56"/><path class="cls-3" d="M21.86,77.18a1.8,1.8,0,1,0-1.8,1.8,1.81,1.81,0,0,0,1.8-1.8"/><path class="cls-3" d="M21.38,77.18a1.32,1.32,0,1,0-1.32,1.32,1.32,1.32,0,0,0,1.32-1.32"/><line class="cls-3" x1="18.5" y1="56.42" x2="35.54" y2="56.42"/><polyline class="cls-3" points="17.54 57.14 11.3 57.14 11.3 39.14"/><line class="cls-3" x1="21.62" y1="48.26" x2="21.62" y2="41.54"/><polyline class="cls-3" points="35.54 56.42 21.62 54.74 21.62 48.26"/><line class="cls-3" x1="35.54" y1="39.86" x2="21.62" y2="41.54"/><line class="cls-3" x1="35.54" y1="55.94" x2="21.62" y2="54.5"/><line class="cls-3" x1="35.54" y1="40.34" x2="21.62" y2="42.02"/><line class="cls-3" x1="18.5" y1="39.86" x2="35.54" y2="39.86"/><line class="cls-3" x1="11.3" y1="39.14" x2="17.54" y2="39.14"/><polyline class="cls-3" points="35.54 56.42 37.46 56.18 39.14 55.46 40.82 54.26 42.02 52.82 42.98 51.14 43.22 49.22 43.22 47.06 42.98 45.14 42.02 43.46 40.82 42.02 39.14 40.82 37.46 40.1 35.54 39.86"/><polyline class="cls-3" points="35.54 55.94 37.22 55.7 38.9 55.22 40.34 54.02 41.54 52.58 42.5 50.9 42.98 49.22 42.98 47.3 42.5 45.38 41.54 43.7 40.34 42.26 38.9 41.3 37.22 40.58 35.54 40.34"/><polyline class="cls-3" points="17.54 57.14 17.78 57.14 18.02 57.14 18.02 56.9 18.26 56.9 18.5 56.66 18.5 56.42 18.74 56.18 18.98 48.26 18.74 40.1 18.5 39.86 18.5 39.62 18.26 39.38 18.02 39.38 18.02 39.14 17.78 39.14 17.54 39.14"/><polyline class="cls-3" points="16.1 48.26 16.1 48.02 16.1 47.78 15.86 47.54 15.62 47.3 15.38 47.3 15.14 47.3 14.9 47.3 14.66 47.54 14.42 47.54 14.42 47.78 14.42 48.02 14.42 48.26 14.42 48.5 14.42 48.74 14.66 48.74 14.9 48.98 15.14 48.98 15.38 48.98 15.62 48.98 15.86 48.98 15.86 48.74 16.1 48.74 16.1 48.5 16.1 48.26"/><polyline class="cls-3" points="90.74 50.66 61.46 50.66 61.46 28.58 90.74 28.58 90.74 50.66"/><path d="M158.9,351.14h-9.84V314.66Zm0,0Z"/><path class="cls-3" d="M158.9,351.14h-9.84V314.66Zm0,0Z"/><polygon points="149.06 314.66 158.9 314.66 158.9 351.14 149.06 314.66"/><polygon class="cls-3" points="149.06 314.66 158.9 314.66 158.9 351.14 149.06 314.66"/><line class="cls-3" x1="149.06" y1="314.66" x2="149.06" y2="351.14"/><polyline class="cls-3" points="158.9 351.14 158.9 314.66 149.06 314.66"/><path d="M.5,92.9h0Z"/><path class="cls-3" d="M.5,92.9h0Z"/><path d="M10.34,141.62H.5V92.9Zm0,0Z"/><path class="cls-3" d="M10.34,141.62H.5V92.9Zm0,0Z"/><polygon points="0.5 92.9 10.34 92.9 10.34 141.62 0.5 92.9"/><polygon class="cls-3" points="0.5 92.9 10.34 92.9 10.34 141.62 0.5 92.9"/><polyline class="cls-3" points="10.34 141.62 10.34 92.9 0.5 92.9 0.5 141.62 10.34 141.62"/><polyline points="0.5 0.5 29.78 0.5 0.5 0.5"/><polyline class="cls-3" points="0.5 0.5 29.78 0.5 0.5 0.5"/><polyline points="0.5 0.5 29.78 10.1 0.5 10.1"/><polyline points="0.5 10.1 29.78 10.1 29.78 10.1 0.5 10.1"/><polyline class="cls-3" points="0.5 0.5 29.78 10.1 0.5 10.1"/><polyline class="cls-3" points="0.5 10.1 29.78 10.1 29.78 10.1 0.5 10.1"/><polyline points="0.5 0.5 29.78 0.5 29.78 10.1 0.5 0.5"/><polyline class="cls-3" points="0.5 0.5 29.78 0.5 29.78 10.1 0.5 0.5"/><polyline class="cls-3" points="0.5 10.1 29.78 10.1 29.78 0.5"/><line class="cls-3" x1="29.78" y1="0.5" x2="0.5" y2="0.5"/><path d="M307.46,92.9h0Z"/><path class="cls-3" d="M307.46,92.9h0Z"/><path d="M317.06,141.62h-9.6V92.9Zm0,0Z"/><path class="cls-3" d="M317.06,141.62h-9.6V92.9Zm0,0Z"/><polygon points="307.46 92.9 317.06 92.9 317.06 141.62 307.46 92.9"/><polygon class="cls-3" points="307.46 92.9 317.06 92.9 317.06 141.62 307.46 92.9"/><polyline class="cls-3" points="317.06 141.62 317.06 92.9 307.46 92.9 307.46 141.62 317.06 141.62"/><path d="M307.46,314.66h0Z"/><path class="cls-3" d="M307.46,314.66h0Z"/><path d="M317.06,351.14h-9.6V314.66Zm0,0Z"/><path class="cls-3" d="M317.06,351.14h-9.6V314.66Zm0,0Z"/><polygon points="307.46 314.66 317.06 314.66 317.06 351.14 307.46 314.66"/><polygon class="cls-3" points="307.46 314.66 317.06 314.66 317.06 351.14 307.46 314.66"/><line class="cls-3" x1="307.46" y1="314.66" x2="307.46" y2="351.14"/><polyline class="cls-3" points="317.06 351.14 317.06 314.66 307.46 314.66"/><path d="M307.46.5h0Z"/><path class="cls-3" d="M307.46.5h0Z"/><path d="M317.06,49.22h-9.6V.5Zm0,0Z"/><path class="cls-3" d="M317.06,49.22h-9.6V.5Zm0,0Z"/><polygon points="307.46 0.5 317.06 0.5 317.06 49.22 307.46 0.5"/><polygon class="cls-3" points="307.46 0.5 317.06 0.5 317.06 49.22 307.46 0.5"/><polyline class="cls-3" points="317.06 49.22 317.06 0.5 307.46 0.5 307.46 49.22 317.06 49.22"/><path d="M10.34,314.66h0Z"/><path class="cls-3" d="M10.34,314.66h0Z"/><path d="M.5,314.66l9.84,48.72H.5Zm9.84,0H.5l9.84,48.72Z"/><path class="cls-3" d="M.5,314.66l9.84,48.72H.5Zm9.84,0H.5l9.84,48.72Z"/><polyline class="cls-3" points="10.34 363.38 10.34 314.66 0.5 314.66 0.5 368.18 10.34 363.38"/><path d="M209.06,58.82h0Z"/><path class="cls-3" d="M209.06,58.82h0Z"/><path d="M205,92.9h4.08V97Zm0-34.08V92.9h4.08Z"/><path class="cls-3" d="M205,92.9h4.08V97Zm0-34.08V92.9h4.08Z"/><polygon points="204.98 58.82 209.06 58.82 209.06 92.9 204.98 58.82"/><polygon class="cls-3" points="204.98 58.82 209.06 58.82 209.06 92.9 204.98 58.82"/><path d="M209.06,10.1h0Z"/><path class="cls-3" d="M209.06,10.1h0Z"/><path d="M209.06,19.94H205V10.1Zm0,0Z"/><path class="cls-3" d="M209.06,19.94H205V10.1Zm0,0Z"/><polygon points="204.98 10.1 209.06 10.1 209.06 19.94 204.98 10.1"/><polygon class="cls-3" points="204.98 10.1 209.06 10.1 209.06 19.94 204.98 10.1"/><line class="cls-3" x1="209.06" y1="58.82" x2="204.98" y2="58.82"/><line class="cls-3" x1="209.06" y1="19.94" x2="204.98" y2="19.94"/><line class="cls-3" x1="209.06" y1="96.98" x2="209.06" y2="67.7"/><line class="cls-3" x1="209.06" y1="63.86" x2="209.06" y2="58.82"/><polyline class="cls-3" points="209.06 19.94 209.06 10.1 204.98 10.1 204.98 19.94"/><line class="cls-3" x1="204.98" y1="58.82" x2="204.98" y2="92.9"/><line class="cls-3" x1="209.06" y1="58.82" x2="209.06" y2="56.42"/><line class="cls-3" x1="204.98" y1="58.82" x2="204.98" y2="56.42"/><line class="cls-3" x1="209.06" y1="19.94" x2="209.06" y2="22.34"/><line class="cls-3" x1="204.98" y1="19.94" x2="204.98" y2="22.34"/><line class="cls-3" x1="204.98" y1="56.42" x2="209.06" y2="56.42"/><polyline class="cls-3" points="204.98 22.34 209.06 22.34 226.1 51.86"/><path class="cls-3" d="M208.94,56.42A34.23,34.23,0,0,0,226,51.84"/><path d="M31,127.94h0Zm0,0Z"/><path class="cls-3" d="M31,127.94h0Zm0,0Z"/><path d="M31,127.94h0Z"/><path class="cls-3" d="M31,127.94h0Z"/><path d="M97.94,132H8.18v-4.08Zm0,0Z"/><path class="cls-3" d="M97.94,132H8.18v-4.08Zm0,0Z"/><polygon points="8.18 127.94 97.94 127.94 97.94 132.02 8.18 127.94"/><polygon class="cls-3" points="8.18 127.94 97.94 127.94 97.94 132.02 8.18 127.94"/><path d="M149.06,127.94h0Z"/><path class="cls-3" d="M149.06,127.94h0Z"/><path d="M149.06,132h-7.2v-4.08Zm0,0Z"/><path class="cls-3" d="M149.06,132h-7.2v-4.08Zm0,0Z"/><polygon points="141.86 127.94 149.06 127.94 149.06 132.02 141.86 127.94"/><polygon class="cls-3" points="141.86 127.94 149.06 127.94 149.06 132.02 141.86 127.94"/><line class="cls-3" x1="97.94" y1="132.02" x2="97.94" y2="127.94"/><line class="cls-3" x1="141.86" y1="132.02" x2="141.86" y2="127.94"/><line class="cls-3" x1="8.18" y1="132.02" x2="97.94" y2="132.02"/><line class="cls-3" x1="141.86" y1="132.02" x2="149.06" y2="132.02"/><line class="cls-3" x1="149.06" y1="127.94" x2="141.86" y2="127.94"/><line class="cls-3" x1="97.94" y1="127.94" x2="94.58" y2="127.94"/><polyline class="cls-3" points="90.74 127.94 8.18 127.94 8.18 132.02"/><line class="cls-3" x1="97.94" y1="132.02" x2="100.34" y2="132.02"/><line class="cls-3" x1="97.94" y1="127.94" x2="100.34" y2="127.94"/><line class="cls-3" x1="141.86" y1="132.02" x2="139.22" y2="132.02"/><line class="cls-3" x1="141.86" y1="127.94" x2="139.22" y2="127.94"/><line class="cls-3" x1="100.34" y1="127.94" x2="100.34" y2="132.02"/><polyline class="cls-3" points="139.22 127.94 139.22 132.02 139.22 170.9"/><path class="cls-3" d="M100.1,131.9a39,39,0,0,0,39,39"/><path d="M149.06,92.9Z"/><path class="cls-3" d="M149.06,92.9Z"/><path d="M149.06,92.9,152.9,97h-3.84ZM152.9,97l-3.84-4.08Z"/><path class="cls-3" d="M149.06,92.9,152.9,97h-3.84ZM152.9,97l-3.84-4.08Z"/><path d="M152.9,315.14h-3.84V97Zm0,0Z"/><path class="cls-3" d="M152.9,315.14h-3.84V97Zm0,0Z"/><polygon points="149.06 96.98 152.9 96.98 152.9 315.14 149.06 96.98"/><polygon class="cls-3" points="149.06 96.98 152.9 96.98 152.9 315.14 149.06 96.98"/><line class="cls-3" x1="149.06" y1="92.9" x2="149.06" y2="127.94"/><polyline class="cls-3" points="149.06 132.02 149.06 315.14 152.9 315.14 152.9 96.98"/><path d="M94.58,90.5h0Z"/><path class="cls-3" d="M94.58,90.5h0Z"/><path d="M94.58,127.94H90.74V90.5Zm0,0Z"/><path class="cls-3" d="M94.58,127.94H90.74V90.5Zm0,0Z"/><polygon points="90.74 90.5 94.58 90.5 94.58 127.94 90.74 90.5"/><polygon class="cls-3" points="90.74 90.5 94.58 90.5 94.58 127.94 90.74 90.5"/><path d="M94.58,10.1h0Z"/><path class="cls-3" d="M94.58,10.1h0Z"/><path d="M94.58,51.62H90.74V10.1Zm0,0Z"/><path class="cls-3" d="M94.58,51.62H90.74V10.1Zm0,0Z"/><polygon points="90.74 10.1 94.58 10.1 94.58 51.62 90.74 10.1"/><polygon class="cls-3" points="90.74 10.1 94.58 10.1 94.58 51.62 90.74 10.1"/><line class="cls-3" x1="94.58" y1="90.5" x2="90.74" y2="90.5"/><line class="cls-3" x1="94.58" y1="51.62" x2="90.74" y2="51.62"/><line class="cls-3" x1="94.58" y1="127.94" x2="94.58" y2="90.5"/><polyline class="cls-3" points="94.58 51.62 94.58 10.1 90.74 10.1 90.74 24.74"/><line class="cls-3" x1="90.74" y1="28.58" x2="90.74" y2="51.62"/><line class="cls-3" x1="90.74" y1="90.5" x2="90.74" y2="127.94"/><line class="cls-3" x1="94.58" y1="90.5" x2="94.58" y2="88.1"/><line class="cls-3" x1="90.74" y1="90.5" x2="90.74" y2="88.1"/><line class="cls-3" x1="94.58" y1="51.62" x2="94.58" y2="54.02"/><line class="cls-3" x1="90.74" y1="51.62" x2="90.74" y2="54.02"/><line class="cls-3" x1="90.74" y1="88.1" x2="94.58" y2="88.1"/><polyline class="cls-3" points="90.74 54.02 94.58 54.02 111.62 83.54"/><path class="cls-3" d="M94.46,88.1a34.23,34.23,0,0,0,17.1-4.58"/><path d="M43.46,10.1h0Z"/><path class="cls-3" d="M43.46,10.1h0Z"/><path d="M43.46,24.74H39.38V10.1Zm0,0Z"/><path class="cls-3" d="M43.46,24.74H39.38V10.1Zm0,0Z"/><polygon points="39.38 10.1 43.46 10.1 43.46 24.74 39.38 10.1"/><polygon class="cls-3" points="39.38 10.1 43.46 10.1 43.46 24.74 39.38 10.1"/><polyline class="cls-3" points="43.46 24.74 43.46 10.1 39.38 10.1 39.38 24.74"/><path d="M65.54,24.74h0Zm0,0Z"/><path class="cls-3" d="M65.54,24.74h0Zm0,0Z"/><path d="M65.54,24.74h0Z"/><path class="cls-3" d="M65.54,24.74h0Z"/><path d="M90.74,28.58H8.18V24.74Zm0,0Z"/><path class="cls-3" d="M90.74,28.58H8.18V24.74Zm0,0Z"/><polygon points="8.18 24.74 90.74 24.74 90.74 28.58 8.18 24.74"/><polygon class="cls-3" points="8.18 24.74 90.74 24.74 90.74 28.58 8.18 24.74"/><line class="cls-3" x1="8.18" y1="28.58" x2="90.74" y2="28.58"/><line class="cls-3" x1="90.74" y1="24.74" x2="43.46" y2="24.74"/><polyline class="cls-3" points="39.38 24.74 8.18 24.74 8.18 28.58"/><path d="M307.46,63.86h0Z"/><path class="cls-3" d="M307.46,63.86h0Z"/><path d="M307.46,67.7h-98.4V63.86Zm0,0Z"/><path class="cls-3" d="M307.46,67.7h-98.4V63.86Zm0,0Z"/><polygon points="209.06 63.86 307.46 63.86 307.46 67.7 209.06 63.86"/><polygon class="cls-3" points="209.06 63.86 307.46 63.86 307.46 67.7 209.06 63.86"/><line class="cls-3" x1="209.06" y1="67.7" x2="307.46" y2="67.7"/><line class="cls-3" x1="307.46" y1="63.86" x2="288.02" y2="63.86"/><line class="cls-3" x1="283.94" y1="63.86" x2="209.06" y2="63.86"/><path d="M288,10.1h0Z"/><path class="cls-3" d="M288,10.1h0Z"/><path d="M288,63.86h-4.08V10.1Zm0,0Z"/><path class="cls-3" d="M288,63.86h-4.08V10.1Zm0,0Z"/><polygon points="283.94 10.1 288.02 10.1 288.02 63.86 283.94 10.1"/><polygon class="cls-3" points="283.94 10.1 288.02 10.1 288.02 63.86 283.94 10.1"/><line class="cls-3" x1="283.94" y1="10.1" x2="283.94" y2="63.86"/><line class="cls-3" x1="288.02" y1="63.86" x2="288.02" y2="39.38"/><polyline class="cls-3" points="288.02 35.54 288.02 10.1 283.94 10.1"/><path d="M288,35.54h0Z"/><path class="cls-3" d="M288,35.54h0Z"/><path d="M307.46,39.38H288V35.54Zm0,0Z"/><path class="cls-3" d="M307.46,39.38H288V35.54Zm0,0Z"/><polygon points="288.02 35.54 307.46 35.54 307.46 39.38 288.02 35.54"/><polygon class="cls-3" points="288.02 35.54 307.46 35.54 307.46 39.38 288.02 35.54"/><polyline class="cls-3" points="288.02 39.38 307.46 39.38 307.46 35.54 288.02 35.54"/><path d="M158.9,92.9h0Z"/><path class="cls-3" d="M158.9,92.9h0Z"/><path d="M158.9,97h-6l-3.84-4.08Zm0,0Z"/><path class="cls-3" d="M158.9,97h-6l-3.84-4.08Zm0,0Z"/><polygon points="149.06 92.9 158.9 92.9 158.9 96.98 149.06 92.9"/><polygon class="cls-3" points="149.06 92.9 158.9 92.9 158.9 96.98 149.06 92.9"/><path d="M205,92.9h0Z"/><path class="cls-3" d="M205,92.9h0Z"/><path d="M209.06,97h-6.48V92.9Zm0,0Z"/><path class="cls-3" d="M209.06,97h-6.48V92.9Zm0,0Z"/><polygon points="202.58 92.9 204.98 92.9 209.06 96.98 202.58 92.9"/><polygon class="cls-3" points="202.58 92.9 204.98 92.9 209.06 96.98 202.58 92.9"/><line class="cls-3" x1="149.06" y1="92.9" x2="149.06" y2="92.9"/><polyline class="cls-3" points="158.9 92.9 158.9 96.98 158.9 92.9"/><polyline class="cls-3" points="209.06 96.98 202.58 96.98 202.58 92.9 204.98 92.9"/><line class="cls-3" x1="202.58" y1="96.98" x2="200.18" y2="96.98"/><line class="cls-3" x1="202.58" y1="92.9" x2="200.18" y2="92.9"/><line class="cls-3" x1="158.9" y1="96.98" x2="161.3" y2="96.98"/><line class="cls-3" x1="158.9" y1="92.9" x2="161.3" y2="92.9"/><line class="cls-3" x1="200.18" y1="92.9" x2="200.18" y2="96.98"/><polyline class="cls-3" points="161.3 92.9 161.3 96.98 161.3 135.86"/><path class="cls-3" d="M161.18,135.86a39,39,0,0,0,39-39"/><polyline class="cls-3" points="307.46 96.98 307.46 67.7 278.18 67.7 278.18 96.98 292.82 96.98 307.46 96.98"/><polyline class="cls-3" points="305.54 94.82 305.54 69.62 280.1 69.62 280.1 94.82 292.82 94.82 305.54 94.82"/><line class="cls-3" x1="209.06" y1="166.1" x2="209.06" y2="166.1"/><line class="cls-3" x1="223.7" y1="166.1" x2="238.1" y2="166.1"/><line class="cls-3" x1="246.02" y1="166.1" x2="260.66" y2="166.1"/><line class="cls-3" x1="268.34" y1="166.1" x2="282.98" y2="166.1"/><line class="cls-3" x1="290.9" y1="166.1" x2="305.54" y2="166.1"/><line class="cls-3" x1="312.26" y1="166.1" x2="312.26" y2="166.1"/><line class="cls-3" x1="209.06" y1="96.98" x2="209.06" y2="96.98"/><line class="cls-3" x1="209.06" y1="105.62" x2="209.06" y2="120.26"/><line class="cls-3" x1="209.06" y1="127.94" x2="209.06" y2="142.58"/><line class="cls-3" x1="209.06" y1="150.5" x2="209.06" y2="165.14"/><line class="cls-3" x1="209.06" y1="166.1" x2="209.06" y2="166.1"/><line class="cls-3" x1="207.62" y1="96.98" x2="307.46" y2="96.98"/><path d="M307.46,141.62h0Z"/><path class="cls-3" d="M307.46,141.62h0Z"/><path d="M317.06,314.66h-9.6v-173Zm0,0Z"/><path class="cls-3" d="M317.06,314.66h-9.6v-173Zm0,0Z"/><polygon points="307.46 141.62 317.06 141.62 317.06 314.66 307.46 141.62"/><polygon class="cls-3" points="307.46 141.62 317.06 141.62 317.06 314.66 307.46 141.62"/><polyline class="cls-3" points="317.06 314.66 317.06 141.62 307.46 141.62 307.46 314.66 317.06 314.66"/><path d="M.5,10.1h0Z"/><path class="cls-3" d="M.5,10.1h0Z"/><path d="M10.34,92.9H.5V10.1Zm0,0Z"/><path class="cls-3" d="M10.34,92.9H.5V10.1Zm0,0Z"/><polygon points="0.5 10.1 10.34 10.1 10.34 92.9 0.5 10.1"/><polygon class="cls-3" points="0.5 10.1 10.34 10.1 10.34 92.9 0.5 10.1"/><polyline class="cls-3" points="0.5 0.5 0.5 92.9 10.34 92.9 10.34 10.1 0.5 10.1"/><path d="M158.9,97h0Z"/><path class="cls-3" d="M158.9,97h0Z"/><path d="M149.06,97l9.84,44.64h-9.84Zm9.84,0h-9.84l9.84,44.64Z"/><path class="cls-3" d="M149.06,97l9.84,44.64h-9.84Zm9.84,0h-9.84l9.84,44.64Z"/><line class="cls-3" x1="158.9" y1="141.62" x2="158.9" y2="96.98"/><polyline class="cls-3" points="149.06 96.98 149.06 141.62 158.9 141.62"/><path d="M10.34,141.62h0Z"/><path class="cls-3" d="M10.34,141.62h0Z"/><path d="M10.34,314.66H.5v-173Zm0,0Z"/><path class="cls-3" d="M10.34,314.66H.5v-173Zm0,0Z"/><polygon points="0.5 141.62 10.34 141.62 10.34 314.66 0.5 141.62"/><polygon class="cls-3" points="0.5 141.62 10.34 141.62 10.34 314.66 0.5 141.62"/><polyline class="cls-3" points="0.5 141.62 0.5 314.66 10.34 314.66 10.34 141.62 0.5 141.62"/><path d="M29.78.5,148.1,10.1H29.78ZM148.1.5H29.78L148.1,10.1Z"/><path class="cls-3" d="M29.78.5,148.1,10.1H29.78ZM148.1.5H29.78L148.1,10.1Z"/><path d="M196.82.5h0Z"/><path class="cls-3" d="M196.82.5h0Z"/><path d="M307.46,10.1H196.82V.5Zm0,0Z"/><path class="cls-3" d="M307.46,10.1H196.82V.5Zm0,0Z"/><polygon points="196.82 0.5 307.46 0.5 307.46 10.1 196.82 0.5"/><polygon class="cls-3" points="196.82 0.5 307.46 0.5 307.46 10.1 196.82 0.5"/><line class="cls-3" x1="196.82" y1="0.5" x2="196.82" y2="10.1"/><polyline class="cls-3" points="148.1 0.5 148.1 10.1 29.78 10.1"/><polyline class="cls-3" points="196.82 10.1 307.46 10.1 307.46 0.5 231.38 0.5"/><line class="cls-3" x1="221.54" y1="0.5" x2="196.82" y2="0.5"/><polyline class="cls-3" points="148.1 0.5 29.78 0.5 29.78 10.1"/><path class="cls-3" d="M150,10a44.76,44.76,0,0,0,44.76,44.76"/><path d="M148.1.5h0Z"/><path class="cls-3" d="M148.1.5h0Z"/><path d="M150,10.1H148.1V.5Zm0,0Z"/><path class="cls-3" d="M150,10.1H148.1V.5Zm0,0Z"/><polygon points="148.1 0.5 150.02 0.5 150.02 10.1 148.1 0.5"/><polygon class="cls-3" points="148.1 0.5 150.02 0.5 150.02 10.1 148.1 0.5"/><path d="M194.9.5h0Z"/><path class="cls-3" d="M194.9.5h0Z"/><path d="M196.82,10.1H194.9V.5Zm0,0Z"/><path class="cls-3" d="M196.82,10.1H194.9V.5Zm0,0Z"/><polygon points="194.9 0.5 196.82 0.5 196.82 10.1 194.9 0.5"/><polygon class="cls-3" points="194.9 0.5 196.82 0.5 196.82 10.1 194.9 0.5"/><polyline class="cls-3" points="148.1 0.5 150.02 0.5 150.02 10.1 148.1 10.1 148.1 0.5"/><polyline class="cls-3" points="196.82 10.1 194.9 10.1 194.9 0.5 196.82 0.5 196.82 10.1"/><line class="cls-3" x1="194.9" y1="10.1" x2="194.9" y2="54.98"/><line class="cls-3" x1="148.1" y1="0.5" x2="148.1" y2="10.1"/><line class="cls-3" x1="196.82" y1="0.5" x2="196.82" y2="10.1"/><path d="M307.46,49.22h0Z"/><path class="cls-3" d="M307.46,49.22h0Z"/><path d="M317.06,92.9h-9.6V49.22Zm0,0Z"/><path class="cls-3" d="M317.06,92.9h-9.6V49.22Zm0,0Z"/><polygon points="307.46 49.22 317.06 49.22 317.06 92.9 307.46 49.22"/><polygon class="cls-3" points="307.46 49.22 317.06 49.22 317.06 92.9 307.46 49.22"/><polyline class="cls-3" points="317.06 92.9 317.06 49.22 307.46 49.22 307.46 63.86"/><polyline class="cls-3" points="307.46 67.7 307.46 92.9 317.06 92.9"/><path d="M231.38.5h-9.84m9.84,0Z"/><path class="cls-3" d="M231.38.5h-9.84m9.84,0Z"/><path d="M231.38.5"/><path class="cls-3" d="M231.38.5"/><path class="cls-3" d="M231.38.5"/><path class="cls-3" d="M221.54.5"/><text class="cls-4" transform="translate(228.5 43.7)">1.69</text><text class="cls-4" transform="translate(236.42 142.58)">4.08</text><text class="cls-4" transform="translate(50.9 338.99)">12.83</text><text class="cls-4" transform="translate(122.66 69.38)">4.67</text><text class="cls-4" transform="translate(204.02 338.98)">13.48</text><text class="cls-4" transform="translate(40.1 77.54)">3.37</text><text class="cls-4" transform="translate(55.94 397.7)">2.98</text><text class="cls-4" transform="translate(222.76 252.26)">1К</text><text class="cls-4" transform="translate(212.23 277.6)">43.10</text><text class="cls-4" transform="translate(214.62 227.31)">№45</text><polyline class="cls-5" points="201.5 284 201.5 209.48 263.65 209.48 263.65 284"/><line class="cls-5" x1="201.51" y1="234.37" x2="263.65" y2="234.37"/><line class="cls-5" x1="201.51" y1="284" x2="263.65" y2="284"/><line class="cls-5" x1="201.51" y1="259.26" x2="263.65" y2="259.26"/></svg>