<svg id="_97" data-name="97" xmlns="http://www.w3.org/2000/svg" viewBox="0 0 704.92 510.22"><defs><style>.cls-1,.cls-5{fill:none;stroke-linecap:round;stroke-linejoin:round;stroke-width:0.5px;}.cls-1{stroke:#999;}.cls-2{isolation:isolate;font-size:12px;fill:#999;}.cls-2,.cls-3,.cls-4{font-family:PTSans-Regular, PT Sans;}.cls-3{font-size:20px;}.cls-4{font-size:24px;}.cls-5{stroke:#000;}</style></defs><title>6floor_97flat</title><line class="cls-1" x1="336.94" y1="498.88" x2="336.94" y2="507.68"/><polyline class="cls-1" points="333.34 504.38 336.84 507.88 340.34 504.38"/><text class="cls-2" transform="translate(346.17 507.28)">двор</text><text class="cls-3" transform="translate(588.33 395.1)">13.60</text><text class="cls-3" transform="translate(236.52 395.1)">16.09</text><text class="cls-3" transform="translate(66.98 337.34)">11.56</text><text class="cls-3" transform="translate(416.71 395.1)">14.52</text><text class="cls-3" transform="translate(238.85 75.16)">7.07</text><text class="cls-3" transform="translate(57.49 37.84)">2.05</text><text class="cls-3" transform="translate(450.88 75.16)">7.05</text><text class="cls-3" transform="translate(597.92 100.13)">3.63</text><text class="cls-3" transform="translate(73.55 410.99)">1.83</text><text class="cls-4" transform="translate(253.22 295.94)">2Е</text><text class="cls-4" transform="translate(237.47 328.98)">77.40</text><text class="cls-4" transform="translate(240.84 263.4)">№97</text><polyline class="cls-5" points="225.66 337.34 225.66 240.14 306.73 240.14 306.73 337.34"/><line class="cls-5" x1="225.66" y1="272.6" x2="306.73" y2="272.6"/><line class="cls-5" x1="225.66" y1="337.34" x2="306.73" y2="337.34"/><line class="cls-5" x1="225.66" y1="305.06" x2="306.73" y2="305.06"/><polyline class="cls-5" points="585.22 33.84 585.22 134.88 693.28 134.88 693.28 110.06 693.28 33.84 585.22 33.84"/><polyline class="cls-5" points="585.22 48.15 585.22 35 616.47 35 616.47 48.15"/><line class="cls-5" x1="605.66" y1="35" x2="596.02" y2="35"/><line class="cls-5" x1="603.33" y1="45.52" x2="601.87" y2="45.52"/><line class="cls-5" x1="600.7" y1="42.89" x2="600.7" y2="44.64"/><line class="cls-5" x1="599.82" y1="45.52" x2="598.07" y2="45.52"/><line class="cls-5" x1="600.7" y1="46.69" x2="600.7" y2="48.15"/><path class="cls-5" d="M592.7,42.23a13.82,13.82,0,0,0-5.37,6.56" transform="translate(0.03 0.25)"/><path class="cls-5" d="M601.05,40.06A13.79,13.79,0,0,0,592.78,42" transform="translate(0.03 0.25)"/><path class="cls-5" d="M614.59,48.79a13.79,13.79,0,0,0-5.38-6.56" transform="translate(0.03 0.25)"/><path class="cls-5" d="M609.14,42a13.81,13.81,0,0,0-8.27-1.94" transform="translate(0.03 0.25)"/><path class="cls-5" d="M590.38,55.48a25.43,25.43,0,0,0,9.43,2.57" transform="translate(0.03 0.25)"/><path class="cls-5" d="M613.72,54.31a8,8,0,0,0,3-6.61" transform="translate(0.03 0.25)"/><path class="cls-5" d="M599.72,58.37a15.86,15.86,0,0,0,2.18,0" transform="translate(0.03 0.25)"/><path class="cls-5" d="M609.52,42.73a56.6,56.6,0,0,0-17.43,0" transform="translate(0.03 0.25)"/><path class="cls-5" d="M615.85,49.84A19.72,19.72,0,0,0,611.4,37" transform="translate(0.03 0.25)"/><path class="cls-5" d="M609.72,36.3a39.23,39.23,0,0,0-8.91-1" transform="translate(0.03 0.25)"/><path class="cls-5" d="M611.2,37.13a2.45,2.45,0,0,0-1.37-.85" transform="translate(0.03 0.25)"/><path class="cls-5" d="M609.7,37.14a66.41,66.41,0,0,0-8.8-.63" transform="translate(0.03 0.25)"/><path class="cls-5" d="M615.85,49.73a17.64,17.64,0,0,0-4.41-11.91" transform="translate(0.03 0.25)"/><path class="cls-5" d="M611.14,37.93a2.54,2.54,0,0,0-1.52-.82" transform="translate(0.03 0.25)"/><path class="cls-5" d="M590.49,37.8a17.69,17.69,0,0,0-4.43,11.91" transform="translate(0.03 0.25)"/><path class="cls-5" d="M590.53,37a19.63,19.63,0,0,0-4.46,12.8" transform="translate(0.03 0.25)"/><path class="cls-5" d="M600.82,36.51a66.28,66.28,0,0,0-8.8.62" transform="translate(0.03 0.25)"/><path class="cls-5" d="M600.87,35.34a38.81,38.81,0,0,0-8.92.95" transform="translate(0.03 0.25)"/><path class="cls-5" d="M592.3,37.11a2.49,2.49,0,0,0-1.53.82" transform="translate(0.03 0.25)"/><path class="cls-5" d="M592.09,36.27a2.57,2.57,0,0,0-1.38.85" transform="translate(0.03 0.25)"/><path class="cls-5" d="M585.19,47.7a8.08,8.08,0,0,0,3,6.61" transform="translate(0.03 0.25)"/><path class="cls-5" d="M588.09,54.52a12.43,12.43,0,0,0,2.09,1.35" transform="translate(0.03 0.25)"/><path class="cls-5" d="M611.44,55.87a12.43,12.43,0,0,0,2.09-1.35" transform="translate(0.03 0.25)"/><path class="cls-5" d="M602.1,58.05a25.43,25.43,0,0,0,9.43-2.57" transform="translate(0.03 0.25)"/><path class="cls-5" d="M596.53,56.15a18.21,18.21,0,0,0,8.56,0" transform="translate(0.03 0.25)"/><path class="cls-5" d="M587.24,48.59a4.84,4.84,0,0,0,1.66,4" transform="translate(0.03 0.25)"/><path class="cls-5" d="M589,52.28a16.81,16.81,0,0,0,7.72,3.54" transform="translate(0.03 0.25)"/><path class="cls-5" d="M613,52.57a4.82,4.82,0,0,0,1.66-4" transform="translate(0.03 0.25)"/><path class="cls-5" d="M605.19,55.82a16.85,16.85,0,0,0,7.72-3.54" transform="translate(0.03 0.25)"/><path class="cls-5" d="M602.71,45.12a1.9,1.9,0,1,0-1.9,1.9,1.9,1.9,0,0,0,1.9-1.9" transform="translate(0.03 0.25)"/><path class="cls-5" d="M602.13,45.12a1.32,1.32,0,1,0-1.32,1.32,1.32,1.32,0,0,0,1.32-1.32" transform="translate(0.03 0.25)"/><line class="cls-5" x1="644.21" y1="43.76" x2="644.21" y2="63.92"/><polyline class="cls-5" points="645.09 42.6 645.09 35 623.48 35"/><line class="cls-5" x1="634.28" y1="47.27" x2="626.4" y2="47.27"/><polyline class="cls-5" points="644.21 63.92 642.17 47.27 634.28 47.27"/><line class="cls-5" x1="624.35" y1="63.92" x2="626.4" y2="47.27"/><line class="cls-5" x1="643.63" y1="63.92" x2="641.58" y2="47.27"/><line class="cls-5" x1="624.94" y1="63.92" x2="626.98" y2="47.27"/><line class="cls-5" x1="624.35" y1="43.76" x2="624.35" y2="63.92"/><line class="cls-5" x1="623.48" y1="35" x2="623.48" y2="42.6"/><polyline class="cls-5" points="644.21 63.92 643.92 65.96 643.04 68.3 641.58 70.05 639.83 71.51 637.79 72.68 635.45 72.97 633.12 72.97 630.78 72.68 628.73 71.51 626.98 70.05 625.52 68.3 624.65 65.96 624.35 63.92"/><polyline class="cls-5" points="643.63 63.92 643.34 65.96 642.46 68 641.29 69.76 639.54 71.22 637.5 72.09 635.45 72.68 633.12 72.68 631.07 72.09 629.03 71.22 627.27 69.76 626.11 68 625.23 65.96 624.94 63.92"/><polyline class="cls-5" points="623.48 42.6 623.77 42.89 623.77 43.18 624.06 43.47 624.35 43.77 624.65 43.77 634.28 44.35 643.92 43.77 644.21 43.77 644.5 43.47 644.8 43.47 644.8 43.18 644.8 42.89 645.09 42.89 645.09 42.6"/><polyline class="cls-5" points="634.28 38.8 633.99 38.8 633.7 38.8 633.7 39.09 633.41 39.09 633.41 39.38 633.41 39.68 633.12 39.68 633.41 39.97 633.41 40.26 633.41 40.55 633.7 40.55 633.7 40.84 633.99 40.84 634.28 40.84 634.58 40.84 634.87 40.84 634.87 40.55 635.16 40.55 635.16 40.26 635.45 39.97 635.45 39.68 635.16 39.68 635.16 39.38 635.16 39.09 634.87 39.09 634.87 38.8 634.58 38.8 634.28 38.8"/><line class="cls-5" x1="658.23" y1="38.22" x2="685.68" y2="38.22"/><line class="cls-5" x1="688.9" y1="41.72" x2="688.9" y2="112.98"/><line class="cls-5" x1="654.73" y1="41.72" x2="654.73" y2="112.98"/><line class="cls-5" x1="692.11" y1="133.13" x2="692.11" y2="35"/><polyline class="cls-5" points="692.11 133.13 651.51 133.13 651.51 35 692.11 35"/><line class="cls-5" x1="660.57" y1="101.59" x2="660.57" y2="45.52"/><line class="cls-5" x1="662.03" y1="44.06" x2="681.59" y2="44.06"/><line class="cls-5" x1="683.05" y1="101.59" x2="683.05" y2="45.52"/><line class="cls-5" x1="670.79" y1="55.45" x2="668.74" y2="55.45"/><line class="cls-5" x1="671.96" y1="54.57" x2="671.96" y2="52.53"/><line class="cls-5" x1="672.83" y1="55.45" x2="674.88" y2="55.45"/><line class="cls-5" x1="671.96" y1="56.61" x2="671.96" y2="58.37"/><polyline class="cls-5" points="654.73 112.98 655.02 116.19 655.89 119.11 657.36 122.03 659.4 124.66 661.74 126.71 664.36 128.46 667.28 129.63 670.21 130.21 673.42 130.21 676.34 129.63 679.26 128.46 682.18 126.71 684.51 124.66 686.27 122.03 687.73 119.11 688.6 116.19 688.9 112.98"/><polyline class="cls-5" points="688.9 41.72 688.9 41.14 688.6 40.55 688.31 39.97 688.02 39.38 687.73 39.09 687.14 38.8 686.56 38.51 686.27 38.22 685.68 38.22"/><polyline class="cls-5" points="658.23 38.22 657.65 38.22 657.06 38.51 656.48 38.8 655.89 39.09 655.6 39.38 655.31 39.97 655.02 40.55 655.02 41.14 654.73 41.72"/><polyline class="cls-5" points="671.96 53.7 671.37 53.7 671.08 53.99 670.79 53.99 670.79 54.28 670.5 54.57 670.21 54.86 670.21 55.16 670.21 55.45 670.21 55.74 670.21 56.03 670.5 56.32 670.5 56.62 670.79 56.91 671.08 56.91 671.37 57.2 671.66 57.2 671.96 57.2 672.25 57.2 672.54 56.91 672.83 56.91 673.13 56.62 673.42 56.32 673.42 56.03 673.42 55.74 673.42 55.45 673.42 55.16 673.42 54.86 673.13 54.57 673.13 54.28 672.83 53.99 672.54 53.99 672.25 53.7 671.96 53.7"/><polyline class="cls-5" points="660.57 101.59 660.57 103.64 661.15 105.68 662.32 107.72 663.49 109.18 664.95 110.64 666.7 111.81 668.75 112.69 670.79 112.98 672.83 112.98 674.88 112.69 676.92 111.81 678.67 110.64 680.13 109.18 681.6 107.72 682.47 105.68 683.05 103.64 683.05 101.59"/><polyline class="cls-5" points="662.03 44.06 661.74 44.06 661.44 44.06 661.15 44.35 660.86 44.64 660.57 44.93 660.57 45.23 660.57 45.52"/><polyline class="cls-5" points="683.05 45.52 683.05 45.23 683.05 44.93 682.76 44.64 682.47 44.35 682.18 44.06 681.89 44.06 681.6 44.06"/><polyline class="cls-5" points="671.96 53.11 671.37 53.11 671.08 53.4 670.5 53.7 670.21 53.7 669.91 54.28 669.91 54.57 669.62 54.86 669.62 55.45 669.62 55.74 669.62 56.32 669.91 56.62 670.21 56.91 670.5 57.2 670.79 57.49 671.08 57.78 671.66 57.78 671.96 57.78 672.54 57.78 672.83 57.49 673.13 57.2 673.42 56.91 673.71 56.62 674 56.32 674 55.74 674 55.45 674 54.86 674 54.57 673.71 54.28 673.42 53.7 673.13 53.7 672.54 53.4 672.25 53.11 671.96 53.11"/><polyline class="cls-5" points="694.74 436.28 697.66 436.28 701.45 436.28"/><line class="cls-5" x1="694.74" y1="436.28" x2="697.66" y2="436.28"/><polyline class="cls-5" points="152.7 383.12 15.14 383.12 15.14 427.81 152.7 427.81 152.7 383.12"/><polyline class="cls-5" points="0.25 427.81 0.25 427.81 0.25 383.12"/><line class="cls-5" x1="0.25" y1="383.12" x2="0.25" y2="383.12"/><line class="cls-5" x1="0.25" y1="362.39" x2="0.25" y2="362.39"/><polyline class="cls-5" points="108.89 82.31 108.89 11.93 11.64 11.93 11.64 82.31 108.89 82.31"/><polyline class="cls-5" points="168.76 362.39 168.76 167.88 162.04 167.88 162.04 114.73 117.36 114.73 11.64 114.73 11.64 362.39 168.76 362.39"/><polyline class="cls-5" points="353.63 372.9 353.63 167.88 346.62 167.88 346.62 114.73 173.43 114.73 173.43 167.88 173.43 353.92 173.43 372.9 173.43 416.12 346.62 416.12 346.62 372.9 353.63 372.9"/><polyline class="cls-5" points="520.97 372.9 520.97 167.88 514.25 167.88 514.25 114.73 358.3 114.73 358.3 416.12 514.25 416.12 514.25 372.9 520.97 372.9"/><polyline class="cls-5" points="693.28 416.12 693.28 139.56 580.55 139.56 525.64 139.56 525.64 416.12 693.28 416.12"/><polyline class="cls-5" points="113.56 110.06 353.63 110.06 353.63 11.93 317.7 11.93 113.56 11.93 113.56 110.06"/><line class="cls-5" x1="317.7" y1="0.25" x2="113.56" y2="0.25"/><polyline class="cls-5" points="358.3 110.06 525.64 110.06 525.64 134.88 580.55 134.88 580.55 11.93 508.41 11.93 358.3 11.93 358.3 110.06"/><path d="M699.09,430.48h0Z" transform="translate(0.03 0.25)"/><path class="cls-5" d="M699.09,430.48h0Z" transform="translate(0.03 0.25)"/><path d="M704.63,436h-5.54v-5.55Zm0,0Z" transform="translate(0.03 0.25)"/><path class="cls-5" d="M704.63,436h-5.54v-5.55Zm0,0Z" transform="translate(0.03 0.25)"/><polygon points="699.12 430.73 704.67 430.73 704.67 436.28 699.12 430.73"/><polygon class="cls-5" points="699.12 430.73 704.67 430.73 704.67 436.28 699.12 430.73"/><path d="M704.63,415.87Z" transform="translate(0.03 0.25)"/><path class="cls-5" d="M704.63,415.87Z" transform="translate(0.03 0.25)"/><path d="M704.63,415.87v11.69h0Zm0,0h0v0Z" transform="translate(0.03 0.25)"/><path class="cls-5" d="M704.63,415.87v11.69h0Zm0,0h0v0Z" transform="translate(0.03 0.25)"/><path d="M704.63,430.48h0v0Zm0,0Z" transform="translate(0.03 0.25)"/><path class="cls-5" d="M704.63,430.48h0v0Zm0,0Z" transform="translate(0.03 0.25)"/><polygon points="704.67 427.81 704.67 427.81 704.67 430.73 704.67 427.81"/><polygon class="cls-5" points="704.67 427.81 704.67 427.81 704.67 430.73 704.67 427.81"/><path d="M699.09,415.87h0Z" transform="translate(0.03 0.25)"/><path class="cls-5" d="M699.09,415.87h0Z" transform="translate(0.03 0.25)"/><path d="M704.63,430.48h-5.54V415.87Zm0,0Z" transform="translate(0.03 0.25)"/><path class="cls-5" d="M704.63,430.48h-5.54V415.87Zm0,0Z" transform="translate(0.03 0.25)"/><polygon points="699.12 416.12 704.67 416.12 704.67 430.73 699.12 416.12"/><polygon class="cls-5" points="699.12 416.12 704.67 416.12 704.67 430.73 699.12 416.12"/><polyline class="cls-5" points="704.67 416.12 704.67 430.73 704.67 430.73"/><line class="cls-5" x1="699.12" y1="430.73" x2="704.67" y2="430.73"/><line class="cls-5" x1="704.67" y1="427.81" x2="704.67" y2="416.12"/><polyline class="cls-5" points="704.67 436.28 704.67 430.73 704.67 430.73 704.67 427.81"/><line class="cls-5" x1="704.67" y1="416.12" x2="704.67" y2="416.12"/><line class="cls-5" x1="699.12" y1="436.28" x2="704.67" y2="436.28"/><polyline class="cls-5" points="704.67 430.73 704.67 430.73 704.67 427.81"/><path d="M162,430.48h0Z" transform="translate(0.03 0.25)"/><path class="cls-5" d="M162,430.48h0Z" transform="translate(0.03 0.25)"/><path d="M204.94,436H162v-5.55Zm0,0Z" transform="translate(0.03 0.25)"/><path class="cls-5" d="M204.94,436H162v-5.55Zm0,0Z" transform="translate(0.03 0.25)"/><polygon points="162.04 430.73 204.97 430.73 204.97 436.28 162.04 430.73"/><polygon class="cls-5" points="162.04 430.73 204.97 430.73 204.97 436.28 162.04 430.73"/><path d="M390.39,430.48h0Zm2.34,0h0Z" transform="translate(0.03 0.25)"/><path class="cls-5" d="M390.39,430.48h0Zm2.34,0h0Z" transform="translate(0.03 0.25)"/><path d="M340.74,430.48l52,5.55h-52Zm52,0h-52l52,5.55Z" transform="translate(0.03 0.25)"/><path class="cls-5" d="M340.74,430.48l52,5.55h-52Zm52,0h-52l52,5.55Z" transform="translate(0.03 0.25)"/><path d="M547.81,430.48h0Zm2.33,0h0Z" transform="translate(0.03 0.25)"/><path class="cls-5" d="M547.81,430.48h0Zm2.33,0h0Z" transform="translate(0.03 0.25)"/><path d="M498.16,430.48l52,5.55h-52Zm52,0h-52l52,5.55Z" transform="translate(0.03 0.25)"/><path class="cls-5" d="M498.16,430.48l52,5.55h-52Zm52,0h-52l52,5.55Z" transform="translate(0.03 0.25)"/><path d="M699.09,430.48h0Zm0,0Z" transform="translate(0.03 0.25)"/><path class="cls-5" d="M699.09,430.48h0Zm0,0Z" transform="translate(0.03 0.25)"/><path d="M655.86,430.48,699.09,436H655.86Zm43.23,0H655.86L699.09,436Z" transform="translate(0.03 0.25)"/><path class="cls-5" d="M655.86,430.48,699.09,436H655.86Zm43.23,0H655.86L699.09,436Z" transform="translate(0.03 0.25)"/><path d="M158.51,430.48h0Z" transform="translate(0.03 0.25)"/><path class="cls-5" d="M158.51,430.48h0Z" transform="translate(0.03 0.25)"/><path d="M158.51,430.48l3.5,5h-8.76Zm3.5,0h-3.5l3.5,5Z" transform="translate(0.03 0.25)"/><path class="cls-5" d="M158.51,430.48l3.5,5h-8.76Zm3.5,0h-3.5l3.5,5Z" transform="translate(0.03 0.25)"/><path d="M162,436h-8.76v-.59Zm0,0Z" transform="translate(0.03 0.25)"/><path class="cls-5" d="M162,436h-8.76v-.59Zm0,0Z" transform="translate(0.03 0.25)"/><polygon points="153.28 435.69 162.04 435.69 162.04 436.28 153.28 435.69"/><polygon class="cls-5" points="153.28 435.69 162.04 435.69 162.04 436.28 153.28 435.69"/><polygon points="153.28 435.69 153.28 436.28 152.7 436.28 153.28 435.69"/><polygon class="cls-5" points="153.28 435.69 153.28 436.28 152.7 436.28 153.28 435.69"/><path d="M693.24,415.87h0Z" transform="translate(0.03 0.25)"/><path class="cls-5" d="M693.24,415.87h0Z" transform="translate(0.03 0.25)"/><path d="M699.09,430.48h-5.85V415.87Zm0,0Z" transform="translate(0.03 0.25)"/><path class="cls-5" d="M699.09,430.48h-5.85V415.87Zm0,0Z" transform="translate(0.03 0.25)"/><polygon points="693.28 416.12 699.12 416.12 699.12 430.73 693.28 416.12"/><polygon class="cls-5" points="693.28 416.12 699.12 416.12 699.12 430.73 693.28 416.12"/><path d="M173.4,415.87h0Z" transform="translate(0.03 0.25)"/><path class="cls-5" d="M173.4,415.87h0Z" transform="translate(0.03 0.25)"/><path d="M173.4,415.87l29.21,11.69H173.4Zm29.21,0H173.4l29.21,11.69Z" transform="translate(0.03 0.25)"/><path class="cls-5" d="M173.4,415.87l29.21,11.69H173.4Zm29.21,0H173.4l29.21,11.69Z" transform="translate(0.03 0.25)"/><path d="M202.61,430.48H173.4v-2.92Zm0,0Z" transform="translate(0.03 0.25)"/><path class="cls-5" d="M202.61,430.48H173.4v-2.92Zm0,0Z" transform="translate(0.03 0.25)"/><polygon points="173.43 427.81 202.64 427.81 202.64 430.73 173.43 427.81"/><polygon class="cls-5" points="173.43 427.81 202.64 427.81 202.64 430.73 173.43 427.81"/><path d="M342.79,415.87h0Z" transform="translate(0.03 0.25)"/><path class="cls-5" d="M342.79,415.87h0Z" transform="translate(0.03 0.25)"/><path d="M342.79,427.56h0Zm47.6,0h0Zm-47.6-11.69,47.6,11.69h-47.6Zm47.6,0h-47.6l47.6,11.69Z" transform="translate(0.03 0.25)"/><path class="cls-5" d="M342.79,427.56h0Zm47.6,0h0Zm-47.6-11.69,47.6,11.69h-47.6Zm47.6,0h-47.6l47.6,11.69Z" transform="translate(0.03 0.25)"/><path d="M342.79,427.56l47.6,2.92h-47.6Zm47.6,0h-47.6l47.6,2.92Z" transform="translate(0.03 0.25)"/><path class="cls-5" d="M342.79,427.56l47.6,2.92h-47.6Zm47.6,0h-47.6l47.6,2.92Z" transform="translate(0.03 0.25)"/><path d="M500.49,427.56h0Zm47.32,0h0Zm-47.32-11.69,47.32,11.69H500.49Zm47.32,0H500.49l47.32,11.69Z" transform="translate(0.03 0.25)"/><path class="cls-5" d="M500.49,427.56h0Zm47.32,0h0Zm-47.32-11.69,47.32,11.69H500.49Zm47.32,0H500.49l47.32,11.69Z" transform="translate(0.03 0.25)"/><path d="M500.49,427.56l47.32,2.92H500.49Zm47.32,0H500.49l47.32,2.92Z" transform="translate(0.03 0.25)"/><path class="cls-5" d="M500.49,427.56l47.32,2.92H500.49Zm47.32,0H500.49l47.32,2.92Z" transform="translate(0.03 0.25)"/><path d="M693.24,415.87h0Z" transform="translate(0.03 0.25)"/><path class="cls-5" d="M693.24,415.87h0Z" transform="translate(0.03 0.25)"/><path d="M658.2,415.87l35,11.69h-35Zm35,0h-35l35,11.69Z" transform="translate(0.03 0.25)"/><path class="cls-5" d="M658.2,415.87l35,11.69h-35Zm35,0h-35l35,11.69Z" transform="translate(0.03 0.25)"/><path d="M658.2,427.56l35,2.92h-35Zm35,0h-35l35,2.92Z" transform="translate(0.03 0.25)"/><path class="cls-5" d="M658.2,427.56l35,2.92h-35Zm35,0h-35l35,2.92Z" transform="translate(0.03 0.25)"/><polygon points="173.43 416.12 173.43 427.51 162.04 427.51 173.43 416.12"/><polygon class="cls-5" points="173.43 416.12 173.43 427.51 162.04 427.51 173.43 416.12"/><path d="M173.4,430.48H162v-3.22Zm0,0Z" transform="translate(0.03 0.25)"/><path class="cls-5" d="M173.4,430.48H162v-3.22Zm0,0Z" transform="translate(0.03 0.25)"/><polygon points="162.04 427.51 173.43 427.51 173.43 430.73 162.04 427.51"/><polygon class="cls-5" points="162.04 427.51 173.43 427.51 173.43 430.73 162.04 427.51"/><path d="M162,430.48h0Zm0-3.22v3.22h-3.5Z" transform="translate(0.03 0.25)"/><path class="cls-5" d="M162,430.48h0Zm0-3.22v3.22h-3.5Z" transform="translate(0.03 0.25)"/><line class="cls-5" x1="153.28" y1="435.69" x2="153.28" y2="436.28"/><polyline class="cls-5" points="693.28 416.12 693.28 430.73 699.12 430.73"/><line class="cls-5" x1="500.53" y1="430.73" x2="547.84" y2="430.73"/><line class="cls-5" x1="342.82" y1="430.73" x2="390.42" y2="430.73"/><line class="cls-5" x1="658.23" y1="430.73" x2="693.28" y2="430.73"/><polyline class="cls-5" points="173.43 416.12 173.43 430.73 202.64 430.73"/><polyline class="cls-5" points="162.04 427.51 162.04 430.73 173.43 430.73"/><line class="cls-5" x1="342.82" y1="427.81" x2="342.82" y2="416.12"/><polyline class="cls-5" points="340.78 436.28 340.78 430.73 342.82 430.73 342.82 427.81"/><line class="cls-5" x1="202.64" y1="427.81" x2="202.64" y2="416.12"/><polyline class="cls-5" points="204.97 436.28 204.97 430.73 202.64 430.73 202.64 427.81"/><line class="cls-5" x1="658.23" y1="427.81" x2="658.23" y2="416.12"/><polyline class="cls-5" points="655.89 436.28 655.89 430.73 658.23 430.73 658.23 427.81"/><line class="cls-5" x1="547.84" y1="427.81" x2="547.84" y2="416.12"/><polyline class="cls-5" points="550.17 436.28 550.17 430.73 547.84 430.73 547.84 427.81"/><line class="cls-5" x1="500.53" y1="427.81" x2="500.53" y2="416.12"/><polyline class="cls-5" points="498.19 436.28 498.19 430.73 500.53 430.73 500.53 427.81"/><line class="cls-5" x1="390.42" y1="427.81" x2="390.42" y2="416.12"/><polyline class="cls-5" points="392.76 436.28 392.76 430.73 390.42 430.73 390.42 427.81"/><line class="cls-5" x1="693.28" y1="416.12" x2="658.23" y2="416.12"/><line class="cls-5" x1="547.84" y1="416.12" x2="500.53" y2="416.12"/><line class="cls-5" x1="390.42" y1="416.12" x2="342.82" y2="416.12"/><line class="cls-5" x1="202.64" y1="416.12" x2="173.43" y2="416.12"/><polyline class="cls-5" points="152.7 436.28 153.28 436.28 162.04 436.28 204.97 436.28"/><line class="cls-5" x1="340.78" y1="436.28" x2="392.76" y2="436.28"/><line class="cls-5" x1="498.19" y1="436.28" x2="550.17" y2="436.28"/><line class="cls-5" x1="655.89" y1="436.28" x2="699.12" y2="436.28"/><line class="cls-5" x1="204.97" y1="436.28" x2="340.78" y2="436.28"/><line class="cls-5" x1="202.64" y1="416.12" x2="342.82" y2="416.12"/><path d="M202.61,427.56h0Z" transform="translate(0.03 0.25)"/><path class="cls-5" d="M202.61,427.56h0Z" transform="translate(0.03 0.25)"/><path d="M207.28,430.48h-4.67v-2.92Zm0,0Z" transform="translate(0.03 0.25)"/><path class="cls-5" d="M207.28,430.48h-4.67v-2.92Zm0,0Z" transform="translate(0.03 0.25)"/><polygon points="202.64 427.81 207.31 427.81 207.31 430.73 202.64 427.81"/><polygon class="cls-5" points="202.64 427.81 207.31 427.81 207.31 430.73 202.64 427.81"/><path d="M237.36,427.56h0Z" transform="translate(0.03 0.25)"/><path class="cls-5" d="M237.36,427.56h0Z" transform="translate(0.03 0.25)"/><path d="M240.28,430.48h-2.92v-2.92Zm0,0Z" transform="translate(0.03 0.25)"/><path class="cls-5" d="M240.28,430.48h-2.92v-2.92Zm0,0Z" transform="translate(0.03 0.25)"/><polygon points="237.39 427.81 240.31 427.81 240.31 430.73 237.39 427.81"/><polygon class="cls-5" points="237.39 427.81 240.31 427.81 240.31 430.73 237.39 427.81"/><path d="M240.28,427.56h0Z" transform="translate(0.03 0.25)"/><path class="cls-5" d="M240.28,427.56h0Z" transform="translate(0.03 0.25)"/><path d="M242.91,430.48h-2.63v-2.92Zm0,0Z" transform="translate(0.03 0.25)"/><path class="cls-5" d="M242.91,430.48h-2.63v-2.92Zm0,0Z" transform="translate(0.03 0.25)"/><polygon points="240.31 427.81 242.94 427.81 242.94 430.73 240.31 427.81"/><polygon class="cls-5" points="240.31 427.81 242.94 427.81 242.94 430.73 240.31 427.81"/><path d="M302.49,427.56h0Z" transform="translate(0.03 0.25)"/><path class="cls-5" d="M302.49,427.56h0Z" transform="translate(0.03 0.25)"/><path d="M305.41,430.48h-2.92v-2.92Zm0,0Z" transform="translate(0.03 0.25)"/><path class="cls-5" d="M305.41,430.48h-2.92v-2.92Zm0,0Z" transform="translate(0.03 0.25)"/><polygon points="302.52 427.81 305.44 427.81 305.44 430.73 302.52 427.81"/><polygon class="cls-5" points="302.52 427.81 305.44 427.81 305.44 430.73 302.52 427.81"/><path d="M305.41,427.56h0Z" transform="translate(0.03 0.25)"/><path class="cls-5" d="M305.41,427.56h0Z" transform="translate(0.03 0.25)"/><path d="M308.33,430.48h-2.92v-2.92Zm0,0Z" transform="translate(0.03 0.25)"/><path class="cls-5" d="M308.33,430.48h-2.92v-2.92Zm0,0Z" transform="translate(0.03 0.25)"/><polygon points="305.44 427.81 308.36 427.81 308.36 430.73 305.44 427.81"/><polygon class="cls-5" points="305.44 427.81 308.36 427.81 308.36 430.73 305.44 427.81"/><path d="M338.41,427.56h0Z" transform="translate(0.03 0.25)"/><path class="cls-5" d="M338.41,427.56h0Z" transform="translate(0.03 0.25)"/><path d="M342.79,430.48h-4.38v-2.92Zm0,0Z" transform="translate(0.03 0.25)"/><path class="cls-5" d="M342.79,430.48h-4.38v-2.92Zm0,0Z" transform="translate(0.03 0.25)"/><polygon points="338.44 427.81 342.82 427.81 342.82 430.73 338.44 427.81"/><polygon class="cls-5" points="338.44 427.81 342.82 427.81 342.82 430.73 338.44 427.81"/><polyline class="cls-5" points="202.64 430.73 207.31 430.73 207.31 427.81 202.64 427.81"/><polyline class="cls-5" points="240.31 427.81 237.39 427.81 237.39 430.73 240.31 430.73"/><line class="cls-5" x1="207.31" y1="430.73" x2="237.39" y2="430.73"/><line class="cls-5" x1="237.39" y1="427.81" x2="207.31" y2="427.81"/><polyline class="cls-5" points="240.31 430.73 242.94 430.73 242.94 427.81 240.31 427.81"/><polyline class="cls-5" points="305.44 427.81 302.52 427.81 302.52 430.73 305.44 430.73"/><line class="cls-5" x1="242.94" y1="430.73" x2="302.52" y2="430.73"/><line class="cls-5" x1="302.52" y1="427.81" x2="242.94" y2="427.81"/><polyline class="cls-5" points="305.44 430.73 308.36 430.73 308.36 427.81 305.44 427.81"/><polyline class="cls-5" points="342.82 427.81 338.44 427.81 338.44 430.73 342.82 430.73"/><line class="cls-5" x1="308.36" y1="430.73" x2="338.44" y2="430.73"/><line class="cls-5" x1="338.44" y1="427.81" x2="308.36" y2="427.81"/><polyline class="cls-5" points="204.97 430.73 202.64 430.73 202.64 427.81"/><polyline class="cls-5" points="340.78 430.73 342.82 430.73 342.82 427.81"/><line class="cls-5" x1="550.17" y1="436.28" x2="655.89" y2="436.28"/><line class="cls-5" x1="547.84" y1="416.12" x2="658.23" y2="416.12"/><path d="M547.81,427.56h0Z" transform="translate(0.03 0.25)"/><path class="cls-5" d="M547.81,427.56h0Z" transform="translate(0.03 0.25)"/><path d="M552.48,430.48h-4.67v-2.92Zm0,0Z" transform="translate(0.03 0.25)"/><path class="cls-5" d="M552.48,430.48h-4.67v-2.92Zm0,0Z" transform="translate(0.03 0.25)"/><polygon points="547.84 427.81 552.51 427.81 552.51 430.73 547.84 427.81"/><polygon class="cls-5" points="547.84 427.81 552.51 427.81 552.51 430.73 547.84 427.81"/><path d="M615,427.56h0Z" transform="translate(0.03 0.25)"/><path class="cls-5" d="M615,427.56h0Z" transform="translate(0.03 0.25)"/><path d="M617.9,430.48H615v-2.92Zm0,0Z" transform="translate(0.03 0.25)"/><path class="cls-5" d="M617.9,430.48H615v-2.92Zm0,0Z" transform="translate(0.03 0.25)"/><polygon points="615.01 427.81 617.93 427.81 617.93 430.73 615.01 427.81"/><polygon class="cls-5" points="615.01 427.81 617.93 427.81 617.93 430.73 615.01 427.81"/><path d="M617.9,427.56h0Z" transform="translate(0.03 0.25)"/><path class="cls-5" d="M617.9,427.56h0Z" transform="translate(0.03 0.25)"/><path d="M620.82,430.48H617.9v-2.92Zm0,0Z" transform="translate(0.03 0.25)"/><path class="cls-5" d="M620.82,430.48H617.9v-2.92Zm0,0Z" transform="translate(0.03 0.25)"/><polygon points="617.93 427.81 620.85 427.81 620.85 430.73 617.93 427.81"/><polygon class="cls-5" points="617.93 427.81 620.85 427.81 620.85 430.73 617.93 427.81"/><path d="M653.53,427.56h0Z" transform="translate(0.03 0.25)"/><path class="cls-5" d="M653.53,427.56h0Z" transform="translate(0.03 0.25)"/><path d="M658.2,430.48h-4.67v-2.92Zm0,0Z" transform="translate(0.03 0.25)"/><path class="cls-5" d="M658.2,430.48h-4.67v-2.92Zm0,0Z" transform="translate(0.03 0.25)"/><polygon points="653.56 427.81 658.23 427.81 658.23 430.73 653.56 427.81"/><polygon class="cls-5" points="653.56 427.81 658.23 427.81 658.23 430.73 653.56 427.81"/><polyline class="cls-5" points="547.84 430.73 552.51 430.73 552.51 427.81 547.84 427.81"/><polyline class="cls-5" points="617.93 427.81 615.01 427.81 615.01 430.73 617.93 430.73"/><line class="cls-5" x1="552.51" y1="430.73" x2="615.01" y2="430.73"/><line class="cls-5" x1="615.01" y1="427.81" x2="552.51" y2="427.81"/><polyline class="cls-5" points="617.93 430.73 620.85 430.73 620.85 427.81 617.93 427.81"/><polyline class="cls-5" points="658.23 427.81 653.56 427.81 653.56 430.73 658.23 430.73"/><line class="cls-5" x1="620.85" y1="430.73" x2="653.56" y2="430.73"/><line class="cls-5" x1="653.56" y1="427.81" x2="620.85" y2="427.81"/><polyline class="cls-5" points="550.17 430.73 547.84 430.73 547.84 427.81"/><polyline class="cls-5" points="655.89 430.73 658.23 430.73 658.23 427.81"/><line class="cls-5" x1="392.76" y1="436.28" x2="498.19" y2="436.28"/><line class="cls-5" x1="390.42" y1="416.12" x2="500.53" y2="416.12"/><path d="M390.39,427.56h0Z" transform="translate(0.03 0.25)"/><path class="cls-5" d="M390.39,427.56h0Z" transform="translate(0.03 0.25)"/><path d="M394.77,430.48h-4.38v-2.92Zm0,0Z" transform="translate(0.03 0.25)"/><path class="cls-5" d="M394.77,430.48h-4.38v-2.92Zm0,0Z" transform="translate(0.03 0.25)"/><polygon points="390.42 427.81 394.81 427.81 394.81 430.73 390.42 427.81"/><polygon class="cls-5" points="390.42 427.81 394.81 427.81 394.81 430.73 390.42 427.81"/><path d="M429.53,427.56h0Z" transform="translate(0.03 0.25)"/><path class="cls-5" d="M429.53,427.56h0Z" transform="translate(0.03 0.25)"/><path d="M432.45,430.48h-2.92v-2.92Zm0,0Z" transform="translate(0.03 0.25)"/><path class="cls-5" d="M432.45,430.48h-2.92v-2.92Zm0,0Z" transform="translate(0.03 0.25)"/><polygon points="429.56 427.81 432.48 427.81 432.48 430.73 429.56 427.81"/><polygon class="cls-5" points="429.56 427.81 432.48 427.81 432.48 430.73 429.56 427.81"/><path d="M432.45,427.56h0Z" transform="translate(0.03 0.25)"/><path class="cls-5" d="M432.45,427.56h0Z" transform="translate(0.03 0.25)"/><path d="M435.37,430.48h-2.92v-2.92Zm0,0Z" transform="translate(0.03 0.25)"/><path class="cls-5" d="M435.37,430.48h-2.92v-2.92Zm0,0Z" transform="translate(0.03 0.25)"/><polygon points="432.48 427.81 435.4 427.81 435.4 430.73 432.48 427.81"/><polygon class="cls-5" points="432.48 427.81 435.4 427.81 435.4 430.73 432.48 427.81"/><path d="M495.82,427.56h0Z" transform="translate(0.03 0.25)"/><path class="cls-5" d="M495.82,427.56h0Z" transform="translate(0.03 0.25)"/><path d="M500.49,430.48h-4.67v-2.92Zm0,0Z" transform="translate(0.03 0.25)"/><path class="cls-5" d="M500.49,430.48h-4.67v-2.92Zm0,0Z" transform="translate(0.03 0.25)"/><polygon points="495.85 427.81 500.53 427.81 500.53 430.73 495.85 427.81"/><polygon class="cls-5" points="495.85 427.81 500.53 427.81 500.53 430.73 495.85 427.81"/><polyline class="cls-5" points="390.42 430.73 394.81 430.73 394.81 427.81 390.42 427.81"/><polyline class="cls-5" points="432.48 427.81 429.56 427.81 429.56 430.73 432.48 430.73"/><line class="cls-5" x1="394.8" y1="430.73" x2="429.56" y2="430.73"/><line class="cls-5" x1="429.56" y1="427.81" x2="394.8" y2="427.81"/><polyline class="cls-5" points="432.48 430.73 435.4 430.73 435.4 427.81 432.48 427.81"/><polyline class="cls-5" points="500.53 427.81 495.85 427.81 495.85 430.73 500.53 430.73"/><line class="cls-5" x1="435.4" y1="430.73" x2="495.85" y2="430.73"/><line class="cls-5" x1="495.85" y1="427.81" x2="435.4" y2="427.81"/><polyline class="cls-5" points="392.76 430.73 390.42 430.73 390.42 427.81"/><polyline class="cls-5" points="498.19 430.73 500.53 430.73 500.53 427.81"/><line class="cls-5" x1="21.57" y1="36.76" x2="41.72" y2="36.76"/><polyline class="cls-5" points="20.4 35.88 12.81 35.88 12.81 57.2"/><line class="cls-5" x1="25.07" y1="46.69" x2="25.07" y2="54.57"/><polyline class="cls-5" points="41.72 36.76 25.07 38.8 25.07 46.69"/><line class="cls-5" x1="41.72" y1="56.32" x2="25.07" y2="54.57"/><line class="cls-5" x1="41.72" y1="37.34" x2="25.07" y2="39.09"/><line class="cls-5" x1="41.72" y1="56.03" x2="25.07" y2="53.99"/><line class="cls-5" x1="21.57" y1="56.32" x2="41.72" y2="56.32"/><line class="cls-5" x1="12.81" y1="57.2" x2="20.4" y2="57.2"/><polyline class="cls-5" points="41.72 36.76 44.06 37.05 46.1 37.92 47.85 39.09 49.31 40.84 50.48 43.18 51.07 45.52 51.07 47.85 50.48 50.19 49.31 52.23 47.85 53.99 46.1 55.16 44.06 56.03 41.72 56.32"/><polyline class="cls-5" points="41.72 37.34 43.77 37.63 45.81 38.22 47.56 39.68 49.02 41.14 49.9 43.18 50.48 45.52 50.48 47.56 49.9 49.9 49.02 51.94 47.56 53.7 45.81 54.86 43.77 55.74 41.72 56.03"/><polyline class="cls-5" points="20.4 57.2 20.69 57.2 20.98 57.2 21.28 57.2 21.28 56.91 21.57 56.91 21.57 56.62 21.57 56.32 21.86 56.03 22.15 46.69 21.86 37.05 21.57 36.76 21.57 36.46 21.28 36.17 20.98 35.88 20.69 35.88 20.4 35.88"/><polyline class="cls-5" points="18.65 46.69 18.65 46.39 18.65 46.1 18.36 45.81 18.07 45.52 17.77 45.52 17.48 45.52 17.19 45.81 16.9 45.81 16.9 46.1 16.61 46.39 16.61 46.69 16.61 46.98 16.9 46.98 16.9 47.27 17.19 47.56 17.48 47.56 17.77 47.56 18.07 47.56 18.36 47.56 18.36 47.27 18.65 47.27 18.65 46.98 18.65 46.69"/><polyline class="cls-5" points="585.22 108.89 585.22 134.88 619.97 134.88 619.97 108.89 585.22 108.89"/><path d="M152.67,382.87m0-.58v0Zm.58,0h-.58v.58Z" transform="translate(0.03 0.25)"/><path class="cls-5" d="M152.67,382.87m0-.58v0Zm.58,0h-.58v.58Z" transform="translate(0.03 0.25)"/><path d="M11.61,382.29h0Z" transform="translate(0.03 0.25)"/><path class="cls-5" d="M11.61,382.29h0Z" transform="translate(0.03 0.25)"/><path d="M83.45,382.87H11.61v-.58Zm0,0Z" transform="translate(0.03 0.25)"/><path class="cls-5" d="M83.45,382.87H11.61v-.58Zm0,0Z" transform="translate(0.03 0.25)"/><polygon points="11.64 382.54 83.48 382.54 83.48 383.12 11.64 382.54"/><polygon class="cls-5" points="11.64 382.54 83.48 382.54 83.48 383.12 11.64 382.54"/><path d="M153.25,373.82h0Z" transform="translate(0.03 0.25)"/><path class="cls-5" d="M153.25,373.82h0Z" transform="translate(0.03 0.25)"/><path d="M153.25,382.29m0-8.47v0Zm8.76,0h-8.76v8.47Z" transform="translate(0.03 0.25)"/><path class="cls-5" d="M153.25,382.29m0-8.47v0Zm8.76,0h-8.76v8.47Z" transform="translate(0.03 0.25)"/><path d="M11.61,373.82h0Z" transform="translate(0.03 0.25)"/><path class="cls-5" d="M11.61,373.82h0Z" transform="translate(0.03 0.25)"/><path d="M83.45,382.29H11.61v-8.47Zm0,0Z" transform="translate(0.03 0.25)"/><path class="cls-5" d="M83.45,382.29H11.61v-8.47Zm0,0Z" transform="translate(0.03 0.25)"/><polygon points="11.64 374.07 83.48 374.07 83.48 382.54 11.64 374.07"/><polygon class="cls-5" points="11.64 374.07 83.48 374.07 83.48 382.54 11.64 374.07"/><path d="M153.25,373.82h0Z" transform="translate(0.03 0.25)"/><path class="cls-5" d="M153.25,373.82h0Z" transform="translate(0.03 0.25)"/><path d="M153.25,382.29h-.58v-8.47Zm0,0Z" transform="translate(0.03 0.25)"/><path class="cls-5" d="M153.25,382.29h-.58v-8.47Zm0,0Z" transform="translate(0.03 0.25)"/><polygon points="152.7 374.07 153.28 374.07 153.28 382.54 152.7 374.07"/><polygon class="cls-5" points="152.7 374.07 153.28 374.07 153.28 382.54 152.7 374.07"/><path d="M173.4,362.14H162v11.68Zm0,0Z" transform="translate(0.03 0.25)"/><path class="cls-5" d="M173.4,362.14H162v11.68Zm0,0Z" transform="translate(0.03 0.25)"/><path d="M11.61,362.14h0Z" transform="translate(0.03 0.25)"/><path class="cls-5" d="M11.61,362.14h0Z" transform="translate(0.03 0.25)"/><path d="M11.61,362.14l71.84,8.76H11.61Zm71.84,0H11.61l71.84,8.76Z" transform="translate(0.03 0.25)"/><path class="cls-5" d="M11.61,362.14l71.84,8.76H11.61Zm71.84,0H11.61l71.84,8.76Z" transform="translate(0.03 0.25)"/><path d="M83.45,373.82H11.61V370.9Zm0,0Z" transform="translate(0.03 0.25)"/><path class="cls-5" d="M83.45,373.82H11.61V370.9Zm0,0Z" transform="translate(0.03 0.25)"/><polygon points="11.64 371.15 83.48 371.15 83.48 374.07 11.64 371.15"/><polygon class="cls-5" points="11.64 371.15 83.48 371.15 83.48 374.07 11.64 371.15"/><path d="M162,362.14h0Z" transform="translate(0.03 0.25)"/><path class="cls-5" d="M162,362.14h0Z" transform="translate(0.03 0.25)"/><path d="M152.67,362.14,162,370.9h-9.34Zm9.34,0h-9.34L162,370.9Z" transform="translate(0.03 0.25)"/><path class="cls-5" d="M152.67,362.14,162,370.9h-9.34Zm9.34,0h-9.34L162,370.9Z" transform="translate(0.03 0.25)"/><path d="M162,373.82h-9.34V370.9Zm0,0Z" transform="translate(0.03 0.25)"/><path class="cls-5" d="M162,373.82h-9.34V370.9Zm0,0Z" transform="translate(0.03 0.25)"/><polygon points="152.7 371.15 162.04 371.15 162.04 374.07 152.7 371.15"/><polygon class="cls-5" points="152.7 371.15 162.04 371.15 162.04 374.07 152.7 371.15"/><path d="M83.45,373.82l.59,8.47h-.59Zm.59,0h-.59l.59,8.47Z" transform="translate(0.03 0.25)"/><path class="cls-5" d="M83.45,373.82l.59,8.47h-.59Zm.59,0h-.59l.59,8.47Z" transform="translate(0.03 0.25)"/><path d="M83.45,382.29l.59.58h-.59Zm.59,0h-.59l.59.58Z" transform="translate(0.03 0.25)"/><path class="cls-5" d="M83.45,382.29l.59.58h-.59Zm.59,0h-.59l.59.58Z" transform="translate(0.03 0.25)"/><path d="M152.08,373.82l.59,8.47h-.59Zm.59,0h-.59l.59,8.47Z" transform="translate(0.03 0.25)"/><path class="cls-5" d="M152.08,373.82l.59,8.47h-.59Zm.59,0h-.59l.59,8.47Z" transform="translate(0.03 0.25)"/><path d="M152.08,382.29l.59.58h-.59Zm.59,0h-.59l.59.58Z" transform="translate(0.03 0.25)"/><path class="cls-5" d="M152.08,382.29l.59.58h-.59Zm.59,0h-.59l.59.58Z" transform="translate(0.03 0.25)"/><line class="cls-5" x1="152.7" y1="382.54" x2="153.28" y2="382.54"/><line class="cls-5" x1="11.64" y1="382.54" x2="83.48" y2="382.54"/><polyline class="cls-5" points="162.04 362.39 162.04 374.07 152.7 374.07"/><line class="cls-5" x1="11.64" y1="374.07" x2="83.48" y2="374.07"/><polyline class="cls-5" points="152.7 382.54 152.7 374.07 152.11 374.07 152.11 383.12 152.7 383.12"/><polyline class="cls-5" points="83.48 382.54 83.48 374.07 84.07 374.07 84.07 383.12 83.48 383.12"/><polyline class="cls-5" points="152.7 374.07 152.7 371.15 152.7 362.39"/><polyline class="cls-5" points="83.48 374.07 83.48 371.15 83.48 362.39"/><polyline class="cls-5" points="173.43 362.39 162.04 362.39 152.7 362.39"/><line class="cls-5" x1="83.48" y1="362.39" x2="11.64" y2="362.39"/><line class="cls-5" x1="11.64" y1="383.12" x2="83.48" y2="383.12"/><line class="cls-5" x1="84.07" y1="383.12" x2="152.11" y2="383.12"/><line class="cls-5" x1="83.48" y1="362.39" x2="152.7" y2="362.39"/><polyline class="cls-5" points="83.48 374.07 88.16 374.07 88.16 371.15 83.48 371.15"/><polyline class="cls-5" points="117.94 371.15 115.02 371.15 115.02 374.07 117.94 374.07"/><line class="cls-5" x1="88.16" y1="374.07" x2="115.02" y2="374.07"/><line class="cls-5" x1="115.02" y1="371.15" x2="88.16" y2="371.15"/><polyline class="cls-5" points="117.94 374.07 120.86 374.07 120.86 371.15 117.94 371.15"/><polyline class="cls-5" points="152.7 371.15 147.73 371.15 147.73 374.07 152.7 374.07"/><line class="cls-5" x1="120.87" y1="374.07" x2="147.73" y2="374.07"/><line class="cls-5" x1="147.73" y1="371.15" x2="120.87" y2="371.15"/><line class="cls-5" x1="83.48" y1="374.07" x2="83.48" y2="371.15"/><line class="cls-5" x1="152.7" y1="374.07" x2="152.7" y2="371.15"/><path d="M152.67,382.87l.58,52.57h-.58Zm.58,0h-.58l.58,52.57Z" transform="translate(0.03 0.25)"/><path class="cls-5" d="M152.67,382.87l.58,52.57h-.58Zm.58,0h-.58l.58,52.57Z" transform="translate(0.03 0.25)"/><path d="M152.67,436m0-.59v0Zm.58,0h-.58V436Z" transform="translate(0.03 0.25)"/><path class="cls-5" d="M152.67,436m0-.59v0Zm.58,0h-.58V436Z" transform="translate(0.03 0.25)"/><polygon points="153.28 382.54 153.28 383.12 152.7 383.12 153.28 382.54"/><polygon class="cls-5" points="153.28 382.54 153.28 383.12 152.7 383.12 153.28 382.54"/><path d="M158.51,430.48h-5.26v5Zm0,0Z" transform="translate(0.03 0.25)"/><path class="cls-5" d="M158.51,430.48h-5.26v5Zm0,0Z" transform="translate(0.03 0.25)"/><path d="M153.25,382.29h0Z" transform="translate(0.03 0.25)"/><path class="cls-5" d="M153.25,382.29h0Z" transform="translate(0.03 0.25)"/><path d="M153.25,382.29l8.76,45h-8.76Zm8.76,0h-8.76l8.76,45Z" transform="translate(0.03 0.25)"/><path class="cls-5" d="M153.25,382.29l8.76,45h-8.76Zm8.76,0h-8.76l8.76,45Z" transform="translate(0.03 0.25)"/><path d="M158.51,430.48h-5.26v-3.22Zm0,0Z" transform="translate(0.03 0.25)"/><path class="cls-5" d="M158.51,430.48h-5.26v-3.22Zm0,0Z" transform="translate(0.03 0.25)"/><polygon points="153.28 427.51 162.04 427.51 158.54 430.73 153.28 427.51"/><polygon class="cls-5" points="153.28 427.51 162.04 427.51 158.54 430.73 153.28 427.51"/><path d="M162,382.29h-8.76l8.76-8.47Zm0,0Zm0-8.47v0Z" transform="translate(0.03 0.25)"/><path class="cls-5" d="M162,382.29h-8.76l8.76-8.47Zm0,0Zm0-8.47v0Z" transform="translate(0.03 0.25)"/><polygon points="173.43 362.39 173.43 374.07 162.04 374.07 173.43 362.39"/><polygon class="cls-5" points="173.43 362.39 173.43 374.07 162.04 374.07 173.43 362.39"/><path d="M162,415.87H173.4L162,427.26Zm0-42.05v42.05H173.4Z" transform="translate(0.03 0.25)"/><path class="cls-5" d="M162,415.87H173.4L162,427.26Zm0-42.05v42.05H173.4Z" transform="translate(0.03 0.25)"/><polygon points="162.04 374.07 173.43 374.07 173.43 416.12 162.04 374.07"/><polygon class="cls-5" points="162.04 374.07 173.43 374.07 173.43 416.12 162.04 374.07"/><polyline class="cls-5" points="153.28 382.54 153.28 430.73 153.28 435.69"/><line class="cls-5" x1="162.04" y1="374.07" x2="162.04" y2="427.51"/><line class="cls-5" x1="152.7" y1="383.12" x2="152.7" y2="436.28"/><line class="cls-5" x1="173.43" y1="416.12" x2="173.43" y2="362.39"/><path d="M47.24,434.27h0Z" transform="translate(0.03 0.25)"/><path class="cls-5" d="M47.24,434.27h0Z" transform="translate(0.03 0.25)"/><path d="M.22,434.27l47,1.76H.22Zm47,0H.22l47,1.76Z" transform="translate(0.03 0.25)"/><path class="cls-5" d="M.22,434.27l47,1.76H.22Zm47,0H.22l47,1.76Z" transform="translate(0.03 0.25)"/><path d="M.22,429.31h0Zm47,0h0Zm-47-1.75,47,1.75H.22Zm47,0H.22l47,1.75Z" transform="translate(0.03 0.25)"/><path class="cls-5" d="M.22,429.31h0Zm47,0h0Zm-47-1.75,47,1.75H.22Zm47,0H.22l47,1.75Z" transform="translate(0.03 0.25)"/><path d="M.22,429.31l47,2.63H.22Zm47,0H.22l47,2.63Z" transform="translate(0.03 0.25)"/><path class="cls-5" d="M.22,429.31l47,2.63H.22Zm47,0H.22l47,2.63Z" transform="translate(0.03 0.25)"/><path d="M47.24,434.27H.22v-2.33Zm0,0Z" transform="translate(0.03 0.25)"/><path class="cls-5" d="M47.24,434.27H.22v-2.33Zm0,0Z" transform="translate(0.03 0.25)"/><polygon points="0.25 432.19 47.27 432.19 47.27 434.52 0.25 432.19"/><polygon class="cls-5" points="0.25 432.19 47.27 432.19 47.27 434.52 0.25 432.19"/><path d="M47.24,431.94,49,434.27H47.24Zm1.75,0H47.24L49,434.27Z" transform="translate(0.03 0.25)"/><path class="cls-5" d="M47.24,431.94,49,434.27H47.24Zm1.75,0H47.24L49,434.27Z" transform="translate(0.03 0.25)"/><path d="M47.24,434.27,49,436H47.24Zm1.75,0H47.24L49,436Z" transform="translate(0.03 0.25)"/><path class="cls-5" d="M47.24,434.27,49,436H47.24Zm1.75,0H47.24L49,436Z" transform="translate(0.03 0.25)"/><path d="M151.21,431.94l1.75,2.33h-1.75Zm1.75,0h-1.75l1.75,2.33Z" transform="translate(0.03 0.25)"/><path class="cls-5" d="M151.21,431.94l1.75,2.33h-1.75Zm1.75,0h-1.75l1.75,2.33Z" transform="translate(0.03 0.25)"/><path d="M151.21,434.27,153,436h-1.75Zm1.75,0h-1.75L153,436Z" transform="translate(0.03 0.25)"/><path class="cls-5" d="M151.21,434.27,153,436h-1.75Zm1.75,0h-1.75L153,436Z" transform="translate(0.03 0.25)"/><path d="M.22,431.94v2.33h0Zm0,0h0v0Z" transform="translate(0.03 0.25)"/><path class="cls-5" d="M.22,431.94v2.33h0Zm0,0h0v0Z" transform="translate(0.03 0.25)"/><path d="M.22,434.27V436h0Zm0,0h0v0Z" transform="translate(0.03 0.25)"/><path class="cls-5" d="M.22,434.27V436h0Zm0,0h0v0Z" transform="translate(0.03 0.25)"/><line class="cls-5" x1="0.25" y1="434.52" x2="47.27" y2="434.52"/><polyline class="cls-5" points="152.99 434.52 152.99 432.19 151.24 432.19 151.24 436.28 152.99 436.28"/><polyline class="cls-5" points="47.27 434.52 47.27 432.19 49.02 432.19 49.02 436.28 47.27 436.28"/><polyline class="cls-5" points="152.99 432.19 152.99 429.56 152.99 427.81"/><polyline class="cls-5" points="47.27 432.19 47.27 429.56 47.27 427.81"/><polyline class="cls-5" points="0.25 434.52 0.25 432.19 0.25 432.19 0.25 436.28 0.25 436.28"/><polyline class="cls-5" points="0.25 432.19 0.25 429.56 0.25 427.81 47.27 427.81"/><line class="cls-5" x1="0.25" y1="436.28" x2="47.27" y2="436.28"/><line class="cls-5" x1="49.02" y1="436.28" x2="151.24" y2="436.28"/><line class="cls-5" x1="47.27" y1="427.81" x2="152.99" y2="427.81"/><path d="M47.24,429.31h0Z" transform="translate(0.03 0.25)"/><path class="cls-5" d="M47.24,429.31h0Z" transform="translate(0.03 0.25)"/><path d="M51.91,431.94H47.24v-2.63Zm0,0Z" transform="translate(0.03 0.25)"/><path class="cls-5" d="M51.91,431.94H47.24v-2.63Zm0,0Z" transform="translate(0.03 0.25)"/><polygon points="47.27 429.56 51.94 429.56 51.94 432.19 47.27 429.56"/><polygon class="cls-5" points="47.27 429.56 51.94 429.56 51.94 432.19 47.27 429.56"/><path d="M82,429.31h0Z" transform="translate(0.03 0.25)"/><path class="cls-5" d="M82,429.31h0Z" transform="translate(0.03 0.25)"/><path d="M84.91,431.94H82v-2.63Zm0,0Z" transform="translate(0.03 0.25)"/><path class="cls-5" d="M84.91,431.94H82v-2.63Zm0,0Z" transform="translate(0.03 0.25)"/><polygon points="82.02 429.56 84.94 429.56 84.94 432.19 82.02 429.56"/><polygon class="cls-5" points="82.02 429.56 84.94 429.56 84.94 432.19 82.02 429.56"/><path d="M84.91,429.31h0Z" transform="translate(0.03 0.25)"/><path class="cls-5" d="M84.91,429.31h0Z" transform="translate(0.03 0.25)"/><path d="M87.83,431.94H84.91v-2.63Zm0,0Z" transform="translate(0.03 0.25)"/><path class="cls-5" d="M87.83,431.94H84.91v-2.63Zm0,0Z" transform="translate(0.03 0.25)"/><polygon points="84.94 429.56 87.86 429.56 87.86 432.19 84.94 429.56"/><polygon class="cls-5" points="84.94 429.56 87.86 429.56 87.86 432.19 84.94 429.56"/><path d="M148.29,429.31h0Z" transform="translate(0.03 0.25)"/><path class="cls-5" d="M148.29,429.31h0Z" transform="translate(0.03 0.25)"/><path d="M153,431.94h-4.67v-2.63Zm0,0Z" transform="translate(0.03 0.25)"/><path class="cls-5" d="M153,431.94h-4.67v-2.63Zm0,0Z" transform="translate(0.03 0.25)"/><polygon points="148.32 429.56 152.99 429.56 152.99 432.19 148.32 429.56"/><polygon class="cls-5" points="148.32 429.56 152.99 429.56 152.99 432.19 148.32 429.56"/><polyline class="cls-5" points="47.27 432.19 51.94 432.19 51.94 429.56 47.27 429.56"/><polyline class="cls-5" points="84.94 429.56 82.02 429.56 82.02 432.19 84.94 432.19"/><line class="cls-5" x1="51.94" y1="432.19" x2="82.02" y2="432.19"/><line class="cls-5" x1="82.02" y1="429.56" x2="51.94" y2="429.56"/><polyline class="cls-5" points="84.94 432.19 87.86 432.19 87.86 429.56 84.94 429.56"/><polyline class="cls-5" points="152.99 429.56 148.32 429.56 148.32 432.19 152.99 432.19"/><line class="cls-5" x1="87.86" y1="432.19" x2="148.32" y2="432.19"/><line class="cls-5" x1="148.32" y1="429.56" x2="87.86" y2="429.56"/><line class="cls-5" x1="47.27" y1="432.19" x2="47.27" y2="429.56"/><line class="cls-5" x1="152.99" y1="432.19" x2="152.99" y2="429.56"/><line class="cls-5" x1="0.25" y1="436.28" x2="0.25" y2="436.28"/><line class="cls-5" x1="0.25" y1="427.81" x2="0.25" y2="427.81"/><polyline points="0.25 429.56 0.25 429.56 0.25 429.56"/><polyline class="cls-5" points="0.25 429.56 0.25 429.56 0.25 429.56"/><polyline points="0.25 429.56 0.25 432.19 0.25 432.19"/><polyline points="0.25 432.19 0.25 432.19 0.25 432.19 0.25 432.19"/><polyline class="cls-5" points="0.25 429.56 0.25 432.19 0.25 432.19"/><polyline class="cls-5" points="0.25 432.19 0.25 432.19 0.25 432.19 0.25 432.19"/><polyline points="0.25 429.56 0.25 429.56 0.25 432.19 0.25 429.56"/><polyline class="cls-5" points="0.25 429.56 0.25 429.56 0.25 432.19 0.25 429.56"/><line class="cls-5" x1="0.25" y1="429.56" x2="0.25" y2="429.56"/><line class="cls-5" x1="0.25" y1="432.19" x2="0.25" y2="432.19"/><line class="cls-5" x1="0.25" y1="432.19" x2="0.25" y2="429.56"/><polyline points="0.25 382.54 0.25 382.54 0.25 382.54"/><polyline class="cls-5" points="0.25 382.54 0.25 382.54 0.25 382.54"/><polyline points="0.25 382.54 0.25 383.12 0.25 383.12"/><polyline points="0.25 383.12 0.25 383.12 0.25 383.12 0.25 383.12"/><polyline class="cls-5" points="0.25 382.54 0.25 383.12 0.25 383.12"/><polyline class="cls-5" points="0.25 383.12 0.25 383.12 0.25 383.12 0.25 383.12"/><polyline points="0.25 382.54 0.25 382.54 0.25 383.12 0.25 382.54"/><polyline class="cls-5" points="0.25 382.54 0.25 382.54 0.25 383.12 0.25 382.54"/><polyline points="0.25 374.07 0.25 374.07 0.25 374.07"/><polyline class="cls-5" points="0.25 374.07 0.25 374.07 0.25 374.07"/><polyline points="0.25 374.07 0.25 382.54 0.25 382.54"/><polyline points="0.25 382.54 0.25 382.54 0.25 382.54 0.25 382.54"/><polyline class="cls-5" points="0.25 374.07 0.25 382.54 0.25 382.54"/><polyline class="cls-5" points="0.25 382.54 0.25 382.54 0.25 382.54 0.25 382.54"/><polyline points="0.25 374.07 0.25 374.07 0.25 382.54 0.25 374.07"/><polyline class="cls-5" points="0.25 374.07 0.25 374.07 0.25 382.54 0.25 374.07"/><polyline points="0.25 362.39 0.25 362.39 0.25 362.39"/><polyline class="cls-5" points="0.25 362.39 0.25 362.39 0.25 362.39"/><polyline points="0.25 362.39 0.25 371.15 0.25 371.15"/><polyline points="0.25 362.39 0.25 371.15 0.25 362.39 0.25 362.39"/><polyline class="cls-5" points="0.25 362.39 0.25 371.15 0.25 371.15"/><polyline class="cls-5" points="0.25 362.39 0.25 371.15 0.25 362.39 0.25 362.39"/><polyline points="0.25 371.15 0.25 374.07 0.25 374.07"/><polyline points="0.25 374.07 0.25 374.07 0.25 374.07 0.25 374.07"/><polyline class="cls-5" points="0.25 371.15 0.25 374.07 0.25 374.07"/><polyline class="cls-5" points="0.25 374.07 0.25 374.07 0.25 374.07 0.25 374.07"/><polyline points="0.25 371.15 0.25 371.15 0.25 374.07 0.25 371.15"/><polyline class="cls-5" points="0.25 371.15 0.25 371.15 0.25 374.07 0.25 371.15"/><line class="cls-5" x1="0.25" y1="382.54" x2="0.25" y2="382.54"/><line class="cls-5" x1="0.25" y1="374.07" x2="0.25" y2="374.07"/><line class="cls-5" x1="0.25" y1="383.12" x2="0.25" y2="383.12"/><line class="cls-5" x1="0.25" y1="362.39" x2="0.25" y2="362.39"/><path d="M168.73,353.67l4.67,8.47h-4.67Zm4.67,0h-4.67l4.67,8.47Z" transform="translate(0.03 0.25)"/><path class="cls-5" d="M168.73,353.67l4.67,8.47h-4.67Zm4.67,0h-4.67l4.67,8.47Z" transform="translate(0.03 0.25)"/><path d="M168.73,167.63,173.4,215h-4.67Zm4.67,0h-4.67L173.4,215Z" transform="translate(0.03 0.25)"/><path class="cls-5" d="M168.73,167.63,173.4,215h-4.67Zm4.67,0h-4.67L173.4,215Z" transform="translate(0.03 0.25)"/><line class="cls-5" x1="168.76" y1="353.92" x2="173.43" y2="353.92"/><polyline class="cls-5" points="168.76 167.88 168.76 215.2 173.43 215.2"/><polyline class="cls-5" points="168.76 353.92 168.76 362.39 173.43 362.39 173.43 353.92"/><polyline class="cls-5" points="173.43 215.2 173.43 167.88 168.76 167.88"/><polyline class="cls-5" points="173.43 215.2 192.71 244.11 173.43 273.02"/><polyline class="cls-5" points="173.43 353.92 192.71 325.01 173.43 296.09"/><line class="cls-5" x1="168.76" y1="215.2" x2="173.43" y2="215.2"/><line class="cls-5" x1="168.76" y1="353.92" x2="173.43" y2="353.92"/><path d="M520.94,167.63h0Z" transform="translate(0.03 0.25)"/><path class="cls-5" d="M520.94,167.63h0Z" transform="translate(0.03 0.25)"/><path d="M525.61,372.65h-4.67v-205Zm0,0Z" transform="translate(0.03 0.25)"/><path class="cls-5" d="M525.61,372.65h-4.67v-205Zm0,0Z" transform="translate(0.03 0.25)"/><polygon points="520.97 167.88 525.64 167.88 525.64 372.9 520.97 167.88"/><polygon class="cls-5" points="520.97 167.88 525.64 167.88 525.64 372.9 520.97 167.88"/><polyline class="cls-5" points="520.97 167.88 520.97 372.9 525.64 372.9 525.64 167.88 520.97 167.88"/><path d="M353.59,11.68h0Z" transform="translate(0.03 0.25)"/><path class="cls-5" d="M353.59,11.68h0Z" transform="translate(0.03 0.25)"/><path d="M358.27,52h-4.68V11.68Zm0,0Z" transform="translate(0.03 0.25)"/><path class="cls-5" d="M358.27,52h-4.68V11.68Zm0,0Z" transform="translate(0.03 0.25)"/><polygon points="353.63 11.93 358.3 11.93 358.3 52.23 353.63 11.93"/><polygon class="cls-5" points="353.63 11.93 358.3 11.93 358.3 52.23 353.63 11.93"/><path d="M353.59,104h0Z" transform="translate(0.03 0.25)"/><path class="cls-5" d="M353.59,104h0Z" transform="translate(0.03 0.25)"/><path d="M358.27,109.81h-4.68V104Zm0,0Z" transform="translate(0.03 0.25)"/><path class="cls-5" d="M358.27,109.81h-4.68V104Zm0,0Z" transform="translate(0.03 0.25)"/><polygon points="353.63 104.22 358.3 104.22 358.3 110.06 353.63 104.22"/><polygon class="cls-5" points="353.63 104.22 358.3 104.22 358.3 110.06 353.63 104.22"/><path d="M353.59,114.48h0Z" transform="translate(0.03 0.25)"/><path class="cls-5" d="M353.59,114.48h0Z" transform="translate(0.03 0.25)"/><path d="M358.27,415.87h-4.68V114.48Zm0,0Z" transform="translate(0.03 0.25)"/><path class="cls-5" d="M358.27,415.87h-4.68V114.48Zm0,0Z" transform="translate(0.03 0.25)"/><polygon points="353.63 114.73 358.3 114.73 358.3 416.12 353.63 114.73"/><polygon class="cls-5" points="353.63 114.73 358.3 114.73 358.3 416.12 353.63 114.73"/><line class="cls-5" x1="353.63" y1="52.23" x2="358.3" y2="52.23"/><line class="cls-5" x1="353.63" y1="104.22" x2="358.3" y2="104.22"/><line class="cls-5" x1="353.63" y1="11.93" x2="353.63" y2="52.23"/><line class="cls-5" x1="353.63" y1="104.22" x2="353.63" y2="110.06"/><polyline class="cls-5" points="353.63 114.73 353.63 416.12 358.3 416.12 358.3 114.73"/><line class="cls-5" x1="358.3" y1="110.06" x2="358.3" y2="104.22"/><polyline class="cls-5" points="358.3 52.23 358.3 11.93 353.63 11.93"/><line class="cls-5" x1="353.63" y1="52.23" x2="353.63" y2="55.15"/><line class="cls-5" x1="358.3" y1="52.23" x2="358.3" y2="55.15"/><line class="cls-5" x1="353.63" y1="104.22" x2="353.63" y2="101.3"/><line class="cls-5" x1="358.3" y1="104.22" x2="358.3" y2="101.3"/><line class="cls-5" x1="358.3" y1="55.15" x2="353.63" y2="55.15"/><polyline class="cls-5" points="358.3 101.3 353.63 101.3 307.48 101.3"/><path class="cls-5" d="M353.74,54.61a46.3,46.3,0,0,0-46.29,46.29" transform="translate(0.03 0.25)"/><path d="M346.59,372.65l11.68,57.83H346.59Zm11.68,0H346.59l11.68,57.83Z" transform="translate(0.03 0.25)"/><path class="cls-5" d="M346.59,372.65l11.68,57.83H346.59Zm11.68,0H346.59l11.68,57.83Z" transform="translate(0.03 0.25)"/><polyline class="cls-5" points="346.62 372.9 346.62 430.73 358.3 430.73 358.3 372.9 346.62 372.9"/><path d="M.22,430.48l11.39,4.38H.22Zm11.39,0H.22l11.39,4.38Z" transform="translate(0.03 0.25)"/><path class="cls-5" d="M.22,430.48l11.39,4.38H.22Zm11.39,0H.22l11.39,4.38Z" transform="translate(0.03 0.25)"/><polyline class="cls-5" points="0.25 430.73 0.25 435.11 11.64 435.11 11.64 430.73 0.25 430.73"/><path d="M113.53,63.67h0Z" transform="translate(0.03 0.25)"/><path class="cls-5" d="M113.53,63.67h0Z" transform="translate(0.03 0.25)"/><path d="M108.86,109.81h4.67v4.67Zm0-46.14v46.14h4.67Z" transform="translate(0.03 0.25)"/><path class="cls-5" d="M108.86,109.81h4.67v4.67Zm0-46.14v46.14h4.67Z" transform="translate(0.03 0.25)"/><polygon points="108.89 63.92 113.56 63.92 113.56 110.06 108.89 63.92"/><polygon class="cls-5" points="108.89 63.92 113.56 63.92 113.56 110.06 108.89 63.92"/><path d="M113.53,11.68h0Z" transform="translate(0.03 0.25)"/><path class="cls-5" d="M113.53,11.68h0Z" transform="translate(0.03 0.25)"/><path d="M113.53,17.52h-4.67V11.68Zm0,0Z" transform="translate(0.03 0.25)"/><path class="cls-5" d="M113.53,17.52h-4.67V11.68Zm0,0Z" transform="translate(0.03 0.25)"/><polygon points="108.89 11.93 113.56 11.93 113.56 17.77 108.89 11.93"/><polygon class="cls-5" points="108.89 11.93 113.56 11.93 113.56 17.77 108.89 11.93"/><line class="cls-5" x1="113.56" y1="63.92" x2="108.89" y2="63.92"/><polyline class="cls-5" points="113.56 17.77 108.89 17.77 108.89 11.93"/><line class="cls-5" x1="108.89" y1="63.92" x2="108.89" y2="82.32"/><line class="cls-5" x1="108.89" y1="86.99" x2="108.89" y2="110.06"/><line class="cls-5" x1="113.56" y1="110.06" x2="113.56" y2="63.92"/><polyline class="cls-5" points="113.56 17.77 113.56 11.93 108.89 11.93"/><line class="cls-5" x1="108.89" y1="63.92" x2="108.89" y2="61"/><line class="cls-5" x1="113.56" y1="63.92" x2="113.56" y2="61"/><line class="cls-5" x1="108.89" y1="17.77" x2="108.89" y2="20.69"/><line class="cls-5" x1="113.56" y1="17.77" x2="113.56" y2="20.69"/><line class="cls-5" x1="113.56" y1="61" x2="108.89" y2="61"/><polyline class="cls-5" points="113.56 20.69 108.89 20.69 88.45 55.74"/><path class="cls-5" d="M88.78,55.33A40.47,40.47,0,0,0,109,60.75" transform="translate(0.03 0.25)"/><path d="M108.86,82.07h0Z" transform="translate(0.03 0.25)"/><path class="cls-5" d="M108.86,82.07h0Z" transform="translate(0.03 0.25)"/><path d="M108.86,86.74h-97V82.07Zm0,0Z" transform="translate(0.03 0.25)"/><path class="cls-5" d="M108.86,86.74h-97V82.07Zm0,0Z" transform="translate(0.03 0.25)"/><polygon points="11.93 82.31 108.89 82.31 108.89 86.99 11.93 82.31"/><polygon class="cls-5" points="11.93 82.31 108.89 82.31 108.89 86.99 11.93 82.31"/><line class="cls-5" x1="11.93" y1="86.99" x2="40.55" y2="86.99"/><line class="cls-5" x1="45.23" y1="86.99" x2="108.89" y2="86.99"/><polyline class="cls-5" points="108.89 82.31 11.93 82.31 11.93 86.99"/><path d="M45.19,86.74h0Z" transform="translate(0.03 0.25)"/><path class="cls-5" d="M45.19,86.74h0Z" transform="translate(0.03 0.25)"/><path d="M45.19,109.81H40.52V86.74Zm0,0Z" transform="translate(0.03 0.25)"/><path class="cls-5" d="M45.19,109.81H40.52V86.74Zm0,0Z" transform="translate(0.03 0.25)"/><polygon points="40.55 86.99 45.23 86.99 45.23 110.06 40.55 86.99"/><polygon class="cls-5" points="40.55 86.99 45.23 86.99 45.23 110.06 40.55 86.99"/><line class="cls-5" x1="45.23" y1="110.06" x2="45.23" y2="86.99"/><line class="cls-5" x1="40.55" y1="86.99" x2="40.55" y2="110.06"/><path d="M108.86,109.81h0Z" transform="translate(0.03 0.25)"/><path class="cls-5" d="M108.86,109.81h0Z" transform="translate(0.03 0.25)"/><path d="M113.53,114.48H11.9v-4.67Zm0,0Z" transform="translate(0.03 0.25)"/><path class="cls-5" d="M113.53,114.48H11.9v-4.67Zm0,0Z" transform="translate(0.03 0.25)"/><polygon points="11.93 110.06 108.89 110.06 113.56 114.73 11.93 110.06"/><polygon class="cls-5" points="11.93 110.06 108.89 110.06 113.56 114.73 11.93 110.06"/><line class="cls-5" x1="11.93" y1="114.73" x2="113.56" y2="114.73"/><line class="cls-5" x1="108.89" y1="110.06" x2="45.23" y2="110.06"/><polyline class="cls-5" points="40.55 110.06 11.93 110.06 11.93 114.73"/><path d="M511.3,109.81h0Z" transform="translate(0.03 0.25)"/><path class="cls-5" d="M511.3,109.81h0Z" transform="translate(0.03 0.25)"/><path d="M525.61,114.48H511.3v-4.67Zm0,0Z" transform="translate(0.03 0.25)"/><path class="cls-5" d="M525.61,114.48H511.3v-4.67Zm0,0Z" transform="translate(0.03 0.25)"/><polygon points="511.33 110.06 525.64 110.06 525.64 114.73 511.33 110.06"/><polygon class="cls-5" points="511.33 110.06 525.64 110.06 525.64 114.73 511.33 110.06"/><path d="M236.48,109.81h0Z" transform="translate(0.03 0.25)"/><path class="cls-5" d="M236.48,109.81h0Z" transform="translate(0.03 0.25)"/><path d="M459.32,114.48H236.48v-4.67Zm0,0Z" transform="translate(0.03 0.25)"/><path class="cls-5" d="M459.32,114.48H236.48v-4.67Zm0,0Z" transform="translate(0.03 0.25)"/><polygon points="236.52 110.06 459.35 110.06 459.35 114.73 236.52 110.06"/><polygon class="cls-5" points="236.52 110.06 459.35 110.06 459.35 114.73 236.52 110.06"/><path d="M162,109.81h0Z" transform="translate(0.03 0.25)"/><path class="cls-5" d="M162,109.81h0Z" transform="translate(0.03 0.25)"/><path d="M184.5,114.48H162v-4.67Zm0,0Z" transform="translate(0.03 0.25)"/><path class="cls-5" d="M184.5,114.48H162v-4.67Zm0,0Z" transform="translate(0.03 0.25)"/><polygon points="162.04 110.06 184.53 110.06 184.53 114.73 162.04 110.06"/><polygon class="cls-5" points="162.04 110.06 184.53 110.06 184.53 114.73 162.04 110.06"/><path d="M113.53,109.81h0Z" transform="translate(0.03 0.25)"/><path class="cls-5" d="M113.53,109.81h0Z" transform="translate(0.03 0.25)"/><path d="M115.58,114.48h-2v-4.67Zm0,0Z" transform="translate(0.03 0.25)"/><path class="cls-5" d="M115.58,114.48h-2v-4.67Zm0,0Z" transform="translate(0.03 0.25)"/><polygon points="113.56 110.06 115.61 110.06 115.61 114.73 113.56 110.06"/><polygon class="cls-5" points="113.56 110.06 115.61 110.06 115.61 114.73 113.56 110.06"/><line class="cls-5" x1="511.33" y1="110.06" x2="511.33" y2="114.73"/><line class="cls-5" x1="459.35" y1="110.06" x2="459.35" y2="114.73"/><line class="cls-5" x1="236.52" y1="110.06" x2="236.52" y2="114.73"/><line class="cls-5" x1="184.53" y1="110.06" x2="184.53" y2="114.73"/><line class="cls-5" x1="162.04" y1="110.06" x2="162.04" y2="114.73"/><line class="cls-5" x1="115.61" y1="110.06" x2="115.61" y2="114.73"/><line class="cls-5" x1="525.64" y1="110.06" x2="511.33" y2="110.06"/><line class="cls-5" x1="459.35" y1="110.06" x2="358.3" y2="110.06"/><line class="cls-5" x1="353.63" y1="110.06" x2="236.52" y2="110.06"/><line class="cls-5" x1="184.53" y1="110.06" x2="162.04" y2="110.06"/><line class="cls-5" x1="115.61" y1="110.06" x2="113.56" y2="110.06"/><line class="cls-5" x1="113.56" y1="114.73" x2="115.61" y2="114.73"/><line class="cls-5" x1="162.04" y1="114.73" x2="184.53" y2="114.73"/><line class="cls-5" x1="236.52" y1="114.73" x2="353.63" y2="114.73"/><line class="cls-5" x1="358.3" y1="114.73" x2="459.35" y2="114.73"/><polyline class="cls-5" points="511.33 114.73 525.64 114.73 525.64 110.06"/><line class="cls-5" x1="459.35" y1="114.73" x2="462.27" y2="114.73"/><line class="cls-5" x1="459.35" y1="110.06" x2="462.27" y2="110.06"/><line class="cls-5" x1="511.33" y1="114.73" x2="508.41" y2="114.73"/><line class="cls-5" x1="511.33" y1="110.06" x2="508.41" y2="110.06"/><line class="cls-5" x1="462.27" y1="110.06" x2="462.27" y2="114.73"/><polyline class="cls-5" points="508.41 110.06 508.41 114.73 508.41 160.88"/><path class="cls-5" d="M462.24,114.34a46.29,46.29,0,0,0,46.29,46.29" transform="translate(0.03 0.25)"/><line class="cls-5" x1="236.52" y1="114.73" x2="233.6" y2="114.73"/><line class="cls-5" x1="236.52" y1="110.06" x2="233.6" y2="110.06"/><line class="cls-5" x1="184.53" y1="114.73" x2="187.45" y2="114.73"/><line class="cls-5" x1="184.53" y1="110.06" x2="187.45" y2="110.06"/><line class="cls-5" x1="233.6" y1="110.06" x2="233.6" y2="114.73"/><polyline class="cls-5" points="187.45 110.06 187.45 114.73 187.45 160.88"/><path class="cls-5" d="M187.57,160.63a46.3,46.3,0,0,0,46.29-46.29" transform="translate(0.03 0.25)"/><line class="cls-5" x1="115.61" y1="114.73" x2="118.53" y2="114.73"/><line class="cls-5" x1="115.61" y1="110.06" x2="118.53" y2="110.06"/><line class="cls-5" x1="162.04" y1="114.73" x2="159.12" y2="114.73"/><line class="cls-5" x1="162.04" y1="110.06" x2="159.12" y2="110.06"/><line class="cls-5" x1="118.53" y1="110.06" x2="118.53" y2="114.73"/><polyline class="cls-5" points="159.12 110.06 159.12 114.73 159.12 155.03"/><path class="cls-5" d="M118.79,114.34a40.44,40.44,0,0,0,40.45,40.44" transform="translate(0.03 0.25)"/><path d="M580.51,134.63h0Z" transform="translate(0.03 0.25)"/><path class="cls-5" d="M580.51,134.63h0Z" transform="translate(0.03 0.25)"/><path d="M693.24,139.31H580.51v-4.68Zm0,0Z" transform="translate(0.03 0.25)"/><path class="cls-5" d="M693.24,139.31H580.51v-4.68Zm0,0Z" transform="translate(0.03 0.25)"/><polygon points="580.55 134.88 693.28 134.88 693.28 139.56 580.55 134.88"/><polygon class="cls-5" points="580.55 134.88 693.28 134.88 693.28 139.56 580.55 134.88"/><path d="M525.61,134.63h0Z" transform="translate(0.03 0.25)"/><path class="cls-5" d="M525.61,134.63h0Z" transform="translate(0.03 0.25)"/><path d="M528.53,139.31h-2.92v-4.68Zm0,0Z" transform="translate(0.03 0.25)"/><path class="cls-5" d="M528.53,139.31h-2.92v-4.68Zm0,0Z" transform="translate(0.03 0.25)"/><polygon points="525.64 134.88 528.56 134.88 528.56 139.56 525.64 134.88"/><polygon class="cls-5" points="525.64 134.88 528.56 134.88 528.56 139.56 525.64 134.88"/><line class="cls-5" x1="580.55" y1="134.88" x2="580.55" y2="139.56"/><line class="cls-5" x1="528.56" y1="134.88" x2="528.56" y2="139.56"/><line class="cls-5" x1="693.28" y1="134.88" x2="585.22" y2="134.88"/><polyline class="cls-5" points="528.56 134.88 525.64 134.88 525.64 139.56 528.56 139.56"/><polyline class="cls-5" points="580.55 139.56 693.28 139.56 693.28 134.88"/><line class="cls-5" x1="580.55" y1="139.56" x2="577.63" y2="139.56"/><line class="cls-5" x1="580.55" y1="134.88" x2="577.63" y2="134.88"/><line class="cls-5" x1="528.56" y1="139.56" x2="531.48" y2="139.56"/><line class="cls-5" x1="528.56" y1="134.88" x2="531.48" y2="134.88"/><line class="cls-5" x1="577.63" y1="134.88" x2="577.63" y2="139.56"/><polyline class="cls-5" points="531.48 134.88 531.48 139.56 531.48 185.7"/><path class="cls-5" d="M531.6,185.45a46.29,46.29,0,0,0,46.29-46.29" transform="translate(0.03 0.25)"/><path d="M580.51,11.68h0Z" transform="translate(0.03 0.25)"/><path class="cls-5" d="M580.51,11.68h0Z" transform="translate(0.03 0.25)"/><path d="M585.19,62.5h-4.68V11.68Zm0,0Z" transform="translate(0.03 0.25)"/><path class="cls-5" d="M585.19,62.5h-4.68V11.68Zm0,0Z" transform="translate(0.03 0.25)"/><polygon points="580.55 11.93 585.22 11.93 585.22 62.75 580.55 11.93"/><polygon class="cls-5" points="580.55 11.93 585.22 11.93 585.22 62.75 580.55 11.93"/><path d="M580.51,108.64h0Z" transform="translate(0.03 0.25)"/><path class="cls-5" d="M580.51,108.64h0Z" transform="translate(0.03 0.25)"/><path d="M585.19,134.63h-4.68v-26Zm0,0Z" transform="translate(0.03 0.25)"/><path class="cls-5" d="M585.19,134.63h-4.68v-26Zm0,0Z" transform="translate(0.03 0.25)"/><polygon points="580.55 108.89 585.22 108.89 585.22 134.88 580.55 108.89"/><polygon class="cls-5" points="580.55 108.89 585.22 108.89 585.22 134.88 580.55 108.89"/><line class="cls-5" x1="580.55" y1="62.75" x2="585.22" y2="62.75"/><polyline class="cls-5" points="580.55 108.89 585.22 108.89 585.22 134.88"/><line class="cls-5" x1="585.22" y1="62.75" x2="585.22" y2="33.84"/><polyline class="cls-5" points="585.22 29.16 585.22 11.93 580.55 11.93 580.55 62.75"/><line class="cls-5" x1="580.55" y1="108.89" x2="580.55" y2="134.88"/><line class="cls-5" x1="580.55" y1="108.89" x2="580.55" y2="105.97"/><line class="cls-5" x1="585.22" y1="108.89" x2="585.22" y2="105.97"/><line class="cls-5" x1="580.55" y1="62.75" x2="580.55" y2="65.67"/><line class="cls-5" x1="585.22" y1="62.75" x2="585.22" y2="65.67"/><line class="cls-5" x1="585.22" y1="105.97" x2="580.55" y2="105.97"/><polyline class="cls-5" points="585.22 65.67 580.55 65.67 560.39 100.71"/><path class="cls-5" d="M560.44,100.3a40.44,40.44,0,0,0,20.22,5.42" transform="translate(0.03 0.25)"/><path d="M693.24,28.91h0Z" transform="translate(0.03 0.25)"/><path class="cls-5" d="M693.24,28.91h0Z" transform="translate(0.03 0.25)"/><path d="M693.24,33.59h-108V28.91Zm0,0Z" transform="translate(0.03 0.25)"/><path class="cls-5" d="M693.24,33.59h-108V28.91Zm0,0Z" transform="translate(0.03 0.25)"/><polygon points="585.22 29.16 693.28 29.16 693.28 33.84 585.22 29.16"/><polygon class="cls-5" points="585.22 29.16 693.28 29.16 693.28 33.84 585.22 29.16"/><polyline class="cls-5" points="585.22 33.84 693.28 33.84 693.28 29.16 626.11 29.16"/><line class="cls-5" x1="621.73" y1="29.16" x2="585.22" y2="29.16"/><path d="M626.07,11.68h0Z" transform="translate(0.03 0.25)"/><path class="cls-5" d="M626.07,11.68h0Z" transform="translate(0.03 0.25)"/><path d="M626.07,28.91h-4.38V11.68Zm0,0Z" transform="translate(0.03 0.25)"/><path class="cls-5" d="M626.07,28.91h-4.38V11.68Zm0,0Z" transform="translate(0.03 0.25)"/><polygon points="621.73 11.93 626.11 11.93 626.11 29.16 621.73 11.93"/><polygon class="cls-5" points="621.73 11.93 626.11 11.93 626.11 29.16 621.73 11.93"/><polyline class="cls-5" points="626.11 29.16 626.11 11.93 621.73 11.93 621.73 29.16"/><path d="M14.53,382.87l.58,52h-.58Zm.58,0h-.58l.58,52Z" transform="translate(0.03 0.25)"/><path class="cls-5" d="M14.53,382.87l.58,52h-.58Zm.58,0h-.58l.58,52Z" transform="translate(0.03 0.25)"/><path d="M11.61,382.87l2.92,52H11.61Zm2.92,0H11.61l2.92,52Z" transform="translate(0.03 0.25)"/><path class="cls-5" d="M11.61,382.87l2.92,52H11.61Zm2.92,0H11.61l2.92,52Z" transform="translate(0.03 0.25)"/><line class="cls-5" x1="14.56" y1="435.11" x2="14.56" y2="383.12"/><polyline class="cls-5" points="15.14 383.12 14.56 383.12 11.64 383.12 11.64 435.11 14.56 435.11 15.14 435.11 15.14 383.12"/><path d="M.22,382.87v52h0Zm0,0h0v0Z" transform="translate(0.03 0.25)"/><path class="cls-5" d="M.22,382.87v52h0Zm0,0h0v0Z" transform="translate(0.03 0.25)"/><path d="M.22,382.87v52h0Zm0,0h0v0Z" transform="translate(0.03 0.25)"/><path class="cls-5" d="M.22,382.87v52h0Zm0,0h0v0Z" transform="translate(0.03 0.25)"/><line class="cls-5" x1="0.25" y1="383.12" x2="0.25" y2="435.11"/><polyline class="cls-5" points="0.25 435.11 0.25 435.11 0.25 435.11 0.25 383.12 0.25 383.12 0.25 383.12 0.25 435.11"/><polygon points="612.38 0.25 612.38 0.25 600.7 0.25 612.38 0.25"/><polygon class="cls-5" points="612.38 0.25 612.38 0.25 600.7 0.25 612.38 0.25"/><path d="M.22,11.68h0Z" transform="translate(0.03 0.25)"/><path class="cls-5" d="M.22,11.68h0Z" transform="translate(0.03 0.25)"/><path d="M11.61,109.81H.22V11.68Zm0,0Z" transform="translate(0.03 0.25)"/><path class="cls-5" d="M11.61,109.81H.22V11.68Zm0,0Z" transform="translate(0.03 0.25)"/><polygon points="0.25 11.93 11.64 11.93 11.64 110.06 0.25 11.93"/><polygon class="cls-5" points="0.25 11.93 11.64 11.93 11.64 110.06 0.25 11.93"/><polyline class="cls-5" points="0.25 11.93 0.25 110.06 11.64 110.06 11.64 11.93 0.25 11.93"/><polyline points="0.25 0.25 6.09 0.25 0.25 0.25"/><polyline class="cls-5" points="0.25 0.25 6.09 0.25 0.25 0.25"/><polyline points="0.25 0.25 6.09 11.93 0.25 11.93"/><polyline points="0.25 11.93 6.09 11.93 6.09 11.93 0.25 11.93"/><polyline class="cls-5" points="0.25 0.25 6.09 11.93 0.25 11.93"/><polyline class="cls-5" points="0.25 11.93 6.09 11.93 6.09 11.93 0.25 11.93"/><polyline points="0.25 0.25 6.09 0.25 6.09 11.93 0.25 0.25"/><polyline class="cls-5" points="0.25 0.25 6.09 0.25 6.09 11.93 0.25 0.25"/><polyline class="cls-5" points="0.25 11.93 6.09 11.93 6.09 0.25 0.25 0.25"/><path d="M.22,167.63h0Z" transform="translate(0.03 0.25)"/><path class="cls-5" d="M.22,167.63h0Z" transform="translate(0.03 0.25)"/><path d="M11.61,362.14H.22V167.63Zm0,0Z" transform="translate(0.03 0.25)"/><path class="cls-5" d="M11.61,362.14H.22V167.63Zm0,0Z" transform="translate(0.03 0.25)"/><polygon points="0.25 167.88 11.64 167.88 11.64 362.39 0.25 167.88"/><polygon class="cls-5" points="0.25 167.88 11.64 167.88 11.64 362.39 0.25 167.88"/><path d="M.22,362.14h0Z" transform="translate(0.03 0.25)"/><path class="cls-5" d="M.22,362.14h0Z" transform="translate(0.03 0.25)"/><path d="M11.61,372.65H.22V362.14Zm0,0Z" transform="translate(0.03 0.25)"/><path class="cls-5" d="M11.61,372.65H.22V362.14Zm0,0Z" transform="translate(0.03 0.25)"/><polygon points="0.25 362.39 11.64 362.39 11.64 372.9 0.25 362.39"/><polygon class="cls-5" points="0.25 362.39 11.64 362.39 11.64 372.9 0.25 362.39"/><line class="cls-5" x1="0.25" y1="167.88" x2="0.25" y2="362.39"/><line class="cls-5" x1="0.25" y1="372.9" x2="11.64" y2="372.9"/><polyline class="cls-5" points="11.64 362.39 11.64 167.88 0.25 167.88"/><path d="M704.63,0" transform="translate(0.03 0.25)"/><path class="cls-5" d="M704.63,0" transform="translate(0.03 0.25)"/><path d="M704.63,11.68H693.24L704.63,0Zm0,0Zm0-11.68V0Z" transform="translate(0.03 0.25)"/><path class="cls-5" d="M704.63,11.68H693.24L704.63,0Zm0,0Zm0-11.68V0Z" transform="translate(0.03 0.25)"/><path d="M693.24,11.68h0Z" transform="translate(0.03 0.25)"/><path class="cls-5" d="M693.24,11.68h0Z" transform="translate(0.03 0.25)"/><path d="M704.63,109.81H693.24V11.68Zm0,0Z" transform="translate(0.03 0.25)"/><path class="cls-5" d="M704.63,109.81H693.24V11.68Zm0,0Z" transform="translate(0.03 0.25)"/><polygon points="693.28 11.93 704.67 11.93 704.67 110.06 693.28 11.93"/><polygon class="cls-5" points="693.28 11.93 704.67 11.93 704.67 110.06 693.28 11.93"/><polyline class="cls-5" points="704.67 0.25 704.67 11.93 693.28 11.93"/><line class="cls-5" x1="704.67" y1="110.06" x2="704.67" y2="11.93"/><polyline class="cls-5" points="693.28 11.93 693.28 110.06 704.67 110.06"/><path d="M375.5,0h0Z" transform="translate(0.03 0.25)"/><path class="cls-5" d="M375.5,0h0Z" transform="translate(0.03 0.25)"/><path d="M647.1,11.68H375.5V0Zm0,0Z" transform="translate(0.03 0.25)"/><path class="cls-5" d="M647.1,11.68H375.5V0Zm0,0Z" transform="translate(0.03 0.25)"/><polygon points="375.53 0.25 647.13 0.25 647.13 11.93 375.53 0.25"/><polygon class="cls-5" points="375.53 0.25 647.13 0.25 647.13 11.93 375.53 0.25"/><polyline class="cls-5" points="375.53 11.93 647.13 11.93 647.13 0.25 612.38 0.25"/><polyline class="cls-5" points="600.7 0.25 375.53 0.25 375.53 11.93"/><path d="M693.24,167.63h0Z" transform="translate(0.03 0.25)"/><path class="cls-5" d="M693.24,167.63h0Z" transform="translate(0.03 0.25)"/><path d="M704.63,372.65H693.24v-205Zm0,0Z" transform="translate(0.03 0.25)"/><path class="cls-5" d="M704.63,372.65H693.24v-205Zm0,0Z" transform="translate(0.03 0.25)"/><polygon points="693.28 167.88 704.67 167.88 704.67 372.9 693.28 167.88"/><polygon class="cls-5" points="693.28 167.88 704.67 167.88 704.67 372.9 693.28 167.88"/><polyline class="cls-5" points="704.67 372.9 704.67 167.88 693.28 167.88 693.28 372.9 704.67 372.9"/><path d="M58,0,178.66,11.68H58ZM178.66,0H58L178.66,11.68Z" transform="translate(0.03 0.25)"/><path class="cls-5" d="M58,0,178.66,11.68H58ZM178.66,0H58L178.66,11.68Z" transform="translate(0.03 0.25)"/><path d="M236.48,0h0Z" transform="translate(0.03 0.25)"/><path class="cls-5" d="M236.48,0h0Z" transform="translate(0.03 0.25)"/><path d="M317.67,11.68H236.48V0Zm0,0Z" transform="translate(0.03 0.25)"/><path class="cls-5" d="M317.67,11.68H236.48V0Zm0,0Z" transform="translate(0.03 0.25)"/><polygon points="236.52 0.25 317.7 0.25 317.7 11.93 236.52 0.25"/><polygon class="cls-5" points="236.52 0.25 317.7 0.25 317.7 11.93 236.52 0.25"/><line class="cls-5" x1="236.52" y1="11.93" x2="236.52" y2="0.25"/><polyline class="cls-5" points="58.08 11.93 178.69 11.93 178.69 0.25"/><polyline class="cls-5" points="236.52 11.93 317.7 11.93 317.7 0.25 236.52 0.25"/><polyline class="cls-5" points="178.69 0.25 58.08 0.25 58.08 11.93"/><path class="cls-5" d="M181.29,11.54a53,53,0,0,0,53,53" transform="translate(0.03 0.25)"/><path d="M178.66,0h0Z" transform="translate(0.03 0.25)"/><path class="cls-5" d="M178.66,0h0Z" transform="translate(0.03 0.25)"/><path d="M181,11.68h-2.34V0Zm0,0Z" transform="translate(0.03 0.25)"/><path class="cls-5" d="M181,11.68h-2.34V0Zm0,0Z" transform="translate(0.03 0.25)"/><polygon points="178.69 0.25 181.03 0.25 181.03 11.93 178.69 0.25"/><polygon class="cls-5" points="178.69 0.25 181.03 0.25 181.03 11.93 178.69 0.25"/><path d="M234.15,0h0Z" transform="translate(0.03 0.25)"/><path class="cls-5" d="M234.15,0h0Z" transform="translate(0.03 0.25)"/><path d="M236.48,11.68h-2.33V0Zm0,0Z" transform="translate(0.03 0.25)"/><path class="cls-5" d="M236.48,11.68h-2.33V0Zm0,0Z" transform="translate(0.03 0.25)"/><polygon points="234.18 0.25 236.52 0.25 236.52 11.93 234.18 0.25"/><polygon class="cls-5" points="234.18 0.25 236.52 0.25 236.52 11.93 234.18 0.25"/><polyline class="cls-5" points="178.69 0.25 181.03 0.25 181.03 11.93 178.69 11.93 178.69 0.25"/><polyline class="cls-5" points="236.52 11.93 234.18 11.93 234.18 0.25 236.52 0.25 236.52 11.93"/><line class="cls-5" x1="234.18" y1="11.93" x2="234.18" y2="65.08"/><line class="cls-5" x1="178.69" y1="11.93" x2="178.69" y2="0.25"/><line class="cls-5" x1="236.52" y1="11.93" x2="236.52" y2="0.25"/><polyline class="cls-5" points="550.17 471.03 551.63 469.57 551.63 436.28 550.17 436.28 550.17 471.03"/><line class="cls-5" x1="551.05" y1="470.15" x2="551.05" y2="436.28"/><polyline class="cls-5" points="620.26 471.03 618.8 469.57 551.63 469.57 550.17 471.03 620.26 471.03"/><line class="cls-5" x1="619.68" y1="470.15" x2="551.05" y2="470.15"/><polyline class="cls-5" points="618.8 469.57 618.8 436.28 620.26 436.28 620.26 471.03 618.8 469.57"/><line class="cls-5" x1="619.68" y1="470.15" x2="619.68" y2="436.28"/><polyline class="cls-5" points="202.93 471.03 204.39 469.57 204.39 436.28 202.93 436.28 202.93 471.03"/><line class="cls-5" x1="203.51" y1="470.15" x2="203.51" y2="436.28"/><polyline class="cls-5" points="273.02 471.03 271.56 469.57 204.39 469.57 202.93 471.03 273.02 471.03"/><line class="cls-5" x1="272.15" y1="470.15" x2="203.51" y2="470.15"/><polyline class="cls-5" points="271.56 469.57 271.56 436.28 273.02 436.28 273.02 471.03 271.56 469.57"/><line class="cls-5" x1="272.15" y1="470.15" x2="272.15" y2="436.28"/><path d="M583.44,0h0Zm1.75,0h0Z" transform="translate(0.03 0.25)"/><path class="cls-5" d="M583.44,0h0Zm1.75,0h0Z" transform="translate(0.03 0.25)"/><path d="M548.68,0h0Zm1.75,0h0Z" transform="translate(0.03 0.25)"/><path class="cls-5" d="M548.68,0h0Zm1.75,0h0Z" transform="translate(0.03 0.25)"/><polyline class="cls-5" points="46.39 183.95 11.93 183.95 11.93 149.49 29.16 149.49 46.39 149.49 46.39 183.95"/><polyline class="cls-5" points="44.06 151.53 44.06 181.61 13.98 181.61 13.98 151.53 29.16 151.53 44.06 151.53"/><polyline class="cls-5" points="11.64 218.7 46.39 218.7 46.39 149.49"/><polyline class="cls-5" points="46.39 149.49 113.56 149.49 113.56 114.73"/><path d="M693.24,372.65h0Z" transform="translate(0.03 0.25)"/><path class="cls-5" d="M693.24,372.65h0Z" transform="translate(0.03 0.25)"/><path d="M704.63,415.87H693.24V372.65Zm0,0Z" transform="translate(0.03 0.25)"/><path class="cls-5" d="M704.63,415.87H693.24V372.65Zm0,0Z" transform="translate(0.03 0.25)"/><polygon points="693.28 372.9 704.67 372.9 704.67 416.12 693.28 372.9"/><polygon class="cls-5" points="693.28 372.9 704.67 372.9 704.67 416.12 693.28 372.9"/><polyline class="cls-5" points="704.67 416.12 704.67 372.9 693.28 372.9 693.28 416.12"/><path d="M.22,109.81h0Z" transform="translate(0.03 0.25)"/><path class="cls-5" d="M.22,109.81h0Z" transform="translate(0.03 0.25)"/><path d="M11.61,167.63H.22V109.81Zm0,0Z" transform="translate(0.03 0.25)"/><path class="cls-5" d="M11.61,167.63H.22V109.81Zm0,0Z" transform="translate(0.03 0.25)"/><polygon points="0.25 110.06 11.64 110.06 11.64 167.88 0.25 110.06"/><polygon class="cls-5" points="0.25 110.06 11.64 110.06 11.64 167.88 0.25 110.06"/><polyline class="cls-5" points="0.25 110.06 0.25 167.88 11.64 167.88 11.64 110.06 0.25 110.06"/><path d="M693.24,109.81h0Z" transform="translate(0.03 0.25)"/><path class="cls-5" d="M693.24,109.81h0Z" transform="translate(0.03 0.25)"/><path d="M704.63,167.63H693.24V109.81Zm0,0Z" transform="translate(0.03 0.25)"/><path class="cls-5" d="M704.63,167.63H693.24V109.81Zm0,0Z" transform="translate(0.03 0.25)"/><polygon points="693.28 110.06 704.67 110.06 704.67 167.88 693.28 110.06"/><polygon class="cls-5" points="693.28 110.06 704.67 110.06 704.67 167.88 693.28 110.06"/><polyline class="cls-5" points="704.67 167.88 704.67 110.06 693.28 110.06 693.28 167.88 704.67 167.88"/><path d="M647.1,0h0Z" transform="translate(0.03 0.25)"/><path class="cls-5" d="M647.1,0h0Z" transform="translate(0.03 0.25)"/><path d="M693.24,11.68H647.1V0Zm0,0Z" transform="translate(0.03 0.25)"/><path class="cls-5" d="M693.24,11.68H647.1V0Zm0,0Z" transform="translate(0.03 0.25)"/><polygon points="647.13 0.25 704.67 0.25 693.28 11.93 647.13 0.25"/><polygon class="cls-5" points="647.13 0.25 704.67 0.25 693.28 11.93 647.13 0.25"/><line class="cls-5" x1="647.13" y1="11.93" x2="693.28" y2="11.93"/><polyline class="cls-5" points="704.67 0.25 647.13 0.25 647.13 11.93"/><path d="M317.67,0h0Z" transform="translate(0.03 0.25)"/><path class="cls-5" d="M317.67,0h0Z" transform="translate(0.03 0.25)"/><path d="M375.5,11.68H317.67V0Zm0,0Z" transform="translate(0.03 0.25)"/><path class="cls-5" d="M375.5,11.68H317.67V0Zm0,0Z" transform="translate(0.03 0.25)"/><polygon points="317.7 0.25 375.53 0.25 375.53 11.93 317.7 0.25"/><polygon class="cls-5" points="317.7 0.25 375.53 0.25 375.53 11.93 317.7 0.25"/><polyline class="cls-5" points="317.7 11.93 375.53 11.93 375.53 0.25 317.7 0.25 317.7 11.93"/><path d="M.22,0h0Z" transform="translate(0.03 0.25)"/><path class="cls-5" d="M.22,0h0Z" transform="translate(0.03 0.25)"/><path d="M58,11.68H.22V0Zm0,0Z" transform="translate(0.03 0.25)"/><path class="cls-5" d="M58,11.68H.22V0Zm0,0Z" transform="translate(0.03 0.25)"/><polygon points="0.25 0.25 58.08 0.25 58.08 11.93 0.25 0.25"/><polygon class="cls-5" points="0.25 0.25 58.08 0.25 58.08 11.93 0.25 0.25"/><polyline class="cls-5" points="0.25 11.93 58.08 11.93 58.08 0.25 0.25 0.25"/><path d="M.22,372.65h0Z" transform="translate(0.03 0.25)"/><path class="cls-5" d="M.22,372.65h0Z" transform="translate(0.03 0.25)"/><path d="M.22,372.65l11.39,57.83H.22Zm11.39,0H.22l11.39,57.83Z" transform="translate(0.03 0.25)"/><path class="cls-5" d="M.22,372.65l11.39,57.83H.22Zm11.39,0H.22l11.39,57.83Z" transform="translate(0.03 0.25)"/><polyline class="cls-5" points="0.25 372.9 0.25 430.73 11.64 430.73 11.64 372.9 0.25 372.9"/><path d="M162,109.81l11.39,57.82H162Zm11.39,0H162l11.39,57.82Z" transform="translate(0.03 0.25)"/><path class="cls-5" d="M162,109.81l11.39,57.82H162Zm11.39,0H162l11.39,57.82Z" transform="translate(0.03 0.25)"/><polyline class="cls-5" points="162.04 110.06 162.04 167.88 173.43 167.88 173.43 110.06 162.04 110.06"/><path d="M346.59,109.81l11.68,57.82H346.59Zm11.68,0H346.59l11.68,57.82Z" transform="translate(0.03 0.25)"/><path class="cls-5" d="M346.59,109.81l11.68,57.82H346.59Zm11.68,0H346.59l11.68,57.82Z" transform="translate(0.03 0.25)"/><polyline class="cls-5" points="346.62 110.06 346.62 167.88 358.3 167.88 358.3 110.06 346.62 110.06"/><path d="M514.22,109.81l11.39,57.82H514.22Zm11.39,0H514.22l11.39,57.82Z" transform="translate(0.03 0.25)"/><path class="cls-5" d="M514.22,109.81l11.39,57.82H514.22Zm11.39,0H514.22l11.39,57.82Z" transform="translate(0.03 0.25)"/><polyline class="cls-5" points="514.25 110.06 514.25 167.88 525.64 167.88 525.64 110.06 514.25 110.06"/><path d="M514.22,372.65l11.39,57.83H514.22Zm11.39,0H514.22l11.39,57.83Z" transform="translate(0.03 0.25)"/><path class="cls-5" d="M514.22,372.65l11.39,57.83H514.22Zm11.39,0H514.22l11.39,57.83Z" transform="translate(0.03 0.25)"/><polyline class="cls-5" points="514.25 372.9 514.25 430.73 525.64 430.73 525.64 372.9 514.25 372.9"/><polyline class="cls-5" points="83.48 72.68 83.48 82.31 108.89 82.31 108.89 72.68"/><line class="cls-5" x1="100.13" y1="82.32" x2="91.95" y2="82.32"/><line class="cls-5" x1="98.09" y1="74.72" x2="96.92" y2="74.72"/><line class="cls-5" x1="96.04" y1="76.47" x2="96.04" y2="75.31"/><line class="cls-5" x1="95.17" y1="74.72" x2="94" y2="74.72"/><line class="cls-5" x1="96.04" y1="73.85" x2="96.04" y2="72.68"/><polyline class="cls-5" points="84.94 72.09 85.82 73.55 86.7 74.72 87.86 75.89 89.32 77.06 90.78 77.64 92.54 78.23 94.29 78.23 96.04 78.23"/><polyline class="cls-5" points="96.04 78.23 97.79 78.23 99.55 78.23 101.3 77.64 102.76 77.06 104.22 75.89 105.39 74.72 106.56 73.55 107.14 72.09"/><polyline class="cls-5" points="95.17 65.08 91.37 65.67 87.57 66.84"/><polyline class="cls-5" points="108.89 72.68 108.6 71.51 108.31 70.63 108.02 69.47 107.14 68.59 106.26 68"/><line class="cls-5" x1="96.92" y1="65.08" x2="95.17" y2="65.08"/><polyline class="cls-5" points="89.03 76.47 96.04 77.06 103.34 76.47"/><polyline class="cls-5" points="104.51 80.56 105.97 78.52 107.14 76.18 108.02 73.85 108.02 71.22"/><polyline class="cls-5" points="96.04 82.02 99.84 81.73 103.34 81.15 103.63 81.15 103.93 80.86 104.22 80.86 104.51 80.56"/><line class="cls-5" x1="96.04" y1="81.15" x2="103.34" y2="80.56"/><polyline class="cls-5" points="103.34 80.56 103.63 80.56 103.93 80.27 104.22 80.27 104.51 79.98 105.97 77.93 107.14 75.89 108.02 73.55 108.02 71.22"/><polyline class="cls-5" points="87.57 80.56 86.11 78.52 84.94 76.18 84.36 73.85 84.07 71.22 84.36 73.55 84.94 75.89 86.11 77.93 87.57 79.98"/><line class="cls-5" x1="89.03" y1="80.56" x2="96.04" y2="81.15"/><polyline class="cls-5" points="88.74 81.15 92.54 81.73 96.04 82.02"/><polyline class="cls-5" points="87.57 79.98 87.86 80.27 88.16 80.27 88.45 80.56 89.03 80.56"/><polyline class="cls-5" points="87.57 80.56 87.86 80.86 88.16 80.86 88.45 81.15 88.74 81.15"/><polyline class="cls-5" points="87.57 66.84 86.7 67.42 85.82 68 84.94 68.59 84.36 69.47 83.78 70.63 83.48 71.51 83.48 72.68"/><polyline class="cls-5" points="106.26 68 105.68 67.42 104.8 66.84 101.01 65.67 96.92 65.08"/><polyline class="cls-5" points="99.55 66.84 97.21 66.25 94.87 66.25 92.54 66.84"/><polyline class="cls-5" points="92.54 66.84 90.2 67.13 88.16 68 86.4 69.17 85.82 69.76 85.53 70.34 85.24 70.92 84.94 71.51 84.94 72.09"/><polyline class="cls-5" points="107.14 72.09 107.14 71.51 107.14 70.92 106.85 70.34 106.56 69.76 105.97 69.17 103.93 68 101.88 67.13 99.55 66.84"/><polyline class="cls-5" points="97.79 74.72 97.79 74.43 97.5 74.14 97.5 73.85 97.21 73.55 96.92 73.55 96.92 73.26 96.33 73.26 96.04 73.26 95.75 73.26 95.46 73.26 95.17 73.26 94.87 73.55 94.87 73.85 94.58 73.85 94.58 74.14 94.58 74.43 94.58 74.72 94.58 75.01 94.58 75.31 94.87 75.6 94.87 75.89 95.17 75.89 95.46 75.89 95.75 76.18 96.04 76.18 96.33 76.18 96.92 75.89 97.21 75.6 97.5 75.31 97.79 75.01 97.79 74.72"/><polyline class="cls-5" points="97.21 74.72 97.21 74.43 97.21 74.14 96.92 73.85 96.63 73.55 96.33 73.55 96.04 73.55 95.75 73.55 95.46 73.85 95.17 73.85 95.17 74.14 94.87 74.43 94.87 74.72 94.87 75.01 95.17 75.01 95.17 75.31 95.46 75.31 95.46 75.6 95.75 75.6 96.04 75.6 96.33 75.6 96.63 75.6 96.92 75.6 96.92 75.31 97.21 75.31 97.21 75.01 97.21 74.72"/></svg>