<svg xmlns="http://www.w3.org/2000/svg" width="26" height="24" viewBox="0 0 26 24">
    <path fill="#E52628" d="M19.094 0c1.948 0 3.727.837 5.009 2.358C25.326 3.808 26 5.75 26 7.827c0 2.26-.845 4.363-2.658 6.616-1.62 2.015-3.953 4.09-6.653 6.495-1.006.896-2.046 1.822-3.154 2.835l-.033.03c-.144.131-.323.197-.502.197-.18 0-.358-.066-.502-.197l-.033-.03c-1.108-1.013-2.148-1.94-3.154-2.835-2.7-2.404-5.032-4.48-6.653-6.495C.845 12.19 0 10.087 0 7.827c0-2.077.674-4.019 1.897-5.47C3.179.838 4.958 0 6.907 0c2.739 0 4.473 1.71 5.446 3.144.252.372.467.745.647 1.096.18-.35.395-.724.647-1.096C14.62 1.71 16.354 0 19.094 0zm0 1.592c-2.089 0-3.439 1.344-4.204 2.472-.686 1.012-1.044 2.031-1.166 2.423-.102.327-.394.549-.724.549-.33 0-.622-.222-.724-.55-.122-.39-.48-1.41-1.166-2.422-.765-1.128-2.115-2.472-4.204-2.472-1.504 0-2.877.646-3.866 1.818-.978 1.16-1.517 2.728-1.517 4.417 0 4.086 3.491 7.194 8.776 11.899.867.772 1.76 1.567 2.701 2.422.941-.855 1.834-1.65 2.701-2.422 5.285-4.705 8.776-7.813 8.776-11.899 0-1.689-.539-3.258-1.517-4.417-.989-1.172-2.362-1.818-3.866-1.818z"/>
</svg>
