<svg id="_524" data-name="524" xmlns="http://www.w3.org/2000/svg" viewBox="0 0 410.74 607.35"><defs><style>.cls-1,.cls-4{fill:none;stroke-linecap:round;stroke-linejoin:round;}.cls-1{stroke:#999;stroke-width:0.5px;}.cls-2{isolation:isolate;font-size:12px;fill:#999;}.cls-2,.cls-5,.cls-6{font-family:PTSans-Regular, PT Sans;}.cls-3{letter-spacing:-0.01em;}.cls-4{stroke:#000;stroke-width:0.75px;}.cls-5{font-size:24px;}.cls-6{font-size:20px;}</style></defs><title>1floor_524flat</title><line class="cls-1" x1="187.29" y1="596.01" x2="187.29" y2="604.81"/><polyline class="cls-1" points="183.69 601.51 187.19 605.01 190.69 601.51"/><text class="cls-2" transform="translate(196.51 604.41)"><tspan class="cls-3">у</tspan><tspan x="5.42" y="0">лица</tspan></text><line class="cls-4" x1="395.34" y1="110.2" x2="395.34" y2="140.4"/><line class="cls-4" x1="391.75" y1="143.96" x2="313.2" y2="143.96"/><line class="cls-4" x1="391.75" y1="106.64" x2="313.2" y2="106.64"/><line class="cls-4" x1="291.05" y1="147.52" x2="398.94" y2="147.52"/><line class="cls-4" x1="291.05" y1="103.09" x2="398.94" y2="103.09"/><line class="cls-4" x1="291.05" y1="103.09" x2="291.05" y2="147.52"/><line class="cls-4" x1="398.94" y1="103.09" x2="398.94" y2="147.52"/><line class="cls-4" x1="325.83" y1="112.82" x2="387.29" y2="112.82"/><line class="cls-4" x1="389.09" y1="114.6" x2="389.09" y2="136"/><line class="cls-4" x1="325.83" y1="137.78" x2="387.29" y2="137.78"/><line class="cls-4" x1="376.46" y1="124.21" x2="376.46" y2="122.02"/><line class="cls-4" x1="377.57" y1="125.3" x2="379.79" y2="125.3"/><line class="cls-4" x1="376.46" y1="126.39" x2="376.46" y2="128.59"/><line class="cls-4" x1="375.36" y1="125.3" x2="373.14" y2="125.3"/><path class="cls-4" d="M313.08,143.84a18.66,18.66,0,1,1,0-37.32" transform="translate(0.13 0.13)"/><path class="cls-4" d="M395.22,140.28a3.58,3.58,0,0,1-3.6,3.56" transform="translate(0.13 0.13)"/><path class="cls-4" d="M391.62,106.52a3.57,3.57,0,0,1,3.6,3.55" transform="translate(0.13 0.13)"/><path class="cls-4" d="M378.22,125.18a1.88,1.88,0,1,0-1.88,1.85,1.87,1.87,0,0,0,1.88-1.85" transform="translate(0.13 0.13)"/><path class="cls-4" d="M325.7,137.65a12.48,12.48,0,1,1,0-25" transform="translate(0.13 0.13)"/><path class="cls-4" d="M387.17,112.7a1.78,1.78,0,0,1,1.79,1.78" transform="translate(0.13 0.13)"/><path class="cls-4" d="M389,135.88a1.78,1.78,0,0,1-1.79,1.77" transform="translate(0.13 0.13)"/><path class="cls-4" d="M378.85,125.18a2.52,2.52,0,1,0-2.51,2.48,2.51,2.51,0,0,0,2.51-2.48" transform="translate(0.13 0.13)"/><line class="cls-4" x1="389.32" y1="192.55" x2="367.25" y2="192.55"/><line class="cls-4" x1="398.94" y1="191.62" x2="398.94" y2="215.11"/><line class="cls-4" x1="398.94" y1="191.62" x2="390.66" y2="191.62"/><line class="cls-4" x1="385.45" y1="203.37" x2="385.45" y2="212.07"/><line class="cls-4" x1="367.29" y1="192.55" x2="385.45" y2="194.66"/><line class="cls-4" x1="385.45" y1="203.37" x2="385.45" y2="194.66"/><line class="cls-4" x1="367.29" y1="214.17" x2="385.45" y2="212.07"/><line class="cls-4" x1="367.29" y1="193.11" x2="385.45" y2="195.21"/><line class="cls-4" x1="367.29" y1="213.62" x2="385.45" y2="211.52"/><line class="cls-4" x1="389.33" y1="214.17" x2="367.25" y2="214.17"/><line class="cls-4" x1="398.94" y1="215.11" x2="390.66" y2="215.11"/><line class="cls-4" x1="367.29" y1="192.55" x2="364.84" y2="192.86"/><line class="cls-4" x1="364.84" y1="192.86" x2="362.53" y2="193.78"/><line class="cls-4" x1="362.53" y1="193.78" x2="360.5" y2="195.26"/><line class="cls-4" x1="360.5" y1="195.26" x2="358.86" y2="197.21"/><line class="cls-4" x1="358.86" y1="197.21" x2="357.72" y2="199.52"/><line class="cls-4" x1="357.72" y1="199.52" x2="357.13" y2="202.06"/><line class="cls-4" x1="357.13" y1="202.06" x2="357.13" y2="204.67"/><line class="cls-4" x1="357.13" y1="204.67" x2="357.72" y2="207.21"/><line class="cls-4" x1="357.72" y1="207.21" x2="358.86" y2="209.52"/><line class="cls-4" x1="358.86" y1="209.52" x2="360.5" y2="211.47"/><line class="cls-4" x1="360.5" y1="211.47" x2="362.53" y2="212.95"/><line class="cls-4" x1="362.53" y1="212.95" x2="364.84" y2="213.87"/><line class="cls-4" x1="364.84" y1="213.87" x2="367.29" y2="214.17"/><line class="cls-4" x1="367.29" y1="193.11" x2="364.97" y2="193.4"/><line class="cls-4" x1="364.97" y1="193.4" x2="362.79" y2="194.28"/><line class="cls-4" x1="362.79" y1="194.28" x2="360.87" y2="195.69"/><line class="cls-4" x1="360.87" y1="195.69" x2="359.32" y2="197.54"/><line class="cls-4" x1="359.32" y1="197.54" x2="358.24" y2="199.73"/><line class="cls-4" x1="358.24" y1="199.73" x2="357.68" y2="202.13"/><line class="cls-4" x1="357.68" y1="202.13" x2="357.68" y2="204.6"/><line class="cls-4" x1="357.68" y1="204.6" x2="358.24" y2="207"/><line class="cls-4" x1="358.24" y1="207" x2="359.32" y2="209.19"/><line class="cls-4" x1="359.32" y1="209.19" x2="360.87" y2="211.04"/><line class="cls-4" x1="360.87" y1="211.04" x2="362.79" y2="212.45"/><line class="cls-4" x1="362.79" y1="212.45" x2="364.97" y2="213.33"/><line class="cls-4" x1="364.97" y1="213.33" x2="367.29" y2="213.62"/><path class="cls-4" d="M389.15,213.75a97.36,97.36,0,0,1,0-21" transform="translate(0.13 0.13)"/><path class="cls-4" d="M389.15,192.71a1.38,1.38,0,0,1,1.38-1.21" transform="translate(0.13 0.13)"/><path class="cls-4" d="M390.53,215a1.38,1.38,0,0,1-1.38-1.23" transform="translate(0.13 0.13)"/><path class="cls-4" d="M394.75,203.24a1.17,1.17,0,1,0-1.16,1.14,1.15,1.15,0,0,0,1.16-1.14" transform="translate(0.13 0.13)"/><line class="cls-4" x1="279.62" y1="13.6" x2="279.62" y2="101.82"/><line class="cls-4" x1="292.32" y1="89.13" x2="292.32" y2="13.6"/><line class="cls-4" x1="279.62" y1="101.82" x2="397.67" y2="101.82"/><line class="cls-4" x1="397.67" y1="89.13" x2="292.32" y2="89.13"/><line class="cls-4" x1="398.94" y1="147.52" x2="398.94" y2="181.79"/><line class="cls-4" x1="398.94" y1="181.79" x2="384.44" y2="181.79"/><line class="cls-4" x1="398.94" y1="147.52" x2="384.44" y2="147.52"/><line class="cls-4" x1="398.94" y1="170.05" x2="398.94" y2="159.25"/><line class="cls-4" x1="387.31" y1="167.53" x2="387.31" y2="165.7"/><line class="cls-4" x1="390.19" y1="164.64" x2="388.37" y2="164.64"/><line class="cls-4" x1="387.31" y1="163.59" x2="387.31" y2="161.76"/><line class="cls-4" x1="386.25" y1="164.64" x2="384.42" y2="164.64"/><path class="cls-4" d="M383.42,149.5a15.31,15.31,0,0,1,7.23,5.92" transform="translate(0.13 0.13)"/><path class="cls-4" d="M390.65,155.42a15.28,15.28,0,0,1,2.18,7.88c0,.41,0,.82,0,1.23" transform="translate(0.13 0.13)"/><path class="cls-4" d="M390.65,173.63a15.31,15.31,0,0,1-7.23,5.92" transform="translate(0.13 0.13)"/><path class="cls-4" d="M392.79,164.53c0,.4,0,.81,0,1.22a15.28,15.28,0,0,1-2.18,7.88" transform="translate(0.13 0.13)"/><path class="cls-4" d="M372.83,163.33a28.37,28.37,0,0,1,2.84-10.41" transform="translate(0.13 0.13)"/><path class="cls-4" d="M384.32,181.66h-.38a8.74,8.74,0,0,1-6.8-3.26" transform="translate(0.13 0.13)"/><path class="cls-4" d="M372.83,165.72c0-.39,0-.79,0-1.19s0-.81,0-1.2" transform="translate(0.13 0.13)"/><path class="cls-4" d="M390.09,154.93a62.51,62.51,0,0,1,0,19.18" transform="translate(0.13 0.13)"/><path class="cls-4" d="M396.09,175.91a21.57,21.57,0,0,1-13.65,4.87h-.37" transform="translate(0.13 0.13)"/><path class="cls-4" d="M398.12,164.53v.32a42.59,42.59,0,0,1-1.06,9.48" transform="translate(0.13 0.13)"/><path class="cls-4" d="M397.06,174.33a2.85,2.85,0,0,1-1,1.58" transform="translate(0.13 0.13)"/><path class="cls-4" d="M396.77,164.53a72.62,72.62,0,0,1-.7,9.66" transform="translate(0.13 0.13)"/><path class="cls-4" d="M395.13,175.94a19.39,19.39,0,0,1-12.8,4.84h-.26" transform="translate(0.13 0.13)"/><path class="cls-4" d="M396.07,174.19a2.84,2.84,0,0,1-.94,1.75" transform="translate(0.13 0.13)"/><path class="cls-4" d="M382.09,148.27h.23a19.41,19.41,0,0,1,12.83,4.85" transform="translate(0.13 0.13)"/><path class="cls-4" d="M382.09,148.27h.35a21.53,21.53,0,0,1,13.66,4.88" transform="translate(0.13 0.13)"/><path class="cls-4" d="M396.09,154.88a72.6,72.6,0,0,1,.68,9.66" transform="translate(0.13 0.13)"/><path class="cls-4" d="M397.08,154.73a43.39,43.39,0,0,1,1,9.43v.38" transform="translate(0.13 0.13)"/><path class="cls-4" d="M395.15,153.12a2.94,2.94,0,0,1,.94,1.76" transform="translate(0.13 0.13)"/><path class="cls-4" d="M396.1,153.15a2.9,2.9,0,0,1,1,1.58" transform="translate(0.13 0.13)"/><path class="cls-4" d="M377.14,150.64a8.74,8.74,0,0,1,6.8-3.26h.38" transform="translate(0.13 0.13)"/><path class="cls-4" d="M375.67,152.92a13.64,13.64,0,0,1,1.47-2.28" transform="translate(0.13 0.13)"/><path class="cls-4" d="M377.14,178.41a13.64,13.64,0,0,1-1.47-2.28" transform="translate(0.13 0.13)"/><path class="cls-4" d="M375.67,176.13a28.37,28.37,0,0,1-2.84-10.41" transform="translate(0.13 0.13)"/><path class="cls-4" d="M375.26,169.24a20.13,20.13,0,0,1,0-9.43" transform="translate(0.13 0.13)"/><path class="cls-4" d="M379.18,151.26a5.19,5.19,0,0,1,3.89-1.78l.35,0" transform="translate(0.13 0.13)"/><path class="cls-4" d="M375.26,159.81a18.56,18.56,0,0,1,3.92-8.55" transform="translate(0.13 0.13)"/><path class="cls-4" d="M383.42,179.55h-.35a5.15,5.15,0,0,1-3.89-1.78" transform="translate(0.13 0.13)"/><path class="cls-4" d="M379.18,177.78a18.48,18.48,0,0,1-3.92-8.54" transform="translate(0.13 0.13)"/><path class="cls-4" d="M389.41,164.52a2.23,2.23,0,1,0-2.23,2.22,2.22,2.22,0,0,0,2.23-2.22" transform="translate(0.13 0.13)"/><path class="cls-4" d="M388.77,164.52a1.59,1.59,0,1,0-1.59,1.58,1.59,1.59,0,0,0,1.59-1.58" transform="translate(0.13 0.13)"/><line class="cls-4" x1="292.32" y1="0.91" x2="292.32" y2="0.91"/><line class="cls-4" x1="292.32" y1="0.91" x2="200.29" y2="0.91"/><line class="cls-4" x1="200.29" y1="13.6" x2="279.62" y2="13.6"/><line class="cls-4" x1="292.32" y1="13.6" x2="292.32" y2="13.6"/><line class="cls-4" x1="292.32" y1="13.6" x2="292.32" y2="13.6"/><line class="cls-4" x1="292.32" y1="13.6" x2="292.32" y2="0.91"/><line class="cls-4" x1="0.38" y1="0.38" x2="0.38" y2="220.48"/><line class="cls-4" x1="0.38" y1="264.29" x2="0.38" y2="448.35"/><line class="cls-4" x1="13.07" y1="448.35" x2="13.07" y2="264.29"/><line class="cls-4" x1="13.07" y1="200.82" x2="13.07" y2="13.6"/><line class="cls-4" x1="408.42" y1="495.94" x2="410.37" y2="494"/><line class="cls-4" x1="401.24" y1="495.94" x2="410.37" y2="486.82"/><line class="cls-4" x1="400.21" y1="489.79" x2="410.37" y2="479.64"/><line class="cls-4" x1="400.21" y1="482.61" x2="410.37" y2="472.46"/><line class="cls-4" x1="400.21" y1="475.43" x2="410.37" y2="465.28"/><line class="cls-4" x1="400.21" y1="468.25" x2="410.37" y2="458.1"/><line class="cls-4" x1="400.21" y1="461.07" x2="410.37" y2="450.92"/><line class="cls-4" x1="400.21" y1="453.89" x2="410.37" y2="443.74"/><line class="cls-4" x1="400.21" y1="446.71" x2="410.37" y2="436.56"/><line class="cls-4" x1="400.21" y1="439.53" x2="410.37" y2="429.38"/><line class="cls-4" x1="400.21" y1="432.35" x2="410.37" y2="422.19"/><line class="cls-4" x1="400.21" y1="425.17" x2="410.37" y2="415.02"/><line class="cls-4" x1="400.21" y1="417.99" x2="410.37" y2="407.83"/><line class="cls-4" x1="400.21" y1="410.81" x2="410.37" y2="400.65"/><line class="cls-4" x1="400.21" y1="403.63" x2="410.37" y2="393.47"/><line class="cls-4" x1="400.21" y1="396.45" x2="410.37" y2="386.29"/><line class="cls-4" x1="400.21" y1="389.27" x2="410.37" y2="379.11"/><line class="cls-4" x1="400.21" y1="382.09" x2="410.37" y2="371.93"/><line class="cls-4" x1="400.21" y1="374.91" x2="410.37" y2="364.75"/><line class="cls-4" x1="400.21" y1="367.73" x2="410.37" y2="357.57"/><line class="cls-4" x1="400.21" y1="360.55" x2="410.37" y2="350.39"/><line class="cls-4" x1="400.21" y1="353.36" x2="410.37" y2="343.21"/><line class="cls-4" x1="400.21" y1="346.18" x2="410.37" y2="336.03"/><line class="cls-4" x1="400.21" y1="339.01" x2="410.37" y2="328.85"/><line class="cls-4" x1="400.21" y1="331.82" x2="410.37" y2="321.67"/><line class="cls-4" x1="400.21" y1="324.64" x2="410.37" y2="314.49"/><line class="cls-4" x1="400.21" y1="317.46" x2="410.37" y2="307.31"/><line class="cls-4" x1="400.21" y1="310.28" x2="410.37" y2="300.13"/><line class="cls-4" x1="400.21" y1="303.1" x2="410.37" y2="292.95"/><line class="cls-4" x1="400.21" y1="295.92" x2="410.37" y2="285.77"/><line class="cls-4" x1="400.21" y1="288.74" x2="410.37" y2="278.59"/><line class="cls-4" x1="400.21" y1="281.56" x2="410.37" y2="271.41"/><line class="cls-4" x1="400.21" y1="274.38" x2="410.37" y2="264.23"/><line class="cls-4" x1="400.21" y1="267.2" x2="410.37" y2="257.05"/><line class="cls-4" x1="400.21" y1="260.02" x2="410.37" y2="249.86"/><line class="cls-4" x1="400.21" y1="252.84" x2="410.37" y2="242.69"/><line class="cls-4" x1="400.21" y1="245.66" x2="410.37" y2="235.5"/><line class="cls-4" x1="400.21" y1="238.48" x2="410.37" y2="228.32"/><line class="cls-4" x1="400.21" y1="231.3" x2="410.37" y2="221.15"/><line class="cls-4" x1="400.21" y1="224.12" x2="410.37" y2="213.96"/><line class="cls-4" x1="400.21" y1="216.94" x2="410.37" y2="206.78"/><line class="cls-4" x1="400.21" y1="209.76" x2="410.37" y2="199.6"/><line class="cls-4" x1="400.21" y1="202.58" x2="410.37" y2="192.42"/><line class="cls-4" x1="400.21" y1="195.4" x2="410.37" y2="185.24"/><line class="cls-4" x1="400.21" y1="188.22" x2="410.37" y2="178.06"/><line class="cls-4" x1="400.21" y1="181.04" x2="410.37" y2="170.88"/><line class="cls-4" x1="400.21" y1="173.86" x2="410.37" y2="163.7"/><line class="cls-4" x1="400.21" y1="166.68" x2="410.37" y2="156.52"/><line class="cls-4" x1="400.21" y1="159.49" x2="410.37" y2="149.34"/><line class="cls-4" x1="400.21" y1="152.31" x2="410.37" y2="142.16"/><line class="cls-4" x1="400.21" y1="145.14" x2="410.37" y2="134.98"/><line class="cls-4" x1="400.21" y1="137.95" x2="410.37" y2="127.8"/><line class="cls-4" x1="400.21" y1="130.77" x2="410.37" y2="120.62"/><line class="cls-4" x1="400.21" y1="123.59" x2="410.37" y2="113.44"/><line class="cls-4" x1="400.21" y1="116.41" x2="404.65" y2="111.97"/><line class="cls-4" x1="404.83" y1="495.94" x2="405.64" y2="495.13"/><line class="cls-4" x1="406.54" y1="494.23" x2="406.54" y2="494.23"/><line class="cls-4" x1="407.44" y1="493.34" x2="410.13" y2="490.65"/><line class="cls-4" x1="400.21" y1="493.38" x2="402.05" y2="491.54"/><line class="cls-4" x1="402.95" y1="490.65" x2="402.95" y2="490.65"/><line class="cls-4" x1="403.85" y1="489.75" x2="406.54" y2="487.05"/><line class="cls-4" x1="407.44" y1="486.16" x2="407.44" y2="486.16"/><line class="cls-4" x1="408.33" y1="485.26" x2="410.37" y2="483.23"/><line class="cls-4" x1="400.26" y1="486.16" x2="402.95" y2="483.46"/><line class="cls-4" x1="403.85" y1="482.57" x2="403.85" y2="482.57"/><line class="cls-4" x1="404.74" y1="481.67" x2="407.44" y2="478.98"/><line class="cls-4" x1="408.33" y1="478.08" x2="408.33" y2="478.08"/><line class="cls-4" x1="409.23" y1="477.18" x2="410.37" y2="476.05"/><line class="cls-4" x1="400.26" y1="478.98" x2="400.26" y2="478.98"/><line class="cls-4" x1="401.15" y1="478.08" x2="403.85" y2="475.39"/><line class="cls-4" x1="404.74" y1="474.49" x2="404.74" y2="474.49"/><line class="cls-4" x1="405.64" y1="473.59" x2="408.33" y2="470.9"/><line class="cls-4" x1="409.23" y1="470" x2="409.23" y2="470"/><line class="cls-4" x1="410.13" y1="469.11" x2="410.37" y2="468.87"/><line class="cls-4" x1="400.21" y1="471.84" x2="400.26" y2="471.8"/><line class="cls-4" x1="401.15" y1="470.9" x2="401.15" y2="470.9"/><line class="cls-4" x1="402.05" y1="470" x2="404.74" y2="467.31"/><line class="cls-4" x1="405.64" y1="466.41" x2="405.64" y2="466.41"/><line class="cls-4" x1="406.54" y1="465.51" x2="409.23" y2="462.82"/><line class="cls-4" x1="410.13" y1="461.92" x2="410.13" y2="461.92"/><line class="cls-4" x1="400.21" y1="464.66" x2="401.15" y2="463.72"/><line class="cls-4" x1="402.05" y1="462.82" x2="402.05" y2="462.82"/><line class="cls-4" x1="402.95" y1="461.92" x2="405.64" y2="459.23"/><line class="cls-4" x1="406.54" y1="458.33" x2="406.54" y2="458.33"/><line class="cls-4" x1="407.44" y1="457.44" x2="410.13" y2="454.74"/><line class="cls-4" x1="400.21" y1="457.48" x2="402.05" y2="455.64"/><line class="cls-4" x1="402.95" y1="454.74" x2="402.95" y2="454.74"/><line class="cls-4" x1="403.85" y1="453.84" x2="406.54" y2="451.15"/><line class="cls-4" x1="407.44" y1="450.26" x2="407.44" y2="450.26"/><line class="cls-4" x1="408.33" y1="449.36" x2="410.37" y2="447.33"/><line class="cls-4" x1="400.26" y1="450.26" x2="402.95" y2="447.56"/><line class="cls-4" x1="403.85" y1="446.67" x2="403.85" y2="446.67"/><line class="cls-4" x1="404.74" y1="445.77" x2="407.44" y2="443.07"/><line class="cls-4" x1="408.33" y1="442.18" x2="408.33" y2="442.18"/><line class="cls-4" x1="409.23" y1="441.28" x2="410.37" y2="440.15"/><line class="cls-4" x1="400.26" y1="443.07" x2="400.26" y2="443.07"/><line class="cls-4" x1="401.15" y1="442.18" x2="403.85" y2="439.49"/><line class="cls-4" x1="404.74" y1="438.59" x2="404.74" y2="438.59"/><line class="cls-4" x1="405.64" y1="437.69" x2="408.33" y2="435"/><line class="cls-4" x1="409.23" y1="434.1" x2="409.23" y2="434.1"/><line class="cls-4" x1="410.13" y1="433.2" x2="410.37" y2="432.96"/><line class="cls-4" x1="400.21" y1="435.94" x2="400.26" y2="435.89"/><line class="cls-4" x1="401.15" y1="435" x2="401.15" y2="435"/><line class="cls-4" x1="402.05" y1="434.1" x2="404.74" y2="431.41"/><line class="cls-4" x1="405.64" y1="430.51" x2="405.64" y2="430.51"/><line class="cls-4" x1="406.54" y1="429.61" x2="409.23" y2="426.92"/><line class="cls-4" x1="410.13" y1="426.02" x2="410.13" y2="426.02"/><line class="cls-4" x1="400.21" y1="428.76" x2="401.15" y2="427.82"/><line class="cls-4" x1="402.05" y1="426.92" x2="402.05" y2="426.92"/><line class="cls-4" x1="402.95" y1="426.02" x2="405.64" y2="423.33"/><line class="cls-4" x1="406.54" y1="422.43" x2="406.54" y2="422.43"/><line class="cls-4" x1="407.44" y1="421.53" x2="410.13" y2="418.84"/><line class="cls-4" x1="400.21" y1="421.58" x2="402.05" y2="419.74"/><line class="cls-4" x1="402.95" y1="418.84" x2="402.95" y2="418.84"/><line class="cls-4" x1="403.85" y1="417.94" x2="406.54" y2="415.25"/><line class="cls-4" x1="407.44" y1="414.35" x2="407.44" y2="414.35"/><line class="cls-4" x1="408.33" y1="413.45" x2="410.37" y2="411.42"/><line class="cls-4" x1="400.26" y1="414.35" x2="402.95" y2="411.66"/><line class="cls-4" x1="403.85" y1="410.76" x2="403.85" y2="410.76"/><line class="cls-4" x1="404.74" y1="409.87" x2="407.44" y2="407.17"/><line class="cls-4" x1="408.33" y1="406.28" x2="408.33" y2="406.28"/><line class="cls-4" x1="409.23" y1="405.38" x2="410.37" y2="404.24"/><line class="cls-4" x1="400.26" y1="407.17" x2="400.26" y2="407.17"/><line class="cls-4" x1="401.15" y1="406.28" x2="403.85" y2="403.58"/><line class="cls-4" x1="404.74" y1="402.68" x2="404.74" y2="402.68"/><line class="cls-4" x1="405.64" y1="401.79" x2="408.33" y2="399.1"/><line class="cls-4" x1="409.23" y1="398.2" x2="409.23" y2="398.2"/><line class="cls-4" x1="410.13" y1="397.3" x2="410.37" y2="397.06"/><line class="cls-4" x1="400.21" y1="400.04" x2="400.26" y2="399.99"/><line class="cls-4" x1="401.15" y1="399.1" x2="401.15" y2="399.1"/><line class="cls-4" x1="402.05" y1="398.2" x2="404.74" y2="395.51"/><line class="cls-4" x1="405.64" y1="394.61" x2="405.64" y2="394.61"/><line class="cls-4" x1="406.54" y1="393.71" x2="409.23" y2="391.02"/><line class="cls-4" x1="410.13" y1="390.12" x2="410.13" y2="390.12"/><line class="cls-4" x1="400.21" y1="392.86" x2="401.15" y2="391.91"/><line class="cls-4" x1="402.05" y1="391.02" x2="402.05" y2="391.02"/><line class="cls-4" x1="402.95" y1="390.12" x2="405.64" y2="387.43"/><line class="cls-4" x1="406.54" y1="386.53" x2="406.54" y2="386.53"/><line class="cls-4" x1="407.44" y1="385.63" x2="410.13" y2="382.94"/><line class="cls-4" x1="400.21" y1="385.68" x2="402.05" y2="383.84"/><line class="cls-4" x1="402.95" y1="382.94" x2="402.95" y2="382.94"/><line class="cls-4" x1="403.85" y1="382.04" x2="406.54" y2="379.35"/><line class="cls-4" x1="407.44" y1="378.45" x2="407.44" y2="378.45"/><line class="cls-4" x1="408.33" y1="377.56" x2="410.37" y2="375.52"/><line class="cls-4" x1="400.26" y1="378.45" x2="402.95" y2="375.76"/><line class="cls-4" x1="403.85" y1="374.86" x2="403.85" y2="374.86"/><line class="cls-4" x1="404.74" y1="373.96" x2="407.44" y2="371.27"/><line class="cls-4" x1="408.33" y1="370.37" x2="408.33" y2="370.37"/><line class="cls-4" x1="409.23" y1="369.48" x2="410.37" y2="368.34"/><line class="cls-4" x1="400.26" y1="371.27" x2="400.26" y2="371.27"/><line class="cls-4" x1="401.15" y1="370.37" x2="403.85" y2="367.68"/><line class="cls-4" x1="404.74" y1="366.78" x2="404.74" y2="366.78"/><line class="cls-4" x1="405.64" y1="365.89" x2="408.33" y2="363.19"/><line class="cls-4" x1="409.23" y1="362.29" x2="409.23" y2="362.29"/><line class="cls-4" x1="410.13" y1="361.4" x2="410.37" y2="361.16"/><line class="cls-4" x1="400.21" y1="364.14" x2="400.26" y2="364.09"/><line class="cls-4" x1="401.15" y1="363.19" x2="401.15" y2="363.19"/><line class="cls-4" x1="402.05" y1="362.29" x2="404.74" y2="359.6"/><line class="cls-4" x1="405.64" y1="358.71" x2="405.64" y2="358.71"/><line class="cls-4" x1="406.54" y1="357.81" x2="409.23" y2="355.12"/><line class="cls-4" x1="410.13" y1="354.22" x2="410.13" y2="354.22"/><line class="cls-4" x1="400.21" y1="356.95" x2="401.15" y2="356.01"/><line class="cls-4" x1="402.05" y1="355.12" x2="402.05" y2="355.12"/><line class="cls-4" x1="402.95" y1="354.22" x2="405.64" y2="351.52"/><line class="cls-4" x1="406.54" y1="350.63" x2="406.54" y2="350.63"/><line class="cls-4" x1="407.44" y1="349.73" x2="410.13" y2="347.04"/><line class="cls-4" x1="400.21" y1="349.78" x2="402.05" y2="347.94"/><line class="cls-4" x1="402.95" y1="347.04" x2="402.95" y2="347.04"/><line class="cls-4" x1="403.85" y1="346.14" x2="406.54" y2="343.45"/><line class="cls-4" x1="407.44" y1="342.55" x2="407.44" y2="342.55"/><line class="cls-4" x1="408.33" y1="341.65" x2="410.37" y2="339.62"/><line class="cls-4" x1="400.26" y1="342.55" x2="402.95" y2="339.86"/><line class="cls-4" x1="403.85" y1="338.96" x2="403.85" y2="338.96"/><line class="cls-4" x1="404.74" y1="338.06" x2="407.44" y2="335.37"/><line class="cls-4" x1="408.33" y1="334.47" x2="408.33" y2="334.47"/><line class="cls-4" x1="409.23" y1="333.57" x2="410.37" y2="332.44"/><line class="cls-4" x1="400.26" y1="335.37" x2="400.26" y2="335.37"/><line class="cls-4" x1="401.15" y1="334.47" x2="403.85" y2="331.78"/><line class="cls-4" x1="404.74" y1="330.88" x2="404.74" y2="330.88"/><line class="cls-4" x1="405.64" y1="329.98" x2="408.33" y2="327.29"/><line class="cls-4" x1="409.23" y1="326.39" x2="409.23" y2="326.39"/><line class="cls-4" x1="410.13" y1="325.5" x2="410.37" y2="325.26"/><line class="cls-4" x1="400.21" y1="328.24" x2="400.26" y2="328.19"/><line class="cls-4" x1="401.15" y1="327.29" x2="401.15" y2="327.29"/><line class="cls-4" x1="402.05" y1="326.39" x2="404.74" y2="323.7"/><line class="cls-4" x1="405.64" y1="322.8" x2="405.64" y2="322.8"/><line class="cls-4" x1="406.54" y1="321.9" x2="409.23" y2="319.21"/><line class="cls-4" x1="410.13" y1="318.32" x2="410.13" y2="318.32"/><line class="cls-4" x1="400.21" y1="321.05" x2="401.15" y2="320.11"/><line class="cls-4" x1="402.05" y1="319.21" x2="402.05" y2="319.21"/><line class="cls-4" x1="402.95" y1="318.32" x2="405.64" y2="315.62"/><line class="cls-4" x1="406.54" y1="314.73" x2="406.54" y2="314.73"/><line class="cls-4" x1="407.44" y1="313.83" x2="410.13" y2="311.13"/><line class="cls-4" x1="400.21" y1="313.87" x2="402.05" y2="312.03"/><line class="cls-4" x1="402.95" y1="311.13" x2="402.95" y2="311.13"/><line class="cls-4" x1="403.85" y1="310.24" x2="406.54" y2="307.55"/><line class="cls-4" x1="407.44" y1="306.65" x2="407.44" y2="306.65"/><line class="cls-4" x1="408.33" y1="305.75" x2="410.37" y2="303.72"/><line class="cls-4" x1="400.26" y1="306.65" x2="402.95" y2="303.96"/><line class="cls-4" x1="403.85" y1="303.06" x2="403.85" y2="303.06"/><line class="cls-4" x1="404.74" y1="302.16" x2="407.44" y2="299.47"/><line class="cls-4" x1="408.33" y1="298.57" x2="408.33" y2="298.57"/><line class="cls-4" x1="409.23" y1="297.67" x2="410.37" y2="296.54"/><line class="cls-4" x1="400.26" y1="299.47" x2="400.26" y2="299.47"/><line class="cls-4" x1="401.15" y1="298.57" x2="403.85" y2="295.88"/><line class="cls-4" x1="404.74" y1="294.98" x2="404.74" y2="294.98"/><line class="cls-4" x1="405.64" y1="294.08" x2="408.33" y2="291.39"/><line class="cls-4" x1="409.23" y1="290.49" x2="409.23" y2="290.49"/><line class="cls-4" x1="410.13" y1="289.59" x2="410.37" y2="289.36"/><line class="cls-4" x1="400.21" y1="292.33" x2="400.26" y2="292.29"/><line class="cls-4" x1="401.15" y1="291.39" x2="401.15" y2="291.39"/><line class="cls-4" x1="402.05" y1="290.49" x2="404.74" y2="287.8"/><line class="cls-4" x1="405.64" y1="286.9" x2="405.64" y2="286.9"/><line class="cls-4" x1="406.54" y1="286" x2="409.23" y2="283.31"/><line class="cls-4" x1="410.13" y1="282.41" x2="410.13" y2="282.41"/><line class="cls-4" x1="400.21" y1="285.15" x2="401.15" y2="284.21"/><line class="cls-4" x1="402.05" y1="283.31" x2="402.05" y2="283.31"/><line class="cls-4" x1="402.95" y1="282.41" x2="405.64" y2="279.72"/><line class="cls-4" x1="406.54" y1="278.82" x2="406.54" y2="278.82"/><line class="cls-4" x1="407.44" y1="277.93" x2="410.13" y2="275.23"/><line class="cls-4" x1="400.21" y1="277.97" x2="402.05" y2="276.13"/><line class="cls-4" x1="402.95" y1="275.23" x2="402.95" y2="275.23"/><line class="cls-4" x1="403.85" y1="274.34" x2="406.54" y2="271.64"/><line class="cls-4" x1="407.44" y1="270.74" x2="407.44" y2="270.74"/><line class="cls-4" x1="408.33" y1="269.85" x2="410.37" y2="267.82"/><line class="cls-4" x1="400.26" y1="270.74" x2="402.95" y2="268.05"/><line class="cls-4" x1="403.85" y1="267.16" x2="403.85" y2="267.16"/><line class="cls-4" x1="404.74" y1="266.26" x2="407.44" y2="263.57"/><line class="cls-4" x1="408.33" y1="262.67" x2="408.33" y2="262.67"/><line class="cls-4" x1="409.23" y1="261.77" x2="410.37" y2="260.64"/><line class="cls-4" x1="400.26" y1="263.57" x2="400.26" y2="263.57"/><line class="cls-4" x1="401.15" y1="262.67" x2="403.85" y2="259.97"/><line class="cls-4" x1="404.74" y1="259.08" x2="404.74" y2="259.08"/><line class="cls-4" x1="405.64" y1="258.18" x2="408.33" y2="255.49"/><line class="cls-4" x1="409.23" y1="254.59" x2="409.23" y2="254.59"/><line class="cls-4" x1="410.13" y1="253.69" x2="410.37" y2="253.46"/><line class="cls-4" x1="400.21" y1="256.43" x2="400.26" y2="256.39"/><line class="cls-4" x1="401.15" y1="255.49" x2="401.15" y2="255.49"/><line class="cls-4" x1="402.05" y1="254.59" x2="404.74" y2="251.9"/><line class="cls-4" x1="405.64" y1="251" x2="405.64" y2="251"/><line class="cls-4" x1="406.54" y1="250.1" x2="409.23" y2="247.41"/><line class="cls-4" x1="410.13" y1="246.51" x2="410.13" y2="246.51"/><line class="cls-4" x1="400.21" y1="249.25" x2="401.15" y2="248.31"/><line class="cls-4" x1="402.05" y1="247.41" x2="402.05" y2="247.41"/><line class="cls-4" x1="402.95" y1="246.51" x2="405.64" y2="243.82"/><line class="cls-4" x1="406.54" y1="242.92" x2="406.54" y2="242.92"/><line class="cls-4" x1="407.44" y1="242.02" x2="410.13" y2="239.33"/><line class="cls-4" x1="400.21" y1="242.07" x2="402.05" y2="240.23"/><line class="cls-4" x1="402.95" y1="239.33" x2="402.95" y2="239.33"/><line class="cls-4" x1="403.85" y1="238.43" x2="406.54" y2="235.74"/><line class="cls-4" x1="407.44" y1="234.84" x2="407.44" y2="234.84"/><line class="cls-4" x1="408.33" y1="233.95" x2="410.37" y2="231.92"/><line class="cls-4" x1="400.26" y1="234.84" x2="402.95" y2="232.15"/><line class="cls-4" x1="403.85" y1="231.25" x2="403.85" y2="231.25"/><line class="cls-4" x1="404.74" y1="230.35" x2="407.44" y2="227.66"/><line class="cls-4" x1="408.33" y1="226.77" x2="408.33" y2="226.77"/><line class="cls-4" x1="409.23" y1="225.87" x2="410.37" y2="224.73"/><line class="cls-4" x1="400.26" y1="227.66" x2="400.26" y2="227.66"/><line class="cls-4" x1="401.15" y1="226.77" x2="403.85" y2="224.07"/><line class="cls-4" x1="404.74" y1="223.18" x2="404.74" y2="223.18"/><line class="cls-4" x1="405.64" y1="222.28" x2="408.33" y2="219.58"/><line class="cls-4" x1="409.23" y1="218.69" x2="409.23" y2="218.69"/><line class="cls-4" x1="410.13" y1="217.79" x2="410.37" y2="217.55"/><line class="cls-4" x1="400.21" y1="220.53" x2="400.26" y2="220.48"/><line class="cls-4" x1="401.15" y1="219.58" x2="401.15" y2="219.58"/><line class="cls-4" x1="402.05" y1="218.69" x2="404.74" y2="216"/><line class="cls-4" x1="405.64" y1="215.1" x2="405.64" y2="215.1"/><line class="cls-4" x1="406.54" y1="214.2" x2="409.23" y2="211.51"/><line class="cls-4" x1="410.13" y1="210.61" x2="410.13" y2="210.61"/><line class="cls-4" x1="400.21" y1="213.35" x2="401.15" y2="212.41"/><line class="cls-4" x1="402.05" y1="211.51" x2="402.05" y2="211.51"/><line class="cls-4" x1="402.95" y1="210.61" x2="405.64" y2="207.92"/><line class="cls-4" x1="406.54" y1="207.02" x2="406.54" y2="207.02"/><line class="cls-4" x1="407.44" y1="206.12" x2="410.13" y2="203.43"/><line class="cls-4" x1="400.21" y1="206.17" x2="402.05" y2="204.33"/><line class="cls-4" x1="402.95" y1="203.43" x2="402.95" y2="203.43"/><line class="cls-4" x1="403.85" y1="202.53" x2="406.54" y2="199.84"/><line class="cls-4" x1="407.44" y1="198.94" x2="407.44" y2="198.94"/><line class="cls-4" x1="408.33" y1="198.04" x2="410.37" y2="196.01"/><line class="cls-4" x1="400.26" y1="198.94" x2="402.95" y2="196.25"/><line class="cls-4" x1="403.85" y1="195.35" x2="403.85" y2="195.35"/><line class="cls-4" x1="404.74" y1="194.45" x2="407.44" y2="191.76"/><line class="cls-4" x1="408.33" y1="190.86" x2="408.33" y2="190.86"/><line class="cls-4" x1="409.23" y1="189.97" x2="410.37" y2="188.83"/><line class="cls-4" x1="400.26" y1="191.76" x2="400.26" y2="191.76"/><line class="cls-4" x1="401.15" y1="190.86" x2="403.85" y2="188.17"/><line class="cls-4" x1="404.74" y1="187.27" x2="404.74" y2="187.27"/><line class="cls-4" x1="405.64" y1="186.38" x2="408.33" y2="183.68"/><line class="cls-4" x1="409.23" y1="182.79" x2="409.23" y2="182.79"/><line class="cls-4" x1="410.13" y1="181.89" x2="410.37" y2="181.65"/><line class="cls-4" x1="400.21" y1="184.63" x2="400.26" y2="184.58"/><line class="cls-4" x1="401.15" y1="183.68" x2="401.15" y2="183.68"/><line class="cls-4" x1="402.05" y1="182.79" x2="404.74" y2="180.09"/><line class="cls-4" x1="405.64" y1="179.19" x2="405.64" y2="179.19"/><line class="cls-4" x1="406.54" y1="178.3" x2="409.23" y2="175.61"/><line class="cls-4" x1="410.13" y1="174.71" x2="410.13" y2="174.71"/><line class="cls-4" x1="400.21" y1="177.45" x2="401.15" y2="176.5"/><line class="cls-4" x1="402.05" y1="175.61" x2="402.05" y2="175.61"/><line class="cls-4" x1="402.95" y1="174.71" x2="405.64" y2="172.02"/><line class="cls-4" x1="406.54" y1="171.12" x2="406.54" y2="171.12"/><line class="cls-4" x1="407.44" y1="170.22" x2="410.13" y2="167.53"/><line class="cls-4" x1="400.21" y1="170.26" x2="402.05" y2="168.42"/><line class="cls-4" x1="402.95" y1="167.53" x2="402.95" y2="167.53"/><line class="cls-4" x1="403.85" y1="166.63" x2="406.54" y2="163.94"/><line class="cls-4" x1="407.44" y1="163.04" x2="407.44" y2="163.04"/><line class="cls-4" x1="408.33" y1="162.14" x2="410.37" y2="160.11"/><line class="cls-4" x1="400.26" y1="163.04" x2="402.95" y2="160.35"/><line class="cls-4" x1="403.85" y1="159.45" x2="403.85" y2="159.45"/><line class="cls-4" x1="404.74" y1="158.55" x2="407.44" y2="155.86"/><line class="cls-4" x1="408.33" y1="154.96" x2="408.33" y2="154.96"/><line class="cls-4" x1="409.23" y1="154.07" x2="410.37" y2="152.93"/><line class="cls-4" x1="400.26" y1="155.86" x2="400.26" y2="155.86"/><line class="cls-4" x1="401.15" y1="154.96" x2="403.85" y2="152.27"/><line class="cls-4" x1="404.74" y1="151.37" x2="404.74" y2="151.37"/><line class="cls-4" x1="405.64" y1="150.47" x2="408.33" y2="147.78"/><line class="cls-4" x1="409.23" y1="146.88" x2="409.23" y2="146.88"/><line class="cls-4" x1="410.13" y1="145.99" x2="410.37" y2="145.75"/><line class="cls-4" x1="400.21" y1="148.72" x2="400.26" y2="148.68"/><line class="cls-4" x1="401.15" y1="147.78" x2="401.15" y2="147.78"/><line class="cls-4" x1="402.05" y1="146.88" x2="404.74" y2="144.19"/><line class="cls-4" x1="405.64" y1="143.29" x2="405.64" y2="143.29"/><line class="cls-4" x1="406.54" y1="142.4" x2="409.23" y2="139.7"/><line class="cls-4" x1="410.13" y1="138.81" x2="410.13" y2="138.81"/><line class="cls-4" x1="400.21" y1="141.54" x2="401.15" y2="140.6"/><line class="cls-4" x1="402.05" y1="139.7" x2="402.05" y2="139.7"/><line class="cls-4" x1="402.95" y1="138.81" x2="405.64" y2="136.11"/><line class="cls-4" x1="406.54" y1="135.22" x2="406.54" y2="135.22"/><line class="cls-4" x1="407.44" y1="134.32" x2="410.13" y2="131.63"/><line class="cls-4" x1="400.21" y1="134.37" x2="402.05" y2="132.52"/><line class="cls-4" x1="402.95" y1="131.63" x2="402.95" y2="131.63"/><line class="cls-4" x1="403.85" y1="130.73" x2="406.54" y2="128.03"/><line class="cls-4" x1="407.44" y1="127.14" x2="407.44" y2="127.14"/><line class="cls-4" x1="408.33" y1="126.24" x2="410.37" y2="124.21"/><line class="cls-4" x1="400.26" y1="127.14" x2="402.95" y2="124.45"/><line class="cls-4" x1="403.85" y1="123.55" x2="403.85" y2="123.55"/><line class="cls-4" x1="404.74" y1="122.65" x2="407.44" y2="119.96"/><line class="cls-4" x1="408.33" y1="119.06" x2="408.33" y2="119.06"/><line class="cls-4" x1="409.23" y1="118.16" x2="410.37" y2="117.03"/><line class="cls-4" x1="400.26" y1="119.96" x2="400.26" y2="119.96"/><line class="cls-4" x1="401.15" y1="119.06" x2="403.85" y2="116.37"/><line class="cls-4" x1="404.74" y1="115.47" x2="404.74" y2="115.47"/><line class="cls-4" x1="405.64" y1="114.57" x2="408.24" y2="111.97"/><line class="cls-4" x1="400.21" y1="112.82" x2="400.26" y2="112.78"/><line class="cls-4" x1="410.37" y1="495.94" x2="410.37" y2="111.97"/><line class="cls-4" x1="410.37" y1="111.97" x2="400.21" y2="111.97"/><line class="cls-4" x1="400.21" y1="111.97" x2="400.21" y2="495.94"/><line class="cls-4" x1="363.4" y1="233.83" x2="363.4" y2="259.21"/><line class="cls-4" x1="368.48" y1="259.21" x2="368.48" y2="233.83"/><line class="cls-4" x1="279.62" y1="101.82" x2="279.62" y2="149.42"/><line class="cls-4" x1="279.62" y1="200.19" x2="279.62" y2="228.75"/><line class="cls-4" x1="284.7" y1="228.75" x2="284.7" y2="200.19"/><line class="cls-4" x1="284.7" y1="149.42" x2="284.7" y2="101.82"/><line class="cls-4" x1="284.7" y1="101.82" x2="279.62" y2="101.82"/><line class="cls-4" x1="279.62" y1="200.19" x2="284.7" y2="200.19"/><line class="cls-4" x1="279.62" y1="149.42" x2="284.7" y2="149.42"/><line class="cls-4" x1="410.37" y1="173.53" x2="410.37" y2="181.15"/><line class="cls-4" x1="410.37" y1="143.7" x2="410.37" y2="151.32"/><line class="cls-4" x1="70.19" y1="5.99" x2="70.19" y2="13.6"/><line class="cls-4" x1="70.19" y1="0.91" x2="70.19" y2="5.99"/><line class="cls-4" x1="133.65" y1="5.99" x2="133.65" y2="13.6"/><line class="cls-4" x1="133.65" y1="0.91" x2="133.65" y2="5.99"/><line class="cls-4" x1="200.29" y1="0.91" x2="133.65" y2="0.91"/><line class="cls-4" x1="70.19" y1="0.91" x2="0.38" y2="0.91"/><line class="cls-4" x1="0.38" y1="13.6" x2="0.38" y2="13.6"/><line class="cls-4" x1="13.07" y1="13.6" x2="70.19" y2="13.6"/><line class="cls-4" x1="133.65" y1="13.6" x2="200.29" y2="13.6"/><line class="cls-4" x1="133.65" y1="0.91" x2="70.19" y2="0.91"/><path class="cls-4" d="M70.06.78" transform="translate(0.13 0.13)"/><path class="cls-4" d="M131,5.86A58.39,58.39,0,0,1,72.6,64.25" transform="translate(0.13 0.13)"/><line class="cls-4" x1="133.65" y1="0.91" x2="131.12" y2="0.91"/><line class="cls-4" x1="131.12" y1="0.91" x2="131.12" y2="5.99"/><line class="cls-4" x1="131.12" y1="5.99" x2="133.65" y2="5.99"/><line class="cls-4" x1="133.65" y1="5.99" x2="133.65" y2="0.91"/><line class="cls-4" x1="70.19" y1="5.99" x2="72.73" y2="5.99"/><line class="cls-4" x1="72.73" y1="5.99" x2="72.73" y2="0.91"/><line class="cls-4" x1="72.73" y1="0.91" x2="70.19" y2="0.91"/><line class="cls-4" x1="70.19" y1="0.91" x2="70.19" y2="5.99"/><line class="cls-4" x1="72.73" y1="5.99" x2="72.73" y2="64.37"/><line class="cls-4" x1="133.65" y1="0.91" x2="133.65" y2="5.99"/><line class="cls-4" x1="133.65" y1="0.91" x2="133.65" y2="5.99"/><line class="cls-4" x1="133.65" y1="5.99" x2="133.65" y2="13.6"/><line class="cls-4" x1="70.19" y1="0.91" x2="70.19" y2="5.99"/><line class="cls-4" x1="70.19" y1="0.91" x2="70.19" y2="5.99"/><line class="cls-4" x1="70.19" y1="5.99" x2="70.19" y2="13.6"/><line class="cls-4" x1="402.75" y1="89.13" x2="410.37" y2="89.13"/><line class="cls-4" x1="292.32" y1="13.6" x2="292.32" y2="13.6"/><line class="cls-4" x1="397.67" y1="101.82" x2="397.67" y2="111.97"/><line class="cls-4" x1="397.67" y1="111.97" x2="410.37" y2="111.97"/><line class="cls-4" x1="410.37" y1="111.97" x2="410.37" y2="89.13"/><line class="cls-4" x1="410.37" y1="89.13" x2="397.67" y2="89.13"/><line class="cls-4" x1="399.63" y1="567.66" x2="398.16" y2="566.08"/><line class="cls-4" x1="398.16" y1="566.08" x2="398.16" y2="529.58"/><line class="cls-4" x1="398.16" y1="529.58" x2="399.63" y2="529.58"/><line class="cls-4" x1="399.63" y1="529.58" x2="399.63" y2="567.66"/><line class="cls-4" x1="342.52" y1="567.66" x2="343.99" y2="566.08"/><line class="cls-4" x1="343.99" y1="566.08" x2="398.16" y2="566.08"/><line class="cls-4" x1="398.16" y1="566.08" x2="399.63" y2="567.66"/><line class="cls-4" x1="399.63" y1="567.66" x2="342.52" y2="567.66"/><line class="cls-4" x1="342.52" y1="529.58" x2="342.52" y2="567.66"/><line class="cls-4" x1="343.99" y1="529.58" x2="342.52" y2="529.58"/><line class="cls-4" x1="343.99" y1="566.08" x2="343.99" y2="529.58"/><line class="cls-4" x1="342.52" y1="567.66" x2="343.99" y2="566.08"/><line class="cls-4" x1="398.9" y1="566.87" x2="398.9" y2="555.67"/><line class="cls-4" x1="398.9" y1="550.08" x2="398.9" y2="550.08"/><line class="cls-4" x1="398.9" y1="545.6" x2="398.9" y2="540.77"/><line class="cls-4" x1="398.9" y1="540.77" x2="398.9" y2="529.58"/><line class="cls-4" x1="343.25" y1="566.87" x2="354.45" y2="566.87"/><line class="cls-4" x1="360.04" y1="566.87" x2="360.04" y2="566.87"/><line class="cls-4" x1="364.52" y1="566.87" x2="375.71" y2="566.87"/><line class="cls-4" x1="381.31" y1="566.87" x2="381.31" y2="566.87"/><line class="cls-4" x1="385.79" y1="566.87" x2="387.7" y2="566.87"/><line class="cls-4" x1="387.7" y1="566.87" x2="398.9" y2="566.87"/><line class="cls-4" x1="345.46" y1="556.24" x2="396.69" y2="556.24"/><line class="cls-4" x1="396.69" y1="556.24" x2="396.69" y2="535.93"/><line class="cls-4" x1="396.69" y1="535.93" x2="345.46" y2="535.93"/><line class="cls-4" x1="345.46" y1="535.93" x2="345.46" y2="556.24"/><line class="cls-4" x1="345.46" y1="554.21" x2="396.69" y2="554.21"/><line class="cls-4" x1="396.69" y1="554.21" x2="396.69" y2="535.93"/><line class="cls-4" x1="396.69" y1="535.93" x2="345.46" y2="535.93"/><line class="cls-4" x1="345.46" y1="535.93" x2="345.46" y2="554.21"/><line class="cls-4" x1="343.25" y1="566.87" x2="343.25" y2="555.67"/><line class="cls-4" x1="343.25" y1="550.08" x2="343.25" y2="550.08"/><line class="cls-4" x1="343.25" y1="545.6" x2="343.25" y2="540.77"/><line class="cls-4" x1="343.25" y1="540.77" x2="343.25" y2="529.58"/><line class="cls-4" x1="399.58" y1="264.29" x2="364.67" y2="264.29"/><line class="cls-4" x1="399.58" y1="315.06" x2="399.58" y2="264.29"/><line class="cls-4" x1="364.67" y1="315.06" x2="399.58" y2="315.06"/><line class="cls-4" x1="364.67" y1="264.29" x2="364.67" y2="315.06"/><line class="cls-4" x1="367.84" y1="267.46" x2="367.84" y2="294.82"/><line class="cls-4" x1="367.84" y1="294.82" x2="393.23" y2="294.82"/><line class="cls-4" x1="393.23" y1="294.82" x2="393.23" y2="267.46"/><line class="cls-4" x1="393.23" y1="267.46" x2="367.84" y2="267.46"/><line class="cls-4" x1="368.16" y1="299.26" x2="368.16" y2="309.35"/><line class="cls-4" x1="372.35" y1="299.26" x2="372.35" y2="309.35"/><line class="cls-4" x1="376.54" y1="299.26" x2="376.54" y2="309.35"/><line class="cls-4" x1="380.73" y1="299.26" x2="380.73" y2="309.35"/><line class="cls-4" x1="384.92" y1="299.26" x2="384.92" y2="309.35"/><line class="cls-4" x1="389.11" y1="299.26" x2="389.11" y2="309.35"/><line class="cls-4" x1="0.38" y1="124.67" x2="0.38" y2="119.59"/><line class="cls-4" x1="209.81" y1="124.67" x2="209.81" y2="200.82"/><line class="cls-4" x1="209.81" y1="264.29" x2="209.81" y2="448.34"/><line class="cls-4" x1="214.89" y1="448.34" x2="214.89" y2="264.29"/><line class="cls-4" x1="214.89" y1="200.82" x2="214.89" y2="119.59"/><line class="cls-4" x1="400.21" y1="259.21" x2="368.48" y2="259.21"/><line class="cls-4" x1="363.4" y1="259.21" x2="363.4" y2="264.29"/><line class="cls-4" x1="363.4" y1="264.29" x2="400.21" y2="264.29"/><line class="cls-4" x1="400.21" y1="264.29" x2="400.21" y2="259.21"/><line class="cls-4" x1="13.07" y1="124.67" x2="124.77" y2="124.67"/><line class="cls-4" x1="183.16" y1="124.67" x2="209.81" y2="124.67"/><line class="cls-4" x1="214.89" y1="119.59" x2="183.16" y2="119.59"/><line class="cls-4" x1="124.77" y1="119.59" x2="13.07" y2="119.59"/><line class="cls-4" x1="13.07" y1="119.59" x2="13.07" y2="124.67"/><line class="cls-4" x1="124.77" y1="124.67" x2="124.77" y2="119.59"/><line class="cls-4" x1="183.16" y1="124.67" x2="183.16" y2="119.59"/><line class="cls-4" x1="244.72" y1="0.91" x2="252.34" y2="0.91"/><line class="cls-4" x1="160.94" y1="0.91" x2="168.56" y2="0.91"/><line class="cls-4" x1="396.79" y1="233.83" x2="397.04" y2="233.58"/><line class="cls-4" x1="371.65" y1="229.34" x2="372.24" y2="228.75"/><line class="cls-4" x1="397.04" y1="231.29" x2="397.04" y2="233.83"/><line class="cls-4" x1="397.04" y1="228.75" x2="397.04" y2="231.29"/><line class="cls-4" x1="371.65" y1="231.29" x2="371.65" y2="233.83"/><line class="cls-4" x1="371.65" y1="228.75" x2="371.65" y2="231.29"/><line class="cls-4" x1="400.21" y1="228.75" x2="397.04" y2="228.75"/><line class="cls-4" x1="371.65" y1="228.75" x2="284.7" y2="228.75"/><line class="cls-4" x1="279.62" y1="233.83" x2="363.4" y2="233.83"/><line class="cls-4" x1="368.48" y1="233.83" x2="371.65" y2="233.83"/><line class="cls-4" x1="397.04" y1="233.83" x2="400.21" y2="233.83"/><line class="cls-4" x1="400.21" y1="233.83" x2="400.21" y2="228.75"/><line class="cls-4" x1="279.62" y1="228.75" x2="279.62" y2="233.83"/><line class="cls-4" x1="222.5" y1="228.75" x2="222.5" y2="233.83"/><polyline class="cls-4" points="222.5 233.83 224.69 233.83 224.69 228.75 222.5 228.75"/><line class="cls-4" x1="371.65" y1="228.75" x2="397.04" y2="228.75"/><line class="cls-4" x1="371.65" y1="233.83" x2="397.04" y2="233.83"/><path class="cls-4" d="M371.53,228.63a25.21,25.21,0,0,1,1.53-8.69" transform="translate(0.13 0.13)"/><line class="cls-4" x1="397.04" y1="228.75" x2="373.18" y2="220.07"/><line class="cls-4" x1="371.65" y1="228.75" x2="371.65" y2="231.29"/><line class="cls-4" x1="371.65" y1="228.75" x2="371.65" y2="231.29"/><line class="cls-4" x1="371.65" y1="231.29" x2="371.65" y2="233.83"/><line class="cls-4" x1="397.04" y1="228.75" x2="397.04" y2="231.29"/><line class="cls-4" x1="397.04" y1="228.75" x2="397.04" y2="231.29"/><line class="cls-4" x1="397.04" y1="231.29" x2="397.04" y2="233.83"/><line class="cls-4" x1="274.55" y1="0.91" x2="282.17" y2="0.91"/><line class="cls-4" x1="243.45" y1="529.58" x2="252.97" y2="529.58"/><line class="cls-4" x1="255.19" y1="529.58" x2="256.14" y2="529.58"/><line class="cls-4" x1="258.37" y1="529.58" x2="259.32" y2="529.58"/><line class="cls-4" x1="261.54" y1="529.58" x2="271.06" y2="529.58"/><line class="cls-4" x1="273.28" y1="529.58" x2="274.23" y2="529.58"/><line class="cls-4" x1="276.45" y1="529.58" x2="277.41" y2="529.58"/><line class="cls-4" x1="279.63" y1="529.58" x2="289.15" y2="529.58"/><line class="cls-4" x1="291.37" y1="529.58" x2="292.32" y2="529.58"/><line class="cls-4" x1="294.54" y1="529.58" x2="295.49" y2="529.58"/><line class="cls-4" x1="297.71" y1="529.58" x2="307.23" y2="529.58"/><line class="cls-4" x1="309.46" y1="529.58" x2="310.41" y2="529.58"/><line class="cls-4" x1="312.63" y1="529.58" x2="313.58" y2="529.58"/><line class="cls-4" x1="315.8" y1="529.58" x2="325.32" y2="529.58"/><line class="cls-4" x1="327.54" y1="529.58" x2="328.5" y2="529.58"/><line class="cls-4" x1="330.72" y1="529.58" x2="331.67" y2="529.58"/><line class="cls-4" x1="333.89" y1="529.58" x2="343.41" y2="529.58"/><line class="cls-4" x1="345.63" y1="529.58" x2="346.58" y2="529.58"/><line class="cls-4" x1="348.8" y1="529.58" x2="349.76" y2="529.58"/><line class="cls-4" x1="351.98" y1="529.58" x2="361.5" y2="529.58"/><line class="cls-4" x1="363.72" y1="529.58" x2="364.67" y2="529.58"/><line class="cls-4" x1="366.89" y1="529.58" x2="367.84" y2="529.58"/><line class="cls-4" x1="369.75" y1="529.58" x2="379.27" y2="529.58"/><line class="cls-4" x1="292.32" y1="1.54" x2="292.32" y2="4.08"/><line class="cls-4" x1="292.32" y1="4.08" x2="292.32" y2="13.6"/><line class="cls-4" x1="400.21" y1="233.83" x2="387.52" y2="233.83"/><line class="cls-4" x1="387.52" y1="228.75" x2="400.21" y2="228.75"/><line class="cls-4" x1="400.21" y1="228.75" x2="400.21" y2="233.83"/><line class="cls-4" x1="399.98" y1="264.29" x2="400.21" y2="264.06"/><line class="cls-4" x1="390.69" y1="259.21" x2="400.21" y2="259.21"/><line class="cls-4" x1="400.21" y1="259.21" x2="400.21" y2="264.29"/><line class="cls-4" x1="400.21" y1="264.29" x2="390.69" y2="264.29"/><line class="cls-4" x1="324.85" y1="229.03" x2="325.12" y2="228.75"/><line class="cls-4" x1="334.37" y1="233.83" x2="324.85" y2="233.83"/><line class="cls-4" x1="324.85" y1="228.75" x2="334.37" y2="228.75"/><line class="cls-4" x1="0.38" y1="521.97" x2="28.3" y2="521.97"/><line class="cls-4" x1="193.95" y1="521.97" x2="216.16" y2="521.97"/><line class="cls-4" x1="86.69" y1="521.97" x2="135.56" y2="521.97"/><line class="cls-4" x1="13.07" y1="521.33" x2="25.76" y2="521.33"/><line class="cls-4" x1="196.49" y1="521.33" x2="209.81" y2="521.33"/><line class="cls-4" x1="89.23" y1="521.33" x2="133.02" y2="521.33"/><line class="cls-4" x1="0.38" y1="521.33" x2="0.38" y2="521.33"/><line class="cls-4" x1="89.23" y1="517.52" x2="89.23" y2="495.94"/><line class="cls-4" x1="86.69" y1="521.97" x2="86.69" y2="521.33"/><line class="cls-4" x1="86.69" y1="529.58" x2="86.69" y2="521.97"/><line class="cls-4" x1="86.69" y1="521.33" x2="89.23" y2="521.33"/><line class="cls-4" x1="89.23" y1="521.33" x2="89.23" y2="517.52"/><line class="cls-4" x1="25.76" y1="517.52" x2="25.76" y2="495.94"/><line class="cls-4" x1="28.3" y1="521.97" x2="28.3" y2="521.33"/><line class="cls-4" x1="28.3" y1="529.58" x2="28.3" y2="521.97"/><line class="cls-4" x1="28.3" y1="521.33" x2="25.76" y2="521.33"/><line class="cls-4" x1="25.76" y1="521.33" x2="25.76" y2="517.52"/><line class="cls-4" x1="196.49" y1="517.52" x2="196.49" y2="495.94"/><line class="cls-4" x1="193.95" y1="521.97" x2="193.95" y2="521.33"/><line class="cls-4" x1="193.95" y1="529.58" x2="193.95" y2="521.97"/><line class="cls-4" x1="193.95" y1="521.33" x2="196.49" y2="521.33"/><line class="cls-4" x1="196.49" y1="521.33" x2="196.49" y2="517.52"/><line class="cls-4" x1="133.02" y1="517.52" x2="133.02" y2="495.94"/><line class="cls-4" x1="135.56" y1="521.97" x2="135.56" y2="521.33"/><line class="cls-4" x1="135.56" y1="529.58" x2="135.56" y2="521.97"/><line class="cls-4" x1="135.56" y1="521.33" x2="133.02" y2="521.33"/><line class="cls-4" x1="133.02" y1="521.33" x2="133.02" y2="517.52"/><line class="cls-4" x1="209.81" y1="495.94" x2="196.49" y2="495.94"/><line class="cls-4" x1="133.02" y1="495.94" x2="89.23" y2="495.94"/><line class="cls-4" x1="25.76" y1="495.94" x2="13.07" y2="495.94"/><line class="cls-4" x1="0.38" y1="529.58" x2="28.3" y2="529.58"/><line class="cls-4" x1="86.69" y1="529.58" x2="135.56" y2="529.58"/><line class="cls-4" x1="193.95" y1="529.58" x2="216.16" y2="529.58"/><line class="cls-4" x1="28.3" y1="529.58" x2="86.69" y2="529.58"/><line class="cls-4" x1="25.76" y1="495.94" x2="89.23" y2="495.94"/><line class="cls-4" x1="25.76" y1="517.52" x2="30.84" y2="517.52"/><line class="cls-4" x1="30.84" y1="517.52" x2="30.84" y2="521.33"/><line class="cls-4" x1="30.84" y1="521.33" x2="25.76" y2="521.33"/><line class="cls-4" x1="89.23" y1="521.33" x2="84.15" y2="521.33"/><line class="cls-4" x1="84.15" y1="521.33" x2="84.15" y2="517.52"/><line class="cls-4" x1="84.15" y1="517.52" x2="89.23" y2="517.52"/><line class="cls-4" x1="30.84" y1="519.43" x2="84.15" y2="519.43"/><line class="cls-4" x1="30.84" y1="517.52" x2="84.15" y2="517.52"/><line class="cls-4" x1="84.15" y1="521.33" x2="30.84" y2="521.33"/><line class="cls-4" x1="25.76" y1="521.33" x2="25.76" y2="517.52"/><line class="cls-4" x1="25.76" y1="521.33" x2="25.76" y2="517.52"/><line class="cls-4" x1="28.3" y1="521.33" x2="25.76" y2="521.33"/><line class="cls-4" x1="28.3" y1="521.33" x2="25.76" y2="521.33"/><line class="cls-4" x1="28.3" y1="529.58" x2="28.3" y2="521.97"/><line class="cls-4" x1="28.3" y1="521.97" x2="28.3" y2="521.33"/><line class="cls-4" x1="25.76" y1="517.52" x2="25.76" y2="495.94"/><line class="cls-4" x1="89.23" y1="521.33" x2="89.23" y2="517.52"/><line class="cls-4" x1="89.23" y1="521.33" x2="89.23" y2="517.52"/><line class="cls-4" x1="86.69" y1="521.33" x2="89.23" y2="521.33"/><line class="cls-4" x1="86.69" y1="521.33" x2="89.23" y2="521.33"/><line class="cls-4" x1="86.69" y1="529.58" x2="86.69" y2="521.97"/><line class="cls-4" x1="86.69" y1="521.97" x2="86.69" y2="521.33"/><line class="cls-4" x1="89.23" y1="517.52" x2="89.23" y2="495.94"/><line class="cls-4" x1="135.56" y1="529.58" x2="193.95" y2="529.58"/><line class="cls-4" x1="133.02" y1="495.94" x2="196.49" y2="495.94"/><line class="cls-4" x1="133.02" y1="517.52" x2="138.1" y2="517.52"/><line class="cls-4" x1="138.1" y1="517.52" x2="138.1" y2="521.33"/><line class="cls-4" x1="138.1" y1="521.33" x2="133.02" y2="521.33"/><line class="cls-4" x1="196.49" y1="521.33" x2="191.41" y2="521.33"/><line class="cls-4" x1="191.41" y1="521.33" x2="191.41" y2="517.52"/><line class="cls-4" x1="191.41" y1="517.52" x2="196.49" y2="517.52"/><line class="cls-4" x1="138.1" y1="519.43" x2="191.41" y2="519.43"/><line class="cls-4" x1="138.1" y1="517.52" x2="191.41" y2="517.52"/><line class="cls-4" x1="191.41" y1="521.33" x2="138.1" y2="521.33"/><line class="cls-4" x1="133.02" y1="521.33" x2="133.02" y2="517.52"/><line class="cls-4" x1="133.02" y1="521.33" x2="133.02" y2="517.52"/><line class="cls-4" x1="135.56" y1="521.33" x2="133.02" y2="521.33"/><line class="cls-4" x1="135.56" y1="521.33" x2="133.02" y2="521.33"/><line class="cls-4" x1="135.56" y1="529.58" x2="135.56" y2="521.97"/><line class="cls-4" x1="135.56" y1="521.97" x2="135.56" y2="521.33"/><line class="cls-4" x1="133.02" y1="517.52" x2="133.02" y2="495.94"/><line class="cls-4" x1="196.49" y1="521.33" x2="196.49" y2="517.52"/><line class="cls-4" x1="196.49" y1="521.33" x2="196.49" y2="517.52"/><line class="cls-4" x1="193.95" y1="521.33" x2="196.49" y2="521.33"/><line class="cls-4" x1="193.95" y1="521.33" x2="196.49" y2="521.33"/><line class="cls-4" x1="193.95" y1="529.58" x2="193.95" y2="521.97"/><line class="cls-4" x1="193.95" y1="521.97" x2="193.95" y2="521.33"/><line class="cls-4" x1="196.49" y1="517.52" x2="196.49" y2="495.94"/><line class="cls-4" x1="400.21" y1="511.33" x2="405.29" y2="506.26"/><line class="cls-4" x1="400.21" y1="504.15" x2="405.29" y2="499.08"/><line class="cls-4" x1="400.21" y1="496.97" x2="401.24" y2="495.94"/><line class="cls-4" x1="403.33" y1="511.81" x2="403.85" y2="511.29"/><line class="cls-4" x1="404.74" y1="510.39" x2="404.74" y2="510.39"/><line class="cls-4" x1="400.21" y1="507.74" x2="400.26" y2="507.7"/><line class="cls-4" x1="401.15" y1="506.8" x2="401.15" y2="506.8"/><line class="cls-4" x1="402.05" y1="505.9" x2="404.74" y2="503.21"/><line class="cls-4" x1="400.21" y1="500.56" x2="401.15" y2="499.62"/><line class="cls-4" x1="402.05" y1="498.72" x2="402.05" y2="498.72"/><line class="cls-4" x1="402.95" y1="497.83" x2="404.83" y2="495.94"/><line class="cls-4" x1="400.21" y1="521.97" x2="405.29" y2="521.97"/><line class="cls-4" x1="342.46" y1="521.97" x2="400.21" y2="521.97"/><line class="cls-4" x1="216.16" y1="521.97" x2="234.57" y2="521.97"/><line class="cls-4" x1="400.21" y1="495.94" x2="400.21" y2="511.81"/><line class="cls-4" x1="345" y1="521.33" x2="400.21" y2="521.33"/><line class="cls-4" x1="222.51" y1="521.33" x2="232.03" y2="521.33"/><line class="cls-4" x1="232.03" y1="517.52" x2="232.03" y2="495.94"/><line class="cls-4" x1="234.57" y1="521.97" x2="234.57" y2="521.33"/><line class="cls-4" x1="234.57" y1="529.58" x2="234.57" y2="521.97"/><line class="cls-4" x1="234.57" y1="521.33" x2="232.03" y2="521.33"/><line class="cls-4" x1="232.03" y1="521.33" x2="232.03" y2="517.52"/><line class="cls-4" x1="345" y1="517.52" x2="345" y2="495.94"/><line class="cls-4" x1="342.46" y1="521.97" x2="342.46" y2="521.33"/><line class="cls-4" x1="342.46" y1="529.58" x2="342.46" y2="521.97"/><line class="cls-4" x1="342.46" y1="521.33" x2="345" y2="521.33"/><line class="cls-4" x1="345" y1="521.33" x2="345" y2="517.52"/><line class="cls-4" x1="400.21" y1="495.94" x2="345" y2="495.94"/><line class="cls-4" x1="232.03" y1="495.94" x2="222.51" y2="495.94"/><line class="cls-4" x1="216.16" y1="529.58" x2="234.57" y2="529.58"/><line class="cls-4" x1="342.46" y1="529.58" x2="405.29" y2="529.58"/><line class="cls-4" x1="342.46" y1="529.58" x2="234.57" y2="529.58"/><line class="cls-4" x1="345" y1="495.94" x2="232.03" y2="495.94"/><line class="cls-4" x1="345" y1="517.52" x2="339.92" y2="517.52"/><line class="cls-4" x1="339.92" y1="517.52" x2="339.92" y2="521.33"/><line class="cls-4" x1="339.92" y1="521.33" x2="345" y2="521.33"/><line class="cls-4" x1="288.51" y1="521.33" x2="291.05" y2="521.33"/><line class="cls-4" x1="291.05" y1="521.33" x2="291.05" y2="517.52"/><line class="cls-4" x1="291.05" y1="517.52" x2="288.51" y2="517.52"/><line class="cls-4" x1="339.92" y1="519.43" x2="291.05" y2="519.43"/><line class="cls-4" x1="339.92" y1="517.52" x2="291.05" y2="517.52"/><line class="cls-4" x1="291.05" y1="521.33" x2="339.92" y2="521.33"/><line class="cls-4" x1="288.51" y1="517.52" x2="285.97" y2="517.52"/><line class="cls-4" x1="285.97" y1="517.52" x2="285.97" y2="521.33"/><line class="cls-4" x1="285.97" y1="521.33" x2="288.51" y2="521.33"/><line class="cls-4" x1="232.03" y1="521.33" x2="237.1" y2="521.33"/><line class="cls-4" x1="237.1" y1="521.33" x2="237.1" y2="517.52"/><line class="cls-4" x1="237.1" y1="517.52" x2="232.03" y2="517.52"/><line class="cls-4" x1="285.97" y1="519.43" x2="237.1" y2="519.43"/><line class="cls-4" x1="285.97" y1="517.52" x2="237.1" y2="517.52"/><line class="cls-4" x1="237.1" y1="521.33" x2="285.97" y2="521.33"/><line class="cls-4" x1="345" y1="521.33" x2="345" y2="517.52"/><line class="cls-4" x1="345" y1="521.33" x2="345" y2="517.52"/><line class="cls-4" x1="342.46" y1="521.33" x2="345" y2="521.33"/><line class="cls-4" x1="342.46" y1="521.33" x2="345" y2="521.33"/><line class="cls-4" x1="342.46" y1="529.58" x2="342.46" y2="521.97"/><line class="cls-4" x1="342.46" y1="521.97" x2="342.46" y2="521.33"/><line class="cls-4" x1="345" y1="517.52" x2="345" y2="495.94"/><line class="cls-4" x1="232.03" y1="521.33" x2="232.03" y2="517.52"/><line class="cls-4" x1="232.03" y1="521.33" x2="232.03" y2="517.52"/><line class="cls-4" x1="234.57" y1="521.33" x2="232.03" y2="521.33"/><line class="cls-4" x1="234.57" y1="521.33" x2="232.03" y2="521.33"/><line class="cls-4" x1="234.57" y1="529.58" x2="234.57" y2="521.97"/><line class="cls-4" x1="234.57" y1="521.97" x2="234.57" y2="521.33"/><line class="cls-4" x1="232.03" y1="517.52" x2="232.03" y2="495.94"/><line class="cls-4" x1="406.91" y1="511.81" x2="410.37" y2="508.36"/><line class="cls-4" x1="405.29" y1="506.26" x2="410.37" y2="501.18"/><line class="cls-4" x1="405.29" y1="499.08" x2="408.42" y2="495.94"/><line class="cls-4" x1="405.64" y1="509.49" x2="408.33" y2="506.8"/><line class="cls-4" x1="409.23" y1="505.9" x2="409.23" y2="505.9"/><line class="cls-4" x1="410.13" y1="505" x2="410.37" y2="504.77"/><line class="cls-4" x1="405.64" y1="502.31" x2="405.64" y2="502.31"/><line class="cls-4" x1="406.54" y1="501.42" x2="409.23" y2="498.72"/><line class="cls-4" x1="410.13" y1="497.83" x2="410.13" y2="497.83"/><line class="cls-4" x1="410.37" y1="521.97" x2="410.37" y2="521.97"/><line class="cls-4" x1="405.29" y1="521.97" x2="410.37" y2="521.97"/><line class="cls-4" x1="410.37" y1="521.33" x2="410.37" y2="521.33"/><line class="cls-4" x1="410.37" y1="511.81" x2="410.37" y2="495.94"/><line class="cls-4" x1="410.37" y1="521.97" x2="410.37" y2="521.33"/><line class="cls-4" x1="410.37" y1="529.58" x2="410.37" y2="521.97"/><line class="cls-4" x1="410.37" y1="521.33" x2="410.37" y2="521.33"/><line class="cls-4" x1="405.29" y1="529.58" x2="410.37" y2="529.58"/><line class="cls-4" x1="410.37" y1="521.33" x2="410.37" y2="521.33"/><line class="cls-4" x1="410.37" y1="521.33" x2="410.37" y2="521.33"/><line class="cls-4" x1="410.37" y1="529.58" x2="410.37" y2="521.97"/><line class="cls-4" x1="410.37" y1="521.97" x2="410.37" y2="521.33"/><line class="cls-4" x1="216.43" y1="264.29" x2="222.51" y2="258.22"/><line class="cls-4" x1="209.81" y1="263.73" x2="222.51" y2="251.04"/><line class="cls-4" x1="209.81" y1="256.55" x2="222.51" y2="243.85"/><line class="cls-4" x1="209.81" y1="249.37" x2="222.51" y2="236.68"/><line class="cls-4" x1="209.81" y1="242.19" x2="222.51" y2="229.49"/><line class="cls-4" x1="209.81" y1="235.01" x2="222.51" y2="222.31"/><line class="cls-4" x1="209.81" y1="227.83" x2="222.51" y2="215.14"/><line class="cls-4" x1="209.81" y1="220.65" x2="222.51" y2="207.95"/><line class="cls-4" x1="209.81" y1="213.47" x2="222.45" y2="200.82"/><line class="cls-4" x1="209.81" y1="206.29" x2="215.27" y2="200.82"/><line class="cls-4" x1="220.75" y1="263.57" x2="220.75" y2="263.57"/><line class="cls-4" x1="221.64" y1="262.67" x2="222.51" y2="261.81"/><line class="cls-4" x1="213.56" y1="263.57" x2="216.26" y2="260.87"/><line class="cls-4" x1="217.16" y1="259.97" x2="217.16" y2="259.97"/><line class="cls-4" x1="218.05" y1="259.08" x2="220.75" y2="256.39"/><line class="cls-4" x1="221.64" y1="255.49" x2="221.64" y2="255.49"/><line class="cls-4" x1="209.98" y1="259.97" x2="212.67" y2="257.28"/><line class="cls-4" x1="213.56" y1="256.39" x2="213.56" y2="256.39"/><line class="cls-4" x1="214.46" y1="255.49" x2="217.16" y2="252.8"/><line class="cls-4" x1="218.05" y1="251.9" x2="218.05" y2="251.9"/><line class="cls-4" x1="218.95" y1="251" x2="221.64" y2="248.31"/><line class="cls-4" x1="209.98" y1="252.8" x2="209.98" y2="252.8"/><line class="cls-4" x1="210.87" y1="251.9" x2="213.56" y2="249.2"/><line class="cls-4" x1="214.46" y1="248.31" x2="214.46" y2="248.31"/><line class="cls-4" x1="215.36" y1="247.41" x2="218.05" y2="244.72"/><line class="cls-4" x1="218.95" y1="243.82" x2="218.95" y2="243.82"/><line class="cls-4" x1="219.85" y1="242.92" x2="222.51" y2="240.26"/><line class="cls-4" x1="209.81" y1="245.78" x2="209.98" y2="245.62"/><line class="cls-4" x1="210.87" y1="244.72" x2="210.87" y2="244.72"/><line class="cls-4" x1="211.77" y1="243.82" x2="214.46" y2="241.13"/><line class="cls-4" x1="215.36" y1="240.23" x2="215.36" y2="240.23"/><line class="cls-4" x1="216.26" y1="239.33" x2="218.95" y2="236.64"/><line class="cls-4" x1="219.85" y1="235.74" x2="219.85" y2="235.74"/><line class="cls-4" x1="220.75" y1="234.84" x2="222.51" y2="233.08"/><line class="cls-4" x1="209.81" y1="238.6" x2="210.87" y2="237.54"/><line class="cls-4" x1="211.77" y1="236.64" x2="211.77" y2="236.64"/><line class="cls-4" x1="212.67" y1="235.74" x2="215.36" y2="233.05"/><line class="cls-4" x1="216.26" y1="232.15" x2="216.26" y2="232.15"/><line class="cls-4" x1="217.16" y1="231.25" x2="219.85" y2="228.56"/><line class="cls-4" x1="220.75" y1="227.66" x2="220.75" y2="227.66"/><line class="cls-4" x1="221.64" y1="226.77" x2="222.51" y2="225.91"/><line class="cls-4" x1="209.81" y1="231.42" x2="211.77" y2="229.46"/><line class="cls-4" x1="212.67" y1="228.56" x2="212.67" y2="228.56"/><line class="cls-4" x1="213.56" y1="227.66" x2="216.26" y2="224.97"/><line class="cls-4" x1="217.16" y1="224.07" x2="217.16" y2="224.07"/><line class="cls-4" x1="218.05" y1="223.18" x2="220.75" y2="220.48"/><line class="cls-4" x1="221.64" y1="219.58" x2="221.64" y2="219.58"/><line class="cls-4" x1="209.98" y1="224.07" x2="212.67" y2="221.38"/><line class="cls-4" x1="213.56" y1="220.48" x2="213.56" y2="220.48"/><line class="cls-4" x1="214.46" y1="219.58" x2="217.16" y2="216.89"/><line class="cls-4" x1="218.05" y1="216" x2="218.05" y2="216"/><line class="cls-4" x1="218.95" y1="215.1" x2="221.64" y2="212.41"/><line class="cls-4" x1="209.98" y1="216.89" x2="209.98" y2="216.89"/><line class="cls-4" x1="210.87" y1="216" x2="213.56" y2="213.3"/><line class="cls-4" x1="214.46" y1="212.41" x2="214.46" y2="212.41"/><line class="cls-4" x1="215.36" y1="211.51" x2="218.05" y2="208.81"/><line class="cls-4" x1="218.95" y1="207.92" x2="218.95" y2="207.92"/><line class="cls-4" x1="219.85" y1="207.02" x2="222.51" y2="204.36"/><line class="cls-4" x1="209.81" y1="209.88" x2="209.98" y2="209.71"/><line class="cls-4" x1="210.87" y1="208.81" x2="210.87" y2="208.81"/><line class="cls-4" x1="211.77" y1="207.92" x2="214.46" y2="205.23"/><line class="cls-4" x1="215.36" y1="204.33" x2="215.36" y2="204.33"/><line class="cls-4" x1="216.26" y1="203.43" x2="218.86" y2="200.82"/><line class="cls-4" x1="209.81" y1="202.7" x2="210.87" y2="201.64"/><line class="cls-4" x1="209.81" y1="264.29" x2="222.51" y2="264.29"/><line class="cls-4" x1="222.51" y1="264.29" x2="222.51" y2="200.82"/><line class="cls-4" x1="222.51" y1="200.82" x2="209.81" y2="200.82"/><line class="cls-4" x1="209.81" y1="200.82" x2="209.81" y2="264.29"/><line class="cls-4" x1="220.23" y1="511.81" x2="222.51" y2="509.53"/><line class="cls-4" x1="213.04" y1="511.81" x2="222.51" y2="502.35"/><line class="cls-4" x1="209.81" y1="507.86" x2="222.51" y2="495.17"/><line class="cls-4" x1="209.81" y1="500.68" x2="222.51" y2="487.99"/><line class="cls-4" x1="209.81" y1="493.5" x2="222.51" y2="480.81"/><line class="cls-4" x1="209.81" y1="486.32" x2="222.51" y2="473.63"/><line class="cls-4" x1="209.81" y1="479.14" x2="222.51" y2="466.45"/><line class="cls-4" x1="209.81" y1="471.96" x2="222.51" y2="459.27"/><line class="cls-4" x1="209.81" y1="464.78" x2="222.51" y2="452.09"/><line class="cls-4" x1="209.81" y1="457.6" x2="219.07" y2="448.34"/><line class="cls-4" x1="209.81" y1="450.42" x2="211.89" y2="448.34"/><line class="cls-4" x1="217.16" y1="511.29" x2="217.16" y2="511.29"/><line class="cls-4" x1="218.05" y1="510.39" x2="220.75" y2="507.7"/><line class="cls-4" x1="221.64" y1="506.8" x2="221.64" y2="506.8"/><line class="cls-4" x1="209.98" y1="511.29" x2="212.67" y2="508.6"/><line class="cls-4" x1="213.56" y1="507.7" x2="213.56" y2="507.7"/><line class="cls-4" x1="214.46" y1="506.8" x2="217.16" y2="504.11"/><line class="cls-4" x1="218.05" y1="503.21" x2="218.05" y2="503.21"/><line class="cls-4" x1="218.95" y1="502.31" x2="221.64" y2="499.62"/><line class="cls-4" x1="209.98" y1="504.11" x2="209.98" y2="504.11"/><line class="cls-4" x1="210.87" y1="503.21" x2="213.56" y2="500.52"/><line class="cls-4" x1="214.46" y1="499.62" x2="214.46" y2="499.62"/><line class="cls-4" x1="215.36" y1="498.72" x2="218.05" y2="496.03"/><line class="cls-4" x1="218.95" y1="495.13" x2="218.95" y2="495.13"/><line class="cls-4" x1="219.85" y1="494.23" x2="222.51" y2="491.58"/><line class="cls-4" x1="209.81" y1="497.09" x2="209.98" y2="496.93"/><line class="cls-4" x1="210.87" y1="496.03" x2="210.87" y2="496.03"/><line class="cls-4" x1="211.77" y1="495.13" x2="214.46" y2="492.44"/><line class="cls-4" x1="215.36" y1="491.54" x2="215.36" y2="491.54"/><line class="cls-4" x1="216.26" y1="490.65" x2="218.95" y2="487.95"/><line class="cls-4" x1="219.85" y1="487.05" x2="219.85" y2="487.05"/><line class="cls-4" x1="220.75" y1="486.16" x2="222.51" y2="484.4"/><line class="cls-4" x1="209.81" y1="489.91" x2="210.87" y2="488.85"/><line class="cls-4" x1="211.77" y1="487.95" x2="211.77" y2="487.95"/><line class="cls-4" x1="212.67" y1="487.05" x2="215.36" y2="484.36"/><line class="cls-4" x1="216.26" y1="483.46" x2="216.26" y2="483.46"/><line class="cls-4" x1="217.16" y1="482.57" x2="219.85" y2="479.88"/><line class="cls-4" x1="220.75" y1="478.98" x2="220.75" y2="478.98"/><line class="cls-4" x1="221.64" y1="478.08" x2="222.51" y2="477.22"/><line class="cls-4" x1="209.81" y1="482.73" x2="211.77" y2="480.77"/><line class="cls-4" x1="212.67" y1="479.88" x2="212.67" y2="479.88"/><line class="cls-4" x1="213.56" y1="478.98" x2="216.26" y2="476.28"/><line class="cls-4" x1="217.16" y1="475.39" x2="217.16" y2="475.39"/><line class="cls-4" x1="218.05" y1="474.49" x2="220.75" y2="471.8"/><line class="cls-4" x1="221.64" y1="470.9" x2="221.64" y2="470.9"/><line class="cls-4" x1="209.98" y1="475.39" x2="212.67" y2="472.69"/><line class="cls-4" x1="213.56" y1="471.8" x2="213.56" y2="471.8"/><line class="cls-4" x1="214.46" y1="470.9" x2="217.16" y2="468.21"/><line class="cls-4" x1="218.05" y1="467.31" x2="218.05" y2="467.31"/><line class="cls-4" x1="218.95" y1="466.41" x2="221.64" y2="463.72"/><line class="cls-4" x1="209.98" y1="468.21" x2="209.98" y2="468.21"/><line class="cls-4" x1="210.87" y1="467.31" x2="213.56" y2="464.61"/><line class="cls-4" x1="214.46" y1="463.72" x2="214.46" y2="463.72"/><line class="cls-4" x1="215.36" y1="462.82" x2="218.05" y2="460.13"/><line class="cls-4" x1="218.95" y1="459.23" x2="218.95" y2="459.23"/><line class="cls-4" x1="219.85" y1="458.33" x2="222.51" y2="455.68"/><line class="cls-4" x1="209.81" y1="461.19" x2="209.98" y2="461.03"/><line class="cls-4" x1="210.87" y1="460.13" x2="210.87" y2="460.13"/><line class="cls-4" x1="211.77" y1="459.23" x2="214.46" y2="456.54"/><line class="cls-4" x1="215.36" y1="455.64" x2="215.36" y2="455.64"/><line class="cls-4" x1="216.26" y1="454.74" x2="218.95" y2="452.05"/><line class="cls-4" x1="219.85" y1="451.15" x2="219.85" y2="451.15"/><line class="cls-4" x1="220.75" y1="450.26" x2="222.51" y2="448.49"/><line class="cls-4" x1="209.81" y1="454.01" x2="210.87" y2="452.95"/><line class="cls-4" x1="211.77" y1="452.05" x2="211.77" y2="452.05"/><line class="cls-4" x1="212.67" y1="451.15" x2="215.36" y2="448.46"/><line class="cls-4" x1="209.81" y1="511.81" x2="222.51" y2="511.81"/><line class="cls-4" x1="222.51" y1="511.81" x2="222.51" y2="448.34"/><line class="cls-4" x1="222.51" y1="448.34" x2="209.81" y2="448.34"/><line class="cls-4" x1="209.81" y1="448.34" x2="209.81" y2="511.81"/><line class="cls-4" x1="11.99" y1="511.81" x2="13.07" y2="510.74"/><line class="cls-4" x1="4.81" y1="511.81" x2="13.07" y2="503.56"/><line class="cls-4" x1="0.38" y1="509.07" x2="13.07" y2="496.38"/><line class="cls-4" x1="0.38" y1="501.89" x2="13.07" y2="489.2"/><line class="cls-4" x1="0.38" y1="494.71" x2="13.07" y2="482.01"/><line class="cls-4" x1="0.38" y1="487.53" x2="13.07" y2="474.84"/><line class="cls-4" x1="0.38" y1="480.35" x2="13.07" y2="467.65"/><line class="cls-4" x1="0.38" y1="473.17" x2="13.07" y2="460.47"/><line class="cls-4" x1="0.38" y1="465.99" x2="13.07" y2="453.29"/><line class="cls-4" x1="0.38" y1="458.81" x2="10.84" y2="448.35"/><line class="cls-4" x1="0.38" y1="451.63" x2="3.66" y2="448.35"/><line class="cls-4" x1="8.4" y1="511.81" x2="8.92" y2="511.29"/><line class="cls-4" x1="9.82" y1="510.39" x2="9.82" y2="510.39"/><line class="cls-4" x1="10.72" y1="509.49" x2="13.07" y2="507.15"/><line class="cls-4" x1="1.75" y1="511.29" x2="1.75" y2="511.29"/><line class="cls-4" x1="2.64" y1="510.39" x2="5.33" y2="507.7"/><line class="cls-4" x1="6.23" y1="506.8" x2="6.23" y2="506.8"/><line class="cls-4" x1="7.13" y1="505.9" x2="9.82" y2="503.21"/><line class="cls-4" x1="10.72" y1="502.31" x2="10.72" y2="502.31"/><line class="cls-4" x1="11.62" y1="501.42" x2="13.07" y2="499.97"/><line class="cls-4" x1="0.38" y1="505.48" x2="1.75" y2="504.11"/><line class="cls-4" x1="2.64" y1="503.21" x2="2.64" y2="503.21"/><line class="cls-4" x1="3.54" y1="502.31" x2="6.23" y2="499.62"/><line class="cls-4" x1="7.13" y1="498.72" x2="7.13" y2="498.72"/><line class="cls-4" x1="8.03" y1="497.83" x2="10.72" y2="495.13"/><line class="cls-4" x1="11.62" y1="494.23" x2="11.62" y2="494.23"/><line class="cls-4" x1="12.52" y1="493.34" x2="13.07" y2="492.79"/><line class="cls-4" x1="0.38" y1="498.3" x2="2.64" y2="496.03"/><line class="cls-4" x1="3.54" y1="495.13" x2="3.54" y2="495.13"/><line class="cls-4" x1="4.44" y1="494.23" x2="7.13" y2="491.54"/><line class="cls-4" x1="8.03" y1="490.65" x2="8.03" y2="490.65"/><line class="cls-4" x1="8.92" y1="489.75" x2="11.62" y2="487.05"/><line class="cls-4" x1="12.52" y1="486.16" x2="12.52" y2="486.16"/><line class="cls-4" x1="0.85" y1="490.65" x2="3.54" y2="487.95"/><line class="cls-4" x1="4.44" y1="487.05" x2="4.44" y2="487.05"/><line class="cls-4" x1="5.33" y1="486.16" x2="8.03" y2="483.46"/><line class="cls-4" x1="8.92" y1="482.57" x2="8.92" y2="482.57"/><line class="cls-4" x1="9.82" y1="481.67" x2="12.52" y2="478.98"/><line class="cls-4" x1="0.85" y1="483.46" x2="0.85" y2="483.46"/><line class="cls-4" x1="1.75" y1="482.57" x2="4.44" y2="479.88"/><line class="cls-4" x1="5.33" y1="478.98" x2="5.33" y2="478.98"/><line class="cls-4" x1="6.23" y1="478.08" x2="8.92" y2="475.39"/><line class="cls-4" x1="9.82" y1="474.49" x2="9.82" y2="474.49"/><line class="cls-4" x1="10.72" y1="473.59" x2="13.07" y2="471.24"/><line class="cls-4" x1="0.38" y1="476.76" x2="0.85" y2="476.28"/><line class="cls-4" x1="1.75" y1="475.39" x2="1.75" y2="475.39"/><line class="cls-4" x1="2.64" y1="474.49" x2="5.33" y2="471.8"/><line class="cls-4" x1="6.23" y1="470.9" x2="6.23" y2="470.9"/><line class="cls-4" x1="7.13" y1="470" x2="9.82" y2="467.31"/><line class="cls-4" x1="10.72" y1="466.41" x2="10.72" y2="466.41"/><line class="cls-4" x1="11.62" y1="465.51" x2="13.07" y2="464.07"/><line class="cls-4" x1="0.38" y1="469.58" x2="1.75" y2="468.21"/><line class="cls-4" x1="2.64" y1="467.31" x2="2.64" y2="467.31"/><line class="cls-4" x1="3.54" y1="466.41" x2="6.23" y2="463.72"/><line class="cls-4" x1="7.13" y1="462.82" x2="7.13" y2="462.82"/><line class="cls-4" x1="8.03" y1="461.92" x2="10.72" y2="459.23"/><line class="cls-4" x1="11.62" y1="458.33" x2="11.62" y2="458.33"/><line class="cls-4" x1="12.52" y1="457.44" x2="13.07" y2="456.88"/><line class="cls-4" x1="0.38" y1="462.4" x2="2.64" y2="460.13"/><line class="cls-4" x1="3.54" y1="459.23" x2="3.54" y2="459.23"/><line class="cls-4" x1="4.44" y1="458.33" x2="7.13" y2="455.64"/><line class="cls-4" x1="8.03" y1="454.74" x2="8.03" y2="454.74"/><line class="cls-4" x1="8.92" y1="453.84" x2="11.62" y2="451.15"/><line class="cls-4" x1="12.52" y1="450.26" x2="12.52" y2="450.26"/><line class="cls-4" x1="0.85" y1="454.74" x2="3.54" y2="452.05"/><line class="cls-4" x1="4.44" y1="451.15" x2="4.44" y2="451.15"/><line class="cls-4" x1="5.33" y1="450.26" x2="7.25" y2="448.35"/><line class="cls-4" x1="0.38" y1="511.81" x2="13.07" y2="511.81"/><line class="cls-4" x1="13.07" y1="511.81" x2="13.07" y2="448.35"/><line class="cls-4" x1="13.07" y1="448.35" x2="0.38" y2="448.35"/><line class="cls-4" x1="0.38" y1="448.35" x2="0.38" y2="511.81"/><line class="cls-4" x1="8.2" y1="264.29" x2="13.07" y2="259.42"/><line class="cls-4" x1="1.02" y1="264.29" x2="13.07" y2="252.24"/><line class="cls-4" x1="0.38" y1="257.76" x2="13.07" y2="245.06"/><line class="cls-4" x1="0.38" y1="250.57" x2="13.07" y2="237.88"/><line class="cls-4" x1="0.38" y1="243.39" x2="13.07" y2="230.7"/><line class="cls-4" x1="0.38" y1="236.22" x2="13.07" y2="223.52"/><line class="cls-4" x1="0.38" y1="229.03" x2="13.07" y2="216.34"/><line class="cls-4" x1="0.38" y1="221.85" x2="13.07" y2="209.16"/><line class="cls-4" x1="0.38" y1="214.67" x2="13.07" y2="201.98"/><line class="cls-4" x1="0.38" y1="207.49" x2="7.04" y2="200.82"/><line class="cls-4" x1="11.79" y1="264.29" x2="12.52" y2="263.57"/><line class="cls-4" x1="5.33" y1="263.57" x2="5.33" y2="263.57"/><line class="cls-4" x1="6.23" y1="262.67" x2="8.92" y2="259.97"/><line class="cls-4" x1="9.82" y1="259.08" x2="9.82" y2="259.08"/><line class="cls-4" x1="10.72" y1="258.18" x2="13.07" y2="255.83"/><line class="cls-4" x1="0.38" y1="261.35" x2="0.85" y2="260.87"/><line class="cls-4" x1="1.75" y1="259.97" x2="1.75" y2="259.97"/><line class="cls-4" x1="2.64" y1="259.08" x2="5.33" y2="256.39"/><line class="cls-4" x1="6.23" y1="255.49" x2="6.23" y2="255.49"/><line class="cls-4" x1="7.13" y1="254.59" x2="9.82" y2="251.9"/><line class="cls-4" x1="10.72" y1="251" x2="10.72" y2="251"/><line class="cls-4" x1="11.62" y1="250.1" x2="13.07" y2="248.65"/><line class="cls-4" x1="0.38" y1="254.17" x2="1.75" y2="252.8"/><line class="cls-4" x1="2.64" y1="251.9" x2="2.64" y2="251.9"/><line class="cls-4" x1="3.54" y1="251" x2="6.23" y2="248.31"/><line class="cls-4" x1="7.13" y1="247.41" x2="7.13" y2="247.41"/><line class="cls-4" x1="8.03" y1="246.51" x2="10.72" y2="243.82"/><line class="cls-4" x1="11.62" y1="242.92" x2="11.62" y2="242.92"/><line class="cls-4" x1="12.52" y1="242.02" x2="13.07" y2="241.47"/><line class="cls-4" x1="0.38" y1="246.99" x2="2.64" y2="244.72"/><line class="cls-4" x1="3.54" y1="243.82" x2="3.54" y2="243.82"/><line class="cls-4" x1="4.44" y1="242.92" x2="7.13" y2="240.23"/><line class="cls-4" x1="8.03" y1="239.33" x2="8.03" y2="239.33"/><line class="cls-4" x1="8.92" y1="238.43" x2="11.62" y2="235.74"/><line class="cls-4" x1="12.52" y1="234.84" x2="12.52" y2="234.84"/><line class="cls-4" x1="0.85" y1="239.33" x2="3.54" y2="236.64"/><line class="cls-4" x1="4.44" y1="235.74" x2="4.44" y2="235.74"/><line class="cls-4" x1="5.33" y1="234.84" x2="8.03" y2="232.15"/><line class="cls-4" x1="8.92" y1="231.25" x2="8.92" y2="231.25"/><line class="cls-4" x1="9.82" y1="230.35" x2="12.52" y2="227.66"/><line class="cls-4" x1="0.85" y1="232.15" x2="0.85" y2="232.15"/><line class="cls-4" x1="1.75" y1="231.25" x2="4.44" y2="228.56"/><line class="cls-4" x1="5.33" y1="227.66" x2="5.33" y2="227.66"/><line class="cls-4" x1="6.23" y1="226.77" x2="8.92" y2="224.07"/><line class="cls-4" x1="9.82" y1="223.18" x2="9.82" y2="223.18"/><line class="cls-4" x1="10.72" y1="222.28" x2="13.07" y2="219.93"/><line class="cls-4" x1="0.38" y1="225.45" x2="0.85" y2="224.97"/><line class="cls-4" x1="1.75" y1="224.07" x2="1.75" y2="224.07"/><line class="cls-4" x1="2.64" y1="223.18" x2="5.33" y2="220.48"/><line class="cls-4" x1="6.23" y1="219.58" x2="6.23" y2="219.58"/><line class="cls-4" x1="7.13" y1="218.69" x2="9.82" y2="216"/><line class="cls-4" x1="10.72" y1="215.1" x2="10.72" y2="215.1"/><line class="cls-4" x1="11.62" y1="214.2" x2="13.07" y2="212.75"/><line class="cls-4" x1="0.38" y1="218.26" x2="1.75" y2="216.89"/><line class="cls-4" x1="2.64" y1="216" x2="2.64" y2="216"/><line class="cls-4" x1="3.54" y1="215.1" x2="6.23" y2="212.41"/><line class="cls-4" x1="7.13" y1="211.51" x2="7.13" y2="211.51"/><line class="cls-4" x1="8.03" y1="210.61" x2="10.72" y2="207.92"/><line class="cls-4" x1="11.62" y1="207.02" x2="11.62" y2="207.02"/><line class="cls-4" x1="12.52" y1="206.12" x2="13.07" y2="205.57"/><line class="cls-4" x1="0.38" y1="211.08" x2="2.64" y2="208.81"/><line class="cls-4" x1="3.54" y1="207.92" x2="3.54" y2="207.92"/><line class="cls-4" x1="4.44" y1="207.02" x2="7.13" y2="204.33"/><line class="cls-4" x1="8.03" y1="203.43" x2="8.03" y2="203.43"/><line class="cls-4" x1="8.92" y1="202.53" x2="10.63" y2="200.82"/><line class="cls-4" x1="0.85" y1="203.43" x2="3.45" y2="200.82"/><line class="cls-4" x1="0.38" y1="264.29" x2="13.07" y2="264.29"/><line class="cls-4" x1="13.07" y1="264.29" x2="13.07" y2="200.82"/><line class="cls-4" x1="13.07" y1="200.82" x2="0.38" y2="200.82"/><line class="cls-4" x1="0.38" y1="200.82" x2="0.38" y2="264.29"/><line class="cls-4" x1="292.32" y1="13.6" x2="292.32" y2="13.39"/><line class="cls-4" x1="292.32" y1="13.6" x2="292.32" y2="6.2"/><line class="cls-4" x1="292.32" y1="13.6" x2="292.32" y2="0.91"/><line class="cls-4" x1="292.32" y1="13.6" x2="292.32" y2="0.91"/><line class="cls-4" x1="292.32" y1="13.6" x2="292.32" y2="0.91"/><line class="cls-4" x1="292.32" y1="13.6" x2="292.32" y2="0.91"/><line class="cls-4" x1="292.32" y1="13.6" x2="292.32" y2="0.91"/><line class="cls-4" x1="292.32" y1="13.6" x2="292.32" y2="0.91"/><line class="cls-4" x1="292.32" y1="13.6" x2="292.32" y2="0.91"/><line class="cls-4" x1="292.32" y1="12.23" x2="292.32" y2="0.91"/><line class="cls-4" x1="292.32" y1="5.05" x2="292.32" y2="0.91"/><line class="cls-4" x1="292.32" y1="13.6" x2="292.32" y2="11.35"/><line class="cls-4" x1="292.32" y1="10.46" x2="292.32" y2="10.46"/><line class="cls-4" x1="292.32" y1="13.6" x2="292.32" y2="12.25"/><line class="cls-4" x1="292.32" y1="11.35" x2="292.32" y2="11.35"/><line class="cls-4" x1="292.32" y1="10.46" x2="292.32" y2="7.76"/><line class="cls-4" x1="292.32" y1="6.87" x2="292.32" y2="6.87"/><line class="cls-4" x1="292.32" y1="5.97" x2="292.32" y2="3.28"/><line class="cls-4" x1="292.32" y1="13.6" x2="292.32" y2="13.15"/><line class="cls-4" x1="292.32" y1="12.25" x2="292.32" y2="12.25"/><line class="cls-4" x1="292.32" y1="11.35" x2="292.32" y2="8.66"/><line class="cls-4" x1="292.32" y1="7.76" x2="292.32" y2="7.76"/><line class="cls-4" x1="292.32" y1="6.87" x2="292.32" y2="4.17"/><line class="cls-4" x1="292.32" y1="3.28" x2="292.32" y2="3.28"/><line class="cls-4" x1="292.32" y1="2.38" x2="292.32" y2="0.91"/><line class="cls-4" x1="292.32" y1="13.15" x2="292.32" y2="13.15"/><line class="cls-4" x1="292.32" y1="12.25" x2="292.32" y2="9.56"/><line class="cls-4" x1="292.32" y1="8.66" x2="292.32" y2="8.66"/><line class="cls-4" x1="292.32" y1="7.76" x2="292.32" y2="5.07"/><line class="cls-4" x1="292.32" y1="4.17" x2="292.32" y2="4.17"/><line class="cls-4" x1="292.32" y1="3.28" x2="292.32" y2="0.91"/><line class="cls-4" x1="292.32" y1="13.15" x2="292.32" y2="10.46"/><line class="cls-4" x1="292.32" y1="9.56" x2="292.32" y2="9.56"/><line class="cls-4" x1="292.32" y1="8.66" x2="292.32" y2="5.97"/><line class="cls-4" x1="292.32" y1="5.07" x2="292.32" y2="5.07"/><line class="cls-4" x1="292.32" y1="4.17" x2="292.32" y2="1.48"/><line class="cls-4" x1="292.32" y1="13.6" x2="292.32" y2="11.35"/><line class="cls-4" x1="292.32" y1="10.46" x2="292.32" y2="10.46"/><line class="cls-4" x1="292.32" y1="9.56" x2="292.32" y2="6.87"/><line class="cls-4" x1="292.32" y1="5.97" x2="292.32" y2="5.97"/><line class="cls-4" x1="292.32" y1="5.07" x2="292.32" y2="2.38"/><line class="cls-4" x1="292.32" y1="1.48" x2="292.32" y2="1.48"/><line class="cls-4" x1="292.32" y1="13.6" x2="292.32" y2="12.25"/><line class="cls-4" x1="292.32" y1="11.35" x2="292.32" y2="11.35"/><line class="cls-4" x1="292.32" y1="10.46" x2="292.32" y2="7.76"/><line class="cls-4" x1="292.32" y1="6.87" x2="292.32" y2="6.87"/><line class="cls-4" x1="292.32" y1="5.97" x2="292.32" y2="3.28"/><line class="cls-4" x1="292.32" y1="2.38" x2="292.32" y2="2.38"/><line class="cls-4" x1="292.32" y1="1.48" x2="292.32" y2="0.91"/><line class="cls-4" x1="292.32" y1="13.6" x2="292.32" y2="13.15"/><line class="cls-4" x1="292.32" y1="12.25" x2="292.32" y2="12.25"/><line class="cls-4" x1="292.32" y1="11.35" x2="292.32" y2="8.66"/><line class="cls-4" x1="292.32" y1="7.76" x2="292.32" y2="7.76"/><line class="cls-4" x1="292.32" y1="6.87" x2="292.32" y2="4.17"/><line class="cls-4" x1="292.32" y1="3.28" x2="292.32" y2="3.28"/><line class="cls-4" x1="292.32" y1="2.38" x2="292.32" y2="0.91"/><line class="cls-4" x1="292.32" y1="13.15" x2="292.32" y2="13.15"/><line class="cls-4" x1="292.32" y1="12.25" x2="292.32" y2="9.56"/><line class="cls-4" x1="292.32" y1="8.66" x2="292.32" y2="8.66"/><line class="cls-4" x1="292.32" y1="7.76" x2="292.32" y2="5.07"/><line class="cls-4" x1="292.32" y1="4.17" x2="292.32" y2="4.17"/><line class="cls-4" x1="292.32" y1="3.28" x2="292.32" y2="0.91"/><line class="cls-4" x1="292.32" y1="8.64" x2="292.32" y2="5.97"/><line class="cls-4" x1="292.32" y1="5.07" x2="292.32" y2="5.07"/><line class="cls-4" x1="292.32" y1="4.17" x2="292.32" y2="1.48"/><line class="cls-4" x1="292.32" y1="13.6" x2="292.32" y2="0.91"/><line class="cls-4" x1="292.32" y1="0.91" x2="292.32" y2="0.91"/><line class="cls-4" x1="292.32" y1="0.91" x2="292.32" y2="13.6"/><line class="cls-4" x1="292.32" y1="13.6" x2="292.32" y2="13.6"/><line class="cls-4" x1="410.37" y1="521.97" x2="410.37" y2="511.81"/><line class="cls-4" x1="410.37" y1="511.81" x2="400.21" y2="511.81"/><line class="cls-4" x1="400.21" y1="511.81" x2="400.21" y2="521.97"/><line class="cls-4" x1="222.51" y1="521.97" x2="222.51" y2="511.81"/><line class="cls-4" x1="222.51" y1="511.81" x2="209.81" y2="511.81"/><line class="cls-4" x1="209.81" y1="511.81" x2="209.81" y2="521.97"/><line class="cls-4" x1="13.07" y1="511.81" x2="0.38" y2="511.81"/><line class="cls-4" x1="0.38" y1="511.81" x2="0.38" y2="529.58"/><line class="cls-4" x1="13.07" y1="521.97" x2="13.07" y2="511.81"/><line class="cls-4" x1="284.7" y1="228.75" x2="284.7" y2="200.19"/><line class="cls-4" x1="284.7" y1="200.19" x2="322.78" y2="200.19"/><line class="cls-4" x1="322.78" y1="200.19" x2="322.78" y2="228.75"/><line class="cls-4" x1="322.78" y1="228.75" x2="284.7" y2="228.75"/><path class="cls-4" d="M124.64,124.86A58.39,58.39,0,0,0,183,183.25" transform="translate(0.13 0.13)"/><line class="cls-4" x1="183.16" y1="124.98" x2="183.16" y2="183.37"/><path class="cls-4" d="M280,200.07a50.59,50.59,0,0,1-50.59-50.59" transform="translate(0.13 0.13)"/><line class="cls-4" x1="280.13" y1="149.6" x2="229.54" y2="149.6"/><path class="cls-4" d="M279.83,233.35a55.27,55.27,0,0,1-55.26,55.27" transform="translate(0.13 0.13)"/><line class="cls-4" x1="224.69" y1="233.47" x2="224.69" y2="288.74"/><text class="cls-5" transform="translate(100.21 368.62)">1K</text><text class="cls-5" transform="translate(85.34 401.66)">42.13</text><text class="cls-5" transform="translate(82.18 336.07)">№524</text><polyline class="cls-4" points="73.54 410.02 73.54 312.82 154.6 312.82 154.6 410.02"/><line class="cls-4" x1="73.54" y1="345.28" x2="154.6" y2="345.28"/><line class="cls-4" x1="73.54" y1="410.02" x2="154.6" y2="410.02"/><line class="cls-4" x1="73.54" y1="377.74" x2="154.6" y2="377.74"/><text class="cls-6" transform="translate(89.23 469.93)">18.14</text><text class="cls-6" transform="translate(289.78 469.93)">11.63</text><text class="cls-6" transform="translate(156.01 73.28)">8.72</text><text class="cls-6" transform="translate(305.98 181.62)">3.64</text></svg>