<svg id="_8" data-name="8" xmlns="http://www.w3.org/2000/svg" viewBox="0 0 1065.28 555.95"><defs><style>.cls-1{font-size:12px;}.cls-1,.cls-3{fill:#808184;}.cls-1,.cls-4,.cls-6{font-family:PTSans-Regular, PT Sans;}.cls-2,.cls-5{fill:none;stroke-linecap:round;stroke-linejoin:round;stroke-width:0.75px;}.cls-2{stroke:#808184;}.cls-4,.cls-6{isolation:isolate;}.cls-4{font-size:24px;}.cls-5{stroke:#000;}.cls-6{font-size:22px;}</style></defs><title>2floor_8flat</title><text class="cls-1" transform="translate(10.2 288.75) rotate(-90)">сквер</text><line class="cls-2" x1="1.8" y1="296.92" x2="12.24" y2="296.92"/><path class="cls-3" d="M35.28,300.52a.38.38,0,0,0-.12-.52l-4.84-3.08,4.84-3.08a.37.37,0,0,0,.12-.52.38.38,0,0,0-.52-.11l-5.34,3.4a.37.37,0,0,0-.17.31.4.4,0,0,0,.17.32l5.34,3.4a.35.35,0,0,0,.2.05A.39.39,0,0,0,35.28,300.52Z" transform="translate(-28.35)"/><text class="cls-1" transform="translate(1062.34 288.75) rotate(-90)">двор</text><line class="cls-2" x1="1053.04" y1="296.92" x2="1063.48" y2="296.92"/><path class="cls-3" d="M1086.7,300.52a.38.38,0,0,1,.12-.52l4.84-3.08-4.84-3.08a.37.37,0,0,1-.12-.52.38.38,0,0,1,.52-.11l5.34,3.4a.37.37,0,0,1,.17.31.4.4,0,0,1-.17.32l-5.34,3.4a.35.35,0,0,1-.2.05A.39.39,0,0,1,1086.7,300.52Z" transform="translate(-28.35)"/><text class="cls-4" transform="translate(771.72 283.04)">3К</text><text class="cls-4" transform="translate(767.07 251.73)">№8</text><text class="cls-4" transform="translate(763.69 313.22)">96.6</text><polyline class="cls-5" points="743.36 321.77 743.36 229.51 828.4 229.51 828.4 321.77"/><line class="cls-5" x1="743.36" y1="259.98" x2="828.4" y2="259.98"/><line class="cls-5" x1="743.36" y1="290.87" x2="828.4" y2="290.87"/><line class="cls-5" x1="743.36" y1="321.77" x2="828.4" y2="321.77"/><text class="cls-6" transform="translate(875.46 452.37)">21.3</text><text class="cls-6" transform="translate(875.46 281.77)">16.3</text><text class="cls-6" transform="translate(963.97 281.77)">0.9</text><text class="cls-6" transform="translate(875.46 107.69)">18.0</text><text class="cls-6" transform="translate(112.83 107.69)">18.8</text><text class="cls-6" transform="translate(561.87 232.04)">14.5</text><text class="cls-6" transform="translate(394.23 78.3)">3.2</text><text class="cls-6" transform="translate(534.15 78.3)">3.6</text><polygon class="cls-5" points="597.94 474.44 621.63 474.55 621.61 490.09 598.24 490.45 597.94 474.44"/><polygon class="cls-5" points="621.75 522.71 597.97 522.71 597.98 496.69 621.73 496.69 621.75 522.71"/><polygon class="cls-5" points="597.9 544.54 597.88 528.69 621.63 528.68 621.65 544.52 597.9 544.54"/><rect class="cls-5" x="937.78" y="212.86" width="78.62" height="114.27"/><line class="cls-5" x1="698.51" y1="516.99" x2="727.54" y2="517"/><line class="cls-5" x1="727.54" y1="517" x2="727.24" y2="543.51"/><line class="cls-5" x1="727.24" y1="543.51" x2="698.68" y2="543.19"/><line class="cls-5" x1="698.68" y1="543.19" x2="698.51" y2="516.99"/><line class="cls-5" x1="697.3" y1="513.05" x2="728.36" y2="513.09"/><line class="cls-5" x1="697.57" y1="544.58" x2="728.64" y2="544.63"/><line class="cls-5" x1="701.15" y1="520" x2="724.52" y2="519.64"/><line class="cls-5" x1="724.52" y1="519.64" x2="724.79" y2="537.68"/><line class="cls-5" x1="724.79" y1="537.68" x2="701.41" y2="538.05"/><line class="cls-5" x1="701.41" y1="538.05" x2="701.15" y2="520"/><path class="cls-5" d="M740.66,531s.17-.78.48-.31l.31.48" transform="translate(-28.35)"/><line class="cls-5" x1="713.57" y1="530.81" x2="713.45" y2="541"/><path class="cls-5" d="M741.8,541s-.16.78-.47.31c0,0-.78-.17-.31-.48" transform="translate(-28.35)"/><line class="cls-5" x1="712.2" y1="541.14" x2="712.31" y2="530.95"/><line class="cls-5" x1="711.92" y1="538.63" x2="712.39" y2="538.32"/><line class="cls-5" x1="712.39" y1="538.32" x2="712.2" y2="541.14"/><path class="cls-5" d="M741.8,541s-.16.78-.47.31c0,0-.78-.17-.31-.48" transform="translate(-28.35)"/><line class="cls-5" x1="713.45" y1="541" x2="713.18" y2="538.49"/><line class="cls-5" x1="713.18" y1="538.49" x2="713.96" y2="538.66"/><line class="cls-5" x1="713.96" y1="538.66" x2="714.07" y2="541.95"/><line class="cls-5" x1="714.07" y1="541.95" x2="712.03" y2="541.93"/><line class="cls-5" x1="712.03" y1="541.93" x2="711.92" y2="538.63"/><line class="cls-5" x1="711.94" y1="536.59" x2="712.72" y2="536.76"/><line class="cls-5" x1="712.72" y1="536.76" x2="712.39" y2="538.32"/><line class="cls-5" x1="712.39" y1="538.32" x2="711.92" y2="538.63"/><line class="cls-5" x1="711.92" y1="538.63" x2="711.94" y2="536.59"/><line class="cls-5" x1="713.98" y1="536.61" x2="713.96" y2="538.66"/><line class="cls-5" x1="713.96" y1="538.66" x2="713.18" y2="538.49"/><line class="cls-5" x1="713.18" y1="538.49" x2="713.51" y2="536.92"/><line class="cls-5" x1="713.51" y1="536.92" x2="713.98" y2="536.61"/><line class="cls-5" x1="650.04" y1="516.13" x2="680.31" y2="516.01"/><line class="cls-5" x1="680.31" y1="516.01" x2="680.66" y2="541.41"/><line class="cls-5" x1="680.66" y1="541.41" x2="650.38" y2="541.55"/><line class="cls-5" x1="650.38" y1="541.55" x2="650.04" y2="516.13"/><path class="cls-5" d="M689.3,536a3.69,3.69,0,1,1-3.72-3.65A3.68,3.68,0,0,1,689.3,536" transform="translate(-28.35)"/><path class="cls-5" d="M692.73,523.67c-.19,2.83-2.41,5.62-5.23,5.43s-5.63-2.42-5.44-5.24,2.42-5.62,5.24-5.42,5.63,2.41,5.43,5.23" transform="translate(-28.35)"/><path class="cls-5" d="M706.26,535.13c-.2,2.81-2.25,4.83-4.6,4.32-2.82-.18-4.84-2.24-4.33-4.59-.29-2.51,2.24-4.84,5.07-4.65,1.55.33,3.57,2.39,3.86,4.92" transform="translate(-28.35)"/><path class="cls-5" d="M706.39,522.88a3.69,3.69,0,1,1-3.73-3.65,3.67,3.67,0,0,1,3.73,3.65" transform="translate(-28.35)"/><line class="cls-5" x1="649.44" y1="513.15" x2="681.29" y2="513.34"/><line class="cls-5" x1="649.72" y1="544.69" x2="681.26" y2="544.41"/><polygon class="cls-5" points="524.72 408.67 493.6 408.71 493.4 183.57 524.5 183.55 524.72 408.67"/><line class="cls-5" x1="571.73" y1="26.53" x2="571.67" y2="115.64"/><line class="cls-5" x1="571.67" y1="115.64" x2="608.07" y2="115.58"/><line class="cls-5" x1="608.07" y1="115.58" x2="608.43" y2="26.94"/><line class="cls-5" x1="608.43" y1="26.94" x2="571.73" y2="26.53"/><line class="cls-5" x1="605.02" y1="37.26" x2="604.88" y2="36"/><line class="cls-5" x1="604.88" y1="36" x2="604.74" y2="34.75"/><line class="cls-5" x1="604.74" y1="34.75" x2="604.6" y2="33.49"/><line class="cls-5" x1="604.6" y1="33.49" x2="603.19" y2="32.37"/><line class="cls-5" x1="603.19" y1="32.37" x2="602.58" y2="31.42"/><line class="cls-5" x1="602.58" y1="31.42" x2="601.48" y2="30.78"/><line class="cls-5" x1="601.48" y1="30.78" x2="600.4" y2="30.15"/><line class="cls-5" x1="600.4" y1="30.15" x2="599.61" y2="29.99"/><line class="cls-5" x1="599.61" y1="29.99" x2="598.04" y2="29.65"/><line class="cls-5" x1="598.04" y1="29.65" x2="582.04" y2="29.93"/><line class="cls-5" x1="582.04" y1="29.93" x2="580.79" y2="30.09"/><line class="cls-5" x1="580.79" y1="30.09" x2="579.53" y2="30.23"/><line class="cls-5" x1="579.53" y1="30.23" x2="578.11" y2="31.16"/><line class="cls-5" x1="578.11" y1="31.16" x2="577.17" y2="31.77"/><line class="cls-5" x1="577.17" y1="31.77" x2="576.22" y2="32.39"/><line class="cls-5" x1="576.22" y1="32.39" x2="575.58" y2="33.48"/><line class="cls-5" x1="575.58" y1="33.48" x2="574.93" y2="34.57"/><line class="cls-5" x1="574.93" y1="34.57" x2="574.59" y2="36.13"/><line class="cls-5" x1="574.59" y1="36.13" x2="574.74" y2="37.4"/><line class="cls-5" x1="574.74" y1="37.4" x2="574.7" y2="97.49"/><line class="cls-5" x1="574.7" y1="97.49" x2="574.98" y2="99.99"/><line class="cls-5" x1="574.98" y1="99.99" x2="575.27" y2="102.51"/><line class="cls-5" x1="575.27" y1="102.51" x2="576.81" y2="104.88"/><line class="cls-5" x1="576.81" y1="104.88" x2="578.35" y2="107.25"/><line class="cls-5" x1="578.35" y1="107.25" x2="580.36" y2="109.31"/><line class="cls-5" x1="580.36" y1="109.31" x2="582.08" y2="110.9"/><line class="cls-5" x1="582.08" y1="110.9" x2="584.74" y2="111.88"/><line class="cls-5" x1="584.74" y1="111.88" x2="587.4" y2="112.84"/><line class="cls-5" x1="587.4" y1="112.84" x2="589.9" y2="112.56"/><line class="cls-5" x1="589.9" y1="112.56" x2="592.73" y2="112.74"/><line class="cls-5" x1="592.73" y1="112.74" x2="595.4" y2="111.67"/><line class="cls-5" x1="595.4" y1="111.67" x2="597.61" y2="110.91"/><line class="cls-5" x1="597.61" y1="110.91" x2="599.97" y2="109.37"/><line class="cls-5" x1="599.97" y1="109.37" x2="602.04" y2="107.35"/><line class="cls-5" x1="602.04" y1="107.35" x2="603.33" y2="105.17"/><line class="cls-5" x1="603.33" y1="105.17" x2="604.29" y2="102.52"/><line class="cls-5" x1="604.29" y1="102.52" x2="605.27" y2="99.87"/><line class="cls-5" x1="605.27" y1="99.87" x2="605.46" y2="97.04"/><line class="cls-5" x1="605.46" y1="97.04" x2="605.02" y2="37.26"/><line class="cls-5" x1="588.81" y1="28.92" x2="588.78" y2="30.96"/><path class="cls-5" d="M617.13,31h0" transform="translate(-28.35)"/><line class="cls-5" x1="589.09" y1="31.43" x2="589.09" y2="31.43"/><line class="cls-5" x1="589.09" y1="31.43" x2="589.68" y2="34.42"/><polyline class="cls-5" points="589.68 34.42 589.99 34.9 590.46 34.59"/><line class="cls-5" x1="590.46" y1="34.59" x2="590.46" y2="34.59"/><line class="cls-5" x1="590.46" y1="34.59" x2="590.65" y2="31.76"/><path class="cls-5" d="M619,31.76h0" transform="translate(-28.35)"/><line class="cls-5" x1="590.81" y1="30.99" x2="590.81" y2="30.99"/><line class="cls-5" x1="590.81" y1="30.99" x2="591.31" y2="28.64"/><path class="cls-5" d="M619.66,28.64c.17-.78-.93-1.43-1.4-1.12-.79-.16-1,.62-1.12,1.4" transform="translate(-28.35)"/><line class="cls-5" x1="588.81" y1="28.92" x2="588.81" y2="28.92"/><line class="cls-5" x1="590.5" y1="30.52" x2="590.81" y2="30.99"/><line class="cls-5" x1="589.26" y1="30.65" x2="588.95" y2="30.18"/><line class="cls-5" x1="588.95" y1="30.18" x2="590.5" y2="30.52"/><path class="cls-5" d="M617.61,30.65l.62,1,.95-.61" transform="translate(-28.35)"/><path class="cls-5" d="M617.44,31.43a1.22,1.22,0,0,0,1.57.34l.48-.31" transform="translate(-28.35)"/><line class="cls-5" x1="483.04" y1="283.32" x2="482.51" y2="204.71"/><line class="cls-5" x1="482.93" y1="419.04" x2="482.87" y2="382.63"/><line class="cls-5" x1="487.78" y1="27.15" x2="488.2" y2="115.97"/><line class="cls-5" x1="488.2" y1="115.97" x2="451.49" y2="115.55"/><line class="cls-5" x1="451.49" y1="115.55" x2="451.38" y2="27.23"/><line class="cls-5" x1="451.38" y1="27.23" x2="487.78" y2="27.15"/><line class="cls-5" x1="454.08" y1="37.62" x2="454.41" y2="36.05"/><line class="cls-5" x1="454.41" y1="36.05" x2="454.74" y2="34.48"/><line class="cls-5" x1="454.74" y1="34.48" x2="455.4" y2="33.39"/><line class="cls-5" x1="455.4" y1="33.39" x2="456.04" y2="32.3"/><line class="cls-5" x1="456.04" y1="32.3" x2="456.98" y2="31.69"/><line class="cls-5" x1="456.98" y1="31.69" x2="457.93" y2="31.07"/><line class="cls-5" x1="457.93" y1="31.07" x2="458.88" y2="30.45"/><line class="cls-5" x1="458.88" y1="30.45" x2="460.14" y2="30.31"/><line class="cls-5" x1="460.14" y1="30.31" x2="461.39" y2="30.16"/><line class="cls-5" x1="461.39" y1="30.16" x2="477.39" y2="29.87"/><line class="cls-5" x1="477.39" y1="29.87" x2="478.96" y2="30.21"/><line class="cls-5" x1="478.96" y1="30.21" x2="480.22" y2="30.07"/><line class="cls-5" x1="480.22" y1="30.07" x2="481.3" y2="30.69"/><line class="cls-5" x1="481.3" y1="30.69" x2="482.4" y2="31.33"/><line class="cls-5" x1="482.4" y1="31.33" x2="483.33" y2="32.76"/><line class="cls-5" x1="483.33" y1="32.76" x2="483.94" y2="33.71"/><line class="cls-5" x1="483.94" y1="33.71" x2="484.56" y2="34.66"/><line class="cls-5" x1="484.56" y1="34.66" x2="484.7" y2="35.91"/><line class="cls-5" x1="484.7" y1="35.91" x2="484.84" y2="37.17"/><line class="cls-5" x1="484.84" y1="37.17" x2="484.81" y2="97.26"/><line class="cls-5" x1="484.81" y1="97.26" x2="484.62" y2="100.09"/><line class="cls-5" x1="484.62" y1="100.09" x2="484.11" y2="102.43"/><line class="cls-5" x1="484.11" y1="102.43" x2="483.14" y2="105.09"/><line class="cls-5" x1="483.14" y1="105.09" x2="481.39" y2="107.58"/><line class="cls-5" x1="481.39" y1="107.58" x2="479.79" y2="109.28"/><line class="cls-5" x1="479.79" y1="109.28" x2="477.43" y2="110.82"/><line class="cls-5" x1="477.43" y1="110.82" x2="474.75" y2="111.9"/><line class="cls-5" x1="474.75" y1="111.9" x2="472.55" y2="112.66"/><line class="cls-5" x1="472.55" y1="112.66" x2="470.03" y2="112.94"/><line class="cls-5" x1="470.03" y1="112.94" x2="467.22" y2="112.75"/><line class="cls-5" x1="467.22" y1="112.75" x2="464.56" y2="111.79"/><line class="cls-5" x1="464.56" y1="111.79" x2="461.9" y2="110.81"/><line class="cls-5" x1="461.9" y1="110.81" x2="459.71" y2="109.53"/><line class="cls-5" x1="459.71" y1="109.53" x2="457.7" y2="107.47"/><line class="cls-5" x1="457.7" y1="107.47" x2="456.15" y2="105.1"/><line class="cls-5" x1="456.15" y1="105.1" x2="455.09" y2="102.43"/><line class="cls-5" x1="455.09" y1="102.43" x2="454.33" y2="100.21"/><line class="cls-5" x1="454.33" y1="100.21" x2="454.52" y2="97.4"/><line class="cls-5" x1="454.52" y1="97.4" x2="454.08" y2="37.62"/><line class="cls-5" x1="470.97" y1="29.33" x2="470.94" y2="31.37"/><path class="cls-5" d="M499.29,31.37h0" transform="translate(-28.35)"/><line class="cls-5" x1="470.47" y1="31.67" x2="470.47" y2="31.67"/><line class="cls-5" x1="470.47" y1="31.67" x2="470.28" y2="34.5"/><path class="cls-5" d="M498.63,34.5l-.47.31a.55.55,0,0,1-.78-.17" transform="translate(-28.35)"/><line class="cls-5" x1="469.03" y1="34.64" x2="469.03" y2="34.64"/><line class="cls-5" x1="469.03" y1="34.64" x2="468.44" y2="31.66"/><line class="cls-5" x1="468.44" y1="31.66" x2="468.44" y2="31.66"/><line class="cls-5" x1="468.6" y1="30.87" x2="468.6" y2="30.87"/><line class="cls-5" x1="468.6" y1="30.87" x2="468.15" y2="29.14"/><path class="cls-5" d="M496.5,29.14a2.05,2.05,0,0,1,1.1-1.4A2.09,2.09,0,0,1,499,28.86" transform="translate(-28.35)"/><line class="cls-5" x1="470.97" y1="29.33" x2="470.97" y2="29.33"/><line class="cls-5" x1="468.77" y1="30.09" x2="468.91" y2="31.35"/><line class="cls-5" x1="470.16" y1="31.19" x2="470.33" y2="30.43"/><line class="cls-5" x1="470.33" y1="30.43" x2="468.77" y2="30.09"/><path class="cls-5" d="M498.51,31.19c.31.48-.16.79-.95.62-.47.31-.77-.15-.61-.94" transform="translate(-28.35)"/><path class="cls-5" d="M498.82,31.67c-.95.62-1.73.45-2,0" transform="translate(-28.35)"/><line class="cls-5" x1="412.15" y1="27.1" x2="412.35" y2="37.78"/><line class="cls-5" x1="412.35" y1="37.78" x2="412.02" y2="39.35"/><line class="cls-5" x1="412.02" y1="39.35" x2="411.7" y2="40.91"/><line class="cls-5" x1="411.7" y1="40.91" x2="411.05" y2="41.99"/><line class="cls-5" x1="411.05" y1="41.99" x2="409.93" y2="43.39"/><line class="cls-5" x1="409.93" y1="43.39" x2="408.81" y2="44.8"/><line class="cls-5" x1="408.81" y1="44.8" x2="407.4" y2="45.71"/><line class="cls-5" x1="407.4" y1="45.71" x2="404.72" y2="46.79"/><line class="cls-5" x1="404.72" y1="46.79" x2="401.27" y2="47.7"/><line class="cls-5" x1="401.27" y1="47.7" x2="397.49" y2="48.12"/><line class="cls-5" x1="397.49" y1="48.12" x2="394.36" y2="47.45"/><line class="cls-5" x1="394.36" y1="47.45" x2="391.22" y2="46.79"/><line class="cls-5" x1="391.22" y1="46.79" x2="387.79" y2="45.65"/><line class="cls-5" x1="387.79" y1="45.65" x2="386.39" y2="44.54"/><line class="cls-5" x1="386.39" y1="44.54" x2="385.77" y2="43.59"/><line class="cls-5" x1="385.77" y1="43.59" x2="384.85" y2="42.18"/><line class="cls-5" x1="384.85" y1="42.18" x2="383.92" y2="40.75"/><line class="cls-5" x1="383.92" y1="40.75" x2="383.47" y2="39.01"/><line class="cls-5" x1="383.47" y1="39.01" x2="383.32" y2="37.76"/><line class="cls-5" x1="383.32" y1="37.76" x2="383.13" y2="27.1"/><line class="cls-5" x1="383.13" y1="27.1" x2="412.15" y2="27.1"/><line class="cls-5" x1="392.03" y1="31.42" x2="403.48" y2="31.41"/><line class="cls-5" x1="386.64" y1="35.59" x2="386.62" y2="37.64"/><line class="cls-5" x1="408.77" y1="35.37" x2="409.06" y2="37.89"/><path class="cls-5" d="M434.38,42.57a18.62,18.62,0,0,1-16.8.12" transform="translate(-28.35)"/><path class="cls-5" d="M417.58,42.69A5.11,5.11,0,0,1,414.5,38" transform="translate(-28.35)"/><path class="cls-5" d="M415,35.59c0-2,2.57-4.35,5.37-4.16" transform="translate(-28.35)"/><path class="cls-5" d="M437.41,37.89a5.94,5.94,0,0,1-2.73,5.16" transform="translate(-28.35)"/><path class="cls-5" d="M431.83,31.41a5.06,5.06,0,0,1,5.6,4.43" transform="translate(-28.35)"/><line class="cls-5" x1="398.94" y1="29.62" x2="398.93" y2="31.66"/><path class="cls-5" d="M427.28,31.66h0" transform="translate(-28.35)"/><line class="cls-5" x1="398.77" y1="32.44" x2="398.77" y2="32.44"/><line class="cls-5" x1="398.77" y1="32.44" x2="398.27" y2="34.8"/><path class="cls-5" d="M426.62,34.8l-.48.31s-.79-.18-.31-.49" transform="translate(-28.35)"/><line class="cls-5" x1="397.01" y1="34.94" x2="397.01" y2="34.94"/><line class="cls-5" x1="397.01" y1="34.94" x2="396.72" y2="32.42"/><path class="cls-5" d="M425.07,32.42h0" transform="translate(-28.35)"/><line class="cls-5" x1="396.41" y1="31.95" x2="396.41" y2="31.95"/><line class="cls-5" x1="396.41" y1="31.95" x2="396.12" y2="29.42"/><path class="cls-5" d="M424.47,29.42a2.12,2.12,0,0,1,1.12-1.4A2.09,2.09,0,0,1,427,29.14" transform="translate(-28.35)"/><line class="cls-5" x1="398.94" y1="29.62" x2="398.94" y2="29.62"/><line class="cls-5" x1="397.05" y1="30.85" x2="396.89" y2="31.64"/><line class="cls-5" x1="398.15" y1="31.49" x2="398.31" y2="30.71"/><line class="cls-5" x1="398.31" y1="30.71" x2="397.05" y2="30.85"/><path class="cls-5" d="M426.5,31.49c.31.48-.17.79-.95.62-.48.31-.79-.16-.62-.95" transform="translate(-28.35)"/><path class="cls-5" d="M427.12,32.44h0c-.95.62-1.74.46-2.05,0" transform="translate(-28.35)"/><line class="cls-5" x1="562.62" y1="27.06" x2="562.81" y2="37.73"/><line class="cls-5" x1="562.81" y1="37.73" x2="562.48" y2="39.3"/><line class="cls-5" x1="562.48" y1="39.3" x2="562.15" y2="40.87"/><line class="cls-5" x1="562.15" y1="40.87" x2="561.52" y2="41.95"/><line class="cls-5" x1="561.52" y1="41.95" x2="560.4" y2="43.36"/><line class="cls-5" x1="560.4" y1="43.36" x2="559.75" y2="44.44"/><line class="cls-5" x1="559.75" y1="44.44" x2="558.33" y2="45.37"/><line class="cls-5" x1="558.33" y1="45.37" x2="555.18" y2="46.75"/><line class="cls-5" x1="555.18" y1="46.75" x2="551.73" y2="47.65"/><line class="cls-5" x1="551.73" y1="47.65" x2="548.42" y2="47.76"/><line class="cls-5" x1="548.42" y1="47.76" x2="544.82" y2="47.4"/><line class="cls-5" x1="544.82" y1="47.4" x2="541.69" y2="46.75"/><line class="cls-5" x1="541.69" y1="46.75" x2="538.72" y2="45.3"/><line class="cls-5" x1="538.72" y1="45.3" x2="537.32" y2="44.19"/><line class="cls-5" x1="537.32" y1="44.19" x2="536.23" y2="43.56"/><line class="cls-5" x1="536.23" y1="43.56" x2="535.3" y2="42.13"/><line class="cls-5" x1="535.3" y1="42.13" x2="534.37" y2="40.7"/><line class="cls-5" x1="534.37" y1="40.7" x2="533.93" y2="38.98"/><line class="cls-5" x1="533.93" y1="38.98" x2="533.79" y2="37.72"/><line class="cls-5" x1="533.79" y1="37.72" x2="534.06" y2="26.74"/><line class="cls-5" x1="534.06" y1="26.74" x2="562.62" y2="27.06"/><line class="cls-5" x1="542.48" y1="31.39" x2="553.95" y2="31.35"/><line class="cls-5" x1="537.12" y1="35.56" x2="537.08" y2="37.59"/><line class="cls-5" x1="559.23" y1="35.34" x2="559.52" y2="37.84"/><path class="cls-5" d="M584.83,42.52a18.54,18.54,0,0,1-16.79.12" transform="translate(-28.35)"/><path class="cls-5" d="M568,42.64A5.13,5.13,0,0,1,565,37.9" transform="translate(-28.35)"/><path class="cls-5" d="M565.47,35.56c0-2,2.55-4.37,5.36-4.17" transform="translate(-28.35)"/><path class="cls-5" d="M587.87,37.84A6,6,0,0,1,585.14,43" transform="translate(-28.35)"/><path class="cls-5" d="M582.3,31.35a5.07,5.07,0,0,1,5.59,4.47" transform="translate(-28.35)"/><line class="cls-5" x1="549.4" y1="29.57" x2="549.38" y2="31.62"/><line class="cls-5" x1="549.38" y1="31.62" x2="549.38" y2="31.62"/><line class="cls-5" x1="549.23" y1="32.4" x2="549.23" y2="32.4"/><line class="cls-5" x1="549.23" y1="32.4" x2="548.73" y2="34.75"/><path class="cls-5" d="M577.08,34.75l-.48.31c-.47.31-.78-.17-.3-.48" transform="translate(-28.35)"/><line class="cls-5" x1="547.47" y1="34.89" x2="547.47" y2="34.89"/><line class="cls-5" x1="547.47" y1="34.89" x2="547.66" y2="32.06"/><path class="cls-5" d="M576,32.06h0" transform="translate(-28.35)"/><line class="cls-5" x1="547.35" y1="31.59" x2="547.35" y2="31.59"/><line class="cls-5" x1="547.35" y1="31.59" x2="547.07" y2="29.08"/><path class="cls-5" d="M575.42,29.08a2.06,2.06,0,0,1,1.11-1.4,2.12,2.12,0,0,1,1.4,1.12" transform="translate(-28.35)"/><line class="cls-5" x1="549.4" y1="29.57" x2="549.4" y2="29.57"/><line class="cls-5" x1="547.52" y1="30.8" x2="547.35" y2="31.59"/><line class="cls-5" x1="549.07" y1="31.14" x2="548.76" y2="30.67"/><line class="cls-5" x1="548.76" y1="30.67" x2="547.52" y2="30.8"/><path class="cls-5" d="M577.42,31.14c.31.48-.16.79-.95.62-.46.3-.77-.17-.62-1" transform="translate(-28.35)"/><path class="cls-5" d="M577.58,32.4c-1,.62-1.74.45-2.05,0" transform="translate(-28.35)"/><line class="cls-5" x1="608.25" y1="0.74" x2="571.85" y2="0.8"/><line class="cls-5" x1="451.19" y1="1.02" x2="488.07" y2="0.65"/><line class="cls-5" x1="382.96" y1="0.89" x2="411.98" y2="0.9"/><line class="cls-5" x1="533.89" y1="0.53" x2="562.44" y2="0.85"/><polygon class="cls-5" points="648.96 513.46 648.49 457.76 627.62 457.84 627.78 513.06 628.07 544.61 733.2 544.36 733.23 513.3 648.96 513.46"/><polygon class="cls-5" points="765.03 544.56 733.2 544.36 733.23 513.3 764.76 513.03 765.03 544.56"/><polygon class="cls-5" points="882.86 11.01 72.03 11.54 72.12 16.88 945.56 16.12 945.47 10.78 882.86 11.01"/><path class="cls-5" d="M973.12,16,974,12m-6.16,4L969,10.57m-6.49,5.57,1.16-5.47m-6.49,5.58,1.15-5.49m-6.5,5.59L953,10.86M946.15,16l1.15-5.48m-6.49,5.57,1.47-5m-6.81,5.09,1.16-5.47m-6.5,5.58,1.17-5.48m-6.5,5.57L926,10.88m-6,5.26,1.15-5.47m-6.49,5.56,1.15-5.47M909,15.87l1.17-5.49M903.62,16l1.17-5.48m-6.5,5.59.69-5.17m-6,5.26,1.15-5.48m-6.49,5.59,1.17-5.49m-6.5,5.59,1.15-5.48M876.64,16l1.16-5.47m-6.49,5.56,1.16-5.47M866,16.17l1.16-5.48m-6.5,5.57,1.16-5.47m-6.49,5.57,1.15-5.48M850,16.45,851.12,11m-6.5,5.58,1.17-5.49m-6.34,4.8,1.16-5.47M834.12,16l1.15-5.49m-6.48,5.58L830,10.59m-6.5,5.58,1.16-5.49m-6.5,5.58,1.17-5.48m-6.5,5.58,1.15-5.49m-6.49,5.58L808.6,11m-6.8,5.1L803,10.59m-6.5,5.58,1.48-5m-6.81,5.1,1.15-5.48m-6.49,5.57L787,10.89m-6.5,5.58L781.62,11m-6.5,5.58,1.17-5.48m-6,5.26.68-5.16M764.62,16l1-4.69m-6.32,4.79,1.15-5.48m-6.5,5.58,1.18-5.48m-6.51,5.58,1.15-5.48m-6.48,5.57,1.16-5.47M738,16.46,739.1,11m-6.81,5.1,1.17-5.47M727,16.19l1.15-5.49m-6.48,5.58,1.16-5.48m-6.5,5.59,1.16-5.5M711,16.48,712.12,11m-6.51,5.58,1.16-5.48m-6.48,5.58,1.15-5.47M695.11,16l1.16-5.49m-6.49,5.58,1.16-5.48m-6.5,5.57,1.16-5.47m-6.49,5.57,1.16-5.47m-6.5,5.56,1.16-5.47m-6.5,5.58L669.6,11m-6.5,5.57,1.16-5.47m-6.8,5.1,1.16-5.47m-6.5,5.56,1.16-5.47m-6.5,5.58L648,10.91m-6.5,5.58L642.6,11m-6.48,5.57,1.16-5.47m-6.5,5.56,1.16-5.47m-6.5,5.58,1.17-5.48m-6.33,4.8,1.15-5.49m-6.49,5.57,1-4.69m-6.34,4.79.7-5.16m-6,5.27,1.17-5.48m-6.51,5.56.68-5.16m-6,5.27,1.15-5.49m-6.8,5.1,1.47-5m-6.81,5.11,1.17-5.48m-6.5,5.57,1.16-5.47M572,16.49,573.1,11m-6.49,5.57,1.16-5.47m-6.5,5.58,1.16-5.49m-6.49,5.58,1.15-5.47M550.3,16.4l1.15-5.48m-6,5.28,1.18-5.49m-6.5,5.59,1.16-5.5m-6.5,5.59,1.16-5.47m-6.49,5.57L530.58,11m-6.48,5.58,1.15-5.47m-6.5,5.58,1.17-5.49m-6.81,5.1,1.47-5m-6.8,5.09,1.15-5.48m-6.49,5.57L503.6,11m-6.5,5.58,1.17-5.49m-6.5,5.58,1.17-5.48m-6.5,5.59,1.15-5.49m-6.8,5.1L482,10.94m-6.5,5.58L476.62,11m-6,5.27,1.16-5.47m-6.49,5.57,1.15-5.48m-6.48,5.57.68-5.16m-6,5.27,1.16-5.49m-6.5,5.58,1.16-5.47M443.6,16.3l1.16-5.47m-6.48,5.57,1.15-5.47m-6.49,5.57L434.1,11m-6.5,5.58,1.17-5.48m-6.51,5.56,1.16-5.47m-6.49,5.57,1.17-5.46m-6.52,5.57,1.18-5.49M406,16.52,407.12,11m-6.51,5.57,1.47-5m-6.32,4.79,1.16-5.47m-6.5,5.58L391.58,11m-6.5,5.58,1.16-5.47m-6.49,5.56,1.15-5.47m-6.48,5.57,1.15-5.47m-6.81,5.1,1.17-5.48m-6.5,5.58L364.6,11m-6.5,5.57,1.15-5.48m-6.48,5.58,1.15-5.49m-6.5,5.59,1.17-5.49m-6.5,5.59,1.17-5.48M336.75,17l1.16-5.47m-6.79,5.1,1.45-5m-6.79,5.1,1.16-5.47m-6,5.27L322.08,11m-6.5,5.58,1.16-5.47m-6.49,5.58,1.15-5.49m-6.49,5.57,1.16-5.47m-6.81,5.11,1.16-5.49m-6.5,5.58,1.16-5.47m-6.48,5.57,1.15-5.48m-6.5,5.58,1.17-5.48m-6.5,5.58,1.16-5.49m-6.5,5.58,1.16-5.47M267.26,17l1.15-5.48m-6.8,5.1,1.16-5.47m-6.5,5.58,1.16-5.5m-6.5,5.58,1.16-5.47m-6,5.27,1.15-5.49m-6.48,5.58,1.15-5.47m-6.5,5.58,1.17-5.5m-6.5,5.59,1.15-5.48m-6.79,5.1,1.15-5.48m-6.5,5.58,1.17-5.48m-6.5,5.58,1.17-5.49m-6.5,5.58,1.16-5.47m-6.5,5.56,1.16-5.47M197.75,17l1.16-5.47m-6.81,5.11,1.16-5.5m-6.49,5.58,1.15-5.46m-6.49,5.56,1.16-5.47m-6.49,5.57,1.16-5.47m-6,5.26,1.17-5.48m-6.5,5.58,1.16-5.47m-6.5,5.56,1.16-5.47m-6.79,5.1,1.15-5.48m-6.5,5.57,1.17-5.48m-6.5,5.58,1.17-5.47m-6.51,5.56,1.16-5.47m-6.49,5.58,1.16-5.48M128.24,17l1.16-5.48m-6.5,5.58,1.16-5.47m-6.8,5.09,1.16-5.47m-6.48,5.57,1.15-5.47m-6.49,5.56,1.15-5.47M101.26,17l1.15-5.47m-2.23,2.78,11,2.32m1.47-5,24.25,5.12m.69-5.17,24.27,5.14m.68-5.17,24.26,5.13m.68-5.15,24.26,5.13m1.47-5,24.26,5.14m.68-5.16,24.26,5.13m.7-5.17,24.26,5.13m1.15-5.48,24.73,4.83m.22-4.87,24.27,5.14m1-4.69L363,16.82m1.16-5.47,24.26,5.12m.68-5.16,24.26,5.13m.69-5.17,24.25,5.14m.7-5.17,24.26,5.14m1.46-5,24.26,5.13m.69-5.17,24.27,5.14m.68-5.16,24.26,5.13M540,11l24.74,4.82m.51-4.37,24.26,5.13m.7-5.17,24.26,5.13M615.62,11l24.27,5.14m.68-5.19,24.26,5.14m1-4.69,24.26,5.13m.7-5.16L715,16.51M716.19,11l24.26,5.13m.69-5.17,24.25,5.14m.7-5.16,24.26,5.13m1.46-5,24.26,5.13m.69-5.17L841,16.2m.69-5.16L866,16.17m1.16-5.48,24.26,5.12m.68-5.16,24.26,5.14m1-4.7,24.25,5.14m.7-5.17,24.26,5.14m1.16-5.5L974,12" transform="translate(-28.35)"/><line class="cls-5" x1="482.61" y1="194.51" x2="483.09" y2="419.24"/><line class="cls-5" x1="493.72" y1="408.64" x2="493.4" y2="184.12"/><line class="cls-5" x1="927.21" y1="15.91" x2="90.48" y2="17.07"/><line class="cls-5" x1="90.37" y1="27.27" x2="927.41" y2="26.58"/><line class="cls-5" x1="587.78" y1="555.29" x2="951.2" y2="554.85"/><line class="cls-5" x1="927.73" y1="544.65" x2="598.25" y2="544.42"/><line class="cls-5" x1="582.46" y1="414.33" x2="582.23" y2="419.19"/><line class="cls-5" x1="582.35" y1="409" x2="582.46" y2="414.33"/><line class="cls-5" x1="530.05" y1="414.7" x2="530.31" y2="419.24"/><line class="cls-5" x1="530.12" y1="408.58" x2="530.05" y2="414.7"/><line class="cls-5" x1="598.36" y1="408.7" x2="582.35" y2="409"/><line class="cls-5" x1="530.12" y1="408.58" x2="493.72" y2="408.64"/><line class="cls-5" x1="482.93" y1="419.15" x2="530.31" y2="419.24"/><line class="cls-5" x1="582.23" y1="419.19" x2="587.57" y2="419.1"/><line class="cls-5" x1="530.05" y1="414.7" x2="532.09" y2="414.72"/><line class="cls-5" x1="532.09" y1="414.72" x2="532.13" y2="410.63"/><line class="cls-5" x1="532.13" y1="410.63" x2="531.66" y2="410.94"/><line class="cls-5" x1="531.66" y1="410.94" x2="531.69" y2="408.91"/><line class="cls-5" x1="531.69" y1="408.91" x2="530.12" y2="408.58"/><line class="cls-5" x1="530.12" y1="408.58" x2="530.05" y2="414.7"/><line class="cls-5" x1="582.35" y1="409" x2="580.78" y2="408.67"/><line class="cls-5" x1="580.78" y1="408.67" x2="580.77" y2="410.71"/><line class="cls-5" x1="580.77" y1="410.71" x2="580.3" y2="411.02"/><line class="cls-5" x1="580.3" y1="411.02" x2="579.94" y2="414.62"/><line class="cls-5" x1="579.94" y1="414.62" x2="582.46" y2="414.33"/><line class="cls-5" x1="582.46" y1="414.33" x2="582.35" y2="409"/><line class="cls-5" x1="580.78" y1="408.67" x2="556.33" y2="365.89"/><line class="cls-5" x1="556.33" y1="365.89" x2="554.43" y2="367.12"/><line class="cls-5" x1="554.43" y1="367.12" x2="578.89" y2="409.9"/><line class="cls-5" x1="578.89" y1="409.9" x2="580.78" y2="408.67"/><path class="cls-5" d="M582.77,367.12A49.59,49.59,0,0,0,560,408.91" transform="translate(-28.35)"/><line class="cls-5" x1="530.12" y1="408.58" x2="530.05" y2="414.7"/><line class="cls-5" x1="582.35" y1="409" x2="582.46" y2="414.33"/><line class="cls-5" x1="665.84" y1="196.08" x2="927.55" y2="195.87"/><line class="cls-5" x1="927.46" y1="190.53" x2="644.89" y2="190.83"/><line class="cls-5" x1="372.94" y1="26.98" x2="372.97" y2="121.44"/><line class="cls-5" x1="378.21" y1="116" x2="378.26" y2="26.88"/><line class="cls-5" x1="378.26" y1="26.88" x2="372.94" y2="26.98"/><line class="cls-5" x1="597.96" y1="360.37" x2="597.86" y2="355.05"/><line class="cls-5" x1="639.7" y1="360.22" x2="640.07" y2="354.58"/><line class="cls-5" x1="639.7" y1="360.22" x2="927.6" y2="359.83"/><line class="cls-5" x1="927.51" y1="354.49" x2="665.81" y2="354.7"/><line class="cls-5" x1="597.86" y1="355.05" x2="593.01" y2="354.84"/><line class="cls-5" x1="639.76" y1="354.1" x2="637.72" y2="354.09"/><line class="cls-5" x1="637.72" y1="354.09" x2="637.66" y2="360.2"/><line class="cls-5" x1="637.66" y1="360.2" x2="639.7" y2="360.22"/><line class="cls-5" x1="639.7" y1="360.22" x2="639.76" y2="354.1"/><line class="cls-5" x1="597.96" y1="360.37" x2="600.47" y2="360.1"/><line class="cls-5" x1="600.47" y1="360.1" x2="600.07" y2="354.29"/><line class="cls-5" x1="600.07" y1="354.29" x2="598.03" y2="354.26"/><line class="cls-5" x1="598.03" y1="354.26" x2="597.96" y2="360.37"/><line class="cls-5" x1="600.47" y1="360.1" x2="618.94" y2="392.62"/><path class="cls-5" d="M647.29,392.62A37.36,37.36,0,0,0,666,360.2" transform="translate(-28.35)"/><line class="cls-5" x1="639.7" y1="360.22" x2="640.07" y2="354.58"/><line class="cls-5" x1="597.96" y1="360.37" x2="597.86" y2="355.05"/><line class="cls-5" x1="404.42" y1="115.81" x2="404.52" y2="121.16"/><line class="cls-5" x1="440.81" y1="115.76" x2="440.92" y2="121.1"/><line class="cls-5" x1="571.67" y1="115.64" x2="571.77" y2="120.99"/><line class="cls-5" x1="535.27" y1="115.72" x2="535.37" y2="121.04"/><line class="cls-5" x1="644.78" y1="115.98" x2="613.71" y2="115.96"/><line class="cls-5" x1="608.38" y1="116.06" x2="571.67" y2="115.64"/><line class="cls-5" x1="535.27" y1="115.72" x2="493.53" y2="115.87"/><line class="cls-5" x1="488.2" y1="115.97" x2="440.81" y2="115.76"/><line class="cls-5" x1="404.42" y1="115.81" x2="378.21" y2="116"/><line class="cls-5" x1="372.97" y1="121.44" x2="404.52" y2="121.16"/><line class="cls-5" x1="440.92" y1="121.1" x2="487.98" y2="120.83"/><line class="cls-5" x1="492.84" y1="121.05" x2="535.37" y2="121.04"/><line class="cls-5" x1="571.77" y1="120.99" x2="639.71" y2="120.64"/><line class="cls-5" x1="440.75" y1="121.87" x2="438.71" y2="121.86"/><line class="cls-5" x1="438.71" y1="121.86" x2="438.79" y2="115.74"/><line class="cls-5" x1="438.79" y1="115.74" x2="440.81" y2="115.76"/><line class="cls-5" x1="440.81" y1="115.76" x2="440.75" y2="121.87"/><line class="cls-5" x1="404.42" y1="115.81" x2="406.45" y2="115.84"/><line class="cls-5" x1="406.45" y1="115.84" x2="406.4" y2="121.97"/><line class="cls-5" x1="406.4" y1="121.97" x2="404.35" y2="121.94"/><line class="cls-5" x1="404.35" y1="121.94" x2="404.42" y2="115.81"/><line class="cls-5" x1="406.45" y1="115.84" x2="422.61" y2="87.79"/><path class="cls-5" d="M451,87.79a32.73,32.73,0,0,1,16.16,28" transform="translate(-28.35)"/><line class="cls-5" x1="440.81" y1="115.76" x2="440.92" y2="121.1"/><line class="cls-5" x1="404.42" y1="115.81" x2="404.52" y2="121.16"/><line class="cls-5" x1="535.21" y1="121.83" x2="537.24" y2="121.86"/><line class="cls-5" x1="537.24" y1="121.86" x2="537.31" y2="115.73"/><line class="cls-5" x1="537.31" y1="115.73" x2="535.27" y2="115.72"/><line class="cls-5" x1="535.27" y1="115.72" x2="535.21" y2="121.83"/><line class="cls-5" x1="571.67" y1="115.64" x2="569.62" y2="115.62"/><line class="cls-5" x1="569.62" y1="115.62" x2="569.57" y2="121.75"/><line class="cls-5" x1="569.57" y1="121.75" x2="571.6" y2="121.78"/><line class="cls-5" x1="571.6" y1="121.78" x2="571.67" y2="115.64"/><line class="cls-5" x1="569.62" y1="115.62" x2="553.47" y2="87.67"/><path class="cls-5" d="M581.82,87.67a32.85,32.85,0,0,0-16.16,28.06" transform="translate(-28.35)"/><line class="cls-5" x1="535.27" y1="115.72" x2="535.37" y2="121.04"/><line class="cls-5" x1="571.67" y1="115.64" x2="571.77" y2="120.99"/><line class="cls-5" x1="487.9" y1="128.99" x2="493.23" y2="128.9"/><line class="cls-5" x1="488.06" y1="170.72" x2="493.4" y2="170.63"/><line class="cls-5" x1="493.4" y1="184.12" x2="493.4" y2="170.63"/><line class="cls-5" x1="493.23" y1="128.9" x2="492.84" y2="121.05"/><line class="cls-5" x1="493.53" y1="115.87" x2="493.45" y2="81.51"/><line class="cls-5" x1="493.45" y1="81.51" x2="487.81" y2="81.14"/><line class="cls-5" x1="487.81" y1="81.14" x2="488.2" y2="115.97"/><line class="cls-5" x1="487.98" y1="120.83" x2="487.9" y2="128.99"/><line class="cls-5" x1="488.06" y1="170.72" x2="487.75" y2="183.74"/><line class="cls-5" x1="494.18" y1="170.8" x2="494.2" y2="168.75"/><line class="cls-5" x1="494.2" y1="168.75" x2="488.08" y2="168.68"/><line class="cls-5" x1="488.08" y1="168.68" x2="488.06" y2="170.72"/><line class="cls-5" x1="488.06" y1="170.72" x2="494.18" y2="170.8"/><line class="cls-5" x1="487.9" y1="128.99" x2="487.87" y2="131.03"/><line class="cls-5" x1="487.87" y1="131.03" x2="493.99" y2="131.1"/><line class="cls-5" x1="493.99" y1="131.1" x2="494.01" y2="129.05"/><line class="cls-5" x1="494.01" y1="129.05" x2="487.9" y2="128.99"/><line class="cls-5" x1="487.87" y1="131.03" x2="455.66" y2="149.96"/><path class="cls-5" d="M484,150a37.36,37.36,0,0,0,32.42,18.72" transform="translate(-28.35)"/><line class="cls-5" x1="488.06" y1="170.72" x2="493.4" y2="170.63"/><line class="cls-5" x1="487.9" y1="128.99" x2="493.23" y2="128.9"/><line class="cls-5" x1="598.25" y1="544.42" x2="598.36" y2="408.7"/><line class="cls-5" x1="587.57" y1="419.1" x2="587.78" y2="555.29"/><line class="cls-5" x1="90.53" y1="194.52" x2="482.61" y2="194.51"/><line class="cls-5" x1="493.4" y1="184.12" x2="90.65" y2="184.33"/><line class="cls-5" x1="346.91" y1="194.41" x2="341.57" y2="194.5"/><line class="cls-5" x1="644.71" y1="178.13" x2="639.85" y2="177.91"/><line class="cls-5" x1="645.03" y1="136.08" x2="639.69" y2="136.18"/><line class="cls-5" x1="645.08" y1="201.49" x2="639.74" y2="201.6"/><line class="cls-5" x1="645.24" y1="243.25" x2="639.9" y2="243.34"/><line class="cls-5" x1="644.84" y1="349.46" x2="645.24" y2="243.25"/><line class="cls-5" x1="644.89" y1="190.83" x2="644.71" y2="178.13"/><line class="cls-5" x1="645.03" y1="136.08" x2="644.78" y2="115.98"/><line class="cls-5" x1="639.71" y1="120.64" x2="639.69" y2="136.18"/><line class="cls-5" x1="639.85" y1="177.91" x2="639.74" y2="201.6"/><line class="cls-5" x1="639.9" y1="243.34" x2="640.07" y2="354.58"/><line class="cls-5" x1="638.9" y1="136.01" x2="638.89" y2="138.05"/><line class="cls-5" x1="638.89" y1="138.05" x2="645" y2="138.11"/><line class="cls-5" x1="645" y1="138.11" x2="645.03" y2="136.08"/><line class="cls-5" x1="645.03" y1="136.08" x2="638.9" y2="136.01"/><line class="cls-5" x1="644.71" y1="178.13" x2="644.73" y2="176.08"/><line class="cls-5" x1="644.73" y1="176.08" x2="639.09" y2="175.71"/><line class="cls-5" x1="639.09" y1="175.71" x2="639.06" y2="177.74"/><line class="cls-5" x1="639.06" y1="177.74" x2="644.71" y2="178.13"/><line class="cls-5" x1="644.73" y1="176.08" x2="677.43" y2="156.84"/><path class="cls-5" d="M705.78,156.84a37.35,37.35,0,0,0-32.44-18.72" transform="translate(-28.35)"/><line class="cls-5" x1="645.03" y1="136.08" x2="639.69" y2="136.18"/><line class="cls-5" x1="644.71" y1="178.13" x2="639.85" y2="177.91"/><line class="cls-5" x1="639.12" y1="243.17" x2="639.14" y2="241.13"/><line class="cls-5" x1="639.14" y1="241.13" x2="645.26" y2="241.21"/><line class="cls-5" x1="645.26" y1="241.21" x2="645.24" y2="243.25"/><line class="cls-5" x1="645.24" y1="243.25" x2="639.12" y2="243.17"/><line class="cls-5" x1="645.08" y1="201.49" x2="645.06" y2="203.54"/><line class="cls-5" x1="645.06" y1="203.54" x2="638.93" y2="203.48"/><line class="cls-5" x1="638.93" y1="203.48" x2="638.96" y2="201.44"/><line class="cls-5" x1="638.96" y1="201.44" x2="645.08" y2="201.49"/><line class="cls-5" x1="645.06" y1="203.54" x2="677.49" y2="222.27"/><path class="cls-5" d="M705.84,222.27C699.27,234,686.32,241,672.83,241" transform="translate(-28.35)"/><line class="cls-5" x1="645.24" y1="243.25" x2="639.9" y2="243.34"/><line class="cls-5" x1="645.08" y1="201.49" x2="639.74" y2="201.6"/><line class="cls-5" x1="608.43" y1="26.94" x2="608.38" y2="116.06"/><line class="cls-5" x1="613.71" y1="115.96" x2="613.3" y2="27.16"/><line class="cls-5" x1="613.3" y1="27.16" x2="608.43" y2="26.94"/><line class="cls-5" x1="598.36" y1="408.7" x2="597.96" y2="360.37"/><line class="cls-5" x1="593.01" y1="354.84" x2="593.03" y2="408.81"/><line class="cls-5" x1="593.03" y1="408.81" x2="598.36" y2="408.7"/><line class="cls-5" x1="621.75" y1="464.36" x2="621.61" y2="490.09"/><line class="cls-5" x1="621.86" y1="496.67" x2="621.72" y2="522.4"/><line class="cls-5" x1="621.97" y1="528.99" x2="628.09" y2="529.07"/><line class="cls-5" x1="628.09" y1="529.07" x2="627.62" y2="457.84"/><line class="cls-5" x1="621.72" y1="522.4" x2="598.33" y2="522.77"/><line class="cls-5" x1="598.33" y1="522.77" x2="598.28" y2="528.89"/><line class="cls-5" x1="598.28" y1="528.89" x2="621.97" y2="528.99"/><line class="cls-5" x1="621.61" y1="490.09" x2="598.24" y2="490.45"/><line class="cls-5" x1="598.24" y1="490.45" x2="598.16" y2="496.57"/><line class="cls-5" x1="598.16" y1="496.57" x2="621.86" y2="496.67"/><line class="cls-5" x1="521.69" y1="81.36" x2="521.34" y2="42.44"/><line class="cls-5" x1="515.47" y1="48.97" x2="514.85" y2="75"/><line class="cls-5" x1="521.34" y1="42.44" x2="487.76" y2="42.69"/><line class="cls-5" x1="494.29" y1="48.57" x2="515.47" y2="48.97"/><line class="cls-5" x1="493.99" y1="75.09" x2="494.29" y2="48.57"/><line class="cls-5" x1="487.76" y1="42.69" x2="487.81" y2="81.14"/><line class="cls-5" x1="514.85" y1="75" x2="493.99" y2="75.09"/><line class="cls-5" x1="487.81" y1="81.14" x2="521.69" y2="81.36"/><line class="cls-5" x1="521.34" y1="42.44" x2="521.36" y2="26.91"/><line class="cls-5" x1="520.1" y1="27.05" x2="520.08" y2="42.59"/><line class="cls-5" x1="520.08" y1="42.59" x2="521.34" y2="42.44"/><line class="cls-5" x1="489.02" y1="42.55" x2="489.04" y2="27.01"/><line class="cls-5" x1="489.04" y1="27.01" x2="487.78" y2="27.15"/><line class="cls-5" x1="487.78" y1="27.15" x2="487.76" y2="42.69"/><line class="cls-5" x1="487.76" y1="42.69" x2="489.02" y2="42.55"/><line class="cls-5" x1="627.62" y1="457.84" x2="598.13" y2="458.13"/><line class="cls-5" x1="598.13" y1="458.13" x2="598.06" y2="464.25"/><line class="cls-5" x1="598.06" y1="464.25" x2="621.75" y2="464.36"/><line class="cls-5" x1="626.83" y1="529.21" x2="626.81" y2="544.75"/><line class="cls-5" x1="626.81" y1="544.75" x2="628.07" y2="544.61"/><line class="cls-5" x1="628.07" y1="544.61" x2="628.09" y2="529.07"/><line class="cls-5" x1="628.09" y1="529.07" x2="626.83" y2="529.21"/><line class="cls-5" x1="483.18" y1="284.58" x2="483.04" y2="283.32"/><line class="cls-5" x1="90.38" y1="11.74" x2="576.61" y2="11.22"/><line class="cls-5" x1="602.8" y1="11.03" x2="927.41" y2="11.05"/><line class="cls-5" x1="927.22" y1="0.39" x2="786.18" y2="0.38"/><line class="cls-5" x1="759.97" y1="0.55" x2="420.13" y2="0.99"/><line class="cls-5" x1="393.63" y1="0.69" x2="90.19" y2="1.08"/><line class="cls-5" x1="608.25" y1="0.74" x2="613.6" y2="0.64"/><line class="cls-5" x1="372.75" y1="0.78" x2="378.09" y2="0.67"/><line class="cls-5" x1="515.84" y1="0.81" x2="521.18" y2="0.7"/><line class="cls-5" x1="488.07" y1="0.65" x2="492.93" y2="0.87"/><line class="cls-5" x1="483.19" y1="311.57" x2="482.95" y2="304.97"/><line class="cls-5" x1="482.82" y1="344.19" x2="482.59" y2="337.59"/><line class="cls-5" x1="500.52" y1="107.95" x2="517.31" y2="107.82"/><line class="cls-5" x1="493.45" y1="108.49" x2="493.22" y2="88.4"/><line class="cls-5" x1="493.45" y1="108.49" x2="499.57" y2="108.57"/><line class="cls-5" x1="503.3" y1="98.73" x2="503.22" y2="91.35"/><line class="cls-5" x1="517" y1="107.34" x2="503.38" y2="106.1"/><line class="cls-5" x1="503.3" y1="98.73" x2="503.38" y2="106.1"/><line class="cls-5" x1="516.73" y1="89.3" x2="503.22" y2="91.35"/><line class="cls-5" x1="517" y1="107.34" x2="503.54" y2="105.31"/><line class="cls-5" x1="517.05" y1="89.78" x2="503.53" y2="91.83"/><line class="cls-5" x1="500.43" y1="89.12" x2="516.73" y2="89.3"/><line class="cls-5" x1="493.22" y1="88.4" x2="499.34" y2="88.48"/><path class="cls-5" d="M528.56,107.48c.87-6,.44-11.77.06-17.57" transform="translate(-28.35)"/><path class="cls-5" d="M545.35,107.34c4.08.06,7-3.85,7.16-8.7s-3-8.83-7.12-8.86" transform="translate(-28.35)"/><path class="cls-5" d="M527.92,108.57a2.09,2.09,0,0,0,1.12-1.4" transform="translate(-28.35)"/><path class="cls-5" d="M545.66,107.82c4.08.05,7.43-4.16,7.64-9s-3.35-9.3-7.91-9" transform="translate(-28.35)"/><path class="cls-5" d="M528.62,89.91c.16-.79-.62-1-1.41-1.12" transform="translate(-28.35)"/><path class="cls-5" d="M525.36,99.43c.47-.31.95-.62.64-1.09a.78.78,0,0,0-.62-1c-.47.31-1,.62-.64,1.09-.16.79.14,1.26.62,1" transform="translate(-28.35)"/><line class="cls-5" x1="441.74" y1="34.18" x2="441.54" y2="50.49"/><line class="cls-5" x1="442.44" y1="26.98" x2="422.35" y2="27.21"/><line class="cls-5" x1="442.44" y1="26.98" x2="442.38" y2="33.09"/><line class="cls-5" x1="432.12" y1="37.05" x2="424.75" y2="37.13"/><line class="cls-5" x1="441.54" y1="50.49" x2="439.5" y2="36.99"/><line class="cls-5" x1="432.12" y1="37.05" x2="439.5" y2="36.99"/><line class="cls-5" x1="423.03" y1="51.07" x2="424.75" y2="37.13"/><line class="cls-5" x1="441.07" y1="50.8" x2="439.03" y2="37.3"/><line class="cls-5" x1="423.5" y1="50.76" x2="425.53" y2="37.3"/><line class="cls-5" x1="422.89" y1="34.28" x2="423.03" y2="51.07"/><line class="cls-5" x1="422.35" y1="27.21" x2="422.28" y2="33.34"/><path class="cls-5" d="M451.72,34c6,.86,11.77.45,17.58,0" transform="translate(-28.35)"/><path class="cls-5" d="M451.85,50.76c-.05,4.08,4.16,7.43,8.7,7.16,4.87.2,8.82-3.05,8.87-7.12" transform="translate(-28.35)"/><path class="cls-5" d="M469.3,34a2,2,0,0,0,1.12-1.4" transform="translate(-28.35)"/><path class="cls-5" d="M451.38,51.07c0,4.07,4.15,7.43,9,7.63s9.28-3.35,9-7.9" transform="translate(-28.35)"/><path class="cls-5" d="M450.63,33.34c-.16.79.61.94,1.4,1.11" transform="translate(-28.35)"/><line class="cls-5" x1="442.26" y1="0.76" x2="422.18" y2="1.01"/><line class="cls-5" x1="82.77" y1="61.24" x2="90.14" y2="61.16"/><line class="cls-5" x1="77.25" y1="64.15" x2="79.77" y2="63.87"/><line class="cls-5" x1="79.77" y1="63.87" x2="79.94" y2="61.05"/><line class="cls-5" x1="79.94" y1="61.05" x2="82.77" y2="61.24"/><line class="cls-5" x1="83" y1="166.36" x2="90.39" y2="166.27"/><line class="cls-5" x1="77.39" y1="163.94" x2="79.91" y2="163.66"/><line class="cls-5" x1="79.91" y1="163.66" x2="80.18" y2="166.16"/><line class="cls-5" x1="80.18" y1="166.16" x2="83" y2="166.36"/><line class="cls-5" x1="71.86" y1="194.47" x2="71.74" y2="163.56"/><line class="cls-5" x1="66.78" y1="1.08" x2="67.05" y2="64.05"/><line class="cls-5" x1="90.65" y1="184.33" x2="90.39" y2="166.27"/><line class="cls-5" x1="90.14" y1="61.16" x2="90.37" y2="27.27"/><line class="cls-5" x1="90.48" y1="17.07" x2="80.28" y2="16.96"/><line class="cls-5" x1="80.28" y1="16.96" x2="72.12" y2="16.88"/><line class="cls-5" x1="72.12" y1="16.88" x2="68.04" y2="16.82"/><line class="cls-5" x1="68.04" y1="16.82" x2="66.78" y2="16.96"/><line class="cls-5" x1="67.19" y1="163.83" x2="67.05" y2="64.05"/><line class="cls-5" x1="90.39" y1="166.27" x2="90.14" y2="61.16"/><line class="cls-5" x1="83" y1="166.36" x2="83.19" y2="163.53"/><line class="cls-5" x1="83.19" y1="163.53" x2="82.4" y2="163.37"/><line class="cls-5" x1="82.4" y1="163.37" x2="81.96" y2="161.64"/><line class="cls-5" x1="81.96" y1="161.64" x2="79.92" y2="161.62"/><line class="cls-5" x1="79.92" y1="161.62" x2="80.18" y2="166.16"/><line class="cls-5" x1="79.83" y1="113.77" x2="79.92" y2="161.62"/><line class="cls-5" x1="85.28" y1="159.49" x2="85.12" y2="117.73"/><line class="cls-5" x1="81.98" y1="159.6" x2="82.29" y2="117.56"/><line class="cls-5" x1="85.28" y1="159.49" x2="85.12" y2="117.73"/><line class="cls-5" x1="83.72" y1="159.15" x2="83.87" y2="117.89"/><line class="cls-5" x1="85.24" y1="163.55" x2="85.28" y2="159.49"/><line class="cls-5" x1="85.28" y1="159.49" x2="81.98" y2="159.6"/><line class="cls-5" x1="81.98" y1="159.6" x2="82.4" y2="163.37"/><line class="cls-5" x1="82.4" y1="163.37" x2="85.24" y2="163.55"/><line class="cls-5" x1="81.87" y1="113.78" x2="82.29" y2="117.56"/><line class="cls-5" x1="82.29" y1="117.56" x2="85.12" y2="117.73"/><line class="cls-5" x1="85.12" y1="117.73" x2="85.16" y2="113.67"/><line class="cls-5" x1="85.16" y1="113.67" x2="81.87" y2="113.78"/><line class="cls-5" x1="80.04" y1="164.9" x2="82.86" y2="165.1"/><line class="cls-5" x1="79.94" y1="61.05" x2="80.21" y2="65.59"/><line class="cls-5" x1="80.21" y1="65.59" x2="82.24" y2="65.62"/><line class="cls-5" x1="82.24" y1="65.62" x2="82.1" y2="64.36"/><line class="cls-5" x1="82.1" y1="64.36" x2="83.36" y2="64.22"/><line class="cls-5" x1="83.36" y1="64.22" x2="82.77" y2="61.24"/><line class="cls-5" x1="80.21" y1="65.59" x2="79.83" y2="113.77"/><line class="cls-5" x1="85.21" y1="109.59" x2="85.35" y2="68.32"/><line class="cls-5" x1="81.91" y1="109.71" x2="82.07" y2="68.44"/><line class="cls-5" x1="85.21" y1="109.59" x2="85.35" y2="68.32"/><line class="cls-5" x1="83.48" y1="110.04" x2="83.79" y2="68"/><line class="cls-5" x1="85.16" y1="113.67" x2="85.21" y2="109.59"/><line class="cls-5" x1="85.21" y1="109.59" x2="81.91" y2="109.71"/><line class="cls-5" x1="81.91" y1="109.71" x2="81.87" y2="113.78"/><line class="cls-5" x1="81.87" y1="113.78" x2="85.16" y2="113.67"/><line class="cls-5" x1="82.1" y1="64.36" x2="82.07" y2="68.44"/><line class="cls-5" x1="82.07" y1="68.44" x2="85.35" y2="68.32"/><line class="cls-5" x1="85.35" y1="68.32" x2="85.4" y2="64.24"/><line class="cls-5" x1="85.4" y1="64.24" x2="82.1" y2="64.36"/><line class="cls-5" x1="80.09" y1="62.31" x2="82.91" y2="62.48"/><line class="cls-5" x1="80.18" y1="166.16" x2="83" y2="166.36"/><line class="cls-5" x1="79.91" y1="163.66" x2="80.18" y2="166.16"/><line class="cls-5" x1="79.94" y1="61.05" x2="82.77" y2="61.24"/><line class="cls-5" x1="79.77" y1="63.87" x2="79.94" y2="61.05"/><line class="cls-5" x1="67.31" y1="194.72" x2="67.19" y2="163.83"/><line class="cls-5" x1="71.86" y1="194.47" x2="71.74" y2="163.56"/><line class="cls-5" x1="71.74" y1="163.56" x2="67.19" y2="163.83"/><line class="cls-5" x1="67.19" y1="163.83" x2="67.19" y2="163.83"/><line class="cls-5" x1="67.05" y1="64.05" x2="67.19" y2="163.83"/><line class="cls-5" x1="67.05" y1="64.05" x2="77.25" y2="64.15"/><line class="cls-5" x1="77.25" y1="64.15" x2="77.39" y2="163.94"/><line class="cls-5" x1="77.39" y1="163.94" x2="67.19" y2="163.83"/><line class="cls-5" x1="67.19" y1="163.83" x2="67.19" y2="163.83"/><line class="cls-5" x1="934.57" y1="44.87" x2="927.19" y2="44.95"/><line class="cls-5" x1="940.19" y1="47.28" x2="937.67" y2="47.56"/><line class="cls-5" x1="937.67" y1="47.56" x2="937.87" y2="44.75"/><line class="cls-5" x1="937.87" y1="44.75" x2="934.57" y2="44.87"/><line class="cls-5" x1="934.81" y1="149.98" x2="927.44" y2="150.06"/><line class="cls-5" x1="940.65" y1="147.54" x2="937.81" y2="147.35"/><line class="cls-5" x1="937.81" y1="147.35" x2="937.64" y2="150.17"/><line class="cls-5" x1="937.64" y1="150.17" x2="934.81" y2="149.98"/><line class="cls-5" x1="935.11" y1="390.03" x2="927.74" y2="390.11"/><line class="cls-5" x1="940.72" y1="392.45" x2="938.22" y2="392.74"/><line class="cls-5" x1="938.22" y1="392.74" x2="937.94" y2="390.22"/><line class="cls-5" x1="937.94" y1="390.22" x2="935.11" y2="390.03"/><line class="cls-5" x1="934.88" y1="495.47" x2="927.98" y2="495.23"/><line class="cls-5" x1="940.4" y1="492.54" x2="938.36" y2="492.53"/><line class="cls-5" x1="938.36" y1="492.53" x2="938.16" y2="495.35"/><line class="cls-5" x1="938.16" y1="495.35" x2="934.88" y2="495.47"/><line class="cls-5" x1="934.86" y1="327.43" x2="927.49" y2="327.51"/><line class="cls-5" x1="945.73" y1="324.43" x2="938.04" y2="324.01"/><line class="cls-5" x1="950.28" y1="324.15" x2="945.73" y2="324.43"/><line class="cls-5" x1="951.07" y1="324.31" x2="950.28" y2="324.15"/><line class="cls-5" x1="938.04" y1="324.01" x2="938.17" y2="327.31"/><line class="cls-5" x1="938.17" y1="327.31" x2="934.86" y2="327.43"/><line class="cls-5" x1="934.58" y1="212.89" x2="927.68" y2="212.66"/><line class="cls-5" x1="945.84" y1="215.7" x2="938" y2="216.06"/><line class="cls-5" x1="949.92" y1="215.73" x2="945.84" y2="215.7"/><line class="cls-5" x1="950.71" y1="215.9" x2="949.92" y2="215.73"/><line class="cls-5" x1="938" y1="216.06" x2="937.87" y2="212.78"/><line class="cls-5" x1="937.87" y1="212.78" x2="934.58" y2="212.89"/><line class="cls-5" x1="951.2" y1="555.03" x2="951.06" y2="492.35"/><line class="cls-5" x1="950.92" y1="392.56" x2="951.07" y2="324.31"/><line class="cls-5" x1="950.71" y1="215.9" x2="950.85" y2="147.65"/><line class="cls-5" x1="951.17" y1="47.56" x2="950.9" y2="0.41"/><line class="cls-5" x1="927.21" y1="15.91" x2="937.4" y2="16.03"/><line class="cls-5" x1="937.4" y1="16.03" x2="945.56" y2="16.12"/><line class="cls-5" x1="945.56" y1="16.12" x2="949.65" y2="16.16"/><line class="cls-5" x1="949.65" y1="16.16" x2="950.9" y2="16.03"/><line class="cls-5" x1="927.41" y1="26.58" x2="927.19" y2="44.95"/><line class="cls-5" x1="927.44" y1="150.06" x2="927.68" y2="212.66"/><line class="cls-5" x1="927.49" y1="327.51" x2="927.74" y2="390.11"/><line class="cls-5" x1="927.98" y1="495.23" x2="927.73" y2="544.65"/><line class="cls-5" x1="950.85" y1="147.65" x2="951.17" y2="47.56"/><line class="cls-5" x1="927.44" y1="150.06" x2="927.19" y2="44.95"/><line class="cls-5" x1="934.81" y1="149.98" x2="934.7" y2="146.69"/><line class="cls-5" x1="934.7" y1="146.69" x2="935.48" y2="146.86"/><line class="cls-5" x1="935.48" y1="146.86" x2="935.8" y2="145.3"/><line class="cls-5" x1="935.8" y1="145.3" x2="937.84" y2="145.32"/><line class="cls-5" x1="937.84" y1="145.32" x2="937.64" y2="150.17"/><line class="cls-5" x1="937.75" y1="97.45" x2="937.84" y2="145.32"/><line class="cls-5" x1="932.22" y1="142.89" x2="932.84" y2="101.32"/><line class="cls-5" x1="935.52" y1="142.78" x2="935.67" y2="101.51"/><line class="cls-5" x1="932.22" y1="142.89" x2="932.84" y2="101.32"/><line class="cls-5" x1="934.26" y1="142.92" x2="934.1" y2="101.18"/><line class="cls-5" x1="932.65" y1="146.67" x2="932.22" y2="142.89"/><line class="cls-5" x1="932.22" y1="142.89" x2="935.52" y2="142.78"/><line class="cls-5" x1="935.52" y1="142.78" x2="935.48" y2="146.86"/><line class="cls-5" x1="935.48" y1="146.86" x2="932.65" y2="146.67"/><line class="cls-5" x1="935.71" y1="97.43" x2="935.67" y2="101.51"/><line class="cls-5" x1="935.67" y1="101.51" x2="932.84" y2="101.32"/><line class="cls-5" x1="932.84" y1="101.32" x2="932.42" y2="97.55"/><line class="cls-5" x1="932.42" y1="97.55" x2="935.71" y2="97.43"/><line class="cls-5" x1="937.96" y1="148.61" x2="934.66" y2="148.72"/><line class="cls-5" x1="937.87" y1="44.75" x2="937.65" y2="49.61"/><line class="cls-5" x1="937.65" y1="49.61" x2="935.62" y2="49.58"/><line class="cls-5" x1="935.62" y1="49.58" x2="935.64" y2="47.55"/><line class="cls-5" x1="935.64" y1="47.55" x2="934.39" y2="47.69"/><line class="cls-5" x1="934.39" y1="47.69" x2="934.57" y2="44.87"/><line class="cls-5" x1="937.65" y1="49.61" x2="937.75" y2="97.45"/><line class="cls-5" x1="932.46" y1="93.47" x2="932.29" y2="51.74"/><line class="cls-5" x1="935.76" y1="93.35" x2="935.6" y2="51.62"/><line class="cls-5" x1="932.46" y1="93.47" x2="932.29" y2="51.74"/><line class="cls-5" x1="934.19" y1="93.02" x2="934.34" y2="51.77"/><line class="cls-5" x1="932.42" y1="97.55" x2="932.46" y2="93.47"/><line class="cls-5" x1="932.46" y1="93.47" x2="935.76" y2="93.35"/><line class="cls-5" x1="935.76" y1="93.35" x2="935.71" y2="97.43"/><line class="cls-5" x1="935.71" y1="97.43" x2="932.42" y2="97.55"/><line class="cls-5" x1="935.64" y1="47.55" x2="935.6" y2="51.62"/><line class="cls-5" x1="935.6" y1="51.62" x2="932.29" y2="51.74"/><line class="cls-5" x1="932.29" y1="51.74" x2="932.35" y2="47.66"/><line class="cls-5" x1="932.35" y1="47.66" x2="935.64" y2="47.55"/><line class="cls-5" x1="938.02" y1="46.01" x2="934.71" y2="46.13"/><line class="cls-5" x1="937.64" y1="150.17" x2="934.81" y2="149.98"/><line class="cls-5" x1="937.81" y1="147.35" x2="937.64" y2="150.17"/><line class="cls-5" x1="937.87" y1="44.75" x2="934.57" y2="44.87"/><line class="cls-5" x1="937.67" y1="47.56" x2="937.87" y2="44.75"/><line class="cls-5" x1="951.06" y1="492.35" x2="950.92" y2="392.56"/><line class="cls-5" x1="927.98" y1="495.23" x2="927.74" y2="390.11"/><line class="cls-5" x1="934.88" y1="495.47" x2="934.75" y2="492.17"/><line class="cls-5" x1="934.75" y1="492.17" x2="936.01" y2="492.03"/><line class="cls-5" x1="936.01" y1="492.03" x2="936.34" y2="490.46"/><line class="cls-5" x1="936.34" y1="490.46" x2="938.39" y2="490.48"/><line class="cls-5" x1="938.39" y1="490.48" x2="938.16" y2="495.35"/><line class="cls-5" x1="938.29" y1="442.64" x2="938.39" y2="490.48"/><line class="cls-5" x1="932.76" y1="488.07" x2="932.6" y2="446.34"/><line class="cls-5" x1="936.06" y1="487.94" x2="935.89" y2="446.21"/><line class="cls-5" x1="932.76" y1="488.07" x2="932.6" y2="446.34"/><line class="cls-5" x1="934.33" y1="488.41" x2="934.64" y2="446.37"/><line class="cls-5" x1="932.72" y1="492.14" x2="932.76" y2="488.07"/><line class="cls-5" x1="932.76" y1="488.07" x2="936.06" y2="487.94"/><line class="cls-5" x1="936.06" y1="487.94" x2="936.01" y2="492.03"/><line class="cls-5" x1="936.01" y1="492.03" x2="932.72" y2="492.14"/><line class="cls-5" x1="936.25" y1="442.61" x2="935.89" y2="446.21"/><line class="cls-5" x1="935.89" y1="446.21" x2="932.6" y2="446.34"/><line class="cls-5" x1="932.6" y1="446.34" x2="932.95" y2="442.73"/><line class="cls-5" x1="932.95" y1="442.73" x2="936.25" y2="442.61"/><line class="cls-5" x1="938.02" y1="494.09" x2="935.2" y2="493.91"/><line class="cls-5" x1="937.94" y1="390.22" x2="937.88" y2="394.3"/><line class="cls-5" x1="937.88" y1="394.3" x2="935.84" y2="394.29"/><line class="cls-5" x1="935.84" y1="394.29" x2="935.7" y2="393.03"/><line class="cls-5" x1="935.7" y1="393.03" x2="934.92" y2="392.86"/><line class="cls-5" x1="934.92" y1="392.86" x2="935.11" y2="390.03"/><line class="cls-5" x1="937.88" y1="394.3" x2="938.29" y2="442.64"/><line class="cls-5" x1="933.01" y1="438.65" x2="932.84" y2="396.92"/><line class="cls-5" x1="935.81" y1="438.84" x2="936.13" y2="396.8"/><line class="cls-5" x1="933.01" y1="438.65" x2="932.84" y2="396.92"/><line class="cls-5" x1="934.25" y1="438.52" x2="934.09" y2="396.77"/><line class="cls-5" x1="932.95" y1="442.73" x2="933.01" y2="438.65"/><line class="cls-5" x1="933.01" y1="438.65" x2="935.81" y2="438.84"/><line class="cls-5" x1="935.81" y1="438.84" x2="936.25" y2="442.61"/><line class="cls-5" x1="936.25" y1="442.61" x2="932.95" y2="442.73"/><line class="cls-5" x1="935.7" y1="393.03" x2="936.13" y2="396.8"/><line class="cls-5" x1="936.13" y1="396.8" x2="932.84" y2="396.92"/><line class="cls-5" x1="932.84" y1="396.92" x2="932.88" y2="392.84"/><line class="cls-5" x1="932.88" y1="392.84" x2="935.7" y2="393.03"/><line class="cls-5" x1="937.77" y1="391.01" x2="934.94" y2="390.82"/><line class="cls-5" x1="938.16" y1="495.35" x2="934.88" y2="495.47"/><line class="cls-5" x1="938.36" y1="492.53" x2="938.16" y2="495.35"/><line class="cls-5" x1="937.94" y1="390.22" x2="935.11" y2="390.03"/><line class="cls-5" x1="938.22" y1="392.74" x2="937.94" y2="390.22"/><line class="cls-5" x1="951.06" y1="492.35" x2="950.92" y2="392.56"/><line class="cls-5" x1="951.06" y1="492.35" x2="940.4" y2="492.54"/><line class="cls-5" x1="940.4" y1="492.54" x2="940.72" y2="392.45"/><line class="cls-5" x1="940.72" y1="392.45" x2="950.92" y2="392.56"/><line class="cls-5" x1="950.92" y1="392.56" x2="950.92" y2="392.56"/><line class="cls-5" x1="950.85" y1="147.65" x2="951.17" y2="47.56"/><line class="cls-5" x1="950.85" y1="147.65" x2="940.65" y2="147.54"/><line class="cls-5" x1="940.65" y1="147.54" x2="940.19" y2="47.28"/><line class="cls-5" x1="940.19" y1="47.28" x2="951.17" y2="47.56"/><line class="cls-5" x1="951.17" y1="47.56" x2="951.17" y2="47.56"/><line class="cls-5" x1="937.83" y1="216.85" x2="938.15" y2="286.84"/><line class="cls-5" x1="938.15" y1="286.84" x2="934.86" y2="286.95"/><line class="cls-5" x1="934.86" y1="286.95" x2="934.53" y2="216.98"/><line class="cls-5" x1="934.53" y1="216.98" x2="937.83" y2="216.85"/><line class="cls-5" x1="935.79" y1="216.82" x2="935.63" y2="287.13"/><line class="cls-5" x1="934.72" y1="214.15" x2="938.01" y2="214.04"/><line class="cls-5" x1="934.72" y1="326.17" x2="938.02" y2="326.05"/><line class="cls-5" x1="937.87" y1="212.78" x2="937.83" y2="216.85"/><line class="cls-5" x1="937.83" y1="216.85" x2="934.53" y2="216.98"/><line class="cls-5" x1="934.53" y1="216.98" x2="934.58" y2="212.89"/><line class="cls-5" x1="934.58" y1="212.89" x2="937.87" y2="212.78"/><line class="cls-5" x1="937.78" y1="290.44" x2="937.01" y2="290.27"/><line class="cls-5" x1="937.01" y1="290.27" x2="937.17" y2="289.49"/><line class="cls-5" x1="937.17" y1="289.49" x2="934.67" y2="289.78"/><line class="cls-5" x1="934.67" y1="289.78" x2="934.86" y2="286.95"/><line class="cls-5" x1="934.86" y1="286.95" x2="938.15" y2="286.84"/><line class="cls-5" x1="938.15" y1="286.84" x2="937.78" y2="290.44"/><line class="cls-5" x1="934.86" y1="327.43" x2="934.75" y2="324.14"/><line class="cls-5" x1="934.75" y1="324.14" x2="937.26" y2="323.84"/><line class="cls-5" x1="937.26" y1="323.84" x2="936.95" y2="323.36"/><line class="cls-5" x1="936.95" y1="323.36" x2="938.2" y2="323.23"/><line class="cls-5" x1="938.2" y1="323.23" x2="938.17" y2="327.31"/><line class="cls-5" x1="938.17" y1="327.31" x2="934.86" y2="327.43"/><line class="cls-5" x1="934.59" y1="253.38" x2="934.78" y2="250.56"/><line class="cls-5" x1="934.78" y1="250.56" x2="938.09" y2="250.44"/><line class="cls-5" x1="938.09" y1="250.44" x2="938.2" y2="253.73"/><line class="cls-5" x1="938.2" y1="253.73" x2="934.59" y2="253.38"/><line class="cls-5" x1="934.75" y1="324.14" x2="905.3" y2="306.86"/><line class="cls-5" x1="905.3" y1="306.86" x2="906.09" y2="304.99"/><line class="cls-5" x1="906.09" y1="304.99" x2="936.03" y2="321.95"/><line class="cls-5" x1="936.03" y1="321.95" x2="934.75" y2="324.14"/><path class="cls-5" d="M934.44,305A34.38,34.38,0,0,1,963,289.77" transform="translate(-28.35)"/><line class="cls-5" x1="937.87" y1="212.78" x2="934.58" y2="212.89"/><line class="cls-5" x1="938" y1="216.06" x2="937.87" y2="212.78"/><line class="cls-5" x1="938.17" y1="327.31" x2="934.86" y2="327.43"/><line class="cls-5" x1="938.04" y1="324.01" x2="938.17" y2="327.31"/><line class="cls-5" x1="1018.94" y1="330.09" x2="1019.03" y2="209.91"/><line class="cls-5" x1="1013.19" y1="324.38" x2="1013.31" y2="215.66"/><line class="cls-5" x1="1013.97" y1="324.54" x2="1013.71" y2="320"/><line class="cls-5" x1="1013.71" y1="320" x2="1015.75" y2="320.03"/><line class="cls-5" x1="1015.75" y1="320.03" x2="1015.92" y2="319.24"/><line class="cls-5" x1="1015.92" y1="319.24" x2="1016.39" y2="318.93"/><line class="cls-5" x1="1016.39" y1="318.93" x2="1016.31" y2="327.09"/><line class="cls-5" x1="1016.32" y1="269.04" x2="1016.39" y2="318.93"/><line class="cls-5" x1="1013.73" y1="317.96" x2="1013.79" y2="271.36"/><line class="cls-5" x1="1015.77" y1="317.98" x2="1015.83" y2="271.39"/><line class="cls-5" x1="1013.73" y1="317.96" x2="1013.79" y2="271.36"/><line class="cls-5" x1="1014.99" y1="317.82" x2="1014.57" y2="271.53"/><line class="cls-5" x1="1013.71" y1="320" x2="1013.73" y2="317.96"/><line class="cls-5" x1="1013.73" y1="317.96" x2="1015.77" y2="317.98"/><line class="cls-5" x1="1015.77" y1="317.98" x2="1015.75" y2="320.03"/><line class="cls-5" x1="1015.75" y1="320.03" x2="1013.71" y2="320"/><line class="cls-5" x1="1015.85" y1="269.34" x2="1015.83" y2="271.39"/><line class="cls-5" x1="1015.83" y1="271.39" x2="1013.79" y2="271.36"/><line class="cls-5" x1="1013.79" y1="271.36" x2="1013.81" y2="269.32"/><line class="cls-5" x1="1013.81" y1="269.32" x2="1015.85" y2="269.34"/><line class="cls-5" x1="1016.65" y1="323.48" x2="1013.84" y2="323.3"/><line class="cls-5" x1="1016.32" y1="213.03" x2="1016.56" y2="219.62"/><line class="cls-5" x1="1016.56" y1="219.62" x2="1015.78" y2="219.45"/><line class="cls-5" x1="1015.78" y1="219.45" x2="1015.94" y2="218.67"/><line class="cls-5" x1="1015.94" y1="218.67" x2="1013.9" y2="218.65"/><line class="cls-5" x1="1013.9" y1="218.65" x2="1013.79" y2="215.35"/><line class="cls-5" x1="1016.56" y1="219.62" x2="1016.32" y2="269.04"/><line class="cls-5" x1="1013.83" y1="267.28" x2="1013.88" y2="220.69"/><line class="cls-5" x1="1015.86" y1="267.31" x2="1015.92" y2="220.71"/><line class="cls-5" x1="1013.83" y1="267.28" x2="1013.88" y2="220.69"/><line class="cls-5" x1="1014.62" y1="267.44" x2="1014.66" y2="220.86"/><line class="cls-5" x1="1013.81" y1="269.32" x2="1013.83" y2="267.28"/><line class="cls-5" x1="1013.83" y1="267.28" x2="1015.86" y2="267.31"/><line class="cls-5" x1="1015.86" y1="267.31" x2="1015.85" y2="269.34"/><line class="cls-5" x1="1015.85" y1="269.34" x2="1013.81" y2="269.32"/><line class="cls-5" x1="1015.94" y1="218.67" x2="1015.92" y2="220.71"/><line class="cls-5" x1="1015.92" y1="220.71" x2="1013.88" y2="220.69"/><line class="cls-5" x1="1013.88" y1="220.69" x2="1013.9" y2="218.65"/><line class="cls-5" x1="1013.9" y1="218.65" x2="1015.94" y2="218.67"/><line class="cls-5" x1="1016.3" y1="215.05" x2="1013.79" y2="215.35"/><line class="cls-5" x1="950.87" y1="215.11" x2="950.71" y2="215.9"/><line class="cls-5" x1="951.08" y1="210.26" x2="950.89" y2="213.08"/><line class="cls-5" x1="950.89" y1="213.08" x2="950.87" y2="215.11"/><line class="cls-5" x1="1019.03" y1="209.91" x2="951.08" y2="210.26"/><line class="cls-5" x1="1013.31" y1="215.66" x2="950.71" y2="215.9"/><line class="cls-5" x1="1013.79" y1="215.35" x2="1009.24" y2="215.61"/><line class="cls-5" x1="1009.24" y1="215.61" x2="1008.94" y2="213.1"/><line class="cls-5" x1="1008.94" y1="213.1" x2="1008.47" y2="213.4"/><line class="cls-5" x1="1008.47" y1="213.4" x2="1008.17" y2="212.94"/><line class="cls-5" x1="1008.17" y1="212.94" x2="1016.32" y2="213.03"/><line class="cls-5" x1="981.65" y1="212.64" x2="1008.17" y2="212.94"/><line class="cls-5" x1="1007.19" y1="215.59" x2="983.97" y2="215.17"/><line class="cls-5" x1="1006.91" y1="213.08" x2="984" y2="213.14"/><line class="cls-5" x1="1007.19" y1="215.59" x2="983.97" y2="215.17"/><line class="cls-5" x1="1007.05" y1="214.33" x2="984.15" y2="214.4"/><line class="cls-5" x1="1009.24" y1="215.61" x2="1007.19" y2="215.59"/><line class="cls-5" x1="1007.19" y1="215.59" x2="1006.91" y2="213.08"/><line class="cls-5" x1="1006.91" y1="213.08" x2="1008.94" y2="213.1"/><line class="cls-5" x1="1008.94" y1="213.1" x2="1009.24" y2="215.61"/><line class="cls-5" x1="981.48" y1="213.42" x2="984" y2="213.14"/><line class="cls-5" x1="984" y1="213.14" x2="983.97" y2="215.17"/><line class="cls-5" x1="983.97" y1="215.17" x2="981.46" y2="215.47"/><line class="cls-5" x1="981.46" y1="215.47" x2="981.48" y2="213.42"/><line class="cls-5" x1="1012.71" y1="212.67" x2="1012.53" y2="215.49"/><line class="cls-5" x1="950.89" y1="213.08" x2="955.44" y2="212.81"/><line class="cls-5" x1="955.44" y1="212.81" x2="954.97" y2="213.12"/><line class="cls-5" x1="954.97" y1="213.12" x2="954.18" y2="212.95"/><line class="cls-5" x1="954.18" y1="212.95" x2="954.16" y2="215"/><line class="cls-5" x1="954.16" y1="215" x2="950.87" y2="215.11"/><line class="cls-5" x1="955.44" y1="212.81" x2="981.65" y2="212.64"/><line class="cls-5" x1="979.43" y1="215.44" x2="956.52" y2="215.49"/><line class="cls-5" x1="979.45" y1="213.39" x2="956.23" y2="212.98"/><line class="cls-5" x1="979.43" y1="215.44" x2="956.52" y2="215.49"/><line class="cls-5" x1="979.28" y1="214.18" x2="956.37" y2="214.24"/><line class="cls-5" x1="981.46" y1="215.47" x2="979.43" y2="215.44"/><line class="cls-5" x1="979.43" y1="215.44" x2="979.45" y2="213.39"/><line class="cls-5" x1="979.45" y1="213.39" x2="981.48" y2="213.42"/><line class="cls-5" x1="981.48" y1="213.42" x2="981.46" y2="215.47"/><line class="cls-5" x1="954.18" y1="212.95" x2="956.23" y2="212.98"/><line class="cls-5" x1="956.23" y1="212.98" x2="956.52" y2="215.49"/><line class="cls-5" x1="956.52" y1="215.49" x2="954.16" y2="215"/><line class="cls-5" x1="954.16" y1="215" x2="954.18" y2="212.95"/><line class="cls-5" x1="950.89" y1="213.08" x2="950.87" y2="215.11"/><line class="cls-5" x1="951.38" y1="324.79" x2="951.07" y2="324.31"/><line class="cls-5" x1="951.16" y1="329.65" x2="950.88" y2="327.15"/><line class="cls-5" x1="950.88" y1="327.15" x2="951.38" y2="324.79"/><line class="cls-5" x1="1018.94" y1="330.09" x2="951.16" y2="329.65"/><line class="cls-5" x1="1013.19" y1="324.38" x2="951.07" y2="324.31"/><line class="cls-5" x1="1013.97" y1="324.54" x2="1009.43" y2="324.81"/><line class="cls-5" x1="1009.43" y1="324.81" x2="1009.4" y2="326.85"/><line class="cls-5" x1="1009.4" y1="326.85" x2="1008.62" y2="326.69"/><line class="cls-5" x1="1008.62" y1="326.69" x2="1008.45" y2="327.46"/><line class="cls-5" x1="1008.45" y1="327.46" x2="1016.31" y2="327.09"/><line class="cls-5" x1="981.95" y1="327.17" x2="1008.45" y2="327.46"/><line class="cls-5" x1="1007.39" y1="324.79" x2="983.69" y2="324.68"/><line class="cls-5" x1="1007.37" y1="326.84" x2="983.67" y2="326.73"/><line class="cls-5" x1="1007.39" y1="324.79" x2="983.69" y2="324.68"/><line class="cls-5" x1="1007.22" y1="325.58" x2="983.83" y2="325.94"/><line class="cls-5" x1="1009.43" y1="324.81" x2="1007.39" y2="324.79"/><line class="cls-5" x1="1007.39" y1="324.79" x2="1007.37" y2="326.84"/><line class="cls-5" x1="1007.37" y1="326.84" x2="1009.4" y2="326.85"/><line class="cls-5" x1="1009.4" y1="326.85" x2="1009.43" y2="324.81"/><line class="cls-5" x1="981.64" y1="326.7" x2="983.67" y2="326.73"/><line class="cls-5" x1="983.67" y1="326.73" x2="983.69" y2="324.68"/><line class="cls-5" x1="983.69" y1="324.68" x2="981.65" y2="324.66"/><line class="cls-5" x1="981.65" y1="324.66" x2="981.64" y2="326.7"/><line class="cls-5" x1="1012.52" y1="327.52" x2="1012.71" y2="324.69"/><line class="cls-5" x1="950.88" y1="327.15" x2="954.94" y2="327.19"/><line class="cls-5" x1="954.94" y1="327.19" x2="955.42" y2="326.88"/><line class="cls-5" x1="955.42" y1="326.88" x2="954.16" y2="327.02"/><line class="cls-5" x1="954.16" y1="327.02" x2="954.19" y2="324.99"/><line class="cls-5" x1="954.19" y1="324.99" x2="951.38" y2="324.79"/><line class="cls-5" x1="954.94" y1="327.19" x2="981.95" y2="327.17"/><line class="cls-5" x1="979.62" y1="324.64" x2="956.24" y2="325.01"/><line class="cls-5" x1="979.59" y1="326.67" x2="956.21" y2="327.04"/><line class="cls-5" x1="979.62" y1="324.64" x2="956.24" y2="325.01"/><line class="cls-5" x1="979.76" y1="325.89" x2="956.06" y2="325.78"/><line class="cls-5" x1="981.65" y1="324.66" x2="979.62" y2="324.64"/><line class="cls-5" x1="979.62" y1="324.64" x2="979.59" y2="326.67"/><line class="cls-5" x1="979.59" y1="326.67" x2="981.64" y2="326.7"/><line class="cls-5" x1="981.64" y1="326.7" x2="981.65" y2="324.66"/><line class="cls-5" x1="954.16" y1="327.02" x2="956.21" y2="327.04"/><line class="cls-5" x1="956.21" y1="327.04" x2="956.24" y2="325.01"/><line class="cls-5" x1="956.24" y1="325.01" x2="954.19" y2="324.99"/><line class="cls-5" x1="954.19" y1="324.99" x2="954.16" y2="327.02"/><line class="cls-5" x1="950.88" y1="327.15" x2="951.38" y2="324.79"/><line class="cls-5" x1="90.38" y1="11.74" x2="80.19" y2="11.63"/><line class="cls-5" x1="80.19" y1="11.63" x2="72.03" y2="11.54"/><line class="cls-5" x1="72.03" y1="11.54" x2="67.94" y2="11.49"/><line class="cls-5" x1="67.94" y1="11.49" x2="66.7" y2="11.63"/><line class="cls-5" x1="927.41" y1="11.05" x2="937.61" y2="11.16"/><line class="cls-5" x1="937.61" y1="11.16" x2="945.47" y2="10.78"/><line class="cls-5" x1="945.47" y1="10.78" x2="949.54" y2="10.82"/><line class="cls-5" x1="949.54" y1="10.82" x2="950.8" y2="10.68"/><polygon class="cls-5" points="937.68 15.94 937.69 26.12 911.67 26.13 911.66 15.96 937.68 15.94"/><polygon class="cls-5" points="749.48 26.94 749.29 16.28 723.09 16.45 722.97 26.65 749.48 26.94"/><polygon class="cls-5" points="535.01 16.72 535.01 27.47 508.99 27.46 509 16.71 535.01 16.72"/><polygon class="cls-5" points="320.57 16.62 320.58 27.36 294.55 27.38 294.56 16.63 320.57 16.62"/><polygon class="cls-5" points="105.89 27.29 106.02 17.09 80.28 16.96 79.69 27.47 105.89 27.29"/><polygon class="cls-5" points="106.32 184.38 106.33 194.56 67.05 194.59 67.04 184.4 106.32 184.38"/><polygon class="cls-5" points="284.39 184.03 284.4 194.21 258.37 194.21 258.38 184.02 284.39 184.03"/><polygon class="cls-5" points="483.06 183.78 493.81 183.77 493.8 209.79 483.07 209.79 483.06 183.78"/><polygon class="cls-5" points="493.45 361.58 482.79 361.77 482.96 387.97 493.64 387.77 493.45 361.58"/><rect class="cls-5" x="640.02" y="349.29" width="26.02" height="10.18"/><polygon class="cls-5" points="666.1 190.84 666.1 201.02 640.09 201.03 640.07 190.85 666.1 190.84"/><polygon class="cls-5" points="666.06 544.81 666.06 555.55 640.04 555.57 640.04 544.82 666.06 544.81"/><polygon class="cls-5" points="927.68 199.17 937.87 199.29 937.7 173.08 927.5 172.97 927.68 199.17"/><rect class="cls-5" x="956.41" y="352.22" width="10.17" height="26.02" transform="translate(-29.08 1.92) rotate(-0.11)"/><polygon class="cls-5" points="938.47 555.01 928.3 555.03 928.24 529.01 938.44 529 938.47 555.01"/><rect class="cls-5" x="911.58" y="0.41" width="39.31" height="10.76"/><polygon class="cls-5" points="786.37 11.04 786.18 0.38 759.97 0.55 759.86 10.75 786.37 11.04"/><rect class="cls-5" x="577" y="0.87" width="26.02" height="10.75"/><polygon class="cls-5" points="420.03 11.19 419.83 0.51 393.63 0.69 393.81 11.37 420.03 11.19"/><polygon class="cls-5" points="304.97 1.16 304.98 11.91 278.96 11.91 278.96 1.17 304.97 1.16"/><rect class="cls-5" x="66.7" y="0.94" width="39.26" height="10.19"/><polygon class="cls-5" points="247.44 11.46 247.24 0.78 221.04 0.97 221.23 11.63 247.44 11.46"/><line class="cls-5" x1="493.4" y1="184.12" x2="524.77" y2="408.67"/><line class="cls-5" x1="524.94" y1="183.84" x2="493.72" y2="408.64"/><polygon class="cls-5" points="950.92 392.56 951.29 402.45 967.79 442.34 951.01 482.94 951.06 492.35 971.39 442.68 950.92 392.56"/><polygon class="cls-5" points="951.17 47.56 950.75 57.29 967.26 97.16 950.96 137.45 950.85 147.65 971.33 97.2 951.17 47.56"/><polygon class="cls-5" points="67.19 163.84 66.83 153.93 50.32 114.06 67.09 73.45 67.05 64.05 46.26 114.02 67.19 163.84"/></svg>