<svg id="_322" data-name="322" xmlns="http://www.w3.org/2000/svg" viewBox="0 0 373.77 518.98"><defs><style>.cls-1,.cls-6,.cls-7{fill:none;stroke-linecap:round;stroke-linejoin:round;stroke-width:0.5px;}.cls-1{stroke:#999;}.cls-2{isolation:isolate;font-size:12px;fill:#999;}.cls-2,.cls-4,.cls-5{font-family:PTSans-Regular, PT Sans;}.cls-3{letter-spacing:-0.01em;}.cls-4{font-size:20px;}.cls-5{font-size:24px;}.cls-6,.cls-7{stroke:#000;}.cls-7{stroke-dasharray:3 3;}</style></defs><title>2floor_322flat</title><line class="cls-1" x1="168.6" y1="10.8" x2="168.6" y2="2"/><polyline class="cls-1" points="172.2 5.3 168.7 1.8 165.2 5.3"/><text class="cls-2" transform="translate(178.03 10.2)"><tspan class="cls-3">у</tspan><tspan x="5.42" y="0">лица</tspan></text><text class="cls-4" transform="translate(46.4 474.63)">1.74</text><text class="cls-4" transform="translate(161.4 463.39)">4.39</text><text class="cls-4" transform="translate(49.17 354.72)">4.15</text><text class="cls-4" transform="translate(271.59 457.99)">3.05</text><text class="cls-4" transform="translate(262.24 135.99)">13.43</text><text class="cls-4" transform="translate(75.46 135.99)">13.48</text><text class="cls-5" transform="translate(80.74 208.85)">1Е</text><text class="cls-5" transform="translate(64.98 241.89)">40.24</text><text class="cls-5" transform="translate(61.82 176.31)">№322</text><polyline class="cls-6" points="53.18 250.25 53.18 153.06 134.25 153.06 134.25 250.25"/><line class="cls-6" x1="53.18" y1="185.52" x2="134.24" y2="185.52"/><line class="cls-6" x1="53.18" y1="250.25" x2="134.24" y2="250.25"/><line class="cls-6" x1="53.18" y1="217.98" x2="134.24" y2="217.98"/><polyline class="cls-6" points="200.61 147.21 200.61 314.28 207.62 314.28 207.62 371.82 200.61 371.82 200.61 404.53 362.13 404.53 362.13 371.82 362.13 314.28 362.13 199.2 362.13 147.21 362.13 103.99 215.51 103.99 207.62 103.99 207.62 147.21 200.61 147.21"/><line class="cls-6" x1="373.52" y1="518.73" x2="339.06" y2="518.73"/><line class="cls-6" x1="339.06" y1="518.73" x2="197.98" y2="518.73"/><polyline class="cls-6" points="124.38 404.53 196.23 404.53 196.23 153.06 196.23 103.99 8.43 103.99 8.43 323.04"/><polyline class="cls-6" points="262.24 409.2 124.38 409.2 109.78 409.2 109.78 507.05 262.24 507.05 262.24 409.2"/><polyline class="cls-6" points="328.54 461.78 328.54 409.2 266.91 409.2 266.91 507.05 339.06 507.05 362.13 507.05 362.13 461.78 328.54 461.78"/><polyline class="cls-6" points="9.6 323.04 9.6 404.53 124.38 404.53"/><polyline class="cls-6" points="105.11 507.05 105.11 409.2 41.73 409.2 41.73 438.12 9.6 438.12 9.6 507.05 105.11 507.05"/><line class="cls-6" x1="0.25" y1="73.61" x2="33.25" y2="73.61"/><polygon points="0.25 80.62 0.25 74.19 33.25 80.62 0.25 80.62"/><polygon class="cls-6" points="0.25 80.62 0.25 74.19 33.25 80.62 0.25 80.62"/><path d="M33.25,102l-33,.58V102Zm0,7v-7l-33,.58Z" transform="translate(0 -28.36)"/><path class="cls-6" d="M33.25,102l-33,.58V102Zm0,7v-7l-33,.58Z" transform="translate(0 -28.36)"/><path d="M183.38,102l32.13,7H183.38Zm32.13,0H183.38l32.13,7Z" transform="translate(0 -28.36)"/><path class="cls-6" d="M183.38,102l32.13,7H183.38Zm32.13,0H183.38l32.13,7Z" transform="translate(0 -28.36)"/><line class="cls-6" x1="0.25" y1="80.91" x2="30.92" y2="80.91"/><polygon points="0.25 80.91 0.25 80.62 30.92 80.91 0.25 80.91"/><polygon class="cls-6" points="0.25 80.91 0.25 80.62 30.92 80.91 0.25 80.91"/><path d="M30.92,109h0Zm0,.29V109H.25Z" transform="translate(0 -28.36)"/><path class="cls-6" d="M30.92,109h0Zm0,.29V109H.25Z" transform="translate(0 -28.36)"/><path d="M215.51,109.27H185.72V109Zm0,0Z" transform="translate(0 -28.36)"/><path class="cls-6" d="M215.51,109.27H185.72V109Zm0,0Z" transform="translate(0 -28.36)"/><polygon points="185.72 80.62 215.51 80.62 215.51 80.91 185.72 80.62"/><polygon class="cls-6" points="185.72 80.62 215.51 80.62 215.51 80.91 185.72 80.62"/><line class="cls-6" x1="0.25" y1="80.91" x2="30.92" y2="80.91"/><polygon points="0.25 83.25 0.25 81.2 30.92 83.25 0.25 83.25"/><polygon class="cls-6" points="0.25 83.25 0.25 81.2 30.92 83.25 0.25 83.25"/><path d="M30.92,109.27l-30.67.29v-.29Zm0,2.34v-2.34l-30.67.29Z" transform="translate(0 -28.36)"/><path class="cls-6" d="M30.92,109.27l-30.67.29v-.29Zm0,2.34v-2.34l-30.67.29Z" transform="translate(0 -28.36)"/><polyline class="cls-6" points="0.25 83.25 30.92 83.25 0.25 83.25"/><line class="cls-6" x1="0.25" y1="89.67" x2="30.92" y2="89.67"/><polygon points="0.25 89.67 0.25 83.54 30.92 89.67 0.25 89.67"/><polygon class="cls-6" points="0.25 89.67 0.25 83.54 30.92 89.67 0.25 89.67"/><path d="M30.92,111.61.25,111.9v-.29Zm0,6.42v-6.42L.25,111.9Z" transform="translate(0 -28.36)"/><path class="cls-6" d="M30.92,111.61.25,111.9v-.29Zm0,6.42v-6.42L.25,111.9Z" transform="translate(0 -28.36)"/><path d="M185.72,109.27h0Z" transform="translate(0 -28.36)"/><path class="cls-6" d="M185.72,109.27h0Z" transform="translate(0 -28.36)"/><path d="M185.72,109.27l29.79,2.34H185.72Zm29.79,0H185.72l29.79,2.34Z" transform="translate(0 -28.36)"/><path class="cls-6" d="M185.72,109.27l29.79,2.34H185.72Zm29.79,0H185.72l29.79,2.34Z" transform="translate(0 -28.36)"/><path d="M215.51,118H185.72v-6.42Zm0,0Z" transform="translate(0 -28.36)"/><path class="cls-6" d="M215.51,118H185.72v-6.42Zm0,0Z" transform="translate(0 -28.36)"/><polygon points="185.72 83.25 215.51 83.25 215.51 89.67 185.72 83.25"/><polygon class="cls-6" points="185.72 83.25 215.51 83.25 215.51 89.67 185.72 83.25"/><line class="cls-6" x1="0.25" y1="89.67" x2="0.25" y2="89.67"/><path d="M.25,118h0Z" transform="translate(0 -28.36)"/><path class="cls-6" d="M.25,118h0Z" transform="translate(0 -28.36)"/><path d="M9.6,132.35H.25V118Zm0,0Z" transform="translate(0 -28.36)"/><path class="cls-6" d="M9.6,132.35H.25V118Zm0,0Z" transform="translate(0 -28.36)"/><polygon points="0.25 89.67 9.6 89.67 9.6 103.99 0.25 89.67"/><polygon class="cls-6" points="0.25 89.67 9.6 89.67 9.6 103.99 0.25 89.67"/><path d="M9.6,118h0Z" transform="translate(0 -28.36)"/><path class="cls-6" d="M9.6,118h0Z" transform="translate(0 -28.36)"/><path d="M30.92,132.35H9.6V118Zm0,0Z" transform="translate(0 -28.36)"/><path class="cls-6" d="M30.92,132.35H9.6V118Zm0,0Z" transform="translate(0 -28.36)"/><polygon points="9.6 89.67 30.92 89.67 30.92 103.99 9.6 89.67"/><polygon class="cls-6" points="9.6 89.67 30.92 89.67 30.92 103.99 9.6 89.67"/><path d="M185.72,118h0Z" transform="translate(0 -28.36)"/><path class="cls-6" d="M185.72,118h0Z" transform="translate(0 -28.36)"/><path d="M185.72,118l29.79,14.32H185.72Zm29.79,0H185.72l29.79,14.32Z" transform="translate(0 -28.36)"/><path class="cls-6" d="M185.72,118l29.79,14.32H185.72Zm29.79,0H185.72l29.79,14.32Z" transform="translate(0 -28.36)"/><line class="cls-6" x1="30.92" y1="80.62" x2="0.25" y2="80.62"/><line class="cls-6" x1="215.51" y1="80.62" x2="185.72" y2="80.62"/><line class="cls-6" x1="30.92" y1="80.91" x2="0.25" y2="80.91"/><line class="cls-6" x1="215.51" y1="80.91" x2="185.72" y2="80.91"/><line class="cls-6" x1="9.6" y1="103.99" x2="9.6" y2="89.67"/><line class="cls-6" x1="0.25" y1="89.67" x2="0.25" y2="103.99"/><polyline class="cls-6" points="30.92 83.25 30.92 89.67 30.92 103.99"/><polyline class="cls-6" points="33.25 73.61 33.25 80.62 30.92 80.62"/><polyline class="cls-6" points="30.92 80.62 30.92 80.91 30.92 83.25"/><polyline class="cls-6" points="185.72 83.25 185.72 89.67 185.72 103.99"/><polyline class="cls-6" points="183.38 73.61 183.38 80.62 185.72 80.62"/><polyline class="cls-6" points="185.72 80.62 185.72 80.91 185.72 83.25"/><line class="cls-6" x1="215.51" y1="73.61" x2="183.38" y2="73.61"/><line class="cls-6" x1="33.25" y1="73.61" x2="0.25" y2="73.61"/><line class="cls-6" x1="9.6" y1="103.99" x2="30.92" y2="103.99"/><line class="cls-6" x1="185.72" y1="103.99" x2="215.51" y2="103.99"/><line class="cls-6" x1="183.38" y1="73.61" x2="33.25" y2="73.61"/><line class="cls-6" x1="185.72" y1="103.99" x2="30.92" y2="103.99"/><path d="M179,109h0Z" transform="translate(0 -28.36)"/><path class="cls-6" d="M179,109h0Z" transform="translate(0 -28.36)"/><path d="M185.72,111.61H179V109Zm0,0Z" transform="translate(0 -28.36)"/><path class="cls-6" d="M185.72,111.61H179V109Zm0,0Z" transform="translate(0 -28.36)"/><polygon points="179 80.62 185.72 80.62 185.72 83.25 179 80.62"/><polygon class="cls-6" points="179 80.62 185.72 80.62 185.72 83.25 179 80.62"/><path d="M132.56,109h0Z" transform="translate(0 -28.36)"/><path class="cls-6" d="M132.56,109h0Z" transform="translate(0 -28.36)"/><path d="M134.9,111.61h-2.34V109Zm0,0Z" transform="translate(0 -28.36)"/><path class="cls-6" d="M134.9,111.61h-2.34V109Zm0,0Z" transform="translate(0 -28.36)"/><polygon points="132.56 80.62 134.9 80.62 134.9 83.25 132.56 80.62"/><polygon class="cls-6" points="132.56 80.62 134.9 80.62 134.9 83.25 132.56 80.62"/><path d="M130.22,109h0Z" transform="translate(0 -28.36)"/><path class="cls-6" d="M130.22,109h0Z" transform="translate(0 -28.36)"/><path d="M132.56,111.61h-2.34V109Zm0,0Z" transform="translate(0 -28.36)"/><path class="cls-6" d="M132.56,111.61h-2.34V109Zm0,0Z" transform="translate(0 -28.36)"/><polygon points="130.22 80.62 132.56 80.62 132.56 83.25 130.22 80.62"/><polygon class="cls-6" points="130.22 80.62 132.56 80.62 132.56 83.25 130.22 80.62"/><path d="M84.08,109h0Z" transform="translate(0 -28.36)"/><path class="cls-6" d="M84.08,109h0Z" transform="translate(0 -28.36)"/><path d="M86.41,111.61H84.08V109Zm0,0Z" transform="translate(0 -28.36)"/><path class="cls-6" d="M86.41,111.61H84.08V109Zm0,0Z" transform="translate(0 -28.36)"/><polygon points="84.08 80.62 86.41 80.62 86.41 83.25 84.08 80.62"/><polygon class="cls-6" points="84.08 80.62 86.41 80.62 86.41 83.25 84.08 80.62"/><path d="M81.74,109h0Z" transform="translate(0 -28.36)"/><path class="cls-6" d="M81.74,109h0Z" transform="translate(0 -28.36)"/><path d="M84.08,111.61H81.74V109Zm0,0Z" transform="translate(0 -28.36)"/><path class="cls-6" d="M84.08,111.61H81.74V109Zm0,0Z" transform="translate(0 -28.36)"/><polygon points="81.74 80.62 84.08 80.62 84.08 83.25 81.74 80.62"/><polygon class="cls-6" points="81.74 80.62 84.08 80.62 84.08 83.25 81.74 80.62"/><path d="M30.92,109h0Z" transform="translate(0 -28.36)"/><path class="cls-6" d="M30.92,109h0Z" transform="translate(0 -28.36)"/><path d="M37.93,111.61h-7V109Zm0,0Z" transform="translate(0 -28.36)"/><path class="cls-6" d="M37.93,111.61h-7V109Zm0,0Z" transform="translate(0 -28.36)"/><polygon points="30.92 80.62 37.93 80.62 37.93 83.25 30.92 80.62"/><polygon class="cls-6" points="30.92 80.62 37.93 80.62 37.93 83.25 30.92 80.62"/><polyline class="cls-6" points="185.72 80.62 179 80.62 179 83.25 185.72 83.25"/><polyline class="cls-6" points="132.56 83.25 134.9 83.25 134.9 80.62 132.56 80.62"/><line class="cls-6" x1="179" y1="80.62" x2="134.9" y2="80.62"/><line class="cls-6" x1="134.9" y1="83.25" x2="179" y2="83.25"/><polyline class="cls-6" points="132.56 80.62 130.22 80.62 130.22 83.25 132.56 83.25"/><polyline class="cls-6" points="84.08 83.25 86.41 83.25 86.41 80.62 84.08 80.62"/><line class="cls-6" x1="130.22" y1="80.62" x2="86.41" y2="80.62"/><line class="cls-6" x1="86.41" y1="83.25" x2="130.22" y2="83.25"/><polyline class="cls-6" points="84.08 80.62 81.74 80.62 81.74 83.25 84.08 83.25"/><polyline class="cls-6" points="30.92 83.25 37.93 83.25 37.93 80.62 30.92 80.62"/><line class="cls-6" x1="81.74" y1="80.62" x2="37.93" y2="80.62"/><line class="cls-6" x1="37.93" y1="83.25" x2="81.74" y2="83.25"/><polyline class="cls-6" points="183.38 80.62 185.72 80.62 185.72 80.91 185.72 83.25"/><polyline class="cls-6" points="33.25 80.62 30.92 80.62 30.92 80.91 30.92 83.25"/><line class="cls-6" x1="357.75" y1="499.46" x2="357.75" y2="472.29"/><line class="cls-6" x1="354.83" y1="469.08" x2="287.65" y2="469.08"/><line class="cls-6" x1="354.83" y1="502.67" x2="287.65" y2="502.67"/><line class="cls-6" x1="268.67" y1="465.58" x2="360.96" y2="465.58"/><polyline class="cls-6" points="268.67 465.57 268.67 505.88 360.96 505.88 360.96 465.57"/><line class="cls-6" x1="298.46" y1="497.12" x2="351.03" y2="497.12"/><line class="cls-6" x1="352.49" y1="495.66" x2="352.49" y2="476.09"/><line class="cls-6" x1="298.46" y1="474.63" x2="351.03" y2="474.63"/><line class="cls-6" x1="341.69" y1="486.9" x2="341.69" y2="488.94"/><line class="cls-6" x1="342.56" y1="485.73" x2="344.61" y2="485.73"/><line class="cls-6" x1="341.69" y1="484.85" x2="341.69" y2="482.81"/><line class="cls-6" x1="340.81" y1="485.73" x2="338.76" y2="485.73"/><polyline class="cls-6" points="287.65 469.08 284.73 469.37 281.81 469.96 279.18 471.42 276.85 473.46 274.8 475.8 273.05 478.43 272.17 481.35 271.59 484.27 271.59 487.48 272.17 490.4 273.05 493.32 274.8 495.95 276.85 498.29 279.18 500.33 281.81 501.79 284.73 502.38 287.65 502.67"/><polyline class="cls-6" points="357.75 472.29 357.75 471.71 357.46 471.13 357.46 470.54 357.17 469.96 356.58 469.66 356.29 469.37 355.7 469.08 355.12 469.08 354.83 469.08"/><polyline class="cls-6" points="354.83 502.67 355.12 502.67 355.7 502.67 356.29 502.38 356.58 502.08 357.17 501.5 357.46 501.21 357.46 500.62 357.75 500.04 357.75 499.46"/><polyline class="cls-6" points="341.69 484.27 341.39 484.27 341.1 484.27 340.81 484.56 340.52 484.56 340.23 484.85 340.23 485.14 340.23 485.44 339.93 485.73 339.93 486.02 340.23 486.31 340.23 486.61 340.52 486.9 340.52 487.19 340.81 487.48 341.1 487.48 341.39 487.48 341.69 487.48 341.98 487.48 342.27 487.48 342.56 487.19 342.85 486.9 343.15 486.61 343.15 486.31 343.15 486.02 343.15 485.73 343.15 485.44 343.15 485.14 342.85 484.85 342.85 484.56 342.56 484.56 342.27 484.27 341.98 484.27 341.69 484.27"/><polyline class="cls-6" points="298.46 474.63 296.41 474.63 294.37 475.21 292.62 476.38 291.16 477.55 289.7 479.01 288.82 480.76 287.94 482.81 287.65 484.85 287.65 486.9 287.94 488.94 288.82 490.99 289.7 492.74 291.16 494.2 292.62 495.37 294.37 496.54 296.41 497.12 298.46 497.12"/><polyline class="cls-6" points="352.49 495.66 352.49 495.95 352.2 496.24 352.2 496.54 351.91 496.83 351.62 496.83 351.32 497.12 351.03 497.12"/><polyline class="cls-6" points="352.49 476.09 352.49 475.8 352.2 475.51 352.2 475.21 351.91 474.92 351.62 474.63 351.32 474.63 351.03 474.63"/><polyline class="cls-6" points="341.69 483.68 341.1 483.68 340.81 483.68 340.52 483.98 340.23 484.27 339.93 484.56 339.64 484.85 339.64 485.44 339.64 485.73 339.64 486.31 339.64 486.61 339.64 486.9 339.93 487.48 340.23 487.77 340.52 487.77 341.1 488.06 341.39 488.06 341.98 488.06 342.27 488.06 342.56 487.77 342.85 487.77 343.15 487.48 343.44 486.9 343.73 486.61 343.73 486.31 343.73 485.73 343.73 485.44 343.73 484.85 343.44 484.56 343.15 484.27 342.85 483.98 342.56 483.68 341.98 483.68 341.69 483.68"/><polyline class="cls-6" points="314.23 410.67 327.37 410.67 327.37 441.92 314.23 441.92"/><line class="cls-6" x1="327.37" y1="431.11" x2="327.37" y2="421.47"/><line class="cls-6" x1="316.86" y1="428.77" x2="316.86" y2="427.31"/><line class="cls-6" x1="319.49" y1="426.15" x2="317.74" y2="426.15"/><line class="cls-6" x1="316.86" y1="425.27" x2="316.86" y2="423.81"/><line class="cls-6" x1="315.98" y1="426.15" x2="314.23" y2="426.15"/><path class="cls-6" d="M319.9,446.25a13.89,13.89,0,0,0-6.56-5.38" transform="translate(0 -28.36)"/><path class="cls-6" d="M321.78,454.6a14,14,0,0,0-1.94-8.28" transform="translate(0 -28.36)"/><path class="cls-6" d="M313.34,468.14a14,14,0,0,0,6.56-5.38" transform="translate(0 -28.36)"/><path class="cls-6" d="M319.84,462.68a13.92,13.92,0,0,0,1.94-8.27" transform="translate(0 -28.36)"/><path class="cls-6" d="M306.35,443.93a25.82,25.82,0,0,0-2.57,9.43" transform="translate(0 -28.36)"/><path class="cls-6" d="M307.53,467.27a8,8,0,0,0,6.61,3" transform="translate(0 -28.36)"/><path class="cls-6" d="M303.75,453.56a15.86,15.86,0,0,0,0,2.18" transform="translate(0 -28.36)"/><path class="cls-6" d="M319.4,463.07a56.6,56.6,0,0,0,0-17.43" transform="translate(0 -28.36)"/><path class="cls-6" d="M312,469.1a19.38,19.38,0,0,0,12.62-4.38" transform="translate(0 -28.36)"/><path class="cls-6" d="M325.83,463.56a39.23,39.23,0,0,0,1-8.91" transform="translate(0 -28.36)"/><path class="cls-6" d="M324.71,464.75a2.45,2.45,0,0,0,.85-1.37" transform="translate(0 -28.36)"/><path class="cls-6" d="M324.7,463.21a67.68,67.68,0,0,0,.63-8.77" transform="translate(0 -28.36)"/><path class="cls-6" d="M312.1,469.4A17.67,17.67,0,0,0,324,465" transform="translate(0 -28.36)"/><path class="cls-6" d="M323.9,464.69a2.44,2.44,0,0,0,.82-1.52" transform="translate(0 -28.36)"/><path class="cls-6" d="M324,444a17.67,17.67,0,0,0-11.91-4.43" transform="translate(0 -28.36)"/><path class="cls-6" d="M324.64,444.3A19.44,19.44,0,0,0,312,439.9" transform="translate(0 -28.36)"/><path class="cls-6" d="M325.33,454.66a66,66,0,0,0-.62-8.77" transform="translate(0 -28.36)"/><path class="cls-6" d="M326.79,454.41a38.66,38.66,0,0,0-1-8.91" transform="translate(0 -28.36)"/><path class="cls-6" d="M324.72,445.84a2.48,2.48,0,0,0-.81-1.52" transform="translate(0 -28.36)"/><path class="cls-6" d="M325.56,445.63a2.45,2.45,0,0,0-.85-1.37" transform="translate(0 -28.36)"/><path class="cls-6" d="M314.14,438.74a8,8,0,0,0-6.61,3" transform="translate(0 -28.36)"/><path class="cls-6" d="M307.84,442.11a11.91,11.91,0,0,0-1.33,2" transform="translate(0 -28.36)"/><path class="cls-6" d="M306.51,464.86a12.31,12.31,0,0,0,1.33,2" transform="translate(0 -28.36)"/><path class="cls-6" d="M303.78,455.65a25.82,25.82,0,0,0,2.57,9.43" transform="translate(0 -28.36)"/><path class="cls-6" d="M306,450.37a18.21,18.21,0,0,0,0,8.56" transform="translate(0 -28.36)"/><path class="cls-6" d="M313.23,441.08a4.52,4.52,0,0,0-3.74,1.56" transform="translate(0 -28.36)"/><path class="cls-6" d="M309.56,442.56a16.67,16.67,0,0,0-3.54,7.71" transform="translate(0 -28.36)"/><path class="cls-6" d="M309.49,466.37a4.52,4.52,0,0,0,3.74,1.56" transform="translate(0 -28.36)"/><path class="cls-6" d="M306,458.73a16.66,16.66,0,0,0,3.54,7.72" transform="translate(0 -28.36)"/><path class="cls-6" d="M318.61,454.36a1.9,1.9,0,1,0-1.9,1.9,1.9,1.9,0,0,0,1.9-1.9" transform="translate(0 -28.36)"/><path class="cls-6" d="M318,454.36a1.32,1.32,0,1,0-1.32,1.31,1.32,1.32,0,0,0,1.32-1.31" transform="translate(0 -28.36)"/><polyline class="cls-6" points="105.11 443.96 70.64 443.96 70.64 409.2 105.11 409.2 105.11 443.96"/><path d="M.25,132.35h0Z" transform="translate(0 -28.36)"/><path class="cls-6" d="M.25,132.35h0Z" transform="translate(0 -28.36)"/><polyline points="0.25 518.73 0.25 103.99 9.6 518.73"/><polyline class="cls-6" points="0.25 518.73 0.25 103.99 9.6 518.73"/><polyline points="9.6 518.73 0.25 103.99 9.6 103.99 9.6 518.73"/><polyline class="cls-6" points="9.6 518.73 0.25 103.99 9.6 103.99 9.6 518.73"/><line class="cls-6" x1="9.6" y1="518.73" x2="9.6" y2="103.99"/><line class="cls-6" x1="0.25" y1="103.99" x2="0.25" y2="518.73"/><path d="M215.51,102h0Z" transform="translate(0 -28.36)"/><path class="cls-6" d="M215.51,102h0Z" transform="translate(0 -28.36)"/><path d="M235.37,109h0Zm-19.86-7,19.86,7H215.51Zm19.86,0H215.51l19.86,7Z" transform="translate(0 -28.36)"/><path class="cls-6" d="M235.37,109h0Zm-19.86-7,19.86,7H215.51Zm19.86,0H215.51l19.86,7Z" transform="translate(0 -28.36)"/><path d="M215.51,109h0Z" transform="translate(0 -28.36)"/><path class="cls-6" d="M215.51,109h0Z" transform="translate(0 -28.36)"/><polyline points="373.52 73.61 333.21 73.61 373.52 73.61"/><polyline class="cls-6" points="373.52 73.61 333.21 73.61 373.52 73.61"/><polyline points="373.52 80.62 333.21 80.62 333.21 73.61 373.52 80.62"/><polyline points="373.52 73.61 333.21 73.61 373.52 80.62"/><polyline class="cls-6" points="373.52 80.62 333.21 80.62 333.21 73.61 373.52 80.62"/><polyline class="cls-6" points="373.52 73.61 333.21 73.61 373.52 80.62"/><polyline points="373.52 80.62 335.55 80.62 333.21 80.62 373.52 80.62"/><polygon points="335.55 80.62 335.55 80.62 333.21 80.62 335.55 80.62"/><polyline class="cls-6" points="373.52 80.62 335.55 80.62 333.21 80.62 373.52 80.62"/><polygon class="cls-6" points="335.55 80.62 335.55 80.62 333.21 80.62 335.55 80.62"/><path d="M215.51,109l17.52.29H215.51ZM233,109H215.51l17.52.29Z" transform="translate(0 -28.36)"/><path class="cls-6" d="M215.51,109l17.52.29H215.51ZM233,109H215.51l17.52.29Z" transform="translate(0 -28.36)"/><polyline points="373.52 80.91 335.55 80.91 335.55 80.62 373.52 80.91"/><polyline points="373.52 80.91 335.55 80.91 373.52 80.91"/><polyline class="cls-6" points="373.52 80.91 335.55 80.91 335.55 80.62 373.52 80.91"/><polyline class="cls-6" points="373.52 80.91 335.55 80.91 373.52 80.91"/><polyline points="373.52 80.91 335.55 80.62 373.52 80.62"/><polyline class="cls-6" points="373.52 80.91 335.55 80.62 373.52 80.62"/><path d="M215.51,109.27h0Z" transform="translate(0 -28.36)"/><path class="cls-6" d="M215.51,109.27h0Z" transform="translate(0 -28.36)"/><path d="M215.51,109.27,233,111.61H215.51Zm17.52,0H215.51L233,111.61Z" transform="translate(0 -28.36)"/><path class="cls-6" d="M215.51,109.27,233,111.61H215.51Zm17.52,0H215.51L233,111.61Z" transform="translate(0 -28.36)"/><path d="M215.51,111.61,233,118H215.51Zm17.52,0H215.51L233,118Z" transform="translate(0 -28.36)"/><path class="cls-6" d="M215.51,111.61,233,118H215.51Zm17.52,0H215.51L233,118Z" transform="translate(0 -28.36)"/><polyline points="373.52 80.91 335.55 80.91 373.52 80.91"/><polyline class="cls-6" points="373.52 80.91 335.55 80.91 373.52 80.91"/><polyline points="373.52 83.25 335.55 83.25 335.55 80.91 373.52 83.25"/><polyline points="373.52 80.91 335.55 80.91 373.52 83.25"/><polyline class="cls-6" points="373.52 83.25 335.55 83.25 335.55 80.91 373.52 83.25"/><polyline class="cls-6" points="373.52 80.91 335.55 80.91 373.52 83.25"/><polyline points="373.52 89.67 335.55 89.67 335.55 83.25 373.52 89.67"/><polyline points="373.52 89.67 335.55 89.67 373.52 89.67"/><polyline class="cls-6" points="373.52 89.67 335.55 89.67 335.55 83.25 373.52 89.67"/><polyline class="cls-6" points="373.52 89.67 335.55 89.67 373.52 89.67"/><polyline points="373.52 89.67 335.55 83.25 373.52 83.25"/><polyline class="cls-6" points="373.52 89.67 335.55 83.25 373.52 83.25"/><path d="M215.51,118h0Z" transform="translate(0 -28.36)"/><path class="cls-6" d="M215.51,118h0Z" transform="translate(0 -28.36)"/><path d="M215.51,118,233,132.35H215.51ZM233,118H215.51L233,132.35Z" transform="translate(0 -28.36)"/><path class="cls-6" d="M215.51,118,233,132.35H215.51ZM233,118H215.51L233,132.35Z" transform="translate(0 -28.36)"/><polyline points="373.52 89.67 335.55 89.67 373.52 89.67"/><polyline class="cls-6" points="373.52 89.67 335.55 89.67 373.52 89.67"/><polyline points="373.52 103.99 335.55 103.99 335.55 89.67 373.52 103.99"/><polyline points="373.52 89.67 335.55 89.67 373.52 103.99"/><polyline class="cls-6" points="373.52 103.99 335.55 103.99 335.55 89.67 373.52 103.99"/><polyline class="cls-6" points="373.52 89.67 335.55 89.67 373.52 103.99"/><line class="cls-6" x1="373.52" y1="80.62" x2="335.55" y2="80.62"/><line class="cls-6" x1="233.03" y1="80.62" x2="215.51" y2="80.62"/><line class="cls-6" x1="373.52" y1="80.91" x2="335.55" y2="80.91"/><line class="cls-6" x1="233.03" y1="80.91" x2="215.51" y2="80.91"/><polyline class="cls-6" points="335.55 83.25 335.55 89.67 335.55 103.99"/><polyline class="cls-6" points="333.21 73.61 333.21 80.62 335.55 80.62"/><polyline class="cls-6" points="335.55 80.62 335.55 80.91 335.55 83.25"/><polyline class="cls-6" points="233.03 83.25 233.03 89.67 233.03 103.99"/><polyline class="cls-6" points="235.37 73.61 235.37 80.62 233.03 80.62"/><polyline class="cls-6" points="233.03 80.62 233.03 80.91 233.03 83.25"/><line class="cls-6" x1="215.51" y1="103.99" x2="233.03" y2="103.99"/><line class="cls-6" x1="335.55" y1="103.99" x2="373.52" y2="103.99"/><line class="cls-6" x1="373.52" y1="73.61" x2="333.22" y2="73.61"/><line class="cls-6" x1="235.37" y1="73.61" x2="215.51" y2="73.61"/><line class="cls-6" x1="235.37" y1="73.61" x2="333.22" y2="73.61"/><line class="cls-6" x1="233.03" y1="103.99" x2="335.55" y2="103.99"/><path d="M233,109h0Z" transform="translate(0 -28.36)"/><path class="cls-6" d="M233,109h0Z" transform="translate(0 -28.36)"/><path d="M240,111.61h-7V109Zm0,0Z" transform="translate(0 -28.36)"/><path class="cls-6" d="M240,111.61h-7V109Zm0,0Z" transform="translate(0 -28.36)"/><polygon points="233.03 80.62 240.04 80.62 240.04 83.25 233.03 80.62"/><polygon class="cls-6" points="233.03 80.62 240.04 80.62 240.04 83.25 233.03 80.62"/><path d="M281.81,109h0Z" transform="translate(0 -28.36)"/><path class="cls-6" d="M281.81,109h0Z" transform="translate(0 -28.36)"/><path d="M284.15,111.61h-2.34V109Zm0,0Z" transform="translate(0 -28.36)"/><path class="cls-6" d="M284.15,111.61h-2.34V109Zm0,0Z" transform="translate(0 -28.36)"/><polygon points="281.81 80.62 284.15 80.62 284.15 83.25 281.81 80.62"/><polygon class="cls-6" points="281.81 80.62 284.15 80.62 284.15 83.25 281.81 80.62"/><path d="M284.15,109h0Z" transform="translate(0 -28.36)"/><path class="cls-6" d="M284.15,109h0Z" transform="translate(0 -28.36)"/><path d="M286.48,111.61h-2.33V109Zm0,0Z" transform="translate(0 -28.36)"/><path class="cls-6" d="M286.48,111.61h-2.33V109Zm0,0Z" transform="translate(0 -28.36)"/><polygon points="284.15 80.62 286.48 80.62 286.48 83.25 284.15 80.62"/><polygon class="cls-6" points="284.15 80.62 286.48 80.62 286.48 83.25 284.15 80.62"/><path d="M328.54,109h0Z" transform="translate(0 -28.36)"/><path class="cls-6" d="M328.54,109h0Z" transform="translate(0 -28.36)"/><path d="M335.55,111.61h-7V109Zm0,0Z" transform="translate(0 -28.36)"/><path class="cls-6" d="M335.55,111.61h-7V109Zm0,0Z" transform="translate(0 -28.36)"/><polygon points="328.54 80.62 335.55 80.62 335.55 83.25 328.54 80.62"/><polygon class="cls-6" points="328.54 80.62 335.55 80.62 335.55 83.25 328.54 80.62"/><polyline class="cls-6" points="233.03 83.25 240.04 83.25 240.04 80.62 233.03 80.62"/><polyline class="cls-6" points="284.15 80.62 281.81 80.62 281.81 83.25 284.15 83.25"/><line class="cls-6" x1="240.04" y1="83.25" x2="281.81" y2="83.25"/><line class="cls-6" x1="281.81" y1="80.62" x2="240.04" y2="80.62"/><polyline class="cls-6" points="284.15 83.25 286.48 83.25 286.48 80.62 284.15 80.62"/><polyline class="cls-6" points="335.55 80.62 328.54 80.62 328.54 83.25 335.55 83.25"/><line class="cls-6" x1="286.48" y1="83.25" x2="328.54" y2="83.25"/><line class="cls-6" x1="328.54" y1="80.62" x2="286.48" y2="80.62"/><polyline class="cls-6" points="235.37 80.62 233.03 80.62 233.03 80.91 233.03 83.25"/><polyline class="cls-6" points="333.21 80.62 335.55 80.62 335.55 80.91 335.55 83.25"/><path d="M362.13,132.35h0Z" transform="translate(0 -28.36)"/><path class="cls-6" d="M362.13,132.35h0Z" transform="translate(0 -28.36)"/><path d="M373.52,181.41H362.13V132.35Zm0,0Z" transform="translate(0 -28.36)"/><path class="cls-6" d="M373.52,181.41H362.13V132.35Zm0,0Z" transform="translate(0 -28.36)"/><polygon points="362.13 103.99 373.52 103.99 373.52 153.06 362.13 103.99"/><polygon class="cls-6" points="362.13 103.99 373.52 103.99 373.52 153.06 362.13 103.99"/><polyline class="cls-6" points="373.52 153.06 373.52 103.99 362.13 103.99 362.13 153.06 373.52 153.06"/><path d="M131.68,547.09h0Z" transform="translate(0 -28.36)"/><path class="cls-6" d="M131.68,547.09h0Z" transform="translate(0 -28.36)"/><path d="M98.39,547.09h0Z" transform="translate(0 -28.36)"/><path class="cls-6" d="M98.39,547.09h0Z" transform="translate(0 -28.36)"/><path d="M109.78,472.32H105.1V437.56Zm0,0Z" transform="translate(0 -28.36)"/><path class="cls-6" d="M109.78,472.32H105.1V437.56Zm0,0Z" transform="translate(0 -28.36)"/><polygon points="105.11 409.2 109.78 409.2 109.78 443.96 105.11 409.2"/><polygon class="cls-6" points="105.11 409.2 109.78 409.2 109.78 443.96 105.11 409.2"/><path d="M105.1,512.63h0Z" transform="translate(0 -28.36)"/><path class="cls-6" d="M105.1,512.63h0Z" transform="translate(0 -28.36)"/><path d="M109.78,535.41H105.1V512.63Zm0,0Z" transform="translate(0 -28.36)"/><path class="cls-6" d="M109.78,535.41H105.1V512.63Zm0,0Z" transform="translate(0 -28.36)"/><polygon points="105.11 484.27 109.78 484.27 109.78 507.05 105.11 484.27"/><polygon class="cls-6" points="105.11 484.27 109.78 484.27 109.78 507.05 105.11 484.27"/><line class="cls-6" x1="105.1" y1="443.96" x2="109.78" y2="443.96"/><line class="cls-6" x1="105.1" y1="484.27" x2="109.78" y2="484.27"/><line class="cls-6" x1="105.1" y1="409.2" x2="105.1" y2="443.96"/><polyline class="cls-6" points="105.11 484.27 105.11 507.05 109.78 507.05 109.78 484.27"/><line class="cls-6" x1="109.78" y1="443.96" x2="109.78" y2="409.2"/><line class="cls-6" x1="105.1" y1="484.27" x2="105.1" y2="481.35"/><line class="cls-6" x1="109.78" y1="484.27" x2="109.78" y2="481.35"/><line class="cls-6" x1="105.1" y1="443.96" x2="105.1" y2="446.59"/><line class="cls-6" x1="109.78" y1="443.96" x2="109.78" y2="446.59"/><line class="cls-6" x1="109.78" y1="481.35" x2="105.1" y2="481.35"/><polyline class="cls-6" points="109.78 446.59 105.11 446.59 87.87 476.67"/><path class="cls-6" d="M87.65,504.78A34.61,34.61,0,0,0,105,509.41" transform="translate(0 -28.36)"/><path d="M262.24,437.56h0Z" transform="translate(0 -28.36)"/><path class="cls-6" d="M262.24,437.56h0Z" transform="translate(0 -28.36)"/><path d="M266.91,445.16h-4.67v-7.6Zm0,0Z" transform="translate(0 -28.36)"/><path class="cls-6" d="M266.91,445.16h-4.67v-7.6Zm0,0Z" transform="translate(0 -28.36)"/><polygon points="262.24 409.2 266.91 409.2 266.91 416.8 262.24 409.2"/><polygon class="cls-6" points="262.24 409.2 266.91 409.2 266.91 416.8 262.24 409.2"/><path d="M266.91,491.31h0Z" transform="translate(0 -28.36)"/><path class="cls-6" d="M266.91,491.31h0Z" transform="translate(0 -28.36)"/><path d="M266.91,535.41h-4.67v-44.1Zm0,0Z" transform="translate(0 -28.36)"/><path class="cls-6" d="M266.91,535.41h-4.67v-44.1Zm0,0Z" transform="translate(0 -28.36)"/><polygon points="262.24 462.95 266.91 462.95 266.91 507.05 262.24 462.95"/><polygon class="cls-6" points="262.24 462.95 266.91 462.95 266.91 507.05 262.24 462.95"/><line class="cls-6" x1="262.24" y1="416.8" x2="266.91" y2="416.8"/><polyline class="cls-6" points="262.24 462.95 266.91 462.95 266.91 507.05"/><line class="cls-6" x1="266.91" y1="416.8" x2="266.91" y2="409.2"/><line class="cls-6" x1="262.24" y1="409.2" x2="262.24" y2="416.8"/><polyline class="cls-6" points="262.24 462.95 262.24 507.05 266.91 507.05"/><line class="cls-6" x1="262.24" y1="416.8" x2="262.24" y2="419.72"/><line class="cls-6" x1="266.91" y1="416.8" x2="266.91" y2="419.72"/><line class="cls-6" x1="262.24" y1="462.95" x2="262.24" y2="460.03"/><line class="cls-6" x1="266.91" y1="462.95" x2="266.91" y2="460.03"/><line class="cls-6" x1="266.91" y1="419.72" x2="262.24" y2="419.72"/><polyline class="cls-6" points="266.91 460.03 262.24 460.03 242.09 424.98"/><path class="cls-6" d="M262.1,447.79a40.45,40.45,0,0,0-20.23,5.42" transform="translate(0 -28.36)"/><path d="M328.54,437.56h0Z" transform="translate(0 -28.36)"/><path class="cls-6" d="M328.54,437.56h0Z" transform="translate(0 -28.36)"/><path d="M328.54,485.46h4.68l-4.68,4.68Zm0-47.9v47.9h4.68Z" transform="translate(0 -28.36)"/><path class="cls-6" d="M328.54,485.46h4.68l-4.68,4.68Zm0-47.9v47.9h4.68Z" transform="translate(0 -28.36)"/><polygon points="328.54 409.2 333.21 409.2 333.21 457.11 328.54 409.2"/><polygon class="cls-6" points="328.54 409.2 333.21 409.2 333.21 457.11 328.54 409.2"/><line class="cls-6" x1="333.22" y1="457.11" x2="333.22" y2="434.03"/><line class="cls-6" x1="333.22" y1="429.36" x2="333.22" y2="409.2"/><line class="cls-6" x1="328.54" y1="409.2" x2="328.54" y2="461.78"/><path d="M362.13,457.72h0Z" transform="translate(0 -28.36)"/><path class="cls-6" d="M362.13,457.72h0Z" transform="translate(0 -28.36)"/><path d="M362.13,462.39H333.22v-4.67Zm0,0Z" transform="translate(0 -28.36)"/><path class="cls-6" d="M362.13,462.39H333.22v-4.67Zm0,0Z" transform="translate(0 -28.36)"/><polygon points="333.21 429.36 362.13 429.36 362.13 434.03 333.21 429.36"/><polygon class="cls-6" points="333.21 429.36 362.13 429.36 362.13 434.03 333.21 429.36"/><line class="cls-6" x1="362.13" y1="429.36" x2="333.22" y2="429.36"/><line class="cls-6" x1="333.22" y1="434.03" x2="362.13" y2="434.03"/><path d="M259.61,432.89h0Z" transform="translate(0 -28.36)"/><path class="cls-6" d="M259.61,432.89h0Z" transform="translate(0 -28.36)"/><path d="M362.13,437.56H259.61v-4.67Zm0,0Z" transform="translate(0 -28.36)"/><path class="cls-6" d="M362.13,437.56H259.61v-4.67Zm0,0Z" transform="translate(0 -28.36)"/><polygon points="259.61 404.53 362.13 404.53 362.13 409.2 259.61 404.53"/><polygon class="cls-6" points="259.61 404.53 362.13 404.53 362.13 409.2 259.61 404.53"/><path d="M187.47,432.89h0Z" transform="translate(0 -28.36)"/><path class="cls-6" d="M187.47,432.89h0Z" transform="translate(0 -28.36)"/><path d="M207.62,437.56H187.47v-4.67Zm0,0Z" transform="translate(0 -28.36)"/><path class="cls-6" d="M207.62,437.56H187.47v-4.67Zm0,0Z" transform="translate(0 -28.36)"/><polygon points="187.47 404.53 207.62 404.53 207.62 409.2 187.47 404.53"/><polygon class="cls-6" points="187.47 404.53 207.62 404.53 207.62 409.2 187.47 404.53"/><path d="M124.38,432.89h0Z" transform="translate(0 -28.36)"/><path class="cls-6" d="M124.38,432.89h0Z" transform="translate(0 -28.36)"/><path d="M135.77,437.56H124.38v-4.67Zm0,0Z" transform="translate(0 -28.36)"/><path class="cls-6" d="M135.77,437.56H124.38v-4.67Zm0,0Z" transform="translate(0 -28.36)"/><polygon points="124.38 404.53 135.77 404.53 135.77 409.2 124.38 404.53"/><polygon class="cls-6" points="124.38 404.53 135.77 404.53 135.77 409.2 124.38 404.53"/><line class="cls-6" x1="259.61" y1="404.53" x2="259.61" y2="409.2"/><line class="cls-6" x1="207.62" y1="404.53" x2="207.62" y2="409.2"/><line class="cls-6" x1="187.47" y1="404.53" x2="187.47" y2="409.2"/><line class="cls-6" x1="135.77" y1="404.53" x2="135.77" y2="409.2"/><line class="cls-6" x1="362.13" y1="404.53" x2="259.61" y2="404.53"/><line class="cls-6" x1="207.62" y1="404.53" x2="200.61" y2="404.53"/><line class="cls-6" x1="196.23" y1="404.53" x2="187.47" y2="404.53"/><line class="cls-6" x1="135.77" y1="404.53" x2="124.38" y2="404.53"/><line class="cls-6" x1="124.38" y1="409.2" x2="135.77" y2="409.2"/><line class="cls-6" x1="187.47" y1="409.2" x2="207.62" y2="409.2"/><line class="cls-6" x1="259.61" y1="409.2" x2="262.24" y2="409.2"/><line class="cls-6" x1="266.91" y1="409.2" x2="328.54" y2="409.2"/><line class="cls-6" x1="333.22" y1="409.2" x2="362.13" y2="409.2"/><line class="cls-6" x1="259.61" y1="404.53" x2="256.69" y2="404.53"/><line class="cls-6" x1="259.61" y1="409.2" x2="256.69" y2="409.2"/><line class="cls-6" x1="207.62" y1="404.53" x2="210.54" y2="404.53"/><line class="cls-6" x1="207.62" y1="409.2" x2="210.54" y2="409.2"/><line class="cls-6" x1="256.69" y1="409.2" x2="256.69" y2="404.53"/><polyline class="cls-6" points="210.54 409.2 210.54 404.53 210.54 358.68"/><path class="cls-6" d="M256.4,432.74a46,46,0,0,0-46-46" transform="translate(0 -28.36)"/><line class="cls-6" x1="135.77" y1="404.53" x2="138.69" y2="404.53"/><line class="cls-6" x1="135.77" y1="409.2" x2="138.69" y2="409.2"/><line class="cls-6" x1="187.47" y1="404.53" x2="184.55" y2="404.53"/><line class="cls-6" x1="187.47" y1="409.2" x2="184.55" y2="409.2"/><line class="cls-6" x1="138.69" y1="409.2" x2="138.69" y2="404.53"/><polyline class="cls-6" points="184.55 409.2 184.55 404.53 184.55 358.68"/><path class="cls-6" d="M184.4,386.74a46,46,0,0,0-46,46" transform="translate(0 -28.36)"/><path d="M362.13,485.46h0Z" transform="translate(0 -28.36)"/><path class="cls-6" d="M362.13,485.46h0Z" transform="translate(0 -28.36)"/><path d="M362.13,490.14H328.54l4.68-4.68Zm0,0Z" transform="translate(0 -28.36)"/><path class="cls-6" d="M362.13,490.14H328.54l4.68-4.68Zm0,0Z" transform="translate(0 -28.36)"/><polygon points="333.21 457.11 362.13 457.11 362.13 461.78 333.21 457.11"/><polygon class="cls-6" points="333.21 457.11 362.13 457.11 362.13 461.78 333.21 457.11"/><line class="cls-6" x1="328.54" y1="461.78" x2="362.13" y2="461.78"/><line class="cls-6" x1="362.13" y1="457.11" x2="333.22" y2="457.11"/><path d="M9.6,461.81h0Z" transform="translate(0 -28.36)"/><path class="cls-6" d="M9.6,461.81h0Z" transform="translate(0 -28.36)"/><path d="M41.72,466.48H9.6v-4.67Zm0,0Z" transform="translate(0 -28.36)"/><path class="cls-6" d="M41.72,466.48H9.6v-4.67Zm0,0Z" transform="translate(0 -28.36)"/><polygon points="9.6 433.45 37.34 433.45 41.73 438.12 9.6 433.45"/><polygon class="cls-6" points="9.6 433.45 37.34 433.45 41.73 438.12 9.6 433.45"/><polyline class="cls-6" points="37.34 433.45 9.6 433.45 9.6 438.12 41.73 438.12"/><path d="M37.34,461.81h4.38v4.67Zm0-24.25v24.25h4.38Z" transform="translate(0 -28.36)"/><path class="cls-6" d="M37.34,461.81h4.38v4.67Zm0-24.25v24.25h4.38Z" transform="translate(0 -28.36)"/><polygon points="37.34 409.2 41.73 409.2 41.73 433.45 37.34 409.2"/><polygon class="cls-6" points="37.34 409.2 41.73 409.2 41.73 433.45 37.34 409.2"/><line class="cls-6" x1="41.72" y1="438.12" x2="41.72" y2="409.2"/><line class="cls-6" x1="37.34" y1="409.2" x2="37.34" y2="433.45"/><path d="M8.43,432.89l116,4.67H8.43Zm116,0H8.43l116,4.67Z" transform="translate(0 -28.36)"/><path class="cls-6" d="M8.43,432.89l116,4.67H8.43Zm116,0H8.43l116,4.67Z" transform="translate(0 -28.36)"/><line class="cls-6" x1="8.43" y1="409.2" x2="37.34" y2="409.2"/><line class="cls-6" x1="41.72" y1="409.2" x2="105.1" y2="409.2"/><line class="cls-6" x1="109.78" y1="409.2" x2="124.38" y2="409.2"/><polyline class="cls-6" points="124.38 404.53 8.43 404.53 8.43 409.2"/><path d="M196.23,175.57l4.38,167.07h-4.38Zm4.38,0h-4.38l4.38,167.07Z" transform="translate(0 -28.36)"/><path class="cls-6" d="M196.23,175.57l4.38,167.07h-4.38Zm4.38,0h-4.38l4.38,167.07Z" transform="translate(0 -28.36)"/><polyline class="cls-6" points="200.61 314.28 200.61 147.21 196.23 147.21 196.23 314.28 200.61 314.28"/><path d="M200.61,432.89h-4.38V400.18Zm0,0Z" transform="translate(0 -28.36)"/><path class="cls-6" d="M200.61,432.89h-4.38V400.18Zm0,0Z" transform="translate(0 -28.36)"/><polygon points="196.23 371.82 200.61 371.82 200.61 404.53 196.23 371.82"/><polygon class="cls-6" points="196.23 371.82 200.61 371.82 200.61 404.53 196.23 371.82"/><line class="cls-6" x1="196.23" y1="371.82" x2="196.23" y2="404.53"/><polyline class="cls-6" points="200.61 404.53 200.61 371.82 196.23 371.82"/><path d="M9.6,535.41l189.55,11.68H9.6Zm189.55,0H9.6l189.55,11.68Z" transform="translate(0 -28.36)"/><path class="cls-6" d="M9.6,535.41l189.55,11.68H9.6Zm189.55,0H9.6l189.55,11.68Z" transform="translate(0 -28.36)"/><path d="M256.69,535.41h0Z" transform="translate(0 -28.36)"/><path class="cls-6" d="M256.69,535.41h0Z" transform="translate(0 -28.36)"/><path d="M339.06,547.09H256.69V535.41Zm0,0Z" transform="translate(0 -28.36)"/><path class="cls-6" d="M339.06,547.09H256.69V535.41Zm0,0Z" transform="translate(0 -28.36)"/><polygon points="256.69 507.05 339.06 507.05 339.06 518.73 256.69 507.05"/><polygon class="cls-6" points="256.69 507.05 339.06 507.05 339.06 518.73 256.69 507.05"/><line class="cls-6" x1="256.69" y1="507.05" x2="256.69" y2="518.73"/><line class="cls-6" x1="199.15" y1="507.05" x2="199.15" y2="518.73"/><line class="cls-6" x1="0.25" y1="518.73" x2="177.83" y2="518.73"/><line class="cls-6" x1="189.22" y1="518.73" x2="199.15" y2="518.73"/><polyline class="cls-6" points="256.69 518.73 339.06 518.73 339.06 507.05 256.69 507.05"/><polyline class="cls-6" points="199.15 507.05 9.6 507.05 9.6 518.73"/><path class="cls-6" d="M254.21,482.25a53,53,0,0,0-53,53" transform="translate(0 -28.36)"/><path d="M199.15,535.41h0Z" transform="translate(0 -28.36)"/><path class="cls-6" d="M199.15,535.41h0Z" transform="translate(0 -28.36)"/><path d="M201.2,547.09h-2V535.41Zm0,0Z" transform="translate(0 -28.36)"/><path class="cls-6" d="M201.2,547.09h-2V535.41Zm0,0Z" transform="translate(0 -28.36)"/><polygon points="199.15 507.05 201.2 507.05 201.2 518.73 199.15 507.05"/><polygon class="cls-6" points="199.15 507.05 201.2 507.05 201.2 518.73 199.15 507.05"/><path d="M254.36,535.41h0Z" transform="translate(0 -28.36)"/><path class="cls-6" d="M254.36,535.41h0Z" transform="translate(0 -28.36)"/><path d="M256.69,547.09h-2.33V535.41Zm0,0Z" transform="translate(0 -28.36)"/><path class="cls-6" d="M256.69,547.09h-2.33V535.41Zm0,0Z" transform="translate(0 -28.36)"/><polygon points="254.35 507.05 256.69 507.05 256.69 518.73 254.35 507.05"/><polygon class="cls-6" points="254.35 507.05 256.69 507.05 256.69 518.73 254.35 507.05"/><polyline class="cls-6" points="199.15 518.73 201.2 518.73 201.2 507.05 199.15 507.05 199.15 518.73"/><polyline class="cls-6" points="256.69 507.05 254.35 507.05 254.35 518.73 256.69 518.73 256.69 507.05"/><line class="cls-6" x1="254.36" y1="507.05" x2="254.36" y2="454.18"/><line class="cls-6" x1="199.15" y1="507.05" x2="199.15" y2="518.73"/><line class="cls-6" x1="256.69" y1="507.05" x2="256.69" y2="518.73"/><path d="M362.13,400.18h0Z" transform="translate(0 -28.36)"/><path class="cls-6" d="M362.13,400.18h0Z" transform="translate(0 -28.36)"/><path d="M373.52,535.41H362.13V400.18Zm0,0Z" transform="translate(0 -28.36)"/><path class="cls-6" d="M373.52,535.41H362.13V400.18Zm0,0Z" transform="translate(0 -28.36)"/><polygon points="362.13 371.82 373.52 371.82 373.52 507.05 362.13 371.82"/><polygon class="cls-6" points="362.13 371.82 373.52 371.82 373.52 507.05 362.13 371.82"/><line class="cls-6" x1="373.52" y1="518.73" x2="373.52" y2="461.78"/><line class="cls-6" x1="373.52" y1="457.11" x2="373.52" y2="434.03"/><line class="cls-6" x1="373.52" y1="429.36" x2="373.52" y2="409.2"/><polyline class="cls-6" points="373.52 404.53 373.52 371.82 362.13 371.82 362.13 404.53"/><line class="cls-6" x1="362.13" y1="409.2" x2="362.13" y2="429.36"/><line class="cls-6" x1="362.13" y1="434.03" x2="362.13" y2="457.11"/><polyline class="cls-6" points="362.13 461.78 362.13 507.05 373.52 507.05"/><path d="M177.83,547.09h0Z" transform="translate(0 -28.36)"/><path class="cls-6" d="M177.83,547.09h0Z" transform="translate(0 -28.36)"/><path d="M362.13,237.78h0Z" transform="translate(0 -28.36)"/><path class="cls-6" d="M362.13,237.78h0Z" transform="translate(0 -28.36)"/><path d="M373.52,342.64H362.13V237.78Zm0,0Z" transform="translate(0 -28.36)"/><path class="cls-6" d="M373.52,342.64H362.13V237.78Zm0,0Z" transform="translate(0 -28.36)"/><polygon points="362.13 209.43 373.52 209.43 373.52 314.28 362.13 209.43"/><polygon class="cls-6" points="362.13 209.43 373.52 209.43 373.52 314.28 362.13 209.43"/><polyline class="cls-6" points="373.52 314.28 373.52 209.43 362.13 209.43 362.13 314.28 373.52 314.28"/><polyline class="cls-6" points="33.25 40.61 33.25 73.61 31.79 73.61 31.79 39.15 33.25 40.61"/><polyline class="cls-6" points="87.58 39.15 87.58 73.61 86.12 73.61 86.12 40.61 33.25 40.61 31.79 39.15 87.58 39.15 86.12 40.61 87.58 39.15"/><polyline class="cls-6" points="87 39.73 32.38 39.73 32.38 73.61"/><polyline class="cls-6" points="84.66 49.37 34.72 49.37 34.72 67.77 84.66 67.77 84.66 49.37"/><polyline class="cls-6" points="84.66 51.12 34.72 51.12 34.72 67.77 84.66 67.77 84.66 51.12"/><line class="cls-6" x1="87" y1="39.73" x2="87" y2="73.61"/><polyline class="cls-6" points="11.06 370.07 11.06 404.53 45.52 404.53 45.52 370.07 28.29 370.07 11.06 370.07"/><polyline class="cls-6" points="13.39 372.4 13.39 402.49 43.19 402.49 43.19 372.4 28.29 372.4 13.39 372.4"/><line class="cls-7" x1="124.38" y1="323.04" x2="9.6" y2="323.04"/><line class="cls-6" x1="10.76" y1="323.04" x2="10.76" y2="323.04"/><line class="cls-6" x1="124.38" y1="404.53" x2="124.38" y2="404.53"/><line class="cls-6" x1="124.38" y1="404.53" x2="124.38" y2="370.07"/><line class="cls-7" x1="124.38" y1="371.82" x2="124.38" y2="323.04"/><line class="cls-6" x1="124.38" y1="370.07" x2="11.06" y2="370.07"/><path class="cls-6" d="M198,547.09" transform="translate(0 -28.36)"/><path d="M196.23,118l11.39,57.54H196.23Zm11.39,0H196.23l11.39,57.54Z" transform="translate(0 -28.36)"/><path class="cls-6" d="M196.23,118l11.39,57.54H196.23Zm11.39,0H196.23l11.39,57.54Z" transform="translate(0 -28.36)"/><polyline class="cls-6" points="207.62 147.21 207.62 89.67 196.23 89.67 196.23 147.21 207.62 147.21"/><path d="M362.13,342.64h0Z" transform="translate(0 -28.36)"/><path class="cls-6" d="M362.13,342.64h0Z" transform="translate(0 -28.36)"/><path d="M373.52,400.18H362.13V342.64Zm0,0Z" transform="translate(0 -28.36)"/><path class="cls-6" d="M373.52,400.18H362.13V342.64Zm0,0Z" transform="translate(0 -28.36)"/><polygon points="362.13 314.28 373.52 314.28 373.52 371.82 362.13 314.28"/><polygon class="cls-6" points="362.13 314.28 373.52 314.28 373.52 371.82 362.13 314.28"/><polyline class="cls-6" points="373.52 371.82 373.52 314.28 362.13 314.28 362.13 371.82 373.52 371.82"/><polyline points="373.52 507.05 339.06 507.05 373.52 507.05"/><polyline class="cls-6" points="373.52 507.05 339.06 507.05 373.52 507.05"/><polyline points="373.52 518.73 339.06 518.73 339.06 507.05 373.52 518.73"/><polyline points="373.52 518.73 339.06 518.73 373.52 518.73"/><polyline class="cls-6" points="373.52 518.73 339.06 518.73 339.06 507.05 373.52 518.73"/><polyline class="cls-6" points="373.52 518.73 339.06 518.73 373.52 518.73"/><polyline points="373.52 518.73 339.06 507.05 373.52 507.05"/><polyline class="cls-6" points="373.52 518.73 339.06 507.05 373.52 507.05"/><polyline class="cls-6" points="373.52 507.05 339.06 507.05 339.06 518.73"/><line class="cls-6" x1="339.06" y1="518.73" x2="373.52" y2="518.73"/><path d="M362.13,181.41h0Z" transform="translate(0 -28.36)"/><path class="cls-6" d="M362.13,181.41h0Z" transform="translate(0 -28.36)"/><path d="M373.52,237.78H362.13V181.41Zm0,0Z" transform="translate(0 -28.36)"/><path class="cls-6" d="M373.52,237.78H362.13V181.41Zm0,0Z" transform="translate(0 -28.36)"/><polygon points="362.13 153.06 373.52 153.06 373.52 209.43 362.13 153.06"/><polygon class="cls-6" points="362.13 153.06 373.52 153.06 373.52 209.43 362.13 153.06"/><polyline class="cls-6" points="373.52 209.43 373.52 73.61 362.13 153.06 362.13 209.43 373.52 209.43"/><path d="M196.23,342.64l11.39,57.54H196.23Zm11.39,0H196.23l11.39,57.54Z" transform="translate(0 -28.36)"/><path class="cls-6" d="M196.23,342.64l11.39,57.54H196.23Zm11.39,0H196.23l11.39,57.54Z" transform="translate(0 -28.36)"/><polyline class="cls-6" points="196.23 314.28 196.23 371.82 207.62 371.82 207.62 314.28 196.23 314.28"/><polyline class="cls-6" points="86.7 496.54 86.7 505.88 63.63 505.88 63.63 496.54"/><line class="cls-6" x1="71.52" y1="505.88" x2="78.82" y2="505.88"/><line class="cls-6" x1="73.27" y1="498.29" x2="74.44" y2="498.29"/><line class="cls-6" x1="75.02" y1="500.33" x2="75.02" y2="498.87"/><line class="cls-6" x1="75.9" y1="498.29" x2="77.07" y2="498.29"/><line class="cls-6" x1="75.02" y1="497.7" x2="75.02" y2="496.24"/><polyline class="cls-6" points="75.02 502.08 76.77 502.08 78.23 501.79 79.69 501.21 81.16 500.62 82.61 499.75 83.49 498.58 84.66 497.12 85.24 495.66"/><polyline class="cls-6" points="65.09 495.66 65.67 497.12 66.55 498.58 67.72 499.75 68.89 500.62 70.35 501.21 72.1 501.79 73.56 502.08 75.02 502.08"/><polyline class="cls-6" points="82.91 490.69 79.4 489.53 75.9 488.65"/><polyline class="cls-6" points="65.67 491.57 65.09 492.45 64.51 493.32 63.92 494.2 63.63 495.37 63.63 496.54"/><line class="cls-6" x1="75.9" y1="488.65" x2="74.44" y2="488.65"/><polyline class="cls-6" points="68.59 500.33 75.02 500.62 81.45 500.33"/><polyline class="cls-6" points="64.21 494.78 64.51 497.41 65.09 499.75 65.97 502.08 67.43 504.13"/><polyline class="cls-6" points="67.43 504.13 67.72 504.42 68.01 504.71 68.3 504.71 68.59 504.71 71.81 505.3 75.02 505.59"/><line class="cls-6" x1="68.6" y1="504.13" x2="75.02" y2="504.71"/><polyline class="cls-6" points="64.21 494.78 64.51 497.12 65.09 499.46 65.97 501.79 67.43 503.55 67.72 503.84 68.01 504.13 68.3 504.13 68.59 504.13"/><polyline class="cls-6" points="82.91 503.55 84.08 501.79 85.24 499.46 85.83 497.41 86.12 494.78 85.83 497.41 85.24 499.75 84.08 502.08 82.91 504.13"/><line class="cls-6" x1="75.02" y1="504.71" x2="81.74" y2="504.13"/><polyline class="cls-6" points="75.02 505.59 78.53 505.3 81.74 505.01"/><polyline class="cls-6" points="81.74 504.13 82.03 504.13 82.32 504.13 82.61 503.84 82.91 503.55"/><polyline class="cls-6" points="81.74 505.01 82.03 504.71 82.32 504.71 82.61 504.42 82.91 504.13"/><polyline class="cls-6" points="86.7 496.54 86.7 495.37 86.41 494.2 85.83 493.32 85.24 492.45 84.37 491.57 83.78 490.99 82.91 490.69"/><polyline class="cls-6" points="74.44 488.65 70.64 489.53 67.43 490.69 66.55 490.99 65.67 491.57"/><polyline class="cls-6" points="78.23 490.4 76.19 490.11 74.14 490.11 72.1 490.4"/><polyline class="cls-6" points="85.24 495.66 85.24 495.07 84.95 494.49 84.95 493.91 84.37 493.32 84.08 493.03 82.32 491.86 80.28 490.99 78.23 490.4"/><polyline class="cls-6" points="72.1 490.4 70.06 490.99 68.01 491.86 66.26 493.03 65.67 493.32 65.38 493.91 65.09 494.49 65.09 495.07 65.09 495.66"/><polyline class="cls-6" points="76.77 498.29 76.48 498 76.48 497.7 76.48 497.41 76.19 497.41 75.9 497.12 75.9 496.83 75.61 496.83 75.31 496.83 75.02 496.83 74.73 496.83 74.44 497.12 74.14 497.12 73.85 497.41 73.85 497.7 73.56 498 73.56 498.29 73.56 498.58 73.85 498.87 73.85 499.16 74.14 499.46 74.44 499.46 74.73 499.75 75.02 499.75 75.31 499.75 75.61 499.75 75.9 499.75 75.9 499.46 76.19 499.46 76.48 499.16 76.48 498.87 76.48 498.58 76.77 498.29"/><polyline class="cls-6" points="76.19 498.29 76.19 498 75.9 497.7 75.9 497.41 75.61 497.41 75.31 497.41 75.31 497.12 75.02 497.12 74.73 497.41 74.44 497.41 74.44 497.7 74.14 497.7 74.14 498 74.14 498.29 74.14 498.58 74.14 498.87 74.44 498.87 74.44 499.16 74.73 499.16 75.02 499.46 75.31 499.46 75.61 499.16 75.9 499.16 75.9 498.87 76.19 498.58 76.19 498.29"/><line class="cls-6" x1="42.31" y1="448.05" x2="42.31" y2="467.91"/><polyline class="cls-6" points="43.19 446.88 43.19 439.29 21.86 439.29"/><line class="cls-6" x1="32.67" y1="451.56" x2="24.78" y2="451.56"/><polyline class="cls-6" points="42.31 467.91 40.56 451.56 32.67 451.56"/><line class="cls-6" x1="22.74" y1="467.91" x2="24.78" y2="451.56"/><line class="cls-6" x1="42.02" y1="467.91" x2="39.97" y2="451.56"/><line class="cls-6" x1="23.32" y1="467.91" x2="25.08" y2="451.56"/><line class="cls-6" x1="22.74" y1="448.05" x2="22.74" y2="467.91"/><line class="cls-6" x1="21.86" y1="439.29" x2="21.86" y2="446.88"/><polyline class="cls-6" points="42.31 467.91 42.02 470.25 41.43 472.29 39.97 474.05 38.22 475.51 36.17 476.67 33.84 477.26 31.5 477.26 29.16 476.67 27.12 475.51 25.37 474.05 23.91 472.29 23.03 470.25 22.74 467.91"/><polyline class="cls-6" points="42.02 467.91 41.73 469.96 40.85 472 39.68 473.75 37.93 475.21 35.88 476.09 33.84 476.67 31.5 476.67 29.16 476.09 27.41 475.21 25.66 473.75 24.49 472 23.62 469.96 23.32 467.91"/><polyline class="cls-6" points="23.03 448.05 32.67 448.63 42.02 448.05 42.31 448.05 42.6 447.76 42.89 447.76 42.89 447.47 43.19 447.47 43.19 447.18 43.19 446.88"/><polyline class="cls-6" points="23.03 448.05 22.74 448.05 22.74 447.76 22.45 447.76 22.16 447.47 22.16 447.18 21.86 446.88"/><polyline class="cls-6" points="32.67 445.13 32.38 445.13 32.09 444.84 31.79 444.84 31.79 444.55 31.5 444.25 31.5 443.96 31.5 443.67 31.79 443.38 32.09 443.09 32.38 443.09 32.38 442.79 32.67 442.79 32.96 443.09 33.25 443.09 33.25 443.38 33.55 443.38 33.55 443.67 33.55 443.96 33.55 444.25 33.55 444.55 33.25 444.84 32.96 444.84 32.67 445.13"/></svg>