<svg id="_203" data-name="203" xmlns="http://www.w3.org/2000/svg" viewBox="0 0 562.23 443.02"><defs><style>.cls-1{isolation:isolate;font-size:12px;fill:#969696;}.cls-1,.cls-3,.cls-5{font-family:PTSans-Regular, PT Sans;}.cls-2,.cls-4,.cls-6,.cls-7,.cls-8{fill:none;stroke-linecap:round;stroke-linejoin:round;}.cls-2{stroke:#969696;}.cls-2,.cls-8{stroke-width:0.75px;}.cls-3{font-size:24px;}.cls-4,.cls-6,.cls-7,.cls-8{stroke:#000;}.cls-4{stroke-width:0.5px;}.cls-5{font-size:20px;}.cls-6{stroke-width:0.35px;}.cls-7{stroke-width:1.2px;}</style></defs><text class="cls-1" transform="translate(559.03 227.08) rotate(-90)">двор</text><line class="cls-2" x1="561.86" y1="237.84" x2="553.06" y2="237.84"/><polyline class="cls-2" points="558.36 241.34 561.86 237.84 558.36 234.34"/><text class="cls-3" transform="translate(242 121.29)">1K</text><text class="cls-3" transform="translate(227.13 151.58)">35.20</text><text class="cls-3" transform="translate(223.96 91.15)">№203</text><polyline class="cls-4" points="218.33 158.1 218.33 68.1 293.39 68.1 293.39 158.1"/><line class="cls-4" x1="218.33" y1="98.16" x2="293.39" y2="98.16"/><line class="cls-4" x1="218.33" y1="158.1" x2="293.39" y2="158.1"/><line class="cls-4" x1="218.33" y1="128.22" x2="293.39" y2="128.22"/><text class="cls-5" transform="translate(488.17 333.29) rotate(-90)">0.70</text><text class="cls-5" transform="translate(327.87 119.07)">12.10</text><text class="cls-5" transform="translate(327.87 333.51)">11.30</text><text class="cls-5" transform="translate(84.94 192.59)">4.10</text><text class="cls-5" transform="translate(81.75 371.79)">3.80</text><text class="cls-5" transform="translate(49.78 82.89)">3.20</text><polyline class="cls-6" points="443.14 381.85 517.95 381.85 517.95 252.08 443.14 252.08 443.14 381.85"/><line class="cls-4" x1="155.26" y1="442.42" x2="175.69" y2="442.42"/><line class="cls-4" x1="175.69" y1="442.42" x2="196.12" y2="442.42"/><line class="cls-4" x1="196.12" y1="442.42" x2="216.4" y2="442.42"/><line class="cls-4" x1="216.4" y1="442.42" x2="236.83" y2="442.42"/><line class="cls-4" x1="236.83" y1="442.42" x2="257.26" y2="442.42"/><line class="cls-4" x1="257.26" y1="442.42" x2="277.69" y2="442.42"/><line class="cls-4" x1="285.46" y1="442.42" x2="297.97" y2="442.42"/><line class="cls-4" x1="297.97" y1="442.42" x2="318.4" y2="442.42"/><line class="cls-4" x1="318.4" y1="442.42" x2="338.83" y2="442.42"/><line class="cls-4" x1="338.83" y1="442.42" x2="443.14" y2="442.42"/><line class="cls-7" x1="418.68" y1="430.19" x2="14.27" y2="430.19"/><line class="cls-7" x1="0.6" y1="442.42" x2="443.14" y2="442.42"/><polyline class="cls-7" points="418.68 0.6 170.51 0.6 170.51 14.27 418.68 14.27 418.68 0.6"/><line class="cls-7" x1="14.27" y1="217.41" x2="0.6" y2="217.41"/><line class="cls-7" x1="14.27" y1="149.5" x2="0.6" y2="149.5"/><line class="cls-7" x1="14.27" y1="430.19" x2="14.27" y2="384.01"/><line class="cls-7" x1="14.27" y1="302.43" x2="14.27" y2="217.41"/><line class="cls-7" x1="14.27" y1="149.5" x2="14.27" y2="142.6"/><line class="cls-7" x1="14.27" y1="137.27" x2="14.27" y2="14.27"/><line class="cls-4" x1="0.6" y1="0.6" x2="0.6" y2="14.27"/><line class="cls-7" x1="0.6" y1="0.6" x2="0.6" y2="149.5"/><line class="cls-4" x1="0.6" y1="442.42" x2="0.6" y2="430.19"/><line class="cls-7" x1="0.6" y1="217.41" x2="0.6" y2="442.42"/><path class="cls-8" d="M76.85,214.6a62.51,62.51,0,0,0-62.51-62.51"/><polyline class="cls-8" points="0.6 149.5 0.6 152.24 14.27 152.24 14.27 149.5 0.6 149.5"/><polyline class="cls-8" points="14.27 217.41 14.27 214.68 0.6 214.68 0.6 217.41 14.27 217.41"/><line class="cls-8" x1="14.27" y1="214.67" x2="76.71" y2="214.67"/><polyline class="cls-8" points="0.6 149.5 14.27 149.5 0.6 149.5"/><polyline class="cls-8" points="0.6 217.41 14.27 217.41 0.6 217.41"/><polyline class="cls-7" points="139.29 220.14 418.68 220.14 418.68 214.68 139.29 214.68"/><line class="cls-7" x1="133.82" y1="212.66" x2="139.29" y2="212.66"/><line class="cls-7" x1="133.82" y1="151.52" x2="139.29" y2="151.52"/><line class="cls-7" x1="133.82" y1="14.27" x2="133.82" y2="137.27"/><line class="cls-7" x1="133.82" y1="142.6" x2="133.82" y2="151.52"/><line class="cls-7" x1="133.82" y1="212.66" x2="133.82" y2="220.14"/><line class="cls-7" x1="139.29" y1="214.67" x2="139.29" y2="212.66"/><polyline class="cls-7" points="139.29 151.52 139.29 14.27 133.82 14.27"/><path class="cls-8" d="M195.11,209.86a55.75,55.75,0,0,0-55.75-55.75"/><polyline class="cls-8" points="133.82 151.52 133.82 154.25 139.29 154.25 139.29 151.52 133.82 151.52"/><polyline class="cls-8" points="139.29 212.66 139.29 209.93 133.82 209.93 133.82 212.66 139.29 212.66"/><line class="cls-8" x1="139.29" y1="209.93" x2="194.96" y2="209.93"/><polyline class="cls-8" points="139.29 151.52 133.82 151.52 139.29 151.52"/><polyline class="cls-8" points="139.29 212.66 133.82 212.66 139.29 212.66"/><line class="cls-7" x1="40.74" y1="137.27" x2="40.74" y2="142.6"/><polyline class="cls-7" points="133.82 137.27 91.67 137.27 91.67 142.6"/><line class="cls-7" x1="40.74" y1="137.27" x2="14.27" y2="137.27"/><line class="cls-7" x1="14.27" y1="142.6" x2="40.74" y2="142.6"/><line class="cls-7" x1="91.67" y1="142.6" x2="133.82" y2="142.6"/><path class="cls-8" d="M89.08,137.2A45.58,45.58,0,0,0,83,114.44"/><polyline class="cls-8" points="91.67 142.6 89.08 142.6 89.08 137.27 91.67 137.27 91.67 142.6"/><polyline class="cls-8" points="40.74 137.27 43.47 137.27 43.47 142.6 40.74 142.6 40.74 137.27"/><line class="cls-8" x1="43.47" y1="137.27" x2="82.89" y2="114.4"/><polyline class="cls-8" points="91.67 142.6 91.67 137.27 91.67 142.6"/><polyline class="cls-8" points="40.74 142.6 40.74 137.27 40.74 142.6"/><line class="cls-7" x1="170.51" y1="0.6" x2="0.6" y2="0.6"/><line class="cls-7" x1="14.27" y1="14.27" x2="170.51" y2="14.27"/><line class="cls-4" x1="170.51" y1="0.6" x2="170.51" y2="14.27"/><polyline class="cls-7" points="182.45 307.76 182.45 430.19 187.91 430.19 187.91 302.43"/><line class="cls-7" x1="133.82" y1="228.92" x2="139.29" y2="228.92"/><line class="cls-7" x1="133.82" y1="290.21" x2="139.29" y2="290.21"/><line class="cls-7" x1="133.82" y1="220.14" x2="133.82" y2="228.92"/><line class="cls-7" x1="133.82" y1="290.21" x2="133.82" y2="302.43"/><line class="cls-7" x1="139.29" y1="302.43" x2="139.29" y2="290.21"/><line class="cls-7" x1="139.29" y1="228.92" x2="139.29" y2="220.14"/><path class="cls-8" d="M139.36,287.33a55.75,55.75,0,0,0,55.75-55.75"/><polyline class="cls-8" points="133.82 290.2 133.82 287.47 139.29 287.47 139.29 290.2 133.82 290.2"/><polyline class="cls-8" points="139.29 228.92 139.29 231.65 133.82 231.65 133.82 228.92 139.29 228.92"/><line class="cls-8" x1="139.29" y1="231.65" x2="194.96" y2="231.65"/><polyline class="cls-8" points="139.29 290.2 133.82 290.2 139.29 290.2"/><polyline class="cls-8" points="139.29 228.92 133.82 228.92 139.29 228.92"/><polyline class="cls-7" points="437.38 61.74 443.14 61.74 443.14 61.02"/><polyline class="cls-7" points="437.38 167.06 443.14 167.06 443.14 167.77"/><polyline class="cls-7" points="433.93 58.44 432.2 58.44 418.68 58.44"/><polyline class="cls-7" points="437.38 61.02 437.38 58.44 433.93 58.44"/><polyline class="cls-7" points="433.93 170.51 432.2 170.51 418.68 170.51"/><polyline class="cls-7" points="437.38 167.77 437.38 170.51 433.93 170.51"/><polyline class="cls-7" points="437.38 275.82 443.14 275.82 443.14 275.24"/><polyline class="cls-7" points="437.38 381.27 443.14 381.27 443.14 381.85"/><polyline class="cls-7" points="433.93 272.51 432.2 272.51 418.68 272.51"/><polyline class="cls-7" points="437.38 275.24 437.38 272.51 433.93 272.51"/><polyline class="cls-7" points="433.93 384.58 432.2 384.58 418.68 384.58"/><polyline class="cls-7" points="437.38 381.85 437.38 384.58 433.93 384.58"/><line class="cls-7" x1="443.14" y1="430.19" x2="443.14" y2="381.85"/><line class="cls-7" x1="443.14" y1="275.24" x2="443.14" y2="167.77"/><polyline class="cls-7" points="443.14 61.02 443.14 0.6 386.52 0.6"/><line class="cls-7" x1="418.68" y1="0.6" x2="418.68" y2="58.43"/><line class="cls-7" x1="418.68" y1="170.51" x2="418.68" y2="272.51"/><line class="cls-7" x1="418.68" y1="384.58" x2="418.68" y2="430.19"/><line class="cls-8" x1="443.14" y1="167.05" x2="443.14" y2="61.74"/><line class="cls-8" x1="418.68" y1="58.43" x2="418.68" y2="170.51"/><line class="cls-8" x1="443.14" y1="167.05" x2="443.14" y2="61.74"/><line class="cls-8" x1="418.68" y1="170.51" x2="418.68" y2="58.43"/><polyline class="cls-8" points="433.93 170.51 433.93 165.47 437.38 165.47 437.38 170.51"/><polyline class="cls-8" points="437.38 114.4 437.38 118.86 433.93 118.86 433.93 114.4"/><line class="cls-8" x1="433.93" y1="165.47" x2="433.93" y2="118.86"/><line class="cls-8" x1="437.38" y1="118.86" x2="437.38" y2="165.47"/><polyline class="cls-8" points="433.93 114.4 433.93 110.08 437.38 110.08 437.38 114.4"/><polyline class="cls-8" points="437.38 58.44 437.38 63.47 433.93 63.47 433.93 58.44"/><line class="cls-8" x1="433.93" y1="110.08" x2="433.93" y2="63.47"/><line class="cls-8" x1="437.38" y1="63.47" x2="437.38" y2="110.08"/><polyline class="cls-8" points="433.93 170.51 437.38 170.51 433.93 170.51"/><polyline class="cls-8" points="437.38 170.51 437.38 167.77 437.38 170.51"/><polyline class="cls-8" points="433.93 170.51 432.2 170.51 418.68 170.51"/><polyline class="cls-8" points="433.93 58.44 437.38 58.44 433.93 58.44"/><polyline class="cls-8" points="437.38 58.44 437.38 61.02 437.38 58.44"/><polyline class="cls-8" points="433.93 58.44 432.2 58.44 418.68 58.44"/><polyline class="cls-8" points="443.14 167.77 443.14 167.06 437.38 167.06"/><polyline class="cls-8" points="443.14 61.02 443.14 61.74 437.38 61.74"/><line class="cls-6" x1="443.14" y1="381.27" x2="443.14" y2="275.82"/><line class="cls-6" x1="418.68" y1="272.51" x2="418.68" y2="384.58"/><line class="cls-6" x1="443.14" y1="381.27" x2="443.14" y2="275.82"/><line class="cls-6" x1="418.68" y1="384.58" x2="418.68" y2="272.51"/><polyline class="cls-8" points="433.93 384.58 433.93 379.55 437.38 379.55 437.38 384.58"/><polyline class="cls-8" points="437.38 328.47 437.38 332.93 433.93 332.93 433.93 328.47"/><line class="cls-8" x1="433.93" y1="379.55" x2="387.46" y2="379.55"/><polyline class="cls-8" points="433.93 328.47 433.93 324.16 437.38 324.16 437.38 328.47"/><polyline class="cls-8" points="437.38 272.51 437.38 277.55 433.93 277.55 433.93 272.51"/><line class="cls-8" x1="433.93" y1="277.54" x2="387.46" y2="277.54"/><path class="cls-8" d="M434,332.93a46.54,46.54,0,0,0-46.54,46.54"/><path class="cls-8" d="M387.46,277.47A46.54,46.54,0,0,0,434,324"/><polyline class="cls-8" points="433.93 384.58 437.38 384.58 433.93 384.58"/><polyline class="cls-8" points="437.38 384.58 437.38 381.85 437.38 384.58"/><polyline class="cls-8" points="433.93 384.58 432.2 384.58 418.68 384.58"/><polyline class="cls-8" points="433.93 272.51 437.38 272.51 433.93 272.51"/><polyline class="cls-8" points="437.38 272.51 437.38 275.24 437.38 272.51"/><polyline class="cls-8" points="433.93 272.51 432.2 272.51 418.68 272.51"/><polyline class="cls-8" points="443.14 381.85 443.14 381.27 437.38 381.27"/><polyline class="cls-8" points="443.14 275.24 443.14 275.82 437.38 275.82"/><polyline class="cls-6" points="517.95 252.08 517.95 381.85 524.71 381.85 524.71 252.08 517.95 252.08"/><line class="cls-7" x1="443.14" y1="442.42" x2="443.14" y2="430.19"/><polyline class="cls-8" points="14.27 384.01 41.46 384.01 41.46 343.15 14.27 343.15 14.27 384.01"/><polyline class="cls-8" points="21.75 380.55 20.45 380.41 19.3 379.69 18.44 378.83 17.86 377.68 17.58 376.53 17.58 360.84 17.86 359.55 18.44 358.4 19.3 357.54 20.45 356.96 21.75 356.82 33.98 356.82 35.27 356.96 36.28 357.54 37.29 358.4 37.86 359.55 38.01 360.84 38.01 376.53 37.86 377.68 37.29 378.83 36.28 379.69 35.27 380.41 33.98 380.55 21.75 380.55"/><polyline class="cls-8" points="36.28 353.36 19.3 353.36 18.44 353.07 17.86 352.5 17.58 351.64 17.58 350.63 17.86 349.33 18.44 348.18 19.3 347.32 20.45 346.75 21.75 346.6 33.98 346.6 35.27 346.75 36.28 347.32 37.29 348.18 37.86 349.33 38.01 350.63 38.01 351.64 37.86 352.5 37.14 353.07 36.28 353.36"/><polyline class="cls-8" points="14.27 302.43 41.46 302.43 41.46 343.15 14.27 343.15 14.27 302.43"/><polyline class="cls-8" points="21.75 305.74 20.45 306.03 19.3 306.61 18.44 307.47 17.86 308.62 17.58 309.92 17.58 325.45 17.86 326.75 18.44 327.9 19.3 328.76 20.45 329.34 21.75 329.63 33.98 329.63 35.27 329.34 36.28 328.76 37.29 327.9 37.86 326.75 38.01 325.45 38.01 309.92 37.86 308.62 37.29 307.47 36.28 306.61 35.27 306.03 33.98 305.74 21.75 305.74"/><polyline class="cls-8" points="36.28 332.93 19.3 332.93 18.44 333.22 17.86 333.8 17.58 334.66 17.58 335.67 17.86 336.96 18.44 338.11 19.3 338.98 20.45 339.55 21.75 339.7 33.98 339.7 35.27 339.55 36.28 338.98 37.29 338.11 37.86 336.96 38.01 335.67 38.01 334.66 37.86 333.8 37.14 333.22 36.28 332.93"/><polyline class="cls-6" points="446.59 257.12 517.95 257.12 517.95 253.81 446.59 253.81 446.59 257.12"/><polyline class="cls-6" points="446.59 256.4 517.95 256.4 517.95 254.67 446.59 254.67 446.59 256.4"/><polyline class="cls-6" points="445.73 254.67 445.73 256.4 447.31 256.4 447.31 254.67 445.73 254.67"/><polyline class="cls-6" points="517.08 254.67 517.08 256.4 518.81 256.4 518.81 254.67 517.08 254.67"/><polyline class="cls-6" points="455.94 254.67 455.94 256.4 457.52 256.4 457.52 254.67 455.94 254.67"/><polyline class="cls-6" points="466.01 254.67 466.01 256.4 467.74 256.4 467.74 254.67 466.01 254.67"/><polyline class="cls-6" points="476.23 254.67 476.23 256.4 477.95 256.4 477.95 254.67 476.23 254.67"/><polyline class="cls-6" points="486.44 254.67 486.44 256.4 488.17 256.4 488.17 254.67 486.44 254.67"/><polyline class="cls-6" points="496.65 254.67 496.65 256.4 498.38 256.4 498.38 254.67 496.65 254.67"/><polyline class="cls-6" points="506.87 254.67 506.87 256.4 508.6 256.4 508.6 254.67 506.87 254.67"/><polyline class="cls-6" points="446.59 380.27 517.95 380.27 517.95 376.81 446.59 376.81 446.59 380.27"/><polyline class="cls-6" points="446.59 379.4 517.95 379.4 517.95 377.68 446.59 377.68 446.59 379.4"/><polyline class="cls-6" points="445.73 377.68 445.73 379.4 447.31 379.4 447.31 377.68 445.73 377.68"/><polyline class="cls-6" points="517.08 377.68 517.08 379.4 518.81 379.4 518.81 377.68 517.08 377.68"/><polyline class="cls-6" points="455.94 377.68 455.94 379.4 457.52 379.4 457.52 377.68 455.94 377.68"/><polyline class="cls-6" points="466.01 377.68 466.01 379.4 467.74 379.4 467.74 377.68 466.01 377.68"/><polyline class="cls-6" points="476.23 377.68 476.23 379.4 477.95 379.4 477.95 377.68 476.23 377.68"/><polyline class="cls-6" points="486.44 377.68 486.44 379.4 488.17 379.4 488.17 377.68 486.44 377.68"/><polyline class="cls-6" points="496.65 377.68 496.65 379.4 498.38 379.4 498.38 377.68 496.65 377.68"/><polyline class="cls-6" points="506.87 377.68 506.87 379.4 508.6 379.4 508.6 377.68 506.87 377.68"/><line class="cls-4" x1="174.39" y1="426.16" x2="139.72" y2="426.16"/><line class="cls-4" x1="135.55" y1="422.28" x2="135.55" y2="335.67"/><line class="cls-4" x1="178.42" y1="422.28" x2="178.42" y2="335.67"/><line class="cls-4" x1="131.52" y1="311.21" x2="131.52" y2="430.19"/><polyline class="cls-4" points="131.52 311.21 182.45 311.21 182.45 430.19 131.52 430.19"/><line class="cls-4" x1="171.37" y1="349.62" x2="171.37" y2="417.38"/><line class="cls-4" x1="169.36" y1="419.25" x2="144.76" y2="419.25"/><line class="cls-4" x1="142.74" y1="349.62" x2="142.74" y2="417.38"/><line class="cls-4" x1="158.28" y1="405.44" x2="160.72" y2="405.44"/><line class="cls-4" x1="156.98" y1="406.59" x2="156.98" y2="409.04"/><line class="cls-4" x1="155.83" y1="405.44" x2="153.24" y2="405.44"/><line class="cls-4" x1="156.98" y1="404.15" x2="156.98" y2="401.7"/><path class="cls-4" d="M178.42,335.6c0-11.49-9.57-20.79-21.36-20.79s-21.37,9.3-21.37,20.79"/><path class="cls-4" d="M135.69,422.2a4,4,0,0,0,4.1,4"/><path class="cls-4" d="M174.46,426.16a4,4,0,0,0,4.1-4"/><path class="cls-4" d="M155,405.37a2.09,2.09,0,1,0,2.09-2.08,2.09,2.09,0,0,0-2.09,2.08"/><path class="cls-4" d="M171.37,349.55a14.32,14.32,0,0,0-28.63,0"/><path class="cls-4" d="M169.43,419.25a2,2,0,0,0,2.08-1.94"/><path class="cls-4" d="M142.74,417.31a2,2,0,0,0,2.09,1.94"/><path class="cls-4" d="M154.25,405.37a2.81,2.81,0,1,0,2.81-2.8,2.81,2.81,0,0,0-2.81,2.8"/><line class="cls-4" x1="76.85" y1="349.62" x2="42.9" y2="349.62"/><line class="cls-4" x1="76.85" y1="308.91" x2="76.85" y2="349.62"/><line class="cls-4" x1="42.9" y1="308.91" x2="76.85" y2="308.91"/><line class="cls-4" x1="42.9" y1="349.62" x2="42.9" y2="308.91"/><polyline class="cls-4" points="54.69 333.51 54.69 325.31 57.43 330.78 60.16 325.31 60.16 333.51"/><polyline class="cls-4" points="68.36 332.07 66.92 333.51 64.33 333.51 62.9 332.07 62.9 326.6 64.33 325.31 66.92 325.31 68.36 326.6"/><path class="cls-8" d="M214.89,394.37a1.37,1.37,0,0,0-1.37,1.36"/><line class="cls-8" x1="213.38" y1="427.02" x2="213.38" y2="395.8"/><path class="cls-8" d="M213.52,427a1.37,1.37,0,0,0,1.37,1.37"/><line class="cls-8" x1="266.47" y1="428.32" x2="214.82" y2="428.32"/><path class="cls-8" d="M266.54,428.32a1.37,1.37,0,0,0,1.37-1.37"/><line class="cls-8" x1="267.76" y1="395.8" x2="267.76" y2="427.02"/><path class="cls-8" d="M267.91,395.73a1.37,1.37,0,0,0-1.37-1.36"/><line class="cls-8" x1="214.82" y1="394.37" x2="266.47" y2="394.37"/><line class="cls-8" x1="182.45" y1="389.33" x2="298.69" y2="389.33"/><polyline class="cls-8" points="182.45 389.33 182.45 430.19 298.69 430.19"/><line class="cls-8" x1="218.13" y1="397.82" x2="238.27" y2="397.82"/><line class="cls-8" x1="239.56" y1="399.11" x2="239.56" y2="420.26"/><line class="cls-8" x1="238.27" y1="421.56" x2="218.13" y2="421.56"/><line class="cls-8" x1="216.83" y1="420.26" x2="216.83" y2="399.11"/><line class="cls-8" x1="218.13" y1="397.82" x2="218.13" y2="397.82"/><line class="cls-8" x1="243.02" y1="397.82" x2="263.01" y2="397.82"/><line class="cls-8" x1="264.45" y1="399.11" x2="264.45" y2="420.26"/><line class="cls-8" x1="263.01" y1="421.56" x2="243.02" y2="421.56"/><line class="cls-8" x1="241.58" y1="420.26" x2="241.58" y2="399.11"/><line class="cls-8" x1="243.02" y1="397.82" x2="243.02" y2="397.82"/><path class="cls-8" d="M239.71,399a1.37,1.37,0,0,0-1.37-1.37"/><path class="cls-8" d="M238.34,421.56a1.37,1.37,0,0,0,1.37-1.37"/><path class="cls-8" d="M216.83,420.19a1.37,1.37,0,0,0,1.37,1.37"/><path class="cls-8" d="M218.2,397.67a1.37,1.37,0,0,0-1.37,1.37"/><path class="cls-8" d="M264.45,399a1.37,1.37,0,0,0-1.36-1.37"/><path class="cls-8" d="M263.09,421.56a1.37,1.37,0,0,0,1.36-1.37"/><path class="cls-8" d="M241.72,420.19a1.37,1.37,0,0,0,1.37,1.37"/><path class="cls-8" d="M243.09,397.67a1.37,1.37,0,0,0-1.37,1.37"/><path class="cls-8" d="M14.27,396.24"/><polyline class="cls-8" points="14.27 396.24 35.99 396.24 35.99 430.19"/><line class="cls-8" x1="35.99" y1="430.19" x2="14.27" y2="430.19"/><line class="cls-8" x1="14.27" y1="430.19" x2="14.27" y2="396.24"/><line class="cls-8" x1="418.68" y1="389.33" x2="289.92" y2="389.33"/><polyline class="cls-8" points="418.68 389.33 418.68 430.19 289.92 430.19"/><line class="cls-4" x1="14.27" y1="301.71" x2="46.21" y2="301.71"/><line class="cls-4" x1="54.98" y1="301.71" x2="54.98" y2="226.9"/><line class="cls-4" x1="54.98" y1="226.9" x2="14.27" y2="226.9"/><polyline class="cls-4" points="14.27 396.24 35.99 396.24 35.99 430.19 14.27 430.19 14.27 396.24"/><line class="cls-4" x1="80.16" y1="416.52" x2="80.16" y2="392.78"/><polyline class="cls-4" points="81.17 417.96 81.17 426.74 55.99 426.74"/><line class="cls-4" x1="68.65" y1="412.35" x2="59.3" y2="412.35"/><polyline class="cls-4" points="80.16 392.93 78 412.35 68.65 412.35"/><line class="cls-4" x1="57" y1="392.93" x2="59.3" y2="412.35"/><line class="cls-4" x1="79.58" y1="392.93" x2="77.28" y2="412.35"/><line class="cls-4" x1="57.57" y1="392.93" x2="59.87" y2="412.35"/><line class="cls-4" x1="57" y1="416.52" x2="57" y2="392.78"/><line class="cls-4" x1="55.99" y1="426.74" x2="55.99" y2="417.96"/><polyline class="cls-4" points="80.16 392.93 79.87 390.19 78.86 387.75 77.28 385.59 75.12 383.86 72.68 382.57 69.94 381.99 67.21 381.99 64.48 382.57 62.03 383.86 59.87 385.59 58.29 387.75 57.43 390.19 57 392.93"/><polyline class="cls-4" points="79.58 392.93 79.3 390.34 78.29 388.04 76.85 386.02 74.84 384.29 72.53 383.14 69.94 382.57 67.36 382.57 64.77 383.14 62.32 384.29 60.45 386.02 58.87 388.04 58 390.34 57.57 392.93"/><path class="cls-4" d="M80,416.41a104.75,104.75,0,0,0-22.53,0"/><path class="cls-4" d="M81.31,417.89a1.51,1.51,0,0,0-1.35-1.5"/><path class="cls-4" d="M57.35,416.38A1.52,1.52,0,0,0,56,417.89"/><path class="cls-4" d="M68.72,419.83a1.23,1.23,0,1,0,1.22,1.22,1.22,1.22,0,0,0-1.22-1.22"/><line class="cls-7" x1="128.07" y1="307.76" x2="128.07" y2="302.43"/><line class="cls-7" x1="77.14" y1="307.76" x2="77.14" y2="302.43"/><line class="cls-7" x1="187.92" y1="302.43" x2="139.29" y2="302.43"/><line class="cls-7" x1="133.82" y1="302.43" x2="128.07" y2="302.43"/><line class="cls-7" x1="77.14" y1="302.43" x2="41.46" y2="302.43"/><line class="cls-7" x1="18.3" y1="307.76" x2="37.43" y2="307.76"/><line class="cls-7" x1="41.46" y1="307.76" x2="77.14" y2="307.76"/><line class="cls-7" x1="128.07" y1="307.76" x2="182.45" y2="307.76"/><path class="cls-8" d="M86.11,279.6A45.58,45.58,0,0,0,80,302.36"/><polyline class="cls-8" points="77.14 307.76 79.87 307.76 79.87 302.43 77.14 302.43 77.14 307.76"/><polyline class="cls-8" points="128.07 302.43 125.48 302.43 125.48 307.76 128.07 307.76 128.07 302.43"/><line class="cls-8" x1="125.48" y1="302.43" x2="85.91" y2="279.56"/><polyline class="cls-8" points="77.14 302.43 77.14 307.76 77.14 302.43"/><polyline class="cls-8" points="128.07 302.43 128.07 307.76 128.07 302.43"/><polyline class="cls-7" points="432.2 201.15 418.68 201.15 418.68 241.87 432.2 241.87 432.2 201.15"/><polyline class="cls-7" points="418.68 0.6 418.68 27.79 432.2 27.79 432.2 0.6"/><polyline class="cls-7" points="133.82 214.68 133.82 228.34 188.2 228.34 188.2 214.68 133.82 214.68"/><polyline class="cls-4" points="94.83 414.65 94.83 430.19 131.52 430.19 131.52 414.65"/><line class="cls-4" x1="119" y1="430.19" x2="107.35" y2="430.19"/><line class="cls-4" x1="116.27" y1="417.67" x2="114.26" y2="417.67"/><line class="cls-4" x1="113.1" y1="420.84" x2="113.1" y2="418.82"/><line class="cls-4" x1="112.1" y1="417.67" x2="110.08" y2="417.67"/><line class="cls-4" x1="113.1" y1="416.52" x2="113.1" y2="414.65"/><path class="cls-4" d="M97.13,413.53a16.29,16.29,0,0,0,6.33,7.72"/><path class="cls-4" d="M103.46,421.37a16.21,16.21,0,0,0,9.73,2.29"/><path class="cls-4" d="M123,421.25a16.35,16.35,0,0,0,6.33-7.72"/><path class="cls-4" d="M113.3,423.66a16.24,16.24,0,0,0,9.74-2.29"/><path class="cls-4" d="M112,402.36a30,30,0,0,0-11.12,3"/><path class="cls-4" d="M131.51,414.54a9.27,9.27,0,0,0-3.46-7.63"/><path class="cls-4" d="M114.6,402.32a18.23,18.23,0,0,0-2.56,0"/><path class="cls-4" d="M102.9,420.76a66.8,66.8,0,0,0,20.55,0"/><path class="cls-4" d="M125.44,427.18a23,23,0,0,0,5.21-15"/><path class="cls-4" d="M113.26,429.32a45.91,45.91,0,0,0,10.51-1.13"/><path class="cls-4" d="M123.79,428.24a3.07,3.07,0,0,0,1.71-1.06"/><path class="cls-4" d="M113.19,427.89a78,78,0,0,0,10.35-.75"/><path class="cls-4" d="M125.46,426.17a20.79,20.79,0,0,0,5.19-14"/><path class="cls-4" d="M123.67,427.14a3.11,3.11,0,0,0,1.9-1"/><path class="cls-4" d="M95.84,412.18a20.81,20.81,0,0,0,5.21,14"/><path class="cls-4" d="M95.84,412.2a23.13,23.13,0,0,0,5.23,15"/><path class="cls-4" d="M102.92,427.16a79.65,79.65,0,0,0,10.35.73"/><path class="cls-4" d="M102.79,428.2a45.85,45.85,0,0,0,10.51,1.12"/><path class="cls-4" d="M101.08,426.12a3.06,3.06,0,0,0,1.89,1"/><path class="cls-4" d="M101,427.19a3.11,3.11,0,0,0,1.71,1.05"/><path class="cls-4" d="M98.45,406.91A9.27,9.27,0,0,0,95,414.54"/><path class="cls-4" d="M100.82,405.31a14.33,14.33,0,0,0-2.44,1.58"/><path class="cls-4" d="M128.11,406.89a14,14,0,0,0-2.44-1.58"/><path class="cls-4" d="M125.65,405.39a30,30,0,0,0-11.13-3"/><path class="cls-4" d="M118.37,404.89a21.55,21.55,0,0,0-10.1,0"/><path class="cls-4" d="M99.05,409.09a5.53,5.53,0,0,0-1.9,4.57"/><path class="cls-4" d="M108.13,404.88a19.89,19.89,0,0,0-9.15,4.2"/><path class="cls-4" d="M129.35,413.66a5.53,5.53,0,0,0-1.91-4.57"/><path class="cls-4" d="M127.52,409.08a19.92,19.92,0,0,0-9.16-4.2"/><path class="cls-4" d="M115.55,417.6a2.38,2.38,0,1,0-2.37,2.37,2.37,2.37,0,0,0,2.37-2.37"/><path class="cls-4" d="M114.83,417.6a1.66,1.66,0,1,0-1.65,1.65,1.65,1.65,0,0,0,1.65-1.65"/></svg>