<svg id="_4" data-name="4" xmlns="http://www.w3.org/2000/svg" viewBox="0 0 250.92 513.17"><defs><style>.cls-1{font-size:8px;}.cls-1,.cls-4{fill:#808184;}.cls-1,.cls-6,.cls-7{font-family:BigCityGrotesquePro-Regular, BigCity Grotesque Pro;}.cls-2{letter-spacing:-0.03em;}.cls-3,.cls-5{fill:none;stroke-linecap:round;stroke-linejoin:round;}.cls-3{stroke:#808184;stroke-width:0.75px;}.cls-5{stroke:#000;stroke-width:0.5px;}.cls-6{font-size:20px;}.cls-6,.cls-7{fill:#212121;}.cls-7{font-size:24px;}.cls-8{letter-spacing:-0.03em;}.cls-9{letter-spacing:-0.02em;}</style></defs><title>2floor_4flat</title><text class="cls-1" transform="translate(104.41 6.86)"><tspan class="cls-2">у</tspan><tspan x="3.72" y="0">лица | сквер</tspan></text><line class="cls-3" x1="98.99" y1="8.12" x2="98.99" y2="1.09"/><path class="cls-4" d="M101.87,33.53a.31.31,0,0,1-.42-.09L99,29.57l-2.47,3.87a.29.29,0,0,1-.41.09.31.31,0,0,1-.09-.42l2.72-4.26a.29.29,0,0,1,.5,0L102,33.11a.37.37,0,0,1,.05.17A.31.31,0,0,1,101.87,33.53Z" transform="translate(0 -28.33)"/><path d="M250.3,452.94l-14.72,70.65V452.94Zm0,70.65V452.94l-14.72,70.65Z" transform="translate(0 -28.33)"/><path class="cls-5" d="M250.3,452.94l-14.72,70.65V452.94Zm0,70.65V452.94l-14.72,70.65Z" transform="translate(0 -28.33)"/><path d="M.57,535.36v0Z" transform="translate(0 -28.33)"/><path class="cls-5" d="M.57,535.36v0Z" transform="translate(0 -28.33)"/><path d="M13.82,447.05.57,535.36V447.05Zm0,88.31V447.05L.57,535.36Z" transform="translate(0 -28.33)"/><path class="cls-5" d="M13.82,447.05.57,535.36V447.05Zm0,88.31V447.05L.57,535.36Z" transform="translate(0 -28.33)"/><path d="M15,447.05l-1.22,88.31V447.05Zm0,88.31V447.05l-1.22,88.31Z" transform="translate(0 -28.33)"/><path class="cls-5" d="M15,447.05l-1.22,88.31V447.05Zm0,88.31V447.05l-1.22,88.31Z" transform="translate(0 -28.33)"/><path d="M250.55,106.06l-15,182.27V106.06Zm0,182.27V106.06l-15,182.27Z" transform="translate(0 -28.33)"/><path class="cls-5" d="M250.55,106.06l-15,182.27V106.06Zm0,182.27V106.06l-15,182.27Z" transform="translate(0 -28.33)"/><path d="M15,106.06.57,288.33V106.06Zm0,182.27V106.06L.57,288.33Z" transform="translate(0 -28.33)"/><path class="cls-5" d="M15,106.06.57,288.33V106.06Zm0,182.27V106.06L.57,288.33Z" transform="translate(0 -28.33)"/><path d="M15.29,120.78,15,288.33V106.06Zm0,167.55V120.78L15,288.33Z" transform="translate(0 -28.33)"/><path class="cls-5" d="M15.29,120.78,15,288.33V106.06Zm0,167.55V120.78L15,288.33Z" transform="translate(0 -28.33)"/><line class="cls-5" x1="0.57" y1="92.44" x2="0.57" y2="77.72"/><line class="cls-5" x1="0.57" y1="89.5" x2="0.57" y2="77.72"/><line class="cls-5" x1="0.57" y1="78.95" x2="0.57" y2="77.72"/><line class="cls-5" x1="24.61" y1="92.44" x2="15.29" y2="82.87"/><line class="cls-5" x1="35.16" y1="92.44" x2="20.44" y2="77.72"/><line class="cls-5" x1="45.71" y1="92.44" x2="30.99" y2="77.72"/><line class="cls-5" x1="56.26" y1="92.44" x2="41.54" y2="77.72"/><line class="cls-5" x1="66.81" y1="92.44" x2="52.09" y2="77.72"/><line class="cls-5" x1="72.45" y1="87.53" x2="62.88" y2="77.72"/><line class="cls-5" x1="183.09" y1="92.44" x2="178.43" y2="87.78"/><line class="cls-5" x1="193.64" y1="92.44" x2="178.92" y2="77.72"/><line class="cls-5" x1="204.18" y1="92.44" x2="189.46" y2="77.72"/><line class="cls-5" x1="214.73" y1="92.44" x2="200.01" y2="77.72"/><line class="cls-5" x1="225.28" y1="92.44" x2="210.56" y2="77.72"/><line class="cls-5" x1="235.58" y1="92.2" x2="221.11" y2="77.72"/><line class="cls-5" x1="235.58" y1="81.65" x2="231.66" y2="77.72"/><line class="cls-5" x1="250.55" y1="92.44" x2="250.55" y2="85.82"/><line class="cls-5" x1="250.55" y1="92.44" x2="250.55" y2="77.72"/><line class="cls-5" x1="0.57" y1="92.44" x2="0.57" y2="77.72"/><line class="cls-5" x1="0.57" y1="87.53" x2="0.57" y2="77.72"/><line class="cls-5" x1="16.02" y1="92.44" x2="15.29" y2="91.71"/><line class="cls-5" x1="26.57" y1="92.44" x2="15.29" y2="81.16"/><line class="cls-5" x1="37.12" y1="92.44" x2="22.4" y2="77.72"/><line class="cls-5" x1="47.67" y1="92.44" x2="32.95" y2="77.72"/><line class="cls-5" x1="58.22" y1="92.44" x2="43.5" y2="77.72"/><line class="cls-5" x1="68.77" y1="92.44" x2="54.05" y2="77.72"/><line class="cls-5" x1="72.45" y1="85.57" x2="64.6" y2="77.72"/><line class="cls-5" x1="185.05" y1="92.44" x2="178.43" y2="85.82"/><line class="cls-5" x1="195.6" y1="92.44" x2="180.88" y2="77.72"/><line class="cls-5" x1="206.15" y1="92.44" x2="191.43" y2="77.72"/><line class="cls-5" x1="216.7" y1="92.44" x2="201.98" y2="77.72"/><line class="cls-5" x1="227.24" y1="92.44" x2="212.52" y2="77.72"/><line class="cls-5" x1="235.58" y1="90.48" x2="223.07" y2="77.72"/><line class="cls-5" x1="235.58" y1="79.93" x2="233.62" y2="77.72"/><line class="cls-5" x1="250.55" y1="92.44" x2="250.55" y2="84.1"/><line class="cls-5" x1="250.55" y1="92.44" x2="250.55" y2="77.72"/><line class="cls-5" x1="0.57" y1="92.44" x2="0.57" y2="77.72"/><line class="cls-5" x1="0.57" y1="91.21" x2="0.57" y2="77.72"/><line class="cls-5" x1="0.57" y1="80.67" x2="0.57" y2="77.72"/><line class="cls-5" x1="22.89" y1="92.44" x2="15.29" y2="84.84"/><line class="cls-5" x1="33.44" y1="92.44" x2="18.72" y2="77.72"/><line class="cls-5" x1="43.99" y1="92.44" x2="29.27" y2="77.72"/><line class="cls-5" x1="54.54" y1="92.44" x2="39.82" y2="77.72"/><line class="cls-5" x1="65.09" y1="92.44" x2="50.37" y2="77.72"/><line class="cls-5" x1="72.45" y1="89.25" x2="60.92" y2="77.72"/><line class="cls-5" x1="72.45" y1="78.7" x2="71.47" y2="77.72"/><line class="cls-5" x1="181.12" y1="92.44" x2="178.43" y2="89.5"/><line class="cls-5" x1="191.67" y1="92.44" x2="178.43" y2="78.95"/><line class="cls-5" x1="202.22" y1="92.44" x2="187.5" y2="77.72"/><line class="cls-5" x1="212.77" y1="92.44" x2="198.3" y2="77.72"/><line class="cls-5" x1="223.32" y1="92.44" x2="208.84" y2="77.72"/><line class="cls-5" x1="234.11" y1="92.44" x2="219.39" y2="77.72"/><line class="cls-5" x1="235.58" y1="83.61" x2="229.94" y2="77.72"/><line class="cls-5" x1="250.55" y1="92.44" x2="250.55" y2="87.78"/><line class="cls-5" x1="250.55" y1="92.44" x2="250.55" y2="77.72"/><line class="cls-5" x1="250.55" y1="92.44" x2="250.55" y2="77.72"/><line class="cls-5" x1="0.57" y1="77.72" x2="0.57" y2="68.89"/><line class="cls-5" x1="8.17" y1="77.72" x2="0.57" y2="68.89"/><line class="cls-5" x1="20.69" y1="77.72" x2="11.85" y2="68.89"/><line class="cls-5" x1="32.95" y1="77.72" x2="24.37" y2="68.89"/><line class="cls-5" x1="45.46" y1="77.72" x2="36.63" y2="68.89"/><line class="cls-5" x1="57.97" y1="77.72" x2="49.14" y2="68.89"/><line class="cls-5" x1="70.49" y1="77.72" x2="61.65" y2="68.89"/><line class="cls-5" x1="182.84" y1="77.72" x2="178.43" y2="73.31"/><line class="cls-5" x1="195.11" y1="77.72" x2="186.52" y2="68.89"/><line class="cls-5" x1="207.62" y1="77.72" x2="198.79" y2="68.89"/><line class="cls-5" x1="220.13" y1="77.72" x2="211.3" y2="68.89"/><line class="cls-5" x1="232.64" y1="77.72" x2="223.81" y2="68.89"/><line class="cls-5" x1="250.55" y1="77.72" x2="236.32" y2="68.89"/><line class="cls-5" x1="250.55" y1="77.72" x2="250.55" y2="68.89"/><line class="cls-5" x1="250.55" y1="77.72" x2="250.55" y2="68.89"/><line class="cls-5" x1="250.55" y1="68.89" x2="250.55" y2="77.72"/><line class="cls-5" x1="250.55" y1="68.89" x2="243.93" y2="77.72"/><line class="cls-5" x1="240.25" y1="68.89" x2="231.41" y2="77.72"/><line class="cls-5" x1="227.73" y1="68.89" x2="218.9" y2="77.72"/><line class="cls-5" x1="215.22" y1="68.89" x2="206.39" y2="77.72"/><line class="cls-5" x1="202.71" y1="68.89" x2="194.13" y2="77.72"/><line class="cls-5" x1="190.45" y1="68.89" x2="181.61" y2="77.72"/><line class="cls-5" x1="72.45" y1="74.53" x2="69.26" y2="77.72"/><line class="cls-5" x1="65.58" y1="68.89" x2="56.75" y2="77.72"/><line class="cls-5" x1="53.07" y1="68.89" x2="44.24" y2="77.72"/><line class="cls-5" x1="40.8" y1="68.89" x2="31.97" y2="77.72"/><line class="cls-5" x1="28.29" y1="68.89" x2="19.46" y2="77.72"/><line class="cls-5" x1="15.78" y1="68.89" x2="6.95" y2="77.72"/><line class="cls-5" x1="3.27" y1="68.89" x2="0.57" y2="77.72"/><line class="cls-5" x1="0.57" y1="68.89" x2="0.57" y2="77.72"/><line class="cls-5" x1="178.43" y1="65.95" x2="178.43" y2="77.72"/><line class="cls-5" x1="178.43" y1="77.72" x2="178.43" y2="92.44"/><line class="cls-5" x1="72.45" y1="65.95" x2="0.57" y2="65.95"/><line class="cls-5" x1="72.45" y1="92.44" x2="72.45" y2="77.72"/><line class="cls-5" x1="72.45" y1="77.72" x2="72.45" y2="65.95"/><line class="cls-5" x1="250.55" y1="65.95" x2="178.43" y2="65.95"/><line class="cls-5" x1="178.43" y1="68.89" x2="250.55" y2="68.89"/><line class="cls-5" x1="0.57" y1="68.89" x2="72.45" y2="68.89"/><line class="cls-5" x1="15.29" y1="77.72" x2="15.29" y2="92.44"/><line class="cls-5" x1="15.29" y1="92.44" x2="72.45" y2="92.44"/><line class="cls-5" x1="250.55" y1="77.72" x2="250.55" y2="92.44"/><line class="cls-5" x1="250.55" y1="92.44" x2="250.55" y2="92.44"/><line class="cls-5" x1="178.43" y1="92.44" x2="235.58" y2="92.44"/><line class="cls-5" x1="235.58" y1="92.44" x2="235.58" y2="77.72"/><line class="cls-5" x1="0.57" y1="92.44" x2="0.57" y2="77.72"/><line class="cls-5" x1="178.43" y1="77.72" x2="235.58" y2="77.72"/><line class="cls-5" x1="235.58" y1="77.72" x2="250.55" y2="77.72"/><line class="cls-5" x1="250.55" y1="77.72" x2="250.55" y2="77.72"/><line class="cls-5" x1="0.57" y1="77.72" x2="0.57" y2="77.72"/><line class="cls-5" x1="0.57" y1="77.72" x2="15.29" y2="77.72"/><line class="cls-5" x1="15.29" y1="77.72" x2="72.45" y2="77.72"/><polyline class="cls-5" points="126.91 72.08 172.54 72.08 172.54 70.61 126.91 70.61 126.91 72.08"/><polyline class="cls-5" points="78.33 72.08 123.97 72.08 123.97 70.61 78.33 70.61 78.33 72.08"/><polyline class="cls-5" points="123.97 73.55 126.91 73.55 126.91 68.89 123.97 68.89 123.97 73.55"/><line class="cls-5" x1="172.54" y1="73.55" x2="178.43" y2="73.55"/><polyline class="cls-5" points="178.43 68.89 172.54 68.89 172.54 73.55"/><polyline class="cls-5" points="72.45 73.55 78.33 73.55 78.33 68.89 72.45 68.89"/><line class="cls-5" x1="172.54" y1="73.55" x2="126.91" y2="73.55"/><line class="cls-5" x1="123.96" y1="73.55" x2="78.34" y2="73.55"/><line class="cls-5" x1="78.34" y1="68.89" x2="123.96" y2="68.89"/><line class="cls-5" x1="126.91" y1="68.89" x2="172.54" y2="68.89"/><polyline class="cls-5" points="72.45 93.67 72.45 94.16 72.45 95.39 178.43 95.39"/><polyline class="cls-5" points="178.43 93.67 178.43 94.16 178.43 95.39"/><polyline class="cls-5" points="72.45 63 178.43 63 178.43 65.46"/><line class="cls-5" x1="2.53" y1="418.72" x2="2.04" y2="418.22"/><line class="cls-5" x1="13.08" y1="418.72" x2="2.04" y2="407.68"/><line class="cls-5" x1="13.82" y1="408.9" x2="2.04" y2="397.13"/><line class="cls-5" x1="13.82" y1="398.35" x2="2.04" y2="386.58"/><line class="cls-5" x1="13.82" y1="387.81" x2="2.04" y2="376.03"/><line class="cls-5" x1="13.82" y1="377.26" x2="2.04" y2="365.48"/><line class="cls-5" x1="13.82" y1="366.71" x2="2.04" y2="354.93"/><line class="cls-5" x1="13.82" y1="356.16" x2="2.04" y2="344.38"/><line class="cls-5" x1="13.82" y1="345.61" x2="2.04" y2="333.84"/><line class="cls-5" x1="13.82" y1="335.06" x2="2.04" y2="323.29"/><line class="cls-5" x1="13.82" y1="324.51" x2="2.04" y2="312.74"/><line class="cls-5" x1="13.82" y1="313.72" x2="2.04" y2="302.19"/><line class="cls-5" x1="13.82" y1="303.17" x2="2.04" y2="291.64"/><line class="cls-5" x1="13.82" y1="292.62" x2="2.04" y2="280.85"/><line class="cls-5" x1="13.82" y1="282.07" x2="2.04" y2="270.3"/><line class="cls-5" x1="13.82" y1="271.52" x2="2.04" y2="259.99"/><line class="cls-5" x1="13.82" y1="260.98" x2="12.59" y2="259.99"/><line class="cls-5" x1="4.25" y1="418.72" x2="2.04" y2="416.26"/><line class="cls-5" x1="13.82" y1="417.49" x2="2.04" y2="405.71"/><line class="cls-5" x1="13.82" y1="406.94" x2="2.04" y2="395.16"/><line class="cls-5" x1="13.82" y1="396.39" x2="2.04" y2="384.62"/><line class="cls-5" x1="13.82" y1="385.84" x2="2.04" y2="374.07"/><line class="cls-5" x1="13.82" y1="375.29" x2="2.04" y2="363.52"/><line class="cls-5" x1="13.82" y1="364.75" x2="2.04" y2="352.97"/><line class="cls-5" x1="13.82" y1="354.2" x2="2.04" y2="342.42"/><line class="cls-5" x1="13.82" y1="343.65" x2="2.04" y2="331.87"/><line class="cls-5" x1="13.82" y1="333.1" x2="2.04" y2="321.32"/><line class="cls-5" x1="13.82" y1="322.55" x2="2.04" y2="310.78"/><line class="cls-5" x1="13.82" y1="312" x2="2.04" y2="300.23"/><line class="cls-5" x1="13.82" y1="301.45" x2="2.04" y2="289.68"/><line class="cls-5" x1="13.82" y1="290.9" x2="2.04" y2="279.13"/><line class="cls-5" x1="13.82" y1="280.36" x2="2.04" y2="268.58"/><line class="cls-5" x1="13.82" y1="269.81" x2="4" y2="259.99"/><line class="cls-5" x1="11.12" y1="418.72" x2="2.04" y2="409.64"/><line class="cls-5" x1="13.82" y1="410.87" x2="2.04" y2="399.09"/><line class="cls-5" x1="13.82" y1="400.07" x2="2.04" y2="388.54"/><line class="cls-5" x1="13.82" y1="389.52" x2="2.04" y2="377.75"/><line class="cls-5" x1="13.82" y1="378.97" x2="2.04" y2="367.2"/><line class="cls-5" x1="13.82" y1="368.42" x2="2.04" y2="356.65"/><line class="cls-5" x1="13.82" y1="357.88" x2="2.04" y2="346.1"/><line class="cls-5" x1="13.82" y1="347.33" x2="2.04" y2="335.55"/><line class="cls-5" x1="13.82" y1="336.78" x2="2.04" y2="325"/><line class="cls-5" x1="13.82" y1="326.23" x2="2.04" y2="314.45"/><line class="cls-5" x1="13.82" y1="315.68" x2="2.04" y2="303.91"/><line class="cls-5" x1="13.82" y1="305.13" x2="2.04" y2="293.36"/><line class="cls-5" x1="13.82" y1="294.58" x2="2.04" y2="282.81"/><line class="cls-5" x1="13.82" y1="284.04" x2="2.04" y2="272.26"/><line class="cls-5" x1="13.82" y1="273.49" x2="2.04" y2="261.71"/><line class="cls-5" x1="13.82" y1="262.94" x2="10.87" y2="259.99"/><line class="cls-5" x1="14.8" y1="418.72" x2="14.8" y2="358.86"/><polyline class="cls-5" points="14.8 354.2 14.8 259.99 13.82 259.99"/><line class="cls-5" x1="13.82" y1="259.99" x2="2.04" y2="259.99"/><polyline class="cls-5" points="2.04 259.99 0.81 259.99 0.81 418.71 2.04 418.71"/><line class="cls-5" x1="2.04" y1="418.72" x2="13.82" y2="418.72"/><line class="cls-5" x1="13.82" y1="418.72" x2="14.8" y2="418.72"/><line class="cls-5" x1="13.82" y1="259.99" x2="13.82" y2="354.2"/><line class="cls-5" x1="13.82" y1="358.86" x2="13.82" y2="418.72"/><line class="cls-5" x1="2.04" y1="259.99" x2="2.04" y2="418.72"/><line class="cls-5" x1="136.48" y1="326.72" x2="129.36" y2="319.61"/><line class="cls-5" x1="165.91" y1="326.72" x2="159.05" y2="319.61"/><line class="cls-5" x1="195.6" y1="326.72" x2="188.48" y2="319.61"/><line class="cls-5" x1="225.28" y1="326.72" x2="218.17" y2="319.61"/><line class="cls-5" x1="143.59" y1="326.72" x2="136.48" y2="319.61"/><line class="cls-5" x1="173.27" y1="326.72" x2="166.16" y2="319.61"/><line class="cls-5" x1="202.71" y1="326.72" x2="195.6" y2="319.61"/><line class="cls-5" x1="232.4" y1="326.72" x2="225.28" y2="319.61"/><line class="cls-5" x1="235.83" y1="318.87" x2="122.49" y2="318.87"/><line class="cls-5" x1="202.96" y1="327.7" x2="237.06" y2="327.7"/><line class="cls-5" x1="202.96" y1="326.72" x2="237.06" y2="326.72"/><line class="cls-5" x1="237.06" y1="326.72" x2="237.06" y2="319.61"/><line class="cls-5" x1="123.47" y1="319.61" x2="237.06" y2="319.61"/><line class="cls-5" x1="122.49" y1="431.72" x2="104.83" y2="394.67"/><line class="cls-5" x1="250.06" y1="358.86" x2="250.06" y2="354.2"/><line class="cls-5" x1="250.06" y1="358.86" x2="248.83" y2="357.14"/><line class="cls-5" x1="250.06" y1="358.86" x2="250.06" y2="354.2"/><line class="cls-5" x1="250.06" y1="358.86" x2="250.06" y2="354.2"/><line class="cls-5" x1="248.83" y1="358.86" x2="250.06" y2="358.86"/><line class="cls-5" x1="250.06" y1="354.2" x2="250.06" y2="354.2"/><line class="cls-5" x1="250.55" y1="326.72" x2="250.55" y2="320.83"/><line class="cls-5" x1="250.55" y1="326.72" x2="250.55" y2="319.61"/><line class="cls-5" x1="250.55" y1="327.7" x2="250.55" y2="327.7"/><line class="cls-5" x1="250.55" y1="318.87" x2="250.55" y2="318.87"/><line class="cls-5" x1="250.55" y1="326.72" x2="250.55" y2="326.72"/><line class="cls-5" x1="250.55" y1="319.61" x2="250.55" y2="319.61"/><line class="cls-5" x1="250.55" y1="319.61" x2="250.55" y2="326.72"/><line class="cls-5" x1="130.34" y1="498.2" x2="123.47" y2="491.08"/><line class="cls-5" x1="130.34" y1="468.52" x2="123.47" y2="461.4"/><line class="cls-5" x1="130.34" y1="439.08" x2="123.47" y2="431.96"/><line class="cls-5" x1="130.34" y1="379.95" x2="123.47" y2="372.84"/><line class="cls-5" x1="130.34" y1="350.27" x2="123.47" y2="343.16"/><line class="cls-5" x1="130.34" y1="491.08" x2="123.47" y2="483.97"/><line class="cls-5" x1="130.34" y1="461.4" x2="123.47" y2="454.29"/><line class="cls-5" x1="130.34" y1="431.72" x2="130.34" y2="431.72"/><line class="cls-5" x1="130.34" y1="372.6" x2="123.47" y2="365.73"/><line class="cls-5" x1="130.34" y1="343.16" x2="123.47" y2="336.04"/><polyline class="cls-5" points="131.32 498.69 131.32 431.72 130.34 431.72"/><line class="cls-5" x1="130.34" y1="431.72" x2="123.47" y2="431.72"/><polyline class="cls-5" points="123.47 431.72 122.49 431.72 122.49 498.69"/><line class="cls-5" x1="131.32" y1="390.01" x2="131.32" y2="358.86"/><line class="cls-5" x1="122.49" y1="318.87" x2="122.49" y2="354.2"/><polyline class="cls-5" points="122.49 358.86 122.49 390.01 123.47 390.01"/><line class="cls-5" x1="123.47" y1="390.01" x2="130.34" y2="390.01"/><line class="cls-5" x1="130.34" y1="390.01" x2="131.32" y2="390.01"/><line class="cls-5" x1="130.34" y1="431.72" x2="130.34" y2="499.92"/><line class="cls-5" x1="130.34" y1="358.86" x2="130.34" y2="390.01"/><line class="cls-5" x1="123.47" y1="319.61" x2="123.47" y2="318.87"/><line class="cls-5" x1="123.47" y1="431.72" x2="123.47" y2="499.92"/><line class="cls-5" x1="130.34" y1="499.92" x2="123.47" y2="499.92"/><line class="cls-5" x1="130.34" y1="354.2" x2="130.34" y2="358.86"/><line class="cls-5" x1="123.47" y1="319.61" x2="123.47" y2="354.2"/><line class="cls-5" x1="123.47" y1="354.2" x2="123.47" y2="358.86"/><line class="cls-5" x1="123.47" y1="358.86" x2="123.47" y2="390.01"/><line class="cls-5" x1="116.61" y1="354.2" x2="74.16" y2="327.7"/><line class="cls-5" x1="115.13" y1="498.69" x2="61.9" y2="468.02"/><line class="cls-5" x1="132.55" y1="358.86" x2="130.34" y2="356.65"/><line class="cls-5" x1="143.1" y1="358.86" x2="138.44" y2="354.2"/><line class="cls-5" x1="153.65" y1="358.86" x2="148.99" y2="354.2"/><line class="cls-5" x1="164.2" y1="358.86" x2="159.54" y2="354.2"/><line class="cls-5" x1="174.75" y1="358.86" x2="170.08" y2="354.2"/><line class="cls-5" x1="185.29" y1="358.86" x2="180.63" y2="354.2"/><line class="cls-5" x1="195.84" y1="358.86" x2="191.18" y2="354.2"/><line class="cls-5" x1="206.64" y1="358.86" x2="201.73" y2="354.2"/><line class="cls-5" x1="217.19" y1="358.86" x2="212.28" y2="354.2"/><line class="cls-5" x1="227.73" y1="358.86" x2="222.83" y2="354.2"/><line class="cls-5" x1="238.28" y1="358.86" x2="233.62" y2="354.2"/><line class="cls-5" x1="248.83" y1="358.86" x2="244.17" y2="354.2"/><line class="cls-5" x1="134.51" y1="358.86" x2="130.34" y2="354.69"/><line class="cls-5" x1="145.06" y1="358.86" x2="140.4" y2="354.2"/><line class="cls-5" x1="155.61" y1="358.86" x2="150.95" y2="354.2"/><line class="cls-5" x1="166.16" y1="358.86" x2="161.5" y2="354.2"/><line class="cls-5" x1="176.71" y1="358.86" x2="172.05" y2="354.2"/><line class="cls-5" x1="187.26" y1="358.86" x2="182.6" y2="354.2"/><line class="cls-5" x1="197.81" y1="358.86" x2="193.14" y2="354.2"/><line class="cls-5" x1="208.35" y1="358.86" x2="203.69" y2="354.2"/><line class="cls-5" x1="218.9" y1="358.86" x2="214.24" y2="354.2"/><line class="cls-5" x1="229.45" y1="358.86" x2="224.79" y2="354.2"/><line class="cls-5" x1="240" y1="358.86" x2="235.34" y2="354.2"/><line class="cls-5" x1="248.83" y1="357.14" x2="245.89" y2="354.2"/><line class="cls-5" x1="130.83" y1="358.86" x2="130.34" y2="358.61"/><line class="cls-5" x1="141.38" y1="358.86" x2="136.48" y2="354.2"/><line class="cls-5" x1="151.93" y1="358.86" x2="147.27" y2="354.2"/><line class="cls-5" x1="162.48" y1="358.86" x2="157.82" y2="354.2"/><line class="cls-5" x1="173.03" y1="358.86" x2="168.37" y2="354.2"/><line class="cls-5" x1="183.58" y1="358.86" x2="178.92" y2="354.2"/><line class="cls-5" x1="194.13" y1="358.86" x2="189.46" y2="354.2"/><line class="cls-5" x1="204.67" y1="358.86" x2="200.01" y2="354.2"/><line class="cls-5" x1="215.22" y1="358.86" x2="210.56" y2="354.2"/><line class="cls-5" x1="225.77" y1="358.86" x2="221.11" y2="354.2"/><line class="cls-5" x1="236.32" y1="358.86" x2="231.66" y2="354.2"/><line class="cls-5" x1="246.87" y1="358.86" x2="242.21" y2="354.2"/><line class="cls-5" x1="250.06" y1="354.2" x2="248.83" y2="354.2"/><line class="cls-5" x1="237.06" y1="354.2" x2="202.96" y2="354.2"/><line class="cls-5" x1="130.34" y1="358.86" x2="237.06" y2="358.86"/><polyline class="cls-5" points="218.41 399.83 216.21 402.77 214.73 404.24 213.51 404.98 211.3 405.71 209.83 405.71 207.86 404.98 206.64 404.24 205.16 402.77 202.96 399.83"/><polyline class="cls-5" points="202.96 380.45 204.92 379.71 209.09 378.97 212.28 378.97 216.45 379.71 218.41 380.45"/><polyline class="cls-5" points="202.96 399.83 201.73 396.88 200.5 393.94 199.77 390.99 199.52 387.81 199.52 386.33 199.77 384.86 200.26 383.39 201 381.92 202.96 380.45"/><polyline class="cls-5" points="218.41 380.45 220.13 381.92 221.11 383.39 221.36 384.86 221.85 386.33 221.85 387.81 221.6 390.99 220.87 393.94 219.64 396.88 218.41 399.83"/><line class="cls-5" x1="203.45" y1="376.03" x2="202.96" y2="380.45"/><line class="cls-5" x1="217.92" y1="376.03" x2="218.41" y2="380.45"/><path class="cls-5" d="M195.6,398.6a5.52,5.52,0,0,0,5.52,5.52" transform="translate(0 -28.33)"/><line class="cls-5" x1="195.84" y1="358.86" x2="195.84" y2="370.39"/><line class="cls-5" x1="225.53" y1="370.39" x2="225.53" y2="358.86"/><path class="cls-5" d="M219.76,404.12a5.52,5.52,0,0,0,5.52-5.52" transform="translate(0 -28.33)"/><line class="cls-5" x1="201.24" y1="376.03" x2="219.88" y2="376.03"/><path class="cls-5" d="M250.06,398.6c0,3-3.05,5.52,0,5.52" transform="translate(0 -28.33)"/><line class="cls-5" x1="250.06" y1="358.86" x2="250.06" y2="370.39"/><polyline class="cls-5" points="250.55 65.46 178.43 65.46 178.43 65.95"/><line class="cls-5" x1="250.06" y1="348.8" x2="248.83" y2="348.8"/><line class="cls-5" x1="237.06" y1="348.8" x2="202.96" y2="348.8"/><line class="cls-5" x1="15.04" y1="259.99" x2="15.04" y2="354.2"/><line class="cls-5" x1="15.04" y1="358.86" x2="15.04" y2="418.72"/><polyline class="cls-5" points="235.59 424.6 235.59 495.25 235.83 495.25 237.06 495.25 248.83 495.25 250.06 495.25 250.3 495.25 250.3 483.48 250.3 482.25 250.3 424.6 250.06 424.6 248.83 424.6 237.06 424.6 235.83 424.6 235.59 424.6"/><polyline class="cls-5" points="0.57 477.59 0.57 507.03 15.04 507.03 15.04 499.92 15.04 498.69 15.04 418.71 0.57 418.71"/><line class="cls-5" x1="243.19" y1="511.69" x2="237.06" y2="505.56"/><line class="cls-5" x1="248.83" y1="506.78" x2="237.3" y2="495.25"/><line class="cls-5" x1="248.83" y1="496.24" x2="247.85" y2="495.25"/><line class="cls-5" x1="240.74" y1="424.6" x2="237.06" y2="421.17"/><line class="cls-5" x1="248.83" y1="422.4" x2="237.06" y2="410.62"/><line class="cls-5" x1="248.83" y1="411.85" x2="237.06" y2="400.07"/><line class="cls-5" x1="248.83" y1="401.3" x2="237.06" y2="389.52"/><line class="cls-5" x1="248.83" y1="390.5" x2="237.06" y2="378.97"/><line class="cls-5" x1="248.83" y1="379.95" x2="237.06" y2="368.42"/><line class="cls-5" x1="248.83" y1="369.41" x2="238.28" y2="358.86"/><line class="cls-5" x1="248.83" y1="358.86" x2="248.83" y2="358.86"/><line class="cls-5" x1="245.15" y1="511.69" x2="237.06" y2="503.6"/><line class="cls-5" x1="248.83" y1="504.82" x2="239.26" y2="495.25"/><line class="cls-5" x1="242.45" y1="424.6" x2="237.06" y2="419.21"/><line class="cls-5" x1="248.83" y1="420.43" x2="237.06" y2="408.66"/><line class="cls-5" x1="248.83" y1="409.88" x2="237.06" y2="398.11"/><line class="cls-5" x1="248.83" y1="399.34" x2="237.06" y2="387.56"/><line class="cls-5" x1="248.83" y1="388.79" x2="237.06" y2="377.01"/><line class="cls-5" x1="248.83" y1="378.24" x2="237.06" y2="366.46"/><line class="cls-5" x1="248.83" y1="367.69" x2="240" y2="358.86"/><line class="cls-5" x1="241.47" y1="511.69" x2="237.06" y2="507.52"/><line class="cls-5" x1="248.83" y1="508.75" x2="237.06" y2="496.97"/><line class="cls-5" x1="248.83" y1="498.2" x2="246.13" y2="495.25"/><line class="cls-5" x1="238.77" y1="424.6" x2="237.06" y2="422.89"/><line class="cls-5" x1="248.83" y1="424.11" x2="237.06" y2="412.34"/><line class="cls-5" x1="248.83" y1="413.56" x2="237.06" y2="401.79"/><line class="cls-5" x1="248.83" y1="403.01" x2="237.06" y2="391.24"/><line class="cls-5" x1="248.83" y1="392.47" x2="237.06" y2="380.69"/><line class="cls-5" x1="248.83" y1="381.92" x2="237.06" y2="370.14"/><line class="cls-5" x1="248.83" y1="371.37" x2="237.06" y2="359.59"/><line class="cls-5" x1="248.83" y1="360.82" x2="246.87" y2="358.86"/><line class="cls-5" x1="250.06" y1="512.92" x2="250.06" y2="496.48"/><line class="cls-5" x1="235.83" y1="495.25" x2="235.83" y2="498.69"/><line class="cls-5" x1="250.06" y1="424.6" x2="250.06" y2="358.86"/><line class="cls-5" x1="235.83" y1="358.86" x2="235.83" y2="424.6"/><line class="cls-5" x1="248.83" y1="358.86" x2="248.83" y2="424.6"/><line class="cls-5" x1="248.83" y1="495.25" x2="248.83" y2="511.69"/><line class="cls-5" x1="237.06" y1="358.86" x2="237.06" y2="424.6"/><line class="cls-5" x1="235.83" y1="424.6" x2="250.06" y2="424.6"/><line class="cls-5" x1="250.06" y1="495.25" x2="235.83" y2="495.25"/><line class="cls-5" x1="237.06" y1="495.25" x2="237.06" y2="499.92"/><polyline class="cls-5" points="235.59 77.72 235.59 92.44 235.59 259.99 250.55 259.99 250.55 92.44 250.55 77.72 235.59 77.72"/><line class="cls-5" x1="0.57" y1="77.72" x2="0.57" y2="92.44"/><polyline class="cls-5" points="0.57 259.99 15.29 259.99 15.29 92.44 15.29 77.72 0.57 77.72"/><line class="cls-5" x1="16.52" y1="358.86" x2="13.82" y2="356.16"/><line class="cls-5" x1="27.06" y1="358.86" x2="22.4" y2="354.2"/><line class="cls-5" x1="37.61" y1="358.86" x2="32.95" y2="354.2"/><line class="cls-5" x1="48.16" y1="358.86" x2="43.5" y2="354.2"/><line class="cls-5" x1="58.71" y1="358.86" x2="54.05" y2="354.2"/><line class="cls-5" x1="69.01" y1="358.61" x2="64.6" y2="354.2"/><line class="cls-5" x1="122" y1="358.86" x2="117.34" y2="354.2"/><line class="cls-5" x1="18.23" y1="358.86" x2="13.82" y2="354.2"/><line class="cls-5" x1="28.78" y1="358.86" x2="24.12" y2="354.2"/><line class="cls-5" x1="39.33" y1="358.86" x2="34.67" y2="354.2"/><line class="cls-5" x1="49.88" y1="358.86" x2="45.22" y2="354.2"/><line class="cls-5" x1="60.43" y1="358.86" x2="55.77" y2="354.2"/><line class="cls-5" x1="69.01" y1="356.65" x2="66.31" y2="354.2"/><line class="cls-5" x1="123.47" y1="358.37" x2="119.3" y2="354.2"/><line class="cls-5" x1="14.55" y1="358.86" x2="13.82" y2="357.88"/><line class="cls-5" x1="25.1" y1="358.86" x2="20.44" y2="354.2"/><line class="cls-5" x1="35.65" y1="358.86" x2="30.99" y2="354.2"/><line class="cls-5" x1="46.2" y1="358.86" x2="41.54" y2="354.2"/><line class="cls-5" x1="56.75" y1="358.86" x2="52.09" y2="354.2"/><line class="cls-5" x1="67.3" y1="358.86" x2="62.63" y2="354.2"/><line class="cls-5" x1="120.28" y1="358.86" x2="116.61" y2="355.18"/><polyline class="cls-5" points="123.47 354.2 116.61 354.2 116.61 358.86 123.47 358.86"/><line class="cls-5" x1="69.01" y1="354.2" x2="13.82" y2="354.2"/><polyline class="cls-5" points="13.82 358.86 69.01 358.86 69.01 354.2"/><polyline class="cls-5" points="0.57 65.95 72.45 65.95 72.45 65.46"/><polyline class="cls-5" points="0.57 63 72.45 63 72.45 65.46 0.57 65.46"/><line class="cls-5" x1="161.5" y1="363.76" x2="150.7" y2="363.76"/><path class="cls-5" d="M161.54,391.66a3.06,3.06,0,0,0-2.49,3" transform="translate(0 -28.33)"/><line class="cls-5" x1="161.5" y1="366.46" x2="162.73" y2="366.46"/><polyline class="cls-5" points="162.72 366.46 162.72 363.03 161.5 363.03 161.5 366.46"/><path class="cls-5" d="M147.15,387.68a1.6,1.6,0,0,0-1.6,1.6" transform="translate(0 -28.33)"/><path class="cls-5" d="M166.4,391.49a1.6,1.6,0,0,0,3.19,0" transform="translate(0 -28.33)"/><path class="cls-5" d="M178.67,389.28a1.6,1.6,0,0,0-1.59-1.6" transform="translate(0 -28.33)"/><line class="cls-5" x1="177.2" y1="359.59" x2="147.27" y2="359.59"/><path class="cls-5" d="M169.59,391.49a1.6,1.6,0,1,0-3.19,0" transform="translate(0 -28.33)"/><path class="cls-5" d="M154.38,391.49a1.6,1.6,0,0,0,3.19,0" transform="translate(0 -28.33)"/><path class="cls-5" d="M157.57,391.49a1.6,1.6,0,1,0-3.19,0" transform="translate(0 -28.33)"/><path class="cls-5" d="M165.18,394.67a3.07,3.07,0,0,0-2.49-3" transform="translate(0 -28.33)"/><path class="cls-5" d="M159.05,394.67a3.07,3.07,0,1,0,6.13,0" transform="translate(0 -28.33)"/><path class="cls-5" d="M150.58,391.85a3.07,3.07,0,0,0-3.06,3.07" transform="translate(0 -28.33)"/><line class="cls-5" x1="173.76" y1="363.76" x2="162.73" y2="363.76"/><path class="cls-5" d="M176.71,394.92a3.07,3.07,0,0,0-3.07-3.07" transform="translate(0 -28.33)"/><line class="cls-5" x1="176.95" y1="367.2" x2="176.95" y2="366.71"/><path class="cls-5" d="M165.06,407.06a11.65,11.65,0,0,0,11.65-11.65" transform="translate(0 -28.33)"/><line class="cls-5" x1="159.29" y1="378.97" x2="165.18" y2="378.97"/><line class="cls-5" x1="147.76" y1="366.71" x2="147.76" y2="367.2"/><path class="cls-5" d="M145.8,394.43A14.6,14.6,0,0,0,160.39,409" transform="translate(0 -28.33)"/><line class="cls-5" x1="145.8" y1="361.07" x2="145.8" y2="366.22"/><path class="cls-5" d="M147.52,395.41a11.64,11.64,0,0,0,11.65,11.65" transform="translate(0 -28.33)"/><line class="cls-5" x1="160.52" y1="380.94" x2="163.95" y2="380.94"/><path class="cls-5" d="M163.83,409a14.6,14.6,0,0,0,14.6-14.6" transform="translate(0 -28.33)"/><line class="cls-5" x1="178.67" y1="366.22" x2="178.67" y2="361.07"/><line class="cls-5" x1="10.87" y1="511.69" x2="6.21" y2="507.03"/><line class="cls-5" x1="21.42" y1="511.69" x2="15.04" y2="505.31"/><line class="cls-5" x1="31.97" y1="511.69" x2="20.19" y2="499.92"/><line class="cls-5" x1="42.52" y1="511.69" x2="30.74" y2="499.92"/><line class="cls-5" x1="53.07" y1="511.69" x2="41.29" y2="499.92"/><line class="cls-5" x1="53.31" y1="501.14" x2="51.84" y2="499.92"/><line class="cls-5" x1="116.61" y1="511.69" x2="115.13" y2="510.22"/><line class="cls-5" x1="127.15" y1="511.69" x2="115.38" y2="499.92"/><line class="cls-5" x1="137.7" y1="511.69" x2="125.93" y2="499.92"/><line class="cls-5" x1="148.25" y1="511.69" x2="136.48" y2="499.92"/><line class="cls-5" x1="158.8" y1="511.69" x2="147.02" y2="499.92"/><line class="cls-5" x1="169.35" y1="511.69" x2="157.57" y2="499.92"/><line class="cls-5" x1="179.9" y1="511.69" x2="168.12" y2="499.92"/><line class="cls-5" x1="190.45" y1="511.69" x2="178.67" y2="499.92"/><line class="cls-5" x1="200.99" y1="511.69" x2="189.22" y2="499.92"/><line class="cls-5" x1="211.54" y1="511.69" x2="199.77" y2="499.92"/><line class="cls-5" x1="222.09" y1="511.69" x2="210.32" y2="499.92"/><line class="cls-5" x1="232.64" y1="511.69" x2="220.87" y2="499.92"/><line class="cls-5" x1="237.06" y1="505.56" x2="231.41" y2="499.92"/><line class="cls-5" x1="2.29" y1="511.69" x2="0.57" y2="509.97"/><line class="cls-5" x1="12.84" y1="511.69" x2="8.17" y2="507.03"/><line class="cls-5" x1="23.38" y1="511.69" x2="15.04" y2="503.6"/><line class="cls-5" x1="33.93" y1="511.69" x2="22.16" y2="499.92"/><line class="cls-5" x1="44.48" y1="511.69" x2="32.71" y2="499.92"/><line class="cls-5" x1="53.31" y1="509.97" x2="43.25" y2="499.92"/><line class="cls-5" x1="118.32" y1="511.69" x2="115.13" y2="508.26"/><line class="cls-5" x1="128.87" y1="511.69" x2="117.1" y2="499.92"/><line class="cls-5" x1="139.42" y1="511.69" x2="127.64" y2="499.92"/><line class="cls-5" x1="149.97" y1="511.69" x2="138.19" y2="499.92"/><line class="cls-5" x1="160.52" y1="511.69" x2="148.74" y2="499.92"/><line class="cls-5" x1="171.07" y1="511.69" x2="159.54" y2="499.92"/><line class="cls-5" x1="181.86" y1="511.69" x2="170.08" y2="499.92"/><line class="cls-5" x1="192.41" y1="511.69" x2="180.63" y2="499.92"/><line class="cls-5" x1="202.96" y1="511.69" x2="191.18" y2="499.92"/><line class="cls-5" x1="213.51" y1="511.69" x2="201.73" y2="499.92"/><line class="cls-5" x1="224.05" y1="511.69" x2="212.28" y2="499.92"/><line class="cls-5" x1="234.6" y1="511.69" x2="222.83" y2="499.92"/><line class="cls-5" x1="237.06" y1="503.6" x2="233.38" y2="499.92"/><line class="cls-5" x1="9.16" y1="511.69" x2="4.25" y2="507.03"/><line class="cls-5" x1="19.7" y1="511.69" x2="14.8" y2="507.03"/><line class="cls-5" x1="30.25" y1="511.69" x2="18.48" y2="499.92"/><line class="cls-5" x1="40.8" y1="511.69" x2="29.03" y2="499.92"/><line class="cls-5" x1="51.35" y1="511.69" x2="39.58" y2="499.92"/><line class="cls-5" x1="53.31" y1="503.1" x2="50.12" y2="499.92"/><line class="cls-5" x1="125.19" y1="511.69" x2="115.13" y2="501.39"/><line class="cls-5" x1="135.74" y1="511.69" x2="123.96" y2="499.92"/><line class="cls-5" x1="146.29" y1="511.69" x2="134.51" y2="499.92"/><line class="cls-5" x1="156.84" y1="511.69" x2="145.06" y2="499.92"/><line class="cls-5" x1="167.39" y1="511.69" x2="155.61" y2="499.92"/><line class="cls-5" x1="177.93" y1="511.69" x2="166.16" y2="499.92"/><line class="cls-5" x1="188.48" y1="511.69" x2="176.71" y2="499.92"/><line class="cls-5" x1="199.03" y1="511.69" x2="187.26" y2="499.92"/><line class="cls-5" x1="209.58" y1="511.69" x2="198.05" y2="499.92"/><line class="cls-5" x1="220.13" y1="511.69" x2="208.6" y2="499.92"/><line class="cls-5" x1="230.92" y1="511.69" x2="219.15" y2="499.92"/><line class="cls-5" x1="237.06" y1="507.52" x2="229.7" y2="499.92"/><polyline class="cls-5" points="0.57 512.92 53.31 512.92 53.31 511.69"/><line class="cls-5" x1="53.31" y1="511.69" x2="53.31" y2="499.92"/><polyline class="cls-5" points="53.31 499.92 53.31 498.69 15.04 498.69"/><line class="cls-5" x1="0.57" y1="507.03" x2="0.57" y2="508.26"/><line class="cls-5" x1="115.13" y1="512.92" x2="250.06" y2="512.92"/><line class="cls-5" x1="235.83" y1="498.69" x2="131.32" y2="498.69"/><polyline class="cls-5" points="122.49 498.69 115.13 498.69 115.13 499.92"/><line class="cls-5" x1="115.13" y1="499.92" x2="115.13" y2="511.69"/><line class="cls-5" x1="115.13" y1="511.69" x2="115.13" y2="512.92"/><line class="cls-5" x1="248.83" y1="511.69" x2="115.13" y2="511.69"/><polyline class="cls-5" points="53.31 511.69 0.57 511.69 0.57 512.92"/><line class="cls-5" x1="237.06" y1="499.92" x2="130.34" y2="499.92"/><line class="cls-5" x1="123.47" y1="499.92" x2="115.13" y2="499.92"/><line class="cls-5" x1="53.31" y1="499.92" x2="15.04" y2="499.92"/><polyline class="cls-5" points="15.04 498.69 15.04 507.03 0.57 507.03"/><line class="cls-5" x1="244.17" y1="354.2" x2="237.06" y2="347.08"/><line class="cls-5" x1="248.83" y1="348.31" x2="237.06" y2="336.53"/><line class="cls-5" x1="250.55" y1="337.76" x2="237.06" y2="325.98"/><line class="cls-5" x1="250.55" y1="327.21" x2="241.23" y2="319.61"/><line class="cls-5" x1="245.89" y1="354.2" x2="237.06" y2="345.37"/><line class="cls-5" x1="250.55" y1="346.59" x2="237.06" y2="334.82"/><line class="cls-5" x1="250.55" y1="336.04" x2="237.06" y2="324.27"/><line class="cls-5" x1="250.55" y1="325.49" x2="243.19" y2="319.61"/><line class="cls-5" x1="242.21" y1="354.2" x2="237.06" y2="349.04"/><line class="cls-5" x1="248.83" y1="350.27" x2="237.06" y2="338.5"/><line class="cls-5" x1="250.55" y1="339.72" x2="237.06" y2="327.95"/><line class="cls-5" x1="250.55" y1="329.17" x2="239.51" y2="319.61"/><line class="cls-5" x1="248.83" y1="354.2" x2="250.55" y2="326.72"/><line class="cls-5" x1="237.06" y1="326.72" x2="237.06" y2="354.2"/><line class="cls-5" x1="241.23" y1="319.61" x2="237.06" y2="315.44"/><line class="cls-5" x1="250.55" y1="316.66" x2="237.06" y2="304.89"/><line class="cls-5" x1="250.55" y1="306.11" x2="237.06" y2="294.34"/><line class="cls-5" x1="250.55" y1="295.57" x2="237.06" y2="283.79"/><line class="cls-5" x1="250.55" y1="285.02" x2="237.06" y2="273.24"/><line class="cls-5" x1="250.55" y1="274.47" x2="237.06" y2="262.69"/><line class="cls-5" x1="250.55" y1="263.92" x2="250.55" y2="259.99"/><line class="cls-5" x1="243.19" y1="319.61" x2="237.06" y2="313.72"/><line class="cls-5" x1="250.55" y1="314.95" x2="237.06" y2="303.17"/><line class="cls-5" x1="250.55" y1="304.4" x2="237.06" y2="292.62"/><line class="cls-5" x1="250.55" y1="293.6" x2="237.06" y2="282.07"/><line class="cls-5" x1="250.55" y1="283.05" x2="237.06" y2="271.28"/><line class="cls-5" x1="250.55" y1="272.51" x2="237.06" y2="260.73"/><line class="cls-5" x1="250.55" y1="261.96" x2="250.55" y2="259.99"/><line class="cls-5" x1="239.51" y1="319.61" x2="237.06" y2="317.4"/><line class="cls-5" x1="250.55" y1="318.63" x2="237.06" y2="306.85"/><line class="cls-5" x1="250.55" y1="308.08" x2="237.06" y2="296.3"/><line class="cls-5" x1="250.55" y1="297.53" x2="237.06" y2="285.75"/><line class="cls-5" x1="250.55" y1="286.98" x2="237.06" y2="275.2"/><line class="cls-5" x1="250.55" y1="276.43" x2="237.06" y2="264.66"/><line class="cls-5" x1="250.55" y1="265.88" x2="243.19" y2="259.99"/><polyline class="cls-5" points="250.55 318.87 250.55 259.99 250.55 259.99"/><line class="cls-5" x1="250.55" y1="259.99" x2="237.06" y2="259.99"/><polyline class="cls-5" points="237.06 259.99 235.83 259.99 235.83 318.87"/><line class="cls-5" x1="235.83" y1="319.61" x2="235.83" y2="318.87"/><line class="cls-5" x1="237.06" y1="259.99" x2="237.06" y2="319.61"/><line class="cls-5" x1="250.55" y1="319.61" x2="250.55" y2="259.99"/><line class="cls-5" x1="250.3" y1="482.25" x2="250.3" y2="495.25"/><line class="cls-5" x1="142.61" y1="60.8" x2="142.61" y2="63"/><line class="cls-5" x1="143.84" y1="60.8" x2="143.84" y2="63"/><line class="cls-5" x1="109.74" y1="60.8" x2="109.74" y2="63"/><line class="cls-5" x1="108.51" y1="60.8" x2="108.51" y2="63"/><polyline class="cls-5" points="102.62 37.24 149.72 37.24 149.72 60.8 102.62 60.8 102.62 37.24"/><line class="cls-5" x1="97.22" y1="27.19" x2="97.22" y2="29.64"/><polyline class="cls-5" points="96 30.13 96 25.96 154.88 25.96 154.88 30.13"/><polyline class="cls-5" points="97.22 63 97.22 31.36 153.65 31.36 153.65 63"/><polyline class="cls-5" points="154.88 63 154.88 30.13 96 30.13 96 63"/><polyline class="cls-5" points="99.43 33.56 99.43 31.36 97.22 31.36 97.22 33.56 99.43 33.56"/><line class="cls-5" x1="99.43" y1="63" x2="97.22" y2="63"/><line class="cls-5" x1="153.65" y1="63" x2="151.2" y2="63"/><polyline class="cls-5" points="153.65 33.56 153.65 31.36 151.19 31.36 151.19 33.56 153.65 33.56"/><polyline class="cls-5" points="15.29 92.44 15.29 93.67 72.45 93.67 72.45 92.44"/><polyline class="cls-5" points="178.43 92.44 178.43 93.67 235.59 93.67 235.59 92.44"/><line class="cls-5" x1="72.45" y1="92.44" x2="15.29" y2="92.44"/><line class="cls-5" x1="235.58" y1="92.44" x2="178.43" y2="92.44"/><polyline class="cls-5" points="250.55 92.44 250.55 93.67 250.55 93.67"/><polyline class="cls-5" points="202.96 354.2 130.34 354.2 130.34 326.72 134.27 350.27 202.96 354.2 202.96 326.72 130.34 326.72"/><polygon points="226.26 342.42 226.26 342.67 226.26 341.44 226.26 342.42"/><polygon class="cls-5" points="226.26 342.42 226.26 342.67 226.26 341.44 226.26 342.42"/><path d="M226.51,369l-.25,2v-1.23Zm0,2.7V369l-.25,2Z" transform="translate(0 -28.33)"/><path class="cls-5" d="M226.51,369l-.25,2v-1.23Zm0,2.7V369l-.25,2Z" transform="translate(0 -28.33)"/><path d="M226.51,368.55v0Zm0,3.43v0Z" transform="translate(0 -28.33)"/><path class="cls-5" d="M226.51,368.55v0Zm0,3.43v0Z" transform="translate(0 -28.33)"/><path d="M226.51,369.77v0Zm0,2.46v0Z" transform="translate(0 -28.33)"/><path class="cls-5" d="M226.51,369.77v0Zm0,2.46v0Z" transform="translate(0 -28.33)"/><path d="M227,370.51l-.49,1.72v-2.46Zm0,2.21v-2.21l-.49,1.72Z" transform="translate(0 -28.33)"/><path class="cls-5" d="M227,370.51l-.49,1.72v-2.46Zm0,2.21v-2.21l-.49,1.72Z" transform="translate(0 -28.33)"/><path d="M227,370.76v0Zm0,2.2v0Z" transform="translate(0 -28.33)"/><path class="cls-5" d="M227,370.76v0Zm0,2.2v0Z" transform="translate(0 -28.33)"/><path d="M227.49,371.49,227,373v-2.2Zm0,2v-2L227,373Z" transform="translate(0 -28.33)"/><path class="cls-5" d="M227.49,371.49,227,373v-2.2Zm0,2v-2L227,373Z" transform="translate(0 -28.33)"/><path d="M227.73,371.74l-.24,1.71v-2Zm0,2v-2l-.24,1.71Z" transform="translate(0 -28.33)"/><path class="cls-5" d="M227.73,371.74l-.24,1.71v-2Zm0,2v-2l-.24,1.71Z" transform="translate(0 -28.33)"/><path d="M228.47,372.47l-.74,1.23v-2Zm0,1.72v-1.72l-.74,1.23Zm0-1.72v0Zm0,0h0v0Z" transform="translate(0 -28.33)"/><path class="cls-5" d="M228.47,372.47l-.74,1.23v-2Zm0,1.72v-1.72l-.74,1.23Zm0-1.72v0Zm0,0h0v0Z" transform="translate(0 -28.33)"/><path d="M229.45,373l-1,1.23v-1.72Zm0,1.72V373l-1,1.23Zm0-1.72v0Zm0,0h0v0Z" transform="translate(0 -28.33)"/><path class="cls-5" d="M229.45,373l-1,1.23v-1.72Zm0,1.72V373l-1,1.23Zm0-1.72v0Zm0,0h0v0Z" transform="translate(0 -28.33)"/><path d="M230.19,373.21l-.74,1.47V373Zm0,1.47v-1.47l-.74,1.47Z" transform="translate(0 -28.33)"/><path class="cls-5" d="M230.19,373.21l-.74,1.47V373Zm0,1.47v-1.47l-.74,1.47Z" transform="translate(0 -28.33)"/><path d="M230.68,373.21l-.49,1.47v-1.47Zm0,1.47v-1.47l-.49,1.47Z" transform="translate(0 -28.33)"/><path class="cls-5" d="M230.68,373.21l-.49,1.47v-1.47Zm0,1.47v-1.47l-.49,1.47Z" transform="translate(0 -28.33)"/><path d="M231.41,373.21l-.73,1.47v-1.47Zm0,1.47v-1.47l-.73,1.47Z" transform="translate(0 -28.33)"/><path class="cls-5" d="M231.41,373.21l-.73,1.47v-1.47Zm0,1.47v-1.47l-.73,1.47Z" transform="translate(0 -28.33)"/><path d="M231.66,373.21l-.25,1.47v-1.47Zm0,1.47v-1.47l-.25,1.47Z" transform="translate(0 -28.33)"/><path class="cls-5" d="M231.66,373.21l-.25,1.47v-1.47Zm0,1.47v-1.47l-.25,1.47Z" transform="translate(0 -28.33)"/><path d="M232.64,373l-1,1.72v-1.47Zm0,1.23V373l-1,1.72Z" transform="translate(0 -28.33)"/><path class="cls-5" d="M232.64,373l-1,1.72v-1.47Zm0,1.23V373l-1,1.72Z" transform="translate(0 -28.33)"/><path d="M232.64,372.72v0Zm0,0h0v0Z" transform="translate(0 -28.33)"/><path class="cls-5" d="M232.64,372.72v0Zm0,0h0v0Z" transform="translate(0 -28.33)"/><path d="M233.38,372.47l-.74,1.72v-1.47Zm0,1.23v-1.23l-.74,1.72Z" transform="translate(0 -28.33)"/><path class="cls-5" d="M233.38,372.47l-.74,1.72v-1.47Zm0,1.23v-1.23l-.74,1.72Z" transform="translate(0 -28.33)"/><path d="M233.62,372.23l-.24,1.47v-1.23Zm0,1.22v-1.22l-.24,1.47Z" transform="translate(0 -28.33)"/><path class="cls-5" d="M233.62,372.23l-.24,1.47v-1.23Zm0,1.22v-1.22l-.24,1.47Z" transform="translate(0 -28.33)"/><path d="M234.11,371.74l-.49,1.71v-1.22Zm0,1v-1l-.49,1.71Z" transform="translate(0 -28.33)"/><path class="cls-5" d="M234.11,371.74l-.49,1.71v-1.22Zm0,1v-1l-.49,1.71Z" transform="translate(0 -28.33)"/><path d="M234.36,371.74l-.25,1v-1Zm0,1v-1l-.25,1Z" transform="translate(0 -28.33)"/><path class="cls-5" d="M234.36,371.74l-.25,1v-1Zm0,1v-1l-.25,1Z" transform="translate(0 -28.33)"/><path d="M234.85,371l-.49,1.72v-1Zm0,.74V371l-.49,1.72Z" transform="translate(0 -28.33)"/><path class="cls-5" d="M234.85,371l-.49,1.72v-1Zm0,.74V371l-.49,1.72Z" transform="translate(0 -28.33)"/><path d="M234.85,371.25v0Zm0,.49v0Z" transform="translate(0 -28.33)"/><path class="cls-5" d="M234.85,371.25v0Zm0,.49v0Z" transform="translate(0 -28.33)"/><path d="M234.85,371.74v0Z" transform="translate(0 -28.33)"/><path class="cls-5" d="M234.85,371.74v0Z" transform="translate(0 -28.33)"/><path class="cls-5" d="M230.56,365.85a4.29,4.29,0,0,0-4,2.7" transform="translate(0 -28.33)"/><path class="cls-5" d="M226.49,368.78a2.52,2.52,0,0,0-.13.47" transform="translate(0 -28.33)"/><path class="cls-5" d="M226.27,369.85a4,4,0,0,0,0,.49" transform="translate(0 -28.33)"/><path class="cls-5" d="M226.34,370.94c0,.16.07.31.11.47" transform="translate(0 -28.33)"/><path class="cls-5" d="M226.68,372a4.23,4.23,0,0,0,.22.42" transform="translate(0 -28.33)"/><path class="cls-5" d="M227.27,372.91a3.34,3.34,0,0,0,.32.33" transform="translate(0 -28.33)"/><path class="cls-5" d="M228.11,373.67a3,3,0,0,0,.3.19" transform="translate(0 -28.33)"/><path class="cls-5" d="M229.17,374.2l.27.09" transform="translate(0 -28.33)"/><path class="cls-5" d="M230.56,374.44h.2" transform="translate(0 -28.33)"/><path class="cls-5" d="M231.67,374.29l.33-.1" transform="translate(0 -28.33)"/><path class="cls-5" d="M232.63,373.9a3,3,0,0,0,.38-.24" transform="translate(0 -28.33)"/><path class="cls-5" d="M233.51,373.26c.11-.11.22-.22.32-.34" transform="translate(0 -28.33)"/><path class="cls-5" d="M234.2,372.42c.08-.14.16-.28.23-.43" transform="translate(0 -28.33)"/><path class="cls-5" d="M234.65,371.43a4.21,4.21,0,0,0,.12-.48" transform="translate(0 -28.33)"/><path class="cls-5" d="M234.82,370.66a4.3,4.3,0,0,0-4.26-4.81" transform="translate(0 -28.33)"/><path class="cls-5" d="M226.59,368.49a4.29,4.29,0,1,0,8.23,2.1" transform="translate(0 -28.33)"/><path class="cls-5" d="M226.26,368.65a4.54,4.54,0,0,0,8.53,2.18" transform="translate(0 -28.33)"/><polygon points="250.55 342.42 250.55 342.67 250.55 341.44 250.55 342.42"/><polygon class="cls-5" points="250.55 342.42 250.55 342.67 250.55 341.44 250.55 342.42"/><path d="M250.55,369v0Zm0,2.7v0Z" transform="translate(0 -28.33)"/><path class="cls-5" d="M250.55,369v0Zm0,2.7v0Z" transform="translate(0 -28.33)"/><path d="M250.55,368.55v0Zm0,3.43v0Z" transform="translate(0 -28.33)"/><path class="cls-5" d="M250.55,368.55v0Zm0,3.43v0Z" transform="translate(0 -28.33)"/><path d="M250.55,369.77v0Zm0,2.46v0Z" transform="translate(0 -28.33)"/><path class="cls-5" d="M250.55,369.77v0Zm0,2.46v0Z" transform="translate(0 -28.33)"/><path d="M250.55,370.51v0Zm0,2.21v0Z" transform="translate(0 -28.33)"/><path class="cls-5" d="M250.55,370.51v0Zm0,2.21v0Z" transform="translate(0 -28.33)"/><path d="M250.55,370.76v0Zm0,2.2v0Z" transform="translate(0 -28.33)"/><path class="cls-5" d="M250.55,370.76v0Zm0,2.2v0Z" transform="translate(0 -28.33)"/><path d="M250.55,371.49v0Zm0,2v0Z" transform="translate(0 -28.33)"/><path class="cls-5" d="M250.55,371.49v0Zm0,2v0Z" transform="translate(0 -28.33)"/><path d="M250.55,371.74v0Zm0,2v0Z" transform="translate(0 -28.33)"/><path class="cls-5" d="M250.55,371.74v0Zm0,2v0Z" transform="translate(0 -28.33)"/><path d="M250.55,372.47v0Zm0,1.72v0Z" transform="translate(0 -28.33)"/><path class="cls-5" d="M250.55,372.47v0Zm0,1.72v0Z" transform="translate(0 -28.33)"/><path d="M250.55,372.47v0Zm0,1.72v0Z" transform="translate(0 -28.33)"/><path class="cls-5" d="M250.55,372.47v0Zm0,1.72v0Z" transform="translate(0 -28.33)"/><path d="M250.55,373v0Zm0,1.72v0Z" transform="translate(0 -28.33)"/><path class="cls-5" d="M250.55,373v0Zm0,1.72v0Z" transform="translate(0 -28.33)"/><path d="M250.55,373v0Zm0,1.72v0Z" transform="translate(0 -28.33)"/><path class="cls-5" d="M250.55,373v0Zm0,1.72v0Z" transform="translate(0 -28.33)"/><path d="M250.55,373.21v0Zm0,1.47v0Z" transform="translate(0 -28.33)"/><path class="cls-5" d="M250.55,373.21v0Zm0,1.47v0Z" transform="translate(0 -28.33)"/><path d="M250.55,373.21v0Zm0,1.47v0Z" transform="translate(0 -28.33)"/><path class="cls-5" d="M250.55,373.21v0Zm0,1.47v0Z" transform="translate(0 -28.33)"/><path d="M250.55,373.21v0Zm0,1.47v0Z" transform="translate(0 -28.33)"/><path class="cls-5" d="M250.55,373.21v0Zm0,1.47v0Z" transform="translate(0 -28.33)"/><path d="M250.55,373.21v0Zm0,1.47v0Z" transform="translate(0 -28.33)"/><path class="cls-5" d="M250.55,373.21v0Zm0,1.47v0Z" transform="translate(0 -28.33)"/><path d="M250.55,373v0Zm0,1.23v0Z" transform="translate(0 -28.33)"/><path class="cls-5" d="M250.55,373v0Zm0,1.23v0Z" transform="translate(0 -28.33)"/><path d="M250.55,372.72v0Zm0,1.47v0Z" transform="translate(0 -28.33)"/><path class="cls-5" d="M250.55,372.72v0Zm0,1.47v0Z" transform="translate(0 -28.33)"/><path d="M250.55,372.47v0Zm0,1.23v0Z" transform="translate(0 -28.33)"/><path class="cls-5" d="M250.55,372.47v0Zm0,1.23v0Z" transform="translate(0 -28.33)"/><path d="M250.55,372.23v0Zm0,1.22v0Z" transform="translate(0 -28.33)"/><path class="cls-5" d="M250.55,372.23v0Zm0,1.22v0Z" transform="translate(0 -28.33)"/><path d="M250.55,371.74v0Zm0,1v0Zm0-1v0Zm0,0h0v0Z" transform="translate(0 -28.33)"/><path class="cls-5" d="M250.55,371.74v0Zm0,1v0Zm0-1v0Zm0,0h0v0Z" transform="translate(0 -28.33)"/><path d="M250.55,371v0Zm0,.74v0Z" transform="translate(0 -28.33)"/><path class="cls-5" d="M250.55,371v0Zm0,.74v0Z" transform="translate(0 -28.33)"/><path d="M250.55,371.25v0Zm0,.49v0Z" transform="translate(0 -28.33)"/><path class="cls-5" d="M250.55,371.25v0Zm0,.49v0Z" transform="translate(0 -28.33)"/><polygon points="250.55 343.4 250.55 342.67 250.55 342.67 250.55 343.4"/><polygon class="cls-5" points="250.55 343.4 250.55 342.67 250.55 342.67 250.55 343.4"/><path class="cls-5" d="M250.55,365.85c-1.75,0,.65,1.07,0,2.7" transform="translate(0 -28.33)"/><path class="cls-5" d="M250.55,368.78c-.05.15,0,.31,0,.47" transform="translate(0 -28.33)"/><path class="cls-5" d="M250.55,369.85c0,.16,0,.32,0,.49" transform="translate(0 -28.33)"/><path class="cls-5" d="M250.55,370.94c0,.16,0,.31,0,.47" transform="translate(0 -28.33)"/><path class="cls-5" d="M250.55,372c.07.14-.08.28,0,.42" transform="translate(0 -28.33)"/><path class="cls-5" d="M250.55,372.91c.1.12-.11.23,0,.33" transform="translate(0 -28.33)"/><path class="cls-5" d="M250.55,373.67c.1.07-.1.13,0,.19" transform="translate(0 -28.33)"/><path class="cls-5" d="M250.55,374.2c.1,0-.09.06,0,.09" transform="translate(0 -28.33)"/><path class="cls-5" d="M250.55,374.44c.07,0-.06,0,0,0" transform="translate(0 -28.33)"/><path class="cls-5" d="M250.55,374.29c.12,0-.11-.07,0-.1" transform="translate(0 -28.33)"/><path class="cls-5" d="M250.55,373.9c.13-.07-.12-.15,0-.24" transform="translate(0 -28.33)"/><path class="cls-5" d="M250.55,373.26c.12-.11-.1-.22,0-.34" transform="translate(0 -28.33)"/><path class="cls-5" d="M250.55,372.42c.09-.14-.07-.28,0-.43" transform="translate(0 -28.33)"/><path class="cls-5" d="M250.55,371.43c0-.16,0-.32,0-.48" transform="translate(0 -28.33)"/><text class="cls-6" transform="translate(44.88 441.93)">4.3</text><text class="cls-6" transform="translate(148.35 441.93)">4.2</text><text class="cls-6" transform="translate(110.57 133.26)">15.5</text><rect class="cls-5" x="84.59" y="161.02" width="88.44" height="32.4"/><rect class="cls-5" x="84.59" y="193.42" width="88.44" height="32.4"/><rect class="cls-5" x="84.59" y="225.83" width="88.44" height="32.4"/><text class="cls-7" transform="translate(109.14 184.08)">№4<tspan x="7.07" y="33.6">С</tspan><tspan class="cls-8" x="20.46" y="33.6">Т</tspan><tspan x="-2.14" y="67.2">24</tspan><tspan class="cls-9" x="22.56" y="67.2">.</tspan><tspan x="27.6" y="67.2">0</tspan></text><polyline points="0.57 93.91 72.17 93.91 72.17 62.91 0.57 62.91 0.57 73.58"/><polyline points="250.55 93.52 178.16 93.52 178.16 65.85 250.55 65.85"/><rect y="498.23" width="53.5" height="14.25"/><rect x="0.17" y="254.57" width="14.67" height="200.66"/><rect x="7.17" y="353.9" width="62.17" height="5.17"/><rect x="122.17" y="318.57" width="8.67" height="70.67"/><polygon points="250.16 449.24 235.16 449.24 235.16 257.24 250.55 257.24 250.16 449.24"/><polyline points="250.55 326.74 122 326.74 122 318.74 250.55 318.74"/><polyline points="250.06 358.74 116 358.74 116 354.49 250.06 354.49"/><rect x="122.25" y="431.49" width="9" height="78.25"/><rect x="114.5" y="498.73" width="135" height="14"/><rect x="235.5" y="489.23" width="15" height="20.25"/></svg>