<svg id="_174" data-name="174" xmlns="http://www.w3.org/2000/svg" viewBox="0 0 263.87 345.01"><defs><style>.cls-1{isolation:isolate;font-size:8px;fill:#969696;font-family:PTSans-Regular, PT Sans;letter-spacing:-0.01em;}.cls-2{letter-spacing:0em;}.cls-14,.cls-15,.cls-16,.cls-3,.cls-9{fill:none;}.cls-3{stroke:#969696;}.cls-14,.cls-15,.cls-16,.cls-3{stroke-linecap:round;stroke-linejoin:round;}.cls-16,.cls-3{stroke-width:0.5px;}.cls-4{font-size:22px;}.cls-10,.cls-4{fill:#231f20;font-family:BigCityGrotesquePro-Regular, BigCity Grotesque Pro;}.cls-5{letter-spacing:-0.02em;}.cls-6{letter-spacing:0em;}.cls-7{letter-spacing:-0.02em;}.cls-8{letter-spacing:0em;}.cls-14,.cls-15,.cls-16,.cls-9{stroke:#000;}.cls-9{stroke-miterlimit:10;stroke-width:0.32px;}.cls-10{font-size:24px;}.cls-11{letter-spacing:-0.04em;}.cls-12{letter-spacing:-0.02em;}.cls-13{letter-spacing:-0.02em;}.cls-14{stroke-width:0.35px;}.cls-15{stroke-width:0.75px;}</style></defs><title>21floor_174flat</title><text class="cls-1" transform="translate(127.43 6.8)">у<tspan class="cls-2" x="3.62" y="0">лица</tspan></text><line class="cls-3" x1="118.92" y1="0.82" x2="118.92" y2="7.94"/><polyline class="cls-3" points="121.76 3.65 118.92 0.82 116.09 3.65"/><text class="cls-4" transform="translate(110.17 287.74)">5.20</text><text class="cls-4" transform="translate(200.97 287.74)">3.20</text><text class="cls-4" transform="translate(42 287.74)">3<tspan class="cls-5" x="11" y="0">.</tspan><tspan class="cls-6" x="15.6" y="0">70</tspan></text><text class="cls-4" transform="translate(41.97 82.89)">14.20</text><text class="cls-4" transform="translate(175.82 102.45)">11<tspan class="cls-7" x="15.49" y="0">.</tspan><tspan class="cls-8" x="20.09" y="0">70</tspan></text><rect class="cls-9" x="155.23" y="123.13" width="80" height="31.31"/><rect class="cls-9" x="155.23" y="154.44" width="80" height="31.31"/><rect class="cls-9" x="155.23" y="185.76" width="80" height="31.31"/><text class="cls-10" transform="translate(166.42 146.51)">№1<tspan class="cls-11" x="34.63" y="0">7</tspan><tspan x="44.47" y="0">4</tspan><tspan x="17.96" y="30.86">1</tspan><tspan class="cls-12" x="26.41" y="30.86">К</tspan><tspan x="-0.3" y="61.72">38</tspan><tspan class="cls-13" x="25.14" y="61.72">.</tspan><tspan x="30.18" y="61.72">00</tspan></text><line class="cls-14" x1="18.11" y1="271.97" x2="32.84" y2="271.97"/><polyline class="cls-14" points="17.23 272.64 11.65 272.64 11.65 256.72"/><line class="cls-14" x1="20.67" y1="264.68" x2="20.67" y2="258.79"/><polyline class="cls-14" points="32.84 271.97 20.68 270.56 20.68 264.68"/><line class="cls-14" x1="32.84" y1="257.38" x2="20.67" y2="258.79"/><line class="cls-14" x1="32.84" y1="271.62" x2="20.67" y2="270.2"/><line class="cls-14" x1="32.84" y1="257.73" x2="20.67" y2="259.15"/><line class="cls-14" x1="18.11" y1="257.38" x2="32.84" y2="257.38"/><line class="cls-14" x1="11.65" y1="256.72" x2="17.23" y2="256.72"/><polyline class="cls-14" points="32.84 271.97 34.47 271.8 36.02 271.18 37.35 270.16 38.45 268.83 39.2 267.29 39.6 265.56 39.6 263.79 39.2 262.07 38.45 260.52 37.35 259.19 36.02 258.18 34.47 257.56 32.84 257.38"/><polyline class="cls-14" points="32.84 271.62 34.38 271.4 35.84 270.82 37.13 269.85 38.14 268.61 38.85 267.15 39.25 265.52 39.25 263.84 38.85 262.2 38.14 260.74 37.13 259.5 35.84 258.53 34.38 257.95 32.84 257.73"/><path class="cls-14" d="M18.13,285.93a67.69,67.69,0,0,1,0,14.23" transform="translate(0 -28.34)"/><path class="cls-14" d="M18.19,300.17a.93.93,0,0,1-.94.81" transform="translate(0 -28.34)"/><path class="cls-14" d="M17.25,285.1a.93.93,0,0,1,.94.82" transform="translate(0 -28.34)"/><path class="cls-14" d="M15.94,293a.77.77,0,0,1-.77.78.78.78,0,0,1-.78-.78.77.77,0,0,1,.78-.77.76.76,0,0,1,.77.77" transform="translate(0 -28.34)"/><line class="cls-14" x1="14.09" y1="309.36" x2="14.09" y2="329.84"/><line class="cls-14" x1="16.54" y1="332.26" x2="69.67" y2="332.26"/><line class="cls-14" x1="16.54" y1="306.98" x2="69.67" y2="306.98"/><line class="cls-14" x1="84.67" y1="334.68" x2="11.65" y2="334.68"/><polyline class="cls-14" points="84.67 334.68 84.67 304.56 11.65 304.56 11.65 334.68"/><line class="cls-14" x1="61.14" y1="311.14" x2="19.58" y2="311.14"/><line class="cls-14" x1="18.33" y1="312.38" x2="18.33" y2="326.87"/><line class="cls-14" x1="61.14" y1="328.06" x2="19.58" y2="328.06"/><line class="cls-14" x1="26.9" y1="318.88" x2="26.9" y2="317.39"/><line class="cls-14" x1="26.16" y1="319.6" x2="24.61" y2="319.6"/><line class="cls-14" x1="26.9" y1="320.37" x2="26.9" y2="321.85"/><line class="cls-14" x1="27.65" y1="319.6" x2="29.15" y2="319.6"/><path class="cls-14" d="M69.69,335.32a12.65,12.65,0,1,1,0,25.29" transform="translate(0 -28.34)"/><path class="cls-14" d="M16.56,360.61a2.42,2.42,0,0,1-2.42-2.41" transform="translate(0 -28.34)"/><path class="cls-14" d="M14.14,337.72a2.42,2.42,0,0,1,2.42-2.4" transform="translate(0 -28.34)"/><path class="cls-14" d="M26.93,349.22A1.26,1.26,0,1,1,28.2,348a1.26,1.26,0,0,1-1.27,1.26" transform="translate(0 -28.34)"/><path class="cls-14" d="M61.17,339.49a8.48,8.48,0,1,1,0,16.95" transform="translate(0 -28.34)"/><path class="cls-14" d="M18.38,340.74a1.22,1.22,0,0,1,1.22-1.21" transform="translate(0 -28.34)"/><path class="cls-14" d="M19.6,356.44a1.22,1.22,0,0,1-1.22-1.21" transform="translate(0 -28.34)"/><path class="cls-14" d="M26.93,349.64A1.68,1.68,0,1,1,28.65,348a1.7,1.7,0,0,1-1.72,1.68" transform="translate(0 -28.34)"/><polyline class="cls-14" points="21.53 299.74 11.98 299.74 11.98 277.19 21.53 277.19"/><line class="cls-14" x1="11.98" y1="284.88" x2="11.98" y2="292"/><line class="cls-14" x1="19.68" y1="286.56" x2="19.68" y2="287.76"/><line class="cls-14" x1="17.77" y1="288.46" x2="18.97" y2="288.46"/><line class="cls-14" x1="19.68" y1="289.17" x2="19.68" y2="290.37"/><line class="cls-14" x1="20.34" y1="288.46" x2="21.58" y2="288.46"/><path class="cls-14" d="M22.15,326.72a10.06,10.06,0,0,1-4.76-3.9" transform="translate(0 -28.34)"/><path class="cls-14" d="M17.4,322.82a10.11,10.11,0,0,1-1.41-6" transform="translate(0 -28.34)"/><path class="cls-14" d="M17.39,310.84a10.06,10.06,0,0,1,4.76-3.9" transform="translate(0 -28.34)"/><path class="cls-14" d="M16,316.84a10.09,10.09,0,0,1,1.41-6" transform="translate(0 -28.34)"/><path class="cls-14" d="M21.57,305.53a5.76,5.76,0,0,1,4.72,2.14" transform="translate(0 -28.34)"/><path class="cls-14" d="M17.77,323.14a41.08,41.08,0,0,1,0-12.62" transform="translate(0 -28.34)"/><path class="cls-14" d="M13.82,309.35a14.19,14.19,0,0,1,9.22-3.2" transform="translate(0 -28.34)"/><path class="cls-14" d="M12.47,316.82a28,28,0,0,1,.7-6.45" transform="translate(0 -28.34)"/><path class="cls-14" d="M13.18,310.35a1.93,1.93,0,0,1,.64-1" transform="translate(0 -28.34)"/><path class="cls-14" d="M13.35,316.82a48.34,48.34,0,0,1,.46-6.36" transform="translate(0 -28.34)"/><path class="cls-14" d="M14.44,309.29a12.76,12.76,0,0,1,8.61-3.18" transform="translate(0 -28.34)"/><path class="cls-14" d="M13.81,310.47a1.83,1.83,0,0,1,.62-1.15" transform="translate(0 -28.34)"/><path class="cls-14" d="M23,327.55a12.73,12.73,0,0,1-8.6-3.2" transform="translate(0 -28.34)"/><path class="cls-14" d="M23,327.51a14.2,14.2,0,0,1-9.21-3.21" transform="translate(0 -28.34)"/><path class="cls-14" d="M13.8,323.18a48.45,48.45,0,0,1-.45-6.36" transform="translate(0 -28.34)"/><path class="cls-14" d="M13.16,323.26a28.09,28.09,0,0,1-.69-6.46" transform="translate(0 -28.34)"/><path class="cls-14" d="M14.43,324.34a1.88,1.88,0,0,1-.62-1.15" transform="translate(0 -28.34)"/><path class="cls-14" d="M13.82,324.3a1.84,1.84,0,0,1-.64-1" transform="translate(0 -28.34)"/><path class="cls-14" d="M26.29,325.94a5.73,5.73,0,0,1-4.72,2.14" transform="translate(0 -28.34)"/><path class="cls-14" d="M27.27,324.48a9.15,9.15,0,0,1-1,1.5" transform="translate(0 -28.34)"/><path class="cls-14" d="M26.3,307.68a8.74,8.74,0,0,1,1,1.5" transform="translate(0 -28.34)"/><path class="cls-14" d="M27.27,309.2A18.34,18.34,0,0,1,29.13,316v1.58a18.34,18.34,0,0,1-1.86,6.84" transform="translate(0 -28.34)"/><path class="cls-14" d="M27.53,313.72a13.34,13.34,0,0,1,0,6.22" transform="translate(0 -28.34)"/><path class="cls-14" d="M25,325.54a3.39,3.39,0,0,1-2.8,1.17" transform="translate(0 -28.34)"/><path class="cls-14" d="M27.49,319.92a12.21,12.21,0,0,1-2.57,5.62" transform="translate(0 -28.34)"/><path class="cls-14" d="M22.16,306.91a3.42,3.42,0,0,1,2.8,1.16" transform="translate(0 -28.34)"/><path class="cls-14" d="M24.92,308.11a12.25,12.25,0,0,1,2.57,5.62" transform="translate(0 -28.34)"/><path class="cls-14" d="M21.18,316.83a1.48,1.48,0,1,1-1.48-1.48,1.48,1.48,0,0,1,1.48,1.48" transform="translate(0 -28.34)"/><path class="cls-14" d="M20.74,316.83a1,1,0,1,1-2.08,0,1,1,0,0,1,2.08,0" transform="translate(0 -28.34)"/><polyline class="cls-15" points="32.47 45.33 32.47 39.12 0.38 39.12 0.38 66.51"/><polyline class="cls-15" points="143.65 39.12 104.79 39.12 104.79 47.71"/><line class="cls-15" x1="0.38" y1="45.33" x2="0.38" y2="45.33"/><line class="cls-15" x1="10.41" y1="45.33" x2="32.47" y2="45.33"/><line class="cls-16" x1="32.47" y1="39.12" x2="104.79" y2="39.12"/><line class="cls-15" x1="0.38" y1="55.36" x2="0.38" y2="55.36"/><polyline class="cls-15" points="159.04 66.34 159.04 57.19 143.65 57.19"/><polyline class="cls-15" points="231.36 65.56 231.36 57.19 263.5 57.19 263.5 83.11"/><line class="cls-15" x1="231.36" y1="63.4" x2="253.42" y2="63.4"/><line class="cls-15" x1="263.5" y1="63.4" x2="263.5" y2="63.4"/><line class="cls-16" x1="159.04" y1="57.19" x2="231.36" y2="57.19"/><line class="cls-15" x1="263.5" y1="73.47" x2="263.5" y2="73.47"/><line class="cls-15" x1="159.04" y1="65.95" x2="159.04" y2="63.4"/><polyline class="cls-15" points="143.48 63.4 137.44 63.4 137.44 45.33 127.41 45.33"/><line class="cls-15" x1="231.36" y1="63.4" x2="231.36" y2="65.95"/><line class="cls-15" x1="253.42" y1="73.47" x2="231.36" y2="73.47"/><line class="cls-15" x1="159.04" y1="73.47" x2="127.41" y2="73.47"/><line class="cls-15" x1="159.04" y1="63.4" x2="143.48" y2="63.4"/><line class="cls-15" x1="143.65" y1="57.19" x2="143.65" y2="39.12"/><line class="cls-15" x1="32.47" y1="47.88" x2="32.47" y2="45.33"/><line class="cls-15" x1="104.79" y1="45.33" x2="104.79" y2="47.88"/><line class="cls-15" x1="32.47" y1="55.36" x2="10.41" y2="55.36"/><line class="cls-15" x1="127.41" y1="55.36" x2="104.79" y2="55.36"/><line class="cls-15" x1="127.41" y1="45.33" x2="104.79" y2="45.33"/><line class="cls-15" x1="127.41" y1="73.47" x2="127.41" y2="55.36"/><polyline class="cls-15" points="34.51 239.58 34.51 252.04 10.41 252.04 34.51 252.04 34.51 239.58"/><line class="cls-16" x1="206.44" y1="55.58" x2="206.44" y2="57.19"/><line class="cls-16" x1="207.25" y1="55.58" x2="207.25" y2="57.19"/><line class="cls-16" x1="183.95" y1="55.58" x2="183.95" y2="57.19"/><line class="cls-16" x1="183.15" y1="55.58" x2="183.15" y2="57.19"/><polyline class="cls-16" points="179.11 39.51 211.25 39.51 211.25 55.58 179.11 55.58 179.11 39.51"/><polyline class="cls-16" points="215.29 57.19 215.29 34.87 175.11 34.87 175.11 57.19"/><polyline class="cls-16" points="177.7 57.19 177.7 37.51 212.65 37.51 212.65 57.19"/><line class="cls-16" x1="177.7" y1="37.72" x2="212.65" y2="37.72"/><line class="cls-15" x1="3.22" y1="344.63" x2="3.31" y2="344.55"/><polyline class="cls-15" points="10.41 344.63 10.41 334.56 10.41 333.75"/><polyline class="cls-15" points="10.41 333.75 10.41 45.33 0.38 45.33 0.38 333.75"/><polyline class="cls-15" points="0.38 333.75 0.38 334.56 0.38 344.63 10.41 344.63"/><polyline class="cls-15" points="263.5 333.75 263.5 63.4 253.42 63.4 253.42 333.75"/><line class="cls-16" x1="76.69" y1="231.93" x2="76.69" y2="243.58"/><polyline class="cls-16" points="76.69 250 76.69 252.04 34.51 252.04 34.51 239.58"/><polyline class="cls-16" points="34.51 233.93 34.51 231.93 76.69 231.93"/><polyline class="cls-16" points="34.51 252.04 76.69 252.04 76.69 250"/><polyline class="cls-16" points="76.69 243.58 76.69 231.93 34.51 231.93 34.51 233.93"/><line class="cls-16" x1="34.51" y1="239.58" x2="34.51" y2="252.04"/><polyline class="cls-16" points="76.69 231.93 34.51 231.93 34.51 233.93"/><line class="cls-16" x1="34.51" y1="239.58" x2="34.51" y2="252.04"/><line class="cls-15" x1="130.13" y1="344.63" x2="130.13" y2="341.4"/><line class="cls-15" x1="130.13" y1="338.6" x2="130.13" y2="334.56"/><line class="cls-15" x1="172.3" y1="334.56" x2="172.3" y2="338.6"/><line class="cls-15" x1="172.3" y1="341.4" x2="172.3" y2="344.63"/><line class="cls-15" x1="263.5" y1="344.63" x2="253.42" y2="344.63"/><line class="cls-15" x1="253.42" y1="344.63" x2="172.3" y2="344.63"/><line class="cls-15" x1="130.13" y1="344.63" x2="10.41" y2="344.63"/><line class="cls-15" x1="130.13" y1="334.56" x2="10.41" y2="334.56"/><line class="cls-15" x1="10.41" y1="333.75" x2="10.41" y2="344.63"/><line class="cls-15" x1="263.5" y1="333.75" x2="263.5" y2="344.63"/><line class="cls-15" x1="253.42" y1="344.63" x2="253.42" y2="333.75"/><line class="cls-15" x1="253.42" y1="334.56" x2="172.3" y2="334.56"/><line class="cls-15" x1="0.38" y1="344.63" x2="0.38" y2="333.75"/><line class="cls-15" x1="100.79" y1="247.61" x2="100.79" y2="244.38"/><line class="cls-15" x1="145.78" y1="247.61" x2="145.78" y2="244.38"/><line class="cls-15" x1="132.94" y1="244.38" x2="132.94" y2="247.61"/><line class="cls-15" x1="199.6" y1="247.61" x2="199.6" y2="244.38"/><line class="cls-15" x1="177.92" y1="244.38" x2="177.92" y2="247.61"/><line class="cls-15" x1="231.74" y1="244.38" x2="231.74" y2="247.61"/><line class="cls-15" x1="100.79" y1="247.61" x2="89.53" y2="247.61"/><line class="cls-15" x1="199.6" y1="247.61" x2="192.37" y2="247.61"/><line class="cls-15" x1="253.42" y1="247.61" x2="231.74" y2="247.61"/><line class="cls-15" x1="189.14" y1="247.61" x2="177.92" y2="247.61"/><line class="cls-15" x1="145.78" y1="247.61" x2="132.94" y2="247.61"/><line class="cls-15" x1="100.79" y1="244.38" x2="89.53" y2="244.38"/><line class="cls-15" x1="145.78" y1="244.38" x2="140.97" y2="244.38"/><line class="cls-15" x1="137.74" y1="244.38" x2="132.94" y2="244.38"/><line class="cls-15" x1="199.6" y1="244.38" x2="177.92" y2="244.38"/><line class="cls-15" x1="253.42" y1="244.38" x2="231.74" y2="244.38"/><line class="cls-15" x1="189.14" y1="334.56" x2="192.37" y2="334.56"/><line class="cls-15" x1="189.14" y1="334.56" x2="189.14" y2="247.61"/><line class="cls-15" x1="192.37" y1="334.56" x2="192.37" y2="247.61"/><line class="cls-15" x1="140.97" y1="73.47" x2="137.74" y2="73.47"/><line class="cls-15" x1="137.74" y1="73.47" x2="137.74" y2="244.38"/><line class="cls-15" x1="140.97" y1="244.38" x2="140.97" y2="73.47"/><line class="cls-15" x1="84.72" y1="271.51" x2="89.53" y2="271.51"/><line class="cls-15" x1="84.72" y1="334.56" x2="89.53" y2="334.56"/><line class="cls-15" x1="89.53" y1="303.65" x2="84.72" y2="303.65"/><line class="cls-15" x1="84.72" y1="334.56" x2="84.72" y2="303.65"/><line class="cls-15" x1="84.72" y1="271.51" x2="84.72" y2="249.19"/><line class="cls-15" x1="89.53" y1="334.56" x2="89.53" y2="303.65"/><line class="cls-15" x1="89.53" y1="271.51" x2="89.53" y2="244.38"/><polyline class="cls-15" points="10.41 239.58 34.51 239.58 34.51 234.73"/><polyline class="cls-15" points="34.51 234.73 10.41 234.73 10.41 239.58"/><line class="cls-16" x1="68.65" y1="244.38" x2="68.65" y2="249.19"/><line class="cls-15" x1="84.72" y1="249.19" x2="76.69" y2="249.19"/><line class="cls-15" x1="89.53" y1="244.38" x2="76.69" y2="244.38"/><line class="cls-16" x1="36.51" y1="242.6" x2="38.51" y2="240.6"/><line class="cls-16" x1="42.72" y1="236.39" x2="45.19" y2="233.93"/><line class="cls-16" x1="38.3" y1="250" x2="40.38" y2="247.91"/><line class="cls-16" x1="52.33" y1="235.97" x2="54.33" y2="233.93"/><line class="cls-16" x1="42.93" y1="245.36" x2="44.93" y2="243.32"/><line class="cls-16" x1="47.44" y1="250" x2="49.44" y2="248"/><line class="cls-16" x1="61.51" y1="235.97" x2="63.51" y2="233.93"/><line class="cls-16" x1="56.62" y1="250" x2="58.62" y2="248"/><line class="cls-16" x1="66.66" y1="239.96" x2="68.65" y2="237.96"/><line class="cls-16" x1="65.76" y1="250" x2="68.65" y2="247.15"/><line class="cls-16" x1="36.51" y1="238.05" x2="37.58" y2="236.99"/><line class="cls-16" x1="38.68" y1="235.84" x2="38.81" y2="235.75"/><line class="cls-16" x1="39.83" y1="234.69" x2="40.59" y2="233.93"/><line class="cls-16" x1="36.51" y1="247.19" x2="38.51" y2="245.19"/><line class="cls-16" x1="47.74" y1="235.97" x2="49.78" y2="233.93"/><line class="cls-16" x1="43.27" y1="240.43" x2="43.36" y2="240.34"/><line class="cls-16" x1="44.42" y1="239.28" x2="44.93" y2="238.77"/><line class="cls-16" x1="42.85" y1="250" x2="45.23" y2="247.66"/><line class="cls-16" x1="57.05" y1="235.84" x2="58.92" y2="233.93"/><line class="cls-16" x1="52.46" y1="249.57" x2="52.54" y2="249.49"/><line class="cls-16" x1="53.6" y1="248.42" x2="54.03" y2="248"/><line class="cls-16" x1="65.98" y1="236.05" x2="67.34" y2="234.69"/><line class="cls-16" x1="61.17" y1="250" x2="63.21" y2="248"/><line class="cls-16" x1="66.66" y1="244.55" x2="68.65" y2="242.56"/><polyline class="cls-16" points="68.65 233.93 36.51 233.93 36.51 250 68.65 250 68.65 233.93"/><path class="cls-16" d="M46,264.27a1,1,0,0,0-1,1" transform="translate(0 -28.34)"/><line class="cls-16" x1="45.95" y1="235.97" x2="65.64" y2="235.97"/><path class="cls-16" d="M66.66,265.27a1,1,0,0,0-1-1" transform="translate(0 -28.34)"/><line class="cls-16" x1="66.66" y1="236.94" x2="66.66" y2="246.98"/><path class="cls-16" d="M65.66,276.3a1,1,0,0,0,1-1" transform="translate(0 -28.34)"/><line class="cls-16" x1="65.64" y1="248" x2="45.95" y2="248"/><path class="cls-16" d="M45,275.3a1,1,0,0,0,1,1" transform="translate(0 -28.34)"/><line class="cls-16" x1="44.93" y1="246.98" x2="44.93" y2="236.94"/><path class="cls-16" d="M41,264.27a2.4,2.4,0,0,0-2.41,2.4" transform="translate(0 -28.34)"/><line class="cls-16" x1="40.93" y1="235.97" x2="41.95" y2="235.97"/><path class="cls-16" d="M43,265.27a1,1,0,0,0-1-1" transform="translate(0 -28.34)"/><line class="cls-16" x1="42.93" y1="236.94" x2="42.93" y2="246.98"/><path class="cls-16" d="M42,276.3a1,1,0,0,0,1-1" transform="translate(0 -28.34)"/><line class="cls-16" x1="41.95" y1="248" x2="40.93" y2="248"/><path class="cls-16" d="M38.55,273.9A2.41,2.41,0,0,0,41,276.3" transform="translate(0 -28.34)"/><line class="cls-16" x1="38.51" y1="245.57" x2="38.51" y2="238.35"/><line class="cls-16" x1="70.61" y1="236.01" x2="72.69" y2="233.93"/><line class="cls-16" x1="72.65" y1="243.11" x2="74.69" y2="241.11"/><line class="cls-16" x1="73.08" y1="238.13" x2="73.16" y2="238.05"/><line class="cls-16" x1="74.22" y1="236.99" x2="74.69" y2="236.52"/><line class="cls-16" x1="70.78" y1="249.57" x2="74.69" y2="245.7"/><polyline class="cls-16" points="74.69 233.93 68.65 233.93 68.65 235.97 70.27 235.97"/><path class="cls-16" d="M72.69,266.67a2.39,2.39,0,0,0-2.4-2.4" transform="translate(0 -28.34)"/><line class="cls-16" x1="72.65" y1="238.35" x2="72.65" y2="245.57"/><path class="cls-16" d="M70.29,276.3a2.4,2.4,0,0,0,2.4-2.4" transform="translate(0 -28.34)"/><polyline class="cls-16" points="70.27 248 68.65 248 68.65 250 74.69 250 74.69 233.93"/><path class="cls-16" d="M39.94,276.07l.19.08" transform="translate(0 -28.34)"/><path class="cls-16" d="M38.7,274.72a1.54,1.54,0,0,0,.08.19" transform="translate(0 -28.34)"/><path class="cls-16" d="M38.78,265.65a1.67,1.67,0,0,0-.08.2" transform="translate(0 -28.34)"/><path class="cls-16" d="M40.13,264.41l-.19.08" transform="translate(0 -28.34)"/><path class="cls-16" d="M71.3,264.49l-.19-.08" transform="translate(0 -28.34)"/><path class="cls-16" d="M72.55,265.85l-.08-.2" transform="translate(0 -28.34)"/><polyline class="cls-15" points="32.47 47.88 32.47 57.4 104.79 57.4 104.79 47.88"/><polyline class="cls-16" points="57.47 47.07 57.47 44.48 57.98 44.48 57.98 43.93 55.18 43.93 55.18 44.48 55.98 44.48 55.98 47.07 57.47 47.07"/><line class="cls-16" x1="55.73" y1="44.48" x2="55.73" y2="44.56"/><line class="cls-16" x1="55.81" y1="47.07" x2="55.98" y2="47.07"/><polyline class="cls-16" points="99.6 45.37 100.41 45.37 100.41 46.35 99.6 46.35 99.6 47.71 102.45 47.71 102.45 47.16 101.64 47.16 101.64 44.56 99.6 44.56 99.6 45.37"/><polyline class="cls-16" points="58.58 45.37 59.38 45.37 59.38 44.56 57.34 44.56 57.34 47.16 56.54 47.16 56.54 47.71 59.38 47.71 59.38 46.35 58.58 46.35 58.58 45.37"/><line class="cls-16" x1="59.39" y1="45.37" x2="99.6" y2="45.37"/><line class="cls-16" x1="99.6" y1="44.56" x2="59.39" y2="44.56"/><line class="cls-16" x1="99.6" y1="46.35" x2="59.39" y2="46.35"/><line class="cls-16" x1="59.39" y1="47.71" x2="99.6" y2="47.71"/><polyline class="cls-16" points="103.81 43.93 100.97 43.93 100.97 44.48 101.77 44.48 101.77 47.07 103.81 47.07 103.81 43.93"/><polyline class="cls-16" points="33.49 43.93 33.49 47.07 35.49 47.07 35.49 44.48 36.3 44.48 36.3 43.93 33.49 43.93"/><line class="cls-16" x1="100.96" y1="43.93" x2="57.98" y2="43.93"/><line class="cls-16" x1="55.18" y1="43.93" x2="36.3" y2="43.93"/><line class="cls-16" x1="35.49" y1="47.07" x2="35.66" y2="47.07"/><line class="cls-16" x1="101.64" y1="47.07" x2="101.77" y2="47.07"/><line class="cls-16" x1="36.3" y1="44.48" x2="55.18" y2="44.48"/><line class="cls-16" x1="57.98" y1="44.48" x2="100.96" y2="44.48"/><polyline class="cls-16" points="36.85 46.35 36.85 45.37 37.66 45.37 37.66 44.56 35.66 44.56 35.66 47.16 34.85 47.16 34.85 47.71 37.66 47.71 37.66 46.35 36.85 46.35"/><polyline class="cls-16" points="54.62 45.37 54.62 46.35 53.82 46.35 53.82 47.71 56.62 47.71 56.62 47.16 55.81 47.16 55.81 44.56 53.82 44.56 53.82 45.37 54.62 45.37"/><line class="cls-16" x1="37.66" y1="45.37" x2="53.82" y2="45.37"/><line class="cls-16" x1="53.82" y1="46.35" x2="37.66" y2="46.35"/><line class="cls-16" x1="37.66" y1="47.71" x2="53.82" y2="47.71"/><line class="cls-16" x1="53.82" y1="44.56" x2="37.66" y2="44.56"/><polyline class="cls-15" points="159.04 65.95 159.04 75.47 231.36 75.47 231.36 65.95"/><polyline class="cls-16" points="208.1 65.14 208.1 62.55 208.65 62.55 208.65 62 205.85 62 205.85 62.55 206.66 62.55 206.66 65.14 208.1 65.14"/><line class="cls-16" x1="206.36" y1="62.55" x2="206.36" y2="62.63"/><line class="cls-16" x1="206.49" y1="65.14" x2="206.66" y2="65.14"/><polyline class="cls-16" points="226.17 63.44 226.98 63.44 226.98 64.42 226.17 64.42 226.17 65.78 228.98 65.78 228.98 65.23 228.17 65.23 228.17 62.63 226.17 62.63 226.17 63.44"/><polyline class="cls-16" points="209.21 63.44 210.01 63.44 210.01 62.63 208.02 62.63 208.02 65.23 207.21 65.23 207.21 65.78 210.01 65.78 210.01 64.42 209.21 64.42 209.21 63.44"/><line class="cls-16" x1="210.01" y1="63.44" x2="226.17" y2="63.44"/><line class="cls-16" x1="226.17" y1="62.63" x2="210.01" y2="62.63"/><line class="cls-16" x1="226.17" y1="64.42" x2="210.01" y2="64.42"/><line class="cls-16" x1="210.01" y1="65.78" x2="226.17" y2="65.78"/><polyline class="cls-16" points="160.02 62 160.02 65.14 162.06 65.14 162.06 62.55 162.87 62.55 162.87 62 160.02 62"/><polyline class="cls-16" points="230.34 62 227.53 62 227.53 62.55 228.34 62.55 228.34 65.14 230.34 65.14 230.34 62"/><line class="cls-16" x1="227.53" y1="62" x2="208.65" y2="62"/><line class="cls-16" x1="205.85" y1="62" x2="162.87" y2="62"/><line class="cls-16" x1="162.06" y1="65.14" x2="162.19" y2="65.14"/><line class="cls-16" x1="228.17" y1="65.14" x2="228.34" y2="65.14"/><line class="cls-16" x1="162.87" y1="62.55" x2="205.85" y2="62.55"/><line class="cls-16" x1="208.65" y1="62.55" x2="227.53" y2="62.55"/><polyline class="cls-16" points="163.42 64.42 163.42 63.44 164.23 63.44 164.23 62.63 162.19 62.63 162.19 65.23 161.42 65.23 161.42 65.78 164.23 65.78 164.23 64.42 163.42 64.42"/><polyline class="cls-16" points="205.25 63.44 205.25 64.42 204.44 64.42 204.44 65.78 207.29 65.78 207.29 65.23 206.49 65.23 206.49 62.63 204.44 62.63 204.44 63.44 205.25 63.44"/><line class="cls-16" x1="164.23" y1="63.44" x2="204.45" y2="63.44"/><line class="cls-16" x1="204.45" y1="64.42" x2="164.23" y2="64.42"/><line class="cls-16" x1="164.23" y1="65.78" x2="204.45" y2="65.78"/><line class="cls-16" x1="204.45" y1="62.63" x2="164.23" y2="62.63"/><polyline class="cls-16" points="137.36 319.72 136.59 321.08 169.29 340 170.09 338.6 137.36 319.72"/><polyline class="cls-15" points="171.5 341.4 171.5 338.6 170.09 338.6 170.09 340.21 169.67 340.21 169.67 341.4 171.5 341.4"/><polyline class="cls-15" points="130.9 341.4 132.72 341.4 132.72 340.21 132.3 340.21 132.3 338.6 130.9 338.6 130.9 341.4"/></svg>