<svg id="_292" data-name="292" xmlns="http://www.w3.org/2000/svg" viewBox="0 0 194.1 271.78"><defs><style>.cls-1{isolation:isolate;font-size:6px;fill:#969696;font-family:PTSans-Regular, PT Sans;}.cls-10,.cls-11,.cls-2,.cls-5,.cls-8,.cls-9{fill:none;}.cls-2{stroke:#969696;stroke-width:0.37px;}.cls-10,.cls-11,.cls-2,.cls-8,.cls-9{stroke-linecap:round;stroke-linejoin:round;}.cls-3{font-size:14px;}.cls-3,.cls-6{fill:#231f20;font-family:BigCityGrotesquePro-Regular, BigCity Grotesque Pro;}.cls-4{letter-spacing:-0.02em;}.cls-10,.cls-11,.cls-5,.cls-8,.cls-9{stroke:#000;}.cls-5{stroke-miterlimit:10;}.cls-11,.cls-5{stroke-width:0.5px;}.cls-6{font-size:18px;}.cls-7{letter-spacing:-0.02em;}.cls-9{stroke-width:0.54px;}.cls-10{stroke-width:0.2px;}</style></defs><title>8floor_292flat</title><text class="cls-1" transform="translate(94.39 270.18)">двор</text><line class="cls-2" x1="89.01" y1="271.59" x2="89.01" y2="267.19"/><polyline class="cls-2" points="87.26 269.84 89.01 271.59 90.76 269.84"/><text class="cls-3" transform="translate(85.58 43.3)">5.20</text><text class="cls-3" transform="translate(20.76 43.3)">3<tspan class="cls-4" x="7" y="0">.</tspan><tspan x="9.93" y="0">70</tspan></text><text class="cls-3" transform="translate(148.16 43.3)">3.20</text><text class="cls-3" transform="translate(124.64 189.4)">12.20</text><text class="cls-3" transform="translate(38.46 170.89)">11.50</text><rect class="cls-5" x="111.22" y="81.68" width="62.22" height="24.35"/><rect class="cls-5" x="111.22" y="106.03" width="62.22" height="24.35"/><rect class="cls-5" x="111.22" y="130.39" width="62.22" height="24.35"/><text class="cls-6" transform="translate(118.82 99.34)">№292<tspan x="15.37" y="24">1</tspan><tspan class="cls-7" x="21.71" y="24">К</tspan><tspan x="2.26" y="48">35.80</tspan></text><line class="cls-8" x1="75.35" y1="187.51" x2="75.35" y2="189.04"/><line class="cls-8" x1="7.69" y1="181.85" x2="7.69" y2="189.04"/><line class="cls-8" x1="23.53" y1="189.04" x2="23.53" y2="187.51"/><line class="cls-8" x1="7.69" y1="181.85" x2="23.53" y2="181.85"/><line class="cls-8" x1="75.35" y1="189.04" x2="98.38" y2="189.04"/><line class="cls-8" x1="7.69" y1="189.04" x2="23.53" y2="189.04"/><line class="cls-8" x1="0.5" y1="189.04" x2="0.5" y2="181.85"/><line class="cls-8" x1="0.5" y1="181.85" x2="0.5" y2="181.85"/><line class="cls-8" x1="0.5" y1="189.04" x2="0.5" y2="189.04"/><line class="cls-8" x1="189.04" y1="181.85" x2="189.04" y2="189.04"/><line class="cls-8" x1="189.04" y1="181.85" x2="189.04" y2="181.85"/><line class="cls-8" x1="189.04" y1="189.04" x2="189.04" y2="189.04"/><line class="cls-9" x1="189.04" y1="181.85" x2="189.04" y2="181.85"/><line class="cls-9" x1="189.04" y1="14.88" x2="189.04" y2="8.3"/><line class="cls-9" x1="49.42" y1="81.26" x2="23.53" y2="81.26"/><line class="cls-9" x1="23.53" y1="81.23" x2="23.53" y2="79.83"/><line class="cls-8" x1="23.53" y1="75.78" x2="8.27" y2="75.78"/><polyline class="cls-9" points="8.27 66.85 49.42 66.85 49.42 68.31"/><line class="cls-9" x1="49.42" y1="72.91" x2="49.42" y2="81.26"/><line class="cls-8" x1="107.64" y1="198.33" x2="112.73" y2="193.24"/><line class="cls-8" x1="98.38" y1="189.04" x2="107.64" y2="198.33"/><line class="cls-8" x1="112.73" y1="193.24" x2="101.33" y2="181.85"/><line class="cls-10" x1="139.75" y1="229.1" x2="140.11" y2="228.76"/><line class="cls-9" x1="113.12" y1="192.82" x2="140.11" y2="219.81"/><polyline class="cls-8" points="178.86 181.85 152.82 207.9 157.9 212.98"/><line class="cls-8" x1="157.9" y1="212.98" x2="181.85" y2="189.04"/><line class="cls-9" x1="140.11" y1="219.81" x2="152.42" y2="207.47"/><line class="cls-10" x1="140.11" y1="228.76" x2="140.45" y2="229.1"/><line class="cls-8" x1="157.9" y1="212.98" x2="160.98" y2="216.03"/><line class="cls-11" x1="160.98" y1="216.03" x2="161.07" y2="216.12"/><line class="cls-8" x1="161.07" y1="216.12" x2="183.68" y2="193.52"/><line class="cls-8" x1="160.98" y1="216.03" x2="183.65" y2="193.36"/><line class="cls-9" x1="161.29" y1="216.33" x2="140.11" y2="237.51"/><line class="cls-8" x1="104.47" y1="201.47" x2="104.59" y2="201.38"/><line class="cls-8" x1="104.59" y1="201.38" x2="107.64" y2="198.33"/><line class="cls-8" x1="96.52" y1="193.52" x2="104.47" y2="201.47"/><line class="cls-8" x1="96.58" y1="193.36" x2="104.59" y2="201.38"/><line class="cls-9" x1="140.11" y1="237.51" x2="104.29" y2="201.68"/><line class="cls-10" x1="143.25" y1="227.45" x2="154.77" y2="215.97"/><line class="cls-10" x1="143.07" y1="227.27" x2="154.55" y2="215.75"/><line class="cls-10" x1="154.89" y1="216.09" x2="143.37" y2="227.57"/><line class="cls-10" x1="154.68" y1="215.88" x2="143.19" y2="227.39"/><polyline class="cls-10" points="142.76 227.57 143.07 227.27 143.19 227.39 142.89 227.7 142.76 227.57"/><polyline class="cls-10" points="142.95 227.79 143.25 227.45 143.37 227.57 143.07 227.91 142.95 227.79"/><polyline class="cls-10" points="154.98 215.57 154.68 215.88 154.55 215.75 154.86 215.45 154.98 215.57"/><polyline class="cls-10" points="155.19 215.78 154.89 216.09 154.77 215.97 155.07 215.66 155.19 215.78"/><line class="cls-10" x1="110.81" y1="201.31" x2="122.14" y2="212.68"/><line class="cls-10" x1="110.99" y1="201.1" x2="122.35" y2="212.46"/><line class="cls-10" x1="122.02" y1="212.8" x2="110.69" y2="201.44"/><line class="cls-10" x1="122.23" y1="212.59" x2="110.87" y2="201.22"/><polyline class="cls-10" points="110.5 201.01 110.81 201.31 110.69 201.44 110.38 201.13 110.5 201.01"/><polyline class="cls-10" points="122.32 213.1 122.02 212.8 122.14 212.68 122.44 212.98 122.32 213.1"/><polyline class="cls-10" points="110.69 200.8 110.99 201.1 110.87 201.22 110.56 200.92 110.69 200.8"/><polyline class="cls-10" points="122.54 212.89 122.23 212.59 122.35 212.46 122.66 212.77 122.54 212.89"/><polyline class="cls-10" points="108.83 198.15 110.11 199.43 108.8 200.74 109.19 201.16 108.92 201.44 107.24 199.73 108.83 198.15"/><polyline class="cls-10" points="156.75 212.8 158.33 214.41 156.63 216.09 156.35 215.81 156.75 215.39 155.44 214.11 156.75 212.8"/><polyline class="cls-10" points="141.39 228.15 142.7 229.46 143.1 229.07 143.37 229.34 140.11 232.63 136.82 229.34 137.22 228.94 137.65 229.34 138.13 228.85 137.74 228.46 138.41 227.76 140.11 229.43 141.39 228.15"/><polyline class="cls-10" points="123.72 216.24 122.02 214.54 122.32 214.26 122.72 214.66 124.03 213.35 125.31 214.66 123.72 216.24"/><line class="cls-10" x1="143.37" y1="229.34" x2="156.62" y2="216.09"/><line class="cls-10" x1="124.03" y1="213.35" x2="123.94" y2="213.26"/><line class="cls-10" x1="110.2" y1="199.55" x2="110.11" y2="199.43"/><line class="cls-10" x1="136.82" y1="229.34" x2="123.72" y2="216.24"/><line class="cls-10" x1="108.92" y1="201.44" x2="122.02" y2="214.54"/><line class="cls-10" x1="122.32" y1="214.26" x2="109.19" y2="201.16"/><line class="cls-10" x1="156.35" y1="215.82" x2="143.1" y2="229.07"/><line class="cls-10" x1="155.44" y1="214.11" x2="155.35" y2="214.2"/><line class="cls-10" x1="141.48" y1="228.06" x2="141.39" y2="228.15"/><line class="cls-10" x1="138.41" y1="227.76" x2="125.31" y2="214.66"/><line class="cls-10" x1="137.74" y1="228.46" x2="124.61" y2="215.33"/><line class="cls-10" x1="137.22" y1="228.95" x2="124.12" y2="215.82"/><polyline class="cls-10" points="154.77 215.39 154.37 215.78 153.67 215.08 155.38 213.41 155.65 213.68 155.25 214.11 156.56 215.39 155.25 216.67 154.86 216.27 155.25 215.88 155.19 215.78"/><line class="cls-10" x1="155.07" y1="215.66" x2="154.98" y2="215.57"/><line class="cls-10" x1="154.86" y1="215.45" x2="154.77" y2="215.39"/><polyline class="cls-10" points="143.16 227.97 143.56 227.57 143.98 227.97 142.7 229.25 141.39 227.97 140.97 228.37 140.69 228.09 142.4 226.39 143.07 227.09 142.67 227.48 142.76 227.57"/><line class="cls-10" x1="142.89" y1="227.7" x2="142.95" y2="227.79"/><line class="cls-10" x1="143.07" y1="227.91" x2="143.16" y2="227.97"/><line class="cls-10" x1="143.56" y1="227.57" x2="154.86" y2="216.27"/><line class="cls-10" x1="154.37" y1="215.79" x2="143.07" y2="227.09"/><line class="cls-10" x1="142.4" y1="226.39" x2="153.67" y2="215.08"/><line class="cls-10" x1="155.25" y1="216.67" x2="143.98" y2="227.97"/><polyline class="cls-10" points="110.29 201.22 110.69 201.62 110.29 202.01 109.01 200.74 110.32 199.43 109.89 199.03 110.2 198.76 111.87 200.43 111.17 201.13 110.78 200.74 110.69 200.8"/><line class="cls-10" x1="110.56" y1="200.92" x2="110.5" y2="201.01"/><line class="cls-10" x1="110.38" y1="201.13" x2="110.29" y2="201.22"/><polyline class="cls-10" points="122.75 212.68 122.32 212.28 123.02 211.58 124.73 213.29 124.42 213.56 124.03 213.16 122.72 214.47 121.44 213.16 121.84 212.77 122.26 213.16 122.32 213.1"/><line class="cls-10" x1="122.45" y1="212.98" x2="122.54" y2="212.89"/><line class="cls-10" x1="122.66" y1="212.77" x2="122.75" y2="212.68"/><line class="cls-10" x1="110.69" y1="201.62" x2="121.84" y2="212.77"/><line class="cls-10" x1="122.32" y1="212.28" x2="111.17" y2="201.13"/><line class="cls-10" x1="111.87" y1="200.43" x2="123.02" y2="211.58"/><line class="cls-10" x1="121.44" y1="213.17" x2="110.29" y2="202.02"/><polyline class="cls-10" points="140.45 229.1 140.11 228.76 139.75 229.1"/><line class="cls-8" x1="189.04" y1="189.04" x2="181.85" y2="189.04"/><line class="cls-8" x1="183.68" y1="193.52" x2="189.04" y2="193.52"/><polyline class="cls-8" points="183.65 193.36 189.04 193.36 189.04 183.33"/><line class="cls-8" x1="75.35" y1="189.04" x2="75.35" y2="193.36"/><line class="cls-8" x1="75.35" y1="193.36" x2="75.35" y2="193.52"/><line class="cls-8" x1="7.69" y1="189.04" x2="0.5" y2="189.04"/><line class="cls-8" x1="23.53" y1="193.52" x2="23.53" y2="193.36"/><line class="cls-8" x1="23.53" y1="193.36" x2="23.53" y2="189.04"/><line class="cls-8" x1="75.35" y1="193.52" x2="96.52" y2="193.52"/><line class="cls-8" x1="0.5" y1="193.52" x2="23.53" y2="193.52"/><line class="cls-8" x1="75.35" y1="193.36" x2="96.58" y2="193.36"/><polyline class="cls-8" points="23.53 193.36 0.5 193.36 0.5 184.1"/><line class="cls-9" x1="75.35" y1="193.79" x2="23.53" y2="193.79"/><line class="cls-11" x1="167.44" y1="211.79" x2="166.62" y2="211"/><line class="cls-11" x1="167.01" y1="212.22" x2="166.22" y2="211.4"/><line class="cls-11" x1="178.83" y1="200.4" x2="178.01" y2="199.58"/><line class="cls-11" x1="179.23" y1="200" x2="178.41" y2="199.18"/><polyline class="cls-11" points="189.4 206.1 173.14 222.4 164.97 214.26 181.27 197.96 189.4 206.1"/><polyline class="cls-11" points="183.74 216.7 182.7 217.74 181.63 218.83 180.54 219.9 179.47 220.99 178.38 222.06 177.31 223.13 176.21 224.22 175.15 225.29 173.62 226.81 173.56 226.75 175.09 225.23 176.15 224.16 177.25 223.07 178.31 222 179.41 220.93 180.48 219.84 181.57 218.77 182.64 217.67 183.68 216.64 183.74 216.7"/><line class="cls-11" x1="182.64" y1="217.67" x2="182.7" y2="217.73"/><line class="cls-11" x1="181.57" y1="218.77" x2="181.64" y2="218.83"/><line class="cls-11" x1="180.48" y1="219.84" x2="180.54" y2="219.9"/><line class="cls-11" x1="179.41" y1="220.93" x2="179.47" y2="220.99"/><line class="cls-11" x1="178.31" y1="222" x2="178.38" y2="222.06"/><line class="cls-11" x1="177.25" y1="223.07" x2="177.31" y2="223.13"/><line class="cls-11" x1="176.15" y1="224.16" x2="176.21" y2="224.22"/><line class="cls-11" x1="175.09" y1="225.23" x2="175.15" y2="225.29"/><polyline class="cls-11" points="193.85 206.46 183.68 216.64 183.62 216.58 193.79 206.4 193.85 206.46"/><polyline class="cls-11" points="162.14 215.48 173.44 226.75 193.79 206.4 182.49 195.1"/><polyline class="cls-11" points="181.18 196.44 191.14 206.4 173.44 224.13 163.45 214.14"/><line class="cls-11" x1="191.05" y1="206.31" x2="173.32" y2="224.01"/><line class="cls-8" x1="164.58" y1="70.02" x2="164.58" y2="72.33"/><line class="cls-8" x1="181.85" y1="72.33" x2="181.85" y2="70.02"/><line class="cls-8" x1="129.88" y1="70.02" x2="129.88" y2="72.33"/><line class="cls-8" x1="141.55" y1="72.33" x2="141.55" y2="70.02"/><line class="cls-8" x1="95.33" y1="70.02" x2="95.33" y2="72.33"/><line class="cls-8" x1="106.85" y1="72.33" x2="106.85" y2="70.02"/><line class="cls-8" x1="72.3" y1="72.33" x2="72.3" y2="70.02"/><line class="cls-8" x1="164.58" y1="70.02" x2="181.85" y2="70.02"/><line class="cls-8" x1="95.33" y1="70.02" x2="106.85" y2="70.02"/><line class="cls-8" x1="64.41" y1="70.02" x2="72.3" y2="70.02"/><line class="cls-8" x1="64.41" y1="72.33" x2="64.41" y2="70.02"/><line class="cls-8" x1="95.33" y1="72.33" x2="99.08" y2="72.33"/><line class="cls-8" x1="141.55" y1="70.02" x2="138.1" y2="70.02"/><line class="cls-8" x1="135.79" y1="70.02" x2="129.88" y2="70.02"/><line class="cls-8" x1="129.88" y1="72.33" x2="141.55" y2="72.33"/><line class="cls-8" x1="164.58" y1="72.33" x2="181.85" y2="72.33"/><line class="cls-8" x1="75.35" y1="181.85" x2="101.39" y2="181.85"/><line class="cls-8" x1="99.08" y1="181.85" x2="99.08" y2="72.33"/><polyline class="cls-8" points="106.85 72.33 101.39 72.33 101.39 181.85"/><line class="cls-8" x1="138.1" y1="7.72" x2="135.79" y2="7.72"/><line class="cls-8" x1="135.79" y1="70.02" x2="135.79" y2="7.72"/><line class="cls-8" x1="138.1" y1="70.02" x2="138.1" y2="7.72"/><line class="cls-8" x1="60.94" y1="29.87" x2="64.41" y2="29.87"/><line class="cls-8" x1="64.41" y1="7.72" x2="60.94" y2="7.72"/><line class="cls-8" x1="64.41" y1="52.9" x2="60.94" y2="52.9"/><line class="cls-8" x1="60.94" y1="29.87" x2="60.94" y2="7.72"/><line class="cls-8" x1="60.94" y1="68.86" x2="60.94" y2="52.9"/><line class="cls-8" x1="64.41" y1="29.87" x2="64.41" y2="7.72"/><line class="cls-8" x1="64.41" y1="70.02" x2="64.41" y2="52.9"/><line class="cls-8" x1="24.96" y1="75.78" x2="7.72" y2="75.78"/><line class="cls-8" x1="7.69" y1="75.78" x2="7.69" y2="79.25"/><polyline class="cls-8" points="7.69 79.25 24.96 79.25 24.96 75.78"/><line class="cls-11" x1="47.99" y1="68.86" x2="47.99" y2="72.33"/><line class="cls-8" x1="47.99" y1="68.86" x2="60.94" y2="68.86"/><line class="cls-8" x1="47.99" y1="72.33" x2="72.3" y2="72.33"/><line class="cls-8" x1="189.04" y1="78.94" x2="189.04" y2="82.42"/><line class="cls-9" x1="0.5" y1="120.16" x2="0.71" y2="119.98"/><line class="cls-9" x1="0.5" y1="126.74" x2="7.26" y2="119.98"/><line class="cls-9" x1="0.5" y1="133.29" x2="7.69" y2="126.1"/><line class="cls-9" x1="0.5" y1="139.87" x2="7.69" y2="132.68"/><line class="cls-9" x1="0.5" y1="146.42" x2="7.69" y2="139.23"/><line class="cls-9" x1="0.5" y1="153" x2="7.69" y2="145.81"/><line class="cls-9" x1="0.5" y1="159.55" x2="7.69" y2="152.36"/><line class="cls-9" x1="0.5" y1="166.13" x2="7.69" y2="158.94"/><line class="cls-9" x1="0.5" y1="172.71" x2="7.69" y2="165.49"/><line class="cls-9" x1="0.5" y1="179.26" x2="7.69" y2="172.07"/><line class="cls-9" x1="0.5" y1="185.84" x2="7.69" y2="178.62"/><line class="cls-9" x1="3.85" y1="189.04" x2="7.69" y2="185.2"/><line class="cls-9" x1="0.5" y1="123.45" x2="1.84" y2="122.11"/><line class="cls-9" x1="2.66" y1="121.29" x2="2.75" y2="121.2"/><line class="cls-9" x1="3.49" y1="120.46" x2="3.97" y2="119.98"/><line class="cls-9" x1="1.02" y1="129.48" x2="5.13" y2="125.37"/><line class="cls-9" x1="5.95" y1="124.55" x2="6.01" y2="124.49"/><line class="cls-9" x1="6.78" y1="123.72" x2="7.69" y2="122.81"/><line class="cls-9" x1="0.5" y1="136.58" x2="2.66" y2="134.42"/><line class="cls-9" x1="3.49" y1="133.59" x2="3.58" y2="133.53"/><line class="cls-9" x1="4.31" y1="132.77" x2="7.69" y2="129.39"/><line class="cls-9" x1="1.02" y1="142.61" x2="1.11" y2="142.55"/><line class="cls-9" x1="1.84" y1="141.79" x2="5.95" y2="137.68"/><line class="cls-9" x1="6.78" y1="136.88" x2="6.84" y2="136.79"/><line class="cls-9" x1="7.6" y1="136.06" x2="7.69" y2="135.94"/><line class="cls-9" x1="0.5" y1="149.71" x2="3.49" y2="146.72"/><line class="cls-9" x1="4.31" y1="145.9" x2="4.37" y2="145.84"/><line class="cls-9" x1="5.13" y1="145.08" x2="7.69" y2="142.52"/><line class="cls-9" x1="0.5" y1="156.29" x2="1.02" y2="155.74"/><line class="cls-9" x1="1.84" y1="154.92" x2="1.93" y2="154.86"/><line class="cls-9" x1="2.66" y1="154.1" x2="6.78" y2="150.01"/><line class="cls-9" x1="7.6" y1="149.19" x2="7.66" y2="149.1"/><line class="cls-9" x1="0.5" y1="162.84" x2="4.31" y2="159.03"/><line class="cls-9" x1="5.13" y1="158.21" x2="5.19" y2="158.15"/><line class="cls-9" x1="5.95" y1="157.39" x2="7.69" y2="155.65"/><line class="cls-9" x1="0.5" y1="169.42" x2="1.84" y2="168.05"/><line class="cls-9" x1="2.66" y1="167.23" x2="2.75" y2="167.17"/><line class="cls-9" x1="3.49" y1="166.4" x2="7.6" y2="162.32"/><line class="cls-9" x1="1.02" y1="175.45" x2="5.13" y2="171.34"/><line class="cls-9" x1="5.95" y1="170.52" x2="6.01" y2="170.46"/><line class="cls-9" x1="6.78" y1="169.69" x2="7.69" y2="168.78"/><line class="cls-9" x1="0.5" y1="182.55" x2="2.66" y2="180.36"/><line class="cls-9" x1="3.49" y1="179.53" x2="3.58" y2="179.47"/><line class="cls-9" x1="4.31" y1="178.74" x2="7.69" y2="175.36"/><line class="cls-9" x1="1.02" y1="188.58" x2="1.11" y2="188.52"/><line class="cls-9" x1="1.84" y1="187.76" x2="5.95" y2="183.65"/><line class="cls-9" x1="6.78" y1="182.82" x2="6.84" y2="182.76"/><line class="cls-9" x1="7.6" y1="182" x2="7.69" y2="181.91"/><line class="cls-9" x1="7.11" y1="189.04" x2="7.69" y2="188.49"/><polyline class="cls-8" points="7.69 189.04 7.69 119.98 0.5 119.98 0.5 189.04 7.69 189.04"/><line class="cls-9" x1="181.85" y1="4.49" x2="185.81" y2="0.5"/><line class="cls-9" x1="181.85" y1="11.04" x2="189.04" y2="3.85"/><line class="cls-9" x1="181.85" y1="17.62" x2="189.04" y2="10.43"/><line class="cls-9" x1="181.85" y1="24.17" x2="189.04" y2="16.98"/><line class="cls-9" x1="181.85" y1="30.75" x2="189.04" y2="23.56"/><line class="cls-9" x1="181.85" y1="37.3" x2="189.04" y2="30.11"/><line class="cls-9" x1="181.85" y1="43.88" x2="189.04" y2="36.69"/><line class="cls-9" x1="181.85" y1="50.46" x2="189.04" y2="43.24"/><line class="cls-9" x1="181.85" y1="57.01" x2="189.04" y2="49.82"/><line class="cls-9" x1="181.85" y1="63.59" x2="189.04" y2="56.37"/><line class="cls-9" x1="181.85" y1="70.14" x2="189.04" y2="62.95"/><line class="cls-9" x1="181.85" y1="76.72" x2="189.04" y2="69.5"/><line class="cls-9" x1="181.85" y1="83.27" x2="189.04" y2="76.08"/><line class="cls-9" x1="181.85" y1="89.85" x2="189.04" y2="82.63"/><line class="cls-9" x1="181.85" y1="96.4" x2="189.04" y2="89.21"/><line class="cls-9" x1="181.85" y1="102.98" x2="189.04" y2="95.76"/><line class="cls-9" x1="181.85" y1="109.53" x2="189.04" y2="102.34"/><line class="cls-9" x1="181.85" y1="116.11" x2="189.04" y2="108.92"/><line class="cls-9" x1="181.85" y1="122.66" x2="189.04" y2="115.47"/><line class="cls-9" x1="181.85" y1="129.24" x2="189.04" y2="122.05"/><line class="cls-9" x1="181.85" y1="135.79" x2="189.04" y2="128.6"/><line class="cls-9" x1="181.85" y1="142.37" x2="189.04" y2="135.18"/><line class="cls-9" x1="181.85" y1="148.92" x2="189.04" y2="141.73"/><line class="cls-9" x1="181.85" y1="155.5" x2="189.04" y2="148.31"/><line class="cls-9" x1="181.85" y1="162.05" x2="189.04" y2="154.86"/><line class="cls-9" x1="181.85" y1="168.63" x2="189.04" y2="161.44"/><line class="cls-9" x1="181.85" y1="175.18" x2="189.04" y2="167.99"/><line class="cls-9" x1="181.85" y1="181.76" x2="189.04" y2="174.57"/><line class="cls-9" x1="181.85" y1="188.34" x2="189.04" y2="181.12"/><line class="cls-9" x1="187.7" y1="189.04" x2="189.04" y2="187.7"/><line class="cls-9" x1="182.43" y1="0.62" x2="182.52" y2="0.5"/><line class="cls-9" x1="181.85" y1="7.78" x2="184.04" y2="5.56"/><line class="cls-9" x1="184.86" y1="4.73" x2="184.96" y2="4.67"/><line class="cls-9" x1="185.69" y1="3.91" x2="189.04" y2="0.56"/><line class="cls-9" x1="182.4" y1="13.75" x2="182.49" y2="13.69"/><line class="cls-9" x1="183.22" y1="12.93" x2="187.33" y2="8.85"/><line class="cls-9" x1="188.15" y1="8.02" x2="188.22" y2="7.96"/><line class="cls-9" x1="188.98" y1="7.2" x2="189.04" y2="7.14"/><line class="cls-9" x1="181.85" y1="20.91" x2="184.86" y2="17.86"/><line class="cls-9" x1="185.69" y1="17.04" x2="185.78" y2="16.98"/><line class="cls-9" x1="186.51" y1="16.22" x2="189.04" y2="13.69"/><line class="cls-9" x1="181.85" y1="27.46" x2="182.4" y2="26.88"/><line class="cls-9" x1="183.22" y1="26.09" x2="183.31" y2="26"/><line class="cls-9" x1="184.04" y1="25.27" x2="188.15" y2="21.15"/><line class="cls-9" x1="188.98" y1="20.33" x2="189.04" y2="20.27"/><line class="cls-9" x1="181.85" y1="34.04" x2="185.69" y2="30.17"/><line class="cls-9" x1="186.51" y1="29.35" x2="186.57" y2="29.29"/><line class="cls-9" x1="187.33" y1="28.53" x2="189.04" y2="26.82"/><line class="cls-9" x1="181.85" y1="40.59" x2="183.22" y2="39.22"/><line class="cls-9" x1="184.04" y1="38.4" x2="184.13" y2="38.31"/><line class="cls-9" x1="184.86" y1="37.57" x2="188.98" y2="33.46"/><line class="cls-9" x1="182.4" y1="46.59" x2="186.51" y2="42.48"/><line class="cls-9" x1="187.33" y1="41.66" x2="187.39" y2="41.6"/><line class="cls-9" x1="188.15" y1="40.83" x2="189.04" y2="39.98"/><line class="cls-9" x1="181.85" y1="53.72" x2="184.04" y2="51.53"/><line class="cls-9" x1="184.86" y1="50.7" x2="184.96" y2="50.64"/><line class="cls-9" x1="185.69" y1="49.88" x2="189.04" y2="46.53"/><line class="cls-9" x1="182.4" y1="59.72" x2="182.49" y2="59.66"/><line class="cls-9" x1="183.22" y1="58.9" x2="187.33" y2="54.79"/><line class="cls-9" x1="188.15" y1="53.99" x2="188.22" y2="53.9"/><line class="cls-9" x1="188.98" y1="53.17" x2="189.04" y2="53.11"/><line class="cls-9" x1="181.85" y1="66.85" x2="184.86" y2="63.83"/><line class="cls-9" x1="185.69" y1="63.01" x2="185.78" y2="62.95"/><line class="cls-9" x1="186.51" y1="62.19" x2="189.04" y2="59.66"/><line class="cls-9" x1="181.85" y1="73.43" x2="182.4" y2="72.85"/><line class="cls-9" x1="183.22" y1="72.03" x2="183.31" y2="71.97"/><line class="cls-9" x1="184.04" y1="71.21" x2="188.15" y2="67.12"/><line class="cls-9" x1="188.98" y1="66.3" x2="189.04" y2="66.24"/><line class="cls-9" x1="181.85" y1="79.98" x2="185.69" y2="76.14"/><line class="cls-9" x1="186.51" y1="75.32" x2="186.57" y2="75.26"/><line class="cls-9" x1="187.33" y1="74.5" x2="189.04" y2="72.79"/><line class="cls-9" x1="181.85" y1="86.56" x2="183.22" y2="85.16"/><line class="cls-9" x1="184.04" y1="84.34" x2="184.13" y2="84.27"/><line class="cls-9" x1="184.86" y1="83.51" x2="188.98" y2="79.43"/><line class="cls-9" x1="182.4" y1="92.56" x2="186.51" y2="88.45"/><line class="cls-9" x1="187.33" y1="87.63" x2="187.39" y2="87.56"/><line class="cls-9" x1="188.15" y1="86.8" x2="189.04" y2="85.92"/><line class="cls-9" x1="181.85" y1="99.69" x2="184.04" y2="97.47"/><line class="cls-9" x1="184.86" y1="96.64" x2="184.96" y2="96.58"/><line class="cls-9" x1="185.69" y1="95.82" x2="189.04" y2="92.5"/><line class="cls-9" x1="182.4" y1="105.69" x2="182.49" y2="105.63"/><line class="cls-9" x1="183.22" y1="104.87" x2="187.33" y2="100.76"/><line class="cls-9" x1="188.15" y1="99.93" x2="188.22" y2="99.87"/><line class="cls-9" x1="188.98" y1="99.11" x2="189.04" y2="99.05"/><line class="cls-9" x1="181.85" y1="112.82" x2="184.86" y2="109.77"/><line class="cls-9" x1="185.69" y1="108.98" x2="185.75" y2="108.89"/><line class="cls-9" x1="186.51" y1="108.16" x2="189.04" y2="105.63"/><line class="cls-9" x1="181.85" y1="119.4" x2="182.4" y2="118.82"/><line class="cls-9" x1="183.22" y1="118" x2="183.31" y2="117.94"/><line class="cls-9" x1="184.04" y1="117.17" x2="188.15" y2="113.06"/><line class="cls-9" x1="188.98" y1="112.24" x2="189.04" y2="112.18"/><line class="cls-9" x1="181.85" y1="125.95" x2="185.69" y2="122.11"/><line class="cls-9" x1="186.51" y1="121.29" x2="186.57" y2="121.2"/><line class="cls-9" x1="187.33" y1="120.46" x2="189.04" y2="118.76"/><line class="cls-9" x1="181.85" y1="132.53" x2="183.22" y2="131.13"/><line class="cls-9" x1="184.04" y1="130.3" x2="184.13" y2="130.24"/><line class="cls-9" x1="184.86" y1="129.48" x2="188.98" y2="125.37"/><line class="cls-9" x1="182.4" y1="138.5" x2="186.51" y2="134.42"/><line class="cls-9" x1="187.33" y1="133.59" x2="187.39" y2="133.53"/><line class="cls-9" x1="188.15" y1="132.77" x2="189.04" y2="131.89"/><line class="cls-9" x1="181.85" y1="145.66" x2="184.04" y2="143.43"/><line class="cls-9" x1="184.86" y1="142.61" x2="184.96" y2="142.55"/><line class="cls-9" x1="185.69" y1="141.79" x2="189.04" y2="138.44"/><line class="cls-9" x1="182.4" y1="151.63" x2="182.49" y2="151.57"/><line class="cls-9" x1="183.22" y1="150.84" x2="187.33" y2="146.72"/><line class="cls-9" x1="188.15" y1="145.9" x2="188.22" y2="145.84"/><line class="cls-9" x1="188.98" y1="145.08" x2="189.04" y2="145.02"/><line class="cls-9" x1="181.85" y1="158.79" x2="184.86" y2="155.74"/><line class="cls-9" x1="185.69" y1="154.92" x2="185.75" y2="154.86"/><line class="cls-9" x1="186.51" y1="154.1" x2="189.04" y2="151.57"/><line class="cls-9" x1="181.85" y1="165.34" x2="182.4" y2="164.79"/><line class="cls-9" x1="183.22" y1="163.97" x2="183.31" y2="163.88"/><line class="cls-9" x1="184.04" y1="163.14" x2="188.15" y2="159.03"/><line class="cls-9" x1="188.98" y1="158.21" x2="189.04" y2="158.15"/><line class="cls-9" x1="181.85" y1="171.92" x2="185.69" y2="168.05"/><line class="cls-9" x1="186.51" y1="167.23" x2="186.57" y2="167.17"/><line class="cls-9" x1="187.33" y1="166.4" x2="189.04" y2="164.73"/><line class="cls-9" x1="181.85" y1="178.47" x2="183.22" y2="177.1"/><line class="cls-9" x1="184.04" y1="176.27" x2="184.13" y2="176.18"/><line class="cls-9" x1="184.86" y1="175.45" x2="188.98" y2="171.34"/><line class="cls-9" x1="182.4" y1="184.47" x2="186.51" y2="180.36"/><line class="cls-9" x1="187.33" y1="179.53" x2="187.39" y2="179.47"/><line class="cls-9" x1="188.15" y1="178.74" x2="189.04" y2="177.86"/><line class="cls-9" x1="184.86" y1="188.58" x2="184.96" y2="188.52"/><line class="cls-9" x1="185.69" y1="187.76" x2="189.04" y2="184.41"/><polyline class="cls-8" points="189.04 189.04 189.04 14.91 189.04 7.72 189.04 0.5 181.85 0.5 181.85 189.04 189.04 189.04"/><line class="cls-9" x1="0.5" y1="7.72" x2="0.5" y2="0.5"/><line class="cls-9" x1="0.5" y1="7.72" x2="1.96" y2="0.5"/><line class="cls-9" x1="1.35" y1="7.72" x2="8.54" y2="0.5"/><line class="cls-9" x1="7.9" y1="7.72" x2="15.12" y2="0.5"/><line class="cls-9" x1="14.48" y1="7.72" x2="21.67" y2="0.5"/><line class="cls-9" x1="21.03" y1="7.72" x2="28.25" y2="0.5"/><line class="cls-9" x1="27.61" y1="7.72" x2="34.8" y2="0.5"/><line class="cls-9" x1="34.16" y1="7.72" x2="38.64" y2="3.24"/><line class="cls-9" x1="0.5" y1="6.38" x2="0.5" y2="2.27"/><line class="cls-9" x1="0.5" y1="1.44" x2="0.5" y2="1.38"/><line class="cls-9" x1="0.5" y1="0.62" x2="0.5" y2="0.5"/><line class="cls-9" x1="0.5" y1="7.72" x2="0.5" y2="5.56"/><line class="cls-9" x1="1.05" y1="4.73" x2="1.11" y2="4.67"/><line class="cls-9" x1="1.84" y1="3.91" x2="5.25" y2="0.5"/><line class="cls-9" x1="5.13" y1="7.2" x2="9.24" y2="3.09"/><line class="cls-9" x1="10.07" y1="2.27" x2="10.13" y2="2.21"/><line class="cls-9" x1="10.89" y1="1.44" x2="11.83" y2="0.5"/><line class="cls-9" x1="11.19" y1="7.72" x2="12.53" y2="6.38"/><line class="cls-9" x1="13.36" y1="5.56" x2="13.42" y2="5.5"/><line class="cls-9" x1="14.18" y1="4.73" x2="18.26" y2="0.62"/><line class="cls-9" x1="17.77" y1="7.72" x2="21.55" y2="3.91"/><line class="cls-9" x1="22.37" y1="3.09" x2="22.43" y2="3.03"/><line class="cls-9" x1="23.2" y1="2.27" x2="24.96" y2="0.5"/><line class="cls-9" x1="24.32" y1="7.72" x2="24.84" y2="7.2"/><line class="cls-9" x1="25.66" y1="6.38" x2="25.72" y2="6.32"/><line class="cls-9" x1="26.49" y1="5.56" x2="30.57" y2="1.44"/><line class="cls-9" x1="31.39" y1="0.62" x2="31.48" y2="0.56"/><line class="cls-9" x1="30.9" y1="7.72" x2="33.86" y2="4.73"/><line class="cls-9" x1="34.68" y1="3.91" x2="34.74" y2="3.85"/><line class="cls-9" x1="35.5" y1="3.09" x2="38.09" y2="0.5"/><line class="cls-9" x1="37.97" y1="7.2" x2="38.03" y2="7.14"/><polyline class="cls-8" points="0.5 7.72 38.64 7.72 38.64 0.5 13.48 0.5 7.72 0.5 0.5 0.5"/><line class="cls-8" x1="72.03" y1="7.72" x2="72.03" y2="4.83"/><line class="cls-8" x1="72.03" y1="2.82" x2="72.03" y2="0.5"/><line class="cls-8" x1="181.85" y1="7.72" x2="181.85" y2="0.5"/><line class="cls-8" x1="102.25" y1="0.5" x2="102.25" y2="2.82"/><line class="cls-8" x1="102.25" y1="4.83" x2="102.25" y2="7.72"/><line class="cls-8" x1="72.03" y1="7.72" x2="38.64" y2="7.72"/><line class="cls-8" x1="181.85" y1="7.72" x2="102.25" y2="7.72"/><line class="cls-8" x1="72.03" y1="0.5" x2="38.64" y2="0.5"/><line class="cls-8" x1="181.85" y1="0.5" x2="102.25" y2="0.5"/><line class="cls-8" x1="189.04" y1="0.5" x2="189.04" y2="7.72"/><line class="cls-8" x1="0.5" y1="119.98" x2="7.69" y2="119.98"/><line class="cls-8" x1="0.5" y1="119.98" x2="0.5" y2="0.5"/><line class="cls-8" x1="7.69" y1="119.98" x2="7.69" y2="7.72"/><polyline class="cls-8" points="75.35 187.51 75.35 180.69 23.53 180.69 23.53 187.51"/><line class="cls-10" x1="41.81" y1="189.65" x2="72.64" y2="189.65"/><line class="cls-10" x1="72.64" y1="189.19" x2="41.81" y2="189.19"/><polyline class="cls-10" points="41.78 189.65 41.78 189.19 41.35 189.19 41.35 189.65 41.78 189.65"/><polyline class="cls-10" points="72.64 189.19 72.64 189.65 73.06 189.65 73.06 189.19 72.64 189.19"/><line class="cls-10" x1="27.09" y1="189.19" x2="38.94" y2="189.19"/><line class="cls-10" x1="38.94" y1="188.73" x2="27.09" y2="188.73"/><polyline class="cls-10" points="27.09 189.19 27.09 188.73 26.67 188.73 26.67 189.19 27.09 189.19"/><polyline class="cls-10" points="38.95 188.73 38.95 189.19 39.4 189.19 39.4 188.73 38.95 188.73"/><polyline class="cls-10" points="74.62 188.09 72.61 188.09 72.61 189.07 73.19 189.07 73.19 189.77 72.61 189.77 72.61 190.35 74.62 190.35 74.62 188.09"/><line class="cls-10" x1="41.81" y1="188.09" x2="72.61" y2="188.09"/><line class="cls-10" x1="72.61" y1="189.07" x2="41.81" y2="189.07"/><line class="cls-10" x1="41.81" y1="189.77" x2="72.61" y2="189.77"/><line class="cls-10" x1="72.61" y1="190.35" x2="41.81" y2="190.35"/><polyline class="cls-10" points="39.8 189.95 39.8 190.35 41.81 190.35 41.81 188.09 40.38 188.09 40.38 189.95 39.8 189.95"/><polyline class="cls-10" points="39.8 190.35 26.27 190.35 26.27 189.95 25.69 189.95 25.69 188.09 24.26 188.09 24.26 190.35 26.27 190.35"/><line class="cls-10" x1="39.8" y1="189.95" x2="26.27" y2="189.95"/><line class="cls-10" x1="40.38" y1="188.09" x2="40.25" y2="188.09"/><line class="cls-10" x1="25.82" y1="188.09" x2="25.69" y2="188.09"/><line class="cls-10" x1="26.67" y1="189.31" x2="26.67" y2="189.19"/><polyline class="cls-10" points="26.67 188.73 26.67 188.61 27.25 188.61 27.25 187.64 25.24 187.64 25.24 188.03 25.82 188.03 25.82 189.89 27.25 189.89 27.25 189.31 26.67 189.31"/><line class="cls-10" x1="39.4" y1="188.61" x2="39.4" y2="188.73"/><polyline class="cls-10" points="39.4 189.19 39.4 189.31 38.82 189.31 38.82 189.89 40.26 189.89 40.26 188.03 40.83 188.03 40.83 187.64 38.82 187.64 38.82 188.61 39.4 188.61"/><line class="cls-10" x1="38.82" y1="189.31" x2="27.25" y2="189.31"/><line class="cls-10" x1="27.25" y1="188.61" x2="38.82" y2="188.61"/><line class="cls-10" x1="38.82" y1="187.64" x2="27.25" y2="187.64"/><line class="cls-10" x1="27.25" y1="189.89" x2="38.82" y2="189.89"/><polyline class="cls-9" points="97.04 18.35 97.62 17.35 74.19 3.82 73.61 4.83 97.04 18.35"/><polyline class="cls-8" points="72.61 2.81 72.61 4.83 73.61 4.83 73.61 3.67 73.89 3.67 73.89 2.81 72.61 2.81"/><polyline class="cls-8" points="101.67 2.81 100.39 2.81 100.39 3.67 100.66 3.67 100.66 4.83 101.67 4.83 101.67 2.81"/><path class="cls-11" d="M27.42,78.2l.14.06"/><path class="cls-11" d="M26.53,77.23a.59.59,0,0,0,.06.14"/><path class="cls-11" d="M26.59,70.74a.75.75,0,0,0-.06.13"/><path class="cls-11" d="M27.56,69.85l-.14.05"/><path class="cls-11" d="M45.57,69.9l-.14-.05"/><path class="cls-11" d="M46.46,70.87l-.06-.13"/><path class="cls-11" d="M46.4,77.37l.06-.14"/><path class="cls-11" d="M45.43,78.26l.14-.06"/><line class="cls-11" x1="24.96" y1="69.44" x2="26.12" y2="68.31"/><line class="cls-11" x1="24.96" y1="76.02" x2="26.39" y2="74.56"/><line class="cls-11" x1="29.56" y1="71.39" x2="32.67" y2="68.31"/><line class="cls-11" x1="27.73" y1="79.83" x2="31.02" y2="76.54"/><line class="cls-11" x1="37.79" y1="69.74" x2="39.25" y2="68.31"/><line class="cls-11" x1="34.28" y1="79.83" x2="35.75" y2="78.36"/><line class="cls-11" x1="44.37" y1="69.74" x2="45.8" y2="68.31"/><line class="cls-11" x1="41.96" y1="72.15" x2="43.39" y2="70.72"/><line class="cls-11" x1="40.86" y1="79.83" x2="43.39" y2="77.27"/><line class="cls-11" x1="46.56" y1="74.13" x2="47.99" y2="72.67"/><line class="cls-11" x1="47.41" y1="79.83" x2="47.99" y2="79.25"/><line class="cls-11" x1="24.96" y1="72.73" x2="26.45" y2="71.24"/><line class="cls-11" x1="27.92" y1="69.77" x2="28.92" y2="68.74"/><line class="cls-11" x1="24.96" y1="79.28" x2="26.49" y2="77.79"/><line class="cls-11" x1="34.53" y1="69.74" x2="35.96" y2="68.31"/><line class="cls-11" x1="29.56" y1="74.68" x2="31.02" y2="73.25"/><line class="cls-11" x1="31.39" y1="79.43" x2="32.46" y2="78.36"/><line class="cls-11" x1="41.08" y1="69.74" x2="41.26" y2="69.56"/><line class="cls-11" x1="42.08" y1="68.74" x2="42.14" y2="68.68"/><line class="cls-11" x1="37.57" y1="79.83" x2="38.79" y2="78.61"/><line class="cls-11" x1="46.44" y1="70.93" x2="47.99" y2="69.41"/><line class="cls-11" x1="41.96" y1="75.44" x2="43.39" y2="74.01"/><line class="cls-11" x1="44.15" y1="79.83" x2="47.81" y2="76.14"/><polyline class="cls-11" points="47.99 68.31 36.81 68.31 24.96 68.31 24.96 75.01 24.96 79.83 47.99 79.83 47.99 68.31"/><line class="cls-11" x1="41.96" y1="70.44" x2="41.96" y2="77.66"/><path class="cls-11" d="M41.24,78.36a.71.71,0,0,0,.72-.71"/><line class="cls-11" x1="41.23" y1="78.36" x2="31.73" y2="78.36"/><path class="cls-11" d="M31,77.65a.71.71,0,0,0,.72.71"/><line class="cls-11" x1="31.02" y1="77.66" x2="31.02" y2="70.44"/><path class="cls-11" d="M31.74,69.71a.72.72,0,0,0-.72.72"/><line class="cls-11" x1="31.73" y1="69.74" x2="41.23" y2="69.74"/><path class="cls-11" d="M42,70.43a.72.72,0,0,0-.72-.72"/><line class="cls-11" x1="29.56" y1="70.44" x2="29.56" y2="77.66"/><path class="cls-11" d="M28.88,78.36a.71.71,0,0,0,.71-.71"/><line class="cls-11" x1="28.86" y1="78.36" x2="28.13" y2="78.36"/><path class="cls-11" d="M26.42,76.64a1.72,1.72,0,0,0,1.73,1.72"/><line class="cls-11" x1="26.39" y1="76.66" x2="26.39" y2="71.48"/><path class="cls-11" d="M28.15,69.74a1.72,1.72,0,0,0-1.73,1.72"/><line class="cls-11" x1="28.13" y1="69.74" x2="28.86" y2="69.74"/><path class="cls-11" d="M29.59,70.43a.71.71,0,0,0-.71-.72"/><line class="cls-11" x1="46.56" y1="71.48" x2="46.56" y2="76.66"/><path class="cls-11" d="M44.84,78.36a1.72,1.72,0,0,0,1.72-1.72"/><line class="cls-11" x1="44.82" y1="78.36" x2="44.09" y2="78.36"/><path class="cls-11" d="M43.39,77.65a.71.71,0,0,0,.72.71"/><line class="cls-11" x1="43.39" y1="77.66" x2="43.39" y2="70.44"/><path class="cls-11" d="M44.11,69.71a.72.72,0,0,0-.72.72"/><line class="cls-11" x1="44.09" y1="69.74" x2="44.82" y2="69.74"/><path class="cls-11" d="M46.56,71.46a1.72,1.72,0,0,0-1.72-1.72"/><line class="cls-8" x1="181.85" y1="189.04" x2="181.85" y2="181.85"/><line class="cls-8" x1="178.86" y1="181.85" x2="181.85" y2="181.85"/></svg>