<svg id="_95" data-name="95" xmlns="http://www.w3.org/2000/svg" viewBox="0 0 402.37 395.55"><defs><style>.cls-1{isolation:isolate;font-size:8px;fill:#969696;font-family:PTSans-Regular, PT Sans;letter-spacing:-0.01em;}.cls-2{letter-spacing:0em;}.cls-12,.cls-13,.cls-14,.cls-15,.cls-3,.cls-9{fill:none;}.cls-3{stroke:#969696;}.cls-12,.cls-13,.cls-14,.cls-15,.cls-3{stroke-linecap:round;stroke-linejoin:round;}.cls-15,.cls-3{stroke-width:0.5px;}.cls-4{font-size:22px;}.cls-10,.cls-4{fill:#231f20;font-family:BigCityGrotesquePro-Regular, BigCity Grotesque Pro;}.cls-5{letter-spacing:-0.02em;}.cls-6{letter-spacing:-0.04em;}.cls-7{letter-spacing:-0.02em;}.cls-8{letter-spacing:-0.02em;}.cls-12,.cls-13,.cls-14,.cls-15,.cls-9{stroke:#000;}.cls-9{stroke-miterlimit:10;stroke-width:0.32px;}.cls-10{font-size:24px;}.cls-11{letter-spacing:-0.02em;}.cls-12{stroke-width:0.35px;}.cls-13{stroke-width:0.34px;}</style></defs><title>12floor_95flat</title><text class="cls-1" transform="translate(196.71 6.8)">у<tspan class="cls-2" x="3.62" y="0">лица</tspan></text><line class="cls-3" x1="188.21" y1="0.82" x2="188.21" y2="7.94"/><polyline class="cls-3" points="185.37 3.65 188.21 0.82 191.04 3.65"/><text class="cls-4" transform="translate(313.55 303.46)"><tspan class="cls-5">9</tspan><tspan class="cls-6" x="11.79" y="0">.</tspan><tspan x="15.93" y="0">10</tspan></text><text class="cls-4" transform="translate(317.68 90.94)">13<tspan class="cls-7" x="18.74" y="0">.</tspan><tspan x="23.34" y="0">70</tspan></text><text class="cls-4" transform="translate(191.9 90.94)">14<tspan class="cls-8" x="19.8" y="0">.</tspan><tspan x="24.46" y="0">60</tspan></text><text class="cls-4" transform="translate(54.62 90.94)">18.80</text><text class="cls-4" transform="translate(203.86 354.82) rotate(-90)">3<tspan class="cls-6" x="11" y="0">.</tspan><tspan x="15.14" y="0">10</tspan></text><text class="cls-4" transform="translate(257.54 342.02) rotate(-90)">1.20</text><text class="cls-4" transform="translate(285.64 374.11)">1.40</text><rect class="cls-9" x="44.69" y="123.44" width="80" height="31.31"/><rect class="cls-9" x="44.69" y="154.76" width="80" height="31.31"/><rect class="cls-9" x="44.69" y="186.07" width="80" height="31.31"/><text class="cls-10" transform="translate(58.97 146.82)">№95<tspan x="13.32" y="30.86">2</tspan><tspan class="cls-11" x="24.86" y="30.86">К</tspan><tspan x="-1.62" y="61.72">61.90</tspan></text><line class="cls-12" x1="244.17" y1="368.51" x2="244.17" y2="353.79"/><polyline class="cls-12" points="243.51 369.4 243.51 374.97 259.43 374.97"/><line class="cls-12" x1="251.47" y1="365.95" x2="257.35" y2="365.95"/><polyline class="cls-12" points="244.17 353.79 245.59 365.95 251.47 365.95"/><line class="cls-12" x1="258.77" y1="353.79" x2="257.35" y2="365.95"/><line class="cls-12" x1="244.53" y1="353.79" x2="245.94" y2="365.95"/><line class="cls-12" x1="258.41" y1="353.79" x2="257" y2="365.95"/><line class="cls-12" x1="258.77" y1="368.51" x2="258.77" y2="353.79"/><line class="cls-12" x1="259.43" y1="374.97" x2="259.43" y2="369.4"/><polyline class="cls-12" points="244.17 353.79 244.35 352.15 244.97 350.6 245.99 349.27 247.31 348.17 248.86 347.42 250.59 347.02 252.36 347.02 254.08 347.42 255.63 348.17 256.96 349.27 257.97 350.6 258.59 352.15 258.77 353.79"/><polyline class="cls-12" points="244.53 353.79 244.75 352.24 245.32 350.78 246.3 349.5 247.53 348.48 249 347.77 250.63 347.37 252.31 347.37 253.95 347.77 255.41 348.48 256.65 349.5 257.62 350.78 258.19 352.24 258.42 353.79"/><path class="cls-12" d="M258.53,396.83a67.78,67.78,0,0,0-14.24,0" transform="translate(0.04 -28.34)"/><path class="cls-12" d="M244.28,396.77a.93.93,0,0,0-.81.94" transform="translate(0.04 -28.34)"/><path class="cls-12" d="M259.35,397.71a.93.93,0,0,0-.82-.94" transform="translate(0.04 -28.34)"/><path class="cls-12" d="M251.41,399a.78.78,0,0,0,0,1.55.78.78,0,1,0,0-1.55" transform="translate(0.04 -28.34)"/><line class="cls-12" x1="401.94" y1="291.75" x2="401.94" y2="298.87"/><polyline class="cls-13" points="149.73 395.05 149.73 394.63 179.65 394.63"/><line class="cls-13" x1="155.14" y1="381.58" x2="175.48" y2="381.58"/><line class="cls-13" x1="177.89" y1="379.22" x2="177.89" y2="327.87"/><line class="cls-13" x1="152.78" y1="379.22" x2="152.78" y2="327.87"/><line class="cls-13" x1="180.29" y1="313.38" x2="180.29" y2="383.94"/><polyline class="cls-13" points="180.29 313.38 150.38 313.38 150.38 383.94 180.29 383.94"/><line class="cls-13" x1="156.92" y1="336.11" x2="156.92" y2="376.28"/><line class="cls-13" x1="158.14" y1="377.48" x2="172.53" y2="377.48"/><line class="cls-13" x1="173.71" y1="336.11" x2="173.71" y2="376.28"/><line class="cls-13" x1="164.6" y1="369.2" x2="163.12" y2="369.2"/><line class="cls-13" x1="165.31" y1="369.92" x2="165.31" y2="371.42"/><line class="cls-13" x1="166.07" y1="369.2" x2="167.55" y2="369.2"/><line class="cls-13" x1="165.31" y1="368.48" x2="165.31" y2="367.03"/><path class="cls-13" d="M152.74,356.19a12.56,12.56,0,0,1,25.11,0" transform="translate(0.04 -28.34)"/><path class="cls-13" d="M177.85,407.53a2.37,2.37,0,0,1-2.39,2.34" transform="translate(0.04 -28.34)"/><path class="cls-13" d="M155.13,409.87a2.37,2.37,0,0,1-2.39-2.34" transform="translate(0.04 -28.34)"/><path class="cls-13" d="M166.54,397.51a1.25,1.25,0,1,1-1.24-1.22,1.24,1.24,0,0,1,1.24,1.22" transform="translate(0.04 -28.34)"/><path class="cls-13" d="M156.88,364.43a8.42,8.42,0,0,1,16.83,0" transform="translate(0.04 -28.34)"/><path class="cls-13" d="M158.12,405.77a1.19,1.19,0,0,1-1.2-1.18" transform="translate(0.04 -28.34)"/><path class="cls-13" d="M173.71,404.59a1.19,1.19,0,0,1-1.2,1.18" transform="translate(0.04 -28.34)"/><path class="cls-13" d="M167,397.51a1.67,1.67,0,1,1-1.66-1.66,1.66,1.66,0,0,1,1.66,1.66" transform="translate(0.04 -28.34)"/><polyline class="cls-12" points="208.84 373.91 208.84 383.46 186.29 383.46 186.29 373.91"/><line class="cls-12" x1="193.98" y1="383.46" x2="201.1" y2="383.46"/><line class="cls-12" x1="195.66" y1="375.77" x2="196.86" y2="375.77"/><line class="cls-12" x1="197.57" y1="377.67" x2="197.57" y2="376.47"/><line class="cls-12" x1="198.27" y1="375.77" x2="199.47" y2="375.77"/><line class="cls-12" x1="197.57" y1="375.1" x2="197.57" y2="373.86"/><path class="cls-12" d="M207.44,401.63a10.06,10.06,0,0,1-3.9,4.76" transform="translate(0.04 -28.34)"/><path class="cls-12" d="M203.54,406.38a10.11,10.11,0,0,1-6,1.41" transform="translate(0.04 -28.34)"/><path class="cls-12" d="M191.56,406.39a10.06,10.06,0,0,1-3.9-4.76" transform="translate(0.04 -28.34)"/><path class="cls-12" d="M197.56,407.79a10.11,10.11,0,0,1-6-1.41" transform="translate(0.04 -28.34)"/><path class="cls-12" d="M186.26,402.21a5.72,5.72,0,0,1,2.13-4.72" transform="translate(0.04 -28.34)"/><path class="cls-12" d="M203.87,406a41.15,41.15,0,0,1-12.63,0" transform="translate(0.04 -28.34)"/><path class="cls-12" d="M190.07,410a14.19,14.19,0,0,1-3.2-9.22" transform="translate(0.04 -28.34)"/><path class="cls-12" d="M197.54,411.31a28,28,0,0,1-6.45-.69" transform="translate(0.04 -28.34)"/><path class="cls-12" d="M191.08,410.6a1.86,1.86,0,0,1-1-.64" transform="translate(0.04 -28.34)"/><path class="cls-12" d="M197.54,410.43a48.34,48.34,0,0,1-6.36-.46" transform="translate(0.04 -28.34)"/><path class="cls-12" d="M190,409.34a12.79,12.79,0,0,1-3.18-8.61" transform="translate(0.04 -28.34)"/><path class="cls-12" d="M191.19,410a1.83,1.83,0,0,1-1.15-.62" transform="translate(0.04 -28.34)"/><path class="cls-12" d="M208.27,400.75a12.77,12.77,0,0,1-3.19,8.6" transform="translate(0.04 -28.34)"/><path class="cls-12" d="M208.23,400.76A14.15,14.15,0,0,1,205,410" transform="translate(0.04 -28.34)"/><path class="cls-12" d="M203.9,410a48.33,48.33,0,0,1-6.36.45" transform="translate(0.04 -28.34)"/><path class="cls-12" d="M204,410.62a28.09,28.09,0,0,1-6.46.69" transform="translate(0.04 -28.34)"/><path class="cls-12" d="M205.06,409.35a1.85,1.85,0,0,1-1.15.62" transform="translate(0.04 -28.34)"/><path class="cls-12" d="M205,410a1.84,1.84,0,0,1-1,.64" transform="translate(0.04 -28.34)"/><path class="cls-12" d="M206.66,397.49a5.73,5.73,0,0,1,2.14,4.72" transform="translate(0.04 -28.34)"/><path class="cls-12" d="M205.2,396.51a8.74,8.74,0,0,1,1.5,1" transform="translate(0.04 -28.34)"/><path class="cls-12" d="M188.4,397.48a9.15,9.15,0,0,1,1.5-1" transform="translate(0.04 -28.34)"/><path class="cls-12" d="M189.92,396.51a18.34,18.34,0,0,1,6.84-1.86h1.58a18.34,18.34,0,0,1,6.84,1.86" transform="translate(0.04 -28.34)"/><path class="cls-12" d="M194.44,396.25a13.34,13.34,0,0,1,6.22,0" transform="translate(0.04 -28.34)"/><path class="cls-12" d="M206.26,398.82a3.39,3.39,0,0,1,1.17,2.8" transform="translate(0.04 -28.34)"/><path class="cls-12" d="M200.65,396.29a12.3,12.3,0,0,1,5.62,2.57" transform="translate(0.04 -28.34)"/><path class="cls-12" d="M187.63,401.62a3.42,3.42,0,0,1,1.16-2.8" transform="translate(0.04 -28.34)"/><path class="cls-12" d="M188.83,398.86a12.3,12.3,0,0,1,5.62-2.57" transform="translate(0.04 -28.34)"/><path class="cls-12" d="M197.55,402.6a1.48,1.48,0,1,1-1.48,1.48,1.48,1.48,0,0,1,1.48-1.48" transform="translate(0.04 -28.34)"/><path class="cls-12" d="M197.55,403a1,1,0,1,1-1,1,1,1,0,0,1,1-1" transform="translate(0.04 -28.34)"/><polyline class="cls-14" points="268.23 385.03 244.15 385.03 244.15 375 268.23 375"/><line class="cls-14" x1="244.15" y1="395.05" x2="268.23" y2="395.05"/><polyline class="cls-15" points="234.08 344.89 234.08 380.99 214.03 380.99"/><line class="cls-15" x1="367.76" y1="241.12" x2="367.76" y2="250.16"/><line class="cls-14" x1="391.84" y1="260.19" x2="365.76" y2="260.19"/><polyline class="cls-15" points="331.65 259.38 331.65 241.12 367.76 241.12"/><line class="cls-14" x1="367.76" y1="250.16" x2="391.84" y2="250.16"/><polyline class="cls-15" points="214.03 380.99 214.03 344.89 225.67 344.89"/><line class="cls-15" x1="232.09" y1="344.89" x2="234.08" y2="344.89"/><line class="cls-14" x1="138.98" y1="54.56" x2="139.87" y2="53.71"/><line class="cls-14" x1="138.98" y1="63.73" x2="149" y2="53.71"/><line class="cls-14" x1="138.98" y1="72.87" x2="149" y2="62.84"/><line class="cls-14" x1="138.98" y1="82.04" x2="149" y2="72.02"/><line class="cls-14" x1="138.98" y1="91.17" x2="149" y2="81.15"/><line class="cls-14" x1="138.98" y1="100.35" x2="149" y2="90.32"/><line class="cls-14" x1="138.98" y1="109.48" x2="149" y2="99.46"/><line class="cls-14" x1="138.98" y1="118.66" x2="149" y2="108.63"/><line class="cls-14" x1="138.98" y1="127.79" x2="149" y2="117.76"/><line class="cls-14" x1="138.98" y1="136.96" x2="149" y2="126.94"/><line class="cls-14" x1="138.98" y1="146.1" x2="149" y2="136.07"/><line class="cls-14" x1="138.98" y1="155.27" x2="149" y2="145.25"/><line class="cls-14" x1="138.98" y1="164.45" x2="149" y2="154.38"/><line class="cls-14" x1="138.98" y1="173.58" x2="149" y2="163.55"/><line class="cls-14" x1="138.98" y1="182.75" x2="149" y2="172.69"/><line class="cls-14" x1="144.71" y1="186.15" x2="149" y2="181.86"/><line class="cls-14" x1="138.98" y1="59.15" x2="142.93" y2="55.19"/><line class="cls-14" x1="144.07" y1="54.05" x2="144.16" y2="53.96"/><line class="cls-14" x1="138.98" y1="68.28" x2="139.49" y2="67.81"/><line class="cls-14" x1="140.63" y1="66.66" x2="140.72" y2="66.58"/><line class="cls-14" x1="141.78" y1="65.52" x2="147.47" y2="59.78"/><line class="cls-14" x1="148.62" y1="58.64" x2="148.75" y2="58.55"/><line class="cls-14" x1="138.98" y1="77.45" x2="144.07" y2="72.4"/><line class="cls-14" x1="145.18" y1="71.25" x2="145.3" y2="71.12"/><line class="cls-14" x1="146.32" y1="70.1" x2="149" y2="67.43"/><line class="cls-14" x1="138.98" y1="86.63" x2="140.63" y2="84.97"/><line class="cls-14" x1="141.78" y1="83.82" x2="141.86" y2="83.74"/><line class="cls-14" x1="142.93" y1="82.68" x2="148.62" y2="76.94"/><line class="cls-14" x1="139.49" y1="95.25" x2="145.18" y2="89.56"/><line class="cls-14" x1="146.32" y1="88.41" x2="146.45" y2="88.28"/><line class="cls-14" x1="147.47" y1="87.27" x2="149" y2="85.74"/><line class="cls-14" x1="138.98" y1="104.94" x2="141.78" y2="102.13"/><line class="cls-14" x1="142.93" y1="100.99" x2="143.01" y2="100.9"/><line class="cls-14" x1="144.07" y1="99.84" x2="149" y2="94.87"/><line class="cls-14" x1="139.49" y1="113.56" x2="139.57" y2="113.47"/><line class="cls-14" x1="140.63" y1="112.41" x2="146.32" y2="106.72"/><line class="cls-14" x1="147.47" y1="105.57" x2="147.6" y2="105.49"/><line class="cls-14" x1="148.62" y1="104.43" x2="149" y2="104.04"/><line class="cls-14" x1="138.98" y1="123.24" x2="142.93" y2="119.29"/><line class="cls-14" x1="144.07" y1="118.15" x2="144.16" y2="118.06"/><line class="cls-14" x1="145.18" y1="117" x2="149" y2="113.18"/><line class="cls-14" x1="138.98" y1="132.38" x2="139.49" y2="131.87"/><line class="cls-14" x1="140.63" y1="130.76" x2="140.72" y2="130.63"/><line class="cls-14" x1="141.78" y1="129.61" x2="147.47" y2="123.88"/><line class="cls-14" x1="148.62" y1="122.73" x2="148.75" y2="122.65"/><line class="cls-14" x1="138.98" y1="141.55" x2="144.07" y2="136.45"/><line class="cls-14" x1="145.18" y1="135.31" x2="145.3" y2="135.22"/><line class="cls-14" x1="146.32" y1="134.16" x2="149" y2="131.48"/><line class="cls-14" x1="138.98" y1="150.68" x2="140.63" y2="149.07"/><line class="cls-14" x1="141.78" y1="147.92" x2="141.86" y2="147.8"/><line class="cls-14" x1="142.93" y1="146.78" x2="148.62" y2="141.04"/><line class="cls-14" x1="139.49" y1="159.35" x2="145.18" y2="153.61"/><line class="cls-14" x1="146.32" y1="152.47" x2="146.45" y2="152.38"/><line class="cls-14" x1="147.47" y1="151.32" x2="149" y2="149.83"/><line class="cls-14" x1="138.98" y1="168.99" x2="141.78" y2="166.23"/><line class="cls-14" x1="142.93" y1="165.08" x2="143.01" y2="164.96"/><line class="cls-14" x1="144.07" y1="163.94" x2="149" y2="158.97"/><line class="cls-14" x1="139.49" y1="177.66" x2="139.57" y2="177.57"/><line class="cls-14" x1="140.63" y1="176.51" x2="146.32" y2="170.78"/><line class="cls-14" x1="147.47" y1="169.63" x2="147.6" y2="169.54"/><line class="cls-14" x1="148.62" y1="168.52" x2="149" y2="168.14"/><line class="cls-14" x1="140.16" y1="186.15" x2="142.93" y2="183.39"/><line class="cls-14" x1="144.07" y1="182.24" x2="144.16" y2="182.16"/><line class="cls-14" x1="145.22" y1="181.1" x2="149" y2="177.27"/><polyline class="cls-14" points="149 186.15 149 53.71 138.97 53.71 138.97 186.15 149 186.15"/><line class="cls-14" x1="391.84" y1="58.04" x2="396.17" y2="53.71"/><line class="cls-14" x1="391.84" y1="67.22" x2="401.87" y2="57.15"/><line class="cls-14" x1="391.84" y1="76.35" x2="401.87" y2="66.32"/><line class="cls-14" x1="391.84" y1="85.52" x2="401.87" y2="75.5"/><line class="cls-14" x1="391.84" y1="94.66" x2="401.87" y2="84.63"/><line class="cls-14" x1="391.84" y1="103.83" x2="401.87" y2="93.81"/><line class="cls-14" x1="391.84" y1="112.96" x2="401.87" y2="102.94"/><line class="cls-14" x1="391.84" y1="122.14" x2="401.87" y2="112.11"/><line class="cls-14" x1="391.84" y1="131.27" x2="401.87" y2="121.25"/><line class="cls-14" x1="391.84" y1="140.45" x2="401.87" y2="130.42"/><line class="cls-14" x1="391.84" y1="149.58" x2="401.87" y2="139.55"/><line class="cls-14" x1="391.84" y1="158.75" x2="401.87" y2="148.73"/><line class="cls-14" x1="391.84" y1="167.89" x2="401.87" y2="157.86"/><line class="cls-14" x1="391.84" y1="177.06" x2="401.87" y2="167.04"/><line class="cls-14" x1="391.84" y1="186.24" x2="401.87" y2="176.17"/><line class="cls-14" x1="391.84" y1="195.37" x2="401.87" y2="185.34"/><line class="cls-14" x1="391.84" y1="204.54" x2="401.87" y2="194.48"/><line class="cls-14" x1="391.84" y1="213.68" x2="401.87" y2="203.65"/><line class="cls-14" x1="391.84" y1="222.85" x2="401.87" y2="212.79"/><line class="cls-14" x1="391.84" y1="231.98" x2="401.87" y2="221.96"/><line class="cls-14" x1="391.84" y1="241.16" x2="401.87" y2="231.09"/><line class="cls-14" x1="391.84" y1="250.29" x2="401.87" y2="240.27"/><line class="cls-14" x1="391.84" y1="259.47" x2="401.87" y2="249.44"/><line class="cls-14" x1="391.84" y1="268.6" x2="401.87" y2="258.58"/><line class="cls-14" x1="391.84" y1="277.78" x2="401.87" y2="267.75"/><line class="cls-14" x1="391.84" y1="286.91" x2="401.87" y2="276.88"/><line class="cls-14" x1="391.84" y1="296.08" x2="401.87" y2="286.06"/><line class="cls-14" x1="391.84" y1="305.22" x2="401.87" y2="295.19"/><line class="cls-14" x1="391.84" y1="314.39" x2="401.87" y2="304.37"/><line class="cls-14" x1="391.84" y1="323.52" x2="401.87" y2="313.5"/><line class="cls-14" x1="391.84" y1="332.7" x2="401.87" y2="322.67"/><line class="cls-14" x1="391.84" y1="341.83" x2="401.87" y2="331.81"/><line class="cls-14" x1="391.84" y1="351.01" x2="401.87" y2="340.98"/><line class="cls-14" x1="399.27" y1="352.7" x2="401.87" y2="350.11"/><line class="cls-14" x1="392.39" y1="62.08" x2="392.48" y2="61.99"/><line class="cls-14" x1="393.54" y1="60.93" x2="399.23" y2="55.19"/><line class="cls-14" x1="400.38" y1="54.05" x2="400.51" y2="53.96"/><line class="cls-14" x1="391.84" y1="71.76" x2="395.83" y2="67.81"/><line class="cls-14" x1="396.94" y1="66.66" x2="397.07" y2="66.58"/><line class="cls-14" x1="398.09" y1="65.52" x2="401.87" y2="61.74"/><line class="cls-14" x1="391.84" y1="80.94" x2="392.39" y2="80.38"/><line class="cls-14" x1="393.54" y1="79.24" x2="393.63" y2="79.15"/><line class="cls-14" x1="394.69" y1="78.09" x2="400.38" y2="72.4"/><line class="cls-14" x1="401.53" y1="71.25" x2="401.61" y2="71.12"/><line class="cls-14" x1="391.84" y1="90.11" x2="396.94" y2="84.97"/><line class="cls-14" x1="398.09" y1="83.82" x2="398.21" y2="83.74"/><line class="cls-14" x1="399.23" y1="82.68" x2="401.87" y2="80.04"/><line class="cls-14" x1="391.84" y1="99.24" x2="393.54" y2="97.54"/><line class="cls-14" x1="394.69" y1="96.4" x2="394.77" y2="96.31"/><line class="cls-14" x1="395.83" y1="95.25" x2="401.53" y2="89.56"/><line class="cls-14" x1="392.39" y1="107.87" x2="398.09" y2="102.13"/><line class="cls-14" x1="399.23" y1="100.99" x2="399.36" y2="100.9"/><line class="cls-14" x1="400.38" y1="99.84" x2="401.87" y2="98.35"/><line class="cls-14" x1="391.84" y1="117.55" x2="394.69" y2="114.71"/><line class="cls-14" x1="395.83" y1="113.56" x2="395.92" y2="113.47"/><line class="cls-14" x1="396.94" y1="112.41" x2="401.87" y2="107.53"/><line class="cls-14" x1="392.39" y1="126.17" x2="392.48" y2="126.09"/><line class="cls-14" x1="393.54" y1="125.03" x2="399.23" y2="119.29"/><line class="cls-14" x1="400.38" y1="118.15" x2="400.51" y2="118.06"/><line class="cls-14" x1="401.53" y1="117" x2="401.87" y2="116.66"/><line class="cls-14" x1="391.84" y1="135.86" x2="395.83" y2="131.87"/><line class="cls-14" x1="396.94" y1="130.76" x2="397.07" y2="130.63"/><line class="cls-14" x1="398.09" y1="129.61" x2="401.87" y2="125.83"/><line class="cls-14" x1="391.84" y1="145.03" x2="392.39" y2="144.48"/><line class="cls-14" x1="393.54" y1="143.33" x2="393.63" y2="143.25"/><line class="cls-14" x1="394.69" y1="142.19" x2="400.38" y2="136.45"/><line class="cls-14" x1="401.53" y1="135.31" x2="401.61" y2="135.22"/><line class="cls-14" x1="391.84" y1="154.17" x2="396.94" y2="149.07"/><line class="cls-14" x1="398.09" y1="147.92" x2="398.21" y2="147.8"/><line class="cls-14" x1="399.23" y1="146.78" x2="401.87" y2="144.14"/><line class="cls-14" x1="391.84" y1="163.34" x2="393.54" y2="161.64"/><line class="cls-14" x1="394.69" y1="160.5" x2="394.77" y2="160.41"/><line class="cls-14" x1="395.83" y1="159.35" x2="401.53" y2="153.61"/><line class="cls-14" x1="392.39" y1="171.92" x2="398.09" y2="166.23"/><line class="cls-14" x1="399.23" y1="165.08" x2="399.36" y2="164.96"/><line class="cls-14" x1="400.38" y1="163.94" x2="401.87" y2="162.45"/><line class="cls-14" x1="391.84" y1="181.65" x2="394.69" y2="178.8"/><line class="cls-14" x1="395.83" y1="177.66" x2="395.92" y2="177.57"/><line class="cls-14" x1="396.94" y1="176.51" x2="401.87" y2="171.62"/><line class="cls-14" x1="392.39" y1="190.23" x2="392.48" y2="190.14"/><line class="cls-14" x1="393.54" y1="189.08" x2="399.23" y2="183.39"/><line class="cls-14" x1="400.38" y1="182.24" x2="400.51" y2="182.16"/><line class="cls-14" x1="401.53" y1="181.1" x2="401.87" y2="180.76"/><line class="cls-14" x1="391.84" y1="199.96" x2="395.83" y2="195.96"/><line class="cls-14" x1="396.94" y1="194.82" x2="397.07" y2="194.73"/><line class="cls-14" x1="398.09" y1="193.67" x2="401.87" y2="189.93"/><line class="cls-14" x1="391.84" y1="209.09" x2="392.39" y2="208.54"/><line class="cls-14" x1="393.54" y1="207.43" x2="393.63" y2="207.31"/><line class="cls-14" x1="394.69" y1="206.29" x2="400.38" y2="200.55"/><line class="cls-14" x1="401.53" y1="199.4" x2="401.61" y2="199.32"/><line class="cls-14" x1="391.84" y1="218.26" x2="396.94" y2="213.12"/><line class="cls-14" x1="398.09" y1="211.98" x2="398.21" y2="211.89"/><line class="cls-14" x1="399.23" y1="210.83" x2="401.87" y2="208.24"/><line class="cls-14" x1="391.84" y1="227.4" x2="393.54" y2="225.74"/><line class="cls-14" x1="394.69" y1="224.59" x2="394.77" y2="224.47"/><line class="cls-14" x1="395.83" y1="223.45" x2="401.53" y2="217.71"/><line class="cls-14" x1="392.39" y1="236.02" x2="398.09" y2="230.29"/><line class="cls-14" x1="399.23" y1="229.14" x2="399.36" y2="229.05"/><line class="cls-14" x1="400.38" y1="227.99" x2="401.87" y2="226.55"/><line class="cls-14" x1="391.84" y1="245.7" x2="394.69" y2="242.9"/><line class="cls-14" x1="395.83" y1="241.75" x2="395.92" y2="241.67"/><line class="cls-14" x1="396.94" y1="240.61" x2="401.87" y2="235.68"/><line class="cls-14" x1="392.39" y1="254.33" x2="392.48" y2="254.24"/><line class="cls-14" x1="393.54" y1="253.18" x2="399.23" y2="247.45"/><line class="cls-14" x1="400.38" y1="246.34" x2="400.51" y2="246.21"/><line class="cls-14" x1="401.53" y1="245.2" x2="401.87" y2="244.86"/><line class="cls-14" x1="391.84" y1="264.05" x2="395.83" y2="260.06"/><line class="cls-14" x1="396.94" y1="258.92" x2="397.07" y2="258.83"/><line class="cls-14" x1="398.09" y1="257.77" x2="401.87" y2="253.99"/><line class="cls-14" x1="391.84" y1="273.19" x2="392.39" y2="272.64"/><line class="cls-14" x1="393.54" y1="271.49" x2="393.63" y2="271.4"/><line class="cls-14" x1="394.69" y1="270.34" x2="400.38" y2="264.65"/><line class="cls-14" x1="401.53" y1="263.5" x2="401.61" y2="263.38"/><line class="cls-14" x1="391.84" y1="282.36" x2="396.94" y2="277.22"/><line class="cls-14" x1="398.09" y1="276.08" x2="398.21" y2="275.99"/><line class="cls-14" x1="399.23" y1="274.93" x2="401.87" y2="272.3"/><line class="cls-14" x1="391.84" y1="291.5" x2="393.54" y2="289.8"/><line class="cls-14" x1="394.69" y1="288.65" x2="394.77" y2="288.56"/><line class="cls-14" x1="395.83" y1="287.5" x2="401.53" y2="281.81"/><line class="cls-14" x1="392.39" y1="300.12" x2="398.09" y2="294.38"/><line class="cls-14" x1="399.23" y1="293.24" x2="399.36" y2="293.15"/><line class="cls-14" x1="400.38" y1="292.09" x2="401.87" y2="290.6"/><line class="cls-14" x1="391.84" y1="309.8" x2="394.69" y2="306.96"/><line class="cls-14" x1="395.83" y1="305.81" x2="395.92" y2="305.72"/><line class="cls-14" x1="396.94" y1="304.71" x2="401.87" y2="299.78"/><line class="cls-14" x1="392.39" y1="318.43" x2="392.48" y2="318.34"/><line class="cls-14" x1="393.54" y1="317.28" x2="399.23" y2="311.54"/><line class="cls-14" x1="400.38" y1="310.4" x2="400.51" y2="310.31"/><line class="cls-14" x1="401.53" y1="309.25" x2="401.87" y2="308.91"/><line class="cls-14" x1="391.84" y1="328.11" x2="395.83" y2="324.16"/><line class="cls-14" x1="396.94" y1="323.01" x2="397.07" y2="322.89"/><line class="cls-14" x1="398.09" y1="321.87" x2="401.87" y2="318.09"/><line class="cls-14" x1="391.84" y1="337.29" x2="392.39" y2="336.73"/><line class="cls-14" x1="393.54" y1="335.59" x2="393.63" y2="335.5"/><line class="cls-14" x1="394.69" y1="334.44" x2="400.38" y2="328.7"/><line class="cls-14" x1="401.53" y1="327.56" x2="401.65" y2="327.47"/><line class="cls-14" x1="391.84" y1="346.42" x2="396.94" y2="341.32"/><line class="cls-14" x1="398.09" y1="340.17" x2="398.21" y2="340.05"/><line class="cls-14" x1="399.23" y1="339.03" x2="401.87" y2="336.39"/><line class="cls-14" x1="394.73" y1="352.7" x2="394.77" y2="352.66"/><line class="cls-14" x1="395.83" y1="351.6" x2="401.53" y2="345.87"/><polyline class="cls-14" points="401.87 352.7 401.87 342.68 401.87 341.87"/><polyline class="cls-14" points="401.87 341.87 401.87 260.19 401.87 247.74 401.87 53.71 391.84 53.71 391.84 248.17 391.84 260.19 391.84 341.87"/><polyline class="cls-14" points="391.84 341.87 391.84 342.68 391.84 352.7 401.87 352.7"/><line class="cls-14" x1="6.53" y1="58.85" x2="11.67" y2="53.71"/><line class="cls-14" x1="6.53" y1="67.98" x2="16.56" y2="57.96"/><line class="cls-14" x1="6.53" y1="77.16" x2="16.56" y2="67.13"/><line class="cls-14" x1="6.53" y1="86.33" x2="16.56" y2="76.26"/><line class="cls-14" x1="6.53" y1="95.46" x2="16.56" y2="85.44"/><line class="cls-14" x1="6.53" y1="104.64" x2="16.56" y2="94.57"/><line class="cls-14" x1="6.53" y1="113.77" x2="16.56" y2="103.75"/><line class="cls-14" x1="6.53" y1="122.95" x2="16.56" y2="112.88"/><line class="cls-14" x1="6.53" y1="132.08" x2="16.56" y2="122.05"/><line class="cls-14" x1="6.53" y1="141.25" x2="16.56" y2="131.19"/><line class="cls-14" x1="6.53" y1="150.39" x2="16.56" y2="140.36"/><line class="cls-14" x1="6.53" y1="159.56" x2="16.56" y2="149.54"/><line class="cls-14" x1="6.53" y1="168.69" x2="16.56" y2="158.67"/><line class="cls-14" x1="6.53" y1="177.87" x2="16.56" y2="167.84"/><line class="cls-14" x1="6.53" y1="187" x2="16.56" y2="176.98"/><line class="cls-14" x1="6.53" y1="196.18" x2="16.56" y2="186.15"/><line class="cls-14" x1="6.53" y1="205.31" x2="16.56" y2="195.28"/><line class="cls-14" x1="6.53" y1="214.48" x2="16.56" y2="204.46"/><line class="cls-14" x1="6.53" y1="223.62" x2="16.56" y2="213.59"/><line class="cls-14" x1="6.53" y1="232.79" x2="16.56" y2="222.77"/><line class="cls-14" x1="6.53" y1="241.92" x2="16.56" y2="231.9"/><line class="cls-14" x1="6.53" y1="251.1" x2="16.56" y2="241.07"/><line class="cls-14" x1="6.53" y1="260.27" x2="16.56" y2="250.21"/><line class="cls-14" x1="6.53" y1="269.41" x2="16.56" y2="259.38"/><line class="cls-14" x1="6.53" y1="278.58" x2="16.56" y2="268.51"/><line class="cls-14" x1="6.53" y1="287.71" x2="16.56" y2="277.69"/><line class="cls-14" x1="6.53" y1="296.89" x2="16.56" y2="286.82"/><line class="cls-14" x1="6.53" y1="306.02" x2="16.56" y2="296"/><line class="cls-14" x1="6.53" y1="315.2" x2="16.56" y2="305.13"/><line class="cls-14" x1="6.53" y1="318" x2="16.56" y2="314.31"/><line class="cls-14" x1="6.53" y1="318" x2="16.56" y2="318"/><line class="cls-14" x1="7.51" y1="318" x2="16.56" y2="318"/><line class="cls-14" x1="6.53" y1="54.26" x2="7.08" y2="53.71"/><line class="cls-14" x1="6.53" y1="63.44" x2="6.74" y2="63.22"/><line class="cls-14" x1="7.89" y1="62.08" x2="7.98" y2="61.99"/><line class="cls-14" x1="9.04" y1="60.93" x2="14.73" y2="55.19"/><line class="cls-14" x1="15.88" y1="54.05" x2="15.96" y2="53.96"/><line class="cls-14" x1="6.53" y1="72.57" x2="11.29" y2="67.81"/><line class="cls-14" x1="12.44" y1="66.66" x2="12.56" y2="66.58"/><line class="cls-14" x1="13.58" y1="65.52" x2="16.56" y2="62.54"/><line class="cls-14" x1="6.53" y1="81.74" x2="7.89" y2="80.38"/><line class="cls-14" x1="9.04" y1="79.24" x2="9.12" y2="79.15"/><line class="cls-14" x1="10.14" y1="78.09" x2="15.88" y2="72.4"/><line class="cls-14" x1="6.74" y1="90.71" x2="12.44" y2="84.97"/><line class="cls-14" x1="13.58" y1="83.82" x2="13.71" y2="83.74"/><line class="cls-14" x1="14.73" y1="82.68" x2="16.56" y2="80.85"/><line class="cls-14" x1="6.53" y1="100.05" x2="9.04" y2="97.54"/><line class="cls-14" x1="10.14" y1="96.4" x2="10.27" y2="96.31"/><line class="cls-14" x1="11.29" y1="95.25" x2="16.56" y2="90.03"/><line class="cls-14" x1="6.74" y1="109.01" x2="6.83" y2="108.89"/><line class="cls-14" x1="7.89" y1="107.87" x2="13.58" y2="102.13"/><line class="cls-14" x1="14.73" y1="100.99" x2="14.81" y2="100.9"/><line class="cls-14" x1="15.88" y1="99.84" x2="16.56" y2="99.16"/><line class="cls-14" x1="6.53" y1="118.36" x2="10.14" y2="114.71"/><line class="cls-14" x1="11.29" y1="113.56" x2="11.42" y2="113.47"/><line class="cls-14" x1="12.44" y1="112.41" x2="16.56" y2="108.33"/><line class="cls-14" x1="6.53" y1="127.49" x2="6.74" y2="127.32"/><line class="cls-14" x1="7.89" y1="126.17" x2="7.98" y2="126.09"/><line class="cls-14" x1="9.04" y1="125.03" x2="14.73" y2="119.29"/><line class="cls-14" x1="15.88" y1="118.15" x2="15.96" y2="118.06"/><line class="cls-14" x1="6.53" y1="136.67" x2="11.29" y2="131.87"/><line class="cls-14" x1="12.44" y1="130.76" x2="12.56" y2="130.63"/><line class="cls-14" x1="13.58" y1="129.61" x2="16.56" y2="126.64"/><line class="cls-14" x1="6.53" y1="145.8" x2="7.89" y2="144.48"/><line class="cls-14" x1="9.04" y1="143.33" x2="9.12" y2="143.25"/><line class="cls-14" x1="10.14" y1="142.19" x2="15.88" y2="136.45"/><line class="cls-14" x1="6.74" y1="154.76" x2="12.44" y2="149.07"/><line class="cls-14" x1="13.58" y1="147.92" x2="13.71" y2="147.8"/><line class="cls-14" x1="14.73" y1="146.78" x2="16.56" y2="144.95"/><line class="cls-14" x1="6.53" y1="164.11" x2="9.04" y2="161.64"/><line class="cls-14" x1="10.14" y1="160.5" x2="10.27" y2="160.41"/><line class="cls-14" x1="11.29" y1="159.35" x2="16.56" y2="154.08"/><line class="cls-14" x1="6.74" y1="173.07" x2="6.83" y2="172.98"/><line class="cls-14" x1="7.89" y1="171.92" x2="13.58" y2="166.23"/><line class="cls-14" x1="14.73" y1="165.08" x2="14.81" y2="164.96"/><line class="cls-14" x1="15.88" y1="163.94" x2="16.56" y2="163.26"/><line class="cls-14" x1="6.53" y1="182.46" x2="10.14" y2="178.8"/><line class="cls-14" x1="11.29" y1="177.66" x2="11.42" y2="177.57"/><line class="cls-14" x1="12.44" y1="176.51" x2="16.56" y2="172.39"/><line class="cls-14" x1="6.53" y1="191.59" x2="6.74" y2="191.38"/><line class="cls-14" x1="7.89" y1="190.23" x2="7.98" y2="190.14"/><line class="cls-14" x1="9.04" y1="189.08" x2="14.73" y2="183.39"/><line class="cls-14" x1="15.88" y1="182.24" x2="15.96" y2="182.16"/><line class="cls-14" x1="6.53" y1="200.76" x2="11.29" y2="195.96"/><line class="cls-14" x1="12.44" y1="194.82" x2="12.56" y2="194.73"/><line class="cls-14" x1="13.58" y1="193.67" x2="16.56" y2="190.7"/><line class="cls-14" x1="6.53" y1="209.9" x2="7.89" y2="208.54"/><line class="cls-14" x1="9.04" y1="207.43" x2="9.12" y2="207.31"/><line class="cls-14" x1="10.14" y1="206.29" x2="15.88" y2="200.55"/><line class="cls-14" x1="6.74" y1="218.86" x2="12.44" y2="213.12"/><line class="cls-14" x1="13.58" y1="211.98" x2="13.71" y2="211.89"/><line class="cls-14" x1="14.73" y1="210.83" x2="16.56" y2="209"/><line class="cls-14" x1="6.53" y1="228.2" x2="9.04" y2="225.74"/><line class="cls-14" x1="10.14" y1="224.59" x2="10.27" y2="224.47"/><line class="cls-14" x1="11.29" y1="223.45" x2="16.56" y2="218.18"/><line class="cls-14" x1="6.74" y1="237.17" x2="6.83" y2="237.08"/><line class="cls-14" x1="7.89" y1="236.02" x2="13.58" y2="230.29"/><line class="cls-14" x1="14.73" y1="229.14" x2="14.81" y2="229.05"/><line class="cls-14" x1="15.88" y1="227.99" x2="16.56" y2="227.31"/><line class="cls-14" x1="6.53" y1="246.51" x2="10.14" y2="242.9"/><line class="cls-14" x1="11.29" y1="241.75" x2="11.42" y2="241.67"/><line class="cls-14" x1="12.44" y1="240.61" x2="16.56" y2="236.49"/><line class="cls-14" x1="6.53" y1="255.69" x2="6.74" y2="255.47"/><line class="cls-14" x1="7.89" y1="254.33" x2="7.98" y2="254.24"/><line class="cls-14" x1="9.04" y1="253.18" x2="14.73" y2="247.45"/><line class="cls-14" x1="15.88" y1="246.34" x2="15.96" y2="246.21"/><line class="cls-14" x1="6.53" y1="264.82" x2="11.29" y2="260.06"/><line class="cls-14" x1="12.44" y1="258.92" x2="12.56" y2="258.83"/><line class="cls-14" x1="13.58" y1="257.77" x2="16.56" y2="254.79"/><line class="cls-14" x1="6.53" y1="273.99" x2="7.89" y2="272.64"/><line class="cls-14" x1="9.04" y1="271.49" x2="9.12" y2="271.4"/><line class="cls-14" x1="10.14" y1="270.34" x2="15.88" y2="264.65"/><line class="cls-14" x1="6.74" y1="282.96" x2="12.44" y2="277.22"/><line class="cls-14" x1="13.58" y1="276.08" x2="13.71" y2="275.99"/><line class="cls-14" x1="14.73" y1="274.93" x2="16.56" y2="273.1"/><line class="cls-14" x1="6.53" y1="292.3" x2="9.04" y2="289.8"/><line class="cls-14" x1="10.14" y1="288.65" x2="10.27" y2="288.56"/><line class="cls-14" x1="11.29" y1="287.5" x2="16.56" y2="282.28"/><line class="cls-14" x1="6.74" y1="301.26" x2="6.83" y2="301.14"/><line class="cls-14" x1="7.89" y1="300.12" x2="13.58" y2="294.38"/><line class="cls-14" x1="14.73" y1="293.24" x2="14.81" y2="293.15"/><line class="cls-14" x1="15.88" y1="292.09" x2="16.56" y2="291.41"/><line class="cls-14" x1="6.53" y1="310.61" x2="10.14" y2="306.96"/><line class="cls-14" x1="11.29" y1="305.81" x2="11.42" y2="305.72"/><line class="cls-14" x1="12.44" y1="304.71" x2="16.56" y2="300.59"/><line class="cls-14" x1="6.53" y1="318" x2="6.74" y2="318"/><line class="cls-14" x1="7.89" y1="318" x2="7.98" y2="318"/><line class="cls-14" x1="9.04" y1="317.28" x2="14.73" y2="311.54"/><line class="cls-14" x1="15.88" y1="310.4" x2="15.96" y2="310.31"/><line class="cls-14" x1="6.53" y1="318" x2="11.29" y2="318"/><line class="cls-14" x1="12.44" y1="318" x2="12.56" y2="318"/><line class="cls-14" x1="13.58" y1="318" x2="16.56" y2="318"/><line class="cls-14" x1="6.53" y1="318" x2="7.89" y2="318"/><line class="cls-14" x1="9.04" y1="318" x2="9.12" y2="318"/><line class="cls-14" x1="10.14" y1="318" x2="15.88" y2="318"/><line class="cls-14" x1="12.1" y1="318" x2="12.44" y2="318"/><line class="cls-14" x1="13.58" y1="318" x2="13.71" y2="318"/><line class="cls-14" x1="14.73" y1="318" x2="16.56" y2="318"/><polyline class="cls-14" points="16.56 318 16.56 53.71 6.53 53.71 6.53 318 9.04 318"/><line class="cls-14" x1="149" y1="392.42" x2="156.43" y2="385.03"/><line class="cls-14" x1="155.54" y1="395.05" x2="165.57" y2="385.03"/><line class="cls-14" x1="164.67" y1="395.05" x2="174.74" y2="385.03"/><line class="cls-14" x1="173.85" y1="395.05" x2="183.87" y2="385.03"/><line class="cls-14" x1="182.98" y1="395.05" x2="193.05" y2="385.03"/><line class="cls-14" x1="192.16" y1="395.05" x2="202.18" y2="385.03"/><line class="cls-14" x1="201.33" y1="395.05" x2="211.36" y2="385.03"/><line class="cls-14" x1="210.46" y1="395.05" x2="220.49" y2="385.03"/><line class="cls-14" x1="219.64" y1="395.05" x2="229.66" y2="385.03"/><line class="cls-14" x1="228.77" y1="395.05" x2="238.8" y2="385.03"/><line class="cls-14" x1="237.95" y1="395.05" x2="247.97" y2="385.03"/><line class="cls-14" x1="247.08" y1="395.05" x2="257.1" y2="385.03"/><line class="cls-14" x1="256.25" y1="395.05" x2="266.28" y2="385.03"/><line class="cls-14" x1="265.39" y1="395.05" x2="275.41" y2="385.03"/><line class="cls-14" x1="274.56" y1="395.05" x2="284.59" y2="385.03"/><line class="cls-14" x1="283.69" y1="395.05" x2="293.72" y2="385.03"/><line class="cls-14" x1="292.87" y1="395.05" x2="302.89" y2="385.03"/><line class="cls-14" x1="302" y1="395.05" x2="312.07" y2="385.03"/><line class="cls-14" x1="311.18" y1="395.05" x2="321.2" y2="385.03"/><line class="cls-14" x1="320.31" y1="395.05" x2="330.38" y2="385.03"/><line class="cls-14" x1="329.49" y1="395.05" x2="333.86" y2="390.68"/><line class="cls-14" x1="149" y1="387.83" x2="151.85" y2="385.03"/><line class="cls-14" x1="150.95" y1="395.05" x2="156.65" y2="389.36"/><line class="cls-14" x1="157.79" y1="388.22" x2="157.88" y2="388.13"/><line class="cls-14" x1="158.94" y1="387.07" x2="160.98" y2="385.03"/><line class="cls-14" x1="160.13" y1="395.05" x2="161.23" y2="393.95"/><line class="cls-14" x1="162.38" y1="392.8" x2="162.47" y2="392.72"/><line class="cls-14" x1="163.53" y1="391.66" x2="169.22" y2="385.92"/><line class="cls-14" x1="169.26" y1="395.05" x2="173.81" y2="390.51"/><line class="cls-14" x1="174.95" y1="389.36" x2="175.04" y2="389.28"/><line class="cls-14" x1="176.1" y1="388.22" x2="179.29" y2="385.03"/><line class="cls-14" x1="179.54" y1="393.95" x2="179.63" y2="393.86"/><line class="cls-14" x1="180.69" y1="392.8" x2="186.38" y2="387.07"/><line class="cls-14" x1="187.53" y1="385.92" x2="187.65" y2="385.84"/><line class="cls-14" x1="187.57" y1="395.05" x2="190.97" y2="391.66"/><line class="cls-14" x1="192.11" y1="390.51" x2="192.2" y2="390.42"/><line class="cls-14" x1="193.26" y1="389.36" x2="197.59" y2="385.03"/><line class="cls-14" x1="196.74" y1="395.05" x2="196.79" y2="395.01"/><line class="cls-14" x1="197.85" y1="393.95" x2="203.54" y2="388.22"/><line class="cls-14" x1="204.69" y1="387.07" x2="204.81" y2="386.98"/><line class="cls-14" x1="205.83" y1="385.92" x2="206.77" y2="385.03"/><line class="cls-14" x1="205.88" y1="395.05" x2="208.13" y2="392.8"/><line class="cls-14" x1="209.27" y1="391.66" x2="209.36" y2="391.57"/><line class="cls-14" x1="210.42" y1="390.51" x2="215.9" y2="385.03"/><line class="cls-14" x1="215.05" y1="395.05" x2="220.74" y2="389.36"/><line class="cls-14" x1="221.89" y1="388.22" x2="221.98" y2="388.13"/><line class="cls-14" x1="222.99" y1="387.07" x2="225.08" y2="385.03"/><line class="cls-14" x1="224.18" y1="395.05" x2="225.29" y2="393.95"/><line class="cls-14" x1="226.44" y1="392.8" x2="226.56" y2="392.72"/><line class="cls-14" x1="227.58" y1="391.66" x2="233.32" y2="385.92"/><line class="cls-14" x1="233.36" y1="395.05" x2="237.9" y2="390.51"/><line class="cls-14" x1="239.05" y1="389.36" x2="239.14" y2="389.28"/><line class="cls-14" x1="240.2" y1="388.22" x2="243.38" y2="385.03"/><line class="cls-14" x1="243.6" y1="393.95" x2="243.72" y2="393.86"/><line class="cls-14" x1="244.74" y1="392.8" x2="250.48" y2="387.07"/><line class="cls-14" x1="251.62" y1="385.92" x2="251.71" y2="385.84"/><line class="cls-14" x1="251.67" y1="395.05" x2="255.07" y2="391.66"/><line class="cls-14" x1="256.21" y1="390.51" x2="256.3" y2="390.42"/><line class="cls-14" x1="257.36" y1="389.36" x2="261.69" y2="385.03"/><line class="cls-14" x1="260.8" y1="395.05" x2="260.88" y2="395.01"/><line class="cls-14" x1="261.9" y1="393.95" x2="267.64" y2="388.22"/><line class="cls-14" x1="268.79" y1="387.07" x2="268.87" y2="386.98"/><line class="cls-14" x1="269.93" y1="385.92" x2="270.87" y2="385.03"/><line class="cls-14" x1="269.97" y1="395.05" x2="272.23" y2="392.8"/><line class="cls-14" x1="273.37" y1="391.66" x2="273.46" y2="391.57"/><line class="cls-14" x1="274.52" y1="390.51" x2="280" y2="385.03"/><line class="cls-14" x1="279.11" y1="395.05" x2="284.8" y2="389.36"/><line class="cls-14" x1="285.95" y1="388.22" x2="286.03" y2="388.13"/><line class="cls-14" x1="287.09" y1="387.07" x2="289.17" y2="385.03"/><line class="cls-14" x1="288.28" y1="395.05" x2="289.39" y2="393.95"/><line class="cls-14" x1="290.53" y1="392.8" x2="290.62" y2="392.72"/><line class="cls-14" x1="291.68" y1="391.66" x2="297.41" y2="385.92"/><line class="cls-14" x1="297.46" y1="395.05" x2="301.96" y2="390.51"/><line class="cls-14" x1="303.11" y1="389.36" x2="303.23" y2="389.28"/><line class="cls-14" x1="304.25" y1="388.22" x2="307.48" y2="385.03"/><line class="cls-14" x1="307.69" y1="393.95" x2="307.78" y2="393.86"/><line class="cls-14" x1="308.84" y1="392.8" x2="314.58" y2="387.07"/><line class="cls-14" x1="315.72" y1="385.92" x2="315.81" y2="385.84"/><line class="cls-14" x1="315.76" y1="395.05" x2="319.16" y2="391.66"/><line class="cls-14" x1="320.27" y1="390.51" x2="320.39" y2="390.42"/><line class="cls-14" x1="321.41" y1="389.36" x2="325.79" y2="385.03"/><line class="cls-14" x1="324.9" y1="395.05" x2="324.94" y2="395.01"/><line class="cls-14" x1="326" y1="393.95" x2="331.74" y2="388.22"/><line class="cls-14" x1="332.88" y1="387.07" x2="332.97" y2="386.98"/><polyline class="cls-14" points="333.86 395.05 333.86 385.03 268.23 385.03 244.15 385.03 149 385.03 149 395.05 244.15 395.05 268.23 395.05 333.86 395.05"/><line class="cls-14" x1="138.98" y1="310.91" x2="141.91" y2="307.98"/><line class="cls-14" x1="138.98" y1="320.04" x2="149" y2="310.02"/><line class="cls-14" x1="138.98" y1="329.21" x2="149" y2="319.19"/><line class="cls-14" x1="138.98" y1="338.39" x2="149" y2="328.32"/><line class="cls-14" x1="138.98" y1="347.52" x2="149" y2="337.5"/><line class="cls-14" x1="138.98" y1="356.7" x2="149" y2="346.63"/><line class="cls-14" x1="138.98" y1="365.83" x2="149" y2="355.81"/><line class="cls-14" x1="138.98" y1="375" x2="149" y2="364.94"/><line class="cls-14" x1="138.98" y1="384.14" x2="149" y2="374.11"/><line class="cls-14" x1="138.98" y1="315.49" x2="142.93" y2="311.54"/><line class="cls-14" x1="144.07" y1="310.4" x2="144.16" y2="310.31"/><line class="cls-14" x1="145.22" y1="309.25" x2="146.49" y2="307.98"/><line class="cls-14" x1="138.98" y1="324.63" x2="139.49" y2="324.16"/><line class="cls-14" x1="140.63" y1="323.01" x2="140.72" y2="322.89"/><line class="cls-14" x1="141.78" y1="321.87" x2="147.47" y2="316.13"/><line class="cls-14" x1="148.62" y1="314.98" x2="148.75" y2="314.9"/><line class="cls-14" x1="138.98" y1="333.8" x2="144.07" y2="328.7"/><line class="cls-14" x1="145.22" y1="327.56" x2="145.3" y2="327.47"/><line class="cls-14" x1="146.32" y1="326.41" x2="149" y2="323.78"/><line class="cls-14" x1="138.98" y1="342.93" x2="140.63" y2="341.32"/><line class="cls-14" x1="141.78" y1="340.17" x2="141.86" y2="340.05"/><line class="cls-14" x1="142.93" y1="339.03" x2="148.62" y2="333.29"/><line class="cls-14" x1="139.49" y1="351.6" x2="145.22" y2="345.87"/><line class="cls-14" x1="146.32" y1="344.72" x2="146.45" y2="344.63"/><line class="cls-14" x1="147.47" y1="343.61" x2="149" y2="342.09"/><line class="cls-14" x1="138.98" y1="361.24" x2="141.78" y2="358.48"/><line class="cls-14" x1="142.93" y1="357.33" x2="143.01" y2="357.25"/><line class="cls-14" x1="144.07" y1="356.19" x2="149" y2="351.22"/><line class="cls-14" x1="139.49" y1="369.91" x2="139.57" y2="369.82"/><line class="cls-14" x1="140.63" y1="368.76" x2="146.32" y2="363.07"/><line class="cls-14" x1="147.47" y1="361.92" x2="147.6" y2="361.79"/><line class="cls-14" x1="148.62" y1="360.78" x2="149" y2="360.39"/><line class="cls-14" x1="138.98" y1="379.55" x2="142.93" y2="375.64"/><line class="cls-14" x1="144.07" y1="374.5" x2="144.16" y2="374.41"/><line class="cls-14" x1="145.22" y1="373.35" x2="149" y2="369.53"/><line class="cls-14" x1="138.98" y1="388.73" x2="139.49" y2="388.22"/><line class="cls-14" x1="140.63" y1="387.07" x2="140.72" y2="386.98"/><line class="cls-14" x1="141.78" y1="385.92" x2="147.47" y2="380.23"/><line class="cls-14" x1="148.62" y1="379.08" x2="148.75" y2="378.96"/><line class="cls-14" x1="138.98" y1="395.05" x2="149" y2="395.05"/><line class="cls-14" x1="149" y1="395.05" x2="149" y2="307.98"/><polyline class="cls-14" points="149 307.98 138.97 307.98 138.97 395.05"/><line class="cls-14" x1="344.69" y1="352.7" x2="344.69" y2="349.52"/><line class="cls-14" x1="344.69" y1="346.67" x2="344.69" y2="342.68"/><line class="cls-14" x1="386.83" y1="342.68" x2="386.83" y2="346.67"/><line class="cls-14" x1="386.83" y1="349.52" x2="386.83" y2="352.7"/><line class="cls-14" x1="344.69" y1="352.7" x2="343.88" y2="352.7"/><line class="cls-14" x1="401.87" y1="352.7" x2="391.84" y2="352.7"/><line class="cls-14" x1="391.84" y1="352.7" x2="386.83" y2="352.7"/><line class="cls-14" x1="391.84" y1="352.7" x2="391.84" y2="341.87"/><line class="cls-14" x1="391.84" y1="342.68" x2="386.83" y2="342.68"/><line class="cls-14" x1="344.69" y1="342.68" x2="333.86" y2="342.68"/><line class="cls-14" x1="401.87" y1="341.87" x2="401.87" y2="352.7"/><line class="cls-14" x1="16.56" y1="307.98" x2="16.56" y2="318"/><line class="cls-14" x1="16.56" y1="307.98" x2="138.98" y2="307.98"/><line class="cls-14" x1="16.56" y1="318" x2="138.98" y2="318"/><polyline class="cls-14" points="343.88 352.7 343.88 395.05 308.84 395.05"/><line class="cls-14" x1="333.86" y1="342.68" x2="333.86" y2="385.03"/><line class="cls-14" x1="333.86" y1="395.05" x2="333.86" y2="395.05"/><line class="cls-14" x1="148.19" y1="186.15" x2="145.01" y2="186.15"/><line class="cls-14" x1="145.01" y1="275.86" x2="148.19" y2="275.86"/><line class="cls-14" x1="148.19" y1="186.15" x2="148.19" y2="260.19"/><line class="cls-14" x1="148.19" y1="263.42" x2="148.19" y2="275.86"/><line class="cls-14" x1="145.01" y1="186.15" x2="145.01" y2="275.86"/><line class="cls-14" x1="179.92" y1="313.58" x2="179.92" y2="308.74"/><line class="cls-14" x1="232.51" y1="313.58" x2="232.51" y2="308.74"/><line class="cls-14" x1="212.04" y1="308.74" x2="212.04" y2="313.58"/><line class="cls-14" x1="264.62" y1="308.74" x2="264.62" y2="313.58"/><line class="cls-14" x1="268.23" y1="313.58" x2="264.62" y2="313.58"/><line class="cls-14" x1="226.48" y1="313.58" x2="212.04" y2="313.58"/><line class="cls-14" x1="179.92" y1="313.58" x2="149" y2="313.58"/><line class="cls-14" x1="232.51" y1="313.58" x2="231.28" y2="313.58"/><line class="cls-14" x1="273.03" y1="308.74" x2="264.62" y2="308.74"/><line class="cls-14" x1="179.92" y1="308.74" x2="149" y2="308.74"/><line class="cls-14" x1="232.51" y1="308.74" x2="212.04" y2="308.74"/><line class="cls-14" x1="268.23" y1="385.03" x2="268.23" y2="313.58"/><line class="cls-14" x1="273.03" y1="385.03" x2="273.03" y2="308.74"/><line class="cls-15" x1="226.48" y1="346.89" x2="231.28" y2="346.89"/><line class="cls-14" x1="226.48" y1="346.89" x2="226.48" y2="313.58"/><line class="cls-14" x1="231.28" y1="346.89" x2="231.28" y2="313.58"/><line class="cls-14" x1="319.5" y1="342.68" x2="319.5" y2="345.87"/><line class="cls-14" x1="333.86" y1="345.87" x2="333.86" y2="342.68"/><line class="cls-14" x1="287.39" y1="345.87" x2="287.39" y2="342.68"/><line class="cls-14" x1="319.5" y1="342.68" x2="333.86" y2="342.68"/><line class="cls-14" x1="273.03" y1="342.68" x2="287.39" y2="342.68"/><line class="cls-14" x1="319.5" y1="345.87" x2="333.86" y2="345.87"/><line class="cls-14" x1="273.03" y1="345.87" x2="287.39" y2="345.87"/><line class="cls-14" x1="270.44" y1="260.19" x2="270.44" y2="63.73"/><line class="cls-14" x1="273.63" y1="260.19" x2="273.63" y2="63.73"/><line class="cls-14" x1="317.8" y1="260.19" x2="317.8" y2="263.42"/><line class="cls-14" x1="204.39" y1="260.19" x2="204.39" y2="263.42"/><line class="cls-14" x1="285.69" y1="263.42" x2="285.69" y2="260.19"/><line class="cls-14" x1="172.28" y1="263.42" x2="172.28" y2="260.19"/><line class="cls-14" x1="273.63" y1="260.19" x2="285.69" y2="260.19"/><line class="cls-14" x1="148.19" y1="260.19" x2="172.28" y2="260.19"/><line class="cls-14" x1="204.39" y1="260.19" x2="270.44" y2="260.19"/><line class="cls-14" x1="148.19" y1="263.42" x2="172.28" y2="263.42"/><line class="cls-14" x1="204.39" y1="263.42" x2="285.69" y2="263.42"/><line class="cls-15" x1="338.45" y1="263.42" x2="338.45" y2="260.19"/><line class="cls-14" x1="391.84" y1="260.19" x2="317.8" y2="260.19"/><polyline class="cls-14" points="317.8 263.42 391.84 263.42 391.84 260.19"/><line class="cls-14" x1="268.23" y1="385.03" x2="273.03" y2="385.03"/><line class="cls-14" x1="273.03" y1="395.05" x2="268.23" y2="395.05"/><line class="cls-15" x1="216.03" y1="352.87" x2="218.15" y2="350.75"/><line class="cls-15" x1="219.89" y1="349.01" x2="222.02" y2="346.89"/><line class="cls-15" x1="216.03" y1="362.01" x2="218.07" y2="360.01"/><line class="cls-15" x1="228.81" y1="349.22" x2="231.15" y2="346.89"/><line class="cls-15" x1="222.74" y1="355.34" x2="224.74" y2="353.3"/><line class="cls-15" x1="216.03" y1="371.18" x2="218.07" y2="369.14"/><line class="cls-15" x1="230.09" y1="357.12" x2="232.09" y2="355.13"/><line class="cls-15" x1="217.35" y1="379" x2="219.55" y2="376.83"/><line class="cls-15" x1="230.09" y1="366.25" x2="232.09" y2="364.26"/><line class="cls-15" x1="223.8" y1="372.58" x2="225.8" y2="370.59"/><line class="cls-15" x1="226.52" y1="379" x2="228.94" y2="376.58"/><line class="cls-15" x1="229.66" y1="375.81" x2="232.09" y2="373.43"/><line class="cls-15" x1="216.16" y1="348.16" x2="217.43" y2="346.89"/><line class="cls-15" x1="216.03" y1="357.42" x2="218.45" y2="355.04"/><line class="cls-15" x1="219.6" y1="353.89" x2="219.68" y2="353.81"/><line class="cls-15" x1="224.57" y1="348.88" x2="226.44" y2="347.01"/><line class="cls-15" x1="216.16" y1="366.47" x2="216.24" y2="366.38"/><line class="cls-15" x1="217.3" y1="365.32" x2="218.07" y2="364.6"/><line class="cls-15" x1="230" y1="352.62" x2="231.02" y2="351.6"/><line class="cls-15" x1="227.33" y1="355.34" x2="229.41" y2="353.21"/><line class="cls-15" x1="216.03" y1="375.73" x2="218.07" y2="373.73"/><line class="cls-15" x1="230.09" y1="361.71" x2="232.09" y2="359.67"/><line class="cls-15" x1="219.21" y1="372.58" x2="219.6" y2="372.2"/><line class="cls-15" x1="220.74" y1="371.05" x2="220.83" y2="370.97"/><line class="cls-15" x1="221.93" y1="379" x2="223.93" y2="377"/><line class="cls-15" x1="228.35" y1="372.58" x2="232.09" y2="368.85"/><line class="cls-15" x1="231.11" y1="379" x2="232.09" y2="378.02"/><polyline class="cls-15" points="225.25 346.88 216.03 346.88 216.03 363.83 216.03 379 232.09 379 232.09 346.88 225.25 346.88"/><line class="cls-15" x1="219.04" y1="355.34" x2="229.07" y2="355.34"/><path class="cls-15" d="M230.05,384.63a1,1,0,0,0-1-1" transform="translate(0.04 -28.34)"/><line class="cls-15" x1="230.09" y1="356.32" x2="230.09" y2="369.57"/><path class="cls-15" d="M229.05,398.88a1,1,0,0,0,1-1" transform="translate(0.04 -28.34)"/><line class="cls-15" x1="229.07" y1="370.59" x2="219.04" y2="370.59"/><path class="cls-15" d="M218,397.89a1,1,0,0,0,1,1" transform="translate(0.04 -28.34)"/><line class="cls-15" x1="218.07" y1="369.57" x2="218.07" y2="356.32"/><path class="cls-15" d="M219,383.63a1,1,0,0,0-1,1" transform="translate(0.04 -28.34)"/><line class="cls-15" x1="219.04" y1="372.58" x2="229.07" y2="372.58"/><path class="cls-15" d="M230.05,401.88a1,1,0,0,0-1-1" transform="translate(0.04 -28.34)"/><line class="cls-15" x1="230.09" y1="373.56" x2="230.09" y2="374.58"/><path class="cls-15" d="M227.65,405.3a2.4,2.4,0,0,0,2.4-2.4" transform="translate(0.04 -28.34)"/><line class="cls-15" x1="227.67" y1="377" x2="220.45" y2="377"/><path class="cls-15" d="M218,402.9a2.4,2.4,0,0,0,2.4,2.4" transform="translate(0.04 -28.34)"/><line class="cls-15" x1="218.07" y1="374.58" x2="218.07" y2="373.56"/><path class="cls-15" d="M219,400.88a1,1,0,0,0-1,1" transform="translate(0.04 -28.34)"/><line class="cls-15" x1="220.45" y1="348.88" x2="227.67" y2="348.88"/><path class="cls-15" d="M230.05,379.62a2.4,2.4,0,0,0-2.4-2.4" transform="translate(0.04 -28.34)"/><line class="cls-15" x1="230.09" y1="351.3" x2="230.09" y2="352.32"/><path class="cls-15" d="M229.05,381.64a1,1,0,0,0,1-1" transform="translate(0.04 -28.34)"/><line class="cls-15" x1="229.07" y1="353.3" x2="219.04" y2="353.3"/><path class="cls-15" d="M218,380.64a1,1,0,0,0,1,1" transform="translate(0.04 -28.34)"/><line class="cls-15" x1="218.07" y1="352.32" x2="218.07" y2="351.3"/><path class="cls-15" d="M220.43,377.22a2.4,2.4,0,0,0-2.4,2.4" transform="translate(0.04 -28.34)"/><path class="cls-15" d="M229.83,403.91c0-.06,0-.13.08-.19" transform="translate(0.04 -28.34)"/><path class="cls-15" d="M228.47,405.15l.19-.08" transform="translate(0.04 -28.34)"/><path class="cls-15" d="M219.42,405.07l.19.08" transform="translate(0.04 -28.34)"/><path class="cls-15" d="M218.17,403.72c0,.06.05.13.08.19" transform="translate(0.04 -28.34)"/><path class="cls-15" d="M218.25,378.61c0,.06-.05.12-.08.19" transform="translate(0.04 -28.34)"/><path class="cls-15" d="M219.61,377.37l-.19.07" transform="translate(0.04 -28.34)"/><path class="cls-15" d="M228.66,377.44l-.19-.07" transform="translate(0.04 -28.34)"/><path class="cls-15" d="M229.91,378.8c0-.07,0-.13-.08-.19" transform="translate(0.04 -28.34)"/><line class="cls-15" x1="333.65" y1="244.43" x2="333.9" y2="244.13"/><line class="cls-15" x1="333.65" y1="253.56" x2="335.64" y2="251.57"/><line class="cls-15" x1="340.06" y1="247.15" x2="343.08" y2="244.13"/><line class="cls-15" x1="336.15" y1="260.19" x2="338.19" y2="258.19"/><line class="cls-15" x1="350.21" y1="246.13" x2="352.21" y2="244.13"/><line class="cls-15" x1="340.06" y1="256.32" x2="342.06" y2="254.29"/><line class="cls-15" x1="345.33" y1="260.19" x2="347.33" y2="258.19"/><line class="cls-15" x1="357.31" y1="248.21" x2="361.39" y2="244.13"/><line class="cls-15" x1="354.46" y1="260.19" x2="356.54" y2="258.11"/><line class="cls-15" x1="363.72" y1="250.93" x2="365.76" y2="248.93"/><line class="cls-15" x1="357.27" y1="257.43" x2="359.35" y2="255.35"/><line class="cls-15" x1="363.64" y1="260.19" x2="365.76" y2="258.07"/><line class="cls-15" x1="333.65" y1="248.98" x2="335.18" y2="247.45"/><line class="cls-15" x1="336.32" y1="246.34" x2="336.41" y2="246.21"/><line class="cls-15" x1="337.47" y1="245.2" x2="338.49" y2="244.13"/><line class="cls-15" x1="334.03" y1="257.77" x2="335.69" y2="256.07"/><line class="cls-15" x1="345.63" y1="246.13" x2="347.67" y2="244.13"/><line class="cls-15" x1="340.87" y1="250.89" x2="341" y2="250.8"/><line class="cls-15" x1="342.02" y1="249.74" x2="342.06" y2="249.7"/><line class="cls-15" x1="340.74" y1="260.19" x2="342.82" y2="258.11"/><line class="cls-15" x1="354.8" y1="246.13" x2="356.8" y2="244.13"/><line class="cls-15" x1="350.04" y1="260.06" x2="350.13" y2="259.98"/><line class="cls-15" x1="351.19" y1="258.92" x2="351.91" y2="258.19"/><line class="cls-15" x1="363.13" y1="246.98" x2="364.91" y2="245.2"/><line class="cls-15" x1="358.07" y1="252.03" x2="358.16" y2="251.95"/><line class="cls-15" x1="359.18" y1="250.89" x2="359.35" y2="250.76"/><line class="cls-15" x1="359.05" y1="260.19" x2="361.05" y2="258.19"/><line class="cls-15" x1="363.76" y1="255.47" x2="365.76" y2="253.52"/><polyline class="cls-15" points="365.76 244.13 339.68 244.13 333.65 244.13 333.65 251.48 333.65 260.19 365.76 260.19 365.76 244.13"/><line class="cls-15" x1="342.06" y1="257.17" x2="342.06" y2="247.15"/><path class="cls-15" d="M343.06,274.47a1,1,0,0,0-1,1" transform="translate(0.04 -28.34)"/><line class="cls-15" x1="343.08" y1="246.13" x2="356.33" y2="246.13"/><path class="cls-15" d="M357.31,275.47a1,1,0,0,0-1-1" transform="translate(0.04 -28.34)"/><line class="cls-15" x1="357.31" y1="247.15" x2="357.31" y2="257.17"/><path class="cls-15" d="M356.31,286.49a1,1,0,0,0,1-1" transform="translate(0.04 -28.34)"/><line class="cls-15" x1="356.33" y1="258.19" x2="343.08" y2="258.19"/><path class="cls-15" d="M342.06,285.49a1,1,0,0,0,1,1" transform="translate(0.04 -28.34)"/><line class="cls-15" x1="359.35" y1="257.17" x2="359.35" y2="247.15"/><path class="cls-15" d="M360.31,274.47a1,1,0,0,0-1,1" transform="translate(0.04 -28.34)"/><line class="cls-15" x1="360.32" y1="246.13" x2="361.34" y2="246.13"/><path class="cls-15" d="M363.73,276.87a2.4,2.4,0,0,0-2.4-2.4" transform="translate(0.04 -28.34)"/><line class="cls-15" x1="363.72" y1="248.55" x2="363.72" y2="255.77"/><path class="cls-15" d="M361.33,286.49a2.41,2.41,0,0,0,2.4-2.4" transform="translate(0.04 -28.34)"/><line class="cls-15" x1="361.34" y1="258.19" x2="360.32" y2="258.19"/><path class="cls-15" d="M359.31,285.49a1,1,0,0,0,1,1" transform="translate(0.04 -28.34)"/><line class="cls-15" x1="335.64" y1="255.77" x2="335.64" y2="248.55"/><path class="cls-15" d="M338.05,274.47a2.39,2.39,0,0,0-2.4,2.4" transform="translate(0.04 -28.34)"/><line class="cls-15" x1="338.07" y1="246.13" x2="339.04" y2="246.13"/><path class="cls-15" d="M340,275.47a1,1,0,0,0-1-1" transform="translate(0.04 -28.34)"/><line class="cls-15" x1="340.06" y1="247.15" x2="340.06" y2="257.17"/><path class="cls-15" d="M339,286.49a1,1,0,0,0,1-1" transform="translate(0.04 -28.34)"/><line class="cls-15" x1="339.04" y1="258.19" x2="338.07" y2="258.19"/><path class="cls-15" d="M335.65,284.09a2.4,2.4,0,0,0,2.4,2.4" transform="translate(0.04 -28.34)"/><path class="cls-15" d="M362.34,274.69l-.19-.08" transform="translate(0.04 -28.34)"/><path class="cls-15" d="M363.58,276.05a1.08,1.08,0,0,0-.08-.19" transform="translate(0.04 -28.34)"/><path class="cls-15" d="M363.5,285.1a1.08,1.08,0,0,0,.08-.19" transform="translate(0.04 -28.34)"/><path class="cls-15" d="M362.15,286.34l.19-.07" transform="translate(0.04 -28.34)"/><path class="cls-15" d="M337,286.27l.19.07" transform="translate(0.04 -28.34)"/><path class="cls-15" d="M335.79,284.91c0,.07,0,.13.08.19" transform="translate(0.04 -28.34)"/><path class="cls-15" d="M335.87,275.86c0,.06-.05.12-.08.19" transform="translate(0.04 -28.34)"/><path class="cls-15" d="M337.23,274.61l-.19.08" transform="translate(0.04 -28.34)"/><line class="cls-14" x1="6.53" y1="318" x2="6.53" y2="53.71"/><polyline class="cls-14" points="0.5 47.68 0.5 318 6.53 318"/><line class="cls-14" x1="6.53" y1="53.71" x2="16.56" y2="53.71"/><line class="cls-14" x1="44.68" y1="53.71" x2="44.68" y2="47.68"/><line class="cls-14" x1="138.98" y1="53.71" x2="149" y2="53.71"/><line class="cls-14" x1="171.09" y1="53.71" x2="171.09" y2="47.68"/><line class="cls-14" x1="116.89" y1="47.68" x2="116.89" y2="53.71"/><line class="cls-14" x1="297.5" y1="53.71" x2="297.5" y2="47.68"/><line class="cls-14" x1="243.34" y1="47.68" x2="243.34" y2="53.71"/><line class="cls-14" x1="391.84" y1="53.71" x2="401.87" y2="53.71"/><line class="cls-14" x1="369.75" y1="47.68" x2="369.75" y2="53.71"/><line class="cls-14" x1="243.34" y1="53.71" x2="297.5" y2="53.71"/><line class="cls-14" x1="297.5" y1="47.68" x2="243.34" y2="47.68"/><line class="cls-14" x1="16.56" y1="53.71" x2="44.68" y2="53.71"/><line class="cls-14" x1="44.68" y1="47.68" x2="0.5" y2="47.68"/><line class="cls-14" x1="116.89" y1="53.71" x2="138.98" y2="53.71"/><line class="cls-14" x1="149" y1="53.71" x2="171.09" y2="53.71"/><line class="cls-14" x1="171.09" y1="47.68" x2="116.89" y2="47.68"/><line class="cls-14" x1="369.75" y1="53.71" x2="391.84" y2="53.71"/><line class="cls-14" x1="401.87" y1="53.71" x2="401.87" y2="53.71"/><polyline class="cls-14" points="369.75 47.68 401.87 47.68 401.87 76.35"/><line class="cls-15" x1="44.68" y1="47.46" x2="116.89" y2="47.46"/><line class="cls-15" x1="171.09" y1="47.46" x2="243.34" y2="47.46"/><line class="cls-15" x1="297.5" y1="47.46" x2="369.75" y2="47.46"/><line class="cls-14" x1="44.68" y1="56.21" x2="44.68" y2="53.71"/><line class="cls-14" x1="16.56" y1="53.71" x2="16.56" y2="63.73"/><line class="cls-14" x1="138.98" y1="63.73" x2="138.98" y2="53.71"/><line class="cls-14" x1="116.89" y1="53.71" x2="116.89" y2="56.21"/><line class="cls-14" x1="44.68" y1="63.73" x2="16.56" y2="63.73"/><line class="cls-14" x1="138.98" y1="63.73" x2="116.89" y2="63.73"/><line class="cls-14" x1="401.87" y1="53.71" x2="401.87" y2="63.73"/><line class="cls-14" x1="401.87" y1="63.73" x2="401.87" y2="63.73"/><line class="cls-14" x1="171.09" y1="56.21" x2="171.09" y2="53.71"/><line class="cls-14" x1="149" y1="53.71" x2="149" y2="63.73"/><line class="cls-14" x1="297.5" y1="56.21" x2="297.5" y2="53.71"/><line class="cls-14" x1="243.34" y1="53.71" x2="243.34" y2="56.21"/><line class="cls-14" x1="391.84" y1="63.73" x2="391.84" y2="53.71"/><line class="cls-14" x1="369.75" y1="53.71" x2="369.75" y2="56.21"/><line class="cls-14" x1="171.09" y1="63.73" x2="149" y2="63.73"/><line class="cls-14" x1="297.5" y1="63.73" x2="243.34" y2="63.73"/><line class="cls-14" x1="391.84" y1="63.73" x2="369.75" y2="63.73"/><polyline class="cls-14" points="171.09 56.22 171.09 65.73 243.34 65.73 243.34 56.22"/><polyline class="cls-15" points="196.02 55.41 196.02 52.86 196.57 52.86 196.57 52.31 193.77 52.31 193.77 52.86 194.58 52.86 194.58 55.41 196.02 55.41"/><line class="cls-15" x1="194.32" y1="52.86" x2="194.32" y2="52.94"/><line class="cls-15" x1="194.41" y1="55.41" x2="194.58" y2="55.41"/><polyline class="cls-15" points="238.16 53.75 238.97 53.75 238.97 54.69 238.16 54.69 238.16 56.05 240.96 56.05 240.96 55.49 240.16 55.49 240.16 52.94 238.16 52.94 238.16 53.75"/><polyline class="cls-15" points="197.13 53.75 197.93 53.75 197.93 52.94 195.94 52.94 195.94 55.49 195.13 55.49 195.13 56.05 197.93 56.05 197.93 54.69 197.13 54.69 197.13 53.75"/><line class="cls-15" x1="197.93" y1="53.75" x2="238.16" y2="53.75"/><line class="cls-15" x1="238.16" y1="52.94" x2="197.93" y2="52.94"/><line class="cls-15" x1="238.16" y1="54.69" x2="197.93" y2="54.69"/><line class="cls-15" x1="197.93" y1="56.04" x2="238.16" y2="56.04"/><polyline class="cls-15" points="242.32 52.31 239.52 52.31 239.52 52.86 240.33 52.86 240.33 55.41 242.32 55.41 242.32 52.31"/><polyline class="cls-15" points="172.11 52.31 172.11 55.41 174.1 55.41 174.1 52.86 174.91 52.86 174.91 52.31 172.11 52.31"/><line class="cls-15" x1="239.52" y1="52.31" x2="196.57" y2="52.31"/><line class="cls-15" x1="193.77" y1="52.31" x2="174.91" y2="52.31"/><line class="cls-15" x1="174.1" y1="55.41" x2="174.27" y2="55.41"/><line class="cls-15" x1="240.16" y1="55.41" x2="240.33" y2="55.41"/><line class="cls-15" x1="174.91" y1="52.86" x2="193.77" y2="52.86"/><line class="cls-15" x1="196.57" y1="52.86" x2="239.52" y2="52.86"/><polyline class="cls-15" points="175.46 54.69 175.46 53.75 176.27 53.75 176.27 52.94 174.27 52.94 174.27 55.49 173.47 55.49 173.47 56.05 176.27 56.05 176.27 54.69 175.46 54.69"/><polyline class="cls-15" points="193.22 53.75 193.22 54.69 192.41 54.69 192.41 56.05 195.22 56.05 195.22 55.49 194.41 55.49 194.41 52.94 192.41 52.94 192.41 53.75 193.22 53.75"/><line class="cls-15" x1="176.27" y1="53.75" x2="192.41" y2="53.75"/><line class="cls-15" x1="192.41" y1="54.69" x2="176.27" y2="54.69"/><line class="cls-15" x1="176.27" y1="56.04" x2="192.41" y2="56.04"/><line class="cls-15" x1="192.41" y1="52.94" x2="176.27" y2="52.94"/><polyline class="cls-14" points="297.5 56.22 297.5 65.73 369.75 65.73 369.75 56.22"/><polyline class="cls-15" points="346.56 55.41 346.56 52.86 347.07 52.86 347.07 52.31 344.27 52.31 344.27 52.86 345.07 52.86 345.07 55.41 346.56 55.41"/><line class="cls-15" x1="344.82" y1="52.86" x2="344.82" y2="52.94"/><line class="cls-15" x1="344.9" y1="55.41" x2="345.07" y2="55.41"/><polyline class="cls-15" points="364.57 53.75 365.38 53.75 365.38 54.69 364.57 54.69 364.57 56.05 367.38 56.05 367.38 55.49 366.61 55.49 366.61 52.94 364.57 52.94 364.57 53.75"/><polyline class="cls-15" points="347.67 53.75 348.43 53.75 348.43 52.94 346.43 52.94 346.43 55.49 345.63 55.49 345.63 56.05 348.43 56.05 348.43 54.69 347.67 54.69 347.67 53.75"/><line class="cls-15" x1="348.43" y1="53.75" x2="364.57" y2="53.75"/><line class="cls-15" x1="364.57" y1="52.94" x2="348.43" y2="52.94"/><line class="cls-15" x1="364.57" y1="54.69" x2="348.43" y2="54.69"/><line class="cls-15" x1="348.43" y1="56.04" x2="364.57" y2="56.04"/><polyline class="cls-15" points="298.52 52.31 298.52 55.41 300.52 55.41 300.52 52.86 301.32 52.86 301.32 52.31 298.52 52.31"/><polyline class="cls-15" points="368.78 52.31 365.93 52.31 365.93 52.86 366.74 52.86 366.74 55.41 368.78 55.41 368.78 52.31"/><line class="cls-15" x1="365.93" y1="52.31" x2="347.07" y2="52.31"/><line class="cls-15" x1="344.27" y1="52.31" x2="301.32" y2="52.31"/><line class="cls-15" x1="300.52" y1="55.41" x2="300.69" y2="55.41"/><line class="cls-15" x1="366.61" y1="55.41" x2="366.74" y2="55.41"/><line class="cls-15" x1="301.32" y1="52.86" x2="344.27" y2="52.86"/><line class="cls-15" x1="347.07" y1="52.86" x2="365.93" y2="52.86"/><polyline class="cls-15" points="301.88 54.69 301.88 53.75 302.68 53.75 302.68 52.94 300.69 52.94 300.69 55.49 299.88 55.49 299.88 56.05 302.68 56.05 302.68 54.69 301.88 54.69"/><polyline class="cls-15" points="343.71 53.75 343.71 54.69 342.91 54.69 342.91 56.05 345.71 56.05 345.71 55.49 344.9 55.49 344.9 52.94 342.91 52.94 342.91 53.75 343.71 53.75"/><line class="cls-15" x1="302.68" y1="53.75" x2="342.91" y2="53.75"/><line class="cls-15" x1="342.91" y1="54.69" x2="302.68" y2="54.69"/><line class="cls-15" x1="302.68" y1="56.04" x2="342.91" y2="56.04"/><line class="cls-15" x1="342.91" y1="52.94" x2="302.68" y2="52.94"/><polyline class="cls-14" points="44.68 56.22 44.68 65.73 116.89 65.73 116.89 56.22"/><polyline class="cls-15" points="93.69 55.41 93.69 52.86 94.25 52.86 94.25 52.31 91.4 52.31 91.4 52.86 92.21 52.86 92.21 55.41 93.69 55.41"/><line class="cls-15" x1="91.95" y1="52.86" x2="91.95" y2="52.94"/><line class="cls-15" x1="92.08" y1="55.41" x2="92.21" y2="55.41"/><polyline class="cls-15" points="111.75 53.75 112.51 53.75 112.51 54.69 111.75 54.69 111.75 56.05 114.55 56.05 114.55 55.49 113.74 55.49 113.74 52.94 111.75 52.94 111.75 53.75"/><polyline class="cls-15" points="94.8 53.75 95.61 53.75 95.61 52.94 93.57 52.94 93.57 55.49 92.8 55.49 92.8 56.05 95.61 56.05 95.61 54.69 94.8 54.69 94.8 53.75"/><line class="cls-15" x1="95.61" y1="53.75" x2="111.75" y2="53.75"/><line class="cls-15" x1="111.75" y1="52.94" x2="95.61" y2="52.94"/><line class="cls-15" x1="111.75" y1="54.69" x2="95.61" y2="54.69"/><line class="cls-15" x1="95.61" y1="56.04" x2="111.75" y2="56.04"/><polyline class="cls-15" points="45.65 52.31 45.65 55.41 47.65 55.41 47.65 52.86 48.46 52.86 48.46 52.31 45.65 52.31"/><polyline class="cls-15" points="115.91 52.31 113.11 52.31 113.11 52.86 113.91 52.86 113.91 55.41 115.91 55.41 115.91 52.31"/><line class="cls-15" x1="113.11" y1="52.31" x2="94.25" y2="52.31"/><line class="cls-15" x1="91.4" y1="52.31" x2="48.46" y2="52.31"/><line class="cls-15" x1="47.65" y1="55.41" x2="47.82" y2="55.41"/><line class="cls-15" x1="113.74" y1="55.41" x2="113.91" y2="55.41"/><line class="cls-15" x1="48.46" y1="52.86" x2="91.4" y2="52.86"/><line class="cls-15" x1="94.25" y1="52.86" x2="113.11" y2="52.86"/><polyline class="cls-15" points="49.05 54.69 49.05 53.75 49.82 53.75 49.82 52.94 47.82 52.94 47.82 55.49 47.01 55.49 47.01 56.05 49.82 56.05 49.82 54.69 49.05 54.69"/><polyline class="cls-15" points="90.85 53.75 90.85 54.69 90.04 54.69 90.04 56.05 92.84 56.05 92.84 55.49 92.08 55.49 92.08 52.94 90.04 52.94 90.04 53.75 90.85 53.75"/><line class="cls-15" x1="49.82" y1="53.75" x2="90.04" y2="53.75"/><line class="cls-15" x1="90.04" y1="54.69" x2="49.82" y2="54.69"/><line class="cls-15" x1="49.82" y1="56.04" x2="90.04" y2="56.04"/><line class="cls-15" x1="90.04" y1="52.94" x2="49.82" y2="52.94"/><polyline class="cls-15" points="351.95 327.81 351.15 329.21 383.81 348.07 384.62 346.67 351.95 327.81"/><polyline class="cls-14" points="386.02 349.52 386.02 346.67 384.62 346.67 384.62 348.29 384.19 348.29 384.19 349.52 386.02 349.52"/><polyline class="cls-14" points="345.5 349.52 347.28 349.52 347.28 348.29 346.9 348.29 346.9 346.67 345.5 346.67 345.5 349.52"/><line class="cls-15" x1="92.04" y1="45.85" x2="92.04" y2="47.46"/><line class="cls-15" x1="92.8" y1="45.85" x2="92.8" y2="47.46"/><line class="cls-15" x1="69.53" y1="45.85" x2="69.53" y2="47.46"/><line class="cls-15" x1="68.76" y1="45.85" x2="68.76" y2="47.46"/><polyline class="cls-15" points="64.72 29.79 96.84 29.79 96.84 45.85 64.72 45.85 64.72 29.79"/><polyline class="cls-15" points="100.83 47.46 100.83 25.21 60.73 25.21 60.73 47.46"/><polyline class="cls-15" points="63.32 47.46 63.32 27.8 98.24 27.8 98.24 47.46"/><line class="cls-15" x1="63.32" y1="28.01" x2="98.24" y2="28.01"/><line class="cls-15" x1="218.45" y1="45.85" x2="218.45" y2="47.46"/><line class="cls-15" x1="219.26" y1="45.85" x2="219.26" y2="47.46"/><line class="cls-15" x1="195.98" y1="45.85" x2="195.98" y2="47.46"/><line class="cls-15" x1="195.17" y1="45.85" x2="195.17" y2="47.46"/><polyline class="cls-15" points="191.14 29.79 223.25 29.79 223.25 45.85 191.14 45.85 191.14 29.79"/><polyline class="cls-15" points="227.28 47.46 227.28 25.21 187.14 25.21 187.14 47.46"/><polyline class="cls-15" points="189.74 47.46 189.74 27.8 224.65 27.8 224.65 47.46"/><line class="cls-15" x1="189.74" y1="28.01" x2="224.65" y2="28.01"/></svg>