<svg id="_232" data-name="232" xmlns="http://www.w3.org/2000/svg" viewBox="0 0 300.93 271.36"><defs><style>.cls-1{isolation:isolate;font-size:6px;fill:#969696;font-family:PTSans-Regular, PT Sans;}.cls-11,.cls-12,.cls-13,.cls-14,.cls-2,.cls-7{fill:none;}.cls-2{stroke:#969696;stroke-width:0.37px;}.cls-11,.cls-12,.cls-13,.cls-14,.cls-2{stroke-linecap:round;stroke-linejoin:round;}.cls-3{font-size:14px;}.cls-3,.cls-8{fill:#231f20;font-family:BigCityGrotesquePro-Regular, BigCity Grotesque Pro;}.cls-4{letter-spacing:-0.02em;}.cls-5{letter-spacing:0em;}.cls-6{letter-spacing:-0.02em;}.cls-11,.cls-12,.cls-13,.cls-14,.cls-7{stroke:#000;}.cls-7{stroke-miterlimit:10;}.cls-14,.cls-7{stroke-width:0.5px;}.cls-8{font-size:18px;}.cls-9{letter-spacing:-0.02em;}.cls-10{letter-spacing:-0.02em;}.cls-12{stroke-width:0.54px;}.cls-13{stroke-width:0.2px;}</style></defs><title>4floor_232flat</title><text class="cls-1" transform="translate(147.8 5.1)">двор</text><line class="cls-2" x1="142.42" y1="2.11" x2="142.42" y2="6.51"/><polyline class="cls-2" points="144.17 3.86 142.42 2.11 140.67 3.86"/><text class="cls-3" transform="translate(133.22 240.75)">12<tspan class="cls-4" x="11.66" y="0">.</tspan><tspan class="cls-5" x="14.63" y="0">60</tspan></text><text class="cls-3" transform="translate(39.95 97.1)">14.80</text><text class="cls-3" transform="translate(139.81 97.1)">11.40</text><text class="cls-3" transform="translate(235.69 83.53)">13.30</text><text class="cls-3" transform="translate(251.9 187.1)">1.40</text><text class="cls-3" transform="translate(251.68 240.75)">3<tspan class="cls-6" x="7" y="0">.</tspan><tspan x="9.93" y="0">70</tspan></text><text class="cls-3" transform="translate(23.24 240.75)">3<tspan class="cls-6" x="7" y="0">.</tspan><tspan x="9.93" y="0">70</tspan></text><rect class="cls-7" x="27.06" y="109.41" width="62.21" height="24.35"/><rect class="cls-7" x="27.06" y="133.76" width="62.21" height="24.35"/><rect class="cls-7" x="27.06" y="158.12" width="62.21" height="24.35"/><text class="cls-8" transform="translate(35.19 127.07)">№232<tspan x="13.68" y="24">2</tspan><tspan class="cls-9" x="22.34" y="24">К</tspan><tspan x="0.62" y="48">6</tspan><tspan class="cls-10" x="10.68" y="48">0</tspan><tspan x="20.73" y="48">.90</tspan></text><line class="cls-11" x1="43.73" y1="70.74" x2="43.73" y2="69.22"/><polyline class="cls-11" points="12.18 69.22 7.72 69.22 7.72 76.44"/><line class="cls-11" x1="111.41" y1="76.45" x2="111.41" y2="69.22"/><line class="cls-11" x1="95.59" y1="69.22" x2="95.59" y2="70.74"/><line class="cls-11" x1="43.73" y1="76.45" x2="7.73" y2="76.45"/><line class="cls-11" x1="111.41" y1="76.45" x2="95.59" y2="76.45"/><line class="cls-11" x1="43.73" y1="69.22" x2="12.18" y2="69.22"/><line class="cls-11" x1="111.41" y1="69.22" x2="95.59" y2="69.22"/><polyline class="cls-11" points="289.92 76.44 292.9 76.44 292.9 69.22"/><line class="cls-11" x1="43.73" y1="69.22" x2="43.73" y2="64.92"/><line class="cls-11" x1="43.73" y1="64.92" x2="43.73" y2="64.77"/><line class="cls-11" x1="111.41" y1="69.22" x2="118.61" y2="69.22"/><line class="cls-11" x1="134.46" y1="69.22" x2="134.46" y2="64.92"/><line class="cls-11" x1="134.46" y1="64.92" x2="134.46" y2="64.77"/><line class="cls-11" x1="95.59" y1="64.77" x2="95.59" y2="64.92"/><line class="cls-11" x1="95.59" y1="64.92" x2="95.59" y2="69.22"/><line class="cls-11" x1="186.32" y1="64.77" x2="186.32" y2="64.92"/><line class="cls-11" x1="186.32" y1="64.92" x2="186.32" y2="69.22"/><line class="cls-11" x1="134.46" y1="64.77" x2="95.59" y2="64.77"/><line class="cls-11" x1="207.51" y1="64.77" x2="186.32" y2="64.77"/><polyline class="cls-11" points="43.73 64.77 0.5 64.92 0.5 64.92"/><line class="cls-11" x1="134.46" y1="64.92" x2="95.59" y2="64.92"/><line class="cls-11" x1="95.59" y1="69.22" x2="111.41" y2="69.22"/><line class="cls-11" x1="118.61" y1="69.22" x2="134.46" y2="69.22"/><line class="cls-11" x1="207.57" y1="64.92" x2="186.32" y2="64.92"/><polyline class="cls-11" points="186.32 69.22 209.37 69.22 213.7 64.92"/><line class="cls-11" x1="43.73" y1="64.92" x2="0.5" y2="64.92"/><line class="cls-11" x1="12.02" y1="69.22" x2="43.73" y2="69.22"/><line class="cls-12" x1="43.73" y1="64.46" x2="95.59" y2="64.46"/><line class="cls-12" x1="134.46" y1="64.46" x2="186.32" y2="64.46"/><polyline class="cls-11" points="43.73 70.74 43.73 77.57 95.59 77.57 95.59 70.74"/><line class="cls-11" x1="92.97" y1="68.61" x2="61.87" y2="68.61"/><line class="cls-11" x1="61.87" y1="69.1" x2="92.97" y2="69.1"/><polyline class="cls-11" points="92.97 68.61 92.97 69.1 93.42 69.1 93.42 68.61 92.97 68.61"/><polyline class="cls-11" points="61.87 69.1 61.87 68.61 61.44 68.61 61.44 69.1 61.87 69.1"/><line class="cls-11" x1="59.16" y1="69.1" x2="47.3" y2="69.1"/><line class="cls-11" x1="47.3" y1="69.56" x2="59.16" y2="69.56"/><polyline class="cls-11" points="59.16 69.1 59.16 69.56 59.58 69.56 59.58 69.1 59.16 69.1"/><polyline class="cls-11" points="47.3 69.56 47.3 69.1 46.87 69.1 46.87 69.56 47.3 69.56"/><polyline class="cls-13" points="62.02 70.17 62.02 69.19 61.44 69.19 61.44 69.1"/><polyline class="cls-13" points="61.44 68.61 61.44 68.52 62.02 68.52 62.02 67.94 60.01 67.94 60.01 68.34 60.56 68.34 60.56 70.17 62.02 70.17"/><polyline class="cls-13" points="94.86 67.94 92.85 67.94 92.85 68.52 93.42 68.52 93.42 68.61"/><polyline class="cls-13" points="93.42 69.1 93.42 69.19 92.85 69.19 92.85 70.17 94.86 70.17 94.86 67.94"/><polyline class="cls-13" points="44.43 67.94 44.43 70.17 45.9 70.17 45.9 68.34 46.44 68.34 46.44 67.94 44.43 67.94"/><line class="cls-13" x1="60.01" y1="67.94" x2="46.44" y2="67.94"/><line class="cls-13" x1="92.85" y1="70.16" x2="62.02" y2="70.16"/><line class="cls-13" x1="45.9" y1="70.16" x2="45.99" y2="70.16"/><line class="cls-13" x1="60.47" y1="70.16" x2="60.56" y2="70.16"/><line class="cls-13" x1="46.44" y1="68.34" x2="60.01" y2="68.34"/><line class="cls-13" x1="92.85" y1="68.52" x2="62.02" y2="68.52"/><line class="cls-13" x1="62.02" y1="67.94" x2="92.85" y2="67.94"/><line class="cls-13" x1="62.02" y1="69.19" x2="92.85" y2="69.19"/><line class="cls-13" x1="46.87" y1="69.65" x2="46.87" y2="69.56"/><polyline class="cls-13" points="46.87 69.1 46.87 68.98 47.45 68.98 47.45 68.4 45.99 68.4 45.99 70.23 45.41 70.23 45.41 70.65 47.45 70.65 47.45 69.65 46.87 69.65"/><line class="cls-13" x1="59.58" y1="68.98" x2="59.58" y2="69.1"/><polyline class="cls-13" points="59.58 69.56 59.58 69.65 59.01 69.65 59.01 70.65 61.05 70.65 61.05 70.23 60.47 70.23 60.47 68.4 59.01 68.4 59.01 68.98 59.58 68.98"/><line class="cls-13" x1="47.45" y1="68.98" x2="59" y2="68.98"/><line class="cls-13" x1="59" y1="69.65" x2="47.45" y2="69.65"/><line class="cls-13" x1="47.45" y1="70.65" x2="59" y2="70.65"/><line class="cls-13" x1="59" y1="68.4" x2="47.45" y2="68.4"/><polyline class="cls-11" points="7.72 64.92 7.72 69.22 12.02 69.22"/><line class="cls-11" x1="7.73" y1="270.86" x2="7.73" y2="64.92"/><polyline class="cls-11" points="0.5 199.84 0.5 270.86 7.72 270.86"/><line class="cls-11" x1="292.9" y1="69.22" x2="300.1" y2="69.22"/><line class="cls-11" x1="288.57" y1="64.92" x2="292.9" y2="69.22"/><line class="cls-11" x1="300.1" y1="64.77" x2="294.76" y2="64.77"/><polyline class="cls-11" points="294.7 64.92 300.1 64.92 300.1 72.83"/><line class="cls-11" x1="300.1" y1="69.22" x2="300.1" y2="69.22"/><line class="cls-14" x1="78" y1="63.34" x2="78" y2="64.46"/><line class="cls-14" x1="78.58" y1="63.34" x2="78.58" y2="64.46"/><line class="cls-14" x1="61.87" y1="63.34" x2="61.87" y2="64.46"/><line class="cls-14" x1="61.29" y1="63.34" x2="61.29" y2="64.46"/><polyline class="cls-14" points="58.43 51.81 81.47 51.81 81.47 63.34 58.43 63.34 58.43 51.81"/><polyline class="cls-14" points="69.92 48.31 71.41 48.31 72.94 48.31 74.46 48.31 75.99 48.31 77.51 48.31 79.03 48.31 80.56 48.31 82.08 48.31 84.25 48.31 84.25 48.4 82.08 48.4 80.56 48.4 79.03 48.4 77.51 48.4 75.99 48.4 74.46 48.4 72.94 48.4 71.41 48.4 69.92 48.4 69.92 48.31"/><line class="cls-14" x1="71.41" y1="48.4" x2="71.41" y2="48.31"/><line class="cls-14" x1="72.94" y1="48.4" x2="72.94" y2="48.31"/><line class="cls-14" x1="74.46" y1="48.4" x2="74.46" y2="48.31"/><line class="cls-14" x1="75.99" y1="48.4" x2="75.99" y2="48.31"/><line class="cls-14" x1="77.51" y1="48.4" x2="77.51" y2="48.31"/><line class="cls-14" x1="79.04" y1="48.4" x2="79.04" y2="48.31"/><line class="cls-14" x1="80.56" y1="48.4" x2="80.56" y2="48.31"/><line class="cls-14" x1="82.08" y1="48.4" x2="82.08" y2="48.31"/><polyline class="cls-14" points="55.53 48.4 69.92 48.4 69.92 48.49 55.53 48.49 55.53 48.4"/><polyline class="cls-14" points="84.34 64.46 84.34 48.49 55.53 48.49 55.53 64.46"/><polyline class="cls-14" points="57.42 64.46 57.42 50.35 82.48 50.35 82.48 64.46"/><line class="cls-14" x1="57.42" y1="50.5" x2="82.48" y2="50.5"/><line class="cls-11" x1="268.97" y1="45.29" x2="263.85" y2="50.38"/><line class="cls-11" x1="263.85" y1="50.38" x2="289.92" y2="76.45"/><line class="cls-12" x1="251.5" y1="29.13" x2="251.17" y2="29.46"/><line class="cls-12" x1="263.45" y1="50.77" x2="251.14" y2="38.46"/><polyline class="cls-11" points="212.36 76.44 223.76 65.01 218.67 59.92"/><line class="cls-11" x1="218.67" y1="59.92" x2="214.12" y2="64.46"/><line class="cls-12" x1="251.14" y1="38.46" x2="224.15" y2="65.44"/><line class="cls-12" x1="251.17" y1="29.46" x2="250.8" y2="29.13"/><line class="cls-14" x1="272.11" y1="42.12" x2="272.02" y2="42.24"/><line class="cls-11" x1="272.02" y1="42.24" x2="268.97" y2="45.29"/><line class="cls-11" x1="294.76" y1="64.77" x2="272.11" y2="42.12"/><line class="cls-11" x1="268.97" y1="45.29" x2="288.57" y2="64.92"/><line class="cls-11" x1="294.7" y1="64.92" x2="272.02" y2="42.24"/><line class="cls-12" x1="251.14" y1="20.75" x2="272.32" y2="41.93"/><line class="cls-11" x1="218.67" y1="59.92" x2="215.62" y2="56.87"/><line class="cls-11" x1="215.62" y1="56.87" x2="215.5" y2="56.78"/><line class="cls-11" x1="215.5" y1="56.78" x2="207.51" y2="64.77"/><line class="cls-11" x1="215.62" y1="56.87" x2="207.57" y2="64.92"/><line class="cls-12" x1="215.31" y1="56.57" x2="251.14" y2="20.75"/><line class="cls-11" x1="254.31" y1="30.74" x2="265.83" y2="42.27"/><line class="cls-11" x1="254.09" y1="30.96" x2="265.62" y2="42.48"/><line class="cls-11" x1="265.95" y1="42.15" x2="254.43" y2="30.62"/><line class="cls-11" x1="265.74" y1="42.36" x2="254.22" y2="30.84"/><polyline class="cls-11" points="265.92 42.79 266.04 42.66 265.74 42.36 265.62 42.48 265.92 42.79"/><polyline class="cls-11" points="253.91 30.53 253.79 30.65 254.09 30.96 254.22 30.84 253.91 30.53"/><polyline class="cls-11" points="254.12 30.32 254 30.44 254.31 30.75 254.43 30.62 254.12 30.32"/><polyline class="cls-11" points="266.14 42.57 266.26 42.45 265.95 42.15 265.83 42.27 266.14 42.57"/><line class="cls-11" x1="221.81" y1="56.93" x2="233.18" y2="45.56"/><line class="cls-11" x1="222.02" y1="57.15" x2="233.39" y2="45.78"/><line class="cls-11" x1="233.06" y1="45.44" x2="221.69" y2="56.81"/><line class="cls-11" x1="233.27" y1="45.65" x2="221.9" y2="57.02"/><polyline class="cls-11" points="233.7 45.47 233.57 45.35 233.27 45.65 233.39 45.77 233.7 45.47"/><polyline class="cls-11" points="221.38 57.12 221.5 57.24 221.81 56.93 221.69 56.81 221.38 57.12"/><polyline class="cls-11" points="233.48 45.26 233.36 45.13 233.06 45.44 233.18 45.56 233.48 45.26"/><polyline class="cls-11" points="221.59 57.33 221.72 57.45 222.02 57.15 221.9 57.02 221.59 57.33"/><polyline class="cls-13" points="236.35 43.58 234.76 41.99 233.06 43.7 233.36 43.98 233.76 43.58 235.07 44.86 236.35 43.58"/><polyline class="cls-13" points="251.17 28.79 252.45 30.07 253.73 28.76 254.15 29.16 254.43 28.89 251.17 25.59 247.87 28.89 248.27 29.28 248.7 28.89 249.19 29.37 248.76 29.77 249.46 30.47 251.17 28.79"/><polyline class="cls-13" points="218.27 58.49 219.86 60.1 221.14 58.79 219.82 57.51 220.22 57.09 219.95 56.81 218.27 58.49"/><polyline class="cls-13" points="266.5 44.13 267.78 45.44 269.4 43.82 267.69 42.15 267.42 42.42 267.81 42.85 266.5 44.13"/><line class="cls-13" x1="249.46" y1="30.47" x2="236.35" y2="43.58"/><line class="cls-13" x1="248.76" y1="29.77" x2="235.65" y2="42.91"/><line class="cls-13" x1="248.27" y1="29.28" x2="235.16" y2="42.42"/><line class="cls-13" x1="219.95" y1="56.81" x2="233.06" y2="43.7"/><line class="cls-13" x1="247.87" y1="28.89" x2="234.76" y2="41.99"/><line class="cls-13" x1="235.07" y1="44.86" x2="234.95" y2="44.98"/><line class="cls-13" x1="221.23" y1="58.7" x2="221.14" y2="58.79"/><line class="cls-13" x1="233.36" y1="43.98" x2="220.22" y2="57.09"/><line class="cls-13" x1="266.5" y1="44.13" x2="266.41" y2="44.04"/><line class="cls-13" x1="252.54" y1="30.17" x2="252.45" y2="30.07"/><line class="cls-13" x1="254.43" y1="28.89" x2="267.69" y2="42.15"/><line class="cls-13" x1="267.42" y1="42.42" x2="254.15" y2="29.16"/><line class="cls-13" x1="266.32" y1="42.36" x2="266.26" y2="42.45"/><line class="cls-13" x1="266.14" y1="42.57" x2="266.04" y2="42.67"/><polyline class="cls-13" points="265.92 42.79 265.83 42.85 265.43 42.45 264.73 43.15 266.44 44.83 266.71 44.56 266.32 44.13 267.6 42.85 266.32 41.57 265.92 41.96 266.32 42.36"/><line class="cls-13" x1="253.73" y1="30.74" x2="253.79" y2="30.65"/><line class="cls-13" x1="253.91" y1="30.53" x2="254" y2="30.44"/><polyline class="cls-13" points="254.12 30.32 254.22 30.26 254.61 30.65 255.04 30.26 253.73 28.98 252.45 30.26 252.02 29.86 251.75 30.14 253.42 31.84 254.12 31.14 253.73 30.75"/><line class="cls-13" x1="254.61" y1="30.65" x2="265.92" y2="41.96"/><line class="cls-13" x1="265.43" y1="42.45" x2="254.12" y2="31.14"/><line class="cls-13" x1="253.42" y1="31.84" x2="264.73" y2="43.15"/><line class="cls-13" x1="266.32" y1="41.57" x2="255.04" y2="30.26"/><line class="cls-13" x1="233.3" y1="45.07" x2="233.36" y2="45.13"/><line class="cls-13" x1="233.48" y1="45.26" x2="233.58" y2="45.35"/><polyline class="cls-13" points="233.7 45.47 233.79 45.56 233.36 45.96 234.06 46.66 235.74 44.95 235.47 44.68 235.07 45.07 233.76 43.76 232.48 45.07 232.87 45.47 233.3 45.07"/><line class="cls-13" x1="221.81" y1="57.51" x2="221.72" y2="57.45"/><line class="cls-13" x1="221.59" y1="57.33" x2="221.5" y2="57.24"/><polyline class="cls-13" points="221.38 57.12 221.32 57.02 221.72 56.63 221.32 56.23 220.04 57.51 221.32 58.79 220.92 59.22 221.2 59.49 222.91 57.82 222.2 57.12 221.81 57.51"/><line class="cls-13" x1="221.72" y1="56.63" x2="232.87" y2="45.47"/><line class="cls-13" x1="233.36" y1="45.96" x2="222.2" y2="57.12"/><line class="cls-13" x1="222.9" y1="57.82" x2="234.06" y2="46.66"/><line class="cls-13" x1="232.48" y1="45.07" x2="221.32" y2="56.23"/><polyline class="cls-11" points="250.8 29.13 251.17 29.46 251.5 29.13"/><line class="cls-11" x1="134.46" y1="70.74" x2="134.46" y2="69.22"/><line class="cls-11" x1="118.61" y1="69.22" x2="118.61" y2="76.45"/><line class="cls-11" x1="186.32" y1="69.22" x2="186.32" y2="70.74"/><line class="cls-11" x1="212.36" y1="76.45" x2="186.32" y2="76.45"/><line class="cls-11" x1="134.46" y1="76.45" x2="118.61" y2="76.45"/><line class="cls-11" x1="134.46" y1="69.22" x2="118.61" y2="69.22"/><line class="cls-11" x1="209.37" y1="69.22" x2="186.32" y2="69.22"/><polyline class="cls-11" points="134.46 70.74 134.46 77.57 186.32 77.57 186.32 70.74"/><line class="cls-11" x1="183.73" y1="68.61" x2="152.6" y2="68.61"/><line class="cls-11" x1="152.6" y1="69.1" x2="183.73" y2="69.1"/><polyline class="cls-11" points="183.73 68.61 183.73 69.1 184.16 69.1 184.16 68.61 183.73 68.61"/><polyline class="cls-11" points="152.6 69.1 152.6 68.61 152.17 68.61 152.17 69.1 152.6 69.1"/><line class="cls-11" x1="149.92" y1="69.1" x2="138.03" y2="69.1"/><line class="cls-11" x1="138.03" y1="69.56" x2="149.92" y2="69.56"/><polyline class="cls-11" points="149.92 69.1 149.92 69.56 150.34 69.56 150.34 69.1 149.92 69.1"/><polyline class="cls-11" points="138.03 69.56 138.03 69.1 137.6 69.1 137.6 69.56 138.03 69.56"/><polyline class="cls-13" points="152.75 70.17 152.75 69.19 152.17 69.19 152.17 69.1"/><polyline class="cls-13" points="152.17 68.61 152.17 68.52 152.75 68.52 152.75 67.94 150.74 67.94 150.74 68.34 151.32 68.34 151.32 70.17 152.75 70.17"/><polyline class="cls-13" points="185.59 67.94 183.58 67.94 183.58 68.52 184.16 68.52 184.16 68.61"/><polyline class="cls-13" points="184.16 69.1 184.16 69.19 183.58 69.19 183.58 70.17 185.59 70.17 185.59 67.94"/><polyline class="cls-13" points="135.19 67.94 135.19 70.17 136.63 70.17 136.63 68.34 137.21 68.34 137.21 67.94 135.19 67.94"/><line class="cls-13" x1="150.74" y1="67.94" x2="137.2" y2="67.94"/><line class="cls-13" x1="183.58" y1="70.16" x2="152.75" y2="70.16"/><line class="cls-13" x1="136.63" y1="70.16" x2="136.75" y2="70.16"/><line class="cls-13" x1="151.2" y1="70.16" x2="151.32" y2="70.16"/><line class="cls-13" x1="137.2" y1="68.34" x2="150.74" y2="68.34"/><line class="cls-13" x1="183.58" y1="68.52" x2="152.75" y2="68.52"/><line class="cls-13" x1="152.75" y1="67.94" x2="183.58" y2="67.94"/><line class="cls-13" x1="152.75" y1="69.19" x2="183.58" y2="69.19"/><line class="cls-13" x1="137.6" y1="69.65" x2="137.6" y2="69.56"/><polyline class="cls-13" points="137.6 69.1 137.6 68.98 138.18 68.98 138.18 68.4 136.75 68.4 136.75 70.23 136.17 70.23 136.17 70.65 138.18 70.65 138.18 69.65 137.6 69.65"/><line class="cls-13" x1="150.34" y1="68.98" x2="150.34" y2="69.1"/><polyline class="cls-13" points="150.34 69.56 150.34 69.65 149.77 69.65 149.77 70.65 151.78 70.65 151.78 70.23 151.2 70.23 151.2 68.4 149.77 68.4 149.77 68.98 150.34 68.98"/><line class="cls-13" x1="138.18" y1="68.98" x2="149.77" y2="68.98"/><line class="cls-13" x1="149.77" y1="69.65" x2="138.18" y2="69.65"/><line class="cls-13" x1="138.18" y1="70.65" x2="149.77" y2="70.65"/><line class="cls-13" x1="149.77" y1="68.4" x2="138.18" y2="68.4"/><line class="cls-12" x1="292.9" y1="75.32" x2="298.97" y2="69.22"/><line class="cls-12" x1="292.9" y1="81.87" x2="300.1" y2="74.68"/><line class="cls-12" x1="292.9" y1="88.46" x2="300.1" y2="81.26"/><line class="cls-12" x1="292.9" y1="95.01" x2="300.1" y2="87.82"/><line class="cls-12" x1="292.9" y1="101.6" x2="300.1" y2="94.4"/><line class="cls-12" x1="292.9" y1="108.15" x2="300.1" y2="100.96"/><line class="cls-12" x1="292.9" y1="114.74" x2="300.1" y2="107.54"/><line class="cls-12" x1="292.9" y1="121.29" x2="300.1" y2="114.1"/><line class="cls-12" x1="292.9" y1="127.88" x2="300.1" y2="120.68"/><line class="cls-12" x1="292.9" y1="134.46" x2="300.1" y2="127.24"/><line class="cls-12" x1="292.9" y1="141.02" x2="300.1" y2="133.82"/><line class="cls-12" x1="292.9" y1="147.6" x2="300.1" y2="140.38"/><line class="cls-12" x1="292.9" y1="154.16" x2="300.1" y2="146.96"/><line class="cls-12" x1="292.9" y1="160.74" x2="300.1" y2="153.52"/><line class="cls-12" x1="292.9" y1="167.3" x2="300.1" y2="160.1"/><line class="cls-12" x1="292.9" y1="173.88" x2="300.1" y2="166.66"/><line class="cls-12" x1="292.9" y1="180.44" x2="300.1" y2="173.24"/><line class="cls-12" x1="292.9" y1="187.02" x2="300.1" y2="179.83"/><line class="cls-12" x1="292.9" y1="193.58" x2="300.1" y2="186.38"/><line class="cls-12" x1="292.9" y1="200.16" x2="300.1" y2="192.97"/><line class="cls-12" x1="292.9" y1="206.72" x2="300.1" y2="199.52"/><line class="cls-12" x1="292.9" y1="213.3" x2="300.1" y2="206.11"/><line class="cls-12" x1="292.9" y1="219.86" x2="300.1" y2="212.66"/><line class="cls-12" x1="292.9" y1="226.44" x2="300.1" y2="219.25"/><line class="cls-12" x1="292.9" y1="233" x2="300.1" y2="225.8"/><line class="cls-12" x1="292.9" y1="239.58" x2="300.1" y2="232.39"/><line class="cls-12" x1="292.9" y1="246.14" x2="300.1" y2="238.94"/><line class="cls-12" x1="292.9" y1="252.72" x2="300.1" y2="245.53"/><line class="cls-12" x1="292.9" y1="259.28" x2="300.1" y2="252.08"/><line class="cls-12" x1="292.9" y1="265.86" x2="300.1" y2="258.67"/><line class="cls-12" x1="294.46" y1="270.86" x2="300.1" y2="265.22"/><line class="cls-12" x1="292.9" y1="72.02" x2="295.71" y2="69.22"/><line class="cls-12" x1="292.9" y1="78.61" x2="294.43" y2="77.05"/><line class="cls-12" x1="295.25" y1="76.23" x2="295.34" y2="76.17"/><line class="cls-12" x1="296.07" y1="75.41" x2="300.1" y2="71.38"/><line class="cls-12" x1="293.6" y1="84.46" x2="297.72" y2="80.35"/><line class="cls-12" x1="298.54" y1="79.52" x2="298.6" y2="79.46"/><line class="cls-12" x1="299.37" y1="78.7" x2="300.1" y2="77.97"/><line class="cls-12" x1="292.9" y1="91.75" x2="295.25" y2="89.37"/><line class="cls-12" x1="296.07" y1="88.55" x2="296.14" y2="88.49"/><line class="cls-12" x1="296.9" y1="87.73" x2="300.1" y2="84.52"/><line class="cls-12" x1="293.6" y1="97.6" x2="293.7" y2="97.54"/><line class="cls-12" x1="294.43" y1="96.78" x2="298.54" y2="92.66"/><line class="cls-12" x1="299.37" y1="91.84" x2="299.43" y2="91.78"/><line class="cls-12" x1="292.9" y1="104.89" x2="296.07" y2="101.69"/><line class="cls-12" x1="296.9" y1="100.9" x2="296.96" y2="100.8"/><line class="cls-12" x1="297.72" y1="100.07" x2="300.1" y2="97.66"/><line class="cls-12" x1="292.9" y1="111.44" x2="293.6" y2="110.74"/><line class="cls-12" x1="294.43" y1="109.92" x2="294.52" y2="109.86"/><line class="cls-12" x1="295.25" y1="109.1" x2="299.37" y2="104.98"/><line class="cls-12" x1="292.9" y1="118.03" x2="296.9" y2="114.04"/><line class="cls-12" x1="297.72" y1="113.21" x2="297.78" y2="113.12"/><line class="cls-12" x1="298.54" y1="112.39" x2="300.1" y2="110.83"/><line class="cls-12" x1="292.9" y1="124.58" x2="294.43" y2="123.06"/><line class="cls-12" x1="295.25" y1="122.24" x2="295.34" y2="122.18"/><line class="cls-12" x1="296.07" y1="121.41" x2="300.1" y2="117.39"/><line class="cls-12" x1="293.6" y1="130.44" x2="297.72" y2="126.35"/><line class="cls-12" x1="298.54" y1="125.53" x2="298.6" y2="125.44"/><line class="cls-12" x1="299.37" y1="124.71" x2="300.1" y2="123.97"/><line class="cls-12" x1="292.9" y1="137.72" x2="295.25" y2="135.38"/><line class="cls-12" x1="296.07" y1="134.55" x2="296.14" y2="134.49"/><line class="cls-12" x1="296.9" y1="133.73" x2="300.1" y2="130.53"/><line class="cls-12" x1="293.6" y1="143.58" x2="293.7" y2="143.52"/><line class="cls-12" x1="294.43" y1="142.76" x2="298.54" y2="138.67"/><line class="cls-12" x1="299.37" y1="137.85" x2="299.43" y2="137.79"/><line class="cls-12" x1="292.9" y1="150.86" x2="296.07" y2="147.69"/><line class="cls-12" x1="296.9" y1="146.87" x2="296.96" y2="146.81"/><line class="cls-12" x1="297.72" y1="146.05" x2="300.1" y2="143.67"/><line class="cls-12" x1="292.9" y1="157.45" x2="293.6" y2="156.72"/><line class="cls-12" x1="294.43" y1="155.93" x2="294.52" y2="155.83"/><line class="cls-12" x1="295.25" y1="155.1" x2="299.37" y2="150.99"/><line class="cls-12" x1="292.9" y1="164" x2="296.9" y2="160.01"/><line class="cls-12" x1="297.72" y1="159.19" x2="297.78" y2="159.13"/><line class="cls-12" x1="298.54" y1="158.36" x2="300.1" y2="156.81"/><line class="cls-12" x1="292.9" y1="170.59" x2="294.43" y2="169.07"/><line class="cls-12" x1="295.25" y1="168.24" x2="295.31" y2="168.15"/><line class="cls-12" x1="296.07" y1="167.42" x2="300.1" y2="163.39"/><line class="cls-12" x1="293.6" y1="176.44" x2="297.72" y2="172.33"/><line class="cls-12" x1="298.54" y1="171.5" x2="298.6" y2="171.44"/><line class="cls-12" x1="299.37" y1="170.68" x2="300.1" y2="169.95"/><line class="cls-12" x1="292.9" y1="183.73" x2="295.25" y2="181.38"/><line class="cls-12" x1="296.07" y1="180.56" x2="296.14" y2="180.5"/><line class="cls-12" x1="296.9" y1="179.74" x2="300.1" y2="176.53"/><line class="cls-12" x1="293.6" y1="189.58" x2="293.7" y2="189.52"/><line class="cls-12" x1="294.43" y1="188.76" x2="298.54" y2="184.64"/><line class="cls-12" x1="299.37" y1="183.85" x2="299.43" y2="183.76"/><line class="cls-12" x1="292.9" y1="196.87" x2="296.07" y2="193.7"/><line class="cls-12" x1="296.9" y1="192.88" x2="296.96" y2="192.82"/><line class="cls-12" x1="297.72" y1="192.05" x2="300.1" y2="189.68"/><line class="cls-12" x1="292.9" y1="203.46" x2="293.6" y2="202.72"/><line class="cls-12" x1="294.43" y1="201.9" x2="294.52" y2="201.84"/><line class="cls-12" x1="295.25" y1="201.08" x2="299.37" y2="196.99"/><line class="cls-12" x1="292.9" y1="210.01" x2="296.9" y2="206.02"/><line class="cls-12" x1="297.72" y1="205.19" x2="297.78" y2="205.13"/><line class="cls-12" x1="298.54" y1="204.37" x2="300.1" y2="202.81"/><line class="cls-12" x1="292.9" y1="216.6" x2="294.43" y2="215.04"/><line class="cls-12" x1="295.25" y1="214.22" x2="295.31" y2="214.16"/><line class="cls-12" x1="296.07" y1="213.39" x2="300.1" y2="209.37"/><line class="cls-12" x1="293.6" y1="222.45" x2="297.72" y2="218.33"/><line class="cls-12" x1="298.54" y1="217.51" x2="298.6" y2="217.45"/><line class="cls-12" x1="299.37" y1="216.69" x2="300.1" y2="215.96"/><line class="cls-12" x1="292.9" y1="229.74" x2="295.25" y2="227.36"/><line class="cls-12" x1="296.07" y1="226.53" x2="296.14" y2="226.47"/><line class="cls-12" x1="296.9" y1="225.71" x2="300.1" y2="222.51"/><line class="cls-12" x1="293.6" y1="235.59" x2="293.7" y2="235.53"/><line class="cls-12" x1="294.43" y1="234.77" x2="298.54" y2="230.65"/><line class="cls-12" x1="299.37" y1="229.83" x2="299.43" y2="229.77"/><line class="cls-12" x1="292.9" y1="242.88" x2="296.07" y2="239.67"/><line class="cls-12" x1="296.9" y1="238.88" x2="296.96" y2="238.79"/><line class="cls-12" x1="297.72" y1="238.06" x2="300.1" y2="235.65"/><line class="cls-12" x1="292.9" y1="249.43" x2="293.6" y2="248.73"/><line class="cls-12" x1="294.43" y1="247.91" x2="294.52" y2="247.84"/><line class="cls-12" x1="295.25" y1="247.08" x2="299.37" y2="242.97"/><line class="cls-12" x1="292.9" y1="256.02" x2="296.9" y2="252.02"/><line class="cls-12" x1="297.72" y1="251.2" x2="297.78" y2="251.11"/><line class="cls-12" x1="298.54" y1="250.38" x2="300.1" y2="248.79"/><line class="cls-12" x1="292.9" y1="262.57" x2="294.43" y2="261.05"/><line class="cls-12" x1="295.25" y1="260.22" x2="295.31" y2="260.16"/><line class="cls-12" x1="296.07" y1="259.4" x2="300.1" y2="255.38"/><line class="cls-12" x1="293.6" y1="268.42" x2="297.72" y2="264.34"/><line class="cls-12" x1="298.54" y1="263.52" x2="298.6" y2="263.42"/><line class="cls-12" x1="299.37" y1="262.69" x2="300.1" y2="261.96"/><line class="cls-12" x1="297.75" y1="270.86" x2="300.1" y2="268.52"/><polyline class="cls-11" points="300.1 270.86 300.1 204.46 300.1 195.56 300.1 69.22 292.9 69.22 292.9 195.56 292.9 204.46 292.9 270.86 300.1 270.86"/><line class="cls-12" x1="111.41" y1="72.82" x2="115.01" y2="69.22"/><line class="cls-12" x1="111.41" y1="79.37" x2="118.61" y2="72.18"/><line class="cls-12" x1="111.41" y1="85.96" x2="118.61" y2="78.76"/><line class="cls-12" x1="111.41" y1="92.51" x2="118.61" y2="85.32"/><line class="cls-12" x1="111.41" y1="99.1" x2="118.61" y2="91.9"/><line class="cls-12" x1="111.41" y1="105.65" x2="118.61" y2="98.46"/><line class="cls-12" x1="111.41" y1="112.24" x2="118.61" y2="105.04"/><line class="cls-12" x1="111.41" y1="118.82" x2="118.61" y2="111.6"/><line class="cls-12" x1="111.41" y1="125.38" x2="118.61" y2="118.18"/><line class="cls-12" x1="111.41" y1="131.96" x2="118.61" y2="124.74"/><line class="cls-12" x1="111.41" y1="138.52" x2="118.61" y2="131.32"/><line class="cls-12" x1="111.41" y1="145.1" x2="118.61" y2="137.88"/><line class="cls-12" x1="111.41" y1="151.66" x2="118.61" y2="144.46"/><line class="cls-12" x1="111.41" y1="158.24" x2="118.61" y2="151.02"/><line class="cls-12" x1="111.41" y1="164.8" x2="118.61" y2="157.6"/><line class="cls-12" x1="111.41" y1="171.38" x2="118.61" y2="164.16"/><line class="cls-12" x1="111.41" y1="177.94" x2="118.61" y2="170.74"/><line class="cls-12" x1="111.41" y1="184.52" x2="118.61" y2="177.33"/><line class="cls-12" x1="111.41" y1="191.08" x2="118.61" y2="183.88"/><line class="cls-12" x1="111.41" y1="197.66" x2="118.61" y2="190.47"/><line class="cls-12" x1="114.34" y1="201.32" x2="118.61" y2="197.02"/><line class="cls-12" x1="111.41" y1="69.52" x2="111.72" y2="69.22"/><line class="cls-12" x1="112.08" y1="75.41" x2="116.2" y2="71.32"/><line class="cls-12" x1="117.02" y1="70.5" x2="117.08" y2="70.41"/><line class="cls-12" x1="117.85" y1="69.68" x2="118.3" y2="69.22"/><line class="cls-12" x1="111.41" y1="82.66" x2="113.73" y2="80.35"/><line class="cls-12" x1="114.55" y1="79.52" x2="114.61" y2="79.46"/><line class="cls-12" x1="115.38" y1="78.7" x2="118.61" y2="75.47"/><line class="cls-12" x1="112.08" y1="88.55" x2="112.17" y2="88.49"/><line class="cls-12" x1="112.91" y1="87.73" x2="117.02" y2="83.64"/><line class="cls-12" x1="117.85" y1="82.82" x2="117.91" y2="82.76"/><line class="cls-12" x1="111.41" y1="95.8" x2="114.55" y2="92.66"/><line class="cls-12" x1="115.38" y1="91.84" x2="115.44" y2="91.78"/><line class="cls-12" x1="116.2" y1="91.02" x2="118.61" y2="88.61"/><line class="cls-12" x1="111.41" y1="102.39" x2="112.08" y2="101.69"/><line class="cls-12" x1="112.91" y1="100.9" x2="113" y2="100.8"/><line class="cls-12" x1="113.73" y1="100.07" x2="117.85" y2="95.96"/><line class="cls-12" x1="111.41" y1="108.94" x2="115.38" y2="104.98"/><line class="cls-12" x1="116.2" y1="104.16" x2="116.26" y2="104.1"/><line class="cls-12" x1="117.02" y1="103.33" x2="118.61" y2="101.75"/><line class="cls-12" x1="111.41" y1="115.53" x2="112.91" y2="114.04"/><line class="cls-12" x1="113.73" y1="113.21" x2="113.82" y2="113.12"/><line class="cls-12" x1="114.55" y1="112.39" x2="118.61" y2="108.33"/><line class="cls-12" x1="112.08" y1="121.41" x2="116.2" y2="117.3"/><line class="cls-12" x1="117.02" y1="116.48" x2="117.08" y2="116.41"/><line class="cls-12" x1="117.85" y1="115.65" x2="118.61" y2="114.89"/><line class="cls-12" x1="111.41" y1="128.67" x2="113.73" y2="126.35"/><line class="cls-12" x1="114.55" y1="125.53" x2="114.61" y2="125.47"/><line class="cls-12" x1="115.38" y1="124.71" x2="118.61" y2="121.47"/><line class="cls-12" x1="112.08" y1="134.55" x2="112.17" y2="134.49"/><line class="cls-12" x1="112.91" y1="133.73" x2="117.02" y2="129.62"/><line class="cls-12" x1="117.85" y1="128.82" x2="117.91" y2="128.73"/><line class="cls-12" x1="111.41" y1="141.81" x2="114.55" y2="138.67"/><line class="cls-12" x1="115.38" y1="137.85" x2="115.44" y2="137.79"/><line class="cls-12" x1="116.2" y1="137.02" x2="118.61" y2="134.61"/><line class="cls-12" x1="111.41" y1="148.36" x2="112.08" y2="147.69"/><line class="cls-12" x1="112.91" y1="146.87" x2="113" y2="146.81"/><line class="cls-12" x1="113.73" y1="146.05" x2="117.85" y2="141.96"/><line class="cls-12" x1="111.41" y1="154.95" x2="115.38" y2="150.99"/><line class="cls-12" x1="116.2" y1="150.16" x2="116.26" y2="150.1"/><line class="cls-12" x1="117.02" y1="149.34" x2="118.61" y2="147.75"/><line class="cls-12" x1="111.41" y1="161.5" x2="112.91" y2="160.01"/><line class="cls-12" x1="113.73" y1="159.19" x2="113.82" y2="159.13"/><line class="cls-12" x1="114.55" y1="158.36" x2="118.61" y2="154.31"/><line class="cls-12" x1="112.08" y1="167.42" x2="116.2" y2="163.3"/><line class="cls-12" x1="117.02" y1="162.48" x2="117.08" y2="162.42"/><line class="cls-12" x1="117.85" y1="161.66" x2="118.61" y2="160.89"/><line class="cls-12" x1="111.41" y1="174.64" x2="113.73" y2="172.33"/><line class="cls-12" x1="114.55" y1="171.5" x2="114.61" y2="171.44"/><line class="cls-12" x1="115.38" y1="170.68" x2="118.61" y2="167.45"/><line class="cls-12" x1="112.08" y1="180.56" x2="112.17" y2="180.5"/><line class="cls-12" x1="112.91" y1="179.74" x2="117.02" y2="175.62"/><line class="cls-12" x1="117.85" y1="174.8" x2="117.91" y2="174.74"/><line class="cls-12" x1="111.41" y1="187.82" x2="114.55" y2="184.64"/><line class="cls-12" x1="115.38" y1="183.85" x2="115.44" y2="183.76"/><line class="cls-12" x1="116.2" y1="183.03" x2="118.61" y2="180.59"/><line class="cls-12" x1="111.41" y1="194.37" x2="112.08" y2="193.7"/><line class="cls-12" x1="112.91" y1="192.88" x2="113" y2="192.82"/><line class="cls-12" x1="113.73" y1="192.05" x2="117.85" y2="187.94"/><line class="cls-12" x1="111.41" y1="200.96" x2="115.38" y2="196.99"/><line class="cls-12" x1="116.2" y1="196.17" x2="116.26" y2="196.08"/><line class="cls-12" x1="117.02" y1="195.35" x2="118.61" y2="193.73"/><line class="cls-12" x1="117.63" y1="201.32" x2="118.61" y2="200.32"/><polyline class="cls-11" points="118.61 201.32 118.61 69.22 111.41 69.22 111.41 201.32 118.61 201.32"/><line class="cls-11" x1="300.1" y1="69.22" x2="300.1" y2="76.45"/><line class="cls-11" x1="300.1" y1="76.45" x2="300.1" y2="76.45"/><polyline class="cls-11" points="25.01 203.03 25.01 198.24 25.01 197.97 25.01 198.24 25.01 203.03 25.01 198.24 25.01 197.97 25.01 198.24 25.01 203.03 25.01 198.24 25.01 197.97 25.01 198.24 25.01 203.03 25.01 198.24 25.01 197.97 25.01 198.24 25.01 203.03 25.01 198.24 25.01 197.97 25.01 198.24 25.01 203.03 25.01 198.24 25.01 197.97 25.01 198.24 25.01 203.03 25.01 198.24 25.01 197.97 25.01 198.24 25.01 203.03 25.01 198.24 25.01 197.97 25.01 198.24 25.01 203.03 25.01 198.24 25.01 197.97 25.01 198.24 25.01 203.03"/><line class="cls-11" x1="0.5" y1="64.92" x2="0.5" y2="213.27"/><polyline class="cls-14" points="275.62 197.97 275.62 203.03 275.62 197.97 275.62 203.03 275.62 197.97 275.62 203.03 275.62 197.97 275.62 203.03 275.62 197.97 275.62 203.03 275.62 197.97 275.62 203.03 275.62 197.97 275.62 203.03 275.62 197.97 275.62 203.03 275.62 197.97 275.62 203.03 275.62 197.97"/><polyline class="cls-11" points="25.01 203.03 25.01 198.24 25.01 197.97 25.01 198.24 25.01 203.03 25.01 198.24 25.01 197.97 25.01 198.24 25.01 203.03 25.01 198.24 25.01 197.97 25.01 198.24 25.01 203.03"/><path class="cls-14" d="M26.55,228.78a.75.75,0,0,0,.06.13" transform="translate(0 -28.34)"/><path class="cls-14" d="M27.44,229.75l.14.06" transform="translate(0 -28.34)"/><path class="cls-14" d="M26.61,222.28a.75.75,0,0,0-.06.13" transform="translate(0 -28.34)"/><path class="cls-14" d="M27.58,221.39l-.14.05" transform="translate(0 -28.34)"/><path class="cls-14" d="M46.52,222.41a.69.69,0,0,0-.05-.13" transform="translate(0 -28.34)"/><path class="cls-14" d="M45.62,221.44l-.13-.05" transform="translate(0 -28.34)"/><path class="cls-14" d="M46.47,228.91a.69.69,0,0,0,.05-.13" transform="translate(0 -28.34)"/><path class="cls-14" d="M45.49,229.81l.13-.06" transform="translate(0 -28.34)"/><line class="cls-14" x1="25.01" y1="192.08" x2="25.56" y2="191.5"/><line class="cls-14" x1="25.01" y1="198.67" x2="26.44" y2="197.21"/><line class="cls-14" x1="29.62" y1="194.03" x2="32.15" y2="191.5"/><line class="cls-14" x1="27.18" y1="203.03" x2="28.64" y2="201.6"/><line class="cls-14" x1="37.27" y1="192.97" x2="38.7" y2="191.5"/><line class="cls-14" x1="29.62" y1="200.62" x2="31.05" y2="199.19"/><line class="cls-14" x1="33.76" y1="203.03" x2="35.19" y2="201.6"/><line class="cls-14" x1="41.99" y1="194.8" x2="45.29" y2="191.5"/><line class="cls-14" x1="40.32" y1="203.03" x2="43.43" y2="199.92"/><line class="cls-14" x1="46.6" y1="196.78" x2="48.03" y2="195.32"/><line class="cls-14" x1="46.9" y1="203.03" x2="48.03" y2="201.9"/><line class="cls-14" x1="25.04" y1="195.35" x2="28.85" y2="191.5"/><line class="cls-14" x1="25.01" y1="201.93" x2="26.54" y2="200.41"/><line class="cls-14" x1="34.07" y1="192.88" x2="35.44" y2="191.5"/><line class="cls-14" x1="29.62" y1="197.33" x2="31.05" y2="195.89"/><line class="cls-14" x1="30.77" y1="202.72" x2="30.87" y2="202.66"/><line class="cls-14" x1="31.6" y1="201.9" x2="31.9" y2="201.6"/><line class="cls-14" x1="40.56" y1="192.97" x2="41.47" y2="192.05"/><line class="cls-14" x1="37.05" y1="203.03" x2="38.49" y2="201.6"/><line class="cls-14" x1="46.38" y1="193.7" x2="48.03" y2="192.05"/><line class="cls-14" x1="41.99" y1="198.09" x2="43.43" y2="196.66"/><line class="cls-14" x1="43.91" y1="202.72" x2="45.1" y2="201.53"/><line class="cls-14" x1="46.57" y1="200.1" x2="48.03" y2="198.61"/><polyline class="cls-14" points="48.03 191.5 36.84 191.5 25.01 191.5 25.01 195.56 25.01 198.24 25.01 203.03 48.03 203.03 48.03 191.5"/><line class="cls-14" x1="41.99" y1="193.67" x2="41.99" y2="200.86"/><path class="cls-14" d="M41.28,229.91a.62.62,0,0,0,.35-.1.68.68,0,0,0,.36-.62" transform="translate(0 -28.34)"/><line class="cls-14" x1="41.26" y1="201.6" x2="31.78" y2="201.6"/><path class="cls-14" d="M31.08,229.19a.68.68,0,0,0,.36.62.65.65,0,0,0,.36.1" transform="translate(0 -28.34)"/><line class="cls-14" x1="31.05" y1="200.86" x2="31.05" y2="193.67"/><path class="cls-14" d="M31.8,221.28a.72.72,0,0,0-.72.72" transform="translate(0 -28.34)"/><line class="cls-14" x1="31.78" y1="192.97" x2="41.26" y2="192.97"/><path class="cls-14" d="M42,222a.71.71,0,0,0-.71-.72" transform="translate(0 -28.34)"/><line class="cls-14" x1="29.62" y1="193.67" x2="29.62" y2="200.86"/><path class="cls-14" d="M28.9,229.91a.68.68,0,0,0,.36-.1.65.65,0,0,0,.26-.26.75.75,0,0,0,.1-.36" transform="translate(0 -28.34)"/><line class="cls-14" x1="28.88" y1="201.6" x2="28.15" y2="201.6"/><path class="cls-14" d="M26.44,228.19a1.81,1.81,0,0,0,.51,1.22,1.72,1.72,0,0,0,1.22.5" transform="translate(0 -28.34)"/><line class="cls-14" x1="26.44" y1="199.86" x2="26.44" y2="194.67"/><path class="cls-14" d="M28.17,221.28A1.73,1.73,0,0,0,26.44,223" transform="translate(0 -28.34)"/><line class="cls-14" x1="28.15" y1="192.97" x2="28.88" y2="192.97"/><path class="cls-14" d="M29.62,222a.75.75,0,0,0-.1-.36.73.73,0,0,0-.62-.36" transform="translate(0 -28.34)"/><line class="cls-14" x1="46.6" y1="194.67" x2="46.6" y2="199.86"/><path class="cls-14" d="M44.9,229.91a1.72,1.72,0,0,0,1.22-.5,1.91,1.91,0,0,0,.38-.56,1.89,1.89,0,0,0,.13-.66" transform="translate(0 -28.34)"/><line class="cls-14" x1="44.89" y1="201.6" x2="44.16" y2="201.6"/><path class="cls-14" d="M43.46,229.19a.71.71,0,0,0,.71.72" transform="translate(0 -28.34)"/><line class="cls-14" x1="43.43" y1="200.86" x2="43.43" y2="193.67"/><path class="cls-14" d="M44.17,221.28a.68.68,0,0,0-.36.1.81.81,0,0,0-.26.26.74.74,0,0,0-.09.36" transform="translate(0 -28.34)"/><line class="cls-14" x1="44.16" y1="192.97" x2="44.89" y2="192.97"/><path class="cls-14" d="M46.63,223a1.72,1.72,0,0,0-1.73-1.72" transform="translate(0 -28.34)"/><polyline class="cls-14" points="275.62 197.97 275.62 203.03 275.62 197.97 275.62 203.03 275.62 197.97 275.62 203.03 275.62 197.97"/><path class="cls-14" d="M255,229.75l.13.06" transform="translate(0 -28.34)"/><path class="cls-14" d="M254.14,228.78a.69.69,0,0,0,.05.13" transform="translate(0 -28.34)"/><path class="cls-14" d="M254.19,222.28a.69.69,0,0,0-.05.13" transform="translate(0 -28.34)"/><path class="cls-14" d="M255.16,221.39l-.13.05" transform="translate(0 -28.34)"/><path class="cls-14" d="M273.19,221.44l-.14-.05" transform="translate(0 -28.34)"/><path class="cls-14" d="M274.08,222.41l-.06-.13" transform="translate(0 -28.34)"/><path class="cls-14" d="M274,228.91l.06-.13" transform="translate(0 -28.34)"/><path class="cls-14" d="M273.05,229.81l.14-.06" transform="translate(0 -28.34)"/><line class="cls-14" x1="252.57" y1="194.49" x2="255.56" y2="191.5"/><line class="cls-14" x1="252.57" y1="201.05" x2="254" y2="199.61"/><line class="cls-14" x1="260.68" y1="192.97" x2="262.11" y2="191.5"/><line class="cls-14" x1="257.17" y1="196.44" x2="258.64" y2="195.01"/><line class="cls-14" x1="257.17" y1="203.03" x2="258.85" y2="201.35"/><line class="cls-14" x1="267.26" y1="192.97" x2="268.7" y2="191.5"/><line class="cls-14" x1="263.73" y1="203.03" x2="265.19" y2="201.6"/><line class="cls-14" x1="273.45" y1="193.3" x2="275.25" y2="191.5"/><line class="cls-14" x1="269.58" y1="197.21" x2="271.01" y2="195.77"/><line class="cls-14" x1="270.31" y1="203.03" x2="271.75" y2="201.6"/><line class="cls-14" x1="274.18" y1="199.16" x2="275.62" y2="197.72"/><line class="cls-14" x1="252.57" y1="197.78" x2="253.36" y2="196.99"/><line class="cls-14" x1="257.05" y1="193.3" x2="258.85" y2="191.5"/><line class="cls-14" x1="253.88" y1="203.03" x2="255.4" y2="201.53"/><line class="cls-14" x1="264.03" y1="192.88" x2="265.4" y2="191.5"/><line class="cls-14" x1="257.48" y1="199.43" x2="257.54" y2="199.37"/><line class="cls-14" x1="258.3" y1="198.61" x2="258.64" y2="198.3"/><line class="cls-14" x1="260.77" y1="202.72" x2="260.83" y2="202.66"/><line class="cls-14" x1="261.59" y1="201.9" x2="261.9" y2="201.6"/><line class="cls-14" x1="269.58" y1="193.91" x2="271.44" y2="192.05"/><line class="cls-14" x1="267.02" y1="203.03" x2="268.45" y2="201.6"/><line class="cls-14" x1="274.18" y1="195.89" x2="274.73" y2="195.35"/><line class="cls-14" x1="275.56" y1="194.52" x2="275.62" y2="194.43"/><line class="cls-14" x1="269.79" y1="200.25" x2="269.86" y2="200.19"/><line class="cls-14" x1="270.62" y1="199.43" x2="271.01" y2="199.07"/><line class="cls-14" x1="273.91" y1="202.72" x2="275.62" y2="201.02"/><polyline class="cls-14" points="275.62 191.5 264.43 191.5 252.57 191.5 252.57 198.24 252.57 203.03 275.62 203.03 275.62 195.56 275.62 191.5"/><line class="cls-14" x1="269.58" y1="193.67" x2="269.58" y2="200.86"/><path class="cls-14" d="M268.86,229.91a.72.72,0,0,0,.72-.72" transform="translate(0 -28.34)"/><line class="cls-14" x1="268.85" y1="201.6" x2="259.34" y2="201.6"/><path class="cls-14" d="M258.64,229.19a.71.71,0,0,0,.71.72" transform="translate(0 -28.34)"/><line class="cls-14" x1="258.64" y1="200.86" x2="258.64" y2="193.67"/><path class="cls-14" d="M259.35,221.28a.71.71,0,0,0-.71.72" transform="translate(0 -28.34)"/><line class="cls-14" x1="259.34" y1="192.97" x2="268.85" y2="192.97"/><path class="cls-14" d="M269.58,222a.72.72,0,0,0-.72-.72" transform="translate(0 -28.34)"/><line class="cls-14" x1="257.17" y1="193.67" x2="257.17" y2="200.86"/><path class="cls-14" d="M256.49,229.91a.71.71,0,0,0,.71-.72" transform="translate(0 -28.34)"/><line class="cls-14" x1="256.47" y1="201.6" x2="255.74" y2="201.6"/><path class="cls-14" d="M254,228.19a1.72,1.72,0,0,0,1.72,1.72" transform="translate(0 -28.34)"/><line class="cls-14" x1="254" y1="199.86" x2="254" y2="194.67"/><path class="cls-14" d="M255.75,221.28A1.72,1.72,0,0,0,254,223" transform="translate(0 -28.34)"/><line class="cls-14" x1="255.74" y1="192.97" x2="256.47" y2="192.97"/><path class="cls-14" d="M257.2,222a.71.71,0,0,0-.71-.72" transform="translate(0 -28.34)"/><line class="cls-14" x1="274.18" y1="194.67" x2="274.18" y2="199.86"/><path class="cls-14" d="M272.46,229.91a1.72,1.72,0,0,0,1.72-1.72" transform="translate(0 -28.34)"/><line class="cls-14" x1="272.45" y1="201.6" x2="271.71" y2="201.6"/><path class="cls-14" d="M271,229.19a.72.72,0,0,0,.72.72" transform="translate(0 -28.34)"/><line class="cls-14" x1="271.01" y1="200.86" x2="271.01" y2="193.67"/><path class="cls-14" d="M271.73,221.28a.72.72,0,0,0-.72.72" transform="translate(0 -28.34)"/><line class="cls-14" x1="271.71" y1="192.97" x2="272.45" y2="192.97"/><path class="cls-14" d="M274.18,223a1.72,1.72,0,0,0-1.72-1.72" transform="translate(0 -28.34)"/><line class="cls-12" x1="0.5" y1="90.84" x2="0.5" y2="177.27"/><line class="cls-12" x1="251.14" y1="204.46" x2="251.14" y2="203.03"/><polyline class="cls-12" points="251.14 198.43 251.14 190.07 277.05 190.07 277.05 191.5"/><line class="cls-12" x1="23.55" y1="191.5" x2="23.55" y2="190.07"/><line class="cls-12" x1="49.49" y1="190.07" x2="49.49" y2="198.42"/><polyline class="cls-12" points="49.49 203.03 49.49 204.46 7.72 204.46"/><line class="cls-12" x1="7.73" y1="179.71" x2="7.73" y2="191.5"/><line class="cls-12" x1="23.55" y1="190.07" x2="49.49" y2="190.07"/><line class="cls-12" x1="7.73" y1="204.46" x2="7.73" y2="228.45"/><polyline class="cls-12" points="292.9 195.56 292.9 204.46 251.14 204.46"/><line class="cls-11" x1="124.37" y1="201.32" x2="124.37" y2="199"/><line class="cls-11" x1="118.61" y1="199" x2="118.61" y2="201.32"/><line class="cls-11" x1="205.62" y1="201.32" x2="205.62" y2="199"/><line class="cls-11" x1="147.42" y1="199" x2="147.42" y2="201.32"/><line class="cls-11" x1="235.59" y1="201.32" x2="235.59" y2="199"/><line class="cls-11" x1="228.67" y1="199" x2="228.67" y2="201.32"/><line class="cls-11" x1="124.37" y1="201.32" x2="118.61" y2="201.32"/><line class="cls-11" x1="205.62" y1="201.32" x2="147.42" y2="201.32"/><line class="cls-11" x1="235.59" y1="201.32" x2="228.67" y2="201.32"/><line class="cls-11" x1="124.37" y1="199" x2="118.61" y2="199"/><line class="cls-11" x1="205.62" y1="199" x2="199.28" y2="199"/><line class="cls-11" x1="196.99" y1="199" x2="147.42" y2="199"/><line class="cls-11" x1="235.59" y1="199" x2="228.67" y2="199"/><line class="cls-11" x1="82.6" y1="201.32" x2="82.6" y2="199"/><line class="cls-11" x1="111.41" y1="201.32" x2="111.41" y2="199"/><line class="cls-11" x1="105.65" y1="199" x2="105.65" y2="201.32"/><line class="cls-11" x1="82.6" y1="201.32" x2="64.46" y2="201.32"/><line class="cls-11" x1="111.41" y1="201.32" x2="105.65" y2="201.32"/><line class="cls-11" x1="111.41" y1="199" x2="105.65" y2="199"/><line class="cls-11" x1="82.6" y1="199" x2="49.49" y2="199"/><line class="cls-11" x1="64.46" y1="201.32" x2="64.46" y2="199"/><line class="cls-11" x1="239.61" y1="241.5" x2="236.17" y2="241.5"/><line class="cls-11" x1="236.17" y1="218.45" x2="239.61" y2="218.45"/><line class="cls-11" x1="239.61" y1="241.5" x2="239.61" y2="263.67"/><line class="cls-11" x1="239.61" y1="202.45" x2="239.61" y2="218.45"/><line class="cls-11" x1="236.17" y1="241.5" x2="236.17" y2="263.67"/><line class="cls-11" x1="236.17" y1="199" x2="236.17" y2="218.45"/><polyline class="cls-11" points="275.62 195.56 292.9 195.56 292.9 192.08"/><polyline class="cls-11" points="292.9 192.08 275.62 192.08 275.62 195.56"/><line class="cls-14" x1="252.57" y1="202.45" x2="252.57" y2="199"/><line class="cls-11" x1="252.57" y1="202.45" x2="239.61" y2="202.45"/><line class="cls-11" x1="252.57" y1="199" x2="236.17" y2="199"/><line class="cls-11" x1="64.46" y1="241.5" x2="61.02" y2="241.5"/><line class="cls-11" x1="61.02" y1="218.45" x2="64.46" y2="218.45"/><line class="cls-11" x1="64.46" y1="241.5" x2="64.46" y2="263.67"/><line class="cls-11" x1="64.46" y1="201.32" x2="64.46" y2="218.45"/><line class="cls-11" x1="61.02" y1="241.5" x2="61.02" y2="263.67"/><line class="cls-11" x1="61.02" y1="202.45" x2="61.02" y2="218.45"/><polyline class="cls-11" points="7.72 192.08 7.72 195.56 25.01 195.56 25.01 192.08"/><line class="cls-11" x1="7.73" y1="192.08" x2="25.01" y2="192.08"/><line class="cls-14" x1="48.03" y1="199" x2="48.03" y2="202.45"/><line class="cls-14" x1="48.03" y1="199" x2="49.46" y2="199"/><line class="cls-14" x1="48.03" y1="202.45" x2="49.46" y2="202.45"/><line class="cls-11" x1="49.49" y1="202.45" x2="61.02" y2="202.45"/><line class="cls-11" x1="199.28" y1="76.45" x2="196.99" y2="76.45"/><line class="cls-11" x1="196.99" y1="76.45" x2="196.99" y2="199"/><line class="cls-11" x1="199.28" y1="199" x2="199.28" y2="76.45"/><line class="cls-11" x1="258.33" y1="170.77" x2="258.33" y2="168.46"/><line class="cls-11" x1="292.9" y1="170.77" x2="292.9" y2="168.46"/><line class="cls-11" x1="281.38" y1="168.46" x2="281.38" y2="170.77"/><line class="cls-11" x1="258.33" y1="170.77" x2="238.45" y2="170.77"/><line class="cls-11" x1="292.9" y1="170.77" x2="281.38" y2="170.77"/><line class="cls-11" x1="292.9" y1="168.46" x2="281.38" y2="168.46"/><line class="cls-11" x1="258.33" y1="168.46" x2="236.17" y2="168.46"/><polyline class="cls-11" points="236.17 168.46 236.17 198.43 238.45 198.43 238.45 170.77"/><line class="cls-11" x1="300.1" y1="263.67" x2="300.1" y2="270.86"/><line class="cls-11" x1="292.9" y1="270.86" x2="292.9" y2="263.67"/><line class="cls-11" x1="101.32" y1="263.67" x2="292.9" y2="263.67"/><line class="cls-11" x1="101.32" y1="270.86" x2="292.9" y2="270.86"/><line class="cls-11" x1="101.32" y1="263.67" x2="101.32" y2="266.56"/><line class="cls-11" x1="101.32" y1="268.58" x2="101.32" y2="270.86"/><line class="cls-11" x1="7.73" y1="263.67" x2="7.73" y2="270.86"/><line class="cls-11" x1="71.08" y1="270.86" x2="71.08" y2="268.58"/><line class="cls-11" x1="71.08" y1="266.56" x2="71.08" y2="263.67"/><line class="cls-11" x1="7.73" y1="263.67" x2="71.08" y2="263.67"/><line class="cls-11" x1="7.73" y1="270.86" x2="71.08" y2="270.86"/><polyline class="cls-11" points="76.29 253.03 75.71 254 99.19 267.54 99.77 266.56 76.29 253.03"/><polyline class="cls-11" points="100.77 268.58 100.77 266.56 99.77 266.56 99.77 267.69 99.46 267.69 99.46 268.58 100.77 268.58"/><polyline class="cls-11" points="71.66 268.58 72.97 268.58 72.97 267.69 72.66 267.69 72.66 266.56 71.66 266.56 71.66 268.58"/><polyline class="cls-14" points="274.37 43.95 279.95 38.37 296.26 54.65 290.65 60.26"/><polyline class="cls-14" points="290.56 44.04 291.59 45.07 292.69 46.14 293.76 47.24 294.86 48.31 295.92 49.4 296.99 50.47 298.09 51.57 299.15 52.63 300.68 54.16 300.62 54.22 299.09 52.7 298.02 51.63 296.93 50.53 295.86 49.46 294.79 48.37 293.7 47.3 292.63 46.2 291.53 45.13 290.5 44.1 290.56 44.04"/><line class="cls-14" x1="291.53" y1="45.13" x2="291.59" y2="45.07"/><line class="cls-14" x1="292.63" y1="46.2" x2="292.69" y2="46.14"/><line class="cls-14" x1="293.7" y1="47.3" x2="293.76" y2="47.24"/><line class="cls-14" x1="294.79" y1="48.37" x2="294.85" y2="48.31"/><line class="cls-14" x1="295.86" y1="49.46" x2="295.92" y2="49.4"/><line class="cls-14" x1="296.93" y1="50.53" x2="296.99" y2="50.47"/><line class="cls-14" x1="298.03" y1="51.63" x2="298.09" y2="51.57"/><line class="cls-14" x1="299.09" y1="52.7" x2="299.15" y2="52.63"/><polyline class="cls-14" points="280.31 33.91 290.5 44.07 290.43 44.13 280.25 33.98 280.31 33.91"/><polyline class="cls-14" points="292.69 62.3 300.62 54.34 280.25 33.98 272.32 41.93"/><polyline class="cls-14" points="273.64 43.24 280.25 36.63 298 54.34 291.35 60.96"/><line class="cls-14" x1="280.16" y1="36.72" x2="297.87" y2="54.46"/></svg>