<svg id="_55" data-name="55" xmlns="http://www.w3.org/2000/svg" viewBox="0 0 139.86 296.85"><defs><style>.cls-1{isolation:isolate;font-size:6px;fill:#969696;font-family:PTSans-Regular, PT Sans;}.cls-10,.cls-11,.cls-12,.cls-13,.cls-2,.cls-7{fill:none;}.cls-2{stroke:#969696;stroke-width:0.37px;}.cls-10,.cls-11,.cls-12,.cls-13,.cls-2{stroke-linecap:round;stroke-linejoin:round;}.cls-3{font-size:14px;}.cls-3,.cls-8{fill:#231f20;font-family:BigCityGrotesquePro-Regular, BigCity Grotesque Pro;}.cls-4{letter-spacing:-0.02em;}.cls-5{letter-spacing:-0.04em;}.cls-6{letter-spacing:0em;}.cls-10,.cls-12,.cls-7{stroke:#000;}.cls-7{stroke-miterlimit:10;}.cls-11,.cls-12,.cls-7{stroke-width:0.5px;}.cls-8{font-size:18px;}.cls-9{letter-spacing:-0.03em;}.cls-11{stroke:#575d5e;stroke-dasharray:3 3;}.cls-13{stroke:#1d1d1b;stroke-width:0.2px;}</style></defs><title>6floor_55flat</title><text class="cls-1" transform="translate(67.15 5.1)">двор</text><line class="cls-2" x1="61.77" y1="2.11" x2="61.77" y2="6.51"/><polyline class="cls-2" points="63.52 3.86 61.77 2.11 60.02 3.86"/><text class="cls-3" transform="translate(30.98 254.32)">3<tspan class="cls-4" x="7" y="0">.</tspan><tspan x="9.93" y="0">70</tspan></text><text class="cls-3" transform="translate(80.95 199.83)">13<tspan class="cls-5" x="11.93" y="0">.</tspan><tspan class="cls-6" x="14.56" y="0">10</tspan></text><text class="cls-3" transform="translate(20.18 190.26)">5.40</text><rect class="cls-7" x="56.72" y="90.9" width="62.22" height="24.35"/><rect class="cls-7" x="56.72" y="115.25" width="62.22" height="24.35"/><rect class="cls-7" x="56.72" y="139.6" width="62.22" height="24.35"/><text class="cls-8" transform="translate(69.13 108.56)">№55<tspan x="9.24" y="24">C</tspan><tspan class="cls-9" x="19.29" y="24">T</tspan><tspan x="-1.57" y="48">22.20</tspan></text><polyline class="cls-10" points="27.6 201.36 58.1 201.36 58.1 211.18"/><polyline class="cls-10" points="58.1 216.59 58.1 218.28 8.99 218.28"/><line class="cls-10" x1="27.6" y1="203.04" x2="27.6" y2="201.36"/><line class="cls-10" x1="0.5" y1="67.73" x2="0.5" y2="59.27"/><line class="cls-10" x1="0.5" y1="67.73" x2="0.5" y2="67.73"/><line class="cls-10" x1="0.5" y1="59.27" x2="0.5" y2="59.27"/><line class="cls-10" x1="27.6" y1="61.06" x2="27.6" y2="59.27"/><line class="cls-10" x1="8.96" y1="59.27" x2="8.96" y2="67.73"/><line class="cls-10" x1="130.9" y1="67.73" x2="130.9" y2="59.27"/><line class="cls-10" x1="125.81" y1="59.27" x2="125.67" y2="59.27"/><line class="cls-10" x1="88.57" y1="59.27" x2="88.57" y2="61.06"/><line class="cls-10" x1="27.6" y1="67.73" x2="8.96" y2="67.73"/><line class="cls-10" x1="130.9" y1="67.73" x2="88.57" y2="67.73"/><line class="cls-10" x1="27.6" y1="59.27" x2="8.96" y2="59.27"/><polyline class="cls-10" points="139.36 53.68 88.57 53.68 88.57 54"/><line class="cls-10" x1="88.57" y1="54" x2="88.57" y2="54.18"/><line class="cls-10" x1="88.57" y1="54.18" x2="88.57" y2="59.27"/><polyline class="cls-10" points="27.6 53.68 0.5 53.68 0.5 65.4"/><line class="cls-10" x1="0.5" y1="59.27" x2="8.96" y2="59.27"/><line class="cls-10" x1="27.6" y1="59.27" x2="27.6" y2="54.18"/><line class="cls-10" x1="27.6" y1="54.18" x2="27.6" y2="54"/><line class="cls-10" x1="27.6" y1="54" x2="27.6" y2="53.68"/><line class="cls-10" x1="139.36" y1="54" x2="139.36" y2="53.68"/><line class="cls-10" x1="27.6" y1="54" x2="0.5" y2="54"/><line class="cls-10" x1="139.36" y1="54" x2="139.36" y2="54.18"/><line class="cls-10" x1="139.36" y1="54" x2="88.57" y2="54"/><line class="cls-10" x1="88.57" y1="59.27" x2="125.67" y2="59.27"/><line class="cls-10" x1="139.36" y1="54.18" x2="88.57" y2="54.18"/><line class="cls-10" x1="27.6" y1="54.18" x2="0.5" y2="54.18"/><line class="cls-10" x1="27.6" y1="53.68" x2="88.57" y2="53.68"/><line class="cls-10" x1="130.9" y1="59.27" x2="130.9" y2="54.18"/><line class="cls-10" x1="125.81" y1="59.27" x2="130.9" y2="59.27"/><path class="cls-10" d="M139.36,82.52" transform="translate(0 -28.34)"/><path class="cls-10" d="M130.9,82.52" transform="translate(0 -28.34)"/><polyline class="cls-10" points="130.9 296.35 139.36 296.35 139.36 237.09"/><line class="cls-11" x1="54.05" y1="113.29" x2="8.64" y2="113.29"/><line class="cls-11" x1="75.7" y1="212.13" x2="75.7" y2="166.01"/><line class="cls-10" x1="130.9" y1="54.18" x2="139.36" y2="54.18"/><path class="cls-10" d="M139.36,82.52" transform="translate(0 -28.34)"/><line class="cls-12" x1="67.92" y1="52.31" x2="67.92" y2="53.68"/><line class="cls-12" x1="68.57" y1="52.31" x2="68.57" y2="53.68"/><line class="cls-12" x1="48.93" y1="52.31" x2="48.93" y2="53.68"/><line class="cls-12" x1="48.25" y1="52.31" x2="48.25" y2="53.68"/><polyline class="cls-12" points="44.88 38.76 71.97 38.76 71.97 52.31 44.88 52.31 44.88 38.76"/><polyline class="cls-12" points="75.34 53.68 75.34 34.86 41.51 34.86 41.51 53.68"/><polyline class="cls-12" points="43.69 53.68 43.69 37.08 73.16 37.08 73.16 53.68"/><line class="cls-12" x1="43.69" y1="37.26" x2="73.16" y2="37.26"/><polyline class="cls-10" points="27.6 61.06 27.6 69.09 88.57 69.09 88.57 61.06"/><line class="cls-13" x1="85.52" y1="58.55" x2="48.93" y2="58.55"/><line class="cls-13" x1="48.93" y1="59.09" x2="85.52" y2="59.09"/><polyline class="cls-13" points="85.52 58.55 85.52 59.09 86.03 59.09 86.03 58.55 85.52 58.55"/><polyline class="cls-13" points="48.93 59.09 48.93 58.55 48.42 58.55 48.42 59.09 48.93 59.09"/><line class="cls-13" x1="45.77" y1="59.09" x2="31.79" y2="59.09"/><line class="cls-13" x1="31.79" y1="59.63" x2="45.77" y2="59.63"/><polyline class="cls-13" points="45.77 59.09 45.77 59.63 46.27 59.63 46.27 59.09 45.77 59.09"/><polyline class="cls-13" points="31.79 59.63 31.79 59.09 31.29 59.09 31.29 59.63 31.79 59.63"/><polyline class="cls-13" points="87.71 57.73 85.34 57.73 85.34 58.41 86.03 58.41 86.03 58.55"/><polyline class="cls-13" points="86.03 59.09 86.03 59.23 85.34 59.23 85.34 60.38 87.71 60.38 87.71 57.73"/><polyline class="cls-13" points="49.11 60.38 49.11 59.23 48.42 59.23 48.42 59.09"/><polyline class="cls-13" points="48.42 58.55 48.42 58.41 49.11 58.41 49.11 57.73 46.74 57.73 46.74 58.23 47.42 58.23 47.42 60.38 49.11 60.38"/><polyline class="cls-13" points="28.46 57.73 28.46 60.38 30.14 60.38 30.14 58.23 30.82 58.23 30.82 57.73 28.46 57.73"/><line class="cls-13" x1="46.74" y1="57.73" x2="30.82" y2="57.73"/><line class="cls-13" x1="85.35" y1="60.38" x2="49.11" y2="60.38"/><line class="cls-13" x1="30.14" y1="60.38" x2="30.29" y2="60.38"/><line class="cls-13" x1="47.28" y1="60.38" x2="47.42" y2="60.38"/><line class="cls-13" x1="30.82" y1="58.23" x2="46.74" y2="58.23"/><line class="cls-13" x1="85.35" y1="58.41" x2="49.11" y2="58.41"/><line class="cls-13" x1="49.11" y1="57.73" x2="85.35" y2="57.73"/><line class="cls-13" x1="49.11" y1="59.23" x2="85.35" y2="59.23"/><line class="cls-13" x1="31.29" y1="59.77" x2="31.29" y2="59.63"/><polyline class="cls-13" points="31.29 59.09 31.29 58.95 31.97 58.95 31.97 58.26 30.29 58.26 30.29 60.45 29.61 60.45 29.61 60.92 31.97 60.92 31.97 59.77 31.29 59.77"/><line class="cls-13" x1="46.27" y1="58.95" x2="46.27" y2="59.09"/><polyline class="cls-13" points="46.27 59.63 46.27 59.77 45.59 59.77 45.59 60.92 47.96 60.92 47.96 60.45 47.28 60.45 47.28 58.26 45.59 58.26 45.59 58.95 46.27 58.95"/><line class="cls-13" x1="31.97" y1="58.95" x2="45.59" y2="58.95"/><line class="cls-13" x1="45.59" y1="59.77" x2="31.97" y2="59.77"/><line class="cls-13" x1="31.97" y1="60.92" x2="45.59" y2="60.92"/><line class="cls-13" x1="45.59" y1="58.26" x2="31.97" y2="58.26"/><line class="cls-10" x1="0.5" y1="60.2" x2="1.47" y2="59.27"/><line class="cls-10" x1="0.5" y1="67.94" x2="8.96" y2="59.45"/><line class="cls-10" x1="0.5" y1="75.65" x2="8.96" y2="67.19"/><line class="cls-10" x1="0.5" y1="83.39" x2="8.96" y2="74.93"/><line class="cls-10" x1="0.5" y1="91.1" x2="8.96" y2="82.64"/><line class="cls-10" x1="0.5" y1="98.84" x2="8.96" y2="90.38"/><line class="cls-10" x1="0.5" y1="106.55" x2="8.96" y2="98.09"/><line class="cls-10" x1="0.5" y1="114.29" x2="8.96" y2="105.83"/><line class="cls-10" x1="0.5" y1="122" x2="8.96" y2="113.54"/><line class="cls-10" x1="0.5" y1="129.74" x2="8.96" y2="121.28"/><line class="cls-10" x1="0.5" y1="137.45" x2="8.96" y2="128.99"/><line class="cls-10" x1="0.5" y1="145.19" x2="8.96" y2="136.73"/><line class="cls-10" x1="0.5" y1="152.93" x2="8.96" y2="144.44"/><line class="cls-10" x1="0.5" y1="160.64" x2="8.96" y2="152.18"/><line class="cls-10" x1="0.5" y1="168.38" x2="8.96" y2="159.88"/><line class="cls-10" x1="0.5" y1="176.09" x2="8.96" y2="167.63"/><line class="cls-10" x1="0.5" y1="183.83" x2="8.96" y2="175.33"/><line class="cls-10" x1="0.5" y1="191.54" x2="8.96" y2="183.08"/><line class="cls-10" x1="0.5" y1="199.28" x2="8.96" y2="190.78"/><line class="cls-10" x1="0.5" y1="206.98" x2="8.96" y2="198.53"/><line class="cls-10" x1="0.5" y1="214.73" x2="8.96" y2="206.27"/><line class="cls-10" x1="0.5" y1="222.43" x2="8.96" y2="213.97"/><line class="cls-10" x1="0.5" y1="230.18" x2="8.96" y2="221.72"/><line class="cls-10" x1="0.5" y1="237.88" x2="8.96" y2="229.42"/><line class="cls-10" x1="0.5" y1="245.63" x2="8.96" y2="237.17"/><line class="cls-10" x1="0.5" y1="253.33" x2="8.96" y2="244.87"/><line class="cls-10" x1="0.5" y1="261.08" x2="8.96" y2="252.62"/><line class="cls-10" x1="0.5" y1="268.78" x2="8.96" y2="260.32"/><line class="cls-10" x1="0.5" y1="276.52" x2="8.96" y2="268.06"/><line class="cls-10" x1="0.5" y1="284.23" x2="8.96" y2="275.77"/><line class="cls-10" x1="0.5" y1="291.97" x2="8.96" y2="283.51"/><line class="cls-10" x1="3.87" y1="296.35" x2="8.96" y2="291.22"/><line class="cls-10" x1="0.5" y1="64.07" x2="4.8" y2="59.77"/><line class="cls-10" x1="0.5" y1="71.78" x2="1.9" y2="70.42"/><line class="cls-10" x1="2.87" y1="69.45" x2="2.94" y2="69.38"/><line class="cls-10" x1="3.83" y1="68.48" x2="8.64" y2="63.64"/><line class="cls-10" x1="0.93" y1="79.09" x2="5.77" y2="74.29"/><line class="cls-10" x1="6.74" y1="73.32" x2="6.81" y2="73.21"/><line class="cls-10" x1="7.7" y1="72.35" x2="8.96" y2="71.06"/><line class="cls-10" x1="0.5" y1="87.26" x2="2.87" y2="84.9"/><line class="cls-10" x1="3.83" y1="83.93" x2="3.91" y2="83.86"/><line class="cls-10" x1="4.8" y1="82.96" x2="8.96" y2="78.77"/><line class="cls-10" x1="0.93" y1="94.54" x2="1" y2="94.47"/><line class="cls-10" x1="1.9" y1="93.57" x2="6.74" y2="88.77"/><line class="cls-10" x1="7.7" y1="87.8" x2="7.78" y2="87.69"/><line class="cls-10" x1="8.64" y1="86.83" x2="8.96" y2="86.51"/><line class="cls-10" x1="0.5" y1="102.71" x2="3.83" y2="99.38"/><line class="cls-10" x1="4.8" y1="98.41" x2="4.87" y2="98.34"/><line class="cls-10" x1="5.77" y1="97.44" x2="8.96" y2="94.22"/><line class="cls-10" x1="0.5" y1="110.42" x2="0.93" y2="109.99"/><line class="cls-10" x1="1.9" y1="109.02" x2="1.97" y2="108.95"/><line class="cls-10" x1="2.87" y1="108.09" x2="7.7" y2="103.25"/><line class="cls-10" x1="8.64" y1="102.28" x2="8.74" y2="102.21"/><line class="cls-10" x1="0.5" y1="118.16" x2="4.8" y2="113.86"/><line class="cls-10" x1="5.77" y1="112.89" x2="5.84" y2="112.82"/><line class="cls-10" x1="6.74" y1="111.92" x2="8.96" y2="109.67"/><line class="cls-10" x1="0.5" y1="125.87" x2="1.9" y2="124.51"/><line class="cls-10" x1="2.87" y1="123.54" x2="2.94" y2="123.43"/><line class="cls-10" x1="3.83" y1="122.57" x2="8.64" y2="117.73"/><line class="cls-10" x1="0.93" y1="133.18" x2="5.77" y2="128.34"/><line class="cls-10" x1="6.74" y1="127.37" x2="6.81" y2="127.3"/><line class="cls-10" x1="7.67" y1="126.41" x2="8.96" y2="125.11"/><line class="cls-10" x1="0.5" y1="141.32" x2="2.87" y2="138.99"/><line class="cls-10" x1="3.83" y1="138.02" x2="3.91" y2="137.91"/><line class="cls-10" x1="4.8" y1="137.05" x2="8.96" y2="132.86"/><line class="cls-10" x1="0.93" y1="148.63" x2="1" y2="148.56"/><line class="cls-10" x1="1.9" y1="147.66" x2="6.74" y2="142.82"/><line class="cls-10" x1="7.67" y1="141.85" x2="7.78" y2="141.78"/><line class="cls-10" x1="8.64" y1="140.92" x2="8.96" y2="140.6"/><line class="cls-10" x1="0.5" y1="156.77" x2="3.83" y2="153.47"/><line class="cls-10" x1="4.8" y1="152.5" x2="4.87" y2="152.43"/><line class="cls-10" x1="5.77" y1="151.53" x2="8.96" y2="148.31"/><line class="cls-10" x1="0.5" y1="164.51" x2="0.93" y2="164.08"/><line class="cls-10" x1="1.9" y1="163.11" x2="1.97" y2="163.04"/><line class="cls-10" x1="2.87" y1="162.14" x2="7.67" y2="157.34"/><line class="cls-10" x1="8.64" y1="156.37" x2="8.74" y2="156.26"/><line class="cls-10" x1="0.5" y1="172.22" x2="4.8" y2="167.95"/><line class="cls-10" x1="5.77" y1="166.98" x2="5.84" y2="166.91"/><line class="cls-10" x1="6.74" y1="166.01" x2="8.96" y2="163.76"/><line class="cls-10" x1="0.5" y1="179.96" x2="1.9" y2="178.56"/><line class="cls-10" x1="2.87" y1="177.59" x2="2.94" y2="177.52"/><line class="cls-10" x1="3.83" y1="176.62" x2="8.64" y2="171.82"/><line class="cls-10" x1="0.93" y1="187.27" x2="5.77" y2="182.43"/><line class="cls-10" x1="6.74" y1="181.46" x2="6.81" y2="181.39"/><line class="cls-10" x1="7.67" y1="180.5" x2="8.96" y2="179.21"/><line class="cls-10" x1="0.5" y1="195.41" x2="2.87" y2="193.04"/><line class="cls-10" x1="3.83" y1="192.07" x2="3.91" y2="192"/><line class="cls-10" x1="4.8" y1="191.11" x2="8.96" y2="186.95"/><line class="cls-10" x1="0.93" y1="202.72" x2="1" y2="202.65"/><line class="cls-10" x1="1.9" y1="201.75" x2="6.74" y2="196.91"/><line class="cls-10" x1="7.67" y1="195.94" x2="7.78" y2="195.87"/><line class="cls-10" x1="8.64" y1="194.98" x2="8.96" y2="194.65"/><line class="cls-10" x1="0.5" y1="210.86" x2="3.83" y2="207.52"/><line class="cls-10" x1="4.8" y1="206.59" x2="4.87" y2="206.48"/><line class="cls-10" x1="5.77" y1="205.62" x2="8.96" y2="202.4"/><line class="cls-10" x1="0.5" y1="218.6" x2="0.93" y2="218.17"/><line class="cls-10" x1="1.9" y1="217.2" x2="1.97" y2="217.13"/><line class="cls-10" x1="2.87" y1="216.23" x2="7.67" y2="211.39"/><line class="cls-10" x1="8.64" y1="210.43" x2="8.74" y2="210.35"/><line class="cls-10" x1="0.5" y1="226.31" x2="4.8" y2="222.04"/><line class="cls-10" x1="5.77" y1="221.07" x2="5.84" y2="220.96"/><line class="cls-10" x1="6.74" y1="220.1" x2="8.96" y2="217.85"/><line class="cls-10" x1="0.5" y1="234.05" x2="1.9" y2="232.65"/><line class="cls-10" x1="2.87" y1="231.68" x2="2.94" y2="231.61"/><line class="cls-10" x1="3.83" y1="230.71" x2="8.64" y2="225.88"/><line class="cls-10" x1="0.93" y1="241.32" x2="5.77" y2="236.52"/><line class="cls-10" x1="6.74" y1="235.55" x2="6.81" y2="235.48"/><line class="cls-10" x1="7.67" y1="234.59" x2="8.96" y2="233.3"/><line class="cls-10" x1="0.5" y1="249.5" x2="2.87" y2="247.13"/><line class="cls-10" x1="3.83" y1="246.16" x2="3.91" y2="246.09"/><line class="cls-10" x1="4.8" y1="245.2" x2="8.96" y2="241"/><line class="cls-10" x1="0.93" y1="256.77" x2="1" y2="256.7"/><line class="cls-10" x1="1.9" y1="255.84" x2="6.74" y2="251"/><line class="cls-10" x1="7.67" y1="250.03" x2="7.78" y2="249.96"/><line class="cls-10" x1="8.64" y1="249.07" x2="8.96" y2="248.74"/><line class="cls-10" x1="0.5" y1="264.95" x2="3.83" y2="261.61"/><line class="cls-10" x1="4.8" y1="260.64" x2="4.87" y2="260.57"/><line class="cls-10" x1="5.77" y1="259.68" x2="8.96" y2="256.45"/><line class="cls-10" x1="0.5" y1="272.65" x2="0.93" y2="272.26"/><line class="cls-10" x1="1.9" y1="271.29" x2="1.97" y2="271.18"/><line class="cls-10" x1="2.87" y1="270.32" x2="7.67" y2="265.48"/><line class="cls-10" x1="8.64" y1="264.52" x2="8.74" y2="264.44"/><line class="cls-10" x1="0.5" y1="280.4" x2="4.8" y2="276.09"/><line class="cls-10" x1="5.77" y1="275.13" x2="5.84" y2="275.05"/><line class="cls-10" x1="6.74" y1="274.16" x2="8.96" y2="271.94"/><line class="cls-10" x1="0.5" y1="288.1" x2="1.9" y2="286.74"/><line class="cls-10" x1="2.87" y1="285.77" x2="2.94" y2="285.66"/><line class="cls-10" x1="3.83" y1="284.8" x2="8.64" y2="279.97"/><line class="cls-10" x1="0.93" y1="295.41" x2="5.77" y2="290.58"/><line class="cls-10" x1="6.74" y1="289.61" x2="6.81" y2="289.54"/><line class="cls-10" x1="7.67" y1="288.68" x2="8.96" y2="287.39"/><line class="cls-10" x1="7.7" y1="296.35" x2="8.96" y2="295.09"/><polyline class="cls-10" points="0.5 59.27 0.5 207.77 0.5 218.28 0.5 296.35 8.96 296.35 8.96 59.27 0.5 59.27"/><line class="cls-10" x1="139.36" y1="250.03" x2="139.36" y2="54.18"/><line class="cls-10" x1="130.9" y1="54.18" x2="130.9" y2="296.35"/><line class="cls-10" x1="139.36" y1="84.65" x2="139.36" y2="186.27"/><polyline class="cls-10" points="29.28 216.59 29.28 210.96 29.28 208.13 29.28 210.96 29.28 216.59 29.28 210.96 29.28 208.13 29.28 210.96 29.28 216.59 29.28 210.96 29.28 208.13 29.28 210.96 29.28 216.59 29.28 210.96 29.28 208.13 29.28 210.96 29.28 216.59 29.28 210.96 29.28 208.13 29.28 210.96 29.28 216.59 29.28 210.96 29.28 208.13 29.28 210.96 29.28 216.59 29.28 210.96 29.28 208.13 29.28 210.96 29.28 216.59 29.28 210.96 29.28 208.13 29.28 210.96 29.28 216.59 29.28 210.96 29.28 208.13 29.28 210.96 29.28 216.59"/><line class="cls-10" x1="130.9" y1="214.55" x2="130.9" y2="211.86"/><line class="cls-10" x1="111.26" y1="211.86" x2="111.26" y2="214.55"/><line class="cls-10" x1="130.9" y1="214.55" x2="111.26" y2="214.55"/><line class="cls-10" x1="130.9" y1="211.86" x2="111.26" y2="211.86"/><line class="cls-10" x1="75.7" y1="261.79" x2="71.62" y2="261.79"/><line class="cls-10" x1="71.62" y1="234.69" x2="75.7" y2="234.69"/><line class="cls-10" x1="75.7" y1="261.79" x2="75.7" y2="287.89"/><line class="cls-10" x1="75.7" y1="211.86" x2="75.7" y2="234.69"/><line class="cls-10" x1="71.62" y1="261.79" x2="71.62" y2="287.89"/><line class="cls-10" x1="71.62" y1="215.91" x2="71.62" y2="234.69"/><line class="cls-10" x1="8.96" y1="203.72" x2="8.96" y2="207.77"/><polyline class="cls-10" points="8.99 207.77 29.28 207.77 29.28 203.72"/><line class="cls-10" x1="8.96" y1="203.72" x2="29.28" y2="203.72"/><line class="cls-10" x1="54.7" y1="211.86" x2="54.7" y2="215.91"/><line class="cls-10" x1="54.7" y1="211.86" x2="75.7" y2="211.86"/><line class="cls-10" x1="54.7" y1="215.91" x2="71.62" y2="215.91"/><line class="cls-10" x1="82.48" y1="296.35" x2="82.48" y2="293.62"/><line class="cls-10" x1="82.48" y1="291.26" x2="82.48" y2="287.89"/><line class="cls-10" x1="8.96" y1="287.89" x2="8.96" y2="296.35"/><line class="cls-10" x1="130.9" y1="296.35" x2="130.9" y2="287.89"/><line class="cls-10" x1="118.04" y1="287.89" x2="118.04" y2="291.26"/><line class="cls-10" x1="118.04" y1="293.62" x2="118.04" y2="296.35"/><line class="cls-10" x1="82.48" y1="296.35" x2="8.96" y2="296.35"/><line class="cls-10" x1="130.9" y1="296.35" x2="118.04" y2="296.35"/><line class="cls-10" x1="82.48" y1="287.89" x2="8.96" y2="287.89"/><line class="cls-10" x1="130.9" y1="287.89" x2="118.04" y2="287.89"/><line class="cls-10" x1="139.36" y1="292.3" x2="139.36" y2="296.35"/><line class="cls-10" x1="0.5" y1="296.35" x2="0.5" y2="287.89"/><polyline class="cls-10" points="112.59 276.52 85.02 292.44 84.34 291.26 111.91 275.34 112.59 276.52"/><polyline class="cls-10" points="83.16 291.26 84.34 291.26 84.34 292.62 84.66 292.62 84.66 293.62 83.16 293.62 83.16 291.26"/><polyline class="cls-10" points="115.85 293.62 115.85 292.62 116.17 292.62 116.17 291.26 117.36 291.26 117.36 293.62 115.85 293.62"/><polyline class="cls-10" points="29.28 216.59 29.28 210.96 29.28 208.13 29.28 210.96 29.28 216.59 29.28 210.96 29.28 208.13 29.28 210.96 29.28 216.59 29.28 210.96 29.28 208.13 29.28 210.96 29.28 216.59"/><path class="cls-10" d="M32.17,243l.17.06" transform="translate(0 -28.34)"/><path class="cls-10" d="M31.13,241.88l.06.16" transform="translate(0 -28.34)"/><path class="cls-10" d="M31.19,234.24l-.06.16" transform="translate(0 -28.34)"/><path class="cls-10" d="M32.34,233.19l-.17.07" transform="translate(0 -28.34)"/><path class="cls-10" d="M53.53,233.26l-.16-.07" transform="translate(0 -28.34)"/><path class="cls-10" d="M54.58,234.4l-.07-.16" transform="translate(0 -28.34)"/><path class="cls-10" d="M54.51,242s.05-.1.07-.16" transform="translate(0 -28.34)"/><path class="cls-10" d="M53.37,243.09l.16-.06" transform="translate(0 -28.34)"/><line class="cls-10" x1="29.28" y1="209.1" x2="31" y2="207.42"/><line class="cls-10" x1="33.66" y1="204.73" x2="35.38" y2="203.04"/><line class="cls-10" x1="29.53" y1="216.59" x2="31.72" y2="214.4"/><line class="cls-10" x1="41.4" y1="204.73" x2="43.08" y2="203.04"/><line class="cls-10" x1="34.73" y1="211.43" x2="36.42" y2="209.71"/><line class="cls-10" x1="37.28" y1="216.59" x2="38.96" y2="214.91"/><line class="cls-10" x1="48.93" y1="204.91" x2="50.83" y2="203.04"/><line class="cls-10" x1="44.98" y1="216.59" x2="46.67" y2="214.91"/><line class="cls-10" x1="54.7" y1="206.88" x2="56.38" y2="205.19"/><line class="cls-10" x1="49.29" y1="212.29" x2="50.97" y2="210.61"/><line class="cls-10" x1="52.73" y1="216.59" x2="56.38" y2="212.9"/><line class="cls-10" x1="29.89" y1="204.65" x2="29.96" y2="204.55"/><line class="cls-10" x1="30.86" y1="203.69" x2="31.51" y2="203.04"/><line class="cls-10" x1="29.28" y1="212.97" x2="31" y2="211.29"/><line class="cls-10" x1="37.53" y1="204.73" x2="39.21" y2="203.04"/><line class="cls-10" x1="34.73" y1="207.52" x2="36.42" y2="205.87"/><line class="cls-10" x1="33.41" y1="216.59" x2="36.42" y2="213.58"/><line class="cls-10" x1="45.34" y1="204.65" x2="46.96" y2="203.04"/><line class="cls-10" x1="41.47" y1="216.23" x2="41.58" y2="216.16"/><line class="cls-10" x1="42.44" y1="215.27" x2="42.83" y2="214.91"/><line class="cls-10" x1="52.94" y1="204.8" x2="54.05" y2="203.69"/><line class="cls-10" x1="49.29" y1="208.42" x2="50.97" y2="206.73"/><line class="cls-10" x1="48.85" y1="216.59" x2="51.08" y2="214.37"/><line class="cls-10" x1="54.7" y1="210.75" x2="56.38" y2="209.06"/><polyline class="cls-10" points="56.38 203.04 43.23 203.04 29.28 203.04 29.28 207.77 29.28 210.96 29.28 216.59 56.38 216.59 56.38 203.04"/><line class="cls-10" x1="49.29" y1="205.59" x2="49.29" y2="214.05"/><path class="cls-10" d="M48.44,243.21a.84.84,0,0,0,.85-.84" transform="translate(0 -28.34)"/><line class="cls-10" x1="48.42" y1="214.91" x2="37.24" y2="214.91"/><path class="cls-10" d="M36.42,242.37a.83.83,0,0,0,.84.84" transform="translate(0 -28.34)"/><line class="cls-10" x1="36.42" y1="214.05" x2="36.42" y2="205.59"/><path class="cls-10" d="M37.26,233.07a.84.84,0,0,0-.84.84" transform="translate(0 -28.34)"/><line class="cls-10" x1="37.24" y1="204.73" x2="48.42" y2="204.73"/><path class="cls-10" d="M49.29,233.91a.85.85,0,0,0-.85-.84" transform="translate(0 -28.34)"/><line class="cls-10" x1="34.73" y1="205.59" x2="34.73" y2="214.05"/><path class="cls-10" d="M33.89,243.21a.84.84,0,0,0,.84-.84" transform="translate(0 -28.34)"/><line class="cls-10" x1="33.87" y1="214.91" x2="33.01" y2="214.91"/><path class="cls-10" d="M31,241.19a2,2,0,0,0,2,2" transform="translate(0 -28.34)"/><line class="cls-10" x1="31" y1="212.86" x2="31" y2="206.77"/><path class="cls-10" d="M33,233.07a2,2,0,0,0-2,2" transform="translate(0 -28.34)"/><line class="cls-10" x1="33.01" y1="204.73" x2="33.87" y2="204.73"/><path class="cls-10" d="M34.73,233.91a.85.85,0,0,0-.84-.84" transform="translate(0 -28.34)"/><line class="cls-10" x1="54.7" y1="206.77" x2="54.7" y2="212.86"/><path class="cls-10" d="M52.67,243.21a2,2,0,0,0,2-2" transform="translate(0 -28.34)"/><line class="cls-10" x1="52.65" y1="214.91" x2="51.83" y2="214.91"/><path class="cls-10" d="M51,242.37a.83.83,0,0,0,.84.84" transform="translate(0 -28.34)"/><line class="cls-10" x1="50.97" y1="214.05" x2="50.97" y2="205.59"/><path class="cls-10" d="M51.85,233.07a.84.84,0,0,0-.84.84" transform="translate(0 -28.34)"/><line class="cls-10" x1="51.83" y1="204.73" x2="52.65" y2="204.73"/><path class="cls-10" d="M54.7,235.1a2,2,0,0,0-2-2" transform="translate(0 -28.34)"/></svg>