<svg id="_541" data-name="541" xmlns="http://www.w3.org/2000/svg" viewBox="0 0 246.86 396.21"><defs><style>.cls-1{font-size:8px;}.cls-1,.cls-4{fill:#808184;}.cls-1,.cls-6{font-family:BigCityGrotesquePro-Regular, BigCity Grotesque Pro;}.cls-2{letter-spacing:-0.03em;}.cls-3,.cls-5,.cls-8{fill:none;}.cls-3{stroke:#808184;}.cls-3,.cls-5{stroke-linecap:round;stroke-linejoin:round;}.cls-3,.cls-8{stroke-width:0.75px;}.cls-5,.cls-8{stroke:#000;}.cls-5{stroke-width:0.5px;}.cls-6{font-size:14.72px;fill:#231f20;}.cls-7{letter-spacing:-0.04em;}.cls-8{stroke-miterlimit:10;}.cls-9{letter-spacing:-0.01em;}.cls-10{letter-spacing:-0.02em;}</style></defs><title>2floor_541flat</title><text class="cls-1" transform="translate(115.72 6.86)"><tspan class="cls-2">у</tspan><tspan x="3.72" y="0">лица</tspan></text><line class="cls-3" x1="110.3" y1="1.1" x2="110.3" y2="8.13"/><path class="cls-4" d="M107.42,28a.3.3,0,0,0,.41-.09L110.3,24l2.47,3.87a.3.3,0,1,0,.51-.32l-2.72-4.27a.3.3,0,0,0-.51,0l-2.72,4.27a.3.3,0,0,0,.09.41Z" transform="translate(0 -22.79)"/><path d="M121.12,292.24l7.94-59.67v59.67Zm0-59.67v59.67l7.94-59.67Z" transform="translate(0 -22.79)"/><path class="cls-5" d="M121.12,292.24l7.94-59.67v59.67Zm0-59.67v59.67l7.94-59.67Z" transform="translate(0 -22.79)"/><path d="M121.12,153.18l7.94-47.38v47.38Zm0-47.38v47.38l7.94-47.38Z" transform="translate(0 -22.79)"/><path class="cls-5" d="M121.12,153.18l7.94-47.38v47.38Zm0-47.38v47.38l7.94-47.38Z" transform="translate(0 -22.79)"/><line class="cls-5" x1="77.85" y1="387.5" x2="10.24" y2="387.5"/><line class="cls-5" x1="10.24" y1="388.27" x2="69.65" y2="388.27"/><line class="cls-5" x1="237.39" y1="321.94" x2="216.65" y2="358.05"/><polyline class="cls-5" points="129.06 269.44 129.06 209.78 126.76 209.78 123.69 209.78 121.12 209.78 121.12 269.44 129.06 269.44"/><polyline class="cls-5" points="121.12 83.01 121.12 92.74 121.12 93.51 121.12 130.39 129.06 130.39 129.06 93.51 129.06 92.74 129.06 83.01 121.12 83.01"/><path class="cls-5" d="M18.94,395.31a.9.9,0,1,0-1.79,0" transform="translate(0 -22.79)"/><path class="cls-5" d="M17.15,395.31a.9.9,0,0,0,1.79,0" transform="translate(0 -22.79)"/><path class="cls-5" d="M18.3,383.4a5,5,0,0,0-5,5" transform="translate(0 -22.79)"/><path class="cls-5" d="M13.31,402.48a5,5,0,0,0,5,5" transform="translate(0 -22.79)"/><path class="cls-5" d="M74.52,388.4a5,5,0,0,0-5-5" transform="translate(0 -22.79)"/><path class="cls-5" d="M69.52,407.48a5,5,0,0,0,5-5" transform="translate(0 -22.79)"/><line class="cls-5" x1="74.52" y1="379.56" x2="74.52" y2="365.48"/><line class="cls-5" x1="69.39" y1="360.36" x2="18.18" y2="360.36"/><line class="cls-5" x1="13.05" y1="365.48" x2="13.05" y2="379.56"/><line class="cls-5" x1="18.18" y1="384.43" x2="69.39" y2="384.43"/><polyline class="cls-5" points="77.59 387.5 77.59 357.28 10.24 357.28"/><line class="cls-5" x1="13.57" y1="335.26" x2="13.57" y2="342.69"/><path class="cls-5" d="M13.6,358a1.92,1.92,0,0,0,1.89,1.56" transform="translate(0 -22.79)"/><polyline class="cls-5" points="15.36 335.26 15.36 334.49 13.05 334.49 13.05 335.26 15.36 335.26"/><path class="cls-5" d="M11,367.65a.9.9,0,0,0,.9.9" transform="translate(0 -22.79)"/><path class="cls-5" d="M13.18,354.72a.9.9,0,0,0,0-1.79" transform="translate(0 -22.79)"/><path class="cls-5" d="M11.9,346.78a.9.9,0,0,0-.9.9" transform="translate(0 -22.79)"/><line class="cls-5" x1="10.75" y1="324.76" x2="10.75" y2="344.73"/><path class="cls-5" d="M13.18,352.93a.9.9,0,0,0,0,1.79" transform="translate(0 -22.79)"/><path class="cls-5" d="M13.18,362.66a.9.9,0,0,0,0-1.79" transform="translate(0 -22.79)"/><path class="cls-5" d="M13.18,360.87a.9.9,0,0,0,0,1.79" transform="translate(0 -22.79)"/><path class="cls-5" d="M15.49,355.75a1.92,1.92,0,0,0-1.89,1.56" transform="translate(0 -22.79)"/><path class="cls-5" d="M15.49,359.59a1.92,1.92,0,1,0,0-3.84" transform="translate(0 -22.79)"/><path class="cls-5" d="M13.82,365.61a1.92,1.92,0,0,0,1.92,1.92" transform="translate(0 -22.79)"/><line class="cls-5" x1="13.57" y1="326.81" x2="13.57" y2="334.49"/><path class="cls-5" d="M15.74,347.81a1.92,1.92,0,0,0-1.92,1.92" transform="translate(0 -22.79)"/><line class="cls-5" x1="15.87" y1="325.02" x2="15.62" y2="325.02"/><path class="cls-5" d="M23.81,355.87A7.81,7.81,0,0,0,16,348.06" transform="translate(0 -22.79)"/><line class="cls-5" x1="23.81" y1="336.54" x2="23.81" y2="332.95"/><line class="cls-5" x1="15.62" y1="344.48" x2="15.87" y2="344.48"/><path class="cls-5" d="M15.23,368.81a9.86,9.86,0,0,0,9.86-9.86" transform="translate(0 -22.79)"/><line class="cls-5" x1="11.77" y1="345.76" x2="15.1" y2="345.76"/><path class="cls-5" d="M16,367.27a7.81,7.81,0,0,0,7.81-7.81" transform="translate(0 -22.79)"/><line class="cls-5" x1="25.09" y1="336.03" x2="25.09" y2="333.47"/><path class="cls-5" d="M25.09,356.39a9.86,9.86,0,0,0-9.86-9.86" transform="translate(0 -22.79)"/><line class="cls-5" x1="15.1" y1="323.73" x2="11.77" y2="323.73"/><line class="cls-5" x1="14.59" y1="247.42" x2="28.68" y2="247.42"/><path class="cls-5" d="M23.68,282a1.41,1.41,0,1,0,1.41,1.41A1.41,1.41,0,0,0,23.68,282" transform="translate(0 -22.79)"/><path class="cls-5" d="M23.43,282.5a.9.9,0,1,0,.9.9.9.9,0,0,0-.9-.9" transform="translate(0 -22.79)"/><path class="cls-5" d="M33.16,282.5a.9.9,0,1,0,.9.9.9.9,0,0,0-.9-.9" transform="translate(0 -22.79)"/><path class="cls-5" d="M33.16,282a1.41,1.41,0,1,0,1.41,1.41A1.41,1.41,0,0,0,33.16,282" transform="translate(0 -22.79)"/><path class="cls-5" d="M28.55,285.83a.64.64,0,1,0,.64.64.64.64,0,0,0-.64-.64" transform="translate(0 -22.79)"/><path class="cls-5" d="M32.64,286.88a1.92,1.92,0,0,0,1.11.49" transform="translate(0 -22.79)"/><line class="cls-5" x1="29.7" y1="261.25" x2="32.52" y2="263.81"/><path class="cls-5" d="M29.19,282.89a1.66,1.66,0,0,0,.48,1.17" transform="translate(0 -22.79)"/><line class="cls-5" x1="29.19" y1="249.72" x2="29.19" y2="259.97"/><path class="cls-5" d="M30.85,271a1.66,1.66,0,0,0-1.66,1.66" transform="translate(0 -22.79)"/><line class="cls-5" x1="44.55" y1="248.19" x2="30.72" y2="248.19"/><path class="cls-5" d="M46.35,272.39A1.41,1.41,0,0,0,44.8,271" transform="translate(0 -22.79)"/><line class="cls-5" x1="46.09" y1="262.79" x2="46.09" y2="249.47"/><path class="cls-5" d="M44.68,287.37a1.66,1.66,0,0,0,1.66-1.67" transform="translate(0 -22.79)"/><line class="cls-5" x1="33.54" y1="264.32" x2="44.55" y2="264.32"/><path class="cls-5" d="M21.15,275.32a1.41,1.41,0,0,0,1.63-1.39" transform="translate(0 -22.79)"/><path class="cls-5" d="M17.79,271a1.66,1.66,0,0,0-1.66,1.66" transform="translate(0 -22.79)"/><line class="cls-5" x1="21.25" y1="248.19" x2="17.66" y2="248.19"/><path class="cls-5" d="M22.79,272.39A1.41,1.41,0,0,0,21.18,271" transform="translate(0 -22.79)"/><line class="cls-5" x1="22.79" y1="251.01" x2="22.79" y2="249.47"/><path class="cls-5" d="M16.13,271.88a1.66,1.66,0,0,0-1.41-1.64" transform="translate(0 -22.79)"/><polyline class="cls-5" points="15.87 250.75 15.87 249.98 15.87 248.96"/><path class="cls-5" d="M16.13,273.67a1.66,1.66,0,0,0,1.66,1.66" transform="translate(0 -22.79)"/><path class="cls-5" d="M28.85,270.28a1.66,1.66,0,0,0-1.2,1.6" transform="translate(0 -22.79)"/><line class="cls-5" x1="27.4" y1="250.75" x2="27.4" y2="248.96"/><path class="cls-5" d="M26,275.59a1.66,1.66,0,0,0,1.66-1.67" transform="translate(0 -22.79)"/><line class="cls-5" x1="17.66" y1="252.54" x2="25.86" y2="252.54"/><line class="cls-5" x1="11.77" y1="248.44" x2="15.1" y2="248.44"/><line class="cls-5" x1="11.77" y1="249.98" x2="15.1" y2="249.98"/><line class="cls-5" x1="11.77" y1="251.77" x2="15.1" y2="251.77"/><line class="cls-5" x1="11.77" y1="253.31" x2="15.1" y2="253.31"/><line class="cls-5" x1="11.77" y1="254.85" x2="15.1" y2="254.85"/><line class="cls-5" x1="11.77" y1="256.38" x2="15.1" y2="256.38"/><line class="cls-5" x1="11.77" y1="257.92" x2="15.1" y2="257.92"/><line class="cls-5" x1="11.77" y1="259.46" x2="15.1" y2="259.46"/><line class="cls-5" x1="11.77" y1="261.25" x2="15.1" y2="261.25"/><line class="cls-5" x1="11.77" y1="262.79" x2="15.1" y2="262.79"/><line class="cls-5" x1="11.77" y1="264.32" x2="15.1" y2="264.32"/><path class="cls-5" d="M16.13,286a1.41,1.41,0,0,0,1.59,1.4" transform="translate(0 -22.79)"/><line class="cls-5" x1="15.87" y1="254.85" x2="15.87" y2="263.04"/><path class="cls-5" d="M17.79,276.1a1.66,1.66,0,0,0-1.66,1.66" transform="translate(0 -22.79)"/><line class="cls-5" x1="25.86" y1="253.31" x2="17.66" y2="253.31"/><path class="cls-5" d="M27.65,277.77A1.66,1.66,0,0,0,26,276.1" transform="translate(0 -22.79)"/><line class="cls-5" x1="27.4" y1="260.22" x2="27.4" y2="254.85"/><path class="cls-5" d="M27.11,284.37a1.66,1.66,0,0,0,.54-1.23" transform="translate(0 -22.79)"/><line class="cls-5" x1="24.07" y1="264.07" x2="26.88" y2="261.25"/><path class="cls-5" d="M23.17,287.37a1.67,1.67,0,0,0,1.12-.44" transform="translate(0 -22.79)"/><line class="cls-5" x1="17.66" y1="264.32" x2="23.04" y2="264.32"/><path class="cls-5" d="M10.49,288a.91.91,0,0,0,0,.2" transform="translate(0 -22.79)"/><path class="cls-5" d="M11.39,269.44a1.15,1.15,0,0,0-1.15,1.15" transform="translate(0 -22.79)"/><line class="cls-5" x1="46.6" y1="246.65" x2="11.26" y2="246.65"/><path class="cls-5" d="M47.88,270.6a1.15,1.15,0,0,0-1.14-1.15" transform="translate(0 -22.79)"/><line class="cls-5" x1="47.63" y1="264.83" x2="47.63" y2="247.68"/><path class="cls-5" d="M47.76,288.08a1.41,1.41,0,0,0,.12-.48" transform="translate(0 -22.79)"/><line class="cls-5" x1="97.31" y1="75.07" x2="97.31" y2="77.63"/><line class="cls-5" x1="97.31" y1="80.96" x2="97.31" y2="83.01"/><line class="cls-5" x1="97.31" y1="83.01" x2="97.31" y2="92.74"/><polyline class="cls-5" points="97.31 92.74 97.31 93.51 121.12 93.51"/><polyline class="cls-5" points="129.06 93.51 133.67 93.51 133.67 92.74"/><line class="cls-5" x1="133.67" y1="92.74" x2="133.67" y2="90.69"/><line class="cls-5" x1="0.25" y1="75.07" x2="0.25" y2="83.01"/><polyline class="cls-5" points="10.24 93.51 34.05 93.51 34.05 92.74"/><line class="cls-5" x1="34.05" y1="92.74" x2="34.05" y2="83.01"/><line class="cls-5" x1="34.05" y1="83.01" x2="34.05" y2="80.96"/><line class="cls-5" x1="34.05" y1="77.63" x2="34.05" y2="75.07"/><line class="cls-5" x1="34.05" y1="75.07" x2="0.25" y2="75.07"/><line class="cls-5" x1="129.06" y1="75.07" x2="97.31" y2="75.07"/><line class="cls-5" x1="10.24" y1="92.74" x2="34.05" y2="92.74"/><line class="cls-5" x1="129.06" y1="92.74" x2="133.67" y2="92.74"/><line class="cls-5" x1="97.31" y1="92.74" x2="121.12" y2="92.74"/><line class="cls-5" x1="10.24" y1="83.01" x2="34.05" y2="83.01"/><line class="cls-5" x1="97.31" y1="83.01" x2="121.12" y2="83.01"/><line class="cls-5" x1="129.06" y1="83.01" x2="131.11" y2="83.01"/><polyline class="cls-5" points="66.58 79.94 95.52 79.94 95.52 78.91 66.58 78.91 66.58 79.94"/><polyline class="cls-5" points="35.85 79.94 64.78 79.94 64.78 78.91 35.85 78.91 35.85 79.94"/><polyline class="cls-5" points="34.05 80.96 37.9 80.96 37.9 77.63 34.05 77.63 34.05 80.96"/><polyline class="cls-5" points="67.09 80.96 93.47 80.96 97.31 80.96 97.31 77.63 93.47 77.63 93.47 80.96"/><line class="cls-5" x1="64.27" y1="80.96" x2="37.9" y2="80.96"/><line class="cls-5" x1="37.9" y1="77.63" x2="64.27" y2="77.63"/><line class="cls-5" x1="67.09" y1="77.63" x2="93.47" y2="77.63"/><polyline class="cls-5" points="64.27 80.96 67.09 80.96 67.09 77.63 64.27 77.63 64.27 80.96"/><polyline class="cls-5" points="34.05 93.51 34.05 94.79 34.05 95.56 97.31 95.56"/><polyline class="cls-5" points="97.31 93.51 97.31 94.79 97.31 95.56"/><polyline class="cls-5" points="34.05 75.07 34.05 72 97.31 72 97.31 75.07"/><polyline class="cls-5" points="135.21 93 156.72 80.45 156.21 79.68"/><line class="cls-5" x1="156.21" y1="79.68" x2="151.34" y2="71.23"/><line class="cls-5" x1="151.34" y1="71.23" x2="147.5" y2="64.32"/><line class="cls-5" x1="129.58" y1="74.56" x2="129.06" y2="75.07"/><line class="cls-5" x1="133.67" y1="90.69" x2="134.7" y2="92.23"/><line class="cls-5" x1="134.7" y1="92.23" x2="135.21" y2="93"/><line class="cls-5" x1="198.98" y1="34.61" x2="202.82" y2="41.52"/><line class="cls-5" x1="202.82" y1="41.52" x2="207.94" y2="49.98"/><line class="cls-5" x1="207.94" y1="49.98" x2="208.19" y2="50.74"/><line class="cls-5" x1="156.21" y1="79.68" x2="134.7" y2="92.23"/><line class="cls-5" x1="147.5" y1="64.32" x2="129.58" y2="74.56"/><line class="cls-5" x1="211.52" y1="36.4" x2="202.82" y2="41.52"/><line class="cls-5" x1="151.34" y1="71.23" x2="131.11" y2="83.01"/><line class="cls-5" x1="207.43" y1="51.26" x2="156.72" y2="80.45"/><polyline class="cls-5" points="208.19 50.74 207.43 51.26 231.75 93.25 232.52 92.74"/><line class="cls-5" x1="232.52" y1="92.74" x2="208.19" y2="50.74"/><line class="cls-5" x1="238.16" y1="83.01" x2="211.52" y2="36.4"/><polyline class="cls-5" points="232.52 92.74 232.52 93.51 237.39 93.51"/><line class="cls-5" x1="245.84" y1="75.07" x2="243.28" y2="75.07"/><line class="cls-5" x1="238.16" y1="92.74" x2="232.52" y2="92.74"/><polyline class="cls-5" points="152.37 68.93 175.41 55.61 174.9 54.59 151.85 68.16 152.37 68.93"/><line class="cls-5" x1="176.18" y1="56.89" x2="153.14" y2="70.21"/><line class="cls-5" x1="174.39" y1="53.3" x2="151.09" y2="66.88"/><polyline class="cls-5" points="201.28 42.55 202.82 41.52 200.77 37.94 199.23 38.96 201.28 42.55"/><polyline class="cls-5" points="151.34 71.23 153.13 70.21 151.09 66.88 149.29 67.9 151.34 71.23"/><polyline class="cls-5" points="177.21 54.59 200.51 41.27 200 40.24 176.7 53.82 177.21 54.59"/><line class="cls-5" x1="201.28" y1="42.55" x2="177.98" y2="55.87"/><line class="cls-5" x1="199.23" y1="38.96" x2="175.93" y2="52.54"/><polyline class="cls-5" points="176.18 56.89 177.98 55.87 175.93 52.54 174.39 53.3 176.18 56.89"/><line class="cls-5" x1="77.33" y1="71.74" x2="77.33" y2="72"/><line class="cls-5" x1="78.1" y1="71.74" x2="78.1" y2="72"/><line class="cls-5" x1="55.05" y1="71.74" x2="55.05" y2="72"/><line class="cls-5" x1="54.28" y1="71.74" x2="54.28" y2="72"/><polyline class="cls-5" points="50.44 56.12 81.94 56.12 81.94 71.74 50.44 71.74 50.44 56.12"/><polyline class="cls-5" points="46.6 72 46.6 52.02 84.76 52.02 84.76 72"/><polyline class="cls-5" points="85.53 72 85.53 51.26 45.83 51.26 45.83 72"/><polyline class="cls-5" points="48.14 53.56 48.14 52.02 46.6 52.02 46.6 53.56 48.14 53.56"/><polyline class="cls-5" points="84.76 53.56 84.76 52.02 83.22 52.02 83.22 53.56 84.76 53.56"/><polyline class="cls-5" points="238.16 305.04 186.94 305.04 186.94 308.11 238.16 308.11"/><line class="cls-5" x1="154.93" y1="305.04" x2="126.76" y2="305.04"/><polyline class="cls-5" points="123.69 308.11 154.93 308.11 154.93 305.04"/><polyline class="cls-5" points="126.76 305.04 126.76 269.44 123.69 269.44 123.69 282.76"/><line class="cls-5" x1="123.69" y1="286.09" x2="123.69" y2="308.11"/><line class="cls-5" x1="119.33" y1="282.76" x2="90.65" y2="265.09"/><line class="cls-5" x1="83.74" y1="354.72" x2="95.52" y2="329.62"/><line class="cls-5" x1="154.93" y1="305.04" x2="183.35" y2="287.11"/><polyline class="cls-5" points="123.69 282.76 119.33 282.76 119.33 286.09 123.69 286.09"/><line class="cls-5" x1="87.06" y1="282.76" x2="83.74" y2="282.76"/><polyline class="cls-5" points="83.73 286.09 87.06 286.09 87.06 282.76"/><polyline class="cls-5" points="83.73 387.5 83.73 354.72 83.22 354.72"/><line class="cls-5" x1="83.22" y1="354.72" x2="78.36" y2="354.72"/><polyline class="cls-5" points="78.36 354.72 77.84 354.72 77.84 387.5"/><line class="cls-5" x1="83.74" y1="326.55" x2="83.74" y2="286.09"/><polyline class="cls-5" points="77.84 287.88 77.84 326.55 78.36 326.55"/><line class="cls-5" x1="78.36" y1="326.55" x2="83.22" y2="326.55"/><line class="cls-5" x1="83.22" y1="326.55" x2="83.74" y2="326.55"/><line class="cls-5" x1="83.22" y1="282.76" x2="83.22" y2="282.76"/><line class="cls-5" x1="83.22" y1="354.72" x2="83.22" y2="388.27"/><line class="cls-5" x1="83.22" y1="286.09" x2="83.22" y2="326.55"/><line class="cls-5" x1="78.36" y1="354.72" x2="78.36" y2="388.27"/><line class="cls-5" x1="78.36" y1="287.37" x2="78.36" y2="326.55"/><polyline class="cls-5" points="126.76 209.78 126.76 130.39 123.69 130.39 123.69 209.78"/><line class="cls-5" x1="70.93" y1="265.09" x2="10.24" y2="265.09"/><polyline class="cls-5" points="10.24 271.24 41.99 271.24 41.99 270.47"/><line class="cls-5" x1="10.24" y1="265.86" x2="70.42" y2="265.86"/><line class="cls-5" x1="10.24" y1="270.47" x2="65.55" y2="270.47"/><line class="cls-5" x1="70.93" y1="281.99" x2="70.93" y2="265.09"/><line class="cls-5" x1="65.55" y1="270.47" x2="65.55" y2="287.37"/><line class="cls-5" x1="70.42" y1="265.86" x2="70.42" y2="282.76"/><line class="cls-5" x1="65.55" y1="287.88" x2="77.85" y2="287.88"/><line class="cls-5" x1="65.55" y1="287.37" x2="65.55" y2="287.88"/><line class="cls-5" x1="78.36" y1="287.37" x2="65.55" y2="287.37"/><line class="cls-5" x1="83.22" y1="282.76" x2="70.42" y2="282.76"/><polyline class="cls-5" points="22.02 301.71 23.3 303.76 24.32 304.78 25.35 305.3 26.63 305.81 27.65 305.81 28.93 305.3 29.96 304.78 30.98 303.76 32.26 301.71"/><polyline class="cls-5" points="32.26 288.65 30.98 288.14 28.16 287.63 26.11 287.63 23.3 288.14 21.76 288.65"/><polyline class="cls-5" points="32.26 301.71 33.29 299.66 34.05 297.87 34.57 295.82 34.57 293.77 34.57 292.75 34.31 291.72 34.05 290.7 33.54 289.68 32.26 288.65"/><polyline class="cls-5" points="21.76 288.65 20.74 289.68 19.97 290.7 19.71 291.72 19.71 292.75 19.46 293.77 19.71 295.82 20.23 297.87 20.99 299.66 22.02 301.71"/><line class="cls-5" x1="32.01" y1="285.58" x2="32.26" y2="288.65"/><line class="cls-5" x1="22.27" y1="285.58" x2="21.76" y2="288.65"/><path class="cls-5" d="M33.41,308.63a3.71,3.71,0,0,0,3.71-3.71" transform="translate(0 -22.79)"/><polyline class="cls-5" points="17.15 281.99 17.15 274.05 37.13 274.05 37.13 281.99"/><path class="cls-5" d="M17.15,304.91a3.71,3.71,0,0,0,3.71,3.71" transform="translate(0 -22.79)"/><line class="cls-5" x1="33.29" y1="285.58" x2="20.74" y2="285.58"/><polyline class="cls-5" points="147.5 64.32 147.25 64.06 128.81 74.56"/><line class="cls-5" x1="147.25" y1="64.06" x2="198.72" y2="34.35"/><polyline class="cls-5" points="214.34 25.65 242.77 75.07 243.28 75.07"/><line class="cls-5" x1="243.02" y1="74.56" x2="214.6" y2="25.13"/><line class="cls-5" x1="198.98" y1="34.61" x2="214.34" y2="25.65"/><polyline class="cls-5" points="214.6 25.13 198.72 34.35 198.97 34.61"/><rect x="0.25" y="75.07" width="33.8" height="18.44"/><rect x="0.25" y="264.81" width="70.68" height="6.04"/><rect x="98.77" y="122.88" width="52.2" height="8.4" transform="translate(-2.22 229.15) rotate(-90)"/><rect x="85.15" y="191.42" width="79.97" height="3.5" transform="translate(-68.03 295.5) rotate(-90)"/><rect x="95.12" y="258.29" width="59.94" height="7.94" transform="translate(-137.17 364.57) rotate(-90)"/><rect x="125.09" y="222.96" width="234.07" height="9.48" transform="translate(14.43 447.04) rotate(-90)"/><rect x="105.66" y="309.68" width="39.13" height="3.07" transform="translate(-186 413.65) rotate(-90)"/><rect x="58.86" y="298.35" width="18.76" height="5.38" transform="translate(-232.8 346.49) rotate(-90)"/><rect x="65.55" y="305.17" width="18.18" height="5.38" transform="translate(149.29 592.92) rotate(-180)"/><rect x="69.01" y="305.17" width="18.18" height="3.78" transform="translate(156.2 591.33) rotate(-180)"/><rect x="77.7" y="305.39" width="6.04" height="43.95" transform="translate(161.43 631.95) rotate(-180)"/><polyline points="77.69 394.39 77.69 354.72 83.73 354.72 83.73 394.39"/><rect x="118.82" y="291.64" width="8.78" height="245.93" transform="translate(537.82 268.6) rotate(90)"/><rect x="119.33" y="305.17" width="7.61" height="3.78" transform="translate(246.27 591.33) rotate(-180)"/><rect x="123.69" y="327.48" width="31.24" height="3.78" transform="translate(278.61 635.95) rotate(-180)"/><rect x="186.94" y="327.48" width="59.92" height="3.78" transform="translate(433.8 635.95) rotate(-180)"/><rect x="238.16" y="386.48" width="8.02" height="32.52" transform="translate(484.34 782.68) rotate(-180)"/><polyline points="0.25 392.24 0.25 75.07 10.24 75.07 10.24 392.24"/><rect x="97.31" y="75.07" width="37.9" height="18.44"/><rect x="231.74" y="74.56" width="15.13" height="19.31"/><rect x="127.14" y="92.26" width="26.88" height="18.9" transform="translate(-32.02 61.13) rotate(-30)"/><polygon points="246.21 79.93 231.81 93.45 197.97 34.83 214.62 25.21 246.21 79.93"/><text class="cls-6" transform="translate(172.68 95.56)">16<tspan class="cls-7" x="13.41" y="0">.</tspan><tspan x="16.18" y="0">1</tspan></text><text class="cls-6" transform="translate(54.26 123.75)">12.9</text><text class="cls-6" transform="translate(38.04 327.26)">4.9</text><text class="cls-6" transform="translate(154.65 352.8)">8.3</text><rect class="cls-8" x="154.7" y="146.2" width="54.24" height="19.87"/><rect class="cls-8" x="154.7" y="166.08" width="54.24" height="19.87"/><rect class="cls-8" x="154.7" y="185.95" width="54.24" height="19.87"/><text class="cls-6" transform="translate(163.63 160.34)">№5<tspan class="cls-9" x="23.31" y="0">4</tspan><tspan x="31.19" y="0">1</tspan><tspan x="11.53" y="20.61">1</tspan><tspan class="cls-10" x="16.71" y="20.61">К</tspan><tspan x="5.38" y="41.21">42.2</tspan></text></svg>