<svg id="_114" data-name="114" xmlns="http://www.w3.org/2000/svg" viewBox="0 0 414.37 607.8"><defs><style>.cls-1{isolation:isolate;font-size:12px;fill:#969696;}.cls-1,.cls-12,.cls-4,.cls-6{font-family:PTSans-Regular, PT Sans;}.cls-2{letter-spacing:-0.01em;}.cls-10,.cls-11,.cls-3,.cls-5,.cls-7,.cls-8,.cls-9{fill:none;stroke-linecap:round;stroke-linejoin:round;}.cls-3{stroke:#969696;}.cls-3,.cls-7{stroke-width:0.75px;}.cls-4{font-size:24px;}.cls-10,.cls-11,.cls-5,.cls-7,.cls-8,.cls-9{stroke:#000;}.cls-5,.cls-8,.cls-9{stroke-width:0.5px;}.cls-6{font-size:20px;}.cls-8{stroke-dasharray:2.96 2.96;}.cls-9{stroke-dasharray:2.9 2.9;}.cls-10{stroke-width:1.2px;}.cls-11{stroke-width:0.35px;}.cls-12{font-size:9.57px;}</style></defs><text class="cls-1" transform="translate(199.22 604.61)"><tspan class="cls-2">у</tspan><tspan x="5.42" y="0">лица</tspan></text><line class="cls-3" x1="188.46" y1="607.43" x2="188.46" y2="598.63"/><polyline class="cls-3" points="184.96 603.93 188.46 607.43 191.96 603.93"/><text class="cls-4" transform="translate(98.55 387.83)">1K</text><text class="cls-4" transform="translate(83.69 418.12)">45.70</text><text class="cls-4" transform="translate(80.52 357.7)">№114</text><polyline class="cls-5" points="74.88 424.65 74.88 334.65 149.94 334.65 149.94 424.65"/><line class="cls-5" x1="74.88" y1="364.7" x2="149.94" y2="364.7"/><line class="cls-5" x1="74.88" y1="424.65" x2="149.94" y2="424.65"/><line class="cls-5" x1="74.88" y1="394.76" x2="149.94" y2="394.76"/><text class="cls-6" transform="translate(187.54 95.32)">6.10</text><text class="cls-6" transform="translate(43.39 80.5)">2.50</text><text class="cls-6" transform="translate(95.29 556.56)">0.30</text><text class="cls-6" transform="translate(282.94 480.01)">14.80</text><text class="cls-6" transform="translate(86.39 480.01)">18.10</text><text class="cls-6" transform="translate(309.7 122.84)">3.90</text><line class="cls-7" x1="413.38" y1="254.5" x2="413.38" y2="276.01"/><line class="cls-7" x1="400.74" y1="275.88" x2="400.74" y2="254.37"/><polyline class="cls-7" points="400.74 232.73 400.74 202.62 379.1 202.62"/><line class="cls-7" x1="357.46" y1="202.62" x2="335.96" y2="202.62"/><polyline class="cls-7" points="314.32 202.62 292.81 202.62 292.81 232.73"/><line class="cls-5" x1="292.81" y1="238.64" x2="292.81" y2="240.14"/><line class="cls-8" x1="292.81" y1="243.11" x2="292.81" y2="324.64"/><polyline class="cls-5" points="292.81 326.12 292.81 327.62 294.31 327.62"/><line class="cls-9" x1="297.21" y1="327.62" x2="359.62" y2="327.62"/><line class="cls-5" x1="361.07" y1="327.62" x2="362.57" y2="327.62"/><line class="cls-10" x1="58.4" y1="537.17" x2="58.4" y2="530.85"/><line class="cls-10" x1="158.13" y1="537.17" x2="158.13" y2="530.85"/><line class="cls-10" x1="57.86" y1="530.85" x2="58.4" y2="530.85"/><line class="cls-10" x1="58.4" y1="537.84" x2="58.4" y2="537.17"/><line class="cls-10" x1="158.8" y1="530.85" x2="158.13" y2="530.85"/><line class="cls-10" x1="158.13" y1="537.84" x2="158.13" y2="537.17"/><line class="cls-10" x1="57.86" y1="530.85" x2="55.84" y2="530.85"/><line class="cls-10" x1="160.68" y1="530.85" x2="158.8" y2="530.85"/><line class="cls-10" x1="57.86" y1="537.84" x2="58.4" y2="537.84"/><line class="cls-10" x1="158.8" y1="537.84" x2="158.13" y2="537.84"/><polyline class="cls-10" points="55.84 530.86 55.84 527.63 55.84 514.99"/><polyline class="cls-10" points="160.68 530.86 160.68 527.63 160.68 514.99"/><polyline class="cls-10" points="57.86 537.84 0.6 537.84 0.6 506.53"/><line class="cls-10" x1="158.8" y1="537.84" x2="255.98" y2="537.84"/><line class="cls-10" x1="255.98" y1="514.99" x2="160.68" y2="514.99"/><line class="cls-10" x1="55.84" y1="514.99" x2="0.6" y2="514.99"/><line class="cls-11" x1="58.4" y1="537.84" x2="158.13" y2="537.84"/><line class="cls-11" x1="160.68" y1="514.99" x2="55.84" y2="514.99"/><line class="cls-11" x1="158.13" y1="537.84" x2="58.4" y2="537.84"/><line class="cls-11" x1="160.68" y1="514.99" x2="55.84" y2="514.99"/><polyline class="cls-7" points="160.68 527.63 154.64 527.63 154.64 530.86 160.68 530.86"/><polyline class="cls-7" points="108.26 530.86 112.43 530.86 112.43 527.63 108.26 527.63"/><line class="cls-7" x1="154.64" y1="527.63" x2="154.64" y2="485.42"/><polyline class="cls-7" points="108.26 527.63 104.1 527.63 104.1 530.86 108.26 530.86"/><polyline class="cls-7" points="55.84 530.86 61.89 530.86 61.89 527.63 55.84 527.63"/><line class="cls-7" x1="61.89" y1="527.63" x2="61.89" y2="485.42"/><path class="cls-7" d="M154.7,485.29a42.28,42.28,0,0,0-42.27,42.27"/><path class="cls-7" d="M104.23,527.56A42.27,42.27,0,0,0,62,485.29"/><polyline class="cls-7" points="160.68 514.99 160.68 527.63 160.68 530.86 160.68 527.63"/><polyline class="cls-7" points="55.84 514.99 55.84 527.63 55.84 530.86 55.84 527.63"/><polyline class="cls-7" points="158.8 530.86 160.68 530.86 158.8 530.86"/><polyline class="cls-7" points="55.84 530.86 57.86 530.86 55.84 530.86"/><line class="cls-7" x1="158.13" y1="537.84" x2="158.13" y2="537.17"/><polyline class="cls-7" points="158.13 530.86 158.8 530.86 158.13 530.86"/><line class="cls-7" x1="58.4" y1="537.84" x2="58.4" y2="537.17"/><polyline class="cls-7" points="58.4 530.86 57.86 530.86 58.4 530.86"/><line class="cls-7" x1="158.13" y1="537.17" x2="158.13" y2="530.85"/><line class="cls-7" x1="58.4" y1="537.17" x2="58.4" y2="530.85"/><line class="cls-10" x1="358.14" y1="537.17" x2="358.14" y2="530.85"/><line class="cls-10" x1="258.4" y1="537.17" x2="258.4" y2="530.85"/><line class="cls-10" x1="358.81" y1="530.85" x2="358.14" y2="530.85"/><line class="cls-10" x1="358.14" y1="537.84" x2="358.14" y2="537.17"/><line class="cls-10" x1="257.86" y1="530.85" x2="258.4" y2="530.85"/><line class="cls-10" x1="258.4" y1="537.84" x2="258.4" y2="537.17"/><line class="cls-10" x1="358.81" y1="530.85" x2="360.69" y2="530.85"/><line class="cls-10" x1="255.98" y1="530.85" x2="257.86" y2="530.85"/><line class="cls-10" x1="358.81" y1="537.84" x2="358.14" y2="537.84"/><line class="cls-10" x1="257.86" y1="537.84" x2="258.4" y2="537.84"/><polyline class="cls-10" points="360.69 530.86 360.69 527.63 360.69 514.99"/><polyline class="cls-10" points="255.98 530.86 255.98 527.63 255.98 514.99"/><line class="cls-10" x1="255.98" y1="537.84" x2="257.86" y2="537.84"/><polyline class="cls-10" points="358.81 537.84 413.38 537.84 413.38 501.32"/><line class="cls-10" x1="413.38" y1="514.99" x2="360.69" y2="514.99"/><line class="cls-7" x1="258.4" y1="537.84" x2="358.14" y2="537.84"/><line class="cls-7" x1="360.69" y1="514.99" x2="255.98" y2="514.99"/><line class="cls-7" x1="258.4" y1="537.84" x2="358.14" y2="537.84"/><line class="cls-7" x1="255.98" y1="514.99" x2="360.69" y2="514.99"/><polyline class="cls-7" points="255.98 527.63 261.9 527.63 261.9 530.86 255.98 530.86"/><polyline class="cls-7" points="308.27 530.86 304.24 530.86 304.24 527.63 308.27 527.63"/><line class="cls-7" x1="261.9" y1="527.63" x2="304.24" y2="527.63"/><line class="cls-7" x1="304.24" y1="530.85" x2="261.9" y2="530.85"/><polyline class="cls-7" points="308.27 527.63 312.44 527.63 312.44 530.86 308.27 530.86"/><polyline class="cls-7" points="360.69 530.86 354.64 530.86 354.64 527.63 360.69 527.63"/><line class="cls-7" x1="312.44" y1="527.63" x2="354.64" y2="527.63"/><line class="cls-7" x1="354.64" y1="530.85" x2="312.44" y2="530.85"/><polyline class="cls-7" points="255.98 514.99 255.98 527.63 255.98 530.86 255.98 527.63"/><polyline class="cls-7" points="360.69 514.99 360.69 527.63 360.69 530.86 360.69 527.63"/><polyline class="cls-7" points="257.86 530.86 255.98 530.86 257.86 530.86"/><polyline class="cls-7" points="360.69 530.86 358.81 530.86 360.69 530.86"/><line class="cls-7" x1="258.4" y1="537.84" x2="258.4" y2="537.17"/><polyline class="cls-7" points="258.4 530.86 257.86 530.86 258.4 530.86"/><line class="cls-7" x1="358.14" y1="537.84" x2="358.14" y2="537.17"/><polyline class="cls-7" points="358.14 530.86 358.81 530.86 358.14 530.86"/><line class="cls-7" x1="258.4" y1="537.17" x2="258.4" y2="530.85"/><line class="cls-7" x1="358.14" y1="537.17" x2="358.14" y2="530.85"/><line class="cls-10" x1="265.39" y1="13.37" x2="265.39" y2="0.6"/><line class="cls-10" x1="201.95" y1="13.37" x2="201.95" y2="0.6"/><line class="cls-10" x1="271.84" y1="0.6" x2="265.39" y2="0.6"/><line class="cls-10" x1="201.95" y1="0.6" x2="117.81" y2="0.6"/><line class="cls-10" x1="105.04" y1="0.6" x2="0.6" y2="0.6"/><line class="cls-10" x1="13.37" y1="13.37" x2="103.56" y2="13.37"/><line class="cls-10" x1="108.53" y1="13.37" x2="201.95" y2="13.37"/><line class="cls-10" x1="265.39" y1="13.37" x2="271.84" y2="13.37"/><path class="cls-7" d="M204.5,13.3a58.4,58.4,0,0,0,58.4,58.4"/><polyline class="cls-7" points="201.95 0.6 204.5 0.6 204.5 13.37 201.95 13.37 201.95 0.6"/><polyline class="cls-7" points="265.39 13.37 262.84 13.37 262.84 0.6 265.39 0.6 265.39 13.37"/><line class="cls-7" x1="262.84" y1="13.37" x2="262.84" y2="71.7"/><polyline class="cls-7" points="201.95 0.6 201.95 13.37 201.95 0.6"/><polyline class="cls-7" points="265.39 0.6 265.39 13.37 265.39 0.6"/><line class="cls-10" x1="0.6" y1="179.64" x2="0.6" y2="184.74"/><line class="cls-10" x1="0.6" y1="179.64" x2="0.6" y2="179.64"/><line class="cls-10" x1="0.6" y1="184.74" x2="0.6" y2="184.74"/><polyline class="cls-7" points="0.6 184.74 0.6 184.74 0.6 179.64 0.6 179.64 0.6 184.74"/><line class="cls-7" x1="0.6" y1="184.74" x2="0.6" y2="236.9"/><polyline class="cls-7" points="0.6 184.74 0.6 179.64 0.6 184.74"/><line class="cls-10" x1="0.6" y1="13.37" x2="0.6" y2="179.64"/><polyline class="cls-10" points="0.6 184.74 0.6 514.99 13.37 514.99 13.37 132.06"/><line class="cls-10" x1="13.37" y1="126.95" x2="13.37" y2="13.37"/><line class="cls-10" x1="0.6" y1="0.6" x2="0.6" y2="0.6"/><line class="cls-10" x1="0.6" y1="0.6" x2="0.6" y2="13.37"/><line class="cls-10" x1="209.61" y1="514.99" x2="209.61" y2="202.62"/><line class="cls-10" x1="209.61" y1="197.51" x2="209.61" y2="126.95"/><polyline class="cls-10" points="204.5 132.06 204.5 514.99 209.61 514.99"/><line class="cls-10" x1="271.84" y1="13.37" x2="271.84" y2="37.43"/><line class="cls-10" x1="284.48" y1="24.79" x2="284.48" y2="5.71"/><line class="cls-10" x1="271.84" y1="37.43" x2="281.25" y2="37.43"/><line class="cls-10" x1="357.46" y1="37.43" x2="400.74" y2="37.43"/><line class="cls-10" x1="400.74" y1="24.79" x2="302.22" y2="24.79"/><line class="cls-10" x1="297.25" y1="24.79" x2="284.48" y2="24.79"/><line class="cls-10" x1="286.36" y1="98.99" x2="281.25" y2="98.99"/><polyline class="cls-10" points="286.36 197.51 286.36 146.71 281.25 146.71"/><line class="cls-10" x1="286.36" y1="98.99" x2="286.36" y2="62.83"/><line class="cls-10" x1="281.25" y1="62.83" x2="281.25" y2="98.99"/><line class="cls-10" x1="281.25" y1="146.71" x2="281.25" y2="197.51"/><path class="cls-7" d="M260.05,138.32a42.58,42.58,0,0,0,21.27,5.7"/><polyline class="cls-7" points="286.36 146.71 286.36 144.15 281.25 144.15 281.25 146.71 286.36 146.71"/><polyline class="cls-7" points="281.25 98.99 281.25 101.54 286.36 101.54 286.36 98.99 281.25 98.99"/><line class="cls-7" x1="281.25" y1="101.54" x2="260.02" y2="138.51"/><polyline class="cls-7" points="281.25 146.71 286.36 146.71 281.25 146.71"/><polyline class="cls-7" points="281.25 98.99 286.36 98.99 281.25 98.99"/><line class="cls-10" x1="197.51" y1="126.95" x2="197.51" y2="132.05"/><polyline class="cls-10" points="140.39 126.95 140.39 132.06 13.37 132.06"/><line class="cls-10" x1="197.51" y1="132.05" x2="204.5" y2="132.05"/><line class="cls-10" x1="209.61" y1="126.95" x2="197.51" y2="126.95"/><line class="cls-10" x1="140.39" y1="126.95" x2="108.53" y2="126.95"/><line class="cls-10" x1="103.56" y1="126.95" x2="13.37" y2="126.95"/><path class="cls-7" d="M142.94,132A52.09,52.09,0,0,0,195,184.07"/><polyline class="cls-7" points="140.39 126.95 142.94 126.95 142.94 132.06 140.39 132.06 140.39 126.95"/><polyline class="cls-7" points="197.51 132.06 194.96 132.06 194.96 126.95 197.51 126.95 197.51 132.06"/><line class="cls-7" x1="194.96" y1="132.05" x2="194.96" y2="184.21"/><polyline class="cls-7" points="140.39 132.06 140.39 126.95 140.39 132.06"/><polyline class="cls-7" points="197.51 132.06 197.51 126.95 197.51 132.06"/><line class="cls-10" x1="216.6" y1="202.62" x2="216.6" y2="197.51"/><line class="cls-10" x1="273.73" y1="202.62" x2="273.73" y2="197.51"/><line class="cls-10" x1="209.61" y1="202.62" x2="216.6" y2="202.62"/><polyline class="cls-10" points="273.73 202.62 400.74 202.62 400.74 197.51 286.36 197.51"/><line class="cls-10" x1="281.25" y1="197.51" x2="273.73" y2="197.51"/><line class="cls-10" x1="216.6" y1="197.51" x2="209.61" y2="197.51"/><path class="cls-7" d="M219.09,254.64a52.09,52.09,0,0,0,52.08-52.09"/><polyline class="cls-7" points="273.73 197.51 271.17 197.51 271.17 202.62 273.73 202.62 273.73 197.51"/><polyline class="cls-7" points="216.6 202.62 219.02 202.62 219.02 197.51 216.6 197.51 216.6 202.62"/><line class="cls-7" x1="219.02" y1="202.62" x2="219.02" y2="254.64"/><polyline class="cls-7" points="273.73 197.51 273.73 202.62 273.73 197.51"/><polyline class="cls-7" points="216.6 197.51 216.6 202.62 216.6 197.51"/><line class="cls-10" x1="400.74" y1="24.79" x2="400.74" y2="24.79"/><polyline class="cls-10" points="400.74 37.43 400.74 45.49 413.38 45.49 413.38 26"/><line class="cls-10" x1="413.38" y1="24.79" x2="413.38" y2="24.79"/><line class="cls-10" x1="399.13" y1="24.79" x2="399.13" y2="24.79"/><line class="cls-10" x1="284.48" y1="0.6" x2="284.48" y2="5.71"/><line class="cls-10" x1="284.48" y1="5.71" x2="284.48" y2="5.71"/><line class="cls-10" x1="284.48" y1="5.71" x2="284.48" y2="5.71"/><line class="cls-10" x1="399.13" y1="24.79" x2="400.74" y2="24.79"/><polyline class="cls-10" points="413.38 24.79 413.38 24.79 399.13 24.79"/><line class="cls-10" x1="284.48" y1="0.6" x2="271.84" y2="0.6"/><polyline class="cls-7" points="284.48 5.71 284.48 5.71 284.48 0.6 284.48 0.6 284.48 5.71"/><polyline class="cls-7" points="399.13 24.79 397.12 24.79 397.12 24.79 399.13 24.79 399.13 24.79"/><polyline class="cls-7" points="284.48 5.71 284.48 0.6 284.48 5.71"/><polyline class="cls-7" points="399.13 24.79 399.13 24.79 399.13 24.79"/><polyline class="cls-10" points="400.74 248.32 400.74 514.99 413.38 514.99 413.38 248.32 400.74 248.32"/><polyline class="cls-7" points="281.25 37.43 281.25 62.83 319.43 62.83 319.43 37.43 281.25 37.43"/><polyline class="cls-7" points="284.48 44.42 284.61 43.21 285.28 42.27 286.09 41.33 287.17 40.79 288.24 40.66 302.89 40.66 304.1 40.79 305.18 41.33 305.98 42.27 306.52 43.21 306.66 44.42 306.66 55.84 306.52 57.05 305.98 58.13 305.18 58.94 304.1 59.47 302.89 59.74 288.24 59.74 287.17 59.47 286.09 58.94 285.28 58.13 284.61 57.05 284.48 55.84 284.48 44.42"/><polyline class="cls-7" points="309.88 58.13 309.88 42.27 310.15 41.46 310.69 40.79 311.5 40.66 312.44 40.66 313.64 40.79 314.72 41.33 315.53 42.27 316.06 43.21 316.2 44.42 316.2 55.84 316.06 57.05 315.53 58.13 314.72 58.94 313.64 59.47 312.44 59.74 311.5 59.74 310.69 59.47 310.15 58.94 309.88 58.13"/><polyline class="cls-7" points="319.43 37.43 319.43 62.83 357.46 62.83 357.46 37.43 319.43 37.43"/><polyline class="cls-7" points="322.65 44.42 322.79 43.21 323.32 42.27 324.13 41.33 325.2 40.79 326.42 40.66 341.06 40.66 342.14 40.79 343.22 41.33 344.16 42.27 344.69 43.21 344.83 44.42 344.83 55.84 344.69 57.05 344.16 58.13 343.22 58.94 342.14 59.47 341.06 59.74 326.42 59.74 325.2 59.47 324.13 58.94 323.32 58.13 322.79 57.05 322.65 55.84 322.65 44.42"/><polyline class="cls-7" points="348.06 58.13 348.06 42.27 348.19 41.46 348.73 40.79 349.53 40.66 350.47 40.66 351.68 40.79 352.76 41.33 353.57 42.27 354.1 43.21 354.37 44.42 354.37 55.84 354.1 57.05 353.57 58.13 352.76 58.94 351.68 59.47 350.47 59.74 349.53 59.74 348.73 59.47 348.19 58.94 348.06 58.13"/><line class="cls-11" x1="176.55" y1="541.07" x2="176.55" y2="566.47"/><line class="cls-11" x1="179.77" y1="569.57" x2="179.77" y2="541.07"/><line class="cls-11" x1="176.55" y1="566.47" x2="61.62" y2="566.47"/><line class="cls-11" x1="58.4" y1="569.57" x2="179.77" y2="569.57"/><line class="cls-11" x1="61.62" y1="566.47" x2="61.62" y2="541.07"/><line class="cls-11" x1="58.4" y1="541.07" x2="58.4" y2="569.57"/><polyline class="cls-11" points="179.77 541.07 179.77 539.46 176.54 539.46 176.54 541.07"/><polyline class="cls-11" points="61.62 541.07 61.62 539.46 58.4 539.46 58.4 541.07"/><line class="cls-11" x1="177.35" y1="541.07" x2="177.35" y2="567.28"/><polyline class="cls-11" points="178.97 568.76 178.97 541.07 177.35 541.07"/><line class="cls-11" x1="177.35" y1="567.28" x2="60.82" y2="567.28"/><line class="cls-11" x1="59.2" y1="568.76" x2="178.96" y2="568.76"/><polyline class="cls-11" points="60.82 567.28 60.82 541.07 59.2 541.07 59.2 568.76"/><polyline class="cls-11" points="178.97 540.26 177.35 540.26 177.35 541.88 178.97 541.88 178.97 540.26"/><polyline class="cls-11" points="178.97 567.28 177.35 567.28 177.35 568.76 178.97 568.76 178.97 567.28"/><polyline class="cls-11" points="60.82 568.76 60.82 567.28 59.2 567.28 59.2 568.76 60.82 568.76"/><polyline class="cls-11" points="59.2 541.88 60.82 541.88 60.82 540.26 59.2 540.26 59.2 541.88"/><polyline class="cls-11" points="178.97 549.27 177.35 549.27 177.35 550.75 178.97 550.75 178.97 549.27"/><polyline class="cls-11" points="178.97 558.27 177.35 558.27 177.35 559.75 178.97 559.75 178.97 558.27"/><polyline class="cls-11" points="169.82 568.76 169.82 567.28 168.21 567.28 168.21 568.76 169.82 568.76"/><polyline class="cls-11" points="160.82 568.76 160.82 567.28 159.21 567.28 159.21 568.76 160.82 568.76"/><polyline class="cls-11" points="151.68 568.76 151.68 567.28 150.07 567.28 150.07 568.76 151.68 568.76"/><polyline class="cls-11" points="142.54 568.76 142.54 567.28 141.06 567.28 141.06 568.76 142.54 568.76"/><polyline class="cls-11" points="133.53 568.76 133.53 567.28 131.92 567.28 131.92 568.76 133.53 568.76"/><polyline class="cls-11" points="124.39 568.76 124.39 567.28 122.78 567.28 122.78 568.76 124.39 568.76"/><polyline class="cls-11" points="115.39 568.76 115.39 567.28 113.78 567.28 113.78 568.76 115.39 568.76"/><polyline class="cls-11" points="106.25 568.76 106.25 567.28 104.64 567.28 104.64 568.76 106.25 568.76"/><polyline class="cls-11" points="97.11 568.76 97.11 567.28 95.63 567.28 95.63 568.76 97.11 568.76"/><polyline class="cls-11" points="88.1 568.76 88.1 567.28 86.49 567.28 86.49 568.76 88.1 568.76"/><polyline class="cls-11" points="78.96 568.76 78.96 567.28 77.35 567.28 77.35 568.76 78.96 568.76"/><polyline class="cls-11" points="69.96 568.76 69.96 567.28 68.34 567.28 68.34 568.76 69.96 568.76"/><polyline class="cls-11" points="59.2 559.75 60.82 559.75 60.82 558.27 59.2 558.27 59.2 559.75"/><polyline class="cls-11" points="59.2 550.75 60.82 550.75 60.82 549.27 59.2 549.27 59.2 550.75"/><line class="cls-5" x1="396.98" y1="156.79" x2="396.98" y2="189.18"/><line class="cls-5" x1="393.35" y1="193.08" x2="312.44" y2="193.08"/><line class="cls-5" x1="393.35" y1="153.02" x2="312.44" y2="153.02"/><line class="cls-5" x1="289.59" y1="196.84" x2="400.74" y2="196.84"/><polyline class="cls-5" points="289.59 196.84 289.59 149.26 400.74 149.26 400.74 196.84"/><line class="cls-5" x1="325.34" y1="159.61" x2="388.65" y2="159.61"/><line class="cls-5" x1="390.53" y1="161.63" x2="390.53" y2="184.48"/><line class="cls-5" x1="325.34" y1="186.36" x2="388.65" y2="186.36"/><line class="cls-5" x1="377.49" y1="171.84" x2="377.49" y2="169.56"/><line class="cls-5" x1="378.7" y1="173.05" x2="380.99" y2="173.05"/><line class="cls-5" x1="377.49" y1="174.26" x2="377.49" y2="176.55"/><line class="cls-5" x1="376.42" y1="173.05" x2="374.13" y2="173.05"/><path class="cls-5" d="M312.5,153c-10.72,0-19.42,8.94-19.42,20s8.7,20,19.42,20"/><path class="cls-5" d="M393.42,192.94a3.77,3.77,0,0,0,3.7-3.83"/><path class="cls-5" d="M397.12,156.72a3.77,3.77,0,0,0-3.7-3.83"/><path class="cls-5" d="M377.56,171a2,2,0,1,0,1.95,1.95,2,2,0,0,0-1.95-1.95"/><path class="cls-5" d="M325.41,159.61a13.38,13.38,0,0,0,0,26.75"/><path class="cls-5" d="M390.53,161.56a1.88,1.88,0,0,0-1.82-1.95"/><path class="cls-5" d="M388.71,186.36a1.89,1.89,0,0,0,1.82-2"/><path class="cls-5" d="M377.56,170.36a2.62,2.62,0,1,0,2.62,2.62,2.62,2.62,0,0,0-2.62-2.62"/><line class="cls-7" x1="325.34" y1="64.58" x2="325.34" y2="96.3"/><line class="cls-7" x1="287.17" y1="64.58" x2="325.34" y2="64.58"/><line class="cls-7" x1="287.17" y1="96.3" x2="287.17" y2="64.58"/><line class="cls-7" x1="325.34" y1="96.3" x2="287.17" y2="96.3"/><text class="cls-12" transform="translate(302.49 73.32) rotate(90) scale(1 1.11)">МС</text><polyline class="cls-7" points="400.74 329.51 400.74 202.62 292.81 202.62"/><polyline class="cls-7" points="400.74 329.51 362.57 329.51 362.57 240.66 292.81 240.66 292.81 202.62"/><polyline class="cls-7" points="367.41 224.8 399.13 224.8 399.13 275.61 367.41 275.61 367.41 224.8"/><line class="cls-7" x1="362.57" y1="297.78" x2="362.57" y2="202.62"/><line class="cls-7" x1="400.74" y1="297.78" x2="400.74" y2="202.62"/><polyline class="cls-7" points="370.5 272.38 370.5 251.14 392.81 251.14 392.81 272.38 370.5 272.38"/><polyline class="cls-7" points="370.5 249.26 370.5 228.03 392.81 228.03 392.81 249.26 370.5 249.26"/><polyline class="cls-7" points="400.74 57.73 400.74 37.43 368.89 37.43"/><path class="cls-7" d="M368.89,37.43"/><polyline class="cls-7" points="368.89 37.43 368.89 57.73 400.74 57.73"/><path class="cls-7" d="M413.38,25.2"/><path class="cls-7" d="M284.48,5.71"/><line class="cls-7" x1="337.17" y1="24.79" x2="302.22" y2="24.79"/><path class="cls-7" d="M284.48,12"/><line class="cls-7" x1="348.05" y1="24.79" x2="284.48" y2="24.79"/><line class="cls-7" x1="284.48" y1="24.79" x2="284.48" y2="12.02"/><line class="cls-7" x1="108.53" y1="51.41" x2="197.51" y2="51.41"/><line class="cls-7" x1="197.51" y1="51.41" x2="197.51" y2="13.37"/><polyline class="cls-7" points="357.46 57.73 400.74 57.73 400.74 37.43 357.46 37.43 357.46 57.73"/><line class="cls-5" x1="413.38" y1="196.84" x2="413.38" y2="140.93"/><path class="cls-5" d="M414.12,140.25a.61.61,0,0,0-.61.61"/><path class="cls-5" d="M413.51,196.77a.61.61,0,0,0,.61.61"/><line class="cls-5" x1="387.84" y1="78.69" x2="365.8" y2="78.69"/><polyline class="cls-5" points="389.19 77.75 397.52 77.75 397.52 101.28"/><line class="cls-5" x1="384.08" y1="89.58" x2="384.08" y2="98.18"/><polyline class="cls-5" points="365.8 78.69 384.08 80.84 384.08 89.58"/><line class="cls-5" x1="365.8" y1="100.33" x2="384.08" y2="98.18"/><line class="cls-5" x1="365.8" y1="79.23" x2="384.08" y2="81.38"/><line class="cls-5" x1="365.8" y1="99.8" x2="384.08" y2="97.65"/><line class="cls-5" x1="387.98" y1="100.33" x2="365.8" y2="100.33"/><line class="cls-5" x1="397.52" y1="101.27" x2="389.18" y2="101.27"/><polyline class="cls-5" points="365.8 78.69 363.38 78.96 361.09 79.9 359.08 81.38 357.46 83.4 356.25 85.68 355.72 88.24 355.72 90.79 356.25 93.34 357.46 95.63 359.08 97.64 361.09 99.12 363.38 100.06 365.8 100.33"/><polyline class="cls-5" points="365.8 79.23 363.51 79.5 361.36 80.44 359.48 81.78 357.87 83.67 356.79 85.95 356.25 88.24 356.25 90.79 356.79 93.21 357.87 95.36 359.48 97.24 361.36 98.59 363.51 99.53 365.8 99.8"/><path class="cls-5" d="M388,79a98.75,98.75,0,0,0,0,21"/><path class="cls-5" d="M389.25,77.62a1.41,1.41,0,0,0-1.4,1.26"/><path class="cls-5" d="M387.85,100a1.4,1.4,0,0,0,1.4,1.27"/><path class="cls-5" d="M393.49,89.51a1.15,1.15,0,1,0-1.15,1.15,1.15,1.15,0,0,0,1.15-1.15"/><line class="cls-10" x1="103.56" y1="121.3" x2="108.53" y2="121.3"/><line class="cls-10" x1="103.56" y1="73.72" x2="108.53" y2="73.72"/><line class="cls-10" x1="108.53" y1="126.95" x2="108.53" y2="121.3"/><line class="cls-10" x1="108.53" y1="73.72" x2="108.53" y2="13.37"/><line class="cls-10" x1="103.56" y1="13.37" x2="103.56" y2="73.72"/><line class="cls-10" x1="103.56" y1="121.3" x2="103.56" y2="126.95"/><path class="cls-7" d="M129.87,81.84a42.48,42.48,0,0,0-21.27-5.7"/><polyline class="cls-7" points="103.56 73.72 103.56 76.14 108.53 76.14 108.53 73.72 103.56 73.72"/><polyline class="cls-7" points="108.53 121.3 108.53 118.75 103.56 118.75 103.56 121.3 108.53 121.3"/><line class="cls-7" x1="108.53" y1="118.75" x2="129.9" y2="81.92"/><polyline class="cls-7" points="108.53 73.72 103.56 73.72 108.53 73.72"/><polyline class="cls-7" points="108.53 121.3 103.56 121.3 108.53 121.3"/><polyline class="cls-10" points="413.38 41.86 400.74 41.86 400.74 248.32 413.38 248.32 413.38 41.86"/><polyline class="cls-10" points="13.37 197.51 0.6 197.51 0.6 248.32 13.37 248.32 13.37 197.51"/><polyline class="cls-10" points="226.01 527.63 226.01 514.99 187.97 514.99 187.97 527.63 226.01 527.63"/><polyline class="cls-10" points="213.37 197.51 200.6 197.51 200.6 248.32 213.37 248.32 213.37 197.51"/><polyline class="cls-10" points="133.94 13.37 133.94 0.6 83.13 0.6 83.13 13.37 133.94 13.37"/><line class="cls-10" x1="0.6" y1="527.63" x2="26" y2="527.63"/><polyline class="cls-10" points="26 527.63 26 514.99 0.6 514.99"/><polyline class="cls-10" points="375.34 514.99 375.34 527.63 413.38 527.63 413.38 514.99 375.34 514.99"/><line class="cls-5" x1="413.38" y1="123.59" x2="413.38" y2="113.51"/><polyline class="cls-5" points="386.23 149.26 400.74 149.26 400.74 114.98 386.23 114.98"/><line class="cls-5" x1="400.74" y1="126.68" x2="400.74" y2="137.43"/><line class="cls-5" x1="389.05" y1="129.23" x2="389.05" y2="130.98"/><line class="cls-5" x1="392.01" y1="132.05" x2="390.13" y2="132.05"/><line class="cls-5" x1="389.05" y1="133.13" x2="389.05" y2="135.01"/><line class="cls-5" x1="387.98" y1="132.05" x2="386.23" y2="132.05"/><path class="cls-5" d="M385.31,147a15.28,15.28,0,0,0,7.22-5.91"/><path class="cls-5" d="M392.51,141.07a15.3,15.3,0,0,0,2.14-9.1"/><path class="cls-5" d="M392.53,122.91a15.24,15.24,0,0,0-7.22-5.92"/><path class="cls-5" d="M394.65,132a15.33,15.33,0,0,0-2.14-9.09"/><path class="cls-5" d="M374.88,133.25a28.12,28.12,0,0,0,2.83,10.39"/><path class="cls-5" d="M386.26,114.86a8.67,8.67,0,0,0-7.13,3.23"/><path class="cls-5" d="M374.84,130.79a19.22,19.22,0,0,0,0,2.4"/><path class="cls-5" d="M392.07,141.59a62.43,62.43,0,0,0,0-19.2"/><path class="cls-5" d="M398.07,120.66a21.64,21.64,0,0,0-14-4.87"/><path class="cls-5" d="M400.07,132a42.61,42.61,0,0,0-1.06-9.81"/><path class="cls-5" d="M399.06,122.21a2.88,2.88,0,0,0-1-1.6"/><path class="cls-5" d="M398.73,132a72.92,72.92,0,0,0-.7-9.68"/><path class="cls-5" d="M397.12,120.51a19.41,19.41,0,0,0-13.1-4.85"/><path class="cls-5" d="M398,122.32a2.87,2.87,0,0,0-.95-1.77"/><path class="cls-5" d="M384.05,148.32a19.45,19.45,0,0,0,13.09-4.87"/><path class="cls-5" d="M384.07,148.32a21.58,21.58,0,0,0,14-4.89"/><path class="cls-5" d="M398,141.7a72.61,72.61,0,0,0,.69-9.66"/><path class="cls-5" d="M399,141.83a42.69,42.69,0,0,0,1.05-9.82"/><path class="cls-5" d="M397.08,143.43a2.93,2.93,0,0,0,.95-1.77"/><path class="cls-5" d="M398.07,143.36a2.88,2.88,0,0,0,1-1.6"/><path class="cls-5" d="M379.13,145.88a8.68,8.68,0,0,0,7.13,3.24"/><path class="cls-5" d="M377.64,143.66a13,13,0,0,0,1.47,2.28"/><path class="cls-5" d="M379.11,118.17a13,13,0,0,0-1.47,2.28"/><path class="cls-5" d="M377.71,120.47a27.93,27.93,0,0,0-2.83,10.39"/><path class="cls-5" d="M377.25,127.27a20,20,0,0,0,0,9.43"/><path class="cls-5" d="M381,145.32a5.2,5.2,0,0,0,4.28,1.78"/><path class="cls-5" d="M377.24,136.7a18.51,18.51,0,0,0,3.92,8.55"/><path class="cls-5" d="M385.31,116.88a5.2,5.2,0,0,0-4.28,1.78"/><path class="cls-5" d="M381.16,118.72a18.59,18.59,0,0,0-3.92,8.56"/><path class="cls-5" d="M391.34,132a2.22,2.22,0,1,0-2.22,2.22,2.22,2.22,0,0,0,2.22-2.22"/><path class="cls-5" d="M390.66,132a1.55,1.55,0,1,0-1.54,1.54,1.54,1.54,0,0,0,1.54-1.54"/></svg>