<svg id="_172" data-name="172" xmlns="http://www.w3.org/2000/svg" viewBox="0 0 402.69 474.15"><defs><style>.cls-1{isolation:isolate;font-size:8px;fill:#969696;font-family:PTSans-Regular, PT Sans;}.cls-14,.cls-15,.cls-16,.cls-17,.cls-2,.cls-9{fill:none;}.cls-2{stroke:#969696;}.cls-14,.cls-15,.cls-16,.cls-17,.cls-2{stroke-linecap:round;stroke-linejoin:round;}.cls-17,.cls-2{stroke-width:0.5px;}.cls-3{font-size:22px;}.cls-10,.cls-3{fill:#231f20;font-family:BigCityGrotesquePro-Regular, BigCity Grotesque Pro;}.cls-4{letter-spacing:-0.02em;}.cls-5{letter-spacing:-0.02em;}.cls-6{letter-spacing:-0.02em;}.cls-7{letter-spacing:0em;}.cls-8{letter-spacing:-0.04em;}.cls-14,.cls-15,.cls-16,.cls-17,.cls-9{stroke:#000;}.cls-9{stroke-miterlimit:10;stroke-width:0.32px;}.cls-10{font-size:24px;}.cls-11{letter-spacing:-0.02em;}.cls-12{letter-spacing:-0.02em;}.cls-13{letter-spacing:0em;}.cls-14{stroke-width:0.35px;}.cls-15{stroke-width:0.34px;}.cls-16{stroke-width:0.75px;}</style></defs><title>21floor_172flat</title><text class="cls-1" transform="translate(198.54 472.19)">двор</text><line class="cls-2" x1="190.04" y1="473.33" x2="190.04" y2="466.2"/><polyline class="cls-2" points="187.21 470.5 190.04 473.33 192.88 470.5"/><text class="cls-3" transform="translate(181.95 392.38)">14.90</text><text class="cls-3" transform="translate(47.44 392.38)">14.90</text><text class="cls-3" transform="translate(50.24 92.12)">11.30</text><text class="cls-3" transform="translate(303.38 392.38)">13<tspan class="cls-4" x="18.74" y="0">.</tspan><tspan x="23.41" y="0">60</tspan></text><text class="cls-3" transform="translate(298.4 182.14)">1<tspan class="cls-5" x="7.74" y="0">0</tspan><tspan class="cls-4" x="20.02" y="0">.</tspan><tspan x="24.68" y="0">60</tspan></text><text class="cls-3" transform="translate(28.53 193.17)">2<tspan class="cls-6" x="10.58" y="0">.</tspan><tspan class="cls-7" x="15.2" y="0">00</tspan></text><text class="cls-3" transform="translate(204.68 154.7) rotate(-90)">3<tspan class="cls-8" x="11" y="0">.</tspan><tspan x="15.14" y="0">10</tspan></text><text class="cls-3" transform="translate(256.15 164.43) rotate(-90)">1.20</text><text class="cls-3" transform="translate(284.65 113.78)">1.40</text><rect class="cls-9" x="167.21" y="252.66" width="80" height="31.31"/><rect class="cls-9" x="167.21" y="283.97" width="80" height="31.31"/><rect class="cls-9" x="167.21" y="315.29" width="80" height="31.31"/><text class="cls-10" transform="translate(178.68 276.03)">№172<tspan x="15.9" y="30.86">3</tspan><tspan class="cls-11" x="27.9" y="30.86">К</tspan><tspan x="0.7" y="61.72">73</tspan><tspan class="cls-12" x="23.57" y="61.72">.</tspan><tspan class="cls-13" x="28.61" y="61.72">00</tspan></text><line class="cls-14" x1="259.38" y1="105.3" x2="259.38" y2="120.03"/><polyline class="cls-14" points="260.04 104.42 260.04 98.84 244.12 98.84"/><line class="cls-14" x1="252.08" y1="107.87" x2="246.2" y2="107.87"/><polyline class="cls-14" points="259.38 120.03 257.96 107.87 252.08 107.87"/><line class="cls-14" x1="244.78" y1="120.03" x2="246.2" y2="107.87"/><line class="cls-14" x1="259.02" y1="120.03" x2="257.61" y2="107.87"/><line class="cls-14" x1="245.13" y1="120.03" x2="246.55" y2="107.87"/><line class="cls-14" x1="244.78" y1="105.3" x2="244.78" y2="120.03"/><line class="cls-14" x1="244.12" y1="98.85" x2="244.12" y2="104.42"/><polyline class="cls-14" points="259.38 120.03 259.2 121.67 258.58 123.21 257.56 124.54 256.24 125.65 254.69 126.4 252.96 126.8 251.19 126.8 249.47 126.4 247.92 125.65 246.59 124.54 245.58 123.21 244.96 121.67 244.78 120.03"/><polyline class="cls-14" points="259.02 120.03 258.8 121.58 258.23 123.04 257.25 124.32 256.01 125.34 254.56 126.04 252.92 126.44 251.24 126.44 249.6 126.04 248.14 125.34 246.9 124.32 245.93 123.04 245.36 121.58 245.13 120.03"/><path class="cls-14" d="M245,105a67.69,67.69,0,0,0,14.23,0" transform="translate(-0.04 0.38)"/><path class="cls-14" d="M259.27,105a.93.93,0,0,0,.81-.94" transform="translate(-0.04 0.38)"/><path class="cls-14" d="M244.2,104.07a.94.94,0,0,0,.82.94" transform="translate(-0.04 0.38)"/><path class="cls-14" d="M252.14,102.76a.78.78,0,1,0-.77-.77.78.78,0,0,0,.77.77" transform="translate(-0.04 0.38)"/><line class="cls-15" x1="154" y1="89.49" x2="174.34" y2="89.49"/><line class="cls-15" x1="176.75" y1="91.85" x2="176.75" y2="143.2"/><line class="cls-15" x1="151.64" y1="91.85" x2="151.64" y2="143.2"/><line class="cls-15" x1="179.15" y1="157.69" x2="179.15" y2="87.13"/><polyline class="cls-15" points="179.15 157.69 149.24 157.69 149.24 87.13 179.15 87.13"/><line class="cls-15" x1="155.78" y1="134.96" x2="155.78" y2="94.79"/><line class="cls-15" x1="157" y1="93.59" x2="171.39" y2="93.59"/><line class="cls-15" x1="172.57" y1="134.96" x2="172.57" y2="94.79"/><line class="cls-15" x1="163.46" y1="101.87" x2="161.98" y2="101.87"/><line class="cls-15" x1="164.17" y1="101.15" x2="164.17" y2="99.65"/><line class="cls-15" x1="164.93" y1="101.87" x2="166.41" y2="101.87"/><line class="cls-15" x1="164.17" y1="102.59" x2="164.17" y2="104.04"/><path class="cls-15" d="M151.68,142.84a12.56,12.56,0,0,0,25.11,0" transform="translate(-0.04 0.38)"/><path class="cls-15" d="M176.79,91.5a2.36,2.36,0,0,0-2.38-2.33" transform="translate(-0.04 0.38)"/><path class="cls-15" d="M154.07,89.17a2.36,2.36,0,0,0-2.39,2.33" transform="translate(-0.04 0.38)"/><path class="cls-15" d="M165.48,101.52a1.25,1.25,0,1,0-1.24,1.23,1.24,1.24,0,0,0,1.24-1.23" transform="translate(-0.04 0.38)"/><path class="cls-15" d="M155.82,134.61a8.42,8.42,0,0,0,16.83,0" transform="translate(-0.04 0.38)"/><path class="cls-15" d="M157.06,93.26a1.19,1.19,0,0,0-1.2,1.18" transform="translate(-0.04 0.38)"/><path class="cls-15" d="M172.65,94.44a1.19,1.19,0,0,0-1.2-1.18" transform="translate(-0.04 0.38)"/><path class="cls-15" d="M165.9,101.52a1.67,1.67,0,1,0-1.66,1.66,1.66,1.66,0,0,0,1.66-1.66" transform="translate(-0.04 0.38)"/><polyline class="cls-14" points="208.68 98.84 208.68 89.29 186.12 89.29 186.12 98.84"/><line class="cls-14" x1="193.81" y1="89.29" x2="200.94" y2="89.29"/><line class="cls-14" x1="195.5" y1="96.99" x2="196.69" y2="96.99"/><line class="cls-14" x1="197.4" y1="95.09" x2="197.4" y2="96.28"/><line class="cls-14" x1="198.1" y1="96.99" x2="199.3" y2="96.99"/><line class="cls-14" x1="197.4" y1="97.65" x2="197.4" y2="98.89"/><path class="cls-14" d="M207.35,99.09a10.06,10.06,0,0,0-3.9-4.76" transform="translate(-0.04 0.38)"/><path class="cls-14" d="M203.45,94.34a10,10,0,0,0-6-1.41" transform="translate(-0.04 0.38)"/><path class="cls-14" d="M191.47,94.33a10.12,10.12,0,0,0-3.9,4.76" transform="translate(-0.04 0.38)"/><path class="cls-14" d="M197.47,92.93a10,10,0,0,0-6,1.41" transform="translate(-0.04 0.38)"/><path class="cls-14" d="M186.17,98.51a5.7,5.7,0,0,0,2.14,4.71" transform="translate(-0.04 0.38)"/><path class="cls-14" d="M203.78,94.71a41.15,41.15,0,0,0-12.63,0" transform="translate(-0.04 0.38)"/><path class="cls-14" d="M190,90.76a14.23,14.23,0,0,0-3.2,9.21" transform="translate(-0.04 0.38)"/><path class="cls-14" d="M197.45,89.4a28.58,28.58,0,0,0-6.45.7" transform="translate(-0.04 0.38)"/><path class="cls-14" d="M191,90.11a1.88,1.88,0,0,0-1,.65" transform="translate(-0.04 0.38)"/><path class="cls-14" d="M197.45,90.29a46.8,46.8,0,0,0-6.36.46" transform="translate(-0.04 0.38)"/><path class="cls-14" d="M189.93,91.38a12.75,12.75,0,0,0-3.19,8.61" transform="translate(-0.04 0.38)"/><path class="cls-14" d="M191.1,90.75a1.85,1.85,0,0,0-1.15.62" transform="translate(-0.04 0.38)"/><path class="cls-14" d="M208.19,100a12.83,12.83,0,0,0-3.2-8.6" transform="translate(-0.04 0.38)"/><path class="cls-14" d="M208.14,100a14.15,14.15,0,0,0-3.21-9.21" transform="translate(-0.04 0.38)"/><path class="cls-14" d="M203.81,90.74a48.33,48.33,0,0,0-6.36-.45" transform="translate(-0.04 0.38)"/><path class="cls-14" d="M203.89,90.09a28.65,28.65,0,0,0-6.46-.68" transform="translate(-0.04 0.38)"/><path class="cls-14" d="M205,91.37a1.83,1.83,0,0,0-1.15-.62" transform="translate(-0.04 0.38)"/><path class="cls-14" d="M204.93,90.76a1.91,1.91,0,0,0-1-.65" transform="translate(-0.04 0.38)"/><path class="cls-14" d="M206.57,103.22a5.7,5.7,0,0,0,2.14-4.71" transform="translate(-0.04 0.38)"/><path class="cls-14" d="M205.11,104.21a8.74,8.74,0,0,0,1.5-1" transform="translate(-0.04 0.38)"/><path class="cls-14" d="M188.31,103.24a9.15,9.15,0,0,0,1.5,1" transform="translate(-0.04 0.38)"/><path class="cls-14" d="M189.83,104.21a18.53,18.53,0,0,0,6.85,1.86h1.57a18.53,18.53,0,0,0,6.84-1.86" transform="translate(-0.04 0.38)"/><path class="cls-14" d="M194.35,104.47a13.34,13.34,0,0,0,6.22,0" transform="translate(-0.04 0.38)"/><path class="cls-14" d="M206.17,101.89a3.38,3.38,0,0,0,1.17-2.79" transform="translate(-0.04 0.38)"/><path class="cls-14" d="M200.56,104.43a12.17,12.17,0,0,0,5.62-2.58" transform="translate(-0.04 0.38)"/><path class="cls-14" d="M187.54,99.1a3.38,3.38,0,0,0,1.17,2.79" transform="translate(-0.04 0.38)"/><path class="cls-14" d="M188.75,101.85a12.12,12.12,0,0,0,5.62,2.58" transform="translate(-0.04 0.38)"/><path class="cls-14" d="M197.46,98.12A1.49,1.49,0,1,0,196,96.64a1.48,1.48,0,0,0,1.48,1.48" transform="translate(-0.04 0.38)"/><path class="cls-14" d="M197.46,97.67a1,1,0,1,0-1-1,1,1,0,0,0,1,1" transform="translate(-0.04 0.38)"/><line class="cls-14" x1="194.23" y1="77.29" x2="201.35" y2="77.29"/><line class="cls-16" x1="402.31" y1="425.01" x2="402.31" y2="119.5"/><line class="cls-16" x1="392.28" y1="119.5" x2="392.28" y2="418.76"/><line class="cls-16" x1="402.31" y1="119.5" x2="402.31" y2="119.5"/><line class="cls-16" x1="402.31" y1="119.5" x2="392.28" y2="119.5"/><line class="cls-16" x1="392.28" y1="418.76" x2="402.31" y2="418.76"/><polyline class="cls-16" points="12.51 150.62 0.38 150.62 0.38 425.01"/><polyline class="cls-16" points="13.11 70.27 0.38 70.27 0.38 114.44 11.04 114.44"/><polyline class="cls-16" points="0.38 0.38 0.38 34.13 9.15 34.13"/><line class="cls-17" x1="0.38" y1="150.62" x2="0.38" y2="114.44"/><line class="cls-17" x1="0.38" y1="70.27" x2="0.38" y2="34.13"/><line class="cls-16" x1="370.17" y1="416.26" x2="370.17" y2="418.76"/><line class="cls-16" x1="243.65" y1="416.26" x2="243.65" y2="418.76"/><line class="cls-16" x1="297.85" y1="418.76" x2="297.85" y2="416.26"/><line class="cls-16" x1="171.33" y1="418.76" x2="171.33" y2="416.26"/><line class="cls-16" x1="370.17" y1="408.73" x2="392.28" y2="408.73"/><line class="cls-16" x1="243.65" y1="408.73" x2="297.85" y2="408.73"/><line class="cls-16" x1="149.22" y1="408.73" x2="171.33" y2="408.73"/><line class="cls-16" x1="370.17" y1="418.76" x2="392.28" y2="418.76"/><line class="cls-16" x1="243.65" y1="418.76" x2="297.85" y2="418.76"/><line class="cls-16" x1="149.22" y1="418.76" x2="171.33" y2="418.76"/><line class="cls-16" x1="117.08" y1="416.26" x2="117.08" y2="418.76"/><line class="cls-16" x1="44.76" y1="418.76" x2="44.76" y2="416.26"/><line class="cls-16" x1="117.08" y1="408.73" x2="139.19" y2="408.73"/><line class="cls-16" x1="16.66" y1="408.73" x2="44.76" y2="408.73"/><line class="cls-16" x1="117.08" y1="418.76" x2="139.19" y2="418.76"/><line class="cls-16" x1="16.66" y1="418.76" x2="44.76" y2="418.76"/><polyline class="cls-16" points="370.17 413.87 370.17 425.01 402.31 425.01"/><polyline class="cls-16" points="243.65 417.02 243.65 425.01 297.85 425.01 297.85 416.26"/><polyline class="cls-16" points="117.08 418.59 117.08 425.01 171.33 425.01 171.33 417.02"/><polyline class="cls-16" points="0.38 425.01 44.76 425.01 44.76 417.02"/><line class="cls-16" x1="402.31" y1="418.76" x2="392.28" y2="418.76"/><line class="cls-16" x1="392.28" y1="418.76" x2="370.17" y2="418.76"/><line class="cls-16" x1="297.85" y1="418.76" x2="243.65" y2="418.76"/><line class="cls-16" x1="171.33" y1="418.76" x2="149.22" y2="418.76"/><line class="cls-16" x1="139.19" y1="418.76" x2="117.08" y2="418.76"/><line class="cls-16" x1="44.76" y1="418.76" x2="16.66" y2="418.76"/><line class="cls-17" x1="370.17" y1="425.01" x2="297.85" y2="425.01"/><line class="cls-17" x1="243.65" y1="425.01" x2="171.33" y2="425.01"/><line class="cls-17" x1="117.08" y1="425.01" x2="44.76" y2="425.01"/><polyline class="cls-17" points="244.41 97.61 268.52 97.61 244.41 97.61 244.41 87.53 244.41 97.61"/><line class="cls-17" x1="244.41" y1="87.53" x2="244.41" y2="97.61"/><polyline class="cls-17" points="368.17 224.13 392.28 224.13 368.17 224.13 368.17 212.1 368.17 224.13"/><line class="cls-17" x1="368.17" y1="212.1" x2="368.17" y2="224.13"/><line class="cls-17" x1="69.67" y1="426.59" x2="69.67" y2="425.01"/><line class="cls-17" x1="68.87" y1="426.59" x2="68.87" y2="425.01"/><line class="cls-17" x1="92.16" y1="426.59" x2="92.16" y2="425.01"/><line class="cls-17" x1="92.97" y1="426.59" x2="92.97" y2="425.01"/><polyline class="cls-17" points="97.01 442.66 64.87 442.66 64.87 426.59 97.01 426.59 97.01 442.66"/><polyline class="cls-17" points="60.83 425.01 60.83 447.29 101.01 447.29 101.01 425.01"/><polyline class="cls-17" points="98.41 425.01 98.41 444.7 63.47 444.7 63.47 425.01"/><line class="cls-17" x1="98.41" y1="444.49" x2="63.47" y2="444.49"/><line class="cls-17" x1="196.24" y1="426.59" x2="196.24" y2="425.01"/><line class="cls-17" x1="195.43" y1="426.59" x2="195.43" y2="425.01"/><line class="cls-17" x1="218.73" y1="426.59" x2="218.73" y2="425.01"/><line class="cls-17" x1="219.54" y1="426.59" x2="219.54" y2="425.01"/><polyline class="cls-17" points="223.54 442.66 191.39 442.66 191.39 426.59 223.54 426.59 223.54 442.66"/><polyline class="cls-17" points="187.4 425.01 187.4 447.29 227.57 447.29 227.57 425.01"/><polyline class="cls-17" points="224.94 425.01 224.94 444.7 189.99 444.7 189.99 425.01"/><line class="cls-17" x1="224.94" y1="444.49" x2="189.99" y2="444.49"/><polyline class="cls-16" points="9.13 114.44 18.66 114.44 18.66 150.62 9.13 150.62"/><line class="cls-17" x1="6.79" y1="145.65" x2="6.79" y2="119.46"/><line class="cls-17" x1="7.47" y1="119.46" x2="7.47" y2="145.65"/><polyline class="cls-17" points="7.47 145.65 7.47 146.24 6.79 146.24 6.79 145.65 7.47 145.65"/><polyline class="cls-17" points="6.79 119.46 6.79 118.82 7.47 118.82 7.47 119.46 6.79 119.46"/><polyline class="cls-17" points="6.79 118.82 6.67 118.82 6.67 119.63 5.86 119.63 5.86 117.63 8.41 117.63 8.41 116.82 8.96 116.82 8.96 119.63 7.6 119.63 7.6 118.82 7.47 118.82"/><polyline class="cls-17" points="7.47 146.24 7.6 146.24 7.6 145.44 8.96 145.44 8.96 148.24 8.41 148.24 8.41 147.43 5.86 147.43 5.86 145.44 6.67 145.44 6.67 146.24 6.79 146.24"/><line class="cls-17" x1="6.67" y1="119.63" x2="6.67" y2="145.44"/><line class="cls-17" x1="7.6" y1="145.44" x2="7.6" y2="119.63"/><line class="cls-17" x1="8.96" y1="119.63" x2="8.96" y2="145.44"/><line class="cls-17" x1="5.86" y1="145.44" x2="5.86" y2="119.63"/><polyline class="cls-17" points="8.32 115.46 8.32 117.46 5.77 117.46 5.77 118.27 5.22 118.27 5.22 115.46 8.32 115.46"/><polyline class="cls-17" points="5.22 149.6 5.22 146.8 5.77 146.8 5.77 147.6 8.32 147.6 8.32 149.6 5.22 149.6"/><line class="cls-17" x1="5.22" y1="146.8" x2="5.22" y2="118.27"/><line class="cls-17" x1="8.33" y1="117.46" x2="8.33" y2="117.63"/><line class="cls-17" x1="8.33" y1="147.43" x2="8.33" y2="147.6"/><line class="cls-17" x1="5.77" y1="118.27" x2="5.77" y2="146.8"/><line class="cls-16" x1="15.98" y1="2.84" x2="16.06" y2="2.71"/><line class="cls-16" x1="12.19" y1="34.13" x2="12.53" y2="33.75"/><polyline class="cls-16" points="6.63 0.38 6.63 34.13 9.13 34.13"/><line class="cls-16" x1="16.66" y1="34.13" x2="16.66" y2="0.38"/><line class="cls-16" x1="16.66" y1="114.44" x2="16.66" y2="70.27"/><polyline class="cls-16" points="9.13 70.27 6.63 70.27 6.63 114.44 9.13 114.44"/><line class="cls-16" x1="16.66" y1="418.76" x2="16.66" y2="150.62"/><polyline class="cls-16" points="9.13 150.62 6.63 150.62 6.63 418.76 16.66 418.76"/><polyline class="cls-16" points="149.22 418.76 149.22 322.34 139.19 322.34 139.19 418.76 149.22 418.76"/><polyline class="cls-17" points="234.38 91.57 234.38 127.71 232.38 127.71"/><polyline class="cls-17" points="214.31 127.71 225.96 127.71 214.31 127.71 214.31 91.57 234.38 91.57"/><polyline class="cls-17" points="232.38 127.71 234.38 127.71 234.38 91.57 214.31 91.57 214.31 127.71"/><polyline class="cls-17" points="234.38 91.57 214.31 91.57 214.31 127.71"/><polyline class="cls-17" points="368.17 212.1 368.17 231.15 331.99 231.15 331.99 212.86 331.99 231.15 368.17 231.15 368.17 212.1"/><line class="cls-17" x1="331.99" y1="212.86" x2="331.99" y2="231.15"/><line class="cls-16" x1="345.04" y1="129.54" x2="345.04" y2="125.5"/><line class="cls-16" x1="345.04" y1="122.69" x2="345.04" y2="119.5"/><polyline class="cls-16" points="392.28 119.5 392.28 118.69 387.22 118.69 387.22 119.5"/><line class="cls-16" x1="387.22" y1="119.5" x2="387.22" y2="122.69"/><line class="cls-16" x1="387.22" y1="125.5" x2="387.22" y2="129.54"/><line class="cls-16" x1="345.04" y1="129.54" x2="334.2" y2="129.54"/><line class="cls-16" x1="392.28" y1="129.54" x2="387.22" y2="129.54"/><line class="cls-16" x1="345.04" y1="119.5" x2="344.24" y2="119.5"/><line class="cls-16" x1="392.28" y1="119.5" x2="387.22" y2="119.5"/><line class="cls-16" x1="344.24" y1="77.5" x2="344.24" y2="77.5"/><line class="cls-16" x1="344.24" y1="77.5" x2="344.24" y2="77.5"/><line class="cls-16" x1="344.24" y1="77.5" x2="344.24" y2="77.5"/><line class="cls-16" x1="344.24" y1="77.5" x2="334.2" y2="77.5"/><line class="cls-16" x1="16.66" y1="0.38" x2="16.66" y2="10.41"/><line class="cls-16" x1="0.76" y1="0.38" x2="139.19" y2="0.38"/><line class="cls-16" x1="16.66" y1="10.41" x2="139.19" y2="10.41"/><line class="cls-16" x1="344.24" y1="77.5" x2="344.24" y2="119.5"/><line class="cls-16" x1="334.2" y1="77.5" x2="334.2" y2="77.5"/><line class="cls-16" x1="334.2" y1="87.53" x2="334.2" y2="129.54"/><line class="cls-16" x1="103.01" y1="212.1" x2="103.01" y2="208.87"/><line class="cls-16" x1="148.03" y1="212.1" x2="148.03" y2="208.87"/><line class="cls-16" x1="135.15" y1="208.87" x2="135.15" y2="212.1"/><line class="cls-16" x1="287.73" y1="212.1" x2="287.73" y2="208.87"/><line class="cls-16" x1="180.17" y1="208.87" x2="180.17" y2="212.1"/><line class="cls-16" x1="319.83" y1="208.87" x2="319.83" y2="212.1"/><line class="cls-16" x1="103.01" y1="212.1" x2="16.66" y2="212.1"/><line class="cls-16" x1="139.99" y1="212.1" x2="135.15" y2="212.1"/><line class="cls-16" x1="287.73" y1="212.1" x2="273.96" y2="212.1"/><line class="cls-16" x1="270.73" y1="212.1" x2="180.17" y2="212.1"/><line class="cls-16" x1="148.03" y1="212.1" x2="143.18" y2="212.1"/><line class="cls-16" x1="103.01" y1="208.87" x2="93.57" y2="208.87"/><line class="cls-16" x1="90.38" y1="208.87" x2="16.66" y2="208.87"/><line class="cls-16" x1="148.03" y1="208.87" x2="135.15" y2="208.87"/><line class="cls-16" x1="287.73" y1="208.87" x2="180.17" y2="208.87"/><line class="cls-16" x1="338.84" y1="212.1" x2="338.84" y2="208.87"/><line class="cls-16" x1="273.96" y1="408.73" x2="273.96" y2="212.1"/><line class="cls-16" x1="270.73" y1="212.1" x2="270.73" y2="408.73"/><line class="cls-16" x1="334.2" y1="77.5" x2="334.2" y2="77.5"/><line class="cls-16" x1="102.24" y1="163.46" x2="102.24" y2="160.27"/><line class="cls-16" x1="134.34" y1="160.27" x2="134.34" y2="163.46"/><line class="cls-16" x1="102.24" y1="163.46" x2="93.57" y2="163.46"/><line class="cls-16" x1="139.19" y1="163.46" x2="134.34" y2="163.46"/><line class="cls-16" x1="90.38" y1="163.46" x2="16.66" y2="163.46"/><line class="cls-16" x1="102.24" y1="160.27" x2="16.66" y2="160.27"/><line class="cls-16" x1="139.19" y1="160.27" x2="134.34" y2="160.27"/><line class="cls-16" x1="90.38" y1="170.09" x2="93.57" y2="170.09"/><line class="cls-16" x1="93.57" y1="202.24" x2="90.38" y2="202.24"/><line class="cls-16" x1="90.38" y1="170.09" x2="90.38" y2="163.46"/><line class="cls-16" x1="90.38" y1="208.87" x2="90.38" y2="202.24"/><line class="cls-16" x1="93.57" y1="170.09" x2="93.57" y2="163.46"/><line class="cls-16" x1="93.57" y1="208.87" x2="93.57" y2="202.24"/><line class="cls-16" x1="143.18" y1="212.1" x2="143.18" y2="322.34"/><line class="cls-16" x1="139.99" y1="212.1" x2="139.99" y2="322.34"/><line class="cls-16" x1="319.83" y1="212.1" x2="392.28" y2="212.1"/><line class="cls-16" x1="392.28" y1="208.87" x2="319.83" y2="208.87"/><line class="cls-16" x1="180.17" y1="163.46" x2="180.17" y2="158.66"/><line class="cls-16" x1="232.76" y1="163.46" x2="232.76" y2="158.66"/><line class="cls-16" x1="212.31" y1="158.66" x2="212.31" y2="163.46"/><line class="cls-16" x1="264.9" y1="158.66" x2="264.9" y2="163.46"/><line class="cls-16" x1="180.17" y1="163.46" x2="149.22" y2="163.46"/><line class="cls-16" x1="232.76" y1="163.46" x2="212.31" y2="163.46"/><line class="cls-16" x1="273.36" y1="163.46" x2="264.9" y2="163.46"/><line class="cls-16" x1="180.17" y1="158.66" x2="149.22" y2="158.66"/><line class="cls-16" x1="268.52" y1="158.66" x2="264.9" y2="158.66"/><line class="cls-16" x1="232.76" y1="158.66" x2="231.57" y2="158.66"/><line class="cls-16" x1="226.77" y1="158.66" x2="212.31" y2="158.66"/><line class="cls-16" x1="273.36" y1="87.53" x2="273.36" y2="163.46"/><line class="cls-16" x1="268.52" y1="87.53" x2="268.52" y2="158.66"/><line class="cls-17" x1="231.57" y1="125.71" x2="226.77" y2="125.71"/><line class="cls-16" x1="231.57" y1="125.71" x2="231.57" y2="158.66"/><line class="cls-16" x1="226.77" y1="125.71" x2="226.77" y2="158.66"/><line class="cls-16" x1="319.83" y1="126.3" x2="319.83" y2="129.54"/><line class="cls-16" x1="334.2" y1="129.54" x2="334.2" y2="126.3"/><line class="cls-16" x1="287.73" y1="129.54" x2="287.73" y2="126.3"/><line class="cls-16" x1="319.83" y1="126.3" x2="334.2" y2="126.3"/><line class="cls-16" x1="273.36" y1="126.3" x2="287.73" y2="126.3"/><line class="cls-16" x1="319.83" y1="129.54" x2="334.2" y2="129.54"/><line class="cls-16" x1="273.36" y1="129.54" x2="287.73" y2="129.54"/><line class="cls-17" x1="216.31" y1="100.28" x2="218.31" y2="98.29"/><line class="cls-17" x1="221.03" y1="95.57" x2="223.03" y2="93.57"/><line class="cls-17" x1="216.31" y1="109.47" x2="218.31" y2="107.47"/><line class="cls-17" x1="229.57" y1="96.2" x2="232.21" y2="93.57"/><line class="cls-17" x1="223.75" y1="102.03" x2="225.75" y2="99.99"/><line class="cls-17" x1="216.31" y1="118.61" x2="218.39" y2="116.53"/><line class="cls-17" x1="230.38" y1="104.58" x2="232.38" y2="102.54"/><line class="cls-17" x1="218.39" y1="125.71" x2="220.43" y2="123.63"/><line class="cls-17" x1="230.38" y1="113.72" x2="232.38" y2="111.72"/><line class="cls-17" x1="224.81" y1="119.29" x2="226.81" y2="117.29"/><line class="cls-17" x1="227.53" y1="125.71" x2="232.38" y2="120.86"/><line class="cls-17" x1="216.31" y1="95.69" x2="217.58" y2="94.46"/><line class="cls-17" x1="216.44" y1="104.75" x2="218.39" y2="102.79"/><line class="cls-17" x1="225.62" y1="95.57" x2="227.62" y2="93.57"/><line class="cls-17" x1="219.11" y1="102.07" x2="221.2" y2="99.99"/><line class="cls-17" x1="216.31" y1="114.06" x2="218.31" y2="112.02"/><line class="cls-17" x1="229.02" y1="101.35" x2="232.38" y2="97.99"/><line class="cls-17" x1="216.44" y1="123.07" x2="216.52" y2="122.99"/><line class="cls-17" x1="217.58" y1="121.97" x2="218.31" y2="121.2"/><line class="cls-17" x1="230.38" y1="109.13" x2="231.32" y2="108.19"/><line class="cls-17" x1="220.22" y1="119.29" x2="222.22" y2="117.29"/><line class="cls-17" x1="222.98" y1="125.71" x2="224.98" y2="123.71"/><line class="cls-17" x1="230.17" y1="118.52" x2="232.38" y2="116.31"/><line class="cls-17" x1="232.12" y1="125.71" x2="232.38" y2="125.45"/><polyline class="cls-17" points="216.31 93.57 216.31 125.71 232.38 125.71 232.38 93.57 216.31 93.57"/><line class="cls-17" x1="229.36" y1="117.29" x2="219.33" y2="117.29"/><path class="cls-17" d="M218.39,115.87a1,1,0,0,0,1,1" transform="translate(-0.04 0.38)"/><line class="cls-17" x1="218.31" y1="116.27" x2="218.31" y2="103.01"/><path class="cls-17" d="M219.39,101.61a1,1,0,0,0-1,1" transform="translate(-0.04 0.38)"/><line class="cls-17" x1="219.33" y1="102.03" x2="229.36" y2="102.03"/><path class="cls-17" d="M230.42,102.61a1,1,0,0,0-1-1" transform="translate(-0.04 0.38)"/><line class="cls-17" x1="230.38" y1="103.01" x2="230.38" y2="116.27"/><path class="cls-17" d="M229.42,116.87a1,1,0,0,0,1-1" transform="translate(-0.04 0.38)"/><line class="cls-17" x1="229.36" y1="99.99" x2="219.33" y2="99.99"/><path class="cls-17" d="M218.39,98.61a1,1,0,0,0,1,1" transform="translate(-0.04 0.38)"/><line class="cls-17" x1="218.31" y1="99.01" x2="218.31" y2="97.99"/><path class="cls-17" d="M220.79,95.19a2.41,2.41,0,0,0-2.4,2.4" transform="translate(-0.04 0.38)"/><line class="cls-17" x1="220.73" y1="95.57" x2="227.96" y2="95.57"/><path class="cls-17" d="M230.42,97.59a2.4,2.4,0,0,0-2.4-2.4" transform="translate(-0.04 0.38)"/><line class="cls-17" x1="230.38" y1="97.99" x2="230.38" y2="99.01"/><path class="cls-17" d="M229.42,99.61a1,1,0,0,0,1-1" transform="translate(-0.04 0.38)"/><line class="cls-17" x1="227.96" y1="123.71" x2="220.73" y2="123.71"/><path class="cls-17" d="M218.39,120.89a2.4,2.4,0,0,0,2.4,2.4" transform="translate(-0.04 0.38)"/><line class="cls-17" x1="218.31" y1="121.29" x2="218.31" y2="120.27"/><path class="cls-17" d="M219.39,118.87a1,1,0,0,0-1,1" transform="translate(-0.04 0.38)"/><line class="cls-17" x1="219.33" y1="119.29" x2="229.36" y2="119.29"/><path class="cls-17" d="M230.42,119.87a1,1,0,0,0-1-1" transform="translate(-0.04 0.38)"/><line class="cls-17" x1="230.38" y1="120.27" x2="230.38" y2="121.29"/><path class="cls-17" d="M228,123.29a2.39,2.39,0,0,0,2.4-2.4" transform="translate(-0.04 0.38)"/><path class="cls-17" d="M218.62,96.58a1.54,1.54,0,0,0-.08.19" transform="translate(-0.04 0.38)"/><path class="cls-17" d="M220,95.34l-.19.08" transform="translate(-0.04 0.38)"/><path class="cls-17" d="M229,95.42l-.2-.08" transform="translate(-0.04 0.38)"/><path class="cls-17" d="M230.28,96.77c0-.06-.05-.13-.08-.19" transform="translate(-0.04 0.38)"/><path class="cls-17" d="M230.2,121.91l.08-.2" transform="translate(-0.04 0.38)"/><path class="cls-17" d="M228.84,123.15l.2-.08" transform="translate(-0.04 0.38)"/><path class="cls-17" d="M219.78,123.07l.19.08" transform="translate(-0.04 0.38)"/><path class="cls-17" d="M218.54,121.71a1.67,1.67,0,0,0,.08.2" transform="translate(-0.04 0.38)"/><line class="cls-17" x1="333.99" y1="220.81" x2="336.03" y2="218.82"/><line class="cls-17" x1="340.28" y1="214.57" x2="342.75" y2="212.1"/><line class="cls-17" x1="335.86" y1="228.17" x2="337.94" y2="226.04"/><line class="cls-17" x1="349.93" y1="214.1" x2="351.93" y2="212.1"/><line class="cls-17" x1="340.45" y1="223.58" x2="342.45" y2="221.58"/><line class="cls-17" x1="345" y1="228.17" x2="347.04" y2="226.13"/><line class="cls-17" x1="357.71" y1="215.46" x2="361.07" y2="212.1"/><line class="cls-17" x1="354.18" y1="228.17" x2="356.18" y2="226.13"/><line class="cls-17" x1="364.13" y1="218.18" x2="366.13" y2="216.18"/><line class="cls-17" x1="357.71" y1="224.64" x2="359.71" y2="222.6"/><line class="cls-17" x1="363.37" y1="228.17" x2="366.13" y2="225.36"/><line class="cls-17" x1="333.99" y1="216.27" x2="336.67" y2="213.59"/><line class="cls-16" x1="337.82" y1="212.44" x2="337.94" y2="212.35"/><line class="cls-17" x1="334.37" y1="225.02" x2="334.5" y2="224.94"/><line class="cls-17" x1="335.52" y1="223.88" x2="336.03" y2="223.41"/><line class="cls-17" x1="345.34" y1="214.1" x2="347.34" y2="212.1"/><line class="cls-17" x1="340.45" y1="218.99" x2="341.26" y2="218.18"/><line class="cls-17" x1="342.41" y1="217.03" x2="342.45" y2="216.99"/><line class="cls-17" x1="340.45" y1="228.17" x2="342.75" y2="225.83"/><line class="cls-17" x1="354.99" y1="213.59" x2="355.12" y2="213.5"/><line class="cls-16" x1="356.14" y1="212.44" x2="356.52" y2="212.1"/><line class="cls-17" x1="349.59" y1="228.17" x2="350.44" y2="227.32"/><line class="cls-17" x1="351.59" y1="226.17" x2="351.59" y2="226.13"/><line class="cls-17" x1="363.15" y1="214.61" x2="365.66" y2="212.1"/><line class="cls-17" x1="357.71" y1="220.05" x2="358.44" y2="219.33"/><line class="cls-17" x1="359.58" y1="218.18" x2="359.67" y2="218.05"/><line class="cls-17" x1="358.78" y1="228.17" x2="360.77" y2="226.13"/><line class="cls-17" x1="364.17" y1="222.73" x2="364.26" y2="222.64"/><line class="cls-17" x1="365.32" y1="221.58" x2="366.13" y2="220.77"/><polyline class="cls-17" points="366.13 212.1 333.99 212.1 333.99 228.17 366.13 228.17 366.13 212.1"/><line class="cls-17" x1="342.45" y1="225.15" x2="342.45" y2="215.08"/><path class="cls-17" d="M343.53,213.68a1,1,0,0,0-1,1" transform="translate(-0.04 0.38)"/><line class="cls-17" x1="343.47" y1="214.1" x2="356.69" y2="214.1"/><path class="cls-17" d="M357.76,214.68a1,1,0,0,0-1-1" transform="translate(-0.04 0.38)"/><line class="cls-17" x1="357.71" y1="215.08" x2="357.71" y2="225.15"/><path class="cls-17" d="M356.76,225.75a1,1,0,0,0,1-1" transform="translate(-0.04 0.38)"/><line class="cls-17" x1="356.69" y1="226.13" x2="343.47" y2="226.13"/><path class="cls-17" d="M342.54,224.75a1,1,0,0,0,1,1" transform="translate(-0.04 0.38)"/><line class="cls-17" x1="359.71" y1="225.15" x2="359.71" y2="215.08"/><path class="cls-17" d="M360.8,213.68a1,1,0,0,0-1,1" transform="translate(-0.04 0.38)"/><line class="cls-17" x1="360.73" y1="214.1" x2="361.71" y2="214.1"/><path class="cls-17" d="M364.18,216.12a2.41,2.41,0,0,0-2.41-2.4" transform="translate(-0.04 0.38)"/><line class="cls-17" x1="364.13" y1="216.52" x2="364.13" y2="223.75"/><path class="cls-17" d="M361.77,225.75a2.4,2.4,0,0,0,2.41-2.4" transform="translate(-0.04 0.38)"/><line class="cls-17" x1="361.71" y1="226.13" x2="360.73" y2="226.13"/><path class="cls-17" d="M359.8,224.75a1,1,0,0,0,1,1" transform="translate(-0.04 0.38)"/><line class="cls-17" x1="336.03" y1="223.75" x2="336.03" y2="216.52"/><path class="cls-17" d="M338.47,213.72a2.41,2.41,0,0,0-2.4,2.4" transform="translate(-0.04 0.38)"/><line class="cls-17" x1="338.41" y1="214.1" x2="339.43" y2="214.1"/><path class="cls-17" d="M340.49,214.68a1,1,0,0,0-1-1" transform="translate(-0.04 0.38)"/><line class="cls-17" x1="340.45" y1="215.08" x2="340.45" y2="225.15"/><path class="cls-17" d="M339.5,225.75a1,1,0,0,0,1-1" transform="translate(-0.04 0.38)"/><line class="cls-17" x1="339.43" y1="226.13" x2="338.41" y2="226.13"/><path class="cls-17" d="M336.07,223.35a2.4,2.4,0,0,0,2.4,2.4" transform="translate(-0.04 0.38)"/><path class="cls-17" d="M362.79,214l-.19-.08" transform="translate(-0.04 0.38)"/><path class="cls-17" d="M364,215.3a1.54,1.54,0,0,0-.08-.19" transform="translate(-0.04 0.38)"/><path class="cls-17" d="M364,224.37a1.67,1.67,0,0,0,.08-.2" transform="translate(-0.04 0.38)"/><path class="cls-17" d="M362.6,225.61l.19-.08" transform="translate(-0.04 0.38)"/><path class="cls-17" d="M337.46,225.53l.19.08" transform="translate(-0.04 0.38)"/><path class="cls-17" d="M336.22,224.17a1.67,1.67,0,0,0,.08.2" transform="translate(-0.04 0.38)"/><path class="cls-17" d="M336.3,215.11a1.54,1.54,0,0,0-.08.19" transform="translate(-0.04 0.38)"/><path class="cls-17" d="M337.65,213.87l-.19.08" transform="translate(-0.04 0.38)"/><polyline class="cls-16" points="370.17 416.26 370.17 406.73 297.85 406.73 297.85 416.26"/><polyline class="cls-17" points="345.21 417.02 345.21 419.61 344.66 419.61 344.66 420.17 347.47 420.17 347.47 419.61 346.66 419.61 346.66 417.02 345.21 417.02"/><line class="cls-17" x1="346.91" y1="419.61" x2="346.91" y2="419.53"/><line class="cls-17" x1="346.83" y1="417.02" x2="346.66" y2="417.02"/><polyline class="cls-17" points="303.04 418.72 302.23 418.72 302.23 417.74 303.04 417.74 303.04 416.38 300.23 416.38 300.23 416.98 301.04 416.98 301.04 419.53 303.04 419.53 303.04 418.72"/><polyline class="cls-17" points="344.11 418.72 343.3 418.72 343.3 419.53 345.3 419.53 345.3 416.98 346.11 416.98 346.11 416.38 343.3 416.38 343.3 417.74 344.11 417.74 344.11 418.72"/><line class="cls-17" x1="343.3" y1="418.72" x2="303.04" y2="418.72"/><line class="cls-17" x1="303.04" y1="419.53" x2="343.3" y2="419.53"/><line class="cls-17" x1="303.04" y1="417.74" x2="343.3" y2="417.74"/><line class="cls-17" x1="343.3" y1="416.38" x2="303.04" y2="416.38"/><polyline class="cls-17" points="298.87 420.17 301.68 420.17 301.68 419.61 300.87 419.61 300.87 417.02 298.87 417.02 298.87 420.17"/><polyline class="cls-17" points="369.15 420.17 369.15 417.02 367.15 417.02 367.15 419.61 366.34 419.61 366.34 420.17 369.15 420.17"/><line class="cls-17" x1="301.68" y1="420.17" x2="344.66" y2="420.17"/><line class="cls-17" x1="347.47" y1="420.17" x2="366.34" y2="420.17"/><line class="cls-17" x1="367.15" y1="417.02" x2="366.98" y2="417.02"/><line class="cls-17" x1="301.04" y1="417.02" x2="300.87" y2="417.02"/><line class="cls-17" x1="366.34" y1="419.61" x2="347.47" y2="419.61"/><line class="cls-17" x1="344.66" y1="419.61" x2="301.68" y2="419.61"/><polyline class="cls-17" points="365.79 417.74 365.79 418.72 364.98 418.72 364.98 419.53 366.98 419.53 366.98 416.98 367.79 416.98 367.79 416.38 364.98 416.38 364.98 417.74 365.79 417.74"/><polyline class="cls-17" points="348.02 418.72 348.02 417.74 348.83 417.74 348.83 416.38 346.02 416.38 346.02 416.98 346.83 416.98 346.83 419.53 348.83 419.53 348.83 418.72 348.02 418.72"/><line class="cls-17" x1="364.98" y1="418.72" x2="348.83" y2="418.72"/><line class="cls-17" x1="348.83" y1="417.74" x2="364.98" y2="417.74"/><line class="cls-17" x1="364.98" y1="416.38" x2="348.83" y2="416.38"/><line class="cls-17" x1="348.83" y1="419.53" x2="364.98" y2="419.53"/><polyline class="cls-16" points="117.08 416.26 117.08 406.73 44.76 406.73 44.76 416.26"/><polyline class="cls-17" points="92.12 417.02 92.12 419.61 91.57 419.61 91.57 420.17 94.38 420.17 94.38 419.61 93.57 419.61 93.57 417.02 92.12 417.02"/><line class="cls-17" x1="93.87" y1="419.61" x2="93.87" y2="419.53"/><line class="cls-17" x1="93.74" y1="417.02" x2="93.57" y2="417.02"/><polyline class="cls-17" points="49.95 418.72 49.14 418.72 49.14 417.74 49.95 417.74 49.95 416.38 47.14 416.38 47.14 416.98 47.95 416.98 47.95 419.53 49.95 419.53 49.95 418.72"/><polyline class="cls-17" points="91.02 418.72 90.21 418.72 90.21 419.53 92.21 419.53 92.21 416.98 93.02 416.98 93.02 416.38 90.21 416.38 90.21 417.74 91.02 417.74 91.02 418.72"/><line class="cls-17" x1="90.21" y1="418.72" x2="49.95" y2="418.72"/><line class="cls-17" x1="49.95" y1="419.53" x2="90.21" y2="419.53"/><line class="cls-17" x1="49.95" y1="417.74" x2="90.21" y2="417.74"/><line class="cls-17" x1="90.21" y1="416.38" x2="49.95" y2="416.38"/><polyline class="cls-17" points="45.78 420.17 48.59 420.17 48.59 419.61 47.78 419.61 47.78 417.02 45.78 417.02 45.78 420.17"/><polyline class="cls-17" points="116.1 420.17 116.1 417.02 114.06 417.02 114.06 419.61 113.25 419.61 113.25 420.17 116.1 420.17"/><line class="cls-17" x1="48.59" y1="420.17" x2="91.57" y2="420.17"/><line class="cls-17" x1="94.38" y1="420.17" x2="113.25" y2="420.17"/><line class="cls-17" x1="114.06" y1="417.02" x2="113.93" y2="417.02"/><line class="cls-17" x1="47.95" y1="417.02" x2="47.78" y2="417.02"/><line class="cls-17" x1="113.25" y1="419.61" x2="94.38" y2="419.61"/><line class="cls-17" x1="91.57" y1="419.61" x2="48.59" y2="419.61"/><polyline class="cls-17" points="112.7 417.74 112.7 418.72 111.89 418.72 111.89 419.53 113.93 419.53 113.93 416.98 114.7 416.98 114.7 416.38 111.89 416.38 111.89 417.74 112.7 417.74"/><polyline class="cls-17" points="94.97 418.72 94.97 417.74 95.74 417.74 95.74 416.38 92.93 416.38 92.93 416.98 93.74 416.98 93.74 419.53 95.74 419.53 95.74 418.72 94.97 418.72"/><line class="cls-17" x1="111.89" y1="418.72" x2="95.74" y2="418.72"/><line class="cls-17" x1="95.74" y1="417.74" x2="111.89" y2="417.74"/><line class="cls-17" x1="111.89" y1="416.38" x2="95.74" y2="416.38"/><line class="cls-17" x1="95.74" y1="419.53" x2="111.89" y2="419.53"/><polyline class="cls-16" points="243.65 416.26 243.65 406.73 171.33 406.73 171.33 416.26"/><polyline class="cls-17" points="194.54 417.02 194.54 419.61 194.03 419.61 194.03 420.17 196.84 420.17 196.84 419.61 196.03 419.61 196.03 417.02 194.54 417.02"/><line class="cls-17" x1="196.28" y1="419.61" x2="196.28" y2="419.53"/><line class="cls-17" x1="196.2" y1="417.02" x2="196.03" y2="417.02"/><polyline class="cls-17" points="176.51 418.72 175.71 418.72 175.71 417.74 176.51 417.74 176.51 416.38 173.67 416.38 173.67 416.98 174.47 416.98 174.47 419.53 176.51 419.53 176.51 418.72"/><polyline class="cls-17" points="193.44 418.72 192.63 418.72 192.63 419.53 194.67 419.53 194.67 416.98 195.48 416.98 195.48 416.38 192.63 416.38 192.63 417.74 193.44 417.74 193.44 418.72"/><line class="cls-17" x1="192.63" y1="418.72" x2="176.51" y2="418.72"/><line class="cls-17" x1="176.51" y1="419.53" x2="192.63" y2="419.53"/><line class="cls-17" x1="176.51" y1="417.74" x2="192.63" y2="417.74"/><line class="cls-17" x1="192.63" y1="416.38" x2="176.51" y2="416.38"/><polyline class="cls-17" points="242.63 420.17 242.63 417.02 240.63 417.02 240.63 419.61 239.82 419.61 239.82 420.17 242.63 420.17"/><polyline class="cls-17" points="172.31 420.17 175.15 420.17 175.15 419.61 174.35 419.61 174.35 417.02 172.31 417.02 172.31 420.17"/><line class="cls-17" x1="175.15" y1="420.17" x2="194.03" y2="420.17"/><line class="cls-17" x1="196.84" y1="420.17" x2="239.82" y2="420.17"/><line class="cls-17" x1="240.63" y1="417.02" x2="240.46" y2="417.02"/><line class="cls-17" x1="174.47" y1="417.02" x2="174.35" y2="417.02"/><line class="cls-17" x1="239.82" y1="419.61" x2="196.84" y2="419.61"/><line class="cls-17" x1="194.03" y1="419.61" x2="175.15" y2="419.61"/><polyline class="cls-17" points="239.27 417.74 239.27 418.72 238.46 418.72 238.46 419.53 240.46 419.53 240.46 416.98 241.26 416.98 241.26 416.38 238.46 416.38 238.46 417.74 239.27 417.74"/><polyline class="cls-17" points="197.39 418.72 197.39 417.74 198.2 417.74 198.2 416.38 195.39 416.38 195.39 416.98 196.2 416.98 196.2 419.53 198.2 419.53 198.2 418.72 197.39 418.72"/><line class="cls-17" x1="238.46" y1="418.72" x2="198.2" y2="418.72"/><line class="cls-17" x1="198.2" y1="417.74" x2="238.46" y2="417.74"/><line class="cls-17" x1="238.46" y1="416.38" x2="198.2" y2="416.38"/><line class="cls-17" x1="198.2" y1="419.53" x2="238.46" y2="419.53"/><polyline class="cls-16" points="344.24 77.5 344.24 77.5 344.24 77.5 344.24 77.5 344.24 77.5 344.24 77.5 344.24 77.5"/><polyline class="cls-17" points="351.5 143.01 384.24 124.14 385.01 125.5 352.31 144.37 351.5 143.01"/><polyline class="cls-16" points="386.45 125.5 385.01 125.5 385.01 123.92 384.63 123.92 384.63 122.69 386.45 122.69 386.45 125.5"/><polyline class="cls-16" points="347.68 122.69 347.68 123.92 347.25 123.92 347.25 125.5 345.85 125.5 345.85 122.69 347.68 122.69"/><polyline class="cls-16" points="9.13 34.13 18.66 34.13 18.66 70.27 9.13 70.27"/><line class="cls-17" x1="6.79" y1="65.3" x2="6.79" y2="39.11"/><line class="cls-17" x1="7.47" y1="39.11" x2="7.47" y2="65.3"/><polyline class="cls-17" points="7.47 65.3 7.47 65.89 6.79 65.89 6.79 65.3 7.47 65.3"/><polyline class="cls-17" points="6.79 39.11 6.79 38.51 7.47 38.51 7.47 39.11 6.79 39.11"/><polyline class="cls-17" points="7.47 65.89 7.6 65.89 7.6 65.08 8.96 65.08 8.96 67.89 8.41 67.89 8.41 67.08 5.86 67.08 5.86 65.08 6.67 65.08 6.67 65.89 6.79 65.89"/><polyline class="cls-17" points="6.79 38.51 6.67 38.51 6.67 39.32 5.86 39.32 5.86 37.28 8.41 37.28 8.41 36.47 8.96 36.47 8.96 39.32 7.6 39.32 7.6 38.51 7.47 38.51"/><line class="cls-17" x1="6.67" y1="39.32" x2="6.67" y2="65.08"/><line class="cls-17" x1="7.6" y1="65.08" x2="7.6" y2="39.32"/><line class="cls-17" x1="8.96" y1="39.32" x2="8.96" y2="65.08"/><line class="cls-17" x1="5.86" y1="65.08" x2="5.86" y2="39.32"/><polyline class="cls-17" points="8.32 35.11 8.32 37.15 5.77 37.15 5.77 37.92 5.22 37.92 5.22 35.11 8.32 35.11"/><polyline class="cls-17" points="5.22 69.25 5.22 66.44 5.77 66.44 5.77 67.25 8.32 67.25 8.32 69.25 5.22 69.25"/><line class="cls-17" x1="5.22" y1="66.44" x2="5.22" y2="37.92"/><line class="cls-17" x1="8.33" y1="37.15" x2="8.33" y2="37.28"/><line class="cls-17" x1="8.33" y1="67.08" x2="8.33" y2="67.25"/><line class="cls-17" x1="5.77" y1="37.92" x2="5.77" y2="66.44"/><polyline class="cls-16" points="149.22 0.38 139.19 0.38 139.19 164.27 149.22 164.27 149.22 0.38"/><line class="cls-16" x1="196.96" y1="87.53" x2="197.05" y2="87.49"/><line class="cls-16" x1="261.12" y1="87.53" x2="261.16" y2="87.49"/><line class="cls-16" x1="325.27" y1="87.53" x2="325.32" y2="87.49"/><polyline class="cls-16" points="334.2 87.53 334.2 77.5 149.22 77.5 149.22 87.53 334.2 87.53"/></svg>