<svg id="_351" data-name="351" xmlns="http://www.w3.org/2000/svg" viewBox="0 0 217.23 579.34"><defs><style>.cls-1{isolation:isolate;font-size:12px;fill:#969696;}.cls-1,.cls-3,.cls-5{font-family:PTSans-Regular, PT Sans;}.cls-10,.cls-2,.cls-4,.cls-6,.cls-7,.cls-8,.cls-9{fill:none;stroke-linecap:round;stroke-linejoin:round;}.cls-2{stroke:#969696;}.cls-2,.cls-6{stroke-width:0.75px;}.cls-3{font-size:24px;}.cls-10,.cls-4,.cls-6,.cls-7,.cls-8,.cls-9{stroke:#000;}.cls-4,.cls-7,.cls-8{stroke-width:0.5px;}.cls-5{font-size:20px;}.cls-7{stroke-dasharray:2.94 2.94;}.cls-8{stroke-dasharray:2.98 2.98;}.cls-9{stroke-width:1.2px;}.cls-10{stroke-width:0.35px;}</style></defs><text class="cls-1" transform="translate(103.04 576.14)">двор</text><line class="cls-2" x1="92.28" y1="578.96" x2="92.28" y2="570.16"/><polyline class="cls-2" points="88.78 575.46 92.28 578.96 95.78 575.46"/><text class="cls-3" transform="translate(93.46 380.41)">CT</text><text class="cls-3" transform="translate(78.25 410.7)">21.00</text><text class="cls-3" transform="translate(75.08 350.28)">№351</text><polyline class="cls-4" points="69.44 417.23 69.44 327.23 144.5 327.23 144.5 417.23"/><line class="cls-4" x1="69.44" y1="357.28" x2="144.5" y2="357.28"/><line class="cls-4" x1="69.44" y1="417.23" x2="144.5" y2="417.23"/><line class="cls-4" x1="69.44" y1="387.34" x2="144.5" y2="387.34"/><text class="cls-5" transform="translate(80.09 449.94)">13.50</text><text class="cls-5" transform="translate(63.91 530.47)">0.20</text><text class="cls-5" transform="translate(28.59 102.32)">3.30</text><text class="cls-5" transform="translate(115.31 116.31)">4.00</text><line class="cls-6" x1="204.31" y1="314.24" x2="176.52" y2="314.24"/><line class="cls-6" x1="204.31" y1="197.87" x2="204.31" y2="223.06"/><line class="cls-6" x1="204.31" y1="245.1" x2="204.31" y2="267.01"/><line class="cls-6" x1="204.31" y1="289.05" x2="204.31" y2="314.24"/><line class="cls-6" x1="82.74" y1="197.87" x2="110.53" y2="197.87"/><line class="cls-6" x1="132.43" y1="197.87" x2="154.48" y2="197.87"/><line class="cls-6" x1="176.52" y1="197.87" x2="204.31" y2="197.87"/><line class="cls-4" x1="165.15" y1="314.24" x2="163.65" y2="314.24"/><line class="cls-7" x1="160.71" y1="314.24" x2="85.71" y2="314.24"/><polyline class="cls-4" points="84.24 314.24 82.74 314.24 82.74 312.74"/><line class="cls-8" x1="82.74" y1="309.75" x2="82.74" y2="239.61"/><line class="cls-4" x1="82.74" y1="238.12" x2="82.74" y2="236.62"/><line class="cls-6" x1="82.74" y1="223.06" x2="82.74" y2="197.87"/><polyline class="cls-6" points="216.63 197.87 216.63 197.87 216.63 223.06"/><line class="cls-6" x1="216.63" y1="245.1" x2="216.63" y2="267.01"/><polyline class="cls-6" points="216.63 289.05 216.63 314.24 216.63 314.24"/><polyline class="cls-9" points="139.01 503.43 139.01 508.91 138.32 508.91"/><polyline class="cls-9" points="180.35 503.43 180.35 508.91 181.03 508.91"/><polyline class="cls-9" points="135.72 500.15 135.72 498.5 135.72 485.64"/><polyline class="cls-9" points="138.32 503.43 135.72 503.43 135.72 500.15"/><polyline class="cls-9" points="183.63 500.15 183.63 498.5 183.63 485.64"/><polyline class="cls-9" points="181.03 503.43 183.63 503.43 183.63 500.15"/><polyline class="cls-9" points="29.62 503.43 29.62 508.91 29.07 508.91"/><polyline class="cls-9" points="113.13 503.43 113.13 508.91 113.68 508.91"/><polyline class="cls-9" points="26.47 500.15 26.47 498.5 26.47 485.64"/><polyline class="cls-9" points="29.07 503.43 26.47 503.43 26.47 500.15"/><polyline class="cls-9" points="116.28 500.15 116.28 498.5 116.28 485.64"/><polyline class="cls-9" points="113.68 503.43 116.28 503.43 116.28 500.15"/><polyline class="cls-9" points="29.07 508.91 0.6 508.91 0.6 435.7"/><line class="cls-9" x1="113.68" y1="508.91" x2="138.32" y2="508.91"/><polyline class="cls-9" points="181.03 508.91 216.63 508.91 216.63 455.37"/><line class="cls-9" x1="216.63" y1="485.64" x2="183.64" y2="485.64"/><line class="cls-9" x1="135.72" y1="485.64" x2="116.28" y2="485.64"/><line class="cls-9" x1="26.47" y1="485.64" x2="0.6" y2="485.64"/><line class="cls-6" x1="139.01" y1="508.91" x2="180.35" y2="508.91"/><line class="cls-6" x1="183.64" y1="485.64" x2="135.72" y2="485.64"/><line class="cls-6" x1="180.35" y1="508.91" x2="139.01" y2="508.91"/><line class="cls-6" x1="183.64" y1="485.64" x2="135.72" y2="485.64"/><polyline class="cls-6" points="183.63 500.15 177.47 500.15 177.47 503.43 183.63 503.43"/><polyline class="cls-6" points="135.72 503.43 141.88 503.43 141.88 500.15 135.72 500.15"/><line class="cls-6" x1="177.47" y1="500.15" x2="141.88" y2="500.15"/><line class="cls-6" x1="141.88" y1="503.43" x2="177.47" y2="503.43"/><polyline class="cls-6" points="183.63 500.15 183.63 503.43 183.63 500.15"/><polyline class="cls-6" points="183.63 503.43 181.03 503.43 183.63 503.43"/><polyline class="cls-6" points="183.63 500.15 183.63 498.5 183.63 485.64"/><polyline class="cls-6" points="135.72 500.15 135.72 503.43 135.72 500.15"/><polyline class="cls-6" points="135.72 503.43 138.32 503.43 135.72 503.43"/><polyline class="cls-6" points="135.72 500.15 135.72 498.5 135.72 485.64"/><polyline class="cls-6" points="181.03 508.91 180.35 508.91 180.35 503.43"/><polyline class="cls-6" points="138.32 508.91 139.01 508.91 139.01 503.43"/><line class="cls-10" x1="29.62" y1="508.91" x2="113.13" y2="508.91"/><line class="cls-10" x1="116.28" y1="485.64" x2="26.47" y2="485.64"/><line class="cls-10" x1="113.13" y1="508.91" x2="29.62" y2="508.91"/><line class="cls-10" x1="116.28" y1="485.64" x2="26.47" y2="485.64"/><polyline class="cls-6" points="116.28 500.15 110.12 500.15 110.12 503.43 116.28 503.43"/><polyline class="cls-6" points="71.38 503.43 75.62 503.43 75.62 500.15 71.38 500.15"/><line class="cls-6" x1="110.12" y1="500.15" x2="110.12" y2="465.65"/><polyline class="cls-6" points="71.38 500.15 67.13 500.15 67.13 503.43 71.38 503.43"/><polyline class="cls-6" points="26.47 503.43 32.5 503.43 32.5 500.15 26.47 500.15"/><line class="cls-6" x1="32.5" y1="500.15" x2="32.5" y2="465.65"/><path class="cls-6" d="M110.53,464.91A34.57,34.57,0,0,0,76,499.48" transform="translate(-0.34 0.6)"/><path class="cls-6" d="M67.48,499.48a34.57,34.57,0,0,0-34.57-34.57" transform="translate(-0.34 0.6)"/><polyline class="cls-6" points="116.28 500.15 116.28 503.43 116.28 500.15"/><polyline class="cls-6" points="116.28 503.43 113.68 503.43 116.28 503.43"/><polyline class="cls-6" points="116.28 500.15 116.28 498.5 116.28 485.64"/><polyline class="cls-6" points="26.47 500.15 26.47 503.43 26.47 500.15"/><polyline class="cls-6" points="26.47 503.43 29.07 503.43 26.47 503.43"/><polyline class="cls-6" points="26.47 500.15 26.47 498.5 26.47 485.64"/><polyline class="cls-6" points="113.68 508.91 113.13 508.91 113.13 503.43"/><polyline class="cls-6" points="29.07 508.91 29.62 508.91 29.62 503.43"/><line class="cls-9" x1="0.6" y1="13.47" x2="0.6" y2="147.08"/><polyline class="cls-9" points="0.6 152.28 0.6 486.6 13.47 486.6 13.47 177.06"/><line class="cls-9" x1="13.47" y1="172" x2="13.47" y2="0.6"/><polyline class="cls-9" points="204.31 13.47 204.31 147.08 216.63 147.08 216.63 26.47"/><line class="cls-9" x1="216.63" y1="13.47" x2="216.63" y2="0.6"/><line class="cls-9" x1="13.47" y1="0.6" x2="0.6" y2="0.6"/><line class="cls-9" x1="0.6" y1="13.47" x2="0.6" y2="13.47"/><line class="cls-9" x1="16.75" y1="0.6" x2="16.75" y2="13.47"/><polyline class="cls-9" points="216.63 0.6 81.37 0.6 81.37 13.47"/><polyline class="cls-9" points="16.75 0.6 13.47 0.6 13.47 13.47 16.75 13.47"/><line class="cls-9" x1="81.37" y1="13.47" x2="120.8" y2="13.47"/><line class="cls-9" x1="126" y1="13.47" x2="204.31" y2="13.47"/><path class="cls-6" d="M19.77,72.28A59.48,59.48,0,0,0,79.25,12.8" transform="translate(-0.34 0.6)"/><polyline class="cls-6" points="81.37 0.6 78.77 0.6 78.77 13.47 81.37 13.47 81.37 0.6"/><polyline class="cls-6" points="16.75 13.47 19.36 13.47 19.36 0.6 16.75 0.6 16.75 13.47"/><line class="cls-6" x1="19.36" y1="13.47" x2="19.36" y2="73.02"/><polyline class="cls-6" points="81.37 13.47 81.37 0.6 81.37 13.47"/><polyline class="cls-6" points="16.75 13.47 16.75 0.6 16.75 13.47"/><line class="cls-9" x1="0.6" y1="147.08" x2="0.6" y2="147.08"/><line class="cls-9" x1="0.6" y1="152.29" x2="0.6" y2="152.29"/><line class="cls-9" x1="19.9" y1="172" x2="19.9" y2="177.06"/><line class="cls-9" x1="78.22" y1="172" x2="78.22" y2="177.06"/><line class="cls-9" x1="13.47" y1="177.06" x2="19.9" y2="177.06"/><line class="cls-9" x1="78.22" y1="177.06" x2="84.66" y2="177.06"/><line class="cls-9" x1="84.66" y1="172" x2="78.22" y2="172"/><line class="cls-9" x1="19.9" y1="172" x2="13.47" y2="172"/><path class="cls-6" d="M22.91,229.44A53,53,0,0,0,76,176.4" transform="translate(-0.34 0.6)"/><polyline class="cls-6" points="78.22 172 75.62 172 75.62 177.06 78.22 177.06 78.22 172"/><polyline class="cls-6" points="19.9 177.06 22.5 177.06 22.5 172 19.9 172 19.9 177.06"/><line class="cls-6" x1="22.5" y1="177.06" x2="22.5" y2="230.18"/><polyline class="cls-6" points="78.22 177.06 78.22 172 78.22 177.06"/><polyline class="cls-6" points="19.9 177.06 19.9 172 19.9 177.06"/><polyline class="cls-9" points="216.63 192.67 216.63 192.67 216.63 197.87 216.63 197.87"/><polyline class="cls-9" points="123.4 197.87 204.31 197.87 204.31 192.67 123.4 192.67"/><line class="cls-9" x1="119.7" y1="192.67" x2="98.07" y2="192.67"/><line class="cls-9" x1="94.38" y1="192.67" x2="89.86" y2="192.67"/><line class="cls-9" x1="216.63" y1="13.47" x2="216.63" y2="13.47"/><line class="cls-9" x1="216.63" y1="26.47" x2="216.63" y2="26.47"/><line class="cls-9" x1="84.66" y1="86.57" x2="89.86" y2="86.57"/><line class="cls-9" x1="84.66" y1="135.04" x2="89.86" y2="135.04"/><line class="cls-9" x1="89.86" y1="192.67" x2="89.86" y2="175.7"/><line class="cls-9" x1="89.86" y1="172" x2="89.86" y2="135.04"/><line class="cls-9" x1="89.86" y1="86.57" x2="89.86" y2="83.29"/><line class="cls-9" x1="84.66" y1="78.22" x2="84.66" y2="86.57"/><line class="cls-9" x1="84.66" y1="135.04" x2="84.66" y2="172"/><path class="cls-6" d="M63.4,126a43.37,43.37,0,0,0,21.67,5.8" transform="translate(-0.34 0.6)"/><polyline class="cls-6" points="89.86 135.04 89.86 132.57 84.66 132.57 84.66 135.04 89.86 135.04"/><polyline class="cls-6" points="84.66 86.57 84.66 89.17 89.86 89.17 89.86 86.57 84.66 86.57"/><line class="cls-6" x1="84.66" y1="89.17" x2="63.03" y2="126.68"/><polyline class="cls-6" points="89.86 135.04 84.66 135.04 89.86 135.04"/><polyline class="cls-6" points="89.86 86.57 84.66 86.57 89.86 86.57"/><polyline class="cls-9" points="204.31 263.45 204.31 485.64 216.63 485.64 216.63 263.45 204.31 263.45"/><line class="cls-9" x1="120.8" y1="13.47" x2="120.8" y2="78.22"/><line class="cls-9" x1="126" y1="83.29" x2="126" y2="13.47"/><line class="cls-9" x1="120.8" y1="78.22" x2="84.66" y2="78.22"/><line class="cls-9" x1="89.86" y1="83.29" x2="126" y2="83.29"/><line class="cls-9" x1="204.31" y1="147.08" x2="204.31" y2="263.45"/><line class="cls-4" x1="216.63" y1="263.45" x2="204.31" y2="263.45"/><line class="cls-9" x1="216.63" y1="263.45" x2="216.63" y2="147.08"/><line class="cls-4" x1="216.63" y1="147.08" x2="204.31" y2="147.08"/><polyline class="cls-6" points="123.4 172 123.4 197.87 84.66 197.87 84.66 172 123.4 172"/><polyline class="cls-6" points="120.25 179.12 119.98 177.88 119.43 176.79 118.61 175.97 117.51 175.42 116.28 175.15 101.5 175.15 100.26 175.42 99.17 175.97 98.35 176.79 97.8 177.88 97.53 179.12 97.53 190.75 97.8 191.85 98.35 192.94 99.17 193.9 100.26 194.45 101.5 194.59 116.28 194.59 117.51 194.45 118.61 193.9 119.43 192.94 119.98 191.85 120.25 190.75 120.25 179.12"/><polyline class="cls-6" points="94.38 192.94 94.38 176.79 94.1 175.97 93.56 175.42 92.73 175.15 91.78 175.15 90.54 175.42 89.45 175.97 88.63 176.79 88.08 177.88 87.81 179.12 87.81 190.75 88.08 191.85 88.63 192.94 89.45 193.9 90.54 194.45 91.78 194.59 92.73 194.59 93.56 194.31 94.1 193.77 94.38 192.94"/><line class="cls-10" x1="132.43" y1="512.2" x2="132.43" y2="538.07"/><line class="cls-10" x1="135.72" y1="541.22" x2="135.72" y2="512.2"/><line class="cls-10" x1="132.43" y1="538.07" x2="32.22" y2="538.07"/><line class="cls-10" x1="29.08" y1="541.22" x2="135.72" y2="541.22"/><line class="cls-10" x1="32.22" y1="538.07" x2="32.22" y2="512.2"/><line class="cls-10" x1="29.08" y1="512.2" x2="29.08" y2="541.22"/><polyline class="cls-10" points="135.72 512.2 135.72 510.55 132.44 510.55 132.44 512.2"/><polyline class="cls-10" points="32.22 512.2 32.22 510.55 29.07 510.55 29.07 512.2"/><line class="cls-10" x1="133.26" y1="512.2" x2="133.26" y2="538.89"/><polyline class="cls-10" points="134.9 540.4 134.9 512.2 133.26 512.2"/><line class="cls-10" x1="133.26" y1="538.89" x2="31.4" y2="538.89"/><line class="cls-10" x1="29.76" y1="540.4" x2="134.9" y2="540.4"/><polyline class="cls-10" points="31.4 538.89 31.4 512.2 29.76 512.2 29.76 540.4"/><polyline class="cls-10" points="134.9 511.37 133.26 511.37 133.26 513.02 134.9 513.02 134.9 511.37"/><polyline class="cls-10" points="134.9 538.89 133.26 538.89 133.26 540.4 134.9 540.4 134.9 538.89"/><polyline class="cls-10" points="31.4 540.4 31.4 538.89 29.76 538.89 29.76 540.4 31.4 540.4"/><polyline class="cls-10" points="29.76 513.02 31.4 513.02 31.4 511.37 29.76 511.37 29.76 513.02"/><polyline class="cls-10" points="134.9 520.55 133.26 520.55 133.26 522.19 134.9 522.19 134.9 520.55"/><polyline class="cls-10" points="134.9 529.72 133.26 529.72 133.26 531.23 134.9 531.23 134.9 529.72"/><polyline class="cls-10" points="125.45 540.4 125.45 538.89 123.95 538.89 123.95 540.4 125.45 540.4"/><polyline class="cls-10" points="116.14 540.4 116.14 538.89 114.5 538.89 114.5 540.4 116.14 540.4"/><polyline class="cls-10" points="106.7 540.4 106.7 538.89 105.06 538.89 105.06 540.4 106.7 540.4"/><polyline class="cls-10" points="97.25 540.4 97.25 538.89 95.61 538.89 95.61 540.4 97.25 540.4"/><polyline class="cls-10" points="87.94 540.4 87.94 538.89 86.3 538.89 86.3 540.4 87.94 540.4"/><polyline class="cls-10" points="78.5 540.4 78.5 538.89 76.85 538.89 76.85 540.4 78.5 540.4"/><polyline class="cls-10" points="69.05 540.4 69.05 538.89 67.41 538.89 67.41 540.4 69.05 540.4"/><polyline class="cls-10" points="59.6 540.4 59.6 538.89 58.1 538.89 58.1 540.4 59.6 540.4"/><polyline class="cls-10" points="50.3 540.4 50.3 538.89 48.65 538.89 48.65 540.4 50.3 540.4"/><polyline class="cls-10" points="40.85 540.4 40.85 538.89 39.21 538.89 39.21 540.4 40.85 540.4"/><polyline class="cls-10" points="29.76 531.23 31.4 531.23 31.4 529.72 29.76 529.72 29.76 531.23"/><polyline class="cls-10" points="29.76 522.19 31.4 522.19 31.4 520.55 29.76 520.55 29.76 522.19"/><polyline class="cls-6" points="85.89 197.87 204.31 197.87 204.31 314.24"/><polyline class="cls-6" points="85.89 236.62 165.43 236.62 165.43 314.24 204.31 314.24"/><line class="cls-6" x1="108.2" y1="231.82" x2="157.35" y2="231.82"/><path class="cls-6" d="M157.76,231.09a1.3,1.3,0,0,0,1.3-1.3" transform="translate(-0.34 0.6)"/><line class="cls-6" x1="158.72" y1="230.46" x2="158.72" y2="200.75"/><path class="cls-6" d="M159.06,200.08a1.3,1.3,0,0,0-1.3-1.3" transform="translate(-0.34 0.6)"/><line class="cls-6" x1="157.35" y1="199.38" x2="108.2" y2="199.38"/><path class="cls-6" d="M108.61,198.78a1.3,1.3,0,0,0-1.3,1.3" transform="translate(-0.34 0.6)"/><line class="cls-6" x1="106.97" y1="200.75" x2="106.97" y2="230.46"/><path class="cls-6" d="M107.31,229.79a1.3,1.3,0,0,0,1.3,1.3" transform="translate(-0.34 0.6)"/><line class="cls-6" x1="82.74" y1="236.62" x2="165.43" y2="236.62"/><polyline class="cls-6" points="82.74 236.62 82.74 197.87 182.95 197.87"/><line class="cls-6" x1="111.49" y1="228.54" x2="130.52" y2="228.54"/><line class="cls-6" x1="131.89" y1="227.31" x2="131.89" y2="207.18"/><line class="cls-6" x1="130.52" y1="205.95" x2="111.49" y2="205.95"/><line class="cls-6" x1="110.12" y1="207.18" x2="110.12" y2="227.31"/><line class="cls-6" x1="111.49" y1="228.54" x2="111.49" y2="228.54"/><line class="cls-6" x1="135.04" y1="228.54" x2="154.2" y2="228.54"/><line class="cls-6" x1="155.43" y1="227.31" x2="155.43" y2="207.18"/><line class="cls-6" x1="154.2" y1="205.95" x2="135.04" y2="205.95"/><line class="cls-6" x1="133.8" y1="207.18" x2="133.8" y2="227.31"/><line class="cls-6" x1="135.04" y1="228.54" x2="135.04" y2="228.54"/><path class="cls-6" d="M130.93,227.94a1.3,1.3,0,0,0,1.3-1.3" transform="translate(-0.34 0.6)"/><path class="cls-6" d="M132.23,206.51a1.3,1.3,0,0,0-1.3-1.3" transform="translate(-0.34 0.6)"/><path class="cls-6" d="M111.9,205.21a1.3,1.3,0,0,0-1.3,1.3" transform="translate(-0.34 0.6)"/><path class="cls-6" d="M110.6,226.64a1.3,1.3,0,0,0,1.3,1.3" transform="translate(-0.34 0.6)"/><path class="cls-6" d="M154.61,227.94a1.3,1.3,0,0,0,1.3-1.3" transform="translate(-0.34 0.6)"/><path class="cls-6" d="M155.91,206.51a1.3,1.3,0,0,0-1.3-1.3" transform="translate(-0.34 0.6)"/><path class="cls-6" d="M135.45,205.21a1.3,1.3,0,0,0-1.3,1.3" transform="translate(-0.34 0.6)"/><path class="cls-6" d="M134.15,226.64a1.3,1.3,0,0,0,1.3,1.3" transform="translate(-0.34 0.6)"/><polyline class="cls-6" points="216.63 197.87 216.63 197.87 216.63 314.24"/><line class="cls-6" x1="216.63" y1="314.24" x2="216.63" y2="314.24"/><line class="cls-6" x1="216.63" y1="26.47" x2="216.63" y2="26.47"/><path class="cls-6" d="M217,25.87" transform="translate(-0.34 0.6)"/><polyline class="cls-6" points="216.63 26.47 216.63 47.15 216.63 47.15"/><polyline class="cls-6" points="204.99 34.14 204.99 13.47 172.55 13.47"/><path class="cls-6" d="M172.89,12.87" transform="translate(-0.34 0.6)"/><polyline class="cls-6" points="172.55 13.47 172.55 34.14 204.99 34.14"/><line class="cls-4" x1="216.63" y1="0.6" x2="203.21" y2="0.6"/><line class="cls-4" x1="84.66" y1="78.22" x2="84.66" y2="13.47"/><polyline class="cls-4" points="172.55 13.47 204.99 13.47 204.99 34.14 172.55 34.14 172.55 13.47"/><polyline class="cls-4" points="216.63 26.47 216.63 26.47 216.63 47.15 216.63 47.15"/><line class="cls-6" x1="216.63" y1="13.47" x2="216.63" y2="13.47"/><polyline class="cls-6" points="216.63 13.47 216.63 0.6 216.63 0.6"/><line class="cls-4" x1="191.3" y1="76.31" x2="168.71" y2="76.31"/><polyline class="cls-4" points="192.67 77.26 201.02 77.26 201.02 53.31"/><line class="cls-4" x1="187.33" y1="65.22" x2="187.33" y2="56.32"/><polyline class="cls-4" points="168.85 76.31 187.33 74.11 187.33 65.22"/><line class="cls-4" x1="168.85" y1="54.26" x2="187.33" y2="56.32"/><line class="cls-4" x1="168.85" y1="75.76" x2="187.33" y2="73.57"/><line class="cls-4" x1="168.85" y1="54.81" x2="187.33" y2="56.87"/><line class="cls-4" x1="191.3" y1="54.26" x2="168.71" y2="54.26"/><line class="cls-4" x1="201.02" y1="53.31" x2="192.67" y2="53.31"/><polyline class="cls-4" points="168.85 76.31 166.25 75.89 163.92 75.07 161.87 73.57 160.22 71.51 158.99 69.19 158.45 66.59 158.45 63.85 158.99 61.38 160.22 58.92 161.87 57 163.92 55.5 166.25 54.54 168.85 54.27"/><polyline class="cls-4" points="168.85 75.76 166.39 75.35 164.19 74.53 162.28 73.02 160.64 71.24 159.54 68.91 158.99 66.45 158.99 63.98 159.54 61.52 160.64 59.33 162.28 57.41 164.19 56.05 166.39 55.09 168.85 54.81"/><path class="cls-4" d="M191.67,53.83a99.79,99.79,0,0,0,0,21.44" transform="translate(-0.34 0.6)"/><path class="cls-4" d="M191.65,75.25a1.44,1.44,0,0,0,1.43,1.28" transform="translate(-0.34 0.6)"/><path class="cls-4" d="M193.08,52.57a1.43,1.43,0,0,0-1.43,1.29" transform="translate(-0.34 0.6)"/><path class="cls-4" d="M194.93,64.55a1.17,1.17,0,1,0,1.16-1.17,1.16,1.16,0,0,0-1.16,1.17" transform="translate(-0.34 0.6)"/><line class="cls-4" x1="91.64" y1="170.77" x2="130.52" y2="170.77"/><line class="cls-4" x1="130.52" y1="170.77" x2="130.52" y2="138.32"/><line class="cls-4" x1="130.52" y1="138.32" x2="91.64" y2="138.32"/><line class="cls-4" x1="91.64" y1="138.32" x2="91.64" y2="170.77"/><polyline class="cls-4" points="115.05 162.55 107.38 162.55 112.45 159.95 107.38 157.35 115.05 157.35"/><polyline class="cls-4" points="113.82 149.68 115.05 150.92 115.05 153.52 113.82 154.75 108.61 154.75 107.38 153.52 107.38 150.92 108.61 149.68"/><polyline class="cls-9" points="0.6 485.64 0.6 498.5 26.47 498.5 26.47 485.64 0.6 485.64"/><polyline class="cls-9" points="13.47 0.6 0.6 0.6 0.6 52.35 13.47 52.35 13.47 0.6"/><polyline class="cls-9" points="0.6 198.83 13.47 198.83 13.47 147.08 0.6 147.08 0.6 198.83"/><line class="cls-9" x1="216.63" y1="485.64" x2="183.64" y2="485.64"/><polyline class="cls-9" points="183.63 485.64 183.63 498.5 216.63 498.5"/><polyline class="cls-9" points="216.63 0.6 204.31 0.6 204.31 52.35 216.63 52.35 216.63 0.6"/><polyline class="cls-4" points="188.02 91.09 204.31 91.09 204.31 123.4 188.02 123.4"/><line class="cls-4" x1="204.31" y1="112.31" x2="204.31" y2="102.18"/><line class="cls-4" x1="191.3" y1="109.98" x2="191.3" y2="108.34"/><line class="cls-4" x1="194.45" y1="107.25" x2="192.4" y2="107.25"/><line class="cls-4" x1="191.3" y1="106.29" x2="191.3" y2="104.51"/><line class="cls-4" x1="190.07" y1="107.25" x2="188.02" y2="107.25"/><path class="cls-4" d="M195.49,98.06a16.79,16.79,0,0,0-8.06-5.6" transform="translate(-0.34 0.6)"/><path class="cls-4" d="M197.89,106.64A12.75,12.75,0,0,0,195.5,98" transform="translate(-0.34 0.6)"/><path class="cls-4" d="M187.43,120.83a16.73,16.73,0,0,0,8.06-5.6" transform="translate(-0.34 0.6)"/><path class="cls-4" d="M195.5,115.26a12.75,12.75,0,0,0,2.39-8.61" transform="translate(-0.34 0.6)"/><path class="cls-4" d="M178.75,95.62a23.47,23.47,0,0,0-3.18,9.82" transform="translate(-0.34 0.6)"/><path class="cls-4" d="M180.38,119.7a10.57,10.57,0,0,0,8.05,3.09" transform="translate(-0.34 0.6)"/><path class="cls-4" d="M175.54,105.44a12.29,12.29,0,0,0,0,2.27" transform="translate(-0.34 0.6)"/><path class="cls-4" d="M194.92,115.62a49.55,49.55,0,0,0,0-18.09" transform="translate(-0.34 0.6)"/><path class="cls-4" d="M186,122a27.19,27.19,0,0,0,15.7-4.59" transform="translate(-0.34 0.6)"/><path class="cls-4" d="M202.78,115.93a34.53,34.53,0,0,0,1.18-9.25" transform="translate(-0.34 0.6)"/><path class="cls-4" d="M201.69,117.41a2.7,2.7,0,0,0,1.1-1.48" transform="translate(-0.34 0.6)"/><path class="cls-4" d="M201.68,115.67a58,58,0,0,0,.78-9.11" transform="translate(-0.34 0.6)"/><path class="cls-4" d="M186,122a24.18,24.18,0,0,0,14.63-4.57" transform="translate(-0.34 0.6)"/><path class="cls-4" d="M200.55,117.34a2.61,2.61,0,0,0,1.06-1.63" transform="translate(-0.34 0.6)"/><path class="cls-4" d="M200.61,95.9A24.21,24.21,0,0,0,186,91.31" transform="translate(-0.34 0.6)"/><path class="cls-4" d="M201.69,95.92a27.1,27.1,0,0,0-15.7-4.6" transform="translate(-0.34 0.6)"/><path class="cls-4" d="M202.46,106.69a59.25,59.25,0,0,0-.76-9.11" transform="translate(-0.34 0.6)"/><path class="cls-4" d="M204,106.66a34.17,34.17,0,0,0-1.17-9.25" transform="translate(-0.34 0.6)"/><path class="cls-4" d="M201.61,97.45a2.62,2.62,0,0,0-1.06-1.64" transform="translate(-0.34 0.6)"/><path class="cls-4" d="M202.79,97.37a2.65,2.65,0,0,0-1.1-1.48" transform="translate(-0.34 0.6)"/><path class="cls-4" d="M188.43,90.36a10.64,10.64,0,0,0-8.05,3.09" transform="translate(-0.34 0.6)"/><path class="cls-4" d="M180.45,93.51a12.61,12.61,0,0,0-1.65,2.16" transform="translate(-0.34 0.6)"/><path class="cls-4" d="M178.8,117.62a12.61,12.61,0,0,0,1.65,2.16" transform="translate(-0.34 0.6)"/><path class="cls-4" d="M175.57,107.71a23.51,23.51,0,0,0,3.18,9.83" transform="translate(-0.34 0.6)"/><path class="cls-4" d="M178.31,102.13a16,16,0,0,0,0,8.9" transform="translate(-0.34 0.6)"/><path class="cls-4" d="M187.45,92.42a6.14,6.14,0,0,0-4.69,1.67" transform="translate(-0.34 0.6)"/><path class="cls-4" d="M182.78,94.07a16.47,16.47,0,0,0-4.37,8.08" transform="translate(-0.34 0.6)"/><path class="cls-4" d="M182.76,119.2a6.14,6.14,0,0,0,4.69,1.67" transform="translate(-0.34 0.6)"/><path class="cls-4" d="M178.41,111.14a16.42,16.42,0,0,0,4.37,8.08" transform="translate(-0.34 0.6)"/><path class="cls-4" d="M189.18,106.58a2.57,2.57,0,1,0,2.53-2.13,2.35,2.35,0,0,0-2.53,2.13" transform="translate(-0.34 0.6)"/><path class="cls-4" d="M190,106.58a1.74,1.74,0,1,0,1.71-1.44,1.59,1.59,0,0,0-1.71,1.44" transform="translate(-0.34 0.6)"/><line class="cls-4" x1="190.07" y1="183.09" x2="190.07" y2="179.39"/><line class="cls-4" x1="191.71" y1="177.75" x2="195.41" y2="177.75"/><line class="cls-4" x1="190.07" y1="176.11" x2="190.07" y2="172.55"/><line class="cls-4" x1="184.73" y1="177.75" x2="188.43" y2="177.75"/><line class="cls-4" x1="149.96" y1="188.84" x2="149.96" y2="173.23"/><line class="cls-4" x1="201.71" y1="173.92" x2="201.71" y2="138.32"/><line class="cls-4" x1="185.55" y1="137.64" x2="201.02" y2="137.64"/><line class="cls-4" x1="149.96" y1="188.84" x2="149.96" y2="173.23"/><line class="cls-4" x1="150.64" y1="189.39" x2="186.1" y2="189.39"/><line class="cls-4" x1="146.67" y1="191.99" x2="146.67" y2="173.23"/><line class="cls-4" x1="204.99" y1="191.99" x2="204.99" y2="135.04"/><line class="cls-4" x1="185.55" y1="134.49" x2="204.31" y2="134.49"/><line class="cls-4" x1="147.36" y1="192.67" x2="204.31" y2="192.67"/><path class="cls-4" d="M186.51,188.79a3.21,3.21,0,0,0,1-.17" transform="translate(-0.34 0.6)"/><path class="cls-4" d="M150.44,188.17a.61.61,0,0,0,.61.62" transform="translate(-0.34 0.6)"/><path class="cls-4" d="M186.51,188.79a3.21,3.21,0,0,0,1-.17" transform="translate(-0.34 0.6)"/><path class="cls-4" d="M186,133.75a38.82,38.82,0,0,0-38.81,38.81" transform="translate(-0.34 0.6)"/><path class="cls-4" d="M147.15,191.32a.61.61,0,0,0,.62.61" transform="translate(-0.34 0.6)"/><path class="cls-4" d="M186,137a35.52,35.52,0,0,0-35.52,35.52" transform="translate(-0.34 0.6)"/><path class="cls-4" d="M205.33,134.37a.61.61,0,0,0-.61-.62" transform="translate(-0.34 0.6)"/><path class="cls-4" d="M202.05,137.65a.61.61,0,0,0-.62-.61" transform="translate(-0.34 0.6)"/><path class="cls-4" d="M204.72,191.93a.61.61,0,0,0,.61-.61" transform="translate(-0.34 0.6)"/><path class="cls-4" d="M187.11,188.69A34.79,34.79,0,0,0,202,173.85" transform="translate(-0.34 0.6)"/><path class="cls-4" d="M201.88,174.27a3.26,3.26,0,0,0,.17-1" transform="translate(-0.34 0.6)"/><path class="cls-4" d="M187.59,188.56A22.78,22.78,0,0,0,202,174.19" transform="translate(-0.34 0.6)"/><path class="cls-4" d="M201.88,174.27a3.26,3.26,0,0,0,.17-1" transform="translate(-0.34 0.6)"/><path class="cls-4" d="M193.42,177.08a2.94,2.94,0,1,0-2.94,2.94,2.93,2.93,0,0,0,2.94-2.94" transform="translate(-0.34 0.6)"/><path class="cls-4" d="M194.52,177.08a4,4,0,1,0-4,4,4,4,0,0,0,4-4" transform="translate(-0.34 0.6)"/><line class="cls-4" x1="216.63" y1="134.49" x2="216.63" y2="134.49"/><line class="cls-4" x1="216.63" y1="192.67" x2="216.63" y2="192.67"/><path class="cls-4" d="M217,133.75c-.34,0,0,.28,0,.62" transform="translate(-0.34 0.6)"/><path class="cls-4" d="M217,191.32c0,.34-.34.61,0,.61" transform="translate(-0.34 0.6)"/><path class="cls-4" d="M217,173.25a3.17,3.17,0,0,0,0,1" transform="translate(-0.34 0.6)"/><path class="cls-4" d="M217,173.25a3.17,3.17,0,0,0,0,1" transform="translate(-0.34 0.6)"/></svg>