<svg id="_559" data-name="559" xmlns="http://www.w3.org/2000/svg" viewBox="0 0 408.01 609.97"><defs><style>.cls-1,.cls-4,.cls-6,.cls-7{fill:none;stroke-linecap:round;stroke-linejoin:round;}.cls-1{stroke:#999;stroke-width:0.5px;}.cls-2{isolation:isolate;font-size:12px;fill:#999;}.cls-2,.cls-3,.cls-5{font-family:PTSans-Regular, PT Sans;}.cls-3{font-size:24px;}.cls-4,.cls-6,.cls-7{stroke:#000;stroke-width:0.75px;}.cls-5{font-size:20px;}.cls-6{stroke-dasharray:2.98 2.98;}.cls-7{stroke-dasharray:3.09 3.09;}</style></defs><title>5floor_559flat</title><line class="cls-1" x1="188.29" y1="10.8" x2="188.29" y2="2"/><polyline class="cls-1" points="191.89 5.3 188.39 1.8 184.89 5.3"/><text class="cls-2" transform="translate(197.72 10.2)">двор</text><text class="cls-3" transform="translate(286.19 286.25)">1E</text><text class="cls-3" transform="translate(270.43 319.29)">39.69</text><text class="cls-3" transform="translate(267.26 253.71)">№559</text><polyline class="cls-4" points="258.63 327.64 258.63 230.44 339.69 230.44 339.69 327.64"/><line class="cls-4" x1="258.63" y1="262.91" x2="339.69" y2="262.91"/><line class="cls-4" x1="258.63" y1="327.64" x2="339.69" y2="327.64"/><line class="cls-4" x1="258.63" y1="295.37" x2="339.69" y2="295.37"/><text class="cls-5" transform="translate(196.36 531.36)">4.65</text><text class="cls-5" transform="translate(269.2 558.61)">1.40</text><text class="cls-5" transform="translate(67.51 524.35)">3.59</text><text class="cls-5" transform="translate(72.11 101.34)">0.89</text><text class="cls-5" transform="translate(279.29 180.54)">13.18</text><text class="cls-5" transform="translate(85.13 180.54)">12.32</text><text class="cls-5" transform="translate(310.12 440.04)">3.66</text><line class="cls-4" x1="407.64" y1="478.2" x2="407.64" y2="516.65"/><line class="cls-4" x1="18.15" y1="443.72" x2="18.15" y2="474.22"/><line class="cls-4" x1="21.57" y1="477.82" x2="96.23" y2="477.82"/><line class="cls-4" x1="21.57" y1="440.13" x2="96.23" y2="440.13"/><line class="cls-4" x1="117.29" y1="481.4" x2="14.74" y2="481.4"/><line class="cls-4" x1="117.29" y1="436.54" x2="14.74" y2="436.54"/><line class="cls-4" x1="117.29" y1="436.54" x2="117.29" y2="481.4"/><line class="cls-4" x1="14.74" y1="436.54" x2="14.74" y2="481.4"/><line class="cls-4" x1="84.23" y1="446.37" x2="25.81" y2="446.37"/><line class="cls-4" x1="24.1" y1="448.16" x2="24.1" y2="469.78"/><line class="cls-4" x1="84.23" y1="471.57" x2="25.81" y2="471.57"/><line class="cls-4" x1="36.1" y1="457.87" x2="36.1" y2="455.65"/><line class="cls-4" x1="35.05" y1="458.97" x2="32.94" y2="458.97"/><line class="cls-4" x1="36.1" y1="460.07" x2="36.1" y2="462.29"/><line class="cls-4" x1="37.15" y1="458.97" x2="39.26" y2="458.97"/><path class="cls-4" d="M96.23,468.47c9.91,0,18,8.43,18,18.84s-8,18.84-18,18.84" transform="translate(0 -28.34)"/><path class="cls-4" d="M21.57,506.15a3.51,3.51,0,0,1-3.42-3.59" transform="translate(0 -28.34)"/><path class="cls-4" d="M18.15,472.06a3.5,3.5,0,0,1,3.42-3.59" transform="translate(0 -28.34)"/><path class="cls-4" d="M37.89,487.31a1.79,1.79,0,1,0-1.79,1.87,1.83,1.83,0,0,0,1.79-1.87" transform="translate(0 -28.34)"/><path class="cls-4" d="M84.23,474.71c6.63,0,12,5.64,12,12.6s-5.37,12.6-12,12.6" transform="translate(0 -28.34)"/><path class="cls-4" d="M24.1,476.5a1.75,1.75,0,0,1,1.71-1.79" transform="translate(0 -28.34)"/><path class="cls-4" d="M25.81,499.91a1.75,1.75,0,0,1-1.71-1.79" transform="translate(0 -28.34)"/><path class="cls-4" d="M38.49,487.31a2.39,2.39,0,1,0-2.39,2.51,2.46,2.46,0,0,0,2.39-2.51" transform="translate(0 -28.34)"/><line class="cls-4" x1="14.74" y1="519.22" x2="14.74" y2="484.61"/><line class="cls-4" x1="14.74" y1="484.61" x2="29.38" y2="484.61"/><line class="cls-4" x1="14.74" y1="519.22" x2="29.38" y2="519.22"/><line class="cls-4" x1="14.74" y1="496.46" x2="14.74" y2="507.37"/><line class="cls-4" x1="26.48" y1="499.01" x2="26.48" y2="500.85"/><line class="cls-4" x1="23.57" y1="501.92" x2="25.42" y2="501.92"/><line class="cls-4" x1="26.48" y1="502.99" x2="26.48" y2="504.83"/><line class="cls-4" x1="27.55" y1="501.92" x2="29.4" y2="501.92"/><path class="cls-4" d="M30.29,545.43a15.45,15.45,0,0,1-7.3-6" transform="translate(0 -28.34)"/><path class="cls-4" d="M23,539.45a15.43,15.43,0,0,1-2.21-8c0-.41,0-.83,0-1.24" transform="translate(0 -28.34)"/><path class="cls-4" d="M23,521.06a15.39,15.39,0,0,1,7.3-6" transform="translate(0 -28.34)"/><path class="cls-4" d="M20.83,530.25c0-.41,0-.82,0-1.24a15.37,15.37,0,0,1,2.21-8" transform="translate(0 -28.34)"/><path class="cls-4" d="M41,531.46A28.27,28.27,0,0,1,38.11,542" transform="translate(0 -28.34)"/><path class="cls-4" d="M29.38,513h.38a8.79,8.79,0,0,1,6.86,3.29" transform="translate(0 -28.34)"/><path class="cls-4" d="M41,529c0,.4.05.81.05,1.21s0,.81-.05,1.21" transform="translate(0 -28.34)"/><path class="cls-4" d="M23.55,539.94a64,64,0,0,1-.74-9.68,62.63,62.63,0,0,1,.74-9.68" transform="translate(0 -28.34)"/><path class="cls-4" d="M17.49,518.75a21.83,21.83,0,0,1,13.78-4.91h.37" transform="translate(0 -28.34)"/><path class="cls-4" d="M15.44,530.25v-.33a43.4,43.4,0,0,1,1.07-9.57" transform="translate(0 -28.34)"/><path class="cls-4" d="M16.51,520.35a2.92,2.92,0,0,1,1-1.6" transform="translate(0 -28.34)"/><path class="cls-4" d="M16.8,530.25a74,74,0,0,1,.71-9.75" transform="translate(0 -28.34)"/><path class="cls-4" d="M18.46,518.73a19.55,19.55,0,0,1,12.93-4.89h.25" transform="translate(0 -28.34)"/><path class="cls-4" d="M17.51,520.5a2.82,2.82,0,0,1,.95-1.77" transform="translate(0 -28.34)"/><path class="cls-4" d="M31.62,546.67h-.23a19.54,19.54,0,0,1-12.95-4.9" transform="translate(0 -28.34)"/><path class="cls-4" d="M31.62,546.67h-.34a21.77,21.77,0,0,1-13.8-4.93" transform="translate(0 -28.34)"/><path class="cls-4" d="M17.49,540a76,76,0,0,1-.69-9.76" transform="translate(0 -28.34)"/><path class="cls-4" d="M16.49,540.14a43.53,43.53,0,0,1-1-9.52v-.39" transform="translate(0 -28.34)"/><path class="cls-4" d="M18.44,541.77a2.93,2.93,0,0,1-1-1.77" transform="translate(0 -28.34)"/><path class="cls-4" d="M17.48,541.74a2.93,2.93,0,0,1-1-1.6" transform="translate(0 -28.34)"/><path class="cls-4" d="M36.62,544.27a8.8,8.8,0,0,1-6.86,3.3h-.38" transform="translate(0 -28.34)"/><path class="cls-4" d="M38.11,542a13.52,13.52,0,0,1-1.49,2.3" transform="translate(0 -28.34)"/><path class="cls-4" d="M36.62,516.23a14.35,14.35,0,0,1,1.49,2.3" transform="translate(0 -28.34)"/><path class="cls-4" d="M38.11,518.53A28.37,28.37,0,0,1,41,529" transform="translate(0 -28.34)"/><path class="cls-4" d="M38.52,525.49a20.16,20.16,0,0,1,0,9.52" transform="translate(0 -28.34)"/><path class="cls-4" d="M34.57,543.64a5.21,5.21,0,0,1-3.93,1.8h-.35" transform="translate(0 -28.34)"/><path class="cls-4" d="M38.52,535a18.74,18.74,0,0,1-4,8.63" transform="translate(0 -28.34)"/><path class="cls-4" d="M30.29,515.08l.35,0a5.21,5.21,0,0,1,3.93,1.8" transform="translate(0 -28.34)"/><path class="cls-4" d="M34.57,516.86a18.74,18.74,0,0,1,4,8.63" transform="translate(0 -28.34)"/><path class="cls-4" d="M28.73,530.26a2.25,2.25,0,1,0-2.25,2.24,2.24,2.24,0,0,0,2.25-2.24" transform="translate(0 -28.34)"/><path class="cls-4" d="M28.09,530.26a1.61,1.61,0,1,0-1.61,1.6,1.61,1.61,0,0,0,1.61-1.6" transform="translate(0 -28.34)"/><line class="cls-4" x1="24.45" y1="529.45" x2="46.73" y2="529.45"/><line class="cls-4" x1="14.74" y1="528.51" x2="14.74" y2="552.23"/><line class="cls-4" x1="14.74" y1="528.51" x2="23.1" y2="528.51"/><line class="cls-4" x1="28.36" y1="540.37" x2="28.36" y2="549.16"/><line class="cls-4" x1="46.7" y1="529.45" x2="28.36" y2="531.58"/><line class="cls-4" x1="28.36" y1="540.37" x2="28.36" y2="531.58"/><line class="cls-4" x1="46.7" y1="551.29" x2="28.36" y2="549.16"/><line class="cls-4" x1="46.7" y1="530.01" x2="28.36" y2="532.13"/><line class="cls-4" x1="46.7" y1="550.73" x2="28.36" y2="548.61"/><line class="cls-4" x1="24.43" y1="551.29" x2="46.73" y2="551.29"/><line class="cls-4" x1="14.74" y1="552.23" x2="23.1" y2="552.23"/><line class="cls-4" x1="46.7" y1="529.45" x2="49.17" y2="529.76"/><line class="cls-4" x1="49.17" y1="529.76" x2="51.5" y2="530.69"/><line class="cls-4" x1="51.5" y1="530.69" x2="53.55" y2="532.19"/><line class="cls-4" x1="53.55" y1="532.19" x2="55.21" y2="534.16"/><line class="cls-4" x1="55.21" y1="534.16" x2="56.37" y2="536.49"/><line class="cls-4" x1="56.37" y1="536.49" x2="56.96" y2="539.05"/><line class="cls-4" x1="56.96" y1="539.05" x2="56.96" y2="541.69"/><line class="cls-4" x1="56.96" y1="541.69" x2="56.37" y2="544.25"/><line class="cls-4" x1="56.37" y1="544.25" x2="55.21" y2="546.58"/><line class="cls-4" x1="55.21" y1="546.58" x2="53.55" y2="548.55"/><line class="cls-4" x1="53.55" y1="548.55" x2="51.5" y2="550.05"/><line class="cls-4" x1="51.5" y1="550.05" x2="49.17" y2="550.98"/><line class="cls-4" x1="49.17" y1="550.98" x2="46.7" y2="551.29"/><line class="cls-4" x1="46.7" y1="530.01" x2="49.04" y2="530.31"/><line class="cls-4" x1="49.04" y1="530.31" x2="51.24" y2="531.19"/><line class="cls-4" x1="51.24" y1="531.19" x2="53.18" y2="532.61"/><line class="cls-4" x1="53.18" y1="532.61" x2="54.74" y2="534.49"/><line class="cls-4" x1="54.74" y1="534.49" x2="55.83" y2="536.7"/><line class="cls-4" x1="55.83" y1="536.7" x2="56.4" y2="539.12"/><line class="cls-4" x1="56.4" y1="539.12" x2="56.4" y2="541.62"/><line class="cls-4" x1="56.4" y1="541.62" x2="55.83" y2="544.05"/><line class="cls-4" x1="55.83" y1="544.05" x2="54.74" y2="546.26"/><line class="cls-4" x1="54.74" y1="546.26" x2="53.18" y2="548.12"/><line class="cls-4" x1="53.18" y1="548.12" x2="51.24" y2="549.54"/><line class="cls-4" x1="51.24" y1="549.54" x2="49.04" y2="550.43"/><line class="cls-4" x1="49.04" y1="550.43" x2="46.7" y2="550.73"/><path class="cls-4" d="M24.5,558.08a99.34,99.34,0,0,1,.57,10.63,99.15,99.15,0,0,1-.57,10.62" transform="translate(0 -28.34)"/><path class="cls-4" d="M23.1,556.85a1.41,1.41,0,0,1,1.4,1.23" transform="translate(0 -28.34)"/><path class="cls-4" d="M24.5,579.32a1.4,1.4,0,0,1-1.4,1.25" transform="translate(0 -28.34)"/><path class="cls-4" d="M20,567.56a1.15,1.15,0,1,0,1.18,1.15A1.16,1.16,0,0,0,20,567.56" transform="translate(0 -28.34)"/><line class="cls-4" x1="117.54" y1="595.84" x2="117.54" y2="557.38"/><line class="cls-4" x1="91.9" y1="595.84" x2="117.54" y2="595.84"/><line class="cls-4" x1="91.9" y1="557.38" x2="91.9" y2="595.84"/><line class="cls-4" x1="117.54" y1="557.38" x2="91.9" y2="557.38"/><line class="cls-4" x1="394.82" y1="478.2" x2="394.82" y2="516.65"/><line class="cls-4" x1="394.82" y1="516.65" x2="356.36" y2="516.65"/><line class="cls-4" x1="356.36" y1="516.65" x2="356.36" y2="478.2"/><line class="cls-4" x1="356.36" y1="478.2" x2="375.59" y2="478.2"/><line class="cls-4" x1="375.59" y1="478.2" x2="394.82" y2="478.2"/><line class="cls-4" x1="392.26" y1="480.76" x2="392.26" y2="514.09"/><line class="cls-4" x1="392.26" y1="514.09" x2="358.93" y2="514.09"/><line class="cls-4" x1="358.93" y1="514.09" x2="358.93" y2="480.76"/><line class="cls-4" x1="358.93" y1="480.76" x2="375.59" y2="480.76"/><line class="cls-4" x1="375.59" y1="480.76" x2="392.26" y2="480.76"/><line class="cls-4" x1="257.02" y1="77.6" x2="147.11" y2="58.49"/><line class="cls-4" x1="249.32" y1="84.07" x2="145.79" y2="66.07"/><line class="cls-4" x1="253.17" y1="80.84" x2="249.7" y2="80.24"/><line class="cls-4" x1="249.7" y1="80.24" x2="249.97" y2="78.66"/><line class="cls-4" x1="249.97" y1="78.66" x2="248.39" y2="78.38"/><line class="cls-4" x1="248.39" y1="78.38" x2="248.78" y2="76.17"/><line class="cls-4" x1="248.78" y1="76.17" x2="253.83" y2="77.05"/><line class="cls-4" x1="253.83" y1="77.05" x2="257.02" y2="77.6"/><line class="cls-4" x1="199.21" y1="67.55" x2="201.73" y2="67.99"/><line class="cls-4" x1="201.73" y1="67.99" x2="201.35" y2="70.2"/><line class="cls-4" x1="201.35" y1="70.2" x2="199.77" y2="69.93"/><line class="cls-4" x1="199.77" y1="69.93" x2="199.49" y2="71.5"/><line class="cls-4" x1="199.49" y1="71.5" x2="198.55" y2="71.34"/><line class="cls-4" x1="201.73" y1="67.99" x2="248.78" y2="76.17"/><line class="cls-4" x1="245.52" y1="81.79" x2="202.9" y2="74.37"/><line class="cls-4" x1="249.31" y1="82.45" x2="245.52" y2="81.79"/><line class="cls-4" x1="245.52" y1="81.79" x2="246.18" y2="78"/><line class="cls-4" x1="246.18" y1="78" x2="249.97" y2="78.66"/><line class="cls-4" x1="249.97" y1="78.66" x2="249.31" y2="82.45"/><line class="cls-4" x1="199.77" y1="69.93" x2="203.56" y2="70.58"/><line class="cls-4" x1="203.56" y1="70.58" x2="202.9" y2="74.37"/><line class="cls-4" x1="202.9" y1="74.37" x2="199.11" y2="73.71"/><line class="cls-4" x1="199.11" y1="73.71" x2="199.77" y2="69.93"/><line class="cls-4" x1="203.56" y1="70.58" x2="246.18" y2="78"/><line class="cls-4" x1="245.52" y1="81.79" x2="202.9" y2="74.37"/><line class="cls-4" x1="245.85" y1="79.89" x2="203.23" y2="72.48"/><line class="cls-4" x1="253.83" y1="77.05" x2="253.17" y2="80.84"/><line class="cls-4" x1="198.55" y1="71.34" x2="197.6" y2="71.17"/><line class="cls-4" x1="197.6" y1="71.17" x2="197.88" y2="69.6"/><line class="cls-4" x1="197.88" y1="69.6" x2="196.3" y2="69.32"/><line class="cls-4" x1="196.3" y1="69.32" x2="196.68" y2="67.11"/><line class="cls-4" x1="196.68" y1="67.11" x2="199.21" y2="67.55"/><line class="cls-4" x1="147.11" y1="58.49" x2="149.64" y2="58.93"/><line class="cls-4" x1="149.64" y1="58.93" x2="149.25" y2="61.14"/><line class="cls-4" x1="149.25" y1="61.14" x2="147.67" y2="60.86"/><line class="cls-4" x1="147.67" y1="60.86" x2="147.4" y2="62.44"/><line class="cls-4" x1="147.4" y1="62.44" x2="146.45" y2="62.28"/><line class="cls-4" x1="149.64" y1="58.93" x2="196.68" y2="67.11"/><line class="cls-4" x1="193.43" y1="72.73" x2="150.8" y2="65.31"/><line class="cls-4" x1="197.21" y1="73.39" x2="193.43" y2="72.73"/><line class="cls-4" x1="193.43" y1="72.73" x2="194.09" y2="68.94"/><line class="cls-4" x1="194.09" y1="68.94" x2="197.88" y2="69.6"/><line class="cls-4" x1="197.88" y1="69.6" x2="197.21" y2="73.39"/><line class="cls-4" x1="147.67" y1="60.86" x2="151.46" y2="61.52"/><line class="cls-4" x1="151.46" y1="61.52" x2="150.8" y2="65.31"/><line class="cls-4" x1="150.8" y1="65.31" x2="147.01" y2="64.65"/><line class="cls-4" x1="147.01" y1="64.65" x2="147.67" y2="60.86"/><line class="cls-4" x1="151.46" y1="61.52" x2="194.09" y2="68.94"/><line class="cls-4" x1="193.43" y1="72.73" x2="150.8" y2="65.31"/><line class="cls-4" x1="193.76" y1="70.83" x2="151.13" y2="63.42"/><line class="cls-4" x1="35.89" y1="39.15" x2="147.11" y2="58.49"/><line class="cls-4" x1="43.58" y1="48.29" x2="145.79" y2="66.07"/><line class="cls-4" x1="39.73" y1="43.72" x2="43.21" y2="44.32"/><line class="cls-4" x1="43.21" y1="44.32" x2="43.48" y2="42.74"/><line class="cls-4" x1="43.48" y1="42.74" x2="45.06" y2="43.02"/><line class="cls-4" x1="45.06" y1="43.02" x2="45.44" y2="40.81"/><line class="cls-4" x1="45.44" y1="40.81" x2="40.39" y2="39.93"/><line class="cls-4" x1="40.39" y1="39.93" x2="35.89" y2="39.15"/><line class="cls-4" x1="95.01" y1="49.43" x2="92.49" y2="48.99"/><line class="cls-4" x1="92.49" y1="48.99" x2="92.1" y2="51.2"/><line class="cls-4" x1="92.1" y1="51.2" x2="93.68" y2="51.47"/><line class="cls-4" x1="93.68" y1="51.47" x2="93.41" y2="53.05"/><line class="cls-4" x1="93.41" y1="53.05" x2="94.35" y2="53.22"/><line class="cls-4" x1="92.49" y1="48.99" x2="45.44" y2="40.81"/><line class="cls-4" x1="46.61" y1="47.19" x2="89.23" y2="54.6"/><line class="cls-4" x1="42.82" y1="46.53" x2="46.61" y2="47.19"/><line class="cls-4" x1="46.61" y1="47.19" x2="47.27" y2="43.4"/><line class="cls-4" x1="47.27" y1="43.4" x2="43.48" y2="42.74"/><line class="cls-4" x1="43.48" y1="42.74" x2="42.82" y2="46.53"/><line class="cls-4" x1="93.68" y1="51.47" x2="89.89" y2="50.82"/><line class="cls-4" x1="89.89" y1="50.82" x2="89.23" y2="54.6"/><line class="cls-4" x1="89.23" y1="54.6" x2="93.02" y2="55.26"/><line class="cls-4" x1="93.02" y1="55.26" x2="93.68" y2="51.47"/><line class="cls-4" x1="89.89" y1="50.82" x2="47.27" y2="43.4"/><line class="cls-4" x1="46.61" y1="47.19" x2="89.23" y2="54.6"/><line class="cls-4" x1="46.94" y1="45.3" x2="89.56" y2="52.71"/><line class="cls-4" x1="40.39" y1="39.93" x2="39.73" y2="43.72"/><line class="cls-4" x1="94.35" y1="53.22" x2="95.3" y2="53.38"/><line class="cls-4" x1="95.3" y1="53.38" x2="95.58" y2="51.8"/><line class="cls-4" x1="95.58" y1="51.8" x2="97.16" y2="52.08"/><line class="cls-4" x1="97.16" y1="52.08" x2="97.54" y2="49.87"/><line class="cls-4" x1="97.54" y1="49.87" x2="95.01" y2="49.43"/><line class="cls-4" x1="147.11" y1="58.49" x2="144.58" y2="58.05"/><line class="cls-4" x1="144.58" y1="58.05" x2="144.2" y2="60.26"/><line class="cls-4" x1="144.2" y1="60.26" x2="145.78" y2="60.54"/><line class="cls-4" x1="145.78" y1="60.54" x2="145.5" y2="62.11"/><line class="cls-4" x1="145.5" y1="62.11" x2="146.45" y2="62.28"/><line class="cls-4" x1="144.58" y1="58.05" x2="97.54" y2="49.87"/><line class="cls-4" x1="98.71" y1="56.25" x2="141.33" y2="63.67"/><line class="cls-4" x1="94.92" y1="55.59" x2="98.71" y2="56.25"/><line class="cls-4" x1="98.71" y1="56.25" x2="99.36" y2="52.46"/><line class="cls-4" x1="99.36" y1="52.46" x2="95.58" y2="51.8"/><line class="cls-4" x1="95.58" y1="51.8" x2="94.92" y2="55.59"/><line class="cls-4" x1="145.78" y1="60.54" x2="141.99" y2="59.88"/><line class="cls-4" x1="141.99" y1="59.88" x2="141.33" y2="63.67"/><line class="cls-4" x1="141.33" y1="63.67" x2="145.12" y2="64.32"/><line class="cls-4" x1="145.12" y1="64.32" x2="145.78" y2="60.54"/><line class="cls-4" x1="141.99" y1="59.88" x2="99.36" y2="52.46"/><line class="cls-4" x1="98.71" y1="56.25" x2="141.33" y2="63.67"/><line class="cls-4" x1="99.04" y1="54.36" x2="141.66" y2="61.77"/><line class="cls-4" x1="39.73" y1="125.12" x2="43.58" y2="125.12"/><line class="cls-4" x1="35.89" y1="125.12" x2="39.73" y2="125.12"/><line class="cls-4" x1="35.89" y1="125.12" x2="35.89" y2="39.15"/><line class="cls-4" x1="43.58" y1="125.12" x2="43.58" y2="48.29"/><line class="cls-4" x1="39.73" y1="125.12" x2="39.73" y2="121.59"/><line class="cls-4" x1="39.73" y1="121.59" x2="38.13" y2="121.59"/><line class="cls-4" x1="38.13" y1="121.59" x2="38.13" y2="119.99"/><line class="cls-4" x1="38.13" y1="119.99" x2="35.89" y2="119.99"/><line class="cls-4" x1="35.89" y1="119.99" x2="35.89" y2="125.12"/><line class="cls-4" x1="35.89" y1="84.42" x2="35.89" y2="86.98"/><line class="cls-4" x1="35.89" y1="86.98" x2="38.13" y2="86.98"/><line class="cls-4" x1="38.13" y1="86.98" x2="38.13" y2="85.38"/><line class="cls-4" x1="38.13" y1="85.38" x2="39.73" y2="85.38"/><line class="cls-4" x1="39.73" y1="85.38" x2="39.73" y2="84.42"/><line class="cls-4" x1="35.89" y1="86.98" x2="35.89" y2="119.99"/><line class="cls-4" x1="41.98" y1="117.75" x2="41.98" y2="89.22"/><line class="cls-4" x1="41.98" y1="121.59" x2="41.98" y2="117.75"/><line class="cls-4" x1="41.98" y1="117.75" x2="38.13" y2="117.75"/><line class="cls-4" x1="38.13" y1="117.75" x2="38.13" y2="121.59"/><line class="cls-4" x1="38.13" y1="121.59" x2="41.98" y2="121.59"/><line class="cls-4" x1="38.13" y1="85.38" x2="38.13" y2="89.22"/><line class="cls-4" x1="38.13" y1="89.22" x2="41.98" y2="89.22"/><line class="cls-4" x1="41.98" y1="89.22" x2="41.98" y2="85.38"/><line class="cls-4" x1="41.98" y1="85.38" x2="38.13" y2="85.38"/><line class="cls-4" x1="38.13" y1="89.22" x2="38.13" y2="117.75"/><line class="cls-4" x1="41.98" y1="117.75" x2="41.98" y2="89.22"/><line class="cls-4" x1="40.05" y1="117.75" x2="40.05" y2="89.22"/><line class="cls-4" x1="39.73" y1="84.42" x2="39.73" y2="83.46"/><line class="cls-4" x1="39.73" y1="83.46" x2="38.13" y2="83.46"/><line class="cls-4" x1="38.13" y1="83.46" x2="38.13" y2="81.85"/><line class="cls-4" x1="38.13" y1="81.85" x2="35.89" y2="81.85"/><line class="cls-4" x1="35.89" y1="81.85" x2="35.89" y2="84.42"/><line class="cls-4" x1="35.89" y1="43.72" x2="35.89" y2="48.85"/><line class="cls-4" x1="35.89" y1="48.85" x2="38.13" y2="48.85"/><line class="cls-4" x1="38.13" y1="48.85" x2="38.13" y2="47.24"/><line class="cls-4" x1="38.13" y1="47.24" x2="39.73" y2="47.24"/><line class="cls-4" x1="39.73" y1="47.24" x2="39.73" y2="43.72"/><line class="cls-4" x1="35.89" y1="39.15" x2="35.89" y2="43.72"/><line class="cls-4" x1="35.89" y1="48.85" x2="35.89" y2="81.85"/><line class="cls-4" x1="41.98" y1="79.61" x2="41.98" y2="51.09"/><line class="cls-4" x1="41.98" y1="83.46" x2="41.98" y2="79.61"/><line class="cls-4" x1="41.98" y1="79.61" x2="38.13" y2="79.61"/><line class="cls-4" x1="38.13" y1="79.61" x2="38.13" y2="83.46"/><line class="cls-4" x1="38.13" y1="83.46" x2="41.98" y2="83.46"/><line class="cls-4" x1="38.13" y1="47.24" x2="38.13" y2="51.09"/><line class="cls-4" x1="38.13" y1="51.09" x2="41.98" y2="51.09"/><line class="cls-4" x1="41.98" y1="51.09" x2="41.98" y2="47.24"/><line class="cls-4" x1="41.98" y1="47.24" x2="38.13" y2="47.24"/><line class="cls-4" x1="38.13" y1="51.09" x2="38.13" y2="79.61"/><line class="cls-4" x1="41.98" y1="79.61" x2="41.98" y2="51.09"/><line class="cls-4" x1="40.05" y1="79.61" x2="40.05" y2="51.09"/><line class="cls-4" x1="35.89" y1="43.72" x2="39.73" y2="43.72"/><line class="cls-4" x1="35.89" y1="125.12" x2="39.73" y2="125.12"/><line class="cls-4" x1="35.89" y1="125.12" x2="39.73" y2="125.12"/><line class="cls-4" x1="39.73" y1="125.12" x2="43.58" y2="125.12"/><line class="cls-4" x1="253.17" y1="125.07" x2="249.32" y2="125.07"/><line class="cls-4" x1="257.02" y1="125.07" x2="253.17" y2="125.07"/><line class="cls-4" x1="257.02" y1="77.6" x2="257.02" y2="125.07"/><line class="cls-4" x1="249.32" y1="84.07" x2="249.32" y2="125.07"/><line class="cls-4" x1="253.17" y1="80.84" x2="253.17" y2="84.37"/><line class="cls-4" x1="253.17" y1="84.37" x2="254.77" y2="84.37"/><line class="cls-4" x1="254.77" y1="84.37" x2="254.77" y2="85.97"/><line class="cls-4" x1="254.77" y1="85.97" x2="257.02" y2="85.97"/><line class="cls-4" x1="257.02" y1="85.97" x2="257.02" y2="80.84"/><line class="cls-4" x1="257.02" y1="80.84" x2="257.02" y2="77.6"/><line class="cls-4" x1="257.02" y1="125.07" x2="257.02" y2="119.94"/><line class="cls-4" x1="257.02" y1="119.94" x2="254.77" y2="119.94"/><line class="cls-4" x1="254.77" y1="119.94" x2="254.77" y2="121.54"/><line class="cls-4" x1="254.77" y1="121.54" x2="253.17" y2="121.54"/><line class="cls-4" x1="253.17" y1="121.54" x2="253.17" y2="125.07"/><line class="cls-4" x1="257.02" y1="119.94" x2="257.02" y2="85.97"/><line class="cls-4" x1="250.93" y1="88.21" x2="250.93" y2="117.7"/><line class="cls-4" x1="250.93" y1="84.37" x2="250.93" y2="88.21"/><line class="cls-4" x1="250.93" y1="88.21" x2="254.77" y2="88.21"/><line class="cls-4" x1="254.77" y1="88.21" x2="254.77" y2="84.37"/><line class="cls-4" x1="254.77" y1="84.37" x2="250.93" y2="84.37"/><line class="cls-4" x1="254.77" y1="121.54" x2="254.77" y2="117.7"/><line class="cls-4" x1="254.77" y1="117.7" x2="250.93" y2="117.7"/><line class="cls-4" x1="250.93" y1="117.7" x2="250.93" y2="121.54"/><line class="cls-4" x1="250.93" y1="121.54" x2="254.77" y2="121.54"/><line class="cls-4" x1="254.77" y1="117.7" x2="254.77" y2="88.21"/><line class="cls-4" x1="250.93" y1="88.21" x2="250.93" y2="117.7"/><line class="cls-4" x1="252.85" y1="88.21" x2="252.85" y2="117.7"/><line class="cls-4" x1="257.02" y1="80.84" x2="253.17" y2="80.84"/><line class="cls-4" x1="257.02" y1="125.07" x2="253.17" y2="125.07"/><line class="cls-4" x1="257.02" y1="125.07" x2="253.17" y2="125.07"/><line class="cls-4" x1="253.17" y1="125.07" x2="249.32" y2="125.07"/><line class="cls-4" x1="279.45" y1="609.59" x2="279.45" y2="596.77"/><line class="cls-4" x1="266.63" y1="583.95" x2="266.63" y2="596.77"/><line class="cls-4" x1="279.45" y1="596.77" x2="356.36" y2="596.77"/><line class="cls-4" x1="369.18" y1="583.95" x2="266.63" y2="583.95"/><line class="cls-4" x1="356.36" y1="596.77" x2="356.36" y2="609.59"/><line class="cls-4" x1="369.18" y1="596.77" x2="369.18" y2="583.95"/><line class="cls-4" x1="369.18" y1="596.77" x2="369.18" y2="596.77"/><line class="cls-4" x1="356.36" y1="609.59" x2="369.18" y2="609.59"/><line class="cls-4" x1="0.63" y1="571.13" x2="0.63" y2="566.01"/><line class="cls-4" x1="266.63" y1="487.81" x2="266.63" y2="521.78"/><line class="cls-4" x1="271.75" y1="516.65" x2="271.75" y2="482.68"/><line class="cls-4" x1="266.63" y1="521.78" x2="271.75" y2="521.78"/><line class="cls-4" x1="266.63" y1="583.95" x2="271.75" y2="583.95"/><line class="cls-4" x1="271.75" y1="577.9" x2="271.75" y2="583.95"/><polyline class="cls-4" points="266.63 521.78 266.63 526.88 271.75 526.88 271.75 521.78"/><line class="cls-4" x1="266.63" y1="577.9" x2="266.63" y2="577.9"/><polyline class="cls-4" points="266.63 583.95 266.63 577.9 271.75 577.9 271.75 577.9"/><line class="cls-4" x1="13.45" y1="435.26" x2="119.21" y2="435.26"/><line class="cls-4" x1="124.34" y1="435.26" x2="130.76" y2="435.26"/><line class="cls-4" x1="130.76" y1="430.13" x2="13.45" y2="430.13"/><line class="cls-4" x1="130.76" y1="430.13" x2="130.76" y2="435.26"/><line class="cls-4" x1="192.92" y1="430.13" x2="192.92" y2="435.26"/><polyline class="cls-4" points="192.92 430.13 190.32 430.13 190.32 435.26 192.92 435.26"/><line class="cls-4" x1="198.05" y1="423.72" x2="198.05" y2="196.18"/><line class="cls-4" x1="192.92" y1="196.18" x2="192.92" y2="423.72"/><line class="cls-4" x1="119.21" y1="435.26" x2="119.21" y2="483.83"/><line class="cls-4" x1="119.21" y1="535.89" x2="119.21" y2="596.77"/><line class="cls-4" x1="124.34" y1="596.77" x2="124.34" y2="535.89"/><line class="cls-4" x1="124.34" y1="483.83" x2="124.34" y2="435.26"/><line class="cls-4" x1="124.34" y1="483.83" x2="119.21" y2="483.83"/><line class="cls-4" x1="124.34" y1="535.89" x2="119.21" y2="535.89"/><line class="cls-4" x1="45.5" y1="571.13" x2="45.5" y2="596.77"/><line class="cls-4" x1="45.5" y1="596.77" x2="50.63" y2="596.77"/><line class="cls-4" x1="50.63" y1="596.77" x2="50.63" y2="571.13"/><line class="cls-4" x1="42.07" y1="571.13" x2="42.3" y2="570.91"/><line class="cls-4" x1="16.66" y1="566.64" x2="17.29" y2="566.01"/><line class="cls-4" x1="16.66" y1="568.57" x2="16.66" y2="571.13"/><line class="cls-4" x1="16.66" y1="566.01" x2="16.66" y2="568.57"/><line class="cls-4" x1="42.3" y1="568.57" x2="42.3" y2="571.13"/><line class="cls-4" x1="42.3" y1="566.01" x2="42.3" y2="568.57"/><line class="cls-4" x1="13.45" y1="571.13" x2="16.66" y2="571.13"/><line class="cls-4" x1="42.3" y1="571.13" x2="45.5" y2="571.13"/><line class="cls-4" x1="50.63" y1="571.13" x2="84.6" y2="571.13"/><line class="cls-4" x1="89.73" y1="566.01" x2="42.3" y2="566.01"/><line class="cls-4" x1="16.66" y1="566.01" x2="13.45" y2="566.01"/><line class="cls-4" x1="13.45" y1="566.01" x2="13.45" y2="571.13"/><line class="cls-4" x1="42.3" y1="566.01" x2="16.66" y2="566.01"/><line class="cls-4" x1="42.3" y1="571.13" x2="16.66" y2="571.13"/><path class="cls-4" d="M40.75,585.58a25.72,25.72,0,0,1,1.55,8.77" transform="translate(0 -28.34)"/><line class="cls-4" x1="16.66" y1="566.01" x2="40.75" y2="557.24"/><line class="cls-4" x1="42.3" y1="566.01" x2="42.3" y2="568.57"/><line class="cls-4" x1="42.3" y1="566.01" x2="42.3" y2="568.57"/><line class="cls-4" x1="42.3" y1="568.57" x2="42.3" y2="571.13"/><line class="cls-4" x1="16.66" y1="566.01" x2="16.66" y2="568.57"/><line class="cls-4" x1="16.66" y1="566.01" x2="16.66" y2="568.57"/><line class="cls-4" x1="16.66" y1="568.57" x2="16.66" y2="571.13"/><line class="cls-4" x1="369.18" y1="583.95" x2="369.18" y2="558.96"/><line class="cls-4" x1="369.18" y1="553.83" x2="369.18" y2="521.78"/><line class="cls-4" x1="364.06" y1="521.78" x2="364.06" y2="583.95"/><line class="cls-4" x1="364.06" y1="583.95" x2="369.18" y2="583.95"/><line class="cls-4" x1="192.92" y1="487.81" x2="205.74" y2="487.81"/><line class="cls-4" x1="271.75" y1="482.68" x2="266.63" y2="482.68"/><line class="cls-4" x1="266.63" y1="482.68" x2="266.63" y2="487.81"/><line class="cls-4" x1="205.74" y1="482.68" x2="205.74" y2="487.81"/><line class="cls-4" x1="407.64" y1="516.65" x2="407.64" y2="521.78"/><line class="cls-4" x1="391.46" y1="521.78" x2="391.62" y2="521.62"/><line class="cls-4" x1="372.39" y1="517.29" x2="373.02" y2="516.65"/><line class="cls-4" x1="391.62" y1="519.22" x2="391.62" y2="521.78"/><line class="cls-4" x1="391.62" y1="516.65" x2="391.62" y2="519.22"/><line class="cls-4" x1="372.39" y1="519.22" x2="372.39" y2="521.78"/><line class="cls-4" x1="372.39" y1="516.65" x2="372.39" y2="519.22"/><line class="cls-4" x1="271.75" y1="521.78" x2="364.06" y2="521.78"/><line class="cls-4" x1="369.18" y1="521.78" x2="372.39" y2="521.78"/><line class="cls-4" x1="391.62" y1="521.78" x2="394.82" y2="521.78"/><line class="cls-4" x1="394.82" y1="521.78" x2="394.82" y2="516.65"/><line class="cls-4" x1="394.82" y1="516.65" x2="391.62" y2="516.65"/><line class="cls-4" x1="372.39" y1="516.65" x2="271.75" y2="516.65"/><line class="cls-4" x1="372.39" y1="516.65" x2="391.62" y2="516.65"/><line class="cls-4" x1="372.39" y1="521.78" x2="391.62" y2="521.78"/><path class="cls-4" d="M372.39,545a19.1,19.1,0,0,1,1.16-6.57" transform="translate(0 -28.34)"/><line class="cls-4" x1="391.62" y1="516.65" x2="373.55" y2="510.08"/><line class="cls-4" x1="372.39" y1="516.65" x2="372.39" y2="519.22"/><line class="cls-4" x1="372.39" y1="516.65" x2="372.39" y2="519.22"/><line class="cls-4" x1="372.39" y1="519.22" x2="372.39" y2="521.78"/><line class="cls-4" x1="391.62" y1="516.65" x2="391.62" y2="519.22"/><line class="cls-4" x1="391.62" y1="516.65" x2="391.62" y2="519.22"/><line class="cls-4" x1="391.62" y1="519.22" x2="391.62" y2="521.78"/><line class="cls-4" x1="84.6" y1="571.13" x2="84.6" y2="596.77"/><line class="cls-4" x1="84.6" y1="596.77" x2="89.73" y2="596.77"/><line class="cls-4" x1="89.73" y1="596.77" x2="89.73" y2="566.01"/><line class="cls-4" x1="369.18" y1="558.96" x2="394.82" y2="558.96"/><line class="cls-4" x1="394.82" y1="558.96" x2="394.82" y2="553.83"/><line class="cls-4" x1="394.82" y1="553.83" x2="369.18" y2="553.83"/><line class="cls-4" x1="407.64" y1="553.83" x2="407.64" y2="558.96"/><line class="cls-4" x1="20.27" y1="125.66" x2="20.27" y2="125.66"/><line class="cls-4" x1="13.13" y1="125.66" x2="13.13" y2="125.66"/><line class="cls-4" x1="33.88" y1="125.26" x2="33.88" y2="125.26"/><line class="cls-4" x1="7.02" y1="125.25" x2="7.02" y2="125.25"/><line class="cls-4" x1="234.42" y1="125.66" x2="234.42" y2="125.66"/><line class="cls-4" x1="227.28" y1="125.66" x2="227.28" y2="125.66"/><line class="cls-4" x1="198.73" y1="125.66" x2="198.73" y2="125.66"/><line class="cls-4" x1="191.59" y1="125.66" x2="191.59" y2="125.66"/><line class="cls-4" x1="163.04" y1="125.66" x2="163.04" y2="125.66"/><line class="cls-4" x1="243.34" y1="125.18" x2="243.34" y2="125.18"/><line class="cls-4" x1="211.12" y1="125.21" x2="211.12" y2="125.21"/><line class="cls-4" x1="184.26" y1="125.2" x2="184.26" y2="125.2"/><line class="cls-4" x1="407.64" y1="125.66" x2="407.64" y2="125.66"/><line class="cls-4" x1="405.74" y1="125.66" x2="405.74" y2="125.66"/><line class="cls-4" x1="388.36" y1="125.16" x2="388.36" y2="125.16"/><line class="cls-4" x1="48.82" y1="125.66" x2="48.82" y2="125.66"/><line class="cls-4" x1="157.09" y1="131.61" x2="157.09" y2="131.61"/><line class="cls-4" x1="261.5" y1="125.67" x2="157.67" y2="125.67"/><line class="cls-4" x1="407.64" y1="125.67" x2="380.08" y2="125.67"/><line class="cls-4" x1="48.71" y1="125.67" x2="0.71" y2="125.67"/><line class="cls-4" x1="259.58" y1="132.08" x2="160.23" y2="132.08"/><line class="cls-4" x1="407.64" y1="132.08" x2="382" y2="132.08"/><line class="cls-4" x1="46.14" y1="132.08" x2="0.71" y2="132.08"/><line class="cls-4" x1="157.67" y1="132.08" x2="157.67" y2="125.67"/><line class="cls-4" x1="157.03" y1="125.03" x2="157.03" y2="132.08"/><line class="cls-4" x1="157.67" y1="125.03" x2="157.03" y2="125.03"/><line class="cls-4" x1="48.71" y1="132.08" x2="48.71" y2="125.67"/><line class="cls-4" x1="49.35" y1="125.03" x2="49.35" y2="132.08"/><line class="cls-4" x1="48.71" y1="125.03" x2="49.35" y2="125.03"/><line class="cls-4" x1="160.23" y1="132.08" x2="157.03" y2="132.08"/><line class="cls-4" x1="160.23" y1="148.11" x2="160.23" y2="132.08"/><line class="cls-4" x1="46.14" y1="132.08" x2="49.35" y2="132.08"/><line class="cls-4" x1="46.14" y1="148.11" x2="46.14" y2="132.08"/><line class="cls-4" x1="380.08" y1="132.08" x2="379.44" y2="132.08"/><line class="cls-4" x1="380.08" y1="125.67" x2="380.08" y2="132.08"/><line class="cls-4" x1="380.08" y1="125.03" x2="379.44" y2="125.03"/><line class="cls-4" x1="379.44" y1="132.08" x2="379.44" y2="125.03"/><line class="cls-4" x1="261.5" y1="132.08" x2="262.14" y2="132.08"/><line class="cls-4" x1="261.5" y1="125.67" x2="261.5" y2="132.08"/><line class="cls-4" x1="261.5" y1="125.03" x2="262.14" y2="125.03"/><line class="cls-4" x1="262.14" y1="132.08" x2="262.14" y2="125.03"/><line class="cls-4" x1="382" y1="135.93" x2="382" y2="148.11"/><line class="cls-4" x1="379.44" y1="125.67" x2="379.44" y2="132.08"/><line class="cls-4" x1="379.44" y1="125.03" x2="379.44" y2="125.67"/><line class="cls-4" x1="379.44" y1="132.08" x2="382" y2="132.08"/><line class="cls-4" x1="382" y1="132.08" x2="382" y2="135.93"/><line class="cls-4" x1="259.58" y1="135.93" x2="259.58" y2="148.11"/><line class="cls-4" x1="262.14" y1="125.67" x2="262.14" y2="132.08"/><line class="cls-4" x1="262.14" y1="125.03" x2="262.14" y2="125.67"/><line class="cls-4" x1="262.14" y1="132.08" x2="259.58" y2="132.08"/><line class="cls-4" x1="259.58" y1="132.08" x2="259.58" y2="135.93"/><line class="cls-4" x1="407.64" y1="125.03" x2="380.08" y2="125.03"/><line class="cls-4" x1="261.5" y1="125.03" x2="157.67" y2="125.03"/><line class="cls-4" x1="48.71" y1="125.03" x2="0.71" y2="125.03"/><line class="cls-4" x1="13.45" y1="148.11" x2="46.14" y2="148.11"/><line class="cls-4" x1="160.23" y1="148.11" x2="192.92" y2="148.11"/><line class="cls-4" x1="205.74" y1="148.11" x2="259.58" y2="148.11"/><line class="cls-4" x1="382" y1="148.11" x2="394.82" y2="148.11"/><line class="cls-4" x1="53.83" y1="133.36" x2="49.99" y2="133.36"/><line class="cls-4" x1="53.83" y1="137.21" x2="53.83" y2="133.36"/><line class="cls-4" x1="49.99" y1="137.21" x2="53.83" y2="137.21"/><line class="cls-4" x1="49.99" y1="133.36" x2="49.99" y2="137.21"/><line class="cls-4" x1="108.31" y1="133.36" x2="104.47" y2="133.36"/><line class="cls-4" x1="108.31" y1="137.21" x2="108.31" y2="133.36"/><line class="cls-4" x1="104.47" y1="137.21" x2="108.31" y2="137.21"/><line class="cls-4" x1="104.47" y1="133.36" x2="104.47" y2="137.21"/><line class="cls-4" x1="104.47" y1="133.36" x2="53.83" y2="133.36"/><line class="cls-4" x1="104.47" y1="137.21" x2="104.47" y2="133.36"/><line class="cls-4" x1="53.83" y1="137.21" x2="104.47" y2="137.21"/><line class="cls-4" x1="53.83" y1="133.36" x2="53.83" y2="137.21"/><line class="cls-4" x1="156.39" y1="133.36" x2="152.54" y2="133.36"/><line class="cls-4" x1="156.39" y1="137.21" x2="156.39" y2="133.36"/><line class="cls-4" x1="152.54" y1="137.21" x2="156.39" y2="137.21"/><line class="cls-4" x1="152.54" y1="133.36" x2="152.54" y2="137.21"/><line class="cls-4" x1="114.72" y1="133.36" x2="110.88" y2="133.36"/><line class="cls-4" x1="114.72" y1="137.21" x2="114.72" y2="133.36"/><line class="cls-4" x1="110.88" y1="137.21" x2="114.72" y2="137.21"/><line class="cls-4" x1="110.88" y1="133.36" x2="110.88" y2="137.21"/><line class="cls-4" x1="152.54" y1="133.36" x2="114.72" y2="133.36"/><line class="cls-4" x1="152.54" y1="137.21" x2="152.54" y2="133.36"/><line class="cls-4" x1="114.72" y1="137.21" x2="152.54" y2="137.21"/><line class="cls-4" x1="114.72" y1="133.36" x2="114.72" y2="137.21"/><line class="cls-4" x1="107.03" y1="125.03" x2="107.03" y2="129.52"/><line class="cls-4" x1="107.03" y1="148.11" x2="107.03" y2="135.93"/><line class="cls-4" x1="48.71" y1="125.03" x2="107.03" y2="125.03"/><line class="cls-4" x1="157.67" y1="125.03" x2="104.47" y2="125.03"/><line class="cls-4" x1="46.14" y1="148.11" x2="107.03" y2="148.11"/><line class="cls-4" x1="160.23" y1="148.11" x2="104.47" y2="148.11"/><line class="cls-4" x1="46.14" y1="132.08" x2="160.23" y2="132.08"/><line class="cls-4" x1="46.14" y1="135.93" x2="49.99" y2="135.93"/><line class="cls-4" x1="51.27" y1="132.08" x2="51.27" y2="133.36"/><line class="cls-4" x1="107.03" y1="132.08" x2="107.03" y2="133.36"/><line class="cls-4" x1="160.23" y1="135.93" x2="156.39" y2="135.93"/><line class="cls-4" x1="155.1" y1="132.08" x2="155.1" y2="133.36"/><line class="cls-4" x1="112.16" y1="132.08" x2="112.16" y2="133.36"/><line class="cls-4" x1="53.83" y1="133.36" x2="53.83" y2="137.21"/><line class="cls-4" x1="104.47" y1="133.36" x2="104.47" y2="137.21"/><line class="cls-4" x1="104.47" y1="135.29" x2="53.83" y2="135.29"/><line class="cls-4" x1="152.54" y1="133.36" x2="152.54" y2="137.21"/><line class="cls-4" x1="114.72" y1="133.36" x2="114.72" y2="137.21"/><line class="cls-4" x1="114.72" y1="135.29" x2="152.54" y2="135.29"/><line class="cls-4" x1="108.31" y1="135.93" x2="110.88" y2="135.93"/><line class="cls-4" x1="156.39" y1="137.21" x2="116.97" y2="159.96"/><path class="cls-4" d="M117,188.3a45.5,45.5,0,0,1-6.09-22.75" transform="translate(0 -28.34)"/><line class="cls-4" x1="46.14" y1="132.08" x2="46.14" y2="135.93"/><line class="cls-4" x1="46.14" y1="132.08" x2="46.14" y2="135.93"/><line class="cls-4" x1="160.23" y1="132.08" x2="160.23" y2="135.93"/><line class="cls-4" x1="160.23" y1="132.08" x2="160.23" y2="135.93"/><line class="cls-4" x1="262.14" y1="125.03" x2="379.44" y2="125.03"/><line class="cls-4" x1="259.58" y1="148.11" x2="382" y2="148.11"/><line class="cls-4" x1="259.58" y1="135.93" x2="263.1" y2="135.93"/><line class="cls-4" x1="263.1" y1="135.93" x2="263.1" y2="133.36"/><line class="cls-4" x1="263.1" y1="133.36" x2="264.71" y2="133.36"/><line class="cls-4" x1="264.71" y1="133.36" x2="264.71" y2="132.08"/><line class="cls-4" x1="264.71" y1="132.08" x2="259.58" y2="132.08"/><line class="cls-4" x1="304.45" y1="132.08" x2="301.88" y2="132.08"/><line class="cls-4" x1="301.88" y1="132.08" x2="301.88" y2="133.36"/><line class="cls-4" x1="301.88" y1="133.36" x2="303.49" y2="133.36"/><line class="cls-4" x1="303.49" y1="133.36" x2="303.49" y2="135.93"/><line class="cls-4" x1="303.49" y1="135.93" x2="304.45" y2="135.93"/><line class="cls-4" x1="301.88" y1="132.08" x2="264.71" y2="132.08"/><line class="cls-4" x1="266.95" y1="137.21" x2="299.64" y2="137.21"/><line class="cls-4" x1="263.1" y1="137.21" x2="266.95" y2="137.21"/><line class="cls-4" x1="266.95" y1="137.21" x2="266.95" y2="133.36"/><line class="cls-4" x1="266.95" y1="133.36" x2="263.1" y2="133.36"/><line class="cls-4" x1="263.1" y1="133.36" x2="263.1" y2="137.21"/><line class="cls-4" x1="303.49" y1="133.36" x2="299.64" y2="133.36"/><line class="cls-4" x1="299.64" y1="133.36" x2="299.64" y2="137.21"/><line class="cls-4" x1="299.64" y1="137.21" x2="303.49" y2="137.21"/><line class="cls-4" x1="303.49" y1="137.21" x2="303.49" y2="133.36"/><line class="cls-4" x1="299.64" y1="133.36" x2="266.95" y2="133.36"/><line class="cls-4" x1="266.95" y1="137.21" x2="299.64" y2="137.21"/><line class="cls-4" x1="266.95" y1="135.29" x2="299.64" y2="135.29"/><line class="cls-4" x1="304.45" y1="135.93" x2="305.41" y2="135.93"/><line class="cls-4" x1="305.41" y1="135.93" x2="305.41" y2="133.36"/><line class="cls-4" x1="305.41" y1="133.36" x2="307.01" y2="133.36"/><line class="cls-4" x1="307.01" y1="133.36" x2="307.01" y2="132.08"/><line class="cls-4" x1="307.01" y1="132.08" x2="304.45" y2="132.08"/><line class="cls-4" x1="382" y1="132.08" x2="376.87" y2="132.08"/><line class="cls-4" x1="376.87" y1="132.08" x2="376.87" y2="133.36"/><line class="cls-4" x1="376.87" y1="133.36" x2="378.48" y2="133.36"/><line class="cls-4" x1="378.48" y1="133.36" x2="378.48" y2="135.93"/><line class="cls-4" x1="378.48" y1="135.93" x2="382" y2="135.93"/><line class="cls-4" x1="376.87" y1="132.08" x2="307.01" y2="132.08"/><line class="cls-4" x1="309.25" y1="137.21" x2="374.63" y2="137.21"/><line class="cls-4" x1="305.41" y1="137.21" x2="309.25" y2="137.21"/><line class="cls-4" x1="309.25" y1="137.21" x2="309.25" y2="133.36"/><line class="cls-4" x1="309.25" y1="133.36" x2="305.41" y2="133.36"/><line class="cls-4" x1="305.41" y1="133.36" x2="305.41" y2="137.21"/><line class="cls-4" x1="378.48" y1="133.36" x2="374.63" y2="133.36"/><line class="cls-4" x1="374.63" y1="133.36" x2="374.63" y2="137.21"/><line class="cls-4" x1="374.63" y1="137.21" x2="378.48" y2="137.21"/><line class="cls-4" x1="378.48" y1="137.21" x2="378.48" y2="133.36"/><line class="cls-4" x1="374.63" y1="133.36" x2="309.25" y2="133.36"/><line class="cls-4" x1="309.25" y1="137.21" x2="374.63" y2="137.21"/><line class="cls-4" x1="309.25" y1="135.29" x2="374.63" y2="135.29"/><line class="cls-4" x1="259.58" y1="132.08" x2="259.58" y2="135.93"/><line class="cls-4" x1="259.58" y1="132.08" x2="259.58" y2="135.93"/><line class="cls-4" x1="262.14" y1="132.08" x2="259.58" y2="132.08"/><line class="cls-4" x1="262.14" y1="132.08" x2="259.58" y2="132.08"/><line class="cls-4" x1="262.14" y1="125.03" x2="262.14" y2="125.67"/><line class="cls-4" x1="262.14" y1="125.67" x2="262.14" y2="132.08"/><line class="cls-4" x1="259.58" y1="135.93" x2="259.58" y2="148.11"/><line class="cls-4" x1="382" y1="132.08" x2="382" y2="135.93"/><line class="cls-4" x1="382" y1="132.08" x2="382" y2="135.93"/><line class="cls-4" x1="379.44" y1="132.08" x2="382" y2="132.08"/><line class="cls-4" x1="379.44" y1="132.08" x2="382" y2="132.08"/><line class="cls-4" x1="379.44" y1="125.03" x2="379.44" y2="125.67"/><line class="cls-4" x1="379.44" y1="125.67" x2="379.44" y2="132.08"/><line class="cls-4" x1="382" y1="135.93" x2="382" y2="148.11"/><line class="cls-4" x1="407.64" y1="609.37" x2="407.64" y2="487.81"/><line class="cls-4" x1="407.64" y1="423.72" x2="407.64" y2="196.18"/><line class="cls-4" x1="394.82" y1="196.18" x2="394.82" y2="423.72"/><line class="cls-4" x1="394.82" y1="487.81" x2="394.82" y2="596.77"/><line class="cls-4" x1="247.4" y1="596.77" x2="247.4" y2="604.46"/><line class="cls-4" x1="247.4" y1="604.46" x2="247.4" y2="609.59"/><line class="cls-4" x1="183.31" y1="596.77" x2="183.31" y2="604.46"/><line class="cls-4" x1="183.31" y1="604.46" x2="183.31" y2="609.59"/><line class="cls-4" x1="266.63" y1="596.77" x2="247.4" y2="596.77"/><line class="cls-4" x1="119.21" y1="596.77" x2="13.45" y2="596.77"/><line class="cls-4" x1="0.63" y1="609.59" x2="119.21" y2="609.59"/><line class="cls-4" x1="247.4" y1="609.59" x2="279.45" y2="609.59"/><line class="cls-4" x1="183.08" y1="609.59" x2="247.4" y2="609.59"/><path class="cls-4" d="M185.87,632.8a59,59,0,0,1,59-59h0" transform="translate(0 -28.34)"/><line class="cls-4" x1="183.31" y1="609.59" x2="185.87" y2="609.59"/><line class="cls-4" x1="185.87" y1="609.59" x2="185.87" y2="604.46"/><line class="cls-4" x1="185.87" y1="604.46" x2="183.31" y2="604.46"/><line class="cls-4" x1="183.31" y1="604.46" x2="183.31" y2="609.59"/><line class="cls-4" x1="247.4" y1="604.46" x2="244.84" y2="604.46"/><line class="cls-4" x1="244.84" y1="604.46" x2="244.84" y2="609.59"/><line class="cls-4" x1="244.84" y1="609.59" x2="247.4" y2="609.59"/><line class="cls-4" x1="247.4" y1="609.59" x2="247.4" y2="604.46"/><line class="cls-4" x1="244.84" y1="604.46" x2="244.84" y2="545.5"/><line class="cls-4" x1="183.31" y1="604.46" x2="183.31" y2="609.59"/><line class="cls-4" x1="183.31" y1="604.46" x2="183.31" y2="609.59"/><line class="cls-4" x1="183.31" y1="596.77" x2="183.31" y2="604.46"/><line class="cls-4" x1="247.4" y1="604.46" x2="247.4" y2="609.59"/><line class="cls-4" x1="247.4" y1="604.46" x2="247.4" y2="609.59"/><line class="cls-4" x1="247.4" y1="596.77" x2="247.4" y2="604.46"/><line class="cls-4" x1="0.63" y1="196.18" x2="0.63" y2="423.72"/><line class="cls-4" x1="0.63" y1="487.81" x2="0.63" y2="596.77"/><line class="cls-4" x1="13.45" y1="596.77" x2="13.45" y2="487.81"/><line class="cls-4" x1="13.45" y1="423.72" x2="13.45" y2="196.18"/><line class="cls-4" x1="0.63" y1="609.59" x2="0.63" y2="596.77"/><line class="cls-4" x1="0.63" y1="609.59" x2="0.63" y2="609.59"/><line class="cls-4" x1="35.67" y1="87.6" x2="35.39" y2="89.18"/><line class="cls-4" x1="35.67" y1="87.6" x2="35.39" y2="89.18"/><line class="cls-4" x1="391.93" y1="398.08" x2="390.43" y2="398.08"/><line class="cls-6" x1="387.45" y1="398.08" x2="269.57" y2="398.08"/><polyline class="cls-4" points="268.08 398.08 266.58 398.08 266.58 399.58"/><line class="cls-7" x1="266.58" y1="402.66" x2="266.58" y2="481.38"/><line class="cls-4" x1="266.58" y1="482.93" x2="266.58" y2="484.43"/><line class="cls-4" x1="391.93" y1="398.08" x2="391.93" y2="398.08"/><line class="cls-4" x1="266.63" y1="489.09" x2="266.63" y2="489.09"/><line class="cls-4" x1="363.81" y1="521.78" x2="364.06" y2="521.54"/><line class="cls-4" x1="351.24" y1="521.78" x2="364.06" y2="521.78"/><line class="cls-4" x1="364.06" y1="516.65" x2="351.24" y2="516.65"/><line class="cls-4" x1="369.18" y1="573.06" x2="369.18" y2="560.24"/><line class="cls-4" x1="364.06" y1="560.24" x2="364.06" y2="573.06"/><line class="cls-4" x1="53.03" y1="566.07" x2="53.09" y2="566.01"/><line class="cls-4" x1="53.03" y1="571.13" x2="62.65" y2="571.13"/><line class="cls-4" x1="62.65" y1="566.01" x2="53.03" y2="566.01"/><line class="cls-4" x1="0.38" y1="571.13" x2="0.63" y2="570.88"/><line class="cls-4" x1="0.63" y1="566.01" x2="0.63" y2="571.13"/><line class="cls-4" x1="26.21" y1="571.13" x2="26.27" y2="571.07"/><line class="cls-4" x1="13.45" y1="566.22" x2="13.66" y2="566.01"/><line class="cls-4" x1="26.27" y1="571.13" x2="13.45" y2="571.13"/><line class="cls-4" x1="13.45" y1="571.13" x2="13.45" y2="566.01"/><line class="cls-4" x1="13.45" y1="566.01" x2="26.27" y2="566.01"/><line class="cls-4" x1="377.19" y1="516.65" x2="386.81" y2="516.65"/><line class="cls-4" x1="386.81" y1="521.78" x2="377.19" y2="521.78"/><line class="cls-4" x1="7.56" y1="487.81" x2="13.45" y2="481.91"/><line class="cls-4" x1="0.63" y1="487.48" x2="13.45" y2="474.67"/><line class="cls-4" x1="0.63" y1="480.23" x2="13.45" y2="467.41"/><line class="cls-4" x1="0.63" y1="472.98" x2="13.45" y2="460.16"/><line class="cls-4" x1="0.63" y1="465.73" x2="13.45" y2="452.91"/><line class="cls-4" x1="0.63" y1="458.48" x2="13.45" y2="445.66"/><line class="cls-4" x1="0.63" y1="451.23" x2="13.45" y2="438.41"/><line class="cls-4" x1="0.63" y1="443.97" x2="13.45" y2="431.15"/><line class="cls-4" x1="0.63" y1="436.72" x2="13.45" y2="423.9"/><line class="cls-4" x1="0.63" y1="429.47" x2="6.39" y2="423.72"/><line class="cls-4" x1="11.32" y1="487.68" x2="13.45" y2="485.54"/><line class="cls-4" x1="3.93" y1="487.81" x2="5.88" y2="485.86"/><line class="cls-4" x1="6.79" y1="484.96" x2="6.79" y2="484.96"/><line class="cls-4" x1="7.69" y1="484.05" x2="10.41" y2="481.33"/><line class="cls-4" x1="11.32" y1="480.42" x2="11.32" y2="480.42"/><line class="cls-4" x1="12.23" y1="479.52" x2="13.45" y2="478.29"/><line class="cls-4" x1="0.63" y1="483.86" x2="2.26" y2="482.24"/><line class="cls-4" x1="3.16" y1="481.33" x2="3.16" y2="481.33"/><line class="cls-4" x1="4.07" y1="480.42" x2="6.79" y2="477.7"/><line class="cls-4" x1="7.69" y1="476.8" x2="7.69" y2="476.8"/><line class="cls-4" x1="8.6" y1="475.89" x2="11.32" y2="473.17"/><line class="cls-4" x1="12.23" y1="472.26" x2="12.23" y2="472.26"/><line class="cls-4" x1="13.13" y1="471.36" x2="13.45" y2="471.04"/><line class="cls-4" x1="0.63" y1="476.61" x2="3.16" y2="474.08"/><line class="cls-4" x1="4.07" y1="473.17" x2="4.07" y2="473.17"/><line class="cls-4" x1="4.97" y1="472.26" x2="7.69" y2="469.55"/><line class="cls-4" x1="8.6" y1="468.64" x2="8.6" y2="468.64"/><line class="cls-4" x1="9.51" y1="467.73" x2="12.23" y2="465.02"/><line class="cls-4" x1="13.13" y1="464.11" x2="13.13" y2="464.11"/><line class="cls-4" x1="1.35" y1="468.64" x2="4.07" y2="465.92"/><line class="cls-4" x1="4.97" y1="465.02" x2="4.97" y2="465.02"/><line class="cls-4" x1="5.88" y1="464.11" x2="8.6" y2="461.39"/><line class="cls-4" x1="9.51" y1="460.48" x2="9.51" y2="460.48"/><line class="cls-4" x1="10.41" y1="459.57" x2="13.13" y2="456.86"/><line class="cls-4" x1="1.35" y1="461.39" x2="1.35" y2="461.39"/><line class="cls-4" x1="2.26" y1="460.48" x2="4.97" y2="457.76"/><line class="cls-4" x1="5.88" y1="456.86" x2="5.88" y2="456.86"/><line class="cls-4" x1="6.79" y1="455.95" x2="9.51" y2="453.23"/><line class="cls-4" x1="10.41" y1="452.32" x2="10.41" y2="452.32"/><line class="cls-4" x1="11.32" y1="451.42" x2="13.45" y2="449.28"/><line class="cls-4" x1="0.63" y1="454.85" x2="1.35" y2="454.14"/><line class="cls-4" x1="2.26" y1="453.23" x2="2.26" y2="453.23"/><line class="cls-4" x1="3.16" y1="452.32" x2="5.88" y2="449.6"/><line class="cls-4" x1="6.79" y1="448.7" x2="6.79" y2="448.7"/><line class="cls-4" x1="7.69" y1="447.79" x2="10.41" y2="445.07"/><line class="cls-4" x1="11.32" y1="444.17" x2="11.32" y2="444.17"/><line class="cls-4" x1="12.23" y1="443.26" x2="13.45" y2="442.03"/><line class="cls-4" x1="0.63" y1="447.6" x2="2.26" y2="445.98"/><line class="cls-4" x1="3.16" y1="445.07" x2="3.16" y2="445.07"/><line class="cls-4" x1="4.07" y1="444.17" x2="6.79" y2="441.45"/><line class="cls-4" x1="7.69" y1="440.54" x2="7.69" y2="440.54"/><line class="cls-4" x1="8.6" y1="439.63" x2="11.32" y2="436.91"/><line class="cls-4" x1="12.23" y1="436.01" x2="12.23" y2="436.01"/><line class="cls-4" x1="13.13" y1="435.1" x2="13.45" y2="434.78"/><line class="cls-4" x1="0.63" y1="440.35" x2="3.16" y2="437.82"/><line class="cls-4" x1="4.07" y1="436.91" x2="4.07" y2="436.91"/><line class="cls-4" x1="4.97" y1="436.01" x2="7.69" y2="433.29"/><line class="cls-4" x1="8.6" y1="432.38" x2="8.6" y2="432.38"/><line class="cls-4" x1="9.51" y1="431.47" x2="12.23" y2="428.76"/><line class="cls-4" x1="13.13" y1="427.85" x2="13.13" y2="427.85"/><line class="cls-4" x1="1.35" y1="432.38" x2="4.07" y2="429.66"/><line class="cls-4" x1="4.97" y1="428.76" x2="4.97" y2="428.76"/><line class="cls-4" x1="5.88" y1="427.85" x2="8.6" y2="425.13"/><line class="cls-4" x1="9.51" y1="424.23" x2="9.51" y2="424.23"/><line class="cls-4" x1="1.35" y1="425.13" x2="1.35" y2="425.13"/><line class="cls-4" x1="2.26" y1="424.23" x2="2.76" y2="423.72"/><line class="cls-4" x1="0.63" y1="487.81" x2="13.45" y2="487.81"/><line class="cls-4" x1="13.45" y1="487.81" x2="13.45" y2="423.72"/><line class="cls-4" x1="13.45" y1="423.72" x2="0.63" y2="423.72"/><line class="cls-4" x1="0.63" y1="423.72" x2="0.63" y2="487.81"/><line class="cls-4" x1="203.35" y1="487.81" x2="205.74" y2="485.42"/><line class="cls-4" x1="196.1" y1="487.81" x2="205.74" y2="478.17"/><line class="cls-4" x1="192.92" y1="483.74" x2="205.74" y2="470.92"/><line class="cls-4" x1="192.92" y1="476.49" x2="205.74" y2="463.67"/><line class="cls-4" x1="192.92" y1="469.23" x2="205.74" y2="456.41"/><line class="cls-4" x1="192.92" y1="461.98" x2="205.74" y2="449.16"/><line class="cls-4" x1="192.92" y1="454.73" x2="205.74" y2="441.91"/><line class="cls-4" x1="192.92" y1="447.48" x2="205.74" y2="434.66"/><line class="cls-4" x1="192.92" y1="440.23" x2="205.74" y2="427.41"/><line class="cls-4" x1="192.92" y1="432.98" x2="202.18" y2="423.72"/><line class="cls-4" x1="192.92" y1="425.73" x2="194.93" y2="423.72"/><line class="cls-4" x1="199.86" y1="487.68" x2="199.86" y2="487.68"/><line class="cls-4" x1="200.77" y1="486.77" x2="203.49" y2="484.05"/><line class="cls-4" x1="204.39" y1="483.14" x2="204.39" y2="483.14"/><line class="cls-4" x1="205.3" y1="482.24" x2="205.74" y2="481.8"/><line class="cls-4" x1="192.92" y1="487.36" x2="195.33" y2="484.96"/><line class="cls-4" x1="196.23" y1="484.05" x2="196.23" y2="484.05"/><line class="cls-4" x1="197.14" y1="483.14" x2="199.86" y2="480.42"/><line class="cls-4" x1="200.77" y1="479.52" x2="200.77" y2="479.52"/><line class="cls-4" x1="201.67" y1="478.61" x2="204.39" y2="475.89"/><line class="cls-4" x1="205.3" y1="474.99" x2="205.3" y2="474.99"/><line class="cls-4" x1="193.51" y1="479.52" x2="196.23" y2="476.8"/><line class="cls-4" x1="197.14" y1="475.89" x2="197.14" y2="475.89"/><line class="cls-4" x1="198.05" y1="474.99" x2="200.77" y2="472.26"/><line class="cls-4" x1="201.67" y1="471.36" x2="201.67" y2="471.36"/><line class="cls-4" x1="202.58" y1="470.45" x2="205.3" y2="467.73"/><line class="cls-4" x1="193.51" y1="472.26" x2="193.51" y2="472.26"/><line class="cls-4" x1="194.42" y1="471.36" x2="197.14" y2="468.64"/><line class="cls-4" x1="198.05" y1="467.73" x2="198.05" y2="467.73"/><line class="cls-4" x1="198.95" y1="466.83" x2="201.67" y2="464.11"/><line class="cls-4" x1="202.58" y1="463.2" x2="202.58" y2="463.2"/><line class="cls-4" x1="203.49" y1="462.29" x2="205.74" y2="460.04"/><line class="cls-4" x1="192.92" y1="465.61" x2="193.51" y2="465.02"/><line class="cls-4" x1="194.42" y1="464.11" x2="194.42" y2="464.11"/><line class="cls-4" x1="195.33" y1="463.2" x2="198.05" y2="460.48"/><line class="cls-4" x1="198.95" y1="459.57" x2="198.95" y2="459.57"/><line class="cls-4" x1="199.86" y1="458.67" x2="202.58" y2="455.95"/><line class="cls-4" x1="203.49" y1="455.04" x2="203.49" y2="455.04"/><line class="cls-4" x1="204.39" y1="454.14" x2="205.74" y2="452.79"/><line class="cls-4" x1="192.92" y1="458.36" x2="194.42" y2="456.86"/><line class="cls-4" x1="195.33" y1="455.95" x2="195.33" y2="455.95"/><line class="cls-4" x1="196.23" y1="455.04" x2="198.95" y2="452.32"/><line class="cls-4" x1="199.86" y1="451.42" x2="199.86" y2="451.42"/><line class="cls-4" x1="200.77" y1="450.51" x2="203.49" y2="447.79"/><line class="cls-4" x1="204.39" y1="446.89" x2="204.39" y2="446.89"/><line class="cls-4" x1="205.3" y1="445.98" x2="205.74" y2="445.54"/><line class="cls-4" x1="192.92" y1="451.11" x2="195.33" y2="448.7"/><line class="cls-4" x1="196.23" y1="447.79" x2="196.23" y2="447.79"/><line class="cls-4" x1="197.14" y1="446.89" x2="199.86" y2="444.17"/><line class="cls-4" x1="200.77" y1="443.26" x2="200.77" y2="443.26"/><line class="cls-4" x1="201.67" y1="442.35" x2="204.39" y2="439.63"/><line class="cls-4" x1="205.3" y1="438.73" x2="205.3" y2="438.73"/><line class="cls-4" x1="193.51" y1="443.26" x2="196.23" y2="440.54"/><line class="cls-4" x1="197.14" y1="439.63" x2="197.14" y2="439.63"/><line class="cls-4" x1="198.05" y1="438.73" x2="200.77" y2="436.01"/><line class="cls-4" x1="201.67" y1="435.1" x2="201.67" y2="435.1"/><line class="cls-4" x1="202.58" y1="434.2" x2="205.3" y2="431.47"/><line class="cls-4" x1="193.51" y1="436.01" x2="193.51" y2="436.01"/><line class="cls-4" x1="194.42" y1="435.1" x2="197.14" y2="432.38"/><line class="cls-4" x1="198.05" y1="431.47" x2="198.05" y2="431.47"/><line class="cls-4" x1="198.95" y1="430.57" x2="201.67" y2="427.85"/><line class="cls-4" x1="202.58" y1="426.94" x2="202.58" y2="426.94"/><line class="cls-4" x1="203.49" y1="426.04" x2="205.74" y2="423.78"/><line class="cls-4" x1="192.92" y1="429.35" x2="193.51" y2="428.76"/><line class="cls-4" x1="194.42" y1="427.85" x2="194.42" y2="427.85"/><line class="cls-4" x1="195.33" y1="426.94" x2="198.05" y2="424.23"/><line class="cls-4" x1="192.92" y1="487.81" x2="205.74" y2="487.81"/><line class="cls-4" x1="205.74" y1="487.81" x2="205.74" y2="423.72"/><line class="cls-4" x1="205.74" y1="423.72" x2="192.92" y2="423.72"/><line class="cls-4" x1="192.92" y1="423.72" x2="192.92" y2="487.81"/><line class="cls-4" x1="204.92" y1="196.18" x2="205.74" y2="195.36"/><line class="cls-4" x1="197.67" y1="196.18" x2="205.74" y2="188.11"/><line class="cls-4" x1="192.92" y1="193.67" x2="205.74" y2="180.86"/><line class="cls-4" x1="192.92" y1="186.42" x2="205.74" y2="173.6"/><line class="cls-4" x1="192.92" y1="179.17" x2="205.74" y2="166.35"/><line class="cls-4" x1="192.92" y1="171.92" x2="205.74" y2="159.1"/><line class="cls-4" x1="192.92" y1="164.67" x2="205.74" y2="151.85"/><line class="cls-4" x1="192.92" y1="157.42" x2="205.74" y2="144.6"/><line class="cls-4" x1="192.92" y1="150.17" x2="205.74" y2="137.35"/><line class="cls-4" x1="192.92" y1="142.91" x2="203.75" y2="132.08"/><line class="cls-4" x1="192.92" y1="135.66" x2="196.5" y2="132.08"/><line class="cls-4" x1="201.29" y1="196.18" x2="203.49" y2="193.99"/><line class="cls-4" x1="204.39" y1="193.08" x2="204.39" y2="193.08"/><line class="cls-4" x1="205.3" y1="192.17" x2="205.74" y2="191.73"/><line class="cls-4" x1="194.04" y1="196.18" x2="195.33" y2="194.89"/><line class="cls-4" x1="196.23" y1="193.99" x2="196.23" y2="193.99"/><line class="cls-4" x1="197.14" y1="193.08" x2="199.86" y2="190.36"/><line class="cls-4" x1="200.77" y1="189.45" x2="200.77" y2="189.45"/><line class="cls-4" x1="201.67" y1="188.55" x2="204.39" y2="185.83"/><line class="cls-4" x1="205.3" y1="184.92" x2="205.3" y2="184.92"/><line class="cls-4" x1="193.51" y1="189.45" x2="196.23" y2="186.74"/><line class="cls-4" x1="197.14" y1="185.83" x2="197.14" y2="185.83"/><line class="cls-4" x1="198.05" y1="184.92" x2="200.77" y2="182.2"/><line class="cls-4" x1="201.67" y1="181.3" x2="201.67" y2="181.3"/><line class="cls-4" x1="202.58" y1="180.39" x2="205.3" y2="177.67"/><line class="cls-4" x1="193.51" y1="182.2" x2="193.51" y2="182.2"/><line class="cls-4" x1="194.42" y1="181.3" x2="197.14" y2="178.58"/><line class="cls-4" x1="198.05" y1="177.67" x2="198.05" y2="177.67"/><line class="cls-4" x1="198.95" y1="176.77" x2="201.67" y2="174.05"/><line class="cls-4" x1="202.58" y1="173.14" x2="202.58" y2="173.14"/><line class="cls-4" x1="203.49" y1="172.23" x2="205.74" y2="169.98"/><line class="cls-4" x1="192.92" y1="175.55" x2="193.51" y2="174.95"/><line class="cls-4" x1="194.42" y1="174.05" x2="194.42" y2="174.05"/><line class="cls-4" x1="195.33" y1="173.14" x2="198.05" y2="170.42"/><line class="cls-4" x1="198.95" y1="169.51" x2="198.95" y2="169.51"/><line class="cls-4" x1="199.86" y1="168.61" x2="202.58" y2="165.89"/><line class="cls-4" x1="203.49" y1="164.98" x2="203.49" y2="164.98"/><line class="cls-4" x1="204.39" y1="164.08" x2="205.74" y2="162.73"/><line class="cls-4" x1="192.92" y1="168.3" x2="194.42" y2="166.79"/><line class="cls-4" x1="195.33" y1="165.89" x2="195.33" y2="165.89"/><line class="cls-4" x1="196.23" y1="164.98" x2="198.95" y2="162.26"/><line class="cls-4" x1="199.86" y1="161.35" x2="199.86" y2="161.35"/><line class="cls-4" x1="200.77" y1="160.45" x2="203.49" y2="157.73"/><line class="cls-4" x1="204.39" y1="156.82" x2="204.39" y2="156.82"/><line class="cls-4" x1="205.3" y1="155.92" x2="205.74" y2="155.48"/><line class="cls-4" x1="192.92" y1="161.04" x2="195.33" y2="158.64"/><line class="cls-4" x1="196.23" y1="157.73" x2="196.23" y2="157.73"/><line class="cls-4" x1="197.14" y1="156.82" x2="199.86" y2="154.1"/><line class="cls-4" x1="200.77" y1="153.2" x2="200.77" y2="153.2"/><line class="cls-4" x1="201.67" y1="152.29" x2="204.39" y2="149.57"/><line class="cls-4" x1="205.3" y1="148.66" x2="205.3" y2="148.66"/><line class="cls-4" x1="193.51" y1="153.2" x2="196.23" y2="150.48"/><line class="cls-4" x1="197.14" y1="149.57" x2="197.14" y2="149.57"/><line class="cls-4" x1="198.05" y1="148.66" x2="200.77" y2="145.95"/><line class="cls-4" x1="201.67" y1="145.04" x2="201.67" y2="145.04"/><line class="cls-4" x1="202.58" y1="144.13" x2="205.3" y2="141.41"/><line class="cls-4" x1="193.51" y1="145.95" x2="193.51" y2="145.95"/><line class="cls-4" x1="194.42" y1="145.04" x2="197.14" y2="142.32"/><line class="cls-4" x1="198.05" y1="141.41" x2="198.05" y2="141.41"/><line class="cls-4" x1="198.95" y1="140.51" x2="201.67" y2="137.79"/><line class="cls-4" x1="202.58" y1="136.88" x2="202.58" y2="136.88"/><line class="cls-4" x1="203.49" y1="135.98" x2="205.74" y2="133.72"/><line class="cls-4" x1="192.92" y1="139.29" x2="193.51" y2="138.69"/><line class="cls-4" x1="194.42" y1="137.79" x2="194.42" y2="137.79"/><line class="cls-4" x1="195.33" y1="136.88" x2="198.05" y2="134.16"/><line class="cls-4" x1="198.95" y1="133.26" x2="198.95" y2="133.26"/><line class="cls-4" x1="199.86" y1="132.35" x2="200.12" y2="132.08"/><line class="cls-4" x1="192.92" y1="132.08" x2="192.92" y2="196.18"/><line class="cls-4" x1="192.92" y1="196.18" x2="205.74" y2="196.18"/><line class="cls-4" x1="205.74" y1="196.18" x2="205.74" y2="132.08"/><line class="cls-4" x1="9.13" y1="196.18" x2="13.45" y2="191.85"/><line class="cls-4" x1="1.88" y1="196.18" x2="13.45" y2="184.6"/><line class="cls-4" x1="0.63" y1="190.17" x2="13.45" y2="177.35"/><line class="cls-4" x1="0.63" y1="182.92" x2="13.45" y2="170.1"/><line class="cls-4" x1="0.63" y1="175.67" x2="13.45" y2="162.85"/><line class="cls-4" x1="0.63" y1="168.41" x2="13.45" y2="155.6"/><line class="cls-4" x1="0.63" y1="161.16" x2="13.45" y2="148.34"/><line class="cls-4" x1="0.63" y1="153.91" x2="13.45" y2="141.09"/><line class="cls-4" x1="0.63" y1="146.66" x2="13.45" y2="133.84"/><line class="cls-4" x1="0.63" y1="139.41" x2="7.96" y2="132.08"/><line class="cls-4" x1="0.71" y1="132.16" x2="0.71" y2="132.08"/><line class="cls-4" x1="12.76" y1="196.18" x2="13.45" y2="195.48"/><line class="cls-4" x1="5.5" y1="196.18" x2="5.88" y2="195.8"/><line class="cls-4" x1="6.79" y1="194.89" x2="6.79" y2="194.89"/><line class="cls-4" x1="7.69" y1="193.99" x2="10.41" y2="191.27"/><line class="cls-4" x1="11.32" y1="190.36" x2="11.32" y2="190.36"/><line class="cls-4" x1="12.23" y1="189.45" x2="13.45" y2="188.23"/><line class="cls-4" x1="0.63" y1="193.8" x2="2.26" y2="192.17"/><line class="cls-4" x1="3.16" y1="191.27" x2="3.16" y2="191.27"/><line class="cls-4" x1="4.07" y1="190.36" x2="6.79" y2="187.64"/><line class="cls-4" x1="7.69" y1="186.74" x2="7.69" y2="186.74"/><line class="cls-4" x1="8.6" y1="185.83" x2="11.32" y2="183.11"/><line class="cls-4" x1="12.23" y1="182.2" x2="12.23" y2="182.2"/><line class="cls-4" x1="13.13" y1="181.3" x2="13.45" y2="180.98"/><line class="cls-4" x1="0.63" y1="186.54" x2="3.16" y2="184.02"/><line class="cls-4" x1="4.07" y1="183.11" x2="4.07" y2="183.11"/><line class="cls-4" x1="4.97" y1="182.2" x2="7.69" y2="179.48"/><line class="cls-4" x1="8.6" y1="178.58" x2="8.6" y2="178.58"/><line class="cls-4" x1="9.51" y1="177.67" x2="12.23" y2="174.95"/><line class="cls-4" x1="13.13" y1="174.05" x2="13.13" y2="174.05"/><line class="cls-4" x1="1.35" y1="178.58" x2="4.07" y2="175.86"/><line class="cls-4" x1="4.97" y1="174.95" x2="4.97" y2="174.95"/><line class="cls-4" x1="5.88" y1="174.05" x2="8.6" y2="171.33"/><line class="cls-4" x1="9.51" y1="170.42" x2="9.51" y2="170.42"/><line class="cls-4" x1="10.41" y1="169.51" x2="13.13" y2="166.79"/><line class="cls-4" x1="1.35" y1="171.33" x2="1.35" y2="171.33"/><line class="cls-4" x1="2.26" y1="170.42" x2="4.97" y2="167.7"/><line class="cls-4" x1="5.88" y1="166.79" x2="5.88" y2="166.79"/><line class="cls-4" x1="6.79" y1="165.89" x2="9.51" y2="163.17"/><line class="cls-4" x1="10.41" y1="162.26" x2="10.41" y2="162.26"/><line class="cls-4" x1="11.32" y1="161.35" x2="13.45" y2="159.22"/><line class="cls-4" x1="0.63" y1="164.79" x2="1.35" y2="164.08"/><line class="cls-4" x1="2.26" y1="163.17" x2="2.26" y2="163.17"/><line class="cls-4" x1="3.16" y1="162.26" x2="5.88" y2="159.54"/><line class="cls-4" x1="6.79" y1="158.64" x2="6.79" y2="158.64"/><line class="cls-4" x1="7.69" y1="157.73" x2="10.41" y2="155.01"/><line class="cls-4" x1="11.32" y1="154.1" x2="11.32" y2="154.1"/><line class="cls-4" x1="12.23" y1="153.2" x2="13.45" y2="151.97"/><line class="cls-4" x1="0.63" y1="157.54" x2="2.26" y2="155.92"/><line class="cls-4" x1="3.16" y1="155.01" x2="3.16" y2="155.01"/><line class="cls-4" x1="4.07" y1="154.1" x2="6.79" y2="151.38"/><line class="cls-4" x1="7.69" y1="150.48" x2="7.69" y2="150.48"/><line class="cls-4" x1="8.6" y1="149.57" x2="11.32" y2="146.85"/><line class="cls-4" x1="12.23" y1="145.95" x2="12.23" y2="145.95"/><line class="cls-4" x1="13.13" y1="145.04" x2="13.45" y2="144.72"/><line class="cls-4" x1="0.63" y1="150.29" x2="3.16" y2="147.76"/><line class="cls-4" x1="4.07" y1="146.85" x2="4.07" y2="146.85"/><line class="cls-4" x1="4.97" y1="145.95" x2="7.69" y2="143.23"/><line class="cls-4" x1="8.6" y1="142.32" x2="8.6" y2="142.32"/><line class="cls-4" x1="9.51" y1="141.41" x2="12.23" y2="138.69"/><line class="cls-4" x1="13.13" y1="137.79" x2="13.13" y2="137.79"/><line class="cls-4" x1="1.35" y1="142.32" x2="4.07" y2="139.6"/><line class="cls-4" x1="4.97" y1="138.69" x2="4.97" y2="138.69"/><line class="cls-4" x1="5.88" y1="137.79" x2="8.6" y2="135.07"/><line class="cls-4" x1="9.51" y1="134.16" x2="9.51" y2="134.16"/><line class="cls-4" x1="10.41" y1="133.26" x2="11.59" y2="132.08"/><line class="cls-4" x1="1.35" y1="135.07" x2="1.35" y2="135.07"/><line class="cls-4" x1="2.26" y1="134.16" x2="4.33" y2="132.08"/><line class="cls-4" x1="0.71" y1="125.25" x2="0.63" y2="196.18"/><line class="cls-4" x1="0.63" y1="196.18" x2="13.45" y2="196.18"/><line class="cls-4" x1="13.45" y1="196.18" x2="13.45" y2="132.08"/><line class="cls-4" x1="406.39" y1="487.81" x2="407.64" y2="486.56"/><line class="cls-4" x1="399.14" y1="487.81" x2="407.64" y2="479.32"/><line class="cls-4" x1="394.82" y1="484.88" x2="407.64" y2="472.06"/><line class="cls-4" x1="394.82" y1="477.63" x2="407.64" y2="464.81"/><line class="cls-4" x1="394.82" y1="470.38" x2="407.64" y2="457.56"/><line class="cls-4" x1="394.82" y1="463.13" x2="407.64" y2="450.31"/><line class="cls-4" x1="394.82" y1="455.88" x2="407.64" y2="443.06"/><line class="cls-4" x1="394.82" y1="448.62" x2="407.64" y2="435.8"/><line class="cls-4" x1="394.82" y1="441.37" x2="407.64" y2="428.55"/><line class="cls-4" x1="394.82" y1="434.12" x2="405.22" y2="423.72"/><line class="cls-4" x1="394.82" y1="426.87" x2="397.97" y2="423.72"/><line class="cls-4" x1="402.77" y1="487.81" x2="404.72" y2="485.86"/><line class="cls-4" x1="405.62" y1="484.96" x2="405.62" y2="484.96"/><line class="cls-4" x1="406.53" y1="484.05" x2="407.64" y2="482.94"/><line class="cls-4" x1="395.52" y1="487.81" x2="396.56" y2="486.77"/><line class="cls-4" x1="397.46" y1="485.86" x2="397.46" y2="485.86"/><line class="cls-4" x1="398.37" y1="484.96" x2="401.09" y2="482.24"/><line class="cls-4" x1="402" y1="481.33" x2="402" y2="481.33"/><line class="cls-4" x1="402.9" y1="480.42" x2="405.62" y2="477.7"/><line class="cls-4" x1="406.53" y1="476.8" x2="406.53" y2="476.8"/><line class="cls-4" x1="407.43" y1="475.89" x2="407.64" y2="475.69"/><line class="cls-4" x1="394.82" y1="481.25" x2="397.46" y2="478.61"/><line class="cls-4" x1="398.37" y1="477.7" x2="398.37" y2="477.7"/><line class="cls-4" x1="399.28" y1="476.8" x2="402" y2="474.08"/><line class="cls-4" x1="402.9" y1="473.17" x2="402.9" y2="473.17"/><line class="cls-4" x1="403.81" y1="472.26" x2="406.53" y2="469.55"/><line class="cls-4" x1="407.43" y1="468.64" x2="407.43" y2="468.64"/><line class="cls-4" x1="395.65" y1="473.17" x2="398.37" y2="470.45"/><line class="cls-4" x1="399.28" y1="469.55" x2="399.28" y2="469.55"/><line class="cls-4" x1="400.18" y1="468.64" x2="402.9" y2="465.92"/><line class="cls-4" x1="403.81" y1="465.02" x2="403.81" y2="465.02"/><line class="cls-4" x1="404.72" y1="464.11" x2="407.43" y2="461.39"/><line class="cls-4" x1="395.65" y1="465.92" x2="395.65" y2="465.92"/><line class="cls-4" x1="396.56" y1="465.02" x2="399.28" y2="462.29"/><line class="cls-4" x1="400.18" y1="461.39" x2="400.18" y2="461.39"/><line class="cls-4" x1="401.09" y1="460.48" x2="403.81" y2="457.76"/><line class="cls-4" x1="404.72" y1="456.86" x2="404.72" y2="456.86"/><line class="cls-4" x1="405.62" y1="455.95" x2="407.64" y2="453.93"/><line class="cls-4" x1="394.82" y1="459.5" x2="395.65" y2="458.67"/><line class="cls-4" x1="396.56" y1="457.76" x2="396.56" y2="457.76"/><line class="cls-4" x1="397.46" y1="456.86" x2="400.18" y2="454.14"/><line class="cls-4" x1="401.09" y1="453.23" x2="401.09" y2="453.23"/><line class="cls-4" x1="402" y1="452.32" x2="404.72" y2="449.6"/><line class="cls-4" x1="405.62" y1="448.7" x2="405.62" y2="448.7"/><line class="cls-4" x1="406.53" y1="447.79" x2="407.64" y2="446.68"/><line class="cls-4" x1="394.82" y1="452.25" x2="396.56" y2="450.51"/><line class="cls-4" x1="397.46" y1="449.6" x2="397.46" y2="449.6"/><line class="cls-4" x1="398.37" y1="448.7" x2="401.09" y2="445.98"/><line class="cls-4" x1="402" y1="445.07" x2="402" y2="445.07"/><line class="cls-4" x1="402.9" y1="444.17" x2="405.62" y2="441.45"/><line class="cls-4" x1="406.53" y1="440.54" x2="406.53" y2="440.54"/><line class="cls-4" x1="407.43" y1="439.63" x2="407.64" y2="439.43"/><line class="cls-4" x1="394.82" y1="445" x2="397.46" y2="442.35"/><line class="cls-4" x1="398.37" y1="441.45" x2="398.37" y2="441.45"/><line class="cls-4" x1="399.28" y1="440.54" x2="402" y2="437.82"/><line class="cls-4" x1="402.9" y1="436.91" x2="402.9" y2="436.91"/><line class="cls-4" x1="403.81" y1="436.01" x2="406.53" y2="433.29"/><line class="cls-4" x1="407.43" y1="432.38" x2="407.43" y2="432.38"/><line class="cls-4" x1="395.65" y1="436.91" x2="398.37" y2="434.2"/><line class="cls-4" x1="399.28" y1="433.29" x2="399.28" y2="433.29"/><line class="cls-4" x1="400.18" y1="432.38" x2="402.9" y2="429.66"/><line class="cls-4" x1="403.81" y1="428.76" x2="403.81" y2="428.76"/><line class="cls-4" x1="404.72" y1="427.85" x2="407.43" y2="425.13"/><line class="cls-4" x1="395.65" y1="429.66" x2="395.65" y2="429.66"/><line class="cls-4" x1="396.56" y1="428.76" x2="399.28" y2="426.04"/><line class="cls-4" x1="400.18" y1="425.13" x2="400.18" y2="425.13"/><line class="cls-4" x1="401.09" y1="424.23" x2="401.6" y2="423.72"/><line class="cls-4" x1="394.82" y1="487.81" x2="407.64" y2="487.81"/><line class="cls-4" x1="407.64" y1="487.81" x2="407.64" y2="423.72"/><line class="cls-4" x1="407.64" y1="423.72" x2="394.82" y2="423.72"/><line class="cls-4" x1="394.82" y1="423.72" x2="394.82" y2="487.81"/><line class="cls-4" x1="183.09" y1="609.59" x2="183.31" y2="609.38"/><line class="cls-4" x1="175.84" y1="609.59" x2="183.31" y2="602.13"/><line class="cls-4" x1="168.59" y1="609.59" x2="181.41" y2="596.77"/><line class="cls-4" x1="161.33" y1="609.59" x2="174.15" y2="596.77"/><line class="cls-4" x1="154.09" y1="609.59" x2="166.9" y2="596.77"/><line class="cls-4" x1="146.83" y1="609.59" x2="159.65" y2="596.77"/><line class="cls-4" x1="139.58" y1="609.59" x2="152.4" y2="596.77"/><line class="cls-4" x1="132.33" y1="609.59" x2="145.15" y2="596.77"/><line class="cls-4" x1="125.08" y1="609.59" x2="137.9" y2="596.77"/><line class="cls-4" x1="119.21" y1="608.21" x2="130.65" y2="596.77"/><line class="cls-4" x1="119.21" y1="600.96" x2="123.39" y2="596.77"/><line class="cls-4" x1="179.46" y1="609.59" x2="181.73" y2="607.33"/><line class="cls-4" x1="182.64" y1="606.42" x2="182.64" y2="606.42"/><line class="cls-4" x1="172.21" y1="609.59" x2="173.57" y2="608.23"/><line class="cls-4" x1="174.48" y1="607.33" x2="174.48" y2="607.33"/><line class="cls-4" x1="175.39" y1="606.42" x2="178.1" y2="603.7"/><line class="cls-4" x1="179.01" y1="602.79" x2="179.01" y2="602.79"/><line class="cls-4" x1="179.92" y1="601.89" x2="182.64" y2="599.17"/><line class="cls-4" x1="164.96" y1="609.59" x2="165.41" y2="609.14"/><line class="cls-4" x1="166.32" y1="608.23" x2="166.32" y2="608.23"/><line class="cls-4" x1="167.23" y1="607.33" x2="169.95" y2="604.61"/><line class="cls-4" x1="170.85" y1="603.7" x2="170.85" y2="603.7"/><line class="cls-4" x1="171.76" y1="602.79" x2="174.48" y2="600.07"/><line class="cls-4" x1="175.39" y1="599.17" x2="175.39" y2="599.17"/><line class="cls-4" x1="176.29" y1="598.26" x2="177.78" y2="596.77"/><line class="cls-4" x1="158.16" y1="609.14" x2="158.16" y2="609.14"/><line class="cls-4" x1="159.07" y1="608.23" x2="161.79" y2="605.51"/><line class="cls-4" x1="162.7" y1="604.61" x2="162.7" y2="604.61"/><line class="cls-4" x1="163.6" y1="603.7" x2="166.32" y2="600.98"/><line class="cls-4" x1="167.23" y1="600.07" x2="167.23" y2="600.07"/><line class="cls-4" x1="168.13" y1="599.17" x2="170.53" y2="596.77"/><line class="cls-4" x1="150.91" y1="609.14" x2="153.63" y2="606.42"/><line class="cls-4" x1="154.54" y1="605.51" x2="154.54" y2="605.51"/><line class="cls-4" x1="155.44" y1="604.61" x2="158.16" y2="601.89"/><line class="cls-4" x1="159.07" y1="600.98" x2="159.07" y2="600.98"/><line class="cls-4" x1="159.98" y1="600.07" x2="162.7" y2="597.36"/><line class="cls-4" x1="143.21" y1="609.59" x2="145.47" y2="607.33"/><line class="cls-4" x1="146.38" y1="606.42" x2="146.38" y2="606.42"/><line class="cls-4" x1="147.28" y1="605.51" x2="150.01" y2="602.79"/><line class="cls-4" x1="150.91" y1="601.89" x2="150.91" y2="601.89"/><line class="cls-4" x1="151.82" y1="600.98" x2="154.54" y2="598.26"/><line class="cls-4" x1="155.44" y1="597.36" x2="155.44" y2="597.36"/><line class="cls-4" x1="135.96" y1="609.59" x2="137.31" y2="608.23"/><line class="cls-4" x1="138.22" y1="607.33" x2="138.22" y2="607.33"/><line class="cls-4" x1="139.13" y1="606.42" x2="141.85" y2="603.7"/><line class="cls-4" x1="142.75" y1="602.79" x2="142.75" y2="602.79"/><line class="cls-4" x1="143.66" y1="601.89" x2="146.38" y2="599.17"/><line class="cls-4" x1="147.28" y1="598.26" x2="147.28" y2="598.26"/><line class="cls-4" x1="148.19" y1="597.36" x2="148.77" y2="596.77"/><line class="cls-4" x1="128.7" y1="609.59" x2="129.16" y2="609.14"/><line class="cls-4" x1="130.06" y1="608.23" x2="130.06" y2="608.23"/><line class="cls-4" x1="130.97" y1="607.33" x2="133.69" y2="604.61"/><line class="cls-4" x1="134.6" y1="603.7" x2="134.6" y2="603.7"/><line class="cls-4" x1="135.5" y1="602.79" x2="138.22" y2="600.07"/><line class="cls-4" x1="139.13" y1="599.17" x2="139.13" y2="599.17"/><line class="cls-4" x1="140.04" y1="598.26" x2="141.52" y2="596.77"/><line class="cls-4" x1="121.91" y1="609.14" x2="121.91" y2="609.14"/><line class="cls-4" x1="122.81" y1="608.23" x2="125.53" y2="605.51"/><line class="cls-4" x1="126.44" y1="604.61" x2="126.44" y2="604.61"/><line class="cls-4" x1="127.34" y1="603.7" x2="130.06" y2="600.98"/><line class="cls-4" x1="130.97" y1="600.07" x2="130.97" y2="600.07"/><line class="cls-4" x1="131.88" y1="599.17" x2="134.27" y2="596.77"/><line class="cls-4" x1="119.21" y1="604.58" x2="121.91" y2="601.89"/><line class="cls-4" x1="122.81" y1="600.98" x2="122.81" y2="600.98"/><line class="cls-4" x1="123.72" y1="600.07" x2="126.44" y2="597.36"/><line class="cls-4" x1="183.31" y1="609.59" x2="183.31" y2="596.77"/><line class="cls-4" x1="183.31" y1="596.77" x2="119.21" y2="596.77"/><line class="cls-4" x1="119.21" y1="596.77" x2="119.21" y2="609.59"/><line class="cls-4" x1="119.21" y1="609.59" x2="183.31" y2="609.59"/><line class="cls-4" x1="400.71" y1="196.18" x2="407.64" y2="189.25"/><line class="cls-4" x1="394.82" y1="194.82" x2="407.64" y2="182"/><line class="cls-4" x1="394.82" y1="187.57" x2="407.64" y2="174.75"/><line class="cls-4" x1="394.82" y1="180.32" x2="407.64" y2="167.5"/><line class="cls-4" x1="394.82" y1="173.06" x2="407.64" y2="160.25"/><line class="cls-4" x1="394.82" y1="165.81" x2="407.64" y2="152.99"/><line class="cls-4" x1="394.82" y1="158.56" x2="407.64" y2="145.74"/><line class="cls-4" x1="394.82" y1="151.31" x2="407.64" y2="138.49"/><line class="cls-4" x1="394.82" y1="144.06" x2="406.79" y2="132.08"/><line class="cls-4" x1="394.82" y1="136.81" x2="399.54" y2="132.08"/><line class="cls-4" x1="404.34" y1="196.18" x2="404.72" y2="195.8"/><line class="cls-4" x1="405.62" y1="194.89" x2="405.62" y2="194.89"/><line class="cls-4" x1="406.53" y1="193.99" x2="407.64" y2="192.88"/><line class="cls-4" x1="397.46" y1="195.8" x2="397.46" y2="195.8"/><line class="cls-4" x1="398.37" y1="194.89" x2="401.09" y2="192.17"/><line class="cls-4" x1="402" y1="191.27" x2="402" y2="191.27"/><line class="cls-4" x1="402.9" y1="190.36" x2="405.62" y2="187.64"/><line class="cls-4" x1="406.53" y1="186.74" x2="406.53" y2="186.74"/><line class="cls-4" x1="407.43" y1="185.83" x2="407.64" y2="185.62"/><line class="cls-4" x1="394.82" y1="191.19" x2="397.46" y2="188.55"/><line class="cls-4" x1="398.37" y1="187.64" x2="398.37" y2="187.64"/><line class="cls-4" x1="399.28" y1="186.74" x2="402" y2="184.02"/><line class="cls-4" x1="402.9" y1="183.11" x2="402.9" y2="183.11"/><line class="cls-4" x1="403.81" y1="182.2" x2="406.53" y2="179.48"/><line class="cls-4" x1="407.43" y1="178.58" x2="407.43" y2="178.58"/><line class="cls-4" x1="395.65" y1="183.11" x2="398.37" y2="180.39"/><line class="cls-4" x1="399.28" y1="179.48" x2="399.28" y2="179.48"/><line class="cls-4" x1="400.18" y1="178.58" x2="402.9" y2="175.86"/><line class="cls-4" x1="403.81" y1="174.95" x2="403.81" y2="174.95"/><line class="cls-4" x1="404.72" y1="174.05" x2="407.43" y2="171.33"/><line class="cls-4" x1="395.65" y1="175.86" x2="395.65" y2="175.86"/><line class="cls-4" x1="396.56" y1="174.95" x2="399.28" y2="172.23"/><line class="cls-4" x1="400.18" y1="171.33" x2="400.18" y2="171.33"/><line class="cls-4" x1="401.09" y1="170.42" x2="403.81" y2="167.7"/><line class="cls-4" x1="404.72" y1="166.79" x2="404.72" y2="166.79"/><line class="cls-4" x1="405.62" y1="165.89" x2="407.64" y2="163.87"/><line class="cls-4" x1="394.82" y1="169.44" x2="395.65" y2="168.61"/><line class="cls-4" x1="396.56" y1="167.7" x2="396.56" y2="167.7"/><line class="cls-4" x1="397.46" y1="166.79" x2="400.18" y2="164.08"/><line class="cls-4" x1="401.09" y1="163.17" x2="401.09" y2="163.17"/><line class="cls-4" x1="402" y1="162.26" x2="404.72" y2="159.54"/><line class="cls-4" x1="405.62" y1="158.64" x2="405.62" y2="158.64"/><line class="cls-4" x1="406.53" y1="157.73" x2="407.64" y2="156.62"/><line class="cls-4" x1="394.82" y1="162.19" x2="396.56" y2="160.45"/><line class="cls-4" x1="397.46" y1="159.54" x2="397.46" y2="159.54"/><line class="cls-4" x1="398.37" y1="158.64" x2="401.09" y2="155.92"/><line class="cls-4" x1="402" y1="155.01" x2="402" y2="155.01"/><line class="cls-4" x1="402.9" y1="154.1" x2="405.62" y2="151.38"/><line class="cls-4" x1="406.53" y1="150.48" x2="406.53" y2="150.48"/><line class="cls-4" x1="407.43" y1="149.57" x2="407.64" y2="149.37"/><line class="cls-4" x1="394.82" y1="154.94" x2="397.46" y2="152.29"/><line class="cls-4" x1="398.37" y1="151.38" x2="398.37" y2="151.38"/><line class="cls-4" x1="399.28" y1="150.48" x2="402" y2="147.76"/><line class="cls-4" x1="402.9" y1="146.85" x2="402.9" y2="146.85"/><line class="cls-4" x1="403.81" y1="145.95" x2="406.53" y2="143.23"/><line class="cls-4" x1="407.43" y1="142.32" x2="407.43" y2="142.32"/><line class="cls-4" x1="395.65" y1="146.85" x2="398.37" y2="144.13"/><line class="cls-4" x1="399.28" y1="143.23" x2="399.28" y2="143.23"/><line class="cls-4" x1="400.18" y1="142.32" x2="402.9" y2="139.6"/><line class="cls-4" x1="403.81" y1="138.69" x2="403.81" y2="138.69"/><line class="cls-4" x1="404.72" y1="137.79" x2="407.43" y2="135.07"/><line class="cls-4" x1="395.65" y1="139.6" x2="395.65" y2="139.6"/><line class="cls-4" x1="396.56" y1="138.69" x2="399.28" y2="135.98"/><line class="cls-4" x1="400.18" y1="135.07" x2="400.18" y2="135.07"/><line class="cls-4" x1="401.09" y1="134.16" x2="403.17" y2="132.08"/><line class="cls-4" x1="394.82" y1="133.18" x2="395.65" y2="132.35"/><line class="cls-4" x1="394.82" y1="132.08" x2="394.82" y2="196.18"/><line class="cls-4" x1="394.82" y1="196.18" x2="407.64" y2="196.18"/><line class="cls-4" x1="407.64" y1="196.18" x2="407.64" y2="125.03"/><line class="cls-4" x1="393.39" y1="609.59" x2="406.2" y2="596.77"/><line class="cls-4" x1="386.13" y1="609.59" x2="398.95" y2="596.77"/><line class="cls-4" x1="378.88" y1="609.59" x2="391.7" y2="596.77"/><line class="cls-4" x1="371.63" y1="609.59" x2="384.45" y2="596.77"/><line class="cls-4" x1="369.18" y1="604.79" x2="377.2" y2="596.77"/><line class="cls-4" x1="369.18" y1="597.54" x2="369.95" y2="596.77"/><line class="cls-4" x1="397.01" y1="609.59" x2="399.28" y2="607.33"/><line class="cls-4" x1="400.18" y1="606.42" x2="400.18" y2="606.42"/><line class="cls-4" x1="401.09" y1="605.51" x2="403.81" y2="602.79"/><line class="cls-4" x1="404.72" y1="601.89" x2="404.72" y2="601.89"/><line class="cls-4" x1="407.64" y1="597.36" x2="407.64" y2="597.36"/><line class="cls-4" x1="389.76" y1="609.59" x2="391.12" y2="608.23"/><line class="cls-4" x1="392.03" y1="607.33" x2="392.03" y2="607.33"/><line class="cls-4" x1="392.93" y1="606.42" x2="395.65" y2="603.7"/><line class="cls-4" x1="396.56" y1="602.79" x2="396.56" y2="602.79"/><line class="cls-4" x1="397.46" y1="601.89" x2="400.18" y2="599.17"/><line class="cls-4" x1="401.09" y1="598.26" x2="401.09" y2="598.26"/><line class="cls-4" x1="402" y1="597.36" x2="402.58" y2="596.77"/><line class="cls-4" x1="382.51" y1="609.59" x2="382.96" y2="609.14"/><line class="cls-4" x1="383.87" y1="608.23" x2="383.87" y2="608.23"/><line class="cls-4" x1="384.77" y1="607.33" x2="387.49" y2="604.61"/><line class="cls-4" x1="388.4" y1="603.7" x2="388.4" y2="603.7"/><line class="cls-4" x1="389.31" y1="602.79" x2="392.03" y2="600.07"/><line class="cls-4" x1="392.93" y1="599.17" x2="392.93" y2="599.17"/><line class="cls-4" x1="393.84" y1="598.26" x2="395.33" y2="596.77"/><line class="cls-4" x1="375.71" y1="609.14" x2="375.71" y2="609.14"/><line class="cls-4" x1="376.62" y1="608.23" x2="379.34" y2="605.51"/><line class="cls-4" x1="380.24" y1="604.61" x2="380.24" y2="604.61"/><line class="cls-4" x1="381.15" y1="603.7" x2="383.87" y2="600.98"/><line class="cls-4" x1="384.77" y1="600.07" x2="384.77" y2="600.07"/><line class="cls-4" x1="385.68" y1="599.17" x2="388.07" y2="596.77"/><line class="cls-4" x1="369.18" y1="608.42" x2="371.18" y2="606.42"/><line class="cls-4" x1="372.08" y1="605.51" x2="372.08" y2="605.51"/><line class="cls-4" x1="372.99" y1="604.61" x2="375.71" y2="601.89"/><line class="cls-4" x1="376.62" y1="600.98" x2="376.62" y2="600.98"/><line class="cls-4" x1="377.52" y1="600.07" x2="380.24" y2="597.36"/><line class="cls-4" x1="369.37" y1="600.98" x2="372.08" y2="598.26"/><line class="cls-4" x1="372.99" y1="597.36" x2="372.99" y2="597.36"/><line class="cls-4" x1="407.64" y1="596.77" x2="369.18" y2="596.77"/><line class="cls-4" x1="369.18" y1="596.77" x2="369.18" y2="609.59"/><line class="cls-4" x1="369.18" y1="609.59" x2="407.64" y2="609.59"/><path class="cls-4" d="M124.34,512.17a52.05,52.05,0,0,1,52.06,52.05" transform="translate(0 -28.34)"/><line class="cls-4" x1="124.34" y1="535.89" x2="176.4" y2="535.89"/><path class="cls-4" d="M130.76,458.47a59.56,59.56,0,0,1,59.56-59.56" transform="translate(0 -28.34)"/><line class="cls-4" x1="190.32" y1="430.13" x2="190.32" y2="370.57"/><path class="cls-4" d="M266.28,511a59.56,59.56,0,0,0-59.56-59.56" transform="translate(0 -28.34)"/><line class="cls-4" x1="206.72" y1="482.68" x2="206.72" y2="423.13"/><path class="cls-4" d="M271.75,555.22a51,51,0,0,1,51,51" transform="translate(0 -28.34)"/><line class="cls-4" x1="271.75" y1="577.9" x2="322.78" y2="577.9"/></svg>