<svg id="_623" data-name="623" xmlns="http://www.w3.org/2000/svg" viewBox="0 0 434.62 578.7"><defs><style>.cls-1,.cls-5,.cls-6,.cls-7{fill:none;stroke-linecap:round;stroke-linejoin:round;stroke-width:0.5px;}.cls-1{stroke:#999;}.cls-2{isolation:isolate;font-size:12px;fill:#999;}.cls-2,.cls-3,.cls-4{font-family:PTSans-Regular, PT Sans;}.cls-3{font-size:20px;}.cls-4{font-size:24px;}.cls-5,.cls-6,.cls-7{stroke:#000;}.cls-6{stroke-dasharray:3.04 3.04;}.cls-7{stroke-dasharray:2.97 2.97;}</style></defs><title>7floor_623flat</title><line class="cls-1" x1="201.47" y1="10.8" x2="201.47" y2="2"/><polyline class="cls-1" points="205.07 5.3 201.57 1.8 198.07 5.3"/><text class="cls-2" transform="translate(210.9 10.2)">двор</text><text class="cls-3" transform="translate(205.04 509.35)">4.35</text><text class="cls-3" transform="translate(74.72 528.67)">1.28</text><text class="cls-3" transform="translate(329.48 491.37)">3.59</text><text class="cls-3" transform="translate(59.04 407.95)">4.24</text><text class="cls-3" transform="translate(94.71 133.02)">13.58</text><text class="cls-3" transform="translate(298.9 199.98)">9.88</text><text class="cls-3" transform="translate(310.27 121.84)">0.97</text><text class="cls-4" transform="translate(102.28 223.31)">1Е</text><text class="cls-4" transform="translate(86.52 256.35)">37.89</text><text class="cls-4" transform="translate(83.35 190.77)">№623</text><polyline class="cls-5" points="74.72 264.72 74.72 167.52 155.78 167.52 155.78 264.72"/><line class="cls-5" x1="74.72" y1="199.98" x2="155.78" y2="199.98"/><line class="cls-5" x1="74.72" y1="264.72" x2="155.78" y2="264.72"/><line class="cls-5" x1="74.72" y1="232.45" x2="155.78" y2="232.45"/><polyline class="cls-5" points="228.36 163.78 228.36 386.79 229.53 386.79 236.19 386.79 236.19 399.73 416.88 399.73 416.88 173.58 416.88 163.78 236.19 163.78 228.36 163.78"/><polyline class="cls-5" points="146.83 447.54 222.87 447.54 222.87 386.79 223.26 386.79 223.26 151.24 223.26 102.25 13.18 102.25 13.18 151.63 13.18 353.48"/><polyline class="cls-5" points="236.19 452.64 152.32 452.64 152.32 552.19 216.99 552.19 216.99 565.12 302.43 565.12 302.43 405.21 236.19 405.21 236.19 452.64"/><polyline class="cls-5" points="146.83 492.61 44.93 492.61 44.93 552.19 146.83 552.19 146.83 492.61"/><polyline class="cls-5" points="307.92 405.21 307.92 540.04 416.88 540.04 416.88 452.64 416.88 405.21 307.92 405.21"/><polyline class="cls-5" points="13.18 353.48 13.18 386.79 13.18 452.64 13.18 487.13 146.83 487.13 146.83 447.54"/><polyline class="cls-5" points="246.78 139.87 412.96 139.87 412.96 88.92 246.78 88.92 246.78 139.87"/><polyline class="cls-5" points="343.98 578.45 278.13 578.45 39.84 578.45 0.25 578.45"/><polyline points="0.25 79.12 39.05 79.12 0.25 79.12"/><polyline class="cls-5" points="0.25 79.12 39.05 79.12 0.25 79.12"/><polyline points="0.25 79.12 39.05 85.79 0.25 85.79"/><polyline points="0.25 79.12 39.05 85.79 39.05 79.12 0.25 79.12"/><polyline class="cls-5" points="0.25 79.12 39.05 85.79 0.25 85.79"/><polyline class="cls-5" points="0.25 79.12 39.05 85.79 39.05 79.12 0.25 79.12"/><polyline points="0.25 85.79 39.05 85.79 36.7 85.79 0.25 85.79"/><polyline points="0.25 85.79 39.05 85.79 0.25 85.79"/><polyline class="cls-5" points="0.25 85.79 39.05 85.79 36.7 85.79 0.25 85.79"/><polyline class="cls-5" points="0.25 85.79 39.05 85.79 0.25 85.79"/><path d="M194.65,107.47l41.54,6.66H194.65Zm41.54,0H194.65l41.54,6.66Z" transform="translate(0 -28.34)"/><path class="cls-5" d="M194.65,107.47l41.54,6.66H194.65Zm41.54,0H194.65l41.54,6.66Z" transform="translate(0 -28.34)"/><path d="M197.39,114.13h0Zm0,0Z" transform="translate(0 -28.34)"/><path class="cls-5" d="M197.39,114.13h0Zm0,0Z" transform="translate(0 -28.34)"/><path d="M236.19,107.47h0Z" transform="translate(0 -28.34)"/><path class="cls-5" d="M236.19,107.47h0Z" transform="translate(0 -28.34)"/><path d="M236.19,107.47l10.19.39H236.19Zm10.19,0H236.19l10.19.39Z" transform="translate(0 -28.34)"/><path class="cls-5" d="M236.19,107.47l10.19.39H236.19Zm10.19,0H236.19l10.19.39Z" transform="translate(0 -28.34)"/><path d="M240.11,114.13h-3.92v-6.27Zm0,0Z" transform="translate(0 -28.34)"/><path class="cls-5" d="M240.11,114.13h-3.92v-6.27Zm0,0Z" transform="translate(0 -28.34)"/><polygon points="236.19 79.52 246.38 79.52 240.11 85.79 236.19 79.52"/><polygon class="cls-5" points="236.19 79.52 246.38 79.52 240.11 85.79 236.19 79.52"/><path d="M246.38,107.47v0Zm.4,0h-.4v.39Z" transform="translate(0 -28.34)"/><path class="cls-5" d="M246.38,107.47v0Zm.4,0h-.4v.39Z" transform="translate(0 -28.34)"/><polyline points="0.25 85.79 36.7 85.79 0.25 85.79"/><polyline class="cls-5" points="0.25 85.79 36.7 85.79 0.25 85.79"/><polyline points="0.25 85.79 36.7 88.92 0.25 88.92"/><polyline points="0.25 85.79 36.7 88.92 36.7 85.79 0.25 85.79"/><polyline class="cls-5" points="0.25 85.79 36.7 88.92 0.25 88.92"/><polyline class="cls-5" points="0.25 85.79 36.7 88.92 36.7 85.79 0.25 85.79"/><polyline points="0.25 88.92 36.7 102.25 0.25 102.25"/><polyline points="0.25 88.92 36.7 102.25 36.7 88.92 0.25 88.92"/><polyline class="cls-5" points="0.25 88.92 36.7 102.25 0.25 102.25"/><polyline class="cls-5" points="0.25 88.92 36.7 102.25 36.7 88.92 0.25 88.92"/><path d="M197.39,114.13l25.87,3.13H197.39Zm25.87,0H197.39l25.87,3.13Z" transform="translate(0 -28.34)"/><path class="cls-5" d="M197.39,114.13l25.87,3.13H197.39Zm25.87,0H197.39l25.87,3.13Z" transform="translate(0 -28.34)"/><path d="M197.39,117.26l25.87,13.33H197.39Zm25.87,0H197.39l25.87,13.33Z" transform="translate(0 -28.34)"/><path class="cls-5" d="M197.39,117.26l25.87,13.33H197.39Zm25.87,0H197.39l25.87,13.33Z" transform="translate(0 -28.34)"/><path d="M223.26,114.13h0Z" transform="translate(0 -28.34)"/><path class="cls-5" d="M223.26,114.13h0Z" transform="translate(0 -28.34)"/><path d="M223.26,117.66h12.93l-12.93,12.93Zm0-3.53v3.53h12.93Z" transform="translate(0 -28.34)"/><path class="cls-5" d="M223.26,117.66h12.93l-12.93,12.93Zm0-3.53v3.53h12.93Z" transform="translate(0 -28.34)"/><polygon points="223.26 85.79 236.19 85.79 236.19 89.31 223.26 85.79"/><polygon class="cls-5" points="223.26 85.79 236.19 85.79 236.19 89.31 223.26 85.79"/><path d="M240.11,114.13h-3.92v3.53Zm0,0Z" transform="translate(0 -28.34)"/><path class="cls-5" d="M240.11,114.13h-3.92v3.53Zm0,0Z" transform="translate(0 -28.34)"/><line class="cls-5" x1="246.38" y1="79.52" x2="246.38" y2="79.12"/><line class="cls-5" x1="223.26" y1="85.79" x2="197.39" y2="85.79"/><line class="cls-5" x1="36.7" y1="85.79" x2="0.25" y2="85.79"/><polyline class="cls-5" points="223.26 102.25 223.26 85.79 236.19 85.79 236.19 89.31"/><line class="cls-5" x1="36.7" y1="88.92" x2="36.7" y2="102.25"/><polyline class="cls-5" points="39.05 79.12 39.05 85.79 36.7 85.79 36.7 88.92"/><line class="cls-5" x1="197.39" y1="88.92" x2="197.39" y2="102.25"/><polyline class="cls-5" points="194.65 79.12 194.65 85.79 197.39 85.79 197.39 88.92"/><polyline class="cls-5" points="246.78 79.12 246.38 79.12 236.19 79.12 194.65 79.12"/><line class="cls-5" x1="39.05" y1="79.12" x2="0.25" y2="79.12"/><line class="cls-5" x1="0.25" y1="102.25" x2="36.7" y2="102.25"/><line class="cls-5" x1="197.39" y1="102.25" x2="223.26" y2="102.25"/><line class="cls-5" x1="194.65" y1="79.12" x2="39.05" y2="79.12"/><line class="cls-5" x1="197.39" y1="102.25" x2="36.7" y2="102.25"/><path d="M191.91,114.13h0Z" transform="translate(0 -28.34)"/><path class="cls-5" d="M191.91,114.13h0Z" transform="translate(0 -28.34)"/><path d="M197.39,117.26h-5.48v-3.13Zm0,0Z" transform="translate(0 -28.34)"/><path class="cls-5" d="M197.39,117.26h-5.48v-3.13Zm0,0Z" transform="translate(0 -28.34)"/><polygon points="191.91 85.79 197.39 85.79 197.39 88.92 191.91 85.79"/><polygon class="cls-5" points="191.91 85.79 197.39 85.79 197.39 88.92 191.91 85.79"/><path d="M154.28,114.13h0Z" transform="translate(0 -28.34)"/><path class="cls-5" d="M154.28,114.13h0Z" transform="translate(0 -28.34)"/><path d="M157.42,117.26h-3.14v-3.13Zm0,0Z" transform="translate(0 -28.34)"/><path class="cls-5" d="M157.42,117.26h-3.14v-3.13Zm0,0Z" transform="translate(0 -28.34)"/><polygon points="154.28 85.79 157.41 85.79 157.41 88.92 154.28 85.79"/><polygon class="cls-5" points="154.28 85.79 157.41 85.79 157.41 88.92 154.28 85.79"/><path d="M151.14,114.13h0Z" transform="translate(0 -28.34)"/><path class="cls-5" d="M151.14,114.13h0Z" transform="translate(0 -28.34)"/><path d="M154.28,117.26h-3.14v-3.13Zm0,0Z" transform="translate(0 -28.34)"/><path class="cls-5" d="M154.28,117.26h-3.14v-3.13Zm0,0Z" transform="translate(0 -28.34)"/><polygon points="151.15 85.79 154.28 85.79 154.28 88.92 151.15 85.79"/><polygon class="cls-5" points="151.15 85.79 154.28 85.79 154.28 88.92 151.15 85.79"/><path d="M79.42,114.13h0Z" transform="translate(0 -28.34)"/><path class="cls-5" d="M79.42,114.13h0Z" transform="translate(0 -28.34)"/><path d="M83,117.26H79.42v-3.13Zm0,0Z" transform="translate(0 -28.34)"/><path class="cls-5" d="M83,117.26H79.42v-3.13Zm0,0Z" transform="translate(0 -28.34)"/><polygon points="79.42 85.79 82.95 85.79 82.95 88.92 79.42 85.79"/><polygon class="cls-5" points="79.42 85.79 82.95 85.79 82.95 88.92 79.42 85.79"/><path d="M76.29,114.13h0Z" transform="translate(0 -28.34)"/><path class="cls-5" d="M76.29,114.13h0Z" transform="translate(0 -28.34)"/><path d="M79.42,117.26H76.29v-3.13Zm0,0Z" transform="translate(0 -28.34)"/><path class="cls-5" d="M79.42,117.26H76.29v-3.13Zm0,0Z" transform="translate(0 -28.34)"/><polygon points="76.28 85.79 79.42 85.79 79.42 88.92 76.28 85.79"/><polygon class="cls-5" points="76.28 85.79 79.42 85.79 79.42 88.92 76.28 85.79"/><path d="M36.7,114.13h0Z" transform="translate(0 -28.34)"/><path class="cls-5" d="M36.7,114.13h0Z" transform="translate(0 -28.34)"/><path d="M41.8,117.26H36.7v-3.13Zm0,0Z" transform="translate(0 -28.34)"/><path class="cls-5" d="M41.8,117.26H36.7v-3.13Zm0,0Z" transform="translate(0 -28.34)"/><polygon points="36.7 85.79 41.8 85.79 41.8 88.92 36.7 85.79"/><polygon class="cls-5" points="36.7 85.79 41.8 85.79 41.8 88.92 36.7 85.79"/><polyline class="cls-5" points="197.39 85.79 191.91 85.79 191.91 88.92 197.39 88.92"/><polyline class="cls-5" points="154.28 88.92 157.41 88.92 157.41 85.79 154.28 85.79"/><line class="cls-5" x1="191.91" y1="85.79" x2="157.42" y2="85.79"/><line class="cls-5" x1="157.42" y1="88.92" x2="191.91" y2="88.92"/><polyline class="cls-5" points="154.28 85.79 151.15 85.79 151.15 88.92 154.28 88.92"/><polyline class="cls-5" points="79.42 88.92 82.95 88.92 82.95 85.79 79.42 85.79"/><line class="cls-5" x1="151.14" y1="85.79" x2="82.95" y2="85.79"/><line class="cls-5" x1="82.95" y1="88.92" x2="151.14" y2="88.92"/><polyline class="cls-5" points="79.42 85.79 76.28 85.79 76.28 88.92 79.42 88.92"/><polyline class="cls-5" points="36.7 88.92 41.8 88.92 41.8 85.79 36.7 85.79"/><line class="cls-5" x1="76.29" y1="85.79" x2="41.8" y2="85.79"/><line class="cls-5" x1="41.8" y1="88.92" x2="76.29" y2="88.92"/><polyline class="cls-5" points="194.65 85.79 197.39 85.79 197.39 88.92"/><polyline class="cls-5" points="39.05 85.79 36.7 85.79 36.7 88.92"/><path d="M421.58,168.22h0Z" transform="translate(0 -28.34)"/><path class="cls-5" d="M421.58,168.22h0Z" transform="translate(0 -28.34)"/><path d="M332.22,168.22l98,.78h-98Zm89.36,0H332.22l98,.78Z" transform="translate(0 -28.34)"/><path class="cls-5" d="M332.22,168.22l98,.78h-98Zm89.36,0H332.22l98,.78Z" transform="translate(0 -28.34)"/><path d="M246.38,178.8h0Zm0-9.8v9.8H236.19Z" transform="translate(0 -28.34)"/><path class="cls-5" d="M246.38,178.8h0Zm0-9.8v9.8H236.19Z" transform="translate(0 -28.34)"/><path d="M332.22,169l98,9.8h-98Zm98,0h-98l98,9.8Z" transform="translate(0 -28.34)"/><path class="cls-5" d="M332.22,169l98,9.8h-98Zm98,0h-98l98,9.8Z" transform="translate(0 -28.34)"/><path d="M236.19,192.12h0Zm0-13.32v13.32H223.26Z" transform="translate(0 -28.34)"/><path class="cls-5" d="M236.19,192.12h0Zm0-13.32v13.32H223.26Z" transform="translate(0 -28.34)"/><path d="M236.19,178.8h0Z" transform="translate(0 -28.34)"/><path class="cls-5" d="M236.19,178.8h0Z" transform="translate(0 -28.34)"/><path d="M236.19,178.8l10.19,3.13H236.19Zm10.19,0H236.19l10.19,3.13Z" transform="translate(0 -28.34)"/><path class="cls-5" d="M236.19,178.8l10.19,3.13H236.19Zm10.19,0H236.19l10.19,3.13Z" transform="translate(0 -28.34)"/><path d="M246.38,192.12H236.19V181.93Zm0,0Z" transform="translate(0 -28.34)"/><path class="cls-5" d="M246.38,192.12H236.19V181.93Zm0,0Z" transform="translate(0 -28.34)"/><polygon points="236.19 153.59 246.38 153.59 246.38 163.78 236.19 153.59"/><polygon class="cls-5" points="236.19 153.59 246.38 153.59 246.38 163.78 236.19 153.59"/><path d="M332.22,178.8l98,3.13h-98Zm98,0h-98l98,3.13Z" transform="translate(0 -28.34)"/><path class="cls-5" d="M332.22,178.8l98,3.13h-98Zm98,0h-98l98,3.13Z" transform="translate(0 -28.34)"/><path d="M332.22,181.93l98,10.19h-98Zm98,0h-98l98,10.19Z" transform="translate(0 -28.34)"/><path class="cls-5" d="M332.22,181.93l98,10.19h-98Zm98,0h-98l98,10.19Z" transform="translate(0 -28.34)"/><path d="M331.43,168.22l.79.78h-.79Zm.79,0h-.79l.79.78Z" transform="translate(0 -28.34)"/><path class="cls-5" d="M331.43,168.22l.79.78h-.79Zm.79,0h-.79l.79.78Z" transform="translate(0 -28.34)"/><path d="M331.43,169l.79,9.8h-.79Zm.79,0h-.79l.79,9.8Z" transform="translate(0 -28.34)"/><path class="cls-5" d="M331.43,169l.79,9.8h-.79Zm.79,0h-.79l.79,9.8Z" transform="translate(0 -28.34)"/><path d="M246.38,168.22l.4.78h-.4Zm.4,0h-.4l.4.78Z" transform="translate(0 -28.34)"/><path class="cls-5" d="M246.38,168.22l.4.78h-.4Zm.4,0h-.4l.4.78Z" transform="translate(0 -28.34)"/><path d="M246.38,169l.4,9.8h-.4Zm.4,0h-.4l.4,9.8Z" transform="translate(0 -28.34)"/><path class="cls-5" d="M246.38,169l.4,9.8h-.4Zm.4,0h-.4l.4,9.8Z" transform="translate(0 -28.34)"/><line class="cls-5" x1="430.2" y1="140.66" x2="332.22" y2="140.66"/><line class="cls-5" x1="236.19" y1="163.78" x2="236.19" y2="150.46"/><line class="cls-5" x1="430.2" y1="150.46" x2="332.22" y2="150.46"/><line class="cls-5" x1="246.38" y1="150.46" x2="236.19" y2="150.46"/><polyline class="cls-5" points="246.38 140.66 246.38 150.46 246.78 150.46 246.78 139.87 246.38 139.87"/><polyline class="cls-5" points="332.22 140.66 332.22 150.46 331.43 150.46 331.43 139.87 332.22 139.87"/><polyline class="cls-5" points="246.38 150.46 246.38 153.59 246.38 163.78"/><polyline class="cls-5" points="332.22 150.46 332.22 153.59 332.22 163.78"/><line class="cls-5" x1="421.58" y1="139.87" x2="332.22" y2="139.87"/><polyline class="cls-5" points="223.26 163.78 236.19 163.78 246.38 163.78"/><polyline class="cls-5" points="332.22 163.78 430.2 163.78 430.2 150.46 430.2 140.66"/><line class="cls-5" x1="331.43" y1="139.87" x2="246.78" y2="139.87"/><line class="cls-5" x1="332.22" y1="163.78" x2="246.38" y2="163.78"/><polyline class="cls-5" points="332.22 153.59 326.73 153.59 326.73 150.46 332.22 150.46"/><polyline class="cls-5" points="307.13 150.46 310.27 150.46 310.27 153.59 307.13 153.59"/><line class="cls-5" x1="326.73" y1="153.59" x2="310.27" y2="153.59"/><line class="cls-5" x1="310.27" y1="150.46" x2="326.73" y2="150.46"/><polyline class="cls-5" points="307.13 153.59 303.61 153.59 303.61 150.46 307.13 150.46"/><polyline class="cls-5" points="246.38 150.46 251.87 150.46 251.87 153.59 246.38 153.59"/><line class="cls-5" x1="303.61" y1="153.59" x2="251.87" y2="153.59"/><line class="cls-5" x1="251.87" y1="150.46" x2="303.61" y2="150.46"/><line class="cls-5" x1="332.22" y1="150.46" x2="332.22" y2="153.59"/><line class="cls-5" x1="246.38" y1="150.46" x2="246.38" y2="153.59"/><line class="cls-5" x1="412.17" y1="413.83" x2="412.17" y2="445.19"/><line class="cls-5" x1="408.65" y1="449.11" x2="331.43" y2="449.11"/><line class="cls-5" x1="408.65" y1="410.31" x2="331.43" y2="410.31"/><line class="cls-5" x1="309.88" y1="452.64" x2="415.7" y2="452.64"/><polyline class="cls-5" points="309.88 452.64 309.88 406.39 415.7 406.39 415.7 452.64"/><line class="cls-5" x1="343.98" y1="416.58" x2="404.33" y2="416.58"/><line class="cls-5" x1="405.9" y1="418.54" x2="405.9" y2="440.88"/><line class="cls-5" x1="343.98" y1="442.45" x2="404.33" y2="442.45"/><line class="cls-5" x1="393.36" y1="428.34" x2="393.36" y2="426.38"/><line class="cls-5" x1="394.54" y1="429.51" x2="396.89" y2="429.51"/><line class="cls-5" x1="393.36" y1="430.69" x2="393.36" y2="433.04"/><line class="cls-5" x1="392.58" y1="429.51" x2="390.22" y2="429.51"/><polyline class="cls-5" points="331.43 410.31 327.91 410.7 324.77 411.48 321.64 413.05 318.89 415.4 316.54 417.75 314.97 420.89 313.8 424.42 313.01 427.94 313.01 431.47 313.8 435 314.97 438.13 316.54 441.27 318.89 444.01 321.64 445.97 324.77 447.93 327.91 448.72 331.43 449.11"/><polyline class="cls-5" points="408.64 449.11 409.04 449.11 409.82 448.72 410.21 448.72 410.61 448.32 411.39 447.93 411.39 447.15 411.78 446.76 412.17 445.97 412.17 445.19"/><polyline class="cls-5" points="412.17 413.83 412.17 413.05 411.78 412.66 411.39 411.88 411.39 411.48 410.61 411.09 410.21 410.7 409.82 410.31 409.04 410.31 408.64 410.31"/><polyline class="cls-5" points="393.36 427.55 393.75 427.55 394.14 427.94 394.54 427.94 394.93 428.34 395.32 428.73 395.32 429.12 395.32 429.51 395.32 429.9 395.32 430.3 394.93 430.69 394.93 431.08 394.54 431.08 394.54 431.47 394.14 431.47 393.75 431.47 393.36 431.47 392.97 431.47 392.58 431.47 392.58 431.08 392.18 431.08 391.79 430.69 391.79 430.3 391.79 429.9 391.79 429.51 391.79 429.12 391.79 428.73 392.18 428.34 392.58 427.94 392.97 427.94 393.36 427.55"/><polyline class="cls-5" points="343.98 416.58 341.62 416.97 339.27 417.36 337.31 418.54 335.35 420.11 333.79 421.67 332.61 424.02 331.83 425.99 331.43 428.34 331.43 430.69 331.83 433.04 332.61 435.39 333.79 437.35 335.35 439.31 337.31 440.88 339.27 441.66 341.62 442.45 343.98 442.45"/><polyline class="cls-5" points="405.9 418.54 405.9 418.15 405.9 417.75 405.51 417.36 405.12 416.97 404.73 416.58 404.33 416.58"/><polyline class="cls-5" points="405.9 440.88 405.9 441.27 405.51 441.66 405.51 442.05 405.12 442.05 405.12 442.45 404.73 442.45 404.33 442.45"/><polyline class="cls-5" points="393.36 427.16 392.97 427.16 392.58 427.16 392.18 427.55 391.79 427.94 391.4 427.94 391.4 428.73 391.01 429.12 391.01 429.51 391.01 429.9 391.01 430.3 391.4 431.08 391.79 431.47 392.18 431.47 392.58 431.86 392.97 432.26 393.36 432.26 393.75 432.26 394.14 432.26 394.54 431.86 394.93 431.47 395.32 431.47 395.71 431.08 395.71 430.3 396.1 429.9 396.1 429.51 396.1 429.12 395.71 428.73 395.71 427.94 395.32 427.94 394.93 427.55 394.54 427.16 394.14 427.16 393.36 427.16"/><polyline class="cls-5" points="400.42 491.83 415.7 491.83 415.7 456.16 400.42 456.16"/><line class="cls-5" x1="415.7" y1="468.31" x2="415.7" y2="479.68"/><line class="cls-5" x1="403.55" y1="471.06" x2="403.55" y2="473.02"/><line class="cls-5" x1="406.29" y1="473.8" x2="404.73" y2="473.8"/><line class="cls-5" x1="403.55" y1="474.98" x2="403.55" y2="476.94"/><line class="cls-5" x1="402.37" y1="473.8" x2="400.41" y2="473.8"/><path class="cls-5" d="M399.39,517.89a15.88,15.88,0,0,0,7.5-6.16" transform="translate(0 -28.34)"/><path class="cls-5" d="M406.76,511.7a15.93,15.93,0,0,0,2.23-9.46" transform="translate(0 -28.34)"/><path class="cls-5" d="M406.89,492.55a15.92,15.92,0,0,0-7.5-6.15" transform="translate(0 -28.34)"/><path class="cls-5" d="M409,502.05a16,16,0,0,0-2.23-9.47" transform="translate(0 -28.34)"/><path class="cls-5" d="M388.34,503.31a29.35,29.35,0,0,0,2.94,10.77" transform="translate(0 -28.34)"/><path class="cls-5" d="M400.22,484.12a9.23,9.23,0,0,0-7.58,3.44" transform="translate(0 -28.34)"/><path class="cls-5" d="M388.31,500.7a17.24,17.24,0,0,0,0,2.49" transform="translate(0 -28.34)"/><path class="cls-5" d="M406.3,512a65.24,65.24,0,0,0,0-20" transform="translate(0 -28.34)"/><path class="cls-5" d="M412.52,490a22.57,22.57,0,0,0-14.65-5.08" transform="translate(0 -28.34)"/><path class="cls-5" d="M414.91,502.29a44.79,44.79,0,0,0-1.1-10.26" transform="translate(0 -28.34)"/><path class="cls-5" d="M413.67,491.89a3,3,0,0,0-1-1.63" transform="translate(0 -28.34)"/><path class="cls-5" d="M413,501.91a76.85,76.85,0,0,0-.73-10.06" transform="translate(0 -28.34)"/><path class="cls-5" d="M411.61,490.33a20.23,20.23,0,0,0-13.62-5" transform="translate(0 -28.34)"/><path class="cls-5" d="M412.54,492.14a2.92,2.92,0,0,0-1-1.8" transform="translate(0 -28.34)"/><path class="cls-5" d="M398,519a20.2,20.2,0,0,0,13.61-5" transform="translate(0 -28.34)"/><path class="cls-5" d="M397.9,519a22.49,22.49,0,0,0,14.64-5.1" transform="translate(0 -28.34)"/><path class="cls-5" d="M412.25,512.33a78.58,78.58,0,0,0,.71-10.05" transform="translate(0 -28.34)"/><path class="cls-5" d="M413.82,512.2a44.29,44.29,0,0,0,1.09-10.26" transform="translate(0 -28.34)"/><path class="cls-5" d="M411.57,514a3,3,0,0,0,1-1.8" transform="translate(0 -28.34)"/><path class="cls-5" d="M412.66,514a3,3,0,0,0,1-1.63" transform="translate(0 -28.34)"/><path class="cls-5" d="M392.64,516.73a9.22,9.22,0,0,0,7.58,3.43" transform="translate(0 -28.34)"/><path class="cls-5" d="M391.37,514.18a13.74,13.74,0,0,0,1.51,2.34" transform="translate(0 -28.34)"/><path class="cls-5" d="M392.88,487.76a13.82,13.82,0,0,0-1.51,2.35" transform="translate(0 -28.34)"/><path class="cls-5" d="M391.28,490.21A29.24,29.24,0,0,0,388.34,501" transform="translate(0 -28.34)"/><path class="cls-5" d="M390.81,497a21,21,0,0,0,0,9.84" transform="translate(0 -28.34)"/><path class="cls-5" d="M395,516a5.3,5.3,0,0,0,4.37,1.82" transform="translate(0 -28.34)"/><path class="cls-5" d="M390.91,506.88A19.45,19.45,0,0,0,395,515.8" transform="translate(0 -28.34)"/><path class="cls-5" d="M399.41,486.48A5.27,5.27,0,0,0,395,488.3" transform="translate(0 -28.34)"/><path class="cls-5" d="M395,488.09a19.54,19.54,0,0,0-4.09,8.92" transform="translate(0 -28.34)"/><path class="cls-5" d="M405.51,502a2.16,2.16,0,1,0-2.16,2.15,2.16,2.16,0,0,0,2.16-2.15" transform="translate(0 -28.34)"/><path class="cls-5" d="M405.12,502a1.77,1.77,0,1,0-1.77,1.76,1.77,1.77,0,0,0,1.77-1.76" transform="translate(0 -28.34)"/><line class="cls-5" x1="405.51" y1="502.41" x2="382.39" y2="502.41"/><polyline class="cls-5" points="407.08 501.24 415.7 501.24 415.7 525.93"/><line class="cls-5" x1="401.59" y1="513.78" x2="401.59" y2="522.79"/><polyline class="cls-5" points="382.78 502.41 401.59 504.76 401.59 513.78"/><line class="cls-5" x1="382.78" y1="524.75" x2="401.59" y2="522.79"/><line class="cls-5" x1="382.78" y1="502.8" x2="401.59" y2="505.16"/><line class="cls-5" x1="382.78" y1="524.36" x2="401.59" y2="522.01"/><line class="cls-5" x1="405.51" y1="524.75" x2="382.39" y2="524.75"/><line class="cls-5" x1="415.7" y1="525.93" x2="407.08" y2="525.93"/><polyline class="cls-5" points="382.78 502.41 380.03 502.8 377.68 503.59 375.33 505.15 373.76 507.12 372.59 509.47 371.8 512.21 371.8 514.95 372.59 517.7 373.76 520.05 375.33 522.01 377.68 523.58 380.03 524.75 382.78 524.75"/><polyline class="cls-5" points="382.78 502.8 380.03 503.2 378.07 503.98 375.72 505.55 374.15 507.51 372.98 509.86 372.59 512.21 372.59 514.95 372.98 517.3 374.15 519.66 375.72 521.62 378.07 523.18 380.03 523.97 382.78 524.36"/><polyline class="cls-5" points="407.08 501.24 406.69 501.24 406.29 501.63 405.9 501.63 405.9 502.02 405.51 502.02 405.51 502.41 405.51 502.8 404.73 513.78 405.51 524.75 405.51 525.14 405.9 525.14 405.9 525.54 406.29 525.54 406.29 525.93 406.69 525.93 407.08 525.93"/><polyline class="cls-5" points="411.39 513.78 411.39 513.39 411 512.99 411 512.6 410.61 512.6 410.21 512.6 409.82 512.6 409.43 512.6 409.04 512.99 409.04 513.39 409.04 513.78 409.04 514.17 409.04 514.56 409.43 514.56 409.82 514.95 410.21 514.95 410.61 514.95 410.61 514.56 411 514.56 411 514.17 411.39 514.17 411.39 513.78"/><polyline class="cls-5" points="307.92 510.25 347.5 510.25 347.5 540.04 307.92 540.04 307.92 510.25"/><path d="M246.78,107.47h0Z" transform="translate(0 -28.34)"/><path class="cls-5" d="M246.78,107.47h0Z" transform="translate(0 -28.34)"/><path d="M254.22,109.43h-7.44v-2Zm0,0Z" transform="translate(0 -28.34)"/><path class="cls-5" d="M254.22,109.43h-7.44v-2Zm0,0Z" transform="translate(0 -28.34)"/><polygon points="246.78 79.12 254.22 79.12 254.22 81.08 246.78 79.12"/><polygon class="cls-5" points="246.78 79.12 254.22 79.12 254.22 81.08 246.78 79.12"/><polyline points="434.37 81.08 409.43 81.08 409.43 79.12 434.37 81.08"/><polyline points="434.37 79.12 409.43 79.12 434.37 81.08"/><polyline class="cls-5" points="434.37 81.08 409.43 81.08 409.43 79.12 434.37 81.08"/><polyline class="cls-5" points="434.37 79.12 409.43 79.12 434.37 81.08"/><path d="M246.78,109.43h0Z" transform="translate(0 -28.34)"/><path class="cls-5" d="M246.78,109.43h0Z" transform="translate(0 -28.34)"/><path d="M246.78,109.43l7.44,2.74h-7.44Zm7.44,0h-7.44l7.44,2.74Z" transform="translate(0 -28.34)"/><path class="cls-5" d="M246.78,109.43l7.44,2.74h-7.44Zm7.44,0h-7.44l7.44,2.74Z" transform="translate(0 -28.34)"/><path d="M246.78,112.17l7.44,3.13h-7.44Zm7.44,0h-7.44l7.44,3.13Z" transform="translate(0 -28.34)"/><path class="cls-5" d="M246.78,112.17l7.44,3.13h-7.44Zm7.44,0h-7.44l7.44,3.13Z" transform="translate(0 -28.34)"/><path d="M254.22,117.26h-7.44v-2Zm0,0Z" transform="translate(0 -28.34)"/><path class="cls-5" d="M254.22,117.26h-7.44v-2Zm0,0Z" transform="translate(0 -28.34)"/><polygon points="246.78 86.96 254.22 86.96 254.22 88.92 246.78 86.96"/><polygon class="cls-5" points="246.78 86.96 254.22 86.96 254.22 88.92 246.78 86.96"/><polyline points="434.37 83.83 409.43 83.83 434.37 83.83"/><polyline points="434.37 83.83 409.43 83.83 434.37 83.83"/><polyline points="434.37 83.83 409.43 83.83 409.43 81.08 434.37 83.83"/><polyline points="434.37 81.08 409.43 81.08 434.37 83.83"/><polyline class="cls-5" points="434.37 83.83 409.43 83.83 434.37 83.83"/><polyline class="cls-5" points="434.37 83.83 409.43 83.83 434.37 83.83"/><polyline class="cls-5" points="434.37 83.83 409.43 83.83 409.43 81.08 434.37 83.83"/><polyline class="cls-5" points="434.37 81.08 409.43 81.08 434.37 83.83"/><polyline points="434.37 86.96 409.43 86.96 434.37 86.96"/><polyline points="434.37 86.96 409.43 86.96 434.37 86.96"/><polyline points="434.37 86.96 409.43 86.96 409.43 83.83 434.37 86.96"/><polyline points="434.37 83.83 409.43 83.83 434.37 86.96"/><polyline class="cls-5" points="434.37 86.96 409.43 86.96 434.37 86.96"/><polyline class="cls-5" points="434.37 86.96 409.43 86.96 434.37 86.96"/><polyline class="cls-5" points="434.37 86.96 409.43 86.96 409.43 83.83 434.37 86.96"/><polyline class="cls-5" points="434.37 83.83 409.43 83.83 434.37 86.96"/><polyline points="434.37 88.92 409.43 88.92 409.43 86.96 434.37 88.92"/><polyline points="434.37 86.96 409.43 86.96 434.37 88.92"/><polyline class="cls-5" points="434.37 88.92 409.43 88.92 409.43 86.96 434.37 88.92"/><polyline class="cls-5" points="434.37 86.96 409.43 86.96 434.37 88.92"/><path d="M254.22,107.47l2,2h-2Zm2,0h-2l2,2Z" transform="translate(0 -28.34)"/><path class="cls-5" d="M254.22,107.47l2,2h-2Zm2,0h-2l2,2Z" transform="translate(0 -28.34)"/><path d="M254.22,109.43l2,2.74h-2Zm2,0h-2l2,2.74Z" transform="translate(0 -28.34)"/><path class="cls-5" d="M254.22,109.43l2,2.74h-2Zm2,0h-2l2,2.74Z" transform="translate(0 -28.34)"/><path d="M407.47,107.47l2,2h-2Zm2,0h-2l2,2Z" transform="translate(0 -28.34)"/><path class="cls-5" d="M407.47,107.47l2,2h-2Zm2,0h-2l2,2Z" transform="translate(0 -28.34)"/><path d="M407.47,109.43l2,2.74h-2Zm2,0h-2l2,2.74Z" transform="translate(0 -28.34)"/><path class="cls-5" d="M407.47,109.43l2,2.74h-2Zm2,0h-2l2,2.74Z" transform="translate(0 -28.34)"/><line class="cls-5" x1="254.22" y1="81.08" x2="246.78" y2="81.08"/><line class="cls-5" x1="434.37" y1="81.08" x2="409.43" y2="81.08"/><polyline class="cls-5" points="409.43 81.08 409.43 83.83 407.47 83.83 407.47 79.12 409.43 79.12"/><polyline class="cls-5" points="254.22 81.08 254.22 83.83 256.18 83.83 256.18 79.12 254.22 79.12"/><polyline class="cls-5" points="409.43 83.83 409.43 86.96 409.43 88.92"/><polyline class="cls-5" points="254.22 83.83 254.22 86.96 254.22 88.92"/><line class="cls-5" x1="434.37" y1="79.12" x2="409.43" y2="79.12"/><polyline class="cls-5" points="254.22 79.12 246.78 79.12 246.78 88.92 254.22 88.92"/><line class="cls-5" x1="409.43" y1="88.92" x2="434.37" y2="88.92"/><line class="cls-5" x1="256.18" y1="79.12" x2="407.47" y2="79.12"/><line class="cls-5" x1="254.22" y1="88.92" x2="409.43" y2="88.92"/><path d="M254.22,112.17h0Z" transform="translate(0 -28.34)"/><path class="cls-5" d="M254.22,112.17h0Z" transform="translate(0 -28.34)"/><path d="M259.32,115.3h-5.1v-3.13Zm0,0Z" transform="translate(0 -28.34)"/><path class="cls-5" d="M259.32,115.3h-5.1v-3.13Zm0,0Z" transform="translate(0 -28.34)"/><polygon points="254.22 83.83 259.32 83.83 259.32 86.96 254.22 83.83"/><polygon class="cls-5" points="254.22 83.83 259.32 83.83 259.32 86.96 254.22 83.83"/><path d="M293.81,112.17h0Z" transform="translate(0 -28.34)"/><path class="cls-5" d="M293.81,112.17h0Z" transform="translate(0 -28.34)"/><path d="M297.34,115.3h-3.53v-3.13Zm0,0Z" transform="translate(0 -28.34)"/><path class="cls-5" d="M297.34,115.3h-3.53v-3.13Zm0,0Z" transform="translate(0 -28.34)"/><polygon points="293.81 83.83 297.34 83.83 297.34 86.96 293.81 83.83"/><polygon class="cls-5" points="293.81 83.83 297.34 83.83 297.34 86.96 293.81 83.83"/><path d="M297.34,112.17h0Z" transform="translate(0 -28.34)"/><path class="cls-5" d="M297.34,112.17h0Z" transform="translate(0 -28.34)"/><path d="M300.47,115.3h-3.13v-3.13Zm0,0Z" transform="translate(0 -28.34)"/><path class="cls-5" d="M300.47,115.3h-3.13v-3.13Zm0,0Z" transform="translate(0 -28.34)"/><polygon points="297.34 83.83 300.47 83.83 300.47 86.96 297.34 83.83"/><polygon class="cls-5" points="297.34 83.83 300.47 83.83 300.47 86.96 297.34 83.83"/><path d="M363.18,112.17h0Z" transform="translate(0 -28.34)"/><path class="cls-5" d="M363.18,112.17h0Z" transform="translate(0 -28.34)"/><path d="M366.71,115.3h-3.53v-3.13Zm0,0Z" transform="translate(0 -28.34)"/><path class="cls-5" d="M366.71,115.3h-3.53v-3.13Zm0,0Z" transform="translate(0 -28.34)"/><polygon points="363.18 83.83 366.71 83.83 366.71 86.96 363.18 83.83"/><polygon class="cls-5" points="363.18 83.83 366.71 83.83 366.71 86.96 363.18 83.83"/><path d="M366.71,112.17h0Z" transform="translate(0 -28.34)"/><path class="cls-5" d="M366.71,112.17h0Z" transform="translate(0 -28.34)"/><path d="M369.84,115.3h-3.13v-3.13Zm0,0Z" transform="translate(0 -28.34)"/><path class="cls-5" d="M369.84,115.3h-3.13v-3.13Zm0,0Z" transform="translate(0 -28.34)"/><polygon points="366.71 83.83 369.84 83.83 369.84 86.96 366.71 83.83"/><polygon class="cls-5" points="366.71 83.83 369.84 83.83 369.84 86.96 366.71 83.83"/><path d="M404.33,112.17h0Z" transform="translate(0 -28.34)"/><path class="cls-5" d="M404.33,112.17h0Z" transform="translate(0 -28.34)"/><path d="M409.43,115.3h-5.1v-3.13Zm0,0Z" transform="translate(0 -28.34)"/><path class="cls-5" d="M409.43,115.3h-5.1v-3.13Zm0,0Z" transform="translate(0 -28.34)"/><polygon points="404.33 83.83 409.43 83.83 409.43 86.96 404.33 83.83"/><polygon class="cls-5" points="404.33 83.83 409.43 83.83 409.43 86.96 404.33 83.83"/><polyline class="cls-5" points="254.22 83.83 259.32 83.83 259.32 86.96 254.22 86.96"/><polyline class="cls-5" points="297.34 86.96 293.81 86.96 293.81 83.83 297.34 83.83"/><line class="cls-5" x1="259.32" y1="83.83" x2="293.81" y2="83.83"/><line class="cls-5" x1="293.81" y1="86.96" x2="259.32" y2="86.96"/><polyline class="cls-5" points="297.34 83.83 300.47 83.83 300.47 86.96 297.34 86.96"/><polyline class="cls-5" points="366.71 86.96 363.18 86.96 363.18 83.83 366.71 83.83"/><line class="cls-5" x1="300.47" y1="83.83" x2="363.18" y2="83.83"/><line class="cls-5" x1="363.18" y1="86.96" x2="300.47" y2="86.96"/><polyline class="cls-5" points="366.71 83.83 369.84 83.83 369.84 86.96 366.71 86.96"/><polyline class="cls-5" points="409.43 86.96 404.33 86.96 404.33 83.83 409.43 83.83"/><line class="cls-5" x1="369.84" y1="83.83" x2="404.33" y2="83.83"/><line class="cls-5" x1="404.33" y1="86.96" x2="369.84" y2="86.96"/><line class="cls-5" x1="254.22" y1="83.83" x2="254.22" y2="86.96"/><line class="cls-5" x1="409.43" y1="83.83" x2="409.43" y2="86.96"/><polyline class="cls-5" points="416.88 163.78 416.88 150.46 416.88 140.66"/><polygon points="246.78 79.12 246.78 79.52 246.38 79.52 246.78 79.12"/><polygon class="cls-5" points="246.78 79.12 246.78 79.52 246.38 79.52 246.78 79.12"/><path d="M246.78,168.22h-.4V169Zm-.4-60.36.4,60.36h-.4Zm.4,0h-.4l.4,60.36Z" transform="translate(0 -28.34)"/><path class="cls-5" d="M246.78,168.22h-.4V169Zm-.4-60.36.4,60.36h-.4Zm.4,0h-.4l.4,60.36Z" transform="translate(0 -28.34)"/><path d="M240.11,114.13h0Zm6.27,0h0Zm0-6.27v6.27h-6.27Z" transform="translate(0 -28.34)"/><path class="cls-5" d="M240.11,114.13h0Zm6.27,0h0Zm0-6.27v6.27h-6.27Z" transform="translate(0 -28.34)"/><path d="M240.11,114.13l6.27,3.53H236.19Zm6.27,0h-6.27l6.27,3.53Z" transform="translate(0 -28.34)"/><path class="cls-5" d="M240.11,114.13l6.27,3.53H236.19Zm6.27,0h-6.27l6.27,3.53Z" transform="translate(0 -28.34)"/><path d="M246.38,169H236.19V117.66Zm0,0Z" transform="translate(0 -28.34)"/><path class="cls-5" d="M246.38,169H236.19V117.66Zm0,0Z" transform="translate(0 -28.34)"/><polygon points="236.19 89.31 246.38 89.31 246.38 140.66 236.19 89.31"/><polygon class="cls-5" points="236.19 89.31 246.38 89.31 246.38 140.66 236.19 89.31"/><path d="M246.38,169H236.19v9.8Zm0,0Z" transform="translate(0 -28.34)"/><path class="cls-5" d="M246.38,169H236.19v9.8Zm0,0Z" transform="translate(0 -28.34)"/><polygon points="236.19 89.31 236.19 102.25 223.26 102.25 236.19 89.31"/><polygon class="cls-5" points="236.19 89.31 236.19 102.25 223.26 102.25 236.19 89.31"/><path d="M223.26,130.59l12.93,48.21H223.26Zm12.93,0H223.26l12.93,48.21Z" transform="translate(0 -28.34)"/><path class="cls-5" d="M223.26,130.59l12.93,48.21H223.26Zm12.93,0H223.26l12.93,48.21Z" transform="translate(0 -28.34)"/><path d="M223.26,178.8v0Zm12.93,0H223.26v13.32Z" transform="translate(0 -28.34)"/><path class="cls-5" d="M223.26,178.8v0Zm12.93,0H223.26v13.32Z" transform="translate(0 -28.34)"/><polyline class="cls-5" points="246.38 140.66 246.38 85.79 246.38 79.52"/><line class="cls-5" x1="236.19" y1="150.46" x2="236.19" y2="89.31"/><line class="cls-5" x1="223.26" y1="102.25" x2="223.26" y2="163.78"/><line class="cls-5" x1="246.78" y1="139.87" x2="246.78" y2="79.12"/><path d="M416.88,108.64l13.32,5.49H416.88Zm13.32,0H416.88l13.32,5.49Z" transform="translate(0 -28.34)"/><path class="cls-5" d="M416.88,108.64l13.32,5.49H416.88Zm13.32,0H416.88l13.32,5.49Z" transform="translate(0 -28.34)"/><polyline class="cls-5" points="430.2 85.79 430.2 80.3 416.88 80.3 416.88 85.79 430.2 85.79"/><path d="M217,593.46H204.06v13.33Zm0-12.93v12.93H204.06Z" transform="translate(0 -28.34)"/><path class="cls-5" d="M217,593.46H204.06v13.33Zm0-12.93v12.93H204.06Z" transform="translate(0 -28.34)"/><line class="cls-5" x1="216.99" y1="565.12" x2="216.99" y2="552.19"/><line class="cls-5" x1="204.06" y1="565.12" x2="204.06" y2="578.45"/><polyline points="430.2 578.45 416.88 578.45 416.88 565.12 430.2 578.45"/><polyline points="430.2 565.12 416.88 565.12 430.2 578.45"/><polyline class="cls-5" points="430.2 578.45 416.88 578.45 416.88 565.12 430.2 578.45"/><polyline class="cls-5" points="430.2 565.12 416.88 565.12 430.2 578.45"/><polyline class="cls-5" points="430.2 565.12 416.88 565.12 416.88 578.45"/><line class="cls-5" x1="416.88" y1="578.45" x2="430.2" y2="578.45"/><path d="M13.18,593.46l31.75,13.33H13.18Zm31.75,0H13.18l31.75,13.33Z" transform="translate(0 -28.34)"/><path class="cls-5" d="M13.18,593.46l31.75,13.33H13.18Zm31.75,0H13.18l31.75,13.33Z" transform="translate(0 -28.34)"/><polyline class="cls-5" points="13.18 578.45 44.93 578.45 44.93 565.12 13.18 565.12 13.18 578.45"/><polygon points="146.83 447.54 152.32 452.64 146.83 452.64 146.83 447.54"/><polygon class="cls-5" points="146.83 447.54 152.32 452.64 146.83 452.64 146.83 447.54"/><path d="M152.32,527.62h-5.49V481Zm0,0Z" transform="translate(0 -28.34)"/><path class="cls-5" d="M152.32,527.62h-5.49V481Zm0,0Z" transform="translate(0 -28.34)"/><polygon points="146.83 452.64 152.32 452.64 152.32 499.28 146.83 452.64"/><polygon class="cls-5" points="146.83 452.64 152.32 452.64 152.32 499.28 146.83 452.64"/><line class="cls-5" x1="146.83" y1="499.28" x2="152.32" y2="499.28"/><line class="cls-5" x1="146.83" y1="447.54" x2="146.83" y2="487.13"/><line class="cls-5" x1="146.83" y1="492.61" x2="146.83" y2="499.28"/><line class="cls-5" x1="146.83" y1="552.19" x2="152.32" y2="552.19"/><line class="cls-5" x1="152.32" y1="499.28" x2="152.32" y2="452.64"/><line class="cls-5" x1="146.83" y1="499.28" x2="146.83" y2="502.41"/><line class="cls-5" x1="152.32" y1="499.28" x2="152.32" y2="502.41"/><line class="cls-5" x1="146.83" y1="552.19" x2="146.83" y2="548.66"/><line class="cls-5" x1="152.32" y1="552.19" x2="152.32" y2="548.66"/><line class="cls-5" x1="152.32" y1="502.41" x2="146.83" y2="502.41"/><polyline class="cls-5" points="152.32 548.66 146.83 548.66 123.71 508.68"/><path class="cls-5" d="M146.64,530.36a46.51,46.51,0,0,0-23.22,6.22" transform="translate(0 -28.34)"/><path d="M419.62,428.07h0Z" transform="translate(0 -28.34)"/><path class="cls-5" d="M419.62,428.07h0Z" transform="translate(0 -28.34)"/><path d="M419.62,433.55H297.73v-5.48Zm0,0Z" transform="translate(0 -28.34)"/><path class="cls-5" d="M419.62,433.55H297.73v-5.48Zm0,0Z" transform="translate(0 -28.34)"/><polygon points="297.73 399.73 419.62 399.73 419.62 405.21 297.73 399.73"/><polygon class="cls-5" points="297.73 399.73 419.62 399.73 419.62 405.21 297.73 399.73"/><path d="M238.15,428.07h0Z" transform="translate(0 -28.34)"/><path class="cls-5" d="M238.15,428.07h0Z" transform="translate(0 -28.34)"/><path d="M238.15,433.55h-9.79v-5.48Zm0,0Z" transform="translate(0 -28.34)"/><path class="cls-5" d="M238.15,433.55h-9.79v-5.48Zm0,0Z" transform="translate(0 -28.34)"/><polygon points="228.36 399.73 238.15 399.73 238.15 405.21 228.36 399.73"/><polygon class="cls-5" points="228.36 399.73 238.15 399.73 238.15 405.21 228.36 399.73"/><line class="cls-5" x1="297.73" y1="399.73" x2="297.73" y2="405.21"/><line class="cls-5" x1="238.15" y1="399.73" x2="238.15" y2="405.21"/><line class="cls-5" x1="419.62" y1="399.73" x2="297.73" y2="399.73"/><line class="cls-5" x1="238.15" y1="399.73" x2="228.36" y2="399.73"/><line class="cls-5" x1="228.36" y1="405.21" x2="238.15" y2="405.21"/><line class="cls-5" x1="297.73" y1="405.21" x2="302.43" y2="405.21"/><polyline class="cls-5" points="307.92 405.21 419.62 405.21 419.62 399.73"/><line class="cls-5" x1="297.73" y1="399.73" x2="294.59" y2="399.73"/><line class="cls-5" x1="297.73" y1="405.21" x2="294.59" y2="405.21"/><line class="cls-5" x1="238.15" y1="399.73" x2="241.68" y2="399.73"/><line class="cls-5" x1="238.15" y1="405.21" x2="241.68" y2="405.21"/><line class="cls-5" x1="294.59" y1="405.21" x2="294.59" y2="399.73"/><polyline class="cls-5" points="241.68 405.21 241.68 399.73 241.68 346.81"/><path class="cls-5" d="M294.59,427.87a53.1,53.1,0,0,0-53.1-53.11" transform="translate(0 -28.34)"/><path d="M228.36,179.58h0Z" transform="translate(0 -28.34)"/><path class="cls-5" d="M228.36,179.58h0Z" transform="translate(0 -28.34)"/><path d="M223.26,475.88h5.1V481Zm0-296.3v296.3h5.1Z" transform="translate(0 -28.34)"/><path class="cls-5" d="M223.26,475.88h5.1V481Zm0-296.3v296.3h5.1Z" transform="translate(0 -28.34)"/><polygon points="223.26 151.24 228.36 151.24 228.36 447.54 223.26 151.24"/><polygon class="cls-5" points="223.26 151.24 228.36 151.24 228.36 447.54 223.26 151.24"/><line class="cls-5" x1="228.36" y1="452.64" x2="228.36" y2="405.21"/><polyline class="cls-5" points="228.36 399.73 228.36 151.24 223.26 151.24 223.26 447.54"/><path d="M307.92,433.55h0Z" transform="translate(0 -28.34)"/><path class="cls-5" d="M307.92,433.55h0Z" transform="translate(0 -28.34)"/><path d="M307.92,484.51h-5.49v-51Zm0,0Z" transform="translate(0 -28.34)"/><path class="cls-5" d="M307.92,484.51h-5.49v-51Zm0,0Z" transform="translate(0 -28.34)"/><polygon points="302.43 405.21 307.92 405.21 307.92 456.16 302.43 405.21"/><polygon class="cls-5" points="302.43 405.21 307.92 405.21 307.92 456.16 302.43 405.21"/><path d="M307.92,537.42h0Z" transform="translate(0 -28.34)"/><path class="cls-5" d="M307.92,537.42h0Z" transform="translate(0 -28.34)"/><path d="M307.92,593.46h-5.49v-56Zm0,0Z" transform="translate(0 -28.34)"/><path class="cls-5" d="M307.92,593.46h-5.49v-56Zm0,0Z" transform="translate(0 -28.34)"/><polygon points="302.43 509.07 307.92 509.07 307.92 565.12 302.43 509.07"/><polygon class="cls-5" points="302.43 509.07 307.92 509.07 307.92 565.12 302.43 509.07"/><line class="cls-5" x1="302.43" y1="456.16" x2="307.92" y2="456.16"/><line class="cls-5" x1="302.43" y1="509.07" x2="307.92" y2="509.07"/><line class="cls-5" x1="302.43" y1="405.21" x2="302.43" y2="456.16"/><polyline class="cls-5" points="302.43 509.07 302.43 565.12 307.92 565.12 307.92 545.52"/><line class="cls-5" x1="307.92" y1="540.04" x2="307.92" y2="509.07"/><line class="cls-5" x1="307.92" y1="456.16" x2="307.92" y2="405.21"/><line class="cls-5" x1="302.43" y1="456.16" x2="302.43" y2="459.3"/><line class="cls-5" x1="307.92" y1="456.16" x2="307.92" y2="459.3"/><line class="cls-5" x1="302.43" y1="509.07" x2="302.43" y2="505.55"/><line class="cls-5" x1="307.92" y1="509.07" x2="307.92" y2="505.55"/><line class="cls-5" x1="307.92" y1="459.3" x2="302.43" y2="459.3"/><polyline class="cls-5" points="307.92 505.55 302.43 505.55 279.31 465.57"/><path class="cls-5" d="M302.24,487.25A46.51,46.51,0,0,0,279,493.47" transform="translate(0 -28.34)"/><path d="M377.29,573.87h0Z" transform="translate(0 -28.34)"/><path class="cls-5" d="M377.29,573.87h0Z" transform="translate(0 -28.34)"/><path d="M377.29,593.46H371.8V573.87Zm0,0Z" transform="translate(0 -28.34)"/><path class="cls-5" d="M377.29,593.46H371.8V573.87Zm0,0Z" transform="translate(0 -28.34)"/><polygon points="371.8 545.52 377.29 545.52 377.29 565.12 371.8 545.52"/><polygon class="cls-5" points="371.8 545.52 377.29 545.52 377.29 565.12 371.8 545.52"/><polyline class="cls-5" points="371.8 545.52 371.8 565.12 377.29 565.12 377.29 545.52"/><path d="M419.62,568.38h0Z" transform="translate(0 -28.34)"/><path class="cls-5" d="M419.62,568.38h0Z" transform="translate(0 -28.34)"/><path d="M419.62,573.87H307.92v-5.49Zm0,0Z" transform="translate(0 -28.34)"/><path class="cls-5" d="M419.62,573.87H307.92v-5.49Zm0,0Z" transform="translate(0 -28.34)"/><polygon points="307.92 540.04 419.62 540.04 419.62 545.52 307.92 540.04"/><polygon class="cls-5" points="307.92 540.04 419.62 540.04 419.62 545.52 307.92 540.04"/><line class="cls-5" x1="419.62" y1="540.04" x2="307.92" y2="540.04"/><line class="cls-5" x1="307.92" y1="545.52" x2="371.8" y2="545.52"/><polyline class="cls-5" points="377.29 545.52 419.62 545.52 419.62 540.04"/><path d="M146.83,515.47h0Z" transform="translate(0 -28.34)"/><path class="cls-5" d="M146.83,515.47h0Z" transform="translate(0 -28.34)"/><path d="M146.83,521H13.18v-5.49Zm0,0Z" transform="translate(0 -28.34)"/><path class="cls-5" d="M146.83,521H13.18v-5.49Zm0,0Z" transform="translate(0 -28.34)"/><polygon points="13.18 487.13 146.83 487.13 146.83 492.61 13.18 487.13"/><polygon class="cls-5" points="13.18 487.13 146.83 487.13 146.83 492.61 13.18 487.13"/><line class="cls-5" x1="146.83" y1="487.13" x2="13.18" y2="487.13"/><line class="cls-5" x1="13.18" y1="492.61" x2="39.84" y2="492.61"/><line class="cls-5" x1="44.93" y1="492.61" x2="146.83" y2="492.61"/><path d="M44.93,521h0Z" transform="translate(0 -28.34)"/><path class="cls-5" d="M44.93,521h0Z" transform="translate(0 -28.34)"/><path d="M39.84,580.53h5.09l-5.09,12.93Zm0-59.57v59.57h5.09Z" transform="translate(0 -28.34)"/><path class="cls-5" d="M39.84,580.53h5.09l-5.09,12.93Zm0-59.57v59.57h5.09Z" transform="translate(0 -28.34)"/><polygon points="39.84 492.61 44.93 492.61 44.93 552.19 39.84 492.61"/><polygon class="cls-5" points="39.84 492.61 44.93 492.61 44.93 552.19 39.84 492.61"/><line class="cls-5" x1="44.93" y1="552.19" x2="44.93" y2="492.61"/><line class="cls-5" x1="39.84" y1="492.61" x2="39.84" y2="525.54"/><line class="cls-5" x1="39.84" y1="531.02" x2="39.84" y2="565.12"/><path d="M13.18,553.88h0Z" transform="translate(0 -28.34)"/><path class="cls-5" d="M13.18,553.88h0Z" transform="translate(0 -28.34)"/><path d="M39.84,559.37H13.18v-5.49Zm0,0Z" transform="translate(0 -28.34)"/><path class="cls-5" d="M39.84,559.37H13.18v-5.49Zm0,0Z" transform="translate(0 -28.34)"/><polygon points="13.18 525.54 39.84 525.54 39.84 531.02 13.18 525.54"/><polygon class="cls-5" points="13.18 525.54 39.84 525.54 39.84 531.02 13.18 525.54"/><line class="cls-5" x1="39.84" y1="525.54" x2="13.18" y2="525.54"/><line class="cls-5" x1="13.18" y1="531.02" x2="39.84" y2="531.02"/><path d="M223.26,475.88h0Z" transform="translate(0 -28.34)"/><path class="cls-5" d="M223.26,475.88h0Z" transform="translate(0 -28.34)"/><path d="M228.36,481H215v-5.1Zm0,0Z" transform="translate(0 -28.34)"/><path class="cls-5" d="M228.36,481H215v-5.1Zm0,0Z" transform="translate(0 -28.34)"/><polygon points="215.03 447.54 223.26 447.54 228.36 452.64 215.03 447.54"/><polygon class="cls-5" points="215.03 447.54 223.26 447.54 228.36 452.64 215.03 447.54"/><path d="M155.46,475.88h0Z" transform="translate(0 -28.34)"/><path class="cls-5" d="M155.46,475.88h0Z" transform="translate(0 -28.34)"/><path d="M155.46,481h-3.14l-5.49-5.1Zm0,0Z" transform="translate(0 -28.34)"/><path class="cls-5" d="M155.46,481h-3.14l-5.49-5.1Zm0,0Z" transform="translate(0 -28.34)"/><polygon points="146.83 447.54 155.46 447.54 155.46 452.64 146.83 447.54"/><polygon class="cls-5" points="146.83 447.54 155.46 447.54 155.46 452.64 146.83 447.54"/><line class="cls-5" x1="215.03" y1="447.54" x2="215.03" y2="452.64"/><line class="cls-5" x1="155.46" y1="447.54" x2="155.46" y2="452.64"/><line class="cls-5" x1="223.26" y1="447.54" x2="215.03" y2="447.54"/><line class="cls-5" x1="155.46" y1="447.54" x2="146.83" y2="447.54"/><line class="cls-5" x1="152.32" y1="452.64" x2="155.46" y2="452.64"/><line class="cls-5" x1="215.03" y1="452.64" x2="228.36" y2="452.64"/><line class="cls-5" x1="155.46" y1="447.54" x2="158.98" y2="447.54"/><line class="cls-5" x1="155.46" y1="452.64" x2="158.98" y2="452.64"/><line class="cls-5" x1="215.03" y1="447.54" x2="211.89" y2="447.54"/><line class="cls-5" x1="215.03" y1="452.64" x2="211.89" y2="452.64"/><line class="cls-5" x1="158.98" y1="452.64" x2="158.98" y2="447.54"/><polyline class="cls-5" points="211.89 452.64 211.89 447.54 211.89 394.63"/><path class="cls-5" d="M211.7,422.58a53.11,53.11,0,0,0-53.11,53.11" transform="translate(0 -28.34)"/><path d="M413,108.64l.78,59.58H413Zm.78,0H413l.78,59.58Z" transform="translate(0 -28.34)"/><path class="cls-5" d="M413,108.64l.78,59.58H413Zm.78,0H413l.78,59.58Z" transform="translate(0 -28.34)"/><path d="M413.74,108.64l3.14,59.58h-3.14Zm3.14,0h-3.14l3.14,59.58Z" transform="translate(0 -28.34)"/><path class="cls-5" d="M413.74,108.64l3.14,59.58h-3.14Zm3.14,0h-3.14l3.14,59.58Z" transform="translate(0 -28.34)"/><line class="cls-5" x1="413.74" y1="80.3" x2="413.74" y2="139.87"/><line class="cls-5" x1="412.96" y1="80.3" x2="412.96" y2="139.87"/><polyline class="cls-5" points="412.96 80.3 413.74 80.3 416.88 80.3 416.88 139.87 413.74 139.87 412.96 139.87"/><path d="M434.37,108.64v59.58h0Zm0,0h0v0Z" transform="translate(0 -28.34)"/><path class="cls-5" d="M434.37,108.64v59.58h0Zm0,0h0v0Z" transform="translate(0 -28.34)"/><path d="M430.2,108.64l4.17,59.58H430.2Zm4.17,0H430.2l4.17,59.58Z" transform="translate(0 -28.34)"/><path class="cls-5" d="M430.2,108.64l4.17,59.58H430.2Zm4.17,0H430.2l4.17,59.58Z" transform="translate(0 -28.34)"/><line class="cls-5" x1="434.37" y1="139.87" x2="434.37" y2="80.3"/><line class="cls-5" x1="434.37" y1="139.87" x2="434.37" y2="80.3"/><polyline class="cls-5" points="434.37 139.87 434.37 139.87 430.2 139.87 430.2 80.3 434.37 80.3 434.37 80.3"/><path d="M.25,481h0Z" transform="translate(0 -28.34)"/><path class="cls-5" d="M.25,481h0Z" transform="translate(0 -28.34)"/><path d="M13.18,593.46H.25V481Zm0,0Z" transform="translate(0 -28.34)"/><path class="cls-5" d="M13.18,593.46H.25V481Zm0,0Z" transform="translate(0 -28.34)"/><polygon points="0.25 452.64 13.18 452.64 13.18 565.12 0.25 452.64"/><polygon class="cls-5" points="0.25 452.64 13.18 452.64 13.18 565.12 0.25 452.64"/><line class="cls-5" x1="13.18" y1="565.12" x2="13.18" y2="531.02"/><line class="cls-5" x1="13.18" y1="525.54" x2="13.18" y2="492.61"/><polyline class="cls-5" points="13.18 487.13 13.18 452.64 0.25 452.64 0.25 578.45 13.18 565.12"/><path d="M416.88,481h0Z" transform="translate(0 -28.34)"/><path class="cls-5" d="M416.88,481h0Z" transform="translate(0 -28.34)"/><path d="M416.88,481,430.2,593.46H416.88Zm13.32,0H416.88L430.2,593.46Z" transform="translate(0 -28.34)"/><path class="cls-5" d="M416.88,481,430.2,593.46H416.88Zm13.32,0H416.88L430.2,593.46Z" transform="translate(0 -28.34)"/><polyline class="cls-5" points="430.2 578.45 430.2 452.64 416.88 452.64 416.88 565.12 430.2 565.12"/><path d="M416.88,192.12h0Z" transform="translate(0 -28.34)"/><path class="cls-5" d="M416.88,192.12h0Z" transform="translate(0 -28.34)"/><path d="M430.2,415.13H416.88v-223Zm0,0Z" transform="translate(0 -28.34)"/><path class="cls-5" d="M430.2,415.13H416.88v-223Zm0,0Z" transform="translate(0 -28.34)"/><polygon points="416.88 163.78 430.2 163.78 430.2 386.79 416.88 163.78"/><polygon class="cls-5" points="416.88 163.78 430.2 163.78 430.2 386.79 416.88 163.78"/><polyline class="cls-5" points="430.2 386.79 430.2 163.78 416.88 163.78 416.88 386.79 430.2 386.79"/><path d="M.25,415.13h0Z" transform="translate(0 -28.34)"/><path class="cls-5" d="M.25,415.13h0Z" transform="translate(0 -28.34)"/><path d="M13.18,481H.25V415.13Zm0,0Z" transform="translate(0 -28.34)"/><path class="cls-5" d="M13.18,481H.25V415.13Zm0,0Z" transform="translate(0 -28.34)"/><polygon points="0.25 386.79 13.18 386.79 13.18 452.64 0.25 386.79"/><polygon class="cls-5" points="0.25 386.79 13.18 386.79 13.18 452.64 0.25 386.79"/><polyline class="cls-5" points="13.18 452.64 13.18 386.79 0.25 386.79 0.25 452.64"/><path d="M217,593.46l8.23,13.33H204.06Zm8.23,0H217l8.23,13.33Z" transform="translate(0 -28.34)"/><path class="cls-5" d="M217,593.46l8.23,13.33H204.06Zm8.23,0H217l8.23,13.33Z" transform="translate(0 -28.34)"/><path d="M291.07,593.46h0Z" transform="translate(0 -28.34)"/><path class="cls-5" d="M291.07,593.46h0Z" transform="translate(0 -28.34)"/><path d="M416.88,606.79H291.07V593.46Zm0,0Z" transform="translate(0 -28.34)"/><path class="cls-5" d="M416.88,606.79H291.07V593.46Zm0,0Z" transform="translate(0 -28.34)"/><polygon points="291.06 565.12 416.88 565.12 416.88 578.45 291.06 565.12"/><polygon class="cls-5" points="291.06 565.12 416.88 565.12 416.88 578.45 291.06 565.12"/><line class="cls-5" x1="291.07" y1="578.45" x2="291.07" y2="565.12"/><polyline class="cls-5" points="204.06 578.45 225.22 578.45 225.22 565.12"/><polyline class="cls-5" points="291.06 578.45 416.88 578.45 416.88 565.12 291.06 565.12"/><line class="cls-5" x1="225.22" y1="565.12" x2="216.99" y2="565.12"/><path class="cls-5" d="M288.52,532.32a61,61,0,0,0-60.95,60.95" transform="translate(0 -28.34)"/><path d="M225.22,593.46l2.35,13.33h-2.35Zm2.35,0h-2.35l2.35,13.33Z" transform="translate(0 -28.34)"/><path class="cls-5" d="M225.22,593.46l2.35,13.33h-2.35Zm2.35,0h-2.35l2.35,13.33Z" transform="translate(0 -28.34)"/><path d="M288.71,593.46l2.36,13.33h-2.36Zm2.36,0h-2.36l2.36,13.33Z" transform="translate(0 -28.34)"/><path class="cls-5" d="M288.71,593.46l2.36,13.33h-2.36Zm2.36,0h-2.36l2.36,13.33Z" transform="translate(0 -28.34)"/><polyline class="cls-5" points="225.22 578.45 227.57 578.45 227.57 565.12 225.22 565.12 225.22 578.45"/><polyline class="cls-5" points="291.06 565.12 288.71 565.12 288.71 578.45 291.06 578.45 291.06 565.12"/><line class="cls-5" x1="288.71" y1="565.12" x2="288.71" y2="504.37"/><line class="cls-5" x1="225.22" y1="578.45" x2="225.22" y2="565.12"/><line class="cls-5" x1="291.07" y1="578.45" x2="291.07" y2="565.12"/><path d="M.25,180h0Z" transform="translate(0 -28.34)"/><path class="cls-5" d="M.25,180h0Z" transform="translate(0 -28.34)"/><path d="M13.18,415.13H.25V180Zm0,0Z" transform="translate(0 -28.34)"/><path class="cls-5" d="M13.18,415.13H.25V180Zm0,0Z" transform="translate(0 -28.34)"/><polygon points="0.25 151.63 13.18 151.63 13.18 386.79 0.25 151.63"/><polygon class="cls-5" points="0.25 151.63 13.18 151.63 13.18 386.79 0.25 151.63"/><polyline class="cls-5" points="13.18 386.79 13.18 151.63 0.25 151.63 0.25 386.79 13.18 386.79"/><polyline class="cls-5" points="409.43 39.15 407.86 41.11 407.86 79.12 409.43 79.12 409.43 39.15"/><line class="cls-5" x1="408.65" y1="40.32" x2="408.65" y2="79.12"/><polyline class="cls-5" points="329.47 39.15 331.04 41.11 407.86 41.11 409.43 39.15 329.47 39.15"/><line class="cls-5" x1="330.26" y1="40.32" x2="408.65" y2="40.32"/><polyline class="cls-5" points="331.04 41.11 331.04 79.12 329.47 79.12 329.47 39.15 331.04 41.11"/><line class="cls-5" x1="330.26" y1="40.32" x2="330.26" y2="79.12"/><polyline class="cls-5" points="184.07 565.12 204.06 565.12 204.06 575.31"/><polyline class="cls-5" points="13.18 447.54 13.18 487.13 53.16 487.13 53.16 447.54 33.17 447.54 13.18 447.54"/><polyline class="cls-5" points="15.93 450.29 15.93 484.38 50.42 484.38 50.42 450.29 33.17 450.29 15.93 450.29"/><line class="cls-5" x1="146.83" y1="353.48" x2="145.33" y2="353.48"/><line class="cls-6" x1="142.29" y1="353.48" x2="16.2" y2="353.48"/><line class="cls-5" x1="14.68" y1="353.48" x2="13.18" y2="353.48"/><line class="cls-5" x1="6.91" y1="353.48" x2="6.91" y2="353.48"/><line class="cls-5" x1="146.83" y1="447.54" x2="146.83" y2="447.54"/><line class="cls-5" x1="146.83" y1="448.47" x2="146.83" y2="446.97"/><line class="cls-7" x1="146.83" y1="444" x2="146.83" y2="356.46"/><line class="cls-5" x1="146.83" y1="354.98" x2="146.83" y2="353.48"/><line class="cls-5" x1="148.79" y1="447.54" x2="13.18" y2="447.54"/><line class="cls-5" x1="44.93" y1="578.45" x2="204.06" y2="578.45"/><path d="M416.88,415.13h0Z" transform="translate(0 -28.34)"/><path class="cls-5" d="M416.88,415.13h0Z" transform="translate(0 -28.34)"/><path d="M430.2,481H416.88V415.13Zm0,0Z" transform="translate(0 -28.34)"/><path class="cls-5" d="M430.2,481H416.88V415.13Zm0,0Z" transform="translate(0 -28.34)"/><polygon points="416.88 386.79 430.2 386.79 430.2 452.64 416.88 386.79"/><polygon class="cls-5" points="416.88 386.79 430.2 386.79 430.2 452.64 416.88 386.79"/><polyline class="cls-5" points="430.2 452.64 430.2 386.79 416.88 386.79 416.88 452.64 430.2 452.64"/><path d="M.25,120.4h0Z" transform="translate(0 -28.34)"/><path class="cls-5" d="M.25,120.4h0Z" transform="translate(0 -28.34)"/><path d="M13.18,180H.25V120.4Zm0,0Z" transform="translate(0 -28.34)"/><path class="cls-5" d="M13.18,180H.25V120.4Zm0,0Z" transform="translate(0 -28.34)"/><polygon points="0.25 92.06 13.18 92.06 13.18 151.63 0.25 92.06"/><polygon class="cls-5" points="0.25 92.06 13.18 92.06 13.18 151.63 0.25 92.06"/><polyline class="cls-5" points="13.18 151.63 13.18 92.06 0.25 79.12 0.25 151.63 13.18 151.63"/><polyline points="0.25 565.12 13.18 565.12 0.25 565.12"/><polyline class="cls-5" points="0.25 565.12 13.18 565.12 0.25 565.12"/><polyline points="0.25 565.12 13.18 578.45 0.25 578.45"/><polyline points="0.25 578.45 13.18 578.45 13.18 578.45 0.25 578.45"/><polyline class="cls-5" points="0.25 565.12 13.18 578.45 0.25 578.45"/><polyline class="cls-5" points="0.25 578.45 13.18 578.45 13.18 578.45 0.25 578.45"/><polyline points="0.25 565.12 13.18 565.12 13.18 578.45 0.25 565.12"/><polyline class="cls-5" points="0.25 565.12 13.18 565.12 13.18 578.45 0.25 565.12"/><polyline class="cls-5" points="0.25 578.45 13.18 578.45 13.18 565.12 0.25 565.12"/><path d="M222.87,415.13,236.19,481H222.87Zm13.32,0H222.87L236.19,481Z" transform="translate(0 -28.34)"/><path class="cls-5" d="M222.87,415.13,236.19,481H222.87Zm13.32,0H222.87L236.19,481Z" transform="translate(0 -28.34)"/><polyline class="cls-5" points="222.87 386.79 222.87 452.64 236.19 452.64 236.19 386.79 222.87 386.79"/><path d="M430.2,168.22H416.88V114.13Zm0,0Z" transform="translate(0 -28.34)"/><path class="cls-5" d="M430.2,168.22H416.88V114.13Zm0,0Z" transform="translate(0 -28.34)"/><polygon points="416.88 85.79 430.2 85.79 430.2 139.87 416.88 85.79"/><polygon class="cls-5" points="416.88 85.79 430.2 85.79 430.2 139.87 416.88 85.79"/><polyline class="cls-5" points="416.88 85.79 416.88 139.87 430.2 139.87 430.2 85.79 416.88 85.79"/><path d="M44.93,580.53l159.13,12.93H39.84Zm172.06,0H44.93l159.13,12.93Z" transform="translate(0 -28.34)"/><path class="cls-5" d="M44.93,580.53l159.13,12.93H39.84Zm172.06,0H44.93l159.13,12.93Z" transform="translate(0 -28.34)"/><line class="cls-5" x1="216.99" y1="552.19" x2="152.32" y2="552.19"/><line class="cls-5" x1="146.83" y1="552.19" x2="44.93" y2="552.19"/><line class="cls-5" x1="39.84" y1="565.12" x2="204.06" y2="565.12"/></svg>