<svg id="_161" data-name="161" xmlns="http://www.w3.org/2000/svg" viewBox="0 0 489.6 243.01"><defs><style>.cls-1,.cls-4,.cls-7{fill:none;}.cls-1{stroke:#969696;stroke-miterlimit:10;}.cls-2{isolation:isolate;font-size:12px;fill:#969696;}.cls-2,.cls-5,.cls-6{font-family:PTSans-Regular, PT Sans;}.cls-3{letter-spacing:-0.01em;}.cls-4{stroke:#000;}.cls-4,.cls-7{stroke-linecap:round;stroke-linejoin:round;stroke-width:0.5px;}.cls-5,.cls-6{font-size:17px;}.cls-6{fill:#181716;}.cls-7{stroke:#181716;}</style></defs><title>9floor_161flat</title><line class="cls-1" x1="212.4" y1="240.47" x2="212.4" y2="231.67"/><polyline class="cls-1" points="215.8 237.17 212.3 240.67 208.8 237.17"/><text class="cls-2" transform="translate(221.63 240.07)">двор</text><line class="cls-1" x1="487.06" y1="122.71" x2="478.26" y2="122.71"/><polyline class="cls-1" points="483.76 119.31 487.26 122.81 483.76 126.31"/><text class="cls-2" transform="translate(486.66 113.48) rotate(-90)"><tspan class="cls-3">у</tspan><tspan x="5.42" y="0">лица</tspan></text><polyline class="cls-4" points="98.19 78.16 201.82 78.16 201.82 9.9 178.33 9.9 98.19 9.9 98.19 78.16"/><polyline class="cls-4" points="7.92 78.16 94.23 78.16 94.23 9.9 7.92 9.9 7.92 78.16"/><polyline class="cls-4" points="394.24 9.9 228.53 9.9 228.53 192.18 430.11 192.18 430.11 9.9 394.24 9.9"/><polyline class="cls-4" points="7.92 192.18 224.82 192.18 224.82 81.87 7.92 81.87 7.92 192.18"/><polyline class="cls-4" points="119.71 0.25 178.33 0.25 186.98 0.25"/><line class="cls-4" x1="37.6" y1="0.25" x2="102.89" y2="0.25"/><path d="M449.89,205.28"/><path class="cls-4" d="M449.89,205.28"/><path d="M455.58,209h-5.69v-3.71Zm0,0Zm-5.69-3.71,5.69,3.71Z"/><path class="cls-4" d="M455.58,209h-5.69v-3.71Zm0,0Zm-5.69-3.71,5.69,3.71Z"/><polygon points="449.4 205.04 449.89 205.28 449.4 205.28 449.4 205.04"/><polygon class="cls-4" points="449.4 205.04 449.89 205.28 449.4 205.28 449.4 205.04"/><path d="M449.4,205.28l.49,3.71h-.49Zm.49,0h-.49l.49,3.71Z"/><path class="cls-4" d="M449.4,205.28l.49,3.71h-.49Zm.49,0h-.49l.49,3.71Z"/><path d="M442.22,204.3h0Z"/><path class="cls-4" d="M442.22,204.3h0Z"/><path d="M442.22,204.3l7.18.74h-7.18Zm6.19,0h-6.19l7.18.74Z"/><path class="cls-4" d="M442.22,204.3l7.18.74h-7.18Zm6.19,0h-6.19l7.18.74Z"/><path d="M449.4,209h-7.18v-4Zm0,0Z"/><path class="cls-4" d="M449.4,209h-7.18v-4Zm0,0Z"/><polygon points="442.22 205.04 449.4 205.04 449.4 208.99 442.22 205.04"/><polygon class="cls-4" points="442.22 205.04 449.4 205.04 449.4 208.99 442.22 205.04"/><path d="M7.92,204.3h0Z"/><path class="cls-4" d="M7.92,204.3h0Z"/><path d="M34.88,209h-27V204.3Zm0,0Z"/><path class="cls-4" d="M34.88,209h-27V204.3Zm0,0Z"/><polygon points="7.92 204.29 34.88 204.29 34.88 208.99 7.92 204.29"/><polygon class="cls-4" points="7.92 204.29 34.88 204.29 34.88 208.99 7.92 204.29"/><path d="M78.9,204.3,240.16,209H78.9Zm161.26,0H78.9L240.16,209Z"/><path class="cls-4" d="M78.9,204.3,240.16,209H78.9Zm161.26,0H78.9L240.16,209Z"/><path d="M284.43,204.3,442.22,209H284.43Zm157.79,0H284.43L442.22,209Z"/><path class="cls-4" d="M284.43,204.3,442.22,209H284.43Zm157.79,0H284.43L442.22,209Z"/><path d="M442.22,200.09"/><path class="cls-4" d="M442.22,200.09"/><path d="M448.41,204.3h-6.19v-4.21Zm0,0Zm-6.19-4.21,6.19,4.21Z"/><path class="cls-4" d="M448.41,204.3h-6.19v-4.21Zm0,0Zm-6.19-4.21,6.19,4.21Z"/><polygon points="430.11 192.18 442.22 200.09 430.11 200.09 430.11 192.18"/><polygon class="cls-4" points="430.11 192.18 442.22 200.09 430.11 200.09 430.11 192.18"/><path d="M442.22,204.3H430.11v-4.21Zm0,0Z"/><path class="cls-4" d="M442.22,204.3H430.11v-4.21Zm0,0Z"/><polygon points="430.11 200.09 442.22 200.09 442.22 204.29 430.11 200.09"/><polygon class="cls-4" points="430.11 200.09 442.22 200.09 442.22 204.29 430.11 200.09"/><path d="M7.92,192.18h0Z"/><path class="cls-4" d="M7.92,192.18h0Z"/><path d="M7.92,192.18l25,9.64h-25Zm25,0h-25l25,9.64Z"/><path class="cls-4" d="M7.92,192.18l25,9.64h-25Zm25,0h-25l25,9.64Z"/><path d="M32.9,204.3h-25v-2.48Zm0,0Z"/><path class="cls-4" d="M32.9,204.3h-25v-2.48Zm0,0Z"/><polygon points="7.92 201.82 32.9 201.82 32.9 204.29 7.92 201.82"/><polygon class="cls-4" points="7.92 201.82 32.9 201.82 32.9 204.29 7.92 201.82"/><path d="M80.88,192.18l157.3,9.64H80.88Zm157.3,0H80.88l157.3,9.64Z"/><path class="cls-4" d="M80.88,192.18l157.3,9.64H80.88Zm157.3,0H80.88l157.3,9.64Z"/><path d="M80.88,201.82l157.3,2.48H80.88Zm157.3,0H80.88l157.3,2.48Z"/><path class="cls-4" d="M80.88,201.82l157.3,2.48H80.88Zm157.3,0H80.88l157.3,2.48Z"/><path d="M286.16,192.18l144,9.64H286.16Zm144,0H286.16l144,9.64Z"/><path class="cls-4" d="M286.16,192.18l144,9.64H286.16Zm144,0H286.16l144,9.64Z"/><path d="M286.16,201.82l144,2.48H286.16Zm144,0H286.16l144,2.48Z"/><path class="cls-4" d="M286.16,201.82l144,2.48H286.16Zm144,0H286.16l144,2.48Z"/><line class="cls-4" x1="449.89" y1="205.28" x2="449.89" y2="208.99"/><line class="cls-4" x1="449.4" y1="205.04" x2="449.4" y2="208.99"/><line class="cls-4" x1="430.11" y1="204.3" x2="442.22" y2="204.3"/><line class="cls-4" x1="7.92" y1="204.3" x2="32.9" y2="204.3"/><line class="cls-4" x1="286.16" y1="204.3" x2="430.11" y2="204.3"/><line class="cls-4" x1="80.88" y1="204.3" x2="238.18" y2="204.3"/><line class="cls-4" x1="32.9" y1="201.82" x2="32.9" y2="192.18"/><polyline class="cls-4" points="34.88 208.99 34.88 204.29 32.9 204.29 32.9 201.82"/><line class="cls-4" x1="80.88" y1="201.82" x2="80.88" y2="192.18"/><polyline class="cls-4" points="78.9 208.99 78.9 204.29 80.88 204.29 80.88 201.82"/><line class="cls-4" x1="238.18" y1="201.82" x2="238.18" y2="192.18"/><polyline class="cls-4" points="240.16 208.99 240.16 204.29 238.18 204.29 238.18 201.82"/><line class="cls-4" x1="286.16" y1="201.82" x2="286.16" y2="192.18"/><polyline class="cls-4" points="284.43 208.99 284.43 204.29 286.16 204.29 286.16 201.82"/><line class="cls-4" x1="430.11" y1="192.18" x2="286.16" y2="192.18"/><line class="cls-4" x1="238.18" y1="192.18" x2="80.88" y2="192.18"/><polyline class="cls-4" points="32.9 192.18 7.92 192.18 7.92 204.29"/><line class="cls-4" x1="7.92" y1="208.99" x2="34.88" y2="208.99"/><line class="cls-4" x1="78.9" y1="208.99" x2="240.16" y2="208.99"/><polyline class="cls-4" points="455.58 208.99 449.89 208.99 449.4 208.99 442.22 208.99 284.43 208.99"/><line class="cls-4" x1="78.9" y1="208.99" x2="34.88" y2="208.99"/><line class="cls-4" x1="80.88" y1="192.18" x2="32.9" y2="192.18"/><path d="M76.92,201.82h0Z"/><path class="cls-4" d="M76.92,201.82h0Z"/><path d="M80.88,204.3h-4v-2.48Zm0,0Z"/><path class="cls-4" d="M80.88,204.3h-4v-2.48Zm0,0Z"/><polygon points="76.92 201.82 80.88 201.82 80.88 204.29 76.92 201.82"/><polygon class="cls-4" points="76.92 201.82 80.88 201.82 80.88 204.29 76.92 201.82"/><path d="M32.9,201.82h0Z"/><path class="cls-4" d="M32.9,201.82h0Z"/><path d="M36.61,204.3H32.9v-2.48Zm0,0Z"/><path class="cls-4" d="M36.61,204.3H32.9v-2.48Zm0,0Z"/><polygon points="32.9 201.82 36.61 201.82 36.61 204.29 32.9 201.82"/><polygon class="cls-4" points="32.9 201.82 36.61 201.82 36.61 204.29 32.9 201.82"/><polyline class="cls-4" points="80.88 204.29 76.92 204.29 76.92 201.82 80.88 201.82"/><polyline class="cls-4" points="32.9 201.82 36.61 201.82 36.61 204.29 32.9 204.29"/><line class="cls-4" x1="76.92" y1="204.3" x2="36.61" y2="204.3"/><line class="cls-4" x1="36.61" y1="201.82" x2="76.92" y2="201.82"/><polyline class="cls-4" points="78.9 204.29 80.88 204.29 80.88 201.82"/><polyline class="cls-4" points="34.88 204.29 32.9 204.29 32.9 201.82"/><line class="cls-4" x1="284.43" y1="208.99" x2="240.16" y2="208.99"/><line class="cls-4" x1="286.16" y1="192.18" x2="238.18" y2="192.18"/><path d="M282.45,201.82h0Z"/><path class="cls-4" d="M282.45,201.82h0Z"/><path d="M286.16,204.3h-3.71v-2.48Zm0,0Z"/><path class="cls-4" d="M286.16,204.3h-3.71v-2.48Zm0,0Z"/><polygon points="282.45 201.82 286.16 201.82 286.16 204.29 282.45 201.82"/><polygon class="cls-4" points="282.45 201.82 286.16 201.82 286.16 204.29 282.45 201.82"/><path d="M238.18,201.82h0Z"/><path class="cls-4" d="M238.18,201.82h0Z"/><path d="M242.14,204.3h-4v-2.48Zm0,0Z"/><path class="cls-4" d="M242.14,204.3h-4v-2.48Zm0,0Z"/><polygon points="238.18 201.82 242.14 201.82 242.14 204.29 238.18 201.82"/><polygon class="cls-4" points="238.18 201.82 242.14 201.82 242.14 204.29 238.18 201.82"/><polyline class="cls-4" points="286.16 204.29 282.45 204.29 282.45 201.82 286.16 201.82"/><polyline class="cls-4" points="238.18 201.82 242.14 201.82 242.14 204.29 238.18 204.29"/><line class="cls-4" x1="282.45" y1="204.3" x2="242.14" y2="204.3"/><line class="cls-4" x1="242.14" y1="201.82" x2="282.45" y2="201.82"/><polyline class="cls-4" points="284.43 204.29 286.16 204.29 286.16 201.82"/><polyline class="cls-4" points="240.16 204.29 238.18 204.29 238.18 201.82"/><polyline points="0.25 201.82 7.92 201.82 0.25 201.82"/><polyline class="cls-4" points="0.25 201.82 7.92 201.82 0.25 201.82"/><polyline points="0.25 201.82 7.92 208.99 0.25 208.99"/><polyline points="0.25 208.99 7.92 208.99 7.92 208.99 0.25 208.99"/><polyline class="cls-4" points="0.25 201.82 7.92 208.99 0.25 208.99"/><polyline class="cls-4" points="0.25 208.99 7.92 208.99 7.92 208.99 0.25 208.99"/><polyline points="0.25 201.82 7.92 201.82 7.92 208.99 0.25 201.82"/><polyline class="cls-4" points="0.25 201.82 7.92 201.82 7.92 208.99 0.25 201.82"/><polyline points="0.25 192.18 7.92 192.18 0.25 192.18"/><polyline class="cls-4" points="0.25 192.18 7.92 192.18 0.25 192.18"/><polyline points="0.25 192.18 7.92 201.82 0.25 201.82"/><polyline points="0.25 201.82 7.92 201.82 7.92 201.82 0.25 201.82"/><polyline class="cls-4" points="0.25 192.18 7.92 201.82 0.25 201.82"/><polyline class="cls-4" points="0.25 201.82 7.92 201.82 7.92 201.82 0.25 201.82"/><polyline points="0.25 192.18 7.92 192.18 7.92 201.82 0.25 192.18"/><polyline class="cls-4" points="0.25 192.18 7.92 192.18 7.92 201.82 0.25 192.18"/><line class="cls-4" x1="0.25" y1="201.82" x2="7.92" y2="201.82"/><line class="cls-4" x1="0.25" y1="192.18" x2="0.25" y2="192.18"/><line class="cls-4" x1="0.25" y1="208.99" x2="7.92" y2="208.99"/><line class="cls-4" x1="7.92" y1="204.3" x2="7.92" y2="192.18"/><path d="M449.89,172.14l5.69,2h-5.69Zm5.69,0h-5.69l5.69,2Z"/><path class="cls-4" d="M449.89,172.14l5.69,2h-5.69Zm5.69,0h-5.69l5.69,2Z"/><path d="M449.89,205.28h5.69V209Zm0-31.16v31.16h5.69Z"/><path class="cls-4" d="M449.89,205.28h5.69V209Zm0-31.16v31.16h5.69Z"/><polygon points="449.89 174.12 455.58 174.12 455.58 205.28 449.89 174.12"/><polygon class="cls-4" points="449.89 174.12 455.58 174.12 455.58 205.28 449.89 174.12"/><path d="M449.89.25,455.58,45h-5.69Zm5.69,0h-5.69L455.58,45Z"/><path class="cls-4" d="M449.89.25,455.58,45h-5.69Zm5.69,0h-5.69L455.58,45Z"/><path d="M449.89,45l5.69,2h-5.69Zm5.69,0h-5.69l5.69,2Z"/><path class="cls-4" d="M449.89,45l5.69,2h-5.69Zm5.69,0h-5.69l5.69,2Z"/><path d="M449.4,205h.49v.24Zm0-30.92V205h.49Z"/><path class="cls-4" d="M449.4,205h.49v.24Zm0-30.92V205h.49Z"/><polygon points="449.4 174.12 449.89 174.12 449.89 205.04 449.4 174.12"/><polygon class="cls-4" points="449.4 174.12 449.89 174.12 449.89 205.04 449.4 174.12"/><path d="M449.4.25,449.89,45h-.49Zm.49,0h-.49L449.89,45Z"/><path class="cls-4" d="M449.4.25,449.89,45h-.49Zm.49,0h-.49L449.89,45Z"/><path d="M449.4,174.12h0Zm0,0Z"/><path class="cls-4" d="M449.4,174.12h0Zm0,0Z"/><path d="M442.22,200.09h7.18V205Zm0-26v26h7.18Z"/><path class="cls-4" d="M442.22,200.09h7.18V205Zm0-26v26h7.18Z"/><polygon points="442.22 174.12 449.4 174.12 449.4 200.09 442.22 174.12"/><polygon class="cls-4" points="442.22 174.12 449.4 174.12 449.4 200.09 442.22 174.12"/><path d="M442.22.25,449.4,45h-7.18Zm7.18,0h-7.18L449.4,45Z"/><path class="cls-4" d="M442.22.25,449.4,45h-7.18Zm7.18,0h-7.18L449.4,45Z"/><path d="M430.11.25,442.22,9.9H430.11Zm12.11,0H430.11L442.22,9.9Z"/><path class="cls-4" d="M430.11.25,442.22,9.9H430.11Zm12.11,0H430.11L442.22,9.9Z"/><path d="M430.11,174.12l12.11,18.06H430.11Zm12.11,0H430.11l12.11,18.06Z"/><path class="cls-4" d="M430.11,174.12l12.11,18.06H430.11Zm12.11,0H430.11l12.11,18.06Z"/><path d="M442.22,45H430.11V9.9Zm0,0Z"/><path class="cls-4" d="M442.22,45H430.11V9.9Zm0,0Z"/><polygon points="430.11 9.9 442.22 9.9 442.22 45.02 430.11 9.9"/><polygon class="cls-4" points="430.11 9.9 442.22 9.9 442.22 45.02 430.11 9.9"/><path d="M442.22,192.18H430.11l12.11,7.91Zm0,0Z"/><path class="cls-4" d="M442.22,192.18H430.11l12.11,7.91Zm0,0Z"/><line class="cls-4" x1="449.89" y1="45.02" x2="449.89" y2="0.25"/><line class="cls-4" x1="449.89" y1="205.28" x2="449.89" y2="174.12"/><line class="cls-4" x1="449.4" y1="45.02" x2="449.4" y2="0.25"/><line class="cls-4" x1="449.4" y1="205.04" x2="449.4" y2="174.12"/><line class="cls-4" x1="430.11" y1="9.9" x2="442.22" y2="9.9"/><line class="cls-4" x1="442.22" y1="0.25" x2="430.11" y2="0.25"/><polyline class="cls-4" points="449.89 0.25 449.4 0.25 447.42 0.25"/><polyline class="cls-4" points="447.42 174.12 442.22 174.12 430.11 174.12"/><polyline class="cls-4" points="455.58 172.14 449.89 172.14 449.89 174.12"/><polyline class="cls-4" points="449.89 174.12 449.4 174.12 447.42 174.12"/><polyline class="cls-4" points="447.42 45.02 442.22 45.02 430.11 45.02"/><polyline class="cls-4" points="455.58 46.99 449.89 46.99 449.89 45.02"/><polyline class="cls-4" points="449.89 45.02 449.4 45.02 447.42 45.02"/><line class="cls-4" x1="455.58" y1="208.99" x2="455.58" y2="172.14"/><line class="cls-4" x1="430.11" y1="9.9" x2="430.11" y2="45.02"/><line class="cls-4" x1="430.11" y1="174.12" x2="430.11" y2="192.18"/><polygon points="449.89 0.25 449.89 0.25 447.42 0.25 449.89 0.25"/><polygon class="cls-4" points="449.89 0.25 449.89 0.25 447.42 0.25 449.89 0.25"/><line class="cls-4" x1="455.58" y1="46.99" x2="455.58" y2="172.14"/><line class="cls-4" x1="430.11" y1="45.02" x2="430.11" y2="174.12"/><path d="M447.42,45h0Z"/><path class="cls-4" d="M447.42,45h0Z"/><path d="M449.89,50.7h-2.47V45Zm0,0Z"/><path class="cls-4" d="M449.89,50.7h-2.47V45Zm0,0Z"/><polygon points="447.42 45.02 449.89 45.02 449.89 50.7 447.42 45.02"/><polygon class="cls-4" points="447.42 45.02 449.89 45.02 449.89 50.7 447.42 45.02"/><path d="M447.42,87.31h0Z"/><path class="cls-4" d="M447.42,87.31h0Z"/><path d="M449.89,89.29h-2.47v-2Zm0,0Z"/><path class="cls-4" d="M449.89,89.29h-2.47v-2Zm0,0Z"/><polygon points="447.42 87.31 449.89 87.31 449.89 89.29 447.42 87.31"/><polygon class="cls-4" points="447.42 87.31 449.89 87.31 449.89 89.29 447.42 87.31"/><path d="M447.42,89.29h0Z"/><path class="cls-4" d="M447.42,89.29h0Z"/><path d="M449.89,91.27h-2.47v-2Zm0,0Z"/><path class="cls-4" d="M449.89,91.27h-2.47v-2Zm0,0Z"/><polygon points="447.42 89.29 449.89 89.29 449.89 91.27 447.42 89.29"/><polygon class="cls-4" points="447.42 89.29 449.89 89.29 449.89 91.27 447.42 89.29"/><path d="M447.42,127.87h0Z"/><path class="cls-4" d="M447.42,127.87h0Z"/><path d="M449.89,129.85h-2.47v-2Zm0,0Z"/><path class="cls-4" d="M449.89,129.85h-2.47v-2Zm0,0Z"/><polygon points="447.42 127.87 449.89 127.87 449.89 129.85 447.42 127.87"/><polygon class="cls-4" points="447.42 127.87 449.89 127.87 449.89 129.85 447.42 127.87"/><path d="M447.42,129.85h0Z"/><path class="cls-4" d="M447.42,129.85h0Z"/><path d="M449.89,131.58h-2.47v-1.73Zm0,0Z"/><path class="cls-4" d="M449.89,131.58h-2.47v-1.73Zm0,0Z"/><polygon points="447.42 129.85 449.89 129.85 449.89 131.58 447.42 129.85"/><polygon class="cls-4" points="447.42 129.85 449.89 129.85 449.89 131.58 447.42 129.85"/><path d="M447.42,168.19h0Z"/><path class="cls-4" d="M447.42,168.19h0Z"/><path d="M449.89,174.12h-2.47v-5.93Zm0,0Z"/><path class="cls-4" d="M449.89,174.12h-2.47v-5.93Zm0,0Z"/><polygon points="447.42 168.19 449.89 168.19 449.89 174.12 447.42 168.19"/><polygon class="cls-4" points="447.42 168.19 449.89 168.19 449.89 174.12 447.42 168.19"/><polyline class="cls-4" points="447.42 45.02 447.42 50.7 449.89 50.7 449.89 45.02"/><polyline class="cls-4" points="449.89 89.29 449.89 87.31 447.42 87.31 447.42 89.29"/><line class="cls-4" x1="447.42" y1="50.7" x2="447.42" y2="87.31"/><line class="cls-4" x1="449.89" y1="87.31" x2="449.89" y2="50.7"/><polyline class="cls-4" points="447.42 89.29 447.42 91.27 449.89 91.27 449.89 89.29"/><polyline class="cls-4" points="449.89 129.85 449.89 127.87 447.42 127.87 447.42 129.85"/><line class="cls-4" x1="447.42" y1="91.27" x2="447.42" y2="127.87"/><line class="cls-4" x1="449.89" y1="127.87" x2="449.89" y2="91.27"/><polyline class="cls-4" points="447.42 129.85 447.42 131.58 449.89 131.58 449.89 129.85"/><polyline class="cls-4" points="449.89 174.12 449.89 168.19 447.42 168.19 447.42 174.12"/><line class="cls-4" x1="447.42" y1="131.58" x2="447.42" y2="168.19"/><line class="cls-4" x1="449.89" y1="168.19" x2="449.89" y2="131.58"/><polyline class="cls-4" points="449.89 46.99 449.89 45.02 449.4 45.02 447.42 45.02"/><polyline class="cls-4" points="449.89 172.14 449.89 174.12 449.4 174.12 447.42 174.12"/><polyline class="cls-4" points="455.58 208.99 443.71 208.99 436.54 208.99 436.04 208.99 430.11 208.99"/><path d="M224.82,9.9l3.71,96.95h-3.71Zm3.71,0h-3.71l3.71,96.95Z"/><path class="cls-4" d="M224.82,9.9l3.71,96.95h-3.71Zm3.71,0h-3.71l3.71,96.95Z"/><path d="M224.82,163.49l3.71,28.69h-3.71Zm3.71,0h-3.71l3.71,28.69Z"/><path class="cls-4" d="M224.82,163.49l3.71,28.69h-3.71Zm3.71,0h-3.71l3.71,28.69Z"/><line class="cls-4" x1="228.53" y1="163.49" x2="224.82" y2="163.49"/><line class="cls-4" x1="228.53" y1="106.85" x2="224.82" y2="106.85"/><line class="cls-4" x1="224.82" y1="9.9" x2="224.82" y2="33.89"/><line class="cls-4" x1="224.82" y1="37.84" x2="224.82" y2="78.16"/><line class="cls-4" x1="224.82" y1="81.87" x2="224.82" y2="106.85"/><polyline class="cls-4" points="224.82 163.49 224.82 192.18 228.53 192.18 228.53 163.49"/><polyline class="cls-4" points="228.53 106.85 228.53 9.9 224.82 9.9"/><line class="cls-4" x1="230.76" y1="173.13" x2="230.76" y2="144.69"/><line class="cls-4" x1="230.76" y1="97.2" x2="230.76" y2="125.64"/><path d="M86.07,78.16l138.75,3.71H86.07Zm138.75,0H86.07l138.75,3.71Z"/><path class="cls-4" d="M86.07,78.16l138.75,3.71H86.07Zm138.75,0H86.07l138.75,3.71Z"/><path d="M2.23,78.16,43,81.87H2.23Zm40.81,0H2.23L43,81.87Z"/><path class="cls-4" d="M2.23,78.16,43,81.87H2.23Zm40.81,0H2.23L43,81.87Z"/><line class="cls-4" x1="86.07" y1="78.16" x2="86.07" y2="81.87"/><polyline class="cls-4" points="43.04 78.16 43.04 81.87 2.23 81.87"/><line class="cls-4" x1="86.07" y1="81.87" x2="224.82" y2="81.87"/><line class="cls-4" x1="224.82" y1="78.16" x2="205.53" y2="78.16"/><line class="cls-4" x1="201.82" y1="78.16" x2="98.19" y2="78.16"/><line class="cls-4" x1="94.23" y1="78.16" x2="86.07" y2="78.16"/><polyline class="cls-4" points="43.04 78.16 2.23 78.16 2.23 81.87"/><line class="cls-4" x1="86.07" y1="81.87" x2="83.85" y2="81.87"/><line class="cls-4" x1="86.07" y1="78.16" x2="83.85" y2="78.16"/><line class="cls-4" x1="43.04" y1="81.87" x2="45.26" y2="81.87"/><line class="cls-4" x1="43.04" y1="78.16" x2="45.26" y2="78.16"/><line class="cls-4" x1="83.85" y1="78.16" x2="83.85" y2="81.87"/><polyline class="cls-4" points="45.26 78.16 45.26 81.87 45.26 120.2"/><path class="cls-4" d="M45.14,120.2A38.46,38.46,0,0,0,83.6,81.74"/><path d="M94.23,9.9l4,29.92h-4Zm4,0h-4l4,29.92Z"/><path class="cls-4" d="M94.23,9.9l4,29.92h-4Zm4,0h-4l4,29.92Z"/><polyline class="cls-4" points="94.23 9.9 94.23 39.82 98.19 39.82"/><line class="cls-4" x1="94.23" y1="78.16" x2="98.19" y2="78.16"/><polyline class="cls-4" points="98.19 39.82 98.19 9.9 94.23 9.9"/><line class="cls-4" x1="98.19" y1="39.82" x2="98.19" y2="42.05"/><line class="cls-4" x1="94.23" y1="39.82" x2="94.23" y2="42.05"/><line class="cls-4" x1="98.19" y1="78.16" x2="98.19" y2="75.68"/><line class="cls-4" x1="94.23" y1="78.16" x2="94.23" y2="75.68"/><line class="cls-4" x1="94.23" y1="42.05" x2="98.19" y2="42.05"/><polyline class="cls-4" points="94.23 75.69 98.19 75.69 115.01 46.5"/><path class="cls-4" d="M114.82,46.54a33.5,33.5,0,0,0-16.75-4.49"/><path d="M205.53,33.89l19.29,4H205.53Zm19.29,0H205.53l19.29,4Z"/><path class="cls-4" d="M205.53,33.89l19.29,4H205.53Zm19.29,0H205.53l19.29,4Z"/><line class="cls-4" x1="224.82" y1="33.89" x2="205.53" y2="33.89"/><line class="cls-4" x1="205.53" y1="37.84" x2="224.82" y2="37.84"/><path d="M201.82,9.9l3.71,68.26h-3.71Zm3.71,0h-3.71l3.71,68.26Z"/><path class="cls-4" d="M201.82,9.9l3.71,68.26h-3.71Zm3.71,0h-3.71l3.71,68.26Z"/><line class="cls-4" x1="201.82" y1="9.9" x2="201.82" y2="78.16"/><line class="cls-4" x1="205.53" y1="78.16" x2="205.53" y2="37.84"/><polyline class="cls-4" points="205.53 33.89 205.53 9.9 201.82 9.9"/><line x1="37.6" y1="0.25" x2="31.91" y2="0.25"/><path d="M37.6.25"/><line class="cls-4" x1="37.6" y1="0.25" x2="31.91" y2="0.25"/><path class="cls-4" d="M37.6.25"/><path class="cls-4" d="M37.6.25"/><polyline class="cls-4" points="171.15 81.87 199.84 81.87 199.84 110.81 185.5 110.81 171.15 110.81 171.15 81.87"/><polyline class="cls-4" points="172.88 108.83 172.88 83.85 197.87 83.85 197.87 108.83 185.5 108.83 172.88 108.83"/><line class="cls-4" x1="191.93" y1="16.33" x2="191.93" y2="18.8"/><line class="cls-4" x1="192.92" y1="19.79" x2="195.39" y2="19.79"/><line class="cls-4" x1="191.93" y1="20.78" x2="191.93" y2="23.25"/><line class="cls-4" x1="188.47" y1="19.79" x2="190.94" y2="19.79"/><line class="cls-4" x1="165.46" y1="12.62" x2="165.46" y2="22.76"/><line class="cls-4" x1="199.6" y1="22.26" x2="199.6" y2="45.76"/><line class="cls-4" x1="188.96" y1="46.25" x2="199.1" y2="46.25"/><line class="cls-4" x1="165.46" y1="12.62" x2="165.46" y2="22.76"/><line class="cls-4" x1="165.96" y1="12.12" x2="189.46" y2="12.12"/><line class="cls-4" x1="163.49" y1="10.39" x2="163.49" y2="22.76"/><line class="cls-4" x1="201.82" y1="10.39" x2="201.82" y2="47.98"/><line class="cls-4" x1="188.96" y1="48.23" x2="201.33" y2="48.23"/><line class="cls-4" x1="163.73" y1="9.9" x2="201.33" y2="9.9"/><path class="cls-4" d="M190,12a2.19,2.19,0,0,0-.67-.11"/><path class="cls-4" d="M165.84,12.12a.38.38,0,0,0-.38.37"/><path class="cls-4" d="M190,12a2.19,2.19,0,0,0-.67-.11"/><path class="cls-4" d="M163.24,22.63a25.6,25.6,0,0,0,25.6,25.6"/><path class="cls-4" d="M163.61,9.9a.36.36,0,0,0-.37.37"/><path class="cls-4" d="M165.46,22.63A23.38,23.38,0,0,0,188.84,46"/><path class="cls-4" d="M201.2,48.23a.36.36,0,0,0,.37-.37"/><path class="cls-4" d="M199,46a.38.38,0,0,0,.37-.38"/><path class="cls-4" d="M201.57,10.27a.36.36,0,0,0-.37-.37"/><path class="cls-4" d="M199.49,21.73A22.83,22.83,0,0,0,189.74,12"/><path class="cls-4" d="M199.6,22.14a2.19,2.19,0,0,0-.11-.67"/><path class="cls-4" d="M199.32,21.59a15,15,0,0,0-9.44-9.44"/><path class="cls-4" d="M199.6,22.14a2.19,2.19,0,0,0-.11-.67"/><path class="cls-4" d="M193.66,19.67a1.86,1.86,0,1,0-1.85,1.85,1.85,1.85,0,0,0,1.85-1.85"/><path class="cls-4" d="M194.4,19.67a2.6,2.6,0,1,0-2.59,2.59,2.59,2.59,0,0,0,2.59-2.59"/><polyline class="cls-4" points="126.88 38.83 126.88 9.9 98.19 9.9 98.19 38.83 126.88 38.83"/><path class="cls-4" d="M102.89.25"/><line x1="119.71" y1="0.25" x2="110.06" y2="0.25"/><path d="M119.71.25"/><line class="cls-4" x1="119.71" y1="0.25" x2="110.06" y2="0.25"/><path class="cls-4" d="M119.71.25"/><path class="cls-4" d="M110.06.25"/><path class="cls-4" d="M119.71.25"/><path d="M7.92.25h0Z"/><path class="cls-4" d="M7.92.25h0Z"/><path d="M43,9.9H7.92V.25Zm0,0Z"/><path class="cls-4" d="M43,9.9H7.92V.25Zm0,0Z"/><polygon points="7.92 0.25 43.04 0.25 43.04 9.9 7.92 0.25"/><polygon class="cls-4" points="7.92 0.25 43.04 0.25 43.04 9.9 7.92 0.25"/><path d="M91,.25h0Z"/><path class="cls-4" d="M91,.25h0Z"/><path d="M178.33,9.9H91V.25Zm0,0Z"/><path class="cls-4" d="M178.33,9.9H91V.25Zm0,0Z"/><polygon points="91.02 0.25 178.33 0.25 178.33 9.9 91.02 0.25"/><polygon class="cls-4" points="91.02 0.25 178.33 0.25 178.33 9.9 91.02 0.25"/><line class="cls-4" x1="91.02" y1="9.9" x2="91.02" y2="0.25"/><polyline class="cls-4" points="7.92 9.9 43.04 9.9 43.04 0.25"/><polyline class="cls-4" points="91.02 9.9 178.33 9.9 178.33 0.25 119.71 0.25"/><line class="cls-4" x1="110.06" y1="0.25" x2="91.02" y2="0.25"/><polyline class="cls-4" points="43.04 0.25 0.25 0.25 7.92 9.9"/><path class="cls-4" d="M44.77,9.77A44.15,44.15,0,0,0,88.92,53.92"/><path d="M43,.25h0Z"/><path class="cls-4" d="M43,.25h0Z"/><path d="M44.77,9.9H43V.25Zm0,0Z"/><path class="cls-4" d="M44.77,9.9H43V.25Zm0,0Z"/><polygon points="43.04 0.25 44.77 0.25 44.77 9.9 43.04 0.25"/><polygon class="cls-4" points="43.04 0.25 44.77 0.25 44.77 9.9 43.04 0.25"/><path d="M89,.25h0Z"/><path class="cls-4" d="M89,.25h0Z"/><path d="M91,9.9H89V.25Zm0,0Z"/><path class="cls-4" d="M91,9.9H89V.25Zm0,0Z"/><polygon points="89.04 0.25 91.02 0.25 91.02 9.9 89.04 0.25"/><polygon class="cls-4" points="89.04 0.25 91.02 0.25 91.02 9.9 89.04 0.25"/><polyline class="cls-4" points="43.04 0.25 44.77 0.25 44.77 9.9 43.04 9.9 43.04 0.25"/><polyline class="cls-4" points="91.02 9.9 89.04 9.9 89.04 0.25 91.02 0.25 91.02 9.9"/><line class="cls-4" x1="89.04" y1="9.9" x2="89.04" y2="54.17"/><line class="cls-4" x1="43.04" y1="9.9" x2="43.04" y2="0.25"/><line class="cls-4" x1="91.02" y1="9.9" x2="91.02" y2="0.25"/><path d="M394.24.25,430.11,9.9H394.24Zm35.87,0H394.24L430.11,9.9Z"/><path class="cls-4" d="M394.24.25,430.11,9.9H394.24Zm35.87,0H394.24L430.11,9.9Z"/><polyline class="cls-4" points="430.11 0.25 394.24 0.25 394.24 9.9 430.11 9.9"/><path d="M178.33.25l48,9.65h-48Zm48,0h-48l48,9.65Z"/><path class="cls-4" d="M178.33.25l48,9.65h-48Zm48,0h-48l48,9.65Z"/><polyline class="cls-4" points="226.31 0.25 178.33 0.25 178.33 9.9 226.31 9.9 226.31 0.25"/><path d="M226.31.25h0Z"/><path class="cls-4" d="M226.31.25h0Z"/><path d="M394.24,9.9H226.31V.25Zm0,0Z"/><path class="cls-4" d="M394.24,9.9H226.31V.25Zm0,0Z"/><polygon points="226.31 0.25 394.24 0.25 394.24 9.9 226.31 0.25"/><polygon class="cls-4" points="226.31 0.25 394.24 0.25 394.24 9.9 226.31 0.25"/><polyline class="cls-4" points="226.31 9.9 394.24 9.9 394.24 0.25 226.31 0.25 226.31 9.9"/><polyline points="0.25 0.25 7.92 192.18 0.25 192.18 0.25 0.25"/><polygon points="7.92 192.18 7.92 192.18 0.25 192.18 7.92 192.18"/><polyline class="cls-4" points="0.25 0.25 7.92 192.18 0.25 192.18 0.25 0.25"/><polygon class="cls-4" points="7.92 192.18 7.92 192.18 0.25 192.18 7.92 192.18"/><polyline points="7.92 0.25 7.92 192.18 0.25 0.25"/><polyline class="cls-4" points="7.92 0.25 7.92 192.18 0.25 0.25"/><line class="cls-4" x1="0.25" y1="0.25" x2="0.25" y2="208.99"/><line class="cls-4" x1="193.91" y1="54.17" x2="177.34" y2="54.17"/><polyline class="cls-4" points="195.14 53.42 201.33 53.42 201.33 71.23"/><line class="cls-4" x1="191.19" y1="62.33" x2="191.19" y2="68.76"/><polyline class="cls-4" points="177.34 54.17 191.19 55.65 191.19 62.33"/><line class="cls-4" x1="177.34" y1="70.49" x2="191.19" y2="68.76"/><line class="cls-4" x1="177.34" y1="54.41" x2="191.19" y2="56.15"/><line class="cls-4" x1="177.34" y1="70" x2="191.19" y2="68.51"/><line class="cls-4" x1="194.15" y1="70.49" x2="177.34" y2="70.49"/><line class="cls-4" x1="201.33" y1="71.23" x2="195.14" y2="71.23"/><polyline class="cls-4" points="177.34 54.17 175.6 54.41 173.87 54.91 172.14 56.15 170.91 57.63 170.16 59.36 169.67 61.34 169.67 63.32 170.16 65.05 170.91 67.03 172.14 68.27 173.87 69.5 175.6 70.24 177.34 70.49"/><polyline class="cls-4" points="177.34 54.41 175.6 54.66 173.87 55.4 172.64 56.39 171.4 57.88 170.41 59.61 170.16 61.34 170.16 63.07 170.41 65.05 171.4 66.78 172.64 68.02 173.87 69.01 175.6 69.75 177.34 70"/><polyline class="cls-4" points="195.14 53.42 194.9 53.42 194.65 53.42 194.4 53.42 194.4 53.67 194.16 53.67 194.16 53.92 193.91 54.17 193.91 54.41 193.66 62.33 193.91 70.24 193.91 70.49 194.16 70.49 194.16 70.74 194.4 70.99 194.65 70.99 194.9 71.23 195.14 71.23"/><polyline class="cls-4" points="198.11 62.33 198.11 62.08 198.11 61.84 197.87 61.59 197.62 61.59 197.62 61.34 197.37 61.34 197.12 61.34 196.88 61.59 196.63 61.84 196.38 62.08 196.38 62.33 196.38 62.58 196.63 62.58 196.63 62.82 196.88 62.82 196.88 63.07 197.12 63.07 197.37 63.07 197.62 63.07 197.87 63.07 197.87 62.82 198.11 62.82 198.11 62.58 198.11 62.33"/><polyline class="cls-4" points="156.31 19.29 156.31 9.9 135.04 9.9 135.04 19.29"/><line class="cls-4" x1="142.46" y1="9.9" x2="148.89" y2="9.9"/><line class="cls-4" x1="143.95" y1="17.56" x2="144.94" y2="17.56"/><line class="cls-4" x1="145.68" y1="15.58" x2="145.68" y2="16.82"/><line class="cls-4" x1="146.42" y1="17.56" x2="147.41" y2="17.56"/><line class="cls-4" x1="145.68" y1="18.06" x2="145.68" y2="19.29"/><polyline class="cls-4" points="154.83 19.79 154.34 18.55 153.35 17.32 152.36 16.08 151.37 15.34 149.88 14.6 148.65 14.1 147.16 13.85 145.68 13.85"/><polyline class="cls-4" points="145.68 13.85 144.19 13.85 142.71 14.1 141.47 14.6 139.99 15.34 139 16.08 138.01 17.32 137.02 18.55 136.53 19.79"/><polyline class="cls-4" points="146.42 26.71 149.64 26.22 152.85 24.98"/><polyline class="cls-4" points="135.04 19.29 135.29 20.28 135.29 21.27 135.78 22.26 136.28 23.25 137.02 23.99"/><line class="cls-4" x1="144.94" y1="26.71" x2="146.42" y2="26.71"/><polyline class="cls-4" points="151.61 15.58 145.68 15.09 139.74 15.58"/><polyline class="cls-4" points="138.75 11.63 137.27 13.61 136.28 15.83 135.78 18.3 135.78 20.78"/><polyline class="cls-4" points="145.68 10.39 142.71 10.64 139.74 11.13 139.25 11.13 139 11.38 138.75 11.38 138.75 11.63"/><line class="cls-4" x1="145.68" y1="11.38" x2="139.74" y2="11.63"/><polyline class="cls-4" points="139.74 11.63 139.5 11.87 139.25 11.87 138.75 12.12 138.75 12.37 137.27 14.1 136.53 16.33 135.78 18.55 135.78 20.78"/><polyline class="cls-4" points="152.6 11.63 154.09 13.61 154.83 15.83 155.57 18.3 155.57 20.78 155.57 18.55 154.83 16.33 154.09 14.1 152.6 12.37"/><line class="cls-4" x1="151.61" y1="11.63" x2="145.68" y2="11.38"/><polyline class="cls-4" points="151.61 11.13 148.65 10.64 145.68 10.39"/><polyline class="cls-4" points="152.6 12.37 152.36 12.12 152.11 11.87 151.86 11.87 151.61 11.63"/><polyline class="cls-4" points="152.6 11.63 152.36 11.38 151.86 11.13 151.61 11.13"/><polyline class="cls-4" points="152.85 24.98 153.59 24.49 154.34 23.99 154.83 23.25 155.57 22.26 156.07 21.27 156.07 20.28 156.31 19.29"/><polyline class="cls-4" points="137.02 23.99 137.76 24.49 138.51 24.98 141.72 26.22 144.94 26.71"/><polyline class="cls-4" points="142.71 25.23 144.69 25.48 146.67 25.48 148.65 25.23"/><polyline class="cls-4" points="148.65 25.23 150.38 24.73 152.36 23.75 153.84 22.51 154.34 22.26 154.58 21.77 154.83 21.03 154.83 20.53 154.83 19.79"/><polyline class="cls-4" points="136.53 19.79 136.53 20.53 136.53 21.03 136.78 21.77 137.02 22.26 137.52 22.51 139 23.75 140.98 24.73 142.71 25.23"/><polyline class="cls-4" points="145.68 16.08 145.43 16.08 145.18 16.08 144.94 16.33 144.69 16.33 144.44 16.57 144.44 16.82 144.44 17.07 144.19 17.32 144.44 17.56 144.44 17.81 144.44 18.06 144.69 18.3 144.94 18.55 144.94 18.8 145.18 18.8 145.43 18.8 145.93 18.8 146.17 18.8 146.42 18.8 146.42 18.55 146.67 18.3 146.91 18.06 146.91 17.81 146.91 17.56 147.16 17.32 146.91 17.07 146.91 16.82 146.91 16.57 146.67 16.33 146.42 16.33 146.17 16.08 145.93 16.08 145.68 16.08"/><polyline class="cls-4" points="145.68 16.33 145.43 16.33 145.43 16.57 145.18 16.57 144.94 16.82 144.69 17.07 144.69 17.32 144.69 17.56 144.69 17.81 144.94 18.06 145.18 18.3 145.43 18.55 145.68 18.55 145.93 18.55 146.17 18.3 146.42 18.06 146.67 17.81 146.67 17.56 146.67 17.32 146.67 17.07 146.42 16.82 146.17 16.57 145.93 16.57 145.93 16.33 145.68 16.33"/><text class="cls-5" transform="translate(87.8 182.53)">10.40</text><text class="cls-5" transform="translate(305.95 182.53)">15.96</text><text class="cls-5" transform="translate(19.54 61.34)">2.56</text><text class="cls-5" transform="translate(117.24 58.37)">3.07</text><text class="cls-6" transform="translate(321.85 101.36)">1К</text><text class="cls-6" transform="translate(311.32 126.69)">31.99</text><text class="cls-6" transform="translate(309.07 76.41)">№161</text><polyline class="cls-7" points="300.59 133.1 300.59 58.58 362.74 58.58 362.74 133.1"/><line class="cls-7" x1="300.59" y1="83.47" x2="362.74" y2="83.47"/><line class="cls-7" x1="300.59" y1="133.1" x2="362.74" y2="133.1"/><line class="cls-7" x1="300.59" y1="108.36" x2="362.74" y2="108.36"/></svg>