<svg id="_196" data-name="196" xmlns="http://www.w3.org/2000/svg" viewBox="0 0 612.55 443.32"><defs><style>.cls-1{isolation:isolate;font-size:12px;fill:#969696;}.cls-1,.cls-4,.cls-6{font-family:PTSans-Regular, PT Sans;}.cls-2{letter-spacing:-0.01em;}.cls-10,.cls-11,.cls-3,.cls-5,.cls-7,.cls-8,.cls-9{fill:none;stroke-linecap:round;stroke-linejoin:round;}.cls-3{stroke:#969696;}.cls-3,.cls-7{stroke-width:0.75px;}.cls-4{font-size:24px;}.cls-10,.cls-11,.cls-5,.cls-7,.cls-8,.cls-9{stroke:#000;}.cls-5,.cls-8,.cls-9{stroke-width:0.5px;}.cls-6{font-size:20px;}.cls-8{stroke-dasharray:2.92 2.92;}.cls-9{stroke-dasharray:2.93 2.93;}.cls-10{stroke-width:1.2px;}.cls-11{stroke-width:0.35px;}</style></defs><text class="cls-1" transform="translate(10.2 229.62) rotate(-90)"><tspan class="cls-2">у</tspan><tspan x="5.42" y="0">лица</tspan></text><line class="cls-3" x1="4.22" y1="240.38" x2="13.02" y2="240.38"/><polyline class="cls-3" points="7.72 236.88 4.22 240.38 7.72 243.88"/><text class="cls-4" transform="translate(274.39 337.82)">1K</text><text class="cls-4" transform="translate(259.52 368.11)">41.50</text><text class="cls-4" transform="translate(256.35 307.69)">№196</text><polyline class="cls-5" points="250.72 374.64 250.72 284.64 325.77 284.64 325.77 374.64"/><line class="cls-5" x1="250.72" y1="314.69" x2="325.77" y2="314.69"/><line class="cls-5" x1="250.72" y1="374.64" x2="325.77" y2="374.64"/><line class="cls-5" x1="250.72" y1="344.75" x2="325.77" y2="344.75"/><text class="cls-6" transform="translate(137.86 331.14)">16.90</text><text class="cls-6" transform="translate(527.17 378.48)">2.50</text><text class="cls-6" transform="translate(66.84 141.39) rotate(-90)">0.30</text><text class="cls-6" transform="translate(480.43 192.67)">4.10</text><text class="cls-6" transform="translate(461.03 93.26)">3.80</text><text class="cls-6" transform="translate(137.86 122.32)">13.90</text><polyline class="cls-7" points="371.26 142.32 397.87 142.32 397.87 113.11"/><line class="cls-7" x1="397.87" y1="89.95" x2="397.87" y2="66.93"/><polyline class="cls-7" points="397.87 43.77 397.87 14.56 371.26 14.56"/><line class="cls-7" x1="348.24" y1="14.56" x2="325.07" y2="14.56"/><polyline class="cls-7" points="302.06 14.56 275.44 14.56 275.44 43.77"/><line class="cls-5" x1="275.44" y1="54.76" x2="275.44" y2="56.26"/><line class="cls-8" x1="275.44" y1="59.17" x2="275.44" y2="139.36"/><polyline class="cls-5" points="275.44 140.82 275.44 142.32 276.94 142.32"/><line class="cls-9" x1="279.87" y1="142.32" x2="354.66" y2="142.32"/><line class="cls-5" x1="356.13" y1="142.32" x2="357.63" y2="142.32"/><line class="cls-7" x1="397.87" y1="1.04" x2="371.26" y2="1.04"/><line class="cls-7" x1="348.24" y1="1.04" x2="325.07" y2="1.04"/><line class="cls-7" x1="302.06" y1="1.04" x2="275.44" y2="1.04"/><line class="cls-10" x1="598.28" y1="156.56" x2="611.95" y2="156.56"/><line class="cls-10" x1="598.28" y1="224.61" x2="611.95" y2="224.61"/><line class="cls-10" x1="611.95" y1="442.72" x2="611.95" y2="245.04"/><line class="cls-10" x1="611.95" y1="245.04" x2="611.95" y2="224.61"/><line class="cls-10" x1="611.95" y1="156.56" x2="611.95" y2="135.56"/><line class="cls-10" x1="598.28" y1="149.08" x2="598.28" y2="156.56"/><line class="cls-10" x1="598.28" y1="224.61" x2="598.28" y2="301.44"/><line class="cls-10" x1="598.28" y1="306.76" x2="598.28" y2="429.19"/><path class="cls-7" d="M564.19,159.22a62.5,62.5,0,0,0,62.51,62.51" transform="translate(-28.35)"/><polyline class="cls-7" points="611.95 224.61 611.95 221.88 598.28 221.88 598.28 224.61 611.95 224.61"/><polyline class="cls-7" points="598.28 156.56 598.28 159.3 611.95 159.3 611.95 156.56 598.28 156.56"/><line class="cls-7" x1="598.28" y1="159.3" x2="535.84" y2="159.3"/><polyline class="cls-7" points="611.95 224.61 598.28 224.61 611.95 224.61"/><polyline class="cls-7" points="611.95 156.56 598.28 156.56 611.95 156.56"/><line class="cls-10" x1="598.28" y1="429.19" x2="503.18" y2="429.19"/><polyline class="cls-10" points="497.72 429.19 108.98 429.19 108.98 442.72 459.02 442.72"/><line class="cls-10" x1="464.48" y1="442.72" x2="598.28" y2="442.72"/><line class="cls-10" x1="586.05" y1="1.04" x2="586.05" y2="1.04"/><line class="cls-10" x1="584.76" y1="1.04" x2="403.34" y2="1.04"/><line class="cls-10" x1="397.87" y1="1.04" x2="108.99" y2="1.04"/><line class="cls-10" x1="108.99" y1="14.56" x2="397.87" y2="14.56"/><line class="cls-10" x1="403.34" y1="14.56" x2="572.53" y2="14.56"/><line class="cls-10" x1="586.05" y1="14.56" x2="586.05" y2="14.56"/><line class="cls-10" x1="611.95" y1="245.04" x2="611.95" y2="245.04"/><line class="cls-10" x1="611.95" y1="245.04" x2="611.95" y2="245.04"/><line class="cls-10" x1="503.18" y1="223.17" x2="455.56" y2="223.17"/><polyline class="cls-10" points="450.24 223.17 108.98 223.17 108.98 228.64 497.72 228.64"/><line class="cls-10" x1="503.18" y1="232.09" x2="497.72" y2="232.09"/><line class="cls-10" x1="503.18" y1="293.24" x2="497.72" y2="293.24"/><line class="cls-10" x1="503.18" y1="429.19" x2="503.18" y2="306.76"/><line class="cls-10" x1="503.18" y1="301.44" x2="503.18" y2="293.24"/><line class="cls-10" x1="503.18" y1="232.09" x2="503.18" y2="223.17"/><line class="cls-10" x1="497.72" y1="228.64" x2="497.72" y2="232.09"/><line class="cls-10" x1="497.72" y1="293.24" x2="497.72" y2="429.19"/><path class="cls-7" d="M470.39,234.75a55.74,55.74,0,0,0,55.74,55.75" transform="translate(-28.35)"/><polyline class="cls-7" points="503.18 293.24 503.18 290.5 497.72 290.5 497.72 293.24 503.18 293.24"/><polyline class="cls-7" points="497.72 232.09 497.72 234.83 503.18 234.83 503.18 232.09 497.72 232.09"/><line class="cls-7" x1="497.72" y1="234.83" x2="442.04" y2="234.83"/><polyline class="cls-7" points="497.72 293.24 503.18 293.24 497.72 293.24"/><polyline class="cls-7" points="497.72 232.09 503.18 232.09 497.72 232.09"/><line class="cls-10" x1="450.24" y1="210.37" x2="455.56" y2="210.37"/><line class="cls-10" x1="450.24" y1="149.08" x2="455.56" y2="149.08"/><line class="cls-10" x1="455.56" y1="223.17" x2="455.56" y2="210.37"/><line class="cls-10" x1="455.56" y1="149.08" x2="455.56" y2="142.32"/><line class="cls-10" x1="450.24" y1="142.32" x2="450.24" y2="149.08"/><line class="cls-10" x1="450.24" y1="210.37" x2="450.24" y2="223.17"/><path class="cls-7" d="M478.66,151.82a55.74,55.74,0,0,0-55.75,55.74" transform="translate(-28.35)"/><polyline class="cls-7" points="455.56 149.08 455.56 151.81 450.24 151.81 450.24 149.08 455.56 149.08"/><polyline class="cls-7" points="450.24 210.37 450.24 207.64 455.56 207.64 455.56 210.37 450.24 210.37"/><line class="cls-7" x1="450.24" y1="207.64" x2="394.42" y2="207.64"/><polyline class="cls-7" points="455.56 149.08 450.24 149.08 455.56 149.08"/><polyline class="cls-7" points="455.56 210.37 450.24 210.37 455.56 210.37"/><line class="cls-10" x1="403.34" y1="136.85" x2="403.34" y2="14.56"/><line class="cls-10" x1="397.87" y1="14.56" x2="397.87" y2="142.32"/><line class="cls-10" x1="586.05" y1="135.56" x2="586.05" y2="101.6"/><line class="cls-10" x1="586.05" y1="116.57" x2="586.05" y2="14.56"/><line class="cls-10" x1="572.53" y1="14.56" x2="572.53" y2="60.75"/><polyline class="cls-10" points="572.53 142.32 572.53 149.08 598.28 149.08"/><line class="cls-10" x1="611.95" y1="135.56" x2="586.05" y2="135.56"/><line class="cls-10" x1="575.84" y1="306.76" x2="575.84" y2="301.44"/><polyline class="cls-10" points="503.18 306.76 524.91 306.76 524.91 301.44"/><line class="cls-10" x1="575.84" y1="306.76" x2="598.28" y2="306.76"/><line class="cls-10" x1="598.28" y1="301.44" x2="575.84" y2="301.44"/><line class="cls-10" x1="524.91" y1="301.44" x2="503.18" y2="301.44"/><path class="cls-7" d="M556,306.69a45.47,45.47,0,0,0,6.1,22.76" transform="translate(-28.35)"/><polyline class="cls-7" points="524.91 301.44 527.5 301.44 527.5 306.76 524.91 306.76 524.91 301.44"/><polyline class="cls-7" points="575.84 306.76 573.1 306.76 573.1 301.44 575.84 301.44 575.84 306.76"/><line class="cls-7" x1="573.1" y1="306.76" x2="533.68" y2="329.64"/><polyline class="cls-7" points="524.91 301.44 524.91 306.76 524.91 301.44"/><polyline class="cls-7" points="575.84 301.44 575.84 306.76 575.84 301.44"/><line class="cls-10" x1="598.28" y1="442.72" x2="611.95" y2="442.72"/><line class="cls-10" x1="611.95" y1="442.72" x2="611.95" y2="442.72"/><line class="cls-10" x1="586.05" y1="14.56" x2="586.05" y2="14.56"/><line class="cls-10" x1="586.05" y1="14.56" x2="586.05" y2="1.04"/><polyline class="cls-7" points="586.05 14.56 586.05 16.72 586.05 16.72 586.05 14.56 586.05 14.56"/><polyline class="cls-7" points="586.05 14.56 586.05 14.56 586.05 14.56"/><polyline class="cls-10" points="75.32 7.8 75.32 1.04 143.04 1.04"/><line class="cls-10" x1="108.99" y1="7.8" x2="108.99" y2="1.04"/><line class="cls-10" x1="84.53" y1="385.02" x2="108.99" y2="385.02"/><polyline class="cls-10" points="75.32 382.29 81.08 382.29 81.08 385.02 84.53 385.02"/><line class="cls-10" x1="84.53" y1="272.81" x2="108.99" y2="272.81"/><polyline class="cls-10" points="75.32 275.54 81.08 275.54 81.08 272.81 84.53 272.81"/><line class="cls-10" x1="84.53" y1="170.95" x2="108.99" y2="170.95"/><polyline class="cls-10" points="75.32 168.22 81.08 168.22 81.08 170.95 84.53 170.95"/><line class="cls-10" x1="84.53" y1="58.73" x2="108.99" y2="58.73"/><polyline class="cls-10" points="75.32 7.8 75.32 61.47 81.08 61.47 81.08 58.73 84.53 58.73"/><line class="cls-10" x1="75.32" y1="168.22" x2="75.32" y2="275.54"/><polyline class="cls-10" points="75.32 382.29 75.32 442.72 130 442.72"/><line class="cls-10" x1="108.99" y1="442.72" x2="108.99" y2="385.02"/><line class="cls-10" x1="108.99" y1="272.81" x2="108.99" y2="170.95"/><line class="cls-10" x1="108.99" y1="58.73" x2="108.99" y2="7.8"/><line class="cls-7" x1="75.32" y1="275.54" x2="75.32" y2="382.29"/><line class="cls-7" x1="108.99" y1="385.02" x2="108.99" y2="272.81"/><line class="cls-7" x1="75.32" y1="275.54" x2="75.32" y2="382.29"/><line class="cls-7" x1="108.99" y1="272.81" x2="108.99" y2="385.02"/><polyline class="cls-7" points="84.53 272.81 84.53 279.28 81.08 279.28 81.08 272.81"/><polyline class="cls-7" points="81.08 328.92 81.08 324.46 84.53 324.46 84.53 328.92"/><line class="cls-7" x1="84.53" y1="279.28" x2="84.53" y2="324.46"/><line class="cls-7" x1="81.07" y1="324.46" x2="81.07" y2="279.28"/><polyline class="cls-7" points="84.53 328.92 84.53 333.38 81.08 333.38 81.08 328.92"/><polyline class="cls-7" points="81.08 385.02 81.08 378.55 84.53 378.55 84.53 385.02"/><line class="cls-7" x1="84.53" y1="333.38" x2="84.53" y2="378.55"/><line class="cls-7" x1="81.07" y1="378.55" x2="81.07" y2="333.38"/><polyline class="cls-7" points="84.53 272.81 81.08 272.81 84.53 272.81"/><polyline class="cls-7" points="81.08 272.81 81.08 275.54 81.08 272.81"/><line class="cls-7" x1="75.32" y1="275.54" x2="81.07" y2="275.54"/><line class="cls-7" x1="84.53" y1="272.81" x2="108.99" y2="272.81"/><polyline class="cls-7" points="84.53 385.02 81.08 385.02 84.53 385.02"/><polyline class="cls-7" points="81.08 385.02 81.08 382.29 81.08 385.02"/><line class="cls-7" x1="75.32" y1="382.29" x2="81.07" y2="382.29"/><line class="cls-7" x1="84.53" y1="385.02" x2="108.99" y2="385.02"/><line class="cls-11" x1="75.32" y1="61.47" x2="75.32" y2="168.22"/><line class="cls-11" x1="108.99" y1="170.95" x2="108.99" y2="58.73"/><line class="cls-11" x1="75.32" y1="61.47" x2="75.32" y2="168.22"/><line class="cls-11" x1="108.99" y1="58.73" x2="108.99" y2="170.95"/><polyline class="cls-7" points="84.53 58.73 84.53 65.21 81.08 65.21 81.08 58.73"/><polyline class="cls-7" points="81.08 114.84 81.08 110.38 84.53 110.38 84.53 114.84"/><line class="cls-7" x1="84.53" y1="65.21" x2="129.7" y2="65.21"/><polyline class="cls-7" points="84.53 114.84 84.53 119.3 81.08 119.3 81.08 114.84"/><polyline class="cls-7" points="81.08 170.95 81.08 164.47 84.53 164.47 84.53 170.95"/><line class="cls-7" x1="84.53" y1="164.48" x2="129.7" y2="164.48"/><path class="cls-7" d="M113,110.38a45.25,45.25,0,0,0,45.24-45.25" transform="translate(-28.35)"/><path class="cls-7" d="M158.19,164.4A45.24,45.24,0,0,0,113,119.16" transform="translate(-28.35)"/><polyline class="cls-7" points="84.53 58.73 81.08 58.73 84.53 58.73"/><polyline class="cls-7" points="81.08 58.73 81.08 61.47 81.08 58.73"/><line class="cls-7" x1="75.32" y1="61.47" x2="81.07" y2="61.47"/><line class="cls-7" x1="84.53" y1="58.73" x2="108.99" y2="58.73"/><polyline class="cls-7" points="84.53 170.95 81.08 170.95 84.53 170.95"/><polyline class="cls-7" points="81.08 170.95 81.08 168.22 81.08 170.95"/><line class="cls-7" x1="75.32" y1="168.22" x2="81.07" y2="168.22"/><line class="cls-7" x1="84.53" y1="170.95" x2="108.99" y2="170.95"/><polyline class="cls-7" points="545.34 142.32 572.53 142.32 572.53 101.61 545.34 101.61 545.34 142.32"/><polyline class="cls-7" points="552.82 139.01 551.52 138.72 550.37 138.15 549.51 137.28 548.93 136.13 548.79 134.84 548.79 119.3 548.93 118.01 549.51 116.86 550.37 115.99 551.52 115.42 552.82 115.13 565.05 115.13 566.34 115.42 567.49 115.99 568.36 116.86 568.93 118.01 569.08 119.3 569.08 134.84 568.93 136.13 568.36 137.28 567.49 138.15 566.34 138.72 565.05 139.01 552.82 139.01"/><polyline class="cls-7" points="567.49 111.82 550.37 111.82 549.51 111.53 548.93 110.96 548.79 110.09 548.79 109.09 548.93 107.79 549.51 106.64 550.37 105.78 551.52 105.2 552.82 104.91 565.05 104.91 566.34 105.2 567.49 105.78 568.36 106.64 568.93 107.79 569.08 109.09 569.08 110.09 568.93 110.96 568.21 111.53 567.49 111.82"/><polyline class="cls-7" points="545.34 60.75 572.53 60.75 572.53 101.61 545.34 101.61 545.34 60.75"/><polyline class="cls-7" points="552.82 64.2 551.52 64.34 550.37 64.92 549.51 65.93 548.93 66.93 548.79 68.23 548.79 83.91 548.93 85.2 549.51 86.36 550.37 87.22 551.52 87.79 552.82 87.94 565.05 87.94 566.34 87.79 567.49 87.22 568.36 86.36 568.93 85.2 569.08 83.91 569.08 68.23 568.93 66.93 568.36 65.93 567.49 64.92 566.34 64.34 565.05 64.2 552.82 64.2"/><polyline class="cls-7" points="567.49 91.39 550.37 91.39 549.51 91.53 548.93 92.25 548.79 93.12 548.79 94.12 548.93 95.28 549.51 96.43 550.37 97.43 551.52 98.01 552.82 98.15 565.05 98.15 566.34 98.01 567.49 97.43 568.36 96.43 568.93 95.28 569.08 94.12 569.08 93.12 568.93 92.25 568.21 91.53 567.49 91.39"/><line class="cls-11" x1="71.87" y1="187.93" x2="44.68" y2="187.93"/><line class="cls-11" x1="41.37" y1="191.23" x2="71.87" y2="191.23"/><line class="cls-11" x1="44.68" y1="187.93" x2="44.68" y2="64.92"/><line class="cls-11" x1="41.37" y1="61.47" x2="41.37" y2="191.23"/><line class="cls-11" x1="44.68" y1="64.92" x2="71.87" y2="64.92"/><line class="cls-11" x1="71.87" y1="61.47" x2="41.37" y2="61.47"/><polyline class="cls-11" points="71.87 191.24 73.59 191.24 73.59 187.93 71.87 187.93"/><polyline class="cls-11" points="71.87 64.92 73.59 64.92 73.59 61.47 71.87 61.47"/><line class="cls-11" x1="71.87" y1="188.79" x2="43.81" y2="188.79"/><polyline class="cls-11" points="42.23 190.37 71.87 190.37 71.87 188.79"/><line class="cls-11" x1="43.81" y1="188.79" x2="43.81" y2="64.06"/><line class="cls-11" x1="42.23" y1="62.33" x2="42.23" y2="190.37"/><polyline class="cls-11" points="43.81 64.06 71.87 64.06 71.87 62.33 42.23 62.33"/><polyline class="cls-11" points="72.73 190.37 72.73 188.79 71 188.79 71 190.37 72.73 190.37"/><polyline class="cls-11" points="43.81 190.37 43.81 188.79 42.23 188.79 42.23 190.37 43.81 190.37"/><polyline class="cls-11" points="42.23 64.06 43.81 64.06 43.81 62.33 42.23 62.33 42.23 64.06"/><polyline class="cls-11" points="71 62.33 71 64.06 72.73 64.06 72.73 62.33 71 62.33"/><polyline class="cls-11" points="63.09 190.37 63.09 188.79 61.37 188.79 61.37 190.37 63.09 190.37"/><polyline class="cls-11" points="53.45 190.37 53.45 188.79 51.87 188.79 51.87 190.37 53.45 190.37"/><polyline class="cls-11" points="42.23 180.73 43.81 180.73 43.81 179.01 42.23 179.01 42.23 180.73"/><polyline class="cls-11" points="42.23 170.95 43.81 170.95 43.81 169.22 42.23 169.22 42.23 170.95"/><polyline class="cls-11" points="42.23 161.31 43.81 161.31 43.81 159.58 42.23 159.58 42.23 161.31"/><polyline class="cls-11" points="42.23 151.53 43.81 151.53 43.81 149.8 42.23 149.8 42.23 151.53"/><polyline class="cls-11" points="42.23 141.74 43.81 141.74 43.81 140.16 42.23 140.16 42.23 141.74"/><polyline class="cls-11" points="42.23 132.1 43.81 132.1 43.81 130.38 42.23 130.38 42.23 132.1"/><polyline class="cls-11" points="42.23 122.32 43.81 122.32 43.81 120.6 42.23 120.6 42.23 122.32"/><polyline class="cls-11" points="42.23 112.68 43.81 112.68 43.81 110.96 42.23 110.96 42.23 112.68"/><polyline class="cls-11" points="42.23 102.9 43.81 102.9 43.81 101.17 42.23 101.17 42.23 102.9"/><polyline class="cls-11" points="42.23 93.12 43.81 93.12 43.81 91.53 42.23 91.53 42.23 93.12"/><polyline class="cls-11" points="42.23 83.48 43.81 83.48 43.81 81.75 42.23 81.75 42.23 83.48"/><polyline class="cls-11" points="42.23 73.69 43.81 73.69 43.81 71.97 42.23 71.97 42.23 73.69"/><polyline class="cls-11" points="51.87 62.33 51.87 64.06 53.45 64.06 53.45 62.33 51.87 62.33"/><polyline class="cls-11" points="61.37 62.33 61.37 64.06 63.09 64.06 63.09 62.33 61.37 62.33"/><line class="cls-5" x1="411.4" y1="18.59" x2="446.07" y2="18.59"/><line class="cls-5" x1="450.24" y1="22.48" x2="450.24" y2="109.09"/><line class="cls-5" x1="407.37" y1="22.48" x2="407.37" y2="109.09"/><line class="cls-5" x1="454.27" y1="133.54" x2="454.27" y2="14.56"/><polyline class="cls-5" points="454.27 133.54 403.34 133.54 403.34 14.56 454.27 14.56"/><line class="cls-5" x1="414.42" y1="95.13" x2="414.42" y2="27.37"/><line class="cls-5" x1="416.43" y1="25.35" x2="441.03" y2="25.35"/><line class="cls-5" x1="443.05" y1="95.13" x2="443.05" y2="27.37"/><line class="cls-5" x1="427.51" y1="39.31" x2="425.06" y2="39.31"/><line class="cls-5" x1="428.8" y1="38.16" x2="428.8" y2="35.71"/><line class="cls-5" x1="429.95" y1="39.31" x2="432.54" y2="39.31"/><line class="cls-5" x1="428.8" y1="40.61" x2="428.8" y2="43.05"/><path class="cls-5" d="M435.86,109c0,11.49,9.56,20.79,21.36,20.79s21.37-9.3,21.37-20.79" transform="translate(-28.35)"/><path class="cls-5" d="M478.59,22.41a4,4,0,0,0-4.1-4" transform="translate(-28.35)"/><path class="cls-5" d="M439.81,18.45a4,4,0,0,0-4.1,4" transform="translate(-28.35)"/><path class="cls-5" d="M459.31,39.24a2.09,2.09,0,1,0-2.09,2.08,2.1,2.1,0,0,0,2.09-2.08" transform="translate(-28.35)"/><path class="cls-5" d="M442.91,95.06a14.32,14.32,0,0,0,28.63,0" transform="translate(-28.35)"/><path class="cls-5" d="M444.85,25.35a2,2,0,0,0-2.09,1.95" transform="translate(-28.35)"/><path class="cls-5" d="M471.54,27.3a2,2,0,0,0-2.09-1.95" transform="translate(-28.35)"/><path class="cls-5" d="M460,39.24a2.81,2.81,0,1,0-2.81,2.8,2.81,2.81,0,0,0,2.81-2.8" transform="translate(-28.35)"/><line class="cls-5" x1="509.95" y1="94.7" x2="544.04" y2="94.7"/><line class="cls-5" x1="509.95" y1="135.41" x2="509.95" y2="94.7"/><line class="cls-5" x1="544.04" y1="135.41" x2="509.95" y2="135.41"/><line class="cls-5" x1="544.04" y1="94.7" x2="544.04" y2="135.41"/><polyline class="cls-5" points="521.89 119.3 521.89 111.1 524.62 116.57 527.35 111.1 527.35 119.3"/><polyline class="cls-5" points="535.41 117.86 534.12 119.3 531.38 119.3 529.94 117.86 529.94 112.39 531.38 111.1 534.12 111.1 535.41 112.39"/><polyline class="cls-7" points="397.87 130.09 397.87 14.56 275.44 14.56"/><polyline class="cls-7" points="357.01 130.09 357.01 55.28 275.44 55.28 275.44 14.56"/><path class="cls-7" d="M390.54,124.55a1.37,1.37,0,0,0,1.37,1.37" transform="translate(-28.35)"/><line class="cls-7" x1="394.71" y1="126.06" x2="363.49" y2="126.06"/><path class="cls-7" d="M423.12,125.92a1.37,1.37,0,0,0,1.37-1.37" transform="translate(-28.35)"/><line class="cls-7" x1="396.15" y1="72.98" x2="396.15" y2="124.62"/><path class="cls-7" d="M424.49,72.9a1.36,1.36,0,0,0-1.37-1.36" transform="translate(-28.35)"/><line class="cls-7" x1="363.49" y1="71.68" x2="394.71" y2="71.68"/><path class="cls-7" d="M391.91,71.54a1.36,1.36,0,0,0-1.37,1.36" transform="translate(-28.35)"/><line class="cls-7" x1="362.19" y1="124.62" x2="362.19" y2="72.98"/><line class="cls-7" x1="357.01" y1="142.32" x2="357.01" y2="55.28"/><polyline class="cls-7" points="357.01 142.32 397.87 142.32 397.87 55.28"/><line class="cls-7" x1="365.5" y1="121.31" x2="365.5" y2="101.17"/><line class="cls-7" x1="366.94" y1="99.88" x2="387.95" y2="99.88"/><line class="cls-7" x1="389.38" y1="101.17" x2="389.38" y2="121.31"/><line class="cls-7" x1="387.95" y1="122.61" x2="366.94" y2="122.61"/><line class="cls-7" x1="365.5" y1="121.31" x2="365.5" y2="121.31"/><line class="cls-7" x1="365.5" y1="96.43" x2="365.5" y2="76.43"/><line class="cls-7" x1="366.94" y1="74.99" x2="387.95" y2="74.99"/><line class="cls-7" x1="389.38" y1="76.43" x2="389.38" y2="96.43"/><line class="cls-7" x1="387.95" y1="97.86" x2="366.94" y2="97.86"/><line class="cls-7" x1="365.5" y1="96.43" x2="365.5" y2="96.43"/><path class="cls-7" d="M395.36,99.73A1.37,1.37,0,0,0,394,101.1" transform="translate(-28.35)"/><path class="cls-7" d="M417.73,101.1a1.37,1.37,0,0,0-1.37-1.37" transform="translate(-28.35)"/><path class="cls-7" d="M416.36,122.61a1.37,1.37,0,0,0,1.37-1.37" transform="translate(-28.35)"/><path class="cls-7" d="M394,121.24a1.37,1.37,0,0,0,1.37,1.37" transform="translate(-28.35)"/><path class="cls-7" d="M395.36,75A1.37,1.37,0,0,0,394,76.36" transform="translate(-28.35)"/><path class="cls-7" d="M417.73,76.36A1.37,1.37,0,0,0,416.36,75" transform="translate(-28.35)"/><path class="cls-7" d="M416.36,97.72a1.37,1.37,0,0,0,1.37-1.37" transform="translate(-28.35)"/><path class="cls-7" d="M394,96.35a1.37,1.37,0,0,0,1.37,1.37" transform="translate(-28.35)"/><path class="cls-7" d="M579.15,14.56" transform="translate(-28.35)"/><polyline class="cls-7" points="550.8 14.56 572.53 14.56 572.53 48.52"/><line class="cls-7" x1="572.53" y1="48.52" x2="550.8" y2="48.52"/><line class="cls-7" x1="550.8" y1="48.52" x2="550.8" y2="14.56"/><path class="cls-7" d="M614.4,79.16" transform="translate(-28.35)"/><line class="cls-7" x1="584.76" y1="1.04" x2="563.03" y2="1.04"/><line class="cls-7" x1="605.19" y1="135.56" x2="591.52" y2="135.56"/><line class="cls-5" x1="611.95" y1="442.72" x2="611.95" y2="442.72"/><polyline class="cls-5" points="550.8 14.56 572.53 14.56 572.53 60.75 550.8 60.75 550.8 14.56"/><line class="cls-5" x1="505.92" y1="28.23" x2="505.92" y2="51.83"/><polyline class="cls-5" points="504.91 26.79 504.91 18.02 530.09 18.02"/><line class="cls-5" x1="517.43" y1="32.4" x2="526.78" y2="32.4"/><polyline class="cls-5" points="505.92 51.83 508.07 32.41 517.43 32.41"/><line class="cls-5" x1="529.08" y1="51.83" x2="526.78" y2="32.4"/><line class="cls-5" x1="506.49" y1="51.83" x2="508.79" y2="32.4"/><line class="cls-5" x1="528.5" y1="51.83" x2="526.2" y2="32.4"/><line class="cls-5" x1="529.08" y1="28.23" x2="529.08" y2="51.83"/><line class="cls-5" x1="530.09" y1="18.02" x2="530.09" y2="26.79"/><polyline class="cls-5" points="505.92 51.83 506.2 54.42 507.21 57.01 508.79 59.16 510.81 60.89 513.4 62.04 516.13 62.76 518.87 62.76 521.6 62.04 524.04 60.89 526.2 59.16 527.78 57.01 528.65 54.42 529.08 51.83"/><polyline class="cls-5" points="506.49 51.83 506.78 54.27 507.79 56.72 509.23 58.73 511.24 60.31 513.54 61.61 516.13 62.19 518.72 62.19 521.31 61.61 523.76 60.31 525.63 58.73 527.21 56.72 528.07 54.27 528.5 51.83"/><path class="cls-5" d="M534.57,28.2a104.75,104.75,0,0,0,22.53,0" transform="translate(-28.35)"/><path class="cls-5" d="M533.26,26.72a1.51,1.51,0,0,0,1.34,1.5" transform="translate(-28.35)"/><path class="cls-5" d="M557.07,28.22a1.49,1.49,0,0,0,1.36-1.5" transform="translate(-28.35)"/><path class="cls-5" d="M545.84,22.33a1.23,1.23,0,1,0,1.23,1.23,1.23,1.23,0,0,0-1.23-1.23" transform="translate(-28.35)"/><line class="cls-10" x1="464.48" y1="442.72" x2="459.02" y2="442.72"/><line class="cls-10" x1="464.48" y1="442.72" x2="464.48" y2="442.72"/><line class="cls-10" x1="459.02" y1="442.72" x2="459.02" y2="442.72"/><polyline class="cls-7" points="464.48 442.72 464.48 442.72 459.02 442.72"/><line class="cls-7" x1="459.02" y1="442.72" x2="459.02" y2="442.72"/><polyline class="cls-7" points="459.02 442.72 464.48 442.72 459.02 442.72"/><line class="cls-10" x1="509.95" y1="136.85" x2="509.95" y2="142.32"/><line class="cls-10" x1="459.02" y1="136.85" x2="459.02" y2="142.32"/><line class="cls-10" x1="397.87" y1="142.32" x2="450.24" y2="142.32"/><line class="cls-10" x1="455.56" y1="142.32" x2="459.02" y2="142.32"/><line class="cls-10" x1="509.95" y1="142.32" x2="545.34" y2="142.32"/><line class="cls-10" x1="545.34" y1="136.85" x2="509.95" y2="136.85"/><line class="cls-10" x1="459.02" y1="136.85" x2="403.34" y2="136.85"/><path class="cls-7" d="M490.1,142.25A45.57,45.57,0,0,0,496.19,165" transform="translate(-28.35)"/><polyline class="cls-7" points="459.02 136.85 461.75 136.85 461.75 142.32 459.02 142.32 459.02 136.85"/><polyline class="cls-7" points="509.94 142.32 507.21 142.32 507.21 136.85 509.94 136.85 509.94 142.32"/><line class="cls-7" x1="507.21" y1="142.32" x2="467.79" y2="165.05"/><polyline class="cls-7" points="459.02 142.32 459.02 136.85 459.02 142.32"/><polyline class="cls-7" points="509.94 142.32 509.94 136.85 509.94 142.32"/><polyline class="cls-10" points="358.45 1.04 358.45 14.56 572.53 14.56 572.53 1.04 358.45 1.04"/><polyline class="cls-10" points="401.18 215.12 401.18 228.64 455.56 228.64 455.56 215.12 401.18 215.12"/><polyline class="cls-10" points="401.18 429.19 401.18 442.72 455.56 442.72 455.56 429.19 401.18 429.19"/><line class="cls-10" x1="108.99" y1="442.72" x2="108.99" y2="415.52"/><polyline class="cls-10" points="108.98 415.52 95.32 415.52 95.32 442.72"/><polyline class="cls-10" points="108.98 201.45 95.32 201.45 95.32 242.31 108.98 242.31 108.98 201.45"/><polyline class="cls-10" points="108.98 1.04 95.32 1.04 95.32 28.09 108.98 28.09 108.98 1.04"/><polyline class="cls-10" points="598.28 361.14 611.95 361.14 611.95 320.43 598.28 320.43 598.28 361.14"/><polyline class="cls-5" points="490.95 30.1 490.95 14.56 454.27 14.56 454.27 30.1"/><line class="cls-5" x1="466.78" y1="14.56" x2="478.44" y2="14.56"/><line class="cls-5" x1="469.52" y1="27.08" x2="471.53" y2="27.08"/><line class="cls-5" x1="472.54" y1="23.92" x2="472.54" y2="25.93"/><line class="cls-5" x1="473.69" y1="27.08" x2="475.7" y2="27.08"/><line class="cls-5" x1="472.54" y1="28.09" x2="472.54" y2="30.1"/><path class="cls-5" d="M517.15,30.94a16.29,16.29,0,0,0-6.33-7.72" transform="translate(-28.35)"/><path class="cls-5" d="M510.82,23.24A16.24,16.24,0,0,0,501.08,21" transform="translate(-28.35)"/><path class="cls-5" d="M491.24,23.22a16.29,16.29,0,0,0-6.33,7.72" transform="translate(-28.35)"/><path class="cls-5" d="M501,21a16.21,16.21,0,0,0-9.73,2.29" transform="translate(-28.35)"/><path class="cls-5" d="M502.31,42.25a30,30,0,0,0,11.12-3" transform="translate(-28.35)"/><path class="cls-5" d="M482.77,30.06a9.28,9.28,0,0,0,3.46,7.64" transform="translate(-28.35)"/><path class="cls-5" d="M499.67,42.29a18.37,18.37,0,0,0,2.57,0" transform="translate(-28.35)"/><path class="cls-5" d="M511.23,23.85a66.73,66.73,0,0,0-20.54,0" transform="translate(-28.35)"/><path class="cls-5" d="M488.83,17.43a23.16,23.16,0,0,0-5.21,15" transform="translate(-28.35)"/><path class="cls-5" d="M501,15.14a45.86,45.86,0,0,0-10.51,1.14" transform="translate(-28.35)"/><path class="cls-5" d="M490.49,16.37a3.07,3.07,0,0,0-1.71,1.06" transform="translate(-28.35)"/><path class="cls-5" d="M501.09,16.58a78,78,0,0,0-10.36.75" transform="translate(-28.35)"/><path class="cls-5" d="M488.82,18.44a20.85,20.85,0,0,0-5.2,14" transform="translate(-28.35)"/><path class="cls-5" d="M490.6,17.33a3.06,3.06,0,0,0-1.89,1" transform="translate(-28.35)"/><path class="cls-5" d="M518.44,32.43a20.77,20.77,0,0,0-5.22-14" transform="translate(-28.35)"/><path class="cls-5" d="M518.43,32.41a23.07,23.07,0,0,0-5.22-15" transform="translate(-28.35)"/><path class="cls-5" d="M511.36,17.31A77.93,77.93,0,0,0,501,16.58" transform="translate(-28.35)"/><path class="cls-5" d="M511.49,16.26A46.47,46.47,0,0,0,501,15.14" transform="translate(-28.35)"/><path class="cls-5" d="M513.2,18.34a3.1,3.1,0,0,0-1.89-1" transform="translate(-28.35)"/><path class="cls-5" d="M513.28,17.42a3.1,3.1,0,0,0-1.72-1.05" transform="translate(-28.35)"/><path class="cls-5" d="M515.83,37.7a9.28,9.28,0,0,0,3.46-7.64" transform="translate(-28.35)"/><path class="cls-5" d="M513.46,39.3a13.87,13.87,0,0,0,2.43-1.58" transform="translate(-28.35)"/><path class="cls-5" d="M486.17,37.72a13.87,13.87,0,0,0,2.43,1.58" transform="translate(-28.35)"/><path class="cls-5" d="M488.63,39.22a30,30,0,0,0,11.13,3" transform="translate(-28.35)"/><path class="cls-5" d="M495.91,39.72a21.51,21.51,0,0,0,10.09,0" transform="translate(-28.35)"/><path class="cls-5" d="M515.22,35.52A5.55,5.55,0,0,0,517.13,31" transform="translate(-28.35)"/><path class="cls-5" d="M506.14,39.73a20,20,0,0,0,9.16-4.2" transform="translate(-28.35)"/><path class="cls-5" d="M484.93,31a5.53,5.53,0,0,0,1.91,4.57" transform="translate(-28.35)"/><path class="cls-5" d="M486.76,35.53a20,20,0,0,0,9.16,4.2" transform="translate(-28.35)"/><path class="cls-5" d="M503.33,27A2.38,2.38,0,1,0,501,29.38,2.37,2.37,0,0,0,503.33,27" transform="translate(-28.35)"/><path class="cls-5" d="M502.61,27A1.66,1.66,0,1,0,501,28.66,1.66,1.66,0,0,0,502.61,27" transform="translate(-28.35)"/><line class="cls-5" x1="463.76" y1="1.04" x2="403.91" y2="1.04"/><path class="cls-5" d="M492.18.9a.65.65,0,0,0,.65-.65" transform="translate(-28.35)"/><path class="cls-5" d="M431.69.25a.64.64,0,0,0,.64.65" transform="translate(-28.35)"/></svg>