<svg id="_11" data-name="11" xmlns="http://www.w3.org/2000/svg" viewBox="0 0 467.3 387.97"><defs><style>.cls-1,.cls-4{fill:none;}.cls-1{stroke:#969696;stroke-miterlimit:10;}.cls-2{isolation:isolate;font-size:12px;fill:#969696;}.cls-2,.cls-5{font-family:PTSans-Regular, PT Sans;}.cls-3{letter-spacing:-0.01em;}.cls-4,.cls-6{stroke:#000;stroke-linecap:round;stroke-linejoin:round;stroke-width:0.5px;}.cls-5{font-size:17px;}</style></defs><title>3floor_11flat</title><line class="cls-1" x1="217.29" y1="2" x2="217.29" y2="10.8"/><polyline class="cls-1" points="220.69 5.3 217.19 1.8 213.69 5.3"/><text class="cls-2" transform="translate(226.52 10.2)"><tspan class="cls-3">у</tspan><tspan x="5.42" y="0">лица</tspan></text><polyline class="cls-4" points="8.17 277.8 101.77 277.8 105.85 277.8 105.85 309.72 156.25 309.72 156.25 126.12 156.25 89.16 8.17 89.16 8.17 277.8"/><polyline class="cls-4" points="101.77 281.64 8.17 281.64 8.17 322.44 29.77 322.44 29.77 377.88 101.77 377.88 101.77 281.64"/><line class="cls-4" x1="19.69" y1="288.12" x2="19.69" y2="311.64"/><line class="cls-4" x1="22.57" y1="314.28" x2="83.53" y2="314.28"/><line class="cls-4" x1="22.57" y1="285.48" x2="83.53" y2="285.48"/><line class="cls-4" x1="100.81" y1="317.16" x2="17.05" y2="317.16"/><polyline class="cls-4" points="100.81 317.16 100.81 282.6 17.05 282.6 17.05 317.16"/><line class="cls-4" x1="73.93" y1="290.28" x2="25.93" y2="290.28"/><line class="cls-4" x1="24.73" y1="291.48" x2="24.73" y2="308.28"/><line class="cls-4" x1="73.93" y1="309.48" x2="25.93" y2="309.48"/><line class="cls-4" x1="34.57" y1="299.16" x2="34.57" y2="297.24"/><line class="cls-4" x1="33.61" y1="299.88" x2="31.93" y2="299.88"/><line class="cls-4" x1="34.57" y1="300.84" x2="34.57" y2="302.52"/><line class="cls-4" x1="35.29" y1="299.88" x2="36.97" y2="299.88"/><polyline class="cls-4" points="83.53 314.28 86.41 314.04 89.05 313.32 91.45 312.12 93.61 310.68 95.29 308.52 96.73 306.36 97.69 303.96 98.17 301.32 98.17 298.44 97.69 295.8 96.73 293.4 95.29 291.24 93.61 289.08 91.45 287.64 89.05 286.44 86.41 285.72 83.53 285.48"/><polyline class="cls-4" points="19.69 311.64 19.93 312.12 19.93 312.6 20.17 313.08 20.41 313.32 20.89 313.8 21.13 314.04 21.61 314.28 22.09 314.28 22.57 314.28"/><polyline class="cls-4" points="22.57 285.48 22.09 285.48 21.61 285.48 21.13 285.72 20.89 285.96 20.41 286.44 20.17 286.68 19.93 287.16 19.93 287.64 19.69 288.12"/><polyline class="cls-4" points="36.01 299.88 36.01 299.64 35.77 299.4 35.77 299.16 35.53 298.92 35.29 298.68 35.05 298.68 34.81 298.44 34.57 298.44 34.33 298.44 34.09 298.44 33.61 298.68 33.37 298.92 33.13 299.16 33.13 299.4 32.89 299.64 32.89 300.12 33.13 300.36 33.13 300.6 33.37 300.84 33.61 301.08 34.09 301.32 34.33 301.32 34.57 301.32 34.81 301.32 35.05 301.32 35.29 301.08 35.53 300.84 35.77 300.6 35.77 300.36 36.01 300.12 36.01 299.88"/><polyline class="cls-4" points="73.93 309.48 75.61 309.48 77.29 309 78.97 308.04 80.41 307.08 81.61 305.64 82.57 304.2 83.29 302.52 83.53 300.84 83.53 298.92 83.29 297.24 82.57 295.56 81.61 294.12 80.41 292.68 78.97 291.72 77.29 290.76 75.61 290.28 73.93 290.28"/><polyline class="cls-4" points="25.93 290.28 25.69 290.28 25.45 290.28 25.21 290.52 24.97 290.76 24.73 290.76 24.73 291 24.73 291.24 24.73 291.48"/><polyline class="cls-4" points="24.73 308.28 24.73 308.52 24.73 308.76 24.73 309 24.97 309 25.21 309.24 25.45 309.48 25.69 309.48 25.93 309.48"/><polyline class="cls-4" points="36.49 299.88 36.49 299.64 36.25 299.16 36.01 298.92 35.77 298.44 35.53 298.2 35.29 298.2 34.81 297.96 34.57 297.96 34.09 297.96 33.85 297.96 33.37 298.2 33.13 298.44 32.89 298.68 32.65 298.92 32.65 299.4 32.41 299.64 32.41 300.12 32.65 300.36 32.65 300.84 32.89 301.08 33.13 301.32 33.37 301.56 33.85 301.8 34.09 301.8 34.57 301.8 34.81 301.8 35.29 301.56 35.53 301.56 35.77 301.32 36.01 300.84 36.25 300.6 36.49 300.36 36.49 299.88"/><polyline class="cls-4" points="41.05 349.08 29.77 349.08 29.77 322.44 41.05 322.44"/><line class="cls-4" x1="29.77" y1="331.56" x2="29.77" y2="339.96"/><line class="cls-4" x1="38.89" y1="333.48" x2="38.89" y2="334.92"/><line class="cls-4" x1="36.73" y1="335.64" x2="37.93" y2="335.64"/><line class="cls-4" x1="38.89" y1="336.6" x2="38.89" y2="337.8"/><line class="cls-4" x1="39.61" y1="335.64" x2="41.05" y2="335.64"/><path class="cls-4" d="M36,371a11.85,11.85,0,0,0,5.62,4.6" transform="translate(0 -28.36)"/><path class="cls-4" d="M34.37,363.88A11.88,11.88,0,0,0,36,371" transform="translate(0 -28.36)"/><path class="cls-4" d="M41.61,352.11a11.85,11.85,0,0,0-5.62,4.6" transform="translate(0 -28.36)"/><path class="cls-4" d="M36,356.79a11.86,11.86,0,0,0-1.66,7.08" transform="translate(0 -28.36)"/><path class="cls-4" d="M47.66,372.87a22,22,0,0,0,2.21-8.1" transform="translate(0 -28.36)"/><path class="cls-4" d="M46.5,353.11a6.86,6.86,0,0,0-5.62-2.55" transform="translate(0 -28.36)"/><path class="cls-4" d="M49.9,364.81a14.59,14.59,0,0,0,0-1.87" transform="translate(0 -28.36)"/><path class="cls-4" d="M36.58,356.42a48.72,48.72,0,0,0,0,14.91" transform="translate(0 -28.36)"/><path class="cls-4" d="M42.66,351.28A16.67,16.67,0,0,0,31.81,355" transform="translate(0 -28.36)"/><path class="cls-4" d="M31.07,356.29a33.45,33.45,0,0,0-.82,7.6" transform="translate(0 -28.36)"/><path class="cls-4" d="M31.81,354.91a2.21,2.21,0,0,0-.78,1.26" transform="translate(0 -28.36)"/><path class="cls-4" d="M31.75,356.27a59.16,59.16,0,0,0-.54,7.52" transform="translate(0 -28.36)"/><path class="cls-4" d="M42.81,351.28A15,15,0,0,0,32.69,355" transform="translate(0 -28.36)"/><path class="cls-4" d="M32.46,355a2.33,2.33,0,0,0-.75,1.4" transform="translate(0 -28.36)"/><path class="cls-4" d="M32.68,372.71a14.92,14.92,0,0,0,10.11,3.76" transform="translate(0 -28.36)"/><path class="cls-4" d="M31.8,372.7a16.68,16.68,0,0,0,10.83,3.77" transform="translate(0 -28.36)"/><path class="cls-4" d="M31.21,363.88a57.24,57.24,0,0,0,.53,7.52" transform="translate(0 -28.36)"/><path class="cls-4" d="M30.25,363.82a33.5,33.5,0,0,0,.81,7.6" transform="translate(0 -28.36)"/><path class="cls-4" d="M31.71,371.39a2.28,2.28,0,0,0,.75,1.39" transform="translate(0 -28.36)"/><path class="cls-4" d="M31,371.58a2.28,2.28,0,0,0,.77,1.26" transform="translate(0 -28.36)"/><path class="cls-4" d="M40.88,377.19a6.86,6.86,0,0,0,5.62-2.55" transform="translate(0 -28.36)"/><path class="cls-4" d="M46.44,374.72A10.59,10.59,0,0,0,47.58,373" transform="translate(0 -28.36)"/><path class="cls-4" d="M47.58,354.79A10.59,10.59,0,0,0,46.44,353" transform="translate(0 -28.36)"/><path class="cls-4" d="M49.87,363a22,22,0,0,0-2.21-8.1" transform="translate(0 -28.36)"/><path class="cls-4" d="M48.05,367.56a15.57,15.57,0,0,0,0-7.37" transform="translate(0 -28.36)"/><path class="cls-4" d="M41.62,375.51a4,4,0,0,0,3.27-1.37" transform="translate(0 -28.36)"/><path class="cls-4" d="M45,374.27A14.56,14.56,0,0,0,48,367.6" transform="translate(0 -28.36)"/><path class="cls-4" d="M44.89,353.61a4,4,0,0,0-3.27-1.37" transform="translate(0 -28.36)"/><path class="cls-4" d="M48,360.15A14.56,14.56,0,0,0,45,353.48" transform="translate(0 -28.36)"/><path class="cls-4" d="M40.57,363.87a1.8,1.8,0,1,0-1.8,1.8,1.81,1.81,0,0,0,1.8-1.8" transform="translate(0 -28.36)"/><path class="cls-4" d="M40.09,363.87a1.32,1.32,0,1,0-1.32,1.32,1.33,1.33,0,0,0,1.32-1.32" transform="translate(0 -28.36)"/><line class="cls-4" x1="37.21" y1="366.6" x2="54.49" y2="366.6"/><polyline class="cls-4" points="36.25 367.32 29.77 367.32 29.77 349.08"/><line class="cls-4" x1="40.33" y1="358.2" x2="40.33" y2="351.24"/><polyline class="cls-4" points="54.49 366.6 40.33 364.92 40.33 358.2"/><line class="cls-4" x1="54.49" y1="349.8" x2="40.33" y2="351.24"/><line class="cls-4" x1="54.49" y1="366.12" x2="40.33" y2="364.44"/><line class="cls-4" x1="54.49" y1="350.04" x2="40.33" y2="351.72"/><line class="cls-4" x1="37.21" y1="349.8" x2="54.49" y2="349.8"/><line class="cls-4" x1="29.77" y1="349.08" x2="36.25" y2="349.08"/><polyline class="cls-4" points="54.49 366.6 56.41 366.36 58.09 365.64 59.77 364.44 60.97 363 61.93 361.08 62.41 359.16 62.41 357 61.93 355.08 60.97 353.4 59.77 351.72 58.09 350.76 56.41 350.04 54.49 349.8"/><polyline class="cls-4" points="54.49 366.12 56.17 365.88 57.85 365.16 59.29 364.2 60.73 362.76 61.45 360.84 61.93 359.16 61.93 357.24 61.45 355.32 60.73 353.64 59.29 352.2 57.85 351 56.17 350.28 54.49 350.04"/><polyline class="cls-4" points="36.25 367.32 36.49 367.32 36.73 367.08 36.97 367.08 37.21 366.84 37.21 366.6 37.21 366.36 37.69 358.2 37.21 350.04 37.21 349.8 37.21 349.56 37.21 349.32 36.97 349.32 36.73 349.08 36.49 349.08 36.25 349.08"/><polyline class="cls-4" points="34.81 358.2 34.81 357.96 34.81 357.72 34.57 357.72 34.57 357.48 34.33 357.48 34.33 357.24 34.09 357.24 33.85 357.24 33.61 357.24 33.37 357.24 33.37 357.48 33.13 357.48 33.13 357.72 32.89 357.96 32.89 358.2 32.89 358.44 33.13 358.44 33.13 358.68 33.37 358.68 33.37 358.92 33.61 358.92 33.85 358.92 34.09 358.92 34.33 358.92 34.57 358.68 34.81 358.44 34.81 358.2"/><polyline class="cls-4" points="370.33 313.8 156.25 313.8 105.85 313.8 105.85 377.88 370.33 377.88 370.33 313.8"/><polyline class="cls-4" points="160.09 126.12 160.09 264.36 166.09 264.36 166.09 309.72 316.57 309.72 316.57 264.36 322.33 264.36 322.33 131.16 322.33 126.12 316.57 126.12 316.57 89.16 166.09 89.16 166.09 126.12 160.09 126.12"/><line class="cls-4" x1="462.01" y1="387.72" x2="380.17" y2="387.72"/><polyline class="cls-4" points="326.41 131.16 326.41 309.72 457.21 309.72 457.21 264.36 457.21 128.76 457.21 89.16 326.41 89.16 326.41 126.12 326.41 131.16"/><polyline class="cls-4" points="433.45 377.88 433.45 313.8 374.17 313.8 374.17 377.88 433.45 377.88"/><polyline class="cls-4" points="370.33 387.72 2.17 387.72 0.25 387.72"/><path class="cls-4" d="M.25,362.31" transform="translate(0 -28.36)"/><path d="M3.13,91.36l35.52,6H3.13Zm35.52,0H3.13l35.52,6Z" transform="translate(0 -28.36)"/><path class="cls-4" d="M3.13,91.36l35.52,6H3.13Zm35.52,0H3.13l35.52,6Z" transform="translate(0 -28.36)"/><path d="M122.65,91.36h0Z" transform="translate(0 -28.36)"/><path class="cls-4" d="M122.65,91.36h0Z" transform="translate(0 -28.36)"/><path d="M122.65,91.36l57.12,6H122.65Zm57.12,0H122.65l57.12,6Z" transform="translate(0 -28.36)"/><path class="cls-4" d="M122.65,91.36l57.12,6H122.65Zm57.12,0H122.65l57.12,6Z" transform="translate(0 -28.36)"/><path d="M124.57,97.36h0Zm55.2,0h0Z" transform="translate(0 -28.36)"/><path class="cls-4" d="M124.57,97.36h0Zm55.2,0h0Z" transform="translate(0 -28.36)"/><path d="M225.13,91.36h0Z" transform="translate(0 -28.36)"/><path class="cls-4" d="M225.13,91.36h0Z" transform="translate(0 -28.36)"/><path d="M225.13,91.36l38.16,6H225.13Zm38.16,0H225.13l38.16,6Z" transform="translate(0 -28.36)"/><path class="cls-4" d="M225.13,91.36l38.16,6H225.13Zm38.16,0H225.13l38.16,6Z" transform="translate(0 -28.36)"/><path d="M227.29,97.36h0Zm36,0h0Z" transform="translate(0 -28.36)"/><path class="cls-4" d="M227.29,97.36h0Zm36,0h0Z" transform="translate(0 -28.36)"/><path d="M308.65,91.36h0Z" transform="translate(0 -28.36)"/><path class="cls-4" d="M308.65,91.36h0Z" transform="translate(0 -28.36)"/><path d="M308.65,91.36l44.4,6h-44.4Zm44.4,0h-44.4l44.4,6Z" transform="translate(0 -28.36)"/><path class="cls-4" d="M308.65,91.36l44.4,6h-44.4Zm44.4,0h-44.4l44.4,6Z" transform="translate(0 -28.36)"/><path d="M310.57,97.36h0Zm42.48,0h0Z" transform="translate(0 -28.36)"/><path class="cls-4" d="M310.57,97.36h0Zm42.48,0h0Z" transform="translate(0 -28.36)"/><path d="M436.81,91.36h0Z" transform="translate(0 -28.36)"/><path class="cls-4" d="M436.81,91.36h0Z" transform="translate(0 -28.36)"/><path d="M436.81,91.36l30.24,6H436.81Zm30.24,0H436.81l30.24,6Z" transform="translate(0 -28.36)"/><path class="cls-4" d="M436.81,91.36l30.24,6H436.81Zm30.24,0H436.81l30.24,6Z" transform="translate(0 -28.36)"/><path d="M3.13,97.36h0Z" transform="translate(0 -28.36)"/><path class="cls-4" d="M3.13,97.36h0Z" transform="translate(0 -28.36)"/><path d="M36.73,97.84H3.13v-.48Zm0,0Z" transform="translate(0 -28.36)"/><path class="cls-4" d="M36.73,97.84H3.13v-.48Zm0,0Z" transform="translate(0 -28.36)"/><polygon points="3.13 69 36.73 69 36.73 69.48 3.13 69"/><polygon class="cls-4" points="3.13 69 36.73 69 36.73 69.48 3.13 69"/><path d="M124.57,97.36h0Z" transform="translate(0 -28.36)"/><path class="cls-4" d="M124.57,97.36h0Z" transform="translate(0 -28.36)"/><path d="M177.85,97.84H124.57v-.48Zm0,0Z" transform="translate(0 -28.36)"/><path class="cls-4" d="M177.85,97.84H124.57v-.48Zm0,0Z" transform="translate(0 -28.36)"/><polygon points="124.57 69 177.85 69 177.85 69.48 124.57 69"/><polygon class="cls-4" points="124.57 69 177.85 69 177.85 69.48 124.57 69"/><path d="M261.13,97.84H227.29v-.48Zm0,0Z" transform="translate(0 -28.36)"/><path class="cls-4" d="M261.13,97.84H227.29v-.48Zm0,0Z" transform="translate(0 -28.36)"/><polygon points="227.29 69 261.13 69 261.13 69.48 227.29 69"/><polygon class="cls-4" points="227.29 69 261.13 69 261.13 69.48 227.29 69"/><path d="M310.57,97.36h0Z" transform="translate(0 -28.36)"/><path class="cls-4" d="M310.57,97.36h0Z" transform="translate(0 -28.36)"/><path d="M351.13,97.84H310.57v-.48Zm0,0Z" transform="translate(0 -28.36)"/><path class="cls-4" d="M351.13,97.84H310.57v-.48Zm0,0Z" transform="translate(0 -28.36)"/><polygon points="310.57 69 351.13 69 351.13 69.48 310.57 69"/><polygon class="cls-4" points="310.57 69 351.13 69 351.13 69.48 310.57 69"/><path d="M467.05,97.84H439v-.48Zm0,0Z" transform="translate(0 -28.36)"/><path class="cls-4" d="M467.05,97.84H439v-.48Zm0,0Z" transform="translate(0 -28.36)"/><polygon points="438.97 69 467.05 69 467.05 69.48 438.97 69"/><polygon class="cls-4" points="438.97 69 467.05 69 467.05 69.48 438.97 69"/><path d="M3.13,97.84h0Z" transform="translate(0 -28.36)"/><path class="cls-4" d="M3.13,97.84h0Z" transform="translate(0 -28.36)"/><path d="M3.13,97.84l33.6,1.92H3.13Zm33.6,0H3.13l33.6,1.92Z" transform="translate(0 -28.36)"/><path class="cls-4" d="M3.13,97.84l33.6,1.92H3.13Zm33.6,0H3.13l33.6,1.92Z" transform="translate(0 -28.36)"/><path d="M36.73,105.28H3.13V99.76Zm0,0Z" transform="translate(0 -28.36)"/><path class="cls-4" d="M36.73,105.28H3.13V99.76Zm0,0Z" transform="translate(0 -28.36)"/><polygon points="3.13 71.4 36.73 71.4 36.73 76.92 3.13 71.4"/><polygon class="cls-4" points="3.13 71.4 36.73 71.4 36.73 76.92 3.13 71.4"/><path d="M124.57,97.84h0Z" transform="translate(0 -28.36)"/><path class="cls-4" d="M124.57,97.84h0Z" transform="translate(0 -28.36)"/><path d="M124.57,99.76h0Zm53.28,0h0Zm-53.28-1.92,53.28,1.92H124.57Zm53.28,0H124.57l53.28,1.92Z" transform="translate(0 -28.36)"/><path class="cls-4" d="M124.57,99.76h0Zm53.28,0h0Zm-53.28-1.92,53.28,1.92H124.57Zm53.28,0H124.57l53.28,1.92Z" transform="translate(0 -28.36)"/><path d="M177.85,105.28H124.57V99.76Zm0,0Z" transform="translate(0 -28.36)"/><path class="cls-4" d="M177.85,105.28H124.57V99.76Zm0,0Z" transform="translate(0 -28.36)"/><polygon points="124.57 71.4 177.85 71.4 177.85 76.92 124.57 71.4"/><polygon class="cls-4" points="124.57 71.4 177.85 71.4 177.85 76.92 124.57 71.4"/><path d="M227.29,97.84h0Z" transform="translate(0 -28.36)"/><path class="cls-4" d="M227.29,97.84h0Z" transform="translate(0 -28.36)"/><path d="M227.29,99.76h0Zm33.84,0h0Zm-33.84-1.92,33.84,1.92H227.29Zm33.84,0H227.29l33.84,1.92Z" transform="translate(0 -28.36)"/><path class="cls-4" d="M227.29,99.76h0Zm33.84,0h0Zm-33.84-1.92,33.84,1.92H227.29Zm33.84,0H227.29l33.84,1.92Z" transform="translate(0 -28.36)"/><path d="M261.13,105.28H227.29V99.76Zm0,0Z" transform="translate(0 -28.36)"/><path class="cls-4" d="M261.13,105.28H227.29V99.76Zm0,0Z" transform="translate(0 -28.36)"/><polygon points="227.29 71.4 261.13 71.4 261.13 76.92 227.29 71.4"/><polygon class="cls-4" points="227.29 71.4 261.13 71.4 261.13 76.92 227.29 71.4"/><path d="M310.57,97.84h0Z" transform="translate(0 -28.36)"/><path class="cls-4" d="M310.57,97.84h0Z" transform="translate(0 -28.36)"/><path d="M310.57,99.76h0Zm40.56,0h0Zm-40.56-1.92,40.56,1.92H310.57Zm40.56,0H310.57l40.56,1.92Z" transform="translate(0 -28.36)"/><path class="cls-4" d="M310.57,99.76h0Zm40.56,0h0Zm-40.56-1.92,40.56,1.92H310.57Zm40.56,0H310.57l40.56,1.92Z" transform="translate(0 -28.36)"/><path d="M351.13,105.28H310.57V99.76Zm0,0Z" transform="translate(0 -28.36)"/><path class="cls-4" d="M351.13,105.28H310.57V99.76Zm0,0Z" transform="translate(0 -28.36)"/><polygon points="310.57 71.4 351.13 71.4 351.13 76.92 310.57 71.4"/><polygon class="cls-4" points="310.57 71.4 351.13 71.4 351.13 76.92 310.57 71.4"/><path d="M439,97.84h0Z" transform="translate(0 -28.36)"/><path class="cls-4" d="M439,97.84h0Z" transform="translate(0 -28.36)"/><path d="M439,97.84l28.08,1.92H439Zm28.08,0H439l28.08,1.92Z" transform="translate(0 -28.36)"/><path class="cls-4" d="M439,97.84l28.08,1.92H439Zm28.08,0H439l28.08,1.92Z" transform="translate(0 -28.36)"/><path d="M467.05,105.28H439V99.76Zm0,0Z" transform="translate(0 -28.36)"/><path class="cls-4" d="M467.05,105.28H439V99.76Zm0,0Z" transform="translate(0 -28.36)"/><polygon points="438.97 71.4 467.05 71.4 467.05 76.92 438.97 71.4"/><polygon class="cls-4" points="438.97 71.4 467.05 71.4 467.05 76.92 438.97 71.4"/><path d="M3.13,105.28h0Z" transform="translate(0 -28.36)"/><path class="cls-4" d="M3.13,105.28h0Z" transform="translate(0 -28.36)"/><path d="M8.17,117.52h-5V105.28Zm0,0Z" transform="translate(0 -28.36)"/><path class="cls-4" d="M8.17,117.52h-5V105.28Zm0,0Z" transform="translate(0 -28.36)"/><polygon points="3.13 76.92 8.17 76.92 8.17 89.16 3.13 76.92"/><polygon class="cls-4" points="3.13 76.92 8.17 76.92 8.17 89.16 3.13 76.92"/><path d="M8.17,105.28h0Z" transform="translate(0 -28.36)"/><path class="cls-4" d="M8.17,105.28h0Z" transform="translate(0 -28.36)"/><path d="M36.73,117.52H8.17V105.28Zm0,0Z" transform="translate(0 -28.36)"/><path class="cls-4" d="M36.73,117.52H8.17V105.28Zm0,0Z" transform="translate(0 -28.36)"/><polygon points="8.17 76.92 36.73 76.92 36.73 89.16 8.17 76.92"/><polygon class="cls-4" points="8.17 76.92 36.73 76.92 36.73 89.16 8.17 76.92"/><path d="M124.57,105.28h0Z" transform="translate(0 -28.36)"/><path class="cls-4" d="M124.57,105.28h0Z" transform="translate(0 -28.36)"/><path d="M156.25,117.52H124.57V105.28Zm0,0Z" transform="translate(0 -28.36)"/><path class="cls-4" d="M156.25,117.52H124.57V105.28Zm0,0Z" transform="translate(0 -28.36)"/><polygon points="124.57 76.92 156.25 76.92 156.25 89.16 124.57 76.92"/><polygon class="cls-4" points="124.57 76.92 156.25 76.92 156.25 89.16 124.57 76.92"/><path d="M156.25,105.28h0Z" transform="translate(0 -28.36)"/><path class="cls-4" d="M156.25,105.28h0Z" transform="translate(0 -28.36)"/><path d="M166.09,117.52h-9.84V105.28Zm0,0Z" transform="translate(0 -28.36)"/><path class="cls-4" d="M166.09,117.52h-9.84V105.28Zm0,0Z" transform="translate(0 -28.36)"/><polygon points="156.25 76.92 166.09 76.92 166.09 89.16 156.25 76.92"/><polygon class="cls-4" points="156.25 76.92 166.09 76.92 166.09 89.16 156.25 76.92"/><path d="M166.09,105.28h0Z" transform="translate(0 -28.36)"/><path class="cls-4" d="M166.09,105.28h0Z" transform="translate(0 -28.36)"/><path d="M166.09,105.28l11.76,12.24H166.09Zm11.76,0H166.09l11.76,12.24Z" transform="translate(0 -28.36)"/><path class="cls-4" d="M166.09,105.28l11.76,12.24H166.09Zm11.76,0H166.09l11.76,12.24Z" transform="translate(0 -28.36)"/><path d="M227.29,105.28h0Z" transform="translate(0 -28.36)"/><path class="cls-4" d="M227.29,105.28h0Z" transform="translate(0 -28.36)"/><path d="M261.13,117.52H227.29V105.28Zm0,0Z" transform="translate(0 -28.36)"/><path class="cls-4" d="M261.13,117.52H227.29V105.28Zm0,0Z" transform="translate(0 -28.36)"/><polygon points="227.29 76.92 261.13 76.92 261.13 89.16 227.29 76.92"/><polygon class="cls-4" points="227.29 76.92 261.13 76.92 261.13 89.16 227.29 76.92"/><path d="M310.57,105.28l6,12.24h-6Zm6,0h-6l6,12.24Z" transform="translate(0 -28.36)"/><path class="cls-4" d="M310.57,105.28l6,12.24h-6Zm6,0h-6l6,12.24Z" transform="translate(0 -28.36)"/><path d="M316.57,105.28h0Z" transform="translate(0 -28.36)"/><path class="cls-4" d="M316.57,105.28h0Z" transform="translate(0 -28.36)"/><path d="M326.41,117.52h-9.84V105.28Zm0,0Z" transform="translate(0 -28.36)"/><path class="cls-4" d="M326.41,117.52h-9.84V105.28Zm0,0Z" transform="translate(0 -28.36)"/><polygon points="316.57 76.92 326.41 76.92 326.41 89.16 316.57 76.92"/><polygon class="cls-4" points="316.57 76.92 326.41 76.92 326.41 89.16 316.57 76.92"/><path d="M326.41,105.28h0Z" transform="translate(0 -28.36)"/><path class="cls-4" d="M326.41,105.28h0Z" transform="translate(0 -28.36)"/><path d="M351.13,117.52H326.41V105.28Zm0,0Z" transform="translate(0 -28.36)"/><path class="cls-4" d="M351.13,117.52H326.41V105.28Zm0,0Z" transform="translate(0 -28.36)"/><polygon points="326.41 76.92 351.13 76.92 351.13 89.16 326.41 76.92"/><polygon class="cls-4" points="326.41 76.92 351.13 76.92 351.13 89.16 326.41 76.92"/><path d="M439,105.28h0Z" transform="translate(0 -28.36)"/><path class="cls-4" d="M439,105.28h0Z" transform="translate(0 -28.36)"/><path d="M457.21,117.52H439V105.28Zm0,0Z" transform="translate(0 -28.36)"/><path class="cls-4" d="M457.21,117.52H439V105.28Zm0,0Z" transform="translate(0 -28.36)"/><polygon points="438.97 76.92 457.21 76.92 457.21 89.16 438.97 76.92"/><polygon class="cls-4" points="438.97 76.92 457.21 76.92 457.21 89.16 438.97 76.92"/><path d="M457.21,105.28h0Z" transform="translate(0 -28.36)"/><path class="cls-4" d="M457.21,105.28h0Z" transform="translate(0 -28.36)"/><path d="M467.05,117.52h-9.84V105.28Zm0,0Z" transform="translate(0 -28.36)"/><path class="cls-4" d="M467.05,117.52h-9.84V105.28Zm0,0Z" transform="translate(0 -28.36)"/><polygon points="457.21 76.92 467.05 76.92 467.05 89.16 457.21 76.92"/><polygon class="cls-4" points="457.21 76.92 467.05 76.92 467.05 89.16 457.21 76.92"/><path d="M467.05,105.28Z" transform="translate(0 -28.36)"/><path class="cls-4" d="M467.05,105.28Z" transform="translate(0 -28.36)"/><line class="cls-4" x1="351.13" y1="69" x2="310.57" y2="69"/><line class="cls-4" x1="467.05" y1="69" x2="438.97" y2="69"/><line class="cls-4" x1="177.85" y1="69" x2="124.57" y2="69"/><line class="cls-4" x1="36.73" y1="69" x2="3.13" y2="69"/><line class="cls-4" x1="261.13" y1="69" x2="227.29" y2="69"/><line class="cls-4" x1="351.13" y1="69.48" x2="310.57" y2="69.48"/><line class="cls-4" x1="467.05" y1="69.48" x2="438.97" y2="69.48"/><line class="cls-4" x1="177.85" y1="69.48" x2="124.57" y2="69.48"/><line class="cls-4" x1="36.73" y1="69.48" x2="3.13" y2="69.48"/><line class="cls-4" x1="261.13" y1="69.48" x2="227.29" y2="69.48"/><line class="cls-4" x1="8.17" y1="89.16" x2="8.17" y2="76.92"/><line class="cls-4" x1="166.09" y1="89.16" x2="166.09" y2="76.92"/><line class="cls-4" x1="156.25" y1="76.92" x2="156.25" y2="89.16"/><line class="cls-4" x1="326.41" y1="89.16" x2="326.41" y2="76.92"/><line class="cls-4" x1="316.57" y1="76.92" x2="316.57" y2="89.16"/><line class="cls-4" x1="467.05" y1="89.16" x2="467.05" y2="76.92"/><line class="cls-4" x1="457.21" y1="76.92" x2="457.21" y2="89.16"/><polyline class="cls-4" points="467.05 63 467.05 69 467.05 69"/><polyline class="cls-4" points="467.05 69 467.05 69.48 467.05 71.4"/><polyline class="cls-4" points="261.13 71.4 261.13 76.92 261.13 89.16"/><polyline class="cls-4" points="263.29 63 263.29 69 261.13 69"/><polyline class="cls-4" points="261.13 69 261.13 69.48 261.13 71.4"/><polyline class="cls-4" points="310.57 71.4 310.57 76.92 310.57 89.16"/><polyline class="cls-4" points="308.65 63 308.65 69 310.57 69"/><polyline class="cls-4" points="310.57 69 310.57 69.48 310.57 71.4"/><polyline class="cls-4" points="177.85 71.4 177.85 76.92 177.85 89.16"/><polyline class="cls-4" points="179.77 63 179.77 69 177.85 69"/><polyline class="cls-4" points="177.85 69 177.85 69.48 177.85 71.4"/><polyline class="cls-4" points="227.29 71.4 227.29 76.92 227.29 89.16"/><polyline class="cls-4" points="225.13 63 225.13 69 227.29 69"/><polyline class="cls-4" points="227.29 69 227.29 69.48 227.29 71.4"/><polyline class="cls-4" points="351.13 71.4 351.13 76.92 351.13 89.16"/><polyline class="cls-4" points="353.05 63 353.05 69 351.13 69"/><polyline class="cls-4" points="351.13 69 351.13 69.48 351.13 71.4"/><polyline class="cls-4" points="438.97 71.4 438.97 76.92 438.97 89.16"/><polyline class="cls-4" points="436.81 63 436.81 69 438.97 69"/><polyline class="cls-4" points="438.97 69 438.97 69.48 438.97 71.4"/><polyline class="cls-4" points="36.73 71.4 36.73 76.92 36.73 89.16"/><polyline class="cls-4" points="38.65 63 38.65 69 36.73 69"/><polyline class="cls-4" points="36.73 69 36.73 69.48 36.73 71.4"/><polyline class="cls-4" points="124.57 71.4 124.57 76.92 124.57 89.16"/><polyline class="cls-4" points="122.65 63 122.65 69 124.57 69"/><polyline class="cls-4" points="124.57 69 124.57 69.48 124.57 71.4"/><line class="cls-4" x1="467.05" y1="63" x2="436.81" y2="63"/><line class="cls-4" x1="353.05" y1="63" x2="308.65" y2="63"/><line class="cls-4" x1="263.29" y1="63" x2="225.13" y2="63"/><line class="cls-4" x1="179.77" y1="63" x2="122.65" y2="63"/><line class="cls-4" x1="38.65" y1="63" x2="3.13" y2="63"/><line class="cls-4" x1="8.17" y1="89.16" x2="36.73" y2="89.16"/><line class="cls-4" x1="124.57" y1="89.16" x2="156.25" y2="89.16"/><line class="cls-4" x1="166.09" y1="89.16" x2="177.85" y2="89.16"/><line class="cls-4" x1="227.29" y1="89.16" x2="261.13" y2="89.16"/><line class="cls-4" x1="310.57" y1="89.16" x2="316.57" y2="89.16"/><line class="cls-4" x1="326.41" y1="89.16" x2="351.13" y2="89.16"/><line class="cls-4" x1="438.97" y1="89.16" x2="457.21" y2="89.16"/><polyline class="cls-4" points="467.05 69 467.05 69 467.05 69.48 467.05 71.4"/><line class="cls-4" x1="308.65" y1="63" x2="263.29" y2="63"/><line class="cls-4" x1="310.57" y1="89.16" x2="261.13" y2="89.16"/><path d="M304.57,97.36h0Z" transform="translate(0 -28.36)"/><path class="cls-4" d="M304.57,97.36h0Z" transform="translate(0 -28.36)"/><path d="M310.57,99.76h-6v-2.4Zm0,0Z" transform="translate(0 -28.36)"/><path class="cls-4" d="M310.57,99.76h-6v-2.4Zm0,0Z" transform="translate(0 -28.36)"/><polygon points="304.57 69 310.57 69 310.57 71.4 304.57 69"/><polygon class="cls-4" points="304.57 69 310.57 69 310.57 71.4 304.57 69"/><path d="M261.13,97.36h0Z" transform="translate(0 -28.36)"/><path class="cls-4" d="M261.13,97.36h0Z" transform="translate(0 -28.36)"/><path d="M267.13,99.76h-6v-2.4Zm0,0Z" transform="translate(0 -28.36)"/><path class="cls-4" d="M267.13,99.76h-6v-2.4Zm0,0Z" transform="translate(0 -28.36)"/><polygon points="261.13 69 267.13 69 267.13 71.4 261.13 69"/><polygon class="cls-4" points="261.13 69 267.13 69 267.13 71.4 261.13 69"/><polyline class="cls-4" points="310.57 71.4 304.57 71.4 304.57 69 310.57 69"/><polyline class="cls-4" points="261.13 69 267.13 69 267.13 71.4 261.13 71.4"/><line class="cls-4" x1="304.57" y1="71.4" x2="267.13" y2="71.4"/><line class="cls-4" x1="267.13" y1="69" x2="304.57" y2="69"/><polyline class="cls-4" points="308.65 69 310.57 69 310.57 69.48 310.57 71.4"/><polyline class="cls-4" points="263.29 69 261.13 69 261.13 69.48 261.13 71.4"/><line class="cls-4" x1="225.13" y1="63" x2="179.77" y2="63"/><line class="cls-4" x1="227.29" y1="89.16" x2="177.85" y2="89.16"/><path d="M221.29,97.36h0Z" transform="translate(0 -28.36)"/><path class="cls-4" d="M221.29,97.36h0Z" transform="translate(0 -28.36)"/><path d="M227.29,99.76h-6v-2.4Zm0,0Z" transform="translate(0 -28.36)"/><path class="cls-4" d="M227.29,99.76h-6v-2.4Zm0,0Z" transform="translate(0 -28.36)"/><polygon points="221.29 69 227.29 69 227.29 71.4 221.29 69"/><polygon class="cls-4" points="221.29 69 227.29 69 227.29 71.4 221.29 69"/><path d="M177.85,97.36h0Z" transform="translate(0 -28.36)"/><path class="cls-4" d="M177.85,97.36h0Z" transform="translate(0 -28.36)"/><path d="M183.85,99.76h-6v-2.4Zm0,0Z" transform="translate(0 -28.36)"/><path class="cls-4" d="M183.85,99.76h-6v-2.4Zm0,0Z" transform="translate(0 -28.36)"/><polygon points="177.85 69 183.85 69 183.85 71.4 177.85 69"/><polygon class="cls-4" points="177.85 69 183.85 69 183.85 71.4 177.85 69"/><polyline class="cls-4" points="227.29 71.4 221.29 71.4 221.29 69 227.29 69"/><polyline class="cls-4" points="177.85 69 183.85 69 183.85 71.4 177.85 71.4"/><line class="cls-4" x1="221.29" y1="71.4" x2="183.85" y2="71.4"/><line class="cls-4" x1="183.85" y1="69" x2="221.29" y2="69"/><polyline class="cls-4" points="225.13 69 227.29 69 227.29 69.48 227.29 71.4"/><polyline class="cls-4" points="179.77 69 177.85 69 177.85 69.48 177.85 71.4"/><line class="cls-4" x1="436.81" y1="63" x2="353.05" y2="63"/><line class="cls-4" x1="438.97" y1="89.16" x2="351.13" y2="89.16"/><path d="M433,97.36h0Z" transform="translate(0 -28.36)"/><path class="cls-4" d="M433,97.36h0Z" transform="translate(0 -28.36)"/><path d="M439,99.76h-6v-2.4Zm0,0Z" transform="translate(0 -28.36)"/><path class="cls-4" d="M439,99.76h-6v-2.4Zm0,0Z" transform="translate(0 -28.36)"/><polygon points="432.97 69 438.97 69 438.97 71.4 432.97 69"/><polygon class="cls-4" points="432.97 69 438.97 69 438.97 71.4 432.97 69"/><path d="M395.05,97.36h0Z" transform="translate(0 -28.36)"/><path class="cls-4" d="M395.05,97.36h0Z" transform="translate(0 -28.36)"/><path d="M397,99.76h-1.92v-2.4Zm0,0Z" transform="translate(0 -28.36)"/><path class="cls-4" d="M397,99.76h-1.92v-2.4Zm0,0Z" transform="translate(0 -28.36)"/><polygon points="395.05 69 396.97 69 396.97 71.4 395.05 69"/><polygon class="cls-4" points="395.05 69 396.97 69 396.97 71.4 395.05 69"/><path d="M392.89,97.36h0Z" transform="translate(0 -28.36)"/><path class="cls-4" d="M392.89,97.36h0Z" transform="translate(0 -28.36)"/><path d="M395.05,99.76h-2.16v-2.4Zm0,0Z" transform="translate(0 -28.36)"/><path class="cls-4" d="M395.05,99.76h-2.16v-2.4Zm0,0Z" transform="translate(0 -28.36)"/><polygon points="392.89 69 395.05 69 395.05 71.4 392.89 69"/><polygon class="cls-4" points="392.89 69 395.05 69 395.05 71.4 392.89 69"/><path d="M351.13,97.36h0Z" transform="translate(0 -28.36)"/><path class="cls-4" d="M351.13,97.36h0Z" transform="translate(0 -28.36)"/><path d="M356.89,99.76h-5.76v-2.4Zm0,0Z" transform="translate(0 -28.36)"/><path class="cls-4" d="M356.89,99.76h-5.76v-2.4Zm0,0Z" transform="translate(0 -28.36)"/><polygon points="351.13 69 356.89 69 356.89 71.4 351.13 69"/><polygon class="cls-4" points="351.13 69 356.89 69 356.89 71.4 351.13 69"/><polyline class="cls-4" points="438.97 71.4 432.97 71.4 432.97 69 438.97 69"/><polyline class="cls-4" points="395.05 69 396.97 69 396.97 71.4 395.05 71.4"/><line class="cls-4" x1="432.97" y1="71.4" x2="396.97" y2="71.4"/><line class="cls-4" x1="396.97" y1="69" x2="432.97" y2="69"/><polyline class="cls-4" points="395.05 71.4 392.89 71.4 392.89 69 395.05 69"/><polyline class="cls-4" points="351.13 69 356.89 69 356.89 71.4 351.13 71.4"/><line class="cls-4" x1="392.89" y1="71.4" x2="356.89" y2="71.4"/><line class="cls-4" x1="356.89" y1="69" x2="392.89" y2="69"/><polyline class="cls-4" points="436.81 69 438.97 69 438.97 69.48 438.97 71.4"/><polyline class="cls-4" points="353.05 69 351.13 69 351.13 69.48 351.13 71.4"/><line class="cls-4" x1="122.65" y1="63" x2="38.65" y2="63"/><line class="cls-4" x1="124.57" y1="89.16" x2="36.73" y2="89.16"/><path d="M118.57,97.36h0Z" transform="translate(0 -28.36)"/><path class="cls-4" d="M118.57,97.36h0Z" transform="translate(0 -28.36)"/><path d="M124.57,99.76h-6v-2.4Zm0,0Z" transform="translate(0 -28.36)"/><path class="cls-4" d="M124.57,99.76h-6v-2.4Zm0,0Z" transform="translate(0 -28.36)"/><polygon points="118.57 69 124.57 69 124.57 71.4 118.57 69"/><polygon class="cls-4" points="118.57 69 124.57 69 124.57 71.4 118.57 69"/><path d="M80.65,97.36h0Z" transform="translate(0 -28.36)"/><path class="cls-4" d="M80.65,97.36h0Z" transform="translate(0 -28.36)"/><path d="M82.57,99.76H80.65v-2.4Zm0,0Z" transform="translate(0 -28.36)"/><path class="cls-4" d="M82.57,99.76H80.65v-2.4Zm0,0Z" transform="translate(0 -28.36)"/><polygon points="80.65 69 82.57 69 82.57 71.4 80.65 69"/><polygon class="cls-4" points="80.65 69 82.57 69 82.57 71.4 80.65 69"/><path d="M78.73,97.36h0Z" transform="translate(0 -28.36)"/><path class="cls-4" d="M78.73,97.36h0Z" transform="translate(0 -28.36)"/><path d="M80.65,99.76H78.73v-2.4Zm0,0Z" transform="translate(0 -28.36)"/><path class="cls-4" d="M80.65,99.76H78.73v-2.4Zm0,0Z" transform="translate(0 -28.36)"/><polygon points="78.73 69 80.65 69 80.65 71.4 78.73 69"/><polygon class="cls-4" points="78.73 69 80.65 69 80.65 71.4 78.73 69"/><path d="M36.73,97.36h0Z" transform="translate(0 -28.36)"/><path class="cls-4" d="M36.73,97.36h0Z" transform="translate(0 -28.36)"/><path d="M42.73,99.76h-6v-2.4Zm0,0Z" transform="translate(0 -28.36)"/><path class="cls-4" d="M42.73,99.76h-6v-2.4Zm0,0Z" transform="translate(0 -28.36)"/><polygon points="36.73 69 42.73 69 42.73 71.4 36.73 69"/><polygon class="cls-4" points="36.73 69 42.73 69 42.73 71.4 36.73 69"/><polyline class="cls-4" points="124.57 71.4 118.57 71.4 118.57 69 124.57 69"/><polyline class="cls-4" points="80.65 69 82.57 69 82.57 71.4 80.65 71.4"/><line class="cls-4" x1="118.57" y1="71.4" x2="82.57" y2="71.4"/><line class="cls-4" x1="82.57" y1="69" x2="118.57" y2="69"/><polyline class="cls-4" points="80.65 71.4 78.73 71.4 78.73 69 80.65 69"/><polyline class="cls-4" points="36.73 69 42.73 69 42.73 71.4 36.73 71.4"/><line class="cls-4" x1="78.73" y1="71.4" x2="42.73" y2="71.4"/><line class="cls-4" x1="42.73" y1="69" x2="78.73" y2="69"/><polyline class="cls-4" points="122.65 69 124.57 69 124.57 69.48 124.57 71.4"/><polyline class="cls-4" points="38.65 69 36.73 69 36.73 69.48 36.73 71.4"/><path d="M.25,105.28h0Z" transform="translate(0 -28.36)"/><path class="cls-4" d="M.25,105.28h0Z" transform="translate(0 -28.36)"/><path d="M3.13,117.52H.25V105.28Zm0,0Z" transform="translate(0 -28.36)"/><path class="cls-4" d="M3.13,117.52H.25V105.28Zm0,0Z" transform="translate(0 -28.36)"/><polygon points="0.25 76.92 3.13 76.92 3.13 89.16 0.25 76.92"/><polygon class="cls-4" points="0.25 76.92 3.13 76.92 3.13 89.16 0.25 76.92"/><line class="cls-4" x1="0.25" y1="76.92" x2="0.25" y2="89.16"/><polyline class="cls-4" points="374.17 370.44 374.17 377.88 391.45 377.88 391.45 370.44"/><line class="cls-4" x1="385.69" y1="377.88" x2="380.17" y2="377.88"/><line class="cls-4" x1="384.25" y1="371.88" x2="383.53" y2="371.88"/><line class="cls-4" x1="382.81" y1="373.56" x2="382.81" y2="372.6"/><line class="cls-4" x1="382.33" y1="371.88" x2="381.37" y2="371.88"/><line class="cls-4" x1="382.81" y1="371.4" x2="382.81" y2="370.44"/><path class="cls-4" d="M375.19,398.42a7.87,7.87,0,0,0,3,3.69" transform="translate(0 -28.36)"/><path class="cls-4" d="M378.18,402a7.83,7.83,0,0,0,4.65,1.09" transform="translate(0 -28.36)"/><path class="cls-4" d="M387.4,402.11a7.85,7.85,0,0,0,3-3.69" transform="translate(0 -28.36)"/><path class="cls-4" d="M382.78,403.09a7.81,7.81,0,0,0,4.65-1.09" transform="translate(0 -28.36)"/><path class="cls-4" d="M382.12,392.83a14.47,14.47,0,0,0-5.27,1.44" transform="translate(0 -28.36)"/><path class="cls-4" d="M391.44,398.86a4.45,4.45,0,0,0-1.65-3.65" transform="translate(0 -28.36)"/><path class="cls-4" d="M383.28,393.06a7.88,7.88,0,0,0-1.19,0" transform="translate(0 -28.36)"/><path class="cls-4" d="M377.85,401.78a31.42,31.42,0,0,0,9.68,0" transform="translate(0 -28.36)"/><path class="cls-4" d="M388.5,404.87a11,11,0,0,0,2.47-7.1" transform="translate(0 -28.36)"/><path class="cls-4" d="M382.76,405.75a21.31,21.31,0,0,0,5-.53" transform="translate(0 -28.36)"/><path class="cls-4" d="M387.78,405a1.28,1.28,0,0,0,.73-.45" transform="translate(0 -28.36)"/><path class="cls-4" d="M382.66,405a36,36,0,0,0,4.86-.35" transform="translate(0 -28.36)"/><path class="cls-4" d="M388.54,404.14a9.74,9.74,0,0,0,2.43-6.55" transform="translate(0 -28.36)"/><path class="cls-4" d="M387.67,404.54a1.35,1.35,0,0,0,.81-.43" transform="translate(0 -28.36)"/><path class="cls-4" d="M374.65,397.6a9.68,9.68,0,0,0,2.44,6.55" transform="translate(0 -28.36)"/><path class="cls-4" d="M374.41,397.54a11,11,0,0,0,2.47,7.1" transform="translate(0 -28.36)"/><path class="cls-4" d="M377.91,404.69a35.86,35.86,0,0,0,4.86.34" transform="translate(0 -28.36)"/><path class="cls-4" d="M377.92,405.22a21.23,21.23,0,0,0,5,.53" transform="translate(0 -28.36)"/><path class="cls-4" d="M377.14,404.11a1.3,1.3,0,0,0,.81.43" transform="translate(0 -28.36)"/><path class="cls-4" d="M377.11,404.55a1.25,1.25,0,0,0,.73.45" transform="translate(0 -28.36)"/><path class="cls-4" d="M375.83,395.21a4.45,4.45,0,0,0-1.66,3.65" transform="translate(0 -28.36)"/><path class="cls-4" d="M376.93,394.51a6.76,6.76,0,0,0-1.16.75" transform="translate(0 -28.36)"/><path class="cls-4" d="M389.84,395.26a6.32,6.32,0,0,0-1.15-.75" transform="translate(0 -28.36)"/><path class="cls-4" d="M388.53,394.27a14.47,14.47,0,0,0-5.27-1.44" transform="translate(0 -28.36)"/><path class="cls-4" d="M385.08,394a10.16,10.16,0,0,0-4.78,0" transform="translate(0 -28.36)"/><path class="cls-4" d="M376.24,396.29a2.54,2.54,0,0,0-.87,2.08" transform="translate(0 -28.36)"/><path class="cls-4" d="M380.32,394.14a9.39,9.39,0,0,0-4.35,2" transform="translate(0 -28.36)"/><path class="cls-4" d="M390.24,398.37a2.5,2.5,0,0,0-.86-2.08" transform="translate(0 -28.36)"/><path class="cls-4" d="M389.41,396.14a9.47,9.47,0,0,0-4.36-2" transform="translate(0 -28.36)"/><path class="cls-4" d="M383.77,400.11a1.08,1.08,0,1,0-2.16,0,1.08,1.08,0,0,0,2.16,0" transform="translate(0 -28.36)"/><path class="cls-4" d="M383.53,400.11a.84.84,0,0,0-1.68,0,.84.84,0,0,0,1.68,0" transform="translate(0 -28.36)"/><line class="cls-4" x1="426.01" y1="341.88" x2="408.73" y2="341.88"/><polyline class="cls-4" points="426.97 342.6 433.45 342.6 433.45 324.36"/><line class="cls-4" x1="422.89" y1="333.48" x2="422.89" y2="326.76"/><polyline class="cls-4" points="408.97 341.88 422.89 340.2 422.89 333.48"/><line class="cls-4" x1="408.97" y1="325.08" x2="422.89" y2="326.76"/><line class="cls-4" x1="408.97" y1="341.4" x2="422.89" y2="339.72"/><line class="cls-4" x1="408.97" y1="325.56" x2="422.89" y2="327"/><line class="cls-4" x1="426.01" y1="325.08" x2="408.73" y2="325.08"/><line class="cls-4" x1="433.45" y1="324.36" x2="426.97" y2="324.36"/><polyline class="cls-4" points="408.97 341.88 407.05 341.64 405.13 340.92 403.69 339.72 402.25 338.28 401.53 336.36 401.05 334.44 401.05 332.52 401.53 330.36 402.25 328.68 403.69 327.24 405.13 326.04 407.05 325.32 408.97 325.08"/><polyline class="cls-4" points="408.97 341.4 407.05 341.16 405.37 340.44 403.93 339.48 402.73 338.04 401.77 336.36 401.29 334.44 401.29 332.52 401.77 330.6 402.73 328.92 403.93 327.48 405.37 326.28 407.05 325.8 408.97 325.56"/><polyline class="cls-4" points="426.97 324.36 426.73 324.36 426.49 324.36 426.25 324.6 426.25 324.84 426.01 324.84 426.01 325.08 426.01 325.32 425.53 333.48 426.01 341.64 426.01 341.88 426.25 342.12 426.25 342.36 426.49 342.36 426.73 342.6 426.97 342.6"/><polyline class="cls-4" points="430.33 333.48 430.33 333.24 430.33 333 430.09 333 430.09 332.76 429.85 332.76 429.85 332.52 429.61 332.52 429.37 332.52 429.13 332.52 428.89 332.76 428.65 333 428.41 333.24 428.41 333.48 428.41 333.72 428.65 333.96 428.89 334.2 429.13 334.2 429.37 334.44 429.61 334.2 429.85 334.2 430.09 333.96 430.33 333.72 430.33 333.48"/><path d="M2.17,406.23l202.32,9.84H2.17Zm202.32,0H2.17l202.32,9.84Z" transform="translate(0 -28.36)"/><path class="cls-4" d="M2.17,406.23l202.32,9.84H2.17Zm202.32,0H2.17l202.32,9.84Z" transform="translate(0 -28.36)"/><path d="M253.93,406.23l213.12,9.84H253.93Zm203.28,0H253.93l213.12,9.84Z" transform="translate(0 -28.36)"/><path class="cls-4" d="M253.93,406.23l213.12,9.84H253.93Zm203.28,0H253.93l213.12,9.84Z" transform="translate(0 -28.36)"/><line class="cls-4" x1="204.49" y1="387.72" x2="204.49" y2="377.88"/><polyline class="cls-4" points="253.93 387.72 253.93 377.88 457.21 377.88"/><polyline class="cls-4" points="204.49 377.88 2.17 377.88 2.17 387.72 204.49 387.72"/><line class="cls-4" x1="253.93" y1="387.72" x2="370.33" y2="387.72"/><line class="cls-4" x1="380.17" y1="387.72" x2="467.05" y2="387.72"/><path class="cls-4" d="M251.77,406.11a45.48,45.48,0,0,0-45.48-45.48" transform="translate(0 -28.36)"/><path d="M251.77,406.23l2.16,9.84h-2.16Zm2.16,0h-2.16l2.16,9.84Z" transform="translate(0 -28.36)"/><path class="cls-4" d="M251.77,406.23l2.16,9.84h-2.16Zm2.16,0h-2.16l2.16,9.84Z" transform="translate(0 -28.36)"/><path d="M204.49,406.23l1.92,9.84h-1.92Zm1.92,0h-1.92l1.92,9.84Z" transform="translate(0 -28.36)"/><path class="cls-4" d="M204.49,406.23l1.92,9.84h-1.92Zm1.92,0h-1.92l1.92,9.84Z" transform="translate(0 -28.36)"/><polyline class="cls-4" points="253.93 387.72 251.77 387.72 251.77 377.88 253.93 377.88 253.93 387.72"/><polyline class="cls-4" points="204.49 377.88 206.41 377.88 206.41 387.72 204.49 387.72 204.49 377.88"/><line class="cls-4" x1="206.41" y1="377.88" x2="206.41" y2="332.52"/><line class="cls-4" x1="253.93" y1="387.72" x2="253.93" y2="377.88"/><line class="cls-4" x1="204.49" y1="387.72" x2="204.49" y2="377.88"/><path d="M322.33,154.48l4.08,5h-4.08Zm4.08,0h-4.08l4.08,5Z" transform="translate(0 -28.36)"/><path class="cls-4" d="M322.33,154.48l4.08,5h-4.08Zm4.08,0h-4.08l4.08,5Z" transform="translate(0 -28.36)"/><polyline class="cls-4" points="326.41 131.16 326.41 126.12 322.33 126.12 322.33 131.16"/><line class="cls-4" x1="0.25" y1="387.72" x2="0.25" y2="385.32"/><line class="cls-4" x1="0.25" y1="387.72" x2="0.25" y2="385.32"/><path d="M.25,398.79" transform="translate(0 -28.36)"/><line x1="0.25" y1="370.44" x2="0.25" y2="364.44"/><path class="cls-4" d="M.25,398.79" transform="translate(0 -28.36)"/><line class="cls-4" x1="0.25" y1="370.44" x2="0.25" y2="364.44"/><line class="cls-4" x1="0.25" y1="370.44" x2="0.25" y2="364.44"/><path d="M.25,368.31" transform="translate(0 -28.36)"/><line x1="0.25" y1="339.96" x2="0.25" y2="333.96"/><path class="cls-4" d="M.25,368.31" transform="translate(0 -28.36)"/><line class="cls-4" x1="0.25" y1="339.96" x2="0.25" y2="333.96"/><path class="cls-4" d="M.25,362.31" transform="translate(0 -28.36)"/><path d="M368.41,338.07h0Z" transform="translate(0 -28.36)"/><path class="cls-4" d="M368.41,338.07h0Z" transform="translate(0 -28.36)"/><path d="M457.21,342.15h-88.8v-4.08Zm0,0Z" transform="translate(0 -28.36)"/><path class="cls-4" d="M457.21,342.15h-88.8v-4.08Zm0,0Z" transform="translate(0 -28.36)"/><polygon points="368.41 309.72 457.21 309.72 457.21 313.8 368.41 309.72"/><polygon class="cls-4" points="368.41 309.72 457.21 309.72 457.21 313.8 368.41 309.72"/><path d="M326.41,338.07h0Z" transform="translate(0 -28.36)"/><path class="cls-4" d="M326.41,338.07h0Z" transform="translate(0 -28.36)"/><path d="M328.81,342.15h-2.4v-4.08Zm0,0Z" transform="translate(0 -28.36)"/><path class="cls-4" d="M328.81,342.15h-2.4v-4.08Zm0,0Z" transform="translate(0 -28.36)"/><polygon points="326.41 309.72 328.81 309.72 328.81 313.8 326.41 309.72"/><polygon class="cls-4" points="326.41 309.72 328.81 309.72 328.81 313.8 326.41 309.72"/><path d="M316.57,338.07h0Z" transform="translate(0 -28.36)"/><path class="cls-4" d="M316.57,338.07h0Z" transform="translate(0 -28.36)"/><path d="M326.41,342.15h-9.84v-4.08Zm0,0Z" transform="translate(0 -28.36)"/><path class="cls-4" d="M326.41,342.15h-9.84v-4.08Zm0,0Z" transform="translate(0 -28.36)"/><polygon points="316.57 309.72 326.41 309.72 326.41 313.8 316.57 309.72"/><polygon class="cls-4" points="316.57 309.72 326.41 309.72 326.41 313.8 316.57 309.72"/><path d="M305.29,338.07h0Z" transform="translate(0 -28.36)"/><path class="cls-4" d="M305.29,338.07h0Z" transform="translate(0 -28.36)"/><path d="M316.57,342.15H305.29v-4.08Zm0,0Z" transform="translate(0 -28.36)"/><path class="cls-4" d="M316.57,342.15H305.29v-4.08Zm0,0Z" transform="translate(0 -28.36)"/><polygon points="305.29 309.72 316.57 309.72 316.57 313.8 305.29 309.72"/><polygon class="cls-4" points="305.29 309.72 316.57 309.72 316.57 313.8 305.29 309.72"/><path d="M166.09,338.07h0Z" transform="translate(0 -28.36)"/><path class="cls-4" d="M166.09,338.07h0Z" transform="translate(0 -28.36)"/><path d="M260.89,342.15h-94.8v-4.08Zm0,0Z" transform="translate(0 -28.36)"/><path class="cls-4" d="M260.89,342.15h-94.8v-4.08Zm0,0Z" transform="translate(0 -28.36)"/><polygon points="166.09 309.72 260.89 309.72 260.89 313.8 166.09 309.72"/><polygon class="cls-4" points="166.09 309.72 260.89 309.72 260.89 313.8 166.09 309.72"/><path d="M156.25,338.07h0Z" transform="translate(0 -28.36)"/><path class="cls-4" d="M156.25,338.07h0Z" transform="translate(0 -28.36)"/><path d="M166.09,342.15h-9.84v-4.08Zm0,0Z" transform="translate(0 -28.36)"/><path class="cls-4" d="M166.09,342.15h-9.84v-4.08Zm0,0Z" transform="translate(0 -28.36)"/><polygon points="156.25 309.72 166.09 309.72 166.09 313.8 156.25 309.72"/><polygon class="cls-4" points="156.25 309.72 166.09 309.72 166.09 313.8 156.25 309.72"/><line class="cls-4" x1="368.41" y1="309.72" x2="368.41" y2="313.8"/><line class="cls-4" x1="326.41" y1="313.8" x2="326.41" y2="309.72"/><line class="cls-4" x1="316.57" y1="309.72" x2="316.57" y2="313.8"/><line class="cls-4" x1="328.81" y1="309.72" x2="328.81" y2="313.8"/><line class="cls-4" x1="305.29" y1="309.72" x2="305.29" y2="313.8"/><line class="cls-4" x1="166.09" y1="313.8" x2="166.09" y2="309.72"/><line class="cls-4" x1="156.25" y1="309.72" x2="156.25" y2="313.8"/><line class="cls-4" x1="260.89" y1="309.72" x2="260.89" y2="313.8"/><line class="cls-4" x1="457.21" y1="309.72" x2="368.41" y2="309.72"/><line class="cls-4" x1="328.81" y1="309.72" x2="326.41" y2="309.72"/><line class="cls-4" x1="316.57" y1="309.72" x2="305.29" y2="309.72"/><line class="cls-4" x1="260.89" y1="309.72" x2="166.09" y2="309.72"/><line class="cls-4" x1="156.25" y1="309.72" x2="156.25" y2="313.8"/><line class="cls-4" x1="166.09" y1="313.8" x2="260.89" y2="313.8"/><line class="cls-4" x1="305.29" y1="313.8" x2="316.57" y2="313.8"/><line class="cls-4" x1="326.41" y1="313.8" x2="328.81" y2="313.8"/><line class="cls-4" x1="368.41" y1="313.8" x2="370.33" y2="313.8"/><line class="cls-4" x1="374.17" y1="313.8" x2="433.45" y2="313.8"/><polyline class="cls-4" points="437.53 313.8 457.21 313.8 457.21 309.72"/><line class="cls-4" x1="260.89" y1="309.72" x2="263.29" y2="309.72"/><line class="cls-4" x1="260.89" y1="313.8" x2="263.29" y2="313.8"/><line class="cls-4" x1="305.29" y1="309.72" x2="302.65" y2="309.72"/><line class="cls-4" x1="305.29" y1="313.8" x2="302.65" y2="313.8"/><line class="cls-4" x1="263.29" y1="313.8" x2="263.29" y2="309.72"/><polyline class="cls-4" points="302.65 313.8 302.65 309.72 302.65 270.36"/><path class="cls-4" d="M302.53,298.47A39.48,39.48,0,0,0,263.05,338" transform="translate(0 -28.36)"/><line class="cls-4" x1="368.41" y1="309.72" x2="365.77" y2="309.72"/><line class="cls-4" x1="368.41" y1="313.8" x2="365.77" y2="313.8"/><line class="cls-4" x1="328.81" y1="309.72" x2="331.21" y2="309.72"/><line class="cls-4" x1="328.81" y1="313.8" x2="331.21" y2="313.8"/><line class="cls-4" x1="365.77" y1="313.8" x2="365.77" y2="309.72"/><polyline class="cls-4" points="331.21 313.8 331.21 309.72 331.21 275.16"/><path class="cls-4" d="M365.53,338a34.44,34.44,0,0,0-34.44-34.44" transform="translate(0 -28.36)"/><path d="M156.25,154.48h0Z" transform="translate(0 -28.36)"/><path class="cls-4" d="M156.25,154.48h0Z" transform="translate(0 -28.36)"/><path d="M160.09,338.07h-3.84V154.48Zm0,0Z" transform="translate(0 -28.36)"/><path class="cls-4" d="M160.09,338.07h-3.84V154.48Zm0,0Z" transform="translate(0 -28.36)"/><polygon points="156.25 126.12 160.09 126.12 160.09 309.72 156.25 126.12"/><polygon class="cls-4" points="156.25 126.12 160.09 126.12 160.09 309.72 156.25 126.12"/><polyline class="cls-4" points="160.09 309.72 160.09 126.12 156.25 126.12 156.25 309.72"/><polygon points="29.77 322.44 29.77 326.28 25.93 326.28 29.77 322.44"/><polygon class="cls-4" points="29.77 322.44 29.77 326.28 25.93 326.28 29.77 322.44"/><path d="M29.77,406.23H25.93v-51.6Zm0,0Z" transform="translate(0 -28.36)"/><path class="cls-4" d="M29.77,406.23H25.93v-51.6Zm0,0Z" transform="translate(0 -28.36)"/><polygon points="25.93 326.28 29.77 326.28 29.77 377.88 25.93 326.28"/><polygon class="cls-4" points="25.93 326.28 29.77 326.28 29.77 377.88 25.93 326.28"/><line class="cls-4" x1="25.93" y1="326.28" x2="25.93" y2="349.32"/><polyline class="cls-4" points="25.93 353.16 25.93 377.88 29.77 377.88 29.77 322.44"/><path d="M6,306.15H6Z" transform="translate(0 -28.36)"/><path class="cls-4" d="M6,306.15H6Z" transform="translate(0 -28.36)"/><path d="M101.77,310H6v-3.84Zm0,0Z" transform="translate(0 -28.36)"/><path class="cls-4" d="M101.77,310H6v-3.84Zm0,0Z" transform="translate(0 -28.36)"/><polygon points="6.01 277.8 101.77 277.8 101.77 281.64 6.01 277.8"/><polygon class="cls-4" points="6.01 277.8 101.77 277.8 101.77 281.64 6.01 277.8"/><line class="cls-4" x1="6.01" y1="281.64" x2="101.77" y2="281.64"/><polyline class="cls-4" points="101.77 277.8 6.01 277.8 6.01 281.64"/><path d="M370.33,342.15h0Z" transform="translate(0 -28.36)"/><path class="cls-4" d="M370.33,342.15h0Z" transform="translate(0 -28.36)"/><path d="M374.17,347h-3.84v-4.8Zm0,0Z" transform="translate(0 -28.36)"/><path class="cls-4" d="M374.17,347h-3.84v-4.8Zm0,0Z" transform="translate(0 -28.36)"/><polygon points="370.33 313.8 374.17 313.8 374.17 318.6 370.33 313.8"/><polygon class="cls-4" points="370.33 313.8 374.17 313.8 374.17 318.6 370.33 313.8"/><path d="M370.33,386.55h0Z" transform="translate(0 -28.36)"/><path class="cls-4" d="M370.33,386.55h0Z" transform="translate(0 -28.36)"/><path d="M374.17,406.23h-3.84V386.55Zm0,0Z" transform="translate(0 -28.36)"/><path class="cls-4" d="M374.17,406.23h-3.84V386.55Zm0,0Z" transform="translate(0 -28.36)"/><polygon points="370.33 358.2 374.17 358.2 374.17 377.88 370.33 358.2"/><polygon class="cls-4" points="370.33 358.2 374.17 358.2 374.17 377.88 370.33 358.2"/><line class="cls-4" x1="370.33" y1="318.6" x2="374.17" y2="318.6"/><line class="cls-4" x1="370.33" y1="358.2" x2="374.17" y2="358.2"/><line class="cls-4" x1="370.33" y1="313.8" x2="370.33" y2="318.6"/><polyline class="cls-4" points="370.33 358.2 370.33 377.88 374.17 377.88 374.17 358.2"/><line class="cls-4" x1="374.17" y1="318.6" x2="374.17" y2="313.8"/><line class="cls-4" x1="370.33" y1="318.6" x2="370.33" y2="321"/><line class="cls-4" x1="374.17" y1="318.6" x2="374.17" y2="321"/><line class="cls-4" x1="370.33" y1="358.2" x2="370.33" y2="355.56"/><line class="cls-4" x1="374.17" y1="358.2" x2="374.17" y2="355.56"/><line class="cls-4" x1="374.17" y1="321" x2="370.33" y2="321"/><polyline class="cls-4" points="374.17 355.56 370.33 355.56 353.05 325.8"/><path class="cls-4" d="M370.21,349.35A34.45,34.45,0,0,0,353,354" transform="translate(0 -28.36)"/><path d="M101.77,386.55h0Z" transform="translate(0 -28.36)"/><path class="cls-4" d="M101.77,386.55h0Z" transform="translate(0 -28.36)"/><path d="M105.85,406.23h-4.08V386.55Zm0,0Z" transform="translate(0 -28.36)"/><path class="cls-4" d="M105.85,406.23h-4.08V386.55Zm0,0Z" transform="translate(0 -28.36)"/><polygon points="101.77 358.2 105.85 358.2 105.85 377.88 101.77 358.2"/><polygon class="cls-4" points="101.77 358.2 105.85 358.2 105.85 377.88 101.77 358.2"/><path d="M101.77,306.15h0Z" transform="translate(0 -28.36)"/><path class="cls-4" d="M101.77,306.15h0Z" transform="translate(0 -28.36)"/><path d="M105.85,347h-4.08v-40.8Zm0,0Z" transform="translate(0 -28.36)"/><path class="cls-4" d="M105.85,347h-4.08v-40.8Zm0,0Z" transform="translate(0 -28.36)"/><polygon points="101.77 277.8 105.85 277.8 105.85 318.6 101.77 277.8"/><polygon class="cls-4" points="101.77 277.8 105.85 277.8 105.85 318.6 101.77 277.8"/><line class="cls-4" x1="105.85" y1="358.2" x2="101.77" y2="358.2"/><line class="cls-4" x1="105.85" y1="318.6" x2="101.77" y2="318.6"/><line class="cls-4" x1="105.85" y1="377.88" x2="105.85" y2="358.2"/><line class="cls-4" x1="105.85" y1="318.6" x2="105.85" y2="313.8"/><polyline class="cls-4" points="105.85 309.72 105.85 277.8 101.77 277.8"/><line class="cls-4" x1="101.77" y1="281.64" x2="101.77" y2="318.6"/><polyline class="cls-4" points="101.77 358.2 101.77 377.88 105.85 377.88"/><line class="cls-4" x1="105.85" y1="318.6" x2="105.85" y2="321"/><line class="cls-4" x1="101.77" y1="318.6" x2="101.77" y2="321"/><line class="cls-4" x1="105.85" y1="358.2" x2="105.85" y2="355.56"/><line class="cls-4" x1="101.77" y1="358.2" x2="101.77" y2="355.56"/><line class="cls-4" x1="101.77" y1="321" x2="105.85" y2="321"/><polyline class="cls-4" points="101.77 355.56 105.85 355.56 123.13 325.8"/><path class="cls-4" d="M123,354a34.5,34.5,0,0,0-17.22-4.62" transform="translate(0 -28.36)"/><path d="M6,377.67H6Z" transform="translate(0 -28.36)"/><path class="cls-4" d="M6,377.67H6Z" transform="translate(0 -28.36)"/><path d="M25.93,381.51H6v-3.84Zm0,0Z" transform="translate(0 -28.36)"/><path class="cls-4" d="M25.93,381.51H6v-3.84Zm0,0Z" transform="translate(0 -28.36)"/><polygon points="6.01 349.32 25.93 349.32 25.93 353.16 6.01 349.32"/><polygon class="cls-4" points="6.01 349.32 25.93 349.32 25.93 353.16 6.01 349.32"/><line class="cls-4" x1="6.01" y1="353.16" x2="25.93" y2="353.16"/><polyline class="cls-4" points="25.93 349.32 6.01 349.32 6.01 353.16"/><path d="M322.33,159.52l4.08,11.28h-4.08Zm4.08,0h-4.08l4.08,11.28Z" transform="translate(0 -28.36)"/><path class="cls-4" d="M322.33,159.52l4.08,11.28h-4.08Zm4.08,0h-4.08l4.08,11.28Z" transform="translate(0 -28.36)"/><path d="M322.33,289.35l4.08,48.72h-4.08Zm4.08,0h-4.08l4.08,48.72Z" transform="translate(0 -28.36)"/><path class="cls-4" d="M322.33,289.35l4.08,48.72h-4.08Zm4.08,0h-4.08l4.08,48.72Z" transform="translate(0 -28.36)"/><line class="cls-4" x1="322.33" y1="142.44" x2="326.41" y2="142.44"/><line class="cls-4" x1="322.33" y1="261" x2="326.41" y2="261"/><line class="cls-4" x1="322.33" y1="131.16" x2="322.33" y2="142.44"/><line class="cls-4" x1="322.33" y1="261" x2="322.33" y2="309.72"/><line class="cls-4" x1="326.41" y1="309.72" x2="326.41" y2="261"/><line class="cls-4" x1="326.41" y1="142.44" x2="326.41" y2="131.16"/><polyline class="cls-4" points="322.33 261 306.01 236.28 322.33 211.56"/><polyline class="cls-4" points="322.33 142.44 306.01 167.16 322.33 191.88"/><line class="cls-4" x1="322.33" y1="261" x2="326.41" y2="261"/><line class="cls-4" x1="322.33" y1="142.44" x2="326.41" y2="142.44"/><path d="M433.45,342.15h0Z" transform="translate(0 -28.36)"/><path class="cls-4" d="M433.45,342.15h0Z" transform="translate(0 -28.36)"/><path d="M433.45,342.15l4.08,64.08h-4.08Zm4.08,0h-4.08l4.08,64.08Z" transform="translate(0 -28.36)"/><path class="cls-4" d="M433.45,342.15l4.08,64.08h-4.08Zm4.08,0h-4.08l4.08,64.08Z" transform="translate(0 -28.36)"/><polyline class="cls-4" points="433.45 313.8 433.45 377.88 437.53 377.88 437.53 342.36"/><line class="cls-4" x1="437.53" y1="338.28" x2="437.53" y2="313.8"/><path d="M437.53,366.63l19.68,4.08H437.53Zm19.68,0H437.53l19.68,4.08Z" transform="translate(0 -28.36)"/><path class="cls-4" d="M437.53,366.63l19.68,4.08H437.53Zm19.68,0H437.53l19.68,4.08Z" transform="translate(0 -28.36)"/><polyline class="cls-4" points="437.53 342.36 457.21 342.36 457.21 338.28 437.53 338.28"/><path d="M155.77,338.07l.48,4.08h-.48Zm.48,0h-.48l.48,4.08Z" transform="translate(0 -28.36)"/><path class="cls-4" d="M155.77,338.07l.48,4.08h-.48Zm.48,0h-.48l.48,4.08Z" transform="translate(0 -28.36)"/><path d="M105.85,338.07h0Z" transform="translate(0 -28.36)"/><path class="cls-4" d="M105.85,338.07h0Z" transform="translate(0 -28.36)"/><path d="M111.37,342.15h-5.52v-4.08Zm0,0Z" transform="translate(0 -28.36)"/><path class="cls-4" d="M111.37,342.15h-5.52v-4.08Zm0,0Z" transform="translate(0 -28.36)"/><polygon points="105.85 309.72 111.37 309.72 111.37 313.8 105.85 309.72"/><polygon class="cls-4" points="105.85 309.72 111.37 309.72 111.37 313.8 105.85 309.72"/><line class="cls-4" x1="155.77" y1="309.72" x2="155.77" y2="313.8"/><line class="cls-4" x1="111.37" y1="309.72" x2="111.37" y2="313.8"/><line class="cls-4" x1="156.25" y1="309.72" x2="155.77" y2="309.72"/><line class="cls-4" x1="111.37" y1="309.72" x2="105.85" y2="309.72"/><line class="cls-4" x1="105.85" y1="313.8" x2="111.37" y2="313.8"/><polyline class="cls-4" points="155.77 313.8 156.25 313.8 156.25 309.72"/><line class="cls-4" x1="111.37" y1="309.72" x2="113.77" y2="309.72"/><line class="cls-4" x1="111.37" y1="313.8" x2="113.77" y2="313.8"/><line class="cls-4" x1="155.77" y1="309.72" x2="153.37" y2="309.72"/><line class="cls-4" x1="155.77" y1="313.8" x2="153.37" y2="313.8"/><line class="cls-4" x1="113.77" y1="313.8" x2="113.77" y2="309.72"/><polyline class="cls-4" points="153.37 313.8 153.37 309.72 153.37 270.36"/><path class="cls-4" d="M153.25,298.47A39.49,39.49,0,0,0,113.77,338" transform="translate(0 -28.36)"/><path d="M6,350.79l19.92,3.84H6Zm23.76,0H6l19.92,3.84Z" transform="translate(0 -28.36)"/><path class="cls-4" d="M6,350.79l19.92,3.84H6Zm23.76,0H6l19.92,3.84Z" transform="translate(0 -28.36)"/><polyline class="cls-4" points="29.77 322.44 6.01 322.44 6.01 326.28 25.93 326.28"/><polyline class="cls-4" points="309.85 33.48 308.65 34.68 308.65 63 309.85 63 309.85 33.48"/><polyline class="cls-4" points="263.29 34.68 262.09 33.48 263.29 34.68 308.65 34.68 309.85 33.48 262.09 33.48 262.09 63 263.29 63 263.29 34.68"/><polyline class="cls-4" points="262.57 33.96 309.13 33.96 309.13 63"/><polyline class="cls-4" points="264.49 42.36 307.45 42.36 307.45 58.2 264.49 58.2 264.49 42.36"/><polyline class="cls-4" points="264.49 43.8 307.45 43.8 307.45 58.2 264.49 58.2 264.49 43.8"/><line class="cls-4" x1="262.57" y1="33.96" x2="262.57" y2="63"/><polyline class="cls-4" points="430.09 282.6 430.09 309.72 390.49 309.72 390.49 282.6 430.09 282.6"/><polyline class="cls-4" points="392.89 285 414.25 285 414.25 304.92 392.89 304.92 392.89 285"/><line class="cls-4" x1="417.61" y1="285.24" x2="425.53" y2="285.24"/><line class="cls-4" x1="417.61" y1="288.6" x2="425.53" y2="288.6"/><line class="cls-4" x1="417.61" y1="291.96" x2="425.53" y2="291.96"/><line class="cls-4" x1="417.61" y1="295.08" x2="425.53" y2="295.08"/><line class="cls-4" x1="417.61" y1="298.44" x2="425.53" y2="298.44"/><line class="cls-4" x1="417.61" y1="301.56" x2="425.53" y2="301.56"/><polyline class="cls-4" points="430.09 280.2 430.09 183.48 457.21 183.48"/><line class="cls-4" x1="204.49" y1="313.8" x2="204.49" y2="313.8"/><line class="cls-4" x1="204.49" y1="331.08" x2="204.49" y2="345.72"/><line class="cls-4" x1="204.49" y1="353.64" x2="204.49" y2="368.52"/><line class="cls-4" x1="204.49" y1="377.88" x2="204.49" y2="377.88"/><polyline class="cls-4" points="430.09 280.2 370.33 280.2 370.33 309.72"/><path d="M457.21,292.71h0Z" transform="translate(0 -28.36)"/><path class="cls-4" d="M457.21,292.71h0Z" transform="translate(0 -28.36)"/><path d="M467.05,342.15h-9.84V292.71Zm0,0Z" transform="translate(0 -28.36)"/><path class="cls-4" d="M467.05,342.15h-9.84V292.71Zm0,0Z" transform="translate(0 -28.36)"/><polygon points="457.21 264.36 467.05 264.36 467.05 313.8 457.21 264.36"/><polygon class="cls-4" points="457.21 264.36 467.05 264.36 467.05 313.8 457.21 264.36"/><polyline class="cls-4" points="467.05 313.8 467.05 264.36 457.21 264.36 457.21 313.8 467.05 313.8"/><path d="M457.21,157.12h0Z" transform="translate(0 -28.36)"/><path class="cls-4" d="M457.21,157.12h0Z" transform="translate(0 -28.36)"/><path d="M467.05,292.71h-9.84V157.12Zm0,0Z" transform="translate(0 -28.36)"/><path class="cls-4" d="M467.05,292.71h-9.84V157.12Zm0,0Z" transform="translate(0 -28.36)"/><polygon points="457.21 128.76 467.05 128.76 467.05 264.36 457.21 128.76"/><polygon class="cls-4" points="457.21 128.76 467.05 128.76 467.05 264.36 457.21 128.76"/><polyline class="cls-4" points="467.05 264.36 467.05 128.76 457.21 128.76 457.21 264.36 467.05 264.36"/><path d="M370.33,416.07m9.84,0h-9.84" transform="translate(0 -28.36)"/><path class="cls-4" d="M370.33,416.07m9.84,0h-9.84" transform="translate(0 -28.36)"/><path class="cls-4" d="M380.17,416.07" transform="translate(0 -28.36)"/><path class="cls-4" d="M370.33,416.07" transform="translate(0 -28.36)"/><path d="M457.21,342.15h0Z" transform="translate(0 -28.36)"/><path class="cls-4" d="M457.21,342.15h0Z" transform="translate(0 -28.36)"/><path d="M457.21,406.23h9.84v9.84Zm0-64.08v64.08h9.84Z" transform="translate(0 -28.36)"/><path class="cls-4" d="M457.21,406.23h9.84v9.84Zm0-64.08v64.08h9.84Z" transform="translate(0 -28.36)"/><polygon points="457.21 313.8 467.05 313.8 467.05 377.88 457.21 313.8"/><polygon class="cls-4" points="457.21 313.8 467.05 313.8 467.05 377.88 457.21 313.8"/><line class="cls-4" x1="467.05" y1="387.72" x2="467.05" y2="321"/><polyline class="cls-4" points="467.05 317.16 467.05 313.8 457.21 313.8 457.21 377.88"/><path d="M457.21,117.52h0Z" transform="translate(0 -28.36)"/><path class="cls-4" d="M457.21,117.52h0Z" transform="translate(0 -28.36)"/><path d="M467.05,157.12h-9.84v-39.6Zm0,0Z" transform="translate(0 -28.36)"/><path class="cls-4" d="M467.05,157.12h-9.84v-39.6Zm0,0Z" transform="translate(0 -28.36)"/><polygon points="457.21 89.16 467.05 89.16 467.05 128.76 457.21 89.16"/><polygon class="cls-4" points="457.21 89.16 467.05 89.16 467.05 128.76 457.21 89.16"/><line class="cls-4" x1="467.05" y1="128.76" x2="467.05" y2="89.16"/><polyline class="cls-4" points="457.21 89.16 457.21 128.76 467.05 128.76"/><path d="M156.25,117.52h0Z" transform="translate(0 -28.36)"/><path class="cls-4" d="M156.25,117.52h0Z" transform="translate(0 -28.36)"/><path d="M166.09,154.48h-9.84v-37Zm0,0Z" transform="translate(0 -28.36)"/><path class="cls-4" d="M166.09,154.48h-9.84v-37Zm0,0Z" transform="translate(0 -28.36)"/><polygon points="156.25 89.16 166.09 89.16 166.09 126.12 156.25 89.16"/><polygon class="cls-4" points="156.25 89.16 166.09 89.16 166.09 126.12 156.25 89.16"/><polyline class="cls-4" points="156.25 89.16 156.25 126.12 166.09 126.12 166.09 89.16"/><path d="M326.41,338.07h-9.84V292.71Zm0,0Z" transform="translate(0 -28.36)"/><path class="cls-4" d="M326.41,338.07h-9.84V292.71Zm0,0Z" transform="translate(0 -28.36)"/><polygon points="316.57 264.36 326.41 264.36 326.41 309.72 316.57 264.36"/><polygon class="cls-4" points="316.57 264.36 326.41 264.36 326.41 309.72 316.57 264.36"/><polyline class="cls-4" points="326.41 309.72 326.41 264.36 316.57 264.36 316.57 309.72"/><path d="M166.09,338.07h-9.84V292.71Zm0,0Z" transform="translate(0 -28.36)"/><path class="cls-4" d="M166.09,338.07h-9.84V292.71Zm0,0Z" transform="translate(0 -28.36)"/><polygon points="156.25 264.36 166.09 264.36 166.09 309.72 156.25 264.36"/><polygon class="cls-4" points="156.25 264.36 166.09 264.36 166.09 309.72 156.25 264.36"/><polyline class="cls-4" points="166.09 309.72 166.09 264.36 156.25 264.36 156.25 309.72"/><path d="M316.57,117.52h0Z" transform="translate(0 -28.36)"/><path class="cls-4" d="M316.57,117.52h0Z" transform="translate(0 -28.36)"/><path d="M326.41,154.48h-9.84v-37Zm0,0Z" transform="translate(0 -28.36)"/><path class="cls-4" d="M326.41,154.48h-9.84v-37Zm0,0Z" transform="translate(0 -28.36)"/><polygon points="316.57 89.16 326.41 89.16 326.41 126.12 316.57 89.16"/><polygon class="cls-4" points="316.57 89.16 326.41 89.16 326.41 126.12 316.57 89.16"/><polyline class="cls-4" points="316.57 89.16 316.57 126.12 326.41 126.12 326.41 89.16"/><path d="M.25,117.52h0Z" transform="translate(0 -28.36)"/><path class="cls-4" d="M.25,117.52h0Z" transform="translate(0 -28.36)"/><path d="M8.17,416.07H.25V117.52Zm0,0Z" transform="translate(0 -28.36)"/><path class="cls-4" d="M8.17,416.07H.25V117.52Zm0,0Z" transform="translate(0 -28.36)"/><polygon points="0.25 89.16 8.17 89.16 8.17 387.72 0.25 89.16"/><polygon class="cls-4" points="0.25 89.16 8.17 89.16 8.17 387.72 0.25 89.16"/><polyline class="cls-4" points="0.25 89.16 0.25 387.72 8.17 387.72 8.17 89.16"/><text class="cls-5" transform="translate(384.25 357.24)">1.56</text><text class="cls-5" transform="translate(368.41 117)">11.85</text><text class="cls-5" transform="translate(60.73 345.91)">3.21</text><text class="cls-5" transform="translate(260.89 351.24)">6.97</text><text class="cls-5" transform="translate(215.29 117)">14.31</text><text class="cls-5" transform="translate(58.21 117)">12.12</text><text class="cls-5" transform="translate(229.71 189.6)">2К</text><text class="cls-5" transform="translate(219.18 214.94)">50.02</text><text class="cls-5" transform="translate(221.57 164.65)">№11</text><polyline class="cls-4" points="208.45 221.34 208.45 146.82 270.6 146.82 270.6 221.34"/><line class="cls-4" x1="208.45" y1="171.71" x2="270.6" y2="171.71"/><line class="cls-4" x1="208.45" y1="221.34" x2="270.6" y2="221.34"/><line class="cls-4" x1="208.45" y1="196.6" x2="270.6" y2="196.6"/><rect class="cls-6" x="0.25" y="63" width="8.7" height="20.66"/></svg>