<svg id="_56" data-name="56" xmlns="http://www.w3.org/2000/svg" viewBox="0 0 222.27 1065.35"><defs><style>.cls-1,.cls-6{fill:none;stroke-linecap:round;stroke-linejoin:round;stroke-width:0.5px;}.cls-1{stroke:#999;}.cls-2{isolation:isolate;font-size:12px;fill:#999;}.cls-2,.cls-4,.cls-5{font-family:PTSans-Regular, PT Sans;}.cls-3{letter-spacing:-0.01em;}.cls-4{font-size:20px;}.cls-5{font-size:24px;}.cls-6{stroke:#000;}</style></defs><title>5floor_56flat</title><line class="cls-1" x1="82.86" y1="10.8" x2="82.86" y2="2"/><polyline class="cls-1" points="86.45 5.3 82.95 1.8 79.45 5.3"/><text class="cls-2" transform="translate(92.28 10.2)"><tspan class="cls-3">у</tspan><tspan x="5.42" y="0">лица</tspan></text><line class="cls-1" x1="83.06" y1="1054.01" x2="83.06" y2="1062.81"/><polyline class="cls-1" points="79.45 1059.51 82.95 1063.01 86.45 1059.51"/><text class="cls-2" transform="translate(92.28 1062.41)"><tspan class="cls-3">у</tspan><tspan x="5.42" y="0">лица</tspan></text><text class="cls-4" transform="translate(103.41 129.86)">14.41</text><text class="cls-4" transform="translate(106.01 880.75)">13.38</text><text class="cls-4" transform="translate(106.01 963.83)">1.76</text><text class="cls-4" transform="translate(50.26 529.45)">4.80</text><text class="cls-4" transform="translate(135.05 582.79)">3.91</text><text class="cls-4" transform="translate(103.41 418.72)">4.95</text><text class="cls-5" transform="translate(112.6 776.13)">1Е</text><text class="cls-5" transform="translate(96.84 809.17)">43.21</text><text class="cls-5" transform="translate(100.22 743.58)">№56</text><polyline class="cls-6" points="85.04 817.53 85.04 720.33 166.1 720.33 166.1 817.53"/><line class="cls-6" x1="85.04" y1="752.79" x2="166.1" y2="752.79"/><line class="cls-6" x1="85.04" y1="817.53" x2="166.1" y2="817.53"/><line class="cls-6" x1="85.04" y1="785.25" x2="166.1" y2="785.25"/><polyline class="cls-6" points="118.28 512.22 118.28 648.26 213.01 648.26 213.01 512.22 118.28 512.22"/><polyline class="cls-6" points="198.72 573.09 211.77 573.09 211.77 604.15 198.72 604.15"/><line class="cls-6" x1="211.77" y1="593.59" x2="211.77" y2="583.65"/><line class="cls-6" x1="201.21" y1="591.42" x2="201.21" y2="589.56"/><line class="cls-6" x1="203.69" y1="588.62" x2="202.14" y2="588.62"/><line class="cls-6" x1="201.21" y1="587.69" x2="201.21" y2="586.14"/><line class="cls-6" x1="200.28" y1="588.62" x2="198.72" y2="588.62"/><path class="cls-6" d="M204.28,608.69a13.81,13.81,0,0,0-6.53-5.35" transform="translate(0 -28.34)"/><path class="cls-6" d="M206.13,617a13.78,13.78,0,0,0-1.93-8.24" transform="translate(0 -28.34)"/><path class="cls-6" d="M197.75,630.6a13.78,13.78,0,0,0,6.53-5.36" transform="translate(0 -28.34)"/><path class="cls-6" d="M204.2,625.19a13.78,13.78,0,0,0,1.93-8.24" transform="translate(0 -28.34)"/><path class="cls-6" d="M190.5,606.41a25.55,25.55,0,0,0-2.58,9.45" transform="translate(0 -28.34)"/><path class="cls-6" d="M192.08,629.53a7.92,7.92,0,0,0,6.52,3" transform="translate(0 -28.34)"/><path class="cls-6" d="M188.2,615.74a15.43,15.43,0,0,0,0,2.15" transform="translate(0 -28.34)"/><path class="cls-6" d="M203.65,625.46a56.38,56.38,0,0,0,0-17.3" transform="translate(0 -28.34)"/><path class="cls-6" d="M196.37,631.56A19.38,19.38,0,0,0,209,627.18" transform="translate(0 -28.34)"/><path class="cls-6" d="M209.88,625.67a38.68,38.68,0,0,0,1-8.84" transform="translate(0 -28.34)"/><path class="cls-6" d="M209.25,627.24a2.63,2.63,0,0,0,.9-1.46" transform="translate(0 -28.34)"/><path class="cls-6" d="M209.28,625.63a67.5,67.5,0,0,0,.63-8.75" transform="translate(0 -28.34)"/><path class="cls-6" d="M196.48,631.56a17.51,17.51,0,0,0,11.83-4.38" transform="translate(0 -28.34)"/><path class="cls-6" d="M208.39,627.18a2.68,2.68,0,0,0,.87-1.62" transform="translate(0 -28.34)"/><path class="cls-6" d="M208.33,606.46a17.57,17.57,0,0,0-11.83-4.4" transform="translate(0 -28.34)"/><path class="cls-6" d="M209,606.77a19.43,19.43,0,0,0-12.61-4.4" transform="translate(0 -28.34)"/><path class="cls-6" d="M209.91,616.84a67.36,67.36,0,0,0-.62-8.75" transform="translate(0 -28.34)"/><path class="cls-6" d="M210.84,616.85a38.7,38.7,0,0,0-1-8.85" transform="translate(0 -28.34)"/><path class="cls-6" d="M209.26,608.07a2.63,2.63,0,0,0-.87-1.62" transform="translate(0 -28.34)"/><path class="cls-6" d="M210.15,607.85a2.64,2.64,0,0,0-.9-1.47" transform="translate(0 -28.34)"/><path class="cls-6" d="M198.6,601.44a7.94,7.94,0,0,0-6.52,3" transform="translate(0 -28.34)"/><path class="cls-6" d="M191.79,604.17a12,12,0,0,0-1.34,2.07" transform="translate(0 -28.34)"/><path class="cls-6" d="M190.45,627.38a11.63,11.63,0,0,0,1.34,2.07" transform="translate(0 -28.34)"/><path class="cls-6" d="M187.92,618.07a25.6,25.6,0,0,0,2.58,9.46" transform="translate(0 -28.34)"/><path class="cls-6" d="M190.22,612.55a18.31,18.31,0,0,0,0,8.52" transform="translate(0 -28.34)"/><path class="cls-6" d="M197.64,603.31a4.49,4.49,0,0,0-3.72,1.55" transform="translate(0 -28.34)"/><path class="cls-6" d="M193.85,604.85a17,17,0,0,0-3.56,7.78" transform="translate(0 -28.34)"/><path class="cls-6" d="M193.92,628.76a4.46,4.46,0,0,0,3.72,1.55" transform="translate(0 -28.34)"/><path class="cls-6" d="M190.29,621a16.9,16.9,0,0,0,3.56,7.78" transform="translate(0 -28.34)"/><path class="cls-6" d="M203.07,616.81a2,2,0,1,0-2,2,2,2,0,0,0,2-2" transform="translate(0 -28.34)"/><path class="cls-6" d="M202.45,616.81a1.4,1.4,0,1,0-1.4,1.4,1.4,1.4,0,0,0,1.4-1.4" transform="translate(0 -28.34)"/><line class="cls-6" x1="199.66" y1="522.15" x2="199.66" y2="542.03"/><polyline class="cls-6" points="200.59 520.91 200.59 513.46 179.47 513.46"/><line class="cls-6" x1="190.03" y1="525.57" x2="182.26" y2="525.57"/><polyline class="cls-6" points="199.66 542.03 197.79 525.57 190.03 525.57"/><line class="cls-6" x1="180.4" y1="542.03" x2="182.26" y2="525.57"/><line class="cls-6" x1="199.35" y1="542.03" x2="197.48" y2="525.57"/><line class="cls-6" x1="180.71" y1="542.03" x2="182.57" y2="525.57"/><line class="cls-6" x1="180.4" y1="522.15" x2="180.4" y2="542.03"/><line class="cls-6" x1="179.47" y1="513.46" x2="179.47" y2="520.91"/><polyline class="cls-6" points="199.66 542.03 199.66 544.21 198.72 546.38 197.48 548.25 195.62 549.8 193.44 550.73 191.27 551.35 188.79 551.35 186.61 550.73 184.44 549.8 182.57 548.25 181.33 546.38 180.4 544.21 180.4 542.03"/><polyline class="cls-6" points="199.35 542.03 199.03 544.21 198.1 546.07 196.86 547.93 195.31 549.18 193.44 550.42 191.27 550.73 188.79 550.73 186.61 550.42 184.75 549.18 183.19 547.93 181.95 546.07 181.02 544.21 180.71 542.03"/><polyline class="cls-6" points="179.47 520.91 179.47 521.22 179.47 521.53 179.78 521.84 180.09 522.15 180.4 522.15 190.03 522.78 199.66 522.15 199.97 522.15 200.28 521.84 200.59 521.53 200.59 521.22 200.59 520.91"/><polyline class="cls-6" points="190.03 517.18 189.72 517.18 189.41 517.5 189.1 517.5 189.1 517.81 189.1 518.12 189.1 518.43 189.1 518.74 189.1 519.05 189.41 519.05 189.72 519.36 190.03 519.36 190.34 519.36 190.65 519.05 190.96 519.05 190.96 518.74 190.96 518.43 190.96 518.12 190.96 517.81 190.96 517.5 190.65 517.5 190.34 517.18 190.03 517.18"/><polyline class="cls-6" points="118.28 512.22 118.28 546.69 152.76 546.69 152.76 512.22 118.28 512.22"/><line class="cls-6" x1="208.66" y1="613.47" x2="208.66" y2="640.8"/><line class="cls-6" x1="205.56" y1="643.91" x2="138.78" y2="643.91"/><line class="cls-6" x1="205.56" y1="610.37" x2="138.78" y2="610.37"/><line class="cls-6" x1="119.83" y1="647.33" x2="211.77" y2="647.33"/><polyline class="cls-6" points="119.83 647.33 119.83 606.95 211.77 606.95 211.77 647.33"/><line class="cls-6" x1="149.65" y1="615.96" x2="201.83" y2="615.96"/><line class="cls-6" x1="203.38" y1="617.51" x2="203.38" y2="636.77"/><line class="cls-6" x1="149.65" y1="638.32" x2="201.83" y2="638.32"/><line class="cls-6" x1="192.51" y1="626.21" x2="192.51" y2="624.03"/><line class="cls-6" x1="193.44" y1="627.14" x2="195.31" y2="627.14"/><line class="cls-6" x1="192.51" y1="628.07" x2="192.51" y2="629.93"/><line class="cls-6" x1="191.58" y1="627.14" x2="189.72" y2="627.14"/><polyline class="cls-6" points="138.78 610.37 135.67 610.68 132.88 611.3 130.39 612.85 127.91 614.71 126.04 616.89 124.49 619.68 123.25 622.48 122.63 625.59 122.63 628.69 123.25 631.8 124.49 634.59 126.04 637.39 127.91 639.56 130.39 641.43 132.88 642.98 135.67 643.6 138.78 643.91"/><polyline class="cls-6" points="205.56 643.91 206.18 643.91 206.49 643.91 207.11 643.6 207.42 643.29 208.04 642.98 208.35 642.36 208.35 641.74 208.66 641.43 208.66 640.8"/><polyline class="cls-6" points="208.66 613.47 208.66 612.85 208.35 612.23 208.35 611.92 208.04 611.3 207.42 610.99 207.11 610.68 206.49 610.37 206.18 610.37 205.56 610.37"/><polyline class="cls-6" points="192.51 625.59 192.2 625.59 191.89 625.59 191.58 625.59 191.58 625.9 191.27 626.21 191.27 626.52 190.96 626.83 190.96 627.14 190.96 627.45 190.96 627.76 191.27 628.07 191.58 628.38 191.89 628.69 192.2 628.69 192.51 628.69 192.82 628.69 193.13 628.69 193.44 628.69 193.44 628.38 193.75 628.07 194.07 628.07 194.07 627.76 194.07 627.45 194.07 627.14 194.07 626.83 194.07 626.52 193.75 626.21 193.75 625.9 193.44 625.59 193.13 625.59 192.82 625.59 192.51 625.59"/><polyline class="cls-6" points="149.65 615.96 147.47 615.96 145.61 616.58 143.75 617.51 142.19 618.75 140.95 620.3 140.02 622.17 139.09 624.03 138.78 626.21 138.78 628.07 139.09 630.24 140.02 632.11 140.95 633.97 142.19 635.52 143.75 636.77 145.61 637.7 147.47 638.32 149.65 638.32"/><polyline class="cls-6" points="203.38 617.51 203.38 617.2 203.38 616.89 203.07 616.58 203.07 616.27 202.76 616.27 202.45 615.96 202.14 615.96 201.83 615.96"/><polyline class="cls-6" points="201.83 638.32 202.14 638.32 202.45 638.32 202.76 638.01 203.07 637.7 203.38 637.39 203.38 637.08 203.38 636.77"/><polyline class="cls-6" points="192.51 624.96 192.2 624.96 191.89 624.96 191.58 625.27 190.96 625.59 190.96 625.9 190.65 626.21 190.65 626.52 190.34 627.14 190.34 627.45 190.65 627.76 190.65 628.38 190.96 628.69 191.27 629 191.58 629 191.89 629.31 192.51 629.31 192.82 629.31 193.13 629.31 193.44 629 193.75 629 194.07 628.69 194.38 628.38 194.69 627.76 194.69 627.45 194.69 627.14 194.69 626.52 194.38 626.21 194.38 625.9 194.07 625.59 193.75 625.27 193.44 624.96 193.13 624.96 192.51 624.96"/><line class="cls-6" x1="22.61" y1="608.19" x2="22.61" y2="516.25"/><path class="cls-6" d="M24.79,980.68" transform="translate(0 -28.34)"/><polyline class="cls-6" points="203.69 919.73 43.11 919.73 43.11 972.53 40.94 972.53 40.94 1016.01 203.69 968.8 203.69 919.73"/><line class="cls-6" x1="22.61" y1="493.27" x2="22.61" y2="407.23"/><polyline class="cls-6" points="34.11 146.32 34.11 312.81 34.11 368.41 213.01 368.41 213.01 103.15 34.11 103.15 34.11 146.32"/><polyline class="cls-6" points="118.28 480.22 213.01 480.22 213.01 373.06 34.11 373.06 34.11 445.75 118.28 445.75 118.28 480.22"/><polyline class="cls-6" points="113.62 648.26 113.62 450.4 34.11 450.4 34.11 516.25 34.11 648.26 113.62 648.26"/><polyline class="cls-6" points="34.11 652.92 34.11 898.91 213.01 898.91 213.01 652.92 34.11 652.92"/><path d="M213,995h0Z" transform="translate(0 -28.34)"/><path class="cls-6" d="M213,995h0Z" transform="translate(0 -28.34)"/><path d="M222,1000.87h-9V995Zm0,0Z" transform="translate(0 -28.34)"/><path class="cls-6" d="M222,1000.87h-9V995Zm0,0Z" transform="translate(0 -28.34)"/><polygon points="213.01 966.63 222.02 966.63 222.02 972.53 213.01 966.63"/><polygon class="cls-6" points="213.01 966.63 222.02 966.63 222.02 972.53 213.01 966.63"/><path d="M209,995h0Z" transform="translate(0 -28.34)"/><path class="cls-6" d="M209,995h0Z" transform="translate(0 -28.34)"/><path d="M209,995l4,5.28h-8.69Zm4,0h-4l4,5.28Z" transform="translate(0 -28.34)"/><path class="cls-6" d="M209,995l4,5.28h-8.69Zm4,0h-4l4,5.28Z" transform="translate(0 -28.34)"/><path d="M213,1000.87h-8.69v-.62Zm0,0Z" transform="translate(0 -28.34)"/><path class="cls-6" d="M213,1000.87h-8.69v-.62Zm0,0Z" transform="translate(0 -28.34)"/><polygon points="204.32 971.91 213.01 971.91 213.01 972.53 204.32 971.91"/><polygon class="cls-6" points="204.32 971.91 213.01 971.91 213.01 972.53 204.32 971.91"/><polygon points="204.32 971.91 204.32 972.53 203.69 972.53 204.32 971.91"/><polygon class="cls-6" points="204.32 971.91 204.32 972.53 203.69 972.53 204.32 971.91"/><path d="M219.85,995Z" transform="translate(0 -28.34)"/><path class="cls-6" d="M219.85,995Z" transform="translate(0 -28.34)"/><polygon points="222.02 952.34 222.02 962.59 213.01 962.59 222.02 952.34"/><polygon class="cls-6" points="222.02 952.34 222.02 962.59 213.01 962.59 222.02 952.34"/><path d="M222,995h-9v-4Zm0,0Z" transform="translate(0 -28.34)"/><path class="cls-6" d="M222,995h-9v-4Zm0,0Z" transform="translate(0 -28.34)"/><polygon points="213.01 962.59 222.02 962.59 222.02 966.63 213.01 962.59"/><polygon class="cls-6" points="213.01 962.59 222.02 962.59 222.02 966.63 213.01 962.59"/><path d="M213,995h0Zm0-4v4h-4Z" transform="translate(0 -28.34)"/><path class="cls-6" d="M213,995h0Zm0-4v4h-4Z" transform="translate(0 -28.34)"/><line class="cls-6" x1="204.32" y1="971.91" x2="204.32" y2="972.53"/><polyline class="cls-6" points="222.02 952.34 222.02 966.63 219.85 966.63"/><polyline class="cls-6" points="213.01 962.59 213.01 966.63 222.02 966.63"/><polyline class="cls-6" points="203.69 972.53 204.32 972.53 213.01 972.53 222.02 972.53"/><path d="M42.49,1000.25" transform="translate(0 -28.34)"/><path class="cls-6" d="M42.49,1000.25" transform="translate(0 -28.34)"/><path d="M43.11,1000.87h-.62v-.62Zm0,0Zm-.62-.62.62.62Z" transform="translate(0 -28.34)"/><path class="cls-6" d="M43.11,1000.87h-.62v-.62Zm0,0Zm-.62-.62.62.62Z" transform="translate(0 -28.34)"/><path d="M34.11,995h0Z" transform="translate(0 -28.34)"/><path class="cls-6" d="M34.11,995h0Z" transform="translate(0 -28.34)"/><path d="M34.11,995l8.38,5.28H34.11Zm3.72,0H34.11l8.38,5.28Z" transform="translate(0 -28.34)"/><path class="cls-6" d="M34.11,995l8.38,5.28H34.11Zm3.72,0H34.11l8.38,5.28Z" transform="translate(0 -28.34)"/><path d="M42.49,1000.87H34.11v-.62Zm0,0Z" transform="translate(0 -28.34)"/><path class="cls-6" d="M42.49,1000.87H34.11v-.62Zm0,0Z" transform="translate(0 -28.34)"/><polygon points="34.11 971.91 42.49 971.91 42.49 972.53 34.11 971.91"/><polygon class="cls-6" points="34.11 971.91 42.49 971.91 42.49 972.53 34.11 971.91"/><polyline points="0.25 966.63 0.25 966.63 34.11 966.63 0.25 966.63"/><polyline points="0.25 966.63 34.11 966.63 34.11 966.63 0.25 966.63"/><polyline class="cls-6" points="0.25 966.63 0.25 966.63 34.11 966.63 0.25 966.63"/><polyline class="cls-6" points="0.25 966.63 34.11 966.63 34.11 966.63 0.25 966.63"/><polyline points="0.25 966.63 34.11 972.53 0.25 972.53"/><polyline points="0.25 972.53 34.11 972.53 34.11 972.53 0.25 972.53"/><polyline class="cls-6" points="0.25 966.63 34.11 972.53 0.25 972.53"/><polyline class="cls-6" points="0.25 972.53 34.11 972.53 34.11 972.53 0.25 972.53"/><polyline points="0.25 966.63 34.11 966.63 34.11 972.53 0.25 966.63"/><polyline class="cls-6" points="0.25 966.63 34.11 966.63 34.11 972.53 0.25 966.63"/><path d="M34.11,990.93" transform="translate(0 -28.34)"/><path class="cls-6" d="M34.11,990.93" transform="translate(0 -28.34)"/><path d="M37.83,995H34.11v-4Zm0,0Zm-3.72-4,3.72,4Z" transform="translate(0 -28.34)"/><path class="cls-6" d="M37.83,995H34.11v-4Zm0,0Zm-3.72-4,3.72,4Z" transform="translate(0 -28.34)"/><polygon points="24.79 952.34 34.11 962.59 24.79 962.59 24.79 952.34"/><polygon class="cls-6" points="24.79 952.34 34.11 962.59 24.79 962.59 24.79 952.34"/><path d="M34.11,995H24.79v-4Zm0,0Z" transform="translate(0 -28.34)"/><path class="cls-6" d="M34.11,995H24.79v-4Zm0,0Z" transform="translate(0 -28.34)"/><polygon points="24.79 962.59 34.11 962.59 34.11 966.63 24.79 962.59"/><polygon class="cls-6" points="24.79 962.59 34.11 962.59 34.11 966.63 24.79 962.59"/><path d="M.25,980.68h0Z" transform="translate(0 -28.34)"/><path class="cls-6" d="M.25,980.68h0Z" transform="translate(0 -28.34)"/><path d="M.25,980.68l24.54,11.49H.25Zm24.54,0H.25l24.54,11.49Z" transform="translate(0 -28.34)"/><path class="cls-6" d="M.25,980.68l24.54,11.49H.25Zm24.54,0H.25l24.54,11.49Z" transform="translate(0 -28.34)"/><path d="M24.79,995H.25v-2.8Zm0,0Z" transform="translate(0 -28.34)"/><path class="cls-6" d="M24.79,995H.25v-2.8Zm0,0Z" transform="translate(0 -28.34)"/><polygon points="0.25 963.83 24.79 963.83 24.79 966.63 0.25 963.83"/><polygon class="cls-6" points="0.25 963.83 24.79 963.83 24.79 966.63 0.25 963.83"/><line class="cls-6" x1="42.49" y1="971.91" x2="42.49" y2="972.53"/><line class="cls-6" x1="34.11" y1="962.59" x2="34.11" y2="966.63"/><polyline class="cls-6" points="24.79 952.34 24.79 966.63 34.11 966.63"/><line class="cls-6" x1="0.25" y1="966.63" x2="24.79" y2="966.63"/><line class="cls-6" x1="0.25" y1="963.83" x2="0.25" y2="952.34"/><polyline class="cls-6" points="0.25 966.63 0.25 966.63 0.25 963.83"/><polyline class="cls-6" points="43.11 972.53 42.49 972.53 34.11 972.53 0.25 972.53"/><line class="cls-6" x1="24.79" y1="952.34" x2="0.25" y2="952.34"/><path class="cls-6" d="M.25,980.68" transform="translate(0 -28.34)"/><polyline class="cls-6" points="0.25 972.53 0.25 966.63 0.25 963.83"/><path d="M22.61,101.37l17.71,6.83H22.61Zm17.71,0H22.61l17.71,6.83Z" transform="translate(0 -28.34)"/><path class="cls-6" d="M22.61,101.37l17.71,6.83H22.61Zm17.71,0H22.61l17.71,6.83Z" transform="translate(0 -28.34)"/><path d="M22.61,108.2h0Zm17.71,0h0Z" transform="translate(0 -28.34)"/><path class="cls-6" d="M22.61,108.2h0Zm17.71,0h0Z" transform="translate(0 -28.34)"/><path d="M93.12,101.37h0Z" transform="translate(0 -28.34)"/><path class="cls-6" d="M93.12,101.37h0Z" transform="translate(0 -28.34)"/><path d="M93.12,101.37l44.11,6.83H93.12Zm44.11,0H93.12l44.11,6.83Z" transform="translate(0 -28.34)"/><path class="cls-6" d="M93.12,101.37l44.11,6.83H93.12Zm44.11,0H93.12l44.11,6.83Z" transform="translate(0 -28.34)"/><path d="M217.67,101.37h0Z" transform="translate(0 -28.34)"/><path class="cls-6" d="M217.67,101.37h0Z" transform="translate(0 -28.34)"/><path d="M190,101.37l27.64,6.83H190Zm27.64,0H190l27.64,6.83Z" transform="translate(0 -28.34)"/><path class="cls-6" d="M190,101.37l27.64,6.83H190Zm27.64,0H190l27.64,6.83Z" transform="translate(0 -28.34)"/><path d="M38.14,108.82H22.61v-.62Zm0,0Z" transform="translate(0 -28.34)"/><path class="cls-6" d="M38.14,108.82H22.61v-.62Zm0,0Z" transform="translate(0 -28.34)"/><polygon points="22.61 79.86 38.14 79.86 38.14 80.48 22.61 79.86"/><polygon class="cls-6" points="22.61 79.86 38.14 79.86 38.14 80.48 22.61 79.86"/><path d="M135.05,108.82H95.29v-.62Zm0,0Z" transform="translate(0 -28.34)"/><path class="cls-6" d="M135.05,108.82H95.29v-.62Zm0,0Z" transform="translate(0 -28.34)"/><polygon points="95.29 79.86 135.05 79.86 135.05 80.48 95.29 79.86"/><polygon class="cls-6" points="95.29 79.86 135.05 79.86 135.05 80.48 95.29 79.86"/><path d="M217.67,108.82H192.2v-.62Zm0,0Z" transform="translate(0 -28.34)"/><path class="cls-6" d="M217.67,108.82H192.2v-.62Zm0,0Z" transform="translate(0 -28.34)"/><polygon points="192.2 79.86 217.67 79.86 217.67 80.48 192.2 79.86"/><polygon class="cls-6" points="192.2 79.86 217.67 79.86 217.67 80.48 192.2 79.86"/><path d="M22.61,108.82h0Z" transform="translate(0 -28.34)"/><path class="cls-6" d="M22.61,108.82h0Z" transform="translate(0 -28.34)"/><path d="M22.61,108.82,38.14,111H22.61Zm15.53,0H22.61L38.14,111Z" transform="translate(0 -28.34)"/><path class="cls-6" d="M22.61,108.82,38.14,111H22.61Zm15.53,0H22.61L38.14,111Z" transform="translate(0 -28.34)"/><path d="M38.14,117.21H22.61V111Zm0,0Z" transform="translate(0 -28.34)"/><path class="cls-6" d="M38.14,117.21H22.61V111Zm0,0Z" transform="translate(0 -28.34)"/><polygon points="22.61 82.65 38.14 82.65 38.14 88.86 22.61 82.65"/><polygon class="cls-6" points="22.61 82.65 38.14 82.65 38.14 88.86 22.61 82.65"/><path d="M95.29,108.82h0Z" transform="translate(0 -28.34)"/><path class="cls-6" d="M95.29,108.82h0Z" transform="translate(0 -28.34)"/><path d="M95.29,111h0Zm39.76,0h0Zm-39.76-2.18L135.05,111H95.29Zm39.76,0H95.29L135.05,111Z" transform="translate(0 -28.34)"/><path class="cls-6" d="M95.29,111h0Zm39.76,0h0Zm-39.76-2.18L135.05,111H95.29Zm39.76,0H95.29L135.05,111Z" transform="translate(0 -28.34)"/><path d="M135.05,117.21H95.29V111Zm0,0Z" transform="translate(0 -28.34)"/><path class="cls-6" d="M135.05,117.21H95.29V111Zm0,0Z" transform="translate(0 -28.34)"/><polygon points="95.29 82.65 135.05 82.65 135.05 88.86 95.29 82.65"/><polygon class="cls-6" points="95.29 82.65 135.05 82.65 135.05 88.86 95.29 82.65"/><path d="M192.2,108.82h0Z" transform="translate(0 -28.34)"/><path class="cls-6" d="M192.2,108.82h0Z" transform="translate(0 -28.34)"/><path d="M192.2,108.82,217.67,111H192.2Zm25.47,0H192.2L217.67,111Z" transform="translate(0 -28.34)"/><path class="cls-6" d="M192.2,108.82,217.67,111H192.2Zm25.47,0H192.2L217.67,111Z" transform="translate(0 -28.34)"/><path d="M217.67,117.21H192.2V111Zm0,0Z" transform="translate(0 -28.34)"/><path class="cls-6" d="M217.67,117.21H192.2V111Zm0,0Z" transform="translate(0 -28.34)"/><polygon points="192.2 82.65 217.67 82.65 217.67 88.86 192.2 82.65"/><polygon class="cls-6" points="192.2 82.65 217.67 82.65 217.67 88.86 192.2 82.65"/><path d="M22.61,117.21Z" transform="translate(0 -28.34)"/><path class="cls-6" d="M22.61,117.21Z" transform="translate(0 -28.34)"/><path d="M22.61,117.21h0Z" transform="translate(0 -28.34)"/><path class="cls-6" d="M22.61,117.21h0Z" transform="translate(0 -28.34)"/><path d="M34.11,131.5H22.61V117.21Zm0,0Z" transform="translate(0 -28.34)"/><path class="cls-6" d="M34.11,131.5H22.61V117.21Zm0,0Z" transform="translate(0 -28.34)"/><polygon points="22.61 88.86 34.11 88.86 34.11 103.15 22.61 88.86"/><polygon class="cls-6" points="22.61 88.86 34.11 88.86 34.11 103.15 22.61 88.86"/><path d="M38.14,131.5h-4V117.21Zm0,0Z" transform="translate(0 -28.34)"/><path class="cls-6" d="M38.14,131.5h-4V117.21Zm0,0Z" transform="translate(0 -28.34)"/><polygon points="34.11 88.86 38.14 88.86 38.14 103.15 34.11 88.86"/><polygon class="cls-6" points="34.11 88.86 38.14 88.86 38.14 103.15 34.11 88.86"/><path d="M95.29,117.21h0Z" transform="translate(0 -28.34)"/><path class="cls-6" d="M95.29,117.21h0Z" transform="translate(0 -28.34)"/><path d="M95.29,117.21l39.76,14.29H95.29Zm39.76,0H95.29l39.76,14.29Z" transform="translate(0 -28.34)"/><path class="cls-6" d="M95.29,117.21l39.76,14.29H95.29Zm39.76,0H95.29l39.76,14.29Z" transform="translate(0 -28.34)"/><path d="M192.2,117.21h0Z" transform="translate(0 -28.34)"/><path class="cls-6" d="M192.2,117.21h0Z" transform="translate(0 -28.34)"/><path d="M192.2,117.21,213,131.5H192.2Zm20.81,0H192.2L213,131.5Z" transform="translate(0 -28.34)"/><path class="cls-6" d="M192.2,117.21,213,131.5H192.2Zm20.81,0H192.2L213,131.5Z" transform="translate(0 -28.34)"/><path d="M213,117.21h0Z" transform="translate(0 -28.34)"/><path class="cls-6" d="M213,117.21h0Z" transform="translate(0 -28.34)"/><path d="M217.67,131.5H213V117.21Zm0,0Z" transform="translate(0 -28.34)"/><path class="cls-6" d="M217.67,131.5H213V117.21Zm0,0Z" transform="translate(0 -28.34)"/><polygon points="213.01 88.86 217.67 88.86 217.67 103.15 213.01 88.86"/><polygon class="cls-6" points="213.01 88.86 217.67 88.86 217.67 103.15 213.01 88.86"/><line class="cls-6" x1="135.05" y1="79.86" x2="95.29" y2="79.86"/><line class="cls-6" x1="217.67" y1="79.86" x2="192.2" y2="79.86"/><line class="cls-6" x1="38.14" y1="79.86" x2="22.61" y2="79.86"/><line class="cls-6" x1="135.05" y1="80.48" x2="95.29" y2="80.48"/><line class="cls-6" x1="217.67" y1="80.48" x2="192.2" y2="80.48"/><line class="cls-6" x1="38.14" y1="80.48" x2="22.61" y2="80.48"/><line class="cls-6" x1="34.11" y1="103.15" x2="34.11" y2="88.86"/><line class="cls-6" x1="22.61" y1="88.86" x2="22.61" y2="103.15"/><line class="cls-6" x1="213.01" y1="88.86" x2="213.01" y2="103.15"/><polyline class="cls-6" points="95.29 82.65 95.29 88.86 95.29 103.15"/><polyline class="cls-6" points="93.12 73.02 93.12 79.86 95.29 79.86"/><polyline class="cls-6" points="95.29 79.86 95.29 80.48 95.29 82.65"/><polyline class="cls-6" points="38.14 82.65 38.14 88.86 38.14 103.15"/><polyline class="cls-6" points="40.32 73.02 40.32 79.86 38.14 79.86"/><polyline class="cls-6" points="38.14 79.86 38.14 80.48 38.14 82.65"/><polyline class="cls-6" points="192.2 82.65 192.2 88.86 192.2 103.15"/><polyline class="cls-6" points="190.03 73.02 190.03 79.86 192.2 79.86"/><polyline class="cls-6" points="192.2 79.86 192.2 80.48 192.2 82.65"/><polyline class="cls-6" points="135.05 82.65 135.05 88.86 135.05 103.15"/><polyline class="cls-6" points="137.23 73.02 137.23 79.86 135.05 79.86"/><polyline class="cls-6" points="135.05 79.86 135.05 80.48 135.05 82.65"/><polyline class="cls-6" points="22.61 73.02 22.61 79.86 22.61 79.86"/><polyline class="cls-6" points="22.61 79.86 22.61 80.48 22.61 82.65"/><line class="cls-6" x1="217.67" y1="73.02" x2="190.03" y2="73.02"/><line class="cls-6" x1="137.23" y1="73.02" x2="93.12" y2="73.02"/><line class="cls-6" x1="40.32" y1="73.02" x2="22.61" y2="73.02"/><line class="cls-6" x1="34.11" y1="103.15" x2="38.14" y2="103.15"/><line class="cls-6" x1="95.29" y1="103.15" x2="135.05" y2="103.15"/><line class="cls-6" x1="192.2" y1="103.15" x2="213.01" y2="103.15"/><line class="cls-6" x1="40.32" y1="73.02" x2="93.12" y2="73.02"/><line class="cls-6" x1="38.14" y1="103.15" x2="95.29" y2="103.15"/><path d="M38.14,108.2h0Z" transform="translate(0 -28.34)"/><path class="cls-6" d="M38.14,108.2h0Z" transform="translate(0 -28.34)"/><path d="M45,111H38.14v-2.8Zm0,0Z" transform="translate(0 -28.34)"/><path class="cls-6" d="M45,111H38.14v-2.8Zm0,0Z" transform="translate(0 -28.34)"/><polygon points="38.14 79.86 44.98 79.86 44.98 82.65 38.14 79.86"/><polygon class="cls-6" points="38.14 79.86 44.98 79.86 44.98 82.65 38.14 79.86"/><path d="M88.46,108.2h0Z" transform="translate(0 -28.34)"/><path class="cls-6" d="M88.46,108.2h0Z" transform="translate(0 -28.34)"/><path d="M95.29,111H88.46v-2.8Zm0,0Z" transform="translate(0 -28.34)"/><path class="cls-6" d="M95.29,111H88.46v-2.8Zm0,0Z" transform="translate(0 -28.34)"/><polygon points="88.46 79.86 95.29 79.86 95.29 82.65 88.46 79.86"/><polygon class="cls-6" points="88.46 79.86 95.29 79.86 95.29 82.65 88.46 79.86"/><polyline class="cls-6" points="38.14 79.86 44.98 79.86 44.98 82.65 38.14 82.65"/><polyline class="cls-6" points="95.29 82.65 88.46 82.65 88.46 79.86 95.29 79.86"/><line class="cls-6" x1="44.98" y1="79.86" x2="88.46" y2="79.86"/><line class="cls-6" x1="88.46" y1="82.65" x2="44.98" y2="82.65"/><polyline class="cls-6" points="40.32 79.86 38.14 79.86 38.14 80.48 38.14 82.65"/><polyline class="cls-6" points="93.12 79.86 95.29 79.86 95.29 80.48 95.29 82.65"/><line class="cls-6" x1="137.23" y1="73.02" x2="190.03" y2="73.02"/><line class="cls-6" x1="135.05" y1="103.15" x2="192.2" y2="103.15"/><path d="M135.05,108.2h0Z" transform="translate(0 -28.34)"/><path class="cls-6" d="M135.05,108.2h0Z" transform="translate(0 -28.34)"/><path d="M141.88,111h-6.83v-2.8Zm0,0Z" transform="translate(0 -28.34)"/><path class="cls-6" d="M141.88,111h-6.83v-2.8Zm0,0Z" transform="translate(0 -28.34)"/><polygon points="135.05 79.86 141.88 79.86 141.88 82.65 135.05 79.86"/><polygon class="cls-6" points="135.05 79.86 141.88 79.86 141.88 82.65 135.05 79.86"/><path d="M185.37,108.2h0Z" transform="translate(0 -28.34)"/><path class="cls-6" d="M185.37,108.2h0Z" transform="translate(0 -28.34)"/><path d="M192.2,111h-6.83v-2.8Zm0,0Z" transform="translate(0 -28.34)"/><path class="cls-6" d="M192.2,111h-6.83v-2.8Zm0,0Z" transform="translate(0 -28.34)"/><polygon points="185.37 79.86 192.2 79.86 192.2 82.65 185.37 79.86"/><polygon class="cls-6" points="185.37 79.86 192.2 79.86 192.2 82.65 185.37 79.86"/><polyline class="cls-6" points="135.05 79.86 141.88 79.86 141.88 82.65 135.05 82.65"/><polyline class="cls-6" points="192.2 82.65 185.37 82.65 185.37 79.86 192.2 79.86"/><line class="cls-6" x1="141.88" y1="79.86" x2="185.37" y2="79.86"/><line class="cls-6" x1="185.37" y1="82.65" x2="141.88" y2="82.65"/><polyline class="cls-6" points="137.23 79.86 135.05 79.86 135.05 80.48 135.05 82.65"/><polyline class="cls-6" points="190.03 79.86 192.2 79.86 192.2 80.48 192.2 82.65"/><polyline class="cls-6" points="22.61 79.86 22.61 79.86 22.61 80.48 22.61 82.65"/><path d="M217.67,101.37h0Z" transform="translate(0 -28.34)"/><path class="cls-6" d="M217.67,101.37h0Z" transform="translate(0 -28.34)"/><path d="M222,108.2h0Zm-4.35-6.83L222,108.2h-4.35Zm4.35,0h-4.35L222,108.2Z" transform="translate(0 -28.34)"/><path class="cls-6" d="M222,108.2h0Zm-4.35-6.83L222,108.2h-4.35Zm4.35,0h-4.35L222,108.2Z" transform="translate(0 -28.34)"/><path d="M217.67,108.2h0Z" transform="translate(0 -28.34)"/><path class="cls-6" d="M217.67,108.2h0Z" transform="translate(0 -28.34)"/><path d="M217.67,108.2h0Z" transform="translate(0 -28.34)"/><path class="cls-6" d="M217.67,108.2h0Z" transform="translate(0 -28.34)"/><path d="M217.67,108.2l4.35.62h-4.35Zm4.35,0h-4.35l4.35.62Z" transform="translate(0 -28.34)"/><path class="cls-6" d="M217.67,108.2l4.35.62h-4.35Zm4.35,0h-4.35l4.35.62Z" transform="translate(0 -28.34)"/><path d="M217.67,108.82,222,111h-4.35Zm4.35,0h-4.35L222,111Z" transform="translate(0 -28.34)"/><path class="cls-6" d="M217.67,108.82,222,111h-4.35Zm4.35,0h-4.35L222,111Z" transform="translate(0 -28.34)"/><path d="M217.67,111l4.35,6.21h-4.35Zm4.35,0h-4.35l4.35,6.21Z" transform="translate(0 -28.34)"/><path class="cls-6" d="M217.67,111l4.35,6.21h-4.35Zm4.35,0h-4.35l4.35,6.21Z" transform="translate(0 -28.34)"/><path d="M217.67,117.21h0Z" transform="translate(0 -28.34)"/><path class="cls-6" d="M217.67,117.21h0Z" transform="translate(0 -28.34)"/><path d="M222,131.5h-4.35V117.21Zm0,0Z" transform="translate(0 -28.34)"/><path class="cls-6" d="M222,131.5h-4.35V117.21Zm0,0Z" transform="translate(0 -28.34)"/><polygon points="217.67 88.86 222.02 88.86 222.02 103.15 217.67 88.86"/><polygon class="cls-6" points="217.67 88.86 222.02 88.86 222.02 103.15 217.67 88.86"/><line class="cls-6" x1="222.02" y1="79.86" x2="217.67" y2="79.86"/><line class="cls-6" x1="222.02" y1="80.48" x2="217.67" y2="80.48"/><line class="cls-6" x1="222.02" y1="103.15" x2="222.02" y2="88.86"/><polyline class="cls-6" points="222.02 73.02 222.02 79.86 222.02 79.86"/><polyline class="cls-6" points="222.02 79.86 222.02 80.48 222.02 82.65"/><line class="cls-6" x1="222.02" y1="73.02" x2="217.67" y2="73.02"/><polyline class="cls-6" points="222.02 79.86 222.02 79.86 222.02 80.48 222.02 82.65"/><path d="M34.42,1000.25h0Z" transform="translate(0 -28.34)"/><path class="cls-6" d="M34.42,1000.25h0Z" transform="translate(0 -28.34)"/><path d="M34.42,1052.43h1.86l-1.86,2.18Zm0-52.18v52.18h1.86Z" transform="translate(0 -28.34)"/><path class="cls-6" d="M34.42,1052.43h1.86l-1.86,2.18Zm0-52.18v52.18h1.86Z" transform="translate(0 -28.34)"/><polygon points="34.42 971.91 36.28 971.91 36.28 1024.09 34.42 971.91"/><polygon class="cls-6" points="34.42 971.91 36.28 971.91 36.28 1024.09 34.42 971.91"/><path d="M36.28,1000.25h0Z" transform="translate(0 -28.34)"/><path class="cls-6" d="M36.28,1000.25h0Z" transform="translate(0 -28.34)"/><path d="M36.28,1000.25l6.83,42.86H36.28Zm6.83,0H36.28l6.83,42.86Z" transform="translate(0 -28.34)"/><path class="cls-6" d="M36.28,1000.25l6.83,42.86H36.28Zm6.83,0H36.28l6.83,42.86Z" transform="translate(0 -28.34)"/><path d="M36.28,1052.43m0-9.32v0Zm6.83,0H36.28v9.32Z" transform="translate(0 -28.34)"/><path class="cls-6" d="M36.28,1052.43m0-9.32v0Zm6.83,0H36.28v9.32Z" transform="translate(0 -28.34)"/><line class="cls-6" x1="36.28" y1="971.91" x2="36.28" y2="1024.09"/><polyline class="cls-6" points="43.11 1014.77 43.11 971.91 34.42 971.91 34.42 1026.26"/><polygon points="48.08 1020.67 48.7 1022.22 42.49 1022.22 48.08 1020.67"/><polygon class="cls-6" points="48.08 1020.67 48.7 1022.22 42.49 1022.22 48.08 1020.67"/><path d="M36.28,1052.43h6.21l-8.07,2.18Zm6.21-1.86-6.21,1.86h6.21Z" transform="translate(0 -28.34)"/><path class="cls-6" d="M36.28,1052.43h6.21l-8.07,2.18Zm6.21-1.86-6.21,1.86h6.21Z" transform="translate(0 -28.34)"/><polygon points="42.49 1022.22 48.7 1022.22 42.49 1024.09 42.49 1022.22"/><polygon class="cls-6" points="42.49 1022.22 48.7 1022.22 42.49 1024.09 42.49 1022.22"/><path d="M219.54,999l.62,1.86h-6.22Zm.62,1.86-.62-1.86Z" transform="translate(0 -28.34)"/><path class="cls-6" d="M219.54,999l.62,1.86h-6.22Zm.62,1.86-.62-1.86Z" transform="translate(0 -28.34)"/><path d="M199,1005.22h6.21l-5.59,1.55Zm14.9-4.35-14.9,4.35h6.21Z" transform="translate(0 -28.34)"/><path class="cls-6" d="M199,1005.22h6.21l-5.59,1.55Zm14.9-4.35-14.9,4.35h6.21Z" transform="translate(0 -28.34)"/><polygon points="213.94 972.53 220.16 972.53 205.25 976.88 213.94 972.53"/><polygon class="cls-6" points="213.94 972.53 220.16 972.53 205.25 976.88 213.94 972.53"/><polygon points="46.22 1013.84 46.53 1014.77 43.11 1014.77 46.22 1013.84"/><polygon class="cls-6" points="46.22 1013.84 46.53 1014.77 43.11 1014.77 46.22 1013.84"/><path d="M43.11,1043.11l3.73.94H42.49Zm3.42,0H43.11l3.73.94Z" transform="translate(0 -28.34)"/><path class="cls-6" d="M43.11,1043.11l3.73.94H42.49Zm3.42,0H43.11l3.73.94Z" transform="translate(0 -28.34)"/><path d="M42.49,1044.05l5,2.79H40.63Zm4.35,0H42.49l5,2.79Z" transform="translate(0 -28.34)"/><path class="cls-6" d="M42.49,1044.05l5,2.79H40.63Zm4.35,0H42.49l5,2.79Z" transform="translate(0 -28.34)"/><path d="M38.76,1049h9.32l-11.8,3.41Zm1.87-2.18L38.76,1049h9.32Z" transform="translate(0 -28.34)"/><path class="cls-6" d="M38.76,1049h9.32l-11.8,3.41Zm1.87-2.18L38.76,1049h9.32Z" transform="translate(0 -28.34)"/><polygon points="40.63 1018.5 47.46 1018.5 48.08 1020.67 40.63 1018.5"/><polygon class="cls-6" points="40.63 1018.5 47.46 1018.5 48.08 1020.67 40.63 1018.5"/><polygon points="217.67 964.14 219.53 970.04 197.17 970.04 217.67 964.14"/><polygon class="cls-6" points="217.67 964.14 219.53 970.04 197.17 970.04 217.67 964.14"/><path d="M197.17,998.39l22.37.62H197.48Zm22.37,0H197.17l22.37.62Z" transform="translate(0 -28.34)"/><path class="cls-6" d="M197.17,998.39l22.37.62H197.48Zm22.37,0H197.17l22.37.62Z" transform="translate(0 -28.34)"/><path d="M197.48,999l18.64,1.24H197.79Zm22.06,0H197.48l18.64,1.24Z" transform="translate(0 -28.34)"/><path class="cls-6" d="M197.48,999l18.64,1.24H197.79Zm22.06,0H197.48l18.64,1.24Z" transform="translate(0 -28.34)"/><path d="M198.41,1002.74h8.39l-7.76,2.48Zm-.62-2.49.62,2.49h8.39Z" transform="translate(0 -28.34)"/><path class="cls-6" d="M198.41,1002.74h8.39l-7.76,2.48Zm-.62-2.49.62,2.49h8.39Z" transform="translate(0 -28.34)"/><polygon points="197.79 971.91 216.12 971.91 206.8 974.39 197.79 971.91"/><polygon class="cls-6" points="197.79 971.91 216.12 971.91 206.8 974.39 197.79 971.91"/><polygon points="49.33 1017.88 49.33 1018.5 47.46 1018.5 49.33 1017.88"/><polygon class="cls-6" points="49.33 1017.88 49.33 1018.5 47.46 1018.5 49.33 1017.88"/><path d="M47.46,1046.84,50,1049H48.08Zm1.87,0H47.46L50,1049Z" transform="translate(0 -28.34)"/><path class="cls-6" d="M47.46,1046.84,50,1049H48.08Zm1.87,0H47.46L50,1049Z" transform="translate(0 -28.34)"/><path d="M48.39,1050h1.87l-1.56.62Zm-.31-.93.31.93h1.87Z" transform="translate(0 -28.34)"/><path class="cls-6" d="M48.39,1050h1.87l-1.56.62Zm-.31-.93.31.93h1.87Z" transform="translate(0 -28.34)"/><polygon points="48.08 1020.67 49.95 1020.67 50.26 1021.6 48.08 1020.67"/><polygon class="cls-6" points="48.08 1020.67 49.95 1020.67 50.26 1021.6 48.08 1020.67"/><polygon points="198.41 974.39 198.72 975.01 196.86 975.01 198.41 974.39"/><polygon class="cls-6" points="198.41 974.39 198.72 975.01 196.86 975.01 198.41 974.39"/><path d="M196.86,1003.36l2.18,1.86h-1.56Zm1.86,0h-1.86l2.18,1.86Z" transform="translate(0 -28.34)"/><path class="cls-6" d="M196.86,1003.36l2.18,1.86h-1.56Zm1.86,0h-1.86l2.18,1.86Z" transform="translate(0 -28.34)"/><path d="M197.79,1006.77h1.87l-1.56.31Zm-.31-1.55.31,1.55h1.87Z" transform="translate(0 -28.34)"/><path class="cls-6" d="M197.79,1006.77h1.87l-1.56.31Zm-.31-1.55.31,1.55h1.87Z" transform="translate(0 -28.34)"/><polygon points="197.48 976.88 199.03 976.88 199.66 978.43 197.48 976.88"/><polygon class="cls-6" points="197.48 976.88 199.03 976.88 199.66 978.43 197.48 976.88"/><line class="cls-6" x1="199.04" y1="976.88" x2="219.54" y2="970.66"/><line class="cls-6" x1="36.28" y1="1024.09" x2="48.08" y2="1020.67"/><polyline class="cls-6" points="199.03 976.88 198.41 974.39 196.86 975.01 198.1 978.74 199.66 978.43"/><polyline class="cls-6" points="48.08 1020.67 47.46 1018.5 49.33 1017.88 50.26 1021.6 48.7 1022.22"/><polyline class="cls-6" points="198.41 974.39 197.79 971.91 197.17 970.04"/><polyline class="cls-6" points="47.46 1018.5 46.84 1015.7 46.22 1013.84"/><line class="cls-6" x1="217.67" y1="964.14" x2="197.17" y2="970.04"/><line class="cls-6" x1="46.22" y1="1013.84" x2="43.11" y2="1014.77"/><line class="cls-6" x1="34.42" y1="1026.26" x2="48.7" y2="1022.22"/><polyline class="cls-6" points="199.66 978.43 220.16 972.53 217.67 964.14"/><line class="cls-6" x1="50.26" y1="1021.6" x2="198.1" y2="978.74"/><line class="cls-6" x1="46.22" y1="1013.84" x2="197.17" y2="970.04"/><polyline class="cls-6" points="47.46 1018.5 51.81 1016.94 51.19 1014.46 46.84 1015.7"/><polyline class="cls-6" points="97.47 1000.79 94.98 1001.72 95.61 1004.52 98.4 1003.59"/><line class="cls-6" x1="51.81" y1="1016.94" x2="95.6" y2="1004.52"/><line class="cls-6" x1="94.98" y1="1001.72" x2="51.19" y2="1014.46"/><polyline class="cls-6" points="98.4 1003.59 101.2 1002.66 100.26 1000.17 97.47 1000.79"/><polyline class="cls-6" points="146.85 986.5 144.06 987.44 144.99 990.23 147.47 989.3"/><line class="cls-6" x1="101.2" y1="1002.66" x2="144.99" y2="990.23"/><line class="cls-6" x1="144.06" y1="987.44" x2="100.26" y2="1000.17"/><polyline class="cls-6" points="147.47 989.3 150.27 988.37 149.65 985.88 146.85 986.5"/><polyline class="cls-6" points="197.79 971.91 193.13 973.15 194.07 975.94 198.41 974.39"/><line class="cls-6" x1="150.27" y1="988.37" x2="194.07" y2="975.94"/><line class="cls-6" x1="193.13" y1="973.15" x2="149.65" y2="985.88"/><line class="cls-6" x1="47.46" y1="1018.5" x2="46.84" y2="1015.7"/><line class="cls-6" x1="198.41" y1="974.39" x2="197.79" y2="971.91"/><path d="M203.69,948.07m0-.62v0Zm.63,0h-.63v.62Z" transform="translate(0 -28.34)"/><path class="cls-6" d="M203.69,948.07m0-.62v0Zm.63,0h-.63v.62Z" transform="translate(0 -28.34)"/><path d="M203.69,947.45h0Z" transform="translate(0 -28.34)"/><path class="cls-6" d="M203.69,947.45h0Z" transform="translate(0 -28.34)"/><path d="M203.69,948.07H128.53v-.62Zm0,0Z" transform="translate(0 -28.34)"/><path class="cls-6" d="M203.69,948.07H128.53v-.62Zm0,0Z" transform="translate(0 -28.34)"/><polygon points="128.53 919.1 203.69 919.1 203.69 919.73 128.53 919.1"/><polygon class="cls-6" points="128.53 919.1 203.69 919.1 203.69 919.73 128.53 919.1"/><path d="M34.11,947.45h0Z" transform="translate(0 -28.34)"/><path class="cls-6" d="M34.11,947.45h0Z" transform="translate(0 -28.34)"/><path d="M42.49,948.07H34.11v-.62Zm0,0Z" transform="translate(0 -28.34)"/><path class="cls-6" d="M42.49,948.07H34.11v-.62Zm0,0Z" transform="translate(0 -28.34)"/><polygon points="34.11 919.1 42.49 919.1 42.49 919.73 34.11 919.1"/><polygon class="cls-6" points="34.11 919.1 42.49 919.1 42.49 919.73 34.11 919.1"/><path d="M204.32,938.75h0Z" transform="translate(0 -28.34)"/><path class="cls-6" d="M204.32,938.75h0Z" transform="translate(0 -28.34)"/><path d="M204.32,947.45m0-8.7v0Zm7.76,0h-7.76v8.7Z" transform="translate(0 -28.34)"/><path class="cls-6" d="M204.32,947.45m0-8.7v0Zm7.76,0h-7.76v8.7Z" transform="translate(0 -28.34)"/><path d="M204.32,938.75h0Z" transform="translate(0 -28.34)"/><path class="cls-6" d="M204.32,938.75h0Z" transform="translate(0 -28.34)"/><path d="M204.32,947.45Zm-75.79,0h0Zm75.79,0h0Zm-75.79-8.7,75.79,8.7H128.53Zm75.79,0H128.53l75.79,8.7Z" transform="translate(0 -28.34)"/><path class="cls-6" d="M204.32,947.45Zm-75.79,0h0Zm75.79,0h0Zm-75.79-8.7,75.79,8.7H128.53Zm75.79,0H128.53l75.79,8.7Z" transform="translate(0 -28.34)"/><path d="M34.11,938.75h0Z" transform="translate(0 -28.34)"/><path class="cls-6" d="M34.11,938.75h0Z" transform="translate(0 -28.34)"/><path d="M42.49,947.45H34.11v-8.7Zm0,0Z" transform="translate(0 -28.34)"/><path class="cls-6" d="M42.49,947.45H34.11v-8.7Zm0,0Z" transform="translate(0 -28.34)"/><polygon points="34.11 910.41 42.49 910.41 42.49 919.1 34.11 910.41"/><polygon class="cls-6" points="34.11 910.41 42.49 910.41 42.49 919.1 34.11 910.41"/><path d="M213,927.26h0Z" transform="translate(0 -28.34)"/><path class="cls-6" d="M213,927.26h0Z" transform="translate(0 -28.34)"/><path d="M213,937.82m0-10.56v0Zm9,0h-9v10.56Z" transform="translate(0 -28.34)"/><path class="cls-6" d="M213,937.82m0-10.56v0Zm9,0h-9v10.56Z" transform="translate(0 -28.34)"/><path d="M34.11,927.26h0Z" transform="translate(0 -28.34)"/><path class="cls-6" d="M34.11,927.26h0Z" transform="translate(0 -28.34)"/><path d="M34.11,927.26l8.38,8.7H34.11Zm8.38,0H34.11l8.38,8.7Z" transform="translate(0 -28.34)"/><path class="cls-6" d="M34.11,927.26l8.38,8.7H34.11Zm8.38,0H34.11l8.38,8.7Z" transform="translate(0 -28.34)"/><path d="M42.49,938.75H34.11V936Zm0,0Z" transform="translate(0 -28.34)"/><path class="cls-6" d="M42.49,938.75H34.11V936Zm0,0Z" transform="translate(0 -28.34)"/><polygon points="34.11 907.61 42.49 907.61 42.49 910.41 34.11 907.61"/><polygon class="cls-6" points="34.11 907.61 42.49 907.61 42.49 910.41 34.11 907.61"/><path d="M128.53,927.26,213,936H128.53Zm84.48,0H128.53L213,936Z" transform="translate(0 -28.34)"/><path class="cls-6" d="M128.53,927.26,213,936H128.53Zm84.48,0H128.53L213,936Z" transform="translate(0 -28.34)"/><path d="M128.53,936,213,937.82H128.53ZM213,936H128.53L213,937.82Z" transform="translate(0 -28.34)"/><path class="cls-6" d="M128.53,936,213,937.82H128.53ZM213,936H128.53L213,937.82Z" transform="translate(0 -28.34)"/><path d="M128.53,937.82l83.55.93H128.53Zm84.48,0H128.53l83.55.93Z" transform="translate(0 -28.34)"/><path class="cls-6" d="M128.53,937.82l83.55.93H128.53Zm84.48,0H128.53l83.55.93Z" transform="translate(0 -28.34)"/><path d="M128.22,938.75l.31,8.7h-.31Zm.31,0h-.31l.31,8.7Z" transform="translate(0 -28.34)"/><path class="cls-6" d="M128.22,938.75l.31,8.7h-.31Zm.31,0h-.31l.31,8.7Z" transform="translate(0 -28.34)"/><path d="M128.22,947.45l.31.62h-.31Zm.31,0h-.31l.31.62Z" transform="translate(0 -28.34)"/><path class="cls-6" d="M128.22,947.45l.31.62h-.31Zm.31,0h-.31l.31.62Z" transform="translate(0 -28.34)"/><path d="M42.49,938.75l.62,8.7h-.62Zm.62,0h-.62l.62,8.7Z" transform="translate(0 -28.34)"/><path class="cls-6" d="M42.49,938.75l.62,8.7h-.62Zm.62,0h-.62l.62,8.7Z" transform="translate(0 -28.34)"/><path d="M42.49,947.45l.62.62h-.62Zm.62,0h-.62l.62.62Z" transform="translate(0 -28.34)"/><path class="cls-6" d="M42.49,947.45l.62.62h-.62Zm.62,0h-.62l.62.62Z" transform="translate(0 -28.34)"/><line class="cls-6" x1="128.53" y1="919.1" x2="204.32" y2="919.1"/><line class="cls-6" x1="213.01" y1="898.91" x2="213.01" y2="909.48"/><line class="cls-6" x1="128.53" y1="910.41" x2="212.08" y2="910.41"/><polyline class="cls-6" points="34.11 898.91 34.11 910.41 42.49 910.41"/><polyline class="cls-6" points="42.49 919.1 42.49 910.41 43.11 910.41 43.11 919.73 42.49 919.73"/><polyline class="cls-6" points="128.53 919.1 128.53 910.41 128.22 910.41 128.22 919.73 128.53 919.73"/><polyline class="cls-6" points="42.49 910.41 42.49 907.61 42.49 898.91"/><polyline class="cls-6" points="128.53 910.41 128.53 907.61 128.53 898.91 213.01 898.91"/><line class="cls-6" x1="42.49" y1="898.91" x2="34.11" y2="898.91"/><line class="cls-6" x1="128.53" y1="919.73" x2="203.69" y2="919.73"/><line class="cls-6" x1="128.22" y1="919.73" x2="43.11" y2="919.73"/><line class="cls-6" x1="128.53" y1="898.91" x2="42.49" y2="898.91"/><path d="M123.87,936h0Z" transform="translate(0 -28.34)"/><path class="cls-6" d="M123.87,936h0Z" transform="translate(0 -28.34)"/><path d="M128.53,938.75h-4.66V936Zm0,0Z" transform="translate(0 -28.34)"/><path class="cls-6" d="M128.53,938.75h-4.66V936Zm0,0Z" transform="translate(0 -28.34)"/><polygon points="123.87 907.61 128.53 907.61 128.53 910.41 123.87 907.61"/><polygon class="cls-6" points="123.87 907.61 128.53 907.61 128.53 910.41 123.87 907.61"/><path d="M85.67,936h0Z" transform="translate(0 -28.34)"/><path class="cls-6" d="M85.67,936h0Z" transform="translate(0 -28.34)"/><path d="M88.46,938.75H85.67V936Zm0,0Z" transform="translate(0 -28.34)"/><path class="cls-6" d="M88.46,938.75H85.67V936Zm0,0Z" transform="translate(0 -28.34)"/><polygon points="85.67 907.61 88.46 907.61 88.46 910.41 85.67 907.61"/><polygon class="cls-6" points="85.67 907.61 88.46 907.61 88.46 910.41 85.67 907.61"/><path d="M82.87,936h0Z" transform="translate(0 -28.34)"/><path class="cls-6" d="M82.87,936h0Z" transform="translate(0 -28.34)"/><path d="M85.67,938.75h-2.8V936Zm0,0Z" transform="translate(0 -28.34)"/><path class="cls-6" d="M85.67,938.75h-2.8V936Zm0,0Z" transform="translate(0 -28.34)"/><polygon points="82.87 907.61 85.67 907.61 85.67 910.41 82.87 907.61"/><polygon class="cls-6" points="82.87 907.61 85.67 907.61 85.67 910.41 82.87 907.61"/><path d="M42.49,936h0Z" transform="translate(0 -28.34)"/><path class="cls-6" d="M42.49,936h0Z" transform="translate(0 -28.34)"/><path d="M47.46,938.75h-5V936Zm0,0Z" transform="translate(0 -28.34)"/><path class="cls-6" d="M47.46,938.75h-5V936Zm0,0Z" transform="translate(0 -28.34)"/><polygon points="42.49 907.61 47.46 907.61 47.46 910.41 42.49 907.61"/><polygon class="cls-6" points="42.49 907.61 47.46 907.61 47.46 910.41 42.49 907.61"/><polyline class="cls-6" points="128.53 910.41 123.87 910.41 123.87 907.61 128.53 907.61"/><polyline class="cls-6" points="85.67 907.61 88.46 907.61 88.46 910.41 85.67 910.41"/><line class="cls-6" x1="123.87" y1="910.41" x2="88.46" y2="910.41"/><line class="cls-6" x1="88.46" y1="907.61" x2="123.87" y2="907.61"/><polyline class="cls-6" points="85.67 910.41 82.87 910.41 82.87 907.61 85.67 907.61"/><polyline class="cls-6" points="42.49 907.61 47.46 907.61 47.46 910.41 42.49 910.41"/><line class="cls-6" x1="82.87" y1="910.41" x2="47.46" y2="910.41"/><line class="cls-6" x1="47.46" y1="907.61" x2="82.87" y2="907.61"/><line class="cls-6" x1="128.53" y1="910.41" x2="128.53" y2="907.61"/><line class="cls-6" x1="42.49" y1="910.41" x2="42.49" y2="907.61"/><path d="M203.69,948.07l.63,52.18h-.63Zm.63,0h-.63l.63,52.18Z" transform="translate(0 -28.34)"/><path class="cls-6" d="M203.69,948.07l.63,52.18h-.63Zm.63,0h-.63l.63,52.18Z" transform="translate(0 -28.34)"/><path d="M203.69,1000.87m0-.62v0Zm.63,0h-.63v.62Z" transform="translate(0 -28.34)"/><path class="cls-6" d="M203.69,1000.87m0-.62v0Zm.63,0h-.63v.62Z" transform="translate(0 -28.34)"/><path d="M204.32,947.45v.62h-.63Zm0,.62v0Z" transform="translate(0 -28.34)"/><path class="cls-6" d="M204.32,947.45v.62h-.63Zm0,.62v0Z" transform="translate(0 -28.34)"/><path d="M204.32,947.45" transform="translate(0 -28.34)"/><path class="cls-6" d="M204.32,947.45" transform="translate(0 -28.34)"/><path d="M204.32,995h0Z" transform="translate(0 -28.34)"/><path class="cls-6" d="M204.32,995h0Z" transform="translate(0 -28.34)"/><path d="M204.32,1000.25m0-5.28v0Zm4.65,0h-4.65v5.28Z" transform="translate(0 -28.34)"/><path class="cls-6" d="M204.32,1000.25m0-5.28v0Zm4.65,0h-4.65v5.28Z" transform="translate(0 -28.34)"/><path d="M204.32,947.45h0Z" transform="translate(0 -28.34)"/><path class="cls-6" d="M204.32,947.45h0Z" transform="translate(0 -28.34)"/><path d="M204.32,947.45,213,990.93h-8.69Zm8.69,0h-8.69L213,990.93Z" transform="translate(0 -28.34)"/><path class="cls-6" d="M204.32,947.45,213,990.93h-8.69Zm8.69,0h-8.69L213,990.93Z" transform="translate(0 -28.34)"/><path d="M209,995h-4.65v-4Zm0,0Z" transform="translate(0 -28.34)"/><path class="cls-6" d="M209,995h-4.65v-4Zm0,0Z" transform="translate(0 -28.34)"/><polygon points="204.32 962.59 213.01 962.59 208.97 966.63 204.32 962.59"/><polygon class="cls-6" points="204.32 962.59 213.01 962.59 208.97 966.63 204.32 962.59"/><path d="M212.08,938.75h0Z" transform="translate(0 -28.34)"/><path class="cls-6" d="M212.08,938.75h0Z" transform="translate(0 -28.34)"/><path d="M213,947.45Zm-8.69,0h0Zm8.69,0h0Zm-.93-8.7.93,8.7h-8.69Zm.93,0h-.93l.93,8.7Z" transform="translate(0 -28.34)"/><path class="cls-6" d="M213,947.45Zm-8.69,0h0Zm8.69,0h0Zm-.93-8.7.93,8.7h-8.69Zm.93,0h-.93l.93,8.7Z" transform="translate(0 -28.34)"/><path d="M213,938.75h0Zm0-.93v.93h-.93Z" transform="translate(0 -28.34)"/><path class="cls-6" d="M213,938.75h0Zm0-.93v.93h-.93Z" transform="translate(0 -28.34)"/><polygon points="222.02 898.91 222.02 909.48 213.01 909.48 222.02 898.91"/><polygon class="cls-6" points="222.02 898.91 222.02 909.48 213.01 909.48 222.02 898.91"/><path d="M213,937.82l9,42.86h-9Zm9,0h-9l9,42.86Z" transform="translate(0 -28.34)"/><path class="cls-6" d="M213,937.82l9,42.86h-9Zm9,0h-9l9,42.86Z" transform="translate(0 -28.34)"/><path d="M213,990.93m0-10.25v0Zm9,0h-9v10.25Z" transform="translate(0 -28.34)"/><path class="cls-6" d="M213,990.93m0-10.25v0Zm9,0h-9v10.25Z" transform="translate(0 -28.34)"/><line class="cls-6" x1="204.32" y1="919.1" x2="204.32" y2="919.1"/><polyline class="cls-6" points="204.32 919.1 204.32 966.63 204.32 971.91"/><line class="cls-6" x1="213.01" y1="910.41" x2="212.08" y2="910.41"/><line class="cls-6" x1="213.01" y1="909.48" x2="213.01" y2="962.59"/><line class="cls-6" x1="203.69" y1="919.73" x2="203.69" y2="972.53"/><line class="cls-6" x1="222.02" y1="952.34" x2="222.02" y2="898.91"/><path d="M42.49,947.45h0Z" transform="translate(0 -28.34)"/><path class="cls-6" d="M42.49,947.45h0Z" transform="translate(0 -28.34)"/><path d="M42.49,947.45l.62.62h-.62Zm.31,0h-.31l.62.62Z" transform="translate(0 -28.34)"/><path class="cls-6" d="M42.49,947.45l.62.62h-.62Zm.31,0h-.31l.62.62Z" transform="translate(0 -28.34)"/><path d="M42.49,1000.25h.62v.62Zm0-52.18v52.18h.62Z" transform="translate(0 -28.34)"/><path class="cls-6" d="M42.49,1000.25h.62v.62Zm0-52.18v52.18h.62Z" transform="translate(0 -28.34)"/><polygon points="42.49 919.73 43.11 919.73 43.11 971.91 42.49 919.73"/><polygon class="cls-6" points="42.49 919.73 43.11 919.73 43.11 971.91 42.49 919.73"/><path d="M35,938.75h0Zm-.93-.93.93.93h-.93Z" transform="translate(0 -28.34)"/><path class="cls-6" d="M35,938.75h0Zm-.93-.93.93.93h-.93Z" transform="translate(0 -28.34)"/><path d="M34.11,938.75h0Z" transform="translate(0 -28.34)"/><path class="cls-6" d="M34.11,938.75h0Z" transform="translate(0 -28.34)"/><path d="M42.49,947.45h0Zm0,0Zm-8.38,0h0Zm8.38,0h0Zm-8.38-8.7,8.38,8.7H34.11Zm.93,0h-.93l8.38,8.7Z" transform="translate(0 -28.34)"/><path class="cls-6" d="M42.49,947.45h0Zm0,0Zm-8.38,0h0Zm8.38,0h0Zm-8.38-8.7,8.38,8.7H34.11Zm.93,0h-.93l8.38,8.7Z" transform="translate(0 -28.34)"/><path d="M34.11,947.45l8.38,43.48H34.11Zm8.38,0H34.11l8.38,43.48Z" transform="translate(0 -28.34)"/><path class="cls-6" d="M34.11,947.45l8.38,43.48H34.11Zm8.38,0H34.11l8.38,43.48Z" transform="translate(0 -28.34)"/><path d="M42.49,995H37.83l-3.72-4Zm0,0Z" transform="translate(0 -28.34)"/><path class="cls-6" d="M42.49,995H37.83l-3.72-4Zm0,0Z" transform="translate(0 -28.34)"/><polygon points="34.11 962.59 42.49 962.59 42.49 966.63 34.11 962.59"/><polygon class="cls-6" points="34.11 962.59 42.49 962.59 42.49 966.63 34.11 962.59"/><path d="M42.49,995H37.83l4.66,5.28Zm0,0Z" transform="translate(0 -28.34)"/><path class="cls-6" d="M42.49,995H37.83l4.66,5.28Zm0,0Z" transform="translate(0 -28.34)"/><polygon points="24.79 898.91 34.11 909.48 24.79 909.48 24.79 898.91"/><polygon class="cls-6" points="24.79 898.91 34.11 909.48 24.79 909.48 24.79 898.91"/><path d="M24.79,980.68h9.32v10.25Zm0-42.86v42.86h9.32Z" transform="translate(0 -28.34)"/><path class="cls-6" d="M24.79,980.68h9.32v10.25Zm0-42.86v42.86h9.32Z" transform="translate(0 -28.34)"/><polygon points="24.79 909.48 34.11 909.48 34.11 952.34 24.79 909.48"/><polygon class="cls-6" points="24.79 909.48 34.11 909.48 34.11 952.34 24.79 909.48"/><line class="cls-6" x1="42.49" y1="919.1" x2="42.8" y2="919.1"/><line class="cls-6" x1="34.11" y1="910.41" x2="35.04" y2="910.41"/><polyline class="cls-6" points="42.49 971.91 42.49 966.63 42.49 919.1"/><line class="cls-6" x1="34.11" y1="962.59" x2="34.11" y2="909.48"/><line class="cls-6" x1="43.11" y1="972.53" x2="43.11" y2="919.73"/><line class="cls-6" x1="24.79" y1="898.91" x2="24.79" y2="952.34"/><path d="M34.11,676.6h0Z" transform="translate(0 -28.34)"/><path class="cls-6" d="M34.11,676.6h0Z" transform="translate(0 -28.34)"/><path d="M59.26,681.26H34.11V676.6Zm0,0Z" transform="translate(0 -28.34)"/><path class="cls-6" d="M59.26,681.26H34.11V676.6Zm0,0Z" transform="translate(0 -28.34)"/><polygon points="34.11 648.26 59.26 648.26 59.26 652.92 34.11 648.26"/><polygon class="cls-6" points="34.11 648.26 59.26 648.26 59.26 652.92 34.11 648.26"/><path d="M110.82,676.6h0Z" transform="translate(0 -28.34)"/><path class="cls-6" d="M110.82,676.6h0Z" transform="translate(0 -28.34)"/><path d="M213,681.26H110.82V676.6Zm0,0Z" transform="translate(0 -28.34)"/><path class="cls-6" d="M213,681.26H110.82V676.6Zm0,0Z" transform="translate(0 -28.34)"/><polygon points="110.82 648.26 213.01 648.26 213.01 652.92 110.82 648.26"/><polygon class="cls-6" points="110.82 648.26 213.01 648.26 213.01 652.92 110.82 648.26"/><line class="cls-6" x1="59.26" y1="652.92" x2="59.26" y2="648.26"/><line class="cls-6" x1="110.82" y1="652.92" x2="110.82" y2="648.26"/><line class="cls-6" x1="34.11" y1="652.92" x2="59.26" y2="652.92"/><polyline class="cls-6" points="110.82 652.92 213.01 652.92 213.01 648.26 118.28 648.26"/><line class="cls-6" x1="113.62" y1="648.26" x2="110.82" y2="648.26"/><polyline class="cls-6" points="59.26 648.26 34.11 648.26 34.11 652.92"/><line class="cls-6" x1="110.82" y1="652.92" x2="108.03" y2="652.92"/><line class="cls-6" x1="110.82" y1="648.26" x2="108.03" y2="648.26"/><line class="cls-6" x1="59.26" y1="652.92" x2="62.06" y2="652.92"/><line class="cls-6" x1="59.26" y1="648.26" x2="62.06" y2="648.26"/><line class="cls-6" x1="108.03" y1="648.26" x2="108.03" y2="652.92"/><polyline class="cls-6" points="62.06 648.26 62.06 652.92 62.06 698.89"/><path class="cls-6" d="M61.9,726.92a45.81,45.81,0,0,0,45.82-45.81" transform="translate(0 -28.34)"/><path d="M118.28,474.09v4.66h-4.66Zm0,4.66v0Z" transform="translate(0 -28.34)"/><path class="cls-6" d="M118.28,474.09v4.66h-4.66Zm0,4.66v0Z" transform="translate(0 -28.34)"/><path d="M118.28,586.53h-4.66V478.75Zm0,0Z" transform="translate(0 -28.34)"/><path class="cls-6" d="M118.28,586.53h-4.66V478.75Zm0,0Z" transform="translate(0 -28.34)"/><polygon points="113.62 450.4 118.28 450.4 118.28 558.18 113.62 450.4"/><polygon class="cls-6" points="113.62 450.4 118.28 450.4 118.28 558.18 113.62 450.4"/><path d="M113.62,632.5h0Z" transform="translate(0 -28.34)"/><path class="cls-6" d="M113.62,632.5h0Z" transform="translate(0 -28.34)"/><path d="M118.28,676.6h-4.66V632.5Zm0,0Z" transform="translate(0 -28.34)"/><path class="cls-6" d="M118.28,676.6h-4.66V632.5Zm0,0Z" transform="translate(0 -28.34)"/><polygon points="113.62 604.15 118.28 604.15 118.28 648.26 113.62 604.15"/><polygon class="cls-6" points="113.62 604.15 118.28 604.15 118.28 648.26 113.62 604.15"/><line class="cls-6" x1="113.62" y1="558.18" x2="118.28" y2="558.18"/><polyline class="cls-6" points="113.62 604.15 118.28 604.15 118.28 648.26"/><line class="cls-6" x1="118.28" y1="558.18" x2="118.28" y2="512.22"/><line class="cls-6" x1="118.28" y1="507.87" x2="118.28" y2="484.88"/><line class="cls-6" x1="118.28" y1="480.22" x2="118.28" y2="445.75"/><line class="cls-6" x1="113.62" y1="450.41" x2="113.62" y2="558.18"/><line class="cls-6" x1="113.62" y1="604.15" x2="113.62" y2="648.26"/><line class="cls-6" x1="113.62" y1="604.15" x2="113.62" y2="601.36"/><line class="cls-6" x1="118.28" y1="604.15" x2="118.28" y2="601.36"/><line class="cls-6" x1="113.62" y1="558.18" x2="113.62" y2="560.98"/><line class="cls-6" x1="118.28" y1="558.18" x2="118.28" y2="560.98"/><line class="cls-6" x1="118.28" y1="601.36" x2="113.62" y2="601.36"/><polyline class="cls-6" points="118.28 560.98 113.62 560.98 93.74 595.77"/><path class="cls-6" d="M93.35,624a40.24,40.24,0,0,0,20.11,5.39" transform="translate(0 -28.34)"/><path d="M111.45,474.09h0Z" transform="translate(0 -28.34)"/><path class="cls-6" d="M111.45,474.09h0Z" transform="translate(0 -28.34)"/><path d="M113.62,478.75h-2.17v-4.66Zm0,0Z" transform="translate(0 -28.34)"/><path class="cls-6" d="M113.62,478.75h-2.17v-4.66Zm0,0Z" transform="translate(0 -28.34)"/><polygon points="111.45 445.75 118.28 445.75 113.62 450.4 111.45 445.75"/><polygon class="cls-6" points="111.45 445.75 118.28 445.75 113.62 450.4 111.45 445.75"/><path d="M34.11,474.09h0Z" transform="translate(0 -28.34)"/><path class="cls-6" d="M34.11,474.09h0Z" transform="translate(0 -28.34)"/><path d="M59.89,478.75H34.11v-4.66Zm0,0Z" transform="translate(0 -28.34)"/><path class="cls-6" d="M59.89,478.75H34.11v-4.66Zm0,0Z" transform="translate(0 -28.34)"/><polygon points="34.11 445.75 59.89 445.75 59.89 450.4 34.11 445.75"/><polygon class="cls-6" points="34.11 445.75 59.89 445.75 59.89 450.4 34.11 445.75"/><line class="cls-6" x1="111.45" y1="445.75" x2="111.45" y2="450.41"/><polyline class="cls-6" points="59.89 445.75 59.89 450.4 34.11 450.4"/><line class="cls-6" x1="111.45" y1="450.41" x2="113.62" y2="450.41"/><line class="cls-6" x1="118.28" y1="445.75" x2="111.45" y2="445.75"/><line class="cls-6" x1="59.89" y1="445.75" x2="34.11" y2="445.75"/><line class="cls-6" x1="59.89" y1="450.41" x2="62.68" y2="450.41"/><line class="cls-6" x1="59.89" y1="445.75" x2="62.68" y2="445.75"/><line class="cls-6" x1="111.45" y1="450.41" x2="108.65" y2="450.41"/><line class="cls-6" x1="111.45" y1="445.75" x2="108.65" y2="445.75"/><line class="cls-6" x1="62.68" y1="445.75" x2="62.68" y2="450.41"/><polyline class="cls-6" points="108.65 445.75 108.65 450.4 108.65 496.37"/><path class="cls-6" d="M62.68,478.59a45.81,45.81,0,0,0,45.81,45.82" transform="translate(0 -28.34)"/><path d="M118.28,536.21h0Z" transform="translate(0 -28.34)"/><path class="cls-6" d="M118.28,536.21h0Z" transform="translate(0 -28.34)"/><path d="M213,540.56H118.28v-4.35Zm0,0Z" transform="translate(0 -28.34)"/><path class="cls-6" d="M213,540.56H118.28v-4.35Zm0,0Z" transform="translate(0 -28.34)"/><polygon points="118.28 507.87 213.01 507.87 213.01 512.22 118.28 507.87"/><polygon class="cls-6" points="118.28 507.87 213.01 507.87 213.01 512.22 118.28 507.87"/><line class="cls-6" x1="213.01" y1="507.87" x2="184.44" y2="507.87"/><line class="cls-6" x1="179.78" y1="507.87" x2="118.28" y2="507.87"/><polyline class="cls-6" points="118.28 512.22 213.01 512.22 213.01 507.87"/><path d="M179.78,513.23h0Z" transform="translate(0 -28.34)"/><path class="cls-6" d="M179.78,513.23h0Z" transform="translate(0 -28.34)"/><path d="M184.44,536.21h-4.66v-23Zm0,0Z" transform="translate(0 -28.34)"/><path class="cls-6" d="M184.44,536.21h-4.66v-23Zm0,0Z" transform="translate(0 -28.34)"/><polygon points="179.78 484.88 184.44 484.88 184.44 507.87 179.78 484.88"/><polygon class="cls-6" points="179.78 484.88 184.44 484.88 184.44 507.87 179.78 484.88"/><line class="cls-6" x1="179.78" y1="484.88" x2="179.78" y2="507.87"/><line class="cls-6" x1="184.44" y1="507.87" x2="184.44" y2="484.88"/><path d="M118.28,508.57h0Z" transform="translate(0 -28.34)"/><path class="cls-6" d="M118.28,508.57h0Z" transform="translate(0 -28.34)"/><path d="M213,513.23H118.28v-4.66Zm0,0Z" transform="translate(0 -28.34)"/><path class="cls-6" d="M213,513.23H118.28v-4.66Zm0,0Z" transform="translate(0 -28.34)"/><polygon points="118.28 480.22 213.01 480.22 213.01 484.88 118.28 480.22"/><polygon class="cls-6" points="118.28 480.22 213.01 480.22 213.01 484.88 118.28 480.22"/><line class="cls-6" x1="118.28" y1="484.88" x2="179.78" y2="484.88"/><polyline class="cls-6" points="184.44 484.88 213.01 484.88 213.01 480.22 118.28 480.22"/><path d="M59.89,396.75h0Z" transform="translate(0 -28.34)"/><path class="cls-6" d="M59.89,396.75h0Z" transform="translate(0 -28.34)"/><path d="M34.11,396.75l25.78,4.66H34.11Zm25.78,0H34.11l25.78,4.66Z" transform="translate(0 -28.34)"/><path class="cls-6" d="M34.11,396.75l25.78,4.66H34.11Zm25.78,0H34.11l25.78,4.66Z" transform="translate(0 -28.34)"/><path d="M178.54,396.75h0Z" transform="translate(0 -28.34)"/><path class="cls-6" d="M178.54,396.75h0Z" transform="translate(0 -28.34)"/><path d="M213,401.41H178.54v-4.66Zm0,0Z" transform="translate(0 -28.34)"/><path class="cls-6" d="M213,401.41H178.54v-4.66Zm0,0Z" transform="translate(0 -28.34)"/><polygon points="178.54 368.41 213.01 368.41 213.01 373.06 178.54 368.41"/><polygon class="cls-6" points="178.54 368.41 213.01 368.41 213.01 373.06 178.54 368.41"/><line class="cls-6" x1="59.89" y1="368.41" x2="59.89" y2="373.07"/><line class="cls-6" x1="178.54" y1="368.41" x2="178.54" y2="373.07"/><line class="cls-6" x1="34.11" y1="373.07" x2="59.89" y2="373.07"/><polyline class="cls-6" points="178.54 373.06 213.01 373.06 213.01 368.41 178.54 368.41"/><polyline class="cls-6" points="59.89 368.41 34.11 368.41 34.11 373.06"/><polyline class="cls-6" points="178.54 373.06 178.54 368.41 151.82 355.36 124.8 368.41 98.09 355.36 71.38 368.41"/><line class="cls-6" x1="59.89" y1="368.41" x2="59.89" y2="373.07"/><line class="cls-6" x1="24.79" y1="605.4" x2="24.79" y2="608.19"/><path d="M22.92,633.74l1.87,2.8H22.92Zm1.87,0H22.92l1.87,2.8Z" transform="translate(0 -28.34)"/><path class="cls-6" d="M22.92,633.74l1.87,2.8H22.92Zm1.87,0H22.92l1.87,2.8Z" transform="translate(0 -28.34)"/><polyline class="cls-6" points="24.79 605.4 22.92 605.4 22.92 608.19 24.79 608.19 24.79 605.4"/><path class="cls-6" d="M22.92,633.74" transform="translate(0 -28.34)"/><line class="cls-6" x1="24.79" y1="605.4" x2="24.79" y2="608.19"/><path d="M32.55,533.1h0Zm0,0Z" transform="translate(0 -28.34)"/><path class="cls-6" d="M32.55,533.1h0Zm0,0Z" transform="translate(0 -28.34)"/><path d="M32.55,533.1h0Z" transform="translate(0 -28.34)"/><path class="cls-6" d="M32.55,533.1h0Z" transform="translate(0 -28.34)"/><path d="M34.11,544.6H22.61V533.1Zm0,0Z" transform="translate(0 -28.34)"/><path class="cls-6" d="M34.11,544.6H22.61V533.1Zm0,0Z" transform="translate(0 -28.34)"/><polygon points="22.61 504.76 34.11 504.76 34.11 516.25 22.61 504.76"/><polygon class="cls-6" points="22.61 504.76 34.11 504.76 34.11 516.25 22.61 504.76"/><path d="M32.55,521.61h0Zm0,0Z" transform="translate(0 -28.34)"/><path class="cls-6" d="M32.55,521.61h0Zm0,0Z" transform="translate(0 -28.34)"/><path d="M32.55,521.61h0Z" transform="translate(0 -28.34)"/><path class="cls-6" d="M32.55,521.61h0Z" transform="translate(0 -28.34)"/><path d="M34.11,533.1H22.61V521.61Zm0,0Z" transform="translate(0 -28.34)"/><path class="cls-6" d="M34.11,533.1H22.61V521.61Zm0,0Z" transform="translate(0 -28.34)"/><polygon points="22.61 493.27 34.11 493.27 34.11 504.76 22.61 493.27"/><polygon class="cls-6" points="22.61 493.27 34.11 493.27 34.11 504.76 22.61 493.27"/><path d="M22.61,398.3h0Z" transform="translate(0 -28.34)"/><path class="cls-6" d="M22.61,398.3h0Z" transform="translate(0 -28.34)"/><path d="M22.61,398.3l11.5,123.31H22.61Zm11.5,0H22.61l11.5,123.31Z" transform="translate(0 -28.34)"/><path class="cls-6" d="M22.61,398.3l11.5,123.31H22.61Zm11.5,0H22.61l11.5,123.31Z" transform="translate(0 -28.34)"/><path d="M23.55,521.61h0Zm0,0Zm-.94,0h0Z" transform="translate(0 -28.34)"/><path class="cls-6" d="M23.55,521.61h0Zm0,0Zm-.94,0h0Z" transform="translate(0 -28.34)"/><line class="cls-6" x1="22.61" y1="504.76" x2="34.11" y2="504.76"/><line class="cls-6" x1="34.11" y1="493.27" x2="22.61" y2="493.27"/><line class="cls-6" x1="34.11" y1="516.25" x2="34.11" y2="450.41"/><polyline class="cls-6" points="34.11 445.75 34.11 369.96 22.61 369.96 22.61 402.88"/><line class="cls-6" x1="22.61" y1="407.23" x2="22.61" y2="493.27"/><line class="cls-6" x1="22.61" y1="504.76" x2="22.61" y2="516.25"/><path d="M22.61,174.67h0Z" transform="translate(0 -28.34)"/><path class="cls-6" d="M22.61,174.67h0Z" transform="translate(0 -28.34)"/><path d="M34.11,341.15H22.61V174.67Zm0,0Z" transform="translate(0 -28.34)"/><path class="cls-6" d="M34.11,341.15H22.61V174.67Zm0,0Z" transform="translate(0 -28.34)"/><polygon points="22.61 146.32 34.11 146.32 34.11 312.81 22.61 146.32"/><polygon class="cls-6" points="22.61 146.32 34.11 146.32 34.11 312.81 22.61 146.32"/><polyline class="cls-6" points="34.11 312.81 34.11 146.32 22.61 146.32 22.61 312.81 34.11 312.81"/><path d="M22.61,617.9l11.5,15.84H22.61Zm11.5,0H22.61l11.5,15.84Z" transform="translate(0 -28.34)"/><path class="cls-6" d="M22.61,617.9l11.5,15.84H22.61Zm11.5,0H22.61l11.5,15.84Z" transform="translate(0 -28.34)"/><path d="M22.61,544.6h0Z" transform="translate(0 -28.34)"/><path class="cls-6" d="M22.61,544.6h0Z" transform="translate(0 -28.34)"/><path d="M22.61,544.6l11.5,15.84H22.61Zm11.5,0H22.61l11.5,15.84Z" transform="translate(0 -28.34)"/><path class="cls-6" d="M22.61,544.6l11.5,15.84H22.61Zm11.5,0H22.61l11.5,15.84Z" transform="translate(0 -28.34)"/><line class="cls-6" x1="34.11" y1="589.56" x2="22.61" y2="589.56"/><line class="cls-6" x1="34.11" y1="532.09" x2="22.61" y2="532.09"/><line class="cls-6" x1="34.11" y1="605.4" x2="34.11" y2="589.56"/><line class="cls-6" x1="34.11" y1="532.09" x2="34.11" y2="516.25"/><line class="cls-6" x1="22.61" y1="516.25" x2="22.61" y2="532.09"/><polyline class="cls-6" points="22.61 589.55 22.61 605.4 34.11 605.4"/><path class="cls-6" d="M86.6,615.57A52.65,52.65,0,0,0,34,562.92" transform="translate(0 -28.34)"/><path d="M22.61,560.44h0Z" transform="translate(0 -28.34)"/><path class="cls-6" d="M22.61,560.44h0Z" transform="translate(0 -28.34)"/><path d="M34.11,562.92H22.61v-2.48Zm0,0Z" transform="translate(0 -28.34)"/><path class="cls-6" d="M34.11,562.92H22.61v-2.48Zm0,0Z" transform="translate(0 -28.34)"/><polygon points="22.61 532.09 34.11 532.09 34.11 534.58 22.61 532.09"/><polygon class="cls-6" points="22.61 532.09 34.11 532.09 34.11 534.58 22.61 532.09"/><path d="M22.61,615.72h0Z" transform="translate(0 -28.34)"/><path class="cls-6" d="M22.61,615.72h0Z" transform="translate(0 -28.34)"/><path d="M34.11,617.9H22.61v-2.18Zm0,0Z" transform="translate(0 -28.34)"/><path class="cls-6" d="M34.11,617.9H22.61v-2.18Zm0,0Z" transform="translate(0 -28.34)"/><polygon points="22.61 587.38 34.11 587.38 34.11 589.55 22.61 587.38"/><polygon class="cls-6" points="22.61 587.38 34.11 587.38 34.11 589.55 22.61 587.38"/><polyline class="cls-6" points="22.61 532.09 22.61 534.58 34.11 534.58 34.11 532.09 22.61 532.09"/><polyline class="cls-6" points="34.11 589.55 34.11 587.38 22.61 587.38 22.61 589.55 34.11 589.55"/><line class="cls-6" x1="34.11" y1="587.38" x2="86.91" y2="587.38"/><line class="cls-6" x1="34.11" y1="532.09" x2="22.61" y2="532.09"/><line class="cls-6" x1="34.11" y1="589.56" x2="22.61" y2="589.56"/><polyline class="cls-6" points="0.25 973.46 1.49 975.01 34.42 975.01 34.42 973.46 0.25 973.46"/><line class="cls-6" x1="0.87" y1="974.08" x2="34.42" y2="974.08"/><polyline class="cls-6" points="1.49 975.01 1.49 1025.02 0.25 1026.26 0.25 973.46 1.49 975.01"/><line class="cls-6" x1="0.87" y1="974.08" x2="0.87" y2="1025.64"/><polyline class="cls-6" points="1.49 1025.02 34.42 1025.02 34.42 1026.26 0.25 1026.26 1.49 1025.02"/><line class="cls-6" x1="0.87" y1="1025.64" x2="34.42" y2="1025.64"/><polyline class="cls-6" points="40.32 39.79 40.32 73.02 38.77 73.02 38.77 38.55 40.32 39.79"/><polyline class="cls-6" points="94.36 38.55 94.36 73.02 93.12 73.02 93.12 39.79 40.32 39.79 38.77 38.55 94.36 38.55 93.12 39.79 94.36 38.55"/><polyline class="cls-6" points="93.74 39.17 39.7 39.17 39.7 73.02"/><polyline class="cls-6" points="91.57 48.8 41.87 48.8 41.87 67.12 91.57 67.12 91.57 48.8"/><polyline class="cls-6" points="91.57 50.66 41.87 50.66 41.87 67.12 91.57 67.12 91.57 50.66"/><line class="cls-6" x1="93.74" y1="39.17" x2="93.74" y2="73.02"/><polyline class="cls-6" points="144.06 445.75 178.54 445.75 178.54 480.22 161.45 480.22 144.06 480.22 144.06 445.75"/><polyline class="cls-6" points="146.54 478.05 146.54 448.23 176.36 448.23 176.36 478.05 161.45 478.05 146.54 478.05"/><line class="cls-6" x1="24.48" y1="634.9" x2="24.79" y2="634.9"/><line class="cls-6" x1="118.28" y1="445.75" x2="178.54" y2="445.75"/><line class="cls-6" x1="59.89" y1="450.41" x2="59.89" y2="368.41"/><line class="cls-6" x1="178.54" y1="464.69" x2="178.54" y2="368.41"/><line class="cls-6" x1="57.09" y1="368.41" x2="34.11" y2="368.41"/><path class="cls-6" d="M22.61,544.6" transform="translate(0 -28.34)"/><path d="M213,131.5h0Z" transform="translate(0 -28.34)"/><path class="cls-6" d="M213,131.5h0Z" transform="translate(0 -28.34)"/><path d="M222,927.26h-9V131.5Zm0,0Z" transform="translate(0 -28.34)"/><path class="cls-6" d="M222,927.26h-9V131.5Zm0,0Z" transform="translate(0 -28.34)"/><polygon points="213.01 103.15 222.02 103.15 222.02 898.91 213.01 103.15"/><polygon class="cls-6" points="213.01 103.15 222.02 103.15 222.02 898.91 213.01 103.15"/><line class="cls-6" x1="213.01" y1="103.15" x2="213.01" y2="898.91"/><line class="cls-6" x1="222.02" y1="898.91" x2="222.02" y2="103.15"/><path d="M22.61,521.61" transform="translate(0 -28.34)"/><path class="cls-6" d="M22.61,521.61" transform="translate(0 -28.34)"/><path d="M22.61,533.1" transform="translate(0 -28.34)"/><line x1="22.61" y1="504.76" x2="22.61" y2="504.76"/><path class="cls-6" d="M22.61,533.1" transform="translate(0 -28.34)"/><line class="cls-6" x1="22.61" y1="504.76" x2="22.61" y2="504.76"/><line x1="22.61" y1="493.27" x2="22.61" y2="504.76"/><line class="cls-6" x1="22.61" y1="493.27" x2="22.61" y2="504.76"/><path class="cls-6" d="M22.61,533.1" transform="translate(0 -28.34)"/><path class="cls-6" d="M22.61,521.61" transform="translate(0 -28.34)"/><path d="M22.61,341.15h0Z" transform="translate(0 -28.34)"/><path class="cls-6" d="M22.61,341.15h0Z" transform="translate(0 -28.34)"/><path d="M34.11,398.3H22.61V341.15Zm0,0Z" transform="translate(0 -28.34)"/><path class="cls-6" d="M34.11,398.3H22.61V341.15Zm0,0Z" transform="translate(0 -28.34)"/><polygon points="22.61 312.81 34.11 312.81 34.11 369.96 22.61 312.81"/><polygon class="cls-6" points="22.61 312.81 34.11 312.81 34.11 369.96 22.61 312.81"/><polyline class="cls-6" points="34.11 369.96 34.11 312.81 22.61 312.81 22.61 369.96 34.11 369.96"/><path d="M22.61,131.5h0Z" transform="translate(0 -28.34)"/><path class="cls-6" d="M22.61,131.5h0Z" transform="translate(0 -28.34)"/><path d="M34.11,174.67H22.61V131.5Zm0,0Z" transform="translate(0 -28.34)"/><path class="cls-6" d="M34.11,174.67H22.61V131.5Zm0,0Z" transform="translate(0 -28.34)"/><polygon points="22.61 103.15 34.11 103.15 34.11 146.32 22.61 103.15"/><polygon class="cls-6" points="22.61 103.15 34.11 103.15 34.11 146.32 22.61 103.15"/><line class="cls-6" x1="34.11" y1="146.33" x2="34.11" y2="103.15"/><polyline class="cls-6" points="22.61 103.15 22.61 146.32 34.11 146.32"/><path d="M34.11,938.75H24.79v-305Zm0,0Z" transform="translate(0 -28.34)"/><path class="cls-6" d="M34.11,938.75H24.79v-305Zm0,0Z" transform="translate(0 -28.34)"/><polygon points="24.79 605.4 34.11 605.4 34.11 910.41 24.79 605.4"/><polygon class="cls-6" points="24.79 605.4 34.11 605.4 34.11 910.41 24.79 605.4"/><path d="M24.79,938.75h0Z" transform="translate(0 -28.34)"/><path class="cls-6" d="M24.79,938.75h0Z" transform="translate(0 -28.34)"/><path d="M34.11,947.45H24.79v-8.7Zm0,0Z" transform="translate(0 -28.34)"/><path class="cls-6" d="M34.11,947.45H24.79v-8.7Zm0,0Z" transform="translate(0 -28.34)"/><polygon points="24.79 910.41 34.11 910.41 34.11 919.1 24.79 910.41"/><polygon class="cls-6" points="24.79 910.41 34.11 910.41 34.11 919.1 24.79 910.41"/><path d="M24.79,947.45h0Z" transform="translate(0 -28.34)"/><path class="cls-6" d="M24.79,947.45h0Z" transform="translate(0 -28.34)"/><path d="M34.11,948.07H24.79v-.62Zm0,0Z" transform="translate(0 -28.34)"/><path class="cls-6" d="M34.11,948.07H24.79v-.62Zm0,0Z" transform="translate(0 -28.34)"/><polygon points="24.79 919.1 34.11 919.1 34.11 919.73 24.79 919.1"/><polygon class="cls-6" points="24.79 919.1 34.11 919.1 34.11 919.73 24.79 919.1"/><path d="M24.79,948.07h0Z" transform="translate(0 -28.34)"/><path class="cls-6" d="M24.79,948.07h0Z" transform="translate(0 -28.34)"/><path d="M34.11,986.58H24.79V948.07Zm0,0Z" transform="translate(0 -28.34)"/><path class="cls-6" d="M34.11,986.58H24.79V948.07Zm0,0Z" transform="translate(0 -28.34)"/><polygon points="24.79 919.73 34.11 919.73 34.11 958.24 24.79 919.73"/><polygon class="cls-6" points="24.79 919.73 34.11 919.73 34.11 958.24 24.79 919.73"/><line class="cls-6" x1="34.11" y1="910.41" x2="24.79" y2="910.41"/><line class="cls-6" x1="24.79" y1="919.1" x2="34.11" y2="919.1"/><polyline class="cls-6" points="24.79 919.73 34.11 919.73 34.11 958.24"/><polyline class="cls-6" points="34.11 910.41 34.11 605.4 24.79 605.4 24.79 910.41"/><polyline class="cls-6" points="24.79 919.73 24.79 958.24 34.11 958.24"/></svg>