<svg id="_778" data-name="778" xmlns="http://www.w3.org/2000/svg" viewBox="0 0 423.74 510.42"><defs><style>.cls-1,.cls-5{fill:none;stroke-linecap:round;stroke-linejoin:round;stroke-width:0.5px;}.cls-1{stroke:#999;}.cls-2{isolation:isolate;font-size:12px;fill:#999;}.cls-2,.cls-4,.cls-6{font-family:PTSans-Regular, PT Sans;}.cls-3{letter-spacing:-0.01em;}.cls-4{font-size:24px;}.cls-5{stroke:#000;}.cls-6{font-size:20px;}</style></defs><title>9floor_778flat</title><line class="cls-1" x1="193.79" y1="499.08" x2="193.79" y2="507.88"/><polyline class="cls-1" points="190.19 504.58 193.69 508.08 197.19 504.58"/><text class="cls-2" transform="translate(203.01 507.48)"><tspan class="cls-3">у</tspan><tspan x="5.42" y="0">лица</tspan></text><text class="cls-4" transform="translate(299.97 299.85)">1К</text><text class="cls-4" transform="translate(285.1 332.89)">32.98</text><text class="cls-4" transform="translate(281.93 267.3)">№778</text><polyline class="cls-5" points="273.3 341.26 273.3 244.06 354.36 244.06 354.36 341.26"/><line class="cls-5" x1="273.3" y1="276.52" x2="354.36" y2="276.52"/><line class="cls-5" x1="273.3" y1="341.26" x2="354.36" y2="341.26"/><line class="cls-5" x1="273.3" y1="308.98" x2="354.36" y2="308.98"/><polyline class="cls-5" points="13.31 157.72 13.31 318.26 13.31 325.94 13.31 335.93 204.57 335.93 204.57 157.72 196.51 157.72 13.31 157.72"/><polyline class="cls-5" points="13.31 13.31 13.31 121.61 13.31 127.38 137.75 127.38 137.75 121.61 137.75 13.31 13.31 13.31"/><line class="cls-5" x1="21.76" y1="122.38" x2="52.87" y2="122.38"/><line class="cls-5" x1="56.71" y1="118.54" x2="56.71" y2="37.5"/><line class="cls-5" x1="18.3" y1="118.54" x2="18.3" y2="37.5"/><line class="cls-5" x1="60.55" y1="14.84" x2="60.55" y2="126.22"/><polyline class="cls-5" points="60.55 14.85 14.46 14.85 14.46 126.22 60.55 126.22"/><line class="cls-5" x1="24.45" y1="50.56" x2="24.45" y2="113.93"/><line class="cls-5" x1="26.37" y1="115.85" x2="48.64" y2="115.85"/><line class="cls-5" x1="50.18" y1="50.56" x2="50.18" y2="113.93"/><line class="cls-5" x1="36.35" y1="102.8" x2="34.05" y2="102.8"/><line class="cls-5" x1="37.5" y1="103.95" x2="37.5" y2="106.25"/><line class="cls-5" x1="38.66" y1="102.8" x2="40.96" y2="102.8"/><line class="cls-5" x1="37.5" y1="101.64" x2="37.5" y2="99.34"/><polyline class="cls-5" points="56.71 37.51 56.32 34.05 55.56 30.59 53.63 27.52 51.72 24.45 49.03 22.14 45.95 20.22 42.88 18.68 39.04 18.3 35.58 18.3 32.13 18.68 28.67 20.22 25.98 22.14 23.29 24.45 20.99 27.52 19.45 30.59 18.3 34.05 18.3 37.51"/><polyline class="cls-5" points="52.87 122.38 53.63 122.38 54.4 122.38 54.79 122 55.56 121.61 55.94 121.23 56.32 120.46 56.32 120.08 56.71 119.31 56.71 118.54"/><polyline class="cls-5" points="18.3 118.54 18.3 119.31 18.3 120.08 18.68 120.46 19.07 121.23 19.45 121.61 19.84 122 20.61 122.38 21.37 122.38 21.76 122.38"/><polyline class="cls-5" points="37.5 100.88 37.12 100.88 36.74 101.26 36.35 101.26 35.97 101.64 35.58 102.03 35.58 102.41 35.58 102.8 35.58 103.18 35.58 103.56 35.58 103.95 35.97 104.33 36.35 104.33 36.74 104.72 37.12 104.72 37.5 104.72 37.89 104.72 38.27 104.72 38.66 104.33 39.04 104.33 39.04 103.95 39.42 103.56 39.42 103.18 39.42 102.8 39.42 102.41 39.04 102.03 39.04 101.64 38.66 101.64 38.27 101.26 37.89 100.88 37.5 100.88"/><polyline class="cls-5" points="50.18 50.56 50.18 48.26 49.41 45.95 48.26 43.65 47.11 41.73 45.19 40.19 43.27 39.04 40.96 38.27 38.66 37.51 36.35 37.51 34.05 38.27 31.74 39.04 29.82 40.19 27.9 41.73 26.37 43.65 25.6 45.95 24.83 48.26 24.45 50.56"/><polyline class="cls-5" points="24.45 113.93 24.45 114.32 24.83 114.7 24.83 115.09 24.83 115.47 25.21 115.47 25.6 115.85 25.98 115.85 26.37 115.85"/><polyline class="cls-5" points="50.18 113.93 50.18 114.32 50.18 114.7 50.18 115.09 49.8 115.47 49.41 115.85 49.03 115.85 48.64 115.85"/><polyline class="cls-5" points="37.5 100.49 37.12 100.49 36.35 100.49 35.97 100.88 35.58 100.88 35.2 101.26 35.2 102.03 34.82 102.41 34.82 102.8 34.82 103.18 34.82 103.95 35.2 104.33 35.58 104.72 35.97 105.1 36.35 105.1 36.74 105.48 37.12 105.48 37.5 105.48 38.27 105.48 38.66 105.1 39.04 105.1 39.42 104.72 39.81 104.33 39.81 103.95 39.81 103.18 39.81 102.8 39.81 102.41 39.81 102.03 39.42 101.26 39.04 100.88 38.66 100.88 38.27 100.49 37.89 100.49 37.5 100.49"/><polyline class="cls-5" points="136.21 111.25 136.21 126.22 100.88 126.22 100.88 111.25"/><line class="cls-5" x1="113.17" y1="126.22" x2="124.3" y2="126.22"/><line class="cls-5" x1="115.85" y1="114.32" x2="117.77" y2="114.32"/><line class="cls-5" x1="118.54" y1="117.01" x2="118.54" y2="115.09"/><line class="cls-5" x1="119.7" y1="114.32" x2="121.62" y2="114.32"/><line class="cls-5" x1="118.54" y1="113.17" x2="118.54" y2="111.25"/><path class="cls-5" d="M128.15,117.53a15.92,15.92,0,0,0,6.18-7.54"/><path class="cls-5" d="M118.61,120a15.93,15.93,0,0,0,9.5-2.24"/><path class="cls-5" d="M102.76,110a15.87,15.87,0,0,0,6.18,7.54"/><path class="cls-5" d="M109,117.79a15.9,15.9,0,0,0,9.5,2.24"/><path class="cls-5" d="M130.41,102.33a29,29,0,0,0-10.7-2.91"/><path class="cls-5" d="M104.25,103.63a9,9,0,0,0-3.37,7.43"/><path class="cls-5" d="M119.6,99a17.38,17.38,0,0,0-2.5,0"/><path class="cls-5" d="M108.43,117a64.77,64.77,0,0,0,19.85,0"/><path class="cls-5" d="M102,108.75a22.13,22.13,0,0,0,5,14.36"/><path class="cls-5" d="M108.54,124.36a44.45,44.45,0,0,0,10.15,1.09"/><path class="cls-5" d="M106.9,123.25a2.92,2.92,0,0,0,1.6,1"/><path class="cls-5" d="M108.35,122.82a73.78,73.78,0,0,0,10,.71"/><path class="cls-5" d="M101.65,108.48a20.12,20.12,0,0,0,5,13.6"/><path class="cls-5" d="M106.59,122.18a2.86,2.86,0,0,0,1.76.94"/><path class="cls-5" d="M130.39,122.1a20.15,20.15,0,0,0,5.05-13.59"/><path class="cls-5" d="M130.05,123.13a22,22,0,0,0,5-14.35"/><path class="cls-5" d="M118.68,123.54a75.29,75.29,0,0,0,9.95-.71"/><path class="cls-5" d="M118.34,125.45a44.35,44.35,0,0,0,10.14-1.08"/><path class="cls-5" d="M128.34,123.12a2.84,2.84,0,0,0,1.77-.94"/><path class="cls-5" d="M128.59,124.23a2.87,2.87,0,0,0,1.59-1"/><path class="cls-5" d="M136.2,111.06a9,9,0,0,0-3.37-7.43"/><path class="cls-5" d="M132.87,103.57a13.62,13.62,0,0,0-2.36-1.53"/><path class="cls-5" d="M106.58,102a14.1,14.1,0,0,0-2.37,1.53"/><path class="cls-5" d="M117.38,99.42a29,29,0,0,0-10.71,2.91"/><path class="cls-5" d="M123.26,101.46a20.9,20.9,0,0,0-9.82,0"/><path class="cls-5" d="M133.89,109.87a5.17,5.17,0,0,0-1.78-4.28"/><path class="cls-5" d="M131.93,105.94a19.13,19.13,0,0,0-8.74-4"/><path class="cls-5" d="M105,105.59a5.18,5.18,0,0,0-1.79,4.28"/><path class="cls-5" d="M113.51,101.93a19.09,19.09,0,0,0-8.73,4"/><path class="cls-5" d="M120.46,114.13a2.11,2.11,0,1,0-2.11,2.11,2.11,2.11,0,0,0,2.11-2.11"/><path class="cls-5" d="M120.08,114.13a1.73,1.73,0,1,0-1.73,1.72,1.72,1.72,0,0,0,1.73-1.72"/><line class="cls-5" x1="77.83" y1="116.24" x2="77.83" y2="93.58"/><polyline class="cls-5" points="76.68 117.78 76.68 126.22 100.88 126.22"/><line class="cls-5" x1="88.97" y1="112.4" x2="97.8" y2="112.4"/><polyline class="cls-5" points="77.83 93.58 79.75 112.4 88.97 112.4"/><line class="cls-5" x1="100.11" y1="93.58" x2="97.8" y2="112.4"/><line class="cls-5" x1="78.22" y1="93.58" x2="80.52" y2="112.4"/><line class="cls-5" x1="99.34" y1="93.58" x2="97.42" y2="112.4"/><line class="cls-5" x1="100.11" y1="116.24" x2="100.11" y2="93.58"/><line class="cls-5" x1="100.88" y1="126.22" x2="100.88" y2="117.77"/><polyline class="cls-5" points="77.83 93.58 78.22 90.89 78.98 88.59 80.52 86.28 82.44 84.75 84.75 83.59 87.43 82.83 90.12 82.83 92.81 83.59 95.11 84.75 97.42 86.28 98.95 88.59 99.72 90.89 100.11 93.58"/><polyline class="cls-5" points="78.22 93.58 78.6 90.89 79.37 88.97 80.9 86.67 82.83 85.13 85.13 83.98 87.43 83.59 90.12 83.59 92.81 83.98 94.73 85.13 96.65 86.67 98.19 88.97 99.34 90.89 99.34 93.58"/><polyline class="cls-5" points="100.88 117.78 100.88 117.39 100.88 117.01 100.49 116.62 100.11 116.24 99.72 116.24 88.97 115.47 77.83 116.24 77.45 116.24 77.45 116.62 77.06 116.62 77.06 117.01 76.68 117.01 76.68 117.39 76.68 117.78"/><polyline class="cls-5" points="88.97 119.69 88.59 119.69 88.2 119.69 87.82 120.08 87.82 120.46 87.82 120.85 87.82 121.23 87.82 121.61 88.2 121.61 88.2 122 88.59 122 88.97 122 89.35 122 89.74 121.61 89.74 121.23 90.12 121.23 90.12 120.85 90.12 120.46 90.12 120.08 89.74 120.08 89.74 119.69 89.35 119.69 88.97 119.69"/><polyline class="cls-5" points="63.62 14.85 63.62 44.03 102.8 44.03 102.8 14.85 63.62 14.85"/><polyline class="cls-5" points="186.14 359.35 6.78 359.35 6.78 410.05 186.14 410.05 186.14 359.35"/><polyline class="cls-5" points="209.95 152.34 209.95 344.38 209.95 396.99 413.12 396.99 413.12 47.49 303.66 47.49 303.66 97.42 209.95 97.42 209.95 152.34"/><polyline class="cls-5" points="143.12 13.31 143.12 92.04 143.12 152.34 196.51 152.34 196.51 92.04 298.29 92.04 298.29 13.31 143.12 13.31"/><line class="cls-5" x1="298.29" y1="0.25" x2="143.12" y2="0.25"/><line class="cls-5" x1="186.14" y1="431.56" x2="419.65" y2="431.56"/><line class="cls-5" x1="186.14" y1="431.56" x2="186.14" y2="431.56"/><line class="cls-5" x1="419.65" y1="431.56" x2="419.65" y2="431.56"/><line class="cls-5" x1="186.14" y1="431.56" x2="186.14" y2="431.56"/><line class="cls-5" x1="419.65" y1="419.65" x2="419.65" y2="419.65"/><line class="cls-5" x1="194.2" y1="419.65" x2="194.2" y2="419.65"/><path d="M198.81,413.12h0Z"/><path class="cls-5" d="M198.81,413.12h0Z"/><path d="M228,413.12h0Zm0,0Z"/><path class="cls-5" d="M228,413.12h0Zm0,0Z"/><path d="M198.81,413.12,228,416.2H196.51Zm29.19,0H198.81L228,416.2Z"/><path class="cls-5" d="M198.81,413.12,228,416.2H196.51Zm29.19,0H198.81L228,416.2Z"/><path d="M228,419.65H196.51V416.2Zm0,0Z"/><path class="cls-5" d="M228,419.65H196.51V416.2Zm0,0Z"/><polygon points="196.51 416.2 228 416.2 228 419.65 196.51 416.2"/><polygon class="cls-5" points="196.51 416.2 228 416.2 228 419.65 196.51 416.2"/><path d="M336.31,413.12h0Zm0,0Z"/><path class="cls-5" d="M336.31,413.12h0Zm0,0Z"/><path d="M339,413.12h0Zm0,0Z"/><path class="cls-5" d="M339,413.12h0Zm0,0Z"/><path d="M339,419.65H288.3v-6.53Zm0,0Z"/><path class="cls-5" d="M339,419.65H288.3v-6.53Zm0,0Z"/><polygon points="288.3 413.12 339 413.12 339 419.65 288.3 413.12"/><polygon class="cls-5" points="288.3 413.12 339 413.12 339 419.65 288.3 413.12"/><path d="M419.65,413.12h0Zm0,0Z"/><path class="cls-5" d="M419.65,413.12h0Zm0,0Z"/><path d="M419.65,419.65H399.3v-6.53Zm0,0Z"/><path class="cls-5" d="M419.65,419.65H399.3v-6.53Zm0,0Z"/><polygon points="399.3 413.12 419.65 413.12 419.65 419.65 399.3 413.12"/><polygon class="cls-5" points="399.3 413.12 419.65 413.12 419.65 419.65 399.3 413.12"/><path d="M196.51,419.65h0Zm0-3.45v3.45H194.2Z"/><path class="cls-5" d="M196.51,419.65h0Zm0-3.45v3.45H194.2Z"/><path d="M413.12,397h0Z"/><path class="cls-5" d="M413.12,397h0Z"/><path d="M419.65,413.12h-6.53V397Zm0,0Z"/><path class="cls-5" d="M419.65,413.12h-6.53V397Zm0,0Z"/><polygon points="413.12 396.99 419.65 396.99 419.65 413.12 413.12 396.99"/><polygon class="cls-5" points="413.12 396.99 419.65 396.99 419.65 413.12 413.12 396.99"/><path d="M210,397h0Z"/><path class="cls-5" d="M210,397h0Z"/><path d="M210,397l15.75,13.06H210Zm15.75,0H210l15.75,13.06Z"/><path class="cls-5" d="M210,397l15.75,13.06H210Zm15.75,0H210l15.75,13.06Z"/><path d="M225.7,413.12H210v-3.07Zm0,0Z"/><path class="cls-5" d="M225.7,413.12H210v-3.07Zm0,0Z"/><polygon points="209.95 410.05 225.7 410.05 225.7 413.12 209.95 410.05"/><polygon class="cls-5" points="209.95 410.05 225.7 410.05 225.7 413.12 209.95 410.05"/><path d="M291,397h0Z"/><path class="cls-5" d="M291,397h0Z"/><path d="M291,410.05h0Zm45.32,0h0ZM291,397l45.32,13.06H291Zm45.32,0H291l45.32,13.06Z"/><path class="cls-5" d="M291,410.05h0Zm45.32,0h0ZM291,397l45.32,13.06H291Zm45.32,0H291l45.32,13.06Z"/><path d="M336.31,413.12H291v-3.07Zm0,0Z"/><path class="cls-5" d="M336.31,413.12H291v-3.07Zm0,0Z"/><polygon points="290.99 410.05 336.31 410.05 336.31 413.12 290.99 410.05"/><polygon class="cls-5" points="290.99 410.05 336.31 410.05 336.31 413.12 290.99 410.05"/><path d="M402,397h0Z"/><path class="cls-5" d="M402,397h0Z"/><path d="M402,397l11.14,13.06H402Zm11.14,0H402l11.14,13.06Z"/><path class="cls-5" d="M402,397l11.14,13.06H402Zm11.14,0H402l11.14,13.06Z"/><path d="M413.12,413.12H402v-3.07Zm0,0Z"/><path class="cls-5" d="M413.12,413.12H402v-3.07Zm0,0Z"/><polygon points="401.99 410.05 413.12 410.05 413.12 413.12 401.99 410.05"/><polygon class="cls-5" points="401.99 410.05 413.12 410.05 413.12 413.12 401.99 410.05"/><path d="M210,413.12h0ZM210,397v16.13H198.81Z"/><path class="cls-5" d="M210,413.12h0ZM210,397v16.13H198.81Z"/><line class="cls-5" x1="288.3" y1="419.65" x2="339" y2="419.65"/><line class="cls-5" x1="196.51" y1="419.65" x2="228" y2="419.65"/><line class="cls-5" x1="399.3" y1="419.65" x2="419.65" y2="419.65"/><line class="cls-5" x1="194.2" y1="419.65" x2="196.51" y2="419.65"/><polyline class="cls-5" points="413.12 396.99 413.12 413.12 419.65 413.12"/><line class="cls-5" x1="290.99" y1="413.12" x2="336.31" y2="413.12"/><line class="cls-5" x1="209.95" y1="413.12" x2="225.7" y2="413.12"/><line class="cls-5" x1="401.98" y1="413.12" x2="413.12" y2="413.12"/><polyline class="cls-5" points="209.95 396.99 209.95 413.12 198.81 413.12"/><line class="cls-5" x1="401.98" y1="410.05" x2="401.98" y2="396.99"/><polyline class="cls-5" points="399.3 419.65 399.3 413.12 401.99 413.12 401.99 410.05"/><line class="cls-5" x1="336.31" y1="410.05" x2="336.31" y2="396.99"/><polyline class="cls-5" points="339 419.65 339 413.12 336.31 413.12 336.31 410.05"/><line class="cls-5" x1="290.99" y1="410.05" x2="290.99" y2="396.99"/><polyline class="cls-5" points="288.3 419.65 288.3 413.12 290.99 413.12 290.99 410.05"/><line class="cls-5" x1="225.7" y1="410.05" x2="225.7" y2="396.99"/><polyline class="cls-5" points="228 419.65 228 413.12 225.7 413.12 225.7 410.05"/><line class="cls-5" x1="413.12" y1="396.99" x2="401.98" y2="396.99"/><line class="cls-5" x1="336.31" y1="396.99" x2="290.99" y2="396.99"/><line class="cls-5" x1="225.7" y1="396.99" x2="209.95" y2="396.99"/><line class="cls-5" x1="186.14" y1="431.56" x2="419.65" y2="431.56"/><line class="cls-5" x1="339" y1="419.65" x2="399.3" y2="419.65"/><line class="cls-5" x1="336.31" y1="396.99" x2="401.98" y2="396.99"/><path d="M336.31,410.05h0Z"/><path class="cls-5" d="M336.31,410.05h0Z"/><path d="M344,413.12h-7.68v-3.07Zm0,0Z"/><path class="cls-5" d="M344,413.12h-7.68v-3.07Zm0,0Z"/><polygon points="336.31 410.05 343.99 410.05 343.99 413.12 336.31 410.05"/><polygon class="cls-5" points="336.31 410.05 343.99 410.05 343.99 413.12 336.31 410.05"/><path d="M393.92,410.05h0Z"/><path class="cls-5" d="M393.92,410.05h0Z"/><path d="M402,413.12h-8.06v-3.07Zm0,0Z"/><path class="cls-5" d="M402,413.12h-8.06v-3.07Zm0,0Z"/><polygon points="393.92 410.05 401.99 410.05 401.99 413.12 393.92 410.05"/><polygon class="cls-5" points="393.92 410.05 401.99 410.05 401.99 413.12 393.92 410.05"/><polyline class="cls-5" points="336.31 410.05 343.99 410.05 343.99 413.12 336.31 413.12"/><polyline class="cls-5" points="401.99 413.12 393.92 413.12 393.92 410.05 401.99 410.05"/><line class="cls-5" x1="343.99" y1="410.05" x2="393.92" y2="410.05"/><line class="cls-5" x1="393.92" y1="413.12" x2="343.99" y2="413.12"/><polyline class="cls-5" points="339 413.12 336.31 413.12 336.31 410.05"/><polyline class="cls-5" points="399.3 413.12 401.99 413.12 401.99 410.05"/><line class="cls-5" x1="228" y1="419.65" x2="288.3" y2="419.65"/><line class="cls-5" x1="225.7" y1="396.99" x2="290.99" y2="396.99"/><path d="M225.7,410.05h0Z"/><path class="cls-5" d="M225.7,410.05h0Z"/><path d="M233.38,413.12H225.7v-3.07Zm0,0Z"/><path class="cls-5" d="M233.38,413.12H225.7v-3.07Zm0,0Z"/><polygon points="225.7 410.05 233.38 410.05 233.38 413.12 225.7 410.05"/><polygon class="cls-5" points="225.7 410.05 233.38 410.05 233.38 413.12 225.7 410.05"/><path d="M283.31,410.05h0Z"/><path class="cls-5" d="M283.31,410.05h0Z"/><path d="M291,413.12h-7.68v-3.07Zm0,0Z"/><path class="cls-5" d="M291,413.12h-7.68v-3.07Zm0,0Z"/><polygon points="283.31 410.05 290.99 410.05 290.99 413.12 283.31 410.05"/><polygon class="cls-5" points="283.31 410.05 290.99 410.05 290.99 413.12 283.31 410.05"/><polyline class="cls-5" points="225.7 410.05 233.38 410.05 233.38 413.12 225.7 413.12"/><polyline class="cls-5" points="290.99 413.12 283.31 413.12 283.31 410.05 290.99 410.05"/><line class="cls-5" x1="233.38" y1="410.05" x2="283.31" y2="410.05"/><line class="cls-5" x1="283.31" y1="413.12" x2="233.38" y2="413.12"/><polyline class="cls-5" points="228 413.12 225.7 413.12 225.7 410.05"/><polyline class="cls-5" points="288.3 413.12 290.99 413.12 290.99 410.05"/><line class="cls-5" x1="419.65" y1="431.56" x2="423.49" y2="431.56"/><line class="cls-5" x1="419.65" y1="431.56" x2="419.65" y2="431.56"/><line class="cls-5" x1="419.65" y1="431.56" x2="419.65" y2="431.56"/><line class="cls-5" x1="419.65" y1="419.65" x2="419.65" y2="419.65"/><polyline points="423.49 413.12 419.65 413.12 423.49 413.12"/><polyline class="cls-5" points="423.49 413.12 419.65 413.12 423.49 413.12"/><polyline points="423.49 419.65 419.65 419.65 419.65 413.12 423.49 419.65"/><polyline points="423.49 419.65 419.65 419.65 423.49 419.65"/><polyline class="cls-5" points="423.49 419.65 419.65 419.65 419.65 413.12 423.49 419.65"/><polyline class="cls-5" points="423.49 419.65 419.65 419.65 423.49 419.65"/><polyline points="423.49 419.65 419.65 413.12 423.49 413.12"/><polyline class="cls-5" points="423.49 419.65 419.65 413.12 423.49 413.12"/><polyline points="423.49 396.99 423.49 396.99 423.49 396.99"/><polyline class="cls-5" points="423.49 396.99 423.49 396.99 423.49 396.99"/><polyline points="423.49 408.51 423.49 408.51 423.49 396.99 423.49 408.51"/><polyline points="423.49 396.99 423.49 396.99 423.49 408.51"/><polyline class="cls-5" points="423.49 408.51 423.49 408.51 423.49 396.99 423.49 408.51"/><polyline class="cls-5" points="423.49 396.99 423.49 396.99 423.49 408.51"/><polyline points="423.49 411.97 423.49 411.97 423.49 408.51 423.49 411.97"/><polyline points="423.49 408.51 423.49 408.51 423.49 411.97"/><polyline class="cls-5" points="423.49 411.97 423.49 411.97 423.49 408.51 423.49 411.97"/><polyline class="cls-5" points="423.49 408.51 423.49 408.51 423.49 411.97"/><polyline points="423.49 413.12 423.49 413.12 423.49 411.97 423.49 413.12"/><polyline points="423.49 413.12 423.49 413.12 423.49 413.12"/><polyline class="cls-5" points="423.49 413.12 423.49 413.12 423.49 411.97 423.49 413.12"/><polyline class="cls-5" points="423.49 413.12 423.49 413.12 423.49 413.12"/><polyline points="423.49 413.12 423.49 411.97 423.49 411.97"/><polyline class="cls-5" points="423.49 413.12 423.49 411.97 423.49 411.97"/><path d="M419.65,397h0Z"/><path class="cls-5" d="M419.65,397h0Z"/><path d="M423.49,413.12h-3.84V397Zm0,0Z"/><path class="cls-5" d="M423.49,413.12h-3.84V397Zm0,0Z"/><polygon points="419.65 396.99 423.49 396.99 423.49 413.12 419.65 396.99"/><polygon class="cls-5" points="419.65 396.99 423.49 396.99 423.49 413.12 419.65 396.99"/><line class="cls-5" x1="419.65" y1="419.65" x2="423.49" y2="419.65"/><line class="cls-5" x1="423.49" y1="413.12" x2="423.49" y2="413.12"/><polyline class="cls-5" points="419.65 413.12 423.49 419.65 423.49 396.99"/><line class="cls-5" x1="423.49" y1="396.99" x2="423.49" y2="396.99"/><line class="cls-5" x1="419.65" y1="431.56" x2="423.49" y2="431.56"/><line class="cls-5" x1="1.4" y1="431.56" x2="186.14" y2="431.56"/><line class="cls-5" x1="186.14" y1="431.56" x2="186.14" y2="431.56"/><line class="cls-5" x1="186.14" y1="419.65" x2="186.14" y2="419.65"/><polyline points="1.4 417.73 6.78 417.73 1.4 417.73"/><polyline class="cls-5" points="1.4 417.73 6.78 417.73 1.4 417.73"/><polyline points="1.4 417.73 6.78 419.65 1.4 419.65"/><polyline points="1.4 419.65 6.78 419.65 6.78 419.65 1.4 419.65"/><polyline class="cls-5" points="1.4 417.73 6.78 419.65 1.4 419.65"/><polyline class="cls-5" points="1.4 419.65 6.78 419.65 6.78 419.65 1.4 419.65"/><polyline points="1.4 417.73 6.78 417.73 6.78 419.65 1.4 417.73"/><polyline class="cls-5" points="1.4 417.73 6.78 417.73 6.78 419.65 1.4 417.73"/><path d="M177.69,417.73h0Z"/><path class="cls-5" d="M177.69,417.73h0Z"/><path d="M186.14,419.65h-8.45v-1.92Zm0,0Z"/><path class="cls-5" d="M186.14,419.65h-8.45v-1.92Zm0,0Z"/><polygon points="177.69 417.73 186.14 417.73 186.14 419.65 177.69 417.73"/><polygon class="cls-5" points="177.69 417.73 186.14 417.73 186.14 419.65 177.69 417.73"/><polyline points="1.4 410.05 6.78 410.44 1.4 410.44"/><polyline points="1.4 410.05 6.78 410.44 6.78 410.05 1.4 410.05"/><polyline class="cls-5" points="1.4 410.05 6.78 410.44 1.4 410.44"/><polyline class="cls-5" points="1.4 410.05 6.78 410.44 6.78 410.05 1.4 410.05"/><polyline points="1.4 413.89 6.78 413.89 1.4 413.89"/><polyline points="1.4 413.89 6.78 413.89 1.4 413.89"/><polyline points="1.4 410.44 6.78 413.89 1.4 413.89"/><polyline points="1.4 410.44 6.78 413.89 6.78 410.44 1.4 410.44"/><polyline class="cls-5" points="1.4 413.89 6.78 413.89 1.4 413.89"/><polyline class="cls-5" points="1.4 413.89 6.78 413.89 1.4 413.89"/><polyline class="cls-5" points="1.4 410.44 6.78 413.89 1.4 413.89"/><polyline class="cls-5" points="1.4 410.44 6.78 413.89 6.78 410.44 1.4 410.44"/><polyline points="1.4 413.89 6.78 417.73 1.4 417.73"/><polyline points="1.4 413.89 6.78 417.73 6.78 413.89 1.4 413.89"/><polyline class="cls-5" points="1.4 413.89 6.78 417.73 1.4 417.73"/><polyline class="cls-5" points="1.4 413.89 6.78 417.73 6.78 413.89 1.4 413.89"/><path d="M177.69,410.05h0Z"/><path class="cls-5" d="M177.69,410.05h0Z"/><path d="M177.69,410.05l8.45.38h-8.45Zm8.45,0h-8.45l8.45.38Z"/><path class="cls-5" d="M177.69,410.05l8.45.38h-8.45Zm8.45,0h-8.45l8.45.38Z"/><path d="M177.69,410.43l8.45,3.46h-8.45Zm8.45,0h-8.45l8.45,3.46Z"/><path class="cls-5" d="M177.69,410.43l8.45,3.46h-8.45Zm8.45,0h-8.45l8.45,3.46Z"/><path d="M186.14,417.73h-8.45v-3.84Zm0,0Z"/><path class="cls-5" d="M186.14,417.73h-8.45v-3.84Zm0,0Z"/><polygon points="177.69 413.89 186.14 413.89 186.14 417.73 177.69 413.89"/><polygon class="cls-5" points="177.69 413.89 186.14 413.89 186.14 417.73 177.69 413.89"/><path d="M6.78,413.89l1.92,3.84H6.78Zm1.92,0H6.78l1.92,3.84Z"/><path class="cls-5" d="M6.78,413.89l1.92,3.84H6.78Zm1.92,0H6.78l1.92,3.84Z"/><path d="M6.78,417.73l1.92,1.92H6.78Zm1.92,0H6.78l1.92,1.92Z"/><path class="cls-5" d="M6.78,417.73l1.92,1.92H6.78Zm1.92,0H6.78l1.92,1.92Z"/><path d="M175.77,413.89l1.92,3.84h-1.92Zm1.92,0h-1.92l1.92,3.84Z"/><path class="cls-5" d="M175.77,413.89l1.92,3.84h-1.92Zm1.92,0h-1.92l1.92,3.84Z"/><path d="M175.77,417.73l1.92,1.92h-1.92Zm1.92,0h-1.92l1.92,1.92Z"/><path class="cls-5" d="M175.77,417.73l1.92,1.92h-1.92Zm1.92,0h-1.92l1.92,1.92Z"/><line class="cls-5" x1="177.69" y1="419.65" x2="186.14" y2="419.65"/><line class="cls-5" x1="1.4" y1="419.65" x2="6.78" y2="419.65"/><line class="cls-5" x1="177.69" y1="417.73" x2="186.14" y2="417.73"/><line class="cls-5" x1="1.4" y1="417.73" x2="6.78" y2="417.73"/><polyline class="cls-5" points="177.69 417.73 177.69 413.89 175.77 413.89 175.77 419.65 177.69 419.65"/><polyline class="cls-5" points="6.78 417.73 6.78 413.89 8.7 413.89 8.7 419.65 6.78 419.65"/><polyline class="cls-5" points="177.69 413.89 177.69 410.44 177.69 410.05"/><polyline class="cls-5" points="6.78 413.89 6.78 410.44 6.78 410.05"/><line class="cls-5" x1="1.4" y1="431.56" x2="186.14" y2="431.56"/><line class="cls-5" x1="6.78" y1="410.05" x2="1.4" y2="410.05"/><line class="cls-5" x1="8.7" y1="419.65" x2="175.77" y2="419.65"/><line class="cls-5" x1="6.78" y1="410.05" x2="177.69" y2="410.05"/><path d="M6.78,410.43h0Z"/><path class="cls-5" d="M6.78,410.43h0Z"/><path d="M10.62,413.89H6.78v-3.46Zm0,0Z"/><path class="cls-5" d="M10.62,413.89H6.78v-3.46Zm0,0Z"/><polygon points="6.78 410.44 10.62 410.44 10.62 413.89 6.78 410.44"/><polygon class="cls-5" points="6.78 410.44 10.62 410.44 10.62 413.89 6.78 410.44"/><path d="M61.32,410.43h0Z"/><path class="cls-5" d="M61.32,410.43h0Z"/><path d="M64,413.89H61.32v-3.46Zm0,0Z"/><path class="cls-5" d="M64,413.89H61.32v-3.46Zm0,0Z"/><polygon points="61.32 410.44 64 410.44 64 413.89 61.32 410.44"/><polygon class="cls-5" points="61.32 410.44 64 410.44 64 413.89 61.32 410.44"/><path d="M64,410.43h0Z"/><path class="cls-5" d="M64,410.43h0Z"/><path d="M66.69,413.89H64v-3.46Zm0,0Z"/><path class="cls-5" d="M66.69,413.89H64v-3.46Zm0,0Z"/><polygon points="64 410.44 66.69 410.44 66.69 413.89 64 410.44"/><polygon class="cls-5" points="64 410.44 66.69 410.44 66.69 413.89 64 410.44"/><path d="M117.77,410.43h0Z"/><path class="cls-5" d="M117.77,410.43h0Z"/><path d="M120.08,413.89h-2.31v-3.46Zm0,0Z"/><path class="cls-5" d="M120.08,413.89h-2.31v-3.46Zm0,0Z"/><polygon points="117.78 410.44 120.08 410.44 120.08 413.89 117.78 410.44"/><polygon class="cls-5" points="117.78 410.44 120.08 410.44 120.08 413.89 117.78 410.44"/><path d="M120.08,410.43h0Z"/><path class="cls-5" d="M120.08,410.43h0Z"/><path d="M122.77,413.89h-2.69v-3.46Zm0,0Z"/><path class="cls-5" d="M122.77,413.89h-2.69v-3.46Zm0,0Z"/><polygon points="120.08 410.44 122.77 410.44 122.77 413.89 120.08 410.44"/><polygon class="cls-5" points="120.08 410.44 122.77 410.44 122.77 413.89 120.08 410.44"/><path d="M173.85,410.43h0Z"/><path class="cls-5" d="M173.85,410.43h0Z"/><path d="M177.69,413.89h-3.84v-3.46Zm0,0Z"/><path class="cls-5" d="M177.69,413.89h-3.84v-3.46Zm0,0Z"/><polygon points="173.85 410.44 177.69 410.44 177.69 413.89 173.85 410.44"/><polygon class="cls-5" points="173.85 410.44 177.69 410.44 177.69 413.89 173.85 410.44"/><polyline class="cls-5" points="6.78 413.89 10.62 413.89 10.62 410.44 6.78 410.44"/><polyline class="cls-5" points="64 410.44 61.32 410.44 61.32 413.89 64 413.89"/><line class="cls-5" x1="10.62" y1="413.89" x2="61.32" y2="413.89"/><line class="cls-5" x1="61.32" y1="410.43" x2="10.62" y2="410.43"/><polyline class="cls-5" points="64 413.89 66.69 413.89 66.69 410.44 64 410.44"/><polyline class="cls-5" points="120.08 410.44 117.78 410.44 117.78 413.89 120.08 413.89"/><line class="cls-5" x1="66.69" y1="413.89" x2="117.77" y2="413.89"/><line class="cls-5" x1="117.77" y1="410.43" x2="66.69" y2="410.43"/><polyline class="cls-5" points="120.08 413.89 122.77 413.89 122.77 410.44 120.08 410.44"/><polyline class="cls-5" points="177.69 410.44 173.85 410.44 173.85 413.89 177.69 413.89"/><line class="cls-5" x1="122.77" y1="413.89" x2="173.85" y2="413.89"/><line class="cls-5" x1="173.85" y1="410.43" x2="122.77" y2="410.43"/><line class="cls-5" x1="6.78" y1="413.89" x2="6.78" y2="410.43"/><line class="cls-5" x1="177.69" y1="413.89" x2="177.69" y2="410.43"/><polygon class="cls-5" points="186.14 358.97 186.91 358.97 186.14 359.35 186.14 358.97"/><path class="cls-5" d="M94.35,359h0Z"/><path class="cls-5" d="M.25,359l94.1.38H.25Zm94.1,0H.25l94.1.38Z"/><path class="cls-5" d="M179.61,359h0Z"/><path class="cls-5" d="M186.14,359.35h-6.53V359Zm0,0Z"/><polygon class="cls-5" points="179.61 358.97 186.14 358.97 186.14 359.35 179.61 358.97"/><path d="M196.51,349h-9.6v10Zm0,0Z"/><path class="cls-5" d="M196.51,349h-9.6v10Zm0,0Z"/><path d="M94.35,349h0Z"/><path class="cls-5" d="M94.35,349h0Z"/><path d="M94.35,359H.25V349Zm0,0Z"/><path class="cls-5" d="M94.35,359H.25V349Zm0,0Z"/><polygon points="0.25 348.98 94.35 348.98 94.35 358.97 0.25 348.98"/><polygon class="cls-5" points="0.25 348.98 94.35 348.98 94.35 358.97 0.25 348.98"/><path d="M179.61,349h0Z"/><path class="cls-5" d="M179.61,349h0Z"/><path d="M186.91,359h-7.3V349Zm0,0Z"/><path class="cls-5" d="M186.91,359h-7.3V349Zm0,0Z"/><polygon points="179.61 348.98 186.91 348.98 186.91 358.97 179.61 348.98"/><polygon class="cls-5" points="179.61 348.98 186.91 348.98 186.91 358.97 179.61 348.98"/><path d="M210,335.93H196.51V349Zm0,0Z"/><path class="cls-5" d="M210,335.93H196.51V349Zm0,0Z"/><path d="M13.31,335.93l81,9.6h-81Zm81,0h-81l81,9.6Z"/><path class="cls-5" d="M13.31,335.93l81,9.6h-81Zm81,0h-81l81,9.6Z"/><path d="M13.31,345.53l81,3.45h-81Zm81,0h-81l81,3.45Z"/><path class="cls-5" d="M13.31,345.53l81,3.45h-81Zm81,0h-81l81,3.45Z"/><path d="M179.61,335.93h0Z"/><path class="cls-5" d="M179.61,335.93h0Z"/><path d="M179.61,335.93l16.9,9.6h-16.9Zm16.9,0h-16.9l16.9,9.6Z"/><path class="cls-5" d="M179.61,335.93l16.9,9.6h-16.9Zm16.9,0h-16.9l16.9,9.6Z"/><path d="M196.51,349h-16.9v-3.45Zm0,0Z"/><path class="cls-5" d="M196.51,349h-16.9v-3.45Zm0,0Z"/><polygon points="179.61 345.53 196.51 345.53 196.51 348.98 179.61 345.53"/><polygon class="cls-5" points="179.61 345.53 196.51 345.53 196.51 348.98 179.61 345.53"/><path d="M.25,335.93h0Z"/><path class="cls-5" d="M.25,335.93h0Z"/><path d="M13.31,349H.25V335.93Zm0,0Z"/><path class="cls-5" d="M13.31,349H.25V335.93Zm0,0Z"/><polygon points="0.25 335.93 13.31 335.93 13.31 348.98 0.25 335.93"/><polygon class="cls-5" points="0.25 335.93 13.31 335.93 13.31 348.98 0.25 335.93"/><path class="cls-5" d="M94.35,349l.76,10h-.76Zm.76,0h-.76l.76,10Z"/><path class="cls-5" d="M94.35,359l.76.38h-.76Zm.76,0h-.76l.76.38Z"/><path class="cls-5" d="M178.84,349l.77,10h-.77Zm.77,0h-.77l.77,10Z"/><path class="cls-5" d="M178.84,359l.77.38h-.77Zm.77,0h-.77l.77.38Z"/><line class="cls-5" x1="179.61" y1="358.97" x2="186.91" y2="358.97"/><line class="cls-5" x1="0.25" y1="358.97" x2="94.35" y2="358.97"/><polyline class="cls-5" points="196.51 335.93 196.51 348.98 179.61 348.98"/><line class="cls-5" x1="13.31" y1="348.98" x2="94.35" y2="348.98"/><line class="cls-5" x1="0.25" y1="335.93" x2="0.25" y2="348.98"/><polyline class="cls-5" points="0.25 348.98 13.31 348.98 13.31 335.93"/><polyline class="cls-5" points="179.61 358.97 179.61 348.98 178.84 348.98 178.84 359.35 179.61 359.35"/><polyline class="cls-5" points="94.35 358.97 94.35 348.98 95.11 348.98 95.11 359.35 94.35 359.35"/><polyline class="cls-5" points="179.61 348.98 179.61 345.53 179.61 335.93"/><polyline class="cls-5" points="94.35 348.98 94.35 345.53 94.35 335.93"/><line class="cls-5" x1="0.25" y1="359.35" x2="94.35" y2="359.35"/><line class="cls-5" x1="179.61" y1="359.35" x2="186.14" y2="359.35"/><polyline class="cls-5" points="209.95 335.93 196.51 335.93 179.61 335.93"/><line class="cls-5" x1="94.35" y1="335.93" x2="13.31" y2="335.93"/><line class="cls-5" x1="95.11" y1="359.35" x2="178.84" y2="359.35"/><line class="cls-5" x1="94.35" y1="335.93" x2="179.61" y2="335.93"/><path d="M94.35,345.53h0Z"/><path class="cls-5" d="M94.35,345.53h0Z"/><path d="M100.11,349H94.35v-3.45Zm0,0Z"/><path class="cls-5" d="M100.11,349H94.35v-3.45Zm0,0Z"/><polygon points="94.35 345.53 100.11 345.53 100.11 348.98 94.35 345.53"/><polygon class="cls-5" points="94.35 345.53 100.11 345.53 100.11 348.98 94.35 345.53"/><path d="M123.92,345.53h0Z"/><path class="cls-5" d="M123.92,345.53h0Z"/><path d="M127.38,349h-3.46v-3.45Zm0,0Z"/><path class="cls-5" d="M127.38,349h-3.46v-3.45Zm0,0Z"/><polygon points="123.92 345.53 127.38 345.53 127.38 348.98 123.92 345.53"/><polygon class="cls-5" points="123.92 345.53 127.38 345.53 127.38 348.98 123.92 345.53"/><path d="M127.38,345.53h0Z"/><path class="cls-5" d="M127.38,345.53h0Z"/><path d="M130.45,349h-3.07v-3.45Zm0,0Z"/><path class="cls-5" d="M130.45,349h-3.07v-3.45Zm0,0Z"/><polygon points="127.38 345.53 130.45 345.53 130.45 348.98 127.38 345.53"/><polygon class="cls-5" points="127.38 345.53 130.45 345.53 130.45 348.98 127.38 345.53"/><path d="M174.23,345.53h0Z"/><path class="cls-5" d="M174.23,345.53h0Z"/><path d="M179.61,349h-5.38v-3.45Zm0,0Z"/><path class="cls-5" d="M179.61,349h-5.38v-3.45Zm0,0Z"/><polygon points="174.23 345.53 179.61 345.53 179.61 348.98 174.23 345.53"/><polygon class="cls-5" points="174.23 345.53 179.61 345.53 179.61 348.98 174.23 345.53"/><polyline class="cls-5" points="94.35 348.98 100.11 348.98 100.11 345.53 94.35 345.53"/><polyline class="cls-5" points="127.38 345.53 123.92 345.53 123.92 348.98 127.38 348.98"/><line class="cls-5" x1="100.11" y1="348.98" x2="123.92" y2="348.98"/><line class="cls-5" x1="123.92" y1="345.53" x2="100.11" y2="345.53"/><polyline class="cls-5" points="127.38 348.98 130.45 348.98 130.45 345.53 127.38 345.53"/><polyline class="cls-5" points="179.61 345.53 174.23 345.53 174.23 348.98 179.61 348.98"/><line class="cls-5" x1="130.45" y1="348.98" x2="174.23" y2="348.98"/><line class="cls-5" x1="174.23" y1="345.53" x2="130.45" y2="345.53"/><line class="cls-5" x1="94.35" y1="348.98" x2="94.35" y2="345.53"/><line class="cls-5" x1="179.61" y1="348.98" x2="179.61" y2="345.53"/><line class="cls-5" x1="186.14" y1="431.56" x2="186.14" y2="431.56"/><line class="cls-5" x1="186.91" y1="430.41" x2="186.91" y2="430.41"/><line class="cls-5" x1="186.14" y1="419.65" x2="186.14" y2="419.65"/><line class="cls-5" x1="186.91" y1="419.65" x2="186.91" y2="419.65"/><line class="cls-5" x1="186.14" y1="419.65" x2="186.14" y2="419.65"/><path class="cls-5" d="M186.91,419.65h-.77v-60.3Zm0,0Z"/><path class="cls-5" d="M186.14,359.35h.77v60.3Zm.77-.38-.77.38h.77Z"/><line class="cls-5" x1="186.91" y1="430.41" x2="186.91" y2="430.41"/><line class="cls-5" x1="186.91" y1="419.65" x2="186.91" y2="419.65"/><line class="cls-5" x1="194.2" y1="419.65" x2="194.2" y2="419.65"/><line class="cls-5" x1="186.91" y1="419.65" x2="186.91" y2="419.65"/><path d="M186.91,413.12h0Z"/><path class="cls-5" d="M186.91,413.12h0Z"/><path d="M186.91,413.12l9.6,3.08h-9.6Zm9.6,0h-9.6l9.6,3.08Z"/><path class="cls-5" d="M186.91,413.12l9.6,3.08h-9.6Zm9.6,0h-9.6l9.6,3.08Z"/><path d="M194.2,419.65h-7.29V416.2Zm0,0Z"/><path class="cls-5" d="M194.2,419.65h-7.29V416.2Zm0,0Z"/><polygon points="186.91 416.2 196.51 416.2 194.2 419.65 186.91 416.2"/><polygon class="cls-5" points="186.91 416.2 196.51 416.2 194.2 419.65 186.91 416.2"/><path d="M186.91,359h0Z"/><path class="cls-5" d="M186.91,359h0Z"/><path d="M196.51,413.12h-9.6V359Zm0,0Z"/><path class="cls-5" d="M196.51,413.12h-9.6V359Zm0,0Z"/><path d="M186.91,359h9.6v54.15Zm9.6-10-9.6,10h9.6Z"/><path class="cls-5" d="M186.91,359h9.6v54.15Zm9.6-10-9.6,10h9.6Z"/><path d="M186.91,359h0Z"/><path class="cls-5" d="M186.91,359h0Z"/><path d="M198.81,413.12h-2.3v3.08Zm0,0Z"/><path class="cls-5" d="M198.81,413.12h-2.3v3.08Zm0,0Z"/><path d="M210,335.93V349H196.51ZM210,349v0Z"/><path class="cls-5" d="M210,335.93V349H196.51ZM210,349v0Z"/><path d="M196.51,349,210,397H196.51ZM210,349H196.51L210,397Z"/><path class="cls-5" d="M196.51,349,210,397H196.51ZM210,349H196.51L210,397Z"/><path d="M198.81,413.12h-2.3V397Zm0,0Z"/><path class="cls-5" d="M198.81,413.12h-2.3V397Zm0,0Z"/><polygon points="196.51 396.99 209.95 396.99 198.81 413.12 196.51 396.99"/><polygon class="cls-5" points="196.51 396.99 209.95 396.99 198.81 413.12 196.51 396.99"/><polyline class="cls-5" points="194.2 419.65 186.91 419.65 186.14 419.65"/><polyline class="cls-5" points="186.91 358.97 186.91 413.12 186.91 419.65"/><polyline class="cls-5" points="198.81 413.12 196.51 413.12 196.51 348.98"/><line class="cls-5" x1="209.95" y1="396.99" x2="209.95" y2="335.93"/><path d="M1.4,359.35l5.38,50.7H1.4Zm5.38,0H1.4l5.38,50.7Z"/><path class="cls-5" d="M1.4,359.35l5.38,50.7H1.4Zm5.38,0H1.4l5.38,50.7Z"/><polyline class="cls-5" points="1.4 359.35 1.4 419.65 6.78 410.05 6.78 359.35 1.4 359.35"/><path d="M298.29,13.31h0Z"/><path class="cls-5" d="M298.29,13.31h0Z"/><path d="M298.29,34.43h13l-13,13.06Zm0-21.12V34.43h13Z"/><path class="cls-5" d="M298.29,34.43h13l-13,13.06Zm0-21.12V34.43h13Z"/><polygon points="298.29 13.31 311.35 13.31 311.35 34.43 298.29 13.31"/><polygon class="cls-5" points="298.29 13.31 311.35 13.31 311.35 34.43 298.29 13.31"/><line class="cls-5" x1="311.34" y1="34.43" x2="311.34" y2="13.31"/><line class="cls-5" x1="298.29" y1="13.31" x2="298.29" y2="47.49"/><path d="M311.34,34.43,413.12,47.49H298.29Zm101.78,0H311.34L413.12,47.49Z"/><path class="cls-5" d="M311.34,34.43,413.12,47.49H298.29Zm101.78,0H311.34L413.12,47.49Z"/><polyline class="cls-5" points="311.35 34.43 413.12 34.43 413.12 47.49 298.29 47.49"/><line class="cls-5" x1="423.49" y1="47.49" x2="423.49" y2="34.43"/><path d="M137,152.34h0Zm0,0Z"/><path class="cls-5" d="M137,152.34h0Zm0,0Z"/><path d="M137,152.34h0Z"/><path class="cls-5" d="M137,152.34h0Z"/><path d="M13.31,152.34l129.81,5.38H13.31Zm129.81,0H13.31l129.81,5.38Z"/><path class="cls-5" d="M13.31,152.34l129.81,5.38H13.31Zm129.81,0H13.31l129.81,5.38Z"/><path d="M19.07,157.72h0Zm0,0Zm-5.76,0h0Z"/><path class="cls-5" d="M19.07,157.72h0Zm0,0Zm-5.76,0h0Z"/><path d="M196.51,152.34h0Z"/><path class="cls-5" d="M196.51,152.34h0Z"/><path d="M196.51,157.72h-1.15v-5.38Zm0,0Z"/><path class="cls-5" d="M196.51,157.72h-1.15v-5.38Zm0,0Z"/><polygon points="195.36 152.34 196.51 152.34 196.51 157.72 195.36 152.34"/><polygon class="cls-5" points="195.36 152.34 196.51 152.34 196.51 157.72 195.36 152.34"/><path d="M210,152.34h0Z"/><path class="cls-5" d="M210,152.34h0Z"/><path d="M204.57,157.72h-8.06v-5.38Zm0,0Z"/><path class="cls-5" d="M204.57,157.72h-8.06v-5.38Zm0,0Z"/><polygon points="196.51 152.34 209.95 152.34 204.57 157.72 196.51 152.34"/><polygon class="cls-5" points="196.51 152.34 209.95 152.34 204.57 157.72 196.51 152.34"/><line class="cls-5" x1="143.12" y1="157.72" x2="143.12" y2="152.34"/><line class="cls-5" x1="196.51" y1="152.34" x2="196.51" y2="157.72"/><line class="cls-5" x1="209.95" y1="152.34" x2="209.95" y2="152.34"/><polyline class="cls-5" points="195.36 157.72 195.36 152.34 196.51 152.34"/><line class="cls-5" x1="143.12" y1="152.34" x2="13.31" y2="152.34"/><line class="cls-5" x1="13.31" y1="157.72" x2="143.12" y2="157.72"/><line class="cls-5" x1="195.36" y1="157.72" x2="204.57" y2="157.72"/><line class="cls-5" x1="143.12" y1="152.34" x2="146.2" y2="152.34"/><line class="cls-5" x1="143.12" y1="157.72" x2="146.2" y2="157.72"/><line class="cls-5" x1="195.36" y1="152.34" x2="191.9" y2="152.34"/><line class="cls-5" x1="195.36" y1="157.72" x2="191.9" y2="157.72"/><line class="cls-5" x1="146.2" y1="157.72" x2="146.2" y2="152.34"/><polyline class="cls-5" points="191.9 157.72 191.9 152.34 191.9 106.64"/><path class="cls-5" d="M191.71,106.25a45.9,45.9,0,0,0-45.9,45.9"/><path d="M137.75,127.38h0Z"/><path class="cls-5" d="M137.75,127.38h0Z"/><path d="M137.75,132.75H13.31v-5.37Zm0,0Z"/><path class="cls-5" d="M137.75,132.75H13.31v-5.37Zm0,0Z"/><polygon points="13.31 127.38 137.75 127.38 137.75 132.75 13.31 127.38"/><polygon class="cls-5" points="13.31 127.38 137.75 127.38 137.75 132.75 13.31 127.38"/><line class="cls-5" x1="13.31" y1="132.75" x2="48.26" y2="132.75"/><line class="cls-5" x1="53.64" y1="132.75" x2="86.67" y2="132.75"/><line class="cls-5" x1="91.66" y1="132.75" x2="137.75" y2="132.75"/><polyline class="cls-5" points="137.75 127.38 13.31 127.38 13.31 132.75"/><path d="M143.12,85.51h0Z"/><path class="cls-5" d="M143.12,85.51h0Z"/><path d="M143.12,152.34h-5.37V85.51Zm0,0Z"/><path class="cls-5" d="M143.12,152.34h-5.37V85.51Zm0,0Z"/><polygon points="137.75 85.51 143.12 85.51 143.12 152.34 137.75 85.51"/><polygon class="cls-5" points="137.75 85.51 143.12 85.51 143.12 152.34 137.75 85.51"/><path d="M143.12,13.31h0Z"/><path class="cls-5" d="M143.12,13.31h0Z"/><path d="M143.12,32.9h-5.37V13.31Zm0,0Z"/><path class="cls-5" d="M143.12,32.9h-5.37V13.31Zm0,0Z"/><polygon points="137.75 13.31 143.12 13.31 143.12 32.9 137.75 13.31"/><polygon class="cls-5" points="137.75 13.31 143.12 13.31 143.12 32.9 137.75 13.31"/><line class="cls-5" x1="143.12" y1="85.51" x2="137.75" y2="85.51"/><polyline class="cls-5" points="143.12 32.9 137.75 32.9 137.75 13.31"/><line class="cls-5" x1="137.75" y1="85.51" x2="137.75" y2="127.38"/><polyline class="cls-5" points="137.75 132.75 137.75 152.34 143.12 152.34 143.12 85.51"/><polyline class="cls-5" points="143.12 32.9 143.12 13.31 137.75 13.31"/><line class="cls-5" x1="143.12" y1="85.51" x2="143.12" y2="82.06"/><line class="cls-5" x1="137.75" y1="85.51" x2="137.75" y2="82.06"/><line class="cls-5" x1="143.12" y1="32.9" x2="143.12" y2="36.35"/><line class="cls-5" x1="137.75" y1="32.9" x2="137.75" y2="36.35"/><line class="cls-5" x1="137.75" y1="82.06" x2="143.12" y2="82.06"/><polyline class="cls-5" points="137.75 36.35 143.12 36.35 165.78 75.91"/><path class="cls-5" d="M142.93,82.06a45.88,45.88,0,0,0,22.95-6.15"/><path d="M303.66,47.49h0Z"/><path class="cls-5" d="M303.66,47.49h0Z"/><path d="M298.29,92h5.37v5.38Zm0-44.55V92h5.37Z"/><path class="cls-5" d="M298.29,92h5.37v5.38Zm0-44.55V92h5.37Z"/><polygon points="298.29 47.49 303.66 47.49 303.66 92.04 298.29 47.49"/><polygon class="cls-5" points="298.29 47.49 303.66 47.49 303.66 92.04 298.29 47.49"/><polyline class="cls-5" points="303.66 97.42 303.66 47.49 298.29 47.49 298.29 92.04"/><path d="M91.66,132.75h0Z"/><path class="cls-5" d="M91.66,132.75h0Z"/><path d="M91.66,152.34h-5V132.75Zm0,0Z"/><path class="cls-5" d="M91.66,152.34h-5V132.75Zm0,0Z"/><polygon points="86.67 132.75 91.66 132.75 91.66 152.34 86.67 132.75"/><polygon class="cls-5" points="86.67 132.75 91.66 132.75 91.66 152.34 86.67 132.75"/><polyline class="cls-5" points="86.67 132.75 86.67 152.34 91.66 152.34 91.66 132.75"/><path d="M210,92h0Z"/><path class="cls-5" d="M210,92h0Z"/><path d="M210,97.42H196.51V92Zm0,0Z"/><path class="cls-5" d="M210,97.42H196.51V92Zm0,0Z"/><polygon points="196.51 92.04 209.95 92.04 209.95 97.42 196.51 92.04"/><polygon class="cls-5" points="196.51 92.04 209.95 92.04 209.95 97.42 196.51 92.04"/><path d="M213,92h0Z"/><path class="cls-5" d="M213,92h0Z"/><path d="M213,97.42H210V92Zm0,0Z"/><path class="cls-5" d="M213,97.42H210V92Zm0,0Z"/><polygon points="209.95 92.04 213.02 92.04 213.02 97.42 209.95 92.04"/><polygon class="cls-5" points="209.95 92.04 213.02 92.04 213.02 97.42 209.95 92.04"/><path d="M298.29,92h0Z"/><path class="cls-5" d="M298.29,92h0Z"/><path d="M303.66,97.42H272.17V92Zm0,0Z"/><path class="cls-5" d="M303.66,97.42H272.17V92Zm0,0Z"/><polygon points="272.17 92.04 298.29 92.04 303.66 97.42 272.17 92.04"/><polygon class="cls-5" points="272.17 92.04 298.29 92.04 303.66 97.42 272.17 92.04"/><line class="cls-5" x1="196.51" y1="92.04" x2="196.51" y2="97.42"/><line class="cls-5" x1="209.95" y1="97.42" x2="209.95" y2="92.04"/><line class="cls-5" x1="213.02" y1="97.42" x2="213.02" y2="92.04"/><polyline class="cls-5" points="272.17 97.42 272.17 92.04 298.29 92.04"/><line class="cls-5" x1="213.02" y1="92.04" x2="209.95" y2="92.04"/><line class="cls-5" x1="196.51" y1="92.04" x2="196.51" y2="97.42"/><line class="cls-5" x1="209.95" y1="97.42" x2="213.02" y2="97.42"/><line class="cls-5" x1="272.17" y1="97.42" x2="303.66" y2="97.42"/><line class="cls-5" x1="272.17" y1="97.42" x2="268.71" y2="97.42"/><line class="cls-5" x1="272.17" y1="92.04" x2="268.71" y2="92.04"/><line class="cls-5" x1="213.02" y1="97.42" x2="216.48" y2="97.42"/><line class="cls-5" x1="213.02" y1="92.04" x2="216.48" y2="92.04"/><line class="cls-5" x1="268.71" y1="92.04" x2="268.71" y2="97.42"/><polyline class="cls-5" points="216.48 92.04 216.48 97.42 216.48 149.65"/><path class="cls-5" d="M216.29,149.65a52.42,52.42,0,0,0,52.42-52.42"/><polygon points="209.95 152.34 209.95 157.72 204.57 157.72 209.95 152.34"/><polygon class="cls-5" points="209.95 152.34 209.95 157.72 204.57 157.72 209.95 152.34"/><path d="M210,339h-5.38V157.72Zm0,0Z"/><path class="cls-5" d="M210,339h-5.38V157.72Zm0,0Z"/><polygon points="204.57 157.72 209.95 157.72 209.95 339 204.57 157.72"/><polygon class="cls-5" points="204.57 157.72 209.95 157.72 209.95 339 204.57 157.72"/><polyline class="cls-5" points="204.57 157.72 204.57 339 209.95 339 209.95 152.34"/><path d="M53.64,132.75h0Z"/><path class="cls-5" d="M53.64,132.75h0Z"/><path d="M53.64,152.34H48.26V132.75Zm0,0Z"/><path class="cls-5" d="M53.64,152.34H48.26V132.75Zm0,0Z"/><polygon points="48.26 132.75 53.63 132.75 53.63 152.34 48.26 132.75"/><polygon class="cls-5" points="48.26 132.75 53.63 132.75 53.63 152.34 48.26 132.75"/><polyline class="cls-5" points="48.26 132.75 48.26 152.34 53.63 152.34 53.63 132.75"/><path d="M311.34.25,413.12,8.32H311.34Zm101.78,0H311.34L413.12,8.32Z"/><path class="cls-5" d="M311.34.25,413.12,8.32H311.34Zm101.78,0H311.34L413.12,8.32Z"/><polyline class="cls-5" points="413.12 0.25 311.35 0.25 311.35 8.31 413.12 8.31 413.12 0.25"/><polygon points="413.12 0.25 423.49 0.25 423.49 8.31 413.12 0.25"/><polygon class="cls-5" points="413.12 0.25 423.49 0.25 423.49 8.31 413.12 0.25"/><line class="cls-5" x1="423.49" y1="8.32" x2="423.49" y2="0.25"/><polyline points="0.25 0.25 198.81 0.25 0.25 0.25"/><polyline class="cls-5" points="0.25 0.25 198.81 0.25 0.25 0.25"/><polyline points="0.25 0.25 198.81 13.31 0.25 13.31"/><polyline points="0.25 13.31 198.81 13.31 198.81 13.31 0.25 13.31"/><polyline class="cls-5" points="0.25 0.25 198.81 13.31 0.25 13.31"/><polyline class="cls-5" points="0.25 13.31 198.81 13.31 198.81 13.31 0.25 13.31"/><polyline points="0.25 0.25 198.81 0.25 198.81 13.31 0.25 0.25"/><polyline class="cls-5" points="0.25 0.25 198.81 0.25 198.81 13.31 0.25 0.25"/><path d="M311.34,13.31H264.49V.25Zm0,0Z"/><path class="cls-5" d="M311.34,13.31H264.49V.25Zm0,0Z"/><polygon points="264.49 0.25 311.35 0.25 311.35 13.31 264.49 0.25"/><polygon class="cls-5" points="264.49 0.25 311.35 0.25 311.35 13.31 264.49 0.25"/><line class="cls-5" x1="264.49" y1="13.31" x2="264.49" y2="0.25"/><line class="cls-5" x1="198.81" y1="13.31" x2="198.81" y2="0.25"/><line class="cls-5" x1="311.34" y1="0.25" x2="264.49" y2="0.25"/><line class="cls-5" x1="198.81" y1="0.25" x2="0.25" y2="0.25"/><line class="cls-5" x1="0.25" y1="13.31" x2="0.25" y2="13.31"/><line class="cls-5" x1="13.31" y1="13.31" x2="198.81" y2="13.31"/><line class="cls-5" x1="264.49" y1="13.31" x2="298.29" y2="13.31"/><line class="cls-5" x1="311.34" y1="13.31" x2="311.34" y2="0.25"/><path class="cls-5" d="M201.5,13.12a60.11,60.11,0,0,0,60.11,60.1"/><path d="M198.81.25h0Z"/><path class="cls-5" d="M198.81.25h0Z"/><path d="M201.5,13.31h-2.69V.25Zm0,0Z"/><path class="cls-5" d="M201.5,13.31h-2.69V.25Zm0,0Z"/><polygon points="198.81 0.25 201.5 0.25 201.5 13.31 198.81 0.25"/><polygon class="cls-5" points="198.81 0.25 201.5 0.25 201.5 13.31 198.81 0.25"/><path d="M261.8.25h0Z"/><path class="cls-5" d="M261.8.25h0Z"/><path d="M264.49,13.31H261.8V.25Zm0,0Z"/><path class="cls-5" d="M264.49,13.31H261.8V.25Zm0,0Z"/><polygon points="261.8 0.25 264.49 0.25 264.49 13.31 261.8 0.25"/><polygon class="cls-5" points="261.8 0.25 264.49 0.25 264.49 13.31 261.8 0.25"/><polyline class="cls-5" points="198.81 0.25 201.5 0.25 201.5 13.31 198.81 13.31 198.81 0.25"/><polyline class="cls-5" points="264.49 13.31 261.8 13.31 261.8 0.25 264.49 0.25 264.49 13.31"/><line class="cls-5" x1="261.8" y1="13.31" x2="261.8" y2="73.61"/><line class="cls-5" x1="198.81" y1="13.31" x2="198.81" y2="0.25"/><line class="cls-5" x1="264.49" y1="13.31" x2="264.49" y2="0.25"/><path d="M.25,13.31h0Z"/><path class="cls-5" d="M.25,13.31h0Z"/><path d="M13.31,62.08H.25V13.31Zm0,0Z"/><path class="cls-5" d="M13.31,62.08H.25V13.31Zm0,0Z"/><polygon points="0.25 13.31 13.31 13.31 13.31 62.09 0.25 13.31"/><polygon class="cls-5" points="0.25 13.31 13.31 13.31 13.31 62.09 0.25 13.31"/><polyline class="cls-5" points="0.25 0.25 0.25 62.09 13.31 62.09 13.31 13.31"/><path d="M.25,127.38h0Z"/><path class="cls-5" d="M.25,127.38h0Z"/><path d="M13.31,273.71H.25V127.38Zm0,0Z"/><path class="cls-5" d="M13.31,273.71H.25V127.38Zm0,0Z"/><polygon points="0.25 127.38 13.31 127.38 13.31 273.71 0.25 127.38"/><polygon class="cls-5" points="0.25 127.38 13.31 127.38 13.31 273.71 0.25 127.38"/><polyline class="cls-5" points="0.25 127.38 0.25 273.71 13.31 273.71 13.31 157.72"/><line class="cls-5" x1="13.31" y1="152.34" x2="13.31" y2="132.75"/><line class="cls-5" x1="13.31" y1="127.38" x2="0.25" y2="127.38"/><polyline class="cls-5" points="288.3 469.2 288.3 431.56 290.22 431.56 290.22 470.73 288.3 469.2"/><polyline class="cls-5" points="226.47 470.73 226.47 431.56 228 431.56 228 469.2 288.3 469.2 290.22 470.73 226.47 470.73 228 469.2 226.47 470.73"/><polyline class="cls-5" points="227.23 469.96 289.07 469.96 289.07 431.56"/><polyline class="cls-5" points="229.92 459.21 286.76 459.21 286.76 438.09 229.92 438.09 229.92 459.21"/><polyline class="cls-5" points="229.92 456.91 286.76 456.91 286.76 438.09 229.92 438.09 229.92 456.91"/><line class="cls-5" x1="227.23" y1="469.97" x2="227.23" y2="431.56"/><polyline class="cls-5" points="311.35 8.31 415.43 8.31 415.43 34.43"/><polyline class="cls-5" points="52.48 196.89 52.48 160.79 105.1 160.79 105.1 196.89 52.48 196.89"/><polyline class="cls-5" points="101.64 193.82 73.22 193.82 73.22 167.32 101.64 167.32 101.64 193.82"/><line class="cls-5" x1="69" y1="193.44" x2="58.24" y2="193.44"/><line class="cls-5" x1="69" y1="188.83" x2="58.24" y2="188.83"/><line class="cls-5" x1="69" y1="184.6" x2="58.24" y2="184.6"/><line class="cls-5" x1="69" y1="180.38" x2="58.24" y2="180.38"/><line class="cls-5" x1="69" y1="176.15" x2="58.24" y2="176.15"/><line class="cls-5" x1="69" y1="171.54" x2="58.24" y2="171.54"/><line class="cls-5" x1="423.49" y1="285.61" x2="423.49" y2="285.61"/><line class="cls-5" x1="423.49" y1="290.22" x2="423.49" y2="290.22"/><path d="M.25,62.08h0Z"/><path class="cls-5" d="M.25,62.08h0Z"/><path d="M13.31,127.38H.25V62.08Zm0,0Z"/><path class="cls-5" d="M13.31,127.38H.25V62.08Zm0,0Z"/><polygon points="0.25 62.09 13.31 62.09 13.31 127.38 0.25 62.09"/><polygon class="cls-5" points="0.25 62.09 13.31 62.09 13.31 127.38 0.25 62.09"/><polyline class="cls-5" points="0.25 62.09 0.25 127.38 13.31 127.38 13.31 62.09 0.25 62.09"/><path d="M210,97.42h0Z"/><path class="cls-5" d="M210,97.42h0Z"/><path d="M210,152.34H196.51V97.42Zm0,0Z"/><path class="cls-5" d="M210,152.34H196.51V97.42Zm0,0Z"/><polygon points="196.51 97.42 209.95 97.42 209.95 152.34 196.51 97.42"/><polygon class="cls-5" points="196.51 97.42 209.95 97.42 209.95 152.34 196.51 97.42"/><line class="cls-5" x1="196.51" y1="97.42" x2="196.51" y2="152.34"/><line class="cls-5" x1="209.95" y1="152.34" x2="209.95" y2="97.42"/><path d="M.25,273.71h0Z"/><path class="cls-5" d="M.25,273.71h0Z"/><path d="M13.31,335.93H.25V273.71Zm0,0Z"/><path class="cls-5" d="M13.31,335.93H.25V273.71Zm0,0Z"/><polygon points="0.25 273.71 13.31 273.71 13.31 335.93 0.25 273.71"/><polygon class="cls-5" points="0.25 273.71 13.31 273.71 13.31 335.93 0.25 273.71"/><line class="cls-5" x1="0.25" y1="273.71" x2="0.25" y2="335.93"/><polyline class="cls-5" points="13.31 335.93 13.31 273.71 0.25 273.71"/><polygon points="413.12 0.25 423.49 8.31 413.12 8.31 413.12 0.25"/><polygon class="cls-5" points="413.12 0.25 423.49 8.31 413.12 8.31 413.12 0.25"/><path d="M423.49,397H413.12V8.32Zm0,0Z"/><path class="cls-5" d="M423.49,397H413.12V8.32Zm0,0Z"/><polygon points="413.12 8.31 423.49 8.31 423.49 396.99 413.12 8.31"/><polygon class="cls-5" points="413.12 8.31 423.49 8.31 423.49 396.99 413.12 8.31"/><line class="cls-5" x1="423.49" y1="396.99" x2="423.49" y2="8.32"/><line class="cls-5" x1="413.12" y1="0.25" x2="413.12" y2="396.99"/><text class="cls-6" transform="translate(86.63 67.88)">3.17</text><text class="cls-6" transform="translate(220.64 50.87)">3.77</text><text class="cls-6" transform="translate(288.51 373.85)">16.30</text><text class="cls-6" transform="translate(98 321.18)">7.66</text><text class="cls-6" transform="translate(75.54 392.6)">2.08</text></svg>